<svg xmlns="http://www.w3.org/2000/svg" width="24" height="24" viewBox="0 0 24 24" fill='currentColor'><path d="M5 18.042q1.35-1.325 3.137-2.087 1.788-.763 3.863-.763 2.074 0 3.863.763A10.1 10.1 0 0 1 19 18.042V5H5zm7-5.004q1.353 0 2.302-.947.948-.95.948-2.302 0-1.354-.948-2.302-.949-.95-2.302-.949-1.353 0-2.302.949-.948.948-.948 2.302t.948 2.302 2.302.948M3.5 20.5v-17h17v17zM6.442 19h11.116v-.212a8 8 0 0 0-2.6-1.576 8.5 8.5 0 0 0-2.958-.52 8.6 8.6 0 0 0-2.944.515 8.2 8.2 0 0 0-2.614 1.562zM12 11.539q-.721 0-1.235-.515a1.68 1.68 0 0 1-.515-1.235q0-.722.515-1.236A1.68 1.68 0 0 1 12 8.039q.72 0 1.236.514.514.515.514 1.236 0 .72-.514 1.235a1.68 1.68 0 0 1-1.236.515"/></svg>