<svg xmlns="http://www.w3.org/2000/svg" width="24" height="24" viewBox="0 0 24 24" fill='currentColor'><path d="M3.096 9.135v-1.5h3.808q.651 0 1.133.433.483.434.559 1.067zm2.77 8.98q1.297 0 2.206-.908A3 3 0 0 0 8.981 15q0-1.297-.909-2.207a3 3 0 0 0-2.207-.909q-1.297 0-2.206.91A3 3 0 0 0 2.75 15q0 1.297.909 2.207a3 3 0 0 0 2.206.909m13.634 0q.721 0 1.235-.514t.515-1.236q0-.72-.515-1.235a1.68 1.68 0 0 0-1.235-.515q-.721 0-1.235.515a1.7 1.7 0 0 0-.515 1.235q0 .722.515 1.236.513.515 1.235.515M5.863 16.309q-.545 0-.926-.383a1.27 1.27 0 0 1-.38-.927q0-.546.383-.926.381-.38.928-.38.546 0 .925.383.38.381.38.927t-.382.926-.928.38m14.118-3.168q.477.096.796.242.319.145.704.476V6.385H13.95l-1.05-1.1 1.4-1.4-.7-.7-3.55 3.55.75.7 1.4-1.4 1.05 1.05V9q0 .984-.7 1.684-.701.7-1.685.7h-2.15a4 4 0 0 1 .694.674q.264.334.547.826h.91q1.611 0 2.748-1.136Q14.75 10.611 14.75 9V7.885h5.23zm-3.677 2.61q.12-.492.275-.806.154-.314.48-.694h-6.65q.072.432.072.75 0 .32-.072.75zm3.196 3.865q-1.354 0-2.302-.948-.948-.949-.948-2.302t.948-2.301q.949-.949 2.302-.948 1.354 0 2.302.947.948.949.948 2.302t-.948 2.302q-.949.948-2.302.948m-13.635 0q-1.915 0-3.265-1.35T1.25 15t1.35-3.265 3.265-1.35 3.266 1.35T10.48 15t-1.35 3.265-3.266 1.35"/></svg>