<svg xmlns="http://www.w3.org/2000/svg" width="24" height="24" viewBox="0 0 24 24" fill='currentColor'><path d="m6.496 17 3.25-5-.512.775a138 138 0 0 0-1.113 1.713q-.6.938-1.112 1.724zM3.77 18.5 7.942 12 3.77 5.5h11.868l4.394 6.208a6 6 0 0 0-1.022-.268 5.4 5.4 0 0 0-1.053-.074L14.836 7h-8.34l3.25 5-3.25 5h4.896a4.3 4.3 0 0 0-.065.745q0 .37.037.755zm13.554 1.538 3.158-3.122-.839-.839-2.319 2.279-.965-.975-.839.854zm.677 2.52q-1.873 0-3.187-1.314-1.313-1.313-1.313-3.186t1.313-3.187T18 13.558t3.186 1.313 1.314 3.187-1.314 3.186Q19.874 22.558 18 22.558"/></svg>