<svg xmlns="http://www.w3.org/2000/svg" width="24" height="24" viewBox="0 0 24 24" fill='currentColor'><path d="M11.25 4.423v-3.5h1.5v3.5zm-4.002 1.32L4.604 3.097l1.07-1.069 2.643 2.644zM3.5 22.5v-8.423L5.806 7.5H9.46V5.73h2.42a6.4 6.4 0 0 0-.678 1.534 6 6 0 0 0-.242 1.726V9H6.87l-1.542 4.192h7.17q.338.447.747.83.41.381.906.67H5V19h14v-3.479q.4-.066.77-.187.37-.12.73-.288V22.5h-2.115v-2H5.615v2zm2.789-4.788H10V15.98H6.289zm7.711 0h3.712V15.98H14zm2.939-6.587 3.311-3.296-.838-.839-2.473 2.443-1.043-1.043-.838.854zm.715 2.365q-1.873 0-3.187-1.313-1.313-1.314-1.313-3.187t1.313-3.186 3.187-1.314 3.186 1.314 1.314 3.186-1.314 3.187q-1.312 1.313-3.186 1.313"/></svg>