<svg xmlns="http://www.w3.org/2000/svg" width="24" height="24" viewBox="0 0 24 24" fill='currentColor'><path d="M7 15.5h10V14H7zM7 12h3.692v-1.192H9.046a5 5 0 0 1 1.337-1.055A3.34 3.34 0 0 1 12 9.346q1.261 0 2.251.731A3.9 3.9 0 0 1 15.648 12h1.242a4.95 4.95 0 0 0-1.777-2.77A4.88 4.88 0 0 0 12 8.155q-1.1 0-2.085.49A5.6 5.6 0 0 0 8.192 9.97V8.308H7zm5.002 9.5a9.3 9.3 0 0 1-3.706-.748 9.6 9.6 0 0 1-3.016-2.03 9.6 9.6 0 0 1-2.032-3.016 9.25 9.25 0 0 1-.748-3.704q0-1.972.748-3.706a9.6 9.6 0 0 1 2.03-3.016 9.6 9.6 0 0 1 3.016-2.032 9.25 9.25 0 0 1 3.704-.748q1.972 0 3.706.748a9.6 9.6 0 0 1 3.017 2.03 9.6 9.6 0 0 1 2.03 3.016 9.25 9.25 0 0 1 .749 3.704q0 1.972-.748 3.706a9.6 9.6 0 0 1-2.03 3.017 9.6 9.6 0 0 1-3.016 2.03 9.25 9.25 0 0 1-3.704.749M12 20q3.35 0 5.675-2.325T20 12t-2.325-5.675T12 4 6.325 6.325 4 12t2.325 5.675T12 20"/></svg>