<svg xmlns="http://www.w3.org/2000/svg" width="24" height="24" viewBox="0 0 24 24" fill='currentColor'><path d="M2.5 12q0-2.113.826-3.907A9.57 9.57 0 0 1 8.873 3.02q1.868-.664 3.971-.476a.73.73 0 0 1 .502.271.66.66 0 0 1 .127.548.78.78 0 0 1-.308.507.8.8 0 0 1-.569.164q-1.745-.132-3.29.42A7.9 7.9 0 0 0 6.57 6.109 8.1 8.1 0 0 0 4.69 8.72Q4.001 10.23 4 12q0 3.35 2.325 5.675T12 20q1.754 0 3.255-.686a8.2 8.2 0 0 0 2.612-1.875 7.8 7.8 0 0 0 1.69-2.793 7.9 7.9 0 0 0 .409-3.242.8.8 0 0 1 .164-.569.78.78 0 0 1 .507-.308.66.66 0 0 1 .547.127.73.73 0 0 1 .272.502q.178 2.089-.476 3.95a9.6 9.6 0 0 1-1.946 3.293 9.3 9.3 0 0 1-3.179 2.302A9.5 9.5 0 0 1 12 21.5q-1.972 0-3.705-.748a9.6 9.6 0 0 1-3.016-2.03 9.6 9.6 0 0 1-2.03-3.017A9.25 9.25 0 0 1 2.5 12m15.309-3.058a2.66 2.66 0 0 1-1.949-.802 2.65 2.65 0 0 1-.802-1.947q0-1.145.802-1.948a2.65 2.65 0 0 1 1.947-.803q1.145 0 1.948.802a2.65 2.65 0 0 1 .803 1.947q0 1.146-.802 1.948a2.65 2.65 0 0 1-1.947.803"/></svg>