<svg xmlns="http://www.w3.org/2000/svg" width="24" height="24" viewBox="0 0 24 24" fill='currentColor'><path d="M11.999 4.5q3.14 0 5.32 2.18Q19.5 8.857 19.5 11.998t-2.18 5.32Q15.143 19.5 12.003 19.5T6.68 17.32Q4.5 15.143 4.5 12.003T6.68 6.68Q8.857 4.5 11.998 4.5M12 18q2.5 0 4.25-1.75T18 12t-1.75-4.25T12 6 7.75 7.75 6 12t1.75 4.25T12 18m0-2.692q1.133 0 2.044-.63A3.57 3.57 0 0 0 15.365 13h-6.73a3.57 3.57 0 0 0 1.32 1.678q.912.63 2.045.63m-3.365-5.306q0 .384.26.643a.88.88 0 0 0 .645.259.87.87 0 0 0 .644-.26.88.88 0 0 0 .258-.646.87.87 0 0 0-.26-.643.88.88 0 0 0-.645-.259.87.87 0 0 0-.644.26.88.88 0 0 0-.258.646m4.923 0q0 .384.26.643a.88.88 0 0 0 .645.259.87.87 0 0 0 .644-.26.88.88 0 0 0 .258-.646.87.87 0 0 0-.26-.643.88.88 0 0 0-.645-.259.87.87 0 0 0-.644.26.88.88 0 0 0-.258.646M1.5 6V1.5H6V3H3v3zm0 16.5V18H3v3h3v1.5zm16.5-.096v-1.5h3v-3h1.5v4.5zM21 6V3h-3V1.5h4.5V6z"/></svg>