<svg xmlns="http://www.w3.org/2000/svg" width="24" height="24" viewBox="0 0 24 24" fill='currentColor'><path d="M16.173 11.192V6.385h1.5v4.807zm-5.27 6.179a2.34 2.34 0 0 1-1.08-.855 2.3 2.3 0 0 1-.419-1.352v-8.78h1.5zm.952 4.129q-2.436 0-4.136-1.71t-1.7-4.146v-8.99q0-1.731 1.202-2.942T10.154 2.5t2.932 1.212q1.203 1.21 1.203 2.942V14h-1.5V6.644q-.015-1.107-.77-1.876Q11.265 4 10.154 4q-1.107 0-1.87.773a2.58 2.58 0 0 0-.765 1.88v8.991q-.015 1.814 1.254 3.085 1.27 1.27 3.083 1.271a4.3 4.3 0 0 0 1.121-.143 4 4 0 0 0 1.004-.43v1.667q-.496.2-1.03.303a6 6 0 0 1-1.096.103m4.318-1v-2.808h-2.807v-1.5h2.807v-2.807h1.5v2.807h2.808v1.5h-2.808V20.5z"/></svg>