<svg xmlns="http://www.w3.org/2000/svg" width="24" height="24" viewBox="0 0 24 24" fill='currentColor'><path d="M6.038 11.708v1.729q-.5.35-.75.727-.25.376-.25.72 0 .121.023.238a.8.8 0 0 0 .095.238l.507.246 2.722.269.16.434 1.118-.434h3.693l.696.912 2.637-.4 1.023-1.454h1.25v-.049q0-.344-.25-.72-.25-.378-.75-.727v-1.73q1.209.639 1.854 1.467.646.828.646 1.72a.2.2 0 0 1-.005.043.2.2 0 0 0-.005.044l.856 1.278-.904 2.693h-2.985l.11.519-2.25.904h-6.5l-.24-.64-2.645.63-3.211-2.298v-2.23l.915-.458a1.5 1.5 0 0 1-.047-.242 2 2 0 0 1-.013-.243q0-.892.646-1.72.645-.827 1.854-1.466m-1.517 6.155 1.04-1.03-1.109-.552-.577.288v.862zm1.671 1.204 1.943-.46-.58-1.54H7L5.536 18.54zm3.416.116h3.005l.695-1.398-.549-.718H9.897l-.917.379zm4.365 0h1.073l1.088-.445-.203-1.029-1.231.195zm3.239-1.414h2.348l.444-1.342-.208-.302h-1.463zm-9.856-4.73q.096-.329.14-.602.042-.276.042-.598 0-.799-.375-1.368t-.85-1.185a7.5 7.5 0 0 1-.888-1.469q-.337-.747-.337-1.804 0-.326.028-.689t.109-.786H6.74a7 7 0 0 0-.124.787 7 7 0 0 0-.028.613q0 .954.388 1.59.387.637.837 1.247.547.725.886 1.421.34.696.34 1.693 0 .291-.036.575-.036.282-.117.575zm3.711 0q.095-.329.14-.602a4 4 0 0 0 .043-.598q0-.799-.375-1.368t-.85-1.185a7.5 7.5 0 0 1-.889-1.469Q8.8 7.07 8.8 6.013q0-.326.028-.689t.108-.786h1.516q-.096.46-.137.787-.04.327-.04.613 0 .954.387 1.59.388.637.838 1.247.547.725.886 1.421t.339 1.693q0 .291-.023.575a3 3 0 0 1-.104.575zm3.712 0q.095-.329.14-.602a4 4 0 0 0 .042-.598q0-.799-.375-1.368t-.85-1.185a7.4 7.4 0 0 1-.888-1.469q-.337-.747-.337-1.804 0-.326.029-.689a7 7 0 0 1 .108-.786h1.516q-.097.46-.137.787t-.04.613q0 .954.387 1.59t.837 1.247q.547.725.886 1.421.34.696.34 1.693 0 .291-.024.575a3 3 0 0 1-.104.575z"/></svg>