<svg xmlns="http://www.w3.org/2000/svg" width="24" height="24" viewBox="0 0 24 24" fill='currentColor'><path d="m5.779 22.337-1.196-.902 2.898-3.783-.212-4.825q-.077-.938.095-2.102.17-1.164.52-2.144L5.818 9.806v3.444h-1.5V8.944L9.19 6.11q.285-.183.554-.252.27-.07.557-.07.523 0 .941.257.42.256.678.753l.794 1.55q.606 1.167 1.689 1.775t2.53.608v1.5h-.945l5.1 9.723-.78.423-5.472-10.421a5.9 5.9 0 0 1-1.895-1.029q-.846-.684-1.536-1.78a11 11 0 0 0-.566 2.104q-.18 1.082-.101 1.92l1.984 3.137v6.038h-1.5v-4.97L9.148 14.44l-.157 3.724zm5.712-17.49q-.759 0-1.303-.545A1.78 1.78 0 0 1 9.644 3q0-.758.544-1.302a1.78 1.78 0 0 1 1.303-.544q.757 0 1.301.544.544.545.544 1.302.001.758-.544 1.302a1.78 1.78 0 0 1-1.301.544"/></svg>