<svg xmlns="http://www.w3.org/2000/svg" width="24" height="24" viewBox="0 0 24 24" fill='currentColor'><path d="M7.558 21.5a2.95 2.95 0 0 1-2.163-.895 2.95 2.95 0 0 1-.895-2.163V5.75q0-1.354.948-2.302Q6.397 2.5 7.75 2.5H19.5v14.385a1.5 1.5 0 0 0-1.101.456 1.5 1.5 0 0 0-.457 1.101q0 .645.457 1.101A1.5 1.5 0 0 0 19.5 20v1.5zM6 15.844q.34-.232.73-.346t.828-.113h.634V4H7.75q-.721 0-1.235.515A1.68 1.68 0 0 0 6 5.75zm3.692-.46H18V4H9.692zM7.558 20h9.344a3 3 0 0 1-.338-.722 2.8 2.8 0 0 1-.122-.836q0-.429.114-.823.112-.395.346-.735H7.558q-.67 0-1.114.457A1.52 1.52 0 0 0 6 18.442q0 .67.444 1.114Q6.89 20 7.558 20"/></svg>