<svg xmlns="http://www.w3.org/2000/svg" width="24" height="24" viewBox="0 0 24 24" fill='currentColor'><path d="M10.18 13.604q.354 0 .665-.07.313-.069.616-.188l3.949 3.923 1.811-1.811-3.932-3.939q.128-.284.193-.593.064-.309.064-.687 0-1.374-.978-2.35a3.22 3.22 0 0 0-2.357-.976 3 3 0 0 0-.771.098q-.376.098-.73.27l2.215 2.225-1.477 1.477-2.235-2.225q-.17.351-.269.733a3 3 0 0 0-.098.778q0 1.377.979 2.356a3.2 3.2 0 0 0 2.356.979m1.822 7.896a9.3 9.3 0 0 1-3.706-.748 9.6 9.6 0 0 1-3.016-2.03 9.6 9.6 0 0 1-2.032-3.016 9.25 9.25 0 0 1-.748-3.704q0-1.972.748-3.706a9.6 9.6 0 0 1 2.03-3.016 9.6 9.6 0 0 1 3.016-2.032 9.25 9.25 0 0 1 3.704-.748q1.972 0 3.706.748a9.6 9.6 0 0 1 3.017 2.03 9.6 9.6 0 0 1 2.03 3.016 9.25 9.25 0 0 1 .749 3.704q0 1.972-.748 3.706a9.6 9.6 0 0 1-2.03 3.017 9.6 9.6 0 0 1-3.016 2.03 9.25 9.25 0 0 1-3.704.749M12 20q3.35 0 5.675-2.325T20 12t-2.325-5.675T12 4 6.325 6.325 4 12t2.325 5.675T12 20"/></svg>