<svg xmlns="http://www.w3.org/2000/svg" width="24" height="24" viewBox="0 0 24 24" fill='currentColor'><path d="M10.529 6.5h3q0-.65-.425-1.075Q12.678 5 12.029 5q-.65 0-1.075.425T10.529 6.5M7.183 8H6.029v7.192h1.154zM2.72 20.192v-1.5h8.648q.087.437.163.755t.264.745zM8.375 8v7.192h3.45a4.5 4.5 0 0 0-.264.74q-.076.315-.172.76h-6.86V6.5h4.807q0-1.115.789-1.904a2.6 2.6 0 0 1 1.904-.788q1.115 0 1.904.788T14.72 6.5h4.808v4.992a9 9 0 0 0-.742-.167 5 5 0 0 0-.758-.065V8h-1.154v3.33q-.344.057-.596.105a5 5 0 0 0-.596.16V8zm9.404 5.25q1.873 0 3.186 1.314 1.314 1.312 1.314 3.186 0 1.872-1.314 3.187-1.312 1.313-3.186 1.313t-3.187-1.313-1.313-3.187q0-1.873 1.313-3.186 1.314-1.314 3.187-1.314m0 7.423a.57.57 0 0 0 .421-.17.57.57 0 0 0 .171-.422.57.57 0 0 0-.17-.422.57.57 0 0 0-.422-.17.57.57 0 0 0-.421.17.57.57 0 0 0-.172.422q0 .25.172.421.17.171.42.171m.005-5.884q-.561 0-1.023.337-.464.338-.663.893l.742.312q.094-.3.342-.525a.86.86 0 0 1 .597-.225q.393 0 .616.196.222.195.222.59a.73.73 0 0 1-.16.48 6 6 0 0 1-.359.392q-.15.15-.303.31-.152.159-.278.342-.075.138-.112.293a1.4 1.4 0 0 0-.038.334v.313h.823v-.212q0-.285.15-.482.15-.198.35-.398.35-.3.55-.595.2-.294.2-.778 0-.702-.463-1.14-.462-.438-1.194-.437"/></svg>