<svg xmlns="http://www.w3.org/2000/svg" width="24" height="24" viewBox="0 0 24 24" fill='currentColor'><path d="M5.385 19.615h13.23v-1.97H5.385zm2.992-3.47h7.246l-.633-4.395H9.01zm-4.492 4.97v-4.97h2.992l.617-4.395h-2.61v-1.5h14.231v1.5h-2.61l.618 4.394h2.992v4.971zM7.439 10.25 5.808 2.885q.767.539 1.513.939a3.4 3.4 0 0 0 1.64.401q.915 0 1.67-.392.756-.393 1.369-.958.614.565 1.37.958a3.55 3.55 0 0 0 1.659.392q.867 0 1.603-.396a21 21 0 0 0 1.57-.944l-1.64 7.365h-1.54l1.051-4.661a3 3 0 0 1-.409.092q-.264.044-.674.044A5.6 5.6 0 0 1 12 4.848a5.4 5.4 0 0 1-2.938.877 6 6 0 0 1-.706-.034 2.3 2.3 0 0 1-.42-.083L8.98 10.25z"/></svg>