<svg xmlns="http://www.w3.org/2000/svg" width="24" height="24" viewBox="0 0 24 24" fill='currentColor'><path d="M20.127 22.235 17.381 19.5H6.5q-2.098 0-3.549-1.45-1.45-1.452-1.451-3.55 0-1.876 1.207-3.261 1.206-1.385 2.966-1.647.045-.286.179-.656.133-.37.294-.682L2.131 4.239l1.054-1.054L21.18 21.18zM6.5 18h9.362l-8.57-8.57A4.3 4.3 0 0 0 7 11h-.5q-1.45 0-2.475 1.025A3.37 3.37 0 0 0 3 14.5q0 1.45 1.025 2.475A3.37 3.37 0 0 0 6.5 18m14.754.404-1.085-1.054q.406-.36.619-.82T21 15.5q0-1.05-.725-1.775T18.5 13H17v-2q0-2.074-1.463-3.537T12 6q-.675 0-1.3.163-.626.162-1.2.512L8.415 5.581a7 7 0 0 1 1.738-.821A6.4 6.4 0 0 1 12 4.5q2.716 0 4.608 1.892T18.5 11v.5h.308q1.58.123 2.636 1.271t1.056 2.73q0 .83-.312 1.571-.313.741-.934 1.332"/></svg>