<svg xmlns="http://www.w3.org/2000/svg" width="24" height="24" viewBox="0 0 24 24" fill='currentColor'><path d="M6.5 21.5v-4.03a9.4 9.4 0 0 1-2.213-2.98 8.15 8.15 0 0 1-.787-3.497q0-3.539 2.48-6.016Q8.457 2.5 12 2.5q2.914 0 5.21 1.742 2.298 1.74 2.984 4.518l1.437 5.74H18.5v5h-4v2H13V18h4v-5h2.7l-.95-3.875a6.5 6.5 0 0 0-2.46-3.705Q14.407 4 12 4 9.1 4 7.05 6.028T5 10.96q0 1.497.612 2.845a7.5 7.5 0 0 0 1.738 2.396L8 16.8v4.7zm1.35-7.677q.667.667 1.639.667a2.24 2.24 0 0 0 1.642-.667l3.69-3.69q.67-.669.67-1.641a2.24 2.24 0 0 0-.668-1.642 2.24 2.24 0 0 0-1.642-.667q-.972 0-1.639.667a3.1 3.1 0 0 0-1.68-.14A2.68 2.68 0 0 0 7.71 8.86a3.1 3.1 0 0 0 .14 1.681 2.24 2.24 0 0 0-.667 1.642q0 .972.667 1.639"/></svg>