<svg xmlns="http://www.w3.org/2000/svg" width="24" height="24" viewBox="0 0 24 24" fill='currentColor'><path d="m10.277 13.075-.838-.838q.18-.276.25-.587a2.9 2.9 0 0 0-.004-1.28 1.6 1.6 0 0 0-.256-.562l.838-.854q.343.426.514.968a3.6 3.6 0 0 1 .005 2.172q-.166.54-.509.981m2.039 2.044-.855-.854q.606-.71.9-1.55.293-.84.293-1.715t-.293-1.708a4.7 4.7 0 0 0-.9-1.532l.854-.854q.774.876 1.152 1.932.38 1.055.38 2.162 0 1.108-.38 2.17a6 6 0 0 1-1.152 1.95M5 11.75q-.729 0-1.24-.51-.51-.511-.51-1.24t.51-1.24T5 8.25t1.24.51.51 1.24-.51 1.24-1.24.51m-3.75 4v-.373q0-.513.287-.932.285-.418.784-.64a6.4 6.4 0 0 1 1.29-.415q.668-.14 1.389-.14.72 0 1.39.14a6.4 6.4 0 0 1 1.289.416q.498.22.784.64.287.418.287.931v.373zm17.75-4q-.729 0-1.24-.51-.51-.511-.51-1.24t.51-1.24T19 8.25t1.24.51.51 1.24-.51 1.24-1.24.51m-3.75 4v-.373q0-.513.287-.932.285-.418.784-.64a6.4 6.4 0 0 1 1.29-.415q.668-.14 1.389-.14.72 0 1.39.14a6.4 6.4 0 0 1 1.289.416q.498.22.785.64.286.418.286.931v.373z"/></svg>