<svg xmlns="http://www.w3.org/2000/svg" width="24" height="24" viewBox="0 0 24 24" fill='currentColor'><path d="M12 21.192q-1.873 0-3.187-1.313Q7.5 18.565 7.5 16.692t1.313-3.186T12 12.192t3.187 1.314 1.313 3.186-1.313 3.187T12 21.192m0-1.5q1.25 0 2.125-.875A2.9 2.9 0 0 0 15 16.692q0-1.25-.875-2.125A2.9 2.9 0 0 0 12 13.692q-1.25 0-2.125.875A2.9 2.9 0 0 0 9 16.692q0 1.25.875 2.125a2.9 2.9 0 0 0 2.125.875m-4.98-7.907L2.73 7.477a13.6 13.6 0 0 1 4.286-2.72A13.4 13.4 0 0 1 12 3.808q2.595.001 4.985.95a13.6 13.6 0 0 1 4.284 2.72l-4.288 4.308a7.6 7.6 0 0 0-2.31-1.463A7.1 7.1 0 0 0 12 9.808q-1.396 0-2.671.514t-2.31 1.463m.13-1.977q1.05-.75 2.287-1.125A8.8 8.8 0 0 1 12 8.308q1.326 0 2.537.362 1.213.363 2.313 1.088l2.2-2.2A12.05 12.05 0 0 0 12 5.308a12.05 12.05 0 0 0-7.05 2.25z"/></svg>