<svg xmlns="http://www.w3.org/2000/svg" width="24" height="24" viewBox="0 0 24 24" fill='currentColor'><path d="m14.792 17.023-1.388-.608q.227-.563.38-1.165.154-.602.27-1.211l1.277 1.276q-.106.443-.237.87a9 9 0 0 1-.302.838m-3.25-1.35-1.388-.558q.302-.72.437-1.505.136-.783.136-1.61 0-.37-.023-.718a5 5 0 0 0-.094-.688l1.617 1.617q-.03.902-.19 1.769a8.6 8.6 0 0 1-.495 1.693m-3.219-1.35-1.388-.577q.121-.412.206-.853a4.7 4.7 0 0 0 0-1.786 9 9 0 0 0-.206-.853l1.388-.577q.187.533.295 1.118.11.585.109 1.205 0 .619-.109 1.205-.108.585-.295 1.118m7.379-1.467-1.506-1.506a12 12 0 0 0-.244-1.945 11 11 0 0 0-.548-1.82l1.388-.608q.468 1.173.701 2.433a14.2 14.2 0 0 1 .229 3.013q-.005.211-.02.433M12.106 9.26l-.76-.76.506-.225q.096.247.152.487.056.242.102.498m8.686 13.655-3.229-3.229A9.26 9.26 0 0 1 12 21.5a9.2 9.2 0 0 1-3.702-.749 9.6 9.6 0 0 1-3.016-2.032 9.6 9.6 0 0 1-2.032-3.016A9.2 9.2 0 0 1 2.5 12a9.26 9.26 0 0 1 1.814-5.564L1.28 3.404l1.069-1.07L21.86 21.846zM12 20a7.4 7.4 0 0 0 2.383-.377 8.3 8.3 0 0 0 2.08-1.037L5.413 7.537a8.3 8.3 0 0 0-1.036 2.081A7.4 7.4 0 0 0 4 12q0 3.325 2.338 5.663T12 20m8-2.846-1.11-1.11A7.7 7.7 0 0 0 20 12q0-3.325-2.337-5.663T12 4a7.7 7.7 0 0 0-4.044 1.11L6.846 4A9.6 9.6 0 0 1 9.27 2.891 9.4 9.4 0 0 1 12 2.5q1.97 0 3.703.749a9.6 9.6 0 0 1 3.016 2.032 9.6 9.6 0 0 1 2.032 3.016q.75 1.734.749 3.703 0 1.429-.392 2.73A9.6 9.6 0 0 1 20 17.154"/></svg>