<svg xmlns="http://www.w3.org/2000/svg" width="24" height="24" viewBox="0 0 24 24" fill='currentColor'><path d="M4.25 22.192v-1.5h15.5v1.5zm0-18.884v-1.5h15.5v1.5zM11.999 13.5q1.145 0 1.948-.802a2.65 2.65 0 0 0 .803-1.947q0-1.145-.802-1.948A2.65 2.65 0 0 0 12.001 8q-1.145 0-1.948.802a2.65 2.65 0 0 0-.803 1.947q0 1.146.802 1.948a2.65 2.65 0 0 0 1.947.803m-9.499 6v-15h19v15zM6.404 18a8 8 0 0 1 2.542-1.854A7.3 7.3 0 0 1 12 15.5q1.636 0 3.054.646A8 8 0 0 1 17.596 18H20V6H4v12zM8.7 18h6.6a5.5 5.5 0 0 0-1.562-.75A6 6 0 0 0 12 17q-.9 0-1.738.25A5.5 5.5 0 0 0 8.7 18m3.3-6q-.522 0-.886-.364a1.2 1.2 0 0 1-.364-.886q0-.52.364-.885T12 9.5t.886.365.364.885q0 .522-.364.886A1.2 1.2 0 0 1 12 12"/></svg>