<svg xmlns="http://www.w3.org/2000/svg" width="24" height="24" viewBox="0 0 24 24" fill='currentColor'><path d="m20 17.144-1.094-1.094q.478-.804.744-1.759.265-.954.34-1.962-1.23-.521-1.943-1.433a4.54 4.54 0 0 1-.905-2.125q-1.905-.217-3.232-1.525t-1.556-3.242a7.46 7.46 0 0 0-4.42 1.075L6.857 4q1.419-.954 3.211-1.333 1.793-.378 3.777.004-.147 1.077.198 1.997.347.921 1.034 1.557a4 4 0 0 0 1.645.91q.958.274 2.064.063-.555 1.58.428 2.72.983 1.137 2.256 1.246a9.9 9.9 0 0 1-.266 3.17A9.4 9.4 0 0 1 20 17.145m-11.5-2.24q-.577 0-.99-.413a1.35 1.35 0 0 1-.414-.991q0-.587.414-.995a1.36 1.36 0 0 1 .99-.409q.587 0 .995.409.41.408.409.995 0 .577-.409.99a1.35 1.35 0 0 1-.995.414m12.292 8.011-3.229-3.229A9.26 9.26 0 0 1 12 21.5a9.2 9.2 0 0 1-3.702-.749 9.6 9.6 0 0 1-3.016-2.032 9.6 9.6 0 0 1-2.032-3.016A9.2 9.2 0 0 1 2.5 12a9.26 9.26 0 0 1 1.814-5.564L1.28 3.404l1.069-1.07L21.86 21.846zM12 20a7.4 7.4 0 0 0 2.383-.377 8.3 8.3 0 0 0 2.08-1.037L5.413 7.537a8.3 8.3 0 0 0-1.036 2.081A7.4 7.4 0 0 0 4 12q0 3.325 2.338 5.663T12 20"/></svg>