<svg xmlns="http://www.w3.org/2000/svg" width="24" height="24" viewBox="0 0 24 24" fill='currentColor'><path d="M12 21.5q-1.972 0-3.705-.747a9.5 9.5 0 0 1-3.016-2.041 9.7 9.7 0 0 1-2.03-3.026A9.2 9.2 0 0 1 2.5 12q0-3.675 2.422-6.365T11 2.55v2.115q-2.787.38-4.585 2.467-1.8 2.087-1.8 4.868 0 3.06 2.163 5.222T12 19.385q1.77 0 3.31-.768 1.542-.767 2.536-2.044l1.831 1.077a9.46 9.46 0 0 1-3.322 2.82Q14.354 21.5 12 21.5m-.75-5.75v-3h-3v-1.5h3v-3h1.5v3h3v1.5h-3v3zm9.458.05-1.831-1.058q.244-.59.376-1.29T19.385 12q0-2.81-1.819-4.892T13 4.665V2.55q3.588.346 6.044 3.051T21.5 12q0 1.042-.19 2.005a7.2 7.2 0 0 1-.602 1.795"/></svg>