<svg xmlns="http://www.w3.org/2000/svg" width="24" height="24" viewBox="0 0 24 24" fill='currentColor'><path d="M12 8.958q2.12 0 4.37-.636t2.601-1.335q-.343-.726-2.536-1.356T12 5a16 16 0 0 0-4.41.623q-2.192.623-2.58 1.364.394.724 2.593 1.348A16 16 0 0 0 12 8.958m-1.111 9.996q.182.431.416.816t.543.73a20 20 0 0 1-3.303-.29q-1.535-.273-2.65-.753-1.117-.48-1.755-1.138-.64-.657-.64-1.415V7q0-.7.693-1.334.693-.633 1.866-1.116 1.172-.483 2.713-.766A18 18 0 0 1 12 3.5q1.677 0 3.218.284t2.714.77q1.172.489 1.87 1.117.698.63.698 1.329 0 .671-.717 1.29-.718.62-1.904 1.102t-2.719.767q-1.53.283-3.16.283-2.106 0-3.93-.399T5 8.9v3.256q1.048.848 2.64 1.263a17 17 0 0 0 3.337.512q-.152.28-.263.641a5 5 0 0 0-.17.828 22 22 0 0 1-3.004-.457q-1.464-.33-2.54-.966V17q.436.73 2.074 1.271t3.815.683M21.446 22.5l-2.68-2.671a5 5 0 0 1-1.064.488 3.7 3.7 0 0 1-1.164.183q-1.644 0-2.802-1.159-1.16-1.158-1.159-2.803 0-1.644 1.159-2.802 1.158-1.16 2.802-1.159t2.803 1.159q1.16 1.158 1.159 2.802 0 .603-.173 1.169-.174.566-.508 1.058l2.681 2.681zM16.538 19q1.032 0 1.747-.715A2.38 2.38 0 0 0 19 16.538q0-1.03-.715-1.746a2.38 2.38 0 0 0-1.747-.715q-1.03 0-1.746.715a2.38 2.38 0 0 0-.715 1.746q0 1.032.715 1.747a2.38 2.38 0 0 0 1.746.715"/></svg>