<svg xmlns="http://www.w3.org/2000/svg" width="24" height="24" viewBox="0 0 24 24" fill='currentColor'><path d="M12 20.5q-3.64 0-6.07-1.028-2.43-1.027-2.43-2.568V7q0-1.448 2.489-2.474T12 3.5t6.012 1.026T20.5 7v9.904q0 1.54-2.43 2.568T12 20.5m0-11.542q2.187 0 4.403-.619 2.217-.618 2.568-1.333-.342-.735-2.541-1.37a15.9 15.9 0 0 0-8.844-.018q-2.188.618-2.577 1.35.38.75 2.557 1.37t4.434.62m0 5.003q1.041 0 2.025-.1a17 17 0 0 0 1.882-.292 13 13 0 0 0 1.68-.477q.782-.284 1.413-.644V8.9q-.63.36-1.413.644t-1.68.477q-.898.193-1.882.292-.984.1-2.025.1-1.06 0-2.065-.104-1.005-.106-1.896-.297a13 13 0 0 1-1.663-.473A8 8 0 0 1 5 8.9v3.548q.605.36 1.376.64a13 13 0 0 0 1.663.472 18 18 0 0 0 1.896.297q1.005.104 2.065.104M12 19q1.217 0 2.39-.16a15 15 0 0 0 2.135-.439q.962-.277 1.622-.645.66-.367.853-.771v-3.037q-.63.36-1.413.644-.783.286-1.68.477-.898.193-1.882.292-.984.1-2.025.1a20 20 0 0 1-2.065-.104 18 18 0 0 1-1.896-.297 13 13 0 0 1-1.663-.473A8 8 0 0 1 5 13.949V17q.192.414.845.768t1.615.633q.96.277 2.142.439Q10.782 19 12 19"/></svg>