<svg xmlns="http://www.w3.org/2000/svg" width="24" height="24" viewBox="0 0 24 24" fill='currentColor'><path d="M8.53 14.51q-.52 0-.886-.365a1.2 1.2 0 0 1-.365-.884q0-.521.364-.886.365-.366.885-.366t.886.365.365.884q0 .521-.364.886a1.2 1.2 0 0 1-.885.365m3.48 3q-.519 0-.885-.365a1.2 1.2 0 0 1-.365-.884q0-.521.364-.886.365-.366.884-.366.521 0 .886.365.365.364.365.885.001.52-.364.885a1.2 1.2 0 0 1-.884.366m-3.48 3q-.52 0-.886-.365a1.2 1.2 0 0 1-.365-.884q0-.52.364-.886.365-.366.885-.366t.886.365.365.885-.364.885a1.2 1.2 0 0 1-.885.366m6.952-6q-.52 0-.886-.365a1.2 1.2 0 0 1-.365-.884q0-.521.364-.886.365-.366.885-.366t.885.365.366.884-.365.886a1.2 1.2 0 0 1-.884.365m.02 6q-.522 0-.886-.365a1.2 1.2 0 0 1-.366-.884q0-.52.364-.886.365-.366.885-.366t.885.365.366.885-.364.885a1.2 1.2 0 0 1-.885.366m3.451-3q-.52 0-.886-.365a1.2 1.2 0 0 1-.365-.884q0-.521.364-.886.364-.366.885-.366.52 0 .886.365.365.364.365.885 0 .52-.364.885a1.2 1.2 0 0 1-.885.366m-13.894 0q-.52 0-.886-.365a1.2 1.2 0 0 1-.365-.884q0-.521.364-.886.365-.366.885-.366t.885.365.366.885-.364.885a1.2 1.2 0 0 1-.885.366M5 4.384v1.384h14V4.385zm2.811 2.884.473 1.385h7.432l.473-1.385zm-.62 2.885-.96-2.885H3.5V2.885h17v4.384h-2.73l-1.112 2.885z"/></svg>