<svg xmlns="http://www.w3.org/2000/svg" width="24" height="24" viewBox="0 0 24 24" fill='currentColor'><path d="M6.865 19.5H2.5v-15h17V6H4v12h2.865zm4.077-2.192q.625 0 1.063-.438.437-.437.437-1.062t-.437-1.063a1.45 1.45 0 0 0-1.063-.437q-.624 0-1.062.437a1.45 1.45 0 0 0-.438 1.063q0 .624.438 1.062.437.438 1.062.438M21.5 19.5h-6.48V9h6.48zM16.52 18H20v-7.5h-3.48zm-7.27 1.5v-1.611a2.7 2.7 0 0 1-.733-.919 2.6 2.6 0 0 1-.267-1.162q0-.621.267-1.163.268-.54.733-.918v-1.611h3.384v1.611q.466.377.733.918.267.542.267 1.163 0 .62-.267 1.162t-.733.919V19.5z"/></svg>