<svg xmlns="http://www.w3.org/2000/svg" width="24" height="24" viewBox="0 0 24 24" fill='currentColor'><path d="M5 10.692V19h14v-8.308zm0-1.5h14V5H5zm7 8.558a1.68 1.68 0 0 1-1.24-.515 1.72 1.72 0 0 1-.51-1.254q0-.637.366-1.385.364-.748 1.384-2.135 1.02 1.396 1.384 2.14.366.742.366 1.38 0 .738-.51 1.254a1.68 1.68 0 0 1-1.24.515m5-9.865q.378 0 .63-.255.255-.255.255-.63 0-.378-.255-.63a.86.86 0 0 0-.63-.255q-.378 0-.63.255a.86.86 0 0 0-.255.63q0 .378.255.63.255.255.63.255M3.5 20.5v-17h17v17z"/></svg>