<svg xmlns="http://www.w3.org/2000/svg" width="24" height="24" viewBox="0 0 24 24" fill='currentColor'><path d="M15.86 8.973 18.725 6.2l-.925-.925-2.804 2.813zM3.5 20.5v-4.058l8.848-8.848-1.617-1.608L11.8 4.933l2.127 2.102 3.867-3.877 3.039 3.057-3.877 3.877 1.611 1.652-1.053 1.054-4.097-4.135L5 17.046V19h1.396q.202.416.427.785t.473.715zm11.567 2a7.1 7.1 0 0 1-3.791-1.07 6.95 6.95 0 0 1-2.641-2.91 6.95 6.95 0 0 1 2.641-2.911 7.1 7.1 0 0 1 3.791-1.07q2.054 0 3.792 1.07a6.95 6.95 0 0 1 2.641 2.91 6.95 6.95 0 0 1-2.641 2.91 7.1 7.1 0 0 1-3.792 1.071m0-1.5a5.6 5.6 0 0 0 2.654-.66 5.84 5.84 0 0 0 2.067-1.82 5.8 5.8 0 0 0-2.067-1.822 5.6 5.6 0 0 0-2.654-.66q-1.406 0-2.653.66a5.8 5.8 0 0 0-2.068 1.821 5.8 5.8 0 0 0 2.068 1.822 5.6 5.6 0 0 0 2.653.659m0-1.23q-.519 0-.884-.366a1.2 1.2 0 0 1-.366-.885q0-.518.366-.884.365-.366.884-.366t.885.366.365.884-.365.885a1.2 1.2 0 0 1-.885.365"/></svg>