<svg xmlns="http://www.w3.org/2000/svg" width="24" height="24" viewBox="0 0 24 24" fill='currentColor'><path d="M7.154 20.5q-1.508 0-2.58-1.073Q3.5 18.353 3.5 16.847V7.162q0-1.511 1.07-2.587A3.5 3.5 0 0 1 7.153 3.5h9.683q1.511 0 2.587 1.076T20.5 7.164v9.682a3.5 3.5 0 0 1-1.076 2.585 3.54 3.54 0 0 1-2.587 1.069zM5 11.789v5.057q0 .889.633 1.521.633.633 1.52.633h9.684q.892 0 1.527-.633a2.07 2.07 0 0 0 .636-1.52v-5.058h-2.375v3.875h-9.25v-3.875zm3.875 0v2.375h6.25v-2.375zM5 10.289h14V7.164q0-.903-.63-1.533Q17.738 5 16.836 5H7.154q-.889 0-1.521.636A2.1 2.1 0 0 0 5 7.163z"/></svg>