<svg xmlns="http://www.w3.org/2000/svg" width="24" height="24" viewBox="0 0 24 24" fill='currentColor'><path d="M11.998 21.692q-.746 0-1.276-.53a1.74 1.74 0 0 1-.53-1.277h3.616q0 .747-.532 1.277-.531.53-1.278.53M4.5 18.884v-1.5h1.808v-7.46q0-2.017 1.245-3.567a5.52 5.52 0 0 1 3.197-1.983V2.5h2.5v1.873q.333.075.639.177.304.102.594.256l-1.171 1.156a5 5 0 0 0-.634-.17A3.6 3.6 0 0 0 12 5.731q-1.737 0-2.964 1.228-1.228 1.227-1.228 2.964v7.462h8.384v-2.84l1.5-1.5v4.34H19.5v1.5zm7.616-6v-2.642L18.383 4l2.632 2.627-6.257 6.257zm1.192-1.192h.95l3.246-3.261-.46-.475-.465-.47-3.271 3.256zm3.736-3.736-.465-.47.925.945z"/></svg>