<svg xmlns="http://www.w3.org/2000/svg" width="24" height="24" viewBox="0 0 24 24" fill='currentColor'><path d="M16 21.5q-1.55 0-2.345-.534a8 8 0 0 1-1.347-1.11q-.514-.549-1.014-.952-.5-.404-1.319-.404-1.049 0-2.341-.368a7.6 7.6 0 0 1-2.43-1.199q-1.134-.83-1.912-2.158-.777-1.33-.792-3.25-.03-3.906 1.952-6.465Q6.435 2.5 9.975 2.5q1.63 0 2.774.47a7 7 0 0 1 1.973 1.19 8 8 0 0 1 1.418 1.598q.59.875 1.1 1.692.339.558.673 1.033.333.474.731.873 1.433 1.433 2.145 2.49.711 1.058.711 3.179 0 2.78-1.709 4.627Q18.083 21.5 16 21.5m0-1.5q1.425 0 2.712-1.413Q20 17.176 20 15.026q0-1.65-.488-2.425-.487-.775-1.912-2.2a6.7 6.7 0 0 1-.937-1.113q-.414-.612-.838-1.262Q14.801 6.4 13.65 5.2T9.975 4Q6.75 4 5.35 6.313 3.95 8.624 4 11.5q.025 1.675.725 2.75.7 1.076 1.663 1.688a6.2 6.2 0 0 0 1.962.837q1 .225 1.625.225 1.275 0 2.05.613.775.612 1.275 1.137.55.575 1.063.913Q14.875 20 16 20m-4-5a2.9 2.9 0 0 0 2.12-.88A2.9 2.9 0 0 0 15 12a2.9 2.9 0 0 0-.88-2.12A2.9 2.9 0 0 0 12 9q-1.239 0-2.12.88A2.9 2.9 0 0 0 9 12q0 1.239.88 2.12A2.9 2.9 0 0 0 12 15"/></svg>