<svg xmlns="http://www.w3.org/2000/svg" width="24" height="24" viewBox="0 0 24 24" fill='currentColor'><path d="M18.366 4.496a9.1 9.1 0 0 0-2.935-1.895A9.1 9.1 0 0 0 12 1.942a9.2 9.2 0 0 0-2.915.465 9.2 9.2 0 0 0-2.604 1.359l-1.07-1.07a10.6 10.6 0 0 1 3.092-1.678A10.7 10.7 0 0 1 12 .442q2.084 0 3.993.763a10.6 10.6 0 0 1 3.426 2.222zm-2.825 2.8a5 5 0 0 0-1.648-1.015 5.4 5.4 0 0 0-4.537.36L8.27 5.57a7.2 7.2 0 0 1 1.774-.832A6.5 6.5 0 0 1 12 4.442q1.285 0 2.464.468a6.8 6.8 0 0 1 2.12 1.342zm1.911 7.471L12.229 9.53h.107q2.092.105 3.547 1.598 1.453 1.492 1.569 3.61zm-2.212 2.581-5.536-5.536a4 4 0 0 0-1.239 1.42A4 4 0 0 0 8 15.15q0 1.125 1.062 2.763T12 21.325a22 22 0 0 0 1.937-2.067q.816-1.008 1.304-1.91m5.614 3.506L19.8 21.908l-3.43-3.431q-.675 1.135-1.772 2.326A38 38 0 0 1 12 23.337q-2.756-2.403-4.128-4.444T6.5 15.15q0-1.353.577-2.504a5.44 5.44 0 0 1 1.558-1.904L2.13 4.24l1.054-1.054zM12 16.308q-.548 0-.928-.38a1.26 1.26 0 0 1-.38-.928q0-.547.38-.928.38-.38.928-.38a1.32 1.32 0 0 1 .928.38q.183.184.281.425.099.242.099.503 0 .549-.38.928-.38.38-.928.38"/></svg>