<svg xmlns="http://www.w3.org/2000/svg" width="24" height="24" viewBox="0 0 24 24" fill='currentColor'><path d="M11.99 22.5q-2.31 0-4.424-.833a14.1 14.1 0 0 1-3.874-2.298V21.5H2.5v-4.51h4.51v1.193H4.148q1.65 1.45 3.646 2.287 1.996.838 4.197.838 2.199 0 4.2-.838a13.3 13.3 0 0 0 3.651-2.287h-2.851V16.99H21.5v4.51h-1.202v-2.13a14.3 14.3 0 0 1-3.883 2.297 12 12 0 0 1-4.424.833m.011-6q-3.14 0-5.32-2.18Q4.5 12.143 4.5 9.003T6.68 3.68Q8.857 1.5 11.998 1.5t5.32 2.18Q19.5 5.857 19.5 8.998t-2.18 5.32Q15.143 16.5 12.003 16.5M12 15q2.5 0 4.25-1.75T18 9a5 5 0 0 0-.04-.636 6 6 0 0 0-.118-.626 2.6 2.6 0 0 1-.548.058 7.6 7.6 0 0 1-3.455-.513 7.8 7.8 0 0 1-2.876-1.981 7.75 7.75 0 0 1-2.12 2.29A7.9 7.9 0 0 1 6 8.883v.03q-.04 2.515 1.715 4.3T12 15m-2.418-4.183a.88.88 0 0 1-.646-.26.87.87 0 0 1-.263-.645q0-.385.263-.644a.9.9 0 0 1 .65-.259.86.86 0 0 1 .638.261.88.88 0 0 1 .257.645.87.87 0 0 1-.259.644.87.87 0 0 1-.64.258m4.83 0a.87.87 0 0 1-.644-.26.88.88 0 0 1-.259-.645.87.87 0 0 1 .261-.644.88.88 0 0 1 .645-.259.87.87 0 0 1 .644.261.88.88 0 0 1 .258.645.87.87 0 0 1-.26.644.88.88 0 0 1-.645.258m-4.128-7.573A5.8 5.8 0 0 0 7.79 4.748a6.1 6.1 0 0 0-1.483 2.5A6.6 6.6 0 0 0 8.79 5.705a5.76 5.76 0 0 0 1.495-2.46M11.884 3a2.3 2.3 0 0 0-.654.096 6 6 0 0 0 2.335 2.401 6.1 6.1 0 0 0 3.255.83q.135 0 .255-.01.12-.009.245-.048a5.86 5.86 0 0 0-2.248-2.415A5.87 5.87 0 0 0 11.883 3"/></svg>