<svg xmlns="http://www.w3.org/2000/svg" width="24" height="24" viewBox="0 0 24 24" fill='currentColor'><path d="M9.9 21.585a2.43 2.43 0 0 1-1.608-.577 2.48 2.48 0 0 1-.861-1.494q-.114-.652-.515-1.041-.403-.389-1.066-.389-.094 0-.193.013l-.178.022q-1.17.227-2.079-.536-.91-.765-.91-1.948 0-.887.577-1.593.577-.705 1.51-.876l3.162-.555 3.44-4.938a.5.5 0 0 0 .096-.346.5.5 0 0 0-.164-.308 2.08 2.08 0 0 1-.596-1.444q0-.838.551-1.402.552-.563 1.374-.563.525 0 .903.189t.559.33q.216.156.565.288.35.133.845.158.046-.606.406-1.11.36-.503.942-.719.897-.338 1.74.058t1.165 1.263l1.266 3.516q.338.929-.081 1.754t-1.23 1.101q-.776.271-1.49.015A2.28 2.28 0 0 1 16.9 9.6h-.57a.6.6 0 0 0-.283.034.53.53 0 0 0-.236.178l-3.99 5.707.563 3.102q.228 1.17-.536 2.067-.763.896-1.948.896m0-1.5q.476 0 .787-.363a.9.9 0 0 0 .213-.822l-.6-3.325a.76.76 0 0 1 0-.387q.05-.188.175-.363l4.1-5.875a1.9 1.9 0 0 1 .713-.625 2 2 0 0 1 .937-.225l-.725-2q-.75.015-1.375-.184A3.9 3.9 0 0 1 13 5.35a2 2 0 0 0-.305-.183.6.6 0 0 0-.255-.057.37.37 0 0 0-.312.145.5.5 0 0 0-.113.32q0 .1.038.2a.6.6 0 0 0 .097.175q.325.325.475.692a1.95 1.95 0 0 1 .058 1.35 2.2 2.2 0 0 1-.283.558l-3.575 5.125a.85.85 0 0 1-.287.262q-.164.088-.363.138l-3.35.575a.96.96 0 0 0-.597.347.98.98 0 0 0-.237.637q0 .491.375.796.375.304.834.22.176-.05.338-.058t.312-.008q.575 0 1.088.188.511.187.912.538.4.35.675.832.274.483.375 1.108.074.36.363.597a.98.98 0 0 0 .637.237M18.962 9.05a.83.83 0 0 0 .428-.4.63.63 0 0 0 .021-.55l-1.25-3.5a.76.76 0 0 0-.392-.437.68.68 0 0 0-.582-.013.8.8 0 0 0-.418.385.67.67 0 0 0-.032.565l1.275 3.5q.124.284.4.422a.65.65 0 0 0 .55.028"/></svg>