<svg xmlns="http://www.w3.org/2000/svg" width="24" height="24" viewBox="0 0 24 24" fill='currentColor'><path d="m14.858 21.008-2.231-2.262q-.242 1.05-1.077 1.748a2.9 2.9 0 0 1-1.915.698q-1.314 0-2.214-.9-.902-.902-.902-2.214t.901-2.214 2.215-.902q.407 0 .791.098.383.097.713.325L6.5 8.442 12 2.923l5.5 5.52-4.73 7.096v1.242l3.142 3.142zm-5.223-1.316q.672 0 1.144-.47.471-.472.471-1.145t-.471-1.144a1.56 1.56 0 0 0-1.144-.471q-.674 0-1.144.47a1.56 1.56 0 0 0-.472 1.145q0 .673.472 1.144.47.471 1.144.471M12 13.996l3.585-5.38L12 5.03 8.415 8.616z"/></svg>