<svg xmlns="http://www.w3.org/2000/svg" width="24" height="24" viewBox="0 0 24 24" fill='currentColor'><path d="M3.5 20.5V15H5v4h4v1.5zm11.5 0V19h4v-4h1.5v5.5zM3.5 9V3.5H9V5H5v4zM19 9V5h-4V3.5h5.5V9zm-7 5.5q-1.048 0-1.774-.726A2.4 2.4 0 0 1 9.5 12q0-1.048.726-1.774A2.4 2.4 0 0 1 12 9.5q1.048 0 1.774.726T14.5 12t-.726 1.774A2.4 2.4 0 0 1 12 14.5m0-1.5q.424 0 .713-.287A.97.97 0 0 0 13 12a.97.97 0 0 0-.287-.713A.97.97 0 0 0 12 11a.97.97 0 0 0-.713.287A.97.97 0 0 0 11 12q0 .424.287.713.288.287.713.287"/></svg>