<svg xmlns="http://www.w3.org/2000/svg" width="24" height="24" viewBox="0 0 24 24" fill='currentColor'><path d="M4.48 20.75a2.65 2.65 0 0 1-1.946-.803A2.65 2.65 0 0 1 1.73 18q0-.621.255-1.175.255-.555.745-.95V11.25h2.144V5.5h7.048l4.527 10.633q.14.33.22.666t.08.701q0 1.354-.948 2.302-.949.948-2.302.948a3.2 3.2 0 0 1-1.815-.542 3.1 3.1 0 0 1-1.187-1.458H7.114a2.66 2.66 0 0 1-.98 1.445 2.67 2.67 0 0 1-1.653.555m13.27-1V4.25h1.5v14h3.02v1.5zm-13.27-.5q.522 0 .887-.364.364-.364.364-.886t-.364-.886a1.2 1.2 0 0 0-.886-.364q-.522 0-.886.364a1.2 1.2 0 0 0-.364.886q0 .522.364.886t.886.364m9.02 0q.72 0 1.236-.515.514-.513.514-1.235 0-.721-.514-1.235a1.68 1.68 0 0 0-1.236-.515q-.721 0-1.235.515a1.68 1.68 0 0 0-.515 1.235q0 .721.515 1.235.513.515 1.235.515m-6.386-2h3.151q.012-.42.151-.801.14-.382.409-.699H8.662l-2.925-3H4.23v2.539a.7.7 0 0 1 .25-.039q.921 0 1.653.555t.98 1.445m2.186-3h4.292a1.05 1.05 0 0 1 .481.116L10.935 7h-4.56v4.25zm-.638 1.5-.463-.475q-.463-.475-1-1.037a63 63 0 0 0-1-1.025l-.462-.463z"/></svg>