<svg xmlns="http://www.w3.org/2000/svg" width="24" height="24" viewBox="0 0 24 24" fill='currentColor'><g clip-path="url(#a)"><path d="M6.387 1.987 7.447.923l9.643 9.644-6.898 6.927-6.898-6.936 5.839-5.825zm3.815 3.815-4.794 4.775h9.569zm8.587 11.544q-.73 0-1.24-.51t-.51-1.24q0-.486.273-1.004.274-.519.592-.976.206-.282.427-.568t.457-.567q.236.28.458.567t.427.568q.318.457.592.976t.273 1.004q0 .73-.51 1.24t-1.24.51M2 24v-3h20v3z"/></g><defs><clipPath id="a"><path d="M0 0h24v24H0z"/></clipPath></defs></svg>