<svg xmlns="http://www.w3.org/2000/svg" width="24" height="24" viewBox="0 0 24 24" fill='currentColor'><path d="M12.002 17.039q2.092 0 3.564-1.474Q17.04 14.09 17.038 12h-1.192q0 1.595-1.126 2.72A3.7 3.7 0 0 1 12 15.846a3.7 3.7 0 0 1-2.72-1.126A3.7 3.7 0 0 1 8.154 12q0-1.595 1.126-2.72A3.7 3.7 0 0 1 12 8.154h.104l-1.206 1.221.838.854 2.625-2.625-2.634-2.635-.854.854 1.139 1.138q-2.099.031-3.575 1.491T6.963 12q0 2.09 1.474 3.565 1.475 1.473 3.566 1.473m0 4.461a9.3 9.3 0 0 1-3.706-.748 9.6 9.6 0 0 1-3.016-2.03 9.6 9.6 0 0 1-2.032-3.016 9.25 9.25 0 0 1-.748-3.704q0-1.972.748-3.706a9.6 9.6 0 0 1 2.03-3.016 9.6 9.6 0 0 1 3.016-2.032 9.25 9.25 0 0 1 3.704-.748q1.972 0 3.706.748a9.6 9.6 0 0 1 3.017 2.03 9.6 9.6 0 0 1 2.03 3.016 9.25 9.25 0 0 1 .749 3.704q0 1.972-.748 3.706a9.6 9.6 0 0 1-2.03 3.017 9.6 9.6 0 0 1-3.016 2.03 9.25 9.25 0 0 1-3.704.749M12 20q3.35 0 5.675-2.325T20 12t-2.325-5.675T12 4 6.325 6.325 4 12t2.325 5.675T12 20"/></svg>