<svg xmlns="http://www.w3.org/2000/svg" width="24" height="24" viewBox="0 0 24 24" fill='currentColor'><path d="M6 19.808q-.758 0-1.283-.525A1.75 1.75 0 0 1 4.192 18q0-.758.525-1.283T6 16.192t1.283.525T7.808 18t-.525 1.283T6 19.808m8 0q-.758 0-1.283-.525A1.75 1.75 0 0 1 12.192 18q0-.758.525-1.283T14 16.192t1.283.525.525 1.283-.525 1.283-1.283.525m-4-4q-.758 0-1.283-.525A1.75 1.75 0 0 1 8.192 14q0-.758.525-1.283T10 12.192t1.283.525.525 1.283-.525 1.283-1.283.525m8 0q-.758 0-1.283-.525A1.75 1.75 0 0 1 16.192 14q0-.758.525-1.283T18 12.192t1.283.525.525 1.283-.525 1.283-1.283.525m-12-4q-.758 0-1.283-.525A1.75 1.75 0 0 1 4.192 10q0-.758.525-1.283T6 8.192t1.283.525T7.808 10t-.525 1.283T6 11.808m8 0q-.758 0-1.283-.525A1.75 1.75 0 0 1 12.192 10q0-.758.525-1.283T14 8.192t1.283.525.525 1.283-.525 1.283-1.283.525m-4-4q-.758 0-1.283-.525A1.75 1.75 0 0 1 8.192 6q0-.758.525-1.283T10 4.192t1.283.525T11.808 6t-.525 1.283T10 7.808m8 0q-.758 0-1.283-.525A1.75 1.75 0 0 1 16.192 6q0-.758.525-1.283T18 4.192t1.283.525T19.808 6t-.525 1.283T18 7.808"/></svg>