<svg xmlns="http://www.w3.org/2000/svg" width="24" height="24" viewBox="0 0 24 24" fill='currentColor'><path d="M6.044 19h11.887l-2.437-2.436A5.64 5.64 0 0 1 12 17.75q-.994 0-1.882-.32a5.8 5.8 0 0 1-1.612-.882zM5 17.93l2.436-2.436A5.64 5.64 0 0 1 6.25 12q0-.994.32-1.882.318-.887.882-1.612L5 6.044zm3.521-3.52L10.946 12 8.521 9.59a4.2 4.2 0 0 0-.571 1.119q-.2.6-.2 1.291 0 .69.2 1.291.2.6.571 1.119M12 16.25q.69 0 1.291-.2.6-.2 1.119-.571L12 13.044 9.565 15.48a4.12 4.12 0 0 0 2.435.77m0-5.32 2.41-2.409a4.2 4.2 0 0 0-1.119-.571q-.6-.2-1.291-.2-.69 0-1.291.2-.6.2-1.119.571zm3.479 3.48q.371-.518.571-1.119.2-.6.2-1.291 0-.69-.2-1.304a4.1 4.1 0 0 0-.571-1.13l-2.41 2.409zM19 17.93V6.045l-2.452 2.462q.564.724.883 1.612T17.75 12a5.64 5.64 0 0 1-1.186 3.494zM15.494 7.453 17.956 5H6.069l2.437 2.436A5.64 5.64 0 0 1 12 6.25q.994 0 1.882.32a5.8 5.8 0 0 1 1.612.882M3.5 20.5v-17h17v17z"/></svg>