<svg xmlns="http://www.w3.org/2000/svg" width="24" height="24" viewBox="0 0 24 24" fill='currentColor'><path d="m20.5 17.727-1.5-1.5v-2.304h-2.314l-1.5-1.5H19V11q0-2.931-2.05-4.965Q14.9 4 12 4q-1.1 0-2.116.327a6.7 6.7 0 0 0-1.842.912L6.958 4.185a8 8 0 0 1 2.28-1.227A8.3 8.3 0 0 1 12 2.5a8.3 8.3 0 0 1 3.3.662 8.52 8.52 0 0 1 4.53 4.523Q20.5 9.23 20.5 11zM12 22.192v-1.5h6.492L17.3 19.5h-2.03v-2.03L5.726 7.926a8 8 0 0 0-.52 1.47A6.5 6.5 0 0 0 5 11v1.423h3.692V19.5H3.5V11q0-1.154.292-2.213.29-1.06.82-1.99L.992 3.191l1.07-1.053 19.092 19.107v.946zM5 18h2.192v-4.077H5z"/></svg>