<svg xmlns="http://www.w3.org/2000/svg" width="24" height="24" viewBox="0 0 24 24" fill='currentColor'><path d="M11.98 20.5q-3.248 0-5.66-2.139Q3.904 16.224 3.54 13h1.531q.38 2.59 2.332 4.295Q9.356 19 11.981 19q2.925 0 4.962-2.038T18.981 12t-2.038-4.962T11.981 5a6.7 6.7 0 0 0-3.071.728 7.6 7.6 0 0 0-2.468 2.003h2.616v1.5H3.98V4.154h1.5v2.369a8.5 8.5 0 0 1 2.915-2.23A8.4 8.4 0 0 1 11.98 3.5q1.77 0 3.315.67a8.6 8.6 0 0 1 2.696 1.819 8.6 8.6 0 0 1 1.82 2.696q.669 1.545.669 3.315t-.67 3.315a8.6 8.6 0 0 1-1.819 2.697 8.6 8.6 0 0 1-2.696 1.819 8.3 8.3 0 0 1-3.315.669m3.003-4.473-3.723-3.723V7h1.5v4.696l3.277 3.277z"/></svg>