<svg xmlns="http://www.w3.org/2000/svg" width="24" height="24" viewBox="0 0 24 24" fill='currentColor'><path d="M2.471 19.308v-2.223q0-.796.401-1.392a2.77 2.77 0 0 1 1.065-.931q1.275-.65 2.692-1.052t3.342-.402q.75 0 1.395.06t1.205.182l-1.327 1.327a4 4 0 0 0-.595-.06 23 23 0 0 0-.678-.01q-1.775 0-3.11.397-1.335.396-2.236.896-.34.183-.497.427a1 1 0 0 0-.157.558v.723h6.058l1.5 1.5zm12.954.746-3.104-3.104 1.054-1.054 2.05 2.05 5.05-5.05 1.054 1.054zm-5.454-8.362q-1.443 0-2.472-1.028T6.471 8.192t1.028-2.471 2.472-1.029 2.472 1.029 1.028 2.471-1.028 2.472-2.472 1.028m0-1.5q.825 0 1.413-.587.587-.588.587-1.413 0-.824-.587-1.412a1.93 1.93 0 0 0-1.413-.588q-.825 0-1.412.588a1.93 1.93 0 0 0-.588 1.412q0 .825.588 1.413.587.588 1.412.587"/></svg>