<svg xmlns="http://www.w3.org/2000/svg" width="24" height="24" viewBox="0 0 24 24" fill='currentColor'><path d="M17.271 16.054q.749 0 1.488-.373a4.8 4.8 0 0 0 1.366-1.05v-2.997q-.633.095-1.163.219-.531.124-1.043.278-1.21.388-1.808.976-.596.588-.596 1.354 0 .738.48 1.165.477.428 1.276.428m-.354 1.296q-1.328 0-2.115-.774t-.787-2.078q0-1.223.816-2.038.815-.816 2.553-1.335.518-.15 1.2-.284.684-.135 1.541-.274v-.125q-.03-1.29-.535-1.914t-1.632-.624q-.669 0-1.326.237-.657.238-1.532.79l-.617-1.083a6.8 6.8 0 0 1 1.779-.916 6 6 0 0 1 1.988-.34q1.68 0 2.527 1.048.848 1.047.848 3.002v6.483h-1.262l-.13-1.211q-.729.672-1.581 1.054a4.2 4.2 0 0 1-1.735.382m-14.263.15a10 10 0 0 0-.389-.474 1.8 1.8 0 0 0-.332-.297q1.794-.795 2.92-2.15 1.126-1.351 1.635-3.525H2.196v-.983H6.68q.12-.76.179-1.6.06-.84.06-1.771h1.038q0 .93-.052 1.764a15 15 0 0 1-.187 1.607h5.012v.983H8.148q.669 2.054 1.904 3.491t2.86 2.107q-.2.191-.36.367a4 4 0 0 0-.356.481q-1.623-.738-2.862-2.2t-1.98-3.54q-.59 2.094-1.759 3.506Q4.426 16.68 2.654 17.5"/></svg>