<svg xmlns="http://www.w3.org/2000/svg" width="24" height="24" viewBox="0 0 24 24" fill='currentColor'><path d="M11.999 21.884q-2.976 0-4.93-.785-1.953-.786-1.953-2.6 0-1.813 1.955-2.598 1.954-.786 4.93-.786t4.93.786 1.953 2.599q0 1.812-1.954 2.599-1.956.785-4.931.785m.001-2q-2.572 0-4.098-.544t-1.725-1.513a.9.9 0 0 0-.137.326A1.6 1.6 0 0 0 6 18.5q0 1.125 1.638 1.812T12 21t4.363-.688T18 18.5q0-.165-.04-.347a.9.9 0 0 0-.137-.326q-.2.969-1.725 1.513T12 19.884M12 19q2.2 0 3.6-.425Q17 18.149 17 17.5q0-.65-1.4-1.075T12 16t-3.6.425Q7 16.849 7 17.5q0 .65 1.4 1.075T12 19m-.923-5V9.384H9.231l3.692-6.461v4.615h1.846z"/></svg>