<svg xmlns="http://www.w3.org/2000/svg" width="24" height="24" viewBox="0 0 24 24" fill='currentColor'><path d="M18.827 8.846q-1.343 0-2.333-.83a3.63 3.63 0 0 1-1.253-2.093H8.735a3.55 3.55 0 0 1-.98 1.837 3.5 3.5 0 0 1-1.832.984v6.497a3.63 3.63 0 0 1 2.092 1.253q.831.99.831 2.333a3.54 3.54 0 0 1-1.074 2.599A3.54 3.54 0 0 1 5.173 22.5a3.54 3.54 0 0 1-2.599-1.074A3.54 3.54 0 0 1 1.5 18.827q0-1.343.83-2.333a3.63 3.63 0 0 1 2.093-1.253V8.744a3.63 3.63 0 0 1-2.092-1.25Q1.5 6.504 1.5 5.172q0-1.525 1.076-2.599T5.164 1.5q1.332 0 2.32.83a3.63 3.63 0 0 1 1.25 2.093h6.507a3.63 3.63 0 0 1 1.253-2.092q.99-.831 2.333-.831 1.515 0 2.594 1.079 1.08 1.08 1.079 2.594 0 1.525-1.079 2.599-1.08 1.074-2.594 1.074M5.167 21.01q.908 0 1.543-.649a2.1 2.1 0 0 0 .636-1.528q0-.908-.636-1.543a2.1 2.1 0 0 0-1.543-.636 2.1 2.1 0 0 0-1.528.636 2.08 2.08 0 0 0-.648 1.543q0 .88.648 1.529t1.528.648m0-13.654q.908 0 1.543-.642.636-.641.636-1.542 0-.9-.636-1.536A2.1 2.1 0 0 0 5.167 3a2.1 2.1 0 0 0-1.528.636 2.07 2.07 0 0 0-.648 1.536q0 .9.648 1.542t1.528.642M18.827 22.5a3.54 3.54 0 0 1-2.599-1.074 3.53 3.53 0 0 1-1.074-2.592q0-1.518 1.074-2.6a3.53 3.53 0 0 1 2.599-1.08q1.525 0 2.599 1.08a3.56 3.56 0 0 1 1.074 2.6 3.53 3.53 0 0 1-1.074 2.592 3.54 3.54 0 0 1-2.599 1.074m.001-1.49q.9 0 1.537-.649A2.1 2.1 0 0 0 21 18.834q0-.908-.636-1.543a2.1 2.1 0 0 0-1.536-.636q-.9 0-1.542.636a2.1 2.1 0 0 0-.642 1.543q0 .88.642 1.529.64.648 1.542.648m0-13.654q.9 0 1.537-.642Q21 6.073 21 5.172t-.636-1.536A2.1 2.1 0 0 0 18.829 3q-.9 0-1.542.636a2.08 2.08 0 0 0-.642 1.536q0 .9.642 1.542.64.642 1.542.642"/></svg>