<svg xmlns="http://www.w3.org/2000/svg" width="24" height="24" viewBox="0 0 24 24" fill='currentColor'><path d="M2.5 18.48v-1.5h9.779v1.5zm0-4.894v-1.5h4.73v1.5zm0-4.894v-1.5h4.73v1.5zM20.446 18.5l-3.869-3.84q-.57.415-1.245.632t-1.37.217q-1.88 0-3.204-1.313-1.325-1.314-1.325-3.191 0-1.878 1.325-3.192Q12.084 6.5 13.964 6.5t3.203 1.314T18.49 11q0 .695-.217 1.37-.217.674-.642 1.236l3.869 3.84zm-6.485-4.49q1.263 0 2.146-.876a2.9 2.9 0 0 0 .884-2.13q0-1.254-.884-2.129T13.962 8q-1.263 0-2.146.875a2.9 2.9 0 0 0-.883 2.13q0 1.254.883 2.13.883.874 2.145.874"/></svg>