<svg xmlns="http://www.w3.org/2000/svg" width="24" height="24" viewBox="0 0 24 24" fill='currentColor'><path d="M20.5 18.76q0 1.553-1.098 2.651a3.6 3.6 0 0 1-2.652 1.098h-1.037q-.591 0-1.123-.233a2.5 2.5 0 0 1-.91-.68l-4.914-6.04 1.63-1.602 4.643 2.133V7.01h1.711l3.75 3.75zm-16 2.74v-19h12.039v4.51h-1.5V4H6v16h6.361l1.243 1.5zm6.02-14.346a.85.85 0 0 0 .625-.259.85.85 0 0 0 .259-.626.85.85 0 0 0-.259-.626.85.85 0 0 0-.626-.258.85.85 0 0 0-.626.258.85.85 0 0 0-.258.626q0 .368.258.626a.85.85 0 0 0 .626.259m5.203 13.856h1.027q.93 0 1.59-.652.66-.653.66-1.599v-7.33l-2.366-2.366h-.096v9.418l-5.511-2.57 3.729 4.653q.179.223.431.334.254.111.536.111"/></svg>