<svg xmlns="http://www.w3.org/2000/svg" width="24" height="24" viewBox="0 0 24 24" fill='currentColor'><path d="M14.35 8.54q-.3-.75-.887-1.175-.588-.425-1.413-.425-.45 0-.914.144a1.84 1.84 0 0 0-.813.524L9.238 6.523q.36-.379.936-.647t1.076-.334V3.673h1.5v1.838a4.05 4.05 0 0 1 1.783.76q.81.6 1.236 1.671zm5.22 13.137-4.39-4.389q-.393.482-1.091.8-.699.32-1.339.35v1.87h-1.5v-1.92q-1.323-.292-2.165-1.15-.84-.857-1.266-2.2L9.3 14.45q.309 1.05 1.017 1.8T12.2 17q.585 0 1.06-.213.477-.214.836-.583L2.323 4.43l1.054-1.054 17.246 17.246z"/></svg>