<svg xmlns="http://www.w3.org/2000/svg" width="24" height="24" viewBox="0 0 24 24" fill='currentColor'><path d="M5.5 21.558v-1.5h5.75v-4.366H9q-1.873 0-3.186-1.313Q4.5 13.065 4.5 11.192q0-1.413.844-2.555a5.1 5.1 0 0 1 2.167-1.698q.216-1.923 1.47-3.085T12 2.692t3.02 1.162q1.253 1.161 1.468 3.085 1.333.536 2.172 1.688t.84 2.565q0 1.874-1.314 3.187-1.312 1.313-3.186 1.313h-2.25v4.366h5.75v1.5zM9 14.192h6q1.25 0 2.125-.875A2.9 2.9 0 0 0 18 11.192q0-.967-.594-1.731A3.57 3.57 0 0 0 15.9 8.327l-.8-.335-.111-.9q-.16-1.346-.983-2.123T12 4.192t-2.006.777-.982 2.123l-.112.9-.877.374A3.5 3.5 0 0 0 6.575 9.49 2.74 2.74 0 0 0 6 11.192q0 1.25.875 2.125A2.9 2.9 0 0 0 9 14.192"/></svg>