<svg xmlns="http://www.w3.org/2000/svg" width="24" height="24" viewBox="0 0 24 24" fill='currentColor'><path d="M9.404 20.596V16.23q-.288.186-.593.277-.305.09-.657.09-2.346 0-3.952-1.687t-1.606-4.062V9.154q0-2.374 1.606-4.062t3.952-1.688q1.146 0 1.948.802a2.65 2.65 0 0 1 .802 1.947q0 1.146-.802 1.948a2.65 2.65 0 0 1-1.948.803h-1.75v-1.5h1.75q.521 0 .886-.364.364-.364.364-.886 0-.52-.364-.885a1.2 1.2 0 0 0-.886-.365q-1.708 0-2.883 1.257T4.096 9.154v1.693q0 1.736 1.175 2.993t2.883 1.257q.521 0 .886-.365.364-.365.364-.885 0-.522-.364-.886a1.2 1.2 0 0 0-.886-.365h-1.75v-1.5h1.75q1.146 0 1.948.803.801.802.802 1.948v6.75zm3.692 0v-6.75q0-1.146.802-1.947a2.65 2.65 0 0 1 1.948-.802h1.75v1.5h-1.75q-.521-.001-.886.364a1.2 1.2 0 0 0-.364.886q0 .52.364.885.365.365.886.365 1.709 0 2.883-1.257 1.175-1.257 1.175-2.993V9.154q0-1.736-1.175-2.993t-2.883-1.257q-.521 0-.886.365a1.2 1.2 0 0 0-.364.885q0 .522.364.886.365.364.886.364h1.75v1.5h-1.75a2.65 2.65 0 0 1-1.948-.802 2.65 2.65 0 0 1-.802-1.947q0-1.145.802-1.948a2.65 2.65 0 0 1 1.948-.803q2.346 0 3.952 1.688t1.606 4.062v1.693q0 2.374-1.606 4.062-1.606 1.687-3.952 1.687-.352 0-.657-.09-.304-.09-.593-.277v4.367z"/></svg>