<svg xmlns="http://www.w3.org/2000/svg" width="24" height="24" viewBox="0 0 24 24" fill='currentColor'><path d="M7.942 20.5Q6.1 20.5 4.8 19.2q-1.3-1.299-1.3-3.142V7.942Q3.5 6.1 4.8 4.8q1.299-1.3 3.142-1.3h8.116q1.843 0 3.143 1.3Q20.5 6.099 20.5 7.942v8.116q0 1.843-1.3 3.143-1.299 1.299-3.142 1.299zm0-1.5h8.116q1.226 0 2.084-.858A2.84 2.84 0 0 0 19 16.058V7.942q0-1.226-.858-2.084A2.84 2.84 0 0 0 16.058 5H7.942q-1.226 0-2.084.858A2.84 2.84 0 0 0 5 7.942v8.116q0 1.226.858 2.084A2.84 2.84 0 0 0 7.942 19m4.059-2.317q1.758 0 2.99-1.232 1.23-1.23 1.23-2.99t-1.231-2.99T12 8.241t-2.99 1.23q-1.23 1.232-1.231 2.991 0 1.76 1.231 2.99t2.99 1.23m-.001-1.5q-1.136 0-1.929-.793a2.63 2.63 0 0 1-.792-1.929q0-1.136.792-1.928A2.62 2.62 0 0 1 12 9.74q1.136 0 1.929.793.792.792.792 1.928 0 1.137-.792 1.93a2.63 2.63 0 0 1-1.929.792m0-7.673q.378 0 .63-.255.255-.255.254-.63 0-.378-.254-.63A.86.86 0 0 0 12 5.74q-.378 0-.63.255a.86.86 0 0 0-.254.63q0 .378.254.63.255.255.63.255"/></svg>