<svg xmlns="http://www.w3.org/2000/svg" width="24" height="24" viewBox="0 0 24 24" fill='currentColor'><path d="M12 19.462a7.3 7.3 0 0 1-2.559-.447 7.6 7.6 0 0 1-2.177-1.247l-1.737 1.711a.7.7 0 0 1-.52.208.71.71 0 0 1-.732-.732q0-.316.208-.52l1.711-1.712a7.6 7.6 0 0 1-1.247-2.19 7.4 7.4 0 0 1-.447-2.571q0-3.14 2.18-5.32T12 4.462h7.5v7.5q0 3.14-2.18 5.32T12 19.462m0-1.5q2.5 0 4.25-1.75t1.75-4.25v-6h-6q-2.5 0-4.25 1.75T6 11.962q0 1.043.339 1.983.338.94.94 1.694l5.204-5.204a.7.7 0 0 1 .52-.208q.315 0 .527.21a.73.73 0 0 1-.003 1.067l-5.204 5.194a5.8 5.8 0 0 0 1.694.933q.94.33 1.983.33"/></svg>