<svg xmlns="http://www.w3.org/2000/svg" width="24" height="24" viewBox="0 0 24 24" fill='currentColor'><path d="M12 20a7.3 7.3 0 0 0 1.263-.109 8 8 0 0 0 1.22-.31 4.7 4.7 0 0 1-.934-1.55 5.2 5.2 0 0 1-.318-1.81q0-.398.065-.764t.158-.723q-.69-.311-1.068-1.033-.378-.723-.378-1.701 0-1.256.62-2.099.622-.843 1.718-.843.925 0 1.525.619.6.618.771 1.614a5 5 0 0 1 .903-.255q.465-.084.955-.084.378 0 .744.047t.715.172a7.6 7.6 0 0 0-.838-2.828 8.3 8.3 0 0 0-1.755-2.28A7.92 7.92 0 0 0 12 4q-1.65 0-3.113.625a8 8 0 0 0-2.55 1.713 8 8 0 0 0-1.712 2.55A7.8 7.8 0 0 0 4 12q0 1.65.625 3.113a8 8 0 0 0 1.713 2.55 8 8 0 0 0 2.55 1.712A7.8 7.8 0 0 0 12 20m1.792-6.11q.321-.667.819-1.223.496-.555 1.125-.934a2.8 2.8 0 0 0-.387-1.228q-.328-.547-1-.547-.72 0-1.058.639A2.96 2.96 0 0 0 12.954 12q0 .69.215 1.18.216.49.623.71m4.708 7.6q-.724 0-1.425-.192a4.8 4.8 0 0 1-1.315-.586q-.891.394-1.847.59A9.5 9.5 0 0 1 12 21.5q-1.972 0-3.705-.748a9.6 9.6 0 0 1-3.016-2.03 9.6 9.6 0 0 1-2.03-3.016 9.25 9.25 0 0 1-.749-3.704q0-1.972.748-3.706a9.6 9.6 0 0 1 2.03-3.016 9.6 9.6 0 0 1 3.017-2.032A9.25 9.25 0 0 1 12 2.5q1.946 0 3.671.74a9.6 9.6 0 0 1 3.01 2.013 9.5 9.5 0 0 1 2.034 2.993 9.4 9.4 0 0 1 .775 3.668 5.3 5.3 0 0 1 1.673 1.87q.606 1.13.606 2.437 0 2.195-1.537 3.732-1.538 1.537-3.732 1.537m0-1.5q1.562 0 2.666-1.103a3.63 3.63 0 0 0 1.103-2.666q0-1.561-1.103-2.665a3.63 3.63 0 0 0-2.666-1.104q-1.562 0-2.665 1.104a3.63 3.63 0 0 0-1.104 2.665q0 1.562 1.104 2.666A3.63 3.63 0 0 0 18.5 19.99M8.417 14.943l-.81-.451 2.449-4.314-.04-.075H7.347v-.9h3.75v1.004z"/></svg>