<svg xmlns="http://www.w3.org/2000/svg" width="24" height="24" viewBox="0 0 24 24" fill='currentColor'><path d="M12 15.683a.82.82 0 0 0 .603-.255q.255-.255.255-.603a.82.82 0 0 0-.255-.603.82.82 0 0 0-.603-.255.82.82 0 0 0-.603.255.82.82 0 0 0-.255.603q0 .348.255.603t.603.255m-.596-2.927h1.192q.01-.428.052-.673.043-.246.136-.431.12-.21.317-.436.197-.228.603-.633.506-.506.749-.998.243-.49.243-1.026 0-1.088-.741-1.742t-1.916-.654a2.84 2.84 0 0 0-1.67.513q-.732.512-1.027 1.376l1.081.444q.213-.565.633-.868t.983-.303q.618 0 1.042.354.423.354.423.912 0 .444-.192.775-.193.332-.696.77-.387.332-.627.614t-.366.558q-.124.26-.172.588a6 6 0 0 0-.047.86M12 19.514q2.934-2.628 4.491-5.04t1.557-4.226q0-2.735-1.737-4.496Q14.572 3.991 12 3.991T7.69 5.752t-1.738 4.496q0 1.814 1.557 4.226T12 19.514m0 1.995q-3.776-3.27-5.661-6.088-1.887-2.817-1.887-5.173 0-3.462 2.24-5.605Q8.93 2.5 12 2.5t5.309 2.143 2.239 5.605q0 2.356-1.886 5.173Q15.775 18.238 12 21.51"/></svg>