<svg xmlns="http://www.w3.org/2000/svg" width="24" height="24" viewBox="0 0 24 24" fill='currentColor'><path d="M11.998 21.692q-.746 0-1.276-.53a1.74 1.74 0 0 1-.53-1.277h3.616q0 .747-.532 1.277-.531.53-1.278.53M4.5 18.884v-1.5h1.808v-7.46q0-2.017 1.245-3.567a5.52 5.52 0 0 1 3.197-1.983V2.5h2.5v1.45a5 5 0 0 0-.39.904 4 4 0 0 0-.177.954 9 9 0 0 0-.333-.054A2.5 2.5 0 0 0 12 5.73q-1.737 0-2.964 1.228-1.228 1.227-1.228 2.964v7.462h8.384v-6.252q.345.123.727.192.383.069.773.06v6H19.5v1.5zm12.982-9.682a2.65 2.65 0 0 1-1.948-.802 2.65 2.65 0 0 1-.803-1.947q0-1.146.802-1.948a2.65 2.65 0 0 1 1.947-.803q1.145 0 1.948.802.803.801.803 1.947t-.802 1.948a2.65 2.65 0 0 1-1.947.803"/></svg>