<svg xmlns="http://www.w3.org/2000/svg" width="24" height="24" viewBox="0 0 24 24" fill='currentColor'><path d="M14.827 18.77h1.423v-1.424h-1.423zm2.461 0h1.424v-1.424h-1.424zm2.462 0h1.423v-1.424H19.75zM3.5 20.5v-17h17v8.133a6.4 6.4 0 0 0-1.5-.442V5H5v14h6.166a5.2 5.2 0 0 0 .432 1.5zM5 18v1V5v6.19-.074zm2.25-1.366h4.017q.066-.39.194-.76.13-.37.281-.74H7.25zm0-3.884h6.34a7 7 0 0 1 1.38-.918 5.8 5.8 0 0 1 1.568-.526v-.056H7.25zm0-3.885h9.5v-1.5h-9.5zM18 22.558q-1.873 0-3.187-1.314-1.313-1.313-1.313-3.186t1.313-3.187T18 13.558t3.186 1.313 1.314 3.187-1.314 3.186Q19.874 22.558 18 22.558"/></svg>