<svg xmlns="http://www.w3.org/2000/svg" width="24" height="24" viewBox="0 0 24 24" fill='currentColor'><path d="M7.038 11.654h1.308v-1.307H7.038zm-1.192 3.193V9.154H8.5l1.038 1.039v2.654h-2.5v2zm4.708 0v-4.293l1.192 1.192v1.908h1.908l-.446 1.193zm3.692-3.425L11.98 9.154h1.229l1.038 1.039zm2.408 2.407-1.193-1.192V9.154h2.943v1.193h-1.75v1.269h1.75v1.192h-1.75zm3.846 3.846-1.5-1.5V5H7.825l-1.5-1.5H20.5zM3.5 20.5V3.545L5 5v14h14l1.456 1.5zm16.092 1.216L2.285 4.393l1.053-1.054 17.324 17.323z"/></svg>