<svg xmlns="http://www.w3.org/2000/svg" width="24" height="24" viewBox="0 0 24 24" fill='currentColor'><path d="M17.927 9.327q.452-1.043.707-2.09.255-1.044.35-2.237h-2.426l-.502 2.543zM5 18.97a11 11 0 0 0 2.138-.292q1.089-.255 2.089-.708l-1.858-1.877L5 16.568zm11.792-4.918-1.084-1.084q.263-.324.747-1.015.483-.69.762-1.206l-2.773-2.693.887-4.554H20.5v.925q0 2.523-.956 4.983-.955 2.46-2.752 4.644M4.425 20.5H3.5v-5.144l4.375-.89 2.765 2.794a24 24 0 0 0 1.508-.95q.61-.42 1.104-.85L2.131 4.339l1.054-1.054 17.63 17.63-1.053 1.055-5.426-5.425q-2.213 1.903-4.785 2.93Q6.979 20.5 4.425 20.5"/></svg>