<svg xmlns="http://www.w3.org/2000/svg" width="24" height="24" viewBox="0 0 24 24" fill='currentColor'><path d="M20.673 23.03.853 3.213l1.055-1.054 19.819 19.819zM5.5 6.82 7 8.32v9.93h9.764l1.736 1.736V22.5h-13zM7 19.75V21h10v-1.25zM7 4.425V4.25h10V3H7zL5.592 3.002V1.5H18.5v5.462H17V5.75H8.315zm11.023 10.233-1.084-1.085q.348-.304.553-.71t.206-.863-.206-.864a2.3 2.3 0 0 0-.553-.709l1.084-1.085q.555.527.866 1.212.309.684.309 1.446t-.31 1.446q-.31.685-.865 1.212m2.296 2.296L19.265 15.9a5.5 5.5 0 0 0 1.616-3.9q0-1.115-.42-2.12a5.5 5.5 0 0 0-1.196-1.78l1.054-1.054a6.8 6.8 0 0 1 1.53 2.266q.531 1.284.532 2.688 0 1.404-.532 2.688a6.8 6.8 0 0 1-1.53 2.266"/></svg>