<svg xmlns="http://www.w3.org/2000/svg" width="24" height="24" viewBox="0 0 24 24" fill='currentColor'><path d="M11.226 10.429q.486 0 .82-.335.333-.336.333-.82 0-.486-.335-.82a1.12 1.12 0 0 0-.82-.333q-.486 0-.82.335a1.12 1.12 0 0 0-.333.82q0 .486.335.82.336.332.82.333m9.295 11.196q-.886 0-2.608-.904t-3.69-2.356q-.532.193-1.097.289-.564.096-1.151.096-2.82 0-4.772-1.953-1.953-1.952-1.953-4.772 0-.586.104-1.164.104-.576.296-1.11-1.427-1.957-2.324-3.657t-.897-2.577q0-.501.279-.798.278-.296.746-.296.534 0 1.649.517 1.115.518 2.795 1.525a8 8 0 0 0-1.388.918A20 20 0 0 0 5.3 4.73a48 48 0 0 0-1.205-.574q.498 1.065 1.078 2.07.58 1.007 1.242 1.987A6.7 6.7 0 0 1 8.773 6.07q1.447-.794 3.202-.794 2.82 0 4.785 1.965t1.965 4.785q0 1.756-.802 3.207a6.74 6.74 0 0 1-2.152 2.362q.99.672 2.014 1.264 1.023.591 2.098 1.084a26 26 0 0 0-.567-1.19q-.3-.588-.66-1.208.282-.318.508-.673.225-.355.419-.73 1.044 1.747 1.538 2.82.495 1.074.494 1.608 0 .513-.301.785-.303.27-.793.27m-6.796-6.735q.367 0 .616-.248a.84.84 0 0 0 .25-.617.84.84 0 0 0-.25-.616.84.84 0 0 0-.616-.25.84.84 0 0 0-.616.25.84.84 0 0 0-.25.616q0 .367.25.616a.84.84 0 0 0 .616.25m1.258-3.413a.695.695 0 0 0 .713-.71.695.695 0 0 0-.71-.713.695.695 0 0 0-.713.71.695.695 0 0 0 .71.713m-2.389 5.604a36 36 0 0 1-3.012-2.703 36 36 0 0 1-2.678-3.022q-.077.201-.115.39a2 2 0 0 0-.039.408q.03 1.017.435 1.941.403.924 1.102 1.617.697.694 1.6 1.093.9.399 1.919.43a2.1 2.1 0 0 0 .788-.154m1.835-.439a5.3 5.3 0 0 0 2.022-1.899A5.06 5.06 0 0 0 17.225 12q0-2.18-1.536-3.702-1.534-1.523-3.714-1.523-1.509 0-2.731.77A5.3 5.3 0 0 0 7.358 9.56a34 34 0 0 0 3.274 3.798 34.6 34.6 0 0 0 3.797 3.283"/></svg>