<svg xmlns="http://www.w3.org/2000/svg" width="24" height="24" viewBox="0 0 24 24" fill='currentColor'><path d="M5.635 8.154v-5.27h12.73v5.27zm1.5-1.5h9.73v-2.27h-9.73zm-4.25 14.461v-2.807h18.23v2.807zm0-3.692 3.567-8.27h11.096l3.567 8.27zm5.288-1.808h1.885v-.884H8.173zm0-1.884h1.885v-.885H8.173zm0-1.885h1.885v-.885H8.173zm2.885 3.77h1.884v-.885h-1.884zm0-1.885h1.884v-.885h-1.884zm0-1.885h1.884v-.885h-1.884zm2.884 3.77h1.885v-.885h-1.885zm0-1.885h1.885v-.885h-1.885zm0-1.885h1.885v-.885h-1.885z"/></svg>