<svg xmlns="http://www.w3.org/2000/svg" width="24" height="24" viewBox="0 0 24 24" fill='currentColor'><path d="M12.002 21.5a9.3 9.3 0 0 1-3.706-.748 9.6 9.6 0 0 1-3.016-2.03 9.6 9.6 0 0 1-2.032-3.016 9.25 9.25 0 0 1-.748-3.704q0-1.972.748-3.706a9.6 9.6 0 0 1 2.03-3.016 9.6 9.6 0 0 1 3.016-2.032 9.25 9.25 0 0 1 3.704-.748q1.972 0 3.706.748a9.6 9.6 0 0 1 3.017 2.03 9.6 9.6 0 0 1 2.03 3.016 9.25 9.25 0 0 1 .749 3.704q0 1.972-.748 3.706a9.6 9.6 0 0 1-2.03 3.017 9.6 9.6 0 0 1-3.016 2.03 9.25 9.25 0 0 1-3.704.749M12 20q1.462 0 2.755-.485a8.1 8.1 0 0 0 2.337-1.354l-1.77-1.77A5.45 5.45 0 0 1 12 17.5q-2.293-.001-3.897-1.604T6.5 12.002t1.604-3.896Q9.708 6.5 11.998 6.5t3.896 1.604T17.5 12q0 .936-.3 1.792a5.6 5.6 0 0 1-.825 1.544l1.771 1.772a8.2 8.2 0 0 0 1.36-2.343A7.7 7.7 0 0 0 20 12q0-3.35-2.325-5.675T12 4 6.325 6.325 4 12t2.325 5.675T12 20m0-4a3.9 3.9 0 0 0 2.236-.694l-1.861-1.862a.7.7 0 0 1-.187.047q-.093.009-.186.009-.615 0-1.059-.443A1.44 1.44 0 0 1 10.5 12q0-.613.443-1.057A1.44 1.44 0 0 1 12 10.5q.613 0 1.057.443.443.444.443 1.055 0 .111-.01.213a.7.7 0 0 1-.046.195l1.846 1.846q.333-.48.522-1.047A3.8 3.8 0 0 0 16 12q0-1.65-1.175-2.825T12 8 9.175 9.175 8 12t1.175 2.825T12 16"/></svg>