<svg xmlns="http://www.w3.org/2000/svg" width="24" height="24" viewBox="0 0 24 24" fill='currentColor'><path d="M10.596 21.115v-3.34l8.237-8.206 3.31 3.277-8.254 8.269zm1.5-1.5h1.154l4.387-4.386-.577-.577-.606-.596-4.358 4.357zM10.75 9.278 9.696 8.21l2.085-2.075H7.767a2.46 2.46 0 0 1-1.632 1.633v8.466q.759.247 1.255.895.495.647.495 1.487 0 1.042-.729 1.771a2.4 2.4 0 0 1-1.769.729 2.42 2.42 0 0 1-1.771-.729 2.4 2.4 0 0 1-.731-1.771q0-.84.495-1.48t1.255-.887V7.767a2.54 2.54 0 0 1-1.255-.895 2.38 2.38 0 0 1-.495-1.488q0-1.041.729-1.77a2.4 2.4 0 0 1 1.77-.73q.84 0 1.488.495t.895 1.255h4.014L9.696 2.56l1.054-1.07 3.894 3.894zm7.863-6.394q1.04 0 1.771.729.732.728.731 1.77 0 1.04-.728 1.77a2.4 2.4 0 0 1-1.77.731 2.42 2.42 0 0 1-1.77-.728 2.4 2.4 0 0 1-.732-1.77q0-1.04.729-1.77a2.4 2.4 0 0 1 1.769-.732M5.385 19.615q.424 0 .712-.287a.97.97 0 0 0 .288-.713.97.97 0 0 0-.288-.712.97.97 0 0 0-.712-.288.97.97 0 0 0-.713.288.97.97 0 0 0-.287.712q0 .424.287.713.288.287.713.287m0-13.23q.424 0 .712-.288a.97.97 0 0 0 .288-.713.97.97 0 0 0-.288-.712.97.97 0 0 0-.712-.288.97.97 0 0 0-.713.288.97.97 0 0 0-.287.712q0 .426.287.713.288.287.713.287m13.23 0q.425 0 .713-.288a.97.97 0 0 0 .287-.713.97.97 0 0 0-.287-.712.97.97 0 0 0-.713-.288.97.97 0 0 0-.712.288.97.97 0 0 0-.288.712q0 .426.288.713.287.287.712.287"/></svg>