<svg xmlns="http://www.w3.org/2000/svg" width="24" height="24" viewBox="0 0 24 24" fill='currentColor'><path d="m10.75 22.51-1.044-1.07 2.075-2.075H7.767a2.54 2.54 0 0 1-.895 1.255q-.647.495-1.487.495a2.4 2.4 0 0 1-1.771-.729 2.4 2.4 0 0 1-.73-1.771q0-.84.496-1.487.495-.648 1.255-.895V7.767a2.54 2.54 0 0 1-1.255-.895 2.38 2.38 0 0 1-.495-1.488q0-1.041.729-1.77a2.4 2.4 0 0 1 1.77-.73q.84 0 1.488.495t.895 1.255h4.014L9.696 2.56l1.054-1.07 3.894 3.894-3.894 3.894L9.696 8.21l2.085-2.075H7.767a2.46 2.46 0 0 1-1.632 1.633v8.466a2.46 2.46 0 0 1 1.632 1.632h4.004L9.706 15.79l1.044-1.069 3.894 3.894zm7.868-1.395a2.42 2.42 0 0 1-1.772-.729 2.4 2.4 0 0 1-.73-1.771q0-.851.494-1.5.495-.65 1.255-.882V7.767a2.45 2.45 0 0 1-1.255-.882 2.4 2.4 0 0 1-.494-1.5q0-1.042.728-1.772a2.4 2.4 0 0 1 1.769-.729q1.04 0 1.771.73.732.729.731 1.77 0 .852-.495 1.501-.495.65-1.255.882v8.466q.76.247 1.255.895.495.647.495 1.487 0 1.042-.728 1.771a2.4 2.4 0 0 1-1.77.729m-13.233-1.5q.424 0 .712-.287a.97.97 0 0 0 .288-.713.97.97 0 0 0-.288-.712.97.97 0 0 0-.712-.288.97.97 0 0 0-.713.288.97.97 0 0 0-.287.712q0 .424.287.713.288.287.713.287m13.23 0q.425 0 .713-.287a.97.97 0 0 0 .287-.713.97.97 0 0 0-.287-.712.97.97 0 0 0-.713-.288.97.97 0 0 0-.712.288.97.97 0 0 0-.288.712q0 .424.288.713.287.287.712.287M5.385 6.385q.424 0 .712-.288a.97.97 0 0 0 .288-.713.97.97 0 0 0-.288-.712.97.97 0 0 0-.712-.288.97.97 0 0 0-.713.288.97.97 0 0 0-.287.712q0 .426.287.713.288.287.713.287m13.23 0q.425 0 .713-.288a.97.97 0 0 0 .287-.713.97.97 0 0 0-.287-.712.97.97 0 0 0-.713-.288.97.97 0 0 0-.712.288.97.97 0 0 0-.288.712q0 .426.288.713.287.287.712.287"/></svg>