<svg xmlns="http://www.w3.org/2000/svg" width="24" height="24" viewBox="0 0 24 24" fill='currentColor'><path d="M7.992 16h1.273l.916-2.454h3.688L14.785 16h1.261L12.57 7h-1.12zm2.562-3.504 1.396-3.885h.1l1.415 3.885zm1.448 9.004a9.3 9.3 0 0 1-3.7-.744 9.6 9.6 0 0 1-3.015-2.025 9.6 9.6 0 0 1-2.037-3.012 9.2 9.2 0 0 1-.75-3.7H4q0 1.65.63 3.108a8.1 8.1 0 0 0 1.717 2.545 8.2 8.2 0 0 0 2.547 1.72 7.7 7.7 0 0 0 3.106.633q3.35 0 5.675-2.325T20 12.025 17.675 6.35 12 4.025q-2.33 0-4.201 1.184a7.97 7.97 0 0 0-2.872 3.118h2.9v1.5H2.5V4.5H4v2.49a9.4 9.4 0 0 1 3.33-3.258Q9.43 2.5 12 2.5q1.972 0 3.705.748a9.6 9.6 0 0 1 3.016 2.03 9.6 9.6 0 0 1 2.03 3.016 9.25 9.25 0 0 1 .749 3.704q0 1.972-.748 3.706a9.6 9.6 0 0 1-2.03 3.017 9.6 9.6 0 0 1-3.016 2.03 9.25 9.25 0 0 1-3.704.749"/></svg>