<svg xmlns="http://www.w3.org/2000/svg" width="24" height="24" viewBox="0 0 24 24" fill='currentColor'><g clip-path="url(#a)"><path d="M10.073 13.927A15.4 15.4 0 0 1 7.216 9.99q-.24.474-.341.981-.1.507-.1 1.03 0 2.18 1.523 3.702Q9.82 17.226 12 17.225a4.8 4.8 0 0 0 2.011-.44 15.4 15.4 0 0 1-3.938-2.858m1.07-1.044q1.226 1.227 2.734 2.125a14.5 14.5 0 0 0 3.221 1.417 6.7 6.7 0 0 1-2.277 1.714 6.6 6.6 0 0 1-2.796.611q-2.82 0-4.785-1.965T5.275 12q0-1.47.612-2.796A6.7 6.7 0 0 1 7.6 6.927a14.5 14.5 0 0 0 1.417 3.221 14 14 0 0 0 2.125 2.735m7.163 1.608q-.377-.098-.743-.213a11 11 0 0 1-.726-.259q.21-.479.311-.984.102-.506.102-1.031 0-2.181-1.537-3.717T11.997 6.75q-.525 0-1.031.097a4.6 4.6 0 0 0-.985.307 9 9 0 0 1-.247-.712 20 20 0 0 1-.2-.723 6.6 6.6 0 0 1 1.216-.352 7 7 0 0 1 1.275-.117q2.82 0 4.785 1.965T18.775 12q0 .65-.117 1.275a6.6 6.6 0 0 1-.352 1.216M11.25 3.135V.442h1.5v2.693zm0 20.423v-2.693h1.5v2.693zm7.556-17.294-1.07-1.07 1.885-1.869 1.07 1.054zM4.379 20.675l-1.07-1.054 1.885-1.884 1.07 1.069zm16.486-7.925v-1.5h2.693v1.5zm-20.423 0v-1.5h2.693v1.5zm19.18 7.94-1.886-1.884 1.07-1.07 1.869 1.885zM5.193 6.264 3.325 4.379l1.054-1.07 1.885 1.885z"/></g><defs><clipPath id="a"><path d="M0 0h24v24H0z"/></clipPath></defs></svg>