<svg xmlns="http://www.w3.org/2000/svg" width="24" height="24" viewBox="0 0 24 24" fill='currentColor'><path d="m3.48 13.25 7.27-10.452V13.25zm2.864-1.5H9.25V7.576zm6.502 1.5q.281-.72.592-2.388.312-1.668.312-3.362 0-1.772-.304-3.503t-.59-2.642q1.476.565 2.869 1.752a14.2 14.2 0 0 1 2.484 2.776 15.5 15.5 0 0 1 1.783 3.478q.69 1.889.748 3.889zm1.956-1.5h4.277a12.1 12.1 0 0 0-1.503-4.059q-1.107-1.864-2.547-3.153.098.708.16 1.467.06.76.061 1.495 0 1.155-.127 2.232a24 24 0 0 1-.321 2.018M9 19.058q-.842 0-1.617-.358A4.4 4.4 0 0 1 6 17.692a7 7 0 0 1-.642.59 3 3 0 0 1-.744.443 6.1 6.1 0 0 1-1.425-1.526 6.5 6.5 0 0 1-.862-1.95h19.346a6.5 6.5 0 0 1-.861 1.95 6.1 6.1 0 0 1-1.425 1.526 3 3 0 0 1-.745-.444 7 7 0 0 1-.642-.589q-.623.65-1.39 1.008a3.8 3.8 0 0 1-1.61.358q-.842 0-1.622-.358A4.2 4.2 0 0 1 12 17.683q-.598.66-1.378 1.017-.78.358-1.622.358M2.25 22.75v-1.5H3A5 5 0 0 0 4.558 21 5.7 5.7 0 0 0 6 20.279q.694.471 1.447.713T9 21.234t1.545-.242T12 20.279q.694.471 1.447.713t1.553.242 1.55-.242 1.45-.713a6.2 6.2 0 0 0 1.455.72q.745.25 1.545.25h.75v1.5H21q-.746 0-1.496-.191A7 7 0 0 1 18 21.97a7 7 0 0 1-1.504.587q-.75.192-1.496.192t-1.496-.192A7 7 0 0 1 12 21.97a7 7 0 0 1-1.504.587A6 6 0 0 1 9 22.75q-.746 0-1.496-.192A7 7 0 0 1 6 21.97a7 7 0 0 1-1.504.587q-.75.192-1.496.192z"/></svg>