<svg xmlns="http://www.w3.org/2000/svg" width="24" height="24" viewBox="0 0 24 24" fill='currentColor'><path d="m15.566 15.05.868-.839-2.273-2.273q.275-.425.404-.852.127-.426.127-.952 0-1.34-.941-2.266a3.1 3.1 0 0 0-2.251-.926q-1.31 0-2.251.926t-.941 2.266.941 2.267a3.1 3.1 0 0 0 2.251.926q.525 0 .949-.138.424-.137.874-.412zM11.5 12.134q-.825 0-1.412-.587a1.93 1.93 0 0 1-.588-1.413q0-.825.588-1.412a1.93 1.93 0 0 1 1.412-.588q.81 0 1.405.588t.595 1.412-.588 1.413a1.93 1.93 0 0 1-1.412.587M1.385 20.23v-1.5h21.23v1.5zm1.115-2.5v-14h19v14zm1.5-1.5h16v-11H4z"/></svg>