<svg xmlns="http://www.w3.org/2000/svg" width="24" height="24" viewBox="0 0 24 24" fill='currentColor'><path d="M12.962 22.527q-2.372 0-4.466-.906a11.7 11.7 0 0 1-3.658-2.47 11.7 11.7 0 0 1-2.47-3.658 11.1 11.1 0 0 1-.906-4.466h1.5a9.6 9.6 0 0 0 .68 3.598 10.1 10.1 0 0 0 1.865 3.026q1.185 1.325 2.795 2.189a9.6 9.6 0 0 0 3.444 1.08l-3.038-3.04 1.053-1.054 5.458 5.458q-.588.12-1.133.182-.543.06-1.125.06M15 9V4.231h1.01v-1q0-.787.549-1.335a1.82 1.82 0 0 1 1.335-.55q.787 0 1.336.55.549.548.549 1.335v1h.99v4.77zm1.894-4.769h2v-1a.97.97 0 0 0-.287-.712.97.97 0 0 0-.713-.288.97.97 0 0 0-.712.288.97.97 0 0 0-.288.712zm.806 7.4 1.054-1.054 2.305 2.306-6.242 6.242-9.973-9.973 6.242-6.242 2.345 2.344-1.023 1.085-1.322-1.321-4.134 4.134 7.865 7.866 4.135-4.135z"/></svg>