<svg xmlns="http://www.w3.org/2000/svg" width="24" height="24" viewBox="0 0 24 24" fill='currentColor'><path d="M10 16.02q2.5 0 4.25-1.753Q16 12.513 16 10.01q0-2.505-1.75-4.257Q12.5 4 10 4T5.75 5.753 4 10.009t1.75 4.258T10 16.019m-.75-3.222v-6.48h1.5v6.48zm-3.423 0V8.269h1.5v4.529zm6.846 0V9.25h1.5v3.548zm7.783 8.702-5.694-5.694a7.6 7.6 0 0 1-2.19 1.247A7.4 7.4 0 0 1 10 17.5q-3.14 0-5.32-2.18-2.18-2.178-2.18-5.318T4.68 4.68Q6.857 2.5 9.998 2.5t5.32 2.18Q17.5 6.86 17.5 10q0 1.359-.447 2.572a7.4 7.4 0 0 1-1.247 2.18l5.694 5.694z"/></svg>