<svg xmlns="http://www.w3.org/2000/svg" width="24" height="24" viewBox="0 0 24 24" fill='currentColor'><path d="M12 13.5a5 5 0 0 0-2.861.876 5.2 5.2 0 0 0-1.912 2.316h9.546a5.2 5.2 0 0 0-1.912-2.316A5 5 0 0 0 12 13.5m-4.238-1.711 1.1-1.05 1.05 1.05.838-.839L9.7 9.9l1.05-1.1-.838-.839-1.05 1.05-1.1-1.05-.839.839 1.05 1.1-1.05 1.05zm6.327 0 1.05-1.05 1.1 1.05.838-.839-1.05-1.05 1.05-1.1-.839-.839-1.1 1.05-1.05-1.05-.838.839 1.05 1.1-1.05 1.05zM12.002 21.5a9.3 9.3 0 0 1-3.706-.748 9.6 9.6 0 0 1-3.016-2.03 9.6 9.6 0 0 1-2.032-3.016 9.25 9.25 0 0 1-.748-3.704q0-1.972.748-3.706a9.6 9.6 0 0 1 2.03-3.016 9.6 9.6 0 0 1 3.016-2.032 9.25 9.25 0 0 1 3.704-.748q1.972 0 3.706.748a9.6 9.6 0 0 1 3.017 2.03 9.6 9.6 0 0 1 2.03 3.016 9.25 9.25 0 0 1 .749 3.704q0 1.972-.748 3.706a9.6 9.6 0 0 1-2.03 3.017 9.6 9.6 0 0 1-3.016 2.03 9.25 9.25 0 0 1-3.704.749M12 20q3.35 0 5.675-2.325T20 12t-2.325-5.675T12 4 6.325 6.325 4 12t2.325 5.675T12 20"/></svg>