<svg xmlns="http://www.w3.org/2000/svg" width="24" height="24" viewBox="0 0 24 24" fill='currentColor'><path d="M8 23.885a.85.85 0 0 1-.626-.259.85.85 0 0 1-.258-.626q0-.366.258-.626A.85.85 0 0 1 8 22.116q.368 0 .626.258a.85.85 0 0 1 .258.626.85.85 0 0 1-.258.626.85.85 0 0 1-.626.259m4 0a.85.85 0 0 1-.626-.259.85.85 0 0 1-.258-.626q0-.366.258-.626a.85.85 0 0 1 .626-.258q.368 0 .626.258a.85.85 0 0 1 .258.626.85.85 0 0 1-.258.626.85.85 0 0 1-.626.259m4 0a.85.85 0 0 1-.626-.259.85.85 0 0 1-.258-.626q0-.366.258-.626a.85.85 0 0 1 .626-.258q.367 0 .626.258a.85.85 0 0 1 .258.626.85.85 0 0 1-.258.626.85.85 0 0 1-.626.259m-4.75-4.23v-7.85l-4.85 4.85L5.346 15.6l5.6-5.6-5.6-5.6L6.4 3.347l4.85 4.85V.347H12L17.354 5.7l-4.3 4.3 4.3 4.3L12 19.654zm1.5-2.89 2.496-2.465-2.496-2.496zm0-8.568L15.246 5.7 12.75 3.235z"/></svg>