<svg xmlns="http://www.w3.org/2000/svg" width="24" height="24" viewBox="0 0 24 24" fill='currentColor'><path d="M12 12.75q-1.37 0-2.31-.94-.94-.942-.94-2.31 0-1.37.94-2.31T12 6.25t2.31.94.94 2.31q0 1.368-.94 2.31-.94.94-2.31.94m0-1.5q.747 0 1.248-.502.502-.502.502-1.248 0-.747-.502-1.248Q12.747 7.75 12 7.75t-1.248.502q-.502.501-.502 1.248 0 .746.502 1.248.501.502 1.248.502m0 10.23q-3.244-.885-5.372-3.819T4.5 11.1V5.346L12 2.538l7.5 2.808V11.1q0 3.627-2.128 6.561T12 21.481m0-17.346-6 2.24V11.1q0 1.425.409 2.76.408 1.332 1.135 2.486 1.012-.516 2.119-.806A9.2 9.2 0 0 1 12 15.25q1.23 0 2.338.29 1.105.29 2.118.806.727-1.154 1.135-2.487A9.4 9.4 0 0 0 18 11.1V6.376zm0 12.616a8 8 0 0 0-1.86.21 8.3 8.3 0 0 0-1.688.588 9 9 0 0 0 1.637 1.43q.894.602 1.911.922a7.2 7.2 0 0 0 1.906-.922 9 9 0 0 0 1.633-1.43 8.4 8.4 0 0 0-1.683-.589A8 8 0 0 0 12 16.75"/></svg>