<svg xmlns="http://www.w3.org/2000/svg" width="24" height="24" viewBox="0 0 24 24" fill='currentColor'><path d="M9 3V1.5h6V3zm3 18.5a8.3 8.3 0 0 1-3.315-.67 8.53 8.53 0 0 1-4.523-4.53A8.3 8.3 0 0 1 3.5 13q0-1.755.67-3.3a8.6 8.6 0 0 1 1.826-2.704A8.6 8.6 0 0 1 8.7 5.17 8.2 8.2 0 0 1 12 4.5q1.575 0 2.933.525A9.1 9.1 0 0 1 17.446 6.5l1.392-1.392 1.054 1.054-1.361 1.392a9.6 9.6 0 0 1 1.444 2.513Q20.5 11.425 20.5 13q0 1.755-.666 3.3a8.6 8.6 0 0 1-1.825 2.704 8.6 8.6 0 0 1-2.703 1.827A8.2 8.2 0 0 1 12 21.5m-.077-10.384h6.815a6.8 6.8 0 0 0-1.542-2.802A7.2 7.2 0 0 0 14.6 6.5zm-1.615 1 3.427-5.897a6.7 6.7 0 0 0-3.182-.077A7.2 7.2 0 0 0 7.65 7.5zM5.1 14h5.266L6.977 8.104a7.8 7.8 0 0 0-1.615 2.687Q4.825 12.3 5.1 14m4.3 5.5 2.658-4.616H5.262a6.8 6.8 0 0 0 1.537 2.793A7.2 7.2 0 0 0 9.4 19.5m.884.262q1.89.521 3.465.037 1.574-.483 2.601-1.299l-2.677-4.635zm6.739-1.866q.85-.93 1.52-2.442T18.9 12h-5.285z"/></svg>