<svg xmlns="http://www.w3.org/2000/svg" width="24" height="24" viewBox="0 0 24 24" fill='currentColor'><path d="M2.8 9.715q.746-3.134 3.286-5.174T12 2.5q1.782 0 3.358.595a9.3 9.3 0 0 1 2.826 1.676q-.244.477-.393.834a3.7 3.7 0 0 0-.216.67 8.5 8.5 0 0 0-2.525-1.663A7.6 7.6 0 0 0 12 4Q9.475 4 7.475 5.412q-2 1.413-2.9 3.613a2.5 2.5 0 0 0-.957.159q-.464.174-.818.531M12 21.5q-3.373 0-5.914-2.035-2.54-2.037-3.286-5.17.338.357.803.539.464.18.972.166.9 2.2 2.9 3.6T12 20q3.325 0 5.663-2.337T20 12q0-.425-.038-.85a6 6 0 0 0-.137-.85q.247.08.49.13.245.051.521.06.14 0 .277-.015.14-.015.262-.046.06.39.092.773.033.383.033.798 0 1.97-.749 3.703a9.6 9.6 0 0 1-2.032 3.016 9.6 9.6 0 0 1-3.016 2.032q-1.734.75-3.703.749M8.4 11.389 10.279 9.5 8.375 7.596l-.829.829 1.075 1.05-1.075 1.075zM21 8.846q-.758 0-1.302-.544A1.78 1.78 0 0 1 19.154 7q0-.636.341-1.341.342-.705 1.505-2.39 1.164 1.685 1.505 2.39T22.846 7q0 .758-.544 1.302A1.78 1.78 0 0 1 21 8.846m-5.375 2.558.854-.854-1.075-1.075 1.05-1.05-.829-.829L13.721 9.5zM12 13.5q-.67 0-1.315.174-.647.174-1.226.517l-3.613-2.105q0-.38-.171-.72a1.25 1.25 0 0 0-.502-.531 1.33 1.33 0 0 0-1.022-.128 1.324 1.324 0 0 0-.944 1.642q.143.53.62.816.33.19.711.172.38-.02.712-.21l3.167 1.83a6.3 6.3 0 0 0-.67.793 4.8 4.8 0 0 0-.52.942H8.55q.525-.9 1.425-1.45t2.025-.55 2.025.55 1.425 1.45h1.323q-.648-1.501-1.934-2.347A5.06 5.06 0 0 0 12 13.5"/></svg>