<svg xmlns="http://www.w3.org/2000/svg" width="24" height="24" viewBox="0 0 24 24" fill='currentColor'><path d="M8.308 16.692v-.527q0-1.013 1.018-1.627T12 13.923t2.674.615 1.018 1.627v.527zM12 13q-.758 0-1.302-.544a1.78 1.78 0 0 1-.544-1.302q0-.758.544-1.302A1.78 1.78 0 0 1 12 9.308q.758 0 1.302.544t.544 1.302-.544 1.302A1.78 1.78 0 0 1 12 13M3.01 8.96v7.9q.282.392.907.697.626.305 1.487.459V9.84a9.5 9.5 0 0 1-1.365-.375 4.7 4.7 0 0 1-1.03-.506m17.98-.016q-.425.287-1.02.507a9 9 0 0 1-1.374.374v8.19a5.7 5.7 0 0 0 1.487-.458q.624-.305.908-.697zM6.905 19.842q-2.568-.321-3.966-1.064-1.4-.743-1.428-1.787V7.202q0-1.31 2.674-1.998T12 4.516t7.816.688 2.674 1.998v9.789q-.029 1.044-1.427 1.787-1.4.743-3.967 1.064V8.564q1.362-.23 2.33-.57t1.365-.73q-.931-.57-3.363-.917T12 6q-3.035 0-5.514.362-2.481.36-3.276.902.368.405 1.335.738.969.334 2.359.562z"/></svg>