<svg xmlns="http://www.w3.org/2000/svg" width="24" height="24" viewBox="0 0 24 24" fill='currentColor'><path d="M18.785 22.346a4.2 4.2 0 0 1-.906-.1l-12.625-2.7a4.19 4.19 0 0 1-3.044-2.414q-.04-.08-.04-.344a.63.63 0 0 1 .243-.384q.196-.15.445-.12.146.03.256.13a.8.8 0 0 1 .176.228q.32.653.886 1.133.566.478 1.32.628l.667.13 3.606-2.39-1.023-4.424 3.079-4.97h-2.87l-1.88 3.04L5.798 9l2.337-3.75H13.7q.618 0 .991.342.375.34.515.647l.525 1.19a4.63 4.63 0 0 0 1.617 1.987 4.5 4.5 0 0 0 2.498.825v1.5a5.8 5.8 0 0 1-3.027-.876q-1.363-.848-2.257-2.337l-2.166 3.423 3.412 2.713.99 6.152 1.323.263q.16.051.332.063t.332.012q.61 0 1.118-.21.508-.209.943-.568.077-.078.506-.131.248.03.386.238.14.208.108.425a.6.6 0 0 1-.068.206 1 1 0 0 1-.134.171q-.576.532-1.328.796-.75.266-1.531.266m-3.568-1.866-.788-4.948-3.427-2.429.47 3.7-3.257 2.17zM16 4.846q-.758 0-1.302-.544A1.78 1.78 0 0 1 14.154 3q0-.759.544-1.302A1.78 1.78 0 0 1 16 1.153q.758 0 1.302.545.544.543.544 1.302 0 .757-.544 1.302A1.78 1.78 0 0 1 16 4.846"/></svg>