<svg xmlns="http://www.w3.org/2000/svg" width="24" height="24" viewBox="0 0 24 24" fill='currentColor'><path d="M19.666 9.835a8.1 8.1 0 0 0-2.574-3.98 7.67 7.67 0 0 0-4.342-1.824v1.754zM7.75 13.592l3.5-2.038V4.03a7.8 7.8 0 0 0-1.824.406 8.3 8.3 0 0 0-1.676.817zm-3.004 1.739 1.504-.877V6.48a7.4 7.4 0 0 0-1.68 2.531A8 8 0 0 0 4 12.005q0 .86.177 1.707a6.5 6.5 0 0 0 .57 1.62m3.504 3.723L15.5 14.9 12 12.861 5.496 16.64q.54.768 1.224 1.395.685.626 1.53 1.02M12 20a7.76 7.76 0 0 0 3.66-.903 8 8 0 0 0 2.844-2.49L17 15.763l-6.946 3.992q.466.143.96.194T12 20m7.254-4.67q.412-.84.598-1.752a7 7 0 0 0 .129-1.847L12.75 7.508v4.046zm-7.252 6.17a9.3 9.3 0 0 1-3.706-.748 9.6 9.6 0 0 1-3.016-2.03 9.6 9.6 0 0 1-2.032-3.016 9.25 9.25 0 0 1-.748-3.704q0-1.972.748-3.706a9.6 9.6 0 0 1 2.03-3.016 9.6 9.6 0 0 1 3.016-2.032 9.25 9.25 0 0 1 3.704-.748q1.972 0 3.706.748a9.6 9.6 0 0 1 3.017 2.03 9.6 9.6 0 0 1 2.03 3.016 9.25 9.25 0 0 1 .749 3.704q0 1.972-.748 3.706a9.6 9.6 0 0 1-2.03 3.017 9.6 9.6 0 0 1-3.016 2.03 9.25 9.25 0 0 1-3.704.749"/></svg>