<svg xmlns="http://www.w3.org/2000/svg" width="24" height="24" viewBox="0 0 24 24" fill='currentColor'><path d="M12.001 18.75a2.65 2.65 0 0 1-1.948-.802 2.65 2.65 0 0 1-.803-1.947q0-1.145.802-1.948a2.65 2.65 0 0 1 1.947-.803q1.145 0 1.948.802.803.801.803 1.947t-.802 1.948a2.65 2.65 0 0 1-1.947.803m-7.368-7q.426-2.677 2.494-4.463T11.975 5.5q1.845 0 3.385.815a7.5 7.5 0 0 1 2.553 2.176V5.442h1.5v6.308h-6.307v-1.5h4.219a6.1 6.1 0 0 0-2.167-2.353Q13.752 7 12 7 9.854 7 8.219 8.353T6.158 11.75z"/></svg>