<svg xmlns="http://www.w3.org/2000/svg" width="24" height="24" viewBox="0 0 24 24" fill='currentColor'><path d="M5.387 14.615a2.53 2.53 0 0 1-1.853-.762 2.52 2.52 0 0 1-.765-1.85q0-1.09.763-1.854a2.52 2.52 0 0 1 1.85-.764q1.089 0 1.854.762T8 11.997q0 1.09-.762 1.854a2.52 2.52 0 0 1-1.851.764m-.003-1.5q.473 0 .795-.32.321-.32.321-.794t-.32-.795a1.08 1.08 0 0 0-.795-.322q-.474 0-.794.321a1.08 1.08 0 0 0-.322.794q0 .474.32.795.322.322.795.322m6.618 1.5a2.53 2.53 0 0 1-1.853-.762 2.52 2.52 0 0 1-.764-1.85q0-1.09.762-1.854a2.52 2.52 0 0 1 1.85-.764q1.09 0 1.854.762t.764 1.85q0 1.09-.762 1.854a2.52 2.52 0 0 1-1.85.764m-.003-1.5q.474 0 .795-.32t.322-.794-.321-.795a1.08 1.08 0 0 0-.794-.322q-.474 0-.795.321a1.08 1.08 0 0 0-.322.794q0 .474.321.795.32.322.794.322m6.618 1.5a2.53 2.53 0 0 1-1.852-.762 2.52 2.52 0 0 1-.765-1.85q0-1.09.762-1.854a2.52 2.52 0 0 1 1.851-.764q1.09 0 1.853.762.765.762.765 1.85 0 1.09-.763 1.854a2.52 2.52 0 0 1-1.85.764"/></svg>