<svg xmlns="http://www.w3.org/2000/svg" width="24" height="24" viewBox="0 0 24 24" fill='currentColor'><path d="M4 13.75q-.729 0-1.24-.51-.51-.511-.51-1.24t.51-1.24T4 10.25t1.24.51.51 1.24-.51 1.24-1.24.51m1.65 5.604L4.596 18.3 8.6 14.296l1.054 1.054zm3-9.7L4.646 5.65 5.7 4.596 9.704 8.6zM12 21.75q-.729 0-1.24-.51-.51-.511-.51-1.24t.51-1.24 1.24-.51 1.24.51q.51.511.51 1.24t-.51 1.24-1.24.51m0-16q-.729 0-1.24-.51-.51-.511-.51-1.24t.51-1.24q.511-.51 1.24-.51t1.24.51.51 1.24-.51 1.24-1.24.51m3.35 3.935L14.296 8.6l4.054-4.004 1.054 1.054zm3 9.669-4.004-4.004 1.054-1.054 4.004 4.004zM20 13.75q-.729 0-1.24-.51-.51-.511-.51-1.24t.51-1.24 1.24-.51 1.24.51.51 1.24-.51 1.24-1.24.51"/></svg>