<svg xmlns="http://www.w3.org/2000/svg" width="24" height="24" viewBox="0 0 24 24" fill='currentColor'><path d="M12 15.567q-2.327 0-3.961-1.627-1.635-1.626-1.635-4 0-1.599.85-3.003a14 14 0 0 1 1.936-2.52 17.5 17.5 0 0 1 2.107-1.867q1.02-.753 1.376-1.051.192 1.29.743 2.17.551.878 1.707 1.805 1.39 1.122 1.93 2.142.543 1.021.543 2.314 0 2.382-1.635 4.01-1.635 1.626-3.961 1.626m0-1.5q1.698 0 2.897-1.191 1.2-1.191 1.2-2.945 0-.933-.46-1.716-.458-.782-1.549-1.657a9.6 9.6 0 0 1-1.276-1.18 7 7 0 0 1-.985-1.424q-2.12 1.75-3.021 3.182-.902 1.433-.902 2.805 0 1.743 1.199 2.935T12 14.067M4.5 20.5l.914-2.654h13.173L19.5 20.5z"/></svg>