<svg xmlns="http://www.w3.org/2000/svg" width="24" height="24" viewBox="0 0 24 24" fill='currentColor'><path d="m19.804 21.942-2.256-2.256a9.5 9.5 0 0 1-2.603 1.346A9.2 9.2 0 0 1 12 21.5a9.25 9.25 0 0 1-3.705-.748 9.6 9.6 0 0 1-3.016-2.03 9.6 9.6 0 0 1-2.03-3.017A9.25 9.25 0 0 1 2.5 12q0-1.562.473-2.966a9.4 9.4 0 0 1 1.34-2.582L2.058 4.196l1.069-1.069 17.746 17.746zm-9.254-2.084q.755-1.39 1.82-2.149 1.062-.758 2.115-1.086L5.398 7.537a8.1 8.1 0 0 0-1.029 2.08A7.6 7.6 0 0 0 4 12q0 1.212.335 2.299.336 1.087.95 2.001a8.6 8.6 0 0 1 4.129-1.05q.713 0 1.378.118.666.119 1.217.286-.43.242-.803.537a8 8 0 0 0-.717.638 3.5 3.5 0 0 0-.523-.064q-.279-.015-.553-.015-.828 0-1.645.194a6.4 6.4 0 0 0-1.541.583q.742.867 1.946 1.491a8.5 8.5 0 0 0 2.377.84m9.435-2.704L18.89 16.06q.515-.846.812-1.881T20 12q0-3.35-2.325-5.675T12 4q-1.125 0-2.142.292a8.4 8.4 0 0 0-1.918.817L6.846 4.016A9.3 9.3 0 0 1 12 2.5q1.972 0 3.705.748a9.6 9.6 0 0 1 3.016 2.03 9.6 9.6 0 0 1 2.03 3.017A9.25 9.25 0 0 1 21.5 12q0 1.429-.39 2.73a9.3 9.3 0 0 1-1.125 2.424M12.73 9.9 9.6 6.77q1.29.026 2.197.94.907.915.934 2.19m-3.227 3.35q-1.358 0-2.306-.948T6.25 9.996q0-.774.338-1.417.339-.644.885-1.106l4.554 4.554a3.7 3.7 0 0 1-1.106.885q-.644.338-1.417.338m7.679 1.102-3.035-3.035q.231-.774.872-1.267.642-.492 1.48-.492 1.026 0 1.734.708T18.942 12q0 .838-.492 1.48-.492.64-1.267.872"/></svg>