<svg xmlns="http://www.w3.org/2000/svg" width="24" height="24" viewBox="0 0 24 24" fill='currentColor'><path d="M12.002 21.5a9.3 9.3 0 0 1-3.706-.748 9.6 9.6 0 0 1-3.016-2.03 9.6 9.6 0 0 1-2.032-3.016 9.25 9.25 0 0 1-.748-3.704q0-1.972.748-3.706a9.6 9.6 0 0 1 2.03-3.016 9.6 9.6 0 0 1 3.016-2.032 9.25 9.25 0 0 1 3.704-.748q1.972 0 3.706.748a9.6 9.6 0 0 1 3.017 2.03 9.6 9.6 0 0 1 2.03 3.016 9.25 9.25 0 0 1 .749 3.704q0 1.972-.748 3.706a9.6 9.6 0 0 1-2.03 3.017 9.6 9.6 0 0 1-3.016 2.03 9.25 9.25 0 0 1-3.704.749M9.1 19.45l1.47-3.346a4.2 4.2 0 0 1-1.617-1.025 4.7 4.7 0 0 1-1.037-1.629l-3.385 1.4q.585 1.6 1.785 2.8t2.784 1.8m-1.184-8.9A4.3 4.3 0 0 1 8.94 8.934a4.4 4.4 0 0 1 1.61-1.018L9.15 4.53a7.9 7.9 0 0 0-2.81 1.81q-1.2 1.2-1.81 2.809zm4.082 4.296a2.75 2.75 0 0 0 2.017-.83 2.74 2.74 0 0 0 .831-2.014 2.75 2.75 0 0 0-.83-2.017 2.74 2.74 0 0 0-2.014-.831 2.75 2.75 0 0 0-2.017.83 2.74 2.74 0 0 0-.831 2.014q0 1.185.83 2.017a2.74 2.74 0 0 0 2.014.831M14.9 19.45a7.8 7.8 0 0 0 2.763-1.787A7.8 7.8 0 0 0 19.45 14.9l-3.346-1.47a4.1 4.1 0 0 1-1.006 1.607 4.8 4.8 0 0 1-1.598 1.047zm1.184-8.95 3.366-1.4a7.8 7.8 0 0 0-1.787-2.762A7.8 7.8 0 0 0 14.9 4.55l-1.4 3.396q.89.346 1.554 1.008a4.7 4.7 0 0 1 1.03 1.546"/></svg>