<svg xmlns="http://www.w3.org/2000/svg" width="24" height="24" viewBox="0 0 24 24" fill='currentColor'><path d="m4.952 7.02-1.07-1.054 3.07-3.08 1.063 1.07-1.01 1.01 1.23 1.219 3.188-3.189 1.07 1.07-1.17 1.153 8.362 8.353-2.004 2.034 4.378 4.364h-2.138l-3.31-3.31-1.994 2.025-8.376-8.367-1.145 1.128-1.044-1.044L7.191 7.23 5.96 6.01zm2.333 2.253 7.307 7.308 2.96-2.984-1.673-1.708-2.01 1.994-1.038-1.035 2.004-2.004-1.799-1.788-1.984 1.97L9.998 9.97l1.97-1.984-1.699-1.698zm0 0 .22-.22 2.764-2.764z"/></svg>