<svg xmlns="http://www.w3.org/2000/svg" width="24" height="24" viewBox="0 0 24 24" fill='currentColor'><path d="m16.256 20.5-1.045-1.044 1.576-1.6-1.575-1.575 1.044-1.07 1.6 1.6 1.575-1.6 1.069 1.07-1.6 1.575 1.6 1.6-1.07 1.044-1.574-1.575zM6.25 19q.522 0 .886-.364.363-.364.364-.886 0-.522-.364-.886a1.2 1.2 0 0 0-.886-.364q-.522 0-.886.364A1.2 1.2 0 0 0 5 17.75q0 .522.364.886.365.364.886.364m0 1.5a2.65 2.65 0 0 1-1.947-.803A2.65 2.65 0 0 1 3.5 17.75q0-1.145.803-1.947A2.65 2.65 0 0 1 6.25 15q.906 0 1.63.532.724.531.987 1.407a2.93 2.93 0 0 0 1.775-1.018A2.88 2.88 0 0 0 11.346 14v-3.856q0-1.969 1.39-3.36 1.391-1.39 3.36-1.39h1.515L15.787 3.57l1.07-1.069L20.5 6.144 16.856 9.79l-1.07-1.045 1.816-1.85h-1.506q-1.355 0-2.303.947-.947.948-.947 2.303V14q0 1.7-1.132 2.962a4.48 4.48 0 0 1-2.816 1.492 2.65 2.65 0 0 1-.972 1.476q-.74.57-1.676.57M4.544 8.789 3.5 7.744l1.575-1.6L3.5 4.57 4.544 3.5l1.6 1.6L7.72 3.5l1.07 1.07-1.6 1.574 1.6 1.6-1.07 1.045-1.575-1.575z"/></svg>