<svg xmlns="http://www.w3.org/2000/svg" width="24" height="24" viewBox="0 0 24 24" fill='currentColor'><path d="M18.75 7.404a.87.87 0 0 0 .64-.263.87.87 0 0 0 .264-.641.87.87 0 0 0-.264-.64.87.87 0 0 0-.64-.264.87.87 0 0 0-.64.263.87.87 0 0 0-.264.641q0 .377.264.64.263.264.64.264m-4 0a.87.87 0 0 0 .64-.263.87.87 0 0 0 .264-.641.87.87 0 0 0-.264-.64.87.87 0 0 0-.64-.264.87.87 0 0 0-.64.263.87.87 0 0 0-.264.641q0 .377.264.64.263.264.64.264m-.385 3.4h4.77q-.049-.77-.758-1.239a2.9 2.9 0 0 0-1.627-.469q-.936 0-1.646.47-.71.468-.739 1.238M7.252 21.5q-2.29 0-3.896-1.604T1.75 16V9.5h11V16q0 2.291-1.604 3.896T7.252 21.5M7.25 20q1.65 0 2.825-1.175T11.25 16v-5h-8v5q0 1.65 1.175 2.825T7.25 20m9.5-5.5q-.66 0-1.33-.162a4.3 4.3 0 0 1-1.19-.465l.02-1.773q.545.425 1.175.662T16.75 13q1.65 0 2.825-1.175T20.75 9V4h-8v4h-1.5V2.5h11V9q0 2.292-1.604 3.896T16.75 14.5m-11.5-.096a.87.87 0 0 0 .64-.264.87.87 0 0 0 .264-.64.87.87 0 0 0-.263-.64.87.87 0 0 0-.641-.264.87.87 0 0 0-.64.264.87.87 0 0 0-.264.64q0 .377.264.64a.87.87 0 0 0 .64.264m4 0a.87.87 0 0 0 .64-.264.87.87 0 0 0 .264-.64.87.87 0 0 0-.264-.64.87.87 0 0 0-.64-.264.87.87 0 0 0-.64.264.87.87 0 0 0-.264.64q0 .377.264.64a.87.87 0 0 0 .64.264m-2 3.4q.936 0 1.646-.47.71-.468.739-1.238h-4.77q.03.77.739 1.238.71.47 1.646.47"/></svg>