<svg xmlns="http://www.w3.org/2000/svg" width="24" height="24" viewBox="0 0 24 24" fill='currentColor'><path d="M8.298 16.846h1.427l.652-1.942h3.186l.652 1.942h1.458l-2.884-8.2h-1.606zm2.467-3.104 1.226-3.608 1.2 3.608zM9.192 2.75v-1.5h5.616v1.5zM12 21.5q-1.755 0-3.3-.67a8.6 8.6 0 0 1-2.704-1.826A8.6 8.6 0 0 1 4.17 16.3 8.2 8.2 0 0 1 3.5 13q0-1.755.67-3.3a8.6 8.6 0 0 1 1.826-2.704A8.6 8.6 0 0 1 8.7 5.17 8.2 8.2 0 0 1 12 4.5q1.502 0 2.893.51 1.392.51 2.584 1.46l1.246-1.247 1.054 1.054-1.246 1.246a9.2 9.2 0 0 1 1.46 2.584q.51 1.391.509 2.893 0 1.755-.67 3.3a8.6 8.6 0 0 1-1.826 2.704A8.6 8.6 0 0 1 15.3 20.83q-1.545.669-3.3.669m0-1.5q2.9 0 4.95-2.05T19 13t-2.05-4.95T12 6 7.05 8.05 5 13t2.05 4.95T12 20"/></svg>