<svg xmlns="http://www.w3.org/2000/svg" width="24" height="24" viewBox="0 0 24 24" fill='currentColor'><path d="M8.617 19.5q-2.895 0-4.92-2.027T1.673 12.55t2.025-4.925q2.025-2.028 4.918-2.029a6.7 6.7 0 0 1 2.348.408q1.107.408 2 1.133l1.001-1.002 1.044 1.044-.992 1.002a7 7 0 0 1 1.138 2.007q.412 1.114.412 2.36 0 2.897-2.027 4.924T8.617 19.5m10.825 0-3.096-3.096L17.4 15.35l1.292 1.292V4.5h1.5v12.127l1.277-1.277 1.07 1.054zM6.404 4.385v-1.5h4.442v1.5zM8.614 18q2.28 0 3.867-1.586 1.586-1.587 1.586-3.867t-1.586-3.865-3.866-1.586-3.861 1.586-1.581 3.868 1.58 3.866Q6.336 18 8.616 18m-.749-4.798h1.5V8.798h-1.5z"/></svg>