<svg xmlns="http://www.w3.org/2000/svg" width="24" height="24" viewBox="0 0 24 24" fill='currentColor'><path d="M12.002 21.5a9.3 9.3 0 0 1-3.706-.748 9.6 9.6 0 0 1-3.016-2.03 9.6 9.6 0 0 1-2.032-3.016 9.25 9.25 0 0 1-.748-3.704q0-1.972.748-3.706a9.6 9.6 0 0 1 2.03-3.016 9.6 9.6 0 0 1 3.016-2.032 9.25 9.25 0 0 1 3.704-.748q1.972 0 3.706.748a9.6 9.6 0 0 1 3.017 2.03 9.6 9.6 0 0 1 2.03 3.016 9.25 9.25 0 0 1 .749 3.704q0 1.972-.748 3.706a9.6 9.6 0 0 1-2.03 3.017 9.6 9.6 0 0 1-3.016 2.03 9.25 9.25 0 0 1-3.704.749m-.752-1.53V4.03q-3.093.395-5.171 2.646T4 12t2.079 5.324 5.171 2.645m1.5 0a9.3 9.3 0 0 0 1.835-.377 5.5 5.5 0 0 0 1.65-.843H12.75zm0-2.72h5.27q.324-.33.57-.706.247-.375.445-.794H12.75zm0-3h6.923q.107-.375.177-.75t.12-.75h-7.22zm0-3h7.22q-.051-.375-.12-.75t-.177-.75H12.75zm0-3h6.285a6.5 6.5 0 0 0-.445-.794 4.6 4.6 0 0 0-.57-.706h-5.27zm0-3h3.485a5.5 5.5 0 0 0-1.65-.843 9.3 9.3 0 0 0-1.835-.376z"/></svg>