<svg xmlns="http://www.w3.org/2000/svg" width="24" height="24" viewBox="0 0 24 24" fill='currentColor'><path d="M9 19.5q-3.14 0-5.32-2.18-2.18-2.178-2.18-5.318T3.68 6.68Q5.86 4.5 9 4.5h6q3.14 0 5.32 2.18 2.18 2.178 2.18 5.319t-2.18 5.32Q18.14 19.5 15 19.5zM9 18h6q2.5 0 4.25-1.75T21 12t-1.75-4.25T15 6H9Q6.5 6 4.75 7.75T3 12t1.75 4.25T9 18m3-4.25q.729 0 1.24-.51.51-.511.51-1.24t-.51-1.24-1.24-.51-1.24.51q-.51.511-.51 1.24t.51 1.24 1.24.51m-1.75-5h3.5v-1.5h-3.5zm0 8h3.5v-1.5h-3.5zm5-3h1.5v-3.5h-1.5zm-8 0h1.5v-3.5h-1.5z"/></svg>