<svg xmlns="http://www.w3.org/2000/svg" width="24" height="24" viewBox="0 0 24 24" fill='currentColor'><path d="m19.075 19.875 1-1-7.75-7.75q.4-.55.638-1.225.237-.675.237-1.4 0-1.875-1.312-3.175T8.7 4.025a3.3 3.3 0 0 0-.575.05l3 3.025L9.2 9l-1.925 1.925-3.025-3a3.5 3.5 0 0 0-.05.575q0 1.875 1.313 3.188Q6.825 13 8.7 13q.725 0 1.413-.225.687-.225 1.212-.65zm.05 2.175L11.05 14q-.524.25-1.112.375a6 6 0 0 1-1.213.125q-2.525 0-4.262-1.75Q2.725 11 2.725 8.5q0-.85.25-1.725A4.8 4.8 0 0 1 3.7 5.25L7.275 8.8l1.75-1.7-3.6-3.6q.675-.476 1.525-.738A5.9 5.9 0 0 1 8.7 2.5q2.5 0 4.25 1.737Q14.7 5.976 14.7 8.5q0 .626-.125 1.238A5.4 5.4 0 0 1 14.2 10.9l8.05 8.025z"/></svg>