<svg xmlns="http://www.w3.org/2000/svg" width="24" height="24" viewBox="0 0 24 24" fill='currentColor'><path d="M16.5 20q1.45 0 2.475-1.025A3.37 3.37 0 0 0 20 16.5v-1.75h-7v1.75q0 1.45 1.025 2.475A3.37 3.37 0 0 0 16.5 20m-3.485-6.75h2.735v-3.148a3.3 3.3 0 0 0-1.887 1.098 3.46 3.46 0 0 0-.848 2.05m4.235 0h2.735a3.46 3.46 0 0 0-.848-2.05 3.3 3.3 0 0 0-1.887-1.098zm-.748 8.25q-2.091 0-3.546-1.454Q11.5 18.59 11.5 16.5v-3q0-2.091 1.454-3.546T16.498 8.5t3.546 1.454T21.5 13.5v3q0 2.091-1.454 3.546T16.502 21.5M2.5 19.5v-15h19v1.808H20V6H4v12h5.323v1.5z"/></svg>