<svg xmlns="http://www.w3.org/2000/svg" width="24" height="24" viewBox="0 0 24 24" fill='currentColor'><path d="m20.904 18.057-1.206-1.205a7.54 7.54 0 0 0-.037-3.99 7.73 7.73 0 0 0-2.046-3.45l1.054-1.085a9.4 9.4 0 0 1 2.04 2.986q.733 1.695.733 3.63a9.3 9.3 0 0 1-.538 3.114M10.816 7.984l-2.043-4.14 1.348-.679L13.3 9.62v.865zm9.992 14.946L1.296 3.403 2.35 2.35l19.511 19.51zM2.5 21.5V20h4.494v-1.075a4.07 4.07 0 0 1-1.817-1.5 3.87 3.87 0 0 1-.677-2.198v-1.881h4v-2.904h1.942l1.5 1.5H10v2.904H6v.4q0 .875.566 1.547.567.672 1.45.897l.525.075V21.5z"/></svg>