<svg xmlns="http://www.w3.org/2000/svg" width="24" height="24" viewBox="0 0 24 24" fill='currentColor'><path d="m21.5 18.53-1.5-1.5v-5.338h-5.338l-1.5-1.5H21.5zm-.871 4.087L19.527 21.5h-9.335v-9.335L4.927 6.9a6.3 6.3 0 0 0-.678 1.456A5.4 5.4 0 0 0 4 10q0 1.924 1.1 3.462A6 6 0 0 0 8 15.65v1.58q-2.463-.665-3.982-2.672Q2.5 12.551 2.5 10q0-1.173.348-2.232A7.6 7.6 0 0 1 3.827 5.8L1.433 3.405l1.053-1.053 19.212 19.211zm-7.937-3.714 1.608-2.15 1.2 1.65 1.329-1.71 2.21 2.21zm-1 1.097h6.335l-6.335-6.335zM15.65 8a6 6 0 0 0-2.187-2.9A5.8 5.8 0 0 0 10 4q-.646 0-1.267.14a7 7 0 0 0-1.212.396l-1.119-1.11a7.2 7.2 0 0 1 1.737-.695A7.5 7.5 0 0 1 10 2.5q2.551 0 4.559 1.518Q16.565 5.536 17.23 8z"/></svg>