<svg xmlns="http://www.w3.org/2000/svg" width="24" height="24" viewBox="0 0 24 24" fill='currentColor'><path d="M9.308 13.943v-3.885H10.5v3.885zm2.096 0v-2.885h1.192v2.885zm2.096 0v-1.885h1.192v1.885zm-4.134 7.153-1.12-3.838q-1.23-.844-1.987-2.23A6.2 6.2 0 0 1 5.5 12q0-1.64.759-3.027.758-1.386 1.987-2.23l1.12-3.839h5.268l1.12 3.839q1.23.843 1.987 2.23.759 1.388.759 3.027a6.2 6.2 0 0 1-.759 3.027q-.758 1.387-1.987 2.231l-1.12 3.838zM12 17q2.075 0 3.537-1.462Q17 14.076 17 12q0-2.074-1.463-3.537T12 7Q9.925 7 8.463 8.463 7 9.926 7 12q0 2.076 1.463 3.538T12 17M10.08 5.79q.51-.144.978-.224a5.6 5.6 0 0 1 1.884 0q.467.08.977.224L13.5 4.404h-3zm.42 13.807h3l.42-1.384q-.51.144-.978.211a6.6 6.6 0 0 1-1.884 0 8 8 0 0 1-.977-.211zm0 0h-.42 3.84z"/></svg>