<svg xmlns="http://www.w3.org/2000/svg" width="24" height="24" viewBox="0 0 24 24" fill='currentColor'><path d="M2.25 19.62v-1.45q.686-.04 1.18-.264.493-.225.994-.473a8 8 0 0 1 1.105-.447q.604-.198 1.471-.198.892 0 1.495.213.603.212 1.143.475.54.262 1.083.487.545.225 1.279.225.735 0 1.279-.225t1.084-.487T15.517 17 17 16.788q.893 0 1.484.198t1.092.447 1.002.473 1.172.263v1.45q-.825-.03-1.405-.254-.58-.225-1.09-.473t-1.02-.45q-.51-.204-1.235-.204-.7 0-1.236.213-.537.213-1.069.475-.53.262-1.16.487-.627.225-1.535.225t-1.536-.225-1.16-.487a16 16 0 0 0-1.055-.475q-.525-.213-1.249-.213-.7 0-1.222.203t-1.033.451-1.09.473-1.405.254m0-4.143v-1.45q.686-.039 1.18-.264t.994-.473a8 8 0 0 1 1.105-.446q.604-.198 1.471-.198.892 0 1.495.213.603.212 1.143.475.54.262 1.083.487.545.225 1.279.225.735 0 1.279-.225t1.084-.487 1.154-.475T17 12.646q.893 0 1.484.198.591.197 1.092.446.501.248 1.002.473.5.225 1.172.264v1.45q-.825-.03-1.405-.254-.58-.225-1.09-.473t-1.02-.451T17 14.096q-.715 0-1.252.212-.537.213-1.068.475a11 11 0 0 1-1.152.488q-.62.225-1.528.225-.907 0-1.536-.225-.627-.225-1.16-.488a16 16 0 0 0-1.055-.475q-.525-.212-1.249-.212-.7 0-1.222.203t-1.033.45-1.09.474-1.405.254m0-4.143v-1.45q.686-.038 1.18-.263t.994-.473a8 8 0 0 1 1.105-.446Q6.133 8.504 7 8.504q.892 0 1.495.212.603.213 1.143.475.54.263 1.083.488.545.225 1.279.225.735 0 1.279-.225t1.084-.488 1.154-.475T17 8.504q.893 0 1.484.198.591.197 1.092.446.501.248 1.002.473.5.225 1.172.264v1.45q-.825-.03-1.405-.254-.58-.225-1.09-.473-.51-.249-1.02-.451-.51-.203-1.235-.203-.7 0-1.236.212-.537.213-1.069.475-.53.263-1.16.488-.627.225-1.535.225t-1.536-.225-1.16-.488a16 16 0 0 0-1.055-.475Q7.724 9.954 7 9.954q-.7 0-1.222.203-.522.202-1.033.45-.51.249-1.09.474t-1.405.253m0-4.142v-1.45q.686-.038 1.18-.263t.994-.473a8 8 0 0 1 1.105-.446q.604-.2 1.471-.2.892 0 1.495.213.603.212 1.143.475.54.262 1.083.487.545.225 1.279.225.735 0 1.279-.225t1.084-.487 1.154-.475T17 4.36q.893 0 1.484.199.591.197 1.092.446.501.248 1.002.473.5.225 1.172.263v1.45q-.825-.03-1.405-.254a15 15 0 0 1-1.09-.473q-.51-.248-1.02-.45-.51-.204-1.235-.204-.7 0-1.236.213-.537.212-1.069.475-.53.262-1.16.487-.627.225-1.535.225t-1.536-.225-1.16-.487a16 16 0 0 0-1.055-.475Q7.724 5.81 7 5.81q-.7 0-1.222.203t-1.033.451-1.09.473-1.405.254"/></svg>