<svg xmlns="http://www.w3.org/2000/svg" width="24" height="24" viewBox="0 0 24 24" fill='currentColor'><path d="M5.827 21.75V14.5h-1.5V7.25h6.346v7.25h-1.5v7.25zM7.5 6.23a1.78 1.78 0 0 1-1.307-.54q-.54-.538-.54-1.306 0-.767.54-1.306.54-.54 1.307-.54.768 0 1.307.54.54.54.54 1.306 0 .768-.54 1.307-.54.54-1.307.54m7.75 15.52V16h-2.711l2.623-8.75h2.676L20.463 16H17.75v5.75zM16.5 6.23a1.78 1.78 0 0 1-1.307-.54q-.54-.538-.54-1.306 0-.767.54-1.306.54-.54 1.307-.54t1.307.54.54 1.306q0 .768-.54 1.307-.54.54-1.307.54"/></svg>