<svg xmlns="http://www.w3.org/2000/svg" width="24" height="24" viewBox="0 0 24 24" fill='currentColor'><path d="M17.692 23.866v-4.77h1.01v-1q0-.787.549-1.335a1.82 1.82 0 0 1 1.335-.55q.787 0 1.336.55.549.549.549 1.335v1h.99v4.77zm1.895-4.77h2v-1a.97.97 0 0 0-.288-.712.97.97 0 0 0-.712-.288.97.97 0 0 0-.713.288.97.97 0 0 0-.287.712zM6.35 15.35l-1.561-1.592a10.12 10.12 0 0 1 7.21-2.988q2.048 0 3.915.78a9.9 9.9 0 0 1 3.298 2.239L17.65 15.35a8 8 0 0 0-2.587-1.737A7.85 7.85 0 0 0 12 13a7.85 7.85 0 0 0-3.062.613A8 8 0 0 0 6.35 15.35M2.1 11.1.539 9.54A15.8 15.8 0 0 1 5.787 6q2.97-1.23 6.215-1.23T18.215 6q2.967 1.23 5.247 3.54L21.9 11.1a13.9 13.9 0 0 0-4.537-3.037A13.9 13.9 0 0 0 12 7Q9.2 7 6.638 8.063A13.9 13.9 0 0 0 2.1 11.1M12 21l-2.986-3.002q.593-.593 1.365-.91a4.2 4.2 0 0 1 1.62-.319q.847 0 1.62.318t1.367.911z"/></svg>