<svg xmlns="http://www.w3.org/2000/svg" width="24" height="24" viewBox="0 0 24 24" fill='currentColor'><path d="M12 4.125q2.375 0 4.958.39 2.582.39 5.673 1.237L20.59 16.69l-1.46-.279 1.777-9.578q-2.687-.63-4.832-.918A30.5 30.5 0 0 0 12 5.625q-1.93 0-4.076.29-2.144.288-4.832.918L4.87 16.41l-1.46.28L1.37 5.751q3.09-.846 5.673-1.236T12 4.125m4.756 15.915-1.256-.782.239-.42q.13-.244.195-.496.066-.252.066-.527 0-.389-.125-.751a1.9 1.9 0 0 0-.384-.652 4 4 0 0 1-.722-1.155 3.46 3.46 0 0 1-.13-2.273q.134-.453.386-.87l.239-.385 1.27.783-.263.41a2 2 0 0 0-.207.49 2.08 2.08 0 0 0 .47 1.926q.468.496.717 1.131.249.634.249 1.317 0 .498-.129.956t-.361.885zm-4.046 0-1.256-.782.238-.42q.13-.244.197-.496.065-.252.065-.527 0-.389-.125-.751a1.9 1.9 0 0 0-.385-.652 4 4 0 0 1-.721-1.155 3.47 3.47 0 0 1-.13-2.273 3.7 3.7 0 0 1 .386-.87l.238-.385 1.271.783-.263.41a1.9 1.9 0 0 0-.275 1.012q0 .39.14.753.138.364.399.652.467.495.716 1.13t.249 1.317q0 .498-.129.956t-.361.885zm-4.031 0-1.271-.782.253-.42q.131-.244.197-.5a2.2 2.2 0 0 0 .065-.532q0-.39-.133-.747a2 2 0 0 0-.392-.648 3.7 3.7 0 0 1-.726-1.145 3.5 3.5 0 0 1-.258-1.332q0-.487.126-.945.125-.458.393-.876l.253-.384 1.272.783-.264.41a1.9 1.9 0 0 0-.29 1.013q0 .388.14.752.138.364.398.652.467.495.717 1.13t.249 1.317q0 .498-.13.956-.128.458-.36.885z"/></svg>