<svg xmlns="http://www.w3.org/2000/svg" xmlns:xlink="http://www.w3.org/1999/xlink">
  <symbol id="bug_report" xmlns="http://www.w3.org/2000/svg" width="24" height="24" viewBox="0 0 24 24" fill='currentColor'><path d="M12 19q1.65 0 2.825-1.175T16 15v-4q0-1.65-1.175-2.825T12 7 9.175 8.175 8 11v4q0 1.65 1.175 2.825T12 19m-1.846-3.25h3.692v-1.5h-3.692zm0-4h3.692v-1.5h-3.692zM12 20.5a5.4 5.4 0 0 1-2.753-.733 5.43 5.43 0 0 1-2.005-2.017H4.5v-1.5h2.177a5.6 5.6 0 0 1-.164-1.245q-.013-.63-.013-1.255h-2v-1.5h2q0-.634.003-1.264t.174-1.236H4.5v-1.5h2.742q.36-.614.85-1.118t1.124-.851L7.519 4.554l1.035-1.035 2.13 2.131a4.43 4.43 0 0 1 2.6 0l2.181-2.13L16.5 4.553 14.773 6.28q.633.346 1.129.843.496.498.856 1.126H19.5v1.5h-2.177q.171.606.174 1.236t.003 1.264h2v1.5h-2q0 .625-.012 1.255-.014.63-.165 1.245H19.5v1.5h-2.742a5.43 5.43 0 0 1-2.005 2.017A5.4 5.4 0 0 1 12 20.5"/></symbol>
	<symbol id="chat" xmlns="http://www.w3.org/2000/svg" width="24" height="24" viewBox="0 0 24 24" fill='currentColor'><path d="M2.5 21.039V2.5h19v15H6.039zM5.4 16H20V4H4v13.385zm.85-2.25h7.5v-1.5h-7.5zm0-3h11.5v-1.5H6.25zm0-3h11.5v-1.5H6.25z"/></symbol>
	<symbol id="check_circle" xmlns="http://www.w3.org/2000/svg" width="24" height="24" viewBox="0 0 24 24" fill='currentColor'><path d="m10.58 16.254 6.724-6.723-1.054-1.054-5.67 5.67-2.85-2.85-1.053 1.053zm1.422 5.246a9.3 9.3 0 0 1-3.706-.748 9.6 9.6 0 0 1-3.016-2.03 9.6 9.6 0 0 1-2.032-3.016 9.25 9.25 0 0 1-.748-3.704q0-1.972.748-3.706a9.6 9.6 0 0 1 2.03-3.016 9.6 9.6 0 0 1 3.016-2.032 9.25 9.25 0 0 1 3.704-.748q1.972 0 3.706.748a9.6 9.6 0 0 1 3.017 2.03 9.6 9.6 0 0 1 2.03 3.016 9.25 9.25 0 0 1 .749 3.704q0 1.972-.748 3.706a9.6 9.6 0 0 1-2.03 3.017 9.6 9.6 0 0 1-3.016 2.03 9.25 9.25 0 0 1-3.704.749M12 20q3.35 0 5.675-2.325T20 12t-2.325-5.675T12 4 6.325 6.325 4 12t2.325 5.675T12 20"/></symbol>
	<symbol id="contact_emergency" xmlns="http://www.w3.org/2000/svg" width="24" height="24" viewBox="0 0 24 24" fill='currentColor'><path d="M.5 20.308V3.692h23v16.616zm14.842-1.5H22V5.192H2v13.616h.658a7.7 7.7 0 0 1 2.727-2.558A7.26 7.26 0 0 1 9 15.308a7.26 7.26 0 0 1 3.615.942 7.7 7.7 0 0 1 2.727 2.558M9 14.115q1.145 0 1.948-.801a2.65 2.65 0 0 0 .803-1.948q0-1.145-.802-1.948a2.65 2.65 0 0 0-1.947-.803q-1.145 0-1.948.802a2.65 2.65 0 0 0-.803 1.947q0 1.146.802 1.948A2.65 2.65 0 0 0 9 14.115m-4.45 4.693h8.9a6.1 6.1 0 0 0-2.019-1.475A5.8 5.8 0 0 0 9 16.808q-1.275 0-2.425.525a6.3 6.3 0 0 0-2.025 1.475M9 12.615q-.522 0-.886-.364a1.2 1.2 0 0 1-.364-.886q0-.52.364-.885T9 10.115t.886.365.364.885-.364.886a1.2 1.2 0 0 1-.886.364m8.404-.769h1.192v-1.815l1.571.907.596-1.03L19.194 9l1.57-.908-.596-1.03-1.57.907V6.154h-1.193v1.815l-1.571-.908-.597 1.031L16.809 9l-1.572.908.597 1.03 1.57-.907z"/></symbol>
	<symbol id="contact_mail" xmlns="http://www.w3.org/2000/svg" width="24" height="24" viewBox="0 0 24 24" fill='currentColor'><path d="M14.096 11.096h6.808V6.288h-6.808zM17.5 9.904l-2.48-1.731V7.23l2.48 1.73 2.48-1.73v.942zM.5 20.308V3.692h23v16.616zm14.842-1.5H22V5.192H2v13.616h.658a7.7 7.7 0 0 1 2.727-2.558A7.26 7.26 0 0 1 9 15.308a7.26 7.26 0 0 1 3.615.942 7.7 7.7 0 0 1 2.727 2.558M9 14.115q1.145 0 1.948-.801a2.65 2.65 0 0 0 .803-1.948q0-1.145-.802-1.948a2.65 2.65 0 0 0-1.947-.803q-1.145 0-1.948.802a2.65 2.65 0 0 0-.803 1.947q0 1.146.802 1.948A2.65 2.65 0 0 0 9 14.115m-4.45 4.693h8.9a6.1 6.1 0 0 0-2.019-1.475A5.8 5.8 0 0 0 9 16.808q-1.275 0-2.425.525a6.3 6.3 0 0 0-2.025 1.475M9 12.615q-.522 0-.886-.364a1.2 1.2 0 0 1-.364-.886q0-.52.364-.885T9 10.115t.886.365.364.885-.364.886a1.2 1.2 0 0 1-.886.364"/></symbol>
	<symbol id="dark_mode" xmlns="http://www.w3.org/2000/svg" width="24" height="24" viewBox="0 0 24 24" fill='currentColor'><path d="M12.029 20.5q-3.541 0-6.021-2.48-2.48-2.478-2.479-6.02 0-3.394 2.303-5.822t5.639-2.63a6 6 0 0 1 .83.062 5.3 5.3 0 0 0-1.218 1.729 5.2 5.2 0 0 0-.454 2.161q0 2.458 1.72 4.18 1.721 1.72 4.18 1.72 1.163 0 2.169-.454a5.2 5.2 0 0 0 1.712-1.219 5 5 0 0 1 .061.83q-.192 3.337-2.62 5.64T12.029 20.5m0-1.5q2.2 0 3.95-1.212a7 7 0 0 0 2.55-3.163q-.5.125-1 .2t-1 .075q-3.075 0-5.238-2.162Q9.13 10.575 9.13 7.5q0-.5.075-1t.2-1A7 7 0 0 0 6.24 8.05Q5.03 9.8 5.03 12q0 2.9 2.05 4.95T12.03 19"/></symbol>
	<symbol id="density_large" xmlns="http://www.w3.org/2000/svg" width="24" height="24" viewBox="0 0 24 24" fill='currentColor'><path d="M3.5 20.5V19h17v1.5zM3.5 5V3.5h17V5z"/></symbol>
	<symbol id="density_medium" xmlns="http://www.w3.org/2000/svg" width="24" height="24" viewBox="0 0 24 24" fill='currentColor'><path d="M3.5 20.5V19h17v1.5zm0-7.75v-1.5h17v1.5zM3.5 5V3.5h17V5z"/></symbol>
	<symbol id="density_small" xmlns="http://www.w3.org/2000/svg" width="24" height="24" viewBox="0 0 24 24" fill='currentColor'><path d="M3.5 21.5V20h17v1.5zm0-5.836v-1.5h17v1.5zm0-5.828v-1.5h17v1.5zM3.5 4V2.5h17V4z"/></symbol>
	<symbol id="error" xmlns="http://www.w3.org/2000/svg" width="24" height="24" viewBox="0 0 24 24" fill='currentColor'><path d="M12 16.73q.343 0 .575-.232a.78.78 0 0 0 .233-.575.78.78 0 0 0-.232-.575.78.78 0 0 0-.576-.232.78.78 0 0 0-.575.232.78.78 0 0 0-.233.575q0 .343.232.575a.78.78 0 0 0 .576.233m-.75-3.653h1.5v-6h-1.5zm.752 8.423a9.3 9.3 0 0 1-3.706-.748 9.6 9.6 0 0 1-3.016-2.03 9.6 9.6 0 0 1-2.032-3.016 9.25 9.25 0 0 1-.748-3.704q0-1.972.748-3.706a9.6 9.6 0 0 1 2.03-3.016 9.6 9.6 0 0 1 3.016-2.032 9.25 9.25 0 0 1 3.704-.748q1.972 0 3.706.748a9.6 9.6 0 0 1 3.017 2.03 9.6 9.6 0 0 1 2.03 3.016 9.25 9.25 0 0 1 .749 3.704q0 1.972-.748 3.706a9.6 9.6 0 0 1-2.03 3.017 9.6 9.6 0 0 1-3.016 2.03 9.25 9.25 0 0 1-3.704.749M12 20q3.35 0 5.675-2.325T20 12t-2.325-5.675T12 4 6.325 6.325 4 12t2.325 5.675T12 20"/></symbol>
	<symbol id="grid_view" xmlns="http://www.w3.org/2000/svg" width="24" height="24" viewBox="0 0 24 24" fill='currentColor'><path d="M3.5 11V3.5H11V11zm0 9.5V13H11v7.5zM13 11V3.5h7.5V11zm0 9.5V13h7.5v7.5zm-8-11h4.5V5H5zm9.5 0H19V5h-4.5zm0 9.5H19v-4.5h-4.5zM5 19h4.5v-4.5H5z"/></symbol>
	<symbol id="home" xmlns="http://www.w3.org/2000/svg" width="24" height="24" viewBox="0 0 24 24" fill='currentColor'><path d="M6 19h3.346v-5.942h5.308V19H18v-9l-6-4.519-6 4.52zm-1.5 1.5V9.25L12 3.606l7.5 5.644V20.5h-6.346v-5.942h-2.308V20.5z"/></symbol>
	<symbol id="house" xmlns="http://www.w3.org/2000/svg" width="24" height="24" viewBox="0 0 24 24" fill='currentColor'><path d="M5.346 19.5v-9.102l-2.944 2.227-.902-1.196L12 3.5l4.173 3.137V4.5h2.442v3.994l3.895 2.935-.902 1.196-2.945-2.227V19.5h-5.547v-5.616h-2.232V19.5zm1.5-1.5h2.539v-5.615h5.23V18h2.548V9.267L12 5.39 6.846 9.267zm3.25-7.985h3.808q0-.751-.571-1.235A2 2 0 0 0 12 8.296q-.762 0-1.333.483-.57.483-.57 1.236"/></symbol>
	<symbol id="info" xmlns="http://www.w3.org/2000/svg" width="24" height="24" viewBox="0 0 24 24" fill='currentColor'><path d="M11.25 16.75h1.5V11h-1.5zM12 9.289q.343 0 .575-.233a.78.78 0 0 0 .233-.575.78.78 0 0 0-.232-.576.78.78 0 0 0-.576-.232.78.78 0 0 0-.575.232.78.78 0 0 0-.233.576q0 .343.232.575A.78.78 0 0 0 12 9.29m.002 12.211a9.3 9.3 0 0 1-3.706-.748 9.6 9.6 0 0 1-3.016-2.03 9.6 9.6 0 0 1-2.032-3.016 9.25 9.25 0 0 1-.748-3.704q0-1.972.748-3.706a9.6 9.6 0 0 1 2.03-3.016 9.6 9.6 0 0 1 3.016-2.032 9.25 9.25 0 0 1 3.704-.748q1.972 0 3.706.748a9.6 9.6 0 0 1 3.017 2.03 9.6 9.6 0 0 1 2.03 3.016 9.25 9.25 0 0 1 .749 3.704q0 1.972-.748 3.706a9.6 9.6 0 0 1-2.03 3.017 9.6 9.6 0 0 1-3.016 2.03 9.25 9.25 0 0 1-3.704.749M12 20q3.35 0 5.675-2.325T20 12t-2.325-5.675T12 4 6.325 6.325 4 12t2.325 5.675T12 20"/></symbol>
	<symbol id="light_mode" xmlns="http://www.w3.org/2000/svg" width="24" height="24" viewBox="0 0 24 24" fill='currentColor'><path d="M12 15q1.25 0 2.125-.875A2.9 2.9 0 0 0 15 12q0-1.25-.875-2.125A2.9 2.9 0 0 0 12 9q-1.25 0-2.125.875A2.9 2.9 0 0 0 9 12q0 1.25.875 2.125A2.9 2.9 0 0 0 12 15m0 1.5q-1.873 0-3.187-1.313Q7.5 13.873 7.5 12t1.313-3.187Q10.128 7.5 12 7.5t3.187 1.313Q16.5 10.128 16.5 12t-1.313 3.187Q13.873 16.5 12 16.5m-7-3.75H1.25v-1.5H5zm17.75 0H19v-1.5h3.75zM11.25 5V1.25h1.5V5zm0 17.75V19h1.5v3.75zM6.573 7.577 4.231 5.316l1.06-1.11 2.255 2.317zm12.136 12.217-2.27-2.332.988-1.039 2.342 2.262zM16.423 6.573l2.262-2.342 1.11 1.06-2.318 2.255zM4.206 18.709l2.332-2.27 1.02.988-2.252 2.352z"/></symbol>
	<symbol id="lunch_dining" xmlns="http://www.w3.org/2000/svg" width="24" height="24" viewBox="0 0 24 24" fill='currentColor'><path d="M2.5 20.5v-4.692h19V20.5zM4 17.308V19h16v-1.692zm8-4.25q-.89 0-1.391.5-.502.5-1.786.5t-1.77-.5-1.376-.5-1.391.5-1.786.5v-1.5q.891 0 1.392-.5t1.785-.5 1.77.5 1.376.5 1.391-.5q.502-.5 1.786-.5t1.786.5q.5.5 1.391.5.89 0 1.366-.5t1.76-.5q1.286 0 1.827.5t1.37.5v1.5q-1.285 0-1.745-.5t-1.351-.5-1.416.5q-.527.5-1.811.5-1.285 0-1.786-.5-.5-.5-1.391-.5m-9.5-3.25V9q0-2.615 2.4-4.058T12 3.5t7.1 1.442Q21.5 6.385 21.5 9v.808zM12 5q-3.504 0-5.529.866-2.025.867-2.379 2.442h15.816q-.355-1.575-2.38-2.442Q15.505 5 12 5"/></symbol>
	<symbol id="preview" xmlns="http://www.w3.org/2000/svg" width="24" height="24" viewBox="0 0 24 24" fill='currentColor'><path d="M3.5 20.5v-17h17v17zM5 19h14V7H5zm7-2.5q-1.839 0-3.297-.973A5.9 5.9 0 0 1 6.548 13a5.9 5.9 0 0 1 2.155-2.527Q10.161 9.5 12 9.5t3.297.973A5.9 5.9 0 0 1 17.452 13a5.9 5.9 0 0 1-2.155 2.527Q13.839 16.5 12 16.5m0-1.192q1.295 0 2.382-.61A4.85 4.85 0 0 0 16.148 13a4.85 4.85 0 0 0-1.766-1.698 4.8 4.8 0 0 0-2.382-.61q-1.294 0-2.382.61A4.85 4.85 0 0 0 7.852 13a4.85 4.85 0 0 0 1.766 1.698q1.088.61 2.382.61m.002-1q.546 0 .926-.383.38-.381.38-.927t-.383-.926a1.27 1.27 0 0 0-.927-.38q-.546 0-.926.383-.38.381-.38.927t.383.926q.381.38.927.38"/></symbol>
	<symbol id="settings" xmlns="http://www.w3.org/2000/svg" width="24" height="24" viewBox="0 0 24 24" fill='currentColor'><path d="m9.692 21.5-.38-3.046a5.3 5.3 0 0 1-1.579-.896L4.912 18.75l-2.308-4 2.44-1.844a5 5 0 0 1-.049-.448 7 7 0 0 1 0-.882q.014-.22.05-.482L2.603 9.25l2.308-3.98 2.811 1.182a6.4 6.4 0 0 1 .772-.524 5 5 0 0 1 .807-.382l.39-3.046h4.616l.38 3.056q.45.163.815.381t.735.515l2.85-1.183 2.308 3.981-2.479 1.873q.054.243.059.453t.005.424q0 .204-.01.415-.01.21-.069.481l2.46 1.854-2.308 4-2.815-1.202q-.372.296-.758.524a4.6 4.6 0 0 1-.793.372l-.38 3.056zM11 20h1.966l.359-2.679q.765-.2 1.399-.568.634-.369 1.222-.947l2.485 1.044.985-1.7-2.17-1.635q.125-.387.17-.761a6.3 6.3 0 0 0 0-1.508 4 4 0 0 0-.17-.742l2.189-1.654-.985-1.7-2.513 1.06a5.3 5.3 0 0 0-1.203-.949 5.2 5.2 0 0 0-1.418-.582L13 4h-1.985l-.33 2.67a5.2 5.2 0 0 0-1.414.553q-.648.374-1.237.962L5.55 7.15l-.984 1.7 2.159 1.61a3.7 3.7 0 0 0-.175.74 6.3 6.3 0 0 0 0 1.575q.05.375.165.74l-2.15 1.635.985 1.7 2.475-1.05q.57.585 1.217.958t1.433.573zm1.011-5q1.249 0 2.125-.876A2.9 2.9 0 0 0 15.012 12q0-1.248-.876-2.124A2.9 2.9 0 0 0 12.012 9q-1.264 0-2.132.876A2.9 2.9 0 0 0 9.01 12q0 1.248.869 2.124T12.01 15"/></symbol>
	<symbol id="space_dashboard" xmlns="http://www.w3.org/2000/svg" width="24" height="24" viewBox="0 0 24 24" fill='currentColor'><path d="M3.5 20.5v-17h17v17zM5 19h6.25V5H5zm7.75 0H19v-7h-6.25zm0-8.5H19V5h-6.25z"/></symbol>
	<symbol id="wallpaper" xmlns="http://www.w3.org/2000/svg" width="24" height="24" viewBox="0 0 24 24" fill='currentColor'><path d="M3.5 20.5V13H5v6h6v1.5zm9.5 0V19h6v-6h1.5v7.5zm-6.25-3.75 2.48-3.289 2 2.558 2.809-3.653 3.288 4.384zM3.5 11V3.5H11V5H5v6zM19 11V5h-6V3.5h7.5V11zm-3.594-1.096q-.566 0-.938-.37a1.26 1.26 0 0 1-.372-.936q0-.566.37-.938t.936-.372.938.37q.371.37.372.936 0 .566-.37.938a1.26 1.26 0 0 1-.936.372"/></symbol>
	<symbol id="warning" xmlns="http://www.w3.org/2000/svg" width="24" height="24" viewBox="0 0 24 24" fill='currentColor'><path d="M1.865 20.5 12 3l10.135 17.5zM4.45 19h15.1L12 6zM12 17.808q.343 0 .575-.232a.78.78 0 0 0 .233-.576.78.78 0 0 0-.232-.576.78.78 0 0 0-.576-.232.78.78 0 0 0-.575.232.78.78 0 0 0-.233.576q0 .343.232.576a.78.78 0 0 0 .576.232m-.75-2.616h1.5v-5h-1.5z"/></symbol>
	<symbol id="weekend" xmlns="http://www.w3.org/2000/svg" width="24" height="24" viewBox="0 0 24 24" fill='currentColor'><path d="M1.5 19.5V8.96H4V4.48h16v4.48h2.5V19.5zm5-5.481h11V8.961h1v-2.98h-13v2.98h1zM3 17.999h18v-7.538h-2v5.058H5v-5.058H3z"/></symbol>
</svg>