<svg xmlns="http://www.w3.org/2000/svg" xmlns:xlink="http://www.w3.org/1999/xlink">
  <symbol id="bug_report" xmlns="http://www.w3.org/2000/svg" width="24" height="24" viewBox="0 0 24 24" fill='currentColor'><path d="M20 8h-2.81a6 6 0 0 0-1.82-1.96L17 4.41 15.59 3l-2.17 2.17C12.96 5.06 12.49 5 12 5s-.96.06-1.41.17L8.41 3 7 4.41l1.62 1.63C7.88 6.55 7.26 7.22 6.81 8H4v2h2.09c-.05.33-.09.66-.09 1v1H4v2h2v1c0 .34.04.67.09 1H4v2h2.81c1.04 1.79 2.97 3 5.19 3s4.15-1.21 5.19-3H20v-2h-2.09c.05-.33.09-.66.09-1v-1h2v-2h-2v-1c0-.34-.04-.67-.09-1H20zm-6 8h-4v-2h4zm0-4h-4v-2h4z"/></symbol>
	<symbol id="chat" xmlns="http://www.w3.org/2000/svg" width="24" height="24" viewBox="0 0 24 24" fill='currentColor'><path d="M20 2H4c-1.1 0-1.99.9-1.99 2L2 22l4-4h14c1.1 0 2-.9 2-2V4c0-1.1-.9-2-2-2M6 9h12v2H6zm8 5H6v-2h8zm4-6H6V6h12z"/></symbol>
	<symbol id="check_circle" xmlns="http://www.w3.org/2000/svg" width="24" height="24" viewBox="0 0 24 24" fill='currentColor'><path d="M12 2C6.48 2 2 6.48 2 12s4.48 10 10 10 10-4.48 10-10S17.52 2 12 2m-2 15-5-5 1.41-1.41L10 14.17l7.59-7.59L19 8z"/></symbol>
	<symbol id="contact_emergency" xmlns="http://www.w3.org/2000/svg" width="24" height="24" viewBox="0 0 24 24" fill='currentColor'><path d="M22 3H2C.9 3 0 3.9 0 5v14c0 1.1.9 2 2 2h20c1.1 0 1.99-.9 1.99-2L24 5c0-1.1-.9-2-2-2M9 8c1.65 0 3 1.35 3 3s-1.35 3-3 3-3-1.35-3-3 1.35-3 3-3M2.08 19A7.98 7.98 0 0 1 9 15a7.98 7.98 0 0 1 6.92 4zm18.89-9.15-.75 1.3-1.47-.85V12h-1.5v-1.7l-1.47.85-.75-1.3L16.5 9l-1.47-.85.75-1.3 1.47.85V6h1.5v1.7l1.47-.85.75 1.3L19.5 9z"/></symbol>
	<symbol id="contact_mail" xmlns="http://www.w3.org/2000/svg" width="24" height="24" viewBox="0 0 24 24" fill='currentColor'><path d="M21 8V7l-3 2-3-2v1l3 2zm1-5H2C.9 3 0 3.9 0 5v14c0 1.1.9 2 2 2h20c1.1 0 1.99-.9 1.99-2L24 5c0-1.1-.9-2-2-2M8 6c1.66 0 3 1.34 3 3s-1.34 3-3 3-3-1.34-3-3 1.34-3 3-3m6 12H2v-1c0-2 4-3.1 6-3.1s6 1.1 6 3.1zm8-6h-8V6h8z"/></symbol>
	<symbol id="density_large" xmlns="http://www.w3.org/2000/svg" width="24" height="24" viewBox="0 0 24 24" fill='currentColor'><path d="M21 3H3v2h18zm0 16H3v2h18z"/></symbol>
	<symbol id="density_medium" xmlns="http://www.w3.org/2000/svg" width="24" height="24" viewBox="0 0 24 24" fill='currentColor'><path d="M21 3H3v2h18zm0 16H3v2h18zm0-8H3v2h18z"/></symbol>
	<symbol id="density_small" xmlns="http://www.w3.org/2000/svg" width="24" height="24" viewBox="0 0 24 24" fill='currentColor'><path d="M21 2H3v2h18zm0 18H3v2h18zm0-6H3v2h18zm0-6H3v2h18z"/></symbol>
	<symbol id="error" xmlns="http://www.w3.org/2000/svg" width="24" height="24" viewBox="0 0 24 24" fill='currentColor'><path d="M12 2C6.48 2 2 6.48 2 12s4.48 10 10 10 10-4.48 10-10S17.52 2 12 2m1 15h-2v-2h2zm0-4h-2V7h2z"/></symbol>
	<symbol id="grid_view" xmlns="http://www.w3.org/2000/svg" width="24" height="24" viewBox="0 0 24 24" fill='currentColor'><path fill-rule="evenodd" d="M3 3v8h8V3zm6 6H5V5h4zm-6 4v8h8v-8zm6 6H5v-4h4zm4-16v8h8V3zm6 6h-4V5h4zm-6 4v8h8v-8zm6 6h-4v-4h4z" clip-rule="evenodd"/></symbol>
	<symbol id="home" xmlns="http://www.w3.org/2000/svg" width="24" height="24" viewBox="0 0 24 24" fill='currentColor'><path d="M10 20.5v-6h4v6h5v-8h3l-10-9-10 9h3v8z"/></symbol>
	<symbol id="house" xmlns="http://www.w3.org/2000/svg" width="24" height="24" viewBox="0 0 24 24" fill='currentColor'><path d="M19 9.8V4.5h-3v2.6l-4-3.6-10 9h3v8h5v-6h4v6h5v-8h3zm-9 .7c0-1.1.9-2 2-2s2 .9 2 2z"/></symbol>
	<symbol id="info" xmlns="http://www.w3.org/2000/svg" width="24" height="24" viewBox="0 0 24 24" fill='currentColor'><path d="M12 2C6.48 2 2 6.48 2 12s4.48 10 10 10 10-4.48 10-10S17.52 2 12 2m1 15h-2v-6h2zm0-8h-2V7h2z"/></symbol>
	<symbol id="lunch_dining" xmlns="http://www.w3.org/2000/svg" width="24" height="24" viewBox="0 0 24 24" fill='currentColor'><path fill-rule="evenodd" d="M21.992 10c.32-3.28-4.28-6-9.99-6s-10.31 2.72-9.99 6zm-16.65 3.5c.55 0 .78.14 1.15.36.45.27 1.07.64 2.18.64s1.73-.37 2.18-.64c.37-.23.59-.36 1.15-.36.55 0 .78.14 1.15.36.45.27 1.07.64 2.18.64s1.73-.37 2.18-.64c.37-.23.59-.36 1.15-.36.55 0 .78.14 1.15.36.45.27 1.07.63 2.17.64v-1.98s-.79-.16-1.16-.38c-.45-.27-1.07-.64-2.18-.64s-1.73.37-2.18.64c-.37.23-.6.36-1.15.36s-.78-.14-1.15-.36c-.45-.27-1.07-.64-2.18-.64s-1.73.37-2.18.64c-.37.23-.59.36-1.15.36-.55 0-.78-.14-1.15-.36-.45-.27-1.07-.64-2.18-.64s-1.73.37-2.18.64c-.37.23-.59.36-1.15.36v2c1.11 0 1.73-.37 2.21-.64.37-.23.59-.36 1.14-.36M1.992 16v2c0 1.1.9 2 2 2h16c1.1 0 2-.9 2-2v-2z" clip-rule="evenodd"/></symbol>
	<symbol id="preview" xmlns="http://www.w3.org/2000/svg" width="24" height="24" viewBox="0 0 24 24" fill='currentColor'><path d="M19 3H5a2 2 0 0 0-2 2v14a2 2 0 0 0 2 2h14c1.1 0 2-.9 2-2V5a2 2 0 0 0-2-2m0 16H5V7h14zm-5.5-6c0 .83-.67 1.5-1.5 1.5s-1.5-.67-1.5-1.5.67-1.5 1.5-1.5 1.5.67 1.5 1.5M12 9c-2.73 0-5.06 1.66-6 4 .94 2.34 3.27 4 6 4s5.06-1.66 6-4c-.94-2.34-3.27-4-6-4m0 6.5a2.5 2.5 0 0 1 0-5 2.5 2.5 0 0 1 0 5"/></symbol>
	<symbol id="settings" xmlns="http://www.w3.org/2000/svg" width="24" height="24" viewBox="0 0 24 24" fill='currentColor'><path d="M19.14 12.94c.04-.3.06-.61.06-.94 0-.32-.02-.64-.07-.94l2.03-1.58a.49.49 0 0 0 .12-.61l-1.92-3.32a.49.49 0 0 0-.59-.22l-2.39.96c-.5-.38-1.03-.7-1.62-.94l-.36-2.54a.484.484 0 0 0-.48-.41h-3.84c-.24 0-.43.17-.47.41l-.36 2.54c-.59.24-1.13.57-1.62.94l-2.39-.96c-.22-.08-.47 0-.59.22L2.74 8.87c-.12.21-.08.47.12.61l2.03 1.58c-.05.3-.09.63-.09.94s.02.64.07.94l-2.03 1.58a.49.49 0 0 0-.12.61l1.92 3.32c.12.22.37.29.59.22l2.39-.96c.5.38 1.03.7 1.62.94l.36 2.54c.05.24.24.41.48.41h3.84c.24 0 .44-.17.47-.41l.36-2.54c.59-.24 1.13-.56 1.62-.94l2.39.96c.22.08.47 0 .59-.22l1.92-3.32c.12-.22.07-.47-.12-.61zM12 15.6A3.61 3.61 0 0 1 8.4 12c0-1.98 1.62-3.6 3.6-3.6s3.6 1.62 3.6 3.6-1.62 3.6-3.6 3.6"/></symbol>
	<symbol id="space_dashboard" xmlns="http://www.w3.org/2000/svg" width="24" height="24" viewBox="0 0 24 24" fill='currentColor'><path d="M11 21H5c-1.1 0-2-.9-2-2V5c0-1.1.9-2 2-2h6zm2 0h6c1.1 0 2-.9 2-2v-7h-8zm8-11V5c0-1.1-.9-2-2-2h-6v7z"/></symbol>
	<symbol id="wallpaper" xmlns="http://www.w3.org/2000/svg" width="24" height="24" viewBox="0 0 24 24" fill='currentColor'><path d="M4 4h7V2H4c-1.1 0-2 .9-2 2v7h2zm6 9-4 5h12l-3-4-2.03 2.71zm7-4.5c0-.83-.67-1.5-1.5-1.5S14 7.67 14 8.5s.67 1.5 1.5 1.5S17 9.33 17 8.5M20 2h-7v2h7v7h2V4c0-1.1-.9-2-2-2m0 18h-7v2h7c1.1 0 2-.9 2-2v-7h-2zM4 13H2v7c0 1.1.9 2 2 2h7v-2H4z"/></symbol>
	<symbol id="warning" xmlns="http://www.w3.org/2000/svg" width="24" height="24" viewBox="0 0 24 24" fill='currentColor'><path d="M1 21.5h22l-11-19zm12-3h-2v-2h2zm0-4h-2v-4h2z"/></symbol>
	<symbol id="weekend" xmlns="http://www.w3.org/2000/svg" width="24" height="24" viewBox="0 0 24 24" fill='currentColor'><path d="M21 10c-1.1 0-2 .9-2 2v3H5v-3a2 2 0 1 0-4 0v5c0 1.1.9 2 2 2h18c1.1 0 2-.9 2-2v-5c0-1.1-.9-2-2-2m-3-5H6c-1.1 0-2 .9-2 2v2.15c1.16.41 2 1.52 2 2.81V14h12v-2.03c0-1.3.84-2.4 2-2.81V7c0-1.1-.9-2-2-2"/></symbol>
</svg>