<svg xmlns="http://www.w3.org/2000/svg" xmlns:xlink="http://www.w3.org/1999/xlink">
  <symbol id="contact_emergency" width="24" height="24" viewBox="0 0 24 24" xmlns="http://www.w3.org/2000/svg" fill='currentColor'><path d="M22 3H2C0.9 3 0 3.9 0 5V19C0 20.1 0.9 21 2 21H22C23.1 21 23.99 20.1 23.99 19L24 5C24 3.9 23.1 3 22 3ZM9 8C10.65 8 12 9.35 12 11C12 12.65 10.65 14 9 14C7.35 14 6 12.65 6 11C6 9.35 7.35 8 9 8ZM2.08 19C3.46 16.61 6.04 15 9 15C11.96 15 14.54 16.61 15.92 19H2.08ZM20.97 9.85L20.22 11.15L18.75 10.3V12H17.25V10.3L15.78 11.15L15.03 9.85L16.5 9L15.03 8.15L15.78 6.85L17.25 7.7V6H18.75V7.7L20.22 6.85L20.97 8.15L19.5 9L20.97 9.85Z"/></symbol>
	<symbol id="contact_mail" width="24" height="24" viewBox="0 0 24 24" xmlns="http://www.w3.org/2000/svg" fill='currentColor'><path d="M21 8V7L18 9L15 7V8L18 10L21 8ZM22 3H2C0.9 3 0 3.9 0 5V19C0 20.1 0.9 21 2 21H22C23.1 21 23.99 20.1 23.99 19L24 5C24 3.9 23.1 3 22 3ZM8 6C9.66 6 11 7.34 11 9C11 10.66 9.66 12 8 12C6.34 12 5 10.66 5 9C5 7.34 6.34 6 8 6ZM14 18H2V17C2 15 6 13.9 8 13.9C10 13.9 14 15 14 17V18ZM22 12H14V6H22V12Z"/></symbol>
	<symbol id="density_large" width="24" height="24" viewBox="0 0 24 24" xmlns="http://www.w3.org/2000/svg" fill='currentColor'><path d="M21 3H3V5H21V3Z"/><path d="M21 19H3V21H21V19Z"/></symbol>
	<symbol id="density_medium" width="24" height="24" viewBox="0 0 24 24" xmlns="http://www.w3.org/2000/svg" fill='currentColor'><path d="M21 3H3V5H21V3Z"/><path d="M21 19H3V21H21V19Z"/><path d="M21 11H3V13H21V11Z"/></symbol>
	<symbol id="density_small" width="24" height="24" viewBox="0 0 24 24" xmlns="http://www.w3.org/2000/svg" fill='currentColor'><path d="M21 2H3V4H21V2Z"/><path d="M21 20H3V22H21V20Z"/><path d="M21 14H3V16H21V14Z"/><path d="M21 8H3V10H21V8Z"/></symbol>
	<symbol id="home" width="24" height="24" viewBox="0 0 24 24" xmlns="http://www.w3.org/2000/svg" fill='currentColor'><path d="M10 20.5V14.5H14V20.5H19V12.5H22L12 3.5L2 12.5H5V20.5H10Z"/></symbol>
	<symbol id="weekend" width="24" height="24" viewBox="0 0 24 24" xmlns="http://www.w3.org/2000/svg" fill='currentColor'><path d="M21 10C19.9 10 19 10.9 19 12V15H5V12C5 10.9 4.11 10 3 10C1.89 10 1 10.9 1 12V17C1 18.1 1.9 19 3 19H21C22.1 19 23 18.1 23 17V12C23 10.9 22.1 10 21 10ZM18 5H6C4.9 5 4 5.9 4 7V9.15C5.16 9.56 6 10.67 6 11.96V14H18V11.97C18 10.67 18.84 9.57 20 9.16V7C20 5.9 19.1 5 18 5Z"/></symbol>
</svg>
