<svg xmlns="http://www.w3.org/2000/svg" xmlns:xlink="http://www.w3.org/1999/xlink">
  <symbol id="chat" width="24" height="24" viewBox="0 0 24 24" xmlns="http://www.w3.org/2000/svg" fill='currentColor'><path d="M20 2H4C2.9 2 2.01 2.9 2.01 4L2 22L6 18H20C21.1 18 22 17.1 22 16V4C22 2.9 21.1 2 20 2ZM6 9H18V11H6V9ZM14 14H6V12H14V14ZM18 8H6V6H18V8Z"/></symbol>
	<symbol id="check_circle" width="24" height="24" viewBox="0 0 24 24" xmlns="http://www.w3.org/2000/svg" fill='currentColor'><path d="M12 2C6.48 2 2 6.48 2 12C2 17.52 6.48 22 12 22C17.52 22 22 17.52 22 12C22 6.48 17.52 2 12 2ZM10 17L5 12L6.41 10.59L10 14.17L17.59 6.58L19 8L10 17Z"/></symbol>
	<symbol id="contact_emergency" width="24" height="24" viewBox="0 0 24 24" xmlns="http://www.w3.org/2000/svg" fill='currentColor'><path d="M22 3H2C0.9 3 0 3.9 0 5V19C0 20.1 0.9 21 2 21H22C23.1 21 23.99 20.1 23.99 19L24 5C24 3.9 23.1 3 22 3ZM9 8C10.65 8 12 9.35 12 11C12 12.65 10.65 14 9 14C7.35 14 6 12.65 6 11C6 9.35 7.35 8 9 8ZM2.08 19C3.46 16.61 6.04 15 9 15C11.96 15 14.54 16.61 15.92 19H2.08ZM20.97 9.85L20.22 11.15L18.75 10.3V12H17.25V10.3L15.78 11.15L15.03 9.85L16.5 9L15.03 8.15L15.78 6.85L17.25 7.7V6H18.75V7.7L20.22 6.85L20.97 8.15L19.5 9L20.97 9.85Z"/></symbol>
	<symbol id="contact_mail" width="24" height="24" viewBox="0 0 24 24" xmlns="http://www.w3.org/2000/svg" fill='currentColor'><path d="M21 8V7L18 9L15 7V8L18 10L21 8ZM22 3H2C0.9 3 0 3.9 0 5V19C0 20.1 0.9 21 2 21H22C23.1 21 23.99 20.1 23.99 19L24 5C24 3.9 23.1 3 22 3ZM8 6C9.66 6 11 7.34 11 9C11 10.66 9.66 12 8 12C6.34 12 5 10.66 5 9C5 7.34 6.34 6 8 6ZM14 18H2V17C2 15 6 13.9 8 13.9C10 13.9 14 15 14 17V18ZM22 12H14V6H22V12Z"/></symbol>
	<symbol id="error" width="24" height="24" viewBox="0 0 24 24" xmlns="http://www.w3.org/2000/svg" fill='currentColor'><path d="M12 2C6.48 2 2 6.48 2 12C2 17.52 6.48 22 12 22C17.52 22 22 17.52 22 12C22 6.48 17.52 2 12 2ZM13 17H11V15H13V17ZM13 13H11V7H13V13Z"/></symbol>
	<symbol id="grid_view" width="24" height="24" viewBox="0 0 24 24" xmlns="http://www.w3.org/2000/svg" fill='currentColor'><path fill-rule="evenodd" clip-rule="evenodd" d="M3 3V11H11V3H3ZM9 9H5V5H9V9ZM3 13V21H11V13H3ZM9 19H5V15H9V19ZM13 3V11H21V3H13ZM19 9H15V5H19V9ZM13 13V21H21V13H13ZM19 19H15V15H19V19Z"/></symbol>
	<symbol id="home" width="24" height="24" viewBox="0 0 24 24" xmlns="http://www.w3.org/2000/svg" fill='currentColor'><path d="M10 20.5V14.5H14V20.5H19V12.5H22L12 3.5L2 12.5H5V20.5H10Z"/></symbol>
	<symbol id="house" width="24" height="24" viewBox="0 0 24 24" xmlns="http://www.w3.org/2000/svg" fill='currentColor'><path d="M19 9.8V4.5H16V7.1L12 3.5L2 12.5H5V20.5H10V14.5H14V20.5H19V12.5H22L19 9.8ZM10 10.5C10 9.4 10.9 8.5 12 8.5C13.1 8.5 14 9.4 14 10.5H10Z"/></symbol>
	<symbol id="info" width="24" height="24" viewBox="0 0 24 24" xmlns="http://www.w3.org/2000/svg" fill='currentColor'><path d="M12 2C6.48 2 2 6.48 2 12C2 17.52 6.48 22 12 22C17.52 22 22 17.52 22 12C22 6.48 17.52 2 12 2ZM13 17H11V11H13V17ZM13 9H11V7H13V9Z"/></symbol>
	<symbol id="settings" width="24" height="24" viewBox="0 0 24 24" xmlns="http://www.w3.org/2000/svg" fill='currentColor'><path d="M19.14 12.9399C19.18 12.6399 19.2 12.3299 19.2 11.9999C19.2 11.6799 19.18 11.3599 19.13 11.0599L21.16 9.4799C21.34 9.3399 21.39 9.0699 21.28 8.8699L19.36 5.5499C19.24 5.3299 18.99 5.2599 18.77 5.3299L16.38 6.2899C15.88 5.9099 15.35 5.5899 14.76 5.3499L14.4 2.8099C14.36 2.5699 14.16 2.3999 13.92 2.3999H10.08C9.83999 2.3999 9.64999 2.5699 9.60999 2.8099L9.24999 5.3499C8.65999 5.5899 8.11999 5.9199 7.62999 6.2899L5.23999 5.3299C5.01999 5.2499 4.76999 5.3299 4.64999 5.5499L2.73999 8.8699C2.61999 9.0799 2.65999 9.3399 2.85999 9.4799L4.88999 11.0599C4.83999 11.3599 4.79999 11.6899 4.79999 11.9999C4.79999 12.3099 4.81999 12.6399 4.86999 12.9399L2.83999 14.5199C2.65999 14.6599 2.60999 14.9299 2.71999 15.1299L4.63999 18.4499C4.75999 18.6699 5.00999 18.7399 5.22999 18.6699L7.61999 17.7099C8.11999 18.0899 8.64999 18.4099 9.23999 18.6499L9.59999 21.1899C9.64999 21.4299 9.83999 21.5999 10.08 21.5999H13.92C14.16 21.5999 14.36 21.4299 14.39 21.1899L14.75 18.6499C15.34 18.4099 15.88 18.0899 16.37 17.7099L18.76 18.6699C18.98 18.7499 19.23 18.6699 19.35 18.4499L21.27 15.1299C21.39 14.9099 21.34 14.6599 21.15 14.5199L19.14 12.9399ZM12 15.5999C10.02 15.5999 8.39999 13.9799 8.39999 11.9999C8.39999 10.0199 10.02 8.3999 12 8.3999C13.98 8.3999 15.6 10.0199 15.6 11.9999C15.6 13.9799 13.98 15.5999 12 15.5999Z"/></symbol>
	<symbol id="wallpaper" width="24" height="24" viewBox="0 0 24 24" xmlns="http://www.w3.org/2000/svg" fill='currentColor'><path d="M4 4H11V2H4C2.9 2 2 2.9 2 4V11H4V4ZM10 13L6 18H18L15 14L12.97 16.71L10 13ZM17 8.5C17 7.67 16.33 7 15.5 7C14.67 7 14 7.67 14 8.5C14 9.33 14.67 10 15.5 10C16.33 10 17 9.33 17 8.5ZM20 2H13V4H20V11H22V4C22 2.9 21.1 2 20 2ZM20 20H13V22H20C21.1 22 22 21.1 22 20V13H20V20ZM4 13H2V20C2 21.1 2.9 22 4 22H11V20H4V13Z"/></symbol>
	<symbol id="warning" width="24" height="24" viewBox="0 0 24 24" xmlns="http://www.w3.org/2000/svg" fill='currentColor'><path d="M1 21.5H23L12 2.5L1 21.5ZM13 18.5H11V16.5H13V18.5ZM13 14.5H11V10.5H13V14.5Z"/></symbol>
	<symbol id="weekend" width="24" height="24" viewBox="0 0 24 24" xmlns="http://www.w3.org/2000/svg" fill='currentColor'><path d="M21 10C19.9 10 19 10.9 19 12V15H5V12C5 10.9 4.11 10 3 10C1.89 10 1 10.9 1 12V17C1 18.1 1.9 19 3 19H21C22.1 19 23 18.1 23 17V12C23 10.9 22.1 10 21 10ZM18 5H6C4.9 5 4 5.9 4 7V9.15C5.16 9.56 6 10.67 6 11.96V14H18V11.97C18 10.67 18.84 9.57 20 9.16V7C20 5.9 19.1 5 18 5Z"/></symbol>
</svg>