<svg xmlns="http://www.w3.org/2000/svg" xmlns:xlink="http://www.w3.org/1999/xlink">
  <symbol id="bug_report" width="24" height="24" viewBox="0 0 24 24" xmlns="http://www.w3.org/2000/svg" fill='currentColor'><path d="M20 8H17.19C16.74 7.22 16.12 6.55 15.37 6.04L17 4.41L15.59 3L13.42 5.17C12.96 5.06 12.49 5 12 5C11.51 5 11.04 5.06 10.59 5.17L8.41 3L7 4.41L8.62 6.04C7.88 6.55 7.26 7.22 6.81 8H4V10H6.09C6.04 10.33 6 10.66 6 11V12H4V14H6V15C6 15.34 6.04 15.67 6.09 16H4V18H6.81C7.85 19.79 9.78 21 12 21C14.22 21 16.15 19.79 17.19 18H20V16H17.91C17.96 15.67 18 15.34 18 15V14H20V12H18V11C18 10.66 17.96 10.33 17.91 10H20V8ZM14 16H10V14H14V16ZM14 12H10V10H14V12Z"/></symbol>
	<symbol id="chat" width="24" height="24" viewBox="0 0 24 24" xmlns="http://www.w3.org/2000/svg" fill='currentColor'><path d="M20 2H4C2.9 2 2.01 2.9 2.01 4L2 22L6 18H20C21.1 18 22 17.1 22 16V4C22 2.9 21.1 2 20 2ZM6 9H18V11H6V9ZM14 14H6V12H14V14ZM18 8H6V6H18V8Z"/></symbol>
	<symbol id="check_circle" width="24" height="24" viewBox="0 0 24 24" xmlns="http://www.w3.org/2000/svg" fill='currentColor'><path d="M12 2C6.48 2 2 6.48 2 12C2 17.52 6.48 22 12 22C17.52 22 22 17.52 22 12C22 6.48 17.52 2 12 2ZM10 17L5 12L6.41 10.59L10 14.17L17.59 6.58L19 8L10 17Z"/></symbol>
	<symbol id="contact_emergency" width="24" height="24" viewBox="0 0 24 24" xmlns="http://www.w3.org/2000/svg" fill='currentColor'><path d="M22 3H2C0.9 3 0 3.9 0 5V19C0 20.1 0.9 21 2 21H22C23.1 21 23.99 20.1 23.99 19L24 5C24 3.9 23.1 3 22 3ZM9 8C10.65 8 12 9.35 12 11C12 12.65 10.65 14 9 14C7.35 14 6 12.65 6 11C6 9.35 7.35 8 9 8ZM2.08 19C3.46 16.61 6.04 15 9 15C11.96 15 14.54 16.61 15.92 19H2.08ZM20.97 9.85L20.22 11.15L18.75 10.3V12H17.25V10.3L15.78 11.15L15.03 9.85L16.5 9L15.03 8.15L15.78 6.85L17.25 7.7V6H18.75V7.7L20.22 6.85L20.97 8.15L19.5 9L20.97 9.85Z"/></symbol>
	<symbol id="contact_mail" width="24" height="24" viewBox="0 0 24 24" xmlns="http://www.w3.org/2000/svg" fill='currentColor'><path d="M21 8V7L18 9L15 7V8L18 10L21 8ZM22 3H2C0.9 3 0 3.9 0 5V19C0 20.1 0.9 21 2 21H22C23.1 21 23.99 20.1 23.99 19L24 5C24 3.9 23.1 3 22 3ZM8 6C9.66 6 11 7.34 11 9C11 10.66 9.66 12 8 12C6.34 12 5 10.66 5 9C5 7.34 6.34 6 8 6ZM14 18H2V17C2 15 6 13.9 8 13.9C10 13.9 14 15 14 17V18ZM22 12H14V6H22V12Z"/></symbol>
	<symbol id="density_large" width="24" height="24" viewBox="0 0 24 24" xmlns="http://www.w3.org/2000/svg" fill='currentColor'><path d="M21 3H3V5H21V3Z"/><path d="M21 19H3V21H21V19Z"/></symbol>
	<symbol id="density_medium" width="24" height="24" viewBox="0 0 24 24" xmlns="http://www.w3.org/2000/svg" fill='currentColor'><path d="M21 3H3V5H21V3Z"/><path d="M21 19H3V21H21V19Z"/><path d="M21 11H3V13H21V11Z"/></symbol>
	<symbol id="density_small" width="24" height="24" viewBox="0 0 24 24" xmlns="http://www.w3.org/2000/svg" fill='currentColor'><path d="M21 2H3V4H21V2Z"/><path d="M21 20H3V22H21V20Z"/><path d="M21 14H3V16H21V14Z"/><path d="M21 8H3V10H21V8Z"/></symbol>
	<symbol id="error" width="24" height="24" viewBox="0 0 24 24" xmlns="http://www.w3.org/2000/svg" fill='currentColor'><path d="M12 2C6.48 2 2 6.48 2 12C2 17.52 6.48 22 12 22C17.52 22 22 17.52 22 12C22 6.48 17.52 2 12 2ZM13 17H11V15H13V17ZM13 13H11V7H13V13Z"/></symbol>
	<symbol id="grid_view" width="24" height="24" viewBox="0 0 24 24" xmlns="http://www.w3.org/2000/svg" fill='currentColor'><path fill-rule="evenodd" clip-rule="evenodd" d="M3 3V11H11V3H3ZM9 9H5V5H9V9ZM3 13V21H11V13H3ZM9 19H5V15H9V19ZM13 3V11H21V3H13ZM19 9H15V5H19V9ZM13 13V21H21V13H13ZM19 19H15V15H19V19Z"/></symbol>
	<symbol id="home" width="24" height="24" viewBox="0 0 24 24" xmlns="http://www.w3.org/2000/svg" fill='currentColor'><path d="M10 20.5V14.5H14V20.5H19V12.5H22L12 3.5L2 12.5H5V20.5H10Z"/></symbol>
	<symbol id="house" width="24" height="24" viewBox="0 0 24 24" xmlns="http://www.w3.org/2000/svg" fill='currentColor'><path d="M19 9.8V4.5H16V7.1L12 3.5L2 12.5H5V20.5H10V14.5H14V20.5H19V12.5H22L19 9.8ZM10 10.5C10 9.4 10.9 8.5 12 8.5C13.1 8.5 14 9.4 14 10.5H10Z"/></symbol>
	<symbol id="info" width="24" height="24" viewBox="0 0 24 24" xmlns="http://www.w3.org/2000/svg" fill='currentColor'><path d="M12 2C6.48 2 2 6.48 2 12C2 17.52 6.48 22 12 22C17.52 22 22 17.52 22 12C22 6.48 17.52 2 12 2ZM13 17H11V11H13V17ZM13 9H11V7H13V9Z"/></symbol>
	<symbol id="lunch_dining" width="24" height="24" viewBox="0 0 24 24" xmlns="http://www.w3.org/2000/svg" fill='currentColor'><path fill-rule="evenodd" clip-rule="evenodd" d="M21.9921 10C22.3121 6.72 17.7121 4 12.0021 4C6.29213 4 1.69213 6.72 2.01213 10H21.9921Z"/><path fill-rule="evenodd" clip-rule="evenodd" d="M5.34213 13.5C5.89213 13.5 6.12213 13.64 6.49213 13.86C6.94213 14.13 7.56213 14.5 8.67213 14.5C9.78213 14.5 10.4021 14.13 10.8521 13.86C11.2221 13.63 11.4421 13.5 12.0021 13.5C12.5521 13.5 12.7821 13.64 13.1521 13.86C13.6021 14.13 14.2221 14.5 15.3321 14.5C16.4421 14.5 17.0621 14.13 17.5121 13.86C17.8821 13.63 18.1021 13.5 18.6621 13.5C19.2121 13.5 19.4421 13.64 19.8121 13.86C20.2621 14.13 20.8821 14.49 21.9821 14.5V12.52C21.9821 12.52 21.1921 12.36 20.8221 12.14C20.3721 11.87 19.7521 11.5 18.6421 11.5C17.5321 11.5 16.9121 11.87 16.4621 12.14C16.0921 12.37 15.8621 12.5 15.3121 12.5C14.7621 12.5 14.5321 12.36 14.1621 12.14C13.7121 11.87 13.0921 11.5 11.9821 11.5C10.8721 11.5 10.2521 11.87 9.80213 12.14C9.43213 12.37 9.21213 12.5 8.65213 12.5C8.10213 12.5 7.87213 12.36 7.50213 12.14C7.05213 11.87 6.43213 11.5 5.32213 11.5C4.21213 11.5 3.59213 11.87 3.14213 12.14C2.77213 12.37 2.55213 12.5 1.99213 12.5V14.5C3.10213 14.5 3.72213 14.13 4.20213 13.86C4.57213 13.63 4.79213 13.5 5.34213 13.5Z"/><path fill-rule="evenodd" clip-rule="evenodd" d="M1.99213 16V18C1.99213 19.1 2.89213 20 3.99213 20H19.9921C21.0921 20 21.9921 19.1 21.9921 18V16H1.99213Z"/></symbol>
	<symbol id="preview" width="24" height="24" viewBox="0 0 24 24" xmlns="http://www.w3.org/2000/svg" fill='currentColor'><path d="M19 3H5C3.89 3 3 3.9 3 5V19C3 20.1 3.89 21 5 21H19C20.1 21 21 20.1 21 19V5C21 3.9 20.11 3 19 3ZM19 19H5V7H19V19ZM13.5 13C13.5 13.83 12.83 14.5 12 14.5C11.17 14.5 10.5 13.83 10.5 13C10.5 12.17 11.17 11.5 12 11.5C12.83 11.5 13.5 12.17 13.5 13ZM12 9C9.27 9 6.94 10.66 6 13C6.94 15.34 9.27 17 12 17C14.73 17 17.06 15.34 18 13C17.06 10.66 14.73 9 12 9ZM12 15.5C10.62 15.5 9.5 14.38 9.5 13C9.5 11.62 10.62 10.5 12 10.5C13.38 10.5 14.5 11.62 14.5 13C14.5 14.38 13.38 15.5 12 15.5Z"/></symbol>
	<symbol id="settings" width="24" height="24" viewBox="0 0 24 24" xmlns="http://www.w3.org/2000/svg" fill='currentColor'><path d="M19.14 12.9399C19.18 12.6399 19.2 12.3299 19.2 11.9999C19.2 11.6799 19.18 11.3599 19.13 11.0599L21.16 9.4799C21.34 9.3399 21.39 9.0699 21.28 8.8699L19.36 5.5499C19.24 5.3299 18.99 5.2599 18.77 5.3299L16.38 6.2899C15.88 5.9099 15.35 5.5899 14.76 5.3499L14.4 2.8099C14.36 2.5699 14.16 2.3999 13.92 2.3999H10.08C9.83999 2.3999 9.64999 2.5699 9.60999 2.8099L9.24999 5.3499C8.65999 5.5899 8.11999 5.9199 7.62999 6.2899L5.23999 5.3299C5.01999 5.2499 4.76999 5.3299 4.64999 5.5499L2.73999 8.8699C2.61999 9.0799 2.65999 9.3399 2.85999 9.4799L4.88999 11.0599C4.83999 11.3599 4.79999 11.6899 4.79999 11.9999C4.79999 12.3099 4.81999 12.6399 4.86999 12.9399L2.83999 14.5199C2.65999 14.6599 2.60999 14.9299 2.71999 15.1299L4.63999 18.4499C4.75999 18.6699 5.00999 18.7399 5.22999 18.6699L7.61999 17.7099C8.11999 18.0899 8.64999 18.4099 9.23999 18.6499L9.59999 21.1899C9.64999 21.4299 9.83999 21.5999 10.08 21.5999H13.92C14.16 21.5999 14.36 21.4299 14.39 21.1899L14.75 18.6499C15.34 18.4099 15.88 18.0899 16.37 17.7099L18.76 18.6699C18.98 18.7499 19.23 18.6699 19.35 18.4499L21.27 15.1299C21.39 14.9099 21.34 14.6599 21.15 14.5199L19.14 12.9399ZM12 15.5999C10.02 15.5999 8.39999 13.9799 8.39999 11.9999C8.39999 10.0199 10.02 8.3999 12 8.3999C13.98 8.3999 15.6 10.0199 15.6 11.9999C15.6 13.9799 13.98 15.5999 12 15.5999Z"/></symbol>
	<symbol id="space_dashboard" width="24" height="24" viewBox="0 0 24 24" xmlns="http://www.w3.org/2000/svg" fill='currentColor'><path d="M11 21H5C3.9 21 3 20.1 3 19V5C3 3.9 3.9 3 5 3H11V21ZM13 21H19C20.1 21 21 20.1 21 19V12H13V21ZM21 10V5C21 3.9 20.1 3 19 3H13V10H21Z"/></symbol>
	<symbol id="visibility" width="24" height="24" viewBox="0 0 24 24" xmlns="http://www.w3.org/2000/svg" fill='currentColor'><path d="M12 4.5C7 4.5 2.73 7.61 1 12C2.73 16.39 7 19.5 12 19.5C17 19.5 21.27 16.39 23 12C21.27 7.61 17 4.5 12 4.5ZM12 17C9.24 17 7 14.76 7 12C7 9.24 9.24 7 12 7C14.76 7 17 9.24 17 12C17 14.76 14.76 17 12 17ZM12 9C10.34 9 9 10.34 9 12C9 13.66 10.34 15 12 15C13.66 15 15 13.66 15 12C15 10.34 13.66 9 12 9Z"/></symbol>
	<symbol id="visibility_off" width="24" height="24" viewBox="0 0 24 24" xmlns="http://www.w3.org/2000/svg" fill='currentColor'><path d="M12.005 6.5C14.765 6.5 17.005 8.74 17.005 11.5C17.005 12.15 16.875 12.76 16.645 13.33L19.565 16.25C21.075 14.99 22.265 13.36 22.995 11.5C21.265 7.11 16.995 4 11.995 4C10.595 4 9.255 4.25 8.01501 4.7L10.175 6.86C10.745 6.63 11.355 6.5 12.005 6.5ZM2.005 3.77L4.745 6.51C3.085 7.8 1.785 9.52 1.005 11.5C2.735 15.89 7.005 19 12.005 19C13.555 19 15.035 18.7 16.385 18.16L16.805 18.58L19.735 21.5L21.005 20.23L3.275 2.5L2.005 3.77ZM7.53501 9.3L9.085 10.85C9.035 11.06 9.005 11.28 9.005 11.5C9.005 13.16 10.345 14.5 12.005 14.5C12.225 14.5 12.445 14.47 12.655 14.42L14.205 15.97C13.535 16.3 12.795 16.5 12.005 16.5C9.245 16.5 7.005 14.26 7.005 11.5C7.005 10.71 7.20501 9.97 7.53501 9.3ZM11.845 8.52L14.995 11.67L15.015 11.51C15.015 9.85 13.675 8.51 12.015 8.51L11.845 8.52Z"/></symbol>
	<symbol id="wallpaper" width="24" height="24" viewBox="0 0 24 24" xmlns="http://www.w3.org/2000/svg" fill='currentColor'><path d="M4 4H11V2H4C2.9 2 2 2.9 2 4V11H4V4ZM10 13L6 18H18L15 14L12.97 16.71L10 13ZM17 8.5C17 7.67 16.33 7 15.5 7C14.67 7 14 7.67 14 8.5C14 9.33 14.67 10 15.5 10C16.33 10 17 9.33 17 8.5ZM20 2H13V4H20V11H22V4C22 2.9 21.1 2 20 2ZM20 20H13V22H20C21.1 22 22 21.1 22 20V13H20V20ZM4 13H2V20C2 21.1 2.9 22 4 22H11V20H4V13Z"/></symbol>
	<symbol id="warning" width="24" height="24" viewBox="0 0 24 24" xmlns="http://www.w3.org/2000/svg" fill='currentColor'><path d="M1 21.5H23L12 2.5L1 21.5ZM13 18.5H11V16.5H13V18.5ZM13 14.5H11V10.5H13V14.5Z"/></symbol>
	<symbol id="weekend" width="24" height="24" viewBox="0 0 24 24" xmlns="http://www.w3.org/2000/svg" fill='currentColor'><path d="M21 10C19.9 10 19 10.9 19 12V15H5V12C5 10.9 4.11 10 3 10C1.89 10 1 10.9 1 12V17C1 18.1 1.9 19 3 19H21C22.1 19 23 18.1 23 17V12C23 10.9 22.1 10 21 10ZM18 5H6C4.9 5 4 5.9 4 7V9.15C5.16 9.56 6 10.67 6 11.96V14H18V11.97C18 10.67 18.84 9.57 20 9.16V7C20 5.9 19.1 5 18 5Z"/></symbol>
</svg>