<svg width="196" height="80" viewBox="0 0 196 80" fill="none" xmlns="http://www.w3.org/2000/svg">
<g clip-path="url(#clip0_0_29)">
<path fill-rule="evenodd" clip-rule="evenodd" d="M101.394 33.6873C97.5768 40.9218 90.0104 45.8454 81.3274 45.8454C68.7933 45.8454 58.6327 35.582 58.6327 22.9227C58.6327 10.2634 68.7933 0 81.3274 0C89.9255 0 97.4027 4.82583 101.254 11.9456L91.9551 16.9669C89.8746 13.1308 85.8536 10.5735 81.3274 10.5735C74.7249 10.5735 69.2009 16.0068 69.2009 22.9227C69.2009 29.8386 74.7249 35.2719 81.3274 35.2719C85.947 35.2719 90.0656 32.6126 92.1037 28.6406L101.394 33.6873ZM54.1574 0.811388H43.7718V44.8131H54.1574V0.811388ZM12.7167 44.8131C6.80203 44.8131 0.288703 41.6185 0.288703 34.2014C0.288703 34.2014 23.0004 34.2014 26.618 34.2056C30.4691 33.4367 30.0403 28.5769 26.618 27.9057H13.1031C5.91037 27.9057 0.216522 21.763 0.216522 14.4435C0.216522 7.40443 5.47729 0.815638 13.1031 0.815638H27.93C34.0442 0.815638 38.4091 5.39508 38.4091 11.2022H13.1031C9.70203 11.6865 9.48549 16.9074 13.1031 17.4979H26.5798C33.972 17.6975 39.8697 23.5854 39.8697 31.0408C39.8697 37.91 34.0442 44.8131 26.6138 44.8131H12.7167ZM105.309 44.8131V0.811388H115.813V18.4579H119.855L130.776 0.811388H143.692L128.81 23.0926L143.476 44.8131H130.555L119.503 27.7655H115.813V44.8131H105.309Z" fill="#007CC1"/>
<path fill-rule="evenodd" clip-rule="evenodd" d="M0 72.1751C0.135871 72.6466 0.246267 73.0289 0.49678 73.4792C0.810982 73.9975 1.21859 74.469 1.6899 74.8514C2.54759 75.5523 3.91903 76.2915 6.45813 76.2915C9.494 76.2915 11.2051 75.0298 11.9227 73.9975C12.2157 73.5939 12.7337 72.6466 12.7337 71.2957C12.7337 69.9448 12.1944 68.6364 11.0905 67.8038C10.3941 67.2898 9.56194 67.0179 8.70425 66.7927C8.31078 66.6701 7.91922 66.5704 7.52701 66.4706C7.33515 66.4217 7.14314 66.3728 6.95066 66.3212C6.69063 66.2597 6.46001 66.2084 6.25288 66.1624C5.40137 65.9731 4.94655 65.872 4.47526 65.5098C3.84685 65.0383 3.73221 64.4308 3.71098 64.1632C3.71098 63.9805 3.75769 63.5769 4.05066 63.1734C4.18653 62.9695 4.36486 62.8123 4.56867 62.6763C5.26501 62.2515 6.34349 62.2261 6.50483 62.2261C7.54085 62.2261 8.55139 62.5149 9.11186 63.4622C9.15857 63.5302 9.29444 63.7554 9.38361 64.0017L9.54842 63.9655C9.90207 63.888 10.2675 63.8078 10.598 63.7086C11.0947 63.5727 11.566 63.441 12.0373 63.2796C12.0161 63.1691 11.8802 62.7401 11.6552 62.3577C11.3587 61.8486 10.8995 61.4416 10.7168 61.2796L10.6871 61.2532C9.09063 59.8811 7.15447 59.8599 6.45813 59.8599C3.60059 59.8599 2.09327 61.1853 1.46486 62.1793C0.836457 63.1904 0.789752 64.2949 0.789752 64.7197C0.789752 65.2634 0.857688 66.4104 1.847 67.5107C2.59005 68.3178 3.30761 68.5684 3.71523 68.7044C3.96149 68.7724 4.21201 68.8446 4.47951 68.9295C4.97628 69.0867 5.49005 69.2227 6.00806 69.3543C6.16503 69.3917 6.33836 69.4297 6.52123 69.4698L6.52133 69.4698C7.33761 69.6489 8.34385 69.8697 8.93353 70.2549C9.60864 70.6797 9.71904 71.4274 9.71904 71.695C9.71904 71.9414 9.67658 72.396 9.31567 72.8675C9.11186 73.0927 8.89107 73.2923 8.64056 73.4283C7.87628 73.8573 6.7044 73.8573 6.52607 73.8573C4.54744 73.8573 3.57936 73.2031 3.10381 72.4385C2.92548 72.1666 2.83207 71.9457 2.7429 71.6526L0 72.1751ZM24.8305 70.4843C24.8305 69.5837 24.8092 68.6194 24.5842 67.7613L24.5726 67.7229C24.4796 67.4156 24.2969 66.8113 23.8412 66.164C22.5122 64.2269 20.5335 64.023 19.7013 64.023C17.2939 64.023 15.4256 65.4843 14.7081 67.7358C14.3939 68.7681 14.3726 69.7834 14.3726 70.1615C14.3726 73.424 15.6804 74.8004 16.916 75.5226C18.0412 76.1725 19.1196 76.2405 19.6164 76.2405C21.3275 76.2405 22.9665 75.4971 23.9346 74.1037C24.2876 73.5817 24.5827 72.8894 24.6791 72.663L24.6791 72.663L24.6791 72.663L24.6791 72.6629L24.6792 72.6629L24.6792 72.6629L24.6988 72.6169L22.2914 72.2345C22.198 72.5022 22.1088 72.7316 21.9517 72.978C21.4549 73.7001 20.6227 74.1504 19.7693 74.1504C19.4296 74.1504 18.8691 74.108 18.2619 73.5684C17.3408 72.7519 17.2346 71.6739 17.1899 71.22L17.1835 71.1555C17.158 70.9304 17.1368 70.7095 17.1368 70.5056L24.8305 70.4843ZM17.0688 68.8021C17.1368 68.1904 17.1835 68.0119 17.3151 67.6976C17.676 66.729 18.3723 66.3 18.7332 66.1216C18.8691 66.0493 19.2258 65.8964 19.6546 65.8964C19.9221 65.8964 20.4401 65.9431 21.0261 66.3934C21.8795 67.0221 22.0366 67.808 22.1937 68.8021H17.0688ZM27.1275 75.9346V64.2779V64.2736H29.535V66.7927C29.6709 66.4784 29.8959 66.0451 30.0997 65.735C30.4564 65.153 31.3141 64.0017 33.1568 64.0017C34.2395 64.0272 34.9359 64.4308 35.2501 64.656C35.5855 64.9066 35.8785 65.2677 36.1035 65.65L36.1237 65.6902C36.2207 65.8825 36.406 66.2498 36.5324 66.7715C36.6326 67.1569 36.6589 67.6117 36.6743 67.8783V67.8784V67.8785V67.8785V67.8786V67.8786V67.8787V67.8787V67.8788V67.8789V67.8789V67.879V67.879V67.8791V67.8791V67.8792V67.8793C36.6798 67.9737 36.6839 68.0444 36.6895 68.0799V76.0238H34.1716V68.955L34.1692 68.8678C34.1454 68.001 34.1236 67.2062 33.4498 66.6143C33.2715 66.4571 32.8893 66.1895 32.2822 66.1895C32.0316 66.1895 31.4924 66.2575 30.9532 66.7078C29.9171 67.4937 29.828 68.5982 29.76 69.8131V76.0238L27.1275 75.9346ZM44.7441 71.5888C45.2833 71.7035 45.8013 71.8352 46.0476 72.2643C46.1622 72.4894 46.1835 72.6933 46.1835 72.808C46.1835 73.4622 45.6442 73.8191 45.4617 73.9125C45.2366 74.0485 44.6294 74.2481 43.8439 74.2481C43.6656 74.2481 42.4937 74.2227 41.8186 73.6407C41.6148 73.458 41.4789 73.3008 41.2327 72.7826L38.7785 73.3008C39.2286 74.2014 39.4748 74.605 39.789 74.9448C40.7104 75.8454 42.4215 76.2065 43.7038 76.2065C44.1327 76.2065 46.1325 76.1598 47.4827 75.17C48.7183 74.2481 48.8797 72.961 48.8797 72.3832C48.8797 71.232 48.315 70.1105 47.3044 69.5243C46.9902 69.3416 46.7185 69.2312 45.9967 69.006L43.3429 68.509L43.2221 68.479C42.6402 68.3357 42.1097 68.2049 41.8356 67.6763C41.721 67.4724 41.6997 67.277 41.6997 67.2048C41.6997 66.9584 41.7889 66.7333 41.8356 66.6653C42.1645 66.0905 42.9302 65.9935 43.148 65.9659L43.1603 65.9644C43.4321 65.9176 43.6784 65.9176 43.7675 65.9176C45.1366 65.9176 45.6034 66.6541 45.9168 67.1484L45.95 67.2006L48.2683 66.7078C47.8649 65.8752 47.7078 65.6033 47.3936 65.2677C46.5401 64.3416 45.0073 63.9593 43.793 63.9593C42.6254 63.9593 41.2964 64.2524 40.4174 65.0001C39.6744 65.6543 39.2031 66.7545 39.2031 67.7868C39.2031 69.3883 40.1924 70.17 40.6892 70.4673C41.0843 70.7247 41.4597 70.8412 41.8816 70.9722C41.9403 70.9904 41.9999 71.0089 42.0606 71.0281L44.7441 71.5888ZM52.7478 75.5056C51.6438 74.8344 50.0218 73.0077 50.2044 69.8344C50.2256 69.1802 50.3827 67.2473 51.8731 65.6713C53.2912 64.1844 55.1128 64.0272 55.7879 64.0272C59.1634 64.0272 61.0062 66.9754 61.0062 70.1275C61.0062 71.5888 60.624 73.0544 59.7239 74.2481C58.3057 76.0918 56.3483 76.249 55.5161 76.249C55.0661 76.249 53.8517 76.2065 52.7478 75.5056ZM53.9791 66.8862C53.1936 67.6721 52.994 69.1122 52.9473 70.1275C52.9261 70.3526 52.8794 71.0961 53.0577 71.814C53.1469 72.2855 53.6861 74.1292 55.5543 74.1292C56.3186 74.1292 56.7687 73.8148 57.015 73.6364C58.2642 72.6634 58.2538 70.8672 58.2508 70.3416L58.2505 70.2804C58.2505 70.0086 58.2505 69.7622 58.2293 69.5158L58.226 69.4513C58.2036 68.9938 58.1388 67.6688 57.2188 66.7928C57.015 66.5888 56.497 66.2065 55.7114 66.2065C55.4185 66.2065 54.5863 66.2745 53.9791 66.8862ZM63.5028 64.2779V76.0238L64.4454 75.9559C64.9846 75.9346 65.5494 75.9559 66.0886 75.9771V71.1385C66.0907 71.0891 66.0915 71.0263 66.0925 70.952C66.101 70.2863 66.1213 68.7031 67.2138 67.6254C67.8677 66.9754 68.4748 66.9287 68.857 66.9074C69.0607 66.8862 69.2603 66.8862 69.464 66.8862H69.4642L69.4854 64.0272C69.4491 64.0297 69.4074 64.0316 69.3608 64.0337C69.0042 64.0498 68.364 64.0788 67.7106 64.4733C66.7 65.085 66.2924 66.0961 65.8678 67.1751V64.2736H63.5028V64.2779ZM77.6249 75.9346V74.7197L77.6461 61.9117V60.2677H80.5504V75.9346H77.6249ZM83.8325 64.2779V75.9346L86.465 76.0238V69.8131C86.533 68.5982 86.6221 67.4937 87.6582 66.7078C88.1974 66.2575 88.7366 66.1895 88.9871 66.1895C89.5943 66.1895 89.9765 66.4571 90.159 66.6143C90.8328 67.2062 90.8546 68.001 90.8784 68.8678L90.8809 68.955V76.0238H93.3987V68.0799C93.3931 68.0442 93.389 67.9732 93.3835 67.8783C93.3681 67.6116 93.3418 67.1569 93.2416 66.7715C93.1152 66.2498 92.93 65.8825 92.833 65.6902L92.8128 65.65C92.5877 65.2677 92.2948 64.9066 91.9593 64.656C91.6409 64.4308 90.9445 64.0272 89.8661 64.0017C88.0233 64.0017 87.1656 65.153 86.809 65.735C86.6051 66.0451 86.3801 66.4784 86.2442 66.7927V64.2736H83.8325V64.2779ZM95.1948 66.4614V64.2779H96.77L97.063 61.1215L99.1775 60.9644V64.2481H101.517V66.4317H99.1987V72.3068C99.2412 72.9397 99.3304 73.1861 99.5342 73.4325C100.023 74.0147 100.914 73.9307 101.634 73.863L101.649 73.8616L101.627 76.0238C101.438 76.0313 101.247 76.0419 101.057 76.0526L101.057 76.0526C100.706 76.0722 100.355 76.0918 100.005 76.0918C99.0204 76.0918 98.1415 75.9814 97.4876 75.2804C96.8205 74.613 96.7286 73.8741 96.6148 72.9593L96.6129 72.944V66.4614H95.1948ZM113.168 70.4843C113.168 69.5837 113.147 68.6194 112.922 67.7613L112.914 67.7344C112.821 67.4309 112.636 66.8194 112.179 66.164C110.854 64.2269 108.871 64.023 108.039 64.023C105.631 64.023 103.763 65.4843 103.041 67.7358C102.727 68.7681 102.706 69.7834 102.706 70.1615C102.706 73.424 104.009 74.8004 105.249 75.5226C106.374 76.1725 107.453 76.2405 107.95 76.2405C109.661 76.2405 111.3 75.4971 112.268 74.1037C112.65 73.5387 112.968 72.7741 113.032 72.6169L110.625 72.2345C110.535 72.5022 110.442 72.7316 110.289 72.978C109.792 73.7001 108.964 74.1504 108.107 74.1504C107.767 74.1504 107.207 74.108 106.599 73.5684C105.675 72.749 105.568 71.6662 105.523 71.2151L105.517 71.1555C105.491 70.9304 105.47 70.7095 105.47 70.5056L113.168 70.4843ZM105.406 68.8021C105.474 68.1904 105.521 68.0119 105.653 67.6976C106.014 66.729 106.71 66.3 107.071 66.1216C107.207 66.0493 107.563 65.8964 107.992 65.8964C108.26 65.8964 108.778 65.9431 109.364 66.3934C110.217 67.0221 110.374 67.808 110.535 68.8021H105.406ZM115.423 76.0026V60.1785H118.144V76.0026H115.423ZM120.964 60.1785V76.0026H123.685V60.1785H120.964ZM126.462 75.9771V64.2779H129.141V75.9771H126.462ZM126.53 62.9907V60.204H129.116V62.9907H126.53ZM142.847 62.0009C141.319 61.9542 140.707 62.0689 140.126 62.4937C139.493 62.9907 139.315 63.5557 139.09 64.2949C138.257 64.1122 137.739 64.0017 136.861 64.0017C135.625 64.0017 134.3 64.1844 133.307 64.9023C132.474 65.5353 132.003 66.4784 132.003 67.5149C132.003 69.08 133.065 69.8481 133.537 70.1895C133.561 70.2067 133.583 70.2228 133.604 70.2379C132.971 70.616 132.364 71.0026 132.003 71.6313C131.914 71.7673 131.736 72.1029 131.736 72.5531C131.736 73.3902 132.193 73.9047 132.719 74.4969L132.75 74.5328C131.85 75.0978 131.579 75.3866 131.332 75.9304C131.128 76.3552 131.128 76.695 131.128 76.8947C131.128 78.3136 132.211 79.057 132.589 79.2566C133.039 79.503 133.4 79.6177 133.604 79.6602C134.164 79.7961 135.315 80 136.776 80C138.958 80 140.151 79.6177 141.026 79.1207C142.58 78.2456 142.826 77.0264 142.826 76.2617C142.826 75.0468 142.062 74.0357 140.958 73.5387C140.172 73.2031 139 73.1096 137.09 73.0672C136.988 73.0672 136.893 73.0673 136.802 73.0675C135.803 73.069 135.396 73.0696 134.839 72.8633C134.16 72.6169 134.007 72.1198 134.007 71.8055C134.007 71.3297 134.343 71.0408 134.457 70.9516C134.489 70.92 134.525 70.8884 134.564 70.8546L134.564 70.8544C134.608 70.8157 134.656 70.7741 134.704 70.7265C135.875 71.0153 136.3 71.0621 136.975 71.0621C138.775 71.0621 140.015 70.3399 140.555 69.9151C141.591 69.0612 141.705 67.9567 141.705 67.4597C141.705 66.4699 141.298 65.8157 141.051 65.548C140.818 65.2941 140.641 65.1587 140.374 64.9532L140.329 64.9193C140.444 64.6942 140.555 64.5115 140.737 64.3543C141.23 63.9465 142.176 63.972 142.852 63.9932V62.0009H142.847ZM133.918 75.2167C135.506 75.5093 136.187 75.5145 137.574 75.5251H137.574L137.576 75.5251L137.578 75.5251C137.78 75.5267 137.998 75.5284 138.236 75.5311C139.247 75.5523 139.697 75.7095 140.053 76.0451C140.346 76.3382 140.368 76.6101 140.368 76.7673C140.368 77.396 139.828 77.8463 139.264 78.0502C138.567 78.2966 137.51 78.2966 137.353 78.2966C135.374 78.2966 134.224 77.8887 133.706 77.1453C133.617 77.0306 133.417 76.695 133.417 76.2447C133.421 75.7774 133.604 75.5523 133.918 75.2167ZM134.725 67.3153C134.814 66.7503 135.217 65.6033 136.839 65.6033C137.693 65.6033 138.168 65.8964 138.393 66.0961C138.958 66.5718 139 67.2898 139 67.5616C139 68.3051 138.623 69.52 136.861 69.52C135.897 69.52 135.064 69.0697 134.793 68.1904C134.682 67.808 134.704 67.4937 134.725 67.3153ZM154.235 67.7613C154.456 68.6194 154.481 69.5837 154.481 70.4843L146.783 70.5056C146.783 70.676 146.801 70.8584 146.819 71.0452L146.83 71.1555L146.832 71.1739L146.839 71.2338C146.888 71.6956 147.001 72.7602 147.913 73.5684C148.52 74.108 149.08 74.1504 149.42 74.1504C150.278 74.1504 151.106 73.7001 151.603 72.978C151.755 72.7316 151.849 72.5022 151.938 72.2345L154.345 72.6169C154.282 72.7741 153.963 73.5387 153.581 74.1037C152.613 75.4971 150.974 76.2405 149.263 76.2405C148.766 76.2405 147.688 76.1725 146.563 75.5226C145.323 74.8004 144.019 73.424 144.019 70.1615C144.019 69.7834 144.04 68.7681 144.355 67.7358C145.076 65.4843 146.945 64.023 149.348 64.023C150.184 64.023 152.167 64.2269 153.492 66.164C153.949 66.8194 154.135 67.4308 154.227 67.7343L154.235 67.7613ZM146.966 67.6976C146.834 68.0119 146.788 68.1904 146.72 68.8021H151.849C151.687 67.808 151.53 67.0221 150.677 66.3934C150.091 65.9431 149.573 65.8964 149.305 65.8964C148.877 65.8964 148.52 66.0493 148.384 66.1216C148.023 66.3 147.323 66.729 146.966 67.6976ZM156.778 64.2779V75.9346L159.411 76.0238V69.8131C159.479 68.5982 159.572 67.4937 160.604 66.7078C161.148 66.2575 161.687 66.1895 161.933 66.1895C162.54 66.1895 162.922 66.4571 163.105 66.6143C163.782 67.2094 163.801 68.0096 163.821 68.8818L163.822 68.955V76.0238H166.345V68.0799C166.339 68.0449 166.335 67.9759 166.33 67.8838L166.33 67.8829C166.314 67.6169 166.287 67.1591 166.183 66.7715C166.061 66.2488 165.875 65.8811 165.778 65.6891L165.759 65.65C165.534 65.2677 165.241 64.9066 164.905 64.656C164.591 64.4308 163.895 64.0272 162.812 64.0017C160.969 64.0017 160.111 65.153 159.751 65.735C159.547 66.0451 159.326 66.4784 159.19 66.7927V64.2736H156.778V64.2779ZM178.491 68.1397L178.492 68.1479L176.191 68.4835C176.123 68.1224 176.034 67.7825 175.877 67.4682C175.338 66.4104 174.369 66.2745 173.941 66.2745C173.491 66.2745 172.705 66.4104 172.098 67.3322C171.737 67.9185 171.469 68.7724 171.469 70.3484C171.469 71.4317 171.694 72.7783 172.548 73.4792C172.747 73.6619 173.219 73.9763 173.962 73.9763C174.212 73.9763 174.641 73.955 175.091 73.6619C175.766 73.2116 176.059 72.5616 176.374 71.8182L178.467 72.0221L178.463 72.0429C178.372 72.5443 178.183 73.5916 177.342 74.6347C176.96 75.0808 176.603 75.3526 176.441 75.4631C176.013 75.735 175.113 76.2277 173.741 76.2277C173.249 76.2277 171.83 76.1343 170.68 75.1955C170.523 75.0595 170.23 74.7876 169.915 74.3373C169.423 73.6407 168.701 72.2643 168.701 70.1275C168.701 69.4945 168.748 67.6254 169.873 66.0748C170.344 65.3994 171.563 64.0485 173.834 64.0485C174.667 64.0485 176.87 64.2481 177.953 66.4784C178.285 67.1459 178.442 67.9047 178.491 68.1397ZM190.339 70.4843C190.339 69.5837 190.317 68.6194 190.092 67.7613L190.072 67.6965C189.973 67.382 189.788 66.7933 189.349 66.164C188.025 64.2269 186.046 64.023 185.209 64.023C182.802 64.023 180.938 65.4843 180.216 67.7358C179.902 68.7681 179.881 69.7834 179.881 70.1615C179.881 73.424 181.184 74.8004 182.42 75.5226C183.545 76.1725 184.624 76.2405 185.12 76.2405C186.831 76.2405 188.475 75.4971 189.438 74.1037C189.821 73.5387 190.139 72.7741 190.203 72.6169L187.795 72.2345C187.706 72.5022 187.617 72.7316 187.46 72.978C186.967 73.7001 186.135 74.1504 185.277 74.1504C184.942 74.1504 184.377 74.108 183.77 73.5684C182.858 72.7602 182.745 71.6956 182.696 71.2339C182.693 71.2054 182.69 71.1792 182.687 71.1555L182.686 71.1415L182.686 71.1411C182.665 70.921 182.645 70.7051 182.645 70.5056L190.339 70.4843ZM182.581 68.8021C182.649 68.1904 182.692 68.0119 182.827 67.6976C183.184 66.729 183.885 66.3 184.241 66.1216C184.377 66.0493 184.738 65.8964 185.163 65.8964C185.434 65.8964 185.948 65.9431 186.534 66.3934C187.388 67.0221 187.549 67.808 187.706 68.8021H182.581ZM195.629 72.961V75.9771H192.75V72.961H195.629Z" fill="#737F85"/>
</g>
<defs>
<clipPath id="clip0_0_29">
<rect width="196" height="80" fill="white"/>
</clipPath>
</defs>
</svg>
