<svg xmlns="http://www.w3.org/2000/svg" width="24" height="24" viewBox="0 0 24 24" fill='currentColor'><path d="M20.362 22.485 1.726 3.85 2.78 2.78l18.635 18.65zm2.138-9.023h-4.575a5.1 5.1 0 0 0-.525-1.5h3.554q-.071-.3-.22-.498-.15-.197-.42-.335a5.6 5.6 0 0 0-1.56-.579 9 9 0 0 0-1.879-.185q-.18 0-.35.015t-.35.053a4.8 4.8 0 0 0-.832-.717 5.7 5.7 0 0 0-.976-.528q.594-.154 1.22-.238a10 10 0 0 1 1.288-.085q1.209 0 2.292.256 1.083.255 2.035.752.64.34.969.942.33.6.329 1.418zm-5.625-5.539q-1.125 0-1.914-.79a2.62 2.62 0 0 1-.788-1.922q0-1.13.788-1.92a2.6 2.6 0 0 1 1.914-.791q1.125 0 1.913.791.789.79.789 1.92a2.62 2.62 0 0 1-.788 1.921 2.6 2.6 0 0 1-1.914.791m0-1.5q.512 0 .857-.348.345-.347.345-.861t-.346-.864a1.16 1.16 0 0 0-.857-.35q-.51 0-.856.348-.345.347-.345.861t.346.864.857.35M1.5 13.46v-1.228q0-.818.329-1.418.33-.601.969-.942a8.7 8.7 0 0 1 2.035-.752 10 10 0 0 1 2.292-.256q.368 0 .721.027a8 8 0 0 1 .717.087v1.5a6 6 0 0 0-.717-.091 11 11 0 0 0-.721-.023q-1.027 0-1.879.185a5.6 5.6 0 0 0-1.56.579q-.27.138-.42.335t-.22.497H6.6a5.1 5.1 0 0 0-.525 1.5zm7.933-6.844-3.79-3.8q.282-.22.601-.35a2.8 2.8 0 0 1 .67-.179q1.289.165 2.1.976.813.813.813 1.947 0 .396-.101.75a2.5 2.5 0 0 1-.293.656M12 16.587q-.72-.001-1.22-.506a1.68 1.68 0 0 1-.501-1.225v-2.942q0-.354.116-.643.117-.291.334-.527l2.992 2.992v1.12q0 .719-.5 1.225-.503.506-1.221.506m-.596 4.913v-2.002q-1.713-.217-2.881-1.536t-1.167-3.106h1.183q0 1.45 1.01 2.47T12 18.346q1.296 0 2.255-.841a3.44 3.44 0 0 0 1.162-2.088l.975.99a4.63 4.63 0 0 1-1.452 2.083 4.5 4.5 0 0 1-2.344 1.008V21.5z"/></svg>