<svg xmlns="http://www.w3.org/2000/svg" width="24" height="24" viewBox="0 0 24 24" fill='currentColor'><path d="M11.994 16.144a2.83 2.83 0 0 1-2.074.851 2.85 2.85 0 0 1-2.064-.85 2.84 2.84 0 0 1-.851-2.057q-.005-1.202.85-2.057l4.15-4.175A2.82 2.82 0 0 1 14.08 7q1.218 0 2.074.856.855.855.85 2.057a2.84 2.84 0 0 1-.85 2.056zM8.9 15.075q.575.574 1.188.413.612-.163.837-.388l1.548-1.573-2-2L8.9 13.075a1.37 1.37 0 0 0-.425 1q0 .575.425 1m6.2-6.15q-.575-.574-1.187-.413-.613.163-.838.388l-1.548 1.573 2 2 1.573-1.548q.425-.425.425-1t-.425-1M3.5 20.5v-17h6.258a2.2 2.2 0 0 1 .727-1.416Q11.117 1.499 12 1.5a2.17 2.17 0 0 1 1.525.584q.632.583.717 1.416H20.5v17zM5 19h14V5H5zm7-14.654a.73.73 0 0 0 .75-.75.73.73 0 0 0-.75-.75.73.73 0 0 0-.75.75.73.73 0 0 0 .75.75"/></svg>