<svg xmlns="http://www.w3.org/2000/svg" width="24" height="24" viewBox="0 0 24 24" fill='currentColor'><path d="M11.5 19.635a2.6 2.6 0 0 1-1.851-.726 2.66 2.66 0 0 1-.86-1.774h1.519q.076.434.408.717.33.283.784.283.522 0 .886-.365.364-.364.364-.886 0-.52-.364-.885a1.2 1.2 0 0 0-.886-.365H2.25v-1.5h9.25q1.145 0 1.947.803.803.804.803 1.947t-.803 1.948a2.65 2.65 0 0 1-1.947.802m-9.25-9.77v-1.5H15.5q.746 0 1.248-.502.502-.501.502-1.248 0-.745-.502-1.248-.502-.501-1.248-.502-.688 0-1.162.425a1.66 1.66 0 0 0-.55 1.075H12.27q.087-1.283 1.008-2.141t2.223-.859q1.37 0 2.31.94.94.942.94 2.31 0 1.37-.94 2.31t-2.31.94zm16.5 7.866v-1.52a1.66 1.66 0 0 0 1.075-.55q.425-.473.425-1.161 0-.747-.502-1.248-.502-.502-1.248-.502H2.25v-1.5H18.5q1.37 0 2.31.94t.94 2.31q0 1.302-.859 2.223-.858.921-2.141 1.008"/></svg>