<svg xmlns="http://www.w3.org/2000/svg" width="24" height="24" viewBox="0 0 24 24" fill='currentColor'><path d="M12 5.23a.85.85 0 0 1-.626-.258.85.85 0 0 1-.258-.626q0-.367.258-.626A.85.85 0 0 1 12 3.461q.368 0 .626.26a.85.85 0 0 1 .258.625.85.85 0 0 1-.258.626.85.85 0 0 1-.626.259m0-3.153a.85.85 0 0 1-.626-.259.85.85 0 0 1-.258-.626q0-.367.258-.626A.85.85 0 0 1 12 .308q.368 0 .626.258a.85.85 0 0 1 .258.626.85.85 0 0 1-.258.626.85.85 0 0 1-.626.259M8.727 21.212a6.07 6.07 0 0 1-2.212-2.281 6.3 6.3 0 0 1-.804-3.085 6.17 6.17 0 0 1 1.008-3.391 6.4 6.4 0 0 1 2.685-2.338V7.538q0-.318.215-.534a.73.73 0 0 1 .535-.216h3.692q.319 0 .534.216a.73.73 0 0 1 .216.534v2.58a6.47 6.47 0 0 1 2.677 2.337 6.14 6.14 0 0 1 1.015 3.391 6.3 6.3 0 0 1-.803 3.085 6.07 6.07 0 0 1-2.212 2.28zm.446-1.5h5.654a5 5 0 0 0 1.441-1.7q.52-1.005.52-2.166a4.66 4.66 0 0 0-.733-2.543 4.74 4.74 0 0 0-1.992-1.764l-.967-.464V8.288h-2.192v2.787l-.968.464a4.74 4.74 0 0 0-1.99 1.764 4.66 4.66 0 0 0-.735 2.543q0 1.161.52 2.166.521 1.003 1.442 1.7M6.693 3.076a.85.85 0 0 1-.627-.259.85.85 0 0 1-.258-.626q0-.367.258-.626a.85.85 0 0 1 .626-.258q.368 0 .626.258a.85.85 0 0 1 .259.626.85.85 0 0 1-.259.626.85.85 0 0 1-.626.259m10.615 0a.85.85 0 0 1-.626-.259.85.85 0 0 1-.259-.626q0-.367.259-.626a.85.85 0 0 1 .626-.258q.367 0 .626.258a.85.85 0 0 1 .258.626.85.85 0 0 1-.258.626.85.85 0 0 1-.626.259M8.846 5.231a.85.85 0 0 1-.626-.259.85.85 0 0 1-.259-.626q0-.367.26-.626a.85.85 0 0 1 .625-.259q.368 0 .626.26a.85.85 0 0 1 .259.625.85.85 0 0 1-.259.626.85.85 0 0 1-.626.259m6.308 0a.85.85 0 0 1-.626-.259.85.85 0 0 1-.259-.626q0-.367.259-.626a.85.85 0 0 1 .626-.259q.367 0 .626.26a.85.85 0 0 1 .258.625.85.85 0 0 1-.258.626.85.85 0 0 1-.626.259"/></svg>