<svg xmlns="http://www.w3.org/2000/svg" width="24" height="24" viewBox="0 0 24 24" fill='currentColor'><path d="M20.621 16.502 9.377 12.408l2.054-5.633 11.263 4.094zm-.986 2.71L2.287 12.89l.511-1.404 17.348 6.322zm-13.09-8.008q-1.062 0-1.805-.743a2.46 2.46 0 0 1-.743-1.805q0-1.062.743-1.805a2.46 2.46 0 0 1 1.805-.743q1.062 0 1.805.743t.743 1.805-.743 1.805a2.46 2.46 0 0 1-1.805.743m0-1.5q.444 0 .746-.301.303-.301.302-.746 0-.445-.3-.747-.302-.303-.747-.302-.445 0-.747.3-.302.302-.302.747t.301.747.746.302m4.762 1.802 8.42 3.08 1.022-2.84-8.417-3.05z"/></svg>