<svg xmlns="http://www.w3.org/2000/svg" width="24" height="24" viewBox="0 0 24 24" fill='currentColor'><path d="M12 21.5a8.3 8.3 0 0 1-3.315-.67 8.6 8.6 0 0 1-2.697-1.818 8.6 8.6 0 0 1-1.819-2.696 8.3 8.3 0 0 1-.669-3.315q0-1.77.67-3.316a8.6 8.6 0 0 1 1.818-2.696 8.6 8.6 0 0 1 2.696-1.82A8.3 8.3 0 0 1 12 4.5q1.77 0 3.315.67a8.6 8.6 0 0 1 2.697 1.819 8.6 8.6 0 0 1 1.819 2.695Q20.5 11.23 20.5 13t-.67 3.315a8.6 8.6 0 0 1-1.818 2.697 8.6 8.6 0 0 1-2.696 1.819 8.3 8.3 0 0 1-3.315.67M5.755 2.89l1.054 1.053-3.866 3.866-1.054-1.054zm12.492 0 3.866 3.865-1.054 1.054-3.866-3.866zM12 20q2.915 0 4.958-2.042Q19 15.915 19 13t-2.042-4.958Q14.915 6 12 6T7.042 8.042Q5 10.084 5 13q0 2.915 2.042 4.958Q9.084 20 12 20m-2.596-3.25h1.5v-7.5h-1.5zm3.692 0h1.5v-7.5h-1.5z"/></svg>