<svg xmlns="http://www.w3.org/2000/svg" width="24" height="24" viewBox="0 0 24 24" fill='currentColor'><path d="M5.5 17.25q-2.196 0-3.723-1.527T.25 12.001t1.527-3.723T5.5 6.75q.874 0 1.678.31a4.8 4.8 0 0 1 1.449.882l1.912 1.685-1.135 1.004-1.781-1.573a3.4 3.4 0 0 0-.987-.593A3.1 3.1 0 0 0 5.5 8.25q-1.553 0-2.651 1.099a3.62 3.62 0 0 0-1.098 2.653q0 1.554 1.098 2.651A3.6 3.6 0 0 0 5.5 15.75q.59 0 1.138-.215a3.4 3.4 0 0 0 .986-.593l7.75-7a4.5 4.5 0 0 1 1.443-.886A4.7 4.7 0 0 1 18.5 6.75q2.196 0 3.723 1.527t1.527 3.722-1.527 3.723T18.5 17.25a4.5 4.5 0 0 1-1.674-.316 5.1 5.1 0 0 1-1.453-.876l-1.892-1.685 1.115-1.013 1.781 1.582a3.2 3.2 0 0 0 2.124.808q1.553 0 2.651-1.099A3.62 3.62 0 0 0 22.25 12q0-1.555-1.098-2.652a3.6 3.6 0 0 0-2.651-1.097q-.59 0-1.138.215a3.4 3.4 0 0 0-.986.593l-7.75 7a4.5 4.5 0 0 1-1.443.886 4.7 4.7 0 0 1-1.684.306"/></svg>