<svg xmlns="http://www.w3.org/2000/svg" width="24" height="24" viewBox="0 0 24 24" fill='currentColor'><path d="M12 21.558a9.6 9.6 0 0 1-3.12-.526 9.7 9.7 0 0 1-2.741-1.438 7.7 7.7 0 0 1-1.95-2.143 5 5 0 0 1-.747-2.643v-2.404l3.366 2.529-1.473 1.473q.725 1.477 2.348 2.445a8.5 8.5 0 0 0 3.567 1.16V11.04h-3v-1.5h3V7.825a2.9 2.9 0 0 1-1.433-.982 2.58 2.58 0 0 1-.567-1.65q0-1.146.803-1.948A2.65 2.65 0 0 1 12 2.442a2.65 2.65 0 0 1 1.947.803q.803.803.803 1.947a2.58 2.58 0 0 1-.567 1.651 2.9 2.9 0 0 1-1.433.982v1.714h3v1.5h-3v8.973a8.6 8.6 0 0 0 3.572-1.156q1.628-.964 2.344-2.44l-1.474-1.483 3.366-2.529v2.404q0 1.41-.747 2.643a7.7 7.7 0 0 1-1.95 2.143 9.7 9.7 0 0 1-2.74 1.438 9.6 9.6 0 0 1-3.121.526m0-15.116q.522 0 .886-.364t.364-.886q0-.52-.364-.885A1.2 1.2 0 0 0 12 3.942q-.522 0-.886.365a1.2 1.2 0 0 0-.364.885q0 .522.364.886t.886.364"/></svg>