<svg xmlns="http://www.w3.org/2000/svg" width="24" height="24" viewBox="0 0 24 24" fill='currentColor'><path d="M2.5 21.5v-19h9.75l5.25 5.25v4.644H16V8.5h-4.5V4H4v16h10.52v1.5zm2.98-2.885q.092-1.106.68-2.032a4.35 4.35 0 0 1 1.54-1.467l-.864-1.537q0-.016.088-.349a.4.4 0 0 1 .212-.038q.103.01.152.116l.88 1.576q.452-.177.905-.277t.928-.1.933.099q.456.098.899.278l.878-1.576q.01-.01.335-.09a.24.24 0 0 1 .138.16q.03.11-.016.2l-.858 1.538a4.3 4.3 0 0 1 1.537 1.467 4.4 4.4 0 0 1 .672 2.032zm2.491-1.355q.18 0 .312-.136a.44.44 0 0 0 .13-.316.44.44 0 0 0-.132-.317.42.42 0 0 0-.31-.135.43.43 0 0 0-.316.135.434.434 0 0 0 0 .633q.136.136.316.136m4.068 0q.18 0 .316-.136a.434.434 0 0 0 0-.633.434.434 0 0 0-.633 0 .434.434 0 0 0 0 .633q.135.136.317.136m7.23 4.24-3.644-3.654 1.044-1.069 1.85 1.834v-4.505h1.5v4.506l1.85-1.825 1.044 1.06z"/></svg>