<svg xmlns="http://www.w3.org/2000/svg" width="24" height="24" viewBox="0 0 24 24" fill='currentColor'><path d="M12 15.75q1.77 0 3.01-1.24 1.24-1.238 1.24-3.009t-1.24-3.01Q13.77 7.248 12 7.25v1.192q1.278 0 2.168.892.89.893.89 2.166 0 1.274-.892 2.166a2.95 2.95 0 0 1-2.166.892q-.807 0-1.505-.406A3.2 3.2 0 0 1 9.37 13.06l-1.011.61q.59.964 1.547 1.522A4.1 4.1 0 0 0 12 15.75m-3.654-3.333q.306 0 .518-.212a.7.7 0 0 0 .213-.518.7.7 0 0 0-.213-.519.7.7 0 0 0-.523-.212.705.705 0 0 0-.725.73.71.71 0 0 0 .73.731m.521-2.09q.306 0 .518-.208a.7.7 0 0 0 .213-.518.72.72 0 0 0-.73-.736.72.72 0 0 0-.73.736q-.002.31.211.518a.7.7 0 0 0 .518.208m1.431-1.394q.306 0 .518-.213a.7.7 0 0 0 .213-.518.7.7 0 0 0-.213-.518.7.7 0 0 0-.523-.213.705.705 0 0 0-.726.73.71.71 0 0 0 .731.732M12 21.48q-3.244-.885-5.372-3.82T4.5 11.1V5.346L12 2.538l7.5 2.808V11.1q0 3.627-2.128 6.562Q15.244 20.596 12 21.48m0-1.581q2.6-.825 4.3-3.3t1.7-5.5V6.375l-6-2.24-6 2.24V11.1q0 3.025 1.7 5.5t4.3 3.3"/></svg>