<svg xmlns="http://www.w3.org/2000/svg" width="24" height="24" viewBox="0 0 24 24" fill='currentColor'><path d="M4.577 17.973a10 10 0 0 1-1.366-2.34A10 10 0 0 1 2.519 13H4.05q.15 1.075.55 2.063.4.987 1.05 1.837zM2.519 11q.18-1.369.698-2.633a9 9 0 0 1 1.38-2.32L5.65 7.1A8 8 0 0 0 4.6 8.938 8.7 8.7 0 0 0 4.05 11zm8.431 10.45a9.6 9.6 0 0 1-2.62-.684 10.3 10.3 0 0 1-2.334-1.362L7.05 18.3q.875.65 1.85 1.075t2.05.575zM7.1 5.68 5.996 4.597A10.2 10.2 0 0 1 11 2.55v1.5a8.4 8.4 0 0 0-2.062.56Q7.95 5.022 7.1 5.68m5.85 15.77v-1.5a8.7 8.7 0 0 0 2.088-.553 7.7 7.7 0 0 0 1.862-1.078l1.104 1.085a9.7 9.7 0 0 1-2.384 1.37q-1.275.507-2.67.676m4-15.75a9 9 0 0 0-1.875-1.075A8.2 8.2 0 0 0 13 4.05v-1.5a10 10 0 0 1 5.004 2.046zm2.454 12.254L18.35 16.9a8 8 0 0 0 1.05-1.837q.4-.988.55-2.063h1.53q-.18 1.369-.697 2.633a9 9 0 0 1-1.38 2.32M19.95 11a8.7 8.7 0 0 0-.55-2.062A8 8 0 0 0 18.35 7.1l1.073-1.073a10 10 0 0 1 1.367 2.34q.522 1.264.69 2.633zm-8.684 5.654v-6.435l-2.85 2.85L7.362 12l4.653-4.654L16.67 12l-1.07 1.054-2.835-2.835v6.435z"/></svg>