<svg xmlns="http://www.w3.org/2000/svg" width="24" height="24" viewBox="0 0 24 24" fill='currentColor'><path d="M5.75 17V9.5h1.5V17zm5.5 0V9.5h1.5V17zM2.77 7.5V6.077L12 1.557l9.23 4.52V7.5zM6.33 6h11.34L12 3.25zM2.77 20.5V19h11.578q.03.4.087.762.056.363.157.738zm13.98-6.74V9.5h1.5v3.51zM20 23.615q-1.6-.396-2.646-1.833a5.3 5.3 0 0 1-1.046-3.193V16.23L20 14.385l3.692 1.846v2.357a5.3 5.3 0 0 1-1.046 3.194Q21.6 23.22 20 23.615m-.725-2.826 3.254-3.239-.838-.838-2.416 2.384-.975-.975-.838.854z"/></svg>