<svg xmlns="http://www.w3.org/2000/svg" width="24" height="24" viewBox="0 0 24 24" fill='currentColor'><path d="M11.856 21.5q-2.437 0-4.137-1.71t-1.7-4.146V8.127L1.746 3.854 2.8 2.8l18.4 18.4-1.054 1.054-3.44-3.44a5.9 5.9 0 0 1-2.038 1.948q-1.268.738-2.812.738M7.519 9.627v6.017q-.015 1.814 1.254 3.085 1.27 1.27 3.083 1.271 1.24 0 2.225-.626a4.34 4.34 0 0 0 1.53-1.655l-1.615-1.615a2.3 2.3 0 0 1-.809 1.079q-.578.432-1.331.432a2.37 2.37 0 0 1-1.734-.713 2.36 2.36 0 0 1-.718-1.739v-3.652zm3.385 3.384v2.153q0 .402.27.677t.672.275q.387 0 .657-.268a.94.94 0 0 0 .286-.654v-.298zm5.269.341V6.385h1.5v8.477zm-3.384-3.404V6.644q-.015-1.107-.772-1.876Q11.261 4 10.154 4q-.68 0-1.228.31a2.8 2.8 0 0 0-.918.829l-1.07-1.07a4.2 4.2 0 0 1 1.405-1.148 3.94 3.94 0 0 1 1.81-.421q1.732 0 2.933 1.212 1.203 1.21 1.203 2.942v4.804zm-1.885-3.563v1.669l-1.5-1.51v-.16z"/></svg>