<svg xmlns="http://www.w3.org/2000/svg" width="24" height="24" viewBox="0 0 24 24" fill='currentColor'><path d="M10.904 18.539h2.192V14.23H14.5v-5.5h-5v5.5h1.404zm1.093 2.961q-1.95 0-3.683-.747a9.6 9.6 0 0 1-3.026-2.041 9.6 9.6 0 0 1-2.04-3.026 9.2 9.2 0 0 1-.748-3.683q0-1.975.749-3.7a9.7 9.7 0 0 1 2.04-3.015A9.6 9.6 0 0 1 8.313 3.25a9.2 9.2 0 0 1 3.684-.749 9.2 9.2 0 0 1 3.698.749q1.725.75 3.017 2.04a9.7 9.7 0 0 1 2.039 3.015q.75 1.725.749 3.699 0 1.95-.749 3.685a9.6 9.6 0 0 1-2.04 3.024 9.7 9.7 0 0 1-3.015 2.039q-1.725.75-3.699.749M12 20q3.325 0 5.663-2.337T20 12t-2.337-5.662T12 4 6.338 6.338 4 12t2.338 5.663T12 20m0-11.846q.573 0 .96-.387.386-.385.386-.96 0-.572-.386-.959a1.3 1.3 0 0 0-.96-.386q-.573 0-.96.386a1.3 1.3 0 0 0-.386.96q0 .573.386.96.387.386.96.386"/></svg>