<svg xmlns="http://www.w3.org/2000/svg" width="24" height="24" viewBox="0 0 24 24" fill='currentColor'><path d="M9.25 14.75v-5.5h5.5v5.5zM12 22.5q-2.806 0-5.163-1.367Q4.479 19.765 3 17.29v3.21H1.5v-5.692h5.683v1.5H4.175q1.218 2.182 3.29 3.437A8.6 8.6 0 0 0 12 21q2.923 0 5.275-1.712t3.264-4.496l1.469.325q-1.03 3.315-3.789 5.348Q15.46 22.5 12 22.5M1.55 11a11.3 11.3 0 0 1 .752-3.006q.567-1.387 1.61-2.679l1.079 1.06a9.7 9.7 0 0 0-1.272 2.144A9.6 9.6 0 0 0 3.066 11zm4.84-6.016L5.33 3.906a11 11 0 0 1 2.702-1.618A9.8 9.8 0 0 1 11 1.57v1.5q-1.245.125-2.41.62t-2.2 1.295m11.216 0a9 9 0 0 0-2.178-1.29A8.2 8.2 0 0 0 13 3.07v-1.5q1.55.141 2.991.732a10.4 10.4 0 0 1 2.684 1.614zM20.93 11a8.6 8.6 0 0 0-1.935-4.616l1.07-1.069A10 10 0 0 1 21.69 7.98q.59 1.44.74 3.02z"/></svg>