<svg xmlns="http://www.w3.org/2000/svg" width="24" height="24" viewBox="0 0 24 24" fill='currentColor'><path d="M6.163 20.5a3.54 3.54 0 0 1-2.589-1.07A3.5 3.5 0 0 1 2.5 16.852q0-1.51 1.076-2.585t2.588-1.074a3.53 3.53 0 0 1 1.946.573l2.836-2.851L8.144 8.07a2.6 2.6 0 0 1-.6-.892 2.6 2.6 0 0 1-.188-.972q0-1.05.743-1.878.742-.83 1.959-.829h3.884q1.212 0 1.952.828t.74 1.88q0 .501-.188.989a2.6 2.6 0 0 1-.6.9l-2.792 2.817 2.811 2.851a3.2 3.2 0 0 1 .919-.429 3.8 3.8 0 0 1 1.053-.144q1.511 0 2.587 1.074 1.076 1.072 1.076 2.58a3.5 3.5 0 0 1-1.076 2.585 3.54 3.54 0 0 1-2.587 1.069q-1.525 0-2.6-1.07a3.5 3.5 0 0 1-1.073-2.584q0-.55.164-1.065.165-.516.468-.972L12 11.984 9.204 14.82q.303.46.467.969t.165 1.058q0 1.515-1.078 2.585A3.55 3.55 0 0 1 6.163 20.5m.003-1.5q.896 0 1.533-.633t.637-1.52q0-.89-.637-1.522a2.1 2.1 0 0 0-1.533-.633q-.895 0-1.53.633A2.07 2.07 0 0 0 4 16.846q0 .889.636 1.521.635.633 1.53.633m11.668 0q.895 0 1.53-.633a2.07 2.07 0 0 0 .636-1.52q0-.89-.636-1.522a2.1 2.1 0 0 0-1.53-.633q-.896 0-1.533.633a2.07 2.07 0 0 0-.637 1.521q0 .889.637 1.521.637.633 1.533.633M10.058 5q-.537 0-.865.362a1.197 1.197 0 0 0 .02 1.665L12 9.844l2.787-2.802q.179-.179.263-.397t.085-.453q0-.467-.328-.83T13.942 5z"/></svg>