<svg xmlns="http://www.w3.org/2000/svg" width="24" height="24" viewBox="0 0 24 24" fill='currentColor'><path d="M12 21.5q-1.755 0-3.3-.67a8.6 8.6 0 0 1-2.704-1.826A8.6 8.6 0 0 1 4.17 16.3 8.2 8.2 0 0 1 3.5 13H5q0 2.9 2.05 4.95T12 20t4.95-2.05T19 13h1.5q0 1.755-.67 3.3a8.6 8.6 0 0 1-1.826 2.704A8.6 8.6 0 0 1 15.3 20.83q-1.545.669-3.3.669M3.5 13q0-1.755.67-3.3a8.6 8.6 0 0 1 1.826-2.704A8.6 8.6 0 0 1 8.7 5.17 8.2 8.2 0 0 1 12 4.5q1.502 0 2.893.51 1.392.51 2.584 1.46l1.246-1.247 1.054 1.054-1.246 1.246a9.2 9.2 0 0 1 1.46 2.584q.51 1.391.509 2.893H19q0-2.9-2.05-4.95T12 6 7.05 8.05 5 13zM9.192 2.75v-1.5h5.616v1.5zM12 6Q9.292 6 7.309 7.802 5.325 9.604 5.046 12.25h3.425l1.483 2.852L14 7.625l2.456 4.625h2.498q-.279-2.646-2.263-4.448T12 6m0 14q2.708 0 4.691-1.802 1.984-1.802 2.263-4.448h-3.425l-1.483-2.852L10 18.375 7.544 13.75H5.046q.279 2.646 2.263 4.448T12 20m0 0q-2.9 0-4.95-2.05T5 13t2.05-4.95T12 6t4.95 2.05T19 13t-2.05 4.95T12 20"/></svg>