<svg xmlns="http://www.w3.org/2000/svg" width="24" height="24" viewBox="0 0 24 24" fill='currentColor'><path d="M6.057 8a.73.73 0 0 1-.534-.216.73.73 0 0 1-.215-.534q0-.32.215-.534a.73.73 0 0 1 .535-.216q.319 0 .534.216a.73.73 0 0 1 .216.534q0 .32-.216.535A.73.73 0 0 1 6.057 8M10 21.115a3.4 3.4 0 0 1-2.474-1.03 3.36 3.36 0 0 1-1.026-2.47v-6q0-2.291 1.604-3.895T12 6.116h1.825q1.514 0 2.594 1.015t1.081 2.5q0 1.011-.538 1.857a3.45 3.45 0 0 1-1.458 1.285 3.46 3.46 0 0 0-1.464 1.298q-.54.855-.54 1.87v1.674q0 1.464-1.018 2.487T10 21.115M8.317 6a.73.73 0 0 1-.534-.215.73.73 0 0 1-.216-.535v-.596q0-.319.216-.534a.73.73 0 0 1 .535-.216q.318 0 .534.216a.73.73 0 0 1 .215.534v.596q0 .319-.216.535A.73.73 0 0 1 8.317 6M10 19.615q.825 0 1.412-.587.588-.588.588-1.413V15.94q0-1.45.762-2.675a4.83 4.83 0 0 1 2.088-1.85q.525-.25.838-.737A1.93 1.93 0 0 0 16 9.615a1.82 1.82 0 0 0-.65-1.432 2.25 2.25 0 0 0-1.525-.568H12q-1.65 0-2.825 1.175T8 11.615v6q0 .825.587 1.413.588.587 1.413.587M11.125 5a.73.73 0 0 1-.534-.215.73.73 0 0 1-.216-.535v-.596q0-.319.216-.534a.73.73 0 0 1 .534-.216q.32 0 .534.216a.73.73 0 0 1 .216.534v.596q0 .319-.216.535a.73.73 0 0 1-.534.215m2.807 0a.73.73 0 0 1-.534-.215.73.73 0 0 1-.215-.535V3.154q0-.319.216-.534a.73.73 0 0 1 .534-.216q.319 0 .534.216a.73.73 0 0 1 .216.534V4.25q0 .319-.216.535a.73.73 0 0 1-.535.215m3.25.904q-.49 0-.84-.351a1.15 1.15 0 0 1-.351-.841v-1.02q0-.49.35-.841.351-.351.842-.351.49 0 .841.351.351.35.351.841v1.02q0 .49-.351.841-.35.35-.841.35"/></svg>