<svg xmlns="http://www.w3.org/2000/svg" width="24" height="24" viewBox="0 0 24 24" fill='currentColor'><path d="M16.439 19.335q0-.321.017-.63t.176-.589q.228-.396.585-.673.358-.277.612-.645.069-.092.169-.532a.81.81 0 0 0-.303-.65 1.05 1.05 0 0 0-.695-.255q-.396 0-.687.256-.292.255-.417.652l-1.013-.436q.23-.693.805-1.11.576-.415 1.312-.415.852 0 1.485.553.632.553.632 1.383 0 .246-.065.47a1.3 1.3 0 0 1-.205.41q-.256.375-.598.658-.34.283-.555.68-.142.255-.142.872zM17 21.691a.77.77 0 0 1-.552-.22.73.73 0 0 1-.23-.547.74.74 0 0 1 .23-.546.76.76 0 0 1 .551-.227q.323 0 .545.228a.76.76 0 0 1 .223.547.74.74 0 0 1-.22.542.74.74 0 0 1-.547.223M7.442 21.5V4.24h2.712V2.5h3.692v1.74h2.712v7.856a6 6 0 0 0-.77.088q-.37.068-.73.195V5.73H8.942V20h2.456q.151.43.358.801.205.37.49.699z"/></svg>