<svg xmlns="http://www.w3.org/2000/svg" width="24" height="24" viewBox="0 0 24 24" fill='currentColor'><path d="M7.442 21.5V4.24h2.712V2.5h3.692v1.74h2.712v6.193a7 7 0 0 0-.77.06q-.37.05-.73.163V5.73H8.942V20h1.883q.208.43.466.801.259.37.584.699zm8.587 0-.204-1.183a3.2 3.2 0 0 1-.75-.313 3.6 3.6 0 0 1-.604-.456l-1.123.433-.788-1.293.913-.788a3.4 3.4 0 0 1-.117-.834q0-.375.117-.835l-.913-.789.788-1.292 1.123.433q.289-.267.604-.464.315-.196.75-.321l.204-1.182h1.5l.204 1.182q.435.125.75.313.315.189.604.456l1.122-.432.789 1.292-.914.788q.118.462.118.835t-.118.835l.914.788-.789 1.292-1.122-.417q-.29.267-.604.456-.315.188-.75.313l-.204 1.183zm.75-2.365q.855 0 1.465-.612a2 2 0 0 0 .612-1.465 2 2 0 0 0-.612-1.466 2 2 0 0 0-1.465-.611 2 2 0 0 0-1.466.611 2 2 0 0 0-.611 1.466q0 .853.611 1.465.612.612 1.466.612"/></svg>