<svg xmlns="http://www.w3.org/2000/svg" width="24" height="24" viewBox="0 0 24 24" fill='currentColor'><path d="m19.785 17.779-1.08-1.079a7.3 7.3 0 0 0 1.564-1.97 11.8 11.8 0 0 1-3.013-.7 10.8 10.8 0 0 1-2.681-1.47l-3.184-3.185a10.86 10.86 0 0 1-2.147-5.67A7.3 7.3 0 0 0 7.275 5.27L6.221 4.216a9.1 9.1 0 0 1 2.087-1.662 9.6 9.6 0 0 1 2.519-1.015 10.5 10.5 0 0 0 .496 4.669 10.25 10.25 0 0 0 2.49 3.979 10.25 10.25 0 0 0 3.98 2.49q2.26.772 4.669.496a9.1 9.1 0 0 1-1.008 2.52 9.3 9.3 0 0 1-1.67 2.086m-.381 4.588-2.671-2.67q-.83.324-1.7.492a9.4 9.4 0 0 1-1.789.167 9.3 9.3 0 0 1-3.74-.757 9.7 9.7 0 0 1-3.046-2.057A9.7 9.7 0 0 1 4.4 14.497a9.3 9.3 0 0 1-.757-3.741 9.4 9.4 0 0 1 .66-3.489L1.658 4.621l1.069-1.069 17.746 17.746zm-6.16-3.511q.586 0 1.173-.087a7 7 0 0 0 1.13-.26L5.49 8.455a7.8 7.8 0 0 0-.346 2.302q0 3.375 2.363 5.737t5.737 2.363"/></svg>