<svg xmlns="http://www.w3.org/2000/svg" width="24" height="24" viewBox="0 0 24 24" fill='currentColor'><path d="M5.442 20.75v-1.5h5v-2.5h-.25q-1.971 0-3.36-1.39-1.39-1.389-1.39-3.36 0-1.456.819-2.649a4.7 4.7 0 0 1 2.185-1.74 2.08 2.08 0 0 1 .883-1.48 2.1 2.1 0 0 1 1.663-.381l-.607-1.685.95-.35-.35-.919 1.534-.565.32.95.911-.331 2.615 7.134-.911.35.35.95-1.535.566-.319-.95-.95.37-.62-1.747q-.336.389-.814.602t-.997.183a2.13 2.13 0 0 1-1.078-.352 2.6 2.6 0 0 1-.791-.814A3.17 3.17 0 0 0 6.942 12q0 1.354.948 2.302t2.302.948h7.75v1.5h-5.384v2.5h6v1.5zm8.285-11.046 1.092-.427-1.777-4.912-1.142.408zm-3.035-.589q.474 0 .794-.32.322-.32.322-.794t-.32-.795a1.08 1.08 0 0 0-.795-.322q-.473 0-.795.321a1.08 1.08 0 0 0-.321.794q0 .474.32.795.321.321.795.321"/></svg>