<svg xmlns="http://www.w3.org/2000/svg" width="24" height="24" viewBox="0 0 24 24" fill='currentColor'><path d="M2.5 9.058v-2.75q0-.758.525-1.283T4.308 4.5h15.384q.758 0 1.283.525t.525 1.283v5.5H20v-5.5a.3.3 0 0 0-.096-.212.3.3 0 0 0-.212-.096H4.308a.3.3 0 0 0-.212.096.3.3 0 0 0-.096.212v2.75zM10.81 19.5H4.308q-.758 0-1.283-.525a1.75 1.75 0 0 1-.525-1.283v-2.75H4v2.75q0 .116.096.212a.3.3 0 0 0 .212.096h6.075q.065.4.167.77t.26.73m6.19 2q-1.873 0-3.187-1.314Q12.5 18.874 12.5 17t1.313-3.187T17 12.5t3.186 1.313Q21.5 15.128 21.5 17t-1.314 3.186Q18.874 21.5 17 21.5m.2-4.077 2.102-2.102-.623-.623-2.102 2.102zM2.5 12.75v-1.5h2.946L7 14.333l3.59-7.246h.785l2.123 4.227q-.334.217-.646.445-.312.227-.575.506l-1.286-2.573-3.616 7.231h-.77L4.53 12.75z"/></svg>