<svg xmlns="http://www.w3.org/2000/svg" width="24" height="24" viewBox="0 0 24 24" fill='currentColor'><path d="M6.252 15.846q.546 0 .926-.382t.38-.928-.382-.925a1.27 1.27 0 0 0-.928-.38q-.546 0-.926.382t-.38.928.382.925.928.38m9.077 0q.546 0 .926-.382t.38-.928-.383-.925a1.27 1.27 0 0 0-.927-.38q-.546 0-.926.382t-.38.928.382.925.928.38M2.29 20.5v-8.423L4.594 5.5H14.79V7H5.658l-1.262 3.577h10.393v1.5h-11V17h14v-4.923h1.5V20.5h-2.116v-2H4.403v2zm16.207-9.558V7.065L16.14 9.423l-.624-.623 2.8-2.8-2.8-2.8.624-.623 2.357 2.358V1.058h.423l2.793 2.823L19.562 6l2.15 2.15-2.793 2.791zm.885-6.007 1.084-1.054-1.084-1.085zm0 4.3 1.084-1.085-1.084-1.085z"/></svg>