<svg xmlns="http://www.w3.org/2000/svg" width="24" height="24" viewBox="0 0 24 24" fill='currentColor'><path d="M10 10.923q.391 0 .658-.265a.9.9 0 0 0 .265-.658.9.9 0 0 0-.265-.658.9.9 0 0 0-.658-.265.9.9 0 0 0-.658.265.9.9 0 0 0-.265.658q0 .391.265.658a.9.9 0 0 0 .658.265m0 4q.391 0 .658-.265a.9.9 0 0 0 .265-.658.9.9 0 0 0-.265-.658.9.9 0 0 0-.658-.265.9.9 0 0 0-.658.265.9.9 0 0 0-.265.658q0 .391.265.658a.9.9 0 0 0 .658.265M7 10.5a.48.48 0 0 0 .35-.15.48.48 0 0 0 0-.7.48.48 0 0 0-.7 0 .48.48 0 0 0 0 .7q.15.15.35.15m3 7a.48.48 0 0 0 .35-.15.48.48 0 0 0 0-.7.48.48 0 0 0-.7 0 .48.48 0 0 0 0 .7q.15.15.35.15m-3-3a.48.48 0 0 0 .35-.15.48.48 0 0 0 0-.7.48.48 0 0 0-.7 0 .48.48 0 0 0 0 .7q.15.15.35.15m3-7a.48.48 0 0 0 .35-.15.48.48 0 0 0 0-.7.48.48 0 0 0-.7 0 .48.48 0 0 0 0 .7q.15.15.35.15m4 3.423q.391 0 .658-.265a.9.9 0 0 0 .265-.658.9.9 0 0 0-.265-.658.9.9 0 0 0-.658-.265.9.9 0 0 0-.658.265.9.9 0 0 0-.265.658q0 .391.265.658a.9.9 0 0 0 .658.265M14 7.5a.48.48 0 0 0 .35-.15.48.48 0 0 0 0-.7.48.48 0 0 0-.7 0 .48.48 0 0 0 0 .7q.15.15.35.15m3 7a.48.48 0 0 0 .35-.15.48.48 0 0 0 0-.7.48.48 0 0 0-.7 0 .48.48 0 0 0 0 .7q.15.15.35.15m0-4a.48.48 0 0 0 .35-.15.48.48 0 0 0 0-.7.48.48 0 0 0-.7 0 .48.48 0 0 0 0 .7q.15.15.35.15m-4.998 11a9.3 9.3 0 0 1-3.706-.748 9.6 9.6 0 0 1-3.016-2.03 9.6 9.6 0 0 1-2.032-3.016 9.25 9.25 0 0 1-.748-3.704q0-1.972.748-3.706a9.6 9.6 0 0 1 2.03-3.016 9.6 9.6 0 0 1 3.016-2.032 9.25 9.25 0 0 1 3.704-.748q1.972 0 3.706.748a9.6 9.6 0 0 1 3.017 2.03 9.6 9.6 0 0 1 2.03 3.016 9.25 9.25 0 0 1 .749 3.704q0 1.972-.748 3.706a9.6 9.6 0 0 1-2.03 3.017 9.6 9.6 0 0 1-3.016 2.03 9.25 9.25 0 0 1-3.704.749M12 20q3.35 0 5.675-2.325T20 12t-2.325-5.675T12 4 6.325 6.325 4 12t2.325 5.675T12 20m2-2.5a.48.48 0 0 0 .35-.15.48.48 0 0 0 0-.7.48.48 0 0 0-.7 0 .48.48 0 0 0 0 .7q.15.15.35.15m0-2.577q.391 0 .658-.265a.9.9 0 0 0 .265-.658.9.9 0 0 0-.265-.658.9.9 0 0 0-.658-.265.9.9 0 0 0-.658.265.9.9 0 0 0-.265.658q0 .391.265.658a.9.9 0 0 0 .658.265"/></svg>