<svg xmlns="http://www.w3.org/2000/svg" width="24" height="24" viewBox="0 0 24 24" fill='currentColor'><path d="M8.4 18.862q.757.425 1.42.707.66.283 1.482.377l-1.28 1.265a9 9 0 0 1-.829-.258q-.406-.15-.824-.363-1.048.46-2.128.685-1.082.225-2.21.225H3.5V20h.53q1.124 0 2.163-.282a12.3 12.3 0 0 0 2.207-.857M9.817 2.5h4.327v2h4.577v4.029a6 6 0 0 0-.745-.096 5 5 0 0 0-.755.005V6H6.741v3.671l5.24-1.498 2.752.773a5.3 5.3 0 0 0-.973.458q-.448.27-.823.621l-.956-.287-7.046 2.008 1.102 3.85q.39-.27.73-.593.341-.324.673-.686l.852-.905.93 1.065q.426.486.88.923t.994.671v1.596a4.4 4.4 0 0 1-1.755-.95q-.754-.67-1.11-1.082a9.2 9.2 0 0 1-1.506 1.275 6 6 0 0 1-1.64.752L3 10.721l2.24-.641V4.5h4.577zm3.472 19 1.846-1.846q-.762 0-1.304-.543a1.78 1.78 0 0 1-.542-1.303v-3.5q0-1.639 1.149-2.666 1.148-1.026 2.968-1.026t2.957 1.026 1.137 2.666v3.5q0 .761-.542 1.303a1.78 1.78 0 0 1-1.304.543L21.5 21.5zm4.057-3.577q.29 0 .501-.21.21-.21.21-.502 0-.29-.21-.5a.68.68 0 0 0-.5-.211q-.29 0-.502.21a.68.68 0 0 0-.21.502q0 .29.21.5t.501.211m-2.865-2.692h5.827v-.925q0-.255-.046-.48a2.3 2.3 0 0 0-.135-.441h-5.465a2.3 2.3 0 0 0-.181.923z"/></svg>