<svg xmlns="http://www.w3.org/2000/svg" width="24" height="24" viewBox="0 0 24 24" fill='currentColor'><path d="M8.796 22.185q-2.915 0-4.963-2.06t-2.048-4.971q0-2.933 2.056-4.95 2.057-2.02 5-2.02a7 7 0 0 1 .517.02l1.31-2.302 1.886 1.079.125-.2q.546-.989 1.656-1.285a2.65 2.65 0 0 1 2.098.281l.654.375-.75 1.292-.654-.375a1.22 1.22 0 0 0-.96-.12 1.18 1.18 0 0 0-.762.582l-.115.2 2.025 1.146-1.313 2.327q.575.92.906 1.932.33 1.013.33 2.106 0 2.904-2.04 4.923-2.042 2.02-4.958 2.02m-.002-1.49q2.284 0 3.893-1.613 1.607-1.612 1.607-3.888 0-.774-.212-1.525a5.5 5.5 0 0 0-.638-1.425l-.65-1.025 1.04-1.8-2.6-1.5-1.04 1.781H9.056q-2.35 0-4.069 1.534t-1.718 3.91q0 2.3 1.613 3.925t3.912 1.625M19.5 8.741v-1.5H22v1.5zm-4.942-5.057v-2.5h1.5v2.5zm4.557 1.63L18.071 4.27l1.77-1.779 1.043 1.054z"/></svg>