<svg xmlns="http://www.w3.org/2000/svg" width="24" height="24" viewBox="0 0 24 24" fill='currentColor'><path d="M6.116 21.5a2.53 2.53 0 0 1-1.851-.76 2.5 2.5 0 0 1-.765-1.836V5.116q0-1.088.765-1.851a2.52 2.52 0 0 1 1.85-.765h10.693v15.308H6.116q-.465 0-.79.316-.326.315-.326.78 0 .463.326.78.325.316.79.316H19V4.5h1.5v17zm0-5.192h9.192V4H6.116q-.473 0-.795.326Q5 4.651 5 5.116v11.482q.26-.122.53-.207.273-.083.585-.083m.951-2.924h1.008l.621-1.694h2.94l.606 1.694h.999l-2.539-6.768H9.616zm1.94-2.568 1.141-3.132h.03l1.132 3.132z"/></svg>