<svg xmlns="http://www.w3.org/2000/svg" width="24" height="24" viewBox="0 0 24 24" fill='currentColor'><path d="M5 16.598q.26-.122.53-.207.271-.083.585-.083h1.077V4H6.115a1.07 1.07 0 0 0-.794.326Q5 4.651 5 5.116zM6.116 21.5a2.53 2.53 0 0 1-1.853-.757 2.5 2.5 0 0 1-.763-1.84V5.117q0-1.09.763-1.853A2.52 2.52 0 0 1 6.116 2.5h7.134V4H8.692v12.308h6.616V12.75h1.5v5.058H6.116q-.465 0-.79.314a1.04 1.04 0 0 0-.326.78q0 .464.326.782.325.316.79.316H19v-8.25h1.5v9.75zM17.5 11.75q0-2.196 1.527-3.723Q20.555 6.5 22.75 6.5q-2.196 0-3.723-1.527Q17.5 3.445 17.5 1.25q0 2.196-1.527 3.723Q14.445 6.5 12.25 6.5q2.196 0 3.723 1.527Q17.5 9.555 17.5 11.75"/></svg>