<svg xmlns="http://www.w3.org/2000/svg" width="24" height="24" viewBox="0 0 24 24" fill='currentColor'><path d="M3.5 20.5v-1.616h1.616V20.5zm0-3.846v-1.615h1.616v1.615zm0-7.693V7.346h1.616v1.615zm0-3.846V3.5h1.616v1.616zM7.346 20.5v-1.616h1.615V20.5zm0-15.384V3.5h1.615v1.616zM15.04 20.5v-1.616h1.615V20.5zm3.845 0v-1.616H20.5V20.5zm0-3.846v-1.615H20.5v1.615zm0-7.693V7.346H20.5v1.615zm0-3.846V3.5H20.5v1.616zm-3.845 0V3.5h1.615v1.616zM11.25 20.5v-7.75H3.5v-1.5h7.75V3.5h1.5v7.75h7.75v1.5h-7.75v7.75z"/></svg>