<svg xmlns="http://www.w3.org/2000/svg" width="24" height="24" viewBox="0 0 24 24" fill='currentColor'><path d="M4.5 20.5V10.162a4.5 4.5 0 0 1-1.438-1.338A3.15 3.15 0 0 1 2.5 7q0-1.448 1.026-2.474A3.37 3.37 0 0 1 6 3.5h12q1.448 0 2.474 1.026A3.37 3.37 0 0 1 21.5 7q0 1.008-.561 1.824a4.5 4.5 0 0 1-1.439 1.338V20.5zM6 19h12V9.3l.77-.465q.507-.315.869-.778.36-.465.361-1.057 0-.824-.587-1.412A1.93 1.93 0 0 0 18 5H6q-.824 0-1.412.588A1.93 1.93 0 0 0 4 7q0 .607.354 1.08.354.472.877.786L6 9.3zm6-1.889L16.13 13 12 8.87 7.889 13zm0-2.107L9.996 13 12 10.977 14.023 13z"/></svg>