<svg xmlns="http://www.w3.org/2000/svg" width="24" height="24" viewBox="0 0 24 24" fill='currentColor'><path d="M9.25 20q3.325 0 5.663-2.337T17.25 12t-2.338-5.662T9.25 4h-.525q-.25 0-.475.05 1.425 1.65 2.213 3.688.787 2.037.787 4.262t-.787 4.262A12.5 12.5 0 0 1 8.25 19.95q.225.05.475.05zm0 1.5a9 9 0 0 1-2.064-.236 8 8 0 0 1-1.936-.73 10.3 10.3 0 0 0 3.307-3.702A10.15 10.15 0 0 0 9.75 12q0-2.585-1.193-4.832A10.3 10.3 0 0 0 5.25 3.466a8 8 0 0 1 1.936-.73A9 9 0 0 1 9.25 2.5q1.972 0 3.705.748a9.6 9.6 0 0 1 3.016 2.03 9.6 9.6 0 0 1 2.03 3.016 9.2 9.2 0 0 1 .749 3.704q0 1.972-.748 3.706a9.6 9.6 0 0 1-2.03 3.017 9.6 9.6 0 0 1-3.017 2.03 9.25 9.25 0 0 1-3.705.749"/></svg>