<svg xmlns="http://www.w3.org/2000/svg" width="24" height="24" viewBox="0 0 24 24" fill='currentColor'><path d="M12 22.608 8.86 19.5H4.5v-4.36L1.392 12 4.5 8.86V4.5h4.36L12 1.392 15.14 4.5h4.36v4.36L22.608 12 19.5 15.14v4.36h-4.36zm0-5.993q1.915 0 3.265-1.35T16.615 12t-1.35-3.265T12 7.385t-3.265 1.35T7.385 12t1.35 3.265T12 16.615m0-1.5q-1.297 0-2.207-.908A3 3 0 0 1 8.884 12q0-1.297.91-2.207A3 3 0 0 1 12 8.885q1.297 0 2.207.908.909.91.909 2.207 0 1.298-.91 2.207a3 3 0 0 1-2.206.909m0 5.385 2.5-2.5H18v-3.5l2.5-2.5L18 9.5V6h-3.5L12 3.5 9.5 6H6v3.5L3.5 12 6 14.5V18h3.5z"/></svg>