<svg xmlns="http://www.w3.org/2000/svg" width="24" height="24" viewBox="0 0 24 24" fill='currentColor'><path d="M12.137 19.34a7.83 7.83 0 0 0 3.604-2.911A7.7 7.7 0 0 0 17.096 12a7.7 7.7 0 0 0-1.355-4.429 7.83 7.83 0 0 0-3.604-2.911 11.2 11.2 0 0 1 1.98 3.425q.681 1.884.681 3.915t-.682 3.915a11.2 11.2 0 0 1-1.98 3.425m-3.04 2.16a7.2 7.2 0 0 1-1.982-.277 9.8 9.8 0 0 0 4.496-3.67A9.74 9.74 0 0 0 13.298 12q0-3.044-1.687-5.554a9.8 9.8 0 0 0-4.496-3.669A7.2 7.2 0 0 1 9.096 2.5q1.972 0 3.705.748a9.6 9.6 0 0 1 3.017 2.03 9.6 9.6 0 0 1 2.03 3.016 9.25 9.25 0 0 1 .748 3.704q0 1.972-.748 3.706a9.6 9.6 0 0 1-2.03 3.017 9.6 9.6 0 0 1-3.017 2.03 9.25 9.25 0 0 1-3.705.749"/></svg>