<svg xmlns="http://www.w3.org/2000/svg" width="24" height="24" viewBox="0 0 24 24" fill='currentColor'><path d="M12.002 21.5a9.3 9.3 0 0 1-3.706-.748 9.6 9.6 0 0 1-3.016-2.03 9.6 9.6 0 0 1-2.032-3.016 9.25 9.25 0 0 1-.748-3.704q0-1.972.748-3.706a9.6 9.6 0 0 1 2.03-3.016 9.6 9.6 0 0 1 3.017-2.032A9.25 9.25 0 0 1 12 2.5q.452 0 .904.053.451.053.904.103v1.521q-.453-.05-.904-.103A8 8 0 0 0 12 4.021a11 11 0 0 0-1.282 2.042q-.526 1.084-.858 2.264h3.332v1.5H9.515q-.093.538-.136 1.084a14 14 0 0 0 0 2.18q.043.544.136 1.082h4.97q.094-.539.136-1.083a14 14 0 0 0 .012-1.994q-.03-.451-.09-.904h1.5a14 14 0 0 1 .12 1.808q0 .545-.042 1.09-.043.544-.136 1.083h3.717q.154-.539.226-1.083A8 8 0 0 0 20 12a7.8 7.8 0 0 0-.212-1.808h1.54A10 10 0 0 1 21.5 12q0 1.972-.748 3.705a9.6 9.6 0 0 1-2.03 3.016 9.6 9.6 0 0 1-3.016 2.03 9.25 9.25 0 0 1-3.704.749m-7.704-7.327h3.717q-.093-.538-.136-1.084a14 14 0 0 1 0-2.18q.042-.544.136-1.082H4.298a7.6 7.6 0 0 0-.226 1.084 8.3 8.3 0 0 0 0 2.18q.072.544.226 1.082m5.765 5.55a11 11 0 0 1-1.061-1.944 13.3 13.3 0 0 1-.687-2.106H4.927a7.75 7.75 0 0 0 2.118 2.615 7.34 7.34 0 0 0 3.018 1.435M4.927 8.327h3.392q.273-1.08.707-2.096.434-1.018 1.037-1.954A7.5 7.5 0 0 0 7.05 5.721a7.75 7.75 0 0 0-2.123 2.606M12 19.979q.74-.978 1.28-2.052.542-1.073.86-2.254H9.86q.319 1.18.856 2.265A12 12 0 0 0 12 19.978m1.937-.256a7.2 7.2 0 0 0 3.018-1.43 7.8 7.8 0 0 0 2.118-2.62h-3.392q-.303 1.07-.721 2.092-.42 1.021-1.024 1.958M16 8V2.5h5.5V8zm2.846-2.846h1.77v-1.77h-1.77z"/></svg>