<svg xmlns="http://www.w3.org/2000/svg" width="24" height="24" viewBox="0 0 24 24" fill='currentColor'><path d="M14.406 20.5a2.53 2.53 0 0 1-1.853-.762 2.52 2.52 0 0 1-.764-1.851q0-1.09.762-1.853a2.52 2.52 0 0 1 1.85-.765q1.089 0 1.854.763.765.761.764 1.85 0 1.09-.762 1.853a2.52 2.52 0 0 1-1.851.765m-.002-1.5q.463 0 .79-.326.325-.325.325-.79 0-.462-.326-.789a1.08 1.08 0 0 0-.79-.326q-.462 0-.789.326-.325.326-.325.79 0 .463.325.789.326.326.79.326m2.096-5.5q-2.099 0-3.549-1.451-1.45-1.45-1.451-3.549 0-2.098 1.451-3.549 1.45-1.45 3.549-1.451 2.099 0 3.549 1.451 1.45 1.45 1.451 3.549 0 2.099-1.451 3.549-1.45 1.45-3.549 1.451m0-1.5q1.475 0 2.488-1.012T20 8.5q0-1.474-1.012-2.487T16.5 5q-1.474 0-2.488 1.013Q13 7.026 13 8.5t1.012 2.488Q15.026 12 16.5 12m-9.384 5.615q-1.492 0-2.554-1.062T3.5 14t1.062-2.553 2.553-1.062 2.554 1.062T10.73 14t-1.062 2.553-2.554 1.062m0-1.5q.873 0 1.494-.621.62-.621.62-1.494t-.62-1.494a2.04 2.04 0 0 0-1.495-.622q-.873 0-1.494.622A2.04 2.04 0 0 0 5 14q0 .873.622 1.494.621.621 1.494.622"/></svg>