<svg xmlns="http://www.w3.org/2000/svg" width="24" height="24" viewBox="0 0 24 24" fill='currentColor'><path d="M18.702 17.394v-1.602q.565-.246.932-.758.366-.513.366-1.159v-5.75q0-.883-.636-1.504A2.1 2.1 0 0 0 17.838 6H8.906L4 11.634V16h1.221v1.5H2.5v-6.433L8.211 4.5h9.626q1.515 0 2.589 1.06A3.47 3.47 0 0 1 21.5 8.125v5.75q0 1.3-.797 2.259a3.7 3.7 0 0 1-2.001 1.26m-1.946 2.646-1.256-.782.239-.42q.13-.244.195-.496.066-.252.066-.527 0-.389-.125-.751a1.9 1.9 0 0 0-.384-.652 4 4 0 0 1-.722-1.155 3.46 3.46 0 0 1-.13-2.273q.134-.453.386-.87l.239-.385 1.27.783-.263.41a2 2 0 0 0-.207.49 2.08 2.08 0 0 0 .47 1.926q.468.496.717 1.131.249.634.249 1.317 0 .498-.129.956t-.361.885zm-4.046 0-1.256-.782.238-.42q.13-.244.197-.496.065-.252.065-.527 0-.389-.125-.751a1.9 1.9 0 0 0-.385-.652 4 4 0 0 1-.721-1.155 3.47 3.47 0 0 1-.13-2.273q.134-.453.386-.87l.238-.385 1.271.783-.263.41a2 2 0 0 0-.208.486 2.1 2.1 0 0 0 .072 1.279q.14.364.4.651.467.496.716 1.131.249.634.249 1.317 0 .498-.129.956t-.361.885zm-4.031 0-1.271-.782.253-.42q.131-.244.197-.5a2.2 2.2 0 0 0 .065-.532q0-.39-.133-.747a2 2 0 0 0-.392-.648 3.7 3.7 0 0 1-.726-1.145 3.5 3.5 0 0 1-.258-1.332q0-.487.126-.945.125-.458.393-.876l.253-.384 1.272.783-.264.41a1.9 1.9 0 0 0-.29 1.013q0 .388.14.752.138.364.398.652.467.495.717 1.13t.249 1.317q0 .498-.13.956-.128.458-.36.885z"/></svg>