<svg xmlns="http://www.w3.org/2000/svg" width="24" height="24" viewBox="0 0 24 24" fill='currentColor'><path d="M7.5 3.5q1.31 0 2.475.612Q11.14 4.726 12 5.87q.86-1.144 2.025-1.756A5.25 5.25 0 0 1 16.5 3.5q2.13 0 3.564 1.436Q21.5 6.372 21.5 8.5q0 .145-.012.279t-.023.279h-1.5a2 2 0 0 0 .03-.28Q20 8.645 20 8.5 20 7 19 6t-2.5-1q-1.185 0-2.19.672-1.005.673-1.59 1.87h-1.44q-.596-1.207-1.595-1.875A3.86 3.86 0 0 0 7.5 5Q6.01 5 5.005 6T4 8.5q0 .145.005.279t.03.279h-1.5l-.022-.28A3 3 0 0 1 2.5 8.5q0-2.13 1.436-3.564Q5.372 3.5 7.5 3.5M5.954 14.942h2.098q.8.785 1.77 1.7.968.914 2.178 2.008 1.21-1.095 2.179-2.009.97-.915 1.769-1.699h2.113a53 53 0 0 1-2.139 2.14q-1.218 1.158-2.818 2.602L12 20.678l-1.104-.992a135 135 0 0 1-2.81-2.602 56 56 0 0 1-2.132-2.14m5.096.808a.62.62 0 0 0 .409-.14.8.8 0 0 0 .25-.362l1.514-4.556 1.106 1.656q.124.18.321.291.196.111.427.111h7.673v-1.5h-7.338l-1.783-2.656a.7.7 0 0 0-.291-.25.9.9 0 0 0-.388-.084.64.64 0 0 0-.413.139.74.74 0 0 0-.247.363l-1.513 4.55-1.11-1.66a.96.96 0 0 0-.32-.291.86.86 0 0 0-.428-.111H1.25v1.5h7.32l1.791 2.665a.64.64 0 0 0 .297.256 1 1 0 0 0 .392.079"/></svg>