<svg xmlns="http://www.w3.org/2000/svg" width="24" height="24" viewBox="0 0 24 24" fill='currentColor'><path d="M6.5 19.5q-2.072 0-3.536-1.44T1.5 14.546q0-1.834 1.175-3.263 1.175-1.43 2.998-1.69.338-1.83 1.995-3.42Q9.325 4.58 11.25 4.58q.613 0 1.057.443.443.444.443 1.057v6.665l1.83-1.8L15.635 12 12 15.635 8.366 12l1.053-1.054 1.831 1.8V6.081q-1.89.215-3.07 1.736T7 11h-.5q-1.45 0-2.475 1.025A3.37 3.37 0 0 0 3 14.5q0 1.45 1.025 2.475A3.37 3.37 0 0 0 6.5 18h12q1.05 0 1.775-.725T21 15.5t-.725-1.775T18.5 13H17v-2q0-1.22-.55-2.257A5.4 5.4 0 0 0 15 7V5.242a6.2 6.2 0 0 1 2.564 2.381A6.43 6.43 0 0 1 18.5 11v.5h.308q1.58.123 2.636 1.271t1.056 2.73q0 1.672-1.163 2.836T18.5 19.5z"/></svg>