<svg xmlns="http://www.w3.org/2000/svg" width="24" height="24" viewBox="0 0 24 24" fill='currentColor'><path d="M11.125 17.615q-2.752 0-4.688-1.883Q4.5 13.848 4.5 11.116V3.5h13.875q1.295 0 2.21.895t.915 2.182a3.1 3.1 0 0 1-.91 2.244q-.909.93-2.215.929h-.721v1.366q0 2.715-1.903 4.608-1.903 1.89-4.626 1.891M6 8.25h10.154V5H6zm5.125 7.866q2.094 0 3.562-1.458t1.467-3.542V9.75H6v1.366q0 2.094 1.506 3.547t3.619 1.453m6.529-7.866h.721q.683 0 1.154-.488Q20 7.275 20 6.577q0-.663-.48-1.12A1.6 1.6 0 0 0 18.374 5h-.721zM4.5 20.5V19h15v1.5z"/></svg>