<svg xmlns="http://www.w3.org/2000/svg" width="24" height="24" viewBox="0 0 24 24" fill='currentColor'><path d="M12 16.644q1.448 0 2.503-.997a3.5 3.5 0 0 0 1.131-2.445H8.357q.077 1.447 1.136 2.445a3.54 3.54 0 0 0 2.508.997M7.29 9.134h3.615a1.75 1.75 0 0 0-.535-1.282 1.75 1.75 0 0 0-1.283-.535q-.747 0-1.272.535-.526.534-.526 1.283m5.807-.009h3.616q0-.748-.53-1.278a1.74 1.74 0 0 0-1.278-.53q-.748 0-1.278.53t-.53 1.278M12 21.5a8.2 8.2 0 0 1-3.315-.674 8.7 8.7 0 0 1-2.697-1.824 8.6 8.6 0 0 1-1.819-2.706 8.3 8.3 0 0 1-.669-3.325V2.5h17v10.471q0 1.77-.67 3.325a8.6 8.6 0 0 1-1.818 2.706 8.7 8.7 0 0 1-2.697 1.824A8.2 8.2 0 0 1 12 21.5m0-1.5q2.9 0 4.95-2.055T19 12.971V4H5v8.971q0 2.919 2.045 4.974T12 20"/></svg>