<svg xmlns="http://www.w3.org/2000/svg" width="24" height="24" viewBox="0 0 24 24" fill='currentColor'><path d="M1.52 12.462V2.885h5v1.373l7.307-2.085 7.5 2.346v3.289h-4.943v1.807l-7.703 2.847zm1.5-1.5h2V4.385h-2zm3.5 0h1.907l6.458-2.37v-.784h-1.852l-2.925.96-.466-1.43 3.116-1.03h7.007v-.694l-5.988-1.86-7.258 2.054zM10.5 21.5h12V20h-12zm1-2.692h10q0-1.881-1.22-3.273-1.221-1.393-3.03-1.656v-1.27h-1.5v1.27a4.82 4.82 0 0 0-3.037 1.656Q11.5 16.927 11.5 18.808m1.914-1.516a3.35 3.35 0 0 1 1.215-1.448 3.25 3.25 0 0 1 1.871-.561q1.029 0 1.843.561.814.562 1.203 1.448z"/></svg>