<svg xmlns="http://www.w3.org/2000/svg" width="24" height="24" viewBox="0 0 24 24" fill='currentColor'><path d="M12 16.654q.32 0 .534-.216a.73.73 0 0 0 .216-.534.72.72 0 0 0-.216-.535.73.73 0 0 0-.534-.215.73.73 0 0 0-.534.216.73.73 0 0 0-.216.534q0 .319.216.535a.73.73 0 0 0 .534.215m0-3.904q.32 0 .534-.216A.73.73 0 0 0 12.75 12a.73.73 0 0 0-.216-.534.73.73 0 0 0-.534-.216.72.72 0 0 0-.534.216.73.73 0 0 0-.216.534q0 .32.216.534a.73.73 0 0 0 .534.216m0-3.904q.32 0 .534-.216a.73.73 0 0 0 .216-.534.73.73 0 0 0-.216-.535.73.73 0 0 0-.534-.215.73.73 0 0 0-.534.216.73.73 0 0 0-.216.535q0 .318.216.534a.73.73 0 0 0 .534.215M2.5 19.5v-5.096a2.42 2.42 0 0 0 1.427-.838Q4.5 12.892 4.5 12q0-.893-.573-1.566A2.42 2.42 0 0 0 2.5 9.596V4.5h19v5.096a2.42 2.42 0 0 0-1.427.838Q19.5 11.108 19.5 12q0 .893.573 1.566.573.675 1.427.838V19.5zM4 18h16v-2.55a4.1 4.1 0 0 1-1.462-1.462A3.85 3.85 0 0 1 18 12q0-1.076.538-1.988A4.1 4.1 0 0 1 20 8.55V6H4v2.55a4.1 4.1 0 0 1 1.463 1.462Q6 10.926 6 12q0 1.076-.537 1.988A4.1 4.1 0 0 1 4 15.45z"/></svg>