<svg xmlns="http://www.w3.org/2000/svg" width="24" height="24" viewBox="0 0 24 24" fill='currentColor'><path d="M16 21.5v-2.183a4.8 4.8 0 0 1-2.254-1.407 4.5 4.5 0 0 1-1.138-2.41h1.5q.267 1.084 1.123 1.792.855.708 2.019.708h3q.52 0 .884.366.366.365.366.884v2.25zm2.75-5q-.729 0-1.24-.51-.51-.511-.51-1.24t.51-1.24 1.24-.51 1.24.51.51 1.24-.51 1.24-1.24.51m-9.365-2.75q0-3.327 2.326-5.649t5.654-2.322v1.5q-2.703 0-4.592 1.883t-1.889 4.588zm3.5 0q0-1.864 1.308-3.172 1.31-1.308 3.172-1.309v1.5q-1.24 0-2.11.87t-.87 2.111zM2.5 11V8.75q0-.519.365-.885.366-.365.885-.365h3q1.164 0 2.02-.708Q9.624 6.085 9.891 5h1.51q-.188 1.365-1.124 2.4A4.8 4.8 0 0 1 8 8.817V11zm2.75-5q-.729 0-1.24-.51-.51-.511-.51-1.24t.51-1.24q.511-.51 1.24-.51t1.24.51Q7 3.522 7 4.25t-.51 1.24T5.25 6"/></svg>