<svg xmlns="http://www.w3.org/2000/svg" width="24" height="24" viewBox="0 0 24 24" fill='currentColor'><path d="m18.654 17.711 1.808-1.807-1.366-1.827h-1.688a7 7 0 0 1-.26-1.02 6.1 6.1 0 0 1 0-2.089q.09-.487.26-1.045h1.688l1.366-1.827-1.808-1.808a7.4 7.4 0 0 0-2.036 2.538A7.05 7.05 0 0 0 15.865 12q0 1.658.753 3.174a7.4 7.4 0 0 0 2.036 2.537M.5 20.308V3.692h23v16.616zm14.842-1.5H22V5.192H2v13.616h.658a7.7 7.7 0 0 1 2.727-2.558A7.26 7.26 0 0 1 9 15.308a7.26 7.26 0 0 1 3.615.942 7.7 7.7 0 0 1 2.727 2.558M9 14.115q1.145 0 1.948-.801a2.65 2.65 0 0 0 .803-1.948q0-1.145-.802-1.948a2.65 2.65 0 0 0-1.947-.803q-1.145 0-1.948.802a2.65 2.65 0 0 0-.803 1.947q0 1.146.802 1.948A2.65 2.65 0 0 0 9 14.115m-4.45 4.693h8.9a6.1 6.1 0 0 0-2.019-1.475A5.8 5.8 0 0 0 9 16.808q-1.275 0-2.425.525a6.3 6.3 0 0 0-2.025 1.475M9 12.615q-.522 0-.886-.364a1.2 1.2 0 0 1-.364-.886q0-.52.364-.885T9 10.115t.886.365.364.885-.364.886a1.2 1.2 0 0 1-.886.364"/></svg>