<svg xmlns="http://www.w3.org/2000/svg" width="24" height="24" viewBox="0 0 24 24" fill='currentColor'><path d="M9.5 20.134v-2.442a.3.3 0 0 0-.086-.221.3.3 0 0 0-.222-.087H2.75v-1.5h6.442q.75 0 1.278.53.53.531.53 1.278v2.442zm3.5 0v-2.442q0-.747.53-1.278.53-.53 1.278-.53h6.442v1.5h-6.442a.3.3 0 0 0-.222.087.3.3 0 0 0-.086.221v2.442zM6.25 14.5a2.65 2.65 0 0 1-1.947-.803A2.65 2.65 0 0 1 3.5 11.75V8.346h17v3.404a2.65 2.65 0 0 1-.803 1.947 2.65 2.65 0 0 1-1.947.803zm0-1.5h11.5q.522 0 .886-.365.364-.364.364-.885V9.846H5v1.904q0 .521.364.885.365.365.886.365M3.5 6.96v-1.5h5.75v-.71q0-.387.259-.645a.88.88 0 0 1 .645-.259h3.692q.387 0 .645.259a.88.88 0 0 1 .259.645v.711h5.75v1.5z"/></svg>