<svg xmlns="http://www.w3.org/2000/svg" width="24" height="24" viewBox="0 0 24 24" fill='currentColor'><path d="M11 19.94q-2.748-.365-4.624-2.436T4.5 12.609q0-1.563.584-2.874a7.7 7.7 0 0 1 1.612-2.339L12 2.192l5.304 5.204a8 8 0 0 1 1.362 1.866q.549 1.035.75 2.228H17.9a5.7 5.7 0 0 0-1.65-2.99L12 4.3 7.75 8.5a5.45 5.45 0 0 0-1.312 1.867A5.7 5.7 0 0 0 6 12.61q0 2.176 1.438 3.82Q8.875 18.077 11 18.426zm2.377-4.284-.475-1.087a7.3 7.3 0 0 1 1.271-.522 4.53 4.53 0 0 1 2.43-.068q.548.133 1.064.332.47.2.942.355.471.155.991.155.565 0 1.096-.18.531-.182 1.037-.437l.475 1.096a7 7 0 0 1-1.276.517 4.7 4.7 0 0 1-1.332.196q-.555 0-1.104-.132a8 8 0 0 1-1.063-.333 12 12 0 0 0-.942-.355 3.33 3.33 0 0 0-2.083.026q-.525.18-1.031.437m0 2.807-.475-1.086a7.3 7.3 0 0 1 1.271-.522 4.53 4.53 0 0 1 2.43-.069q.548.133 1.064.333.47.2.942.355.471.155.991.155.565 0 1.096-.181.531-.18 1.037-.437l.475 1.097a7 7 0 0 1-1.276.517q-.665.195-1.332.196-.555 0-1.104-.133-.548-.132-1.063-.332A12 12 0 0 0 16.49 18a3.33 3.33 0 0 0-2.083.026q-.525.18-1.031.436m0 2.808-.475-1.087a7.3 7.3 0 0 1 1.271-.522 4.53 4.53 0 0 1 2.43-.068q.548.134 1.064.333.47.2.942.355.471.154.991.154.565 0 1.096-.18t1.037-.437l.475 1.096a7 7 0 0 1-1.276.518q-.665.195-1.332.196-.555 0-1.104-.133a8 8 0 0 1-1.063-.333 12 12 0 0 0-.942-.354 3.33 3.33 0 0 0-2.083.026q-.525.18-1.031.436"/></svg>