<svg xmlns="http://www.w3.org/2000/svg" width="24" height="24" viewBox="0 0 24 24" fill='currentColor'><path d="M12 21.5a9.2 9.2 0 0 1-3.703-.749 9.6 9.6 0 0 1-3.016-2.032 9.6 9.6 0 0 1-2.032-3.016A9.2 9.2 0 0 1 2.5 12q0-2.629 1.329-4.863a9.3 9.3 0 0 1 3.638-3.481q.035.36.09.727.057.367.183.844a7.96 7.96 0 0 0-2.746 2.898A7.85 7.85 0 0 0 4 12q0 3.35 2.325 5.675T12 20t5.675-2.325T20 12a7.9 7.9 0 0 0-.999-3.887 7.9 7.9 0 0 0-2.776-2.911q.127-.467.188-.83.06-.362.11-.716a9.33 9.33 0 0 1 3.643 3.473Q21.501 9.356 21.5 12q0 1.97-.749 3.703a9.6 9.6 0 0 1-2.032 3.016 9.6 9.6 0 0 1-3.016 2.032q-1.734.75-3.703.749m0-4q-2.289 0-3.894-1.606Q6.5 14.29 6.5 12q0-1.248.522-2.355a5.26 5.26 0 0 1 1.486-1.88q.105.308.222.676.116.366.299.89-.503.555-.765 1.236A3.9 3.9 0 0 0 8 12q0 1.65 1.175 2.825T12 16t2.825-1.175T16 12q0-.761-.268-1.433a4.2 4.2 0 0 0-.77-1.236q.141-.417.213-.637.071-.22.292-.938A5.3 5.3 0 0 1 16.97 9.64q.53 1.113.53 2.36 0 2.289-1.606 3.894Q14.29 17.5 12 17.5m-.808-9.25q-.924-2.79-1.183-3.817A8 8 0 0 1 9.75 2.5q0-.945.653-1.597A2.17 2.17 0 0 1 12 .25q.945 0 1.597.653.653.653.653 1.597 0 .906-.259 1.933T12.808 8.25zm.808 5.5q-.729 0-1.24-.51-.51-.511-.51-1.24t.51-1.24 1.24-.51 1.24.51q.51.511.51 1.24t-.51 1.24-1.24.51"/></svg>