<svg xmlns="http://www.w3.org/2000/svg" width="24" height="24" viewBox="0 0 24 24" fill='currentColor'><path d="M8.533 20.817q-2.648-1.036-4.336-3.408-1.687-2.373-1.687-5.403 0-.717.096-1.415.096-.697.313-1.364l-1.66.963-.74-1.292 4.333-2.5 2.5 4.318-1.308.759L4.617 9q-.304.705-.45 1.463a8 8 0 0 0-.148 1.553q0 2.56 1.465 4.6A7.87 7.87 0 0 0 9.292 19.5zM15.356 8.49v-1.5h2.85a7.8 7.8 0 0 0-2.765-2.202A7.9 7.9 0 0 0 12 4.01q-1.48 0-2.783.497a8 8 0 0 0-2.346 1.387l-.76-1.327a9.9 9.9 0 0 1 2.711-1.51 9.1 9.1 0 0 1 3.169-.547q1.965 0 3.736.761a9.3 9.3 0 0 1 3.129 2.2v-1.98h1.5v5zM15.1 23.442l-4.333-2.51 2.5-4.307 1.293.75-1.493 2.556q2.96-.405 4.937-2.656Q19.98 15.025 19.98 12a7 7 0 0 0-.042-.772 5 5 0 0 0-.139-.738h1.534a7.5 7.5 0 0 1 .147 1.5q0 3.318-2.032 5.884t-5.228 3.328l1.629.948z"/></svg>