<svg xmlns="http://www.w3.org/2000/svg" width="24" height="24" viewBox="0 0 24 24" fill='currentColor'><path d="M3.5 19.5v-17h17v8.677a4 4 0 0 0-.721-.061H19V4H5v14h3.273q.08.416.2.785t.308.715zM5 17v1V4zm2.25-1.25h1.071a5.9 5.9 0 0 1 .808-1.964 5.7 5.7 0 0 1 1.446-1.536H7.25zm0-6h3.5v-3.5h-3.5zM14 20.5q-1.444 0-2.472-1.028T10.5 17t1.028-2.472T14 13.5h1.904V15H14q-.825 0-1.412.588A1.93 1.93 0 0 0 12 17q0 .824.588 1.413Q13.175 19 14 19h1.904v1.5zm-.75-10.75h3.5v-3.5h-3.5zm.75 8v-1.5h6v1.5zm4.096 2.75V19H20q.824 0 1.413-.587Q22 17.825 22 17t-.587-1.412A1.93 1.93 0 0 0 20 15h-1.904v-1.5H20q1.443 0 2.472 1.018t1.028 2.485q0 1.445-1.028 2.471A3.37 3.37 0 0 1 20 20.5z"/></svg>