<svg xmlns="http://www.w3.org/2000/svg" width="24" height="24" viewBox="0 0 24 24" fill='currentColor'><path d="M12 8.958q2.187 0 4.403-.634 2.217-.633 2.568-1.318-.342-.735-2.541-1.37a15.9 15.9 0 0 0-8.844-.018q-2.188.618-2.577 1.35.38.704 2.557 1.347T12 8.958m5.462 11.744h.884v-4.1l1.8 1.8.623-.623-2.865-2.865-2.865 2.865.623.623 1.8-1.8zm.442 1.606q-1.873 0-3.187-1.314-1.313-1.313-1.313-3.186 0-1.874 1.313-3.187 1.314-1.313 3.187-1.313t3.186 1.313 1.314 3.187-1.314 3.186q-1.312 1.314-3.186 1.314m-6.579-3.323q.066.415.182.785t.274.73q-1.777-.016-3.285-.297-1.507-.282-2.62-.762t-1.744-1.13-.632-1.407V7q0-1.448 2.489-2.474T12 3.5t6.012 1.026T20.5 7v4.646a6 6 0 0 0-.73-.264 7 7 0 0 0-.77-.172V8.9q-1.262.735-3.085 1.129-1.824.393-3.915.385-2.145 0-3.959-.395Q6.227 9.625 5 8.9v3.256q1.227 1.002 3.157 1.403 1.929.403 3.843.402h.438a5 5 0 0 0-.432.715 7 7 0 0 0-.331.785 22 22 0 0 1-3.616-.4Q6.275 14.714 5 13.949V17q.223.373.808.725t1.424.61 1.89.43q1.05.174 2.203.22"/></svg>