<svg xmlns="http://www.w3.org/2000/svg" width="24" height="24" viewBox="0 0 24 24" fill='currentColor'><path d="M12 20.5q-2.065 0-3.958-.753a10.5 10.5 0 0 1-3.394-2.183l1.07-1.07a9 9 0 0 0 2.91 1.862 9.1 9.1 0 0 0 3.397.644q1.76 0 3.38-.632a9 9 0 0 0 2.903-1.84l1.053 1.045a10.6 10.6 0 0 1-3.406 2.179q-1.89.748-3.955.748m0-3.885a6.6 6.6 0 0 1-2.463-.467 6.8 6.8 0 0 1-2.122-1.342l1.054-1.054q.735.677 1.647 1.02.913.345 1.893.344.982 0 1.889-.344a5 5 0 0 0 1.643-1.02l1.053 1.054a6.7 6.7 0 0 1-2.126 1.347 6.7 6.7 0 0 1-2.468.462M5 5v1.385h14V5zm2.811 2.885.473 1.384h7.432l.473-1.384zm-.62 2.884-.96-2.884H3.5V3.5h17v4.385h-2.73l-1.112 2.884z"/></svg>