<svg xmlns="http://www.w3.org/2000/svg" width="24" height="24" viewBox="0 0 24 24" fill='currentColor'><path d="M4.211 5.25h8V4h-8zm-1.5 16.25v-19h11v5.58a6.1 6.1 0 0 0-1.5 1.137V6.75h-8v10.5h6.339q.162.416.366.785.206.37.468.715H4.211V20h8.135v-.246q.231.261.492.477.263.215.57.384v.885zm14.5-3.5q1.48 0 2.519-1.04 1.04-1.039 1.04-2.518t-1.04-2.518-2.518-1.04-2.519 1.04-1.04 2.518q0 1.48 1.04 2.518Q15.733 18 17.212 18m-2.25 3.5v-2.523a4.97 4.97 0 0 1-2.035-1.823q-.772-1.206-.772-2.714t.772-2.711a4.97 4.97 0 0 1 2.035-1.821V7.385h4.5v2.523a4.97 4.97 0 0 1 2.036 1.823q.772 1.206.772 2.714 0 1.507-.772 2.71a4.97 4.97 0 0 1-2.035 1.822V21.5z"/></svg>