<svg xmlns="http://www.w3.org/2000/svg" width="24" height="24" viewBox="0 0 24 24" fill='currentColor'><path d="M6.192 20.23v-.73l1.5-1q-1.34 0-2.266-.926T4.5 15.308V6q0-1.835 1.78-2.667Q8.063 2.5 12 2.5q4.03 0 5.765.81T19.5 6v9.308q0 1.34-.926 2.266t-2.266.926l1.5 1v.73zM6 10.5h5.25V6.77H6zM16.308 12H6h12zm-3.558-1.5H18V6.77h-5.25zM8.5 15.808q.548 0 .928-.38t.38-.928-.38-.928a1.26 1.26 0 0 0-.928-.38q-.548 0-.928.38t-.38.928.38.928.928.38m7 0q.548 0 .928-.38t.38-.928-.38-.928a1.26 1.26 0 0 0-.928-.38q-.548 0-.928.38t-.38.928.38.928.928.38M7.692 17h8.616q.718 0 1.204-.488.488-.487.488-1.204V12H6v3.308q0 .718.487 1.204.488.488 1.205.488M12 4q-2.447 0-3.866.313-1.417.312-1.857.956h11.508q-.364-.644-1.781-.957Q14.586 4 12 4m0 1.27h5.785H6.277z"/></svg>