<svg xmlns="http://www.w3.org/2000/svg" width="24" height="24" viewBox="0 0 24 24" fill='currentColor'><path d="m4.5 21.5 1.77-1.77h11.46l1.77 1.77zm2.654-2.654.885-.884h-.375q-1.326 0-2.245-.935a3.1 3.1 0 0 1-.919-2.258V8.096q0-3.032 2.168-4.814T11.999 1.5q3.165 0 5.333 1.782Q19.5 5.063 19.5 8.096v6.673q0 1.322-.92 2.258-.918.934-2.243.934h-.376l.885.885zm.51-2.384h8.673a1.6 1.6 0 0 0 1.178-.494q.485-.494.485-1.199v-3.692H6v3.692q0 .705.485 1.199a1.6 1.6 0 0 0 1.178.494M12 15.173q.586 0 .994-.41.41-.41.409-.995 0-.585-.41-.994a1.36 1.36 0 0 0-.995-.408q-.586 0-.994.41a1.36 1.36 0 0 0-.409.995q0 .585.41.993.41.41.995.409M6 9.577h12v-1.48q0-.595-.117-1.111A5 5 0 0 0 17.546 6H6.454a5 5 0 0 0-.337.986A5 5 0 0 0 6 8.095zM7.725 4.5h8.55a5.3 5.3 0 0 0-1.886-1.115A7.2 7.2 0 0 0 12 3q-1.287 0-2.389.385A5.3 5.3 0 0 0 7.725 4.5"/></svg>