<svg xmlns="http://www.w3.org/2000/svg" width="24" height="24" viewBox="0 0 24 24" fill='currentColor'><path d="m7.327 22.75 2.867-14.273-2.377.95v3.313h-1.5V8.444L11.06 6.43q.35-.15.699-.18.348-.03.67.067.32.096.595.297t.465.522l.845 1.35a6.1 6.1 0 0 0 1.878 1.95 4.93 4.93 0 0 0 2.538.796v1.5q-1.712-.077-3.053-.87a7.8 7.8 0 0 1-2.307-2.09l-.769 3.825 2.129 2.135v7.02h-1.5v-6.184l-2.446-2.09-1.915 8.273zM13.5 5.346a1.78 1.78 0 0 1-1.307-.54 1.78 1.78 0 0 1-.54-1.306q0-.767.54-1.307t1.307-.54 1.307.54.54 1.307-.54 1.307-1.307.54"/></svg>