<svg xmlns="http://www.w3.org/2000/svg" width="24" height="24" viewBox="0 0 24 24" fill='currentColor'><path d="M5.99 21.75q1.445 0 2.384-.765t1.455-2.208q.405-1.173.841-1.726t1.816-1.643q1.531-1.23 2.393-2.772T15.74 9q0-2.879-1.935-4.814T8.99 2.25q-2.82 0-4.737 1.854T2.26 8.75h1.5q.076-2.154 1.572-3.577T8.99 3.75q2.221 0 3.736 1.515T14.241 9q0 1.74-.738 3.03a7.5 7.5 0 0 1-1.997 2.25q-1.242.923-1.924 1.77a6.7 6.7 0 0 0-1.08 1.954q-.389 1.11-.939 1.678t-1.573.568q-.853 0-1.489-.578a2.16 2.16 0 0 1-.722-1.422h-1.52a3.6 3.6 0 0 0 1.161 2.484q1.074 1.016 2.57 1.016m3-10.442q.974 0 1.64-.675.668-.675.668-1.633 0-.972-.667-1.64-.668-.668-1.64-.668-.974 0-1.641.668T6.683 9q0 .958.667 1.633.668.675 1.64.675m9.462 2.87-1.12-1.109a10 10 0 0 0 .673-1.947q.236-1.012.236-2.112 0-1.09-.231-2.095a9.7 9.7 0 0 0-.668-1.94l1.12-1.119A10.86 10.86 0 0 1 19.74 9q0 1.419-.334 2.715-.334 1.297-.954 2.464m2.935 2.9-1.1-1.084A13.1 13.1 0 0 0 22.24 9.05q0-1.94-.522-3.698a13.7 13.7 0 0 0-1.457-3.286L21.377.95a14.8 14.8 0 0 1 2.363 8.07q0 2.234-.617 4.275a15 15 0 0 1-1.736 3.784"/></svg>