<svg xmlns="http://www.w3.org/2000/svg" width="24" height="24" viewBox="0 0 24 24" fill='currentColor'><path d="M12 21.51q-3.776-3.271-5.661-6.089-1.887-2.817-1.887-5.173 0-3.462 2.24-5.605Q8.93 2.5 12 2.5q.646 0 1.275.103.63.103 1.215.303l-1.2 1.227a4.5 4.5 0 0 0-.627-.111A7 7 0 0 0 12 3.99q-2.573 0-4.31 1.762-1.738 1.761-1.738 4.496 0 1.814 1.557 4.226T12 19.514q2.934-2.628 4.491-5.04t1.557-4.226q0-.405-.049-.788a7 7 0 0 0-.137-.743l1.227-1.227a8.2 8.2 0 0 1 .459 2.758q0 2.356-1.886 5.173Q15.775 18.24 12 21.51m5.994-17.362-.813-.813-5.739 5.738v1.485h1.485l5.738-5.739zm1.371-.029 1.17-1.17-1.485-1.484-1.17 1.17z"/></svg>