<svg xmlns="http://www.w3.org/2000/svg" width="24" height="24" viewBox="0 0 24 24" fill='currentColor'><path d="m7.779 22.837-1.196-.902 2.898-3.783-.212-4.825a9.5 9.5 0 0 1 .087-2.1 10 10 0 0 1 .529-2.121l-2.068 1.19v3.454h-1.5V9.435l4.246-2.471q.54-.303.948-.466.411-.163.762-.163.577 0 1.051.47t1.063 1.466q.8 1.35 1.473 2.035.675.684 1.55 1.17.225-.23.46-.334.234-.103.538-.103.606 0 1.026.42.422.421.422 1.003v10.384h-.885V12.462a.52.52 0 0 0-.16-.38.52.52 0 0 0-.378-.159.52.52 0 0 0-.38.16.52.52 0 0 0-.159.379v.952h-.884v-.475q-1.34-.69-2.096-1.418-.754-.727-1.435-2.023a9.5 9.5 0 0 0-.61 2.073q-.211 1.152-.133 2.1l1.985 3.137v6.038h-1.5v-4.97l-2.073-2.936-.157 3.724zm5.712-17.49q-.759 0-1.303-.545a1.78 1.78 0 0 1-.544-1.302q0-.758.544-1.302a1.78 1.78 0 0 1 1.303-.544q.757 0 1.301.544.544.545.544 1.302.001.758-.544 1.302a1.78 1.78 0 0 1-1.301.544"/></svg>