<svg xmlns="http://www.w3.org/2000/svg" width="24" height="24" viewBox="0 0 24 24" fill='currentColor'><path d="M3.25 3.942v-1.5h7.5v1.5zm3 6.808V6.442h-3v-1.5h7.5v1.5h-3v4.308zm7.45 10.504L12.646 20.2l7.454-7.454 1.054 1.054zm.8-5.446q-.563 0-.935-.373a1.27 1.27 0 0 1-.373-.935q0-.563.373-.935.372-.373.935-.373t.935.373.373.935-.373.935q-.372.373-.935.373m5 5q-.563 0-.936-.372a1.27 1.27 0 0 1-.372-.936q0-.563.372-.936.372-.372.936-.372t.936.372.372.936-.372.936-.936.372M15.539 10.75a2.13 2.13 0 0 1-1.566-.646 2.13 2.13 0 0 1-.646-1.565q0-.92.646-1.581.646-.662 1.566-.662.3 0 .547.052t.472.175V2.25h4.192v1.5h-3v4.789q0 .918-.646 1.565t-1.565.646M5.47 21.76q-.919 0-1.59-.686-.67-.686-.67-1.605 0-.412.183-.835.183-.425.529-.761l1.223-1.204-.523-.532a2.3 2.3 0 0 1-.505-.746 2.2 2.2 0 0 1-.168-.86q0-.92.665-1.575A2.18 2.18 0 0 1 6.2 12.3q.939 0 1.594.646t.656 1.585q0 .452-.148.86-.148.409-.485.746l-.532.532 1.046 1.046 1.4-1.4 1.053 1.085-1.39 1.39 1.39 1.39-1.053 1.055-1.39-1.39-1.224 1.222q-.345.346-.77.52a2.3 2.3 0 0 1-.876.172m.729-6.145.533-.532a.8.8 0 0 0 .17-.237.8.8 0 0 0 .047-.296.7.7 0 0 0-.227-.545.763.763 0 0 0-1.041 0 .7.7 0 0 0-.232.545.72.72 0 0 0 .227.533zm-.76 4.645q.134 0 .301-.052a.7.7 0 0 0 .292-.175l1.253-1.224-1.055-1.055-1.264 1.213a1 1 0 0 0-.19.262.7.7 0 0 0-.066.302.7.7 0 0 0 .217.512.7.7 0 0 0 .513.217"/></svg>