<svg xmlns="http://www.w3.org/2000/svg" width="24" height="24" viewBox="0 0 24 24" fill='currentColor'><path d="M13.535 10.82q.105-.181.155-.39t.05-.43q0-.72-.51-1.23T12 8.26q-.221 0-.43.05t-.39.156zm4.911 4.942-1.135-1.166q.32-.8.505-1.705.184-.906.184-1.79V6.374l-6-2.24-3.746 1.404-1.166-1.166L12 2.54l7.5 2.807V11.1q0 1.15-.254 2.314a11.4 11.4 0 0 1-.8 2.348m1.354 6.146-3.27-3.27A9.76 9.76 0 0 1 12 21.482q-3.312-.905-5.406-3.858T4.5 11.1V6.608l-2.37-2.37 1.055-1.053 17.669 17.669zM12 19.9a7.1 7.1 0 0 0 1.901-.943 8.5 8.5 0 0 0 1.576-1.372l-3.056-3.056.039.221h-1.72l.289-1.613L6 8.107V11.1q0 3.025 1.7 5.5t4.3 3.3"/></svg>