<svg xmlns="http://www.w3.org/2000/svg" width="24" height="24" viewBox="0 0 24 24" fill='currentColor'><path d="M12 21.48q-3.244-.884-5.372-3.818T4.5 11.1V5.346L12 2.54l7.5 2.807v6.12q0 .178-.019.376H17.97q.015-.198.023-.377.008-.178.008-.365V6.375l-6-2.24-6 2.24V11.1q0 3.025 1.7 5.5t4.3 3.3zm5 .02v-3h-3V17h3v-3h1.5v3h3v1.5h-3v3zm-6.26-6.75h2.52l-.566-3.158q.471-.201.759-.635.287-.432.287-.957 0-.718-.511-1.23a1.68 1.68 0 0 0-1.23-.51q-.718 0-1.229.51-.51.512-.51 1.23 0 .525.287.957.288.433.759.635z"/></svg>