<svg xmlns="http://www.w3.org/2000/svg" width="24" height="24" viewBox="0 0 24 24" fill='currentColor'><path d="M4.5 11.1V5.346L12 2.54l7.5 2.807v4.962H18V6.39l-6-2.24-6 2.24v4.71q0 1.22.316 2.398.317 1.178.89 2.23t1.363 1.917a8.8 8.8 0 0 0 1.739 1.477v1.714q-2.58-1.308-4.193-3.946Q4.5 14.254 4.5 11.101m9.75 6.342h5.5v-.884h-5.5zM17 21.5q-1.873 0-3.187-1.313Q12.5 18.873 12.5 17t1.313-3.186T17 12.5t3.186 1.314T21.5 17q0 1.872-1.314 3.187Q18.874 21.5 17 21.5m-5.001-9.77q.718 0 1.23-.505.51-.505.511-1.224 0-.718-.511-1.23a1.68 1.68 0 0 0-1.23-.511q-.719 0-1.224.511-.506.511-.506 1.23 0 .718.506 1.224.505.506 1.224.506"/></svg>