<svg xmlns="http://www.w3.org/2000/svg" width="24" height="24" viewBox="0 0 24 24" fill='currentColor'><path d="M10.125 17q.473 0 .799-.326t.326-.8q0-1.162-.624-2.1A4.8 4.8 0 0 0 9 12.258v3.617q0 .472.326.799.326.326.799.326m3.75 0q.473 0 .799-.326t.326-.8v-3.616a4.8 4.8 0 0 0-1.626 1.516 3.7 3.7 0 0 0-.624 2.1q0 .474.326.8t.799.326M2.742 20.613l-.47-1.419a3.64 3.64 0 0 0 1.638-1.326 3.47 3.47 0 0 0 .628-2.018V5.86a10.3 10.3 0 0 1-2.127-3.048L3.8 2.215a9.1 9.1 0 0 0 3.329 3.872A8.7 8.7 0 0 0 12 7.538q2.67 0 4.876-1.45A9.1 9.1 0 0 0 20.2 2.214l1.389.598a10 10 0 0 1-.942 1.634q-.543.765-1.185 1.414v9.989q0 1.11.615 2.018.615.909 1.627 1.326l-.471 1.42a4.96 4.96 0 0 1-2.374-1.86 5 5 0 0 1-.898-2.904v-8.7q-1.305.894-2.813 1.391A10 10 0 0 1 12 9.038q-1.641 0-3.156-.497A10.8 10.8 0 0 1 6.038 7.15v8.7q0 1.605-.91 2.905a5.03 5.03 0 0 1-2.386 1.858m7.383-2.113q-1.096 0-1.86-.765a2.53 2.53 0 0 1-.765-1.86v-5.698l.83.2q1.2.323 2.15 1.063A5.9 5.9 0 0 1 12 13.18a5.8 5.8 0 0 1 1.515-1.744 6.1 6.1 0 0 1 2.154-1.068l.831-.2v5.708q0 1.095-.764 1.86-.765.765-1.861.765a2.5 2.5 0 0 1-1.04-.222 2.7 2.7 0 0 1-.835-.592 2.7 2.7 0 0 1-.835.592 2.5 2.5 0 0 1-1.04.222"/></svg>