<svg xmlns="http://www.w3.org/2000/svg" width="24" height="24" viewBox="0 0 24 24" fill='currentColor'><path d="M12 13.075a.73.73 0 0 0 .75-.75V7.8q0-.3-.212-.513A.73.73 0 0 0 12 7.075a.73.73 0 0 0-.75.75v4.525q0 .3.213.512.211.213.537.213m0 3.65a.78.78 0 0 0 .575-.225.78.78 0 0 0 .225-.575.78.78 0 0 0-.225-.575.78.78 0 0 0-.575-.225.78.78 0 0 0-.575.225.78.78 0 0 0-.225.575q0 .35.225.575t.575.225m0 4.775a9.3 9.3 0 0 1-3.712-.75 9.6 9.6 0 0 1-3.013-2.025 9.6 9.6 0 0 1-2.025-3.013A9.3 9.3 0 0 1 2.5 12q0-1.975.75-3.713a9.6 9.6 0 0 1 2.025-3.012A9.6 9.6 0 0 1 8.288 3.25 9.3 9.3 0 0 1 12 2.5a9.3 9.3 0 0 1 3.713.75 9.6 9.6 0 0 1 3.012 2.025 9.6 9.6 0 0 1 2.025 3.012A9.3 9.3 0 0 1 21.5 12q0 1.975-.75 3.712a9.6 9.6 0 0 1-2.025 3.013 9.6 9.6 0 0 1-3.012 2.025A9.3 9.3 0 0 1 12 21.5m0-1.5q3.325 0 5.663-2.337T20 12q0-3.325-2.337-5.663T12 4Q8.675 4 6.338 6.337 4 8.675 4 12t2.338 5.663Q8.675 20 12 20"/></svg>