<svg xmlns="http://www.w3.org/2000/svg" width="24" height="24" viewBox="0 0 24 24" fill='currentColor'><path d="M15.02 20.5q-2.922 0-5.102-1.642a8.64 8.64 0 0 1-3.052-4.204h-3.5v-1.5H6.54a7 7 0 0 1-.081-1.219q.012-.627.082-1.089H3.364v-1.5h3.52a8.6 8.6 0 0 1 3.038-4.204Q12.098 3.5 15.019 3.5q1.61 0 3.046.55a8.8 8.8 0 0 1 2.58 1.52l-1.07 1.043a7.3 7.3 0 0 0-2.092-1.187A7.1 7.1 0 0 0 15.019 5q-2.307 0-4.016 1.233T8.502 9.346h6.46v1.5H8.066a6.5 6.5 0 0 0-.095 1.27q.015.631.095 1.038h6.895v1.5H8.493q.803 1.88 2.51 3.113Q12.713 19 15.02 19q1.305 0 2.464-.426a7.3 7.3 0 0 0 2.092-1.187l1.07 1.044a8.8 8.8 0 0 1-2.58 1.519 8.4 8.4 0 0 1-3.046.55"/></svg>