<svg xmlns="http://www.w3.org/2000/svg" width="24" height="24" viewBox="0 0 24 24" fill='currentColor'><path d="m20.025 9.375-1.044-1.044.827-.862-3.277-3.277-.862.827L14.6 3.95l1.88-1.93 5.476 5.474zm-17.93 7.106 1.88-1.881 1.07 1.07-.843.826 3.302 3.302.827-.842L9.4 20.025l-1.88 1.88zm16.269-3.193 1.713-1.713-7.652-7.652-1.714 1.714zm-6.789 6.789 1.723-1.739-7.636-7.636-1.739 1.723zm-.208-5.783 2.943-2.927-1.677-1.677-2.927 2.943zm4.07 4.054-3.862 3.842-9.765-9.765 3.842-3.861 2.984 3L11.58 8.62 8.59 5.636l3.845-3.846 9.776 9.775-3.847 3.845-2.984-2.99-2.942 2.943z"/></svg>