<svg xmlns="http://www.w3.org/2000/svg" width="24" height="24" viewBox="0 0 24 24" fill='currentColor'><path d="M12.002 21.5a9.3 9.3 0 0 1-3.706-.748 9.6 9.6 0 0 1-3.016-2.03 9.6 9.6 0 0 1-2.032-3.016 9.25 9.25 0 0 1-.748-3.704q0-1.972.748-3.706a9.6 9.6 0 0 1 2.03-3.016 9.6 9.6 0 0 1 3.016-2.032 9.25 9.25 0 0 1 3.704-.748q1.972 0 3.706.748a9.6 9.6 0 0 1 3.017 2.03 9.6 9.6 0 0 1 2.03 3.016 9.25 9.25 0 0 1 .749 3.704q0 1.972-.748 3.706a9.6 9.6 0 0 1-2.03 3.017 9.6 9.6 0 0 1-3.016 2.03 9.25 9.25 0 0 1-3.704.749M12 16.827a17.4 17.4 0 0 0 1.757-2.04 14 14 0 0 0 1.204-1.978q.548-1.08.548-2.13 0-1.444-1.03-2.475-1.032-1.03-2.48-1.03-1.446 0-2.478 1.03-1.03 1.031-1.03 2.479 0 1.046.55 2.125.55 1.08 1.209 1.982.76 1.047 1.75 2.037M12 12q-.548 0-.933-.384a1.27 1.27 0 0 1-.384-.933q0-.548.384-.933.384-.384.932-.384.549 0 .934.383.384.384.384.933t-.384.934a1.27 1.27 0 0 1-.932.384"/></svg>