<svg xmlns="http://www.w3.org/2000/svg" width="24" height="24" viewBox="0 0 24 24" fill='currentColor'><path d="M14.67 11.839 12.161 9.33l5.011-2.504zm5.134 10.103-2.256-2.256a9.7 9.7 0 0 1-2.598 1.341A9.2 9.2 0 0 1 12 21.5a9.25 9.25 0 0 1-3.705-.748 9.6 9.6 0 0 1-3.016-2.03 9.6 9.6 0 0 1-2.03-3.017A9.25 9.25 0 0 1 2.5 12q0-1.548.473-2.95.474-1.402 1.34-2.598L2.059 4.196l1.069-1.069 17.746 17.746zm.18-4.788L18.89 16.06q.55-.931.83-1.948Q20 13.093 20 12q0-3.325-2.337-5.662Q15.325 4 12 4q-1.094 0-2.111.28a8 8 0 0 0-1.948.83L6.846 4.015A9.7 9.7 0 0 1 9.29 2.89 9.4 9.4 0 0 1 12 2.5q1.972 0 3.705.748a9.6 9.6 0 0 1 3.016 2.03 9.6 9.6 0 0 1 2.03 3.017A9.25 9.25 0 0 1 21.5 12q0 1.413-.39 2.711a9.7 9.7 0 0 1-1.125 2.443M12 20q1.23 0 2.352-.361a8.2 8.2 0 0 0 2.111-1.037l-4.182-4.183-5.454 2.754 2.723-5.484-4.152-4.152a8.2 8.2 0 0 0-1.036 2.111A7.6 7.6 0 0 0 4 12q0 3.325 2.338 5.663T12 20"/></svg>