<svg xmlns="http://www.w3.org/2000/svg" width="24" height="24" viewBox="0 0 24 24" fill='currentColor'><path d="m20.58 21.754-2.526-2.527a10 10 0 0 1-2.782 1.662q-1.536.61-3.338.61a9.2 9.2 0 0 1-3.686-.747 9.6 9.6 0 0 1-3.025-2.04 9.6 9.6 0 0 1-2.04-3.026A9.2 9.2 0 0 1 2.434 12q0-1.783.62-3.35a9.9 9.9 0 0 1 1.653-2.785L2.18 3.354 3.234 2.3l18.4 18.4zm-.295-5.235-1.1-1.12a9.6 9.6 0 0 0 .55-1.65q.2-.85.2-1.75 0-.6-.075-1.162a4.8 4.8 0 0 0-.276-1.087q-.525.125-1.05.187-.525.063-1.1.063a9.6 9.6 0 0 1-2.643-.353 10 10 0 0 1-2.387-1.028L7.419 3.635a10 10 0 0 1 2.142-.849 9.3 9.3 0 0 1 2.373-.286q1.97 0 3.696.749a9.8 9.8 0 0 1 3.018 2.031 9.5 9.5 0 0 1 2.04 3.016A9.3 9.3 0 0 1 21.435 12q0 1.181-.274 2.316a8.6 8.6 0 0 1-.876 2.203M4.215 10.1a8.6 8.6 0 0 0 1.389-.868q.7-.531 1.269-1.216l-1.096-1.08q-.561.643-.976 1.45a6.3 6.3 0 0 0-.586 1.715m5.868-5.878q1.165 2.087 3.133 3.183A8.66 8.66 0 0 0 17.5 8.5q.35 0 .723-.042a9 9 0 0 0 .762-.122 7.9 7.9 0 0 0-2.903-3.158A7.6 7.6 0 0 0 12 4q-.504 0-.992.057a8 8 0 0 0-.925.164M8.934 14.25q-.524 0-.887-.363A1.2 1.2 0 0 1 7.684 13q0-.525.363-.888.362-.362.887-.362t.888.362.363.888-.363.887a1.2 1.2 0 0 1-.888.363m3 5.75q1.47 0 2.765-.493a7.6 7.6 0 0 0 2.27-1.334L7.927 9.1A8.8 8.8 0 0 1 6.1 10.745a9 9 0 0 1-2.166 1.102V12q0 3.325 2.338 5.662Q8.609 20 11.935 20"/></svg>