<svg xmlns="http://www.w3.org/2000/svg" width="24" height="24" viewBox="0 0 24 24" fill='currentColor'><path d="M9.582 11.817a.88.88 0 0 1-.646-.26.87.87 0 0 1-.263-.645q0-.385.263-.644a.9.9 0 0 1 .65-.259.86.86 0 0 1 .638.261.88.88 0 0 1 .257.645.87.87 0 0 1-.259.644.87.87 0 0 1-.64.258m4.83 0a.87.87 0 0 1-.644-.26.88.88 0 0 1-.259-.645.87.87 0 0 1 .261-.644.88.88 0 0 1 .645-.259.87.87 0 0 1 .644.261.88.88 0 0 1 .258.645.87.87 0 0 1-.26.644.88.88 0 0 1-.645.258m-4.128-7.573A5.8 5.8 0 0 0 7.79 5.748a6.1 6.1 0 0 0-1.483 2.5A6.6 6.6 0 0 0 8.79 6.705a5.76 5.76 0 0 0 1.495-2.46M11.884 4a2.3 2.3 0 0 0-.654.096 6 6 0 0 0 2.335 2.401 6.1 6.1 0 0 0 3.255.83q.135 0 .255-.01.12-.009.245-.048a5.86 5.86 0 0 0-2.248-2.415A5.87 5.87 0 0 0 11.883 4M8.97 15.183l-1.094 1.084a7.5 7.5 0 0 1-2.461-2.653Q4.5 11.973 4.5 10q0-3.14 2.18-5.32Q8.857 2.5 11.998 2.5t5.32 2.18Q19.5 6.86 19.5 10q0 1.973-.916 3.614a7.5 7.5 0 0 1-2.461 2.653l-1.094-1.084a6.1 6.1 0 0 0 2.155-2.149Q18 11.676 18 10a5 5 0 0 0-.04-.636 6 6 0 0 0-.118-.626 2.6 2.6 0 0 1-.548.058 7.6 7.6 0 0 1-3.455-.513 7.8 7.8 0 0 1-2.876-1.981 7.75 7.75 0 0 1-2.12 2.29A7.9 7.9 0 0 1 6 9.883v.03q-.04 1.694.784 3.086a6 6 0 0 0 2.187 2.183m2.279 7.567v-4.521L9.4 20.054 8.356 19 12 15.356 15.644 19 14.6 20.054l-1.85-1.825v4.521z"/></svg>