<svg xmlns="http://www.w3.org/2000/svg" width="24" height="24" viewBox="0 0 24 24" fill='currentColor'><path d="M12 18q3.35 0 5.675-2.338T20 10q0-.87-.168-1.665a7.2 7.2 0 0 0-.501-1.518q-.637.406-1.353.622a5.1 5.1 0 0 1-1.478.215 5.2 5.2 0 0 1-2.58-.67A5.2 5.2 0 0 1 12 5.12a5.1 5.1 0 0 1-1.915 1.862q-1.197.67-2.585.67-.762 0-1.473-.214a5.6 5.6 0 0 1-1.348-.612A7.6 7.6 0 0 0 4 10q0 3.325 2.337 5.663T12 18m-3-5.75q.525 0 .887-.363.363-.362.363-.887t-.363-.887A1.2 1.2 0 0 0 9 9.75q-.525 0-.888.363A1.2 1.2 0 0 0 7.75 11q0 .525.362.887.363.363.888.363m6 0q.525 0 .887-.363.363-.362.363-.887t-.363-.887A1.2 1.2 0 0 0 15 9.75q-.525 0-.887.363a1.2 1.2 0 0 0-.363.887q0 .525.363.887.362.363.887.363M7.5 6.154a3.62 3.62 0 0 0 2.653-1.097 3.62 3.62 0 0 0 1.097-2.653V2.03a7.6 7.6 0 0 0-3.327 1.09 8.1 8.1 0 0 0-2.51 2.373q.47.31.994.485t1.093.175m9 0q.57 0 1.098-.172a3.8 3.8 0 0 0 .998-.497 7.8 7.8 0 0 0-2.492-2.34A8.2 8.2 0 0 0 12.75 2.04v.363q0 1.555 1.097 2.653A3.62 3.62 0 0 0 16.5 6.154M.74 21.5 1.792 9.998a10.5 10.5 0 0 1 1.061-3.732 10.6 10.6 0 0 1 2.236-3.019 10.3 10.3 0 0 1 3.139-2.013A9.8 9.8 0 0 1 12 .5a9.8 9.8 0 0 1 3.772.734 10.3 10.3 0 0 1 3.138 2.013q1.367 1.28 2.237 3.019a10.5 10.5 0 0 1 1.06 3.732L23.26 21.5zm11.26-2q-3.154 0-5.61-1.848t-3.37-4.689L2.391 20h19.216l-.627-7.027q-.914 2.84-3.363 4.684Q15.17 19.5 12 19.5m0 .5h9.608H2.392z"/></svg>