<svg xmlns="http://www.w3.org/2000/svg" width="24" height="24" viewBox="0 0 24 24" fill='currentColor'><g clip-path="url(#a)"><path d="M12 22.5q-.555 0-1.136-.08a17 17 0 0 1-1.28-.234q-2.026 1.577-4.539 1.197t-3.778-2.53Q.22 19.11.61 17.115a5.87 5.87 0 0 1 1.915-3.349 4 4 0 0 1-.01-.268v-.268Q1.023 11.939.64 9.952q-.385-1.986.594-3.692a5.28 5.28 0 0 1 2.535-2.243 5.46 5.46 0 0 1 3.373-.323A5.2 5.2 0 0 1 9.078 1.37 5.17 5.17 0 0 1 12 .5q1.611 0 2.922.87a5.2 5.2 0 0 1 1.938 2.324 5.47 5.47 0 0 1 3.377.322 5.22 5.22 0 0 1 2.53 2.244q.979 1.696.595 3.682-.385 1.987-1.877 3.287v.268q0 .148-.01.268a5.87 5.87 0 0 1 1.915 3.345q.39 1.99-.657 3.744-1.266 2.148-3.778 2.529t-4.54-1.197q-.7.154-1.28.234-.579.08-1.135.08m-4.261-1.038a10.5 10.5 0 0 1-1.626-1.033 9 9 0 0 1-1.388-1.331 9.6 9.6 0 0 1-1.082-1.59 9.4 9.4 0 0 1-.743-1.783 3.9 3.9 0 0 0-.846 2.134q-.097 1.185.506 2.214.773 1.296 2.292 1.712 1.52.417 2.887-.323m8.523 0q1.367.74 2.886.323 1.52-.416 2.293-1.712.601-1.029.505-2.214a3.9 3.9 0 0 0-.846-2.134 8.8 8.8 0 0 1-.739 1.784 10 10 0 0 1-1.086 1.589 9.2 9.2 0 0 1-1.375 1.33q-.756.594-1.638 1.034M12 21q3.35 0 5.675-2.325T20 13q0-.783-.137-1.508a7.3 7.3 0 0 0-.41-1.398q-.696.49-1.537.761-.84.27-1.791.27-2.445 0-4.16-1.714T10.25 5.25v-.058q-2.696.592-4.473 2.767T4 13q0 3.35 2.325 5.675T12 21m-3-5.75q-.525 0-.887-.363A1.2 1.2 0 0 1 7.75 14q0-.525.363-.887.362-.363.887-.363t.887.363.363.887-.363.887A1.2 1.2 0 0 1 9 15.25m6 0q-.525 0-.887-.363A1.2 1.2 0 0 1 13.75 14q0-.525.363-.887.362-.363.887-.363t.887.363.363.887-.363.887a1.2 1.2 0 0 1-.887.363M2.744 10.986a9.3 9.3 0 0 1 .537-1.731 8.8 8.8 0 0 1 .854-1.563 10.4 10.4 0 0 1 1.133-1.376 8.7 8.7 0 0 1 1.376-1.143 4.03 4.03 0 0 0-2.338.256q-1.13.477-1.765 1.565a3.4 3.4 0 0 0-.488 2.017q.07 1.09.691 1.976m18.512 0q.63-.884.696-1.976.066-1.091-.493-2.016a3.67 3.67 0 0 0-1.765-1.57 3.95 3.95 0 0 0-2.338-.251q.746.5 1.376 1.143.63.644 1.133 1.376.503.734.854 1.563.35.83.537 1.731m-5.131-1.361q.783 0 1.441-.23.66-.23 1.203-.64a7 7 0 0 0-1.245-1.538 8.8 8.8 0 0 0-1.599-1.184 7.6 7.6 0 0 0-1.853-.769A8 8 0 0 0 12 5a.6.6 0 0 0-.125.077q-.058.046-.125.087v.086q0 1.821 1.277 3.098t3.098 1.277m-1.014-5.571a3.5 3.5 0 0 0-1.248-1.487A3.24 3.24 0 0 0 12 2q-1.027 0-1.853.563a3.25 3.25 0 0 0-1.2 1.462 8.6 8.6 0 0 1 1.48-.391 9.3 9.3 0 0 1 3.179.005 8 8 0 0 1 1.505.415"/></g><defs><clipPath id="a"><path d="M0 0h24v24H0z"/></clipPath></defs></svg>