<svg xmlns="http://www.w3.org/2000/svg" width="24" height="24" viewBox="0 0 24 24" fill='currentColor'><path d="M12 2.5q.8 0 1.613.15t1.562.45l-2.15.975-.5-.05A5 5 0 0 0 12 4q-.5 0-.938.05a6 6 0 0 0-.887.175q1.15 2.1 3.163 3.187Q15.35 8.5 17.5 8.5h.45l.65 1.425q-2.25.275-4.662-.55Q11.524 8.55 9.75 6.3 8.8 8.575 7.263 9.887T4 11.85q0 3.475 2.338 5.813T12 20q3.4 0 5.713-2.4Q20.025 15.2 20 12q0-.325-.025-.575l-.05-.525.975-2.125a7.7 7.7 0 0 1 .463 1.6q.137.8.137 1.625 0 1.925-.737 3.65a9.8 9.8 0 0 1-2.013 3.025 9.6 9.6 0 0 1-3 2.063q-1.725.762-3.75.762-1.95 0-3.688-.75a9.6 9.6 0 0 1-3.025-2.038 9.6 9.6 0 0 1-2.037-3.024A9.2 9.2 0 0 1 2.5 12q0-2.025.775-3.762A9.7 9.7 0 0 1 5.35 5.225a9.6 9.6 0 0 1 3.025-2A9.3 9.3 0 0 1 12 2.5m-3 9.25q.525 0 .887.363.363.362.363.887t-.363.887A1.2 1.2 0 0 1 9 14.25q-.525 0-.887-.363A1.2 1.2 0 0 1 7.75 13q0-.525.363-.887.362-.363.887-.363m6 0q.525 0 .887.363.363.362.363.887t-.363.887a1.2 1.2 0 0 1-.887.363q-.525 0-.887-.363A1.2 1.2 0 0 1 13.75 13q0-.525.363-.887.362-.363.887-.363m4.5-10.525 1.025 2.25 2.25 1.025-2.25 1.025-1.025 2.25-1.025-2.25-2.25-1.025 2.25-1.025zM4.275 10.1Q5.7 9.375 6.963 8.025q1.262-1.35 1.637-3.25a7.54 7.54 0 0 0-2.775 2.137 7.86 7.86 0 0 0-1.55 3.188"/></svg>