<svg xmlns="http://www.w3.org/2000/svg" width="24" height="24" viewBox="0 0 24 24" fill='currentColor'><path d="M9.779 22.75a3.44 3.44 0 0 1-2.128-.71 3.42 3.42 0 0 1-1.26-1.832 2.3 2.3 0 0 0-.64-1.103q-.471-.451-1.128-.451-.429 0-.813.186a2 2 0 0 0-.652.506l-1.14-.958q.476-.592 1.162-.913a3.4 3.4 0 0 1 1.443-.321q1.16 0 2.025.755a3.84 3.84 0 0 1 1.186 1.883q.18.652.731 1.055.552.403 1.214.403.57 0 1.008-.322t.761-.774l.035-.06-7.64-10.79L12.5.777l8.558 8.527-8.462 11.948A3.37 3.37 0 0 1 9.78 22.75m2.721-3.942 6.587-9.337L12.5 2.875 5.929 9.486z"/></svg>