<svg xmlns="http://www.w3.org/2000/svg" width="24" height="24" viewBox="0 0 24 24" fill='currentColor'><path d="M18 5.904q-.762 0-1.304-.543a1.78 1.78 0 0 1-.542-1.303q0-.762.542-1.304A1.78 1.78 0 0 1 18 2.21q.762 0 1.304.543.542.542.542 1.304 0 .761-.542 1.303A1.78 1.78 0 0 1 18 5.904M16.865 21.75V10.998h-1.7l1.402-3.96h2.875l3.058 8.654h-2.577v6.058zM12.5 11.46q-.586 0-.994-.41a1.36 1.36 0 0 1-.409-.995q0-.585.41-.994.41-.408.995-.408t.994.41.409.995-.41.994a1.36 1.36 0 0 1-.995.408m-7-5.556q-.761 0-1.304-.543a1.78 1.78 0 0 1-.542-1.303q0-.762.542-1.304A1.78 1.78 0 0 1 5.5 2.21q.761 0 1.304.543.542.542.542 1.304 0 .761-.542 1.303a1.78 1.78 0 0 1-1.304.543M3.616 21.75v-6.79H2.039V7.21h6.923v7.75H7.385v6.789zm7.519 0V18h-1v-5.5h4.73V18h-1v3.75z"/></svg>