<svg xmlns="http://www.w3.org/2000/svg" width="24" height="24" viewBox="0 0 24 24" fill='currentColor'><path d="M4.116 21.5V10.615H2.5V5.404h5.171a1.3 1.3 0 0 1-.287-.55 2.7 2.7 0 0 1-.076-.643q0-1.122.785-1.907A2.6 2.6 0 0 1 10 1.52q.575 0 1.066.241.49.241.876.646.387-.42.877-.653a2.44 2.44 0 0 1 1.065-.234q1.123 0 1.908.785.785.786.785 1.907 0 .333-.084.633t-.28.56H21.5v5.211h-1.616V21.5zm9.769-18.481q-.507 0-.85.343a1.15 1.15 0 0 0-.343.85q0 .505.343.849.343.342.85.343.505 0 .85-.343.342-.343.342-.85t-.343-.85a1.16 1.16 0 0 0-.85-.342M8.808 4.211q0 .507.342.85.343.342.85.343.507 0 .85-.343t.342-.85-.342-.85A1.15 1.15 0 0 0 10 3.02q-.507 0-.85.343a1.15 1.15 0 0 0-.342.85M4 6.904v2.211h7.25V6.904zM11.25 20v-9.385H5.615V20zm1.5 0h5.635v-9.385H12.75zM20 9.115V6.904h-7.25v2.211z"/></svg>