<svg xmlns="http://www.w3.org/2000/svg" width="24" height="24" viewBox="0 0 24 24" fill='currentColor'><path d="M12.002 21.5a9.25 9.25 0 0 1-3.706-.748 9.6 9.6 0 0 1-3.016-2.03 9.6 9.6 0 0 1-2.032-3.017A9.25 9.25 0 0 1 2.5 12V3.5l5.65 4.246A39 39 0 0 1 9.927 5.26 49 49 0 0 1 12 2.759a51 51 0 0 1 1.996 2.413 36 36 0 0 1 1.829 2.574L21.5 3.5V12q0 1.972-.748 3.705a9.6 9.6 0 0 1-2.03 3.016 9.6 9.6 0 0 1-3.016 2.03 9.25 9.25 0 0 1-3.704.749M12 20q3.35 0 5.675-2.325T20 12V6.5l-4.6 3.45q-1.125-1.8-1.825-2.85T12 5a32 32 0 0 0-1.625 2.175A69 69 0 0 0 8.6 9.95L4 6.5V12q0 3.35 2.325 5.675T12 20"/></svg>