<svg xmlns="http://www.w3.org/2000/svg" width="24" height="24" viewBox="0 0 24 24" fill='currentColor'><path d="m15.096 20 1.5 1.5H4.5v-19h10.27l4.73 5.673v13.135h-.246l-5.389-5.358q-.425.285-.882.417A3.5 3.5 0 0 1 12 16.5q-1.444 0-2.472-1.028T8.5 13t1.028-2.472T12 9.5t2.472 1.028T15.5 13q0 .546-.137 1.003a3.2 3.2 0 0 1-.413.862l3.05 3.1V8.7L14.05 4H6v16zM12 15q.825 0 1.412-.588Q14 13.826 14 13t-.588-1.412A1.93 1.93 0 0 0 12 11q-.825 0-1.412.588A1.93 1.93 0 0 0 10 13q0 .825.588 1.412Q11.175 15 12 15"/></svg>