<svg xmlns="http://www.w3.org/2000/svg" width="24" height="24" viewBox="0 0 24 24" fill='currentColor'><path d="m9.423 21.5-1.094-3.658a2.28 2.28 0 0 1-.829-1.775V7.933q0-.552.227-1.015t.611-.776L9.424 2.5h5.154l1.044 3.617q.41.33.644.792t.235 1.024v8.134q0 .562-.227 1.024a2.3 2.3 0 0 1-.636.792l-1.06 3.617zm1.1-1.5h2.929l.425-1.51h-3.789zm-.62-3.01h4.193a.88.88 0 0 0 .645-.258.88.88 0 0 0 .259-.645V7.913a.88.88 0 0 0-.259-.645.88.88 0 0 0-.645-.258H9.904a.88.88 0 0 0-.645.258.88.88 0 0 0-.259.646v8.173q0 .386.259.645a.88.88 0 0 0 .645.259m.195-11.48h3.77L13.451 4h-2.929z"/></svg>