<svg xmlns="http://www.w3.org/2000/svg" width="24" height="24" viewBox="0 0 24 24" fill='currentColor'><path d="M18.558 22.24H11.25v-3.796q-2.45-.263-4.1-2.1Q5.5 14.504 5.5 12V1.5h13V12q0 2.505-1.65 4.343t-4.1 2.101v2.296h5.808zm-4.808-8.99h3.083q.078-.308.123-.613Q17 12.333 17 12v-1.25h-3.75v-1.5H17v-2.5h-4.75v-1.5H17V3H7v8.25h2.75q.766 0 1.451.346.686.346 1.147.958.239.333.617.514.378.182.785.182M12 17q1.302 0 2.4-.61a4.9 4.9 0 0 0 1.763-1.64H13.75q-.766 0-1.451-.346a3.26 3.26 0 0 1-1.147-.958 1.6 1.6 0 0 0-.617-.514 1.8 1.8 0 0 0-.785-.182H7.061q.264 1.812 1.655 3.03Q10.108 17 12 17"/></svg>