<svg xmlns="http://www.w3.org/2000/svg" width="24" height="24" viewBox="0 0 24 24" fill='currentColor'><path d="M2.5 19.5v-15h19v1.808H20V6H4v12h8.116v1.5zm18.865 2.77h-4.5v-2.841a4.37 4.37 0 0 1-2.68-1.506q-1.07-1.242-1.07-2.923V8.5h9V15q0 1.68-1.07 2.923a4.37 4.37 0 0 1-2.68 1.506v1.34h3zm-2-8.02h1.25V10h-6v2.25h.75q.758 0 1.443.346.684.346 1.156.958.233.348.613.522t.788.174M17.615 18q1.042 0 1.847-.64a2.86 2.86 0 0 0 1.036-1.61h-1.133q-.765 0-1.451-.334a3.16 3.16 0 0 1-1.156-.96 1.8 1.8 0 0 0-.619-.52 1.7 1.7 0 0 0-.774-.186h-.75V15q0 1.275.863 2.137.862.863 2.137.863M6.25 10.75h4.673v-1.5H6.25zm0 4h4.673v-1.5H6.25z"/></svg>