<svg xmlns="http://www.w3.org/2000/svg" width="24" height="24" viewBox="0 0 24 24" fill='currentColor'><path d="M4 18V6v5.037-.71zm6.825 1.5H2.5v-15h7.298l2 2H21.5v5.577a5 5 0 0 0-.699-.579 6 6 0 0 0-.801-.461V8h-8.815L9.182 6H4v12h6.383q.056.4.17.77t.272.73m6.175-7q1.873 0 3.186 1.313Q21.5 15.128 21.5 17t-1.314 3.186Q18.874 21.5 17 21.5t-3.187-1.314Q12.5 18.874 12.5 17t1.313-3.187T17 12.5m-.442 7.27h.884v-3.54h-.884zM17 15.23a.48.48 0 0 0 .35-.15.48.48 0 0 0 0-.7.48.48 0 0 0-.7 0 .48.48 0 0 0 0 .7q.15.15.35.15"/></svg>