<svg xmlns="http://www.w3.org/2000/svg" width="24" height="24" viewBox="0 0 24 24" fill='currentColor'><path d="M2.5 19.5v-15h7.298l2 2H21.5v7.694a4 4 0 0 0-.72-.445q-.375-.182-.78-.374V8h-8.815L9.182 6H4v12h3.394v1.5zm13.567 3a7.1 7.1 0 0 1-3.791-1.07 6.95 6.95 0 0 1-2.641-2.91 6.95 6.95 0 0 1 2.641-2.911 7.1 7.1 0 0 1 3.791-1.07q2.054 0 3.792 1.07a6.95 6.95 0 0 1 2.641 2.91 6.95 6.95 0 0 1-2.642 2.91 7.1 7.1 0 0 1-3.791 1.071m-.001-1.5q1.407 0 2.655-.66a5.8 5.8 0 0 0 2.067-1.82 5.84 5.84 0 0 0-2.065-1.822 5.6 5.6 0 0 0-2.654-.66q-1.407 0-2.655.66a5.8 5.8 0 0 0-2.068 1.821 5.84 5.84 0 0 0 2.066 1.822q1.247.66 2.654.659m.003-1.23q-.521 0-.886-.365a1.2 1.2 0 0 1-.366-.885q0-.52.364-.885.364-.366.885-.366.52 0 .886.365.365.363.365.884 0 .52-.364.886a1.2 1.2 0 0 1-.884.365M4 18V6v7.329-.983z"/></svg>