<svg xmlns="http://www.w3.org/2000/svg" width="24" height="24" viewBox="0 0 24 24" fill='currentColor'><path d="M4.067 19.798q-.761 0-1.303-.542a1.78 1.78 0 0 1-.543-1.304v-1q0-.762.543-1.304a1.78 1.78 0 0 1 1.303-.542q.762 0 1.304.542.543.542.542 1.304v1q0 .761-.542 1.304a1.78 1.78 0 0 1-1.304.542m16.983.106h-1.502a.43.43 0 0 1-.361-.17.46.46 0 0 1-.081-.398l.255-.969a.5.5 0 0 1 .191-.274.36.36 0 0 1 .311-.062l1.303.19q.32.051.53.279a.78.78 0 0 1 .208.545.83.83 0 0 1-.251.61.83.83 0 0 1-.603.249m-3.71-.36-2.763-.921a.5.5 0 0 1-.271-.247.38.38 0 0 1 0-.36l.711-1.63a.5.5 0 0 1 .28-.253.4.4 0 0 1 .368.033l2.323 1.351q.14.065.194.201t.012.291l-.271 1.214a.45.45 0 0 1-.221.289.42.42 0 0 1-.362.032m-4.65-1.75-1.911-.49a.89.89 0 0 1-.683-.879V15.5q0-.518.171-.984.17-.466.58-.756a.49.49 0 0 1 .567-.025l2.425 1.332q.157.09.214.259a.45.45 0 0 1-.009.324l-.836 1.898a.43.43 0 0 1-.214.227.4.4 0 0 1-.303.02m-5.182-.89a.4.4 0 0 1-.292-.113.47.47 0 0 1-.145-.287q-.174-1.155-1.041-1.877A3.07 3.07 0 0 0 4 13.904h-.5a.4.4 0 0 1-.288-.117.4.4 0 0 1-.116-.287.4.4 0 0 1 .116-.287.4.4 0 0 1 .288-.117h.9q.493 0 .937-.125t.869-.38a.6.6 0 0 1 .29-.075q.156 0 .289.075.5.28 1.036.393.537.112 1.102.112.274 0 .388.27a.55.55 0 0 1-.047.53q-.216.36-.288.77a5 5 0 0 0-.072.834v.952q0 .18-.135.316a.43.43 0 0 1-.316.136zm-3.067-5.02q-.94 0-1.565-.625-.626-.625-.626-1.538 0-.424.156-.825t.467-.713L4.25 6.816V5.135q0-.318.216-.535A.73.73 0 0 1 5 4.385q.32 0 .535.215a.73.73 0 0 1 .215.535v1.6q0 .349-.143.664-.144.317-.39.563l-1.265 1.3a.7.7 0 0 0-.145.208.6.6 0 0 0-.057.24q0 .28.199.477a.65.65 0 0 0 .476.198q.229 0 .588-.283a3 3 0 0 1 .692-.444q.37-.173.796-.173t.801.171.694.446q.139.105.277.193.138.09.302.09a.65.65 0 0 0 .477-.2.66.66 0 0 0 .198-.479q0-.12-.052-.238a.7.7 0 0 0-.14-.206l-1.285-1.3a1.8 1.8 0 0 1-.385-.563 1.6 1.6 0 0 1-.138-.664v-1.6q0-.318.216-.535A.73.73 0 0 1 8 4.385q.32 0 .534.215a.73.73 0 0 1 .216.535v1.68l1.377 1.368q.311.315.467.707.156.393.156.82a2.1 2.1 0 0 1-.626 1.542q-.626.633-1.565.632a1.9 1.9 0 0 1-.827-.18 3 3 0 0 1-.703-.462 11 11 0 0 0-.247-.176.5.5 0 0 0-.282-.082q-.185 0-.538.258a3 3 0 0 1-.716.45 2.1 2.1 0 0 1-.806.192"/></svg>