<svg xmlns="http://www.w3.org/2000/svg" width="24" height="24" viewBox="0 0 24 24" fill='currentColor'><path d="M12 12.192q1.929 0 3.985-.364t3.63-.982V20q-1.461.636-3.534 1.03a22 22 0 0 1-4.081.393 22 22 0 0 1-4.08-.393Q5.846 20.637 4.384 20v-9.154q1.575.619 3.63.982 2.057.364 3.985.364m6.116 6.693v-5.981q-1.223.35-2.931.57-1.71.218-3.185.218t-3.185-.219-2.93-.57v5.982q1.191.45 2.903.744t3.212.294 3.211-.294 2.905-.744M12 2.577q1.491 0 2.553 1.062t1.062 2.553-1.062 2.554T12 9.808 9.447 8.746 8.385 6.192 9.447 3.64 12 2.577m0 5.73q.873 0 1.494-.62.621-.622.622-1.495 0-.873-.622-1.494A2.04 2.04 0 0 0 12 4.078q-.873 0-1.494.62a2.04 2.04 0 0 0-.622 1.495q0 .873.622 1.494.621.62 1.494.62"/></svg>