<svg xmlns="http://www.w3.org/2000/svg" width="24" height="24" viewBox="0 0 24 24" fill='currentColor'><path d="M7.325 20.75q-.356 0-.744-.15a3 3 0 0 1-.67-.35 20 20 0 0 1-.433-.322A.8.8 0 0 0 5 19.75h-.75v-1.5H5q.356 0 .744.15.389.15.67.35.2.144.433.322a.8.8 0 0 0 .478.178q.26 0 .498-.178t.438-.322q.281-.216.67-.358t.744-.142.744.142.67.358q.2.144.425.322a.77.77 0 0 0 .486.178q.26 0 .498-.178t.439-.322q.28-.216.669-.358.388-.142.744-.142.341 0 .736.15.397.15.678.35.21.144.443.322.234.178.493.178.26 0 .48-.178.222-.178.431-.322.281-.2.67-.35t.744-.15h.75v1.5h-.75a.8.8 0 0 0-.488.178 9 9 0 0 1-.439.322q-.29.2-.691.35-.402.15-.757.15-.34 0-.729-.15a3 3 0 0 1-.669-.35 9 9 0 0 1-.439-.322.8.8 0 0 0-.488-.178.8.8 0 0 0-.493.178q-.234.177-.444.322-.28.215-.669.358a2.2 2.2 0 0 1-.744.142q-.356 0-.744-.142a2.5 2.5 0 0 1-.67-.358 7 7 0 0 1-.43-.322.75.75 0 0 0-.481-.178.84.84 0 0 0-.49.178l-.447.322a2.3 2.3 0 0 1-.656.358 2.2 2.2 0 0 1-.732.142M12 16.154q-2.38 0-4.017-1.637-1.637-1.636-1.637-4.017V2.846h1.808V10.5q0 1.62 1.113 2.733 1.114 1.113 2.733 1.113 1.62 0 2.733-1.113 1.113-1.114 1.113-2.733V2.846h1.808V10.5q0 2.38-1.637 4.017-1.636 1.637-4.017 1.637"/></svg>