<svg xmlns="http://www.w3.org/2000/svg" width="24" height="24" viewBox="0 0 24 24" fill='currentColor'><path d="M1.798 19.308v-2.223q0-.774.4-1.38a2.7 2.7 0 0 1 1.065-.944q1.425-.697 2.867-1.075 1.44-.378 3.168-.378 1.726 0 3.168.378t2.867 1.075q.667.338 1.066.944t.399 1.38v2.223zm17 0v-2.346q0-.985-.482-1.877a4.55 4.55 0 0 0-1.368-1.53q1.005.15 1.91.463.903.315 1.725.744.774.413 1.197.974.422.561.422 1.226v2.346zm-9.5-7.616q-1.443 0-2.472-1.028T5.798 8.192t1.028-2.471 2.472-1.029 2.472 1.029 1.028 2.471-1.028 2.472-2.472 1.028m8.635-3.5q0 1.444-1.029 2.472t-2.471 1.028a3 3 0 0 1-.431-.038 4 4 0 0 1-.43-.085q.591-.711.909-1.578a5.2 5.2 0 0 0-.007-3.593 5.8 5.8 0 0 0-.903-1.582q.216-.078.431-.1.215-.024.43-.024 1.444 0 2.472 1.029t1.029 2.471M3.298 17.808h12v-.723a1 1 0 0 0-.157-.558q-.156-.244-.497-.427a11.8 11.8 0 0 0-2.542-.964 11.5 11.5 0 0 0-2.804-.328q-1.496 0-2.804.328a11.8 11.8 0 0 0-2.542.964q-.34.183-.497.427a1 1 0 0 0-.157.558zm6-7.616q.825 0 1.412-.587.588-.588.588-1.413 0-.824-.588-1.412a1.93 1.93 0 0 0-1.412-.588q-.825 0-1.412.588a1.93 1.93 0 0 0-.588 1.412q0 .825.588 1.413.587.588 1.412.587"/></svg>