<svg xmlns="http://www.w3.org/2000/svg" width="24" height="24" viewBox="0 0 24 24" fill='currentColor'><path d="M12.596 11.642q.639-.694.944-1.594.306-.9.306-1.856 0-.955-.306-1.855a4.4 4.4 0 0 0-.944-1.595q1.317.152 2.188 1.138.87.986.87 2.312 0 1.328-.87 2.313a3.33 3.33 0 0 1-2.188 1.137m5.25 7.666v-2.346q0-.818-.332-1.556a3.6 3.6 0 0 0-.945-1.267 8.7 8.7 0 0 1 2.117 1.032q.968.65.968 1.79v2.347zm1.808-6.558v-2h-2v-1.5h2v-2h1.5v2h2v1.5h-2v2zM8.346 11.692q-1.443 0-2.472-1.028T4.846 8.192t1.028-2.471 2.472-1.029 2.472 1.029 1.028 2.471-1.028 2.472-2.472 1.028m-7.5 7.616v-2.223q0-.735.4-1.36a2.66 2.66 0 0 1 1.066-.963 14.5 14.5 0 0 1 2.991-1.09 12.94 12.94 0 0 1 6.087 0q1.508.363 2.99 1.09.668.336 1.067.962.4.627.4 1.36v2.224zm7.5-9.116q.825 0 1.413-.587.587-.588.587-1.413 0-.824-.587-1.412a1.93 1.93 0 0 0-1.413-.588q-.825 0-1.412.588a1.93 1.93 0 0 0-.588 1.412q0 .825.588 1.413.587.588 1.412.587m-6 7.616h12v-.723a1 1 0 0 0-.176-.563 1.34 1.34 0 0 0-.478-.422 13 13 0 0 0-2.635-.964 11.4 11.4 0 0 0-5.421 0Q4.292 15.463 3 16.1q-.301.165-.478.422a1 1 0 0 0-.176.563z"/></svg>