<svg xmlns="http://www.w3.org/2000/svg" width="24" height="24" viewBox="0 0 24 24" fill='currentColor'><path d="M17.01 21.75q-1.445 0-2.384-.766-.939-.765-1.455-2.207-.405-1.174-.841-1.726-.435-.553-1.816-1.643-1.531-1.23-2.393-2.773Q7.26 11.095 7.26 9q0-2.88 1.935-4.815T14.01 2.25q2.821 0 4.738 1.854 1.917 1.853 1.993 4.646h-1.5q-.076-2.154-1.572-3.577T14.01 3.75q-2.221 0-3.736 1.514Q8.76 6.78 8.76 9q0 1.739.737 3.03a7.5 7.5 0 0 0 1.997 2.25q1.242.922 1.924 1.769a6.7 6.7 0 0 1 1.08 1.955q.389 1.11.939 1.678t1.572.568q.854 0 1.49-.578t.722-1.422h1.52a3.6 3.6 0 0 1-1.161 2.484q-1.074 1.016-2.57 1.016M6.228 16.384a11 11 0 0 1-2.17-3.338A10.3 10.3 0 0 1 3.26 9q0-2.165.8-4.079a11 11 0 0 1 2.17-3.356L7.314 2.6a9.6 9.6 0 0 0-1.878 2.907A9 9 0 0 0 4.76 9q0 1.83.676 3.45a9.6 9.6 0 0 0 1.878 2.9zm7.78-5.076a2.22 2.22 0 0 1-1.64-.675A2.24 2.24 0 0 1 11.702 9q0-.973.667-1.64.668-.668 1.64-.668.974 0 1.641.668.667.667.667 1.64 0 .957-.667 1.633-.668.675-1.64.675"/></svg>