<svg xmlns="http://www.w3.org/2000/svg" width="24" height="24" viewBox="0 0 24 24" fill='currentColor'><path d="m11 20.327-2.165-1.946a112 112 0 0 1-3.444-3.246q-1.402-1.39-2.269-2.54-.866-1.149-1.244-2.16A5.9 5.9 0 0 1 1.5 8.35q0-2.129 1.436-3.557T6.5 3.366q1.31 0 2.475.612Q10.14 4.591 11 5.735q.86-1.144 2.025-1.757a5.25 5.25 0 0 1 2.475-.612q1.937 0 3.488 1.36Q20.54 6.083 20.54 8.34q0 .399-.074.834t-.222.884H18.64q.172-.498.262-.942.09-.442.09-.831 0-1.818-1.222-2.619-1.22-.8-2.269-.8-1.246 0-2.205.687-.958.687-1.806 1.947h-.978Q9.67 6.23 8.678 5.548A3.76 3.76 0 0 0 6.5 4.865q-1.444 0-2.472.993Q3 6.85 3 8.35q0 .835.35 1.694.35.86 1.25 1.982t2.45 2.629T11 18.3q.708-.633 1.515-1.344a47 47 0 0 0 1.362-1.24l.167.167.367.367.368.367.167.168q-.57.528-1.357 1.223-.787.694-1.485 1.327zm3.865-6.577v-1.5h7.5v1.5z"/></svg>