<svg xmlns="http://www.w3.org/2000/svg" width="24" height="24" viewBox="0 0 24 24" fill='currentColor'><path d="M12.025 21.3a338 338 0 0 1-4.89-4.998q-1.867-1.96-2.895-3.32t-1.384-2.36A6.3 6.3 0 0 1 2.5 8.5q0-2.196 1.527-3.723Q5.555 3.25 7.75 3.25a5.62 5.62 0 0 1 3.762 1.436L9.914 10.25h3.028l-.802 8.221 2.956-9.721h-3.019l1.63-4.877q.579-.311 1.216-.467.636-.156 1.308-.156 2.195 0 3.722 1.527 1.528 1.528 1.528 3.723a6.2 6.2 0 0 1-.378 2.162q-.378 1.029-1.423 2.411t-2.89 3.325a379 379 0 0 1-4.765 4.902m-1.304-3.458.583-6.092H7.927l1.846-6.46a5.7 5.7 0 0 0-.981-.389q-.513-.15-1.042-.151-1.554 0-2.652 1.098A3.6 3.6 0 0 0 4 8.5q0 .795.316 1.617.317.824 1.092 1.888t2.074 2.468 3.24 3.37m3.402-.825q3.237-3.315 4.547-5.177 1.31-1.863 1.31-3.34 0-1.554-1.098-2.652a3.6 3.6 0 0 0-2.651-1.098q-.332 0-.656.061-.322.063-.646.172l-.745 2.267h2.91z"/></svg>