<svg xmlns="http://www.w3.org/2000/svg" width="24" height="24" viewBox="0 0 24 24" fill='currentColor'><path d="M11.689 15.84q0 .95.445 1.864.447.914 1.491 2.117l-1.079.954q-1.248-1.323-1.81-2.486a5.5 5.5 0 0 1-.563-2.408q0-.912.268-1.904.27-.993.89-2.49.58-1.427.788-2.17.208-.741.208-1.376 0-.941-.479-1.786-.48-.845-1.583-1.888l1.054-1.075q1.317 1.23 1.913 2.345.595 1.113.595 2.379a7 7 0 0 1-.236 1.726q-.235.91-.856 2.402-.607 1.472-.826 2.276a5.8 5.8 0 0 0-.22 1.52m4.672.02q0 .95.454 1.863.454.915 1.499 2.117l-1.08.939q-1.248-1.323-1.818-2.479-.57-1.155-.57-2.4 0-.91.268-1.904.27-.992.89-2.49.58-1.427.788-2.17Q17 8.596 17 7.96q0-.94-.471-1.786-.472-.845-1.575-1.887l1.038-1.075q1.317 1.23 1.913 2.344a5 5 0 0 1 .595 2.379q0 .817-.235 1.727-.236.91-.857 2.402-.606 1.47-.826 2.276a5.8 5.8 0 0 0-.22 1.52m-9.346 0q0 .95.454 1.863.454.915 1.498 2.117l-1.079.954Q6.64 19.471 6.07 18.308A5.4 5.4 0 0 1 5.5 15.9q0-.91.268-1.904.27-.992.89-2.49.58-1.427.788-2.17a5 5 0 0 0 .208-1.376q0-.94-.471-1.786-.472-.845-1.575-1.887l1.038-1.075q1.317 1.23 1.913 2.344.595 1.113.595 2.379 0 .817-.236 1.727-.235.91-.856 2.402-.607 1.47-.826 2.276a5.8 5.8 0 0 0-.22 1.52"/></svg>