<svg xmlns="http://www.w3.org/2000/svg" width="24" height="24" viewBox="0 0 24 24" fill='currentColor'><path d="M10.154 18.346h3.692v-1.192h-2.5v-1.058h2v-1.192h-2v-1.058h2.5v-1.192h-3.692zm4.904 0h4.192v-3.288h-3v-1.212h3v-1.192h-4.192v3.288h3v1.212h-3zm-7.212-7h1.192v-2.25h1.808v2.25h1.193V5.654h-1.193v2.25H9.038v-2.25H7.846zm6.423 0h1.192V5.654H14.27zM1.615 20.5v-17h20.77v17zm1.5-1.5h17.77V5H3.114zm1.635-.654h1.192v-2h.802l.9 2h1.221l-.91-2.061q.415-.14.7-.487.287-.348.287-.807v-.982q0-.564-.395-.96a1.3 1.3 0 0 0-.96-.395H4.75zm1.192-3.192v-1.308h1.644q.068 0 .116.048t.048.115v.982a.16.16 0 0 1-.048.115.16.16 0 0 1-.116.048z"/></svg>