<svg xmlns="http://www.w3.org/2000/svg" width="24" height="24" viewBox="0 0 24 24" fill='currentColor'><path d="M8.116 19.385q-.62 0-1.06-.44a1.45 1.45 0 0 1-.44-1.06v-2.5H9.5v-2.75a4.5 4.5 0 0 1-1.807-.224q-.893-.3-1.543-.965v-1.254H4.865L1.846 7.173a5.1 5.1 0 0 1 2.09-1.399A7.3 7.3 0 0 1 6.4 5.342q.818 0 1.59.187.774.187 1.51.615V4.54h11v12.346q0 1.047-.726 1.774a2.4 2.4 0 0 1-1.774.726zm2.884-4h6v1.5q0 .424.288.712.287.288.712.288.424 0 .712-.288a.97.97 0 0 0 .288-.712V6.039h-8v1.1l5.75 5.75v1.053h-1.054l-2.946-2.946-.383.383q-.32.321-.656.558a3.4 3.4 0 0 1-.711.386zM5.504 8.692H7.65v2.054q.405.258.788.352t.766.094q.63 0 1.14-.203t.979-.673l.373-.374-1.573-1.573a5.1 5.1 0 0 0-1.711-1.145A5.3 5.3 0 0 0 6.4 6.842q-.616 0-1.186.133t-1.068.36zm9.996 8.193H8.116v1h7.611q-.123-.216-.175-.469a2.6 2.6 0 0 1-.052-.531"/></svg>