<svg xmlns="http://www.w3.org/2000/svg" width="24" height="24" viewBox="0 0 24 24" fill='currentColor'><path d="M4.5 21.5V20h1.904v-3q0-1.689.924-3.074Q8.252 12.54 9.777 12q-1.525-.55-2.449-1.93A5.4 5.4 0 0 1 6.404 7V4H4.5V2.5h15V4h-1.904v3q0 1.488-.762 2.723-.763 1.235-2.011 1.8.144.01.38.072.235.063.495.226-.662.202-1.227.533-.566.33-1.038.81a4 4 0 0 0-.685-.218 3.4 3.4 0 0 0-.748-.08q-1.708 0-2.902 1.214Q7.904 15.295 7.904 17v3h3.704q.126.416.302.785.174.37.403.715zM12 11.135q1.708 0 2.902-1.215T16.096 7V4H7.904v3q0 1.708 1.194 2.921 1.194 1.215 2.902 1.214m6.712 8.74h.884v-3.692h-.884zm-2.308 0h.884v-3.692h-.884zM18 22.529q-1.873 0-3.187-1.314Q13.5 19.903 13.5 18.03t1.313-3.187T18 13.53t3.186 1.313Q22.5 16.156 22.5 18.03t-1.314 3.186Q19.874 22.53 18 22.53"/></svg>