<svg xmlns="http://www.w3.org/2000/svg" width="24" height="24" viewBox="0 0 24 24" fill='currentColor'><path d="M6.539 21.115v-5.8q0-1.85.573-3.605t1.813-3.485l-.375.039a2.3 2.3 0 0 1-1.452-.78A2.26 2.26 0 0 1 6.5 5.929V4.908q0-1.008.86-1.68.86-.675 1.82-.578l9.32.908v3.88l-1.646.181q.33 1.158.858 2.085.526.927 1.269 1.38l-.75 1.308q-1.124-.697-1.781-1.93a12 12 0 0 1-1.034-2.716l-1.755.168q.162 1.307.744 2.626t1.291 2.525q.431.743.637 1.555a6.7 6.7 0 0 1 .206 1.645v4.85zM8 5.1v.79q0 .45.325.726a.98.98 0 0 0 .775.225l7.9-.75V4.9l-7.9-.75a.98.98 0 0 0-.775.224A.9.9 0 0 0 8 5.1m.039 14.515h7v-3.35q0-.668-.158-1.28a4.7 4.7 0 0 0-.492-1.185 23 23 0 0 1-1.48-2.95 11 11 0 0 1-.748-2.785l-1.336.116-.736.984a10.4 10.4 0 0 0-1.52 2.918 10.1 10.1 0 0 0-.53 3.232z"/></svg>