<svg xmlns="http://www.w3.org/2000/svg" width="24" height="24" viewBox="0 0 24 24" fill='currentColor'><path d="M3.683 20.5V19h16.615v1.5zm2.098-8.955a3.66 3.66 0 0 1-.953-1.442 5 5 0 0 1-.303-1.711q0-1.824 1.238-3.113Q7.002 3.991 8.8 3.991a4.16 4.16 0 0 1 2.912 1.189l.288.288.289-.28q.592-.576 1.342-.887.75-.31 1.569-.31 1.814 0 3.057 1.302Q19.5 6.597 19.5 8.416q0 .877-.325 1.675a4.5 4.5 0 0 1-.93 1.429L12 17.564zm1.044-1.054 5.175 5 5.2-5.025q.425-.4.625-.938t.2-1.112q0-1.2-.808-2.05a2.64 2.64 0 0 0-1.989-.85q-.553 0-1.06.212a2.6 2.6 0 0 0-.893.613l-1.266 1.28-1.259-1.28a3.1 3.1 0 0 0-.888-.625A2.5 2.5 0 0 0 8.8 5.49a2.64 2.64 0 0 0-1.992.85Q6 7.19 6 8.39q0 .575.2 1.125.2.549.625.975"/></svg>