<svg xmlns="http://www.w3.org/2000/svg" width="24" height="24" viewBox="0 0 24 24" fill='currentColor'><path d="M10 21.5q-3.117 0-5.309-2.153-2.19-2.153-2.191-5.242 0-1.475.584-2.82a7.8 7.8 0 0 1 1.612-2.389L10 3.692l5.304 5.204a7.8 7.8 0 0 1 1.612 2.389q.585 1.346.584 2.822 0 3.09-2.191 5.242Q13.118 21.5 10 21.5m0-1.5q2.5 0 4.25-1.708T16 14.107q0-1.175-.45-2.24a5.5 5.5 0 0 0-1.3-1.863L10 5.8l-4.25 4.204q-.85.8-1.3 1.864Q4 12.93 4 14.108q0 2.476 1.75 4.184T10 20m8.24-9.98q0-1.776-1.242-3.018T13.981 5.76q1.775 0 3.017-1.243Q18.24 3.275 18.24 1.5q0 1.775 1.243 3.017Q20.725 5.76 22.5 5.76q-1.775 0-3.017 1.242-1.243 1.242-1.243 3.017"/></svg>