<svg xmlns="http://www.w3.org/2000/svg" width="24" height="24" viewBox="0 0 24 24" fill='currentColor'><path d="M12 12.75q-1.353 0-2.302-.948-.948-.948-.948-2.302t.948-2.302T12 6.25t2.302.948.948 2.302-.948 2.302T12 12.75m0-1.5q.72 0 1.236-.515.514-.513.514-1.235 0-.72-.514-1.236A1.68 1.68 0 0 0 12 7.75q-.721 0-1.235.514A1.68 1.68 0 0 0 10.25 9.5q0 .721.515 1.235.513.515 1.235.515m0 10.663-8.5-5.192V7.28L12 2.086l8.5 5.193v9.442zm0-1.738 3.915-2.41a8.08 8.08 0 0 0-5.937-.756 8 8 0 0 0-1.893.756zm-5.36-3.296a10.3 10.3 0 0 1 2.565-1.206A9.4 9.4 0 0 1 12 15.25q1.433 0 2.795.423 1.363.423 2.565 1.206l1.64-.98V8.126L12 3.85 5 8.125V15.9z"/></svg>