<svg xmlns="http://www.w3.org/2000/svg" width="24" height="24" viewBox="0 0 24 24" fill='currentColor'><path d="M5.308 20.5q-.758 0-1.283-.525a1.75 1.75 0 0 1-.525-1.283V15H5v3.692q0 .116.096.212a.3.3 0 0 0 .212.096H9v1.5zm13.384 0H15V19h3.692a.3.3 0 0 0 .212-.096.3.3 0 0 0 .096-.212V15h1.5v3.692q0 .758-.525 1.283t-1.283.525M3.5 5.308q0-.758.525-1.283T5.308 3.5H9V5H5.308a.3.3 0 0 0-.212.096.3.3 0 0 0-.096.212V9H3.5zm17 0V9H19V5.308a.3.3 0 0 0-.096-.212.3.3 0 0 0-.212-.096H15V3.5h3.692q.758 0 1.283.525t.525 1.283m-8.48 12.298a1 1 0 0 0 .723-.296 1 1 0 0 0 .296-.723 1 1 0 0 0-.296-.724 1 1 0 0 0-.724-.296 1 1 0 0 0-.724.296 1 1 0 0 0-.295.724q0 .428.295.724a1 1 0 0 0 .724.295m-.708-3.566h1.392q.019-.744.224-1.174.204-.432.841-1.068.817-.817 1.105-1.345.287-.528.287-1.22 0-1.254-.878-2.047-.879-.792-2.244-.792-1.116 0-1.944.573-.828.574-1.237 1.639l1.284.53a2.2 2.2 0 0 1 .725-1.033 1.8 1.8 0 0 1 1.152-.393q.774 0 1.254.43.48.431.48 1.139 0 .48-.232.904-.232.422-.798.908-.786.714-1.099 1.351t-.312 1.598"/></svg>