<svg xmlns="http://www.w3.org/2000/svg" width="24" height="24" viewBox="0 0 24 24" fill='currentColor'><path d="M19.144 15.144 16 12l3.144-3.144L20.198 9.9l-1.335 1.35h3.531v1.5h-3.53l1.334 1.35zM2.616 21.5v-19h12v19zm1.5-10.34q.42-.333.925-.496a3.5 3.5 0 0 1 1.075-.164h5q.569 0 1.074.164.504.163.926.496V4h-9zM8.616 9q-.73 0-1.24-.51-.51-.511-.51-1.24t.51-1.24q.51-.51 1.24-.51.727 0 1.239.51.51.511.51 1.24t-.51 1.24q-.51.51-1.24.51m-4.5 11h9v-6q0-.825-.588-1.412A1.93 1.93 0 0 0 11.116 12h-5q-.825 0-1.413.588A1.93 1.93 0 0 0 4.116 14zm3.75-1.25h1.5v-2h2v-1.5h-2v-2h-1.5v2h-2v1.5h2z"/></svg>