<svg xmlns="http://www.w3.org/2000/svg" width="24" height="24" viewBox="0 0 24 24" fill='currentColor'><path d="m7 8.49 1.817-1.807L7 4.875 5.192 6.683zm-4.5 5.394v-12h19v12h-4.956a4.5 4.5 0 0 0 .133-1.5H20v-9H4v9h3.323a4.4 4.4 0 0 0 .133 1.5zm13.999-6.75q.52 0 .886-.363.365-.365.365-.885T17.386 5a1.2 1.2 0 0 0-.885-.365q-.52 0-.886.364a1.2 1.2 0 0 0-.365.885q0 .52.364.885.364.366.885.366M5.5 22.116v-1.753q0-.732.406-1.361.405-.63 1.08-.937A11.9 11.9 0 0 1 12 16.962a11.9 11.9 0 0 1 5.014 1.102q.675.307 1.08.935.406.627.406 1.36v1.756zm1.5-1.5h10v-.253q0-.3-.175-.55a1.1 1.1 0 0 0-.45-.376q-1.05-.475-2.15-.724a10 10 0 0 0-4.45 0q-1.1.25-2.15.724a1.1 1.1 0 0 0-.45.375.94.94 0 0 0-.175.55zm5-4.846q-1.248 0-2.124-.876A2.9 2.9 0 0 1 9 12.77q0-1.248.876-2.124A2.9 2.9 0 0 1 12 9.77q1.248 0 2.124.876T15 12.77t-.876 2.124A2.9 2.9 0 0 1 12 15.77m0-1.5q.624 0 1.063-.437.437-.438.437-1.063 0-.624-.437-1.062A1.45 1.45 0 0 0 12 11.269q-.625 0-1.062.438a1.45 1.45 0 0 0-.438 1.062q0 .625.438 1.063.437.437 1.062.437"/></svg>