<svg xmlns="http://www.w3.org/2000/svg" width="24" height="24" viewBox="0 0 24 24" fill='currentColor'><path d="M16 17q2.075 0 3.538-1.463T21 12t-1.462-3.537Q18.074 7 16 7a4.7 4.7 0 0 0-2.894.973 6.3 6.3 0 0 1 1.03 1.86A6.5 6.5 0 0 1 14.5 12a6.5 6.5 0 0 1-.364 2.166 6.3 6.3 0 0 1-1.03 1.861A4.72 4.72 0 0 0 16 17m-4-2a4.93 4.93 0 0 0 1-3 4.92 4.92 0 0 0-1-3 4.93 4.93 0 0 0-1 3 4.92 4.92 0 0 0 1 3m-4 2a4.7 4.7 0 0 0 2.894-.973 6.3 6.3 0 0 1-1.03-1.86A6.5 6.5 0 0 1 9.5 12q0-1.139.364-2.166a6.3 6.3 0 0 1 1.03-1.861A4.72 4.72 0 0 0 8 7Q5.925 7 4.463 8.463 3 9.926 3 12q0 2.075 1.463 3.537Q5.925 17 8 17m0 1.5q-2.714 0-4.607-1.893T1.5 12t1.893-4.607T8 5.5a6.3 6.3 0 0 1 4 1.404A6.28 6.28 0 0 1 16 5.5q2.714 0 4.607 1.893T22.5 12t-1.893 4.607T16 18.5a6.28 6.28 0 0 1-4-1.404A6.28 6.28 0 0 1 8 18.5"/></svg>