<svg xmlns="http://www.w3.org/2000/svg" width="24" height="24" viewBox="0 0 24 24" fill='currentColor'><path d="M16 18.5a6 6 0 0 1-2.906-.744 7.7 7.7 0 0 0 1.918-2.598q.68-1.5.68-3.158a7.7 7.7 0 0 0-2.598-5.756A5.95 5.95 0 0 1 16 5.5q2.714 0 4.607 1.893T22.5 12t-1.893 4.607T16 18.5m-8 0q-2.714 0-4.607-1.893T1.5 12t1.893-4.607T8 5.5a6 6 0 0 1 2.906.744q-.31.264-.584.57-.273.308-.522.632a3.7 3.7 0 0 0-.849-.33A3.8 3.8 0 0 0 8 7Q5.925 7 4.463 8.463 3 9.926 3 12q0 2.075 1.463 3.537Q5.925 17 8 17q.496 0 .951-.116.455-.117.849-.33.248.324.522.632.274.306.584.57A5.94 5.94 0 0 1 8 18.5m4-1.404a6.3 6.3 0 0 1-1.842-2.25A6.4 6.4 0 0 1 9.5 12q0-1.503.658-2.846A6.3 6.3 0 0 1 12 6.904a6.3 6.3 0 0 1 1.842 2.25Q14.5 10.497 14.5 12t-.658 2.846A6.3 6.3 0 0 1 12 17.096"/></svg>