<svg xmlns="http://www.w3.org/2000/svg" width="24" height="24" viewBox="0 0 24 24" fill='currentColor'><path d="M9 21.75 8.25 21v-5.5H3.711V14L5.5 12.211V5h-1V3.5h6.586a6 6 0 0 0-.59.699A5.3 5.3 0 0 0 10.02 5H7v7.85L5.85 14h6.854q.37.215.761.361.393.147.824.208v.931H9.75V21zM16 8q.625 0 1.063-.437.437-.438.437-1.063t-.437-1.062A1.45 1.45 0 0 0 16 5q-.625 0-1.062.438A1.45 1.45 0 0 0 14.5 6.5q0 .624.438 1.063Q15.375 8 16 8m0 3q.75 0 1.4-.35a3 3 0 0 0 1.075-.975 4.5 4.5 0 0 0-1.2-.513 5.05 5.05 0 0 0-2.55 0q-.626.164-1.2.513.425.626 1.075.975.65.35 1.4.35m0 1.5q-1.873 0-3.187-1.313Q11.5 9.873 11.5 8t1.313-3.186T16 3.5t3.186 1.314Q20.5 6.126 20.5 8t-1.314 3.187Q17.874 12.5 16 12.5"/></svg>