<svg xmlns="http://www.w3.org/2000/svg" width="24" height="24" viewBox="0 0 24 24" fill='currentColor'><path d="m19.789 21.912-7.397-7.397h-.5A5.4 5.4 0 0 1 9.9 16.683 5.36 5.36 0 0 1 7 17.5q-2.289 0-3.894-1.606Q1.5 14.29 1.5 12q0-1.698.942-3.054a5.2 5.2 0 0 1 2.446-1.935l-2.8-2.8 1.07-1.053 17.684 17.7zM20.894 9.5l2.5 2.5-3.892 3.873-2.579-2.41-.365.27-.192-.193 1.336-.973 1.713 1.283L21.282 12l-1-1h-6.456l-1.5-1.5zM7 16a3.9 3.9 0 0 0 2.306-.726 3.86 3.86 0 0 0 1.452-1.951h.442l-1.371-1.371-1.198-1.198-1.198-1.198L6.06 8.184q-1.378.278-2.22 1.37A3.9 3.9 0 0 0 3 12q0 1.65 1.175 2.825T7 16m0-2.385q-.671 0-1.143-.472A1.56 1.56 0 0 1 5.385 12q0-.671.472-1.143A1.56 1.56 0 0 1 7 10.385q.671 0 1.143.472T8.615 12t-.472 1.143A1.56 1.56 0 0 1 7 13.615"/></svg>