<svg xmlns="http://www.w3.org/2000/svg" width="24" height="24" viewBox="0 0 24 24" fill='currentColor'><path d="M5.116 12.885h1.769v-1.77h-1.77zm3 0h1.768v-1.77H8.116zm3 0h1.768v-1.77h-1.768zm3 0h1.768v-1.77h-1.768zm-9-3h1.769v-1.77h-1.77zm3 0h1.768v-1.77H8.116zm3 0h1.768v-1.77h-1.768zm3 0h1.768v-1.77h-1.768zm3 0h1.768v-1.77h-1.768zm0 2.329q.411-.143.861-.217t.907-.055v-.826h-1.768zm-9 3.67h5.619q.115-.498.302-.94.186-.442.463-.828H8.116zM2.5 18.5v-13h19v7.336a3.7 3.7 0 0 0-.699-.415 4.6 4.6 0 0 0-.801-.273V7H4v10h9.625v1.5zm13.24 3v-4.77h1v-1q0-.786.55-1.335a1.82 1.82 0 0 1 1.335-.549q.787 0 1.335.55.55.548.55 1.335v1h.99V21.5zm1.885-4.77h2v-1a.97.97 0 0 0-.288-.712.97.97 0 0 0-.712-.287.97.97 0 0 0-.712.287.97.97 0 0 0-.288.713z"/></svg>