<svg xmlns="http://www.w3.org/2000/svg" width="24" height="24" viewBox="0 0 24 24" fill='currentColor'><path d="M2.5 18.5v-13h19v7.708a4 4 0 0 0-.699-.505A5.6 5.6 0 0 0 20 12.33V7H4v10h8.071q-.03.188-.038.366a9 9 0 0 0 0 .768q.008.18.038.366zm5.616-4.384v1.768h4.205q.172-.498.418-.94.248-.442.57-.828zm-3-3v1.768h1.769v-1.768zm3 0v1.768h1.768v-1.768zm3 0v1.768h1.768v-1.768zm3 0v1.768h.507a5 5 0 0 1 .606-.352q.315-.153.656-.278v-1.138zm3 0v.859q.182-.035.356-.053.173-.018.374-.018.276 0 .527.03.252.03.511.08v-.898zm-12-3v1.768h1.769V8.116zm3 0v1.768h1.768V8.116zm3 0v1.768h1.768V8.116zm3 0v1.768h1.768V8.116zm3 0v1.768h1.768V8.116zm.73 13.278-1.044-1.044 1.815-1.85h-4.52V17h4.52l-1.815-1.85 1.044-1.044 3.644 3.644z"/></svg>