<svg xmlns="http://www.w3.org/2000/svg" width="24" height="24" viewBox="0 0 24 24" fill='currentColor'><path d="M2.25 22.75v-1.5H3q.78 0 1.543-.246A5.5 5.5 0 0 0 6 20.278q.679.441 1.438.69.758.252 1.514.266a4.9 4.9 0 0 0 1.543-.225A5.7 5.7 0 0 0 12 20.28a5.5 5.5 0 0 0 1.449.71q.77.246 1.551.245.771 0 1.521-.232.75-.234 1.479-.724.729.49 1.486.731.759.24 1.514.24h.75v1.5H21a6 6 0 0 1-1.51-.192q-.756-.192-1.49-.586a6.6 6.6 0 0 1-1.482.586 6.1 6.1 0 0 1-3.029 0q-.755-.192-1.489-.586a6.3 6.3 0 0 1-1.51.597 6 6 0 0 1-1.557.182 6.4 6.4 0 0 1-1.49-.213q-.75-.197-1.443-.566a6.6 6.6 0 0 1-1.482.586A6 6 0 0 1 3 22.75zm6.76-3.693q-.65 0-1.273-.211a3.7 3.7 0 0 1-1.14-.625l.83-.638q.51-.391.89-.656L6.25 12.942V8q0-.73.51-1.24.511-.51 1.24-.51h3a5.23 5.23 0 0 0 3.54-1.354l1.054 1.063a6.8 6.8 0 0 1-2.136 1.333A6.7 6.7 0 0 1 11 7.75H9.35v4h2.935l1.748 1.923q1.672-.695 2.955-1.059 1.281-.364 2.162-.364.76 0 1.18.275.42.274.42.798 0 .945-1.436 2.467-1.437 1.521-3.845 3.108-.18.05-.41.09-.228.04-.425.04-.703 0-1.402-.349A3.8 3.8 0 0 1 12 17.682q-.591.668-1.368 1.021a3.9 3.9 0 0 1-1.623.354m.7-3.092q.495-.308 1.41-.824a26 26 0 0 1 1.484-.79l-.998-1.101-2.962.244zM8 4.845q-.758 0-1.302-.543A1.78 1.78 0 0 1 6.154 3q0-.759.544-1.302A1.78 1.78 0 0 1 8 1.153q.758 0 1.302.545.544.543.544 1.302 0 .757-.544 1.302A1.78 1.78 0 0 1 8 4.846m8.492-.355-.838-.838 2.498-2.499h1.677z"/></svg>