<svg xmlns="http://www.w3.org/2000/svg" width="24" height="24" viewBox="0 0 24 24" fill='currentColor'><path d="M17.271 16.054q.749 0 1.488-.374a4.8 4.8 0 0 0 1.366-1.05v-2.996q-.633.095-1.163.218-.531.125-1.043.278-1.21.39-1.808.976-.596.588-.596 1.355 0 .737.48 1.165.477.428 1.276.428m-.354 1.296q-1.328 0-2.115-.774-.787-.776-.787-2.078 0-1.223.816-2.039.815-.814 2.553-1.335.518-.15 1.2-.284.684-.134 1.541-.273v-.125q-.03-1.29-.535-1.915-.505-.624-1.632-.624-.669 0-1.326.238-.657.237-1.532.79l-.617-1.083a6.8 6.8 0 0 1 1.779-.917 6 6 0 0 1 1.988-.34q1.68 0 2.527 1.048.848 1.047.848 3.003v6.483h-1.262l-.13-1.212q-.729.673-1.581 1.055a4.2 4.2 0 0 1-1.735.381M6.021 16.346h4.321v-4.14H6.906q-.2 1.054-.413 2.083a49 49 0 0 1-.472 2.058m-4.107 1.008v-1.008h2.975q.259-1.047.481-2.072.222-1.024.422-2.068H3.24V11.17h2.74q.135-.698.256-1.412l.248-1.43h-3.72V7.319h9.812v1.008H7.631q-.135.707-.265 1.42-.129.714-.264 1.422h4.248v5.179h2.2v1.007z"/></svg>