<svg xmlns="http://www.w3.org/2000/svg" width="24" height="24" viewBox="0 0 24 24" fill='currentColor'><path d="M8.375 12.386h1.592v-2.175H8.375zm-5.83 4.97-.33-.962h1.043q.124 0 .228-.097a.3.3 0 0 0 .102-.223v-2.707l-1.319.454-.217-.927 1.536-.495v-2.25H2.276v-.915H3.59v-2.31h.946v2.31h1.019v.915H4.519v1.954l1.039-.354.092.897-1.13.41v3.22q0 .421-.258.75a.8.8 0 0 1-.664.33zm3.33.188-.6-.714a4.9 4.9 0 0 0 1.462-1.503 4.1 4.1 0 0 0 .62-1.995H5.62v-.961h1.81v-2.16H6.05v-.9h6.161v.946h-1.328v2.19h1.682l-.03.885h-1.652v4.039h-.946v-4.039H8.304a5.25 5.25 0 0 1-.712 2.393 5.46 5.46 0 0 1-1.717 1.819m4.777-8.021-.842-.25.545-1.056q.27-.524.47-1.081l.923.323q-.231.537-.518 1.042-.288.504-.578 1.022M7.81 9.405a28 28 0 0 0-.496-1.014 8 8 0 0 0-.577-.959l.846-.348q.31.462.572.959.26.497.5 1.014zm9.461 6.649q.749 0 1.488-.374a4.8 4.8 0 0 0 1.366-1.05v-2.996q-.633.095-1.163.218-.531.125-1.043.278-1.21.39-1.808.976-.596.588-.596 1.355 0 .737.48 1.165.478.428 1.276.428m-.354 1.296q-1.328 0-2.115-.774-.787-.776-.787-2.078 0-1.223.816-2.039.815-.814 2.553-1.335.518-.15 1.2-.284.684-.134 1.541-.273v-.125q-.03-1.29-.535-1.915-.505-.624-1.632-.624-.669 0-1.326.238-.657.237-1.532.79l-.617-1.083a6.8 6.8 0 0 1 1.779-.917 6 6 0 0 1 1.988-.34q1.68 0 2.527 1.048.848 1.047.848 3.003v6.483h-1.262l-.13-1.212q-.729.673-1.581 1.055a4.2 4.2 0 0 1-1.735.381"/></svg>