<svg xmlns="http://www.w3.org/2000/svg" width="24" height="24" viewBox="0 0 24 24" fill='currentColor'><path d="M5.4 12.681q.688 0 1.19-.307.5-.306.5-.92t-.5-.932q-.502-.32-1.19-.32t-1.185.32q-.496.319-.496.932 0 .614.496.92.497.307 1.185.307m-3.275-3.92v-.945H4.84V6.339h1.07v1.477h2.74v.946zM5.4 13.628q-1.127 0-1.93-.568-.805-.569-.804-1.605 0-1.052.803-1.617.804-.565 1.931-.565 1.142 0 1.951.565.808.566.808 1.617t-.808 1.613q-.81.56-1.951.56M3.883 17.48v-3.24h1.084v2.294h6.216v.946zm5.933-2.615V6.589h1.043v3.577H12.7v.946h-1.815v3.752zm7.455 1.19q.749 0 1.488-.373a4.8 4.8 0 0 0 1.366-1.05v-2.996q-.633.095-1.163.218-.531.125-1.043.278-1.21.39-1.808.976-.596.588-.596 1.355 0 .736.48 1.164.478.428 1.276.428m-.354 1.296q-1.328 0-2.115-.774-.787-.773-.787-2.078 0-1.222.816-2.038.815-.816 2.553-1.335.518-.15 1.2-.284.684-.135 1.541-.273v-.125q-.03-1.29-.535-1.915-.505-.624-1.632-.624-.669 0-1.326.238-.657.237-1.532.79l-.617-1.084a6.8 6.8 0 0 1 1.779-.916 6 6 0 0 1 1.988-.34q1.68 0 2.527 1.048.848 1.047.848 3.003v6.482h-1.262l-.13-1.211q-.729.673-1.581 1.055a4.2 4.2 0 0 1-1.735.381"/></svg>