<svg xmlns="http://www.w3.org/2000/svg" width="24" height="24" viewBox="0 0 24 24" fill='currentColor'><path d="M17.271 16.054q.749 0 1.488-.374a4.8 4.8 0 0 0 1.366-1.05v-2.996q-.633.095-1.163.218-.531.125-1.043.278-1.21.39-1.808.976-.596.588-.596 1.355 0 .737.48 1.165.477.428 1.276.428m-.354 1.296q-1.328 0-2.115-.774-.787-.776-.787-2.078 0-1.223.816-2.039.815-.814 2.553-1.335.518-.15 1.2-.284.684-.134 1.541-.273v-.125q-.03-1.29-.535-1.915-.505-.624-1.632-.624-.669 0-1.326.238-.657.237-1.532.79l-.617-1.083a6.8 6.8 0 0 1 1.779-.917 6 6 0 0 1 1.988-.34q1.68 0 2.527 1.048.848 1.047.848 3.003v6.483h-1.262l-.13-1.212q-.729.673-1.581 1.055a4.2 4.2 0 0 1-1.735.381m-14.263.15a10 10 0 0 0-.389-.474 1.8 1.8 0 0 0-.332-.298q1.794-.796 2.92-2.149t1.635-3.526H2.196v-.982H6.68q.12-.76.179-1.6.06-.84.06-1.771h1.038q0 .93-.052 1.763a15 15 0 0 1-.187 1.608h5.012v.982H8.148q.669 2.054 1.904 3.492 1.234 1.437 2.86 2.106-.2.19-.36.368a4 4 0 0 0-.356.48q-1.623-.738-2.862-2.2-1.24-1.461-1.98-3.54-.59 2.094-1.759 3.507-1.169 1.412-2.941 2.234"/></svg>