<svg xmlns="http://www.w3.org/2000/svg" width="24" height="24" viewBox="0 0 24 24" fill='currentColor'><path d="m2.412 17.453-.539-.93q.516-.276.965-.633.45-.358.89-.733v-2.99H2.045v-.946h2.662v3.851q.519.645 1.288.975.77.33 1.598.33 1.371 0 2.725-.016t2.725-.1q-.105.247-.186.508a10 10 0 0 0-.146.523 44 44 0 0 1-2.559.025q-1.267-.025-2.559-.025-.95 0-1.85-.34a4 4 0 0 1-1.55-1.039q-.425.425-.865.808-.441.382-.915.732m6.007-1.411-.077-2.631q-.57.735-1.24 1.27a15 15 0 0 1-1.44 1.017l-.315-.376a4 4 0 0 0-.345-.359 6.6 6.6 0 0 0 1.579-.926q.703-.561 1.288-1.305H5.692V9.661h2.675v-.856H5.192v-.9h3.175v-1.18h.946v1.18h3.4v.9h-3.4v.856h2.826v3.046H9.777q.634.735 1.428 1.275t1.668.906a4 4 0 0 0-.39.355q-.18.183-.295.42a9.7 9.7 0 0 1-1.54-.965 9.3 9.3 0 0 1-1.335-1.243l.077 2.587zm-.077-5.512H6.654v1.323h1.688zm2.85 0H9.29v1.323h1.903zm-6.93-1.127a6.4 6.4 0 0 0-2.11-1.944l.725-.619q.612.405 1.12.902.51.496 1.03 1.017zm15.863 5.227v-2.996q-.633.095-1.163.218-.531.125-1.043.278-1.21.39-1.808.976-.596.588-.596 1.355 0 .737.48 1.165.478.428 1.276.428.749 0 1.488-.374a4.8 4.8 0 0 0 1.366-1.05m.238 2.495-.13-1.212q-.729.673-1.581 1.055a4.2 4.2 0 0 1-1.735.381q-1.328 0-2.115-.773-.787-.776-.787-2.078 0-1.223.816-2.039.815-.814 2.553-1.335.518-.15 1.2-.284.684-.134 1.541-.273v-.125q-.03-1.29-.535-1.915-.505-.624-1.632-.624-.669 0-1.326.238-.657.237-1.532.79l-.617-1.083a6.8 6.8 0 0 1 1.779-.917 6 6 0 0 1 1.988-.34q1.68 0 2.527 1.048.848 1.047.848 3.003v6.483z"/></svg>