<svg xmlns="http://www.w3.org/2000/svg" width="24" height="24" viewBox="0 0 24 24" fill='currentColor'><path d="M5.4 12.68q.688 0 1.19-.306.5-.307.5-.92 0-.614-.5-.933-.502-.32-1.19-.32t-1.185.32q-.496.32-.496.933t.496.92 1.185.307M2.125 8.762v-.946H4.84V6.338h1.07v1.477h2.74v.946zM5.4 13.627q-1.127 0-1.93-.568-.805-.57-.804-1.605 0-1.052.803-1.618.804-.564 1.931-.565 1.142 0 1.951.565.808.565.808 1.618 0 1.052-.808 1.612-.81.56-1.951.56m-1.517 3.852v-3.24h1.084v2.294h6.216v.946zm5.933-2.616V6.588h1.043v3.577H12.7v.946h-1.815v3.752zm7.455 1.19q.749 0 1.488-.372a4.8 4.8 0 0 0 1.366-1.05v-2.997q-.633.095-1.163.219-.531.123-1.043.278-1.21.388-1.808.976-.596.587-.596 1.354 0 .737.48 1.165.478.428 1.276.428m-.354 1.297q-1.328 0-2.115-.774t-.787-2.078q0-1.224.816-2.038.815-.816 2.553-1.335.518-.15 1.2-.285.684-.134 1.541-.273v-.125q-.03-1.29-.535-1.914t-1.632-.624q-.669 0-1.326.237-.657.238-1.532.79l-.617-1.083a6.8 6.8 0 0 1 1.779-.916 6 6 0 0 1 1.988-.34q1.68 0 2.527 1.047.848 1.048.848 3.003v6.483h-1.262l-.13-1.212q-.729.673-1.581 1.055a4.2 4.2 0 0 1-1.735.382"/></svg>