<svg xmlns="http://www.w3.org/2000/svg" width="24" height="24" viewBox="0 0 24 24" fill='currentColor'><path d="M15.279 21.5v-5.212h1.5v2.862a10.7 10.7 0 0 0 1.679-3.358Q19 13.964 19 11.991t-.542-3.798a10.6 10.6 0 0 0-1.68-3.343v2.862h-1.5V2.5h5.212V4h-2.473a12 12 0 0 1 1.872 3.747q.61 2.046.611 4.253 0 2.208-.611 4.253A12 12 0 0 1 18.017 20h2.473v1.5zm-7.244-4.829h-1.76v1.22h1.76zm2.815 0H9.062v1.22h1.788zm-.14-3.927v.702h1.869v.946h-1.87v.827h-.93v-.827H7.302v.827h-.93v-.827h-1.88v-.946h1.88v-.702h.93v.702h2.477v-.702zm-5.84 8.698a3.6 3.6 0 0 0-.27-.5 2.5 2.5 0 0 0-.356-.436 9 9 0 0 0 1.99-.516 2.92 2.92 0 0 0 1.428-1.153H4.377v-.931h.952V15.74h2.68v-.927h1.027v.927h2.806v2.166h.837v.93H9.366a6 6 0 0 0 1.606 1.155q.882.43 1.864.524a3.7 3.7 0 0 0-.544.927 5.4 5.4 0 0 1-2.067-.668 5.4 5.4 0 0 1-1.656-1.465 3.6 3.6 0 0 1-1.506 1.333 12.3 12.3 0 0 1-2.194.8M5.62 10.4l-.999-.473q.667-1.005 1.126-2.059.459-1.052.734-2.282H4.592V4.518h2.131q.11-.471.165-.962.054-.492.08-.988l1.123.393a6 6 0 0 1-.13.87q-.09.401-.195.787h.832q.667 0 1.129.495t.477 1.323q.015.717-.103 1.5a8 8 0 0 1-.38 1.51q-.104.291-.252.477a1.5 1.5 0 0 1-.338.31q-.18.117-.402.182a1 1 0 0 1-.452.024l-1.094-.157-.181-.979h1.075q.254 0 .483-.091a.56.56 0 0 0 .325-.35 4.8 4.8 0 0 0 .249-1.164q.062-.649.047-1.214 0-.495-.272-.738a.93.93 0 0 0-.642-.243H7.58a18.2 18.2 0 0 1-1.96 4.898m5.765-6.6q.477.783.88 1.61.404.83.726 1.711l-1.118.473a8.7 8.7 0 0 0-.586-1.729 9 9 0 0 0-.939-1.592z"/></svg>