<svg xmlns="http://www.w3.org/2000/svg" width="24" height="24" viewBox="0 0 24 24" fill='currentColor'><path d="M17.212 19.75h-3v-1.5h3v-3h1.5v3h3v1.5h-3v3h-1.5zM3.5 20.5v-17h17v10.383a4.6 4.6 0 0 0-.715-.316A6 6 0 0 0 19 13.36V5H5v14h7.211q0 .393.051.769.05.375.169.731zm4.558-3.73q.376 0 .63-.255.255-.255.254-.631 0-.375-.254-.63A.86.86 0 0 0 8.057 15q-.375 0-.63.255a.86.86 0 0 0-.254.63q0 .377.255.63.255.255.63.254m0-3.886q.376 0 .63-.254.255-.255.254-.63 0-.378-.254-.63a.86.86 0 0 0-.631-.254q-.375 0-.63.254a.86.86 0 0 0-.254.63q0 .378.255.63.255.255.63.254m0-3.884q.376 0 .63-.255.255-.255.254-.63 0-.377-.254-.63a.86.86 0 0 0-.631-.254q-.375 0-.63.254a.86.86 0 0 0-.254.631q0 .375.255.63t.63.254m3.038 3.75h5.692v-1.5h-5.692zm0-3.885h5.692v-1.5h-5.692zm0 7.77h1.677q.17-.432.409-.801.237-.37.541-.7h-2.627z"/></svg>