<svg xmlns="http://www.w3.org/2000/svg" width="24" height="24" viewBox="0 0 24 24" fill='currentColor'><path d="M5.614 21.5 3.5 2.5h17l-2.104 19zm.2-11.808L6.962 20h10.086l1.148-10.308zm-.193-1.5H18.39L18.808 4H5.183zM12 17.058a1.06 1.06 0 0 1-.778-.323 1.06 1.06 0 0 1-.322-.777q0-.443.246-.973T12 13.598q.608.856.854 1.386.246.531.246.974 0 .456-.322.777a1.06 1.06 0 0 1-.778.323m0 1.5q1.095 0 1.847-.753.753-.753.753-1.847 0-.91-.571-1.961-.57-1.05-2.029-2.805-1.458 1.755-2.029 2.805-.57 1.05-.571 1.96 0 1.095.753 1.848t1.847.753"/></svg>