<svg xmlns="http://www.w3.org/2000/svg" width="24" height="24" viewBox="0 0 24 24" fill='currentColor'><path d="M12 18.116q1.291 0 2.308-.703a4.14 4.14 0 0 0 1.488-1.824 16 16 0 0 1-.607-.561 34 34 0 0 1-.608-.605 2.56 2.56 0 0 1-.876 1.581q-.716.612-1.705.612-1.108 0-1.861-.754-.755-.755-.755-1.857 0-1.103.752-1.844.753-.741 1.841-.776a15 15 0 0 1-.84-1.398 4.1 4.1 0 0 0-2.325 1.416q-.927 1.11-.927 2.597 0 1.721 1.197 2.919 1.197 1.196 2.918 1.197M9.211 4.5h1.039a6.2 6.2 0 0 0-.173 1.5h-.211L8.03 8H4v12h16v-4.202q.375-.335.75-.698.375-.364.75-.736V21.5h-19v-15h4.862zM18 14.645q3.092-2.72 4.412-4.698 1.319-1.98 1.319-3.797 0-2.7-1.732-4.29Q20.27.27 18 .27q-2.268 0-4 1.59-1.73 1.59-1.73 4.29 0 1.818 1.319 3.797 1.319 1.978 4.411 4.698m0-2.002q-2.754-2.585-3.492-4.061-.74-1.476-.739-2.422 0-2.15 1.336-3.265 1.335-1.116 2.896-1.116t2.895 1.116 1.335 3.265q0 .945-.739 2.422-.738 1.476-3.492 4.06m-1.667-3.931.633-2.054-1.678-1.34h2.057L18 3.288l.655 2.03h2.057l-1.668 1.34.633 2.054L18 7.447z"/></svg>