<svg xmlns="http://www.w3.org/2000/svg" width="24" height="24" viewBox="0 0 24 24" fill='currentColor'><path d="m19.292 16.837-2.706-2.706a8.2 8.2 0 0 1 1.749-.691 7.3 7.3 0 0 1 1.896-.248q0 .98-.248 1.897a8.2 8.2 0 0 1-.69 1.748m-3.342 1.627-.99-.99q-.402.463-.692.993a5.8 5.8 0 0 0-.472 1.16 5.8 5.8 0 0 0 1.16-.472q.53-.29.994-.691m4.923 2.784-1.07 1.07-2.778-2.78a8.7 8.7 0 0 1-2.355 1.378 7.3 7.3 0 0 1-2.67.507q0-1.377.507-2.67a8.7 8.7 0 0 1 1.378-2.355l-2.1-2.1a2.7 2.7 0 0 1-1.452-.576 2.8 2.8 0 0 1-.916-1.258q-.125.029-.249.04a3 3 0 0 1-.258.013q-1.155 0-1.951-.792-.795-.793-.795-1.944 0-.248.042-.473a2.6 2.6 0 0 1 .132-.456l-4.28-4.28 1.069-1.07zM12 1.702q.864 0 1.572.504t1.001 1.321q.135-.019.259-.032.124-.012.258-.012 1.132 0 1.927.8t.794 1.936q0 .49-.167.941a2.9 2.9 0 0 1-.488.84q.306.396.48.846.175.45.175.935 0 1.106-.746 1.898a2.6 2.6 0 0 1-1.852.838 2 2 0 0 1-.26-.019l-3.712-3.704-1.668-1.667q.121-.345.326-.643.205-.3.499-.524l-.752-.681a1.02 1.02 0 0 0-.736-.296q-.3 0-.552.129-.254.129-.423.367l-1.07-1.07a2.6 2.6 0 0 1 1.053-.717q.615-.224 1.269-.194.057 0 .12.005a.5.5 0 0 1 .12.024 2.7 2.7 0 0 1 1.001-1.321A2.65 2.65 0 0 1 12 1.702m3.09 9.315q.51 0 .874-.363.363-.363.363-.875 0-.377-.212-.678a1.06 1.06 0 0 0-.56-.412l-.98-.33q-.042.253-.127.493a2.7 2.7 0 0 1-.49.852q-.156.18-.356.336l.752.681q.144.139.328.218.183.078.408.078m-.515-3.376.98-.33q.35-.111.553-.42.203-.308.203-.672 0-.51-.352-.873a1.16 1.16 0 0 0-.869-.363 1 1 0 0 0-.403.079 1.4 1.4 0 0 0-.333.217l-.768.68q.2.157.364.337t.289.396.209.456.127.493m-3.533-2.056q.234-.09.468-.14t.492-.05.491.05.465.14l.269-1.175q.108-.48-.284-.844A1.34 1.34 0 0 0 12 3.202q-.552 0-.943.364-.392.363-.284.844zM12 9.048q.445 0 .747-.3.302-.302.302-.747t-.301-.747-.746-.302-.747.301-.302.746.301.747.746.302m0 12.375a7.5 7.5 0 0 0-.674-3.117 8.84 8.84 0 0 0-4.44-4.44 7.5 7.5 0 0 0-3.117-.674q0 1.63.674 3.118a8.84 8.84 0 0 0 4.44 4.44q1.488.672 3.117.673m-1.796-1.796A6.95 6.95 0 0 1 7.3 17.892a6.94 6.94 0 0 1-1.734-2.903q1.694.525 2.903 1.734a6.95 6.95 0 0 1 1.735 2.904"/></svg>