<svg xmlns="http://www.w3.org/2000/svg" width="24" height="24" viewBox="0 0 24 24" fill='currentColor'><path d="M12.423 20.5v-8.25H21.5v8.25H20v-6.75h-2.288v4.75h-1.5v-4.75h-2.289v6.75zm-8.923 0v-17h6.214q.207-.73.848-1.212.642-.48 1.438-.48.827 0 1.46.48.635.48.842 1.212H20.5v6.558H19V5h-2.5v2.615h-9V5H5v14h5.23v1.5zm8.502-15.385a.87.87 0 0 0 .643-.26.88.88 0 0 0 .259-.645.87.87 0 0 0-.26-.644.88.88 0 0 0-.646-.258.87.87 0 0 0-.643.26.88.88 0 0 0-.259.645.87.87 0 0 0 .26.644.88.88 0 0 0 .646.258"/></svg>