<svg xmlns="http://www.w3.org/2000/svg" width="24" height="24" viewBox="0 0 24 24" fill='currentColor'><path d="M2.5 19.5v-15h11.83a4.3 4.3 0 0 0-.018 1.5H4.154L12 11l3.611-2.304q.264.249.561.447.297.2.622.355L12 12.558 4 7.442v10.25a.3.3 0 0 0 .087.221.3.3 0 0 0 .22.087h15.385a.3.3 0 0 0 .221-.087.3.3 0 0 0 .087-.22v-7.668q.43-.096.801-.254.37-.158.699-.386V19.5zM19 8.135a2.65 2.65 0 0 1-1.947-.803 2.65 2.65 0 0 1-.803-1.947q0-1.145.803-1.947A2.65 2.65 0 0 1 19 2.635q1.145 0 1.947.803.803.803.803 1.947 0 1.143-.803 1.947A2.65 2.65 0 0 1 19 8.135"/></svg>