<svg xmlns="http://www.w3.org/2000/svg" width="24" height="24" viewBox="0 0 24 24" fill='currentColor'><path d="M11.999 18.511a44 44 0 0 1-3.762-.16 62 62 0 0 1-3.737-.438v-2.29a3.66 3.66 0 0 1-2.033-1.327A3.64 3.64 0 0 1 1.683 12q0-1.27.784-2.279A3.66 3.66 0 0 1 4.5 8.391V5.35q1.875.277 3.739.438a44 44 0 0 0 7.523-.005 71 71 0 0 0 3.738-.432V8.39q1.248.321 2.033 1.32.784.997.784 2.29 0 1.29-.784 2.29a3.67 3.67 0 0 1-2.033 1.318v2.305q-1.875.267-3.739.433T12 18.51M12 17q1.5 0 3-.125 1.5-.126 3-.31v-9.55q-1.5.184-3 .31a36 36 0 0 1-6 0q-1.5-.126-3-.31v9.55q1.5.184 3 .31Q10.5 17 12 17m-.002-1.76q1.155 0 2.28-.165 1.128-.166 2.27-.456v-1.546q-1.142.305-2.27.486a14.4 14.4 0 0 1-4.55 0q-1.119-.18-2.26-.486v1.555q1.14.29 2.26.451 1.116.16 2.27.16M4.5 14.023V9.992q-.6.274-.959.816-.358.541-.358 1.192 0 .662.358 1.205.36.543.959.818m15 0q.6-.275.959-.818A2.14 2.14 0 0 0 20.817 12q0-.66-.366-1.197a2.34 2.34 0 0 0-.951-.811zm-7.502-2.773q1.155 0 2.28-.166a22 22 0 0 0 2.27-.456V9.082q-1.142.306-2.27.487a14.4 14.4 0 0 1-4.55 0q-1.119-.18-2.26-.487v1.556a22 22 0 0 0 2.26.451q1.116.16 2.27.16"/></svg>