<svg xmlns="http://www.w3.org/2000/svg" width="24" height="24" viewBox="0 0 24 24" fill='currentColor'><path d="M12 12a.73.73 0 0 1-.534-.216.73.73 0 0 1-.216-.534V3.173q0-.319.216-.534A.73.73 0 0 1 12 2.423q.32 0 .534.216a.73.73 0 0 1 .216.534v8.077q0 .318-.216.534A.73.73 0 0 1 12 12m0 8.5a8.3 8.3 0 0 1-3.315-.67 8.6 8.6 0 0 1-2.697-1.819 8.6 8.6 0 0 1-1.819-2.695A8.3 8.3 0 0 1 3.5 12q0-1.497.515-2.895a8.5 8.5 0 0 1 1.474-2.542.6.6 0 0 1 .52-.25q.315.012.563.259.209.209.184.503-.026.294-.218.558A6.7 6.7 0 0 0 5.393 9.68 7 7 0 0 0 5 12q0 2.925 2.037 4.962T12 19t4.962-2.038T19 12q0-1.203-.386-2.341a6.2 6.2 0 0 0-1.168-2.057 1 1 0 0 1-.217-.54.6.6 0 0 1 .183-.499.78.78 0 0 1 .547-.24.63.63 0 0 1 .522.24 8.5 8.5 0 0 1 1.497 2.533Q20.5 10.487 20.5 12q0 1.77-.67 3.316a8.6 8.6 0 0 1-1.818 2.695 8.6 8.6 0 0 1-2.696 1.82 8.3 8.3 0 0 1-3.315.669"/></svg>