<svg xmlns="http://www.w3.org/2000/svg" width="24" height="24" viewBox="0 0 24 24" fill='currentColor'><path d="M10.658 21.404q-1.126 0-1.708-.67a2.26 2.26 0 0 1-.584-1.525q0-.57.248-1.115.25-.546.782-.897.56-.369.916-.973.358-.602.511-1.314a6 6 0 0 1-.391-.184 2 2 0 0 1-.367-.247l-2.319.835a8 8 0 0 1-.76.23q-.365.09-.751.09-1.435 0-2.537-1.266-1.102-1.268-1.102-3.71 0-1.125.668-1.708.668-.585 1.5-.584.582 0 1.135.249.553.25.905.782.369.56.972.916.603.357 1.315.51.084-.198.183-.39.099-.195.247-.367l-.835-2.32a7 7 0 0 1-.23-.757 3 3 0 0 1-.09-.733q0-1.56 1.35-2.61t3.626-1.05q1.125 0 1.708.667.584.666.584 1.496 0 .569-.248 1.126a2.1 2.1 0 0 1-.782.91 2.9 2.9 0 0 0-.916.977 4.4 4.4 0 0 0-.511 1.319q.207.095.402.195t.355.236l2.32-.86q.396-.14.749-.218t.74-.078q1.843 0 2.752 1.54t.909 3.437q0 1.125-.704 1.708-.704.585-1.562.584-.55 0-1.07-.25a2.16 2.16 0 0 1-.872-.78 2.94 2.94 0 0 0-.972-.917 4.4 4.4 0 0 0-1.315-.51q-.084.197-.183.386-.099.19-.247.37l.835 2.32q.137.373.229.71.09.339.091.69.006 1.461-1.257 2.606-1.261 1.144-3.72 1.144m1.344-7.75q.69 0 1.171-.483a1.6 1.6 0 0 0 .48-1.173q0-.69-.482-1.17a1.6 1.6 0 0 0-1.173-.481q-.69 0-1.171.483a1.6 1.6 0 0 0-.48 1.173q0 .69.482 1.17a1.6 1.6 0 0 0 1.173.481m-1.229-4.54q.218-.108.447-.165a2.6 2.6 0 0 1 .457-.072 5.8 5.8 0 0 1 .724-1.911q.525-.87 1.372-1.423a.9.9 0 0 0 .268-.318q.093-.188.094-.461a.64.64 0 0 0-.194-.474q-.193-.193-.599-.193-.97 0-2.198.44T9.865 6.26q0 .24.068.45.067.21.117.385zM6.23 14.135q.34 0 .863-.185l2.029-.723a2 2 0 0 1-.17-.428 2.4 2.4 0 0 1-.076-.476 5.8 5.8 0 0 1-1.912-.724 4.35 4.35 0 0 1-1.423-1.372.84.84 0 0 0-.339-.267 1.1 1.1 0 0 0-.44-.094q-.32 0-.494.193-.173.194-.173.6 0 1.38.547 2.428t1.588 1.048m4.427 5.77q1.194 0 2.35-.51 1.158-.508 1.127-1.74 0-.219-.068-.409l-.117-.34-.723-2.029a2 2 0 0 1-.462.174q-.244.057-.442.072a5.8 5.8 0 0 1-.724 1.912 4.35 4.35 0 0 1-1.372 1.423q-.164.12-.27.33a.8.8 0 0 0-.092.424q.015.277.194.485.177.207.599.207m8.491-5.77q.3 0 .527-.168.228-.169.228-.624 0-.972-.427-2.212-.428-1.24-1.737-1.265-.24 0-.445.05a6 6 0 0 0-.39.11l-2.019.747a2.6 2.6 0 0 1 .237.904q1.04.2 1.912.724.87.525 1.423 1.372.094.154.293.258.2.105.398.104"/></svg>