<svg xmlns="http://www.w3.org/2000/svg" width="24" height="24" viewBox="0 0 24 24" fill='currentColor'><path d="M8.516 20.5q-2.102 0-3.56-1.457-1.455-1.456-1.456-3.558 0-.883.301-1.716.3-.832.862-1.51l3.531-4.245L5.942 3.5h12.116l-2.252 4.514 3.53 4.246q.562.676.863 1.51.3.831.301 1.715 0 2.1-1.465 3.558t-3.55 1.457zM12 15.74a1.74 1.74 0 0 1-1.278-.53 1.74 1.74 0 0 1-.53-1.277q0-.75.53-1.278.53-.53 1.278-.53.749 0 1.278.53.53.53.53 1.278 0 .747-.53 1.277T12 15.74M9.567 7.375h4.875L15.625 5h-7.25zM8.515 19h6.97q1.473 0 2.494-1.026 1.02-1.026 1.021-2.49 0-.619-.212-1.2a3.5 3.5 0 0 0-.607-1.051l-3.627-4.358H9.47l-3.64 4.342a3.5 3.5 0 0 0-.612 1.059A3.5 3.5 0 0 0 5 15.485q0 1.463 1.026 2.489T8.516 19"/></svg>