<svg xmlns="http://www.w3.org/2000/svg" width="24" height="24" viewBox="0 0 24 24" fill='currentColor'><path d="M1.25 20.75V8.58Q.8 8.335.525 7.933A1.6 1.6 0 0 1 .25 7q0-.508.494-1.213T2 4.356q.761.727 1.256 1.431.494.705.494 1.213 0 .529-.275.932a2.06 2.06 0 0 1-.725.649v4.669h2.5V9.28h1.82a3.3 3.3 0 0 1-.61-1.006Q6.25 7.72 6.25 7.1q0-.935.446-1.73.447-.795 1.198-1.309L12 1.298l4.106 2.763q.75.515 1.198 1.31.446.794.446 1.729 0 .62-.21 1.174t-.61 1.007h1.82v3.969h2.5V8.58q-.45-.246-.725-.648A1.6 1.6 0 0 1 20.25 7q0-.508.494-1.213.495-.705 1.256-1.431.761.727 1.256 1.431.494.705.494 1.213 0 .529-.275.932a2.06 2.06 0 0 1-.725.649V20.75h-9.5v-5h-2.5v5zM9.9 9.25h4.2q.897 0 1.523-.627.627-.627.627-1.522a2.16 2.16 0 0 0-.254-1.034 2.1 2.1 0 0 0-.711-.779L12 3.102 8.715 5.288a2.1 2.1 0 0 0-.711.78A2.16 2.16 0 0 0 7.75 7.1q0 .895.627 1.522T9.9 9.25m-7.15 10h6.5v-5h5.5v5h6.5v-4.5h-4V11q0-.106-.072-.178A.24.24 0 0 0 17 10.75H7q-.106 0-.178.072A.24.24 0 0 0 6.75 11v3.75h-4z"/></svg>