<svg xmlns="http://www.w3.org/2000/svg" width="24" height="24" viewBox="0 0 24 24" fill='currentColor'><path d="M10.904 4.094v1.5a4 4 0 0 0-.458.127 7 7 0 0 0-.457.171L8.864 4.767q.467-.245.98-.41a9 9 0 0 1 1.06-.263m7.727 7.727a9 9 0 0 1-.264 1.06 6 6 0 0 1-.41.98l-1.124-1.125q.095-.228.17-.457a4 4 0 0 0 .128-.458zM2.5 20.2v-5.5H4v4h4v1.5zM20 6.7v-4h-4V1.2h5.5v5.5zm-13.204-4-1.5-1.5H8v1.5zM21.5 17.404l-1.5-1.5V14.7h1.5zM5.37 11.82h1.5a5.1 5.1 0 0 0 1.415 2.62 5.1 5.1 0 0 0 2.619 1.415v1.5a6.6 6.6 0 0 1-3.656-1.88 6.6 6.6 0 0 1-1.879-3.655m1.878-5.863 1.054 1.044a5.4 5.4 0 0 0-1.433 2.627h-1.5a6.8 6.8 0 0 1 .669-2.001 7 7 0 0 1 1.21-1.67m8.475 8.465 1.044 1.054a7 7 0 0 1-1.67 1.21 6.8 6.8 0 0 1-2 .669v-1.5a5.4 5.4 0 0 0 2.626-1.433M13.096 4.094a6.63 6.63 0 0 1 3.663 1.879 6.5 6.5 0 0 1 1.872 3.656h-1.5a5.1 5.1 0 0 0-1.415-2.62 5.1 5.1 0 0 0-2.62-1.415zM19.352 20.2H16v-1.5h1.852L4 4.848V6.7H2.5V3.348l-1.22-1.22L2.35 1.06l19.511 19.51-1.069 1.07z"/></svg>