<svg xmlns="http://www.w3.org/2000/svg" width="24" height="24" viewBox="0 0 24 24" fill='currentColor'><path d="m19.039 20.5-1.054-1.044 1.825-1.85h-4.521v-1.5h4.52l-1.824-1.85 1.053-1.045 3.645 3.645zm-8.991-5.75q1.266 0 2.299-.601 1.034-.6 1.665-1.591a6.2 6.2 0 0 0-1.834-.973 6.7 6.7 0 0 0-2.128-.335q-1.121 0-2.13.335a6.1 6.1 0 0 0-1.835.973q.63.99 1.664 1.591 1.034.6 2.299.601m0-5q.73 0 1.24-.51.51-.511.51-1.24t-.51-1.24-1.24-.51q-.729 0-1.24.51-.51.511-.51 1.24t.51 1.24 1.24.51m0 11.76q-3.775-3.271-5.661-6.089Q2.5 12.604 2.5 10.248q0-3.462 2.24-5.605Q6.978 2.5 10.048 2.5t5.309 2.143 2.239 5.605q0 .216-.008.444a2.6 2.6 0 0 1-.057.458h-1.525q.05-.231.07-.459t.02-.443q0-2.735-1.737-4.496t-4.311-1.761-4.31 1.761T4 10.248q0 1.814 1.557 4.226t4.491 5.04q.605-.52 1.13-1.053.525-.534 1.005-1.047l.172.162a19 19 0 0 1 .723.72l.159.168q-.683.736-1.482 1.498a49 49 0 0 1-1.707 1.547"/></svg>