<svg xmlns="http://www.w3.org/2000/svg" width="24" height="24" viewBox="0 0 24 24" fill='currentColor'><path d="M4.144 14.75a2.65 2.65 0 0 1-1.947-.803A2.65 2.65 0 0 1 1.394 12q0-1.145.803-1.947a2.65 2.65 0 0 1 1.947-.803q.937 0 1.66.563.725.562.967 1.437h4.046v1.5H6.771a2.7 2.7 0 0 1-.966 1.438 2.63 2.63 0 0 1-1.66.562m0-1.5q.522 0 .886-.364T5.394 12t-.364-.886a1.2 1.2 0 0 0-.886-.364q-.52 0-.885.364a1.2 1.2 0 0 0-.365.886q0 .522.365.886t.885.364m1.058 8.25V20q3.354 0 5.677-2.309T13.202 12t-2.323-5.691T5.202 4V2.5q3.848 0 6.529 2.547t2.94 6.203h5.046L17.898 9.4l1.054-1.054L22.606 12l-3.654 3.654-1.054-1.054 1.82-1.85H14.67q-.26 3.656-2.94 6.203T5.202 21.5"/></svg>