<svg xmlns="http://www.w3.org/2000/svg" width="24" height="24" viewBox="0 0 24 24" fill='currentColor'><path d="M18 17.5q-.729 0-1.24-.51-.51-.511-.51-1.24t.51-1.24T18 14t1.24.51.51 1.24-.51 1.24-1.24.51m-3.75 4.25v-.575q0-.975 1.037-1.575Q16.325 19 18 19t2.712.6 1.038 1.575v.575zm2.5-9.75h-1.5V7q0-1.39-.972-2.32-.973-.93-2.278-.93t-2.278.93Q8.75 5.61 8.75 7v10q0 1.306.972 2.278.973.972 2.278.972v1.5q-2.01 0-3.38-1.37T7.25 17V7q0-2.01 1.37-3.38T12 2.25t3.38 1.37T16.75 7zM12 9.942q.8 0 1.372-.57.57-.57.57-1.372 0-.8-.57-1.372A1.87 1.87 0 0 0 12 6.058q-.8 0-1.372.57-.57.57-.57 1.372 0 .8.57 1.372.57.57 1.372.57M10.058 16q0 .8.57 1.372.57.57 1.372.57.8 0 1.372-.57.57-.57.57-1.372 0-.8-.57-1.372a1.87 1.87 0 0 0-1.372-.57q-.8 0-1.372.57-.57.57-.57 1.372m1.94 1.058q-.477 0-.766-.33a1.08 1.08 0 0 1-.29-.726q0-.396.292-.728a.97.97 0 0 1 .768-.332q.477 0 .766.29.29.292.29.766 0 .396-.292.728a.97.97 0 0 1-.768.332"/></svg>