<svg xmlns="http://www.w3.org/2000/svg" width="24" height="24" viewBox="0 0 24 24" fill='currentColor'><path d="M12 20q.64 0 1.264-.109a8 8 0 0 0 1.219-.31 4.7 4.7 0 0 1-.934-1.55 5.2 5.2 0 0 1-.318-1.81q0-.398.063-.763a8 8 0 0 1 .16-.723q-.69-.312-1.068-1.034-.378-.723-.378-1.701 0-1.256.623-2.099.622-.843 1.719-.843.92 0 1.52.618.597.618.772 1.614.435-.168.9-.253.463-.085.958-.085.375 0 .742.047t.717.172a7.6 7.6 0 0 0-.837-2.832 8.2 8.2 0 0 0-1.755-2.278 8 8 0 0 0-2.442-1.516A7.9 7.9 0 0 0 12 4q-1.65 0-3.113.625a8 8 0 0 0-2.55 1.713 8 8 0 0 0-1.712 2.55A7.8 7.8 0 0 0 4 12q0 1.65.625 3.113a8 8 0 0 0 1.713 2.55 8 8 0 0 0 2.55 1.712A7.8 7.8 0 0 0 12 20m1.792-6.11q.321-.667.819-1.223.496-.555 1.125-.934a2.8 2.8 0 0 0-.387-1.228q-.328-.547-.999-.547-.72 0-1.059.639A2.96 2.96 0 0 0 12.954 12q0 .69.215 1.18.216.49.623.71m4.708 7.6q-.724 0-1.425-.192a4.8 4.8 0 0 1-1.315-.586 9 9 0 0 1-1.845.59A9.4 9.4 0 0 1 12 21.5a9.2 9.2 0 0 1-3.703-.749 9.6 9.6 0 0 1-3.016-2.032 9.6 9.6 0 0 1-2.032-3.016A9.2 9.2 0 0 1 2.5 12q0-1.97.749-3.703a9.6 9.6 0 0 1 2.032-3.016 9.6 9.6 0 0 1 3.016-2.032A9.2 9.2 0 0 1 12 2.5q1.946 0 3.671.74a9.6 9.6 0 0 1 3.01 2.013 9.5 9.5 0 0 1 2.034 2.993 9.4 9.4 0 0 1 .775 3.668 5.3 5.3 0 0 1 1.673 1.87q.606 1.13.606 2.437 0 2.195-1.537 3.732-1.538 1.537-3.732 1.537m0-1.5q1.566 0 2.667-1.101 1.102-1.102 1.102-2.668 0-1.565-1.102-2.667-1.101-1.102-2.667-1.102t-2.667 1.102q-1.102 1.102-1.102 2.667 0 1.566 1.102 2.668 1.101 1.102 2.667 1.102M7.358 14.818v-.923l1.233-1.213q.597-.589.842-.848.384-.415.474-.648.09-.231.09-.46 0-.18-.185-.474-.184-.293-.712-.293-.443 0-.651.267t-.272.414l-.86-.343q.114-.333.545-.785.433-.453 1.263-.453.852 0 1.35.49t.498 1.127q0 .456-.223.901-.223.446-.664.885a33 33 0 0 1-.657.636q-.4.378-.843.82l.016.031h2.44v.87z"/></svg>