<svg xmlns="http://www.w3.org/2000/svg" width="24" height="24" viewBox="0 0 24 24" fill='currentColor'><path d="M9 21.5q-1.761 0-2.84-.976-1.08-.976-1.671-2.418a12 12 0 0 1-.791-3.092 25 25 0 0 1-.198-2.989q0-2.397.368-4.167.369-1.771 1.336-2.979.967-1.202 2.596-1.79 1.629-.59 4.2-.589 2.571 0 4.2.588 1.629.59 2.596 1.791.967 1.207 1.336 2.979.368 1.77.368 4.167 0 1.356-.198 2.99a12 12 0 0 1-.79 3.09q-.592 1.443-1.672 2.419-1.079.975-2.84.976zM8.975 20h6q1.32 0 2.101-.884.78-.885 1.205-2.16t.555-2.633.13-2.298q0-2.077-.26-3.585-.26-1.507-1.035-2.492-.77-.994-2.127-1.471Q14.186 4 11.975 4t-3.57.477Q7.05 4.954 6.28 5.948q-.776.984-1.035 2.492-.26 1.507-.26 3.585 0 .94.13 2.298t.555 2.633 1.205 2.16 2.1.884m7.034-7.23a.72.72 0 0 0 .53-.221.72.72 0 0 0 .22-.53q0-2.307-1.281-4.03-1.282-1.725-3.528-1.739a.68.68 0 0 0-.507.223.76.76 0 0 0-.212.543q0 .319.223.526.224.208.542.208 1.53 0 2.39 1.3.858 1.3.874 2.975 0 .32.215.532a.73.73 0 0 0 .534.212"/></svg>