<svg xmlns="http://www.w3.org/2000/svg" width="24" height="24" viewBox="0 0 24 24" fill='currentColor'><path d="M12 22.289 9.211 19.5H3.5v-17h17v17h-5.711zM5 18h4.82L12 20.18 14.18 18H19V4H5zm7-2.25q2.044 0 3.397-1.428T16.75 11V6.25H12q-1.92 0-3.335 1.353T7.25 11q0 .711.227 1.396.227.686.64 1.317l-1.07 1.062 1.022 1.014.996-.981q.675.453 1.425.698.748.244 1.51.244m0-1.5q-.471 0-.932-.153a3.8 3.8 0 0 1-.858-.409l3.419-3.363-1.079-1.054-3.348 3.348a4.5 4.5 0 0 1-.318-.775A2.8 2.8 0 0 1 8.75 11q0-1.405.972-2.328.973-.922 2.278-.922h3.25V11a3.13 3.13 0 0 1-.952 2.298A3.13 3.13 0 0 1 12 14.25"/></svg>