<svg xmlns="http://www.w3.org/2000/svg" width="24" height="24" viewBox="0 0 24 24" fill='currentColor'><path d="M14.25 21.5a9.2 9.2 0 0 1-3.686-.747 9.6 9.6 0 0 1-3.026-2.041 9.6 9.6 0 0 1-2.04-3.026 9.2 9.2 0 0 1-.748-3.683q0-1.975.749-3.7a9.7 9.7 0 0 1 2.04-3.015 9.6 9.6 0 0 1 3.026-2.039A9.2 9.2 0 0 1 14.25 2.5q1.08 0 2.091.244 1.01.244 1.909.721a10.5 10.5 0 0 0-3.277 3.631Q13.75 9.316 13.75 12q0 2.685 1.223 4.904a10.5 10.5 0 0 0 3.277 3.63 8 8 0 0 1-1.909.722 9 9 0 0 1-2.091.244m0-1.5h.525q.25 0 .475-.05-1.424-1.65-2.213-3.687A11.7 11.7 0 0 1 12.25 12q0-2.225.787-4.262A12.5 12.5 0 0 1 15.25 4.05a2.2 2.2 0 0 0-.475-.05h-.525q-3.325 0-5.662 2.338Q6.25 8.675 6.25 12t2.338 5.663T14.25 20"/></svg>