<svg xmlns="http://www.w3.org/2000/svg" width="24" height="24" viewBox="0 0 24 24" fill='currentColor'><path d="m21.5 18.654-1.5-1.5V7h-4.03l-1.835-2h-4.27l-.96 1.06-1.068-1.07L9.212 3.5h5.577l1.85 2H21.5zM2.5 20.5v-15h3.016l1.5 1.5H4v12h15.016l1.5 1.5zm12.871-5.144a4.25 4.25 0 0 1-1.436 1.28q-.87.48-1.935.48-1.722 0-2.918-1.197T7.885 13q0-1.065.479-1.934.479-.87 1.28-1.437l1.085 1.085a2.6 2.6 0 0 0-.977.935A2.53 2.53 0 0 0 9.385 13q-.001 1.109.754 1.862.753.754 1.861.754.753 0 1.351-.368.598-.367.935-.976zm-.453-5.273q.55.529.86 1.243t.328 1.55v.184q0 .092-.016.184L11.756 8.91q.092-.015.184-.016h.185a4.1 4.1 0 0 1 1.549.328q.713.31 1.244.86m5.874 12.833L1.281 3.404 2.35 2.335l19.511 19.512z"/></svg>