<svg xmlns="http://www.w3.org/2000/svg" width="24" height="24" viewBox="0 0 24 24" fill='currentColor'><path d="M6.485 21.173q-.705 0-1.21-.504a1.65 1.65 0 0 1-.506-1.21q0-.708.504-1.209.503-.5 1.21-.5t1.208.501.501 1.206-.501 1.21a1.64 1.64 0 0 1-1.206.505m9.861-7.652-1.5-1.5V8.457l-1.629 1.92-1.069-1.054 3.821-4.485a3.2 3.2 0 0 1 1.034-.817 2.76 2.76 0 0 1 1.214-.271q1.14 0 1.928.787t.788 1.932v.53h-1.5v-.534q0-.518-.35-.866a1.18 1.18 0 0 0-.866-.35q-.316 0-.585.125-.27.124-.482.381l-.804.924zm-1.096 1.728 1.5 1.5H5.814l4.061-4.767L1.727 3.85l1.054-1.07 18.65 18.65-1.07 1.054-9.432-9.433L9.07 15.25zm.12 5.923q-.705 0-1.21-.503a1.65 1.65 0 0 1-.506-1.21q0-.708.503-1.209.504-.5 1.211-.5t1.208.501.5 1.206-.5 1.21a1.64 1.64 0 0 1-1.207.505M11.083 8.258l-1.07-1.069 1.549-1.802a3.3 3.3 0 0 0-.642-.112 9 9 0 0 0-.65-.024q-.481 0-.958.07a8 8 0 0 0-.962.205L7.17 4.344a8 8 0 0 1 1.54-.448 8.5 8.5 0 0 1 1.56-.146q1.018 0 1.995.227a9 9 0 0 1 1.9.67z"/></svg>