<svg xmlns="http://www.w3.org/2000/svg" width="24" height="24" viewBox="0 0 24 24" fill='currentColor'><path d="M12 21.5q-1.47 0-2.803-.417a9.8 9.8 0 0 1-2.468-1.168l1.085-1.084A7.9 7.9 0 0 0 12 20q1.167 0 2.225-.306a8 8 0 0 0 1.961-.863l1.085 1.084q-1.136.75-2.468 1.168A9.3 9.3 0 0 1 12 21.5m-7.915-4.229q-.75-1.136-1.168-2.468A9.3 9.3 0 0 1 2.5 12q0-1.47.417-2.803a9.8 9.8 0 0 1 1.168-2.468l1.084 1.085a8 8 0 0 0-.863 1.961A8 8 0 0 0 4 12q0 1.167.306 2.225.305 1.058.863 1.961zm15.83 0-1.084-1.085q.558-.903.863-1.961A8 8 0 0 0 20 12q0-1.167-.306-2.225a8 8 0 0 0-.863-1.961l1.084-1.085q.75 1.136 1.168 2.468T21.5 12t-.417 2.803a9.8 9.8 0 0 1-1.168 2.468M7.814 5.17 6.729 4.085q1.136-.75 2.468-1.168A9.3 9.3 0 0 1 12 2.5q1.47 0 2.803.417 1.331.418 2.468 1.168l-1.085 1.084a8 8 0 0 0-1.961-.863A8 8 0 0 0 12 4q-1.167 0-2.225.306a8 8 0 0 0-1.961.863M13 17.75a2.64 2.64 0 0 1-1.593-.527 2.8 2.8 0 0 1-1.017-1.36 5 5 0 0 0-.191-.49 1.5 1.5 0 0 0-.301-.43l-1.365-1.366a4.4 4.4 0 0 1-.952-1.41A4.3 4.3 0 0 1 7.25 10.5q0-1.779 1.24-3.014Q9.73 6.25 11.5 6.25q1.629 0 2.827 1.066 1.199 1.064 1.398 2.675H14.21a2.67 2.67 0 0 0-.945-1.611 2.68 2.68 0 0 0-1.765-.63 2.66 2.66 0 0 0-1.948.797q-.802.797-.802 1.953 0 .558.22 1.084.218.526.632.939l1.35 1.35q.321.32.524.715.203.393.343.799.144.391.462.628.317.235.719.235.53 0 .89-.364t.36-.886h1.5a2.67 2.67 0 0 1-.795 1.942q-.795.808-1.955.808m.5-4q-.52 0-.884-.366a1.2 1.2 0 0 1-.366-.884q0-.535.366-.892.365-.358.884-.358.535 0 .892.358.358.357.358.892 0 .52-.358.884a1.2 1.2 0 0 1-.892.366"/></svg>