<svg xmlns="http://www.w3.org/2000/svg" width="24" height="24" viewBox="0 0 24 24" fill='currentColor'><path d="M11.998 21.692q-.746 0-1.276-.53a1.74 1.74 0 0 1-.53-1.277h3.616q0 .747-.532 1.277-.531.53-1.278.53M4.5 18.884v-1.5h1.808v-7.46q0-2.017 1.245-3.567a5.52 5.52 0 0 1 3.197-1.983V2.5h2.5v1.87q.657.15 1.226.435.57.285 1.057.666l-1.08 1.079a4.4 4.4 0 0 0-1.137-.598A3.9 3.9 0 0 0 12 5.731q-1.737 0-2.964 1.228-1.228 1.227-1.228 2.964v7.462H19.5v1.5zm11.38-5.128-1.053-1.07a2.2 2.2 0 0 0 .5-.763 2.5 2.5 0 0 0 .173-.944 2.6 2.6 0 0 0-.173-.952 2.2 2.2 0 0 0-.5-.771l1.054-1.054q.544.554.831 1.264.288.71.288 1.513t-.288 1.512a3.9 3.9 0 0 1-.831 1.265m1.431 1.43a5.6 5.6 0 0 0 1.25-1.907q.44-1.095.439-2.299 0-1.203-.439-2.3a5.6 5.6 0 0 0-1.25-1.909l1.07-1.054a7.1 7.1 0 0 1 1.577 2.388q.542 1.353.542 2.874t-.542 2.874a7.1 7.1 0 0 1-1.577 2.388z"/></svg>