<svg xmlns="http://www.w3.org/2000/svg" width="24" height="24" viewBox="0 0 24 24" fill='currentColor'><path d="M8.25 16.75v-1.5h7l1.5 1.5zm11.554 5.192-2.256-2.256a9.4 9.4 0 0 1-2.63 1.35A9.3 9.3 0 0 1 12 21.5a9.25 9.25 0 0 1-3.705-.748 9.6 9.6 0 0 1-3.016-2.03 9.6 9.6 0 0 1-2.03-3.017A9.25 9.25 0 0 1 2.5 12q0-1.503.463-2.918a9.4 9.4 0 0 1 1.35-2.63L2.058 4.196l1.069-1.069 17.746 17.746zm.18-4.788L18.89 16.06a7.5 7.5 0 0 0 .835-1.953A8 8 0 0 0 20 12q0-3.35-2.325-5.675T12 4q-1.075 0-2.105.275a7.5 7.5 0 0 0-1.955.834L6.846 4.016a9.6 9.6 0 0 1 2.466-1.13A9.4 9.4 0 0 1 12 2.5q1.972 0 3.705.748a9.6 9.6 0 0 1 3.016 2.03 9.6 9.6 0 0 1 2.03 3.017A9.25 9.25 0 0 1 21.5 12q0 1.38-.387 2.688a9.6 9.6 0 0 1-1.128 2.466m-3.52 1.448L5.397 7.537A7.75 7.75 0 0 0 4 12q0 3.35 2.325 5.675T12 20a7.8 7.8 0 0 0 4.464-1.398m-3.8-8.77 2.52-2.52 1.07 1.038-2.537 2.537z"/></svg>