<svg xmlns="http://www.w3.org/2000/svg" width="24" height="24" viewBox="0 0 24 24" fill='currentColor'><path d="M5.308 20.5q-.758 0-1.283-.525a1.75 1.75 0 0 1-.525-1.283V5.308q0-.758.525-1.283T5.308 3.5h13.384q.758 0 1.283.525t.525 1.283v13.384q0 .758-.525 1.283t-1.283.525zM5 11.75v6.942q0 .116.096.212a.3.3 0 0 0 .212.096h13.384a.3.3 0 0 0 .212-.096.3.3 0 0 0 .096-.212V11.75h-2.5v4.75h-9v-4.75zM9 15h6v-3.25H9zm-4-4.75h14V5.308a.3.3 0 0 0-.096-.212.3.3 0 0 0-.212-.096H5.308a.3.3 0 0 0-.212.096.3.3 0 0 0-.096.212zm2.98-2.154a.85.85 0 0 1-.625-.258.85.85 0 0 1-.259-.626q0-.368.259-.626a.85.85 0 0 1 .626-.259q.367 0 .626.258a.85.85 0 0 1 .258.627.85.85 0 0 1-.258.626.85.85 0 0 1-.626.258m4 0a.85.85 0 0 1-.625-.258.85.85 0 0 1-.259-.626q0-.368.259-.626a.85.85 0 0 1 .626-.259q.367 0 .626.258a.85.85 0 0 1 .258.627.85.85 0 0 1-.258.626.85.85 0 0 1-.626.258m4 0a.85.85 0 0 1-.625-.258.85.85 0 0 1-.259-.626q0-.368.259-.626a.85.85 0 0 1 .626-.259q.367 0 .626.258a.85.85 0 0 1 .258.627.85.85 0 0 1-.258.626.85.85 0 0 1-.626.258"/></svg>