<svg xmlns="http://www.w3.org/2000/svg" width="24" height="24" viewBox="0 0 24 24" fill='currentColor'><path d="M4.203 12.818q-1.126 0-1.915-.79A2.6 2.6 0 0 1 1.5 10.11q0-1.13.788-1.912a2.6 2.6 0 0 1 1.913-.784q1.125 0 1.915.785.788.786.788 1.907a2.62 2.62 0 0 1-.788 1.92 2.6 2.6 0 0 1-1.913.792M2.5 18.616V17h19v1.616zm9.5-5.808q-1.125 0-1.914-.788a2.6 2.6 0 0 1-.788-1.913q0-1.126.788-1.914a2.6 2.6 0 0 1 1.913-.789q1.126 0 1.915.788.788.788.788 1.913t-.788 1.915a2.6 2.6 0 0 1-1.913.788m7.799 0q-1.125 0-1.915-.788a2.6 2.6 0 0 1-.788-1.913q0-1.126.788-1.914a2.6 2.6 0 0 1 1.913-.789q1.126 0 1.915.788.788.788.788 1.913t-.788 1.915a2.6 2.6 0 0 1-1.913.788"/></svg>