<svg xmlns="http://www.w3.org/2000/svg" width="24" height="24" viewBox="0 0 24 24" fill='currentColor'><path d="M6 19.615q-.666 0-1.14-.474A1.56 1.56 0 0 1 4.384 18q0-.666.474-1.14A1.56 1.56 0 0 1 6 16.384q.125 0 .235.01.111.01.226.059l3.993-3.993a1.65 1.65 0 0 1-.021-.859q.104-.431.42-.748.318-.318.749-.421.43-.104.86.021l3.992-3.992a1 1 0 0 1-.055-.226A2 2 0 0 1 16.385 6q0-.666.474-1.14A1.56 1.56 0 0 1 18 4.384q.666 0 1.14.474.475.475.475 1.141t-.474 1.14A1.56 1.56 0 0 1 18 7.616a2.3 2.3 0 0 1-.462-.069l-3.992 3.977q.125.429.021.867-.103.44-.418.753-.336.335-.766.44t-.86-.037l-3.7 3.685.02.019h2.746q.216-.392.59-.629.373-.236.818-.236.466 0 .852.228.386.23.593.637h3.116A1.61 1.61 0 0 1 18 16.385q.666 0 1.14.474.475.475.475 1.141t-.474 1.14a1.56 1.56 0 0 1-1.141.475 1.57 1.57 0 0 1-.844-.236 1.7 1.7 0 0 1-.598-.629h-3.116a1.53 1.53 0 0 1-.594.637q-.388.228-.848.228-.448 0-.821-.236a1.7 1.7 0 0 1-.59-.629H7.41a1.6 1.6 0 0 1-.587.629 1.53 1.53 0 0 1-.824.236m0-6q-.666 0-1.14-.474A1.56 1.56 0 0 1 4.384 12q0-.666.474-1.14A1.56 1.56 0 0 1 6 10.384q.666 0 1.14.474.475.475.475 1.141t-.474 1.14A1.56 1.56 0 0 1 6 13.616m0-6q-.666 0-1.14-.474A1.56 1.56 0 0 1 4.384 6q0-.666.474-1.14A1.56 1.56 0 0 1 6 4.384q.666 0 1.14.474.475.475.475 1.141t-.474 1.14A1.56 1.56 0 0 1 6 7.616m6 0q-.666 0-1.14-.474A1.56 1.56 0 0 1 10.384 6q0-.666.474-1.14A1.56 1.56 0 0 1 12 4.384q.666 0 1.14.474.475.475.475 1.141t-.474 1.14A1.56 1.56 0 0 1 12 7.616m6 6q-.666 0-1.14-.474A1.56 1.56 0 0 1 16.384 12q0-.666.474-1.14A1.56 1.56 0 0 1 18 10.384q.666 0 1.14.474.475.475.475 1.141t-.474 1.14a1.56 1.56 0 0 1-1.141.475"/></svg>