<svg xmlns="http://www.w3.org/2000/svg" width="24" height="24" viewBox="0 0 24 24" fill='currentColor'><path d="M9.25 20.5H2.5v-15h4.862l1.85-2h5.577l1.85 2H21.5v15h-6.75V19H20V7h-4.03l-1.836-2H9.866L8.03 7H4v12h5.25zm2 0h1.5v-3.254q2.044-.292 3.397-1.825t1.353-3.613H16q0 1.62-1.165 2.81T12 15.808t-2.835-1.19T8 11.808H6.5q0 2.08 1.353 3.613t3.397 1.825zm.75-7.077q.671 0 1.143-.472.472-.473.472-1.143v-4q0-.672-.472-1.143A1.56 1.56 0 0 0 12 6.192q-.671 0-1.143.473a1.56 1.56 0 0 0-.472 1.143v4q0 .67.472 1.143.472.472 1.143.472"/></svg>