<svg xmlns="http://www.w3.org/2000/svg" width="24" height="24" viewBox="0 0 24 24" fill='currentColor'><path d="M10.923 5.619q.285-.06.538-.09.255-.03.539-.03t.539.03q.253.03.538.09v-.12q0-.457-.31-.767a1.04 1.04 0 0 0-.767-.31q-.457 0-.767.31t-.31.768zM5.5 21.499V12q0-2.028 1.098-3.612a6.5 6.5 0 0 1 2.825-2.322V5.5q0-1.074.74-1.826.74-.75 1.835-.751 1.095 0 1.837.751a2.5 2.5 0 0 1 .742 1.826v.565a6.4 6.4 0 0 1 2.606 2.022 6.34 6.34 0 0 1 1.267 3.097 8 8 0 0 0-.752-.03 5.5 5.5 0 0 0-.748.046q-.292-1.773-1.682-2.987Q13.878 7 12 7 9.925 7 8.463 8.462 7 9.924 7 12v8h4.329q.12.384.317.784t.402.716zm2.75-7.75h4.125q.282-.4.726-.805.443-.405.905-.694H8.25zm9.404-.403q1.873 0 3.186 1.313 1.314 1.314 1.314 3.187t-1.314 3.186q-1.312 1.314-3.186 1.314t-3.187-1.314-1.313-3.186 1.313-3.187q1.314-1.313 3.187-1.313m0 7.423a.57.57 0 0 0 .421-.171.57.57 0 0 0 .171-.421.57.57 0 0 0-.17-.422.57.57 0 0 0-.422-.17.57.57 0 0 0-.422.17.57.57 0 0 0-.17.422q0 .25.17.42a.57.57 0 0 0 .422.172m-.412-1.842h.823v-.212q0-.284.15-.483.15-.198.35-.398.35-.3.55-.594t.2-.779q0-.702-.463-1.14-.462-.437-1.194-.437-.56 0-1.023.338-.462.337-.662.893l.742.312q.094-.3.342-.525a.86.86 0 0 1 .597-.225q.393 0 .616.196t.222.589a.73.73 0 0 1-.16.48 6 6 0 0 1-.359.392q-.15.15-.303.31-.153.159-.278.343-.075.139-.112.292a1.4 1.4 0 0 0-.038.334z"/></svg>