<svg xmlns="http://www.w3.org/2000/svg" width="24" height="24" viewBox="0 0 24 24" fill='currentColor'><path d="M20 10.865a.84.84 0 0 1-.616-.248.84.84 0 0 1-.25-.617q0-.367.25-.616a.84.84 0 0 1 .616-.25q.367 0 .616.25a.84.84 0 0 1 .25.616q0 .367-.25.616a.84.84 0 0 1-.616.25m-.75-3.115v-4.5h1.5v4.5zM9 11.692q-1.444 0-2.472-1.028T5.5 8.192t1.028-2.471T9 4.692t2.472 1.029T12.5 8.192t-1.028 2.472T9 11.692m-7.5 7.616v-2.224q0-.735.399-1.36a2.66 2.66 0 0 1 1.067-.963 14.5 14.5 0 0 1 2.99-1.09 12.95 12.95 0 0 1 6.087 0q1.509.364 2.992 1.09.667.338 1.066.963t.399 1.36v2.224zm1.5-1.5h12v-.724a1 1 0 0 0-.176-.562 1.3 1.3 0 0 0-.478-.422 13 13 0 0 0-2.635-.965 11.4 11.4 0 0 0-5.422 0q-1.343.329-2.635.965-.301.164-.478.422a1 1 0 0 0-.176.563zm6-7.616q.825 0 1.412-.587Q11 9.017 11 8.192q0-.824-.588-1.412A1.93 1.93 0 0 0 9 6.192q-.825 0-1.412.588A1.93 1.93 0 0 0 7 8.192q0 .825.588 1.413.587.587 1.412.587"/></svg>