<svg xmlns="http://www.w3.org/2000/svg" width="24" height="24" viewBox="0 0 24 24" fill='currentColor'><path d="M12.067 20.577q-2.16 0-3.741-1.404-1.582-1.404-1.78-3.523a4.7 4.7 0 0 1-2.774-1.673 4.67 4.67 0 0 1-1.08-3.036q0-1.95 1.352-3.32Q5.397 6.25 7.337 6.25h2.605q.306 0 .528-.222a.72.72 0 0 0 .222-.528.72.72 0 0 0-.222-.528.72.72 0 0 0-.528-.222h-2.25v-1.5h2.25q.945 0 1.598.652.652.653.652 1.598t-.652 1.597a2.17 2.17 0 0 1-1.598.653H7.337q-1.318 0-2.231.927-.915.927-.914 2.248 0 1.105.657 1.98A3.27 3.27 0 0 0 6.571 14.1q.324-2.028 1.84-3.348 1.518-1.32 3.552-1.32.468 0 .955.081.488.08.913.214.19-.075.378-.135t.387-.097.419-.054q.218-.018.437-.018 1.673 0 2.886 1.145 1.215 1.146 1.214 2.848 0 .215-.008.418-.007.204-.058.4l.989.905q.516.45.763 1.047.246.597.247 1.251 0 1.308-.914 2.223a3 3 0 0 1-2.2.917zm0-1.5h6.304q.677 0 1.153-.48.476-.482.476-1.157 0-.364-.134-.669-.135-.303-.389-.533l-1.683-1.527q.152-.264.213-.565.06-.3.06-.623 0-1.098-.758-1.849-.759-.75-1.857-.751-1.107 0-1.87.758-.765.759-.765 1.858 0 .47.151.914.15.444.478.793L12.392 16.3a3.1 3.1 0 0 1-.82-1.273 4.7 4.7 0 0 1-.255-1.535q0-.697.233-1.332.232-.633.67-1.164l-.203-.034a1.4 1.4 0 0 0-.211-.014q-1.559 0-2.682 1.194Q8 13.336 8 15.006q0 .848.316 1.596.315.749.872 1.295.555.545 1.297.863a4 4 0 0 0 1.582.317M17 17.884a.85.85 0 0 1-.626-.258.85.85 0 0 1-.258-.626q0-.367.258-.626a.85.85 0 0 1 .626-.258q.367 0 .626.258a.85.85 0 0 1 .258.626.85.85 0 0 1-.258.626.85.85 0 0 1-.626.258"/></svg>