<svg xmlns="http://www.w3.org/2000/svg" width="24" height="24" viewBox="0 0 24 24" fill='currentColor'><path d="M4.044 20.432.746 17.215l.818-.842q2.115-2.227 4.889-3.3Q9.227 11.999 12 12q2.774 0 5.522 1.085 2.75 1.086 4.905 3.288l.827.842-3.298 3.217-3.706-2.798v-3.407a15 15 0 0 0-2.113-.538 12.2 12.2 0 0 0-4.273 0 15 15 0 0 0-2.114.538v3.407zm2.206-5.617q-.927.451-1.785 1.05-.857.598-1.611 1.285l1.327 1.327 2.069-1.593zm11.5.03v2.02l2.07 1.612 1.346-1.277a17 17 0 0 0-1.65-1.327 12 12 0 0 0-1.766-1.027m-5.771-3.822-4.97-4.97V9h-1.5V3.5h5.5V5H8.064l3.9 3.9 5.486-5.487 1.07 1.07z"/></svg>