<svg xmlns="http://www.w3.org/2000/svg" width="24" height="24" viewBox="0 0 24 24" fill='currentColor'><path d="M19.039 11.73q-.087-2.876-2.096-4.885T12.058 4.75v-1.5a8.4 8.4 0 0 1 3.277.717 8.8 8.8 0 0 1 2.667 1.82q1.14 1.14 1.819 2.667a8.4 8.4 0 0 1 .717 3.277zm-4 0a3.14 3.14 0 0 0-.933-2.052 3.08 3.08 0 0 0-2.048-.928v-1.5q1.824.077 3.11 1.366a4.58 4.58 0 0 1 1.37 3.115zm4.536 8.77q-2.913 0-5.803-1.297-2.889-1.297-5.283-3.691-2.385-2.395-3.687-5.286Q3.5 7.334 3.5 4.425V3.5h5.17l.886 4.554-2.773 2.692q.617 1.08 1.32 2.009.704.927 1.49 1.697.762.783 1.697 1.479t2.08 1.338l2.755-2.803 4.375.89V20.5zM6.073 9.327l1.871-1.785L7.442 5H5.016q.075 1.135.34 2.209t.717 2.118m8.7 8.642q.962.445 2.051.7t2.176.3v-2.402l-2.37-.475z"/></svg>