<svg xmlns="http://www.w3.org/2000/svg" width="24" height="24" viewBox="0 0 24 24" fill='currentColor'><path d="M8.625 20.5q-2.139 0-3.632-1.493T3.5 15.375q0-1.03.392-1.967.39-.939 1.114-1.662l6.74-6.74A5.1 5.1 0 0 1 15.375 3.5q2.138 0 3.632 1.493Q20.5 6.487 20.5 8.625a5.1 5.1 0 0 1-1.506 3.629l-6.74 6.74A5.1 5.1 0 0 1 8.625 20.5m6.477-6.477L17.95 11.2A3.68 3.68 0 0 0 19 8.625q0-1.5-1.062-2.562A3.5 3.5 0 0 0 15.375 5 3.68 3.68 0 0 0 12.8 6.05L9.977 8.898zM8.625 19a3.68 3.68 0 0 0 2.575-1.05l2.823-2.848-5.125-5.125L6.05 12.8A3.68 3.68 0 0 0 5 15.375q0 1.5 1.063 2.563A3.5 3.5 0 0 0 8.625 19"/></svg>