<svg xmlns="http://www.w3.org/2000/svg" width="24" height="24" viewBox="0 0 24 24" fill='currentColor'><path d="M16.994 14.245 15.95 13.2l2-2A3.68 3.68 0 0 0 19 8.625q0-1.5-1.062-2.562A3.5 3.5 0 0 0 15.375 5 3.68 3.68 0 0 0 12.8 6.05l-2 2-1.044-1.044 1.99-2a5.2 5.2 0 0 1 1.667-1.114 5 5 0 0 1 1.959-.392q2.142 0 3.635 1.493T20.5 8.63q0 1.024-.392 1.959a5.2 5.2 0 0 1-1.114 1.666zM8.625 19a3.68 3.68 0 0 0 2.575-1.05l2.271-2.27-5.15-5.15L6.05 12.8A3.68 3.68 0 0 0 5 15.375q0 1.5 1.062 2.563A3.5 3.5 0 0 0 8.625 19m11.137 2.97-5.247-5.247-2.261 2.272A5.1 5.1 0 0 1 8.625 20.5q-2.14 0-3.633-1.493T3.5 15.372q0-1.026.391-1.964.392-.938 1.115-1.661l2.271-2.262-5.146-5.146 1.054-1.054 17.63 17.63z"/></svg>