<svg xmlns="http://www.w3.org/2000/svg" width="24" height="24" viewBox="0 0 24 24" fill='currentColor'><path d="M12.25 5.25q0 .73-.51 1.24-.511.51-1.24.51-.315 0-.585-.102a1.8 1.8 0 0 1-.517-.311 2.23 2.23 0 0 0-1.092.724q-.434.526-.512 1.189h12.668l-.933 6.25h-4.467v-1.5h3.175l.492-3.25H5.27l.492 3.25h3.175v1.5H4.472L3.538 8.5h2.74a3.7 3.7 0 0 1 .743-2.004A3.7 3.7 0 0 1 8.76 5.223a.1.1 0 0 1-.01-.048v-.048q.046-.698.549-1.162A1.7 1.7 0 0 1 10.5 3.5q.729 0 1.24.51.51.511.51 1.24M9.784 19h4.432l.575-6H9.21zm-1.332 1.5-.864-9h8.824l-.864 9z"/></svg>