<svg xmlns="http://www.w3.org/2000/svg" width="24" height="24" viewBox="0 0 24 24" fill='currentColor'><path d="M12 21.48q-3.244-.885-5.372-3.819T4.5 11.1V5.346L12 2.538l7.5 2.808v4.77H18V6.374l-6-2.24-6 2.24V11.1q0 3.024 1.7 5.5t4.3 3.3a7 7 0 0 0 1.238-.513q.587-.312 1.162-.737l1.015 1.073q-.786.607-1.619 1.045A9.4 9.4 0 0 1 12 21.48m8.634.02a.72.72 0 0 1-.534-.216.73.73 0 0 1-.216-.535q0-.318.216-.534a.73.73 0 0 1 .535-.215q.318 0 .534.215a.73.73 0 0 1 .215.535q0 .318-.215.534a.73.73 0 0 1-.535.216m-.75-3.693v-5.5h1.5v5.5zM12 14q.825 0 1.412-.588Q14 12.824 14 12q0-.825-.588-1.413A1.93 1.93 0 0 0 12 10q-.825 0-1.412.587A1.93 1.93 0 0 0 10 12q0 .825.588 1.412Q11.175 14 12 14m0 1.5q-1.444 0-2.472-1.029T8.5 12t1.028-2.472T12 8.5t2.472 1.028T15.5 12q0 .505-.137.978a3.8 3.8 0 0 1-.394.899l2.927 2.911-1.069 1.07-2.943-2.928q-.41.285-.895.427A3.5 3.5 0 0 1 12 15.5"/></svg>