<svg xmlns="http://www.w3.org/2000/svg" width="24" height="24" viewBox="0 0 24 24" fill='currentColor'><path d="M9.956 7.198q.078-.02.152-.032a1 1 0 0 1 .161-.013q.758 0 1.302.545.545.543.545 1.302v.357zm11.333 9.436-3.52-3.52v1.897l-1.5-1.5V6H8.758l-1.5-1.5h10.511v6.384l3.52-3.519zM17.75 19.5H2.77V4.519h1.672l1.481 1.48H4.269v12h5.454v-1.3q-1.76-.216-2.938-1.502-1.18-1.283-1.237-3.044h1.146q.048 1.452 1.081 2.442t2.494.989q.825 0 1.572-.357a3.4 3.4 0 0 0 1.248-1.008l.813.813a4.6 4.6 0 0 1-1.386 1.139 4.8 4.8 0 0 1-1.7.529V18h5.453v-1.654l1.481 1.48zm3.277 1.603-1.054 1.054-8.673-8.673a1.6 1.6 0 0 1-1.03.362q-.759 0-1.303-.544a1.78 1.78 0 0 1-.544-1.303v-1.392L1.535 3.72l1.053-1.054z"/></svg>