<svg xmlns="http://www.w3.org/2000/svg" width="24" height="24" viewBox="0 0 24 24" fill='currentColor'><path d="M8 21.5q-1.444 0-2.472-1.028T4.5 18V9.615q0-1.31.826-2.258a3.44 3.44 0 0 1 2.059-1.165V2.5h9.23v3.692a3.44 3.44 0 0 1 2.059 1.165q.825.948.826 2.258V18q0 1.443-1.028 2.472T16 21.5zm-2-8.442h12V9.615q0-.825-.587-1.412A1.93 1.93 0 0 0 16 7.615H8q-.824 0-1.412.588A1.93 1.93 0 0 0 6 9.615zM8 20h8q.824 0 1.413-.587Q18 18.825 18 18v-3.442H6V18q0 .824.588 1.413Q7.175 20 8 20m4.884-13.884h2.232V4H8.884v2.116h2.232V5.23h1.768z"/></svg>