<svg xmlns="http://www.w3.org/2000/svg" width="24" height="24" viewBox="0 0 24 24" fill='currentColor'><path d="M6.5 21.5v-4.03a9.4 9.4 0 0 1-2.213-2.98 8.15 8.15 0 0 1-.787-3.497q0-3.539 2.48-6.016Q8.457 2.5 12 2.5q2.914 0 5.21 1.742 2.298 1.74 2.984 4.518l1.437 5.74H18.5v5h-4v2H13V18h4v-5h2.7l-.95-3.875a6.5 6.5 0 0 0-2.46-3.705Q14.407 4 12 4 9.1 4 7.05 6.028T5 10.96q0 1.497.612 2.845a7.5 7.5 0 0 0 1.738 2.396L8 16.8v4.7zm5.403-5.596q.368 0 .617-.249a.84.84 0 0 0 .25-.616.84.84 0 0 0-.25-.617.84.84 0 0 0-.616-.249.84.84 0 0 0-.617.249.84.84 0 0 0-.248.616q0 .367.248.617.249.249.616.249m-.586-2.97h1.208q0-.537.177-.935.177-.397.677-.937.44-.49.846-.994.406-.502.406-1.26 0-.994-.755-1.68t-1.897-.686q-.914 0-1.663.508-.75.507-1.085 1.337l1.086.469q.214-.531.67-.854.457-.324.992-.323.607 0 1.018.343.41.343.41.886 0 .544-.326.952-.328.407-.742.832a4.2 4.2 0 0 0-.761 1.04q-.26.526-.26 1.303"/></svg>