<svg xmlns="http://www.w3.org/2000/svg" width="24" height="24" viewBox="0 0 24 24" fill='currentColor'><path d="M11.25 20.75v-7.937a7.5 7.5 0 0 1-2.883-.57 7.4 7.4 0 0 1-2.436-1.626 7.2 7.2 0 0 1-1.614-2.442 7.7 7.7 0 0 1-.557-2.887v-1.5h1.5a7.4 7.4 0 0 1 2.858.575 7.5 7.5 0 0 1 2.436 1.63 7.1 7.1 0 0 1 1.287 1.754q.504.967.72 2.057.173-.3.386-.569t.474-.53a7.5 7.5 0 0 1 2.442-1.63A7.5 7.5 0 0 1 18.75 6.5h1.5V8a7.5 7.5 0 0 1-.575 2.888 7.5 7.5 0 0 1-1.632 2.442 7.3 7.3 0 0 1-2.423 1.613 7.5 7.5 0 0 1-2.87.557v5.25zm.01-9.462q0-1.2-.463-2.287a6.1 6.1 0 0 0-1.312-1.938 6.1 6.1 0 0 0-1.938-1.312 5.8 5.8 0 0 0-2.287-.463q0 1.2.45 2.3t1.3 1.95 1.95 1.3 2.3.45M12.75 14a5.92 5.92 0 0 0 4.225-1.75 6 6 0 0 0 1.313-1.95q.462-1.1.462-2.3-1.2 0-2.3.462a6 6 0 0 0-1.95 1.313A5.92 5.92 0 0 0 12.75 14"/></svg>