<svg xmlns="http://www.w3.org/2000/svg" width="24" height="24" viewBox="0 0 24 24" fill='currentColor'><path d="m20.792 22.916-3.229-3.23A9.26 9.26 0 0 1 12 21.5a9.25 9.25 0 0 1-3.704-.748 9.6 9.6 0 0 1-3.016-2.03 9.6 9.6 0 0 1-2.03-3.017A9.25 9.25 0 0 1 2.5 12a9.26 9.26 0 0 1 1.814-5.563L1.28 3.404l1.07-1.069 19.511 19.512zM11 19.95V18H9v-3l-4.8-4.8q-.075.45-.137.9T4 12q0 3.026 1.988 5.3T11 19.95m8.985-2.811-1.094-1.094q.534-.926.822-1.943A7.7 7.7 0 0 0 20 12.003q0-2.463-1.358-4.492A7.66 7.66 0 0 0 15 4.58V7h-4v1.153L6.862 4.016a10 10 0 0 1 2.414-1.117A9.2 9.2 0 0 1 12 2.5q1.972 0 3.705.748a9.6 9.6 0 0 1 3.016 2.031 9.6 9.6 0 0 1 2.03 3.016A9.25 9.25 0 0 1 21.5 12q0 1.433-.399 2.724a10 10 0 0 1-1.116 2.415"/></svg>