<svg xmlns="http://www.w3.org/2000/svg" width="24" height="24" viewBox="0 0 24 24" fill='currentColor'><path d="M2.714 10.058A5.8 5.8 0 0 1 2.5 8.485q0-2.13 1.436-3.557T7.5 3.5q1.284 0 2.463.617A6.1 6.1 0 0 1 12 5.87q.86-1.144 2.025-1.756A5.25 5.25 0 0 1 16.5 3.5q2.11 0 3.545 1.414T21.5 8.437v.03a5 5 0 0 0-1.633-.904 3.27 3.27 0 0 0-1.211-1.847Q17.726 5 16.5 5q-1.132 0-2.128.657-.995.657-1.883 1.978h-.978q-.863-1.287-1.883-1.961T7.5 5Q6.026 5 5.013 6.013T4 8.485q0 .413.075.788t.234.785zM12 20.462l-2.165-1.947q-.819-.75-1.5-1.38t-1.268-1.193h2.194q.609.54 1.282 1.163.675.622 1.457 1.33.492-.427.917-.815t.824-.76q.263.28.554.515t.617.436a58 58 0 0 1-.808.75zM1.442 13.75v-1.5h4.335l2.43-3.598 2.4 3.598h1.714q-.03.192-.05.37-.021.177-.021.382t.02.38.051.368H9.802l-1.61-2.402-1.61 2.402zM18 16.77a.84.84 0 0 1-.616-.25.84.84 0 0 1-.25-.616q0-.367.25-.617A.84.84 0 0 1 18 15.04q.367 0 .616.248a.84.84 0 0 1 .25.616q0 .368-.25.617a.84.84 0 0 1-.616.25m-.75-2.943V9.25h1.5v4.577z"/></svg>