<svg xmlns="http://www.w3.org/2000/svg" width="24" height="24" viewBox="0 0 24 24" fill='currentColor'><path d="M16.212 19.5h.884V16h-.884zm.442-4.414a.39.39 0 0 0 .311-.126.44.44 0 0 0 .131-.316.42.42 0 0 0-.136-.311.43.43 0 0 0-.618 0 .43.43 0 0 0 0 .618q.13.135.312.135M5 4v6.183-.03V20zm2.25 9.75h3.483q.217-.43.488-.801.271-.37.596-.699H7.25zm0 4h2.777a5.6 5.6 0 0 1-.02-1.5H7.25zM3.5 21.5v-19h9.75l5.25 5.25v2.665a5 5 0 0 0-.73-.167 6 6 0 0 0-.77-.065V8.5h-4.5V4H5v16h5.762q.216.43.493.801.276.37.61.699zm13.154-9.154q1.873 0 3.186 1.314 1.314 1.312 1.314 3.186t-1.314 3.187q-1.312 1.313-3.186 1.313t-3.187-1.313-1.313-3.187q0-1.873 1.313-3.186 1.314-1.314 3.187-1.314"/></svg>