<svg xmlns="http://www.w3.org/2000/svg" width="24" height="24" viewBox="0 0 24 24" fill='currentColor'><path d="m2.5 21.5 1.77-1.77h11.46l1.77 1.77zm2.654-2.654.885-.884h-.375q-1.326 0-2.245-.935a3.1 3.1 0 0 1-.919-2.258V8.096q0-3.032 2.168-4.814T10 1.5q.672 0 1.309.078t1.23.258a5 5 0 0 0-.651.59q-.297.321-.546.688a5 5 0 0 0-.658-.092A10 10 0 0 0 10 3q-1.287 0-2.388.385A5.3 5.3 0 0 0 5.725 4.5h4.887q-.159.36-.26.73a7 7 0 0 0-.167.77H4.454a5 5 0 0 0-.337.986A5 5 0 0 0 4 8.095v1.481h6.714q.155.415.354.786.2.37.457.714H4v3.692q0 .705.485 1.199a1.6 1.6 0 0 0 1.178.494h8.673a1.6 1.6 0 0 0 1.179-.494q.485-.494.485-1.199v-1.133q.375.057.75.056.375 0 .75-.046v1.123q0 1.322-.92 2.258-.918.934-2.243.934h-.376l.885.885zM10 15.173q.585 0 .994-.41t.409-.995-.41-.994a1.36 1.36 0 0 0-.995-.408q-.586 0-.994.41a1.36 1.36 0 0 0-.409.995q0 .585.41.993.41.41.995.409m6.803-3.673q-1.869 0-3.183-1.313-1.313-1.314-1.313-3.19 0-1.855 1.306-3.176 1.305-1.32 3.197-1.321 1.87 0 3.183 1.314Q21.308 5.126 21.308 7t-1.318 3.187Q18.673 11.5 16.804 11.5m-.439-3.692h.885v-3.5h-.885zm.443 1.923a.45.45 0 0 0 .335-.14.5.5 0 0 0 .145-.332.48.48 0 0 0-.14-.343.45.45 0 0 0-.34-.147.46.46 0 0 0-.34.14.46.46 0 0 0-.141.341q0 .2.14.34t.34.14"/></svg>