<svg xmlns="http://www.w3.org/2000/svg" width="24" height="24" viewBox="0 0 24 24" fill='currentColor'><path d="m20.792 22.916-1.619-1.62q-.221.104-.454.154t-.45.05H6q-1.048 0-1.774-.726A2.4 2.4 0 0 1 3.5 19v-2.5h3V8.623L1.28 3.404l1.07-1.069 19.511 19.512zM6 20h11.877l-2-2H5v1q0 .425.288.713Q5.575 20 6 20m14.5-2.315-1.5-1.5V5H7.816L6.5 3.685v-.993l1.385 1.193 1.404-1.193 1.403 1.193 1.404-1.193L13.5 3.885l1.404-1.193 1.404 1.193 1.404-1.193 1.403 1.193L20.5 2.692zM8 16.5h6.377L8 10.123zm3.596-7.75-1.5-1.5h4.77v1.5zm3 3-1.5-1.5h1.77v1.5zm2.346.135a.85.85 0 0 1-.626-.259.85.85 0 0 1-.258-.626q0-.367.258-.626a.85.85 0 0 1 .626-.258q.368 0 .626.258a.85.85 0 0 1 .259.626.85.85 0 0 1-.259.626.85.85 0 0 1-.626.259m0-3a.85.85 0 0 1-.626-.259.85.85 0 0 1-.258-.626q0-.367.258-.626a.85.85 0 0 1 .626-.258q.368 0 .626.258a.85.85 0 0 1 .259.626.85.85 0 0 1-.259.626.85.85 0 0 1-.626.259"/></svg>