<svg xmlns="http://www.w3.org/2000/svg" width="24" height="24" viewBox="0 0 24 24" fill='currentColor'><path d="M5.338 18.736a10 10 0 0 1-2.1-3.11 9.2 9.2 0 0 1-.748-3.667q0-1.923.731-3.675a9.4 9.4 0 0 1 2.117-3.111l1.08 1.07a7.7 7.7 0 0 0-1.804 2.606 7.9 7.9 0 0 0-.624 3.1q0 1.62.637 3.102a8.1 8.1 0 0 0 1.79 2.616zM9.5 17.75q-.519 0-.885-.366a1.2 1.2 0 0 1-.365-.884q0-.519.365-.885.366-.365.885-.365.52 0 .884.365.366.366.366.885t-.366.884a1.2 1.2 0 0 1-.884.366m3.725-5v-1.967l-1.688.996-.75-1.308 1.688-.971-1.688-.971.75-1.308 1.688.996V6.25h1.5v1.967l1.688-.996.75 1.308-1.688.97 1.688.972-.75 1.308-1.688-.996v1.967zm5.427 5.986-1.079-1.069a7.7 7.7 0 0 0 1.803-2.611A7.95 7.95 0 0 0 20 11.95q0-1.62-.637-3.096a8.2 8.2 0 0 0-1.79-2.612l1.079-1.07a10 10 0 0 1 2.1 3.116 9.2 9.2 0 0 1 .748 3.671 9.4 9.4 0 0 1-.735 3.676 9.4 9.4 0 0 1-2.113 3.101"/></svg>