<svg xmlns="http://www.w3.org/2000/svg" width="24" height="24" viewBox="0 0 24 24" fill='currentColor'><path d="M5.5 22.5v-21h13v21zM7 19.75V21h10v-1.25zm0-15.5h10V3H7zm5 11.25q-1.35 0-2.625.387Q8.1 16.276 7 17v1.25h10V17a9.1 9.1 0 0 0-5-1.5m0-1.5q1.35 0 2.613.328 1.262.327 2.387.93V5.75H7v9.508q1.125-.603 2.387-.93A10.4 10.4 0 0 1 12 14m-.001-1.25q1.145 0 1.948-.802a2.65 2.65 0 0 0 .803-1.947q0-1.145-.802-1.948a2.65 2.65 0 0 0-1.947-.803q-1.145 0-1.948.802a2.65 2.65 0 0 0-.803 1.947q0 1.145.802 1.948a2.65 2.65 0 0 0 1.947.803m.001-1.5q-.522 0-.886-.364A1.2 1.2 0 0 1 10.75 10q0-.522.364-.886T12 8.75t.886.364.364.886-.364.886a1.2 1.2 0 0 1-.886.364m0 7h5H7z"/></svg>