<svg xmlns="http://www.w3.org/2000/svg" width="24" height="24" viewBox="0 0 24 24" fill='currentColor'><path d="M6.596 8.5h1.25V7.25q0-.522-.364-.886A1.2 1.2 0 0 0 6.596 6q-.52 0-.885.364a1.2 1.2 0 0 0-.365.886q0 .522.365.886.364.364.885.364m4.308 0q.521 0 .886-.364.364-.364.364-.886t-.364-.886A1.2 1.2 0 0 0 10.904 6q-.522 0-.886.364a1.2 1.2 0 0 0-.364.886V8.5zm8.596 13H9.208l-6.042-7.835 1.205-1.28 3.475 1.911V10h-1.25a2.65 2.65 0 0 1-1.948-.802 2.65 2.65 0 0 1-.802-1.947q0-1.145.802-1.948A2.65 2.65 0 0 1 6.596 4.5q.357 0 .664.098t.586.27V2.5h1.516v2.506q.341-.248.727-.377a2.6 2.6 0 0 1 .815-.129q1.146 0 1.948.802a2.65 2.65 0 0 1 .802 1.947q0 1.145-.802 1.948a2.65 2.65 0 0 1-1.948.803H9.362v6.944L6.36 15.31 9.962 20H18v-7.23h-6.254v-1.5H19.5z"/></svg>