<svg xmlns="http://www.w3.org/2000/svg" width="24" height="24" viewBox="0 0 24 24" fill='currentColor'><path d="M8.25 22.558a1.74 1.74 0 0 1-1.277-.531 1.74 1.74 0 0 1-.53-1.277V3.25q0-.746.53-1.277a1.74 1.74 0 0 1 1.277-.53h7.5q.746 0 1.277.53.53.531.53 1.277v17.5q0 .746-.53 1.277a1.74 1.74 0 0 1-1.277.53zm0-1.5h7.5a.3.3 0 0 0 .221-.087.3.3 0 0 0 .087-.22V3.25a.3.3 0 0 0-.087-.222.3.3 0 0 0-.221-.087h-7.5a.3.3 0 0 0-.221.087.3.3 0 0 0-.087.221v17.5a.3.3 0 0 0 .087.221.3.3 0 0 0 .221.087M11.999 9.75q1.145 0 1.948-.802a2.65 2.65 0 0 0 .803-1.947q0-1.145-.802-1.948a2.65 2.65 0 0 0-1.947-.803q-1.145 0-1.948.802a2.65 2.65 0 0 0-.803 1.947q0 1.146.802 1.948a2.65 2.65 0 0 0 1.947.803M12 8.25q-.522 0-.886-.364A1.2 1.2 0 0 1 10.75 7q0-.521.364-.885.364-.365.886-.365t.886.365.364.885-.364.886A1.2 1.2 0 0 1 12 8.25m-1.902 5.558a.87.87 0 0 0 .643-.26.88.88 0 0 0 .259-.646.87.87 0 0 0-.26-.643.88.88 0 0 0-.646-.259.87.87 0 0 0-.643.26.88.88 0 0 0-.259.646.87.87 0 0 0 .26.643.88.88 0 0 0 .646.259m3.807 0a.87.87 0 0 0 .644-.26.88.88 0 0 0 .259-.646.87.87 0 0 0-.26-.643.88.88 0 0 0-.646-.259.87.87 0 0 0-.643.26.88.88 0 0 0-.259.646q0 .384.26.643a.88.88 0 0 0 .646.259m-3.807 3a.87.87 0 0 0 .643-.26.88.88 0 0 0 .259-.646.87.87 0 0 0-.26-.643.88.88 0 0 0-.646-.259.87.87 0 0 0-.643.26.88.88 0 0 0-.259.646.87.87 0 0 0 .26.643.88.88 0 0 0 .646.259m3.807 0a.87.87 0 0 0 .644-.26.88.88 0 0 0 .259-.646.87.87 0 0 0-.26-.643.88.88 0 0 0-.646-.259.87.87 0 0 0-.643.26.88.88 0 0 0-.259.646q0 .384.26.643a.88.88 0 0 0 .646.259m-3.807 3a.87.87 0 0 0 .643-.26.88.88 0 0 0 .259-.646.87.87 0 0 0-.26-.643.88.88 0 0 0-.646-.259.87.87 0 0 0-.643.26.88.88 0 0 0-.259.646.87.87 0 0 0 .26.643.88.88 0 0 0 .646.259m3.807 0a.87.87 0 0 0 .644-.26.88.88 0 0 0 .259-.646.87.87 0 0 0-.26-.643.88.88 0 0 0-.646-.259.87.87 0 0 0-.643.26.88.88 0 0 0-.259.646q0 .384.26.643a.88.88 0 0 0 .646.259"/></svg>