<svg xmlns="http://www.w3.org/2000/svg" width="24" height="24" viewBox="0 0 24 24" fill='currentColor'><path d="M8.5 21.5v-1.587a10.44 10.44 0 0 1-4.283-3.11Q2.5 14.713 2.5 12q0-1.972.748-3.705a9.6 9.6 0 0 1 2.03-3.016 9.6 9.6 0 0 1 3.016-2.03 9.25 9.25 0 0 1 3.704-.749q1.972 0 3.706.748a9.6 9.6 0 0 1 3.017 2.03 9.6 9.6 0 0 1 2.03 3.017A9.25 9.25 0 0 1 21.5 12q0 2.714-1.716 4.803a10.44 10.44 0 0 1-4.284 3.11V21.5zM9.75 12h4.5V4.327a8 8 0 0 0-1.125-.245 7.8 7.8 0 0 0-2.25 0q-.562.081-1.125.245zM4 12h4.25V4.94a7.86 7.86 0 0 0-3.11 2.94A7.85 7.85 0 0 0 4 12m11.75 0H20q0-2.227-1.14-4.12a7.86 7.86 0 0 0-3.11-2.94zM10 20h4v-1.1a13.4 13.4 0 0 0 3.556-2.1 6.55 6.55 0 0 0 2.179-3.3H4.265a6.55 6.55 0 0 0 2.18 3.3A13.4 13.4 0 0 0 10 18.9z"/></svg>