<svg xmlns="http://www.w3.org/2000/svg" width="24" height="24" viewBox="0 0 24 24" fill='currentColor'><path d="M11.26 6.942v-4.5h1.5v4.5zm6.35 2.735-1.054-1.085 3.203-3.184 1.055 1.084zm-11.2 0L3.187 6.512 4.26 5.408l3.204 3.184zM4.044 20.433.746 17.215l.817-.842q2.115-2.226 4.89-3.3T12 12q2.774 0 5.522 1.086 2.75 1.086 4.905 3.287l.827.842-3.298 3.218-3.706-2.798v-3.408a15 15 0 0 0-2.113-.537 12.2 12.2 0 0 0-4.273 0q-1.068.189-2.114.537v3.408zm2.206-5.618q-.927.453-1.785 1.05-.857.599-1.611 1.285l1.327 1.327 2.069-1.592zm11.5.031v2.02l2.07 1.611 1.346-1.277a17 17 0 0 0-1.65-1.327 12 12 0 0 0-1.766-1.027"/></svg>