<svg xmlns="http://www.w3.org/2000/svg" width="24" height="24" viewBox="0 0 24 24" fill='currentColor'><path d="M4.5 20.5v-6.327h15V20.5zm4.644-7.711q-1.928 0-3.285-1.359Q4.5 10.072 4.5 8.144T5.859 4.86Q7.217 3.5 9.144 3.5h5.712q1.927 0 3.286 1.359T19.5 8.143t-1.358 3.286-3.286 1.359zM6 19h12v-3.327H6zm3.144-7.711h5.712q1.317 0 2.23-.914.915-.914.914-2.23 0-1.318-.913-2.231-.914-.915-2.231-.914H9.144q-1.317 0-2.23.914-.915.913-.914 2.23 0 1.317.914 2.231.913.914 2.23.914m0-2.28q.367 0 .617-.248a.84.84 0 0 0 .248-.616.84.84 0 0 0-.248-.617.84.84 0 0 0-.616-.25.84.84 0 0 0-.617.25.84.84 0 0 0-.25.616q0 .367.25.617a.84.84 0 0 0 .616.248m5.711 0q.368 0 .617-.248a.84.84 0 0 0 .25-.616.84.84 0 0 0-.25-.617.84.84 0 0 0-.616-.25.84.84 0 0 0-.617.25.84.84 0 0 0-.248.616q0 .367.248.617a.84.84 0 0 0 .616.248"/></svg>