<svg xmlns="http://www.w3.org/2000/svg" width="24" height="24" viewBox="0 0 24 24" fill='currentColor'><path d="M3.75 20.5V19h2V3.5h9v1h3.5v5.904h-1.5V6h-2v6.23h-1.5V5h-6v14h4.885v1.5zm13.385.788-.204-1.182a3.2 3.2 0 0 1-.75-.314 3.6 3.6 0 0 1-.604-.456l-1.123.433-.789-1.292.914-.788a3.4 3.4 0 0 1-.118-.835q0-.373.118-.835l-.914-.788.789-1.293 1.123.433q.289-.268.604-.463.315-.196.75-.322l.204-1.182h1.5l.203 1.182q.435.125.75.314.316.189.604.456l1.123-.433.789 1.292-.914.789q.118.461.118.834 0 .374-.118.835l.914.789-.789 1.292-1.123-.418q-.288.268-.604.456-.315.189-.75.314l-.204 1.182zm.747-2.365q.856 0 1.468-.61.612-.609.611-1.465 0-.856-.609-1.467a2 2 0 0 0-1.465-.612q-.855 0-1.468.61a2 2 0 0 0-.611 1.465q0 .856.61 1.467.609.612 1.465.612m-6.632-6.038a.85.85 0 0 1-.626-.259.85.85 0 0 1-.258-.626q0-.367.258-.626a.85.85 0 0 1 .626-.258q.368 0 .626.258a.85.85 0 0 1 .259.626.85.85 0 0 1-.259.626.85.85 0 0 1-.626.258"/></svg>