<svg xmlns="http://www.w3.org/2000/svg" width="24" height="24" viewBox="0 0 24 24" fill='currentColor'><path d="M13.05 21.5v-1.55a7.3 7.3 0 0 0 1.662-.45 7 7 0 0 0 1.538-.85l1.054 1.085a9.3 9.3 0 0 1-2.022 1.172q-1.068.45-2.232.593m-2 0q-3.228-.42-5.365-2.819-2.135-2.399-2.135-5.63 0-1.77.67-3.316a8.6 8.6 0 0 1 1.818-2.696 8.6 8.6 0 0 1 2.697-1.82 8.3 8.3 0 0 1 3.315-.669h.458l-1.82-1.819 1.054-1.085L15.396 5.3l-3.654 3.654L10.688 7.9l1.85-1.85h-.488q-2.925 0-4.963 2.038Q5.05 10.125 5.05 13.05q0 2.6 1.7 4.563t4.3 2.357zm7.685-3.196L17.65 17.25a7.3 7.3 0 0 0 1.32-3.2h1.53a7.8 7.8 0 0 1-.579 2.222 9.5 9.5 0 0 1-1.186 2.032M20.5 12.05h-1.53a7.3 7.3 0 0 0-1.32-3.2l1.085-1.054q.723.89 1.169 1.972.446 1.085.596 2.282"/></svg>