<svg xmlns="http://www.w3.org/2000/svg" width="24" height="24" viewBox="0 0 24 24" fill='currentColor'><path d="M13.058 17.942v-3.536l-1.222-1.331-.534 2.708-3.635-.756.181-.86 2.775.575 1.004-5.054-1.685.624v1.63h-.884V9.688l3.236-1.18a.95.95 0 0 1 .699.015q.344.14.512.484.603 1.252 1.35 1.642.75.39 1.087.409v.884q-.525-.02-1.35-.456-.827-.435-1.52-1.38l-.455 2.513 1.325 1.425v3.898zm.442-10a.9.9 0 0 1-.671-.27.9.9 0 0 1-.271-.672q0-.4.27-.671.271-.271.672-.271.4 0 .672.27.27.272.27.672t-.27.672a.9.9 0 0 1-.672.27M12.002 21.5a9.3 9.3 0 0 1-3.706-.748 9.6 9.6 0 0 1-3.016-2.03 9.6 9.6 0 0 1-2.032-3.016 9.25 9.25 0 0 1-.748-3.704q0-1.972.748-3.706a9.6 9.6 0 0 1 2.03-3.016 9.6 9.6 0 0 1 3.016-2.032 9.25 9.25 0 0 1 3.704-.748q1.972 0 3.706.748a9.6 9.6 0 0 1 3.017 2.03 9.6 9.6 0 0 1 2.03 3.016 9.25 9.25 0 0 1 .749 3.704q0 1.972-.748 3.706a9.6 9.6 0 0 1-2.03 3.017 9.6 9.6 0 0 1-3.016 2.03 9.25 9.25 0 0 1-3.704.749M12 20q3.35 0 5.675-2.325T20 12t-2.325-5.675T12 4 6.325 6.325 4 12t2.325 5.675T12 20"/></svg>