<svg xmlns="http://www.w3.org/2000/svg" width="24" height="24" viewBox="0 0 24 24" fill='currentColor'><path d="M16.77 8.173q-.549 0-.934-.382a1.26 1.26 0 0 1-.384-.93q0-.372.367-.99a7.7 7.7 0 0 1 .95-1.255q.583.636.95 1.255t.367.99q0 .546-.383.93a1.27 1.27 0 0 1-.933.382m2.357 6.462q-.907 0-1.537-.628a2.1 2.1 0 0 1-.628-1.537q0-.759.664-1.873t1.499-2.068a14 14 0 0 1 1.499 2.068q.665 1.115.665 1.872 0 .908-.628 1.537-.626.63-1.534.629m-9.704 2.942h1.5v-2h2v-1.5h-2v-2h-1.5v2h-2v1.5h2zm-4.712 3.654v-9.23q0-2.077 1.344-3.598Q7.398 6.883 9.423 6.6V4.27H7.538v-1.5H13q.711 0 1.338.21.627.209 1.181.578l-1.094 1.094a3.7 3.7 0 0 0-.678-.276A2.6 2.6 0 0 0 13 4.27h-2.077V6.6q2.025.283 3.368 1.806 1.343 1.522 1.343 3.598v9.227zm1.5-1.5h7.924v-7.73a3.82 3.82 0 0 0-1.161-2.802 3.82 3.82 0 0 0-2.801-1.16 3.82 3.82 0 0 0-2.8 1.16A3.82 3.82 0 0 0 6.21 12z"/></svg>