<svg xmlns="http://www.w3.org/2000/svg" width="24" height="24" viewBox="0 0 24 24" fill='currentColor'><path d="M5 19V5v5.364-.056zm-1.5 1.5v-17h13.289L20.5 7.212v3.56a5 5 0 0 0-.735-.256 7 7 0 0 0-.765-.152V7.85L16.15 5H5v14h6.81q.126.416.306.785t.409.715zm14.692 1q-1.872 0-3.186-1.314-1.314-1.312-1.314-3.186t1.314-3.187 3.186-1.313q1.874 0 3.187 1.313 1.313 1.314 1.313 3.187t-1.313 3.186-3.187 1.314m.443-4.68v-2.762h-.885v3.123l2.108 2.107.623-.622zM6.385 9.883h8.211v-3.5H6.385zm5.156 7.302a5 5 0 0 1-.031-.538q.037-1.11.447-2.143a6.1 6.1 0 0 1 1.156-1.865 1.7 1.7 0 0 0-.53-.276 2 2 0 0 0-.612-.095q-1.03 0-1.75.726A2.4 2.4 0 0 0 9.5 14.75q0 .898.582 1.565.582.668 1.458.871"/></svg>