<svg xmlns="http://www.w3.org/2000/svg" width="24" height="24" viewBox="0 0 24 24" fill='currentColor'><path d="M16 10.885a.85.85 0 0 0 .626-.259.85.85 0 0 0 .258-.626.85.85 0 0 0-.258-.626.85.85 0 0 0-.626-.258.85.85 0 0 0-.626.258.85.85 0 0 0-.258.626q0 .368.258.626a.85.85 0 0 0 .626.258M8 8.75h5v-1.5H8zM4.875 20.5q-.792-2.735-1.583-5.442A19.7 19.7 0 0 1 2.5 9.5q0-2.088 1.456-3.544T7.5 4.5h5.25a5.5 5.5 0 0 1 1.647-1.451A4.16 4.16 0 0 1 16.5 2.5q.413 0 .707.293a.96.96 0 0 1 .293.707q0 .102-.028.204a3 3 0 0 1-.059.188q-.138.362-.235.74-.097.38-.166.766L19.613 8H21.5v6.11l-2.729.896-1.646 5.494H12.5v-2h-3v2zM6 19h2v-2h6v2h2l1.55-5.15 2.45-.825V9.5h-1L15.5 6q0-.5.063-.963a6 6 0 0 1 .206-.928 3 3 0 0 0-1.265.698q-.54.497-.829 1.193H7.5Q6.05 6 5.025 7.025A3.37 3.37 0 0 0 4 9.5q0 2.45.675 4.788T6 19"/></svg>