<svg xmlns="http://www.w3.org/2000/svg" width="24" height="24" viewBox="0 0 24 24" fill='currentColor'><path d="M8.95 11.579 6.736 9.4l.839-.838 1.35 1.35 2.5-2.49.838.828zm10.592 8.998-6.28-6.281q-.75.62-1.726.97-.975.35-2.017.35-2.561 0-4.338-1.777T3.404 9.5t1.777-4.338 4.338-1.777 4.339 1.777T15.634 9.5q0 1.071-.359 2.046a5.7 5.7 0 0 1-.96 1.696l6.281 6.281zM9.52 14.115q1.933 0 3.274-1.341 1.342-1.34 1.342-3.274 0-1.932-1.342-3.274-1.34-1.341-3.274-1.341-1.932 0-3.274 1.341Q4.904 7.568 4.904 9.5q0 1.933 1.341 3.274 1.342 1.342 3.274 1.342"/></svg>