<svg xmlns="http://www.w3.org/2000/svg" width="24" height="24" viewBox="0 0 24 24" fill='currentColor'><path d="m13.842 12.04-1.256-.782.239-.42q.131-.244.196-.496.066-.252.065-.527 0-.389-.132-.752a2 2 0 0 0-.393-.652 3.9 3.9 0 0 1-.713-1.154 3.6 3.6 0 0 1-.256-1.332q0-.49.134-.941a3.7 3.7 0 0 1 .385-.87l.239-.385 1.271.782-.263.41q-.141.234-.216.491t-.075.532q0 .388.152.747.153.36.412.647.467.496.704 1.131.236.634.236 1.317 0 .498-.121.956-.12.457-.354.885zm-4.046 0-1.255-.782.238-.42q.13-.244.196-.496t.066-.527q0-.389-.133-.752a2 2 0 0 0-.393-.652 3.9 3.9 0 0 1-.713-1.154 3.6 3.6 0 0 1-.256-1.332q0-.49.134-.941.134-.454.386-.87l.238-.385 1.271.782-.263.41a2 2 0 0 0-.216.487q-.075.251-.075.526 0 .39.147.752.147.364.407.652.468.496.709 1.131.24.634.241 1.317 0 .498-.121.956-.12.457-.354.885zm-4.046 0-1.256-.782.254-.42a2.1 2.1 0 0 0 .256-1.032q0-.39-.13-.747a2 2 0 0 0-.39-.648 3.7 3.7 0 0 1-.725-1.145A3.5 3.5 0 0 1 3.5 5.934q0-.487.126-.946t.393-.875l.254-.384 1.256.782-.263.41a1.9 1.9 0 0 0-.29 1.013q-.001.39.146.752.147.364.407.652.467.496.716 1.131.25.634.25 1.317 0 .498-.13.956-.129.457-.361.885zm1.667 8.46v-.75q0-.71.498-1.21.499-.502 1.224-.502h5.33q.458 0 .87.171.413.171.761.437v-1.235q0-1.663.46-3.252.462-1.588 1.148-3.106l.446-.992q.294-.663.205-1.369a2.1 2.1 0 0 0-.594-1.225 1.12 1.12 0 0 1-.323-.792q0-.47.336-.813t.805-.343q.413 0 .776.22.361.218.549.601.295.577.444 1.2.148.622.148 1.273 0 .372-.045.73-.046.359-.16.715L17.653 20.5z"/></svg>