<svg xmlns="http://www.w3.org/2000/svg" width="24" height="24" viewBox="0 0 24 24" fill='currentColor'><path d="M7.855 13.942q-.653 0-1.005-.417t-.352-.892q0-.366.148-.668.149-.3.473-.523.24-.156.422-.405t.29-.747l-.15-.091a1 1 0 0 1-.137-.105 62 62 0 0 1-1.192.463 2.2 2.2 0 0 1-.76.126q-.834 0-1.463-.73-.63-.728-.629-2.098 0-.653.417-1.005.418-.352.894-.352.367 0 .66.156.292.156.514.48.156.24.414.422.258.183.753.29l.092-.155a.7.7 0 0 1 .104-.137 50 50 0 0 1-.462-1.199 2.2 2.2 0 0 1-.127-.763q0-.834.72-1.463T9.57 3.5q.654 0 1.014.417.36.418.36.892 0 .366-.156.668a1.4 1.4 0 0 1-.482.523q-.238.156-.42.405-.184.249-.291.747l.15.092a1 1 0 0 1 .137.104q.849-.336 1.2-.462a2.3 2.3 0 0 1 .767-.127q.834 0 1.463.73.63.728.63 2.099 0 .653-.418 1.004-.417.352-.892.352-.366 0-.668-.15-.3-.152-.523-.477a1.7 1.7 0 0 0-.405-.425q-.249-.186-.747-.296l-.098.159a.8.8 0 0 1-.113.143l.47 1.192q.134.343.134.76 0 .834-.73 1.463-.728.63-2.098.63m.866-4.346q.367 0 .617-.252a.85.85 0 0 0 .248-.623.84.84 0 0 0-.248-.617.84.84 0 0 0-.616-.248.84.84 0 0 0-.617.248.84.84 0 0 0-.25.617q0 .367.25.621.247.255.616.254M7.417 20.5v-.75q0-.706.504-1.209a1.68 1.68 0 0 1 1.233-.503h5.315q.454 0 .877.171.42.172.77.437v-1.235q0-1.66.452-3.25a22.5 22.5 0 0 1 1.14-3.107l.461-.992q.294-.665.197-1.37a2.14 2.14 0 0 0-.6-1.225 1.13 1.13 0 0 1-.323-.797q0-.465.337-.808t.807-.343q.41 0 .772.22.361.219.549.601.295.579.444 1.202.148.624.148 1.271 0 .37-.045.73t-.164.715L17.654 20.5z"/></svg>