<svg xmlns="http://www.w3.org/2000/svg" width="24" height="24" viewBox="0 0 24 24" fill='currentColor'><path d="M14.039 20.11v-1.55q2.163-.69 3.485-2.5 1.322-1.812 1.322-4.085t-1.322-4.084-3.485-2.5V3.84q2.792.747 4.55 2.997 1.757 2.25 1.757 5.137t-1.758 5.137-4.55 2.998m-2.385-1.322L7.366 14.5H3.653v-5h3.712l4.288-4.288zm2.385-3.134V8.296a3.85 3.85 0 0 1 1.563 1.55q.552.997.552 2.154a4.23 4.23 0 0 1-.557 2.122 3.93 3.93 0 0 1-1.558 1.532m-3.885-.504v-6.3L8.004 11h-2.85v2h2.85zM1.5 7V1.5H7V3H3v4zM17 22.5V21h4v-4h1.5v5.5z"/></svg>