<svg xmlns="http://www.w3.org/2000/svg" width="24" height="24" viewBox="0 0 24 24" fill='currentColor'><path d="M6.8 19.654q-.654 0-1.102-.429a1.44 1.44 0 0 1-.448-1.083q0-.458.261-.833.262-.375.685-.547l4.054-1.608v-3q-1.57 1.845-3.21 2.696-1.638.852-3.713.958v-1.51a6.8 6.8 0 0 0 2.977-.757q1.363-.71 2.488-2.01l1.35-1.58a1.78 1.78 0 0 1 1.358-.624h1a1.77 1.77 0 0 1 1.358.623l1.35 1.58q1.125 1.302 2.488 2.01a6.8 6.8 0 0 0 2.977.758v1.51q-2.075-.105-3.713-.958-1.64-.852-3.21-2.696v3l4.054 1.608q.423.17.684.547.262.375.262.833 0 .654-.448 1.083a1.53 1.53 0 0 1-1.102.429H10v-.327q0-.62.382-1.003.381-.381 1.002-.382H14.5a.5.5 0 0 0 .363-.137.5.5 0 0 0 .137-.363.5.5 0 0 0-.137-.362.5.5 0 0 0-.363-.138h-3.116q-1.02 0-1.702.682T9 19.327v.327zM12 8.134a1.78 1.78 0 0 1-1.307-.539 1.78 1.78 0 0 1-.54-1.306q0-.768.54-1.307.54-.54 1.307-.54t1.307.54.54 1.307-.54 1.306q-.54.54-1.307.54"/></svg>