<svg xmlns="http://www.w3.org/2000/svg" width="24" height="24" viewBox="0 0 24 24" fill='currentColor'><path d="M13.25 21.596v-3.692L17.173 17l-3.923-.904v-3.692L22.442 17zM3.5 20.5v-5.377a2.95 2.95 0 0 0 1.763-.854A2.4 2.4 0 0 0 6 12.5q0-1.04-.737-1.768A2.95 2.95 0 0 0 3.5 9.877V4.5H9q.135-.954.835-1.573a2.43 2.43 0 0 1 1.665-.62 2.43 2.43 0 0 1 1.665.62q.7.62.835 1.573h5.5v8.788l-1.5-.75V6h-5.442V4.77q-.058-.46-.371-.711a1.07 1.07 0 0 0-.687-.251q-.373 0-.687.25-.313.252-.37.711V6H5v2.74a3.95 3.95 0 0 1 1.82 1.496A4 4 0 0 1 7.5 12.5q0 1.223-.68 2.249A4.05 4.05 0 0 1 5 16.26V19h2.712q.396-1.02 1.392-1.722a4 4 0 0 1 2.242-.738v1.5q-.981.075-1.653.707-.672.631-.816 1.753z"/></svg>