<svg xmlns="http://www.w3.org/2000/svg" width="24" height="24" viewBox="0 0 24 24" fill='currentColor'><path d="M4.114 17.296a9.8 9.8 0 0 1-1.188-2.482A9.2 9.2 0 0 1 2.5 12q0-1.489.426-2.821a9.8 9.8 0 0 1 1.188-2.475l1.252.821A7.9 7.9 0 0 0 4 12a7.84 7.84 0 0 0 1.365 4.46zm7.886.512q-2.414 0-4.11-1.697Q6.192 14.413 6.192 12q0-2.415 1.697-4.111Q9.588 6.192 12 6.192q2.414 0 4.11 1.698 1.698 1.697 1.698 4.11 0 2.415-1.698 4.11-1.696 1.698-4.11 1.698m0-1.5q1.785 0 3.046-1.262 1.262-1.26 1.262-3.046t-1.262-3.046Q13.786 7.692 12 7.692T8.954 8.954Q7.692 10.214 7.692 12t1.262 3.046q1.26 1.262 3.046 1.262m7.861.988-1.236-.836a8 8 0 0 0 1.012-2.08A7.7 7.7 0 0 0 20 12q0-1.25-.363-2.387a8 8 0 0 0-1.012-2.088l1.236-.821a9.8 9.8 0 0 1 1.205 2.475Q21.5 10.512 21.5 12q0 1.473-.434 2.814a9.8 9.8 0 0 1-1.204 2.482"/></svg>