<svg xmlns="http://www.w3.org/2000/svg" width="24" height="24" viewBox="0 0 24 24" fill='currentColor'><path d="M8.548 11.846q.954 0 1.606-.68a3.9 3.9 0 0 0 .927-1.626l-1.152-.282a2.7 2.7 0 0 1-.495.973 1.09 1.09 0 0 1-.886.423q-.544 0-.886-.423a2.7 2.7 0 0 1-.495-.973l-1.151.283q.275.943.926 1.624.652.681 1.606.681m3.455 5.5q.915 0 1.756-.399.843-.4 1.57-1.187l-.87-.799q-.559.571-1.184.87a2.9 2.9 0 0 1-1.275.298q-.65 0-1.275-.298a4.2 4.2 0 0 1-1.184-.87l-.87.798q.752.799 1.585 1.193a4 4 0 0 0 1.747.394m3.449-5.5q.954 0 1.606-.68a3.9 3.9 0 0 0 .927-1.626l-1.152-.282a2.7 2.7 0 0 1-.495.973 1.09 1.09 0 0 1-.886.423q-.544 0-.886-.423a2.7 2.7 0 0 1-.495-.973l-1.152.283a3.9 3.9 0 0 0 .927 1.624q.652.681 1.606.681m-3.45 9.654a9.3 9.3 0 0 1-3.706-.748 9.6 9.6 0 0 1-3.016-2.03 9.6 9.6 0 0 1-2.032-3.016 9.25 9.25 0 0 1-.748-3.704q0-1.972.748-3.706a9.6 9.6 0 0 1 2.03-3.016 9.6 9.6 0 0 1 3.016-2.032 9.25 9.25 0 0 1 3.704-.748q1.972 0 3.706.748a9.6 9.6 0 0 1 3.017 2.03 9.6 9.6 0 0 1 2.03 3.016 9.25 9.25 0 0 1 .749 3.704q0 1.972-.748 3.706a9.6 9.6 0 0 1-2.03 3.017 9.6 9.6 0 0 1-3.016 2.03 9.25 9.25 0 0 1-3.704.749M12 20q3.35 0 5.675-2.325T20 12t-2.325-5.675T12 4 6.325 6.325 4 12t2.325 5.675T12 20"/></svg>