<svg xmlns="http://www.w3.org/2000/svg" width="24" height="24" viewBox="0 0 24 24" fill='currentColor'><path d="M12 21.48q-3.244-.885-5.372-3.819T4.5 11.1V5.346L12 2.538l7.5 2.808V11.1a8 8 0 0 1-.03.711 4.4 4.4 0 0 0-1.173-.065q-.156.015-.328.046A9 9 0 0 0 18 11.1V6.375l-6-2.24-6 2.24V11.1q0 3.024 1.7 5.5t4.3 3.3q.425-.137.831-.335.405-.196.794-.444v1.744A6.8 6.8 0 0 1 12 21.48m3.74.02v-4.77h1v-1q0-.787.55-1.335a1.82 1.82 0 0 1 1.335-.55q.787 0 1.335.55.55.549.55 1.335v1h.99v4.77zm1.885-4.77h2v-1a.97.97 0 0 0-.288-.712.97.97 0 0 0-.712-.288.97.97 0 0 0-.712.288.97.97 0 0 0-.288.712z"/></svg>