<svg xmlns="http://www.w3.org/2000/svg" width="24" height="24" viewBox="0 0 24 24" fill='currentColor'><path d="m1.5 17.692.375-1.5h4.99l-.375 1.5zm2-3.884.375-1.5h5.99l-.374 1.5zm15.056 6.201.5-4.018.715-5.905.26-2.07zM4.51 21.5l.182-1.5h13.864L20.03 8.016h-3L16.656 11h-1.5l.36-2.985H11.03L10.656 11H9.14l.36-2.985H6.087L6.269 6.5h3.414l.028-.25q.2-1.77 1.226-2.76 1.024-.99 2.794-.99 1.533 0 2.528 1.149.994 1.149.912 2.697l-.019.154h4.53l-1.855 15zm6.673-15h4.484l.02-.154a2.14 2.14 0 0 0-.572-1.648A2.05 2.05 0 0 0 13.539 4q-1.03 0-1.619.595-.59.596-.709 1.655z"/></svg>