<svg xmlns="http://www.w3.org/2000/svg" width="24" height="24" viewBox="0 0 24 24" fill='currentColor'><path d="M12 21.5q-1.048 0-1.828-.218-.78-.219-1.753-.83l-2.725-1.74a2.35 2.35 0 0 1-.902-1.01 3 3 0 0 1-.292-1.275q0-1.475 1.041-2.249 1.042-.774 2.259-.774.638 0 1.244.204t1.079.62q.24.232.527.364.287.133.6.198v-2.28a16 16 0 0 1-2.36-.276q-1.105-.22-1.925-.595-.819-.375-1.296-.902a1.75 1.75 0 0 1-.477-1.212q0-.5.35-.933.351-.433.975-.808a2 2 0 0 1-.237-.492 1.8 1.8 0 0 1-.088-.567q0-.534.413-1.017t1.137-.858a.6.6 0 0 1-.05-.225V4.4q0-.65.688-1.138t1.812-.762v1.208q-.62.182-.91.391t-.367.362q.078.414.784.615t1.551.266V2h1.5v3.342a7.2 7.2 0 0 0 1.575-.256q.682-.2.76-.625-.077-.138-.36-.342t-.892-.386V2.5q1.125.275 1.8.775t.675 1.125q0 .02-.05.45.724.375 1.137.85t.413 1.025a1.86 1.86 0 0 1-.316 1.05q.625.374.97.813.346.437.346.937 0 .684-.477 1.211t-1.296.902-1.924.596-2.361.275v2.281q.313-.065.6-.198t.527-.363a3.1 3.1 0 0 1 1.079-.621 3.9 3.9 0 0 1 1.244-.204q1.217 0 2.259.787 1.041.786 1.041 2.261 0 .65-.292 1.271a2.35 2.35 0 0 1-.902 1.004l-2.725 1.725q-.973.612-1.753.83T12 21.5m0-1.5q.8 0 1.412-.175.613-.175 1.363-.65L17.5 17.45a.92.92 0 0 0 .375-.436q.125-.287.125-.562 0-.725-.575-1.137a2.07 2.07 0 0 0-1.225-.411q-.375 0-.725.112a1.9 1.9 0 0 0-.625.338q-.6.524-1.325.812a4.1 4.1 0 0 1-1.525.288 4.1 4.1 0 0 1-1.525-.288 4.5 4.5 0 0 1-1.325-.812 1.9 1.9 0 0 0-.625-.338 2.4 2.4 0 0 0-.725-.112 2.1 2.1 0 0 0-1.225.399Q6 15.702 6 16.427q0 .275.125.574.125.3.375.449l2.725 1.75q.75.476 1.363.637Q11.2 20 12 20m-.75-8.683V9.51a12.4 12.4 0 0 1-2.088-.263q-.978-.213-1.656-.629-.604.29-.847.544-.244.256-.274.395.03.534 1.28 1.1 1.248.565 3.585.661m-3 6.145a.72.72 0 0 0 .525-.226.72.72 0 0 0 .225-.524.72.72 0 0 0-.225-.526.72.72 0 0 0-.525-.225.72.72 0 0 0-.525.225.72.72 0 0 0-.225.526q0 .3.225.524a.72.72 0 0 0 .525.226m3-9.145V6.535a8.5 8.5 0 0 1-1.51-.226q-.711-.177-1.17-.511-.614.274-.885.529-.27.255-.3.414.015.618 1.092 1.05 1.077.43 2.773.526m1.5 3q2.337-.096 3.585-.661 1.25-.566 1.28-1.1-.03-.14-.27-.394-.241-.256-.845-.545-.679.406-1.652.624-.973.219-2.098.268zm0-3q1.695-.096 2.773-.527 1.077-.43 1.093-1.05-.031-.142-.279-.398-.246-.255-.89-.544-.46.35-1.171.518a9 9 0 0 1-1.526.219zm3 9.145a.72.72 0 0 0 .525-.226.72.72 0 0 0 .225-.524.72.72 0 0 0-.225-.526.72.72 0 0 0-.525-.225.72.72 0 0 0-.525.225.72.72 0 0 0-.225.526q0 .3.225.524a.72.72 0 0 0 .525.226"/></svg>