<svg xmlns="http://www.w3.org/2000/svg" width="24" height="24" viewBox="0 0 24 24" fill='currentColor'><path d="M11.779 12.846h4.286q.566 0 .957-.39.392-.391.392-.957 0-.564-.392-.97a1.28 1.28 0 0 0-.957-.404h-.3l-.038-.24a2 2 0 0 0-.66-1.232q-.556-.5-1.318-.5-.6 0-1.078.314-.477.315-.732.84l-.078.154-.182.01a1.7 1.7 0 0 0-1.133.525q-.46.476-.46 1.158t.49 1.187a1.6 1.6 0 0 0 1.203.505M1.5 20.384V7.038H3v11.846h16.52v1.5zm3.5-3.5V2.5h7l1.615 1.616H22.5v12.769zm1.5-1.5H21V5.616h-8.008L11.377 4H6.5z"/></svg>