<svg xmlns="http://www.w3.org/2000/svg" width="24" height="24" viewBox="0 0 24 24" fill='currentColor'><path d="m19.992 22.254-6.561-6.561H2.558v-2.385h8.488L1.938 4.2l1.054-1.053L21.046 21.2zm-1.45-6.561-.523-.523v-1.862h1.193v2.385zm1.67 0v-2.385h1.192v2.385zm-3.193-1.37-1.015-1.015h1.015zm1-2.207v-1.3q0-.937-.575-1.478a1.94 1.94 0 0 0-1.375-.541h-1.55a2.92 2.92 0 0 1-2.153-.897q-.89-.897-.889-2.184 0-1.256.889-2.13.888-.874 2.153-.874v1.192q-.75 0-1.3.514-.55.513-.55 1.296t.55 1.336q.55.555 1.3.554h1.55q1.285 0 2.214.867.928.865.928 2.13v1.515zm2.193 0v-2.25q0-1.65-1.15-2.773t-2.85-1.123V4.777q.75 0 1.29-.54t.54-1.29h1.192q0 .725-.284 1.278-.285.555-.735.966 1.353.537 2.27 1.77.92 1.236.919 2.905v2.25z"/></svg>