<svg xmlns="http://www.w3.org/2000/svg" width="24" height="24" viewBox="0 0 24 24" fill='currentColor'><path d="M5 18.865a.84.84 0 0 1-.616-.248.84.84 0 0 1-.25-.617q0-.367.25-.616a.84.84 0 0 1 .616-.25q.367 0 .616.25a.84.84 0 0 1 .25.616q0 .367-.25.616a.84.84 0 0 1-.616.25m4.5 0a.84.84 0 0 1-.616-.248.84.84 0 0 1-.25-.617q0-.367.25-.616a.84.84 0 0 1 .616-.25q.367 0 .616.25a.84.84 0 0 1 .25.616q0 .367-.25.616a.84.84 0 0 1-.616.25m4.5 0a.84.84 0 0 1-.616-.248.84.84 0 0 1-.25-.617q0-.367.25-.616a.84.84 0 0 1 .616-.25q.367 0 .616.25a.84.84 0 0 1 .25.616q0 .367-.25.616a.84.84 0 0 1-.616.25m4.5 0a.84.84 0 0 1-.616-.248.84.84 0 0 1-.25-.617q0-.367.25-.616a.84.84 0 0 1 .616-.25q.367 0 .616.25a.84.84 0 0 1 .25.616q0 .367-.25.616a.84.84 0 0 1-.616.25m-15.5-4a.84.84 0 0 1-.616-.248.84.84 0 0 1-.25-.617q0-.367.25-.616a.84.84 0 0 1 .616-.25q.367 0 .616.25a.84.84 0 0 1 .25.616q0 .367-.25.616a.84.84 0 0 1-.616.25m4.5 0a.84.84 0 0 1-.616-.248.84.84 0 0 1-.25-.617q0-.367.25-.616a.84.84 0 0 1 .616-.25q.367 0 .616.25a.84.84 0 0 1 .25.616q0 .367-.25.616a.84.84 0 0 1-.616.25m4.5 0a.84.84 0 0 1-.616-.248.84.84 0 0 1-.25-.617q0-.367.25-.616a.84.84 0 0 1 .616-.25q.367 0 .616.25a.84.84 0 0 1 .25.616q0 .367-.25.616a.84.84 0 0 1-.616.25m4.5 0a.84.84 0 0 1-.616-.248.84.84 0 0 1-.25-.617q0-.367.25-.616a.84.84 0 0 1 .616-.25q.367 0 .616.25a.84.84 0 0 1 .25.616q0 .367-.25.616a.84.84 0 0 1-.616.25m4.5 0a.84.84 0 0 1-.616-.248.84.84 0 0 1-.25-.617q0-.367.25-.616a.84.84 0 0 1 .616-.25q.367 0 .616.25a.84.84 0 0 1 .25.616q0 .367-.25.616a.84.84 0 0 1-.616.25m-16-4a.84.84 0 0 1-.616-.248.84.84 0 0 1-.25-.617q0-.367.25-.616A.84.84 0 0 1 5 9.134q.367 0 .616.25a.84.84 0 0 1 .25.616q0 .367-.25.616a.84.84 0 0 1-.616.25m4.5 0a.84.84 0 0 1-.616-.248.84.84 0 0 1-.25-.617q0-.367.25-.616a.84.84 0 0 1 .616-.25q.367 0 .616.25a.84.84 0 0 1 .25.616q0 .367-.25.616a.84.84 0 0 1-.616.25m4.5 0a.84.84 0 0 1-.616-.248.84.84 0 0 1-.25-.617q0-.367.25-.616a.84.84 0 0 1 .616-.25q.367 0 .616.25a.84.84 0 0 1 .25.616q0 .367-.25.616a.84.84 0 0 1-.616.25m4.5 0a.84.84 0 0 1-.616-.248.84.84 0 0 1-.25-.617q0-.367.25-.616a.84.84 0 0 1 .616-.25q.367 0 .616.25a.84.84 0 0 1 .25.616q0 .367-.25.616a.84.84 0 0 1-.616.25m-15.5-4a.84.84 0 0 1-.616-.248.84.84 0 0 1-.25-.617q0-.367.25-.616A.84.84 0 0 1 3 5.134q.367 0 .616.25a.84.84 0 0 1 .25.616q0 .367-.25.616a.84.84 0 0 1-.616.25m4.5 0a.84.84 0 0 1-.616-.248.84.84 0 0 1-.25-.617q0-.367.25-.616a.84.84 0 0 1 .616-.25q.367 0 .616.25a.84.84 0 0 1 .25.616q0 .367-.25.616a.84.84 0 0 1-.616.25m4.5 0a.84.84 0 0 1-.616-.248.84.84 0 0 1-.25-.617q0-.367.25-.616a.84.84 0 0 1 .616-.25q.367 0 .616.25a.84.84 0 0 1 .25.616q0 .367-.25.616a.84.84 0 0 1-.616.25m4.5 0a.84.84 0 0 1-.616-.248.84.84 0 0 1-.25-.617q0-.367.25-.616a.84.84 0 0 1 .616-.25q.367 0 .616.25a.84.84 0 0 1 .25.616q0 .367-.25.616a.84.84 0 0 1-.616.25m4.5 0a.84.84 0 0 1-.616-.248.84.84 0 0 1-.25-.617q0-.367.25-.616a.84.84 0 0 1 .616-.25q.367 0 .616.25a.84.84 0 0 1 .25.616q0 .367-.25.616a.84.84 0 0 1-.616.25"/></svg>