<svg xmlns="http://www.w3.org/2000/svg" width="24" height="24" viewBox="0 0 24 24" fill='currentColor'><path d="M4.59 17.96a9.7 9.7 0 0 1-1.536-2.75A9.3 9.3 0 0 1 2.5 12q0-3.705 2.443-6.39T11 2.55v1.5q-2.991.36-4.995 2.61T4 12q0 1.4.425 2.637T5.65 16.9zM12 21.5a9.4 9.4 0 0 1-3.253-.562 9.5 9.5 0 0 1-2.766-1.569l1.054-1.07a8.1 8.1 0 0 0 2.282 1.25Q10.575 20 12 20q1.425.001 2.683-.454a8.4 8.4 0 0 0 2.292-1.255l1.054 1.07a9.6 9.6 0 0 1-2.767 1.573A9.3 9.3 0 0 1 12 21.5m7.42-3.55-1.07-1.07a8 8 0 0 0 1.22-2.257Q20 13.39 20 12q0-3.09-2-5.33-2-2.243-4.98-2.61v-1.5q3.603.384 6.041 3.06T21.5 12q0 1.694-.549 3.206a9.7 9.7 0 0 1-1.532 2.744m-9.67-1.912V7.961L16.038 12z"/></svg>