<svg xmlns="http://www.w3.org/2000/svg" width="24" height="24" viewBox="0 0 24 24" fill='currentColor'><path d="M5.321 13.346a1.9 1.9 0 0 0 .252-.584q.08-.324.08-.762 0-.797-.5-1.857-.5-1.058-.5-1.768 0-.261.059-.558.057-.295.275-.663h1.192a2.2 2.2 0 0 0-.275.659 3 3 0 0 0-.058.562q0 .652.5 1.725t.5 1.9q0 .449-.085.761-.086.314-.248.585zm6.5 0q.171-.259.252-.584t.08-.762q0-.797-.5-1.857-.5-1.058-.5-1.768 0-.261.058-.558a2.2 2.2 0 0 1 .275-.663h1.193a2.2 2.2 0 0 0-.275.659 3 3 0 0 0-.058.562q0 .652.5 1.725t.5 1.9q0 .449-.085.761-.086.314-.247.585zm-3.25 0a1.9 1.9 0 0 0 .252-.584q.08-.324.08-.762 0-.797-.5-1.857-.5-1.058-.5-1.768 0-.261.059-.558.058-.295.274-.663H9.43a2.2 2.2 0 0 0-.275.659 3 3 0 0 0-.058.562q0 .652.5 1.725t.5 1.9q0 .449-.085.761-.086.314-.247.585zM9.75 21.75q-2.43 0-4.277-1.63-1.848-1.63-2.223-4.024a.68.68 0 0 1 .17-.595.75.75 0 0 1 .58-.251h10.746l1.129-10.571a2.67 2.67 0 0 1 .886-1.729 2.64 2.64 0 0 1 1.839-.7 2.65 2.65 0 0 1 1.947.803q.803.803.803 1.947 0 .264-.043.704l-.053.517-1.485-.192q.01-.068.046-.455T19.85 5q0-.522-.365-.886a1.2 1.2 0 0 0-.885-.364q-.496 0-.848.325a1.23 1.23 0 0 0-.402.796L16.2 15.746q-.266 2.554-2.093 4.279-1.828 1.725-4.357 1.725m0-1.5q1.648 0 2.905-.965 1.257-.964 1.81-2.535H4.95q.603 1.571 1.878 2.535t2.922.965"/></svg>