<svg xmlns="http://www.w3.org/2000/svg" width="24" height="24" viewBox="0 0 24 24" fill='currentColor'><path d="M9.5 17.5H19V3H9.5zM8 19V1.5h12.5V19zm6.251-11.596q.586 0 .994-.41.41-.41.409-.995 0-.586-.41-.994a1.36 1.36 0 0 0-.995-.409q-.586 0-.994.41a1.36 1.36 0 0 0-.409.995q0 .586.41.994.41.41.995.409m-.001 8.635q1.353 0 2.302-.949.948-.948.948-2.301t-.948-2.302-2.302-.948-2.302.947Q11 11.436 11 12.79t.948 2.302 2.302.947m0-1.5q-.721 0-1.235-.515a1.68 1.68 0 0 1-.515-1.235q0-.722.515-1.236a1.68 1.68 0 0 1 1.235-.514q.72 0 1.236.514.514.515.514 1.236 0 .72-.514 1.235a1.68 1.68 0 0 1-1.236.515M15.5 22.5h-11v-17H6V21h9.5z"/></svg>