<svg xmlns="http://www.w3.org/2000/svg" width="24" height="24" viewBox="0 0 24 24" fill='currentColor'><path d="M11.404 19.5v-5.692h4.192V19.5zm1.192-1.192h1.808V15h-1.808zm4.5 3.538v-3.442h3.02v-1.058h-3.02v-1.192h4.212v3.442h-3.02v1.058h3.02v1.192zm-7.885-.386q-2.94-.283-4.825-2.44Q2.499 16.862 2.5 13.8q0-2.326 1.862-5.1Q6.226 5.924 10 2.653q2.906 2.502 4.68 4.752t2.407 4.21H15.52q-.607-1.507-1.99-3.257Q12.152 6.61 10 4.65 7.024 7.375 5.513 9.675 4 11.976 4 13.8q0 2.458 1.45 4.16t3.761 1.985z"/></svg>