<svg xmlns="http://www.w3.org/2000/svg" width="24" height="24" viewBox="0 0 24 24" fill='currentColor'><path d="M12.002 15.5q-2.716 0-4.609-1.892Q5.5 11.718 5.5 9.003t1.891-4.609Q9.284 2.5 11.999 2.5t4.609 1.891T18.5 8.999t-1.892 4.609q-1.89 1.893-4.606 1.893M12 14q2.075 0 3.537-1.463Q17 11.075 17 9t-1.463-3.537Q14.075 4 12 4T8.463 5.463Q7 6.925 7 9t1.463 3.537T12 14m-2-5q.424 0 .713-.287A.97.97 0 0 0 11 8a.97.97 0 0 0-.287-.713A.97.97 0 0 0 10 7a.97.97 0 0 0-.713.287A.97.97 0 0 0 9 8q0 .424.287.713Q9.576 9 10 9m4 0q.424 0 .713-.287A.97.97 0 0 0 15 8a.97.97 0 0 0-.287-.713A.97.97 0 0 0 14 7a.97.97 0 0 0-.713.287A.97.97 0 0 0 13 8q0 .424.287.713Q13.576 9 14 9m-2-2q.424 0 .713-.287A.97.97 0 0 0 13 6a.97.97 0 0 0-.287-.713A.97.97 0 0 0 12 5a.97.97 0 0 0-.713.287A.97.97 0 0 0 11 6q0 .424.287.713Q11.576 7 12 7m-.75 14.442v-1q0-.94-.655-1.595A2.17 2.17 0 0 0 9 18.192H7.385v-1.5h9.23v1.5H15a2.17 2.17 0 0 0-1.595.655 2.17 2.17 0 0 0-.655 1.595v1z"/></svg>