<svg xmlns="http://www.w3.org/2000/svg" width="24" height="24" viewBox="0 0 24 24" fill='currentColor'><path d="M10.51 18.443q-2.26 0-3.851-1.592-1.592-1.59-1.592-3.85 0-.311.04-.621t.099-.557a.9.9 0 0 1-.262.066 3 3 0 0 1-.256.015q-.93 0-1.564-.636a2.12 2.12 0 0 1-.633-1.556q0-.921.605-1.557.606-.636 1.531-.635.758 0 1.348.433.591.434.789 1.101A5.5 5.5 0 0 1 8.473 7.96a5.3 5.3 0 0 1 2.036-.402h11v3h-5.557V13q0 2.268-1.588 3.855-1.587 1.587-3.855 1.587m-5.827-7.731q.424 0 .712-.288a.97.97 0 0 0 .288-.712.97.97 0 0 0-.288-.713.97.97 0 0 0-.712-.287.97.97 0 0 0-.713.287.97.97 0 0 0-.287.713q0 .424.287.712.288.288.713.288m5.828 5.923q1.505 0 2.57-1.065a3.5 3.5 0 0 0 1.063-2.571 3.5 3.5 0 0 0-1.065-2.57 3.5 3.5 0 0 0-2.57-1.063q-1.507 0-2.57 1.065A3.5 3.5 0 0 0 6.875 13a3.5 3.5 0 0 0 1.065 2.57 3.5 3.5 0 0 0 2.571 1.064m0-1.827q.747 0 1.277-.531.53-.532.53-1.278t-.532-1.277a1.75 1.75 0 0 0-1.278-.53q-.747 0-1.276.532-.53.531-.53 1.278 0 .746.532 1.276.531.53 1.277.53"/></svg>