<svg xmlns="http://www.w3.org/2000/svg" width="24" height="24" viewBox="0 0 24 24" fill='currentColor'><path d="M1.377 21.654.323 20.6l3.593-3.592-1.535-4.115L6.5 8.773q.261-.261.564-.392.3-.13.678-.13.377 0 .68.13.3.13.563.392l2.019 1.95q.684.675 1.63 1.068.946.392 2.043.44v1.5a7.8 7.8 0 0 1-2.579-.518 5.95 5.95 0 0 1-2.048-1.305l-.873-.854-2.696 2.696 2.196 2.246v5.754h-1.5v-5.115l-1.8-1.662v2.681zm13.8.096v-6.634l2.139-2.039-.755-4.154q-.566.69-1.209 1.238-.642.547-1.437.857a3.8 3.8 0 0 1-1.139-.278 2.9 2.9 0 0 1-.93-.603 5.1 5.1 0 0 0 2.113-.864q.968-.672 1.499-1.538l.98-1.6a1.8 1.8 0 0 1 1.036-.807 1.88 1.88 0 0 1 1.307.072l4.896 2.073v4.277h-1.5V8.447l-2.377-.95 2.82 14.253h-1.6l-1.83-7.663-2.513 2.125v5.538zm-4-13.115a1.78 1.78 0 0 1-1.307-.54 1.78 1.78 0 0 1-.54-1.306q0-.768.54-1.307.54-.54 1.307-.54t1.306.54.54 1.307-.54 1.307-1.306.539M16.6 4.597a1.78 1.78 0 0 1-1.307-.54 1.78 1.78 0 0 1-.54-1.307q0-.767.54-1.306.54-.54 1.307-.54t1.307.54.54 1.306q0 .768-.54 1.307-.54.54-1.307.54"/></svg>