<svg xmlns="http://www.w3.org/2000/svg" width="24" height="24" viewBox="0 0 24 24" fill='currentColor'><path d="M14 18q2.5 0 4.25-1.75T20 12q0-2.525-1.837-4.262Q16.325 6 13.75 6a10 10 0 0 0-2.522.314 9.6 9.6 0 0 0-2.305.94l2.73 1.077a3.4 3.4 0 0 1 1.523 1.226q.574.83.574 1.843 0 1.404-.966 2.377a3.17 3.17 0 0 1-2.334.973H4.127q-.08.561-.103 1.271Q4 16.731 4 17.692V18zm-9.62-4.75h6.02q.78 0 1.316-.534.534-.535.534-1.316 0-.552-.306-1.002a1.9 1.9 0 0 0-.848-.679L7.473 8.258a9.6 9.6 0 0 0-1.912 2.249q-.786 1.276-1.18 2.743M14 19.5H2.5v-3.308q0-2.507.858-4.645t2.363-3.7a10.9 10.9 0 0 1 3.57-2.456Q11.353 4.5 13.75 4.5q1.595 0 3.003.587 1.409.586 2.466 1.602a7.5 7.5 0 0 1 1.67 2.378q.61 1.364.611 2.933 0 1.544-.587 2.915a7.5 7.5 0 0 1-1.606 2.392 7.6 7.6 0 0 1-2.387 1.607A7.3 7.3 0 0 1 14 19.5"/></svg>