<svg xmlns="http://www.w3.org/2000/svg" width="24" height="24" viewBox="0 0 24 24" fill='currentColor'><path d="M11.5 17.277 2.039 7.815l3.777-3.777 9.461 9.462zm0-2.108 1.67-1.67L5.8 6.13 4.13 7.8zm7.1 6.485-4.289-4.289 1.054-1.054 4.289 4.289zm-.098-13.02a3.02 3.02 0 0 1-2.217-.917 3.02 3.02 0 0 1-.92-2.216q0-1.298.918-2.217a3.02 3.02 0 0 1 2.215-.919q1.299 0 2.217.918.92.917.92 2.215t-.918 2.217-2.215.92m0-1.5q.681 0 1.157-.477a1.58 1.58 0 0 0 .476-1.159q0-.681-.478-1.157a1.58 1.58 0 0 0-1.158-.476q-.682 0-1.158.477a1.58 1.58 0 0 0-.476 1.159q0 .681.478 1.157a1.58 1.58 0 0 0 1.158.476"/></svg>