<svg xmlns="http://www.w3.org/2000/svg" width="24" height="24" viewBox="0 0 24 24" fill='currentColor'><path d="M3.492 19.654 2.423 18.6l4.302-4.302a3.83 3.83 0 0 0 1.02-1.844q.263-1.09.263-3.338 0-1.391.621-2.734a8.6 8.6 0 0 1 1.763-2.485q2.121-2.122 4.66-2.422t4.179 1.372q1.656 1.66 1.355 4.196t-2.405 4.642q-1.143 1.142-2.48 1.754a6.5 6.5 0 0 1-2.74.611q-2.232 0-3.309.26a3.86 3.86 0 0 0-1.858 1.042zm6.885-8.004q1.175 1.16 3.175.85t3.575-1.884q1.6-1.6 1.908-3.588t-.858-3.112q-1.19-1.181-3.133-.876-1.943.304-3.567 1.9-1.575 1.57-1.918 3.553t.818 3.157m7.7 10.85q-1.445 0-2.472-1.028-1.028-1.028-1.028-2.472t1.028-2.471q1.029-1.029 2.472-1.029t2.472 1.029T21.577 19t-1.028 2.472Q19.52 22.5 18.077 22.5m0-1.5q.825 0 1.412-.587.588-.588.588-1.413t-.588-1.412A1.93 1.93 0 0 0 18.078 17q-.824 0-1.413.588A1.93 1.93 0 0 0 16.078 19q0 .825.587 1.413.588.587 1.413.587"/></svg>