<svg xmlns="http://www.w3.org/2000/svg" width="24" height="24" viewBox="0 0 24 24" fill='currentColor'><path d="m21.66 9.281-1.256-.783.238-.419q.13-.243.197-.496.065-.252.065-.527 0-.389-.125-.752a1.9 1.9 0 0 0-.385-.652 4 4 0 0 1-.721-1.155 3.46 3.46 0 0 1-.13-2.273q.134-.451.386-.87l.238-.384 1.271.782-.263.41a2 2 0 0 0-.208.491 2.09 2.09 0 0 0 .472 1.926q.467.497.716 1.131.249.635.249 1.317 0 .498-.129.956t-.361.885zm-4.047 0-1.255-.783.238-.419q.131-.243.196-.496a2 2 0 0 0 .066-.527q0-.389-.125-.752a1.9 1.9 0 0 0-.385-.652 4 4 0 0 1-.721-1.155 3.46 3.46 0 0 1-.13-2.273q.134-.451.386-.87L16.12.97l1.271.782-.263.41a1.9 1.9 0 0 0-.275 1.013 2.08 2.08 0 0 0 .538 1.404q.468.497.716 1.131.25.635.25 1.317 0 .498-.13.956-.128.458-.36.885zM12.75 19.954q2.88-.263 4.91-2.294 2.03-2.03 2.294-4.91h-4.06l-3.144 3.924zm.833-10.673-1.271-.783.254-.419a2.14 2.14 0 0 0 .261-1.033q0-.387-.133-.747a2 2 0 0 0-.392-.647 3.7 3.7 0 0 1-.726-1.145 3.5 3.5 0 0 1-.259-1.332q0-.487.126-.946.126-.457.393-.875l.255-.384 1.27.782-.263.41a1.9 1.9 0 0 0-.29 1.014 2.1 2.1 0 0 0 .538 1.403q.468.497.716 1.131.25.635.25 1.317 0 .498-.13.956a4.3 4.3 0 0 1-.36.885zm-9.537 3.47q.263 2.878 2.294 4.909 2.03 2.031 4.91 2.294v-3.28L8.106 12.75zm0-1.5H21.47a10 10 0 0 1 .031.75q0 1.969-.749 3.702a9.6 9.6 0 0 1-2.032 3.017 9.6 9.6 0 0 1-3.016 2.032Q13.969 21.5 12 21.5a9.2 9.2 0 0 1-3.703-.75 9.6 9.6 0 0 1-3.016-2.031 9.6 9.6 0 0 1-2.032-3.017A9.2 9.2 0 0 1 2.5 12q0-3.202 1.864-5.676Q6.23 3.853 9.125 2.941v1.602a7.9 7.9 0 0 0-3.476 2.583Q4.263 8.91 4.046 11.251"/></svg>