<svg xmlns="http://www.w3.org/2000/svg" width="24" height="24" viewBox="0 0 24 24" fill='currentColor'><path d="M7.375 21.5v-5.836H5.602q-.876 0-1.489-.617a2.04 2.04 0 0 1-.613-1.495q0-.639.347-1.179.348-.54.92-.802l6.483-2.88v-.949a2.64 2.64 0 0 1-1.402-.952 2.56 2.56 0 0 1-.54-1.598q0-1.122.784-1.907a2.6 2.6 0 0 1 1.903-.785q1.12 0 1.904.789.784.788.784 1.903h-1.52q0-.506-.334-.85A1.1 1.1 0 0 0 12 4q-.507 0-.85.343a1.15 1.15 0 0 0-.342.85q0 .506.342.849.343.342.85.343.319 0 .534.215a.73.73 0 0 1 .216.535V8.69l6.473 2.88q.573.264.925.802t.352 1.175q0 .879-.616 1.497t-1.495.619h-1.764V21.5zm-1.773-7.336h1.773v-.972h9.25v.972h1.764a.58.58 0 0 0 .436-.183.64.64 0 0 0 .175-.46.63.63 0 0 0-.091-.333.6.6 0 0 0-.274-.229L12 10.009 5.375 12.96a.6.6 0 0 0-.279.228.6.6 0 0 0-.096.333.65.65 0 0 0 .17.46.56.56 0 0 0 .432.183M8.875 20h6.25v-5.308h-6.25z"/></svg>