<svg xmlns="http://www.w3.org/2000/svg" width="24" height="24" viewBox="0 0 24 24" fill='currentColor'><path d="M2.5 21.5V8.85q0-1.942 1.028-3.394T6.392 3.26q1.283-.495 2.77-.628A32 32 0 0 1 12 2.5q1.352 0 2.839.133t2.769.628q1.836.743 2.864 2.195Q21.5 6.909 21.5 8.85V21.5zM8.927 20h6.115l-1.5-1.577h-3.115zM7.5 13.116h9V9h-9zm7.79 3.307a.87.87 0 0 0 .644-.26.88.88 0 0 0 .258-.646.87.87 0 0 0-.26-.643.88.88 0 0 0-.645-.258.87.87 0 0 0-.644.26.88.88 0 0 0-.259.645.87.87 0 0 0 .261.643.88.88 0 0 0 .645.259m-6.577 0a.87.87 0 0 0 .644-.26.88.88 0 0 0 .259-.646.87.87 0 0 0-.261-.643.88.88 0 0 0-.645-.258.87.87 0 0 0-.644.26.88.88 0 0 0-.258.645.87.87 0 0 0 .26.643.88.88 0 0 0 .645.259M4 20h3.692v-.5l1.07-1.127q-1.11-.14-1.782-.944T6.308 15.5V9q0-1.69 1.708-2.201 1.71-.51 3.984-.51 2.5 0 4.096.51T17.692 9v6.5q0 1.125-.672 1.924-.672.8-1.781.949l1.069 1.127v.5H20V8.85q0-1.5-.738-2.562-.737-1.063-2.212-1.638a8.8 8.8 0 0 0-2.437-.538A31 31 0 0 0 12 4q-1.274 0-2.613.112a8.8 8.8 0 0 0-2.437.538q-1.474.575-2.213 1.637Q4 7.35 4 8.85z"/></svg>