<svg xmlns="http://www.w3.org/2000/svg" width="24" height="24" viewBox="0 0 24 24" fill='currentColor'><path d="M10.55 19.858q1.116-2.112 2.894-2.86 1.78-.748 3.056-.748.546 0 1.053.085.507.087.993.226a8.6 8.6 0 0 0 1.041-2.073Q20 13.315 20 12q0-3.35-2.325-5.675T12 4 6.325 6.325 4 12q0 1.212.335 2.299.336 1.087.95 2.001a8.6 8.6 0 0 1 4.129-1.05q.713 0 1.378.118.666.119 1.217.286a6 6 0 0 0-.803.537 8 8 0 0 0-.717.638 3.5 3.5 0 0 0-.523-.064q-.279-.015-.552-.015-.83 0-1.646.194a6.4 6.4 0 0 0-1.541.583 7.6 7.6 0 0 0 1.975 1.515 8 8 0 0 0 2.348.816m1.452 1.642a9.3 9.3 0 0 1-3.706-.748 9.6 9.6 0 0 1-3.016-2.03 9.6 9.6 0 0 1-2.032-3.016 9.25 9.25 0 0 1-.748-3.704q0-1.972.748-3.706a9.6 9.6 0 0 1 2.03-3.016 9.6 9.6 0 0 1 3.016-2.032 9.25 9.25 0 0 1 3.704-.748q1.972 0 3.706.748a9.6 9.6 0 0 1 3.017 2.03 9.6 9.6 0 0 1 2.03 3.016 9.25 9.25 0 0 1 .749 3.704q0 1.972-.748 3.706a9.6 9.6 0 0 1-2.03 3.017 9.6 9.6 0 0 1-3.016 2.03 9.25 9.25 0 0 1-3.704.749M9.5 13.25q-1.353 0-2.302-.948Q6.25 11.353 6.25 10t.948-2.302T9.5 6.75t2.302.948q.948.949.948 2.302t-.948 2.302-2.302.948m0-1.5q.72 0 1.236-.514.514-.514.514-1.236 0-.721-.514-1.235A1.68 1.68 0 0 0 9.5 8.25q-.721 0-1.235.515A1.68 1.68 0 0 0 7.75 10q0 .72.515 1.236.513.514 1.235.514m7 2.692a2.36 2.36 0 0 1-1.734-.708A2.36 2.36 0 0 1 14.058 12q0-1.026.708-1.734a2.36 2.36 0 0 1 1.734-.708q1.026 0 1.734.708T18.942 12t-.708 1.734a2.36 2.36 0 0 1-1.734.708"/></svg>