<svg xmlns="http://www.w3.org/2000/svg" width="24" height="24" viewBox="0 0 24 24" fill='currentColor'><path d="M2.5 21.5v-1.183h2.17a13.9 13.9 0 0 1-2.303-3.878 12 12 0 0 1-.828-4.43q0-2.32.827-4.433A14 14 0 0 1 4.67 3.692H2.5V2.5h4.548v4.558H5.866v-2.92A13.4 13.4 0 0 0 3.564 7.8a10.7 10.7 0 0 0-.843 4.21q0 2.2.842 4.197a13.2 13.2 0 0 0 2.302 3.646v-2.9h1.183V21.5zm5.33-4.267.758-1.614 3.218-.302-3.092-8.436 1.413-.527 3.762 10.336-3.125.252 4.617 2.133 6.28-2.288-2.415-6.55 1.404-.527 2.942 7.979-8.298 3.013zm6.534-3.36-1.623-4.47 1.413-.526 1.638 4.47zm2.747-1.006-1.278-3.51 1.403-.526 1.289 3.519z"/></svg>