<svg xmlns="http://www.w3.org/2000/svg" width="24" height="24" viewBox="0 0 24 24" fill='currentColor'><path d="m4.77 15.048-3.28-3.279.83-.838 1.865 1.865q-.189-.771-.283-1.547a13 13 0 0 1-.094-1.557q0-1.963.641-3.801A11.8 11.8 0 0 1 6.298 2.5l.854.854a11 11 0 0 0-1.594 3.004A10.1 10.1 0 0 0 5 9.692q0 .776.094 1.538.095.763.308 1.503l1.817-1.802.829.838zm3.06 2.185.758-1.614 3.218-.302-3.093-8.436 1.414-.527 3.762 10.336-3.125.252 4.617 2.133 6.28-2.288-2.415-6.55 1.404-.527 2.942 7.979-8.298 3.013zm6.534-3.36-1.623-4.47 1.413-.526 1.638 4.47zm2.747-1.006-1.278-3.51 1.403-.526 1.289 3.519z"/></svg>