<svg xmlns="http://www.w3.org/2000/svg" width="24" height="24" viewBox="0 0 24 24" fill='currentColor'><path d="M2.837 18.914v-1.5h1.578a6.6 6.6 0 0 1-2.02-2.392 6.75 6.75 0 0 1-.722-3.07q0-2.493 1.57-4.41Q4.81 5.621 7.26 5.13v1.54a5.2 5.2 0 0 0-2.953 1.92 5.33 5.33 0 0 0-1.134 3.346q0 1.422.688 2.626a5.2 5.2 0 0 0 1.899 1.916V14.49h1.5v4.422zm7.067-.131v-1.531a5.4 5.4 0 0 0 3-1.924 5.24 5.24 0 0 0 1.163-3.351 5.15 5.15 0 0 0-.669-2.578 5.6 5.6 0 0 0-1.83-1.945v1.95h-1.5V4.98h4.422v1.5h-1.694a6.8 6.8 0 0 1 2.036 2.406q.735 1.442.735 3.074 0 2.502-1.593 4.416-1.593 1.913-4.07 2.406m8.788.717V7.358L17.4 8.65l-1.054-1.054L19.442 4.5l3.096 3.096L21.47 8.65l-1.277-1.277V19.5z"/></svg>