<svg xmlns="http://www.w3.org/2000/svg" width="24" height="24" viewBox="0 0 24 24" fill='currentColor'><path d="M12.002 21.5a9.3 9.3 0 0 1-3.706-.748 9.6 9.6 0 0 1-3.016-2.03 9.6 9.6 0 0 1-2.032-3.016 9.25 9.25 0 0 1-.748-3.704q0-1.972.748-3.706a9.6 9.6 0 0 1 2.03-3.016 9.6 9.6 0 0 1 3.016-2.032 9.25 9.25 0 0 1 3.704-.748q1.972 0 3.706.748a9.6 9.6 0 0 1 3.017 2.03 9.6 9.6 0 0 1 2.03 3.016 9.25 9.25 0 0 1 .749 3.704q0 1.972-.748 3.706a9.6 9.6 0 0 1-2.03 3.017 9.6 9.6 0 0 1-3.016 2.03 9.25 9.25 0 0 1-3.704.749M12 20q3.35 0 5.675-2.325T20 12t-2.325-5.675T12 4 6.325 6.325 4 12t2.325 5.675T12 20m.002-2.5q-2.29 0-3.896-1.604T6.5 12.003t1.604-3.896T11.998 6.5t3.896 1.604 1.606 3.894-1.604 3.896-3.893 1.606M12 16q1.65 0 2.825-1.175T16 12t-1.175-2.825T12 8 9.175 9.175 8 12t1.175 2.825T12 16m0-2.5q-.613 0-1.057-.443A1.44 1.44 0 0 1 10.5 12q0-.613.443-1.057A1.44 1.44 0 0 1 12 10.5q.613 0 1.057.443.443.444.443 1.057t-.443 1.057A1.44 1.44 0 0 1 12 13.5"/></svg>