<svg xmlns="http://www.w3.org/2000/svg" width="24" height="24" viewBox="0 0 24 24" fill='currentColor'><path d="M4.25 21.75v-9.093a3.77 3.77 0 0 1-2.059-1.187 3.55 3.55 0 0 1-.912-2.195h1.5q.096.81.727 1.392.63.582 1.469.583H6.25V8.657A3.85 3.85 0 0 1 4.201 7.46q-.817-.91-.922-2.185h1.5q.096.81.727 1.392.63.583 1.469.583h.65L12 1.413l4.375 5.837h.65q.838 0 1.47-.583.63-.583.726-1.392h1.5q-.076 1.265-.898 2.176-.82.91-2.073 1.206v2.593h1.275q.838 0 1.47-.583.63-.583.726-1.392h1.5a3.45 3.45 0 0 1-.893 2.185 3.83 3.83 0 0 1-2.078 1.197v9.093h-6.5v-5h-2.5v5zM9.5 7.25h5L12 3.91zm-1.75 4h8.5v-2.5h-8.5zm-2 9h3.5v-5h5.5v5h3.5v-7.5H5.75z"/></svg>