<svg xmlns="http://www.w3.org/2000/svg" width="24" height="24" viewBox="0 0 24 24" fill='currentColor'><path d="M12 20.5q-1.873 0-3.187-1.314Q7.5 17.874 7.5 16q0-1.142.535-2.113A4.74 4.74 0 0 1 9.5 12.27V6q0-1.048.726-1.774A2.4 2.4 0 0 1 12 3.5q1.048 0 1.774.726T14.5 6v6.27q.93.647 1.46 1.617.531.97.54 2.113-.01 1.873-1.323 3.186Q13.863 20.5 12 20.5m0-1.5q1.25 0 2.125-.875A2.9 2.9 0 0 0 15 16q0-.724-.312-1.35a2.9 2.9 0 0 0-.888-1.05L13 13V6a.97.97 0 0 0-.287-.713A.97.97 0 0 0 12 5a.97.97 0 0 0-.713.287A.97.97 0 0 0 11 6v7l-.8.6q-.575.425-.887 1.05A3 3 0 0 0 9 16q0 1.25.875 2.125A2.9 2.9 0 0 0 12 19"/></svg>