<svg xmlns="http://www.w3.org/2000/svg" width="24" height="24" viewBox="0 0 24 24" fill='currentColor'><path d="m22 9.75-.55-1.2-1.2-.55 1.2-.55.55-1.2.55 1.2 1.2.55-1.2.55zm-3-4.125-.825-1.8-1.8-.825 1.8-.825.825-1.8.825 1.8 1.8.825-1.8.825zM9 21.575q-.75 0-1.3-.525a1.88 1.88 0 0 1-.6-1.275h3.8a1.88 1.88 0 0 1-.6 1.275q-.55.525-1.3.525m-3.75-3.2v-1.5h7.5v1.5zM5.4 15.5a7.2 7.2 0 0 1-2.487-2.55A6.76 6.76 0 0 1 2 9.5q0-2.925 2.037-4.963Q6.075 2.5 9 2.5t4.963 2.037T16 9.5q0 1.875-.912 3.45A7.2 7.2 0 0 1 12.6 15.5zm.45-1.5h6.3a5.54 5.54 0 0 0 1.737-1.975A5.4 5.4 0 0 0 14.5 9.5q0-2.3-1.6-3.9T9 4 5.1 5.6 3.5 9.5q0 1.35.613 2.525A5.54 5.54 0 0 0 5.85 14"/></svg>