<svg xmlns="http://www.w3.org/2000/svg" width="24" height="24" viewBox="0 0 24 24" fill='currentColor'><path d="M7 17.5q-2.292 0-3.896-1.604T1.5 12.003t1.604-3.896T7 6.5h10q2.291 0 3.896 1.604t1.604 3.894-1.604 3.896T17 17.5zM7 16h10q1.65 0 2.825-1.175T21 12t-1.175-2.825T17 8H7Q5.35 8 4.175 9.175T3 12t1.175 2.825T7 16m-.001-1.25q1.145 0 1.948-.802a2.65 2.65 0 0 0 .803-1.947q0-1.145-.802-1.948a2.65 2.65 0 0 0-1.947-.803q-1.145 0-1.948.802a2.65 2.65 0 0 0-.803 1.947q0 1.145.802 1.948a2.65 2.65 0 0 0 1.947.803"/></svg>