<svg xmlns="http://www.w3.org/2000/svg" width="24" height="24" viewBox="0 0 24 24" fill='currentColor'><path d="M7.538 21.952q-.423-.837-.658-2.248a17.5 17.5 0 0 1-.236-2.883q0-2.244.502-3.794T8.5 10.5V6.135L11.25 1.5h1.5l2.75 4.635V10.5q.877.977 1.366 2.527t.49 3.794q0 1.462-.231 2.878t-.654 2.253a2.47 2.47 0 0 1-1.41-1.087 3.2 3.2 0 0 1-.48-1.775q0-.616.137-1.33.138-.716.138-1.412 0-1.45-.745-2.901-.744-1.451-2.111-2.755-1.352 1.323-2.104 2.755t-.752 2.843q0 .735.15 1.465t.166 1.355a3.24 3.24 0 0 1-.503 1.763 2.48 2.48 0 0 1-1.419 1.079M12 7.942a.92.92 0 0 1-.67-.268.9.9 0 0 1-.272-.665q0-.264.125-.485a.86.86 0 0 1 .375-.345V3.9L10 6.55V9h4V6.55L12.442 3.9v2.279a.86.86 0 0 1 .375.345.97.97 0 0 1 .125.486.9.9 0 0 1-.273.664.92.92 0 0 1-.669.268"/></svg>