<svg xmlns="http://www.w3.org/2000/svg" width="24" height="24" viewBox="0 0 24 24" fill='currentColor'><path d="M4.308 16.5q-.748 0-1.278-.53a1.74 1.74 0 0 1-.53-1.278V9.308q0-.749.53-1.278.53-.53 1.278-.53h15.384q.749 0 1.278.53.53.53.53 1.278v5.384q0 .749-.53 1.278-.53.53-1.278.53zm0-1.5h15.384a.3.3 0 0 0 .221-.086.3.3 0 0 0 .087-.222V9.308a.3.3 0 0 0-.087-.222.3.3 0 0 0-.22-.086h-2.64q.215.33.33.71.117.38.117.79 0 1.213-.889 2.107-.888.893-2.111.893h-5q-1.213 0-2.107-.893Q6.5 11.713 6.5 10.5q0-.41.117-.79.116-.38.33-.71h-2.64a.3.3 0 0 0-.22.086.3.3 0 0 0-.087.222v5.384a.3.3 0 0 0 .087.222.3.3 0 0 0 .22.086M9.5 12h1.75V9H9.5q-.6 0-1.05.45T8 10.5t.45 1.05T9.5 12m3.25 0h1.75q.6 0 1.05-.45T16 10.5t-.45-1.05T14.5 9h-1.75zm6.942 3H4h16z"/></svg>