<svg xmlns="http://www.w3.org/2000/svg" width="24" height="24" viewBox="0 0 24 24" fill='currentColor'><path d="M7 19.75q-1.095 0-1.876-.741-.78-.742-.843-1.848H2.385v-6.634h2.704L3.135 8.573l-1 1L1.08 8.519l3.054-3.053 1.054 1.053-1 1 1.726 1.727 1.481-4.361h9.175l1.871 5.561h3.173v6.716H19.72q-.063 1.105-.843 1.847A2.63 2.63 0 0 1 17 19.75a2.6 2.6 0 0 1-1.693-.603 2.65 2.65 0 0 1-.934-1.532H9.627a2.65 2.65 0 0 1-.934 1.532A2.6 2.6 0 0 1 7 19.75m.13-9.365h4.1v-4H8.457zm5.6 0h4.1l-1.324-4H12.73zm-3.142 5.73h4.824a2.73 2.73 0 0 1 .996-1.349A2.64 2.64 0 0 1 17 14.25q.73 0 1.352.355.621.354 1.013.964h.75v-3.685H3.886v3.685h.75a2.74 2.74 0 0 1 1.008-.969q.627-.35 1.357-.35.883 0 1.592.516.71.517.996 1.35M7 18.25q.522 0 .886-.364T8.25 17t-.364-.886A1.2 1.2 0 0 0 7 15.75q-.522 0-.886.364A1.2 1.2 0 0 0 5.75 17q0 .522.364.886.365.364.886.364m10 0q.522 0 .886-.364T18.25 17t-.364-.886A1.2 1.2 0 0 0 17 15.75q-.522 0-.886.364a1.2 1.2 0 0 0-.364.886q0 .522.364.886t.886.364"/></svg>