<svg xmlns="http://www.w3.org/2000/svg" width="24" height="24" viewBox="0 0 24 24" fill='currentColor'><path d="M4.5 17.308V8q0-2.127 1.99-2.78 1.99-.655 4.74-.72l.75-1.5H7.04V1.808h9.923V3H13.52l-.75 1.5q2.89.065 4.81.711T19.5 8v9.308q0 1.34-.926 2.266t-2.266.926l1.5 1.5v.5h-1.423l-2-2h-4.77l-2 2H6.192V22l1.5-1.5q-1.34 0-2.266-.926-.926-.927-.926-2.266M16.308 14H6h12zM12 17.808q.548 0 .928-.38t.38-.928-.38-.928a1.26 1.26 0 0 0-.928-.38q-.548 0-.928.38t-.38.928.38.928.928.38m-.03-10.539h5.815H6.246zM6 12.5h12V8.77H6zM7.692 19h8.616q.718 0 1.204-.487.488-.487.488-1.204V14H6v3.308q0 .718.487 1.204.488.488 1.205.488M11.97 6q-3.225 0-4.338.383-1.114.381-1.385.887h11.539q-.271-.552-1.416-.91Q15.225 6 11.97 6"/></svg>