<svg xmlns="http://www.w3.org/2000/svg" width="24" height="24" viewBox="0 0 24 24" fill='currentColor'><path d="M5.73 19.5a1.2 1.2 0 0 1-.874-.356 1.2 1.2 0 0 1-.356-.875q0-.52.356-.875a1.2 1.2 0 0 1 .875-.355q.52 0 .875.355.356.357.356.875-.001.52-.356.875a1.2 1.2 0 0 1-.875.356m4.17 0q-.518 0-.873-.356a1.2 1.2 0 0 1-.356-.875q0-.52.356-.875t.873-.355.88.355.362.875q0 .52-.362.875a1.2 1.2 0 0 1-.88.356m4.188 0a1.2 1.2 0 0 1-.874-.356 1.2 1.2 0 0 1-.356-.875q0-.52.355-.875a1.2 1.2 0 0 1 .876-.355q.519 0 .874.355.357.357.356.875 0 .52-.356.875a1.2 1.2 0 0 1-.874.356m4.17 0q-.517 0-.873-.356a1.2 1.2 0 0 1-.356-.875q0-.52.355-.875.357-.355.874-.355t.88.355q.362.357.362.875 0 .52-.362.875a1.2 1.2 0 0 1-.88.356M5.731 15.329a1.2 1.2 0 0 1-.875-.356A1.2 1.2 0 0 1 4.5 14.1q0-.518.356-.88t.875-.362.875.362.356.88q-.001.518-.356.873a1.2 1.2 0 0 1-.875.356m4.17 0q-.519 0-.874-.356a1.2 1.2 0 0 1-.356-.873q0-.518.356-.88t.873-.362.88.362.362.88q0 .518-.362.873a1.2 1.2 0 0 1-.88.356m4.188 0a1.2 1.2 0 0 1-.876-.356 1.2 1.2 0 0 1-.355-.873q0-.518.355-.88.357-.362.876-.362t.874.362.356.88-.356.873a1.2 1.2 0 0 1-.874.356m4.169 0q-.517 0-.873-.356a1.2 1.2 0 0 1-.356-.873q0-.518.355-.88.357-.362.874-.362t.88.362q.362.362.362.88t-.362.873a1.2 1.2 0 0 1-.88.356M5.731 11.142a1.2 1.2 0 0 1-.875-.355A1.2 1.2 0 0 1 4.5 9.91q0-.519.356-.874a1.2 1.2 0 0 1 .875-.356q.52 0 .875.356.356.355.356.874-.001.52-.356.876a1.2 1.2 0 0 1-.875.355m4.17 0q-.519 0-.874-.355a1.2 1.2 0 0 1-.356-.876q0-.519.356-.874.356-.357.873-.356.518 0 .88.356.362.355.362.874 0 .52-.362.876a1.2 1.2 0 0 1-.88.355m4.188 0a1.2 1.2 0 0 1-.876-.355 1.2 1.2 0 0 1-.355-.876q0-.519.355-.874a1.2 1.2 0 0 1 .876-.356q.519 0 .874.356.357.355.356.874 0 .52-.356.876a1.2 1.2 0 0 1-.874.355m4.169 0q-.517 0-.873-.355a1.2 1.2 0 0 1-.356-.876q0-.519.355-.874.357-.357.874-.356.517 0 .88.356.362.355.362.874 0 .52-.362.876a1.2 1.2 0 0 1-.88.355M5.731 6.972a1.2 1.2 0 0 1-.875-.357 1.2 1.2 0 0 1-.356-.873q0-.517.356-.88.356-.362.875-.362.52 0 .875.362.356.363.356.88-.001.517-.356.874a1.2 1.2 0 0 1-.875.355m4.17 0q-.519 0-.874-.357a1.2 1.2 0 0 1-.356-.873q0-.517.356-.88.356-.362.873-.362.518 0 .88.362.362.363.362.88t-.362.874a1.2 1.2 0 0 1-.88.355m4.188 0a1.2 1.2 0 0 1-.876-.357 1.2 1.2 0 0 1-.355-.873q0-.517.355-.88.357-.362.876-.362t.874.362.356.88-.356.874a1.2 1.2 0 0 1-.874.355m4.169 0q-.517 0-.873-.357a1.2 1.2 0 0 1-.356-.873q0-.517.355-.88.357-.362.874-.362t.88.362q.362.363.362.88t-.362.874a1.2 1.2 0 0 1-.88.355"/></svg>