<svg xmlns="http://www.w3.org/2000/svg" width="24" height="24" viewBox="0 0 24 24" fill='currentColor'><path d="M17.664 21.45q-.473 0-.915-.18a2.3 2.3 0 0 1-.741-.48 2 2 0 0 0-.271-.227.5.5 0 0 0-.272-.113h-2.301q-.84 0-1.42-.59a1.97 1.97 0 0 1-.58-1.434q0-.46.206-.872.208-.412.61-.735l.991-.81a.7.7 0 0 0 .14-.172.43.43 0 0 0 .053-.212v-5.54q0-.077-.02-.15a.4.4 0 0 0-.067-.139l-1.55-2.21a1.9 1.9 0 0 1-.275-.55 2 2 0 0 1-.088-.586q0-.84.58-1.42t1.42-.58h5q.84 0 1.413.568.57.57.571 1.406a2 2 0 0 1-.348 1.132l-1.55 2.24a.3.3 0 0 0-.067.135.6.6 0 0 0-.02.154v5.59a.47.47 0 0 0 .154.356l.966.975q.423.414.651.913.23.5.23 1.031 0 1.048-.727 1.774a2.4 2.4 0 0 1-1.774.726m0-1.5q.424 0 .712-.287a.97.97 0 0 0 .287-.713q0-.375-.212-.625l-.213-.25-.974-.975a2.2 2.2 0 0 1-.446-.67 1.9 1.9 0 0 1-.155-.755V10.1q0-.3.088-.6.087-.3.262-.55l1.55-2.225q.031-.045.1-.3a.44.44 0 0 0-.15-.337.5.5 0 0 0-.35-.138h-5a.48.48 0 0 0-.35.15.48.48 0 0 0-.125.494.5.5 0 0 0 .075.131l1.55 2.225a2.03 2.03 0 0 1 .35 1.15v5.525q0 .45-.2.863a1.9 1.9 0 0 1-.55.687l-1 .825a.8.8 0 0 0-.187.21.5.5 0 0 0-.062.259q0 .196.142.339a.5.5 0 0 0 .358.142h2.225q.45 0 .8.163t.75.562q.124.125.312.2.187.075.412.075m-8.724.248q-.223.106-.454.159a2 2 0 0 1-.475.053q-.915 0-1.544-.623-.63-.624-.63-1.512V9.262q0-.105-.02-.202a.6.6 0 0 0-.067-.183L4.039 5.29a2 2 0 0 1-.15-.42 2 2 0 0 1-.052-.438q0-.834.58-1.408.58-.573 1.42-.573h4v1.885q0 .048.033.082.034.033.082.033h.384q.84 0 1.42.58t.58 1.419q0 .339-.096.63t-.298.558L11.01 8.87a.9.9 0 0 0-.13.25.9.9 0 0 0-.043.28v4.75q0 .134.034.264.035.13.11.235l1.008 1.529q.164.256.257.543.09.285.091.578 0 .578-.301 1.056-.302.479-.804.717zm-.653-1.348 2.274-1.125a.4.4 0 0 0 .2-.175.5.5 0 0 0 .075-.25q0-.02-.1-.3l-.9-1.375a2.9 2.9 0 0 1-.375-.812 3.1 3.1 0 0 1-.125-.863V9.6q0-.5.15-.95t.45-.85l.8-1.05q.05-.075.1-.3a.48.48 0 0 0-.15-.35.48.48 0 0 0-.35-.15h-1a.97.97 0 0 1-.712-.287.97.97 0 0 1-.288-.713v-1h-2.5a.5.5 0 0 0-.35.14.45.45 0 0 0-.15.345q0 .023.05.215l1.65 3.45q.15.3.226.625.075.325.075.675v8.875q0 .276.2.463a.67.67 0 0 0 .474.187q.075 0 .276-.075"/></svg>