<svg xmlns="http://www.w3.org/2000/svg" width="24" height="24" viewBox="0 0 24 24" fill='currentColor'><path d="M12.904 7.307h4.192V5.115h-4.192zm-8.789 9.616q.425 0 .713-.288a.97.97 0 0 0 .287-.712.97.97 0 0 0-.287-.713.97.97 0 0 0-.713-.287.97.97 0 0 0-.712.287.97.97 0 0 0-.288.713q0 .424.288.712.289.288.712.288M12 20.692q-1.948 0-3.672-.667a10.9 10.9 0 0 1-3.12-1.848 2.7 2.7 0 0 1-.52.18 2.4 2.4 0 0 1-.568.066q-1.053 0-1.779-.726a2.4 2.4 0 0 1-.726-1.774 2.42 2.42 0 0 1 .683-1.706 10.7 10.7 0 0 1-.748-2.973l1.5-.152q.06.633.206 1.225.145.592.375 1.15.125-.034.242-.04.118-.004.242-.004 1.049 0 1.774.726t.726 1.774q0 .33-.084.623a3 3 0 0 1-.229.565 8.7 8.7 0 0 0 2.279 1.411 8.4 8.4 0 0 0 2.669.64v-4.95q0-.522-.364-.886A1.2 1.2 0 0 0 10 12.96a3.6 3.6 0 0 1-2.652-1.098A3.6 3.6 0 0 1 6.25 9.211q0-1.554 1.098-2.652A3.6 3.6 0 0 1 10 5.461h1.404V3.615h7.192v1.846h1.673v1.5h-1.673v1.846h-7.192V6.961H10a2.17 2.17 0 0 0-1.595.655 2.17 2.17 0 0 0-.655 1.595q0 .94.655 1.595a2.17 2.17 0 0 0 1.595.655q1.146 0 1.948.803.802.801.802 1.947v4.95q2.367-.192 4.272-1.497a8.9 8.9 0 0 0 2.945-3.341l-1.196-.616.679-1.323 1.121.566a9.4 9.4 0 0 0 .379-1.858l1.51.152q-.048.621-.19 1.217-.141.597-.341 1.168l1.069.534-.67 1.323-.988-.484q-1.31 2.563-3.802 4.126T12 20.693"/></svg>