<svg xmlns="http://www.w3.org/2000/svg" width="24" height="24" viewBox="0 0 24 24" fill='currentColor'><path d="M18.75 8.129v7.79L8.873 6.042 12 4.24zm-13.5 7.797V8.113l1.833-1.031 4.936 4.937 4.937 4.936L12 19.82zm4.717-8.79 3.29 3.291 3.212-1.873L12 5.981zm1.283 10.53V12.45l-4.5-2.585v5.193zm6-3.247V9.865l-2.898 1.656zm-4.5 3.247 3.111-1.804-3.111-3.112zm8.027 5.25L19.361 21.5H17V20h1.033v.172L3.736 5.875H4V7H2.5V4.64L1.266 3.404l1.069-1.069 19.511 19.512zM21.5 17v1.67l-1.5-1.5V17zM7 2.5V4h-.17l-1.5-1.5zm0 19H2.5V17H4v3h3zM20 7V4h-3V2.5h4.5V7z"/></svg>