<svg xmlns="http://www.w3.org/2000/svg" width="24" height="24" viewBox="0 0 24 24" fill='currentColor'><path d="M12 14.2q-1.125 0-1.912-.787A2.6 2.6 0 0 1 9.3 11.5q0-1.125.787-1.912A2.6 2.6 0 0 1 12 8.8q1.125 0 1.912.787.788.788.788 1.913t-.787 1.912A2.6 2.6 0 0 1 12 14.2m.003 4.3q-3.45 0-6.288-1.903Q2.88 14.693 1.54 11.5q1.34-3.194 4.176-5.097Q8.55 4.5 12 4.5q3.313 0 6.063 1.76 2.748 1.761 4.18 4.74h-1.718a9.6 9.6 0 0 0-3.575-3.662A9.6 9.6 0 0 0 12 6a9.55 9.55 0 0 0-5.187 1.487A9.77 9.77 0 0 0 3.2 11.5a9.77 9.77 0 0 0 3.613 4.012A9.54 9.54 0 0 0 12 17a10 10 0 0 0 1.894-.18v1.514q-.473.072-.945.119a10 10 0 0 1-.946.047M12 15.577a3.97 3.97 0 0 0 1.967-.514 4.62 4.62 0 0 1 2.09-3.253 3 3 0 0 0 .02-.31q0-1.699-1.19-2.888-1.19-1.19-2.89-1.189-1.699 0-2.886 1.19t-1.188 2.89 1.19 2.887T12 15.577m3.894 4.932v-4.653h.952v-1q0-.765.546-1.31A1.8 1.8 0 0 1 18.703 13q.766 0 1.306.545.54.546.539 1.31v1h.952v4.654zm1.837-4.653h1.932v-1a.95.95 0 0 0-.268-.698.93.93 0 0 0-.693-.274.95.95 0 0 0-.698.274.95.95 0 0 0-.273.698z"/></svg>