<svg xmlns="http://www.w3.org/2000/svg" width="24" height="24" viewBox="0 0 24 24" fill='currentColor'><path d="M15.5 17.5v-3h-3.608a5.4 5.4 0 0 1-2.011 2.175A5.36 5.36 0 0 1 7 17.5q-2.292 0-3.896-1.604T1.5 12.003t1.604-3.896T7 6.5q1.554 0 2.88.825A5.4 5.4 0 0 1 11.893 9.5H19V11h-8.15q-.2-.975-1.2-1.988T7 8 4.175 9.175 3 12t1.175 2.825T7 16t2.65-1.012T10.85 13H17v3h2v1.5zM7 13.615q.666 0 1.14-.474.475-.475.475-1.141t-.474-1.14A1.56 1.56 0 0 0 7 10.384q-.666 0-1.14.474A1.56 1.56 0 0 0 5.384 12q0 .666.474 1.14.475.475 1.141.475m14.481 4a.84.84 0 0 1-.617-.248.84.84 0 0 1-.249-.617q0-.367.249-.616a.84.84 0 0 1 .616-.25q.368 0 .617.25a.84.84 0 0 1 .249.616q0 .367-.248.616a.84.84 0 0 1-.617.25m-.75-3.461V9.5h1.5v4.654z"/></svg>