<svg xmlns="http://www.w3.org/2000/svg" width="24" height="24" viewBox="0 0 24 24" fill='currentColor'><path d="M16.78 8.106a.84.84 0 0 1-.617-.249.84.84 0 0 1-.25-.616q0-.368.25-.617a.84.84 0 0 1 .616-.249q.367 0 .616.249a.84.84 0 0 1 .25.616q0 .367-.25.617a.84.84 0 0 1-.616.249m-7.703 5.74 2.296-2.98 1.57 1.942 2.376-3.039 3.104 4.077zM2.75 21V6.308h1.5V19.5h13.192V21zm3.5-11.721V2.5h6.404V4H7.75v5.279zm0 8.221v-6.029h1.5V16h4.904v1.5zm8.596 0V16h4.904v-4.529h1.5V17.5zm4.904-8.221V4h-4.904V2.5h6.404v6.779z"/></svg>