<svg xmlns="http://www.w3.org/2000/svg" width="24" height="24" viewBox="0 0 24 24" fill='currentColor'><path d="M8.467 7.562 5.823 4.918l1.07-1.07 2.644 2.645zm3.783-2.269v-3.75h1.5v3.75zm6.833 12.885-2.644-2.645 1.069-1.069 2.644 2.644zM17.7 7.37 16.63 6.3l2.645-2.644 1.07 1.07zm1.008 4.38v-1.5h3.75v1.5zM5.777 21.754l-3.539-3.539 9.445-9.444a2.4 2.4 0 0 1 1.768-.73q1.04 0 1.77.728t.731 1.769-.731 1.771zm6.275-8.389-.362-.35-.363-.35-.35-.35-.35-.35.7.7zM5.777 19.64l6.275-6.275-1.425-1.4-6.25 6.25z"/></svg>