<svg xmlns="http://www.w3.org/2000/svg" width="24" height="24" viewBox="0 0 24 24" fill='currentColor'><path d="M11.25 17.75h.615l3.471-5.596H12.75V8.25h-.615l-3.471 5.597h2.586zm.748 3.75q-3.21 0-5.355-2.206Q4.5 17.086 4.5 13.8q0-2.326 1.862-5.1Q8.226 5.924 12 2.653q3.776 3.271 5.637 6.045Q19.5 11.474 19.5 13.8q0 3.286-2.145 5.494Q15.21 21.5 11.998 21.5M12 20q2.6 0 4.3-1.762T18 13.8q0-1.824-1.512-4.125Q14.975 7.375 12 4.65 9.024 7.375 7.513 9.675 6 11.976 6 13.8q0 2.676 1.7 4.438T12 20"/></svg>