<svg xmlns="http://www.w3.org/2000/svg" width="24" height="24" viewBox="0 0 24 24" fill='currentColor'><path d="M6 20V10v9.692-.192zM9 8.5h6v-2q0-1.25-.875-2.125A2.9 2.9 0 0 0 12 3.5q-1.25 0-2.125.875A2.9 2.9 0 0 0 9 6.5zm-4.5 13v-13h3v-2q0-1.873 1.313-3.186Q10.128 2 12 2t3.187 1.314Q16.5 4.626 16.5 6.5v2h3v5.571q-.208-.03-.395-.05a4.2 4.2 0 0 0-1.105.041V10H6v10h8.196q.105.43.278.801.172.37.435.699zm14.26 0q-.944 0-1.598-.652a2.17 2.17 0 0 1-.652-1.598q0-.443.155-.821.156-.38.427-.693l1.668-1.861 1.667 1.861q.27.314.427.693.155.378.155.821 0 .945-.652 1.598a2.17 2.17 0 0 1-1.597.652M12 16.75q.729 0 1.24-.51.51-.511.51-1.24t-.51-1.24-1.24-.51-1.24.51q-.51.511-.51 1.24t.51 1.24 1.24.51"/></svg>