<svg xmlns="http://www.w3.org/2000/svg" width="24" height="24" viewBox="0 0 24 24" fill='currentColor'><path d="M12.78 22.462q-.52 0-.886-.354a1.17 1.17 0 0 1-.365-.872q0-.245.088-.47.09-.226.278-.394l.884-.824.883.824q.19.168.278.395.09.226.089.474 0 .515-.364.867a1.22 1.22 0 0 1-.885.354m-3.451-1.453-.848-.848 2.748-2.748.848.849zm6.45-1.5-1.298-1.297 1.298-1.299 1.298 1.299zm-9 0L5.48 18.213l1.298-1.299 1.298 1.299zM7.5 15.75q-2.178 0-3.714-1.536Q2.25 12.68 2.25 10.5q0-2.008 1.341-3.49Q4.933 5.527 6.93 5.28a5.77 5.77 0 0 1 2.11-2.222 5.6 5.6 0 0 1 2.957-.808q2.205 0 3.81 1.433 1.605 1.432 1.908 3.573 1.782.13 2.909 1.353a4.13 4.13 0 0 1 1.127 2.894q0 1.767-1.24 3.006-1.24 1.24-3.01 1.241zm0-1.5h10q1.146 0 1.948-.802a2.65 2.65 0 0 0 .802-1.948q0-1.146-.802-1.948A2.65 2.65 0 0 0 17.5 8.75h-1.25V8q0-1.754-1.249-3.001Q13.753 3.749 12 3.75q-1.276 0-2.325.692a4.3 4.3 0 0 0-1.58 1.862l-.184.446h-.46a3.76 3.76 0 0 0-2.614 1.138Q3.75 8.974 3.75 10.5q0 1.554 1.098 2.652A3.6 3.6 0 0 0 7.5 14.25"/></svg>