<svg xmlns="http://www.w3.org/2000/svg" width="24" height="24" viewBox="0 0 24 24" fill='currentColor'><path d="M6.5 5.903q-.758 0-1.302-.544a1.78 1.78 0 0 1-.544-1.302q0-.757.544-1.302A1.78 1.78 0 0 1 6.5 2.211q.758 0 1.302.544.544.545.544 1.302 0 .758-.544 1.302a1.78 1.78 0 0 1-1.302.544M4.923 21.75v-6.788H3.039V7.21h6.923v4.046q-1.412.852-2.312 2.375T6.75 17q0 1.29.443 2.423a6.1 6.1 0 0 0 1.192 1.939v.388zm8.596.02q-1.97 0-3.369-1.4T8.75 17a4.56 4.56 0 0 1 .858-2.707 4.8 4.8 0 0 1 2.257-1.735v1.637q-.743.457-1.178 1.185A3.1 3.1 0 0 0 10.25 17q0 1.375.947 2.323.948.947 2.322.947a3.2 3.2 0 0 0 2.246-.89q.955-.89 1.014-2.235h1.5q-.077 1.97-1.448 3.297t-3.312 1.328m7.473-2.416-2.407-3.604H13.25v-7.5h1.5v6h4.665l2.839 4.283z"/></svg>