<svg xmlns="http://www.w3.org/2000/svg" width="24" height="24" viewBox="0 0 24 24" fill='currentColor'><path d="M17.154 19.067h1.51v-1.51h-1.51zm0-2.702h1.51v-1.51h-1.51zm2.702 2.702h1.51v-1.51h-1.51zM15.96 20.26v-6.595h3.895v2.701h2.702v3.895zm-3.96.03L.711 9a15.8 15.8 0 0 1 5.2-3.347A16.4 16.4 0 0 1 12 4.5q3.17 0 6.09 1.153A15.8 15.8 0 0 1 23.288 9l-2.863 2.848a43 43 0 0 1-.527-.535q-.263-.271-.527-.534L21.1 9.05q-1.975-1.5-4.3-2.275A15.1 15.1 0 0 0 12 6q-2.475 0-4.8.775A14.8 14.8 0 0 0 2.9 9.05l9.1 9.1 1.24-1.24.535.534.534.535z"/></svg>