<svg xmlns="http://www.w3.org/2000/svg" width="24" height="24" viewBox="0 0 24 24" fill='currentColor'><path d="M11.998 21.692q-.746 0-1.276-.53a1.74 1.74 0 0 1-.53-1.277h3.616q0 .747-.532 1.277-.531.53-1.278.53M4.5 18.884v-1.5h1.808v-7.46q0-2.017 1.245-3.567a5.52 5.52 0 0 1 3.197-1.983V2.5h2.5v1.873q.606.125 1.146.375t1.025.62q-.477.15-.95.321a10 10 0 0 0-.921.384q-.371-.171-.756-.257A3.7 3.7 0 0 0 12 5.731q-1.737 0-2.964 1.228-1.228 1.227-1.228 2.964v7.462H19.5v1.5zm8.25-8.695-.854-.839a7.9 7.9 0 0 1 2.467-1.614 7.7 7.7 0 0 1 2.987-.582q1.592 0 2.975.582a7.9 7.9 0 0 1 2.454 1.614l-.854.838a6.7 6.7 0 0 0-2.077-1.344 6.5 6.5 0 0 0-2.523-.498q-1.33 0-2.506.498a6.9 6.9 0 0 0-2.069 1.345m2.125 2.124-.844-.854q.646-.606 1.481-.956a4.65 4.65 0 0 1 1.811-.35q.975 0 1.83.35t1.5.957l-.853.853a3.4 3.4 0 0 0-1.11-.719 3.6 3.6 0 0 0-1.34-.248 3.6 3.6 0 0 0-2.475.967m2.475 2.466-1.194-1.17q.233-.209.54-.332.306-.123.654-.123t.64.124.53.332z"/></svg>