<svg xmlns="http://www.w3.org/2000/svg" width="24" height="24" viewBox="0 0 24 24" fill='currentColor'><path d="M10.48 22.5V21h1.77v-5.547a2.26 2.26 0 0 1-1.194-.842l-2.929 1.85-6.464-1.836V11.5h9.29q.232-.343.56-.59.33-.25.737-.368V6.438l4.892-4.58 2.66 1.663-4.808 7.946q.31.29.46.77t.079.941l3.515.86 3.252 5.84-2.2 2.162-6.148-6.094a.5.5 0 0 1-.202.077V21h1.77v1.5zM4.5 5V3.5H10V5zm9.25 2.092v3.454q.015 0 .023.007.008.008.023.008l3.979-6.568-.45-.251zM1.5 9V7.5H6V9zm11.498 5.096q.465 0 .782-.315.316-.315.316-.78t-.315-.781a1.06 1.06 0 0 0-.78-.317q-.465 0-.78.315-.318.315-.317.78 0 .465.315.781.315.317.78.317m-5.129.754 2.575-1.573a1 1 0 0 1-.015-.139V13H3.164v.5zm10.196.48-3.061-.727a.5.5 0 0 0-.062.077.5.5 0 0 1-.061.077l5.19 5.195.375-.373zM3.5 20.5V19H8v1.5z"/></svg>