<svg xmlns="http://www.w3.org/2000/svg" width="24" height="24" viewBox="0 0 24 24" fill='currentColor'><path d="m3.592 21.452-1.044-1.044 2.325-2.335-2.373-.639.39-1.444 2.358.639-.623-2.373 1.444-.39.639 2.372 3.848-3.848-2.373-.638.39-1.444 2.358.623-.623-2.358 1.444-.39.638 2.373 3.848-3.848-2.372-.639.39-1.444 2.373.623-.639-2.358 1.444-.39.639 2.373 2.335-2.325 1.044 1.044-2.325 2.335 2.373.639-.39 1.443-2.358-.638.623 2.373-1.444.39-.639-2.373-3.848 3.849 2.373.638-.39 1.444-2.358-.623.623 2.358-1.444.39-.638-2.373-3.848 3.848 2.372.639-.39 1.444-2.373-.623.638 2.358-1.444.39-.638-2.373z"/></svg>