<svg xmlns="http://www.w3.org/2000/svg" width="24" height="24" viewBox="0 0 24 24" fill='currentColor'><path d="M12 21.52q-3.784-3.272-5.671-6.09-1.887-2.816-1.887-5.172 0-3.462 2.244-5.61T12 2.5q.204 0 .397.008t.41.045V4.06A5 5 0 0 0 12 3.99q-2.573 0-4.31 1.766-1.738 1.766-1.738 4.5 0 1.815 1.552 4.222Q9.055 16.886 12 19.514q2.906-2.608 4.458-4.992 1.551-2.383 1.58-4.206a.3.3 0 0 0-.007-.062.3.3 0 0 1-.008-.062h1.506q0 .03.01.062.009.03.009.062-.03 2.345-1.915 5.148T12 21.52m4.442-13.586 2.1-2.1 2.1 2.1 1.054-1.053-2.1-2.1 2.1-2.1-1.054-1.054-2.1 2.1-2.1-2.1-1.053 1.054 2.1 2.1-2.1 2.1zm-4.44 3.931q.746 0 1.276-.531.53-.532.53-1.278 0-.747-.532-1.276a1.75 1.75 0 0 0-1.278-.53q-.746 0-1.276.531-.53.532-.53 1.278t.532 1.277 1.278.53"/></svg>