<svg xmlns="http://www.w3.org/2000/svg" width="24" height="24" viewBox="0 0 24 24" fill='currentColor'><path d="M12 19q0-2.289-1.664-3.952t-3.951-1.663q0 2.287 1.663 3.952Q9.711 19 12 19m0-5.127q.621 0 1.037-.416.417-.417.417-1.038v-.13q.18.14.382.21.203.07.464.07.618 0 1.043-.427a1.42 1.42 0 0 0 .426-1.043q0-.474-.223-.825a1.23 1.23 0 0 0-.619-.501q.396-.15.62-.502.222-.351.222-.821 0-.618-.426-1.045a1.42 1.42 0 0 0-1.042-.428q-.26 0-.463.07a1.3 1.3 0 0 0-.384.21v-.15q0-.62-.417-1.037A1.4 1.4 0 0 0 12 5.654q-.621 0-1.037.416a1.4 1.4 0 0 0-.417 1.038v.15a1.3 1.3 0 0 0-.382-.21 1.4 1.4 0 0 0-.464-.071q-.617 0-1.043.427a1.42 1.42 0 0 0-.426 1.043q0 .474.223.825t.619.501q-.396.15-.62.502a1.5 1.5 0 0 0-.222.821q0 .617.426 1.046.427.427 1.042.427.26 0 .463-.07t.384-.21v.13q0 .621.417 1.038.416.416 1.037.416m.002-2.338q-.74 0-1.251-.505a1.7 1.7 0 0 1-.512-1.257q0-.739.51-1.25.512-.511 1.25-.511t1.25.511.512 1.25q0 .752-.51 1.257a1.7 1.7 0 0 1-1.25.505M12 19q2.289 0 3.952-1.663 1.663-1.665 1.663-3.952-2.287 0-3.951 1.663T12 19m-9.5 2.5v-19h19v19zM4 20h16V4H4z"/></svg>