<svg width="295" height="94" viewBox="0 0 295 94" fill="none" xmlns="http://www.w3.org/2000/svg"><g id="variant=logo, color=blue, theme=sick2018" clip-path="url(#clip0_41_4080)"><path id="Union" d="M166.804 0C184.439 9.72779e-05 199.775 9.89287 207.674 24.4883L188.601 34.7822C184.334 26.9185 176.088 21.6759 166.804 21.6758C153.263 21.6758 141.933 32.8138 141.932 46.9912C141.932 61.1688 153.263 72.3076 166.804 72.3076C176.279 72.3075 184.727 66.8553 188.907 58.7129L207.961 69.0586C200.132 83.8892 184.613 93.9833 166.804 93.9834C141.097 93.9834 120.257 72.9428 120.257 46.9912C120.257 21.0398 141.097 0 166.804 0ZM57.2849 1.67188C69.8253 1.67188 78.7781 11.0602 78.7781 22.9648C78.7781 22.9648 32.5794 22.9648 26.8748 22.9648C19.8992 23.9576 19.455 34.6606 26.8748 35.8711H54.5154C69.677 36.2804 81.7732 48.3502 81.7732 63.6338C81.7731 77.7154 69.8255 91.867 54.5857 91.8672H26.0818C13.951 91.8671 0.592802 85.318 0.592529 70.1133C0.74838 70.1133 47.1872 70.1124 54.5945 70.1211C62.4925 68.5446 61.613 58.5833 54.5945 57.207H26.8748C12.1225 57.207 0.444186 44.6142 0.444092 29.6094C0.444092 15.1793 11.2341 1.67188 26.8748 1.67188H57.2849ZM111.078 91.8672H89.7771V1.66309H111.078V91.8672ZM237.535 1.66309V37.8389H245.826L268.224 1.66309H294.716L264.192 47.3398L294.271 91.8672H267.771L245.103 56.9189H237.535V91.8672H215.99V1.66309H237.535Z" fill="#007CC1"/></g><defs><clipPath id="clip0_41_4080"><rect width="295" height="94" fill="white"/></clipPath></defs></svg>