<svg width="402" height="164" viewBox="0 0 402 164" fill="none" xmlns="http://www.w3.org/2000/svg"><g id="variant=claim-below, color=blue, theme=sick2018" clip-path="url(#clip0_41_4001)"><path id="Union" d="M166.804 0C184.439 9.72779e-05 199.775 9.89287 207.674 24.4883L188.601 34.7822C184.334 26.9185 176.088 21.6759 166.804 21.6758C153.263 21.6758 141.933 32.8138 141.932 46.9912C141.932 61.1688 153.263 72.3076 166.804 72.3076C176.279 72.3075 184.727 66.8553 188.907 58.7129L207.961 69.0586C200.132 83.8892 184.613 93.9833 166.804 93.9834C141.097 93.9834 120.257 72.9428 120.257 46.9912C120.257 21.0398 141.097 0 166.804 0ZM57.2849 1.67188C69.8253 1.67188 78.7781 11.0602 78.7781 22.9648C78.7781 22.9648 32.5794 22.9648 26.8748 22.9648C19.8992 23.9576 19.455 34.6606 26.8748 35.8711H54.5154C69.677 36.2804 81.7732 48.3502 81.7732 63.6338C81.7731 77.7154 69.8255 91.867 54.5857 91.8672H26.0818C13.951 91.8671 0.592802 85.318 0.592529 70.1133C0.74838 70.1133 47.1872 70.1124 54.5945 70.1211C62.4925 68.5446 61.613 58.5833 54.5945 57.207H26.8748C12.1225 57.207 0.444186 44.6142 0.444092 29.6094C0.444092 15.1793 11.2341 1.67188 26.8748 1.67188H57.2849ZM111.078 91.8672H89.7771V1.66309H111.078V91.8672ZM237.535 1.66309V37.8389H245.826L268.224 1.66309H294.716L264.192 47.3398L294.271 91.8672H267.771L245.103 56.9189H237.535V91.8672H215.99V1.66309H237.535Z" fill="#007CC1"/><path id="Union_2" fill-rule="evenodd" clip-rule="evenodd" d="M0 147.959C0.278675 148.925 0.505099 149.709 1.01891 150.632C1.66334 151.695 2.49936 152.661 3.46602 153.445C5.22515 154.882 8.03802 156.397 13.2458 156.397C19.4724 156.397 22.9819 153.811 24.4537 151.695C25.0546 150.867 26.117 148.925 26.117 146.156C26.117 143.387 25.011 140.705 22.7468 138.998C21.3186 137.944 19.6117 137.387 17.8526 136.925C17.0456 136.674 16.2425 136.469 15.4381 136.265C15.0445 136.164 14.6507 136.064 14.256 135.958C13.7226 135.832 13.2496 135.727 12.8248 135.633C11.0783 135.245 10.1455 135.038 9.17885 134.295C7.88998 133.328 7.65484 132.083 7.6113 131.534C7.6113 131.16 7.7071 130.333 8.30799 129.505C8.58666 129.087 8.95242 128.765 9.37044 128.486C10.7986 127.616 13.0106 127.563 13.3415 127.563C15.4664 127.563 17.5391 128.156 18.6886 130.098C18.7844 130.237 19.0631 130.698 19.246 131.204C19.3578 131.179 19.4706 131.154 19.584 131.129C20.3094 130.97 21.0588 130.806 21.7366 130.603C22.7555 130.324 23.7222 130.054 24.6888 129.723C24.6453 129.497 24.3666 128.617 23.9051 127.833C23.2969 126.79 22.3551 125.955 21.9803 125.623L21.9195 125.569C18.6451 122.756 14.674 122.713 13.2458 122.713C7.38488 122.713 4.29333 125.43 3.00446 127.468C1.71559 129.54 1.6198 131.804 1.6198 132.675C1.6198 133.79 1.75914 136.141 3.78824 138.397C5.31224 140.051 6.78399 140.565 7.62001 140.844C8.12511 140.983 8.63892 141.131 9.18756 141.305C10.2065 141.628 11.2602 141.906 12.3226 142.176C12.6447 142.253 13.0002 142.331 13.3754 142.413C15.0496 142.78 17.1134 143.233 18.3229 144.023C19.7075 144.893 19.9339 146.426 19.9339 146.975C19.9339 147.48 19.8469 148.412 19.1066 149.378C18.6886 149.84 18.2358 150.249 17.722 150.528C16.1544 151.407 13.7509 151.407 13.3851 151.407C9.32689 151.407 7.34134 150.066 6.36597 148.499C6.00021 147.941 5.80863 147.489 5.62575 146.888L0 147.959ZM50.9278 144.493C50.9278 142.647 50.8843 140.67 50.4227 138.911L50.3988 138.832C50.2082 138.202 49.8333 136.963 48.8987 135.636C46.1729 131.665 42.1147 131.247 40.4078 131.247C35.4701 131.247 31.6383 134.243 30.1665 138.858C29.5221 140.975 29.4786 143.056 29.4786 143.831C29.4786 150.519 32.1608 153.341 34.695 154.821C37.0028 156.154 39.2148 156.293 40.2337 156.293C43.7432 156.293 47.1047 154.769 49.0903 151.913C49.8144 150.842 50.4196 149.423 50.6174 148.959L50.6174 148.959L50.635 148.918L50.6578 148.865L45.7201 148.081C45.5285 148.629 45.3456 149.1 45.0234 149.605C44.0045 151.085 42.2976 152.008 40.5472 152.008C39.8505 152.008 38.701 151.921 37.4556 150.815C35.5663 149.141 35.3486 146.931 35.2569 146.001L35.2505 145.936L35.2436 145.869C35.1914 145.407 35.1479 144.954 35.1479 144.536L50.9278 144.493ZM35.0085 141.044C35.1479 139.79 35.2436 139.424 35.5136 138.78C36.2538 136.794 37.682 135.915 38.4223 135.549C38.701 135.401 39.4325 135.088 40.312 135.088C40.8607 135.088 41.9231 135.183 43.1249 136.106C44.8753 137.395 45.1976 139.006 45.5198 141.044H35.0085ZM55.6391 155.666V131.77V131.761H60.5769V136.925C60.8556 136.281 61.3171 135.392 61.7351 134.757C62.4667 133.564 64.2258 131.204 68.0053 131.204C70.226 131.256 71.6542 132.083 72.2987 132.545C72.9866 133.058 73.5875 133.799 74.0491 134.582L74.0905 134.665C74.2894 135.059 74.6694 135.812 74.9286 136.882C75.1342 137.672 75.1881 138.604 75.2197 139.15C75.231 139.345 75.2394 139.491 75.2509 139.564V155.849H70.0867V141.358L70.0817 141.179C70.0329 139.402 69.9882 137.773 68.6062 136.559C68.2404 136.237 67.4567 135.688 66.2113 135.688C65.6975 135.688 64.5916 135.828 63.4856 136.751C61.3607 138.362 61.1778 140.626 61.0385 143.117V155.849L55.6391 155.666ZM91.771 146.757C92.877 146.992 93.9395 147.262 94.4446 148.142C94.6797 148.603 94.7233 149.021 94.7233 149.256C94.7233 150.598 93.6173 151.329 93.2428 151.521C92.7812 151.799 91.5359 152.209 89.9248 152.209C89.5591 152.209 87.1555 152.156 85.7708 150.963C85.3528 150.589 85.0742 150.267 84.5691 149.204L79.5355 150.267C80.4586 152.113 80.9637 152.94 81.6081 153.637C83.4979 155.483 87.0075 156.223 89.6375 156.223C90.517 156.223 94.6188 156.127 97.3881 154.098C99.9223 152.209 100.253 149.57 100.253 148.386C100.253 146.026 99.095 143.726 97.0223 142.525C96.3779 142.15 95.8205 141.924 94.3401 141.462L88.8972 140.443L88.777 140.413L88.6494 140.382C87.456 140.088 86.3679 139.82 85.8057 138.736C85.5705 138.318 85.527 137.918 85.527 137.77C85.527 137.265 85.7099 136.803 85.8057 136.664C86.4802 135.485 88.0507 135.287 88.4975 135.23L88.5227 135.227C89.0801 135.131 89.5852 135.131 89.7681 135.131C92.5761 135.131 93.5336 136.641 94.1763 137.654L94.2443 137.761L98.9992 136.751C98.1719 135.044 97.8496 134.487 97.2052 133.799C95.4548 131.9 92.311 131.116 89.8203 131.116C87.4255 131.116 84.6997 131.717 82.897 133.25C81.373 134.591 80.4063 136.847 80.4063 138.963C80.4063 142.246 82.4354 143.848 83.4544 144.458C84.2647 144.985 85.0348 145.224 85.9001 145.493C86.0205 145.53 86.1427 145.568 86.2672 145.608L91.771 146.757ZM108.187 154.786C105.922 153.41 102.596 149.666 102.97 143.16C103.014 141.819 103.336 137.857 106.393 134.626C109.301 131.578 113.037 131.256 114.422 131.256C121.345 131.256 125.125 137.3 125.125 143.761C125.125 146.757 124.341 149.762 122.495 152.209C119.586 155.988 115.572 156.31 113.865 156.31C112.942 156.31 110.451 156.223 108.187 154.786ZM110.712 137.117C109.101 138.728 108.692 141.68 108.596 143.761C108.552 144.223 108.457 145.747 108.822 147.219C109.005 148.185 110.111 151.965 113.943 151.965C115.511 151.965 116.434 151.32 116.939 150.955C119.501 148.96 119.48 145.278 119.474 144.2C119.473 144.153 119.473 144.111 119.473 144.075C119.473 143.517 119.473 143.012 119.43 142.507L119.426 142.444L119.423 142.379L119.423 142.375C119.377 141.437 119.244 138.721 117.357 136.925C116.939 136.507 115.876 135.723 114.265 135.723C113.664 135.723 111.958 135.863 110.712 137.117ZM130.246 131.77V155.849L132.179 155.709C133.285 155.666 134.443 155.709 135.549 155.753V145.834C135.553 145.733 135.555 145.605 135.557 145.454V145.453V145.452V145.452C135.575 144.087 135.616 140.841 137.857 138.632C139.198 137.3 140.443 137.204 141.227 137.16C141.645 137.117 142.054 137.117 142.472 137.117H142.472L142.516 131.256C142.442 131.261 142.356 131.265 142.26 131.269C141.529 131.302 140.216 131.361 138.876 132.17C136.803 133.424 135.967 135.497 135.096 137.709V131.761H130.246V131.77ZM159.21 155.666V153.175L159.254 126.919V123.549H165.211V155.666H159.21ZM171.942 131.77V155.666L177.342 155.849V143.117C177.481 140.626 177.664 138.362 179.789 136.751C180.895 135.828 182.001 135.688 182.514 135.688C183.76 135.688 184.544 136.237 184.918 136.559C186.3 137.773 186.345 139.402 186.394 141.179L186.398 141.358V155.849H191.563V139.564C191.551 139.491 191.543 139.345 191.532 139.15V139.15C191.5 138.604 191.446 137.672 191.24 136.882C190.981 135.812 190.601 135.059 190.402 134.665L190.361 134.582C189.899 133.799 189.298 133.058 188.61 132.545C187.957 132.083 186.529 131.256 184.317 131.204C180.538 131.204 178.778 133.564 178.047 134.757C177.629 135.392 177.167 136.281 176.889 136.925V131.761H171.942V131.77ZM195.246 136.246V131.77H198.477L199.078 125.299L203.415 124.977V131.709H208.213V136.185H203.459V148.229C203.546 149.526 203.729 150.031 204.147 150.537C205.15 151.73 206.977 151.558 208.453 151.419L208.483 151.416L208.44 155.849C208.051 155.864 207.66 155.886 207.27 155.908C206.55 155.948 205.83 155.988 205.113 155.988C203.093 155.988 201.29 155.762 199.949 154.325C198.581 152.956 198.392 151.442 198.159 149.567L198.155 149.535V136.246H195.246ZM232.11 144.493C232.11 142.647 232.066 140.67 231.605 138.911L231.588 138.855C231.399 138.233 231.019 136.98 230.081 135.636C227.364 131.665 223.297 131.247 221.59 131.247C216.652 131.247 212.82 134.243 211.34 138.858C210.695 140.975 210.652 143.056 210.652 143.831C210.652 150.519 213.325 153.341 215.868 154.821C218.176 156.154 220.388 156.293 221.407 156.293C224.917 156.293 228.278 154.769 230.264 151.913C231.047 150.754 231.701 149.187 231.831 148.865L226.893 148.081C226.711 148.629 226.519 149.1 226.205 149.605C225.187 151.085 223.488 152.008 221.729 152.008C221.033 152.008 219.883 151.921 218.638 150.815C216.742 149.135 216.521 146.916 216.429 145.991C216.425 145.947 216.421 145.906 216.417 145.869C216.365 145.407 216.321 144.954 216.321 144.536L232.11 144.493ZM216.191 141.044C216.33 139.79 216.426 139.424 216.696 138.78C217.436 136.794 218.864 135.915 219.604 135.549C219.883 135.401 220.615 135.088 221.494 135.088C222.043 135.088 223.105 135.183 224.307 136.106C226.057 137.395 226.38 139.006 226.71 141.044H216.191ZM236.734 155.805V123.366H242.316V155.805H236.734ZM248.099 123.366V155.805H253.681V123.366H248.099ZM259.376 155.753V131.77H264.871V155.753H259.376ZM259.516 129.131V123.418H264.819V129.131H259.516ZM292.983 127.102C289.848 127.006 288.594 127.241 287.401 128.112C286.103 129.131 285.737 130.289 285.276 131.804C283.569 131.43 282.506 131.204 280.704 131.204C278.169 131.204 275.452 131.578 273.415 133.05C271.708 134.347 270.741 136.281 270.741 138.406C270.741 141.614 272.919 143.189 273.887 143.888C273.936 143.924 273.982 143.957 274.024 143.988C272.727 144.763 271.481 145.555 270.741 146.844C270.558 147.123 270.192 147.811 270.192 148.734C270.192 150.45 271.13 151.505 272.209 152.719L272.274 152.792C270.428 153.95 269.87 154.543 269.365 155.657C268.947 156.528 268.947 157.225 268.947 157.634C268.947 160.543 271.168 162.067 271.943 162.476C272.866 162.981 273.606 163.216 274.024 163.303C275.174 163.582 277.534 164 280.53 164C285.006 164 287.453 163.216 289.247 162.197C292.434 160.403 292.939 157.904 292.939 156.336C292.939 153.846 291.372 151.773 289.108 150.754C287.496 150.066 285.093 149.875 281.174 149.788L280.854 149.788L280.583 149.788C278.534 149.791 277.7 149.793 276.558 149.37C275.165 148.865 274.852 147.846 274.852 147.201C274.852 146.226 275.54 145.634 275.775 145.451C275.84 145.386 275.914 145.321 275.993 145.252C276.084 145.172 276.182 145.087 276.28 144.989C278.683 145.581 279.554 145.677 280.939 145.677C284.631 145.677 287.174 144.197 288.28 143.326C290.405 141.575 290.64 139.311 290.64 138.292C290.64 136.263 289.804 134.922 289.299 134.373C288.82 133.853 288.458 133.575 287.909 133.154L287.819 133.085C288.054 132.623 288.28 132.249 288.655 131.926C289.665 131.09 291.607 131.143 292.992 131.186V127.102H292.983ZM274.669 154.194C277.926 154.794 279.323 154.805 282.167 154.826L282.168 154.826C282.586 154.83 283.035 154.833 283.525 154.839C285.598 154.882 286.521 155.204 287.253 155.892C287.853 156.493 287.897 157.051 287.897 157.373C287.897 158.662 286.791 159.585 285.633 160.003C284.205 160.508 282.036 160.508 281.714 160.508C277.656 160.508 275.296 159.672 274.233 158.148C274.05 157.913 273.641 157.225 273.641 156.302C273.65 155.344 274.024 154.882 274.669 154.194ZM276.323 137.996C276.506 136.838 277.333 134.487 280.66 134.487C282.411 134.487 283.386 135.088 283.848 135.497C285.006 136.472 285.093 137.944 285.093 138.501C285.093 140.025 284.318 142.516 280.704 142.516C278.727 142.516 277.02 141.593 276.463 139.79C276.236 139.006 276.28 138.362 276.323 137.996ZM316.339 138.911C316.792 140.67 316.844 142.647 316.844 144.493L301.056 144.536C301.056 144.886 301.092 145.26 301.13 145.643C301.137 145.718 301.144 145.793 301.151 145.869C301.155 145.9 301.159 145.934 301.163 145.969L301.169 146.029C301.27 146.976 301.502 149.158 303.372 150.815C304.618 151.921 305.767 152.008 306.464 152.008C308.223 152.008 309.921 151.085 310.94 149.605C311.253 149.1 311.445 148.629 311.628 148.081L316.566 148.865C316.435 149.187 315.782 150.754 314.998 151.913C313.013 154.769 309.651 156.293 306.142 156.293C305.123 156.293 302.911 156.154 300.603 154.821C298.06 153.341 295.386 150.519 295.386 143.831C295.386 143.056 295.43 140.975 296.074 138.858C297.555 134.243 301.387 131.247 306.316 131.247C308.031 131.247 312.098 131.665 314.815 135.636C315.753 136.98 316.134 138.233 316.322 138.855L316.339 138.911ZM301.43 138.78C301.16 139.424 301.064 139.79 300.925 141.044H311.445C311.114 139.006 310.792 137.395 309.041 136.106C307.84 135.183 306.777 135.088 306.229 135.088C305.349 135.088 304.618 135.401 304.339 135.549C303.599 135.915 302.162 136.794 301.43 138.78ZM321.556 131.77V155.666L326.955 155.849V143.117C327.094 140.626 327.286 138.362 329.402 136.751C330.517 135.828 331.623 135.688 332.128 135.688C333.373 135.688 334.157 136.237 334.531 136.559C335.921 137.779 335.959 139.42 336 141.208L336.003 141.358V155.849H341.176V139.564C341.165 139.492 341.157 139.35 341.145 139.16C341.113 138.615 341.058 137.676 340.845 136.882C340.594 135.811 340.214 135.057 340.015 134.664L340.015 134.663L340.015 134.663L340.015 134.663L339.974 134.582C339.513 133.799 338.912 133.058 338.224 132.545C337.579 132.083 336.151 131.256 333.931 131.204C330.151 131.204 328.392 133.564 327.652 134.757C327.234 135.392 326.781 136.281 326.502 136.925V131.761H321.556V131.77ZM366.088 139.687L366.091 139.703L361.371 140.391C361.232 139.651 361.049 138.954 360.727 138.31C359.621 136.141 357.635 135.863 356.756 135.863C355.833 135.863 354.222 136.141 352.976 138.031C352.236 139.233 351.687 140.983 351.687 144.214C351.687 146.435 352.149 149.195 353.899 150.632C354.309 151.007 355.275 151.651 356.799 151.651C357.313 151.651 358.193 151.608 359.116 151.007C360.5 150.084 361.101 148.751 361.746 147.227L366.039 147.645L366.031 147.688C365.846 148.716 365.458 150.863 363.731 153.001C362.948 153.915 362.216 154.473 361.885 154.699C361.006 155.257 359.159 156.267 356.346 156.267C355.336 156.267 352.428 156.075 350.068 154.151C349.745 153.872 349.144 153.315 348.5 152.391C347.49 150.963 346.009 148.142 346.009 143.761C346.009 142.464 346.105 138.632 348.413 135.453C349.38 134.069 351.879 131.299 356.538 131.299C358.245 131.299 362.765 131.709 364.985 136.281C365.665 137.649 365.988 139.205 366.088 139.687ZM390.388 144.493C390.388 142.647 390.345 140.67 389.883 138.911C389.87 138.87 389.856 138.825 389.841 138.778L389.841 138.778C389.639 138.133 389.26 136.926 388.359 135.636C385.642 131.665 381.584 131.247 379.868 131.247C374.931 131.247 371.108 134.243 369.627 138.858C368.983 140.975 368.939 143.056 368.939 143.831C368.939 150.519 371.613 153.341 374.147 154.821C376.455 156.154 378.667 156.293 379.685 156.293C383.195 156.293 386.565 154.769 388.542 151.913C389.326 150.754 389.979 149.187 390.11 148.865L385.172 148.081C384.989 148.629 384.806 149.1 384.484 149.605C383.474 151.085 381.767 152.008 380.008 152.008C379.32 152.008 378.161 151.921 376.916 150.815C375.046 149.158 374.814 146.976 374.713 146.029C374.707 145.971 374.701 145.917 374.695 145.869L374.693 145.841V145.841C374.65 145.389 374.608 144.946 374.608 144.536L390.388 144.493ZM374.478 141.044C374.617 139.79 374.704 139.424 374.983 138.78C375.714 136.794 377.151 135.915 377.883 135.549C378.161 135.401 378.902 135.088 379.773 135.088C380.33 135.088 381.384 135.183 382.585 136.106C384.336 137.395 384.667 139.006 384.989 141.044H374.478ZM401.239 149.57V155.753H395.335V149.57H401.239Z" fill="#737F85"/></g><defs><clipPath id="clip0_41_4001"><rect width="402" height="164" fill="white"/></clipPath></defs></svg>