<svg width="108" height="32" viewBox="0 0 108 32" fill="none" xmlns="http://www.w3.org/2000/svg">
<path d="M4.05222 23.8728C4.05222 29.0485 8.57253 31.2777 12.6748 31.2777H22.3165C27.4693 31.2777 31.5124 26.4607 31.5124 21.6658C31.5124 16.4631 27.4217 12.3517 22.2909 12.2149H12.9417C10.4309 11.8002 10.5807 8.15837 12.9417 7.81725H30.499C30.499 3.76427 27.4693 0.570023 23.23 0.570023H12.9417C7.65081 0.570023 4 5.16863 4 10.0803C4 15.1872 7.95023 19.4762 12.9417 19.4762H22.3165C24.6904 19.9459 24.9875 23.3364 22.3165 23.8727H4.05222V23.8728Z" fill="#097CBC"/>
<path d="M41.4245 0.56778H34.2194V31.2789H41.4245V0.56778Z" fill="#097CBC"/>
<path d="M74.1961 23.513C71.5477 28.5626 66.2973 32 60.275 32C51.5794 32 44.531 24.8356 44.531 15.9994C44.531 7.16198 51.5794 0 60.275 0C66.2393 0 71.4281 3.36834 74.1009 8.33742L67.6486 11.8413C66.2057 9.16346 63.4162 7.3805 60.2752 7.3805C55.6946 7.3805 51.8628 11.1729 51.8628 15.9994C51.8628 20.8259 55.6947 24.6195 60.2752 24.6195C63.4813 24.6195 66.337 22.7618 67.7531 19.9917L74.1961 23.513Z" fill="#097CBC"/>
<path d="M76.9147 0.56778V31.2789H84.2V19.3795H86.7606L94.4291 31.2778H103.393L93.2218 16.1173L103.544 0.56778H94.5824L87.0069 12.8845H84.2V0.56778H76.9147Z" fill="#097CBC"/>
</svg>
