<svg xmlns="http://www.w3.org/2000/svg" width="24" height="24" viewBox="0 0 24 24" fill='currentColor'><path d="M12 2.75q1.144 0 1.957.813.812.812.812 1.956t-.812 1.957A2.67 2.67 0 0 1 12 8.289q-1.144 0-1.957-.813a2.67 2.67 0 0 1-.812-1.957q0-1.144.812-1.957A2.67 2.67 0 0 1 12 2.75m.002 6.461q1.08 0 2.137.256t1.905.708q.873.446 1.405 1.042.532.595.532 1.306v5.343q0 .392-.182.774t-.501.706a4.6 4.6 0 0 1-.749.598 6.6 6.6 0 0 1-.957.506v-2.073q0-.875-1.209-1.428-1.208-.553-2.383-.553a5.5 5.5 0 0 0-2.22.47q-1.076.468-1.322 1.226a7.3 7.3 0 0 0 1.854.487q.96.12 1.944.136.16 0 .326-.005.164-.004.341-.004v2.388q-.159.04-.33.04h-.352a12 12 0 0 1-1.903-.17 9.6 9.6 0 0 1-2.04-.558q-.969-.387-1.624-1.012a2.04 2.04 0 0 1-.655-1.532v-5.339q0-.71.532-1.306t1.38-1.042a8.4 8.4 0 0 1 1.927-.708A9 9 0 0 1 12 9.211m0 5.539q.761 0 1.304-.542.542-.543.542-1.304 0-.762-.542-1.304A1.78 1.78 0 0 0 12 11.058q-.761 0-1.304.542a1.78 1.78 0 0 0-.542 1.304q0 .76.542 1.304.542.542 1.304.542"/></svg>