<svg xmlns="http://www.w3.org/2000/svg" width="24" height="24" viewBox="0 0 24 24" fill='currentColor'><path d="m19.27 21.5-3.645-3.654 1.044-1.069 1.85 1.834v-4.505h1.5v4.506l1.85-1.825 1.044 1.06zm-16.77 0v-19h9.75l5.25 5.25v4.644h-2.98V21.5zm9-13H16L11.5 4zM5.48 18.615h9.04a4.4 4.4 0 0 0-.673-2.032 4.3 4.3 0 0 0-1.537-1.467l.858-1.537a.28.28 0 0 0 .016-.201.24.24 0 0 0-.14-.16.24.24 0 0 0-.184-.026.21.21 0 0 0-.144.115l-.883 1.577a5.3 5.3 0 0 0-.898-.278 4.4 4.4 0 0 0-1.864.002 6 6 0 0 0-.904.276l-.878-1.576q-.051-.106-.153-.116a.4.4 0 0 0-.209.04q-.01 0-.09.347l.863 1.537a4.35 4.35 0 0 0-1.54 1.467 4.4 4.4 0 0 0-.68 2.032m2.491-1.355a.43.43 0 0 1-.316-.136.434.434 0 0 1 0-.633.434.434 0 0 1 .628 0q.13.135.13.317 0 .18-.132.316a.42.42 0 0 1-.31.136m4.068 0a.43.43 0 0 1-.317-.136.434.434 0 0 1 0-.633.434.434 0 0 1 .633 0 .434.434 0 0 1 0 .633.43.43 0 0 1-.316.136"/></svg>