<svg xmlns="http://www.w3.org/2000/svg" width="24" height="24" viewBox="0 0 24 24" fill='currentColor'><path d="m13.077 20.846.86-8.429q-1.29-.336-2.001-.91a17 17 0 0 1-1.388-1.26l-.202-.203-2.73 2.706 2.23 2.52v5.576h-1.5v-4.923L6.89 14.512l.242 1.955-3.425 4.38-1.171-.918L5.52 16.09l-1.854-4.34 4.027-3.978q.262-.261.581-.392.32-.13.646-.13.533 0 .84.2t.412.307L11.97 9.53a6 6 0 0 0 1.67 1.168q.956.455 2.167.455h2.84l.79 7.633q.336.16.55.48.214.318.214.733 0 .558-.39.952t-.956.394a1.34 1.34 0 0 1-.965-.394 1.28 1.28 0 0 1-.406-.952q0-.395.195-.71.195-.312.516-.484l-.163-1.556h-3.404l-.36 3.596zm-.48-13.5q-.759 0-1.303-.544A1.78 1.78 0 0 1 10.75 5.5q0-.758.544-1.302a1.78 1.78 0 0 1 1.302-.544q.758 0 1.302.544t.544 1.302-.544 1.302a1.78 1.78 0 0 1-1.302.544m2.153 8.712h3.171l-.379-3.712h-2.408z"/></svg>