<svg xmlns="http://www.w3.org/2000/svg" width="24" height="24" viewBox="0 0 24 24" fill='currentColor'><path d="M8.789 16.423q.504 0 .858-.353a1.17 1.17 0 0 0 .353-.86q0-.504-.353-.858A1.17 1.17 0 0 0 8.789 14q-.505 0-.859.353a1.17 1.17 0 0 0-.353.858q0 .505.353.859.354.353.859.353m0-6.423q.504 0 .858-.353.353-.354.353-.858 0-.505-.353-.859a1.17 1.17 0 0 0-.858-.353q-.505 0-.859.353a1.17 1.17 0 0 0-.353.859q0 .504.353.858.354.353.859.353m6.422 6.423q.505 0 .859-.353a1.17 1.17 0 0 0 .353-.859q0-.504-.353-.858a1.17 1.17 0 0 0-.86-.353q-.504 0-.858.353a1.17 1.17 0 0 0-.353.858q0 .505.353.859.354.353.858.353m0-6.423q.505 0 .859-.353.353-.354.353-.858 0-.505-.353-.859a1.17 1.17 0 0 0-.859-.353q-.504 0-.858.353a1.17 1.17 0 0 0-.352.86q0 .504.353.858.354.353.858.353M3.5 20.5v-17h17v17z"/></svg>