<svg xmlns="http://www.w3.org/2000/svg" width="24" height="24" viewBox="0 0 24 24" fill='currentColor'><path d="M9.404 21.654v-7.85l-4.85 4.85L3.5 17.6 9.1 12 3.5 6.4l1.054-1.054 4.85 4.85v-7.85h.75L15.508 7.7l-4.3 4.3 4.3 4.3-5.354 5.354zm1.5-11.458L13.4 7.7l-2.496-2.466zm0 8.57L13.4 16.3l-2.496-2.496zm5.723-4.782L14.673 12l1.954-1.954q.177.473.29.962.114.488.114.992 0 .505-.109 1-.108.496-.295.984m2.585 2.524-.962-.931q.442-.83.689-1.73A7 7 0 0 0 19.184 12q0-.945-.245-1.846a8.3 8.3 0 0 0-.689-1.731l.962-.962q.628 1.037.958 2.184T20.5 12t-.33 2.347q-.33 1.14-.959 2.16"/></svg>