<svg xmlns="http://www.w3.org/2000/svg" width="24" height="24" viewBox="0 0 24 24" fill='currentColor'><path d="M7.192 16.308h1.5V4h-1.5zM20.5 21.5H6.116a2.52 2.52 0 0 1-1.853-.763 2.52 2.52 0 0 1-.763-1.852V5.115q0-1.09.763-1.852A2.52 2.52 0 0 1 6.116 2.5h6.165a6.3 6.3 0 0 0-1.042 1.833q-.374 1.015-.374 2.167 0 2.585 1.714 4.459 1.713 1.875 4.229 2.132v4.717H6.116q-.465 0-.79.314a1.04 1.04 0 0 0-.326.78q0 .464.326.782.325.316.79.316H19v-7.04q.416-.096.785-.242.37-.145.715-.349zm-3-9.75q0-2.196 1.527-3.723Q20.555 6.5 22.75 6.5q-2.196 0-3.723-1.527Q17.5 3.445 17.5 1.25q0 2.196-1.527 3.723Q14.445 6.5 12.25 6.5q2.196 0 3.723 1.527Q17.5 9.555 17.5 11.75"/></svg>