<svg xmlns="http://www.w3.org/2000/svg" width="24" height="24" viewBox="0 0 24 24" fill='currentColor'><path d="M11.935 21.23a8.5 8.5 0 0 1-1.884-.206 9.3 9.3 0 0 1-1.653-.528q-1.064-.46-1.73-1.118Q6 18.72 6 17.912v-5.336q0-.717.541-1.318.541-.6 1.393-1.063a8.2 8.2 0 0 1 1.932-.713 9.2 9.2 0 0 1 4.268 0 8.2 8.2 0 0 1 1.931.713q.876.462 1.405 1.063.53.6.53 1.317v5.338q0 .393-.172.762-.172.37-.495.692-.321.324-.755.612-.435.288-.96.519.024-.116.074-.647 0-1.34-.947-2.288a3.1 3.1 0 0 0-2.283-.948q-.996 0-1.76.527-.763.528-1.15 1.36.733.2 1.346.265.614.066 1.076.066.393 0 .636-.025.244-.025.313-.025v2.398a5 5 0 0 1-.499.042q-.243.008-.49.008m2.832-5.076q.76 0 1.304-.542a1.77 1.77 0 0 0 .544-1.302 1.78 1.78 0 0 0-.543-1.304 1.78 1.78 0 0 0-1.307-.545q-.763 0-1.303.544-.54.543-.539 1.307 0 .763.541 1.303t1.303.539M12 8.308q1.155 0 1.961-.8.808-.8.808-1.973 0-1.15-.808-1.958A2.67 2.67 0 0 0 12 2.769q-1.178 0-1.973.808a2.7 2.7 0 0 0-.795 1.962q0 1.168.796 1.969.795.8 1.973.8"/></svg>