<svg xmlns="http://www.w3.org/2000/svg" width="24" height="24" viewBox="0 0 24 24" fill='currentColor'><path d="M11.25 20.5V7.375h1.5V20.5zm-3.884-2.913v-7.308h1.5v7.308zm7.769 0v-7.308h1.5v7.308zM3.48 14.683v-1.5h1.5v1.5zm15.538 0v-1.5h1.5v1.5zM2.5 9.846v-1.5h.916q1.08 0 2.021-.535a4.1 4.1 0 0 0 1.5-1.453A5.8 5.8 0 0 1 9.085 4.26 5.83 5.83 0 0 1 12 3.5q1.57 0 2.915.76a5.8 5.8 0 0 1 2.149 2.098 4.03 4.03 0 0 0 1.486 1.454 4.03 4.03 0 0 0 2.034.534h.916v1.5h-.9q-1.48 0-2.77-.722a5.4 5.4 0 0 1-2.043-1.986 4.26 4.26 0 0 0-1.604-1.57A4.4 4.4 0 0 0 12 5q-1.15 0-2.158.567a4.26 4.26 0 0 0-1.604 1.571 5.5 5.5 0 0 1-2.052 1.986 5.6 5.6 0 0 1-2.77.722z"/></svg>