<svg xmlns="http://www.w3.org/2000/svg" width="24" height="24" viewBox="0 0 24 24" fill='currentColor'><path d="M18.575 21.5q-2.913 0-5.803-1.297t-5.279-3.691q-2.39-2.396-3.691-5.286Q2.5 8.335 2.5 5.425V4.5h5.17l.886 4.554-2.773 2.692q.617 1.08 1.32 2.009.704.927 1.49 1.697a14 14 0 0 0 1.697 1.479q.935.696 2.08 1.338l2.755-2.803 4.375.89V21.5zM16.752 12q-1.971 0-3.361-1.389Q11.999 9.222 12 7.251t1.389-3.36Q14.778 2.5 16.749 2.5t3.36 1.389 1.391 3.36-1.389 3.36q-1.389 1.392-3.36 1.391m-.444-1.808h.884V6.404h-.884zm-.058-4.846h1v-1h-1z"/></svg>