<svg xmlns="http://www.w3.org/2000/svg" width="24" height="24" viewBox="0 0 24 24" fill='currentColor'><path d="m19.03 22.062-3.46-3.387q.199.2.324.475t.125.6q0 .633-.443 1.076a1.47 1.47 0 0 1-1.077.443q-.634 0-1.076-.443a1.47 1.47 0 0 1-.442-1.077q0-.634.443-1.076a1.47 1.47 0 0 1 1.076-.442q.29 0 .542.092t.452.277l-1.485-1.5q-.97.18-1.596.913a2.6 2.6 0 0 0-.625 1.737q0 .204.023.381.024.176.095.369H9.442v-7.996L8.25 11.312V20.5H5.5V8.53L1.67 4.7l1.053-1.054 17.361 17.362zm-4.53-9.489L9.417 7.5H13V4h-1.808V2.5H14.5z"/></svg>