<svg xmlns="http://www.w3.org/2000/svg" width="24" height="24" viewBox="0 0 24 24" fill='currentColor'><path d="M4.327 19.673v-1.5h2.908q-1.535-1.33-2.26-2.862a7.55 7.55 0 0 1-.725-3.273q0-2.626 1.551-4.673Q7.351 5.32 9.75 4.596v1.58Q7.98 6.86 6.865 8.46a6.1 6.1 0 0 0-1.115 3.58q0 1.436.59 2.646.591 1.21 1.871 2.342v-2.739h1.5v5.385zM15 19.75q-1.135 0-1.942-.808A2.65 2.65 0 0 1 12.25 17q0-1.104.753-1.894t1.914-.84a3.45 3.45 0 0 1 1.205-1.454q.81-.562 1.878-.562 1.277 0 2.21.838.934.84 1.105 2.162h.154q.944 0 1.613.648.668.648.668 1.577 0 .944-.653 1.61a2.15 2.15 0 0 1-1.597.665zm3.15-8.885a6.2 6.2 0 0 0-.757-1.996q-.543-.914-1.604-1.886V9.71h-1.5V4.327h5.384v1.5h-2.908q1.335 1.18 2.008 2.417t.892 2.621z"/></svg>