<svg xmlns="http://www.w3.org/2000/svg" width="24" height="24" viewBox="0 0 24 24" fill='currentColor'><path d="M11.837 18.27v1.595h-1.5v-6.157l1.542-4.4h8.304l1.538 4.4v6.157h-1.5V18.27zm.115-5.54h8.154l-.777-2.23h-6.6zm1.115 3.674q.4 0 .672-.271.27-.27.27-.671t-.27-.672a.9.9 0 0 0-.672-.27q-.4 0-.67.27a.9.9 0 0 0-.272.672q0 .4.271.671.27.27.671.27m5.924 0q.4 0 .67-.271a.9.9 0 0 0 .272-.671q0-.401-.271-.672a.9.9 0 0 0-.671-.27q-.4 0-.672.27a.9.9 0 0 0-.27.672q0 .4.27.671.27.27.672.27M4.279 19.75v-.654l1.346-1.346q-1.327 0-2.336-.745-1.01-.745-1.01-2.005V6.75q0-1.332 1.485-1.916 1.485-.585 4.765-.584 3.374 0 4.811.568 1.44.57 1.439 1.932v1.173h-1.5V6.75h-9.5v6.5h5.173v6.5zm.75-3.808q.4 0 .671-.27A.9.9 0 0 0 5.971 15q0-.4-.27-.671a.9.9 0 0 0-.672-.271q-.4 0-.671.27a.9.9 0 0 0-.271.672q0 .4.27.672.272.27.672.27"/></svg>