<svg xmlns="http://www.w3.org/2000/svg" width="24" height="24" viewBox="0 0 24 24" fill='currentColor'><path d="M10 5.904q-.761 0-1.304-.543a1.78 1.78 0 0 1-.542-1.303q0-.762.542-1.304A1.78 1.78 0 0 1 10 2.21q.761 0 1.304.543.542.542.542 1.304 0 .761-.542 1.303A1.78 1.78 0 0 1 10 5.904m6.5 12.25a2.56 2.56 0 0 0 1.88-.773 2.56 2.56 0 0 0 .774-1.881 2.56 2.56 0 0 0-.773-1.88 2.56 2.56 0 0 0-1.881-.774 2.56 2.56 0 0 0-1.88.773 2.56 2.56 0 0 0-.774 1.88q0 1.109.773 1.882a2.56 2.56 0 0 0 1.881.773m5.1 3.49-2.739-2.738a4.05 4.05 0 0 1-2.361.748q-1.731 0-2.942-1.212T12.346 15.5t1.212-2.942q1.21-1.212 2.942-1.212 1.731 0 2.942 1.212 1.212 1.21 1.212 2.942a4.05 4.05 0 0 1-.748 2.361l2.738 2.739zm-10.504.106v-2.92q.288.476.671.875.383.4.829.731v1.314zm-3.692 0V8.71a47 47 0 0 1-2.972-.343A28 28 0 0 1 1.5 7.77l.365-1.5a27 27 0 0 0 4.034.735q2.02.207 4.1.207t4.101-.207a27 27 0 0 0 4.034-.735l.366 1.5q-1.456.381-2.932.6a47 47 0 0 1-2.972.342v1.852a6.2 6.2 0 0 0-1.742 2.058 5.9 5.9 0 0 0-.69 2.706v.154q0 .077.015.153H8.904v6.116z"/></svg>