<svg xmlns="http://www.w3.org/2000/svg" width="24" height="24" viewBox="0 0 24 24" fill='currentColor'><path d="m12.5 21.135-.154-2.635H11.5q-3.338 0-5.67-2.33Q3.5 13.837 3.5 10.5t2.33-5.67Q8.163 2.5 11.5 2.5q1.67 0 3.12.624a8.1 8.1 0 0 1 2.542 1.714 8.1 8.1 0 0 1 1.714 2.542q.624 1.45.624 3.12 0 1.702-.53 3.268a12 12 0 0 1-1.46 2.931q-.928 1.364-2.212 2.492T12.5 21.135m-.996-5.362a.85.85 0 0 0 .624-.257.85.85 0 0 0 .256-.624.85.85 0 0 0-.256-.624.85.85 0 0 0-.624-.257.85.85 0 0 0-.624.257.85.85 0 0 0-.257.624.85.85 0 0 0 .257.624.85.85 0 0 0 .624.257m-.581-3.05h1.192q.02-.682.194-1.012.173-.328.945-1.1.44-.44.716-.927.276-.486.276-1.076 0-1.18-.805-1.807-.804-.628-1.922-.628-1.013 0-1.71.56a3.14 3.14 0 0 0-.997 1.348l1.111.434q.164-.435.533-.823t1.063-.388q.762 0 1.133.418.37.418.371.917 0 .463-.255.805a7 7 0 0 1-.633.721q-.798.693-1.005 1.164t-.207 1.394"/></svg>