<svg xmlns="http://www.w3.org/2000/svg" width="24" height="24" viewBox="0 0 24 24" fill='currentColor'><path d="m20.5 17.67-1.5-1.5V5h-2.5v2.615h-6.054L6.331 3.5h3.382q.208-.73.85-1.211.64-.48 1.437-.481.827 0 1.46.48.635.482.842 1.212H20.5zM12.002 5.115a.87.87 0 0 0 .643-.26.88.88 0 0 0 .259-.646.87.87 0 0 0-.26-.644.88.88 0 0 0-.646-.258.87.87 0 0 0-.643.26.88.88 0 0 0-.259.645q0 .385.26.644a.88.88 0 0 0 .646.259M16.862 19 5 7.14V19zM3.5 20.5V5.64L2.058 4.196l1.069-1.069 17.746 17.746-1.07 1.07-1.442-1.443z"/></svg>