<svg xmlns="http://www.w3.org/2000/svg" width="24" height="24" viewBox="0 0 24 24" fill='currentColor'><path d="M9.5 20.134v-2.442a.3.3 0 0 0-.086-.221.3.3 0 0 0-.222-.087H2.75v-1.5h6.442q.746 0 1.277.531T11 17.692v2.442zm3.5 0v-2.442q0-.746.531-1.277a1.74 1.74 0 0 1 1.277-.53h6.442v1.5h-6.442a.3.3 0 0 0-.222.086.3.3 0 0 0-.086.221v2.442zM6.25 14.5a2.65 2.65 0 0 1-1.948-.802A2.65 2.65 0 0 1 3.5 11.75V8.346h17v3.404q0 1.146-.802 1.948a2.65 2.65 0 0 1-1.948.802zM3.5 6.96v-1.5h5.75v-.71q0-.383.259-.644a.88.88 0 0 1 .65-.26h3.682a.88.88 0 0 1 .65.26.88.88 0 0 1 .259.644v.711h5.75v1.5z"/></svg>