<svg xmlns="http://www.w3.org/2000/svg" width="24" height="24" viewBox="0 0 24 24" fill='currentColor'><path d="m1.087 13.162.375-1.5h4.99l-.375 1.5zM7.25 19.5a2.65 2.65 0 0 1-1.947-.803A2.65 2.65 0 0 1 4.5 16.75H2.135l.5-2.088h4.617l.88-3.574h2.12l1.125-4.5H4.914l.227-.85q.12-.546.538-.892a1.5 1.5 0 0 1 .988-.346h11.237l-.867 3.75h2.502l2.855 3.808-.932 4.692h-1.578q0 1.145-.802 1.947a2.65 2.65 0 0 1-1.947.803 2.65 2.65 0 0 1-1.948-.803 2.65 2.65 0 0 1-.802-1.947H10a2.65 2.65 0 0 1-.803 1.947 2.65 2.65 0 0 1-1.947.803M3.087 9.589l.375-1.5h5.99l-.375 1.5zM7.25 18q.522 0 .886-.364t.364-.886-.364-.886a1.2 1.2 0 0 0-.886-.364q-.521 0-.885.364A1.2 1.2 0 0 0 6 16.75q0 .522.365.886.364.364.885.364m9.885 0q.52 0 .885-.364t.365-.886-.365-.886a1.2 1.2 0 0 0-.885-.364q-.522 0-.886.364a1.2 1.2 0 0 0-.364.886q0 .522.364.886t.886.364m-1.23-4.875h4.74l.138-.708-1.995-2.667h-2.096z"/></svg>