<svg xmlns="http://www.w3.org/2000/svg" width="24" height="24" viewBox="0 0 24 24" fill='currentColor'><path d="m18 21.673 2.77-2.77-.624-.622-1.704 1.704v-3.908h-.884v3.908l-1.704-1.704-.623.623zM12 11.14 5.825 7.57l-.816.462v.78L12 12.862l7-4.05v-.78l-.825-.462zm-8.5 5.698V7.164L12 2.277l8.5 4.887v5.52a6 6 0 0 0-1.207-.374A6.5 6.5 0 0 0 18 12.183q-2.775 0-4.734 1.958-1.958 1.959-1.958 4.734 0 .579.096 1.138t.298 1.081l.221.585zM18 23.375q-1.873 0-3.187-1.313-1.313-1.314-1.313-3.187t1.313-3.186T18 14.375t3.186 1.314 1.314 3.186q0 1.872-1.314 3.187-1.312 1.313-3.186 1.313"/></svg>