<svg xmlns="http://www.w3.org/2000/svg" width="24" height="24" viewBox="0 0 24 24" fill='currentColor'><path d="M7.8 17.5a6.2 6.2 0 0 1-2.255-.416 5.9 5.9 0 0 1-1.933-1.215 6.2 6.2 0 0 1-1.608-2.499 9 9 0 0 1-.504-2.995q0-1.719.825-2.797T4.735 6.5q.291 0 .566.053t.551.159L12 9.014l6.148-2.302q.277-.106.551-.159t.566-.053q1.585 0 2.41 1.078.825 1.077.825 2.797 0 1.545-.504 2.995a6.2 6.2 0 0 1-1.607 2.5 5.9 5.9 0 0 1-1.934 1.214 6.2 6.2 0 0 1-2.255.416q-1.515 0-2.641-.75L12.433 16h-.866l-1.126.75q-1.125.75-2.641.75m.925-3.616q.668 0 1.064-.308a1 1 0 0 0 .396-.826q-.01-.927-1.271-1.78-1.262-.854-2.639-.854-.668 0-1.059.308a1 1 0 0 0-.391.826q.01.937 1.266 1.786t2.634.848m6.55 0q1.378 0 2.638-.853 1.262-.855 1.271-1.781 0-.532-.388-.834-.389-.3-1.071-.3-1.368.009-2.629.858t-1.271 1.776q0 .517.384.826.382.309 1.066.308"/></svg>