<svg xmlns="http://www.w3.org/2000/svg" width="24" height="24" viewBox="0 0 24 24" fill='currentColor'><path d="M10.058 21.308V15.15l1.542-4.4h8.304l1.538 4.4v6.158h-1.5V19.71h-8.384v1.597zm1.615-7.135h8.154l-.777-2.23h-6.6zm1.116 3.673q.4 0 .67-.27a.9.9 0 0 0 .272-.672.9.9 0 0 0-.271-.672.9.9 0 0 0-.671-.27q-.401 0-.672.27a.9.9 0 0 0-.27.672q0 .4.27.671.27.27.672.27m5.923 0q.4 0 .671-.27.27-.272.27-.672t-.27-.672a.9.9 0 0 0-.671-.27q-.4 0-.672.27a.9.9 0 0 0-.27.672q0 .4.27.671.27.27.672.27M6.173 13.308v-1.77h1.77v1.77zm4.5-5.5v-1.77h1.77v1.77zm-4.5 9.5v-1.77h1.77v1.77zm0 4v-1.77h1.77v1.77zm-3.615 0V7.923h4.5v-5.5h9v6.211h-1.5V3.923h-6v5.5h-4.5v11.885z"/></svg>