<svg xmlns="http://www.w3.org/2000/svg" width="24" height="24" viewBox="0 0 24 24" fill='currentColor'><path d="M6.75 16.75a1.2 1.2 0 0 1-.892-.358A1.2 1.2 0 0 1 5.5 15.5q0-.519.358-.884.358-.366.892-.366.519 0 .885.366Q8 14.98 8 15.5q0 .535-.365.892a1.22 1.22 0 0 1-.885.358m0-7a1.2 1.2 0 0 1-.892-.358A1.2 1.2 0 0 1 5.5 8.5q0-.518.358-.884t.892-.366q.519 0 .885.366Q8 7.98 8 8.5q0 .535-.365.892a1.22 1.22 0 0 1-.885.358m3.5 3v-1.5h3.5v1.5zm6.556 4.99-1.227-.83a9.3 9.3 0 0 0 1.046-2.322A9 9 0 0 0 16.991 12a9 9 0 0 0-.529-3.105 9.3 9.3 0 0 0-1.483-2.649l1.14-.957a10.7 10.7 0 0 1 1.747 3.097q.624 1.71.624 3.614 0 1.608-.446 3.048t-1.238 2.692"/></svg>