<svg xmlns="http://www.w3.org/2000/svg" width="24" height="24" viewBox="0 0 24 24" fill='currentColor'><path d="M8.877 20.5H3.5v-5.377a2.95 2.95 0 0 0 1.763-.854A2.4 2.4 0 0 0 6 12.5q0-1.04-.737-1.768A2.95 2.95 0 0 0 3.5 9.877V4.5H9q.135-.954.835-1.573a2.43 2.43 0 0 1 1.665-.62 2.43 2.43 0 0 1 1.665.62q.7.62.835 1.573h5.5V10q.954.135 1.573.835a2.43 2.43 0 0 1 .62 1.665q0 .963-.62 1.664A2.5 2.5 0 0 1 19.5 15v5.5h-5.377q-.135-1.077-.879-1.789Q12.5 18 11.5 18t-1.744.711q-.745.712-.879 1.789"/></svg>