<svg xmlns="http://www.w3.org/2000/svg" width="24" height="24" viewBox="0 0 24 24" fill='currentColor'><path d="M9 16.25q-.525 0-.888-.362A1.2 1.2 0 0 1 7.75 15q0-.525.362-.887.363-.363.888-.363t.887.363.363.887-.363.888A1.2 1.2 0 0 1 9 16.25m6 0q-.525 0-.887-.362A1.2 1.2 0 0 1 13.75 15q0-.525.363-.887.362-.363.887-.363t.887.363.363.887-.363.888a1.2 1.2 0 0 1-.887.362M12 22q3.35 0 5.675-2.325T20 14q0-.6-.075-1.162a4.8 4.8 0 0 0-.275-1.088q-.525.125-1.05.188-.525.062-1.1.062a9.8 9.8 0 0 1-4.3-.975A10 10 0 0 1 9.75 8.3a9.9 9.9 0 0 1-2.288 3.388A9.8 9.8 0 0 1 4 13.85V14q0 3.35 2.325 5.675T12 22m.002 1.5q-1.972 0-3.706-.748a9.6 9.6 0 0 1-3.017-2.03 9.6 9.6 0 0 1-2.03-3.017A9.25 9.25 0 0 1 2.5 14q0-.56.066-1.11.067-.55.209-1.055A4.9 4.9 0 0 1 .97 10.06a4.77 4.77 0 0 1-.682-2.509q0-2.075 1.45-3.525t3.525-1.45q1.298 0 2.385.614a4.94 4.94 0 0 1 1.763 1.67q.612-.18 1.267-.27T12 4.5q1.972 0 3.705.747a9.6 9.6 0 0 1 3.016 2.03 9.6 9.6 0 0 1 2.03 3.016 9.25 9.25 0 0 1 .749 3.704q0 1.972-.748 3.706a9.6 9.6 0 0 1-2.03 3.017 9.6 9.6 0 0 1-3.016 2.03 9.25 9.25 0 0 1-3.704.75"/></svg>