<svg xmlns="http://www.w3.org/2000/svg" width="24" height="24" viewBox="0 0 24 24" fill='currentColor'><path d="m13.298 22.202-1.51-.294.79-4.213-3.657-2.739-1.367-6.017-2.633 2.265.781 3.704-1.51.294-.923-4.515 4.354-3.87q.517-.46 1.228-.359.71.102 1.378.373.838.36 1.735.514a5.8 5.8 0 0 0 1.8.03 4.2 4.2 0 0 0 1.554-.556q.72-.43 1.365-.961l.942 1.175q-.683.518-1.406.974a6.2 6.2 0 0 1-1.561.703 5.9 5.9 0 0 1-1.797.208 9 9 0 0 1-1.798-.254l.845 3.725 3.834-.72 4.902 3.489-.902 1.196-4.136-2.884-4.264.844 2.989 2.192zM8 5.423q-.758 0-1.302-.544a1.78 1.78 0 0 1-.544-1.302q0-.758.544-1.302A1.78 1.78 0 0 1 8 1.731q.758 0 1.302.544t.544 1.302-.544 1.302A1.78 1.78 0 0 1 8 5.423"/></svg>