<svg xmlns="http://www.w3.org/2000/svg" width="24" height="24" viewBox="0 0 24 24" fill='currentColor'><path d="M9.9 21.585a2.43 2.43 0 0 1-1.608-.577 2.48 2.48 0 0 1-.861-1.494q-.114-.652-.516-1.041t-1.065-.389q-.094 0-.193.013l-.178.022q-1.17.227-2.079-.536-.91-.765-.91-1.948 0-.887.577-1.593.577-.705 1.51-.876l3.161-.555 3.441-4.938a.5.5 0 0 0 .096-.346.5.5 0 0 0-.164-.308 2.08 2.08 0 0 1-.596-1.444q0-.838.551-1.402.552-.563 1.374-.563.525 0 .903.189t.559.33q.216.156.565.288.35.133.845.158.046-.606.406-1.11.36-.503.942-.719.897-.338 1.74.058t1.165 1.263l1.266 3.516q.337.929-.081 1.754-.42.825-1.23 1.101-.776.271-1.49.015A2.28 2.28 0 0 1 16.9 9.6h-.57a.6.6 0 0 0-.283.034.53.53 0 0 0-.236.178l-3.99 5.707.563 3.102q.228 1.17-.536 2.067-.763.896-1.948.896"/></svg>