<svg xmlns="http://www.w3.org/2000/svg" width="24" height="24" viewBox="0 0 24 24" fill='currentColor'><path d="M12 18.606q1.521 0 2.568-1.089t1.047-2.613v-4.289h-1.5v4.289q0 .901-.608 1.552-.609.65-1.507.65a2 2 0 0 1-1.499-.65 2.18 2.18 0 0 1-.617-1.552V9.423q0-.312.199-.526a.64.64 0 0 1 .484-.214q.303 0 .493.214t.19.526v5.48h1.5v-5.48q0-.925-.629-1.583a2.07 2.07 0 0 0-1.554-.657q-.924 0-1.553.657-.63.658-.63 1.583v5.48q0 1.526 1.056 2.614 1.054 1.089 2.56 1.089M4.5 21.5v-19h10.365L19.5 7.135V21.5zM14.116 4v3.885H18z"/></svg>