<svg xmlns="http://www.w3.org/2000/svg" width="24" height="24" viewBox="0 0 24 24" fill='currentColor'><path d="M10.941 11.942q-1.158 0-1.953-.795t-.796-1.953q0-1.137.796-1.944.794-.808 1.953-.808 1.136 0 1.943.808a2.65 2.65 0 0 1 .808 1.944q0 1.158-.808 1.953a2.67 2.67 0 0 1-1.943.795m5.175 5.616v-1.422a2.82 2.82 0 0 1-1.644-.925q-.654-.74-.664-1.769h.884q.01.767.556 1.307.544.54 1.311.54.765 0 1.31-.54t.554-1.307h.885q-.01 1.03-.665 1.769-.655.74-1.643.922v1.425zm.442-3.154q-.477 0-.806-.33a1.1 1.1 0 0 1-.329-.805v-1.846q0-.477.33-.806.328-.328.805-.328t.805.329q.33.328.33.805v1.846q0 .477-.33.806t-.805.329M2.5 21.5V16H4v4h4v1.5zM2.5 8V2.5H8V4H4v4zM16 21.5V20h4v-4h1.5v5.5zM20 8V4h-4V2.5h5.5V8zM5.192 17.558v-1.65q0-.465.234-.872a1.8 1.8 0 0 1 .635-.652q1.275-.75 2.7-1.075a9.8 9.8 0 0 1 2.916-.217q-.03.169-.046.33a4 4 0 0 0-.015.328q0 1.123.467 2.117a4.7 4.7 0 0 0 1.34 1.69z"/></svg>