<svg xmlns="http://www.w3.org/2000/svg" width="24" height="24" viewBox="0 0 24 24" fill='currentColor'><path d="M2.5 21.5V16H4v4h4v1.5zM2.5 8V2.5H8V4H4v4zM16 21.5V20h4v-4h1.5v5.5zM20 8V4h-4V2.5h5.5V8zm-8.001 3.942q-1.158 0-1.954-.795-.795-.795-.795-1.953 0-1.137.795-1.944.796-.808 1.954-.808 1.136 0 1.943.808a2.65 2.65 0 0 1 .808 1.944q0 1.158-.808 1.953a2.67 2.67 0 0 1-1.943.795M6.25 17.558v-1.65q0-.465.234-.872a1.8 1.8 0 0 1 .635-.652 9.5 9.5 0 0 1 2.345-.99A9.6 9.6 0 0 1 12 13.057q1.302 0 2.536.335a9.5 9.5 0 0 1 2.345.991q.4.244.635.652t.234.872v1.65z"/></svg>