<svg xmlns="http://www.w3.org/2000/svg" width="24" height="24" viewBox="0 0 24 24" fill='currentColor'><path d="m20.792 22.916-3.994-3.995v.387h-15v-2.223q0-.774.4-1.38a2.7 2.7 0 0 1 1.066-.943q1.425-.698 2.866-1.076 1.44-.378 3.168-.378a9.7 9.7 0 0 1 2.11.223L9.56 11.683a1 1 0 0 1-.131.01h-.131q-1.448 0-2.474-1.027a3.37 3.37 0 0 1-1.026-2.474v-.13q0-.062.01-.131L1.28 3.404l1.07-1.069 19.511 19.512zm-3.844-9.362q1.005.15 1.91.464.903.315 1.725.744.774.413 1.197.973.422.56.422 1.227v2.317h-.077l-3.51-3.51a4 4 0 0 0-.614-1.211 4.3 4.3 0 0 0-1.053-1.004m-3.023-2.475a5 5 0 0 0 .65-1.365q.223-.733.223-1.522 0-.934-.324-1.794a5.8 5.8 0 0 0-.903-1.582q.216-.078.431-.1.215-.024.43-.024 1.448 0 2.475 1.026a3.37 3.37 0 0 1 1.026 2.474q0 1.41-1.012 2.417-1.011 1.006-2.392 1.074zm-1.44-1.44L7.852 5.006q.342-.152.695-.233.353-.08.751-.08 1.449 0 2.474 1.025a3.37 3.37 0 0 1 1.026 2.474q0 .399-.08.751a4 4 0 0 1-.233.696"/></svg>