<svg xmlns="http://www.w3.org/2000/svg" width="24" height="24" viewBox="0 0 24 24" fill='currentColor'><path d="M9.298 11.692q-1.444 0-2.472-1.028T5.798 8.192t1.028-2.471 2.472-1.029 2.472 1.029 1.028 2.471-1.028 2.472-2.472 1.028M16.848 19q.915 0 1.526-.572.61-.572.626-1.582.015-.917-.61-1.535-.627-.619-1.543-.619t-1.535.62-.62 1.536.62 1.534 1.536.618m4.512 3.394-2.502-2.502a3.2 3.2 0 0 1-.934.456 3.7 3.7 0 0 1-1.078.152q-1.508 0-2.58-1.073-1.074-1.073-1.074-2.58 0-1.506 1.073-2.58 1.074-1.075 2.58-1.075t2.581 1.074 1.074 2.58q0 .565-.152 1.068t-.446.934l2.502 2.492zM1.797 19.308v-2.223q0-.774.4-1.38a2.7 2.7 0 0 1 1.065-.944q1.425-.697 2.867-1.075 1.44-.378 3.168-.378.705 0 1.382.068.678.069 1.334.21A5.7 5.7 0 0 0 11 16.847q0 .651.142 1.272.142.62.437 1.19zM17.933 8.192q0 1.444-1.029 2.472t-2.471 1.028q-.17 0-.431-.038a4 4 0 0 1-.43-.085q.591-.711.909-1.578a5.2 5.2 0 0 0-.007-3.593 5.8 5.8 0 0 0-.903-1.582q.216-.078.431-.1.215-.024.43-.024 1.444 0 2.472 1.029t1.029 2.471"/></svg>