<svg xmlns="http://www.w3.org/2000/svg" width="24" height="24" viewBox="0 0 24 24" fill='currentColor'><path d="M5.308 15.5q-1.445 0-2.472-1.028Q1.808 13.443 1.808 12t1.028-2.472T5.308 8.5 7.78 9.528 8.808 12 7.78 14.472 5.308 15.5m0-1.5q.824 0 1.412-.588.588-.587.588-1.412t-.588-1.412A1.93 1.93 0 0 0 5.308 10q-.825 0-1.413.588A1.93 1.93 0 0 0 3.308 12q0 .825.587 1.412.588.588 1.413.588m11.387 3.5q-2.291 0-3.897-1.604t-1.606-3.894 1.604-3.896T16.69 6.5t3.897 1.604 1.605 3.894-1.603 3.896-3.894 1.606"/></svg>