<svg xmlns="http://www.w3.org/2000/svg" width="24" height="24" viewBox="0 0 24 24" fill='currentColor'><path d="M1.75 18.5v-13h13v13zm15-7.5V5.5h5.5V11zm0 7.5V13h5.5v5.5zm-6.001-2.75q.52 0 .885-.364Q12 15.02 12 14.5t-.364-.885a1.2 1.2 0 0 0-.885-.366q-.52 0-.885.364a1.2 1.2 0 0 0-.366.885q0 .52.364.885.365.366.885.366M5.7 15.594l6.144-6.144L10.8 8.406 4.656 14.55zm.049-4.844q.52 0 .886-.364Q7 10.022 7 9.5q0-.52-.364-.885a1.2 1.2 0 0 0-.885-.366q-.52 0-.886.364A1.2 1.2 0 0 0 4.5 9.5q0 .52.364.885.364.366.885.366"/></svg>