<svg xmlns="http://www.w3.org/2000/svg" width="24" height="24" viewBox="0 0 24 24" fill='currentColor'><path d="M12 21.5q-3.677 0-6.38-2.426Q2.916 16.648 2.55 13h1.525q.365 3.026 2.63 5.012Q8.973 20 12 20q3.35 0 5.675-2.325T20 12t-2.325-5.675T12 4a7.8 7.8 0 0 0-4.15 1.159 7.8 7.8 0 0 0-2.923 3.177h2.958v1.5H2.758q.753-3.23 3.335-5.283T12 2.5q1.972 0 3.705.748a9.6 9.6 0 0 1 3.016 2.03 9.6 9.6 0 0 1 2.03 3.016 9.25 9.25 0 0 1 .749 3.704q0 1.972-.748 3.706a9.6 9.6 0 0 1-2.03 3.017 9.6 9.6 0 0 1-3.017 2.03A9.25 9.25 0 0 1 12 21.5m2.723-5.723-3.473-3.474V7.365h1.5v4.331l3.017 3.027z"/></svg>