<svg xmlns="http://www.w3.org/2000/svg" width="24" height="24" viewBox="0 0 24 24" fill='currentColor'><path d="M4.5 19.5v-9.461l-2.098 1.576-.887-1.18L12.026 2.5l10.484 7.935-.274.361a5 5 0 0 0-2.278-.747 5.3 5.3 0 0 0-2.457.403q-1.557-.633-3.097-.31-1.54.322-2.74 1.522t-1.522 2.734q-.32 1.534.311 3.102a4.7 4.7 0 0 0-.291.985q-.09.5-.078 1.015zm13 2.567q-1.089.755-2.26.68t-2.042-.945-.945-2.047q-.075-1.176.68-2.255-.755-1.089-.68-2.26t.945-2.042 2.047-.945q1.176-.075 2.255.68 1.089-.755 2.26-.68t2.042.945q.87.87.945 2.047.075 1.176-.68 2.255.755 1.089.68 2.26t-.945 2.042q-.87.87-2.047.945-1.176.075-2.255-.68m0-3.548a1 1 0 0 0 .724-.295 1 1 0 0 0 .295-.724 1 1 0 0 0-.295-.724 1 1 0 0 0-.724-.295 1 1 0 0 0-.724.295 1 1 0 0 0-.295.724q0 .429.295.724a1 1 0 0 0 .724.295"/></svg>