<svg xmlns="http://www.w3.org/2000/svg" width="24" height="24" viewBox="0 0 24 24" fill='currentColor'><path d="M6.98 8.192q-.709 0-1.21-.506a1.67 1.67 0 0 1-.5-1.215q0-.71.5-1.215a1.64 1.64 0 0 1 1.21-.506q.72 0 1.226.506.505.506.505 1.215t-.505 1.215a1.67 1.67 0 0 1-1.225.506M2.5 21.5v-9.192h2.904v-1.174q0-.776.53-1.301t1.306-.525q.423 0 .79.166t.66.468l1.362 1.512q.213.258.466.466t.536.388H21.5V21.5zm15.77-11.384.08-.581a2.2 2.2 0 0 0-.14-1.203 3.1 3.1 0 0 0-.687-1.028 4.7 4.7 0 0 1-1.008-1.52 3.6 3.6 0 0 1-.244-1.795l.05-.489h1.438l-.08.6q-.081.6.136 1.173.215.573.65.989.683.682 1.04 1.547.359.864.253 1.818l-.05.489zm-4.01 0 .08-.581a2.23 2.23 0 0 0-.145-1.213 3.1 3.1 0 0 0-.691-1.018 4.8 4.8 0 0 1-.998-1.52 3.6 3.6 0 0 1-.245-1.795l.05-.489h1.439l-.08.6q-.097.6.127 1.168.224.569.65.994.681.672 1.04 1.542.357.87.261 1.823l-.05.489zM16.683 20h2.433v-6.192h-2.433zm-3.933 0h2.433v-6.192H12.75zm-3.933 0h2.433v-6.192H8.817zm-3.932 0h2.432v-6.192H4.885z"/></svg>