<svg xmlns="http://www.w3.org/2000/svg" width="24" height="24" viewBox="0 0 24 24" fill='currentColor'><path d="M4.5 21.5V20h1.904v-3q0-1.689.924-3.074Q8.252 12.54 9.777 12q-1.525-.55-2.449-1.93A5.4 5.4 0 0 1 6.404 7V4H4.5V2.5h15V4h-1.904v3q0 1.488-.762 2.723-.763 1.235-2.011 1.8-.579.195-.936.649-.356.455-.527 1.172a6.1 6.1 0 0 0-1.511 2.092 6.3 6.3 0 0 0-.541 2.593q0 .93.258 1.811.256.88.747 1.66zM18 22.529q-1.873 0-3.187-1.314Q13.5 19.903 13.5 18.03t1.313-3.187T18 13.53t3.186 1.313Q22.5 16.156 22.5 18.03t-1.314 3.186Q19.874 22.53 18 22.53m-1.596-2.654h.884v-3.692h-.884zm2.308 0h.884v-3.692h-.884z"/></svg>