<svg xmlns="http://www.w3.org/2000/svg" width="24" height="24" viewBox="0 0 24 24" fill='currentColor'><path d="M6.001 22.75a2.65 2.65 0 0 1-1.948-.802 2.65 2.65 0 0 1-.803-1.947q0-1.145.802-1.948A2.65 2.65 0 0 1 6 17.25q.321 0 .63.08.31.08.585.214l1.983-2.467a3.7 3.7 0 0 1-.86-1.52 3.85 3.85 0 0 1-.096-1.69l-2.88-.953a2.9 2.9 0 0 1-.992.97q-.615.366-1.37.366a2.65 2.65 0 0 1-1.948-.802A2.65 2.65 0 0 1 .25 9.501q0-1.145.802-1.948a2.65 2.65 0 0 1 1.947-.803q1.145 0 1.948.802a2.65 2.65 0 0 1 .798 2.096 1 1 0 0 0-.005.12l2.871.997Q9.026 10 9.747 9.452a3.7 3.7 0 0 1 1.657-.704v-3.07a2.73 2.73 0 0 1-1.56-.975 2.67 2.67 0 0 1-.594-1.707q0-1.14.802-1.943A2.65 2.65 0 0 1 11.999.25q1.145 0 1.948.802T14.75 3q0 .954-.602 1.703-.601.75-1.552.976v3.07a3.7 3.7 0 0 1 1.652.703q.717.548 1.14 1.313l2.872-.998a1 1 0 0 1-.01-.124V9.5q0-1.146.802-1.948a2.65 2.65 0 0 1 1.947-.802q1.145 0 1.948.802.803.801.803 1.947t-.802 1.948A2.65 2.65 0 0 1 21 12.25q-.753 0-1.376-.366a2.74 2.74 0 0 1-.985-.97l-2.881.953a3.77 3.77 0 0 1-.956 3.2l1.983 2.452q.275-.125.584-.197.31-.072.63-.072 1.147 0 1.949.802a2.65 2.65 0 0 1 .802 1.947q0 1.145-.802 1.948a2.65 2.65 0 0 1-1.947.803 2.65 2.65 0 0 1-1.948-.802A2.65 2.65 0 0 1 15.25 20q0-.473.153-.91t.457-.803L13.877 15.8a3.6 3.6 0 0 1-1.88.508q-1.027 0-1.89-.508L8.14 18.286q.294.366.452.803T8.75 20q0 1.146-.802 1.948a2.65 2.65 0 0 1-1.947.802"/></svg>