<svg xmlns="http://www.w3.org/2000/svg" width="24" height="24" viewBox="0 0 24 24" fill='currentColor'><path d="m16.91 20.115-.204-1.182a4 4 0 0 1-.745-.296 3 3 0 0 1-.634-.468l-1.133.392-.769-1.257.929-.789a3 3 0 0 1-.117-.832q0-.428.117-.843l-.929-.798.77-1.257 1.132.392q.304-.286.638-.463a4.3 4.3 0 0 1 .74-.3l.205-1.183h1.5l.203 1.183q.406.114.736.296.33.18.643.467l1.133-.392.77 1.257-.93.798a2.84 2.84 0 0 1-.01 1.675l.94.789-.77 1.258-1.133-.393q-.313.286-.634.463a3.7 3.7 0 0 1-.745.3l-.203 1.183zM3.5 19.5v-17h17v7.246a4.7 4.7 0 0 0-.73-.305 6 6 0 0 0-.77-.193V4H5v9.308h4.2q.235.695.76 1.19.524.494 1.204.694a6.5 6.5 0 0 0 .259 2.276q.33 1.11 1.073 2.032zm14.16-1.75a2 2 0 0 0 1.465-.611 2 2 0 0 0 .611-1.466q0-.855-.611-1.465a2 2 0 0 0-1.465-.612q-.855 0-1.466.612a2 2 0 0 0-.611 1.465 2 2 0 0 0 .611 1.466q.611.61 1.466.611"/></svg>