<svg xmlns="http://www.w3.org/2000/svg" width="24" height="24" viewBox="0 0 24 24" fill='currentColor'><path d="M12.01 9.423q1.01 0 1.716-.707A2.34 2.34 0 0 0 14.433 7q0-1.01-.707-1.716a2.34 2.34 0 0 0-1.717-.707q-1.01 0-1.716.707A2.34 2.34 0 0 0 9.587 7q0 1.01.706 1.716a2.34 2.34 0 0 0 1.717.707m.03 13.115-3.348-3.297 1.693-1.856-1.721-1.914 1.596-1.779v-1.6a5.54 5.54 0 0 1-2.593-1.93Q6.644 8.8 6.644 7q0-2.25 1.558-3.808t3.807-1.557 3.808 1.557T17.375 7q0 1.862-1.054 3.201-1.054 1.34-2.562 1.891v8.696z"/></svg>