<svg xmlns="http://www.w3.org/2000/svg" width="24" height="24" viewBox="0 0 24 24" fill='currentColor'><path d="M20.529 22.667 1.358 3.496l1.069-1.07 19.171 19.172zM6.067 9.952a2.64 2.64 0 0 1-1.937-.806 2.63 2.63 0 0 1-.803-1.925q0-.79.414-1.432a2.7 2.7 0 0 1 1.075-.974l3.648 3.648q-.333.66-.974 1.074a2.57 2.57 0 0 1-1.423.415m16.312 9.534L11.442 8.581l.22-.72q.33-1.095 1.246-1.747a3.45 3.45 0 0 1 2.05-.653 3.4 3.4 0 0 1 2.019.64q.9.641 1.246 1.695zM1.65 19.5l3.162-6.208q.23-.451.65-.718a1.7 1.7 0 0 1 .936-.267q.543 0 .994.284.452.284.658.801l.598 1.439q.117.274.456.253.338-.022.437-.298l1.236-4.01L19.5 19.5z"/></svg>