<svg xmlns="http://www.w3.org/2000/svg" width="24" height="24" viewBox="0 0 24 24" fill='currentColor'><path d="M4.5 20.5v-17h9v8.308h2.77v7.5h2.307v-8.162q-.225.135-.475.187a2.6 2.6 0 0 1-.525.051 2.12 2.12 0 0 1-1.557-.635 2.12 2.12 0 0 1-.636-1.557q0-.742.424-1.322a2.04 2.04 0 0 1 1.119-.778L14.673 4.84l.838-.84 3.566 3.504q.337.336.514.78.178.443.178.908V20.5h-4.692V13H13.5v7.5zM6 10.25h6V5H6zm11.577-.058q.424 0 .712-.287a.97.97 0 0 0 .288-.713.97.97 0 0 0-.288-.712.97.97 0 0 0-.712-.288.97.97 0 0 0-.713.288.97.97 0 0 0-.287.712q0 .426.287.713.288.287.713.287"/></svg>