<svg xmlns="http://www.w3.org/2000/svg" width="24" height="24" viewBox="0 0 24 24" fill='currentColor'><path d="M15.944 18.106q.916 0 1.526-.572.61-.573.626-1.582.015-.917-.61-1.536-.627-.618-1.542-.618-.916 0-1.536.62t-.62 1.535.62 1.535 1.536.618m-.002 1.5q-1.508 0-2.58-1.073t-1.073-2.58 1.072-2.58q1.074-1.075 2.58-1.075t2.581 1.074 1.074 2.58q0 .564-.152 1.068-.152.503-.446.934l2.502 2.492-1.044 1.054-2.502-2.502a3.2 3.2 0 0 1-.934.456 3.7 3.7 0 0 1-1.078.152M3.5 20.494V5.416L9 3.539l6 2.1 5.5-2.133v8.833a5.8 5.8 0 0 0-2.034-1.653 5.68 5.68 0 0 0-4.216-.317V6.927l-4.5-1.573v12.729z"/></svg>