<svg xmlns="http://www.w3.org/2000/svg" width="24" height="24" viewBox="0 0 24 24" fill='currentColor'><path d="M5.308 19.5v-8q0-3.341 2.329-5.67Q9.965 3.5 13.306 3.5t5.671 2.329 2.33 5.669-2.329 5.671-5.67 2.331zm8-4.75q1.353 0 2.302-.948.948-.949.948-2.302t-.948-2.302q-.95-.948-2.302-.948-1.354 0-2.302.948-.948.949-.948 2.302t.948 2.302 2.302.948m-.002-1.5q-.729 0-1.239-.51a1.7 1.7 0 0 1-.51-1.241q0-.73.511-1.24t1.24-.509 1.24.51q.51.512.51 1.241t-.511 1.24-1.24.509M2.692 19.5V15h1.5v4.5z"/></svg>