<svg xmlns="http://www.w3.org/2000/svg" width="24" height="24" viewBox="0 0 24 24" fill='currentColor'><path d="M10.116 21.5v-5.77q0-1.178.426-2.19a5.7 5.7 0 0 1 1.17-1.771l.853.854a4.5 4.5 0 0 0-.926 1.4 4.4 4.4 0 0 0-.331 1.707v1.077H13.5V21.5zM21.5 18.727l-1.192-1.193V15.73q0-1.875-1.313-3.187-1.312-1.313-3.187-1.313-.404 0-.783.065a4 4 0 0 0-.748.208l-.92-.919a5.4 5.4 0 0 1 1.168-.406q.621-.14 1.283-.14 2.375 0 4.033 1.659T21.5 15.73zM7.97 15.203a1.8 1.8 0 0 1-.905-.66 1.77 1.77 0 0 1-.353-1.082q0-.77.538-1.308a1.78 1.78 0 0 1 1.543-.518q.11.021.236.06a8 8 0 0 0-.722 1.596 7.2 7.2 0 0 0-.338 1.778zm3.778-6.228L5.273 2.5h9.342v5.434a7 7 0 0 0-1.496.385q-.72.275-1.371.656M2.5 19.5V3.482h.925l6.727 6.727-.11.116a1 1 0 0 0-.086.115 3 3 0 0 0-.664-.241 3.2 3.2 0 0 0-.734-.084q-1.383 0-2.365.982a3.22 3.22 0 0 0-.981 2.364q0 1.244.776 2.15a3.34 3.34 0 0 0 1.935 1.133V19.5zm17.827 2.992L1.373 3.538l1.054-1.054 18.954 18.954z"/></svg>