<svg xmlns="http://www.w3.org/2000/svg" width="24" height="24" viewBox="0 0 24 24" fill='currentColor'><path d="M10 13.5q-1.048 0-1.774-.726A2.4 2.4 0 0 1 7.5 11V5q0-1.048.726-1.774A2.4 2.4 0 0 1 10 2.5q1.048 0 1.774.726T12.5 5v6q0 1.048-.726 1.774A2.4 2.4 0 0 1 10 13.5m.75 7.25h-1.5v-3.296q-2.475-.283-4.112-2.123T3.5 11H5q0 2.075 1.463 3.537Q7.925 16 10 16a4.4 4.4 0 0 0 .75-.062zm5.865-.962a.46.46 0 0 0 .34-.14.46.46 0 0 0 .141-.34.46.46 0 0 0-.14-.34.46.46 0 0 0-.34-.141.46.46 0 0 0-.341.14.46.46 0 0 0-.14.34q0 .201.14.341t.34.14m-.442-1.961h.885v-3.616h-.885zm.442 3.673q-1.872 0-3.186-1.314-1.314-1.312-1.313-3.186 0-1.873 1.313-3.187t3.186-1.313 3.187 1.313T21.115 17t-1.313 3.186-3.187 1.314"/></svg>