<svg xmlns="http://www.w3.org/2000/svg" width="24" height="24" viewBox="0 0 24 24" fill='currentColor'><path d="M2.5 19.5v-15h19v15zM4 18h10.5V6H4zm13.154-9.154h1.692V7.154h-1.692zM18 12.884a.85.85 0 0 0 .626-.258.85.85 0 0 0 .258-.626.85.85 0 0 0-.258-.626.85.85 0 0 0-.626-.258.85.85 0 0 0-.626.258.85.85 0 0 0-.258.626q0 .368.258.626a.85.85 0 0 0 .626.258m0 4a.85.85 0 0 0 .626-.258.85.85 0 0 0 .258-.626.85.85 0 0 0-.258-.626.85.85 0 0 0-.626-.258.85.85 0 0 0-.626.258.85.85 0 0 0-.258.626q0 .367.258.626a.85.85 0 0 0 .626.258m-7.5-1.134q-.542 0-.965-.22a11 11 0 0 1-.73-.41 6 6 0 0 0-.433-.273A.75.75 0 0 0 8 14.75a.93.93 0 0 0-.526.177 3 3 0 0 0-.414.327L5.98 14.2q.276-.261.797-.606.52-.344 1.223-.344.542 0 .951.223.408.224.714.413.245.17.453.267.21.097.382.097a.93.93 0 0 0 .526-.177q.26-.177.415-.327l1.078 1.054a6 6 0 0 1-.796.606q-.52.344-1.223.344m0-5a2.06 2.06 0 0 1-.965-.22 11 11 0 0 1-.73-.41 6 6 0 0 0-.433-.273A.75.75 0 0 0 8 9.75a.93.93 0 0 0-.526.177 3 3 0 0 0-.414.327L5.98 9.2q.276-.261.797-.606Q7.297 8.25 8 8.25q.542 0 .951.223.408.224.714.413.245.17.453.267.21.097.382.097a.93.93 0 0 0 .526-.177q.26-.177.415-.327L12.519 9.8a6 6 0 0 1-.796.606q-.52.345-1.223.344"/></svg>