<svg xmlns="http://www.w3.org/2000/svg" width="24" height="24" viewBox="0 0 24 24" fill='currentColor'><path d="M14.74 21.5v-4.769h1v-1q0-.787.55-1.335a1.82 1.82 0 0 1 1.335-.55q.787 0 1.335.55.55.548.55 1.335v1h.99v4.77zm1.885-4.769h2v-1a.97.97 0 0 0-.288-.713.97.97 0 0 0-.712-.287.97.97 0 0 0-.712.287.97.97 0 0 0-.288.713zM5.5 9.039q0-2.49 1.638-4.333t4.112-2.121v6.454zm7.25 0V2.585q2.474.279 4.113 2.121Q18.5 6.548 18.5 9.039zM12 21.5q-2.716 0-4.608-1.892T5.5 15v-4.46h13v1.273a4.6 4.6 0 0 0-.875-.08q-2.075-.002-3.537 1.461-1.463 1.464-1.463 3.538v4.723q-.156.03-.305.038a6 6 0 0 1-.32.008"/></svg>