<svg xmlns="http://www.w3.org/2000/svg" width="24" height="24" viewBox="0 0 24 24" fill='currentColor'><path d="M4.54 11.692q-.565 0-.937-.37a1.26 1.26 0 0 1-.372-.935q0-.566.37-.938t.935-.372.938.37.372.936-.37.937a1.26 1.26 0 0 1-.935.372M3.347 21.75v-4.5h-.884v-4.558h4.153v4.558h-.884v3h8.558v-5.558h-2q-1.574 0-2.662-1.083Q8.54 12.525 8.54 11q0-1.21.698-2.17a4.33 4.33 0 0 1 1.794-1.441q.169-1.606 1.335-2.651 1.164-1.046 2.673-1.046 1.507 0 2.673 1.046 1.164 1.045 1.334 2.65 1.096.482 1.794 1.442a3.6 3.6 0 0 1 .698 2.17q0 1.525-1.088 2.609-1.089 1.083-2.661 1.083h-2v5.558h5v1.5z"/></svg>