<svg xmlns="http://www.w3.org/2000/svg" width="24" height="24" viewBox="0 0 24 24" fill='currentColor'><path d="M9.173 20.289q-1.477 0-2.527-1.05t-1.05-2.527v-8.48q0-1.884 1.323-3.202 1.324-1.318 3.196-1.318h3.77q1.883 0 3.2 1.318 1.32 1.318 1.319 3.201v8.48q0 1.478-1.05 2.528t-2.527 1.05zm0-7.404a.85.85 0 0 0 .626-.259.85.85 0 0 0 .259-.626.85.85 0 0 0-.26-.626.85.85 0 0 0-.625-.258.85.85 0 0 0-.626.258.85.85 0 0 0-.259.626q0 .368.26.626.258.26.625.259m2.827 0a.85.85 0 0 0 .626-.259.85.85 0 0 0 .258-.626.85.85 0 0 0-.258-.626.85.85 0 0 0-.626-.258.85.85 0 0 0-.626.258.85.85 0 0 0-.259.626q0 .368.259.626a.85.85 0 0 0 .626.259m2.827 0a.85.85 0 0 0 .626-.259.85.85 0 0 0 .258-.626.85.85 0 0 0-.258-.626.85.85 0 0 0-.626-.258.85.85 0 0 0-.626.258.85.85 0 0 0-.259.626q0 .368.259.626a.85.85 0 0 0 .626.259"/></svg>