<svg xmlns="http://www.w3.org/2000/svg" width="24" height="24" viewBox="0 0 24 24" fill='currentColor'><path d="M12 19.711a3.3 3.3 0 0 1-2.421-1.002 3.3 3.3 0 0 1-1.002-2.42q0-1.42 1.002-2.422A3.3 3.3 0 0 1 12 12.865q1.419 0 2.421 1.002a3.3 3.3 0 0 1 1.002 2.421q0 1.419-1.002 2.421A3.3 3.3 0 0 1 12 19.711M4.002 8.62l-1.1-1.039a13.3 13.3 0 0 1 4.08-2.72Q9.296 3.865 12 3.865t5.018.995a13.3 13.3 0 0 1 4.08 2.72l-1.1 1.039a11.9 11.9 0 0 0-3.627-2.388A11.1 11.1 0 0 0 12 5.365q-2.326 0-4.371.866A11.9 11.9 0 0 0 4.002 8.62m12.75 3.108a7 7 0 0 0-2.164-1.382A6.9 6.9 0 0 0 12 9.865q-1.396 0-2.575.48a7.4 7.4 0 0 0-2.177 1.382l-1.1-1.039A9 9 0 0 1 8.841 8.97 8.3 8.3 0 0 1 12 8.365q1.68 0 3.151.604t2.686 1.72z"/></svg>