<svg xmlns="http://www.w3.org/2000/svg" width="24" height="24" viewBox="0 0 24 24" fill='currentColor'><path d="M9 21.5q-1.761 0-2.84-.976-1.08-.976-1.671-2.418a12 12 0 0 1-.791-3.092 25 25 0 0 1-.198-2.989q0-2.397.368-4.167.369-1.771 1.336-2.979.967-1.202 2.596-1.79 1.629-.59 4.2-.589 2.571 0 4.2.588 1.629.59 2.596 1.791.967 1.207 1.336 2.979.368 1.77.368 4.167 0 1.356-.198 2.99a12 12 0 0 1-.79 3.09q-.592 1.443-1.672 2.419-1.079.975-2.84.976zm7.01-8.971a.72.72 0 0 0 .53-.22.72.72 0 0 0 .22-.53q0-2.23-1.35-3.872-1.348-1.642-3.595-1.657a.68.68 0 0 0-.506.223.76.76 0 0 0-.213.543q0 .319.223.526.224.208.542.208 1.532 0 2.457 1.218.926 1.218.942 2.816 0 .32.215.532a.73.73 0 0 0 .534.213"/></svg>