<svg xmlns="http://www.w3.org/2000/svg" width="24" height="24" viewBox="0 0 24 24" fill='currentColor'><path d="M12 21.692q-.749 0-1.278-.53a1.74 1.74 0 0 1-.53-1.277h3.616q0 .747-.53 1.277t-1.278.53m-7.5-2.808v-1.5h1.808v-7.46q0-1.965 1.176-3.494a5.48 5.48 0 0 1 3.057-2.014 6.9 6.9 0 0 0-.489 2.527q0 1.548.621 2.844t1.688 2.206a6.9 6.9 0 0 0 2.438 1.345q1.37.434 2.893.219v3.829H19.5v1.5zm11.462-7.5-.204-1.192a4 4 0 0 1-.726-.291 3 3 0 0 1-.643-.463l-1.143.393-.769-1.258.92-.788a3.4 3.4 0 0 1-.108-.843q0-.42.107-.842l-.919-.788.77-1.258 1.142.392a2.6 2.6 0 0 1 .638-.462q.345-.177.73-.292l.204-1.192h1.5l.204 1.192q.387.115.731.292.344.176.639.462l1.142-.392.769 1.257-.92.789q.109.421.108.842 0 .422-.107.843l.919.788-.77 1.258-1.141-.393a3 3 0 0 1-.644.463 4 4 0 0 1-.726.291l-.203 1.192zm.75-2.365q.863 0 1.47-.607.607-.606.607-1.47 0-.862-.607-1.47a2 2 0 0 0-1.47-.607q-.864 0-1.47.607a2 2 0 0 0-.608 1.47q0 .864.607 1.47.607.607 1.47.607"/></svg>