<svg xmlns="http://www.w3.org/2000/svg" width="24" height="24" viewBox="0 0 24 24" fill='currentColor'><path d="M3.5 11.75v6.942q0 .758.525 1.283t1.283.525h13.384q.758 0 1.283-.525t.525-1.283V11.75h-4v4.75h-9v-4.75zM9 15h6v-3.25H9zm-5.5-4.75h17V5.308q0-.758-.525-1.283a1.75 1.75 0 0 0-1.283-.525H5.308q-.758 0-1.283.525T3.5 5.308zm4.48-2.154a.85.85 0 0 1-.625-.258.85.85 0 0 1-.259-.626q0-.368.259-.626a.85.85 0 0 1 .626-.259q.367 0 .626.258a.85.85 0 0 1 .258.627.85.85 0 0 1-.258.626.85.85 0 0 1-.626.258m4 0a.85.85 0 0 1-.625-.258.85.85 0 0 1-.259-.626q0-.368.259-.626a.85.85 0 0 1 .626-.259q.367 0 .626.258a.85.85 0 0 1 .258.627.85.85 0 0 1-.258.626.85.85 0 0 1-.626.258m4 0a.85.85 0 0 1-.625-.258.85.85 0 0 1-.259-.626q0-.368.259-.626a.85.85 0 0 1 .626-.259q.367 0 .626.258a.85.85 0 0 1 .258.627.85.85 0 0 1-.258.626.85.85 0 0 1-.626.258"/></svg>