<svg xmlns="http://www.w3.org/2000/svg" width="24" height="24" viewBox="0 0 24 24" fill='currentColor'><path d="M1.5 14H3v3.75q0 .52.365.885.363.365.885.365h2.17v-1h2.83v-1.25h1.5V18h2.5v-1.25h1.5V18h2.83v1h2.18q.52 0 .885-.365.364-.364.364-.885V14h1.5v3.75q0 1.145-.802 1.947a2.65 2.65 0 0 1-1.948.803h-2.178v1H6.419v-1H4.25a2.65 2.65 0 0 1-1.947-.803A2.65 2.65 0 0 1 1.5 17.75zM7 12.952a3.55 3.55 0 0 1-2.484-1.156A3.6 3.6 0 0 1 3.5 9.23q0-1.553 1.098-2.647A3.62 3.62 0 0 1 7.25 5.49h.942a.3.3 0 0 0 .222-.086.3.3 0 0 0 .086-.222V1.49h7v3.692a.3.3 0 0 0 .086.222.3.3 0 0 0 .222.086h.942q1.554 0 2.652 1.093A3.6 3.6 0 0 1 20.5 9.23q0 1.488-1.016 2.566A3.55 3.55 0 0 1 17 12.952h-2.402a3.2 3.2 0 0 0 .386-.517q.17-.28.275-.587.13-.377.46-.613A1.23 1.23 0 0 1 16.45 11H17V9.5h-.55q-.889 0-1.609.514a2.66 2.66 0 0 0-1 1.363 1.3 1.3 0 0 1-.414.63 1.5 1.5 0 0 1-.671.33h-1.512a1.5 1.5 0 0 1-.671-.33 1.3 1.3 0 0 1-.414-.63 2.66 2.66 0 0 0-1-1.363A2.7 2.7 0 0 0 7.55 9.5H7V11h.55q.403 0 .724.235.322.236.467.613.105.307.274.587.17.281.387.517z"/></svg>