<svg xmlns="http://www.w3.org/2000/svg" width="24" height="24" viewBox="0 0 24 24" fill='currentColor'><path d="M12.067 20.577q-2.145 0-3.733-1.404-1.59-1.404-1.788-3.523a4.7 4.7 0 0 1-2.774-1.673 4.67 4.67 0 0 1-1.08-3.036q0-1.95 1.352-3.32Q5.397 6.25 7.337 6.25h2.605q.306 0 .528-.222a.72.72 0 0 0 .222-.528.72.72 0 0 0-.222-.528.72.72 0 0 0-.528-.222h-2.25v-1.5h2.25q.945 0 1.598.653.652.652.652 1.597t-.652 1.597a2.17 2.17 0 0 1-1.598.653H7.337q-1.318 0-2.231.927-.915.927-.914 2.248 0 1.105.657 1.98A3.27 3.27 0 0 0 6.571 14.1q.323-2.019 1.836-3.343 1.512-1.324 3.553-1.324.49 0 .952.067.463.067.919.227a4.4 4.4 0 0 0-1.817 1.525 3.86 3.86 0 0 0-.697 2.24q0 .79.248 1.54.246.75.827 1.268l.522-.492a2.7 2.7 0 0 1-.648-1.043 3.8 3.8 0 0 1-.199-1.226q0-1.417.992-2.392.99-.974 2.408-.974 1.402 0 2.376.974t.974 2.36q0 .534-.169 1.043-.17.51-.517.915l2.688 2.424q.31.275.507.617t.197.752q0 .585-.497.951a1.88 1.88 0 0 1-1.147.368zM17 18.5a.85.85 0 0 0 .626-.259.85.85 0 0 0 .258-.626.85.85 0 0 0-.258-.625.85.85 0 0 0-.626-.26.85.85 0 0 0-.626.26.85.85 0 0 0-.258.625q0 .368.258.626A.85.85 0 0 0 17 18.5"/></svg>