<svg xmlns="http://www.w3.org/2000/svg" width="24" height="24" viewBox="0 0 24 24" fill='currentColor'><path d="M20.575 21.625q-3.775-.075-7.062-1.512t-5.738-3.888T3.888 10.5Q2.45 7.226 2.375 3.45a.96.96 0 0 1 .288-.762q.312-.313.762-.313h3.25q.425 0 .738.313.312.312.337.762.026 1 .15 1.862.125.862.4 1.638.1.3.025.612-.075.313-.3.538l-2.35 2.375q1.125 2.45 3.2 4.537 2.075 2.088 4.6 3.313l2.375-2.375q.225-.225.55-.313a.95.95 0 0 1 .625.038q.85.25 1.725.387.874.138 1.8.163.45.025.775.35t.325.775v3.225q0 .45-.312.75-.313.3-.763.3m-.425-9.5q0-3.45-2.4-5.85t-5.85-2.4v-1.5a9.5 9.5 0 0 1 3.8.762 9.8 9.8 0 0 1 3.088 2.075 9.9 9.9 0 0 1 2.087 3.1 9.5 9.5 0 0 1 .775 3.813zm-4 0q0-1.774-1.25-3.012t-3-1.238v-1.5q2.4 0 4.075 1.675t1.675 4.075z"/></svg>