<svg xmlns="http://www.w3.org/2000/svg" width="24" height="24" viewBox="0 0 24 24" fill='currentColor'><path d="M14.323 14.039q1.7 0 2.887-1.175a4.3 4.3 0 0 0 1.313-2.825q-1.7 0-2.913 1.175t-1.287 2.825m0 0q-.076-1.65-1.288-2.825t-2.912-1.175q.124 1.65 1.312 2.825t2.888 1.175m0-3q.424 0 .712-.288a.97.97 0 0 0 .288-.712v-.25l.25.1q.375.15.762.075a.83.83 0 0 0 .588-.425q.225-.375.15-.8t-.5-.599l-.25-.1.25-.099q.424-.173.492-.608a1.17 1.17 0 0 0-.142-.794q-.216-.366-.586-.438a1.33 1.33 0 0 0-.764.088l-.25.1v-.25a.97.97 0 0 0-.288-.713.97.97 0 0 0-.712-.287.97.97 0 0 0-.713.287.97.97 0 0 0-.287.713v.25l-.25-.1a1.33 1.33 0 0 0-.764-.088q-.37.072-.586.438-.21.36-.142.794.067.435.492.608l.25.1-.25.1q-.425.173-.5.598t.15.8q.2.35.587.425.388.075.763-.075l.25-.1v.25q0 .424.287.712.288.288.713.288m0-2a.97.97 0 0 1-.713-.288.97.97 0 0 1-.287-.712q0-.424.287-.713a.97.97 0 0 1 .713-.287q.424 0 .712.287.288.288.288.713 0 .424-.288.712a.97.97 0 0 1-.712.288M7.13 16.73V2.347h14.384V16.73zm-2.958 4.846L2.419 7.623l2.712-.292v11.4h13.188l.137 1.075z"/></svg>