<svg xmlns="http://www.w3.org/2000/svg" width="24" height="24" viewBox="0 0 24 24" fill='currentColor'><path d="m6.654 21.5-.75-.75v-4.135H2.5v-1.5l1.462-2.755V9.692H2.5v-1.5h8.308v1.5H9.346v2.668l1.462 2.756v1.5H7.404v4.134zM17.75 8a2.65 2.65 0 0 1-1.948-.802A2.65 2.65 0 0 1 15 5.251q0-1.145.802-1.948a2.65 2.65 0 0 1 1.947-.803q1.145 0 1.948.802a2.65 2.65 0 0 1 .803 1.947q0 1.146-.802 1.948A2.65 2.65 0 0 1 17.751 8m-4.68-2H2.5V4.5h10.571q-.03.183-.05.362a3.4 3.4 0 0 0 0 .766q.02.18.05.372m-.85 13.5V18H20V9.392q.446-.226.823-.532.375-.305.677-.687V19.5z"/></svg>