<svg xmlns="http://www.w3.org/2000/svg" width="24" height="24" viewBox="0 0 24 24" fill='currentColor'><path d="M12 21.48q-3.244-.885-5.372-3.819T4.5 11.1V5.346L12 2.538l7.5 2.808v4.77h-1.856v6.436l-2.675-2.675q.256-.428.394-.9.137-.471.137-.977 0-1.444-1.028-2.472T12 8.5 9.528 9.528 8.5 12t1.028 2.471T12 15.5q.505 0 .99-.143.483-.142.894-.427l3.143 3.143a12 12 0 0 1-2.234 2.111q-1.2.861-2.793 1.296M12 14q.825 0 1.412-.588Q14 12.824 14 12q0-.825-.588-1.413A1.93 1.93 0 0 0 12 10q-.825 0-1.412.587A1.93 1.93 0 0 0 10 12q0 .825.588 1.412Q11.175 14 12 14m8.634 7.5a.72.72 0 0 1-.534-.216.73.73 0 0 1-.216-.535q0-.318.216-.534a.73.73 0 0 1 .535-.215q.318 0 .534.215a.73.73 0 0 1 .215.535q0 .318-.215.534a.73.73 0 0 1-.535.216m-.75-3.693v-5.5h1.5v5.5z"/></svg>