<svg xmlns="http://www.w3.org/2000/svg" width="24" height="24" viewBox="0 0 24 24" fill='currentColor'><path d="M4.37 20.23v-2.307h3.06L4.863 9.515a2.77 2.77 0 0 1-1.08-1.004 2.7 2.7 0 0 1-.413-1.454q0-1.144.803-1.947a2.65 2.65 0 0 1 1.947-.803q.946 0 1.656.563t.971 1.437h3.431v-2h1.177l.2.516 2.244-2.09 4.979 2.344-.485 1.04-4.246-1.96-2.369 2.2v1.4l2.37 2.15 4.276-1.96.485 1.041-5.01 2.375-2.244-2.071-.246.515h-1.131v-2h-3.43q-.076.268-.206.52-.132.252-.31.461l4.923 9.135h3.715v2.307zM6.12 8.307q.52 0 .885-.364.364-.364.364-.886 0-.52-.364-.885a1.2 1.2 0 0 0-.886-.365q-.52 0-.885.365a1.2 1.2 0 0 0-.365.885q0 .522.365.886t.885.364"/></svg>