<svg xmlns="http://www.w3.org/2000/svg" width="24" height="24" viewBox="0 0 24 24" fill='currentColor'><path d="m9.411 9.45 2.062-3.387-1.37-2.267q-.27-.461-.794-.461t-.8.462L6.256 7.563zm8.934 6.28-2.05-3.41 3.205-1.847 1.475 2.463q.246.396.276.883.03.486-.201.898a1.74 1.74 0 0 1-.685.742q-.453.272-.984.272zm-2.653 6.462L12 18.5l3.692-3.692v1.846h4.385l-1.339 2.677q-.254.46-.692.738a1.8 1.8 0 0 1-.97.277h-1.384zm-8.934-1.846q-.462 0-.84-.238a1.45 1.45 0 0 1-.56-.634 1.7 1.7 0 0 1-.173-.776q.007-.405.215-.75l.785-1.294h3.969v3.692zm-2.283-2.629-1.5-3q-.216-.42-.198-.895.017-.474.269-.886l.365-.617-1.565-.948 5.052-1.27 1.27 5.078-1.591-.973zm12.461-7.896-5.053-1.269 1.592-.946-2.885-4.798h3.254q.485 0 .912.241.426.242.68.657l1.204 2.011 1.566-.973z"/></svg>