<svg xmlns="http://www.w3.org/2000/svg" width="24" height="24" viewBox="0 0 24 24" fill='currentColor'><path d="m11.99 21.239-7.742-7.777a6 6 0 0 1-.68-.81 5.5 5.5 0 0 1-.512-.902h8.829q.52 0 .88.365t.36.885q0 .522-.364.886a1.2 1.2 0 0 1-.886.364q-.36 0-.659-.177a1.07 1.07 0 0 1-.441-.51l-1.463.4q.303.804.998 1.295a2.64 2.64 0 0 0 1.565.492q1.145 0 1.947-.803A2.65 2.65 0 0 0 14.625 13q0-.36-.098-.666a2.7 2.7 0 0 0-.27-.584h1.618q1.145 0 1.947-.803A2.65 2.65 0 0 0 18.625 9q0-1.143-.803-1.947a2.65 2.65 0 0 0-1.947-.803 2.64 2.64 0 0 0-1.565.493q-.695.493-.998 1.294l1.463.4q.143-.33.441-.509.3-.178.659-.178.522 0 .886.365t.364.885q0 .522-.364.886a1.2 1.2 0 0 1-.886.364H2.627a5 5 0 0 1-.095-.53 4 4 0 0 1-.032-.54q0-2.364 1.511-4.041 1.512-1.677 3.743-1.677 1.113 0 2.118.446 1.005.447 1.792 1.267l.336.356.317-.336a5.5 5.5 0 0 1 1.79-1.282 5.1 5.1 0 0 1 2.114-.451q2.23 0 3.755 1.677T21.5 9.154q0 1.197-.444 2.307a6 6 0 0 1-1.304 1.986z"/></svg>