<svg xmlns="http://www.w3.org/2000/svg" width="24" height="24" viewBox="0 0 24 24" fill='currentColor'><path d="M11.98 14.5V12h2.5zm0 3.92v-1.693L16.718 12h1.693zm0 2.251L20.663 12h.838v.854L12.839 21.5h-.858zm3.1.829 6.42-6.42v1.684L16.773 21.5zm3.92 0 2.5-2.5v2.5zm1.198-11.692h-1.556a6.9 6.9 0 0 0-2.489-3.461Q14.353 5 12 5 9.075 5 7.038 7.037T5 12q0 1.954.962 3.545A6.9 6.9 0 0 0 8.5 18.03V15H10v5.5H4.5V19h2.83a8.5 8.5 0 0 1-2.781-2.957Q3.499 14.212 3.5 12q0-1.77.67-3.315a8.6 8.6 0 0 1 1.819-2.697A8.6 8.6 0 0 1 8.685 4.17 8.3 8.3 0 0 1 12 3.5q2.966 0 5.22 1.785 2.255 1.786 2.978 4.523"/></svg>