<svg xmlns="http://www.w3.org/2000/svg" width="24" height="24" viewBox="0 0 24 24" fill='currentColor'><path d="M15.846 21.923a.73.73 0 0 1-.534-.216.73.73 0 0 1-.216-.534q0-.32.216-.534a.73.73 0 0 1 .534-.216h2.866v-1.115h-2.866a.73.73 0 0 1-.534-.216.73.73 0 0 1-.216-.535q0-.318.216-.534a.73.73 0 0 1 .534-.215h2.866v-1.116h-2.866a.73.73 0 0 1-.534-.215.73.73 0 0 1-.216-.535q0-.319.216-.534a.73.73 0 0 1 .534-.216h2.866v-1.115h-2.866a.73.73 0 0 1-.534-.216.73.73 0 0 1-.216-.535q0-.318.216-.534a.73.73 0 0 1 .534-.215h2.866v-1.116h-2.866a.73.73 0 0 1-.534-.215.73.73 0 0 1-.216-.535q0-.318.216-.534a.73.73 0 0 1 .534-.216h2.866V8.846h-2.866a.73.73 0 0 1-.534-.216.73.73 0 0 1-.216-.534q0-.319.216-.534a.73.73 0 0 1 .534-.216h3.616q.728 0 1.24.559.51.558.51 1.288v10.98q0 .729-.51 1.24-.512.51-1.24.51zM8.404 15q1.65 0 2.825-1.625T12.404 9.5 11.23 5.625 8.404 4 5.579 5.625 4.404 9.5t1.175 3.875T8.404 15m0 6.923q-.98 0-1.59-.729a2.1 2.1 0 0 1-.485-1.688l.38-3.362q-1.67-.67-2.738-2.481-1.067-1.81-1.067-4.163 0-2.916 1.604-4.958T8.402 2.5t3.896 2.042T13.904 9.5q0 2.352-1.067 4.163-1.068 1.81-2.739 2.481l.38 3.362a2.05 2.05 0 0 1-.486 1.688 2 2 0 0 1-1.588.729"/></svg>