<svg xmlns="http://www.w3.org/2000/svg" width="24" height="24" viewBox="0 0 24 24" fill='currentColor'><path d="M12 10.943a2.65 2.65 0 0 1-1.947-.803 2.65 2.65 0 0 1-.803-1.948q0-1.143.803-1.947A2.65 2.65 0 0 1 12 5.442a2.65 2.65 0 0 1 1.947.803 2.65 2.65 0 0 1 .803 1.947q0 1.144-.803 1.948a2.65 2.65 0 0 1-1.947.803m-5.75 5.615v-1.65q0-.477.229-.877a1.77 1.77 0 0 1 .64-.646 10 10 0 0 1 2.317-.984A9.4 9.4 0 0 1 12 12.058q1.333 0 2.559.343a10 10 0 0 1 2.322.984q.402.245.635.65.234.405.234.873v1.65zM21.225 8.15a10 10 0 0 0-2.167-3.222 10 10 0 0 0-3.208-2.153l.583-1.388q2.143.909 3.694 2.46t2.496 3.72zm-18.45 0-1.389-.583q.926-2.16 2.477-3.708 1.553-1.548 3.704-2.472l.583 1.388a10.1 10.1 0 0 0-3.213 2.163A10.1 10.1 0 0 0 2.775 8.15m4.783 14.464a11.2 11.2 0 0 1-3.704-2.48 11.7 11.7 0 0 1-2.468-3.71l1.389-.574a10.1 10.1 0 0 0 2.162 3.213 10.1 10.1 0 0 0 3.213 2.162zm8.865 0-.573-1.389a10.1 10.1 0 0 0 3.213-2.162 10.1 10.1 0 0 0 2.162-3.213l1.388.583a11.5 11.5 0 0 1-2.483 3.709 11.7 11.7 0 0 1-3.707 2.472"/></svg>