<svg xmlns="http://www.w3.org/2000/svg" width="24" height="24" viewBox="0 0 24 24" fill='currentColor'><path d="m9.692 21.5-.38-3.046a4.2 4.2 0 0 1-.834-.377 6 6 0 0 1-.745-.52L4.912 18.75l-2.308-4 2.44-1.844a5 5 0 0 1-.049-.444 7 7 0 0 1 .05-1.368L2.603 9.25l2.308-3.98 2.811 1.182q.362-.286.75-.52.388-.231.829-.386l.39-3.046h4.616l.38 3.056q.432.154.815.381.383.228.735.515l2.85-1.183 2.308 3.981-1.85 1.4a7 7 0 0 0-1.3-.426 6.3 6.3 0 0 0-1.361-.147q-.597 0-1.155.126a9 9 0 0 0-1.11.328 3 3 0 0 0-1.1-1.116A2.9 2.9 0 0 0 12.011 9q-1.248 0-2.125.876A2.9 2.9 0 0 0 9.012 12q0 .806.396 1.495.394.69 1.08 1.097a5.7 5.7 0 0 0-.314 1.254 10 10 0 0 0-.087 1.298q.045 1.227.505 2.355a6.2 6.2 0 0 0 1.307 2.001zm6.44-.1a4.47 4.47 0 0 1-2.506-1.29 4.47 4.47 0 0 1-1.272-2.514h1.148q.215.99.928 1.703a3.37 3.37 0 0 0 1.703.928zm1.424.025v-1.198a3.4 3.4 0 0 0 1.941-1.176q.77-.92.77-2.166t-.77-2.167a3.4 3.4 0 0 0-1.941-1.176v-1.198q1.655.256 2.78 1.533t1.124 3.007-1.125 3.008-2.78 1.533m-5.202-5.252a4.47 4.47 0 0 1 1.272-2.514q1.041-1.05 2.507-1.29v1.173a3.37 3.37 0 0 0-1.703.928 3.37 3.37 0 0 0-.928 1.703zm3.567 2.558v-3.693l2.85 1.846z"/></svg>