<svg xmlns="http://www.w3.org/2000/svg" width="24" height="24" viewBox="0 0 24 24" fill='currentColor'><path d="M4.596 17.954a9.4 9.4 0 0 1-1.414-2.32A9.3 9.3 0 0 1 2.519 13H4.05q.15 1.1.55 2.087A7.4 7.4 0 0 0 5.65 16.9zM2.52 11q.18-1.414.678-2.629a9 9 0 0 1 1.4-2.315L5.65 7.109A7.4 7.4 0 0 0 4.6 8.917 8.6 8.6 0 0 0 4.05 11zm8.431 10.45q-1.47-.18-2.655-.692-1.183-.512-2.299-1.374L7.05 18.3a9 9 0 0 0 1.818 1.07 7.7 7.7 0 0 0 2.082.58zM7.1 5.69 6.016 4.606q1.115-.862 2.299-1.37Q9.499 2.73 11 2.55v1.5q-1.125.15-2.105.575A8 8 0 0 0 7.1 5.69m2.65 10.348V7.961L16.038 12zM13 21.45v-1.5q3.026-.425 5.012-2.675Q20 15.025 20 12t-1.988-5.275T13 4.05v-1.5q3.648.396 6.074 3.086T21.5 12t-2.426 6.363T13 21.45"/></svg>