<svg xmlns="http://www.w3.org/2000/svg" width="24" height="24" viewBox="0 0 24 24" fill='currentColor'><path d="M7.5 19.75H1.98q-.834 0-1.292-.548Q.231 18.653.231 18q0-.442.226-.855.225-.413.699-.674l4.057-2.207-4.877-1.418L2.125 9.27l8.923 1 3.367-2.515-1.088-1.004h-2.288v-1.5h2.886l7.163 6.664q.37.329.506.669.137.34.137.667 0 .978-.768 1.74-.766.76-2.346.76h-.596l2.688 2.5h.272q.453 0 .823-.302t.456-.794h1.51a2.7 2.7 0 0 1-.9 1.85 2.7 2.7 0 0 1-1.89.746h-5.75v-1.5h3.3l-2.596-2.5h-4.28q0 1.727-1.194 2.863Q9.265 19.75 7.5 19.75m-5.52-1.5H7.5q1.142 0 1.898-.698t.756-1.821l-2.914-.854-5.288 2.854a1 1 0 0 0-.154.105.2.2 0 0 0-.067.164q0 .105.072.178a.24.24 0 0 0 .178.072"/></svg>