<svg xmlns="http://www.w3.org/2000/svg" width="24" height="24" viewBox="0 0 24 24" fill='currentColor'><path d="M4.685 18.071a9.6 9.6 0 0 1-1.622-2.848A9.4 9.4 0 0 1 2.5 12a9.4 9.4 0 0 1 .563-3.223A9.6 9.6 0 0 1 4.685 5.93a7.4 7.4 0 0 1 2.222 2.68A7.56 7.56 0 0 1 7.698 12a7.6 7.6 0 0 1-.791 3.391 7.4 7.4 0 0 1-2.222 2.681M12 21.5a9.4 9.4 0 0 1-3.346-.605 9.3 9.3 0 0 1-2.887-1.755 9.45 9.45 0 0 0 2.513-3.18A8.9 8.9 0 0 0 9.183 12a8.9 8.9 0 0 0-.903-3.959A9.45 9.45 0 0 0 5.767 4.86a9.3 9.3 0 0 1 2.886-1.755A9.4 9.4 0 0 1 12 2.5q1.752 0 3.346.605a9.2 9.2 0 0 1 2.887 1.755 9.45 9.45 0 0 0-2.513 3.18 8.9 8.9 0 0 0-.903 3.96q0 2.105.903 3.959a9.45 9.45 0 0 0 2.513 3.181 9.3 9.3 0 0 1-2.886 1.755A9.4 9.4 0 0 1 12 21.5m7.315-3.429a7.4 7.4 0 0 1-2.222-2.68 7.56 7.56 0 0 1-.791-3.39q0-1.788.791-3.391a7.4 7.4 0 0 1 2.222-2.681 9.6 9.6 0 0 1 1.622 2.848A9.4 9.4 0 0 1 21.5 12a9.4 9.4 0 0 1-.562 3.223 9.6 9.6 0 0 1-1.623 2.848"/></svg>