<svg xmlns="http://www.w3.org/2000/svg" width="24" height="24" viewBox="0 0 24 24" fill='currentColor'><path d="M9.43 20.436q-1.135.135-2.817.005t-2.557-.535q-.32-.81-.487-2.5-.165-1.69-.011-2.843zm1.79-.303-7.36-7.358a15 15 0 0 1 1.205-3.37q.778-1.542 1.796-2.574 1.026-1.027 2.607-1.815a13.2 13.2 0 0 1 3.26-1.13l7.379 7.398a13.3 13.3 0 0 1-1.118 3.333q-.765 1.55-1.801 2.587-1.087 1.07-2.65 1.844a12.3 12.3 0 0 1-3.32 1.085m-1.695-4.604 6.004-6.004-1.054-1.054-6.004 6.004zM20.41 9.496l-5.854-5.923q1.122-.17 2.849-.022 1.725.146 2.489.524.43.99.558 2.583.126 1.592-.043 2.838"/></svg>