<svg xmlns="http://www.w3.org/2000/svg" width="24" height="24" viewBox="0 0 24 24" fill='currentColor'><path d="M5.41 19.644 4.356 18.59l9.84-9.84H10.75v2h-1.5v-3.5h5.998q.246 0 .477.092.23.093.4.261l3.048 3.033q.695.695 1.64 1.094a5.4 5.4 0 0 0 2.033.414v1.5q-1.406 0-2.577-.485a6.5 6.5 0 0 1-2.088-1.386l-1.135-1.165-2.652 2.642 2.202 2.202-6.05 3.496-.75-1.312 4.348-2.503-2.104-2.104zM3.5 12.75v-1.5H8v1.5zm-2-3v-1.5H6v1.5zm17.975-2q-.729 0-1.252-.516A1.68 1.68 0 0 1 17.7 5.99q0-.729.523-1.244a1.72 1.72 0 0 1 1.252-.516q.729 0 1.252.516.523.515.523 1.244t-.523 1.244a1.72 1.72 0 0 1-1.252.516M3.5 6.75v-1.5H8v1.5z"/></svg>