<svg xmlns="http://www.w3.org/2000/svg" width="24" height="24" viewBox="0 0 24 24" fill='currentColor'><path d="M2.5 21.5V8.85q0-1.942 1.028-3.394T6.392 3.26q1.283-.495 2.77-.628A32 32 0 0 1 12 2.5q1.352 0 2.839.133t2.769.628q1.836.743 2.864 2.195Q21.5 6.909 21.5 8.85V21.5zM8.927 20l1.5-1.577h3.115l1.5 1.577h1.266v-.5l-1.07-1.127q1.11-.15 1.782-.949.672-.8.672-1.924V9q0-1.69-1.596-2.201-1.597-.51-4.096-.51-2.276 0-3.984.51T6.308 9v6.5q0 1.125.672 1.929t1.781.944L7.693 19.5v.5zM7.5 13.116V9h9v4.116zm7.787 3.307a.87.87 0 0 1-.644-.26.88.88 0 0 1-.259-.646.87.87 0 0 1 .261-.643.88.88 0 0 1 .645-.258.87.87 0 0 1 .644.26.88.88 0 0 1 .258.645.87.87 0 0 1-.26.643.88.88 0 0 1-.645.259m-6.577 0a.87.87 0 0 1-.644-.26.88.88 0 0 1-.258-.646.87.87 0 0 1 .26-.643.88.88 0 0 1 .645-.258q.385 0 .644.26a.88.88 0 0 1 .259.645.87.87 0 0 1-.261.643.88.88 0 0 1-.645.259"/></svg>