<svg xmlns="http://www.w3.org/2000/svg" width="24" height="24" viewBox="0 0 24 24" fill='currentColor'><path d="m18.944 21.148-2.992-2.977-2.2 2.2-.489-.488a1.74 1.74 0 0 1-.517-1.28q0-.765.518-1.281l4.157-4.158a1.74 1.74 0 0 1 1.281-.517q.764 0 1.28.517l.489.488-2.2 2.2 2.977 2.993q.27.27.271.632 0 .361-.271.633l-1.039 1.038a.87.87 0 0 1-.632.272.87.87 0 0 1-.633-.272M21.5 5.688 10.304 16.896l.432.417q.518.518.518 1.28 0 .765-.518 1.281l-.488.489-2.2-2.2-2.992 2.977a.87.87 0 0 1-.633.27.87.87 0 0 1-.633-.27L2.752 20.1a.87.87 0 0 1-.271-.632q0-.362.271-.633l2.977-2.992-2.2-2.2.488-.489a1.74 1.74 0 0 1 1.281-.517q.764 0 1.28.517l.428.443L18.212 2.4H21.5zM7.296 10.496 2.5 5.689V2.4h3.288l4.787 4.797z"/></svg>