<svg xmlns="http://www.w3.org/2000/svg" width="24" height="24" viewBox="0 0 24 24" fill='currentColor'><path d="M10.389 22a12.2 12.2 0 0 1-.672-2.478 18 18 0 0 1-.222-2.323q-.026-1.087.04-1.938.067-.85.113-1.315a.3.3 0 0 0-.014-.106q-.015-.032-.082-.057l-1.046-.226q-.69-.15-1.559-.465-.87-.315-1.84-.811t-1.901-1.252l5.556-7.59 6.511 2.963a5.4 5.4 0 0 1 2.351 2.017q.876 1.35.876 3.006V22zm3.169-3.14a.83.83 0 0 0 .4-.1.8.8 0 0 0 .292-.25q.13.15.312.25.18.1.38.1a.85.85 0 0 0 .631-.259.86.86 0 0 0 .254-.626.86.86 0 0 0-.254-.63.86.86 0 0 0-.63-.255h-.097v-4.206h.096a.85.85 0 0 0 .631-.258.86.86 0 0 0 .254-.626.86.86 0 0 0-.254-.63.86.86 0 0 0-.63-.254q-.2 0-.381.087a1 1 0 0 0-.312.238.7.7 0 0 0-.291-.238.9.9 0 0 0-.401-.087.86.86 0 0 0-.626.253.85.85 0 0 0-.259.631q0 .368.259.626a.85.85 0 0 0 .626.258h.096v4.206h-.096a.86.86 0 0 0-.626.254.85.85 0 0 0-.259.631q0 .367.259.626a.85.85 0 0 0 .626.259"/></svg>