<svg xmlns="http://www.w3.org/2000/svg" width="24" height="24" viewBox="0 0 24 24" fill='currentColor'><path d="M11.997 21.5q-1.95 0-3.683-.747a9.6 9.6 0 0 1-3.026-2.041 9.6 9.6 0 0 1-2.04-3.026 9.2 9.2 0 0 1-.748-3.683q0-1.975.749-3.7a9.7 9.7 0 0 1 2.04-3.015A9.6 9.6 0 0 1 8.313 3.25a9.2 9.2 0 0 1 3.684-.749 9.2 9.2 0 0 1 3.698.749q1.725.75 3.017 2.04a9.7 9.7 0 0 1 2.039 3.015q.75 1.725.749 3.699 0 1.95-.749 3.685a9.6 9.6 0 0 1-2.04 3.024 9.7 9.7 0 0 1-3.015 2.039q-1.725.75-3.699.749M12 18.404q2.668 0 4.536-1.868 1.868-1.867 1.868-4.536t-1.868-4.536T12 5.596 7.464 7.464Q5.596 9.331 5.596 12t1.868 4.536Q9.331 18.404 12 18.404"/></svg>