<svg xmlns="http://www.w3.org/2000/svg" width="24" height="24" viewBox="0 0 24 24" fill='currentColor'><path d="M16.654 19.77a.57.57 0 0 0 .421-.172.57.57 0 0 0 .171-.421.57.57 0 0 0-.17-.421.57.57 0 0 0-.422-.172.57.57 0 0 0-.422.172.57.57 0 0 0-.17.421q0 .25.17.421a.57.57 0 0 0 .422.171m-.412-1.843h.823v-.212q0-.285.15-.482.15-.198.35-.399.35-.3.55-.594t.2-.778q0-.702-.463-1.14-.462-.437-1.194-.437-.56 0-1.023.337-.462.338-.662.893l.742.312q.095-.3.342-.525a.86.86 0 0 1 .597-.225q.393 0 .616.196t.222.589a.73.73 0 0 1-.16.48 6 6 0 0 1-.359.392q-.15.15-.303.31t-.278.343a1.2 1.2 0 0 0-.112.293 1.4 1.4 0 0 0-.038.334zm.412 3.419q-1.873 0-3.187-1.313-1.313-1.314-1.313-3.187t1.313-3.186 3.187-1.314 3.186 1.314q1.314 1.312 1.314 3.186t-1.314 3.187q-1.312 1.313-3.186 1.313M12.5 8.5H17L12.5 4zm-9 13v-19h9.75l5.25 5.25v2.665a6 6 0 0 0-.918-.2 7 7 0 0 0-.928-.061q-1.435 0-2.688.562a6.7 6.7 0 0 0-2.164 1.534H7.25v1.5h3.483q-.303.57-.49 1.201-.19.63-.235 1.299H7.25v1.5h2.775q.157 1.048.625 2.014a6.6 6.6 0 0 0 1.215 1.736z"/></svg>