<svg xmlns="http://www.w3.org/2000/svg" width="24" height="24" viewBox="0 0 24 24" fill='currentColor'><path d="M12 21.558q-.729 0-1.24-.511-.51-.51-.51-1.24 0-.495.275-.912.275-.416.725-.634V15.75h-3q-.758 0-1.283-.525a1.75 1.75 0 0 1-.525-1.283v-2.204a1.63 1.63 0 0 1-1-1.546q0-.729.511-1.24.51-.51 1.24-.51.728 0 1.239.51.51.511.51 1.24 0 .546-.28.938a1.9 1.9 0 0 1-.72.608v2.204q0 .116.097.212a.3.3 0 0 0 .211.096h3V6.135H9.5L12 2.808l2.5 3.327h-1.75v8.115h3a.3.3 0 0 0 .211-.096.3.3 0 0 0 .097-.212v-2h-1v-3.5h3.5v3.5h-1v2q0 .758-.525 1.283t-1.283.525h-3v2.511q.465.202.733.619.267.416.267.928 0 .728-.51 1.239-.511.51-1.24.51"/></svg>