<svg xmlns="http://www.w3.org/2000/svg" width="24" height="24" viewBox="0 0 24 24" fill='currentColor'><path d="M7 13.615q.666 0 1.14-.474.475-.475.475-1.141t-.474-1.14A1.56 1.56 0 0 0 7 10.384q-.666 0-1.14.474A1.56 1.56 0 0 0 5.384 12q0 .666.474 1.14.475.475 1.141.475m14.481 4a.84.84 0 0 1-.617-.248.84.84 0 0 1-.249-.617q0-.367.249-.616a.84.84 0 0 1 .616-.25q.368 0 .617.25a.84.84 0 0 1 .249.616q0 .367-.248.616a.84.84 0 0 1-.617.25m-.75-3.461V9.5h1.5v4.654zM7 17.5q-2.292 0-3.896-1.604T1.5 12.003t1.604-3.896T7 6.5q1.93 0 3.335 1.114 1.407 1.114 1.911 2.77h6.37V17.5H17v-3.885h-4.754q-.504 1.658-1.91 2.772Q8.929 17.5 7 17.5"/></svg>