<svg xmlns="http://www.w3.org/2000/svg" width="24" height="24" viewBox="0 0 24 24" fill='currentColor'><path d="M12.246 18.847a.68.68 0 0 0 .431-.195.56.56 0 0 0 .17-.411.57.57 0 0 0-.187-.447.6.6 0 0 0-.47-.14q-1.024.075-2.232-.6-1.208-.676-1.508-2.352a.7.7 0 0 0-.214-.402.57.57 0 0 0-.392-.146.58.58 0 0 0-.455.205q-.181.204-.116.526.405 2.179 1.962 3.115 1.555.938 3.011.846M12 21.5q-3.213 0-5.357-2.206Q4.5 17.09 4.5 13.8q0-2.326 1.862-5.1Q8.226 5.924 12 2.653q3.776 3.271 5.637 6.045Q19.5 11.474 19.5 13.8q0 3.29-2.143 5.494Q15.212 21.5 12 21.5"/></svg>