<svg width="562" height="94" viewBox="0 0 562 94" fill="none" xmlns="http://www.w3.org/2000/svg"><g id="variant=claim-right-bottom, color=black, theme=sick2025" clip-path="url(#clip0_39776_362175)"><path id="sick-logo" d="M0.147509 67.3975H52.0968C59.6965 65.8835 58.8504 56.3125 52.0968 54.9862H25.4295C11.2338 54.9862 0 42.8798 0 28.4603C0 14.5899 10.3821 1.60794 25.4295 1.60794H54.6927C66.7567 1.60794 75.3729 10.6315 75.3729 22.0748H25.4323C18.7163 23.0341 18.2912 33.3159 25.4309 34.4847H52.026C66.6207 34.8747 78.2552 46.4785 78.2552 61.1695C78.2552 74.7062 66.7567 88.305 52.0968 88.305H24.6717C13.0025 88.305 0.147509 82.0105 0.147509 67.3975ZM85.9531 1.60505V88.305H106.45V1.60505H85.9531ZM199.668 66.3848L181.34 56.4425C177.312 64.264 169.189 69.5053 160.071 69.5053C147.042 69.5053 136.14 58.7988 136.14 45.1696C136.14 31.5404 147.041 20.8353 160.071 20.8353C169.005 20.8353 176.94 25.8729 181.045 33.4315L199.396 23.5383C191.795 9.51182 177.034 0 160.071 0C135.335 0 115.286 20.2213 115.286 45.1681C115.286 70.115 135.335 90.3392 160.071 90.3392C177.202 90.3392 192.135 80.641 199.668 66.3848ZM207.394 1.60505V88.305H228.123V54.7132H235.409L257.223 88.305H282.718L253.78 45.5019L283.144 1.60505H257.657L236.109 36.3772H228.125V1.60505H207.395H207.394ZM303.194 72.2026C303.194 68.1011 307.479 66.1854 311.136 66.1854C315.122 66.1854 318.57 68.0115 319.408 72.3831H316.113C315.423 69.8087 313.055 69.03 310.987 69.03C309.399 69.03 306.672 69.7784 306.672 72.0538C306.672 73.8495 308.111 74.7784 309.969 75.1671L312.546 75.7059C316.023 76.4239 319.829 77.7415 319.829 82.1131C319.829 86.4241 315.695 88.6691 311.467 88.6691C306.432 88.6691 303.045 85.8852 302.536 81.3344H305.892C306.522 84.2989 308.53 85.826 311.587 85.826C314.405 85.826 316.383 84.4795 316.383 82.3833C316.383 80.1382 314.225 79.2396 311.888 78.76L309.22 78.2211C306.134 77.5927 303.197 75.8562 303.197 72.204L303.194 72.2026ZM337.299 83.5506C336.55 86.2146 334.152 88.6705 330.046 88.6705C324.831 88.6705 322.014 84.8681 322.014 80.1975C322.014 75.1974 325.371 71.8746 329.957 71.8746C334.932 71.8746 337.84 75.9457 337.509 81.1856H325.222C325.521 84.1501 327.41 86.0065 329.926 86.0065C332.174 86.0065 333.493 85.0776 334.152 83.552L337.299 83.5506ZM334.272 78.7297C334.182 76.3344 332.503 74.4187 329.926 74.4187C327.498 74.4187 325.701 75.6756 325.281 78.7297H334.272ZM348.447 71.8732C352.343 71.8732 353.842 74.3884 353.842 78.1301V88.279H350.725V78.968C350.725 76.6334 350.336 74.4765 347.399 74.4765C344.702 74.4765 343.383 76.4225 343.383 79.6254V88.2776H340.266V72.1708H343.383V74.5054C344.311 72.9191 345.93 71.8703 348.447 71.8703V71.8732ZM362.951 74.358C361.422 74.358 359.774 74.9865 359.774 76.304C359.774 77.5017 360.553 78.0102 362.021 78.3107L364.329 78.76C367.387 79.3581 370.053 80.4069 370.053 83.5506C370.053 86.8141 366.996 88.6705 363.279 88.6705C359.203 88.6705 356.717 86.3056 356.326 83.2819H359.503C359.923 85.1079 361.122 86.1857 363.37 86.1857C365.378 86.1857 366.937 85.3478 366.937 83.9103C366.937 82.4136 365.528 81.8141 363.849 81.4847L361.421 81.0065C358.993 80.5268 356.717 79.4491 356.717 76.4254C356.717 73.5808 359.713 71.8443 363.249 71.8443C366.486 71.8443 369.093 73.5505 369.693 76.6652H366.607C366.157 75.0183 364.779 74.3595 362.95 74.3595L362.951 74.358ZM379.615 88.6691C375.809 88.6691 371.793 86.0947 371.793 80.2856C371.793 74.4476 375.809 71.8732 379.615 71.8732C383.452 71.8732 387.467 74.4476 387.467 80.2856C387.467 86.0947 383.451 88.6691 379.615 88.6691ZM384.171 80.287C384.171 76.2751 381.983 74.5083 379.615 74.5083C377.277 74.5083 375.09 76.2145 375.09 80.287C375.09 84.2686 377.278 86.0354 379.615 86.0354C381.983 86.0354 384.171 84.2094 384.171 80.287ZM397.058 75.287C394.66 75.287 393.402 76.4543 393.402 79.8377V88.2805H390.285V72.1737H393.342V75.0183C394.181 73.1922 395.799 72.1448 397.808 72.1144C398.079 72.1144 398.407 72.1144 398.677 72.1448V75.378C398.108 75.3187 397.568 75.2884 397.059 75.2884L397.058 75.287ZM408.145 88.2805V66.5741H411.563V88.2805H408.145ZM423.789 71.8732C427.685 71.8732 429.183 74.3884 429.183 78.1301V88.279H426.066V78.968C426.066 76.6334 425.677 74.4765 422.74 74.4765C420.043 74.4765 418.724 76.4225 418.724 79.6254V88.2776H415.608V72.1708H418.724V74.5054C419.653 72.9191 421.271 71.8703 423.789 71.8703V71.8732ZM436.376 68.0419V72.1737H439.553V74.5386H436.376V83.7297C436.376 85.3767 436.646 85.7956 438.204 85.7956H439.523V88.2805H437.245C433.978 88.2805 433.26 87.4715 433.26 84.1487V74.5386H430.802V72.1737H433.26V68.0419H436.376ZM456.155 83.5506C455.406 86.2146 453.008 88.6705 448.903 88.6705C443.688 88.6705 440.871 84.8681 440.871 80.1975C440.871 75.1974 444.227 71.8746 448.813 71.8746C453.788 71.8746 456.696 75.9457 456.365 81.1856H444.078C444.378 84.1501 446.266 86.0065 448.783 86.0065C451.03 86.0065 452.349 85.0776 453.008 83.552L456.155 83.5506ZM453.128 78.7297C453.039 76.3344 451.36 74.4187 448.783 74.4187C446.355 74.4187 444.557 75.6756 444.138 78.7297H453.128ZM458.972 88.2805V66.5741H462.089V88.2805H458.972ZM465.835 88.2805V66.5741H468.951V88.2805H465.835ZM475.815 70.0182H472.698V66.5755H475.815V70.0182ZM475.815 88.2805H472.698V72.1737H475.815V88.2805ZM493.406 72.1737V86.3952C493.406 89.3582 492.777 90.9459 491.667 92.054C490.438 93.3412 488.49 94 486.033 94C482.437 94 479.799 92.4441 479.29 89.0606H482.497C482.827 90.5284 483.755 91.3967 486.094 91.3967C487.623 91.3967 488.671 90.9777 489.332 90.2294C489.961 89.5403 490.291 88.7023 490.291 87.0554V85.3492C489.302 86.9962 487.683 88.0132 485.316 88.0132C481.57 88.0132 478.452 85.0487 478.452 79.9287C478.452 74.8391 481.569 71.8746 485.316 71.8746C487.683 71.8746 489.302 72.8931 490.291 74.5386V72.1737H493.407H493.406ZM481.779 79.9273C481.779 83.4307 483.456 85.4662 486.035 85.4662C488.432 85.4662 490.411 83.7904 490.411 79.9273C490.411 76.0946 488.432 74.4491 486.035 74.4491C483.458 74.4491 481.779 76.4846 481.779 79.9273ZM511.298 83.5506C510.549 86.2146 508.151 88.6705 504.045 88.6705C498.83 88.6705 496.013 84.8681 496.013 80.1975C496.013 75.1974 499.37 71.8746 503.956 71.8746C508.93 71.8746 511.839 75.9457 511.507 81.1856H499.221C499.52 84.1501 501.409 86.0065 503.925 86.0065C506.173 86.0065 507.491 85.0776 508.151 83.552L511.298 83.5506ZM508.271 78.7297C508.181 76.3344 506.502 74.4187 503.925 74.4187C501.497 74.4187 499.699 75.6756 499.28 78.7297H508.271ZM522.296 71.8732C526.192 71.8732 527.69 74.3884 527.69 78.1301V88.279H524.574V78.968C524.574 76.6334 524.185 74.4765 521.247 74.4765C518.55 74.4765 517.231 76.4225 517.231 79.6254V88.2776H514.115V72.1708H517.231V74.5054C518.16 72.9191 519.778 71.8703 522.296 71.8703V71.8732ZM541.686 77.6216C541.356 75.7955 539.708 74.5372 537.67 74.5372C535.421 74.5372 533.355 76.304 533.355 80.2264C533.355 84.2079 535.453 86.0051 537.67 86.0051C539.648 86.0051 541.385 84.8378 541.805 82.9207H544.952C544.323 86.3041 541.176 88.6691 537.609 88.6691C532.964 88.6691 530.027 85.1065 530.027 80.2567C530.027 75.4661 533.054 71.8732 537.819 71.8732C541.505 71.8732 544.323 74.4779 544.803 77.6216H541.686ZM561.765 83.5506C561.016 86.2146 558.618 88.6705 554.512 88.6705C549.297 88.6705 546.48 84.8681 546.48 80.1975C546.48 75.1974 549.837 71.8746 554.423 71.8746C559.397 71.8746 562.306 75.9457 561.974 81.1856H549.688C549.987 84.1501 551.876 86.0065 554.392 86.0065C556.64 86.0065 557.958 85.0776 558.618 83.552L561.765 83.5506ZM558.738 78.7297C558.648 76.3344 556.969 74.4187 554.392 74.4187C551.964 74.4187 550.167 75.6756 549.747 78.7297H558.738Z" fill="black"/></g><defs><clipPath id="clip0_39776_362175"><rect width="562" height="94" fill="white"/></clipPath></defs></svg>