<svg width="584" height="94" viewBox="0 0 584 94" fill="none" xmlns="http://www.w3.org/2000/svg"><g id="variant=claim-right-top, color=white, theme=sick2025" clip-path="url(#clip0_39776_362187)"><path id="Vector" d="M0.153283 70.1287H54.1362C62.0333 68.5533 61.1542 58.5944 54.1362 57.2145H26.4249C11.6736 57.2145 0 44.6174 0 29.6136C0 15.1811 10.7885 1.67309 26.4249 1.67309H56.8337C69.3699 1.67309 78.3235 11.0623 78.3235 22.9694H26.4264C19.4475 23.9675 19.0057 34.666 26.4249 35.8821H54.0611C69.2271 36.288 81.317 48.3619 81.317 63.6483C81.317 77.7335 69.3684 91.8835 54.1347 91.8835H25.636C13.51 91.8835 0.150279 85.3354 0.150279 70.1287H0.153283ZM89.3178 1.66858V91.8819H110.617V1.66858H89.3178ZM207.485 69.0734L188.438 58.7282C184.253 66.8667 175.812 72.3204 166.337 72.3204C152.798 72.3204 141.469 61.18 141.469 46.9985C141.469 32.817 152.797 21.6781 166.337 21.6781C175.621 21.6781 183.867 26.9198 188.132 34.7847L207.202 24.4906C199.305 9.89576 183.966 0 166.337 0C140.633 0 119.799 21.0407 119.799 46.9985C119.799 72.9563 140.633 94 166.337 94C184.139 94 199.657 83.9073 207.485 69.0734ZM215.512 1.66858V91.8819H237.053V56.9288H244.624L267.292 91.8819H293.785L263.714 47.3442L294.228 1.66858H267.743L245.352 37.8498H237.055V1.66858H215.512ZM315.063 7.40341C315.063 3.13574 319.515 1.14245 323.316 1.14245C327.458 1.14245 331.04 3.04254 331.912 7.59131H328.487C327.77 4.91256 325.31 4.10231 323.161 4.10231C321.511 4.10231 318.677 4.88099 318.677 7.24858C318.677 9.11709 320.172 10.0837 322.103 10.488L324.781 11.0487C328.394 11.7958 332.349 13.1668 332.349 17.7156C332.349 22.2012 328.053 24.5372 323.66 24.5372C318.427 24.5372 314.908 21.6405 314.379 16.9053H317.867C318.521 19.99 320.608 21.5789 323.785 21.5789C326.712 21.5789 328.768 20.1779 328.768 17.9967C328.768 15.6607 326.526 14.7256 324.097 14.2266L321.325 13.6659C318.118 13.012 315.066 11.2051 315.066 7.40491L315.063 7.40341ZM350.503 19.2098C349.724 21.9817 347.233 24.5372 342.966 24.5372C337.547 24.5372 334.62 20.5807 334.62 15.7208C334.62 10.5181 338.108 7.06067 342.873 7.06067C348.043 7.06067 351.065 11.2968 350.721 16.749H337.953C338.264 19.8336 340.227 21.7653 342.842 21.7653C345.177 21.7653 346.547 20.7987 347.233 19.2113H350.503V19.2098ZM347.357 14.195C347.264 11.7026 345.52 9.70936 342.842 9.70936C340.318 9.70936 338.451 11.0172 338.015 14.195H347.357ZM362.088 7.06067C366.136 7.06067 367.693 9.6778 367.693 13.5712V24.1314H364.455V14.443C364.455 12.0138 364.05 9.76949 360.998 9.76949C358.196 9.76949 356.825 11.7943 356.825 15.127V24.1299H353.586V7.37034H356.825V9.79956C357.79 8.14901 359.471 7.05767 362.088 7.05767V7.06067ZM377.159 9.64623C375.571 9.64623 373.857 10.3001 373.857 11.6711C373.857 12.9173 374.668 13.4464 376.193 13.7591L378.591 14.2266C381.768 14.8489 384.539 15.9403 384.539 19.2113C384.539 22.6071 381.362 24.5387 377.5 24.5387C373.264 24.5387 370.681 22.0779 370.275 18.9317H373.577C374.012 20.8318 375.258 21.9532 377.595 21.9532C379.681 21.9532 381.301 21.0813 381.301 19.5856C381.301 18.0282 379.837 17.4044 378.092 17.0617L375.569 16.5641C373.046 16.065 370.681 14.9436 370.681 11.7974C370.681 8.83749 373.794 7.03061 377.469 7.03061C380.832 7.03061 383.541 8.80592 384.165 12.0469H380.958C380.491 10.3332 379.059 9.64773 377.158 9.64773L377.159 9.64623ZM394.476 24.5372C390.52 24.5372 386.347 21.8585 386.347 15.814C386.347 9.73943 390.52 7.06067 394.476 7.06067C398.463 7.06067 402.634 9.73943 402.634 15.814C402.634 21.8585 398.461 24.5372 394.476 24.5372ZM399.209 15.814C399.209 11.6395 396.936 9.80106 394.476 9.80106C392.046 9.80106 389.773 11.5764 389.773 15.814C389.773 19.9569 392.047 21.7953 394.476 21.7953C396.936 21.7953 399.209 19.8953 399.209 15.814ZM412.599 10.6113C410.108 10.6113 408.8 11.8259 408.8 15.3465V24.1314H405.562V7.37184H408.739V10.3317C409.61 8.43162 411.292 7.34178 413.379 7.31021C413.66 7.31021 414.001 7.31021 414.282 7.34178V10.706C413.69 10.6444 413.13 10.6128 412.601 10.6128L412.599 10.6113ZM424.122 24.1314V1.54532H427.674V24.1314H424.122ZM440.378 7.06067C444.427 7.06067 445.984 9.6778 445.984 13.5712V24.1314H442.745V14.443C442.745 12.0138 442.341 9.76949 439.289 9.76949C436.486 9.76949 435.115 11.7943 435.115 15.127V24.1299H431.877V7.37034H435.115V9.79956C436.08 8.14901 437.762 7.05767 440.378 7.05767V7.06067ZM453.458 3.0726V7.37184H456.76V9.83263H453.458V19.3962C453.458 21.1099 453.739 21.5458 455.358 21.5458H456.728V24.1314H454.361C450.967 24.1314 450.22 23.2895 450.22 19.8321V9.83263H447.667V7.37184H450.22V3.0726H453.458ZM474.012 19.2098C473.233 21.9817 470.742 24.5372 466.475 24.5372C461.056 24.5372 458.129 20.5807 458.129 15.7208C458.129 10.5181 461.617 7.06067 466.382 7.06067C471.552 7.06067 474.574 11.2968 474.23 16.749H461.462C461.773 19.8336 463.736 21.7653 466.351 21.7653C468.686 21.7653 470.057 20.7987 470.742 19.2113H474.012V19.2098ZM470.867 14.195C470.773 11.7026 469.029 9.70936 466.351 9.70936C463.828 9.70936 461.96 11.0172 461.524 14.195H470.867ZM476.938 24.1314V1.54532H480.176V24.1314H476.938ZM484.07 24.1314V1.54532H487.309V24.1314H484.07ZM494.441 5.12902H491.202V1.54682H494.441V5.12902ZM494.441 24.1314H491.202V7.37184H494.441V24.1314ZM512.721 7.37184V22.1696C512.721 25.2528 512.067 26.9048 510.914 28.0578C509.637 29.3972 507.613 30.0826 505.059 30.0826C501.322 30.0826 498.581 28.4637 498.052 24.9431H501.385C501.728 26.4704 502.692 27.3738 505.122 27.3738C506.711 27.3738 507.8 26.9379 508.487 26.1592C509.141 25.4422 509.484 24.5703 509.484 22.8566V21.0813C508.456 22.795 506.774 23.8533 504.314 23.8533C500.422 23.8533 497.182 20.7686 497.182 15.4412C497.182 10.1453 500.42 7.06067 504.314 7.06067C506.774 7.06067 508.456 8.12045 509.484 9.83263V7.37184H512.721ZM500.637 15.4397C500.637 19.085 502.38 21.2031 505.059 21.2031C507.551 21.2031 509.607 19.4593 509.607 15.4397C509.607 11.4516 507.551 9.73943 505.059 9.73943C502.381 9.73943 500.637 11.8575 500.637 15.4397ZM531.313 19.2098C530.534 21.9817 528.043 24.5372 523.776 24.5372C518.357 24.5372 515.43 20.5807 515.43 15.7208C515.43 10.5181 518.918 7.06067 523.683 7.06067C528.853 7.06067 531.875 11.2968 531.531 16.749H518.763C519.074 19.8336 521.037 21.7653 523.652 21.7653C525.987 21.7653 527.358 20.7987 528.043 19.2113H531.313V19.2098ZM528.168 14.195C528.074 11.7026 526.33 9.70936 523.652 9.70936C521.129 9.70936 519.261 11.0172 518.825 14.195H528.168ZM542.742 7.06067C546.79 7.06067 548.347 9.6778 548.347 13.5712V24.1314H545.109V14.443C545.109 12.0138 544.704 9.76949 541.652 9.76949C538.849 9.76949 537.479 11.7943 537.479 15.127V24.1299H534.24V7.37034H537.479V9.79956C538.444 8.14901 540.125 7.05767 542.742 7.05767V7.06067ZM562.891 13.042C562.548 11.1419 560.835 9.83263 558.718 9.83263C556.381 9.83263 554.233 11.6711 554.233 15.7523C554.233 19.8953 556.414 21.7653 558.718 21.7653C560.773 21.7653 562.578 20.5507 563.014 18.5559H566.284C565.63 22.0764 562.36 24.5372 558.655 24.5372C553.828 24.5372 550.775 20.8303 550.775 15.7839C550.775 10.7992 553.921 7.06067 558.872 7.06067C562.703 7.06067 565.63 9.771 566.129 13.042H562.891ZM583.755 19.2098C582.977 21.9817 580.485 24.5372 576.219 24.5372C570.8 24.5372 567.873 20.5807 567.873 15.7208C567.873 10.5181 571.361 7.06067 576.126 7.06067C581.295 7.06067 584.318 11.2968 583.973 16.749H571.206C571.517 19.8336 573.479 21.7653 576.094 21.7653C578.43 21.7653 579.8 20.7987 580.485 19.2113H583.755V19.2098ZM580.61 14.195C580.517 11.7026 578.772 9.70936 576.094 9.70936C573.571 9.70936 571.703 11.0172 571.267 14.195H580.61Z" fill="white"/></g><defs><clipPath id="clip0_39776_362187"><rect width="584" height="94" fill="white"/></clipPath></defs></svg>