<svg width="295" height="94" viewBox="0 0 295 94" fill="none" xmlns="http://www.w3.org/2000/svg"><g id="variant=logo, color=white, theme=sick2025" clip-path="url(#clip0_39776_362151)"><path id="sick-logo" d="M166.39 0C184.028 6.25051e-05 199.366 9.89505 207.266 24.4932L188.19 34.7881C183.922 26.9231 175.674 21.6798 166.39 21.6797C152.845 21.6797 141.514 32.8199 141.514 47C141.514 61.18 152.845 72.3203 166.39 72.3203C175.866 72.3203 184.315 66.8675 188.496 58.7236L207.554 69.0713C199.723 83.9046 184.202 93.9999 166.39 94C140.677 94 119.834 72.9561 119.834 47C119.834 21.0438 140.677 0 166.39 0ZM56.8506 1.67285C69.3932 1.67285 78.3477 11.062 78.3477 22.9688C78.3477 22.9688 32.1421 22.9688 26.4355 22.9688C19.4587 23.9617 19.0145 34.6662 26.4355 35.877H54.0811C69.2452 36.2863 81.3435 48.3585 81.3438 63.6445C81.3438 77.7288 69.3931 91.8828 54.1504 91.8828H25.6426C13.5094 91.8828 0.148438 85.3329 0.148438 70.125C0.299043 70.125 46.7491 70.1251 54.1592 70.1338C62.0593 68.5573 61.1795 58.593 54.1592 57.2168H26.4355C11.6806 57.2168 0 44.6218 0 29.6143C0.000112775 15.1817 10.7923 1.67285 26.4355 1.67285H56.8506ZM110.653 91.8828H89.3486V1.66406H110.653V91.8828ZM237.133 1.66406V37.8457H245.425L267.827 1.66406H294.324L263.795 47.3486L293.88 91.8828H267.375L244.702 56.9297H237.133V91.8828H215.584V1.66406H237.133Z" fill="white"/></g><defs><clipPath id="clip0_39776_362151"><rect width="295" height="94" fill="white"/></clipPath></defs></svg>