<svg xmlns="http://www.w3.org/2000/svg" width="24" height="24" viewBox="0 0 24 24" fill='currentColor'><path d="M12.002 15.577q1.7 0 2.887-1.19t1.188-2.89-1.19-2.886-2.89-1.188-2.887 1.19-1.187 2.89 1.19 2.887 2.89 1.187M12 14.2q-1.125 0-1.912-.787A2.6 2.6 0 0 1 9.3 11.5q0-1.125.787-1.912A2.6 2.6 0 0 1 12 8.8q1.125 0 1.912.787.788.788.788 1.913t-.787 1.912A2.6 2.6 0 0 1 12 14.2m.001 4.3q-3.45 0-6.286-1.903T1.538 11.5Q2.88 8.306 5.714 6.403T11.999 4.5q3.449 0 6.286 1.903t4.177 5.097q-1.341 3.195-4.176 5.097T12.001 18.5"/></svg>