<svg xmlns="http://www.w3.org/2000/svg" width="295" height="94" viewBox="0 0 295 94" fill='currentColor'><g clip-path="url(#a)"><path fill-rule="evenodd" d="M207.961 69.06c-7.829 14.83-23.348 24.923-41.157 24.923-25.708 0-46.547-21.04-46.547-46.991C120.257 21.04 141.096 0 166.804 0c17.635 0 32.971 9.893 40.87 24.489l-19.072 10.293c-4.267-7.864-12.514-13.106-21.798-13.106-13.542 0-24.872 11.138-24.872 25.316s11.33 25.315 24.872 25.315c9.475 0 17.922-5.451 22.103-13.594zM111.078 1.662H89.777v90.204h21.301zM26.082 91.867c-12.13 0-25.49-6.549-25.49-21.754 0 0 46.582 0 54.002.008 7.899-1.576 7.02-11.538 0-12.914h-27.72c-14.752 0-26.43-12.593-26.43-27.598 0-14.43 10.79-27.937 26.43-27.937h30.411c12.54 0 21.493 9.388 21.493 21.293H26.875c-6.976.992-7.42 11.695 0 12.906h27.64c15.162.409 27.258 12.48 27.258 27.763 0 14.081-11.948 28.233-27.188 28.233zm189.908 0V1.663h21.545V37.84h8.291l22.398-36.176h26.492L264.192 47.34l30.08 44.527h-26.501l-22.668-34.948h-7.568v34.948z" clip-rule="evenodd"/></g><defs><clipPath id="a"><path d="M0 0h295v94H0z"/></clipPath></defs></svg>