<svg xmlns="http://www.w3.org/2000/svg" width="24" height="24" viewBox="0 0 24 24" fill='currentColor'><path d="m19.762 21.87-4.046-4.016q-.77.285-1.705.465-.936.18-2.01.181-3.525 0-6.341-1.939-2.815-1.938-4.121-5.061.554-1.325 1.43-2.472A11.4 11.4 0 0 1 4.9 7.038l-2.77-2.8 1.055-1.053 17.63 17.63zM12 15.576q.314 0 .642-.054.33-.053.585-.158l-5.092-5.092q-.104.275-.158.599a4 4 0 0 0-.054.628q0 1.702 1.188 2.89 1.186 1.187 2.89 1.187m6.954.507-3.137-3.111q.118-.32.189-.684.07-.366.071-.789 0-1.702-1.187-2.89Q13.702 7.424 12 7.424q-.422 0-.779.076-.355.076-.684.228L8.035 5.235a10 10 0 0 1 1.936-.556q.99-.18 2.03-.179 3.514 0 6.34 1.939 2.824 1.938 4.12 5.061-.555 1.34-1.435 2.502a11 11 0 0 1-2.072 2.082m-4.27-4.234-3.009-3q.661-.124 1.25.098.586.223 1.012.663.435.44.636 1.033.202.593.112 1.206"/></svg>