<svg width="24" height="24" viewBox="0 0 24 24" xmlns="http://www.w3.org/2000/svg" fill='currentColor'><g clip-path="url(#clip0_1616_5743)"><path d="M7.52499 21.48C4.25499 19.94 1.91499 16.76 1.55499 13H0.0549927C0.564993 19.16 5.71499 24 12.005 24L12.665 23.97L8.85499 20.16L7.52499 21.48ZM8.41499 14.96C8.22499 14.96 8.04499 14.93 7.89499 14.88C7.73499 14.82 7.60499 14.75 7.49499 14.64C7.38499 14.54 7.29499 14.42 7.23499 14.27C7.17499 14.13 7.14499 13.97 7.14499 13.8H5.84499C5.84499 14.16 5.91499 14.48 6.05499 14.75C6.19499 15.02 6.38499 15.25 6.61499 15.44C6.85499 15.62 7.12499 15.76 7.43499 15.85C7.73499 15.95 8.05499 16 8.39499 16C8.76499 16 9.11499 15.95 9.42499 15.85C9.74499 15.75 10.025 15.6 10.255 15.41C10.485 15.22 10.675 14.98 10.805 14.69C10.935 14.4 11.005 14.08 11.005 13.72C11.005 13.53 10.985 13.34 10.935 13.16C10.885 12.98 10.815 12.81 10.705 12.65C10.605 12.49 10.465 12.35 10.305 12.22C10.135 12.09 9.93499 11.99 9.69499 11.91C9.89499 11.82 10.065 11.71 10.215 11.58C10.365 11.45 10.485 11.31 10.585 11.16C10.685 11.01 10.755 10.86 10.805 10.7C10.855 10.54 10.875 10.38 10.875 10.22C10.875 9.86 10.815 9.54 10.695 9.26C10.575 8.98 10.405 8.75 10.185 8.57C9.98499 8.38 9.71499 8.24 9.41499 8.14C9.10499 8.05 8.76499 8 8.39499 8C8.03499 8 7.70499 8.05 7.39499 8.16C7.09499 8.27 6.82499 8.42 6.60499 8.61C6.39499 8.8 6.22499 9.02 6.09499 9.28C5.97499 9.54 5.91499 9.82 5.91499 10.13H7.21499C7.21499 9.96 7.24499 9.81 7.30499 9.68C7.36499 9.55 7.44499 9.43 7.55499 9.34C7.66499 9.25 7.78499 9.17 7.93499 9.12C8.08499 9.07 8.23499 9.04 8.41499 9.04C8.81499 9.04 9.11499 9.14 9.30499 9.35C9.49499 9.55 9.59499 9.84 9.59499 10.21C9.59499 10.39 9.56499 10.55 9.51499 10.7C9.46499 10.85 9.37499 10.97 9.26499 11.07C9.15499 11.17 9.01499 11.25 8.85499 11.31C8.69499 11.37 8.49499 11.4 8.27499 11.4H7.50499V12.43H8.27499C8.49499 12.43 8.69499 12.45 8.87499 12.5C9.05499 12.55 9.20499 12.63 9.32499 12.73C9.44499 12.84 9.54499 12.97 9.61499 13.13C9.68499 13.29 9.71499 13.48 9.71499 13.7C9.71499 14.11 9.59499 14.42 9.36499 14.63C9.13499 14.86 8.81499 14.96 8.41499 14.96ZM16.965 9.04C16.645 8.71 16.265 8.45 15.825 8.27C15.395 8.09 14.905 8 14.365 8H12.005V16H14.305C14.855 16 15.365 15.91 15.815 15.73C16.265 15.55 16.655 15.3 16.975 14.97C17.295 14.64 17.545 14.24 17.715 13.78C17.885 13.31 17.975 12.79 17.975 12.21V11.81C17.975 11.23 17.885 10.71 17.715 10.24C17.535 9.77 17.285 9.37 16.965 9.04ZM16.575 12.2C16.575 12.62 16.525 12.99 16.435 13.33C16.335 13.66 16.195 13.95 16.005 14.18C15.815 14.41 15.575 14.59 15.295 14.71C15.005 14.83 14.675 14.89 14.305 14.89H13.395V9.12H14.365C15.085 9.12 15.635 9.35 16.005 9.81C16.385 10.27 16.575 10.93 16.575 11.8V12.2ZM12.005 0L11.345 0.03L15.155 3.84L16.485 2.51C19.755 4.06 22.095 7.23 22.445 10.99H23.945C23.445 4.84 18.295 0 12.005 0Z"/></g><defs><clipPath id="clip0_1616_5743"><rect width="24" height="24"/></clipPath></defs></svg>