<svg width="24" height="24" viewBox="0 0 24 24" xmlns="http://www.w3.org/2000/svg" fill='currentColor'><path d="M6.5 12.5H8V14H6.5V12.5ZM19 3H5C3.9 3 3 3.9 3 5V19C3 20.1 3.9 21 5 21H19C20.1 21 21 20.1 21 19V5C21 3.9 20.1 3 19 3ZM9.5 10.5H6.5V11.5H8.5C9.05 11.5 9.5 11.95 9.5 12.5V14C9.5 14.55 9.05 15 8.5 15H6C5.45 15 5 14.55 5 14V10C5 9.45 5.45 9 6 9H9.5V10.5ZM16 15H14.25L12.5 12.75V15H11V9H12.5V11.25L14.25 9H16L13.75 12L16 15ZM20 12.5H18.5V14H17.5V12.5H16V11.5H17.5V10H18.5V11.5H20V12.5Z"/></svg>