<svg width="24" height="24" viewBox="0 0 24 24" xmlns="http://www.w3.org/2000/svg" fill='currentColor'><path d="M22 5.79999L17.4 1.89999L16.1 3.39999L20.7 7.29999L22 5.79999ZM7.9 3.49999L6.6 1.99999L2 5.79999L3.3 7.29999L7.9 3.49999ZM12.5 8.09999H11V14.1L15.7 17L16.5 15.8L12.5 13.4V8.09999ZM12 4.09999C7 4.09999 3 8.09999 3 13.1C3 18.1 7 22.1 12 22.1C17 22.1 21 18.1 21 13.1C21 8.09999 17 4.09999 12 4.09999ZM12 20.1C8.1 20.1 5 17 5 13.1C5 9.19999 8.1 6.09999 12 6.09999C15.9 6.09999 19 9.19999 19 13.1C19 17 15.9 20.1 12 20.1Z"/></svg>