<svg width="16" height="16" viewBox="0 0 16 16" fill="none" xmlns="http://www.w3.org/2000/svg">
<path fill-rule="evenodd" clip-rule="evenodd" d="M6 2C6.10276 2.00004 6.20301 2.03175 6.2871 2.09079C6.3712 2.14984 6.43506 2.23336 6.47 2.33L10 12.036L11.53 7.828C11.5653 7.73174 11.6293 7.64864 11.7133 7.58997C11.7974 7.5313 11.8975 7.49989 12 7.5H15.5C15.6326 7.5 15.7598 7.55268 15.8536 7.64645C15.9473 7.74021 16 7.86739 16 8C16 8.13261 15.9473 8.25979 15.8536 8.35355C15.7598 8.44732 15.6326 8.5 15.5 8.5H12.35L10.47 13.67C10.435 13.7665 10.3711 13.8499 10.287 13.9089C10.2029 13.9678 10.1027 13.9994 10 13.9994C9.89731 13.9994 9.79712 13.9678 9.71303 13.9089C9.62894 13.8499 9.56503 13.7665 9.53 13.67L6 3.964L4.47 8.171C4.4349 8.26745 4.37096 8.35076 4.28688 8.40962C4.2028 8.46847 4.10264 8.50003 4 8.5H0.5C0.367392 8.5 0.240215 8.44732 0.146447 8.35355C0.0526784 8.25979 0 8.13261 0 8C0 7.86739 0.0526784 7.74021 0.146447 7.64645C0.240215 7.55268 0.367392 7.5 0.5 7.5H3.65L5.53 2.33C5.56494 2.23336 5.6288 2.14984 5.7129 2.09079C5.79699 2.03175 5.89724 2.00004 6 2Z" fill="black"/>
</svg>
