<svg width="24" height="24" viewBox="0 0 24 24" xmlns="http://www.w3.org/2000/svg" fill='currentColor'><path d="M5 15.78C5 19.65 8.13 22.78 12 22.78C15.87 22.78 19 19.65 19 15.78V11.78H5V15.78ZM16.12 4.14997L18.22 2.04997L17.4 1.21997L15.1 3.52997C14.16 3.05997 13.12 2.77997 12 2.77997C10.88 2.77997 9.84 3.05997 8.91 3.52997L6.6 1.21997L5.78 2.04997L7.88 4.14997C6.14 5.41997 5 7.45997 5 9.77997V10.78H19V9.77997C19 7.45997 17.86 5.41997 16.12 4.14997ZM9 8.77997C8.45 8.77997 8 8.32997 8 7.77997C8 7.22997 8.45 6.77997 9 6.77997C9.55 6.77997 10 7.22997 10 7.77997C10 8.32997 9.55 8.77997 9 8.77997ZM15 8.77997C14.45 8.77997 14 8.32997 14 7.77997C14 7.22997 14.45 6.77997 15 6.77997C15.55 6.77997 16 7.22997 16 7.77997C16 8.32997 15.55 8.77997 15 8.77997Z"/></svg>