<svg width="24" height="24" viewBox="0 0 24 24" xmlns="http://www.w3.org/2000/svg" fill='currentColor'><path d="M5 15.78C5 19.65 8.13 22.78 12 22.78C15.87 22.78 19 19.65 19 15.78V11.78H5V15.78ZM16.12 4.15L18.22 2.05L17.4 1.22L15.1 3.53C14.16 3.06 13.12 2.78 12 2.78C10.88 2.78 9.84 3.06 8.91 3.53L6.6 1.22L5.78 2.05L7.88 4.15C6.14 5.42 5 7.46 5 9.78V10.78H19V9.78C19 7.46 17.86 5.42 16.12 4.15ZM9 8.78C8.45 8.78 8 8.33 8 7.78C8 7.23 8.45 6.78 9 6.78C9.55 6.78 10 7.23 10 7.78C10 8.33 9.55 8.78 9 8.78ZM15 8.78C14.45 8.78 14 8.33 14 7.78C14 7.23 14.45 6.78 15 6.78C15.55 6.78 16 7.23 16 7.78C16 8.33 15.55 8.78 15 8.78Z"/></svg>