<svg xmlns="http://www.w3.org/2000/svg" width="24" height="24" viewBox="0 0 24 24" fill='currentColor'><path d="M19.848 21v-3h3v-2h-3v-3h-2v3h-3v2h3v3zm-4.97.5h-9.37c-.72 0-1.38-.38-1.73-1l-2.36-4.1c-.36-.62-.35-1.38.01-2l6.34-10.91c.36-.61 1.02-.99 1.73-.99h4.7c.71 0 1.37.38 1.73.99l4.48 7.71a6.2 6.2 0 0 0-2.4-.14l-3.81-6.56h-4.7l-6.34 10.91 2.35 4.09h7.89c.35.77.85 1.45 1.48 2m-1.69-6.5c-.22.63-.34 1.3-.34 2h-5.75l-.73-1.27 4.58-7.98h1.8l2.53 4.42c-.56.42-1.05.93-1.44 1.51l-2-3.49L9.098 15z"/></svg>