<svg width="24" height="24" viewBox="0 0 24 24" xmlns="http://www.w3.org/2000/svg" fill='currentColor'><path d="M19.5 12.59C20.43 12.59 21.28 12.87 22 13.35V8.58997C22 7.48997 21.1 6.58997 20 6.58997H13.71L12.65 5.52997L14.06 4.11997L13.35 3.40997L9.82 6.93997L10.53 7.64997L11.94 6.23997L13 7.29997V9.58997C13 10.69 12.1 11.59 11 11.59H10.46C11.41 12.65 12 14.05 12 15.59C12 15.93 11.96 16.26 11.91 16.59H15.05C15.3 14.34 17.19 12.59 19.5 12.59Z"/><path d="M19.5 13.59C17.57 13.59 16 15.16 16 17.09C16 19.02 17.57 20.59 19.5 20.59C21.43 20.59 23 19.02 23 17.09C23 15.16 21.43 13.59 19.5 13.59ZM19.5 18.59C18.67 18.59 18 17.92 18 17.09C18 16.26 18.67 15.59 19.5 15.59C20.33 15.59 21 16.26 21 17.09C21 17.92 20.33 18.59 19.5 18.59Z"/><path d="M4 9.58997H9C9 8.48997 8.1 7.58997 7 7.58997H4C3.45 7.58997 3 8.03997 3 8.58997C3 9.13997 3.45 9.58997 4 9.58997Z"/><path d="M9.83 14.41L9.65 13.94L10.58 13.59C10.12 12.53 9.3 11.68 8.27 11.16L7.87 12.05L7.41 11.84L7.81 10.94C7.26 10.72 6.64 10.59 6 10.59C5.47 10.59 4.96 10.7 4.48 10.85L4.82 11.76L4.35 11.94L4 11.01C2.94 11.47 2.09 12.29 1.57 13.32L2.46 13.72L2.25 14.18L1.35 13.78C1.13 14.33 1 14.95 1 15.59C1 16.12 1.11 16.63 1.26 17.11L2.17 16.77L2.35 17.24L1.42 17.59C1.88 18.65 2.7 19.5 3.73 20.02L4.13 19.13L4.59 19.34L4.19 20.24C4.74 20.46 5.36 20.59 6 20.59C6.53 20.59 7.04 20.48 7.52 20.33L7.18 19.42L7.65 19.24L8 20.17C9.06 19.71 9.91 18.89 10.43 17.86L9.54 17.46L9.75 17L10.65 17.4C10.87 16.85 11 16.23 11 15.59C11 15.06 10.89 14.55 10.74 14.07L9.83 14.41ZM7.15 18.36C5.62 18.99 3.86 18.27 3.23 16.74C2.6 15.21 3.32 13.45 4.85 12.82C6.38 12.19 8.14 12.91 8.77 14.44C9.41 15.97 8.68 17.73 7.15 18.36Z"/></svg>