<svg width="16" height="16" viewBox="0 0 16 16" xmlns="http://www.w3.org/2000/svg" fill='currentColor'><g clip-path="url(#clip0_104_307)"><path d="M8.5 5.5C8.5 5.36739 8.44732 5.24021 8.35355 5.14645C8.25978 5.05268 8.13261 5 8 5C7.86739 5 7.74021 5.05268 7.64644 5.14645C7.55268 5.24021 7.5 5.36739 7.5 5.5V8.862L6.071 11.242C6.0027 11.3558 5.98241 11.492 6.01457 11.6208C6.04673 11.7495 6.12872 11.8602 6.2425 11.9285C6.35628 11.9968 6.49252 12.0171 6.62127 11.9849C6.75001 11.9528 6.8607 11.8708 6.929 11.757L8.429 9.257C8.47549 9.17934 8.50003 9.09051 8.5 9V5.5Z"/><path d="M6.5 0C6.36739 0 6.24021 0.0526784 6.14645 0.146447C6.05268 0.240215 6 0.367392 6 0.5C6 0.632608 6.05268 0.759785 6.14645 0.853553C6.24021 0.947322 6.36739 1 6.5 1H7V2.07C5.63827 2.26673 4.3647 2.86034 3.33838 3.77667C2.31205 4.693 1.57848 5.89143 1.22929 7.22224C0.880105 8.55306 0.930786 9.95726 1.37501 11.2594C1.81922 12.5616 2.63729 13.704 3.727 14.544L3.125 15.146C3.03111 15.2398 2.97832 15.367 2.97822 15.4996C2.97813 15.6323 3.03075 15.7596 3.1245 15.8535C3.21825 15.9474 3.34546 16.0002 3.47815 16.0003C3.61083 16.0004 3.73811 15.9478 3.832 15.854L4.578 15.108C5.62302 15.6946 6.80162 16.0018 8 16C9.19838 16.0018 10.377 15.6946 11.422 15.108L12.168 15.854C12.2619 15.9478 12.3892 16.0004 12.5219 16.0003C12.6545 16.0002 12.7817 15.9474 12.8755 15.8535C12.9693 15.7596 13.0219 15.6323 13.0218 15.4996C13.0217 15.367 12.9689 15.2398 12.875 15.146L12.274 14.544C13.3637 13.704 14.1818 12.5615 14.626 11.2592C15.0701 9.95697 15.1207 8.5527 14.7714 7.22186C14.4221 5.89101 13.6884 4.6926 12.662 3.77633C11.6355 2.86007 10.3618 2.26658 9 2.07V1H9.5C9.63261 1 9.75979 0.947322 9.85355 0.853553C9.94732 0.759785 10 0.632608 10 0.5C10 0.367392 9.94732 0.240215 9.85355 0.146447C9.75979 0.0526784 9.63261 0 9.5 0L6.5 0ZM7.538 3.018C7.84556 2.99461 8.15444 2.99461 8.462 3.018C10.0087 3.13745 11.449 3.85129 12.4807 5.00975C13.5124 6.16821 14.0553 7.68124 13.9955 9.23136C13.9358 10.7815 13.278 12.2482 12.1601 13.3238C11.0423 14.3994 9.55127 15.0002 8 15.0002C6.44873 15.0002 4.95774 14.3994 3.83989 13.3238C2.72205 12.2482 2.06422 10.7815 2.00446 9.23136C1.94469 7.68124 2.48762 6.16821 3.51933 5.00975C4.55104 3.85129 5.99133 3.13745 7.538 3.018ZM2.53287e-09 3.5C2.53287e-09 4.253 0.333 4.929 0.86 5.387C1.63175 3.86695 2.86695 2.63175 4.387 1.86C4.05288 1.47553 3.60929 1.20229 3.11561 1.07687C2.62192 0.951439 2.10171 0.979805 1.62459 1.15817C1.14747 1.33653 0.736221 1.65638 0.445884 2.07489C0.155546 2.49341 -2.29203e-05 2.99063 2.53287e-09 3.5H2.53287e-09ZM13.5 1C12.747 1 12.071 1.333 11.613 1.86C13.1331 2.63175 14.3683 3.86695 15.14 5.387C15.5245 5.05288 15.7977 4.60929 15.9231 4.11561C16.0486 3.62192 16.0202 3.10171 15.8418 2.62459C15.6635 2.14747 15.3436 1.73622 14.9251 1.44588C14.5066 1.15555 14.0094 0.999977 13.5 1Z"/></g><defs><clipPath id="clip0_104_307"><rect width="16" height="16"/></clipPath></defs></svg>