<svg width="24" height="24" viewBox="0 0 24 24" xmlns="http://www.w3.org/2000/svg" fill='currentColor'><path d="M12.175 6.06999C16.045 6.06999 19.175 9.19999 19.175 13.07C19.175 13.91 19.015 14.72 18.745 15.47L20.265 16.99C20.845 15.8 21.175 14.48 21.175 13.07C21.175 8.09999 17.145 4.06999 12.175 4.06999C10.765 4.06999 9.44501 4.39999 8.25501 4.97999L9.77501 6.49999C10.525 6.22999 11.335 6.06999 12.175 6.06999ZM22.175 5.78999L17.575 1.92999L16.285 3.45999L20.885 7.31999L22.175 5.78999ZM3.09501 2.35999L1.82501 3.63999L3.15501 4.96999L2.04501 5.89999L3.46501 7.31999L4.57501 6.37999L5.37501 7.17999C4.00501 8.75999 3.17501 10.82 3.17501 13.07C3.17501 18.04 7.19501 22.07 12.175 22.07C14.425 22.07 16.485 21.24 18.065 19.87L20.265 22.07L21.535 20.8L4.06501 3.33999L3.09501 2.35999ZM16.645 18.46C15.435 19.46 13.875 20.07 12.175 20.07C8.30501 20.07 5.17501 16.94 5.17501 13.07C5.17501 11.37 5.78501 9.80999 6.78501 8.59999L16.645 18.46ZM8.19501 3.34999L6.77501 1.92999L5.91501 2.63999L7.33501 4.05999L8.19501 3.34999Z"/></svg>