<svg width="16" height="16" viewBox="0 0 16 16" fill="none" xmlns="http://www.w3.org/2000/svg">
<g clip-path="url(#clip0_104_310)">
<path d="M6 0.5C6 0.367392 6.05268 0.240215 6.14645 0.146447C6.24021 0.0526784 6.36739 0 6.5 0L9.5 0C9.63261 0 9.75978 0.0526784 9.85355 0.146447C9.94732 0.240215 10 0.367392 10 0.5C10 0.632608 9.94732 0.759785 9.85355 0.853553C9.75978 0.947322 9.63261 1 9.5 1H9V2.07C10.3618 2.26658 11.6355 2.86007 12.6619 3.77633C13.6884 4.6926 14.4221 5.89101 14.7714 7.22186C15.1207 8.5527 15.0701 9.95697 14.626 11.2592C14.1818 12.5615 13.3637 13.704 12.274 14.544L12.875 15.146C12.9689 15.2398 13.0217 15.367 13.0218 15.4996C13.0219 15.6323 12.9693 15.7596 12.8755 15.8535C12.7817 15.9474 12.6545 16.0002 12.5219 16.0003C12.3892 16.0004 12.2619 15.9478 12.168 15.854L11.422 15.108C10.377 15.6946 9.19838 16.0018 8 16C6.80162 16.0018 5.62302 15.6946 4.578 15.108L3.832 15.854C3.78551 15.9004 3.73033 15.9372 3.66962 15.9623C3.60891 15.9874 3.54384 16.0003 3.47815 16.0003C3.41245 16.0002 3.3474 15.9872 3.28672 15.9621C3.22605 15.9369 3.17092 15.9 3.1245 15.8535C3.07808 15.807 3.04127 15.7518 3.01617 15.6911C2.99107 15.6304 2.97817 15.5653 2.97822 15.4996C2.97831 15.367 3.03111 15.2398 3.125 15.146L3.727 14.544C2.63729 13.704 1.81922 12.5616 1.375 11.2594C0.930785 9.95726 0.880103 8.55306 1.22929 7.22224C1.57848 5.89143 2.31205 4.693 3.33838 3.77667C4.3647 2.86034 5.63827 2.26673 7 2.07V1H6.5C6.36739 1 6.24021 0.947322 6.14645 0.853553C6.05268 0.759785 6 0.632608 6 0.5ZM8.5 5.5C8.5 5.36739 8.44732 5.24021 8.35355 5.14645C8.25978 5.05268 8.13261 5 8 5C7.86739 5 7.74021 5.05268 7.64645 5.14645C7.55268 5.24021 7.5 5.36739 7.5 5.5V8.862L6.071 11.242C6.00271 11.3558 5.98241 11.492 6.01457 11.6208C6.04673 11.7495 6.12872 11.8602 6.2425 11.9285C6.35628 11.9968 6.49252 12.0171 6.62127 11.9849C6.75001 11.9528 6.86071 11.8708 6.929 11.757L8.429 9.257C8.47549 9.17934 8.50003 9.09051 8.5 9V5.5ZM0.859999 5.387C0.601258 5.16194 0.391588 4.88605 0.244027 4.57649C0.0964663 4.26693 0.0141702 3.93032 0.00225683 3.5876C-0.00965658 3.24488 0.0490674 2.90337 0.174777 2.58431C0.300486 2.26525 0.490493 1.97547 0.732981 1.73298C0.975469 1.49049 1.26525 1.30049 1.58431 1.17478C1.90337 1.04907 2.24488 0.990345 2.5876 1.00226C2.93032 1.01417 3.26693 1.09647 3.57649 1.24403C3.88604 1.39159 4.16193 1.60126 4.387 1.86C2.86695 2.63175 1.63174 3.86695 0.859999 5.387ZM11.613 1.86C11.8381 1.60126 12.114 1.39159 12.4235 1.24403C12.7331 1.09647 13.0697 1.01417 13.4124 1.00226C13.7551 0.990345 14.0966 1.04907 14.4157 1.17478C14.7347 1.30049 15.0245 1.49049 15.267 1.73298C15.5095 1.97547 15.6995 2.26525 15.8252 2.58431C15.9509 2.90337 16.0097 3.24488 15.9977 3.5876C15.9858 3.93032 15.9035 4.26693 15.756 4.57649C15.6084 4.88605 15.3987 5.16194 15.14 5.387C14.3683 3.86695 13.133 2.63175 11.613 1.86Z" fill="black"/>
</g>
<defs>
<clipPath id="clip0_104_310">
<rect width="16" height="16" fill="white"/>
</clipPath>
</defs>
</svg>
