<svg width="16" height="16" viewBox="0 0 16 16" xmlns="http://www.w3.org/2000/svg" fill='currentColor'><path d="M9 15H7C6.44772 15 6 14.5523 6 14V4C6 3.44771 6.44772 3 7 3H9C9.55228 3 10 3.44771 10 4V14C10 14.5523 9.55228 15 9 15Z"/><path d="M1.5 2C1.36739 2 1.24021 1.94732 1.14645 1.85355C1.05268 1.75979 1 1.63261 1 1.5C1 1.36739 1.05268 1.24021 1.14645 1.14645C1.24021 1.05268 1.36739 1 1.5 1V2ZM14.5 1C14.6326 1 14.7598 1.05268 14.8536 1.14645C14.9473 1.24021 15 1.36739 15 1.5C15 1.63261 14.9473 1.75979 14.8536 1.85355C14.7598 1.94732 14.6326 2 14.5 2V1ZM1.5 1H14.5V2H1.5V1Z"/></svg>