<svg width="16" height="16" viewBox="0 0 16 16" fill="none" xmlns="http://www.w3.org/2000/svg">
<path d="M9 1H7C6.44772 1 6 1.44772 6 2V12C6 12.5523 6.44772 13 7 13H9C9.55228 13 10 12.5523 10 12V2C10 1.44772 9.55228 1 9 1Z" fill="black"/>
<path d="M1.5 14C1.36739 14 1.24021 14.0527 1.14645 14.1464C1.05268 14.2402 1 14.3674 1 14.5C1 14.6326 1.05268 14.7598 1.14645 14.8536C1.24021 14.9473 1.36739 15 1.5 15V14ZM14.5 15C14.6326 15 14.7598 14.9473 14.8536 14.8536C14.9473 14.7598 15 14.6326 15 14.5C15 14.3674 14.9473 14.2402 14.8536 14.1464C14.7598 14.0527 14.6326 14 14.5 14V15ZM1.5 15H14.5V14H1.5V15Z" fill="black"/>
</svg>
