<svg width="16" height="16" viewBox="0 0 16 16" fill="none" xmlns="http://www.w3.org/2000/svg">
<path d="M1 13.5C1 13.6326 1.05268 13.7598 1.14645 13.8536C1.24021 13.9473 1.36739 14 1.5 14H5.297C5.38678 14.0001 5.47491 13.976 5.55216 13.9302C5.6294 13.8845 5.69291 13.8188 5.736 13.74L11 3H14.5C14.6326 3 14.7598 2.94732 14.8536 2.85355C14.9473 2.75979 15 2.63261 15 2.5C15 2.36739 14.9473 2.24022 14.8536 2.14645C14.7598 2.05268 14.6326 2 14.5 2H10.703C10.6132 1.99993 10.5251 2.02404 10.4478 2.06979C10.3706 2.11554 10.3071 2.18124 10.264 2.26L5 13H1.5C1.36739 13 1.24021 13.0527 1.14645 13.1464C1.05268 13.2402 1 13.3674 1 13.5ZM11 13.5C11 13.6326 11.0527 13.7598 11.1464 13.8536C11.2402 13.9473 11.3674 14 11.5 14H14.5C14.6326 14 14.7598 13.9473 14.8536 13.8536C14.9473 13.7598 15 13.6326 15 13.5C15 13.3674 14.9473 13.2402 14.8536 13.1464C14.7598 13.0527 14.6326 13 14.5 13H11.5C11.3674 13 11.2402 13.0527 11.1464 13.1464C11.0527 13.2402 11 13.3674 11 13.5Z" fill="black"/>
</svg>
