<svg width="16" height="16" viewBox="0 0 16 16" fill="none" xmlns="http://www.w3.org/2000/svg">
<path d="M5.5 2C4.57174 2 3.6815 2.36875 3.02513 3.02513C2.36875 3.6815 2 4.57174 2 5.5V10.5C2 11.4283 2.36875 12.3185 3.02513 12.9749C3.6815 13.6313 4.57174 14 5.5 14H10.5C11.4283 14 12.3185 13.6313 12.9749 12.9749C13.6313 12.3185 14 11.4283 14 10.5V8C14 7.86739 14.0527 7.74021 14.1464 7.64645C14.2402 7.55268 14.3674 7.5 14.5 7.5C14.6326 7.5 14.7598 7.55268 14.8536 7.64645C14.9473 7.74021 15 7.86739 15 8V10.5C15 11.6935 14.5259 12.8381 13.682 13.682C12.8381 14.5259 11.6935 15 10.5 15H5.5C4.30653 15 3.16193 14.5259 2.31802 13.682C1.47411 12.8381 1 11.6935 1 10.5V5.5C1 4.30653 1.47411 3.16193 2.31802 2.31802C3.16193 1.47411 4.30653 1 5.5 1H8C8.13261 1 8.25979 1.05268 8.35355 1.14645C8.44732 1.24021 8.5 1.36739 8.5 1.5C8.5 1.63261 8.44732 1.75979 8.35355 1.85355C8.25979 1.94732 8.13261 2 8 2H5.5Z" fill="black"/>
<path d="M16 3C16 3.79565 15.6839 4.55871 15.1213 5.12132C14.5587 5.68393 13.7956 6 13 6C12.2044 6 11.4413 5.68393 10.8787 5.12132C10.3161 4.55871 10 3.79565 10 3C10 2.20435 10.3161 1.44129 10.8787 0.87868C11.4413 0.31607 12.2044 0 13 0C13.7956 0 14.5587 0.31607 15.1213 0.87868C15.6839 1.44129 16 2.20435 16 3Z" fill="black"/>
</svg>
