<svg width="16" height="16" viewBox="0 0 16 16" xmlns="http://www.w3.org/2000/svg" fill='currentColor'><g clip-path="url(#clip0_104_335)"><path d="M11.182 0.00800701C11.148 -0.029993 9.92299 0.023007 8.85699 1.18001C7.79099 2.33601 7.95499 3.66201 7.97899 3.69601C8.00299 3.73001 9.49899 3.78301 10.454 2.43801C11.409 1.09301 11.216 0.047007 11.182 0.00800701ZM14.496 11.741C14.448 11.645 12.171 10.507 12.383 8.31901C12.595 6.13001 14.058 5.53001 14.081 5.46501C14.104 5.40001 13.484 4.67501 12.827 4.30801C12.3446 4.04926 11.8107 3.90102 11.264 3.87401C11.156 3.87101 10.781 3.77901 10.01 3.99001C9.50199 4.12901 8.35699 4.57901 8.04199 4.59701C7.72599 4.61501 6.78599 4.07501 5.77499 3.93201C5.12799 3.80701 4.44199 4.06301 3.95099 4.26001C3.46099 4.45601 2.52899 5.01401 1.87699 6.49701C1.22499 7.97901 1.56599 10.327 1.80999 11.057C2.05399 11.786 2.43499 12.981 3.08299 13.853C3.65899 14.837 4.42299 15.52 4.74199 15.752C5.06099 15.984 5.96099 16.138 6.58499 15.819C7.08699 15.511 7.99299 15.334 8.35099 15.347C8.70799 15.36 9.41199 15.501 10.133 15.886C10.704 16.083 11.244 16.001 11.785 15.781C12.326 15.56 13.109 14.722 14.023 13.023C14.37 12.233 14.528 11.806 14.496 11.741Z"/><path d="M11.182 0.00800701C11.148 -0.029993 9.92299 0.023007 8.85699 1.18001C7.79099 2.33601 7.95499 3.66201 7.97899 3.69601C8.00299 3.73001 9.49899 3.78301 10.454 2.43801C11.409 1.09301 11.216 0.047007 11.182 0.00800701ZM14.496 11.741C14.448 11.645 12.171 10.507 12.383 8.31901C12.595 6.13001 14.058 5.53001 14.081 5.46501C14.104 5.40001 13.484 4.67501 12.827 4.30801C12.3446 4.04926 11.8107 3.90102 11.264 3.87401C11.156 3.87101 10.781 3.77901 10.01 3.99001C9.50199 4.12901 8.35699 4.57901 8.04199 4.59701C7.72599 4.61501 6.78599 4.07501 5.77499 3.93201C5.12799 3.80701 4.44199 4.06301 3.95099 4.26001C3.46099 4.45601 2.52899 5.01401 1.87699 6.49701C1.22499 7.97901 1.56599 10.327 1.80999 11.057C2.05399 11.786 2.43499 12.981 3.08299 13.853C3.65899 14.837 4.42299 15.52 4.74199 15.752C5.06099 15.984 5.96099 16.138 6.58499 15.819C7.08699 15.511 7.99299 15.334 8.35099 15.347C8.70799 15.36 9.41199 15.501 10.133 15.886C10.704 16.083 11.244 16.001 11.785 15.781C12.326 15.56 13.109 14.722 14.023 13.023C14.37 12.233 14.528 11.806 14.496 11.741Z"/></g><defs><clipPath id="clip0_104_335"><rect width="16" height="16"/></clipPath></defs></svg>