<svg width="16" height="16" viewBox="0 0 16 16" fill="none" xmlns="http://www.w3.org/2000/svg">
<g clip-path="url(#clip0_104_437)">
<path fill-rule="evenodd" clip-rule="evenodd" d="M1 8C1 7.86739 1.05268 7.74022 1.14645 7.64645C1.24021 7.55268 1.36739 7.5 1.5 7.5H14.5C14.6326 7.5 14.7598 7.55268 14.8536 7.64645C14.9473 7.74022 15 7.86739 15 8C15 8.13261 14.9473 8.25979 14.8536 8.35355C14.7598 8.44732 14.6326 8.5 14.5 8.5H1.5C1.36739 8.5 1.24021 8.44732 1.14645 8.35355C1.05268 8.25979 1 8.13261 1 8ZM7.646 0.146001C7.69245 0.0994379 7.74762 0.0624951 7.80837 0.0372886C7.86911 0.0120822 7.93423 -0.000892639 8 -0.000892639C8.06577 -0.000892639 8.13089 0.0120822 8.19163 0.0372886C8.25238 0.0624951 8.30755 0.0994379 8.354 0.146001L10.354 2.146C10.4005 2.19249 10.4374 2.24768 10.4625 2.30842C10.4877 2.36916 10.5006 2.43426 10.5006 2.5C10.5006 2.56575 10.4877 2.63085 10.4625 2.69158C10.4374 2.75232 10.4005 2.80751 10.354 2.854C10.3075 2.90049 10.2523 2.93737 10.1916 2.96252C10.1308 2.98768 10.0657 3.00063 10 3.00063C9.93426 3.00063 9.86916 2.98768 9.80842 2.96252C9.74768 2.93737 9.69249 2.90049 9.646 2.854L8.5 1.707V5.5C8.5 5.63261 8.44732 5.75979 8.35355 5.85355C8.25979 5.94732 8.13261 6 8 6C7.86739 6 7.74021 5.94732 7.64645 5.85355C7.55268 5.75979 7.5 5.63261 7.5 5.5V1.707L6.354 2.854C6.26011 2.94789 6.13278 3.00063 6 3.00063C5.86722 3.00063 5.73989 2.94789 5.646 2.854C5.55211 2.76011 5.49937 2.63278 5.49937 2.5C5.49937 2.36723 5.55211 2.23989 5.646 2.146L7.646 0.146001ZM8 10C8.13261 10 8.25979 10.0527 8.35355 10.1464C8.44732 10.2402 8.5 10.3674 8.5 10.5V14.293L9.646 13.146C9.73989 13.0521 9.86722 12.9994 10 12.9994C10.1328 12.9994 10.2601 13.0521 10.354 13.146C10.4479 13.2399 10.5006 13.3672 10.5006 13.5C10.5006 13.6328 10.4479 13.7601 10.354 13.854L8.354 15.854C8.30755 15.9006 8.25238 15.9375 8.19163 15.9627C8.13089 15.9879 8.06577 16.0009 8 16.0009C7.93423 16.0009 7.86911 15.9879 7.80837 15.9627C7.74762 15.9375 7.69245 15.9006 7.646 15.854L5.646 13.854C5.59951 13.8075 5.56264 13.7523 5.53748 13.6916C5.51232 13.6308 5.49937 13.5657 5.49937 13.5C5.49937 13.4343 5.51232 13.3692 5.53748 13.3084C5.56264 13.2477 5.59951 13.1925 5.646 13.146C5.73989 13.0521 5.86722 12.9994 6 12.9994C6.06574 12.9994 6.13084 13.0123 6.19158 13.0375C6.25232 13.0626 6.30751 13.0995 6.354 13.146L7.5 14.293V10.5C7.5 10.3674 7.55268 10.2402 7.64645 10.1464C7.74021 10.0527 7.86739 10 8 10Z" fill="black"/>
</g>
<defs>
<clipPath id="clip0_104_437">
<rect width="16" height="16" fill="white"/>
</clipPath>
</defs>
</svg>
