<svg width="16" height="16" viewBox="0 0 16 16" xmlns="http://www.w3.org/2000/svg" fill='currentColor'><g clip-path="url(#clip0_104_378)"><path d="M2 16C1.46957 16 0.960859 15.7893 0.585786 15.4142C0.210714 15.0391 0 14.5304 0 14V2C0 1.46957 0.210714 0.960859 0.585786 0.585786C0.960859 0.210714 1.46957 0 2 0L14 0C14.5304 0 15.0391 0.210714 15.4142 0.585786C15.7893 0.960859 16 1.46957 16 2V14C16 14.5304 15.7893 15.0391 15.4142 15.4142C15.0391 15.7893 14.5304 16 14 16H2ZM10.096 5.197L6 9.293V6.525C6 6.39239 5.94732 6.26521 5.85355 6.17145C5.75979 6.07768 5.63261 6.025 5.5 6.025C5.36739 6.025 5.24021 6.07768 5.14645 6.17145C5.05268 6.26521 5 6.39239 5 6.525V10.5C5 10.6326 5.05268 10.7598 5.14645 10.8536C5.24021 10.9473 5.36739 11 5.5 11H9.475C9.60761 11 9.73479 10.9473 9.82855 10.8536C9.92232 10.7598 9.975 10.6326 9.975 10.5C9.975 10.3674 9.92232 10.2402 9.82855 10.1464C9.73479 10.0527 9.60761 10 9.475 10H6.707L10.803 5.904C10.8508 5.85788 10.8888 5.8027 10.9151 5.7417C10.9413 5.6807 10.955 5.61509 10.9556 5.5487C10.9562 5.48231 10.9436 5.41647 10.9184 5.35502C10.8933 5.29357 10.8561 5.23775 10.8092 5.1908C10.7623 5.14386 10.7064 5.10673 10.645 5.08159C10.5835 5.05645 10.5177 5.0438 10.4513 5.04437C10.3849 5.04495 10.3193 5.05874 10.2583 5.08495C10.1973 5.11115 10.1421 5.14924 10.096 5.197Z"/></g><defs><clipPath id="clip0_104_378"><rect width="16" height="16"/></clipPath></defs></svg>