<svg width="16" height="16" viewBox="0 0 16 16" fill="none" xmlns="http://www.w3.org/2000/svg">
<g clip-path="url(#clip0_104_404)">
<path fill-rule="evenodd" clip-rule="evenodd" d="M0.999978 11.5C0.999978 11.6326 1.05266 11.7598 1.14642 11.8536C1.24019 11.9473 1.36737 12 1.49998 12H13.293L10.146 15.146C10.0521 15.2399 9.99935 15.3672 9.99935 15.5C9.99935 15.6328 10.0521 15.7601 10.146 15.854C10.2399 15.9479 10.3672 16.0006 10.5 16.0006C10.6328 16.0006 10.7601 15.9479 10.854 15.854L14.854 11.854C14.9005 11.8076 14.9375 11.7524 14.9627 11.6916C14.9879 11.6309 15.0009 11.5658 15.0009 11.5C15.0009 11.4342 14.9879 11.3691 14.9627 11.3084C14.9375 11.2476 14.9005 11.1924 14.854 11.146L10.854 7.146C10.7601 7.05211 10.6328 6.99937 10.5 6.99937C10.3672 6.99937 10.2399 7.05211 10.146 7.146C10.0521 7.23989 9.99935 7.36722 9.99935 7.5C9.99935 7.63278 10.0521 7.76011 10.146 7.854L13.293 11H1.49998C1.36737 11 1.24019 11.0527 1.14642 11.1464C1.05266 11.2402 0.999978 11.3674 0.999978 11.5ZM15 4.5C15 4.63261 14.9473 4.75979 14.8535 4.85355C14.7598 4.94732 14.6326 5 14.5 5H2.70698L5.85398 8.146C5.90047 8.19249 5.93734 8.24768 5.9625 8.30842C5.98766 8.36916 6.00061 8.43426 6.00061 8.5C6.00061 8.56574 5.98766 8.63084 5.9625 8.69158C5.93734 8.75232 5.90047 8.80751 5.85398 8.854C5.80749 8.90049 5.7523 8.93736 5.69156 8.96252C5.63082 8.98768 5.56572 9.00063 5.49998 9.00063C5.43423 9.00063 5.36913 8.98768 5.30839 8.96252C5.24765 8.93736 5.19247 8.90049 5.14598 8.854L1.14598 4.854C1.09942 4.80755 1.06247 4.75238 1.03727 4.69163C1.01206 4.63089 0.999084 4.56577 0.999084 4.5C0.999084 4.43423 1.01206 4.36911 1.03727 4.30837C1.06247 4.24762 1.09942 4.19245 1.14598 4.146L5.14598 0.146C5.23986 0.0521132 5.3672 -0.000631809 5.49998 -0.000631809C5.63275 -0.000631809 5.76009 0.0521132 5.85398 0.146C5.94787 0.239886 6.00061 0.367224 6.00061 0.5C6.00061 0.632776 5.94787 0.760113 5.85398 0.854L2.70698 4H14.5C14.6326 4 14.7598 4.05268 14.8535 4.14645C14.9473 4.24021 15 4.36739 15 4.5Z" fill="black"/>
</g>
<defs>
<clipPath id="clip0_104_404">
<rect width="16" height="16" fill="white"/>
</clipPath>
</defs>
</svg>
