<svg width="16" height="16" viewBox="0 0 16 16" xmlns="http://www.w3.org/2000/svg" fill='currentColor'><path fill-rule="evenodd" clip-rule="evenodd" d="M8 12C8.13261 12 8.25978 11.9473 8.35355 11.8536C8.44732 11.7598 8.5 11.6326 8.5 11.5V5.70701L10.646 7.85401C10.6925 7.9005 10.7477 7.93737 10.8084 7.96253C10.8692 7.98769 10.9343 8.00064 11 8.00064C11.0657 8.00064 11.1308 7.98769 11.1916 7.96253C11.2523 7.93737 11.3075 7.9005 11.354 7.85401C11.4005 7.80752 11.4374 7.75233 11.4625 7.69159C11.4877 7.63085 11.5006 7.56575 11.5006 7.50001C11.5006 7.43426 11.4877 7.36916 11.4625 7.30843C11.4374 7.24769 11.4005 7.1925 11.354 7.14601L8.354 4.14601C8.30755 4.09945 8.25238 4.0625 8.19163 4.0373C8.13089 4.01209 8.06577 3.99911 8 3.99911C7.93423 3.99911 7.86911 4.01209 7.80836 4.0373C7.74762 4.0625 7.69244 4.09945 7.646 4.14601L4.646 7.14601C4.55211 7.2399 4.49937 7.36723 4.49937 7.50001C4.49937 7.63278 4.55211 7.76012 4.646 7.85401C4.73989 7.9479 4.86722 8.00064 5 8.00064C5.13277 8.00064 5.26011 7.9479 5.354 7.85401L7.5 5.70701V11.5C7.5 11.6326 7.55268 11.7598 7.64645 11.8536C7.74021 11.9473 7.86739 12 8 12Z"/></svg>