<svg width="16" height="16" viewBox="0 0 16 16" xmlns="http://www.w3.org/2000/svg" fill='currentColor'><g clip-path="url(#clip0_104_431)"><path fill-rule="evenodd" clip-rule="evenodd" d="M0.171997 15.828C0.265761 15.9217 0.392915 15.9744 0.525497 15.9744C0.65808 15.9744 0.785234 15.9217 0.878998 15.828L4.975 11.732V14.5C4.975 14.6326 5.02768 14.7598 5.12144 14.8536C5.21521 14.9473 5.34239 15 5.475 15C5.60761 15 5.73478 14.9473 5.82855 14.8536C5.92232 14.7598 5.975 14.6326 5.975 14.5V10.525C5.975 10.3924 5.92232 10.2652 5.82855 10.1714C5.73478 10.0777 5.60761 10.025 5.475 10.025H1.5C1.36739 10.025 1.24021 10.0777 1.14644 10.1714C1.05268 10.2652 0.999997 10.3924 0.999997 10.525C0.999997 10.6576 1.05268 10.7848 1.14644 10.8786C1.24021 10.9723 1.36739 11.025 1.5 11.025H4.268L0.171997 15.121C0.078262 15.2148 0.0256042 15.3419 0.0256042 15.4745C0.0256042 15.6071 0.078262 15.7342 0.171997 15.828ZM15.828 0.171997C15.7342 0.078262 15.6071 0.0256042 15.4745 0.0256042C15.3419 0.0256042 15.2148 0.078262 15.121 0.171997L11.025 4.268V1.5C11.025 1.36739 10.9723 1.24021 10.8786 1.14644C10.7848 1.05268 10.6576 0.999997 10.525 0.999997C10.3924 0.999997 10.2652 1.05268 10.1714 1.14644C10.0777 1.24021 10.025 1.36739 10.025 1.5V5.475C10.025 5.60761 10.0777 5.73478 10.1714 5.82855C10.2652 5.92232 10.3924 5.975 10.525 5.975H14.5C14.6326 5.975 14.7598 5.92232 14.8536 5.82855C14.9473 5.73478 15 5.60761 15 5.475C15 5.34239 14.9473 5.21521 14.8536 5.12144C14.7598 5.02768 14.6326 4.975 14.5 4.975H11.732L15.828 0.878998C15.9217 0.785234 15.9744 0.65808 15.9744 0.525497C15.9744 0.392915 15.9217 0.265761 15.828 0.171997Z"/></g><defs><clipPath id="clip0_104_431"><rect width="16" height="16"/></clipPath></defs></svg>