<svg width="16" height="16" viewBox="0 0 16 16" fill="none" xmlns="http://www.w3.org/2000/svg">
<g clip-path="url(#clip0_104_445)">
<path fill-rule="evenodd" clip-rule="evenodd" d="M1 8C1 9.85652 1.7375 11.637 3.05025 12.9497C4.36301 14.2625 6.14348 15 8 15C9.85652 15 11.637 14.2625 12.9497 12.9497C14.2625 11.637 15 9.85652 15 8C15 6.14348 14.2625 4.36301 12.9497 3.05025C11.637 1.7375 9.85652 1 8 1C6.14348 1 4.36301 1.7375 3.05025 3.05025C1.7375 4.36301 1 6.14348 1 8ZM16 8C16 10.1217 15.1571 12.1566 13.6569 13.6569C12.1566 15.1571 10.1217 16 8 16C5.87827 16 3.84344 15.1571 2.34315 13.6569C0.842855 12.1566 0 10.1217 0 8C0 5.87827 0.842855 3.84344 2.34315 2.34315C3.84344 0.842855 5.87827 0 8 0C10.1217 0 12.1566 0.842855 13.6569 2.34315C15.1571 3.84344 16 5.87827 16 8ZM8.5 11.5C8.5 11.6326 8.44732 11.7598 8.35355 11.8536C8.25979 11.9473 8.13261 12 8 12C7.86739 12 7.74021 11.9473 7.64645 11.8536C7.55268 11.7598 7.5 11.6326 7.5 11.5V5.707L5.354 7.854C5.26011 7.94789 5.13278 8.00063 5 8.00063C4.86722 8.00063 4.73989 7.94789 4.646 7.854C4.55211 7.76011 4.49937 7.63278 4.49937 7.5C4.49937 7.36722 4.55211 7.23989 4.646 7.146L7.646 4.146C7.69245 4.09944 7.74762 4.06249 7.80837 4.03729C7.86911 4.01208 7.93423 3.99911 8 3.99911C8.06577 3.99911 8.13089 4.01208 8.19163 4.03729C8.25238 4.06249 8.30755 4.09944 8.354 4.146L11.354 7.146C11.4479 7.23989 11.5006 7.36722 11.5006 7.5C11.5006 7.63278 11.4479 7.76011 11.354 7.854C11.2601 7.94789 11.1328 8.00063 11 8.00063C10.8672 8.00063 10.7399 7.94789 10.646 7.854L8.5 5.707V11.5Z" fill="black"/>
</g>
<defs>
<clipPath id="clip0_104_445">
<rect width="16" height="16" fill="white"/>
</clipPath>
</defs>
</svg>
