<svg width="16" height="16" viewBox="0 0 16 16" xmlns="http://www.w3.org/2000/svg" fill='currentColor'><g clip-path="url(#clip0_104_384)"><path d="M0 8C0 5.87827 0.842855 3.84344 2.34315 2.34315C3.84344 0.842855 5.87827 0 8 0C10.1217 0 12.1566 0.842855 13.6569 2.34315C15.1571 3.84344 16 5.87827 16 8C16 10.1217 15.1571 12.1566 13.6569 13.6569C12.1566 15.1571 10.1217 16 8 16C5.87827 16 3.84344 15.1571 2.34315 13.6569C0.842855 12.1566 0 10.1217 0 8ZM5.904 5.197C5.85788 5.14924 5.8027 5.11115 5.7417 5.08495C5.6807 5.05874 5.61509 5.04495 5.5487 5.04437C5.48231 5.0438 5.41647 5.05645 5.35502 5.08159C5.29357 5.10673 5.23775 5.14386 5.1908 5.1908C5.14386 5.23775 5.10673 5.29357 5.08159 5.35502C5.05645 5.41647 5.0438 5.48231 5.04437 5.5487C5.04495 5.61509 5.05874 5.6807 5.08495 5.7417C5.11115 5.8027 5.14924 5.85788 5.197 5.904L9.293 10H6.525C6.39239 10 6.26521 10.0527 6.17145 10.1464C6.07768 10.2402 6.025 10.3674 6.025 10.5C6.025 10.6326 6.07768 10.7598 6.17145 10.8536C6.26521 10.9473 6.39239 11 6.525 11H10.5C10.6326 11 10.7598 10.9473 10.8536 10.8536C10.9473 10.7598 11 10.6326 11 10.5V6.525C11 6.39239 10.9473 6.26521 10.8536 6.17145C10.7598 6.07768 10.6326 6.025 10.5 6.025C10.3674 6.025 10.2402 6.07768 10.1464 6.17145C10.0527 6.26521 10 6.39239 10 6.525V9.293L5.904 5.197Z"/></g><defs><clipPath id="clip0_104_384"><rect width="16" height="16"/></clipPath></defs></svg>