<svg width="16" height="16" viewBox="0 0 16 16" xmlns="http://www.w3.org/2000/svg" fill='currentColor'><path fill-rule="evenodd" clip-rule="evenodd" d="M8 1C8.13261 1 8.25978 1.05268 8.35355 1.14645C8.44732 1.24021 8.5 1.36739 8.5 1.5V13.293L11.646 10.146C11.7399 10.0521 11.8672 9.99937 12 9.99937C12.1328 9.99937 12.2601 10.0521 12.354 10.146C12.4479 10.2399 12.5006 10.3672 12.5006 10.5C12.5006 10.6328 12.4479 10.7601 12.354 10.854L8.354 14.854C8.30755 14.9006 8.25238 14.9375 8.19163 14.9627C8.13089 14.9879 8.06577 15.0009 8 15.0009C7.93423 15.0009 7.86911 14.9879 7.80836 14.9627C7.74762 14.9375 7.69244 14.9006 7.646 14.854L3.646 10.854C3.55211 10.7601 3.49937 10.6328 3.49937 10.5C3.49937 10.3672 3.55211 10.2399 3.646 10.146C3.73988 10.0521 3.86722 9.99937 4 9.99937C4.13277 9.99937 4.26011 10.0521 4.354 10.146L7.5 13.293V1.5C7.5 1.36739 7.55268 1.24021 7.64645 1.14645C7.74021 1.05268 7.86739 1 8 1Z"/></svg>