<svg width="16" height="16" viewBox="0 0 16 16" fill="none" xmlns="http://www.w3.org/2000/svg">
<g clip-path="url(#clip0_104_463)">
<path d="M0 8C0 10.1217 0.842855 12.1566 2.34315 13.6569C3.84344 15.1571 5.87827 16 8 16C10.1217 16 12.1566 15.1571 13.6569 13.6569C15.1571 12.1566 16 10.1217 16 8C16 5.87827 15.1571 3.84344 13.6569 2.34315C12.1566 0.842855 10.1217 0 8 0C5.87827 0 3.84344 0.842855 2.34315 2.34315C0.842855 3.84344 0 5.87827 0 8H0ZM5.904 10.803C5.85788 10.8508 5.8027 10.8888 5.7417 10.9151C5.6807 10.9413 5.61509 10.955 5.5487 10.9556C5.48231 10.9562 5.41647 10.9436 5.35502 10.9184C5.29357 10.8933 5.23775 10.8561 5.1908 10.8092C5.14386 10.7623 5.10673 10.7064 5.08159 10.645C5.05645 10.5835 5.0438 10.5177 5.04437 10.4513C5.04495 10.3849 5.05874 10.3193 5.08495 10.2583C5.11115 10.1973 5.14924 10.1421 5.197 10.096L9.293 6H6.525C6.39239 6 6.26521 5.94732 6.17145 5.85355C6.07768 5.75979 6.025 5.63261 6.025 5.5C6.025 5.36739 6.07768 5.24021 6.17145 5.14645C6.26521 5.05268 6.39239 5 6.525 5H10.5C10.6326 5 10.7598 5.05268 10.8536 5.14645C10.9473 5.24021 11 5.36739 11 5.5V9.475C11 9.60761 10.9473 9.73479 10.8536 9.82855C10.7598 9.92232 10.6326 9.975 10.5 9.975C10.3674 9.975 10.2402 9.92232 10.1464 9.82855C10.0527 9.73479 10 9.60761 10 9.475V6.707L5.904 10.803Z" fill="black"/>
</g>
<defs>
<clipPath id="clip0_104_463">
<rect width="16" height="16" fill="white"/>
</clipPath>
</defs>
</svg>
