<svg width="16" height="16" viewBox="0 0 16 16" fill="none" xmlns="http://www.w3.org/2000/svg">
<path fill-rule="evenodd" clip-rule="evenodd" d="M8 12C8.13261 12 8.25978 11.9473 8.35355 11.8536C8.44732 11.7598 8.5 11.6326 8.5 11.5V5.707L10.646 7.854C10.6925 7.90049 10.7477 7.93737 10.8084 7.96252C10.8692 7.98768 10.9343 8.00063 11 8.00063C11.0657 8.00063 11.1308 7.98768 11.1916 7.96252C11.2523 7.93737 11.3075 7.90049 11.354 7.854C11.4005 7.80751 11.4374 7.75232 11.4625 7.69158C11.4877 7.63085 11.5006 7.56575 11.5006 7.5C11.5006 7.43426 11.4877 7.36916 11.4625 7.30842C11.4374 7.24768 11.4005 7.19249 11.354 7.146L8.354 4.146C8.30755 4.09944 8.25238 4.06249 8.19163 4.03729C8.13089 4.01208 8.06577 3.99911 8 3.99911C7.93423 3.99911 7.86911 4.01208 7.80836 4.03729C7.74762 4.06249 7.69244 4.09944 7.646 4.146L4.646 7.146C4.55211 7.23989 4.49937 7.36723 4.49937 7.5C4.49937 7.63278 4.55211 7.76011 4.646 7.854C4.73989 7.94789 4.86722 8.00063 5 8.00063C5.13277 8.00063 5.26011 7.94789 5.354 7.854L7.5 5.707V11.5C7.5 11.6326 7.55268 11.7598 7.64645 11.8536C7.74021 11.9473 7.86739 12 8 12Z" fill="black"/>
</svg>
