<svg width="16" height="16" viewBox="0 0 16 16" xmlns="http://www.w3.org/2000/svg" fill='currentColor'><g clip-path="url(#clip0_104_344)"><path fill-rule="evenodd" clip-rule="evenodd" d="M1.14601 4.854C1.09945 4.80755 1.0625 4.75238 1.0373 4.69163C1.01209 4.63089 0.999115 4.56577 0.999115 4.5C0.999115 4.43423 1.01209 4.36911 1.0373 4.30836C1.0625 4.24762 1.09945 4.19244 1.14601 4.146L5.14601 0.145998C5.2399 0.0521117 5.36723 -0.00063324 5.50001 -0.00063324C5.63278 -0.00063324 5.76012 0.0521117 5.85401 0.145998C5.9479 0.239885 6.00064 0.367223 6.00064 0.499998C6.00064 0.632774 5.9479 0.760112 5.85401 0.853998L2.70701 4H12.5C13.163 4 13.7989 4.26339 14.2678 4.73223C14.7366 5.20107 15 5.83696 15 6.5V14.5C15 14.6326 14.9473 14.7598 14.8536 14.8536C14.7598 14.9473 14.6326 15 14.5 15C14.3674 15 14.2402 14.9473 14.1465 14.8536C14.0527 14.7598 14 14.6326 14 14.5V6.5C14 6.10217 13.842 5.72064 13.5607 5.43934C13.2794 5.15803 12.8978 5 12.5 5H2.70701L5.85401 8.146C5.9005 8.19249 5.93737 8.24767 5.96253 8.30841C5.98769 8.36915 6.00064 8.43425 6.00064 8.5C6.00064 8.56574 5.98769 8.63084 5.96253 8.69158C5.93737 8.75232 5.9005 8.80751 5.85401 8.854C5.80752 8.90049 5.75233 8.93736 5.69159 8.96252C5.63085 8.98768 5.56575 9.00063 5.50001 9.00063C5.43426 9.00063 5.36916 8.98768 5.30842 8.96252C5.24769 8.93736 5.1925 8.90049 5.14601 8.854L1.14601 4.854Z"/></g><defs><clipPath id="clip0_104_344"><rect width="16" height="16"/></clipPath></defs></svg>