<svg width="16" height="16" viewBox="0 0 16 16" fill="none" xmlns="http://www.w3.org/2000/svg">
<g clip-path="url(#clip0_104_376)">
<path fill-rule="evenodd" clip-rule="evenodd" d="M15 2C15 1.73478 14.8946 1.48043 14.7071 1.29289C14.5196 1.10536 14.2652 1 14 1H2C1.73478 1 1.48043 1.10536 1.29289 1.29289C1.10536 1.48043 1 1.73478 1 2V14C1 14.2652 1.10536 14.5196 1.29289 14.7071C1.48043 14.8946 1.73478 15 2 15H14C14.2652 15 14.5196 14.8946 14.7071 14.7071C14.8946 14.5196 15 14.2652 15 14V2ZM0 2C0 1.46957 0.210714 0.960859 0.585786 0.585786C0.960859 0.210714 1.46957 0 2 0L14 0C14.5304 0 15.0391 0.210714 15.4142 0.585786C15.7893 0.960859 16 1.46957 16 2V14C16 14.5304 15.7893 15.0391 15.4142 15.4142C15.0391 15.7893 14.5304 16 14 16H2C1.46957 16 0.960859 15.7893 0.585786 15.4142C0.210714 15.0391 0 14.5304 0 14V2ZM10.096 5.146C10.1899 5.05225 10.3172 4.99963 10.4499 4.99972C10.5825 4.99982 10.7097 5.05261 10.8035 5.1465C10.8973 5.24039 10.9499 5.36767 10.9498 5.50035C10.9497 5.63304 10.8969 5.76025 10.803 5.854L6.707 9.95H9.475C9.60761 9.95 9.73479 10.0027 9.82855 10.0964C9.92232 10.1902 9.975 10.3174 9.975 10.45C9.975 10.5826 9.92232 10.7098 9.82855 10.8036C9.73479 10.8973 9.60761 10.95 9.475 10.95H5.5C5.36739 10.95 5.24021 10.8973 5.14645 10.8036C5.05268 10.7098 5 10.5826 5 10.45V6.475C5 6.34239 5.05268 6.21521 5.14645 6.12145C5.24021 6.02768 5.36739 5.975 5.5 5.975C5.63261 5.975 5.75979 6.02768 5.85355 6.12145C5.94732 6.21521 6 6.34239 6 6.475V9.243L10.096 5.146Z" fill="black"/>
</g>
<defs>
<clipPath id="clip0_104_376">
<rect width="16" height="16" fill="white"/>
</clipPath>
</defs>
</svg>
