<svg width="16" height="16" viewBox="0 0 16 16" fill="none" xmlns="http://www.w3.org/2000/svg">
<path fill-rule="evenodd" clip-rule="evenodd" d="M14 13.5C14 13.6326 13.9473 13.7598 13.8536 13.8536C13.7598 13.9473 13.6326 14 13.5 14H7.50001C7.3674 14 7.24022 13.9473 7.14645 13.8536C7.05268 13.7598 7.00001 13.6326 7.00001 13.5C7.00001 13.3674 7.05268 13.2402 7.14645 13.1464C7.24022 13.0527 7.3674 13 7.50001 13H12.293L2.14601 2.854C2.09952 2.80751 2.06264 2.75232 2.03748 2.69158C2.01232 2.63084 1.99937 2.56574 1.99937 2.5C1.99937 2.43426 2.01232 2.36916 2.03748 2.30842C2.06264 2.24768 2.09952 2.19249 2.14601 2.146C2.19249 2.09951 2.24768 2.06264 2.30842 2.03748C2.36916 2.01232 2.43426 1.99937 2.50001 1.99937C2.56575 1.99937 2.63085 2.01232 2.69159 2.03748C2.75233 2.06264 2.80752 2.09951 2.85401 2.146L13 12.293V7.5C13 7.36739 13.0527 7.24022 13.1465 7.14645C13.2402 7.05268 13.3674 7 13.5 7C13.6326 7 13.7598 7.05268 13.8536 7.14645C13.9473 7.24022 14 7.36739 14 7.5V13.5Z" fill="black"/>
</svg>
