<svg width="16" height="16" viewBox="0 0 16 16" fill="none" xmlns="http://www.w3.org/2000/svg">
<path fill-rule="evenodd" clip-rule="evenodd" d="M12.5 15C12.3674 15 12.2402 14.9473 12.1464 14.8536C12.0527 14.7598 12 14.6326 12 14.5V1.5C12 1.36739 12.0527 1.24021 12.1464 1.14645C12.2402 1.05268 12.3674 1 12.5 1C12.6326 1 12.7598 1.05268 12.8535 1.14645C12.9473 1.24021 13 1.36739 13 1.5V14.5C13 14.6326 12.9473 14.7598 12.8535 14.8536C12.7598 14.9473 12.6326 15 12.5 15ZM9.99998 8C9.99998 8.13261 9.9473 8.25979 9.85353 8.35355C9.75976 8.44732 9.63259 8.5 9.49998 8.5H3.70698L5.85398 10.646C5.90047 10.6925 5.93734 10.7477 5.9625 10.8084C5.98766 10.8692 6.00061 10.9343 6.00061 11C6.00061 11.0657 5.98766 11.1308 5.9625 11.1916C5.93734 11.2523 5.90047 11.3075 5.85398 11.354C5.80749 11.4005 5.7523 11.4374 5.69156 11.4625C5.63082 11.4877 5.56572 11.5006 5.49998 11.5006C5.43423 11.5006 5.36913 11.4877 5.30839 11.4625C5.24766 11.4374 5.19247 11.4005 5.14598 11.354L2.14598 8.354C2.09941 8.30755 2.06247 8.25238 2.03727 8.19163C2.01206 8.13089 1.99908 8.06577 1.99908 8C1.99908 7.93423 2.01206 7.86911 2.03727 7.80837C2.06247 7.74762 2.09941 7.69245 2.14598 7.646L5.14598 4.646C5.23986 4.55211 5.3672 4.49937 5.49998 4.49937C5.63275 4.49937 5.76009 4.55211 5.85398 4.646C5.94787 4.73989 6.00061 4.86722 6.00061 5C6.00061 5.13278 5.94787 5.26011 5.85398 5.354L3.70698 7.5H9.49998C9.63259 7.5 9.75976 7.55268 9.85353 7.64645C9.9473 7.74021 9.99998 7.86739 9.99998 8Z" fill="black"/>
</svg>
