<svg width="16" height="16" viewBox="0 0 16 16" fill="none" xmlns="http://www.w3.org/2000/svg">
<g clip-path="url(#clip0_104_374)">
<path d="M16 8C16 5.87827 15.1571 3.84344 13.6569 2.34315C12.1566 0.842855 10.1217 0 8 0C5.87827 0 3.84344 0.842855 2.34315 2.34315C0.842855 3.84344 0 5.87827 0 8C0 10.1217 0.842855 12.1566 2.34315 13.6569C3.84344 15.1571 5.87827 16 8 16C10.1217 16 12.1566 15.1571 13.6569 13.6569C15.1571 12.1566 16 10.1217 16 8ZM10.096 5.197C10.1421 5.14924 10.1973 5.11115 10.2583 5.08495C10.3193 5.05874 10.3849 5.04495 10.4513 5.04437C10.5177 5.0438 10.5835 5.05645 10.645 5.08159C10.7064 5.10673 10.7623 5.14386 10.8092 5.1908C10.8561 5.23775 10.8933 5.29357 10.9184 5.35502C10.9436 5.41647 10.9562 5.48231 10.9556 5.5487C10.955 5.61509 10.9413 5.6807 10.9151 5.7417C10.8888 5.8027 10.8508 5.85788 10.803 5.904L6.707 10H9.475C9.60761 10 9.73479 10.0527 9.82855 10.1464C9.92232 10.2402 9.975 10.3674 9.975 10.5C9.975 10.6326 9.92232 10.7598 9.82855 10.8536C9.73479 10.9473 9.60761 11 9.475 11H5.5C5.36739 11 5.24021 10.9473 5.14645 10.8536C5.05268 10.7598 5 10.6326 5 10.5V6.525C5 6.39239 5.05268 6.26521 5.14645 6.17145C5.24021 6.07768 5.36739 6.025 5.5 6.025C5.63261 6.025 5.75979 6.07768 5.85355 6.17145C5.94732 6.26521 6 6.39239 6 6.525V9.293L10.096 5.197Z" fill="black"/>
</g>
<defs>
<clipPath id="clip0_104_374">
<rect width="16" height="16" fill="white"/>
</clipPath>
</defs>
</svg>
