<svg width="16" height="16" viewBox="0 0 16 16" fill="none" xmlns="http://www.w3.org/2000/svg">
<g clip-path="url(#clip0_104_372)">
<path fill-rule="evenodd" clip-rule="evenodd" d="M1 8C1 9.85652 1.7375 11.637 3.05025 12.9497C4.36301 14.2625 6.14348 15 8 15C9.85652 15 11.637 14.2625 12.9497 12.9497C14.2625 11.637 15 9.85652 15 8C15 6.14348 14.2625 4.36301 12.9497 3.05025C11.637 1.7375 9.85652 1 8 1C6.14348 1 4.36301 1.7375 3.05025 3.05025C1.7375 4.36301 1 6.14348 1 8ZM16 8C16 10.1217 15.1571 12.1566 13.6569 13.6569C12.1566 15.1571 10.1217 16 8 16C5.87827 16 3.84344 15.1571 2.34315 13.6569C0.842855 12.1566 0 10.1217 0 8C0 5.87827 0.842855 3.84344 2.34315 2.34315C3.84344 0.842855 5.87827 0 8 0C10.1217 0 12.1566 0.842855 13.6569 2.34315C15.1571 3.84344 16 5.87827 16 8ZM10.096 5.146C10.1899 5.05225 10.3172 4.99963 10.4499 4.99972C10.5825 4.99982 10.7097 5.05261 10.8035 5.1465C10.8973 5.24039 10.9499 5.36767 10.9498 5.50035C10.9497 5.63304 10.8969 5.76025 10.803 5.854L6.707 9.95H9.475C9.60761 9.95 9.73479 10.0027 9.82855 10.0964C9.92232 10.1902 9.975 10.3174 9.975 10.45C9.975 10.5826 9.92232 10.7098 9.82855 10.8036C9.73479 10.8973 9.60761 10.95 9.475 10.95H5.5C5.36739 10.95 5.24021 10.8973 5.14645 10.8036C5.05268 10.7098 5 10.5826 5 10.45V6.475C5 6.34239 5.05268 6.21521 5.14645 6.12145C5.24021 6.02768 5.36739 5.975 5.5 5.975C5.63261 5.975 5.75979 6.02768 5.85355 6.12145C5.94732 6.21521 6 6.34239 6 6.475V9.243L10.096 5.146Z" fill="black"/>
</g>
<defs>
<clipPath id="clip0_104_372">
<rect width="16" height="16" fill="white"/>
</clipPath>
</defs>
</svg>
