<svg width="16" height="16" viewBox="0 0 16 16" fill="none" xmlns="http://www.w3.org/2000/svg">
<path fill-rule="evenodd" clip-rule="evenodd" d="M4 8C4 7.86739 4.05268 7.74021 4.14645 7.64645C4.24021 7.55268 4.36739 7.5 4.5 7.5H10.293L8.146 5.354C8.05211 5.26011 7.99937 5.13277 7.99937 5C7.99937 4.86722 8.05211 4.73989 8.146 4.646C8.23989 4.55211 8.36722 4.49937 8.5 4.49937C8.63278 4.49937 8.76011 4.55211 8.854 4.646L11.854 7.646C11.9006 7.69244 11.9375 7.74762 11.9627 7.80836C11.9879 7.86911 12.0009 7.93423 12.0009 8C12.0009 8.06577 11.9879 8.13089 11.9627 8.19163C11.9375 8.25238 11.9006 8.30755 11.854 8.354L8.854 11.354C8.76011 11.4479 8.63278 11.5006 8.5 11.5006C8.36722 11.5006 8.23989 11.4479 8.146 11.354C8.05211 11.2601 7.99937 11.1328 7.99937 11C7.99937 10.8672 8.05211 10.7399 8.146 10.646L10.293 8.5H4.5C4.36739 8.5 4.24021 8.44732 4.14645 8.35355C4.05268 8.25978 4 8.13261 4 8Z" fill="black"/>
</svg>
