<svg width="16" height="16" viewBox="0 0 16 16" fill="none" xmlns="http://www.w3.org/2000/svg">
<g clip-path="url(#clip0_104_394)">
<path d="M2 0C1.46957 0 0.960859 0.210714 0.585786 0.585786C0.210714 0.960859 0 1.46957 0 2L0 14C0 14.5304 0.210714 15.0391 0.585786 15.4142C0.960859 15.7893 1.46957 16 2 16H14C14.5304 16 15.0391 15.7893 15.4142 15.4142C15.7893 15.0391 16 14.5304 16 14V2C16 1.46957 15.7893 0.960859 15.4142 0.585786C15.0391 0.210714 14.5304 0 14 0L2 0ZM8.5 4.5V10.293L10.646 8.146C10.6925 8.09951 10.7477 8.06264 10.8084 8.03748C10.8692 8.01232 10.9343 7.99937 11 7.99937C11.0657 7.99937 11.1308 8.01232 11.1916 8.03748C11.2523 8.06264 11.3075 8.09951 11.354 8.146C11.4005 8.19249 11.4374 8.24768 11.4625 8.30842C11.4877 8.36916 11.5006 8.43426 11.5006 8.5C11.5006 8.56574 11.4877 8.63084 11.4625 8.69158C11.4374 8.75232 11.4005 8.80751 11.354 8.854L8.354 11.854C8.30755 11.9006 8.25238 11.9375 8.19163 11.9627C8.13089 11.9879 8.06577 12.0009 8 12.0009C7.93423 12.0009 7.86911 11.9879 7.80837 11.9627C7.74762 11.9375 7.69245 11.9006 7.646 11.854L4.646 8.854C4.59951 8.80751 4.56264 8.75232 4.53748 8.69158C4.51232 8.63084 4.49937 8.56574 4.49937 8.5C4.49937 8.43426 4.51232 8.36916 4.53748 8.30842C4.56264 8.24768 4.59951 8.19249 4.646 8.146C4.73989 8.05211 4.86722 7.99937 5 7.99937C5.06574 7.99937 5.13084 8.01232 5.19158 8.03748C5.25232 8.06264 5.30751 8.09951 5.354 8.146L7.5 10.293V4.5C7.5 4.36739 7.55268 4.24021 7.64645 4.14645C7.74021 4.05268 7.86739 4 8 4C8.13261 4 8.25979 4.05268 8.35355 4.14645C8.44732 4.24021 8.5 4.36739 8.5 4.5Z" fill="black"/>
</g>
<defs>
<clipPath id="clip0_104_394">
<rect width="16" height="16" fill="white"/>
</clipPath>
</defs>
</svg>
