<svg width="16" height="16" viewBox="0 0 16 16" xmlns="http://www.w3.org/2000/svg" fill='currentColor'><g clip-path="url(#clip0_104_433)"><path fill-rule="evenodd" clip-rule="evenodd" d="M5.82799 10.172C5.73423 10.0783 5.60708 10.0256 5.47449 10.0256C5.34191 10.0256 5.21476 10.0783 5.12099 10.172L1.02499 14.268V11.5C1.02499 11.3674 0.972315 11.2402 0.878547 11.1464C0.784779 11.0527 0.657602 11 0.524994 11C0.392386 11 0.265209 11.0527 0.17144 11.1464C0.0776723 11.2402 0.0249939 11.3674 0.0249939 11.5V15.475C0.0249939 15.6076 0.0776723 15.7348 0.17144 15.8286C0.265209 15.9223 0.392386 15.975 0.524994 15.975H4.49999C4.6326 15.975 4.75978 15.9223 4.85355 15.8286C4.94732 15.7348 4.99999 15.6076 4.99999 15.475C4.99999 15.3424 4.94732 15.2152 4.85355 15.1214C4.75978 15.0277 4.6326 14.975 4.49999 14.975H1.73199L5.82799 10.879C5.92173 10.7852 5.97439 10.6581 5.97439 10.5255C5.97439 10.3929 5.92173 10.2658 5.82799 10.172ZM10.172 5.828C10.2658 5.92174 10.3929 5.97439 10.5255 5.97439C10.6581 5.97439 10.7852 5.92174 10.879 5.828L14.975 1.732V4.5C14.975 4.63261 15.0277 4.75979 15.1214 4.85355C15.2152 4.94732 15.3424 5 15.475 5C15.6076 5 15.7348 4.94732 15.8285 4.85355C15.9223 4.75979 15.975 4.63261 15.975 4.5V0.525001C15.975 0.392393 15.9223 0.265216 15.8285 0.171448C15.7348 0.0776799 15.6076 0.0250015 15.475 0.0250015H11.5C11.3674 0.0250015 11.2402 0.0776799 11.1464 0.171448C11.0527 0.265216 11 0.392393 11 0.525001C11 0.65761 11.0527 0.784787 11.1464 0.878555C11.2402 0.972323 11.3674 1.025 11.5 1.025H14.268L10.172 5.121C10.0783 5.21477 10.0256 5.34192 10.0256 5.4745C10.0256 5.60708 10.0783 5.73424 10.172 5.828Z"/></g><defs><clipPath id="clip0_104_433"><rect width="16" height="16"/></clipPath></defs></svg>