<svg width="16" height="16" viewBox="0 0 16 16" fill="none" xmlns="http://www.w3.org/2000/svg">
<g clip-path="url(#clip0_104_451)">
<path fill-rule="evenodd" clip-rule="evenodd" d="M1 8C1 9.85652 1.7375 11.637 3.05025 12.9497C4.36301 14.2625 6.14348 15 8 15C9.85652 15 11.637 14.2625 12.9497 12.9497C14.2625 11.637 15 9.85652 15 8C15 6.14348 14.2625 4.36301 12.9497 3.05025C11.637 1.7375 9.85652 1 8 1C6.14348 1 4.36301 1.7375 3.05025 3.05025C1.7375 4.36301 1 6.14348 1 8ZM16 8C16 10.1217 15.1571 12.1566 13.6569 13.6569C12.1566 15.1571 10.1217 16 8 16C5.87827 16 3.84344 15.1571 2.34315 13.6569C0.842855 12.1566 0 10.1217 0 8C0 5.87827 0.842855 3.84344 2.34315 2.34315C3.84344 0.842855 5.87827 0 8 0C10.1217 0 12.1566 0.842855 13.6569 2.34315C15.1571 3.84344 16 5.87827 16 8ZM10.096 10.803C10.1421 10.8508 10.1973 10.8888 10.2583 10.9151C10.3193 10.9413 10.3849 10.955 10.4513 10.9556C10.5177 10.9562 10.5835 10.9436 10.645 10.9184C10.7064 10.8933 10.7623 10.8561 10.8092 10.8092C10.8561 10.7623 10.8933 10.7064 10.9184 10.645C10.9436 10.5835 10.9562 10.5177 10.9556 10.4513C10.955 10.3849 10.9413 10.3193 10.9151 10.2583C10.8888 10.1973 10.8508 10.1421 10.803 10.096L6.707 6H9.475C9.60761 6 9.73479 5.94732 9.82855 5.85355C9.92232 5.75979 9.975 5.63261 9.975 5.5C9.975 5.36739 9.92232 5.24021 9.82855 5.14645C9.73479 5.05268 9.60761 5 9.475 5H5.5C5.36739 5 5.24021 5.05268 5.14645 5.14645C5.05268 5.24021 5 5.36739 5 5.5V9.475C5 9.60761 5.05268 9.73479 5.14645 9.82855C5.24021 9.92232 5.36739 9.975 5.5 9.975C5.63261 9.975 5.75979 9.92232 5.85355 9.82855C5.94732 9.73479 6 9.60761 6 9.475V6.707L10.096 10.803Z" fill="black"/>
</g>
<defs>
<clipPath id="clip0_104_451">
<rect width="16" height="16" fill="white"/>
</clipPath>
</defs>
</svg>
