<svg width="16" height="16" viewBox="0 0 16 16" fill="none" xmlns="http://www.w3.org/2000/svg">
<path fill-rule="evenodd" clip-rule="evenodd" d="M7.99999 4C8.1326 4 8.25978 4.05268 8.35354 4.14645C8.44731 4.24021 8.49999 4.36739 8.49999 4.5V10.293L10.646 8.146C10.6925 8.09951 10.7477 8.06264 10.8084 8.03748C10.8691 8.01232 10.9342 7.99937 11 7.99937C11.0657 7.99937 11.1308 8.01232 11.1916 8.03748C11.2523 8.06264 11.3075 8.09951 11.354 8.146C11.4005 8.19249 11.4374 8.24768 11.4625 8.30842C11.4877 8.36916 11.5006 8.43426 11.5006 8.5C11.5006 8.56574 11.4877 8.63084 11.4625 8.69158C11.4374 8.75232 11.4005 8.80751 11.354 8.854L8.35399 11.854C8.30755 11.9006 8.25237 11.9375 8.19162 11.9627C8.13088 11.9879 8.06576 12.0009 7.99999 12.0009C7.93422 12.0009 7.8691 11.9879 7.80836 11.9627C7.74761 11.9375 7.69244 11.9006 7.64599 11.854L4.64599 8.854C4.5995 8.80751 4.56263 8.75232 4.53747 8.69158C4.51231 8.63084 4.49936 8.56574 4.49936 8.5C4.49936 8.43426 4.51231 8.36916 4.53747 8.30842C4.56263 8.24768 4.5995 8.19249 4.64599 8.146C4.73988 8.05211 4.86722 7.99937 4.99999 7.99937C5.06573 7.99937 5.13084 8.01232 5.19157 8.03748C5.25231 8.06264 5.3075 8.09951 5.35399 8.146L7.49999 10.293V4.5C7.49999 4.36739 7.55267 4.24021 7.64644 4.14645C7.74021 4.05268 7.86738 4 7.99999 4Z" fill="black"/>
</svg>
