<svg width="16" height="16" viewBox="0 0 16 16" xmlns="http://www.w3.org/2000/svg" fill='currentColor'><path fill-rule="evenodd" clip-rule="evenodd" d="M8 3C9.08065 3.00042 10.1321 3.35093 10.9968 3.99904C11.8615 4.64715 12.493 5.55797 12.7966 6.59508C13.1003 7.63219 13.0598 8.73976 12.6811 9.7519C12.3025 10.764 11.6061 11.6263 10.6963 12.2094C9.78656 12.7926 8.71233 13.0653 7.63454 12.9868C6.55676 12.9082 5.53343 12.4826 4.71785 11.7736C3.90226 11.0647 3.33831 10.1105 3.11047 9.0542C2.88263 7.99784 3.00316 6.89611 3.454 5.914C3.50307 5.7946 3.50406 5.66084 3.45676 5.54072C3.40945 5.42061 3.31752 5.32344 3.20021 5.26957C3.08289 5.21569 2.94928 5.20927 2.82735 5.25167C2.70541 5.29406 2.6046 5.38197 2.546 5.497C2.00501 6.67559 1.86044 7.99773 2.13393 9.26538C2.40743 10.533 3.08427 11.678 4.06308 12.5286C5.04188 13.3793 6.26996 13.89 7.56336 13.9842C8.85676 14.0783 10.1458 13.7509 11.2375 13.0509C12.3292 12.3509 13.1647 11.3161 13.6189 10.1014C14.0731 8.88676 14.1216 7.55762 13.757 6.31311C13.3924 5.0686 12.6344 3.97571 11.5965 3.19815C10.5587 2.42059 9.29682 2.00022 8 2V3Z"/><path d="M7.99999 4.46599V0.533995C7.99998 0.486491 7.98642 0.439976 7.96093 0.399896C7.93543 0.359816 7.89904 0.32783 7.85602 0.307684C7.813 0.287538 7.76513 0.280066 7.71801 0.286142C7.6709 0.292219 7.62649 0.311592 7.58999 0.341995L5.22999 2.30799C5.20186 2.33146 5.17922 2.36082 5.16369 2.39399C5.14816 2.42717 5.14011 2.46336 5.14011 2.49999C5.14011 2.53663 5.14816 2.57282 5.16369 2.60599C5.17922 2.63917 5.20186 2.66853 5.22999 2.69199L7.58999 4.65799C7.62649 4.6884 7.6709 4.70777 7.71801 4.71385C7.76513 4.71992 7.813 4.71245 7.85602 4.69231C7.89904 4.67216 7.93543 4.64017 7.96093 4.60009C7.98642 4.56001 7.99998 4.5135 7.99999 4.46599Z"/></svg>