<svg width="16" height="16" viewBox="0 0 16 16" xmlns="http://www.w3.org/2000/svg" fill='currentColor'><g clip-path="url(#clip0_104_366)"><path fill-rule="evenodd" clip-rule="evenodd" d="M1 8C1 9.85652 1.7375 11.637 3.05025 12.9497C4.36301 14.2625 6.14348 15 8 15C9.85652 15 11.637 14.2625 12.9497 12.9497C14.2625 11.637 15 9.85652 15 8C15 6.14348 14.2625 4.36301 12.9497 3.05025C11.637 1.7375 9.85652 1 8 1C6.14348 1 4.36301 1.7375 3.05025 3.05025C1.7375 4.36301 1 6.14348 1 8ZM16 8C16 10.1217 15.1571 12.1566 13.6569 13.6569C12.1566 15.1571 10.1217 16 8 16C5.87827 16 3.84344 15.1571 2.34315 13.6569C0.842855 12.1566 0 10.1217 0 8C0 5.87827 0.842855 3.84344 2.34315 2.34315C3.84344 0.842855 5.87827 0 8 0C10.1217 0 12.1566 0.842855 13.6569 2.34315C15.1571 3.84344 16 5.87827 16 8ZM8.5 4.5C8.5 4.36739 8.44732 4.24021 8.35355 4.14645C8.25979 4.05268 8.13261 4 8 4C7.86739 4 7.74021 4.05268 7.64645 4.14645C7.55268 4.24021 7.5 4.36739 7.5 4.5V10.293L5.354 8.146C5.26011 8.05211 5.13278 7.99937 5 7.99937C4.86722 7.99937 4.73989 8.05211 4.646 8.146C4.55211 8.23989 4.49937 8.36722 4.49937 8.5C4.49937 8.63278 4.55211 8.76011 4.646 8.854L7.646 11.854C7.69245 11.9006 7.74762 11.9375 7.80837 11.9627C7.86911 11.9879 7.93423 12.0009 8 12.0009C8.06577 12.0009 8.13089 11.9879 8.19163 11.9627C8.25238 11.9375 8.30755 11.9006 8.354 11.854L11.354 8.854C11.4479 8.76011 11.5006 8.63278 11.5006 8.5C11.5006 8.36722 11.4479 8.23989 11.354 8.146C11.2601 8.05211 11.1328 7.99937 11 7.99937C10.8672 7.99937 10.7399 8.05211 10.646 8.146L8.5 10.293V4.5Z"/></g><defs><clipPath id="clip0_104_366"><rect width="16" height="16"/></clipPath></defs></svg>