<svg width="16" height="16" viewBox="0 0 16 16" xmlns="http://www.w3.org/2000/svg" fill='currentColor'><path fill-rule="evenodd" clip-rule="evenodd" d="M2 13.5C2 13.6326 2.05268 13.7598 2.14645 13.8536C2.24021 13.9473 2.36739 14 2.5 14H8.5C8.63261 14 8.75979 13.9473 8.85355 13.8536C8.94732 13.7598 9 13.6326 9 13.5C9 13.3674 8.94732 13.2402 8.85355 13.1465C8.75979 13.0527 8.63261 13 8.5 13H3.707L13.854 2.85401C13.9479 2.76012 14.0006 2.63278 14.0006 2.50001C14.0006 2.36723 13.9479 2.23989 13.854 2.14601C13.7601 2.05212 13.6328 1.99937 13.5 1.99937C13.3672 1.99937 13.2399 2.05212 13.146 2.14601L3 12.293V7.50001C3 7.3674 2.94732 7.24022 2.85355 7.14645C2.75979 7.05268 2.63261 7.00001 2.5 7.00001C2.36739 7.00001 2.24021 7.05268 2.14645 7.14645C2.05268 7.24022 2 7.3674 2 7.50001V13.5Z"/></svg>