<svg width="16" height="16" viewBox="0 0 16 16" fill="none" xmlns="http://www.w3.org/2000/svg">
<g clip-path="url(#clip0_104_386)">
<path fill-rule="evenodd" clip-rule="evenodd" d="M15 2C15 1.73478 14.8946 1.48043 14.7071 1.29289C14.5196 1.10536 14.2652 1 14 1H2C1.73478 1 1.48043 1.10536 1.29289 1.29289C1.10536 1.48043 1 1.73478 1 2V14C1 14.2652 1.10536 14.5196 1.29289 14.7071C1.48043 14.8946 1.73478 15 2 15H14C14.2652 15 14.5196 14.8946 14.7071 14.7071C14.8946 14.5196 15 14.2652 15 14V2ZM0 2C0 1.46957 0.210714 0.960859 0.585786 0.585786C0.960859 0.210714 1.46957 0 2 0L14 0C14.5304 0 15.0391 0.210714 15.4142 0.585786C15.7893 0.960859 16 1.46957 16 2V14C16 14.5304 15.7893 15.0391 15.4142 15.4142C15.0391 15.7893 14.5304 16 14 16H2C1.46957 16 0.960859 15.7893 0.585786 15.4142C0.210714 15.0391 0 14.5304 0 14V2ZM5.854 5.146C5.76011 5.05211 5.63278 4.99937 5.5 4.99937C5.36722 4.99937 5.23989 5.05211 5.146 5.146C5.05211 5.23989 4.99937 5.36722 4.99937 5.5C4.99937 5.63278 5.05211 5.76011 5.146 5.854L9.243 9.95H6.475C6.34239 9.95 6.21521 10.0027 6.12145 10.0964C6.02768 10.1902 5.975 10.3174 5.975 10.45C5.975 10.5826 6.02768 10.7098 6.12145 10.8036C6.21521 10.8973 6.34239 10.95 6.475 10.95H10.45C10.5826 10.95 10.7098 10.8973 10.8036 10.8036C10.8973 10.7098 10.95 10.5826 10.95 10.45V6.475C10.95 6.34239 10.8973 6.21521 10.8036 6.12145C10.7098 6.02768 10.5826 5.975 10.45 5.975C10.3174 5.975 10.1902 6.02768 10.0964 6.12145C10.0027 6.21521 9.95 6.34239 9.95 6.475V9.243L5.854 5.146Z" fill="black"/>
</g>
<defs>
<clipPath id="clip0_104_386">
<rect width="16" height="16" fill="white"/>
</clipPath>
</defs>
</svg>
