<svg width="16" height="16" viewBox="0 0 16 16" fill="none" xmlns="http://www.w3.org/2000/svg">
<path fill-rule="evenodd" clip-rule="evenodd" d="M8 10C8.13261 10 8.25979 9.94732 8.35355 9.85355C8.44732 9.75979 8.5 9.63261 8.5 9.5V3.707L10.646 5.854C10.6925 5.90049 10.7477 5.93737 10.8084 5.96252C10.8692 5.98768 10.9343 6.00063 11 6.00063C11.0657 6.00063 11.1308 5.98768 11.1916 5.96252C11.2523 5.93737 11.3075 5.90049 11.354 5.854C11.4005 5.80751 11.4374 5.75232 11.4625 5.69158C11.4877 5.63085 11.5006 5.56575 11.5006 5.5C11.5006 5.43426 11.4877 5.36916 11.4625 5.30842C11.4374 5.24768 11.4005 5.19249 11.354 5.146L8.354 2.146C8.30755 2.09944 8.25238 2.0625 8.19163 2.03729C8.13089 2.01208 8.06577 1.99911 8 1.99911C7.93423 1.99911 7.86911 2.01208 7.80837 2.03729C7.74762 2.0625 7.69245 2.09944 7.646 2.146L4.646 5.146C4.55211 5.23989 4.49937 5.36723 4.49937 5.5C4.49937 5.63278 4.55211 5.76011 4.646 5.854C4.73989 5.94789 4.86722 6.00063 5 6.00063C5.13278 6.00063 5.26011 5.94789 5.354 5.854L7.5 3.707V9.5C7.5 9.63261 7.55268 9.75979 7.64645 9.85355C7.74021 9.94732 7.86739 10 8 10ZM1 12.5C1 12.3674 1.05268 12.2402 1.14645 12.1464C1.24021 12.0527 1.36739 12 1.5 12H14.5C14.6326 12 14.7598 12.0527 14.8536 12.1464C14.9473 12.2402 15 12.3674 15 12.5C15 12.6326 14.9473 12.7598 14.8536 12.8536C14.7598 12.9473 14.6326 13 14.5 13H1.5C1.36739 13 1.24021 12.9473 1.14645 12.8536C1.05268 12.7598 1 12.6326 1 12.5Z" fill="black"/>
</svg>
