<svg width="16" height="16" viewBox="0 0 16 16" fill="none" xmlns="http://www.w3.org/2000/svg">
<path fill-rule="evenodd" clip-rule="evenodd" d="M7.99999 15C8.1326 15 8.25978 14.9473 8.35354 14.8536C8.44731 14.7598 8.49999 14.6326 8.49999 14.5V2.707L11.646 5.854C11.7399 5.94789 11.8672 6.00063 12 6.00063C12.1328 6.00063 12.2601 5.94789 12.354 5.854C12.4479 5.76011 12.5006 5.63278 12.5006 5.5C12.5006 5.36723 12.4479 5.23989 12.354 5.146L8.35399 1.146C8.30754 1.09944 8.25237 1.0625 8.19162 1.03729C8.13088 1.01208 8.06576 0.999107 7.99999 0.999107C7.93422 0.999107 7.8691 1.01208 7.80836 1.03729C7.74761 1.0625 7.69244 1.09944 7.64599 1.146L3.64599 5.146C3.5995 5.19249 3.56263 5.24768 3.53747 5.30842C3.51231 5.36916 3.49936 5.43426 3.49936 5.5C3.49936 5.63278 3.5521 5.76011 3.64599 5.854C3.73988 5.94789 3.86721 6.00063 3.99999 6.00063C4.13277 6.00063 4.2601 5.94789 4.35399 5.854L7.49999 2.707V14.5C7.49999 14.6326 7.55267 14.7598 7.64644 14.8536C7.74021 14.9473 7.86738 15 7.99999 15Z" fill="black"/>
</svg>
