<svg width="16" height="16" viewBox="0 0 16 16" fill="none" xmlns="http://www.w3.org/2000/svg">
<g clip-path="url(#clip0_104_461)">
<path fill-rule="evenodd" clip-rule="evenodd" d="M1 8C1 9.85652 1.7375 11.637 3.05025 12.9497C4.36301 14.2625 6.14348 15 8 15C9.85652 15 11.637 14.2625 12.9497 12.9497C14.2625 11.637 15 9.85652 15 8C15 6.14348 14.2625 4.36301 12.9497 3.05025C11.637 1.7375 9.85652 1 8 1C6.14348 1 4.36301 1.7375 3.05025 3.05025C1.7375 4.36301 1 6.14348 1 8ZM16 8C16 10.1217 15.1571 12.1566 13.6569 13.6569C12.1566 15.1571 10.1217 16 8 16C5.87827 16 3.84344 15.1571 2.34315 13.6569C0.842855 12.1566 0 10.1217 0 8C0 5.87827 0.842855 3.84344 2.34315 2.34315C3.84344 0.842855 5.87827 0 8 0C10.1217 0 12.1566 0.842855 13.6569 2.34315C15.1571 3.84344 16 5.87827 16 8ZM5.854 10.803C5.76025 10.8969 5.63304 10.9497 5.50035 10.9498C5.36767 10.9499 5.24039 10.8973 5.1465 10.8035C5.05261 10.7097 4.99982 10.5825 4.99972 10.4499C4.99963 10.3172 5.05225 10.1899 5.146 10.096L9.243 6H6.475C6.34239 6 6.21521 5.94732 6.12145 5.85355C6.02768 5.75979 5.975 5.63261 5.975 5.5C5.975 5.36739 6.02768 5.24021 6.12145 5.14645C6.21521 5.05268 6.34239 5 6.475 5H10.45C10.5826 5 10.7098 5.05268 10.8036 5.14645C10.8973 5.24021 10.95 5.36739 10.95 5.5V9.475C10.95 9.60761 10.8973 9.73479 10.8036 9.82855C10.7098 9.92232 10.5826 9.975 10.45 9.975C10.3174 9.975 10.1902 9.92232 10.0964 9.82855C10.0027 9.73479 9.95 9.60761 9.95 9.475V6.707L5.854 10.803Z" fill="black"/>
</g>
<defs>
<clipPath id="clip0_104_461">
<rect width="16" height="16" fill="white"/>
</clipPath>
</defs>
</svg>
