<svg width="16" height="16" viewBox="0 0 16 16" xmlns="http://www.w3.org/2000/svg" fill='currentColor'><g clip-path="url(#clip0_104_441)"><path fill-rule="evenodd" clip-rule="evenodd" d="M7.64601 0.145994C7.69245 0.0994303 7.74763 0.0624874 7.80837 0.037281C7.86912 0.0120745 7.93424 -0.000900269 8.00001 -0.000900269C8.06578 -0.000900269 8.1309 0.0120745 8.19164 0.037281C8.25239 0.0624874 8.30756 0.0994303 8.35401 0.145994L10.354 2.14599C10.4005 2.19248 10.4374 2.24767 10.4625 2.30841C10.4877 2.36915 10.5006 2.43425 10.5006 2.49999C10.5006 2.56574 10.4877 2.63084 10.4625 2.69158C10.4374 2.75232 10.4005 2.80751 10.354 2.85399C10.3075 2.90048 10.2523 2.93736 10.1916 2.96252C10.1309 2.98768 10.0658 3.00063 10 3.00063C9.93427 3.00063 9.86916 2.98768 9.80842 2.96252C9.74769 2.93736 9.6925 2.90048 9.64601 2.85399L8.50001 1.70699V5.49999C8.50001 5.6326 8.44733 5.75978 8.35356 5.85355C8.25979 5.94731 8.13262 5.99999 8.00001 5.99999C7.8674 5.99999 7.74022 5.94731 7.64646 5.85355C7.55269 5.75978 7.50001 5.6326 7.50001 5.49999V1.70699L6.35401 2.85399C6.26012 2.94788 6.13278 3.00063 6.00001 3.00063C5.86723 3.00063 5.7399 2.94788 5.64601 2.85399C5.55212 2.76011 5.49938 2.63277 5.49938 2.49999C5.49938 2.36722 5.55212 2.23988 5.64601 2.14599L7.64601 0.145994ZM8.00001 9.99999C8.13262 9.99999 8.25979 10.0527 8.35356 10.1464C8.44733 10.2402 8.50001 10.3674 8.50001 10.5V14.293L9.64601 13.146C9.73989 13.0521 9.86723 12.9994 10 12.9994C10.1328 12.9994 10.2601 13.0521 10.354 13.146C10.4479 13.2399 10.5006 13.3672 10.5006 13.5C10.5006 13.6328 10.4479 13.7601 10.354 13.854L8.35401 15.854C8.30756 15.9006 8.25239 15.9375 8.19164 15.9627C8.1309 15.9879 8.06578 16.0009 8.00001 16.0009C7.93424 16.0009 7.86912 15.9879 7.80837 15.9627C7.74763 15.9375 7.69245 15.9006 7.64601 15.854L5.64601 13.854C5.59952 13.8075 5.56264 13.7523 5.53749 13.6916C5.51233 13.6308 5.49938 13.5657 5.49938 13.5C5.49938 13.4342 5.51233 13.3691 5.53749 13.3084C5.56264 13.2477 5.59952 13.1925 5.64601 13.146C5.7399 13.0521 5.86723 12.9994 6.00001 12.9994C6.06575 12.9994 6.13085 13.0123 6.19159 13.0375C6.25233 13.0626 6.30752 13.0995 6.35401 13.146L7.50001 14.293V10.5C7.50001 10.3674 7.55269 10.2402 7.64646 10.1464C7.74022 10.0527 7.8674 9.99999 8.00001 9.99999ZM0.146009 8.35399C0.0994455 8.30755 0.0625027 8.25237 0.0372962 8.19163C0.0120898 8.13088 -0.00088501 8.06576 -0.00088501 7.99999C-0.00088501 7.93423 0.0120898 7.8691 0.0372962 7.80836C0.0625027 7.74761 0.0994455 7.69244 0.146009 7.64599L2.14601 5.64599C2.2399 5.55211 2.36723 5.49936 2.50001 5.49936C2.63278 5.49936 2.76012 5.55211 2.85401 5.64599C2.9479 5.73988 3.00064 5.86722 3.00064 5.99999C3.00064 6.13277 2.9479 6.26011 2.85401 6.35399L1.70701 7.49999H5.50001C5.63262 7.49999 5.75979 7.55267 5.85356 7.64644C5.94733 7.74021 6.00001 7.86738 6.00001 7.99999C6.00001 8.1326 5.94733 8.25978 5.85356 8.35355C5.75979 8.44732 5.63262 8.49999 5.50001 8.49999H1.70701L2.85401 9.64599C2.9479 9.73988 3.00064 9.86722 3.00064 9.99999C3.00064 10.1328 2.9479 10.2601 2.85401 10.354C2.76012 10.4479 2.63278 10.5006 2.50001 10.5006C2.36723 10.5006 2.2399 10.4479 2.14601 10.354L0.146009 8.35399ZM10 7.99999C10 7.86738 10.0527 7.74021 10.1465 7.64644C10.2402 7.55267 10.3674 7.49999 10.5 7.49999H14.293L13.146 6.35399C13.0995 6.30751 13.0626 6.25232 13.0375 6.19158C13.0123 6.13084 12.9994 6.06574 12.9994 5.99999C12.9994 5.93425 13.0123 5.86915 13.0375 5.80841C13.0626 5.74767 13.0995 5.69248 13.146 5.64599C13.2399 5.55211 13.3672 5.49936 13.5 5.49936C13.5658 5.49936 13.6309 5.51231 13.6916 5.53747C13.7523 5.56263 13.8075 5.59951 13.854 5.64599L15.854 7.64599C15.9006 7.69244 15.9375 7.74761 15.9627 7.80836C15.9879 7.8691 16.0009 7.93423 16.0009 7.99999C16.0009 8.06576 15.9879 8.13088 15.9627 8.19163C15.9375 8.25237 15.9006 8.30755 15.854 8.35399L13.854 10.354C13.8075 10.4005 13.7523 10.4374 13.6916 10.4625C13.6309 10.4877 13.5658 10.5006 13.5 10.5006C13.4343 10.5006 13.3692 10.4877 13.3084 10.4625C13.2477 10.4374 13.1925 10.4005 13.146 10.354C13.0995 10.3075 13.0626 10.2523 13.0375 10.1916C13.0123 10.1308 12.9994 10.0657 12.9994 9.99999C12.9994 9.93425 13.0123 9.86915 13.0375 9.80841C13.0626 9.74767 13.0995 9.69248 13.146 9.64599L14.293 8.49999H10.5C10.3674 8.49999 10.2402 8.44732 10.1465 8.35355C10.0527 8.25978 10 8.1326 10 7.99999Z"/></g><defs><clipPath id="clip0_104_441"><rect width="16" height="16"/></clipPath></defs></svg>