<svg width="16" height="16" viewBox="0 0 16 16" fill="none" xmlns="http://www.w3.org/2000/svg">
<g clip-path="url(#clip0_104_396)">
<path fill-rule="evenodd" clip-rule="evenodd" d="M11.5 15C11.6326 15 11.7598 14.9473 11.8536 14.8536C11.9473 14.7598 12 14.6326 12 14.5V2.707L15.146 5.854C15.2399 5.94789 15.3672 6.00063 15.5 6.00063C15.6328 6.00063 15.7601 5.94789 15.854 5.854C15.9479 5.76011 16.0007 5.63278 16.0007 5.5C16.0007 5.36722 15.9479 5.23989 15.854 5.146L11.854 1.146C11.8076 1.09944 11.7524 1.06249 11.6917 1.03729C11.6309 1.01208 11.5658 0.999106 11.5 0.999106C11.4343 0.999106 11.3691 1.01208 11.3084 1.03729C11.2476 1.06249 11.1925 1.09944 11.146 1.146L7.14602 5.146C7.05213 5.23989 6.99939 5.36722 6.99939 5.5C6.99939 5.63278 7.05213 5.76011 7.14602 5.854C7.23991 5.94789 7.36725 6.00063 7.50002 6.00063C7.6328 6.00063 7.76013 5.94789 7.85402 5.854L11 2.707V14.5C11 14.6326 11.0527 14.7598 11.1465 14.8536C11.2402 14.9473 11.3674 15 11.5 15ZM4.50002 1C4.63263 1 4.75981 1.05268 4.85357 1.14645C4.94734 1.24021 5.00002 1.36739 5.00002 1.5V13.293L8.14602 10.146C8.23991 10.0521 8.36725 9.99937 8.50002 9.99937C8.6328 9.99937 8.76013 10.0521 8.85402 10.146C8.94791 10.2399 9.00065 10.3672 9.00065 10.5C9.00065 10.6328 8.94791 10.7601 8.85402 10.854L4.85402 14.854C4.80758 14.9006 4.7524 14.9375 4.69166 14.9627C4.63091 14.9879 4.56579 15.0009 4.50002 15.0009C4.43425 15.0009 4.36913 14.9879 4.30839 14.9627C4.24764 14.9375 4.19247 14.9006 4.14602 14.854L0.146021 10.854C0.0521346 10.7601 -0.000610355 10.6328 -0.000610352 10.5C-0.000610348 10.3672 0.0521346 10.2399 0.146021 10.146C0.239908 10.0521 0.367245 9.99937 0.500021 9.99937C0.632797 9.99937 0.760135 10.0521 0.854021 10.146L4.00002 13.293V1.5C4.00002 1.36739 4.0527 1.24021 4.14647 1.14645C4.24024 1.05268 4.36741 1 4.50002 1Z" fill="black"/>
</g>
<defs>
<clipPath id="clip0_104_396">
<rect width="16" height="16" fill="white"/>
</clipPath>
</defs>
</svg>
