<svg width="16" height="16" viewBox="0 0 16 16" fill="none" xmlns="http://www.w3.org/2000/svg">
<g clip-path="url(#clip0_104_388)">
<path d="M14 16C14.5304 16 15.0391 15.7893 15.4142 15.4142C15.7893 15.0391 16 14.5304 16 14V2C16 1.46957 15.7893 0.960859 15.4142 0.585786C15.0391 0.210714 14.5304 0 14 0L2 0C1.46957 0 0.960859 0.210714 0.585786 0.585786C0.210714 0.960859 0 1.46957 0 2L0 14C0 14.5304 0.210714 15.0391 0.585786 15.4142C0.960859 15.7893 1.46957 16 2 16H14ZM5.904 5.197L10 9.293V6.525C10 6.39239 10.0527 6.26521 10.1464 6.17145C10.2402 6.07768 10.3674 6.025 10.5 6.025C10.6326 6.025 10.7598 6.07768 10.8536 6.17145C10.9473 6.26521 11 6.39239 11 6.525V10.5C11 10.6326 10.9473 10.7598 10.8536 10.8536C10.7598 10.9473 10.6326 11 10.5 11H6.525C6.39239 11 6.26521 10.9473 6.17145 10.8536C6.07768 10.7598 6.025 10.6326 6.025 10.5C6.025 10.3674 6.07768 10.2402 6.17145 10.1464C6.26521 10.0527 6.39239 10 6.525 10H9.293L5.197 5.904C5.10592 5.8097 5.05552 5.6834 5.05666 5.5523C5.0578 5.4212 5.11039 5.29579 5.20309 5.20309C5.29579 5.11039 5.4212 5.0578 5.5523 5.05666C5.6834 5.05552 5.8097 5.10592 5.904 5.197Z" fill="black"/>
</g>
<defs>
<clipPath id="clip0_104_388">
<rect width="16" height="16" fill="white"/>
</clipPath>
</defs>
</svg>
