<svg width="16" height="16" viewBox="0 0 16 16" xmlns="http://www.w3.org/2000/svg" fill='currentColor'><g clip-path="url(#clip0_104_439)"><path fill-rule="evenodd" clip-rule="evenodd" d="M5.82799 10.172C5.73423 10.0783 5.60708 10.0256 5.47449 10.0256C5.34191 10.0256 5.21476 10.0783 5.12099 10.172L1.02499 14.268V11.5C1.02499 11.3674 0.972315 11.2402 0.878547 11.1464C0.784779 11.0527 0.657602 11 0.524994 11C0.392386 11 0.265209 11.0527 0.17144 11.1464C0.0776723 11.2402 0.0249939 11.3674 0.0249939 11.5V15.475C0.0249939 15.6076 0.0776723 15.7348 0.17144 15.8285C0.265209 15.9223 0.392386 15.975 0.524994 15.975H4.49999C4.6326 15.975 4.75978 15.9223 4.85355 15.8285C4.94732 15.7348 4.99999 15.6076 4.99999 15.475C4.99999 15.3424 4.94732 15.2152 4.85355 15.1214C4.75978 15.0277 4.6326 14.975 4.49999 14.975H1.73199L5.82799 10.879C5.92173 10.7852 5.97439 10.6581 5.97439 10.5255C5.97439 10.3929 5.92173 10.2658 5.82799 10.172ZM10.172 10.172C10.2658 10.0783 10.3929 10.0256 10.5255 10.0256C10.6581 10.0256 10.7852 10.0783 10.879 10.172L14.975 14.268V11.5C14.975 11.3674 15.0277 11.2402 15.1214 11.1464C15.2152 11.0527 15.3424 11 15.475 11C15.6076 11 15.7348 11.0527 15.8285 11.1464C15.9223 11.2402 15.975 11.3674 15.975 11.5V15.475C15.975 15.6076 15.9223 15.7348 15.8285 15.8285C15.7348 15.9223 15.6076 15.975 15.475 15.975H11.5C11.3674 15.975 11.2402 15.9223 11.1464 15.8285C11.0527 15.7348 11 15.6076 11 15.475C11 15.3424 11.0527 15.2152 11.1464 15.1214C11.2402 15.0277 11.3674 14.975 11.5 14.975H14.268L10.172 10.879C10.0783 10.7852 10.0256 10.6581 10.0256 10.5255C10.0256 10.3929 10.0783 10.2658 10.172 10.172ZM10.172 5.82799C10.2658 5.92173 10.3929 5.97439 10.5255 5.97439C10.6581 5.97439 10.7852 5.92173 10.879 5.82799L14.975 1.73199V4.49999C14.975 4.6326 15.0277 4.75978 15.1214 4.85355C15.2152 4.94732 15.3424 4.99999 15.475 4.99999C15.6076 4.99999 15.7348 4.94732 15.8285 4.85355C15.9223 4.75978 15.975 4.6326 15.975 4.49999V0.524994C15.975 0.392386 15.9223 0.265209 15.8285 0.17144C15.7348 0.0776723 15.6076 0.0249939 15.475 0.0249939H11.5C11.3674 0.0249939 11.2402 0.0776723 11.1464 0.17144C11.0527 0.265209 11 0.392386 11 0.524994C11 0.657602 11.0527 0.784779 11.1464 0.878547C11.2402 0.972315 11.3674 1.02499 11.5 1.02499H14.268L10.172 5.12099C10.0783 5.21476 10.0256 5.34191 10.0256 5.47449C10.0256 5.60708 10.0783 5.73423 10.172 5.82799ZM5.82799 5.82799C5.73423 5.92173 5.60708 5.97439 5.47449 5.97439C5.34191 5.97439 5.21476 5.92173 5.12099 5.82799L1.02499 1.73199V4.49999C1.02499 4.6326 0.972315 4.75978 0.878547 4.85355C0.784779 4.94732 0.657602 4.99999 0.524994 4.99999C0.392386 4.99999 0.265209 4.94732 0.17144 4.85355C0.0776723 4.75978 0.0249939 4.6326 0.0249939 4.49999V0.524994C0.0249939 0.392386 0.0776723 0.265209 0.17144 0.17144C0.265209 0.0776723 0.392386 0.0249939 0.524994 0.0249939H4.49999C4.6326 0.0249939 4.75978 0.0776723 4.85355 0.17144C4.94732 0.265209 4.99999 0.392386 4.99999 0.524994C4.99999 0.657602 4.94732 0.784779 4.85355 0.878547C4.75978 0.972315 4.6326 1.02499 4.49999 1.02499H1.73199L5.82799 5.12099C5.92173 5.21476 5.97439 5.34191 5.97439 5.47449C5.97439 5.60708 5.92173 5.73423 5.82799 5.82799Z"/></g><defs><clipPath id="clip0_104_439"><rect width="16" height="16"/></clipPath></defs></svg>