<svg width="16" height="16" viewBox="0 0 16 16" xmlns="http://www.w3.org/2000/svg" fill='currentColor'><g clip-path="url(#clip0_104_441)"><path fill-rule="evenodd" clip-rule="evenodd" d="M7.64601 0.146001C7.69245 0.0994379 7.74763 0.0624951 7.80837 0.0372886C7.86912 0.0120822 7.93424 -0.000892639 8.00001 -0.000892639C8.06578 -0.000892639 8.1309 0.0120822 8.19164 0.0372886C8.25239 0.0624951 8.30756 0.0994379 8.35401 0.146001L10.354 2.146C10.4005 2.19249 10.4374 2.24768 10.4625 2.30842C10.4877 2.36916 10.5006 2.43426 10.5006 2.5C10.5006 2.56575 10.4877 2.63085 10.4625 2.69158C10.4374 2.75232 10.4005 2.80751 10.354 2.854C10.3075 2.90049 10.2523 2.93737 10.1916 2.96252C10.1309 2.98768 10.0658 3.00063 10 3.00063C9.93427 3.00063 9.86916 2.98768 9.80842 2.96252C9.74769 2.93737 9.6925 2.90049 9.64601 2.854L8.50001 1.707V5.5C8.50001 5.63261 8.44733 5.75979 8.35356 5.85355C8.25979 5.94732 8.13262 6 8.00001 6C7.8674 6 7.74022 5.94732 7.64646 5.85355C7.55269 5.75979 7.50001 5.63261 7.50001 5.5V1.707L6.35401 2.854C6.26012 2.94789 6.13278 3.00063 6.00001 3.00063C5.86723 3.00063 5.7399 2.94789 5.64601 2.854C5.55212 2.76011 5.49938 2.63278 5.49938 2.5C5.49938 2.36723 5.55212 2.23989 5.64601 2.146L7.64601 0.146001ZM8.00001 10C8.13262 10 8.25979 10.0527 8.35356 10.1464C8.44733 10.2402 8.50001 10.3674 8.50001 10.5V14.293L9.64601 13.146C9.73989 13.0521 9.86723 12.9994 10 12.9994C10.1328 12.9994 10.2601 13.0521 10.354 13.146C10.4479 13.2399 10.5006 13.3672 10.5006 13.5C10.5006 13.6328 10.4479 13.7601 10.354 13.854L8.35401 15.854C8.30756 15.9006 8.25239 15.9375 8.19164 15.9627C8.1309 15.9879 8.06578 16.0009 8.00001 16.0009C7.93424 16.0009 7.86912 15.9879 7.80837 15.9627C7.74763 15.9375 7.69245 15.9006 7.64601 15.854L5.64601 13.854C5.59952 13.8075 5.56264 13.7523 5.53749 13.6916C5.51233 13.6308 5.49938 13.5657 5.49938 13.5C5.49938 13.4343 5.51233 13.3692 5.53749 13.3084C5.56264 13.2477 5.59952 13.1925 5.64601 13.146C5.7399 13.0521 5.86723 12.9994 6.00001 12.9994C6.06575 12.9994 6.13085 13.0123 6.19159 13.0375C6.25233 13.0626 6.30752 13.0995 6.35401 13.146L7.50001 14.293V10.5C7.50001 10.3674 7.55269 10.2402 7.64646 10.1464C7.74022 10.0527 7.8674 10 8.00001 10ZM0.146009 8.354C0.0994455 8.30756 0.0625027 8.25238 0.0372962 8.19163C0.0120898 8.13089 -0.00088501 8.06577 -0.00088501 8C-0.00088501 7.93423 0.0120898 7.86911 0.0372962 7.80837C0.0625027 7.74762 0.0994455 7.69245 0.146009 7.646L2.14601 5.646C2.2399 5.55211 2.36723 5.49937 2.50001 5.49937C2.63278 5.49937 2.76012 5.55211 2.85401 5.646C2.9479 5.73989 3.00064 5.86723 3.00064 6C3.00064 6.13278 2.9479 6.26011 2.85401 6.354L1.70701 7.5H5.50001C5.63262 7.5 5.75979 7.55268 5.85356 7.64645C5.94733 7.74022 6.00001 7.86739 6.00001 8C6.00001 8.13261 5.94733 8.25979 5.85356 8.35355C5.75979 8.44732 5.63262 8.5 5.50001 8.5H1.70701L2.85401 9.646C2.9479 9.73989 3.00064 9.86723 3.00064 10C3.00064 10.1328 2.9479 10.2601 2.85401 10.354C2.76012 10.4479 2.63278 10.5006 2.50001 10.5006C2.36723 10.5006 2.2399 10.4479 2.14601 10.354L0.146009 8.354ZM10 8C10 7.86739 10.0527 7.74022 10.1465 7.64645C10.2402 7.55268 10.3674 7.5 10.5 7.5H14.293L13.146 6.354C13.0995 6.30751 13.0626 6.25232 13.0375 6.19158C13.0123 6.13085 12.9994 6.06574 12.9994 6C12.9994 5.93426 13.0123 5.86916 13.0375 5.80842C13.0626 5.74768 13.0995 5.69249 13.146 5.646C13.2399 5.55211 13.3672 5.49937 13.5 5.49937C13.5658 5.49937 13.6309 5.51232 13.6916 5.53748C13.7523 5.56264 13.8075 5.59951 13.854 5.646L15.854 7.646C15.9006 7.69245 15.9375 7.74762 15.9627 7.80837C15.9879 7.86911 16.0009 7.93423 16.0009 8C16.0009 8.06577 15.9879 8.13089 15.9627 8.19163C15.9375 8.25238 15.9006 8.30756 15.854 8.354L13.854 10.354C13.8075 10.4005 13.7523 10.4374 13.6916 10.4625C13.6309 10.4877 13.5658 10.5006 13.5 10.5006C13.4343 10.5006 13.3692 10.4877 13.3084 10.4625C13.2477 10.4374 13.1925 10.4005 13.146 10.354C13.0995 10.3075 13.0626 10.2523 13.0375 10.1916C13.0123 10.1308 12.9994 10.0657 12.9994 10C12.9994 9.93426 13.0123 9.86916 13.0375 9.80842C13.0626 9.74768 13.0995 9.69249 13.146 9.646L14.293 8.5H10.5C10.3674 8.5 10.2402 8.44732 10.1465 8.35355C10.0527 8.25979 10 8.13261 10 8Z"/></g><defs><clipPath id="clip0_104_441"><rect width="16" height="16"/></clipPath></defs></svg>