<svg width="16" height="16" viewBox="0 0 16 16" xmlns="http://www.w3.org/2000/svg" fill='currentColor'><g clip-path="url(#clip0_104_342)"><path fill-rule="evenodd" clip-rule="evenodd" d="M4.85399 14.854C4.80755 14.9006 4.75237 14.9375 4.69162 14.9627C4.63088 14.9879 4.56576 15.0009 4.49999 15.0009C4.43422 15.0009 4.3691 14.9879 4.30836 14.9627C4.24761 14.9375 4.19244 14.9006 4.14599 14.854L0.145991 10.854C0.0521041 10.7601 -0.000640872 10.6328 -0.000640869 10.5C-0.000640866 10.3672 0.0521041 10.2399 0.145991 10.146C0.239877 10.0521 0.367215 9.99937 0.499991 9.99937C0.632766 9.99937 0.760104 10.0521 0.853991 10.146L3.99999 13.293V3.5C3.99999 2.83696 4.26338 2.20107 4.73222 1.73223C5.20107 1.26339 5.83695 1 6.49999 1H14.5C14.6326 1 14.7598 1.05268 14.8535 1.14645C14.9473 1.24021 15 1.36739 15 1.5C15 1.63261 14.9473 1.75979 14.8535 1.85355C14.7598 1.94732 14.6326 2 14.5 2H6.49999C6.10217 2 5.72063 2.15804 5.43933 2.43934C5.15803 2.72064 4.99999 3.10218 4.99999 3.5V13.293L8.14599 10.146C8.23988 10.0521 8.36722 9.99937 8.49999 9.99937C8.63277 9.99937 8.7601 10.0521 8.85399 10.146C8.94788 10.2399 9.00062 10.3672 9.00062 10.5C9.00062 10.6328 8.94788 10.7601 8.85399 10.854L4.85399 14.854Z"/></g><defs><clipPath id="clip0_104_342"><rect width="16" height="16"/></clipPath></defs></svg>