<svg width="16" height="16" viewBox="0 0 16 16" fill="none" xmlns="http://www.w3.org/2000/svg">
<path fill-rule="evenodd" clip-rule="evenodd" d="M14 2.5C14 2.36739 13.9473 2.24021 13.8536 2.14645C13.7598 2.05268 13.6326 2 13.5 2H7.50001C7.3674 2 7.24022 2.05268 7.14645 2.14645C7.05268 2.24021 7.00001 2.36739 7.00001 2.5C7.00001 2.63261 7.05268 2.75979 7.14645 2.85355C7.24022 2.94732 7.3674 3 7.50001 3H12.293L2.14601 13.146C2.09952 13.1925 2.06264 13.2477 2.03748 13.3084C2.01232 13.3692 1.99937 13.4343 1.99937 13.5C1.99937 13.5657 2.01232 13.6308 2.03748 13.6916C2.06264 13.7523 2.09952 13.8075 2.14601 13.854C2.19249 13.9005 2.24768 13.9374 2.30842 13.9625C2.36916 13.9877 2.43426 14.0006 2.50001 14.0006C2.56575 14.0006 2.63085 13.9877 2.69159 13.9625C2.75233 13.9374 2.80752 13.9005 2.85401 13.854L13 3.707V8.5C13 8.63261 13.0527 8.75979 13.1465 8.85355C13.2402 8.94732 13.3674 9 13.5 9C13.6326 9 13.7598 8.94732 13.8536 8.85355C13.9473 8.75979 14 8.63261 14 8.5V2.5Z" fill="black"/>
</svg>
