<svg width="16" height="16" viewBox="0 0 16 16" xmlns="http://www.w3.org/2000/svg" fill='currentColor'><g clip-path="url(#clip0_104_344)"><path fill-rule="evenodd" clip-rule="evenodd" d="M1.14601 4.85401C1.09945 4.80756 1.0625 4.75239 1.0373 4.69164C1.01209 4.63089 0.999115 4.56577 0.999115 4.50001C0.999115 4.43424 1.01209 4.36912 1.0373 4.30837C1.0625 4.24763 1.09945 4.19245 1.14601 4.14601L5.14601 0.146006C5.2399 0.0521194 5.36723 -0.00062561 5.50001 -0.00062561C5.63278 -0.00062561 5.76012 0.0521194 5.85401 0.146006C5.9479 0.239893 6.00064 0.36723 6.00064 0.500006C6.00064 0.632782 5.9479 0.760119 5.85401 0.854006L2.70701 4.00001H12.5C13.163 4.00001 13.7989 4.2634 14.2678 4.73224C14.7366 5.20108 15 5.83697 15 6.50001V14.5C15 14.6326 14.9473 14.7598 14.8536 14.8536C14.7598 14.9473 14.6326 15 14.5 15C14.3674 15 14.2402 14.9473 14.1465 14.8536C14.0527 14.7598 14 14.6326 14 14.5V6.50001C14 6.10218 13.842 5.72065 13.5607 5.43935C13.2794 5.15804 12.8978 5.00001 12.5 5.00001H2.70701L5.85401 8.14601C5.9005 8.19249 5.93737 8.24768 5.96253 8.30842C5.98769 8.36916 6.00064 8.43426 6.00064 8.50001C6.00064 8.56575 5.98769 8.63085 5.96253 8.69159C5.93737 8.75233 5.9005 8.80752 5.85401 8.85401C5.80752 8.90049 5.75233 8.93737 5.69159 8.96253C5.63085 8.98769 5.56575 9.00064 5.50001 9.00064C5.43426 9.00064 5.36916 8.98769 5.30842 8.96253C5.24769 8.93737 5.1925 8.90049 5.14601 8.85401L1.14601 4.85401Z"/></g><defs><clipPath id="clip0_104_344"><rect width="16" height="16"/></clipPath></defs></svg>