<svg width="16" height="16" viewBox="0 0 16 16" fill="none" xmlns="http://www.w3.org/2000/svg">
<path fill-rule="evenodd" clip-rule="evenodd" d="M1 8C1 7.86739 1.05268 7.74021 1.14645 7.64645C1.24021 7.55268 1.36739 7.5 1.5 7.5H14.5C14.6326 7.5 14.7598 7.55268 14.8536 7.64645C14.9473 7.74021 15 7.86739 15 8C15 8.13261 14.9473 8.25979 14.8536 8.35355C14.7598 8.44732 14.6326 8.5 14.5 8.5H1.5C1.36739 8.5 1.24021 8.44732 1.14645 8.35355C1.05268 8.25979 1 8.13261 1 8ZM8 0C8.13261 0 8.25979 0.0526784 8.35355 0.146447C8.44732 0.240215 8.5 0.367392 8.5 0.5V4.293L9.646 3.146C9.73989 3.05211 9.86722 2.99937 10 2.99937C10.1328 2.99937 10.2601 3.05211 10.354 3.146C10.4479 3.23989 10.5006 3.36722 10.5006 3.5C10.5006 3.63278 10.4479 3.76011 10.354 3.854L8.354 5.854C8.30755 5.90056 8.25238 5.93751 8.19163 5.96271C8.13089 5.98792 8.06577 6.00089 8 6.00089C7.93423 6.00089 7.86911 5.98792 7.80837 5.96271C7.74762 5.93751 7.69245 5.90056 7.646 5.854L5.646 3.854C5.55211 3.76011 5.49937 3.63278 5.49937 3.5C5.49937 3.36722 5.55211 3.23989 5.646 3.146C5.73989 3.05211 5.86722 2.99937 6 2.99937C6.13278 2.99937 6.26011 3.05211 6.354 3.146L7.5 4.293V0.5C7.5 0.367392 7.55268 0.240215 7.64645 0.146447C7.74021 0.0526784 7.86739 0 8 0V0ZM7.5 11.707L6.354 12.854C6.26011 12.9479 6.13278 13.0006 6 13.0006C5.86722 13.0006 5.73989 12.9479 5.646 12.854C5.55211 12.7601 5.49937 12.6328 5.49937 12.5C5.49937 12.3672 5.55211 12.2399 5.646 12.146L7.646 10.146C7.69245 10.0994 7.74762 10.0625 7.80837 10.0373C7.86911 10.0121 7.93423 9.99911 8 9.99911C8.06577 9.99911 8.13089 10.0121 8.19163 10.0373C8.25238 10.0625 8.30755 10.0994 8.354 10.146L10.354 12.146C10.4479 12.2399 10.5006 12.3672 10.5006 12.5C10.5006 12.6328 10.4479 12.7601 10.354 12.854C10.2601 12.9479 10.1328 13.0006 10 13.0006C9.86722 13.0006 9.73989 12.9479 9.646 12.854L8.5 11.707V15.5C8.5 15.6326 8.44732 15.7598 8.35355 15.8536C8.25979 15.9473 8.13261 16 8 16C7.86739 16 7.74021 15.9473 7.64645 15.8536C7.55268 15.7598 7.5 15.6326 7.5 15.5V11.707Z" fill="black"/>
</svg>
