<svg width="16" height="16" viewBox="0 0 16 16" xmlns="http://www.w3.org/2000/svg" fill='currentColor'><path fill-rule="evenodd" clip-rule="evenodd" d="M12 8.00001C12 8.13261 11.9473 8.25979 11.8535 8.35356C11.7598 8.44733 11.6326 8.50001 11.5 8.50001H5.70698L7.85398 10.646C7.90047 10.6925 7.93734 10.7477 7.9625 10.8084C7.98766 10.8692 8.00061 10.9343 8.00061 11C8.00061 11.0658 7.98766 11.1309 7.9625 11.1916C7.93734 11.2523 7.90047 11.3075 7.85398 11.354C7.80749 11.4005 7.7523 11.4374 7.69156 11.4625C7.63082 11.4877 7.56572 11.5006 7.49998 11.5006C7.43423 11.5006 7.36913 11.4877 7.30839 11.4625C7.24766 11.4374 7.19247 11.4005 7.14598 11.354L4.14598 8.35401C4.09941 8.30756 4.06247 8.25238 4.03727 8.19164C4.01206 8.13089 3.99908 8.06577 3.99908 8.00001C3.99908 7.93424 4.01206 7.86912 4.03727 7.80837C4.06247 7.74763 4.09941 7.69245 4.14598 7.64601L7.14598 4.64601C7.23986 4.55212 7.3672 4.49937 7.49998 4.49937C7.63275 4.49937 7.76009 4.55212 7.85398 4.64601C7.94787 4.73989 8.00061 4.86723 8.00061 5.00001C8.00061 5.13278 7.94787 5.26012 7.85398 5.35401L5.70698 7.50001H11.5C11.6326 7.50001 11.7598 7.55268 11.8535 7.64645C11.9473 7.74022 12 7.8674 12 8.00001Z"/></svg>