<svg width="16" height="16" viewBox="0 0 16 16" xmlns="http://www.w3.org/2000/svg" fill='currentColor'><g clip-path="url(#clip0_104_348)"><path fill-rule="evenodd" clip-rule="evenodd" d="M4.85402 1.14599C4.80758 1.09943 4.7524 1.06249 4.69166 1.03728C4.63091 1.01207 4.56579 0.9991 4.50002 0.9991C4.43425 0.9991 4.36913 1.01207 4.30839 1.03728C4.24764 1.06249 4.19247 1.09943 4.14602 1.14599L0.146021 5.14599C0.0521346 5.23988 -0.000610352 5.36722 -0.000610352 5.49999C-0.000610352 5.63277 0.0521346 5.76011 0.146021 5.85399C0.239908 5.94788 0.367246 6.00063 0.500021 6.00063C0.632797 6.00063 0.760135 5.94788 0.854021 5.85399L4.00002 2.70699V12.5C4.00002 13.163 4.26341 13.7989 4.73225 14.2678C5.2011 14.7366 5.83698 15 6.50002 15H14.5C14.6326 15 14.7598 14.9473 14.8536 14.8535C14.9473 14.7598 15 14.6326 15 14.5C15 14.3674 14.9473 14.2402 14.8536 14.1464C14.7598 14.0527 14.6326 14 14.5 14H6.50002C6.1022 14 5.72067 13.842 5.43936 13.5607C5.15806 13.2793 5.00002 12.8978 5.00002 12.5V2.70699L8.14602 5.85399C8.19251 5.90048 8.2477 5.93736 8.30844 5.96252C8.36918 5.98768 8.43428 6.00063 8.50002 6.00063C8.56576 6.00063 8.63087 5.98768 8.6916 5.96252C8.75234 5.93736 8.80753 5.90048 8.85402 5.85399C8.90051 5.80751 8.93739 5.75232 8.96254 5.69158C8.9877 5.63084 9.00065 5.56574 9.00065 5.49999C9.00065 5.43425 8.9877 5.36915 8.96254 5.30841C8.93739 5.24767 8.90051 5.19248 8.85402 5.14599L4.85402 1.14599Z"/></g><defs><clipPath id="clip0_104_348"><rect width="16" height="16"/></clipPath></defs></svg>