<svg width="16" height="16" viewBox="0 0 16 16" xmlns="http://www.w3.org/2000/svg" fill='currentColor'><g clip-path="url(#clip0_104_473)"><path d="M2 16C1.46957 16 0.960859 15.7893 0.585786 15.4142C0.210714 15.0391 0 14.5304 0 14V2C0 1.46957 0.210714 0.960859 0.585786 0.585786C0.960859 0.210714 1.46957 0 2 0L14 0C14.5304 0 15.0391 0.210714 15.4142 0.585786C15.7893 0.960859 16 1.46957 16 2V14C16 14.5304 15.7893 15.0391 15.4142 15.4142C15.0391 15.7893 14.5304 16 14 16H2ZM8.5 11.5V5.707L10.646 7.854C10.6925 7.90049 10.7477 7.93736 10.8084 7.96252C10.8692 7.98768 10.9343 8.00063 11 8.00063C11.0657 8.00063 11.1308 7.98768 11.1916 7.96252C11.2523 7.93736 11.3075 7.90049 11.354 7.854C11.4005 7.80751 11.4374 7.75232 11.4625 7.69158C11.4877 7.63084 11.5006 7.56574 11.5006 7.5C11.5006 7.43426 11.4877 7.36916 11.4625 7.30842C11.4374 7.24768 11.4005 7.19249 11.354 7.146L8.354 4.146C8.30755 4.09944 8.25238 4.06249 8.19163 4.03729C8.13089 4.01208 8.06577 3.99911 8 3.99911C7.93423 3.99911 7.86911 4.01208 7.80837 4.03729C7.74762 4.06249 7.69245 4.09944 7.646 4.146L4.646 7.146C4.55211 7.23989 4.49937 7.36722 4.49937 7.5C4.49937 7.63278 4.55211 7.76011 4.646 7.854C4.73989 7.94789 4.86722 8.00063 5 8.00063C5.13278 8.00063 5.26011 7.94789 5.354 7.854L7.5 5.707V11.5C7.5 11.6326 7.55268 11.7598 7.64645 11.8536C7.74021 11.9473 7.86739 12 8 12C8.13261 12 8.25979 11.9473 8.35355 11.8536C8.44732 11.7598 8.5 11.6326 8.5 11.5Z"/></g><defs><clipPath id="clip0_104_473"><rect width="16" height="16"/></clipPath></defs></svg>