<svg width="16" height="16" viewBox="0 0 16 16" xmlns="http://www.w3.org/2000/svg" fill='currentColor'><g clip-path="url(#clip0_104_410)"><path d="M16 14C16 14.5304 15.7893 15.0391 15.4142 15.4142C15.0391 15.7893 14.5304 16 14 16H2C1.46957 16 0.960859 15.7893 0.585786 15.4142C0.210714 15.0391 0 14.5304 0 14V2C0 1.46957 0.210714 0.960859 0.585786 0.585786C0.960859 0.210714 1.46957 0 2 0L14 0C14.5304 0 15.0391 0.210714 15.4142 0.585786C15.7893 0.960859 16 1.46957 16 2V14ZM11.5 7.5H5.707L7.854 5.354C7.94789 5.26011 8.00063 5.13278 8.00063 5C8.00063 4.86722 7.94789 4.73989 7.854 4.646C7.76011 4.55211 7.63278 4.49937 7.5 4.49937C7.36722 4.49937 7.23989 4.55211 7.146 4.646L4.146 7.646C4.09944 7.69245 4.06249 7.74762 4.03729 7.80837C4.01208 7.86911 3.99911 7.93423 3.99911 8C3.99911 8.06577 4.01208 8.13089 4.03729 8.19163C4.06249 8.25238 4.09944 8.30755 4.146 8.354L7.146 11.354C7.23989 11.4479 7.36722 11.5006 7.5 11.5006C7.63278 11.5006 7.76011 11.4479 7.854 11.354C7.94789 11.2601 8.00063 11.1328 8.00063 11C8.00063 10.8672 7.94789 10.7399 7.854 10.646L5.707 8.5H11.5C11.6326 8.5 11.7598 8.44732 11.8536 8.35355C11.9473 8.25979 12 8.13261 12 8C12 7.86739 11.9473 7.74021 11.8536 7.64645C11.7598 7.55268 11.6326 7.5 11.5 7.5Z"/></g><defs><clipPath id="clip0_104_410"><rect width="16" height="16"/></clipPath></defs></svg>