<svg width="16" height="16" viewBox="0 0 16 16" xmlns="http://www.w3.org/2000/svg" fill='currentColor'><path fill-rule="evenodd" clip-rule="evenodd" d="M15 8C15 7.86739 14.9473 7.74022 14.8535 7.64645C14.7598 7.55268 14.6326 7.5 14.5 7.5H2.70698L5.85398 4.354C5.90047 4.30751 5.93734 4.25232 5.9625 4.19158C5.98766 4.13084 6.00061 4.06574 6.00061 4C6.00061 3.93426 5.98766 3.86916 5.9625 3.80842C5.93734 3.74768 5.90047 3.69249 5.85398 3.646C5.80749 3.59951 5.7523 3.56264 5.69156 3.53748C5.63082 3.51232 5.56572 3.49937 5.49998 3.49937C5.43423 3.49937 5.36913 3.51232 5.30839 3.53748C5.24765 3.56264 5.19247 3.59951 5.14598 3.646L1.14598 7.646C1.09942 7.69245 1.06247 7.74762 1.03727 7.80837C1.01206 7.86911 0.999084 7.93423 0.999084 8C0.999084 8.06577 1.01206 8.13089 1.03727 8.19163C1.06247 8.25238 1.09942 8.30755 1.14598 8.354L5.14598 12.354C5.19247 12.4005 5.24765 12.4374 5.30839 12.4625C5.36913 12.4877 5.43423 12.5006 5.49998 12.5006C5.56572 12.5006 5.63082 12.4877 5.69156 12.4625C5.7523 12.4374 5.80749 12.4005 5.85398 12.354C5.90047 12.3075 5.93734 12.2523 5.9625 12.1916C5.98766 12.1308 6.00061 12.0657 6.00061 12C6.00061 11.9343 5.98766 11.8692 5.9625 11.8084C5.93734 11.7477 5.90047 11.6925 5.85398 11.646L2.70698 8.5H14.5C14.6326 8.5 14.7598 8.44732 14.8535 8.35355C14.9473 8.25979 15 8.13261 15 8Z"/></svg>