<svg width="16" height="16" viewBox="0 0 16 16" fill="none" xmlns="http://www.w3.org/2000/svg">
<path fill-rule="evenodd" clip-rule="evenodd" d="M14.5 1.5C14.6326 1.5 14.7598 1.55268 14.8536 1.64645C14.9473 1.74021 15 1.86739 15 2V6.8C15 7.1283 14.9353 7.45339 14.8097 7.75671C14.6841 8.06002 14.4999 8.33562 14.2678 8.56777C14.0356 8.79991 13.76 8.98406 13.4567 9.1097C13.1534 9.23534 12.8283 9.3 12.5 9.3H2.707L6.054 12.646C6.14789 12.7399 6.20063 12.8672 6.20063 13C6.20063 13.1328 6.14789 13.2601 6.054 13.354C5.96011 13.4479 5.83278 13.5006 5.7 13.5006C5.56722 13.5006 5.43989 13.4479 5.346 13.354L1.146 9.154C1.09944 9.10755 1.0625 9.05238 1.03729 8.99163C1.01208 8.93089 0.999107 8.86577 0.999107 8.8C0.999107 8.73423 1.01208 8.66911 1.03729 8.60837C1.0625 8.54762 1.09944 8.49245 1.146 8.446L5.146 4.446C5.23989 4.35211 5.36723 4.29937 5.5 4.29937C5.63278 4.29937 5.76011 4.35211 5.854 4.446C5.94789 4.53989 6.00063 4.66722 6.00063 4.8C6.00063 4.93278 5.94789 5.06011 5.854 5.154L2.707 8.3H12.5C12.8978 8.3 13.2794 8.14196 13.5607 7.86066C13.842 7.57936 14 7.19782 14 6.8V2C14 1.86739 14.0527 1.74021 14.1464 1.64645C14.2402 1.55268 14.3674 1.5 14.5 1.5Z" fill="black"/>
</svg>
