<svg width="16" height="16" viewBox="0 0 16 16" fill="none" xmlns="http://www.w3.org/2000/svg">
<path d="M11.534 7H15.466C15.5135 7.00002 15.56 7.01357 15.6001 7.03907C15.6402 7.06457 15.6722 7.10096 15.6923 7.14398C15.7125 7.187 15.7199 7.23487 15.7139 7.28198C15.7078 7.32909 15.6884 7.3735 15.658 7.41L13.692 9.77C13.6685 9.79814 13.6392 9.82077 13.606 9.8363C13.5728 9.85184 13.5366 9.85989 13.5 9.85989C13.4634 9.85989 13.4272 9.85184 13.394 9.8363C13.3608 9.82077 13.3315 9.79814 13.308 9.77L11.342 7.41C11.3116 7.3735 11.2922 7.32909 11.2861 7.28198C11.2801 7.23487 11.2875 7.187 11.3077 7.14398C11.3278 7.10096 11.3598 7.06457 11.3999 7.03907C11.44 7.01357 11.4865 7.00002 11.534 7ZM0.534002 9H4.466C4.51351 8.99998 4.56002 8.98643 4.6001 8.96093C4.64018 8.93543 4.67217 8.89905 4.69231 8.85603C4.71246 8.81301 4.71993 8.76514 4.71385 8.71802C4.70778 8.67091 4.6884 8.6265 4.658 8.59L2.692 6.23C2.66854 6.20187 2.63918 6.17923 2.606 6.1637C2.57282 6.14817 2.53664 6.14011 2.5 6.14011C2.46337 6.14011 2.42718 6.14817 2.394 6.1637C2.36082 6.17923 2.33146 6.20187 2.308 6.23L0.342002 8.59C0.3116 8.6265 0.292226 8.67091 0.28615 8.71802C0.280073 8.76514 0.287545 8.81301 0.307691 8.85603C0.327837 8.89905 0.359823 8.93543 0.399903 8.96093C0.439983 8.98643 0.486499 8.99998 0.534002 9Z" fill="black"/>
<path fill-rule="evenodd" clip-rule="evenodd" d="M8 3C6.448 3 5.06 3.707 4.143 4.818C4.10205 4.87107 4.05085 4.91537 3.99244 4.94826C3.93403 4.98115 3.8696 5.00196 3.80299 5.00944C3.73638 5.01693 3.66894 5.01095 3.60468 4.99186C3.54043 4.97276 3.48067 4.94094 3.42896 4.89828C3.37725 4.85562 3.33464 4.80301 3.30368 4.74356C3.27271 4.6841 3.25401 4.61903 3.2487 4.55221C3.24339 4.48539 3.25156 4.41818 3.27275 4.35458C3.29393 4.29098 3.32768 4.23229 3.372 4.182C4.10419 3.29553 5.07559 2.63801 6.17066 2.28766C7.26574 1.9373 8.4384 1.90885 9.54918 2.20569C10.66 2.50253 11.6621 3.11216 12.4364 3.96209C13.2107 4.81201 13.7246 5.86645 13.917 7H12.9C12.6691 5.87081 12.0554 4.85599 11.1625 4.12714C10.2697 3.3983 9.15255 3.00014 8 3ZM3.1 9C3.28931 9.92462 3.73635 10.7768 4.38948 11.4581C5.0426 12.1395 5.87516 12.6221 6.79096 12.8503C7.70677 13.0785 8.66844 13.0429 9.56489 12.7477C10.4613 12.4525 11.256 11.9097 11.857 11.182C11.8979 11.1289 11.9491 11.0846 12.0076 11.0517C12.066 11.0189 12.1304 10.998 12.197 10.9906C12.2636 10.9831 12.3311 10.989 12.3953 11.0081C12.4596 11.0272 12.5193 11.0591 12.571 11.1017C12.6228 11.1444 12.6654 11.197 12.6963 11.2564C12.7273 11.3159 12.746 11.381 12.7513 11.4478C12.7566 11.5146 12.7484 11.5818 12.7273 11.6454C12.7061 11.709 12.6723 11.7677 12.628 11.818C11.8958 12.7045 10.9244 13.362 9.82934 13.7123C8.73426 14.0627 7.5616 14.0912 6.45082 13.7943C5.34005 13.4975 4.33791 12.8878 3.56359 12.0379C2.78927 11.188 2.27537 10.1335 2.083 9H3.1Z" fill="black"/>
</svg>
