<svg width="16" height="16" viewBox="0 0 16 16" fill="none" xmlns="http://www.w3.org/2000/svg">
<path fill-rule="evenodd" clip-rule="evenodd" d="M1 3.5C1 3.36739 1.05268 3.24021 1.14645 3.14645C1.24021 3.05268 1.36739 3 1.5 3H14.5C14.6326 3 14.7598 3.05268 14.8536 3.14645C14.9473 3.24021 15 3.36739 15 3.5C15 3.63261 14.9473 3.75979 14.8536 3.85355C14.7598 3.94732 14.6326 4 14.5 4H1.5C1.36739 4 1.24021 3.94732 1.14645 3.85355C1.05268 3.75979 1 3.63261 1 3.5ZM8 6C8.13261 6 8.25979 6.05268 8.35355 6.14645C8.44732 6.24021 8.5 6.36739 8.5 6.5V12.293L10.646 10.146C10.7399 10.0521 10.8672 9.99937 11 9.99937C11.1328 9.99937 11.2601 10.0521 11.354 10.146C11.4479 10.2399 11.5006 10.3672 11.5006 10.5C11.5006 10.6328 11.4479 10.7601 11.354 10.854L8.354 13.854C8.30755 13.9006 8.25238 13.9375 8.19163 13.9627C8.13089 13.9879 8.06577 14.0009 8 14.0009C7.93423 14.0009 7.86911 13.9879 7.80837 13.9627C7.74762 13.9375 7.69245 13.9006 7.646 13.854L4.646 10.854C4.55211 10.7601 4.49937 10.6328 4.49937 10.5C4.49937 10.3672 4.55211 10.2399 4.646 10.146C4.73989 10.0521 4.86722 9.99937 5 9.99937C5.13278 9.99937 5.26011 10.0521 5.354 10.146L7.5 12.293V6.5C7.5 6.36739 7.55268 6.24021 7.64645 6.14645C7.74021 6.05268 7.86739 6 8 6Z" fill="black"/>
</svg>
