<svg width="16" height="16" viewBox="0 0 16 16" xmlns="http://www.w3.org/2000/svg" fill='currentColor'><g clip-path="url(#clip0_104_346)"><path fill-rule="evenodd" clip-rule="evenodd" d="M14.854 4.854C14.9006 4.80755 14.9375 4.75238 14.9627 4.69163C14.9879 4.63089 15.0009 4.56577 15.0009 4.5C15.0009 4.43423 14.9879 4.36911 14.9627 4.30836C14.9375 4.24762 14.9006 4.19244 14.854 4.146L10.854 0.145998C10.7601 0.0521117 10.6328 -0.000633243 10.5 -0.00063324C10.3672 -0.000633237 10.2399 0.0521117 10.146 0.145998C10.0521 0.239885 9.99937 0.367223 9.99937 0.499998C9.99937 0.632774 10.0521 0.760112 10.146 0.853998L13.293 4H3.5C2.83696 4 2.20107 4.26339 1.73223 4.73223C1.26339 5.20107 1 5.83696 1 6.5V14.5C1 14.6326 1.05268 14.7598 1.14645 14.8536C1.24021 14.9473 1.36739 15 1.5 15C1.63261 15 1.75979 14.9473 1.85355 14.8536C1.94732 14.7598 2 14.6326 2 14.5V6.5C2 6.10217 2.15804 5.72064 2.43934 5.43934C2.72064 5.15803 3.10218 5 3.5 5H13.293L10.146 8.146C10.0521 8.23988 9.99937 8.36722 9.99937 8.5C9.99937 8.63277 10.0521 8.76011 10.146 8.854C10.2399 8.94788 10.3672 9.00063 10.5 9.00063C10.6328 9.00063 10.7601 8.94788 10.854 8.854L14.854 4.854Z"/></g><defs><clipPath id="clip0_104_346"><rect width="16" height="16"/></clipPath></defs></svg>