<svg width="16" height="16" viewBox="0 0 16 16" xmlns="http://www.w3.org/2000/svg" fill='currentColor'><g clip-path="url(#clip0_104_467)"><path d="M14 0C14.5304 0 15.0391 0.210714 15.4142 0.585786C15.7893 0.960859 16 1.46957 16 2V14C16 14.5304 15.7893 15.0391 15.4142 15.4142C15.0391 15.7893 14.5304 16 14 16H2C1.46957 16 0.960859 15.7893 0.585786 15.4142C0.210714 15.0391 0 14.5304 0 14V2C0 1.46957 0.210714 0.960859 0.585786 0.585786C0.960859 0.210714 1.46957 0 2 0L14 0ZM5.904 10.803L10 6.707V9.475C10 9.60761 10.0527 9.73479 10.1464 9.82855C10.2402 9.92232 10.3674 9.975 10.5 9.975C10.6326 9.975 10.7598 9.92232 10.8536 9.82855C10.9473 9.73479 11 9.60761 11 9.475V5.5C11 5.36739 10.9473 5.24021 10.8536 5.14645C10.7598 5.05268 10.6326 5 10.5 5H6.525C6.39239 5 6.26521 5.05268 6.17145 5.14645C6.07768 5.24021 6.025 5.36739 6.025 5.5C6.025 5.63261 6.07768 5.75979 6.17145 5.85355C6.26521 5.94732 6.39239 6 6.525 6H9.293L5.197 10.096C5.10592 10.1903 5.05552 10.3166 5.05666 10.4477C5.0578 10.5788 5.11039 10.7042 5.20309 10.7969C5.29579 10.8896 5.4212 10.9422 5.5523 10.9433C5.6834 10.9445 5.8097 10.8941 5.904 10.803Z"/></g><defs><clipPath id="clip0_104_467"><rect width="16" height="16"/></clipPath></defs></svg>