<svg width="16" height="16" viewBox="0 0 16 16" fill="none" xmlns="http://www.w3.org/2000/svg">
<path fill-rule="evenodd" clip-rule="evenodd" d="M6 8C6 8.13261 6.05268 8.25979 6.14645 8.35355C6.24021 8.44732 6.36739 8.5 6.5 8.5H12.293L10.146 10.646C10.0521 10.7399 9.99937 10.8672 9.99937 11C9.99937 11.1328 10.0521 11.2601 10.146 11.354C10.2399 11.4479 10.3672 11.5006 10.5 11.5006C10.6328 11.5006 10.7601 11.4479 10.854 11.354L13.854 8.354C13.9006 8.30755 13.9375 8.25238 13.9627 8.19163C13.9879 8.13089 14.0009 8.06577 14.0009 8C14.0009 7.93423 13.9879 7.86911 13.9627 7.80837C13.9375 7.74762 13.9006 7.69245 13.854 7.646L10.854 4.646C10.7601 4.55211 10.6328 4.49937 10.5 4.49937C10.3672 4.49937 10.2399 4.55211 10.146 4.646C10.0521 4.73989 9.99937 4.86722 9.99937 5C9.99937 5.13278 10.0521 5.26011 10.146 5.354L12.293 7.5H6.5C6.36739 7.5 6.24021 7.55268 6.14645 7.64645C6.05268 7.74021 6 7.86739 6 8ZM3.5 15C3.36739 15 3.24021 14.9473 3.14645 14.8536C3.05268 14.7598 3 14.6326 3 14.5V1.5C3 1.36739 3.05268 1.24021 3.14645 1.14645C3.24021 1.05268 3.36739 1 3.5 1C3.63261 1 3.75979 1.05268 3.85355 1.14645C3.94732 1.24021 4 1.36739 4 1.5V14.5C4 14.6326 3.94732 14.7598 3.85355 14.8536C3.75979 14.9473 3.63261 15 3.5 15Z" fill="black"/>
</svg>
