<svg width="16" height="16" viewBox="0 0 16 16" xmlns="http://www.w3.org/2000/svg" fill='currentColor'><g clip-path="url(#clip0_104_457)"><path d="M2 0C1.46957 0 0.960859 0.210714 0.585786 0.585786C0.210714 0.960859 0 1.46957 0 2L0 14C0 14.5304 0.210714 15.0391 0.585786 15.4142C0.960859 15.7893 1.46957 16 2 16H14C14.5304 16 15.0391 15.7893 15.4142 15.4142C15.7893 15.0391 16 14.5304 16 14V2C16 1.46957 15.7893 0.960859 15.4142 0.585786C15.0391 0.210714 14.5304 0 14 0L2 0ZM10.096 10.803L6 6.707V9.475C6 9.60761 5.94732 9.73479 5.85355 9.82855C5.75979 9.92232 5.63261 9.975 5.5 9.975C5.36739 9.975 5.24021 9.92232 5.14645 9.82855C5.05268 9.73479 5 9.60761 5 9.475V5.5C5 5.36739 5.05268 5.24021 5.14645 5.14645C5.24021 5.05268 5.36739 5 5.5 5H9.475C9.60761 5 9.73479 5.05268 9.82855 5.14645C9.92232 5.24021 9.975 5.36739 9.975 5.5C9.975 5.63261 9.92232 5.75979 9.82855 5.85355C9.73479 5.94732 9.60761 6 9.475 6H6.707L10.803 10.096C10.8508 10.1421 10.8888 10.1973 10.9151 10.2583C10.9413 10.3193 10.955 10.3849 10.9556 10.4513C10.9562 10.5177 10.9436 10.5835 10.9184 10.645C10.8933 10.7064 10.8561 10.7623 10.8092 10.8092C10.7623 10.8561 10.7064 10.8933 10.645 10.9184C10.5835 10.9436 10.5177 10.9562 10.4513 10.9556C10.3849 10.955 10.3193 10.9413 10.2583 10.9151C10.1973 10.8888 10.1421 10.8508 10.096 10.803Z"/></g><defs><clipPath id="clip0_104_457"><rect width="16" height="16"/></clipPath></defs></svg>