<svg width="16" height="16" viewBox="0 0 16 16" xmlns="http://www.w3.org/2000/svg" fill='currentColor'><g clip-path="url(#clip0_104_455)"><path fill-rule="evenodd" clip-rule="evenodd" d="M15 2C15 1.73478 14.8946 1.48043 14.7071 1.29289C14.5196 1.10536 14.2652 1 14 1H2C1.73478 1 1.48043 1.10536 1.29289 1.29289C1.10536 1.48043 1 1.73478 1 2V14C1 14.2652 1.10536 14.5196 1.29289 14.7071C1.48043 14.8946 1.73478 15 2 15H14C14.2652 15 14.5196 14.8946 14.7071 14.7071C14.8946 14.5196 15 14.2652 15 14V2ZM0 2C0 1.46957 0.210714 0.960859 0.585786 0.585786C0.960859 0.210714 1.46957 0 2 0L14 0C14.5304 0 15.0391 0.210714 15.4142 0.585786C15.7893 0.960859 16 1.46957 16 2V14C16 14.5304 15.7893 15.0391 15.4142 15.4142C15.0391 15.7893 14.5304 16 14 16H2C1.46957 16 0.960859 15.7893 0.585786 15.4142C0.210714 15.0391 0 14.5304 0 14V2ZM10.096 10.803C10.1421 10.8508 10.1973 10.8888 10.2583 10.9151C10.3193 10.9413 10.3849 10.955 10.4513 10.9556C10.5177 10.9562 10.5835 10.9436 10.645 10.9184C10.7064 10.8933 10.7623 10.8561 10.8092 10.8092C10.8561 10.7623 10.8933 10.7064 10.9184 10.645C10.9436 10.5835 10.9562 10.5177 10.9556 10.4513C10.955 10.3849 10.9413 10.3193 10.9151 10.2583C10.8888 10.1973 10.8508 10.1421 10.803 10.096L6.707 6H9.475C9.60761 6 9.73479 5.94732 9.82855 5.85355C9.92232 5.75979 9.975 5.63261 9.975 5.5C9.975 5.36739 9.92232 5.24021 9.82855 5.14645C9.73479 5.05268 9.60761 5 9.475 5H5.5C5.36739 5 5.24021 5.05268 5.14645 5.14645C5.05268 5.24021 5 5.36739 5 5.5V9.475C5 9.60761 5.05268 9.73479 5.14645 9.82855C5.24021 9.92232 5.36739 9.975 5.5 9.975C5.63261 9.975 5.75979 9.92232 5.85355 9.82855C5.94732 9.73479 6 9.60761 6 9.475V6.707L10.096 10.803Z"/></g><defs><clipPath id="clip0_104_455"><rect width="16" height="16"/></clipPath></defs></svg>