<svg width="16" height="16" viewBox="0 0 16 16" xmlns="http://www.w3.org/2000/svg" fill='currentColor'><g clip-path="url(#clip0_104_437)"><path fill-rule="evenodd" clip-rule="evenodd" d="M1 7.99999C1 7.86738 1.05268 7.74021 1.14645 7.64644C1.24021 7.55267 1.36739 7.49999 1.5 7.49999H14.5C14.6326 7.49999 14.7598 7.55267 14.8536 7.64644C14.9473 7.74021 15 7.86738 15 7.99999C15 8.1326 14.9473 8.25978 14.8536 8.35355C14.7598 8.44732 14.6326 8.49999 14.5 8.49999H1.5C1.36739 8.49999 1.24021 8.44732 1.14645 8.35355C1.05268 8.25978 1 8.1326 1 7.99999ZM7.646 0.145994C7.69245 0.0994303 7.74762 0.0624874 7.80837 0.037281C7.86911 0.0120745 7.93423 -0.000900269 8 -0.000900269C8.06577 -0.000900269 8.13089 0.0120745 8.19163 0.037281C8.25238 0.0624874 8.30755 0.0994303 8.354 0.145994L10.354 2.14599C10.4005 2.19248 10.4374 2.24767 10.4625 2.30841C10.4877 2.36915 10.5006 2.43425 10.5006 2.49999C10.5006 2.56574 10.4877 2.63084 10.4625 2.69158C10.4374 2.75232 10.4005 2.80751 10.354 2.85399C10.3075 2.90048 10.2523 2.93736 10.1916 2.96252C10.1308 2.98768 10.0657 3.00063 10 3.00063C9.93426 3.00063 9.86916 2.98768 9.80842 2.96252C9.74768 2.93736 9.69249 2.90048 9.646 2.85399L8.5 1.70699V5.49999C8.5 5.6326 8.44732 5.75978 8.35355 5.85355C8.25979 5.94731 8.13261 5.99999 8 5.99999C7.86739 5.99999 7.74021 5.94731 7.64645 5.85355C7.55268 5.75978 7.5 5.6326 7.5 5.49999V1.70699L6.354 2.85399C6.26011 2.94788 6.13278 3.00063 6 3.00063C5.86722 3.00063 5.73989 2.94788 5.646 2.85399C5.55211 2.76011 5.49937 2.63277 5.49937 2.49999C5.49937 2.36722 5.55211 2.23988 5.646 2.14599L7.646 0.145994ZM8 9.99999C8.13261 9.99999 8.25979 10.0527 8.35355 10.1464C8.44732 10.2402 8.5 10.3674 8.5 10.5V14.293L9.646 13.146C9.73989 13.0521 9.86722 12.9994 10 12.9994C10.1328 12.9994 10.2601 13.0521 10.354 13.146C10.4479 13.2399 10.5006 13.3672 10.5006 13.5C10.5006 13.6328 10.4479 13.7601 10.354 13.854L8.354 15.854C8.30755 15.9006 8.25238 15.9375 8.19163 15.9627C8.13089 15.9879 8.06577 16.0009 8 16.0009C7.93423 16.0009 7.86911 15.9879 7.80837 15.9627C7.74762 15.9375 7.69245 15.9006 7.646 15.854L5.646 13.854C5.59951 13.8075 5.56264 13.7523 5.53748 13.6916C5.51232 13.6308 5.49937 13.5657 5.49937 13.5C5.49937 13.4342 5.51232 13.3691 5.53748 13.3084C5.56264 13.2477 5.59951 13.1925 5.646 13.146C5.73989 13.0521 5.86722 12.9994 6 12.9994C6.06574 12.9994 6.13084 13.0123 6.19158 13.0375C6.25232 13.0626 6.30751 13.0995 6.354 13.146L7.5 14.293V10.5C7.5 10.3674 7.55268 10.2402 7.64645 10.1464C7.74021 10.0527 7.86739 9.99999 8 9.99999Z"/></g><defs><clipPath id="clip0_104_437"><rect width="16" height="16"/></clipPath></defs></svg>