<svg width="16" height="16" viewBox="0 0 16 16" xmlns="http://www.w3.org/2000/svg" fill='currentColor'><path d="M0 12.5V3.5C0 3.10218 0.158035 2.72064 0.43934 2.43934C0.720644 2.15804 1.10218 2 1.5 2H14.5C14.8978 2 15.2794 2.15804 15.5607 2.43934C15.842 2.72064 16 3.10218 16 3.5V12.5C16 12.8978 15.842 13.2794 15.5607 13.5607C15.2794 13.842 14.8978 14 14.5 14H1.5C1.10218 14 0.720644 13.842 0.43934 13.5607C0.158035 13.2794 0 12.8978 0 12.5H0ZM2.5 4C2.36739 4 2.24021 4.05268 2.14645 4.14645C2.05268 4.24021 2 4.36739 2 4.5V7.5C2 7.63261 2.05268 7.75979 2.14645 7.85355C2.24021 7.94732 2.36739 8 2.5 8C2.63261 8 2.75979 7.94732 2.85355 7.85355C2.94732 7.75979 3 7.63261 3 7.5V5H5.5C5.63261 5 5.75979 4.94732 5.85355 4.85355C5.94732 4.75979 6 4.63261 6 4.5C6 4.36739 5.94732 4.24021 5.85355 4.14645C5.75979 4.05268 5.63261 4 5.5 4H2.5ZM13.5 12C13.6326 12 13.7598 11.9473 13.8536 11.8536C13.9473 11.7598 14 11.6326 14 11.5V8.5C14 8.36739 13.9473 8.24021 13.8536 8.14645C13.7598 8.05268 13.6326 8 13.5 8C13.3674 8 13.2402 8.05268 13.1464 8.14645C13.0527 8.24021 13 8.36739 13 8.5V11H10.5C10.3674 11 10.2402 11.0527 10.1464 11.1464C10.0527 11.2402 10 11.3674 10 11.5C10 11.6326 10.0527 11.7598 10.1464 11.8536C10.2402 11.9473 10.3674 12 10.5 12H13.5Z"/></svg>