<svg xmlns="http://www.w3.org/2000/svg" width="24" height="24" viewBox="0 0 24 24" fill='currentColor'><path d="M13.175 7a2 2 0 1 0 0-4 2 2 0 0 0 0 4m7.27 11.22-.64-6.37a1.49 1.49 0 0 0-1.49-1.35h-1.64c-1.5-.02-2.86-.54-3.76-1.44l-2-1.98a1.95 1.95 0 0 0-1.41-.58c-.51 0-1.02.2-1.41.59l-3.34 3.32c-.53.68-.51 1.57-.21 2.13l1.43 2.8-3.15 4.05 1.57 1.24 3.68-4.73-.17-1.36.77.71v5.25h2v-6.12l-2.12-2.12 2.36-2.36c.94.94 1.72 1.82 3.59 2.32l-.83 8.28h1.5l.41-3.5h3.18l.14 1.22c-.44.26-.73.74-.73 1.28 0 .83.67 1.5 1.5 1.5s1.5-.67 1.5-1.5c0-.54-.29-1.02-.73-1.28m-4.68-2.72.41-3.5h2l.41 3.5z"/></svg>