<svg width="16" height="16" viewBox="0 0 16 16" fill="none" xmlns="http://www.w3.org/2000/svg">
<g clip-path="url(#clip0_104_480)">
<path d="M8 0C8.26521 0 8.51957 0.105357 8.7071 0.292893C8.89464 0.48043 9 0.734784 9 1V6.268L13.562 3.634C13.6758 3.5673 13.8016 3.52377 13.9323 3.5059C14.0629 3.48804 14.1958 3.49619 14.3233 3.5299C14.4508 3.56361 14.5704 3.62221 14.6752 3.70231C14.7799 3.78242 14.8678 3.88246 14.9338 3.99667C14.9997 4.11088 15.0424 4.23701 15.0594 4.36779C15.0764 4.49857 15.0674 4.63142 15.0328 4.75869C14.9983 4.88597 14.9389 5.00515 14.8581 5.10937C14.7773 5.2136 14.6766 5.30082 14.562 5.366L10 8L14.562 10.634C14.6766 10.6992 14.7773 10.7864 14.8581 10.8906C14.9389 10.9949 14.9983 11.114 15.0328 11.2413C15.0674 11.3686 15.0764 11.5014 15.0594 11.6322C15.0424 11.763 14.9997 11.8891 14.9338 12.0033C14.8678 12.1175 14.7799 12.2176 14.6752 12.2977C14.5704 12.3778 14.4508 12.4364 14.3233 12.4701C14.1958 12.5038 14.0629 12.512 13.9323 12.4941C13.8016 12.4762 13.6758 12.4327 13.562 12.366L9 9.732V15C9 15.2652 8.89464 15.5196 8.7071 15.7071C8.51957 15.8946 8.26521 16 8 16C7.73478 16 7.48043 15.8946 7.29289 15.7071C7.10535 15.5196 7 15.2652 7 15V9.732L2.438 12.366C2.32422 12.4327 2.19838 12.4762 2.06772 12.4941C1.93706 12.512 1.80415 12.5038 1.67665 12.4701C1.54915 12.4364 1.42958 12.3778 1.32482 12.2977C1.22005 12.2176 1.13217 12.1175 1.06623 12.0033C1.00029 11.8891 0.957591 11.763 0.940593 11.6322C0.923594 11.5014 0.932632 11.3686 0.967186 11.2413C1.00174 11.114 1.06113 10.9949 1.14193 10.8906C1.22273 10.7864 1.32335 10.6992 1.438 10.634L6 8L1.438 5.366C1.21019 5.23245 1.04445 5.01421 0.976958 4.75892C0.909462 4.50362 0.945684 4.23199 1.07772 4.00331C1.20976 3.77462 1.42689 3.60744 1.68173 3.53825C1.93657 3.46906 2.20844 3.50348 2.438 3.634L7 6.268V1C7 0.734784 7.10535 0.48043 7.29289 0.292893C7.48043 0.105357 7.73478 0 8 0V0Z" fill="black"/>
</g>
<defs>
<clipPath id="clip0_104_480">
<rect width="16" height="16" fill="white"/>
</clipPath>
</defs>
</svg>
