<svg width="24" height="24" viewBox="0 0 24 24" xmlns="http://www.w3.org/2000/svg" fill='currentColor'><path d="M22.5012 1.49878L20.0012 2.89878L17.5012 1.49878L18.9012 3.99878L17.5012 6.49878L20.0012 5.09878L22.5012 6.49878L21.1012 3.99878L22.5012 1.49878ZM14.1612 7.71878L16.2812 9.83878L13.8412 12.2788L14.6512 13.0888L17.2012 10.5388C17.5912 10.1488 17.5912 9.51878 17.2012 9.12878L14.8612 6.78878C14.4712 6.39878 13.8412 6.39878 13.4512 6.78878L10.9012 9.33878L11.7112 10.1488L14.1612 7.71878ZM2.77125 3.75878L1.50125 5.02878L8.36125 11.8888L1.79125 18.4588C1.40125 18.8488 1.40125 19.4788 1.79125 19.8688L4.13125 22.2088C4.52125 22.5988 5.15125 22.5988 5.54125 22.2088L12.1112 15.6388L18.9712 22.4988L20.2412 21.2288L2.77125 3.75878Z"/></svg>