<svg width="24" height="24" viewBox="0 0 24 24" xmlns="http://www.w3.org/2000/svg" fill='currentColor'><path d="M22.5012 1.49878L20.0012 2.89878L17.5012 1.49878L18.9012 3.99878L17.5012 6.49878L20.0012 5.09878L22.5012 6.49878L21.1012 3.99878L22.5012 1.49878ZM14.8712 6.78878C14.4812 6.39878 13.8512 6.39878 13.4612 6.78878L1.79125 18.4588C1.40125 18.8488 1.40125 19.4788 1.79125 19.8688L4.13125 22.2088C4.52125 22.5988 5.15125 22.5988 5.54125 22.2088L17.2012 10.5488C17.5912 10.1588 17.5912 9.52878 17.2012 9.13878L14.8712 6.78878ZM13.8412 12.2788L11.7212 10.1588L14.1612 7.71878L16.2812 9.83878L13.8412 12.2788Z"/></svg>