<svg width="24" height="24" viewBox="0 0 24 24" xmlns="http://www.w3.org/2000/svg" fill='currentColor'><path d="M19.055 3.53502C17.385 2.14502 15.315 1.23502 13.025 1.02502V3.03502C14.755 3.22502 16.335 3.91502 17.635 4.95502L19.055 3.53502Z"/><path d="M11.025 3.03502V1.02502C8.73499 1.22502 6.66499 2.14502 4.99499 3.53502L6.41499 4.95502C7.71499 3.91502 9.29499 3.22502 11.025 3.03502Z"/><path d="M5.00499 6.36502L3.58499 4.94502C2.19499 6.61502 1.28499 8.68502 1.07499 10.975H3.08499C3.27499 9.24502 3.96499 7.66502 5.00499 6.36502Z"/><path d="M20.965 10.975H22.975C22.765 8.68502 21.855 6.61502 20.465 4.94502L19.045 6.36502C20.085 7.66502 20.775 9.24502 20.965 10.975Z"/><path d="M7.02499 11.975L10.465 13.535L12.025 16.975L13.585 13.535L17.025 11.975L13.585 10.415L12.025 6.97502L10.465 10.415L7.02499 11.975Z"/><path d="M12.025 20.975C8.91499 20.975 6.17499 19.385 4.56499 16.975H7.02499V14.975H1.02499V20.975H3.02499V18.275C5.01499 21.115 8.29499 22.975 12.025 22.975C16.895 22.975 21.025 19.805 22.465 15.415L20.505 14.965C19.275 18.455 15.945 20.975 12.025 20.975Z"/></svg>