<svg width="16" height="16" viewBox="0 0 16 16" xmlns="http://www.w3.org/2000/svg" fill='currentColor'><path d="M9.66901 0.864L8.00001 0L6.33101 0.864L4.47301 1.146L3.63101 2.826L2.29401 4.146L2.60001 6L2.29401 7.854L3.63101 9.174L4.47301 10.854L6.33101 11.136L8.00001 12L9.66901 11.136L11.527 10.854L12.369 9.174L13.706 7.854L13.4 6L13.706 4.146L12.369 2.826L11.527 1.146L9.66901 0.864ZM10.865 2.057L11.549 3.422L12.635 4.494L12.387 6L12.635 7.506L11.549 8.578L10.865 9.943L9.35501 10.172L8.00001 10.874L6.64501 10.172L5.13501 9.943L4.45101 8.578L3.36501 7.506L3.61401 6L3.36401 4.494L4.45101 3.422L5.13501 2.057L6.64501 1.828L8.00001 1.126L9.35601 1.828L10.865 2.057Z"/><path d="M4 11.794V16L8 15L12 16V11.794L9.982 12.1L8 13.126L6.018 12.1L4 11.794Z"/></svg>