<svg width="16" height="16" viewBox="0 0 16 16" fill="none" xmlns="http://www.w3.org/2000/svg">
<path d="M15.683 3C15.683 2.46957 15.4723 1.96086 15.0972 1.58579C14.7222 1.21071 14.2134 1 13.683 1H6.60301C6.31446 0.999878 6.02929 1.0622 5.76709 1.18268C5.50489 1.30317 5.27186 1.47896 5.08401 1.698L0.241014 7.35C0.0855512 7.53127 9.15527e-05 7.76219 9.15527e-05 8.001C9.15527e-05 8.23981 0.0855512 8.47073 0.241014 8.652L5.08401 14.302C5.27186 14.521 5.50489 14.6968 5.76709 14.8173C6.02929 14.9378 6.31446 15.0001 6.60301 15H13.683C14.2134 15 14.7222 14.7893 15.0972 14.4142C15.4723 14.0391 15.683 13.5304 15.683 13V3ZM5.82901 5.854C5.78253 5.80758 5.74564 5.75245 5.72045 5.69177C5.69527 5.6311 5.68228 5.56605 5.68224 5.50035C5.68219 5.43466 5.69508 5.36959 5.72018 5.30888C5.74528 5.24816 5.78209 5.19299 5.82851 5.1465C5.87494 5.10001 5.93006 5.06312 5.99074 5.03794C6.05142 5.01275 6.11646 4.99977 6.18216 4.99972C6.24786 4.99968 6.31292 5.01257 6.37364 5.03767C6.43435 5.06277 6.48953 5.09958 6.53601 5.146L8.68301 7.293L10.829 5.146C10.8755 5.09958 10.9307 5.06277 10.9914 5.03767C11.0521 5.01257 11.1172 4.99968 11.1829 4.99972C11.2486 4.99977 11.3136 5.01275 11.3743 5.03794C11.435 5.06312 11.4901 5.10001 11.5365 5.1465C11.5829 5.19299 11.6197 5.24816 11.6448 5.30888C11.6699 5.36959 11.6828 5.43466 11.6828 5.50035C11.6827 5.56605 11.6698 5.6311 11.6446 5.69177C11.6194 5.75245 11.5825 5.80758 11.536 5.854L9.39001 8L11.536 10.146C11.6299 10.2398 11.6827 10.367 11.6828 10.4996C11.6829 10.6323 11.6303 10.7596 11.5365 10.8535C11.4428 10.9474 11.3155 11.0002 11.1829 11.0003C11.0502 11.0004 10.9229 10.9478 10.829 10.854L8.68301 8.707L6.53601 10.854C6.48953 10.9004 6.43435 10.9372 6.37364 10.9623C6.31292 10.9874 6.24786 11.0003 6.18216 11.0003C6.11646 11.0002 6.05142 10.9872 5.99074 10.9621C5.93006 10.9369 5.87494 10.9 5.82851 10.8535C5.78209 10.807 5.74528 10.7518 5.72018 10.6911C5.69508 10.6304 5.68219 10.5653 5.68224 10.4996C5.68233 10.367 5.73513 10.2398 5.82901 10.146L7.97601 8L5.82901 5.854Z" fill="black"/>
</svg>
