<svg width="16" height="16" viewBox="0 0 16 16" fill="none" xmlns="http://www.w3.org/2000/svg">
<path d="M0 3C0 2.46957 0.210714 1.96086 0.585786 1.58579C0.960859 1.21071 1.46957 1 2 1H9.08C9.36856 0.999878 9.65372 1.0622 9.91593 1.18268C10.1781 1.30317 10.4111 1.47896 10.599 1.698L15.442 7.349C15.5975 7.53027 15.6829 7.76119 15.6829 8C15.6829 8.23881 15.5975 8.46973 15.442 8.651L10.6 14.3C10.4122 14.5195 10.1791 14.6958 9.91673 14.8166C9.65434 14.9375 9.36888 15 9.08 15H2C1.46957 15 0.960859 14.7893 0.585786 14.4142C0.210714 14.0391 0 13.5304 0 13V3ZM9.854 5.854C9.90049 5.80751 9.93736 5.75232 9.96252 5.69158C9.98768 5.63084 10.0006 5.56574 10.0006 5.5C10.0006 5.43426 9.98768 5.36916 9.96252 5.30842C9.93736 5.24768 9.90049 5.19249 9.854 5.146C9.80751 5.09951 9.75232 5.06264 9.69158 5.03748C9.63084 5.01232 9.56574 4.99937 9.5 4.99937C9.43426 4.99937 9.36916 5.01232 9.30842 5.03748C9.24768 5.06264 9.19249 5.09951 9.146 5.146L7 7.293L4.854 5.146C4.80751 5.09951 4.75232 5.06264 4.69158 5.03748C4.63084 5.01232 4.56574 4.99937 4.5 4.99937C4.43426 4.99937 4.36916 5.01232 4.30842 5.03748C4.24768 5.06264 4.19249 5.09951 4.146 5.146C4.09951 5.19249 4.06264 5.24768 4.03748 5.30842C4.01232 5.36916 3.99937 5.43426 3.99937 5.5C3.99937 5.56574 4.01232 5.63084 4.03748 5.69158C4.06264 5.75232 4.09951 5.80751 4.146 5.854L6.293 8L4.146 10.146C4.05211 10.2399 3.99937 10.3672 3.99937 10.5C3.99937 10.6328 4.05211 10.7601 4.146 10.854C4.23989 10.9479 4.36722 11.0006 4.5 11.0006C4.63278 11.0006 4.76011 10.9479 4.854 10.854L7 8.707L9.146 10.854C9.23989 10.9479 9.36722 11.0006 9.5 11.0006C9.63278 11.0006 9.76011 10.9479 9.854 10.854C9.94789 10.7601 10.0006 10.6328 10.0006 10.5C10.0006 10.3672 9.94789 10.2399 9.854 10.146L7.707 8L9.854 5.854Z" fill="black"/>
</svg>
