<svg width="24" height="24" viewBox="0 0 24 24" xmlns="http://www.w3.org/2000/svg" fill='currentColor'><path d="M13.2511 24C9.99108 24 7.06108 22.01 5.85108 18.98L2.82108 11.37C2.51108 10.58 3.25108 9.79 4.06108 10.05L4.85108 10.31C5.41108 10.49 5.87108 10.92 6.09108 11.47L7.50108 15H8.25108V3.25C8.25108 2.56 8.81108 2 9.50108 2C10.1911 2 10.7511 2.56 10.7511 3.25V12H11.7511V1.25C11.7511 0.56 12.3111 0 13.0011 0C13.6911 0 14.2511 0.56 14.2511 1.25V12H15.2511V2.75C15.2511 2.06 15.8111 1.5 16.5011 1.5C17.1911 1.5 17.7511 2.06 17.7511 2.75V12H18.7511V5.75C18.7511 5.06 19.3111 4.5 20.0011 4.5C20.6911 4.5 21.2511 5.06 21.2511 5.75V16C21.2511 20.42 17.6711 24 13.2511 24Z"/></svg>