<svg width="16" height="16" viewBox="0 0 16 16" fill="none" xmlns="http://www.w3.org/2000/svg">
<path d="M5.82999 5.146C5.78343 5.19244 5.74649 5.24762 5.72128 5.30836C5.69607 5.36911 5.6831 5.43423 5.6831 5.5C5.6831 5.56576 5.69607 5.63089 5.72128 5.69163C5.74649 5.75238 5.78343 5.80755 5.82999 5.854L7.97499 8L5.82799 10.146C5.7341 10.2398 5.68131 10.367 5.68121 10.4996C5.68117 10.5653 5.69406 10.6304 5.71916 10.6911C5.74426 10.7518 5.78107 10.807 5.82749 10.8535C5.87391 10.9 5.92904 10.9369 5.98972 10.9621C6.0504 10.9872 6.11544 11.0002 6.18114 11.0003C6.31382 11.0004 6.4411 10.9478 6.53499 10.854L8.68199 8.707L10.828 10.854C10.9219 10.9478 11.0492 11.0004 11.1818 11.0003C11.3145 11.0002 11.4417 10.9474 11.5355 10.8535C11.6292 10.7596 11.6819 10.6323 11.6818 10.4996C11.6817 10.367 11.6289 10.2398 11.535 10.146L9.38999 8L11.536 5.854C11.6299 5.76024 11.6827 5.63303 11.6828 5.50035C11.6829 5.36767 11.6302 5.24038 11.5365 5.1465C11.4427 5.05261 11.3155 4.99981 11.1828 4.99972C11.0502 4.99962 10.9229 5.05224 10.829 5.146L8.68299 7.293L6.53599 5.146C6.44223 5.05226 6.31507 4.9996 6.18249 4.9996C6.04991 4.9996 5.92276 5.05226 5.82899 5.146H5.82999Z" fill="black"/>
<path d="M13.683 1C14.2134 1 14.7222 1.21071 15.0972 1.58579C15.4723 1.96086 15.683 2.46957 15.683 3V13C15.683 13.5304 15.4723 14.0391 15.0972 14.4142C14.7222 14.7893 14.2134 15 13.683 15H6.60301C6.31446 15.0001 6.02929 14.9378 5.76709 14.8173C5.50489 14.6968 5.27186 14.521 5.08401 14.302L0.241014 8.65C0.0855512 8.46873 9.15527e-05 8.23781 9.15527e-05 7.999C9.15527e-05 7.76019 0.0855512 7.52927 0.241014 7.348L5.08401 1.7C5.27168 1.4806 5.50462 1.30443 5.76683 1.18359C6.02904 1.06276 6.3143 1.00013 6.60301 1H13.683ZM6.60301 2C6.45857 1.99999 6.31585 2.03127 6.18465 2.09169C6.05345 2.15211 5.9369 2.24023 5.84301 2.35L1.00001 8L5.84401 13.65C5.93779 13.7596 6.05418 13.8477 6.18519 13.9081C6.31621 13.9685 6.45874 13.9999 6.60301 14H13.683C13.9482 14 14.2026 13.8946 14.3901 13.7071C14.5777 13.5196 14.683 13.2652 14.683 13V3C14.683 2.73478 14.5777 2.48043 14.3901 2.29289C14.2026 2.10536 13.9482 2 13.683 2H6.60301Z" fill="black"/>
</svg>
