<svg width="16" height="16" viewBox="0 0 16 16" fill="none" xmlns="http://www.w3.org/2000/svg">
<g clip-path="url(#clip0_104_497)">
<path d="M9.85402 5.146C9.90058 5.19245 9.93753 5.24762 9.96273 5.30837C9.98794 5.36911 10.0009 5.43423 10.0009 5.5C10.0009 5.56577 9.98794 5.63089 9.96273 5.69163C9.93753 5.75238 9.90058 5.80756 9.85402 5.854L7.70702 8L9.85402 10.146C9.94791 10.2399 10.0007 10.3672 10.0007 10.5C10.0007 10.6328 9.94791 10.7601 9.85402 10.854C9.76013 10.9479 9.6328 11.0006 9.50002 11.0006C9.36725 11.0006 9.23991 10.9479 9.14602 10.854L7.00002 8.707L4.85402 10.854C4.76013 10.9479 4.6328 11.0006 4.50002 11.0006C4.36725 11.0006 4.23991 10.9479 4.14602 10.854C4.05213 10.7601 3.99939 10.6328 3.99939 10.5C3.99939 10.3672 4.05213 10.2399 4.14602 10.146L6.29302 8L4.14602 5.854C4.09953 5.80751 4.06266 5.75232 4.0375 5.69158C4.01234 5.63085 3.99939 5.56574 3.99939 5.5C3.99939 5.43426 4.01234 5.36916 4.0375 5.30842C4.06266 5.24768 4.09953 5.19249 4.14602 5.146C4.19251 5.09951 4.2477 5.06264 4.30844 5.03748C4.36918 5.01232 4.43428 4.99937 4.50002 4.99937C4.56577 4.99937 4.63087 5.01232 4.6916 5.03748C4.75234 5.06264 4.80753 5.09951 4.85402 5.146L7.00002 7.293L9.14602 5.146C9.19247 5.09944 9.24764 5.06249 9.30839 5.03729C9.36913 5.01208 9.43425 4.99911 9.50002 4.99911C9.56579 4.99911 9.63091 5.01208 9.69165 5.03729C9.7524 5.06249 9.80758 5.09944 9.85402 5.146Z" fill="black"/>
<path d="M2 1C1.46957 1 0.960859 1.21071 0.585786 1.58579C0.210714 1.96086 0 2.46957 0 3L0 13C0 13.5304 0.210714 14.0391 0.585786 14.4142C0.960859 14.7893 1.46957 15 2 15H9.08C9.36856 15.0001 9.65372 14.9378 9.91593 14.8173C10.1781 14.6968 10.4111 14.521 10.599 14.302L15.442 8.651C15.5975 8.46973 15.6829 8.23881 15.6829 8C15.6829 7.76119 15.5975 7.53027 15.442 7.349L10.6 1.7C10.4122 1.48047 10.1791 1.30422 9.91673 1.18338C9.65434 1.06254 9.36888 0.999981 9.08 1H2ZM9.08 2C9.22444 1.99999 9.36717 2.03127 9.49837 2.09169C9.62956 2.15211 9.74611 2.24023 9.84 2.35L14.682 8L9.838 13.65C9.74422 13.7596 9.62783 13.8477 9.49682 13.9081C9.36581 13.9685 9.22327 13.9999 9.079 14H2C1.73478 14 1.48043 13.8946 1.29289 13.7071C1.10536 13.5196 1 13.2652 1 13V3C1 2.73478 1.10536 2.48043 1.29289 2.29289C1.48043 2.10536 1.73478 2 2 2H9.08Z" fill="black"/>
</g>
<defs>
<clipPath id="clip0_104_497">
<rect width="16" height="16" fill="white"/>
</clipPath>
</defs>
</svg>
