<svg width="16" height="16" viewBox="0 0 16 16" xmlns="http://www.w3.org/2000/svg" fill='currentColor'><path fill-rule="evenodd" clip-rule="evenodd" d="M10.854 8.14601C10.9006 8.19245 10.9375 8.24763 10.9627 8.30838C10.9879 8.36912 11.0009 8.43424 11.0009 8.50001C11.0009 8.56578 10.9879 8.6309 10.9627 8.69164C10.9375 8.75239 10.9006 8.80756 10.854 8.85401L7.85402 11.854C7.80758 11.9006 7.7524 11.9375 7.69166 11.9627C7.63091 11.9879 7.56579 12.0009 7.50002 12.0009C7.43425 12.0009 7.36913 11.9879 7.30839 11.9627C7.24764 11.9375 7.19247 11.9006 7.14602 11.854L5.64602 10.354C5.59953 10.3075 5.56266 10.2523 5.5375 10.1916C5.51234 10.1309 5.49939 10.0658 5.49939 10C5.49939 9.93426 5.51234 9.86916 5.5375 9.80842C5.56266 9.74769 5.59953 9.6925 5.64602 9.64601C5.73991 9.55212 5.86725 9.49938 6.00002 9.49938C6.06577 9.49938 6.13087 9.51233 6.19161 9.53749C6.25234 9.56264 6.30753 9.59952 6.35402 9.64601L7.50002 10.793L10.146 8.14601C10.1925 8.09945 10.2476 8.0625 10.3084 8.0373C10.3691 8.01209 10.4343 7.99911 10.5 7.99911C10.5658 7.99911 10.6309 8.01209 10.6917 8.0373C10.7524 8.0625 10.8076 8.09945 10.854 8.14601Z"/><path d="M8 1C8.66304 1 9.29893 1.26339 9.76777 1.73223C10.2366 2.20107 10.5 2.83696 10.5 3.5V4H5.5V3.5C5.5 2.83696 5.76339 2.20107 6.23223 1.73223C6.70107 1.26339 7.33696 1 8 1ZM11.5 4V3.5C11.5 2.57174 11.1313 1.6815 10.4749 1.02513C9.8185 0.368749 8.92826 0 8 0C7.07174 0 6.1815 0.368749 5.52513 1.02513C4.86875 1.6815 4.5 2.57174 4.5 3.5V4H1V14C1 14.5304 1.21071 15.0391 1.58579 15.4142C1.96086 15.7893 2.46957 16 3 16H13C13.5304 16 14.0391 15.7893 14.4142 15.4142C14.7893 15.0391 15 14.5304 15 14V4H11.5ZM2 5H14V14C14 14.2652 13.8946 14.5196 13.7071 14.7071C13.5196 14.8946 13.2652 15 13 15H3C2.73478 15 2.48043 14.8946 2.29289 14.7071C2.10536 14.5196 2 14.2652 2 14V5Z"/></svg>