<svg width="16" height="16" viewBox="0 0 16 16" fill="none" xmlns="http://www.w3.org/2000/svg">
<path fill-rule="evenodd" clip-rule="evenodd" d="M10.5 3.5C10.5 2.83696 10.2366 2.20107 9.76777 1.73223C9.29893 1.26339 8.66304 1 8 1C7.33696 1 6.70107 1.26339 6.23223 1.73223C5.76339 2.20107 5.5 2.83696 5.5 3.5V4H10.5V3.5ZM11.5 3.5V4H15V14C15 14.5304 14.7893 15.0391 14.4142 15.4142C14.0391 15.7893 13.5304 16 13 16H3C2.46957 16 1.96086 15.7893 1.58579 15.4142C1.21071 15.0391 1 14.5304 1 14V4H4.5V3.5C4.5 2.57174 4.86875 1.6815 5.52513 1.02513C6.1815 0.368749 7.07174 0 8 0C8.92826 0 9.8185 0.368749 10.4749 1.02513C11.1313 1.6815 11.5 2.57174 11.5 3.5ZM8.5 8C8.5 7.86739 8.44732 7.74021 8.35355 7.64645C8.25979 7.55268 8.13261 7.5 8 7.5C7.86739 7.5 7.74021 7.55268 7.64645 7.64645C7.55268 7.74021 7.5 7.86739 7.5 8V9.5H6C5.86739 9.5 5.74021 9.55268 5.64645 9.64645C5.55268 9.74021 5.5 9.86739 5.5 10C5.5 10.1326 5.55268 10.2598 5.64645 10.3536C5.74021 10.4473 5.86739 10.5 6 10.5H7.5V12C7.5 12.1326 7.55268 12.2598 7.64645 12.3536C7.74021 12.4473 7.86739 12.5 8 12.5C8.13261 12.5 8.25979 12.4473 8.35355 12.3536C8.44732 12.2598 8.5 12.1326 8.5 12V10.5H10C10.1326 10.5 10.2598 10.4473 10.3536 10.3536C10.4473 10.2598 10.5 10.1326 10.5 10C10.5 9.86739 10.4473 9.74021 10.3536 9.64645C10.2598 9.55268 10.1326 9.5 10 9.5H8.5V8Z" fill="black"/>
</svg>
