<svg width="16" height="16" viewBox="0 0 16 16" fill="none" xmlns="http://www.w3.org/2000/svg">
<path fill-rule="evenodd" clip-rule="evenodd" d="M10.5 3.5C10.5 2.83696 10.2366 2.20107 9.76777 1.73223C9.29893 1.26339 8.66304 1 8 1C7.33696 1 6.70107 1.26339 6.23223 1.73223C5.76339 2.20107 5.5 2.83696 5.5 3.5V4H10.5V3.5ZM11.5 3.5V4H15V14C15 14.5304 14.7893 15.0391 14.4142 15.4142C14.0391 15.7893 13.5304 16 13 16H3C2.46957 16 1.96086 15.7893 1.58579 15.4142C1.21071 15.0391 1 14.5304 1 14V4H4.5V3.5C4.5 2.57174 4.86875 1.6815 5.52513 1.02513C6.1815 0.368749 7.07174 0 8 0C8.92826 0 9.8185 0.368749 10.4749 1.02513C11.1313 1.6815 11.5 2.57174 11.5 3.5ZM10.854 8.854C10.9479 8.76011 11.0006 8.63278 11.0006 8.5C11.0006 8.36722 10.9479 8.23989 10.854 8.146C10.7601 8.05211 10.6328 7.99937 10.5 7.99937C10.3672 7.99937 10.2399 8.05211 10.146 8.146L7.5 10.793L6.354 9.646C6.30751 9.59951 6.25232 9.56264 6.19158 9.53748C6.13084 9.51232 6.06574 9.49937 6 9.49937C5.93426 9.49937 5.86916 9.51232 5.80842 9.53748C5.74768 9.56264 5.69249 9.59951 5.646 9.646C5.59951 9.69249 5.56264 9.74768 5.53748 9.80842C5.51232 9.86916 5.49937 9.93426 5.49937 10C5.49937 10.0657 5.51232 10.1308 5.53748 10.1916C5.56264 10.2523 5.59951 10.3075 5.646 10.354L7.146 11.854C7.19245 11.9006 7.24762 11.9375 7.30837 11.9627C7.36911 11.9879 7.43423 12.0009 7.5 12.0009C7.56577 12.0009 7.63089 11.9879 7.69163 11.9627C7.75238 11.9375 7.80755 11.9006 7.854 11.854L10.854 8.854Z" fill="black"/>
</svg>
