<svg width="16" height="16" viewBox="0 0 16 16" xmlns="http://www.w3.org/2000/svg" fill='currentColor'><path fill-rule="evenodd" clip-rule="evenodd" d="M10.5 3.5C10.5 2.83696 10.2366 2.20107 9.76777 1.73223C9.29893 1.26339 8.66304 1 8 1C7.33696 1 6.70107 1.26339 6.23223 1.73223C5.76339 2.20107 5.5 2.83696 5.5 3.5V4H10.5V3.5ZM11.5 3.5V4H15V14C15 14.5304 14.7893 15.0391 14.4142 15.4142C14.0391 15.7893 13.5304 16 13 16H3C2.46957 16 1.96086 15.7893 1.58579 15.4142C1.21071 15.0391 1 14.5304 1 14V4H4.5V3.5C4.5 2.57174 4.86875 1.6815 5.52513 1.02513C6.1815 0.368749 7.07174 0 8 0C8.92826 0 9.8185 0.368749 10.4749 1.02513C11.1313 1.6815 11.5 2.57174 11.5 3.5ZM6.854 8.146C6.80751 8.09951 6.75232 8.06264 6.69158 8.03748C6.63084 8.01232 6.56574 7.99937 6.5 7.99937C6.43426 7.99937 6.36916 8.01232 6.30842 8.03748C6.24768 8.06264 6.19249 8.09951 6.146 8.146C6.09951 8.19249 6.06264 8.24768 6.03748 8.30842C6.01232 8.36916 5.99937 8.43426 5.99937 8.5C5.99937 8.56574 6.01232 8.63084 6.03748 8.69158C6.06264 8.75232 6.09951 8.80751 6.146 8.854L7.293 10L6.146 11.146C6.05211 11.2399 5.99937 11.3672 5.99937 11.5C5.99937 11.6328 6.05211 11.7601 6.146 11.854C6.23989 11.9479 6.36722 12.0006 6.5 12.0006C6.63278 12.0006 6.76011 11.9479 6.854 11.854L8 10.707L9.146 11.854C9.23989 11.9479 9.36722 12.0006 9.5 12.0006C9.63278 12.0006 9.76011 11.9479 9.854 11.854C9.94789 11.7601 10.0006 11.6328 10.0006 11.5C10.0006 11.3672 9.94789 11.2399 9.854 11.146L8.707 10L9.854 8.854C9.94789 8.76011 10.0006 8.63278 10.0006 8.5C10.0006 8.36722 9.94789 8.23989 9.854 8.146C9.76011 8.05211 9.63278 7.99937 9.5 7.99937C9.36722 7.99937 9.23989 8.05211 9.146 8.146L8 9.293L6.854 8.146Z"/></svg>