<svg width="24" height="24" viewBox="0 0 24 24" xmlns="http://www.w3.org/2000/svg" fill='currentColor'><path fill-rule="evenodd" clip-rule="evenodd" d="M19.285 16.587C18.075 15.697 17.465 15.247 17.465 15.247C17.465 15.247 17.785 14.657 18.425 13.467C18.805 12.877 19.645 12.877 20.025 13.467L20.835 14.727C21.025 15.027 21.045 15.407 20.895 15.727L20.675 16.197C20.425 16.737 19.765 16.917 19.285 16.587ZM4.725 16.587C4.245 16.917 3.595 16.737 3.335 16.207L3.105 15.737C2.955 15.417 2.975 15.037 3.165 14.737L3.975 13.477C4.355 12.887 5.195 12.887 5.575 13.477C6.225 14.657 6.545 15.247 6.545 15.247C6.545 15.247 5.935 15.697 4.725 16.587ZM15.365 9.61701C15.455 8.93701 16.095 8.55701 16.635 8.86701L18.225 9.76701C18.685 10.027 18.855 10.677 18.585 11.177L16.505 15.247H14.705L15.365 9.61701ZM8.635 9.61701L9.305 15.247H7.505L5.415 11.167C5.145 10.667 5.315 10.017 5.775 9.75701L7.365 8.85701C7.895 8.55701 8.545 8.93701 8.635 9.61701ZM13.805 15.247H10.205L9.465 8.36701C9.395 7.77701 9.815 7.24701 10.345 7.24701H13.645C14.175 7.24701 14.585 7.77701 14.525 8.36701L13.805 15.247Z"/></svg>