<svg width="16" height="16" viewBox="0 0 16 16" xmlns="http://www.w3.org/2000/svg" fill='currentColor'><g clip-path="url(#clip0_104_589)"><path d="M8 0.949997L14.61 4H15.5C15.6326 4 15.7598 4.05268 15.8536 4.14644C15.9473 4.24021 16 4.36739 16 4.5V6.5C16 6.63261 15.9473 6.75978 15.8536 6.85355C15.7598 6.94732 15.6326 7 15.5 7H15V14C15.1115 14 15.2199 14.0373 15.3077 14.106C15.3956 14.1747 15.458 14.2708 15.485 14.379L15.985 16.379C16.0034 16.4527 16.0047 16.5296 15.9889 16.6039C15.9732 16.6782 15.9407 16.7479 15.8939 16.8078C15.8472 16.8676 15.7874 16.916 15.7191 16.9493C15.6509 16.9827 15.5759 17 15.5 17H0.5C0.424051 17 0.349105 16.9827 0.28085 16.9493C0.212596 16.916 0.152826 16.8676 0.106078 16.8078C0.0593298 16.7479 0.0268319 16.6782 0.0110509 16.6039C-0.00473016 16.5296 -0.00337962 16.4527 0.015 16.379L0.515 14.379C0.541991 14.2708 0.604388 14.1747 0.692269 14.106C0.78015 14.0373 0.888469 14 1 14V7H0.5C0.367392 7 0.240215 6.94732 0.146447 6.85355C0.0526784 6.75978 0 6.63261 0 6.5V4.5C0 4.36739 0.0526784 4.24021 0.146447 4.14644C0.240215 4.05268 0.367392 4 0.5 4H1.39L8 0.949997ZM3.776 4H12.223L8 2.05L3.776 4ZM2 7V14H3V7H2ZM4 7V14H6.5V7H4ZM7.5 7V14H8.5V7H7.5ZM9.5 7V14H12V7H9.5ZM13 7V14H14V7H13ZM15 6V5H1V6H15ZM14.61 15H1.39L1.14 16H14.86L14.61 15Z"/></g><defs><clipPath id="clip0_104_589"><rect width="16" height="16"/></clipPath></defs></svg>