<svg width="16" height="16" viewBox="0 0 16 16" xmlns="http://www.w3.org/2000/svg" fill='currentColor'><g clip-path="url(#clip0_104_591)"><path d="M8.277 0.0839858C8.19494 0.0293785 8.09857 0.000244141 8 0.000244141C7.90143 0.000244141 7.80506 0.0293785 7.723 0.0839858L0.223 5.08399C0.133747 5.1435 0.0660011 5.23014 0.0297692 5.33111C-0.00646277 5.43208 -0.00925954 5.54203 0.021792 5.64471C0.0528435 5.7474 0.116097 5.83737 0.202209 5.90135C0.28832 5.96532 0.392725 5.9999 0.5 5.99999H2.375V13H1.5C1.36739 13 1.24021 13.0527 1.14645 13.1464C1.05268 13.2402 1 13.3674 1 13.5C1 13.6326 1.05268 13.7598 1.14645 13.8535C1.24021 13.9473 1.36739 14 1.5 14H14.5C14.6326 14 14.7598 13.9473 14.8536 13.8535C14.9473 13.7598 15 13.6326 15 13.5C15 13.3674 14.9473 13.2402 14.8536 13.1464C14.7598 13.0527 14.6326 13 14.5 13H13.625V5.99999H15.5C15.6073 5.9999 15.7117 5.96532 15.7978 5.90135C15.8839 5.83737 15.9472 5.7474 15.9782 5.64471C16.0093 5.54203 16.0065 5.43208 15.9702 5.33111C15.934 5.23014 15.8663 5.1435 15.777 5.08399L8.277 0.0839858ZM12.375 5.99999V13H11.125V5.99999H12.375ZM9.875 5.99999V13H8.625V5.99999H9.875ZM7.375 5.99999V13H6.125V5.99999H7.375ZM4.875 5.99999V13H3.625V5.99999H4.875ZM8 3.99999C7.73478 3.99999 7.48043 3.89463 7.29289 3.70709C7.10536 3.51956 7 3.2652 7 2.99999C7 2.73477 7.10536 2.48042 7.29289 2.29288C7.48043 2.10534 7.73478 1.99999 8 1.99999C8.26522 1.99999 8.51957 2.10534 8.70711 2.29288C8.89464 2.48042 9 2.73477 9 2.99999C9 3.2652 8.89464 3.51956 8.70711 3.70709C8.51957 3.89463 8.26522 3.99999 8 3.99999ZM0.5 15C0.367392 15 0.240215 15.0527 0.146447 15.1464C0.0526784 15.2402 0 15.3674 0 15.5C0 15.6326 0.0526784 15.7598 0.146447 15.8535C0.240215 15.9473 0.367392 16 0.5 16H15.5C15.6326 16 15.7598 15.9473 15.8536 15.8535C15.9473 15.7598 16 15.6326 16 15.5C16 15.3674 15.9473 15.2402 15.8536 15.1464C15.7598 15.0527 15.6326 15 15.5 15H0.5Z"/></g><defs><clipPath id="clip0_104_591"><rect width="16" height="16"/></clipPath></defs></svg>