<svg width="16" height="16" viewBox="0 0 16 16" xmlns="http://www.w3.org/2000/svg" fill='currentColor'><g clip-path="url(#clip0_104_591)"><path d="M8.277 0.0840011C8.19494 0.0293937 8.09857 0.000259399 8 0.000259399C7.90143 0.000259399 7.80506 0.0293937 7.723 0.0840011L0.223 5.084C0.133747 5.14351 0.0660011 5.23016 0.0297692 5.33113C-0.00646277 5.4321 -0.00925954 5.54205 0.021792 5.64473C0.0528435 5.74741 0.116097 5.83739 0.202209 5.90136C0.28832 5.96533 0.392725 5.99992 0.5 6H2.375V13H1.5C1.36739 13 1.24021 13.0527 1.14645 13.1464C1.05268 13.2402 1 13.3674 1 13.5C1 13.6326 1.05268 13.7598 1.14645 13.8536C1.24021 13.9473 1.36739 14 1.5 14H14.5C14.6326 14 14.7598 13.9473 14.8536 13.8536C14.9473 13.7598 15 13.6326 15 13.5C15 13.3674 14.9473 13.2402 14.8536 13.1464C14.7598 13.0527 14.6326 13 14.5 13H13.625V6H15.5C15.6073 5.99992 15.7117 5.96533 15.7978 5.90136C15.8839 5.83739 15.9472 5.74741 15.9782 5.64473C16.0093 5.54205 16.0065 5.4321 15.9702 5.33113C15.934 5.23016 15.8663 5.14351 15.777 5.084L8.277 0.0840011ZM12.375 6V13H11.125V6H12.375ZM9.875 6V13H8.625V6H9.875ZM7.375 6V13H6.125V6H7.375ZM4.875 6V13H3.625V6H4.875ZM8 4C7.73478 4 7.48043 3.89464 7.29289 3.70711C7.10536 3.51957 7 3.26522 7 3C7 2.73478 7.10536 2.48043 7.29289 2.29289C7.48043 2.10536 7.73478 2 8 2C8.26522 2 8.51957 2.10536 8.70711 2.29289C8.89464 2.48043 9 2.73478 9 3C9 3.26522 8.89464 3.51957 8.70711 3.70711C8.51957 3.89464 8.26522 4 8 4ZM0.5 15C0.367392 15 0.240215 15.0527 0.146447 15.1464C0.0526784 15.2402 0 15.3674 0 15.5C0 15.6326 0.0526784 15.7598 0.146447 15.8536C0.240215 15.9473 0.367392 16 0.5 16H15.5C15.6326 16 15.7598 15.9473 15.8536 15.8536C15.9473 15.7598 16 15.6326 16 15.5C16 15.3674 15.9473 15.2402 15.8536 15.1464C15.7598 15.0527 15.6326 15 15.5 15H0.5Z"/></g><defs><clipPath id="clip0_104_591"><rect width="16" height="16"/></clipPath></defs></svg>