<svg width="16" height="16" viewBox="0 0 16 16" fill="none" xmlns="http://www.w3.org/2000/svg">
<path d="M11 2C11 1.73478 11.1054 1.48043 11.2929 1.29289C11.4804 1.10536 11.7348 1 12 1H14C14.2652 1 14.5196 1.10536 14.7071 1.29289C14.8946 1.48043 15 1.73478 15 2V14H15.5C15.6326 14 15.7598 14.0527 15.8536 14.1464C15.9473 14.2402 16 14.3674 16 14.5C16 14.6326 15.9473 14.7598 15.8536 14.8536C15.7598 14.9473 15.6326 15 15.5 15H0.5C0.367392 15 0.240215 14.9473 0.146447 14.8536C0.0526784 14.7598 0 14.6326 0 14.5C0 14.3674 0.0526784 14.2402 0.146447 14.1464C0.240215 14.0527 0.367392 14 0.5 14H1V11C1 10.7348 1.10536 10.4804 1.29289 10.2929C1.48043 10.1054 1.73478 10 2 10H4C4.26522 10 4.51957 10.1054 4.70711 10.2929C4.89464 10.4804 5 10.7348 5 11V14H6V7C6 6.73478 6.10536 6.48043 6.29289 6.29289C6.48043 6.10536 6.73478 6 7 6H9C9.26522 6 9.51957 6.10536 9.70711 6.29289C9.89464 6.48043 10 6.73478 10 7V14H11V2Z" fill="black"/>
</svg>
