<svg width="16" height="16" viewBox="0 0 16 16" xmlns="http://www.w3.org/2000/svg" fill='currentColor'><g clip-path="url(#clip0_104_601)"><path d="M0.5 0C0.632608 0 0.759785 0.0526784 0.853553 0.146447C0.947322 0.240215 1 0.367392 1 0.5V15.5C1 15.6326 0.947322 15.7598 0.853553 15.8536C0.759785 15.9473 0.632608 16 0.5 16C0.367392 16 0.240215 15.9473 0.146447 15.8536C0.0526784 15.7598 0 15.6326 0 15.5V0.5C0 0.367392 0.0526784 0.240215 0.146447 0.146447C0.240215 0.0526784 0.367392 0 0.5 0V0ZM2 1.5C2 1.36739 2.05268 1.24021 2.14645 1.14645C2.24021 1.05268 2.36739 1 2.5 1H6.5C6.63261 1 6.75979 1.05268 6.85355 1.14645C6.94732 1.24021 7 1.36739 7 1.5V2.5C7 2.63261 6.94732 2.75979 6.85355 2.85355C6.75979 2.94732 6.63261 3 6.5 3H2.5C2.36739 3 2.24021 2.94732 2.14645 2.85355C2.05268 2.75979 2 2.63261 2 2.5V1.5ZM4 5.5C4 5.36739 4.05268 5.24021 4.14645 5.14645C4.24021 5.05268 4.36739 5 4.5 5H11.5C11.6326 5 11.7598 5.05268 11.8536 5.14645C11.9473 5.24021 12 5.36739 12 5.5V6.5C12 6.63261 11.9473 6.75979 11.8536 6.85355C11.7598 6.94732 11.6326 7 11.5 7H4.5C4.36739 7 4.24021 6.94732 4.14645 6.85355C4.05268 6.75979 4 6.63261 4 6.5V5.5ZM6 9.5C6 9.36739 6.05268 9.24021 6.14645 9.14645C6.24021 9.05268 6.36739 9 6.5 9H12.5C12.6326 9 12.7598 9.05268 12.8536 9.14645C12.9473 9.24021 13 9.36739 13 9.5V10.5C13 10.6326 12.9473 10.7598 12.8536 10.8536C12.7598 10.9473 12.6326 11 12.5 11H6.5C6.36739 11 6.24021 10.9473 6.14645 10.8536C6.05268 10.7598 6 10.6326 6 10.5V9.5ZM8 13.5C8 13.3674 8.05268 13.2402 8.14645 13.1464C8.24021 13.0527 8.36739 13 8.5 13H15.5C15.6326 13 15.7598 13.0527 15.8536 13.1464C15.9473 13.2402 16 13.3674 16 13.5V14.5C16 14.6326 15.9473 14.7598 15.8536 14.8536C15.7598 14.9473 15.6326 15 15.5 15H8.5C8.36739 15 8.24021 14.9473 8.14645 14.8536C8.05268 14.7598 8 14.6326 8 14.5V13.5Z"/></g><defs><clipPath id="clip0_104_601"><rect width="16" height="16"/></clipPath></defs></svg>