<svg width="16" height="16" viewBox="0 0 16 16" fill="none" xmlns="http://www.w3.org/2000/svg">
<path d="M5.757 1.071C5.81335 1.10474 5.86249 1.14925 5.90163 1.20199C5.94077 1.25473 5.96914 1.31467 5.98511 1.37837C6.00108 1.44207 6.00435 1.5083 5.99472 1.57327C5.98509 1.63823 5.96276 1.70067 5.929 1.757L3.383 6H12.617L10.07 1.757C10.0018 1.64322 9.98167 1.50703 10.0139 1.37838C10.0462 1.24973 10.1282 1.13916 10.242 1.071C10.3558 1.00284 10.492 0.98267 10.6206 1.01493C10.7493 1.04718 10.8598 1.12922 10.928 1.243L13.783 6H15C15.2652 6 15.5196 6.10536 15.7071 6.29289C15.8946 6.48043 16 6.73479 16 7V8C16 8.26522 15.8946 8.51957 15.7071 8.70711C15.5196 8.89464 15.2652 9 15 9V13.5C15 14.163 14.7366 14.7989 14.2678 15.2678C13.7989 15.7366 13.163 16 12.5 16H3.5C2.83696 16 2.20107 15.7366 1.73223 15.2678C1.26339 14.7989 1 14.163 1 13.5V9C0.734784 9 0.48043 8.89464 0.292893 8.70711C0.105357 8.51957 0 8.26522 0 8V7C0 6.73479 0.105357 6.48043 0.292893 6.29289C0.48043 6.10536 0.734784 6 1 6H2.217L5.07 1.243C5.10374 1.18666 5.14825 1.13751 5.20099 1.09837C5.25373 1.05923 5.31366 1.03086 5.37737 1.01489C5.44107 0.998917 5.5073 0.995652 5.57227 1.00528C5.63723 1.01491 5.69967 1.03724 5.756 1.071H5.757ZM2 9V13.5C2 13.8978 2.15804 14.2794 2.43934 14.5607C2.72064 14.842 3.10218 15 3.5 15H12.5C12.8978 15 13.2794 14.842 13.5607 14.5607C13.842 14.2794 14 13.8978 14 13.5V9H2ZM1 7V8H15V7H1ZM4 10C4.13261 10 4.25979 10.0527 4.35355 10.1464C4.44732 10.2402 4.5 10.3674 4.5 10.5V13.5C4.5 13.6326 4.44732 13.7598 4.35355 13.8536C4.25979 13.9473 4.13261 14 4 14C3.86739 14 3.74021 13.9473 3.64645 13.8536C3.55268 13.7598 3.5 13.6326 3.5 13.5V10.5C3.5 10.3674 3.55268 10.2402 3.64645 10.1464C3.74021 10.0527 3.86739 10 4 10ZM6 10C6.13261 10 6.25979 10.0527 6.35355 10.1464C6.44732 10.2402 6.5 10.3674 6.5 10.5V13.5C6.5 13.6326 6.44732 13.7598 6.35355 13.8536C6.25979 13.9473 6.13261 14 6 14C5.86739 14 5.74021 13.9473 5.64645 13.8536C5.55268 13.7598 5.5 13.6326 5.5 13.5V10.5C5.5 10.3674 5.55268 10.2402 5.64645 10.1464C5.74021 10.0527 5.86739 10 6 10ZM8 10C8.13261 10 8.25979 10.0527 8.35355 10.1464C8.44732 10.2402 8.5 10.3674 8.5 10.5V13.5C8.5 13.6326 8.44732 13.7598 8.35355 13.8536C8.25979 13.9473 8.13261 14 8 14C7.86739 14 7.74021 13.9473 7.64645 13.8536C7.55268 13.7598 7.5 13.6326 7.5 13.5V10.5C7.5 10.3674 7.55268 10.2402 7.64645 10.1464C7.74021 10.0527 7.86739 10 8 10ZM10 10C10.1326 10 10.2598 10.0527 10.3536 10.1464C10.4473 10.2402 10.5 10.3674 10.5 10.5V13.5C10.5 13.6326 10.4473 13.7598 10.3536 13.8536C10.2598 13.9473 10.1326 14 10 14C9.86739 14 9.74021 13.9473 9.64645 13.8536C9.55268 13.7598 9.5 13.6326 9.5 13.5V10.5C9.5 10.3674 9.55268 10.2402 9.64645 10.1464C9.74021 10.0527 9.86739 10 10 10ZM12 10C12.1326 10 12.2598 10.0527 12.3536 10.1464C12.4473 10.2402 12.5 10.3674 12.5 10.5V13.5C12.5 13.6326 12.4473 13.7598 12.3536 13.8536C12.2598 13.9473 12.1326 14 12 14C11.8674 14 11.7402 13.9473 11.6464 13.8536C11.5527 13.7598 11.5 13.6326 11.5 13.5V10.5C11.5 10.3674 11.5527 10.2402 11.6464 10.1464C11.7402 10.0527 11.8674 10 12 10Z" fill="black"/>
</svg>
