<svg width="16" height="16" viewBox="0 0 16 16" fill="none" xmlns="http://www.w3.org/2000/svg">
<g clip-path="url(#clip0_104_610)">
<path d="M5.757 1.071C5.81335 1.10474 5.86249 1.14925 5.90163 1.20199C5.94077 1.25473 5.96914 1.31467 5.98511 1.37837C6.00108 1.44207 6.00435 1.5083 5.99472 1.57327C5.98509 1.63823 5.96276 1.70067 5.929 1.757L3.383 6H12.617L10.07 1.757C10.0018 1.64322 9.98167 1.50703 10.0139 1.37838C10.0462 1.24973 10.1282 1.13916 10.242 1.071C10.3558 1.00284 10.492 0.98267 10.6206 1.01493C10.7493 1.04718 10.8598 1.12922 10.928 1.243L13.783 6H15.5C15.6326 6 15.7598 6.05268 15.8536 6.14645C15.9473 6.24022 16 6.36739 16 6.5V7.5C16 7.63261 15.9473 7.75979 15.8536 7.85355C15.7598 7.94732 15.6326 8 15.5 8H0.5C0.367392 8 0.240215 7.94732 0.146447 7.85355C0.0526784 7.75979 0 7.63261 0 7.5V6.5C0 6.36739 0.0526784 6.24022 0.146447 6.14645C0.240215 6.05268 0.367392 6 0.5 6H2.217L5.07 1.243C5.10374 1.18666 5.14825 1.13751 5.20099 1.09837C5.25373 1.05923 5.31366 1.03086 5.37737 1.01489C5.44107 0.998917 5.5073 0.995652 5.57227 1.00528C5.63723 1.01491 5.69967 1.03724 5.756 1.071H5.757ZM3.394 15L1.914 9H0.944L2.469 15.426C2.50849 15.5896 2.60186 15.7352 2.73408 15.8393C2.86631 15.9434 3.02971 16 3.198 16H12.804C12.9725 16.0002 13.1361 15.9437 13.2685 15.8396C13.401 15.7354 13.4945 15.5898 13.534 15.426L15.056 9H14.084L12.605 15H3.395H3.394Z" fill="black"/>
</g>
<defs>
<clipPath id="clip0_104_610">
<rect width="16" height="16" fill="white"/>
</clipPath>
</defs>
</svg>
