<svg width="16" height="16" viewBox="0 0 16 16" xmlns="http://www.w3.org/2000/svg" fill='currentColor'><path d="M4 10C4 9.73478 4.10536 9.48043 4.29289 9.29289C4.48043 9.10536 4.73478 9 5 9C5.26522 9 5.51957 9.10536 5.70711 9.29289C5.89464 9.48043 6 9.73478 6 10V12C6 12.2652 5.89464 12.5196 5.70711 12.7071C5.51957 12.8946 5.26522 13 5 13C4.73478 13 4.48043 12.8946 4.29289 12.7071C4.10536 12.5196 4 12.2652 4 12V10ZM7 10C7 9.73478 7.10536 9.48043 7.29289 9.29289C7.48043 9.10536 7.73478 9 8 9C8.26522 9 8.51957 9.10536 8.70711 9.29289C8.89464 9.48043 9 9.73478 9 10V12C9 12.2652 8.89464 12.5196 8.70711 12.7071C8.51957 12.8946 8.26522 13 8 13C7.73478 13 7.48043 12.8946 7.29289 12.7071C7.10536 12.5196 7 12.2652 7 12V10ZM10 10C10 9.73478 10.1054 9.48043 10.2929 9.29289C10.4804 9.10536 10.7348 9 11 9C11.2652 9 11.5196 9.10536 11.7071 9.29289C11.8946 9.48043 12 9.73478 12 10V12C12 12.2652 11.8946 12.5196 11.7071 12.7071C11.5196 12.8946 11.2652 13 11 13C10.7348 13 10.4804 12.8946 10.2929 12.7071C10.1054 12.5196 10 12.2652 10 12V10Z"/><path d="M5.757 1.071C5.81335 1.10474 5.86249 1.14925 5.90163 1.20199C5.94077 1.25473 5.96914 1.31467 5.98511 1.37837C6.00108 1.44207 6.00435 1.5083 5.99472 1.57327C5.98509 1.63823 5.96276 1.70067 5.929 1.757L3.383 6H12.617L10.07 1.757C10.0018 1.64322 9.98167 1.50703 10.0139 1.37838C10.0462 1.24973 10.1282 1.13916 10.242 1.071C10.3558 1.00284 10.492 0.98267 10.6206 1.01493C10.7493 1.04718 10.8598 1.12922 10.928 1.243L13.783 6H15.5C15.6326 6 15.7598 6.05268 15.8536 6.14645C15.9473 6.24022 16 6.36739 16 6.5V7.5C16 7.63261 15.9473 7.75979 15.8536 7.85355C15.7598 7.94732 15.6326 8 15.5 8H14.877L13.033 14.456C12.9882 14.6129 12.8935 14.7508 12.7632 14.849C12.6329 14.9472 12.4741 15.0002 12.311 15H3.69C3.52687 15.0002 3.36812 14.9472 3.23783 14.849C3.10754 14.7508 3.01281 14.6129 2.968 14.456L1.123 8H0.5C0.367392 8 0.240215 7.94732 0.146447 7.85355C0.0526784 7.75979 0 7.63261 0 7.5V6.5C0 6.36739 0.0526784 6.24022 0.146447 6.14645C0.240215 6.05268 0.367392 6 0.5 6H2.217L5.07 1.243C5.10374 1.18666 5.14825 1.13751 5.20099 1.09837C5.25373 1.05923 5.31366 1.03086 5.37737 1.01489C5.44107 0.998917 5.5073 0.995652 5.57227 1.00528C5.63723 1.01491 5.69967 1.03724 5.756 1.071H5.757ZM2.163 8L3.877 14H12.123L13.837 8H2.163Z"/></svg>