<svg width="16" height="16" viewBox="0 0 16 16" fill="none" xmlns="http://www.w3.org/2000/svg">
<g clip-path="url(#clip0_104_608)">
<path d="M5.929 1.757C5.96275 1.70066 5.98507 1.63823 5.99469 1.57326C6.00432 1.5083 6.00105 1.44208 5.98508 1.37838C5.9691 1.31468 5.94074 1.25474 5.90161 1.202C5.86248 1.14926 5.81334 1.10475 5.757 1.071C5.70066 1.03725 5.63823 1.01493 5.57327 1.0053C5.5083 0.995683 5.44208 0.998952 5.37838 1.01492C5.31468 1.03089 5.25475 1.05926 5.20201 1.09839C5.14927 1.13752 5.10475 1.18666 5.071 1.243L2.217 6H0.5C0.367392 6 0.240215 6.05268 0.146447 6.14645C0.0526784 6.24021 0 6.36739 0 6.5L0 7.5C0 7.63261 0.0526784 7.75978 0.146447 7.85355C0.240215 7.94732 0.367392 8 0.5 8H1.123L2.967 14.456C3.01185 14.613 3.10673 14.7511 3.23723 14.8493C3.36772 14.9475 3.52669 15.0004 3.69 15H12.312C12.4751 15.0002 12.6339 14.9472 12.7642 14.849C12.8945 14.7508 12.9892 14.6129 13.034 14.456L14.877 8H15.5C15.6326 8 15.7598 7.94732 15.8536 7.85355C15.9473 7.75978 16 7.63261 16 7.5V6.5C16 6.36739 15.9473 6.24021 15.8536 6.14645C15.7598 6.05268 15.6326 6 15.5 6H13.783L10.93 1.243C10.8963 1.18666 10.8517 1.13752 10.799 1.09839C10.7463 1.05926 10.6863 1.03089 10.6226 1.01492C10.5589 0.998952 10.4927 0.995683 10.4277 1.0053C10.3628 1.01493 10.3003 1.03725 10.244 1.071C10.1877 1.10475 10.1385 1.14926 10.0994 1.202C10.0603 1.25474 10.0319 1.31468 10.0159 1.37838C9.99995 1.44208 9.99668 1.5083 10.0063 1.57326C10.0159 1.63823 10.0382 1.70066 10.072 1.757L12.617 6H3.383L5.93 1.757H5.929ZM4 10C4 9.73478 4.10536 9.48043 4.29289 9.29289C4.48043 9.10536 4.73478 9 5 9C5.26522 9 5.51957 9.10536 5.70711 9.29289C5.89464 9.48043 6 9.73478 6 10V12C6 12.2652 5.89464 12.5196 5.70711 12.7071C5.51957 12.8946 5.26522 13 5 13C4.73478 13 4.48043 12.8946 4.29289 12.7071C4.10536 12.5196 4 12.2652 4 12V10ZM7 10C7 9.73478 7.10536 9.48043 7.29289 9.29289C7.48043 9.10536 7.73478 9 8 9C8.26522 9 8.51957 9.10536 8.70711 9.29289C8.89464 9.48043 9 9.73478 9 10V12C9 12.2652 8.89464 12.5196 8.70711 12.7071C8.51957 12.8946 8.26522 13 8 13C7.73478 13 7.48043 12.8946 7.29289 12.7071C7.10536 12.5196 7 12.2652 7 12V10ZM11 9C11.2652 9 11.5196 9.10536 11.7071 9.29289C11.8946 9.48043 12 9.73478 12 10V12C12 12.2652 11.8946 12.5196 11.7071 12.7071C11.5196 12.8946 11.2652 13 11 13C10.7348 13 10.4804 12.8946 10.2929 12.7071C10.1054 12.5196 10 12.2652 10 12V10C10 9.73478 10.1054 9.48043 10.2929 9.29289C10.4804 9.10536 10.7348 9 11 9Z" fill="black"/>
</g>
<defs>
<clipPath id="clip0_104_608">
<rect width="16" height="16" fill="white"/>
</clipPath>
</defs>
</svg>
