<svg width="16" height="16" viewBox="0 0 16 16" xmlns="http://www.w3.org/2000/svg" fill='currentColor'><path d="M9.58502 2.56799C9.68271 2.62488 9.75824 2.7132 9.79928 2.81854C9.84033 2.92387 9.84446 3.04001 9.81102 3.14799L8.67702 6.83199H10.667C10.7647 6.83195 10.8602 6.86051 10.9418 6.91414C11.0234 6.96778 11.0875 7.04413 11.1263 7.13379C11.165 7.22344 11.1766 7.32247 11.1596 7.41865C11.1427 7.51482 11.098 7.60394 11.031 7.67499L5.69702 13.342C5.61961 13.4243 5.5166 13.478 5.40479 13.4942C5.29298 13.5105 5.17895 13.4884 5.08129 13.4316C4.98363 13.3748 4.9081 13.2865 4.86701 13.1813C4.82592 13.076 4.82169 12.96 4.85502 12.852L5.99002 9.16699H4.00002C3.90236 9.16703 3.80683 9.13847 3.72522 9.08484C3.64361 9.03121 3.57949 8.95486 3.54078 8.8652C3.50207 8.77555 3.49046 8.67652 3.50738 8.58034C3.52431 8.48416 3.56902 8.39505 3.63602 8.32399L8.96902 2.65699C9.04639 2.57456 9.14943 2.52077 9.2613 2.50443C9.37318 2.48808 9.48729 2.51014 9.58502 2.56699V2.56799Z"/><path d="M2 4H6.332L5.392 5H2C1.73478 5 1.48043 5.10536 1.29289 5.29289C1.10536 5.48043 1 5.73478 1 6V10C1 10.2652 1.10536 10.5196 1.29289 10.7071C1.48043 10.8946 1.73478 11 2 11H4.38L4.072 12H2C1.46957 12 0.960859 11.7893 0.585786 11.4142C0.210714 11.0391 0 10.5304 0 10V6C0 5.46957 0.210714 4.96086 0.585786 4.58579C0.960859 4.21071 1.46957 4 2 4Z"/><path d="M2 6H4.45L2.908 7.639C2.74887 7.80814 2.63119 8.01193 2.56422 8.23429C2.49725 8.45666 2.48283 8.69154 2.5221 8.92043C2.56136 9.14932 2.65323 9.36597 2.79048 9.55331C2.92773 9.74065 3.1066 9.89356 3.313 10H2V6ZM10.595 4L10.287 5H12C12.2652 5 12.5196 5.10536 12.7071 5.29289C12.8946 5.48043 13 5.73478 13 6V10C13 10.2652 12.8946 10.5196 12.7071 10.7071C12.5196 10.8946 12.2652 11 12 11H9.276L8.334 12H12C12.5304 12 13.0391 11.7893 13.4142 11.4142C13.7893 11.0391 14 10.5304 14 10V6C14 5.46957 13.7893 4.96086 13.4142 4.58579C13.0391 4.21071 12.5304 4 12 4H10.595Z"/><path d="M12 10H10.217L11.759 8.361C11.856 8.258 11.937 8.143 12 8.021V10ZM12 6.646V6H11.354C11.6312 6.14293 11.8571 6.36873 12 6.646ZM16 8C16 8.39782 15.8419 8.77936 15.5606 9.06066C15.2793 9.34196 14.8978 9.5 14.5 9.5V6.5C14.8978 6.5 15.2793 6.65804 15.5606 6.93934C15.8419 7.22064 16 7.60218 16 8Z"/></svg>