<svg width="24" height="24" viewBox="0 0 24 24" xmlns="http://www.w3.org/2000/svg" fill='currentColor'><path d="M13.1279 14.5594L14.5579 13.1294L20.9979 19.5724L19.5709 20.9994L13.1279 14.5594ZM17.4209 8.82937L20.2809 5.96937C16.3309 2.01937 9.9309 2.00937 5.9809 5.94937C9.9109 4.64937 14.2909 5.69937 17.4209 8.82937ZM5.9509 5.97937C2.0109 9.92937 2.0209 16.3294 5.9709 20.2794L8.8309 17.4194C5.7009 14.2894 4.6509 9.90937 5.9509 5.97937ZM5.9709 5.95937L5.9609 5.96937C5.5809 8.97937 7.1309 12.8494 10.2609 15.9894L15.9909 10.2594C12.8609 7.12937 8.9809 5.57937 5.9709 5.95937Z"/></svg>