<svg width="24" height="24" viewBox="0 0 24 24" xmlns="http://www.w3.org/2000/svg" fill='currentColor'><path d="M13.1279 14.5594L14.5579 13.1294L20.9979 19.5724L19.5709 20.9994L13.1279 14.5594ZM17.4209 8.82937L20.2809 5.96937C16.3309 2.01937 9.93088 2.00937 5.98088 5.94937C9.91088 4.64937 14.2909 5.69937 17.4209 8.82937ZM5.95088 5.97937C2.01088 9.92937 2.02088 16.3294 5.97088 20.2794L8.83088 17.4194C5.70088 14.2894 4.65088 9.90937 5.95088 5.97937ZM5.97088 5.95937L5.96088 5.96937C5.58088 8.97937 7.13088 12.8494 10.2609 15.9894L15.9909 10.2594C12.8609 7.12937 8.98088 5.57937 5.97088 5.95937Z"/></svg>