<svg width="24" height="24" viewBox="0 0 24 24" xmlns="http://www.w3.org/2000/svg" fill='currentColor'><path d="M13.1278 14.5594L14.5578 13.1294L20.9978 19.5724L19.5708 20.9994L13.1278 14.5594ZM17.4208 8.82937L20.2808 5.96937C16.3308 2.01937 9.93084 2.00937 5.98084 5.94937C9.91084 4.64937 14.2908 5.69937 17.4208 8.82937ZM5.95084 5.97937C2.01084 9.92937 2.02084 16.3294 5.97084 20.2794L8.83084 17.4194C5.70084 14.2894 4.65084 9.90937 5.95084 5.97937ZM5.97084 5.95937L5.96084 5.96937C5.58084 8.97937 7.13084 12.8494 10.2608 15.9894L15.9908 10.2594C12.8608 7.12937 8.98084 5.57937 5.97084 5.95937Z"/></svg>