<svg width="16" height="16" viewBox="0 0 16 16" fill="none" xmlns="http://www.w3.org/2000/svg">
<g clip-path="url(#clip0_104_637)">
<path d="M5.164 14H15C13.5 13 13 8.098 13 7C13 6.736 12.98 6.477 12.94 6.224L5.164 14ZM11.452 3.383C10.7707 2.73179 9.91876 2.28695 8.995 2.1C9.00895 1.96095 8.99361 1.82052 8.94996 1.68777C8.90631 1.55502 8.83532 1.43289 8.74157 1.32925C8.64782 1.22562 8.53339 1.14279 8.40566 1.0861C8.27793 1.02941 8.13974 1.00012 8 1.00012C7.86025 1.00012 7.72206 1.02941 7.59433 1.0861C7.4666 1.14279 7.35217 1.22562 7.25842 1.32925C7.16467 1.43289 7.09368 1.55502 7.05003 1.68777C7.00638 1.82052 6.99104 1.96095 7.005 2.1C5.87488 2.32986 4.85891 2.94317 4.12908 3.83611C3.39924 4.72904 3.00037 5.84674 3 7C3 7.898 2.665 11.342 1.722 13.113L11.452 3.383ZM10 15C10 15.5304 9.78928 16.0391 9.41421 16.4142C9.03914 16.7893 8.53043 17 8 17C7.46956 17 6.96086 16.7893 6.58578 16.4142C6.21071 16.0391 6 15.5304 6 15H10ZM0.624996 15.625C0.525539 15.7245 0.469666 15.8593 0.469666 16C0.469666 16.1406 0.525539 16.2755 0.624996 16.375C0.724452 16.4745 0.859343 16.5303 0.999996 16.5303C1.14065 16.5303 1.27554 16.4745 1.375 16.375L16.125 1.625C16.1742 1.57575 16.2133 1.51729 16.24 1.45294C16.2666 1.3886 16.2803 1.31964 16.2803 1.25C16.2803 1.18035 16.2666 1.11139 16.24 1.04705C16.2133 0.982704 16.1742 0.924241 16.125 0.874996C16.0757 0.82575 16.0173 0.786686 15.9529 0.760035C15.8886 0.733383 15.8196 0.719666 15.75 0.719666C15.6804 0.719666 15.6114 0.733383 15.547 0.760035C15.4827 0.786686 15.4242 0.82575 15.375 0.874996L0.624996 15.625Z" fill="black"/>
</g>
<defs>
<clipPath id="clip0_104_637">
<rect width="16" height="16" fill="white"/>
</clipPath>
</defs>
</svg>
