<svg width="16" height="16" viewBox="0 0 16 16" fill="none" xmlns="http://www.w3.org/2000/svg">
<g clip-path="url(#clip0_104_635)">
<path d="M5.164 14H15C14.701 13.801 14.443 13.447 14.22 13C13.32 11.2 13 7.88 13 7C13 6.736 12.98 6.477 12.94 6.224L12.002 7.162C12.022 7.87 12.159 9.316 12.459 10.742C12.62 11.509 12.836 12.308 13.122 13H6.164L5.164 14ZM10.745 4.09C10.2029 3.57771 9.52803 3.22779 8.797 3.08L8 2.917L7.203 3.078C6.29879 3.26223 5.48603 3.75328 4.90233 4.46801C4.31863 5.18273 3.99986 6.07721 4 7C4 7.628 3.866 9.19699 3.541 10.742C3.491 10.98 3.436 11.221 3.375 11.46L1.722 13.113C1.742 13.076 1.762 13.039 1.781 13C2.679 11.2 3 7.88 3 7C3 4.58 4.72 2.56 7.005 2.099C6.99104 1.95995 7.00638 1.81952 7.05003 1.68677C7.09368 1.55402 7.16467 1.43189 7.25842 1.32825C7.35217 1.22462 7.4666 1.14179 7.59433 1.0851C7.72206 1.02841 7.86025 0.999121 8 0.999121C8.13974 0.999121 8.27793 1.02841 8.40566 1.0851C8.53339 1.14179 8.64782 1.22462 8.74157 1.32825C8.83532 1.43189 8.90631 1.55402 8.94996 1.68677C8.99361 1.81952 9.00895 1.95995 8.995 2.099C9.937 2.289 10.783 2.744 11.452 3.383L10.745 4.09ZM10 15C10 15.5304 9.78928 16.0391 9.41421 16.4142C9.03914 16.7893 8.53043 17 8 17C7.46956 17 6.96086 16.7893 6.58578 16.4142C6.21071 16.0391 6 15.5304 6 15H10ZM0.624996 15.625C0.525539 15.7245 0.469666 15.8593 0.469666 16C0.469666 16.1406 0.525539 16.2755 0.624996 16.375C0.724452 16.4745 0.859343 16.5303 0.999996 16.5303C1.14065 16.5303 1.27554 16.4745 1.375 16.375L16.125 1.625C16.1742 1.57575 16.2133 1.51729 16.24 1.45294C16.2666 1.3886 16.2803 1.31964 16.2803 1.25C16.2803 1.18035 16.2666 1.11139 16.24 1.04705C16.2133 0.982704 16.1742 0.924241 16.125 0.874996C16.0757 0.82575 16.0173 0.786686 15.9529 0.760035C15.8886 0.733383 15.8196 0.719666 15.75 0.719666C15.6804 0.719666 15.6114 0.733383 15.547 0.760035C15.4827 0.786686 15.4242 0.82575 15.375 0.874996L0.624996 15.625Z" fill="black"/>
</g>
<defs>
<clipPath id="clip0_104_635">
<rect width="16" height="16" fill="white"/>
</clipPath>
</defs>
</svg>
