<svg width="16" height="16" viewBox="0 0 16 16" fill="none" xmlns="http://www.w3.org/2000/svg">
<g clip-path="url(#clip0_104_633)">
<path d="M8 16C8.53043 16 9.03914 15.7893 9.41421 15.4142C9.78929 15.0391 10 14.5304 10 14H6C6 14.5304 6.21071 15.0391 6.58579 15.4142C6.96086 15.7893 7.46957 16 8 16ZM8.995 1.09901C9.00896 0.959959 8.99362 0.819531 8.94997 0.686778C8.90632 0.554025 8.83533 0.431895 8.74158 0.328263C8.64783 0.224632 8.5334 0.1418 8.40567 0.0851097C8.27794 0.0284197 8.13974 -0.000869751 8 -0.000869751C7.86026 -0.000869751 7.72206 0.0284197 7.59433 0.0851097C7.4666 0.1418 7.35217 0.224632 7.25842 0.328263C7.16467 0.431895 7.09368 0.554025 7.05003 0.686778C7.00638 0.819531 6.99104 0.959959 7.005 1.09901C5.87472 1.32891 4.85862 1.94237 4.12876 2.83551C3.39891 3.72865 3.00015 4.84658 3 6.00001C3 7.09801 2.5 12 1 13H15C13.5 12 13 7.09801 13 6.00001C13 3.58001 11.28 1.56001 8.995 1.09901Z" fill="black"/>
</g>
<defs>
<clipPath id="clip0_104_633">
<rect width="16" height="16" fill="white"/>
</clipPath>
</defs>
</svg>
