<svg width="16" height="16" viewBox="0 0 16 16" fill="none" xmlns="http://www.w3.org/2000/svg">
<g clip-path="url(#clip0_104_631)">
<path d="M8 16C8.53043 16 9.03914 15.7893 9.41421 15.4142C9.78929 15.0391 10 14.5304 10 14H6C6 14.5304 6.21071 15.0391 6.58579 15.4142C6.96086 15.7893 7.46957 16 8 16ZM8 1.91801L7.203 2.07901C6.29896 2.26321 5.48633 2.75411 4.90265 3.46863C4.31897 4.18315 4.0001 5.07739 4 6.00001C4 6.62801 3.866 8.197 3.541 9.742C3.381 10.509 3.165 11.308 2.878 12H13.122C12.835 11.308 12.62 10.51 12.459 9.742C12.134 8.197 12 6.62801 12 6.00001C11.9997 5.07756 11.6807 4.18355 11.097 3.46924C10.5134 2.75493 9.70087 2.26417 8.797 2.08001L8 1.91701V1.91801ZM14.22 12C14.443 12.447 14.701 12.801 15 13H1C1.299 12.801 1.557 12.447 1.78 12C2.68 10.2 3 6.88001 3 6.00001C3 3.58001 4.72 1.56001 7.005 1.09901C6.99104 0.959959 7.00638 0.819531 7.05003 0.686778C7.09368 0.554025 7.16467 0.431895 7.25842 0.328263C7.35217 0.224632 7.4666 0.1418 7.59433 0.0851097C7.72206 0.0284197 7.86026 -0.000869751 8 -0.000869751C8.13974 -0.000869751 8.27794 0.0284197 8.40567 0.0851097C8.5334 0.1418 8.64783 0.224632 8.74158 0.328263C8.83533 0.431895 8.90632 0.554025 8.94997 0.686778C8.99362 0.819531 9.00896 0.959959 8.995 1.09901C10.1253 1.32891 11.1414 1.94237 11.8712 2.83551C12.6011 3.72865 12.9999 4.84658 13 6.00001C13 6.88001 13.32 10.2 14.22 12Z" fill="black"/>
</g>
<defs>
<clipPath id="clip0_104_631">
<rect width="16" height="16" fill="white"/>
</clipPath>
</defs>
</svg>
