<svg width="16" height="16" viewBox="0 0 16 16" xmlns="http://www.w3.org/2000/svg" fill='currentColor'><g clip-path="url(#clip0_104_631)"><path d="M8 16C8.53043 16 9.03914 15.7893 9.41421 15.4142C9.78929 15.0391 10 14.5304 10 14H6C6 14.5304 6.21071 15.0391 6.58579 15.4142C6.96086 15.7893 7.46957 16 8 16ZM8 1.91799L7.203 2.07899C6.29896 2.26319 5.48633 2.75409 4.90265 3.46861C4.31897 4.18313 4.0001 5.07738 4 5.99999C4 6.62799 3.866 8.19699 3.541 9.74199C3.381 10.509 3.165 11.308 2.878 12H13.122C12.835 11.308 12.62 10.51 12.459 9.74199C12.134 8.19699 12 6.62799 12 5.99999C11.9997 5.07755 11.6807 4.18354 11.097 3.46922C10.5134 2.75491 9.70087 2.26416 8.797 2.07999L8 1.91699V1.91799ZM14.22 12C14.443 12.447 14.701 12.801 15 13H1C1.299 12.801 1.557 12.447 1.78 12C2.68 10.2 3 6.87999 3 5.99999C3 3.57999 4.72 1.55999 7.005 1.09899C6.99104 0.959944 7.00638 0.819516 7.05003 0.686763C7.09368 0.55401 7.16467 0.43188 7.25842 0.328248C7.35217 0.224616 7.4666 0.141784 7.59433 0.0850945C7.72206 0.0284045 7.86026 -0.00088501 8 -0.00088501C8.13974 -0.00088501 8.27794 0.0284045 8.40567 0.0850945C8.5334 0.141784 8.64783 0.224616 8.74158 0.328248C8.83533 0.43188 8.90632 0.55401 8.94997 0.686763C8.99362 0.819516 9.00896 0.959944 8.995 1.09899C10.1253 1.32889 11.1414 1.94235 11.8712 2.83549C12.6011 3.72863 12.9999 4.84656 13 5.99999C13 6.87999 13.32 10.2 14.22 12Z"/></g><defs><clipPath id="clip0_104_631"><rect width="16" height="16"/></clipPath></defs></svg>