<svg width="16" height="16" viewBox="0 0 16 16" fill="none" xmlns="http://www.w3.org/2000/svg">
<g clip-path="url(#clip0_104_639)">
<path fill-rule="evenodd" clip-rule="evenodd" d="M0 10.5C0 10.1022 0.158035 9.72064 0.43934 9.43934C0.720644 9.15804 1.10218 9 1.5 9H2.5C2.89782 9 3.27936 9.15804 3.56066 9.43934C3.84196 9.72064 4 10.1022 4 10.5V11.5C4 11.8978 3.84196 12.2794 3.56066 12.5607C3.27936 12.842 2.89782 13 2.5 13H1.5C1.10218 13 0.720644 12.842 0.43934 12.5607C0.158035 12.2794 0 11.8978 0 11.5L0 10.5ZM1.5 10C1.36739 10 1.24021 10.0527 1.14645 10.1464C1.05268 10.2402 1 10.3674 1 10.5V11.5C1 11.6326 1.05268 11.7598 1.14645 11.8536C1.24021 11.9473 1.36739 12 1.5 12H2.5C2.63261 12 2.75979 11.9473 2.85355 11.8536C2.94732 11.7598 3 11.6326 3 11.5V10.5C3 10.3674 2.94732 10.2402 2.85355 10.1464C2.75979 10.0527 2.63261 10 2.5 10H1.5ZM12 10.5C12 10.1022 12.158 9.72064 12.4393 9.43934C12.7206 9.15804 13.1022 9 13.5 9H14.5C14.8978 9 15.2794 9.15804 15.5607 9.43934C15.842 9.72064 16 10.1022 16 10.5V11.5C16 11.8978 15.842 12.2794 15.5607 12.5607C15.2794 12.842 14.8978 13 14.5 13H13.5C13.1022 13 12.7206 12.842 12.4393 12.5607C12.158 12.2794 12 11.8978 12 11.5V10.5ZM13.5 10C13.3674 10 13.2402 10.0527 13.1464 10.1464C13.0527 10.2402 13 10.3674 13 10.5V11.5C13 11.6326 13.0527 11.7598 13.1464 11.8536C13.2402 11.9473 13.3674 12 13.5 12H14.5C14.6326 12 14.7598 11.9473 14.8536 11.8536C14.9473 11.7598 15 11.6326 15 11.5V10.5C15 10.3674 14.9473 10.2402 14.8536 10.1464C14.7598 10.0527 14.6326 10 14.5 10H13.5ZM6 4.5C6 4.10218 6.15804 3.72064 6.43934 3.43934C6.72064 3.15804 7.10218 3 7.5 3H8.5C8.89782 3 9.27936 3.15804 9.56066 3.43934C9.84196 3.72064 10 4.10218 10 4.5V5.5C10 5.89782 9.84196 6.27936 9.56066 6.56066C9.27936 6.84196 8.89782 7 8.5 7H7.5C7.10218 7 6.72064 6.84196 6.43934 6.56066C6.15804 6.27936 6 5.89782 6 5.5V4.5ZM7.5 4C7.36739 4 7.24021 4.05268 7.14645 4.14645C7.05268 4.24021 7 4.36739 7 4.5V5.5C7 5.63261 7.05268 5.75979 7.14645 5.85355C7.24021 5.94732 7.36739 6 7.5 6H8.5C8.63261 6 8.75979 5.94732 8.85355 5.85355C8.94732 5.75979 9 5.63261 9 5.5V4.5C9 4.36739 8.94732 4.24021 8.85355 4.14645C8.75979 4.05268 8.63261 4 8.5 4H7.5Z" fill="black"/>
<path d="M6 4.5H1.866C1.75594 4.30936 1.58604 4.16036 1.38266 4.07612C1.17928 3.99188 0.953791 3.9771 0.741158 4.03407C0.528525 4.09105 0.340633 4.21659 0.206624 4.39124C0.0726146 4.56588 -2.28882e-05 4.77987 -2.28882e-05 5C-2.28882e-05 5.22013 0.0726146 5.43412 0.206624 5.60876C0.340633 5.78341 0.528525 5.90895 0.741158 5.96593C0.953791 6.0229 1.17928 6.00812 1.38266 5.92388C1.58604 5.83964 1.75594 5.69064 1.866 5.5H4.534C3.24623 6.31302 2.28387 7.55136 1.814 9H2.5C2.623 9 2.744 9.015 2.858 9.043C3.13498 8.31794 3.56183 7.65948 4.11066 7.11065C4.65949 6.56183 5.31794 6.13498 6.043 5.858C6.01436 5.74082 5.99992 5.62063 6 5.5V4.5ZM9.957 5.858C9.98568 5.74083 10.0001 5.62063 10 5.5V4.5H14.134C14.2441 4.30936 14.414 4.16036 14.6173 4.07612C14.8207 3.99188 15.0462 3.9771 15.2588 4.03407C15.4715 4.09105 15.6594 4.21659 15.7934 4.39124C15.9274 4.56588 16 4.77987 16 5C16 5.22013 15.9274 5.43412 15.7934 5.60876C15.6594 5.78341 15.4715 5.90895 15.2588 5.96593C15.0462 6.0229 14.8207 6.00812 14.6173 5.92388C14.414 5.83964 14.2441 5.69064 14.134 5.5H11.466C12.7538 6.31302 13.7161 7.55136 14.186 9H13.5C13.377 9 13.257 9.015 13.142 9.043C12.865 8.31794 12.4382 7.65948 11.8893 7.11065C11.3405 6.56183 10.6821 6.13498 9.957 5.858Z" fill="black"/>
</g>
<defs>
<clipPath id="clip0_104_639">
<rect width="16" height="16" fill="white"/>
</clipPath>
</defs>
</svg>
