<svg width="16" height="16" viewBox="0 0 16 16" xmlns="http://www.w3.org/2000/svg" fill='currentColor'><path fill-rule="evenodd" clip-rule="evenodd" d="M1 2.5C1 2.10218 1.15804 1.72064 1.43934 1.43934C1.72064 1.15804 2.10218 1 2.5 1H3.5C3.89782 1 4.27936 1.15804 4.56066 1.43934C4.84196 1.72064 5 2.10218 5 2.5H9.134C9.24407 2.30936 9.41396 2.16036 9.61734 2.07612C9.82072 1.99188 10.0462 1.9771 10.2588 2.03407C10.4715 2.09105 10.6594 2.21659 10.7934 2.39124C10.9274 2.56588 11 2.77987 11 3C11 3.22013 10.9274 3.43412 10.7934 3.60876C10.6594 3.78341 10.4715 3.90895 10.2588 3.96593C10.0462 4.0229 9.82072 4.00812 9.61734 3.92388C9.41396 3.83964 9.24407 3.69064 9.134 3.5H7.124C7.304 3.68 7.464 3.881 7.608 4.105C8.246 5.097 8.5 6.459 8.5 8C8.5 9.993 8.757 11.092 9.213 11.7C9.569 12.176 10.108 12.421 11 12.484C11.0042 12.089 11.1641 11.7115 11.445 11.4337C11.7258 11.1558 12.1049 11 12.5 11H13.5C13.8978 11 14.2794 11.158 14.5607 11.4393C14.842 11.7206 15 12.1022 15 12.5V13.5C15 13.8978 14.842 14.2794 14.5607 14.5607C14.2794 14.842 13.8978 15 13.5 15H12.5C12.1022 15 11.7206 14.842 11.4393 14.5607C11.158 14.2794 11 13.8978 11 13.5H6.866C6.75593 13.6906 6.58604 13.8396 6.38266 13.9239C6.17928 14.0081 5.95379 14.0229 5.74116 13.9659C5.52852 13.909 5.34063 13.7834 5.20662 13.6088C5.07261 13.4341 4.99997 13.2201 4.99997 13C4.99997 12.7799 5.07261 12.5659 5.20662 12.3912C5.34063 12.2166 5.52852 12.091 5.74116 12.0341C5.95379 11.9771 6.17928 11.9919 6.38266 12.0761C6.58604 12.1604 6.75593 12.3094 6.866 12.5H8.577C8.51898 12.4359 8.46393 12.3691 8.412 12.3C7.743 11.407 7.5 10.007 7.5 8C7.5 6.54 7.254 5.403 6.767 4.645C6.377 4.04 5.815 3.645 5 3.533C4.99137 3.92508 4.82954 4.29818 4.54916 4.57239C4.26879 4.8466 3.89217 5.00009 3.5 5H2.5C2.10218 5 1.72064 4.84196 1.43934 4.56066C1.15804 4.27936 1 3.89782 1 3.5V2.5ZM2.5 2C2.36739 2 2.24021 2.05268 2.14645 2.14645C2.05268 2.24021 2 2.36739 2 2.5V3.5C2 3.63261 2.05268 3.75979 2.14645 3.85355C2.24021 3.94732 2.36739 4 2.5 4H3.5C3.63261 4 3.75979 3.94732 3.85355 3.85355C3.94732 3.75979 4 3.63261 4 3.5V2.5C4 2.36739 3.94732 2.24021 3.85355 2.14645C3.75979 2.05268 3.63261 2 3.5 2H2.5ZM12.5 12C12.3674 12 12.2402 12.0527 12.1464 12.1464C12.0527 12.2402 12 12.3674 12 12.5V13.5C12 13.6326 12.0527 13.7598 12.1464 13.8536C12.2402 13.9473 12.3674 14 12.5 14H13.5C13.6326 14 13.7598 13.9473 13.8536 13.8536C13.9473 13.7598 14 13.6326 14 13.5V12.5C14 12.3674 13.9473 12.2402 13.8536 12.1464C13.7598 12.0527 13.6326 12 13.5 12H12.5Z"/></svg>