<svg width="16" height="16" viewBox="0 0 16 16" fill="none" xmlns="http://www.w3.org/2000/svg">
<path d="M4 4.5C4 4.36739 4.05268 4.24021 4.14645 4.14645C4.24021 4.05268 4.36739 4 4.5 4H6C6.13261 4 6.25979 4.05268 6.35355 4.14645C6.44732 4.24021 6.5 4.36739 6.5 4.5C6.5 4.63261 6.44732 4.75979 6.35355 4.85355C6.25979 4.94732 6.13261 5 6 5V5.5H10.14L10.526 4.342C10.5591 4.24248 10.6228 4.1559 10.7078 4.09452C10.7929 4.03315 10.8951 4.00008 11 4H12C12.1326 4 12.2598 4.05268 12.3536 4.14645C12.4473 4.24021 12.5 4.36739 12.5 4.5C12.5 4.63261 12.4473 4.75979 12.3536 4.85355C12.2598 4.94732 12.1326 5 12 5H11.36L11.049 5.935L11.856 7.225C12.5514 6.93821 13.3292 6.92314 14.0352 7.18276C14.7412 7.44238 15.3239 7.95774 15.6678 8.62673C16.0117 9.29572 16.0918 10.0695 15.8921 10.7947C15.6925 11.52 15.2276 12.1437 14.5898 12.5424C13.9519 12.9411 13.1875 13.0856 12.4481 12.9473C11.7087 12.8089 11.0483 12.3979 10.5976 11.7956C10.147 11.1933 9.93911 10.4437 10.0151 9.69529C10.0911 8.94692 10.4455 8.25441 11.008 7.755L10.5 6.943L8.424 10.265C8.37905 10.3369 8.31656 10.3962 8.24238 10.4373C8.16821 10.4784 8.0848 10.5 8 10.5H5.959C5.85529 11.1132 5.56358 11.679 5.12422 12.1192C4.68486 12.5593 4.11957 12.852 3.50656 12.9568C2.89355 13.0616 2.26312 12.9733 1.70249 12.7041C1.14186 12.435 0.678742 11.9982 0.377212 11.4543C0.0756823 10.9104 -0.0493568 10.2862 0.019394 9.66808C0.0881449 9.04999 0.347287 8.46854 0.760969 8.00417C1.17465 7.53981 1.72242 7.21549 2.3285 7.07608C2.93458 6.93666 3.569 6.98906 4.144 7.226L5 5.856V5H4.5C4.36739 5 4.24021 4.94732 4.14645 4.85355C4.05268 4.75979 4 4.63261 4 4.5ZM5.5 6.943L4.992 7.757C5.492 8.201 5.842 8.811 5.959 9.5H7.098L5.5 6.943ZM8 9.057L9.598 6.5H6.402L8 9.057ZM4.937 9.5C4.85193 9.17099 4.68431 8.86914 4.45 8.623L3.902 9.5H4.937ZM3.603 8.092C3.22151 7.97153 2.81266 7.96823 2.42928 8.08254C2.0459 8.19684 1.70561 8.4235 1.45238 8.73321C1.19916 9.04292 1.04463 9.42146 1.00877 9.81991C0.972919 10.2184 1.05738 10.6184 1.25125 10.9683C1.44511 11.3183 1.73947 11.6021 2.09629 11.783C2.4531 11.9639 2.85597 12.0336 3.25284 11.9832C3.6497 11.9328 4.02233 11.7645 4.32256 11.5001C4.62278 11.2357 4.83682 10.8873 4.937 10.5H3C2.91075 10.5 2.82312 10.4761 2.74622 10.4308C2.66932 10.3855 2.60594 10.3204 2.56268 10.2424C2.51941 10.1643 2.49783 10.0761 2.50017 9.98688C2.50251 9.89765 2.5287 9.81069 2.576 9.735L3.603 8.092ZM11.55 8.622C11.2148 8.975 11.0199 9.43813 11.0017 9.92458C10.9836 10.411 11.1435 10.8874 11.4514 11.2644C11.7594 11.6414 12.1943 11.8931 12.6745 11.9724C13.1548 12.0517 13.6475 11.9531 14.0603 11.6951C14.4731 11.4371 14.7777 11.0375 14.9168 10.571C15.056 10.1045 15.0203 9.60331 14.8164 9.16129C14.6125 8.71928 14.2543 8.36682 13.8091 8.16997C13.3639 7.97312 12.8622 7.94539 12.398 8.092L13.424 9.735C13.4588 9.79068 13.4823 9.85267 13.4931 9.91743C13.504 9.98219 13.502 10.0484 13.4872 10.1124C13.4724 10.1764 13.4452 10.2369 13.4071 10.2903C13.369 10.3438 13.3207 10.3892 13.265 10.424C13.2093 10.4588 13.1473 10.4823 13.0826 10.4931C13.0178 10.504 12.9515 10.502 12.8876 10.4872C12.8236 10.4724 12.7631 10.4452 12.7097 10.4071C12.6562 10.369 12.6108 10.3207 12.576 10.265L11.55 8.623V8.622Z" fill="black"/>
</svg>
