<svg width="16" height="16" viewBox="0 0 16 16" fill="none" xmlns="http://www.w3.org/2000/svg">
<path d="M2.5 3C2.36739 3 2.24021 3.05268 2.14645 3.14645C2.05268 3.24021 2 3.36739 2 3.5C2 3.63261 2.05268 3.75979 2.14645 3.85355C2.24021 3.94732 2.36739 4 2.5 4H13.5C13.6326 4 13.7598 3.94732 13.8536 3.85355C13.9473 3.75979 14 3.63261 14 3.5C14 3.36739 13.9473 3.24021 13.8536 3.14645C13.7598 3.05268 13.6326 3 13.5 3H2.5ZM2.5 6C2.36739 6 2.24021 6.05268 2.14645 6.14645C2.05268 6.24021 2 6.36739 2 6.5C2 6.63261 2.05268 6.75979 2.14645 6.85355C2.24021 6.94732 2.36739 7 2.5 7H8.5C8.63261 7 8.75979 6.94732 8.85355 6.85355C8.94732 6.75979 9 6.63261 9 6.5C9 6.36739 8.94732 6.24021 8.85355 6.14645C8.75979 6.05268 8.63261 6 8.5 6H2.5ZM2.5 9C2.36739 9 2.24021 9.05268 2.14645 9.14645C2.05268 9.24021 2 9.36739 2 9.5C2 9.63261 2.05268 9.75979 2.14645 9.85355C2.24021 9.94732 2.36739 10 2.5 10H8.5C8.63261 10 8.75979 9.94732 8.85355 9.85355C8.94732 9.75979 9 9.63261 9 9.5C9 9.36739 8.94732 9.24021 8.85355 9.14645C8.75979 9.05268 8.63261 9 8.5 9H2.5ZM2.5 12C2.36739 12 2.24021 12.0527 2.14645 12.1464C2.05268 12.2402 2 12.3674 2 12.5C2 12.6326 2.05268 12.7598 2.14645 12.8536C2.24021 12.9473 2.36739 13 2.5 13H13.5C13.6326 13 13.7598 12.9473 13.8536 12.8536C13.9473 12.7598 14 12.6326 14 12.5C14 12.3674 13.9473 12.2402 13.8536 12.1464C13.7598 12.0527 13.6326 12 13.5 12H2.5ZM12.613 6.627C12.4684 6.52948 12.3199 6.43774 12.168 6.352L12.378 6C12.5 6.074 12.65 6.17 12.83 6.287C13.01 6.404 13.18 6.547 13.34 6.715C13.496 6.879 13.629 7.066 13.738 7.277C13.848 7.484 13.902 7.715 13.902 7.969C13.902 8.329 13.83 8.619 13.686 8.842C13.541 9.061 13.301 9.17 12.965 9.17C12.75 9.17 12.582 9.1 12.461 8.959C12.3433 8.83321 12.2763 8.66827 12.273 8.496C12.273 8.266 12.343 8.092 12.484 7.975C12.621 7.854 12.81 7.793 13.053 7.793H13.334C13.3186 7.6217 13.2772 7.45375 13.211 7.295C13.1477 7.15876 13.0626 7.03378 12.959 6.925C12.8558 6.81239 12.7397 6.71237 12.613 6.627ZM10.445 6.627C10.3004 6.52948 10.1519 6.43774 10 6.352L10.21 6C10.332 6.074 10.482 6.17 10.662 6.287C10.842 6.404 11.012 6.547 11.172 6.715C11.328 6.879 11.461 7.066 11.57 7.277C11.68 7.484 11.734 7.715 11.734 7.969C11.734 8.329 11.662 8.619 11.518 8.842C11.373 9.061 11.133 9.17 10.797 9.17C10.582 9.17 10.414 9.1 10.293 8.959C10.1753 8.83321 10.1083 8.66827 10.105 8.496C10.105 8.266 10.175 8.092 10.316 7.975C10.453 7.854 10.643 7.793 10.885 7.793H11.166C11.151 7.6242 11.1116 7.45847 11.049 7.301C10.984 7.16278 10.8969 7.03611 10.791 6.926C10.6879 6.81269 10.5718 6.71199 10.445 6.626V6.627Z" fill="black"/>
</svg>
