<svg width="16" height="16" viewBox="0 0 16 16" fill="none" xmlns="http://www.w3.org/2000/svg">
<path d="M2.5 3C2.36739 3 2.24021 3.05268 2.14645 3.14645C2.05268 3.24021 2 3.36739 2 3.5C2 3.63261 2.05268 3.75979 2.14645 3.85355C2.24021 3.94732 2.36739 4 2.5 4H13.5C13.6326 4 13.7598 3.94732 13.8536 3.85355C13.9473 3.75979 14 3.63261 14 3.5C14 3.36739 13.9473 3.24021 13.8536 3.14645C13.7598 3.05268 13.6326 3 13.5 3H2.5ZM7.5 6C7.36739 6 7.24021 6.05268 7.14645 6.14645C7.05268 6.24021 7 6.36739 7 6.5C7 6.63261 7.05268 6.75979 7.14645 6.85355C7.24021 6.94732 7.36739 7 7.5 7H13.5C13.6326 7 13.7598 6.94732 13.8536 6.85355C13.9473 6.75979 14 6.63261 14 6.5C14 6.36739 13.9473 6.24021 13.8536 6.14645C13.7598 6.05268 13.6326 6 13.5 6H7.5ZM7.5 9C7.36739 9 7.24021 9.05268 7.14645 9.14645C7.05268 9.24021 7 9.36739 7 9.5C7 9.63261 7.05268 9.75979 7.14645 9.85355C7.24021 9.94732 7.36739 10 7.5 10H13.5C13.6326 10 13.7598 9.94732 13.8536 9.85355C13.9473 9.75979 14 9.63261 14 9.5C14 9.36739 13.9473 9.24021 13.8536 9.14645C13.7598 9.05268 13.6326 9 13.5 9H7.5ZM2.5 12C2.36739 12 2.24021 12.0527 2.14645 12.1464C2.05268 12.2402 2 12.3674 2 12.5C2 12.6326 2.05268 12.7598 2.14645 12.8536C2.24021 12.9473 2.36739 13 2.5 13H13.5C13.6326 13 13.7598 12.9473 13.8536 12.8536C13.9473 12.7598 14 12.6326 14 12.5C14 12.3674 13.9473 12.2402 13.8536 12.1464C13.7598 12.0527 13.6326 12 13.5 12H2.5ZM3.29 6.627C3.402 6.549 3.55 6.457 3.734 6.352L3.524 6C3.402 6.074 3.252 6.17 3.072 6.287C2.892 6.404 2.722 6.547 2.562 6.715C2.40327 6.88245 2.26926 7.07169 2.164 7.277C2.054 7.484 2 7.715 2 7.969C2 8.329 2.072 8.619 2.217 8.842C2.361 9.061 2.602 9.17 2.937 9.17C3.152 9.17 3.32 9.1 3.441 8.959C3.55874 8.83321 3.62571 8.66827 3.629 8.496C3.629 8.266 3.559 8.092 3.418 7.975C3.281 7.854 3.092 7.793 2.85 7.793H2.568C2.592 7.59 2.633 7.423 2.691 7.295C2.7543 7.15877 2.83942 7.0338 2.943 6.925C3.0462 6.81239 3.16234 6.71237 3.289 6.627H3.29ZM5.457 6.627C5.57 6.549 5.719 6.457 5.902 6.352L5.692 6C5.57 6.074 5.42 6.17 5.24 6.287C5.06 6.404 4.89 6.547 4.73 6.715C4.57127 6.88245 4.43726 7.07169 4.332 7.277C4.222 7.484 4.168 7.715 4.168 7.969C4.168 8.329 4.24 8.619 4.385 8.842C4.529 9.061 4.77 9.17 5.105 9.17C5.32 9.17 5.488 9.1 5.609 8.959C5.72674 8.83321 5.79371 8.66827 5.797 8.496C5.797 8.266 5.727 8.092 5.586 7.975C5.449 7.854 5.26 7.793 5.018 7.793H4.736C4.75129 7.62415 4.79104 7.45842 4.854 7.301C4.912 7.171 4.998 7.047 5.111 6.926C5.21408 6.81269 5.33023 6.71199 5.457 6.626V6.627Z" fill="black"/>
</svg>
