<svg width="16" height="16" viewBox="0 0 16 16" xmlns="http://www.w3.org/2000/svg" fill='currentColor'><g clip-path="url(#clip0_104_684)"><path d="M2 4C2 3.46957 2.21071 2.96086 2.58579 2.58579C2.96086 2.21071 3.46957 2 4 2H10C10.5304 2 11.0391 2.21071 11.4142 2.58579C11.7893 2.96086 12 3.46957 12 4V15.5C12 15.5904 11.9754 15.6792 11.9289 15.7568C11.8824 15.8343 11.8157 15.8979 11.736 15.9405C11.6563 15.9832 11.5664 16.0035 11.4761 15.9992C11.3858 15.9948 11.2983 15.9661 11.223 15.916L7 13.101L2.777 15.916C2.70171 15.9661 2.61423 15.9948 2.52389 15.9992C2.43355 16.0035 2.34373 15.9832 2.264 15.9405C2.18427 15.8979 2.1176 15.8343 2.07111 15.7568C2.02462 15.6792 2.00005 15.5904 2 15.5V4ZM4 3C3.73478 3 3.48043 3.10536 3.29289 3.29289C3.10536 3.48043 3 3.73478 3 4V14.566L6.723 12.084C6.80506 12.0294 6.90143 12.0003 7 12.0003C7.09857 12.0003 7.19494 12.0294 7.277 12.084L11 14.566V4C11 3.73478 10.8946 3.48043 10.7071 3.29289C10.5196 3.10536 10.2652 3 10 3H4Z"/><path d="M4.26801 1H12C12.2652 1 12.5196 1.10536 12.7071 1.29289C12.8946 1.48043 13 1.73478 13 2V13.768L13.223 13.916C13.2983 13.9661 13.3858 13.9948 13.4761 13.9992C13.5665 14.0035 13.6563 13.9832 13.736 13.9405C13.8157 13.8979 13.8824 13.8343 13.9289 13.7568C13.9754 13.6792 14 13.5904 14 13.5V2C14 1.46957 13.7893 0.960859 13.4142 0.585786C13.0391 0.210714 12.5304 0 12 0L6.00001 0C5.64894 8.91844e-06 5.30406 0.0924257 5.00003 0.267962C4.69601 0.443498 4.44354 0.695969 4.26801 1Z"/></g><defs><clipPath id="clip0_104_684"><rect width="16" height="16"/></clipPath></defs></svg>