<svg width="16" height="16" viewBox="0 0 16 16" fill="none" xmlns="http://www.w3.org/2000/svg">
<g clip-path="url(#clip0_104_665)">
<path fill-rule="evenodd" clip-rule="evenodd" d="M2 15.5V2C2 1.46957 2.21071 0.960859 2.58579 0.585786C2.96086 0.210714 3.46957 0 4 0L12 0C12.5304 0 13.0391 0.210714 13.4142 0.585786C13.7893 0.960859 14 1.46957 14 2V15.5C14.0001 15.5868 13.9775 15.6722 13.9346 15.7476C13.8916 15.8231 13.8298 15.8861 13.7551 15.9304C13.6804 15.9747 13.5955 15.9988 13.5087 16.0003C13.4219 16.0018 13.3362 15.9807 13.26 15.939L8 13.069L2.74 15.939C2.66383 15.9807 2.57812 16.0018 2.4913 16.0003C2.40449 15.9988 2.31957 15.9747 2.24489 15.9304C2.17022 15.8861 2.10836 15.8231 2.06542 15.7476C2.02248 15.6722 1.99994 15.5868 2 15.5ZM10.854 5.854C10.9479 5.76011 11.0006 5.63278 11.0006 5.5C11.0006 5.36722 10.9479 5.23989 10.854 5.146C10.7601 5.05211 10.6328 4.99937 10.5 4.99937C10.3672 4.99937 10.2399 5.05211 10.146 5.146L7.5 7.793L6.354 6.646C6.30751 6.59951 6.25232 6.56264 6.19158 6.53748C6.13084 6.51232 6.06574 6.49937 6 6.49937C5.93426 6.49937 5.86916 6.51232 5.80842 6.53748C5.74768 6.56264 5.69249 6.59951 5.646 6.646C5.59951 6.69249 5.56264 6.74768 5.53748 6.80842C5.51232 6.86916 5.49937 6.93426 5.49937 7C5.49937 7.06574 5.51232 7.13084 5.53748 7.19158C5.56264 7.25232 5.59951 7.30751 5.646 7.354L7.146 8.854C7.19245 8.90056 7.24762 8.93751 7.30837 8.96271C7.36911 8.98792 7.43423 9.00089 7.5 9.00089C7.56577 9.00089 7.63089 8.98792 7.69163 8.96271C7.75238 8.93751 7.80755 8.90056 7.854 8.854L10.854 5.854Z" fill="black"/>
</g>
<defs>
<clipPath id="clip0_104_665">
<rect width="16" height="16" fill="white"/>
</clipPath>
</defs>
</svg>
