<svg width="16" height="16" viewBox="0 0 16 16" fill="none" xmlns="http://www.w3.org/2000/svg">
<path d="M2.5 0C2.63261 0 2.75979 0.0526784 2.85355 0.146447C2.94732 0.240215 3 0.367392 3 0.5V2H13V0.5C13 0.367392 13.0527 0.240215 13.1464 0.146447C13.2402 0.0526784 13.3674 0 13.5 0C13.6326 0 13.7598 0.0526784 13.8536 0.146447C13.9473 0.240215 14 0.367392 14 0.5V15.5C14 15.6326 13.9473 15.7598 13.8536 15.8536C13.7598 15.9473 13.6326 16 13.5 16C13.3674 16 13.2402 15.9473 13.1464 15.8536C13.0527 15.7598 13 15.6326 13 15.5V15H3V15.5C3 15.6326 2.94732 15.7598 2.85355 15.8536C2.75979 15.9473 2.63261 16 2.5 16C2.36739 16 2.24021 15.9473 2.14645 15.8536C2.05268 15.7598 2 15.6326 2 15.5V0.5C2 0.367392 2.05268 0.240215 2.14645 0.146447C2.24021 0.0526784 2.36739 0 2.5 0V0ZM3 14H13V11H3V14ZM3 10H13V7H3V10ZM3 6H13V3H3V6Z" fill="black"/>
</svg>
