<svg width="16" height="16" viewBox="0 0 16 16" xmlns="http://www.w3.org/2000/svg" fill='currentColor'><g clip-path="url(#clip0_104_705)"><path d="M6.375 7.125V4.658H8.155C9.128 4.658 9.697 5.115 9.697 5.895C9.697 6.697 9.093 7.125 7.933 7.125H6.375ZM6.375 10.887H8.273C9.457 10.887 10.083 10.407 10.083 9.51C10.083 8.62501 9.433 8.162 8.197 8.162H6.375V10.887Z"/><path d="M4.002 0C2.94113 0 1.92372 0.421427 1.17357 1.17157C0.423426 1.92172 0.0019989 2.93913 0.0019989 4V12C0.0019989 13.0609 0.423426 14.0783 1.17357 14.8284C1.92372 15.5786 2.94113 16 4.002 16H12.002C13.0629 16 14.0803 15.5786 14.8304 14.8284C15.5806 14.0783 16.002 13.0609 16.002 12V4C16.002 2.93913 15.5806 1.92172 14.8304 1.17157C14.0803 0.421427 13.0629 0 12.002 0L4.002 0ZM5.062 12V3.545H8.461C10.048 3.545 11.004 4.354 11.004 5.655C11.004 6.539 10.354 7.33 9.521 7.471V7.571C10.664 7.688 11.425 8.502 11.425 9.604C11.425 11.092 10.341 12 8.537 12H5.062Z"/></g><defs><clipPath id="clip0_104_705"><rect width="16" height="16"/></clipPath></defs></svg>