<svg width="16" height="16" viewBox="0 0 16 16" fill="none" xmlns="http://www.w3.org/2000/svg">
<g clip-path="url(#clip0_104_702)">
<path d="M5.062 12H8.537C10.341 12 11.425 11.092 11.425 9.60401C11.425 8.50201 10.664 7.68801 9.521 7.57001V7.47001C10.353 7.33001 11.003 6.54001 11.003 5.65401C11.003 4.35401 10.048 3.54401 8.461 3.54401H5.062V12ZM6.375 7.12501V4.65801H8.155C9.128 4.65801 9.697 5.11501 9.697 5.89501C9.697 6.69701 9.093 7.12501 7.933 7.12501H6.375ZM6.375 10.887V8.16201H8.197C9.433 8.16201 10.084 8.62501 10.084 9.51001C10.084 10.406 9.457 10.887 8.273 10.887H6.375Z" fill="black"/>
<path d="M0 4C0 2.93913 0.421427 1.92172 1.17157 1.17157C1.92172 0.421427 2.93913 0 4 0L12 0C13.0609 0 14.0783 0.421427 14.8284 1.17157C15.5786 1.92172 16 2.93913 16 4V12C16 13.0609 15.5786 14.0783 14.8284 14.8284C14.0783 15.5786 13.0609 16 12 16H4C2.93913 16 1.92172 15.5786 1.17157 14.8284C0.421427 14.0783 0 13.0609 0 12V4ZM4 1C3.20435 1 2.44129 1.31607 1.87868 1.87868C1.31607 2.44129 1 3.20435 1 4V12C1 12.7956 1.31607 13.5587 1.87868 14.1213C2.44129 14.6839 3.20435 15 4 15H12C12.7956 15 13.5587 14.6839 14.1213 14.1213C14.6839 13.5587 15 12.7956 15 12V4C15 3.20435 14.6839 2.44129 14.1213 1.87868C13.5587 1.31607 12.7956 1 12 1H4Z" fill="black"/>
</g>
<defs>
<clipPath id="clip0_104_702">
<rect width="16" height="16" fill="white"/>
</clipPath>
</defs>
</svg>
