<svg width="16" height="16" viewBox="0 0 16 16" xmlns="http://www.w3.org/2000/svg" fill='currentColor'><path d="M1 3.5C1 3.36739 1.05268 3.24021 1.14645 3.14645C1.24021 3.05268 1.36739 3 1.5 3H14.5C14.6326 3 14.7598 3.05268 14.8536 3.14645C14.9473 3.24021 15 3.36739 15 3.5V4.5C15 4.63261 14.9473 4.75979 14.8536 4.85355C14.7598 4.94732 14.6326 5 14.5 5H1.5C1.36739 5 1.24021 4.94732 1.14645 4.85355C1.05268 4.75979 1 4.63261 1 4.5V3.5ZM1 7.5C1 7.36739 1.05268 7.24021 1.14645 7.14645C1.24021 7.05268 1.36739 7 1.5 7H6.5C6.63261 7 6.75979 7.05268 6.85355 7.14645C6.94732 7.24021 7 7.36739 7 7.5V8.5C7 8.63261 6.94732 8.75979 6.85355 8.85355C6.75979 8.94732 6.63261 9 6.5 9H1.5C1.36739 9 1.24021 8.94732 1.14645 8.85355C1.05268 8.75979 1 8.63261 1 8.5V7.5ZM1 11.5C1 11.3674 1.05268 11.2402 1.14645 11.1464C1.24021 11.0527 1.36739 11 1.5 11H2.5C2.63261 11 2.75979 11.0527 2.85355 11.1464C2.94732 11.2402 3 11.3674 3 11.5V12.5C3 12.6326 2.94732 12.7598 2.85355 12.8536C2.75979 12.9473 2.63261 13 2.5 13H1.5C1.36739 13 1.24021 12.9473 1.14645 12.8536C1.05268 12.7598 1 12.6326 1 12.5V11.5ZM9 11.5C9 11.3674 9.05268 11.2402 9.14645 11.1464C9.24021 11.0527 9.36739 11 9.5 11H10.5C10.6326 11 10.7598 11.0527 10.8536 11.1464C10.9473 11.2402 11 11.3674 11 11.5V12.5C11 12.6326 10.9473 12.7598 10.8536 12.8536C10.7598 12.9473 10.6326 13 10.5 13H9.5C9.36739 13 9.24021 12.9473 9.14645 12.8536C9.05268 12.7598 9 12.6326 9 12.5V11.5ZM5 11.5C5 11.3674 5.05268 11.2402 5.14645 11.1464C5.24021 11.0527 5.36739 11 5.5 11H6.5C6.63261 11 6.75979 11.0527 6.85355 11.1464C6.94732 11.2402 7 11.3674 7 11.5V12.5C7 12.6326 6.94732 12.7598 6.85355 12.8536C6.75979 12.9473 6.63261 13 6.5 13H5.5C5.36739 13 5.24021 12.9473 5.14645 12.8536C5.05268 12.7598 5 12.6326 5 12.5V11.5ZM13 11.5C13 11.3674 13.0527 11.2402 13.1464 11.1464C13.2402 11.0527 13.3674 11 13.5 11H14.5C14.6326 11 14.7598 11.0527 14.8536 11.1464C14.9473 11.2402 15 11.3674 15 11.5V12.5C15 12.6326 14.9473 12.7598 14.8536 12.8536C14.7598 12.9473 14.6326 13 14.5 13H13.5C13.3674 13 13.2402 12.9473 13.1464 12.8536C13.0527 12.7598 13 12.6326 13 12.5V11.5ZM9 7.5C9 7.36739 9.05268 7.24021 9.14645 7.14645C9.24021 7.05268 9.36739 7 9.5 7H14.5C14.6326 7 14.7598 7.05268 14.8536 7.14645C14.9473 7.24021 15 7.36739 15 7.5V8.5C15 8.63261 14.9473 8.75979 14.8536 8.85355C14.7598 8.94732 14.6326 9 14.5 9H9.5C9.36739 9 9.24021 8.94732 9.14645 8.85355C9.05268 8.75979 9 8.63261 9 8.5V7.5Z"/></svg>