<svg width="16" height="16" viewBox="0 0 16 16" xmlns="http://www.w3.org/2000/svg" fill='currentColor'><g clip-path="url(#clip0_104_727)"><path d="M7.50001 1.90601V2.84401H8.50001V1.90601H7.50001ZM7.50001 3.78101V4.71901H8.50001V3.78001H7.50001V3.78101ZM7.50001 5.65601V6.59401H8.50001V5.65601H7.50001ZM1.90601 8.50001H2.84401V7.50001H1.90601V8.50001ZM3.78101 8.50001H4.71901V7.50001H3.78001V8.50001H3.78101ZM5.65601 8.50001H6.59401V7.50001H5.65601V8.50001ZM8.46901 8.50001V8.46901H8.50001V7.53001H8.46901V7.50001H7.53001V7.53101H7.50001V8.46901H7.53101V8.50001H8.46901ZM9.40601 8.50001H10.344V7.50001H9.40601V8.50001ZM11.281 8.50001H12.219V7.50001H11.281V8.50001ZM13.156 8.50001H14.094V7.50001H13.156V8.50001ZM7.50001 9.40601V10.344H8.50001V9.40601H7.50001ZM7.50001 11.281V12.219H8.50001V11.281H7.50001ZM7.50001 13.156V14.094H8.50001V13.156H7.50001Z"/><path d="M0 0V16H16V0H0ZM1 1H15V15H1V1Z"/></g><defs><clipPath id="clip0_104_727"><rect width="16" height="16"/></clipPath></defs></svg>