<svg width="16" height="16" viewBox="0 0 16 16" fill="none" xmlns="http://www.w3.org/2000/svg">
<g clip-path="url(#clip0_104_711)">
<path d="M0 0H0.969V0.5H1V0.969H0.969V1H0.5V0.969H0V0ZM2.844 1H1.906V0H2.844V1ZM4.719 1H3.78V0H4.718V1H4.719ZM6.594 1H5.656V0H6.594V1ZM7.531 1V0.969H7.5V0.5H7.531V0H8.469V0.5H8.5V0.969H8.469V1H7.53H7.531ZM10.344 1H9.406V0H10.344V1ZM12.219 1H11.281V0H12.219V1ZM14.094 1H13.156V0H14.094V1ZM15.5 1H15.031V0.969H15V0.5H15.031V0H16V0.969H15.5V1ZM1 1.906V2.844H0V1.906H1ZM7.5 2.844V1.906H8.5V2.844H7.5ZM15 2.844V1.906H16V2.844H15ZM1 3.78V4.718H0V3.78H1ZM7.5 4.718V3.78H8.5V4.718H7.5ZM15 4.718V3.78H16V4.718H15ZM1 5.656V6.594H0V5.656H1ZM7.5 6.594V5.656H8.5V6.594H7.5ZM15 6.594V5.656H16V6.594H15ZM0.969 8.5H0.5V8.469H0V7.53H0.5V7.5H0.969V7.531H1V8.469H0.969V8.5ZM2.844 8.5H1.906V7.5H2.844V8.5ZM4.719 8.5H3.78V7.5H4.718V8.5H4.719ZM6.594 8.5H5.656V7.5H6.594V8.5ZM8.469 8.469V8.5H7.53V8.469H7.5V7.53H7.531V7.5H8.469V7.531H8.5V8.469H8.469ZM10.344 8.5H9.406V7.5H10.344V8.5ZM12.219 8.5H11.281V7.5H12.219V8.5ZM14.094 8.5H13.156V7.5H14.094V8.5ZM15.5 8.5H15.031V8.469H15V7.53H15.031V7.5H15.5V7.531H16V8.469H15.5V8.5ZM0 10.344V9.406H1V10.344H0ZM7.5 10.344V9.406H8.5V10.344H7.5ZM16 9.406V10.344H15V9.406H16ZM0 12.22V11.282H1V12.22H0ZM7.5 12.22V11.282H8.5V12.22H7.5ZM16 11.282V12.22H15V11.282H16ZM0 14.094V13.156H1V14.094H0ZM7.5 14.094V13.156H8.5V14.094H7.5ZM16 13.156V14.094H15V13.156H16ZM0.969 16H0V15.031H0.5V15H0.969V15.031H1V15.5H0.969V16ZM2.844 16H1.906V15H2.844V16ZM4.719 16H3.78V15H4.718V16H4.719ZM6.594 16H5.656V15H6.594V16ZM7.531 16V15.5H7.5V15.031H7.531V15H8.469V15.031H8.5V15.5H8.469V16H7.53H7.531ZM10.344 16H9.406V15H10.344V16ZM12.219 16H11.281V15H12.219V16ZM14.094 16H13.156V15H14.094V16ZM15.031 16V15.5H15V15.031H15.031V15H15.5V15.031H16V16H15.031Z" fill="black"/>
</g>
<defs>
<clipPath id="clip0_104_711">
<rect width="16" height="16" fill="white"/>
</clipPath>
</defs>
</svg>
