<svg width="16" height="16" viewBox="0 0 16 16" xmlns="http://www.w3.org/2000/svg" fill='currentColor'><path d="M0 3.5C0 3.36739 0.0526784 3.24021 0.146447 3.14645C0.240215 3.05268 0.367392 3 0.5 3H15.5C15.6326 3 15.7598 3.05268 15.8536 3.14645C15.9473 3.24021 16 3.36739 16 3.5V5.5C16 5.63261 15.9473 5.75979 15.8536 5.85355C15.7598 5.94732 15.6326 6 15.5 6H0.5C0.367392 6 0.240215 5.94732 0.146447 5.85355C0.0526784 5.75979 0 5.63261 0 5.5V3.5ZM0 8.5C0 8.36739 0.0526784 8.24021 0.146447 8.14645C0.240215 8.05268 0.367392 8 0.5 8H15.5C15.6326 8 15.7598 8.05268 15.8536 8.14645C15.9473 8.24021 16 8.36739 16 8.5V9.5C16 9.63261 15.9473 9.75979 15.8536 9.85355C15.7598 9.94732 15.6326 10 15.5 10H0.5C0.367392 10 0.240215 9.94732 0.146447 9.85355C0.0526784 9.75979 0 9.63261 0 9.5V8.5ZM0 12.5C0 12.3674 0.0526784 12.2402 0.146447 12.1464C0.240215 12.0527 0.367392 12 0.5 12H15.5C15.6326 12 15.7598 12.0527 15.8536 12.1464C15.9473 12.2402 16 12.3674 16 12.5C16 12.6326 15.9473 12.7598 15.8536 12.8536C15.7598 12.9473 15.6326 13 15.5 13H0.5C0.367392 13 0.240215 12.9473 0.146447 12.8536C0.0526784 12.7598 0 12.6326 0 12.5Z"/></svg>