<svg width="16" height="16" viewBox="0 0 16 16" xmlns="http://www.w3.org/2000/svg" fill='currentColor'><g clip-path="url(#clip0_104_734)"><path d="M0 0V1H16V0H0ZM1 2.844V1.906H0V2.844H1ZM7.5 1.906V2.844H8.5V1.906H7.5ZM15 1.906V2.844H16V1.906H15ZM1 4.719V3.78H0V4.718H1V4.719ZM7.5 3.781V4.719H8.5V3.78H7.5V3.781ZM15 3.781V4.719H16V3.78H15V3.781ZM1 6.594V5.656H0V6.594H1ZM7.5 5.656V6.594H8.5V5.656H7.5ZM15 5.656V6.594H16V5.656H15ZM0.5 8.5H0.969V8.469H1V7.53H0.969V7.5H0.5V7.531H0V8.469H0.5V8.5ZM1.906 8.5H2.844V7.5H1.906V8.5ZM3.781 8.5H4.719V7.5H3.78V8.5H3.781ZM5.656 8.5H6.594V7.5H5.656V8.5ZM8.469 8.5V8.469H8.5V7.53H8.469V7.5H7.53V7.531H7.5V8.469H7.531V8.5H8.469ZM9.406 8.5H10.344V7.5H9.406V8.5ZM11.281 8.5H12.219V7.5H11.281V8.5ZM13.156 8.5H14.094V7.5H13.156V8.5ZM15.031 8.5H15.5V8.469H16V7.53H15.5V7.5H15.031V7.531H15V8.469H15.031V8.5ZM0 9.406V10.344H1V9.406H0ZM7.5 9.406V10.344H8.5V9.406H7.5ZM16 10.344V9.406H15V10.344H16ZM0 11.281V12.219H1V11.281H0ZM7.5 11.281V12.219H8.5V11.281H7.5ZM16 12.219V11.281H15V12.219H16ZM0 13.156V14.094H1V13.156H0ZM7.5 13.156V14.094H8.5V13.156H7.5ZM16 14.094V13.156H15V14.094H16ZM0 16H0.969V15.5H1V15.031H0.969V15H0.5V15.031H0V16ZM1.906 16H2.844V15H1.906V16ZM3.781 16H4.719V15H3.78V16H3.781ZM5.656 16H6.594V15H5.656V16ZM7.531 15.5V16H8.469V15.5H8.5V15.031H8.469V15H7.53V15.031H7.5V15.5H7.531ZM9.406 16H10.344V15H9.406V16ZM11.281 16H12.219V15H11.281V16ZM13.156 16H14.094V15H13.156V16ZM15.031 15.5V16H16V15.031H15.5V15H15.031V15.031H15V15.5H15.031Z"/></g><defs><clipPath id="clip0_104_734"><rect width="16" height="16"/></clipPath></defs></svg>