<svg width="16" height="16" viewBox="0 0 16 16" fill="none" xmlns="http://www.w3.org/2000/svg">
<g clip-path="url(#clip0_104_740)">
<path d="M2 0.999998C1.73478 0.999998 1.48043 1.10535 1.29289 1.29289C1.10536 1.48043 1 1.73478 1 2C1 2.26521 1.10536 2.51957 1.29289 2.7071C1.48043 2.89464 1.73478 3 2 3C2.26522 3 2.51957 2.89464 2.70711 2.7071C2.89464 2.51957 3 2.26521 3 2C3 1.73478 2.89464 1.48043 2.70711 1.29289C2.51957 1.10535 2.26522 0.999998 2 0.999998ZM9.77839e-07 2C-0.000480478 1.51287 0.176843 1.0423 0.498688 0.676635C0.820534 0.310965 1.26477 0.0753308 1.74802 0.0139578C2.23127 -0.0474152 2.72031 0.0696931 3.12335 0.343302C3.52638 0.616912 3.8157 1.02821 3.937 1.5H12.063C12.1513 1.15866 12.3282 0.846728 12.5758 0.595797C12.8235 0.344866 13.1331 0.16386 13.4732 0.0711189C13.8134 -0.0216219 14.172 -0.0228006 14.5127 0.0677021C14.8535 0.158205 15.1642 0.337172 15.4135 0.58647C15.6628 0.835767 15.8418 1.14653 15.9323 1.48728C16.0228 1.82803 16.0216 2.18664 15.9289 2.52678C15.8361 2.86693 15.6551 3.17651 15.4042 3.42416C15.1533 3.67182 14.8413 3.84874 14.5 3.937V12.063C14.8413 12.1513 15.1533 12.3282 15.4042 12.5758C15.6551 12.8235 15.8361 13.1331 15.9289 13.4732C16.0216 13.8134 16.0228 14.172 15.9323 14.5127C15.8418 14.8535 15.6628 15.1642 15.4135 15.4135C15.1642 15.6628 14.8535 15.8418 14.5127 15.9323C14.172 16.0228 13.8134 16.0216 13.4732 15.9289C13.1331 15.8361 12.8235 15.6551 12.5758 15.4042C12.3282 15.1533 12.1513 14.8413 12.063 14.5H3.937C3.84874 14.8413 3.67182 15.1533 3.42417 15.4042C3.17651 15.6551 2.86693 15.8361 2.52679 15.9289C2.18664 16.0216 1.82803 16.0228 1.48728 15.9323C1.14654 15.8418 0.83577 15.6628 0.586473 15.4135C0.337176 15.1642 0.158208 14.8535 0.0677051 14.5127C-0.0227976 14.172 -0.0216188 13.8134 0.0711219 13.4732C0.163863 13.1331 0.344869 12.8235 0.5958 12.5758C0.846731 12.3282 1.15867 12.1513 1.5 12.063V3.937C1.0706 3.82613 0.690236 3.57569 0.418706 3.22505C0.147177 2.87441 -0.000111735 2.44348 9.77839e-07 2ZM2.5 3.937V12.063C3.203 12.243 3.756 12.797 3.937 13.5H12.063C12.1527 13.1541 12.3332 12.8385 12.5858 12.5858C12.8385 12.3332 13.1541 12.1527 13.5 12.063V3.937C13.1541 3.84733 12.8385 3.66682 12.5858 3.41416C12.3332 3.1615 12.1527 2.84588 12.063 2.5H3.937C3.84734 2.84588 3.66682 3.1615 3.41416 3.41416C3.1615 3.66682 2.84588 3.84733 2.5 3.937ZM14 0.999998C13.7348 0.999998 13.4804 1.10535 13.2929 1.29289C13.1054 1.48043 13 1.73478 13 2C13 2.26521 13.1054 2.51957 13.2929 2.7071C13.4804 2.89464 13.7348 3 14 3C14.2652 3 14.5196 2.89464 14.7071 2.7071C14.8946 2.51957 15 2.26521 15 2C15 1.73478 14.8946 1.48043 14.7071 1.29289C14.5196 1.10535 14.2652 0.999998 14 0.999998ZM2 13C1.73478 13 1.48043 13.1054 1.29289 13.2929C1.10536 13.4804 1 13.7348 1 14C1 14.2652 1.10536 14.5196 1.29289 14.7071C1.48043 14.8946 1.73478 15 2 15C2.26522 15 2.51957 14.8946 2.70711 14.7071C2.89464 14.5196 3 14.2652 3 14C3 13.7348 2.89464 13.4804 2.70711 13.2929C2.51957 13.1054 2.26522 13 2 13ZM14 13C13.7348 13 13.4804 13.1054 13.2929 13.2929C13.1054 13.4804 13 13.7348 13 14C13 14.2652 13.1054 14.5196 13.2929 14.7071C13.4804 14.8946 13.7348 15 14 15C14.2652 15 14.5196 14.8946 14.7071 14.7071C14.8946 14.5196 15 14.2652 15 14C15 13.7348 14.8946 13.4804 14.7071 13.2929C14.5196 13.1054 14.2652 13 14 13Z" fill="black"/>
</g>
<defs>
<clipPath id="clip0_104_740">
<rect width="16" height="16" fill="white"/>
</clipPath>
</defs>
</svg>
