<svg width="16" height="16" viewBox="0 0 16 16" xmlns="http://www.w3.org/2000/svg" fill='currentColor'><path fill-rule="evenodd" clip-rule="evenodd" d="M6.364 13.5C6.364 13.6326 6.41668 13.7598 6.51045 13.8536C6.60421 13.9473 6.73139 14 6.864 14H13.5C13.8978 14 14.2794 13.842 14.5607 13.5607C14.842 13.2794 15 12.8978 15 12.5V2.5C15 2.10218 14.842 1.72064 14.5607 1.43934C14.2794 1.15804 13.8978 1 13.5 1H3.5C3.10218 1 2.72064 1.15804 2.43934 1.43934C2.15804 1.72064 2 2.10218 2 2.5V9.136C2 9.26861 2.05268 9.39579 2.14645 9.48955C2.24021 9.58332 2.36739 9.636 2.5 9.636C2.63261 9.636 2.75979 9.58332 2.85355 9.48955C2.94732 9.39579 3 9.26861 3 9.136V2.5C3 2.36739 3.05268 2.24021 3.14645 2.14645C3.24021 2.05268 3.36739 2 3.5 2H13.5C13.6326 2 13.7598 2.05268 13.8536 2.14645C13.9473 2.24021 14 2.36739 14 2.5V12.5C14 12.6326 13.9473 12.7598 13.8536 12.8536C13.7598 12.9473 13.6326 13 13.5 13H6.864C6.73139 13 6.60421 13.0527 6.51045 13.1464C6.41668 13.2402 6.364 13.3674 6.364 13.5Z"/><path fill-rule="evenodd" clip-rule="evenodd" d="M11 5.5C11 5.36739 10.9473 5.24021 10.8536 5.14645C10.7598 5.05268 10.6326 5 10.5 5H5.50001C5.3674 5 5.24022 5.05268 5.14645 5.14645C5.05268 5.24021 5.00001 5.36739 5.00001 5.5C5.00001 5.63261 5.05268 5.75979 5.14645 5.85355C5.24022 5.94732 5.3674 6 5.50001 6H9.29301L1.14601 14.146C1.05212 14.2399 0.999374 14.3672 0.999374 14.5C0.999374 14.6328 1.05212 14.7601 1.14601 14.854C1.23989 14.9479 1.36723 15.0006 1.50001 15.0006C1.63278 15.0006 1.76012 14.9479 1.85401 14.854L10 6.707V10.5C10 10.6326 10.0527 10.7598 10.1465 10.8536C10.2402 10.9473 10.3674 11 10.5 11C10.6326 11 10.7598 10.9473 10.8536 10.8536C10.9473 10.7598 11 10.6326 11 10.5V5.5Z"/></svg>