<svg width="16" height="16" viewBox="0 0 16 16" xmlns="http://www.w3.org/2000/svg" fill='currentColor'><g clip-path="url(#clip0_104_747)"><path fill-rule="evenodd" clip-rule="evenodd" d="M7.364 12.5C7.364 12.6326 7.41668 12.7598 7.51045 12.8536C7.60421 12.9473 7.73139 13 7.864 13H14.5C14.8978 13 15.2794 12.842 15.5607 12.5607C15.842 12.2794 16 11.8978 16 11.5V1.5C16 1.10218 15.842 0.720644 15.5607 0.43934C15.2794 0.158035 14.8978 0 14.5 0L4.5 0C4.10218 0 3.72064 0.158035 3.43934 0.43934C3.15804 0.720644 3 1.10218 3 1.5V8.136C3 8.26861 3.05268 8.39579 3.14645 8.48955C3.24021 8.58332 3.36739 8.636 3.5 8.636C3.63261 8.636 3.75979 8.58332 3.85355 8.48955C3.94732 8.39579 4 8.26861 4 8.136V1.5C4 1.36739 4.05268 1.24021 4.14645 1.14645C4.24021 1.05268 4.36739 1 4.5 1H14.5C14.6326 1 14.7598 1.05268 14.8536 1.14645C14.9473 1.24021 15 1.36739 15 1.5V11.5C15 11.6326 14.9473 11.7598 14.8536 11.8536C14.7598 11.9473 14.6326 12 14.5 12H7.864C7.73139 12 7.60421 12.0527 7.51045 12.1464C7.41668 12.2402 7.364 12.3674 7.364 12.5Z"/><path fill-rule="evenodd" clip-rule="evenodd" d="M0 15.5C0 15.6326 0.0526784 15.7598 0.146447 15.8535C0.240215 15.9473 0.367392 16 0.5 16H5.5C5.63261 16 5.75979 15.9473 5.85355 15.8535C5.94732 15.7598 6 15.6326 6 15.5C6 15.3674 5.94732 15.2402 5.85355 15.1464C5.75979 15.0527 5.63261 15 5.5 15H1.707L9.854 6.85399C9.94789 6.7601 10.0006 6.63277 10.0006 6.49999C10.0006 6.36722 9.94789 6.23988 9.854 6.14599C9.76011 6.0521 9.63278 5.99936 9.5 5.99936C9.36722 5.99936 9.23989 6.0521 9.146 6.14599L1 14.293V10.5C1 10.3674 0.947322 10.2402 0.853553 10.1464C0.759785 10.0527 0.632608 9.99999 0.5 9.99999C0.367392 9.99999 0.240215 10.0527 0.146447 10.1464C0.0526784 10.2402 0 10.3674 0 10.5L0 15.5Z"/></g><defs><clipPath id="clip0_104_747"><rect width="16" height="16"/></clipPath></defs></svg>