<svg width="16" height="16" viewBox="0 0 16 16" xmlns="http://www.w3.org/2000/svg" fill='currentColor'><path fill-rule="evenodd" clip-rule="evenodd" d="M10 3.5C10 3.36739 9.94732 3.24021 9.85355 3.14645C9.75979 3.05268 9.63261 3 9.5 3H1.5C1.36739 3 1.24021 3.05268 1.14645 3.14645C1.05268 3.24021 1 3.36739 1 3.5V12.5C1 12.6326 1.05268 12.7598 1.14645 12.8536C1.24021 12.9473 1.36739 13 1.5 13H9.5C9.63261 13 9.75979 12.9473 9.85355 12.8536C9.94732 12.7598 10 12.6326 10 12.5V10.5C10 10.3674 10.0527 10.2402 10.1464 10.1464C10.2402 10.0527 10.3674 10 10.5 10C10.6326 10 10.7598 10.0527 10.8536 10.1464C10.9473 10.2402 11 10.3674 11 10.5V12.5C11 12.8978 10.842 13.2794 10.5607 13.5607C10.2794 13.842 9.89782 14 9.5 14H1.5C1.10218 14 0.720644 13.842 0.43934 13.5607C0.158035 13.2794 0 12.8978 0 12.5L0 3.5C0 3.10218 0.158035 2.72064 0.43934 2.43934C0.720644 2.15804 1.10218 2 1.5 2H9.5C9.89782 2 10.2794 2.15804 10.5607 2.43934C10.842 2.72064 11 3.10218 11 3.5V5.5C11 5.63261 10.9473 5.75979 10.8536 5.85355C10.7598 5.94732 10.6326 6 10.5 6C10.3674 6 10.2402 5.94732 10.1464 5.85355C10.0527 5.75979 10 5.63261 10 5.5V3.5Z"/><path fill-rule="evenodd" clip-rule="evenodd" d="M4.146 8.35399C4.09944 8.30755 4.06249 8.25237 4.03729 8.19162C4.01208 8.13088 3.99911 8.06576 3.99911 7.99999C3.99911 7.93422 4.01208 7.8691 4.03729 7.80836C4.06249 7.74761 4.09944 7.69244 4.146 7.64599L7.146 4.64599C7.23989 4.5521 7.36722 4.49936 7.5 4.49936C7.63278 4.49936 7.76011 4.5521 7.854 4.64599C7.94789 4.73988 8.00063 4.86722 8.00063 4.99999C8.00063 5.13277 7.94789 5.2601 7.854 5.35399L5.707 7.49999H14.5C14.6326 7.49999 14.7598 7.55267 14.8536 7.64644C14.9473 7.74021 15 7.86738 15 7.99999C15 8.1326 14.9473 8.25978 14.8536 8.35354C14.7598 8.44731 14.6326 8.49999 14.5 8.49999H5.707L7.854 10.646C7.90049 10.6925 7.93736 10.7477 7.96252 10.8084C7.98768 10.8691 8.00063 10.9342 8.00063 11C8.00063 11.0657 7.98768 11.1308 7.96252 11.1916C7.93736 11.2523 7.90049 11.3075 7.854 11.354C7.80751 11.4005 7.75232 11.4374 7.69158 11.4625C7.63084 11.4877 7.56574 11.5006 7.5 11.5006C7.43426 11.5006 7.36916 11.4877 7.30842 11.4625C7.24768 11.4374 7.19249 11.4005 7.146 11.354L4.146 8.35399Z"/></svg>