<svg width="16" height="16" viewBox="0 0 16 16" xmlns="http://www.w3.org/2000/svg" fill='currentColor'><g clip-path="url(#clip0_104_786)"><path fill-rule="evenodd" clip-rule="evenodd" d="M7.364 3.5C7.364 3.36739 7.41668 3.24021 7.51045 3.14645C7.60421 3.05268 7.73139 3 7.864 3H14.5C14.8978 3 15.2794 3.15804 15.5607 3.43934C15.842 3.72064 16 4.10218 16 4.5V14.5C16 14.8978 15.842 15.2794 15.5607 15.5607C15.2794 15.842 14.8978 16 14.5 16H4.5C4.10218 16 3.72064 15.842 3.43934 15.5607C3.15804 15.2794 3 14.8978 3 14.5V7.864C3 7.73139 3.05268 7.60421 3.14645 7.51045C3.24021 7.41668 3.36739 7.364 3.5 7.364C3.63261 7.364 3.75979 7.41668 3.85355 7.51045C3.94732 7.60421 4 7.73139 4 7.864V14.5C4 14.6326 4.05268 14.7598 4.14645 14.8536C4.24021 14.9473 4.36739 15 4.5 15H14.5C14.6326 15 14.7598 14.9473 14.8536 14.8536C14.9473 14.7598 15 14.6326 15 14.5V4.5C15 4.36739 14.9473 4.24021 14.8536 4.14645C14.7598 4.05268 14.6326 4 14.5 4H7.864C7.73139 4 7.60421 3.94732 7.51045 3.85355C7.41668 3.75979 7.364 3.63261 7.364 3.5Z"/><path fill-rule="evenodd" clip-rule="evenodd" d="M0 0.5C0 0.367392 0.0526784 0.240215 0.146447 0.146447C0.240215 0.0526784 0.367392 0 0.5 0L5.5 0C5.63261 0 5.75979 0.0526784 5.85355 0.146447C5.94732 0.240215 6 0.367392 6 0.5C6 0.632608 5.94732 0.759785 5.85355 0.853553C5.75979 0.947322 5.63261 1 5.5 1H1.707L9.854 9.146C9.94789 9.23989 10.0006 9.36722 10.0006 9.5C10.0006 9.63278 9.94789 9.76011 9.854 9.854C9.76011 9.94789 9.63278 10.0006 9.5 10.0006C9.36722 10.0006 9.23989 9.94789 9.146 9.854L1 1.707V5.5C1 5.63261 0.947322 5.75979 0.853553 5.85355C0.759785 5.94732 0.632608 6 0.5 6C0.367392 6 0.240215 5.94732 0.146447 5.85355C0.0526784 5.75979 0 5.63261 0 5.5V0.5Z"/></g><defs><clipPath id="clip0_104_786"><rect width="16" height="16"/></clipPath></defs></svg>