<svg width="16" height="16" viewBox="0 0 16 16" fill="none" xmlns="http://www.w3.org/2000/svg">
<g clip-path="url(#clip0_104_783)">
<path fill-rule="evenodd" clip-rule="evenodd" d="M3.5 6C3.36739 6 3.24021 6.05268 3.14645 6.14645C3.05268 6.24021 3 6.36739 3 6.5V14.5C3 14.6326 3.05268 14.7598 3.14645 14.8536C3.24021 14.9473 3.36739 15 3.5 15H12.5C12.6326 15 12.7598 14.9473 12.8536 14.8536C12.9473 14.7598 13 14.6326 13 14.5V6.5C13 6.36739 12.9473 6.24021 12.8536 6.14645C12.7598 6.05268 12.6326 6 12.5 6H10.5C10.3674 6 10.2402 5.94732 10.1464 5.85355C10.0527 5.75979 10 5.63261 10 5.5C10 5.36739 10.0527 5.24021 10.1464 5.14645C10.2402 5.05268 10.3674 5 10.5 5H12.5C12.8978 5 13.2794 5.15804 13.5607 5.43934C13.842 5.72064 14 6.10218 14 6.5V14.5C14 14.8978 13.842 15.2794 13.5607 15.5607C13.2794 15.842 12.8978 16 12.5 16H3.5C3.10218 16 2.72064 15.842 2.43934 15.5607C2.15804 15.2794 2 14.8978 2 14.5V6.5C2 6.10218 2.15804 5.72064 2.43934 5.43934C2.72064 5.15804 3.10218 5 3.5 5H5.5C5.63261 5 5.75979 5.05268 5.85355 5.14645C5.94732 5.24021 6 5.36739 6 5.5C6 5.63261 5.94732 5.75979 5.85355 5.85355C5.75979 5.94732 5.63261 6 5.5 6H3.5Z" fill="black"/>
<path fill-rule="evenodd" clip-rule="evenodd" d="M7.64599 0.146009C7.69244 0.0994455 7.74761 0.0625027 7.80836 0.0372962C7.8691 0.0120898 7.93422 -0.00088501 7.99999 -0.00088501C8.06576 -0.00088501 8.13088 0.0120898 8.19162 0.0372962C8.25237 0.0625027 8.30755 0.0994455 8.35399 0.146009L11.354 3.14601C11.4479 3.2399 11.5006 3.36723 11.5006 3.50001C11.5006 3.63278 11.4479 3.76012 11.354 3.85401C11.2601 3.9479 11.1328 4.00064 11 4.00064C10.8672 4.00064 10.7399 3.9479 10.646 3.85401L8.49999 1.70701V10.5C8.49999 10.6326 8.44731 10.7598 8.35354 10.8536C8.25978 10.9473 8.1326 11 7.99999 11C7.86738 11 7.74021 10.9473 7.64644 10.8536C7.55267 10.7598 7.49999 10.6326 7.49999 10.5V1.70701L5.35399 3.85401C5.3075 3.9005 5.25231 3.93737 5.19157 3.96253C5.13084 3.98769 5.06573 4.00064 4.99999 4.00064C4.86722 4.00064 4.73988 3.9479 4.64599 3.85401C4.5995 3.80752 4.56263 3.75233 4.53747 3.69159C4.51231 3.63085 4.49936 3.56575 4.49936 3.50001C4.49936 3.36723 4.5521 3.2399 4.64599 3.14601L7.64599 0.146009Z" fill="black"/>
</g>
<defs>
<clipPath id="clip0_104_783">
<rect width="16" height="16" fill="white"/>
</clipPath>
</defs>
</svg>
