<svg width="16" height="16" viewBox="0 0 16 16" xmlns="http://www.w3.org/2000/svg" fill='currentColor'><path fill-rule="evenodd" clip-rule="evenodd" d="M9.636 2.5C9.636 2.36739 9.58332 2.24021 9.48955 2.14645C9.39579 2.05268 9.26861 2 9.136 2H2.5C2.10218 2 1.72064 2.15804 1.43934 2.43934C1.15804 2.72064 1 3.10218 1 3.5V13.5C1 13.8978 1.15804 14.2794 1.43934 14.5607C1.72064 14.842 2.10218 15 2.5 15H12.5C12.8978 15 13.2794 14.842 13.5607 14.5607C13.842 14.2794 14 13.8978 14 13.5V6.864C14 6.73139 13.9473 6.60421 13.8536 6.51045C13.7598 6.41668 13.6326 6.364 13.5 6.364C13.3674 6.364 13.2402 6.41668 13.1464 6.51045C13.0527 6.60421 13 6.73139 13 6.864V13.5C13 13.6326 12.9473 13.7598 12.8536 13.8536C12.7598 13.9473 12.6326 14 12.5 14H2.5C2.36739 14 2.24021 13.9473 2.14645 13.8536C2.05268 13.7598 2 13.6326 2 13.5V3.5C2 3.36739 2.05268 3.24021 2.14645 3.14645C2.24021 3.05268 2.36739 3 2.5 3H9.136C9.26861 3 9.39579 2.94732 9.48955 2.85355C9.58332 2.75979 9.636 2.63261 9.636 2.5Z"/><path fill-rule="evenodd" clip-rule="evenodd" d="M5 10.5C5 10.6326 5.05268 10.7598 5.14645 10.8535C5.24021 10.9473 5.36739 11 5.5 11H10.5C10.6326 11 10.7598 10.9473 10.8536 10.8535C10.9473 10.7598 11 10.6326 11 10.5C11 10.3674 10.9473 10.2402 10.8536 10.1464C10.7598 10.0527 10.6326 9.99999 10.5 9.99999H6.707L14.854 1.85399C14.9005 1.8075 14.9374 1.75231 14.9625 1.69157C14.9877 1.63083 15.0006 1.56573 15.0006 1.49999C15.0006 1.43425 14.9877 1.36915 14.9625 1.30841C14.9374 1.24767 14.9005 1.19248 14.854 1.14599C14.8075 1.0995 14.7523 1.06263 14.6916 1.03747C14.6308 1.01231 14.5657 0.999359 14.5 0.999359C14.4343 0.999359 14.3692 1.01231 14.3084 1.03747C14.2477 1.06263 14.1925 1.0995 14.146 1.14599L6 9.29299V5.49999C6 5.36738 5.94732 5.24021 5.85355 5.14644C5.75979 5.05267 5.63261 4.99999 5.5 4.99999C5.36739 4.99999 5.24021 5.05267 5.14645 5.14644C5.05268 5.24021 5 5.36738 5 5.49999V10.5Z"/></svg>