<svg width="16" height="16" viewBox="0 0 16 16" xmlns="http://www.w3.org/2000/svg" fill='currentColor'><g clip-path="url(#clip0_104_750)"><path fill-rule="evenodd" clip-rule="evenodd" d="M8.636 12.5C8.636 12.6326 8.58332 12.7598 8.48955 12.8536C8.39579 12.9473 8.26861 13 8.136 13H1.5C1.10218 13 0.720644 12.842 0.43934 12.5607C0.158035 12.2794 0 11.8978 0 11.5L0 1.5C0 1.10218 0.158035 0.720644 0.43934 0.43934C0.720644 0.158035 1.10218 0 1.5 0L11.5 0C11.8978 0 12.2794 0.158035 12.5607 0.43934C12.842 0.720644 13 1.10218 13 1.5V8.136C13 8.26861 12.9473 8.39579 12.8536 8.48955C12.7598 8.58332 12.6326 8.636 12.5 8.636C12.3674 8.636 12.2402 8.58332 12.1464 8.48955C12.0527 8.39579 12 8.26861 12 8.136V1.5C12 1.36739 11.9473 1.24021 11.8536 1.14645C11.7598 1.05268 11.6326 1 11.5 1H1.5C1.36739 1 1.24021 1.05268 1.14645 1.14645C1.05268 1.24021 1 1.36739 1 1.5V11.5C1 11.6326 1.05268 11.7598 1.14645 11.8536C1.24021 11.9473 1.36739 12 1.5 12H8.136C8.26861 12 8.39579 12.0527 8.48955 12.1464C8.58332 12.2402 8.636 12.3674 8.636 12.5Z"/><path fill-rule="evenodd" clip-rule="evenodd" d="M16 15.5C16 15.6326 15.9473 15.7598 15.8536 15.8535C15.7598 15.9473 15.6326 16 15.5 16H10.5C10.3674 16 10.2402 15.9473 10.1465 15.8535C10.0527 15.7598 10 15.6326 10 15.5C10 15.3674 10.0527 15.2402 10.1465 15.1464C10.2402 15.0527 10.3674 15 10.5 15H14.293L6.14601 6.85399C6.09952 6.8075 6.06264 6.75231 6.03748 6.69157C6.01232 6.63084 5.99937 6.56573 5.99937 6.49999C5.99937 6.43425 6.01232 6.36915 6.03748 6.30841C6.06264 6.24767 6.09952 6.19248 6.14601 6.14599C6.19249 6.0995 6.24768 6.06263 6.30842 6.03747C6.36916 6.01231 6.43426 5.99936 6.50001 5.99936C6.56575 5.99936 6.63085 6.01231 6.69159 6.03747C6.75233 6.06263 6.80752 6.0995 6.85401 6.14599L15 14.293V10.5C15 10.3674 15.0527 10.2402 15.1465 10.1464C15.2402 10.0527 15.3674 9.99999 15.5 9.99999C15.6326 9.99999 15.7598 10.0527 15.8536 10.1464C15.9473 10.2402 16 10.3674 16 10.5V15.5Z"/></g><defs><clipPath id="clip0_104_750"><rect width="16" height="16"/></clipPath></defs></svg>