<svg width="16" height="16" viewBox="0 0 16 16" fill="none" xmlns="http://www.w3.org/2000/svg">
<path fill-rule="evenodd" clip-rule="evenodd" d="M6.364 2.5C6.364 2.36739 6.41668 2.24021 6.51045 2.14645C6.60421 2.05268 6.73139 2 6.864 2H13.5C13.8978 2 14.2794 2.15804 14.5607 2.43934C14.842 2.72064 15 3.10218 15 3.5V13.5C15 13.8978 14.842 14.2794 14.5607 14.5607C14.2794 14.842 13.8978 15 13.5 15H3.5C3.10218 15 2.72064 14.842 2.43934 14.5607C2.15804 14.2794 2 13.8978 2 13.5V6.864C2 6.73139 2.05268 6.60421 2.14645 6.51045C2.24021 6.41668 2.36739 6.364 2.5 6.364C2.63261 6.364 2.75979 6.41668 2.85355 6.51045C2.94732 6.60421 3 6.73139 3 6.864V13.5C3 13.6326 3.05268 13.7598 3.14645 13.8536C3.24021 13.9473 3.36739 14 3.5 14H13.5C13.6326 14 13.7598 13.9473 13.8536 13.8536C13.9473 13.7598 14 13.6326 14 13.5V3.5C14 3.36739 13.9473 3.24021 13.8536 3.14645C13.7598 3.05268 13.6326 3 13.5 3H6.864C6.73139 3 6.60421 2.94732 6.51045 2.85355C6.41668 2.75979 6.364 2.63261 6.364 2.5Z" fill="black"/>
<path fill-rule="evenodd" clip-rule="evenodd" d="M11 10.5C11 10.6326 10.9473 10.7598 10.8536 10.8535C10.7598 10.9473 10.6326 11 10.5 11H5.5C5.36739 11 5.24022 10.9473 5.14645 10.8535C5.05268 10.7598 5 10.6326 5 10.5C5 10.3674 5.05268 10.2402 5.14645 10.1464C5.24022 10.0527 5.36739 9.99999 5.5 9.99999H9.293L1.146 1.85399C1.09951 1.8075 1.06264 1.75231 1.03748 1.69157C1.01232 1.63083 0.999369 1.56573 0.999369 1.49999C0.999369 1.43425 1.01232 1.36915 1.03748 1.30841C1.06264 1.24767 1.09951 1.19248 1.146 1.14599C1.19249 1.0995 1.24768 1.06263 1.30842 1.03747C1.36916 1.01231 1.43426 0.999359 1.5 0.999359C1.56574 0.999359 1.63084 1.01231 1.69158 1.03747C1.75232 1.06263 1.80751 1.0995 1.854 1.14599L10 9.29299V5.49999C10 5.36738 10.0527 5.24021 10.1464 5.14644C10.2402 5.05267 10.3674 4.99999 10.5 4.99999C10.6326 4.99999 10.7598 5.05267 10.8536 5.14644C10.9473 5.24021 11 5.36738 11 5.49999V10.5Z" fill="black"/>
</svg>
