<svg width="16" height="16" viewBox="0 0 16 16" xmlns="http://www.w3.org/2000/svg" fill='currentColor'><g clip-path="url(#clip0_104_742)"><path d="M8.186 1.113C8.06662 1.06516 7.93338 1.06516 7.814 1.113L1.846 3.5L8 5.961L14.154 3.5L8.186 1.113ZM15 4.239L8.5 6.839V14.761L15 12.161V4.24V4.239ZM7.5 14.762V6.838L1 4.239V12.162L7.5 14.762ZM7.443 0.184002C7.80057 0.0410015 8.19943 0.0410015 8.557 0.184002L15.686 3.036C15.7787 3.07315 15.8581 3.13719 15.9141 3.21989C15.9701 3.30259 16 3.40015 16 3.5V12.162C15.9999 12.3618 15.9399 12.557 15.8278 12.7224C15.7157 12.8878 15.5566 13.0159 15.371 13.09L8.186 15.964C8.06662 16.0118 7.93338 16.0118 7.814 15.964L0.63 13.09C0.444251 13.016 0.284942 12.8881 0.172642 12.7226C0.0603417 12.5572 0.000206329 12.3619 0 12.162L0 3.5C2.32399e-05 3.40015 0.0299437 3.30259 0.085907 3.21989C0.14187 3.13719 0.221313 3.07315 0.314 3.036L7.443 0.184002Z"/></g><defs><clipPath id="clip0_104_742"><rect width="16" height="16"/></clipPath></defs></svg>