<svg width="16" height="16" viewBox="0 0 16 16" fill="none" xmlns="http://www.w3.org/2000/svg">
<g clip-path="url(#clip0_104_796)">
<path d="M0 0.5C0 0.367392 0.0526784 0.240215 0.146447 0.146447C0.240215 0.0526784 0.367392 0 0.5 0L15.5 0C15.6326 0 15.7598 0.0526784 15.8536 0.146447C15.9473 0.240215 16 0.367392 16 0.5V3.5C16 3.63261 15.9473 3.75979 15.8536 3.85355C15.7598 3.94732 15.6326 4 15.5 4H14V6H15.5C15.6326 6 15.7598 6.05268 15.8536 6.14645C15.9473 6.24021 16 6.36739 16 6.5V9.5C16 9.63261 15.9473 9.75979 15.8536 9.85355C15.7598 9.94732 15.6326 10 15.5 10H14V12H15.5C15.6326 12 15.7598 12.0527 15.8536 12.1464C15.9473 12.2402 16 12.3674 16 12.5V15.5C16 15.6326 15.9473 15.7598 15.8536 15.8536C15.7598 15.9473 15.6326 16 15.5 16H0.5C0.367392 16 0.240215 15.9473 0.146447 15.8536C0.0526784 15.7598 0 15.6326 0 15.5V12.5C0 12.3674 0.0526784 12.2402 0.146447 12.1464C0.240215 12.0527 0.367392 12 0.5 12H2V10H0.5C0.367392 10 0.240215 9.94732 0.146447 9.85355C0.0526784 9.75979 0 9.63261 0 9.5V6.5C0 6.36739 0.0526784 6.24021 0.146447 6.14645C0.240215 6.05268 0.367392 6 0.5 6H2V4H0.5C0.367392 4 0.240215 3.94732 0.146447 3.85355C0.0526784 3.75979 0 3.63261 0 3.5V0.5ZM3 4V6H7.5V4H3ZM8.5 4V6H13V4H8.5ZM3 10V12H7.5V10H3ZM8.5 10V12H13V10H8.5ZM1 1V3H4.5V1H1ZM5.5 1V3H10.5V1H5.5ZM11.5 1V3H15V1H11.5ZM1 7V9H4.5V7H1ZM5.5 7V9H10.5V7H5.5ZM11.5 7V9H15V7H11.5ZM1 13V15H4.5V13H1ZM5.5 13V15H10.5V13H5.5ZM11.5 13V15H15V13H11.5Z" fill="black"/>
</g>
<defs>
<clipPath id="clip0_104_796">
<rect width="16" height="16" fill="white"/>
</clipPath>
</defs>
</svg>
