<svg width="16" height="16" viewBox="0 0 16 16" fill="none" xmlns="http://www.w3.org/2000/svg">
<path d="M8.5 5.5C8.5 5.63261 8.44732 5.75979 8.35355 5.85355C8.25979 5.94732 8.13261 6 8 6C7.86739 6 7.74021 5.94732 7.64645 5.85355C7.55268 5.75979 7.5 5.63261 7.5 5.5C7.5 5.36739 7.55268 5.24021 7.64645 5.14645C7.74021 5.05268 7.86739 5 8 5C8.13261 5 8.25979 5.05268 8.35355 5.14645C8.44732 5.24021 8.5 5.36739 8.5 5.5ZM13.5 11.5C13.3674 11.5 13.2402 11.4473 13.1464 11.3536C13.0527 11.2598 13 11.1326 13 11C13 10.8674 13.0527 10.7402 13.1464 10.6464C13.2402 10.5527 13.3674 10.5 13.5 10.5C13.6326 10.5 13.7598 10.5527 13.8536 10.6464C13.9473 10.7402 14 10.8674 14 11C14 11.1326 13.9473 11.2598 13.8536 11.3536C13.7598 11.4473 13.6326 11.5 13.5 11.5ZM2 11C2 11.1326 2.05268 11.2598 2.14645 11.3536C2.24021 11.4473 2.36739 11.5 2.5 11.5C2.63261 11.5 2.75979 11.4473 2.85355 11.3536C2.94732 11.2598 3 11.1326 3 11C3 10.8674 2.94732 10.7402 2.85355 10.6464C2.75979 10.5527 2.63261 10.5 2.5 10.5C2.36739 10.5 2.24021 10.5527 2.14645 10.6464C2.05268 10.7402 2 10.8674 2 11ZM12.243 7.464C12.1969 7.51176 12.1417 7.54985 12.0807 7.57605C12.0197 7.60226 11.9541 7.61605 11.8877 7.61663C11.8213 7.6172 11.7555 7.60455 11.694 7.57941C11.6326 7.55427 11.5767 7.51714 11.5298 7.4702C11.4829 7.42325 11.4457 7.36742 11.4206 7.30598C11.3954 7.24453 11.3828 7.17869 11.3834 7.1123C11.384 7.04591 11.3977 6.9803 11.4239 6.9193C11.4502 6.8583 11.4882 6.80312 11.536 6.757C11.6303 6.66592 11.7566 6.61552 11.8877 6.61666C12.0188 6.6178 12.1442 6.67039 12.2369 6.76309C12.3296 6.85579 12.3822 6.9812 12.3833 7.1123C12.3845 7.2434 12.3341 7.3697 12.243 7.464ZM3.757 6.757C3.70924 6.80312 3.67115 6.8583 3.64495 6.9193C3.61874 6.9803 3.60495 7.04591 3.60437 7.1123C3.6038 7.17869 3.61645 7.24453 3.64159 7.30598C3.66673 7.36742 3.70386 7.42325 3.7508 7.4702C3.79775 7.51714 3.85357 7.55427 3.91502 7.57941C3.97647 7.60455 4.04231 7.6172 4.1087 7.61663C4.17509 7.61605 4.2407 7.60226 4.3017 7.57605C4.3627 7.54985 4.41788 7.51176 4.464 7.464C4.55508 7.3697 4.60548 7.2434 4.60434 7.1123C4.6032 6.9812 4.55061 6.85579 4.45791 6.76309C4.36521 6.67039 4.2398 6.6178 4.1087 6.61666C3.9776 6.61552 3.8513 6.66592 3.757 6.757ZM8 7C6.93913 7 5.92172 7.42143 5.17157 8.17157C4.42143 8.92172 4 9.93913 4 11C4 11.1326 4.05268 11.2598 4.14645 11.3536C4.24021 11.4473 4.36739 11.5 4.5 11.5H11.5C11.6326 11.5 11.7598 11.4473 11.8536 11.3536C11.9473 11.2598 12 11.1326 12 11C12 9.93913 11.5786 8.92172 10.8284 8.17157C10.0783 7.42143 9.06087 7 8 7ZM8 8C8.70913 7.99977 9.39541 8.25075 9.93709 8.7084C10.4788 9.16605 10.8408 9.80079 10.959 10.5H5.04C5.15822 9.80062 5.52041 9.16575 6.0623 8.70808C6.60418 8.25041 7.2907 7.99954 8 8Z" fill="black"/>
</svg>
