<svg width="16" height="16" viewBox="0 0 16 16" fill="none" xmlns="http://www.w3.org/2000/svg">
<path d="M8 11C7.20435 11 6.44129 10.6839 5.87868 10.1213C5.31607 9.55871 5 8.79565 5 8C5 7.20435 5.31607 6.44129 5.87868 5.87868C6.44129 5.31607 7.20435 5 8 5C8.79565 5 9.55871 5.31607 10.1213 5.87868C10.6839 6.44129 11 7.20435 11 8C11 8.79565 10.6839 9.55871 10.1213 10.1213C9.55871 10.6839 8.79565 11 8 11ZM8 12C9.06087 12 10.0783 11.5786 10.8284 10.8284C11.5786 10.0783 12 9.06087 12 8C12 6.93913 11.5786 5.92172 10.8284 5.17157C10.0783 4.42143 9.06087 4 8 4C6.93913 4 5.92172 4.42143 5.17157 5.17157C4.42143 5.92172 4 6.93913 4 8C4 9.06087 4.42143 10.0783 5.17157 10.8284C5.92172 11.5786 6.93913 12 8 12ZM8.5 2.5C8.5 2.63261 8.44732 2.75979 8.35355 2.85355C8.25979 2.94732 8.13261 3 8 3C7.86739 3 7.74021 2.94732 7.64645 2.85355C7.55268 2.75979 7.5 2.63261 7.5 2.5C7.5 2.36739 7.55268 2.24021 7.64645 2.14645C7.74021 2.05268 7.86739 2 8 2C8.13261 2 8.25979 2.05268 8.35355 2.14645C8.44732 2.24021 8.5 2.36739 8.5 2.5ZM8.5 13.5C8.5 13.6326 8.44732 13.7598 8.35355 13.8536C8.25979 13.9473 8.13261 14 8 14C7.86739 14 7.74021 13.9473 7.64645 13.8536C7.55268 13.7598 7.5 13.6326 7.5 13.5C7.5 13.3674 7.55268 13.2402 7.64645 13.1464C7.74021 13.0527 7.86739 13 8 13C8.13261 13 8.25979 13.0527 8.35355 13.1464C8.44732 13.2402 8.5 13.3674 8.5 13.5ZM13.5 8.5C13.3674 8.5 13.2402 8.44732 13.1464 8.35355C13.0527 8.25979 13 8.13261 13 8C13 7.86739 13.0527 7.74021 13.1464 7.64645C13.2402 7.55268 13.3674 7.5 13.5 7.5C13.6326 7.5 13.7598 7.55268 13.8536 7.64645C13.9473 7.74021 14 7.86739 14 8C14 8.13261 13.9473 8.25979 13.8536 8.35355C13.7598 8.44732 13.6326 8.5 13.5 8.5ZM2.5 8.5C2.36739 8.5 2.24021 8.44732 2.14645 8.35355C2.05268 8.25979 2 8.13261 2 8C2 7.86739 2.05268 7.74021 2.14645 7.64645C2.24021 7.55268 2.36739 7.5 2.5 7.5C2.63261 7.5 2.75979 7.55268 2.85355 7.64645C2.94732 7.74021 3 7.86739 3 8C3 8.13261 2.94732 8.25979 2.85355 8.35355C2.75979 8.44732 2.63261 8.5 2.5 8.5ZM12.243 4.464C12.1969 4.51176 12.1417 4.54985 12.0807 4.57605C12.0197 4.60226 11.9541 4.61605 11.8877 4.61663C11.8213 4.6172 11.7555 4.60455 11.694 4.57941C11.6326 4.55427 11.5767 4.51714 11.5298 4.4702C11.4829 4.42325 11.4457 4.36742 11.4206 4.30598C11.3954 4.24453 11.3828 4.17869 11.3834 4.1123C11.384 4.04591 11.3977 3.9803 11.4239 3.9193C11.4502 3.8583 11.4882 3.80312 11.536 3.757C11.6303 3.66592 11.7566 3.61552 11.8877 3.61666C12.0188 3.6178 12.1442 3.67039 12.2369 3.76309C12.3296 3.85579 12.3822 3.9812 12.3833 4.1123C12.3845 4.2434 12.3341 4.3697 12.243 4.464ZM4.464 12.243C4.41788 12.2908 4.3627 12.3288 4.3017 12.3551C4.2407 12.3813 4.17509 12.395 4.1087 12.3956C4.04231 12.3962 3.97647 12.3836 3.91502 12.3584C3.85357 12.3333 3.79775 12.2961 3.7508 12.2492C3.70386 12.2023 3.66673 12.1464 3.64159 12.085C3.61645 12.0235 3.6038 11.9577 3.60437 11.8913C3.60495 11.8249 3.61874 11.7593 3.64495 11.6983C3.67115 11.6373 3.70924 11.5821 3.757 11.536C3.8513 11.4449 3.9776 11.3945 4.1087 11.3957C4.2398 11.3968 4.36521 11.4494 4.45791 11.5421C4.55061 11.6348 4.6032 11.7602 4.60434 11.8913C4.60548 12.0224 4.55508 12.1487 4.464 12.243ZM11.536 12.243C11.4882 12.1969 11.4502 12.1417 11.4239 12.0807C11.3977 12.0197 11.384 11.9541 11.3834 11.8877C11.3828 11.8213 11.3954 11.7555 11.4206 11.694C11.4457 11.6326 11.4829 11.5767 11.5298 11.5298C11.5767 11.4829 11.6326 11.4457 11.694 11.4206C11.7555 11.3954 11.8213 11.3828 11.8877 11.3834C11.9541 11.384 12.0197 11.3977 12.0807 11.4239C12.1417 11.4502 12.1969 11.4882 12.243 11.536C12.3341 11.6303 12.3845 11.7566 12.3833 11.8877C12.3822 12.0188 12.3296 12.1442 12.2369 12.2369C12.1442 12.3296 12.0188 12.3822 11.8877 12.3833C11.7566 12.3845 11.6303 12.3341 11.536 12.243ZM3.757 4.464C3.70924 4.41788 3.67115 4.3627 3.64495 4.3017C3.61874 4.2407 3.60495 4.17509 3.60437 4.1087C3.6038 4.04231 3.61645 3.97647 3.64159 3.91502C3.66673 3.85357 3.70386 3.79775 3.7508 3.7508C3.79775 3.70386 3.85357 3.66673 3.91502 3.64159C3.97647 3.61645 4.04231 3.6038 4.1087 3.60437C4.17509 3.60495 4.2407 3.61874 4.3017 3.64495C4.3627 3.67115 4.41788 3.70924 4.464 3.757C4.55508 3.8513 4.60548 3.9776 4.60434 4.1087C4.6032 4.2398 4.55061 4.36521 4.45791 4.45791C4.36521 4.55061 4.2398 4.6032 4.1087 4.60434C3.9776 4.60548 3.8513 4.55508 3.757 4.464Z" fill="black"/>
</svg>
