<svg width="16" height="16" viewBox="0 0 16 16" fill="none" xmlns="http://www.w3.org/2000/svg">
<g clip-path="url(#clip0_104_803)">
<path d="M8 3C8.13261 3 8.25979 3.05268 8.35355 3.14645C8.44732 3.24021 8.5 3.36739 8.5 3.5V5.5C8.5 5.63261 8.44732 5.75979 8.35355 5.85355C8.25979 5.94732 8.13261 6 8 6C7.86739 6 7.74021 5.94732 7.64645 5.85355C7.55268 5.75979 7.5 5.63261 7.5 5.5V3.5C7.5 3.36739 7.55268 3.24021 7.64645 3.14645C7.74021 3.05268 7.86739 3 8 3ZM16 11C16 11.1326 15.9473 11.2598 15.8536 11.3536C15.7598 11.4473 15.6326 11.5 15.5 11.5H13.5C13.3674 11.5 13.2402 11.4473 13.1464 11.3536C13.0527 11.2598 13 11.1326 13 11C13 10.8674 13.0527 10.7402 13.1464 10.6464C13.2402 10.5527 13.3674 10.5 13.5 10.5H15.5C15.6326 10.5 15.7598 10.5527 15.8536 10.6464C15.9473 10.7402 16 10.8674 16 11ZM2.5 11.5C2.63261 11.5 2.75979 11.4473 2.85355 11.3536C2.94732 11.2598 3 11.1326 3 11C3 10.8674 2.94732 10.7402 2.85355 10.6464C2.75979 10.5527 2.63261 10.5 2.5 10.5H0.5C0.367392 10.5 0.240215 10.5527 0.146447 10.6464C0.0526784 10.7402 0 10.8674 0 11C0 11.1326 0.0526784 11.2598 0.146447 11.3536C0.240215 11.4473 0.367392 11.5 0.5 11.5H2.5ZM13.657 5.343C13.7507 5.43676 13.8034 5.56392 13.8034 5.6965C13.8034 5.82908 13.7507 5.95624 13.657 6.05L12.243 7.464C12.1969 7.51176 12.1417 7.54985 12.0807 7.57605C12.0197 7.60226 11.9541 7.61605 11.8877 7.61663C11.8213 7.6172 11.7555 7.60455 11.694 7.57941C11.6326 7.55427 11.5767 7.51714 11.5298 7.4702C11.4829 7.42325 11.4457 7.36742 11.4206 7.30598C11.3954 7.24453 11.3828 7.17869 11.3834 7.1123C11.384 7.04591 11.3977 6.9803 11.4239 6.9193C11.4502 6.8583 11.4882 6.80312 11.536 6.757L12.95 5.343C13.0438 5.24926 13.1709 5.19661 13.3035 5.19661C13.4361 5.19661 13.5632 5.24926 13.657 5.343ZM3.757 7.464C3.8513 7.55508 3.9776 7.60548 4.1087 7.60434C4.2398 7.6032 4.3652 7.55061 4.45791 7.45791C4.55061 7.3652 4.6032 7.2398 4.60434 7.1087C4.60548 6.9776 4.55508 6.8513 4.464 6.757L3.05 5.343C3.00388 5.29524 2.9487 5.25715 2.8877 5.23095C2.8267 5.20474 2.76109 5.19095 2.6947 5.19037C2.62831 5.1898 2.56247 5.20245 2.50102 5.22759C2.43957 5.25273 2.38375 5.28986 2.3368 5.3368C2.28986 5.38375 2.25273 5.43957 2.22759 5.50102C2.20245 5.56247 2.1898 5.62831 2.19037 5.6947C2.19095 5.76109 2.20474 5.8267 2.23095 5.8877C2.25715 5.9487 2.29524 6.00388 2.343 6.05L3.757 7.464ZM8 7C6.93913 7 5.92172 7.42143 5.17157 8.17157C4.42143 8.92172 4 9.93913 4 11C4 11.1326 4.05268 11.2598 4.14645 11.3536C4.24021 11.4473 4.36739 11.5 4.5 11.5H11.5C11.6326 11.5 11.7598 11.4473 11.8536 11.3536C11.9473 11.2598 12 11.1326 12 11C12 9.93913 11.5786 8.92172 10.8284 8.17157C10.0783 7.42143 9.06087 7 8 7ZM8 8C8.70913 7.99977 9.39541 8.25075 9.93709 8.7084C10.4788 9.16605 10.8408 9.80079 10.959 10.5H5.04C5.15822 9.80062 5.52041 9.16575 6.0623 8.70808C6.60418 8.25041 7.2907 7.99954 8 8Z" fill="black"/>
</g>
<defs>
<clipPath id="clip0_104_803">
<rect width="16" height="16" fill="white"/>
</clipPath>
</defs>
</svg>
