<svg width="16" height="16" viewBox="0 0 16 16" fill="none" xmlns="http://www.w3.org/2000/svg">
<g clip-path="url(#clip0_104_821)">
<path d="M3.05 3.04999C2.39991 3.70001 1.88423 4.47172 1.53241 5.32105C1.18058 6.17037 0.999495 7.08068 0.999495 7.99999C0.999495 8.91931 1.18058 9.82962 1.53241 10.6789C1.88423 11.5283 2.39991 12.3 3.05 12.95C3.14108 13.0443 3.19148 13.1706 3.19034 13.3017C3.1892 13.4328 3.13661 13.5582 3.04391 13.6509C2.95121 13.7436 2.8258 13.7962 2.6947 13.7973C2.5636 13.7985 2.4373 13.7481 2.343 13.657C1.60009 12.9141 1.01077 12.0322 0.608711 11.0616C0.206648 10.0909 -0.000291824 9.0506 -0.000291824 7.99999C-0.000291824 6.94938 0.206648 5.90906 0.608711 4.93843C1.01077 3.9678 1.60009 3.08587 2.343 2.34299C2.4373 2.25192 2.5636 2.20152 2.6947 2.20266C2.8258 2.2038 2.95121 2.25638 3.04391 2.34909C3.13661 2.44179 3.1892 2.5672 3.19034 2.69829C3.19148 2.82939 3.14108 2.95569 3.05 3.04999ZM5.172 5.17199C4.42212 5.92211 4.00085 6.93934 4.00085 7.99999C4.00085 9.06065 4.42212 10.0779 5.172 10.828C5.21849 10.8745 5.25536 10.9297 5.28052 10.9904C5.30568 11.0512 5.31863 11.1163 5.31863 11.182C5.31863 11.2477 5.30568 11.3128 5.28052 11.3736C5.25536 11.4343 5.21849 11.4895 5.172 11.536C5.12551 11.5825 5.07032 11.6194 5.00958 11.6445C4.94884 11.6697 4.88374 11.6826 4.818 11.6826C4.75226 11.6826 4.68716 11.6697 4.62642 11.6445C4.56568 11.6194 4.51049 11.5825 4.464 11.536C3.99957 11.0717 3.63115 10.5204 3.3798 9.91372C3.12844 9.307 2.99907 8.65671 2.99907 7.99999C2.99907 7.34327 3.12844 6.69299 3.3798 6.08627C3.63115 5.47956 3.99957 4.9283 4.464 4.46399C4.55789 4.37011 4.68522 4.31736 4.818 4.31736C4.95078 4.31736 5.07811 4.37011 5.172 4.46399C5.26589 4.55788 5.31863 4.68522 5.31863 4.81799C5.31863 4.95077 5.26589 5.07811 5.172 5.17199ZM10.828 4.46399C10.8744 4.41743 10.9296 4.38049 10.9904 4.35528C11.0511 4.33008 11.1162 4.3171 11.182 4.3171C11.2478 4.3171 11.3129 4.33008 11.3736 4.35528C11.4344 4.38049 11.4896 4.41743 11.536 4.46399C12.0004 4.9283 12.3688 5.47956 12.6202 6.08627C12.8716 6.69299 13.0009 7.34327 13.0009 7.99999C13.0009 8.65671 12.8716 9.307 12.6202 9.91372C12.3688 10.5204 12.0004 11.0717 11.536 11.536C11.4895 11.5825 11.4343 11.6194 11.3736 11.6445C11.3128 11.6697 11.2477 11.6826 11.182 11.6826C11.1163 11.6826 11.0512 11.6697 10.9904 11.6445C10.9297 11.6194 10.8745 11.5825 10.828 11.536C10.7815 11.4895 10.7446 11.4343 10.7195 11.3736C10.6943 11.3128 10.6814 11.2477 10.6814 11.182C10.6814 11.1163 10.6943 11.0512 10.7195 10.9904C10.7446 10.9297 10.7815 10.8745 10.828 10.828C11.5779 10.0779 11.9991 9.06065 11.9991 7.99999C11.9991 6.93934 11.5779 5.92211 10.828 5.17199C10.7814 5.12555 10.7445 5.07037 10.7193 5.00963C10.6941 4.94888 10.6811 4.88376 10.6811 4.81799C10.6811 4.75223 10.6941 4.68711 10.7193 4.62636C10.7445 4.56562 10.7814 4.51044 10.828 4.46399ZM12.95 2.34399C13.0438 2.25026 13.1709 2.1976 13.3035 2.1976C13.4361 2.1976 13.5632 2.25026 13.657 2.34399C15.1571 3.84426 15.9998 5.87894 15.9998 8.00049C15.9998 10.1221 15.1571 12.1567 13.657 13.657C13.5627 13.7481 13.4364 13.7985 13.3053 13.7973C13.1742 13.7962 13.0488 13.7436 12.9561 13.6509C12.8634 13.5582 12.8108 13.4328 12.8097 13.3017C12.8085 13.1706 12.8589 13.0443 12.95 12.95C13.6001 12.3 14.1158 11.5283 14.4676 10.6789C14.8194 9.82962 15.0005 8.91931 15.0005 7.99999C15.0005 7.08068 14.8194 6.17037 14.4676 5.32105C14.1158 4.47172 13.6001 3.70001 12.95 3.04999C12.8563 2.95623 12.8036 2.82908 12.8036 2.69649C12.8036 2.56391 12.8563 2.43676 12.95 2.34299V2.34399ZM6 7.99999C6.00009 7.62595 6.10508 7.25943 6.30304 6.94205C6.50099 6.62468 6.78398 6.36918 7.11986 6.20458C7.45574 6.03997 7.83104 5.97285 8.20316 6.01085C8.57527 6.04884 8.92927 6.19043 9.22495 6.41952C9.52063 6.64861 9.74614 6.95603 9.87586 7.30686C10.0056 7.65769 10.0343 8.03787 9.95883 8.40421C9.88333 8.77056 9.7066 9.10839 9.44873 9.37934C9.19086 9.65028 8.86217 9.84348 8.5 9.93699V15.5C8.5 15.6326 8.44732 15.7598 8.35355 15.8535C8.25979 15.9473 8.13261 16 8 16C7.86739 16 7.74021 15.9473 7.64645 15.8535C7.55268 15.7598 7.5 15.6326 7.5 15.5V9.93699C7.0706 9.82612 6.69023 9.57568 6.4187 9.22505C6.14718 8.87441 5.99989 8.44347 6 7.99999Z" fill="black"/>
</g>
<defs>
<clipPath id="clip0_104_821">
<rect width="16" height="16" fill="white"/>
</clipPath>
</defs>
</svg>
