<svg width="16" height="16" viewBox="0 0 16 16" fill="none" xmlns="http://www.w3.org/2000/svg">
<g clip-path="url(#clip0_104_823)">
<path d="M15.825 0.119998C15.9071 0.190061 15.9643 0.284797 15.9881 0.390056C16.0119 0.495315 16.001 0.605446 15.957 0.703998C14.427 4.134 11.214 8.874 8.862 11.344C8.20276 12.035 7.38971 12.5606 6.489 12.878C6.471 13.105 6.429 13.416 6.329 13.746C6.128 14.405 5.662 15.225 4.621 15.486C3.61283 15.7261 2.56802 15.7709 1.543 15.618C1.3524 15.5879 1.16448 15.5427 0.981001 15.483C0.811251 15.4313 0.653037 15.3475 0.515001 15.236C0.423972 15.1586 0.353829 15.0596 0.311001 14.948C0.257919 14.8048 0.259342 14.6472 0.315001 14.505C0.410001 14.26 0.631001 14.125 0.776001 14.053C1.17 13.856 1.401 13.6 1.643 13.227C1.738 13.083 1.827 12.93 1.93 12.755L2.047 12.557C2.198 12.302 2.373 12.017 2.593 11.709C3.121 10.97 3.794 10.784 4.339 10.813C4.465 10.82 4.582 10.838 4.687 10.861C4.749 10.689 4.829 10.481 4.925 10.253C5.186 9.634 5.583 8.834 6.112 8.184C8.288 5.514 12.292 1.978 15.229 0.0799982C15.3194 0.0216378 15.4263 -0.00599222 15.5336 0.0012142C15.641 0.00842063 15.7432 0.0500788 15.825 0.119998ZM4.705 11.912C4.5723 11.8543 4.43046 11.8204 4.286 11.812C4.04 11.799 3.713 11.862 3.407 12.291C3.21 12.566 3.052 12.823 2.907 13.068L2.802 13.245C2.696 13.426 2.589 13.607 2.482 13.773C2.27948 14.1011 2.02246 14.3923 1.722 14.634C2.412 14.746 3.458 14.745 4.379 14.514C4.938 14.375 5.222 13.945 5.372 13.454C5.44441 13.2101 5.48672 12.9582 5.498 12.704L4.705 11.912ZM6.145 11.938C6.265 11.898 6.422 11.838 6.603 11.755C7.17907 11.4877 7.69977 11.1146 8.138 10.655C10.038 8.659 12.55 5.085 14.19 2.024C11.6 3.951 8.624 6.684 6.888 8.816C6.446 9.359 6.093 10.059 5.846 10.642C5.725 10.93 5.632 11.182 5.571 11.362V11.363L6.146 11.938H6.145ZM1.172 14.978L1.179 14.973C1.17685 14.9746 1.1745 14.976 1.172 14.977V14.978ZM4.754 11.935L4.756 11.936H4.754V11.935Z" fill="black"/>
</g>
<defs>
<clipPath id="clip0_104_823">
<rect width="16" height="16" fill="white"/>
</clipPath>
</defs>
</svg>
