<svg width="16" height="16" viewBox="0 0 16 16" fill="none" xmlns="http://www.w3.org/2000/svg">
<g clip-path="url(#clip0_104_825)">
<path d="M15.825 0.119998C15.9071 0.190061 15.9643 0.284797 15.9881 0.390056C16.0119 0.495315 16.001 0.605446 15.957 0.703998C14.427 4.134 11.214 8.874 8.862 11.344C8.20276 12.035 7.38971 12.5606 6.489 12.878C6.471 13.105 6.429 13.416 6.329 13.746C6.128 14.405 5.662 15.225 4.621 15.486C3.61283 15.7261 2.56802 15.7709 1.543 15.618C1.3524 15.5879 1.16448 15.5427 0.980997 15.483C0.811248 15.4313 0.653034 15.3475 0.514997 15.236C0.423968 15.1586 0.353825 15.0596 0.310997 14.948C0.257915 14.8048 0.259339 14.6472 0.314997 14.505C0.409997 14.26 0.630997 14.125 0.775997 14.053C1.17 13.856 1.401 13.6 1.643 13.227C1.738 13.083 1.827 12.93 1.93 12.755L2.047 12.557C2.198 12.302 2.373 12.017 2.593 11.709C3.121 10.97 3.794 10.784 4.339 10.813C4.465 10.82 4.582 10.838 4.687 10.861C4.749 10.689 4.829 10.481 4.925 10.253C5.186 9.634 5.583 8.834 6.112 8.184C8.288 5.514 12.292 1.978 15.229 0.0799982C15.3194 0.0216378 15.4263 -0.00599222 15.5336 0.0012142C15.641 0.00842063 15.7432 0.0500788 15.825 0.119998Z" fill="black"/>
</g>
<defs>
<clipPath id="clip0_104_825">
<rect width="16" height="16" fill="white"/>
</clipPath>
</defs>
</svg>
