<svg width="24" height="24" viewBox="0 0 24 24" xmlns="http://www.w3.org/2000/svg" fill='currentColor'><path d="M7.2 17.6C8.96731 17.6 10.4 16.1673 10.4 14.4C10.4 12.6327 8.96731 11.2 7.2 11.2C5.43269 11.2 4 12.6327 4 14.4C4 16.1673 5.43269 17.6 7.2 17.6Z"/><path d="M14.8 20C15.9046 20 16.8 19.1046 16.8 18C16.8 16.8954 15.9046 16 14.8 16C13.6954 16 12.8 16.8954 12.8 18C12.8 19.1046 13.6954 20 14.8 20Z"/><path d="M15.2 13.6C17.851 13.6 20 11.451 20 8.8C20 6.14903 17.851 4 15.2 4C12.549 4 10.4 6.14903 10.4 8.8C10.4 11.451 12.549 13.6 15.2 13.6Z"/></svg>