<svg width="16" height="16" viewBox="0 0 16 16" xmlns="http://www.w3.org/2000/svg" fill='currentColor'><g clip-path="url(#clip0_104_827)"><path d="M2.52199 5.00001H1.99999C1.92812 5.00008 1.85711 5.01565 1.79179 5.04565C1.72648 5.07565 1.6684 5.11938 1.62151 5.17386C1.57463 5.22833 1.54004 5.29228 1.5201 5.36133C1.50017 5.43039 1.49536 5.50293 1.50599 5.57401L2.87799 14.723C2.93136 15.078 3.11025 15.402 3.38217 15.6364C3.6541 15.8707 4.00104 15.9997 4.35999 16H11.638C11.9971 15.9999 12.3443 15.871 12.6164 15.6367C12.8886 15.4023 13.0676 15.0781 13.121 14.723L14.494 5.57401C14.5046 5.50293 14.4998 5.43039 14.4799 5.36133C14.4599 5.29228 14.4254 5.22833 14.3785 5.17386C14.3316 5.11938 14.2735 5.07565 14.2082 5.04565C14.1429 5.01565 14.0719 5.00008 14 5.00001H13.478C13.3553 3.63189 12.725 2.35922 11.7113 1.43233C10.6975 0.50545 9.37361 -0.00854492 7.99999 -0.00854492C6.62638 -0.00854492 5.30248 0.50545 4.28872 1.43233C3.27497 2.35922 2.64473 3.63189 2.52199 5.00001ZM3.52699 5.00001C3.64924 3.89932 4.17308 2.88235 4.99827 2.14374C5.82346 1.40513 6.89203 0.996745 7.99949 0.996745C9.10696 0.996745 10.1755 1.40513 11.0007 2.14374C11.8259 2.88235 12.3497 3.89932 12.472 5.00001H3.52699ZM13.419 6.00001L12.133 14.574C12.1153 14.6924 12.0557 14.8005 11.965 14.8787C11.8744 14.9568 11.7587 14.9999 11.639 15H4.35999C4.24029 14.9999 4.12461 14.9568 4.03396 14.8787C3.94331 14.8005 3.88371 14.6924 3.86599 14.574L2.57999 6.00001H13.418H13.419Z"/></g><defs><clipPath id="clip0_104_827"><rect width="16" height="16"/></clipPath></defs></svg>