<svg width="16" height="16" viewBox="0 0 16 16" fill="none" xmlns="http://www.w3.org/2000/svg">
<path d="M4.978 0.854995C4.96129 0.789571 4.93149 0.728211 4.89041 0.674617C4.84933 0.621023 4.79782 0.576306 4.73899 0.543162C4.68015 0.510018 4.61522 0.489135 4.54809 0.481772C4.48097 0.474409 4.41305 0.480718 4.34843 0.50032C4.28381 0.519922 4.22383 0.55241 4.17211 0.595824C4.12039 0.639239 4.078 0.69268 4.0475 0.752924C4.01699 0.813168 3.99901 0.878966 3.99463 0.94635C3.99024 1.01373 3.99956 1.08131 4.022 1.14499L4.432 2.49699C3.51278 3.43104 2.99833 4.68949 3 5.99999H13C13.0017 4.68949 12.4872 3.43104 11.568 2.49699L11.978 1.14499C12.0005 1.08131 12.0098 1.01373 12.0054 0.94635C12.001 0.878966 11.983 0.813168 11.9525 0.752924C11.922 0.69268 11.8796 0.639239 11.8279 0.595824C11.7762 0.55241 11.7162 0.519922 11.6516 0.50032C11.587 0.480718 11.519 0.474409 11.4519 0.481772C11.3848 0.489135 11.3199 0.510018 11.261 0.543162C11.2022 0.576306 11.1507 0.621023 11.1096 0.674617C11.0685 0.728211 11.0387 0.789571 11.022 0.854995L10.731 1.81099C9.91912 1.28038 8.96991 0.998505 8 0.999995C7.03011 0.998563 6.08092 1.28044 5.269 1.81099L4.979 0.854995H4.978Z" fill="black"/>
<path d="M13 6V7H8.5V15.975C9.73332 15.851 10.8766 15.2734 11.7081 14.3541C12.5396 13.4349 13 12.2395 13 11H13.5C13.6326 11 13.7598 11.0527 13.8536 11.1464C13.9473 11.2402 14 11.3674 14 11.5V12C14 12.1326 14.0527 12.2598 14.1464 12.3536C14.2402 12.4473 14.3674 12.5 14.5 12.5C14.6326 12.5 14.7598 12.4473 14.8536 12.3536C14.9473 12.2598 15 12.1326 15 12V11.5C15 11.1022 14.842 10.7206 14.5607 10.4393C14.2794 10.158 13.8978 10 13.5 10H13V9H14.5C14.6326 9 14.7598 8.94732 14.8536 8.85355C14.9473 8.75979 15 8.63261 15 8.5C15 8.36739 14.9473 8.24021 14.8536 8.14645C14.7598 8.05268 14.6326 8 14.5 8H13V7H13.5C13.8978 7 14.2794 6.84196 14.5607 6.56066C14.842 6.27936 15 5.89782 15 5.5V5C15 4.86739 14.9473 4.74021 14.8536 4.64645C14.7598 4.55268 14.6326 4.5 14.5 4.5C14.3674 4.5 14.2402 4.55268 14.1464 4.64645C14.0527 4.74021 14 4.86739 14 5V5.5C14 5.63261 13.9473 5.75979 13.8536 5.85355C13.7598 5.94732 13.6326 6 13.5 6H13ZM7.5 15.975V7H3V6H2.5C2.36739 6 2.24021 5.94732 2.14645 5.85355C2.05268 5.75979 2 5.63261 2 5.5V5C2 4.86739 1.94732 4.74021 1.85355 4.64645C1.75979 4.55268 1.63261 4.5 1.5 4.5C1.36739 4.5 1.24021 4.55268 1.14645 4.64645C1.05268 4.74021 1 4.86739 1 5V5.5C1 5.89782 1.15804 6.27936 1.43934 6.56066C1.72064 6.84196 2.10218 7 2.5 7H3V8H1.5C1.36739 8 1.24021 8.05268 1.14645 8.14645C1.05268 8.24021 1 8.36739 1 8.5C1 8.63261 1.05268 8.75979 1.14645 8.85355C1.24021 8.94732 1.36739 9 1.5 9H3V10H2.5C2.10218 10 1.72064 10.158 1.43934 10.4393C1.15804 10.7206 1 11.1022 1 11.5V12C1 12.1326 1.05268 12.2598 1.14645 12.3536C1.24021 12.4473 1.36739 12.5 1.5 12.5C1.63261 12.5 1.75979 12.4473 1.85355 12.3536C1.94732 12.2598 2 12.1326 2 12V11.5C2 11.3674 2.05268 11.2402 2.14645 11.1464C2.24021 11.0527 2.36739 11 2.5 11H3C2.99998 12.2395 3.46038 13.4349 4.29188 14.3541C5.12337 15.2734 6.26668 15.851 7.5 15.975Z" fill="black"/>
</svg>
