<svg width="16" height="16" viewBox="0 0 16 16" fill="none" xmlns="http://www.w3.org/2000/svg">
<path d="M4.355 0.521999C4.48177 0.483679 4.61857 0.49722 4.73537 0.559651C4.85217 0.622082 4.93943 0.728302 4.978 0.854999L5.269 1.811C6.08091 1.28044 7.03011 0.998567 8 0.999999C9.007 0.999999 9.946 1.298 10.731 1.811L11.021 0.854999C11.0397 0.791738 11.0707 0.732797 11.1122 0.681573C11.1538 0.630348 11.2051 0.587853 11.2631 0.556535C11.3212 0.525216 11.3849 0.505694 11.4505 0.499092C11.5161 0.492491 11.5824 0.498941 11.6455 0.51807C11.7087 0.537199 11.7674 0.56863 11.8183 0.610552C11.8692 0.652473 11.9114 0.704057 11.9423 0.762332C11.9732 0.820606 11.9922 0.884419 11.9984 0.950095C12.0045 1.01577 11.9976 1.08201 11.978 1.145L11.568 2.497C12.4872 3.43104 13.0017 4.6895 13 6H13.5C13.6326 6 13.7598 5.94732 13.8536 5.85355C13.9473 5.75978 14 5.63261 14 5.5V5C14 4.86739 14.0527 4.74021 14.1464 4.64645C14.2402 4.55268 14.3674 4.5 14.5 4.5C14.6326 4.5 14.7598 4.55268 14.8536 4.64645C14.9473 4.74021 15 4.86739 15 5V5.5C15 5.89782 14.842 6.27936 14.5607 6.56066C14.2794 6.84196 13.8978 7 13.5 7H13V8H14.5C14.6326 8 14.7598 8.05268 14.8536 8.14645C14.9473 8.24021 15 8.36739 15 8.5C15 8.63261 14.9473 8.75978 14.8536 8.85355C14.7598 8.94732 14.6326 9 14.5 9H13V10H13.5C13.8978 10 14.2794 10.158 14.5607 10.4393C14.842 10.7206 15 11.1022 15 11.5V12C15 12.1326 14.9473 12.2598 14.8536 12.3536C14.7598 12.4473 14.6326 12.5 14.5 12.5C14.3674 12.5 14.2402 12.4473 14.1464 12.3536C14.0527 12.2598 14 12.1326 14 12V11.5C14 11.3674 13.9473 11.2402 13.8536 11.1464C13.7598 11.0527 13.6326 11 13.5 11H13C13 12.3261 12.4732 13.5979 11.5355 14.5355C10.5979 15.4732 9.32608 16 8 16C6.67392 16 5.40215 15.4732 4.46447 14.5355C3.52678 13.5979 3 12.3261 3 11H2.5C2.36739 11 2.24021 11.0527 2.14645 11.1464C2.05268 11.2402 2 11.3674 2 11.5V12C2 12.1326 1.94732 12.2598 1.85355 12.3536C1.75979 12.4473 1.63261 12.5 1.5 12.5C1.36739 12.5 1.24021 12.4473 1.14645 12.3536C1.05268 12.2598 1 12.1326 1 12V11.5C1 11.1022 1.15804 10.7206 1.43934 10.4393C1.72064 10.158 2.10218 10 2.5 10H3V9H1.5C1.36739 9 1.24021 8.94732 1.14645 8.85355C1.05268 8.75978 1 8.63261 1 8.5C1 8.36739 1.05268 8.24021 1.14645 8.14645C1.24021 8.05268 1.36739 8 1.5 8H3V7H2.5C2.10218 7 1.72064 6.84196 1.43934 6.56066C1.15804 6.27936 1 5.89782 1 5.5V5C1 4.86739 1.05268 4.74021 1.14645 4.64645C1.24021 4.55268 1.36739 4.5 1.5 4.5C1.63261 4.5 1.75979 4.55268 1.85355 4.64645C1.94732 4.74021 2 4.86739 2 5V5.5C2 5.63261 2.05268 5.75978 2.14645 5.85355C2.24021 5.94732 2.36739 6 2.5 6H3C3 4.636 3.547 3.399 4.432 2.497L4.022 1.145C3.98368 1.01823 3.99722 0.881429 4.05965 0.764628C4.12208 0.647828 4.2283 0.560569 4.355 0.521999ZM4 7V11C3.99967 11.9745 4.35509 12.9156 4.99955 13.6466C5.644 14.3776 6.53314 14.8482 7.5 14.97V7H4ZM8.5 7V14.97C9.46686 14.8482 10.356 14.3776 11.0005 13.6466C11.6449 12.9156 12.0003 11.9745 12 11V7H8.5ZM12 6C12.0007 5.43695 11.8822 4.88014 11.6523 4.36618C11.4223 3.85222 11.0862 3.39275 10.666 3.018C9.93357 2.36103 8.9839 1.9984 8 2C7.01576 1.99815 6.06568 2.3608 5.333 3.018C4.91297 3.39284 4.57703 3.85235 4.34728 4.36631C4.11754 4.88026 3.99918 5.43703 4 6H12Z" fill="black"/>
</svg>
