<svg width="24" height="24" viewBox="0 0 24 24" xmlns="http://www.w3.org/2000/svg" fill='currentColor'><path d="M16.0269 1C14.8881 0.999847 13.7664 1.27756 12.7592 1.80906C11.7519 2.34056 10.8896 3.10978 10.2469 4.05L10.2669 4.02C9.86695 4 9.44695 4 9.02695 4C4.60695 4 1.02695 4.5 1.02695 8V18C1.02695 18.88 1.41695 19.67 2.02695 20.22V22C2.02695 22.2652 2.1323 22.5196 2.31984 22.7071C2.50738 22.8946 2.76173 23 3.02695 23H4.02695C4.29216 23 4.54652 22.8946 4.73405 22.7071C4.92159 22.5196 5.02695 22.2652 5.02695 22V21H13.0269V22C13.0269 22.2652 13.1323 22.5196 13.3198 22.7071C13.5074 22.8946 13.7617 23 14.0269 23H15.0269C15.2922 23 15.5465 22.8946 15.7341 22.7071C15.9216 22.5196 16.0269 22.2652 16.0269 22V20.22C16.6369 19.67 17.0269 18.88 17.0269 18V14.92C18.7673 14.655 20.3438 13.7439 21.4425 12.3685C22.5411 10.993 23.0812 9.25407 22.955 7.49821C22.8289 5.74235 22.0458 4.09849 20.7618 2.89418C19.4779 1.68987 17.7873 1.01356 16.0269 1ZM4.52695 19C4.12912 19 3.74759 18.842 3.46629 18.5607C3.18498 18.2794 3.02695 17.8978 3.02695 17.5C3.02695 17.1022 3.18498 16.7206 3.46629 16.4393C3.74759 16.158 4.12912 16 4.52695 16C4.92477 16 5.3063 16.158 5.58761 16.4393C5.86891 16.7206 6.02695 17.1022 6.02695 17.5C6.02695 17.8978 5.86891 18.2794 5.58761 18.5607C5.3063 18.842 4.92477 19 4.52695 19ZM3.02695 13V8H9.02695C9.02695 9.96 9.83695 11.73 11.1369 13H3.02695ZM13.5269 19C13.1291 19 12.7476 18.842 12.4663 18.5607C12.185 18.2794 12.0269 17.8978 12.0269 17.5C12.0269 17.1022 12.185 16.7206 12.4663 16.4393C12.7476 16.158 13.1291 16 13.5269 16C13.9248 16 14.3063 16.158 14.5876 16.4393C14.8689 16.7206 15.0269 17.1022 15.0269 17.5C15.0269 17.8978 14.8689 18.2794 14.5876 18.5607C14.3063 18.842 13.9248 19 13.5269 19ZM16.0269 13C14.7009 13 13.4291 12.4732 12.4914 11.5355C11.5537 10.5979 11.0269 9.32608 11.0269 8C11.0269 6.67392 11.5537 5.40215 12.4914 4.46447C13.4291 3.52678 14.7009 3 16.0269 3C17.353 3 18.6248 3.52678 19.5625 4.46447C20.5002 5.40215 21.0269 6.67392 21.0269 8C21.0269 9.32608 20.5002 10.5979 19.5625 11.5355C18.6248 12.4732 17.353 13 16.0269 13ZM15.0269 4H17.0269V9H15.0269V4ZM15.0269 10H17.0269V12H15.0269V10Z"/></svg>