<svg width="16" height="16" viewBox="0 0 16 16" fill="none" xmlns="http://www.w3.org/2000/svg">
<g clip-path="url(#clip0_104_844)">
<path d="M12 1C12.2652 1 12.5196 1.10536 12.7071 1.29289C12.8946 1.48043 13 1.73478 13 2V14C13 14.2652 12.8946 14.5196 12.7071 14.7071C12.5196 14.8946 12.2652 15 12 15H4C3.73478 15 3.48043 14.8946 3.29289 14.7071C3.10536 14.5196 3 14.2652 3 14V2C3 1.73478 3.10536 1.48043 3.29289 1.29289C3.48043 1.10536 3.73478 1 4 1H12ZM4 0C3.46957 0 2.96086 0.210714 2.58579 0.585786C2.21071 0.960859 2 1.46957 2 2V14C2 14.5304 2.21071 15.0391 2.58579 15.4142C2.96086 15.7893 3.46957 16 4 16H12C12.5304 16 13.0391 15.7893 13.4142 15.4142C13.7893 15.0391 14 14.5304 14 14V2C14 1.46957 13.7893 0.960859 13.4142 0.585786C13.0391 0.210714 12.5304 0 12 0L4 0Z" fill="black"/>
<path d="M4 2.5C4 2.36739 4.05268 2.24021 4.14645 2.14645C4.24021 2.05268 4.36739 2 4.5 2H11.5C11.6326 2 11.7598 2.05268 11.8536 2.14645C11.9473 2.24021 12 2.36739 12 2.5V4.5C12 4.63261 11.9473 4.75979 11.8536 4.85355C11.7598 4.94732 11.6326 5 11.5 5H4.5C4.36739 5 4.24021 4.94732 4.14645 4.85355C4.05268 4.75979 4 4.63261 4 4.5V2.5ZM4 6.5C4 6.36739 4.05268 6.24021 4.14645 6.14645C4.24021 6.05268 4.36739 6 4.5 6H5.5C5.63261 6 5.75979 6.05268 5.85355 6.14645C5.94732 6.24021 6 6.36739 6 6.5V7.5C6 7.63261 5.94732 7.75979 5.85355 7.85355C5.75979 7.94732 5.63261 8 5.5 8H4.5C4.36739 8 4.24021 7.94732 4.14645 7.85355C4.05268 7.75979 4 7.63261 4 7.5V6.5ZM4 9.5C4 9.36739 4.05268 9.24021 4.14645 9.14645C4.24021 9.05268 4.36739 9 4.5 9H5.5C5.63261 9 5.75979 9.05268 5.85355 9.14645C5.94732 9.24021 6 9.36739 6 9.5V10.5C6 10.6326 5.94732 10.7598 5.85355 10.8536C5.75979 10.9473 5.63261 11 5.5 11H4.5C4.36739 11 4.24021 10.9473 4.14645 10.8536C4.05268 10.7598 4 10.6326 4 10.5V9.5ZM4 12.5C4 12.3674 4.05268 12.2402 4.14645 12.1464C4.24021 12.0527 4.36739 12 4.5 12H5.5C5.63261 12 5.75979 12.0527 5.85355 12.1464C5.94732 12.2402 6 12.3674 6 12.5V13.5C6 13.6326 5.94732 13.7598 5.85355 13.8536C5.75979 13.9473 5.63261 14 5.5 14H4.5C4.36739 14 4.24021 13.9473 4.14645 13.8536C4.05268 13.7598 4 13.6326 4 13.5V12.5ZM7 6.5C7 6.36739 7.05268 6.24021 7.14645 6.14645C7.24021 6.05268 7.36739 6 7.5 6H8.5C8.63261 6 8.75979 6.05268 8.85355 6.14645C8.94732 6.24021 9 6.36739 9 6.5V7.5C9 7.63261 8.94732 7.75979 8.85355 7.85355C8.75979 7.94732 8.63261 8 8.5 8H7.5C7.36739 8 7.24021 7.94732 7.14645 7.85355C7.05268 7.75979 7 7.63261 7 7.5V6.5ZM7 9.5C7 9.36739 7.05268 9.24021 7.14645 9.14645C7.24021 9.05268 7.36739 9 7.5 9H8.5C8.63261 9 8.75979 9.05268 8.85355 9.14645C8.94732 9.24021 9 9.36739 9 9.5V10.5C9 10.6326 8.94732 10.7598 8.85355 10.8536C8.75979 10.9473 8.63261 11 8.5 11H7.5C7.36739 11 7.24021 10.9473 7.14645 10.8536C7.05268 10.7598 7 10.6326 7 10.5V9.5ZM7 12.5C7 12.3674 7.05268 12.2402 7.14645 12.1464C7.24021 12.0527 7.36739 12 7.5 12H8.5C8.63261 12 8.75979 12.0527 8.85355 12.1464C8.94732 12.2402 9 12.3674 9 12.5V13.5C9 13.6326 8.94732 13.7598 8.85355 13.8536C8.75979 13.9473 8.63261 14 8.5 14H7.5C7.36739 14 7.24021 13.9473 7.14645 13.8536C7.05268 13.7598 7 13.6326 7 13.5V12.5ZM10 6.5C10 6.36739 10.0527 6.24021 10.1464 6.14645C10.2402 6.05268 10.3674 6 10.5 6H11.5C11.6326 6 11.7598 6.05268 11.8536 6.14645C11.9473 6.24021 12 6.36739 12 6.5V7.5C12 7.63261 11.9473 7.75979 11.8536 7.85355C11.7598 7.94732 11.6326 8 11.5 8H10.5C10.3674 8 10.2402 7.94732 10.1464 7.85355C10.0527 7.75979 10 7.63261 10 7.5V6.5ZM10 9.5C10 9.36739 10.0527 9.24021 10.1464 9.14645C10.2402 9.05268 10.3674 9 10.5 9H11.5C11.6326 9 11.7598 9.05268 11.8536 9.14645C11.9473 9.24021 12 9.36739 12 9.5V13.5C12 13.6326 11.9473 13.7598 11.8536 13.8536C11.7598 13.9473 11.6326 14 11.5 14H10.5C10.3674 14 10.2402 13.9473 10.1464 13.8536C10.0527 13.7598 10 13.6326 10 13.5V9.5Z" fill="black"/>
</g>
<defs>
<clipPath id="clip0_104_844">
<rect width="16" height="16" fill="white"/>
</clipPath>
</defs>
</svg>
