<svg width="16" height="16" viewBox="0 0 16 16" xmlns="http://www.w3.org/2000/svg" fill='currentColor'><g clip-path="url(#clip0_104_928)"><path fill-rule="evenodd" clip-rule="evenodd" d="M2 0C1.46957 0 0.960859 0.210714 0.585786 0.585786C0.210714 0.960859 0 1.46957 0 2H16C16 1.46957 15.7893 0.960859 15.4142 0.585786C15.0391 0.210714 14.5304 0 14 0L2 0ZM0 8V3H16V5H10C9.73478 5 9.48043 5.10536 9.29289 5.29289C9.10536 5.48043 9 5.73478 9 6C9 6.26522 9.10536 6.51957 9.29289 6.70711C9.48043 6.89464 9.73478 7 10 7H16V14C16 14.5304 15.7893 15.0391 15.4142 15.4142C15.0391 15.7893 14.5304 16 14 16H2C1.46957 16 0.960859 15.7893 0.585786 15.4142C0.210714 15.0391 0 14.5304 0 14V10H6C6.26522 10 6.51957 9.89464 6.70711 9.70711C6.89464 9.51957 7 9.26522 7 9C7 8.73478 6.89464 8.48043 6.70711 8.29289C6.51957 8.10536 6.26522 8 6 8H0Z"/></g><defs><clipPath id="clip0_104_928"><rect width="16" height="16"/></clipPath></defs></svg>