<svg width="16" height="16" viewBox="0 0 16 16" xmlns="http://www.w3.org/2000/svg" fill='currentColor'><g clip-path="url(#clip0_104_954)"><path d="M4 0.5C4 0.367392 3.94732 0.240215 3.85355 0.146447C3.75979 0.0526784 3.63261 0 3.5 0C3.36739 0 3.24021 0.0526784 3.14645 0.146447C3.05268 0.240215 3 0.367392 3 0.5V1H2C1.46957 1 0.960859 1.21071 0.585786 1.58579C0.210714 1.96086 0 2.46957 0 3L0 4H16V3C16 2.46957 15.7893 1.96086 15.4142 1.58579C15.0391 1.21071 14.5304 1 14 1H13V0.5C13 0.367392 12.9473 0.240215 12.8536 0.146447C12.7598 0.0526784 12.6326 0 12.5 0C12.3674 0 12.2402 0.0526784 12.1464 0.146447C12.0527 0.240215 12 0.367392 12 0.5V1H4V0.5ZM9.402 10.246C10.027 10.246 10.586 9.762 10.586 9.066C10.586 8.234 10.059 7.836 9.426 7.836C8.84 7.836 8.258 8.223 8.258 9.046C8.258 9.863 8.801 10.246 9.402 10.246Z"/><path d="M16 14V5H0V14C0 14.5304 0.210714 15.0391 0.585786 15.4142C0.960859 15.7893 1.46957 16 2 16H14C14.5304 16 15.0391 15.7893 15.4142 15.4142C15.7893 15.0391 16 14.5304 16 14ZM9.336 12.79C8.226 12.79 7.68 12.023 7.633 11.383H8.316C8.359 11.753 8.703 12.203 9.367 12.203C10.211 12.203 10.668 11.355 10.672 10.039H10.645C10.492 10.453 10.008 10.829 9.262 10.829C8.41 10.829 7.586 10.219 7.586 9.059C7.586 7.922 8.457 7.25 9.383 7.25C10.555 7.25 11.336 7.984 11.336 9.918C11.336 11.723 10.594 12.789 9.336 12.789V12.79ZM6.446 7.355V12.687H5.77V8.079H5.758C5.468 8.235 4.875 8.599 4.5 8.856V8.16C4.92084 7.86514 5.35933 7.59631 5.813 7.355H6.445H6.446Z"/></g><defs><clipPath id="clip0_104_954"><rect width="16" height="16"/></clipPath></defs></svg>