<svg width="16" height="16" viewBox="0 0 16 16" fill="none" xmlns="http://www.w3.org/2000/svg">
<g clip-path="url(#clip0_104_909)">
<path d="M6.14601 8.14601C6.19245 8.09945 6.24763 8.0625 6.30837 8.0373C6.36912 8.01209 6.43424 7.99911 6.50001 7.99911C6.56578 7.99911 6.6309 8.01209 6.69164 8.0373C6.75239 8.0625 6.80756 8.09945 6.85401 8.14601L8.00001 9.29301L9.14601 8.14601C9.2399 8.05212 9.36723 7.99938 9.50001 7.99938C9.63278 7.99938 9.76012 8.05212 9.85401 8.14601C9.9479 8.2399 10.0006 8.36723 10.0006 8.50001C10.0006 8.63278 9.9479 8.76012 9.85401 8.85401L8.70701 10L9.85401 11.146C9.9479 11.2399 10.0006 11.3672 10.0006 11.5C10.0006 11.6328 9.9479 11.7601 9.85401 11.854C9.76012 11.9479 9.63278 12.0006 9.50001 12.0006C9.36723 12.0006 9.2399 11.9479 9.14601 11.854L8.00001 10.707L6.85401 11.854C6.76012 11.9479 6.63278 12.0006 6.50001 12.0006C6.36723 12.0006 6.2399 11.9479 6.14601 11.854C6.05212 11.7601 5.99938 11.6328 5.99938 11.5C5.99938 11.3672 6.05212 11.2399 6.14601 11.146L7.29301 10L6.14601 8.85401C6.09945 8.80756 6.0625 8.75239 6.0373 8.69164C6.01209 8.6309 5.99911 8.56578 5.99911 8.50001C5.99911 8.43424 6.01209 8.36912 6.0373 8.30838C6.0625 8.24763 6.09945 8.19245 6.14601 8.14601Z" fill="black"/>
<path d="M3.5 0C3.63261 0 3.75979 0.0526784 3.85355 0.146447C3.94732 0.240215 4 0.367392 4 0.5V1H12V0.5C12 0.367392 12.0527 0.240215 12.1464 0.146447C12.2402 0.0526784 12.3674 0 12.5 0C12.6326 0 12.7598 0.0526784 12.8536 0.146447C12.9473 0.240215 13 0.367392 13 0.5V1H14C14.5304 1 15.0391 1.21071 15.4142 1.58579C15.7893 1.96086 16 2.46957 16 3V14C16 14.5304 15.7893 15.0391 15.4142 15.4142C15.0391 15.7893 14.5304 16 14 16H2C1.46957 16 0.960859 15.7893 0.585786 15.4142C0.210714 15.0391 0 14.5304 0 14V3C0 2.46957 0.210714 1.96086 0.585786 1.58579C0.960859 1.21071 1.46957 1 2 1H3V0.5C3 0.367392 3.05268 0.240215 3.14645 0.146447C3.24021 0.0526784 3.36739 0 3.5 0V0ZM2 2C1.73478 2 1.48043 2.10536 1.29289 2.29289C1.10536 2.48043 1 2.73478 1 3V14C1 14.2652 1.10536 14.5196 1.29289 14.7071C1.48043 14.8946 1.73478 15 2 15H14C14.2652 15 14.5196 14.8946 14.7071 14.7071C14.8946 14.5196 15 14.2652 15 14V3C15 2.73478 14.8946 2.48043 14.7071 2.29289C14.5196 2.10536 14.2652 2 14 2H2Z" fill="black"/>
<path d="M2.5 4C2.5 3.86739 2.55268 3.74021 2.64645 3.64645C2.74021 3.55268 2.86739 3.5 3 3.5H13C13.1326 3.5 13.2598 3.55268 13.3536 3.64645C13.4473 3.74021 13.5 3.86739 13.5 4V5C13.5 5.13261 13.4473 5.25979 13.3536 5.35355C13.2598 5.44732 13.1326 5.5 13 5.5H3C2.86739 5.5 2.74021 5.44732 2.64645 5.35355C2.55268 5.25979 2.5 5.13261 2.5 5V4Z" fill="black"/>
</g>
<defs>
<clipPath id="clip0_104_909">
<rect width="16" height="16" fill="white"/>
</clipPath>
</defs>
</svg>
