<svg width="16" height="16" viewBox="0 0 16 16" xmlns="http://www.w3.org/2000/svg" fill='currentColor'><g clip-path="url(#clip0_104_913)"><path d="M3.5 0C3.63261 0 3.75979 0.0526784 3.85355 0.146447C3.94732 0.240215 4 0.367392 4 0.5V1H12V0.5C12 0.367392 12.0527 0.240215 12.1464 0.146447C12.2402 0.0526784 12.3674 0 12.5 0C12.6326 0 12.7598 0.0526784 12.8536 0.146447C12.9473 0.240215 13 0.367392 13 0.5V1H14C14.5304 1 15.0391 1.21071 15.4142 1.58579C15.7893 1.96086 16 2.46957 16 3V14C16 14.5304 15.7893 15.0391 15.4142 15.4142C15.0391 15.7893 14.5304 16 14 16H2C1.46957 16 0.960859 15.7893 0.585786 15.4142C0.210714 15.0391 0 14.5304 0 14V3C0 2.46957 0.210714 1.96086 0.585786 1.58579C0.960859 1.21071 1.46957 1 2 1H3V0.5C3 0.367392 3.05268 0.240215 3.14645 0.146447C3.24021 0.0526784 3.36739 0 3.5 0V0ZM13.454 3H2.545C2.245 3 2 3.224 2 3.5V4.5C2 4.776 2.244 5 2.545 5H13.455C13.755 5 14 4.776 14 4.5V3.5C14 3.224 13.756 3 13.454 3ZM6.854 8.146C6.80751 8.09951 6.75232 8.06264 6.69158 8.03748C6.63084 8.01232 6.56574 7.99937 6.5 7.99937C6.43426 7.99937 6.36916 8.01232 6.30842 8.03748C6.24768 8.06264 6.19249 8.09951 6.146 8.146C6.09951 8.19249 6.06264 8.24768 6.03748 8.30842C6.01232 8.36916 5.99937 8.43426 5.99937 8.5C5.99937 8.56574 6.01232 8.63084 6.03748 8.69158C6.06264 8.75232 6.09951 8.80751 6.146 8.854L7.293 10L6.146 11.146C6.05211 11.2399 5.99937 11.3672 5.99937 11.5C5.99937 11.6328 6.05211 11.7601 6.146 11.854C6.23989 11.9479 6.36722 12.0006 6.5 12.0006C6.63278 12.0006 6.76011 11.9479 6.854 11.854L8 10.707L9.146 11.854C9.23989 11.9479 9.36722 12.0006 9.5 12.0006C9.63278 12.0006 9.76011 11.9479 9.854 11.854C9.94789 11.7601 10.0006 11.6328 10.0006 11.5C10.0006 11.3672 9.94789 11.2399 9.854 11.146L8.707 10L9.854 8.854C9.94789 8.76011 10.0006 8.63278 10.0006 8.5C10.0006 8.36722 9.94789 8.23989 9.854 8.146C9.76011 8.05211 9.63278 7.99937 9.5 7.99937C9.36722 7.99937 9.23989 8.05211 9.146 8.146L8 9.293L6.854 8.146Z"/></g><defs><clipPath id="clip0_104_913"><rect width="16" height="16"/></clipPath></defs></svg>