<svg width="16" height="16" viewBox="0 0 16 16" xmlns="http://www.w3.org/2000/svg" fill='currentColor'><g clip-path="url(#clip0_104_946)"><path d="M10.854 7.14598C10.9006 7.19242 10.9375 7.2476 10.9627 7.30834C10.9879 7.36909 11.0009 7.43421 11.0009 7.49998C11.0009 7.56575 10.9879 7.63087 10.9627 7.69161C10.9375 7.75236 10.9006 7.80753 10.854 7.85398L7.854 10.854C7.80755 10.9005 7.75238 10.9375 7.69163 10.9627C7.63089 10.9879 7.56577 11.0009 7.5 11.0009C7.43423 11.0009 7.36911 10.9879 7.30836 10.9627C7.24762 10.9375 7.19244 10.9005 7.146 10.854L5.646 9.35398C5.59951 9.30749 5.56263 9.2523 5.53748 9.19156C5.51232 9.13082 5.49937 9.06572 5.49937 8.99998C5.49937 8.93423 5.51232 8.86913 5.53748 8.80839C5.56263 8.74766 5.59951 8.69247 5.646 8.64598C5.73989 8.55209 5.86722 8.49935 6 8.49935C6.06574 8.49935 6.13084 8.5123 6.19158 8.53745C6.25232 8.56261 6.30751 8.59949 6.354 8.64598L7.5 9.79298L10.146 7.14598C10.1924 7.09941 10.2476 7.06247 10.3084 7.03727C10.3691 7.01206 10.4342 6.99908 10.5 6.99908C10.5658 6.99908 10.6309 7.01206 10.6916 7.03727C10.7524 7.06247 10.8076 7.09941 10.854 7.14598Z"/><path d="M3.5 0C3.63261 0 3.75979 0.0526784 3.85355 0.146447C3.94732 0.240215 4 0.367392 4 0.5V1H12V0.5C12 0.367392 12.0527 0.240215 12.1464 0.146447C12.2402 0.0526784 12.3674 0 12.5 0C12.6326 0 12.7598 0.0526784 12.8536 0.146447C12.9473 0.240215 13 0.367392 13 0.5V1H14C14.5304 1 15.0391 1.21071 15.4142 1.58579C15.7893 1.96086 16 2.46957 16 3V14C16 14.5304 15.7893 15.0391 15.4142 15.4142C15.0391 15.7893 14.5304 16 14 16H2C1.46957 16 0.960859 15.7893 0.585786 15.4142C0.210714 15.0391 0 14.5304 0 14V3C0 2.46957 0.210714 1.96086 0.585786 1.58579C0.960859 1.21071 1.46957 1 2 1H3V0.5C3 0.367392 3.05268 0.240215 3.14645 0.146447C3.24021 0.0526784 3.36739 0 3.5 0V0ZM1 4V14C1 14.2652 1.10536 14.5196 1.29289 14.7071C1.48043 14.8946 1.73478 15 2 15H14C14.2652 15 14.5196 14.8946 14.7071 14.7071C14.8946 14.5196 15 14.2652 15 14V4H1Z"/></g><defs><clipPath id="clip0_104_946"><rect width="16" height="16"/></clipPath></defs></svg>