<svg width="16" height="16" viewBox="0 0 16 16" xmlns="http://www.w3.org/2000/svg" fill='currentColor'><g clip-path="url(#clip0_104_864)"><path d="M9.402 10.246C10.027 10.246 10.586 9.762 10.586 9.066C10.586 8.234 10.059 7.836 9.42599 7.836C8.83999 7.836 8.258 8.223 8.258 9.046C8.258 9.863 8.801 10.246 9.402 10.246Z"/><path d="M3.5 0C3.63261 0 3.75979 0.0526784 3.85355 0.146447C3.94732 0.240215 4 0.367392 4 0.5V1H12V0.5C12 0.367392 12.0527 0.240215 12.1464 0.146447C12.2402 0.0526784 12.3674 0 12.5 0C12.6326 0 12.7598 0.0526784 12.8536 0.146447C12.9473 0.240215 13 0.367392 13 0.5V1H14C14.5304 1 15.0391 1.21071 15.4142 1.58579C15.7893 1.96086 16 2.46957 16 3V14C16 14.5304 15.7893 15.0391 15.4142 15.4142C15.0391 15.7893 14.5304 16 14 16H2C1.46957 16 0.960859 15.7893 0.585786 15.4142C0.210714 15.0391 0 14.5304 0 14V3C0 2.46957 0.210714 1.96086 0.585786 1.58579C0.960859 1.21071 1.46957 1 2 1H3V0.5C3 0.367392 3.05268 0.240215 3.14645 0.146447C3.24021 0.0526784 3.36739 0 3.5 0V0ZM13.454 3H2.545C2.245 3 2 3.224 2 3.5V4.5C2 4.776 2.244 5 2.545 5H13.455C13.755 5 14 4.776 14 4.5V3.5C14 3.224 13.756 3 13.454 3ZM9.336 12.79C10.594 12.79 11.336 11.723 11.336 9.918C11.336 7.984 10.555 7.25 9.383 7.25C8.457 7.25 7.586 7.922 7.586 9.059C7.586 10.219 8.41 10.829 9.262 10.829C10.008 10.829 10.492 10.453 10.645 10.039H10.672C10.668 11.355 10.211 12.203 9.367 12.203C8.703 12.203 8.359 11.753 8.317 11.383H7.633C7.68 12.023 8.227 12.789 9.336 12.789V12.79ZM6.446 7.355H5.813C5.35933 7.59631 4.92084 7.86514 4.5 8.16V8.855C4.875 8.598 5.469 8.235 5.758 8.078H5.77V12.688H6.445V7.354L6.446 7.355Z"/></g><defs><clipPath id="clip0_104_864"><rect width="16" height="16"/></clipPath></defs></svg>