<svg width="16" height="16" viewBox="0 0 16 16" xmlns="http://www.w3.org/2000/svg" fill='currentColor'><g clip-path="url(#clip0_104_915)"><path d="M14 0H2C1.46957 0 0.960859 0.210714 0.585786 0.585786C0.210714 0.960859 0 1.46957 0 2L0 14C0 14.5304 0.210714 15.0391 0.585786 15.4142C0.960859 15.7893 1.46957 16 2 16H14C14.5304 16 15.0391 15.7893 15.4142 15.4142C15.7893 15.0391 16 14.5304 16 14V2C16 1.46957 15.7893 0.960859 15.4142 0.585786C15.0391 0.210714 14.5304 0 14 0V0ZM1 3.857C1 3.384 1.448 3 2 3H14C14.552 3 15 3.384 15 3.857V14.143C15 14.616 14.552 15 14 15H2C1.448 15 1 14.616 1 14.143V3.857Z"/><path d="M6.5 7C6.76522 7 7.01957 6.89464 7.20711 6.70711C7.39464 6.51957 7.5 6.26522 7.5 6C7.5 5.73478 7.39464 5.48043 7.20711 5.29289C7.01957 5.10536 6.76522 5 6.5 5C6.23478 5 5.98043 5.10536 5.79289 5.29289C5.60536 5.48043 5.5 5.73478 5.5 6C5.5 6.26522 5.60536 6.51957 5.79289 6.70711C5.98043 6.89464 6.23478 7 6.5 7ZM9.5 7C9.76522 7 10.0196 6.89464 10.2071 6.70711C10.3946 6.51957 10.5 6.26522 10.5 6C10.5 5.73478 10.3946 5.48043 10.2071 5.29289C10.0196 5.10536 9.76522 5 9.5 5C9.23478 5 8.98043 5.10536 8.79289 5.29289C8.60536 5.48043 8.5 5.73478 8.5 6C8.5 6.26522 8.60536 6.51957 8.79289 6.70711C8.98043 6.89464 9.23478 7 9.5 7ZM12.5 7C12.7652 7 13.0196 6.89464 13.2071 6.70711C13.3946 6.51957 13.5 6.26522 13.5 6C13.5 5.73478 13.3946 5.48043 13.2071 5.29289C13.0196 5.10536 12.7652 5 12.5 5C12.2348 5 11.9804 5.10536 11.7929 5.29289C11.6054 5.48043 11.5 5.73478 11.5 6C11.5 6.26522 11.6054 6.51957 11.7929 6.70711C11.9804 6.89464 12.2348 7 12.5 7ZM3.5 10C3.76522 10 4.01957 9.89464 4.20711 9.70711C4.39464 9.51957 4.5 9.26522 4.5 9C4.5 8.73478 4.39464 8.48043 4.20711 8.29289C4.01957 8.10536 3.76522 8 3.5 8C3.23478 8 2.98043 8.10536 2.79289 8.29289C2.60536 8.48043 2.5 8.73478 2.5 9C2.5 9.26522 2.60536 9.51957 2.79289 9.70711C2.98043 9.89464 3.23478 10 3.5 10ZM6.5 10C6.76522 10 7.01957 9.89464 7.20711 9.70711C7.39464 9.51957 7.5 9.26522 7.5 9C7.5 8.73478 7.39464 8.48043 7.20711 8.29289C7.01957 8.10536 6.76522 8 6.5 8C6.23478 8 5.98043 8.10536 5.79289 8.29289C5.60536 8.48043 5.5 8.73478 5.5 9C5.5 9.26522 5.60536 9.51957 5.79289 9.70711C5.98043 9.89464 6.23478 10 6.5 10ZM9.5 10C9.76522 10 10.0196 9.89464 10.2071 9.70711C10.3946 9.51957 10.5 9.26522 10.5 9C10.5 8.73478 10.3946 8.48043 10.2071 8.29289C10.0196 8.10536 9.76522 8 9.5 8C9.23478 8 8.98043 8.10536 8.79289 8.29289C8.60536 8.48043 8.5 8.73478 8.5 9C8.5 9.26522 8.60536 9.51957 8.79289 9.70711C8.98043 9.89464 9.23478 10 9.5 10ZM12.5 10C12.7652 10 13.0196 9.89464 13.2071 9.70711C13.3946 9.51957 13.5 9.26522 13.5 9C13.5 8.73478 13.3946 8.48043 13.2071 8.29289C13.0196 8.10536 12.7652 8 12.5 8C12.2348 8 11.9804 8.10536 11.7929 8.29289C11.6054 8.48043 11.5 8.73478 11.5 9C11.5 9.26522 11.6054 9.51957 11.7929 9.70711C11.9804 9.89464 12.2348 10 12.5 10ZM3.5 13C3.76522 13 4.01957 12.8946 4.20711 12.7071C4.39464 12.5196 4.5 12.2652 4.5 12C4.5 11.7348 4.39464 11.4804 4.20711 11.2929C4.01957 11.1054 3.76522 11 3.5 11C3.23478 11 2.98043 11.1054 2.79289 11.2929C2.60536 11.4804 2.5 11.7348 2.5 12C2.5 12.2652 2.60536 12.5196 2.79289 12.7071C2.98043 12.8946 3.23478 13 3.5 13ZM6.5 13C6.76522 13 7.01957 12.8946 7.20711 12.7071C7.39464 12.5196 7.5 12.2652 7.5 12C7.5 11.7348 7.39464 11.4804 7.20711 11.2929C7.01957 11.1054 6.76522 11 6.5 11C6.23478 11 5.98043 11.1054 5.79289 11.2929C5.60536 11.4804 5.5 11.7348 5.5 12C5.5 12.2652 5.60536 12.5196 5.79289 12.7071C5.98043 12.8946 6.23478 13 6.5 13ZM9.5 13C9.76522 13 10.0196 12.8946 10.2071 12.7071C10.3946 12.5196 10.5 12.2652 10.5 12C10.5 11.7348 10.3946 11.4804 10.2071 11.2929C10.0196 11.1054 9.76522 11 9.5 11C9.23478 11 8.98043 11.1054 8.79289 11.2929C8.60536 11.4804 8.5 11.7348 8.5 12C8.5 12.2652 8.60536 12.5196 8.79289 12.7071C8.98043 12.8946 9.23478 13 9.5 13Z"/></g><defs><clipPath id="clip0_104_915"><rect width="16" height="16"/></clipPath></defs></svg>