<svg width="16" height="16" viewBox="0 0 16 16" xmlns="http://www.w3.org/2000/svg" fill='currentColor'><g clip-path="url(#clip0_104_974)"><path d="M2.56001 11.332L3.10001 9.73H5.08401L5.62401 11.332H6.34201L4.44401 6H3.74801L1.85001 11.332H2.56001ZM4.10401 6.805L4.90001 9.18H3.28401L4.08401 6.805H4.10401ZM9.85001 7.227H9.17401V9.77C9.17401 10.422 8.76001 10.793 8.17001 10.793C7.63101 10.793 7.19001 10.547 7.19001 9.781V7.227H6.51401V9.973C6.51401 10.914 7.12001 11.398 7.96701 11.398C8.62301 11.398 9.01001 11.118 9.15501 10.793H9.18201V11.332H9.85001V7.227ZM12.108 12.273C11.545 12.273 11.198 11.969 11.123 11.637H10.436C10.53 12.32 11.061 12.836 12.104 12.836C13.034 12.836 13.85 12.309 13.85 11.258V7.227H13.201V7.805H13.182C12.991 7.457 12.545 7.165 11.987 7.165C11.022 7.165 10.347 7.844 10.347 9.051V9.391C10.347 10.621 11.03 11.293 11.987 11.293C12.545 11.293 12.995 11 13.159 10.645H13.179V11.25C13.179 11.895 12.756 12.273 12.108 12.273ZM12.116 7.743C12.764 7.743 13.178 8.27 13.178 9.102V9.355C13.178 10.203 12.788 10.719 12.116 10.719C11.424 10.719 11.018 10.207 11.018 9.355V9.102C11.018 8.234 11.424 7.742 12.116 7.742V7.743Z"/><path d="M3.5 0C3.63261 0 3.75979 0.0526784 3.85355 0.146447C3.94732 0.240215 4 0.367392 4 0.5V1H12V0.5C12 0.367392 12.0527 0.240215 12.1464 0.146447C12.2402 0.0526784 12.3674 0 12.5 0C12.6326 0 12.7598 0.0526784 12.8536 0.146447C12.9473 0.240215 13 0.367392 13 0.5V1H14C14.5304 1 15.0391 1.21071 15.4142 1.58579C15.7893 1.96086 16 2.46957 16 3V14C16 14.5304 15.7893 15.0391 15.4142 15.4142C15.0391 15.7893 14.5304 16 14 16H2C1.46957 16 0.960859 15.7893 0.585786 15.4142C0.210714 15.0391 0 14.5304 0 14V3C0 2.46957 0.210714 1.96086 0.585786 1.58579C0.960859 1.21071 1.46957 1 2 1H3V0.5C3 0.367392 3.05268 0.240215 3.14645 0.146447C3.24021 0.0526784 3.36739 0 3.5 0V0ZM1 4V14C1 14.2652 1.10536 14.5196 1.29289 14.7071C1.48043 14.8946 1.73478 15 2 15H14C14.2652 15 14.5196 14.8946 14.7071 14.7071C14.8946 14.5196 15 14.2652 15 14V4H1Z"/></g><defs><clipPath id="clip0_104_974"><rect width="16" height="16"/></clipPath></defs></svg>