<svg width="16" height="16" viewBox="0 0 16 16" fill="none" xmlns="http://www.w3.org/2000/svg">
<g clip-path="url(#clip0_104_887)">
<path d="M2.56 12.332L3.1 10.73H5.084L5.624 12.332H6.342L4.444 7H3.748L1.85 12.332H2.56ZM4.104 7.805L4.9 10.18H3.284L4.084 7.805H4.104ZM9.85 8.227H9.174V10.77C9.174 11.422 8.76 11.793 8.17 11.793C7.631 11.793 7.19 11.547 7.19 10.781V8.227H6.514V10.973C6.514 11.914 7.12 12.398 7.967 12.398C8.623 12.398 9.01 12.118 9.155 11.793H9.182V12.332H9.85V8.227ZM12.108 13.273C11.545 13.273 11.198 12.969 11.123 12.637H10.436C10.53 13.32 11.061 13.836 12.104 13.836C13.034 13.836 13.85 13.309 13.85 12.258V8.227H13.201V8.805H13.182C12.991 8.457 12.545 8.165 11.987 8.165C11.022 8.165 10.347 8.844 10.347 10.051V10.391C10.347 11.621 11.03 12.293 11.987 12.293C12.545 12.293 12.995 12 13.159 11.645H13.179V12.25C13.179 12.895 12.756 13.273 12.108 13.273ZM12.116 8.743C12.764 8.743 13.178 9.27 13.178 10.102V10.355C13.178 11.203 12.788 11.719 12.116 11.719C11.424 11.719 11.018 11.207 11.018 10.355V10.102C11.018 9.234 11.424 8.742 12.116 8.742V8.743Z" fill="black"/>
<path d="M3.5 0C3.63261 0 3.75979 0.0526784 3.85355 0.146447C3.94732 0.240215 4 0.367392 4 0.5V1H12V0.5C12 0.367392 12.0527 0.240215 12.1464 0.146447C12.2402 0.0526784 12.3674 0 12.5 0C12.6326 0 12.7598 0.0526784 12.8536 0.146447C12.9473 0.240215 13 0.367392 13 0.5V1H14C14.5304 1 15.0391 1.21071 15.4142 1.58579C15.7893 1.96086 16 2.46957 16 3V14C16 14.5304 15.7893 15.0391 15.4142 15.4142C15.0391 15.7893 14.5304 16 14 16H2C1.46957 16 0.960859 15.7893 0.585786 15.4142C0.210714 15.0391 0 14.5304 0 14V3C0 2.46957 0.210714 1.96086 0.585786 1.58579C0.960859 1.21071 1.46957 1 2 1H3V0.5C3 0.367392 3.05268 0.240215 3.14645 0.146447C3.24021 0.0526784 3.36739 0 3.5 0V0ZM2 2C1.73478 2 1.48043 2.10536 1.29289 2.29289C1.10536 2.48043 1 2.73478 1 3V14C1 14.2652 1.10536 14.5196 1.29289 14.7071C1.48043 14.8946 1.73478 15 2 15H14C14.2652 15 14.5196 14.8946 14.7071 14.7071C14.8946 14.5196 15 14.2652 15 14V3C15 2.73478 14.8946 2.48043 14.7071 2.29289C14.5196 2.10536 14.2652 2 14 2H2Z" fill="black"/>
<path d="M2.5 4C2.5 3.86739 2.55268 3.74021 2.64645 3.64645C2.74021 3.55268 2.86739 3.5 3 3.5H13C13.1326 3.5 13.2598 3.55268 13.3536 3.64645C13.4473 3.74021 13.5 3.86739 13.5 4V5C13.5 5.13261 13.4473 5.25979 13.3536 5.35355C13.2598 5.44732 13.1326 5.5 13 5.5H3C2.86739 5.5 2.74021 5.44732 2.64645 5.35355C2.55268 5.25979 2.5 5.13261 2.5 5V4Z" fill="black"/>
</g>
<defs>
<clipPath id="clip0_104_887">
<rect width="16" height="16" fill="white"/>
</clipPath>
</defs>
</svg>
