<svg width="16" height="16" viewBox="0 0 16 16" fill="none" xmlns="http://www.w3.org/2000/svg">
<g clip-path="url(#clip0_104_957)">
<path d="M4.684 11.523V9.22301H6.945V8.61301H4.684V6.80101H7.148V6.19101H4V11.523H4.684ZM7.98 11.523H8.656V8.98001C8.656 8.42601 8.883 7.97301 9.609 7.97301C9.734 7.97301 9.867 7.97701 9.938 7.98801V7.37501C9.85391 7.36237 9.76903 7.35569 9.684 7.35501C9.102 7.35501 8.793 7.67501 8.672 7.92201H8.652V7.41801H7.98V11.523ZM10.785 6.43001C10.785 6.66801 10.977 6.85501 11.215 6.85501C11.2729 6.85781 11.3307 6.84883 11.385 6.82861C11.4393 6.80839 11.489 6.77735 11.5309 6.73738C11.5729 6.69741 11.6063 6.64933 11.6291 6.59607C11.6519 6.5428 11.6637 6.48546 11.6637 6.42751C11.6637 6.36956 11.6519 6.31222 11.6291 6.25896C11.6063 6.20569 11.5729 6.15762 11.5309 6.11764C11.489 6.07767 11.4393 6.04663 11.385 6.02641C11.3307 6.00619 11.2729 5.99721 11.215 6.00001C11.1584 5.99948 11.1022 6.01024 11.0498 6.03166C10.9974 6.05308 10.9498 6.08473 10.9098 6.12477C10.8697 6.1648 10.8381 6.21242 10.8166 6.26483C10.7952 6.31724 10.7845 6.37339 10.785 6.43001ZM10.879 11.523H11.551V7.41801H10.879V11.523Z" fill="black"/>
<path d="M3.5 0C3.63261 0 3.75979 0.0526784 3.85355 0.146447C3.94732 0.240215 4 0.367392 4 0.5V1H12V0.5C12 0.367392 12.0527 0.240215 12.1464 0.146447C12.2402 0.0526784 12.3674 0 12.5 0C12.6326 0 12.7598 0.0526784 12.8536 0.146447C12.9473 0.240215 13 0.367392 13 0.5V1H14C14.5304 1 15.0391 1.21071 15.4142 1.58579C15.7893 1.96086 16 2.46957 16 3V14C16 14.5304 15.7893 15.0391 15.4142 15.4142C15.0391 15.7893 14.5304 16 14 16H2C1.46957 16 0.960859 15.7893 0.585786 15.4142C0.210714 15.0391 0 14.5304 0 14V3C0 2.46957 0.210714 1.96086 0.585786 1.58579C0.960859 1.21071 1.46957 1 2 1H3V0.5C3 0.367392 3.05268 0.240215 3.14645 0.146447C3.24021 0.0526784 3.36739 0 3.5 0V0ZM1 4V14C1 14.2652 1.10536 14.5196 1.29289 14.7071C1.48043 14.8946 1.73478 15 2 15H14C14.2652 15 14.5196 14.8946 14.7071 14.7071C14.8946 14.5196 15 14.2652 15 14V4H1Z" fill="black"/>
</g>
<defs>
<clipPath id="clip0_104_957">
<rect width="16" height="16" fill="white"/>
</clipPath>
</defs>
</svg>
