<svg width="16" height="16" viewBox="0 0 16 16" xmlns="http://www.w3.org/2000/svg" fill='currentColor'><g clip-path="url(#clip0_104_860)"><path d="M6.445 12.688V7.354H5.812C5.35864 7.59567 4.92049 7.86484 4.5 8.16V8.855C4.875 8.598 5.469 8.235 5.758 8.078H5.77V12.688H6.445ZM7.633 11.383C7.68 12.023 8.227 12.789 9.336 12.789C10.594 12.789 11.336 11.723 11.336 9.918C11.336 7.984 10.555 7.25 9.383 7.25C8.457 7.25 7.586 7.922 7.586 9.059C7.586 10.219 8.41 10.829 9.262 10.829C10.008 10.829 10.492 10.453 10.645 10.039H10.672C10.668 11.355 10.211 12.203 9.367 12.203C8.703 12.203 8.359 11.753 8.317 11.383H7.633ZM10.586 9.066C10.586 9.762 10.027 10.246 9.402 10.246C8.801 10.246 8.258 9.863 8.258 9.046C8.258 8.223 8.84 7.836 9.426 7.836C10.059 7.836 10.586 8.234 10.586 9.066Z"/><path d="M3.5 0C3.63261 0 3.75979 0.0526784 3.85355 0.146447C3.94732 0.240215 4 0.367392 4 0.5V1H12V0.5C12 0.367392 12.0527 0.240215 12.1464 0.146447C12.2402 0.0526784 12.3674 0 12.5 0C12.6326 0 12.7598 0.0526784 12.8536 0.146447C12.9473 0.240215 13 0.367392 13 0.5V1H14C14.5304 1 15.0391 1.21071 15.4142 1.58579C15.7893 1.96086 16 2.46957 16 3V14C16 14.5304 15.7893 15.0391 15.4142 15.4142C15.0391 15.7893 14.5304 16 14 16H2C1.46957 16 0.960859 15.7893 0.585786 15.4142C0.210714 15.0391 0 14.5304 0 14V3C0 2.46957 0.210714 1.96086 0.585786 1.58579C0.960859 1.21071 1.46957 1 2 1H3V0.5C3 0.367392 3.05268 0.240215 3.14645 0.146447C3.24021 0.0526784 3.36739 0 3.5 0V0ZM2 2C1.73478 2 1.48043 2.10536 1.29289 2.29289C1.10536 2.48043 1 2.73478 1 3V14C1 14.2652 1.10536 14.5196 1.29289 14.7071C1.48043 14.8946 1.73478 15 2 15H14C14.2652 15 14.5196 14.8946 14.7071 14.7071C14.8946 14.5196 15 14.2652 15 14V3C15 2.73478 14.8946 2.48043 14.7071 2.29289C14.5196 2.10536 14.2652 2 14 2H2Z"/><path d="M2.5 4C2.5 3.86739 2.55268 3.74021 2.64645 3.64645C2.74021 3.55268 2.86739 3.5 3 3.5H13C13.1326 3.5 13.2598 3.55268 13.3536 3.64645C13.4473 3.74021 13.5 3.86739 13.5 4V5C13.5 5.13261 13.4473 5.25979 13.3536 5.35355C13.2598 5.44732 13.1326 5.5 13 5.5H3C2.86739 5.5 2.74021 5.44732 2.64645 5.35355C2.55268 5.25979 2.5 5.13261 2.5 5V4Z"/></g><defs><clipPath id="clip0_104_860"><rect width="16" height="16"/></clipPath></defs></svg>