<svg width="16" height="16" viewBox="0 0 16 16" xmlns="http://www.w3.org/2000/svg" fill='currentColor'><g clip-path="url(#clip0_104_960)"><path d="M4 0.5C4 0.367392 3.94732 0.240215 3.85355 0.146447C3.75979 0.0526784 3.63261 0 3.5 0C3.36739 0 3.24021 0.0526784 3.14645 0.146447C3.05268 0.240215 3 0.367392 3 0.5V1H2C1.46957 1 0.960859 1.21071 0.585786 1.58579C0.210714 1.96086 0 2.46957 0 3L0 4H16V3C16 2.46957 15.7893 1.96086 15.4142 1.58579C15.0391 1.21071 14.5304 1 14 1H13V0.5C13 0.367392 12.9473 0.240215 12.8536 0.146447C12.7598 0.0526784 12.6326 0 12.5 0C12.3674 0 12.2402 0.0526784 12.1464 0.146447C12.0527 0.240215 12 0.367392 12 0.5V1H4V0.5ZM16 14C16 14.5304 15.7893 15.0391 15.4142 15.4142C15.0391 15.7893 14.5304 16 14 16H2C1.46957 16 0.960859 15.7893 0.585786 15.4142C0.210714 15.0391 0 14.5304 0 14V5H16V14ZM11.215 7.855C11.2729 7.8578 11.3307 7.84882 11.385 7.8286C11.4393 7.80838 11.489 7.77734 11.5309 7.73737C11.5729 7.69739 11.6063 7.64932 11.6291 7.59606C11.6519 7.54279 11.6637 7.48545 11.6637 7.4275C11.6637 7.36955 11.6519 7.31221 11.6291 7.25894C11.6063 7.20568 11.5729 7.15761 11.5309 7.11763C11.489 7.07766 11.4393 7.04662 11.385 7.0264C11.3307 7.00618 11.2729 6.9972 11.215 7C11.1584 6.99947 11.1022 7.01022 11.0498 7.03164C10.9974 7.05306 10.9498 7.08472 10.9098 7.12475C10.8697 7.16479 10.8381 7.21241 10.8166 7.26482C10.7952 7.31723 10.7845 7.37338 10.785 7.43C10.785 7.668 10.977 7.855 11.215 7.855ZM11.551 8.418H10.879V12.523H11.551V8.418ZM4.684 12.523V10.223H6.945V9.613H4.684V7.801H7.148V7.191H4V12.523H4.684ZM7.98 12.523H8.656V9.98C8.656 9.426 8.883 8.973 9.609 8.973C9.734 8.973 9.867 8.977 9.938 8.988V8.375C9.85391 8.36236 9.76903 8.35568 9.684 8.355C9.102 8.355 8.793 8.675 8.672 8.922H8.652V8.418H7.98V12.523Z"/></g><defs><clipPath id="clip0_104_960"><rect width="16" height="16"/></clipPath></defs></svg>