<svg width="16" height="16" viewBox="0 0 16 16" fill="none" xmlns="http://www.w3.org/2000/svg">
<g clip-path="url(#clip0_104_940)">
<path d="M3.5 0C3.63261 0 3.75979 0.0526784 3.85355 0.146447C3.94732 0.240215 4 0.367392 4 0.5V1H12V0.5C12 0.367392 12.0527 0.240215 12.1464 0.146447C12.2402 0.0526784 12.3674 0 12.5 0C12.6326 0 12.7598 0.0526784 12.8536 0.146447C12.9473 0.240215 13 0.367392 13 0.5V1H14C14.5304 1 15.0391 1.21071 15.4142 1.58579C15.7893 1.96086 16 2.46957 16 3V14C16 14.5304 15.7893 15.0391 15.4142 15.4142C15.0391 15.7893 14.5304 16 14 16H2C1.46957 16 0.960859 15.7893 0.585786 15.4142C0.210714 15.0391 0 14.5304 0 14V3C0 2.46957 0.210714 1.96086 0.585786 1.58579C0.960859 1.21071 1.46957 1 2 1H3V0.5C3 0.367392 3.05268 0.240215 3.14645 0.146447C3.24021 0.0526784 3.36739 0 3.5 0V0ZM2 2C1.73478 2 1.48043 2.10536 1.29289 2.29289C1.10536 2.48043 1 2.73478 1 3V4H15V3C15 2.73478 14.8946 2.48043 14.7071 2.29289C14.5196 2.10536 14.2652 2 14 2H2ZM15 5H1V14C1 14.2652 1.10536 14.5196 1.29289 14.7071C1.48043 14.8946 1.73478 15 2 15H14C14.2652 15 14.5196 14.8946 14.7071 14.7071C14.8946 14.5196 15 14.2652 15 14V5Z" fill="black"/>
<path d="M9 7.5C9 7.36739 9.05268 7.24021 9.14645 7.14645C9.24021 7.05268 9.36739 7 9.5 7H15V9H9.5C9.36739 9 9.24021 8.94732 9.14645 8.85355C9.05268 8.75979 9 8.63261 9 8.5V7.5ZM7 10.5V11.5C7 11.6326 6.94732 11.7598 6.85355 11.8536C6.75979 11.9473 6.63261 12 6.5 12H1V10H6.5C6.63261 10 6.75979 10.0527 6.85355 10.1464C6.94732 10.2402 7 10.3674 7 10.5Z" fill="black"/>
</g>
<defs>
<clipPath id="clip0_104_940">
<rect width="16" height="16" fill="white"/>
</clipPath>
</defs>
</svg>
