<svg width="16" height="16" viewBox="0 0 16 16" xmlns="http://www.w3.org/2000/svg" fill='currentColor'><g clip-path="url(#clip0_104_983)"><path d="M4 0.5C4 0.367392 3.94732 0.240215 3.85355 0.146447C3.75979 0.0526784 3.63261 0 3.5 0C3.36739 0 3.24021 0.0526784 3.14645 0.146447C3.05268 0.240215 3 0.367392 3 0.5V1H2C1.46957 1 0.960859 1.21071 0.585786 1.58579C0.210714 1.96086 0 2.46957 0 3L0 4H16V3C16 2.46957 15.7893 1.96086 15.4142 1.58579C15.0391 1.21071 14.5304 1 14 1H13V0.5C13 0.367392 12.9473 0.240215 12.8536 0.146447C12.7598 0.0526784 12.6326 0 12.5 0C12.3674 0 12.2402 0.0526784 12.1464 0.146447C12.0527 0.240215 12 0.367392 12 0.5V1H4V0.5ZM16 14V5H0V14C0 14.5304 0.210714 15.0391 0.585786 15.4142C0.960859 15.7893 1.46957 16 2 16H14C14.5304 16 15.0391 15.7893 15.4142 15.4142C15.7893 15.0391 16 14.5304 16 14ZM8.5 8.5V10H10C10.1326 10 10.2598 10.0527 10.3536 10.1464C10.4473 10.2402 10.5 10.3674 10.5 10.5C10.5 10.6326 10.4473 10.7598 10.3536 10.8536C10.2598 10.9473 10.1326 11 10 11H8.5V12.5C8.5 12.6326 8.44732 12.7598 8.35355 12.8536C8.25979 12.9473 8.13261 13 8 13C7.86739 13 7.74021 12.9473 7.64645 12.8536C7.55268 12.7598 7.5 12.6326 7.5 12.5V11H6C5.86739 11 5.74021 10.9473 5.64645 10.8536C5.55268 10.7598 5.5 10.6326 5.5 10.5C5.5 10.3674 5.55268 10.2402 5.64645 10.1464C5.74021 10.0527 5.86739 10 6 10H7.5V8.5C7.5 8.36739 7.55268 8.24021 7.64645 8.14645C7.74021 8.05268 7.86739 8 8 8C8.13261 8 8.25979 8.05268 8.35355 8.14645C8.44732 8.24021 8.5 8.36739 8.5 8.5Z"/></g><defs><clipPath id="clip0_104_983"><rect width="16" height="16"/></clipPath></defs></svg>