<svg width="16" height="16" viewBox="0 0 16 16" xmlns="http://www.w3.org/2000/svg" fill='currentColor'><g clip-path="url(#clip0_104_977)"><path d="M4 0.5C4 0.367392 3.94732 0.240215 3.85355 0.146447C3.75979 0.0526784 3.63261 0 3.5 0C3.36739 0 3.24021 0.0526784 3.14645 0.146447C3.05268 0.240215 3 0.367392 3 0.5V1H2C1.46957 1 0.960859 1.21071 0.585786 1.58579C0.210714 1.96086 0 2.46957 0 3L0 4H16V3C16 2.46957 15.7893 1.96086 15.4142 1.58579C15.0391 1.21071 14.5304 1 14 1H13V0.5C13 0.367392 12.9473 0.240215 12.8536 0.146447C12.7598 0.0526784 12.6326 0 12.5 0C12.3674 0 12.2402 0.0526784 12.1464 0.146447C12.0527 0.240215 12 0.367392 12 0.5V1H4V0.5ZM4.104 7.805L4.9 10.18H3.284L4.084 7.805H4.104ZM13.178 10.102C13.178 9.27 12.764 8.742 12.116 8.742C11.424 8.742 11.018 9.234 11.018 10.102V10.355C11.018 11.207 11.424 11.719 12.116 11.719C12.787 11.719 13.178 11.203 13.178 10.355V10.102Z"/><path d="M16 14V5H0V14C0 14.5304 0.210714 15.0391 0.585786 15.4142C0.960859 15.7893 1.46957 16 2 16H14C14.5304 16 15.0391 15.7893 15.4142 15.4142C15.7893 15.0391 16 14.5304 16 14ZM2.56 12.332H1.85L3.748 7H4.444L6.342 12.332H5.623L5.084 10.73H3.1L2.56 12.332ZM9.85 8.227V12.332H9.182V11.793H9.155C9.01 12.117 8.623 12.398 7.967 12.398C7.12 12.398 6.514 11.914 6.514 10.973V8.227H7.19V10.781C7.19 11.547 7.631 11.793 8.17 11.793C8.76 11.793 9.174 11.422 9.174 10.77V8.227H9.85ZM11.123 12.637C11.198 12.969 11.545 13.273 12.108 13.273C12.756 13.273 13.178 12.895 13.178 12.25V11.645H13.158C12.995 12 12.545 12.293 11.987 12.293C11.03 12.293 10.347 11.621 10.347 10.391V10.051C10.347 8.844 11.022 8.164 11.987 8.164C12.545 8.164 12.991 8.457 13.182 8.804H13.202V8.227H13.85V12.257C13.85 13.309 13.034 13.836 12.104 13.836C11.061 13.836 10.53 13.32 10.436 12.636H11.123V12.637Z"/></g><defs><clipPath id="clip0_104_977"><rect width="16" height="16"/></clipPath></defs></svg>