<svg width="16" height="16" viewBox="0 0 16 16" fill="none" xmlns="http://www.w3.org/2000/svg">
<g clip-path="url(#clip0_104_871)">
<path d="M3.5 0C3.63261 0 3.75979 0.0526784 3.85355 0.146447C3.94732 0.240215 4 0.367392 4 0.5V1H12V0.5C12 0.367392 12.0527 0.240215 12.1464 0.146447C12.2402 0.0526784 12.3674 0 12.5 0C12.6326 0 12.7598 0.0526784 12.8536 0.146447C12.9473 0.240215 13 0.367392 13 0.5V1H14C14.5304 1 15.0391 1.21071 15.4142 1.58579C15.7893 1.96086 16 2.46957 16 3V14C16 14.5304 15.7893 15.0391 15.4142 15.4142C15.0391 15.7893 14.5304 16 14 16H2C1.46957 16 0.960859 15.7893 0.585786 15.4142C0.210714 15.0391 0 14.5304 0 14V3C0 2.46957 0.210714 1.96086 0.585786 1.58579C0.960859 1.21071 1.46957 1 2 1H3V0.5C3 0.367392 3.05268 0.240215 3.14645 0.146447C3.24021 0.0526784 3.36739 0 3.5 0V0ZM13.454 3H2.545C2.245 3 2 3.224 2 3.5V4.5C2 4.776 2.244 5 2.545 5H13.455C13.755 5 14 4.776 14 4.5V3.5C14 3.224 13.756 3 13.454 3ZM11.214 7.855C11.2719 7.8578 11.3297 7.84882 11.384 7.8286C11.4383 7.80838 11.488 7.77734 11.5299 7.73737C11.5719 7.69739 11.6053 7.64932 11.6281 7.59606C11.6509 7.54279 11.6627 7.48545 11.6627 7.4275C11.6627 7.36955 11.6509 7.31221 11.6281 7.25894C11.6053 7.20568 11.5719 7.15761 11.5299 7.11763C11.488 7.07766 11.4383 7.04662 11.384 7.0264C11.3297 7.00618 11.2719 6.9972 11.214 7C11.1575 6.9996 11.1014 7.01046 11.0491 7.03194C10.9968 7.05342 10.9493 7.08509 10.9094 7.12511C10.8695 7.16513 10.8379 7.21271 10.8166 7.26505C10.7952 7.3174 10.7845 7.37347 10.785 7.43C10.785 7.668 10.977 7.855 11.215 7.855H11.214ZM11.551 8.418H10.879V12.523H11.551V8.418ZM4.684 12.523V10.223H6.945V9.613H4.684V7.801H7.148V7.191H4V12.523H4.684ZM7.98 12.523H8.656V9.98C8.656 9.426 8.883 8.973 9.609 8.973C9.734 8.973 9.867 8.977 9.938 8.988V8.375C9.85391 8.36236 9.76903 8.35568 9.684 8.355C9.102 8.355 8.793 8.675 8.672 8.922H8.652V8.418H7.98V12.523Z" fill="black"/>
</g>
<defs>
<clipPath id="clip0_104_871">
<rect width="16" height="16" fill="white"/>
</clipPath>
</defs>
</svg>
