<svg width="16" height="16" viewBox="0 0 16 16" xmlns="http://www.w3.org/2000/svg" fill='currentColor'><g clip-path="url(#clip0_104_897)"><path d="M3.5 0C3.63261 0 3.75979 0.0526784 3.85355 0.146447C3.94732 0.240215 4 0.367392 4 0.5V1H12V0.5C12 0.367392 12.0527 0.240215 12.1464 0.146447C12.2402 0.0526784 12.3674 0 12.5 0C12.6326 0 12.7598 0.0526784 12.8536 0.146447C12.9473 0.240215 13 0.367392 13 0.5V1H14C14.5304 1 15.0391 1.21071 15.4142 1.58579C15.7893 1.96086 16 2.46957 16 3V14C16 14.5304 15.7893 15.0391 15.4142 15.4142C15.0391 15.7893 14.5304 16 14 16H2C1.46957 16 0.960859 15.7893 0.585786 15.4142C0.210714 15.0391 0 14.5304 0 14V3C0 2.46957 0.210714 1.96086 0.585786 1.58579C0.960859 1.21071 1.46957 1 2 1H3V0.5C3 0.367392 3.05268 0.240215 3.14645 0.146447C3.24021 0.0526784 3.36739 0 3.5 0V0ZM2 3.5V4.5C2 4.776 2.244 5 2.545 5H13.455C13.755 5 14 4.776 14 4.5V3.5C14 3.224 13.756 3 13.454 3H2.545C2.245 3 2 3.224 2 3.5ZM8.5 8.5C8.5 8.36739 8.44732 8.24021 8.35355 8.14645C8.25979 8.05268 8.13261 8 8 8C7.86739 8 7.74021 8.05268 7.64645 8.14645C7.55268 8.24021 7.5 8.36739 7.5 8.5V10H6C5.86739 10 5.74021 10.0527 5.64645 10.1464C5.55268 10.2402 5.5 10.3674 5.5 10.5C5.5 10.6326 5.55268 10.7598 5.64645 10.8536C5.74021 10.9473 5.86739 11 6 11H7.5V12.5C7.5 12.6326 7.55268 12.7598 7.64645 12.8536C7.74021 12.9473 7.86739 13 8 13C8.13261 13 8.25979 12.9473 8.35355 12.8536C8.44732 12.7598 8.5 12.6326 8.5 12.5V11H10C10.1326 11 10.2598 10.9473 10.3536 10.8536C10.4473 10.7598 10.5 10.6326 10.5 10.5C10.5 10.3674 10.4473 10.2402 10.3536 10.1464C10.2598 10.0527 10.1326 10 10 10H8.5V8.5Z"/></g><defs><clipPath id="clip0_104_897"><rect width="16" height="16"/></clipPath></defs></svg>