<svg width="16" height="16" viewBox="0 0 16 16" fill="none" xmlns="http://www.w3.org/2000/svg">
<g clip-path="url(#clip0_104_951)">
<path d="M6.445 11.688V6.354H5.812C5.35864 6.59567 4.92049 6.86484 4.5 7.16V7.855C4.875 7.598 5.469 7.235 5.758 7.078H5.77V11.688H6.445ZM7.633 10.383C7.68 11.023 8.227 11.789 9.336 11.789C10.594 11.789 11.336 10.723 11.336 8.918C11.336 6.984 10.555 6.25 9.383 6.25C8.457 6.25 7.586 6.922 7.586 8.059C7.586 9.219 8.41 9.829 9.262 9.829C10.008 9.829 10.492 9.453 10.645 9.039H10.672C10.668 10.355 10.211 11.203 9.367 11.203C8.703 11.203 8.359 10.753 8.317 10.383H7.633ZM10.586 8.066C10.586 8.762 10.027 9.246 9.402 9.246C8.801 9.246 8.258 8.863 8.258 8.046C8.258 7.223 8.84 6.836 9.426 6.836C10.059 6.836 10.586 7.234 10.586 8.066Z" fill="black"/>
<path d="M3.5 0C3.63261 0 3.75979 0.0526784 3.85355 0.146447C3.94732 0.240215 4 0.367392 4 0.5V1H12V0.5C12 0.367392 12.0527 0.240215 12.1464 0.146447C12.2402 0.0526784 12.3674 0 12.5 0C12.6326 0 12.7598 0.0526784 12.8536 0.146447C12.9473 0.240215 13 0.367392 13 0.5V1H14C14.5304 1 15.0391 1.21071 15.4142 1.58579C15.7893 1.96086 16 2.46957 16 3V14C16 14.5304 15.7893 15.0391 15.4142 15.4142C15.0391 15.7893 14.5304 16 14 16H2C1.46957 16 0.960859 15.7893 0.585786 15.4142C0.210714 15.0391 0 14.5304 0 14V3C0 2.46957 0.210714 1.96086 0.585786 1.58579C0.960859 1.21071 1.46957 1 2 1H3V0.5C3 0.367392 3.05268 0.240215 3.14645 0.146447C3.24021 0.0526784 3.36739 0 3.5 0V0ZM1 4V14C1 14.2652 1.10536 14.5196 1.29289 14.7071C1.48043 14.8946 1.73478 15 2 15H14C14.2652 15 14.5196 14.8946 14.7071 14.7071C14.8946 14.5196 15 14.2652 15 14V4H1Z" fill="black"/>
</g>
<defs>
<clipPath id="clip0_104_951">
<rect width="16" height="16" fill="white"/>
</clipPath>
</defs>
</svg>
