<svg width="16" height="16" viewBox="0 0 16 16" xmlns="http://www.w3.org/2000/svg" fill='currentColor'><g clip-path="url(#clip0_104_858)"><path d="M3.5 0C3.63261 0 3.75979 0.0526784 3.85355 0.146447C3.94732 0.240215 4 0.367392 4 0.5V1H12V0.5C12 0.367392 12.0527 0.240215 12.1464 0.146447C12.2402 0.0526784 12.3674 0 12.5 0C12.6326 0 12.7598 0.0526784 12.8536 0.146447C12.9473 0.240215 13 0.367392 13 0.5V1H14C14.5304 1 15.0391 1.21071 15.4142 1.58579C15.7893 1.96086 16 2.46957 16 3V14C16 14.5304 15.7893 15.0391 15.4142 15.4142C15.0391 15.7893 14.5304 16 14 16H2C1.46957 16 0.960859 15.7893 0.585786 15.4142C0.210714 15.0391 0 14.5304 0 14V3C0 2.46957 0.210714 1.96086 0.585786 1.58579C0.960859 1.21071 1.46957 1 2 1H3V0.5C3 0.367392 3.05268 0.240215 3.14645 0.146447C3.24021 0.0526784 3.36739 0 3.5 0V0ZM13.454 3H2.545C2.245 3 2 3.224 2 3.5V4.5C2 4.776 2.244 5 2.545 5H13.455C13.755 5 14 4.776 14 4.5V3.5C14 3.224 13.756 3 13.454 3ZM10.854 8.854C10.9479 8.76011 11.0006 8.63278 11.0006 8.5C11.0006 8.36722 10.9479 8.23989 10.854 8.146C10.7601 8.05211 10.6328 7.99937 10.5 7.99937C10.3672 7.99937 10.2399 8.05211 10.146 8.146L7.5 10.793L6.354 9.646C6.30751 9.59951 6.25232 9.56264 6.19158 9.53748C6.13084 9.51232 6.06574 9.49937 6 9.49937C5.93426 9.49937 5.86916 9.51232 5.80842 9.53748C5.74768 9.56264 5.69249 9.59951 5.646 9.646C5.59951 9.69249 5.56264 9.74768 5.53748 9.80842C5.51232 9.86916 5.49937 9.93426 5.49937 10C5.49937 10.0657 5.51232 10.1308 5.53748 10.1916C5.56264 10.2523 5.59951 10.3075 5.646 10.354L7.146 11.854C7.19245 11.9006 7.24762 11.9375 7.30837 11.9627C7.36911 11.9879 7.43423 12.0009 7.5 12.0009C7.56577 12.0009 7.63089 11.9879 7.69163 11.9627C7.75238 11.9375 7.80755 11.9006 7.854 11.854L10.854 8.854Z"/></g><defs><clipPath id="clip0_104_858"><rect width="16" height="16"/></clipPath></defs></svg>