<svg width="16" height="16" viewBox="0 0 16 16" xmlns="http://www.w3.org/2000/svg" fill='currentColor'><g clip-path="url(#clip0_104_995)"><path d="M6.14598 7.14601C6.19242 7.09945 6.2476 7.0625 6.30834 7.0373C6.36909 7.01209 6.43421 6.99911 6.49998 6.99911C6.56575 6.99911 6.63087 7.01209 6.69161 7.0373C6.75236 7.0625 6.80753 7.09945 6.85398 7.14601L7.99998 8.29301L9.14598 7.14601C9.23986 7.05212 9.3672 6.99938 9.49998 6.99938C9.63275 6.99938 9.76009 7.05212 9.85398 7.14601C9.94786 7.2399 10.0006 7.36723 10.0006 7.50001C10.0006 7.63278 9.94786 7.76012 9.85398 7.85401L8.70698 9.00001L9.85398 10.146C9.94786 10.2399 10.0006 10.3672 10.0006 10.5C10.0006 10.6328 9.94786 10.7601 9.85398 10.854C9.76009 10.9479 9.63275 11.0006 9.49998 11.0006C9.3672 11.0006 9.23986 10.9479 9.14598 10.854L7.99998 9.70701L6.85398 10.854C6.76009 10.9479 6.63275 11.0006 6.49998 11.0006C6.3672 11.0006 6.23986 10.9479 6.14598 10.854C6.05209 10.7601 5.99935 10.6328 5.99935 10.5C5.99935 10.3672 6.05209 10.2399 6.14598 10.146L7.29298 9.00001L6.14598 7.85401C6.09941 7.80756 6.06247 7.75239 6.03727 7.69164C6.01206 7.6309 5.99908 7.56578 5.99908 7.50001C5.99908 7.43424 6.01206 7.36912 6.03727 7.30837C6.06247 7.24763 6.09941 7.19245 6.14598 7.14601Z"/><path d="M3.5 0C3.63261 0 3.75979 0.0526784 3.85355 0.146447C3.94732 0.240215 4 0.367392 4 0.5V1H12V0.5C12 0.367392 12.0527 0.240215 12.1464 0.146447C12.2402 0.0526784 12.3674 0 12.5 0C12.6326 0 12.7598 0.0526784 12.8536 0.146447C12.9473 0.240215 13 0.367392 13 0.5V1H14C14.5304 1 15.0391 1.21071 15.4142 1.58579C15.7893 1.96086 16 2.46957 16 3V14C16 14.5304 15.7893 15.0391 15.4142 15.4142C15.0391 15.7893 14.5304 16 14 16H2C1.46957 16 0.960859 15.7893 0.585786 15.4142C0.210714 15.0391 0 14.5304 0 14V3C0 2.46957 0.210714 1.96086 0.585786 1.58579C0.960859 1.21071 1.46957 1 2 1H3V0.5C3 0.367392 3.05268 0.240215 3.14645 0.146447C3.24021 0.0526784 3.36739 0 3.5 0V0ZM1 4V14C1 14.2652 1.10536 14.5196 1.29289 14.7071C1.48043 14.8946 1.73478 15 2 15H14C14.2652 15 14.5196 14.8946 14.7071 14.7071C14.8946 14.5196 15 14.2652 15 14V4H1Z"/></g><defs><clipPath id="clip0_104_995"><rect width="16" height="16"/></clipPath></defs></svg>