<svg width="16" height="16" viewBox="0 0 16 16" xmlns="http://www.w3.org/2000/svg" fill='currentColor'><g clip-path="url(#clip0_104_1023)"><path fill-rule="evenodd" clip-rule="evenodd" d="M10.961 12.365C11.2462 12.0611 11.4288 11.6753 11.483 11.262L14.593 12.644C14.7452 12.7119 14.912 12.7406 15.0781 12.7275C15.2443 12.7145 15.4045 12.6602 15.5443 12.5695C15.6841 12.4787 15.7991 12.3545 15.8786 12.2081C15.9582 12.0617 15.9999 11.8977 16 11.731V4.26902C15.9999 4.1025 15.9581 3.93865 15.8786 3.79234C15.7991 3.64603 15.6843 3.5219 15.5446 3.43121C15.4049 3.34052 15.2449 3.28614 15.0788 3.27301C14.9128 3.25988 14.7462 3.28841 14.594 3.35602L11.483 4.73802C11.4195 4.25711 11.1833 3.81568 10.8185 3.49595C10.4537 3.17621 9.98509 2.99996 9.5 3.00002H4.272L10.962 12.365H10.961ZM0.847 3.36502C0.585222 3.54982 0.371653 3.79478 0.224258 4.07931C0.0768632 4.36383 -4.60143e-05 4.67959 2.06539e-08 5.00002V11C2.06539e-08 11.5305 0.210714 12.0392 0.585786 12.4142C0.960859 12.7893 1.46957 13 2 13H7.728L0.847 3.36602V3.36502ZM10.593 15.29L0.593 1.29002L1.407 0.710022L11.407 14.71L10.593 15.29Z"/></g><defs><clipPath id="clip0_104_1023"><rect width="16" height="16"/></clipPath></defs></svg>