<svg width="16" height="16" viewBox="0 0 16 16" fill="none" xmlns="http://www.w3.org/2000/svg">
<g clip-path="url(#clip0_104_1009)">
<path d="M6 3C6 3.79565 5.68393 4.55871 5.12132 5.12132C4.55871 5.68393 3.79565 6 3 6C2.20435 6 1.44129 5.68393 0.87868 5.12132C0.31607 4.55871 0 3.79565 0 3C0 2.20435 0.31607 1.44129 0.87868 0.87868C1.44129 0.31607 2.20435 0 3 0C3.79565 0 4.55871 0.31607 5.12132 0.87868C5.68393 1.44129 6 2.20435 6 3ZM1 3C1 3.53043 1.21071 4.03914 1.58579 4.41421C1.96086 4.78929 2.46957 5 3 5C3.53043 5 4.03914 4.78929 4.41421 4.41421C4.78929 4.03914 5 3.53043 5 3C5 2.46957 4.78929 1.96086 4.41421 1.58579C4.03914 1.21071 3.53043 1 3 1C2.46957 1 1.96086 1.21071 1.58579 1.58579C1.21071 1.96086 1 2.46957 1 3Z" fill="black"/>
<path d="M9 6H9.5C9.98509 5.99994 10.4537 6.17619 10.8185 6.49593C11.1833 6.81566 11.4195 7.25709 11.483 7.738L14.593 6.356C14.7452 6.28817 14.912 6.25946 15.0781 6.27249C15.2443 6.28551 15.4045 6.33985 15.5443 6.43056C15.6841 6.52128 15.7991 6.6455 15.8786 6.79192C15.9582 6.93835 15.9999 7.10235 16 7.269V14.731C15.9999 14.8975 15.9581 15.0614 15.8786 15.2077C15.7991 15.354 15.6843 15.4781 15.5446 15.5688C15.4049 15.6595 15.2449 15.7139 15.0788 15.727C14.9128 15.7401 14.7462 15.7116 14.594 15.644L11.483 14.262C11.4195 14.7429 11.1833 15.1843 10.8185 15.5041C10.4537 15.8238 9.98509 16.0001 9.5 16H2C1.46957 16 0.960859 15.7893 0.585786 15.4142C0.210714 15.0391 0 14.5304 0 14V8C0 7.46957 0.210714 6.96086 0.585786 6.58579C0.960859 6.21071 1.46957 6 2 6H9ZM15 14.73V7.27L11.5 8.825V13.175L15 14.731V14.73ZM1 8V14C1 14.2652 1.10536 14.5196 1.29289 14.7071C1.48043 14.8946 1.73478 15 2 15H9.5C9.76522 15 10.0196 14.8946 10.2071 14.7071C10.3946 14.5196 10.5 14.2652 10.5 14V8C10.5 7.73478 10.3946 7.48043 10.2071 7.29289C10.0196 7.10536 9.76522 7 9.5 7H2C1.73478 7 1.48043 7.10536 1.29289 7.29289C1.10536 7.48043 1 7.73478 1 8Z" fill="black"/>
<path d="M9 6C9.79565 6 10.5587 5.68393 11.1213 5.12132C11.6839 4.55871 12 3.79565 12 3C12 2.20435 11.6839 1.44129 11.1213 0.87868C10.5587 0.31607 9.79565 0 9 0C8.20435 0 7.44129 0.31607 6.87868 0.87868C6.31607 1.44129 6 2.20435 6 3C6 3.79565 6.31607 4.55871 6.87868 5.12132C7.44129 5.68393 8.20435 6 9 6ZM7 3C7 2.46957 7.21071 1.96086 7.58579 1.58579C7.96086 1.21071 8.46957 1 9 1C9.53043 1 10.0391 1.21071 10.4142 1.58579C10.7893 1.96086 11 2.46957 11 3C11 3.53043 10.7893 4.03914 10.4142 4.41421C10.0391 4.78929 9.53043 5 9 5C8.46957 5 7.96086 4.78929 7.58579 4.41421C7.21071 4.03914 7 3.53043 7 3Z" fill="black"/>
</g>
<defs>
<clipPath id="clip0_104_1009">
<rect width="16" height="16" fill="white"/>
</clipPath>
</defs>
</svg>
