<svg width="16" height="16" viewBox="0 0 16 16" fill="none" xmlns="http://www.w3.org/2000/svg">
<path d="M5 8C5 6.343 7.343 5 9 5V4C7.93913 4 6.92172 4.42143 6.17157 5.17157C5.42143 5.92172 5 6.93913 5 8Z" fill="black"/>
<path d="M12.318 3.00001H14.333C15.253 3.00001 16 3.74601 16 4.66701V11.333C16 12.253 15.254 13 14.333 13H12.318C11.3352 13.6541 10.1805 14.0021 9 14C7.81947 14.002 6.66485 13.654 5.682 13H1.667C0.747 13 0 12.254 0 11.333V4.66701C0 3.74701 0.746 3.00001 1.667 3.00001H2C2 2.73479 2.10536 2.48044 2.29289 2.2929C2.48043 2.10537 2.73478 2.00001 3 2.00001H4C4.26522 2.00001 4.51957 2.10537 4.70711 2.2929C4.89464 2.48044 5 2.73479 5 3.00001H5.682C6.6648 2.34595 7.81945 1.99795 9 2.00001C10.227 2.00001 11.367 2.36801 12.318 3.00001ZM2 4.50001C2 4.3674 1.94732 4.24022 1.85355 4.14646C1.75979 4.05269 1.63261 4.00001 1.5 4.00001C1.36739 4.00001 1.24021 4.05269 1.14645 4.14646C1.05268 4.24022 1 4.3674 1 4.50001C1 4.63262 1.05268 4.75979 1.14645 4.85356C1.24021 4.94733 1.36739 5.00001 1.5 5.00001C1.63261 5.00001 1.75979 4.94733 1.85355 4.85356C1.94732 4.75979 2 4.63262 2 4.50001ZM14 8.00001C14 6.67393 13.4732 5.40216 12.5355 4.46448C11.5979 3.52679 10.3261 3.00001 9 3.00001C7.67392 3.00001 6.40215 3.52679 5.46447 4.46448C4.52678 5.40216 4 6.67393 4 8.00001C4 9.32609 4.52678 10.5979 5.46447 11.5355C6.40215 12.4732 7.67392 13 9 13C10.3261 13 11.5979 12.4732 12.5355 11.5355C13.4732 10.5979 14 9.32609 14 8.00001Z" fill="black"/>
</svg>
