<svg width="16" height="16" viewBox="0 0 16 16" xmlns="http://www.w3.org/2000/svg" fill='currentColor'><g clip-path="url(#clip0_104_1000)"><path d="M15 12C15 12.2652 14.8946 12.5196 14.7071 12.7071C14.5196 12.8946 14.2652 13 14 13H2C1.73478 13 1.48043 12.8946 1.29289 12.7071C1.10536 12.5196 1 12.2652 1 12V6C1 5.73478 1.10536 5.48043 1.29289 5.29289C1.48043 5.10536 1.73478 5 2 5H3.172C3.96724 4.99956 4.72977 4.6834 5.292 4.121L6.122 3.293C6.309 3.10594 6.5625 3.00059 6.827 3H9.171C9.43619 3.00006 9.69051 3.10545 9.878 3.293L10.706 4.121C10.9846 4.39971 11.3154 4.6208 11.6795 4.77162C12.0436 4.92244 12.4339 5.00005 12.828 5H14C14.2652 5 14.5196 5.10536 14.7071 5.29289C14.8946 5.48043 15 5.73478 15 6V12ZM2 4C1.46957 4 0.960859 4.21071 0.585786 4.58579C0.210714 4.96086 0 5.46957 0 6L0 12C0 12.5304 0.210714 13.0391 0.585786 13.4142C0.960859 13.7893 1.46957 14 2 14H14C14.5304 14 15.0391 13.7893 15.4142 13.4142C15.7893 13.0391 16 12.5304 16 12V6C16 5.46957 15.7893 4.96086 15.4142 4.58579C15.0391 4.21071 14.5304 4 14 4H12.828C12.2976 3.99989 11.789 3.7891 11.414 3.414L10.586 2.586C10.211 2.2109 9.70239 2.00011 9.172 2H6.828C6.29761 2.00011 5.78899 2.2109 5.414 2.586L4.586 3.414C4.21101 3.7891 3.70239 3.99989 3.172 4H2Z"/><path d="M8 11C7.33696 11 6.70107 10.7366 6.23223 10.2678C5.76339 9.79893 5.5 9.16304 5.5 8.5C5.5 7.83696 5.76339 7.20107 6.23223 6.73223C6.70107 6.26339 7.33696 6 8 6C8.66304 6 9.29893 6.26339 9.76777 6.73223C10.2366 7.20107 10.5 7.83696 10.5 8.5C10.5 9.16304 10.2366 9.79893 9.76777 10.2678C9.29893 10.7366 8.66304 11 8 11ZM8 12C8.92826 12 9.8185 11.6313 10.4749 10.9749C11.1313 10.3185 11.5 9.42826 11.5 8.5C11.5 7.57174 11.1313 6.6815 10.4749 6.02513C9.8185 5.36875 8.92826 5 8 5C7.07174 5 6.1815 5.36875 5.52513 6.02513C4.86875 6.6815 4.5 7.57174 4.5 8.5C4.5 9.42826 4.86875 10.3185 5.52513 10.9749C6.1815 11.6313 7.07174 12 8 12ZM3 6.5C3 6.63261 2.94732 6.75979 2.85355 6.85355C2.75979 6.94732 2.63261 7 2.5 7C2.36739 7 2.24021 6.94732 2.14645 6.85355C2.05268 6.75979 2 6.63261 2 6.5C2 6.36739 2.05268 6.24021 2.14645 6.14645C2.24021 6.05268 2.36739 6 2.5 6C2.63261 6 2.75979 6.05268 2.85355 6.14645C2.94732 6.24021 3 6.36739 3 6.5Z"/></g><defs><clipPath id="clip0_104_1000"><rect width="16" height="16"/></clipPath></defs></svg>