<svg width="16" height="16" viewBox="0 0 16 16" fill="none" xmlns="http://www.w3.org/2000/svg">
<g clip-path="url(#clip0_104_1023)">
<path fill-rule="evenodd" clip-rule="evenodd" d="M10.961 12.365C11.2462 12.0611 11.4288 11.6753 11.483 11.262L14.593 12.644C14.7452 12.7118 14.912 12.7405 15.0781 12.7275C15.2443 12.7145 15.4045 12.6601 15.5443 12.5694C15.6841 12.4787 15.7991 12.3545 15.8786 12.2081C15.9582 12.0616 15.9999 11.8976 16 11.731V4.26899C15.9999 4.10247 15.9581 3.93862 15.8786 3.79231C15.7991 3.646 15.6843 3.52187 15.5446 3.43118C15.4049 3.34048 15.2449 3.28611 15.0788 3.27298C14.9128 3.25985 14.7462 3.28838 14.594 3.35599L11.483 4.73799C11.4195 4.25708 11.1833 3.81565 10.8185 3.49592C10.4537 3.17618 9.98509 2.99993 9.5 2.99999H4.272L10.962 12.365H10.961ZM0.847 3.36499C0.585222 3.54979 0.371653 3.79475 0.224258 4.07928C0.0768632 4.3638 -4.60143e-05 4.67956 2.06539e-08 4.99999V11C2.06539e-08 11.5304 0.210714 12.0391 0.585786 12.4142C0.960859 12.7893 1.46957 13 2 13H7.728L0.847 3.36599V3.36499ZM10.593 15.29L0.593 1.28999L1.407 0.709991L11.407 14.71L10.593 15.29Z" fill="black"/>
</g>
<defs>
<clipPath id="clip0_104_1023">
<rect width="16" height="16" fill="white"/>
</clipPath>
</defs>
</svg>
