<svg width="24" height="24" viewBox="0 0 24 24" xmlns="http://www.w3.org/2000/svg" fill='currentColor'><g clip-path="url(#clip0_1616_5063)"><path d="M16 6.99999H15L14 5.99999H10L9 6.99999H8C6.9 6.99999 6 7.89999 6 8.99999V15C6 16.1 6.9 17 8 17H16C17.1 17 18 16.1 18 15V8.99999C18 7.89999 17.1 6.99999 16 6.99999ZM12 14C10.9 14 10 13.1 10 12C10 10.9 10.9 9.99999 12 9.99999C13.1 9.99999 14 10.9 14 12C14 13.1 13.1 14 12 14Z"/><path d="M8.57 0.509992L13.05 4.98999V2.03999C17.77 2.50999 21.53 6.26999 22 10.99H24C23.34 3.01999 15.49 -1.59001 8.57 0.509992Z"/><path d="M10.95 21.96C6.23 21.49 2.47 17.73 2 13.01H0C0.66 20.98 8.51 25.59 15.43 23.49L10.95 19.01V21.96Z"/></g><defs><clipPath id="clip0_1616_5063"><rect width="24" height="24"/></clipPath></defs></svg>