<svg width="16" height="16" viewBox="0 0 16 16" fill="none" xmlns="http://www.w3.org/2000/svg">
<path fill-rule="evenodd" clip-rule="evenodd" d="M0 5C0 4.46957 0.210714 3.96086 0.585786 3.58579C0.960859 3.21071 1.46957 3 2 3H9.5C9.98509 2.99994 10.4537 3.17619 10.8185 3.49593C11.1833 3.81566 11.4195 4.25709 11.483 4.738L14.593 3.356C14.7452 3.28817 14.912 3.25946 15.0781 3.27249C15.2443 3.28551 15.4045 3.33985 15.5443 3.43056C15.6841 3.52128 15.7991 3.6455 15.8786 3.79192C15.9582 3.93835 15.9999 4.10235 16 4.269V11.731C15.9999 11.8975 15.9581 12.0614 15.8786 12.2077C15.7991 12.354 15.6843 12.4781 15.5446 12.5688C15.4049 12.6595 15.2449 12.7139 15.0788 12.727C14.9128 12.7401 14.7462 12.7116 14.594 12.644L11.483 11.262C11.4195 11.7429 11.1833 12.1843 10.8185 12.5041C10.4537 12.8238 9.98509 13.0001 9.5 13H2C1.46957 13 0.960859 12.7893 0.585786 12.4142C0.210714 12.0391 0 11.5304 0 11V5ZM11.5 10.175L15 11.731V4.269L11.5 5.825V10.175ZM2 4C1.73478 4 1.48043 4.10536 1.29289 4.29289C1.10536 4.48043 1 4.73478 1 5V11C1 11.2652 1.10536 11.5196 1.29289 11.7071C1.48043 11.8946 1.73478 12 2 12H9.5C9.76522 12 10.0196 11.8946 10.2071 11.7071C10.3946 11.5196 10.5 11.2652 10.5 11V5C10.5 4.73478 10.3946 4.48043 10.2071 4.29289C10.0196 4.10536 9.76522 4 9.5 4H2Z" fill="black"/>
</svg>
