<svg width="16" height="16" viewBox="0 0 16 16" xmlns="http://www.w3.org/2000/svg" fill='currentColor'><g clip-path="url(#clip0_104_1021)"><path fill-rule="evenodd" clip-rule="evenodd" d="M10.961 12.365C11.2462 12.0611 11.4288 11.6753 11.483 11.262L14.593 12.644C14.7452 12.7119 14.912 12.7406 15.0781 12.7275C15.2443 12.7145 15.4045 12.6602 15.5443 12.5695C15.6841 12.4787 15.7991 12.3545 15.8786 12.2081C15.9582 12.0617 15.9999 11.8977 16 11.731V4.26902C15.9999 4.1025 15.9581 3.93865 15.8786 3.79234C15.7991 3.64603 15.6843 3.5219 15.5446 3.43121C15.4049 3.34052 15.2449 3.28614 15.0788 3.27301C14.9128 3.25988 14.7462 3.28841 14.594 3.35602L11.483 4.73802C11.4195 4.25711 11.1833 3.81568 10.8185 3.49595C10.4537 3.17621 9.98509 2.99996 9.5 3.00002H4.272L4.986 4.00002H9.5C9.76522 4.00002 10.0196 4.10538 10.2071 4.29292C10.3946 4.48045 10.5 4.73481 10.5 5.00002V11C10.5002 11.1826 10.4504 11.3617 10.356 11.518L10.961 12.365ZM1.428 4.18002C1.29584 4.27208 1.1879 4.39472 1.11338 4.5375C1.03885 4.68028 0.999957 4.83896 1 5.00002V11C1 11.2652 1.10536 11.5196 1.29289 11.7071C1.48043 11.8947 1.73478 12 2 12H7.014L7.728 13H2C1.46957 13 0.960859 12.7893 0.585786 12.4142C0.210714 12.0392 0 11.5305 0 11V5.00002C0 4.32502 0.334 3.72802 0.847 3.36602L1.427 4.18002H1.428ZM15 11.73L11.5 10.175V5.82502L15 4.26902V11.731V11.73ZM10.593 15.29L0.593 1.29002L1.407 0.710022L11.407 14.71L10.593 15.29Z"/></g><defs><clipPath id="clip0_104_1021"><rect width="16" height="16"/></clipPath></defs></svg>