<svg width="16" height="16" viewBox="0 0 16 16" fill="none" xmlns="http://www.w3.org/2000/svg">
<g clip-path="url(#clip0_104_1025)">
<path fill-rule="evenodd" clip-rule="evenodd" d="M7.27 1.04699C7.36354 0.94708 7.47659 0.867433 7.60216 0.812983C7.72772 0.758533 7.86313 0.730438 8 0.730438C8.13686 0.730438 8.27227 0.758533 8.39784 0.812983C8.5234 0.867433 8.63646 0.94708 8.73 1.04699L15.075 7.81699C15.675 8.45499 15.221 9.49999 14.345 9.49999H11.5V10.5C11.5 10.7652 11.3946 11.0196 11.2071 11.2071C11.0196 11.3946 10.7652 11.5 10.5 11.5H5.5C5.23478 11.5 4.98043 11.3946 4.79289 11.2071C4.60535 11.0196 4.5 10.7652 4.5 10.5V9.49999H1.654C0.779996 9.49999 0.325996 8.45499 0.923996 7.81599L7.27 1.04699ZM14.346 8.49999L8 1.73099L1.654 8.49999H4.5C4.76521 8.49999 5.01957 8.60535 5.2071 8.79288C5.39464 8.98042 5.5 9.23477 5.5 9.49999V10.5H10.5V9.49999C10.5 9.23477 10.6054 8.98042 10.7929 8.79288C10.9804 8.60535 11.2348 8.49999 11.5 8.49999H14.346ZM4.5 13.5C4.5 13.2348 4.60535 12.9804 4.79289 12.7929C4.98043 12.6053 5.23478 12.5 5.5 12.5H10.5C10.7652 12.5 11.0196 12.6053 11.2071 12.7929C11.3946 12.9804 11.5 13.2348 11.5 13.5V14.5C11.5 14.7652 11.3946 15.0196 11.2071 15.2071C11.0196 15.3946 10.7652 15.5 10.5 15.5H5.5C5.23478 15.5 4.98043 15.3946 4.79289 15.2071C4.60535 15.0196 4.5 14.7652 4.5 14.5V13.5ZM10.5 13.5H5.5V14.5H10.5V13.5Z" fill="black"/>
</g>
<defs>
<clipPath id="clip0_104_1025">
<rect width="16" height="16" fill="white"/>
</clipPath>
</defs>
</svg>
