<svg width="16" height="16" viewBox="0 0 16 16" xmlns="http://www.w3.org/2000/svg" fill='currentColor'><g clip-path="url(#clip0_104_1027)"><path d="M7.27 1.04702C7.36354 0.94711 7.47659 0.867464 7.60216 0.813014C7.72772 0.758564 7.86313 0.730469 8 0.730469C8.13686 0.730469 8.27227 0.758564 8.39784 0.813014C8.5234 0.867464 8.63646 0.94711 8.73 1.04702L15.075 7.81702C15.675 8.45502 15.221 9.50002 14.345 9.50002H11.5V10.5C11.5 10.7652 11.3946 11.0196 11.2071 11.2071C11.0196 11.3947 10.7652 11.5 10.5 11.5H5.5C5.23478 11.5 4.98043 11.3947 4.79289 11.2071C4.60535 11.0196 4.5 10.7652 4.5 10.5V9.50002H1.654C0.779996 9.50002 0.325996 8.45502 0.923996 7.81602L7.27 1.04702ZM4.5 13.5C4.5 13.2348 4.60535 12.9805 4.79289 12.7929C4.98043 12.6054 5.23478 12.5 5.5 12.5H10.5C10.7652 12.5 11.0196 12.6054 11.2071 12.7929C11.3946 12.9805 11.5 13.2348 11.5 13.5V14.5C11.5 14.7652 11.3946 15.0196 11.2071 15.2071C11.0196 15.3947 10.7652 15.5 10.5 15.5H5.5C5.23478 15.5 4.98043 15.3947 4.79289 15.2071C4.60535 15.0196 4.5 14.7652 4.5 14.5V13.5Z"/></g><defs><clipPath id="clip0_104_1027"><rect width="16" height="16"/></clipPath></defs></svg>