<svg width="16" height="16" viewBox="0 0 16 16" xmlns="http://www.w3.org/2000/svg" fill='currentColor'><g clip-path="url(#clip0_104_1029)"><path d="M14.5 3C14.6326 3 14.7598 3.05268 14.8536 3.14645C14.9473 3.24021 15 3.36739 15 3.5V12.5C15 12.6326 14.9473 12.7598 14.8536 12.8536C14.7598 12.9473 14.6326 13 14.5 13H1.5C1.36739 13 1.24021 12.9473 1.14645 12.8536C1.05268 12.7598 1 12.6326 1 12.5V3.5C1 3.36739 1.05268 3.24021 1.14645 3.14645C1.24021 3.05268 1.36739 3 1.5 3H14.5ZM1.5 2C1.10218 2 0.720644 2.15804 0.43934 2.43934C0.158035 2.72064 0 3.10218 0 3.5L0 12.5C0 12.8978 0.158035 13.2794 0.43934 13.5607C0.720644 13.842 1.10218 14 1.5 14H14.5C14.8978 14 15.2794 13.842 15.5607 13.5607C15.842 13.2794 16 12.8978 16 12.5V3.5C16 3.10218 15.842 2.72064 15.5607 2.43934C15.2794 2.15804 14.8978 2 14.5 2H1.5Z"/><path d="M7 5.50001C7 5.3674 7.05268 5.24022 7.14645 5.14646C7.24021 5.05269 7.36739 5.00001 7.5 5.00001H12.5C12.6326 5.00001 12.7598 5.05269 12.8536 5.14646C12.9473 5.24022 13 5.3674 13 5.50001C13 5.63262 12.9473 5.75979 12.8536 5.85356C12.7598 5.94733 12.6326 6.00001 12.5 6.00001H7.5C7.36739 6.00001 7.24021 5.94733 7.14645 5.85356C7.05268 5.75979 7 5.63262 7 5.50001ZM5.504 4.64601C5.55056 4.69245 5.58751 4.74763 5.61271 4.80837C5.63792 4.86912 5.65089 4.93424 5.65089 5.00001C5.65089 5.06578 5.63792 5.1309 5.61271 5.19164C5.58751 5.25239 5.55056 5.30756 5.504 5.35401L4.004 6.85401C3.95755 6.90057 3.90238 6.93751 3.84163 6.96272C3.78089 6.98793 3.71577 7.0009 3.65 7.0009C3.58423 7.0009 3.51911 6.98793 3.45837 6.96272C3.39762 6.93751 3.34245 6.90057 3.296 6.85401L2.796 6.35401C2.74951 6.30752 2.71264 6.25233 2.68748 6.19159C2.66232 6.13085 2.64937 6.06575 2.64937 6.00001C2.64937 5.86723 2.70211 5.7399 2.796 5.64601C2.88989 5.55212 3.01722 5.49938 3.15 5.49938C3.28278 5.49938 3.41011 5.55212 3.504 5.64601L3.65 5.79301L4.796 4.64601C4.84245 4.59945 4.89762 4.5625 4.95837 4.5373C5.01911 4.51209 5.08423 4.49911 5.15 4.49911C5.21577 4.49911 5.28089 4.51209 5.34163 4.5373C5.40238 4.5625 5.45755 4.59945 5.504 4.64601ZM7 9.50001C7 9.3674 7.05268 9.24022 7.14645 9.14645C7.24021 9.05269 7.36739 9.00001 7.5 9.00001H12.5C12.6326 9.00001 12.7598 9.05269 12.8536 9.14645C12.9473 9.24022 13 9.3674 13 9.50001C13 9.63262 12.9473 9.75979 12.8536 9.85356C12.7598 9.94733 12.6326 10 12.5 10H7.5C7.36739 10 7.24021 9.94733 7.14645 9.85356C7.05268 9.75979 7 9.63262 7 9.50001ZM5.504 8.64601C5.55056 8.69245 5.58751 8.74763 5.61271 8.80838C5.63792 8.86912 5.65089 8.93424 5.65089 9.00001C5.65089 9.06578 5.63792 9.1309 5.61271 9.19164C5.58751 9.25239 5.55056 9.30756 5.504 9.35401L4.004 10.854C3.95755 10.9006 3.90238 10.9375 3.84163 10.9627C3.78089 10.9879 3.71577 11.0009 3.65 11.0009C3.58423 11.0009 3.51911 10.9879 3.45837 10.9627C3.39762 10.9375 3.34245 10.9006 3.296 10.854L2.796 10.354C2.74951 10.3075 2.71264 10.2523 2.68748 10.1916C2.66232 10.1309 2.64937 10.0658 2.64937 10C2.64937 9.93426 2.66232 9.86916 2.68748 9.80842C2.71264 9.74769 2.74951 9.6925 2.796 9.64601C2.84249 9.59952 2.89768 9.56264 2.95842 9.53749C3.01916 9.51233 3.08426 9.49938 3.15 9.49938C3.21574 9.49938 3.28084 9.51233 3.34158 9.53749C3.40232 9.56264 3.45751 9.59952 3.504 9.64601L3.65 9.79301L4.796 8.64601C4.84245 8.59945 4.89762 8.5625 4.95837 8.5373C5.01911 8.51209 5.08423 8.49911 5.15 8.49911C5.21577 8.49911 5.28089 8.51209 5.34163 8.5373C5.40238 8.5625 5.45755 8.59945 5.504 8.64601Z"/></g><defs><clipPath id="clip0_104_1029"><rect width="16" height="16"/></clipPath></defs></svg>