<svg width="16" height="16" viewBox="0 0 16 16" xmlns="http://www.w3.org/2000/svg" fill='currentColor'><g clip-path="url(#clip0_104_1029)"><path d="M14.5 3C14.6326 3 14.7598 3.05268 14.8536 3.14645C14.9473 3.24021 15 3.36739 15 3.5V12.5C15 12.6326 14.9473 12.7598 14.8536 12.8536C14.7598 12.9473 14.6326 13 14.5 13H1.5C1.36739 13 1.24021 12.9473 1.14645 12.8536C1.05268 12.7598 1 12.6326 1 12.5V3.5C1 3.36739 1.05268 3.24021 1.14645 3.14645C1.24021 3.05268 1.36739 3 1.5 3H14.5ZM1.5 2C1.10218 2 0.720644 2.15804 0.43934 2.43934C0.158035 2.72064 0 3.10218 0 3.5L0 12.5C0 12.8978 0.158035 13.2794 0.43934 13.5607C0.720644 13.842 1.10218 14 1.5 14H14.5C14.8978 14 15.2794 13.842 15.5607 13.5607C15.842 13.2794 16 12.8978 16 12.5V3.5C16 3.10218 15.842 2.72064 15.5607 2.43934C15.2794 2.15804 14.8978 2 14.5 2H1.5Z"/><path d="M7 5.49998C7 5.36737 7.05268 5.24019 7.14645 5.14642C7.24021 5.05266 7.36739 4.99998 7.5 4.99998H12.5C12.6326 4.99998 12.7598 5.05266 12.8536 5.14642C12.9473 5.24019 13 5.36737 13 5.49998C13 5.63259 12.9473 5.75976 12.8536 5.85353C12.7598 5.9473 12.6326 5.99998 12.5 5.99998H7.5C7.36739 5.99998 7.24021 5.9473 7.14645 5.85353C7.05268 5.75976 7 5.63259 7 5.49998ZM5.504 4.64598C5.55056 4.69242 5.58751 4.7476 5.61271 4.80834C5.63792 4.86909 5.65089 4.93421 5.65089 4.99998C5.65089 5.06575 5.63792 5.13087 5.61271 5.19161C5.58751 5.25236 5.55056 5.30753 5.504 5.35398L4.004 6.85398C3.95755 6.90054 3.90238 6.93748 3.84163 6.96269C3.78089 6.9879 3.71577 7.00087 3.65 7.00087C3.58423 7.00087 3.51911 6.9879 3.45837 6.96269C3.39762 6.93748 3.34245 6.90054 3.296 6.85398L2.796 6.35398C2.74951 6.30749 2.71264 6.2523 2.68748 6.19156C2.66232 6.13082 2.64937 6.06572 2.64937 5.99998C2.64937 5.8672 2.70211 5.73986 2.796 5.64598C2.88989 5.55209 3.01722 5.49935 3.15 5.49935C3.28278 5.49935 3.41011 5.55209 3.504 5.64598L3.65 5.79298L4.796 4.64598C4.84245 4.59941 4.89762 4.56247 4.95837 4.53727C5.01911 4.51206 5.08423 4.49908 5.15 4.49908C5.21577 4.49908 5.28089 4.51206 5.34163 4.53727C5.40238 4.56247 5.45755 4.59941 5.504 4.64598ZM7 9.49998C7 9.36737 7.05268 9.24019 7.14645 9.14642C7.24021 9.05266 7.36739 8.99998 7.5 8.99998H12.5C12.6326 8.99998 12.7598 9.05266 12.8536 9.14642C12.9473 9.24019 13 9.36737 13 9.49998C13 9.63259 12.9473 9.75976 12.8536 9.85353C12.7598 9.9473 12.6326 9.99998 12.5 9.99998H7.5C7.36739 9.99998 7.24021 9.9473 7.14645 9.85353C7.05268 9.75976 7 9.63259 7 9.49998ZM5.504 8.64598C5.55056 8.69242 5.58751 8.7476 5.61271 8.80834C5.63792 8.86909 5.65089 8.93421 5.65089 8.99998C5.65089 9.06575 5.63792 9.13087 5.61271 9.19161C5.58751 9.25236 5.55056 9.30753 5.504 9.35398L4.004 10.854C3.95755 10.9005 3.90238 10.9375 3.84163 10.9627C3.78089 10.9879 3.71577 11.0009 3.65 11.0009C3.58423 11.0009 3.51911 10.9879 3.45837 10.9627C3.39762 10.9375 3.34245 10.9005 3.296 10.854L2.796 10.354C2.74951 10.3075 2.71264 10.2523 2.68748 10.1916C2.66232 10.1308 2.64937 10.0657 2.64937 9.99998C2.64937 9.93423 2.66232 9.86913 2.68748 9.80839C2.71264 9.74765 2.74951 9.69247 2.796 9.64598C2.84249 9.59949 2.89768 9.56261 2.95842 9.53745C3.01916 9.5123 3.08426 9.49935 3.15 9.49935C3.21574 9.49935 3.28084 9.5123 3.34158 9.53745C3.40232 9.56261 3.45751 9.59949 3.504 9.64598L3.65 9.79298L4.796 8.64598C4.84245 8.59941 4.89762 8.56247 4.95837 8.53727C5.01911 8.51206 5.08423 8.49908 5.15 8.49908C5.21577 8.49908 5.28089 8.51206 5.34163 8.53727C5.40238 8.56247 5.45755 8.59941 5.504 8.64598Z"/></g><defs><clipPath id="clip0_104_1029"><rect width="16" height="16"/></clipPath></defs></svg>