<svg width="16" height="16" viewBox="0 0 16 16" xmlns="http://www.w3.org/2000/svg" fill='currentColor'><g clip-path="url(#clip0_104_1075)"><path d="M14 1C14.2652 1 14.5196 1.10536 14.7071 1.29289C14.8946 1.48043 15 1.73478 15 2V14C15 14.2652 14.8946 14.5196 14.7071 14.7071C14.5196 14.8946 14.2652 15 14 15H2C1.73478 15 1.48043 14.8946 1.29289 14.7071C1.10536 14.5196 1 14.2652 1 14V2C1 1.73478 1.10536 1.48043 1.29289 1.29289C1.48043 1.10536 1.73478 1 2 1H14ZM2 0C1.46957 0 0.960859 0.210714 0.585786 0.585786C0.210714 0.960859 0 1.46957 0 2L0 14C0 14.5304 0.210714 15.0391 0.585786 15.4142C0.960859 15.7893 1.46957 16 2 16H14C14.5304 16 15.0391 15.7893 15.4142 15.4142C15.7893 15.0391 16 14.5304 16 14V2C16 1.46957 15.7893 0.960859 15.4142 0.585786C15.0391 0.210714 14.5304 0 14 0L2 0Z"/><path d="M3.544 10.705C3.58351 10.7929 3.64756 10.8675 3.72846 10.9198C3.80935 10.9721 3.90365 11 4 11H12C12.0964 11 12.1907 10.9722 12.2716 10.9199C12.3526 10.8675 12.4167 10.7929 12.4562 10.705C12.4957 10.6171 12.509 10.5196 12.4944 10.4244C12.4798 10.3291 12.438 10.2401 12.374 10.168L8.374 5.668C8.32709 5.61513 8.2695 5.5728 8.20503 5.54382C8.14056 5.51483 8.07068 5.49985 8 5.49985C7.92932 5.49985 7.85944 5.51483 7.79497 5.54382C7.7305 5.5728 7.67291 5.61513 7.626 5.668L3.626 10.168C3.56203 10.2401 3.52026 10.3291 3.50571 10.4244C3.49117 10.5197 3.50446 10.6171 3.544 10.705Z"/></g><defs><clipPath id="clip0_104_1075"><rect width="16" height="16"/></clipPath></defs></svg>