<svg width="16" height="16" viewBox="0 0 16 16" fill="none" xmlns="http://www.w3.org/2000/svg">
<path d="M10 12.796V3.20401L4.51902 8.00001L10 12.796ZM9.34102 13.549L3.86102 8.75301C3.75361 8.65915 3.66753 8.5434 3.60854 8.41352C3.54956 8.28365 3.51904 8.14266 3.51904 8.00001C3.51904 7.85737 3.54956 7.71638 3.60854 7.5865C3.66753 7.45663 3.75361 7.34088 3.86102 7.24701L9.34102 2.45101C9.48562 2.32432 9.66367 2.242 9.85385 2.2139C10.044 2.1858 10.2383 2.21311 10.4133 2.29256C10.5884 2.37202 10.7368 2.50025 10.8409 2.6619C10.9449 2.82355 11.0002 3.01177 11 3.20401V12.796C11.0002 12.9883 10.9449 13.1765 10.8409 13.3381C10.7368 13.4998 10.5884 13.628 10.4133 13.7075C10.2383 13.7869 10.044 13.8142 9.85385 13.7861C9.66367 13.758 9.48562 13.6757 9.34102 13.549Z" fill="black"/>
</svg>
