<svg width="16" height="16" viewBox="0 0 16 16" xmlns="http://www.w3.org/2000/svg" fill='currentColor'><g clip-path="url(#clip0_104_1060)"><path d="M0 2C0 1.46957 0.210714 0.960859 0.585786 0.585786C0.960859 0.210714 1.46957 0 2 0L14 0C14.5304 0 15.0391 0.210714 15.4142 0.585786C15.7893 0.960859 16 1.46957 16 2V14C16 14.5304 15.7893 15.0391 15.4142 15.4142C15.0391 15.7893 14.5304 16 14 16H2C1.46957 16 0.960859 15.7893 0.585786 15.4142C0.210714 15.0391 0 14.5304 0 14V2ZM10.5 12V4C10.5 3.90362 10.4722 3.80929 10.4199 3.72835C10.3675 3.64742 10.2929 3.58334 10.205 3.54382C10.1171 3.50431 10.0196 3.49104 9.92437 3.50562C9.82909 3.5202 9.74007 3.562 9.668 3.626L5.168 7.626C5.11513 7.67291 5.0728 7.7305 5.04382 7.79497C5.01484 7.85944 4.99985 7.92932 4.99985 8C4.99985 8.07068 5.01484 8.14056 5.04382 8.20503C5.0728 8.2695 5.11513 8.32709 5.168 8.374L9.668 12.374C9.74007 12.438 9.82909 12.4798 9.92437 12.4944C10.0196 12.509 10.1171 12.4957 10.205 12.4562C10.2929 12.4167 10.3675 12.3526 10.4199 12.2716C10.4722 12.1907 10.5 12.0964 10.5 12Z"/></g><defs><clipPath id="clip0_104_1060"><rect width="16" height="16"/></clipPath></defs></svg>