<svg width="16" height="16" viewBox="0 0 16 16" xmlns="http://www.w3.org/2000/svg" fill='currentColor'><g clip-path="url(#clip0_104_1057)"><path d="M14 1C14.2652 1 14.5196 1.10536 14.7071 1.29289C14.8946 1.48043 15 1.73478 15 2V14C15 14.2652 14.8946 14.5196 14.7071 14.7071C14.5196 14.8946 14.2652 15 14 15H2C1.73478 15 1.48043 14.8946 1.29289 14.7071C1.10536 14.5196 1 14.2652 1 14V2C1 1.73478 1.10536 1.48043 1.29289 1.29289C1.48043 1.10536 1.73478 1 2 1H14ZM2 0C1.46957 0 0.960859 0.210714 0.585786 0.585786C0.210714 0.960859 0 1.46957 0 2L0 14C0 14.5304 0.210714 15.0391 0.585786 15.4142C0.960859 15.7893 1.46957 16 2 16H14C14.5304 16 15.0391 15.7893 15.4142 15.4142C15.7893 15.0391 16 14.5304 16 14V2C16 1.46957 15.7893 0.960859 15.4142 0.585786C15.0391 0.210714 14.5304 0 14 0L2 0Z"/><path d="M10.205 12.456C10.2929 12.4165 10.3675 12.3525 10.4198 12.2716C10.4722 12.1907 10.5 12.0964 10.5 12V4.00001C10.5001 3.90363 10.4722 3.8093 10.4199 3.72836C10.3675 3.64743 10.2929 3.58335 10.205 3.54384C10.1171 3.50432 10.0197 3.49105 9.92439 3.50563C9.82912 3.52021 9.7401 3.56202 9.66803 3.62601L5.16803 7.62601C5.11516 7.67292 5.07283 7.73051 5.04385 7.79498C5.01486 7.85945 4.99988 7.92933 4.99988 8.00001C4.99988 8.0707 5.01486 8.14057 5.04385 8.20504C5.07283 8.26951 5.11516 8.3271 5.16803 8.37401L9.66803 12.374C9.74011 12.438 9.82915 12.4798 9.92442 12.4943C10.0197 12.5088 10.1171 12.4956 10.205 12.456Z"/></g><defs><clipPath id="clip0_104_1057"><rect width="16" height="16"/></clipPath></defs></svg>