<svg width="16" height="16" viewBox="0 0 16 16" xmlns="http://www.w3.org/2000/svg" fill='currentColor'><path d="M12.14 8.75301L6.658 13.549C6.012 14.115 5 13.655 5 12.796V3.20401C4.99984 3.01177 5.05509 2.82355 5.15914 2.6619C5.26319 2.50025 5.41164 2.37202 5.58669 2.29256C5.76175 2.21311 5.956 2.1858 6.14618 2.2139C6.33636 2.242 6.51441 2.32432 6.659 2.45101L12.139 7.24701C12.2464 7.34088 12.3325 7.45663 12.3915 7.5865C12.4505 7.71638 12.481 7.85737 12.481 8.00001C12.481 8.14266 12.4505 8.28365 12.3915 8.41352C12.3325 8.5434 12.2464 8.65915 12.139 8.75301H12.14Z"/></svg>