<svg width="16" height="16" viewBox="0 0 16 16" xmlns="http://www.w3.org/2000/svg" fill='currentColor'><path d="M3.86002 8.75298L9.34202 13.549C9.98802 14.115 11 13.655 11 12.796V3.20398C11.0002 3.01174 10.9449 2.82352 10.8409 2.66187C10.7368 2.50022 10.5884 2.37199 10.4133 2.29253C10.2383 2.21308 10.044 2.18577 9.85385 2.21387C9.66367 2.24197 9.48562 2.32429 9.34102 2.45098L3.86102 7.24698C3.75361 7.34084 3.66753 7.4566 3.60854 7.58647C3.54956 7.71635 3.51904 7.85734 3.51904 7.99998C3.51904 8.14262 3.54956 8.28362 3.60854 8.41349C3.66753 8.54337 3.75361 8.65912 3.86102 8.75298H3.86002Z"/></svg>