<svg width="16" height="16" viewBox="0 0 16 16" xmlns="http://www.w3.org/2000/svg" fill='currentColor'><g clip-path="url(#clip0_104_1078)"><path d="M0 2C0 1.46957 0.210714 0.960859 0.585786 0.585786C0.960859 0.210714 1.46957 0 2 0L14 0C14.5304 0 15.0391 0.210714 15.4142 0.585786C15.7893 0.960859 16 1.46957 16 2V14C16 14.5304 15.7893 15.0391 15.4142 15.4142C15.0391 15.7893 14.5304 16 14 16H2C1.46957 16 0.960859 15.7893 0.585786 15.4142C0.210714 15.0391 0 14.5304 0 14V2ZM4 11H12C12.0964 11 12.1907 10.9722 12.2716 10.9199C12.3526 10.8675 12.4167 10.7929 12.4562 10.705C12.4957 10.6171 12.509 10.5196 12.4944 10.4244C12.4798 10.3291 12.438 10.2401 12.374 10.168L8.374 5.668C8.32709 5.61513 8.2695 5.5728 8.20503 5.54382C8.14056 5.51484 8.07068 5.49985 8 5.49985C7.92932 5.49985 7.85944 5.51484 7.79497 5.54382C7.7305 5.5728 7.67291 5.61513 7.626 5.668L3.626 10.168C3.562 10.2401 3.5202 10.3291 3.50562 10.4244C3.49104 10.5196 3.50431 10.6171 3.54382 10.705C3.58334 10.7929 3.64742 10.8675 3.72835 10.9199C3.80929 10.9722 3.90362 11 4 11Z"/></g><defs><clipPath id="clip0_104_1078"><rect width="16" height="16"/></clipPath></defs></svg>