<svg width="16" height="16" viewBox="0 0 16 16" xmlns="http://www.w3.org/2000/svg" fill='currentColor'><path d="M10 12.796V3.20398L4.51902 7.99998L10 12.796ZM9.34102 13.549L3.86102 8.75298C3.75361 8.65912 3.66753 8.54337 3.60854 8.41349C3.54956 8.28362 3.51904 8.14262 3.51904 7.99998C3.51904 7.85734 3.54956 7.71635 3.60854 7.58647C3.66753 7.4566 3.75361 7.34084 3.86102 7.24698L9.34102 2.45098C9.48562 2.32429 9.66367 2.24197 9.85385 2.21387C10.044 2.18577 10.2383 2.21308 10.4133 2.29253C10.5884 2.37199 10.7368 2.50022 10.8409 2.66187C10.9449 2.82352 11.0002 3.01174 11 3.20398V12.796C11.0002 12.9882 10.9449 13.1764 10.8409 13.3381C10.7368 13.4997 10.5884 13.628 10.4133 13.7074C10.2383 13.7869 10.044 13.8142 9.85385 13.7861C9.66367 13.758 9.48562 13.6757 9.34102 13.549Z"/></svg>