<svg width="16" height="16" viewBox="0 0 16 16" xmlns="http://www.w3.org/2000/svg" fill='currentColor'><path d="M6 12.796V3.20401L11.481 8.00001L6 12.796ZM6.659 13.549L12.139 8.75301C12.2464 8.65915 12.3325 8.5434 12.3915 8.41352C12.4505 8.28364 12.481 8.14265 12.481 8.00001C12.481 7.85737 12.4505 7.71638 12.3915 7.5865C12.3325 7.45663 12.2464 7.34087 12.139 7.24701L6.66 2.45101C6.011 1.88501 5 2.34501 5 3.20401V12.796C4.99984 12.9883 5.05509 13.1765 5.15914 13.3381C5.26319 13.4998 5.41164 13.628 5.58669 13.7075C5.76175 13.7869 5.956 13.8142 6.14618 13.7861C6.33636 13.758 6.51441 13.6757 6.659 13.549Z"/></svg>