<svg width="16" height="16" viewBox="0 0 16 16" xmlns="http://www.w3.org/2000/svg" fill='currentColor'><path d="M7.247 4.86002L2.451 10.341C1.885 10.988 2.345 12 3.204 12H12.796C12.9882 12.0002 13.1765 11.9449 13.3381 11.8409C13.4998 11.7368 13.628 11.5884 13.7074 11.4133C13.7869 11.2383 13.8142 11.044 13.7861 10.8538C13.758 10.6637 13.6757 10.4856 13.549 10.341L8.753 4.86102C8.65914 4.75361 8.54338 4.66753 8.41351 4.60854C8.28363 4.54956 8.14264 4.51904 8 4.51904C7.85736 4.51904 7.71637 4.54956 7.58649 4.60854C7.45661 4.66753 7.34086 4.75361 7.247 4.86102V4.86002Z"/></svg>