<svg width="16" height="16" viewBox="0 0 16 16" xmlns="http://www.w3.org/2000/svg" fill='currentColor'><path d="M3.20401 5H12.796L8.00001 10.481L3.20401 5ZM2.45101 5.659L7.24701 11.139C7.34088 11.2464 7.45663 11.3325 7.5865 11.3915C7.71638 11.4505 7.85737 11.481 8.00001 11.481C8.14266 11.481 8.28365 11.4505 8.41352 11.3915C8.5434 11.3325 8.65915 11.2464 8.75301 11.139L13.549 5.659C14.115 5.012 13.655 4 12.796 4H3.20401C3.01177 3.99984 2.82355 4.05509 2.6619 4.15914C2.50025 4.26319 2.37202 4.41164 2.29256 4.58669C2.21311 4.76175 2.1858 4.956 2.2139 5.14618C2.242 5.33636 2.32432 5.51441 2.45101 5.659Z"/></svg>