<svg width="16" height="16" viewBox="0 0 16 16" xmlns="http://www.w3.org/2000/svg" fill='currentColor'><path d="M3.86002 8.75301L9.34202 13.549C9.98802 14.115 11 13.655 11 12.796V3.20401C11.0002 3.01177 10.9449 2.82355 10.8409 2.6619C10.7368 2.50025 10.5884 2.37202 10.4133 2.29256C10.2383 2.21311 10.044 2.1858 9.85385 2.2139C9.66367 2.242 9.48562 2.32432 9.34102 2.45101L3.86102 7.24701C3.75361 7.34088 3.66753 7.45663 3.60854 7.5865C3.54956 7.71638 3.51904 7.85737 3.51904 8.00001C3.51904 8.14266 3.54956 8.28365 3.60854 8.41352C3.66753 8.5434 3.75361 8.65915 3.86102 8.75301H3.86002Z"/></svg>