<svg width="16" height="16" viewBox="0 0 16 16" fill="none" xmlns="http://www.w3.org/2000/svg">
<g clip-path="url(#clip0_104_1051)">
<path d="M0 2C0 1.46957 0.210714 0.960859 0.585786 0.585786C0.960859 0.210714 1.46957 0 2 0L14 0C14.5304 0 15.0391 0.210714 15.4142 0.585786C15.7893 0.960859 16 1.46957 16 2V14C16 14.5304 15.7893 15.0391 15.4142 15.4142C15.0391 15.7893 14.5304 16 14 16H2C1.46957 16 0.960859 15.7893 0.585786 15.4142C0.210714 15.0391 0 14.5304 0 14V2ZM4 6C3.90362 5.99997 3.80929 6.02781 3.72835 6.08014C3.64742 6.13248 3.58334 6.20709 3.54382 6.295C3.50431 6.38291 3.49104 6.48036 3.50562 6.57563C3.5202 6.67091 3.562 6.75993 3.626 6.832L7.626 11.332C7.67291 11.3849 7.7305 11.4272 7.79497 11.4562C7.85944 11.4852 7.92932 11.5002 8 11.5002C8.07068 11.5002 8.14056 11.4852 8.20503 11.4562C8.2695 11.4272 8.32709 11.3849 8.374 11.332L12.374 6.832C12.438 6.75993 12.4798 6.67091 12.4944 6.57563C12.509 6.48036 12.4957 6.38291 12.4562 6.295C12.4167 6.20709 12.3526 6.13248 12.2716 6.08014C12.1907 6.02781 12.0964 5.99997 12 6H4Z" fill="black"/>
</g>
<defs>
<clipPath id="clip0_104_1051">
<rect width="16" height="16" fill="white"/>
</clipPath>
</defs>
</svg>
