<svg width="16" height="16" viewBox="0 0 16 16" fill="none" xmlns="http://www.w3.org/2000/svg">
<g clip-path="url(#clip0_104_1048)">
<path d="M3.62601 6.832C3.56202 6.75993 3.52021 6.67091 3.50563 6.57563C3.49105 6.48036 3.50432 6.38291 3.54384 6.295C3.58335 6.20709 3.64743 6.13248 3.72836 6.08014C3.8093 6.02781 3.90363 5.99997 4.00001 6H12C12.0964 5.99997 12.1907 6.02781 12.2717 6.08014C12.3526 6.13248 12.4167 6.20709 12.4562 6.295C12.4957 6.38291 12.509 6.48036 12.4944 6.57563C12.4798 6.67091 12.438 6.75993 12.374 6.832L8.37401 11.332C8.3271 11.3849 8.26951 11.4272 8.20504 11.4562C8.14057 11.4852 8.0707 11.5002 8.00001 11.5002C7.92933 11.5002 7.85945 11.4852 7.79498 11.4562C7.73051 11.4272 7.67292 11.3849 7.62601 11.332L3.62601 6.832Z" fill="black"/>
<path d="M0 2C0 1.46957 0.210714 0.960859 0.585786 0.585786C0.960859 0.210714 1.46957 0 2 0L14 0C14.5304 0 15.0391 0.210714 15.4142 0.585786C15.7893 0.960859 16 1.46957 16 2V14C16 14.5304 15.7893 15.0391 15.4142 15.4142C15.0391 15.7893 14.5304 16 14 16H2C1.46957 16 0.960859 15.7893 0.585786 15.4142C0.210714 15.0391 0 14.5304 0 14V2ZM15 2C15 1.73478 14.8946 1.48043 14.7071 1.29289C14.5196 1.10536 14.2652 1 14 1H2C1.73478 1 1.48043 1.10536 1.29289 1.29289C1.10536 1.48043 1 1.73478 1 2V14C1 14.2652 1.10536 14.5196 1.29289 14.7071C1.48043 14.8946 1.73478 15 2 15H14C14.2652 15 14.5196 14.8946 14.7071 14.7071C14.8946 14.5196 15 14.2652 15 14V2Z" fill="black"/>
</g>
<defs>
<clipPath id="clip0_104_1048">
<rect width="16" height="16" fill="white"/>
</clipPath>
</defs>
</svg>
