<svg width="16" height="16" viewBox="0 0 16 16" fill="none" xmlns="http://www.w3.org/2000/svg">
<g clip-path="url(#clip0_104_1105)">
<path d="M7.35402 5.64599C7.30753 5.5995 7.25234 5.56263 7.19161 5.53747C7.13087 5.51231 7.06577 5.49936 7.00002 5.49936C6.93428 5.49936 6.86918 5.51231 6.80844 5.53747C6.7477 5.56263 6.69251 5.5995 6.64602 5.64599C6.59953 5.69248 6.56266 5.74767 6.5375 5.80841C6.51234 5.86915 6.49939 5.93425 6.49939 5.99999C6.49939 6.06573 6.51234 6.13084 6.5375 6.19157C6.56266 6.25231 6.59953 6.3075 6.64602 6.35399L7.79302 7.49999L6.64602 8.64599C6.59953 8.69248 6.56266 8.74767 6.5375 8.80841C6.51234 8.86915 6.49939 8.93425 6.49939 8.99999C6.49939 9.06573 6.51234 9.13084 6.5375 9.19157C6.56266 9.25231 6.59953 9.3075 6.64602 9.35399C6.69251 9.40048 6.7477 9.43736 6.80844 9.46251C6.86918 9.48767 6.93428 9.50062 7.00002 9.50062C7.06577 9.50062 7.13087 9.48767 7.19161 9.46251C7.25234 9.43736 7.30753 9.40048 7.35402 9.35399L8.50002 8.20699L9.64602 9.35399C9.73991 9.44788 9.86725 9.50062 10 9.50062C10.1328 9.50062 10.2601 9.44788 10.354 9.35399C10.4479 9.2601 10.5007 9.13277 10.5007 8.99999C10.5007 8.86722 10.4479 8.73988 10.354 8.64599L9.20702 7.49999L10.354 6.35399C10.4479 6.2601 10.5007 6.13277 10.5007 5.99999C10.5007 5.86722 10.4479 5.73988 10.354 5.64599C10.2601 5.5521 10.1328 5.49936 10 5.49936C9.86725 5.49936 9.73991 5.5521 9.64602 5.64599L8.50002 6.79299L7.35402 5.64599Z" fill="black"/>
<path d="M0.5 1C0.367392 1 0.240215 1.05268 0.146447 1.14645C0.0526784 1.24021 0 1.36739 0 1.5C0 1.63261 0.0526784 1.75979 0.146447 1.85355C0.240215 1.94732 0.367392 2 0.5 2H1.61L2.011 3.607L3.509 11.592C3.53045 11.7066 3.59126 11.8101 3.68091 11.8846C3.77057 11.9591 3.88343 11.9999 4 12H5C4.46957 12 3.96086 12.2107 3.58579 12.5858C3.21071 12.9609 3 13.4696 3 14C3 14.5304 3.21071 15.0391 3.58579 15.4142C3.96086 15.7893 4.46957 16 5 16C5.53043 16 6.03914 15.7893 6.41421 15.4142C6.78929 15.0391 7 14.5304 7 14C7 13.4696 6.78929 12.9609 6.41421 12.5858C6.03914 12.2107 5.53043 12 5 12H12C11.4696 12 10.9609 12.2107 10.5858 12.5858C10.2107 12.9609 10 13.4696 10 14C10 14.5304 10.2107 15.0391 10.5858 15.4142C10.9609 15.7893 11.4696 16 12 16C12.5304 16 13.0391 15.7893 13.4142 15.4142C13.7893 15.0391 14 14.5304 14 14C14 13.4696 13.7893 12.9609 13.4142 12.5858C13.0391 12.2107 12.5304 12 12 12H13C13.1166 11.9999 13.2294 11.9591 13.3191 11.8846C13.4087 11.8101 13.4696 11.7066 13.491 11.592L14.991 3.592C15.0045 3.51984 15.002 3.44558 14.9835 3.37452C14.9651 3.30345 14.9313 3.23731 14.8844 3.1808C14.8375 3.12429 14.7788 3.0788 14.7124 3.04755C14.6459 3.0163 14.5734 3.00007 14.5 3H2.89L2.485 1.379C2.45801 1.27078 2.39561 1.1747 2.30773 1.10602C2.21985 1.03735 2.11153 1.00003 2 1H0.5ZM4.415 11L3.102 4H13.898L12.585 11H4.415ZM6 14C6 14.2652 5.89464 14.5196 5.70711 14.7071C5.51957 14.8946 5.26522 15 5 15C4.73478 15 4.48043 14.8946 4.29289 14.7071C4.10536 14.5196 4 14.2652 4 14C4 13.7348 4.10536 13.4804 4.29289 13.2929C4.48043 13.1054 4.73478 13 5 13C5.26522 13 5.51957 13.1054 5.70711 13.2929C5.89464 13.4804 6 13.7348 6 14ZM13 14C13 14.2652 12.8946 14.5196 12.7071 14.7071C12.5196 14.8946 12.2652 15 12 15C11.7348 15 11.4804 14.8946 11.2929 14.7071C11.1054 14.5196 11 14.2652 11 14C11 13.7348 11.1054 13.4804 11.2929 13.2929C11.4804 13.1054 11.7348 13 12 13C12.2652 13 12.5196 13.1054 12.7071 13.2929C12.8946 13.4804 13 13.7348 13 14Z" fill="black"/>
</g>
<defs>
<clipPath id="clip0_104_1105">
<rect width="16" height="16" fill="white"/>
</clipPath>
</defs>
</svg>
