<svg width="16" height="16" viewBox="0 0 16 16" fill="none" xmlns="http://www.w3.org/2000/svg">
<path d="M0 2.5C0 2.36739 0.0526784 2.24021 0.146447 2.14645C0.240215 2.05268 0.367392 2 0.5 2H2C2.11153 2.00003 2.21985 2.03735 2.30773 2.10602C2.39561 2.1747 2.45801 2.27078 2.485 2.379L2.89 4H14.5C14.5759 4.00002 14.6509 4.01734 14.7191 4.05065C14.7874 4.08396 14.8472 4.13238 14.8939 4.19224C14.9407 4.2521 14.9732 4.32182 14.9889 4.39611C15.0047 4.4704 15.0034 4.54731 14.985 4.621L13.485 10.621C13.458 10.7292 13.3956 10.8253 13.3077 10.894C13.2199 10.9626 13.1115 11 13 11H4C3.88847 11 3.78015 10.9626 3.69227 10.894C3.60439 10.8253 3.54199 10.7292 3.515 10.621L1.61 3H0.5C0.367392 3 0.240215 2.94732 0.146447 2.85355C0.0526784 2.75979 0 2.63261 0 2.5ZM3.14 5L4.39 10H12.61L13.86 5H3.14ZM5 13C4.73478 13 4.48043 13.1054 4.29289 13.2929C4.10536 13.4804 4 13.7348 4 14C4 14.2652 4.10536 14.5196 4.29289 14.7071C4.48043 14.8946 4.73478 15 5 15C5.26522 15 5.51957 14.8946 5.70711 14.7071C5.89464 14.5196 6 14.2652 6 14C6 13.7348 5.89464 13.4804 5.70711 13.2929C5.51957 13.1054 5.26522 13 5 13ZM3 14C3 13.4696 3.21071 12.9609 3.58579 12.5858C3.96086 12.2107 4.46957 12 5 12C5.53043 12 6.03914 12.2107 6.41421 12.5858C6.78929 12.9609 7 13.4696 7 14C7 14.5304 6.78929 15.0391 6.41421 15.4142C6.03914 15.7893 5.53043 16 5 16C4.46957 16 3.96086 15.7893 3.58579 15.4142C3.21071 15.0391 3 14.5304 3 14ZM12 13C11.7348 13 11.4804 13.1054 11.2929 13.2929C11.1054 13.4804 11 13.7348 11 14C11 14.2652 11.1054 14.5196 11.2929 14.7071C11.4804 14.8946 11.7348 15 12 15C12.2652 15 12.5196 14.8946 12.7071 14.7071C12.8946 14.5196 13 14.2652 13 14C13 13.7348 12.8946 13.4804 12.7071 13.2929C12.5196 13.1054 12.2652 13 12 13ZM10 14C10 13.4696 10.2107 12.9609 10.5858 12.5858C10.9609 12.2107 11.4696 12 12 12C12.5304 12 13.0391 12.2107 13.4142 12.5858C13.7893 12.9609 14 13.4696 14 14C14 14.5304 13.7893 15.0391 13.4142 15.4142C13.0391 15.7893 12.5304 16 12 16C11.4696 16 10.9609 15.7893 10.5858 15.4142C10.2107 15.0391 10 14.5304 10 14Z" fill="black"/>
</svg>
