<svg width="16" height="16" viewBox="0 0 16 16" fill="none" xmlns="http://www.w3.org/2000/svg">
<g clip-path="url(#clip0_104_1113)">
<path fill-rule="evenodd" clip-rule="evenodd" d="M11 15C12.0609 15 13.0783 14.5786 13.8284 13.8284C14.5786 13.0783 15 12.0609 15 11C15 9.93913 14.5786 8.92172 13.8284 8.17157C13.0783 7.42143 12.0609 7 11 7C9.93913 7 8.92172 7.42143 8.17157 8.17157C7.42143 8.92172 7 9.93913 7 11C7 12.0609 7.42143 13.0783 8.17157 13.8284C8.92172 14.5786 9.93913 15 11 15ZM16 11C16 12.3261 15.4732 13.5979 14.5355 14.5355C13.5979 15.4732 12.3261 16 11 16C9.67392 16 8.40215 15.4732 7.46447 14.5355C6.52678 13.5979 6 12.3261 6 11C6 9.67392 6.52678 8.40215 7.46447 7.46447C8.40215 6.52678 9.67392 6 11 6C12.3261 6 13.5979 6.52678 14.5355 7.46447C15.4732 8.40215 16 9.67392 16 11Z" fill="black"/>
<path d="M9.43801 11.944C9.48501 12.54 9.95601 13.004 10.801 13.06V13.5H11.176V13.057C12.051 12.996 12.562 12.528 12.562 11.85C12.562 11.232 12.172 10.914 11.472 10.75L11.176 10.68V9.48C11.552 9.523 11.79 9.728 11.847 10.012H12.505C12.458 9.437 11.965 8.988 11.176 8.939V8.5H10.801V8.95C10.054 9.023 9.54601 9.472 9.54601 10.108C9.54601 10.67 9.92401 11.028 10.553 11.174L10.801 11.235V12.507C10.417 12.449 10.162 12.237 10.105 11.944H9.43701H9.43801ZM10.798 10.59C10.429 10.505 10.229 10.33 10.229 10.068C10.229 9.774 10.445 9.554 10.801 9.49V10.59H10.798ZM11.23 11.336C11.679 11.44 11.885 11.608 11.885 11.905C11.885 12.244 11.628 12.476 11.176 12.519V11.324L11.23 11.336Z" fill="black"/>
<path d="M1 0C0.734784 0 0.48043 0.105357 0.292893 0.292893C0.105357 0.48043 0 0.734784 0 1L0 9C0 9.26522 0.105357 9.51957 0.292893 9.70711C0.48043 9.89464 0.734784 10 1 10H5.083C5.141 9.656 5.228 9.322 5.341 9H3C3 8.46957 2.78929 7.96086 2.41421 7.58579C2.03914 7.21071 1.53043 7 1 7V3C1.53043 3 2.03914 2.78929 2.41421 2.41421C2.78929 2.03914 3 1.53043 3 1H13C13 1.53043 13.2107 2.03914 13.5858 2.41421C13.9609 2.78929 14.4696 3 15 3V6.528C15.38 6.868 15.717 7.256 16 7.682V1C16 0.734784 15.8946 0.48043 15.7071 0.292893C15.5196 0.105357 15.2652 0 15 0L1 0Z" fill="black"/>
<path d="M9.998 5.083L10 5C9.9998 4.65559 9.91066 4.31707 9.74121 4.01723C9.57177 3.71738 9.32777 3.46638 9.03284 3.28852C8.73791 3.11066 8.40205 3.01198 8.05778 3.00203C7.71352 2.99207 7.37252 3.07119 7.06781 3.23172C6.7631 3.39225 6.50501 3.62874 6.31853 3.9183C6.13205 4.20786 6.02351 4.54066 6.00341 4.88448C5.98331 5.2283 6.05234 5.57149 6.20381 5.8808C6.35529 6.19011 6.58407 6.45507 6.868 6.65C7.73176 5.82727 8.82176 5.28157 9.998 5.083Z" fill="black"/>
</g>
<defs>
<clipPath id="clip0_104_1113">
<rect width="16" height="16" fill="white"/>
</clipPath>
</defs>
</svg>
