<svg width="16" height="16" viewBox="0 0 16 16" xmlns="http://www.w3.org/2000/svg" fill='currentColor'><path d="M8 10C8.53043 10 9.03914 9.78929 9.41421 9.41421C9.78929 9.03914 10 8.53043 10 8C10 7.46957 9.78929 6.96086 9.41421 6.58579C9.03914 6.21071 8.53043 6 8 6C7.46957 6 6.96086 6.21071 6.58579 6.58579C6.21071 6.96086 6 7.46957 6 8C6 8.53043 6.21071 9.03914 6.58579 9.41421C6.96086 9.78929 7.46957 10 8 10Z"/><path d="M0 4C0 3.73478 0.105357 3.48043 0.292893 3.29289C0.48043 3.10536 0.734784 3 1 3H15C15.2652 3 15.5196 3.10536 15.7071 3.29289C15.8946 3.48043 16 3.73478 16 4V12C16 12.2652 15.8946 12.5196 15.7071 12.7071C15.5196 12.8946 15.2652 13 15 13H1C0.734784 13 0.48043 12.8946 0.292893 12.7071C0.105357 12.5196 0 12.2652 0 12V4ZM3 4C3 4.53043 2.78929 5.03914 2.41421 5.41421C2.03914 5.78929 1.53043 6 1 6V10C1.53043 10 2.03914 10.2107 2.41421 10.5858C2.78929 10.9609 3 11.4696 3 12H13C13 11.4696 13.2107 10.9609 13.5858 10.5858C13.9609 10.2107 14.4696 10 15 10V6C14.4696 6 13.9609 5.78929 13.5858 5.41421C13.2107 5.03914 13 4.53043 13 4H3Z"/></svg>