<svg width="24" height="24" viewBox="0 0 24 24" xmlns="http://www.w3.org/2000/svg" fill='currentColor'><path d="M7.3 14.25L8.5 13.05C7.5 12.05 7 10.75 7 9.54995C7 8.24995 7.5 6.94995 8.5 6.04995L7.3 4.84995C6 6.14995 5.3 7.84995 5.3 9.54995C5.3 11.25 6 12.95 7.3 14.25Z"/><path d="M19.1 2.44995L17.9 3.64995C19.5 5.24995 20.3 7.44995 20.3 9.54995C20.3 11.65 19.5 13.85 17.9 15.45L19.1 16.65C21.1 14.65 22 12.15 22 9.54995C22 6.94995 21 4.44995 19.1 2.44995Z"/><path d="M6.1 3.64995L4.9 2.44995C3 4.44995 2 6.94995 2 9.54995C2 12.15 3 14.65 4.9 16.65L6.1 15.45C4.5 13.85 3.7 11.65 3.7 9.54995C3.7 7.44995 4.5 5.24995 6.1 3.64995Z"/><path d="M16.7 14.25C18 12.95 18.7 11.25 18.7 9.54995C18.6 7.84995 18 6.14995 16.7 4.84995L15.5 6.04995C16.5 7.04995 17 8.34995 17 9.54995C17 10.85 16.5 12.15 15.5 13.05L16.7 14.25Z"/><path d="M14.5 9.54995C14.5 8.16995 13.38 7.04995 12 7.04995C10.62 7.04995 9.5 8.16995 9.5 9.54995C9.5 10.31 9.84 10.97 10.37 11.43L7 21.55H9L9.67 19.55H14.34L15 21.55H17L13.63 11.43C14.16 10.97 14.5 10.31 14.5 9.54995ZM10.33 17.55L12 12.55L13.67 17.55H10.33Z"/></svg>