<svg width="16" height="16" viewBox="0 0 16 16" fill="none" xmlns="http://www.w3.org/2000/svg">
<g clip-path="url(#clip0_104_1183)">
<path d="M2 0C1.46957 0 0.960859 0.210714 0.585786 0.585786C0.210714 0.960859 0 1.46957 0 2L0 10C0 10.5304 0.210714 11.0391 0.585786 11.4142C0.960859 11.7893 1.46957 12 2 12H4.5C4.65525 12 4.80836 12.0361 4.94721 12.1056C5.08607 12.175 5.20685 12.2758 5.3 12.4L7.2 14.933C7.29315 15.0572 7.41393 15.158 7.55279 15.2274C7.69164 15.2969 7.84475 15.333 8 15.333C8.15524 15.333 8.30836 15.2969 8.44721 15.2274C8.58607 15.158 8.70685 15.0572 8.8 14.933L10.7 12.4C10.7931 12.2758 10.9139 12.175 11.0528 12.1056C11.1916 12.0361 11.3448 12 11.5 12H14C14.5304 12 15.0391 11.7893 15.4142 11.4142C15.7893 11.0391 16 10.5304 16 10V2C16 1.46957 15.7893 0.960859 15.4142 0.585786C15.0391 0.210714 14.5304 0 14 0L2 0Z" fill="black"/>
</g>
<defs>
<clipPath id="clip0_104_1183">
<rect width="16" height="16" fill="white"/>
</clipPath>
</defs>
</svg>
