<svg width="16" height="16" viewBox="0 0 16 16" fill="none" xmlns="http://www.w3.org/2000/svg">
<g clip-path="url(#clip0_104_1176)">
<path d="M14 1C14.2652 1 14.5196 1.10536 14.7071 1.29289C14.8946 1.48043 15 1.73478 15 2V10C15 10.2652 14.8946 10.5196 14.7071 10.7071C14.5196 10.8946 14.2652 11 14 11H11.5C11.1895 11 10.8833 11.0723 10.6056 11.2111C10.3279 11.35 10.0863 11.5516 9.9 11.8L8 14.333L6.1 11.8C5.91371 11.5516 5.67214 11.35 5.39443 11.2111C5.11672 11.0723 4.81049 11 4.5 11H2C1.73478 11 1.48043 10.8946 1.29289 10.7071C1.10536 10.5196 1 10.2652 1 10V2C1 1.73478 1.10536 1.48043 1.29289 1.29289C1.48043 1.10536 1.73478 1 2 1H14ZM2 0C1.46957 0 0.960859 0.210714 0.585786 0.585786C0.210714 0.960859 0 1.46957 0 2L0 10C0 10.5304 0.210714 11.0391 0.585786 11.4142C0.960859 11.7893 1.46957 12 2 12H4.5C4.65525 12 4.80836 12.0361 4.94721 12.1056C5.08607 12.175 5.20685 12.2758 5.3 12.4L7.2 14.933C7.29315 15.0572 7.41393 15.158 7.55279 15.2274C7.69164 15.2969 7.84475 15.333 8 15.333C8.15524 15.333 8.30836 15.2969 8.44721 15.2274C8.58607 15.158 8.70685 15.0572 8.8 14.933L10.7 12.4C10.7931 12.2758 10.9139 12.175 11.0528 12.1056C11.1916 12.0361 11.3448 12 11.5 12H14C14.5304 12 15.0391 11.7893 15.4142 11.4142C15.7893 11.0391 16 10.5304 16 10V2C16 1.46957 15.7893 0.960859 15.4142 0.585786C15.0391 0.210714 14.5304 0 14 0L2 0Z" fill="black"/>
</g>
<defs>
<clipPath id="clip0_104_1176">
<rect width="16" height="16" fill="white"/>
</clipPath>
</defs>
</svg>
