<svg width="16" height="16" viewBox="0 0 16 16" xmlns="http://www.w3.org/2000/svg" fill='currentColor'><g clip-path="url(#clip0_104_1138)"><path d="M0 2C0 1.46957 0.210714 0.960859 0.585786 0.585786C0.960859 0.210714 1.46957 0 2 0L14 0C14.5304 0 15.0391 0.210714 15.4142 0.585786C15.7893 0.960859 16 1.46957 16 2V10C16 10.5304 15.7893 11.0391 15.4142 11.4142C15.0391 11.7893 14.5304 12 14 12H4.414C4.14881 12.0001 3.89449 12.1055 3.707 12.293L0.854 15.146C0.784131 15.216 0.695051 15.2638 0.598036 15.2832C0.501021 15.3026 0.400432 15.2928 0.308999 15.255C0.217567 15.2172 0.139402 15.1531 0.0843973 15.0709C0.0293926 14.9886 2.10149e-05 14.8919 0 14.793L0 2ZM5 6C5 5.73478 4.89464 5.48043 4.70711 5.29289C4.51957 5.10536 4.26522 5 4 5C3.73478 5 3.48043 5.10536 3.29289 5.29289C3.10536 5.48043 3 5.73478 3 6C3 6.26522 3.10536 6.51957 3.29289 6.70711C3.48043 6.89464 3.73478 7 4 7C4.26522 7 4.51957 6.89464 4.70711 6.70711C4.89464 6.51957 5 6.26522 5 6ZM9 6C9 5.73478 8.89464 5.48043 8.70711 5.29289C8.51957 5.10536 8.26522 5 8 5C7.73478 5 7.48043 5.10536 7.29289 5.29289C7.10536 5.48043 7 5.73478 7 6C7 6.26522 7.10536 6.51957 7.29289 6.70711C7.48043 6.89464 7.73478 7 8 7C8.26522 7 8.51957 6.89464 8.70711 6.70711C8.89464 6.51957 9 6.26522 9 6ZM12 7C12.2652 7 12.5196 6.89464 12.7071 6.70711C12.8946 6.51957 13 6.26522 13 6C13 5.73478 12.8946 5.48043 12.7071 5.29289C12.5196 5.10536 12.2652 5 12 5C11.7348 5 11.4804 5.10536 11.2929 5.29289C11.1054 5.48043 11 5.73478 11 6C11 6.26522 11.1054 6.51957 11.2929 6.70711C11.4804 6.89464 11.7348 7 12 7Z"/></g><defs><clipPath id="clip0_104_1138"><rect width="16" height="16"/></clipPath></defs></svg>