<svg width="16" height="16" viewBox="0 0 16 16" xmlns="http://www.w3.org/2000/svg" fill='currentColor'><path d="M16 8C16 11.866 12.418 15 8 15C7.20765 15.0011 6.41859 14.8982 5.653 14.694C5.069 14.99 3.728 15.558 1.472 15.928C1.272 15.96 1.12 15.752 1.199 15.566C1.553 14.73 1.873 13.616 1.969 12.6C0.744 11.37 0 9.76 0 8C0 4.134 3.582 1 8 1C12.418 1 16 4.134 16 8ZM7.194 6.766C7.12808 6.66762 7.052 6.57645 6.967 6.494C6.83335 6.35637 6.67401 6.2463 6.498 6.17L6.49 6.166C6.25317 6.05604 5.99511 5.99937 5.734 6C4.776 6 4 6.746 4 7.667C4 8.587 4.776 9.333 5.734 9.333C6.077 9.333 6.396 9.238 6.665 9.073C6.528 9.462 6.275 9.877 5.855 10.293C5.81544 10.3316 5.7842 10.3779 5.76321 10.4291C5.74222 10.4802 5.73193 10.5351 5.73296 10.5904C5.73399 10.6457 5.74632 10.7001 5.7692 10.7505C5.79208 10.8008 5.82503 10.8459 5.866 10.883C6.039 11.043 6.313 11.038 6.48 10.873C7.814 9.544 7.85 8.115 7.421 7.167C7.35799 7.02687 7.28199 6.89296 7.194 6.767V6.766ZM11 9.073C10.864 9.462 10.61 9.877 10.19 10.293C10.1505 10.3317 10.1193 10.378 10.0984 10.4292C10.0775 10.4804 10.0673 10.5353 10.0684 10.5906C10.0696 10.6459 10.082 10.7003 10.105 10.7506C10.1279 10.8009 10.161 10.846 10.202 10.883C10.374 11.043 10.648 11.038 10.815 10.873C12.149 9.544 12.185 8.115 11.757 7.167C11.6936 7.02685 11.6173 6.89293 11.529 6.767C11.4632 6.66826 11.3871 6.57676 11.302 6.494C11.1684 6.35635 11.009 6.24627 10.833 6.17L10.825 6.166C10.5885 6.05618 10.3308 5.99952 10.07 6C9.113 6 8.336 6.746 8.336 7.667C8.336 8.587 9.113 9.333 10.07 9.333C10.413 9.333 10.732 9.238 11.001 9.073H11Z"/></svg>