<svg width="16" height="16" viewBox="0 0 16 16" fill="none" xmlns="http://www.w3.org/2000/svg">
<path d="M2.678 11.894C2.7818 11.9982 2.86133 12.124 2.91094 12.2625C2.96055 12.4009 2.97901 12.5486 2.965 12.695C2.89472 13.3726 2.76148 14.0421 2.567 14.695C3.962 14.372 4.814 13.998 5.201 13.802C5.4205 13.6908 5.67329 13.6645 5.911 13.728C6.59243 13.9097 7.29477 14.0011 8 14C11.996 14 15 11.193 15 8C15 4.808 11.996 2 8 2C4.004 2 1 4.808 1 8C1 9.468 1.617 10.83 2.678 11.894ZM2.185 15.799C1.94807 15.846 1.71037 15.889 1.472 15.928C1.272 15.96 1.12 15.752 1.199 15.566C1.28779 15.3566 1.36918 15.1441 1.443 14.929L1.446 14.919C1.694 14.199 1.896 13.371 1.97 12.6C0.743 11.37 0 9.76 0 8C0 4.134 3.582 1 8 1C12.418 1 16 4.134 16 8C16 11.866 12.418 15 8 15C7.20765 15.0011 6.41859 14.8982 5.653 14.694C5.133 14.957 4.014 15.436 2.185 15.799Z" fill="black"/>
<path d="M7.06599 6.75998C6.8712 6.45663 6.58321 6.2247 6.2453 6.09904C5.9074 5.97339 5.53784 5.9608 5.19218 6.06317C4.84651 6.16554 4.5434 6.37734 4.32842 6.66673C4.11343 6.95612 3.99818 7.30748 3.99999 7.66798C4.00017 7.96652 4.08051 8.25952 4.23263 8.5164C4.38475 8.77327 4.60306 8.98458 4.86475 9.12825C5.12644 9.27192 5.42191 9.34267 5.72029 9.33313C6.01867 9.32358 6.30902 9.23408 6.56099 9.07398C6.42999 9.46298 6.18599 9.87798 5.78399 10.294C5.70708 10.3735 5.66492 10.4804 5.6668 10.5911C5.66773 10.6458 5.67944 10.6999 5.70126 10.7502C5.72308 10.8004 5.75459 10.8459 5.79399 10.884C5.83339 10.9221 5.8799 10.952 5.93087 10.9721C5.98184 10.9922 6.03627 11.0021 6.09106 11.0012C6.20171 10.9993 6.30708 10.9535 6.38399 10.874C7.86999 9.33398 7.67699 7.65998 7.06599 6.76198V6.75998ZM11.066 6.75998C10.8712 6.45663 10.5832 6.2247 10.2453 6.09904C9.9074 5.97339 9.53784 5.9608 9.19217 6.06317C8.84651 6.16554 8.5434 6.37734 8.32842 6.66673C8.11343 6.95612 7.99818 7.30748 7.99999 7.66798C8.00017 7.96652 8.08051 8.25952 8.23263 8.5164C8.38475 8.77327 8.60306 8.98458 8.86475 9.12825C9.12644 9.27192 9.42191 9.34267 9.72029 9.33313C10.0187 9.32358 10.309 9.23408 10.561 9.07398C10.43 9.46298 10.186 9.87798 9.78399 10.294C9.74591 10.3334 9.71596 10.3799 9.69585 10.4309C9.67574 10.4818 9.66587 10.5363 9.6668 10.5911C9.66773 10.6458 9.67944 10.6999 9.70126 10.7502C9.72308 10.8004 9.75459 10.8459 9.79399 10.884C9.83339 10.9221 9.8799 10.952 9.93087 10.9721C9.98184 10.9922 10.0363 11.0021 10.0911 11.0012C10.1458 11.0002 10.1999 10.9885 10.2502 10.9667C10.3004 10.9449 10.3459 10.9134 10.384 10.874C11.87 9.33398 11.677 7.65998 11.066 6.76198V6.75998Z" fill="black"/>
</svg>
