<svg width="16" height="16" viewBox="0 0 16 16" fill="none" xmlns="http://www.w3.org/2000/svg">
<path d="M8.97001 4.96998C9.11087 4.83587 9.29833 4.76173 9.49282 4.7632C9.68731 4.76467 9.87363 4.84164 10.0125 4.97787C10.1513 5.1141 10.2317 5.29893 10.2369 5.49336C10.242 5.68779 10.1714 5.87661 10.04 6.01998L6.05001 11.01C5.9814 11.0839 5.89859 11.1432 5.80654 11.1843C5.71448 11.2255 5.61508 11.2477 5.51426 11.2496C5.41344 11.2514 5.31328 11.2329 5.21976 11.1952C5.12625 11.1575 5.0413 11.1013 4.97 11.03L2.324 8.38398C2.25032 8.31532 2.19122 8.23252 2.15022 8.14052C2.10923 8.04852 2.08719 7.94921 2.08541 7.8485C2.08364 7.7478 2.10216 7.64777 2.13988 7.55438C2.1776 7.461 2.23375 7.37616 2.30497 7.30494C2.37619 7.23373 2.46102 7.17758 2.55441 7.13986C2.6478 7.10214 2.74782 7.08361 2.84853 7.08539C2.94923 7.08717 3.04854 7.10921 3.14054 7.1502C3.23254 7.19119 3.31534 7.2503 3.384 7.32398L5.47801 9.41698L8.95 4.99198C8.95623 4.98426 8.96291 4.97692 8.97001 4.96998ZM8.05 10.11L8.97001 11.03C9.04129 11.1011 9.12617 11.1572 9.21959 11.1948C9.31301 11.2325 9.41305 11.2509 9.51375 11.249C9.61445 11.2472 9.71374 11.225 9.8057 11.184C9.89766 11.1429 9.98041 11.0837 10.049 11.01L14.041 6.01998C14.1127 5.94918 14.1694 5.86466 14.2077 5.77146C14.2461 5.67826 14.2652 5.57829 14.264 5.47752C14.2629 5.37676 14.2414 5.27726 14.2009 5.18498C14.1604 5.0927 14.1018 5.00952 14.0284 4.94041C13.9551 4.8713 13.8686 4.81769 13.774 4.78276C13.6795 4.74783 13.5789 4.73231 13.4783 4.73712C13.3776 4.74194 13.2789 4.76699 13.1882 4.81077C13.0974 4.85456 13.0164 4.91619 12.95 4.99198L9.47701 9.41698L8.992 8.93098L8.049 10.11H8.05Z" fill="black"/>
</svg>
