<svg width="16" height="16" viewBox="0 0 16 16" fill="none" xmlns="http://www.w3.org/2000/svg">
<g clip-path="url(#clip0_104_1222)">
<path d="M14 1C14.2652 1 14.5196 1.10536 14.7071 1.29289C14.8946 1.48043 15 1.73478 15 2V14C15 14.2652 14.8946 14.5196 14.7071 14.7071C14.5196 14.8946 14.2652 15 14 15H2C1.73478 15 1.48043 14.8946 1.29289 14.7071C1.10536 14.5196 1 14.2652 1 14V2C1 1.73478 1.10536 1.48043 1.29289 1.29289C1.48043 1.10536 1.73478 1 2 1H14ZM2 0C1.46957 0 0.960859 0.210714 0.585786 0.585786C0.210714 0.960859 0 1.46957 0 2L0 14C0 14.5304 0.210714 15.0391 0.585786 15.4142C0.960859 15.7893 1.46957 16 2 16H14C14.5304 16 15.0391 15.7893 15.4142 15.4142C15.7893 15.0391 16 14.5304 16 14V2C16 1.46957 15.7893 0.960859 15.4142 0.585786C15.0391 0.210714 14.5304 0 14 0L2 0Z" fill="black"/>
<path d="M10.97 4.96997C11.1099 4.83125 11.2989 4.75317 11.4959 4.75263C11.693 4.75208 11.8823 4.82912 12.023 4.96707C12.1637 5.10502 12.2445 5.29282 12.2479 5.48984C12.2512 5.68687 12.1769 5.87731 12.041 6.01998L8.04897 11.01C7.98037 11.0839 7.89756 11.1432 7.80551 11.1843C7.71345 11.2255 7.61405 11.2477 7.51323 11.2496C7.41241 11.2514 7.31224 11.2329 7.21873 11.1952C7.12522 11.1575 7.04027 11.1013 6.96897 11.03L4.32397 8.38398C4.25029 8.31531 4.19119 8.23251 4.15019 8.14051C4.1092 8.04851 4.08716 7.9492 4.08538 7.8485C4.08361 7.7478 4.10213 7.64777 4.13985 7.55438C4.17757 7.46099 4.23372 7.37616 4.30494 7.30494C4.37616 7.23372 4.46099 7.17757 4.55438 7.13985C4.64777 7.10213 4.74779 7.08361 4.8485 7.08538C4.9492 7.08716 5.04851 7.1092 5.14051 7.15019C5.23251 7.19119 5.31531 7.25029 5.38397 7.32398L7.47797 9.41698L10.951 4.99198C10.9572 4.98423 10.9639 4.97688 10.971 4.96997H10.97Z" fill="black"/>
</g>
<defs>
<clipPath id="clip0_104_1222">
<rect width="16" height="16" fill="white"/>
</clipPath>
</defs>
</svg>
