<svg width="16" height="16" viewBox="0 0 16 16" fill="none" xmlns="http://www.w3.org/2000/svg">
<path d="M2.50001 7.99999C2.49986 7.03446 2.75388 6.08591 3.23655 5.24969C3.71921 4.41346 4.41351 3.71903 5.24964 3.2362C6.08577 2.75338 7.03427 2.49917 7.99979 2.49913C8.96532 2.49909 9.91384 2.75323 10.75 3.23599C10.8648 3.30125 11.0007 3.31846 11.1281 3.28386C11.2556 3.24927 11.3641 3.16568 11.4301 3.05134C11.4962 2.93699 11.5143 2.80118 11.4805 2.67353C11.4468 2.54588 11.3639 2.43676 11.25 2.36999C10.0109 1.65457 8.57029 1.36801 7.15169 1.55475C5.73309 1.74149 4.41575 2.39109 3.40396 3.40281C2.39218 4.41453 1.74249 5.73184 1.55566 7.15042C1.36883 8.56901 1.6553 10.0096 2.37064 11.2488C3.08597 12.488 4.19021 13.4565 5.51208 14.0042C6.83396 14.5518 8.29961 14.648 9.68173 14.2778C11.0638 13.9076 12.2852 13.0917 13.1564 11.9567C14.0275 10.8216 14.4998 9.43083 14.5 7.99999C14.5 7.86738 14.4473 7.7402 14.3536 7.64644C14.2598 7.55267 14.1326 7.49999 14 7.49999C13.8674 7.49999 13.7402 7.55267 13.6465 7.64644C13.5527 7.7402 13.5 7.86738 13.5 7.99999C13.5 9.45868 12.9205 10.8576 11.8891 11.8891C10.8576 12.9205 9.4587 13.5 8.00001 13.5C6.54132 13.5 5.14237 12.9205 4.11092 11.8891C3.07947 10.8576 2.50001 9.45868 2.50001 7.99999Z" fill="black"/>
<path d="M15.354 3.35402C15.4005 3.30753 15.4374 3.25234 15.4625 3.1916C15.4877 3.13087 15.5006 3.06577 15.5006 3.00002C15.5006 2.93428 15.4877 2.86918 15.4625 2.80844C15.4374 2.7477 15.4005 2.69251 15.354 2.64602C15.3075 2.59953 15.2523 2.56266 15.1916 2.5375C15.1308 2.51234 15.0657 2.49939 15 2.49939C14.9342 2.49939 14.8691 2.51234 14.8084 2.5375C14.7477 2.56266 14.6925 2.59953 14.646 2.64602L7.99999 9.29302L5.35399 6.64602C5.3075 6.59953 5.25231 6.56266 5.19157 6.5375C5.13084 6.51234 5.06573 6.49939 4.99999 6.49939C4.93425 6.49939 4.86915 6.51234 4.80841 6.5375C4.74767 6.56266 4.69248 6.59953 4.64599 6.64602C4.5995 6.69251 4.56263 6.7477 4.53747 6.80844C4.51231 6.86918 4.49936 6.93428 4.49936 7.00002C4.49936 7.06576 4.51231 7.13087 4.53747 7.1916C4.56263 7.25234 4.5995 7.30753 4.64599 7.35402L7.64599 10.354C7.69244 10.4006 7.74761 10.4375 7.80836 10.4627C7.8691 10.4879 7.93422 10.5009 7.99999 10.5009C8.06576 10.5009 8.13088 10.4879 8.19162 10.4627C8.25237 10.4375 8.30755 10.4006 8.35399 10.354L15.354 3.35402Z" fill="black"/>
</svg>
