<svg width="16" height="16" viewBox="0 0 16 16" xmlns="http://www.w3.org/2000/svg" fill='currentColor'><g clip-path="url(#clip0_104_1204)"><path d="M12.354 4.35402C12.4005 4.30753 12.4374 4.25234 12.4625 4.1916C12.4877 4.13087 12.5006 4.06577 12.5006 4.00002C12.5006 3.93428 12.4877 3.86918 12.4625 3.80844C12.4374 3.7477 12.4005 3.69251 12.354 3.64602C12.3075 3.59953 12.2523 3.56266 12.1916 3.5375C12.1308 3.51234 12.0657 3.49939 12 3.49939C11.9343 3.49939 11.8692 3.51234 11.8084 3.5375C11.7477 3.56266 11.6925 3.59953 11.646 3.64602L5.00001 10.293L1.85401 7.14602C1.80752 7.09953 1.75233 7.06266 1.69159 7.0375C1.63085 7.01234 1.56575 6.99939 1.50001 6.99939C1.36723 6.99939 1.23989 7.05213 1.14601 7.14602C1.05212 7.23991 0.999374 7.36725 0.999374 7.50002C0.999374 7.6328 1.05212 7.76013 1.14601 7.85402L4.64601 11.354C4.69245 11.4006 4.74763 11.4375 4.80837 11.4627C4.86912 11.4879 4.93424 11.5009 5.00001 11.5009C5.06577 11.5009 5.13089 11.4879 5.19164 11.4627C5.25239 11.4375 5.30756 11.4006 5.35401 11.354L12.354 4.35402ZM8.14601 11.354L7.25001 10.457L7.95701 9.75002L8.50001 10.293L15.146 3.64602C15.2399 3.55213 15.3672 3.49939 15.5 3.49939C15.6328 3.49939 15.7601 3.55213 15.854 3.64602C15.9479 3.73991 16.0006 3.86725 16.0006 4.00002C16.0006 4.1328 15.9479 4.26013 15.854 4.35402L8.85401 11.354C8.80756 11.4006 8.75238 11.4375 8.69164 11.4627C8.63089 11.4879 8.56577 11.5009 8.50001 11.5009C8.43424 11.5009 8.36912 11.4879 8.30837 11.4627C8.24763 11.4375 8.19245 11.4006 8.14601 11.354Z"/><path d="M5.35399 7.14602L6.24999 8.04302L5.54299 8.75002L4.64599 7.85402C4.5521 7.76013 4.49936 7.6328 4.49936 7.50002C4.49936 7.36725 4.5521 7.23991 4.64599 7.14602C4.73988 7.05213 4.86722 6.99939 4.99999 6.99939C5.13277 6.99939 5.2601 7.05213 5.35399 7.14602Z"/></g><defs><clipPath id="clip0_104_1204"><rect width="16" height="16"/></clipPath></defs></svg>