<svg width="16" height="16" viewBox="0 0 16 16" fill="none" xmlns="http://www.w3.org/2000/svg">
<path d="M13.854 3.64598C13.9006 3.69242 13.9375 3.7476 13.9627 3.80834C13.9879 3.86909 14.0009 3.93421 14.0009 3.99998C14.0009 4.06575 13.9879 4.13087 13.9627 4.19161C13.9375 4.25236 13.9006 4.30753 13.854 4.35398L6.85401 11.354C6.80756 11.4005 6.75239 11.4375 6.69164 11.4627C6.63089 11.4879 6.56577 11.5009 6.50001 11.5009C6.43424 11.5009 6.36912 11.4879 6.30837 11.4627C6.24763 11.4375 6.19245 11.4005 6.14601 11.354L2.64601 7.85398C2.55212 7.76009 2.49937 7.63275 2.49937 7.49998C2.49937 7.3672 2.55212 7.23986 2.64601 7.14598C2.73989 7.05209 2.86723 6.99935 3.00001 6.99935C3.13278 6.99935 3.26012 7.05209 3.35401 7.14598L6.50001 10.293L13.146 3.64598C13.1925 3.59941 13.2476 3.56247 13.3084 3.53727C13.3691 3.51206 13.4342 3.49908 13.5 3.49908C13.5658 3.49908 13.6309 3.51206 13.6916 3.53727C13.7524 3.56247 13.8076 3.59941 13.854 3.64598Z" fill="black"/>
</svg>
