<svg width="16" height="16" viewBox="0 0 16 16" fill="none" xmlns="http://www.w3.org/2000/svg">
<path fill-rule="evenodd" clip-rule="evenodd" d="M3.64599 1.64598C3.69244 1.59942 3.74761 1.56247 3.80836 1.53727C3.86911 1.51206 3.93423 1.49908 3.99999 1.49908C4.06576 1.49908 4.13088 1.51206 4.19163 1.53727C4.25237 1.56247 4.30755 1.59942 4.35399 1.64598L10.354 7.64598C10.4006 7.69242 10.4375 7.7476 10.4627 7.80834C10.4879 7.86909 10.5009 7.93421 10.5009 7.99998C10.5009 8.06575 10.4879 8.13087 10.4627 8.19161C10.4375 8.25236 10.4006 8.30753 10.354 8.35398L4.35399 14.354C4.26011 14.4479 4.13277 14.5006 3.99999 14.5006C3.86722 14.5006 3.73988 14.4479 3.64599 14.354C3.55211 14.2601 3.49936 14.1328 3.49936 14C3.49936 13.8672 3.55211 13.7399 3.64599 13.646L9.29299 7.99998L3.64599 2.35398C3.59943 2.30753 3.56249 2.25236 3.53728 2.19161C3.51207 2.13087 3.4991 2.06575 3.4991 1.99998C3.4991 1.93421 3.51207 1.86909 3.53728 1.80834C3.56249 1.7476 3.59943 1.69242 3.64599 1.64598Z" fill="black"/>
<path fill-rule="evenodd" clip-rule="evenodd" d="M7.64599 1.64598C7.69244 1.59942 7.74761 1.56247 7.80836 1.53727C7.8691 1.51206 7.93423 1.49908 7.99999 1.49908C8.06576 1.49908 8.13088 1.51206 8.19163 1.53727C8.25237 1.56247 8.30755 1.59942 8.35399 1.64598L14.354 7.64598C14.4006 7.69242 14.4375 7.7476 14.4627 7.80834C14.4879 7.86909 14.5009 7.93421 14.5009 7.99998C14.5009 8.06575 14.4879 8.13087 14.4627 8.19161C14.4375 8.25236 14.4006 8.30753 14.354 8.35398L8.35399 14.354C8.26011 14.4479 8.13277 14.5006 7.99999 14.5006C7.86722 14.5006 7.73988 14.4479 7.64599 14.354C7.55211 14.2601 7.49936 14.1328 7.49936 14C7.49936 13.8672 7.55211 13.7399 7.64599 13.646L13.293 7.99998L7.64599 2.35398C7.59943 2.30753 7.56249 2.25236 7.53728 2.19161C7.51207 2.13087 7.4991 2.06575 7.4991 1.99998C7.4991 1.93421 7.51207 1.86909 7.53728 1.80834C7.56249 1.7476 7.59943 1.69242 7.64599 1.64598Z" fill="black"/>
</svg>
