<svg width="16" height="16" viewBox="0 0 16 16" xmlns="http://www.w3.org/2000/svg" fill='currentColor'><path fill-rule="evenodd" clip-rule="evenodd" d="M8.35399 1.64598C8.40056 1.69242 8.4375 1.7476 8.46271 1.80834C8.48791 1.86909 8.50089 1.93421 8.50089 1.99998C8.50089 2.06575 8.48791 2.13087 8.46271 2.19161C8.4375 2.25236 8.40056 2.30753 8.35399 2.35398L2.70699 7.99998L8.35399 13.646C8.44788 13.7399 8.50062 13.8672 8.50062 14C8.50062 14.1328 8.44788 14.2601 8.35399 14.354C8.26011 14.4479 8.13277 14.5006 7.99999 14.5006C7.86722 14.5006 7.73988 14.4479 7.64599 14.354L1.64599 8.35398C1.59943 8.30753 1.56249 8.25236 1.53728 8.19161C1.51207 8.13087 1.4991 8.06575 1.4991 7.99998C1.4991 7.93421 1.51207 7.86909 1.53728 7.80834C1.56249 7.7476 1.59943 7.69242 1.64599 7.64598L7.64599 1.64598C7.69244 1.59942 7.74761 1.56247 7.80836 1.53727C7.86911 1.51206 7.93423 1.49908 7.99999 1.49908C8.06576 1.49908 8.13088 1.51206 8.19163 1.53727C8.25237 1.56247 8.30755 1.59942 8.35399 1.64598Z"/><path fill-rule="evenodd" clip-rule="evenodd" d="M12.354 1.64598C12.4006 1.69242 12.4375 1.7476 12.4627 1.80834C12.4879 1.86909 12.5009 1.93421 12.5009 1.99998C12.5009 2.06575 12.4879 2.13087 12.4627 2.19161C12.4375 2.25236 12.4006 2.30753 12.354 2.35398L6.70699 7.99998L12.354 13.646C12.4005 13.6925 12.4374 13.7477 12.4625 13.8084C12.4877 13.8691 12.5006 13.9342 12.5006 14C12.5006 14.0657 12.4877 14.1308 12.4625 14.1916C12.4374 14.2523 12.4005 14.3075 12.354 14.354C12.3075 14.4005 12.2523 14.4373 12.1916 14.4625C12.1308 14.4877 12.0657 14.5006 12 14.5006C11.9342 14.5006 11.8691 14.4877 11.8084 14.4625C11.7477 14.4373 11.6925 14.4005 11.646 14.354L5.64599 8.35398C5.59943 8.30753 5.56249 8.25236 5.53728 8.19161C5.51207 8.13087 5.4991 8.06575 5.4991 7.99998C5.4991 7.93421 5.51207 7.86909 5.53728 7.80834C5.56249 7.7476 5.59943 7.69242 5.64599 7.64598L11.646 1.64598C11.6924 1.59942 11.7476 1.56247 11.8084 1.53727C11.8691 1.51206 11.9342 1.49908 12 1.49908C12.0658 1.49908 12.1309 1.51206 12.1916 1.53727C12.2524 1.56247 12.3075 1.59942 12.354 1.64598Z"/></svg>