<svg width="16" height="16" viewBox="0 0 16 16" fill="none" xmlns="http://www.w3.org/2000/svg">
<path fill-rule="evenodd" clip-rule="evenodd" d="M11.854 3.646C11.9006 3.69245 11.9375 3.74762 11.9627 3.80837C11.9879 3.86911 12.0009 3.93423 12.0009 4C12.0009 4.06577 11.9879 4.13089 11.9627 4.19163C11.9375 4.25238 11.9006 4.30755 11.854 4.354L8.207 8L11.854 11.646C11.9479 11.7399 12.0006 11.8672 12.0006 12C12.0006 12.1328 11.9479 12.2601 11.854 12.354C11.7601 12.4479 11.6328 12.5006 11.5 12.5006C11.3672 12.5006 11.2399 12.4479 11.146 12.354L7.146 8.354C7.09944 8.30755 7.06249 8.25238 7.03729 8.19163C7.01208 8.13089 6.99911 8.06577 6.99911 8C6.99911 7.93423 7.01208 7.86911 7.03729 7.80837C7.06249 7.74762 7.09944 7.69245 7.146 7.646L11.146 3.646C11.1924 3.59944 11.2476 3.56249 11.3084 3.53729C11.3691 3.51208 11.4342 3.49911 11.5 3.49911C11.5658 3.49911 11.6309 3.51208 11.6916 3.53729C11.7524 3.56249 11.8076 3.59944 11.854 3.646ZM4.5 1C4.36739 1 4.24021 1.05268 4.14645 1.14645C4.05268 1.24021 4 1.36739 4 1.5V14.5C4 14.6326 4.05268 14.7598 4.14645 14.8536C4.24021 14.9473 4.36739 15 4.5 15C4.63261 15 4.75979 14.9473 4.85355 14.8536C4.94732 14.7598 5 14.6326 5 14.5V1.5C5 1.36739 4.94732 1.24021 4.85355 1.14645C4.75979 1.05268 4.63261 1 4.5 1Z" fill="black"/>
</svg>
