<svg width="16" height="16" viewBox="0 0 16 16" xmlns="http://www.w3.org/2000/svg" fill='currentColor'><path fill-rule="evenodd" clip-rule="evenodd" d="M7.64599 4.64598C7.69244 4.59941 7.74761 4.56247 7.80836 4.53727C7.8691 4.51206 7.93422 4.49908 7.99999 4.49908C8.06576 4.49908 8.13088 4.51206 8.19162 4.53727C8.25237 4.56247 8.30754 4.59941 8.35399 4.64598L14.354 10.646C14.4479 10.7399 14.5006 10.8672 14.5006 11C14.5006 11.1328 14.4479 11.2601 14.354 11.354C14.2601 11.4479 14.1328 11.5006 14 11.5006C13.8672 11.5006 13.7399 11.4479 13.646 11.354L7.99999 5.70698L2.35399 11.354C2.2601 11.4479 2.13277 11.5006 1.99999 11.5006C1.86721 11.5006 1.73988 11.4479 1.64599 11.354C1.5521 11.2601 1.49936 11.1328 1.49936 11C1.49936 10.8672 1.5521 10.7399 1.64599 10.646L7.64599 4.64598Z"/></svg>