<svg width="16" height="16" viewBox="0 0 16 16" xmlns="http://www.w3.org/2000/svg" fill='currentColor'><path fill-rule="evenodd" clip-rule="evenodd" d="M3.64599 11.854C3.69244 11.9006 3.74761 11.9375 3.80836 11.9627C3.86911 11.9879 3.93423 12.0009 3.99999 12.0009C4.06576 12.0009 4.13088 11.9879 4.19163 11.9627C4.25237 11.9375 4.30755 11.9006 4.35399 11.854L7.99999 8.20699L11.646 11.854C11.7399 11.9479 11.8672 12.0006 12 12.0006C12.1328 12.0006 12.2601 11.9479 12.354 11.854C12.4479 11.7601 12.5006 11.6328 12.5006 11.5C12.5006 11.3672 12.4479 11.2399 12.354 11.146L8.35399 7.14599C8.30755 7.09942 8.25237 7.06248 8.19163 7.03727C8.13088 7.01207 8.06576 6.99909 7.99999 6.99909C7.93423 6.99909 7.86911 7.01207 7.80836 7.03727C7.74761 7.06248 7.69244 7.09942 7.64599 7.14599L3.64599 11.146C3.59943 11.1924 3.56249 11.2476 3.53728 11.3084C3.51207 11.3691 3.4991 11.4342 3.4991 11.5C3.4991 11.5658 3.51207 11.6309 3.53728 11.6916C3.56249 11.7524 3.59943 11.8075 3.64599 11.854ZM2.39999 5.19999C2.39999 5.41999 2.57999 5.59999 2.79999 5.59999H13.2C13.3061 5.59999 13.4078 5.55785 13.4828 5.48283C13.5578 5.40782 13.6 5.30607 13.6 5.19999C13.6 5.0939 13.5578 4.99216 13.4828 4.91714C13.4078 4.84213 13.3061 4.79999 13.2 4.79999H2.79999C2.69391 4.79999 2.59217 4.84213 2.51715 4.91714C2.44214 4.99216 2.39999 5.0939 2.39999 5.19999Z"/></svg>