<svg width="16" height="16" viewBox="0 0 16 16" xmlns="http://www.w3.org/2000/svg" fill='currentColor'><path fill-rule="evenodd" clip-rule="evenodd" d="M3.646 4.14598C3.69245 4.09941 3.74762 4.06247 3.80837 4.03727C3.86911 4.01206 3.93423 3.99908 4 3.99908C4.06577 3.99908 4.13089 4.01206 4.19163 4.03727C4.25238 4.06247 4.30755 4.09941 4.354 4.14598L8 7.79298L11.646 4.14598C11.7399 4.05209 11.8672 3.99935 12 3.99935C12.1328 3.99935 12.2601 4.05209 12.354 4.14598C12.4479 4.23986 12.5006 4.3672 12.5006 4.49998C12.5006 4.63275 12.4479 4.76009 12.354 4.85398L8.354 8.85398C8.30755 8.90054 8.25238 8.93748 8.19163 8.96269C8.13089 8.9879 8.06577 9.00087 8 9.00087C7.93423 9.00087 7.86911 8.9879 7.80837 8.96269C7.74762 8.93748 7.69245 8.90054 7.646 8.85398L3.646 4.85398C3.59944 4.80753 3.56249 4.75236 3.53729 4.69161C3.51208 4.63087 3.49911 4.56575 3.49911 4.49998C3.49911 4.43421 3.51208 4.36909 3.53729 4.30834C3.56249 4.2476 3.59944 4.19242 3.646 4.14598ZM1 11.5C1 11.3674 1.05268 11.2402 1.14645 11.1464C1.24021 11.0527 1.36739 11 1.5 11H14.5C14.6326 11 14.7598 11.0527 14.8536 11.1464C14.9473 11.2402 15 11.3674 15 11.5C15 11.6326 14.9473 11.7598 14.8536 11.8535C14.7598 11.9473 14.6326 12 14.5 12H1.5C1.36739 12 1.24021 11.9473 1.14645 11.8535C1.05268 11.7598 1 11.6326 1 11.5Z"/></svg>