<svg width="16" height="16" viewBox="0 0 16 16" fill="none" xmlns="http://www.w3.org/2000/svg">
<path fill-rule="evenodd" clip-rule="evenodd" d="M3.646 10.146C3.69245 10.0994 3.74762 10.0625 3.80837 10.0373C3.86911 10.0121 3.93423 9.99908 4 9.99908C4.06577 9.99908 4.13089 10.0121 4.19163 10.0373C4.25238 10.0625 4.30755 10.0994 4.354 10.146L8 13.793L11.646 10.146C11.7399 10.0521 11.8672 9.99935 12 9.99935C12.1328 9.99935 12.2601 10.0521 12.354 10.146C12.4479 10.2399 12.5006 10.3672 12.5006 10.5C12.5006 10.6328 12.4479 10.7601 12.354 10.854L8.354 14.854C8.30755 14.9005 8.25238 14.9375 8.19163 14.9627C8.13089 14.9879 8.06577 15.0009 8 15.0009C7.93423 15.0009 7.86911 14.9879 7.80837 14.9627C7.74762 14.9375 7.69245 14.9005 7.646 14.854L3.646 10.854C3.59944 10.8075 3.56249 10.7524 3.53729 10.6916C3.51208 10.6309 3.49911 10.5657 3.49911 10.5C3.49911 10.4342 3.51208 10.3691 3.53729 10.3083C3.56249 10.2476 3.59944 10.1924 3.646 10.146ZM3.646 5.85398C3.69245 5.90054 3.74762 5.93748 3.80837 5.96269C3.86911 5.9879 3.93423 6.00087 4 6.00087C4.06577 6.00087 4.13089 5.9879 4.19163 5.96269C4.25238 5.93748 4.30755 5.90054 4.354 5.85398L8 2.20698L11.646 5.85398C11.7399 5.94787 11.8672 6.00061 12 6.00061C12.1328 6.00061 12.2601 5.94787 12.354 5.85398C12.4479 5.76009 12.5006 5.63275 12.5006 5.49998C12.5006 5.3672 12.4479 5.23986 12.354 5.14598L8.354 1.14598C8.30755 1.09942 8.25238 1.06247 8.19163 1.03727C8.13089 1.01206 8.06577 0.999084 8 0.999084C7.93423 0.999084 7.86911 1.01206 7.80837 1.03727C7.74762 1.06247 7.69245 1.09942 7.646 1.14598L3.646 5.14598C3.59944 5.19242 3.56249 5.2476 3.53729 5.30834C3.51208 5.36909 3.49911 5.43421 3.49911 5.49998C3.49911 5.56575 3.51208 5.63087 3.53729 5.69161C3.56249 5.75236 3.59944 5.80753 3.646 5.85398ZM1 7.99998C1 7.86737 1.05268 7.74019 1.14645 7.64642C1.24021 7.55266 1.36739 7.49998 1.5 7.49998H14.5C14.6326 7.49998 14.7598 7.55266 14.8536 7.64642C14.9473 7.74019 15 7.86737 15 7.99998C15 8.13259 14.9473 8.25976 14.8536 8.35353C14.7598 8.4473 14.6326 8.49998 14.5 8.49998H1.5C1.36739 8.49998 1.24021 8.4473 1.14645 8.35353C1.05268 8.25976 1 8.13259 1 7.99998Z" fill="black"/>
</svg>
