<svg width="16" height="16" viewBox="0 0 16 16" fill="none" xmlns="http://www.w3.org/2000/svg">
<path fill-rule="evenodd" clip-rule="evenodd" d="M3.646 13.854C3.69245 13.9005 3.74762 13.9375 3.80837 13.9627C3.86911 13.9879 3.93423 14.0009 4 14.0009C4.06577 14.0009 4.13089 13.9879 4.19163 13.9627C4.25238 13.9375 4.30756 13.9005 4.354 13.854L8 10.207L11.646 13.854C11.7399 13.9479 11.8672 14.0006 12 14.0006C12.1328 14.0006 12.2601 13.9479 12.354 13.854C12.4479 13.7601 12.5006 13.6328 12.5006 13.5C12.5006 13.3672 12.4479 13.2399 12.354 13.146L8.354 9.14598C8.30756 9.09941 8.25238 9.06247 8.19163 9.03727C8.13089 9.01206 8.06577 8.99908 8 8.99908C7.93423 8.99908 7.86911 9.01206 7.80837 9.03727C7.74762 9.06247 7.69245 9.09941 7.646 9.14598L3.646 13.146C3.59944 13.1924 3.5625 13.2476 3.53729 13.3083C3.51208 13.3691 3.49911 13.4342 3.49911 13.5C3.49911 13.5657 3.51208 13.6309 3.53729 13.6916C3.5625 13.7524 3.59944 13.8075 3.646 13.854ZM3.646 2.14598C3.69245 2.09941 3.74762 2.06247 3.80837 2.03727C3.86911 2.01206 3.93423 1.99908 4 1.99908C4.06577 1.99908 4.13089 2.01206 4.19163 2.03727C4.25238 2.06247 4.30756 2.09941 4.354 2.14598L8 5.79298L11.646 2.14598C11.7399 2.05209 11.8672 1.99935 12 1.99935C12.1328 1.99935 12.2601 2.05209 12.354 2.14598C12.4479 2.23986 12.5006 2.3672 12.5006 2.49998C12.5006 2.63275 12.4479 2.76009 12.354 2.85398L8.354 6.85398C8.30756 6.90054 8.25238 6.93748 8.19163 6.96269C8.13089 6.9879 8.06577 7.00087 8 7.00087C7.93423 7.00087 7.86911 6.9879 7.80837 6.96269C7.74762 6.93748 7.69245 6.90054 7.646 6.85398L3.646 2.85398C3.59944 2.80753 3.5625 2.75236 3.53729 2.69161C3.51208 2.63087 3.49911 2.56575 3.49911 2.49998C3.49911 2.43421 3.51208 2.36909 3.53729 2.30834C3.5625 2.2476 3.59944 2.19242 3.646 2.14598Z" fill="black"/>
</svg>
