<svg width="16" height="16" viewBox="0 0 16 16" xmlns="http://www.w3.org/2000/svg" fill='currentColor'><path fill-rule="evenodd" clip-rule="evenodd" d="M1.553 6.77599C1.61241 6.6577 1.71631 6.5678 1.8419 6.526C1.9675 6.48419 2.10455 6.4939 2.223 6.55299L8 9.43999L13.776 6.55199C13.8348 6.52197 13.8989 6.50388 13.9647 6.49876C14.0305 6.49364 14.0966 6.5016 14.1593 6.52216C14.222 6.54273 14.28 6.57551 14.33 6.6186C14.38 6.66169 14.4209 6.71425 14.4505 6.77325C14.48 6.83224 14.4976 6.8965 14.5022 6.96233C14.5069 7.02815 14.4984 7.09424 14.4773 7.15678C14.4563 7.21932 14.4231 7.27707 14.3796 7.32671C14.3361 7.37634 14.2832 7.41688 14.224 7.44599L8.224 10.446C8.15447 10.4808 8.07777 10.499 8 10.499C7.92223 10.499 7.84553 10.4808 7.776 10.446L1.776 7.44599C1.65771 7.38658 1.56781 7.28268 1.52601 7.15708C1.4842 7.03149 1.49391 6.89444 1.553 6.77599Z"/></svg>