<svg width="16" height="16" viewBox="0 0 16 16" xmlns="http://www.w3.org/2000/svg" fill='currentColor'><path fill-rule="evenodd" clip-rule="evenodd" d="M3.646 14.854C3.69245 14.9005 3.74762 14.9375 3.80837 14.9627C3.86911 14.9879 3.93423 15.0009 4 15.0009C4.06577 15.0009 4.13089 14.9879 4.19163 14.9627C4.25238 14.9375 4.30755 14.9005 4.354 14.854L8 11.207L11.646 14.854C11.7399 14.9479 11.8672 15.0006 12 15.0006C12.1328 15.0006 12.2601 14.9479 12.354 14.854C12.4479 14.7601 12.5006 14.6328 12.5006 14.5C12.5006 14.3672 12.4479 14.2399 12.354 14.146L8.354 10.146C8.30755 10.0994 8.25238 10.0625 8.19163 10.0373C8.13089 10.0121 8.06577 9.99908 8 9.99908C7.93423 9.99908 7.86911 10.0121 7.80837 10.0373C7.74762 10.0625 7.69245 10.0994 7.646 10.146L3.646 14.146C3.59944 14.1924 3.56249 14.2476 3.53729 14.3083C3.51208 14.3691 3.49911 14.4342 3.49911 14.5C3.49911 14.5657 3.51208 14.6309 3.53729 14.6916C3.56249 14.7524 3.59944 14.8075 3.646 14.854ZM3.646 1.14598C3.69245 1.09942 3.74762 1.06247 3.80837 1.03727C3.86911 1.01206 3.93423 0.999084 4 0.999084C4.06577 0.999084 4.13089 1.01206 4.19163 1.03727C4.25238 1.06247 4.30755 1.09942 4.354 1.14598L8 4.79298L11.646 1.14598C11.7399 1.05209 11.8672 0.999347 12 0.999347C12.1328 0.999347 12.2601 1.05209 12.354 1.14598C12.4479 1.23986 12.5006 1.3672 12.5006 1.49998C12.5006 1.63275 12.4479 1.76009 12.354 1.85398L8.354 5.85398C8.30755 5.90054 8.25238 5.93748 8.19163 5.96269C8.13089 5.9879 8.06577 6.00087 8 6.00087C7.93423 6.00087 7.86911 5.9879 7.80837 5.96269C7.74762 5.93748 7.69245 5.90054 7.646 5.85398L3.646 1.85398C3.59944 1.80753 3.56249 1.75236 3.53729 1.69161C3.51208 1.63087 3.49911 1.56575 3.49911 1.49998C3.49911 1.43421 3.51208 1.36909 3.53729 1.30834C3.56249 1.2476 3.59944 1.19242 3.646 1.14598ZM1 7.99998C1 7.86737 1.05268 7.74019 1.14645 7.64642C1.24021 7.55266 1.36739 7.49998 1.5 7.49998H14.5C14.6326 7.49998 14.7598 7.55266 14.8536 7.64642C14.9473 7.74019 15 7.86737 15 7.99998C15 8.13259 14.9473 8.25976 14.8536 8.35353C14.7598 8.4473 14.6326 8.49998 14.5 8.49998H1.5C1.36739 8.49998 1.24021 8.4473 1.14645 8.35353C1.05268 8.25976 1 8.13259 1 7.99998Z"/></svg>