<svg width="16" height="16" viewBox="0 0 16 16" fill="none" xmlns="http://www.w3.org/2000/svg">
<path fill-rule="evenodd" clip-rule="evenodd" d="M3.64601 9.14598C3.69245 9.09941 3.74763 9.06247 3.80838 9.03727C3.86912 9.01206 3.93424 8.99908 4.00001 8.99908C4.06578 8.99908 4.1309 9.01206 4.19164 9.03727C4.25239 9.06247 4.30756 9.09941 4.35401 9.14598L8.00001 12.793L11.646 9.14598C11.7399 9.05209 11.8672 8.99935 12 8.99935C12.1328 8.99935 12.2601 9.05209 12.354 9.14598C12.4479 9.23986 12.5006 9.3672 12.5006 9.49998C12.5006 9.63275 12.4479 9.76009 12.354 9.85398L8.35401 13.854C8.30756 13.9005 8.25239 13.9375 8.19164 13.9627C8.1309 13.9879 8.06578 14.0009 8.00001 14.0009C7.93424 14.0009 7.86912 13.9879 7.80838 13.9627C7.74763 13.9375 7.69245 13.9005 7.64601 13.854L3.64601 9.85398C3.59945 9.80753 3.5625 9.75236 3.5373 9.69161C3.51209 9.63087 3.49911 9.56575 3.49911 9.49998C3.49911 9.43421 3.51209 9.36909 3.5373 9.30834C3.5625 9.2476 3.59945 9.19242 3.64601 9.14598ZM3.64601 6.85398C3.69245 6.90054 3.74763 6.93748 3.80838 6.96269C3.86912 6.9879 3.93424 7.00087 4.00001 7.00087C4.06578 7.00087 4.1309 6.9879 4.19164 6.96269C4.25239 6.93748 4.30756 6.90054 4.35401 6.85398L8.00001 3.20698L11.646 6.85398C11.7399 6.94787 11.8672 7.00061 12 7.00061C12.1328 7.00061 12.2601 6.94787 12.354 6.85398C12.4479 6.76009 12.5006 6.63275 12.5006 6.49998C12.5006 6.3672 12.4479 6.23986 12.354 6.14598L8.35401 2.14598C8.30756 2.09941 8.25239 2.06247 8.19164 2.03727C8.1309 2.01206 8.06578 1.99908 8.00001 1.99908C7.93424 1.99908 7.86912 2.01206 7.80838 2.03727C7.74763 2.06247 7.69245 2.09941 7.64601 2.14598L3.64601 6.14598C3.59945 6.19242 3.5625 6.2476 3.5373 6.30834C3.51209 6.36909 3.49911 6.43421 3.49911 6.49998C3.49911 6.56575 3.51209 6.63087 3.5373 6.69161C3.5625 6.75236 3.59945 6.80753 3.64601 6.85398Z" fill="black"/>
</svg>
