<svg width="16" height="16" viewBox="0 0 16 16" fill="none" xmlns="http://www.w3.org/2000/svg">
<path fill-rule="evenodd" clip-rule="evenodd" d="M1.64599 4.64598C1.69244 4.59941 1.74761 4.56247 1.80836 4.53727C1.86911 4.51206 1.93423 4.49908 1.99999 4.49908C2.06576 4.49908 2.13088 4.51206 2.19163 4.53727C2.25237 4.56247 2.30755 4.59941 2.35399 4.64598L7.99999 10.293L13.646 4.64598C13.6925 4.59949 13.7477 4.56261 13.8084 4.53745C13.8691 4.5123 13.9342 4.49935 14 4.49935C14.0657 4.49935 14.1308 4.5123 14.1916 4.53745C14.2523 4.56261 14.3075 4.59949 14.354 4.64598C14.4005 4.69247 14.4374 4.74766 14.4625 4.80839C14.4877 4.86913 14.5006 4.93423 14.5006 4.99998C14.5006 5.06572 14.4877 5.13082 14.4625 5.19156C14.4374 5.2523 14.4005 5.30749 14.354 5.35398L8.35399 11.354C8.30755 11.4005 8.25237 11.4375 8.19163 11.4627C8.13088 11.4879 8.06576 11.5009 7.99999 11.5009C7.93423 11.5009 7.86911 11.4879 7.80836 11.4627C7.74761 11.4375 7.69244 11.4005 7.64599 11.354L1.64599 5.35398C1.59943 5.30753 1.56249 5.25236 1.53728 5.19161C1.51207 5.13087 1.4991 5.06575 1.4991 4.99998C1.4991 4.93421 1.51207 4.86909 1.53728 4.80834C1.56249 4.7476 1.59943 4.69242 1.64599 4.64598Z" fill="black"/>
</svg>
