<svg width="16" height="16" viewBox="0 0 16 16" fill="none" xmlns="http://www.w3.org/2000/svg">
<path fill-rule="evenodd" clip-rule="evenodd" d="M9.224 1.55301C9.34229 1.61242 9.43219 1.71632 9.47399 1.84191C9.51579 1.96751 9.50609 2.10456 9.447 2.22301L6.56 8.00001L9.448 13.776C9.47802 13.8348 9.49611 13.8989 9.50123 13.9647C9.50635 14.0305 9.49839 14.0966 9.47782 14.1593C9.45726 14.222 9.42448 14.28 9.38139 14.33C9.33829 14.38 9.28573 14.4209 9.22674 14.4505C9.16775 14.48 9.10348 14.4976 9.03766 14.5022C8.97183 14.5069 8.90575 14.4984 8.84321 14.4773C8.78067 14.4563 8.72292 14.4231 8.67328 14.3796C8.62364 14.3361 8.5831 14.2832 8.554 14.224L5.554 8.22401C5.51916 8.15448 5.50101 8.07778 5.50101 8.00001C5.50101 7.92224 5.51916 7.84554 5.554 7.77601L8.554 1.77601C8.61341 1.65772 8.71731 1.56782 8.8429 1.52602C8.9685 1.48421 9.10555 1.49392 9.224 1.55301Z" fill="black"/>
</svg>
