<svg width="16" height="16" viewBox="0 0 16 16" xmlns="http://www.w3.org/2000/svg" fill='currentColor'><path fill-rule="evenodd" clip-rule="evenodd" d="M1.646 6.64598C1.69245 6.59941 1.74762 6.56247 1.80837 6.53727C1.86911 6.51206 1.93423 6.49908 2 6.49908C2.06577 6.49908 2.13089 6.51206 2.19163 6.53727C2.25238 6.56247 2.30756 6.59941 2.354 6.64598L8 12.293L13.646 6.64598C13.7399 6.55209 13.8672 6.49935 14 6.49935C14.1328 6.49935 14.2601 6.55209 14.354 6.64598C14.4479 6.73986 14.5006 6.8672 14.5006 6.99998C14.5006 7.13275 14.4479 7.26009 14.354 7.35398L8.354 13.354C8.30756 13.4005 8.25238 13.4375 8.19163 13.4627C8.13089 13.4879 8.06577 13.5009 8 13.5009C7.93423 13.5009 7.86911 13.4879 7.80837 13.4627C7.74762 13.4375 7.69245 13.4005 7.646 13.354L1.646 7.35398C1.59944 7.30753 1.5625 7.25236 1.53729 7.19161C1.51208 7.13087 1.49911 7.06575 1.49911 6.99998C1.49911 6.93421 1.51208 6.86909 1.53729 6.80834C1.5625 6.7476 1.59944 6.69242 1.646 6.64598Z"/><path fill-rule="evenodd" clip-rule="evenodd" d="M1.646 2.64598C1.69245 2.59941 1.74762 2.56247 1.80837 2.53727C1.86911 2.51206 1.93423 2.49908 2 2.49908C2.06577 2.49908 2.13089 2.51206 2.19163 2.53727C2.25238 2.56247 2.30756 2.59941 2.354 2.64598L8 8.29298L13.646 2.64598C13.6925 2.59949 13.7477 2.56261 13.8084 2.53746C13.8692 2.5123 13.9343 2.49935 14 2.49935C14.0657 2.49935 14.1308 2.5123 14.1916 2.53746C14.2523 2.56261 14.3075 2.59949 14.354 2.64598C14.4005 2.69247 14.4374 2.74766 14.4625 2.80839C14.4877 2.86913 14.5006 2.93423 14.5006 2.99998C14.5006 3.06572 14.4877 3.13082 14.4625 3.19156C14.4374 3.2523 14.4005 3.30749 14.354 3.35398L8.354 9.35398C8.30756 9.40054 8.25238 9.43748 8.19163 9.46269C8.13089 9.4879 8.06577 9.50087 8 9.50087C7.93423 9.50087 7.86911 9.4879 7.80837 9.46269C7.74762 9.43748 7.69245 9.40054 7.646 9.35398L1.646 3.35398C1.59944 3.30753 1.5625 3.25236 1.53729 3.19161C1.51208 3.13087 1.49911 3.06575 1.49911 2.99998C1.49911 2.93421 1.51208 2.86909 1.53729 2.80834C1.5625 2.7476 1.59944 2.69242 1.646 2.64598Z"/></svg>