<svg xmlns="http://www.w3.org/2000/svg" width="24" height="24" viewBox="0 0 24 24" fill='currentColor'><path d="M13.5 2v8h8c0-4.42-3.58-8-8-8m6.32 13.89A7.95 7.95 0 0 0 21.5 11H6.94l-.95-2H2.5v2h2.22s1.89 4.07 2.12 4.42C5.74 16.01 5 17.17 5 18.5 5 20.43 6.57 22 8.5 22c1.76 0 3.22-1.3 3.46-3h2.08c.24 1.7 1.7 3 3.46 3 1.93 0 3.5-1.57 3.5-3.5 0-1.04-.46-1.97-1.18-2.61M8.5 20c-.83 0-1.5-.67-1.5-1.5S7.67 17 8.5 17s1.5.67 1.5 1.5S9.33 20 8.5 20m9 0c-.83 0-1.5-.67-1.5-1.5s.67-1.5 1.5-1.5 1.5.67 1.5 1.5-.67 1.5-1.5 1.5"/></svg>