<svg xmlns="http://www.w3.org/2000/svg" width="24" height="24" viewBox="0 0 24 24" fill='currentColor'><path d="M14.5 11.75a1.25 1.25 0 1 0 0-2.5 1.25 1.25 0 0 0 0 2.5m-5 0a1.25 1.25 0 1 0 0-2.5 1.25 1.25 0 0 0 0 2.5"/><path d="M22.94 12.66q.06-.315.06-.66t-.06-.66a4.01 4.01 0 0 0-2.81-3.17 9.1 9.1 0 0 0-2.19-2.91A8.9 8.9 0 0 0 12 3c-2.28 0-4.36.85-5.94 2.26-.92.81-1.67 1.8-2.19 2.91a3.99 3.99 0 0 0-2.81 3.17Q1 11.655 1 12t.06.66a4.01 4.01 0 0 0 2.81 3.17 9 9 0 0 0 2.17 2.89A8.9 8.9 0 0 0 12 21c2.29 0 4.38-.86 5.97-2.28.9-.8 1.65-1.79 2.17-2.89a4 4 0 0 0 2.8-3.17M19 14c-.1 0-.19-.02-.29-.03-.2.67-.49 1.29-.86 1.86A6.98 6.98 0 0 1 12 19c-2.45 0-4.6-1.26-5.85-3.17-.37-.57-.66-1.19-.86-1.86-.1.01-.19.03-.29.03-1.1 0-2-.9-2-2s.9-2 2-2c.1 0 .19.02.29.03.2-.67.49-1.29.86-1.86A6.98 6.98 0 0 1 12 5c2.45 0 4.6 1.26 5.85 3.17.37.57.66 1.19.86 1.86.1-.01.19-.03.29-.03 1.1 0 2 .9 2 2s-.9 2-2 2M7.5 14c.76 1.77 2.49 3 4.5 3s3.74-1.23 4.5-3z"/></svg>