<svg width="16" height="16" viewBox="0 0 16 16" xmlns="http://www.w3.org/2000/svg" fill='currentColor'><g clip-path="url(#clip0_104_1277)"><path d="M0 6C0 4.4087 0.632141 2.88258 1.75736 1.75736C2.88258 0.632141 4.4087 0 6 0C7.5913 0 9.11742 0.632141 10.2426 1.75736C11.3679 2.88258 12 4.4087 12 6C12 7.5913 11.3679 9.11742 10.2426 10.2426C9.11742 11.3679 7.5913 12 6 12C4.4087 12 2.88258 11.3679 1.75736 10.2426C0.632141 9.11742 0 7.5913 0 6H0Z"/><path d="M12.93 5H14.5C14.6326 5 14.7598 5.05268 14.8536 5.14645C14.9473 5.24021 15 5.36739 15 5.5V14.5C15 14.6326 14.9473 14.7598 14.8536 14.8536C14.7598 14.9473 14.6326 15 14.5 15H5.5C5.36739 15 5.24021 14.9473 5.14645 14.8536C5.05268 14.7598 5 14.6326 5 14.5V12.93C4.66171 12.8813 4.32747 12.8078 4 12.71V14.5C4 14.8978 4.15804 15.2794 4.43934 15.5607C4.72064 15.842 5.10218 16 5.5 16H14.5C14.8978 16 15.2794 15.842 15.5607 15.5607C15.842 15.2794 16 14.8978 16 14.5V5.5C16 5.10218 15.842 4.72064 15.5607 4.43934C15.2794 4.15804 14.8978 4 14.5 4H12.71C12.807 4.324 12.88 4.658 12.93 5Z"/></g><defs><clipPath id="clip0_104_1277"><rect width="16" height="16"/></clipPath></defs></svg>