<svg xmlns="http://www.w3.org/2000/svg" width="24" height="24" viewBox="0 0 24 24" fill='currentColor'><path d="m17.49 5 .63 1.37 1.37.63-1.37.63L17.49 9l-.63-1.37L15.49 7l1.37-.63zM11.5 6.13V4h2c.57 0 1.1.17 1.55.45l1.43-1.43A4.9 4.9 0 0 0 13.5 2H8v2h1.5v2.14A5.01 5.01 0 0 0 5.76 9.5h3.98l5.76 2.15v-.62a5 5 0 0 0-4-4.9M1.5 22h4V11h-4zm19-5h-7l-2.09-.73.33-.94 1.76.67h2.82c.65 0 1.18-.53 1.18-1.18 0-.49-.31-.93-.77-1.11L9.47 11H7.5v9.02l7 1.98 8-3c-.01-1.1-.89-2-2-2m0-3c1.1 0 2-.9 2-2s-2-4-2-4-2 2.9-2 4 .9 2 2 2"/></svg>