<svg width="24" height="24" viewBox="0 0 24 24" xmlns="http://www.w3.org/2000/svg" fill='currentColor'><path d="M7.54498 3.28998H19.715C20.815 3.28998 21.715 4.18998 21.715 5.28998V17.29C21.715 17.34 21.705 17.39 21.695 17.45L18.315 14.07C18.555 13.88 18.715 13.61 18.715 13.29V12.29H17.215V12.79H17.045L15.215 10.96V9.78998H17.215V10.29H18.715V9.28998C18.715 8.73998 18.265 8.28998 17.715 8.28998H14.715C14.165 8.28998 13.715 8.73998 13.715 9.28998V9.45998L7.54498 3.28998ZM20.495 21.9L17.885 19.29H5.71498C4.60498 19.29 3.71498 18.39 3.71498 17.29V5.28998C3.71498 5.23998 3.73498 5.18998 3.73498 5.13998L2.10498 3.50998L3.51498 2.09998L21.895 20.48L20.495 21.9ZM11.715 13.12L10.885 12.29H10.215V12.79H8.21498V9.78998H8.38498L7.11498 8.50998C6.87498 8.69998 6.71498 8.96998 6.71498 9.28998V13.29C6.71498 13.84 7.16498 14.29 7.71498 14.29H10.715C11.265 14.29 11.715 13.84 11.715 13.29V13.12Z"/></svg>