<svg width="16" height="16" viewBox="0 0 16 16" fill="none" xmlns="http://www.w3.org/2000/svg">
<g clip-path="url(#clip0_104_1384)">
<path d="M4.15801 12.025C4.22035 12.0458 4.27797 12.0786 4.3276 12.1217C4.37722 12.1648 4.41787 12.2172 4.44721 12.276C4.47656 12.3348 4.49403 12.3988 4.49863 12.4643C4.50323 12.5299 4.49487 12.5957 4.47401 12.658L3.97401 14.158C3.92849 14.279 3.83784 14.3777 3.72109 14.4334C3.60435 14.489 3.47059 14.4972 3.3479 14.4563C3.22521 14.4154 3.12314 14.3286 3.06312 14.214C3.0031 14.0995 2.9898 13.9661 3.02601 13.842L3.52601 12.342C3.5678 12.2161 3.65785 12.1121 3.77637 12.0526C3.89489 11.9932 4.03217 11.9832 4.15801 12.025ZM7.15801 12.025C7.22035 12.0458 7.27797 12.0786 7.3276 12.1217C7.37722 12.1648 7.41787 12.2172 7.44721 12.276C7.47656 12.3348 7.49403 12.3988 7.49863 12.4643C7.50323 12.5299 7.49487 12.5957 7.47401 12.658L6.47401 15.658C6.42849 15.779 6.33784 15.8777 6.22109 15.9334C6.10435 15.989 5.97059 15.9972 5.8479 15.9563C5.72521 15.9154 5.62314 15.8286 5.56312 15.714C5.50311 15.5995 5.4898 15.4661 5.52601 15.342L6.52601 12.342C6.5678 12.2161 6.65785 12.1121 6.77637 12.0526C6.89489 11.9932 7.03217 11.9832 7.15801 12.025ZM10.158 12.025C10.2203 12.0458 10.278 12.0786 10.3276 12.1217C10.3772 12.1648 10.4179 12.2172 10.4472 12.276C10.4766 12.3348 10.494 12.3988 10.4986 12.4643C10.5032 12.5299 10.4949 12.5957 10.474 12.658L9.97401 14.158C9.92849 14.279 9.83784 14.3777 9.72109 14.4334C9.60435 14.489 9.47059 14.4972 9.3479 14.4563C9.22521 14.4154 9.12314 14.3286 9.06312 14.214C9.00311 14.0995 8.9898 13.9661 9.02601 13.842L9.52601 12.342C9.5678 12.2161 9.65785 12.1121 9.77637 12.0526C9.89489 11.9932 10.0322 11.9832 10.158 12.025ZM13.158 12.025C13.2203 12.0458 13.278 12.0786 13.3276 12.1217C13.3772 12.1648 13.4179 12.2172 13.4472 12.276C13.4766 12.3348 13.494 12.3988 13.4986 12.4643C13.5032 12.5299 13.4949 12.5957 13.474 12.658L12.474 15.658C12.4552 15.7226 12.4235 15.7827 12.3809 15.8347C12.3383 15.8867 12.2856 15.9297 12.2261 15.9609C12.1665 15.9921 12.1012 16.011 12.0342 16.0164C11.9671 16.0218 11.8997 16.0136 11.8359 15.9923C11.7721 15.9711 11.7132 15.9371 11.6628 15.8926C11.6125 15.848 11.5716 15.7938 11.5426 15.7331C11.5137 15.6723 11.4973 15.6064 11.4945 15.5392C11.4916 15.472 11.5023 15.4049 11.526 15.342L12.526 12.342C12.5678 12.2161 12.6578 12.1121 12.7764 12.0526C12.8949 11.9932 13.0322 11.9832 13.158 12.025ZM13.405 5.02698C13.1973 3.98015 12.6602 3.02719 11.8722 2.30746C11.0842 1.58773 10.0866 1.13897 9.02526 1.02679C7.96393 0.914615 6.89455 1.14491 5.97348 1.68399C5.0524 2.22308 4.32794 3.04269 3.90601 4.02298C3.43285 3.96848 2.95354 4.01111 2.49743 4.14829C2.04132 4.28547 1.61801 4.51429 1.25341 4.82076C0.888813 5.12723 0.590602 5.50488 0.377036 5.93061C0.16347 6.35634 0.0390429 6.82118 0.0113738 7.29666C-0.0162954 7.77215 0.0533751 8.24828 0.21612 8.69591C0.378864 9.14353 0.631258 9.55323 0.957849 9.89992C1.28444 10.2466 1.67835 10.523 2.11547 10.7121C2.55259 10.9013 3.02372 10.9992 3.50001 11H13C13.7611 11.0009 14.4941 10.7124 15.0505 10.1931C15.6069 9.67371 15.9451 8.9623 15.9966 8.20294C16.0481 7.44357 15.809 6.69302 15.3278 6.10332C14.8466 5.51362 14.1593 5.12886 13.405 5.02698ZM8.50001 1.99998C9.48397 1.99978 10.4335 2.36225 11.167 3.0181C11.9005 3.67394 12.3665 4.57714 12.476 5.55498C12.4896 5.67784 12.5482 5.79131 12.6406 5.87349C12.7329 5.95567 12.8524 6.00073 12.976 5.99998H13C13.5304 5.99998 14.0392 6.2107 14.4142 6.58577C14.7893 6.96084 15 7.46955 15 7.99998C15 8.53042 14.7893 9.03912 14.4142 9.4142C14.0392 9.78927 13.5304 9.99998 13 9.99998H3.50001C3.14609 9.99981 2.79623 9.92448 2.47359 9.779C2.15095 9.63351 1.86288 9.42118 1.62843 9.15604C1.39398 8.8909 1.2185 8.57901 1.1136 8.24098C1.00869 7.90296 0.976758 7.54652 1.0199 7.19523C1.06305 6.84394 1.18029 6.50582 1.36387 6.20323C1.54745 5.90064 1.79319 5.64048 2.08483 5.43995C2.37647 5.23943 2.70736 5.10311 3.05562 5.04002C3.40388 4.97693 3.76156 4.98851 4.10501 5.07398C4.22754 5.10455 4.3571 5.08761 4.46765 5.02658C4.57821 4.96555 4.66158 4.86495 4.70101 4.74498C4.96529 3.94616 5.47463 3.25095 6.15663 2.75816C6.83863 2.26538 7.65861 2.00008 8.50001 1.99998Z" fill="black"/>
</g>
<defs>
<clipPath id="clip0_104_1384">
<rect width="16" height="16" fill="white"/>
</clipPath>
</defs>
</svg>
