<svg width="16" height="16" viewBox="0 0 16 16" fill="none" xmlns="http://www.w3.org/2000/svg">
<path d="M8 2C6.68024 2.00414 5.40548 2.48014 4.406 3.342C3.64 4.002 3.085 4.862 2.942 5.725C1.266 6.095 0 7.555 0 9.318C0 11.366 1.708 13 3.781 13H12.687C14.502 13 16 11.57 16 9.773C16 8.137 14.758 6.804 13.166 6.579C12.923 3.999 10.69 2 8 2ZM8.5 6V7.5H10C10.1326 7.5 10.2598 7.55268 10.3536 7.64645C10.4473 7.74021 10.5 7.86739 10.5 8C10.5 8.13261 10.4473 8.25979 10.3536 8.35355C10.2598 8.44732 10.1326 8.5 10 8.5H8.5V10C8.5 10.1326 8.44732 10.2598 8.35355 10.3536C8.25979 10.4473 8.13261 10.5 8 10.5C7.86739 10.5 7.74021 10.4473 7.64645 10.3536C7.55268 10.2598 7.5 10.1326 7.5 10V8.5H6C5.86739 8.5 5.74021 8.44732 5.64645 8.35355C5.55268 8.25979 5.5 8.13261 5.5 8C5.5 7.86739 5.55268 7.74021 5.64645 7.64645C5.74021 7.55268 5.86739 7.5 6 7.5H7.5V6C7.5 5.86739 7.55268 5.74021 7.64645 5.64645C7.74021 5.55268 7.86739 5.5 8 5.5C8.13261 5.5 8.25979 5.55268 8.35355 5.64645C8.44732 5.74021 8.5 5.86739 8.5 6Z" fill="black"/>
</svg>
