<svg width="16" height="16" viewBox="0 0 16 16" xmlns="http://www.w3.org/2000/svg" fill='currentColor'><g clip-path="url(#clip0_104_1422)"><path d="M13.405 8.52698C13.1973 7.48015 12.6602 6.52719 11.8722 5.80746C11.0842 5.08773 10.0866 4.63897 9.02524 4.52679C7.96392 4.41462 6.89454 4.64491 5.97346 5.18399C5.05239 5.72308 4.32792 6.54269 3.906 7.52298C3.43284 7.46847 2.95353 7.51111 2.49742 7.64829C2.04131 7.78547 1.618 8.01429 1.2534 8.32076C0.888799 8.62723 0.590587 9.00488 0.377021 9.43061C0.163455 9.85634 0.0390286 10.3212 0.0113594 10.7967C-0.0163097 11.2721 0.0533608 11.7483 0.216105 12.1959C0.37885 12.6435 0.631244 13.0532 0.957834 13.3999C1.28443 13.7466 1.67834 14.023 2.11546 14.2121C2.55258 14.4013 3.02371 14.4992 3.5 14.5H13C13.7611 14.5009 14.4941 14.2124 15.0505 13.6931C15.6069 13.1737 15.9451 12.4623 15.9966 11.7029C16.048 10.9436 15.809 10.193 15.3278 9.60332C14.8466 9.01362 14.1593 8.62886 13.405 8.52698ZM8.5 5.49998C9.48396 5.49978 10.4335 5.86225 11.167 6.5181C11.9005 7.17394 12.3665 8.07714 12.476 9.05498C12.4896 9.17784 12.5482 9.29131 12.6406 9.37349C12.7329 9.45567 12.8524 9.50073 12.976 9.49998H13C13.5304 9.50012 14.0391 9.71096 14.4141 10.0861C14.789 10.4613 14.9996 10.9701 14.9995 11.5005C14.9994 12.0309 14.7885 12.5396 14.4134 12.9146C14.0382 13.2895 13.5294 13.5001 12.999 13.5H3.5C3.14607 13.4998 2.79622 13.4245 2.47358 13.279C2.15094 13.1335 1.86286 12.9212 1.62841 12.656C1.39397 12.3909 1.21849 12.079 1.11358 11.741C1.00868 11.403 0.976743 11.0465 1.01989 10.6952C1.06303 10.3439 1.18027 10.0058 1.36386 9.70323C1.54744 9.40064 1.79318 9.14048 2.08482 8.93995C2.37646 8.73943 2.70735 8.60311 3.05561 8.54002C3.40387 8.47693 3.76155 8.48851 4.105 8.57398C4.22753 8.60455 4.35708 8.58761 4.46764 8.52658C4.5782 8.46555 4.66157 8.36495 4.701 8.24498C4.96528 7.44616 5.47462 6.75095 6.15662 6.25816C6.83862 5.76538 7.65859 5.50008 8.5 5.49998Z"/></g><defs><clipPath id="clip0_104_1422"><rect width="16" height="16"/></clipPath></defs></svg>