<svg width="16" height="16" viewBox="0 0 16 16" fill="none" xmlns="http://www.w3.org/2000/svg">
<g clip-path="url(#clip0_104_1344)">
<path d="M8.49998 3C9.65724 3.00005 10.7787 3.40146 11.6731 4.13578C12.5675 4.87011 13.1796 5.8919 13.405 7.027C14.1592 7.12888 14.8466 7.51364 15.3278 8.10334C15.809 8.69303 16.048 9.44359 15.9965 10.203C15.945 10.9623 15.6069 11.6737 15.0505 12.1931C14.4941 12.7124 13.7611 13.0009 13 13H11.5C11.6326 13 11.7598 12.9473 11.8535 12.8536C11.9473 12.7598 12 12.6326 12 12.5C12 12.3674 11.9473 12.2402 11.8535 12.1464C11.7598 12.0527 11.6326 12 11.5 12H1.04998C0.75539 11.7112 0.514029 11.3726 0.33698 11H9.49998C9.63259 11 9.75977 10.9473 9.85353 10.8536C9.9473 10.7598 9.99998 10.6326 9.99998 10.5C9.99998 10.3674 9.9473 10.2402 9.85353 10.1464C9.75977 10.0527 9.63259 10 9.49998 10H0.0349798C-0.0124737 9.66836 -0.0124737 9.33164 0.0349798 9H7.49998C7.63259 9 7.75977 8.94732 7.85353 8.85355C7.9473 8.75979 7.99998 8.63261 7.99998 8.5C7.99998 8.36739 7.9473 8.24021 7.85353 8.14645C7.75977 8.05268 7.63259 8 7.49998 8H0.33698C0.650547 7.33852 1.16363 6.792 1.80403 6.43736C2.44443 6.08272 3.17991 5.9378 3.90698 6.023C4.29348 5.12548 4.93447 4.36086 5.75073 3.82362C6.567 3.28637 7.52278 3.00004 8.49998 3Z" fill="black"/>
</g>
<defs>
<clipPath id="clip0_104_1344">
<rect width="16" height="16" fill="white"/>
</clipPath>
</defs>
</svg>
