<svg width="16" height="16" viewBox="0 0 16 16" xmlns="http://www.w3.org/2000/svg" fill='currentColor'><g clip-path="url(#clip0_104_1390)"><path d="M4.17601 11.032C4.29989 11.0787 4.4002 11.1726 4.45494 11.2931C4.50968 11.4137 4.51438 11.551 4.46801 11.675L2.96801 15.675C2.9182 15.7944 2.82405 15.8898 2.70534 15.9412C2.58664 15.9927 2.45262 15.9961 2.33145 15.9508C2.21028 15.9055 2.11139 15.8149 2.05555 15.6983C1.99971 15.5816 1.99128 15.4478 2.03201 15.325L3.53201 11.325C3.55503 11.2634 3.58995 11.207 3.63478 11.159C3.67961 11.1109 3.73347 11.0722 3.79328 11.045C3.85309 11.0178 3.91768 11.0026 3.98335 11.0004C4.04903 10.9982 4.11449 11.0089 4.17601 11.032ZM7.17601 11.032C7.29989 11.0787 7.4002 11.1726 7.45494 11.2931C7.50968 11.4137 7.51438 11.551 7.46801 11.675L5.96801 15.675C5.9182 15.7944 5.82405 15.8898 5.70534 15.9412C5.58664 15.9927 5.45262 15.9961 5.33145 15.9508C5.21028 15.9055 5.11139 15.8149 5.05555 15.6983C4.99971 15.5816 4.99128 15.4478 5.03201 15.325L6.53201 11.325C6.55503 11.2634 6.58995 11.207 6.63478 11.159C6.67961 11.1109 6.73347 11.0722 6.79328 11.045C6.85309 11.0178 6.91768 11.0026 6.98335 11.0004C7.04903 10.9982 7.11449 11.0089 7.17601 11.032ZM10.176 11.032C10.2999 11.0787 10.4002 11.1726 10.4549 11.2931C10.5097 11.4137 10.5144 11.551 10.468 11.675L8.96801 15.675C8.9182 15.7944 8.82405 15.8898 8.70534 15.9412C8.58664 15.9927 8.45262 15.9961 8.33145 15.9508C8.21028 15.9055 8.11139 15.8149 8.05555 15.6983C7.99971 15.5816 7.99128 15.4478 8.03201 15.325L9.53201 11.325C9.55503 11.2634 9.58995 11.207 9.63478 11.159C9.67961 11.1109 9.73347 11.0722 9.79328 11.045C9.85309 11.0178 9.91768 11.0026 9.98335 11.0004C10.049 10.9982 10.1145 11.0089 10.176 11.032ZM13.176 11.032C13.2999 11.0787 13.4002 11.1726 13.4549 11.2931C13.5097 11.4137 13.5144 11.551 13.468 11.675L11.968 15.675C11.9182 15.7944 11.824 15.8898 11.7053 15.9412C11.5866 15.9927 11.4526 15.9961 11.3315 15.9508C11.2103 15.9055 11.1114 15.8149 11.0556 15.6983C10.9997 15.5816 10.9913 15.4478 11.032 15.325L12.532 11.325C12.555 11.2634 12.5899 11.207 12.6348 11.159C12.6796 11.1109 12.7335 11.0722 12.7933 11.045C12.8531 11.0178 12.9177 11.0026 12.9834 11.0004C13.049 10.9982 13.1145 11.0089 13.176 11.032ZM13.405 4.02698C13.1973 2.98015 12.6602 2.02719 11.8722 1.30746C11.0842 0.587731 10.0866 0.13897 9.02526 0.0267924C7.96393 -0.0853848 6.89455 0.144906 5.97348 0.683993C5.0524 1.22308 4.32794 2.04269 3.90601 3.02298C3.43285 2.96848 2.95354 3.01111 2.49743 3.14829C2.04132 3.28547 1.61801 3.51429 1.25341 3.82076C0.888813 4.12723 0.590602 4.50488 0.377036 4.93061C0.16347 5.35634 0.0390429 5.82118 0.0113738 6.29666C-0.0162954 6.77215 0.0533751 7.24828 0.21612 7.69591C0.378864 8.14353 0.631258 8.55323 0.957849 8.89992C1.28444 9.24661 1.67835 9.52299 2.11547 9.71214C2.55259 9.9013 3.02372 9.99924 3.50001 9.99998H13C13.7611 10.0009 14.4941 9.7124 15.0505 9.19306C15.6069 8.67371 15.9451 7.9623 15.9966 7.20294C16.0481 6.44357 15.809 5.69302 15.3278 5.10332C14.8466 4.51362 14.1593 4.12886 13.405 4.02698Z"/></g><defs><clipPath id="clip0_104_1390"><rect width="16" height="16"/></clipPath></defs></svg>