<svg width="16" height="16" viewBox="0 0 16 16" xmlns="http://www.w3.org/2000/svg" fill='currentColor'><g clip-path="url(#clip0_104_1409)"><path d="M2.62498 11.5C2.69129 11.5 2.75488 11.5263 2.80176 11.5732C2.84864 11.6201 2.87498 11.6837 2.87498 11.75V12.32L3.37598 12.033C3.43341 12.0019 3.5007 11.9946 3.56348 12.0125C3.62625 12.0304 3.67952 12.0722 3.71191 12.1289C3.7443 12.1856 3.75323 12.2527 3.7368 12.3158C3.72037 12.379 3.67988 12.4333 3.62398 12.467L3.12898 12.75L3.62398 13.033C3.67988 13.0667 3.72037 13.1209 3.7368 13.1841C3.75323 13.2473 3.7443 13.3144 3.71191 13.3711C3.67952 13.4278 3.62625 13.4695 3.56348 13.4874C3.5007 13.5054 3.43341 13.498 3.37598 13.467L2.87498 13.181V13.75C2.87498 13.8163 2.84864 13.8799 2.80176 13.9268C2.75488 13.9736 2.69129 14 2.62498 14C2.55868 14 2.49509 13.9736 2.44821 13.9268C2.40132 13.8799 2.37498 13.8163 2.37498 13.75V13.18L1.87398 13.467C1.81655 13.498 1.74926 13.5054 1.68649 13.4874C1.62372 13.4695 1.57045 13.4278 1.53806 13.3711C1.50567 13.3144 1.49674 13.2473 1.51317 13.1841C1.5296 13.1209 1.57009 13.0667 1.62598 13.033L2.12098 12.75L1.62598 12.467C1.57009 12.4333 1.5296 12.379 1.51317 12.3158C1.49674 12.2527 1.50567 12.1856 1.53806 12.1289C1.57045 12.0722 1.62372 12.0304 1.68649 12.0125C1.74926 11.9946 1.81655 12.0019 1.87398 12.033L2.37498 12.319V11.75C2.37498 11.6837 2.40132 11.6201 2.44821 11.5732C2.49509 11.5263 2.55868 11.5 2.62498 11.5ZM5.37498 13.5C5.44129 13.5 5.50488 13.5263 5.55176 13.5732C5.59864 13.6201 5.62498 13.6837 5.62498 13.75V14.32L6.12498 14.033C6.18254 14 6.25085 13.9912 6.31489 14.0085C6.37893 14.0259 6.43346 14.0679 6.46648 14.1255C6.4995 14.183 6.50831 14.2513 6.49096 14.3154C6.47361 14.3794 6.43154 14.434 6.37398 14.467L5.87898 14.75L6.37398 15.033C6.42988 15.0667 6.47037 15.1209 6.4868 15.1841C6.50323 15.2473 6.4943 15.3144 6.46191 15.3711C6.42952 15.4278 6.37625 15.4695 6.31348 15.4874C6.2507 15.5054 6.18341 15.498 6.12598 15.467L5.62498 15.181V15.75C5.62498 15.8163 5.59864 15.8799 5.55176 15.9268C5.50488 15.9736 5.44129 16 5.37498 16C5.30868 16 5.24509 15.9736 5.19821 15.9268C5.15132 15.8799 5.12498 15.8163 5.12498 15.75V15.18L4.62398 15.467C4.56655 15.498 4.49926 15.5054 4.43649 15.4874C4.37372 15.4695 4.32045 15.4278 4.28806 15.3711C4.25567 15.3144 4.24674 15.2473 4.26317 15.1841C4.2796 15.1209 4.32009 15.0667 4.37598 15.033L4.87098 14.75L4.37598 14.467C4.32009 14.4333 4.2796 14.379 4.26317 14.3158C4.24674 14.2527 4.25567 14.1856 4.28806 14.1289C4.32045 14.0722 4.37372 14.0304 4.43649 14.0125C4.49926 13.9946 4.56655 14.0019 4.62398 14.033L5.12498 14.319V13.75C5.12498 13.6837 5.15132 13.6201 5.19821 13.5732C5.24509 13.5263 5.30868 13.5 5.37498 13.5ZM10.875 13.5C10.9413 13.5 11.0049 13.5263 11.0518 13.5732C11.0986 13.6201 11.125 13.6837 11.125 13.75V14.32L11.625 14.033C11.6535 14.0166 11.6849 14.0061 11.7175 14.0019C11.7501 13.9977 11.7832 13.9999 11.8149 14.0085C11.8466 14.0171 11.8763 14.0318 11.9023 14.0519C11.9283 14.072 11.9501 14.097 11.9665 14.1255C11.9828 14.154 11.9934 14.1854 11.9976 14.218C12.0018 14.2506 11.9996 14.2837 11.991 14.3154C11.9824 14.3471 11.9676 14.3768 11.9475 14.4028C11.9275 14.4288 11.9025 14.4506 11.874 14.467L11.379 14.75L11.874 15.033C11.9299 15.0667 11.9704 15.1209 11.9868 15.1841C12.0032 15.2473 11.9943 15.3144 11.9619 15.3711C11.9295 15.4278 11.8762 15.4695 11.8135 15.4874C11.7507 15.5054 11.6834 15.498 11.626 15.467L11.125 15.181V15.75C11.125 15.8163 11.0986 15.8799 11.0518 15.9268C11.0049 15.9736 10.9413 16 10.875 16C10.8087 16 10.7451 15.9736 10.6982 15.9268C10.6513 15.8799 10.625 15.8163 10.625 15.75V15.18L10.124 15.467C10.0666 15.498 9.99926 15.5054 9.93649 15.4874C9.87372 15.4695 9.82045 15.4278 9.78806 15.3711C9.75567 15.3144 9.74674 15.2473 9.76317 15.1841C9.7796 15.1209 9.82009 15.0667 9.87598 15.033L10.371 14.75L9.87598 14.467C9.82009 14.4333 9.7796 14.379 9.76317 14.3158C9.74674 14.2527 9.75567 14.1856 9.78806 14.1289C9.82045 14.0722 9.87372 14.0304 9.93649 14.0125C9.99926 13.9946 10.0666 14.0019 10.124 14.033L10.625 14.319V13.75C10.625 13.6837 10.6513 13.6201 10.6982 13.5732C10.7451 13.5263 10.8087 13.5 10.875 13.5ZM8.12498 11.5C8.19129 11.5 8.25488 11.5263 8.30176 11.5732C8.34865 11.6201 8.37498 11.6837 8.37498 11.75V12.32L8.87498 12.033C8.93254 12 9.00085 11.9912 9.06489 12.0085C9.12893 12.0259 9.18347 12.0679 9.21648 12.1255C9.2495 12.183 9.25831 12.2513 9.24096 12.3154C9.22361 12.3794 9.18154 12.434 9.12398 12.467L8.62898 12.75L9.12398 13.033C9.17988 13.0667 9.22037 13.1209 9.2368 13.1841C9.25323 13.2473 9.2443 13.3144 9.21191 13.3711C9.17952 13.4278 9.12625 13.4695 9.06348 13.4874C9.0007 13.5054 8.93341 13.498 8.87598 13.467L8.37498 13.181V13.75C8.37498 13.8163 8.34865 13.8799 8.30176 13.9268C8.25488 13.9736 8.19129 14 8.12498 14C8.05868 14 7.99509 13.9736 7.94821 13.9268C7.90132 13.8799 7.87498 13.8163 7.87498 13.75V13.18L7.37398 13.467C7.31655 13.498 7.24926 13.5054 7.18649 13.4874C7.12372 13.4695 7.07045 13.4278 7.03806 13.3711C7.00567 13.3144 6.99674 13.2473 7.01317 13.1841C7.0296 13.1209 7.07009 13.0667 7.12598 13.033L7.62098 12.75L7.12598 12.467C7.07009 12.4333 7.0296 12.379 7.01317 12.3158C6.99674 12.2527 7.00567 12.1856 7.03806 12.1289C7.07045 12.0722 7.12372 12.0304 7.18649 12.0125C7.24926 11.9946 7.31655 12.0019 7.37398 12.033L7.87498 12.319V11.75C7.87498 11.6837 7.90132 11.6201 7.94821 11.5732C7.99509 11.5263 8.05868 11.5 8.12498 11.5ZM13.625 11.5C13.6913 11.5 13.7549 11.5263 13.8018 11.5732C13.8486 11.6201 13.875 11.6837 13.875 11.75V12.32L14.375 12.033C14.4325 12 14.5008 11.9912 14.5649 12.0085C14.6289 12.0259 14.6835 12.0679 14.7165 12.1255C14.7495 12.183 14.7583 12.2513 14.741 12.3154C14.7236 12.3794 14.6815 12.434 14.624 12.467L14.129 12.75L14.624 13.033C14.6799 13.0667 14.7204 13.1209 14.7368 13.1841C14.7532 13.2473 14.7443 13.3144 14.7119 13.3711C14.6795 13.4278 14.6262 13.4695 14.5635 13.4874C14.5007 13.5054 14.4334 13.498 14.376 13.467L13.875 13.181V13.75C13.875 13.8163 13.8486 13.8799 13.8018 13.9268C13.7549 13.9736 13.6913 14 13.625 14C13.5587 14 13.4951 13.9736 13.4482 13.9268C13.4013 13.8799 13.375 13.8163 13.375 13.75V13.18L12.874 13.467C12.8454 13.4842 12.8138 13.4955 12.7808 13.5003C12.7478 13.5051 12.7142 13.5033 12.6819 13.4949C12.6497 13.4865 12.6194 13.4717 12.5929 13.4515C12.5665 13.4312 12.5443 13.4059 12.5278 13.377C12.5113 13.348 12.5007 13.3161 12.4967 13.283C12.4927 13.2499 12.4953 13.2163 12.5045 13.1843C12.5136 13.1522 12.5291 13.1223 12.5499 13.0964C12.5708 13.0704 12.5967 13.0488 12.626 13.033L13.121 12.75L12.626 12.467C12.5701 12.4333 12.5296 12.379 12.5132 12.3158C12.4967 12.2527 12.5057 12.1856 12.5381 12.1289C12.5704 12.0722 12.6237 12.0304 12.6865 12.0125C12.7493 11.9946 12.8166 12.0019 12.874 12.033L13.375 12.319V11.75C13.375 11.6837 13.4013 11.6201 13.4482 11.5732C13.4951 11.5263 13.5587 11.5 13.625 11.5ZM13.405 4.27698C13.1973 3.23015 12.6602 2.27719 11.8722 1.55746C11.0842 0.837731 10.0866 0.38897 9.02523 0.276792C7.9639 0.164615 6.89452 0.394906 5.97345 0.933993C5.05237 1.47308 4.32791 2.29269 3.90598 3.27298C3.43282 3.21848 2.95351 3.26111 2.4974 3.39829C2.04129 3.53547 1.61798 3.76429 1.25338 4.07076C0.888782 4.37723 0.590571 4.75488 0.377005 5.18061C0.163439 5.60634 0.0390124 6.07118 0.0113432 6.54666C-0.0163259 7.02215 0.0533446 7.49828 0.216089 7.94591C0.378834 8.39353 0.631228 8.80323 0.957818 9.14992C1.28441 9.49661 1.67832 9.77299 2.11544 9.96214C2.55256 10.1513 3.02369 10.2492 3.49998 10.25H13C13.7611 10.2509 14.4941 9.9624 15.0505 9.44306C15.6069 8.92371 15.9451 8.2123 15.9965 7.45294C16.048 6.69357 15.809 5.94302 15.3278 5.35332C14.8466 4.76362 14.1592 4.37886 13.405 4.27698Z"/></g><defs><clipPath id="clip0_104_1409"><rect width="16" height="16"/></clipPath></defs></svg>