<svg width="16" height="16" viewBox="0 0 16 16" fill="none" xmlns="http://www.w3.org/2000/svg">
<path fill-rule="evenodd" clip-rule="evenodd" d="M8 5.5C8.13261 5.5 8.25979 5.55268 8.35355 5.64645C8.44732 5.74021 8.5 5.86739 8.5 6V7.5H10C10.1326 7.5 10.2598 7.55268 10.3536 7.64645C10.4473 7.74021 10.5 7.86739 10.5 8C10.5 8.13261 10.4473 8.25979 10.3536 8.35355C10.2598 8.44732 10.1326 8.5 10 8.5H8.5V10C8.5 10.1326 8.44732 10.2598 8.35355 10.3536C8.25979 10.4473 8.13261 10.5 8 10.5C7.86739 10.5 7.74021 10.4473 7.64645 10.3536C7.55268 10.2598 7.5 10.1326 7.5 10V8.5H6C5.86739 8.5 5.74021 8.44732 5.64645 8.35355C5.55268 8.25979 5.5 8.13261 5.5 8C5.5 7.86739 5.55268 7.74021 5.64645 7.64645C5.74021 7.55268 5.86739 7.5 6 7.5H7.5V6C7.5 5.86739 7.55268 5.74021 7.64645 5.64645C7.74021 5.55268 7.86739 5.5 8 5.5Z" fill="black"/>
<path d="M4.406 3.342C5.40548 2.48014 6.68024 2.00414 8 2C10.69 2 12.923 4 13.166 6.579C14.758 6.804 16 8.137 16 9.773C16 11.569 14.502 13 12.687 13H3.781C1.708 13 0 11.366 0 9.318C0 7.555 1.266 6.095 2.942 5.725C3.085 4.862 3.64 4.002 4.406 3.342ZM5.059 4.099C4.302 4.752 3.906 5.539 3.906 6.155V6.603L3.461 6.652C2.064 6.805 1 7.952 1 9.318C1 10.785 2.23 12 3.781 12H12.687C13.98 12 15 10.988 15 9.773C15 8.557 13.98 7.545 12.687 7.545H12.187V7.045C12.188 4.825 10.328 3 8 3C6.91988 3.00431 5.87684 3.39443 5.059 4.1V4.099Z" fill="black"/>
</svg>
