<svg width="16" height="16" viewBox="0 0 16 16" fill="none" xmlns="http://www.w3.org/2000/svg">
<g clip-path="url(#clip0_104_1424)">
<path d="M13.405 7.02698C13.1973 5.98015 12.6602 5.02719 11.8722 4.30746C11.0842 3.58773 10.0866 3.13897 9.02524 3.02679C7.96392 2.91462 6.89454 3.14491 5.97346 3.68399C5.05239 4.22308 4.32792 5.04269 3.906 6.02298C3.43284 5.96847 2.95353 6.01111 2.49742 6.14829C2.04131 6.28547 1.61799 6.51429 1.2534 6.82076C0.888798 7.12723 0.590586 7.50488 0.37702 7.93061C0.163454 8.35634 0.0390277 8.82118 0.0113585 9.29666C-0.0163107 9.77215 0.0533598 10.2483 0.216104 10.6959C0.378849 11.1435 0.631243 11.5532 0.957834 11.8999C1.28442 12.2466 1.67834 12.523 2.11546 12.7121C2.55258 12.9013 3.02371 12.9992 3.5 13H13C13.7611 13.0009 14.4941 12.7124 15.0505 12.1931C15.6069 11.6737 15.9451 10.9623 15.9966 10.2029C16.048 9.44357 15.809 8.69302 15.3278 8.10332C14.8466 7.51362 14.1593 7.12886 13.405 7.02698Z" fill="black"/>
</g>
<defs>
<clipPath id="clip0_104_1424">
<rect width="16" height="16" fill="white"/>
</clipPath>
</defs>
</svg>
