<svg width="16" height="16" viewBox="0 0 16 16" fill="none" xmlns="http://www.w3.org/2000/svg">
<g clip-path="url(#clip0_104_1364)">
<path d="M2.658 11.026C2.78365 11.068 2.88751 11.1581 2.94676 11.2766C3.00601 11.3951 3.0158 11.5323 2.974 11.658L2.474 13.158C2.45517 13.2226 2.4235 13.2827 2.3809 13.3347C2.3383 13.3867 2.28563 13.4297 2.22605 13.4609C2.16648 13.4921 2.10122 13.511 2.03418 13.5164C1.96713 13.5218 1.89969 13.5136 1.83589 13.4923C1.77208 13.4711 1.71322 13.4371 1.66283 13.3926C1.61244 13.348 1.57156 13.2938 1.54262 13.2331C1.51369 13.1723 1.49731 13.1064 1.49445 13.0392C1.49159 12.972 1.50233 12.9049 1.526 12.842L2.026 11.342C2.06799 11.2163 2.15812 11.1125 2.27662 11.0532C2.39512 10.994 2.53228 10.9842 2.658 11.026ZM12.158 11.026C12.2837 11.068 12.3875 11.1581 12.4468 11.2766C12.506 11.3951 12.5158 11.5323 12.474 11.658L11.974 13.158C11.9552 13.2226 11.9235 13.2827 11.8809 13.3347C11.8383 13.3867 11.7856 13.4297 11.7261 13.4609C11.6665 13.4921 11.6012 13.511 11.5342 13.5164C11.4671 13.5218 11.3997 13.5136 11.3359 13.4923C11.2721 13.4711 11.2132 13.4371 11.1628 13.3926C11.1124 13.348 11.0716 13.2938 11.0426 13.2331C11.0137 13.1723 10.9973 13.1064 10.9945 13.0392C10.9916 12.972 11.0023 12.9049 11.026 12.842L11.526 11.342C11.568 11.2163 11.6581 11.1125 11.7766 11.0532C11.8951 10.994 12.0323 10.9842 12.158 11.026ZM4.658 12.526C4.78365 12.568 4.88751 12.6581 4.94676 12.7766C5.00601 12.8951 5.0158 13.0323 4.974 13.158L4.474 14.658C4.45517 14.7226 4.4235 14.7827 4.3809 14.8347C4.33829 14.8867 4.28563 14.9297 4.22605 14.9609C4.16648 14.9921 4.10122 15.011 4.03418 15.0164C3.96713 15.0218 3.89969 15.0136 3.83589 14.9923C3.77208 14.9711 3.71322 14.9371 3.66283 14.8926C3.61244 14.848 3.57156 14.7938 3.54262 14.7331C3.51369 14.6723 3.49731 14.6064 3.49445 14.5392C3.49159 14.472 3.50233 14.4049 3.526 14.342L4.026 12.842C4.06799 12.7163 4.15812 12.6125 4.27662 12.5532C4.39512 12.494 4.53228 12.4842 4.658 12.526ZM14.158 12.526C14.2837 12.568 14.3875 12.6581 14.4468 12.7766C14.506 12.8951 14.5158 13.0323 14.474 13.158L13.974 14.658C13.9552 14.7226 13.9235 14.7827 13.8809 14.8347C13.8383 14.8867 13.7856 14.9297 13.7261 14.9609C13.6665 14.9921 13.6012 15.011 13.5342 15.0164C13.4671 15.0218 13.3997 15.0136 13.3359 14.9923C13.2721 14.9711 13.2132 14.9371 13.1628 14.8926C13.1124 14.848 13.0716 14.7938 13.0426 14.7331C13.0137 14.6723 12.9973 14.6064 12.9945 14.5392C12.9916 14.472 13.0023 14.4049 13.026 14.342L13.526 12.842C13.568 12.7163 13.6581 12.6125 13.7766 12.5532C13.8951 12.494 14.0323 12.4842 14.158 12.526ZM13.405 4.02698C13.1973 2.98015 12.6602 2.02719 11.8722 1.30746C11.0842 0.587731 10.0866 0.13897 9.02524 0.0267924C7.96392 -0.0853848 6.89454 0.144906 5.97346 0.683993C5.05239 1.22308 4.32792 2.04269 3.906 3.02298C3.43284 2.96848 2.95353 3.01111 2.49742 3.14829C2.04131 3.28547 1.618 3.51429 1.2534 3.82076C0.888799 4.12723 0.590587 4.50488 0.377021 4.93061C0.163455 5.35634 0.0390286 5.82118 0.0113594 6.29666C-0.0163097 6.77215 0.0533608 7.24828 0.216105 7.69591C0.37885 8.14353 0.631244 8.55323 0.957834 8.89992C1.28443 9.24661 1.67834 9.52299 2.11546 9.71214C2.55258 9.9013 3.02371 9.99924 3.5 9.99998H13C13.7611 10.0009 14.4941 9.7124 15.0505 9.19306C15.6069 8.67371 15.9451 7.9623 15.9966 7.20294C16.048 6.44357 15.809 5.69302 15.3278 5.10332C14.8466 4.51362 14.1593 4.12886 13.405 4.02698ZM8.5 0.999984C9.48396 0.99978 10.4335 1.36225 11.167 2.0181C11.9005 2.67394 12.3665 3.57714 12.476 4.55498C12.4896 4.67784 12.5482 4.79131 12.6406 4.87349C12.7329 4.95567 12.8524 5.00073 12.976 4.99998H13C13.5304 4.99998 14.0391 5.2107 14.4142 5.58577C14.7893 5.96084 15 6.46955 15 6.99998C15 7.53042 14.7893 8.03912 14.4142 8.4142C14.0391 8.78927 13.5304 8.99998 13 8.99998H3.5C3.14607 8.99981 2.79622 8.92448 2.47358 8.779C2.15094 8.63351 1.86286 8.42118 1.62841 8.15604C1.39397 7.8909 1.21849 7.57901 1.11358 7.24098C1.00868 6.90296 0.976743 6.54652 1.01989 6.19523C1.06303 5.84394 1.18027 5.50582 1.36386 5.20323C1.54744 4.90064 1.79318 4.64048 2.08482 4.43995C2.37646 4.23943 2.70735 4.10311 3.05561 4.04002C3.40387 3.97693 3.76155 3.98851 4.105 4.07398C4.22753 4.10455 4.35708 4.08761 4.46764 4.02658C4.5782 3.96555 4.66157 3.86495 4.701 3.74498C4.96528 2.94616 5.47462 2.25095 6.15662 1.75816C6.83862 1.26538 7.65859 1.00008 8.5 0.999984ZM7.053 11.276C7.09456 11.193 7.15839 11.1233 7.23733 11.0745C7.31627 11.0258 7.40722 11 7.5 11H8.5C8.57918 11 8.65722 11.0189 8.72769 11.055C8.79815 11.0911 8.85903 11.1435 8.90532 11.2077C8.9516 11.272 8.98196 11.3463 8.9939 11.4246C9.00584 11.5029 8.99902 11.5829 8.974 11.658L8.694 12.5H9.5C9.59408 12.5001 9.68622 12.5268 9.76583 12.5769C9.84543 12.6271 9.90926 12.6987 9.95 12.7835C9.99073 12.8683 10.0067 12.9629 9.9961 13.0564C9.98548 13.1499 9.94871 13.2385 9.89 13.312L7.89 15.812C7.81864 15.9006 7.71918 15.9623 7.60804 15.9868C7.49691 16.0112 7.38075 15.9971 7.27876 15.9466C7.17676 15.8961 7.09504 15.8124 7.04708 15.7092C6.99913 15.606 6.98781 15.4895 7.015 15.379L7.36 14H6.5C6.41474 14 6.33089 13.9782 6.25643 13.9366C6.18197 13.8951 6.11936 13.8352 6.07457 13.7627C6.02978 13.6901 6.00428 13.6073 6.00051 13.5221C5.99673 13.4369 6.0148 13.3522 6.053 13.276L7.053 11.276Z" fill="black"/>
</g>
<defs>
<clipPath id="clip0_104_1364">
<rect width="16" height="16" fill="white"/>
</clipPath>
</defs>
</svg>
