<svg width="16" height="16" viewBox="0 0 16 16" fill="none" xmlns="http://www.w3.org/2000/svg">
<g clip-path="url(#clip0_104_1411)">
<path d="M6.99999 8.00003C7.46429 7.99997 7.92395 8.09229 8.35221 8.27161C8.78048 8.45093 9.16878 8.71367 9.49452 9.04452C9.82025 9.37538 10.0769 9.76773 10.2495 10.1987C10.4221 10.6297 10.5073 11.0908 10.5 11.555C10.4988 11.6319 10.5154 11.708 10.5484 11.7774C10.5814 11.8468 10.63 11.9077 10.6904 11.9553C10.7507 12.0029 10.8212 12.0359 10.8965 12.0518C10.9717 12.0677 11.0495 12.0661 11.124 12.047C11.3457 11.9902 11.5775 11.9848 11.8016 12.0312C12.0258 12.0776 12.2364 12.1746 12.4173 12.3147C12.5983 12.4549 12.7449 12.6345 12.8458 12.84C12.9468 13.0454 12.9995 13.2711 13 13.5C13 13.8979 12.842 14.2794 12.5607 14.5607C12.2794 14.842 11.8978 15 11.5 15H2.99999C2.7341 14.9985 2.47117 14.944 2.22659 14.8397C1.98201 14.7354 1.76068 14.5833 1.57557 14.3924C1.39045 14.2016 1.24525 13.9757 1.14847 13.728C1.05169 13.4803 1.00527 13.2159 1.01192 12.9501C1.01856 12.6842 1.07815 12.4224 1.18719 12.1799C1.29624 11.9374 1.45254 11.719 1.64697 11.5377C1.8414 11.3563 2.07005 11.2155 2.31954 11.1235C2.56903 11.0315 2.83435 10.9902 3.09999 11.002C3.21522 11.008 3.32894 10.9739 3.4219 10.9055C3.51485 10.8372 3.5813 10.7388 3.60999 10.627C3.80396 9.87534 4.24219 9.20941 4.85582 8.7339C5.46945 8.25838 6.22369 8.00023 6.99999 8.00003ZM11.473 11C11.3605 9.98617 10.9068 9.04061 10.1865 8.31839C9.46606 7.59617 8.52166 7.14014 7.50808 7.02507C6.49451 6.91 5.47191 7.14271 4.60795 7.68505C3.74398 8.2274 3.08992 9.04719 2.75299 10.01C1.98093 10.0732 1.26325 10.4326 0.750158 11.013C0.237071 11.5933 -0.0316394 12.3496 0.000276121 13.1236C0.0321917 13.8976 0.362258 14.6293 0.921385 15.1654C1.48051 15.7015 2.22535 16.0006 2.99999 16H11.5C12.163 16 12.7989 15.7366 13.2678 15.2678C13.7366 14.799 14 14.1631 14 13.5C14 12.837 13.7366 12.2011 13.2678 11.7323C12.7989 11.2634 12.163 11 11.5 11H11.473Z" fill="black"/>
<path d="M10.5 1.5C10.5 1.36739 10.4473 1.24021 10.3535 1.14645C10.2598 1.05268 10.1326 1 9.99999 1C9.86739 1 9.74021 1.05268 9.64644 1.14645C9.55267 1.24021 9.49999 1.36739 9.49999 1.5V2.5C9.49999 2.63261 9.55267 2.75979 9.64644 2.85355C9.74021 2.94732 9.86739 3 9.99999 3C10.1326 3 10.2598 2.94732 10.3535 2.85355C10.4473 2.75979 10.5 2.63261 10.5 2.5V1.5ZM14.243 3.464C14.2907 3.41788 14.3288 3.3627 14.355 3.3017C14.3812 3.2407 14.395 3.17509 14.3956 3.1087C14.3962 3.04231 14.3835 2.97647 14.3584 2.91502C14.3333 2.85357 14.2961 2.79775 14.2492 2.7508C14.2022 2.70386 14.1464 2.66673 14.085 2.64159C14.0235 2.61645 13.9577 2.6038 13.8913 2.60437C13.8249 2.60495 13.7593 2.61874 13.6983 2.64495C13.6373 2.67115 13.5821 2.70924 13.536 2.757L12.828 3.464C12.7341 3.55789 12.6814 3.68522 12.6814 3.818C12.6814 3.95078 12.7341 4.07811 12.828 4.172C12.9219 4.26589 13.0492 4.31863 13.182 4.31863C13.3148 4.31863 13.4421 4.26589 13.536 4.172L14.243 3.464ZM6.46399 2.757C6.36969 2.66592 6.24339 2.61552 6.11229 2.61666C5.9812 2.6178 5.85579 2.67039 5.76308 2.76309C5.67038 2.85579 5.6178 2.9812 5.61666 3.1123C5.61552 3.2434 5.66592 3.3697 5.75699 3.464L6.46399 4.172C6.51048 4.21849 6.56567 4.25536 6.62641 4.28052C6.68715 4.30568 6.75225 4.31863 6.81799 4.31863C6.88374 4.31863 6.94884 4.30568 7.00958 4.28052C7.07032 4.25536 7.12551 4.21849 7.17199 4.172C7.21848 4.12551 7.25536 4.07032 7.28052 4.00958C7.30568 3.94884 7.31863 3.88374 7.31863 3.818C7.31863 3.75226 7.30568 3.68716 7.28052 3.62642C7.25536 3.56568 7.21848 3.51049 7.17199 3.464L6.46399 2.757ZM8.19799 6.131C8.32228 5.87344 8.50036 5.64553 8.72021 5.46264C8.94007 5.27975 9.19659 5.14614 9.47247 5.07082C9.74835 4.99549 10.0372 4.98021 10.3195 5.026C10.6018 5.07179 10.8709 5.17758 11.1089 5.33625C11.3468 5.49492 11.5479 5.70276 11.6987 5.94577C11.8495 6.18878 11.9464 6.46129 11.9829 6.74493C12.0194 7.02858 11.9946 7.31675 11.9103 7.59001C11.826 7.86327 11.684 8.11527 11.494 8.329C11.693 8.61 11.866 8.911 12.01 9.227C12.3489 8.9208 12.6134 8.54126 12.7833 8.11732C12.9533 7.69338 13.0242 7.23623 12.9907 6.78073C12.9571 6.32523 12.82 5.88339 12.5898 5.48892C12.3596 5.09444 12.0424 4.75774 11.6623 4.50448C11.2822 4.25122 10.8493 4.08809 10.3966 4.02752C9.94388 3.96695 9.48332 4.01055 9.05003 4.15499C8.61673 4.29944 8.22214 4.5409 7.89633 4.86099C7.57052 5.18108 7.32209 5.57133 7.16999 6.002C7.52199 6.013 7.86599 6.057 8.19799 6.131ZM12.682 10.205C13.282 10.42 13.807 10.795 14.204 11.277C14.2584 11.2329 14.303 11.1779 14.3348 11.1155C14.3666 11.053 14.385 10.9846 14.3886 10.9147C14.3923 10.8447 14.3812 10.7748 14.3562 10.7094C14.3311 10.644 14.2925 10.5846 14.243 10.535L13.536 9.828C13.4647 9.7563 13.3734 9.70789 13.274 9.68916C13.1747 9.67043 13.072 9.68226 12.9795 9.72309C12.887 9.76392 12.809 9.83184 12.7559 9.91787C12.7028 10.0039 12.677 10.104 12.682 10.205ZM14.5 6.5C14.3674 6.5 14.2402 6.55268 14.1464 6.64645C14.0527 6.74021 14 6.86739 14 7C14 7.13261 14.0527 7.25979 14.1464 7.35355C14.2402 7.44732 14.3674 7.5 14.5 7.5H15.5C15.6326 7.5 15.7598 7.44732 15.8535 7.35355C15.9473 7.25979 16 7.13261 16 7C16 6.86739 15.9473 6.74021 15.8535 6.64645C15.7598 6.55268 15.6326 6.5 15.5 6.5H14.5Z" fill="black"/>
</g>
<defs>
<clipPath id="clip0_104_1411">
<rect width="16" height="16" fill="white"/>
</clipPath>
</defs>
</svg>
