<svg width="16" height="16" viewBox="0 0 16 16" xmlns="http://www.w3.org/2000/svg" fill='currentColor'><g clip-path="url(#clip0_104_1358)"><path d="M4 11.5C4 11.3674 4.05268 11.2402 4.14645 11.1464C4.24021 11.0527 4.36739 11 4.5 11H13.5C13.6326 11 13.7598 11.0527 13.8536 11.1464C13.9473 11.2402 14 11.3674 14 11.5C14 11.6326 13.9473 11.7598 13.8536 11.8535C13.7598 11.9473 13.6326 12 13.5 12H4.5C4.36739 12 4.24021 11.9473 4.14645 11.8535C4.05268 11.7598 4 11.6326 4 11.5ZM0.999999 13.5C0.999999 13.3674 1.05268 13.2402 1.14645 13.1464C1.24021 13.0527 1.36739 13 1.5 13H10.5C10.6326 13 10.7598 13.0527 10.8536 13.1464C10.9473 13.2402 11 13.3674 11 13.5C11 13.6326 10.9473 13.7598 10.8536 13.8535C10.7598 13.9473 10.6326 14 10.5 14H1.5C1.36739 14 1.24021 13.9473 1.14645 13.8535C1.05268 13.7598 0.999999 13.6326 0.999999 13.5ZM3 15.5C3 15.3674 3.05268 15.2402 3.14645 15.1464C3.24021 15.0527 3.36739 15 3.5 15H12.5C12.6326 15 12.7598 15.0527 12.8536 15.1464C12.9473 15.2402 13 15.3674 13 15.5C13 15.6326 12.9473 15.7598 12.8536 15.8535C12.7598 15.9473 12.6326 16 12.5 16H3.5C3.36739 16 3.24021 15.9473 3.14645 15.8535C3.05268 15.7598 3 15.6326 3 15.5ZM13.405 4.02698C13.1973 2.98015 12.6602 2.02719 11.8722 1.30746C11.0842 0.587731 10.0866 0.13897 9.02524 0.0267924C7.96392 -0.0853848 6.89454 0.144906 5.97346 0.683993C5.05239 1.22308 4.32792 2.04269 3.906 3.02298C3.43284 2.96848 2.95353 3.01111 2.49742 3.14829C2.04131 3.28547 1.61799 3.51429 1.2534 3.82076C0.888798 4.12723 0.590586 4.50488 0.37702 4.93061C0.163454 5.35634 0.0390277 5.82118 0.0113585 6.29666C-0.0163107 6.77215 0.0533598 7.24828 0.216104 7.69591C0.378849 8.14353 0.631243 8.55323 0.957834 8.89992C1.28442 9.24661 1.67834 9.52299 2.11546 9.71214C2.55258 9.9013 3.02371 9.99924 3.5 9.99998H13C13.7611 10.0009 14.4941 9.7124 15.0505 9.19306C15.6069 8.67371 15.9451 7.9623 15.9966 7.20294C16.048 6.44357 15.809 5.69302 15.3278 5.10332C14.8466 4.51362 14.1593 4.12886 13.405 4.02698Z"/></g><defs><clipPath id="clip0_104_1358"><rect width="16" height="16"/></clipPath></defs></svg>