<svg width="16" height="16" viewBox="0 0 16 16" xmlns="http://www.w3.org/2000/svg" fill='currentColor'><g clip-path="url(#clip0_104_1342)"><path d="M8.5 3.99997C7.65842 3.99986 6.83823 4.26506 6.15602 4.75786C5.47382 5.25066 4.96433 5.94599 4.7 6.74497C4.68137 6.80959 4.64989 6.86979 4.60745 6.92196C4.565 6.97413 4.51248 7.0172 4.453 7.0486C4.39353 7.08 4.32833 7.09907 4.26131 7.10469C4.1943 7.1103 4.12683 7.10234 4.06297 7.08127C3.9991 7.06021 3.94013 7.02647 3.88961 6.98209C3.83908 6.93771 3.79802 6.88359 3.7689 6.82297C3.73977 6.76235 3.72318 6.69648 3.7201 6.6293C3.71703 6.56211 3.72753 6.495 3.751 6.43197C4.0981 5.38378 4.78228 4.47989 5.69687 3.86123C6.61146 3.24258 7.70504 2.94393 8.80713 3.01186C9.90921 3.07978 10.9578 3.51046 11.7895 4.23674C12.6212 4.96302 13.1892 5.94409 13.405 7.02697C14.1593 7.12885 14.8466 7.51361 15.3278 8.10331C15.809 8.69301 16.048 9.44356 15.9966 10.2029C15.9451 10.9623 15.6069 11.6737 15.0505 12.193C14.4941 12.7124 13.7611 13.0008 13 13H0.5C0.367392 13 0.240215 12.9473 0.146447 12.8535C0.0526784 12.7598 0 12.6326 0 12.5C0 12.3674 0.0526784 12.2402 0.146447 12.1464C0.240215 12.0527 0.367392 12 0.5 12H13C13.5304 12.0001 14.0392 11.7895 14.4144 11.4145C14.7895 11.0396 15.0004 10.5309 15.0005 10.0005C15.0006 9.47004 14.79 8.96128 14.4151 8.58611C14.0401 8.21095 13.5314 8.00011 13.001 7.99997H12.975C12.8514 8.00072 12.7319 7.95566 12.6396 7.87348C12.5472 7.7913 12.4886 7.67783 12.475 7.55497C12.3656 6.5773 11.8997 5.67424 11.1664 5.01842C10.4331 4.3626 9.48378 4.00002 8.5 3.99997ZM0 8.49997C0 8.36737 0.0526784 8.24019 0.146447 8.14642C0.240215 8.05265 0.367392 7.99997 0.5 7.99997H7.5C7.63261 7.99997 7.75979 8.05265 7.85355 8.14642C7.94732 8.24019 8 8.36737 8 8.49997C8 8.63258 7.94732 8.75976 7.85355 8.85353C7.75979 8.9473 7.63261 8.99997 7.5 8.99997H0.5C0.367392 8.99997 0.240215 8.9473 0.146447 8.85353C0.0526784 8.75976 0 8.63258 0 8.49997ZM0 10.5C0 10.3674 0.0526784 10.2402 0.146447 10.1464C0.240215 10.0527 0.367392 9.99997 0.5 9.99997H9.5C9.63261 9.99997 9.75979 10.0527 9.85355 10.1464C9.94732 10.2402 10 10.3674 10 10.5C10 10.6326 9.94732 10.7598 9.85355 10.8535C9.75979 10.9473 9.63261 11 9.5 11H0.5C0.367392 11 0.240215 10.9473 0.146447 10.8535C0.0526784 10.7598 0 10.6326 0 10.5Z"/></g><defs><clipPath id="clip0_104_1342"><rect width="16" height="16"/></clipPath></defs></svg>