<svg width="16" height="16" viewBox="0 0 16 16" fill="none" xmlns="http://www.w3.org/2000/svg">
<path fill-rule="evenodd" clip-rule="evenodd" d="M3.112 5.112C3.03463 5.31001 2.97767 5.51541 2.942 5.725C1.266 6.095 0 7.555 0 9.318C0 11.366 1.708 13 3.781 13H11L3.112 5.112ZM14.484 12.484L4.937 2.937C5.84274 2.32835 6.90876 2.00224 8 2C10.69 2 12.923 4 13.166 6.579C14.758 6.804 16 8.137 16 9.773C15.9983 10.3164 15.8582 10.8505 15.593 11.3248C15.3278 11.7991 14.9461 12.198 14.484 12.484ZM13.646 14.354L1.646 2.354L2.354 1.646L14.354 13.646L13.647 14.353L13.646 14.354Z" fill="black"/>
</svg>
