<svg width="16" height="16" viewBox="0 0 16 16" fill="none" xmlns="http://www.w3.org/2000/svg">
<g clip-path="url(#clip0_104_1348)">
<path d="M13.405 4.52698C13.1973 3.48015 12.6602 2.52719 11.8722 1.80746C11.0842 1.08773 10.0866 0.63897 9.02523 0.526792C7.9639 0.414615 6.89452 0.644906 5.97345 1.18399C5.05237 1.72308 4.32791 2.54269 3.90598 3.52298C3.43282 3.46848 2.95351 3.51111 2.4974 3.64829C2.04129 3.78547 1.61798 4.01429 1.25338 4.32076C0.888782 4.62723 0.590571 5.00488 0.377005 5.43061C0.163439 5.85634 0.0390124 6.32118 0.0113432 6.79666C-0.0163259 7.27215 0.0533446 7.74828 0.216089 8.19591C0.378834 8.64353 0.631228 9.05323 0.957818 9.39992C1.28441 9.74661 1.67832 10.023 2.11544 10.2121C2.55256 10.4013 3.02369 10.4992 3.49998 10.5H13C13.7611 10.5009 14.4941 10.2124 15.0505 9.69306C15.6069 9.17371 15.9451 8.4623 15.9965 7.70294C16.048 6.94357 15.809 6.19302 15.3278 5.60332C14.8466 5.01362 14.1592 4.62886 13.405 4.52698ZM8.49998 1.49998C9.48394 1.49978 10.4335 1.86225 11.167 2.5181C11.9005 3.17394 12.3665 4.07714 12.476 5.05498C12.4896 5.17784 12.5482 5.29131 12.6405 5.37349C12.7329 5.45567 12.8524 5.50073 12.976 5.49998H13C13.5304 5.50012 14.0391 5.71096 14.4141 6.08612C14.789 6.46129 14.9996 6.97005 14.9995 7.50048C14.9994 8.03092 14.7885 8.53957 14.4133 8.91455C14.0382 9.28953 13.5294 9.50012 12.999 9.49998H3.49998C3.14606 9.49981 2.7962 9.42448 2.47356 9.279C2.15092 9.13351 1.86285 8.92118 1.6284 8.65604C1.39395 8.3909 1.21847 8.07901 1.11357 7.74098C1.00866 7.40296 0.976727 7.04652 1.01987 6.69523C1.06302 6.34394 1.18026 6.00582 1.36384 5.70323C1.54742 5.40064 1.79316 5.14048 2.0848 4.93995C2.37644 4.73943 2.70733 4.60311 3.05559 4.54002C3.40385 4.47693 3.76153 4.48851 4.10498 4.57398C4.22751 4.60455 4.35707 4.58761 4.46762 4.52658C4.57818 4.46555 4.66155 4.36495 4.70098 4.24498C4.96526 3.44616 5.4746 2.75095 6.1566 2.25816C6.8386 1.76538 7.65858 1.50008 8.49998 1.49998ZM3.74998 15.25C3.74998 15.4489 3.67097 15.6397 3.53031 15.7803C3.38966 15.921 3.1989 16 2.99998 16C2.80107 16 2.61031 15.921 2.46965 15.7803C2.329 15.6397 2.24998 15.4489 2.24998 15.25C2.24998 15.0511 2.329 14.8603 2.46965 14.7197C2.61031 14.579 2.80107 14.5 2.99998 14.5C3.1989 14.5 3.38966 14.579 3.53031 14.7197C3.67097 14.8603 3.74998 15.0511 3.74998 15.25ZM4.15798 11.526C4.28364 11.568 4.38749 11.6581 4.44674 11.7766C4.50599 11.8951 4.51579 12.0323 4.47398 12.158L3.97398 13.658C3.95515 13.7226 3.92349 13.7827 3.88088 13.8347C3.83828 13.8867 3.78561 13.9297 3.72604 13.9609C3.66646 13.9921 3.6012 14.011 3.53416 14.0164C3.46712 14.0218 3.39968 14.0136 3.33587 13.9923C3.27206 13.9711 3.2132 13.9371 3.16281 13.8926C3.11242 13.848 3.07154 13.7938 3.04261 13.7331C3.01368 13.6723 2.99729 13.6064 2.99443 13.5392C2.99158 13.472 3.00231 13.4049 3.02598 13.342L3.52598 11.842C3.56797 11.7163 3.65811 11.6125 3.7766 11.5532C3.8951 11.494 4.03227 11.4842 4.15798 11.526ZM7.74998 15.25C7.74998 15.4489 7.67097 15.6397 7.53031 15.7803C7.38966 15.921 7.1989 16 6.99998 16C6.80107 16 6.61031 15.921 6.46965 15.7803C6.329 15.6397 6.24998 15.4489 6.24998 15.25C6.24998 15.0511 6.329 14.8603 6.46965 14.7197C6.61031 14.579 6.80107 14.5 6.99998 14.5C7.1989 14.5 7.38966 14.579 7.53031 14.7197C7.67097 14.8603 7.74998 15.0511 7.74998 15.25ZM8.15798 11.526C8.28364 11.568 8.38749 11.6581 8.44674 11.7766C8.50599 11.8951 8.51579 12.0323 8.47398 12.158L7.97398 13.658C7.95515 13.7226 7.92349 13.7827 7.88088 13.8347C7.83828 13.8867 7.78561 13.9297 7.72604 13.9609C7.66646 13.9921 7.6012 14.011 7.53416 14.0164C7.46712 14.0218 7.39968 14.0136 7.33587 13.9923C7.27206 13.9711 7.2132 13.9371 7.16281 13.8926C7.11242 13.848 7.07154 13.7938 7.04261 13.7331C7.01368 13.6723 6.99729 13.6064 6.99443 13.5392C6.99158 13.472 7.00231 13.4049 7.02598 13.342L7.52598 11.842C7.56797 11.7163 7.65811 11.6125 7.7766 11.5532C7.8951 11.494 8.03227 11.4842 8.15798 11.526ZM11.75 15.25C11.75 15.4489 11.671 15.6397 11.5303 15.7803C11.3897 15.921 11.1989 16 11 16C10.8011 16 10.6103 15.921 10.4697 15.7803C10.329 15.6397 10.25 15.4489 10.25 15.25C10.25 15.0511 10.329 14.8603 10.4697 14.7197C10.6103 14.579 10.8011 14.5 11 14.5C11.1989 14.5 11.3897 14.579 11.5303 14.7197C11.671 14.8603 11.75 15.0511 11.75 15.25ZM12.158 11.526C12.2836 11.568 12.3875 11.6581 12.4467 11.7766C12.506 11.8951 12.5158 12.0323 12.474 12.158L11.974 13.658C11.9552 13.7226 11.9235 13.7827 11.8809 13.8347C11.8383 13.8867 11.7856 13.9297 11.726 13.9609C11.6665 13.9921 11.6012 14.011 11.5342 14.0164C11.4671 14.0218 11.3997 14.0136 11.3359 13.9923C11.2721 13.9711 11.2132 13.9371 11.1628 13.8926C11.1124 13.848 11.0715 13.7938 11.0426 13.7331C11.0137 13.6723 10.9973 13.6064 10.9944 13.5392C10.9916 13.472 11.0023 13.4049 11.026 13.342L11.526 11.842C11.568 11.7163 11.6581 11.6125 11.7766 11.5532C11.8951 11.494 12.0323 11.4842 12.158 11.526Z" fill="black"/>
</g>
<defs>
<clipPath id="clip0_104_1348">
<rect width="16" height="16" fill="white"/>
</clipPath>
</defs>
</svg>
