<svg width="16" height="16" viewBox="0 0 16 16" xmlns="http://www.w3.org/2000/svg" fill='currentColor'><path fill-rule="evenodd" clip-rule="evenodd" d="M3.112 5.112C3.03463 5.31002 2.97767 5.51542 2.942 5.725C1.266 6.095 0 7.555 0 9.318C0 11.366 1.708 13 3.781 13H11L10 12H3.781C2.231 12 1 10.785 1 9.318C1 7.953 2.064 6.805 3.46 6.652L3.906 6.602V6.155C3.906 6.08 3.912 6.003 3.924 5.924L3.112 5.112ZM5.662 3.662L4.937 2.937C5.84274 2.32835 6.90876 2.00225 8 2C10.69 2 12.923 4 13.166 6.579C14.758 6.804 16 8.137 16 9.773C15.9983 10.3164 15.8582 10.8505 15.593 11.3248C15.3278 11.7991 14.9461 12.198 14.484 12.484L13.751 11.751C14.498 11.378 15 10.626 15 9.773C15 8.557 13.98 7.545 12.687 7.545H12.187V7.045C12.188 4.825 10.328 3 8 3C7.125 3 6.322 3.26 5.661 3.661L5.662 3.662Z"/><path d="M13.646 14.354L1.646 2.354L2.354 1.646L14.354 13.646L13.647 14.353L13.646 14.354Z"/></svg>