<svg width="16" height="16" viewBox="0 0 16 16" fill="none" xmlns="http://www.w3.org/2000/svg">
<g clip-path="url(#clip0_104_1386)">
<path d="M4.15801 12.025C4.22035 12.0458 4.27797 12.0786 4.3276 12.1217C4.37722 12.1648 4.41787 12.2172 4.44721 12.276C4.47656 12.3348 4.49403 12.3988 4.49863 12.4643C4.50323 12.5299 4.49487 12.5957 4.47401 12.658L3.97401 14.158C3.95518 14.2226 3.92352 14.2827 3.88091 14.3347C3.83831 14.3867 3.78564 14.4297 3.72607 14.4609C3.66649 14.4921 3.60123 14.511 3.53419 14.5164C3.46715 14.5218 3.39971 14.5136 3.3359 14.4923C3.27209 14.4711 3.21323 14.4371 3.16284 14.3926C3.11245 14.348 3.07157 14.2938 3.04264 14.2331C3.01371 14.1723 2.99732 14.1064 2.99447 14.0392C2.99161 13.972 3.00234 13.9049 3.02601 13.842L3.52601 12.342C3.5678 12.2161 3.65785 12.1121 3.77637 12.0526C3.89489 11.9932 4.03217 11.9832 4.15801 12.025ZM7.15801 12.025C7.22035 12.0458 7.27797 12.0786 7.3276 12.1217C7.37722 12.1648 7.41787 12.2172 7.44721 12.276C7.47656 12.3348 7.49403 12.3988 7.49863 12.4643C7.50323 12.5299 7.49487 12.5957 7.47401 12.658L6.47401 15.658C6.45518 15.7226 6.42352 15.7827 6.38091 15.8347C6.33831 15.8867 6.28564 15.9297 6.22607 15.9609C6.16649 15.9921 6.10123 16.011 6.03419 16.0164C5.96715 16.0218 5.89971 16.0136 5.8359 15.9923C5.77209 15.9711 5.71323 15.9371 5.66284 15.8926C5.61245 15.848 5.57157 15.7938 5.54264 15.7331C5.51371 15.6723 5.49732 15.6064 5.49447 15.5392C5.49161 15.472 5.50234 15.4049 5.52601 15.342L6.52601 12.342C6.5678 12.2161 6.65785 12.1121 6.77637 12.0526C6.89489 11.9932 7.03217 11.9832 7.15801 12.025ZM10.158 12.025C10.2203 12.0458 10.278 12.0786 10.3276 12.1217C10.3772 12.1648 10.4179 12.2172 10.4472 12.276C10.4766 12.3348 10.494 12.3988 10.4986 12.4643C10.5032 12.5299 10.4949 12.5957 10.474 12.658L9.97401 14.158C9.95518 14.2226 9.92352 14.2827 9.88091 14.3347C9.83831 14.3867 9.78564 14.4297 9.72607 14.4609C9.66649 14.4921 9.60123 14.511 9.53419 14.5164C9.46715 14.5218 9.39971 14.5136 9.3359 14.4923C9.27209 14.4711 9.21323 14.4371 9.16284 14.3926C9.11245 14.348 9.07157 14.2938 9.04264 14.2331C9.01371 14.1723 8.99732 14.1064 8.99447 14.0392C8.99161 13.972 9.00234 13.9049 9.02601 13.842L9.52601 12.342C9.5678 12.2161 9.65785 12.1121 9.77637 12.0526C9.89489 11.9932 10.0322 11.9832 10.158 12.025ZM13.158 12.025C13.2203 12.0458 13.278 12.0786 13.3276 12.1217C13.3772 12.1648 13.4179 12.2172 13.4472 12.276C13.4766 12.3348 13.494 12.3988 13.4986 12.4643C13.5032 12.5299 13.4949 12.5957 13.474 12.658L12.474 15.658C12.4552 15.7226 12.4235 15.7827 12.3809 15.8347C12.3383 15.8867 12.2856 15.9297 12.2261 15.9609C12.1665 15.9921 12.1012 16.011 12.0342 16.0164C11.9671 16.0218 11.8997 16.0136 11.8359 15.9923C11.7721 15.9711 11.7132 15.9371 11.6628 15.8926C11.6125 15.848 11.5716 15.7938 11.5426 15.7331C11.5137 15.6723 11.4973 15.6064 11.4945 15.5392C11.4916 15.472 11.5023 15.4049 11.526 15.342L12.526 12.342C12.5678 12.2161 12.6578 12.1121 12.7764 12.0526C12.8949 11.9932 13.0322 11.9832 13.158 12.025ZM13.405 5.02698C13.1973 3.98015 12.6602 3.02719 11.8722 2.30746C11.0842 1.58773 10.0866 1.13897 9.02526 1.02679C7.96393 0.914615 6.89455 1.14491 5.97348 1.68399C5.0524 2.22308 4.32794 3.04269 3.90601 4.02298C3.43285 3.96848 2.95354 4.01111 2.49743 4.14829C2.04132 4.28547 1.61801 4.51429 1.25341 4.82076C0.888813 5.12723 0.590602 5.50488 0.377036 5.93061C0.16347 6.35634 0.0390429 6.82118 0.0113738 7.29666C-0.0162954 7.77215 0.0533751 8.24828 0.21612 8.69591C0.378864 9.14353 0.631258 9.55323 0.957849 9.89992C1.28444 10.2466 1.67835 10.523 2.11547 10.7121C2.55259 10.9013 3.02372 10.9992 3.50001 11H13C13.7611 11.0009 14.4941 10.7124 15.0505 10.1931C15.6069 9.67371 15.9451 8.9623 15.9966 8.20294C16.0481 7.44357 15.809 6.69302 15.3278 6.10332C14.8466 5.51362 14.1593 5.12886 13.405 5.02698Z" fill="black"/>
</g>
<defs>
<clipPath id="clip0_104_1386">
<rect width="16" height="16" fill="white"/>
</clipPath>
</defs>
</svg>
