<svg width="16" height="16" viewBox="0 0 16 16" xmlns="http://www.w3.org/2000/svg" fill='currentColor'><path d="M8 2C6.68024 2.00414 5.40548 2.48014 4.406 3.342C3.64 4.002 3.085 4.862 2.942 5.725C1.266 6.095 0 7.555 0 9.318C0 11.366 1.708 13 3.781 13H12.687C14.502 13 16 11.57 16 9.773C16 8.137 14.758 6.804 13.166 6.579C12.923 3.999 10.69 2 8 2ZM10.354 7.146C10.4005 7.19249 10.4374 7.24768 10.4625 7.30842C10.4877 7.36916 10.5006 7.43426 10.5006 7.5C10.5006 7.56574 10.4877 7.63084 10.4625 7.69158C10.4374 7.75232 10.4005 7.80751 10.354 7.854C10.3075 7.90049 10.2523 7.93736 10.1916 7.96252C10.1308 7.98768 10.0657 8.00063 10 8.00063C9.93426 8.00063 9.86916 7.98768 9.80842 7.96252C9.74768 7.93736 9.69249 7.90049 9.646 7.854L8.5 6.707V10.5C8.5 10.6326 8.44732 10.7598 8.35355 10.8536C8.25979 10.9473 8.13261 11 8 11C7.86739 11 7.74021 10.9473 7.64645 10.8536C7.55268 10.7598 7.5 10.6326 7.5 10.5V6.707L6.354 7.854C6.26011 7.94789 6.13278 8.00063 6 8.00063C5.86722 8.00063 5.73989 7.94789 5.646 7.854C5.55211 7.76011 5.49937 7.63278 5.49937 7.5C5.49937 7.36722 5.55211 7.23989 5.646 7.146L7.646 5.146C7.69245 5.09944 7.74762 5.06249 7.80837 5.03729C7.86911 5.01208 7.93423 4.99911 8 4.99911C8.06577 4.99911 8.13089 5.01208 8.19163 5.03729C8.25238 5.06249 8.30755 5.09944 8.354 5.146L10.354 7.146Z"/></svg>