<svg width="16" height="16" viewBox="0 0 16 16" xmlns="http://www.w3.org/2000/svg" fill='currentColor'><g clip-path="url(#clip0_104_1354)"><path d="M3.99998 11.5C3.99998 11.3674 4.05266 11.2402 4.14643 11.1464C4.2402 11.0527 4.36738 11 4.49998 11H13.5C13.6326 11 13.7598 11.0527 13.8535 11.1464C13.9473 11.2402 14 11.3674 14 11.5C14 11.6326 13.9473 11.7598 13.8535 11.8535C13.7598 11.9473 13.6326 12 13.5 12H4.49998C4.36738 12 4.2402 11.9473 4.14643 11.8535C4.05266 11.7598 3.99998 11.6326 3.99998 11.5ZM0.999984 13.5C0.999984 13.3674 1.05266 13.2402 1.14643 13.1464C1.2402 13.0527 1.36738 13 1.49998 13H10.5C10.6326 13 10.7598 13.0527 10.8535 13.1464C10.9473 13.2402 11 13.3674 11 13.5C11 13.6326 10.9473 13.7598 10.8535 13.8535C10.7598 13.9473 10.6326 14 10.5 14H1.49998C1.36738 14 1.2402 13.9473 1.14643 13.8535C1.05266 13.7598 0.999984 13.6326 0.999984 13.5ZM2.99998 15.5C2.99998 15.3674 3.05266 15.2402 3.14643 15.1464C3.2402 15.0527 3.36738 15 3.49998 15H12.5C12.6326 15 12.7598 15.0527 12.8535 15.1464C12.9473 15.2402 13 15.3674 13 15.5C13 15.6326 12.9473 15.7598 12.8535 15.8535C12.7598 15.9473 12.6326 16 12.5 16H3.49998C3.36738 16 3.2402 15.9473 3.14643 15.8535C3.05266 15.7598 2.99998 15.6326 2.99998 15.5ZM13.405 4.02698C13.1973 2.98015 12.6602 2.02719 11.8722 1.30746C11.0842 0.587731 10.0866 0.13897 9.02523 0.0267924C7.9639 -0.0853848 6.89452 0.144906 5.97345 0.683993C5.05237 1.22308 4.32791 2.04269 3.90598 3.02298C3.43282 2.96848 2.95351 3.01111 2.4974 3.14829C2.04129 3.28547 1.61798 3.51429 1.25338 3.82076C0.888782 4.12723 0.590571 4.50488 0.377005 4.93061C0.163439 5.35634 0.0390124 5.82118 0.0113432 6.29666C-0.0163259 6.77215 0.0533446 7.24828 0.216089 7.69591C0.378834 8.14353 0.631228 8.55323 0.957818 8.89992C1.28441 9.24661 1.67832 9.52299 2.11544 9.71214C2.55256 9.9013 3.02369 9.99924 3.49998 9.99998H13C13.7611 10.0009 14.4941 9.7124 15.0505 9.19306C15.6069 8.67371 15.9451 7.9623 15.9965 7.20294C16.048 6.44357 15.809 5.69302 15.3278 5.10332C14.8466 4.51362 14.1592 4.12886 13.405 4.02698ZM8.49998 0.999984C9.48394 0.99978 10.4335 1.36225 11.167 2.0181C11.9005 2.67394 12.3665 3.57714 12.476 4.55498C12.4896 4.67784 12.5482 4.79131 12.6405 4.87349C12.7329 4.95567 12.8524 5.00073 12.976 4.99998H13C13.5304 4.99998 14.0391 5.2107 14.4142 5.58577C14.7893 5.96084 15 6.46955 15 6.99998C15 7.53042 14.7893 8.03912 14.4142 8.4142C14.0391 8.78927 13.5304 8.99998 13 8.99998H3.49998C3.14606 8.99981 2.7962 8.92448 2.47356 8.779C2.15092 8.63351 1.86285 8.42118 1.6284 8.15604C1.39395 7.8909 1.21847 7.57901 1.11357 7.24098C1.00866 6.90296 0.976727 6.54652 1.01987 6.19523C1.06302 5.84394 1.18026 5.50582 1.36384 5.20323C1.54742 4.90064 1.79316 4.64048 2.0848 4.43995C2.37644 4.23943 2.70733 4.10311 3.05559 4.04002C3.40385 3.97693 3.76153 3.98851 4.10498 4.07398C4.22751 4.10455 4.35707 4.08761 4.46762 4.02658C4.57818 3.96555 4.66155 3.86495 4.70098 3.74498C4.96526 2.94616 5.4746 2.25095 6.1566 1.75816C6.8386 1.26538 7.65858 1.00008 8.49998 0.999984Z"/></g><defs><clipPath id="clip0_104_1354"><rect width="16" height="16"/></clipPath></defs></svg>