<svg width="16" height="16" viewBox="0 0 16 16" xmlns="http://www.w3.org/2000/svg" fill='currentColor'><g clip-path="url(#clip0_104_1395)"><path d="M11.473 9.00003C11.3605 7.98617 10.9069 7.04061 10.1865 6.31839C9.46607 5.59617 8.52167 5.14014 7.5081 5.02507C6.49452 4.91 5.47193 5.14271 4.60796 5.68505C3.744 6.2274 3.08994 7.04719 2.75301 8.01003C1.98095 8.07322 1.26326 8.43261 0.750174 9.01296C0.237086 9.59332 -0.0316242 10.3496 0.00029138 11.1236C0.0322069 11.8976 0.362274 12.6293 0.9214 13.1654C1.48053 13.7015 2.22537 14.0006 3.00001 14H11.5C12.1631 13.9964 12.7975 13.7296 13.2638 13.2582C13.7301 12.7869 13.9901 12.1496 13.9865 11.4865C13.9829 10.8235 13.7161 10.189 13.2447 9.72272C12.7734 9.25641 12.1361 8.99645 11.473 9.00003Z"/><path d="M14.544 9.77202C14.3073 9.35545 13.9878 8.99182 13.6051 8.70356C13.2224 8.4153 12.7847 8.20853 12.319 8.09602C11.9639 6.75166 11.113 5.5916 9.9373 4.84914C8.76165 4.10668 7.34848 3.83689 5.98199 4.09402C6.36548 3.38783 6.95269 2.81345 7.66716 2.44564C8.38164 2.07783 9.1903 1.93363 9.98788 2.03182C10.7855 2.13001 11.535 2.46603 12.1389 2.99614C12.7429 3.52625 13.1732 4.22591 13.374 5.00402C13.9545 4.97438 14.5273 5.14797 14.9937 5.49493C15.46 5.8419 15.791 6.34054 15.9295 6.9051C16.068 7.46965 16.0054 8.06483 15.7526 8.58825C15.4997 9.11167 15.0723 9.53061 14.544 9.77302V9.77202Z"/></g><defs><clipPath id="clip0_104_1395"><rect width="16" height="16"/></clipPath></defs></svg>