<svg width="16" height="16" viewBox="0 0 16 16" fill="none" xmlns="http://www.w3.org/2000/svg">
<path fill-rule="evenodd" clip-rule="evenodd" d="M7.64601 5.14598C7.69245 5.09941 7.74763 5.06247 7.80837 5.03727C7.86912 5.01206 7.93424 4.99908 8.00001 4.99908C8.06577 4.99908 8.13089 5.01206 8.19164 5.03727C8.25238 5.06247 8.30756 5.09941 8.35401 5.14598L10.354 7.14598C10.4005 7.19247 10.4374 7.24765 10.4625 7.30839C10.4877 7.36913 10.5006 7.43423 10.5006 7.49998C10.5006 7.56572 10.4877 7.63082 10.4625 7.69156C10.4374 7.7523 10.4005 7.80749 10.354 7.85398C10.3075 7.90047 10.2523 7.93734 10.1916 7.9625C10.1309 7.98766 10.0658 8.00061 10 8.00061C9.93426 8.00061 9.86916 7.98766 9.80842 7.9625C9.74768 7.93734 9.69249 7.90047 9.64601 7.85398L8.50001 6.70698V10.5C8.50001 10.6326 8.44733 10.7598 8.35356 10.8535C8.25979 10.9473 8.13261 11 8.00001 11C7.8674 11 7.74022 10.9473 7.64645 10.8535C7.55268 10.7598 7.50001 10.6326 7.50001 10.5V6.70698L6.35401 7.85398C6.26012 7.94786 6.13278 8.00061 6.00001 8.00061C5.86723 8.00061 5.73989 7.94786 5.64601 7.85398C5.55212 7.76009 5.49937 7.63275 5.49937 7.49998C5.49937 7.3672 5.55212 7.23986 5.64601 7.14598L7.64601 5.14598Z" fill="black"/>
<path d="M4.406 3.342C5.40548 2.48014 6.68024 2.00414 8 2C10.69 2 12.923 4 13.166 6.579C14.758 6.804 16 8.137 16 9.773C16 11.569 14.502 13 12.687 13H3.781C1.708 13 0 11.366 0 9.318C0 7.555 1.266 6.095 2.942 5.725C3.085 4.862 3.64 4.002 4.406 3.342ZM5.059 4.099C4.302 4.752 3.906 5.539 3.906 6.155V6.603L3.461 6.652C2.064 6.805 1 7.952 1 9.318C1 10.785 2.23 12 3.781 12H12.687C13.98 12 15 10.988 15 9.773C15 8.557 13.98 7.545 12.687 7.545H12.187V7.045C12.188 4.825 10.328 3 8 3C6.91988 3.00431 5.87684 3.39443 5.059 4.1V4.099Z" fill="black"/>
</svg>
