<svg width="16" height="16" viewBox="0 0 16 16" fill="none" xmlns="http://www.w3.org/2000/svg">
<g clip-path="url(#clip0_104_1352)">
<path d="M8.5 2.99997C7.65842 2.99986 6.83823 3.26506 6.15602 3.75786C5.47382 4.25066 4.96433 4.94599 4.7 5.74497C4.68137 5.80959 4.64989 5.86979 4.60745 5.92196C4.565 5.97413 4.51248 6.0172 4.453 6.0486C4.39353 6.08 4.32833 6.09907 4.26131 6.10469C4.1943 6.1103 4.12683 6.10234 4.06297 6.08127C3.9991 6.06021 3.94013 6.02647 3.88961 5.98209C3.83908 5.93771 3.79802 5.88359 3.7689 5.82297C3.73977 5.76235 3.72318 5.69648 3.7201 5.6293C3.71703 5.56211 3.72753 5.495 3.751 5.43197C4.0981 4.38378 4.78228 3.47989 5.69687 2.86123C6.61146 2.24258 7.70504 1.94393 8.80713 2.01186C9.90921 2.07978 10.9578 2.51046 11.7895 3.23674C12.6212 3.96302 13.1892 4.94409 13.405 6.02697C14.1593 6.12885 14.8466 6.51361 15.3278 7.10331C15.809 7.69301 16.048 8.44356 15.9966 9.20293C15.9451 9.96229 15.6069 10.6737 15.0505 11.193C14.4941 11.7124 13.7611 12.0008 13 12H4.5C4.36739 12 4.24021 11.9473 4.14645 11.8535C4.05268 11.7598 4 11.6326 4 11.5C4 11.3674 4.05268 11.2402 4.14645 11.1464C4.24021 11.0527 4.36739 11 4.5 11H13C13.5304 11.0001 14.0392 10.7895 14.4144 10.4145C14.7895 10.0396 15.0004 9.53091 15.0005 9.00047C15.0006 8.47004 14.79 7.96128 14.4151 7.58611C14.0401 7.21095 13.5314 7.00011 13.001 6.99997H12.975C12.8514 7.00072 12.7319 6.95566 12.6396 6.87348C12.5472 6.7913 12.4886 6.67783 12.475 6.55497C12.3656 5.5773 11.8997 4.67424 11.1664 4.01842C10.4331 3.3626 9.48378 3.00002 8.5 2.99997ZM0 7.49997C0 7.36737 0.0526784 7.24019 0.146447 7.14642C0.240215 7.05265 0.367392 6.99997 0.5 6.99997H5.5C5.63261 6.99997 5.75979 7.05265 5.85355 7.14642C5.94732 7.24019 6 7.36737 6 7.49997C6 7.63258 5.94732 7.75976 5.85355 7.85353C5.75979 7.9473 5.63261 7.99997 5.5 7.99997H0.5C0.367392 7.99997 0.240215 7.9473 0.146447 7.85353C0.0526784 7.75976 0 7.63258 0 7.49997ZM2 9.49997C2 9.36737 2.05268 9.24019 2.14645 9.14642C2.24021 9.05265 2.36739 8.99997 2.5 8.99997H11.5C11.6326 8.99997 11.7598 9.05265 11.8536 9.14642C11.9473 9.24019 12 9.36737 12 9.49997C12 9.63258 11.9473 9.75976 11.8536 9.85353C11.7598 9.9473 11.6326 9.99997 11.5 9.99997H2.5C2.36739 9.99997 2.24021 9.9473 2.14645 9.85353C2.05268 9.75976 2 9.63258 2 9.49997ZM0 13.5C0 13.3674 0.0526784 13.2402 0.146447 13.1464C0.240215 13.0527 0.367392 13 0.5 13H9.5C9.63261 13 9.75979 13.0527 9.85355 13.1464C9.94732 13.2402 10 13.3674 10 13.5C10 13.6326 9.94732 13.7598 9.85355 13.8535C9.75979 13.9473 9.63261 14 9.5 14H0.5C0.367392 14 0.240215 13.9473 0.146447 13.8535C0.0526784 13.7598 0 13.6326 0 13.5Z" fill="black"/>
</g>
<defs>
<clipPath id="clip0_104_1352">
<rect width="16" height="16" fill="white"/>
</clipPath>
</defs>
</svg>
