<svg width="16" height="16" viewBox="0 0 16 16" xmlns="http://www.w3.org/2000/svg" fill='currentColor'><g clip-path="url(#clip0_104_1373)"><path d="M6.99999 8.00003C7.46429 7.99997 7.92395 8.09229 8.35221 8.27161C8.78048 8.45093 9.16878 8.71367 9.49452 9.04452C9.82025 9.37538 10.0769 9.76773 10.2495 10.1987C10.4221 10.6297 10.5073 11.0908 10.5 11.555C10.4988 11.632 10.5154 11.7082 10.5484 11.7777C10.5815 11.8472 10.6302 11.9082 10.6907 11.9558C10.7511 12.0034 10.8218 12.0364 10.8972 12.0522C10.9725 12.0681 11.0505 12.0663 11.125 12.047C11.3467 11.9904 11.5783 11.9851 11.8023 12.0316C12.0264 12.0781 12.2368 12.1751 12.4176 12.3152C12.5985 12.4554 12.7449 12.6349 12.8459 12.8403C12.9468 13.0456 12.9995 13.2712 13 13.5C13 13.8979 12.842 14.2794 12.5607 14.5607C12.2794 14.842 11.8978 15 11.5 15H2.99999C2.7341 14.9985 2.47117 14.944 2.22659 14.8397C1.98201 14.7354 1.76068 14.5833 1.57557 14.3924C1.39045 14.2016 1.24525 13.9757 1.14847 13.728C1.05169 13.4803 1.00527 13.2159 1.01192 12.9501C1.01856 12.6842 1.07815 12.4224 1.18719 12.1799C1.29624 11.9374 1.45254 11.719 1.64697 11.5377C1.8414 11.3563 2.07005 11.2155 2.31954 11.1235C2.56903 11.0315 2.83435 10.9902 3.09999 11.002C3.21505 11.0077 3.32854 10.9735 3.42129 10.9052C3.51403 10.8369 3.58034 10.7386 3.60899 10.627C3.803 9.87518 4.24139 9.20912 4.85522 8.73359C5.46905 8.25806 6.22352 8.00001 6.99999 8.00003ZM11.473 11C11.3605 9.98617 10.9068 9.04061 10.1865 8.31839C9.46606 7.59617 8.52166 7.14014 7.50808 7.02507C6.49451 6.91 5.47191 7.14271 4.60795 7.68505C3.74398 8.2274 3.08992 9.04719 2.75299 10.01C1.98093 10.0732 1.26325 10.4326 0.750158 11.013C0.237071 11.5933 -0.0316394 12.3496 0.000276121 13.1236C0.0321917 13.8976 0.362258 14.6293 0.921385 15.1654C1.48051 15.7015 2.22535 16.0006 2.99999 16H11.5C12.163 16 12.7989 15.7366 13.2678 15.2678C13.7366 14.799 14 14.1631 14 13.5C14 12.837 13.7366 12.2011 13.2678 11.7323C12.7989 11.2634 12.163 11 11.5 11H11.473Z"/><path d="M11.286 1.77799C11.3435 1.69198 11.3729 1.59026 11.3701 1.48685C11.3673 1.38344 11.3326 1.28343 11.2706 1.20061C11.2086 1.11778 11.1225 1.05622 11.024 1.02441C10.9256 0.992601 10.8197 0.992103 10.721 1.02299C9.68559 1.34724 8.79833 2.02743 8.21631 2.9431C7.6343 3.85877 7.39507 4.95086 7.541 6.02599C7.89868 6.06076 8.25206 6.13077 8.596 6.23499C8.44158 5.57689 8.47541 4.88863 8.69362 4.24884C8.91183 3.60906 9.30563 3.04357 9.83 2.61699C9.6568 3.28481 9.63628 3.98307 9.76995 4.65991C9.90363 5.33675 10.1881 5.97478 10.6021 6.52662C11.0162 7.07846 11.5493 7.52992 12.1618 7.84749C12.7742 8.16506 13.4504 8.34057 14.14 8.36099C13.4847 8.81647 12.6958 9.03964 11.899 8.99499C12.061 9.31199 12.194 9.64699 12.293 9.99499C13.015 9.96424 13.7195 9.76346 14.3493 9.40897C14.979 9.05448 15.5162 8.5563 15.917 7.95499C15.9745 7.86898 16.0039 7.76726 16.0011 7.66385C15.9983 7.56044 15.9636 7.46043 15.9016 7.37761C15.8396 7.29479 15.7535 7.23322 15.655 7.20141C15.5566 7.1696 15.4507 7.1691 15.352 7.19999C14.6427 7.42262 13.8818 7.41976 13.1742 7.1918C12.4666 6.96384 11.8471 6.522 11.4012 5.92718C10.9552 5.33237 10.7048 4.61388 10.6843 3.87074C10.6639 3.12761 10.8744 2.39643 11.287 1.77799H11.286Z"/></g><defs><clipPath id="clip0_104_1373"><rect width="16" height="16"/></clipPath></defs></svg>