<svg width="16" height="16" viewBox="0 0 16 16" xmlns="http://www.w3.org/2000/svg" fill='currentColor'><g clip-path="url(#clip0_104_1414)"><path d="M11.473 11C11.3605 9.98617 10.9069 9.04061 10.1865 8.31839C9.46606 7.59617 8.52166 7.14014 7.50809 7.02507C6.49452 6.91 5.47192 7.14271 4.60796 7.68505C3.74399 8.2274 3.08993 9.04719 2.753 10.01C1.98094 10.0732 1.26325 10.4326 0.750166 11.013C0.237078 11.5933 -0.0316318 12.3496 0.00028375 13.1236C0.0321993 13.8976 0.362266 14.6293 0.921393 15.1654C1.48052 15.7015 2.22536 16.0006 3 16H11.5C12.163 16 12.7989 15.7366 13.2678 15.2678C13.7366 14.799 14 14.1631 14 13.5C14 12.837 13.7366 12.2011 13.2678 11.7323C12.7989 11.2634 12.163 11 11.5 11H11.473Z"/><path d="M10.5 1.5C10.5 1.36739 10.4473 1.24021 10.3536 1.14645C10.2598 1.05268 10.1326 1 10 1C9.86739 1 9.74022 1.05268 9.64645 1.14645C9.55268 1.24021 9.5 1.36739 9.5 1.5V2.5C9.5 2.63261 9.55268 2.75979 9.64645 2.85355C9.74022 2.94732 9.86739 3 10 3C10.1326 3 10.2598 2.94732 10.3536 2.85355C10.4473 2.75979 10.5 2.63261 10.5 2.5V1.5ZM14.243 3.464C14.2908 3.41788 14.3288 3.3627 14.3551 3.3017C14.3813 3.2407 14.3951 3.17509 14.3956 3.1087C14.3962 3.04231 14.3836 2.97647 14.3584 2.91502C14.3333 2.85357 14.2961 2.79775 14.2492 2.7508C14.2023 2.70386 14.1464 2.66673 14.085 2.64159C14.0235 2.61645 13.9577 2.6038 13.8913 2.60437C13.8249 2.60495 13.7593 2.61874 13.6983 2.64495C13.6373 2.67115 13.5821 2.70924 13.536 2.757L12.828 3.464C12.7341 3.55789 12.6814 3.68522 12.6814 3.818C12.6814 3.95078 12.7341 4.07811 12.828 4.172C12.9219 4.26589 13.0492 4.31863 13.182 4.31863C13.3148 4.31863 13.4421 4.26589 13.536 4.172L14.243 3.464ZM6.464 2.757C6.3697 2.66592 6.2434 2.61552 6.1123 2.61666C5.9812 2.6178 5.8558 2.67039 5.76309 2.76309C5.67039 2.85579 5.6178 2.9812 5.61666 3.1123C5.61553 3.2434 5.66592 3.3697 5.757 3.464L6.464 4.172C6.51049 4.21849 6.56568 4.25536 6.62642 4.28052C6.68716 4.30568 6.75226 4.31863 6.818 4.31863C6.88375 4.31863 6.94885 4.30568 7.00959 4.28052C7.07032 4.25536 7.12551 4.21849 7.172 4.172C7.21849 4.12551 7.25537 4.07032 7.28053 4.00958C7.30568 3.94884 7.31863 3.88374 7.31863 3.818C7.31863 3.75226 7.30568 3.68716 7.28053 3.62642C7.25537 3.56568 7.21849 3.51049 7.172 3.464L6.464 2.757ZM8.198 6.131C8.32229 5.87344 8.50037 5.64553 8.72022 5.46264C8.94008 5.27975 9.1966 5.14614 9.47248 5.07082C9.74836 4.99549 10.0372 4.98021 10.3195 5.026C10.6018 5.07179 10.871 5.17758 11.1089 5.33625C11.3468 5.49492 11.5479 5.70276 11.6987 5.94577C11.8495 6.18878 11.9464 6.46129 11.9829 6.74493C12.0194 7.02858 11.9946 7.31675 11.9103 7.59001C11.826 7.86327 11.684 8.11527 11.494 8.329C11.693 8.61 11.866 8.911 12.01 9.227C12.3489 8.9208 12.6134 8.54126 12.7834 8.11732C12.9533 7.69338 13.0242 7.23623 12.9907 6.78073C12.9571 6.32523 12.82 5.88339 12.5898 5.48892C12.3596 5.09444 12.0424 4.75774 11.6623 4.50448C11.2822 4.25122 10.8493 4.08809 10.3966 4.02752C9.94389 3.96695 9.48333 4.01055 9.05004 4.15499C8.61674 4.29944 8.22214 4.5409 7.89633 4.86099C7.57052 5.18108 7.3221 5.57133 7.17 6.002C7.522 6.013 7.866 6.057 8.198 6.131ZM12.682 10.205C13.282 10.42 13.807 10.795 14.204 11.277C14.2584 11.2329 14.303 11.1779 14.3348 11.1155C14.3666 11.053 14.385 10.9846 14.3886 10.9147C14.3923 10.8447 14.3813 10.7748 14.3562 10.7094C14.3311 10.644 14.2925 10.5846 14.243 10.535L13.536 9.828C13.4647 9.7563 13.3734 9.70789 13.274 9.68916C13.1747 9.67043 13.072 9.68226 12.9795 9.72309C12.887 9.76392 12.809 9.83184 12.7559 9.91787C12.7028 10.0039 12.677 10.104 12.682 10.205ZM14.5 6.5C14.3674 6.5 14.2402 6.55268 14.1464 6.64645C14.0527 6.74021 14 6.86739 14 7C14 7.13261 14.0527 7.25979 14.1464 7.35355C14.2402 7.44732 14.3674 7.5 14.5 7.5H15.5C15.6326 7.5 15.7598 7.44732 15.8536 7.35355C15.9473 7.25979 16 7.13261 16 7C16 6.86739 15.9473 6.74021 15.8536 6.64645C15.7598 6.55268 15.6326 6.5 15.5 6.5H14.5Z"/></g><defs><clipPath id="clip0_104_1414"><rect width="16" height="16"/></clipPath></defs></svg>