<svg width="16" height="16" viewBox="0 0 16 16" xmlns="http://www.w3.org/2000/svg" fill='currentColor'><path fill-rule="evenodd" clip-rule="evenodd" d="M7.646 10.854C7.69244 10.9006 7.74762 10.9375 7.80836 10.9627C7.86911 10.9879 7.93423 11.0009 8 11.0009C8.06577 11.0009 8.13089 10.9879 8.19163 10.9627C8.25238 10.9375 8.30755 10.9006 8.354 10.854L10.354 8.854C10.4005 8.80751 10.4374 8.75232 10.4625 8.69158C10.4877 8.63084 10.5006 8.56574 10.5006 8.5C10.5006 8.43426 10.4877 8.36916 10.4625 8.30842C10.4374 8.24768 10.4005 8.19249 10.354 8.146C10.3075 8.09951 10.2523 8.06264 10.1916 8.03748C10.1308 8.01232 10.0657 7.99937 10 7.99937C9.93425 7.99937 9.86915 8.01232 9.80841 8.03748C9.74768 8.06264 9.69249 8.09951 9.646 8.146L8.5 9.293V5.5C8.5 5.36739 8.44732 5.24021 8.35355 5.14645C8.25978 5.05268 8.13261 5 8 5C7.86739 5 7.74021 5.05268 7.64645 5.14645C7.55268 5.24021 7.5 5.36739 7.5 5.5V9.293L6.354 8.146C6.26011 8.05211 6.13277 7.99937 6 7.99937C5.86722 7.99937 5.73989 8.05211 5.646 8.146C5.55211 8.23989 5.49937 8.36722 5.49937 8.5C5.49937 8.63278 5.55211 8.76011 5.646 8.854L7.646 10.854Z"/><path d="M4.406 3.342C5.40548 2.48014 6.68024 2.00414 8 2C10.69 2 12.923 4 13.166 6.579C14.758 6.804 16 8.137 16 9.773C16 11.569 14.502 13 12.687 13H3.781C1.708 13 0 11.366 0 9.318C0 7.555 1.266 6.095 2.942 5.725C3.085 4.862 3.64 4.002 4.406 3.342ZM5.059 4.099C4.302 4.752 3.906 5.539 3.906 6.155V6.603L3.461 6.652C2.064 6.805 1 7.952 1 9.318C1 10.785 2.23 12 3.781 12H12.687C13.98 12 15 10.988 15 9.773C15 8.557 13.98 7.545 12.687 7.545H12.187V7.045C12.188 4.825 10.328 3 8 3C6.91988 3.00431 5.87684 3.39443 5.059 4.1V4.099Z"/></svg>