<svg width="16" height="16" viewBox="0 0 16 16" xmlns="http://www.w3.org/2000/svg" fill='currentColor'><g clip-path="url(#clip0_104_1403)"><path d="M13.405 4.02698C13.1973 2.98015 12.6602 2.02719 11.8722 1.30746C11.0842 0.587731 10.0866 0.13897 9.02523 0.0267924C7.9639 -0.0853848 6.89452 0.144906 5.97345 0.683993C5.05237 1.22308 4.32791 2.04269 3.90598 3.02298C3.43282 2.96848 2.95351 3.01111 2.4974 3.14829C2.04129 3.28547 1.61798 3.51429 1.25338 3.82076C0.888782 4.12723 0.590571 4.50488 0.377005 4.93061C0.163439 5.35634 0.0390124 5.82118 0.0113432 6.29666C-0.0163259 6.77215 0.0533446 7.24828 0.216089 7.69591C0.378834 8.14353 0.631228 8.55323 0.957818 8.89992C1.28441 9.24661 1.67832 9.52299 2.11544 9.71214C2.55256 9.9013 3.02369 9.99924 3.49998 9.99998H13C13.7611 10.0009 14.4941 9.7124 15.0505 9.19306C15.6069 8.67371 15.9451 7.9623 15.9965 7.20294C16.048 6.44357 15.809 5.69302 15.3278 5.10332C14.8466 4.51362 14.1592 4.12886 13.405 4.02698ZM8.49998 0.999984C9.48394 0.99978 10.4335 1.36225 11.167 2.0181C11.9005 2.67394 12.3665 3.57714 12.476 4.55498C12.4896 4.67784 12.5482 4.79131 12.6405 4.87349C12.7329 4.95567 12.8524 5.00073 12.976 4.99998H13C13.5304 4.99998 14.0391 5.2107 14.4142 5.58577C14.7893 5.96084 15 6.46955 15 6.99998C15 7.53042 14.7893 8.03912 14.4142 8.4142C14.0391 8.78927 13.5304 8.99998 13 8.99998H3.49998C3.14606 8.99981 2.7962 8.92448 2.47356 8.779C2.15092 8.63351 1.86285 8.42118 1.6284 8.15604C1.39395 7.8909 1.21847 7.57901 1.11357 7.24098C1.00866 6.90296 0.976727 6.54652 1.01987 6.19523C1.06302 5.84394 1.18026 5.50582 1.36384 5.20323C1.54742 4.90064 1.79316 4.64048 2.0848 4.43995C2.37644 4.23943 2.70733 4.10311 3.05559 4.04002C3.40385 3.97693 3.76153 3.98851 4.10498 4.07398C4.22751 4.10455 4.35707 4.08761 4.46762 4.02658C4.57818 3.96555 4.66155 3.86495 4.70098 3.74498C4.96526 2.94616 5.4746 2.25095 6.1566 1.75816C6.8386 1.26538 7.65858 1.00008 8.49998 0.999984ZM2.37498 13.5C2.44129 13.5 2.50488 13.5263 2.55176 13.5732C2.59864 13.6201 2.62498 13.6837 2.62498 13.75V14.32L3.12598 14.033C3.18341 14.0019 3.2507 13.9946 3.31348 14.0125C3.37625 14.0304 3.42952 14.0722 3.46191 14.1289C3.4943 14.1856 3.50323 14.2527 3.4868 14.3158C3.47037 14.379 3.42988 14.4333 3.37398 14.467L2.87898 14.75L3.37398 15.033C3.42988 15.0667 3.47037 15.1209 3.4868 15.1841C3.50323 15.2473 3.4943 15.3144 3.46191 15.3711C3.42952 15.4278 3.37625 15.4695 3.31348 15.4874C3.2507 15.5054 3.18341 15.498 3.12598 15.467L2.62498 15.181V15.75C2.62498 15.8163 2.59864 15.8799 2.55176 15.9268C2.50488 15.9736 2.44129 16 2.37498 16C2.30868 16 2.24509 15.9736 2.19821 15.9268C2.15132 15.8799 2.12498 15.8163 2.12498 15.75V15.18L1.62398 15.467C1.56655 15.498 1.49926 15.5054 1.43649 15.4874C1.37372 15.4695 1.32045 15.4278 1.28806 15.3711C1.25567 15.3144 1.24674 15.2473 1.26317 15.1841C1.2796 15.1209 1.32009 15.0667 1.37598 15.033L1.87098 14.75L1.37598 14.467C1.32009 14.4333 1.2796 14.379 1.26317 14.3158C1.24674 14.2527 1.25567 14.1856 1.28806 14.1289C1.32045 14.0722 1.37372 14.0304 1.43649 14.0125C1.49926 13.9946 1.56655 14.0019 1.62398 14.033L2.12498 14.319V13.75C2.12498 13.6837 2.15132 13.6201 2.19821 13.5732C2.24509 13.5263 2.30868 13.5 2.37498 13.5ZM4.22398 11.053C4.34227 11.1124 4.43217 11.2163 4.47398 11.3419C4.51578 11.4675 4.50607 11.6045 4.44698 11.723L3.94698 12.723C3.9189 12.7838 3.8789 12.8383 3.82934 12.8833C3.77979 12.9284 3.72169 12.963 3.6585 12.9851C3.59531 13.0073 3.52831 13.0165 3.46148 13.0123C3.39466 13.0081 3.32936 12.9905 3.26947 12.9605C3.20957 12.9306 3.15631 12.8889 3.11283 12.838C3.06935 12.7871 3.03654 12.7279 3.01635 12.6641C2.99615 12.6002 2.98899 12.533 2.99529 12.4663C3.00158 12.3996 3.0212 12.3349 3.05298 12.276L3.55298 11.276C3.6124 11.1577 3.71629 11.0678 3.84189 11.026C3.96748 10.9842 4.10453 10.9939 4.22298 11.053H4.22398ZM6.37498 13.5C6.44129 13.5 6.50488 13.5263 6.55176 13.5732C6.59864 13.6201 6.62498 13.6837 6.62498 13.75V14.32L7.12598 14.033C7.18341 14.0019 7.2507 13.9946 7.31348 14.0125C7.37625 14.0304 7.42952 14.0722 7.46191 14.1289C7.4943 14.1856 7.50323 14.2527 7.4868 14.3158C7.47037 14.379 7.42988 14.4333 7.37398 14.467L6.87898 14.75L7.37398 15.033C7.42988 15.0667 7.47037 15.1209 7.4868 15.1841C7.50323 15.2473 7.4943 15.3144 7.46191 15.3711C7.42952 15.4278 7.37625 15.4695 7.31348 15.4874C7.2507 15.5054 7.18341 15.498 7.12598 15.467L6.62498 15.181V15.75C6.62498 15.8163 6.59864 15.8799 6.55176 15.9268C6.50488 15.9736 6.44129 16 6.37498 16C6.30868 16 6.24509 15.9736 6.19821 15.9268C6.15132 15.8799 6.12498 15.8163 6.12498 15.75V15.18L5.62398 15.467C5.56655 15.498 5.49926 15.5054 5.43649 15.4874C5.37372 15.4695 5.32045 15.4278 5.28806 15.3711C5.25567 15.3144 5.24674 15.2473 5.26317 15.1841C5.2796 15.1209 5.32009 15.0667 5.37598 15.033L5.87098 14.75L5.37598 14.467C5.32009 14.4333 5.2796 14.379 5.26317 14.3158C5.24674 14.2527 5.25567 14.1856 5.28806 14.1289C5.32045 14.0722 5.37372 14.0304 5.43649 14.0125C5.49926 13.9946 5.56655 14.0019 5.62398 14.033L6.12498 14.319V13.75C6.12498 13.6837 6.15132 13.6201 6.19821 13.5732C6.24509 13.5263 6.30868 13.5 6.37498 13.5ZM8.22398 11.053C8.34227 11.1124 8.43217 11.2163 8.47398 11.3419C8.51578 11.4675 8.50607 11.6045 8.44698 11.723L7.94698 12.723C7.9189 12.7838 7.8789 12.8383 7.82934 12.8833C7.77979 12.9284 7.72169 12.963 7.6585 12.9851C7.59531 13.0073 7.52831 13.0165 7.46148 13.0123C7.39466 13.0081 7.32936 12.9905 7.26947 12.9605C7.20957 12.9306 7.15631 12.8889 7.11283 12.838C7.06935 12.7871 7.03654 12.7279 7.01635 12.6641C6.99615 12.6002 6.98899 12.533 6.99529 12.4663C7.00158 12.3996 7.0212 12.3349 7.05298 12.276L7.55298 11.276C7.6124 11.1577 7.71629 11.0678 7.84189 11.026C7.96748 10.9842 8.10453 10.9939 8.22298 11.053H8.22398ZM10.375 13.5C10.4413 13.5 10.5049 13.5263 10.5518 13.5732C10.5986 13.6201 10.625 13.6837 10.625 13.75V14.32L11.126 14.033C11.1834 14.0019 11.2507 13.9946 11.3135 14.0125C11.3762 14.0304 11.4295 14.0722 11.4619 14.1289C11.4943 14.1856 11.5032 14.2527 11.4868 14.3158C11.4704 14.379 11.4299 14.4333 11.374 14.467L10.879 14.75L11.374 15.033C11.4299 15.0667 11.4704 15.1209 11.4868 15.1841C11.5032 15.2473 11.4943 15.3144 11.4619 15.3711C11.4295 15.4278 11.3762 15.4695 11.3135 15.4874C11.2507 15.5054 11.1834 15.498 11.126 15.467L10.625 15.181V15.75C10.625 15.8163 10.5986 15.8799 10.5518 15.9268C10.5049 15.9736 10.4413 16 10.375 16C10.3087 16 10.2451 15.9736 10.1982 15.9268C10.1513 15.8799 10.125 15.8163 10.125 15.75V15.18L9.62398 15.467C9.56655 15.498 9.49926 15.5054 9.43649 15.4874C9.37372 15.4695 9.32045 15.4278 9.28806 15.3711C9.25567 15.3144 9.24674 15.2473 9.26317 15.1841C9.2796 15.1209 9.32009 15.0667 9.37598 15.033L9.87098 14.75L9.37598 14.467C9.32009 14.4333 9.2796 14.379 9.26317 14.3158C9.24674 14.2527 9.25567 14.1856 9.28806 14.1289C9.32045 14.0722 9.37372 14.0304 9.43649 14.0125C9.49926 13.9946 9.56655 14.0019 9.62398 14.033L10.125 14.319V13.75C10.125 13.6837 10.1513 13.6201 10.1982 13.5732C10.2451 13.5263 10.3087 13.5 10.375 13.5ZM12.224 11.053C12.3423 11.1124 12.4322 11.2163 12.474 11.3419C12.5158 11.4675 12.5061 11.6045 12.447 11.723L11.947 12.723C11.9189 12.7838 11.8789 12.8383 11.8293 12.8833C11.7798 12.9284 11.7217 12.963 11.6585 12.9851C11.5953 13.0073 11.5283 13.0165 11.4615 13.0123C11.3947 13.0081 11.3294 12.9905 11.2695 12.9605C11.2096 12.9306 11.1563 12.8889 11.1128 12.838C11.0693 12.7871 11.0365 12.7279 11.0163 12.6641C10.9962 12.6002 10.989 12.533 10.9953 12.4663C11.0016 12.3996 11.0212 12.3349 11.053 12.276L11.553 11.276C11.6124 11.1577 11.7163 11.0678 11.8419 11.026C11.9675 10.9842 12.1045 10.9939 12.223 11.053H12.224Z"/></g><defs><clipPath id="clip0_104_1403"><rect width="16" height="16"/></clipPath></defs></svg>