<svg width="16" height="16" viewBox="0 0 16 16" fill="none" xmlns="http://www.w3.org/2000/svg">
<g clip-path="url(#clip0_104_1405)">
<path d="M2.37498 13.5C2.44129 13.5 2.50488 13.5263 2.55176 13.5732C2.59864 13.6201 2.62498 13.6837 2.62498 13.75V14.32L3.12598 14.033C3.18341 14.0019 3.2507 13.9946 3.31348 14.0125C3.37625 14.0304 3.42952 14.0722 3.46191 14.1289C3.4943 14.1856 3.50323 14.2527 3.4868 14.3158C3.47037 14.379 3.42988 14.4333 3.37398 14.467L2.87898 14.75L3.37398 15.033C3.4033 15.0488 3.42916 15.0704 3.45003 15.0964C3.4709 15.1223 3.48637 15.1522 3.49552 15.1843C3.50467 15.2163 3.50731 15.2499 3.50331 15.283C3.4993 15.3161 3.48872 15.348 3.47218 15.377C3.45565 15.4059 3.43349 15.4312 3.40702 15.4515C3.38055 15.4717 3.3503 15.4865 3.31804 15.4949C3.28579 15.5033 3.25218 15.5051 3.2192 15.5003C3.18621 15.4955 3.15452 15.4842 3.12598 15.467L2.62498 15.181V15.75C2.62498 15.8163 2.59864 15.8799 2.55176 15.9268C2.50488 15.9736 2.44129 16 2.37498 16C2.30868 16 2.24509 15.9736 2.19821 15.9268C2.15132 15.8799 2.12498 15.8163 2.12498 15.75V15.18L1.62398 15.467C1.59545 15.4842 1.56375 15.4955 1.53077 15.5003C1.49779 15.5051 1.46418 15.5033 1.43193 15.4949C1.39967 15.4865 1.36942 15.4717 1.34295 15.4515C1.31648 15.4312 1.29432 15.4059 1.27779 15.377C1.26125 15.348 1.25067 15.3161 1.24666 15.283C1.24265 15.2499 1.2453 15.2163 1.25445 15.1843C1.2636 15.1522 1.27907 15.1223 1.29994 15.0964C1.32081 15.0704 1.34666 15.0488 1.37598 15.033L1.87098 14.75L1.37598 14.467C1.34666 14.4511 1.32081 14.4296 1.29994 14.4036C1.27907 14.3776 1.2636 14.3477 1.25445 14.3157C1.2453 14.2836 1.24265 14.2501 1.24666 14.217C1.25067 14.1839 1.26125 14.152 1.27779 14.123C1.29432 14.0941 1.31648 14.0687 1.34295 14.0485C1.36942 14.0282 1.39967 14.0135 1.43193 14.0051C1.46418 13.9967 1.49779 13.9949 1.53077 13.9996C1.56375 14.0044 1.59545 14.0158 1.62398 14.033L2.12498 14.319V13.75C2.12498 13.6837 2.15132 13.6201 2.19821 13.5732C2.24509 13.5263 2.30868 13.5 2.37498 13.5ZM4.22398 11.053C4.34227 11.1124 4.43217 11.2163 4.47398 11.3419C4.51578 11.4675 4.50607 11.6045 4.44698 11.723L3.94698 12.723C3.88531 12.8373 3.78154 12.9232 3.65766 12.9624C3.53377 13.0016 3.3995 12.991 3.28329 12.9329C3.16707 12.8748 3.07804 12.7737 3.03505 12.6511C2.99206 12.5285 2.9985 12.3939 3.05298 12.276L3.55298 11.276C3.6124 11.1577 3.71629 11.0678 3.84189 11.026C3.96748 10.9842 4.10453 10.9939 4.22298 11.053H4.22398ZM6.37498 13.5C6.44129 13.5 6.50488 13.5263 6.55176 13.5732C6.59864 13.6201 6.62498 13.6837 6.62498 13.75V14.32L7.12498 14.033C7.18254 14 7.25085 13.9912 7.31489 14.0085C7.37893 14.0259 7.43346 14.0679 7.46648 14.1255C7.4995 14.183 7.50831 14.2513 7.49096 14.3154C7.47361 14.3794 7.43154 14.434 7.37398 14.467L6.87898 14.75L7.37398 15.033C7.4033 15.0488 7.42916 15.0704 7.45003 15.0964C7.4709 15.1223 7.48637 15.1522 7.49552 15.1843C7.50467 15.2163 7.50731 15.2499 7.50331 15.283C7.4993 15.3161 7.48872 15.348 7.47218 15.377C7.45565 15.4059 7.43349 15.4312 7.40702 15.4515C7.38055 15.4717 7.3503 15.4865 7.31804 15.4949C7.28579 15.5033 7.25218 15.5051 7.2192 15.5003C7.18621 15.4955 7.15452 15.4842 7.12598 15.467L6.62498 15.181V15.75C6.62498 15.8163 6.59864 15.8799 6.55176 15.9268C6.50488 15.9736 6.44129 16 6.37498 16C6.30868 16 6.24509 15.9736 6.19821 15.9268C6.15132 15.8799 6.12498 15.8163 6.12498 15.75V15.18L5.62398 15.467C5.59545 15.4842 5.56375 15.4955 5.53077 15.5003C5.49779 15.5051 5.46418 15.5033 5.43193 15.4949C5.39967 15.4865 5.36942 15.4717 5.34295 15.4515C5.31648 15.4312 5.29432 15.4059 5.27779 15.377C5.26125 15.348 5.25067 15.3161 5.24666 15.283C5.24265 15.2499 5.2453 15.2163 5.25445 15.1843C5.2636 15.1522 5.27907 15.1223 5.29994 15.0964C5.32081 15.0704 5.34666 15.0488 5.37598 15.033L5.87098 14.75L5.37598 14.467C5.34666 14.4511 5.32081 14.4296 5.29994 14.4036C5.27907 14.3776 5.2636 14.3477 5.25445 14.3157C5.2453 14.2836 5.24265 14.2501 5.24666 14.217C5.25067 14.1839 5.26125 14.152 5.27779 14.123C5.29432 14.0941 5.31648 14.0687 5.34295 14.0485C5.36942 14.0282 5.39967 14.0135 5.43193 14.0051C5.46418 13.9967 5.49779 13.9949 5.53077 13.9996C5.56375 14.0044 5.59545 14.0158 5.62398 14.033L6.12498 14.319V13.75C6.12498 13.6837 6.15132 13.6201 6.19821 13.5732C6.24509 13.5263 6.30868 13.5 6.37498 13.5ZM8.22398 11.053C8.34227 11.1124 8.43217 11.2163 8.47398 11.3419C8.51578 11.4675 8.50607 11.6045 8.44698 11.723L7.94698 12.723C7.88531 12.8373 7.78154 12.9232 7.65766 12.9624C7.53377 13.0016 7.3995 12.991 7.28329 12.9329C7.16707 12.8748 7.07804 12.7737 7.03505 12.6511C6.99206 12.5285 6.9985 12.3939 7.05298 12.276L7.55298 11.276C7.6124 11.1577 7.71629 11.0678 7.84189 11.026C7.96748 10.9842 8.10453 10.9939 8.22298 11.053H8.22398ZM10.375 13.5C10.4413 13.5 10.5049 13.5263 10.5518 13.5732C10.5986 13.6201 10.625 13.6837 10.625 13.75V14.32L11.125 14.033C11.1535 14.0166 11.1849 14.0061 11.2175 14.0019C11.2501 13.9977 11.2832 13.9999 11.3149 14.0085C11.3466 14.0171 11.3763 14.0318 11.4023 14.0519C11.4283 14.072 11.4501 14.097 11.4665 14.1255C11.4828 14.154 11.4934 14.1854 11.4976 14.218C11.5018 14.2506 11.4996 14.2837 11.491 14.3154C11.4824 14.3471 11.4676 14.3768 11.4475 14.4028C11.4275 14.4288 11.4025 14.4506 11.374 14.467L10.879 14.75L11.374 15.033C11.4033 15.0488 11.4292 15.0704 11.45 15.0964C11.4709 15.1223 11.4864 15.1522 11.4955 15.1843C11.5047 15.2163 11.5073 15.2499 11.5033 15.283C11.4993 15.3161 11.4887 15.348 11.4722 15.377C11.4556 15.4059 11.4335 15.4312 11.407 15.4515C11.3805 15.4717 11.3503 15.4865 11.318 15.4949C11.2858 15.5033 11.2522 15.5051 11.2192 15.5003C11.1862 15.4955 11.1545 15.4842 11.126 15.467L10.625 15.181V15.75C10.625 15.8163 10.5986 15.8799 10.5518 15.9268C10.5049 15.9736 10.4413 16 10.375 16C10.3087 16 10.2451 15.9736 10.1982 15.9268C10.1513 15.8799 10.125 15.8163 10.125 15.75V15.18L9.62398 15.467C9.59545 15.4842 9.56375 15.4955 9.53077 15.5003C9.49779 15.5051 9.46418 15.5033 9.43193 15.4949C9.39967 15.4865 9.36942 15.4717 9.34295 15.4515C9.31648 15.4312 9.29432 15.4059 9.27779 15.377C9.26125 15.348 9.25067 15.3161 9.24666 15.283C9.24265 15.2499 9.2453 15.2163 9.25445 15.1843C9.2636 15.1522 9.27907 15.1223 9.29994 15.0964C9.32081 15.0704 9.34666 15.0488 9.37598 15.033L9.87098 14.75L9.37598 14.467C9.34666 14.4511 9.32081 14.4296 9.29994 14.4036C9.27907 14.3776 9.2636 14.3477 9.25445 14.3157C9.2453 14.2836 9.24265 14.2501 9.24666 14.217C9.25067 14.1839 9.26125 14.152 9.27779 14.123C9.29432 14.0941 9.31648 14.0687 9.34295 14.0485C9.36942 14.0282 9.39967 14.0135 9.43193 14.0051C9.46418 13.9967 9.49779 13.9949 9.53077 13.9996C9.56375 14.0044 9.59545 14.0158 9.62398 14.033L10.125 14.319V13.75C10.125 13.6837 10.1513 13.6201 10.1982 13.5732C10.2451 13.5263 10.3087 13.5 10.375 13.5ZM12.224 11.053C12.3423 11.1124 12.4322 11.2163 12.474 11.3419C12.5158 11.4675 12.5061 11.6045 12.447 11.723L11.947 12.723C11.9189 12.7838 11.8789 12.8383 11.8293 12.8833C11.7798 12.9284 11.7217 12.963 11.6585 12.9851C11.5953 13.0073 11.5283 13.0165 11.4615 13.0123C11.3947 13.0081 11.3294 12.9905 11.2695 12.9605C11.2096 12.9306 11.1563 12.8889 11.1128 12.838C11.0693 12.7871 11.0365 12.7279 11.0163 12.6641C10.9962 12.6002 10.989 12.533 10.9953 12.4663C11.0016 12.3996 11.0212 12.3349 11.053 12.276L11.553 11.276C11.6124 11.1577 11.7163 11.0678 11.8419 11.026C11.9675 10.9842 12.1045 10.9939 12.223 11.053H12.224ZM13.405 4.02698C13.1973 2.98015 12.6602 2.02719 11.8722 1.30746C11.0842 0.587731 10.0866 0.13897 9.02523 0.0267924C7.9639 -0.0853848 6.89452 0.144906 5.97345 0.683993C5.05237 1.22308 4.32791 2.04269 3.90598 3.02298C3.43282 2.96848 2.95351 3.01111 2.4974 3.14829C2.04129 3.28547 1.61798 3.51429 1.25338 3.82076C0.888782 4.12723 0.590571 4.50488 0.377005 4.93061C0.163439 5.35634 0.0390124 5.82118 0.0113432 6.29666C-0.0163259 6.77215 0.0533446 7.24828 0.216089 7.69591C0.378834 8.14353 0.631228 8.55323 0.957818 8.89992C1.28441 9.24661 1.67832 9.52299 2.11544 9.71214C2.55256 9.9013 3.02369 9.99924 3.49998 9.99998H13C13.7611 10.0009 14.4941 9.7124 15.0505 9.19306C15.6069 8.67371 15.9451 7.9623 15.9965 7.20294C16.048 6.44357 15.809 5.69302 15.3278 5.10332C14.8466 4.51362 14.1592 4.12886 13.405 4.02698Z" fill="black"/>
</g>
<defs>
<clipPath id="clip0_104_1405">
<rect width="16" height="16" fill="white"/>
</clipPath>
</defs>
</svg>
