<svg width="16" height="16" viewBox="0 0 16 16" fill="none" xmlns="http://www.w3.org/2000/svg">
<path fill-rule="evenodd" clip-rule="evenodd" d="M10.354 6.14598C10.4006 6.19242 10.4375 6.2476 10.4627 6.30834C10.4879 6.36909 10.5009 6.43421 10.5009 6.49998C10.5009 6.56575 10.4879 6.63087 10.4627 6.69161C10.4375 6.75236 10.4006 6.80753 10.354 6.85398L7.35401 9.85398C7.30756 9.90054 7.25239 9.93748 7.19164 9.96269C7.13089 9.9879 7.06577 10.0009 7.00001 10.0009C6.93424 10.0009 6.86912 9.9879 6.80837 9.96269C6.74763 9.93748 6.69245 9.90054 6.64601 9.85398L5.14601 8.35398C5.09952 8.30749 5.06264 8.2523 5.03748 8.19156C5.01232 8.13082 4.99937 8.06572 4.99937 7.99998C4.99937 7.93423 5.01232 7.86913 5.03748 7.80839C5.06264 7.74766 5.09952 7.69247 5.14601 7.64598C5.19249 7.59949 5.24768 7.56261 5.30842 7.53745C5.36916 7.5123 5.43426 7.49935 5.50001 7.49935C5.56575 7.49935 5.63085 7.5123 5.69159 7.53745C5.75233 7.56261 5.80752 7.59949 5.85401 7.64598L7.00001 8.79298L9.64601 6.14598C9.69245 6.09941 9.74763 6.06247 9.80837 6.03727C9.86912 6.01206 9.93424 5.99908 10 5.99908C10.0658 5.99908 10.1309 6.01206 10.1916 6.03727C10.2524 6.06247 10.3076 6.09941 10.354 6.14598Z" fill="black"/>
<path d="M4.406 3.342C5.40548 2.48014 6.68024 2.00414 8 2C10.69 2 12.923 4 13.166 6.579C14.758 6.804 16 8.137 16 9.773C16 11.569 14.502 13 12.687 13H3.781C1.708 13 0 11.366 0 9.318C0 7.555 1.266 6.095 2.942 5.725C3.085 4.862 3.64 4.002 4.406 3.342ZM5.059 4.099C4.302 4.752 3.906 5.539 3.906 6.155V6.603L3.461 6.652C2.064 6.805 1 7.952 1 9.318C1 10.785 2.23 12 3.781 12H12.687C13.98 12 15 10.988 15 9.773C15 8.557 13.98 7.545 12.687 7.545H12.187V7.045C12.188 4.825 10.328 3 8 3C6.91988 3.00431 5.87684 3.39443 5.059 4.1V4.099Z" fill="black"/>
</svg>
