<svg width="24" height="24" viewBox="0 0 24 24" xmlns="http://www.w3.org/2000/svg" fill='currentColor'><path d="M19.5 14.98C19.48 14.98 19.47 14.98 19.45 14.99C19.2 13.3 17.76 12 16 12C14.6 12 13.4 12.83 12.84 14.02C11.26 14.1 10 15.4 10 17C10 18.66 11.34 20 13 20L19.5 19.98C20.88 19.98 22 18.86 22 17.48C22 16.1 20.88 14.98 19.5 14.98ZM8 4.26V6.35C5.67 7.18 4 9.39 4 12C4 13.77 4.78 15.34 6 16.44V14H8V20H2V18H4.73C3.06 16.54 2 14.4 2 12C2 8.27 4.55 5.15 8 4.26ZM18 6H15.27C16.7 7.26 17.68 9.01 17.93 11H15.91C15.68 9.64 14.98 8.45 14 7.56V10H12V4H18V6Z"/></svg>