<svg width="16" height="16" viewBox="0 0 16 16" fill="none" xmlns="http://www.w3.org/2000/svg">
<g clip-path="url(#clip0_104_1362)">
<path d="M7.053 11.276C7.09456 11.193 7.15839 11.1233 7.23733 11.0745C7.31627 11.0258 7.40722 11 7.5 11H8.5C8.57918 11 8.65722 11.0189 8.72769 11.055C8.79815 11.0911 8.85903 11.1435 8.90532 11.2077C8.9516 11.272 8.98196 11.3463 8.9939 11.4246C9.00584 11.5029 8.99902 11.5829 8.974 11.658L8.694 12.5H9.5C9.59408 12.5001 9.68622 12.5268 9.76582 12.5769C9.84543 12.6271 9.90926 12.6987 9.95 12.7835C9.99073 12.8683 10.0067 12.9629 9.9961 13.0564C9.98548 13.1499 9.94871 13.2385 9.89 13.312L7.89 15.812C7.81864 15.9006 7.71918 15.9623 7.60804 15.9868C7.49691 16.0112 7.38075 15.9971 7.27876 15.9466C7.17676 15.8961 7.09504 15.8124 7.04708 15.7092C6.99913 15.606 6.98781 15.4895 7.015 15.379L7.36 14H6.5C6.41473 14 6.33089 13.9782 6.25643 13.9366C6.18196 13.8951 6.11936 13.8352 6.07457 13.7627C6.02978 13.6901 6.00428 13.6073 6.00051 13.5221C5.99673 13.4369 6.0148 13.3522 6.053 13.276L7.053 11.276ZM13.405 4.02698C13.1973 2.98015 12.6602 2.02719 11.8722 1.30746C11.0842 0.587731 10.0866 0.13897 9.02524 0.0267924C7.96392 -0.0853848 6.89454 0.144906 5.97346 0.683993C5.05239 1.22308 4.32792 2.04269 3.906 3.02298C3.43284 2.96848 2.95353 3.01111 2.49742 3.14829C2.04131 3.28547 1.61799 3.51429 1.2534 3.82076C0.888798 4.12723 0.590586 4.50488 0.37702 4.93061C0.163454 5.35634 0.0390277 5.82118 0.0113585 6.29666C-0.0163107 6.77215 0.0533598 7.24828 0.216104 7.69591C0.378849 8.14353 0.631243 8.55323 0.957834 8.89992C1.28442 9.24661 1.67834 9.52299 2.11546 9.71214C2.55258 9.9013 3.02371 9.99924 3.5 9.99998H13C13.7611 10.0009 14.4941 9.7124 15.0505 9.19306C15.6069 8.67371 15.9451 7.9623 15.9966 7.20294C16.048 6.44357 15.809 5.69302 15.3278 5.10332C14.8466 4.51362 14.1593 4.12886 13.405 4.02698Z" fill="black"/>
</g>
<defs>
<clipPath id="clip0_104_1362">
<rect width="16" height="16" fill="white"/>
</clipPath>
</defs>
</svg>
