<svg width="16" height="16" viewBox="0 0 16 16" xmlns="http://www.w3.org/2000/svg" fill='currentColor'><g clip-path="url(#clip0_104_1388)"><path d="M4.17601 11.032C4.29989 11.0787 4.4002 11.1726 4.45494 11.2931C4.50968 11.4137 4.51438 11.551 4.46801 11.675L2.96801 15.675C2.94684 15.7388 2.91301 15.7977 2.86856 15.8481C2.8241 15.8986 2.76992 15.9395 2.70927 15.9686C2.64862 15.9976 2.58274 16.0141 2.51556 16.017C2.44839 16.02 2.38131 16.0094 2.31833 15.9859C2.25535 15.9623 2.19777 15.9263 2.14903 15.88C2.10029 15.8337 2.06139 15.778 2.03466 15.7163C2.00793 15.6546 1.99392 15.5881 1.99346 15.5209C1.99301 15.4537 2.00612 15.387 2.03201 15.325L3.53201 11.325C3.55503 11.2634 3.58995 11.207 3.63478 11.159C3.67961 11.1109 3.73347 11.0722 3.79328 11.045C3.85309 11.0178 3.91768 11.0026 3.98335 11.0004C4.04903 10.9982 4.11449 11.0089 4.17601 11.032ZM7.17601 11.032C7.29989 11.0787 7.4002 11.1726 7.45494 11.2931C7.50968 11.4137 7.51438 11.551 7.46801 11.675L5.96801 15.675C5.94684 15.7388 5.91301 15.7977 5.86856 15.8481C5.8241 15.8986 5.76992 15.9395 5.70927 15.9686C5.64862 15.9976 5.58274 16.0141 5.51556 16.017C5.44839 16.02 5.38131 16.0094 5.31833 15.9859C5.25535 15.9623 5.19777 15.9263 5.14903 15.88C5.10029 15.8337 5.06139 15.778 5.03466 15.7163C5.00793 15.6546 4.99392 15.5881 4.99346 15.5209C4.99301 15.4537 5.00612 15.387 5.03201 15.325L6.53201 11.325C6.55503 11.2634 6.58995 11.207 6.63478 11.159C6.67961 11.1109 6.73347 11.0722 6.79328 11.045C6.85309 11.0178 6.91768 11.0026 6.98335 11.0004C7.04903 10.9982 7.11449 11.0089 7.17601 11.032ZM10.176 11.032C10.2999 11.0787 10.4002 11.1726 10.4549 11.2931C10.5097 11.4137 10.5144 11.551 10.468 11.675L8.96801 15.675C8.94684 15.7388 8.91301 15.7977 8.86856 15.8481C8.8241 15.8986 8.76992 15.9395 8.70927 15.9686C8.64862 15.9976 8.58274 16.0141 8.51556 16.017C8.44839 16.02 8.38131 16.0094 8.31833 15.9859C8.25535 15.9623 8.19777 15.9263 8.14903 15.88C8.10029 15.8337 8.06139 15.778 8.03466 15.7163C8.00793 15.6546 7.99392 15.5881 7.99346 15.5209C7.99301 15.4537 8.00612 15.387 8.03201 15.325L9.53201 11.325C9.55503 11.2634 9.58995 11.207 9.63478 11.159C9.67961 11.1109 9.73347 11.0722 9.79328 11.045C9.85309 11.0178 9.91768 11.0026 9.98335 11.0004C10.049 10.9982 10.1145 11.0089 10.176 11.032ZM13.176 11.032C13.2999 11.0787 13.4002 11.1726 13.4549 11.2931C13.5097 11.4137 13.5144 11.551 13.468 11.675L11.968 15.675C11.9182 15.7944 11.824 15.8898 11.7053 15.9412C11.5866 15.9927 11.4526 15.9961 11.3315 15.9508C11.2103 15.9055 11.1114 15.8149 11.0556 15.6983C10.9997 15.5816 10.9913 15.4478 11.032 15.325L12.532 11.325C12.555 11.2634 12.5899 11.207 12.6348 11.159C12.6796 11.1109 12.7335 11.0722 12.7933 11.045C12.8531 11.0178 12.9177 11.0026 12.9834 11.0004C13.049 10.9982 13.1145 11.0089 13.176 11.032ZM13.405 4.02698C13.1973 2.98015 12.6602 2.02719 11.8722 1.30746C11.0842 0.587731 10.0866 0.13897 9.02526 0.0267924C7.96393 -0.0853848 6.89455 0.144906 5.97348 0.683993C5.0524 1.22308 4.32794 2.04269 3.90601 3.02298C3.43285 2.96848 2.95354 3.01111 2.49743 3.14829C2.04132 3.28547 1.61801 3.51429 1.25341 3.82076C0.888813 4.12723 0.590602 4.50488 0.377036 4.93061C0.16347 5.35634 0.0390429 5.82118 0.0113738 6.29666C-0.0162954 6.77215 0.0533751 7.24828 0.21612 7.69591C0.378864 8.14353 0.631258 8.55323 0.957849 8.89992C1.28444 9.24661 1.67835 9.52299 2.11547 9.71214C2.55259 9.9013 3.02372 9.99924 3.50001 9.99998H13C13.7611 10.0009 14.4941 9.7124 15.0505 9.19306C15.6069 8.67371 15.9451 7.9623 15.9966 7.20294C16.0481 6.44357 15.809 5.69302 15.3278 5.10332C14.8466 4.51362 14.1593 4.12886 13.405 4.02698ZM8.50001 0.999984C9.48397 0.99978 10.4335 1.36225 11.167 2.0181C11.9005 2.67394 12.3665 3.57714 12.476 4.55498C12.4896 4.67784 12.5482 4.79131 12.6406 4.87349C12.7329 4.95567 12.8524 5.00073 12.976 4.99998H13C13.5304 4.99998 14.0392 5.2107 14.4142 5.58577C14.7893 5.96084 15 6.46955 15 6.99998C15 7.53042 14.7893 8.03912 14.4142 8.4142C14.0392 8.78927 13.5304 8.99998 13 8.99998H3.50001C3.14609 8.99981 2.79623 8.92448 2.47359 8.779C2.15095 8.63351 1.86288 8.42118 1.62843 8.15604C1.39398 7.8909 1.2185 7.57901 1.1136 7.24098C1.00869 6.90296 0.976758 6.54652 1.0199 6.19523C1.06305 5.84394 1.18029 5.50582 1.36387 5.20323C1.54745 4.90064 1.79319 4.64048 2.08483 4.43995C2.37647 4.23943 2.70736 4.10311 3.05562 4.04002C3.40388 3.97693 3.76156 3.98851 4.10501 4.07398C4.22754 4.10455 4.3571 4.08761 4.46765 4.02658C4.57821 3.96555 4.66158 3.86495 4.70101 3.74498C4.96529 2.94616 5.47463 2.25095 6.15663 1.75816C6.83863 1.26538 7.65861 1.00008 8.50001 0.999984Z"/></g><defs><clipPath id="clip0_104_1388"><rect width="16" height="16"/></clipPath></defs></svg>