<svg width="16" height="16" viewBox="0 0 16 16" fill="none" xmlns="http://www.w3.org/2000/svg">
<g clip-path="url(#clip0_104_1332)">
<path fill-rule="evenodd" clip-rule="evenodd" d="M8 0C6.68024 0.00413852 5.40548 0.480135 4.406 1.342C3.64 2.002 3.085 2.862 2.942 3.725C1.266 4.095 0 5.555 0 7.318C0 9.366 1.708 11 3.781 11H7.5V5.5C7.5 5.36739 7.55268 5.24021 7.64645 5.14645C7.74021 5.05268 7.86739 5 8 5C8.13261 5 8.25979 5.05268 8.35355 5.14645C8.44732 5.24021 8.5 5.36739 8.5 5.5V11H12.688C14.502 11 16 9.57 16 7.773C16 6.137 14.758 4.804 13.166 4.579C12.923 1.999 10.69 0 8 0ZM7.646 15.854C7.69245 15.9006 7.74762 15.9375 7.80837 15.9627C7.86911 15.9879 7.93423 16.0009 8 16.0009C8.06577 16.0009 8.13089 15.9879 8.19163 15.9627C8.25238 15.9375 8.30755 15.9006 8.354 15.854L11.354 12.854C11.4479 12.7601 11.5006 12.6328 11.5006 12.5C11.5006 12.3672 11.4479 12.2399 11.354 12.146C11.2601 12.0521 11.1328 11.9994 11 11.9994C10.8672 11.9994 10.7399 12.0521 10.646 12.146L8.5 14.293V11H7.5V14.293L5.354 12.146C5.26011 12.0521 5.13278 11.9994 5 11.9994C4.86722 11.9994 4.73989 12.0521 4.646 12.146C4.55211 12.2399 4.49937 12.3672 4.49937 12.5C4.49937 12.6328 4.55211 12.7601 4.646 12.854L7.646 15.854Z" fill="black"/>
</g>
<defs>
<clipPath id="clip0_104_1332">
<rect width="16" height="16" fill="white"/>
</clipPath>
</defs>
</svg>
