<svg width="16" height="16" viewBox="0 0 16 16" fill="none" xmlns="http://www.w3.org/2000/svg">
<g clip-path="url(#clip0_104_1346)">
<path d="M2.99998 13.5C2.99998 13.3674 3.05266 13.2402 3.14643 13.1464C3.2402 13.0527 3.36738 13 3.49998 13H12.5C12.6326 13 12.7598 13.0527 12.8535 13.1464C12.9473 13.2402 13 13.3674 13 13.5C13 13.6326 12.9473 13.7598 12.8535 13.8535C12.7598 13.9473 12.6326 14 12.5 14H3.49998C3.36738 14 3.2402 13.9473 3.14643 13.8535C3.05266 13.7598 2.99998 13.6326 2.99998 13.5ZM2.99998 15.5C2.99998 15.3674 3.05266 15.2402 3.14643 15.1464C3.2402 15.0527 3.36738 15 3.49998 15H12.5C12.6326 15 12.7598 15.0527 12.8535 15.1464C12.9473 15.2402 13 15.3674 13 15.5C13 15.6326 12.9473 15.7598 12.8535 15.8535C12.7598 15.9473 12.6326 16 12.5 16H3.49998C3.36738 16 3.2402 15.9473 3.14643 15.8535C3.05266 15.7598 2.99998 15.6326 2.99998 15.5ZM13.405 6.02698C13.1973 4.98015 12.6602 4.02719 11.8722 3.30746C11.0842 2.58773 10.0866 2.13897 9.02523 2.02679C7.9639 1.91462 6.89452 2.14491 5.97345 2.68399C5.05237 3.22308 4.32791 4.04269 3.90598 5.02298C3.43282 4.96847 2.95351 5.01111 2.4974 5.14829C2.04129 5.28547 1.61798 5.51429 1.25338 5.82076C0.888782 6.12723 0.590571 6.50488 0.377005 6.93061C0.163439 7.35634 0.0390124 7.82118 0.0113432 8.29666C-0.0163259 8.77215 0.0533446 9.24828 0.216089 9.69591C0.378834 10.1435 0.631228 10.5532 0.957818 10.8999C1.28441 11.2466 1.67832 11.523 2.11544 11.7121C2.55256 11.9013 3.02369 11.9992 3.49998 12H13C13.7611 12.0009 14.4941 11.7124 15.0505 11.1931C15.6069 10.6737 15.9451 9.9623 15.9965 9.20294C16.048 8.44357 15.809 7.69302 15.3278 7.10332C14.8466 6.51362 14.1592 6.12886 13.405 6.02698Z" fill="black"/>
</g>
<defs>
<clipPath id="clip0_104_1346">
<rect width="16" height="16" fill="white"/>
</clipPath>
</defs>
</svg>
