<svg width="16" height="16" viewBox="0 0 16 16" fill="none" xmlns="http://www.w3.org/2000/svg">
<g clip-path="url(#clip0_104_1340)">
<path d="M3.00001 13.5C3.00001 13.3674 3.05269 13.2402 3.14646 13.1464C3.24023 13.0527 3.36741 13 3.50001 13H12.5C12.6326 13 12.7598 13.0527 12.8536 13.1464C12.9473 13.2402 13 13.3674 13 13.5C13 13.6326 12.9473 13.7598 12.8536 13.8535C12.7598 13.9473 12.6326 14 12.5 14H3.50001C3.36741 14 3.24023 13.9473 3.14646 13.8535C3.05269 13.7598 3.00001 13.6326 3.00001 13.5ZM3.00001 15.5C3.00001 15.3674 3.05269 15.2402 3.14646 15.1464C3.24023 15.0527 3.36741 15 3.50001 15H12.5C12.6326 15 12.7598 15.0527 12.8536 15.1464C12.9473 15.2402 13 15.3674 13 15.5C13 15.6326 12.9473 15.7598 12.8536 15.8535C12.7598 15.9473 12.6326 16 12.5 16H3.50001C3.36741 16 3.24023 15.9473 3.14646 15.8535C3.05269 15.7598 3.00001 15.6326 3.00001 15.5ZM13.405 6.02698C13.1973 4.98015 12.6602 4.02719 11.8722 3.30746C11.0842 2.58773 10.0866 2.13897 9.02526 2.02679C7.96393 1.91462 6.89455 2.14491 5.97348 2.68399C5.0524 3.22308 4.32794 4.04269 3.90601 5.02298C3.43285 4.96847 2.95354 5.01111 2.49743 5.14829C2.04132 5.28547 1.61801 5.51429 1.25341 5.82076C0.888813 6.12723 0.590602 6.50488 0.377036 6.93061C0.16347 7.35634 0.0390429 7.82118 0.0113738 8.29666C-0.0162954 8.77215 0.0533751 9.24828 0.21612 9.69591C0.378864 10.1435 0.631258 10.5532 0.957849 10.8999C1.28444 11.2466 1.67835 11.523 2.11547 11.7121C2.55259 11.9013 3.02372 11.9992 3.50001 12H13C13.7611 12.0009 14.4941 11.7124 15.0505 11.1931C15.6069 10.6737 15.9451 9.9623 15.9966 9.20294C16.0481 8.44357 15.809 7.69302 15.3278 7.10332C14.8466 6.51362 14.1593 6.12886 13.405 6.02698ZM8.50001 2.99998C9.48397 2.99978 10.4335 3.36225 11.167 4.0181C11.9005 4.67394 12.3665 5.57714 12.476 6.55498C12.4896 6.67784 12.5482 6.79131 12.6406 6.87349C12.7329 6.95567 12.8524 7.00073 12.976 6.99998H13C13.5304 6.99998 14.0392 7.2107 14.4142 7.58577C14.7893 7.96084 15 8.46955 15 8.99998C15 9.53042 14.7893 10.0391 14.4142 10.4142C14.0392 10.7893 13.5304 11 13 11H3.50001C3.14609 10.9998 2.79623 10.9245 2.47359 10.779C2.15095 10.6335 1.86288 10.4212 1.62843 10.156C1.39398 9.8909 1.2185 9.57901 1.1136 9.24098C1.00869 8.90296 0.976758 8.54652 1.0199 8.19523C1.06305 7.84394 1.18029 7.50582 1.36387 7.20323C1.54745 6.90064 1.79319 6.64048 2.08483 6.43995C2.37647 6.23943 2.70736 6.10311 3.05562 6.04002C3.40388 5.97693 3.76156 5.98851 4.10501 6.07398C4.22754 6.10455 4.3571 6.08761 4.46765 6.02658C4.57821 5.96555 4.66158 5.86495 4.70101 5.74498C4.96529 4.94616 5.47463 4.25095 6.15663 3.75816C6.83863 3.26538 7.65861 3.00008 8.50001 2.99998Z" fill="black"/>
</g>
<defs>
<clipPath id="clip0_104_1340">
<rect width="16" height="16" fill="white"/>
</clipPath>
</defs>
</svg>
