<svg width="16" height="16" viewBox="0 0 16 16" xmlns="http://www.w3.org/2000/svg" fill='currentColor'><g clip-path="url(#clip0_104_1430)"><path d="M14 1C14.2652 1 14.5196 1.10536 14.7071 1.29289C14.8946 1.48043 15 1.73478 15 2V14C15 14.2652 14.8946 14.5196 14.7071 14.7071C14.5196 14.8946 14.2652 15 14 15H2C1.73478 15 1.48043 14.8946 1.29289 14.7071C1.10536 14.5196 1 14.2652 1 14V2C1 1.73478 1.10536 1.48043 1.29289 1.29289C1.48043 1.10536 1.73478 1 2 1H14ZM2 0C1.46957 0 0.960859 0.210714 0.585786 0.585786C0.210714 0.960859 0 1.46957 0 2L0 14C0 14.5304 0.210714 15.0391 0.585786 15.4142C0.960859 15.7893 1.46957 16 2 16H14C14.5304 16 15.0391 15.7893 15.4142 15.4142C15.7893 15.0391 16 14.5304 16 14V2C16 1.46957 15.7893 0.960859 15.4142 0.585786C15.0391 0.210714 14.5304 0 14 0L2 0Z"/><path d="M6.85399 4.64598C6.90056 4.69242 6.9375 4.7476 6.96271 4.80834C6.98791 4.86909 7.00089 4.93421 7.00089 4.99998C7.00089 5.06575 6.98791 5.13087 6.96271 5.19161C6.9375 5.25236 6.90056 5.30753 6.85399 5.35398L4.20699 7.99998L6.85399 10.646C6.94788 10.7399 7.00063 10.8672 7.00063 11C7.00063 11.1328 6.94788 11.2601 6.85399 11.354C6.76011 11.4479 6.63277 11.5006 6.49999 11.5006C6.36722 11.5006 6.23988 11.4479 6.14599 11.354L3.14599 8.35398C3.09943 8.30753 3.06249 8.25236 3.03728 8.19161C3.01207 8.13087 2.9991 8.06575 2.9991 7.99998C2.9991 7.93421 3.01207 7.86909 3.03728 7.80834C3.06249 7.7476 3.09943 7.69242 3.14599 7.64598L6.14599 4.64598C6.19244 4.59941 6.24761 4.56247 6.30836 4.53727C6.36911 4.51206 6.43423 4.49908 6.49999 4.49908C6.56576 4.49908 6.63088 4.51206 6.69163 4.53727C6.75237 4.56247 6.80755 4.59941 6.85399 4.64598ZM9.14599 4.64598C9.09943 4.69242 9.06249 4.7476 9.03728 4.80834C9.01207 4.86909 8.9991 4.93421 8.9991 4.99998C8.9991 5.06575 9.01207 5.13087 9.03728 5.19161C9.06249 5.25236 9.09943 5.30753 9.14599 5.35398L11.793 7.99998L9.14599 10.646C9.05211 10.7399 8.99936 10.8672 8.99936 11C8.99936 11.1328 9.05211 11.2601 9.14599 11.354C9.23988 11.4479 9.36722 11.5006 9.49999 11.5006C9.63277 11.5006 9.76011 11.4479 9.85399 11.354L12.854 8.35398C12.9006 8.30753 12.9375 8.25236 12.9627 8.19161C12.9879 8.13087 13.0009 8.06575 13.0009 7.99998C13.0009 7.93421 12.9879 7.86909 12.9627 7.80834C12.9375 7.7476 12.9006 7.69242 12.854 7.64598L9.85399 4.64598C9.80755 4.59941 9.75237 4.56247 9.69163 4.53727C9.63088 4.51206 9.56576 4.49908 9.49999 4.49908C9.43423 4.49908 9.36911 4.51206 9.30836 4.53727C9.24761 4.56247 9.19244 4.59941 9.14599 4.64598Z"/></g><defs><clipPath id="clip0_104_1430"><rect width="16" height="16"/></clipPath></defs></svg>