<svg width="16" height="16" viewBox="0 0 16 16" fill="none" xmlns="http://www.w3.org/2000/svg">
<g clip-path="url(#clip0_104_1444)">
<path d="M2.5 3.5C2.36739 3.5 2.24021 3.44732 2.14645 3.35355C2.05268 3.25979 2 3.13261 2 3C2 2.86739 2.05268 2.74021 2.14645 2.64645C2.24021 2.55268 2.36739 2.5 2.5 2.5H13.5C13.6326 2.5 13.7598 2.55268 13.8536 2.64645C13.9473 2.74021 14 2.86739 14 3C14 3.13261 13.9473 3.25979 13.8536 3.35355C13.7598 3.44732 13.6326 3.5 13.5 3.5H2.5ZM4.5 1.5C4.36739 1.5 4.24021 1.44732 4.14645 1.35355C4.05268 1.25979 4 1.13261 4 1C4 0.867392 4.05268 0.740215 4.14645 0.646447C4.24021 0.552678 4.36739 0.5 4.5 0.5H11.5C11.6326 0.5 11.7598 0.552678 11.8536 0.646447C11.9473 0.740215 12 0.867392 12 1C12 1.13261 11.9473 1.25979 11.8536 1.35355C11.7598 1.44732 11.6326 1.5 11.5 1.5H4.5ZM0 13C0 13.3978 0.158035 13.7794 0.43934 14.0607C0.720644 14.342 1.10218 14.5 1.5 14.5H14.5C14.8978 14.5 15.2794 14.342 15.5607 14.0607C15.842 13.7794 16 13.3978 16 13V6C16 5.60218 15.842 5.22064 15.5607 4.93934C15.2794 4.65804 14.8978 4.5 14.5 4.5H1.5C1.10218 4.5 0.720644 4.65804 0.43934 4.93934C0.158035 5.22064 0 5.60218 0 6L0 13ZM6.258 6.563C6.33599 6.51976 6.42412 6.49816 6.51327 6.50045C6.60242 6.50273 6.68933 6.52882 6.765 6.576L10.765 9.076C10.8369 9.12095 10.8962 9.18344 10.9373 9.25762C10.9784 9.33179 11 9.4152 11 9.5C11 9.5848 10.9784 9.66821 10.9373 9.74238C10.8962 9.81656 10.8369 9.87905 10.765 9.924L6.765 12.424C6.68931 12.4713 6.60235 12.4975 6.51312 12.4998C6.4239 12.5022 6.33568 12.4806 6.25762 12.4373C6.17955 12.3941 6.11449 12.3307 6.06919 12.2538C6.02389 12.1769 6 12.0893 6 12V7C6.0001 6.91076 6.02407 6.82318 6.06944 6.74634C6.11481 6.66949 6.17991 6.60619 6.258 6.563Z" fill="black"/>
</g>
<defs>
<clipPath id="clip0_104_1444">
<rect width="16" height="16" fill="white"/>
</clipPath>
</defs>
</svg>
