<svg width="16" height="16" viewBox="0 0 16 16" fill="none" xmlns="http://www.w3.org/2000/svg">
<path d="M0 2C0 1.73478 0.105357 1.48043 0.292893 1.29289C0.48043 1.10536 0.734784 1 1 1H15C15.2652 1 15.5196 1.10536 15.7071 1.29289C15.8946 1.48043 16 1.73478 16 2V14C16 14.2652 15.8946 14.5196 15.7071 14.7071C15.5196 14.8946 15.2652 15 15 15H1C0.734784 15 0.48043 14.8946 0.292893 14.7071C0.105357 14.5196 0 14.2652 0 14V2ZM8.5 2V10H15V2H8.5ZM8.5 11V14H15V11H8.5ZM7.5 2H1V5H7.5V2ZM1 14H7.5V6H1V14Z" fill="black"/>
</svg>
