<svg width="16" height="16" viewBox="0 0 16 16" xmlns="http://www.w3.org/2000/svg" fill='currentColor'><path d="M3.5 2C3.89783 2 4.27936 2.15804 4.56066 2.43934C4.84197 2.72065 5 3.10218 5 3.5V5H3.5C3.30302 5 3.10796 4.9612 2.92598 4.88582C2.74399 4.81044 2.57863 4.69995 2.43934 4.56066C2.30005 4.42137 2.18956 4.25601 2.11418 4.07403C2.0388 3.89204 2 3.69698 2 3.5C2 3.30302 2.0388 3.10796 2.11418 2.92598C2.18956 2.74399 2.30005 2.57863 2.43934 2.43934C2.57863 2.30005 2.74399 2.18956 2.92598 2.11418C3.10796 2.0388 3.30302 2 3.5 2ZM6 5V3.5C6 3.00555 5.85338 2.5222 5.57867 2.11108C5.30397 1.69995 4.91352 1.37952 4.45671 1.1903C3.99989 1.00108 3.49723 0.951575 3.01228 1.04804C2.52732 1.1445 2.08187 1.3826 1.73223 1.73223C1.3826 2.08187 1.1445 2.52732 1.04804 3.01228C0.951575 3.49723 1.00108 3.99989 1.1903 4.45671C1.37952 4.91352 1.69995 5.30397 2.11108 5.57867C2.5222 5.85338 3.00555 6 3.5 6H5V10H3.5C3.00555 10 2.5222 10.1466 2.11108 10.4213C1.69995 10.696 1.37952 11.0865 1.1903 11.5433C1.00108 12.0001 0.951575 12.5028 1.04804 12.9877C1.1445 13.4727 1.3826 13.9181 1.73223 14.2678C2.08187 14.6174 2.52732 14.8555 3.01228 14.952C3.49723 15.0484 3.99989 14.9989 4.45671 14.8097C4.91352 14.6205 5.30397 14.3 5.57867 13.8889C5.85338 13.4778 6 12.9945 6 12.5V11H10V12.5C10 12.9945 10.1466 13.4778 10.4213 13.8889C10.696 14.3 11.0865 14.6205 11.5433 14.8097C12.0001 14.9989 12.5028 15.0484 12.9877 14.952C13.4727 14.8555 13.9181 14.6174 14.2678 14.2678C14.6174 13.9181 14.8555 13.4727 14.952 12.9877C15.0484 12.5028 14.9989 12.0001 14.8097 11.5433C14.6205 11.0865 14.3 10.696 13.8889 10.4213C13.4778 10.1466 12.9945 10 12.5 10H11V6H12.5C12.9945 6 13.4778 5.85338 13.8889 5.57867C14.3 5.30397 14.6205 4.91352 14.8097 4.45671C14.9989 3.99989 15.0484 3.49723 14.952 3.01228C14.8555 2.52732 14.6174 2.08187 14.2678 1.73223C13.9181 1.3826 13.4727 1.1445 12.9877 1.04804C12.5028 0.951575 12.0001 1.00108 11.5433 1.1903C11.0865 1.37952 10.696 1.69995 10.4213 2.11108C10.1466 2.5222 10 3.00555 10 3.5V5H6ZM10 6V10H6V6H10ZM11 5V3.5C11 3.20333 11.088 2.91332 11.2528 2.66665C11.4176 2.41997 11.6519 2.22771 11.926 2.11418C12.2001 2.00065 12.5017 1.97095 12.7926 2.02882C13.0836 2.0867 13.3509 2.22956 13.5607 2.43934C13.7704 2.64912 13.9133 2.91639 13.9712 3.20737C14.0291 3.49834 13.9994 3.79994 13.8858 4.07403C13.7723 4.34812 13.58 4.58238 13.3334 4.74721C13.0867 4.91203 12.7967 5 12.5 5H11ZM11 11H12.5C12.7967 11 13.0867 11.088 13.3334 11.2528C13.58 11.4176 13.7723 11.6519 13.8858 11.926C13.9994 12.2001 14.0291 12.5017 13.9712 12.7926C13.9133 13.0836 13.7704 13.3509 13.5607 13.5607C13.3509 13.7704 13.0836 13.9133 12.7926 13.9712C12.5017 14.0291 12.2001 13.9994 11.926 13.8858C11.6519 13.7723 11.4176 13.58 11.2528 13.3334C11.088 13.0867 11 12.7967 11 12.5V11ZM5 11V12.5C5 12.7967 4.91203 13.0867 4.74721 13.3334C4.58238 13.58 4.34812 13.7723 4.07403 13.8858C3.79994 13.9994 3.49834 14.0291 3.20737 13.9712C2.91639 13.9133 2.64912 13.7704 2.43934 13.5607C2.22956 13.3509 2.0867 13.0836 2.02882 12.7926C1.97095 12.5017 2.00065 12.2001 2.11418 11.926C2.22771 11.6519 2.41997 11.4176 2.66665 11.2528C2.91332 11.088 3.20333 11 3.5 11H5Z"/></svg>