<svg width="16" height="16" viewBox="0 0 16 16" xmlns="http://www.w3.org/2000/svg" fill='currentColor'><g clip-path="url(#clip0_104_1452)"><path d="M7.99998 16.016C9.81844 16.0171 11.5754 15.3574 12.9438 14.1598C14.3122 12.9621 15.1988 11.3081 15.4388 9.50558C15.6787 7.70301 15.2555 5.87466 14.2481 4.3608C13.2406 2.84693 11.7174 1.75066 9.96198 1.276C10.0047 1.12706 10.0123 0.970208 9.98409 0.817836C9.95586 0.665464 9.8926 0.521738 9.79932 0.397999C9.70603 0.274261 9.58526 0.173896 9.44654 0.104826C9.30782 0.0357557 9.15494 -0.000130198 8.99998 3.54937e-07H6.99998C6.84501 -0.000130198 6.69214 0.0357557 6.55342 0.104826C6.4147 0.173896 6.29393 0.274261 6.20064 0.397999C6.10735 0.521738 6.04409 0.665464 6.01587 0.817836C5.98764 0.970208 5.99521 1.12706 6.03798 1.276C4.28255 1.75066 2.75937 2.84693 1.75189 4.3608C0.744406 5.87466 0.32126 7.70301 0.561194 9.50558C0.801129 11.3081 1.6878 12.9621 3.0562 14.1598C4.4246 15.3574 6.18151 16.0171 7.99998 16.016ZM14.5 8.516C14.5 10.2399 13.8152 11.8932 12.5962 13.1122C11.3772 14.3312 9.72388 15.016 7.99998 15.016C6.27607 15.016 4.62277 14.3312 3.40378 13.1122C2.1848 11.8932 1.49998 10.2399 1.49998 8.516C1.49998 6.79209 2.1848 5.13879 3.40378 3.91981C4.62277 2.70082 6.27607 2.016 7.99998 2.016C9.72388 2.016 11.3772 2.70082 12.5962 3.91981C13.8152 5.13879 14.5 6.79209 14.5 8.516Z"/><path d="M6.94002 7.43999L11.89 4.60999L9.06002 9.55999L4.11102 12.39L6.93902 7.43999H6.94002Z"/></g><defs><clipPath id="clip0_104_1452"><rect width="16" height="16"/></clipPath></defs></svg>