<svg width="16" height="16" viewBox="0 0 16 16" fill="none" xmlns="http://www.w3.org/2000/svg">
<g clip-path="url(#clip0_104_1455)">
<path d="M15.5 8.516C15.4998 9.91488 15.1083 11.2858 14.3699 12.4739C13.6315 13.662 12.5755 14.6199 11.3212 15.2394C10.067 15.8588 8.66448 16.1152 7.2722 15.9794C5.87993 15.8437 4.55336 15.3213 3.4424 14.4712C2.33143 13.6211 1.48035 12.4773 0.985318 11.1689C0.490284 9.86056 0.371028 8.43983 0.641026 7.06725C0.911023 5.69467 1.55951 4.42496 2.51322 3.40158C3.46693 2.3782 4.68784 1.64195 6.038 1.276C5.99523 1.12706 5.98766 0.970208 6.01589 0.817836C6.04412 0.665464 6.10738 0.521738 6.20066 0.397999C6.29395 0.274261 6.41472 0.173896 6.55344 0.104826C6.69216 0.0357557 6.84504 -0.000130198 7 3.54937e-07H9C9.15497 -0.000130198 9.30784 0.0357557 9.44656 0.104826C9.58528 0.173896 9.70605 0.274261 9.79934 0.397999C9.89263 0.521738 9.95588 0.665464 9.98411 0.817836C10.0123 0.970208 10.0048 1.12706 9.962 1.276C11.5519 1.70744 12.9556 2.65015 13.9565 3.95863C14.9573 5.2671 15.4998 6.86862 15.5 8.516ZM11.89 4.611L6.94 7.439L4.11 12.39L9.06 9.562L11.888 4.612L11.89 4.611Z" fill="black"/>
</g>
<defs>
<clipPath id="clip0_104_1455">
<rect width="16" height="16" fill="white"/>
</clipPath>
</defs>
</svg>
