<svg width="16" height="16" viewBox="0 0 16 16" fill="none" xmlns="http://www.w3.org/2000/svg">
<path d="M9.96998 4.88L10.923 8.691C10.159 8.878 9.13998 9 7.99998 9C6.85998 9 5.84198 8.878 5.07698 8.691L6.02998 4.88C6.63498 4.957 7.29998 5 7.99998 5C8.69998 5 9.36498 4.957 9.96998 4.88ZM9.72498 3.902L8.96998 0.879998C8.71798 -0.130002 7.28198 -0.130002 7.02998 0.879998L6.27498 3.9C6.79998 3.965 7.38198 4 7.99998 4C8.61798 4 9.19998 3.964 9.72498 3.902ZM14.121 12.515C14.2262 12.5411 14.3201 12.6006 14.3886 12.6847C14.457 12.7687 14.4963 12.8728 14.5004 12.9811C14.5046 13.0894 14.4735 13.1962 14.4117 13.2852C14.3499 13.3743 14.2609 13.4409 14.158 13.475L8.15798 15.475C8.05541 15.5092 7.94454 15.5092 7.84198 15.475L1.84198 13.475C1.73907 13.4409 1.65002 13.3743 1.58825 13.2852C1.52648 13.1962 1.49534 13.0894 1.49952 12.9811C1.50369 12.8728 1.54296 12.7687 1.6114 12.6847C1.67984 12.6006 1.77375 12.5411 1.87898 12.515L4.26998 11.917L4.83498 9.66C5.69698 9.872 6.79898 9.999 7.99998 9.999C9.20098 9.999 10.303 9.872 11.165 9.66L11.73 11.917L14.121 12.515Z" fill="black"/>
</svg>
