<svg width="16" height="16" viewBox="0 0 16 16" xmlns="http://www.w3.org/2000/svg" fill='currentColor'><path d="M7.03 1.88C7.282 0.869998 8.718 0.869998 8.97 1.88L11.875 13.5H14C14.1326 13.5 14.2598 13.5527 14.3536 13.6464C14.4473 13.7402 14.5 13.8674 14.5 14C14.5 14.1326 14.4473 14.2598 14.3536 14.3536C14.2598 14.4473 14.1326 14.5 14 14.5H2C1.86739 14.5 1.74021 14.4473 1.64645 14.3536C1.55268 14.2598 1.5 14.1326 1.5 14C1.5 13.8674 1.55268 13.7402 1.64645 13.6464C1.74021 13.5527 1.86739 13.5 2 13.5H4.125L7.03 1.88Z"/></svg>