<svg xmlns="http://www.w3.org/2000/svg" width="24" height="24" viewBox="0 0 24 24" fill='currentColor'><path d="m15.904 13.16-2.121 2.121 5.996 5.997 2.121-2.122zm1.596-3.05c1.93 0 3.5-1.57 3.5-3.5 0-.58-.16-1.12-.41-1.6l-2.7 2.7-1.49-1.49 2.7-2.7c-.48-.25-1.02-.41-1.6-.41-1.93 0-3.5 1.57-3.5 3.5 0 .41.08.8.21 1.16l-1.85 1.85-1.78-1.78.71-.71-1.41-1.41L12 3.6a3 3 0 0 0-4.24 0L4.22 7.14l1.41 1.41H2.81l-.71.71 3.54 3.54.71-.71V9.26l1.41 1.41.71-.71 1.78 1.78-7.41 7.41 2.12 2.12L16.34 9.9c.36.13.75.21 1.16.21"/></svg>