<svg width="24" height="24" viewBox="0 0 24 24" xmlns="http://www.w3.org/2000/svg" fill='currentColor'><path d="M21.9 21.3849L3.52 3.00495L2.1 4.41495L3.71 6.02495V19.1949C3.71 20.2949 4.61 21.1949 5.71 21.1949H18.88L20.49 22.8049L21.9 21.3849ZM5.71 19.1949V8.02495L16.88 19.1949H5.71ZM17.71 8.19495V5.19495H19.71V16.3649L21.71 18.3649V5.19495C21.71 4.09495 20.81 3.19495 19.71 3.19495H15.53C15.11 2.03495 14.01 1.19495 12.71 1.19495C11.41 1.19495 10.31 2.03495 9.89 3.19495H6.54L11.54 8.19495H17.71ZM12.71 3.19495C13.26 3.19495 13.71 3.64495 13.71 4.19495C13.71 4.74495 13.26 5.19495 12.71 5.19495C12.16 5.19495 11.71 4.74495 11.71 4.19495C11.71 3.64495 12.16 3.19495 12.71 3.19495Z"/></svg>