<svg width="16" height="16" viewBox="0 0 16 16" fill="none" xmlns="http://www.w3.org/2000/svg">
<path d="M11.5 6.02698C11.5 6.15959 11.4473 6.28676 11.3536 6.38053C11.2598 6.4743 11.1326 6.52698 11 6.52698C10.8674 6.52698 10.7402 6.4743 10.6464 6.38053C10.5527 6.28676 10.5 6.15959 10.5 6.02698C10.5 5.89437 10.5527 5.76719 10.6464 5.67342C10.7402 5.57966 10.8674 5.52698 11 5.52698C11.1326 5.52698 11.2598 5.57966 11.3536 5.67342C11.4473 5.76719 11.5 5.89437 11.5 6.02698ZM10 7.52698C10.1326 7.52698 10.2598 7.4743 10.3536 7.38053C10.4473 7.28676 10.5 7.15959 10.5 7.02698C10.5 6.89437 10.4473 6.76719 10.3536 6.67342C10.2598 6.57966 10.1326 6.52698 10 6.52698C9.86739 6.52698 9.74021 6.57966 9.64645 6.67342C9.55268 6.76719 9.5 6.89437 9.5 7.02698C9.5 7.15959 9.55268 7.28676 9.64645 7.38053C9.74021 7.4743 9.86739 7.52698 10 7.52698ZM12.5 7.02698C12.5 7.15959 12.4473 7.28676 12.3536 7.38053C12.2598 7.4743 12.1326 7.52698 12 7.52698C11.8674 7.52698 11.7402 7.4743 11.6464 7.38053C11.5527 7.28676 11.5 7.15959 11.5 7.02698C11.5 6.89437 11.5527 6.76719 11.6464 6.67342C11.7402 6.57966 11.8674 6.52698 12 6.52698C12.1326 6.52698 12.2598 6.57966 12.3536 6.67342C12.4473 6.76719 12.5 6.89437 12.5 7.02698ZM11 8.52698C11.1326 8.52698 11.2598 8.4743 11.3536 8.38053C11.4473 8.28676 11.5 8.15959 11.5 8.02698C11.5 7.89437 11.4473 7.76719 11.3536 7.67342C11.2598 7.57966 11.1326 7.52698 11 7.52698C10.8674 7.52698 10.7402 7.57966 10.6464 7.67342C10.5527 7.76719 10.5 7.89437 10.5 8.02698C10.5 8.15959 10.5527 8.28676 10.6464 8.38053C10.7402 8.4743 10.8674 8.52698 11 8.52698ZM4.5 5.52698H5.5V6.52698H6.5V7.52698H5.5V8.52698H4.5V7.52698H3.5V6.52698H4.5V5.52698Z" fill="black"/>
<path d="M3.05097 3.26002C3.03389 3.19652 3.0295 3.13028 3.03806 3.06509C3.04661 2.9999 3.06794 2.93703 3.10082 2.88009C3.1337 2.82315 3.17749 2.77326 3.22968 2.73326C3.28187 2.69327 3.34144 2.66396 3.40497 2.64702L5.33697 2.12902C5.40339 2.11132 5.47274 2.1075 5.5407 2.11781C5.60866 2.12812 5.67377 2.15233 5.73195 2.18893C5.79013 2.22553 5.84014 2.27373 5.87886 2.33052C5.91758 2.38732 5.94417 2.45149 5.95697 2.51902C6.61197 2.44002 7.30697 2.40202 7.99997 2.40202C8.71997 2.40202 9.44297 2.44302 10.12 2.52802C10.1317 2.45946 10.1575 2.3941 10.1959 2.3361C10.2343 2.27811 10.2844 2.22876 10.3429 2.19121C10.4014 2.15366 10.4672 2.12873 10.5359 2.11802C10.6046 2.10731 10.6748 2.11106 10.742 2.12902L12.674 2.64702C12.7477 2.66675 12.8159 2.7031 12.8734 2.75328C12.9309 2.80345 12.9762 2.86612 13.0057 2.93649C13.0352 3.00686 13.0483 3.08306 13.0438 3.15924C13.0394 3.23543 13.0175 3.30958 12.98 3.37602C13.12 3.46602 13.246 3.56602 13.353 3.67302C13.761 4.08102 14.133 4.72302 14.448 5.44502C14.768 6.17802 15.047 7.03602 15.253 7.91102C15.459 8.78602 15.593 9.69102 15.617 10.517C15.641 11.333 15.558 12.119 15.289 12.727C15.1663 13 14.9605 13.2272 14.701 13.3763C14.4415 13.5253 14.1416 13.5886 13.844 13.557C13.208 13.49 12.729 13.163 12.331 12.784C12.086 12.552 11.835 12.258 11.592 11.976C11.466 11.828 11.342 11.684 11.224 11.553C10.496 10.749 9.62697 10.026 7.99997 10.026C6.37297 10.026 5.50397 10.749 4.77597 11.553C4.65697 11.684 4.53397 11.828 4.40797 11.976C4.16497 12.258 3.91397 12.551 3.66897 12.784C3.27097 13.164 2.79197 13.49 2.15597 13.557C1.85838 13.5886 1.55842 13.5253 1.29892 13.3763C1.03942 13.2272 0.833644 13 0.710972 12.727C0.440972 12.119 0.358972 11.332 0.381972 10.517C0.405972 9.69102 0.541972 8.78702 0.746972 7.91102C0.952972 7.03602 1.23297 6.17802 1.55197 5.44502C1.86697 4.72302 2.23897 4.08102 2.64597 3.67302C2.7767 3.54479 2.92203 3.43236 3.07897 3.33802C3.06746 3.31251 3.0581 3.28608 3.05097 3.25902V3.26002ZM5.08697 3.67202C4.20997 3.85702 3.61797 4.11502 3.35397 4.38002C3.07797 4.65602 2.76697 5.16302 2.46897 5.84502C2.15283 6.58661 1.90254 7.35457 1.72097 8.14002C1.52917 8.92893 1.41562 9.73483 1.38197 10.546C1.35997 11.301 1.44397 11.914 1.62497 12.322C1.66204 12.4015 1.72305 12.4674 1.79945 12.5104C1.87584 12.5534 1.9638 12.5715 2.05097 12.562C2.37797 12.528 2.66097 12.363 2.97997 12.06C3.19197 11.858 3.37997 11.637 3.59497 11.386C3.72797 11.23 3.87097 11.063 4.03497 10.882C4.86097 9.96902 5.97797 9.02702 7.99997 9.02702C10.022 9.02702 11.139 9.96902 11.965 10.882C12.129 11.063 12.272 11.23 12.405 11.386C12.619 11.637 12.808 11.858 13.02 12.06C13.338 12.363 13.621 12.528 13.949 12.563C14.0363 12.5724 14.1243 12.5542 14.2007 12.511C14.2771 12.4678 14.3381 12.4017 14.375 12.322C14.555 11.914 14.64 11.302 14.618 10.546C14.5843 9.73483 14.4708 8.92893 14.279 8.14002C14.0974 7.35457 13.8471 6.58662 13.531 5.84502C13.233 5.16302 12.921 4.65502 12.646 4.38002C12.382 4.11502 11.79 3.85702 10.913 3.67202C10.063 3.49302 9.03597 3.40202 7.99997 3.40202C6.96397 3.40202 5.93697 3.49302 5.08697 3.67202Z" fill="black"/>
</svg>
