<svg width="24" height="24" viewBox="0 0 24 24" xmlns="http://www.w3.org/2000/svg" fill='currentColor'><path d="M21.9497 11.0039C20.1597 10.9739 18.2497 9.05392 19.2697 6.78392C16.2897 7.78392 13.4997 5.19392 14.0797 2.22392C6.94969 0.723922 1.99969 6.59392 1.99969 12.0139C1.99969 17.5339 6.47969 22.0139 11.9997 22.0139C17.8897 22.0139 22.5397 16.9339 21.9497 11.0039ZM8.49969 15.0139C7.66969 15.0139 6.99969 14.3439 6.99969 13.5139C6.99969 12.6839 7.66969 12.0139 8.49969 12.0139C9.32969 12.0139 9.99969 12.6839 9.99969 13.5139C9.99969 14.3439 9.32969 15.0139 8.49969 15.0139ZM10.4997 10.0139C9.66969 10.0139 8.99969 9.34392 8.99969 8.51392C8.99969 7.68392 9.66969 7.01392 10.4997 7.01392C11.3297 7.01392 11.9997 7.68392 11.9997 8.51392C11.9997 9.34392 11.3297 10.0139 10.4997 10.0139ZM14.9997 16.0139C14.4497 16.0139 13.9997 15.5639 13.9997 15.0139C13.9997 14.4639 14.4497 14.0139 14.9997 14.0139C15.5497 14.0139 15.9997 14.4639 15.9997 15.0139C15.9997 15.5639 15.5497 16.0139 14.9997 16.0139Z"/></svg>