<svg width="16" height="16" viewBox="0 0 16 16" xmlns="http://www.w3.org/2000/svg" fill='currentColor'><g clip-path="url(#clip0_104_1466)"><path d="M6.5 6C6.36739 6 6.24021 6.05268 6.14645 6.14645C6.05268 6.24021 6 6.36739 6 6.5V9.5C6 9.63261 6.05268 9.75979 6.14645 9.85355C6.24021 9.94732 6.36739 10 6.5 10H9.5C9.63261 10 9.75979 9.94732 9.85355 9.85355C9.94732 9.75979 10 9.63261 10 9.5V6.5C10 6.36739 9.94732 6.24021 9.85355 6.14645C9.75979 6.05268 9.63261 6 9.5 6H6.5Z"/><path d="M5.5 0.5C5.5 0.367392 5.44732 0.240215 5.35355 0.146447C5.25979 0.0526784 5.13261 0 5 0C4.86739 0 4.74021 0.0526784 4.64645 0.146447C4.55268 0.240215 4.5 0.367392 4.5 0.5V2C3.83696 2 3.20107 2.26339 2.73223 2.73223C2.26339 3.20107 2 3.83696 2 4.5H0.5C0.367392 4.5 0.240215 4.55268 0.146447 4.64645C0.0526784 4.74021 0 4.86739 0 5C0 5.13261 0.0526784 5.25979 0.146447 5.35355C0.240215 5.44732 0.367392 5.5 0.5 5.5H2V6.5H0.5C0.367392 6.5 0.240215 6.55268 0.146447 6.64645C0.0526784 6.74021 0 6.86739 0 7C0 7.13261 0.0526784 7.25979 0.146447 7.35355C0.240215 7.44732 0.367392 7.5 0.5 7.5H2V8.5H0.5C0.367392 8.5 0.240215 8.55268 0.146447 8.64645C0.0526784 8.74021 0 8.86739 0 9C0 9.13261 0.0526784 9.25979 0.146447 9.35355C0.240215 9.44732 0.367392 9.5 0.5 9.5H2V10.5H0.5C0.367392 10.5 0.240215 10.5527 0.146447 10.6464C0.0526784 10.7402 0 10.8674 0 11C0 11.1326 0.0526784 11.2598 0.146447 11.3536C0.240215 11.4473 0.367392 11.5 0.5 11.5H2C2 12.163 2.26339 12.7989 2.73223 13.2678C3.20107 13.7366 3.83696 14 4.5 14V15.5C4.5 15.6326 4.55268 15.7598 4.64645 15.8536C4.74021 15.9473 4.86739 16 5 16C5.13261 16 5.25979 15.9473 5.35355 15.8536C5.44732 15.7598 5.5 15.6326 5.5 15.5V14H6.5V15.5C6.5 15.6326 6.55268 15.7598 6.64645 15.8536C6.74021 15.9473 6.86739 16 7 16C7.13261 16 7.25979 15.9473 7.35355 15.8536C7.44732 15.7598 7.5 15.6326 7.5 15.5V14H8.5V15.5C8.5 15.6326 8.55268 15.7598 8.64645 15.8536C8.74021 15.9473 8.86739 16 9 16C9.13261 16 9.25979 15.9473 9.35355 15.8536C9.44732 15.7598 9.5 15.6326 9.5 15.5V14H10.5V15.5C10.5 15.6326 10.5527 15.7598 10.6464 15.8536C10.7402 15.9473 10.8674 16 11 16C11.1326 16 11.2598 15.9473 11.3536 15.8536C11.4473 15.7598 11.5 15.6326 11.5 15.5V14C12.163 14 12.7989 13.7366 13.2678 13.2678C13.7366 12.7989 14 12.163 14 11.5H15.5C15.6326 11.5 15.7598 11.4473 15.8536 11.3536C15.9473 11.2598 16 11.1326 16 11C16 10.8674 15.9473 10.7402 15.8536 10.6464C15.7598 10.5527 15.6326 10.5 15.5 10.5H14V9.5H15.5C15.6326 9.5 15.7598 9.44732 15.8536 9.35355C15.9473 9.25979 16 9.13261 16 9C16 8.86739 15.9473 8.74021 15.8536 8.64645C15.7598 8.55268 15.6326 8.5 15.5 8.5H14V7.5H15.5C15.6326 7.5 15.7598 7.44732 15.8536 7.35355C15.9473 7.25979 16 7.13261 16 7C16 6.86739 15.9473 6.74021 15.8536 6.64645C15.7598 6.55268 15.6326 6.5 15.5 6.5H14V5.5H15.5C15.6326 5.5 15.7598 5.44732 15.8536 5.35355C15.9473 5.25979 16 5.13261 16 5C16 4.86739 15.9473 4.74021 15.8536 4.64645C15.7598 4.55268 15.6326 4.5 15.5 4.5H14C14 3.83696 13.7366 3.20107 13.2678 2.73223C12.7989 2.26339 12.163 2 11.5 2V0.5C11.5 0.367392 11.4473 0.240215 11.3536 0.146447C11.2598 0.0526784 11.1326 0 11 0C10.8674 0 10.7402 0.0526784 10.6464 0.146447C10.5527 0.240215 10.5 0.367392 10.5 0.5V2H9.5V0.5C9.5 0.367392 9.44732 0.240215 9.35355 0.146447C9.25979 0.0526784 9.13261 0 9 0C8.86739 0 8.74021 0.0526784 8.64645 0.146447C8.55268 0.240215 8.5 0.367392 8.5 0.5V2H7.5V0.5C7.5 0.367392 7.44732 0.240215 7.35355 0.146447C7.25979 0.0526784 7.13261 0 7 0C6.86739 0 6.74021 0.0526784 6.64645 0.146447C6.55268 0.240215 6.5 0.367392 6.5 0.5V2H5.5V0.5ZM6.5 5H9.5C9.89782 5 10.2794 5.15804 10.5607 5.43934C10.842 5.72064 11 6.10218 11 6.5V9.5C11 9.89782 10.842 10.2794 10.5607 10.5607C10.2794 10.842 9.89782 11 9.5 11H6.5C6.10218 11 5.72064 10.842 5.43934 10.5607C5.15804 10.2794 5 9.89782 5 9.5V6.5C5 6.10218 5.15804 5.72064 5.43934 5.43934C5.72064 5.15804 6.10218 5 6.5 5Z"/></g><defs><clipPath id="clip0_104_1466"><rect width="16" height="16"/></clipPath></defs></svg>