<svg width="16" height="16" viewBox="0 0 16 16" fill="none" xmlns="http://www.w3.org/2000/svg">
<g clip-path="url(#clip0_104_1472)">
<path d="M11 5.5C11 5.36739 11.0527 5.24021 11.1464 5.14645C11.2402 5.05268 11.3674 5 11.5 5H13.5C13.6326 5 13.7598 5.05268 13.8536 5.14645C13.9473 5.24021 14 5.36739 14 5.5V6.5C14 6.63261 13.9473 6.75979 13.8536 6.85355C13.7598 6.94732 13.6326 7 13.5 7H11.5C11.3674 7 11.2402 6.94732 11.1464 6.85355C11.0527 6.75979 11 6.63261 11 6.5V5.5Z" fill="black"/>
<path d="M2 2C1.46957 2 0.960859 2.21071 0.585786 2.58579C0.210714 2.96086 0 3.46957 0 4L0 12C0 12.5304 0.210714 13.0391 0.585786 13.4142C0.960859 13.7893 1.46957 14 2 14H14C14.5304 14 15.0391 13.7893 15.4142 13.4142C15.7893 13.0391 16 12.5304 16 12V4C16 3.46957 15.7893 2.96086 15.4142 2.58579C15.0391 2.21071 14.5304 2 14 2H2ZM15 4V9H1V4C1 3.73478 1.10536 3.48043 1.29289 3.29289C1.48043 3.10536 1.73478 3 2 3H14C14.2652 3 14.5196 3.10536 14.7071 3.29289C14.8946 3.48043 15 3.73478 15 4ZM14 13H2C1.73478 13 1.48043 12.8946 1.29289 12.7071C1.10536 12.5196 1 12.2652 1 12V11H15V12C15 12.2652 14.8946 12.5196 14.7071 12.7071C14.5196 12.8946 14.2652 13 14 13Z" fill="black"/>
</g>
<defs>
<clipPath id="clip0_104_1472">
<rect width="16" height="16" fill="white"/>
</clipPath>
</defs>
</svg>
