<svg width="16" height="16" viewBox="0 0 16 16" fill="none" xmlns="http://www.w3.org/2000/svg">
<g clip-path="url(#clip0_104_1484)">
<path d="M3.5 0.5C3.63261 0.5 3.75979 0.552678 3.85355 0.646447C3.94732 0.740215 4 0.867392 4 1V14H17C17.1326 14 17.2598 14.0527 17.3536 14.1464C17.4473 14.2402 17.5 14.3674 17.5 14.5C17.5 14.6326 17.4473 14.7598 17.3536 14.8536C17.2598 14.9473 17.1326 15 17 15H15V17C15 17.1326 14.9473 17.2598 14.8536 17.3536C14.7598 17.4473 14.6326 17.5 14.5 17.5C14.3674 17.5 14.2402 17.4473 14.1464 17.3536C14.0527 17.2598 14 17.1326 14 17V15H3.5C3.36739 15 3.24021 14.9473 3.14645 14.8536C3.05268 14.7598 3 14.6326 3 14.5V4H1C0.867392 4 0.740215 3.94732 0.646447 3.85355C0.552678 3.75979 0.5 3.63261 0.5 3.5C0.5 3.36739 0.552678 3.24021 0.646447 3.14645C0.740215 3.05268 0.867392 3 1 3H3V1C3 0.867392 3.05268 0.740215 3.14645 0.646447C3.24021 0.552678 3.36739 0.5 3.5 0.5ZM6 3.5C6 3.36739 6.05268 3.24021 6.14645 3.14645C6.24021 3.05268 6.36739 3 6.5 3H14.5C14.6326 3 14.7598 3.05268 14.8536 3.14645C14.9473 3.24021 15 3.36739 15 3.5V11.5C15 11.6326 14.9473 11.7598 14.8536 11.8536C14.7598 11.9473 14.6326 12 14.5 12C14.3674 12 14.2402 11.9473 14.1464 11.8536C14.0527 11.7598 14 11.6326 14 11.5V4H6.5C6.36739 4 6.24021 3.94732 6.14645 3.85355C6.05268 3.75979 6 3.63261 6 3.5Z" fill="black"/>
</g>
<defs>
<clipPath id="clip0_104_1484">
<rect width="16" height="16" fill="white"/>
</clipPath>
</defs>
</svg>
