<svg width="16" height="16" viewBox="0 0 16 16" xmlns="http://www.w3.org/2000/svg" fill='currentColor'><path d="M1 2C1 1.73478 1.10536 1.48043 1.29289 1.29289C1.48043 1.10536 1.73478 1 2 1H13C13.2652 1 13.5196 1.10536 13.7071 1.29289C13.8946 1.48043 14 1.73478 14 2V3H14.5C14.8978 3 15.2794 3.15804 15.5607 3.43934C15.842 3.72064 16 4.10218 16 4.5V11.5C16 11.8978 15.842 12.2794 15.5607 12.5607C15.2794 12.842 14.8978 13 14.5 13H13.95C13.8347 13.5647 13.5279 14.0722 13.0815 14.4367C12.635 14.8011 12.0763 15.0001 11.5 15H3.5C2.83696 15 2.20107 14.7366 1.73223 14.2678C1.26339 13.7989 1 13.163 1 12.5V2ZM14 12H14.5C14.6326 12 14.7598 11.9473 14.8536 11.8536C14.9473 11.7598 15 11.6326 15 11.5V4.5C15 4.36739 14.9473 4.24021 14.8536 4.14645C14.7598 4.05268 14.6326 4 14.5 4H14V12Z"/></svg>