<svg width="16" height="16" viewBox="0 0 16 16" xmlns="http://www.w3.org/2000/svg" fill='currentColor'><path d="M5.5 13V14.25C5.5 14.388 5.612 14.5 5.75 14.5H6.75C6.8163 14.5 6.87989 14.4737 6.92678 14.4268C6.97366 14.3799 7 14.3163 7 14.25V13H7.5V14.25C7.5 14.388 7.612 14.5 7.75 14.5H8.75C8.8163 14.5 8.87989 14.4737 8.92678 14.4268C8.97366 14.3799 9 14.3163 9 14.25V13H9.084C11.076 13 12.5 11.967 12.5 10.18C12.5 8.678 11.493 7.857 10.314 7.74V7.652C11.284 7.41 11.997 6.678 11.997 5.462C11.997 3.93 10.847 3 9.092 3H9V1.75C9 1.6837 8.97366 1.62011 8.92678 1.57322C8.87989 1.52634 8.8163 1.5 8.75 1.5H7.75C7.68369 1.5 7.62011 1.52634 7.57322 1.57322C7.52634 1.62011 7.5 1.6837 7.5 1.75V3H6.927V1.75C6.927 1.6837 6.90066 1.62011 6.85378 1.57322C6.80689 1.52634 6.7433 1.5 6.677 1.5H5.75C5.68369 1.5 5.62011 1.52634 5.57322 1.57322C5.52634 1.62011 5.5 1.6837 5.5 1.75V3L3.502 3.011C3.43569 3.011 3.37211 3.03734 3.32522 3.08422C3.27834 3.13111 3.252 3.1947 3.252 3.261V4.25C3.252 4.387 3.362 4.5 3.5 4.5L4.255 4.495C4.45304 4.49632 4.64253 4.57592 4.7821 4.71643C4.92167 4.85694 5 5.04695 5 5.245V10.75C5 10.9489 4.92098 11.1397 4.78033 11.2803C4.63968 11.421 4.44891 11.5 4.25 11.5L3.502 11.511C3.43569 11.511 3.37211 11.5373 3.32522 11.5842C3.27834 11.6311 3.252 11.6947 3.252 11.761V12.761C3.252 12.899 3.364 13.011 3.502 13.011L5.5 13ZM6.927 4.487H8.646C9.552 4.487 10.084 4.985 10.084 5.799C10.084 6.67 9.509 7.161 8.207 7.161H6.927V4.487ZM6.927 8.538H8.767C9.904 8.538 10.523 9.118 10.523 10.062C10.523 11.015 9.897 11.512 8.365 11.512H6.927V8.539V8.538Z"/></svg>