<svg width="16" height="16" viewBox="0 0 16 16" fill="none" xmlns="http://www.w3.org/2000/svg">
<path d="M4 10.781C4.148 12.448 5.513 13.631 7.591 13.784V15H8.634V13.784C10.904 13.605 12.312 12.346 12.312 10.484C12.312 8.894 11.365 7.974 9.356 7.456L8.634 7.269V3.467C9.756 3.577 10.513 4.181 10.704 5.083H12.174C12.008 3.483 10.634 2.335 8.634 2.208V1H7.591V2.233C5.652 2.463 4.321 3.705 4.321 5.389C4.321 6.843 5.287 7.872 6.982 8.306L7.592 8.468V12.499C6.443 12.329 5.652 11.699 5.461 10.781H4ZM7.391 6.945C6.348 6.682 5.791 6.12 5.791 5.329C5.791 4.385 6.495 3.688 7.591 3.501V6.996L7.391 6.946V6.945ZM8.982 8.817C10.269 9.14 10.834 9.676 10.834 10.586C10.834 11.683 10.008 12.414 8.634 12.525V8.73L8.982 8.816V8.817Z" fill="black"/>
</svg>
