<svg width="16" height="16" viewBox="0 0 16 16" xmlns="http://www.w3.org/2000/svg" fill='currentColor'><g clip-path="url(#clip0_104_1498)"><path d="M0 4.99998C0.000244156 6.15719 0.401714 7.27851 1.13601 8.1729C1.8703 9.06729 2.89199 9.67942 4.027 9.90498C4.09164 9.18851 4.27551 8.48787 4.571 7.83198C3.695 7.53598 3.132 6.86398 3 5.90998H2.5V5.48398H2.966V5.04998C2.966 5.00398 2.966 4.95698 2.97 4.91498H2.5V4.48798H3.011C3.236 3.23998 4.213 2.49998 5.681 2.49998C5.997 2.49998 6.271 2.53098 6.5 2.58498V3.31798C6.23254 3.25847 5.95896 3.23095 5.685 3.23598C4.766 3.23598 4.147 3.70198 3.951 4.48798H5.868V4.91498H3.888C3.885 4.96098 3.885 5.01198 3.885 5.06198V5.48398H5.868V5.91098H3.93C4.048 6.51298 4.398 6.94098 4.935 7.13998C5.46154 6.26794 6.18567 5.53187 7.04897 4.99113C7.91228 4.45039 8.89059 4.12013 9.905 4.02698C9.65975 2.81249 8.97248 1.73225 7.97633 0.995494C6.98017 0.258741 5.74603 -0.0820808 4.51296 0.0390474C3.27989 0.160176 2.13566 0.734633 1.30191 1.65114C0.468163 2.56765 0.00423697 3.76098 0 4.99998H0ZM16 10.5C16 11.9587 15.4205 13.3576 14.3891 14.3891C13.3576 15.4205 11.9587 16 10.5 16C9.04131 16 7.64236 15.4205 6.61091 14.3891C5.57946 13.3576 5 11.9587 5 10.5C5 9.04129 5.57946 7.64234 6.61091 6.61089C7.64236 5.57944 9.04131 4.99998 10.5 4.99998C11.9587 4.99998 13.3576 5.57944 14.3891 6.61089C15.4205 7.64234 16 9.04129 16 10.5ZM8.25 11.822C8.319 12.657 8.996 13.307 10.214 13.384V14H10.754V13.38C12.013 13.294 12.75 12.64 12.75 11.69C12.75 10.825 12.187 10.38 11.18 10.15L10.754 10.05V8.37398C11.294 8.43398 11.638 8.72098 11.72 9.11898H12.668C12.598 8.31498 11.889 7.68598 10.754 7.61698V6.99998H10.214V7.62898C9.138 7.73198 8.406 8.36098 8.406 9.25098C8.406 10.038 8.95 10.539 9.856 10.744L10.214 10.829V12.609C9.66 12.529 9.294 12.233 9.211 11.822H8.25ZM10.21 9.92698C9.678 9.80698 9.39 9.56298 9.39 9.19498C9.39 8.78498 9.701 8.47598 10.214 8.38598V9.92598H10.209L10.21 9.92698ZM10.832 10.971C11.477 11.116 11.775 11.351 11.775 11.767C11.775 12.241 11.405 12.567 10.755 12.627V10.953L10.832 10.971Z"/></g><defs><clipPath id="clip0_104_1498"><rect width="16" height="16"/></clipPath></defs></svg>