<svg width="16" height="16" viewBox="0 0 16 16" xmlns="http://www.w3.org/2000/svg" fill='currentColor'><path d="M4 9.41997H5.063C5.4 12.323 7.317 14 10.34 14C10.962 14 11.507 13.932 11.999 13.815V12.515C11.515 12.634 10.954 12.685 10.34 12.685C8.24 12.685 6.885 11.487 6.565 9.42097H10.582V8.49297H6.497V7.55697C6.497 7.44697 6.497 7.33797 6.505 7.22797H10.583V6.30097H6.618C7.006 4.40297 8.337 3.31597 10.341 3.31597C10.955 3.31597 11.516 3.36597 12 3.49297V2.19397C11.4574 2.05949 10.9 1.99431 10.341 1.99997C7.413 1.99997 5.521 3.56897 5.097 6.29997H4V7.22797H5.01V8.49297H4V9.42097V9.41997Z"/></svg>