<svg width="16" height="16" viewBox="0 0 16 16" fill="none" xmlns="http://www.w3.org/2000/svg">
<path d="M4 8.585H5.969C6.084 9.05 6.155 9.524 6.155 10.015C6.155 11.4 5.419 12.511 4.08 12.786V14H12V12.76H6.492V12.631C7.317 12.106 7.627 11.185 7.627 9.937C7.627 9.472 7.557 9.024 7.459 8.585H10.749V7.613H7.22C7.034 6.89 6.848 6.158 6.848 5.366C6.848 4.092 7.895 3.3 9.428 3.3C10.1534 3.31 10.869 3.46824 11.531 3.765V2.456C10.841 2.15993 10.0988 2.00489 9.348 2C6.865 2 5.322 3.291 5.322 5.366C5.322 6.141 5.517 6.881 5.721 7.613H4V8.585Z" fill="black"/>
</svg>
