<svg width="24" height="24" viewBox="0 0 24 24" xmlns="http://www.w3.org/2000/svg" fill='currentColor'><path d="M11 7.9749V10.9749H8V12.9749H11V15.9749H13V12.9749H16V10.9749H13V7.9749H11ZM13 2.0249V5.0549C16.39 5.5449 19 8.4449 19 11.9749C19 12.8749 18.82 13.7249 18.52 14.5149L21.12 16.0449C21.68 14.8049 22 13.4249 22 11.9749C22 6.7949 18.05 2.5249 13 2.0249ZM12 18.9749C8.13 18.9749 5 15.8449 5 11.9749C5 8.4449 7.61 5.5449 11 5.0549V2.0249C5.94 2.5249 2 6.7849 2 11.9749C2 17.4949 6.47 21.9749 11.99 21.9749C15.3 21.9749 18.23 20.3649 20.05 17.8849L17.45 16.3549C16.17 17.9549 14.21 18.9749 12 18.9749Z"/></svg>