<svg xmlns="http://www.w3.org/2000/svg" width="24" height="24" viewBox="0 0 24 24" fill='currentColor'><path d="M6.59 16.5H5.5v-4h3.69c.95-.63 2.09-1 3.31-1h6c.34 0 .67.04 1 .09V4.5c0-1.1-.9-2-2-2h-14c-1.1 0-2 .9-2 2v14c0 1.1.9 2 2 2h3.81c-.51-.88-.81-1.91-.81-3 0-.34.04-.67.09-1m4.91-10h4v4h-4zm-6 0h4v4h-4z"/><path d="M10.5 17.5c0-1.1.9-2 2-2h2v-2h-2c-2.21 0-4 1.79-4 4s1.79 4 4 4h2v-2h-2c-1.1 0-2-.9-2-2m8-4h-2v2h2c1.1 0 2 .9 2 2s-.9 2-2 2h-2v2h2c2.21 0 4-1.79 4-4s-1.79-4-4-4"/><path d="M18.5 16.5h-6v2h6z"/></svg>