<svg width="24" height="24" viewBox="0 0 24 24" xmlns="http://www.w3.org/2000/svg" fill='currentColor'><path d="M3.71 12.29H5.71V10.29H3.71V12.29ZM7.71 20.29H9.71V18.29H7.71V20.29ZM13.71 2.28998H11.71V4.28998H13.71V2.28998ZM19.71 2.28998V4.28998H21.71C21.71 3.18998 20.81 2.28998 19.71 2.28998ZM5.71 20.29V18.29H3.71C3.71 19.39 4.61 20.29 5.71 20.29ZM3.71 16.29H5.71V14.29H3.71V16.29ZM11.71 20.29H13.71V18.29H11.71V20.29ZM19.71 12.29H21.71V10.29H19.71V12.29ZM19.71 8.28998H21.71V6.28998H19.71V8.28998ZM15.71 4.28998H17.71V2.28998H15.71V4.28998ZM8.54 4.28998L7.71 3.45998V2.28998H9.71V4.28998H8.54ZM20.54 16.29L19.71 15.46V14.29H21.71V16.29H20.54ZM21.9 20.48L3.52 2.09998L2.1 3.50998L4.88 6.28998H3.71V8.28998H5.71V7.11998L7.71 9.11998V16.29H14.88L16.88 18.29H15.71V20.29H17.71V19.12L20.49 21.9L21.9 20.48ZM9.71 14.29V11.12L12.88 14.29H9.71ZM15.71 11.46V8.28998H12.54L10.54 6.28998H17.71V13.46L15.71 11.46Z"/></svg>