<svg width="24" height="24" viewBox="0 0 24 24" xmlns="http://www.w3.org/2000/svg" fill='currentColor'><path d="M3.71 12.2901H5.71V10.2901H3.71V12.2901ZM7.71 20.2901H9.71V18.2901H7.71V20.2901ZM13.71 2.2901H11.71V4.2901H13.71V2.2901ZM19.71 2.2901V4.2901H21.71C21.71 3.1901 20.81 2.2901 19.71 2.2901ZM5.71 20.2901V18.2901H3.71C3.71 19.3901 4.61 20.2901 5.71 20.2901ZM3.71 16.2901H5.71V14.2901H3.71V16.2901ZM11.71 20.2901H13.71V18.2901H11.71V20.2901ZM19.71 12.2901H21.71V10.2901H19.71V12.2901ZM19.71 8.2901H21.71V6.2901H19.71V8.2901ZM15.71 4.2901H17.71V2.2901H15.71V4.2901ZM8.54 4.2901L7.71 3.4601V2.2901H9.71V4.2901H8.54ZM20.54 16.2901L19.71 15.4601V14.2901H21.71V16.2901H20.54ZM21.9 20.4801L3.52 2.1001L2.1 3.5101L4.88 6.2901H3.71V8.2901H5.71V7.1201L7.71 9.1201V16.2901H14.88L16.88 18.2901H15.71V20.2901H17.71V19.1201L20.49 21.9001L21.9 20.4801ZM9.71 14.2901V11.1201L12.88 14.2901H9.71ZM15.71 11.4601V8.2901H12.54L10.54 6.2901H17.71V13.4601L15.71 11.4601Z"/></svg>