<svg width="24" height="24" viewBox="0 0 24 24" xmlns="http://www.w3.org/2000/svg" fill='currentColor'><path d="M16.2387 11.5095L17.8087 9.9395L14.0587 6.1895L12.4887 7.7595L8.34875 3.6295C7.56875 2.8495 6.29875 2.8495 5.51875 3.6295L3.61875 5.5295C2.83875 6.3095 2.83875 7.5795 3.61875 8.3595L7.74875 12.4895L2.99875 17.2495V20.9995H6.74875L11.5087 16.2395L15.6387 20.3695C16.5887 21.3195 17.8687 20.9695 18.4687 20.3695L20.3687 18.4695C21.1488 17.6895 21.1488 16.4195 20.3687 15.6395L16.2387 11.5095ZM9.17875 11.0695L5.03875 6.9395L6.92875 5.0395L8.19875 6.3095L7.01875 7.4995L8.42875 8.9095L9.61875 7.7195L11.0687 9.1695L9.17875 11.0695ZM17.0587 18.9595L12.9287 14.8295L14.8287 12.9295L16.2787 14.3795L15.0887 15.5695L16.4987 16.9795L17.6887 15.7895L18.9587 17.0595L17.0587 18.9595Z"/><path d="M20.7087 7.0395C21.0987 6.6495 21.0987 6.0195 20.7087 5.6295L18.3687 3.2895C17.8987 2.8195 17.2487 2.9995 16.9587 3.2895L15.1287 5.1195L18.8787 8.8695L20.7087 7.0395Z"/></svg>