<svg xmlns="http://www.w3.org/2000/svg" width="24" height="24" viewBox="0 0 24 24" fill='currentColor'><path d="m16.239 11.51 1.57-1.57-3.75-3.75-1.57 1.57-4.14-4.13c-.78-.78-2.05-.78-2.83 0l-1.9 1.9c-.78.78-.78 2.05 0 2.83l4.13 4.13-4.75 4.76V21h3.75l4.76-4.76 4.13 4.13c.95.95 2.23.6 2.83 0l1.9-1.9c.78-.78.78-2.05 0-2.83zm-7.06-.44-4.14-4.13 1.89-1.9 1.27 1.27-1.18 1.19 1.41 1.41 1.19-1.19 1.45 1.45zm7.88 7.89-4.13-4.13 1.9-1.9 1.45 1.45-1.19 1.19 1.41 1.41 1.19-1.19 1.27 1.27zm3.65-11.92a.996.996 0 0 0 0-1.41l-2.34-2.34c-.47-.47-1.12-.29-1.41 0l-1.83 1.83 3.75 3.75z"/></svg>