<svg width="24" height="24" viewBox="0 0 24 24" xmlns="http://www.w3.org/2000/svg" fill='currentColor'><path d="M16.2387 11.5094L17.8087 9.93938L14.0587 6.18938L12.4887 7.75938L8.34875 3.62938C7.56875 2.84938 6.29875 2.84938 5.51875 3.62938L3.61875 5.52938C2.83875 6.30938 2.83875 7.57938 3.61875 8.35938L7.74875 12.4894L2.99875 17.2494V20.9994H6.74875L11.5087 16.2394L15.6387 20.3694C16.5887 21.3194 17.8687 20.9694 18.4687 20.3694L20.3687 18.4694C21.1488 17.6894 21.1488 16.4194 20.3687 15.6394L16.2387 11.5094ZM9.17875 11.0694L5.03875 6.93938L6.92875 5.03938L8.19875 6.30938L7.01875 7.49938L8.42875 8.90938L9.61875 7.71938L11.0687 9.16938L9.17875 11.0694ZM17.0587 18.9594L12.9287 14.8294L14.8287 12.9294L16.2787 14.3794L15.0887 15.5694L16.4987 16.9794L17.6887 15.7894L18.9587 17.0594L17.0587 18.9594Z"/><path d="M20.7087 7.03938C21.0987 6.64938 21.0987 6.01938 20.7087 5.62938L18.3687 3.28938C17.8987 2.81938 17.2487 2.99938 16.9587 3.28938L15.1287 5.11938L18.8787 8.86938L20.7087 7.03938Z"/></svg>