<svg width="24" height="24" viewBox="0 0 24 24" xmlns="http://www.w3.org/2000/svg" fill='currentColor'><g clip-path="url(#clip0_1616_4699)"><path d="M23.5 15.1C23.5 16.2 22.6 17.1 21.5 17.1H20.5L18.5 15.1H21.5V3.10002H6.5L4.5 1.10002H21.5C22.6 1.10002 23.5 2.00002 23.5 3.10002V15.1ZM15.4 17.1L21.4 23.1L22.7 21.8L16 15.1L1.7 0.900024L0.5 2.20002L1.5 3.20002V15.1C1.5 16.2 2.4 17.1 3.5 17.1H10.5V19.1H8.5V21.1H16.5V19.1H14.5V17.1H15.4ZM3.5 15.1V5.20002L13.4 15.1H3.5Z"/></g><defs><clipPath id="clip0_1616_4699"><rect width="24" height="24"/></clipPath></defs></svg>