<svg width="24" height="24" viewBox="0 0 24 24" xmlns="http://www.w3.org/2000/svg" fill='currentColor'><g clip-path="url(#clip0_1616_4699)"><path d="M23.5 15.0999C23.5 16.1999 22.6 17.0999 21.5 17.0999H20.5L18.5 15.0999H21.5V3.0999H6.5L4.5 1.0999H21.5C22.6 1.0999 23.5 1.9999 23.5 3.0999V15.0999ZM15.4 17.0999L21.4 23.0999L22.7 21.7999L16 15.0999L1.7 0.899902L0.5 2.1999L1.5 3.1999V15.0999C1.5 16.1999 2.4 17.0999 3.5 17.0999H10.5V19.0999H8.5V21.0999H16.5V19.0999H14.5V17.0999H15.4ZM3.5 15.0999V5.1999L13.4 15.0999H3.5Z"/></g><defs><clipPath id="clip0_1616_4699"><rect width="24" height="24"/></clipPath></defs></svg>