<svg width="24" height="24" viewBox="0 0 24 24" xmlns="http://www.w3.org/2000/svg" fill='currentColor'><path d="M8.48497 4.29502H18.655V14.465L20.485 16.295H22.655V14.295H20.655V12.295H22.655V10.295H20.655V8.29502H22.655V6.29502H20.655V4.29502C20.655 3.19502 19.755 2.29502 18.655 2.29502H6.48497L8.48497 4.29502ZM12.655 8.46502V6.29502H16.655V9.29502H13.485L12.655 8.46502ZM10.485 6.29502H11.655V7.46502L10.485 6.29502ZM14.485 10.295H16.655V12.465L14.485 10.295ZM18.655 20.295C18.715 20.295 18.765 20.295 18.815 20.285L21.135 22.605L22.545 21.195L2.75497 1.39502L1.34497 2.80502L2.66497 4.12502C2.65497 4.18502 2.65497 4.23502 2.65497 4.29502V18.295C2.65497 19.395 3.55497 20.295 4.65497 20.295H18.655ZM4.65497 18.295V6.12502L6.65497 8.12502V11.295H9.82497L10.825 12.295H6.65497V16.295H11.655V13.125L12.655 14.125V16.295H14.825L16.825 18.295H4.65497Z"/></svg>