<svg width="16" height="16" viewBox="0 0 16 16" xmlns="http://www.w3.org/2000/svg" fill='currentColor'><path fill-rule="evenodd" clip-rule="evenodd" d="M6 3.5C6 3.10218 6.15804 2.72064 6.43934 2.43934C6.72064 2.15804 7.10218 2 7.5 2H8.5C8.89782 2 9.27936 2.15804 9.56066 2.43934C9.84196 2.72064 10 3.10218 10 3.5V4.5C10 4.89782 9.84196 5.27936 9.56066 5.56066C9.27936 5.84196 8.89782 6 8.5 6V7H11C11.1326 7 11.2598 7.05268 11.3536 7.14645C11.4473 7.24021 11.5 7.36739 11.5 7.5V8.5C11.5 8.63261 11.4473 8.75979 11.3536 8.85355C11.2598 8.94732 11.1326 9 11 9C10.8674 9 10.7402 8.94732 10.6464 8.85355C10.5527 8.75979 10.5 8.63261 10.5 8.5V8H5.5V8.5C5.5 8.63261 5.44732 8.75979 5.35355 8.85355C5.25979 8.94732 5.13261 9 5 9C4.86739 9 4.74021 8.94732 4.64645 8.85355C4.55268 8.75979 4.5 8.63261 4.5 8.5V7.5C4.5 7.36739 4.55268 7.24021 4.64645 7.14645C4.74021 7.05268 4.86739 7 5 7H7.5V6C7.10218 6 6.72064 5.84196 6.43934 5.56066C6.15804 5.27936 6 4.89782 6 4.5V3.5ZM3 11.5C3 11.1022 3.15804 10.7206 3.43934 10.4393C3.72064 10.158 4.10218 10 4.5 10H5.5C5.89782 10 6.27936 10.158 6.56066 10.4393C6.84196 10.7206 7 11.1022 7 11.5V12.5C7 12.8978 6.84196 13.2794 6.56066 13.5607C6.27936 13.842 5.89782 14 5.5 14H4.5C4.10218 14 3.72064 13.842 3.43934 13.5607C3.15804 13.2794 3 12.8978 3 12.5V11.5ZM9 11.5C9 11.1022 9.15804 10.7206 9.43934 10.4393C9.72064 10.158 10.1022 10 10.5 10H11.5C11.8978 10 12.2794 10.158 12.5607 10.4393C12.842 10.7206 13 11.1022 13 11.5V12.5C13 12.8978 12.842 13.2794 12.5607 13.5607C12.2794 13.842 11.8978 14 11.5 14H10.5C10.1022 14 9.72064 13.842 9.43934 13.5607C9.15804 13.2794 9 12.8978 9 12.5V11.5Z"/></svg>