<svg width="16" height="16" viewBox="0 0 16 16" fill="none" xmlns="http://www.w3.org/2000/svg">
<path fill-rule="evenodd" clip-rule="evenodd" d="M6 3.5C6 3.10218 6.15804 2.72064 6.43934 2.43934C6.72064 2.15804 7.10218 2 7.5 2H8.5C8.89782 2 9.27936 2.15804 9.56066 2.43934C9.84196 2.72064 10 3.10218 10 3.5V4.5C10 4.89782 9.84196 5.27936 9.56066 5.56066C9.27936 5.84196 8.89782 6 8.5 6V7H14C14.1326 7 14.2598 7.05268 14.3536 7.14645C14.4473 7.24021 14.5 7.36739 14.5 7.5V8.5C14.5 8.63261 14.4473 8.75979 14.3536 8.85355C14.2598 8.94732 14.1326 9 14 9C13.8674 9 13.7402 8.94732 13.6464 8.85355C13.5527 8.75979 13.5 8.63261 13.5 8.5V8H8.5V8.5C8.5 8.63261 8.44732 8.75979 8.35355 8.85355C8.25979 8.94732 8.13261 9 8 9C7.86739 9 7.74021 8.94732 7.64645 8.85355C7.55268 8.75979 7.5 8.63261 7.5 8.5V8H2.5V8.5C2.5 8.63261 2.44732 8.75979 2.35355 8.85355C2.25979 8.94732 2.13261 9 2 9C1.86739 9 1.74021 8.94732 1.64645 8.85355C1.55268 8.75979 1.5 8.63261 1.5 8.5V7.5C1.5 7.36739 1.55268 7.24021 1.64645 7.14645C1.74021 7.05268 1.86739 7 2 7H7.5V6C7.10218 6 6.72064 5.84196 6.43934 5.56066C6.15804 5.27936 6 4.89782 6 4.5V3.5ZM8.5 5C8.63261 5 8.75979 4.94732 8.85355 4.85355C8.94732 4.75979 9 4.63261 9 4.5V3.5C9 3.36739 8.94732 3.24021 8.85355 3.14645C8.75979 3.05268 8.63261 3 8.5 3H7.5C7.36739 3 7.24021 3.05268 7.14645 3.14645C7.05268 3.24021 7 3.36739 7 3.5V4.5C7 4.63261 7.05268 4.75979 7.14645 4.85355C7.24021 4.94732 7.36739 5 7.5 5H8.5ZM0 11.5C0 11.1022 0.158035 10.7206 0.43934 10.4393C0.720644 10.158 1.10218 10 1.5 10H2.5C2.89782 10 3.27936 10.158 3.56066 10.4393C3.84196 10.7206 4 11.1022 4 11.5V12.5C4 12.8978 3.84196 13.2794 3.56066 13.5607C3.27936 13.842 2.89782 14 2.5 14H1.5C1.10218 14 0.720644 13.842 0.43934 13.5607C0.158035 13.2794 0 12.8978 0 12.5L0 11.5ZM1.5 11C1.36739 11 1.24021 11.0527 1.14645 11.1464C1.05268 11.2402 1 11.3674 1 11.5V12.5C1 12.6326 1.05268 12.7598 1.14645 12.8536C1.24021 12.9473 1.36739 13 1.5 13H2.5C2.63261 13 2.75979 12.9473 2.85355 12.8536C2.94732 12.7598 3 12.6326 3 12.5V11.5C3 11.3674 2.94732 11.2402 2.85355 11.1464C2.75979 11.0527 2.63261 11 2.5 11H1.5ZM6 11.5C6 11.1022 6.15804 10.7206 6.43934 10.4393C6.72064 10.158 7.10218 10 7.5 10H8.5C8.89782 10 9.27936 10.158 9.56066 10.4393C9.84196 10.7206 10 11.1022 10 11.5V12.5C10 12.8978 9.84196 13.2794 9.56066 13.5607C9.27936 13.842 8.89782 14 8.5 14H7.5C7.10218 14 6.72064 13.842 6.43934 13.5607C6.15804 13.2794 6 12.8978 6 12.5V11.5ZM7.5 11C7.36739 11 7.24021 11.0527 7.14645 11.1464C7.05268 11.2402 7 11.3674 7 11.5V12.5C7 12.6326 7.05268 12.7598 7.14645 12.8536C7.24021 12.9473 7.36739 13 7.5 13H8.5C8.63261 13 8.75979 12.9473 8.85355 12.8536C8.94732 12.7598 9 12.6326 9 12.5V11.5C9 11.3674 8.94732 11.2402 8.85355 11.1464C8.75979 11.0527 8.63261 11 8.5 11H7.5ZM12 11.5C12 11.1022 12.158 10.7206 12.4393 10.4393C12.7206 10.158 13.1022 10 13.5 10H14.5C14.8978 10 15.2794 10.158 15.5607 10.4393C15.842 10.7206 16 11.1022 16 11.5V12.5C16 12.8978 15.842 13.2794 15.5607 13.5607C15.2794 13.842 14.8978 14 14.5 14H13.5C13.1022 14 12.7206 13.842 12.4393 13.5607C12.158 13.2794 12 12.8978 12 12.5V11.5ZM13.5 11C13.3674 11 13.2402 11.0527 13.1464 11.1464C13.0527 11.2402 13 11.3674 13 11.5V12.5C13 12.6326 13.0527 12.7598 13.1464 12.8536C13.2402 12.9473 13.3674 13 13.5 13H14.5C14.6326 13 14.7598 12.9473 14.8536 12.8536C14.9473 12.7598 15 12.6326 15 12.5V11.5C15 11.3674 14.9473 11.2402 14.8536 11.1464C14.7598 11.0527 14.6326 11 14.5 11H13.5Z" fill="black"/>
</svg>
