<svg width="16" height="16" viewBox="0 0 16 16" fill="none" xmlns="http://www.w3.org/2000/svg">
<g clip-path="url(#clip0_104_1536)">
<path d="M6.95 0.435C7.53 -0.145 8.47 -0.145 9.05 0.435L15.565 6.951C16.145 7.531 16.145 8.47 15.565 9.049L9.05 15.565C8.47 16.145 7.531 16.145 6.952 15.565L0.434999 9.05C0.297063 8.91234 0.187629 8.74884 0.112962 8.56883C0.0382959 8.38883 -0.000137329 8.19587 -0.000137329 8.001C-0.000137329 7.80613 0.0382959 7.61317 0.112962 7.43317C0.187629 7.25316 0.297063 7.08966 0.434999 6.952L6.95 0.435ZM8.35 1.135C8.25717 1.04218 8.13127 0.990036 8 0.990036C7.86873 0.990036 7.74283 1.04218 7.65 1.135L1.134 7.65C1.04118 7.74283 0.989035 7.86873 0.989035 8C0.989035 8.13127 1.04118 8.25717 1.134 8.35L7.65 14.866C7.74283 14.9588 7.86873 15.011 8 15.011C8.13127 15.011 8.25717 14.9588 8.35 14.866L14.866 8.35C14.9588 8.25717 15.011 8.13127 15.011 8C15.011 7.86873 14.9588 7.74283 14.866 7.65L8.35 1.134V1.135Z" fill="black"/>
</g>
<defs>
<clipPath id="clip0_104_1536">
<rect width="16" height="16" fill="white"/>
</clipPath>
</defs>
</svg>
