<svg width="16" height="16" viewBox="0 0 16 16" xmlns="http://www.w3.org/2000/svg" fill='currentColor'><g clip-path="url(#clip0_104_1540)"><path d="M9.05001 0.435C8.47001 -0.145 7.53001 -0.145 6.95001 0.435L0.436007 6.95C-0.143993 7.53 -0.143993 8.469 0.436007 9.048L6.95201 15.564C7.53201 16.144 8.47101 16.144 9.05001 15.564L15.566 9.048C16.146 8.468 16.146 7.529 15.566 6.95L9.05001 0.435ZM8.00001 0.989C8.12701 0.989 8.25301 1.038 8.35001 1.134L14.866 7.65C14.9588 7.74283 15.011 7.86873 15.011 8C15.011 8.13127 14.9588 8.25717 14.866 8.35L8.35001 14.866C8.30411 14.9121 8.24956 14.9486 8.18949 14.9735C8.12942 14.9983 8.06503 15.0111 8.00001 15.011V0.989Z"/></g><defs><clipPath id="clip0_104_1540"><rect width="16" height="16"/></clipPath></defs></svg>