<svg width="16" height="16" viewBox="0 0 16 16" fill="none" xmlns="http://www.w3.org/2000/svg">
<g clip-path="url(#clip0_104_1550)">
<path d="M0 3C0 2.20435 0.31607 1.44129 0.87868 0.87868C1.44129 0.31607 2.20435 0 3 0L13 0C13.7956 0 14.5587 0.31607 15.1213 0.87868C15.6839 1.44129 16 2.20435 16 3V13C16 13.7956 15.6839 14.5587 15.1213 15.1213C14.5587 15.6839 13.7956 16 13 16H3C2.20435 16 1.44129 15.6839 0.87868 15.1213C0.31607 14.5587 0 13.7956 0 13L0 3ZM5.5 4C5.5 3.60218 5.34196 3.22064 5.06066 2.93934C4.77936 2.65804 4.39782 2.5 4 2.5C3.60218 2.5 3.22064 2.65804 2.93934 2.93934C2.65804 3.22064 2.5 3.60218 2.5 4C2.5 4.39782 2.65804 4.77936 2.93934 5.06066C3.22064 5.34196 3.60218 5.5 4 5.5C4.39782 5.5 4.77936 5.34196 5.06066 5.06066C5.34196 4.77936 5.5 4.39782 5.5 4ZM12 13.5C12.3978 13.5 12.7794 13.342 13.0607 13.0607C13.342 12.7794 13.5 12.3978 13.5 12C13.5 11.6022 13.342 11.2206 13.0607 10.9393C12.7794 10.658 12.3978 10.5 12 10.5C11.6022 10.5 11.2206 10.658 10.9393 10.9393C10.658 11.2206 10.5 11.6022 10.5 12C10.5 12.3978 10.658 12.7794 10.9393 13.0607C11.2206 13.342 11.6022 13.5 12 13.5Z" fill="black"/>
</g>
<defs>
<clipPath id="clip0_104_1550">
<rect width="16" height="16" fill="white"/>
</clipPath>
</defs>
</svg>
