<svg width="24" height="24" viewBox="0 0 24 24" xmlns="http://www.w3.org/2000/svg" fill='currentColor'><path d="M20.0012 21C18.6112 21 17.2212 20.53 16.0012 19.68C13.5612 21.39 10.4412 21.39 8.00117 19.68C6.78117 20.53 5.39117 21 4.00117 21H2.00117V23H4.00117C5.38117 23 6.74117 22.65 8.00117 22.01C10.5212 23.3 13.4812 23.3 16.0012 22.01C17.2612 22.66 18.6212 23 20.0012 23H22.0012V21H20.0012ZM3.95117 19H4.00117C5.60117 19 7.02117 18.12 8.00117 17C8.98117 18.12 10.4012 19 12.0012 19C13.6012 19 15.0212 18.12 16.0012 17C16.9812 18.12 18.4012 19 20.0012 19H20.0512L21.9412 12.32C22.0212 12.06 22.0012 11.78 21.8812 11.54C21.7612 11.3 21.5412 11.12 21.2812 11.04L20.0012 10.62V6C20.0012 4.9 19.1012 4 18.0012 4H15.0012V1H9.00117V4H6.00117C4.90117 4 4.00117 4.9 4.00117 6V10.62L2.71117 11.04C2.45117 11.12 2.23117 11.3 2.11117 11.54C1.99117 11.78 1.96117 12.06 2.05117 12.32L3.95117 19ZM6.00117 6H18.0012V9.97L12.0012 8L6.00117 9.97V6Z"/></svg>