<svg xmlns="http://www.w3.org/2000/svg" width="24" height="24" viewBox="0 0 24 24" fill='currentColor'><path d="M15.5 5.75c1.1 0 2-.9 2-2s-.9-2-2-2-2 .9-2 2 .9 2 2 2M5 12.25c-2.8 0-5 2.2-5 5s2.2 5 5 5 5-2.2 5-5-2.2-5-5-5m0 8.5c-1.9 0-3.5-1.6-3.5-3.5s1.6-3.5 3.5-3.5 3.5 1.6 3.5 3.5-1.6 3.5-3.5 3.5m5.8-10 2.4-2.4.8.8c1.3 1.3 3 2.1 5.1 2.1v-2c-1.5 0-2.7-.6-3.6-1.5l-1.9-1.9c-.5-.4-1-.6-1.6-.6s-1.1.2-1.4.6l-2.8 2.8c-.4.4-.6.9-.6 1.4 0 .6.2 1.1.6 1.4l3.2 2.8v5h2v-6.2zm8.2 1.5c-2.8 0-5 2.2-5 5s2.2 5 5 5 5-2.2 5-5-2.2-5-5-5m0 8.5c-1.9 0-3.5-1.6-3.5-3.5s1.6-3.5 3.5-3.5 3.5 1.6 3.5 3.5-1.6 3.5-3.5 3.5"/></svg>