<svg width="24" height="24" viewBox="0 0 24 24" xmlns="http://www.w3.org/2000/svg" fill='currentColor'><path d="M13.1325 9.6975H13.8025V7.1975L17.3025 10.6975L15.7125 12.2875L19.1325 15.6975L21.7225 13.1075C22.5025 12.3275 22.5025 11.0575 21.7225 10.2775L13.7325 2.2775C12.9525 1.4975 11.6825 1.4975 10.9025 2.2775L8.30251 4.86751L13.1325 9.6975ZM3.1125 2.5075L1.6925 3.9175L5.47251 7.6975L2.8825 10.2875C2.1025 11.0675 2.1025 12.3375 2.8825 13.1175L10.8925 21.1175C11.6725 21.8975 12.9425 21.8975 13.7225 21.1175L16.3025 18.5275L20.0825 22.3075L21.4925 20.8975L3.1125 2.5075ZM10.3025 14.6975H8.30251V10.6975C8.30251 10.6475 8.3225 10.6075 8.3325 10.5575L10.3025 12.5275V14.6975Z"/></svg>