<svg width="16" height="16" viewBox="0 0 16 16" xmlns="http://www.w3.org/2000/svg" fill='currentColor'><g clip-path="url(#clip0_104_1577)"><path d="M13.545 2.90702C12.5075 2.43089 11.4127 2.09106 10.288 1.89602C10.2778 1.8943 10.2673 1.89579 10.258 1.90026C10.2487 1.90474 10.241 1.91199 10.236 1.92102C10.095 2.17102 9.939 2.49802 9.83 2.75402C8.61761 2.57003 7.38439 2.57003 6.172 2.75402C6.05041 2.46884 5.91286 2.19073 5.76 1.92102C5.75487 1.91209 5.74716 1.90492 5.73788 1.90046C5.72859 1.896 5.71818 1.89445 5.708 1.89602C4.583 2.09002 3.488 2.43002 2.451 2.90702C2.44213 2.91041 2.4347 2.91677 2.43 2.92502C0.356001 6.02402 -0.212999 9.04702 0.0660011 12.032C0.0670011 12.046 0.076001 12.06 0.087001 12.069C1.29473 12.9636 2.64559 13.6467 4.082 14.089C4.09214 14.0922 4.10304 14.0921 4.11311 14.0887C4.12318 14.0853 4.1319 14.0787 4.138 14.07C4.446 13.65 4.72 13.207 4.956 12.741C4.96092 12.7314 4.9626 12.7205 4.9608 12.7099C4.959 12.6992 4.95381 12.6895 4.946 12.682C4.94083 12.6771 4.9347 12.6734 4.928 12.671C4.49716 12.5054 4.0799 12.3065 3.68 12.076C3.66883 12.0697 3.66052 12.0593 3.6568 12.047C3.65308 12.0347 3.65422 12.0215 3.66 12.01C3.6634 12.0026 3.66855 11.9961 3.675 11.991C3.759 11.928 3.843 11.862 3.923 11.796C3.93007 11.7903 3.93855 11.7867 3.94753 11.7855C3.95651 11.7842 3.96566 11.7855 3.974 11.789C6.593 12.985 9.428 12.985 12.015 11.789C12.0236 11.7853 12.0331 11.784 12.0425 11.7852C12.0518 11.7864 12.0606 11.7902 12.068 11.796C12.148 11.862 12.232 11.928 12.316 11.991C12.3228 11.996 12.3283 12.0026 12.3319 12.0102C12.3356 12.0178 12.3373 12.0262 12.3369 12.0346C12.3365 12.043 12.334 12.0512 12.3296 12.0584C12.3253 12.0657 12.3192 12.0717 12.312 12.076C11.913 12.3086 11.4952 12.5073 11.063 12.67C11.0561 12.6725 11.0498 12.6765 11.0447 12.6817C11.0395 12.6869 11.0355 12.6931 11.033 12.7C11.0307 12.7067 11.0298 12.7138 11.0303 12.7208C11.0308 12.7279 11.0327 12.7347 11.036 12.741C11.276 13.206 11.551 13.65 11.853 14.07C11.8591 14.0787 11.8678 14.0853 11.8779 14.0887C11.888 14.0921 11.8989 14.0922 11.909 14.089C13.3478 13.648 14.7009 12.9649 15.91 12.069C15.9161 12.0648 15.9211 12.0593 15.9247 12.0529C15.9284 12.0465 15.9305 12.0394 15.931 12.032C16.265 8.58102 15.372 5.58302 13.565 2.92602C13.5632 2.92163 13.5605 2.91767 13.557 2.9144C13.5536 2.91113 13.5495 2.90861 13.545 2.90702ZM5.347 10.214C4.558 10.214 3.909 9.49002 3.909 8.60202C3.909 7.71302 4.546 6.98902 5.347 6.98902C6.154 6.98902 6.797 7.71902 6.785 8.60202C6.785 9.49002 6.148 10.214 5.347 10.214ZM10.663 10.214C9.875 10.214 9.225 9.49002 9.225 8.60202C9.225 7.71302 9.862 6.98902 10.663 6.98902C11.47 6.98902 12.114 7.71902 12.101 8.60202C12.101 9.49002 11.47 10.214 10.663 10.214Z"/></g><defs><clipPath id="clip0_104_1577"><rect width="16" height="16"/></clipPath></defs></svg>