<svg width="24" height="24" viewBox="0 0 24 24" xmlns="http://www.w3.org/2000/svg" fill='currentColor'><path d="M12.7875 21.5024L2.9975 11.7124V13.7124C2.9975 14.2424 3.2075 14.7524 3.5875 15.1224L11.3775 22.9124C12.1575 23.6924 13.4275 23.6924 14.2075 22.9124L20.4175 16.7024C21.1975 15.9224 21.1975 14.6524 20.4175 13.8724L12.7875 21.5024Z"/><path d="M11.3775 17.9124C12.1575 18.6924 13.4275 18.6924 14.2075 17.9124L20.4175 11.7024C21.1975 10.9224 21.1975 9.65244 20.4175 8.87244L12.6275 1.08244C12.2475 0.712441 11.7375 0.502441 11.2075 0.502441H4.9975C3.8975 0.502441 2.9975 1.40244 2.9975 2.50244V8.71244C2.9975 9.24244 3.2075 9.75244 3.5875 10.1224L11.3775 17.9124ZM7.2475 3.50244C7.9375 3.50244 8.4975 4.06244 8.4975 4.75244C8.4975 5.44244 7.9375 6.00244 7.2475 6.00244C6.5575 6.00244 5.9975 5.44244 5.9975 4.75244C5.9975 4.06244 6.5575 3.50244 7.2475 3.50244Z"/></svg>