<svg width="16" height="16" viewBox="0 0 16 16" fill="none" xmlns="http://www.w3.org/2000/svg">
<path d="M0 4C0 4 0 2 2 2H14C14 2 16 2 16 4V10C16 10 16 12 14 12H10C10 12.667 10.083 13.167 10.25 13.5H11C11.1326 13.5 11.2598 13.5527 11.3536 13.6464C11.4473 13.7402 11.5 13.8674 11.5 14C11.5 14.1326 11.4473 14.2598 11.3536 14.3536C11.2598 14.4473 11.1326 14.5 11 14.5H5C4.86739 14.5 4.74021 14.4473 4.64645 14.3536C4.55268 14.2598 4.5 14.1326 4.5 14C4.5 13.8674 4.55268 13.7402 4.64645 13.6464C4.74021 13.5527 4.86739 13.5 5 13.5H5.75C5.917 13.167 6 12.667 6 12H2C2 12 0 12 0 10V4ZM1.398 3.145C1.28816 3.22148 1.20052 3.32567 1.144 3.447C1.05876 3.62312 1.00979 3.81458 1 4.01V10C1 10.325 1.078 10.502 1.145 10.602C1.215 10.707 1.315 10.79 1.447 10.856C1.61554 10.9376 1.79817 10.9862 1.985 10.999L2.01 11H14C14.325 11 14.502 10.922 14.602 10.855C14.7118 10.7785 14.7995 10.6743 14.856 10.553C14.9376 10.3845 14.9862 10.2018 14.999 10.015L15 9.99V4C15 3.675 14.922 3.498 14.855 3.398C14.7786 3.28812 14.6744 3.20048 14.553 3.144C14.3769 3.05876 14.1854 3.00979 13.99 3H2C1.675 3 1.498 3.078 1.398 3.145Z" fill="black"/>
</svg>
