<svg width="16" height="16" viewBox="0 0 16 16" fill="none" xmlns="http://www.w3.org/2000/svg">
<path d="M6 12C6 12.667 5.917 13.167 5.75 13.5H5C4.86739 13.5 4.74021 13.5527 4.64645 13.6464C4.55268 13.7402 4.5 13.8674 4.5 14C4.5 14.1326 4.55268 14.2598 4.64645 14.3536C4.74021 14.4473 4.86739 14.5 5 14.5H11C11.1326 14.5 11.2598 14.4473 11.3536 14.3536C11.4473 14.2598 11.5 14.1326 11.5 14C11.5 13.8674 11.4473 13.7402 11.3536 13.6464C11.2598 13.5527 11.1326 13.5 11 13.5H10.25C10.083 13.167 10 12.667 10 12H14C16 12 16 10 16 10V4C16 2 14 2 14 2H2C0 2 0 4 0 4V10C0 12 2 12 2 12H6Z" fill="black"/>
</svg>
