<svg width="16" height="16" viewBox="0 0 16 16" fill="none" xmlns="http://www.w3.org/2000/svg">
<path fill-rule="evenodd" clip-rule="evenodd" d="M1 1.5C1 1.63261 1.05268 1.75979 1.14645 1.85355C1.24021 1.94732 1.36739 2 1.5 2H14.5C14.6326 2 14.7598 1.94732 14.8536 1.85355C14.9473 1.75979 15 1.63261 15 1.5C15 1.36739 14.9473 1.24021 14.8536 1.14645C14.7598 1.05268 14.6326 1 14.5 1H1.5C1.36739 1 1.24021 1.05268 1.14645 1.14645C1.05268 1.24021 1 1.36739 1 1.5ZM1 14.5C1 14.6326 1.05268 14.7598 1.14645 14.8536C1.24021 14.9473 1.36739 15 1.5 15H14.5C14.6326 15 14.7598 14.9473 14.8536 14.8536C14.9473 14.7598 15 14.6326 15 14.5C15 14.3674 14.9473 14.2402 14.8536 14.1464C14.7598 14.0527 14.6326 14 14.5 14H1.5C1.36739 14 1.24021 14.0527 1.14645 14.1464C1.05268 14.2402 1 14.3674 1 14.5Z" fill="black"/>
<path d="M2 7C2 6.73478 2.10536 6.48043 2.29289 6.29289C2.48043 6.10536 2.73478 6 3 6H13C13.2652 6 13.5196 6.10536 13.7071 6.29289C13.8946 6.48043 14 6.73478 14 7V9C14 9.26522 13.8946 9.51957 13.7071 9.70711C13.5196 9.89464 13.2652 10 13 10H3C2.73478 10 2.48043 9.89464 2.29289 9.70711C2.10536 9.51957 2 9.26522 2 9V7Z" fill="black"/>
</svg>
