<svg xmlns="http://www.w3.org/2000/svg" width="24" height="24" viewBox="0 0 24 24" fill='currentColor'><g clip-path="url(#a)"><path d="m10.096 15.89 1.42-1.42c-2.73-2.43-4.52-4.07-4.52-5.63 0-1.05.8-1.85 1.85-1.85 1.11 0 1.54.65 2.68 2h.93c1.12-1.31 1.53-2 2.68-2 .87 0 1.55.54 1.77 1.32.35-.04.68-.06 1-.06.36 0 .7.03 1.03.08-.24-1.91-1.81-3.34-3.79-3.34-.12 0-.23.03-.35.04.12-.33.2-.67.2-1.04 0-1.66-1.34-3-3-3s-3 1.34-3 3c0 .37.08.71.2 1.04-.12-.01-.23-.04-.35-.04-2.16 0-3.85 1.69-3.85 3.85 0 2.42 2.04 4.31 5.1 7.05"/><path d="M22.496 16.23c-.32-.18-.66-.29-1-.35.07-.1.15-.18.21-.28 1.08-1.87.46-4.18-1.41-5.26-2.09-1.21-4.76-.39-8.65.9l.52 1.94c3.47-1.14 5.79-1.88 7.14-1.1.91.53 1.2 1.61.68 2.53-.56.96-1.33 1-3.07 1.32l-.47.81c.58 1.62.97 2.33.39 3.32-.53.91-1.61 1.2-2.53.68-.06-.03-.11-.09-.17-.13-.3.67-.64 1.24-1.03 1.73.07.04.13.09.2.14 1.87 1.08 4.18.46 5.26-1.41.06-.1.09-.21.14-.32.22.27.48.51.8.69 1.43.83 3.27.34 4.1-1.1s.32-3.29-1.11-4.11"/><path d="M12.316 14c-.74 3.58-1.27 5.95-2.62 6.73-.91.53-2 .24-2.53-.68-.56-.96-.2-1.66.39-3.32l-.46-.81c-1.7-.31-2.5-.33-3.07-1.32-.53-.91-.24-2 .68-2.53.09-.05.19-.08.29-.11-.35-.56-.64-1.17-.82-1.85-.16.07-.32.14-.48.23-1.87 1.08-2.49 3.39-1.41 5.26.06.1.14.18.21.28-.34.06-.68.17-1 .35a3.005 3.005 0 0 0-1.1 4.1 2.996 2.996 0 0 0 4.1 1.1c.32-.18.58-.42.8-.69.05.11.08.22.14.32 1.08 1.87 3.39 2.49 5.26 1.41 2.09-1.21 2.71-3.93 3.55-7.94z"/></g><defs><clipPath id="a"><path d="M0 0h24v24H0z"/></clipPath></defs></svg>