<svg xmlns="http://www.w3.org/2000/svg" width="24" height="24" viewBox="0 0 24 24" fill='currentColor'><path d="M4 16.5a2 2 0 1 0 0-4 2 2 0 0 0 0 4m-2.78 1.58A2.01 2.01 0 0 0 0 19.93v1.57h4.5v-1.61c0-.83.23-1.61.63-2.29-.37-.06-.74-.1-1.13-.1-.99 0-1.93.21-2.78.58M20 16.5a2 2 0 1 0 0-4 2 2 0 0 0 0 4m2.78 1.58A6.95 6.95 0 0 0 20 17.5c-.39 0-.76.04-1.13.1.4.68.63 1.46.63 2.29v1.61H24v-1.57c0-.81-.48-1.53-1.22-1.85m-6.54-.93c-1.17-.52-2.61-.9-4.24-.9s-3.07.39-4.24.9A2.99 2.99 0 0 0 6 19.89v1.61h12v-1.61c0-1.18-.68-2.26-1.76-2.74M9 12.5c0 1.66 1.34 3 3 3s3-1.34 3-3-1.34-3-3-3-3 1.34-3 3"/><path d="M2.48 11.36C2.17 10.6 2 9.86 2 9.1c0-2.58 2.02-4.6 4.6-4.6 2.68 0 3.82 1.74 5.4 3.59 1.57-1.83 2.7-3.59 5.4-3.59 2.58 0 4.6 2.02 4.6 4.6 0 .76-.17 1.5-.48 2.26.65.31 1.18.82 1.53 1.44.6-1.2.95-2.42.95-3.7 0-3.7-2.9-6.6-6.6-6.6-2.09 0-4.09.97-5.4 2.51C10.69 3.47 8.69 2.5 6.6 2.5 2.9 2.5 0 5.4 0 9.1c0 1.28.35 2.5.96 3.7.35-.62.88-1.13 1.52-1.44"/></svg>