<svg width="24" height="24" viewBox="0 0 24 24" xmlns="http://www.w3.org/2000/svg" fill='currentColor'><g clip-path="url(#clip0_1616_4613)"><path d="M10.0963 15.89L11.5163 14.47C8.78627 12.04 6.99626 10.4 6.99626 8.83999C6.99626 7.78999 7.79627 6.98999 8.84627 6.98999C9.95627 6.98999 10.3863 7.63999 11.5263 8.98999H12.4563C13.5763 7.67999 13.9863 6.98999 15.1363 6.98999C16.0063 6.98999 16.6863 7.52999 16.9063 8.30999C17.2563 8.26999 17.5863 8.24999 17.9063 8.24999C18.2663 8.24999 18.6063 8.27999 18.9363 8.32999C18.6963 6.41999 17.1263 4.98999 15.1463 4.98999C15.0263 4.98999 14.9163 5.01999 14.7963 5.02999C14.9163 4.69999 14.9963 4.35999 14.9963 3.98999C14.9963 2.32999 13.6563 0.98999 11.9963 0.98999C10.3363 0.98999 8.99627 2.32999 8.99627 3.98999C8.99627 4.35999 9.07627 4.69999 9.19627 5.02999C9.07627 5.01999 8.96627 4.98999 8.84627 4.98999C6.68627 4.98999 4.99626 6.67999 4.99626 8.83999C4.99626 11.26 7.03627 13.15 10.0963 15.89Z"/><path d="M22.4963 16.23C22.1763 16.05 21.8363 15.94 21.4963 15.88C21.5663 15.78 21.6463 15.7 21.7063 15.6C22.7863 13.73 22.1663 11.42 20.2963 10.34C18.2063 9.12999 15.5363 9.94999 11.6463 11.24L12.1663 13.18C15.6363 12.04 17.9563 11.3 19.3063 12.08C20.2163 12.61 20.5063 13.69 19.9863 14.61C19.4263 15.57 18.6563 15.61 16.9163 15.93L16.4463 16.74C17.0263 18.36 17.4163 19.07 16.8363 20.06C16.3063 20.97 15.2263 21.26 14.3063 20.74C14.2463 20.71 14.1963 20.65 14.1363 20.61C13.8363 21.28 13.4963 21.85 13.1063 22.34C13.1763 22.38 13.2363 22.43 13.3063 22.48C15.1763 23.56 17.4863 22.94 18.5663 21.07C18.6263 20.97 18.6563 20.86 18.7063 20.75C18.9263 21.02 19.1863 21.26 19.5063 21.44C20.9363 22.27 22.7763 21.78 23.6063 20.34C24.4363 18.9 23.9263 17.05 22.4963 16.23Z"/><path d="M12.3163 14C11.5763 17.58 11.0463 19.95 9.69627 20.73C8.78627 21.26 7.69627 20.97 7.16627 20.05C6.60627 19.09 6.96626 18.39 7.55626 16.73L7.09626 15.92C5.39627 15.61 4.59627 15.59 4.02627 14.6C3.49627 13.69 3.78626 12.6 4.70626 12.07C4.79627 12.02 4.89627 11.99 4.99626 11.96C4.64627 11.4 4.35626 10.79 4.17626 10.11C4.01626 10.18 3.85627 10.25 3.69626 10.34C1.82626 11.42 1.20626 13.73 2.28626 15.6C2.34626 15.7 2.42627 15.78 2.49626 15.88C2.15627 15.94 1.81626 16.05 1.49626 16.23C0.066265 17.06 -0.433735 18.89 0.396265 20.33C1.22626 21.77 3.05626 22.26 4.49626 21.43C4.81627 21.25 5.07627 21.01 5.29627 20.74C5.34627 20.85 5.37627 20.96 5.43626 21.06C6.51626 22.93 8.82627 23.55 10.6963 22.47C12.7863 21.26 13.4063 18.54 14.2463 14.53L12.3163 14Z"/></g><defs><clipPath id="clip0_1616_4613"><rect width="24" height="24"/></clipPath></defs></svg>