<svg width="24" height="24" viewBox="0 0 24 24" xmlns="http://www.w3.org/2000/svg" fill='currentColor'><path d="M17.3049 10.6951V12.6951H16.1349L20.6449 17.2051C21.6949 15.6251 22.3049 13.7351 22.3049 11.6951C22.3049 6.17507 17.8249 1.69507 12.3049 1.69507C10.2649 1.69507 8.37495 2.30507 6.79495 3.35507L14.1349 10.6951H17.3049ZM1.69495 3.91507L3.96495 6.18507C2.91495 7.76507 2.30495 9.65507 2.30495 11.6951C2.30495 17.2151 6.78495 21.6951 12.3049 21.6951C14.3449 21.6951 16.2349 21.0851 17.8149 20.0351L20.0849 22.3051L21.4949 20.8951L3.11495 2.50507L1.69495 3.91507ZM7.30495 10.6951H8.47495L10.4749 12.6951H7.30495V10.6951Z"/></svg>