<svg width="24" height="24" viewBox="0 0 24 24" xmlns="http://www.w3.org/2000/svg" fill='currentColor'><path d="M17.305 10.6949V12.6949H16.135L20.645 17.2049C21.695 15.6249 22.305 13.7349 22.305 11.6949C22.305 6.17495 17.825 1.69495 12.305 1.69495C10.265 1.69495 8.37501 2.30495 6.79501 3.35495L14.135 10.6949H17.305ZM1.69501 3.91495L3.96501 6.18495C2.91501 7.76495 2.30501 9.65495 2.30501 11.6949C2.30501 17.2149 6.78501 21.6949 12.305 21.6949C14.345 21.6949 16.235 21.0849 17.815 20.0349L20.085 22.3049L21.495 20.8949L3.11501 2.50495L1.69501 3.91495ZM7.30501 10.6949H8.47501L10.475 12.6949H7.30501V10.6949Z"/></svg>