<svg width="24" height="24" viewBox="0 0 24 24" xmlns="http://www.w3.org/2000/svg" fill='currentColor'><path d="M13.71 10.3649L11.21 7.86495V2.44495C11.21 1.75495 11.77 1.19495 12.46 1.19495C13.15 1.19495 13.71 1.75495 13.71 2.44495V10.3649ZM20.71 5.44495C20.71 4.75495 20.15 4.19495 19.46 4.19495C18.77 4.19495 18.21 4.75495 18.21 5.44495V11.1949H17.21V3.44495C17.21 2.75495 16.65 2.19495 15.96 2.19495C15.27 2.19495 14.71 2.75495 14.71 3.44495V11.3649L20.71 17.3649V5.44495ZM10.21 4.44495C10.21 3.75495 9.65001 3.19495 8.96001 3.19495C8.29001 3.19495 7.76001 3.72495 7.72001 4.37495L10.21 6.86495V4.44495ZM13.71 10.3649L11.21 7.86495V2.44495C11.21 1.75495 11.77 1.19495 12.46 1.19495C13.15 1.19495 13.71 1.75495 13.71 2.44495V10.3649ZM20.71 5.44495C20.71 4.75495 20.15 4.19495 19.46 4.19495C18.77 4.19495 18.21 4.75495 18.21 5.44495V11.1949H17.21V3.44495C17.21 2.75495 16.65 2.19495 15.96 2.19495C15.27 2.19495 14.71 2.75495 14.71 3.44495V11.3649L20.71 17.3649V5.44495ZM10.21 4.44495C10.21 3.75495 9.65001 3.19495 8.96001 3.19495C8.29001 3.19495 7.76001 3.72495 7.72001 4.37495L10.21 6.86495V4.44495ZM21.9 21.3849L3.52001 3.00495L2.10001 4.41495L7.73001 10.0449L7.71001 10.0249V14.3249C6.60001 13.6849 5.13001 12.8549 5.11001 12.8449C4.94001 12.7549 4.77001 12.7049 4.57001 12.7049C4.31001 12.7049 4.07001 12.7949 3.87001 12.9649C3.83001 12.9749 2.71001 14.0749 2.71001 14.0749L9.51001 21.2549C10.08 21.8549 10.86 22.1949 11.69 22.1949H17.71C18.33 22.1949 18.89 22.0049 19.36 21.6749L19.34 21.6549L20.49 22.8049L21.9 21.3849Z"/></svg>