<svg width="24" height="24" viewBox="0 0 24 24" xmlns="http://www.w3.org/2000/svg" fill='currentColor'><path d="M1.39 3.91495L9.29 11.8149C9.47 12.0149 9.47 12.3149 9.28 12.5149C9.18 12.6149 9.05 12.6649 8.93 12.6649C8.81 12.6649 8.67 12.6149 8.58 12.5149L6.87 10.7949C6.76 11.1949 6.61 11.5749 6.42 11.9149L7.82 13.3149C8.02 13.5149 8.02 13.8249 7.82 14.0249C7.72 14.1249 7.59 14.1749 7.47 14.1749C7.35 14.1749 7.21 14.1249 7.12 14.0249L5.85 12.7549C5.61 13.0449 5.35 13.3149 5.08 13.5549L6.36 14.8349C6.56 15.0349 6.56 15.3449 6.36 15.5449C6.26 15.6449 6.13 15.6949 6 15.6949C5.87 15.6949 5.74 15.6449 5.65 15.5449L4.27 14.1649C3.58 14.6249 2.88 14.9549 2.3 15.1849C1.52 15.4949 1 16.2249 1 17.0649V19.6949H10.5L13.83 16.3649L19.77 22.3049L21.18 20.8949L2.81 2.50495L1.39 3.91495ZM18.51 15.3749L17.1 13.9649L21.58 9.48495L23 10.8949L18.51 15.3749ZM20.88 8.77495L16.4 13.2549L9.3 6.16495L13.8 1.69495L20.88 8.77495Z"/></svg>