<svg xmlns="http://www.w3.org/2000/svg" width="24" height="24" viewBox="0 0 24 24" fill='currentColor'><path d="m13.71 10.365-2.5-2.5v-5.42a1.25 1.25 0 0 1 2.5 0zm7-4.92a1.25 1.25 0 0 0-2.5 0v5.75h-1v-7.75a1.25 1.25 0 0 0-2.5 0v7.92l6 6zm-10.5-1c0-.69-.56-1.25-1.25-1.25-.67 0-1.2.53-1.24 1.18l2.49 2.49zm3.5 5.92-2.5-2.5v-5.42a1.25 1.25 0 0 1 2.5 0zm7-4.92a1.25 1.25 0 0 0-2.5 0v5.75h-1v-7.75a1.25 1.25 0 0 0-2.5 0v7.92l6 6zm-10.5-1c0-.69-.56-1.25-1.25-1.25-.67 0-1.2.53-1.24 1.18l2.49 2.49zm11.69 16.94L3.52 3.005 2.1 4.415l5.63 5.63-.02-.02v4.3c-1.11-.64-2.58-1.47-2.6-1.48-.17-.09-.34-.14-.54-.14-.26 0-.5.09-.7.26-.04.01-1.16 1.11-1.16 1.11l6.8 7.18c.57.6 1.35.94 2.18.94h6.02c.62 0 1.18-.19 1.65-.52l-.02-.02 1.15 1.15z"/></svg>