<svg width="24" height="24" viewBox="0 0 24 24" xmlns="http://www.w3.org/2000/svg" fill='currentColor'><g clip-path="url(#clip0_1616_4577)"><path d="M8.80002 4.10002H10.8V6.10002H9.90002L12.8 9.00002V8.10002H20.8V17L22.8 19V6.10002H12.8V2.10002H5.90002L8.80002 5.00002V4.10002ZM16.8 10.1H18.8V12.1H16.8V10.1ZM2.10002 0.900024L0.900024 2.20002L2.80002 4.10002V20.1H18.8L21.8 23.1L23.1 21.8L2.10002 0.900024ZM6.80002 18.1H4.80002V16.1H6.80002V18.1ZM6.80002 14.1H4.80002V12.1H6.80002V14.1ZM6.80002 10.1H4.80002V8.10002H6.80002V10.1ZM10.8 18.1H8.80002V16.1H10.8V18.1ZM10.8 14.1H8.80002V12.1H10.8V14.1ZM12.8 18.1V16.1H14.8L16.8 18.1H12.8Z"/></g><defs><clipPath id="clip0_1616_4577"><rect width="24" height="24"/></clipPath></defs></svg>