<svg width="16" height="16" viewBox="0 0 16 16" fill="none" xmlns="http://www.w3.org/2000/svg">
<g clip-path="url(#clip0_104_1597)">
<path d="M1.5 15C1.36739 15 1.24021 15.0527 1.14645 15.1464C1.05268 15.2402 1 15.3674 1 15.5C1 15.6326 1.05268 15.7598 1.14645 15.8535C1.24021 15.9473 1.36739 16 1.5 16H14.5C14.6326 16 14.7598 15.9473 14.8536 15.8535C14.9473 15.7598 15 15.6326 15 15.5C15 15.3674 14.9473 15.2402 14.8536 15.1464C14.7598 15.0527 14.6326 15 14.5 15H13V2.49999C13 2.10216 12.842 1.72063 12.5607 1.43933C12.2794 1.15802 11.8978 0.999985 11.5 0.999985H11V0.499985C11 0.428416 10.9846 0.357683 10.9549 0.292568C10.9252 0.227452 10.8819 0.169471 10.8278 0.122545C10.7738 0.0756176 10.7103 0.0408381 10.6417 0.020557C10.5731 0.000275834 10.5009 -0.00503436 10.43 0.00498532L3.43 1.00499C3.31072 1.02185 3.20154 1.08122 3.12253 1.17216C3.04353 1.26311 3.00002 1.37952 3 1.49999V15H1.5ZM11 1.99999H11.5C11.6326 1.99999 11.7598 2.05266 11.8536 2.14643C11.9473 2.2402 12 2.36738 12 2.49999V15H11V1.99999ZM8.5 9.99999C8.224 9.99999 8 9.55199 8 8.99999C8 8.44799 8.224 7.99999 8.5 7.99999C8.776 7.99999 9 8.44799 9 8.99999C9 9.55199 8.776 9.99999 8.5 9.99999Z" fill="black"/>
</g>
<defs>
<clipPath id="clip0_104_1597">
<rect width="16" height="16" fill="white"/>
</clipPath>
</defs>
</svg>
