<svg width="16" height="16" viewBox="0 0 16 16" fill="none" xmlns="http://www.w3.org/2000/svg">
<path d="M0.5 9.90002C0.632608 9.90002 0.759785 9.9527 0.853553 10.0465C0.947322 10.1402 1 10.2674 1 10.4V12.9C1 13.1652 1.10536 13.4196 1.29289 13.6071C1.48043 13.7947 1.73478 13.9 2 13.9H14C14.2652 13.9 14.5196 13.7947 14.7071 13.6071C14.8946 13.4196 15 13.1652 15 12.9V10.4C15 10.2674 15.0527 10.1402 15.1464 10.0465C15.2402 9.9527 15.3674 9.90002 15.5 9.90002C15.6326 9.90002 15.7598 9.9527 15.8536 10.0465C15.9473 10.1402 16 10.2674 16 10.4V12.9C16 13.4305 15.7893 13.9392 15.4142 14.3142C15.0391 14.6893 14.5304 14.9 14 14.9H2C1.46957 14.9 0.960859 14.6893 0.585786 14.3142C0.210714 13.9392 0 13.4305 0 12.9V10.4C0 10.2674 0.0526784 10.1402 0.146447 10.0465C0.240215 9.9527 0.367392 9.90002 0.5 9.90002Z" fill="black"/>
<path d="M7.64599 11.854C7.69244 11.9006 7.74761 11.9375 7.80836 11.9627C7.8691 11.9879 7.93422 12.0009 7.99999 12.0009C8.06576 12.0009 8.13088 11.9879 8.19162 11.9627C8.25237 11.9375 8.30755 11.9006 8.35399 11.854L11.354 8.854C11.4479 8.76011 11.5006 8.63278 11.5006 8.5C11.5006 8.36722 11.4479 8.23989 11.354 8.146C11.2601 8.05211 11.1328 7.99937 11 7.99937C10.8672 7.99937 10.7399 8.05211 10.646 8.146L8.49999 10.293V1.5C8.49999 1.36739 8.44731 1.24021 8.35354 1.14645C8.25978 1.05268 8.1326 1 7.99999 1C7.86738 1 7.74021 1.05268 7.64644 1.14645C7.55267 1.24021 7.49999 1.36739 7.49999 1.5V10.293L5.35399 8.146C5.2601 8.05211 5.13277 7.99937 4.99999 7.99937C4.86722 7.99937 4.73988 8.05211 4.64599 8.146C4.5521 8.23989 4.49936 8.36722 4.49936 8.5C4.49936 8.63278 4.5521 8.76011 4.64599 8.854L7.64599 11.854Z" fill="black"/>
</svg>
