<svg xmlns="http://www.w3.org/2000/svg" width="24" height="24" viewBox="0 0 24 24" fill='currentColor'><path d="M18.345 4.26a9.95 9.95 0 0 0-5.32-2.21v2.02c1.46.18 2.79.76 3.9 1.62zm1.61 6.74h2.02c-.2-2.01-1-3.84-2.21-5.32l-1.43 1.42a7.94 7.94 0 0 1 1.62 3.9m-1.62 5.9 1.43 1.43a10 10 0 0 0 2.21-5.32h-2.02a7.95 7.95 0 0 1-1.62 3.89m-5.31 3.03v2.02c2.01-.2 3.84-1 5.32-2.21l-1.43-1.43c-1.1.86-2.43 1.44-3.89 1.62m0-7.93V7h-2v5h-4l5 5 5-5zm-2 7.93v2.02c-5.05-.5-9-4.76-9-9.95s3.95-9.45 9-9.95v2.02c-3.95.49-7 3.85-7 7.93s3.05 7.44 7 7.93"/></svg>