<svg xmlns="http://www.w3.org/2000/svg" width="24" height="24" viewBox="0 0 24 24" fill='currentColor'><mask id="a" width="24" height="24" x="0" y="0" maskUnits="userSpaceOnUse" style="mask-type:alpha"><path d="M0 0h24v24H0z"/></mask><g mask="url(#a)"><path d="m12 22-4.25-4.25 1.425-1.425L11 18.15V13H5.875L7.7 14.8l-1.45 1.45L2 12l4.225-4.225L7.65 9.2 5.85 11H11V5.85L9.175 7.675 7.75 6.25 12 2l4.25 4.25-1.425 1.425L13 5.85V11h5.125L16.3 9.2l1.45-1.45L22 12l-4.25 4.25-1.425-1.425L18.15 13H13v5.125l1.8-1.825 1.45 1.45z"/></g></svg>