<svg width="16" height="16" viewBox="0 0 16 16" fill="none" xmlns="http://www.w3.org/2000/svg">
<g clip-path="url(#clip0_104_1604)">
<path fill-rule="evenodd" clip-rule="evenodd" d="M8 0C3.584 0 0 3.584 0 8C0 12.416 3.584 16 8 16C12.408 16 16 12.416 16 8C16 3.584 12.408 0 8 0ZM13.284 3.688C14.2688 4.88727 14.814 6.38725 14.829 7.939C14.603 7.896 12.347 7.436 10.074 7.722C10.022 7.61 9.978 7.488 9.926 7.367C9.787 7.037 9.631 6.699 9.475 6.377C11.991 5.354 13.137 3.879 13.285 3.687L13.284 3.688ZM8 1.18C9.735 1.18 11.323 1.83 12.53 2.898C12.408 3.072 11.375 4.451 8.946 5.362C7.826 3.306 6.586 1.622 6.395 1.362C6.92111 1.23916 7.45974 1.17808 8 1.18ZM5.093 1.822C6.00868 3.09105 6.85459 4.409 7.627 5.77C4.434 6.62 1.614 6.603 1.31 6.603C1.52986 5.56873 1.98565 4.59922 2.64185 3.77008C3.29805 2.94095 4.1369 2.2746 5.093 1.823V1.822ZM1.163 8.01V7.8C1.458 7.81 4.773 7.853 8.183 6.829C8.382 7.21 8.564 7.601 8.738 7.991L8.468 8.069C4.946 9.206 3.072 12.312 2.915 12.573C1.78682 11.3206 1.16265 9.69462 1.163 8.009V8.01ZM8 14.837C6.48155 14.8394 5.00619 14.3323 3.81 13.397C3.93 13.145 5.319 10.473 9.171 9.128C9.189 9.119 9.197 9.119 9.215 9.111C9.8644 10.7874 10.3523 12.5219 10.672 14.291C9.828 14.6537 8.91862 14.8395 8 14.837ZM11.81 13.666C11.74 13.249 11.375 11.254 10.482 8.798C12.625 8.46 14.499 9.015 14.733 9.093C14.5872 10.0157 14.2523 10.8982 13.7491 11.6852C13.2459 12.4721 12.5853 13.1465 11.809 13.666H11.81Z" fill="black"/>
</g>
<defs>
<clipPath id="clip0_104_1604">
<rect width="16" height="16" fill="white"/>
</clipPath>
</defs>
</svg>
