<svg width="16" height="16" viewBox="0 0 16 16" xmlns="http://www.w3.org/2000/svg" fill='currentColor'><path fill-rule="evenodd" clip-rule="evenodd" d="M7.21 0.8C7.69 0.295 8 0 8 0C8.109 0.363 8.234 0.708 8.371 1.038C9.183 2.984 10.444 4.388 11.568 5.638C12.878 7.096 14 8.345 14 10C14 11.5913 13.3679 13.1174 12.2426 14.2426C11.1174 15.3679 9.5913 16 8 16C6.4087 16 4.88258 15.3679 3.75736 14.2426C2.63214 13.1174 2 11.5913 2 10C2 6.668 5.58 2.517 7.21 0.8ZM7.623 1.821C6.98081 2.51594 6.37051 3.23968 5.794 3.99C5.068 4.94 4.358 5.998 3.834 7.06C3.304 8.133 3 9.138 3 10C3 10 5.5 11.5 8 10.5C10.5 9.5 13 10 13 10C13 8.799 12.204 7.843 10.819 6.3L10.789 6.268C9.75 5.11 8.5 3.72 7.623 1.82V1.821Z"/><path fill-rule="evenodd" clip-rule="evenodd" d="M4.55301 7.776C5.37301 6.135 6.27001 5.023 6.64601 4.646L7.35401 5.354C7.06401 5.644 6.22601 6.665 5.44701 8.224L4.55301 7.776Z"/></svg>