<svg width="16" height="16" viewBox="0 0 16 16" fill="none" xmlns="http://www.w3.org/2000/svg">
<g clip-path="url(#clip0_104_1614)">
<path fill-rule="evenodd" clip-rule="evenodd" d="M6.825 4.13802C7.421 6.27902 6.465 7.73102 4.436 8.25502C3.77645 8.42802 3.08587 8.4465 2.418 8.30902C2.37 8.29902 3.318 11.087 3.94 12.919L4.35 14.124C4.37143 14.19 4.37945 14.2596 4.37358 14.3287C4.36772 14.3978 4.34809 14.465 4.31585 14.5264C4.28361 14.5878 4.23941 14.6422 4.18585 14.6862C4.1323 14.7303 4.07047 14.7632 4.004 14.783L3.411 14.973C3.27439 15.0183 3.12543 15.008 2.99632 14.9444C2.86722 14.8808 2.76832 14.769 2.721 14.633L0.184003 6.99002C-0.511997 4.85302 0.846003 2.68102 2.748 2.19002C4.777 1.66702 6.15 2.19002 6.824 4.13802H6.825ZM5.957 6.35902C6.387 6.24702 6.518 5.36602 6.249 4.39002C5.98 3.41502 5.413 2.71502 4.983 2.82702C4.553 2.93902 4.422 3.82102 4.691 4.79602C4.96 5.77102 5.527 6.47102 5.957 6.35902ZM9.175 4.13802C8.579 6.27902 9.535 7.73102 11.564 8.25502C12.2236 8.42795 12.9141 8.44643 13.582 8.30902C13.63 8.29902 12.682 11.087 12.06 12.919L11.65 14.124C11.6286 14.19 11.6206 14.2596 11.6264 14.3287C11.6323 14.3978 11.6519 14.465 11.6842 14.5264C11.7164 14.5878 11.7606 14.6422 11.8142 14.6862C11.8677 14.7303 11.9295 14.7632 11.996 14.783L12.589 14.973C12.878 15.065 13.189 14.913 13.279 14.633L15.815 6.99002C16.511 4.85302 15.153 2.68102 13.251 2.19002C11.222 1.66702 9.849 2.19002 9.175 4.13802ZM10.043 6.35902C9.613 6.24702 9.482 5.36602 9.751 4.39002C10.02 3.41502 10.587 2.71502 11.017 2.82702C11.447 2.93902 11.578 3.82102 11.309 4.79602C11.04 5.77102 10.473 6.47102 10.043 6.35902Z" fill="black"/>
</g>
<defs>
<clipPath id="clip0_104_1614">
<rect width="16" height="16" fill="white"/>
</clipPath>
</defs>
</svg>
