<svg width="16" height="16" viewBox="0 0 16 16" fill="none" xmlns="http://www.w3.org/2000/svg">
<g clip-path="url(#clip0_104_1625)">
<path d="M8.5 12V13.134C8.69064 13.2441 8.83964 13.414 8.92388 13.6173C9.00812 13.8207 9.0229 14.0462 8.96593 14.2588C8.90895 14.4715 8.78341 14.6594 8.60876 14.7934C8.43412 14.9274 8.22013 15 8 15C7.77987 15 7.56588 14.9274 7.39124 14.7934C7.21659 14.6594 7.09105 14.4715 7.03407 14.2588C6.9771 14.0462 6.99188 13.8207 7.07612 13.6173C7.16036 13.414 7.30936 13.2441 7.5 13.134V12H2.5C2.10218 12 1.72064 11.842 1.43934 11.5607C1.15804 11.2794 1 10.8978 1 10.5V3H15V10.5C15 10.8978 14.842 11.2794 14.5607 11.5607C14.2794 11.842 13.8978 12 13.5 12H8.5ZM15.5 2C15.6326 2 15.7598 1.94732 15.8536 1.85355C15.9473 1.75979 16 1.63261 16 1.5C16 1.36739 15.9473 1.24021 15.8536 1.14645C15.7598 1.05268 15.6326 1 15.5 1H0.5C0.367392 1 0.240215 1.05268 0.146447 1.14645C0.0526784 1.24021 0 1.36739 0 1.5C0 1.63261 0.0526784 1.75979 0.146447 1.85355C0.240215 1.94732 0.367392 2 0.5 2H15.5Z" fill="black"/>
</g>
<defs>
<clipPath id="clip0_104_1625">
<rect width="16" height="16" fill="white"/>
</clipPath>
</defs>
</svg>
