<svg width="16" height="16" viewBox="0 0 16 16" xmlns="http://www.w3.org/2000/svg" fill='currentColor'><g clip-path="url(#clip0_104_1618)"><path fill-rule="evenodd" clip-rule="evenodd" d="M8 0C8.09278 3.11334e-06 8.18373 0.0258203 8.26267 0.0745635C8.34161 0.123307 8.40543 0.193053 8.447 0.276L8.81 1H13.5C13.8978 1 14.2794 1.15804 14.5607 1.43934C14.842 1.72064 15 2.10218 15 2.5V11H15.5C15.6326 11 15.7598 11.0527 15.8536 11.1464C15.9473 11.2402 16 11.3674 16 11.5C16 11.6326 15.9473 11.7598 15.8536 11.8536C15.7598 11.9473 15.6326 12 15.5 12H12.64L13.485 15.379C13.5137 15.5064 13.4914 15.64 13.4228 15.7512C13.3543 15.8623 13.2449 15.9423 13.1182 15.9739C12.9915 16.0055 12.8575 15.9863 12.7447 15.9203C12.632 15.8544 12.5495 15.747 12.515 15.621L12.11 14H3.89L3.485 15.621C3.45046 15.747 3.36801 15.8544 3.25528 15.9203C3.14255 15.9863 3.00849 16.0055 2.88177 15.9739C2.75505 15.9423 2.64573 15.8623 2.57719 15.7512C2.50865 15.64 2.48633 15.5064 2.515 15.379L3.36 12H0.5C0.367392 12 0.240215 11.9473 0.146447 11.8536C0.0526784 11.7598 0 11.6326 0 11.5C0 11.3674 0.0526784 11.2402 0.146447 11.1464C0.240215 11.0527 0.367392 11 0.5 11H1V2.5C1 2.10218 1.15804 1.72064 1.43934 1.43934C1.72064 1.15804 2.10218 1 2.5 1H7.191L7.553 0.276C7.59456 0.193053 7.65839 0.123307 7.73733 0.0745635C7.81627 0.0258203 7.90722 3.11334e-06 8 0V0ZM2 11H14V2.5C14 2.36739 13.9473 2.24021 13.8536 2.14645C13.7598 2.05268 13.6326 2 13.5 2H2.5C2.36739 2 2.24021 2.05268 2.14645 2.14645C2.05268 2.24021 2 2.36739 2 2.5V11ZM11.61 12H4.39L4.14 13H11.86L11.61 12Z"/></g><defs><clipPath id="clip0_104_1618"><rect width="16" height="16"/></clipPath></defs></svg>