<svg width="16" height="16" viewBox="0 0 16 16" fill="none" xmlns="http://www.w3.org/2000/svg">
<g clip-path="url(#clip0_104_1616)">
<path d="M8 9.93322e-08C8.10411 -6.55094e-05 8.20565 0.0323713 8.29045 0.0927845C8.37524 0.153198 8.43906 0.238574 8.473 0.337L9.046 2H14C14.2652 2 14.5196 2.10536 14.7071 2.29289C14.8946 2.48043 15 2.73478 15 3V10C15 10.2652 14.8946 10.5196 14.7071 10.7071C14.5196 10.8946 14.2652 11 14 11H12.15L13.473 14.837C13.5162 14.9624 13.5079 15.0999 13.4497 15.2192C13.3916 15.3385 13.2884 15.4298 13.163 15.473C13.0376 15.5162 12.9001 15.5079 12.7808 15.4497C12.6615 15.3916 12.5702 15.2884 12.527 15.163L11.092 11H8.5V14C8.5 14.1326 8.44732 14.2598 8.35355 14.3536C8.25979 14.4473 8.13261 14.5 8 14.5C7.86739 14.5 7.74021 14.4473 7.64645 14.3536C7.55268 14.2598 7.5 14.1326 7.5 14V11H4.908L3.473 15.163C3.42977 15.2884 3.33848 15.3916 3.2192 15.4497C3.09993 15.5079 2.96245 15.5162 2.837 15.473C2.71155 15.4298 2.60842 15.3385 2.55028 15.2192C2.49214 15.0999 2.48377 14.9624 2.527 14.837L3.85 11H2C1.73478 11 1.48043 10.8946 1.29289 10.7071C1.10536 10.5196 1 10.2652 1 10V3C1 2.73478 1.10536 2.48043 1.29289 2.29289C1.48043 2.10536 1.73478 2 2 2H6.954L7.527 0.337C7.56094 0.238574 7.62476 0.153198 7.70955 0.0927845C7.79435 0.0323713 7.89589 -6.55094e-05 8 9.93322e-08ZM2 3V10H14V3H2Z" fill="black"/>
</g>
<defs>
<clipPath id="clip0_104_1616">
<rect width="16" height="16" fill="white"/>
</clipPath>
</defs>
</svg>
