<svg width="16" height="16" viewBox="0 0 16 16" fill="none" xmlns="http://www.w3.org/2000/svg">
<g clip-path="url(#clip0_104_1627)">
<path d="M8.473 0.337001C8.43921 0.238404 8.37546 0.152829 8.29065 0.092242C8.20585 0.0316549 8.10423 -0.000915527 8 -0.000915527C7.89577 -0.000915527 7.79415 0.0316549 7.70935 0.092242C7.62454 0.152829 7.56079 0.238404 7.527 0.337001L6.954 2H2C1.73478 2 1.48043 2.10536 1.29289 2.29289C1.10536 2.48043 1 2.73478 1 3V10C1 10.2652 1.10536 10.5196 1.29289 10.7071C1.48043 10.8946 1.73478 11 2 11H3.85L2.527 14.837C2.48377 14.9624 2.49214 15.0999 2.55028 15.2192C2.60842 15.3385 2.71155 15.4298 2.837 15.473C2.96245 15.5162 3.09993 15.5079 3.2192 15.4497C3.33848 15.3916 3.42977 15.2884 3.473 15.163L4.908 11H7.5V13.5C7.5 13.6326 7.55268 13.7598 7.64645 13.8536C7.74021 13.9473 7.86739 14 8 14C8.13261 14 8.25979 13.9473 8.35355 13.8536C8.44732 13.7598 8.5 13.6326 8.5 13.5V11H11.092L12.527 15.163C12.5702 15.2884 12.6615 15.3916 12.7808 15.4497C12.9001 15.5079 13.0376 15.5162 13.163 15.473C13.2884 15.4298 13.3916 15.3385 13.4497 15.2192C13.5079 15.0999 13.5162 14.9624 13.473 14.837L12.15 11H14C14.2652 11 14.5196 10.8946 14.7071 10.7071C14.8946 10.5196 15 10.2652 15 10V3C15 2.73478 14.8946 2.48043 14.7071 2.29289C14.5196 2.10536 14.2652 2 14 2H9.046L8.473 0.337001Z" fill="black"/>
</g>
<defs>
<clipPath id="clip0_104_1627">
<rect width="16" height="16" fill="white"/>
</clipPath>
</defs>
</svg>
