<svg width="24" height="24" viewBox="0 0 24 24" xmlns="http://www.w3.org/2000/svg" fill='currentColor'><path d="M10.9338 21.5H3.93378C2.82378 21.5 1.93378 20.6 1.93378 19.5L1.94378 5.5C1.94378 4.4 2.82378 3.5 3.93378 3.5H4.93378V1.5H6.93378V3.5H14.9338V1.5H16.9338V3.5H17.9338C19.0338 3.5 19.9338 4.4 19.9338 5.5V11.5H17.9338V9.5H3.93378V19.5H10.9338V21.5ZM21.0638 16.49L21.7738 15.78C22.1638 15.39 22.1638 14.76 21.7738 14.37L21.0638 13.66C20.6738 13.27 20.0438 13.27 19.6538 13.66L18.9438 14.37L21.0638 16.49ZM20.3538 17.2L15.0538 22.5H12.9338V20.38L18.2338 15.08L20.3538 17.2Z"/></svg>