<svg width="24" height="24" viewBox="0 0 24 24" xmlns="http://www.w3.org/2000/svg" fill='currentColor'><path d="M10.9337 21.5H3.93375C2.82375 21.5 1.93375 20.6 1.93375 19.5L1.94375 5.5C1.94375 4.4 2.82375 3.5 3.93375 3.5H4.93375V1.5H6.93375V3.5H14.9337V1.5H16.9337V3.5H17.9337C19.0337 3.5 19.9337 4.4 19.9337 5.5V11.5H17.9337V9.5H3.93375V19.5H10.9337V21.5ZM21.0637 16.49L21.7737 15.78C22.1637 15.39 22.1637 14.76 21.7737 14.37L21.0637 13.66C20.6737 13.27 20.0437 13.27 19.6537 13.66L18.9437 14.37L21.0637 16.49ZM20.3537 17.2L15.0537 22.5H12.9337V20.38L18.2337 15.08L20.3537 17.2Z"/></svg>