<svg width="16" height="16" viewBox="0 0 16 16" xmlns="http://www.w3.org/2000/svg" fill='currentColor'><g clip-path="url(#clip0_104_1633)"><path d="M8 11C8.79565 11 9.55871 10.6839 10.1213 10.1213C10.6839 9.55871 11 8.79565 11 8C11 7.20435 10.6839 6.44129 10.1213 5.87868C9.55871 5.31607 8.79565 5 8 5C7.20435 5 6.44129 5.31607 5.87868 5.87868C5.31607 6.44129 5 7.20435 5 8C5 8.79565 5.31607 9.55871 5.87868 10.1213C6.44129 10.6839 7.20435 11 8 11Z"/><path d="M13.997 5.16995C14.0295 4.21634 13.7884 3.27335 13.3022 2.45232C12.8161 1.6313 12.1051 0.96652 11.2534 0.536484C10.4016 0.106449 9.44456 -0.0708887 8.49527 0.0254108C7.54597 0.12171 6.64405 0.487625 5.896 1.07995C4.86965 0.892531 3.81038 1.03087 2.86658 1.47558C1.92278 1.92029 1.14174 2.6491 0.632865 3.55991C0.123994 4.47072 -0.0872131 5.5179 0.0288325 6.55475C0.144878 7.5916 0.582362 8.56618 1.28 9.34195C0.900433 10.4209 0.902229 11.5973 1.28509 12.675C1.66795 13.7528 2.40873 14.6667 3.38388 15.2643C4.35903 15.862 5.5096 16.1073 6.64371 15.9592C7.77782 15.8112 8.82691 15.2789 9.616 14.451C10.2264 14.8406 10.9426 15.0314 11.6659 14.9969C12.3893 14.9624 13.0841 14.7044 13.6546 14.2585C14.2252 13.8126 14.6434 13.2006 14.8516 12.507C15.0597 11.8135 15.0477 11.0724 14.817 10.386C15.2472 10.0577 15.5807 9.61928 15.7821 9.11703C15.9835 8.61477 16.0454 8.06741 15.9611 7.53288C15.8769 6.99834 15.6497 6.49653 15.3036 6.08057C14.9575 5.6646 14.5053 5.34996 13.995 5.16995H13.997ZM12.997 5.13595C12.9899 5.3487 13.0508 5.55817 13.1709 5.73389C13.2911 5.9096 13.4642 6.0424 13.665 6.11295C14.0052 6.23309 14.3066 6.44298 14.5373 6.7204C14.768 6.99783 14.9193 7.33246 14.9754 7.68887C15.0315 8.04529 14.9901 8.41023 14.8557 8.74507C14.7213 9.07991 14.4989 9.37218 14.212 9.59095C14.0461 9.71766 13.924 9.89312 13.8629 10.0927C13.8017 10.2923 13.8046 10.5061 13.871 10.704C14.0362 11.1943 14.0452 11.7239 13.8967 12.2196C13.7481 12.7153 13.4495 13.1527 13.0418 13.4715C12.6342 13.7903 12.1377 13.9747 11.6208 13.9993C11.1039 14.0239 10.5921 13.8875 10.156 13.609C9.96064 13.484 9.72795 13.4309 9.49774 13.4586C9.26753 13.4864 9.05411 13.5932 8.894 13.761C8.2629 14.424 7.42348 14.8505 6.51587 14.9693C5.60825 15.0881 4.68735 14.892 3.90686 14.4138C3.12637 13.9355 2.53351 13.204 2.22725 12.3414C1.92098 11.4788 1.91984 10.5373 2.224 9.67395C2.28344 9.50466 2.29624 9.32248 2.26105 9.14654C2.22586 8.9706 2.14398 8.80736 2.024 8.67395C1.4657 8.05334 1.11556 7.27361 1.02264 6.44402C0.929712 5.61443 1.09866 4.77656 1.50582 4.04781C1.91297 3.31905 2.53792 2.73595 3.2931 2.38019C4.04827 2.02443 4.89583 1.91385 5.717 2.06395C5.8569 2.08941 6.00062 2.08474 6.13857 2.05025C6.27653 2.01576 6.40554 1.95225 6.517 1.86395C7.11552 1.39027 7.83707 1.09773 8.59647 1.02086C9.35587 0.943983 10.1214 1.08599 10.8027 1.43011C11.484 1.77423 12.0526 2.3061 12.4415 2.96293C12.8303 3.61976 13.023 4.37412 12.997 5.13695V5.13595Z"/></g><defs><clipPath id="clip0_104_1633"><rect width="16" height="16"/></clipPath></defs></svg>