<svg width="16" height="16" viewBox="0 0 16 16" fill="none" xmlns="http://www.w3.org/2000/svg">
<g clip-path="url(#clip0_104_1633)">
<path d="M8 11C8.79565 11 9.55871 10.6839 10.1213 10.1213C10.6839 9.55871 11 8.79565 11 8C11 7.20435 10.6839 6.44129 10.1213 5.87868C9.55871 5.31607 8.79565 5 8 5C7.20435 5 6.44129 5.31607 5.87868 5.87868C5.31607 6.44129 5 7.20435 5 8C5 8.79565 5.31607 9.55871 5.87868 10.1213C6.44129 10.6839 7.20435 11 8 11Z" fill="black"/>
<path d="M13.997 5.17001C14.0295 4.2164 13.7884 3.27341 13.3022 2.45238C12.8161 1.63136 12.1051 0.966581 11.2534 0.536545C10.4016 0.10651 9.44456 -0.0708277 8.49527 0.0254718C7.54597 0.121771 6.64405 0.487686 5.896 1.08001C4.86965 0.892592 3.81038 1.03093 2.86658 1.47564C1.92278 1.92035 1.14174 2.64916 0.632865 3.55997C0.123994 4.47078 -0.0872131 5.51796 0.0288325 6.55481C0.144878 7.59166 0.582362 8.56624 1.28 9.34201C0.900433 10.4209 0.902229 11.5973 1.28509 12.6751C1.66795 13.7528 2.40873 14.6667 3.38388 15.2644C4.35903 15.8621 5.5096 16.1073 6.64371 15.9593C7.77782 15.8113 8.82691 15.2789 9.616 14.451C10.2264 14.8407 10.9426 15.0314 11.6659 14.9969C12.3893 14.9625 13.0841 14.7045 13.6546 14.2586C14.2252 13.8126 14.6434 13.2007 14.8516 12.5071C15.0597 11.8135 15.0477 11.0724 14.817 10.386C15.2472 10.0578 15.5807 9.61934 15.7821 9.11709C15.9835 8.61484 16.0454 8.06747 15.9611 7.53294C15.8769 6.9984 15.6497 6.49659 15.3036 6.08063C14.9575 5.66466 14.5053 5.35002 13.995 5.17001H13.997ZM12.997 5.13601C12.9899 5.34876 13.0508 5.55823 13.1709 5.73395C13.2911 5.90967 13.4642 6.04246 13.665 6.11301C14.0052 6.23315 14.3066 6.44304 14.5373 6.72046C14.768 6.99789 14.9193 7.33252 14.9754 7.68893C15.0315 8.04535 14.9901 8.4103 14.8557 8.74513C14.7213 9.07997 14.4989 9.37224 14.212 9.59101C14.0461 9.71773 13.924 9.89318 13.8629 10.0928C13.8017 10.2924 13.8046 10.5061 13.871 10.704C14.0362 11.1944 14.0452 11.724 13.8967 12.2197C13.7481 12.7154 13.4495 13.1528 13.0418 13.4716C12.6342 13.7903 12.1377 13.9747 11.6208 13.9994C11.1039 14.024 10.5921 13.8876 10.156 13.609C9.96064 13.4841 9.72795 13.431 9.49774 13.4587C9.26753 13.4864 9.05411 13.5933 8.894 13.761C8.2629 14.424 7.42348 14.8505 6.51587 14.9693C5.60825 15.0881 4.68735 14.8921 3.90686 14.4138C3.12637 13.9356 2.53351 13.2041 2.22725 12.3415C1.92098 11.4789 1.91984 10.5374 2.224 9.67401C2.28344 9.50472 2.29624 9.32255 2.26105 9.1466C2.22586 8.97066 2.14398 8.80742 2.024 8.67401C1.4657 8.0534 1.11556 7.27367 1.02264 6.44408C0.929712 5.61449 1.09866 4.77662 1.50582 4.04787C1.91297 3.31912 2.53792 2.73601 3.2931 2.38025C4.04827 2.02449 4.89583 1.91391 5.717 2.06401C5.8569 2.08947 6.00062 2.0848 6.13857 2.05031C6.27653 2.01582 6.40554 1.95231 6.517 1.86401C7.11552 1.39033 7.83707 1.09779 8.59647 1.02092C9.35587 0.944044 10.1214 1.08605 10.8027 1.43017C11.484 1.77429 12.0526 2.30616 12.4415 2.96299C12.8303 3.61982 13.023 4.37418 12.997 5.13701V5.13601Z" fill="black"/>
</g>
<defs>
<clipPath id="clip0_104_1633">
<rect width="16" height="16" fill="white"/>
</clipPath>
</defs>
</svg>
