<svg width="16" height="16" viewBox="0 0 16 16" xmlns="http://www.w3.org/2000/svg" fill='currentColor'><path d="M8 15C6.67392 15 5.40215 14.4732 4.46447 13.5355C3.52678 12.5979 3 11.3261 3 10C3 8.044 3.69 5.714 4.742 3.88C5.266 2.967 5.854 2.222 6.446 1.716C7.044 1.206 7.572 1 8 1C8.428 1 8.956 1.206 9.554 1.716C10.146 2.222 10.734 2.967 11.258 3.88C12.31 5.714 13 8.044 13 10C13 11.3261 12.4732 12.5979 11.5355 13.5355C10.5979 14.4732 9.32608 15 8 15ZM8 16C9.5913 16 11.1174 15.3679 12.2426 14.2426C13.3679 13.1174 14 11.5913 14 10C14 5.686 11 0 8 0C5 0 2 5.686 2 10C2 11.5913 2.63214 13.1174 3.75736 14.2426C4.88258 15.3679 6.4087 16 8 16Z"/></svg>