<svg width="24" height="24" viewBox="0 0 24 24" xmlns="http://www.w3.org/2000/svg" fill='currentColor'><path d="M19.0005 9C17.0005 7 15.9905 2 9.97045 2C4.95045 2 1.94045 6 2.00045 11.52C2.06045 17.04 6.96045 19 9.97045 19C11.9805 19 11.9805 22 15.9905 22C19.0005 22 22.0005 19 22.0005 15.02C22.0005 12 21.0105 11 19.0005 9ZM12.0005 15.5C10.0705 15.5 8.50045 13.93 8.50045 12C8.50045 10.07 10.0705 8.5 12.0005 8.5C13.9305 8.5 15.5005 10.07 15.5005 12C15.5005 13.93 13.9305 15.5 12.0005 15.5Z"/></svg>