<svg width="24" height="24" viewBox="0 0 24 24" xmlns="http://www.w3.org/2000/svg" fill='currentColor'><path d="M7.82106 16H15.0011V15C15.0011 12.79 16.7911 11 19.0011 11H19.7411L17.8411 2.56C17.6311 1.65 16.8211 1 15.8911 1H12.0011V3H15.8911L17.2911 9.25H17.2811C15.1211 9.9 13.4711 11.73 13.0911 14H7.82106C7.34106 12.66 5.96106 11.76 4.40106 12.06C3.22106 12.29 2.27106 13.26 2.05106 14.44C1.70106 16.34 3.16106 18 5.00106 18C6.30106 18 7.40106 17.16 7.82106 16ZM5.00106 16C4.45106 16 4.00106 15.55 4.00106 15C4.00106 14.45 4.45106 14 5.00106 14C5.55106 14 6.00106 14.45 6.00106 15C6.00106 15.55 5.55106 16 5.00106 16Z"/><path d="M19.0011 12C17.3411 12 16.0011 13.34 16.0011 15C16.0011 16.66 17.3411 18 19.0011 18C20.6611 18 22.0011 16.66 22.0011 15C22.0011 13.34 20.6611 12 19.0011 12ZM19.0011 16C18.4511 16 18.0011 15.55 18.0011 15C18.0011 14.45 18.4511 14 19.0011 14C19.5511 14 20.0011 14.45 20.0011 15C20.0011 15.55 19.5511 16 19.0011 16Z"/><path d="M11.0011 20H7.00106L13.0011 23V21H17.0011L11.0011 18V20Z"/></svg>