<svg xmlns="http://www.w3.org/2000/svg" width="24" height="24" viewBox="0 0 24 24" fill='currentColor'><path d="M20.995 10.18V8.72c0-.47-.16-.92-.46-1.28l-3.94-4.72c-.38-.46-.94-.72-1.54-.72H2.995c-1.1 0-2 .9-2 2v8c0 1.1.9 2 2 2h.18c.42 1.16 1.52 2 2.82 2s2.4-.84 2.82-2h8.37a2.996 2.996 0 0 0 5.82-1c-.01-1.3-.85-2.4-2.01-2.82M18.395 8h-2.4V5.12zm-15.4-4h4v4h-4zm3 10c-.55 0-1-.45-1-1s.45-1 1-1 1 .45 1 1-.45 1-1 1m3-2v-2h3V8h-3V4h5v8zm11 2c-.55 0-1-.45-1-1s.45-1 1-1 1 .45 1 1-.45 1-1 1m-13 5h4v-2l6 3h-4v2z"/></svg>