<svg width="24" height="24" viewBox="0 0 24 24" xmlns="http://www.w3.org/2000/svg" fill='currentColor'><path d="M12 9C8.85 9 6 11.41 6 15.15C6 17.64 8 20.59 12 24C16 20.59 18 17.64 18 15.15C18 11.41 15.15 9 12 9ZM12 16.5C11.17 16.5 10.5 15.83 10.5 15C10.5 14.17 11.17 13.5 12 13.5C12.83 13.5 13.5 14.17 13.5 15C13.5 15.83 12.83 16.5 12 16.5ZM12 4C13.93 4 15.68 4.78 16.95 6.05L15.54 7.46C14.63 6.56 13.38 6 12 6C10.62 6 9.37 6.56 8.46 7.46L7.05 6.05C8.32 4.78 10.07 4 12 4ZM19.78 3.23L18.37 4.64C16.74 3.01 14.49 2 12.01 2C9.53 2 7.27 3.01 5.64 4.63L4.22 3.22C6.22 1.23 8.97 0 12.01 0C15.05 0 17.79 1.23 19.78 3.23Z"/></svg>