<svg width="16" height="16" viewBox="0 0 16 16" xmlns="http://www.w3.org/2000/svg" fill='currentColor'><g clip-path="url(#clip0_104_1660)"><path d="M8 15C6.14348 15 4.36301 14.2625 3.05025 12.9497C1.7375 11.637 1 9.85652 1 8C1 6.14348 1.7375 4.36301 3.05025 3.05025C4.36301 1.7375 6.14348 1 8 1C9.85652 1 11.637 1.7375 12.9497 3.05025C14.2625 4.36301 15 6.14348 15 8C15 9.85652 14.2625 11.637 12.9497 12.9497C11.637 14.2625 9.85652 15 8 15ZM8 16C10.1217 16 12.1566 15.1571 13.6569 13.6569C15.1571 12.1566 16 10.1217 16 8C16 5.87827 15.1571 3.84344 13.6569 2.34315C12.1566 0.842855 10.1217 0 8 0C5.87827 0 3.84344 0.842855 2.34315 2.34315C0.842855 3.84344 0 5.87827 0 8C0 10.1217 0.842855 12.1566 2.34315 13.6569C3.84344 15.1571 5.87827 16 8 16Z"/><path d="M11.315 10.014C11.4099 9.9917 11.5093 9.9976 11.6009 10.031C11.6925 10.0644 11.7724 10.1239 11.8306 10.2021C11.8889 10.2804 11.923 10.3739 11.9287 10.4713C11.9345 10.5686 11.9116 10.6655 11.863 10.75C11.4681 11.4344 10.8999 12.0027 10.2156 12.3977C9.53135 12.7926 8.75509 13.0004 7.96499 13C7.17488 13.0004 6.39862 12.7926 5.71433 12.3977C5.03004 12.0027 4.46186 11.4344 4.06699 10.75C4.01836 10.6655 3.99552 10.5686 4.00127 10.4713C4.00702 10.3739 4.04111 10.2804 4.09935 10.2021C4.15759 10.1239 4.23744 10.0644 4.32905 10.031C4.42067 9.9976 4.52006 9.9917 4.61499 10.014H4.61999L4.63699 10.019L4.70399 10.034L4.95599 10.089C5.17099 10.135 5.47099 10.1971 5.81299 10.258C6.50599 10.3821 7.33499 10.5 7.96499 10.5C8.59499 10.5 9.42499 10.3821 10.117 10.258C10.4882 10.1913 10.858 10.1166 11.226 10.034L11.293 10.019L11.31 10.015L11.315 10.013V10.014ZM4.75599 4.56605C5.51899 3.14205 8.77599 4.44605 5.70799 8.00005C1.21199 6.40405 3.35799 3.70205 4.75599 4.56605ZM11.244 4.56605C12.642 3.70205 14.788 6.40405 10.292 8.00005C7.22499 4.44605 10.482 3.14205 11.244 4.56605Z"/></g><defs><clipPath id="clip0_104_1660"><rect width="16" height="16"/></clipPath></defs></svg>