<svg width="16" height="16" viewBox="0 0 16 16" fill="none" xmlns="http://www.w3.org/2000/svg">
<g clip-path="url(#clip0_104_1645)">
<path d="M8 15C6.14348 15 4.36301 14.2625 3.05025 12.9497C1.7375 11.637 1 9.85652 1 8C1 6.14348 1.7375 4.36301 3.05025 3.05025C4.36301 1.7375 6.14348 1 8 1C9.85652 1 11.637 1.7375 12.9497 3.05025C14.2625 4.36301 15 6.14348 15 8C15 9.85652 14.2625 11.637 12.9497 12.9497C11.637 14.2625 9.85652 15 8 15ZM8 16C10.1217 16 12.1566 15.1571 13.6569 13.6569C15.1571 12.1566 16 10.1217 16 8C16 5.87827 15.1571 3.84344 13.6569 2.34315C12.1566 0.842855 10.1217 0 8 0C5.87827 0 3.84344 0.842855 2.34315 2.34315C0.842855 3.84344 0 5.87827 0 8C0 10.1217 0.842855 12.1566 2.34315 13.6569C3.84344 15.1571 5.87827 16 8 16Z" fill="black"/>
<path d="M9.146 5.14598C9.19245 5.09941 9.24762 5.06247 9.30837 5.03727C9.36911 5.01206 9.43423 4.99908 9.5 4.99908C9.56577 4.99908 9.63089 5.01206 9.69163 5.03727C9.75238 5.06247 9.80756 5.09941 9.854 5.14598L10.5 5.79298L11.146 5.14598C11.2399 5.05209 11.3672 4.99935 11.5 4.99935C11.6328 4.99935 11.7601 5.05209 11.854 5.14598C11.9479 5.23986 12.0006 5.3672 12.0006 5.49998C12.0006 5.63275 11.9479 5.76009 11.854 5.85398L11.207 6.49998L11.854 7.14598C11.9479 7.23986 12.0006 7.3672 12.0006 7.49998C12.0006 7.63275 11.9479 7.76009 11.854 7.85398C11.7601 7.94786 11.6328 8.00061 11.5 8.00061C11.3672 8.00061 11.2399 7.94786 11.146 7.85398L10.5 7.20698L9.854 7.85398C9.80751 7.90047 9.75232 7.93734 9.69158 7.9625C9.63085 7.98766 9.56574 8.00061 9.5 8.00061C9.43426 8.00061 9.36916 7.98766 9.30842 7.9625C9.24768 7.93734 9.19249 7.90047 9.146 7.85398C9.09951 7.80749 9.06264 7.7523 9.03748 7.69156C9.01232 7.63082 8.99937 7.56572 8.99937 7.49998C8.99937 7.43423 9.01232 7.36913 9.03748 7.30839C9.06264 7.24765 9.09951 7.19247 9.146 7.14598L9.793 6.49998L9.146 5.85398C9.09944 5.80753 9.0625 5.75236 9.03729 5.69161C9.01208 5.63087 8.99911 5.56575 8.99911 5.49998C8.99911 5.43421 9.01208 5.36909 9.03729 5.30834C9.0625 5.2476 9.09944 5.19242 9.146 5.14598ZM4.146 5.14598C4.19245 5.09941 4.24762 5.06247 4.30837 5.03727C4.36911 5.01206 4.43423 4.99908 4.5 4.99908C4.56577 4.99908 4.63089 5.01206 4.69163 5.03727C4.75238 5.06247 4.80756 5.09941 4.854 5.14598L5.5 5.79298L6.146 5.14598C6.19249 5.09949 6.24768 5.06261 6.30842 5.03745C6.36916 5.0123 6.43426 4.99935 6.5 4.99935C6.56575 4.99935 6.63085 5.0123 6.69158 5.03745C6.75232 5.06261 6.80751 5.09949 6.854 5.14598C6.90049 5.19247 6.93737 5.24766 6.96252 5.30839C6.98768 5.36913 7.00063 5.43423 7.00063 5.49998C7.00063 5.56572 6.98768 5.63082 6.96252 5.69156C6.93737 5.7523 6.90049 5.80749 6.854 5.85398L6.207 6.49998L6.854 7.14598C6.90049 7.19247 6.93737 7.24765 6.96252 7.30839C6.98768 7.36913 7.00063 7.43423 7.00063 7.49998C7.00063 7.56572 6.98768 7.63082 6.96252 7.69156C6.93737 7.7523 6.90049 7.80749 6.854 7.85398C6.80751 7.90047 6.75232 7.93734 6.69158 7.9625C6.63085 7.98766 6.56575 8.00061 6.5 8.00061C6.43426 8.00061 6.36916 7.98766 6.30842 7.9625C6.24768 7.93734 6.19249 7.90047 6.146 7.85398L5.5 7.20698L4.854 7.85398C4.80751 7.90047 4.75232 7.93734 4.69158 7.9625C4.63085 7.98766 4.56575 8.00061 4.5 8.00061C4.43426 8.00061 4.36916 7.98766 4.30842 7.9625C4.24768 7.93734 4.19249 7.90047 4.146 7.85398C4.09951 7.80749 4.06264 7.7523 4.03748 7.69156C4.01232 7.63082 3.99937 7.56572 3.99937 7.49998C3.99937 7.43423 4.01232 7.36913 4.03748 7.30839C4.06264 7.24765 4.09951 7.19247 4.146 7.14598L4.793 6.49998L4.146 5.85398C4.09944 5.80753 4.06249 5.75236 4.03729 5.69161C4.01208 5.63087 3.99911 5.56575 3.99911 5.49998C3.99911 5.43421 4.01208 5.36909 4.03729 5.30834C4.06249 5.2476 4.09944 5.19242 4.146 5.14598ZM10 11C10 11.5304 9.78929 12.0391 9.41421 12.4142C9.03914 12.7893 8.53043 13 8 13C7.46957 13 6.96086 12.7893 6.58579 12.4142C6.21071 12.0391 6 11.5304 6 11C6 10.4695 6.21071 9.96084 6.58579 9.58576C6.96086 9.21069 7.46957 8.99998 8 8.99998C8.53043 8.99998 9.03914 9.21069 9.41421 9.58576C9.78929 9.96084 10 10.4695 10 11Z" fill="black"/>
</g>
<defs>
<clipPath id="clip0_104_1645">
<rect width="16" height="16" fill="white"/>
</clipPath>
</defs>
</svg>
