<svg width="16" height="16" viewBox="0 0 16 16" fill="none" xmlns="http://www.w3.org/2000/svg">
<g clip-path="url(#clip0_104_1640)">
<path d="M8 15C6.14348 15 4.36301 14.2625 3.05025 12.9497C1.7375 11.637 1 9.85652 1 8C1 6.14348 1.7375 4.36301 3.05025 3.05025C4.36301 1.7375 6.14348 1 8 1C9.85652 1 11.637 1.7375 12.9497 3.05025C14.2625 4.36301 15 6.14348 15 8C15 9.85652 14.2625 11.637 12.9497 12.9497C11.637 14.2625 9.85652 15 8 15ZM8 16C10.1217 16 12.1566 15.1571 13.6569 13.6569C15.1571 12.1566 16 10.1217 16 8C16 5.87827 15.1571 3.84344 13.6569 2.34315C12.1566 0.842855 10.1217 0 8 0C5.87827 0 3.84344 0.842855 2.34315 2.34315C0.842855 3.84344 0 5.87827 0 8C0 10.1217 0.842855 12.1566 2.34315 13.6569C3.84344 15.1571 5.87827 16 8 16Z" fill="black"/>
<path d="M4.285 12.433C4.39984 12.4993 4.53631 12.5173 4.6644 12.483C4.79249 12.4487 4.90169 12.3649 4.968 12.25C5.27511 11.7177 5.71705 11.2757 6.24933 10.9684C6.7816 10.6612 7.38543 10.4997 8 10.5C9.295 10.5 10.426 11.203 11.032 12.25C11.0988 12.3639 11.2079 12.4468 11.3355 12.4805C11.4632 12.5143 11.599 12.4962 11.7133 12.4302C11.8277 12.3641 11.9113 12.2556 11.9459 12.1282C11.9805 12.0007 11.9633 11.8648 11.898 11.75C11.5031 11.0657 10.9349 10.4974 10.2507 10.1024C9.56637 9.70744 8.79011 9.49967 8 9.50003C7.20993 9.49987 6.43375 9.70773 5.7495 10.1027C5.06524 10.4977 4.49703 11.0658 4.102 11.75C4.0357 11.8649 4.01773 12.0013 4.05205 12.1294C4.08637 12.2575 4.17016 12.3667 4.285 12.433ZM11.276 4.05303C11.3348 4.02301 11.3989 4.00492 11.4647 3.9998C11.5305 3.99468 11.5966 4.00263 11.6593 4.0232C11.722 4.04377 11.78 4.07654 11.83 4.11964C11.88 4.16273 11.9209 4.21529 11.9505 4.27428C11.98 4.33328 11.9976 4.39754 12.0022 4.46337C12.0069 4.52919 11.9984 4.59528 11.9773 4.65782C11.9563 4.72036 11.9231 4.77811 11.8796 4.82774C11.8361 4.87738 11.7832 4.91792 11.724 4.94703L10.715 5.45103C10.891 5.72103 11 6.09103 11 6.50003C11 7.32803 10.552 8.00003 10 8.00003C9.448 8.00003 9 7.32803 9 6.50003C9 6.25303 9.04 6.02003 9.11 5.81403C9.06349 5.7557 9.03056 5.68774 9.01361 5.6151C8.99666 5.54245 8.99611 5.46693 9.01201 5.39405C9.02791 5.32116 9.05985 5.25273 9.10552 5.19374C9.15119 5.13475 9.20942 5.08668 9.276 5.05303L11.276 4.05303ZM4.724 4.05303C4.60559 3.99483 4.46898 3.9858 4.34394 4.02789C4.21889 4.06999 4.11556 4.1598 4.05645 4.27775C3.99734 4.39571 3.98725 4.53225 4.02837 4.65761C4.0695 4.78298 4.15851 4.887 4.276 4.94703L5.285 5.45103C5.09198 5.76639 4.99309 6.13035 5 6.50003C5 7.32803 5.448 8.00003 6 8.00003C6.552 8.00003 7 7.32803 7 6.50003C7 6.25303 6.96 6.02003 6.89 5.81403C6.93651 5.7557 6.96944 5.68774 6.98639 5.6151C7.00334 5.54245 7.00389 5.46693 6.98799 5.39405C6.97209 5.32116 6.94014 5.25273 6.89448 5.19374C6.84881 5.13475 6.79058 5.08668 6.724 5.05303L4.724 4.05303Z" fill="black"/>
</g>
<defs>
<clipPath id="clip0_104_1640">
<rect width="16" height="16" fill="white"/>
</clipPath>
</defs>
</svg>
