<svg width="16" height="16" viewBox="0 0 16 16" fill="none" xmlns="http://www.w3.org/2000/svg">
<g clip-path="url(#clip0_104_1658)">
<path d="M8 16C10.1217 16 12.1566 15.1571 13.6569 13.6569C15.1571 12.1566 16 10.1217 16 8C16 5.87827 15.1571 3.84344 13.6569 2.34315C12.1566 0.842855 10.1217 0 8 0C5.87827 0 3.84344 0.842855 2.34315 2.34315C0.842855 3.84344 0 5.87827 0 8C0 10.1217 0.842855 12.1566 2.34315 13.6569C3.84344 15.1571 5.87827 16 8 16ZM7 6.5C7 7.328 6.552 8 6 8C5.448 8 5 7.328 5 6.5C5 5.672 5.448 5 6 5C6.552 5 7 5.672 7 6.5ZM4.285 12.433C4.17016 12.3667 4.08637 12.2575 4.05205 12.1294C4.01773 12.0013 4.0357 11.8648 4.102 11.75C4.49688 11.0656 5.06505 10.4974 5.74934 10.1024C6.43363 9.70741 7.20989 9.49964 8 9.5C8.79006 9.49984 9.56625 9.7077 10.2505 10.1027C10.9348 10.4976 11.503 11.0658 11.898 11.75C11.9633 11.8648 11.9805 12.0007 11.9459 12.1281C11.9113 12.2556 11.8277 12.3641 11.7133 12.4301C11.599 12.4962 11.4632 12.5143 11.3355 12.4805C11.2079 12.4468 11.0988 12.3639 11.032 12.25C10.7249 11.7177 10.2829 11.2756 9.75067 10.9684C9.2184 10.6612 8.61457 10.4996 8 10.5C7.38543 10.4996 6.7816 10.6612 6.24933 10.9684C5.71705 11.2756 5.27511 11.7177 4.968 12.25C4.90169 12.3648 4.79249 12.4486 4.6644 12.4829C4.53631 12.5173 4.39984 12.4993 4.285 12.433ZM10 8C9.448 8 9 7.328 9 6.5C9 5.672 9.448 5 10 5C10.552 5 11 5.672 11 6.5C11 7.328 10.552 8 10 8Z" fill="black"/>
</g>
<defs>
<clipPath id="clip0_104_1658">
<rect width="16" height="16" fill="white"/>
</clipPath>
</defs>
</svg>
