<svg width="16" height="16" viewBox="0 0 16 16" fill="none" xmlns="http://www.w3.org/2000/svg">
<g clip-path="url(#clip0_104_1663)">
<path d="M8 0C5.87827 0 3.84344 0.842855 2.34315 2.34315C0.842855 3.84344 0 5.87827 0 8C0 10.1217 0.842855 12.1566 2.34315 13.6569C3.84344 15.1571 5.87827 16 8 16C10.1217 16 12.1566 15.1571 13.6569 13.6569C15.1571 12.1566 16 10.1217 16 8C16 5.87827 15.1571 3.84344 13.6569 2.34315C12.1566 0.842855 10.1217 0 8 0V0ZM4.756 4.566C5.519 3.142 8.776 4.446 5.708 8C1.212 6.404 3.358 3.702 4.756 4.566ZM11.315 10.014C11.4099 9.99165 11.5093 9.99755 11.6009 10.031C11.6925 10.0644 11.7724 10.1239 11.8306 10.2021C11.8889 10.2803 11.923 10.3739 11.9287 10.4712C11.9345 10.5686 11.9116 10.6655 11.863 10.75C11.4681 11.4344 10.8999 12.0026 10.2157 12.3976C9.53137 12.7926 8.75511 13.0004 7.965 13C7.17489 13.0004 6.39863 12.7926 5.71434 12.3976C5.03005 12.0026 4.46188 11.4344 4.067 10.75C4.01837 10.6655 3.99553 10.5686 4.00128 10.4712C4.00703 10.3739 4.04113 10.2803 4.09937 10.2021C4.15761 10.1239 4.23745 10.0644 4.32907 10.031C4.42068 9.99755 4.52007 9.99165 4.615 10.014H4.62L4.637 10.019L4.704 10.034L4.956 10.089C5.171 10.135 5.471 10.197 5.813 10.258C6.506 10.382 7.335 10.5 7.965 10.5C8.595 10.5 9.425 10.382 10.117 10.258C10.4882 10.1912 10.858 10.1165 11.226 10.034L11.293 10.019L11.31 10.015L11.315 10.013V10.014ZM11.245 4.566C12.642 3.702 14.788 6.404 10.292 8C7.225 4.446 10.482 3.142 11.244 4.566H11.245Z" fill="black"/>
</g>
<defs>
<clipPath id="clip0_104_1663">
<rect width="16" height="16" fill="white"/>
</clipPath>
</defs>
</svg>
