<svg width="16" height="16" viewBox="0 0 16 16" fill="none" xmlns="http://www.w3.org/2000/svg">
<g clip-path="url(#clip0_104_1693)">
<path d="M8 0C10.1217 0 12.1566 0.842855 13.6569 2.34315C15.1571 3.84344 16 5.87827 16 8C16 10.1217 15.1571 12.1566 13.6569 13.6569C12.1566 15.1571 10.1217 16 8 16C5.87827 16 3.84344 15.1571 2.34315 13.6569C0.842855 12.1566 0 10.1217 0 8C0 5.87827 0.842855 3.84344 2.34315 2.34315C3.84344 0.842855 5.87827 0 8 0V0ZM7 6.5C7 5.672 6.552 5 6 5C5.448 5 5 5.672 5 6.5C5 7.328 5.448 8 6 8C6.552 8 7 7.328 7 6.5ZM4.285 9.567C4.17016 9.63331 4.08637 9.74251 4.05205 9.8706C4.01773 9.99869 4.0357 10.1352 4.102 10.25C4.49688 10.9344 5.06505 11.5026 5.74934 11.8976C6.43363 12.2926 7.20989 12.5004 8 12.5C8.79006 12.5002 9.56625 12.2923 10.2505 11.8973C10.9348 11.5024 11.503 10.9342 11.898 10.25C11.9313 10.1931 11.9531 10.1302 11.962 10.0649C11.971 9.99953 11.9669 9.93308 11.95 9.86933C11.9332 9.80558 11.9039 9.74579 11.8638 9.69341C11.8238 9.64103 11.7738 9.59709 11.7167 9.56412C11.6596 9.53115 11.5965 9.5098 11.5311 9.5013C11.4657 9.4928 11.3993 9.49732 11.3357 9.5146C11.272 9.53187 11.2124 9.56157 11.1603 9.60197C11.1082 9.64237 11.0646 9.69268 11.032 9.75C10.7249 10.2823 10.2829 10.7244 9.75067 11.0316C9.2184 11.3388 8.61457 11.5004 8 11.5C7.38543 11.5004 6.7816 11.3388 6.24933 11.0316C5.71705 10.7244 5.27511 10.2823 4.968 9.75C4.90169 9.63516 4.79249 9.55137 4.6644 9.51705C4.53631 9.48273 4.39984 9.5007 4.285 9.567ZM9.437 6.257C9.40509 6.19961 9.36219 6.14907 9.31074 6.10826C9.2593 6.06746 9.20032 6.03718 9.13718 6.01917C9.07403 6.00115 9.00796 5.99575 8.94273 6.00327C8.8775 6.01079 8.81439 6.03109 8.757 6.063C8.69961 6.09491 8.64907 6.13781 8.60826 6.18926C8.56746 6.2407 8.53718 6.29968 8.51917 6.36282C8.50115 6.42596 8.49575 6.49204 8.50327 6.55727C8.51079 6.6225 8.53109 6.68561 8.563 6.743C8.893 7.338 9.521 7.75 10.25 7.75C10.98 7.75 11.606 7.338 11.937 6.743C11.9689 6.68561 11.9892 6.6225 11.9967 6.55727C12.0042 6.49204 11.9988 6.42596 11.9808 6.36282C11.9628 6.29968 11.9325 6.2407 11.8917 6.18926C11.8509 6.13781 11.8004 6.09491 11.743 6.063C11.6856 6.03109 11.6225 6.01079 11.5573 6.00327C11.492 5.99575 11.426 6.00115 11.3628 6.01917C11.2997 6.03718 11.2407 6.06746 11.1893 6.10826C11.1378 6.14907 11.0949 6.19961 11.063 6.257C10.984 6.40444 10.8669 6.52797 10.7239 6.61469C10.5809 6.70142 10.4172 6.74814 10.25 6.75C10.0828 6.74814 9.91908 6.70142 9.77607 6.61469C9.63306 6.52797 9.51596 6.40444 9.437 6.257Z" fill="black"/>
</g>
<defs>
<clipPath id="clip0_104_1693">
<rect width="16" height="16" fill="white"/>
</clipPath>
</defs>
</svg>
