<svg width="16" height="16" viewBox="0 0 16 16" fill="none" xmlns="http://www.w3.org/2000/svg">
<g clip-path="url(#clip0_104_1680)">
<path d="M8 1C6.14348 1 4.36301 1.7375 3.05025 3.05025C1.7375 4.36301 1 6.14348 1 8C1 9.85652 1.7375 11.637 3.05025 12.9497C4.36301 14.2625 6.14348 15 8 15C9.85652 15 11.637 14.2625 12.9497 12.9497C14.2625 11.637 15 9.85652 15 8C15 6.14348 14.2625 4.36301 12.9497 3.05025C11.637 1.7375 9.85652 1 8 1ZM8 0C10.1217 0 12.1566 0.842855 13.6569 2.34315C15.1571 3.84344 16 5.87827 16 8C16 10.1217 15.1571 12.1566 13.6569 13.6569C12.1566 15.1571 10.1217 16 8 16C5.87827 16 3.84344 15.1571 2.34315 13.6569C0.842855 12.1566 0 10.1217 0 8C0 5.87827 0.842855 3.84344 2.34315 2.34315C3.84344 0.842855 5.87827 0 8 0V0Z" fill="black"/>
<path d="M4.28502 6.433C4.39986 6.4993 4.53633 6.51727 4.66442 6.48295C4.79251 6.44863 4.90171 6.36484 4.96802 6.25C5.27513 5.71766 5.71707 5.27563 6.24935 4.96842C6.78163 4.6612 7.38545 4.49964 8.00002 4.5C9.29502 4.5 10.426 5.203 11.032 6.25C11.0988 6.3639 11.2079 6.44677 11.3356 6.48052C11.4632 6.51427 11.599 6.49616 11.7134 6.43014C11.8277 6.36412 11.9113 6.25555 11.9459 6.12813C11.9805 6.00071 11.9633 5.86478 11.898 5.75C11.5031 5.06565 10.935 4.49738 10.2507 4.1024C9.56639 3.70741 8.79013 3.49964 8.00002 3.5C7.20996 3.49984 6.43377 3.7077 5.74952 4.10266C5.06526 4.49763 4.49705 5.06578 4.10202 5.75C4.03572 5.86484 4.01775 6.00131 4.05207 6.1294C4.08639 6.25749 4.17018 6.36669 4.28502 6.433ZM7.00002 9.5C7.00002 8.672 6.55202 8 6.00002 8C5.44802 8 5.00002 8.672 5.00002 9.5C5.00002 10.328 5.44802 11 6.00002 11C6.55202 11 7.00002 10.328 7.00002 9.5ZM11 9.5C11 8.672 10.552 8 10 8C9.44802 8 9.00002 8.672 9.00002 9.5C9.00002 10.328 9.44802 11 10 11C10.552 11 11 10.328 11 9.5Z" fill="black"/>
</g>
<defs>
<clipPath id="clip0_104_1680">
<rect width="16" height="16" fill="white"/>
</clipPath>
</defs>
</svg>
