<svg width="16" height="16" viewBox="0 0 16 16" fill="none" xmlns="http://www.w3.org/2000/svg">
<g clip-path="url(#clip0_104_1643)">
<path d="M8 16C10.1217 16 12.1566 15.1571 13.6569 13.6569C15.1571 12.1566 16 10.1217 16 8C16 5.87827 15.1571 3.84344 13.6569 2.34315C12.1566 0.842855 10.1217 0 8 0C5.87827 0 3.84344 0.842855 2.34315 2.34315C0.842855 3.84344 0 5.87827 0 8C0 10.1217 0.842855 12.1566 2.34315 13.6569C3.84344 15.1571 5.87827 16 8 16ZM4.053 4.276C4.11241 4.15771 4.21631 4.06781 4.3419 4.02601C4.4675 3.9842 4.60455 3.99391 4.723 4.053L6.723 5.053C6.78969 5.08641 6.84806 5.13431 6.89383 5.1932C6.9396 5.25209 6.97162 5.32048 6.98754 5.39335C7.00345 5.46622 7.00286 5.54173 6.98582 5.61434C6.96877 5.68695 6.93569 5.75483 6.889 5.813C6.96 6.019 7 6.253 7 6.5C7 7.328 6.552 8 6 8C5.448 8 5 7.328 5 6.5C5 6.092 5.109 5.722 5.285 5.451L4.276 4.947C4.15771 4.88759 4.06781 4.78369 4.02601 4.6581C3.9842 4.5325 3.99391 4.39545 4.053 4.277V4.276ZM4.285 12.433C4.17016 12.3667 4.08637 12.2575 4.05205 12.1294C4.01773 12.0013 4.0357 11.8648 4.102 11.75C4.49688 11.0656 5.06505 10.4974 5.74934 10.1024C6.43363 9.70741 7.20989 9.49964 8 9.5C8.79006 9.49984 9.56625 9.7077 10.2505 10.1027C10.9348 10.4976 11.503 11.0658 11.898 11.75C11.9313 11.8069 11.9531 11.8698 11.962 11.9351C11.971 12.0005 11.9669 12.0669 11.95 12.1307C11.9332 12.1944 11.9039 12.2542 11.8638 12.3066C11.8238 12.359 11.7738 12.4029 11.7167 12.4359C11.6596 12.4689 11.5965 12.4902 11.5311 12.4987C11.4657 12.5072 11.3993 12.5027 11.3357 12.4854C11.272 12.4681 11.2124 12.4384 11.1603 12.398C11.1082 12.3576 11.0646 12.3073 11.032 12.25C10.7249 11.7177 10.2829 11.2756 9.75067 10.9684C9.2184 10.6612 8.61457 10.4996 8 10.5C7.38543 10.4996 6.7816 10.6612 6.24933 10.9684C5.71705 11.2756 5.27511 11.7177 4.968 12.25C4.90169 12.3648 4.79249 12.4486 4.6644 12.4829C4.53631 12.5173 4.39984 12.4993 4.285 12.433ZM10 8C9.448 8 9 7.328 9 6.5C9 6.253 9.04 6.02 9.11 5.814C9.06349 5.75568 9.03056 5.68772 9.01361 5.61507C8.99666 5.54242 8.99611 5.46691 9.01201 5.39402C9.02791 5.32113 9.05986 5.25271 9.10552 5.19372C9.15119 5.13473 9.20942 5.08666 9.276 5.053L11.276 4.053C11.3348 4.02298 11.3989 4.00489 11.4647 3.99977C11.5305 3.99465 11.5966 4.00261 11.6593 4.02317C11.722 4.04374 11.78 4.07652 11.83 4.11961C11.88 4.1627 11.9209 4.21526 11.9505 4.27426C11.98 4.33325 11.9976 4.39751 12.0022 4.46334C12.0069 4.52917 11.9984 4.59525 11.9773 4.65779C11.9563 4.72033 11.9231 4.77808 11.8796 4.82772C11.8361 4.87736 11.7832 4.91789 11.724 4.947L10.715 5.451C10.891 5.721 11 6.091 11 6.5C11 7.328 10.552 8 10 8Z" fill="black"/>
</g>
<defs>
<clipPath id="clip0_104_1643">
<rect width="16" height="16" fill="white"/>
</clipPath>
</defs>
</svg>
