<svg width="24" height="24" viewBox="0 0 24 24" xmlns="http://www.w3.org/2000/svg" fill='currentColor'><path d="M12.0016 2.5C11.5416 2.5 11.0716 2.54 10.6016 2.64C7.84163 3.17 5.64163 5.4 5.12163 8.16C4.64163 10.77 5.60163 13.17 7.34163 14.72C7.77163 15.1 8.00163 15.63 8.00163 16.19V18.5C8.00163 19.6 8.90163 20.5 10.0016 20.5H10.2816C10.6316 21.1 11.2616 21.5 12.0016 21.5C12.7416 21.5 13.3816 21.1 13.7216 20.5H14.0016C15.1016 20.5 16.0016 19.6 16.0016 18.5V16.19C16.0016 15.64 16.2216 15.1 16.6416 14.73C18.0916 13.45 19.0016 11.58 19.0016 9.5C19.0016 5.63 15.8716 2.5 12.0016 2.5ZM14.0016 18.5H10.0016V17.5H14.0016V18.5ZM14.0016 16.5H10.0016V15.5H14.0016V16.5ZM12.5016 10.91V13.5H11.5016V10.91L9.67163 9.09L10.3816 8.38L12.0016 10L13.6216 8.38L14.3316 9.09L12.5016 10.91Z"/></svg>