<svg width="16" height="16" viewBox="0 0 16 16" fill="none" xmlns="http://www.w3.org/2000/svg">
<g clip-path="url(#clip0_104_1683)">
<path d="M8 0C10.1217 0 12.1566 0.842855 13.6569 2.34315C15.1571 3.84344 16 5.87827 16 8C16 10.1217 15.1571 12.1566 13.6569 13.6569C12.1566 15.1571 10.1217 16 8 16C5.87827 16 3.84344 15.1571 2.34315 13.6569C0.842855 12.1566 0 10.1217 0 8C0 5.87827 0.842855 3.84344 2.34315 2.34315C3.84344 0.842855 5.87827 0 8 0V0ZM7 9.5C7 8.672 6.552 8 6 8C5.448 8 5 8.672 5 9.5C5 10.328 5.448 11 6 11C6.552 11 7 10.328 7 9.5ZM4.285 6.433C4.39984 6.4993 4.53631 6.51727 4.6644 6.48295C4.79249 6.44863 4.90169 6.36484 4.968 6.25C5.27511 5.71766 5.71705 5.27563 6.24933 4.96841C6.7816 4.6612 7.38543 4.49964 8 4.5C9.295 4.5 10.426 5.203 11.032 6.25C11.0988 6.3639 11.2079 6.44677 11.3355 6.48052C11.4632 6.51427 11.599 6.49616 11.7133 6.43014C11.8277 6.36412 11.9113 6.25555 11.9459 6.12813C11.9805 6.00071 11.9633 5.86478 11.898 5.75C11.5031 5.06565 10.9349 4.49738 10.2507 4.1024C9.56637 3.70741 8.79011 3.49964 8 3.5C7.20993 3.49984 6.43375 3.7077 5.7495 4.10266C5.06524 4.49763 4.49703 5.06578 4.102 5.75C4.0357 5.86484 4.01773 6.00131 4.05205 6.1294C4.08637 6.25749 4.17016 6.36669 4.285 6.433ZM10 8C9.448 8 9 8.672 9 9.5C9 10.328 9.448 11 10 11C10.552 11 11 10.328 11 9.5C11 8.672 10.552 8 10 8Z" fill="black"/>
</g>
<defs>
<clipPath id="clip0_104_1683">
<rect width="16" height="16" fill="white"/>
</clipPath>
</defs>
</svg>
