<svg width="16" height="16" viewBox="0 0 16 16" xmlns="http://www.w3.org/2000/svg" fill='currentColor'><g clip-path="url(#clip0_104_1645)"><path d="M8 15C6.14348 15 4.36301 14.2625 3.05025 12.9497C1.7375 11.637 1 9.85652 1 8C1 6.14348 1.7375 4.36301 3.05025 3.05025C4.36301 1.7375 6.14348 1 8 1C9.85652 1 11.637 1.7375 12.9497 3.05025C14.2625 4.36301 15 6.14348 15 8C15 9.85652 14.2625 11.637 12.9497 12.9497C11.637 14.2625 9.85652 15 8 15ZM8 16C10.1217 16 12.1566 15.1571 13.6569 13.6569C15.1571 12.1566 16 10.1217 16 8C16 5.87827 15.1571 3.84344 13.6569 2.34315C12.1566 0.842855 10.1217 0 8 0C5.87827 0 3.84344 0.842855 2.34315 2.34315C0.842855 3.84344 0 5.87827 0 8C0 10.1217 0.842855 12.1566 2.34315 13.6569C3.84344 15.1571 5.87827 16 8 16Z"/><path d="M9.146 5.14604C9.19245 5.09948 9.24762 5.06253 9.30837 5.03733C9.36911 5.01212 9.43423 4.99915 9.5 4.99915C9.56577 4.99915 9.63089 5.01212 9.69163 5.03733C9.75238 5.06253 9.80756 5.09948 9.854 5.14604L10.5 5.79304L11.146 5.14604C11.2399 5.05215 11.3672 4.99941 11.5 4.99941C11.6328 4.99941 11.7601 5.05215 11.854 5.14604C11.9479 5.23993 12.0006 5.36726 12.0006 5.50004C12.0006 5.63281 11.9479 5.76015 11.854 5.85404L11.207 6.50004L11.854 7.14604C11.9479 7.23993 12.0006 7.36726 12.0006 7.50004C12.0006 7.63281 11.9479 7.76015 11.854 7.85404C11.7601 7.94793 11.6328 8.00067 11.5 8.00067C11.3672 8.00067 11.2399 7.94793 11.146 7.85404L10.5 7.20704L9.854 7.85404C9.80751 7.90053 9.75232 7.9374 9.69158 7.96256C9.63085 7.98772 9.56574 8.00067 9.5 8.00067C9.43426 8.00067 9.36916 7.98772 9.30842 7.96256C9.24768 7.9374 9.19249 7.90053 9.146 7.85404C9.09951 7.80755 9.06264 7.75236 9.03748 7.69162C9.01232 7.63088 8.99937 7.56578 8.99937 7.50004C8.99937 7.4343 9.01232 7.36919 9.03748 7.30846C9.06264 7.24772 9.09951 7.19253 9.146 7.14604L9.793 6.50004L9.146 5.85404C9.09944 5.80759 9.0625 5.75242 9.03729 5.69167C9.01208 5.63093 8.99911 5.56581 8.99911 5.50004C8.99911 5.43427 9.01208 5.36915 9.03729 5.30841C9.0625 5.24766 9.09944 5.19248 9.146 5.14604ZM4.146 5.14604C4.19245 5.09948 4.24762 5.06253 4.30837 5.03733C4.36911 5.01212 4.43423 4.99915 4.5 4.99915C4.56577 4.99915 4.63089 5.01212 4.69163 5.03733C4.75238 5.06253 4.80756 5.09948 4.854 5.14604L5.5 5.79304L6.146 5.14604C6.19249 5.09955 6.24768 5.06267 6.30842 5.03752C6.36916 5.01236 6.43426 4.99941 6.5 4.99941C6.56575 4.99941 6.63085 5.01236 6.69158 5.03752C6.75232 5.06267 6.80751 5.09955 6.854 5.14604C6.90049 5.19253 6.93737 5.24772 6.96252 5.30846C6.98768 5.36919 7.00063 5.4343 7.00063 5.50004C7.00063 5.56578 6.98768 5.63088 6.96252 5.69162C6.93737 5.75236 6.90049 5.80755 6.854 5.85404L6.207 6.50004L6.854 7.14604C6.90049 7.19253 6.93737 7.24772 6.96252 7.30846C6.98768 7.36919 7.00063 7.4343 7.00063 7.50004C7.00063 7.56578 6.98768 7.63088 6.96252 7.69162C6.93737 7.75236 6.90049 7.80755 6.854 7.85404C6.80751 7.90053 6.75232 7.9374 6.69158 7.96256C6.63085 7.98772 6.56575 8.00067 6.5 8.00067C6.43426 8.00067 6.36916 7.98772 6.30842 7.96256C6.24768 7.9374 6.19249 7.90053 6.146 7.85404L5.5 7.20704L4.854 7.85404C4.80751 7.90053 4.75232 7.9374 4.69158 7.96256C4.63085 7.98772 4.56575 8.00067 4.5 8.00067C4.43426 8.00067 4.36916 7.98772 4.30842 7.96256C4.24768 7.9374 4.19249 7.90053 4.146 7.85404C4.09951 7.80755 4.06264 7.75236 4.03748 7.69162C4.01232 7.63088 3.99937 7.56578 3.99937 7.50004C3.99937 7.4343 4.01232 7.36919 4.03748 7.30846C4.06264 7.24772 4.09951 7.19253 4.146 7.14604L4.793 6.50004L4.146 5.85404C4.09944 5.80759 4.06249 5.75242 4.03729 5.69167C4.01208 5.63093 3.99911 5.56581 3.99911 5.50004C3.99911 5.43427 4.01208 5.36915 4.03729 5.30841C4.06249 5.24766 4.09944 5.19248 4.146 5.14604ZM10 11C10 11.5305 9.78929 12.0392 9.41421 12.4143C9.03914 12.7893 8.53043 13 8 13C7.46957 13 6.96086 12.7893 6.58579 12.4143C6.21071 12.0392 6 11.5305 6 11C6 10.4696 6.21071 9.9609 6.58579 9.58583C6.96086 9.21075 7.46957 9.00004 8 9.00004C8.53043 9.00004 9.03914 9.21075 9.41421 9.58583C9.78929 9.9609 10 10.4696 10 11Z"/></g><defs><clipPath id="clip0_104_1645"><rect width="16" height="16"/></clipPath></defs></svg>