<svg width="16" height="16" viewBox="0 0 16 16" fill="none" xmlns="http://www.w3.org/2000/svg">
<g clip-path="url(#clip0_104_1673)">
<path d="M8 16C10.1217 16 12.1566 15.1571 13.6569 13.6569C15.1571 12.1566 16 10.1217 16 8C16 5.87827 15.1571 3.84344 13.6569 2.34315C12.1566 0.842855 10.1217 0 8 0C5.87827 0 3.84344 0.842855 2.34315 2.34315C0.842855 3.84344 0 5.87827 0 8C0 10.1217 0.842855 12.1566 2.34315 13.6569C3.84344 15.1571 5.87827 16 8 16ZM7 6.5C7 7.328 6.552 8 6 8C5.448 8 5 7.328 5 6.5C5 5.672 5.448 5 6 5C6.552 5 7 5.672 7 6.5ZM4 10.5C4 10.3674 4.05268 10.2402 4.14645 10.1464C4.24021 10.0527 4.36739 10 4.5 10H11.5C11.6326 10 11.7598 10.0527 11.8536 10.1464C11.9473 10.2402 12 10.3674 12 10.5C12 10.6326 11.9473 10.7598 11.8536 10.8536C11.7598 10.9473 11.6326 11 11.5 11H4.5C4.36739 11 4.24021 10.9473 4.14645 10.8536C4.05268 10.7598 4 10.6326 4 10.5ZM10 8C9.448 8 9 7.328 9 6.5C9 5.672 9.448 5 10 5C10.552 5 11 5.672 11 6.5C11 7.328 10.552 8 10 8Z" fill="black"/>
</g>
<defs>
<clipPath id="clip0_104_1673">
<rect width="16" height="16" fill="white"/>
</clipPath>
</defs>
</svg>
