<svg width="16" height="16" viewBox="0 0 16 16" fill="none" xmlns="http://www.w3.org/2000/svg">
<g clip-path="url(#clip0_104_1648)">
<path d="M8 16C10.1217 16 12.1566 15.1571 13.6569 13.6569C15.1571 12.1566 16 10.1217 16 8C16 5.87827 15.1571 3.84344 13.6569 2.34315C12.1566 0.842855 10.1217 0 8 0C5.87827 0 3.84344 0.842855 2.34315 2.34315C0.842855 3.84344 0 5.87827 0 8C0 10.1217 0.842855 12.1566 2.34315 13.6569C3.84344 15.1571 5.87827 16 8 16ZM4.146 5.146C4.19245 5.09944 4.24762 5.06249 4.30837 5.03729C4.36911 5.01208 4.43423 4.99911 4.5 4.99911C4.56577 4.99911 4.63089 5.01208 4.69163 5.03729C4.75238 5.06249 4.80755 5.09944 4.854 5.146L5.5 5.793L6.146 5.146C6.19249 5.09951 6.24768 5.06264 6.30842 5.03748C6.36916 5.01232 6.43426 4.99937 6.5 4.99937C6.56574 4.99937 6.63084 5.01232 6.69158 5.03748C6.75232 5.06264 6.80751 5.09951 6.854 5.146C6.90049 5.19249 6.93736 5.24768 6.96252 5.30842C6.98768 5.36916 7.00063 5.43426 7.00063 5.5C7.00063 5.56574 6.98768 5.63084 6.96252 5.69158C6.93736 5.75232 6.90049 5.80751 6.854 5.854L6.207 6.5L6.854 7.146C6.90049 7.19249 6.93736 7.24768 6.96252 7.30842C6.98768 7.36916 7.00063 7.43426 7.00063 7.5C7.00063 7.56574 6.98768 7.63084 6.96252 7.69158C6.93736 7.75232 6.90049 7.80751 6.854 7.854C6.80751 7.90049 6.75232 7.93736 6.69158 7.96252C6.63084 7.98768 6.56574 8.00063 6.5 8.00063C6.43426 8.00063 6.36916 7.98768 6.30842 7.96252C6.24768 7.93736 6.19249 7.90049 6.146 7.854L5.5 7.207L4.854 7.854C4.80751 7.90049 4.75232 7.93736 4.69158 7.96252C4.63084 7.98768 4.56574 8.00063 4.5 8.00063C4.43426 8.00063 4.36916 7.98768 4.30842 7.96252C4.24768 7.93736 4.19249 7.90049 4.146 7.854C4.09951 7.80751 4.06264 7.75232 4.03748 7.69158C4.01232 7.63084 3.99937 7.56574 3.99937 7.5C3.99937 7.43426 4.01232 7.36916 4.03748 7.30842C4.06264 7.24768 4.09951 7.19249 4.146 7.146L4.793 6.5L4.146 5.854C4.09944 5.80755 4.06249 5.75238 4.03729 5.69163C4.01208 5.63089 3.99911 5.56577 3.99911 5.5C3.99911 5.43423 4.01208 5.36911 4.03729 5.30837C4.06249 5.24762 4.09944 5.19245 4.146 5.146ZM9.146 5.146C9.19245 5.09944 9.24762 5.06249 9.30837 5.03729C9.36911 5.01208 9.43423 4.99911 9.5 4.99911C9.56577 4.99911 9.63089 5.01208 9.69163 5.03729C9.75238 5.06249 9.80755 5.09944 9.854 5.146L10.5 5.793L11.146 5.146C11.2399 5.05211 11.3672 4.99937 11.5 4.99937C11.6328 4.99937 11.7601 5.05211 11.854 5.146C11.9479 5.23989 12.0006 5.36722 12.0006 5.5C12.0006 5.63278 11.9479 5.76011 11.854 5.854L11.207 6.5L11.854 7.146C11.9479 7.23989 12.0006 7.36722 12.0006 7.5C12.0006 7.63278 11.9479 7.76011 11.854 7.854C11.7601 7.94789 11.6328 8.00063 11.5 8.00063C11.3672 8.00063 11.2399 7.94789 11.146 7.854L10.5 7.207L9.854 7.854C9.80751 7.90049 9.75232 7.93736 9.69158 7.96252C9.63084 7.98768 9.56574 8.00063 9.5 8.00063C9.43426 8.00063 9.36916 7.98768 9.30842 7.96252C9.24768 7.93736 9.19249 7.90049 9.146 7.854C9.09951 7.80751 9.06264 7.75232 9.03748 7.69158C9.01232 7.63084 8.99937 7.56574 8.99937 7.5C8.99937 7.43426 9.01232 7.36916 9.03748 7.30842C9.06264 7.24768 9.09951 7.19249 9.146 7.146L9.793 6.5L9.146 5.854C9.09944 5.80755 9.06249 5.75238 9.03729 5.69163C9.01208 5.63089 8.99911 5.56577 8.99911 5.5C8.99911 5.43423 9.01208 5.36911 9.03729 5.30837C9.06249 5.24762 9.09944 5.19245 9.146 5.146ZM8 13C7.46957 13 6.96086 12.7893 6.58579 12.4142C6.21071 12.0391 6 11.5304 6 11C6 10.4696 6.21071 9.96086 6.58579 9.58579C6.96086 9.21071 7.46957 9 8 9C8.53043 9 9.03914 9.21071 9.41421 9.58579C9.78929 9.96086 10 10.4696 10 11C10 11.5304 9.78929 12.0391 9.41421 12.4142C9.03914 12.7893 8.53043 13 8 13Z" fill="black"/>
</g>
<defs>
<clipPath id="clip0_104_1648">
<rect width="16" height="16" fill="white"/>
</clipPath>
</defs>
</svg>
