<svg width="16" height="16" viewBox="0 0 16 16" fill="none" xmlns="http://www.w3.org/2000/svg">
<path d="M0 4C0 3.46957 0.210714 2.96086 0.585786 2.58579C0.960859 2.21071 1.46957 2 2 2H14C14.5304 2 15.0391 2.21071 15.4142 2.58579C15.7893 2.96086 16 3.46957 16 4V12C16 12.5304 15.7893 13.0391 15.4142 13.4142C15.0391 13.7893 14.5304 14 14 14H2C1.46957 14 0.960859 13.7893 0.585786 13.4142C0.210714 13.0391 0 12.5304 0 12V4ZM2 3C1.73478 3 1.48043 3.10536 1.29289 3.29289C1.10536 3.48043 1 3.73478 1 4V4.217L8 8.417L15 4.217V4C15 3.73478 14.8946 3.48043 14.7071 3.29289C14.5196 3.10536 14.2652 3 14 3H2ZM15 5.383L10.242 8.238L15 11.114V5.384V5.383ZM14.966 12.261L9.271 8.82L8 9.583L6.728 8.82L1.034 12.26C1.0912 12.4724 1.21685 12.6601 1.39149 12.7938C1.56613 12.9276 1.78001 13.0001 2 13H14C14.2199 13.0001 14.4336 12.9278 14.6083 12.7942C14.7829 12.6607 14.9086 12.4732 14.966 12.261ZM1 11.114L5.758 8.238L1 5.383V11.113V11.114Z" fill="black"/>
</svg>
