<svg width="16" height="16" viewBox="0 0 16 16" xmlns="http://www.w3.org/2000/svg" fill='currentColor'><g clip-path="url(#clip0_104_1701)"><path d="M8.941 0.435029C8.65138 0.280604 8.32821 0.199829 8 0.199829C7.67179 0.199829 7.34862 0.280604 7.059 0.435029L1.059 3.63503C0.739081 3.80561 0.471548 4.05995 0.285014 4.37084C0.0984807 4.68173 -3.62467e-05 5.03747 1.00039e-08 5.40003V5.71303L6.709 9.64603L8 8.92803L9.291 9.64503L16 5.71503V5.40003C16 5.03747 15.9015 4.68173 15.715 4.37084C15.5285 4.05995 15.2609 3.80561 14.941 3.63503L8.941 0.435029ZM16 6.87303L10.307 10.21L16 13.372V6.87203V6.87303ZM15.941 14.484L8 10.072L0.059 14.484C0.167004 14.9171 0.416741 15.3015 0.768469 15.5762C1.1202 15.851 1.5537 16.0001 2 16H14C14.4463 16.0001 14.8798 15.851 15.2315 15.5762C15.5833 15.3015 15.833 14.9171 15.941 14.484ZM1.00039e-08 13.373L5.693 10.21L1.00039e-08 6.87303V13.373Z"/></g><defs><clipPath id="clip0_104_1701"><rect width="16" height="16"/></clipPath></defs></svg>