<svg width="16" height="16" viewBox="0 0 16 16" fill="none" xmlns="http://www.w3.org/2000/svg">
<g clip-path="url(#clip0_104_1699)">
<path d="M8.47 1.31803C8.32532 1.24099 8.16392 1.2007 8 1.2007C7.83608 1.2007 7.67468 1.24099 7.53 1.31803L1.53 4.51803C1.37002 4.60321 1.2362 4.73028 1.14285 4.88563C1.0495 5.04098 1.00012 5.21879 1 5.40003V6.21803L6.724 9.68303L8 8.91703L9.276 9.68303L15 6.21803V5.40003C14.9999 5.21879 14.9505 5.04098 14.8572 4.88563C14.7638 4.73028 14.63 4.60321 14.47 4.51803L8.47 1.31803ZM15 7.38803L10.246 10.265L15 13.117V7.38703V7.38803ZM14.965 14.262L8 10.083L1.035 14.263C1.09271 14.4747 1.21845 14.6616 1.39283 14.7948C1.56722 14.9279 1.78057 15.0001 2 15H14C14.2196 15 14.433 14.9277 14.6074 14.7944C14.7818 14.661 14.9075 14.4739 14.965 14.262ZM1 13.117L5.754 10.265L1 7.38703V13.117ZM7.059 0.435029C7.34862 0.280604 7.67179 0.199829 8 0.199829C8.32821 0.199829 8.65138 0.280604 8.941 0.435029L14.941 3.63503C15.2609 3.80561 15.5285 4.05995 15.715 4.37084C15.9015 4.68173 16 5.03747 16 5.40003V14C16 14.5305 15.7893 15.0392 15.4142 15.4142C15.0391 15.7893 14.5304 16 14 16H2C1.46957 16 0.960859 15.7893 0.585786 15.4142C0.210714 15.0392 1.00039e-08 14.5305 1.00039e-08 14V5.40003C-3.62467e-05 5.03747 0.0984807 4.68173 0.285014 4.37084C0.471548 4.05995 0.739081 3.80561 1.059 3.63503L7.059 0.435029Z" fill="black"/>
</g>
<defs>
<clipPath id="clip0_104_1699">
<rect width="16" height="16" fill="white"/>
</clipPath>
</defs>
</svg>
