<svg width="16" height="16" viewBox="0 0 16 16" xmlns="http://www.w3.org/2000/svg" fill='currentColor'><path d="M8.086 2.20697C8.46105 1.83203 8.96967 1.6214 9.5 1.6214C10.0303 1.6214 10.5389 1.83203 10.914 2.20697L14.793 6.08597C15.1679 6.46103 15.3786 6.96964 15.3786 7.49997C15.3786 8.0303 15.1679 8.53892 14.793 8.91397L9.293 14.414C8.91801 14.7891 8.40939 14.9999 7.879 15H5.12C4.58961 14.9999 4.08098 14.7891 3.706 14.414L1.206 11.914C0.831057 11.5389 0.620426 11.0303 0.620426 10.5C0.620426 9.96964 0.831057 9.46103 1.206 9.08597L8.085 2.20697H8.086ZM10.207 2.91397C10.0195 2.7265 9.76516 2.62119 9.5 2.62119C9.23483 2.62119 8.98053 2.7265 8.793 2.91397L4.16 7.54697L9.453 12.84L14.086 8.20697C14.2735 8.01944 14.3788 7.76514 14.3788 7.49997C14.3788 7.23481 14.2735 6.9805 14.086 6.79297L10.207 2.91397ZM8.746 13.547L3.453 8.25397L1.914 9.79297C1.72653 9.9805 1.62121 10.2348 1.62121 10.5C1.62121 10.7651 1.72653 11.0194 1.914 11.207L4.414 13.707C4.60149 13.8945 4.8558 13.9999 5.121 14H7.88C8.14519 13.9999 8.39951 13.8945 8.587 13.707L8.747 13.547H8.746Z"/></svg>