<svg width="16" height="16" viewBox="0 0 16 16" xmlns="http://www.w3.org/2000/svg" fill='currentColor'><path d="M8.086 2.20703C8.46106 1.83209 8.96967 1.62146 9.5 1.62146C10.0303 1.62146 10.5389 1.83209 10.914 2.20703L14.793 6.08603C15.1679 6.46109 15.3786 6.9697 15.3786 7.50003C15.3786 8.03036 15.1679 8.53898 14.793 8.91403L9.293 14.414C8.91802 14.7891 8.40939 14.9999 7.879 15H5.12C4.58961 14.9999 4.08099 14.7891 3.706 14.414L1.206 11.914C0.831061 11.539 0.62043 11.0304 0.62043 10.5C0.62043 9.9697 0.831061 9.46109 1.206 9.08603L8.085 2.20703H8.086ZM8.746 13.547L3.453 8.25403L1.914 9.79303C1.72653 9.98056 1.62122 10.2349 1.62122 10.5C1.62122 10.7652 1.72653 11.0195 1.914 11.207L4.414 13.707C4.6015 13.8946 4.85581 14 5.121 14H7.88C8.1452 14 8.39951 13.8946 8.587 13.707L8.747 13.547H8.746Z"/></svg>