<svg width="16" height="16" viewBox="0 0 16 16" xmlns="http://www.w3.org/2000/svg" fill='currentColor'><path d="M8.086 2.20703C8.46105 1.83209 8.96967 1.62146 9.5 1.62146C10.0303 1.62146 10.5389 1.83209 10.914 2.20703L14.793 6.08603C15.1679 6.46109 15.3786 6.9697 15.3786 7.50003C15.3786 8.03036 15.1679 8.53898 14.793 8.91403L9.293 14.414C8.91801 14.7891 8.40939 14.9999 7.879 15H5.12C4.58961 14.9999 4.08098 14.7891 3.706 14.414L1.206 11.914C0.831057 11.539 0.620426 11.0304 0.620426 10.5C0.620426 9.9697 0.831057 9.46109 1.206 9.08603L8.085 2.20703H8.086ZM10.207 2.91403C10.0195 2.72656 9.76516 2.62125 9.5 2.62125C9.23483 2.62125 8.98053 2.72656 8.793 2.91403L4.16 7.54703L9.453 12.84L14.086 8.20703C14.2735 8.01951 14.3788 7.7652 14.3788 7.50003C14.3788 7.23487 14.2735 6.98056 14.086 6.79303L10.207 2.91403ZM8.746 13.547L3.453 8.25403L1.914 9.79303C1.72653 9.98056 1.62121 10.2349 1.62121 10.5C1.62121 10.7652 1.72653 11.0195 1.914 11.207L4.414 13.707C4.60149 13.8946 4.8558 14 5.121 14H7.88C8.14519 14 8.39951 13.8946 8.587 13.707L8.747 13.547H8.746Z"/></svg>