<svg width="16" height="16" viewBox="0 0 16 16" xmlns="http://www.w3.org/2000/svg" fill='currentColor'><g clip-path="url(#clip0_104_1721)"><path d="M4.54 0.146C4.63371 0.052531 4.76065 2.8119e-05 4.893 0L11.107 0C11.2394 2.8119e-05 11.3663 0.052531 11.46 0.146L15.854 4.54C15.9475 4.63371 16 4.76065 16 4.893V11.107C16 11.2394 15.9475 11.3663 15.854 11.46L11.46 15.854C11.3663 15.9475 11.2394 16 11.107 16H4.893C4.76065 16 4.63371 15.9475 4.54 15.854L0.146 11.46C0.052531 11.3663 2.8119e-05 11.2394 0 11.107L0 4.893C2.8119e-05 4.76065 0.052531 4.63371 0.146 4.54L4.54 0.146ZM5.1 1L1 5.1V10.9L5.1 15H10.9L15 10.9V5.1L10.9 1H5.1Z"/><path d="M7.00201 11C7.00201 10.8687 7.02788 10.7386 7.07813 10.6173C7.12839 10.496 7.20205 10.3857 7.29491 10.2929C7.38777 10.2 7.49801 10.1264 7.61933 10.0761C7.74066 10.0259 7.87069 10 8.00201 10C8.13334 10 8.26337 10.0259 8.3847 10.0761C8.50602 10.1264 8.61626 10.2 8.70912 10.2929C8.80198 10.3857 8.87564 10.496 8.92589 10.6173C8.97615 10.7386 9.00201 10.8687 9.00201 11C9.00201 11.2652 8.89666 11.5196 8.70912 11.7071C8.52158 11.8946 8.26723 12 8.00201 12C7.7368 12 7.48244 11.8946 7.29491 11.7071C7.10737 11.5196 7.00201 11.2652 7.00201 11ZM7.10001 4.995C7.0867 4.86884 7.10005 4.74129 7.13921 4.62062C7.17838 4.49996 7.24247 4.38888 7.32733 4.29458C7.4122 4.20029 7.51594 4.12489 7.63183 4.07328C7.74771 4.02167 7.87315 3.995 8.00001 3.995C8.12687 3.995 8.25232 4.02167 8.3682 4.07328C8.48409 4.12489 8.58783 4.20029 8.6727 4.29458C8.75756 4.38888 8.82165 4.49996 8.86081 4.62062C8.89998 4.74129 8.91333 4.86884 8.90001 4.995L8.55001 8.502C8.53825 8.63977 8.47522 8.76811 8.37337 8.86163C8.27152 8.95515 8.13829 9.00705 8.00001 9.00705C7.86174 9.00705 7.7285 8.95515 7.62666 8.86163C7.52481 8.76811 7.46177 8.63977 7.45001 8.502L7.10001 4.995Z"/></g><defs><clipPath id="clip0_104_1721"><rect width="16" height="16"/></clipPath></defs></svg>