<svg width="16" height="16" viewBox="0 0 16 16" fill="none" xmlns="http://www.w3.org/2000/svg">
<g clip-path="url(#clip0_104_1714)">
<path d="M6.95 0.435C7.53 -0.145 8.47 -0.145 9.05 0.435L15.565 6.951C16.145 7.531 16.145 8.47 15.565 9.049L9.05 15.565C8.47 16.145 7.531 16.145 6.952 15.565L0.434999 9.05C0.297063 8.91234 0.187629 8.74884 0.112962 8.56883C0.0382959 8.38883 -0.000137329 8.19587 -0.000137329 8.001C-0.000137329 7.80613 0.0382959 7.61317 0.112962 7.43317C0.187629 7.25316 0.297063 7.08966 0.434999 6.952L6.95 0.435ZM8.35 1.135C8.25717 1.04218 8.13127 0.990036 8 0.990036C7.86873 0.990036 7.74283 1.04218 7.65 1.135L1.134 7.65C1.04118 7.74283 0.989035 7.86873 0.989035 8C0.989035 8.13127 1.04118 8.25717 1.134 8.35L7.65 14.866C7.74283 14.9588 7.86873 15.011 8 15.011C8.13127 15.011 8.25717 14.9588 8.35 14.866L14.866 8.35C14.9588 8.25717 15.011 8.13127 15.011 8C15.011 7.86873 14.9588 7.74283 14.866 7.65L8.35 1.134V1.135Z" fill="black"/>
<path d="M7.00201 11C7.00201 10.8687 7.02788 10.7386 7.07813 10.6173C7.12839 10.496 7.20205 10.3857 7.29491 10.2929C7.38777 10.2 7.49801 10.1264 7.61933 10.0761C7.74066 10.0259 7.87069 10 8.00201 10C8.13334 10 8.26337 10.0259 8.3847 10.0761C8.50602 10.1264 8.61626 10.2 8.70912 10.2929C8.80198 10.3857 8.87564 10.496 8.92589 10.6173C8.97615 10.7386 9.00201 10.8687 9.00201 11C9.00201 11.2652 8.89666 11.5196 8.70912 11.7071C8.52158 11.8946 8.26723 12 8.00201 12C7.7368 12 7.48244 11.8946 7.29491 11.7071C7.10737 11.5196 7.00201 11.2652 7.00201 11ZM7.10001 4.995C7.0867 4.86884 7.10005 4.74129 7.13921 4.62062C7.17838 4.49996 7.24247 4.38888 7.32733 4.29458C7.4122 4.20029 7.51594 4.12489 7.63183 4.07328C7.74771 4.02167 7.87315 3.995 8.00001 3.995C8.12687 3.995 8.25232 4.02167 8.3682 4.07328C8.48409 4.12489 8.58783 4.20029 8.6727 4.29458C8.75756 4.38888 8.82165 4.49996 8.86081 4.62062C8.89998 4.74129 8.91333 4.86884 8.90001 4.995L8.55001 8.502C8.53825 8.63977 8.47522 8.76811 8.37337 8.86163C8.27152 8.95515 8.13829 9.00705 8.00001 9.00705C7.86174 9.00705 7.7285 8.95515 7.62666 8.86163C7.52481 8.76811 7.46177 8.63977 7.45001 8.502L7.10001 4.995Z" fill="black"/>
</g>
<defs>
<clipPath id="clip0_104_1714">
<rect width="16" height="16" fill="white"/>
</clipPath>
</defs>
</svg>
