<svg width="16" height="16" viewBox="0 0 16 16" xmlns="http://www.w3.org/2000/svg" fill='currentColor'><g clip-path="url(#clip0_104_1729)"><path d="M2 0C1.46957 0 0.960859 0.210714 0.585786 0.585786C0.210714 0.960859 0 1.46957 0 2L0 14C0 14.5304 0.210714 15.0391 0.585786 15.4142C0.960859 15.7893 1.46957 16 2 16H14C14.5304 16 15.0391 15.7893 15.4142 15.4142C15.7893 15.0391 16 14.5304 16 14V2C16 1.46957 15.7893 0.960859 15.4142 0.585786C15.0391 0.210714 14.5304 0 14 0L2 0ZM8 4C8.535 4 8.954 4.462 8.9 4.995L8.55 8.502C8.53824 8.63977 8.4752 8.76811 8.37336 8.86164C8.27151 8.95516 8.13827 9.00705 8 9.00705C7.86173 9.00705 7.72849 8.95516 7.62664 8.86164C7.5248 8.76811 7.46176 8.63977 7.45 8.502L7.1 4.995C7.08743 4.86923 7.10134 4.74223 7.14084 4.62217C7.18035 4.5021 7.24456 4.39165 7.32934 4.29791C7.41413 4.20418 7.51761 4.12924 7.63312 4.07793C7.74863 4.02662 7.87361 4.00007 8 4ZM8.002 10C8.26722 10 8.52157 10.1054 8.70911 10.2929C8.89664 10.4804 9.002 10.7348 9.002 11C9.002 11.2652 8.89664 11.5196 8.70911 11.7071C8.52157 11.8946 8.26722 12 8.002 12C7.73678 12 7.48243 11.8946 7.29489 11.7071C7.10736 11.5196 7.002 11.2652 7.002 11C7.002 10.7348 7.10736 10.4804 7.29489 10.2929C7.48243 10.1054 7.73678 10 8.002 10Z"/></g><defs><clipPath id="clip0_104_1729"><rect width="16" height="16"/></clipPath></defs></svg>