<svg width="16" height="16" viewBox="0 0 16 16" xmlns="http://www.w3.org/2000/svg" fill='currentColor'><g clip-path="url(#clip0_104_1724)"><path d="M11.46 0.146C11.3663 0.052531 11.2394 2.8119e-05 11.107 0L4.893 0C4.76065 2.8119e-05 4.63371 0.052531 4.54 0.146L0.146 4.54C0.052531 4.63371 2.8119e-05 4.76065 0 4.893L0 11.107C2.8119e-05 11.2394 0.052531 11.3663 0.146 11.46L4.54 15.854C4.63371 15.9475 4.76065 16 4.893 16H11.107C11.2394 16 11.3663 15.9475 11.46 15.854L15.854 11.46C15.9475 11.3663 16 11.2394 16 11.107V4.893C16 4.76065 15.9475 4.63371 15.854 4.54L11.46 0.146ZM8 4C8.535 4 8.954 4.462 8.9 4.995L8.55 8.502C8.53824 8.63977 8.4752 8.76811 8.37336 8.86164C8.27151 8.95516 8.13827 9.00705 8 9.00705C7.86173 9.00705 7.72849 8.95516 7.62664 8.86164C7.5248 8.76811 7.46176 8.63977 7.45 8.502L7.1 4.995C7.08743 4.86923 7.10134 4.74223 7.14084 4.62217C7.18035 4.5021 7.24456 4.39165 7.32934 4.29791C7.41413 4.20418 7.51761 4.12924 7.63312 4.07793C7.74863 4.02662 7.87361 4.00007 8 4ZM8.002 10C8.26722 10 8.52157 10.1054 8.70911 10.2929C8.89664 10.4804 9.002 10.7348 9.002 11C9.002 11.2652 8.89664 11.5196 8.70911 11.7071C8.52157 11.8946 8.26722 12 8.002 12C7.73678 12 7.48243 11.8946 7.29489 11.7071C7.10736 11.5196 7.002 11.2652 7.002 11C7.002 10.7348 7.10736 10.4804 7.29489 10.2929C7.48243 10.1054 7.73678 10 8.002 10Z"/></g><defs><clipPath id="clip0_104_1724"><rect width="16" height="16"/></clipPath></defs></svg>