<svg width="16" height="16" viewBox="0 0 16 16" fill="none" xmlns="http://www.w3.org/2000/svg">
<g clip-path="url(#clip0_104_1709)">
<path d="M8 15C6.14348 15 4.36301 14.2625 3.05025 12.9497C1.7375 11.637 1 9.85652 1 8C1 6.14348 1.7375 4.36301 3.05025 3.05025C4.36301 1.7375 6.14348 1 8 1C9.85652 1 11.637 1.7375 12.9497 3.05025C14.2625 4.36301 15 6.14348 15 8C15 9.85652 14.2625 11.637 12.9497 12.9497C11.637 14.2625 9.85652 15 8 15ZM8 16C10.1217 16 12.1566 15.1571 13.6569 13.6569C15.1571 12.1566 16 10.1217 16 8C16 5.87827 15.1571 3.84344 13.6569 2.34315C12.1566 0.842855 10.1217 0 8 0C5.87827 0 3.84344 0.842855 2.34315 2.34315C0.842855 3.84344 0 5.87827 0 8C0 10.1217 0.842855 12.1566 2.34315 13.6569C3.84344 15.1571 5.87827 16 8 16Z" fill="black"/>
<path d="M7.002 11C7.002 10.8687 7.02786 10.7386 7.07812 10.6173C7.12837 10.496 7.20203 10.3857 7.29489 10.2929C7.38775 10.2 7.49799 10.1264 7.61932 10.0761C7.74064 10.0259 7.87068 10 8.002 10C8.13332 10 8.26336 10.0259 8.38468 10.0761C8.50601 10.1264 8.61625 10.2 8.70911 10.2929C8.80196 10.3857 8.87562 10.496 8.92588 10.6173C8.97613 10.7386 9.002 10.8687 9.002 11C9.002 11.2652 8.89664 11.5196 8.70911 11.7071C8.52157 11.8946 8.26722 12 8.002 12C7.73678 12 7.48243 11.8946 7.29489 11.7071C7.10736 11.5196 7.002 11.2652 7.002 11ZM7.1 4.995C7.08668 4.86884 7.10004 4.74129 7.1392 4.62062C7.17836 4.49996 7.24245 4.38888 7.32732 4.29458C7.41218 4.20029 7.51592 4.12489 7.63181 4.07328C7.7477 4.02167 7.87314 3.995 8 3.995C8.12686 3.995 8.2523 4.02167 8.36819 4.07328C8.48407 4.12489 8.58782 4.20029 8.67268 4.29458C8.75754 4.38888 8.82164 4.49996 8.8608 4.62062C8.89996 4.74129 8.91332 4.86884 8.9 4.995L8.55 8.502C8.53824 8.63977 8.4752 8.76811 8.37335 8.86163C8.27151 8.95515 8.13827 9.00705 8 9.00705C7.86173 9.00705 7.72849 8.95515 7.62664 8.86163C7.5248 8.76811 7.46176 8.63977 7.45 8.502L7.1 4.995Z" fill="black"/>
</g>
<defs>
<clipPath id="clip0_104_1709">
<rect width="16" height="16" fill="white"/>
</clipPath>
</defs>
</svg>
