<svg width="16" height="16" viewBox="0 0 16 16" xmlns="http://www.w3.org/2000/svg" fill='currentColor'><g clip-path="url(#clip0_104_1731)"><path d="M7.93801 2.01595C7.95761 2.0052 7.97965 1.99969 8.00201 1.99995C8.02402 1.99986 8.0457 2.00537 8.06501 2.01595C8.08787 2.02966 8.10655 2.04938 8.11901 2.07295L14.976 13.74C15.012 13.8 15.011 13.864 14.978 13.923C14.9653 13.9472 14.9468 13.9678 14.924 13.983C14.9042 13.9951 14.8812 14.001 14.858 14H1.14601C1.12279 14.0011 1.09978 13.9952 1.08001 13.983C1.05726 13.9678 1.03869 13.9472 1.02601 13.923C1.00953 13.8952 1.001 13.8634 1.00135 13.8312C1.0017 13.7989 1.01092 13.7673 1.02801 13.74L7.88401 2.07295C7.89651 2.04941 7.91517 2.0297 7.93801 2.01595ZM8.98201 1.56595C8.88302 1.39352 8.74028 1.25025 8.56821 1.15062C8.39614 1.051 8.20084 0.998535 8.00201 0.998535C7.80318 0.998535 7.60787 1.051 7.4358 1.15062C7.26373 1.25025 7.121 1.39352 7.02201 1.56595L0.165007 13.233C-0.291993 14.011 0.256007 15 1.14501 15H14.858C15.747 15 16.296 14.01 15.838 13.233L8.98201 1.56595Z"/><path d="M7.00201 12C7.00201 11.8687 7.02788 11.7386 7.07813 11.6173C7.12839 11.496 7.20205 11.3857 7.29491 11.2929C7.38777 11.2 7.49801 11.1264 7.61933 11.0761C7.74066 11.0259 7.87069 11 8.00201 11C8.13334 11 8.26337 11.0259 8.3847 11.0761C8.50602 11.1264 8.61626 11.2 8.70912 11.2929C8.80198 11.3857 8.87564 11.496 8.92589 11.6173C8.97615 11.7386 9.00201 11.8687 9.00201 12C9.00201 12.2652 8.89666 12.5196 8.70912 12.7071C8.52158 12.8946 8.26723 13 8.00201 13C7.7368 13 7.48244 12.8946 7.29491 12.7071C7.10737 12.5196 7.00201 12.2652 7.00201 12ZM7.10001 5.995C7.0867 5.86884 7.10005 5.74129 7.13921 5.62062C7.17838 5.49996 7.24247 5.38888 7.32733 5.29458C7.4122 5.20029 7.51594 5.12489 7.63183 5.07328C7.74771 5.02167 7.87315 4.995 8.00001 4.995C8.12687 4.995 8.25232 5.02167 8.3682 5.07328C8.48409 5.12489 8.58783 5.20029 8.6727 5.29458C8.75756 5.38888 8.82165 5.49996 8.86081 5.62062C8.89998 5.74129 8.91333 5.86884 8.90001 5.995L8.55001 9.502C8.53825 9.63977 8.47522 9.76811 8.37337 9.86163C8.27152 9.95515 8.13829 10.007 8.00001 10.007C7.86174 10.007 7.7285 9.95515 7.62666 9.86163C7.52481 9.76811 7.46177 9.63977 7.45001 9.502L7.10001 5.995Z"/></g><defs><clipPath id="clip0_104_1731"><rect width="16" height="16"/></clipPath></defs></svg>