<svg width="16" height="16" viewBox="0 0 16 16" xmlns="http://www.w3.org/2000/svg" fill='currentColor'><g clip-path="url(#clip0_104_1726)"><path d="M14 1C14.2652 1 14.5196 1.10536 14.7071 1.29289C14.8946 1.48043 15 1.73478 15 2V14C15 14.2652 14.8946 14.5196 14.7071 14.7071C14.5196 14.8946 14.2652 15 14 15H2C1.73478 15 1.48043 14.8946 1.29289 14.7071C1.10536 14.5196 1 14.2652 1 14V2C1 1.73478 1.10536 1.48043 1.29289 1.29289C1.48043 1.10536 1.73478 1 2 1H14ZM2 0C1.46957 0 0.960859 0.210714 0.585786 0.585786C0.210714 0.960859 0 1.46957 0 2L0 14C0 14.5304 0.210714 15.0391 0.585786 15.4142C0.960859 15.7893 1.46957 16 2 16H14C14.5304 16 15.0391 15.7893 15.4142 15.4142C15.7893 15.0391 16 14.5304 16 14V2C16 1.46957 15.7893 0.960859 15.4142 0.585786C15.0391 0.210714 14.5304 0 14 0L2 0Z"/><path d="M7.00201 11C7.00201 10.8687 7.02788 10.7386 7.07813 10.6173C7.12839 10.496 7.20205 10.3857 7.29491 10.2929C7.38777 10.2 7.49801 10.1264 7.61933 10.0761C7.74066 10.0259 7.87069 10 8.00201 10C8.13334 10 8.26337 10.0259 8.3847 10.0761C8.50602 10.1264 8.61626 10.2 8.70912 10.2929C8.80198 10.3857 8.87564 10.496 8.92589 10.6173C8.97615 10.7386 9.00201 10.8687 9.00201 11C9.00201 11.2652 8.89666 11.5196 8.70912 11.7071C8.52158 11.8946 8.26723 12 8.00201 12C7.7368 12 7.48244 11.8946 7.29491 11.7071C7.10737 11.5196 7.00201 11.2652 7.00201 11ZM7.10001 4.995C7.0867 4.86884 7.10005 4.74129 7.13921 4.62062C7.17838 4.49996 7.24247 4.38888 7.32733 4.29458C7.4122 4.20029 7.51594 4.12489 7.63183 4.07328C7.74771 4.02167 7.87315 3.995 8.00001 3.995C8.12687 3.995 8.25232 4.02167 8.3682 4.07328C8.48409 4.12489 8.58783 4.20029 8.6727 4.29458C8.75756 4.38888 8.82165 4.49996 8.86081 4.62062C8.89998 4.74129 8.91333 4.86884 8.90001 4.995L8.55001 8.502C8.53825 8.63977 8.47522 8.76811 8.37337 8.86163C8.27152 8.95515 8.13829 9.00705 8.00001 9.00705C7.86174 9.00705 7.7285 8.95515 7.62666 8.86163C7.52481 8.76811 7.46177 8.63977 7.45001 8.502L7.10001 4.995Z"/></g><defs><clipPath id="clip0_104_1726"><rect width="16" height="16"/></clipPath></defs></svg>