<svg width="24" height="24" viewBox="0 0 24 24" xmlns="http://www.w3.org/2000/svg" fill='currentColor'><path d="M19.835 22.5551L18.205 20.9251C18.155 20.9251 18.105 20.9451 18.055 20.9451H14.255C14.255 18.2351 12.095 17.9451 11.555 17.9451C11.015 17.9451 8.85501 18.2351 8.85501 20.9451H5.05501C3.95501 20.9451 3.05501 20.0451 3.05501 18.9451V15.1451C5.76501 15.1451 6.05501 12.9851 6.05501 12.4451C6.05501 11.9051 5.75501 9.74507 3.06501 9.74507V5.94507C3.06501 5.89507 3.08501 5.85507 3.08501 5.80507L1.44501 4.16507L2.85501 2.75507L21.235 21.1351L19.835 22.5551ZM20.055 17.1151V14.9451C21.435 14.9451 22.555 13.8251 22.555 12.4451C22.555 11.0651 21.435 9.94507 20.055 9.94507V5.94507C20.055 4.84507 19.155 3.94507 18.055 3.94507H14.055C14.055 2.56507 12.935 1.44507 11.555 1.44507C10.175 1.44507 9.05501 2.56507 9.05501 3.94507H6.88501L20.055 17.1151Z"/></svg>