<svg width="16" height="16" viewBox="0 0 16 16" xmlns="http://www.w3.org/2000/svg" fill='currentColor'><g clip-path="url(#clip0_104_1741)"><path d="M13.354 0.645976C13.2419 0.533739 13.1087 0.4447 12.9622 0.38395C12.8157 0.3232 12.6586 0.291931 12.5 0.291931C12.3413 0.291931 12.1843 0.3232 12.0377 0.38395C11.8912 0.4447 11.7581 0.533739 11.646 0.645976L8.49997 3.79298L7.85397 3.14598C7.76009 3.05209 7.63275 2.99934 7.49997 2.99934C7.3672 2.99934 7.23986 3.05209 7.14597 3.14598C7.05209 3.23986 6.99934 3.3672 6.99934 3.49998C6.99934 3.63275 7.05209 3.76009 7.14597 3.85398L8.29297 4.99998L1.14597 12.146C1.09957 12.1925 1.06279 12.2477 1.03774 12.3084C1.01269 12.3692 0.999856 12.4343 0.999973 12.5V14.293L0.145973 15.146C0.052219 15.2399 -0.000398819 15.3671 -0.000305051 15.4998C-0.000211282 15.6325 0.0525864 15.7597 0.146473 15.8535C0.24036 15.9472 0.367645 15.9998 0.500327 15.9998C0.633009 15.9997 0.760219 15.9469 0.853973 15.853L1.70697 15H3.49997C3.56568 15.0001 3.63076 14.9873 3.6915 14.9622C3.75225 14.9372 3.80745 14.9004 3.85397 14.854L11 7.70698L12.146 8.85398C12.2399 8.94786 12.3672 9.00061 12.5 9.00061C12.6327 9.00061 12.7601 8.94786 12.854 8.85398C12.9479 8.76009 13.0006 8.63275 13.0006 8.49998C13.0006 8.3672 12.9479 8.23986 12.854 8.14598L12.207 7.49998L15.354 4.35398C15.4662 4.24188 15.5552 4.10875 15.616 3.96222C15.6767 3.81568 15.708 3.65861 15.708 3.49998C15.708 3.34135 15.6767 3.18427 15.616 3.03774C15.5552 2.8912 15.4662 2.75808 15.354 2.64598L13.354 0.645976ZM1.99997 12.707L8.99997 5.70698L10.293 6.99998L3.29297 14H1.99997V12.707Z"/></g><defs><clipPath id="clip0_104_1741"><rect width="16" height="16"/></clipPath></defs></svg>