<svg width="16" height="16" viewBox="0 0 16 16" xmlns="http://www.w3.org/2000/svg" fill='currentColor'><g clip-path="url(#clip0_104_1741)"><path d="M13.354 0.646037C13.2419 0.5338 13.1087 0.444761 12.9622 0.384011C12.8157 0.323261 12.6586 0.291992 12.5 0.291992C12.3413 0.291992 12.1843 0.323261 12.0377 0.384011C11.8912 0.444761 11.7581 0.5338 11.646 0.646037L8.49997 3.79304L7.85397 3.14604C7.76009 3.05215 7.63275 2.99941 7.49997 2.99941C7.3672 2.99941 7.23986 3.05215 7.14597 3.14604C7.05209 3.23992 6.99934 3.36726 6.99934 3.50004C6.99934 3.63281 7.05209 3.76015 7.14597 3.85404L8.29297 5.00004L1.14597 12.146C1.09957 12.1926 1.06279 12.2478 1.03774 12.3085C1.01269 12.3692 0.999856 12.4343 0.999973 12.5V14.293L0.145973 15.146C0.052219 15.2399 -0.000398819 15.3672 -0.000305051 15.4999C-0.000211282 15.6326 0.0525864 15.7598 0.146473 15.8535C0.24036 15.9473 0.367645 15.9999 0.500327 15.9998C0.633009 15.9997 0.760219 15.9469 0.853973 15.853L1.70697 15H3.49997C3.56568 15.0002 3.63076 14.9873 3.6915 14.9623C3.75225 14.9372 3.80745 14.9004 3.85397 14.854L11 7.70704L12.146 8.85404C12.2399 8.94792 12.3672 9.00067 12.5 9.00067C12.6327 9.00067 12.7601 8.94792 12.854 8.85404C12.9479 8.76015 13.0006 8.63281 13.0006 8.50004C13.0006 8.36726 12.9479 8.23992 12.854 8.14604L12.207 7.50004L15.354 4.35404C15.4662 4.24194 15.5552 4.10881 15.616 3.96228C15.6767 3.81574 15.708 3.65867 15.708 3.50004C15.708 3.34141 15.6767 3.18433 15.616 3.0378C15.5552 2.89126 15.4662 2.75814 15.354 2.64604L13.354 0.646037ZM1.99997 12.707L8.99997 5.70704L10.293 7.00004L3.29297 14H1.99997V12.707Z"/></g><defs><clipPath id="clip0_104_1741"><rect width="16" height="16"/></clipPath></defs></svg>