<svg width="16" height="16" viewBox="0 0 16 16" fill="none" xmlns="http://www.w3.org/2000/svg">
<g clip-path="url(#clip0_104_1746)">
<path d="M4 5.99999C4.53043 5.99999 5.03914 6.2107 5.41421 6.58577C5.78929 6.96084 6 7.46955 6 7.99999C6 8.53042 5.78929 9.03913 5.41421 9.4142C5.03914 9.78927 4.53043 9.99999 4 9.99999C3.46957 9.99999 2.96086 9.78927 2.58579 9.4142C2.21071 9.03913 2 8.53042 2 7.99999C2 7.46955 2.21071 6.96084 2.58579 6.58577C2.96086 6.2107 3.46957 5.99999 4 5.99999ZM6.625 6.54699C6.32392 6.00224 5.86086 5.56462 5.29998 5.29478C4.73911 5.02493 4.10819 4.93622 3.49464 5.04093C2.8811 5.14564 2.31532 5.43859 1.87569 5.87919C1.43606 6.31979 1.14436 6.88621 1.041 7.49999H0.5C0.367392 7.49999 0.240215 7.55266 0.146447 7.64643C0.0526784 7.7402 0 7.86738 0 7.99999C0 8.13259 0.0526784 8.25977 0.146447 8.35354C0.240215 8.44731 0.367392 8.49999 0.5 8.49999H1.041C1.16509 9.24291 1.56411 9.91197 2.15878 10.3743C2.75345 10.8365 3.50026 11.0582 4.25084 10.9952C5.00142 10.9322 5.70085 10.5892 6.21017 10.0343C6.7195 9.4794 7.00144 8.7532 7 7.99999C7 7.73477 7.10536 7.48042 7.29289 7.29288C7.48043 7.10534 7.73478 6.99999 8 6.99999C8.26522 6.99999 8.51957 7.10534 8.70711 7.29288C8.89464 7.48042 9 7.73477 9 7.99999C8.99856 8.7532 9.2805 9.4794 9.78983 10.0343C10.2991 10.5892 10.9986 10.9322 11.7492 10.9952C12.4997 11.0582 13.2465 10.8365 13.8412 10.3743C14.4359 9.91197 14.8349 9.24291 14.959 8.49999H15.5C15.6326 8.49999 15.7598 8.44731 15.8536 8.35354C15.9473 8.25977 16 8.13259 16 7.99999C16 7.86738 15.9473 7.7402 15.8536 7.64643C15.7598 7.55266 15.6326 7.49999 15.5 7.49999H14.959C14.8556 6.88621 14.5639 6.31979 14.1243 5.87919C13.6847 5.43859 13.1189 5.14564 12.5054 5.04093C11.8918 4.93622 11.2609 5.02493 10.7 5.29478C10.1391 5.56462 9.67608 6.00224 9.375 6.54699C9.00385 6.19495 8.51155 5.9991 8 5.99999C7.468 5.99999 6.984 6.20799 6.625 6.54699ZM14 7.99999C14 8.53042 13.7893 9.03913 13.4142 9.4142C13.0391 9.78927 12.5304 9.99999 12 9.99999C11.4696 9.99999 10.9609 9.78927 10.5858 9.4142C10.2107 9.03913 10 8.53042 10 7.99999C10 7.46955 10.2107 6.96084 10.5858 6.58577C10.9609 6.2107 11.4696 5.99999 12 5.99999C12.5304 5.99999 13.0391 6.2107 13.4142 6.58577C13.7893 6.96084 14 7.46955 14 7.99999Z" fill="black"/>
</g>
<defs>
<clipPath id="clip0_104_1746">
<rect width="16" height="16" fill="white"/>
</clipPath>
</defs>
</svg>
