<svg xmlns="http://www.w3.org/2000/svg" width="24" height="24" viewBox="0 0 24 24" fill='currentColor'><g clip-path="url(#a)"><path d="M21.97 13.52v-.04C23.21 12.38 24 10.78 24 9c0-3.31-2.69-6-6-6q-.39 0-.78.06a5.98 5.98 0 0 0-10.44 0Q6.39 3 6 3C2.69 3 0 5.69 0 9c0 1.78.79 3.38 2.02 4.48v.04A6 6 0 0 0 0 18c0 3.31 2.69 6 6 6 1.39 0 2.67-.48 3.69-1.28.74.18 1.51.28 2.31.28s1.57-.1 2.31-.28c1.02.8 2.3 1.28 3.69 1.28 3.31 0 6-2.69 6-6 0-1.78-.79-3.38-2.03-4.48M12 21c-4.41 0-8-3.59-8-8 0-3.72 2.56-6.85 6-7.74v.05c0 3.34 2.72 6.06 6.06 6.06 1.26 0 2.45-.39 3.45-1.09.31.86.49 1.77.49 2.72 0 4.41-3.59 8-8 8"/><path d="M9 15.25a1.25 1.25 0 1 0 0-2.5 1.25 1.25 0 0 0 0 2.5m6 0a1.25 1.25 0 1 0 0-2.5 1.25 1.25 0 0 0 0 2.5"/></g><defs><clipPath id="a"><path d="M0 0h24v24H0z"/></clipPath></defs></svg>