<svg xmlns="http://www.w3.org/2000/svg" width="24" height="24" viewBox="0 0 24 24" fill='currentColor'><path d="M9.055 14.195a1.25 1.25 0 1 0 0-2.5 1.25 1.25 0 0 0 0 2.5m8.5-4.25c.75 0 1.47-.09 2.17-.24.21.71.33 1.46.33 2.24 0 1.22-.28 2.37-.77 3.4l1.49 1.49a10 10 0 0 0 1.28-4.89c0-5.52-4.48-10-10-10-1.78 0-3.44.47-4.89 1.28l5.33 5.33c1.49.88 3.21 1.39 5.06 1.39"/><path d="m1.945 3.665 2.19 2.19a9.96 9.96 0 0 0-2.08 6.09c0 5.52 4.48 10 10 10 2.29 0 4.4-.78 6.09-2.08l2.19 2.19 1.41-1.41-18.38-18.39zm14.77 14.77a7.9 7.9 0 0 1-4.66 1.51c-4.41 0-8-3.59-8-8 0-.05.01-.1 0-.14a9.95 9.95 0 0 0 3.64-2.39z"/></svg>