<svg width="24" height="24" viewBox="0 0 24 24" xmlns="http://www.w3.org/2000/svg" fill='currentColor'><path d="M12 2C6.48 2 2 6.48 2 12C2 17.52 6.48 22 12 22C17.52 22 22 17.52 22 12C22 6.48 17.52 2 12 2ZM12 20C7.59 20 4 16.41 4 12C4 10.88 4.23 9.82 4.65 8.85C4.74 8.94 4.86 9 5 9C5.28 9 5.5 8.78 5.5 8.5C5.5 8.25 5.31 8.05 5.07 8.01C5.22 7.75 5.39 7.5 5.56 7.26C5.53 7.34 5.5 7.41 5.5 7.5C5.5 7.78 5.72 8 6 8C6.28 8 6.5 7.78 6.5 7.5C6.5 7.22 6.28 7 6 7C5.87 7 5.75 7.05 5.66 7.13C6.18 6.45 6.81 5.85 7.52 5.37C7.51 5.41 7.5 5.45 7.5 5.5C7.5 5.78 7.72 6 8 6C8.28 6 8.5 5.78 8.5 5.5C8.5 5.26 8.33 5.07 8.1 5.02C8.26 4.93 8.42 4.85 8.59 4.77C8.68 4.91 8.83 5 9 5C9.28 5 9.5 4.78 9.5 4.5C9.5 4.47 9.49 4.44 9.48 4.41C9.87 4.28 10.27 4.18 10.69 4.11C10.58 4.21 10.5 4.34 10.5 4.5C10.5 4.78 10.72 5 11 5C11.28 5 11.5 4.78 11.5 4.5C11.5 4.29 11.37 4.12 11.2 4.04C11.46 4.01 11.73 4 12 4C12.27 4 12.54 4.01 12.8 4.04C12.62 4.12 12.5 4.29 12.5 4.5C12.5 4.78 12.72 5 13 5C13.28 5 13.5 4.78 13.5 4.5C13.5 4.34 13.42 4.21 13.31 4.12C13.72 4.19 14.13 4.29 14.52 4.42C14.51 4.44 14.5 4.47 14.5 4.5C14.5 4.78 14.72 5 15 5C15.17 5 15.32 4.91 15.41 4.77C15.58 4.85 15.74 4.93 15.9 5.02C15.67 5.07 15.5 5.26 15.5 5.5C15.5 5.78 15.72 6 16 6C16.28 6 16.5 5.78 16.5 5.5C16.5 5.45 16.49 5.41 16.47 5.37C17.18 5.85 17.81 6.45 18.33 7.13C18.25 7.05 18.13 7 18 7C17.72 7 17.5 7.22 17.5 7.5C17.5 7.78 17.72 8 18 8C18.28 8 18.5 7.78 18.5 7.5C18.5 7.41 18.47 7.34 18.43 7.27C18.61 7.51 18.77 7.76 18.92 8.02C18.69 8.05 18.5 8.25 18.5 8.5C18.5 8.78 18.72 9 19 9C19.14 9 19.26 8.94 19.35 8.85C19.77 9.82 20 10.88 20 12C20 16.41 16.41 20 12 20Z"/><path d="M9 14.25C9.69036 14.25 10.25 13.6904 10.25 13C10.25 12.3096 9.69036 11.75 9 11.75C8.30964 11.75 7.75 12.3096 7.75 13C7.75 13.6904 8.30964 14.25 9 14.25Z"/><path d="M12 6C12.2761 6 12.5 5.77614 12.5 5.5C12.5 5.22386 12.2761 5 12 5C11.7239 5 11.5 5.22386 11.5 5.5C11.5 5.77614 11.7239 6 12 6Z"/><path d="M14 6C14.2761 6 14.5 5.77614 14.5 5.5C14.5 5.22386 14.2761 5 14 5C13.7239 5 13.5 5.22386 13.5 5.5C13.5 5.77614 13.7239 6 14 6Z"/><path d="M10 6C10.2761 6 10.5 5.77614 10.5 5.5C10.5 5.22386 10.2761 5 10 5C9.72386 5 9.5 5.22386 9.5 5.5C9.5 5.77614 9.72386 6 10 6Z"/><path d="M17 7C17.2761 7 17.5 6.77614 17.5 6.5C17.5 6.22386 17.2761 6 17 6C16.7239 6 16.5 6.22386 16.5 6.5C16.5 6.77614 16.7239 7 17 7Z"/><path d="M9 7C9.27614 7 9.5 6.77614 9.5 6.5C9.5 6.22386 9.27614 6 9 6C8.72386 6 8.5 6.22386 8.5 6.5C8.5 6.77614 8.72386 7 9 7Z"/><path d="M7 7C7.27614 7 7.5 6.77614 7.5 6.5C7.5 6.22386 7.27614 6 7 6C6.72386 6 6.5 6.22386 6.5 6.5C6.5 6.77614 6.72386 7 7 7Z"/><path d="M11 7C11.2761 7 11.5 6.77614 11.5 6.5C11.5 6.22386 11.2761 6 11 6C10.7239 6 10.5 6.22386 10.5 6.5C10.5 6.77614 10.7239 7 11 7Z"/><path d="M13 7C13.2761 7 13.5 6.77614 13.5 6.5C13.5 6.22386 13.2761 6 13 6C12.7239 6 12.5 6.22386 12.5 6.5C12.5 6.77614 12.7239 7 13 7Z"/><path d="M15 7C15.2761 7 15.5 6.77614 15.5 6.5C15.5 6.22386 15.2761 6 15 6C14.7239 6 14.5 6.22386 14.5 6.5C14.5 6.77614 14.7239 7 15 7Z"/><path d="M12 8C12.2761 8 12.5 7.77614 12.5 7.5C12.5 7.22386 12.2761 7 12 7C11.7239 7 11.5 7.22386 11.5 7.5C11.5 7.77614 11.7239 8 12 8Z"/><path d="M14 8C14.2761 8 14.5 7.77614 14.5 7.5C14.5 7.22386 14.2761 7 14 7C13.7239 7 13.5 7.22386 13.5 7.5C13.5 7.77614 13.7239 8 14 8Z"/><path d="M16 8C16.2761 8 16.5 7.77614 16.5 7.5C16.5 7.22386 16.2761 7 16 7C15.7239 7 15.5 7.22386 15.5 7.5C15.5 7.77614 15.7239 8 16 8Z"/><path d="M10 8C10.2761 8 10.5 7.77614 10.5 7.5C10.5 7.22386 10.2761 7 10 7C9.72386 7 9.5 7.22386 9.5 7.5C9.5 7.77614 9.72386 8 10 8Z"/><path d="M8 8C8.27614 8 8.5 7.77614 8.5 7.5C8.5 7.22386 8.27614 7 8 7C7.72386 7 7.5 7.22386 7.5 7.5C7.5 7.77614 7.72386 8 8 8Z"/><path d="M9 9C9.27614 9 9.5 8.77614 9.5 8.5C9.5 8.22386 9.27614 8 9 8C8.72386 8 8.5 8.22386 8.5 8.5C8.5 8.77614 8.72386 9 9 9Z"/><path d="M7 9C7.27614 9 7.5 8.77614 7.5 8.5C7.5 8.22386 7.27614 8 7 8C6.72386 8 6.5 8.22386 6.5 8.5C6.5 8.77614 6.72386 9 7 9Z"/><path d="M11 9C11.2761 9 11.5 8.77614 11.5 8.5C11.5 8.22386 11.2761 8 11 8C10.7239 8 10.5 8.22386 10.5 8.5C10.5 8.77614 10.7239 9 11 9Z"/><path d="M13 9C13.2761 9 13.5 8.77614 13.5 8.5C13.5 8.22386 13.2761 8 13 8C12.7239 8 12.5 8.22386 12.5 8.5C12.5 8.77614 12.7239 9 13 9Z"/><path d="M15 9C15.2761 9 15.5 8.77614 15.5 8.5C15.5 8.22386 15.2761 8 15 8C14.7239 8 14.5 8.22386 14.5 8.5C14.5 8.77614 14.7239 9 15 9Z"/><path d="M17 9C17.2761 9 17.5 8.77614 17.5 8.5C17.5 8.22386 17.2761 8 17 8C16.7239 8 16.5 8.22386 16.5 8.5C16.5 8.77614 16.7239 9 17 9Z"/><path d="M15 14.25C15.6904 14.25 16.25 13.6904 16.25 13C16.25 12.3096 15.6904 11.75 15 11.75C14.3096 11.75 13.75 12.3096 13.75 13C13.75 13.6904 14.3096 14.25 15 14.25Z"/></svg>