<svg width="24" height="24" viewBox="0 0 24 24" xmlns="http://www.w3.org/2000/svg" fill='currentColor'><path d="M9.05495 14.1951C9.7453 14.1951 10.3049 13.6354 10.3049 12.9451C10.3049 12.2547 9.7453 11.6951 9.05495 11.6951C8.36459 11.6951 7.80495 12.2547 7.80495 12.9451C7.80495 13.6354 8.36459 14.1951 9.05495 14.1951Z"/><path d="M17.5549 9.94507C18.3049 9.94507 19.0249 9.85507 19.7249 9.70507C19.9349 10.4151 20.0549 11.1651 20.0549 11.9451C20.0549 13.1651 19.7749 14.3151 19.2849 15.3451L20.7749 16.8351C21.5849 15.3851 22.0549 13.7251 22.0549 11.9451C22.0549 6.42507 17.5749 1.94507 12.0549 1.94507C10.2749 1.94507 8.61495 2.41507 7.16495 3.22507L12.4949 8.55507C13.9849 9.43507 15.7049 9.94507 17.5549 9.94507Z"/><path d="M1.94495 3.66507L4.13495 5.85507C2.83495 7.54507 2.05495 9.65507 2.05495 11.9451C2.05495 17.4651 6.53495 21.9451 12.0549 21.9451C14.3449 21.9451 16.4549 21.1651 18.1449 19.8651L20.3349 22.0551L21.7449 20.6451L3.36495 2.25507L1.94495 3.66507ZM16.7149 18.4351C15.4049 19.3851 13.7949 19.9451 12.0549 19.9451C7.64495 19.9451 4.05495 16.3551 4.05495 11.9451C4.05495 11.8951 4.06495 11.8451 4.05495 11.8051C5.44495 11.2851 6.68495 10.4551 7.69495 9.41507L16.7149 18.4351Z"/></svg>