<svg xmlns="http://www.w3.org/2000/svg" width="24" height="24" viewBox="0 0 24 24" fill='currentColor'><path d="M9.004 13.25a1.25 1.25 0 1 0 0-2.5 1.25 1.25 0 0 0 0 2.5m6 0a1.25 1.25 0 1 0 0-2.5 1.25 1.25 0 0 0 0 2.5"/><path d="M22.914 10.96C22.394 5.32 17.664 1 12.004 1s-10.39 4.32-10.91 9.96l-.9 9.86c-.1 1.17.82 2.18 2 2.18h19.62c1.18 0 2.1-1.01 1.99-2.18zM4.544 8.13c.87.55 1.89.87 2.96.87 1.86 0 3.5-.93 4.5-2.35 1 1.42 2.64 2.35 4.5 2.35 1.07 0 2.09-.32 2.96-.87.34.89.54 1.86.54 2.87 0 4.41-3.59 8-8 8s-8-3.59-8-8c0-1.01.2-1.98.54-2.87"/></svg>