<svg width="16" height="16" viewBox="0 0 16 16" fill="none" xmlns="http://www.w3.org/2000/svg">
<g clip-path="url(#clip0_104_1757)">
<path d="M10 3.00001C10 4.31301 9.696 5.50801 9.2 6.40001C8.98999 6.24182 8.75072 6.12679 8.49601 6.06157C8.2413 5.99635 7.9762 5.98222 7.716 6.02001C7.436 5.03801 6.806 3.98001 5.878 3.05101C5.72045 2.89319 5.55665 2.74174 5.387 2.59701C6.20156 2.20273 7.09503 1.99859 8 2.00001C8.691 2.00001 9.355 2.11701 9.973 2.33201C9.991 2.55101 10 2.77401 10 3.00001ZM10 8.00001C10 8.07301 9.996 8.14601 9.988 8.21701C11.006 8.19801 12.188 7.86401 13.319 7.21101C13.5138 7.09837 13.7039 6.97793 13.889 6.85001C13.5845 5.2912 12.6748 3.91654 11.359 3.02701C11.3184 3.24203 11.2701 3.4555 11.214 3.66701C10.874 4.93601 10.27 6.01301 9.558 6.74601C9.835 7.08901 10 7.52601 10 8.00001ZM9.863 8.72801C9.76651 8.97424 9.62231 9.19898 9.43868 9.3893C9.25505 9.57962 9.03562 9.73177 8.793 9.83701C9.318 10.707 10.198 11.562 11.328 12.214C11.528 12.33 11.73 12.436 11.933 12.531C12.5291 12.0148 13.0174 11.3858 13.3697 10.6803C13.722 9.97485 13.9315 9.2067 13.986 8.42001C13.778 8.49301 13.565 8.56001 13.345 8.61901C12.081 8.95801 10.852 8.97501 9.863 8.72901V8.72801ZM8 10C7.55 10 7.134 9.85101 6.8 9.60001C6.306 10.49 6.004 11.682 6.004 12.991C6.004 13.221 6.014 13.448 6.031 13.669C6.66419 13.8887 7.32977 14.0006 8 14C8.94 14 9.83 13.784 10.623 13.398C10.4512 13.2521 10.2854 13.0993 10.126 12.94C9.201 12.014 8.571 10.959 8.29 9.98001C8.196 9.99301 8.099 10 8 10ZM6 8.00001C6 7.92001 6.005 7.84001 6.014 7.76101C4.994 7.77801 3.809 8.11201 2.674 8.76801C2.47994 8.88002 2.29045 8.99978 2.106 9.12701C2.25416 9.90137 2.5534 10.639 2.98665 11.2977C3.41989 11.9564 3.97864 12.5233 4.631 12.966C4.6716 12.7465 4.72098 12.5286 4.779 12.313C5.119 11.046 5.719 9.97101 6.429 9.23801C6.15022 8.88567 5.999 8.4493 6 8.00001ZM2.653 7.36801C3.92 7.02801 5.151 7.01301 6.141 7.26101C6.337 6.76701 6.724 6.37101 7.211 6.16101C6.687 5.28701 5.805 4.42801 4.67 3.77301C4.47625 3.6611 4.27809 3.55702 4.076 3.46101C3.47922 3.97608 2.99003 4.60395 2.63652 5.30857C2.28301 6.01319 2.07214 6.78068 2.016 7.56701C2.222 7.49301 2.434 7.42701 2.653 7.36801ZM8 9.00001C8.26522 9.00001 8.51957 8.89465 8.70711 8.70711C8.89464 8.51958 9 8.26522 9 8.00001C9 7.73479 8.89464 7.48044 8.70711 7.2929C8.51957 7.10536 8.26522 7.00001 8 7.00001C7.73478 7.00001 7.48043 7.10536 7.29289 7.2929C7.10536 7.48044 7 7.73479 7 8.00001C7 8.26522 7.10536 8.51958 7.29289 8.70711C7.48043 8.89465 7.73478 9.00001 8 9.00001Z" fill="black"/>
<path d="M8 15C6.14348 15 4.36301 14.2625 3.05025 12.9497C1.7375 11.637 1 9.85652 1 8C1 6.14348 1.7375 4.36301 3.05025 3.05025C4.36301 1.7375 6.14348 1 8 1C9.85652 1 11.637 1.7375 12.9497 3.05025C14.2625 4.36301 15 6.14348 15 8C15 9.85652 14.2625 11.637 12.9497 12.9497C11.637 14.2625 9.85652 15 8 15ZM8 16C10.1217 16 12.1566 15.1571 13.6569 13.6569C15.1571 12.1566 16 10.1217 16 8C16 5.87827 15.1571 3.84344 13.6569 2.34315C12.1566 0.842855 10.1217 0 8 0C5.87827 0 3.84344 0.842855 2.34315 2.34315C0.842855 3.84344 0 5.87827 0 8C0 10.1217 0.842855 12.1566 2.34315 13.6569C3.84344 15.1571 5.87827 16 8 16Z" fill="black"/>
</g>
<defs>
<clipPath id="clip0_104_1757">
<rect width="16" height="16" fill="white"/>
</clipPath>
</defs>
</svg>
