<svg width="24" height="24" viewBox="0 0 24 24" xmlns="http://www.w3.org/2000/svg" fill='currentColor'><path d="M16.5 2.82495C14.76 2.82495 13.09 3.63495 12 4.91495C10.91 3.63495 9.24 2.82495 7.5 2.82495C4.42 2.82495 2 5.24495 2 8.32495C2 12.105 5.4 15.185 10.55 19.865L12 21.175L13.45 19.855C18.6 15.185 22 12.105 22 8.32495C22 5.24495 19.58 2.82495 16.5 2.82495ZM12.1 18.375L12 18.475L11.9 18.375C7.14 14.065 4 11.215 4 8.32495C4 6.32495 5.5 4.82495 7.5 4.82495C9.04 4.82495 10.54 5.81495 11.07 7.18495H12.94C13.46 5.81495 14.96 4.82495 16.5 4.82495C18.5 4.82495 20 6.32495 20 8.32495C20 11.215 16.86 14.065 12.1 18.375Z"/></svg>