<svg width="16" height="16" viewBox="0 0 16 16" xmlns="http://www.w3.org/2000/svg" fill='currentColor'><g clip-path="url(#clip0_104_2033)"><path d="M12 0H4C3.46957 0 2.96086 0.210714 2.58579 0.585786C2.21071 0.960859 2 1.46957 2 2V14C2 14.5304 2.21071 15.0391 2.58579 15.4142C2.96086 15.7893 3.46957 16 4 16H12C12.5304 16 13.0391 15.7893 13.4142 15.4142C13.7893 15.0391 14 14.5304 14 14V2C14 1.46957 13.7893 0.960859 13.4142 0.585786C13.0391 0.210714 12.5304 0 12 0V0ZM6 5.883C5.99998 5.79453 6.02343 5.70765 6.06797 5.63121C6.1125 5.55477 6.17651 5.49151 6.25348 5.44789C6.33044 5.40427 6.4176 5.38186 6.50606 5.38293C6.59452 5.384 6.68111 5.40853 6.757 5.454L10.285 7.571C10.3592 7.61539 10.4205 7.67825 10.4632 7.75344C10.5058 7.82862 10.5282 7.91357 10.5282 8C10.5282 8.08643 10.5058 8.17138 10.4632 8.24656C10.4205 8.32175 10.3592 8.38461 10.285 8.429L6.757 10.546C6.68104 10.5915 6.59436 10.616 6.50581 10.6171C6.41727 10.6181 6.33004 10.5956 6.25304 10.5519C6.17605 10.5081 6.11205 10.4447 6.06759 10.3681C6.02313 10.2916 5.9998 10.2046 6 10.116V5.884V5.883Z"/></g><defs><clipPath id="clip0_104_2033"><rect width="16" height="16"/></clipPath></defs></svg>