<svg width="16" height="16" viewBox="0 0 16 16" fill="none" xmlns="http://www.w3.org/2000/svg">
<path d="M8.5 6C8.5 5.86739 8.44732 5.74021 8.35355 5.64645C8.25979 5.55268 8.13261 5.5 8 5.5C7.86739 5.5 7.74021 5.55268 7.64645 5.64645C7.55268 5.74021 7.5 5.86739 7.5 6H5.5C5.10218 6 4.72064 6.15804 4.43934 6.43934C4.15804 6.72064 4 7.10218 4 7.5V9.5C4 9.89782 4.15804 10.2794 4.43934 10.5607C4.72064 10.842 5.10218 11 5.5 11H5.973L5.526 12.342C5.50233 12.405 5.49159 12.472 5.49445 12.5392C5.49731 12.6064 5.51369 12.6724 5.54262 12.7331C5.57156 12.7938 5.61244 12.8481 5.66283 12.8926C5.71322 12.9371 5.77208 12.9711 5.83589 12.9923C5.89969 13.0136 5.96713 13.0218 6.03418 13.0164C6.10122 13.011 6.16648 12.9921 6.22605 12.9609C6.28563 12.9297 6.33829 12.8868 6.3809 12.8347C6.4235 12.7827 6.45517 12.7226 6.474 12.658L7.027 11H7.5V12C7.5 12.1326 7.55268 12.2598 7.64645 12.3536C7.74021 12.4473 7.86739 12.5 8 12.5C8.13261 12.5 8.25979 12.4473 8.35355 12.3536C8.44732 12.2598 8.5 12.1326 8.5 12V11H8.973L9.526 12.658C9.54483 12.7226 9.5765 12.7827 9.6191 12.8347C9.66171 12.8868 9.71437 12.9297 9.77395 12.9609C9.83352 12.9921 9.89878 13.011 9.96582 13.0164C10.0329 13.0218 10.1003 13.0136 10.1641 12.9923C10.2279 12.9711 10.2868 12.9371 10.3372 12.8926C10.3876 12.8481 10.4284 12.7938 10.4574 12.7331C10.4863 12.6724 10.5027 12.6064 10.5055 12.5392C10.5084 12.472 10.4977 12.405 10.474 12.342L10.027 11H10.5C10.8978 11 11.2794 10.842 11.5607 10.5607C11.842 10.2794 12 9.89782 12 9.5V7.5C12 7.10218 11.842 6.72064 11.5607 6.43934C11.2794 6.15804 10.8978 6 10.5 6H8.5ZM5 7.5C5 7.36739 5.05268 7.24021 5.14645 7.14645C5.24021 7.05268 5.36739 7 5.5 7H10.5C10.6326 7 10.7598 7.05268 10.8536 7.14645C10.9473 7.24021 11 7.36739 11 7.5V9.5C11 9.63261 10.9473 9.75979 10.8536 9.85355C10.7598 9.94732 10.6326 10 10.5 10H5.5C5.36739 10 5.24021 9.94732 5.14645 9.85355C5.05268 9.75979 5 9.63261 5 9.5V7.5Z" fill="black"/>
<path d="M14 14V4.5L9.5 0H4C3.46957 0 2.96086 0.210714 2.58579 0.585786C2.21071 0.960859 2 1.46957 2 2V14C2 14.5304 2.21071 15.0391 2.58579 15.4142C2.96086 15.7893 3.46957 16 4 16H12C12.5304 16 13.0391 15.7893 13.4142 15.4142C13.7893 15.0391 14 14.5304 14 14ZM9.5 3C9.5 3.39782 9.65804 3.77936 9.93934 4.06066C10.2206 4.34196 10.6022 4.5 11 4.5H13V14C13 14.2652 12.8946 14.5196 12.7071 14.7071C12.5196 14.8946 12.2652 15 12 15H4C3.73478 15 3.48043 14.8946 3.29289 14.7071C3.10536 14.5196 3 14.2652 3 14V2C3 1.73478 3.10536 1.48043 3.29289 1.29289C3.48043 1.10536 3.73478 1 4 1H9.5V3Z" fill="black"/>
</svg>
