<svg width="16" height="16" viewBox="0 0 16 16" fill="none" xmlns="http://www.w3.org/2000/svg">
<g clip-path="url(#clip0_104_1783)">
<path d="M0 10.5C0 10.3674 0.0526784 10.2402 0.146447 10.1464C0.240215 10.0527 0.367392 10 0.5 10H15.5C15.6326 10 15.7598 10.0527 15.8536 10.1464C15.9473 10.2402 16 10.3674 16 10.5C16 10.6326 15.9473 10.7598 15.8536 10.8536C15.7598 10.9473 15.6326 11 15.5 11H0.5C0.367392 11 0.240215 10.9473 0.146447 10.8536C0.0526784 10.7598 0 10.6326 0 10.5ZM12 0H4C3.46957 0 2.96086 0.210714 2.58579 0.585786C2.21071 0.960859 2 1.46957 2 2V9H3V2C3 1.73478 3.10536 1.48043 3.29289 1.29289C3.48043 1.10536 3.73478 1 4 1H12C12.2652 1 12.5196 1.10536 12.7071 1.29289C12.8946 1.48043 13 1.73478 13 2V9H14V2C14 1.46957 13.7893 0.960859 13.4142 0.585786C13.0391 0.210714 12.5304 0 12 0V0ZM14 12H13V14C13 14.2652 12.8946 14.5196 12.7071 14.7071C12.5196 14.8946 12.2652 15 12 15H4C3.73478 15 3.48043 14.8946 3.29289 14.7071C3.10536 14.5196 3 14.2652 3 14V12H2V14C2 14.5304 2.21071 15.0391 2.58579 15.4142C2.96086 15.7893 3.46957 16 4 16H12C12.5304 16 13.0391 15.7893 13.4142 15.4142C13.7893 15.0391 14 14.5304 14 14V12Z" fill="black"/>
</g>
<defs>
<clipPath id="clip0_104_1783">
<rect width="16" height="16" fill="white"/>
</clipPath>
</defs>
</svg>
