<svg width="16" height="16" viewBox="0 0 16 16" fill="none" xmlns="http://www.w3.org/2000/svg">
<g clip-path="url(#clip0_104_1981)">
<path d="M10.943 4H5.057L5 6H5.5C5.68 4.904 5.856 4.808 7.194 4.765L7.487 4.755V10.845C7.487 11.315 7.387 11.427 6.589 11.5V12H9.41V11.5C8.607 11.427 8.507 11.316 8.507 10.846V4.755L8.805 4.765C10.143 4.808 10.319 4.905 10.499 6H10.999L10.942 4H10.943Z" fill="black"/>
<path d="M4 0C3.46957 0 2.96086 0.210714 2.58579 0.585786C2.21071 0.960859 2 1.46957 2 2V14C2 14.5304 2.21071 15.0391 2.58579 15.4142C2.96086 15.7893 3.46957 16 4 16H12C12.5304 16 13.0391 15.7893 13.4142 15.4142C13.7893 15.0391 14 14.5304 14 14V2C14 1.46957 13.7893 0.960859 13.4142 0.585786C13.0391 0.210714 12.5304 0 12 0L4 0ZM4 1H12C12.2652 1 12.5196 1.10536 12.7071 1.29289C12.8946 1.48043 13 1.73478 13 2V14C13 14.2652 12.8946 14.5196 12.7071 14.7071C12.5196 14.8946 12.2652 15 12 15H4C3.73478 15 3.48043 14.8946 3.29289 14.7071C3.10536 14.5196 3 14.2652 3 14V2C3 1.73478 3.10536 1.48043 3.29289 1.29289C3.48043 1.10536 3.73478 1 4 1Z" fill="black"/>
</g>
<defs>
<clipPath id="clip0_104_1981">
<rect width="16" height="16" fill="white"/>
</clipPath>
</defs>
</svg>
