<svg width="16" height="16" viewBox="0 0 16 16" xmlns="http://www.w3.org/2000/svg" fill='currentColor'><path d="M5 6C4.87815 6.00003 4.76051 6.04456 4.66918 6.12521C4.57784 6.20587 4.51911 6.31709 4.504 6.438L4.004 10.438C3.99521 10.5083 4.00147 10.5797 4.02238 10.6475C4.04328 10.7152 4.07835 10.7777 4.12526 10.8309C4.17216 10.884 4.22983 10.9266 4.29444 10.9557C4.35904 10.9849 4.42911 11 4.5 11H7.5V13.016C6.637 13.071 6 13.267 6 13.5C6 13.776 6.895 14 8 14C9.105 14 10 13.776 10 13.5C10 13.267 9.363 13.071 8.5 13.016V11H11.5C11.5709 11 11.6409 10.9849 11.7056 10.9557C11.7702 10.9266 11.8278 10.884 11.8747 10.8309C11.9216 10.7777 11.9567 10.7152 11.9776 10.6475C11.9985 10.5797 12.0048 10.5083 11.996 10.438L11.496 6.438C11.4809 6.31709 11.4221 6.20587 11.3308 6.12521C11.2395 6.04456 11.1218 6.00003 11 6H5ZM7 9.78V7.22C7 7.124 7.106 7.064 7.19 7.114L9.32 8.393C9.33842 8.40413 9.35366 8.41982 9.36424 8.43857C9.37482 8.45732 9.38037 8.47848 9.38037 8.5C9.38037 8.52152 9.37482 8.54268 9.36424 8.56143C9.35366 8.58018 9.33842 8.59587 9.32 8.607L7.19 9.887C7.17088 9.89864 7.14899 9.90494 7.12661 9.90523C7.10423 9.90552 7.08219 9.8998 7.06277 9.88867C7.04336 9.87753 7.02729 9.86138 7.01625 9.84192C7.00521 9.82245 6.99959 9.80038 7 9.778V9.78Z"/><path d="M14 14V4.5L9.5 0H4C3.46957 0 2.96086 0.210714 2.58579 0.585786C2.21071 0.960859 2 1.46957 2 2V14C2 14.5304 2.21071 15.0391 2.58579 15.4142C2.96086 15.7893 3.46957 16 4 16H12C12.5304 16 13.0391 15.7893 13.4142 15.4142C13.7893 15.0391 14 14.5304 14 14ZM9.5 3C9.5 3.39782 9.65804 3.77936 9.93934 4.06066C10.2206 4.34196 10.6022 4.5 11 4.5H13V14C13 14.2652 12.8946 14.5196 12.7071 14.7071C12.5196 14.8946 12.2652 15 12 15H4C3.73478 15 3.48043 14.8946 3.29289 14.7071C3.10536 14.5196 3 14.2652 3 14V2C3 1.73478 3.10536 1.48043 3.29289 1.29289C3.48043 1.10536 3.73478 1 4 1H9.5V3Z"/></svg>