<svg width="16" height="16" viewBox="0 0 16 16" xmlns="http://www.w3.org/2000/svg" fill='currentColor'><g clip-path="url(#clip0_104_2019)"><path d="M4 0C3.46957 0 2.96086 0.210714 2.58579 0.585786C2.21071 0.960859 2 1.46957 2 2V14C2 14.5304 2.21071 15.0391 2.58579 15.4142C2.96086 15.7893 3.46957 16 4 16H12C12.5304 16 13.0391 15.7893 13.4142 15.4142C13.7893 15.0391 14 14.5304 14 14V2C14 1.46957 13.7893 0.960859 13.4142 0.585786C13.0391 0.210714 12.5304 0 12 0L4 0ZM4 1H12C12.2652 1 12.5196 1.10536 12.7071 1.29289C12.8946 1.48043 13 1.73478 13 2V14C13 14.2652 12.8946 14.5196 12.7071 14.7071C12.5196 14.8946 12.2652 15 12 15H4C3.73478 15 3.48043 14.8946 3.29289 14.7071C3.10536 14.5196 3 14.2652 3 14V2C3 1.73478 3.10536 1.48043 3.29289 1.29289C3.48043 1.10536 3.73478 1 4 1Z"/><path d="M4.603 12.087C4.40809 12.0091 4.25106 11.8585 4.165 11.667C3.97 11.279 4.035 10.891 4.245 10.565C4.443 10.258 4.771 9.99703 5.142 9.77803C5.61194 9.5115 6.10869 9.29531 6.624 9.13303C7.02418 8.41361 7.37888 7.66982 7.686 6.90603C7.50238 6.4888 7.35841 6.05522 7.256 5.61103C7.17 5.21103 7.137 4.81503 7.21 4.47503C7.285 4.12103 7.484 3.80303 7.86 3.65203C8.052 3.57503 8.26 3.53203 8.462 3.57503C8.56361 3.59666 8.65914 3.64064 8.74164 3.70377C8.82414 3.7669 8.89156 3.84761 8.939 3.94003C9.027 4.10403 9.059 4.29603 9.066 4.47803C9.073 4.66503 9.054 4.87303 9.019 5.09203C8.935 5.60203 8.749 6.22603 8.499 6.88603C8.77489 7.47605 9.10286 8.04028 9.479 8.57203C9.9241 8.53687 10.3718 8.55365 10.813 8.62203C11.177 8.68703 11.547 8.81703 11.773 9.08703C11.893 9.23103 11.966 9.40703 11.973 9.60503C11.98 9.79703 11.926 9.98703 11.835 10.168C11.7562 10.3358 11.634 10.4794 11.481 10.584C11.3298 10.6827 11.1513 10.731 10.971 10.722C10.64 10.708 10.317 10.526 10.038 10.305C9.69877 10.0245 9.39307 9.70572 9.127 9.35503C8.45075 9.43173 7.78252 9.56758 7.13 9.76103C6.83085 10.291 6.4894 10.796 6.109 11.271C5.819 11.621 5.501 11.926 5.183 12.058C5.00029 12.1407 4.79305 12.151 4.603 12.087ZM5.982 10.186C5.816 10.262 5.662 10.342 5.523 10.424C5.195 10.618 4.982 10.807 4.876 10.971C4.782 11.116 4.78 11.221 4.836 11.332C4.846 11.354 4.856 11.368 4.862 11.376C4.87393 11.3728 4.88562 11.3688 4.897 11.364C5.034 11.308 5.252 11.129 5.532 10.792C5.69125 10.5971 5.84141 10.3948 5.982 10.186ZM7.622 8.85603C7.95591 8.77803 8.29286 8.71364 8.632 8.66303C8.44984 8.38444 8.27968 8.09817 8.122 7.80503C7.96518 8.15963 7.79845 8.50977 7.622 8.85503V8.85603ZM10.068 9.30603C10.218 9.46803 10.364 9.60603 10.503 9.71603C10.743 9.90603 10.91 9.96903 11.001 9.97203C11.0254 9.97522 11.0501 9.96992 11.071 9.95703C11.1126 9.92418 11.145 9.88111 11.165 9.83203C11.2006 9.77112 11.2208 9.70249 11.224 9.63203C11.2234 9.60854 11.2142 9.58609 11.198 9.56903C11.146 9.50703 10.998 9.41703 10.68 9.36003C10.4777 9.32622 10.2731 9.3085 10.068 9.30703V9.30603ZM8.078 5.80003C8.16216 5.52855 8.22897 5.25199 8.278 4.97203C8.309 4.78403 8.321 4.62903 8.316 4.50703C8.31628 4.43972 8.30547 4.37283 8.284 4.30903C8.23398 4.31522 8.18513 4.3287 8.139 4.34903C8.052 4.38403 7.981 4.45503 7.943 4.63203C7.903 4.82403 7.913 5.10103 7.989 5.45403C8.013 5.56503 8.043 5.68103 8.079 5.80003H8.078Z"/></g><defs><clipPath id="clip0_104_2019"><rect width="16" height="16"/></clipPath></defs></svg>