<svg width="16" height="16" viewBox="0 0 16 16" fill="none" xmlns="http://www.w3.org/2000/svg">
<g clip-path="url(#clip0_104_1812)">
<path d="M9.293 0H4C3.46957 0 2.96086 0.210714 2.58579 0.585786C2.21071 0.960859 2 1.46957 2 2V14C2 14.5304 2.21071 15.0391 2.58579 15.4142C2.96086 15.7893 3.46957 16 4 16H12C12.5304 16 13.0391 15.7893 13.4142 15.4142C13.7893 15.0391 14 14.5304 14 14V4.707C13.9999 4.4418 13.8945 4.18749 13.707 4L10 0.293C9.81251 0.105451 9.5582 5.66374e-05 9.293 0V0ZM9.5 3.5V1.5L12.5 4.5H10.5C10.2348 4.5 9.98043 4.39464 9.79289 4.20711C9.60536 4.01957 9.5 3.76522 9.5 3.5ZM6.354 9.854C6.30751 9.90049 6.25232 9.93736 6.19158 9.96252C6.13084 9.98768 6.06574 10.0006 6 10.0006C5.93426 10.0006 5.86916 9.98768 5.80842 9.96252C5.74768 9.93736 5.69249 9.90049 5.646 9.854C5.59951 9.80751 5.56264 9.75232 5.53748 9.69158C5.51232 9.63084 5.49937 9.56574 5.49937 9.5C5.49937 9.43426 5.51232 9.36916 5.53748 9.30842C5.56264 9.24768 5.59951 9.19249 5.646 9.146L7.646 7.146C7.69245 7.09944 7.74762 7.06249 7.80837 7.03729C7.86911 7.01208 7.93423 6.99911 8 6.99911C8.06577 6.99911 8.13089 7.01208 8.19163 7.03729C8.25238 7.06249 8.30755 7.09944 8.354 7.146L10.354 9.146C10.4005 9.19249 10.4374 9.24768 10.4625 9.30842C10.4877 9.36916 10.5006 9.43426 10.5006 9.5C10.5006 9.56574 10.4877 9.63084 10.4625 9.69158C10.4374 9.75232 10.4005 9.80751 10.354 9.854C10.3075 9.90049 10.2523 9.93736 10.1916 9.96252C10.1308 9.98768 10.0657 10.0006 10 10.0006C9.93426 10.0006 9.86916 9.98768 9.80842 9.96252C9.74768 9.93736 9.69249 9.90049 9.646 9.854L8.5 8.707V12.5C8.5 12.6326 8.44732 12.7598 8.35355 12.8536C8.25979 12.9473 8.13261 13 8 13C7.86739 13 7.74021 12.9473 7.64645 12.8536C7.55268 12.7598 7.5 12.6326 7.5 12.5V8.707L6.354 9.854Z" fill="black"/>
</g>
<defs>
<clipPath id="clip0_104_1812">
<rect width="16" height="16" fill="white"/>
</clipPath>
</defs>
</svg>
