<svg width="16" height="16" viewBox="0 0 16 16" fill="none" xmlns="http://www.w3.org/2000/svg">
<g clip-path="url(#clip0_104_1767)">
<path d="M8.00001 11C8.13261 11 8.25979 10.9473 8.35356 10.8535C8.44733 10.7598 8.50001 10.6326 8.50001 10.5V6.70698L9.64601 7.85398C9.73989 7.94786 9.86723 8.00061 10 8.00061C10.1328 8.00061 10.2601 7.94786 10.354 7.85398C10.4479 7.76009 10.5006 7.63275 10.5006 7.49998C10.5006 7.3672 10.4479 7.23986 10.354 7.14598L8.35401 5.14598C8.30756 5.09941 8.25238 5.06247 8.19164 5.03727C8.13089 5.01206 8.06577 4.99908 8.00001 4.99908C7.93424 4.99908 7.86912 5.01206 7.80837 5.03727C7.74763 5.06247 7.69245 5.09941 7.64601 5.14598L5.64601 7.14598C5.55212 7.23986 5.49937 7.3672 5.49937 7.49998C5.49937 7.63275 5.55212 7.76009 5.64601 7.85398C5.73989 7.94786 5.86723 8.00061 6.00001 8.00061C6.13278 8.00061 6.26012 7.94786 6.35401 7.85398L7.50001 6.70698V10.5C7.50001 10.6326 7.55268 10.7598 7.64645 10.8535C7.74022 10.9473 7.8674 11 8.00001 11Z" fill="black"/>
<path d="M4 0C3.46957 0 2.96086 0.210714 2.58579 0.585786C2.21071 0.960859 2 1.46957 2 2V14C2 14.5304 2.21071 15.0391 2.58579 15.4142C2.96086 15.7893 3.46957 16 4 16H12C12.5304 16 13.0391 15.7893 13.4142 15.4142C13.7893 15.0391 14 14.5304 14 14V2C14 1.46957 13.7893 0.960859 13.4142 0.585786C13.0391 0.210714 12.5304 0 12 0L4 0ZM4 1H12C12.2652 1 12.5196 1.10536 12.7071 1.29289C12.8946 1.48043 13 1.73478 13 2V14C13 14.2652 12.8946 14.5196 12.7071 14.7071C12.5196 14.8946 12.2652 15 12 15H4C3.73478 15 3.48043 14.8946 3.29289 14.7071C3.10536 14.5196 3 14.2652 3 14V2C3 1.73478 3.10536 1.48043 3.29289 1.29289C3.48043 1.10536 3.73478 1 4 1Z" fill="black"/>
</g>
<defs>
<clipPath id="clip0_104_1767">
<rect width="16" height="16" fill="white"/>
</clipPath>
</defs>
</svg>
