<svg width="16" height="16" viewBox="0 0 16 16" xmlns="http://www.w3.org/2000/svg" fill='currentColor'><path d="M8.5 4.5C8.5 4.36739 8.44732 4.24021 8.35355 4.14645C8.25979 4.05268 8.13261 4 8 4C7.86739 4 7.74021 4.05268 7.64645 4.14645C7.55268 4.24021 7.5 4.36739 7.5 4.5V5.134L6.951 4.817C6.89411 4.78365 6.83119 4.76188 6.76586 4.75295C6.70053 4.74402 6.63408 4.7481 6.57033 4.76495C6.50658 4.78181 6.44679 4.8111 6.39441 4.85116C6.34203 4.89121 6.29809 4.94123 6.26512 4.99834C6.23215 5.05544 6.2108 5.1185 6.2023 5.18389C6.1938 5.24928 6.19832 5.31571 6.2156 5.37935C6.23287 5.44298 6.26257 5.50257 6.30297 5.55469C6.34337 5.6068 6.39368 5.65041 6.451 5.683L7 6L6.451 6.317C6.39368 6.34959 6.34337 6.3932 6.30297 6.44531C6.26257 6.49743 6.23287 6.55702 6.2156 6.62065C6.19832 6.68429 6.1938 6.75072 6.2023 6.81611C6.2108 6.8815 6.23215 6.94456 6.26512 7.00166C6.29809 7.05877 6.34203 7.10879 6.39441 7.14884C6.44679 7.1889 6.50658 7.21819 6.57033 7.23505C6.63408 7.2519 6.70053 7.25598 6.76586 7.24705C6.83119 7.23812 6.89411 7.21635 6.951 7.183L7.5 6.866V7.5C7.5 7.63261 7.55268 7.75979 7.64645 7.85355C7.74021 7.94732 7.86739 8 8 8C8.13261 8 8.25979 7.94732 8.35355 7.85355C8.44732 7.75979 8.5 7.63261 8.5 7.5V6.866L9.049 7.183C9.10589 7.21635 9.16881 7.23812 9.23414 7.24705C9.29947 7.25598 9.36592 7.2519 9.42967 7.23505C9.49342 7.21819 9.55321 7.1889 9.60559 7.14884C9.65797 7.10879 9.70191 7.05877 9.73488 7.00166C9.76785 6.94456 9.7892 6.8815 9.7977 6.81611C9.8062 6.75072 9.80168 6.68429 9.7844 6.62065C9.76713 6.55702 9.73743 6.49743 9.69703 6.44531C9.65663 6.3932 9.60632 6.34959 9.549 6.317L9 6L9.549 5.683C9.60632 5.65041 9.65663 5.6068 9.69703 5.55469C9.73743 5.50257 9.76713 5.44298 9.7844 5.37935C9.80168 5.31571 9.8062 5.24928 9.7977 5.18389C9.7892 5.1185 9.76785 5.05544 9.73488 4.99834C9.70191 4.94123 9.65797 4.89121 9.60559 4.85116C9.55321 4.8111 9.49342 4.78181 9.42967 4.76495C9.36592 4.7481 9.29947 4.74402 9.23414 4.75295C9.16881 4.76188 9.10589 4.78365 9.049 4.817L8.5 5.134V4.5ZM5.5 9C5.36739 9 5.24021 9.05268 5.14645 9.14645C5.05268 9.24021 5 9.36739 5 9.5C5 9.63261 5.05268 9.75979 5.14645 9.85355C5.24021 9.94732 5.36739 10 5.5 10H10.5C10.6326 10 10.7598 9.94732 10.8536 9.85355C10.9473 9.75979 11 9.63261 11 9.5C11 9.36739 10.9473 9.24021 10.8536 9.14645C10.7598 9.05268 10.6326 9 10.5 9H5.5ZM5.5 11C5.36739 11 5.24021 11.0527 5.14645 11.1464C5.05268 11.2402 5 11.3674 5 11.5C5 11.6326 5.05268 11.7598 5.14645 11.8536C5.24021 11.9473 5.36739 12 5.5 12H10.5C10.6326 12 10.7598 11.9473 10.8536 11.8536C10.9473 11.7598 11 11.6326 11 11.5C11 11.3674 10.9473 11.2402 10.8536 11.1464C10.7598 11.0527 10.6326 11 10.5 11H5.5Z"/><path d="M2 2C2 1.46957 2.21071 0.960859 2.58579 0.585786C2.96086 0.210714 3.46957 0 4 0L12 0C12.5304 0 13.0391 0.210714 13.4142 0.585786C13.7893 0.960859 14 1.46957 14 2V14C14 14.5304 13.7893 15.0391 13.4142 15.4142C13.0391 15.7893 12.5304 16 12 16H4C3.46957 16 2.96086 15.7893 2.58579 15.4142C2.21071 15.0391 2 14.5304 2 14V2ZM12 1H4C3.73478 1 3.48043 1.10536 3.29289 1.29289C3.10536 1.48043 3 1.73478 3 2V14C3 14.2652 3.10536 14.5196 3.29289 14.7071C3.48043 14.8946 3.73478 15 4 15H12C12.2652 15 12.5196 14.8946 12.7071 14.7071C12.8946 14.5196 13 14.2652 13 14V2C13 1.73478 12.8946 1.48043 12.7071 1.29289C12.5196 1.10536 12.2652 1 12 1Z"/></svg>