<svg xmlns="http://www.w3.org/2000/svg" width="24" height="24" viewBox="0 0 24 24" fill='currentColor'><mask id="a" width="24" height="24" x="0" y="0" maskUnits="userSpaceOnUse" style="mask-type:alpha"><path d="M0 0h24v24H0z"/></mask><g mask="url(#a)"><path d="M4.75 15H6.5q.424 0 .713-.287A.97.97 0 0 0 7.5 14V9H6v4.75H5V12.5H3.75V14q0 .424.287.713.288.287.713.287m4.425 0h1.5q.424 0 .712-.287a.97.97 0 0 0 .288-.713v-1.5a.97.97 0 0 0-.288-.713.97.97 0 0 0-.712-.287h-1.25v-1.25h1v.5h1.25V10a.97.97 0 0 0-.288-.713.97.97 0 0 0-.712-.287h-1.5a.97.97 0 0 0-.713.287.97.97 0 0 0-.287.713v1.5q0 .424.287.713.288.287.713.287h1.25v1.25h-1v-.5h-1.25V14q0 .424.287.713.288.287.713.287m4.4-1.5v-3h1v3zm-.25 1.5h1.5q.424 0 .713-.287a.97.97 0 0 0 .287-.713v-4a.97.97 0 0 0-.287-.713.97.97 0 0 0-.713-.287h-1.5a.97.97 0 0 0-.712.287.97.97 0 0 0-.288.713v4q0 .424.288.713.287.287.712.287m3.175 0h1.25v-2.625l1 2.625H20V9h-1.25v2.625L17.75 9H16.5zM3 20q-.824 0-1.412-.587A1.93 1.93 0 0 1 1 18V6q0-.824.587-1.412A1.93 1.93 0 0 1 3 4h18q.824 0 1.413.588Q23 5.175 23 6v12q0 .824-.587 1.413A1.93 1.93 0 0 1 21 20z"/></g></svg>