<svg width="16" height="16" viewBox="0 0 16 16" xmlns="http://www.w3.org/2000/svg" fill='currentColor'><path d="M5.48499 6.879C5.47037 6.81399 5.44289 6.75256 5.40418 6.69832C5.36547 6.64408 5.31631 6.59813 5.25959 6.56316C5.20287 6.52819 5.13973 6.50491 5.07389 6.49469C5.00804 6.48447 4.94081 6.48751 4.87616 6.50364C4.81151 6.51977 4.75073 6.54866 4.6974 6.58861C4.64407 6.62857 4.59927 6.67878 4.56562 6.73629C4.53197 6.79381 4.51016 6.85747 4.50147 6.92354C4.49277 6.9896 4.49737 7.05674 4.51499 7.121L6.01499 13.121C6.04201 13.2281 6.10371 13.3232 6.19048 13.3915C6.27725 13.4599 6.3842 13.4975 6.49464 13.4987C6.60508 13.4998 6.71278 13.4644 6.80095 13.3979C6.88911 13.3313 6.95278 13.2375 6.98199 13.131L7.99999 9.402L9.01799 13.132C9.04721 13.2385 9.11088 13.3323 9.19904 13.3989C9.2872 13.4654 9.39491 13.5008 9.50535 13.4997C9.61579 13.4985 9.72274 13.4609 9.80951 13.3925C9.89628 13.3242 9.95798 13.2291 9.98499 13.122L11.485 7.122C11.5137 6.99458 11.4913 6.86101 11.4228 6.74983C11.3543 6.63866 11.2449 6.55872 11.1182 6.5271C10.9915 6.49549 10.8574 6.51471 10.7447 6.58066C10.632 6.64661 10.5495 6.75405 10.515 6.88L9.47899 11.024L8.48199 7.369C8.45289 7.2635 8.38999 7.17046 8.30292 7.10416C8.21585 7.03786 8.10943 7.00195 7.99999 7.00195C7.89056 7.00195 7.78414 7.03786 7.69707 7.10416C7.61 7.17046 7.54709 7.2635 7.51799 7.369L6.52099 11.024L5.48499 6.88V6.879Z"/><path d="M14 14V4.5L9.5 0H4C3.46957 0 2.96086 0.210714 2.58579 0.585786C2.21071 0.960859 2 1.46957 2 2V14C2 14.5304 2.21071 15.0391 2.58579 15.4142C2.96086 15.7893 3.46957 16 4 16H12C12.5304 16 13.0391 15.7893 13.4142 15.4142C13.7893 15.0391 14 14.5304 14 14ZM9.5 3C9.5 3.39782 9.65804 3.77936 9.93934 4.06066C10.2206 4.34196 10.6022 4.5 11 4.5H13V14C13 14.2652 12.8946 14.5196 12.7071 14.7071C12.5196 14.8946 12.2652 15 12 15H4C3.73478 15 3.48043 14.8946 3.29289 14.7071C3.10536 14.5196 3 14.2652 3 14V2C3 1.73478 3.10536 1.48043 3.29289 1.29289C3.48043 1.10536 3.73478 1 4 1H9.5V3Z"/></svg>