<svg width="16" height="16" viewBox="0 0 16 16" xmlns="http://www.w3.org/2000/svg" fill='currentColor'><g clip-path="url(#clip0_104_2001)"><path d="M7 6C7 5.73478 7.10536 5.48043 7.29289 5.29289C7.48043 5.10536 7.73478 5 8 5C8.26522 5 8.51957 5.10536 8.70711 5.29289C8.89464 5.48043 9 5.73478 9 6V7H7V6ZM6 8.3C6 8.258 6.02 8.193 6.105 8.125C6.21906 8.04048 6.35808 7.99649 6.5 8H9.5C9.64188 7.99672 9.78084 8.04069 9.895 8.125C9.98 8.193 10 8.258 10 8.3V10.7C10 10.742 9.98 10.807 9.895 10.875C9.78094 10.9595 9.64192 11.0035 9.5 11H6.5C6.35808 11.0035 6.21906 10.9595 6.105 10.875C6.02 10.807 6 10.742 6 10.7V8.3Z"/><path d="M12 0H4C3.46957 0 2.96086 0.210714 2.58579 0.585786C2.21071 0.960859 2 1.46957 2 2V14C2 14.5304 2.21071 15.0391 2.58579 15.4142C2.96086 15.7893 3.46957 16 4 16H12C12.5304 16 13.0391 15.7893 13.4142 15.4142C13.7893 15.0391 14 14.5304 14 14V2C14 1.46957 13.7893 0.960859 13.4142 0.585786C13.0391 0.210714 12.5304 0 12 0V0ZM10 6V7.076C10.54 7.242 11 7.673 11 8.3V10.7C11 11.516 10.219 12 9.5 12H6.5C5.781 12 5 11.516 5 10.7V8.3C5 7.673 5.46 7.242 6 7.076V6C6 5.46957 6.21071 4.96086 6.58579 4.58579C6.96086 4.21071 7.46957 4 8 4C8.53043 4 9.03914 4.21071 9.41421 4.58579C9.78929 4.96086 10 5.46957 10 6Z"/></g><defs><clipPath id="clip0_104_2001"><rect width="16" height="16"/></clipPath></defs></svg>