<svg width="16" height="16" viewBox="0 0 16 16" fill="none" xmlns="http://www.w3.org/2000/svg">
<path d="M11 8C11 8.79565 10.6839 9.55871 10.1213 10.1213C9.55871 10.6839 8.79565 11 8 11C7.20435 11 6.44129 10.6839 5.87868 10.1213C5.31607 9.55871 5 8.79565 5 8C5 7.20435 5.31607 6.44129 5.87868 5.87868C6.44129 5.31607 7.20435 5 8 5C8.79565 5 9.55871 5.31607 10.1213 5.87868C10.6839 6.44129 11 7.20435 11 8Z" fill="black"/>
<path d="M14 14V4.5L9.5 0H4C3.46957 0 2.96086 0.210714 2.58579 0.585786C2.21071 0.960859 2 1.46957 2 2V14C2 14.5304 2.21071 15.0391 2.58579 15.4142C2.96086 15.7893 3.46957 16 4 16H12C12.5304 16 13.0391 15.7893 13.4142 15.4142C13.7893 15.0391 14 14.5304 14 14ZM9.5 3C9.5 3.39782 9.65804 3.77936 9.93934 4.06066C10.2206 4.34196 10.6022 4.5 11 4.5H13V13.755C13 13.755 12 12 8 12C4 12 3 13.755 3 13.755V2C3 1.73478 3.10536 1.48043 3.29289 1.29289C3.48043 1.10536 3.73478 1 4 1H9.5V3Z" fill="black"/>
</svg>
