<svg width="16" height="16" viewBox="0 0 16 16" xmlns="http://www.w3.org/2000/svg" fill='currentColor'><path d="M5.5 7C5.36739 7 5.24021 7.05268 5.14645 7.14645C5.05268 7.24021 5 7.36739 5 7.5C5 7.63261 5.05268 7.75979 5.14645 7.85355C5.24021 7.94732 5.36739 8 5.5 8H10.5C10.6326 8 10.7598 7.94732 10.8536 7.85355C10.9473 7.75979 11 7.63261 11 7.5C11 7.36739 10.9473 7.24021 10.8536 7.14645C10.7598 7.05268 10.6326 7 10.5 7H5.5ZM5 9.5C5 9.36739 5.05268 9.24021 5.14645 9.14645C5.24021 9.05268 5.36739 9 5.5 9H10.5C10.6326 9 10.7598 9.05268 10.8536 9.14645C10.9473 9.24021 11 9.36739 11 9.5C11 9.63261 10.9473 9.75979 10.8536 9.85355C10.7598 9.94732 10.6326 10 10.5 10H5.5C5.36739 10 5.24021 9.94732 5.14645 9.85355C5.05268 9.75979 5 9.63261 5 9.5ZM5 11.5C5 11.3674 5.05268 11.2402 5.14645 11.1464C5.24021 11.0527 5.36739 11 5.5 11H7.5C7.63261 11 7.75979 11.0527 7.85355 11.1464C7.94732 11.2402 8 11.3674 8 11.5C8 11.6326 7.94732 11.7598 7.85355 11.8536C7.75979 11.9473 7.63261 12 7.5 12H5.5C5.36739 12 5.24021 11.9473 5.14645 11.8536C5.05268 11.7598 5 11.6326 5 11.5Z"/><path d="M9.5 0H4C3.46957 0 2.96086 0.210714 2.58579 0.585786C2.21071 0.960859 2 1.46957 2 2V14C2 14.5304 2.21071 15.0391 2.58579 15.4142C2.96086 15.7893 3.46957 16 4 16H12C12.5304 16 13.0391 15.7893 13.4142 15.4142C13.7893 15.0391 14 14.5304 14 14V4.5L9.5 0ZM9.5 1V3C9.5 3.39782 9.65804 3.77936 9.93934 4.06066C10.2206 4.34196 10.6022 4.5 11 4.5H13V14C13 14.2652 12.8946 14.5196 12.7071 14.7071C12.5196 14.8946 12.2652 15 12 15H4C3.73478 15 3.48043 14.8946 3.29289 14.7071C3.10536 14.5196 3 14.2652 3 14V2C3 1.73478 3.10536 1.48043 3.29289 1.29289C3.48043 1.10536 3.73478 1 4 1H9.5Z"/></svg>