<svg width="16" height="16" viewBox="0 0 16 16" xmlns="http://www.w3.org/2000/svg" fill='currentColor'><g clip-path="url(#clip0_104_1780)"><path d="M5.526 9.27295C4.984 9.27295 4.694 9.83595 4.694 10.8849C4.694 10.9729 4.697 11.0579 4.7 11.1369L6.26 9.99395C6.134 9.51995 5.885 9.27395 5.527 9.27395L5.526 9.27295ZM4.794 11.7809C4.92 12.2529 5.166 12.4989 5.526 12.4989C6.066 12.4989 6.356 11.9359 6.356 10.8849C6.356 10.7999 6.353 10.7149 6.35 10.6349L4.794 11.7809Z"/><path d="M12 0H4C3.46957 0 2.96086 0.210714 2.58579 0.585786C2.21071 0.960859 2 1.46957 2 2V14C2 14.5304 2.21071 15.0391 2.58579 15.4142C2.96086 15.7893 3.46957 16 4 16H12C12.5304 16 13.0391 15.7893 13.4142 15.4142C13.7893 15.0391 14 14.5304 14 14V2C14 1.46957 13.7893 0.960859 13.4142 0.585786C13.0391 0.210714 12.5304 0 12 0V0ZM7.05 10.885C7.05 12.3 6.502 13.091 5.526 13.091C4.548 13.09 4 12.3 4 10.885C4 9.473 4.548 8.682 5.526 8.682C6.502 8.682 7.05 9.472 7.05 10.885ZM10.855 12.405V13H7.855V12.405H9.036V9.5H8.986L7.85 10.247V9.559L9.04 8.773H9.73V12.406H10.855V12.405Z"/></g><defs><clipPath id="clip0_104_1780"><rect width="16" height="16"/></clipPath></defs></svg>