<svg width="16" height="16" viewBox="0 0 16 16" fill="none" xmlns="http://www.w3.org/2000/svg">
<path d="M8.5 5C8.5 4.86739 8.44732 4.74021 8.35355 4.64645C8.25979 4.55268 8.13261 4.5 8 4.5C7.86739 4.5 7.74021 4.55268 7.64645 4.64645C7.55268 4.74021 7.5 4.86739 7.5 5H5.5C5.10218 5 4.72064 5.15804 4.43934 5.43934C4.15804 5.72064 4 6.10218 4 6.5V8.5C4 8.89782 4.15804 9.27936 4.43934 9.56066C4.72064 9.84196 5.10218 10 5.5 10H5.973L5.526 11.342C5.50233 11.405 5.49159 11.472 5.49445 11.5392C5.49731 11.6064 5.51369 11.6724 5.54262 11.7331C5.57156 11.7938 5.61244 11.8481 5.66283 11.8926C5.71322 11.9371 5.77208 11.9711 5.83589 11.9923C5.89969 12.0136 5.96713 12.0218 6.03418 12.0164C6.10122 12.011 6.16648 11.9921 6.22605 11.9609C6.28563 11.9297 6.33829 11.8868 6.3809 11.8347C6.4235 11.7827 6.45517 11.7226 6.474 11.658L7.027 10H7.5V11C7.5 11.1326 7.55268 11.2598 7.64645 11.3536C7.74021 11.4473 7.86739 11.5 8 11.5C8.13261 11.5 8.25979 11.4473 8.35355 11.3536C8.44732 11.2598 8.5 11.1326 8.5 11V10H8.973L9.526 11.658C9.54483 11.7226 9.5765 11.7827 9.6191 11.8347C9.66171 11.8868 9.71437 11.9297 9.77395 11.9609C9.83352 11.9921 9.89878 12.011 9.96582 12.0164C10.0329 12.0218 10.1003 12.0136 10.1641 11.9923C10.2279 11.9711 10.2868 11.9371 10.3372 11.8926C10.3876 11.8481 10.4284 11.7938 10.4574 11.7331C10.4863 11.6724 10.5027 11.6064 10.5055 11.5392C10.5084 11.472 10.4977 11.405 10.474 11.342L10.027 10H10.5C10.8978 10 11.2794 9.84196 11.5607 9.56066C11.842 9.27936 12 8.89782 12 8.5V6.5C12 6.10218 11.842 5.72064 11.5607 5.43934C11.2794 5.15804 10.8978 5 10.5 5H8.5ZM5 6.5C5 6.36739 5.05268 6.24021 5.14645 6.14645C5.24021 6.05268 5.36739 6 5.5 6H10.5C10.6326 6 10.7598 6.05268 10.8536 6.14645C10.9473 6.24021 11 6.36739 11 6.5V8.5C11 8.63261 10.9473 8.75979 10.8536 8.85355C10.7598 8.94732 10.6326 9 10.5 9H5.5C5.36739 9 5.24021 8.94732 5.14645 8.85355C5.05268 8.75979 5 8.63261 5 8.5V6.5Z" fill="black"/>
<path d="M2 2C2 1.46957 2.21071 0.960859 2.58579 0.585786C2.96086 0.210714 3.46957 0 4 0L12 0C12.5304 0 13.0391 0.210714 13.4142 0.585786C13.7893 0.960859 14 1.46957 14 2V14C14 14.5304 13.7893 15.0391 13.4142 15.4142C13.0391 15.7893 12.5304 16 12 16H4C3.46957 16 2.96086 15.7893 2.58579 15.4142C2.21071 15.0391 2 14.5304 2 14V2ZM12 1H4C3.73478 1 3.48043 1.10536 3.29289 1.29289C3.10536 1.48043 3 1.73478 3 2V14C3 14.2652 3.10536 14.5196 3.29289 14.7071C3.48043 14.8946 3.73478 15 4 15H12C12.2652 15 12.5196 14.8946 12.7071 14.7071C12.8946 14.5196 13 14.2652 13 14V2C13 1.73478 12.8946 1.48043 12.7071 1.29289C12.5196 1.10536 12.2652 1 12 1Z" fill="black"/>
</svg>
