<svg width="16" height="16" viewBox="0 0 16 16" xmlns="http://www.w3.org/2000/svg" fill='currentColor'><path d="M4 0H9.293C9.5582 5.66374e-05 9.81251 0.105451 10 0.293L13.707 4C13.8945 4.18749 13.9999 4.4418 14 4.707V10.293L11.27 7.563C11.1672 7.46051 11.0434 7.38162 10.9071 7.33181C10.7708 7.282 10.6252 7.26246 10.4806 7.27454C10.336 7.28662 10.1957 7.33005 10.0695 7.40179C9.94337 7.47353 9.83433 7.57188 9.75 7.69L7.861 10.334L6.092 9.272C5.90077 9.15711 5.67661 9.10947 5.45518 9.13665C5.23375 9.16383 5.02777 9.26427 4.87 9.422L2 12.292V2C2 1.46957 2.21071 0.960859 2.58579 0.585786C2.96086 0.210714 3.46957 0 4 0V0ZM9.5 1.5V3.5C9.5 3.76522 9.60536 4.01957 9.79289 4.20711C9.98043 4.39464 10.2348 4.5 10.5 4.5H12.5L9.5 1.5ZM8.002 5.5C8.002 5.10218 7.84396 4.72064 7.56266 4.43934C7.28136 4.15804 6.89982 4 6.502 4C6.10418 4 5.72264 4.15804 5.44134 4.43934C5.16004 4.72064 5.002 5.10218 5.002 5.5C5.002 5.89782 5.16004 6.27936 5.44134 6.56066C5.72264 6.84196 6.10418 7 6.502 7C6.89982 7 7.28136 6.84196 7.56266 6.56066C7.84396 6.27936 8.002 5.89782 8.002 5.5Z"/><path d="M10.564 8.27002L14 11.708V14C14 14.5305 13.7893 15.0392 13.4142 15.4142C13.0391 15.7893 12.5304 16 12 16H4C3.46957 16 2.96086 15.7893 2.58579 15.4142C2.21071 15.0392 2 14.5305 2 14V13.707L5.578 10.13L8.138 11.666L10.564 8.27102V8.27002Z"/></svg>