<svg width="16" height="16" viewBox="0 0 16 16" xmlns="http://www.w3.org/2000/svg" fill='currentColor'><path d="M7.5 5.5C7.5 5.36739 7.44732 5.24021 7.35355 5.14645C7.25979 5.05268 7.13261 5 7 5C6.86739 5 6.74021 5.05268 6.64645 5.14645C6.55268 5.24021 6.5 5.36739 6.5 5.5V6.134L5.951 5.817C5.89411 5.78365 5.83119 5.76188 5.76586 5.75295C5.70053 5.74402 5.63408 5.7481 5.57033 5.76495C5.50658 5.78181 5.44679 5.8111 5.39441 5.85116C5.34203 5.89121 5.29809 5.94123 5.26512 5.99834C5.23215 6.05544 5.2108 6.1185 5.2023 6.18389C5.1938 6.24928 5.19832 6.31571 5.2156 6.37935C5.23287 6.44298 5.26257 6.50257 5.30297 6.55469C5.34337 6.6068 5.39368 6.65041 5.451 6.683L6 7L5.451 7.317C5.39368 7.34959 5.34337 7.3932 5.30297 7.44531C5.26257 7.49743 5.23287 7.55702 5.2156 7.62065C5.19832 7.68429 5.1938 7.75072 5.2023 7.81611C5.2108 7.8815 5.23215 7.94456 5.26512 8.00166C5.29809 8.05877 5.34203 8.10879 5.39441 8.14884C5.44679 8.1889 5.50658 8.21819 5.57033 8.23505C5.63408 8.2519 5.70053 8.25598 5.76586 8.24705C5.83119 8.23812 5.89411 8.21635 5.951 8.183L6.5 7.866V8.5C6.5 8.63261 6.55268 8.75979 6.64645 8.85355C6.74021 8.94732 6.86739 9 7 9C7.13261 9 7.25979 8.94732 7.35355 8.85355C7.44732 8.75979 7.5 8.63261 7.5 8.5V7.866L8.049 8.183C8.10589 8.21635 8.16881 8.23812 8.23414 8.24705C8.29947 8.25598 8.36592 8.2519 8.42967 8.23505C8.49342 8.21819 8.55321 8.1889 8.60559 8.14884C8.65797 8.10879 8.70191 8.05877 8.73488 8.00166C8.76785 7.94456 8.7892 7.8815 8.7977 7.81611C8.8062 7.75072 8.80168 7.68429 8.7844 7.62065C8.76713 7.55702 8.73743 7.49743 8.69703 7.44531C8.65663 7.3932 8.60632 7.34959 8.549 7.317L8 7L8.549 6.683C8.60632 6.65041 8.65663 6.6068 8.69703 6.55469C8.73743 6.50257 8.76713 6.44298 8.7844 6.37935C8.80168 6.31571 8.8062 6.24928 8.7977 6.18389C8.7892 6.1185 8.76785 6.05544 8.73488 5.99834C8.70191 5.94123 8.65797 5.89121 8.60559 5.85116C8.55321 5.8111 8.49342 5.78181 8.42967 5.76495C8.36592 5.7481 8.29947 5.74402 8.23414 5.75295C8.16881 5.76188 8.10589 5.78365 8.049 5.817L7.5 6.134V5.5ZM5.5 10C5.36739 10 5.24021 10.0527 5.14645 10.1464C5.05268 10.2402 5 10.3674 5 10.5C5 10.6326 5.05268 10.7598 5.14645 10.8536C5.24021 10.9473 5.36739 11 5.5 11H10.5C10.6326 11 10.7598 10.9473 10.8536 10.8536C10.9473 10.7598 11 10.6326 11 10.5C11 10.3674 10.9473 10.2402 10.8536 10.1464C10.7598 10.0527 10.6326 10 10.5 10H5.5ZM5.5 12C5.36739 12 5.24021 12.0527 5.14645 12.1464C5.05268 12.2402 5 12.3674 5 12.5C5 12.6326 5.05268 12.7598 5.14645 12.8536C5.24021 12.9473 5.36739 13 5.5 13H10.5C10.6326 13 10.7598 12.9473 10.8536 12.8536C10.9473 12.7598 11 12.6326 11 12.5C11 12.3674 10.9473 12.2402 10.8536 12.1464C10.7598 12.0527 10.6326 12 10.5 12H5.5Z"/><path d="M14 14V4.5L9.5 0H4C3.46957 0 2.96086 0.210714 2.58579 0.585786C2.21071 0.960859 2 1.46957 2 2V14C2 14.5304 2.21071 15.0391 2.58579 15.4142C2.96086 15.7893 3.46957 16 4 16H12C12.5304 16 13.0391 15.7893 13.4142 15.4142C13.7893 15.0391 14 14.5304 14 14ZM9.5 3C9.5 3.39782 9.65804 3.77936 9.93934 4.06066C10.2206 4.34196 10.6022 4.5 11 4.5H13V14C13 14.2652 12.8946 14.5196 12.7071 14.7071C12.5196 14.8946 12.2652 15 12 15H4C3.73478 15 3.48043 14.8946 3.29289 14.7071C3.10536 14.5196 3 14.2652 3 14V2C3 1.73478 3.10536 1.48043 3.29289 1.29289C3.48043 1.10536 3.73478 1 4 1H9.5V3Z"/></svg>