<svg width="16" height="16" viewBox="0 0 16 16" xmlns="http://www.w3.org/2000/svg" fill='currentColor'><path d="M14 4.5V14C14 14.5304 13.7893 15.0391 13.4142 15.4142C13.0391 15.7893 12.5304 16 12 16H4C3.46957 16 2.96086 15.7893 2.58579 15.4142C2.21071 15.0391 2 14.5304 2 14V2C2 1.46957 2.21071 0.960859 2.58579 0.585786C2.96086 0.210714 3.46957 0 4 0L9.5 0L14 4.5ZM11 4.5C10.6022 4.5 10.2206 4.34196 9.93934 4.06066C9.65804 3.77936 9.5 3.39782 9.5 3V1H4C3.73478 1 3.48043 1.10536 3.29289 1.29289C3.10536 1.48043 3 1.73478 3 2V14C3 14.2652 3.10536 14.5196 3.29289 14.7071C3.48043 14.8946 3.73478 15 4 15H12C12.2652 15 12.5196 14.8946 12.7071 14.7071C12.8946 14.5196 13 14.2652 13 14V4.5H11Z"/><path d="M8.64601 6.64604C8.69245 6.59948 8.74763 6.56253 8.80838 6.53733C8.86912 6.51212 8.93424 6.49915 9.00001 6.49915C9.06578 6.49915 9.1309 6.51212 9.19164 6.53733C9.25239 6.56253 9.30756 6.59948 9.35401 6.64604L11.354 8.64604C11.4006 8.69248 11.4375 8.74766 11.4627 8.80841C11.4879 8.86915 11.5009 8.93427 11.5009 9.00004C11.5009 9.06581 11.4879 9.13093 11.4627 9.19167C11.4375 9.25242 11.4006 9.30759 11.354 9.35404L9.35401 11.354C9.26012 11.4479 9.13278 11.5007 9.00001 11.5007C8.86723 11.5007 8.7399 11.4479 8.64601 11.354C8.55212 11.2602 8.49938 11.1328 8.49938 11C8.49938 10.8673 8.55212 10.7399 8.64601 10.646L10.293 9.00004L8.64601 7.35404C8.59945 7.30759 8.5625 7.25242 8.5373 7.19167C8.51209 7.13093 8.49911 7.06581 8.49911 7.00004C8.49911 6.93427 8.51209 6.86915 8.5373 6.80841C8.5625 6.74766 8.59945 6.69248 8.64601 6.64604ZM7.35401 6.64604C7.30756 6.59948 7.25239 6.56253 7.19164 6.53733C7.1309 6.51212 7.06578 6.49915 7.00001 6.49915C6.93424 6.49915 6.86912 6.51212 6.80837 6.53733C6.74763 6.56253 6.69245 6.59948 6.64601 6.64604L4.64601 8.64604C4.59945 8.69248 4.5625 8.74766 4.5373 8.80841C4.51209 8.86915 4.49911 8.93427 4.49911 9.00004C4.49911 9.06581 4.51209 9.13093 4.5373 9.19167C4.5625 9.25242 4.59945 9.30759 4.64601 9.35404L6.64601 11.354C6.7399 11.4479 6.86723 11.5007 7.00001 11.5007C7.13278 11.5007 7.26012 11.4479 7.35401 11.354C7.4479 11.2602 7.50064 11.1328 7.50064 11C7.50064 10.8673 7.4479 10.7399 7.35401 10.646L5.70701 9.00004L7.35401 7.35404C7.40057 7.30759 7.43751 7.25242 7.46272 7.19167C7.48793 7.13093 7.5009 7.06581 7.5009 7.00004C7.5009 6.93427 7.48793 6.86915 7.46272 6.80841C7.43751 6.74766 7.40057 6.69248 7.35401 6.64604Z"/></svg>