<svg width="16" height="16" viewBox="0 0 16 16" fill="none" xmlns="http://www.w3.org/2000/svg">
<path d="M8.50001 9.438V8.5H7.50001V9.438C7.5 9.51992 7.48992 9.60153 7.47001 9.681L7.07001 11.279L8.00001 11.899L8.93001 11.279L8.53001 9.681C8.51009 9.60153 8.50002 9.51992 8.50001 9.438Z" fill="black"/>
<path d="M4 0H12C12.5304 0 13.0391 0.210714 13.4142 0.585786C13.7893 0.960859 14 1.46957 14 2V14C14 14.5304 13.7893 15.0391 13.4142 15.4142C13.0391 15.7893 12.5304 16 12 16H4C3.46957 16 2.96086 15.7893 2.58579 15.4142C2.21071 15.0391 2 14.5304 2 14V2C2 1.46957 2.21071 0.960859 2.58579 0.585786C2.96086 0.210714 3.46957 0 4 0V0ZM6.5 8.5V9.438L6.1 11.037C6.05016 11.2371 6.06339 11.4476 6.13785 11.6399C6.21232 11.8322 6.3444 11.9967 6.516 12.111L7.446 12.731C7.61023 12.8404 7.80316 12.8988 8.0005 12.8988C8.19784 12.8988 8.39077 12.8404 8.555 12.731L9.485 12.111C9.65642 11.9966 9.78829 11.832 9.86258 11.6397C9.93687 11.4475 9.94994 11.237 9.9 11.037L9.5 9.438V8.5C9.5 8.23478 9.39464 7.98043 9.20711 7.79289C9.01957 7.60536 8.76522 7.5 8.5 7.5H7.5C7.23478 7.5 6.98043 7.60536 6.79289 7.79289C6.60536 7.98043 6.5 8.23478 6.5 8.5ZM7.5 3H6.5V4H7.5V5H6.5V6H7.5V7H9V6H8V5H9V4H8V3H9V2H8V1H6.5V2H7.5V3Z" fill="black"/>
</svg>
