<svg width="16" height="16" viewBox="0 0 16 16" xmlns="http://www.w3.org/2000/svg" fill='currentColor'><path d="M14 14V4.5L9.5 0H4C3.46957 0 2.96086 0.210714 2.58579 0.585786C2.21071 0.960859 2 1.46957 2 2V14C2 14.5304 2.21071 15.0391 2.58579 15.4142C2.96086 15.7893 3.46957 16 4 16H12C12.5304 16 13.0391 15.7893 13.4142 15.4142C13.7893 15.0391 14 14.5304 14 14ZM9.5 3C9.5 3.39782 9.65804 3.77936 9.93934 4.06066C10.2206 4.34196 10.6022 4.5 11 4.5H13V9H3V2C3 1.73478 3.10536 1.48043 3.29289 1.29289C3.48043 1.10536 3.73478 1 4 1H9.5V3ZM3 12V10H5V12H3ZM3 13H5V15H4C3.73478 15 3.48043 14.8946 3.29289 14.7071C3.10536 14.5196 3 14.2652 3 14V13ZM6 15V13H9V15H6ZM10 15V13H13V14C13 14.2652 12.8946 14.5196 12.7071 14.7071C12.5196 14.8946 12.2652 15 12 15H10ZM13 12H10V10H13V12ZM6 12V10H9V12H6Z"/></svg>