<svg width="16" height="16" viewBox="0 0 16 16" xmlns="http://www.w3.org/2000/svg" fill='currentColor'><path d="M11 6.63999C11 6.48798 10.9653 6.33798 10.8987 6.20138C10.832 6.06477 10.735 5.94517 10.6152 5.85165C10.4954 5.75814 10.3558 5.69317 10.2071 5.66169C10.0584 5.63021 9.90445 5.63305 9.757 5.66999L8.757 5.91999C8.54075 5.97416 8.34881 6.09904 8.21166 6.27478C8.0745 6.45052 8.00001 6.66706 8 6.88999V11.196C7.68307 11.0646 7.34307 10.998 7 11C6.5 11 6.026 11.134 5.662 11.377C5.302 11.617 5 12.005 5 12.5C5 12.995 5.301 13.383 5.662 13.623C6.026 13.866 6.501 14 7 14C7.5 14 7.974 13.866 8.338 13.623C8.698 13.383 9 12.995 9 12.5V8.88999L11 8.38999V6.63999Z"/><path d="M14 14V4.5L9.5 0H4C3.46957 0 2.96086 0.210714 2.58579 0.585786C2.21071 0.960859 2 1.46957 2 2V14C2 14.5304 2.21071 15.0391 2.58579 15.4142C2.96086 15.7893 3.46957 16 4 16H12C12.5304 16 13.0391 15.7893 13.4142 15.4142C13.7893 15.0391 14 14.5304 14 14ZM9.5 3C9.5 3.39782 9.65804 3.77936 9.93934 4.06066C10.2206 4.34196 10.6022 4.5 11 4.5H13V14C13 14.2652 12.8946 14.5196 12.7071 14.7071C12.5196 14.8946 12.2652 15 12 15H4C3.73478 15 3.48043 14.8946 3.29289 14.7071C3.10536 14.5196 3 14.2652 3 14V2C3 1.73478 3.10536 1.48043 3.29289 1.29289C3.48043 1.10536 3.73478 1 4 1H9.5V3Z"/></svg>