<svg width="16" height="16" viewBox="0 0 16 16" fill="none" xmlns="http://www.w3.org/2000/svg">
<g clip-path="url(#clip0_104_1914)">
<path d="M9.293 0H4C3.46957 0 2.96086 0.210714 2.58579 0.585786C2.21071 0.960859 2 1.46957 2 2V14C2 14.5304 2.21071 15.0391 2.58579 15.4142C2.96086 15.7893 3.46957 16 4 16H12C12.5304 16 13.0391 15.7893 13.4142 15.4142C13.7893 15.0391 14 14.5304 14 14V4.707C13.9999 4.4418 13.8945 4.18749 13.707 4L10 0.293C9.81251 0.105451 9.5582 5.66374e-05 9.293 0V0ZM9.5 3.5V1.5L12.5 4.5H10.5C10.2348 4.5 9.98043 4.39464 9.79289 4.20711C9.60536 4.01957 9.5 3.76522 9.5 3.5ZM8.5 7V8.5H10C10.1326 8.5 10.2598 8.55268 10.3536 8.64645C10.4473 8.74021 10.5 8.86739 10.5 9C10.5 9.13261 10.4473 9.25979 10.3536 9.35355C10.2598 9.44732 10.1326 9.5 10 9.5H8.5V11C8.5 11.1326 8.44732 11.2598 8.35355 11.3536C8.25979 11.4473 8.13261 11.5 8 11.5C7.86739 11.5 7.74021 11.4473 7.64645 11.3536C7.55268 11.2598 7.5 11.1326 7.5 11V9.5H6C5.86739 9.5 5.74021 9.44732 5.64645 9.35355C5.55268 9.25979 5.5 9.13261 5.5 9C5.5 8.86739 5.55268 8.74021 5.64645 8.64645C5.74021 8.55268 5.86739 8.5 6 8.5H7.5V7C7.5 6.86739 7.55268 6.74021 7.64645 6.64645C7.74021 6.55268 7.86739 6.5 8 6.5C8.13261 6.5 8.25979 6.55268 8.35355 6.64645C8.44732 6.74021 8.5 6.86739 8.5 7Z" fill="black"/>
</g>
<defs>
<clipPath id="clip0_104_1914">
<rect width="16" height="16" fill="white"/>
</clipPath>
</defs>
</svg>
