<svg width="16" height="16" viewBox="0 0 16 16" xmlns="http://www.w3.org/2000/svg" fill='currentColor'><path d="M8.50002 6.5C8.50002 6.36739 8.44734 6.24021 8.35358 6.14645C8.25981 6.05268 8.13263 6 8.00002 6C7.86741 6 7.74024 6.05268 7.64647 6.14645C7.5527 6.24021 7.50002 6.36739 7.50002 6.5V10.293L6.35402 9.146C6.30753 9.09951 6.25234 9.06264 6.19161 9.03748C6.13087 9.01232 6.06577 8.99937 6.00002 8.99937C5.93428 8.99937 5.86918 9.01232 5.80844 9.03748C5.7477 9.06264 5.69251 9.09951 5.64602 9.146C5.59953 9.19249 5.56266 9.24768 5.5375 9.30842C5.51234 9.36916 5.49939 9.43426 5.49939 9.5C5.49939 9.56574 5.51234 9.63084 5.5375 9.69158C5.56266 9.75232 5.59953 9.80751 5.64602 9.854L7.64602 11.854C7.69247 11.9006 7.74764 11.9375 7.80839 11.9627C7.86913 11.9879 7.93425 12.0009 8.00002 12.0009C8.06579 12.0009 8.13091 11.9879 8.19165 11.9627C8.2524 11.9375 8.30758 11.9006 8.35402 11.854L10.354 9.854C10.4005 9.80751 10.4374 9.75232 10.4625 9.69158C10.4877 9.63084 10.5007 9.56574 10.5007 9.5C10.5007 9.43426 10.4877 9.36916 10.4625 9.30842C10.4374 9.24768 10.4005 9.19249 10.354 9.146C10.3075 9.09951 10.2523 9.06264 10.1916 9.03748C10.1309 9.01232 10.0658 8.99937 10 8.99937C9.93428 8.99937 9.86918 9.01232 9.80844 9.03748C9.7477 9.06264 9.69251 9.09951 9.64602 9.146L8.50002 10.293V6.5Z"/><path d="M14 14V4.5L9.5 0H4C3.46957 0 2.96086 0.210714 2.58579 0.585786C2.21071 0.960859 2 1.46957 2 2V14C2 14.5304 2.21071 15.0391 2.58579 15.4142C2.96086 15.7893 3.46957 16 4 16H12C12.5304 16 13.0391 15.7893 13.4142 15.4142C13.7893 15.0391 14 14.5304 14 14ZM9.5 3C9.5 3.39782 9.65804 3.77936 9.93934 4.06066C10.2206 4.34196 10.6022 4.5 11 4.5H13V14C13 14.2652 12.8946 14.5196 12.7071 14.7071C12.5196 14.8946 12.2652 15 12 15H4C3.73478 15 3.48043 14.8946 3.29289 14.7071C3.10536 14.5196 3 14.2652 3 14V2C3 1.73478 3.10536 1.48043 3.29289 1.29289C3.48043 1.10536 3.73478 1 4 1H9.5V3Z"/></svg>