<svg width="16" height="16" viewBox="0 0 16 16" xmlns="http://www.w3.org/2000/svg" fill='currentColor'><g clip-path="url(#clip0_104_2017)"><path d="M12 0H4C3.46957 0 2.96086 0.210714 2.58579 0.585786C2.21071 0.960859 2 1.46957 2 2V14C2 14.5304 2.21071 15.0391 2.58579 15.4142C2.96086 15.7893 3.46957 16 4 16H12C12.5304 16 13.0391 15.7893 13.4142 15.4142C13.7893 15.0391 14 14.5304 14 14V2C14 1.46957 13.7893 0.960859 13.4142 0.585786C13.0391 0.210714 12.5304 0 12 0V0ZM11.5 4.11V5.91L9 6.41V11.5C9 11.995 8.699 12.383 8.338 12.623C7.974 12.866 7.499 13 7 13C6.5 13 6.026 12.866 5.662 12.623C5.302 12.383 5 11.995 5 11.5C5 11.005 5.301 10.617 5.662 10.377C6.026 10.134 6.501 10 7 10C7.356 10 7.7 10.068 8 10.196V4.41C8.00014 4.17891 8.08031 3.955 8.22689 3.77634C8.37346 3.59768 8.57739 3.47529 8.804 3.43L10.304 3.13C10.449 3.10101 10.5987 3.10455 10.7422 3.14037C10.8856 3.17618 11.0194 3.24337 11.1338 3.33711C11.2482 3.43084 11.3404 3.54878 11.4037 3.68243C11.467 3.81608 11.4999 3.96211 11.5 4.11Z"/></g><defs><clipPath id="clip0_104_2017"><rect width="16" height="16"/></clipPath></defs></svg>