<svg width="16" height="16" viewBox="0 0 16 16" xmlns="http://www.w3.org/2000/svg" fill='currentColor'><g clip-path="url(#clip0_104_2025)"><path d="M12 1C12.2652 1 12.5196 1.10536 12.7071 1.29289C12.8946 1.48043 13 1.73478 13 2V12.755C13 12.755 12 11 8 11C4 11 3 12.755 3 12.755V2C3 1.73478 3.10536 1.48043 3.29289 1.29289C3.48043 1.10536 3.73478 1 4 1H12ZM4 0C3.46957 0 2.96086 0.210714 2.58579 0.585786C2.21071 0.960859 2 1.46957 2 2V14C2 14.5304 2.21071 15.0391 2.58579 15.4142C2.96086 15.7893 3.46957 16 4 16H12C12.5304 16 13.0391 15.7893 13.4142 15.4142C13.7893 15.0391 14 14.5304 14 14V2C14 1.46957 13.7893 0.960859 13.4142 0.585786C13.0391 0.210714 12.5304 0 12 0L4 0Z"/><path d="M8 10C8.39397 10 8.78407 9.9224 9.14805 9.77164C9.51203 9.62087 9.84274 9.3999 10.1213 9.12132C10.3999 8.84274 10.6209 8.51203 10.7716 8.14805C10.9224 7.78407 11 7.39397 11 7C11 6.60603 10.9224 6.21593 10.7716 5.85195C10.6209 5.48797 10.3999 5.15726 10.1213 4.87868C9.84274 4.6001 9.51203 4.37913 9.14805 4.22836C8.78407 4.0776 8.39397 4 8 4C7.20435 4 6.44129 4.31607 5.87868 4.87868C5.31607 5.44129 5 6.20435 5 7C5 7.79565 5.31607 8.55871 5.87868 9.12132C6.44129 9.68393 7.20435 10 8 10Z"/></g><defs><clipPath id="clip0_104_2025"><rect width="16" height="16"/></clipPath></defs></svg>