<svg width="16" height="16" viewBox="0 0 16 16" fill="none" xmlns="http://www.w3.org/2000/svg">
<g clip-path="url(#clip0_104_1842)">
<path d="M9.293 0H4C3.46957 0 2.96086 0.210714 2.58579 0.585786C2.21071 0.960859 2 1.46957 2 2V14C2 14.5304 2.21071 15.0391 2.58579 15.4142C2.96086 15.7893 3.46957 16 4 16H12C12.5304 16 13.0391 15.7893 13.4142 15.4142C13.7893 15.0391 14 14.5304 14 14V4.707C13.9999 4.4418 13.8945 4.18749 13.707 4L10 0.293C9.81251 0.105451 9.5582 5.66374e-05 9.293 0V0ZM9.5 3.5V1.5L12.5 4.5H10.5C10.2348 4.5 9.98043 4.39464 9.79289 4.20711C9.60536 4.01957 9.5 3.76522 9.5 3.5ZM8 6C8.13261 6 8.25979 6.05268 8.35355 6.14645C8.44732 6.24021 8.5 6.36739 8.5 6.5V8H10C10.1326 8 10.2598 8.05268 10.3536 8.14645C10.4473 8.24021 10.5 8.36739 10.5 8.5C10.5 8.63261 10.4473 8.75979 10.3536 8.85355C10.2598 8.94732 10.1326 9 10 9H8.5V10.5C8.5 10.6326 8.44732 10.7598 8.35355 10.8536C8.25979 10.9473 8.13261 11 8 11C7.86739 11 7.74021 10.9473 7.64645 10.8536C7.55268 10.7598 7.5 10.6326 7.5 10.5V9H6C5.86739 9 5.74021 8.94732 5.64645 8.85355C5.55268 8.75979 5.5 8.63261 5.5 8.5C5.5 8.36739 5.55268 8.24021 5.64645 8.14645C5.74021 8.05268 5.86739 8 6 8H7.5V6.5C7.5 6.36739 7.55268 6.24021 7.64645 6.14645C7.74021 6.05268 7.86739 6 8 6ZM5.5 12.5C5.5 12.3674 5.55268 12.2402 5.64645 12.1464C5.74021 12.0527 5.86739 12 6 12H10C10.1326 12 10.2598 12.0527 10.3536 12.1464C10.4473 12.2402 10.5 12.3674 10.5 12.5C10.5 12.6326 10.4473 12.7598 10.3536 12.8536C10.2598 12.9473 10.1326 13 10 13H6C5.86739 13 5.74021 12.9473 5.64645 12.8536C5.55268 12.7598 5.5 12.6326 5.5 12.5Z" fill="black"/>
</g>
<defs>
<clipPath id="clip0_104_1842">
<rect width="16" height="16" fill="white"/>
</clipPath>
</defs>
</svg>
