<svg width="16" height="16" viewBox="0 0 16 16" xmlns="http://www.w3.org/2000/svg" fill='currentColor'><g clip-path="url(#clip0_104_1822)"><path d="M5.526 10.2729C4.984 10.2729 4.694 10.8359 4.694 11.8849C4.694 11.9729 4.697 12.0579 4.7 12.1369L6.259 10.9939C6.133 10.5199 5.884 10.2739 5.526 10.2739V10.2729ZM4.794 12.7809C4.92 13.2529 5.166 13.4989 5.526 13.4989C6.066 13.4989 6.356 12.9359 6.356 11.8849C6.356 11.7999 6.353 11.7149 6.35 11.6349L4.794 12.7809Z"/><path d="M9.293 0H4C3.46957 0 2.96086 0.210714 2.58579 0.585786C2.21071 0.960859 2 1.46957 2 2V14C2 14.5304 2.21071 15.0391 2.58579 15.4142C2.96086 15.7893 3.46957 16 4 16H12C12.5304 16 13.0391 15.7893 13.4142 15.4142C13.7893 15.0391 14 14.5304 14 14V4.707C13.9999 4.4418 13.8945 4.18749 13.707 4L10 0.293C9.81251 0.105451 9.5582 5.66374e-05 9.293 0V0ZM9.5 3.5V1.5L12.5 4.5H10.5C10.2348 4.5 9.98043 4.39464 9.79289 4.20711C9.60536 4.01957 9.5 3.76522 9.5 3.5ZM7.05 11.885C7.05 13.3 6.502 14.091 5.526 14.091C4.548 14.09 4 13.3 4 11.885C4 10.473 4.548 9.682 5.526 9.682C6.502 9.682 7.05 10.472 7.05 11.885ZM10.855 13.405V14H7.855V13.405H9.036V10.5H8.986L7.85 11.247V10.559L9.04 9.773H9.73V13.406H10.855V13.405Z"/></g><defs><clipPath id="clip0_104_1822"><rect width="16" height="16"/></clipPath></defs></svg>