<svg width="16" height="16" viewBox="0 0 16 16" xmlns="http://www.w3.org/2000/svg" fill='currentColor'><path d="M4 3.5C4 3.36739 4.05268 3.24021 4.14645 3.14645C4.24021 3.05268 4.36739 3 4.5 3H9.5C9.63261 3 9.75979 3.05268 9.85355 3.14645C9.94732 3.24021 10 3.36739 10 3.5C10 3.63261 9.94732 3.75979 9.85355 3.85355C9.75979 3.94732 9.63261 4 9.5 4H4.5C4.36739 4 4.24021 3.94732 4.14645 3.85355C4.05268 3.75979 4 3.63261 4 3.5ZM4 5.5C4 5.36739 4.05268 5.24021 4.14645 5.14645C4.24021 5.05268 4.36739 5 4.5 5H11.5C11.6326 5 11.7598 5.05268 11.8536 5.14645C11.9473 5.24021 12 5.36739 12 5.5V13.5C12 13.6326 11.9473 13.7598 11.8536 13.8536C11.7598 13.9473 11.6326 14 11.5 14H4.5C4.36739 14 4.24021 13.9473 4.14645 13.8536C4.05268 13.7598 4 13.6326 4 13.5V5.5Z"/><path d="M2 2C2 1.46957 2.21071 0.960859 2.58579 0.585786C2.96086 0.210714 3.46957 0 4 0L12 0C12.5304 0 13.0391 0.210714 13.4142 0.585786C13.7893 0.960859 14 1.46957 14 2V14C14 14.5304 13.7893 15.0391 13.4142 15.4142C13.0391 15.7893 12.5304 16 12 16H4C3.46957 16 2.96086 15.7893 2.58579 15.4142C2.21071 15.0391 2 14.5304 2 14V2ZM12 1H4C3.73478 1 3.48043 1.10536 3.29289 1.29289C3.10536 1.48043 3 1.73478 3 2V14C3 14.2652 3.10536 14.5196 3.29289 14.7071C3.48043 14.8946 3.73478 15 4 15H12C12.2652 15 12.5196 14.8946 12.7071 14.7071C12.8946 14.5196 13 14.2652 13 14V2C13 1.73478 12.8946 1.48043 12.7071 1.29289C12.5196 1.10536 12.2652 1 12 1Z"/></svg>