<svg width="16" height="16" viewBox="0 0 16 16" fill="none" xmlns="http://www.w3.org/2000/svg">
<path d="M8.188 10H7V6.5H8.188C8.41781 6.5 8.64538 6.54526 8.8577 6.63321C9.07002 6.72116 9.26293 6.85006 9.42544 7.01256C9.58794 7.17507 9.71684 7.36798 9.80479 7.5803C9.89274 7.79262 9.938 8.02019 9.938 8.25C9.938 8.47981 9.89274 8.70738 9.80479 8.9197C9.71684 9.13202 9.58794 9.32493 9.42544 9.48744C9.26293 9.64994 9.07002 9.77884 8.8577 9.86679C8.64538 9.95473 8.41781 10 8.188 10Z" fill="black"/>
<path d="M4 0H9.293C9.5582 5.66374e-05 9.81251 0.105451 10 0.293L13.707 4C13.8945 4.18749 13.9999 4.4418 14 4.707V14C14 14.5304 13.7893 15.0391 13.4142 15.4142C13.0391 15.7893 12.5304 16 12 16H4C3.46957 16 2.96086 15.7893 2.58579 15.4142C2.21071 15.0391 2 14.5304 2 14V2C2 1.46957 2.21071 0.960859 2.58579 0.585786C2.96086 0.210714 3.46957 0 4 0V0ZM9.5 1.5V3.5C9.5 3.76522 9.60536 4.01957 9.79289 4.20711C9.98043 4.39464 10.2348 4.5 10.5 4.5H12.5L9.5 1.5ZM7 5.5C6.73478 5.5 6.48043 5.60536 6.29289 5.79289C6.10536 5.98043 6 6.23478 6 6.5V13C6 13.1326 6.05268 13.2598 6.14645 13.3536C6.24021 13.4473 6.36739 13.5 6.5 13.5C6.63261 13.5 6.75979 13.4473 6.85355 13.3536C6.94732 13.2598 7 13.1326 7 13V11H8.188C8.91735 11 9.61682 10.7103 10.1325 10.1945C10.6483 9.67882 10.938 8.97935 10.938 8.25C10.938 7.52065 10.6483 6.82118 10.1325 6.30546C9.61682 5.78973 8.91735 5.5 8.188 5.5H7Z" fill="black"/>
</svg>
