<svg width="16" height="16" viewBox="0 0 16 16" xmlns="http://www.w3.org/2000/svg" fill='currentColor'><path d="M10 7V8.076C10.54 8.242 11 8.673 11 9.3V11.7C11 12.516 10.219 13 9.5 13H6.5C5.781 13 5 12.516 5 11.7V9.3C5 8.673 5.46 8.242 6 8.076V7C6 6.46957 6.21071 5.96086 6.58579 5.58579C6.96086 5.21071 7.46957 5 8 5C8.53043 5 9.03914 5.21071 9.41421 5.58579C9.78929 5.96086 10 6.46957 10 7ZM7 7V8H9V7C9 6.73478 8.89464 6.48043 8.70711 6.29289C8.51957 6.10536 8.26522 6 8 6C7.73478 6 7.48043 6.10536 7.29289 6.29289C7.10536 6.48043 7 6.73478 7 7ZM6 9.3V11.7C6 11.742 6.02 11.807 6.105 11.875C6.21906 11.9595 6.35808 12.0035 6.5 12H9.5C9.64188 12.0033 9.78084 11.9593 9.895 11.875C9.98 11.807 10 11.742 10 11.7V9.3C10 9.258 9.98 9.193 9.895 9.125C9.78094 9.04048 9.64192 8.99649 9.5 9H6.5C6.35808 8.99649 6.21906 9.04048 6.105 9.125C6.02 9.193 6 9.258 6 9.3Z"/><path d="M14 14V4.5L9.5 0H4C3.46957 0 2.96086 0.210714 2.58579 0.585786C2.21071 0.960859 2 1.46957 2 2V14C2 14.5304 2.21071 15.0391 2.58579 15.4142C2.96086 15.7893 3.46957 16 4 16H12C12.5304 16 13.0391 15.7893 13.4142 15.4142C13.7893 15.0391 14 14.5304 14 14ZM9.5 3C9.5 3.39782 9.65804 3.77936 9.93934 4.06066C10.2206 4.34196 10.6022 4.5 11 4.5H13V14C13 14.2652 12.8946 14.5196 12.7071 14.7071C12.5196 14.8946 12.2652 15 12 15H4C3.73478 15 3.48043 14.8946 3.29289 14.7071C3.10536 14.5196 3 14.2652 3 14V2C3 1.73478 3.10536 1.48043 3.29289 1.29289C3.48043 1.10536 3.73478 1 4 1H9.5V3Z"/></svg>