<svg width="16" height="16" viewBox="0 0 16 16" xmlns="http://www.w3.org/2000/svg" fill='currentColor'><g clip-path="url(#clip0_104_1883)"><path d="M9.293 0H4C3.46957 0 2.96086 0.210714 2.58579 0.585786C2.21071 0.960859 2 1.46957 2 2V14C2 14.5304 2.21071 15.0391 2.58579 15.4142C2.96086 15.7893 3.46957 16 4 16H12C12.5304 16 13.0391 15.7893 13.4142 15.4142C13.7893 15.0391 14 14.5304 14 14V4.707C13.9999 4.4418 13.8945 4.18749 13.707 4L10 0.293C9.81251 0.105451 9.5582 5.66374e-05 9.293 0V0ZM9.5 3.5V1.5L12.5 4.5H10.5C10.2348 4.5 9.98043 4.39464 9.79289 4.20711C9.60536 4.01957 9.5 3.76522 9.5 3.5ZM6.5 5.5V6.134L7.049 5.817C7.10589 5.78365 7.16881 5.76188 7.23414 5.75295C7.29947 5.74402 7.36592 5.7481 7.42967 5.76495C7.49342 5.78181 7.55321 5.8111 7.60559 5.85116C7.65797 5.89121 7.70191 5.94123 7.73488 5.99834C7.76785 6.05544 7.7892 6.1185 7.7977 6.18389C7.8062 6.24928 7.80168 6.31571 7.7844 6.37935C7.76713 6.44298 7.73743 6.50257 7.69703 6.55469C7.65663 6.6068 7.60632 6.65041 7.549 6.683L7 7L7.549 7.317C7.60632 7.34959 7.65663 7.3932 7.69703 7.44531C7.73743 7.49743 7.76713 7.55702 7.7844 7.62065C7.80168 7.68429 7.8062 7.75072 7.7977 7.81611C7.7892 7.8815 7.76785 7.94456 7.73488 8.00166C7.70191 8.05877 7.65797 8.10879 7.60559 8.14884C7.55321 8.1889 7.49342 8.21819 7.42967 8.23505C7.36592 8.2519 7.29947 8.25598 7.23414 8.24705C7.16881 8.23812 7.10589 8.21635 7.049 8.183L6.5 7.866V8.5C6.5 8.63261 6.44732 8.75979 6.35355 8.85355C6.25979 8.94732 6.13261 9 6 9C5.86739 9 5.74021 8.94732 5.64645 8.85355C5.55268 8.75979 5.5 8.63261 5.5 8.5V7.866L4.951 8.183C4.89411 8.21635 4.83119 8.23812 4.76586 8.24705C4.70053 8.25598 4.63408 8.2519 4.57033 8.23505C4.50658 8.21819 4.44679 8.1889 4.39441 8.14884C4.34203 8.10879 4.29809 8.05877 4.26512 8.00166C4.23215 7.94456 4.2108 7.8815 4.2023 7.81611C4.1938 7.75072 4.19832 7.68429 4.2156 7.62065C4.23287 7.55702 4.26257 7.49743 4.30297 7.44531C4.34337 7.3932 4.39368 7.34959 4.451 7.317L5 7L4.451 6.683C4.3371 6.61622 4.25423 6.50711 4.22048 6.37946C4.18673 6.25181 4.20484 6.116 4.27086 6.00165C4.33688 5.88731 4.44545 5.80372 4.57287 5.76913C4.70029 5.73453 4.83622 5.75174 4.951 5.817L5.5 6.134V5.5C5.5 5.36739 5.55268 5.24021 5.64645 5.14645C5.74021 5.05268 5.86739 5 6 5C6.13261 5 6.25979 5.05268 6.35355 5.14645C6.44732 5.24021 6.5 5.36739 6.5 5.5ZM4.5 10H9.5C9.63261 10 9.75979 10.0527 9.85355 10.1464C9.94732 10.2402 10 10.3674 10 10.5C10 10.6326 9.94732 10.7598 9.85355 10.8536C9.75979 10.9473 9.63261 11 9.5 11H4.5C4.36739 11 4.24021 10.9473 4.14645 10.8536C4.05268 10.7598 4 10.6326 4 10.5C4 10.3674 4.05268 10.2402 4.14645 10.1464C4.24021 10.0527 4.36739 10 4.5 10ZM4.5 12H9.5C9.63261 12 9.75979 12.0527 9.85355 12.1464C9.94732 12.2402 10 12.3674 10 12.5C10 12.6326 9.94732 12.7598 9.85355 12.8536C9.75979 12.9473 9.63261 13 9.5 13H4.5C4.36739 13 4.24021 12.9473 4.14645 12.8536C4.05268 12.7598 4 12.6326 4 12.5C4 12.3674 4.05268 12.2402 4.14645 12.1464C4.24021 12.0527 4.36739 12 4.5 12Z"/></g><defs><clipPath id="clip0_104_1883"><rect width="16" height="16"/></clipPath></defs></svg>