<svg width="16" height="16" viewBox="0 0 16 16" xmlns="http://www.w3.org/2000/svg" fill='currentColor'><g clip-path="url(#clip0_104_1853)"><path d="M9.293 0H4C3.46957 0 2.96086 0.210714 2.58579 0.585786C2.21071 0.960859 2 1.46957 2 2V14C2 14.5304 2.21071 15.0391 2.58579 15.4142C2.96086 15.7893 3.46957 16 4 16H12C12.5304 16 13.0391 15.7893 13.4142 15.4142C13.7893 15.0391 14 14.5304 14 14V4.707C13.9999 4.4418 13.8945 4.18749 13.707 4L10 0.293C9.81251 0.105451 9.5582 5.66374e-05 9.293 0V0ZM9.5 3.5V1.5L12.5 4.5H10.5C10.2348 4.5 9.98043 4.39464 9.79289 4.20711C9.60536 4.01957 9.5 3.76522 9.5 3.5ZM5.884 6.68L8 9.219L10.116 6.679C10.201 6.57716 10.323 6.51325 10.4551 6.50134C10.5872 6.48943 10.7187 6.5305 10.8205 6.6155C10.9223 6.7005 10.9862 6.82248 10.9982 6.9546C11.0101 7.08672 10.969 7.21816 10.884 7.32L8.651 10L10.884 12.68C10.9651 12.7823 11.0031 12.9122 10.9897 13.042C10.9763 13.1719 10.9127 13.2913 10.8124 13.3749C10.7121 13.4585 10.5832 13.4995 10.453 13.4892C10.3229 13.479 10.2019 13.4182 10.116 13.32L8 10.781L5.884 13.321C5.799 13.4228 5.67702 13.4867 5.5449 13.4987C5.41278 13.5106 5.28134 13.4695 5.1795 13.3845C5.07766 13.2995 5.01375 13.1775 5.00184 13.0454C4.98993 12.9133 5.031 12.7818 5.116 12.68L7.349 10L5.116 7.32C5.0721 7.26982 5.03868 7.21137 5.01771 7.14808C4.99673 7.0848 4.98862 7.01796 4.99386 6.95149C4.9991 6.88503 5.01758 6.82028 5.04821 6.76106C5.07884 6.70185 5.12101 6.64935 5.17223 6.60667C5.22344 6.56399 5.28268 6.53198 5.34645 6.51253C5.41022 6.49308 5.47724 6.48658 5.54356 6.49341C5.60988 6.50025 5.67416 6.52027 5.73263 6.55232C5.79109 6.58436 5.84256 6.62777 5.884 6.68Z"/></g><defs><clipPath id="clip0_104_1853"><rect width="16" height="16"/></clipPath></defs></svg>