<svg width="16" height="16" viewBox="0 0 16 16" xmlns="http://www.w3.org/2000/svg" fill='currentColor'><path d="M8.188 8.5H7V5H8.188C8.65213 5 9.09725 5.18437 9.42544 5.51256C9.75363 5.84075 9.938 6.28587 9.938 6.75C9.938 7.21413 9.75363 7.65925 9.42544 7.98744C9.09725 8.31563 8.65213 8.5 8.188 8.5Z"/><path d="M4 0H12C12.5304 0 13.0391 0.210714 13.4142 0.585786C13.7893 0.960859 14 1.46957 14 2V14C14 14.5304 13.7893 15.0391 13.4142 15.4142C13.0391 15.7893 12.5304 16 12 16H4C3.46957 16 2.96086 15.7893 2.58579 15.4142C2.21071 15.0391 2 14.5304 2 14V2C2 1.46957 2.21071 0.960859 2.58579 0.585786C2.96086 0.210714 3.46957 0 4 0V0ZM7 4C6.73478 4 6.48043 4.10536 6.29289 4.29289C6.10536 4.48043 6 4.73478 6 5V11.5C6 11.6326 6.05268 11.7598 6.14645 11.8536C6.24021 11.9473 6.36739 12 6.5 12C6.63261 12 6.75979 11.9473 6.85355 11.8536C6.94732 11.7598 7 11.6326 7 11.5V9.5H8.188C8.91735 9.5 9.61682 9.21027 10.1325 8.69454C10.6483 8.17882 10.938 7.47935 10.938 6.75C10.938 6.02065 10.6483 5.32118 10.1325 4.80546C9.61682 4.28973 8.91735 4 8.188 4H7Z"/></svg>