<svg width="16" height="16" viewBox="0 0 16 16" xmlns="http://www.w3.org/2000/svg" fill='currentColor'><g clip-path="url(#clip0_104_1984)"><path d="M12 0H4C3.46957 0 2.96086 0.210714 2.58579 0.585786C2.21071 0.960859 2 1.46957 2 2V14C2 14.5304 2.21071 15.0391 2.58579 15.4142C2.96086 15.7893 3.46957 16 4 16H12C12.5304 16 13.0391 15.7893 13.4142 15.4142C13.7893 15.0391 14 14.5304 14 14V2C14 1.46957 13.7893 0.960859 13.4142 0.585786C13.0391 0.210714 12.5304 0 12 0V0ZM5.057 4H10.943L11 6H10.5C10.32 4.904 10.144 4.808 8.806 4.765L8.508 4.755V10.845C8.508 11.315 8.608 11.427 9.411 11.5V12H6.59V11.5C7.389 11.427 7.488 11.316 7.488 10.846V4.755L7.195 4.765C5.856 4.808 5.68 4.905 5.5 6H5L5.057 4Z"/></g><defs><clipPath id="clip0_104_1984"><rect width="16" height="16"/></clipPath></defs></svg>