<svg width="16" height="16" viewBox="0 0 16 16" fill="none" xmlns="http://www.w3.org/2000/svg">
<g clip-path="url(#clip0_104_2014)">
<path d="M10.304 3.12999C10.449 3.10101 10.5987 3.10455 10.7422 3.14036C10.8856 3.17617 11.0194 3.24337 11.1338 3.3371C11.2482 3.43083 11.3404 3.54877 11.4037 3.68242C11.467 3.81607 11.4999 3.9621 11.5 4.10999V5.90999L9 6.40999V11.5C9 11.995 8.699 12.383 8.338 12.623C7.974 12.866 7.499 13 7 13C6.5 13 6.026 12.866 5.662 12.623C5.302 12.383 5 11.995 5 11.5C5 11.005 5.301 10.617 5.662 10.377C6.026 10.134 6.501 9.99999 7 9.99999C7.356 9.99999 7.7 10.068 8 10.196V4.40999C8.00014 4.1789 8.08031 3.95499 8.22689 3.77633C8.37346 3.59767 8.57739 3.47529 8.804 3.42999L10.304 3.12999Z" fill="black"/>
<path d="M4 0C3.46957 0 2.96086 0.210714 2.58579 0.585786C2.21071 0.960859 2 1.46957 2 2V14C2 14.5304 2.21071 15.0391 2.58579 15.4142C2.96086 15.7893 3.46957 16 4 16H12C12.5304 16 13.0391 15.7893 13.4142 15.4142C13.7893 15.0391 14 14.5304 14 14V2C14 1.46957 13.7893 0.960859 13.4142 0.585786C13.0391 0.210714 12.5304 0 12 0L4 0ZM4 1H12C12.2652 1 12.5196 1.10536 12.7071 1.29289C12.8946 1.48043 13 1.73478 13 2V14C13 14.2652 12.8946 14.5196 12.7071 14.7071C12.5196 14.8946 12.2652 15 12 15H4C3.73478 15 3.48043 14.8946 3.29289 14.7071C3.10536 14.5196 3 14.2652 3 14V2C3 1.73478 3.10536 1.48043 3.29289 1.29289C3.48043 1.10536 3.73478 1 4 1Z" fill="black"/>
</g>
<defs>
<clipPath id="clip0_104_2014">
<rect width="16" height="16" fill="white"/>
</clipPath>
</defs>
</svg>
