<svg width="16" height="16" viewBox="0 0 16 16" xmlns="http://www.w3.org/2000/svg" fill='currentColor'><path d="M6.64598 5.64602C6.69247 5.59953 6.74765 5.56266 6.80839 5.5375C6.86913 5.51234 6.93423 5.49939 6.99998 5.49939C7.06572 5.49939 7.13082 5.51234 7.19156 5.5375C7.2523 5.56266 7.30749 5.59953 7.35398 5.64602C7.40047 5.69251 7.43734 5.7477 7.4625 5.80844C7.48766 5.86918 7.50061 5.93428 7.50061 6.00002C7.50061 6.06577 7.48766 6.13087 7.4625 6.19161C7.43734 6.25234 7.40047 6.30753 7.35398 6.35402L5.70698 8.00002L7.35398 9.64602C7.44786 9.73991 7.50061 9.86725 7.50061 10C7.50061 10.1328 7.44786 10.2601 7.35398 10.354C7.26009 10.4479 7.13275 10.5007 6.99998 10.5007C6.8672 10.5007 6.73986 10.4479 6.64598 10.354L4.64598 8.35402C4.59941 8.30758 4.56247 8.2524 4.53727 8.19165C4.51206 8.13091 4.49908 8.06579 4.49908 8.00002C4.49908 7.93425 4.51206 7.86913 4.53727 7.80839C4.56247 7.74764 4.59941 7.69247 4.64598 7.64602L6.64598 5.64602ZM9.35398 5.64602C9.30749 5.59953 9.2523 5.56266 9.19156 5.5375C9.13082 5.51234 9.06572 5.49939 8.99998 5.49939C8.93423 5.49939 8.86913 5.51234 8.80839 5.5375C8.74765 5.56266 8.69247 5.59953 8.64598 5.64602C8.59949 5.69251 8.56261 5.7477 8.53745 5.80844C8.5123 5.86918 8.49935 5.93428 8.49935 6.00002C8.49935 6.06577 8.5123 6.13087 8.53745 6.19161C8.56261 6.25234 8.59949 6.30753 8.64598 6.35402L10.293 8.00002L8.64598 9.64602C8.55209 9.73991 8.49935 9.86725 8.49935 10C8.49935 10.1328 8.55209 10.2601 8.64598 10.354C8.73986 10.4479 8.8672 10.5007 8.99998 10.5007C9.13275 10.5007 9.26009 10.4479 9.35398 10.354L11.354 8.35402C11.4005 8.30758 11.4375 8.2524 11.4627 8.19165C11.4879 8.13091 11.5009 8.06579 11.5009 8.00002C11.5009 7.93425 11.4879 7.86913 11.4627 7.80839C11.4375 7.74764 11.4005 7.69247 11.354 7.64602L9.35398 5.64602Z"/><path d="M2 2C2 1.46957 2.21071 0.960859 2.58579 0.585786C2.96086 0.210714 3.46957 0 4 0L12 0C12.5304 0 13.0391 0.210714 13.4142 0.585786C13.7893 0.960859 14 1.46957 14 2V14C14 14.5304 13.7893 15.0391 13.4142 15.4142C13.0391 15.7893 12.5304 16 12 16H4C3.46957 16 2.96086 15.7893 2.58579 15.4142C2.21071 15.0391 2 14.5304 2 14V2ZM12 1H4C3.73478 1 3.48043 1.10536 3.29289 1.29289C3.10536 1.48043 3 1.73478 3 2V14C3 14.2652 3.10536 14.5196 3.29289 14.7071C3.48043 14.8946 3.73478 15 4 15H12C12.2652 15 12.5196 14.8946 12.7071 14.7071C12.8946 14.5196 13 14.2652 13 14V2C13 1.73478 12.8946 1.48043 12.7071 1.29289C12.5196 1.10536 12.2652 1 12 1Z"/></svg>