<svg width="16" height="16" viewBox="0 0 16 16" xmlns="http://www.w3.org/2000/svg" fill='currentColor'><path d="M14 4.5V14C14 14.5304 13.7893 15.0391 13.4142 15.4142C13.0391 15.7893 12.5304 16 12 16H4C3.46957 16 2.96086 15.7893 2.58579 15.4142C2.21071 15.0391 2 14.5304 2 14V2C2 1.46957 2.21071 0.960859 2.58579 0.585786C2.96086 0.210714 3.46957 0 4 0L9.5 0L14 4.5ZM11 4.5C10.6022 4.5 10.2206 4.34196 9.93934 4.06066C9.65804 3.77936 9.5 3.39782 9.5 3V1H4C3.73478 1 3.48043 1.10536 3.29289 1.29289C3.10536 1.48043 3 1.73478 3 2V14C3 14.2652 3.10536 14.5196 3.29289 14.7071C3.48043 14.8946 3.73478 15 4 15H12C12.2652 15 12.5196 14.8946 12.7071 14.7071C12.8946 14.5196 13 14.2652 13 14V4.5H11Z"/><path d="M4.5 12.5C4.5 12.3674 4.55268 12.2402 4.64645 12.1464C4.74021 12.0527 4.86739 12 5 12H8C8.13261 12 8.25979 12.0527 8.35355 12.1464C8.44732 12.2402 8.5 12.3674 8.5 12.5C8.5 12.6326 8.44732 12.7598 8.35355 12.8536C8.25979 12.9473 8.13261 13 8 13H5C4.86739 13 4.74021 12.9473 4.64645 12.8536C4.55268 12.7598 4.5 12.6326 4.5 12.5ZM4.5 10.5C4.5 10.3674 4.55268 10.2402 4.64645 10.1464C4.74021 10.0527 4.86739 10 5 10H11C11.1326 10 11.2598 10.0527 11.3536 10.1464C11.4473 10.2402 11.5 10.3674 11.5 10.5C11.5 10.6326 11.4473 10.7598 11.3536 10.8536C11.2598 10.9473 11.1326 11 11 11H5C4.86739 11 4.74021 10.9473 4.64645 10.8536C4.55268 10.7598 4.5 10.6326 4.5 10.5ZM6.139 6.792L7.469 7.678L9.323 5.823C9.36011 5.78578 9.40802 5.7612 9.4599 5.75277C9.51178 5.74433 9.565 5.75246 9.612 5.776L11.5 6.75V8.5C11.5 8.63261 11.4473 8.75979 11.3536 8.85355C11.2598 8.94732 11.1326 9 11 9H5C4.86739 9 4.74021 8.94732 4.64645 8.85355C4.55268 8.75979 4.5 8.63261 4.5 8.5V8C4.5 8 6.04 6.726 6.139 6.792ZM6.25 6C6.44891 6 6.63968 5.92098 6.78033 5.78033C6.92098 5.63968 7 5.44891 7 5.25C7 5.05109 6.92098 4.86032 6.78033 4.71967C6.63968 4.57902 6.44891 4.5 6.25 4.5C6.05109 4.5 5.86032 4.57902 5.71967 4.71967C5.57902 4.86032 5.5 5.05109 5.5 5.25C5.5 5.44891 5.57902 5.63968 5.71967 5.78033C5.86032 5.92098 6.05109 6 6.25 6Z"/></svg>