<svg width="16" height="16" viewBox="0 0 16 16" fill="none" xmlns="http://www.w3.org/2000/svg">
<g clip-path="url(#clip0_104_1807)">
<path d="M9.293 0H4C3.46957 0 2.96086 0.210714 2.58579 0.585786C2.21071 0.960859 2 1.46957 2 2V14C2 14.5304 2.21071 15.0391 2.58579 15.4142C2.96086 15.7893 3.46957 16 4 16H12C12.5304 16 13.0391 15.7893 13.4142 15.4142C13.7893 15.0391 14 14.5304 14 14V4.707C13.9999 4.4418 13.8945 4.18749 13.707 4L10 0.293C9.81251 0.105451 9.5582 5.66374e-05 9.293 0V0ZM9.5 3.5V1.5L12.5 4.5H10.5C10.2348 4.5 9.98043 4.39464 9.79289 4.20711C9.60536 4.01957 9.5 3.76522 9.5 3.5ZM8.5 7.5V11.293L9.646 10.146C9.73989 10.0521 9.86722 9.99937 10 9.99937C10.1328 9.99937 10.2601 10.0521 10.354 10.146C10.4479 10.2399 10.5006 10.3672 10.5006 10.5C10.5006 10.6328 10.4479 10.7601 10.354 10.854L8.354 12.854C8.30755 12.9006 8.25238 12.9375 8.19163 12.9627C8.13089 12.9879 8.06577 13.0009 8 13.0009C7.93423 13.0009 7.86911 12.9879 7.80837 12.9627C7.74762 12.9375 7.69245 12.9006 7.646 12.854L5.646 10.854C5.55211 10.7601 5.49937 10.6328 5.49937 10.5C5.49937 10.3672 5.55211 10.2399 5.646 10.146C5.73989 10.0521 5.86722 9.99937 6 9.99937C6.13278 9.99937 6.26011 10.0521 6.354 10.146L7.5 11.293V7.5C7.5 7.36739 7.55268 7.24021 7.64645 7.14645C7.74021 7.05268 7.86739 7 8 7C8.13261 7 8.25979 7.05268 8.35355 7.14645C8.44732 7.24021 8.5 7.36739 8.5 7.5Z" fill="black"/>
</g>
<defs>
<clipPath id="clip0_104_1807">
<rect width="16" height="16" fill="white"/>
</clipPath>
</defs>
</svg>
