<svg width="16" height="16" viewBox="0 0 16 16" xmlns="http://www.w3.org/2000/svg" fill='currentColor'><g clip-path="url(#clip0_104_1893)"><path d="M9.293 0H4C3.46957 0 2.96086 0.210714 2.58579 0.585786C2.21071 0.960859 2 1.46957 2 2V14C2 14.5304 2.21071 15.0391 2.58579 15.4142C2.96086 15.7893 3.46957 16 4 16H12C12.5304 16 13.0391 15.7893 13.4142 15.4142C13.7893 15.0391 14 14.5304 14 14V4.707C13.9999 4.4418 13.8945 4.18749 13.707 4L10 0.293C9.81251 0.105451 9.5582 5.66374e-05 9.293 0V0ZM9.5 3.5V1.5L12.5 4.5H10.5C10.2348 4.5 9.98043 4.39464 9.79289 4.20711C9.60536 4.01957 9.5 3.76522 9.5 3.5ZM11 6.64V8.39L9 8.89V12.5C9 12.995 8.699 13.383 8.338 13.623C7.974 13.866 7.499 14 7 14C6.5 14 6.026 13.866 5.662 13.623C5.302 13.383 5 12.995 5 12.5C5 12.005 5.301 11.617 5.662 11.377C6.026 11.134 6.501 11 7 11C7.356 11 7.7 11.068 8 11.196V6.89C8.00001 6.66707 8.0745 6.45054 8.21166 6.27479C8.34881 6.09905 8.54075 5.97417 8.757 5.92L9.757 5.67C9.90445 5.63306 10.0584 5.63023 10.2071 5.6617C10.3558 5.69318 10.4954 5.75815 10.6152 5.85167C10.735 5.94518 10.832 6.06479 10.8987 6.20139C10.9653 6.33799 11 6.48799 11 6.64Z"/></g><defs><clipPath id="clip0_104_1893"><rect width="16" height="16"/></clipPath></defs></svg>