<svg width="16" height="16" viewBox="0 0 16 16" fill="none" xmlns="http://www.w3.org/2000/svg">
<g clip-path="url(#clip0_104_1960)">
<path d="M9.293 0H4C3.46957 0 2.96086 0.210714 2.58579 0.585786C2.21071 0.960859 2 1.46957 2 2V14C2 14.5304 2.21071 15.0391 2.58579 15.4142C2.96086 15.7893 3.46957 16 4 16H12C12.5304 16 13.0391 15.7893 13.4142 15.4142C13.7893 15.0391 14 14.5304 14 14V4.707C13.9999 4.4418 13.8945 4.18749 13.707 4L10 0.293C9.81251 0.105451 9.5582 5.66374e-05 9.293 0V0ZM9.5 3.5V1.5L12.5 4.5H10.5C10.2348 4.5 9.98043 4.39464 9.79289 4.20711C9.60536 4.01957 9.5 3.76522 9.5 3.5ZM6.854 7.146L8 8.293L9.146 7.146C9.23989 7.05211 9.36722 6.99937 9.5 6.99937C9.63278 6.99937 9.76011 7.05211 9.854 7.146C9.94789 7.23989 10.0006 7.36722 10.0006 7.5C10.0006 7.63278 9.94789 7.76011 9.854 7.854L8.707 9L9.854 10.146C9.94789 10.2399 10.0006 10.3672 10.0006 10.5C10.0006 10.6328 9.94789 10.7601 9.854 10.854C9.76011 10.9479 9.63278 11.0006 9.5 11.0006C9.36722 11.0006 9.23989 10.9479 9.146 10.854L8 9.707L6.854 10.854C6.76011 10.9479 6.63278 11.0006 6.5 11.0006C6.36722 11.0006 6.23989 10.9479 6.146 10.854C6.05211 10.7601 5.99937 10.6328 5.99937 10.5C5.99937 10.3672 6.05211 10.2399 6.146 10.146L7.293 9L6.146 7.854C6.09951 7.80751 6.06264 7.75232 6.03748 7.69158C6.01232 7.63084 5.99937 7.56574 5.99937 7.5C5.99937 7.43426 6.01232 7.36916 6.03748 7.30842C6.06264 7.24768 6.09951 7.19249 6.146 7.146C6.19249 7.09951 6.24768 7.06264 6.30842 7.03748C6.36916 7.01232 6.43426 6.99937 6.5 6.99937C6.56574 6.99937 6.63084 7.01232 6.69158 7.03748C6.75232 7.06264 6.80751 7.09951 6.854 7.146Z" fill="black"/>
</g>
<defs>
<clipPath id="clip0_104_1960">
<rect width="16" height="16" fill="white"/>
</clipPath>
</defs>
</svg>
