<svg width="16" height="16" viewBox="0 0 16 16" xmlns="http://www.w3.org/2000/svg" fill='currentColor'><g clip-path="url(#clip0_104_1847)"><path d="M5 7.5C5 7.36739 5.05268 7.24021 5.14645 7.14645C5.24021 7.05268 5.36739 7 5.5 7H10.5C10.6326 7 10.7598 7.05268 10.8536 7.14645C10.9473 7.24021 11 7.36739 11 7.5V9.5C11 9.63261 10.9473 9.75979 10.8536 9.85355C10.7598 9.94732 10.6326 10 10.5 10H5.5C5.36739 10 5.24021 9.94732 5.14645 9.85355C5.05268 9.75979 5 9.63261 5 9.5V7.5Z"/><path d="M9.293 0H4C3.46957 0 2.96086 0.210714 2.58579 0.585786C2.21071 0.960859 2 1.46957 2 2V14C2 14.5304 2.21071 15.0391 2.58579 15.4142C2.96086 15.7893 3.46957 16 4 16H12C12.5304 16 13.0391 15.7893 13.4142 15.4142C13.7893 15.0391 14 14.5304 14 14V4.707C13.9999 4.4418 13.8945 4.18749 13.707 4L10 0.293C9.81251 0.105451 9.5582 5.66374e-05 9.293 0V0ZM9.5 3.5V1.5L12.5 4.5H10.5C10.2348 4.5 9.98043 4.39464 9.79289 4.20711C9.60536 4.01957 9.5 3.76522 9.5 3.5ZM8.5 6H10.5C10.8978 6 11.2794 6.15804 11.5607 6.43934C11.842 6.72064 12 7.10218 12 7.5V9.5C12 9.89782 11.842 10.2794 11.5607 10.5607C11.2794 10.842 10.8978 11 10.5 11H10.027L10.474 12.342C10.5102 12.4662 10.4969 12.5995 10.4369 12.7141C10.3769 12.8286 10.2748 12.9154 10.1521 12.9563C10.0294 12.9972 9.89567 12.989 9.77892 12.9334C9.66217 12.8777 9.57152 12.779 9.526 12.658L8.973 11H8.5V12C8.5 12.1326 8.44732 12.2598 8.35355 12.3536C8.25979 12.4473 8.13261 12.5 8 12.5C7.86739 12.5 7.74021 12.4473 7.64645 12.3536C7.55268 12.2598 7.5 12.1326 7.5 12V11H7.027L6.474 12.658C6.45517 12.7226 6.4235 12.7827 6.3809 12.8347C6.33829 12.8868 6.28563 12.9297 6.22605 12.9609C6.16648 12.9921 6.10122 13.011 6.03418 13.0164C5.96713 13.0218 5.89969 13.0136 5.83589 12.9923C5.77208 12.9711 5.71322 12.9371 5.66283 12.8926C5.61244 12.8481 5.57156 12.7938 5.54262 12.7331C5.51369 12.6724 5.49731 12.6064 5.49445 12.5392C5.49159 12.472 5.50233 12.405 5.526 12.342L5.973 11H5.5C5.10218 11 4.72064 10.842 4.43934 10.5607C4.15804 10.2794 4 9.89782 4 9.5V7.5C4 7.10218 4.15804 6.72064 4.43934 6.43934C4.72064 6.15804 5.10218 6 5.5 6H7.5C7.5 5.86739 7.55268 5.74021 7.64645 5.64645C7.74021 5.55268 7.86739 5.5 8 5.5C8.13261 5.5 8.25979 5.55268 8.35355 5.64645C8.44732 5.74021 8.5 5.86739 8.5 6Z"/></g><defs><clipPath id="clip0_104_1847"><rect width="16" height="16"/></clipPath></defs></svg>