<svg width="16" height="16" viewBox="0 0 16 16" fill="none" xmlns="http://www.w3.org/2000/svg">
<g clip-path="url(#clip0_104_1765)">
<path d="M12 0H4C3.46957 0 2.96086 0.210714 2.58579 0.585786C2.21071 0.960859 2 1.46957 2 2V14C2 14.5304 2.21071 15.0391 2.58579 15.4142C2.96086 15.7893 3.46957 16 4 16H12C12.5304 16 13.0391 15.7893 13.4142 15.4142C13.7893 15.0391 14 14.5304 14 14V2C14 1.46957 13.7893 0.960859 13.4142 0.585786C13.0391 0.210714 12.5304 0 12 0V0ZM8 5C8.13261 5 8.25979 5.05268 8.35355 5.14645C8.44732 5.24021 8.5 5.36739 8.5 5.5V9.293L9.646 8.146C9.73989 8.05211 9.86722 7.99937 10 7.99937C10.1328 7.99937 10.2601 8.05211 10.354 8.146C10.4479 8.23989 10.5006 8.36722 10.5006 8.5C10.5006 8.63278 10.4479 8.76011 10.354 8.854L8.354 10.854C8.30755 10.9006 8.25238 10.9375 8.19163 10.9627C8.13089 10.9879 8.06577 11.0009 8 11.0009C7.93423 11.0009 7.86911 10.9879 7.80837 10.9627C7.74762 10.9375 7.69245 10.9006 7.646 10.854L5.646 8.854C5.59951 8.80751 5.56264 8.75232 5.53748 8.69158C5.51232 8.63084 5.49937 8.56574 5.49937 8.5C5.49937 8.43426 5.51232 8.36916 5.53748 8.30842C5.56264 8.24768 5.59951 8.19249 5.646 8.146C5.73989 8.05211 5.86722 7.99937 6 7.99937C6.06574 7.99937 6.13084 8.01232 6.19158 8.03748C6.25232 8.06264 6.30751 8.09951 6.354 8.146L7.5 9.293V5.5C7.5 5.36739 7.55268 5.24021 7.64645 5.14645C7.74021 5.05268 7.86739 5 8 5Z" fill="black"/>
</g>
<defs>
<clipPath id="clip0_104_1765">
<rect width="16" height="16" fill="white"/>
</clipPath>
</defs>
</svg>
