<svg width="16" height="16" viewBox="0 0 16 16" xmlns="http://www.w3.org/2000/svg" fill='currentColor'><g clip-path="url(#clip0_104_1860)"><path d="M9.293 0H4C3.46957 0 2.96086 0.210714 2.58579 0.585786C2.21071 0.960859 2 1.46957 2 2V14C2 14.5304 2.21071 15.0391 2.58579 15.4142C2.96086 15.7893 3.46957 16 4 16H12C12.5304 16 13.0391 15.7893 13.4142 15.4142C13.7893 15.0391 14 14.5304 14 14V4.707C13.9999 4.4418 13.8945 4.18749 13.707 4L10 0.293C9.81251 0.105451 9.5582 5.66374e-05 9.293 0V0ZM9.5 3.5V1.5L12.5 4.5H10.5C10.2348 4.5 9.98043 4.39464 9.79289 4.20711C9.60536 4.01957 9.5 3.76522 9.5 3.5ZM5.057 6H10.943L11 8H10.5C10.32 6.904 10.144 6.808 8.806 6.765L8.508 6.755V11.845C8.508 12.315 8.608 12.427 9.411 12.5V13H6.59V12.5C7.389 12.427 7.488 12.316 7.488 11.846V6.755L7.195 6.765C5.856 6.808 5.68 6.905 5.5 8H5L5.057 6Z"/></g><defs><clipPath id="clip0_104_1860"><rect width="16" height="16"/></clipPath></defs></svg>