<svg width="16" height="16" viewBox="0 0 16 16" xmlns="http://www.w3.org/2000/svg" fill='currentColor'><g clip-path="url(#clip0_104_1827)"><path d="M4 0H9.293C9.5582 5.66374e-05 9.81251 0.105451 10 0.293L13.707 4C13.8945 4.18749 13.9999 4.4418 14 4.707V9H2V2C2 1.46957 2.21071 0.960859 2.58579 0.585786C2.96086 0.210714 3.46957 0 4 0V0ZM9.5 1.5V3.5C9.5 3.76522 9.60536 4.01957 9.79289 4.20711C9.98043 4.39464 10.2348 4.5 10.5 4.5H12.5L9.5 1.5ZM2 12H14V14C14 14.5304 13.7893 15.0391 13.4142 15.4142C13.0391 15.7893 12.5304 16 12 16H4C3.46957 16 2.96086 15.7893 2.58579 15.4142C2.21071 15.0391 2 14.5304 2 14V12ZM0.5 10C0.367392 10 0.240215 10.0527 0.146447 10.1464C0.0526784 10.2402 0 10.3674 0 10.5C0 10.6326 0.0526784 10.7598 0.146447 10.8536C0.240215 10.9473 0.367392 11 0.5 11H15.5C15.6326 11 15.7598 10.9473 15.8536 10.8536C15.9473 10.7598 16 10.6326 16 10.5C16 10.3674 15.9473 10.2402 15.8536 10.1464C15.7598 10.0527 15.6326 10 15.5 10H0.5Z"/></g><defs><clipPath id="clip0_104_1827"><rect width="16" height="16"/></clipPath></defs></svg>