<svg width="16" height="16" viewBox="0 0 16 16" xmlns="http://www.w3.org/2000/svg" fill='currentColor'><g clip-path="url(#clip0_104_1787)"><path d="M10.854 6.14604C10.9006 6.19248 10.9375 6.24766 10.9627 6.30841C10.9879 6.36915 11.0009 6.43427 11.0009 6.50004C11.0009 6.56581 10.9879 6.63093 10.9627 6.69167C10.9375 6.75242 10.9006 6.80759 10.854 6.85404L7.85399 9.85404C7.80755 9.9006 7.75237 9.93754 7.69162 9.96275C7.63088 9.98796 7.56576 10.0009 7.49999 10.0009C7.43422 10.0009 7.3691 9.98796 7.30836 9.96275C7.24761 9.93754 7.19244 9.9006 7.14599 9.85404L5.64599 8.35404C5.5995 8.30755 5.56263 8.25236 5.53747 8.19162C5.51231 8.13088 5.49936 8.06578 5.49936 8.00004C5.49936 7.9343 5.51231 7.86919 5.53747 7.80846C5.56263 7.74772 5.5995 7.69253 5.64599 7.64604C5.69248 7.59955 5.74767 7.56267 5.80841 7.53752C5.86915 7.51236 5.93425 7.49941 5.99999 7.49941C6.06573 7.49941 6.13084 7.51236 6.19157 7.53752C6.25231 7.56267 6.3075 7.59955 6.35399 7.64604L7.49999 8.79304L10.146 6.14604C10.1924 6.09948 10.2476 6.06253 10.3084 6.03733C10.3691 6.01212 10.4342 5.99915 10.5 5.99915C10.5658 5.99915 10.6309 6.01212 10.6916 6.03733C10.7524 6.06253 10.8075 6.09948 10.854 6.14604Z"/><path d="M4 0C3.46957 0 2.96086 0.210714 2.58579 0.585786C2.21071 0.960859 2 1.46957 2 2V14C2 14.5304 2.21071 15.0391 2.58579 15.4142C2.96086 15.7893 3.46957 16 4 16H12C12.5304 16 13.0391 15.7893 13.4142 15.4142C13.7893 15.0391 14 14.5304 14 14V2C14 1.46957 13.7893 0.960859 13.4142 0.585786C13.0391 0.210714 12.5304 0 12 0L4 0ZM4 1H12C12.2652 1 12.5196 1.10536 12.7071 1.29289C12.8946 1.48043 13 1.73478 13 2V14C13 14.2652 12.8946 14.5196 12.7071 14.7071C12.5196 14.8946 12.2652 15 12 15H4C3.73478 15 3.48043 14.8946 3.29289 14.7071C3.10536 14.5196 3 14.2652 3 14V2C3 1.73478 3.10536 1.48043 3.29289 1.29289C3.48043 1.10536 3.73478 1 4 1Z"/></g><defs><clipPath id="clip0_104_1787"><rect width="16" height="16"/></clipPath></defs></svg>