<svg width="16" height="16" viewBox="0 0 16 16" xmlns="http://www.w3.org/2000/svg" fill='currentColor'><path d="M5.88399 6.67994C5.84255 6.62771 5.79109 6.5843 5.73262 6.55226C5.67415 6.52021 5.60987 6.50019 5.54355 6.49336C5.47723 6.48652 5.41021 6.49302 5.34644 6.51247C5.28267 6.53192 5.22344 6.56393 5.17222 6.60661C5.121 6.64929 5.07883 6.70179 5.0482 6.76101C5.01757 6.82022 4.99909 6.88497 4.99386 6.95143C4.98862 7.0179 4.99672 7.08474 5.0177 7.14803C5.03867 7.21131 5.07209 7.26976 5.11599 7.31994L7.34899 9.99994L5.11599 12.6799C5.03486 12.7822 4.99693 12.9121 5.01031 13.042C5.02368 13.1718 5.08731 13.2913 5.18758 13.3748C5.28786 13.4584 5.41684 13.4994 5.54696 13.4892C5.67709 13.4789 5.79805 13.4182 5.88399 13.3199L7.99999 10.7809L10.116 13.3209C10.201 13.4228 10.323 13.4867 10.4551 13.4986C10.5205 13.5045 10.5864 13.4974 10.6491 13.4779C10.7118 13.4583 10.7701 13.4265 10.8205 13.3844C10.8709 13.3424 10.9126 13.2907 10.943 13.2326C10.9735 13.1744 10.9923 13.1108 10.9981 13.0453C11.004 12.9799 10.997 12.914 10.9774 12.8513C10.9578 12.7886 10.9261 12.7304 10.884 12.6799L8.65099 9.99994L10.884 7.31994C10.9651 7.21769 11.0031 7.08776 10.9897 6.95792C10.9763 6.82808 10.9127 6.70861 10.8124 6.62505C10.7121 6.54149 10.5831 6.50045 10.453 6.51071C10.3229 6.52096 10.2019 6.5817 10.116 6.67994L7.99999 9.21894L5.88399 6.67894V6.67994Z"/><path d="M14 14V4.5L9.5 0H4C3.46957 0 2.96086 0.210714 2.58579 0.585786C2.21071 0.960859 2 1.46957 2 2V14C2 14.5304 2.21071 15.0391 2.58579 15.4142C2.96086 15.7893 3.46957 16 4 16H12C12.5304 16 13.0391 15.7893 13.4142 15.4142C13.7893 15.0391 14 14.5304 14 14ZM9.5 3C9.5 3.39782 9.65804 3.77936 9.93934 4.06066C10.2206 4.34196 10.6022 4.5 11 4.5H13V14C13 14.2652 12.8946 14.5196 12.7071 14.7071C12.5196 14.8946 12.2652 15 12 15H4C3.73478 15 3.48043 14.8946 3.29289 14.7071C3.10536 14.5196 3 14.2652 3 14V2C3 1.73478 3.10536 1.48043 3.29289 1.29289C3.48043 1.10536 3.73478 1 4 1H9.5V3Z"/></svg>