<svg width="16" height="16" viewBox="0 0 16 16" fill="none" xmlns="http://www.w3.org/2000/svg">
<path d="M8.50001 11.5C8.50001 11.6326 8.44733 11.7598 8.35356 11.8535C8.25979 11.9473 8.13261 12 8.00001 12C7.8674 12 7.74022 11.9473 7.64645 11.8535C7.55268 11.7598 7.50001 11.6326 7.50001 11.5V7.70698L6.35401 8.85398C6.26012 8.94786 6.13278 9.00061 6.00001 9.00061C5.86723 9.00061 5.73989 8.94786 5.64601 8.85398C5.55212 8.76009 5.49937 8.63275 5.49937 8.49998C5.49937 8.3672 5.55212 8.23986 5.64601 8.14598L7.64601 6.14598C7.69245 6.09941 7.74763 6.06247 7.80837 6.03727C7.86912 6.01206 7.93424 5.99908 8.00001 5.99908C8.06577 5.99908 8.13089 6.01206 8.19164 6.03727C8.25238 6.06247 8.30756 6.09941 8.35401 6.14598L10.354 8.14598C10.4479 8.23986 10.5006 8.3672 10.5006 8.49998C10.5006 8.63275 10.4479 8.76009 10.354 8.85398C10.2601 8.94786 10.1328 9.00061 10 9.00061C9.86723 9.00061 9.73989 8.94786 9.64601 8.85398L8.50001 7.70698V11.5Z" fill="black"/>
<path d="M14 14V4.5L9.5 0H4C3.46957 0 2.96086 0.210714 2.58579 0.585786C2.21071 0.960859 2 1.46957 2 2V14C2 14.5304 2.21071 15.0391 2.58579 15.4142C2.96086 15.7893 3.46957 16 4 16H12C12.5304 16 13.0391 15.7893 13.4142 15.4142C13.7893 15.0391 14 14.5304 14 14ZM9.5 3C9.5 3.39782 9.65804 3.77936 9.93934 4.06066C10.2206 4.34196 10.6022 4.5 11 4.5H13V14C13 14.2652 12.8946 14.5196 12.7071 14.7071C12.5196 14.8946 12.2652 15 12 15H4C3.73478 15 3.48043 14.8946 3.29289 14.7071C3.10536 14.5196 3 14.2652 3 14V2C3 1.73478 3.10536 1.48043 3.29289 1.29289C3.48043 1.10536 3.73478 1 4 1H9.5V3Z" fill="black"/>
</svg>
