<svg width="16" height="16" viewBox="0 0 16 16" fill="none" xmlns="http://www.w3.org/2000/svg">
<g clip-path="url(#clip0_104_2077)">
<path d="M12 0H4C3.46957 0 2.96086 0.210714 2.58579 0.585786C2.21071 0.960859 2 1.46957 2 2V14C2 14.5304 2.21071 15.0391 2.58579 15.4142C2.96086 15.7893 3.46957 16 4 16H12C12.5304 16 13.0391 15.7893 13.4142 15.4142C13.7893 15.0391 14 14.5304 14 14V2C14 1.46957 13.7893 0.960859 13.4142 0.585786C13.0391 0.210714 12.5304 0 12 0V0ZM5 4H11C11.1326 4 11.2598 4.05268 11.3536 4.14645C11.4473 4.24021 11.5 4.36739 11.5 4.5C11.5 4.63261 11.4473 4.75979 11.3536 4.85355C11.2598 4.94732 11.1326 5 11 5H5C4.86739 5 4.74021 4.94732 4.64645 4.85355C4.55268 4.75979 4.5 4.63261 4.5 4.5C4.5 4.36739 4.55268 4.24021 4.64645 4.14645C4.74021 4.05268 4.86739 4 5 4ZM4.5 6.5C4.5 6.36739 4.55268 6.24021 4.64645 6.14645C4.74021 6.05268 4.86739 6 5 6H11C11.1326 6 11.2598 6.05268 11.3536 6.14645C11.4473 6.24021 11.5 6.36739 11.5 6.5C11.5 6.63261 11.4473 6.75979 11.3536 6.85355C11.2598 6.94732 11.1326 7 11 7H5C4.86739 7 4.74021 6.94732 4.64645 6.85355C4.55268 6.75979 4.5 6.63261 4.5 6.5ZM5 8H11C11.1326 8 11.2598 8.05268 11.3536 8.14645C11.4473 8.24021 11.5 8.36739 11.5 8.5C11.5 8.63261 11.4473 8.75979 11.3536 8.85355C11.2598 8.94732 11.1326 9 11 9H5C4.86739 9 4.74021 8.94732 4.64645 8.85355C4.55268 8.75979 4.5 8.63261 4.5 8.5C4.5 8.36739 4.55268 8.24021 4.64645 8.14645C4.74021 8.05268 4.86739 8 5 8ZM5 10H8C8.13261 10 8.25979 10.0527 8.35355 10.1464C8.44732 10.2402 8.5 10.3674 8.5 10.5C8.5 10.6326 8.44732 10.7598 8.35355 10.8536C8.25979 10.9473 8.13261 11 8 11H5C4.86739 11 4.74021 10.9473 4.64645 10.8536C4.55268 10.7598 4.5 10.6326 4.5 10.5C4.5 10.3674 4.55268 10.2402 4.64645 10.1464C4.74021 10.0527 4.86739 10 5 10Z" fill="black"/>
</g>
<defs>
<clipPath id="clip0_104_2077">
<rect width="16" height="16" fill="white"/>
</clipPath>
</defs>
</svg>
