<svg width="16" height="16" viewBox="0 0 16 16" xmlns="http://www.w3.org/2000/svg" fill='currentColor'><g clip-path="url(#clip0_104_1837)"><path d="M9.293 0H4C3.46957 0 2.96086 0.210714 2.58579 0.585786C2.21071 0.960859 2 1.46957 2 2V14C2 14.5304 2.21071 15.0391 2.58579 15.4142C2.96086 15.7893 3.46957 16 4 16H12C12.5304 16 13.0391 15.7893 13.4142 15.4142C13.7893 15.0391 14 14.5304 14 14V4.707C13.9999 4.4418 13.8945 4.18749 13.707 4L10 0.293C9.81251 0.105451 9.5582 5.66374e-05 9.293 0V0ZM9.5 3.5V1.5L12.5 4.5H10.5C10.2348 4.5 9.98043 4.39464 9.79289 4.20711C9.60536 4.01957 9.5 3.76522 9.5 3.5ZM6.646 7.646C6.69249 7.59951 6.74768 7.56264 6.80842 7.53748C6.86916 7.51232 6.93426 7.49937 7 7.49937C7.06574 7.49937 7.13084 7.51232 7.19158 7.53748C7.25232 7.56264 7.30751 7.59951 7.354 7.646C7.40049 7.69249 7.43736 7.74768 7.46252 7.80842C7.48768 7.86916 7.50063 7.93426 7.50063 8C7.50063 8.06574 7.48768 8.13084 7.46252 8.19158C7.43736 8.25232 7.40049 8.30751 7.354 8.354L5.707 10L7.354 11.646C7.44789 11.7399 7.50063 11.8672 7.50063 12C7.50063 12.1328 7.44789 12.2601 7.354 12.354C7.26011 12.4479 7.13278 12.5006 7 12.5006C6.86722 12.5006 6.73989 12.4479 6.646 12.354L4.646 10.354C4.59944 10.3076 4.56249 10.2524 4.53729 10.1916C4.51208 10.1309 4.49911 10.0658 4.49911 10C4.49911 9.93423 4.51208 9.86911 4.53729 9.80837C4.56249 9.74762 4.59944 9.69245 4.646 9.646L6.646 7.646ZM9.354 7.646L11.354 9.646C11.4006 9.69245 11.4375 9.74762 11.4627 9.80837C11.4879 9.86911 11.5009 9.93423 11.5009 10C11.5009 10.0658 11.4879 10.1309 11.4627 10.1916C11.4375 10.2524 11.4006 10.3076 11.354 10.354L9.354 12.354C9.26011 12.4479 9.13278 12.5006 9 12.5006C8.86722 12.5006 8.73989 12.4479 8.646 12.354C8.55211 12.2601 8.49937 12.1328 8.49937 12C8.49937 11.8672 8.55211 11.7399 8.646 11.646L10.293 10L8.646 8.354C8.59951 8.30751 8.56264 8.25232 8.53748 8.19158C8.51232 8.13084 8.49937 8.06574 8.49937 8C8.49937 7.93426 8.51232 7.86916 8.53748 7.80842C8.56264 7.74768 8.59951 7.69249 8.646 7.646C8.69249 7.59951 8.74768 7.56264 8.80842 7.53748C8.86916 7.51232 8.93426 7.49937 9 7.49937C9.06574 7.49937 9.13084 7.51232 9.19158 7.53748C9.25232 7.56264 9.30751 7.59951 9.354 7.646Z"/></g><defs><clipPath id="clip0_104_1837"><rect width="16" height="16"/></clipPath></defs></svg>