<svg width="16" height="16" viewBox="0 0 16 16" fill="none" xmlns="http://www.w3.org/2000/svg">
<path d="M7 4.25C7 4.34849 6.9806 4.44602 6.94291 4.53701C6.90522 4.62801 6.84997 4.71069 6.78033 4.78033C6.71069 4.84997 6.62801 4.90522 6.53701 4.94291C6.44602 4.9806 6.34849 5 6.25 5C6.15151 5 6.05398 4.9806 5.96299 4.94291C5.87199 4.90522 5.78931 4.84997 5.71967 4.78033C5.65003 4.71069 5.59478 4.62801 5.55709 4.53701C5.5194 4.44602 5.5 4.34849 5.5 4.25C5.5 4.05109 5.57902 3.86032 5.71967 3.71967C5.86032 3.57902 6.05109 3.5 6.25 3.5C6.44891 3.5 6.63968 3.57902 6.78033 3.71967C6.92098 3.86032 7 4.05109 7 4.25ZM6.139 5.792L7.469 6.678L9.323 4.823C9.36011 4.78578 9.40802 4.7612 9.4599 4.75277C9.51178 4.74433 9.565 4.75246 9.612 4.776L11.5 5.75V7.5C11.5 7.63261 11.4473 7.75979 11.3536 7.85355C11.2598 7.94732 11.1326 8 11 8H5C4.86739 8 4.74021 7.94732 4.64645 7.85355C4.55268 7.75979 4.5 7.63261 4.5 7.5V7C4.5 7 6.04 5.726 6.139 5.792ZM5 9C4.86739 9 4.74021 9.05268 4.64645 9.14645C4.55268 9.24021 4.5 9.36739 4.5 9.5C4.5 9.63261 4.55268 9.75979 4.64645 9.85355C4.74021 9.94732 4.86739 10 5 10H11C11.1326 10 11.2598 9.94732 11.3536 9.85355C11.4473 9.75979 11.5 9.63261 11.5 9.5C11.5 9.36739 11.4473 9.24021 11.3536 9.14645C11.2598 9.05268 11.1326 9 11 9H5ZM5 11C4.86739 11 4.74021 11.0527 4.64645 11.1464C4.55268 11.2402 4.5 11.3674 4.5 11.5C4.5 11.6326 4.55268 11.7598 4.64645 11.8536C4.74021 11.9473 4.86739 12 5 12H8C8.13261 12 8.25979 11.9473 8.35355 11.8536C8.44732 11.7598 8.5 11.6326 8.5 11.5C8.5 11.3674 8.44732 11.2402 8.35355 11.1464C8.25979 11.0527 8.13261 11 8 11H5Z" fill="black"/>
<path d="M2 2C2 1.46957 2.21071 0.960859 2.58579 0.585786C2.96086 0.210714 3.46957 0 4 0L12 0C12.5304 0 13.0391 0.210714 13.4142 0.585786C13.7893 0.960859 14 1.46957 14 2V14C14 14.5304 13.7893 15.0391 13.4142 15.4142C13.0391 15.7893 12.5304 16 12 16H4C3.46957 16 2.96086 15.7893 2.58579 15.4142C2.21071 15.0391 2 14.5304 2 14V2ZM12 1H4C3.73478 1 3.48043 1.10536 3.29289 1.29289C3.10536 1.48043 3 1.73478 3 2V14C3 14.2652 3.10536 14.5196 3.29289 14.7071C3.48043 14.8946 3.73478 15 4 15H12C12.2652 15 12.5196 14.8946 12.7071 14.7071C12.8946 14.5196 13 14.2652 13 14V2C13 1.73478 12.8946 1.48043 12.7071 1.29289C12.5196 1.10536 12.2652 1 12 1Z" fill="black"/>
</svg>
