<svg width="16" height="16" viewBox="0 0 16 16" xmlns="http://www.w3.org/2000/svg" fill='currentColor'><g clip-path="url(#clip0_104_1965)"><path d="M5.50001 9.438V8.5H6.50001V9.438C6.50002 9.51992 6.51009 9.60153 6.53001 9.681L6.93001 11.279L6.00001 11.899L5.07001 11.279L5.47001 9.681C5.48992 9.60153 5.5 9.51992 5.50001 9.438Z"/><path d="M9.293 0H4C3.46957 0 2.96086 0.210714 2.58579 0.585786C2.21071 0.960859 2 1.46957 2 2V14C2 14.5304 2.21071 15.0391 2.58579 15.4142C2.96086 15.7893 3.46957 16 4 16H12C12.5304 16 13.0391 15.7893 13.4142 15.4142C13.7893 15.0391 14 14.5304 14 14V4.707C13.9999 4.4418 13.8945 4.18749 13.707 4L10 0.293C9.81251 0.105451 9.5582 5.66374e-05 9.293 0V0ZM9.5 3.5V1.5L12.5 4.5H10.5C10.2348 4.5 9.98043 4.39464 9.79289 4.20711C9.60536 4.01957 9.5 3.76522 9.5 3.5ZM5.5 3V2H4.5V1H6V2H7V3H6V4H7V5H6V6H7V7H5.5V6H4.5V5H5.5V4H4.5V3H5.5ZM5.5 7.5H6.5C6.76522 7.5 7.01957 7.60536 7.20711 7.79289C7.39464 7.98043 7.5 8.23478 7.5 8.5V9.438L7.9 11.037C7.94984 11.2371 7.93661 11.4476 7.86215 11.6399C7.78768 11.8322 7.6556 11.9967 7.484 12.111L6.554 12.731C6.38977 12.8404 6.19684 12.8988 5.9995 12.8988C5.80216 12.8988 5.60923 12.8404 5.445 12.731L4.515 12.111C4.34358 11.9966 4.21171 11.832 4.13742 11.6397C4.06313 11.4475 4.05006 11.237 4.1 11.037L4.5 9.438V8.5C4.5 8.23478 4.60536 7.98043 4.79289 7.79289C4.98043 7.60536 5.23478 7.5 5.5 7.5Z"/></g><defs><clipPath id="clip0_104_1965"><rect width="16" height="16"/></clipPath></defs></svg>