<svg width="16" height="16" viewBox="0 0 16 16" fill="none" xmlns="http://www.w3.org/2000/svg">
<g clip-path="url(#clip0_104_1770)">
<path d="M12 0H4C3.46957 0 2.96086 0.210714 2.58579 0.585786C2.21071 0.960859 2 1.46957 2 2V14C2 14.5304 2.21071 15.0391 2.58579 15.4142C2.96086 15.7893 3.46957 16 4 16H12C12.5304 16 13.0391 15.7893 13.4142 15.4142C13.7893 15.0391 14 14.5304 14 14V2C14 1.46957 13.7893 0.960859 13.4142 0.585786C13.0391 0.210714 12.5304 0 12 0V0ZM7.5 6.707L6.354 7.854C6.26011 7.94789 6.13278 8.00063 6 8.00063C5.86722 8.00063 5.73989 7.94789 5.646 7.854C5.55211 7.76011 5.49937 7.63278 5.49937 7.5C5.49937 7.36722 5.55211 7.23989 5.646 7.146L7.646 5.146C7.69245 5.09944 7.74762 5.06249 7.80837 5.03729C7.86911 5.01208 7.93423 4.99911 8 4.99911C8.06577 4.99911 8.13089 5.01208 8.19163 5.03729C8.25238 5.06249 8.30755 5.09944 8.354 5.146L10.354 7.146C10.4005 7.19249 10.4374 7.24768 10.4625 7.30842C10.4877 7.36916 10.5006 7.43426 10.5006 7.5C10.5006 7.56574 10.4877 7.63084 10.4625 7.69158C10.4374 7.75232 10.4005 7.80751 10.354 7.854C10.3075 7.90049 10.2523 7.93736 10.1916 7.96252C10.1308 7.98768 10.0657 8.00063 10 8.00063C9.93426 8.00063 9.86916 7.98768 9.80842 7.96252C9.74768 7.93736 9.69249 7.90049 9.646 7.854L8.5 6.707V10.5C8.5 10.6326 8.44732 10.7598 8.35355 10.8536C8.25979 10.9473 8.13261 11 8 11C7.86739 11 7.74021 10.9473 7.64645 10.8536C7.55268 10.7598 7.5 10.6326 7.5 10.5V6.707Z" fill="black"/>
</g>
<defs>
<clipPath id="clip0_104_1770">
<rect width="16" height="16" fill="white"/>
</clipPath>
</defs>
</svg>
