<svg width="16" height="16" viewBox="0 0 16 16" fill="none" xmlns="http://www.w3.org/2000/svg">
<path d="M5.52301 12.424C5.66301 12.342 5.81601 12.262 5.98201 12.186C5.84178 12.3951 5.69161 12.5973 5.53201 12.792C5.25201 13.129 5.03401 13.308 4.89701 13.364C4.88564 13.3688 4.87394 13.3728 4.86201 13.376C4.85203 13.3621 4.84333 13.3474 4.83601 13.332C4.78001 13.222 4.78201 13.116 4.87601 12.972C4.98201 12.807 5.19501 12.618 5.52301 12.424ZM7.97801 10.777C7.85901 10.802 7.74101 10.827 7.62201 10.855C7.79827 10.5096 7.965 10.1595 8.12201 9.80498C8.28008 10.0979 8.45023 10.3842 8.63201 10.663C8.41501 10.695 8.19601 10.733 7.97801 10.777ZM10.503 11.716C10.3477 11.5907 10.2023 11.4536 10.068 11.306C10.296 11.311 10.502 11.328 10.68 11.36C10.997 11.417 11.146 11.507 11.198 11.569C11.2144 11.5863 11.2237 11.6091 11.224 11.633C11.2205 11.7035 11.1999 11.7722 11.164 11.833C11.1438 11.8817 11.1115 11.9244 11.07 11.957C11.0494 11.9696 11.025 11.9749 11.001 11.972C10.911 11.969 10.743 11.906 10.503 11.716ZM8.27801 6.96998C8.23801 7.21398 8.17001 7.49398 8.07801 7.79898C8.04411 7.68478 8.01443 7.56937 7.98901 7.45298C7.91301 7.09998 7.90201 6.82298 7.94301 6.63098C7.98101 6.45398 8.05301 6.38298 8.13901 6.34798C8.18513 6.32765 8.23399 6.31418 8.28401 6.30798C8.29701 6.33798 8.31201 6.39998 8.31601 6.50598C8.32101 6.62798 8.30901 6.78298 8.27801 6.97098V6.96998Z" fill="black"/>
<path fill-rule="evenodd" clip-rule="evenodd" d="M4 0H9.293C9.5582 5.66374e-05 9.81251 0.105451 10 0.293L13.707 4C13.8945 4.18749 13.9999 4.4418 14 4.707V14C14 14.5304 13.7893 15.0391 13.4142 15.4142C13.0391 15.7893 12.5304 16 12 16H4C3.46957 16 2.96086 15.7893 2.58579 15.4142C2.21071 15.0391 2 14.5304 2 14V2C2 1.46957 2.21071 0.960859 2.58579 0.585786C2.96086 0.210714 3.46957 0 4 0V0ZM9.5 1.5V3.5C9.5 3.76522 9.60536 4.01957 9.79289 4.20711C9.98043 4.39464 10.2348 4.5 10.5 4.5H12.5L9.5 1.5ZM4.165 13.668C4.255 13.848 4.395 14.011 4.603 14.087C4.81 14.162 5.015 14.127 5.183 14.057C5.501 13.927 5.818 13.621 6.109 13.271C6.442 12.87 6.792 12.344 7.13 11.761C7.78253 11.5676 8.45075 11.4317 9.127 11.355C9.427 11.738 9.737 12.068 10.037 12.305C10.317 12.525 10.64 12.708 10.971 12.722C11.1513 12.7309 11.3298 12.6826 11.481 12.584C11.636 12.483 11.751 12.337 11.835 12.168C11.925 11.987 11.98 11.798 11.973 11.605C11.9667 11.4147 11.8962 11.2322 11.773 11.087C11.547 10.817 11.177 10.687 10.813 10.622C10.3714 10.5536 9.92343 10.5368 9.478 10.572C9.10186 10.0403 8.77389 9.47602 8.498 8.886C8.748 8.226 8.935 7.602 9.018 7.092C9.054 6.874 9.073 6.666 9.066 6.478C9.06476 6.29139 9.02134 6.10747 8.939 5.94C8.89156 5.84758 8.82414 5.76687 8.74164 5.70374C8.65913 5.64061 8.56361 5.59663 8.462 5.575C8.26 5.532 8.052 5.575 7.861 5.652C7.484 5.802 7.285 6.122 7.21 6.475C7.137 6.815 7.17 7.211 7.256 7.611C7.344 8.017 7.494 8.459 7.686 8.906C7.37889 9.6698 7.02419 10.4136 6.624 11.133C6.10864 11.2951 5.61188 11.5114 5.142 11.778C4.772 11.998 4.443 12.258 4.245 12.565C4.035 12.891 3.97 13.279 4.165 13.668Z" fill="black"/>
</svg>
