<svg width="16" height="16" viewBox="0 0 16 16" xmlns="http://www.w3.org/2000/svg" fill='currentColor'><path d="M5.52299 10.424C5.66299 10.342 5.81599 10.262 5.98199 10.186C5.84176 10.3951 5.69159 10.5973 5.53199 10.792C5.25199 11.129 5.03399 11.308 4.89699 11.364C4.88562 11.3688 4.87393 11.3728 4.86199 11.376C4.85201 11.3621 4.84331 11.3474 4.83599 11.332C4.77999 11.222 4.78199 11.116 4.87599 10.972C4.98199 10.807 5.19499 10.618 5.52299 10.424ZM7.97799 8.77698C7.85899 8.80198 7.74099 8.82698 7.62199 8.85498C7.79831 8.50966 7.96504 8.15952 8.12199 7.80498C8.27998 8.09796 8.45013 8.3842 8.63199 8.66298C8.41499 8.69498 8.19599 8.73298 7.97799 8.77698ZM10.503 9.71598C10.3477 9.59068 10.2023 9.45361 10.068 9.30598C10.296 9.31098 10.502 9.32798 10.68 9.35998C10.997 9.41698 11.146 9.50698 11.198 9.56898C11.2144 9.5863 11.2237 9.60914 11.224 9.63298C11.2205 9.70353 11.1999 9.77216 11.164 9.83298C11.1438 9.8817 11.1115 9.92441 11.07 9.95698C11.0494 9.96965 11.025 9.97494 11.001 9.97198C10.911 9.96898 10.743 9.90598 10.503 9.71598ZM8.27799 4.96998C8.23799 5.21398 8.16999 5.49398 8.07799 5.79898C8.0441 5.68478 8.01441 5.56937 7.98899 5.45298C7.91299 5.09998 7.90199 4.82298 7.94299 4.63098C7.98099 4.45398 8.05299 4.38298 8.13899 4.34798C8.18512 4.32765 8.23397 4.31418 8.28399 4.30798C8.29699 4.33798 8.31199 4.39998 8.31599 4.50598C8.32099 4.62798 8.30899 4.78298 8.27799 4.97098V4.96998Z"/><path fill-rule="evenodd" clip-rule="evenodd" d="M4 0H12C12.5304 0 13.0391 0.210714 13.4142 0.585786C13.7893 0.960859 14 1.46957 14 2V14C14 14.5304 13.7893 15.0391 13.4142 15.4142C13.0391 15.7893 12.5304 16 12 16H4C3.46957 16 2.96086 15.7893 2.58579 15.4142C2.21071 15.0391 2 14.5304 2 14V2C2 1.46957 2.21071 0.960859 2.58579 0.585786C2.96086 0.210714 3.46957 0 4 0V0ZM4.165 11.668C4.255 11.848 4.395 12.011 4.603 12.087C4.81 12.162 5.015 12.127 5.183 12.057C5.501 11.927 5.818 11.621 6.109 11.271C6.442 10.87 6.792 10.344 7.13 9.761C7.78252 9.56754 8.45074 9.43169 9.127 9.355C9.427 9.738 9.737 10.068 10.037 10.305C10.317 10.525 10.64 10.708 10.971 10.722C11.1513 10.7309 11.3298 10.6826 11.481 10.584C11.636 10.483 11.751 10.337 11.835 10.168C11.925 9.987 11.98 9.798 11.973 9.605C11.9667 9.41472 11.8962 9.23217 11.773 9.087C11.547 8.817 11.177 8.687 10.813 8.622C10.3714 8.55361 9.92343 8.53683 9.478 8.572C9.10186 8.04025 8.77389 7.47602 8.498 6.886C8.748 6.226 8.935 5.602 9.018 5.092C9.054 4.874 9.073 4.666 9.066 4.478C9.06476 4.29139 9.02134 4.10747 8.939 3.94C8.89156 3.84758 8.82414 3.76687 8.74164 3.70374C8.65913 3.64061 8.56361 3.59663 8.462 3.575C8.26 3.532 8.052 3.575 7.861 3.652C7.484 3.802 7.285 4.122 7.21 4.475C7.137 4.815 7.17 5.211 7.256 5.611C7.344 6.017 7.494 6.459 7.686 6.906C7.37886 7.66979 7.02417 8.41358 6.624 9.133C6.10864 9.29515 5.61188 9.51135 5.142 9.778C4.772 9.998 4.443 10.258 4.245 10.565C4.035 10.891 3.97 11.279 4.165 11.668Z"/></svg>