<svg width="16" height="16" viewBox="0 0 16 16" fill="none" xmlns="http://www.w3.org/2000/svg">
<path d="M4.99999 7.5C4.99999 7.23478 5.10534 6.98043 5.29288 6.79289C5.48042 6.60536 5.73477 6.5 5.99999 6.5H6.99999C7.2652 6.5 7.51956 6.60536 7.70709 6.79289C7.89463 6.98043 7.99999 7.23478 7.99999 7.5V8.438L8.39999 10.037C8.44982 10.2371 8.4366 10.4476 8.36213 10.6399C8.28766 10.8322 8.15559 10.9967 7.98399 11.111L7.05399 11.731C6.88966 11.8406 6.69653 11.8991 6.49899 11.8991C6.30144 11.8991 6.10832 11.8406 5.94399 11.731L5.01499 11.111C4.84357 10.9966 4.71169 10.832 4.63741 10.6397C4.56312 10.4475 4.55005 10.237 4.59999 10.037L4.99999 8.438V7.5ZM6.99999 7.5H5.99999V8.438C5.99998 8.51992 5.9899 8.60153 5.96999 8.681L5.56999 10.279L6.49999 10.899L7.42899 10.279L7.02899 8.681C7.00941 8.60149 6.99967 8.51988 6.99999 8.438V7.5Z" fill="black"/>
<path d="M14 4.5V14C14 14.5304 13.7893 15.0391 13.4142 15.4142C13.0391 15.7893 12.5304 16 12 16H4C3.46957 16 2.96086 15.7893 2.58579 15.4142C2.21071 15.0391 2 14.5304 2 14V2C2 1.46957 2.21071 0.960859 2.58579 0.585786C2.96086 0.210714 3.46957 0 4 0L9.5 0L14 4.5ZM11 4.5C10.6022 4.5 10.2206 4.34196 9.93934 4.06066C9.65804 3.77936 9.5 3.39782 9.5 3V1H7.5V2H6.5V3H7.5V4H6.5V5H7.5V6H6V5H5V4H6V3H5V2H6V1H4C3.73478 1 3.48043 1.10536 3.29289 1.29289C3.10536 1.48043 3 1.73478 3 2V14C3 14.2652 3.10536 14.5196 3.29289 14.7071C3.48043 14.8946 3.73478 15 4 15H12C12.2652 15 12.5196 14.8946 12.7071 14.7071C12.8946 14.5196 13 14.2652 13 14V4.5H11Z" fill="black"/>
</svg>
