<svg width="16" height="16" viewBox="0 0 16 16" xmlns="http://www.w3.org/2000/svg" fill='currentColor'><path d="M6.49999 7.5C6.49999 7.23478 6.60534 6.98043 6.79288 6.79289C6.98042 6.60536 7.23477 6.5 7.49999 6.5H8.49999C8.7652 6.5 9.01956 6.60536 9.20709 6.79289C9.39463 6.98043 9.49999 7.23478 9.49999 7.5V8.438L9.89999 10.037C9.94982 10.2371 9.9366 10.4476 9.86213 10.6399C9.78766 10.8322 9.65559 10.9967 9.48399 11.111L8.55399 11.731C8.38976 11.8404 8.19683 11.8988 7.99949 11.8988C7.80214 11.8988 7.60921 11.8404 7.44499 11.731L6.51499 11.111C6.34357 10.9966 6.21169 10.832 6.13741 10.6397C6.06312 10.4475 6.05005 10.237 6.09999 10.037L6.49999 8.438V7.5ZM8.49999 7.5H7.49999V8.438C7.49998 8.51992 7.4899 8.60153 7.46999 8.681L7.06999 10.279L7.99999 10.899L8.92999 10.279L8.52999 8.681C8.51007 8.60153 8.49999 8.51992 8.49999 8.438V7.5Z"/><path d="M2 2C2 1.46957 2.21071 0.960859 2.58579 0.585786C2.96086 0.210714 3.46957 0 4 0L12 0C12.5304 0 13.0391 0.210714 13.4142 0.585786C13.7893 0.960859 14 1.46957 14 2V14C14 14.5304 13.7893 15.0391 13.4142 15.4142C13.0391 15.7893 12.5304 16 12 16H4C3.46957 16 2.96086 15.7893 2.58579 15.4142C2.21071 15.0391 2 14.5304 2 14V2ZM7.5 1H4C3.73478 1 3.48043 1.10536 3.29289 1.29289C3.10536 1.48043 3 1.73478 3 2V14C3 14.2652 3.10536 14.5196 3.29289 14.7071C3.48043 14.8946 3.73478 15 4 15H12C12.2652 15 12.5196 14.8946 12.7071 14.7071C12.8946 14.5196 13 14.2652 13 14V2C13 1.73478 12.8946 1.48043 12.7071 1.29289C12.5196 1.10536 12.2652 1 12 1H9V2H8V3H9V4H8V5H9V6H7.5V5H6.5V4H7.5V3H6.5V2H7.5V1Z"/></svg>