<svg width="16" height="16" viewBox="0 0 16 16" xmlns="http://www.w3.org/2000/svg" fill='currentColor'><g clip-path="url(#clip0_104_2084)"><path d="M6.14601 6.14604C6.19245 6.09948 6.24763 6.06253 6.30837 6.03733C6.36912 6.01212 6.43424 5.99915 6.50001 5.99915C6.56578 5.99915 6.6309 6.01212 6.69164 6.03733C6.75239 6.06253 6.80756 6.09948 6.85401 6.14604L8.00001 7.29304L9.14601 6.14604C9.1925 6.09955 9.24769 6.06267 9.30842 6.03752C9.36916 6.01236 9.43426 5.99941 9.50001 5.99941C9.56575 5.99941 9.63085 6.01236 9.69159 6.03752C9.75233 6.06267 9.80752 6.09955 9.85401 6.14604C9.9005 6.19253 9.93737 6.24772 9.96253 6.30846C9.98769 6.36919 10.0006 6.4343 10.0006 6.50004C10.0006 6.56578 9.98769 6.63088 9.96253 6.69162C9.93737 6.75236 9.9005 6.80755 9.85401 6.85404L8.70701 8.00004L9.85401 9.14604C9.9479 9.23993 10.0006 9.36726 10.0006 9.50004C10.0006 9.63281 9.9479 9.76015 9.85401 9.85404C9.76012 9.94793 9.63278 10.0007 9.50001 10.0007C9.36723 10.0007 9.2399 9.94793 9.14601 9.85404L8.00001 8.70704L6.85401 9.85404C6.76012 9.94793 6.63278 10.0007 6.50001 10.0007C6.36723 10.0007 6.2399 9.94793 6.14601 9.85404C6.05212 9.76015 5.99938 9.63281 5.99938 9.50004C5.99938 9.36726 6.05212 9.23993 6.14601 9.14604L7.29301 8.00004L6.14601 6.85404C6.09945 6.80759 6.0625 6.75242 6.0373 6.69167C6.01209 6.63093 5.99911 6.56581 5.99911 6.50004C5.99911 6.43427 6.01209 6.36915 6.0373 6.30841C6.0625 6.24766 6.09945 6.19248 6.14601 6.14604Z"/><path d="M4 0C3.46957 0 2.96086 0.210714 2.58579 0.585786C2.21071 0.960859 2 1.46957 2 2V14C2 14.5304 2.21071 15.0391 2.58579 15.4142C2.96086 15.7893 3.46957 16 4 16H12C12.5304 16 13.0391 15.7893 13.4142 15.4142C13.7893 15.0391 14 14.5304 14 14V2C14 1.46957 13.7893 0.960859 13.4142 0.585786C13.0391 0.210714 12.5304 0 12 0L4 0ZM4 1H12C12.2652 1 12.5196 1.10536 12.7071 1.29289C12.8946 1.48043 13 1.73478 13 2V14C13 14.2652 12.8946 14.5196 12.7071 14.7071C12.5196 14.8946 12.2652 15 12 15H4C3.73478 15 3.48043 14.8946 3.29289 14.7071C3.10536 14.5196 3 14.2652 3 14V2C3 1.73478 3.10536 1.48043 3.29289 1.29289C3.48043 1.10536 3.73478 1 4 1Z"/></g><defs><clipPath id="clip0_104_2084"><rect width="16" height="16"/></clipPath></defs></svg>