<svg width="16" height="16" viewBox="0 0 16 16" fill="none" xmlns="http://www.w3.org/2000/svg">
<g clip-path="url(#clip0_104_1909)">
<path d="M9.293 0H4C3.46957 0 2.96086 0.210714 2.58579 0.585786C2.21071 0.960859 2 1.46957 2 2V14C2 14.5304 2.21071 15.0391 2.58579 15.4142C2.96086 15.7893 3.46957 16 4 16H12C12.5304 16 13.0391 15.7893 13.4142 15.4142C13.7893 15.0391 14 14.5304 14 14V4.707C13.9999 4.4418 13.8945 4.18749 13.707 4L10 0.293C9.81251 0.105451 9.5582 5.66374e-05 9.293 0V0ZM9.5 3.5V1.5L12.5 4.5H10.5C10.2348 4.5 9.98043 4.39464 9.79289 4.20711C9.60536 4.01957 9.5 3.76522 9.5 3.5ZM6 6.883C5.99998 6.79453 6.02343 6.70765 6.06797 6.63121C6.1125 6.55477 6.17651 6.49151 6.25348 6.44789C6.33044 6.40427 6.4176 6.38186 6.50606 6.38293C6.59452 6.384 6.68111 6.40853 6.757 6.454L10.285 8.571C10.3592 8.61539 10.4205 8.67825 10.4632 8.75344C10.5058 8.82862 10.5282 8.91357 10.5282 9C10.5282 9.08643 10.5058 9.17138 10.4632 9.24656C10.4205 9.32175 10.3592 9.38461 10.285 9.429L6.757 11.546C6.68104 11.5915 6.59436 11.616 6.50581 11.6171C6.41727 11.6181 6.33004 11.5956 6.25304 11.5519C6.17605 11.5081 6.11205 11.4447 6.06759 11.3681C6.02313 11.2916 5.9998 11.2046 6 11.116V6.884V6.883Z" fill="black"/>
</g>
<defs>
<clipPath id="clip0_104_1909">
<rect width="16" height="16" fill="white"/>
</clipPath>
</defs>
</svg>
