<svg width="16" height="16" viewBox="0 0 16 16" fill="none" xmlns="http://www.w3.org/2000/svg">
<g clip-path="url(#clip0_104_1832)">
<path d="M9.293 0H4C3.46957 0 2.96086 0.210714 2.58579 0.585786C2.21071 0.960859 2 1.46957 2 2V14C2 14.5304 2.21071 15.0391 2.58579 15.4142C2.96086 15.7893 3.46957 16 4 16H12C12.5304 16 13.0391 15.7893 13.4142 15.4142C13.7893 15.0391 14 14.5304 14 14V4.707C13.9999 4.4418 13.8945 4.18749 13.707 4L10 0.293C9.81251 0.105451 9.5582 5.66374e-05 9.293 0V0ZM9.5 3.5V1.5L12.5 4.5H10.5C10.2348 4.5 9.98043 4.39464 9.79289 4.20711C9.60536 4.01957 9.5 3.76522 9.5 3.5ZM10.854 7.854L7.854 10.854C7.80755 10.9006 7.75238 10.9375 7.69163 10.9627C7.63089 10.9879 7.56577 11.0009 7.5 11.0009C7.43423 11.0009 7.36911 10.9879 7.30837 10.9627C7.24762 10.9375 7.19245 10.9006 7.146 10.854L5.646 9.354C5.59951 9.30751 5.56264 9.25232 5.53748 9.19158C5.51232 9.13084 5.49937 9.06574 5.49937 9C5.49937 8.93426 5.51232 8.86916 5.53748 8.80842C5.56264 8.74768 5.59951 8.69249 5.646 8.646C5.73989 8.55211 5.86722 8.49937 6 8.49937C6.06574 8.49937 6.13084 8.51232 6.19158 8.53748C6.25232 8.56264 6.30751 8.59951 6.354 8.646L7.5 9.793L10.146 7.146C10.2399 7.05211 10.3672 6.99937 10.5 6.99937C10.6328 6.99937 10.7601 7.05211 10.854 7.146C10.9479 7.23989 11.0006 7.36722 11.0006 7.5C11.0006 7.63278 10.9479 7.76011 10.854 7.854Z" fill="black"/>
</g>
<defs>
<clipPath id="clip0_104_1832">
<rect width="16" height="16" fill="white"/>
</clipPath>
</defs>
</svg>
