<svg width="16" height="16" viewBox="0 0 16 16" xmlns="http://www.w3.org/2000/svg" fill='currentColor'><path d="M6.50201 7C6.699 7 6.89405 6.9612 7.07604 6.88582C7.25803 6.81044 7.42339 6.69995 7.56267 6.56066C7.70196 6.42137 7.81245 6.25601 7.88783 6.07403C7.96322 5.89204 8.00201 5.69698 8.00201 5.5C8.00201 5.30302 7.96322 5.10796 7.88783 4.92597C7.81245 4.74399 7.70196 4.57863 7.56267 4.43934C7.42339 4.30005 7.25803 4.18956 7.07604 4.11418C6.89405 4.0388 6.699 4 6.50201 4C6.10419 4 5.72266 4.15804 5.44135 4.43934C5.16005 4.72064 5.00201 5.10218 5.00201 5.5C5.00201 5.89782 5.16005 6.27936 5.44135 6.56066C5.72266 6.84196 6.10419 7 6.50201 7Z"/><path d="M14 14C14 14.5304 13.7893 15.0391 13.4142 15.4142C13.0391 15.7893 12.5304 16 12 16H4C3.46957 16 2.96086 15.7893 2.58579 15.4142C2.21071 15.0391 2 14.5304 2 14V2C2 1.46957 2.21071 0.960859 2.58579 0.585786C2.96086 0.210714 3.46957 0 4 0L9.5 0L14 4.5V14ZM4 1C3.73478 1 3.48043 1.10536 3.29289 1.29289C3.10536 1.48043 3 1.73478 3 2V12L5.224 9.776C5.30282 9.69737 5.40562 9.6473 5.51612 9.63371C5.62661 9.62012 5.73849 9.64381 5.834 9.701L8 11L10.157 7.98C10.1992 7.92098 10.2538 7.87184 10.3169 7.83602C10.38 7.80019 10.4501 7.77853 10.5224 7.77253C10.5947 7.76654 10.6675 7.77636 10.7356 7.8013C10.8038 7.82625 10.8657 7.86573 10.917 7.917L13 10V4.5H11C10.6022 4.5 10.2206 4.34196 9.93934 4.06066C9.65804 3.77936 9.5 3.39782 9.5 3V1H4Z"/></svg>