<svg width="16" height="16" viewBox="0 0 16 16" fill="none" xmlns="http://www.w3.org/2000/svg">
<g clip-path="url(#clip0_104_2062)">
<path d="M11 0H3C2.46957 0 1.96086 0.210714 1.58579 0.585786C1.21071 0.960859 1 1.46957 1 2V14C1 14.5304 1.21071 15.0391 1.58579 15.4142C1.96086 15.7893 2.46957 16 3 16H11C11.5304 16 12.0391 15.7893 12.4142 15.4142C12.7893 15.0391 13 14.5304 13 14C13.5304 14 14.0391 13.7893 14.4142 13.4142C14.7893 13.0391 15 12.5304 15 12V4C15 3.46957 14.7893 2.96086 14.4142 2.58579C14.0391 2.21071 13.5304 2 13 2C13 1.46957 12.7893 0.960859 12.4142 0.585786C12.0391 0.210714 11.5304 0 11 0V0ZM13 3C13.2652 3 13.5196 3.10536 13.7071 3.29289C13.8946 3.48043 14 3.73478 14 4V12C14 12.2652 13.8946 12.5196 13.7071 12.7071C13.5196 12.8946 13.2652 13 13 13V3ZM2 2C2 1.73478 2.10536 1.48043 2.29289 1.29289C2.48043 1.10536 2.73478 1 3 1H11C11.2652 1 11.5196 1.10536 11.7071 1.29289C11.8946 1.48043 12 1.73478 12 2V14C12 14.2652 11.8946 14.5196 11.7071 14.7071C11.5196 14.8946 11.2652 15 11 15H3C2.73478 15 2.48043 14.8946 2.29289 14.7071C2.10536 14.5196 2 14.2652 2 14V2Z" fill="black"/>
</g>
<defs>
<clipPath id="clip0_104_2062">
<rect width="16" height="16" fill="white"/>
</clipPath>
</defs>
</svg>
