<svg width="16" height="16" viewBox="0 0 16 16" fill="none" xmlns="http://www.w3.org/2000/svg">
<g clip-path="url(#clip0_104_1939)">
<path d="M7 9.77998V7.21998C7 7.12398 7.106 7.06398 7.19 7.11398L9.32 8.39298C9.33843 8.40411 9.35366 8.4198 9.36424 8.43855C9.37482 8.4573 9.38038 8.47846 9.38038 8.49998C9.38038 8.5215 9.37482 8.54266 9.36424 8.56141C9.35366 8.58016 9.33843 8.59585 9.32 8.60698L7.19 9.88698C7.17089 9.89862 7.149 9.90492 7.12662 9.90521C7.10424 9.9055 7.08219 9.89978 7.06278 9.88865C7.04337 9.87751 7.0273 9.86136 7.01626 9.8419C7.00521 9.82243 6.9996 9.80036 7 9.77798V9.77998Z" fill="black"/>
<path d="M9.293 0H4C3.46957 0 2.96086 0.210714 2.58579 0.585786C2.21071 0.960859 2 1.46957 2 2V14C2 14.5304 2.21071 15.0391 2.58579 15.4142C2.96086 15.7893 3.46957 16 4 16H12C12.5304 16 13.0391 15.7893 13.4142 15.4142C13.7893 15.0391 14 14.5304 14 14V4.707C13.9999 4.4418 13.8945 4.18749 13.707 4L10 0.293C9.81251 0.105451 9.5582 5.66374e-05 9.293 0V0ZM9.5 3.5V1.5L12.5 4.5H10.5C10.2348 4.5 9.98043 4.39464 9.79289 4.20711C9.60536 4.01957 9.5 3.76522 9.5 3.5ZM5 6H11C11.1218 6.00003 11.2395 6.04456 11.3308 6.12521C11.4222 6.20587 11.4809 6.31709 11.496 6.438L11.996 10.438C12.0048 10.5083 11.9985 10.5797 11.9776 10.6475C11.9567 10.7152 11.9216 10.7777 11.8747 10.8309C11.8278 10.884 11.7702 10.9266 11.7056 10.9557C11.641 10.9849 11.5709 11 11.5 11H8.5V13.016C9.363 13.071 10 13.267 10 13.5C10 13.776 9.105 14 8 14C6.895 14 6 13.776 6 13.5C6 13.267 6.637 13.071 7.5 13.016V11H4.5C4.42912 11 4.35905 10.9849 4.29444 10.9557C4.22983 10.9266 4.17217 10.884 4.12526 10.8309C4.07836 10.7777 4.04329 10.7152 4.02238 10.6475C4.00148 10.5797 3.99521 10.5083 4.004 10.438L4.504 6.438C4.51911 6.31709 4.57785 6.20587 4.66918 6.12521C4.76051 6.04456 4.87815 6.00003 5 6Z" fill="black"/>
</g>
<defs>
<clipPath id="clip0_104_1939">
<rect width="16" height="16" fill="white"/>
</clipPath>
</defs>
</svg>
