<svg width="16" height="16" viewBox="0 0 16 16" xmlns="http://www.w3.org/2000/svg" fill='currentColor'><path d="M5 4C4.87815 4.00003 4.76051 4.04456 4.66918 4.12521C4.57785 4.20587 4.51911 4.31709 4.504 4.438L4.004 8.438C3.99521 8.50834 4.00148 8.57974 4.02238 8.64747C4.04329 8.7152 4.07836 8.77771 4.12526 8.83086C4.17217 8.884 4.22983 8.92657 4.29444 8.95573C4.35905 8.98489 4.42912 8.99998 4.5 9H7.5V11.016C6.637 11.071 6 11.267 6 11.5C6 11.776 6.895 12 8 12C9.105 12 10 11.776 10 11.5C10 11.267 9.363 11.071 8.5 11.016V9H11.5C11.5709 8.99998 11.641 8.98489 11.7056 8.95573C11.7702 8.92657 11.8278 8.884 11.8747 8.83086C11.9216 8.77771 11.9567 8.7152 11.9776 8.64747C11.9985 8.57974 12.0048 8.50834 11.996 8.438L11.496 4.438C11.4809 4.31709 11.4222 4.20587 11.3308 4.12521C11.2395 4.04456 11.1218 4.00003 11 4H5ZM7 7.78V5.22C7 5.124 7.106 5.064 7.19 5.114L9.32 6.393C9.33842 6.40413 9.35366 6.41982 9.36424 6.43857C9.37482 6.45732 9.38038 6.47848 9.38038 6.5C9.38038 6.52152 9.37482 6.54268 9.36424 6.56143C9.35366 6.58018 9.33842 6.59587 9.32 6.607L7.19 7.887C7.17089 7.89864 7.149 7.90494 7.12662 7.90523C7.10424 7.90552 7.08219 7.8998 7.06278 7.88867C7.04337 7.87753 7.0273 7.86138 7.01626 7.84192C7.00521 7.82245 6.9996 7.80038 7 7.778V7.78Z"/><path d="M2 2C2 1.46957 2.21071 0.960859 2.58579 0.585786C2.96086 0.210714 3.46957 0 4 0L12 0C12.5304 0 13.0391 0.210714 13.4142 0.585786C13.7893 0.960859 14 1.46957 14 2V14C14 14.5304 13.7893 15.0391 13.4142 15.4142C13.0391 15.7893 12.5304 16 12 16H4C3.46957 16 2.96086 15.7893 2.58579 15.4142C2.21071 15.0391 2 14.5304 2 14V2ZM12 1H4C3.73478 1 3.48043 1.10536 3.29289 1.29289C3.10536 1.48043 3 1.73478 3 2V14C3 14.2652 3.10536 14.5196 3.29289 14.7071C3.48043 14.8946 3.73478 15 4 15H12C12.2652 15 12.5196 14.8946 12.7071 14.7071C12.8946 14.5196 13 14.2652 13 14V2C13 1.73478 12.8946 1.48043 12.7071 1.29289C12.5196 1.10536 12.2652 1 12 1Z"/></svg>