<svg width="16" height="16" viewBox="0 0 16 16" fill="none" xmlns="http://www.w3.org/2000/svg">
<g clip-path="url(#clip0_104_2082)">
<path d="M12 0H4C3.46957 0 2.96086 0.210714 2.58579 0.585786C2.21071 0.960859 2 1.46957 2 2V14C2 14.5304 2.21071 15.0391 2.58579 15.4142C2.96086 15.7893 3.46957 16 4 16H12C12.5304 16 13.0391 15.7893 13.4142 15.4142C13.7893 15.0391 14 14.5304 14 14V2C14 1.46957 13.7893 0.960859 13.4142 0.585786C13.0391 0.210714 12.5304 0 12 0V0ZM5.485 4.879L6.521 9.023L7.518 5.368C7.5471 5.2625 7.61001 5.16946 7.69708 5.10316C7.78414 5.03686 7.89056 5.00095 8 5.00095C8.10944 5.00095 8.21586 5.03686 8.30292 5.10316C8.38999 5.16946 8.4529 5.2625 8.482 5.368L9.479 9.023L10.515 4.879C10.5495 4.75305 10.632 4.64561 10.7447 4.57966C10.8575 4.51371 10.9915 4.49449 11.1182 4.5261C11.2449 4.55772 11.3543 4.63766 11.4228 4.74883C11.4914 4.86 11.5137 4.99358 11.485 5.121L9.985 11.121C9.95799 11.2281 9.89628 11.3232 9.80951 11.3915C9.72274 11.4599 9.61579 11.4975 9.50535 11.4987C9.39492 11.4998 9.28721 11.4644 9.19905 11.3979C9.11088 11.3313 9.04722 11.2375 9.018 11.131L8 7.402L6.982 11.132C6.95278 11.2385 6.88912 11.3323 6.80095 11.3989C6.71279 11.4654 6.60508 11.5008 6.49465 11.4997C6.38421 11.4985 6.27726 11.4609 6.19049 11.3925C6.10372 11.3242 6.04201 11.2291 6.015 11.122L4.515 5.122C4.49738 5.05774 4.49278 4.9906 4.50147 4.92453C4.51017 4.85847 4.53198 4.79481 4.56562 4.73729C4.59927 4.67978 4.64408 4.62957 4.69741 4.58961C4.75073 4.54966 4.81151 4.52077 4.87617 4.50464C4.94082 4.48851 5.00804 4.48546 5.07389 4.49569C5.13974 4.50591 5.20288 4.52919 5.2596 4.56416C5.31632 4.59913 5.36548 4.64508 5.40419 4.69932C5.4429 4.75356 5.47037 4.81499 5.485 4.88V4.879Z" fill="black"/>
</g>
<defs>
<clipPath id="clip0_104_2082">
<rect width="16" height="16" fill="white"/>
</clipPath>
</defs>
</svg>
