<svg width="16" height="16" viewBox="0 0 16 16" fill="none" xmlns="http://www.w3.org/2000/svg">
<g clip-path="url(#clip0_104_1971)">
<path d="M5 6.5C5 6.36739 5.05268 6.24021 5.14645 6.14645C5.24021 6.05268 5.36739 6 5.5 6H10.5C10.6326 6 10.7598 6.05268 10.8536 6.14645C10.9473 6.24021 11 6.36739 11 6.5V8.5C11 8.63261 10.9473 8.75979 10.8536 8.85355C10.7598 8.94732 10.6326 9 10.5 9H5.5C5.36739 9 5.24021 8.94732 5.14645 8.85355C5.05268 8.75979 5 8.63261 5 8.5V6.5Z" fill="black"/>
<path d="M12 0H4C3.46957 0 2.96086 0.210714 2.58579 0.585786C2.21071 0.960859 2 1.46957 2 2V14C2 14.5304 2.21071 15.0391 2.58579 15.4142C2.96086 15.7893 3.46957 16 4 16H12C12.5304 16 13.0391 15.7893 13.4142 15.4142C13.7893 15.0391 14 14.5304 14 14V2C14 1.46957 13.7893 0.960859 13.4142 0.585786C13.0391 0.210714 12.5304 0 12 0V0ZM8.5 5H10.5C10.8978 5 11.2794 5.15804 11.5607 5.43934C11.842 5.72064 12 6.10218 12 6.5V8.5C12 8.89782 11.842 9.27936 11.5607 9.56066C11.2794 9.84196 10.8978 10 10.5 10H10.027L10.474 11.342C10.5102 11.4662 10.4969 11.5995 10.4369 11.7141C10.3769 11.8286 10.2748 11.9154 10.1521 11.9563C10.0294 11.9972 9.89567 11.989 9.77892 11.9334C9.66217 11.8777 9.57152 11.779 9.526 11.658L8.973 10H8.5V11C8.5 11.1326 8.44732 11.2598 8.35355 11.3536C8.25979 11.4473 8.13261 11.5 8 11.5C7.86739 11.5 7.74021 11.4473 7.64645 11.3536C7.55268 11.2598 7.5 11.1326 7.5 11V10H7.027L6.474 11.658C6.45517 11.7226 6.4235 11.7827 6.3809 11.8347C6.33829 11.8868 6.28563 11.9297 6.22605 11.9609C6.16648 11.9921 6.10122 12.011 6.03418 12.0164C5.96713 12.0218 5.89969 12.0136 5.83589 11.9923C5.77208 11.9711 5.71322 11.9371 5.66283 11.8926C5.61244 11.8481 5.57156 11.7938 5.54262 11.7331C5.51369 11.6724 5.49731 11.6064 5.49445 11.5392C5.49159 11.472 5.50233 11.405 5.526 11.342L5.973 10H5.5C5.10218 10 4.72064 9.84196 4.43934 9.56066C4.15804 9.27936 4 8.89782 4 8.5V6.5C4 6.10218 4.15804 5.72064 4.43934 5.43934C4.72064 5.15804 5.10218 5 5.5 5H7.5C7.5 4.86739 7.55268 4.74021 7.64645 4.64645C7.74021 4.55268 7.86739 4.5 8 4.5C8.13261 4.5 8.25979 4.55268 8.35355 4.64645C8.44732 4.74021 8.5 4.86739 8.5 5Z" fill="black"/>
</g>
<defs>
<clipPath id="clip0_104_1971">
<rect width="16" height="16" fill="white"/>
</clipPath>
</defs>
</svg>
