<svg width="16" height="16" viewBox="0 0 16 16" fill="none" xmlns="http://www.w3.org/2000/svg">
<g clip-path="url(#clip0_104_2079)">
<path d="M4.87901 4.51496C5.00764 4.48291 5.14373 4.50324 5.25737 4.5715C5.371 4.63976 5.45288 4.75035 5.48501 4.87896L6.52101 9.02296L7.51801 5.36796C7.54711 5.26246 7.61002 5.16942 7.69708 5.10312C7.78415 5.03682 7.89057 5.00091 8.00001 5.00091C8.10945 5.00091 8.21586 5.03682 8.30293 5.10312C8.39 5.16942 8.45291 5.26246 8.48201 5.36796L9.47901 9.02296L10.515 4.87896C10.5495 4.75301 10.632 4.64557 10.7447 4.57962C10.8575 4.51367 10.9915 4.49445 11.1182 4.52606C11.245 4.55768 11.3543 4.63762 11.4228 4.74879C11.4914 4.85997 11.5137 4.99354 11.485 5.12096L9.98501 11.121C9.958 11.2281 9.89629 11.3232 9.80952 11.3915C9.72275 11.4598 9.6158 11.4975 9.50536 11.4987C9.39492 11.4998 9.28722 11.4643 9.19905 11.3978C9.11089 11.3313 9.04723 11.2375 9.01801 11.131L8.00001 7.40196L6.98201 11.132C6.95279 11.2385 6.88913 11.3323 6.80096 11.3988C6.7128 11.4653 6.60509 11.5008 6.49465 11.4997C6.38422 11.4985 6.27727 11.4608 6.19049 11.3925C6.10372 11.3242 6.04202 11.229 6.01501 11.122L4.51501 5.12196C4.48295 4.99333 4.50329 4.85724 4.57155 4.7436C4.63981 4.62997 4.7504 4.54808 4.87901 4.51596V4.51496Z" fill="black"/>
<path d="M4 0C3.46957 0 2.96086 0.210714 2.58579 0.585786C2.21071 0.960859 2 1.46957 2 2V14C2 14.5304 2.21071 15.0391 2.58579 15.4142C2.96086 15.7893 3.46957 16 4 16H12C12.5304 16 13.0391 15.7893 13.4142 15.4142C13.7893 15.0391 14 14.5304 14 14V2C14 1.46957 13.7893 0.960859 13.4142 0.585786C13.0391 0.210714 12.5304 0 12 0L4 0ZM4 1H12C12.2652 1 12.5196 1.10536 12.7071 1.29289C12.8946 1.48043 13 1.73478 13 2V14C13 14.2652 12.8946 14.5196 12.7071 14.7071C12.5196 14.8946 12.2652 15 12 15H4C3.73478 15 3.48043 14.8946 3.29289 14.7071C3.10536 14.5196 3 14.2652 3 14V2C3 1.73478 3.10536 1.48043 3.29289 1.29289C3.48043 1.10536 3.73478 1 4 1Z" fill="black"/>
</g>
<defs>
<clipPath id="clip0_104_2079">
<rect width="16" height="16" fill="white"/>
</clipPath>
</defs>
</svg>
