<svg width="16" height="16" viewBox="0 0 16 16" xmlns="http://www.w3.org/2000/svg" fill='currentColor'><g clip-path="url(#clip0_104_2095)"><path d="M0 1C0 0.734784 0.105357 0.48043 0.292893 0.292893C0.48043 0.105357 0.734784 0 1 0L15 0C15.2652 0 15.5196 0.105357 15.7071 0.292893C15.8946 0.48043 16 0.734784 16 1V15C16 15.2652 15.8946 15.5196 15.7071 15.7071C15.5196 15.8946 15.2652 16 15 16H1C0.734784 16 0.48043 15.8946 0.292893 15.7071C0.105357 15.5196 0 15.2652 0 15V1ZM4 1V7H12V1H4ZM12 9H4V15H12V9ZM1 1V3H3V1H1ZM3 4H1V6H3V4ZM1 7V9H3V7H1ZM3 10H1V12H3V10ZM1 13V15H3V13H1ZM15 1H13V3H15V1ZM13 4V6H15V4H13ZM15 7H13V9H15V7ZM13 10V12H15V10H13ZM15 13H13V15H15V13Z"/></g><defs><clipPath id="clip0_104_2095"><rect width="16" height="16"/></clipPath></defs></svg>