<svg width="16" height="16" viewBox="0 0 16 16" xmlns="http://www.w3.org/2000/svg" fill='currentColor'><path d="M8.06001 6.5C8.19261 6.5 8.31979 6.55268 8.41356 6.64645C8.50733 6.74021 8.56001 6.86739 8.56001 7V7.776C8.55989 8.97055 8.37366 10.1578 8.00801 11.295L6.67701 15.435C6.63403 15.5581 6.54468 15.6595 6.42801 15.7177C6.31133 15.7758 6.17656 15.7861 6.05241 15.7463C5.92826 15.7066 5.82455 15.6199 5.76339 15.5047C5.70223 15.3896 5.68846 15.2551 5.72501 15.13L7.05501 10.989C7.38886 9.95068 7.5589 8.86668 7.55901 7.776V7C7.55901 6.86739 7.61168 6.74021 7.70545 6.64645C7.79922 6.55268 7.9264 6.5 8.05901 6.5H8.06001Z"/><path d="M6.06001 7C6.06001 6.73736 6.11174 6.47728 6.21225 6.23463C6.31276 5.99198 6.46008 5.7715 6.6458 5.58579C6.83151 5.40007 7.05199 5.25275 7.29464 5.15224C7.53729 5.05173 7.79737 5 8.06001 5C8.32265 5 8.58273 5.05173 8.82538 5.15224C9.06803 5.25275 9.28851 5.40007 9.47422 5.58579C9.65994 5.7715 9.80726 5.99198 9.90777 6.23463C10.0083 6.47728 10.06 6.73736 10.06 7C10.06 7.13261 10.0073 7.25979 9.91356 7.35355C9.81979 7.44732 9.69262 7.5 9.56001 7.5C9.4274 7.5 9.30022 7.44732 9.20646 7.35355C9.11269 7.25979 9.06001 7.13261 9.06001 7C9.06001 6.73478 8.95465 6.48043 8.76712 6.29289C8.57958 6.10536 8.32523 6 8.06001 6C7.79479 6 7.54044 6.10536 7.3529 6.29289C7.16537 6.48043 7.06001 6.73478 7.06001 7V7.332C7.06001 7.741 7.03801 8.148 6.99401 8.553C6.97671 8.68212 6.90969 8.79938 6.80723 8.87984C6.70477 8.96029 6.57496 8.99758 6.44542 8.98377C6.31588 8.96995 6.19685 8.90613 6.11366 8.80588C6.03047 8.70562 5.9897 8.57686 6.00001 8.447C6.04001 8.077 6.06001 7.705 6.06001 7.332V7ZM9.56901 8C9.63468 8.00169 9.69937 8.01629 9.75939 8.04299C9.81941 8.06969 9.87358 8.10795 9.91881 8.15559C9.96403 8.20323 9.99943 8.25932 10.023 8.32064C10.0465 8.38197 10.0577 8.44733 10.056 8.513C10.0264 9.64889 9.82856 10.7741 9.46901 11.852L8.20301 15.652C8.16097 15.7778 8.07067 15.8818 7.95196 15.9411C7.83324 16.0004 7.69585 16.01 7.57001 15.968C7.44416 15.926 7.34017 15.8357 7.28091 15.7169C7.22165 15.5982 7.21197 15.4608 7.25401 15.335L8.52101 11.535C8.84891 10.551 9.0292 9.52385 9.05601 8.487C9.05769 8.42133 9.0723 8.35664 9.099 8.29662C9.1257 8.2366 9.16396 8.18243 9.2116 8.1372C9.25924 8.09198 9.31533 8.05658 9.37665 8.03304C9.43798 8.0095 9.50334 7.99827 9.56901 8ZM6.21301 10.115C6.27581 10.1344 6.33417 10.166 6.38475 10.2079C6.43534 10.2499 6.47715 10.3014 6.5078 10.3596C6.53845 10.4177 6.55734 10.4813 6.56338 10.5468C6.56942 10.6122 6.5625 10.6782 6.54301 10.741L5.24001 14.939C5.22154 15.0028 5.19053 15.0624 5.14879 15.1141C5.10705 15.1658 5.05542 15.2087 4.99692 15.2402C4.93842 15.2717 4.87421 15.2913 4.80807 15.2977C4.74192 15.3041 4.67516 15.2973 4.61168 15.2776C4.5482 15.258 4.48928 15.2258 4.43836 15.1831C4.38745 15.1404 4.34556 15.088 4.31514 15.0289C4.28473 14.9698 4.2664 14.9052 4.26122 14.839C4.25605 14.7727 4.26413 14.7061 4.28501 14.643L5.58801 10.444C5.62739 10.3176 5.71531 10.2119 5.83248 10.1503C5.94965 10.0886 6.0865 10.0759 6.21301 10.115Z"/><path d="M4.75902 5.83304C5.03519 5.05565 5.57702 4.40076 6.28893 3.98389C7.00084 3.56702 7.8371 3.41494 8.6502 3.55448C9.4633 3.69402 10.201 4.11622 10.7332 4.7466C11.2654 5.37699 11.5578 6.17505 11.559 7.00004C11.559 7.13265 11.5063 7.25982 11.4126 7.35359C11.3188 7.44736 11.1916 7.50004 11.059 7.50004C10.9264 7.50004 10.7992 7.44736 10.7055 7.35359C10.6117 7.25982 10.559 7.13265 10.559 7.00004C10.5589 6.41034 10.3504 5.83966 9.97023 5.38884C9.59009 4.93802 9.06282 4.63609 8.48161 4.53641C7.9004 4.43673 7.30265 4.54571 6.79402 4.8441C6.28538 5.14249 5.8986 5.61107 5.70202 6.16704C5.65773 6.29209 5.56557 6.39442 5.44583 6.45153C5.32609 6.50863 5.18857 6.51583 5.06352 6.47154C4.93847 6.42725 4.83613 6.33509 4.77903 6.21535C4.72192 6.09561 4.71473 5.95809 4.75902 5.83304ZM5.05902 7.50304C5.19095 7.51594 5.31235 7.5807 5.39655 7.68308C5.48075 7.78547 5.52084 7.9171 5.50802 8.04904C5.44051 8.73736 5.30655 9.41753 5.10802 10.08L3.88602 14.152C3.84796 14.2791 3.76099 14.3858 3.64425 14.4487C3.52751 14.5116 3.39056 14.5256 3.26352 14.4875C3.13648 14.4495 3.02976 14.3625 2.96684 14.2458C2.90392 14.129 2.88996 13.9921 2.92802 13.865L4.15002 9.79304C4.33017 9.19219 4.45174 8.57531 4.51302 7.95104C4.52592 7.81911 4.59068 7.6977 4.69306 7.6135C4.79545 7.52931 4.92708 7.48921 5.05902 7.50204V7.50304ZM11.059 8.15004C11.1916 8.15004 11.3188 8.20272 11.4126 8.29649C11.5063 8.39025 11.559 8.51743 11.559 8.65004C11.559 9.93004 11.346 11.202 10.927 12.412L9.83702 15.557C9.78955 15.6768 9.6977 15.7736 9.58062 15.8273C9.46354 15.8809 9.33026 15.8874 9.20856 15.8452C9.08685 15.8031 8.98611 15.7156 8.92733 15.601C8.86854 15.4863 8.85625 15.3535 8.89302 15.23L9.98202 12.085C10.364 10.98 10.56 9.81904 10.56 8.65004C10.56 8.51743 10.6127 8.39025 10.7065 8.29649C10.8002 8.20272 10.9274 8.15004 11.06 8.15004H11.059Z"/><path d="M3.90202 4.22197C4.45757 3.38909 5.25054 2.74234 6.17811 2.36557C7.10567 1.9888 8.12503 1.89941 9.10402 2.10897C9.1683 2.12263 9.22926 2.14881 9.28343 2.18603C9.33759 2.22325 9.38389 2.27077 9.41969 2.32588C9.45548 2.38099 9.48007 2.44261 9.49206 2.50723C9.50404 2.57185 9.50318 2.63819 9.48952 2.70247C9.47586 2.76675 9.44968 2.82771 9.41246 2.88188C9.37524 2.93604 9.32772 2.98234 9.27261 3.01814C9.2175 3.05394 9.15587 3.07853 9.09126 3.09051C9.02664 3.10249 8.9603 3.10163 8.89602 3.08797C8.11266 2.91986 7.29686 2.99112 6.55451 3.29248C5.81215 3.59384 5.17753 4.1114 4.73302 4.77797C4.65823 4.88565 4.54414 4.95964 4.41533 4.98402C4.28651 5.00839 4.15328 4.9812 4.04432 4.9083C3.93535 4.8354 3.85939 4.72261 3.83277 4.59424C3.80615 4.46587 3.83102 4.33218 3.90202 4.22197ZM10.622 3.26697C10.7086 3.16662 10.8316 3.10477 10.9638 3.09502C11.096 3.08526 11.2266 3.12841 11.327 3.21497C11.8712 3.68401 12.3076 4.26501 12.6065 4.91825C12.9054 5.5715 13.0598 6.28158 13.059 6.99997V8.49997C13.059 8.63258 13.0063 8.75976 12.9126 8.85352C12.8188 8.94729 12.6916 8.99997 12.559 8.99997C12.4264 8.99997 12.2992 8.94729 12.2055 8.85352C12.1117 8.75976 12.059 8.63258 12.059 8.49997V6.99997C12.0597 6.42521 11.9362 5.85708 11.697 5.33446C11.4578 4.81184 11.1085 4.34708 10.673 3.97197C10.5728 3.88522 10.5111 3.76223 10.5016 3.63003C10.492 3.49783 10.5353 3.36724 10.622 3.26697ZM3.68002 5.84197C3.74504 5.85151 3.80755 5.87378 3.86396 5.9075C3.92037 5.94122 3.96958 5.98573 4.00877 6.03848C4.04797 6.09124 4.07638 6.1512 4.09238 6.21494C4.10838 6.27869 4.11165 6.34496 4.10202 6.40997C4.07302 6.60197 4.05802 6.79997 4.05802 6.99997C4.05802 7.70997 3.95802 8.41697 3.76002 9.09997L2.62002 13.023C2.60293 13.0874 2.57314 13.1478 2.53239 13.2005C2.49164 13.2533 2.44075 13.2973 2.38272 13.3301C2.32469 13.3629 2.26069 13.3838 2.19448 13.3915C2.12827 13.3992 2.06119 13.3936 1.99718 13.375C1.93317 13.3564 1.87353 13.3251 1.82176 13.2832C1.76999 13.2412 1.72714 13.1893 1.69573 13.1305C1.66431 13.0717 1.64497 13.0072 1.63884 12.9408C1.63271 12.8744 1.63991 12.8075 1.66002 12.744L2.80002 8.82097C2.97148 8.22918 3.05834 7.6161 3.05802 6.99997C3.05802 6.74997 3.07702 6.50397 3.11202 6.26397C3.12156 6.19895 3.14383 6.13644 3.17755 6.08003C3.21127 6.02362 3.25578 5.97441 3.30853 5.93522C3.36129 5.89602 3.42125 5.86761 3.48499 5.85161C3.54874 5.83561 3.61501 5.83234 3.68002 5.84197ZM12.562 9.50197C12.6941 9.51317 12.8163 9.57634 12.9018 9.67759C12.9873 9.77885 13.0291 9.90991 13.018 10.042C12.934 11.042 12.72 12.028 12.378 12.976L11.634 15.044C11.5876 15.1667 11.4949 15.2662 11.3758 15.3212C11.2567 15.3761 11.1207 15.3821 10.9973 15.3377C10.8738 15.2934 10.7728 15.2023 10.7158 15.0841C10.6589 14.966 10.6507 14.8301 10.693 14.706L11.438 12.636C11.7487 11.7726 11.9451 10.8723 12.022 9.95797C12.0332 9.82592 12.0964 9.70371 12.1976 9.61821C12.2989 9.5327 12.43 9.49089 12.562 9.50197Z"/><path d="M4.80998 1.36998C5.79817 0.799451 6.91913 0.499109 8.06019 0.499146C9.20125 0.499182 10.3222 0.799596 11.3103 1.37019C12.2985 1.94078 13.119 2.76145 13.6895 3.74969C14.2599 4.73793 14.5601 5.85892 14.56 6.99998C14.56 7.13259 14.5073 7.25977 14.4135 7.35353C14.3198 7.4473 14.1926 7.49998 14.06 7.49998C13.9274 7.49998 13.8002 7.4473 13.7064 7.35353C13.6127 7.25977 13.56 7.13259 13.56 6.99998C13.5603 6.03437 13.3064 5.08569 12.8238 4.24933C12.3412 3.41296 11.6469 2.71839 10.8108 2.23545C9.97463 1.7525 9.02606 1.4982 8.06045 1.49812C7.09484 1.49804 6.14622 1.75218 5.30998 2.23498C5.19571 2.29476 5.06276 2.30807 4.93891 2.27214C4.81505 2.23621 4.70987 2.15381 4.64534 2.04216C4.5808 1.93051 4.56189 1.79824 4.59258 1.67298C4.62326 1.54772 4.70115 1.43916 4.80998 1.36998ZM3.91998 2.62698C3.96897 2.67071 4.00886 2.72366 4.03738 2.78281C4.0659 2.84195 4.08249 2.90614 4.08621 2.9717C4.08992 3.03725 4.08069 3.1029 4.05903 3.16489C4.03737 3.22688 4.00371 3.284 3.95998 3.33298C3.05638 4.34042 2.55767 5.64668 2.55998 6.99998C2.55998 7.13259 2.5073 7.25977 2.41354 7.35353C2.31977 7.4473 2.19259 7.49998 2.05998 7.49998C1.92737 7.49998 1.8002 7.4473 1.70643 7.35353C1.61266 7.25977 1.55998 7.13259 1.55998 6.99998C1.55998 5.33598 2.18598 3.81598 3.21498 2.66698C3.25871 2.618 3.31166 2.5781 3.37081 2.54958C3.42995 2.52106 3.49414 2.50447 3.5597 2.50076C3.62526 2.49704 3.6909 2.50628 3.75289 2.52793C3.81488 2.54959 3.872 2.58325 3.92098 2.62698H3.91998ZM1.91498 8.01998C2.04249 8.05588 2.15054 8.14091 2.21541 8.25641C2.28028 8.3719 2.29667 8.50841 2.26098 8.63598L1.48198 11.403C1.46643 11.4685 1.43779 11.5303 1.39778 11.5845C1.35778 11.6387 1.30722 11.6843 1.24917 11.7184C1.19111 11.7526 1.12674 11.7747 1.05993 11.7834C0.993117 11.7921 0.925239 11.7872 0.860372 11.769C0.795504 11.7508 0.734985 11.7196 0.682449 11.6775C0.629913 11.6353 0.586444 11.5829 0.554652 11.5235C0.522859 11.4641 0.5034 11.3989 0.497442 11.3318C0.491484 11.2647 0.499151 11.1971 0.519982 11.133L1.29798 8.36598C1.31575 8.30273 1.34581 8.24361 1.38644 8.19199C1.42708 8.14036 1.47748 8.09725 1.53478 8.06512C1.59208 8.03299 1.65515 8.01246 1.72039 8.00472C1.78563 7.99697 1.85175 8.00216 1.91498 8.01998ZM14.065 8.50098C14.1306 8.50228 14.1954 8.51651 14.2556 8.54284C14.3157 8.56918 14.3701 8.60711 14.4156 8.65447C14.4611 8.70183 14.4969 8.75769 14.5208 8.81886C14.5447 8.88003 14.5563 8.94532 14.555 9.01098C14.525 10.51 14.394 12.036 13.828 13.544L13.758 13.731C13.709 13.8517 13.6148 13.9486 13.4955 14.001C13.3761 14.0533 13.2411 14.057 13.1191 14.0112C12.9971 13.9655 12.8977 13.8739 12.8422 13.756C12.7867 13.6381 12.7795 13.5032 12.822 13.38L12.892 13.193C13.398 11.843 13.526 10.453 13.555 8.99098C13.5563 8.92531 13.5705 8.86055 13.5968 8.80038C13.6232 8.74022 13.6611 8.68583 13.7085 8.64033C13.7558 8.59482 13.8117 8.5591 13.8729 8.53519C13.934 8.51128 13.9993 8.49965 14.065 8.50098Z"/></svg>