<svg width="24" height="24" viewBox="0 0 24 24" xmlns="http://www.w3.org/2000/svg" fill='currentColor'><path d="M19.88 13.89C20.92 13.89 21.77 13.04 21.77 12C21.77 10.96 20.92 10.11 19.88 10.11C18.84 10.11 17.99 10.96 17.99 12C17.99 13.04 18.84 13.89 19.88 13.89ZM15.64 13.68C16.57 13.68 17.32 12.93 17.32 12C17.32 11.07 16.57 10.32 15.64 10.32C14.71 10.32 13.96 11.07 13.96 12C13.96 12.93 14.71 13.68 15.64 13.68ZM15.64 9.42C16.57 9.42 17.32 8.67 17.32 7.74C17.32 6.81 16.57 6.06 15.64 6.06C14.71 6.06 13.96 6.81 13.96 7.74C13.96 8.67 14.71 9.42 15.64 9.42ZM15.64 17.93C16.57 17.93 17.32 17.18 17.32 16.25C17.32 15.32 16.57 14.57 15.64 14.57C14.71 14.57 13.96 15.32 13.96 16.25C13.96 17.17 14.71 17.93 15.64 17.93ZM11.4 13.47C12.21 13.47 12.87 12.81 12.87 12C12.87 11.19 12.21 10.53 11.4 10.53C10.59 10.53 9.93 11.19 9.93 12C9.93 12.81 10.58 13.47 11.4 13.47ZM11.4 9.21C12.21 9.21 12.87 8.55 12.87 7.74C12.87 6.93 12.21 6.27 11.4 6.27C10.59 6.27 9.93 6.93 9.93 7.74C9.93 8.55 10.58 9.21 11.4 9.21ZM11.4 17.73C12.21 17.73 12.87 17.07 12.87 16.26C12.87 15.45 12.21 14.79 11.4 14.79C10.59 14.79 9.93 15.45 9.93 16.26C9.92 17.07 10.58 17.73 11.4 17.73ZM11.4 22C12.21 22 12.87 21.34 12.87 20.53C12.87 19.72 12.21 19.06 11.4 19.06C10.59 19.06 9.93 19.72 9.93 20.53C9.92 21.34 10.58 22 11.4 22ZM11.4 4.94C12.21 4.94 12.87 4.28 12.87 3.47C12.87 2.66 12.21 2 11.4 2C10.59 2 9.93 2.66 9.93 3.47C9.93 4.28 10.58 4.94 11.4 4.94ZM7.15 13.26C7.85 13.26 8.41 12.69 8.41 12C8.41 11.31 7.84 10.74 7.15 10.74C6.45 10.74 5.89 11.31 5.89 12C5.89 12.69 6.45 13.26 7.15 13.26ZM7.15 17.51C7.85 17.51 8.41 16.94 8.41 16.25C8.41 15.55 7.84 14.99 7.15 14.99C6.45 14.99 5.89 15.56 5.89 16.25C5.89 16.94 6.45 17.51 7.15 17.51ZM7.15 9.02C7.85 9.02 8.41 8.45 8.41 7.76C8.41 7.06 7.84 6.5 7.15 6.5C6.45 6.5 5.89 7.07 5.89 7.76C5.89 8.45 6.45 9.02 7.15 9.02ZM3.28 13.05C3.86 13.05 4.33 12.58 4.33 12C4.33 11.42 3.86 10.95 3.28 10.95C2.7 10.95 2.23 11.42 2.23 12C2.23 12.58 2.7 13.05 3.28 13.05Z"/></svg>