<svg width="24" height="24" viewBox="0 0 24 24" xmlns="http://www.w3.org/2000/svg" fill='currentColor'><path d="M19.88 13.89C20.92 13.89 21.77 13.04 21.77 12C21.77 10.96 20.92 10.11 19.88 10.11C18.84 10.11 17.99 10.96 17.99 12C17.99 13.04 18.84 13.89 19.88 13.89ZM15.64 13.68C16.57 13.68 17.32 12.93 17.32 12C17.32 11.07 16.57 10.32 15.64 10.32C14.71 10.32 13.96 11.07 13.96 12C13.96 12.93 14.71 13.68 15.64 13.68ZM15.64 9.42C16.57 9.42 17.32 8.67 17.32 7.74C17.32 6.81 16.57 6.06 15.64 6.06C14.71 6.06 13.96 6.81 13.96 7.74C13.96 8.67 14.71 9.42 15.64 9.42ZM15.64 17.93C16.57 17.93 17.32 17.18 17.32 16.25C17.32 15.32 16.57 14.57 15.64 14.57C14.71 14.57 13.96 15.32 13.96 16.25C13.96 17.17 14.71 17.93 15.64 17.93ZM11.4 13.47C12.21 13.47 12.87 12.81 12.87 12C12.87 11.19 12.21 10.53 11.4 10.53C10.59 10.53 9.92998 11.19 9.92998 12C9.92998 12.81 10.58 13.47 11.4 13.47ZM11.4 9.21C12.21 9.21 12.87 8.55 12.87 7.74C12.87 6.93 12.21 6.27 11.4 6.27C10.59 6.27 9.92998 6.93 9.92998 7.74C9.92998 8.55 10.58 9.21 11.4 9.21ZM11.4 17.73C12.21 17.73 12.87 17.07 12.87 16.26C12.87 15.45 12.21 14.79 11.4 14.79C10.59 14.79 9.92998 15.45 9.92998 16.26C9.91998 17.07 10.58 17.73 11.4 17.73ZM11.4 22C12.21 22 12.87 21.34 12.87 20.53C12.87 19.72 12.21 19.06 11.4 19.06C10.59 19.06 9.92998 19.72 9.92998 20.53C9.91998 21.34 10.58 22 11.4 22ZM11.4 4.94C12.21 4.94 12.87 4.28 12.87 3.47C12.87 2.66 12.21 2 11.4 2C10.59 2 9.92998 2.66 9.92998 3.47C9.92998 4.28 10.58 4.94 11.4 4.94ZM7.14998 13.26C7.84998 13.26 8.40998 12.69 8.40998 12C8.40998 11.31 7.83998 10.74 7.14998 10.74C6.44998 10.74 5.88998 11.31 5.88998 12C5.88998 12.69 6.44998 13.26 7.14998 13.26ZM7.14998 17.51C7.84998 17.51 8.40998 16.94 8.40998 16.25C8.40998 15.55 7.83998 14.99 7.14998 14.99C6.44998 14.99 5.88998 15.56 5.88998 16.25C5.88998 16.94 6.44998 17.51 7.14998 17.51ZM7.14998 9.02C7.84998 9.02 8.40998 8.45 8.40998 7.76C8.40998 7.06 7.83998 6.5 7.14998 6.5C6.44998 6.5 5.88998 7.07 5.88998 7.76C5.88998 8.45 6.44998 9.02 7.14998 9.02ZM3.27998 13.05C3.85998 13.05 4.32998 12.58 4.32998 12C4.32998 11.42 3.85998 10.95 3.27998 10.95C2.69998 10.95 2.22998 11.42 2.22998 12C2.22998 12.58 2.69998 13.05 3.27998 13.05Z"/></svg>