<svg width="16" height="16" viewBox="0 0 16 16" fill="none" xmlns="http://www.w3.org/2000/svg">
<g clip-path="url(#clip0_104_2123)">
<path d="M6.174 1.18396C6.33155 0.831365 6.58781 0.531927 6.91184 0.321808C7.23587 0.111689 7.6138 -0.00012207 8 -0.00012207C8.38619 -0.00012207 8.76412 0.111689 9.08815 0.321808C9.41218 0.531927 9.66845 0.831365 9.826 1.18396C10.1387 0.956977 10.5105 0.825453 10.8964 0.80529C11.2823 0.785126 11.6658 0.877187 12.0005 1.07034C12.3352 1.26349 12.6067 1.54947 12.7823 1.89368C12.9579 2.2379 13.0301 2.62562 12.99 3.00996C13.3743 2.96989 13.7621 3.04202 14.1063 3.21762C14.4505 3.39323 14.7365 3.66479 14.9296 3.99948C15.1228 4.33417 15.2148 4.71764 15.1947 5.10354C15.1745 5.48943 15.043 5.86123 14.816 6.17396C15.1686 6.33151 15.468 6.58778 15.6781 6.9118C15.8883 7.23583 16.0001 7.61377 16.0001 7.99996C16.0001 8.38615 15.8883 8.76408 15.6781 9.08811C15.468 9.41214 15.1686 9.66841 14.816 9.82596C15.043 10.1387 15.1745 10.5105 15.1947 10.8964C15.2148 11.2823 15.1228 11.6658 14.9296 12.0004C14.7365 12.3351 14.4505 12.6067 14.1063 12.7823C13.7621 12.9579 13.3743 13.03 12.99 12.99C13.0301 13.3743 12.9579 13.762 12.7823 14.1062C12.6067 14.4504 12.3352 14.7364 12.0005 14.9296C11.6658 15.1227 11.2823 15.2148 10.8964 15.1946C10.5105 15.1745 10.1387 15.0429 9.826 14.816C9.66845 15.1686 9.41218 15.468 9.08815 15.6781C8.76412 15.8882 8.38619 16 8 16C7.6138 16 7.23587 15.8882 6.91184 15.6781C6.58781 15.468 6.33155 15.1686 6.174 14.816C5.86126 15.0429 5.48947 15.1745 5.10357 15.1946C4.71768 15.2148 4.3342 15.1227 3.99952 14.9296C3.66483 14.7364 3.39327 14.4504 3.21766 14.1062C3.04205 13.762 2.96993 13.3743 3.01 12.99C2.62566 13.03 2.23794 12.9579 1.89372 12.7823C1.54951 12.6067 1.26353 12.3351 1.07038 12.0004C0.877225 11.6658 0.785165 11.2823 0.805328 10.8964C0.825492 10.5105 0.957016 10.1387 1.184 9.82596C0.831403 9.66841 0.531965 9.41214 0.321846 9.08811C0.111727 8.76408 -8.39233e-05 8.38615 -8.39233e-05 7.99996C-8.39233e-05 7.61377 0.111727 7.23583 0.321846 6.9118C0.531965 6.58778 0.831403 6.33151 1.184 6.17396C0.957016 5.86123 0.825492 5.48943 0.805328 5.10354C0.785165 4.71764 0.877225 4.33417 1.07038 3.99948C1.26353 3.66479 1.54951 3.39323 1.89372 3.21762C2.23794 3.04202 2.62566 2.96989 3.01 3.00996C2.96993 2.62562 3.04205 2.2379 3.21766 1.89368C3.39327 1.54947 3.66483 1.26349 3.99952 1.07034C4.3342 0.877187 4.71768 0.785126 5.10357 0.80529C5.48947 0.825453 5.86126 0.956977 6.174 1.18396ZM8 0.999959C7.86628 1.00017 7.73396 1.02719 7.61087 1.07943C7.48778 1.13167 7.37642 1.20806 7.28337 1.3041C7.19032 1.40013 7.11748 1.51384 7.06915 1.63852C7.02082 1.7632 6.99799 1.8963 7.002 2.02996L7.012 2.12096C7.024 2.19796 7.041 2.29696 7.066 2.41696C7.115 2.65796 7.188 2.95896 7.279 3.30396C7.461 3.99196 7.707 4.81696 7.955 5.61796L8 5.76196L8.045 5.61796C8.293 4.81796 8.539 3.99196 8.721 3.30396C8.812 2.95896 8.885 2.65796 8.934 2.41696C8.96036 2.28918 8.98171 2.16041 8.998 2.03096L9 1.99996C9 1.73474 8.89464 1.48039 8.7071 1.29285C8.51957 1.10532 8.26521 0.999959 8 0.999959ZM2 8.99996L2.03 8.99796L2.121 8.98796C2.22018 8.97294 2.3189 8.95493 2.417 8.93396C2.658 8.88496 2.959 8.81196 3.304 8.72096C4.07974 8.51099 4.85122 8.28562 5.618 8.04496L5.762 7.99996L5.618 7.95496C4.85122 7.7143 4.07974 7.48892 3.304 7.27896C3.01032 7.1999 2.71455 7.12887 2.417 7.06596C2.28922 7.03959 2.16045 7.01824 2.031 7.00196L2 6.99996C1.73478 6.99996 1.48043 7.10532 1.29289 7.29285C1.10535 7.48039 0.999997 7.73474 0.999997 7.99996C0.999997 8.26518 1.10535 8.51953 1.29289 8.70707C1.48043 8.8946 1.73478 8.99996 2 8.99996ZM9 14L8.998 13.97C8.9817 13.8405 8.96035 13.7117 8.934 13.584C8.87125 13.286 8.80023 12.9899 8.721 12.696C8.51103 11.9202 8.28566 11.1487 8.045 10.382L8 10.238L7.955 10.382C7.707 11.182 7.461 12.008 7.279 12.696C7.188 13.041 7.115 13.342 7.066 13.583C7.03963 13.7107 7.01828 13.8395 7.002 13.969L7 14C7 14.2652 7.10535 14.5195 7.29289 14.7071C7.48043 14.8946 7.73478 15 8 15C8.26521 15 8.51957 14.8946 8.7071 14.7071C8.89464 14.5195 9 14.2652 9 14ZM3.304 11.866L3.329 11.849C3.4332 11.7703 3.53427 11.6875 3.632 11.601C3.816 11.437 4.04 11.224 4.293 10.972C4.86016 10.4024 5.41594 9.82162 5.96 9.22996L6.063 9.11896L5.916 9.15196C5.1313 9.32714 4.35014 9.51784 3.573 9.72396C3.229 9.81696 2.933 9.90396 2.699 9.98196C2.57493 10.0232 2.4525 10.0692 2.332 10.12L2.305 10.134C2.19035 10.1991 2.08973 10.2864 2.00893 10.3906C1.92813 10.4948 1.86874 10.614 1.83419 10.7413C1.79963 10.8685 1.7906 11.0014 1.80759 11.1322C1.82459 11.2629 1.86729 11.3891 1.93323 11.5033C1.99917 11.6175 2.08706 11.7175 2.19182 11.7976C2.29658 11.8778 2.41615 11.9363 2.54365 11.9701C2.67115 12.0038 2.80406 12.0119 2.93472 11.9941C3.06539 11.9762 3.19123 11.9327 3.305 11.866H3.304ZM4.5 14.062C4.72968 14.1946 5.00262 14.2305 5.2588 14.1619C5.51497 14.0932 5.73339 13.9256 5.866 13.696L5.88 13.669C5.89 13.649 5.901 13.621 5.916 13.585C5.95278 13.4917 5.98679 13.3973 6.018 13.302C6.096 13.069 6.183 12.772 6.276 12.428C6.48219 11.6508 6.67289 10.8697 6.848 10.085L6.881 9.93796L6.771 10.04C6.17904 10.5841 5.59793 11.1398 5.028 11.707C4.81249 11.9213 4.60275 12.1414 4.399 12.367C4.31243 12.465 4.2297 12.5665 4.151 12.671L4.134 12.696C4.00139 12.9256 3.96546 13.1986 4.0341 13.4548C4.10274 13.7109 4.27032 13.9293 4.5 14.062ZM13.696 5.86596C13.9238 5.73241 14.0895 5.51417 14.157 5.25888C14.2245 5.00358 14.1883 4.73195 14.0563 4.50326C13.9242 4.27458 13.7071 4.1074 13.4523 4.03821C13.1974 3.96902 12.9256 4.00344 12.696 4.13396L12.671 4.15096C12.5668 4.2296 12.4657 4.31233 12.368 4.39896C12.142 4.60256 11.9216 4.81231 11.707 5.02796C11.1399 5.59753 10.5841 6.17832 10.04 6.76996L9.938 6.88096L10.085 6.84796C10.8694 6.67284 11.6502 6.48214 12.427 6.27596C12.772 6.18296 13.069 6.09596 13.302 6.01796C13.4261 5.97678 13.5485 5.93075 13.669 5.87996C13.6781 5.87555 13.6871 5.87088 13.696 5.86596ZM11.5 1.93796C11.2703 1.80536 10.9974 1.76942 10.7412 1.83806C10.485 1.9067 10.2666 2.07429 10.134 2.30396L10.12 2.33096C10.11 2.35096 10.099 2.37896 10.084 2.41496C10.0472 2.50827 10.0132 2.60264 9.982 2.69796C9.904 2.93096 9.817 3.22796 9.724 3.57296C9.51782 4.34976 9.32712 5.13058 9.152 5.91496L9.119 6.06196L9.229 5.95996C9.82095 5.41586 10.4021 4.86009 10.972 4.29296C11.224 4.03996 11.437 3.81596 11.601 3.63296C11.6876 3.53491 11.7703 3.4335 11.849 3.32896L11.866 3.30396C11.9986 3.07428 12.0345 2.80133 11.9659 2.54516C11.8973 2.28899 11.7297 2.07057 11.5 1.93796ZM14 8.99996C14.2652 8.99996 14.5196 8.8946 14.7071 8.70707C14.8946 8.51953 15 8.26518 15 7.99996C15 7.73474 14.8946 7.48039 14.7071 7.29285C14.5196 7.10532 14.2652 6.99996 14 6.99996L13.97 7.00196C13.8405 7.01824 13.7118 7.03959 13.584 7.06596C13.342 7.11496 13.041 7.18796 12.696 7.27896C12.008 7.46096 11.183 7.70696 10.382 7.95496L10.238 7.99996L10.382 8.04496C11.182 8.29296 12.008 8.53896 12.696 8.72096C13.041 8.81196 13.342 8.88496 13.583 8.93396C13.7108 8.96032 13.8395 8.98167 13.969 8.99796L14 8.99996ZM1.938 4.49996C1.8712 4.61589 1.82836 4.74405 1.81199 4.87685C1.79563 5.00964 1.80608 5.14437 1.84272 5.27305C1.87937 5.40173 1.94147 5.52175 2.02534 5.626C2.10921 5.73025 2.21315 5.81661 2.331 5.87996L2.415 5.91496C2.487 5.94496 2.581 5.97896 2.698 6.01796C2.931 6.09596 3.228 6.18296 3.572 6.27596C4.34914 6.48208 5.1303 6.67278 5.915 6.84796L6.062 6.88096L5.959 6.76996C5.41527 6.1783 4.85983 5.59752 4.293 5.02796C4.07876 4.81233 3.85868 4.60258 3.633 4.39896C3.53495 4.31234 3.43354 4.22961 3.329 4.15096L3.304 4.13396C3.07432 4.00136 2.80137 3.96542 2.5452 4.03406C2.28903 4.1027 2.07061 4.27029 1.938 4.49996ZM4.134 3.30396L4.151 3.32896C4.22967 3.43316 4.3124 3.53424 4.399 3.63196C4.563 3.81596 4.776 4.03996 5.028 4.29296C5.59755 4.86012 6.17833 5.4159 6.77 5.95996L6.881 6.06196L6.848 5.91496C6.67288 5.13058 6.48217 4.34976 6.276 3.57296C6.183 3.22796 6.096 2.93096 6.018 2.69796C5.97681 2.57387 5.93077 2.45144 5.88 2.33096L5.866 2.30396C5.80082 2.18931 5.7136 2.08869 5.60937 2.00789C5.50514 1.92709 5.38596 1.8677 5.25869 1.83315C5.13142 1.7986 4.99857 1.78956 4.86779 1.80656C4.73701 1.82355 4.61088 1.86625 4.49667 1.9322C4.38246 1.99814 4.28242 2.08602 4.20231 2.19078C4.1222 2.29554 4.06361 2.41511 4.0299 2.54261C3.99619 2.67011 3.98803 2.80302 4.0059 2.93368C4.02376 3.06435 4.0673 3.19019 4.134 3.30396ZM14.062 11.5C14.1946 11.2703 14.2305 10.9973 14.1619 10.7412C14.0933 10.485 13.9257 10.2666 13.696 10.134L13.669 10.12C13.5485 10.0692 13.4261 10.0231 13.302 9.98196C13.069 9.90396 12.772 9.81696 12.427 9.72396C11.6502 9.51779 10.8694 9.32708 10.085 9.15196L9.938 9.11896L10.04 9.22996C10.5841 9.8216 11.1399 10.4024 11.707 10.972C11.96 11.224 12.184 11.437 12.367 11.601C12.465 11.6876 12.5664 11.7703 12.671 11.849L12.696 11.866C12.9257 11.9986 13.1986 12.0345 13.4548 11.9659C13.711 11.8972 13.9294 11.7296 14.062 11.5ZM10.134 13.696C10.2675 13.9238 10.4858 14.0895 10.7411 14.157C10.9964 14.2245 11.268 14.1883 11.4967 14.0562C11.7254 13.9242 11.8926 13.7071 11.9617 13.4522C12.0309 13.1974 11.9965 12.9255 11.866 12.696L11.849 12.671C11.7703 12.5668 11.6875 12.4657 11.601 12.368C11.3974 12.1419 11.1876 11.9215 10.972 11.707C10.4025 11.1398 9.82169 10.584 9.23 10.04L9.119 9.93796L9.152 10.085C9.32712 10.8693 9.51782 11.6502 9.724 12.427C9.817 12.772 9.904 13.069 9.982 13.302C10.0232 13.4261 10.0692 13.5485 10.12 13.669C10.1244 13.6781 10.1291 13.6871 10.134 13.696ZM8 9.49996C8.39782 9.49996 8.77935 9.34192 9.06066 9.06062C9.34196 8.77931 9.5 8.39778 9.5 7.99996C9.5 7.60213 9.34196 7.2206 9.06066 6.9393C8.77935 6.65799 8.39782 6.49996 8 6.49996C7.60217 6.49996 7.22064 6.65799 6.93934 6.9393C6.65803 7.2206 6.5 7.60213 6.5 7.99996C6.5 8.39778 6.65803 8.77931 6.93934 9.06062C7.22064 9.34192 7.60217 9.49996 8 9.49996Z" fill="black"/>
</g>
<defs>
<clipPath id="clip0_104_2123">
<rect width="16" height="16" fill="white"/>
</clipPath>
</defs>
</svg>
