<svg width="16" height="16" viewBox="0 0 16 16" fill="none" xmlns="http://www.w3.org/2000/svg">
<g clip-path="url(#clip0_104_2125)">
<path d="M8 16C9.06087 16 10.0783 15.5786 10.8284 14.8284C11.5786 14.0783 12 13.0609 12 12C13.0609 12 14.0783 11.5786 14.8284 10.8284C15.5786 10.0783 16 9.06087 16 8C16 6.93913 15.5786 5.92172 14.8284 5.17157C14.0783 4.42143 13.0609 4 12 4C12 2.93913 11.5786 1.92172 10.8284 1.17157C10.0783 0.421427 9.06087 0 8 0C6.93913 0 5.92172 0.421427 5.17157 1.17157C4.42143 1.92172 4 2.93913 4 4C2.93913 4 1.92172 4.42143 1.17157 5.17157C0.421427 5.92172 0 6.93913 0 8C0 9.06087 0.421427 10.0783 1.17157 10.8284C1.92172 11.5786 2.93913 12 4 12C4 13.0609 4.42143 14.0783 5.17157 14.8284C5.92172 15.5786 6.93913 16 8 16ZM11 4C11 4.073 10.99 4.155 10.97 4.247C10.426 4.488 9.879 4.885 9.372 5.331C8.94767 5.11265 8.47721 4.99915 8 5C7.506 5 7.04 5.12 6.628 5.331C6.121 4.885 5.574 4.488 5.031 4.247C5.0115 4.16608 5.0011 4.08323 5 4C5 3.20435 5.31607 2.44129 5.87868 1.87868C6.44129 1.31607 7.20435 1 8 1C8.79565 1 9.55871 1.31607 10.1213 1.87868C10.6839 2.44129 11 3.20435 11 4ZM10.188 10.052C10.7104 9.49656 11.0009 8.76252 11 8C11.0009 7.23748 10.7104 6.50344 10.188 5.948C10.403 5.768 10.62 5.602 10.835 5.461C11.34 5.131 11.732 5 12 5C12.7956 5 13.5587 5.31607 14.1213 5.87868C14.6839 6.44129 15 7.20435 15 8C15 8.79565 14.6839 9.55871 14.1213 10.1213C13.5587 10.6839 12.7956 11 12 11C11.732 11 11.34 10.87 10.835 10.539C10.6099 10.3896 10.3938 10.227 10.188 10.052ZM6.628 10.669C7.05243 10.8872 7.52278 11.001 8 11.001C8.47722 11.001 8.94757 10.8872 9.372 10.669C9.879 11.115 10.426 11.511 10.97 11.753C10.99 11.844 11 11.927 11 12C11 12.7956 10.6839 13.5587 10.1213 14.1213C9.55871 14.6839 8.79565 15 8 15C7.20435 15 6.44129 14.6839 5.87868 14.1213C5.31607 13.5587 5 12.7956 5 12C5 11.927 5.01 11.845 5.03 11.753C5.574 11.511 6.121 11.115 6.628 10.669ZM5.812 5.948C5.28958 6.50344 4.99911 7.23748 5 8C5 8.794 5.308 9.516 5.812 10.052C5.60615 10.227 5.39011 10.3896 5.165 10.539C4.66 10.869 4.268 11 4 11C3.20435 11 2.44129 10.6839 1.87868 10.1213C1.31607 9.55871 1 8.79565 1 8C1 7.20435 1.31607 6.44129 1.87868 5.87868C2.44129 5.31607 3.20435 5 4 5C4.268 5 4.66 5.13 5.165 5.461C5.38 5.602 5.597 5.767 5.812 5.948ZM8 9C7.73478 9 7.48043 8.89464 7.29289 8.70711C7.10536 8.51957 7 8.26522 7 8C7 7.73478 7.10536 7.48043 7.29289 7.29289C7.48043 7.10536 7.73478 7 8 7C8.26522 7 8.51957 7.10536 8.70711 7.29289C8.89464 7.48043 9 7.73478 9 8C9 8.26522 8.89464 8.51957 8.70711 8.70711C8.51957 8.89464 8.26522 9 8 9Z" fill="black"/>
</g>
<defs>
<clipPath id="clip0_104_2125">
<rect width="16" height="16" fill="white"/>
</clipPath>
</defs>
</svg>
