<svg width="16" height="16" viewBox="0 0 16 16" fill="none" xmlns="http://www.w3.org/2000/svg">
<path d="M0.540007 3.87L0.500007 3C0.500007 2.46957 0.710721 1.96086 1.08579 1.58579C1.46087 1.21071 1.96957 1 2.50001 1H6.17201C6.7024 1.00011 7.21102 1.2109 7.58601 1.586L8.41401 2.414C8.78899 2.7891 9.29762 2.99989 9.82801 3H13.81C14.0879 2.99997 14.3628 3.05787 14.6171 3.16999C14.8714 3.28212 15.0995 3.44601 15.287 3.65122C15.4744 3.85643 15.617 4.09845 15.7057 4.36184C15.7943 4.62524 15.8272 4.90422 15.802 5.181L15.546 8H14.54L14.805 5.09C14.8175 4.95173 14.8011 4.81238 14.7568 4.68081C14.7124 4.54924 14.6412 4.42834 14.5476 4.32581C14.454 4.22328 14.3401 4.14135 14.2131 4.08526C14.0861 4.02917 13.9488 4.00013 13.81 4H2.19001C2.05109 3.99999 1.9137 4.02893 1.78659 4.08496C1.65948 4.14099 1.54543 4.22289 1.45173 4.32544C1.35802 4.42799 1.28671 4.54894 1.24234 4.68058C1.19796 4.81221 1.1815 4.95165 1.19401 5.09L1.83101 12.09C1.85346 12.3385 1.96797 12.5696 2.15206 12.7379C2.33616 12.9063 2.57653 12.9998 2.82601 13H9.00001V14H2.82601C2.32704 13.9998 1.84618 13.8131 1.4778 13.4766C1.10943 13.14 0.880163 12.6779 0.835007 12.181L0.198007 5.181C0.155393 4.71778 0.276401 4.25427 0.540007 3.871V3.87ZM6.87901 2.293C6.69151 2.10545 6.4372 2.00006 6.17201 2H2.50001C2.23805 1.99995 1.98653 2.1027 1.79953 2.28614C1.61253 2.46959 1.50498 2.71909 1.50001 2.981L1.50601 3.12C1.72001 3.042 1.95001 3 2.19001 3H7.58601L6.87901 2.293Z" fill="black"/>
<path d="M11.854 10.146C11.7601 10.0523 11.6328 9.99966 11.5001 9.99976C11.3675 9.99985 11.2402 10.0526 11.1465 10.1465C11.0527 10.2404 11.0001 10.3677 11.0002 10.5004C11.0003 10.6331 11.0531 10.7603 11.147 10.854L12.293 12L11.147 13.146C11.1005 13.1925 11.0636 13.2476 11.0384 13.3083C11.0132 13.3689 11.0003 13.434 11.0002 13.4997C11.0001 13.6324 11.0527 13.7596 11.1465 13.8535C11.2402 13.9474 11.3675 14.0002 11.5001 14.0003C11.6328 14.0004 11.7601 13.9478 11.854 13.854L13 12.707L14.146 13.854C14.2399 13.9479 14.3672 14.0007 14.5 14.0007C14.6328 14.0007 14.7601 13.9479 14.854 13.854C14.9479 13.7601 15.0006 13.6328 15.0006 13.5C15.0006 13.3673 14.9479 13.2399 14.854 13.146L13.707 12L14.854 10.854C14.9479 10.7603 15.0007 10.6331 15.0008 10.5004C15.0009 10.3677 14.9482 10.2404 14.8545 10.1465C14.7607 10.0526 14.6335 9.99985 14.5008 9.99976C14.3682 9.99966 14.2409 10.0523 14.147 10.146L13 11.293L11.854 10.146Z" fill="black"/>
</svg>
