<svg width="16" height="16" viewBox="0 0 16 16" fill="none" xmlns="http://www.w3.org/2000/svg">
<path d="M0.499997 3L0.539997 3.87C0.276163 4.25355 0.155144 4.71745 0.197997 5.181L0.834997 12.181C0.880153 12.6779 1.10942 13.14 1.47779 13.4766C1.84617 13.8131 2.32703 13.9998 2.826 14H9V13H2.826C2.57652 12.9998 2.33615 12.9063 2.15205 12.7379C1.96796 12.5696 1.85345 12.3385 1.831 12.09L1.194 5.09C1.18149 4.95165 1.19795 4.81221 1.24233 4.68058C1.2867 4.54894 1.35801 4.42799 1.45172 4.32544C1.54542 4.22289 1.65947 4.14099 1.78658 4.08496C1.91369 4.02893 2.05108 3.99999 2.19 4H13.81C13.9489 3.99999 14.0863 4.02893 14.2134 4.08496C14.3405 4.14099 14.4546 4.22289 14.5483 4.32544C14.642 4.42799 14.7133 4.54894 14.7577 4.68058C14.802 4.81221 14.8185 4.95165 14.806 5.09L14.54 8H15.545L15.801 5.181C15.8261 4.9043 15.7934 4.6254 15.7047 4.36208C15.6161 4.09876 15.4736 3.85678 15.2863 3.65159C15.099 3.4464 14.871 3.28248 14.6168 3.17029C14.3626 3.05811 14.0878 3.00011 13.81 3H9.828C9.29761 2.99989 8.78898 2.7891 8.414 2.414L7.586 1.586C7.21101 1.2109 6.70239 1.00011 6.172 1H2.5C1.96956 1 1.46086 1.21071 1.08578 1.58579C0.710711 1.96086 0.499997 2.46957 0.499997 3ZM6.172 2C6.43719 2.00006 6.6915 2.10545 6.879 2.293L7.586 3H2.19C1.95 3 1.72 3.042 1.507 3.12L1.5 2.98C1.50523 2.71827 1.6129 2.46902 1.79987 2.28579C1.98684 2.10255 2.23821 1.99995 2.5 2H6.172Z" fill="black"/>
<path d="M11 11.5C11 11.3674 11.0527 11.2402 11.1464 11.1464C11.2402 11.0527 11.3674 11 11.5 11H15.5C15.6326 11 15.7598 11.0527 15.8536 11.1464C15.9473 11.2402 16 11.3674 16 11.5C16 11.6326 15.9473 11.7598 15.8536 11.8536C15.7598 11.9473 15.6326 12 15.5 12H11.5C11.3674 12 11.2402 11.9473 11.1464 11.8536C11.0527 11.7598 11 11.6326 11 11.5Z" fill="black"/>
</svg>
