<svg width="16" height="16" viewBox="0 0 16 16" fill="none" xmlns="http://www.w3.org/2000/svg">
<path d="M0.999999 3.5C0.999999 3.10218 1.15803 2.72064 1.43934 2.43934C1.72064 2.15804 2.10217 2 2.5 2H5.264C6.222 2 7.024 2.56 7.575 3.184C7.985 3.648 8.48 4 9 4H13.5C13.8978 4 14.2794 4.15804 14.5607 4.43934C14.842 4.72064 15 5.10218 15 5.5V6.14C15.57 6.405 15.94 7.016 15.856 7.686L15.216 12.81C15.1404 13.415 14.8463 13.9716 14.389 14.3749C13.9317 14.7783 13.3427 15.0006 12.733 15H3.266C2.65659 15.0001 2.06815 14.7775 1.61128 14.3743C1.1544 13.971 0.860565 13.4147 0.784999 12.81L0.144999 7.686C0.105572 7.37099 0.167108 7.05159 0.320751 6.77377C0.474394 6.49596 0.71222 6.27405 0.999999 6.14V3.5ZM2 6H14V5.5C14 5.36739 13.9473 5.24021 13.8536 5.14645C13.7598 5.05268 13.6326 5 13.5 5H9C8.036 5 7.29 4.371 6.826 3.846C6.374 3.334 5.82 3 5.264 3H2.5C2.36739 3 2.24021 3.05268 2.14645 3.14645C2.05268 3.24021 2 3.36739 2 3.5V6ZM1.633 7C1.56212 7.00002 1.49205 7.01511 1.42744 7.04427C1.36283 7.07343 1.30516 7.116 1.25826 7.16915C1.21136 7.22229 1.17629 7.2848 1.15538 7.35253C1.13448 7.42026 1.12821 7.49166 1.137 7.562L1.777 12.686C1.82235 13.0489 1.99871 13.3827 2.27291 13.6247C2.54712 13.8667 2.90029 14.0001 3.266 14H12.734C13.0997 14.0001 13.4529 13.8667 13.7271 13.6247C14.0013 13.3827 14.1777 13.0489 14.223 12.686L14.863 7.562C14.8718 7.49166 14.8655 7.42026 14.8446 7.35253C14.8237 7.2848 14.7886 7.22229 14.7417 7.16915C14.6948 7.116 14.6372 7.07343 14.5726 7.04427C14.508 7.01511 14.4379 7.00002 14.367 7H1.633Z" fill="black"/>
</svg>
