<svg width="16" height="16" viewBox="0 0 16 16" fill="none" xmlns="http://www.w3.org/2000/svg">
<path d="M13.81 3H9.828C9.29761 2.99989 8.78898 2.7891 8.414 2.414L7.586 1.586C7.21101 1.2109 6.70239 1.00011 6.172 1H2.5C1.96956 1 1.46086 1.21071 1.08578 1.58579C0.710711 1.96086 0.499997 2.46957 0.499997 3L0.539997 3.87C0.276163 4.25355 0.155144 4.71745 0.197997 5.181L0.834997 12.181C0.880153 12.6779 1.10942 13.14 1.47779 13.4766C1.84617 13.8131 2.32703 13.9998 2.826 14H13.174C13.673 13.9998 14.1538 13.8131 14.5222 13.4766C14.8906 13.14 15.1198 12.6779 15.165 12.181L15.802 5.181C15.8271 4.90422 15.7943 4.62524 15.7057 4.36184C15.617 4.09845 15.4744 3.85643 15.287 3.65122C15.0995 3.44601 14.8714 3.28212 14.6171 3.16999C14.3628 3.05787 14.0879 2.99997 13.81 3ZM2.19 3C1.95 3 1.72 3.042 1.507 3.12L1.5 2.98C1.50523 2.71827 1.6129 2.46902 1.79987 2.28579C1.98684 2.10255 2.23821 1.99995 2.5 2H6.172C6.43719 2.00006 6.6915 2.10545 6.879 2.293L7.586 3H2.19ZM11.798 8.271L8.616 10.241C8.346 10.407 8 10.205 8 9.869V9.1C8 9.1 5.429 8.8 4 11.5C4.571 6.7 7.143 6.7 8 6.7V5.931C8 5.595 8.346 5.393 8.616 5.56L11.798 7.529C12.068 7.695 12.068 8.105 11.798 8.271Z" fill="black"/>
</svg>
