<svg width="16" height="16" viewBox="0 0 16 16" fill="none" xmlns="http://www.w3.org/2000/svg">
<path d="M0.54 3.87L0.5 3C0.5 2.46957 0.710714 1.96086 1.08579 1.58579C1.46086 1.21071 1.96957 1 2.5 1H6.172C6.70239 1.00011 7.21101 1.2109 7.586 1.586L8.414 2.414C8.78899 2.7891 9.29761 2.99989 9.828 3H13.81C14.0879 2.99997 14.3628 3.05787 14.6171 3.16999C14.8714 3.28212 15.0995 3.44601 15.287 3.65122C15.4744 3.85643 15.617 4.09845 15.7057 4.36184C15.7943 4.62524 15.8272 4.90422 15.802 5.181L15.165 12.181C15.1198 12.6779 14.8906 13.14 14.5222 13.4766C14.1538 13.8131 13.673 13.9998 13.174 14H2.826C2.32704 13.9998 1.84617 13.8131 1.4778 13.4766C1.10943 13.14 0.880156 12.6779 0.835 12.181L0.198 5.181C0.155387 4.71778 0.276394 4.25427 0.54 3.871V3.87ZM2.19 4C2.05109 3.99999 1.91369 4.02893 1.78658 4.08496C1.65947 4.14099 1.54543 4.22289 1.45172 4.32544C1.35801 4.42799 1.2867 4.54894 1.24233 4.68058C1.19796 4.81221 1.1815 4.95165 1.194 5.09L1.831 12.09C1.85345 12.3385 1.96797 12.5696 2.15206 12.7379C2.33615 12.9063 2.57653 12.9998 2.826 13H13.174C13.4235 12.9998 13.6638 12.9063 13.8479 12.7379C14.032 12.5696 14.1465 12.3385 14.169 12.09L14.806 5.09C14.8185 4.95165 14.802 4.81221 14.7577 4.68058C14.7133 4.54894 14.642 4.42799 14.5483 4.32544C14.4546 4.22289 14.3405 4.14099 14.2134 4.08496C14.0863 4.02893 13.9489 3.99999 13.81 4H2.19ZM6.88 2.293C6.78704 2.20002 6.67666 2.12628 6.55518 2.076C6.43369 2.02572 6.30348 1.9999 6.172 2H2.5C2.23804 1.99995 1.98653 2.1027 1.79953 2.28614C1.61253 2.46959 1.50498 2.71909 1.5 2.981L1.506 3.12C1.72 3.042 1.95 3 2.19 3H7.586L6.879 2.293H6.88Z" fill="black"/>
</svg>
