<svg width="24" height="24" viewBox="0 0 24 24" xmlns="http://www.w3.org/2000/svg" fill='currentColor'><path d="M13.235 9.09497L12.365 8.22497L12.595 7.56497H12.695L13.235 9.09497ZM11.005 6.86497L11.575 5.34497H13.715L16.265 12.135L22.655 18.515V3.34497C22.655 2.24497 21.755 1.34497 20.655 1.34497H5.48497L11.005 6.86497ZM21.145 22.655L19.825 21.345H4.65497C3.55497 21.345 2.65497 20.445 2.65497 19.345V4.17497L1.34497 2.85497L2.75497 1.44497L22.555 21.245L21.145 22.655ZM12.755 14.275L9.45497 10.975L7.06497 17.345H9.14497L10.235 14.275H12.755Z"/></svg>