<svg width="16" height="16" viewBox="0 0 16 16" fill="none" xmlns="http://www.w3.org/2000/svg">
<path d="M9.77 12.1101L13.782 9.15705C13.8788 9.09984 13.959 9.01837 14.0148 8.9207C14.0705 8.82302 14.0998 8.71251 14.0998 8.60005C14.0998 8.4876 14.0705 8.37708 14.0148 8.27941C13.959 8.18173 13.8788 8.10027 13.782 8.04305L9.771 5.09005C9.67303 5.03231 9.56151 5.00154 9.44779 5.00087C9.33407 5.0002 9.2222 5.02965 9.12355 5.08624C9.02491 5.14282 8.94301 5.22452 8.88618 5.32303C8.82934 5.42153 8.79961 5.53333 8.8 5.64705V6.65005H2V10.5501H8.8V11.5531C8.8 12.0581 9.345 12.3611 9.77 12.1101Z" fill="black"/>
</svg>
