<svg width="16" height="16" viewBox="0 0 16 16" xmlns="http://www.w3.org/2000/svg" fill='currentColor'><path d="M9.502 5.51296C9.47991 5.50324 9.45573 5.49922 9.43168 5.50128C9.40764 5.50334 9.38449 5.51142 9.36438 5.52476C9.34427 5.5381 9.32783 5.55628 9.31658 5.57764C9.30533 5.59899 9.29963 5.62283 9.3 5.64696V6.64996C9.3 6.78257 9.24732 6.90974 9.15355 7.00351C9.05978 7.09728 8.93261 7.14996 8.8 7.14996H2.5V10.05H8.8C8.93261 10.05 9.05978 10.1026 9.15355 10.1964C9.24732 10.2902 9.3 10.4174 9.3 10.55V11.553C9.3 11.661 9.41 11.729 9.502 11.687L13.486 8.75396C13.4995 8.74394 13.5135 8.73459 13.528 8.72596C13.5497 8.71289 13.5677 8.69442 13.5802 8.67234C13.5927 8.65026 13.5993 8.62533 13.5993 8.59996C13.5993 8.57459 13.5927 8.54965 13.5802 8.52758C13.5677 8.5055 13.5497 8.48703 13.528 8.47396C13.5135 8.46532 13.4995 8.45598 13.486 8.44596L9.502 5.51296ZM8.3 5.64696C8.29991 5.44103 8.3554 5.23889 8.46063 5.06187C8.56586 4.88486 8.71692 4.73953 8.89787 4.64122C9.07882 4.54291 9.28295 4.49527 9.48872 4.50332C9.6945 4.51137 9.89428 4.57481 10.067 4.68696L14.061 7.62696C14.2261 7.73003 14.3623 7.87342 14.4567 8.04364C14.5511 8.21386 14.6006 8.40531 14.6006 8.59996C14.6006 8.79461 14.5511 8.98605 14.4567 9.15627C14.3623 9.32649 14.2261 9.46989 14.061 9.57296L10.067 12.513C9.89428 12.6251 9.6945 12.6886 9.48872 12.6966C9.28295 12.7047 9.07882 12.657 8.89787 12.5587C8.71692 12.4604 8.56586 12.3151 8.46063 12.138C8.3554 11.961 8.29991 11.7589 8.3 11.553V11.05H2C1.86739 11.05 1.74021 10.9973 1.64645 10.9035C1.55268 10.8097 1.5 10.6826 1.5 10.55V6.64996C1.5 6.51735 1.55268 6.39017 1.64645 6.29641C1.74021 6.20264 1.86739 6.14996 2 6.14996H8.3V5.64696Z"/></svg>