<svg width="16" height="16" viewBox="0 0 16 16" fill="none" xmlns="http://www.w3.org/2000/svg">
<g clip-path="url(#clip0_104_2164)">
<path d="M5.5 0C5.63261 0 5.75979 0.0526784 5.85355 0.146447C5.94732 0.240215 6 0.367392 6 0.5V4.5C6 4.89782 5.84196 5.27936 5.56066 5.56066C5.27936 5.84196 4.89782 6 4.5 6H0.5C0.367392 6 0.240215 5.94732 0.146447 5.85355C0.0526784 5.75979 0 5.63261 0 5.5C0 5.36739 0.0526784 5.24021 0.146447 5.14645C0.240215 5.05268 0.367392 5 0.5 5H4.5C4.63261 5 4.75979 4.94732 4.85355 4.85355C4.94732 4.75979 5 4.63261 5 4.5V0.5C5 0.367392 5.05268 0.240215 5.14645 0.146447C5.24021 0.0526784 5.36739 0 5.5 0V0ZM10.5 0C10.6326 0 10.7598 0.0526784 10.8536 0.146447C10.9473 0.240215 11 0.367392 11 0.5V4.5C11 4.63261 11.0527 4.75979 11.1464 4.85355C11.2402 4.94732 11.3674 5 11.5 5H15.5C15.6326 5 15.7598 5.05268 15.8536 5.14645C15.9473 5.24021 16 5.36739 16 5.5C16 5.63261 15.9473 5.75979 15.8536 5.85355C15.7598 5.94732 15.6326 6 15.5 6H11.5C11.1022 6 10.7206 5.84196 10.4393 5.56066C10.158 5.27936 10 4.89782 10 4.5V0.5C10 0.367392 10.0527 0.240215 10.1464 0.146447C10.2402 0.0526784 10.3674 0 10.5 0V0ZM0 10.5C0 10.3674 0.0526784 10.2402 0.146447 10.1464C0.240215 10.0527 0.367392 10 0.5 10H4.5C4.89782 10 5.27936 10.158 5.56066 10.4393C5.84196 10.7206 6 11.1022 6 11.5V15.5C6 15.6326 5.94732 15.7598 5.85355 15.8536C5.75979 15.9473 5.63261 16 5.5 16C5.36739 16 5.24021 15.9473 5.14645 15.8536C5.05268 15.7598 5 15.6326 5 15.5V11.5C5 11.3674 4.94732 11.2402 4.85355 11.1464C4.75979 11.0527 4.63261 11 4.5 11H0.5C0.367392 11 0.240215 10.9473 0.146447 10.8536C0.0526784 10.7598 0 10.6326 0 10.5ZM10 11.5C10 11.1022 10.158 10.7206 10.4393 10.4393C10.7206 10.158 11.1022 10 11.5 10H15.5C15.6326 10 15.7598 10.0527 15.8536 10.1464C15.9473 10.2402 16 10.3674 16 10.5C16 10.6326 15.9473 10.7598 15.8536 10.8536C15.7598 10.9473 15.6326 11 15.5 11H11.5C11.3674 11 11.2402 11.0527 11.1464 11.1464C11.0527 11.2402 11 11.3674 11 11.5V15.5C11 15.6326 10.9473 15.7598 10.8536 15.8536C10.7598 15.9473 10.6326 16 10.5 16C10.3674 16 10.2402 15.9473 10.1464 15.8536C10.0527 15.7598 10 15.6326 10 15.5V11.5Z" fill="black"/>
</g>
<defs>
<clipPath id="clip0_104_2164">
<rect width="16" height="16" fill="white"/>
</clipPath>
</defs>
</svg>
