<svg width="16" height="16" viewBox="0 0 16 16" fill="none" xmlns="http://www.w3.org/2000/svg">
<g clip-path="url(#clip0_104_2175)">
<path d="M8.932 0.727012C8.689 -0.242988 7.312 -0.242988 7.068 0.727012L6.997 1.01301C6.95545 1.17922 6.87019 1.33128 6.75005 1.45342C6.62992 1.57556 6.47928 1.66332 6.31379 1.7076C6.14829 1.75189 5.97395 1.75107 5.80888 1.70525C5.6438 1.65943 5.49399 1.57026 5.375 1.44701L5.17 1.23601C4.475 0.517012 3.282 1.20601 3.557 2.16701L3.637 2.45101C3.68401 2.61556 3.68617 2.78968 3.64328 2.95534C3.60039 3.12101 3.51399 3.2722 3.39304 3.39326C3.27208 3.51431 3.12096 3.60084 2.95533 3.64387C2.7897 3.6869 2.61558 3.68488 2.451 3.63801L2.167 3.55701C1.207 3.28201 0.516997 4.47501 1.236 5.17001L1.447 5.37501C1.57025 5.49401 1.65941 5.64381 1.70524 5.80889C1.75106 5.97397 1.75187 6.1483 1.70759 6.3138C1.66331 6.4793 1.57554 6.62993 1.4534 6.75007C1.33127 6.87021 1.1792 6.95547 1.013 6.99701L0.726996 7.06801C-0.243004 7.31101 -0.243004 8.68801 0.726996 8.93201L1.013 9.00301C1.1792 9.04455 1.33127 9.12982 1.4534 9.24995C1.57554 9.37009 1.66331 9.52072 1.70759 9.68622C1.75187 9.85172 1.75106 10.0261 1.70524 10.1911C1.65941 10.3562 1.57025 10.506 1.447 10.625L1.236 10.83C0.516997 11.525 1.206 12.718 2.167 12.443L2.451 12.363C2.61564 12.3159 2.7899 12.3137 2.95568 12.3566C3.12146 12.3996 3.27274 12.4861 3.39384 12.6072C3.51493 12.7283 3.60143 12.8795 3.64436 13.0453C3.68729 13.2111 3.68509 13.3854 3.638 13.55L3.557 13.833C3.282 14.793 4.475 15.483 5.17 14.764L5.375 14.553C5.49399 14.4298 5.6438 14.3406 5.80888 14.2948C5.97395 14.2489 6.14829 14.2481 6.31379 14.2924C6.47928 14.3367 6.62992 14.4245 6.75005 14.5466C6.87019 14.6687 6.95545 14.8208 6.997 14.987L7.068 15.273C7.311 16.243 8.688 16.243 8.932 15.273L9.003 14.987C9.04454 14.8208 9.1298 14.6687 9.24994 14.5466C9.37008 14.4245 9.52071 14.3367 9.68621 14.2924C9.8517 14.2481 10.026 14.2489 10.1911 14.2948C10.3562 14.3406 10.506 14.4298 10.625 14.553L10.83 14.764C11.525 15.483 12.718 14.794 12.443 13.833L12.363 13.549C12.3159 13.3844 12.3137 13.2101 12.3566 13.0443C12.3996 12.8785 12.4861 12.7273 12.6072 12.6062C12.7282 12.4851 12.8795 12.3986 13.0453 12.3556C13.2111 12.3127 13.3853 12.3149 13.55 12.362L13.833 12.443C14.793 12.718 15.483 11.525 14.764 10.83L14.553 10.625C14.4297 10.506 14.3406 10.3562 14.2948 10.1911C14.2489 10.0261 14.2481 9.85172 14.2924 9.68622C14.3367 9.52072 14.4245 9.37009 14.5466 9.24995C14.6687 9.12982 14.8208 9.04455 14.987 9.00301L15.273 8.93201C16.243 8.68901 16.243 7.31201 15.273 7.06801L14.987 6.99701C14.8208 6.95547 14.6687 6.87021 14.5466 6.75007C14.4245 6.62993 14.3367 6.4793 14.2924 6.3138C14.2481 6.1483 14.2489 5.97397 14.2948 5.80889C14.3406 5.64381 14.4297 5.49401 14.553 5.37501L14.764 5.17001C15.483 4.47501 14.794 3.28201 13.833 3.55701L13.549 3.63701C13.3844 3.68402 13.2103 3.68619 13.0447 3.6433C12.879 3.6004 12.7278 3.51401 12.6068 3.39305C12.4857 3.27209 12.3992 3.12098 12.3561 2.95535C12.3131 2.78972 12.3151 2.6156 12.362 2.45101L12.443 2.16701C12.718 1.20701 11.525 0.517012 10.83 1.23601L10.625 1.44701C10.506 1.57026 10.3562 1.65943 10.1911 1.70525C10.026 1.75107 9.8517 1.75189 9.68621 1.7076C9.52071 1.66332 9.37008 1.57556 9.24994 1.45342C9.1298 1.33128 9.04454 1.17922 9.003 1.01301L8.932 0.727012ZM8 12.997C7.33777 13.0064 6.68028 12.884 6.06574 12.6371C5.45121 12.3901 4.89188 12.0235 4.42027 11.5585C3.94865 11.0935 3.57416 10.5395 3.31854 9.92848C3.06293 9.3175 2.9313 8.66181 2.9313 7.99951C2.9313 7.33722 3.06293 6.68152 3.31854 6.07054C3.57416 5.45956 3.94865 4.90548 4.42027 4.44049C4.89188 3.9755 5.45121 3.60888 6.06574 3.36193C6.68028 3.11499 7.33777 2.99264 8 3.00201C9.32555 3.00201 10.5968 3.52859 11.5341 4.46589C12.4714 5.4032 12.998 6.67446 12.998 8.00001C12.998 9.32556 12.4714 10.5968 11.5341 11.5341C10.5968 12.4714 9.32555 12.998 8 12.998V12.997Z" fill="black"/>
</g>
<defs>
<clipPath id="clip0_104_2175">
<rect width="16" height="16" fill="white"/>
</clipPath>
</defs>
</svg>
