<svg width="16" height="16" viewBox="0 0 16 16" fill="none" xmlns="http://www.w3.org/2000/svg">
<g clip-path="url(#clip0_104_2170)">
<path d="M8.00003 4.75403C7.57376 4.75403 7.15166 4.83799 6.75784 5.00112C6.36402 5.16424 6.00618 5.40334 5.70476 5.70476C5.40334 6.00618 5.16424 6.36401 5.00112 6.75784C4.83799 7.15166 4.75403 7.57376 4.75403 8.00003C4.75403 8.4263 4.83799 8.8484 5.00112 9.24222C5.16424 9.63604 5.40334 9.99388 5.70476 10.2953C6.00618 10.5967 6.36402 10.8358 6.75784 10.9989C7.15166 11.1621 7.57376 11.246 8.00003 11.246C8.86092 11.246 9.68655 10.904 10.2953 10.2953C10.904 9.68655 11.246 8.86092 11.246 8.00003C11.246 7.13914 10.904 6.3135 10.2953 5.70476C9.68655 5.09602 8.86092 4.75403 8.00003 4.75403ZM5.75403 8.00003C5.75403 7.40435 5.99066 6.83307 6.41187 6.41187C6.83307 5.99066 7.40435 5.75403 8.00003 5.75403C8.5957 5.75403 9.16698 5.99066 9.58819 6.41187C10.0094 6.83307 10.246 7.40435 10.246 8.00003C10.246 8.5957 10.0094 9.16698 9.58819 9.58819C9.16698 10.0094 8.5957 10.246 8.00003 10.246C7.40435 10.246 6.83307 10.0094 6.41187 9.58819C5.99066 9.16698 5.75403 8.5957 5.75403 8.00003Z" fill="black"/>
<path d="M9.79599 1.34299C9.26899 -0.447012 6.73099 -0.447012 6.20399 1.34299L6.10999 1.66199C6.07318 1.78694 6.00889 1.90207 5.9218 1.99895C5.83472 2.09582 5.72707 2.17198 5.60673 2.22184C5.48639 2.2717 5.35642 2.294 5.22634 2.28711C5.09627 2.28021 4.96938 2.24429 4.85499 2.18199L4.56299 2.02199C2.92299 1.12999 1.12999 2.92399 2.02299 4.56299L2.18199 4.85499C2.24429 4.96938 2.28021 5.09627 2.28711 5.22634C2.294 5.35642 2.2717 5.48639 2.22184 5.60673C2.17198 5.72707 2.09582 5.83472 1.99895 5.9218C1.90207 6.00889 1.78694 6.07318 1.66199 6.10999L1.34299 6.20399C-0.447012 6.73099 -0.447012 9.26899 1.34299 9.79599L1.66199 9.88999C1.78694 9.92679 1.90207 9.99109 1.99895 10.0782C2.09582 10.1653 2.17198 10.2729 2.22184 10.3932C2.2717 10.5136 2.294 10.6436 2.28711 10.7736C2.28021 10.9037 2.24429 11.0306 2.18199 11.145L2.02199 11.437C1.12999 13.077 2.92299 14.871 4.56299 13.977L4.85499 13.818C4.96938 13.7557 5.09627 13.7198 5.22634 13.7129C5.35642 13.706 5.48639 13.7283 5.60673 13.7781C5.72707 13.828 5.83472 13.9042 5.9218 14.001C6.00889 14.0979 6.07318 14.213 6.10999 14.338L6.20399 14.657C6.73099 16.447 9.26899 16.447 9.79599 14.657L9.88999 14.338C9.92679 14.213 9.99109 14.0979 10.0782 14.001C10.1653 13.9042 10.2729 13.828 10.3932 13.7781C10.5136 13.7283 10.6436 13.706 10.7736 13.7129C10.9037 13.7198 11.0306 13.7557 11.145 13.818L11.437 13.978C13.077 14.871 14.871 13.076 13.977 11.437L13.818 11.145C13.7557 11.0306 13.7198 10.9037 13.7129 10.7736C13.706 10.6436 13.7283 10.5136 13.7781 10.3932C13.828 10.2729 13.9042 10.1653 14.001 10.0782C14.0979 9.99109 14.213 9.92679 14.338 9.88999L14.657 9.79599C16.447 9.26899 16.447 6.73099 14.657 6.20399L14.338 6.10999C14.213 6.07318 14.0979 6.00889 14.001 5.9218C13.9042 5.83472 13.828 5.72707 13.7781 5.60673C13.7283 5.48639 13.706 5.35642 13.7129 5.22634C13.7198 5.09627 13.7557 4.96938 13.818 4.85499L13.978 4.56299C14.871 2.92299 13.076 1.12999 11.437 2.02299L11.145 2.18199C11.0306 2.24429 10.9037 2.28021 10.7736 2.28711C10.6436 2.294 10.5136 2.2717 10.3932 2.22184C10.2729 2.17198 10.1653 2.09582 10.0782 1.99895C9.99109 1.90207 9.92679 1.78694 9.88999 1.66199L9.79599 1.34299ZM7.16299 1.62599C7.40899 0.790988 8.59099 0.790988 8.83699 1.62599L8.93099 1.94499C9.01001 2.21307 9.14802 2.46008 9.33491 2.66789C9.5218 2.8757 9.75283 3.03905 10.0111 3.14597C10.2693 3.25288 10.5482 3.30066 10.8273 3.28578C11.1064 3.2709 11.3786 3.19375 11.624 3.05999L11.915 2.89999C12.679 2.48499 13.515 3.31999 13.099 4.08499L12.94 4.37699C12.8064 4.62242 12.7295 4.89462 12.7148 5.17364C12.7 5.45267 12.7479 5.73146 12.8549 5.98957C12.9619 6.24769 13.1253 6.47859 13.3332 6.66536C13.541 6.85214 13.788 6.99005 14.056 7.06899L14.374 7.16299C15.209 7.40899 15.209 8.59099 14.374 8.83699L14.055 8.93099C13.7869 9.01001 13.5399 9.14802 13.3321 9.33491C13.1243 9.5218 12.9609 9.75283 12.854 10.0111C12.7471 10.2693 12.6993 10.5482 12.7142 10.8273C12.7291 11.1064 12.8062 11.3786 12.94 11.624L13.1 11.915C13.515 12.679 12.68 13.515 11.915 13.099L11.624 12.94C11.3785 12.8062 11.1062 12.7291 10.8271 12.7143C10.5479 12.6995 10.269 12.7474 10.0108 12.8544C9.75253 12.9614 9.52151 13.1249 9.33467 13.3328C9.14783 13.5407 9.00989 13.7878 8.93099 14.056L8.83699 14.374C8.59099 15.209 7.40899 15.209 7.16299 14.374L7.06899 14.055C6.98993 13.787 6.85194 13.5402 6.66512 13.3325C6.4783 13.1248 6.24738 12.9615 5.98928 12.8546C5.73118 12.7477 5.45243 12.6999 5.17346 12.7146C4.89448 12.7294 4.62235 12.8064 4.37699 12.94L4.08499 13.1C3.32099 13.515 2.48499 12.68 2.90099 11.915L3.05999 11.624C3.19394 11.3785 3.27124 11.1062 3.28621 10.827C3.30119 10.5478 3.25346 10.2688 3.14653 10.0104C3.0396 9.75207 2.87618 9.52093 2.66827 9.33397C2.46035 9.14701 2.21321 9.00897 1.94499 8.92999L1.62599 8.83599C0.790988 8.58999 0.790988 7.40799 1.62599 7.16199L1.94499 7.06799C2.21279 6.9889 2.45953 6.85093 2.66713 6.66418C2.87473 6.47742 3.03795 6.24662 3.14484 5.98864C3.25173 5.73067 3.29959 5.45206 3.2849 5.17321C3.27022 4.89435 3.19338 4.62231 3.05999 4.37699L2.89999 4.08499C2.48499 3.32099 3.31999 2.48499 4.08499 2.90099L4.37699 3.05999C4.62235 3.19356 4.89448 3.27056 5.17346 3.28534C5.45243 3.30012 5.73118 3.25231 5.98928 3.1454C6.24738 3.0385 6.4783 2.87522 6.66512 2.66751C6.85194 2.4598 6.98993 2.21293 7.06899 1.94499L7.16299 1.62599Z" fill="black"/>
</g>
<defs>
<clipPath id="clip0_104_2170">
<rect width="16" height="16" fill="white"/>
</clipPath>
</defs>
</svg>
