<svg width="16" height="16" viewBox="0 0 16 16" fill="none" xmlns="http://www.w3.org/2000/svg">
<g clip-path="url(#clip0_104_2177)">
<path d="M7.068 0.727012C7.311 -0.242988 8.688 -0.242988 8.932 0.727012L9.003 1.01301C9.04454 1.17922 9.1298 1.33128 9.24994 1.45342C9.37008 1.57556 9.52071 1.66332 9.68621 1.7076C9.8517 1.75189 10.026 1.75107 10.1911 1.70525C10.3562 1.65943 10.506 1.57026 10.625 1.44701L10.83 1.23601C11.525 0.517012 12.718 1.20601 12.443 2.16701L12.363 2.45101C12.3159 2.61566 12.3137 2.78991 12.3566 2.95569C12.3996 3.12148 12.4861 3.27276 12.6072 3.39385C12.7282 3.51495 12.8795 3.60144 13.0453 3.64438C13.2111 3.68731 13.3853 3.68511 13.55 3.63801L13.833 3.55701C14.793 3.28201 15.483 4.47501 14.764 5.17001L14.553 5.37501C14.4297 5.49401 14.3406 5.64381 14.2948 5.80889C14.2489 5.97397 14.2481 6.1483 14.2924 6.3138C14.3367 6.4793 14.4245 6.62993 14.5466 6.75007C14.6687 6.87021 14.8208 6.95547 14.987 6.99701L15.273 7.06801C16.243 7.31101 16.243 8.68801 15.273 8.93201L14.987 9.00301C14.8208 9.04455 14.6687 9.12982 14.5466 9.24995C14.4245 9.37009 14.3367 9.52072 14.2924 9.68622C14.2481 9.85172 14.2489 10.0261 14.2948 10.1911C14.3406 10.3562 14.4297 10.506 14.553 10.625L14.764 10.83C15.483 11.525 14.794 12.718 13.833 12.443L13.549 12.363C13.3843 12.3159 13.2101 12.3137 13.0443 12.3566C12.8785 12.3996 12.7272 12.4861 12.6062 12.6072C12.4851 12.7283 12.3986 12.8795 12.3556 13.0453C12.3127 13.2111 12.3149 13.3854 12.362 13.55L12.443 13.833C12.718 14.793 11.525 15.483 10.83 14.764L10.625 14.553C10.506 14.4298 10.3562 14.3406 10.1911 14.2948C10.026 14.2489 9.8517 14.2481 9.68621 14.2924C9.52071 14.3367 9.37008 14.4245 9.24994 14.5466C9.1298 14.6687 9.04454 14.8208 9.003 14.987L8.932 15.273C8.689 16.243 7.312 16.243 7.068 15.273L6.997 14.987C6.95545 14.8208 6.87019 14.6687 6.75005 14.5466C6.62992 14.4245 6.47928 14.3367 6.31379 14.2924C6.14829 14.2481 5.97395 14.2489 5.80888 14.2948C5.6438 14.3406 5.49399 14.4298 5.375 14.553L5.17 14.764C4.475 15.483 3.282 14.794 3.557 13.833L3.637 13.549C3.68401 13.3845 3.68617 13.2103 3.64328 13.0447C3.60039 12.879 3.51399 12.7278 3.39304 12.6068C3.27208 12.4857 3.12096 12.3992 2.95533 12.3562C2.7897 12.3131 2.61558 12.3151 2.451 12.362L2.167 12.443C1.207 12.718 0.516997 11.525 1.236 10.83L1.447 10.625C1.57025 10.506 1.65941 10.3562 1.70524 10.1911C1.75106 10.0261 1.75187 9.85172 1.70759 9.68622C1.66331 9.52072 1.57554 9.37009 1.4534 9.24995C1.33127 9.12982 1.1792 9.04455 1.013 9.00301L0.726996 8.93201C-0.243004 8.68901 -0.243004 7.31201 0.726996 7.06801L1.013 6.99701C1.1792 6.95547 1.33127 6.87021 1.4534 6.75007C1.57554 6.62993 1.66331 6.4793 1.70759 6.3138C1.75187 6.1483 1.75106 5.97397 1.70524 5.80889C1.65941 5.64381 1.57025 5.49401 1.447 5.37501L1.236 5.17001C0.516997 4.47501 1.206 3.28201 2.167 3.55701L2.451 3.63701C2.61554 3.68402 2.78966 3.68619 2.95533 3.6433C3.12099 3.6004 3.27218 3.51401 3.39324 3.39305C3.5143 3.27209 3.60082 3.12098 3.64386 2.95535C3.68689 2.78972 3.68487 2.6156 3.638 2.45101L3.557 2.16701C3.282 1.20701 4.475 0.517012 5.17 1.23601L5.375 1.44701C5.49399 1.57026 5.6438 1.65943 5.80888 1.70525C5.97395 1.75107 6.14829 1.75189 6.31379 1.7076C6.47928 1.66332 6.62992 1.57556 6.75005 1.45342C6.87019 1.33128 6.95545 1.17922 6.997 1.01301L7.068 0.727012ZM12.973 8.50001H8.25L5.416 12.279C6.13787 12.715 6.95834 12.9613 7.801 12.9948C8.64366 13.0284 9.48112 12.8482 10.2354 12.471C10.9897 12.0939 11.6362 11.5319 12.1149 10.8376C12.5936 10.1433 12.8888 9.33913 12.973 8.50001ZM12.973 7.50001C12.8888 6.6609 12.5936 5.85674 12.1149 5.16241C11.6362 4.46809 10.9897 3.90617 10.2354 3.52898C9.48112 3.15179 8.64366 2.9716 7.801 3.00517C6.95834 3.03875 6.13787 3.285 5.416 3.72101L8.25 7.50101H12.973V7.50001ZM5.048 3.96701C5.018 3.98801 4.99 4.01001 4.961 4.03201L5.048 3.96701ZM4.617 4.32201C4.10736 4.78948 3.70059 5.3579 3.42255 5.9911C3.14451 6.62431 3.00129 7.30845 3.002 8.00001C3.002 9.45501 3.624 10.765 4.617 11.678L7.375 8.00001L4.617 4.32201ZM4.961 11.968L5.048 12.033L4.961 11.968Z" fill="black"/>
</g>
<defs>
<clipPath id="clip0_104_2177">
<rect width="16" height="16" fill="white"/>
</clipPath>
</defs>
</svg>
