<svg width="16" height="16" viewBox="0 0 16 16" xmlns="http://www.w3.org/2000/svg" fill='currentColor'><g clip-path="url(#clip0_104_2173)"><path d="M9.405 1.05C8.992 -0.35 7.008 -0.35 6.595 1.05L6.495 1.39C6.43329 1.59959 6.32545 1.79272 6.17939 1.95521C6.03333 2.11771 5.85275 2.24544 5.6509 2.32906C5.44904 2.41268 5.23103 2.45006 5.01285 2.43846C4.79466 2.42685 4.58185 2.36656 4.39 2.262L4.08 2.092C2.797 1.394 1.394 2.797 2.093 4.079L2.262 4.39C2.708 5.21 2.285 6.231 1.39 6.495L1.05 6.595C-0.35 7.008 -0.35 8.992 1.05 9.405L1.39 9.505C1.59959 9.56671 1.79272 9.67455 1.95521 9.82061C2.11771 9.96667 2.24544 10.1472 2.32906 10.3491C2.41268 10.551 2.45006 10.769 2.43846 10.9872C2.42685 11.2053 2.36656 11.4182 2.262 11.61L2.092 11.92C1.394 13.203 2.797 14.606 4.079 13.907L4.39 13.738C4.58185 13.6334 4.79466 13.5731 5.01285 13.5615C5.23103 13.5499 5.44904 13.5873 5.6509 13.6709C5.85275 13.7546 6.03333 13.8823 6.17939 14.0448C6.32545 14.2073 6.43329 14.4004 6.495 14.61L6.595 14.95C7.008 16.35 8.992 16.35 9.405 14.95L9.505 14.61C9.56671 14.4004 9.67455 14.2073 9.82061 14.0448C9.96667 13.8823 10.1472 13.7546 10.3491 13.6709C10.551 13.5873 10.769 13.5499 10.9872 13.5615C11.2053 13.5731 11.4182 13.6334 11.61 13.738L11.92 13.908C13.203 14.606 14.606 13.203 13.907 11.921L13.738 11.61C13.6334 11.4182 13.5731 11.2053 13.5615 10.9872C13.5499 10.769 13.5873 10.551 13.6709 10.3491C13.7546 10.1472 13.8823 9.96667 14.0448 9.82061C14.2073 9.67455 14.4004 9.56671 14.61 9.505L14.95 9.405C16.35 8.992 16.35 7.008 14.95 6.595L14.61 6.495C14.4004 6.43329 14.2073 6.32545 14.0448 6.17939C13.8823 6.03333 13.7546 5.85275 13.6709 5.6509C13.5873 5.44904 13.5499 5.23103 13.5615 5.01285C13.5731 4.79466 13.6334 4.58185 13.738 4.39L13.908 4.08C14.606 2.797 13.203 1.394 11.921 2.093L11.61 2.262C11.4182 2.36656 11.2053 2.42685 10.9872 2.43846C10.769 2.45006 10.551 2.41268 10.3491 2.32906C10.1472 2.24544 9.96667 2.11771 9.82061 1.95521C9.67455 1.79272 9.56671 1.59959 9.505 1.39L9.405 1.05ZM8 10.93C7.22292 10.93 6.47766 10.6213 5.92818 10.0718C5.3787 9.52234 5.07 8.77708 5.07 8C5.07 7.22292 5.3787 6.47766 5.92818 5.92818C6.47766 5.3787 7.22292 5.07 8 5.07C8.77682 5.07 9.52182 5.37859 10.0711 5.92788C10.6204 6.47718 10.929 7.22218 10.929 7.999C10.929 8.77582 10.6204 9.52082 10.0711 10.0701C9.52182 10.6194 8.77682 10.928 8 10.928V10.93Z"/></g><defs><clipPath id="clip0_104_2173"><rect width="16" height="16"/></clipPath></defs></svg>