<svg width="16" height="16" viewBox="0 0 16 16" fill="none" xmlns="http://www.w3.org/2000/svg">
<path fill-rule="evenodd" clip-rule="evenodd" d="M8 0.99994C6.93913 0.99994 5.92172 1.42137 5.17157 2.17151C4.42143 2.92166 4 3.93907 4 4.99994C4 6.06081 4.42143 7.07822 5.17157 7.82837C5.92172 8.57851 6.93913 8.99994 8 8.99994C9.06087 8.99994 10.0783 8.57851 10.8284 7.82837C11.5786 7.07822 12 6.06081 12 4.99994C12 3.93907 11.5786 2.92166 10.8284 2.17151C10.0783 1.42137 9.06087 0.99994 8 0.99994ZM3 4.99994C3.00001 4.03235 3.28077 3.08556 3.80823 2.27438C4.33568 1.4632 5.08717 0.822483 5.97156 0.429945C6.85594 0.0374067 7.83523 -0.0900927 8.79064 0.0629099C9.74605 0.215912 10.6365 0.642844 11.3541 1.29192C12.0717 1.94101 12.5855 2.78435 12.8333 3.71968C13.0811 4.655 13.0521 5.64213 12.75 6.56133C12.4478 7.48053 11.8855 8.29232 11.1311 8.89824C10.3767 9.50416 9.46274 9.87818 8.5 9.97494V11.9999H10.5C10.6326 11.9999 10.7598 12.0526 10.8536 12.1464C10.9473 12.2402 11 12.3673 11 12.4999C11 12.6325 10.9473 12.7597 10.8536 12.8535C10.7598 12.9473 10.6326 12.9999 10.5 12.9999H8.5V15.4999C8.5 15.6325 8.44732 15.7597 8.35355 15.8535C8.25979 15.9473 8.13261 15.9999 8 15.9999C7.86739 15.9999 7.74021 15.9473 7.64645 15.8535C7.55268 15.7597 7.5 15.6325 7.5 15.4999V12.9999H5.5C5.36739 12.9999 5.24021 12.9473 5.14645 12.8535C5.05268 12.7597 5 12.6325 5 12.4999C5 12.3673 5.05268 12.2402 5.14645 12.1464C5.24021 12.0526 5.36739 11.9999 5.5 11.9999H7.5V9.97494C6.26668 9.85099 5.12337 9.27335 4.29188 8.35408C3.46038 7.43482 2.99998 6.23947 3 4.99994Z" fill="black"/>
</svg>
