<svg width="16" height="16" viewBox="0 0 16 16" xmlns="http://www.w3.org/2000/svg" fill='currentColor'><path fill-rule="evenodd" clip-rule="evenodd" d="M9.5 2C9.36739 2 9.24021 1.94732 9.14644 1.85355C9.05268 1.75979 9 1.63261 9 1.5C9 1.36739 9.05268 1.24021 9.14644 1.14645C9.24021 1.05268 9.36739 1 9.5 1H14.5C14.6326 1 14.7598 1.05268 14.8536 1.14645C14.9473 1.24021 15 1.36739 15 1.5V6.5C15 6.63261 14.9473 6.75979 14.8536 6.85355C14.7598 6.94732 14.6326 7 14.5 7C14.3674 7 14.2402 6.94732 14.1464 6.85355C14.0527 6.75979 14 6.63261 14 6.5V2.707L9.871 6.836C10.6828 7.82919 11.0818 9.0964 10.9856 10.3755C10.8893 11.6547 10.3051 12.8479 9.35381 13.7084C8.4025 14.5689 7.15686 15.0309 5.8745 14.9987C4.59215 14.9666 3.37119 14.4429 2.46415 13.5359C1.5571 12.6288 1.03336 11.4078 1.00125 10.1255C0.969134 8.84314 1.4311 7.5975 2.29161 6.64619C3.15211 5.69488 4.34533 5.11068 5.62446 5.01442C6.9036 4.91815 8.17081 5.31719 9.164 6.129L13.293 2H9.5ZM6 6C4.93913 6 3.92172 6.42143 3.17157 7.17157C2.42143 7.92172 2 8.93913 2 10C2 11.0609 2.42143 12.0783 3.17157 12.8284C3.92172 13.5786 4.93913 14 6 14C7.06086 14 8.07828 13.5786 8.82843 12.8284C9.57857 12.0783 10 11.0609 10 10C10 8.93913 9.57857 7.92172 8.82843 7.17157C8.07828 6.42143 7.06086 6 6 6Z"/></svg>