<svg width="16" height="16" viewBox="0 0 16 16" fill="none" xmlns="http://www.w3.org/2000/svg">
<g clip-path="url(#clip0_104_2187)">
<path fill-rule="evenodd" clip-rule="evenodd" d="M0 0.5C0 0.367392 0.0526784 0.240215 0.146447 0.146447C0.240215 0.0526784 0.367392 0 0.5 0L3.5 0C3.63261 0 3.75979 0.0526784 3.85355 0.146447C3.94732 0.240215 4 0.367392 4 0.5C4 0.632608 3.94732 0.759785 3.85355 0.853553C3.75979 0.947322 3.63261 1 3.5 1H1.707L3.5 2.793L4.146 2.146C4.19249 2.09951 4.24768 2.06264 4.30842 2.03748C4.36916 2.01232 4.43426 1.99937 4.5 1.99937C4.56574 1.99937 4.63084 2.01232 4.69158 2.03748C4.75232 2.06264 4.80751 2.09951 4.854 2.146C4.90049 2.19249 4.93736 2.24768 4.96252 2.30842C4.98768 2.36916 5.00063 2.43426 5.00063 2.5C5.00063 2.56574 4.98768 2.63084 4.96252 2.69158C4.93736 2.75232 4.90049 2.80751 4.854 2.854L4.207 3.5L5.029 4.322C5.40364 3.9054 5.86182 3.57237 6.37371 3.3446C6.8856 3.11682 7.43972 2.99941 8 3C9.18 3 10.239 3.51 10.971 4.322L14.293 1H11.5C11.3674 1 11.2402 0.947322 11.1464 0.853553C11.0527 0.759785 11 0.632608 11 0.5C11 0.367392 11.0527 0.240215 11.1464 0.146447C11.2402 0.0526784 11.3674 0 11.5 0L15.5 0C15.6326 0 15.7598 0.0526784 15.8536 0.146447C15.9473 0.240215 16 0.367392 16 0.5V4.5C16 4.63261 15.9473 4.75979 15.8536 4.85355C15.7598 4.94732 15.6326 5 15.5 5C15.3674 5 15.2402 4.94732 15.1464 4.85355C15.0527 4.75979 15 4.63261 15 4.5V1.707L11.55 5.157C11.8473 5.7291 12.0018 6.36457 12.0005 7.00929C11.9993 7.65401 11.8422 8.28886 11.5426 8.85977C11.2431 9.43067 10.81 9.92071 10.2802 10.2881C9.75041 10.6556 9.13967 10.8895 8.5 10.97V13H10C10.1326 13 10.2598 13.0527 10.3536 13.1464C10.4473 13.2402 10.5 13.3674 10.5 13.5C10.5 13.6326 10.4473 13.7598 10.3536 13.8536C10.2598 13.9473 10.1326 14 10 14H8.5V15.5C8.5 15.6326 8.44732 15.7598 8.35355 15.8536C8.25979 15.9473 8.13261 16 8 16C7.86739 16 7.74021 15.9473 7.64645 15.8536C7.55268 15.7598 7.5 15.6326 7.5 15.5V14H6C5.86739 14 5.74021 13.9473 5.64645 13.8536C5.55268 13.7598 5.5 13.6326 5.5 13.5C5.5 13.3674 5.55268 13.2402 5.64645 13.1464C5.74021 13.0527 5.86739 13 6 13H7.5V10.97C6.86019 10.8896 6.24931 10.6556 5.71942 10.2881C5.18953 9.92065 4.75634 9.4305 4.45677 8.85946C4.15721 8.28841 4.00014 7.65341 3.99896 7.00856C3.99778 6.36371 4.15252 5.72814 4.45 5.156L3.5 4.207L2.854 4.854C2.80751 4.90049 2.75232 4.93736 2.69158 4.96252C2.63084 4.98768 2.56574 5.00063 2.5 5.00063C2.43426 5.00063 2.36916 4.98768 2.30842 4.96252C2.24768 4.93736 2.19249 4.90049 2.146 4.854C2.09951 4.80751 2.06264 4.75232 2.03748 4.69158C2.01232 4.63084 1.99937 4.56574 1.99937 4.5C1.99937 4.43426 2.01232 4.36916 2.03748 4.30842C2.06264 4.24768 2.09951 4.19249 2.146 4.146L2.793 3.5L1 1.707V3.5C1 3.63261 0.947322 3.75979 0.853553 3.85355C0.759785 3.94732 0.632608 4 0.5 4C0.367392 4 0.240215 3.94732 0.146447 3.85355C0.0526784 3.75979 0 3.63261 0 3.5V0.5ZM5.49 5.356C5.27411 5.68562 5.12525 6.05453 5.05193 6.44168C4.97861 6.82882 4.98226 7.22662 5.06268 7.61235C5.14309 7.99809 5.2987 8.36421 5.52061 8.68981C5.74252 9.0154 6.02638 9.29411 6.356 9.51C6.68562 9.72589 7.05453 9.87475 7.44168 9.94807C7.82882 10.0214 8.22662 10.0177 8.61235 9.93732C8.99809 9.85691 9.36421 9.7013 9.68981 9.47939C10.0154 9.25748 10.2941 8.97362 10.51 8.644C10.946 7.97831 11.0997 7.16667 10.9373 6.38765C10.7749 5.60862 10.3097 4.92602 9.644 4.49C8.97831 4.05398 8.16667 3.90027 7.38765 4.06268C6.60862 4.22508 5.92602 4.69031 5.49 5.356Z" fill="black"/>
</g>
<defs>
<clipPath id="clip0_104_2187">
<rect width="16" height="16" fill="white"/>
</clipPath>
</defs>
</svg>
