<svg width="16" height="16" viewBox="0 0 16 16" fill="none" xmlns="http://www.w3.org/2000/svg">
<path fill-rule="evenodd" clip-rule="evenodd" d="M11.5 1C11.3674 1 11.2402 0.947322 11.1464 0.853553C11.0527 0.759785 11 0.632608 11 0.5C11 0.367392 11.0527 0.240215 11.1464 0.146447C11.2402 0.0526784 11.3674 0 11.5 0L15.5 0C15.6326 0 15.7598 0.0526784 15.8536 0.146447C15.9473 0.240215 16 0.367392 16 0.5V4.5C16 4.63261 15.9473 4.75979 15.8536 4.85355C15.7598 4.94732 15.6326 5 15.5 5C15.3674 5 15.2402 4.94732 15.1464 4.85355C15.0527 4.75979 15 4.63261 15 4.5V1.707L11.55 5.157C11.8473 5.7291 12.0018 6.36457 12.0006 7.00929C11.9993 7.65401 11.8422 8.28886 11.5426 8.85977C11.2431 9.43067 10.81 9.92071 10.2802 10.2881C9.75041 10.6556 9.13967 10.8895 8.5 10.97V13H10C10.1326 13 10.2598 13.0527 10.3536 13.1464C10.4473 13.2402 10.5 13.3674 10.5 13.5C10.5 13.6326 10.4473 13.7598 10.3536 13.8536C10.2598 13.9473 10.1326 14 10 14H8.5V15.5C8.5 15.6326 8.44732 15.7598 8.35355 15.8536C8.25979 15.9473 8.13261 16 8 16C7.86739 16 7.74022 15.9473 7.64645 15.8536C7.55268 15.7598 7.5 15.6326 7.5 15.5V14H6C5.86739 14 5.74022 13.9473 5.64645 13.8536C5.55268 13.7598 5.5 13.6326 5.5 13.5C5.5 13.3674 5.55268 13.2402 5.64645 13.1464C5.74022 13.0527 5.86739 13 6 13H7.5V10.97C6.85984 10.8892 6.24874 10.6547 5.71883 10.2865C5.18893 9.91835 4.75595 9.42746 4.45685 8.85573C4.15774 8.28401 4.00138 7.6484 4.00112 7.00316C4.00085 6.35792 4.15669 5.72219 4.45532 5.15021C4.75396 4.57824 5.18653 4.08699 5.71613 3.7184C6.24573 3.34981 6.85664 3.1148 7.49673 3.03344C8.13683 2.95208 8.7871 3.02677 9.39208 3.25115C9.99705 3.47553 10.5388 3.84293 10.971 4.322L14.293 1H11.5ZM10.503 5.346C10.0642 4.68216 9.37966 4.21983 8.59998 4.0607C7.8203 3.90158 7.00934 4.0587 6.3455 4.4975C5.68166 4.9363 5.21933 5.62084 5.0602 6.40052C4.90108 7.1802 5.0582 7.99116 5.497 8.655C5.93593 9.31884 6.6206 9.78112 7.40037 9.94015C8.18015 10.0992 8.99116 9.94193 9.655 9.503C10.3188 9.06407 10.7811 8.3794 10.9402 7.59963C11.0992 6.81985 10.9419 6.00884 10.503 5.345V5.346Z" fill="black"/>
</svg>
