<svg width="16" height="16" viewBox="0 0 16 16" xmlns="http://www.w3.org/2000/svg" fill='currentColor'><path fill-rule="evenodd" clip-rule="evenodd" d="M8 0.999996C7.60603 0.999996 7.21593 1.07759 6.85195 1.22836C6.48797 1.37912 6.15726 1.6001 5.87868 1.87868C5.6001 2.15725 5.37913 2.48797 5.22836 2.85195C5.0776 3.21592 5 3.60603 5 4C5 4.39396 5.0776 4.78407 5.22836 5.14805C5.37913 5.51202 5.6001 5.84274 5.87868 6.12132C6.15726 6.39989 6.48797 6.62087 6.85195 6.77163C7.21593 6.9224 7.60603 7 8 7C8.79565 7 9.55871 6.68393 10.1213 6.12132C10.6839 5.55871 11 4.79564 11 4C11 3.20435 10.6839 2.44128 10.1213 1.87868C9.55871 1.31607 8.79565 0.999996 8 0.999996ZM4 4C4.00007 3.23022 4.22226 2.47682 4.63989 1.83019C5.05753 1.18356 5.65288 0.671167 6.3545 0.354502C7.05613 0.0378371 7.83422 -0.0696522 8.59542 0.0449322C9.35662 0.159517 10.0686 0.491307 10.6459 1.00049C11.2232 1.50968 11.6413 2.17463 11.8501 2.91555C12.0589 3.65647 12.0494 4.4419 11.8228 5.17758C11.5963 5.91326 11.1623 6.56795 10.5729 7.06309C9.98349 7.55822 9.26374 7.87277 8.5 7.969V13.5C8.5 13.6326 8.44732 13.7598 8.35355 13.8535C8.25979 13.9473 8.13261 14 8 14C7.86739 14 7.74021 13.9473 7.64645 13.8535C7.55268 13.7598 7.5 13.6326 7.5 13.5V7.97C6.53296 7.84816 5.64369 7.37743 4.99921 6.64623C4.35474 5.91503 3.99942 4.97368 4 3.999V4ZM6.493 12.574C6.51469 12.7047 6.48358 12.8387 6.40651 12.9466C6.32944 13.0544 6.21272 13.1272 6.082 13.149C5.37 13.267 4.802 13.444 4.427 13.642C4.28924 13.7082 4.16405 13.7979 4.057 13.907C4.0328 13.9334 4.0135 13.9638 4 13.997V14L4.002 14.008C4.00593 14.0196 4.01131 14.0307 4.018 14.041C4.05747 14.0989 4.1065 14.1496 4.163 14.191C4.328 14.321 4.598 14.461 4.976 14.586C5.727 14.836 6.796 15 8 15C9.204 15 10.273 14.837 11.024 14.586C11.402 14.46 11.672 14.321 11.837 14.191C11.8938 14.1496 11.9432 14.0989 11.983 14.041C11.9893 14.0307 11.9944 14.0196 11.998 14.008L12 14V13.996C11.9865 13.9628 11.9672 13.9324 11.943 13.906C11.8359 13.7972 11.7107 13.7079 11.573 13.642C11.197 13.444 10.63 13.267 9.918 13.149C9.85168 13.14 9.78783 13.1178 9.73025 13.0837C9.67267 13.0496 9.62253 13.0042 9.58279 12.9504C9.54306 12.8965 9.51454 12.8352 9.49893 12.7701C9.48332 12.7051 9.48093 12.6375 9.49191 12.5715C9.5029 12.5055 9.52702 12.4423 9.56286 12.3858C9.5987 12.3293 9.64552 12.2805 9.70055 12.2424C9.75558 12.2043 9.81769 12.1777 9.88322 12.164C9.94874 12.1504 10.0163 12.15 10.082 12.163C10.852 12.29 11.534 12.491 12.039 12.757C12.5 13 13 13.4 13 14C13 14.426 12.74 14.752 12.456 14.977C12.166 15.205 11.776 15.39 11.34 15.535C10.462 15.828 9.281 16 8 16C6.719 16 5.538 15.828 4.66 15.535C4.224 15.39 3.834 15.205 3.544 14.977C3.26 14.752 3 14.426 3 14C3 13.401 3.5 13 3.961 12.757C4.466 12.491 5.148 12.29 5.918 12.163C6.04874 12.1413 6.18275 12.1724 6.29057 12.2495C6.39838 12.3266 6.4712 12.4433 6.493 12.574Z"/></svg>