<svg width="24" height="24" viewBox="0 0 24 24" xmlns="http://www.w3.org/2000/svg" fill='currentColor'><path d="M4.67 6.90001C5.37 6.19001 6.07 5.55001 6.38 5.68001C6.88 5.88001 6.38 6.71001 6.08 7.20001C5.83 7.62001 3.22 11.09 3.22 13.51C3.22 14.79 3.7 15.85 4.56 16.49C5.31 17.05 6.3 17.22 7.2 16.95C8.27 16.64 9.15 15.55 10.26 14.18C11.47 12.69 13.09 10.74 14.34 10.74C15.97 10.74 15.99 11.75 16.1 12.53C12.32 13.17 10.72 16.2 10.72 17.9C10.72 19.6 12.16 20.99 13.93 20.99C15.56 20.99 18.22 19.66 18.62 14.89H21.08V12.39H18.61C18.46 10.74 17.52 8.19001 14.58 8.19001C12.33 8.19001 10.4 10.1 9.64 11.03C9.06 11.76 7.58 13.51 7.35 13.75C7.1 14.05 6.67 14.59 6.24 14.59C5.79 14.59 5.52 13.76 5.88 12.67C6.23 11.58 7.28 9.81001 7.73 9.15001C8.51 8.01001 9.03 7.23001 9.03 5.87001C9.03 3.70001 7.39 3.01001 6.52 3.01001C5.2 3.01001 4.05 4.01001 3.8 4.26001C3.44 4.62001 3.14 4.92001 2.92 5.19001L4.67 6.90001ZM13.96 18.56C13.65 18.56 13.22 18.3 13.22 17.84C13.22 17.24 13.95 15.64 16.09 15.08C15.79 17.77 14.66 18.56 13.96 18.56Z"/></svg>