<svg width="16" height="16" viewBox="0 0 16 16" xmlns="http://www.w3.org/2000/svg" fill='currentColor'><g clip-path="url(#clip0_104_2198)"><path d="M3 2.5C3 1.83696 3.26339 1.20107 3.73223 0.732233C4.20107 0.263392 4.83696 0 5.5 0C6.16304 0 6.79893 0.263392 7.26777 0.732233C7.73661 1.20107 8 1.83696 8 2.5C8 1.83696 8.26339 1.20107 8.73223 0.732233C9.20107 0.263392 9.83696 0 10.5 0C11.163 0 11.7989 0.263392 12.2678 0.732233C12.7366 1.20107 13 1.83696 13 2.5V2.506C13 2.576 13 2.776 12.962 3H15C15.2652 3 15.5196 3.10536 15.7071 3.29289C15.8946 3.48043 16 3.73478 16 4V6C16 6.26522 15.8946 6.51957 15.7071 6.70711C15.5196 6.89464 15.2652 7 15 7V14.5C15 14.8978 14.842 15.2794 14.5607 15.5607C14.2794 15.842 13.8978 16 13.5 16H2.5C2.10218 16 1.72064 15.842 1.43934 15.5607C1.15804 15.2794 1 14.8978 1 14.5V7C0.734784 7 0.48043 6.89464 0.292893 6.70711C0.105357 6.51957 0 6.26522 0 6V4C0 3.73478 0.105357 3.48043 0.292893 3.29289C0.48043 3.10536 0.734784 3 1 3H3.038C3.01159 2.83668 2.99888 2.67144 3 2.506V2.5ZM4.068 3H7V2.5C7 2.30302 6.9612 2.10796 6.88582 1.92597C6.81044 1.74399 6.69995 1.57863 6.56066 1.43934C6.42137 1.30005 6.25601 1.18956 6.07403 1.11418C5.89204 1.0388 5.69698 1 5.5 1C5.30302 1 5.10796 1.0388 4.92597 1.11418C4.74399 1.18956 4.57863 1.30005 4.43934 1.43934C4.30005 1.57863 4.18956 1.74399 4.11418 1.92597C4.0388 2.10796 4 2.30302 4 2.5C4 2.585 4.002 2.774 4.045 2.93C4.05101 2.95385 4.05869 2.97724 4.068 3ZM9 3H11.932C11.9412 2.9772 11.9489 2.95381 11.955 2.93C11.998 2.774 12 2.585 12 2.5C12 2.10218 11.842 1.72064 11.5607 1.43934C11.2794 1.15804 10.8978 1 10.5 1C10.1022 1 9.72064 1.15804 9.43934 1.43934C9.15804 1.72064 9 2.10218 9 2.5V3ZM1 4V6H7V4H1ZM9 4V6H15V4H9ZM14 7H9V15H13.5C13.6326 15 13.7598 14.9473 13.8536 14.8536C13.9473 14.7598 14 14.6326 14 14.5V7ZM7 15V7H2V14.5C2 14.6326 2.05268 14.7598 2.14645 14.8536C2.24021 14.9473 2.36739 15 2.5 15H7Z"/></g><defs><clipPath id="clip0_104_2198"><rect width="16" height="16"/></clipPath></defs></svg>