<svg width="16" height="16" viewBox="0 0 16 16" xmlns="http://www.w3.org/2000/svg" fill='currentColor'><g clip-path="url(#clip0_104_2208)"><path d="M15.545 6.55804C15.6383 7.095 15.6848 7.63904 15.684 8.18404C15.684 10.618 14.814 12.676 13.3 14.069H13.302C11.978 15.292 10.158 16 8 16C5.87827 16 3.84344 15.1572 2.34315 13.6569C0.842855 12.1566 0 10.1218 0 8.00004C0 5.87831 0.842855 3.84348 2.34315 2.34319C3.84344 0.842894 5.87827 3.96054e-05 8 3.96054e-05C9.98594 -0.0232187 11.9038 0.722872 13.352 2.08204L11.068 4.36604C10.2424 3.57901 9.1405 3.14803 8 3.16604C5.913 3.16604 4.14 4.57404 3.508 6.47004C3.17291 7.46354 3.17291 8.53953 3.508 9.53304H3.511C4.146 11.426 5.916 12.834 8.003 12.834C9.081 12.834 10.007 12.558 10.725 12.07H10.722C11.1389 11.7938 11.4955 11.436 11.7704 11.0182C12.0452 10.6004 12.2325 10.1312 12.321 9.63904H8V6.55904H15.545V6.55804Z"/></g><defs><clipPath id="clip0_104_2208"><rect width="16" height="16"/></clipPath></defs></svg>