<svg width="16" height="16" viewBox="0 0 16 16" xmlns="http://www.w3.org/2000/svg" fill='currentColor'><g clip-path="url(#clip0_104_2214)"><path fill-rule="evenodd" clip-rule="evenodd" d="M0 0H1V15H16V16H0V0ZM14.817 3.113C14.8679 3.15461 14.91 3.20583 14.941 3.26374C14.9721 3.32165 14.9914 3.38511 14.9979 3.45049C15.0044 3.51587 14.998 3.5819 14.9789 3.64478C14.9599 3.70767 14.9287 3.76619 14.887 3.817L10.387 9.317C10.3428 9.37099 10.2877 9.41511 10.2254 9.44655C10.1631 9.47798 10.0949 9.49602 10.0252 9.4995C9.9555 9.50299 9.88584 9.49184 9.8207 9.46678C9.75556 9.44172 9.69639 9.4033 9.647 9.354L7.06 6.767L3.404 11.794C3.32402 11.8957 3.20774 11.9624 3.07958 11.9802C2.95143 11.9979 2.82138 11.9653 2.71677 11.8892C2.61216 11.8131 2.54113 11.6994 2.51861 11.572C2.49609 11.4446 2.52383 11.3134 2.596 11.206L6.596 5.706C6.63846 5.64751 6.69309 5.59893 6.75613 5.56359C6.81917 5.52825 6.88912 5.50699 6.96117 5.50129C7.03322 5.49559 7.10564 5.50557 7.17346 5.53055C7.24128 5.55554 7.30287 5.59492 7.354 5.646L9.963 8.256L14.113 3.183C14.1546 3.13215 14.2058 3.09 14.2637 3.05896C14.3217 3.02792 14.3851 3.00859 14.4505 3.00209C14.5159 2.99559 14.5819 3.00204 14.6448 3.02107C14.7077 3.0401 14.7662 3.07134 14.817 3.113Z"/></g><defs><clipPath id="clip0_104_2214"><rect width="16" height="16"/></clipPath></defs></svg>