<svg width="16" height="16" viewBox="0 0 16 16" xmlns="http://www.w3.org/2000/svg" fill='currentColor'><g clip-path="url(#clip0_104_2210)"><path fill-rule="evenodd" clip-rule="evenodd" d="M0 0H1V15H16V16H0V0ZM14.817 11.887C14.8679 11.8454 14.91 11.7942 14.941 11.7363C14.9721 11.6783 14.9914 11.6149 14.9979 11.5495C15.0044 11.4841 14.998 11.4181 14.9789 11.3552C14.9599 11.2923 14.9287 11.2338 14.887 11.183L10.387 5.683C10.3428 5.62901 10.2877 5.58489 10.2254 5.55345C10.1631 5.52202 10.0949 5.50398 10.0252 5.5005C9.9555 5.49701 9.88584 5.50816 9.8207 5.53322C9.75556 5.55828 9.69639 5.5967 9.647 5.646L7.06 8.233L3.404 3.206C3.32402 3.1043 3.20774 3.03757 3.07958 3.01981C2.95143 3.00206 2.82138 3.03467 2.71677 3.1108C2.61216 3.18693 2.54113 3.30064 2.51861 3.42805C2.49609 3.55545 2.52383 3.68662 2.596 3.794L6.596 9.294C6.63846 9.35249 6.69309 9.40107 6.75613 9.43641C6.81917 9.47175 6.88912 9.49301 6.96117 9.49871C7.03322 9.50441 7.10564 9.49443 7.17346 9.46945C7.24128 9.44446 7.30287 9.40508 7.354 9.354L9.963 6.744L14.113 11.817C14.1546 11.8679 14.2058 11.91 14.2637 11.941C14.3217 11.9721 14.3851 11.9914 14.4505 11.9979C14.5159 12.0044 14.5819 11.998 14.6448 11.9789C14.7077 11.9599 14.7662 11.9287 14.817 11.887Z"/></g><defs><clipPath id="clip0_104_2210"><rect width="16" height="16"/></clipPath></defs></svg>