<svg width="16" height="16" viewBox="0 0 16 16" fill="none" xmlns="http://www.w3.org/2000/svg">
<path d="M1 2.5C1 2.10218 1.15804 1.72064 1.43934 1.43934C1.72064 1.15804 2.10218 1 2.5 1H5.5C5.89782 1 6.27936 1.15804 6.56066 1.43934C6.84196 1.72064 7 2.10218 7 2.5V5.5C7 5.89782 6.84196 6.27936 6.56066 6.56066C6.27936 6.84196 5.89782 7 5.5 7H2.5C2.10218 7 1.72064 6.84196 1.43934 6.56066C1.15804 6.27936 1 5.89782 1 5.5V2.5ZM2.5 2C2.36739 2 2.24021 2.05268 2.14645 2.14645C2.05268 2.24021 2 2.36739 2 2.5V5.5C2 5.63261 2.05268 5.75979 2.14645 5.85355C2.24021 5.94732 2.36739 6 2.5 6H5.5C5.63261 6 5.75979 5.94732 5.85355 5.85355C5.94732 5.75979 6 5.63261 6 5.5V2.5C6 2.36739 5.94732 2.24021 5.85355 2.14645C5.75979 2.05268 5.63261 2 5.5 2H2.5ZM9 2.5C9 2.10218 9.15804 1.72064 9.43934 1.43934C9.72064 1.15804 10.1022 1 10.5 1H13.5C13.8978 1 14.2794 1.15804 14.5607 1.43934C14.842 1.72064 15 2.10218 15 2.5V5.5C15 5.89782 14.842 6.27936 14.5607 6.56066C14.2794 6.84196 13.8978 7 13.5 7H10.5C10.1022 7 9.72064 6.84196 9.43934 6.56066C9.15804 6.27936 9 5.89782 9 5.5V2.5ZM10.5 2C10.3674 2 10.2402 2.05268 10.1464 2.14645C10.0527 2.24021 10 2.36739 10 2.5V5.5C10 5.63261 10.0527 5.75979 10.1464 5.85355C10.2402 5.94732 10.3674 6 10.5 6H13.5C13.6326 6 13.7598 5.94732 13.8536 5.85355C13.9473 5.75979 14 5.63261 14 5.5V2.5C14 2.36739 13.9473 2.24021 13.8536 2.14645C13.7598 2.05268 13.6326 2 13.5 2H10.5ZM1 10.5C1 10.1022 1.15804 9.72064 1.43934 9.43934C1.72064 9.15804 2.10218 9 2.5 9H5.5C5.89782 9 6.27936 9.15804 6.56066 9.43934C6.84196 9.72064 7 10.1022 7 10.5V13.5C7 13.8978 6.84196 14.2794 6.56066 14.5607C6.27936 14.842 5.89782 15 5.5 15H2.5C2.10218 15 1.72064 14.842 1.43934 14.5607C1.15804 14.2794 1 13.8978 1 13.5V10.5ZM2.5 10C2.36739 10 2.24021 10.0527 2.14645 10.1464C2.05268 10.2402 2 10.3674 2 10.5V13.5C2 13.6326 2.05268 13.7598 2.14645 13.8536C2.24021 13.9473 2.36739 14 2.5 14H5.5C5.63261 14 5.75979 13.9473 5.85355 13.8536C5.94732 13.7598 6 13.6326 6 13.5V10.5C6 10.3674 5.94732 10.2402 5.85355 10.1464C5.75979 10.0527 5.63261 10 5.5 10H2.5ZM9 10.5C9 10.1022 9.15804 9.72064 9.43934 9.43934C9.72064 9.15804 10.1022 9 10.5 9H13.5C13.8978 9 14.2794 9.15804 14.5607 9.43934C14.842 9.72064 15 10.1022 15 10.5V13.5C15 13.8978 14.842 14.2794 14.5607 14.5607C14.2794 14.842 13.8978 15 13.5 15H10.5C10.1022 15 9.72064 14.842 9.43934 14.5607C9.15804 14.2794 9 13.8978 9 13.5V10.5ZM10.5 10C10.3674 10 10.2402 10.0527 10.1464 10.1464C10.0527 10.2402 10 10.3674 10 10.5V13.5C10 13.6326 10.0527 13.7598 10.1464 13.8536C10.2402 13.9473 10.3674 14 10.5 14H13.5C13.6326 14 13.7598 13.9473 13.8536 13.8536C13.9473 13.7598 14 13.6326 14 13.5V10.5C14 10.3674 13.9473 10.2402 13.8536 10.1464C13.7598 10.0527 13.6326 10 13.5 10H10.5Z" fill="black"/>
</svg>
