<svg width="16" height="16" viewBox="0 0 16 16" fill="none" xmlns="http://www.w3.org/2000/svg">
<g clip-path="url(#clip0_104_2220)">
<path d="M6 1H1V15H6V1ZM15 1H10V6H15V1ZM15 10V15H10V10H15ZM0 1C0 0.734784 0.105357 0.48043 0.292893 0.292893C0.48043 0.105357 0.734784 0 1 0L6 0C6.26522 0 6.51957 0.105357 6.70711 0.292893C6.89464 0.48043 7 0.734784 7 1V15C7 15.2652 6.89464 15.5196 6.70711 15.7071C6.51957 15.8946 6.26522 16 6 16H1C0.734784 16 0.48043 15.8946 0.292893 15.7071C0.105357 15.5196 0 15.2652 0 15V1ZM9 1C9 0.734784 9.10536 0.48043 9.29289 0.292893C9.48043 0.105357 9.73478 0 10 0L15 0C15.2652 0 15.5196 0.105357 15.7071 0.292893C15.8946 0.48043 16 0.734784 16 1V6C16 6.26522 15.8946 6.51957 15.7071 6.70711C15.5196 6.89464 15.2652 7 15 7H10C9.73478 7 9.48043 6.89464 9.29289 6.70711C9.10536 6.51957 9 6.26522 9 6V1ZM10 9C9.73478 9 9.48043 9.10536 9.29289 9.29289C9.10536 9.48043 9 9.73478 9 10V15C9 15.2652 9.10536 15.5196 9.29289 15.7071C9.48043 15.8946 9.73478 16 10 16H15C15.2652 16 15.5196 15.8946 15.7071 15.7071C15.8946 15.5196 16 15.2652 16 15V10C16 9.73478 15.8946 9.48043 15.7071 9.29289C15.5196 9.10536 15.2652 9 15 9H10Z" fill="black"/>
</g>
<defs>
<clipPath id="clip0_104_2220">
<rect width="16" height="16" fill="white"/>
</clipPath>
</defs>
</svg>
