<svg width="16" height="16" viewBox="0 0 16 16" xmlns="http://www.w3.org/2000/svg" fill='currentColor'><path d="M1 2.5C1 2.10218 1.15804 1.72064 1.43934 1.43934C1.72064 1.15804 2.10218 1 2.5 1H5.5C5.89782 1 6.27936 1.15804 6.56066 1.43934C6.84196 1.72064 7 2.10218 7 2.5V5.5C7 5.89782 6.84196 6.27936 6.56066 6.56066C6.27936 6.84196 5.89782 7 5.5 7H2.5C2.10218 7 1.72064 6.84196 1.43934 6.56066C1.15804 6.27936 1 5.89782 1 5.5V2.5ZM9 2.5C9 2.10218 9.15804 1.72064 9.43934 1.43934C9.72064 1.15804 10.1022 1 10.5 1H13.5C13.8978 1 14.2794 1.15804 14.5607 1.43934C14.842 1.72064 15 2.10218 15 2.5V5.5C15 5.89782 14.842 6.27936 14.5607 6.56066C14.2794 6.84196 13.8978 7 13.5 7H10.5C10.1022 7 9.72064 6.84196 9.43934 6.56066C9.15804 6.27936 9 5.89782 9 5.5V2.5ZM1 10.5C1 10.1022 1.15804 9.72064 1.43934 9.43934C1.72064 9.15804 2.10218 9 2.5 9H5.5C5.89782 9 6.27936 9.15804 6.56066 9.43934C6.84196 9.72064 7 10.1022 7 10.5V13.5C7 13.8978 6.84196 14.2794 6.56066 14.5607C6.27936 14.842 5.89782 15 5.5 15H2.5C2.10218 15 1.72064 14.842 1.43934 14.5607C1.15804 14.2794 1 13.8978 1 13.5V10.5ZM9 10.5C9 10.1022 9.15804 9.72064 9.43934 9.43934C9.72064 9.15804 10.1022 9 10.5 9H13.5C13.8978 9 14.2794 9.15804 14.5607 9.43934C14.842 9.72064 15 10.1022 15 10.5V13.5C15 13.8978 14.842 14.2794 14.5607 14.5607C14.2794 14.842 13.8978 15 13.5 15H10.5C10.1022 15 9.72064 14.842 9.43934 14.5607C9.15804 14.2794 9 13.8978 9 13.5V10.5Z"/></svg>