<svg width="16" height="16" viewBox="0 0 16 16" fill="none" xmlns="http://www.w3.org/2000/svg">
<path d="M0 3.5C0 3.10218 0.158035 2.72064 0.43934 2.43934C0.720644 2.15804 1.10218 2 1.5 2H14.5C14.8978 2 15.2794 2.15804 15.5607 2.43934C15.842 2.72064 16 3.10218 16 3.5V11.5C16 11.8978 15.842 12.2794 15.5607 12.5607C15.2794 12.842 14.8978 13 14.5 13H1.5C1.10218 13 0.720644 12.842 0.43934 12.5607C0.158035 12.2794 0 11.8978 0 11.5L0 3.5ZM1.5 3C1.36739 3 1.24021 3.05268 1.14645 3.14645C1.05268 3.24021 1 3.36739 1 3.5V7H5V3H1.5ZM5 8H1V11.5C1 11.6326 1.05268 11.7598 1.14645 11.8536C1.24021 11.9473 1.36739 12 1.5 12H5V8ZM6 8V12H10V8H6ZM10 7V3H6V7H10ZM11 8V12H14.5C14.6326 12 14.7598 11.9473 14.8536 11.8536C14.9473 11.7598 15 11.6326 15 11.5V8H11ZM11 7H15V3.5C15 3.36739 14.9473 3.24021 14.8536 3.14645C14.7598 3.05268 14.6326 3 14.5 3H11V7Z" fill="black"/>
</svg>
