<svg width="16" height="16" viewBox="0 0 16 16" fill="none" xmlns="http://www.w3.org/2000/svg">
<g clip-path="url(#clip0_104_2246)">
<path d="M8.00001 1C7.46958 1 6.96087 1.21071 6.5858 1.58579C6.21072 1.96086 6.00001 2.46957 6.00001 3V5H5.00001V3C5.00001 2.20435 5.31608 1.44129 5.87869 0.87868C6.4413 0.31607 7.20436 0 8.00001 0C8.79566 0 9.55872 0.31607 10.1213 0.87868C10.6839 1.44129 11 2.20435 11 3V5H10V3C10 2.46957 9.7893 1.96086 9.41422 1.58579C9.03915 1.21071 8.53044 1 8.00001 1ZM5.00001 5H3.36001C3.00089 5.00008 2.65371 5.129 2.38157 5.36334C2.10943 5.59767 1.9304 5.92186 1.87701 6.277L0.850011 13.13C0.796799 13.4856 0.820911 13.8485 0.920701 14.1939C1.02049 14.5393 1.19361 14.8591 1.42826 15.1315C1.6629 15.404 1.95354 15.6226 2.28036 15.7724C2.60717 15.9223 2.96247 15.9999 3.32201 16H12.677C13.0366 16.0001 13.392 15.9226 13.719 15.7728C14.0459 15.6229 14.3367 15.4044 14.5714 15.1319C14.8062 14.8595 14.9794 14.5396 15.0793 14.1941C15.1791 13.8486 15.2032 13.4857 15.15 13.13L14.122 6.277C14.0686 5.92204 13.8898 5.59798 13.6178 5.36366C13.3459 5.12935 12.999 5.00032 12.64 5H11V6.5C11 6.63261 10.9473 6.75979 10.8536 6.85355C10.7598 6.94732 10.6326 7 10.5 7C10.3674 7 10.2402 6.94732 10.1465 6.85355C10.0527 6.75979 10 6.63261 10 6.5V5H6.00001V6.5C6.00001 6.63261 5.94733 6.75979 5.85356 6.85355C5.7598 6.94732 5.63262 7 5.50001 7C5.3674 7 5.24023 6.94732 5.14646 6.85355C5.05269 6.75979 5.00001 6.63261 5.00001 6.5V5Z" fill="black"/>
</g>
<defs>
<clipPath id="clip0_104_2246">
<rect width="16" height="16" fill="white"/>
</clipPath>
</defs>
</svg>
