<svg width="16" height="16" viewBox="0 0 16 16" xmlns="http://www.w3.org/2000/svg" fill='currentColor'><g clip-path="url(#clip0_104_2260)"><path d="M8.864 0.0459621C7.908 -0.193038 7.02 0.529962 6.956 1.46596C6.884 2.51696 6.726 3.48196 6.528 4.05596C6.403 4.41596 6.049 5.06896 5.488 5.69496C4.931 6.31796 4.206 6.87296 3.357 7.10496C2.685 7.28796 2 7.86996 2 8.71996V12.721C2 13.566 2.682 14.185 3.448 14.266C4.518 14.38 5.012 14.681 5.516 14.989L5.564 15.019C5.836 15.184 6.142 15.367 6.534 15.503C6.931 15.639 7.395 15.72 8 15.72H11.5C12.437 15.72 13.099 15.243 13.434 14.656C13.5959 14.379 13.6834 14.0648 13.688 13.744C13.688 13.592 13.665 13.432 13.611 13.28C13.812 13.017 13.991 12.702 14.099 12.379C14.209 12.049 14.271 11.617 14.103 11.23C14.172 11.1 14.223 10.961 14.262 10.827C14.339 10.557 14.375 10.259 14.375 9.96996C14.375 9.68196 14.339 9.38496 14.262 9.11396C14.227 8.98938 14.1808 8.86822 14.124 8.75196C14.2991 8.50284 14.4118 8.21527 14.4525 7.9135C14.4932 7.61173 14.4608 7.30459 14.358 7.01796C14.152 6.42596 13.676 5.91796 13.158 5.74596C12.311 5.46396 11.355 5.46996 10.642 5.53496C10.494 5.54828 10.3463 5.56495 10.199 5.58496C10.5459 4.09935 10.5246 2.55148 10.137 1.07596C10.0696 0.839551 9.9402 0.625447 9.76228 0.455792C9.58436 0.286136 9.36435 0.167089 9.125 0.110962L8.864 0.0459621ZM11.5 14.721H8C7.49 14.721 7.137 14.652 6.86 14.557C6.579 14.46 6.354 14.329 6.084 14.164L6.044 14.14C5.489 13.801 4.846 13.409 3.554 13.272C3.221 13.236 3 12.982 3 12.722V8.71996C3 8.46596 3.226 8.17696 3.62 8.06996C4.715 7.76996 5.597 7.07396 6.234 6.36196C6.869 5.65196 7.298 4.88696 7.472 4.38396C7.715 3.68396 7.879 2.61596 7.954 1.53396C7.979 1.17196 8.314 0.939962 8.621 1.01596L8.883 1.08196C9.043 1.12196 9.141 1.22496 9.171 1.33696C9.57939 2.89298 9.52903 4.53391 9.026 6.06196C8.99753 6.14695 8.99242 6.23803 9.01122 6.32566C9.03002 6.4133 9.07203 6.49427 9.13285 6.5601C9.19368 6.62594 9.27108 6.67421 9.35695 6.69987C9.44283 6.72553 9.53403 6.72763 9.621 6.70596L9.624 6.70496L9.638 6.70196L9.696 6.68796C10.038 6.61535 10.3839 6.56292 10.732 6.53096C11.395 6.47096 12.189 6.47696 12.842 6.69496C13.017 6.75296 13.292 6.99496 13.412 7.34496C13.519 7.65296 13.499 8.01496 13.146 8.36696L12.793 8.71996L13.146 9.07396C13.189 9.11696 13.251 9.21496 13.3 9.38896C13.348 9.55596 13.375 9.75896 13.375 9.96996C13.375 10.182 13.348 10.384 13.3 10.552C13.25 10.726 13.189 10.824 13.146 10.867L12.793 11.22L13.146 11.574C13.193 11.621 13.255 11.751 13.151 12.062C13.0426 12.3635 12.8704 12.6381 12.646 12.867L12.293 13.22L12.646 13.574C12.652 13.579 12.687 13.624 12.687 13.744C12.6826 13.8906 12.6409 14.0338 12.566 14.16C12.401 14.448 12.063 14.72 11.5 14.72V14.721Z"/></g><defs><clipPath id="clip0_104_2260"><rect width="16" height="16"/></clipPath></defs></svg>