<svg width="16" height="16" viewBox="0 0 16 16" fill="none" xmlns="http://www.w3.org/2000/svg">
<g clip-path="url(#clip0_104_2258)">
<path d="M6.956 14.534C7.021 15.47 7.908 16.193 8.864 15.954L9.125 15.889C9.36444 15.8331 9.58455 15.7141 9.7625 15.5444C9.94045 15.3747 10.0698 15.1605 10.137 14.924C10.357 14.108 10.67 12.412 10.199 10.414C10.335 10.434 10.484 10.451 10.642 10.465C11.355 10.53 12.311 10.536 13.158 10.254C13.676 10.081 14.152 9.57403 14.358 8.98203C14.4611 8.69546 14.4937 8.38825 14.453 8.08642C14.4123 7.78459 14.2994 7.49701 14.124 7.24803C14.182 7.13003 14.227 7.00603 14.262 6.88603C14.339 6.61603 14.375 6.31803 14.375 6.03003C14.375 5.74003 14.339 5.44403 14.262 5.17303C14.2228 5.03352 14.1691 4.89846 14.102 4.77003C14.271 4.38303 14.209 3.95003 14.099 3.62103C13.9863 3.29651 13.8215 2.99253 13.611 2.72103C13.665 2.56803 13.687 2.40803 13.687 2.25603C13.6827 1.9353 13.5956 1.62113 13.434 1.34403C13.1 0.757029 12.437 0.280029 11.5 0.280029H8C7.395 0.280029 6.93 0.360029 6.534 0.497029C6.19346 0.621714 5.86807 0.784409 5.564 0.982029L5.516 1.01103C5.012 1.31903 4.517 1.62103 3.448 1.73403C2.682 1.81503 2 2.43403 2 3.27903V7.27903C2 8.13003 2.685 8.71203 3.357 8.89503C4.206 9.12703 4.931 9.68203 5.489 10.305C6.049 10.931 6.403 11.585 6.528 11.943C6.727 12.518 6.884 13.483 6.956 14.534Z" fill="black"/>
</g>
<defs>
<clipPath id="clip0_104_2258">
<rect width="16" height="16" fill="white"/>
</clipPath>
</defs>
</svg>
