<svg width="24" height="24" viewBox="0 0 24 24" xmlns="http://www.w3.org/2000/svg" fill='currentColor'><path d="M21.6888 18.6688L16.3888 13.3688H15.3988L12.8588 15.9088V16.8988L18.1588 22.1988C18.5488 22.5888 19.1788 22.5888 19.5688 22.1988L21.6888 20.0788C22.0788 19.6988 22.0788 19.0588 21.6888 18.6688Z"/><path d="M17.3588 10.6888L18.7688 9.27878L20.8888 11.3988C22.0588 10.2288 22.0588 8.32878 20.8888 7.15878L17.3488 3.61878L15.9388 5.02878V2.20878L15.2388 1.49878L11.6988 5.03878L12.4088 5.74878H15.2388L13.8288 7.15878L14.8888 8.21878L11.9988 11.1088L7.86875 6.97878V5.55878L4.84875 2.53878L2.01875 5.36878L5.04875 8.39878H6.45875L10.5888 12.5288L9.73875 13.3788H7.61875L2.31875 18.6788C1.92875 19.0688 1.92875 19.6988 2.31875 20.0888L4.43875 22.2088C4.82875 22.5988 5.45875 22.5988 5.84875 22.2088L11.1488 16.9088V14.7888L16.2988 9.63878L17.3588 10.6888Z"/></svg>