<svg width="16" height="16" viewBox="0 0 16 16" fill="none" xmlns="http://www.w3.org/2000/svg">
<path d="M8.49998 4.466V1.75C8.49998 1.28587 8.31561 0.840752 7.98742 0.512563C7.65923 0.184374 7.21411 0 6.74998 0C6.28586 0 5.84074 0.184374 5.51255 0.512563C5.18436 0.840752 4.99998 1.28587 4.99998 1.75V7.09L3.79998 7.33C3.43216 7.40374 3.10532 7.61264 2.88393 7.91548C2.66253 8.21833 2.56265 8.59314 2.60398 8.966L2.94898 12.072C2.99335 12.469 3.13223 12.8497 3.35398 13.182L4.78698 15.332C4.92395 15.5375 5.10952 15.7059 5.32723 15.8225C5.54494 15.939 5.78805 16 6.03498 16H12.42C12.6844 15.9999 12.9441 15.9299 13.1727 15.7972C13.4014 15.6644 13.5908 15.4736 13.722 15.244L15.117 12.803C15.3609 12.3763 15.5121 11.903 15.561 11.414L15.832 8.699C15.8598 8.42097 15.829 8.14019 15.7417 7.87478C15.6543 7.60936 15.5123 7.36519 15.3248 7.15801C15.1373 6.95083 14.9085 6.78524 14.6531 6.67191C14.3977 6.55857 14.1214 6.50001 13.842 6.5H13.261C13.1986 6.41535 13.1335 6.33264 13.066 6.252C12.875 6.023 12.556 5.684 12.186 5.536C11.822 5.39 11.34 5.404 11.028 5.428L10.896 5.44C10.7895 5.16747 10.5915 4.94049 10.336 4.798C10.1059 4.66532 9.85711 4.56822 9.59798 4.51C9.28798 4.448 8.85898 4.452 8.54799 4.464L8.49998 4.466Z" fill="black"/>
</svg>
