<svg width="16" height="16" viewBox="0 0 16 16" fill="none" xmlns="http://www.w3.org/2000/svg">
<g clip-path="url(#clip0_104_2244)">
<path d="M8 1C8.53043 1 9.03914 1.21071 9.41421 1.58579C9.78928 1.96086 10 2.46957 10 3V5H6V3C6 2.46957 6.21071 1.96086 6.58578 1.58579C6.96086 1.21071 7.46956 1 8 1ZM11 5V3C11 2.20435 10.6839 1.44129 10.1213 0.87868C9.55871 0.31607 8.79565 0 8 0C7.20435 0 6.44128 0.31607 5.87868 0.87868C5.31607 1.44129 5 2.20435 5 3V5H3.36C3.00087 5.00008 2.65369 5.129 2.38155 5.36334C2.10942 5.59767 1.93039 5.92186 1.877 6.277L0.849996 13.13C0.796784 13.4856 0.820895 13.8485 0.920686 14.1939C1.02048 14.5393 1.1936 14.8591 1.42824 15.1315C1.66288 15.404 1.95353 15.6226 2.28034 15.7724C2.60716 15.9223 2.96245 15.9999 3.322 16H12.677C13.0366 16.0001 13.392 15.9226 13.719 15.7728C14.0459 15.6229 14.3367 15.4044 14.5714 15.1319C14.8062 14.8595 14.9794 14.5396 15.0792 14.1941C15.1791 13.8486 15.2032 13.4857 15.15 13.13L14.122 6.277C14.0686 5.92204 13.8897 5.59798 13.6178 5.36366C13.3459 5.12935 12.999 5.00032 12.64 5H11ZM10 6V7.5C10 7.63261 10.0527 7.75979 10.1464 7.85355C10.2402 7.94732 10.3674 8 10.5 8C10.6326 8 10.7598 7.94732 10.8535 7.85355C10.9473 7.75979 11 7.63261 11 7.5V6H12.639C12.7587 6.00012 12.8744 6.04318 12.965 6.12135C13.0557 6.19952 13.1153 6.30762 13.133 6.426L14.161 13.277C14.1931 13.4904 14.1787 13.7082 14.1189 13.9156C14.0592 14.1229 13.9553 14.315 13.8145 14.4785C13.6738 14.6421 13.4993 14.7733 13.3032 14.8633C13.1071 14.9533 12.8938 15 12.678 15H3.322C3.10619 15 2.89293 14.9533 2.69679 14.8633C2.50064 14.7733 2.32623 14.6421 2.18545 14.4785C2.04467 14.315 1.94084 14.1229 1.88105 13.9156C1.82126 13.7082 1.80691 13.4904 1.839 13.277L2.867 6.426C2.88469 6.30779 2.94414 6.19982 3.03458 6.12167C3.12502 6.04352 3.24047 6.00036 3.36 6H5V7.5C5 7.63261 5.05267 7.75979 5.14644 7.85355C5.24021 7.94732 5.36739 8 5.5 8C5.6326 8 5.75978 7.94732 5.85355 7.85355C5.94732 7.75979 6 7.63261 6 7.5V6H10Z" fill="black"/>
</g>
<defs>
<clipPath id="clip0_104_2244">
<rect width="16" height="16" fill="white"/>
</clipPath>
</defs>
</svg>
