<svg width="16" height="16" viewBox="0 0 16 16" xmlns="http://www.w3.org/2000/svg" fill='currentColor'><g clip-path="url(#clip0_104_2252)"><path d="M6.75001 1C6.94892 1 7.13969 1.07902 7.28034 1.21967C7.42099 1.36032 7.50001 1.55109 7.50001 1.75V8C7.50001 8.13261 7.55269 8.25979 7.64646 8.35355C7.74023 8.44732 7.8674 8.5 8.00001 8.5C8.13262 8.5 8.2598 8.44732 8.35356 8.35355C8.44733 8.25979 8.50001 8.13261 8.50001 8V5.467L8.58601 5.463C8.90301 5.451 9.22301 5.455 9.40201 5.49C9.53601 5.517 9.69601 5.586 9.85001 5.672C9.92701 5.714 10 5.819 10 5.986V8C10 8.13261 10.0527 8.25979 10.1465 8.35355C10.2402 8.44732 10.3674 8.5 10.5 8.5C10.6326 8.5 10.7598 8.44732 10.8536 8.35355C10.9473 8.25979 11 8.13261 11 8V6.435L11.106 6.425C11.422 6.401 11.69 6.415 11.814 6.465C11.932 6.511 12.114 6.672 12.3 6.895C12.381 6.991 12.45 7.085 12.5 7.154V8.5C12.5 8.63261 12.5527 8.75979 12.6465 8.85355C12.7402 8.94732 12.8674 9 13 9C13.1326 9 13.2598 8.94732 13.3536 8.85355C13.4473 8.75979 13.5 8.63261 13.5 8.5V7.5H13.842C13.9818 7.5 14.12 7.52929 14.2477 7.58599C14.3755 7.64269 14.4899 7.72553 14.5836 7.82917C14.6774 7.93282 14.7484 8.05497 14.792 8.18773C14.8357 8.3205 14.851 8.46094 14.837 8.6L14.566 11.315C14.531 11.6639 14.423 12.0016 14.249 12.306L12.854 14.748C12.8103 14.8245 12.7471 14.8881 12.6709 14.9324C12.5947 14.9766 12.5081 15 12.42 15H6.11801C6.02523 15 5.93428 14.9742 5.85534 14.9254C5.7764 14.8767 5.71258 14.8069 5.67101 14.724L4.43901 12.259L1.92701 8.074C1.86247 7.9658 1.83967 7.83775 1.86288 7.71392C1.88609 7.59008 1.95372 7.47899 2.05306 7.4015C2.15241 7.32402 2.27663 7.28548 2.40238 7.29312C2.52814 7.30076 2.64678 7.35406 2.73601 7.443L5.14601 9.853C5.21588 9.92305 5.30496 9.97079 5.40198 9.99019C5.49899 10.0096 5.59958 9.99977 5.69101 9.96198C5.78244 9.92418 5.86061 9.86011 5.91561 9.77788C5.97062 9.69564 5.99999 9.59894 6.00001 9.5V1.75C6.00001 1.55109 6.07903 1.36032 6.21968 1.21967C6.36033 1.07902 6.5511 1 6.75001 1ZM8.50001 4.466V1.75C8.50001 1.28587 8.31564 0.840752 7.98745 0.512563C7.65926 0.184374 7.21414 0 6.75001 0C6.28588 0 5.84076 0.184374 5.51257 0.512563C5.18439 0.840752 5.00001 1.28587 5.00001 1.75V8.293L3.44301 6.736C3.18104 6.47548 2.83301 6.31951 2.46421 6.29737C2.09542 6.27522 1.73122 6.38843 1.43996 6.61574C1.1487 6.84305 0.950414 7.16884 0.8823 7.53196C0.814186 7.89509 0.880932 8.27059 1.07001 8.588L3.56101 12.741L4.77601 15.171C4.90064 15.4202 5.09221 15.6297 5.32924 15.7761C5.56627 15.9226 5.8394 16.0001 6.11801 16H12.42C12.6844 15.9999 12.9441 15.9299 13.1727 15.7972C13.4014 15.6644 13.5909 15.4736 13.722 15.244L15.117 12.803C15.3609 12.3763 15.5122 11.903 15.561 11.414L15.832 8.699C15.8598 8.42097 15.829 8.14019 15.7417 7.87478C15.6543 7.60936 15.5124 7.36519 15.3249 7.15801C15.1374 6.95083 14.9086 6.78524 14.6532 6.67191C14.3977 6.55857 14.1214 6.50001 13.842 6.5H13.261C13.1986 6.41535 13.1335 6.33264 13.066 6.252C12.875 6.023 12.556 5.684 12.186 5.536C11.822 5.39 11.34 5.404 11.028 5.428L10.896 5.44C10.7895 5.16747 10.5916 4.94049 10.336 4.798C10.106 4.66532 9.85713 4.56822 9.59801 4.51C9.28801 4.448 8.85901 4.452 8.54801 4.464L8.50001 4.466Z"/></g><defs><clipPath id="clip0_104_2252"><rect width="16" height="16"/></clipPath></defs></svg>