<svg width="16" height="16" viewBox="0 0 16 16" xmlns="http://www.w3.org/2000/svg" fill='currentColor'><path d="M8.864 15.674C7.908 15.914 7.021 15.19 6.956 14.254C6.884 13.204 6.726 12.239 6.528 11.664C6.403 11.304 6.049 10.652 5.488 10.026C4.931 9.402 4.206 8.847 3.357 8.616C2.685 8.432 2 7.85 2 7V3C2 2.155 2.682 1.536 3.448 1.454C4.518 1.341 5.012 1.039 5.516 0.731L5.564 0.702C5.836 0.536 6.142 0.353 6.534 0.218C6.931 0.08 7.395 0 8 0H11.5C12.437 0 13.099 0.478 13.434 1.064C13.598 1.351 13.688 1.671 13.688 1.977C13.688 2.129 13.665 2.289 13.611 2.441C13.812 2.703 13.991 3.018 14.099 3.341C14.209 3.671 14.271 4.103 14.103 4.491C14.172 4.621 14.223 4.759 14.262 4.894C14.339 5.164 14.375 5.461 14.375 5.75C14.375 6.039 14.339 6.336 14.262 6.606C14.227 6.726 14.182 6.85 14.124 6.969C14.518 7.54 14.542 8.169 14.358 8.702C14.152 9.294 13.676 9.802 13.158 9.974C12.311 10.257 11.355 10.25 10.642 10.185C10.494 10.1717 10.3463 10.155 10.199 10.135C10.5461 11.6209 10.5248 13.1692 10.137 14.645C9.999 15.153 9.587 15.493 9.125 15.609L8.864 15.674ZM11.5 1H8C7.49 1 7.137 1.068 6.86 1.163C6.579 1.26 6.354 1.392 6.084 1.556L6.044 1.581C5.489 1.919 4.846 2.311 3.554 2.449C3.221 2.484 3 2.739 3 2.999V7C3 7.255 3.226 7.543 3.62 7.65C4.715 7.95 5.597 8.647 6.234 9.359C6.869 10.069 7.298 10.834 7.472 11.336C7.715 12.036 7.879 13.104 7.954 14.186C7.979 14.548 8.314 14.781 8.621 14.704L8.883 14.639C9.043 14.599 9.141 14.495 9.171 14.384C9.57958 12.8277 9.52923 11.1864 9.026 9.658C8.99776 9.57307 8.99284 9.48212 9.01175 9.39464C9.03065 9.30716 9.07269 9.22635 9.13348 9.16066C9.19426 9.09497 9.27157 9.0468 9.35732 9.02118C9.44308 8.99556 9.53414 8.99342 9.621 9.015H9.624L9.638 9.019L9.696 9.032C10.038 9.10461 10.3839 9.15703 10.732 9.189C11.395 9.249 12.189 9.243 12.842 9.026C13.017 8.967 13.292 8.725 13.412 8.375C13.519 8.067 13.499 7.705 13.146 7.354L12.793 7L13.146 6.646C13.189 6.604 13.251 6.506 13.3 6.331C13.348 6.164 13.375 5.961 13.375 5.75C13.375 5.539 13.348 5.336 13.3 5.169C13.25 4.995 13.189 4.896 13.146 4.854L12.793 4.5L13.146 4.146C13.193 4.099 13.255 3.97 13.151 3.658C13.0425 3.35677 12.8702 3.08253 12.646 2.854L12.293 2.5L12.646 2.146C12.652 2.141 12.687 2.096 12.687 1.976C12.6824 1.82966 12.6408 1.68688 12.566 1.561C12.4 1.272 12.063 1 11.5 1Z"/></svg>