<svg width="16" height="16" viewBox="0 0 16 16" xmlns="http://www.w3.org/2000/svg" fill='currentColor'><g clip-path="url(#clip0_104_2254)"><path d="M8.50001 1.75V4.466L8.54701 4.464C8.85901 4.452 9.28901 4.448 9.59801 4.51C9.87801 4.566 10.141 4.69 10.336 4.798C10.609 4.95 10.792 5.183 10.896 5.44L11.028 5.428C11.34 5.404 11.822 5.39 12.186 5.536C12.556 5.684 12.875 6.023 13.066 6.252C13.141 6.342 13.207 6.427 13.261 6.5H13.843C14.1224 6.50001 14.3987 6.55857 14.6542 6.67191C14.9096 6.78524 15.1384 6.95083 15.3259 7.15801C15.5134 7.36519 15.6553 7.60936 15.7427 7.87478C15.83 8.14019 15.8608 8.42097 15.833 8.699L15.561 11.414C15.5122 11.903 15.3609 12.3763 15.117 12.803L13.722 15.244C13.5909 15.4736 13.4014 15.6644 13.1727 15.7972C12.9441 15.9299 12.6844 15.9999 12.42 16H6.11801C5.8393 16 5.5661 15.9223 5.32905 15.7757C5.09201 15.6291 4.9005 15.4194 4.77601 15.17L3.56101 12.74L1.07001 8.589C0.880932 8.27159 0.814186 7.89609 0.8823 7.53296C0.950414 7.16984 1.1487 6.84405 1.43996 6.61674C1.73122 6.38943 2.09542 6.27622 2.46421 6.29837C2.83301 6.32051 3.18104 6.47648 3.44301 6.737L5.00001 8.293V1.75C5.00001 1.28587 5.18439 0.840752 5.51257 0.512563C5.84076 0.184374 6.28588 0 6.75001 0C7.21414 0 7.65926 0.184374 7.98745 0.512563C8.31564 0.840752 8.50001 1.28587 8.50001 1.75Z"/></g><defs><clipPath id="clip0_104_2254"><rect width="16" height="16"/></clipPath></defs></svg>