<svg width="16" height="16" viewBox="0 0 16 16" fill="none" xmlns="http://www.w3.org/2000/svg">
<path d="M8.39 12.648C8.3809 12.7076 8.37588 12.7677 8.375 12.828C8.375 13.133 8.585 13.336 8.875 13.336C9.141 13.336 9.367 13.164 9.43 12.859L9.984 10.156H11.188C11.609 10.156 11.805 9.922 11.805 9.609C11.805 9.297 11.617 9.079 11.188 9.079H10.203L10.719 6.555H11.984C12.414 6.555 12.602 6.328 12.602 6.008C12.602 5.695 12.414 5.484 11.984 5.484H10.938L11.414 3.18C11.4236 3.12583 11.4289 3.071 11.43 3.016C11.4308 2.94801 11.418 2.88055 11.3924 2.81758C11.3667 2.75462 11.3287 2.69741 11.2807 2.64934C11.2326 2.60126 11.1754 2.56328 11.1124 2.53764C11.0494 2.51199 10.982 2.49919 10.914 2.5C10.7881 2.49759 10.6654 2.53925 10.5669 2.61777C10.4685 2.69629 10.4006 2.80673 10.375 2.93L9.852 5.484H7.617L8.094 3.18C8.102 3.14 8.109 3.062 8.109 3.016C8.10955 2.94749 8.09635 2.87957 8.07017 2.81625C8.04399 2.75294 8.00538 2.69553 7.95661 2.64741C7.90784 2.59929 7.84991 2.56145 7.78625 2.53613C7.72259 2.51081 7.65449 2.49852 7.586 2.5C7.46144 2.49927 7.34047 2.54171 7.24366 2.62011C7.14685 2.6985 7.08019 2.808 7.055 2.93L6.53 5.484H5.414C4.984 5.484 4.797 5.704 4.797 6.016C4.797 6.328 4.984 6.555 5.414 6.555H6.32L5.805 9.078H4.609C4.188 9.078 4 9.297 4 9.609C4 9.922 4.188 10.156 4.61 10.156H5.586L5.07 12.648C5.062 12.688 5.055 12.773 5.055 12.828C5.055 13.133 5.265 13.336 5.555 13.336C5.82 13.336 6.047 13.164 6.109 12.859L6.664 10.156H8.906L8.391 12.648H8.39ZM7.39 6.539H9.656L9.141 9.102H6.859L7.391 6.539H7.39Z" fill="black"/>
</svg>
