<svg width="16" height="16" viewBox="0 0 16 16" fill="none" xmlns="http://www.w3.org/2000/svg">
<g clip-path="url(#clip0_104_2285)">
<path d="M2 9C1.46957 9 0.960859 9.21071 0.585786 9.58579C0.210714 9.96086 0 10.4696 0 11L0 12C0 12.5304 0.210714 13.0391 0.585786 13.4142C0.960859 13.7893 1.46957 14 2 14H14C14.5304 14 15.0391 13.7893 15.4142 13.4142C15.7893 13.0391 16 12.5304 16 12V11C16 10.4696 15.7893 9.96086 15.4142 9.58579C15.0391 9.21071 14.5304 9 14 9H2ZM2.5 12C2.36739 12 2.24021 11.9473 2.14645 11.8536C2.05268 11.7598 2 11.6326 2 11.5C2 11.3674 2.05268 11.2402 2.14645 11.1464C2.24021 11.0527 2.36739 11 2.5 11C2.63261 11 2.75979 11.0527 2.85355 11.1464C2.94732 11.2402 3 11.3674 3 11.5C3 11.6326 2.94732 11.7598 2.85355 11.8536C2.75979 11.9473 2.63261 12 2.5 12ZM4.5 12C4.36739 12 4.24021 11.9473 4.14645 11.8536C4.05268 11.7598 4 11.6326 4 11.5C4 11.3674 4.05268 11.2402 4.14645 11.1464C4.24021 11.0527 4.36739 11 4.5 11C4.63261 11 4.75979 11.0527 4.85355 11.1464C4.94732 11.2402 5 11.3674 5 11.5C5 11.6326 4.94732 11.7598 4.85355 11.8536C4.75979 11.9473 4.63261 12 4.5 12ZM2 2C1.46957 2 0.960859 2.21071 0.585786 2.58579C0.210714 2.96086 0 3.46957 0 4L0 5C0 5.53043 0.210714 6.03914 0.585786 6.41421C0.960859 6.78929 1.46957 7 2 7H14C14.5304 7 15.0391 6.78929 15.4142 6.41421C15.7893 6.03914 16 5.53043 16 5V4C16 3.46957 15.7893 2.96086 15.4142 2.58579C15.0391 2.21071 14.5304 2 14 2H2ZM2.5 5C2.36739 5 2.24021 4.94732 2.14645 4.85355C2.05268 4.75979 2 4.63261 2 4.5C2 4.36739 2.05268 4.24021 2.14645 4.14645C2.24021 4.05268 2.36739 4 2.5 4C2.63261 4 2.75979 4.05268 2.85355 4.14645C2.94732 4.24021 3 4.36739 3 4.5C3 4.63261 2.94732 4.75979 2.85355 4.85355C2.75979 4.94732 2.63261 5 2.5 5ZM4.5 5C4.36739 5 4.24021 4.94732 4.14645 4.85355C4.05268 4.75979 4 4.63261 4 4.5C4 4.36739 4.05268 4.24021 4.14645 4.14645C4.24021 4.05268 4.36739 4 4.5 4C4.63261 4 4.75979 4.05268 4.85355 4.14645C4.94732 4.24021 5 4.36739 5 4.5C5 4.63261 4.94732 4.75979 4.85355 4.85355C4.75979 4.94732 4.63261 5 4.5 5Z" fill="black"/>
</g>
<defs>
<clipPath id="clip0_104_2285">
<rect width="16" height="16" fill="white"/>
</clipPath>
</defs>
</svg>
