<svg width="16" height="16" viewBox="0 0 16 16" xmlns="http://www.w3.org/2000/svg" fill='currentColor'><g clip-path="url(#clip0_104_2274)"><path d="M2 2C1.46957 2 0.960859 2.21071 0.585786 2.58579C0.210714 2.96086 0 3.46957 0 4L0 5C0 5.53043 0.210714 6.03914 0.585786 6.41421C0.960859 6.78929 1.46957 7 2 7H7.5V10C7.10218 10 6.72064 10.158 6.43934 10.4393C6.15804 10.7206 6 11.1022 6 11.5H0.5C0.367392 11.5 0.240215 11.5527 0.146447 11.6464C0.0526784 11.7402 0 11.8674 0 12C0 12.1326 0.0526784 12.2598 0.146447 12.3536C0.240215 12.4473 0.367392 12.5 0.5 12.5H6C6 12.8978 6.15804 13.2794 6.43934 13.5607C6.72064 13.842 7.10218 14 7.5 14H8.5C8.89782 14 9.27936 13.842 9.56066 13.5607C9.84196 13.2794 10 12.8978 10 12.5H15.5C15.6326 12.5 15.7598 12.4473 15.8536 12.3536C15.9473 12.2598 16 12.1326 16 12C16 11.8674 15.9473 11.7402 15.8536 11.6464C15.7598 11.5527 15.6326 11.5 15.5 11.5H10C10 11.1022 9.84196 10.7206 9.56066 10.4393C9.27936 10.158 8.89782 10 8.5 10V7H14C14.5304 7 15.0391 6.78929 15.4142 6.41421C15.7893 6.03914 16 5.53043 16 5V4C16 3.46957 15.7893 2.96086 15.4142 2.58579C15.0391 2.21071 14.5304 2 14 2H2ZM2.5 5C2.36739 5 2.24021 4.94732 2.14645 4.85355C2.05268 4.75979 2 4.63261 2 4.5C2 4.36739 2.05268 4.24021 2.14645 4.14645C2.24021 4.05268 2.36739 4 2.5 4C2.63261 4 2.75979 4.05268 2.85355 4.14645C2.94732 4.24021 3 4.36739 3 4.5C3 4.63261 2.94732 4.75979 2.85355 4.85355C2.75979 4.94732 2.63261 5 2.5 5ZM4.5 5C4.36739 5 4.24021 4.94732 4.14645 4.85355C4.05268 4.75979 4 4.63261 4 4.5C4 4.36739 4.05268 4.24021 4.14645 4.14645C4.24021 4.05268 4.36739 4 4.5 4C4.63261 4 4.75979 4.05268 4.85355 4.14645C4.94732 4.24021 5 4.36739 5 4.5C5 4.63261 4.94732 4.75979 4.85355 4.85355C4.75979 4.94732 4.63261 5 4.5 5Z"/></g><defs><clipPath id="clip0_104_2274"><rect width="16" height="16"/></clipPath></defs></svg>