<svg width="16" height="16" viewBox="0 0 16 16" xmlns="http://www.w3.org/2000/svg" fill='currentColor'><path d="M0 10C0 9.46957 0.210714 8.96086 0.585786 8.58579C0.960859 8.21071 1.46957 8 2 8H14C14.5304 8 15.0391 8.21071 15.4142 8.58579C15.7893 8.96086 16 9.46957 16 10V11C16 11.5304 15.7893 12.0391 15.4142 12.4142C15.0391 12.7893 14.5304 13 14 13H2C1.46957 13 0.960859 12.7893 0.585786 12.4142C0.210714 12.0391 0 11.5304 0 11V10ZM2.5 11C2.63261 11 2.75979 10.9473 2.85355 10.8536C2.94732 10.7598 3 10.6326 3 10.5C3 10.3674 2.94732 10.2402 2.85355 10.1464C2.75979 10.0527 2.63261 10 2.5 10C2.36739 10 2.24021 10.0527 2.14645 10.1464C2.05268 10.2402 2 10.3674 2 10.5C2 10.6326 2.05268 10.7598 2.14645 10.8536C2.24021 10.9473 2.36739 11 2.5 11ZM4.5 11C4.63261 11 4.75979 10.9473 4.85355 10.8536C4.94732 10.7598 5 10.6326 5 10.5C5 10.3674 4.94732 10.2402 4.85355 10.1464C4.75979 10.0527 4.63261 10 4.5 10C4.36739 10 4.24021 10.0527 4.14645 10.1464C4.05268 10.2402 4 10.3674 4 10.5C4 10.6326 4.05268 10.7598 4.14645 10.8536C4.24021 10.9473 4.36739 11 4.5 11ZM0.91 7.204C1.25745 7.0687 1.62713 6.99951 2 7H14C14.384 7 14.752 7.072 15.09 7.204L13.223 3.782C13.094 3.54535 12.9036 3.34784 12.6718 3.21023C12.4401 3.07262 12.1755 3 11.906 3H4.094C3.82447 3 3.55992 3.07262 3.32816 3.21023C3.09641 3.34784 2.90602 3.54535 2.777 3.782L0.91 7.204Z"/></svg>