<svg width="16" height="16" viewBox="0 0 16 16" fill="none" xmlns="http://www.w3.org/2000/svg">
<path d="M4.5 11C4.63261 11 4.75979 10.9473 4.85355 10.8536C4.94732 10.7598 5 10.6326 5 10.5C5 10.3674 4.94732 10.2402 4.85355 10.1464C4.75979 10.0527 4.63261 10 4.5 10C4.36739 10 4.24021 10.0527 4.14645 10.1464C4.05268 10.2402 4 10.3674 4 10.5C4 10.6326 4.05268 10.7598 4.14645 10.8536C4.24021 10.9473 4.36739 11 4.5 11ZM3 10.5C3 10.6326 2.94732 10.7598 2.85355 10.8536C2.75979 10.9473 2.63261 11 2.5 11C2.36739 11 2.24021 10.9473 2.14645 10.8536C2.05268 10.7598 2 10.6326 2 10.5C2 10.3674 2.05268 10.2402 2.14645 10.1464C2.24021 10.0527 2.36739 10 2.5 10C2.63261 10 2.75979 10.0527 2.85355 10.1464C2.94732 10.2402 3 10.3674 3 10.5Z" fill="black"/>
<path d="M16 11C16 11.5304 15.7893 12.0391 15.4142 12.4142C15.0391 12.7893 14.5304 13 14 13H2C1.46957 13 0.960859 12.7893 0.585786 12.4142C0.210714 12.0391 0 11.5304 0 11V9.51C0 9.092 0.105 8.68 0.305 8.313L2.777 3.782C2.90602 3.54535 3.09641 3.34784 3.32816 3.21023C3.55992 3.07262 3.82447 3 4.094 3H11.906C12.1755 3 12.4401 3.07262 12.6718 3.21023C12.9036 3.34784 13.094 3.54535 13.223 3.782L15.695 8.312C15.895 8.68 16 9.092 16 9.51V11ZM3.655 4.26L1.592 8.043C1.724 8.014 1.86 8 2 8H14C14.14 8 14.276 8.014 14.408 8.042L12.345 4.26C12.3019 4.18124 12.2384 4.11554 12.1612 4.06979C12.0839 4.02404 11.9958 3.99993 11.906 4H4.094C4.00405 3.99975 3.91571 4.02378 3.83827 4.06953C3.76083 4.11529 3.69717 4.18109 3.654 4.26H3.655ZM1 10V11C1 11.2652 1.10536 11.5196 1.29289 11.7071C1.48043 11.8946 1.73478 12 2 12H14C14.2652 12 14.5196 11.8946 14.7071 11.7071C14.8946 11.5196 15 11.2652 15 11V10C15 9.73478 14.8946 9.48043 14.7071 9.29289C14.5196 9.10536 14.2652 9 14 9H2C1.73478 9 1.48043 9.10536 1.29289 9.29289C1.10536 9.48043 1 9.73478 1 10Z" fill="black"/>
</svg>
