<svg width="24" height="24" viewBox="0 0 24 24" xmlns="http://www.w3.org/2000/svg" fill='currentColor'><path d="M18 14.45V12.45H19.1L20 14.45H21.5L20.6 12.35C21.1 12.15 21.5 11.55 21.5 10.95V9.94995C21.5 9.14995 20.8 8.44995 20 8.44995H16.5V13.35L17.6 14.45H18ZM18 9.94995H20V10.95H18V9.94995ZM13.5 9.94995V10.35L15 11.85V9.94995C15 9.14995 14.3 8.44995 13.5 8.44995H11.6L13.1 9.94995H13.5ZM9.99999 8.94995L2.99999 1.94995L1.89999 2.94995L7.39999 8.44995H6.99999V10.45H4.99999V8.44995H3.49999V14.45H4.99999V11.95H6.99999V14.45H8.49999V9.54995L9.99999 11.05V14.45H13.4L21 22.05L22.1 20.95L9.99999 8.94995Z"/></svg>