<svg width="16" height="16" viewBox="0 0 16 16" fill="none" xmlns="http://www.w3.org/2000/svg">
<g clip-path="url(#clip0_104_2291)">
<path d="M7.99999 1.248C9.85699 1.248 11.526 1.889 12.65 3.042C13.5749 3.16228 14.4473 3.53996 15.168 4.132C13.907 1.482 11.295 0 7.99999 0C4.74999 0 2.11999 1.48 0.843994 4.122C1.50473 3.58271 2.29291 3.22219 3.13299 3.075C4.23599 1.872 5.97399 1.248 7.99999 1.248Z" fill="black"/>
<path d="M12 12C10.9595 12.0012 9.95969 11.5957 9.21401 10.87L9.21201 10.868C9.12582 10.8032 9.03336 10.7473 8.93601 10.701C8.64292 10.565 8.3231 10.4963 8.00001 10.5C7.58601 10.5 7.27101 10.603 7.06501 10.701C6.96731 10.7472 6.87451 10.8032 6.78801 10.868L6.78601 10.87C6.31582 11.3265 5.74069 11.6604 5.11119 11.8425C4.48168 12.0246 3.81709 12.0492 3.17583 11.9142C2.53458 11.7792 1.9363 11.4888 1.43362 11.0684C0.930941 10.648 0.539246 10.1105 0.292978 9.50322C0.0467092 8.89595 -0.0465888 8.23747 0.0212869 7.58569C0.0891627 6.9339 0.316133 6.30878 0.682242 5.76528C1.04835 5.22177 1.54238 4.77654 2.1209 4.46873C2.69942 4.16092 3.3447 3.99996 4.00001 4H12C13.0609 4 14.0783 4.42143 14.8284 5.17157C15.5786 5.92172 16 6.93913 16 8C16 9.06087 15.5786 10.0783 14.8284 10.8284C14.0783 11.5786 13.0609 12 12 12Z" fill="black"/>
</g>
<defs>
<clipPath id="clip0_104_2291">
<rect width="16" height="16" fill="white"/>
</clipPath>
</defs>
</svg>
