<svg width="16" height="16" viewBox="0 0 16 16" fill="none" xmlns="http://www.w3.org/2000/svg">
<path d="M8 3C6.67392 3 5.40215 3.52678 4.46447 4.46447C3.52678 5.40215 3 6.67392 3 8V9H4C4.26522 9 4.51957 9.10536 4.70711 9.29289C4.89464 9.48043 5 9.73478 5 10V13C5 13.2652 4.89464 13.5196 4.70711 13.7071C4.51957 13.8946 4.26522 14 4 14H3C2.73478 14 2.48043 13.8946 2.29289 13.7071C2.10536 13.5196 2 13.2652 2 13V8C2 7.21207 2.15519 6.43185 2.45672 5.7039C2.75825 4.97595 3.20021 4.31451 3.75736 3.75736C4.31451 3.20021 4.97595 2.75825 5.7039 2.45672C6.43185 2.15519 7.21207 2 8 2C8.78793 2 9.56815 2.15519 10.2961 2.45672C11.0241 2.75825 11.6855 3.20021 12.2426 3.75736C12.7998 4.31451 13.2417 4.97595 13.5433 5.7039C13.8448 6.43185 14 7.21207 14 8V13C14 13.2652 13.8946 13.5196 13.7071 13.7071C13.5196 13.8946 13.2652 14 13 14H12C11.7348 14 11.4804 13.8946 11.2929 13.7071C11.1054 13.5196 11 13.2652 11 13V10C11 9.73478 11.1054 9.48043 11.2929 9.29289C11.4804 9.10536 11.7348 9 12 9H13V8C13 6.67392 12.4732 5.40215 11.5355 4.46447C10.5979 3.52678 9.32608 3 8 3Z" fill="black"/>
</svg>
