<svg width="24" height="24" viewBox="0 0 24 24" xmlns="http://www.w3.org/2000/svg" fill='currentColor'><path d="M12.365 3.64011C16.235 3.64011 19.365 6.77011 19.365 10.6401V12.6401H16.445L21.365 17.5601V10.6401C21.365 5.67011 17.335 1.64011 12.365 1.64011C10.415 1.64011 8.605 2.26011 7.135 3.32011L8.575 4.76011C9.665 4.05011 10.965 3.64011 12.365 3.64011ZM2.635 1.36011L1.365 2.64011L4.695 5.96011C3.855 7.32011 3.365 8.93011 3.365 10.6401V17.6401C3.365 19.3001 4.705 20.6401 6.365 20.6401H9.365V12.6401H5.365V10.6401C5.365 9.47011 5.655 8.38011 6.155 7.42011L15.365 16.6401V20.6401H18.365C18.665 20.6401 18.955 20.5801 19.225 20.5001L21.365 22.6401L22.635 21.3701L2.635 1.36011Z"/></svg>