<svg width="16" height="16" viewBox="0 0 16 16" xmlns="http://www.w3.org/2000/svg" fill='currentColor'><g clip-path="url(#clip0_104_2294)"><path d="M8 2.74805L7.283 2.01105C5.6 0.281049 2.514 0.878049 1.4 3.05305C0.877002 4.07605 0.759002 5.55305 1.714 7.43805C2.634 9.25305 4.548 11.427 8 13.795C11.452 11.427 13.365 9.25305 14.286 7.43805C15.241 5.55205 15.124 4.07605 14.6 3.05305C13.486 0.878049 10.4 0.280049 8.717 2.01005L8 2.74805ZM8 15C-7.333 4.86805 3.279 -3.03995 7.824 1.14305C7.884 1.19805 7.943 1.25505 8 1.31405C8.05642 1.2551 8.11513 1.19839 8.176 1.14405C12.72 -3.04195 23.333 4.86705 8 15Z"/></g><defs><clipPath id="clip0_104_2294"><rect width="16" height="16"/></clipPath></defs></svg>