<svg xmlns="http://www.w3.org/2000/svg" width="24" height="24" viewBox="0 0 24 24" fill='currentColor'><path d="M17 20.39c-.29 0-.56-.06-.76-.15-.71-.37-1.21-.88-1.71-2.38-.51-1.56-1.47-2.29-2.39-3-.79-.61-1.61-1.24-2.32-2.53-.53-.96-.82-2.01-.82-2.94 0-2.8 2.2-5 5-5s5 2.2 5 5h2c0-3.93-3.07-7-7-7s-7 3.07-7 7c0 1.26.38 2.65 1.07 3.9.91 1.65 1.98 2.48 2.85 3.15.81.62 1.39 1.07 1.71 2.05.6 1.82 1.37 2.84 2.73 3.55A4 4 0 0 0 21 18.39h-2c0 1.1-.9 2-2 2M7.64 3.03 6.22 1.61A10.97 10.97 0 0 0 3 9.39c0 3.04 1.23 5.79 3.22 7.78l1.41-1.41A9 9 0 0 1 5 9.39C5 6.9 6.01 4.65 7.64 3.03m3.86 6.36a2.5 2.5 0 0 0 5 0 2.5 2.5 0 0 0-5 0"/></svg>