<svg width="24" height="24" viewBox="0 0 24 24" xmlns="http://www.w3.org/2000/svg" fill='currentColor'><path d="M6.74001 3.28493C7.86001 2.52493 9.22001 2.08493 10.71 2.08493C14.64 2.08493 17.71 5.15493 17.71 9.08493C17.71 10.3449 17.33 11.7349 16.64 12.9849C16.62 13.0249 16.59 13.0649 16.56 13.1149L15.08 11.6349C15.48 10.7749 15.71 9.88493 15.71 9.08493C15.71 6.28493 13.51 4.08493 10.71 4.08493C9.79001 4.08493 8.95001 4.34493 8.21001 4.75493L6.74001 3.28493ZM17.92 14.4649L19.35 15.8949C20.82 14.0149 21.71 11.6549 21.71 9.08493C21.71 6.04493 20.48 3.29493 18.49 1.30493L17.07 2.72493C18.7 4.34493 19.71 6.59493 19.71 9.08493C19.71 11.1049 19.04 12.9649 17.92 14.4649ZM10.71 6.58493C10.5 6.58493 10.31 6.61493 10.12 6.66493L13.13 9.67493C13.18 9.48493 13.21 9.29493 13.21 9.08493C13.21 7.70493 12.09 6.58493 10.71 6.58493ZM21.9 21.2749L3.52001 2.89493L2.10001 4.30493L4.23001 6.43493C3.90001 7.24493 3.71001 8.13493 3.71001 9.08493H5.71001C5.71001 8.72493 5.76001 8.37493 5.83001 8.03493L12.44 14.6449C11.56 15.3249 10.66 16.0549 10.17 17.5449C9.67001 19.0449 9.17001 19.5549 8.46001 19.9249C8.27001 20.0249 8.00001 20.0849 7.71001 20.0849C6.61001 20.0849 5.71001 19.1849 5.71001 18.0849H3.71001C3.71001 20.2949 5.50001 22.0849 7.71001 22.0849C8.28001 22.0849 8.84001 21.9649 9.35001 21.7349C10.71 21.0249 11.48 20.0049 12.08 18.1849C12.4 17.2049 12.98 16.7549 13.79 16.1349C13.82 16.1149 13.84 16.0949 13.87 16.0749L20.49 22.6949L21.9 21.2749Z"/></svg>