<svg width="16" height="16" viewBox="0 0 16 16" xmlns="http://www.w3.org/2000/svg" fill='currentColor'><g clip-path="url(#clip0_104_2300)"><path d="M7.77899 0.0519808C7.84773 0.0181061 7.92335 0.000488281 7.99999 0.000488281C8.07662 0.000488281 8.15224 0.0181061 8.22098 0.0519808L14.236 3.02198C14.3031 3.05507 14.3619 3.10279 14.4081 3.16163C14.4543 3.22048 14.4868 3.28894 14.503 3.36198L15.988 10.038C16.0039 10.1097 16.0039 10.1841 15.9878 10.2559C15.9717 10.3276 15.94 10.3949 15.895 10.453L11.733 15.807C11.6862 15.8671 11.6263 15.9158 11.5578 15.9492C11.4894 15.9827 11.4142 16 11.338 16H4.66199C4.58579 16 4.51059 15.9827 4.44214 15.9492C4.37368 15.9158 4.31377 15.8671 4.26699 15.807L0.104985 10.453C0.05993 10.3949 0.0282366 10.3276 0.0121619 10.2559C-0.00391272 10.1841 -0.00397309 10.1097 0.0119851 10.038L1.49699 3.36198C1.51322 3.28894 1.54563 3.22048 1.59184 3.16163C1.63805 3.10279 1.69688 3.05507 1.76399 3.02198L7.77899 0.0529808V0.0519808ZM2.42199 3.81298L1.03899 10.025L4.90699 15H11.093L14.961 10.025L13.578 3.81298L7.99999 1.05798L2.42199 3.81298Z"/></g><defs><clipPath id="clip0_104_2300"><rect width="16" height="16"/></clipPath></defs></svg>