<svg width="24" height="24" viewBox="0 0 24 24" xmlns="http://www.w3.org/2000/svg" fill='currentColor'><path d="M3.115 2.50507L1.695 3.91507L3.965 6.18507C2.915 7.76507 2.305 9.65507 2.305 11.6951C2.305 17.2151 6.785 21.6951 12.305 21.6951C14.345 21.6951 16.235 21.0851 17.815 20.0351L20.085 22.3051L21.495 20.8951L3.115 2.50507ZM12.305 19.6951C7.895 19.6951 4.305 16.1051 4.305 11.6951C4.305 10.2151 4.715 8.83507 5.425 7.63507L16.365 18.5751C15.165 19.2851 13.785 19.6951 12.305 19.6951ZM8.245 4.81507L6.795 3.35507C8.375 2.30507 10.265 1.69507 12.305 1.69507C17.825 1.69507 22.305 6.17507 22.305 11.6951C22.305 13.7351 21.695 15.6251 20.645 17.2051L19.185 15.7451C19.895 14.5551 20.305 13.1751 20.305 11.6951C20.305 7.28507 16.715 3.69507 12.305 3.69507C10.825 3.69507 9.445 4.10507 8.245 4.81507Z"/></svg>