<svg width="24" height="24" viewBox="0 0 24 24" xmlns="http://www.w3.org/2000/svg" fill='currentColor'><path d="M9.78 4V5.38C8.95 5.05 8.06 4.88 7.17 4.88C5.38 4.88 3.59 5.56 2.22 6.93L5.55 10.26H6.66V11.37C7.52 12.23 8.64 12.68 9.77 12.73V15H6.78V18C6.78 19.1 7.68 20 8.78 20H18.78C20.44 20 21.78 18.66 21.78 17V4H9.78ZM8.67 10.41V8.26H6.39L5.35 7.22C5.92 7 6.54 6.88 7.17 6.88C8.51 6.88 9.76 7.4 10.71 8.34L12.12 9.75L11.92 9.95C11.41 10.46 10.73 10.75 10 10.75C9.53 10.75 9.07 10.63 8.67 10.41ZM19.78 17C19.78 17.55 19.33 18 18.78 18C18.23 18 17.78 17.55 17.78 17V15H11.78V12.41C12.35 12.18 12.88 11.84 13.34 11.38L13.54 11.18L16.37 14H17.78V12.59L11.78 6.62V6H19.78V17Z"/></svg>