<svg width="24" height="24" viewBox="0 0 24 24" xmlns="http://www.w3.org/2000/svg" fill='currentColor'><path d="M15.1 19.3701L16.1 21.1101C15.14 21.5501 14.09 21.84 13 21.9501V19.93C13.74 19.84 14.44 19.6501 15.1 19.3701ZM4.06999 13H2.04999C2.15999 14.1 2.44999 15.14 2.88999 16.1L4.62999 15.1C4.34999 14.44 4.15999 13.74 4.06999 13ZM15.1 4.63005L16.1 2.89005C15.14 2.45005 14.1 2.16005 13 2.05005V4.07005C13.74 4.16005 14.44 4.35005 15.1 4.63005ZM19.93 11H21.95C21.84 9.90005 21.55 8.86005 21.11 7.90005L19.37 8.90005C19.65 9.56005 19.84 10.26 19.93 11ZM8.89999 19.3701L7.89999 21.1101C8.85999 21.5501 9.90999 21.84 11 21.9501V19.93C10.26 19.84 9.55999 19.6501 8.89999 19.3701ZM11 4.07005V2.05005C9.89999 2.16005 8.85999 2.45005 7.89999 2.89005L8.89999 4.63005C9.55999 4.35005 10.26 4.16005 11 4.07005ZM18.36 7.17005L20.1 6.16005C19.47 5.29005 18.7 4.52005 17.83 3.89005L16.82 5.63005C17.41 6.08005 17.92 6.59005 18.36 7.17005ZM4.62999 8.90005L2.88999 7.90005C2.44999 8.86005 2.15999 9.90005 2.04999 11H4.06999C4.15999 10.26 4.34999 9.56005 4.62999 8.90005ZM19.93 13C19.84 13.74 19.65 14.44 19.37 15.1L21.11 16.1C21.55 15.14 21.84 14.09 21.95 13H19.93ZM16.83 18.3601L17.84 20.1C18.71 19.4701 19.48 18.7 20.11 17.83L18.37 16.82C17.92 17.41 17.41 17.9201 16.83 18.3601ZM7.16999 5.64005L6.16999 3.89005C5.28999 4.53005 4.52999 5.29005 3.89999 6.17005L5.63999 7.18005C6.07999 6.59005 6.58999 6.08005 7.16999 5.64005ZM5.63999 16.83L3.89999 17.83C4.52999 18.7 5.29999 19.4701 6.16999 20.1L7.17999 18.3601C6.58999 17.9201 6.07999 17.41 5.63999 16.83ZM13 7.00005H11V12.41L15.29 16.7L16.7 15.29L13 11.59V7.00005Z"/></svg>