<svg width="24" height="24" viewBox="0 0 24 24" xmlns="http://www.w3.org/2000/svg" fill='currentColor'><path d="M18.545 14.295H20.215C20.765 14.295 21.215 13.845 21.215 13.295V11.795C21.215 11.245 20.765 10.795 20.215 10.795H17.715V9.79498H19.715V10.295H21.215V9.29498C21.215 8.74498 20.765 8.29498 20.215 8.29498H17.215C16.665 8.29498 16.215 8.74498 16.215 9.29498V10.795C16.215 11.345 16.665 11.795 17.215 11.795H19.715V12.795H17.715V12.295H16.545L18.545 14.295ZM8.71501 10.125V14.295H7.21501V11.795H5.21501V14.295H3.71501V8.29498H5.21501V10.295H7.21501V8.62498L2.10501 3.51498L3.51501 2.10498L21.895 20.485L20.485 21.895L12.885 14.295H10.715V12.125L8.71501 10.125Z"/></svg>