<svg width="16" height="16" viewBox="0 0 16 16" fill="none" xmlns="http://www.w3.org/2000/svg">
<path d="M2 14.5C2 14.6326 2.05268 14.7598 2.14645 14.8536C2.24021 14.9473 2.36739 15 2.5 15H13.5C13.6326 15 13.7598 14.9473 13.8536 14.8536C13.9473 14.7598 14 14.6326 14 14.5C14 14.3674 13.9473 14.2402 13.8536 14.1464C13.7598 14.0527 13.6326 14 13.5 14H12.5V13C12.5002 12.151 12.2602 11.3192 11.8078 10.6008C11.3553 9.88236 10.7088 9.30659 9.943 8.94C9.653 8.801 9.5 8.563 9.5 8.35V7.65C9.5 7.437 9.654 7.199 9.943 7.06C10.7088 6.69341 11.3553 6.11764 11.8078 5.39922C12.2602 4.6808 12.5002 3.84903 12.5 3V2H13.5C13.6326 2 13.7598 1.94732 13.8536 1.85355C13.9473 1.75979 14 1.63261 14 1.5C14 1.36739 13.9473 1.24021 13.8536 1.14645C13.7598 1.05268 13.6326 1 13.5 1H2.5C2.36739 1 2.24021 1.05268 2.14645 1.14645C2.05268 1.24021 2 1.36739 2 1.5C2 1.63261 2.05268 1.75979 2.14645 1.85355C2.24021 1.94732 2.36739 2 2.5 2H3.5V3C3.49979 3.84903 3.73979 4.6808 4.19225 5.39922C4.64471 6.11764 5.29119 6.69341 6.057 7.06C6.347 7.199 6.5 7.437 6.5 7.65V8.35C6.5 8.563 6.346 8.801 6.057 8.94C5.29119 9.30659 4.64471 9.88236 4.19225 10.6008C3.73979 11.3192 3.49979 12.151 3.5 13V14H2.5C2.36739 14 2.24021 14.0527 2.14645 14.1464C2.05268 14.2402 2 14.3674 2 14.5ZM4.5 14V13C4.49982 12.3396 4.68649 11.6926 5.03845 11.1338C5.39041 10.5749 5.89329 10.1271 6.489 9.842C7.022 9.586 7.5 9.052 7.5 8.351V7.649C7.5 7.649 7.68 7.75 8 7.75C8.32 7.75 8.5 7.65 8.5 7.65V8.35C8.5 9.051 8.978 9.586 9.511 9.842C10.1067 10.1271 10.6096 10.5749 10.9615 11.1338C11.3135 11.6926 11.5002 12.3396 11.5 13V14H4.5Z" fill="black"/>
</svg>
