<svg width="16" height="16" viewBox="0 0 16 16" fill="none" xmlns="http://www.w3.org/2000/svg">
<path d="M2.5 15C2.36739 15 2.24021 14.9473 2.14645 14.8536C2.05268 14.7598 2 14.6326 2 14.5C2 14.3674 2.05268 14.2402 2.14645 14.1464C2.24021 14.0527 2.36739 14 2.5 14H3.5V13C3.49979 12.151 3.73979 11.3192 4.19225 10.6008C4.64471 9.88236 5.29119 9.30659 6.057 8.94C6.347 8.801 6.5 8.563 6.5 8.35V7.65C6.5 7.437 6.346 7.199 6.057 7.06C5.29119 6.69341 4.64471 6.11764 4.19225 5.39922C3.73979 4.6808 3.49979 3.84903 3.5 3V2H2.5C2.36739 2 2.24021 1.94732 2.14645 1.85355C2.05268 1.75979 2 1.63261 2 1.5C2 1.36739 2.05268 1.24021 2.14645 1.14645C2.24021 1.05268 2.36739 1 2.5 1H13.5C13.6326 1 13.7598 1.05268 13.8536 1.14645C13.9473 1.24021 14 1.36739 14 1.5C14 1.63261 13.9473 1.75979 13.8536 1.85355C13.7598 1.94732 13.6326 2 13.5 2H12.5V3C12.5002 3.84903 12.2602 4.6808 11.8078 5.39922C11.3553 6.11764 10.7088 6.69341 9.943 7.06C9.653 7.199 9.5 7.437 9.5 7.65V8.35C9.5 8.563 9.654 8.801 9.943 8.94C10.7088 9.30659 11.3553 9.88236 11.8078 10.6008C12.2602 11.3192 12.5002 12.151 12.5 13V14H13.5C13.6326 14 13.7598 14.0527 13.8536 14.1464C13.9473 14.2402 14 14.3674 14 14.5C14 14.6326 13.9473 14.7598 13.8536 14.8536C13.7598 14.9473 13.6326 15 13.5 15H2.5ZM4.5 2V3C4.5 3.537 4.62 4.045 4.837 4.5H11.163C11.379 4.045 11.5 3.537 11.5 3V2H4.5ZM7.5 8.35C7.5 9.051 7.022 9.586 6.489 9.842C5.89329 10.1271 5.39041 10.5749 5.03845 11.1338C4.68649 11.6926 4.49982 12.3396 4.5 13C4.5 13 5.366 11.701 7.5 11.52V8.35ZM8.5 8.35V11.52C10.634 11.701 11.5 13 11.5 13C11.5002 12.3396 11.3135 11.6926 10.9615 11.1338C10.6096 10.5749 10.1067 10.1271 9.511 9.842C8.978 9.586 8.5 9.052 8.5 8.351V8.35Z" fill="black"/>
</svg>
