<svg width="16" height="16" viewBox="0 0 16 16" fill="none" xmlns="http://www.w3.org/2000/svg">
<path fill-rule="evenodd" clip-rule="evenodd" d="M8 3.293L14 9.293V13.5C14 13.8978 13.842 14.2794 13.5607 14.5607C13.2794 14.842 12.8978 15 12.5 15H3.5C3.10218 15 2.72064 14.842 2.43934 14.5607C2.15804 14.2794 2 13.8978 2 13.5V9.293L8 3.293ZM13 2.5V6L11 4V2.5C11 2.36739 11.0527 2.24021 11.1464 2.14645C11.2402 2.05268 11.3674 2 11.5 2H12.5C12.6326 2 12.7598 2.05268 12.8536 2.14645C12.9473 2.24021 13 2.36739 13 2.5Z" fill="black"/>
<path fill-rule="evenodd" clip-rule="evenodd" d="M7.29301 1.49994C7.48053 1.31247 7.73484 1.20715 8.00001 1.20715C8.26517 1.20715 8.51948 1.31247 8.70701 1.49994L15.354 8.14594C15.4479 8.23983 15.5006 8.36716 15.5006 8.49994C15.5006 8.63272 15.4479 8.76005 15.354 8.85394C15.2601 8.94783 15.1328 9.00057 15 9.00057C14.8672 9.00057 14.7399 8.94783 14.646 8.85394L8.00001 2.20694L1.35401 8.85394C1.26012 8.94783 1.13278 9.00057 1.00001 9.00057C0.86723 9.00057 0.739893 8.94783 0.646006 8.85394C0.552119 8.76005 0.499374 8.63272 0.499374 8.49994C0.499374 8.36716 0.552119 8.23983 0.646006 8.14594L7.29301 1.49994Z" fill="black"/>
</svg>
