<svg width="16" height="16" viewBox="0 0 16 16" fill="none" xmlns="http://www.w3.org/2000/svg">
<path fill-rule="evenodd" clip-rule="evenodd" d="M2 13.5V7H3V13.5C3 13.6326 3.05268 13.7598 3.14645 13.8536C3.24021 13.9473 3.36739 14 3.5 14H12.5C12.6326 14 12.7598 13.9473 12.8536 13.8536C12.9473 13.7598 13 13.6326 13 13.5V7H14V13.5C14 13.8978 13.842 14.2794 13.5607 14.5607C13.2794 14.842 12.8978 15 12.5 15H3.5C3.10218 15 2.72064 14.842 2.43934 14.5607C2.15804 14.2794 2 13.8978 2 13.5ZM13 2.5V6L11 4V2.5C11 2.36739 11.0527 2.24021 11.1464 2.14645C11.2402 2.05268 11.3674 2 11.5 2H12.5C12.6326 2 12.7598 2.05268 12.8536 2.14645C12.9473 2.24021 13 2.36739 13 2.5Z" fill="black"/>
<path fill-rule="evenodd" clip-rule="evenodd" d="M7.29302 1.49994C7.48055 1.31247 7.73486 1.20715 8.00002 1.20715C8.26519 1.20715 8.51949 1.31247 8.70702 1.49994L15.354 8.14594C15.4479 8.23983 15.5007 8.36716 15.5007 8.49994C15.5007 8.63272 15.4479 8.76005 15.354 8.85394C15.2601 8.94783 15.1328 9.00057 15 9.00057C14.8672 9.00057 14.7399 8.94783 14.646 8.85394L8.00002 2.20694L1.35402 8.85394C1.26013 8.94783 1.1328 9.00057 1.00002 9.00057C0.867245 9.00057 0.739908 8.94783 0.646021 8.85394C0.552135 8.76005 0.49939 8.63272 0.49939 8.49994C0.49939 8.36716 0.552135 8.23983 0.646021 8.14594L7.29302 1.49994Z" fill="black"/>
</svg>
