<svg xmlns="http://www.w3.org/2000/svg" width="24" height="24" viewBox="0 0 24 24" fill='currentColor'><path d="M12 16.75c-1.95 0-2.1 1-3.34 1-1.19 0-1.42-1-3.33-1-1.95 0-2.09 1-3.33 1v2c1.9 0 2.17-1 3.35-1 1.19 0 1.42 1 3.33 1 1.95 0 2.08-1 3.32-1s1.37 1 3.32 1c1.91 0 2.14-1 3.33-1 1.18 0 1.45 1 3.35 1v-2c-1.24 0-1.38-1-3.33-1-1.91 0-2.14 1-3.33 1-1.24 0-1.39-1-3.34-1m8.34-4.66-1.37 1.37c-.19.18-.45.29-.71.29H17V10.4l1.32.97 1.18-1.62-7.5-5.5-7.5 5.5 1.18 1.61L7 10.4v3.35H5.74c-.27 0-.52-.11-.71-.29l-1.37-1.37-1.41 1.41 1.37 1.37c.56.56 1.33.88 2.12.88h12.51c.8 0 1.56-.32 2.12-.88l1.37-1.37zM13 13.75h-2v-2h2z"/></svg>