<svg width="24" height="24" viewBox="0 0 24 24" xmlns="http://www.w3.org/2000/svg" fill='currentColor'><path d="M18 13.0005H17.32L15.32 15.0005H17.23L19 17.0005H5L6.78 15.0005H8.83L6.83 13.0005H6L3 16.0005V20.0005C3 21.1005 3.89 22.0005 4.99 22.0005H19C20.1 22.0005 21 21.1105 21 20.0005V16.0005L18 13.0005ZM17 7.95053L12.05 12.9005L8.51 9.36053L13.46 4.41053L17 7.95053ZM12.76 2.29053L6.39 8.66053C6 9.05053 6 9.68053 6.39 10.0705L11.34 15.0205C11.73 15.4105 12.36 15.4105 12.75 15.0205L19.11 8.66053C19.5 8.27053 19.5 7.64053 19.11 7.25053L14.16 2.30053C13.78 1.90053 13.15 1.90053 12.76 2.29053Z"/></svg>