<svg width="16" height="16" viewBox="0 0 16 16" xmlns="http://www.w3.org/2000/svg" fill='currentColor'><g clip-path="url(#clip0_104_2330)"><path d="M12 3H4C3.73478 3 3.48043 3.10536 3.29289 3.29289C3.10536 3.48043 3 3.73478 3 4V6.5H2V4C2 3.46957 2.21071 2.96086 2.58579 2.58579C2.96086 2.21071 3.46957 2 4 2H12C12.5304 2 13.0391 2.21071 13.4142 2.58579C13.7893 2.96086 14 3.46957 14 4V6.5H13V4C13 3.73478 12.8946 3.48043 12.7071 3.29289C12.5196 3.10536 12.2652 3 12 3ZM2 9.5H3V12C3 12.2652 3.10536 12.5196 3.29289 12.7071C3.48043 12.8946 3.73478 13 4 13H12C12.2652 13 12.5196 12.8946 12.7071 12.7071C12.8946 12.5196 13 12.2652 13 12V9.5H14V12C14 12.5304 13.7893 13.0391 13.4142 13.4142C13.0391 13.7893 12.5304 14 12 14H4C3.46957 14 2.96086 13.7893 2.58579 13.4142C2.21071 13.0391 2 12.5304 2 12V9.5ZM0.5 7.5C0.367392 7.5 0.240215 7.55268 0.146447 7.64645C0.0526784 7.74021 0 7.86739 0 8C0 8.13261 0.0526784 8.25979 0.146447 8.35355C0.240215 8.44732 0.367392 8.5 0.5 8.5H15.5C15.6326 8.5 15.7598 8.44732 15.8536 8.35355C15.9473 8.25979 16 8.13261 16 8C16 7.86739 15.9473 7.74021 15.8536 7.64645C15.7598 7.55268 15.6326 7.5 15.5 7.5H0.5Z"/></g><defs><clipPath id="clip0_104_2330"><rect width="16" height="16"/></clipPath></defs></svg>