<svg width="24" height="24" viewBox="0 0 24 24" xmlns="http://www.w3.org/2000/svg" fill='currentColor'><g clip-path="url(#clip0_1616_3843)"><path d="M8.4 18.7C8.78 19.2 9 19.82 9 20.5C9 22.16 7.66 23.5 6 23.5C4.34 23.5 3 22.16 3 20.5C3 18.84 4.34 17.5 6 17.5C6.44 17.5 6.85 17.59 7.23 17.76L8.64 15.99C7.72 14.96 7.35 13.6 7.55 12.3L5.52 11.62C4.98 12.45 4.06 13 3 13C1.34 13 0 11.66 0 10C0 8.34 1.34 7 3 7C4.66 7 6 8.34 6 10C6 10.07 6 10.14 5.99 10.21L8.02 10.89C8.66 9.68 9.84 8.8 11.24 8.57V6.41C9.96 6.07 9 4.9 9 3.5C9 1.84 10.34 0.5 12 0.5C13.66 0.5 15 1.84 15 3.5C15 4.9 14.04 6.07 12.75 6.41V8.57C14.15 8.8 15.33 9.68 15.97 10.89L18 10.21C18 10.14 18 10.07 18 10C18 8.34 19.34 7 21 7C22.66 7 24 8.34 24 10C24 11.66 22.66 13 21 13C19.94 13 19.02 12.45 18.48 11.63L16.45 12.31C16.65 13.6 16.29 14.96 15.36 16L16.77 17.77C17.15 17.59 17.56 17.5 18 17.5C19.66 17.5 21 18.84 21 20.5C21 22.16 19.66 23.5 18 23.5C16.34 23.5 15 22.16 15 20.5C15 19.82 15.22 19.2 15.6 18.7L14.19 16.93C12.84 17.68 11.18 17.69 9.82 16.93L8.4 18.7Z"/></g><defs><clipPath id="clip0_1616_3843"><rect width="24" height="24"/></clipPath></defs></svg>