<svg width="16" height="16" viewBox="0 0 16 16" xmlns="http://www.w3.org/2000/svg" fill='currentColor'><g clip-path="url(#clip0_104_2332)"><path d="M6.999 2.6C7.83758 2.17185 8.77205 1.96614 9.7129 2.00259C10.6538 2.03904 11.5695 2.31641 12.3725 2.80816C13.1754 3.2999 13.8387 3.98955 14.2987 4.81106C14.7588 5.63257 15.0003 6.55844 15 7.5C15 7.63261 15.0527 7.75979 15.1464 7.85355C15.2402 7.94732 15.3674 8 15.5 8C15.6326 8 15.7598 7.94732 15.8536 7.85355C15.9473 7.75979 16 7.63261 16 7.5C16 5.77609 15.3152 4.12279 14.0962 2.90381C12.8772 1.68482 11.2239 1 9.5 1C7.77609 1 6.12279 1.68482 4.90381 2.90381C3.68482 4.12279 3 5.77609 3 7.5C2.99982 8.24162 3.16461 8.974 3.48245 9.64406C3.80028 10.3141 4.2632 10.9051 4.83764 11.3741C5.41209 11.8432 6.08369 12.1786 6.80377 12.356C7.52386 12.5334 8.27439 12.5485 9.001 12.4C8.16242 12.8282 7.22795 13.0339 6.2871 12.9974C5.34624 12.961 4.43049 12.6836 3.62754 12.1918C2.82459 11.7001 2.16133 11.0104 1.70127 10.1889C1.2412 9.36743 0.999738 8.44156 1 7.5C1 7.36739 0.947322 7.24021 0.853553 7.14645C0.759785 7.05268 0.632608 7 0.5 7C0.367392 7 0.240215 7.05268 0.146447 7.14645C0.0526784 7.24021 0 7.36739 0 7.5C0 9.22391 0.684819 10.8772 1.90381 12.0962C3.12279 13.3152 4.77609 14 6.5 14C8.22391 14 9.87721 13.3152 11.0962 12.0962C12.3152 10.8772 13 9.22391 13 7.5C13.0002 6.75838 12.8354 6.026 12.5176 5.35594C12.1997 4.68588 11.7368 4.09491 11.1624 3.62586C10.5879 3.1568 9.91631 2.82141 9.19623 2.64398C8.47614 2.46655 7.72561 2.45153 6.999 2.6ZM10 7.5C10 8.03043 9.78929 8.53914 9.41421 8.91421C9.03914 9.28929 8.53043 9.5 8 9.5C7.46957 9.5 6.96086 9.28929 6.58579 8.91421C6.21071 8.53914 6 8.03043 6 7.5C6 6.96957 6.21071 6.46086 6.58579 6.08579C6.96086 5.71071 7.46957 5.5 8 5.5C8.53043 5.5 9.03914 5.71071 9.41421 6.08579C9.78929 6.46086 10 6.96957 10 7.5Z"/></g><defs><clipPath id="clip0_104_2332"><rect width="16" height="16"/></clipPath></defs></svg>