<svg width="16" height="16" viewBox="0 0 16 16" fill="none" xmlns="http://www.w3.org/2000/svg">
<g clip-path="url(#clip0_104_2334)">
<path d="M7.949 7.99794L7.955 7.99494L7.958 8.00394L7.948 7.99794H7.949ZM7.974 7.96994V7.93994L7.992 7.94994L7.974 7.96994ZM7.974 7.98494L8.014 7.96294L8.024 7.96894V8.00894L7.995 8.02494L7.974 8.01294V7.98494ZM8.023 8.04194V8.02794L8.015 8.03794L8.023 8.04194ZM7.973 8.03394H7.979L7.973 8.03794V8.03394Z" fill="black"/>
<path fill-rule="evenodd" clip-rule="evenodd" d="M8 0C5.87827 0 3.84344 0.842855 2.34315 2.34315C0.842855 3.84344 0 5.87827 0 8C0 10.1217 0.842855 12.1566 2.34315 13.6569C3.84344 15.1571 5.87827 16 8 16C10.1217 16 12.1566 15.1571 13.6569 13.6569C15.1571 12.1566 16 10.1217 16 8C16 5.87827 15.1571 3.84344 13.6569 2.34315C12.1566 0.842855 10.1217 0 8 0V0ZM4.965 1.69C6.1643 1.11172 7.5041 0.888945 8.826 1.048C9.548 1.815 10.003 2.935 10.003 4.183C10.003 5.839 9.201 7.271 8.038 7.949C9.301 8.189 10.693 7.134 11.444 5.207C11.824 4.232 11.981 3.184 11.936 2.211C13.032 2.95722 13.8946 3.99831 14.424 5.214C14.121 6.224 13.378 7.18 12.296 7.804C10.856 8.636 9.206 8.654 8.036 7.977L8.044 7.998L8.056 7.992L8.046 8.002C8.466 9.22 10.078 9.902 12.126 9.588C13.1427 9.42972 14.1153 9.06159 14.982 8.507C14.888 9.83222 14.4168 11.1029 13.624 12.169C12.594 12.417 11.389 12.253 10.302 11.625C8.869 10.798 8.03 9.389 8.023 8.045L8.011 8.042C7.166 9.014 7.381 10.752 8.677 12.369C9.32389 13.1717 10.1311 13.8308 11.047 14.304C9.8488 14.8848 8.50934 15.1104 7.187 14.954C6.46 14.187 6.001 13.062 6.001 11.808C6.001 10.15 6.805 8.717 7.97 8.04L7.968 8.033C6.702 7.783 5.302 8.838 4.548 10.773C4.1776 11.7322 4.01074 12.7579 4.058 13.785C2.95898 13.0351 2.0955 11.9885 1.568 10.767C1.87 9.757 2.613 8.8 3.696 8.174C5.134 7.344 6.78 7.324 7.949 7.998L7.954 7.992C7.538 6.77 5.924 6.085 3.872 6.4C2.832 6.56 1.842 6.95 1.019 7.48C1.11614 6.15159 1.5923 4.87892 2.391 3.813L2.389 3.816C3.414 3.573 4.613 3.738 5.695 4.363C7.125 5.189 7.964 6.593 7.975 7.936L8 7.941C8.837 6.967 8.62 5.235 7.327 3.622C6.68203 2.82157 5.87767 2.16398 4.965 1.691V1.69Z" fill="black"/>
</g>
<defs>
<clipPath id="clip0_104_2334">
<rect width="16" height="16" fill="white"/>
</clipPath>
</defs>
</svg>
