<svg width="16" height="16" viewBox="0 0 16 16" xmlns="http://www.w3.org/2000/svg" fill='currentColor'><g clip-path="url(#clip0_104_2344)"><path d="M4.502 9C4.89982 9 5.28135 8.84196 5.56266 8.56066C5.84396 8.27936 6.002 7.89782 6.002 7.5C6.002 7.10218 5.84396 6.72064 5.56266 6.43934C5.28135 6.15804 4.89982 6 4.502 6C4.10417 6 3.72264 6.15804 3.44134 6.43934C3.16003 6.72064 3.002 7.10218 3.002 7.5C3.002 7.89782 3.16003 8.27936 3.44134 8.56066C3.72264 8.84196 4.10417 9 4.502 9Z"/><path d="M14.002 13C14.002 13.5304 13.7913 14.0391 13.4162 14.4142C13.0411 14.7893 12.5324 15 12.002 15H2.002C1.47157 15 0.962858 14.7893 0.587785 14.4142C0.212713 14.0391 0.0019989 13.5304 0.0019989 13V5C0.00199864 4.46991 0.212438 3.96151 0.587078 3.58649C0.961718 3.21148 1.46991 3.00053 2 3C2 2.46957 2.21071 1.96086 2.58579 1.58579C2.96086 1.21071 3.46957 1 4 1H14C14.5304 1 15.0391 1.21071 15.4142 1.58579C15.7893 1.96086 16 2.46957 16 3V11C16 11.5301 15.7896 12.0385 15.4149 12.4135C15.0403 12.7885 14.5321 12.9995 14.002 13ZM14 2H4C3.73478 2 3.48043 2.10536 3.29289 2.29289C3.10536 2.48043 3 2.73478 3 3H12.002C12.5324 3 13.0411 3.21071 13.4162 3.58579C13.7913 3.96086 14.002 4.46957 14.002 5V12C14.2669 11.9995 14.5207 11.8939 14.7078 11.7064C14.8949 11.5189 15 11.2649 15 11V3C15 2.73478 14.8946 2.48043 14.7071 2.29289C14.5196 2.10536 14.2652 2 14 2ZM2.002 4C1.73678 4 1.48243 4.10536 1.29489 4.29289C1.10736 4.48043 1.002 4.73478 1.002 5V13L3.648 10.646C3.72973 10.5646 3.83711 10.5139 3.95194 10.5026C4.06676 10.4913 4.18196 10.5201 4.278 10.584L6.938 12.357L10.648 8.647C10.7222 8.57277 10.8178 8.52376 10.9213 8.50689C11.0249 8.49002 11.1311 8.50615 11.225 8.553L13.002 10.5V5C13.002 4.73478 12.8966 4.48043 12.7091 4.29289C12.5216 4.10536 12.2672 4 12.002 4H2.002Z"/></g><defs><clipPath id="clip0_104_2344"><rect width="16" height="16"/></clipPath></defs></svg>