<svg width="16" height="16" viewBox="0 0 16 16" fill="none" xmlns="http://www.w3.org/2000/svg">
<g clip-path="url(#clip0_104_2342)">
<path d="M0.0019989 3C0.0019989 2.46957 0.212713 1.96086 0.587785 1.58579C0.962858 1.21071 1.47157 1 2.002 1H14.002C14.5324 1 15.0411 1.21071 15.4162 1.58579C15.7913 1.96086 16.002 2.46957 16.002 3V13C16.002 13.5304 15.7913 14.0391 15.4162 14.4142C15.0411 14.7893 14.5324 15 14.002 15H2.002C1.47157 15 0.962858 14.7893 0.587785 14.4142C0.212713 14.0391 0.0019989 13.5304 0.0019989 13V3ZM1.002 12V13C1.002 13.2652 1.10736 13.5196 1.29489 13.7071C1.48243 13.8946 1.73678 14 2.002 14H14.002C14.2672 14 14.5216 13.8946 14.7091 13.7071C14.8966 13.5196 15.002 13.2652 15.002 13V9.5L11.225 7.553C11.1312 7.50602 11.025 7.48973 10.9215 7.50642C10.8179 7.52311 10.7223 7.57194 10.648 7.646L6.938 11.356L4.278 9.584C4.18196 9.52006 4.06676 9.4913 3.95194 9.5026C3.83711 9.5139 3.72973 9.56456 3.648 9.646L1.002 12ZM6.002 5.5C6.002 5.10218 5.84396 4.72064 5.56266 4.43934C5.28135 4.15804 4.89982 4 4.502 4C4.10417 4 3.72264 4.15804 3.44134 4.43934C3.16003 4.72064 3.002 5.10218 3.002 5.5C3.002 5.89782 3.16003 6.27936 3.44134 6.56066C3.72264 6.84196 4.10417 7 4.502 7C4.89982 7 5.28135 6.84196 5.56266 6.56066C5.84396 6.27936 6.002 5.89782 6.002 5.5Z" fill="black"/>
</g>
<defs>
<clipPath id="clip0_104_2342">
<rect width="16" height="16" fill="white"/>
</clipPath>
</defs>
</svg>
