<svg width="16" height="16" viewBox="0 0 16 16" xmlns="http://www.w3.org/2000/svg" fill='currentColor'><g clip-path="url(#clip0_104_2349)"><path d="M4.98 1C4.90506 1.00011 4.8311 1.01706 4.7636 1.0496C4.69609 1.08214 4.63676 1.12944 4.59 1.188L1.54 5H6C6.13261 5 6.25978 5.05268 6.35355 5.14645C6.44732 5.24021 6.5 5.36739 6.5 5.5C6.5 5.89782 6.65803 6.27936 6.93934 6.56066C7.22064 6.84196 7.60217 7 8 7C8.39782 7 8.77936 6.84196 9.06066 6.56066C9.34196 6.27936 9.5 5.89782 9.5 5.5C9.5 5.36739 9.55268 5.24021 9.64645 5.14645C9.74021 5.05268 9.86739 5 10 5H14.46L11.41 1.188C11.3632 1.12944 11.3039 1.08214 11.2364 1.0496C11.1689 1.01706 11.0949 1.00011 11.02 1H4.98ZM14.934 6H10.45C10.3352 6.56514 10.0286 7.07324 9.58213 7.43819C9.13562 7.80314 8.57668 8.00251 8 8.00251C7.42332 8.00251 6.86438 7.80314 6.41787 7.43819C5.97136 7.07324 5.66476 6.56514 5.55 6H1.066L1.386 8.562C1.40115 8.68325 1.46018 8.79475 1.55193 8.87545C1.64368 8.95615 1.76181 9.00045 1.884 9H14.118C14.2398 8.99997 14.3575 8.95544 14.4488 8.87479C14.5402 8.79413 14.5989 8.68291 14.614 8.562L14.933 6H14.934ZM3.809 0.563C3.9496 0.38724 4.12795 0.245373 4.33083 0.147914C4.53371 0.050454 4.75592 -9.92793e-05 4.981 1.46375e-07H11.019C11.2441 -9.92793e-05 11.4663 0.050454 11.6692 0.147914C11.8721 0.245373 12.0504 0.38724 12.191 0.563L15.891 5.188C15.9326 5.24018 15.9633 5.30015 15.9813 5.36439C15.9993 5.42862 16.0043 5.49581 15.996 5.562L15.606 8.686C15.5607 9.04889 15.3843 9.38271 15.1101 9.62469C14.8359 9.86667 14.4827 10.0001 14.117 10H1.883C1.51729 10.0001 1.16412 9.86667 0.889915 9.62469C0.615707 9.38271 0.439347 9.04889 0.393999 8.686L0.0039989 5.562C-0.00419735 5.49574 0.000959322 5.42851 0.0191647 5.36428C0.0373701 5.30004 0.0682555 5.24011 0.109999 5.188L3.81 0.563H3.809ZM0.124999 11.17C0.171854 11.1167 0.229529 11.0739 0.294188 11.0446C0.358847 11.0153 0.429006 11.0001 0.499999 11H6C6.13261 11 6.25978 11.0527 6.35355 11.1464C6.44732 11.2402 6.5 11.3674 6.5 11.5C6.5 11.8978 6.65803 12.2794 6.93934 12.5607C7.22064 12.842 7.60217 13 8 13C8.39782 13 8.77936 12.842 9.06066 12.5607C9.34196 12.2794 9.5 11.8978 9.5 11.5C9.5 11.3674 9.55268 11.2402 9.64645 11.1464C9.74021 11.0527 9.86739 11 10 11H15.5C15.5709 11 15.641 11.0151 15.7056 11.0443C15.7702 11.0734 15.8278 11.116 15.8747 11.1691C15.9216 11.2223 15.9567 11.2848 15.9776 11.3525C15.9985 11.4203 16.0048 11.4917 15.996 11.562L15.606 14.686C15.5607 15.0489 15.3843 15.3827 15.1101 15.6247C14.8359 15.8667 14.4827 16.0001 14.117 16H1.883C1.51729 16.0001 1.16412 15.8667 0.889915 15.6247C0.615707 15.3827 0.439347 15.0489 0.393999 14.686L0.0039989 11.562C-0.00484682 11.4917 0.00136711 11.4202 0.0222284 11.3525C0.0430897 11.2847 0.0781213 11.2222 0.124999 11.169V11.17ZM1.066 12L1.386 14.562C1.40113 14.6831 1.46001 14.7944 1.55155 14.8751C1.6431 14.9558 1.76098 15.0002 1.883 15H14.117C14.2388 15 14.3565 14.9554 14.4478 14.8748C14.5392 14.7941 14.5979 14.6829 14.613 14.562L14.933 12H10.45C10.3352 12.5651 10.0286 13.0732 9.58213 13.4382C9.13562 13.8031 8.57668 14.0025 8 14.0025C7.42332 14.0025 6.86438 13.8031 6.41787 13.4382C5.97136 13.0732 5.66476 12.5651 5.55 12H1.066Z"/></g><defs><clipPath id="clip0_104_2349"><rect width="16" height="16"/></clipPath></defs></svg>