<svg width="16" height="16" viewBox="0 0 16 16" fill="none" xmlns="http://www.w3.org/2000/svg">
<g clip-path="url(#clip0_104_2367)">
<path d="M0 2C0 1.46957 0.210714 0.960859 0.585786 0.585786C0.960859 0.210714 1.46957 0 2 0L14 0C14.5304 0 15.0391 0.210714 15.4142 0.585786C15.7893 0.960859 16 1.46957 16 2V14C16 14.5304 15.7893 15.0391 15.4142 15.4142C15.0391 15.7893 14.5304 16 14 16H2C1.46957 16 0.960859 15.7893 0.585786 15.4142C0.210714 15.0391 0 14.5304 0 14V2ZM8.93 6.588L6.64 6.875L6.558 7.255L7.008 7.338C7.302 7.408 7.36 7.514 7.296 7.807L6.558 11.275C6.364 12.172 6.663 12.594 7.366 12.594C7.911 12.594 8.544 12.342 8.831 11.996L8.919 11.58C8.719 11.756 8.427 11.826 8.233 11.826C7.958 11.826 7.858 11.633 7.929 11.293L8.93 6.588ZM8 5.5C8.26522 5.5 8.51957 5.39464 8.70711 5.20711C8.89464 5.01957 9 4.76522 9 4.5C9 4.23478 8.89464 3.98043 8.70711 3.79289C8.51957 3.60536 8.26522 3.5 8 3.5C7.73478 3.5 7.48043 3.60536 7.29289 3.79289C7.10536 3.98043 7 4.23478 7 4.5C7 4.76522 7.10536 5.01957 7.29289 5.20711C7.48043 5.39464 7.73478 5.5 8 5.5Z" fill="black"/>
</g>
<defs>
<clipPath id="clip0_104_2367">
<rect width="16" height="16" fill="white"/>
</clipPath>
</defs>
</svg>
