<svg width="16" height="16" viewBox="0 0 16 16" fill="none" xmlns="http://www.w3.org/2000/svg">
<path d="M9.70801 6.075L6.684 6.454L6.57601 6.956L7.171 7.064C7.558 7.157 7.635 7.296 7.55101 7.683L6.57601 12.26C6.32101 13.443 6.71601 14 7.64301 14C8.36301 14 9.19701 13.668 9.57601 13.211L9.69201 12.662C9.42901 12.894 9.042 12.987 8.787 12.987C8.424 12.987 8.29301 12.732 8.38501 12.283L9.70801 6.075ZM9.799 3.32C9.799 3.67009 9.65993 4.00583 9.41239 4.25338C9.16484 4.50093 8.82909 4.64 8.479 4.64C8.12892 4.64 7.79317 4.50093 7.54562 4.25338C7.29808 4.00583 7.159 3.67009 7.159 3.32C7.159 2.96991 7.29808 2.63417 7.54562 2.38662C7.79317 2.13907 8.12892 2 8.479 2C8.82909 2 9.16484 2.13907 9.41239 2.38662C9.65993 2.63417 9.799 2.96991 9.799 3.32Z" fill="black"/>
</svg>
