<svg width="16" height="16" viewBox="0 0 16 16" xmlns="http://www.w3.org/2000/svg" fill='currentColor'><g clip-path="url(#clip0_104_2364)"><path d="M14 1C14.2652 1 14.5196 1.10536 14.7071 1.29289C14.8946 1.48043 15 1.73478 15 2V14C15 14.2652 14.8946 14.5196 14.7071 14.7071C14.5196 14.8946 14.2652 15 14 15H2C1.73478 15 1.48043 14.8946 1.29289 14.7071C1.10536 14.5196 1 14.2652 1 14V2C1 1.73478 1.10536 1.48043 1.29289 1.29289C1.48043 1.10536 1.73478 1 2 1H14ZM2 0C1.46957 0 0.960859 0.210714 0.585786 0.585786C0.210714 0.960859 0 1.46957 0 2L0 14C0 14.5304 0.210714 15.0391 0.585786 15.4142C0.960859 15.7893 1.46957 16 2 16H14C14.5304 16 15.0391 15.7893 15.4142 15.4142C15.7893 15.0391 16 14.5304 16 14V2C16 1.46957 15.7893 0.960859 15.4142 0.585786C15.0391 0.210714 14.5304 0 14 0L2 0Z"/><path d="M8.93001 6.588L6.64001 6.875L6.55801 7.255L7.00801 7.338C7.30201 7.408 7.36001 7.514 7.29601 7.807L6.55801 11.275C6.36401 12.172 6.66301 12.594 7.36601 12.594C7.91101 12.594 8.54401 12.342 8.83101 11.996L8.91901 11.58C8.71901 11.756 8.42701 11.826 8.23301 11.826C7.95801 11.826 7.85801 11.633 7.92901 11.293L8.93001 6.588ZM9.00001 4.5C9.00001 4.76522 8.89466 5.01957 8.70712 5.20711C8.51958 5.39464 8.26523 5.5 8.00001 5.5C7.7348 5.5 7.48044 5.39464 7.29291 5.20711C7.10537 5.01957 7.00001 4.76522 7.00001 4.5C7.00001 4.23478 7.10537 3.98043 7.29291 3.79289C7.48044 3.60536 7.7348 3.5 8.00001 3.5C8.26523 3.5 8.51958 3.60536 8.70712 3.79289C8.89466 3.98043 9.00001 4.23478 9.00001 4.5Z"/></g><defs><clipPath id="clip0_104_2364"><rect width="16" height="16"/></clipPath></defs></svg>