<svg width="24" height="24" viewBox="0 0 24 24" xmlns="http://www.w3.org/2000/svg" fill='currentColor'><path d="M21.9 20.89L3.52 2.50995L2.1 3.91995L6.3 8.11995C5.3 9.42995 4.7 11.06 4.7 12.82C4.71 17.18 8.29 20.7 12.71 20.7C14.46 20.7 16.07 20.14 17.38 19.2L20.48 22.3L21.9 20.89ZM12.71 18.7C9.4 18.7 6.71 16.07 6.71 12.83C6.71 11.64 7.07 10.51 7.73 9.54995L12.71 14.53V18.7ZM9.09 5.25995L12.71 1.69995L18.36 7.25995C19.81 8.68995 20.71 10.66 20.71 12.83C20.71 14.01 20.44 15.12 19.97 16.13L12.71 8.86995V4.50995L10.51 6.66995L9.09 5.25995Z"/></svg>