<svg width="24" height="24" viewBox="0 0 24 24" xmlns="http://www.w3.org/2000/svg" fill='currentColor'><path d="M12 17.74C13.6569 17.74 15 15.1701 15 12C15 8.82989 13.6569 6.26 12 6.26C10.3431 6.26 9 8.82989 9 12C9 15.1701 10.3431 17.74 12 17.74Z"/><path d="M7.5 12C7.5 11.03 7.73 7.84 10.53 5.5C9.75 5.19 8.9 5 8 5C4.14 5 1 8.14 1 12C1 15.86 4.14 19 8 19C8.9 19 9.75 18.81 10.53 18.5C7.73 16.16 7.5 12.97 7.5 12Z"/><path d="M16 5C15.1 5 14.25 5.19 13.47 5.5C16.27 7.84 16.5 11.03 16.5 12C16.5 12.97 16.27 16.16 13.47 18.5C14.25 18.81 15.1 19 16 19C19.86 19 23 15.86 23 12C23 8.14 19.86 5 16 5Z"/></svg>