<svg width="16" height="16" viewBox="0 0 16 16" fill="none" xmlns="http://www.w3.org/2000/svg">
<g clip-path="url(#clip0_104_2426)">
<path d="M5 0H13C13.5304 0 14.0391 0.210714 14.4142 0.585786C14.7893 0.960859 15 1.46957 15 2V12C15 12.5304 14.7893 13.0391 14.4142 13.4142C14.0391 13.7893 13.5304 14 13 14C13 14.5304 12.7893 15.0391 12.4142 15.4142C12.0391 15.7893 11.5304 16 11 16H3C2.46957 16 1.96086 15.7893 1.58579 15.4142C1.21071 15.0391 1 14.5304 1 14H2C2 14.2652 2.10536 14.5196 2.29289 14.7071C2.48043 14.8946 2.73478 15 3 15H11C11.2652 15 11.5196 14.8946 11.7071 14.7071C11.8946 14.5196 12 14.2652 12 14V4C12 3.73478 11.8946 3.48043 11.7071 3.29289C11.5196 3.10536 11.2652 3 11 3H3C2.73478 3 2.48043 3.10536 2.29289 3.29289C2.10536 3.48043 2 3.73478 2 4H1C1 3.46957 1.21071 2.96086 1.58579 2.58579C1.96086 2.21071 2.46957 2 3 2H11C11.5304 2 12.0391 2.21071 12.4142 2.58579C12.7893 2.96086 13 3.46957 13 4V13C13.2652 13 13.5196 12.8946 13.7071 12.7071C13.8946 12.5196 14 12.2652 14 12V2C14 1.73478 13.8946 1.48043 13.7071 1.29289C13.5196 1.10536 13.2652 1 13 1H5C4.73478 1 4.48043 1.10536 4.29289 1.29289C4.10536 1.48043 4 1.73478 4 2H3C3 1.46957 3.21071 0.960859 3.58579 0.585786C3.96086 0.210714 4.46957 0 5 0V0Z" fill="black"/>
<path d="M1 6V5.5C1 5.36739 1.05268 5.24021 1.14645 5.14645C1.24021 5.05268 1.36739 5 1.5 5C1.63261 5 1.75979 5.05268 1.85355 5.14645C1.94732 5.24021 2 5.36739 2 5.5V6H2.5C2.63261 6 2.75979 6.05268 2.85355 6.14645C2.94732 6.24021 3 6.36739 3 6.5C3 6.63261 2.94732 6.75979 2.85355 6.85355C2.75979 6.94732 2.63261 7 2.5 7H0.5C0.367392 7 0.240215 6.94732 0.146447 6.85355C0.0526784 6.75979 0 6.63261 0 6.5C0 6.36739 0.0526784 6.24021 0.146447 6.14645C0.240215 6.05268 0.367392 6 0.5 6H1ZM1 9V8.5C1 8.36739 1.05268 8.24021 1.14645 8.14645C1.24021 8.05268 1.36739 8 1.5 8C1.63261 8 1.75979 8.05268 1.85355 8.14645C1.94732 8.24021 2 8.36739 2 8.5V9H2.5C2.63261 9 2.75979 9.05268 2.85355 9.14645C2.94732 9.24021 3 9.36739 3 9.5C3 9.63261 2.94732 9.75979 2.85355 9.85355C2.75979 9.94732 2.63261 10 2.5 10H0.5C0.367392 10 0.240215 9.94732 0.146447 9.85355C0.0526784 9.75979 0 9.63261 0 9.5C0 9.36739 0.0526784 9.24021 0.146447 9.14645C0.240215 9.05268 0.367392 9 0.5 9H1ZM1 11.5V12H0.5C0.367392 12 0.240215 12.0527 0.146447 12.1464C0.0526784 12.2402 0 12.3674 0 12.5C0 12.6326 0.0526784 12.7598 0.146447 12.8536C0.240215 12.9473 0.367392 13 0.5 13H2.5C2.63261 13 2.75979 12.9473 2.85355 12.8536C2.94732 12.7598 3 12.6326 3 12.5C3 12.3674 2.94732 12.2402 2.85355 12.1464C2.75979 12.0527 2.63261 12 2.5 12H2V11.5C2 11.3674 1.94732 11.2402 1.85355 11.1464C1.75979 11.0527 1.63261 11 1.5 11C1.36739 11 1.24021 11.0527 1.14645 11.1464C1.05268 11.2402 1 11.3674 1 11.5Z" fill="black"/>
</g>
<defs>
<clipPath id="clip0_104_2426">
<rect width="16" height="16" fill="white"/>
</clipPath>
</defs>
</svg>
