<svg width="16" height="16" viewBox="0 0 16 16" xmlns="http://www.w3.org/2000/svg" fill='currentColor'><path fill-rule="evenodd" clip-rule="evenodd" d="M10.854 6.14604C10.9006 6.19248 10.9375 6.24766 10.9627 6.30841C10.9879 6.36915 11.0009 6.43427 11.0009 6.50004C11.0009 6.56581 10.9879 6.63093 10.9627 6.69167C10.9375 6.75242 10.9006 6.80759 10.854 6.85404L7.854 9.85404C7.80755 9.9006 7.75238 9.93754 7.69163 9.96275C7.63089 9.98796 7.56577 10.0009 7.5 10.0009C7.43423 10.0009 7.36911 9.98796 7.30837 9.96275C7.24762 9.93754 7.19245 9.9006 7.146 9.85404L5.646 8.35404C5.59951 8.30755 5.56264 8.25236 5.53748 8.19162C5.51232 8.13088 5.49937 8.06578 5.49937 8.00004C5.49937 7.9343 5.51232 7.86919 5.53748 7.80846C5.56264 7.74772 5.59951 7.69253 5.646 7.64604C5.69249 7.59955 5.74768 7.56267 5.80842 7.53752C5.86916 7.51236 5.93426 7.49941 6 7.49941C6.06574 7.49941 6.13084 7.51236 6.19158 7.53752C6.25232 7.56267 6.30751 7.59955 6.354 7.64604L7.5 8.79304L10.146 6.14604C10.1924 6.09948 10.2476 6.06253 10.3084 6.03733C10.3691 6.01212 10.4342 5.99915 10.5 5.99915C10.5658 5.99915 10.6309 6.01212 10.6916 6.03733C10.7524 6.06253 10.8076 6.09948 10.854 6.14604Z"/><path d="M3 0H13C13.5304 0 14.0391 0.210714 14.4142 0.585786C14.7893 0.960859 15 1.46957 15 2V14C15 14.5304 14.7893 15.0391 14.4142 15.4142C14.0391 15.7893 13.5304 16 13 16H3C2.46957 16 1.96086 15.7893 1.58579 15.4142C1.21071 15.0391 1 14.5304 1 14V13H2V14C2 14.2652 2.10536 14.5196 2.29289 14.7071C2.48043 14.8946 2.73478 15 3 15H13C13.2652 15 13.5196 14.8946 13.7071 14.7071C13.8946 14.5196 14 14.2652 14 14V2C14 1.73478 13.8946 1.48043 13.7071 1.29289C13.5196 1.10536 13.2652 1 13 1H3C2.73478 1 2.48043 1.10536 2.29289 1.29289C2.10536 1.48043 2 1.73478 2 2V3H1V2C1 1.46957 1.21071 0.960859 1.58579 0.585786C1.96086 0.210714 2.46957 0 3 0V0Z"/><path d="M1 5V4.5C1 4.36739 1.05268 4.24021 1.14645 4.14645C1.24021 4.05268 1.36739 4 1.5 4C1.63261 4 1.75979 4.05268 1.85355 4.14645C1.94732 4.24021 2 4.36739 2 4.5V5H2.5C2.63261 5 2.75979 5.05268 2.85355 5.14645C2.94732 5.24021 3 5.36739 3 5.5C3 5.63261 2.94732 5.75979 2.85355 5.85355C2.75979 5.94732 2.63261 6 2.5 6H0.5C0.367392 6 0.240215 5.94732 0.146447 5.85355C0.0526784 5.75979 0 5.63261 0 5.5C0 5.36739 0.0526784 5.24021 0.146447 5.14645C0.240215 5.05268 0.367392 5 0.5 5H1ZM1 8V7.5C1 7.36739 1.05268 7.24021 1.14645 7.14645C1.24021 7.05268 1.36739 7 1.5 7C1.63261 7 1.75979 7.05268 1.85355 7.14645C1.94732 7.24021 2 7.36739 2 7.5V8H2.5C2.63261 8 2.75979 8.05268 2.85355 8.14645C2.94732 8.24021 3 8.36739 3 8.5C3 8.63261 2.94732 8.75979 2.85355 8.85355C2.75979 8.94732 2.63261 9 2.5 9H0.5C0.367392 9 0.240215 8.94732 0.146447 8.85355C0.0526784 8.75979 0 8.63261 0 8.5C0 8.36739 0.0526784 8.24021 0.146447 8.14645C0.240215 8.05268 0.367392 8 0.5 8H1ZM1 11V10.5C1 10.3674 1.05268 10.2402 1.14645 10.1464C1.24021 10.0527 1.36739 10 1.5 10C1.63261 10 1.75979 10.0527 1.85355 10.1464C1.94732 10.2402 2 10.3674 2 10.5V11H2.5C2.63261 11 2.75979 11.0527 2.85355 11.1464C2.94732 11.2402 3 11.3674 3 11.5C3 11.6326 2.94732 11.7598 2.85355 11.8536C2.75979 11.9473 2.63261 12 2.5 12H0.5C0.367392 12 0.240215 11.9473 0.146447 11.8536C0.0526784 11.7598 0 11.6326 0 11.5C0 11.3674 0.0526784 11.2402 0.146447 11.1464C0.240215 11.0527 0.367392 11 0.5 11H1Z"/></svg>