<svg width="16" height="16" viewBox="0 0 16 16" xmlns="http://www.w3.org/2000/svg" fill='currentColor'><path d="M5 10.5C5 10.3674 5.05268 10.2402 5.14645 10.1464C5.24021 10.0527 5.36739 10 5.5 10H7.5C7.63261 10 7.75979 10.0527 7.85355 10.1464C7.94732 10.2402 8 10.3674 8 10.5C8 10.6326 7.94732 10.7598 7.85355 10.8536C7.75979 10.9473 7.63261 11 7.5 11H5.5C5.36739 11 5.24021 10.9473 5.14645 10.8536C5.05268 10.7598 5 10.6326 5 10.5ZM5 8.5C5 8.36739 5.05268 8.24021 5.14645 8.14645C5.24021 8.05268 5.36739 8 5.5 8H10.5C10.6326 8 10.7598 8.05268 10.8536 8.14645C10.9473 8.24021 11 8.36739 11 8.5C11 8.63261 10.9473 8.75979 10.8536 8.85355C10.7598 8.94732 10.6326 9 10.5 9H5.5C5.36739 9 5.24021 8.94732 5.14645 8.85355C5.05268 8.75979 5 8.63261 5 8.5ZM5 6.5C5 6.36739 5.05268 6.24021 5.14645 6.14645C5.24021 6.05268 5.36739 6 5.5 6H10.5C10.6326 6 10.7598 6.05268 10.8536 6.14645C10.9473 6.24021 11 6.36739 11 6.5C11 6.63261 10.9473 6.75979 10.8536 6.85355C10.7598 6.94732 10.6326 7 10.5 7H5.5C5.36739 7 5.24021 6.94732 5.14645 6.85355C5.05268 6.75979 5 6.63261 5 6.5ZM5 4.5C5 4.36739 5.05268 4.24021 5.14645 4.14645C5.24021 4.05268 5.36739 4 5.5 4H10.5C10.6326 4 10.7598 4.05268 10.8536 4.14645C10.9473 4.24021 11 4.36739 11 4.5C11 4.63261 10.9473 4.75979 10.8536 4.85355C10.7598 4.94732 10.6326 5 10.5 5H5.5C5.36739 5 5.24021 4.94732 5.14645 4.85355C5.05268 4.75979 5 4.63261 5 4.5Z"/><path d="M3 0H13C13.5304 0 14.0391 0.210714 14.4142 0.585786C14.7893 0.960859 15 1.46957 15 2V14C15 14.5304 14.7893 15.0391 14.4142 15.4142C14.0391 15.7893 13.5304 16 13 16H3C2.46957 16 1.96086 15.7893 1.58579 15.4142C1.21071 15.0391 1 14.5304 1 14V13H2V14C2 14.2652 2.10536 14.5196 2.29289 14.7071C2.48043 14.8946 2.73478 15 3 15H13C13.2652 15 13.5196 14.8946 13.7071 14.7071C13.8946 14.5196 14 14.2652 14 14V2C14 1.73478 13.8946 1.48043 13.7071 1.29289C13.5196 1.10536 13.2652 1 13 1H3C2.73478 1 2.48043 1.10536 2.29289 1.29289C2.10536 1.48043 2 1.73478 2 2V3H1V2C1 1.46957 1.21071 0.960859 1.58579 0.585786C1.96086 0.210714 2.46957 0 3 0V0Z"/><path d="M1 5V4.5C1 4.36739 1.05268 4.24021 1.14645 4.14645C1.24021 4.05268 1.36739 4 1.5 4C1.63261 4 1.75979 4.05268 1.85355 4.14645C1.94732 4.24021 2 4.36739 2 4.5V5H2.5C2.63261 5 2.75979 5.05268 2.85355 5.14645C2.94732 5.24021 3 5.36739 3 5.5C3 5.63261 2.94732 5.75979 2.85355 5.85355C2.75979 5.94732 2.63261 6 2.5 6H0.5C0.367392 6 0.240215 5.94732 0.146447 5.85355C0.0526784 5.75979 0 5.63261 0 5.5C0 5.36739 0.0526784 5.24021 0.146447 5.14645C0.240215 5.05268 0.367392 5 0.5 5H1ZM1 8V7.5C1 7.36739 1.05268 7.24021 1.14645 7.14645C1.24021 7.05268 1.36739 7 1.5 7C1.63261 7 1.75979 7.05268 1.85355 7.14645C1.94732 7.24021 2 7.36739 2 7.5V8H2.5C2.63261 8 2.75979 8.05268 2.85355 8.14645C2.94732 8.24021 3 8.36739 3 8.5C3 8.63261 2.94732 8.75979 2.85355 8.85355C2.75979 8.94732 2.63261 9 2.5 9H0.5C0.367392 9 0.240215 8.94732 0.146447 8.85355C0.0526784 8.75979 0 8.63261 0 8.5C0 8.36739 0.0526784 8.24021 0.146447 8.14645C0.240215 8.05268 0.367392 8 0.5 8H1ZM1 11V10.5C1 10.3674 1.05268 10.2402 1.14645 10.1464C1.24021 10.0527 1.36739 10 1.5 10C1.63261 10 1.75979 10.0527 1.85355 10.1464C1.94732 10.2402 2 10.3674 2 10.5V11H2.5C2.63261 11 2.75979 11.0527 2.85355 11.1464C2.94732 11.2402 3 11.3674 3 11.5C3 11.6326 2.94732 11.7598 2.85355 11.8536C2.75979 11.9473 2.63261 12 2.5 12H0.5C0.367392 12 0.240215 11.9473 0.146447 11.8536C0.0526784 11.7598 0 11.6326 0 11.5C0 11.3674 0.0526784 11.2402 0.146447 11.1464C0.240215 11.0527 0.367392 11 0.5 11H1Z"/></svg>