<svg width="16" height="16" viewBox="0 0 16 16" xmlns="http://www.w3.org/2000/svg" fill='currentColor'><g clip-path="url(#clip0_104_2437)"><path d="M10 1.99998C10.0001 2.44346 9.85282 2.8744 9.58129 3.22503C9.30976 3.57567 8.9294 3.82611 8.5 3.93698V9.02398C9.363 9.10698 10 9.40098 10 9.74998C10 10.164 9.105 10.5 8 10.5C6.895 10.5 6 10.164 6 9.74998C6 9.39998 6.637 9.10698 7.5 9.02398V3.93698C7.13783 3.84347 6.80914 3.65027 6.55127 3.37932C6.2934 3.10838 6.11667 2.77055 6.04117 2.4042C5.96567 2.03785 5.99441 1.65768 6.12414 1.30685C6.25386 0.956018 6.47937 0.648599 6.77505 0.419506C7.07073 0.190413 7.42473 0.0488289 7.79684 0.0108341C8.16896 -0.0271606 8.54426 0.0399571 8.88014 0.204564C9.21602 0.369171 9.49901 0.62467 9.69696 0.942041C9.89492 1.25941 9.99991 1.62594 10 1.99998Z"/><path d="M1.513e-10 9.66497V11.382C9.91488e-05 11.5676 0.0518831 11.7496 0.149552 11.9075C0.247222 12.0654 0.386919 12.193 0.553 12.276L7.106 15.553C7.3836 15.6917 7.68967 15.7639 8 15.7639C8.31033 15.7639 8.6164 15.6917 8.894 15.553L15.447 12.276C15.6131 12.193 15.7528 12.0654 15.8504 11.9075C15.9481 11.7496 15.9999 11.5676 16 11.382V9.66497C16 9.56497 15.94 9.47497 15.848 9.43497L9.5 6.71497V7.70797L14.727 9.88597C14.7496 9.89547 14.7689 9.91141 14.7825 9.9318C14.7961 9.95219 14.8034 9.97613 14.8035 10.0006C14.8036 10.0251 14.7965 10.0491 14.7831 10.0697C14.7697 10.0902 14.7505 10.1063 14.728 10.116L8.788 12.662C8.539 12.7687 8.27091 12.8237 8 12.8237C7.72909 12.8237 7.461 12.7687 7.212 12.662L1.272 10.116C1.24949 10.1063 1.23033 10.0902 1.21691 10.0697C1.20348 10.0491 1.19638 10.0251 1.19649 10.0006C1.19659 9.97613 1.2039 9.95219 1.21751 9.9318C1.23111 9.91141 1.25041 9.89547 1.273 9.88597L6.5 7.70797L6.487 6.71997L0.152 9.43497C0.106906 9.45418 0.0684562 9.48623 0.0414311 9.52712C0.0144059 9.56801 -1.70479e-06 9.61595 1.513e-10 9.66497H1.513e-10Z"/></g><defs><clipPath id="clip0_104_2437"><rect width="16" height="16"/></clipPath></defs></svg>