<svg width="16" height="16" viewBox="0 0 16 16" fill="none" xmlns="http://www.w3.org/2000/svg">
<g clip-path="url(#clip0_104_2449)">
<path d="M2.5 0C1.96957 0 1.46086 0.210714 1.08579 0.585786C0.710714 0.960859 0.5 1.46957 0.5 2V14C0.5 14.5304 0.710714 15.0391 1.08579 15.4142C1.46086 15.7893 1.96957 16 2.5 16H13.5C14.0304 16 14.5391 15.7893 14.9142 15.4142C15.2893 15.0391 15.5 14.5304 15.5 14V2C15.5 1.46957 15.2893 0.960859 14.9142 0.585786C14.5391 0.210714 14.0304 0 13.5 0L2.5 0ZM7.5 2H8.5C8.76522 2 9.01957 2.10536 9.20711 2.29289C9.39464 2.48043 9.5 2.73478 9.5 3V6C9.5 6.26522 9.39464 6.51957 9.20711 6.70711C9.01957 6.89464 8.76522 7 8.5 7H7.5C7.23478 7 6.98043 6.89464 6.79289 6.70711C6.60536 6.51957 6.5 6.26522 6.5 6V3C6.5 2.73478 6.60536 2.48043 6.79289 2.29289C6.98043 2.10536 7.23478 2 7.5 2ZM2.5 3C2.5 2.73478 2.60536 2.48043 2.79289 2.29289C2.98043 2.10536 3.23478 2 3.5 2H4.5C4.76522 2 5.01957 2.10536 5.20711 2.29289C5.39464 2.48043 5.5 2.73478 5.5 3V10C5.5 10.2652 5.39464 10.5196 5.20711 10.7071C5.01957 10.8946 4.76522 11 4.5 11H3.5C3.23478 11 2.98043 10.8946 2.79289 10.7071C2.60536 10.5196 2.5 10.2652 2.5 10V3ZM11.5 2H12.5C12.7652 2 13.0196 2.10536 13.2071 2.29289C13.3946 2.48043 13.5 2.73478 13.5 3V13C13.5 13.2652 13.3946 13.5196 13.2071 13.7071C13.0196 13.8946 12.7652 14 12.5 14H11.5C11.2348 14 10.9804 13.8946 10.7929 13.7071C10.6054 13.5196 10.5 13.2652 10.5 13V3C10.5 2.73478 10.6054 2.48043 10.7929 2.29289C10.9804 2.10536 11.2348 2 11.5 2Z" fill="black"/>
</g>
<defs>
<clipPath id="clip0_104_2449">
<rect width="16" height="16" fill="white"/>
</clipPath>
</defs>
</svg>
