<svg width="16" height="16" viewBox="0 0 16 16" fill="none" xmlns="http://www.w3.org/2000/svg">
<path d="M3.50001 11.5C2.87369 11.4999 2.25887 11.3317 1.71971 11.013C1.18054 10.6943 0.736773 10.2367 0.434701 9.68803C0.132629 9.13937 -0.0166805 8.5197 0.00234854 7.89366C0.0213776 7.26763 0.208048 6.65817 0.542886 6.12887C0.877724 5.59956 1.34846 5.16981 1.90599 4.88443C2.46352 4.59905 3.08741 4.46851 3.71259 4.50642C4.33776 4.54433 4.94131 4.74931 5.46027 5.09996C5.97923 5.45062 6.39459 5.93411 6.66301 6.5H14L15.5 8L14 9.5L13 8.5L12 9.5L11 8.5L10 9.5L9.00001 8.5L8.00001 9.5H6.66301C6.3791 10.0985 5.93117 10.6042 5.37126 10.9582C4.81135 11.3123 4.16246 11.5001 3.50001 11.5ZM2.50001 9C2.76523 9 3.01958 8.89464 3.20712 8.70711C3.39465 8.51957 3.50001 8.26522 3.50001 8C3.50001 7.73478 3.39465 7.48043 3.20712 7.29289C3.01958 7.10536 2.76523 7 2.50001 7C2.23479 7 1.98044 7.10536 1.7929 7.29289C1.60537 7.48043 1.50001 7.73478 1.50001 8C1.50001 8.26522 1.60537 8.51957 1.7929 8.70711C1.98044 8.89464 2.23479 9 2.50001 9Z" fill="black"/>
</svg>
