<svg width="16" height="16" viewBox="0 0 16 16" fill="none" xmlns="http://www.w3.org/2000/svg">
<g clip-path="url(#clip0_104_2451)">
<path d="M3.03393e-07 7.99997C-0.000342641 7.11915 0.290063 6.26284 0.826149 5.56394C1.36224 4.86504 2.11402 4.36263 2.96484 4.13468C3.81566 3.90673 4.71793 3.96599 5.53162 4.30326C6.34531 4.64054 7.02493 5.23696 7.465 5.99997H14C14.0657 5.99985 14.1308 6.01269 14.1915 6.03774C14.2523 6.06279 14.3075 6.09957 14.354 6.14597L15.854 7.64597C15.9006 7.69242 15.9375 7.74759 15.9627 7.80834C15.9879 7.86908 16.0009 7.9342 16.0009 7.99997C16.0009 8.06574 15.9879 8.13086 15.9627 8.19161C15.9375 8.25235 15.9006 8.30753 15.854 8.35397L14.354 9.85397C14.3076 9.90054 14.2524 9.93748 14.1916 9.96268C14.1309 9.98789 14.0658 10.0009 14 10.0009C13.9342 10.0009 13.8691 9.98789 13.8084 9.96268C13.7476 9.93748 13.6924 9.90054 13.646 9.85397L13 9.20697L12.354 9.85397C12.3076 9.90054 12.2524 9.93748 12.1916 9.96268C12.1309 9.98789 12.0658 10.0009 12 10.0009C11.9342 10.0009 11.8691 9.98789 11.8084 9.96268C11.7476 9.93748 11.6924 9.90054 11.646 9.85397L11 9.20697L10.354 9.85397C10.3076 9.90054 10.2524 9.93748 10.1916 9.96268C10.1309 9.98789 10.0658 10.0009 10 10.0009C9.93423 10.0009 9.86911 9.98789 9.80837 9.96268C9.74762 9.93748 9.69245 9.90054 9.646 9.85397L9 9.20697L8.354 9.85397C8.30748 9.90037 8.25227 9.93715 8.19153 9.9622C8.13079 9.98726 8.06571 10.0001 8 9.99997H7.465C7.02493 10.763 6.34531 11.3594 5.53162 11.6967C4.71793 12.034 3.81566 12.0932 2.96484 11.8653C2.11402 11.6373 1.36224 11.1349 0.826149 10.436C0.290063 9.7371 -0.000342641 8.8808 3.03393e-07 7.99997ZM4 4.99997C3.46314 5.00018 2.93617 5.14444 2.47407 5.41771C2.01197 5.69099 1.63166 6.08326 1.37283 6.5536C1.114 7.02395 0.98612 7.55513 1.00254 8.09174C1.01896 8.62835 1.17908 9.15072 1.46619 9.60435C1.7533 10.058 2.15688 10.4263 2.63483 10.6708C3.11278 10.9153 3.64758 11.0271 4.18345 10.9944C4.71932 10.9618 5.23661 10.786 5.68137 10.4853C6.12612 10.1846 6.48205 9.77009 6.712 9.28497C6.7526 9.19973 6.8165 9.12773 6.89631 9.07729C6.97613 9.02686 7.06859 9.00005 7.163 8.99997H7.793L8.646 8.14597C8.69245 8.09941 8.74762 8.06247 8.80837 8.03726C8.86911 8.01205 8.93423 7.99908 9 7.99908C9.06577 7.99908 9.13089 8.01205 9.19163 8.03726C9.25238 8.06247 9.30755 8.09941 9.354 8.14597L10 8.79297L10.646 8.14597C10.6924 8.09941 10.7476 8.06247 10.8084 8.03726C10.8691 8.01205 10.9342 7.99908 11 7.99908C11.0658 7.99908 11.1309 8.01205 11.1916 8.03726C11.2524 8.06247 11.3076 8.09941 11.354 8.14597L12 8.79297L12.646 8.14597C12.6924 8.09941 12.7476 8.06247 12.8084 8.03726C12.8691 8.01205 12.9342 7.99908 13 7.99908C13.0658 7.99908 13.1309 8.01205 13.1916 8.03726C13.2524 8.06247 13.3076 8.09941 13.354 8.14597L14 8.79297L14.793 7.99997L13.793 6.99997H7.163C7.06859 6.99989 6.97613 6.97309 6.89631 6.92265C6.8165 6.87221 6.7526 6.80021 6.712 6.71497C6.46869 6.20168 6.08466 5.76802 5.60456 5.46442C5.12446 5.16082 4.56804 4.99976 4 4.99997Z" fill="black"/>
<path d="M4 8C4 8.26522 3.89464 8.51957 3.70711 8.70711C3.51957 8.89464 3.26522 9 3 9C2.73478 9 2.48043 8.89464 2.29289 8.70711C2.10536 8.51957 2 8.26522 2 8C2 7.73478 2.10536 7.48043 2.29289 7.29289C2.48043 7.10536 2.73478 7 3 7C3.26522 7 3.51957 7.10536 3.70711 7.29289C3.89464 7.48043 4 7.73478 4 8Z" fill="black"/>
</g>
<defs>
<clipPath id="clip0_104_2451">
<rect width="16" height="16" fill="white"/>
</clipPath>
</defs>
</svg>
