<svg width="16" height="16" viewBox="0 0 16 16" xmlns="http://www.w3.org/2000/svg" fill='currentColor'><path d="M0 6C0 5.46957 0.210714 4.96086 0.585786 4.58579C0.960859 4.21071 1.46957 4 2 4H14C14.5304 4 15.0391 4.21071 15.4142 4.58579C15.7893 4.96086 16 5.46957 16 6V11C16 11.5304 15.7893 12.0391 15.4142 12.4142C15.0391 12.7893 14.5304 13 14 13H2C1.46957 13 0.960859 12.7893 0.585786 12.4142C0.210714 12.0391 0 11.5304 0 11V6ZM13 6.25V6.75C13 6.888 13.112 7 13.25 7H13.75C13.8163 7 13.8799 6.97366 13.9268 6.92678C13.9737 6.87989 14 6.8163 14 6.75V6.25C14 6.1837 13.9737 6.12011 13.9268 6.07322C13.8799 6.02634 13.8163 6 13.75 6H13.25C13.1837 6 13.1201 6.02634 13.0732 6.07322C13.0263 6.12011 13 6.1837 13 6.25ZM2.25 8C2.1837 8 2.12011 8.02634 2.07322 8.07322C2.02634 8.12011 2 8.1837 2 8.25V8.75C2 8.888 2.112 9 2.25 9H2.75C2.8163 9 2.87989 8.97366 2.92678 8.92678C2.97366 8.87989 3 8.8163 3 8.75V8.25C3 8.1837 2.97366 8.12011 2.92678 8.07322C2.87989 8.02634 2.8163 8 2.75 8H2.25ZM4 8.25V8.75C4 8.888 4.112 9 4.25 9H4.75C4.8163 9 4.87989 8.97366 4.92678 8.92678C4.97366 8.87989 5 8.8163 5 8.75V8.25C5 8.1837 4.97366 8.12011 4.92678 8.07322C4.87989 8.02634 4.8163 8 4.75 8H4.25C4.1837 8 4.12011 8.02634 4.07322 8.07322C4.02634 8.12011 4 8.1837 4 8.25ZM6.25 8C6.1837 8 6.12011 8.02634 6.07322 8.07322C6.02634 8.12011 6 8.1837 6 8.25V8.75C6 8.888 6.112 9 6.25 9H6.75C6.8163 9 6.87989 8.97366 6.92678 8.92678C6.97366 8.87989 7 8.8163 7 8.75V8.25C7 8.1837 6.97366 8.12011 6.92678 8.07322C6.87989 8.02634 6.8163 8 6.75 8H6.25ZM8 8.25V8.75C8 8.888 8.112 9 8.25 9H8.75C8.8163 9 8.87989 8.97366 8.92678 8.92678C8.97366 8.87989 9 8.8163 9 8.75V8.25C9 8.1837 8.97366 8.12011 8.92678 8.07322C8.87989 8.02634 8.8163 8 8.75 8H8.25C8.1837 8 8.12011 8.02634 8.07322 8.07322C8.02634 8.12011 8 8.1837 8 8.25ZM13.25 8C13.1837 8 13.1201 8.02634 13.0732 8.07322C13.0263 8.12011 13 8.1837 13 8.25V8.75C13 8.888 13.112 9 13.25 9H13.75C13.8163 9 13.8799 8.97366 13.9268 8.92678C13.9737 8.87989 14 8.8163 14 8.75V8.25C14 8.1837 13.9737 8.12011 13.9268 8.07322C13.8799 8.02634 13.8163 8 13.75 8H13.25ZM13.25 10C13.1837 10 13.1201 10.0263 13.0732 10.0732C13.0263 10.1201 13 10.1837 13 10.25V10.75C13 10.888 13.112 11 13.25 11H13.75C13.8163 11 13.8799 10.9737 13.9268 10.9268C13.9737 10.8799 14 10.8163 14 10.75V10.25C14 10.1837 13.9737 10.1201 13.9268 10.0732C13.8799 10.0263 13.8163 10 13.75 10H13.25ZM10.25 8C10.1837 8 10.1201 8.02634 10.0732 8.07322C10.0263 8.12011 10 8.1837 10 8.25V8.75C10 8.888 10.112 9 10.25 9H11.75C11.8163 9 11.8799 8.97366 11.9268 8.92678C11.9737 8.87989 12 8.8163 12 8.75V8.25C12 8.1837 11.9737 8.12011 11.9268 8.07322C11.8799 8.02634 11.8163 8 11.75 8H10.25ZM11 10.25V10.75C11 10.888 11.112 11 11.25 11H11.75C11.8163 11 11.8799 10.9737 11.9268 10.9268C11.9737 10.8799 12 10.8163 12 10.75V10.25C12 10.1837 11.9737 10.1201 11.9268 10.0732C11.8799 10.0263 11.8163 10 11.75 10H11.25C11.1837 10 11.1201 10.0263 11.0732 10.0732C11.0263 10.1201 11 10.1837 11 10.25ZM11.25 6C11.1837 6 11.1201 6.02634 11.0732 6.07322C11.0263 6.12011 11 6.1837 11 6.25V6.75C11 6.888 11.112 7 11.25 7H11.75C11.8163 7 11.8799 6.97366 11.9268 6.92678C11.9737 6.87989 12 6.8163 12 6.75V6.25C12 6.1837 11.9737 6.12011 11.9268 6.07322C11.8799 6.02634 11.8163 6 11.75 6H11.25ZM9 6.25V6.75C9 6.888 9.112 7 9.25 7H9.75C9.8163 7 9.87989 6.97366 9.92678 6.92678C9.97366 6.87989 10 6.8163 10 6.75V6.25C10 6.1837 9.97366 6.12011 9.92678 6.07322C9.87989 6.02634 9.8163 6 9.75 6H9.25C9.1837 6 9.12011 6.02634 9.07322 6.07322C9.02634 6.12011 9 6.1837 9 6.25ZM7.25 6C7.1837 6 7.12011 6.02634 7.07322 6.07322C7.02634 6.12011 7 6.1837 7 6.25V6.75C7 6.888 7.112 7 7.25 7H7.75C7.8163 7 7.87989 6.97366 7.92678 6.92678C7.97366 6.87989 8 6.8163 8 6.75V6.25C8 6.1837 7.97366 6.12011 7.92678 6.07322C7.87989 6.02634 7.8163 6 7.75 6H7.25ZM5 6.25V6.75C5 6.888 5.112 7 5.25 7H5.75C5.8163 7 5.87989 6.97366 5.92678 6.92678C5.97366 6.87989 6 6.8163 6 6.75V6.25C6 6.1837 5.97366 6.12011 5.92678 6.07322C5.87989 6.02634 5.8163 6 5.75 6H5.25C5.1837 6 5.12011 6.02634 5.07322 6.07322C5.02634 6.12011 5 6.1837 5 6.25ZM2.25 6C2.1837 6 2.12011 6.02634 2.07322 6.07322C2.02634 6.12011 2 6.1837 2 6.25V6.75C2 6.888 2.112 7 2.25 7H3.75C3.8163 7 3.87989 6.97366 3.92678 6.92678C3.97366 6.87989 4 6.8163 4 6.75V6.25C4 6.1837 3.97366 6.12011 3.92678 6.07322C3.87989 6.02634 3.8163 6 3.75 6H2.25ZM2 10.25V10.75C2 10.888 2.112 11 2.25 11H2.75C2.8163 11 2.87989 10.9737 2.92678 10.9268C2.97366 10.8799 3 10.8163 3 10.75V10.25C3 10.1837 2.97366 10.1201 2.92678 10.0732C2.87989 10.0263 2.8163 10 2.75 10H2.25C2.1837 10 2.12011 10.0263 2.07322 10.0732C2.02634 10.1201 2 10.1837 2 10.25ZM4.25 10C4.1837 10 4.12011 10.0263 4.07322 10.0732C4.02634 10.1201 4 10.1837 4 10.25V10.75C4 10.888 4.112 11 4.25 11H9.75C9.8163 11 9.87989 10.9737 9.92678 10.9268C9.97366 10.8799 10 10.8163 10 10.75V10.25C10 10.1837 9.97366 10.1201 9.92678 10.0732C9.87989 10.0263 9.8163 10 9.75 10H4.25Z"/></svg>