<svg width="16" height="16" viewBox="0 0 16 16" xmlns="http://www.w3.org/2000/svg" fill='currentColor'><g clip-path="url(#clip0_104_2454)"><path d="M14 5C14.2652 5 14.5196 5.10536 14.7071 5.29289C14.8946 5.48043 15 5.73478 15 6V11C15 11.2652 14.8946 11.5196 14.7071 11.7071C14.5196 11.8946 14.2652 12 14 12H2C1.73478 12 1.48043 11.8946 1.29289 11.7071C1.10536 11.5196 1 11.2652 1 11V6C1 5.73478 1.10536 5.48043 1.29289 5.29289C1.48043 5.10536 1.73478 5 2 5H14ZM2 4C1.46957 4 0.960859 4.21071 0.585786 4.58579C0.210714 4.96086 0 5.46957 0 6L0 11C0 11.5304 0.210714 12.0391 0.585786 12.4142C0.960859 12.7893 1.46957 13 2 13H14C14.5304 13 15.0391 12.7893 15.4142 12.4142C15.7893 12.0391 16 11.5304 16 11V6C16 5.46957 15.7893 4.96086 15.4142 4.58579C15.0391 4.21071 14.5304 4 14 4H2Z"/><path d="M13 10.25C13 10.1837 13.0263 10.1201 13.0732 10.0732C13.1201 10.0263 13.1837 10 13.25 10H13.75C13.8163 10 13.8799 10.0263 13.9268 10.0732C13.9737 10.1201 14 10.1837 14 10.25V10.75C14 10.8163 13.9737 10.8799 13.9268 10.9268C13.8799 10.9737 13.8163 11 13.75 11H13.25C13.1837 11 13.1201 10.9737 13.0732 10.9268C13.0263 10.8799 13 10.8163 13 10.75V10.25ZM13 8.25C13 8.1837 13.0263 8.12011 13.0732 8.07322C13.1201 8.02634 13.1837 8 13.25 8H13.75C13.8163 8 13.8799 8.02634 13.9268 8.07322C13.9737 8.12011 14 8.1837 14 8.25V8.75C14 8.8163 13.9737 8.87989 13.9268 8.92678C13.8799 8.97366 13.8163 9 13.75 9H13.25C13.1837 9 13.1201 8.97366 13.0732 8.92678C13.0263 8.87989 13 8.8163 13 8.75V8.25ZM8 8.25C8 8.1837 8.02634 8.12011 8.07322 8.07322C8.12011 8.02634 8.1837 8 8.25 8H8.75C8.8163 8 8.87989 8.02634 8.92678 8.07322C8.97366 8.12011 9 8.1837 9 8.25V8.75C9 8.8163 8.97366 8.87989 8.92678 8.92678C8.87989 8.97366 8.8163 9 8.75 9H8.25C8.1837 9 8.12011 8.97366 8.07322 8.92678C8.02634 8.87989 8 8.8163 8 8.75V8.25ZM10 8.25C10 8.1837 10.0263 8.12011 10.0732 8.07322C10.1201 8.02634 10.1837 8 10.25 8H11.75C11.8163 8 11.8799 8.02634 11.9268 8.07322C11.9737 8.12011 12 8.1837 12 8.25V8.75C12 8.8163 11.9737 8.87989 11.9268 8.92678C11.8799 8.97366 11.8163 9 11.75 9H10.25C10.1837 9 10.1201 8.97366 10.0732 8.92678C10.0263 8.87989 10 8.8163 10 8.75V8.25ZM11 10.25C11 10.1837 11.0263 10.1201 11.0732 10.0732C11.1201 10.0263 11.1837 10 11.25 10H11.75C11.8163 10 11.8799 10.0263 11.9268 10.0732C11.9737 10.1201 12 10.1837 12 10.25V10.75C12 10.8163 11.9737 10.8799 11.9268 10.9268C11.8799 10.9737 11.8163 11 11.75 11H11.25C11.1837 11 11.1201 10.9737 11.0732 10.9268C11.0263 10.8799 11 10.8163 11 10.75V10.25ZM6 8.25C6 8.1837 6.02634 8.12011 6.07322 8.07322C6.12011 8.02634 6.1837 8 6.25 8H6.75C6.8163 8 6.87989 8.02634 6.92678 8.07322C6.97366 8.12011 7 8.1837 7 8.25V8.75C7 8.8163 6.97366 8.87989 6.92678 8.92678C6.87989 8.97366 6.8163 9 6.75 9H6.25C6.1837 9 6.12011 8.97366 6.07322 8.92678C6.02634 8.87989 6 8.8163 6 8.75V8.25ZM4 8.25C4 8.1837 4.02634 8.12011 4.07322 8.07322C4.12011 8.02634 4.1837 8 4.25 8H4.75C4.8163 8 4.87989 8.02634 4.92678 8.07322C4.97366 8.12011 5 8.1837 5 8.25V8.75C5 8.8163 4.97366 8.87989 4.92678 8.92678C4.87989 8.97366 4.8163 9 4.75 9H4.25C4.1837 9 4.12011 8.97366 4.07322 8.92678C4.02634 8.87989 4 8.8163 4 8.75V8.25ZM2 8.25C2 8.1837 2.02634 8.12011 2.07322 8.07322C2.12011 8.02634 2.1837 8 2.25 8H2.75C2.8163 8 2.87989 8.02634 2.92678 8.07322C2.97366 8.12011 3 8.1837 3 8.25V8.75C3 8.8163 2.97366 8.87989 2.92678 8.92678C2.87989 8.97366 2.8163 9 2.75 9H2.25C2.1837 9 2.12011 8.97366 2.07322 8.92678C2.02634 8.87989 2 8.8163 2 8.75V8.25ZM13 6.25C13 6.1837 13.0263 6.12011 13.0732 6.07322C13.1201 6.02634 13.1837 6 13.25 6H13.75C13.8163 6 13.8799 6.02634 13.9268 6.07322C13.9737 6.12011 14 6.1837 14 6.25V6.75C14 6.8163 13.9737 6.87989 13.9268 6.92678C13.8799 6.97366 13.8163 7 13.75 7H13.25C13.1837 7 13.1201 6.97366 13.0732 6.92678C13.0263 6.87989 13 6.8163 13 6.75V6.25ZM11 6.25C11 6.1837 11.0263 6.12011 11.0732 6.07322C11.1201 6.02634 11.1837 6 11.25 6H11.75C11.8163 6 11.8799 6.02634 11.9268 6.07322C11.9737 6.12011 12 6.1837 12 6.25V6.75C12 6.8163 11.9737 6.87989 11.9268 6.92678C11.8799 6.97366 11.8163 7 11.75 7H11.25C11.1837 7 11.1201 6.97366 11.0732 6.92678C11.0263 6.87989 11 6.8163 11 6.75V6.25ZM9 6.25C9 6.1837 9.02634 6.12011 9.07322 6.07322C9.12011 6.02634 9.1837 6 9.25 6H9.75C9.8163 6 9.87989 6.02634 9.92678 6.07322C9.97366 6.12011 10 6.1837 10 6.25V6.75C10 6.8163 9.97366 6.87989 9.92678 6.92678C9.87989 6.97366 9.8163 7 9.75 7H9.25C9.1837 7 9.12011 6.97366 9.07322 6.92678C9.02634 6.87989 9 6.8163 9 6.75V6.25ZM7 6.25C7 6.1837 7.02634 6.12011 7.07322 6.07322C7.12011 6.02634 7.1837 6 7.25 6H7.75C7.8163 6 7.87989 6.02634 7.92678 6.07322C7.97366 6.12011 8 6.1837 8 6.25V6.75C8 6.8163 7.97366 6.87989 7.92678 6.92678C7.87989 6.97366 7.8163 7 7.75 7H7.25C7.1837 7 7.12011 6.97366 7.07322 6.92678C7.02634 6.87989 7 6.8163 7 6.75V6.25ZM5 6.25C5 6.1837 5.02634 6.12011 5.07322 6.07322C5.12011 6.02634 5.1837 6 5.25 6H5.75C5.8163 6 5.87989 6.02634 5.92678 6.07322C5.97366 6.12011 6 6.1837 6 6.25V6.75C6 6.8163 5.97366 6.87989 5.92678 6.92678C5.87989 6.97366 5.8163 7 5.75 7H5.25C5.1837 7 5.12011 6.97366 5.07322 6.92678C5.02634 6.87989 5 6.8163 5 6.75V6.25ZM2 6.25C2 6.1837 2.02634 6.12011 2.07322 6.07322C2.12011 6.02634 2.1837 6 2.25 6H3.75C3.8163 6 3.87989 6.02634 3.92678 6.07322C3.97366 6.12011 4 6.1837 4 6.25V6.75C4 6.8163 3.97366 6.87989 3.92678 6.92678C3.87989 6.97366 3.8163 7 3.75 7H2.25C2.1837 7 2.12011 6.97366 2.07322 6.92678C2.02634 6.87989 2 6.8163 2 6.75V6.25ZM2 10.25C2 10.1837 2.02634 10.1201 2.07322 10.0732C2.12011 10.0263 2.1837 10 2.25 10H2.75C2.8163 10 2.87989 10.0263 2.92678 10.0732C2.97366 10.1201 3 10.1837 3 10.25V10.75C3 10.8163 2.97366 10.8799 2.92678 10.9268C2.87989 10.9737 2.8163 11 2.75 11H2.25C2.1837 11 2.12011 10.9737 2.07322 10.9268C2.02634 10.8799 2 10.8163 2 10.75V10.25ZM4 10.25C4 10.1837 4.02634 10.1201 4.07322 10.0732C4.12011 10.0263 4.1837 10 4.25 10H9.75C9.8163 10 9.87989 10.0263 9.92678 10.0732C9.97366 10.1201 10 10.1837 10 10.25V10.75C10 10.8163 9.97366 10.8799 9.92678 10.9268C9.87989 10.9737 9.8163 11 9.75 11H4.25C4.1837 11 4.12011 10.9737 4.07322 10.9268C4.02634 10.8799 4 10.8163 4 10.75V10.25Z"/></g><defs><clipPath id="clip0_104_2454"><rect width="16" height="16"/></clipPath></defs></svg>