<svg width="16" height="16" viewBox="0 0 16 16" xmlns="http://www.w3.org/2000/svg" fill='currentColor'><path d="M4.5 1C4.63261 1 4.75979 1.05268 4.85355 1.14645C4.94732 1.24021 5 1.36739 5 1.5V2H11V1.5C11 1.36739 11.0527 1.24021 11.1464 1.14645C11.2402 1.05268 11.3674 1 11.5 1C11.6326 1 11.7598 1.05268 11.8536 1.14645C11.9473 1.24021 12 1.36739 12 1.5V15.5C12 15.6326 11.9473 15.7598 11.8536 15.8536C11.7598 15.9473 11.6326 16 11.5 16C11.3674 16 11.2402 15.9473 11.1464 15.8536C11.0527 15.7598 11 15.6326 11 15.5V15H5V15.5C5 15.6326 4.94732 15.7598 4.85355 15.8536C4.75979 15.9473 4.63261 16 4.5 16C4.36739 16 4.24021 15.9473 4.14645 15.8536C4.05268 15.7598 4 15.6326 4 15.5V1.5C4 1.36739 4.05268 1.24021 4.14645 1.14645C4.24021 1.05268 4.36739 1 4.5 1ZM5 14H11V12H5V14ZM5 11H11V9H5V11ZM5 8H11V6H5V8ZM5 5H11V3H5V5Z"/></svg>