<svg width="16" height="16" viewBox="0 0 16 16" fill="none" xmlns="http://www.w3.org/2000/svg">
<g clip-path="url(#clip0_104_2484)">
<path d="M8.23499 1.55903C8.16265 1.52051 8.08195 1.50037 7.99999 1.50037C7.91804 1.50037 7.83734 1.52051 7.76499 1.55903L0.264994 5.55903C0.185121 5.60171 0.118338 5.66528 0.0717757 5.74295C0.0252129 5.82062 0.00061853 5.90947 0.00061853 6.00003C0.00061853 6.09059 0.0252129 6.17945 0.0717757 6.25712C0.118338 6.33479 0.185121 6.39836 0.264994 6.44103L3.18799 8.00003L0.263994 9.55903C0.184121 9.60171 0.117338 9.66528 0.0707757 9.74295C0.0242129 9.82062 -0.00038147 9.90948 -0.00038147 10C-0.00038147 10.0906 0.0242129 10.1794 0.0707757 10.2571C0.117338 10.3348 0.184121 10.3984 0.263994 10.441L7.76399 14.441C7.83634 14.4796 7.91704 14.4997 7.99899 14.4997C8.08095 14.4997 8.16165 14.4796 8.23399 14.441L15.734 10.441C15.8139 10.3984 15.8806 10.3348 15.9272 10.2571C15.9738 10.1794 15.9984 10.0906 15.9984 10C15.9984 9.90948 15.9738 9.82062 15.9272 9.74295C15.8806 9.66528 15.8139 9.60171 15.734 9.55903L12.813 8.00003L15.735 6.44103C15.8149 6.39836 15.8816 6.33479 15.9282 6.25712C15.9748 6.17945 15.9994 6.09059 15.9994 6.00003C15.9994 5.90947 15.9748 5.82062 15.9282 5.74295C15.8816 5.66528 15.8149 5.60171 15.735 5.55903L8.23499 1.55903ZM7.99999 9.43303L1.56199 6.00003L7.99999 2.56703L14.438 6.00003L7.99999 9.43303Z" fill="black"/>
</g>
<defs>
<clipPath id="clip0_104_2484">
<rect width="16" height="16" fill="white"/>
</clipPath>
</defs>
</svg>
