<svg width="16" height="16" viewBox="0 0 16 16" xmlns="http://www.w3.org/2000/svg" fill='currentColor'><g clip-path="url(#clip0_104_2473)"><path d="M8.354 15.854C8.30755 15.9006 8.25238 15.9375 8.19163 15.9627C8.13089 15.9879 8.06577 16.0009 8 16.0009C7.93423 16.0009 7.86911 15.9879 7.80837 15.9627C7.74762 15.9375 7.69245 15.9006 7.646 15.854L4.646 12.854C4.59944 12.8076 4.56249 12.7524 4.53729 12.6916C4.51208 12.6309 4.49911 12.5658 4.49911 12.5C4.49911 12.4342 4.51208 12.3691 4.53729 12.3084C4.56249 12.2476 4.59944 12.1924 4.646 12.146L5.646 11.146C5.69245 11.0994 5.74762 11.0625 5.80837 11.0373C5.86911 11.0121 5.93423 10.9991 6 10.9991C6.06577 10.9991 6.13089 11.0121 6.19163 11.0373C6.25238 11.0625 6.30755 11.0994 6.354 11.146L7 11.793V4H1C0.734784 4 0.48043 3.89464 0.292893 3.70711C0.105357 3.51957 0 3.26522 0 3V1C0 0.734784 0.105357 0.48043 0.292893 0.292893C0.48043 0.105357 0.734784 0 1 0L15 0C15.2652 0 15.5196 0.105357 15.7071 0.292893C15.8946 0.48043 16 0.734784 16 1V3C16 3.26522 15.8946 3.51957 15.7071 3.70711C15.5196 3.89464 15.2652 4 15 4H9V11.793L9.646 11.146C9.69245 11.0994 9.74762 11.0625 9.80837 11.0373C9.86911 11.0121 9.93423 10.9991 10 10.9991C10.0658 10.9991 10.1309 11.0121 10.1916 11.0373C10.2524 11.0625 10.3076 11.0994 10.354 11.146L11.354 12.146C11.4006 12.1924 11.4375 12.2476 11.4627 12.3084C11.4879 12.3691 11.5009 12.4342 11.5009 12.5C11.5009 12.5658 11.4879 12.6309 11.4627 12.6916C11.4375 12.7524 11.4006 12.8076 11.354 12.854L8.354 15.854Z"/><path d="M1 9C0.734784 9 0.48043 8.89464 0.292893 8.70711C0.105357 8.51957 0 8.26522 0 8V6C0 5.73478 0.105357 5.48043 0.292893 5.29289C0.48043 5.10536 0.734784 5 1 5H5.5C5.63261 5 5.75979 5.05268 5.85355 5.14645C5.94732 5.24021 6 5.36739 6 5.5C6 5.63261 5.94732 5.75979 5.85355 5.85355C5.75979 5.94732 5.63261 6 5.5 6H1V8H5.5C5.63261 8 5.75979 8.05268 5.85355 8.14645C5.94732 8.24021 6 8.36739 6 8.5C6 8.63261 5.94732 8.75979 5.85355 8.85355C5.75979 8.94732 5.63261 9 5.5 9H1ZM10.5 9C10.3674 9 10.2402 8.94732 10.1464 8.85355C10.0527 8.75979 10 8.63261 10 8.5C10 8.36739 10.0527 8.24021 10.1464 8.14645C10.2402 8.05268 10.3674 8 10.5 8H15V6H10.5C10.3674 6 10.2402 5.94732 10.1464 5.85355C10.0527 5.75979 10 5.63261 10 5.5C10 5.36739 10.0527 5.24021 10.1464 5.14645C10.2402 5.05268 10.3674 5 10.5 5H15C15.2652 5 15.5196 5.10536 15.7071 5.29289C15.8946 5.48043 16 5.73478 16 6V8C16 8.26522 15.8946 8.51957 15.7071 8.70711C15.5196 8.89464 15.2652 9 15 9H10.5Z"/></g><defs><clipPath id="clip0_104_2473"><rect width="16" height="16"/></clipPath></defs></svg>