<svg width="16" height="16" viewBox="0 0 16 16" fill="none" xmlns="http://www.w3.org/2000/svg">
<path d="M7.765 1.55903C7.83734 1.52051 7.91804 1.50037 8 1.50037C8.08196 1.50037 8.16266 1.52051 8.235 1.55903L15.735 5.55903C15.8149 5.60171 15.8817 5.66528 15.9282 5.74295C15.9748 5.82062 15.9994 5.90947 15.9994 6.00003C15.9994 6.09059 15.9748 6.17945 15.9282 6.25712C15.8817 6.33479 15.8149 6.39836 15.735 6.44103L8.235 10.441C8.16266 10.4796 8.08196 10.4997 8 10.4997C7.91804 10.4997 7.83734 10.4796 7.765 10.441L0.265001 6.44103C0.185128 6.39836 0.118346 6.33479 0.0717828 6.25712C0.02522 6.17945 0.00062561 6.09059 0.00062561 6.00003C0.00062561 5.90947 0.02522 5.82062 0.0717828 5.74295C0.118346 5.66528 0.185128 5.60171 0.265001 5.55903L7.765 1.55903Z" fill="black"/>
<path d="M2.125 8.56702L0.265001 9.55902C0.185128 9.60169 0.118346 9.66526 0.0717828 9.74293C0.02522 9.8206 0.00062561 9.90946 0.00062561 10C0.00062561 10.0906 0.02522 10.1794 0.0717828 10.2571C0.118346 10.3348 0.185128 10.3983 0.265001 10.441L7.765 14.441C7.83734 14.4795 7.91804 14.4997 8 14.4997C8.08196 14.4997 8.16266 14.4795 8.235 14.441L15.735 10.441C15.8149 10.3983 15.8817 10.3348 15.9282 10.2571C15.9748 10.1794 15.9994 10.0906 15.9994 10C15.9994 9.90946 15.9748 9.8206 15.9282 9.74293C15.8817 9.66526 15.8149 9.60169 15.735 9.55902L13.875 8.56702L8.705 11.323C8.48798 11.4386 8.24587 11.499 8 11.499C7.75413 11.499 7.51202 11.4386 7.295 11.323L2.125 8.56702Z" fill="black"/>
</svg>
