<svg width="16" height="16" viewBox="0 0 16 16" xmlns="http://www.w3.org/2000/svg" fill='currentColor'><g clip-path="url(#clip0_104_2479)"><path d="M8.235 1.55903C8.16266 1.52051 8.08196 1.50037 8 1.50037C7.91804 1.50037 7.83734 1.52051 7.765 1.55903L0.265001 5.55903C0.185129 5.60171 0.118346 5.66528 0.0717833 5.74295C0.0252205 5.82062 0.00062616 5.90947 0.00062616 6.00003C0.00062616 6.09059 0.0252205 6.17945 0.0717833 6.25712C0.118346 6.33479 0.185129 6.39836 0.265001 6.44103L3.188 8.00003L0.264001 9.55903C0.184129 9.60171 0.117346 9.66528 0.0707833 9.74295C0.0242205 9.82062 -0.00037384 9.90948 -0.00037384 10C-0.00037384 10.0906 0.0242205 10.1794 0.0707833 10.2571C0.117346 10.3348 0.184129 10.3984 0.264001 10.441L7.764 14.441C7.83634 14.4796 7.91704 14.4997 7.999 14.4997C8.08096 14.4997 8.16166 14.4796 8.234 14.441L15.734 10.441C15.8139 10.3984 15.8807 10.3348 15.9272 10.2571C15.9738 10.1794 15.9984 10.0906 15.9984 10C15.9984 9.90948 15.9738 9.82062 15.9272 9.74295C15.8807 9.66528 15.8139 9.60171 15.734 9.55903L12.813 8.00003L15.735 6.44103C15.8149 6.39836 15.8817 6.33479 15.9282 6.25712C15.9748 6.17945 15.9994 6.09059 15.9994 6.00003C15.9994 5.90947 15.9748 5.82062 15.9282 5.74295C15.8817 5.66528 15.8149 5.60171 15.735 5.55903L8.235 1.55903ZM11.75 8.56703L14.438 10L8 13.433L1.562 10L4.25 8.56703L7.765 10.441C7.83734 10.4796 7.91804 10.4997 8 10.4997C8.08196 10.4997 8.16266 10.4796 8.235 10.441L11.75 8.56703ZM8 9.43303L1.562 6.00003L8 2.56703L14.438 6.00003L8 9.43303Z"/></g><defs><clipPath id="clip0_104_2479"><rect width="16" height="16"/></clipPath></defs></svg>