<svg width="16" height="16" viewBox="0 0 16 16" fill="none" xmlns="http://www.w3.org/2000/svg">
<g clip-path="url(#clip0_104_2476)">
<path d="M8.354 0.146039C8.30755 0.0994761 8.25238 0.0625332 8.19163 0.0373268C8.13089 0.0121203 8.06577 -0.000854492 8 -0.000854492C7.93423 -0.000854492 7.86911 0.0121203 7.80837 0.0373268C7.74762 0.0625332 7.69245 0.0994761 7.646 0.146039L4.646 3.14604C4.59944 3.19248 4.56249 3.24766 4.53729 3.30841C4.51208 3.36915 4.49911 3.43427 4.49911 3.50004C4.49911 3.56581 4.51208 3.63093 4.53729 3.69167C4.56249 3.75242 4.59944 3.80759 4.646 3.85404L5.646 4.85404C5.69245 4.9006 5.74762 4.93755 5.80837 4.96275C5.86911 4.98796 5.93423 5.00093 6 5.00093C6.06577 5.00093 6.13089 4.98796 6.19163 4.96275C6.25238 4.93755 6.30755 4.9006 6.354 4.85404L7 4.20704V12H1C0.734784 12 0.48043 12.1054 0.292893 12.2929C0.105357 12.4805 0 12.7348 0 13L0 15C0 15.2653 0.105357 15.5196 0.292893 15.7071C0.48043 15.8947 0.734784 16 1 16H15C15.2652 16 15.5196 15.8947 15.7071 15.7071C15.8946 15.5196 16 15.2653 16 15V13C16 12.7348 15.8946 12.4805 15.7071 12.2929C15.5196 12.1054 15.2652 12 15 12H9V4.20704L9.646 4.85404C9.69245 4.9006 9.74762 4.93755 9.80837 4.96275C9.86911 4.98796 9.93423 5.00093 10 5.00093C10.0658 5.00093 10.1309 4.98796 10.1916 4.96275C10.2524 4.93755 10.3076 4.9006 10.354 4.85404L11.354 3.85404C11.4006 3.80759 11.4375 3.75242 11.4627 3.69167C11.4879 3.63093 11.5009 3.56581 11.5009 3.50004C11.5009 3.43427 11.4879 3.36915 11.4627 3.30841C11.4375 3.24766 11.4006 3.19248 11.354 3.14604L8.354 0.146039Z" fill="black"/>
<path d="M1 7C0.734784 7 0.48043 7.10536 0.292893 7.29289C0.105357 7.48043 0 7.73478 0 8L0 10C0 10.2652 0.105357 10.5196 0.292893 10.7071C0.48043 10.8946 0.734784 11 1 11H5.5C5.63261 11 5.75979 10.9473 5.85355 10.8536C5.94732 10.7598 6 10.6326 6 10.5C6 10.3674 5.94732 10.2402 5.85355 10.1464C5.75979 10.0527 5.63261 10 5.5 10H1V8H5.5C5.63261 8 5.75979 7.94732 5.85355 7.85355C5.94732 7.75979 6 7.63261 6 7.5C6 7.36739 5.94732 7.24021 5.85355 7.14645C5.75979 7.05268 5.63261 7 5.5 7H1ZM10.5 7C10.3674 7 10.2402 7.05268 10.1464 7.14645C10.0527 7.24021 10 7.36739 10 7.5C10 7.63261 10.0527 7.75979 10.1464 7.85355C10.2402 7.94732 10.3674 8 10.5 8H15V10H10.5C10.3674 10 10.2402 10.0527 10.1464 10.1464C10.0527 10.2402 10 10.3674 10 10.5C10 10.6326 10.0527 10.7598 10.1464 10.8536C10.2402 10.9473 10.3674 11 10.5 11H15C15.2652 11 15.5196 10.8946 15.7071 10.7071C15.8946 10.5196 16 10.2652 16 10V8C16 7.73478 15.8946 7.48043 15.7071 7.29289C15.5196 7.10536 15.2652 7 15 7H10.5Z" fill="black"/>
</g>
<defs>
<clipPath id="clip0_104_2476">
<rect width="16" height="16" fill="white"/>
</clipPath>
</defs>
</svg>
