<svg width="16" height="16" viewBox="0 0 16 16" xmlns="http://www.w3.org/2000/svg" fill='currentColor'><g clip-path="url(#clip0_104_2501)"><path d="M12.5 3C12.6326 3 12.7598 3.05268 12.8536 3.14645C12.9473 3.24021 13 3.36739 13 3.5C13 3.63261 12.9473 3.75979 12.8536 3.85355C12.7598 3.94732 12.6326 4 12.5 4H7.5C7.36739 4 7.24021 3.94732 7.14645 3.85355C7.05268 3.75979 7 3.63261 7 3.5C7 3.36739 7.05268 3.24021 7.14645 3.14645C7.24021 3.05268 7.36739 3 7.5 3H12.5ZM12.5 6C12.6326 6 12.7598 6.05268 12.8536 6.14645C12.9473 6.24021 13 6.36739 13 6.5C13 6.63261 12.9473 6.75979 12.8536 6.85355C12.7598 6.94732 12.6326 7 12.5 7H7.5C7.36739 7 7.24021 6.94732 7.14645 6.85355C7.05268 6.75979 7 6.63261 7 6.5C7 6.36739 7.05268 6.24021 7.14645 6.14645C7.24021 6.05268 7.36739 6 7.5 6H12.5ZM13 9.5C13 9.36739 12.9473 9.24021 12.8536 9.14645C12.7598 9.05268 12.6326 9 12.5 9H7.5C7.36739 9 7.24021 9.05268 7.14645 9.14645C7.05268 9.24021 7 9.36739 7 9.5C7 9.63261 7.05268 9.75979 7.14645 9.85355C7.24021 9.94732 7.36739 10 7.5 10H12.5C12.6326 10 12.7598 9.94732 12.8536 9.85355C12.9473 9.75979 13 9.63261 13 9.5ZM12.5 12C12.6326 12 12.7598 12.0527 12.8536 12.1464C12.9473 12.2402 13 12.3674 13 12.5C13 12.6326 12.9473 12.7598 12.8536 12.8536C12.7598 12.9473 12.6326 13 12.5 13H7.5C7.36739 13 7.24021 12.9473 7.14645 12.8536C7.05268 12.7598 7 12.6326 7 12.5C7 12.3674 7.05268 12.2402 7.14645 12.1464C7.24021 12.0527 7.36739 12 7.5 12H12.5Z"/><path d="M16 2C16 1.46957 15.7893 0.960859 15.4142 0.585786C15.0391 0.210714 14.5304 0 14 0L2 0C1.46957 0 0.960859 0.210714 0.585786 0.585786C0.210714 0.960859 0 1.46957 0 2L0 14C0 14.5304 0.210714 15.0391 0.585786 15.4142C0.960859 15.7893 1.46957 16 2 16H14C14.5304 16 15.0391 15.7893 15.4142 15.4142C15.7893 15.0391 16 14.5304 16 14V2ZM4 1V15H2C1.73478 15 1.48043 14.8946 1.29289 14.7071C1.10536 14.5196 1 14.2652 1 14V2C1 1.73478 1.10536 1.48043 1.29289 1.29289C1.48043 1.10536 1.73478 1 2 1H4ZM5 1H14C14.2652 1 14.5196 1.10536 14.7071 1.29289C14.8946 1.48043 15 1.73478 15 2V14C15 14.2652 14.8946 14.5196 14.7071 14.7071C14.5196 14.8946 14.2652 15 14 15H5V1Z"/></g><defs><clipPath id="clip0_104_2501"><rect width="16" height="16"/></clipPath></defs></svg>