<svg width="16" height="16" viewBox="0 0 16 16" fill="none" xmlns="http://www.w3.org/2000/svg">
<g clip-path="url(#clip0_104_2504)">
<path d="M3 6.5C3 6.36739 3.05268 6.24021 3.14645 6.14645C3.24021 6.05268 3.36739 6 3.5 6H8.5C8.63261 6 8.75979 6.05268 8.85355 6.14645C8.94732 6.24021 9 6.36739 9 6.5C9 6.63261 8.94732 6.75979 8.85355 6.85355C8.75979 6.94732 8.63261 7 8.5 7H3.5C3.36739 7 3.24021 6.94732 3.14645 6.85355C3.05268 6.75979 3 6.63261 3 6.5ZM3 9.5C3 9.36739 3.05268 9.24021 3.14645 9.14645C3.24021 9.05268 3.36739 9 3.5 9H8.5C8.63261 9 8.75979 9.05268 8.85355 9.14645C8.94732 9.24021 9 9.36739 9 9.5C9 9.63261 8.94732 9.75979 8.85355 9.85355C8.75979 9.94732 8.63261 10 8.5 10H3.5C3.36739 10 3.24021 9.94732 3.14645 9.85355C3.05268 9.75979 3 9.63261 3 9.5ZM3.5 12C3.36739 12 3.24021 12.0527 3.14645 12.1464C3.05268 12.2402 3 12.3674 3 12.5C3 12.6326 3.05268 12.7598 3.14645 12.8536C3.24021 12.9473 3.36739 13 3.5 13H8.5C8.63261 13 8.75979 12.9473 8.85355 12.8536C8.94732 12.7598 9 12.6326 9 12.5C9 12.3674 8.94732 12.2402 8.85355 12.1464C8.75979 12.0527 8.63261 12 8.5 12H3.5Z" fill="black"/>
<path d="M2 0C1.46957 0 0.960859 0.210714 0.585786 0.585786C0.210714 0.960859 0 1.46957 0 2L0 14C0 14.5304 0.210714 15.0391 0.585786 15.4142C0.960859 15.7893 1.46957 16 2 16H14C14.5304 16 15.0391 15.7893 15.4142 15.4142C15.7893 15.0391 16 14.5304 16 14V2C16 1.46957 15.7893 0.960859 15.4142 0.585786C15.0391 0.210714 14.5304 0 14 0L2 0ZM14 1C14.2652 1 14.5196 1.10536 14.7071 1.29289C14.8946 1.48043 15 1.73478 15 2V3H1V2C1 1.73478 1.10536 1.48043 1.29289 1.29289C1.48043 1.10536 1.73478 1 2 1H14ZM15 4V14C15 14.2652 14.8946 14.5196 14.7071 14.7071C14.5196 14.8946 14.2652 15 14 15H12V4H15ZM11 4V15H2C1.73478 15 1.48043 14.8946 1.29289 14.7071C1.10536 14.5196 1 14.2652 1 14V4H11Z" fill="black"/>
</g>
<defs>
<clipPath id="clip0_104_2504">
<rect width="16" height="16" fill="white"/>
</clipPath>
</defs>
</svg>
