<svg width="16" height="16" viewBox="0 0 16 16" fill="none" xmlns="http://www.w3.org/2000/svg">
<g clip-path="url(#clip0_104_2514)">
<path d="M8 16C10.1217 16 12.1566 15.1571 13.6569 13.6569C15.1571 12.1566 16 10.1217 16 8C16 5.87827 15.1571 3.84344 13.6569 2.34315C12.1566 0.842855 10.1217 0 8 0C5.87827 0 3.84344 0.842855 2.34315 2.34315C0.842855 3.84344 0 5.87827 0 8C0 10.1217 0.842855 12.1566 2.34315 13.6569C3.84344 15.1571 5.87827 16 8 16ZM14.43 10.772C13.7204 12.4122 12.4122 13.7204 10.772 14.43L9.657 11.642C10.536 11.2407 11.2407 10.536 11.642 9.657L14.43 10.772ZM5.228 14.43C3.58776 13.7204 2.27964 12.4122 1.57 10.772L4.358 9.657C4.75926 10.536 5.46404 11.2407 6.343 11.642L5.228 14.43ZM14.43 5.228L11.642 6.343C11.2407 5.46404 10.536 4.75926 9.657 4.358L10.772 1.57C12.4122 2.27964 13.7204 3.58776 14.43 5.228ZM6.343 4.358C5.46404 4.75926 4.75926 5.46404 4.358 6.343L1.57 5.228C2.27964 3.58776 3.58776 2.27964 5.228 1.57L6.343 4.358ZM8 11C7.20435 11 6.44129 10.6839 5.87868 10.1213C5.31607 9.55871 5 8.79565 5 8C5 7.20435 5.31607 6.44129 5.87868 5.87868C6.44129 5.31607 7.20435 5 8 5C8.79565 5 9.55871 5.31607 10.1213 5.87868C10.6839 6.44129 11 7.20435 11 8C11 8.79565 10.6839 9.55871 10.1213 10.1213C9.55871 10.6839 8.79565 11 8 11Z" fill="black"/>
</g>
<defs>
<clipPath id="clip0_104_2514">
<rect width="16" height="16" fill="white"/>
</clipPath>
</defs>
</svg>
