<svg width="16" height="16" viewBox="0 0 16 16" xmlns="http://www.w3.org/2000/svg" fill='currentColor'><g clip-path="url(#clip0_104_2520)"><path fill-rule="evenodd" clip-rule="evenodd" d="M2.22998 4.34997C2.07701 4.88661 1.9996 5.44195 1.99998 5.99997C1.99998 7.69097 2.69998 9.21997 3.82598 10.31C4.02898 10.506 4.18498 10.71 4.27898 10.929L5.04098 12.698C5.07964 12.7876 5.14371 12.864 5.22528 12.9177C5.30685 12.9713 5.40234 12.9999 5.49998 13C5.36737 13 5.24019 13.0526 5.14643 13.1464C5.05266 13.2402 4.99998 13.3674 4.99998 13.5C4.99998 13.6326 5.05266 13.7598 5.14643 13.8535C5.24019 13.9473 5.36737 14 5.49998 14C5.36737 14 5.24019 14.0526 5.14643 14.1464C5.05266 14.2402 4.99998 14.3674 4.99998 14.5C4.99998 14.6326 5.05266 14.7598 5.14643 14.8535C5.24019 14.9473 5.36737 15 5.49998 15L5.72398 15.447C5.80697 15.613 5.93456 15.7527 6.09245 15.8504C6.25035 15.9481 6.43232 15.9999 6.61798 16H9.38198C9.56764 15.9999 9.74961 15.9481 9.9075 15.8504C10.0654 15.7527 10.193 15.613 10.276 15.447L10.5 15C10.6326 15 10.7598 14.9473 10.8535 14.8535C10.9473 14.7598 11 14.6326 11 14.5C11 14.3674 10.9473 14.2402 10.8535 14.1464C10.7598 14.0526 10.6326 14 10.5 14C10.6326 14 10.7598 13.9473 10.8535 13.8535C10.9473 13.7598 11 13.6326 11 13.5C11 13.3674 10.9473 13.2402 10.8535 13.1464C10.7598 13.0526 10.6326 13 10.5 13C10.6031 13 10.7037 12.9683 10.788 12.909L9.87798 12H5.82998L5.19798 10.533C5.03697 10.1778 4.80722 9.85793 4.52198 9.59197C3.94048 9.03071 3.5042 8.33647 3.25072 7.56907C2.99725 6.80168 2.93419 5.98415 3.06698 5.18697L2.22998 4.35097V4.34997ZM3.81798 1.69697L4.52598 2.40397C5.46899 1.49318 6.732 0.989204 8.04298 1.0006C9.35397 1.01199 10.608 1.53783 11.5351 2.46487C12.4621 3.39191 12.988 4.64598 12.9993 5.95696C13.0107 7.26794 12.5068 8.53096 11.596 9.47397L12.303 10.181C13.3959 9.04935 14.0007 7.53374 13.987 5.96056C13.9734 4.38738 13.3423 2.8825 12.2299 1.77005C11.1174 0.657606 9.61257 0.0265926 8.03938 0.0129221C6.4662 -0.000748387 4.95059 0.604018 3.81898 1.69697H3.81798ZM1.64598 1.64597C1.69242 1.5994 1.7476 1.56246 1.80834 1.53725C1.86909 1.51205 1.93421 1.49907 1.99998 1.49907C2.06575 1.49907 2.13087 1.51205 2.19161 1.53725C2.25236 1.56246 2.30753 1.5994 2.35398 1.64597L14.354 13.646C14.4479 13.7399 14.5006 13.8672 14.5006 14C14.5006 14.1327 14.4479 14.2601 14.354 14.354C14.2601 14.4479 14.1328 14.5006 14 14.5006C13.8672 14.5006 13.7399 14.4479 13.646 14.354L1.64598 2.35397C1.59942 2.30752 1.56247 2.25235 1.53727 2.1916C1.51206 2.13085 1.49908 2.06573 1.49908 1.99997C1.49908 1.9342 1.51206 1.86908 1.53727 1.80833C1.56247 1.74759 1.59942 1.69241 1.64598 1.64597Z"/></g><defs><clipPath id="clip0_104_2520"><rect width="16" height="16"/></clipPath></defs></svg>