<svg width="16" height="16" viewBox="0 0 16 16" fill="none" xmlns="http://www.w3.org/2000/svg">
<g clip-path="url(#clip0_104_2528)">
<path d="M11.251 0.0679535C11.3489 0.124692 11.4246 0.212943 11.4658 0.318291C11.5071 0.423639 11.5114 0.539855 11.478 0.647953L9.677 6.49995H13C13.0977 6.49991 13.1932 6.52847 13.2748 6.5821C13.3564 6.63574 13.4205 6.71209 13.4592 6.80175C13.4979 6.8914 13.5096 6.99043 13.4926 7.08661C13.4757 7.18278 13.431 7.2719 13.364 7.34295L5.364 15.843C5.28659 15.9253 5.18359 15.9789 5.07177 15.9952C4.95996 16.0115 4.84593 15.9894 4.74827 15.9326C4.65061 15.8757 4.57508 15.7875 4.53399 15.6822C4.4929 15.577 4.48867 15.4609 4.522 15.353L6.323 9.49995H3C2.90234 9.49999 2.80682 9.47143 2.72521 9.4178C2.64359 9.36417 2.57948 9.28782 2.54076 9.19816C2.50205 9.10851 2.49044 9.00948 2.50737 8.9133C2.52429 8.81712 2.56901 8.72801 2.636 8.65695L10.636 0.156953C10.7133 0.0747526 10.8162 0.0211221 10.9278 0.00478201C11.0395 -0.011558 11.1534 0.0103533 11.251 0.0669535V0.0679535Z" fill="black"/>
</g>
<defs>
<clipPath id="clip0_104_2528">
<rect width="16" height="16" fill="white"/>
</clipPath>
</defs>
</svg>
