<svg width="16" height="16" viewBox="0 0 16 16" xmlns="http://www.w3.org/2000/svg" fill='currentColor'><g clip-path="url(#clip0_104_2516)"><path d="M2 5.99995C1.99997 5.00916 2.2453 4.03378 2.71408 3.16091C3.18287 2.28804 3.86051 1.54484 4.68651 0.997682C5.51251 0.45052 6.46115 0.116425 7.44773 0.0252283C8.43432 -0.0659687 9.42813 0.0885711 10.3404 0.475049C11.2527 0.861526 12.0551 1.46791 12.676 2.24006C13.2968 3.01221 13.7168 3.92609 13.8984 4.90009C14.08 5.8741 14.0175 6.87791 13.7166 7.82191C13.4157 8.7659 12.8858 9.62069 12.174 10.3099C11.971 10.5059 11.815 10.7099 11.721 10.9289L10.959 12.6979C10.9203 12.7876 10.8563 12.864 10.7747 12.9176C10.6931 12.9713 10.5976 12.9999 10.5 12.9999C10.6326 12.9999 10.7598 13.0526 10.8536 13.1464C10.9473 13.2402 11 13.3673 11 13.4999C11 13.6326 10.9473 13.7597 10.8536 13.8535C10.7598 13.9473 10.6326 13.9999 10.5 13.9999C10.6326 13.9999 10.7598 14.0526 10.8536 14.1464C10.9473 14.2402 11 14.3673 11 14.4999C11 14.6326 10.9473 14.7597 10.8536 14.8535C10.7598 14.9473 10.6326 14.9999 10.5 14.9999L10.276 15.4469C10.193 15.613 10.0654 15.7527 9.90753 15.8504C9.74963 15.9481 9.56767 15.9998 9.382 15.9999H6.618C6.43234 15.9998 6.25037 15.9481 6.09248 15.8504C5.93458 15.7527 5.80699 15.613 5.724 15.4469L5.5 14.9999C5.3674 14.9999 5.24022 14.9473 5.14645 14.8535C5.05268 14.7597 5 14.6326 5 14.4999C5 14.3673 5.05268 14.2402 5.14645 14.1464C5.24022 14.0526 5.3674 13.9999 5.5 13.9999C5.3674 13.9999 5.24022 13.9473 5.14645 13.8535C5.05268 13.7597 5 13.6326 5 13.4999C5 13.3673 5.05268 13.2402 5.14645 13.1464C5.24022 13.0526 5.3674 12.9999 5.5 12.9999C5.40219 13.0001 5.30648 12.9716 5.22472 12.9179C5.14296 12.8642 5.07874 12.7878 5.04 12.6979L4.279 10.9279C4.17004 10.6942 4.01611 10.4842 3.826 10.3099C3.24763 9.75111 2.78783 9.08142 2.4741 8.3409C2.16036 7.60037 1.99912 6.80419 2 5.99995ZM8 0.999946C7.00417 0.999777 6.03096 1.29698 5.20512 1.85346C4.37927 2.40994 3.73841 3.20035 3.36466 4.12339C2.99091 5.04643 2.9013 6.06004 3.10732 7.03434C3.31334 8.00863 3.80559 8.89921 4.521 9.59195C4.784 9.84595 5.035 10.1559 5.197 10.5329L5.83 11.9999H10.172L10.804 10.5329C10.966 10.1559 11.217 9.84595 11.48 9.59195C12.1955 8.89915 12.6878 8.00848 12.8937 7.03409C13.0997 6.05971 13.01 5.046 12.6362 4.12292C12.2623 3.19984 11.6213 2.40944 10.7953 1.85304C9.96927 1.29663 8.99593 0.999577 8 0.999946Z"/></g><defs><clipPath id="clip0_104_2516"><rect width="16" height="16"/></clipPath></defs></svg>