<svg width="16" height="16" viewBox="0 0 16 16" fill="none" xmlns="http://www.w3.org/2000/svg">
<g clip-path="url(#clip0_104_2530)">
<path d="M5.52 0.359C5.55047 0.255329 5.61371 0.164319 5.70024 0.0996C5.78677 0.0348812 5.89194 -6.31864e-05 6 8.57716e-08H10C10.0792 6.01937e-05 10.1572 0.018926 10.2277 0.0550444C10.2982 0.0911628 10.359 0.143501 10.4053 0.20775C10.4516 0.271999 10.482 0.346322 10.4939 0.424601C10.5058 0.502879 10.499 0.582874 10.474 0.658L8.694 6H12.5C12.5936 5.99994 12.6854 6.02616 12.7649 6.0757C12.8443 6.12523 12.9083 6.19608 12.9494 6.28019C12.9906 6.36429 13.0073 6.45825 12.9977 6.55139C12.9881 6.64453 12.9525 6.73309 12.895 6.807L5.895 15.807C5.82329 15.8996 5.72133 15.9642 5.6069 15.9893C5.49248 16.0144 5.37286 15.9986 5.26892 15.9446C5.16498 15.8905 5.08332 15.8017 5.03819 15.6935C4.99306 15.5854 4.98733 15.4649 5.022 15.353L6.823 9.5H3.5C3.42226 9.50005 3.34559 9.48197 3.27606 9.4472C3.20654 9.41243 3.14608 9.36192 3.09948 9.2997C3.05289 9.23748 3.02144 9.16525 3.00765 9.08875C2.99385 9.01225 2.99808 8.93358 3.02 8.859L5.52 0.359Z" fill="black"/>
</g>
<defs>
<clipPath id="clip0_104_2530">
<rect width="16" height="16" fill="white"/>
</clipPath>
</defs>
</svg>
