<svg width="16" height="16" viewBox="0 0 16 16" fill="none" xmlns="http://www.w3.org/2000/svg">
<g clip-path="url(#clip0_104_2522)">
<path d="M2.00001 5.99997C2.00001 5.42797 2.08001 4.87497 2.23001 4.34997L10.788 12.909C10.7037 12.9683 10.6031 13 10.5 13H5.50001C5.4022 13.0001 5.30649 12.9716 5.22472 12.9179C5.14296 12.8643 5.07874 12.7878 5.04001 12.698L4.27901 10.928C4.17005 10.6942 4.01612 10.4842 3.82601 10.31C3.24763 9.75113 2.78784 9.08145 2.4741 8.34092C2.16036 7.60039 1.99912 6.80421 2.00001 5.99997ZM12.303 10.181L3.81801 1.69697C4.94962 0.604018 6.46523 -0.000748387 8.03841 0.0129221C9.61159 0.0265926 11.1165 0.657606 12.2289 1.77005C13.3414 2.8825 13.9724 4.38738 13.986 5.96056C13.9997 7.53374 13.395 9.04935 12.302 10.181H12.303ZM5.00001 14.5C5.00001 14.3674 5.05268 14.2402 5.14645 14.1464C5.24022 14.0526 5.3674 14 5.50001 14H10.5C10.6326 14 10.7598 14.0526 10.8536 14.1464C10.9473 14.2402 11 14.3674 11 14.5C11 14.6326 10.9473 14.7598 10.8536 14.8535C10.7598 14.9473 10.6326 15 10.5 15L10.276 15.447C10.193 15.613 10.0654 15.7527 9.90753 15.8504C9.74964 15.9481 9.56767 15.9999 9.38201 16H6.61801C6.43234 15.9999 6.25038 15.9481 6.09248 15.8504C5.93458 15.7527 5.807 15.613 5.72401 15.447L5.50001 15C5.3674 15 5.24022 14.9473 5.14645 14.8535C5.05268 14.7598 5.00001 14.6326 5.00001 14.5ZM2.35401 1.64597C2.30752 1.59948 2.25233 1.5626 2.19159 1.53744C2.13085 1.51228 2.06575 1.49933 2.00001 1.49933C1.93426 1.49933 1.86916 1.51228 1.80842 1.53744C1.74768 1.5626 1.69249 1.59948 1.64601 1.64597C1.59952 1.69245 1.56264 1.74764 1.53748 1.80838C1.51232 1.86912 1.49937 1.93422 1.49937 1.99997C1.49937 2.06571 1.51232 2.13081 1.53748 2.19155C1.56264 2.25229 1.59952 2.30748 1.64601 2.35397L13.646 14.354C13.7399 14.4479 13.8672 14.5006 14 14.5006C14.1328 14.5006 14.2601 14.4479 14.354 14.354C14.4479 14.2601 14.5006 14.1327 14.5006 14C14.5006 13.8672 14.4479 13.7399 14.354 13.646L2.35401 1.64597Z" fill="black"/>
</g>
<defs>
<clipPath id="clip0_104_2522">
<rect width="16" height="16" fill="white"/>
</clipPath>
</defs>
</svg>
