<svg width="16" height="16" viewBox="0 0 16 16" xmlns="http://www.w3.org/2000/svg" fill='currentColor'><path d="M6.354 5.5H4C3.20435 5.5 2.44129 5.81607 1.87868 6.37868C1.31607 6.94129 1 7.70435 1 8.5C1 9.29565 1.31607 10.0587 1.87868 10.6213C2.44129 11.1839 3.20435 11.5 4 11.5H7C7.48007 11.5003 7.9532 11.3853 8.37963 11.1648C8.80606 10.9442 9.17333 10.6246 9.45061 10.2327C9.72788 9.84079 9.90705 9.38806 9.97307 8.91255C10.0391 8.43703 9.99002 7.95262 9.83 7.5H9C8.914 7.5 8.83 7.51 8.75 7.531C8.91865 7.83551 9.0049 8.17876 9.00024 8.52681C8.99557 8.87487 8.90014 9.21569 8.72339 9.51556C8.54664 9.81544 8.29468 10.064 7.99242 10.2366C7.69017 10.4093 7.34809 10.5001 7 10.5H4C3.46957 10.5 2.96086 10.2893 2.58579 9.91421C2.21071 9.53914 2 9.03043 2 8.5C2 7.96957 2.21071 7.46086 2.58579 7.08579C2.96086 6.71071 3.46957 6.5 4 6.5H5.535C5.753 6.124 6.03 5.786 6.355 5.5H6.354Z"/><path d="M9 5.5C8.51993 5.49975 8.0468 5.61471 7.62037 5.83524C7.19395 6.05576 6.82667 6.3754 6.54939 6.76731C6.27212 7.15921 6.09295 7.61194 6.02693 8.08745C5.96091 8.56297 6.00998 9.04738 6.17 9.5H7.268C7.09247 9.19597 7.00006 8.85108 7.00005 8.50001C7.00005 8.14894 7.09246 7.80406 7.26799 7.50002C7.44352 7.19599 7.69599 6.94351 8.00002 6.76797C8.30405 6.59243 8.64893 6.50001 9 6.5H12C12.5304 6.5 13.0391 6.71071 13.4142 7.08579C13.7893 7.46086 14 7.96957 14 8.5C14 9.03043 13.7893 9.53914 13.4142 9.91421C13.0391 10.2893 12.5304 10.5 12 10.5H10.465C10.2474 10.8754 9.97051 11.2131 9.645 11.5H12C12.394 11.5 12.7841 11.4224 13.1481 11.2716C13.512 11.1209 13.8427 10.8999 14.1213 10.6213C14.3999 10.3427 14.6209 10.012 14.7716 9.64805C14.9224 9.28407 15 8.89397 15 8.5C15 8.10603 14.9224 7.71593 14.7716 7.35195C14.6209 6.98797 14.3999 6.65726 14.1213 6.37868C13.8427 6.1001 13.512 5.87913 13.1481 5.72836C12.7841 5.5776 12.394 5.5 12 5.5H9Z"/></svg>