<svg xmlns="http://www.w3.org/2000/svg" width="24" height="24" viewBox="0 0 24 24" fill='currentColor'><path d="M2.5 14c0 1.3.84 2.4 2 2.82V20h-2v2h6v-2h-2v-3.18c1.16-.42 2-1.52 2-2.82V6h-6zm2-6h2v3h-2zm15.63.54-.95-.32a.99.99 0 0 1-.68-.94V3c0-.55-.45-1-1-1h-3c-.55 0-1 .45-1 1v4.28c0 .43-.28.81-.68.95l-.95.32c-.82.27-1.37 1.03-1.37 1.89V20c0 1.1.9 2 2 2h7c1.1 0 2-.9 2-2v-9.56c0-.86-.55-1.62-1.37-1.9M15.5 4h1v1h-1zm-3 6.44.95-.32c1.23-.4 2.05-1.55 2.05-2.84V7h1v.28a3 3 0 0 0 2.05 2.85l.95.31V12h-7zm7 9.56h-7v-2h7z"/></svg>