<svg width="16" height="16" viewBox="0 0 16 16" fill="none" xmlns="http://www.w3.org/2000/svg">
<path fill-rule="evenodd" clip-rule="evenodd" d="M4.5 11.5C4.5 11.3674 4.55268 11.2402 4.64645 11.1464C4.74021 11.0527 4.86739 11 5 11H15C15.1326 11 15.2598 11.0527 15.3536 11.1464C15.4473 11.2402 15.5 11.3674 15.5 11.5C15.5 11.6326 15.4473 11.7598 15.3536 11.8536C15.2598 11.9473 15.1326 12 15 12H5C4.86739 12 4.74021 11.9473 4.64645 11.8536C4.55268 11.7598 4.5 11.6326 4.5 11.5ZM2.5 7.5C2.5 7.36739 2.55268 7.24021 2.64645 7.14645C2.74021 7.05268 2.86739 7 3 7H13C13.1326 7 13.2598 7.05268 13.3536 7.14645C13.4473 7.24021 13.5 7.36739 13.5 7.5C13.5 7.63261 13.4473 7.75979 13.3536 7.85355C13.2598 7.94732 13.1326 8 13 8H3C2.86739 8 2.74021 7.94732 2.64645 7.85355C2.55268 7.75979 2.5 7.63261 2.5 7.5ZM0.5 3.5C0.5 3.36739 0.552678 3.24021 0.646447 3.14645C0.740215 3.05268 0.867392 3 1 3H11C11.1326 3 11.2598 3.05268 11.3536 3.14645C11.4473 3.24021 11.5 3.36739 11.5 3.5C11.5 3.63261 11.4473 3.75979 11.3536 3.85355C11.2598 3.94732 11.1326 4 11 4H1C0.867392 4 0.740215 3.94732 0.646447 3.85355C0.552678 3.75979 0.5 3.63261 0.5 3.5Z" fill="black"/>
</svg>
