<svg width="16" height="16" viewBox="0 0 16 16" xmlns="http://www.w3.org/2000/svg" fill='currentColor'><path fill-rule="evenodd" clip-rule="evenodd" d="M2 2.5C1.86739 2.5 1.74021 2.55268 1.64645 2.64645C1.55268 2.74021 1.5 2.86739 1.5 3V4C1.5 4.13261 1.55268 4.25979 1.64645 4.35355C1.74021 4.44732 1.86739 4.5 2 4.5H3C3.13261 4.5 3.25979 4.44732 3.35355 4.35355C3.44732 4.25979 3.5 4.13261 3.5 4V3C3.5 2.86739 3.44732 2.74021 3.35355 2.64645C3.25979 2.55268 3.13261 2.5 3 2.5H2ZM3 3H2V4H3V3Z"/><path d="M5 3.5C5 3.36739 5.05268 3.24021 5.14645 3.14645C5.24021 3.05268 5.36739 3 5.5 3H14.5C14.6326 3 14.7598 3.05268 14.8536 3.14645C14.9473 3.24021 15 3.36739 15 3.5C15 3.63261 14.9473 3.75979 14.8536 3.85355C14.7598 3.94732 14.6326 4 14.5 4H5.5C5.36739 4 5.24021 3.94732 5.14645 3.85355C5.05268 3.75979 5 3.63261 5 3.5ZM5.5 7C5.36739 7 5.24021 7.05268 5.14645 7.14645C5.05268 7.24021 5 7.36739 5 7.5C5 7.63261 5.05268 7.75979 5.14645 7.85355C5.24021 7.94732 5.36739 8 5.5 8H14.5C14.6326 8 14.7598 7.94732 14.8536 7.85355C14.9473 7.75979 15 7.63261 15 7.5C15 7.36739 14.9473 7.24021 14.8536 7.14645C14.7598 7.05268 14.6326 7 14.5 7H5.5ZM5.5 11C5.36739 11 5.24021 11.0527 5.14645 11.1464C5.05268 11.2402 5 11.3674 5 11.5C5 11.6326 5.05268 11.7598 5.14645 11.8536C5.24021 11.9473 5.36739 12 5.5 12H14.5C14.6326 12 14.7598 11.9473 14.8536 11.8536C14.9473 11.7598 15 11.6326 15 11.5C15 11.3674 14.9473 11.2402 14.8536 11.1464C14.7598 11.0527 14.6326 11 14.5 11H5.5Z"/><path fill-rule="evenodd" clip-rule="evenodd" d="M1.5 7C1.5 6.86739 1.55268 6.74021 1.64645 6.64645C1.74021 6.55268 1.86739 6.5 2 6.5H3C3.13261 6.5 3.25979 6.55268 3.35355 6.64645C3.44732 6.74021 3.5 6.86739 3.5 7V8C3.5 8.13261 3.44732 8.25979 3.35355 8.35355C3.25979 8.44732 3.13261 8.5 3 8.5H2C1.86739 8.5 1.74021 8.44732 1.64645 8.35355C1.55268 8.25979 1.5 8.13261 1.5 8V7ZM2 7H3V8H2V7ZM2 10.5C1.86739 10.5 1.74021 10.5527 1.64645 10.6464C1.55268 10.7402 1.5 10.8674 1.5 11V12C1.5 12.1326 1.55268 12.2598 1.64645 12.3536C1.74021 12.4473 1.86739 12.5 2 12.5H3C3.13261 12.5 3.25979 12.4473 3.35355 12.3536C3.44732 12.2598 3.5 12.1326 3.5 12V11C3.5 10.8674 3.44732 10.7402 3.35355 10.6464C3.25979 10.5527 3.13261 10.5 3 10.5H2ZM3 11H2V12H3V11Z"/></svg>