<svg width="16" height="16" viewBox="0 0 16 16" xmlns="http://www.w3.org/2000/svg" fill='currentColor'><path fill-rule="evenodd" clip-rule="evenodd" d="M5 11.5C5 11.3674 5.05268 11.2402 5.14645 11.1464C5.24021 11.0527 5.36739 11 5.5 11H14.5C14.6326 11 14.7598 11.0527 14.8536 11.1464C14.9473 11.2402 15 11.3674 15 11.5C15 11.6326 14.9473 11.7598 14.8536 11.8536C14.7598 11.9473 14.6326 12 14.5 12H5.5C5.36739 12 5.24021 11.9473 5.14645 11.8536C5.05268 11.7598 5 11.6326 5 11.5ZM5 7.5C5 7.36739 5.05268 7.24021 5.14645 7.14645C5.24021 7.05268 5.36739 7 5.5 7H14.5C14.6326 7 14.7598 7.05268 14.8536 7.14645C14.9473 7.24021 15 7.36739 15 7.5C15 7.63261 14.9473 7.75979 14.8536 7.85355C14.7598 7.94732 14.6326 8 14.5 8H5.5C5.36739 8 5.24021 7.94732 5.14645 7.85355C5.05268 7.75979 5 7.63261 5 7.5ZM5 3.5C5 3.36739 5.05268 3.24021 5.14645 3.14645C5.24021 3.05268 5.36739 3 5.5 3H14.5C14.6326 3 14.7598 3.05268 14.8536 3.14645C14.9473 3.24021 15 3.36739 15 3.5C15 3.63261 14.9473 3.75979 14.8536 3.85355C14.7598 3.94732 14.6326 4 14.5 4H5.5C5.36739 4 5.24021 3.94732 5.14645 3.85355C5.05268 3.75979 5 3.63261 5 3.5ZM2 4.5C2.26522 4.5 2.51957 4.39464 2.70711 4.20711C2.89464 4.01957 3 3.76522 3 3.5C3 3.23478 2.89464 2.98043 2.70711 2.79289C2.51957 2.60536 2.26522 2.5 2 2.5C1.73478 2.5 1.48043 2.60536 1.29289 2.79289C1.10536 2.98043 1 3.23478 1 3.5C1 3.76522 1.10536 4.01957 1.29289 4.20711C1.48043 4.39464 1.73478 4.5 2 4.5ZM2 8.5C2.26522 8.5 2.51957 8.39464 2.70711 8.20711C2.89464 8.01957 3 7.76522 3 7.5C3 7.23478 2.89464 6.98043 2.70711 6.79289C2.51957 6.60536 2.26522 6.5 2 6.5C1.73478 6.5 1.48043 6.60536 1.29289 6.79289C1.10536 6.98043 1 7.23478 1 7.5C1 7.76522 1.10536 8.01957 1.29289 8.20711C1.48043 8.39464 1.73478 8.5 2 8.5ZM2 12.5C2.26522 12.5 2.51957 12.3946 2.70711 12.2071C2.89464 12.0196 3 11.7652 3 11.5C3 11.2348 2.89464 10.9804 2.70711 10.7929C2.51957 10.6054 2.26522 10.5 2 10.5C1.73478 10.5 1.48043 10.6054 1.29289 10.7929C1.10536 10.9804 1 11.2348 1 11.5C1 11.7652 1.10536 12.0196 1.29289 12.2071C1.48043 12.3946 1.73478 12.5 2 12.5Z"/></svg>