<svg xmlns="http://www.w3.org/2000/svg" width="24" height="24" viewBox="0 0 24 24" fill='currentColor'><path d="M12 22.5a9 9 0 0 0 9-9 9 9 0 0 0-9 9M5.6 10.75a2.5 2.5 0 0 0 3.92 2.06L9.5 13a2.5 2.5 0 0 0 5 0l-.02-.19c.4.28.89.44 1.42.44a2.5 2.5 0 0 0 2.5-2.5c0-1-.59-1.85-1.43-2.25.84-.4 1.43-1.25 1.43-2.25a2.5 2.5 0 0 0-3.92-2.06L14.5 4a2.5 2.5 0 0 0-5 0l.02.19c-.4-.28-.89-.44-1.42-.44a2.5 2.5 0 0 0-2.5 2.5c0 1 .59 1.85 1.43 2.25-.84.4-1.43 1.25-1.43 2.25M12 6a2.5 2.5 0 0 1 0 5 2.5 2.5 0 0 1 0-5m-9 7.5a9 9 0 0 0 9 9 9 9 0 0 0-9-9"/></svg>