<svg width="24" height="24" viewBox="0 0 24 24" xmlns="http://www.w3.org/2000/svg" fill='currentColor'><path d="M20.69 17.35C21.34 16.11 21.71 14.7 21.71 13.2C20.21 13.2 18.8 13.57 17.56 14.22L20.69 17.35Z"/><path d="M3.71001 13.2C3.71001 18.17 7.74001 22.2 12.71 22.2C12.71 17.23 8.68001 13.2 3.71001 13.2Z"/><path d="M12.71 5.69995C14.09 5.69995 15.21 6.81995 15.21 8.19995C15.21 9.18995 14.63 10.04 13.79 10.45L16.27 12.93C16.38 12.95 16.5 12.96 16.62 12.96C18 12.96 19.12 11.84 19.12 10.46C19.12 9.45995 18.53 8.60995 17.69 8.20995C18.53 7.80995 19.12 6.95995 19.12 5.95995C19.12 4.57995 18 3.45995 16.62 3.45995C16.09 3.45995 15.61 3.61995 15.2 3.89995L15.21 3.69995C15.21 2.31995 14.09 1.19995 12.71 1.19995C11.33 1.19995 10.21 2.31995 10.21 3.69995L10.23 3.88995C9.83001 3.60995 9.34001 3.44995 8.81001 3.44995C8.24001 3.44995 7.72001 3.64995 7.30001 3.96995L10.46 7.12995C10.87 6.27995 11.72 5.69995 12.71 5.69995Z"/><path d="M3.52001 3.00995L2.10001 4.41995L6.74001 9.05995C6.47001 9.45995 6.31001 9.92995 6.31001 10.45C6.31001 11.83 7.43001 12.95 8.81001 12.95C9.33001 12.95 9.80001 12.79 10.21 12.52L10.23 12.54L10.21 12.7C10.21 14.08 11.33 15.2 12.71 15.2C12.76 15.2 12.81 15.19 12.87 15.18L14.51 16.82C13.38 18.32 12.71 20.18 12.71 22.2C14.73 22.2 16.59 21.53 18.09 20.4L20.49 22.8L21.9 21.39L3.52001 3.00995Z"/></svg>