<svg width="16" height="16" viewBox="0 0 16 16" fill="none" xmlns="http://www.w3.org/2000/svg">
<g clip-path="url(#clip0_104_2564)">
<path d="M9.50003 2.67202C9.50003 2.80463 9.5527 2.9318 9.64647 3.02557C9.74024 3.11934 9.86742 3.17202 10 3.17202C10.1326 3.17202 10.2598 3.11934 10.3536 3.02557C10.4473 2.9318 10.5 2.80463 10.5 2.67202V0.843018C10.5 0.710409 10.4473 0.583232 10.3536 0.489464C10.2598 0.395696 10.1326 0.343018 10 0.343018C9.86742 0.343018 9.74024 0.395696 9.64647 0.489464C9.5527 0.583232 9.50003 0.710409 9.50003 0.843018V2.67202ZM14 2.70702C14.0911 2.61272 14.1415 2.48642 14.1404 2.35532C14.1392 2.22422 14.0866 2.09881 13.9939 2.00611C13.9012 1.9134 13.7758 1.86082 13.6447 1.85968C13.5136 1.85854 13.3873 1.90894 13.293 2.00002L12 3.29302C11.9523 3.33914 11.9142 3.39431 11.888 3.45532C11.8618 3.51632 11.848 3.58193 11.8474 3.64832C11.8468 3.71471 11.8595 3.78055 11.8846 3.84199C11.9098 3.90344 11.9469 3.95927 11.9938 4.00622C12.0408 4.05316 12.0966 4.09029 12.158 4.11543C12.2195 4.14057 12.2853 4.15322 12.3517 4.15264C12.4181 4.15207 12.4837 4.13827 12.5447 4.11207C12.6057 4.08586 12.6609 4.04777 12.707 4.00002L14 2.70702ZM7.29303 4.00002C7.33915 4.04777 7.39432 4.08586 7.45533 4.11207C7.51633 4.13827 7.58194 4.15207 7.64833 4.15264C7.71472 4.15322 7.78056 4.14057 7.842 4.11543C7.90345 4.09029 7.95928 4.05316 8.00623 4.00622C8.05317 3.95927 8.0903 3.90344 8.11544 3.84199C8.14058 3.78055 8.15323 3.71471 8.15265 3.64832C8.15208 3.58193 8.13828 3.51632 8.11208 3.45532C8.08587 3.39431 8.04778 3.33914 8.00003 3.29302L6.70703 2.00002C6.61273 1.90894 6.48642 1.85854 6.35533 1.85968C6.22423 1.86082 6.09882 1.9134 6.00612 2.00611C5.91341 2.09881 5.86083 2.22422 5.85969 2.35532C5.85855 2.48642 5.90895 2.61272 6.00003 2.70702L7.29303 4.00002ZM6.67203 6.50002C6.80464 6.50002 6.93181 6.44734 7.02558 6.35357C7.11935 6.2598 7.17203 6.13263 7.17203 6.00002C7.17203 5.86741 7.11935 5.74023 7.02558 5.64646C6.93181 5.5527 6.80464 5.50002 6.67203 5.50002H4.84303C4.71042 5.50002 4.58324 5.5527 4.48947 5.64646C4.39571 5.74023 4.34303 5.86741 4.34303 6.00002C4.34303 6.13263 4.39571 6.2598 4.48947 6.35357C4.58324 6.44734 4.71042 6.50002 4.84303 6.50002H6.67203ZM15.157 6.50002C15.2896 6.50002 15.4168 6.44734 15.5106 6.35357C15.6043 6.2598 15.657 6.13263 15.657 6.00002C15.657 5.86741 15.6043 5.74023 15.5106 5.64646C15.4168 5.5527 15.2896 5.50002 15.157 5.50002H13.328C13.1954 5.50002 13.0682 5.5527 12.9745 5.64646C12.8807 5.74023 12.828 5.86741 12.828 6.00002C12.828 6.13263 12.8807 6.2598 12.9745 6.35357C13.0682 6.44734 13.1954 6.50002 13.328 6.50002H15.157ZM13.293 10C13.3392 10.0478 13.3943 10.0859 13.4553 10.1121C13.5163 10.1383 13.5819 10.1521 13.6483 10.1526C13.7147 10.1532 13.7806 10.1406 13.842 10.1154C13.9035 10.0903 13.9593 10.0532 14.0062 10.0062C14.0532 9.95927 14.0903 9.90344 14.1154 9.84199C14.1406 9.78055 14.1532 9.71471 14.1527 9.64832C14.1521 9.58193 14.1383 9.51632 14.1121 9.45531C14.0859 9.39431 14.0478 9.33914 14 9.29302L12.707 8.00002C12.6609 7.95226 12.6057 7.91417 12.5447 7.88797C12.4837 7.86176 12.4181 7.84797 12.3517 7.84739C12.2853 7.84682 12.2195 7.85947 12.158 7.88461C12.0966 7.90975 12.0408 7.94687 11.9938 7.99382C11.9469 8.04077 11.9098 8.09659 11.8846 8.15804C11.8595 8.21949 11.8468 8.28533 11.8474 8.35172C11.848 8.41811 11.8618 8.48372 11.888 8.54472C11.9142 8.60572 11.9523 8.66089 12 8.70702L13.293 10ZM9.50003 11.157C9.50003 11.2896 9.5527 11.4168 9.64647 11.5106C9.74024 11.6043 9.86742 11.657 10 11.657C10.1326 11.657 10.2598 11.6043 10.3536 11.5106C10.4473 11.4168 10.5 11.2896 10.5 11.157V9.32802C10.5 9.19541 10.4473 9.06823 10.3536 8.97446C10.2598 8.8807 10.1326 8.82802 10 8.82802C9.86742 8.82802 9.74024 8.8807 9.64647 8.97446C9.5527 9.06823 9.50003 9.19541 9.50003 9.32802V11.157ZM11.354 6.06002C11.4475 5.96629 11.4999 5.83935 11.4999 5.70702C11.4999 5.57468 11.4475 5.44774 11.354 5.35402L10.646 4.64602C10.5523 4.55228 10.4251 4.49962 10.2925 4.49962C10.1599 4.49962 10.0328 4.55228 9.93903 4.64602L8.64603 5.94002C8.55229 6.03378 8.49963 6.16094 8.49963 6.29352C8.49963 6.4261 8.55229 6.55325 8.64603 6.64702L9.35403 7.35502C9.44779 7.44875 9.57495 7.50141 9.70753 7.50141C9.84011 7.50141 9.96726 7.44875 10.061 7.35502L11.354 6.06202V6.06002ZM8.35403 9.06002C8.44746 8.96629 8.49992 8.83935 8.49992 8.70702C8.49992 8.57468 8.44746 8.44774 8.35403 8.35402L7.64603 7.64602C7.55226 7.55228 7.42511 7.49962 7.29253 7.49962C7.15995 7.49962 7.03279 7.55228 6.93903 7.64602L0.646027 13.94C0.552292 14.0338 0.499634 14.1609 0.499634 14.2935C0.499634 14.4261 0.552292 14.5533 0.646027 14.647L1.35403 15.355C1.44779 15.4488 1.57494 15.5014 1.70753 15.5014C1.84011 15.5014 1.96726 15.4488 2.06103 15.355L8.35403 9.06002Z" fill="black"/>
</g>
<defs>
<clipPath id="clip0_104_2564">
<rect width="16" height="16" fill="white"/>
</clipPath>
</defs>
</svg>
