<svg width="16" height="16" viewBox="0 0 16 16" fill="none" xmlns="http://www.w3.org/2000/svg">
<path d="M4 4C3.20435 4 2.44129 4.31607 1.87868 4.87868C1.31607 5.44129 1 6.20435 1 7V13H7V7C7 6.20435 6.68393 5.44129 6.12132 4.87868C5.55871 4.31607 4.79565 4 4 4ZM4 3H12C13.0609 3 14.0783 3.42143 14.8284 4.17157C15.5786 4.92172 16 5.93913 16 7V13C16 13.2652 15.8946 13.5196 15.7071 13.7071C15.5196 13.8946 15.2652 14 15 14H1C0.734784 14 0.48043 13.8946 0.292893 13.7071C0.105357 13.5196 0 13.2652 0 13V7C0 5.93913 0.421427 4.92172 1.17157 4.17157C1.92172 3.42143 2.93913 3 4 3ZM6.646 4C7.07208 4.37498 7.41326 4.83654 7.64675 5.35388C7.88024 5.87122 8.00067 6.43241 8 7V13H15V7C15 6.20435 14.6839 5.44129 14.1213 4.87868C13.5587 4.31607 12.7956 4 12 4H6.646Z" fill="black"/>
<path d="M11.793 8.5H9V7.5H14C14.1326 7.5 14.2598 7.55268 14.3536 7.64645C14.4473 7.74021 14.5 7.86739 14.5 8V9C14.5 9.13261 14.4473 9.25979 14.3536 9.35355C14.2598 9.44732 14.1326 9.5 14 9.5H13C12.9343 9.50012 12.8692 9.48728 12.8085 9.46223C12.7477 9.43718 12.6925 9.4004 12.646 9.354L11.793 8.5ZM5 7C5 7.552 4.552 7 4 7C3.448 7 3 7.552 3 7C3 6.73478 3.10536 6.48043 3.29289 6.29289C3.48043 6.10536 3.73478 6 4 6C4.26522 6 4.51957 6.10536 4.70711 6.29289C4.89464 6.48043 5 6.73478 5 7Z" fill="black"/>
</svg>
