<svg xmlns="http://www.w3.org/2000/svg" width="24" height="24" viewBox="0 0 24 24" fill='currentColor'><path d="M10.085 11.5a4 4 0 1 0 0-8 4 4 0 0 0 0 8m.67 1.02c-.22-.01-.44-.02-.67-.02-2.42 0-4.68.67-6.61 1.82-.88.52-1.39 1.5-1.39 2.53v2.65h9.26a6.96 6.96 0 0 1-.59-6.98m10.08 2.98c0-.22-.03-.42-.06-.63l1.14-1.01-1-1.73-1.45.49q-.48-.405-1.08-.63l-.3-1.49h-2l-.3 1.49q-.6.225-1.08.63l-1.45-.49-1 1.73 1.14 1.01c-.03.21-.06.41-.06.63s.03.42.06.63l-1.14 1.01 1 1.73 1.45-.49q.48.405 1.08.63l.3 1.49h2l.3-1.49q.6-.225 1.08-.63l1.45.49 1-1.73-1.14-1.01c.03-.21.06-.41.06-.63m-3.75 2c-1.1 0-2-.9-2-2s.9-2 2-2 2 .9 2 2-.9 2-2 2"/></svg>