<svg width="16" height="16" viewBox="0 0 16 16" fill="none" xmlns="http://www.w3.org/2000/svg">
<g clip-path="url(#clip0_104_2574)">
<path fill-rule="evenodd" clip-rule="evenodd" d="M16 0.499942C16 0.425997 15.9835 0.352981 15.9518 0.286157C15.9202 0.219333 15.8741 0.160363 15.8169 0.113496C15.7597 0.0666293 15.6928 0.0330324 15.6211 0.0151258C15.5493 -0.00278075 15.4745 -0.00455114 15.402 0.00994222L10.5 0.989942L5.598 0.00994222C5.53331 -0.00298852 5.46669 -0.00298852 5.402 0.00994222L0.402 1.00994C0.288695 1.03259 0.186731 1.09378 0.113443 1.18311C0.0401561 1.27244 6.9782e-05 1.3844 0 1.49994L0 15.4999C4.46527e-05 15.5739 0.0164902 15.6469 0.0481518 15.7137C0.0798134 15.7806 0.125903 15.8395 0.183099 15.8864C0.240296 15.9333 0.307176 15.9669 0.378921 15.9848C0.450665 16.0027 0.525489 16.0044 0.598 15.9899L5.5 15.0099L10.402 15.9899C10.4667 16.0028 10.5333 16.0028 10.598 15.9899L15.598 14.9899C15.7113 14.9673 15.8133 14.9061 15.8866 14.8168C15.9598 14.7274 15.9999 14.6155 16 14.4999V0.499942ZM5 14.0899V1.10994L5.5 1.00994L6 1.10994V14.0899L5.598 14.0099C5.53331 13.997 5.46669 13.997 5.402 14.0099L5 14.0899ZM10 14.8899V1.90994L10.402 1.98994C10.4667 2.00287 10.5333 2.00287 10.598 1.98994L11 1.90994V14.8899L10.5 14.9899L10 14.8899Z" fill="black"/>
</g>
<defs>
<clipPath id="clip0_104_2574">
<rect width="16" height="16" fill="white"/>
</clipPath>
</defs>
</svg>
