<svg width="16" height="16" viewBox="0 0 16 16" fill="none" xmlns="http://www.w3.org/2000/svg">
<g clip-path="url(#clip0_104_2572)">
<path fill-rule="evenodd" clip-rule="evenodd" d="M15.817 0.112945C15.8743 0.159881 15.9204 0.218944 15.952 0.28587C15.9837 0.352796 16 0.425914 16 0.499945V14.4999C15.9999 14.6155 15.9598 14.7274 15.8866 14.8168C15.8133 14.9061 15.7113 14.9673 15.598 14.9899L10.598 15.9899C10.5333 16.0028 10.4667 16.0028 10.402 15.9899L5.5 15.0099L0.598 15.9899C0.525489 16.0044 0.450665 16.0027 0.378921 15.9848C0.307176 15.9669 0.240296 15.9333 0.183099 15.8864C0.125903 15.8395 0.0798134 15.7806 0.0481518 15.7137C0.0164902 15.6469 4.46527e-05 15.5739 0 15.4999L0 1.49995C6.9782e-05 1.3844 0.0401561 1.27244 0.113443 1.18311C0.186731 1.09378 0.288695 1.03259 0.402 1.00995L5.402 0.00994518C5.46669 -0.00298556 5.53331 -0.00298556 5.598 0.00994518L10.5 0.989945L15.402 0.00994518C15.4745 -0.00463901 15.5493 -0.00296549 15.6211 0.0148452C15.6928 0.0326558 15.7597 0.0661603 15.817 0.112945ZM10 1.90995L6 1.10995V14.0899L10 14.8899V1.90995ZM11 14.8899L15 14.0899V1.10995L11 1.90995V14.8899ZM5 14.0899V1.10995L1 1.90995V14.8899L5 14.0899Z" fill="black"/>
</g>
<defs>
<clipPath id="clip0_104_2572">
<rect width="16" height="16" fill="white"/>
</clipPath>
</defs>
</svg>
