<svg width="16" height="16" viewBox="0 0 16 16" xmlns="http://www.w3.org/2000/svg" fill='currentColor'><g clip-path="url(#clip0_104_2576)"><path d="M14 3C14.2652 3 14.5196 3.10536 14.7071 3.29289C14.8946 3.48043 15 3.73478 15 4V12C15 12.2652 14.8946 12.5196 14.7071 12.7071C14.5196 12.8946 14.2652 13 14 13H2C1.73478 13 1.48043 12.8946 1.29289 12.7071C1.10536 12.5196 1 12.2652 1 12V4C1 3.73478 1.10536 3.48043 1.29289 3.29289C1.48043 3.10536 1.73478 3 2 3H14ZM2 2C1.46957 2 0.960859 2.21071 0.585786 2.58579C0.210714 2.96086 0 3.46957 0 4L0 12C0 12.5304 0.210714 13.0391 0.585786 13.4142C0.960859 13.7893 1.46957 14 2 14H14C14.5304 14 15.0391 13.7893 15.4142 13.4142C15.7893 13.0391 16 12.5304 16 12V4C16 3.46957 15.7893 2.96086 15.4142 2.58579C15.0391 2.21071 14.5304 2 14 2H2Z"/><path fill-rule="evenodd" clip-rule="evenodd" d="M9.14598 8.14604C9.19242 8.09948 9.2476 8.06253 9.30834 8.03733C9.36909 8.01212 9.43421 7.99915 9.49998 7.99915C9.56575 7.99915 9.63087 8.01212 9.69161 8.03733C9.75236 8.06253 9.80753 8.09948 9.85398 8.14604L11.5 9.79304L13.146 8.14604C13.1925 8.09955 13.2477 8.06267 13.3084 8.03752C13.3691 8.01236 13.4342 7.99941 13.5 7.99941C13.5657 7.99941 13.6308 8.01236 13.6916 8.03752C13.7523 8.06267 13.8075 8.09955 13.854 8.14604C13.9005 8.19253 13.9373 8.24772 13.9625 8.30846C13.9877 8.36919 14.0006 8.4343 14.0006 8.50004C14.0006 8.56578 13.9877 8.63088 13.9625 8.69162C13.9373 8.75236 13.9005 8.80755 13.854 8.85404L11.854 10.854C11.8075 10.9006 11.7524 10.9375 11.6916 10.9628C11.6309 10.988 11.5657 11.0009 11.5 11.0009C11.4342 11.0009 11.3691 10.988 11.3083 10.9628C11.2476 10.9375 11.1924 10.9006 11.146 10.854L9.14598 8.85404C9.09941 8.80759 9.06247 8.75242 9.03727 8.69167C9.01206 8.63093 8.99908 8.56581 8.99908 8.50004C8.99908 8.43427 9.01206 8.36915 9.03727 8.30841C9.06247 8.24766 9.09941 8.19248 9.14598 8.14604Z"/><path fill-rule="evenodd" clip-rule="evenodd" d="M11.5 5C11.6326 5 11.7598 5.05268 11.8536 5.14645C11.9473 5.24021 12 5.36739 12 5.5V9.5C12 9.63261 11.9473 9.75979 11.8536 9.85355C11.7598 9.94732 11.6326 10 11.5 10C11.3674 10 11.2402 9.94732 11.1464 9.85355C11.0527 9.75979 11 9.63261 11 9.5V5.5C11 5.36739 11.0527 5.24021 11.1464 5.14645C11.2402 5.05268 11.3674 5 11.5 5Z"/><path d="M3.56 11V7.00998H3.616L5.044 10.249H5.818L7.238 7.00898H7.294V11H8.367V5.00098H7.167L5.457 8.89498H5.418L3.708 5.00098H2.5V11H3.56Z"/></g><defs><clipPath id="clip0_104_2576"><rect width="16" height="16"/></clipPath></defs></svg>