<svg width="16" height="16" viewBox="0 0 16 16" xmlns="http://www.w3.org/2000/svg" fill='currentColor'><path d="M0 4C0 3.46957 0.210714 2.96086 0.585786 2.58579C0.960859 2.21071 1.46957 2 2 2H14C14.5304 2 15.0391 2.21071 15.4142 2.58579C15.7893 2.96086 16 3.46957 16 4V12C16 12.5304 15.7893 13.0391 15.4142 13.4142C15.0391 13.7893 14.5304 14 14 14H2C1.46957 14 0.960859 13.7893 0.585786 13.4142C0.210714 13.0391 0 12.5304 0 12V4ZM11.5 5C11.3674 5 11.2402 5.05268 11.1464 5.14645C11.0527 5.24021 11 5.36739 11 5.5V9.293L9.854 8.146C9.76011 8.05211 9.63278 7.99937 9.5 7.99937C9.36722 7.99937 9.23989 8.05211 9.146 8.146C9.05211 8.23989 8.99937 8.36722 8.99937 8.5C8.99937 8.63278 9.05211 8.76011 9.146 8.854L11.146 10.854C11.1924 10.9006 11.2476 10.9375 11.3084 10.9627C11.3691 10.9879 11.4342 11.0009 11.5 11.0009C11.5658 11.0009 11.6309 10.9879 11.6916 10.9627C11.7524 10.9375 11.8076 10.9006 11.854 10.854L13.854 8.854C13.9479 8.76011 14.0006 8.63278 14.0006 8.5C14.0006 8.36722 13.9479 8.23989 13.854 8.146C13.7601 8.05211 13.6328 7.99937 13.5 7.99937C13.3672 7.99937 13.2399 8.05211 13.146 8.146L12 9.293V5.5C12 5.36739 11.9473 5.24021 11.8536 5.14645C11.7598 5.05268 11.6326 5 11.5 5ZM3.56 7.01H3.616L5.044 10.249H5.818L7.238 7.009H7.294V11H8.367V5.001H7.167L5.457 8.895H5.418L3.708 5.001H2.5V11H3.56V7.01Z"/></svg>