<svg width="16" height="16" viewBox="0 0 16 16" xmlns="http://www.w3.org/2000/svg" fill='currentColor'><g clip-path="url(#clip0_104_2583)"><path d="M6.225 1.22698C7.50482 1.83653 8.58568 2.7963 9.3423 3.99505C10.0989 5.19379 10.5003 6.58242 10.5 7.99998C10.5003 9.41754 10.0989 10.8062 9.3423 12.0049C8.58568 13.2037 7.50482 14.1634 6.225 14.773C7.26022 15.0432 8.34361 15.0726 9.39194 14.8588C10.4403 14.645 11.4256 14.1938 12.2724 13.5397C13.1191 12.8857 13.8046 12.0462 14.2763 11.0859C14.7479 10.1256 14.9932 9.06989 14.9932 7.99998C14.9932 6.93007 14.7479 5.8744 14.2763 4.91406C13.8046 3.95373 13.1191 3.11429 12.2724 2.46025C11.4256 1.8062 10.4403 1.35494 9.39194 1.14115C8.34361 0.927362 7.26022 0.956722 6.225 1.22698ZM4.187 0.965979C6.05267 -0.0454241 8.2437 -0.27427 10.2781 0.329785C12.3125 0.933839 14.0236 2.32131 15.035 4.18698C16.0464 6.05264 16.2753 8.24368 15.6712 10.2781C15.0671 12.3125 13.6797 14.0236 11.814 15.035C9.94807 16.0465 7.75673 16.2754 5.72206 15.6712C3.68738 15.0671 1.97604 13.6794 0.964502 11.8135C-0.0470338 9.94755 -0.275902 7.75621 0.328247 5.72153C0.932395 3.68686 2.32007 1.97551 4.186 0.963979L4.187 0.965979Z"/></g><defs><clipPath id="clip0_104_2583"><rect width="16" height="16"/></clipPath></defs></svg>