<svg width="16" height="16" viewBox="0 0 16 16" xmlns="http://www.w3.org/2000/svg" fill='currentColor'><g clip-path="url(#clip0_104_2585)"><path d="M11.19 12.195C13.206 11.955 14.96 10.72 15.18 9.592C15.528 7.814 15.5 5.253 15.5 5.253C15.5 1.783 13.214 0.765 13.214 0.765C12.062 0.238 10.083 0.017 8.027 0H7.977C5.92 0.017 3.942 0.238 2.79 0.765C2.79 0.765 0.505002 1.782 0.505002 5.253L0.503002 5.915C0.499002 6.555 0.496002 7.265 0.514002 8.006C0.597002 11.4 1.14 14.746 4.294 15.576C5.748 15.959 6.997 16.039 8.003 15.984C9.826 15.884 10.85 15.337 10.85 15.337L10.79 14.02C10.79 14.02 9.487 14.43 8.023 14.38C6.573 14.33 5.043 14.224 4.808 12.452C4.78563 12.2876 4.7746 12.1219 4.775 11.956C4.775 11.956 6.199 12.302 8.003 12.384C9.106 12.434 10.14 12.32 11.191 12.195H11.19ZM12.803 9.725H11.13V5.645C11.13 4.786 10.766 4.35 10.039 4.35C9.235 4.35 8.832 4.867 8.832 5.891V8.124H7.168V5.89C7.168 4.866 6.765 4.349 5.961 4.349C5.234 4.349 4.87 4.785 4.87 5.645V9.724H3.197V5.522C3.197 4.663 3.417 3.981 3.857 3.476C4.313 2.971 4.909 2.712 5.65 2.712C6.506 2.712 7.154 3.04 7.583 3.695L8 4.39L8.417 3.695C8.846 3.04 9.494 2.712 10.351 2.712C11.091 2.712 11.687 2.971 12.142 3.476C12.584 3.981 12.803 4.663 12.803 5.522V9.725Z"/></g><defs><clipPath id="clip0_104_2585"><rect width="16" height="16"/></clipPath></defs></svg>