<svg width="24" height="24" viewBox="0 0 24 24" xmlns="http://www.w3.org/2000/svg" fill='currentColor'><path d="M9.305 5.46498V2.29498H15.305V6.29498H11.305V7.46498L9.305 5.46498ZM19.725 14.295L22.305 16.865L21.505 17.665L14.725 10.885L15.525 10.085L18.275 12.835V8.29498H18.875L22.305 11.725L19.725 14.295ZM19.475 12.845L20.605 11.715L19.475 10.585V12.845ZM21.495 20.485L20.085 21.895L16.105 17.915L15.525 18.495L14.675 17.645L15.255 17.065L11.305 13.125V16.295C11.305 18.505 9.525 20.295 7.315 20.295C5.105 20.295 3.305 18.505 3.305 16.295C3.305 14.085 5.095 12.295 7.315 12.295C8.045 12.295 8.725 12.505 9.315 12.845V11.125L1.695 3.51498L3.105 2.10498L21.495 20.485Z"/></svg>