<svg width="16" height="16" viewBox="0 0 16 16" fill="none" xmlns="http://www.w3.org/2000/svg">
<g clip-path="url(#clip0_104_2589)">
<path d="M13 2.5C13 2.10218 13.158 1.72064 13.4393 1.43934C13.7206 1.15804 14.1022 1 14.5 1C14.8978 1 15.2794 1.15804 15.5607 1.43934C15.842 1.72064 16 2.10218 16 2.5V13.5C16 13.8978 15.842 14.2794 15.5607 14.5607C15.2794 14.842 14.8978 15 14.5 15C14.1022 15 13.7206 14.842 13.4393 14.5607C13.158 14.2794 13 13.8978 13 13.5V13.286C10.838 12.045 8.51 11.443 6.088 11.203L6.493 13.915C6.5202 14.0595 6.5152 14.2082 6.47837 14.3505C6.44154 14.4928 6.37378 14.6253 6.27992 14.7385C6.18605 14.8516 6.06839 14.9427 5.93532 15.0052C5.80224 15.0677 5.65702 15.1 5.51 15.1H4.962C4.76762 15.1 4.57746 15.0433 4.41478 14.9369C4.2521 14.8306 4.12395 14.6791 4.046 14.501L2.196 11.011C2.12867 11.0099 2.06133 11.0089 1.994 11.008C1.46436 11.0027 0.95812 10.7891 0.584905 10.4132C0.211691 10.0374 0.00155184 9.52966 0 9L0 7C0.00178478 6.47029 0.21157 5.96248 0.584163 5.58596C0.956756 5.20944 1.46234 4.99434 1.992 4.987C2.82003 4.97577 3.64781 4.95077 4.475 4.912C7.518 4.758 10.623 4.063 13 2.713V2.5ZM14 2.5V13.5C14 13.6326 14.0527 13.7598 14.1464 13.8536C14.2402 13.9473 14.3674 14 14.5 14C14.6326 14 14.7598 13.9473 14.8536 13.8536C14.9473 13.7598 15 13.6326 15 13.5V2.5C15 2.36739 14.9473 2.24021 14.8536 2.14645C14.7598 2.05268 14.6326 2 14.5 2C14.3674 2 14.2402 2.05268 14.1464 2.14645C14.0527 2.24021 14 2.36739 14 2.5ZM13 3.85C10.656 5.055 7.791 5.692 5 5.883V10.116C5.18 10.126 5.359 10.138 5.537 10.152C8.105 10.341 10.63 10.896 13 12.145V3.85ZM4 10.065V5.935C3.3362 5.95929 2.67216 5.97662 2.008 5.987C1.74077 5.99014 1.48545 6.09803 1.29695 6.28747C1.10844 6.47691 1.00182 6.73276 1 7V9C1 9.55 1.448 10.002 2.006 10.009C2.67093 10.0167 3.33569 10.0354 4 10.065ZM3.343 11.04L4.952 14.077L4.962 14.101H5.51L5.508 14.087L5.065 11.121C4.49137 11.0864 3.91732 11.0591 3.343 11.039V11.04Z" fill="black"/>
</g>
<defs>
<clipPath id="clip0_104_2589">
<rect width="16" height="16" fill="white"/>
</clipPath>
</defs>
</svg>
