<svg width="16" height="16" viewBox="0 0 16 16" xmlns="http://www.w3.org/2000/svg" fill='currentColor'><path d="M13 2.5C13 2.10218 13.158 1.72064 13.4393 1.43934C13.7206 1.15804 14.1022 1 14.5 1C14.8978 1 15.2794 1.15804 15.5607 1.43934C15.842 1.72064 16 2.10218 16 2.5V13.5C16 13.8978 15.842 14.2794 15.5607 14.5607C15.2794 14.842 14.8978 15 14.5 15C14.1022 15 13.7206 14.842 13.4393 14.5607C13.158 14.2794 13 13.8978 13 13.5V2.5ZM12 3.224C9.933 4.174 7.461 4.705 5 4.88V11.117C5.36324 11.1375 5.72599 11.1658 6.088 11.202C8.141 11.406 10.126 11.87 12 12.762V3.224ZM4 11.065V4.934C3.32 4.961 2.601 4.977 1.992 4.987C1.46234 4.99434 0.956756 5.20944 0.584163 5.58596C0.21157 5.96248 0.00178478 6.47029 0 7L0 9C0 10.106 0.896 10.996 1.994 11.009C2.15934 11.0111 2.32468 11.0137 2.49 11.017C2.9935 11.0271 3.49687 11.0431 4 11.065ZM5.39 12.146C5.675 12.167 5.959 12.193 6.24 12.224L6.493 13.914C6.52053 14.0586 6.51579 14.2075 6.47911 14.3501C6.44243 14.4927 6.37473 14.6254 6.28083 14.7388C6.18692 14.8522 6.06914 14.9435 5.9359 15.0061C5.80265 15.0687 5.65722 15.1011 5.51 15.101H4.962C4.76762 15.101 4.57746 15.0443 4.41478 14.9379C4.2521 14.8316 4.12395 14.6801 4.046 14.502L2.732 12.022C3.29625 12.0361 3.8603 12.0574 4.424 12.086C4.751 12.103 5.074 12.123 5.39 12.146Z"/></svg>