<svg width="16" height="16" viewBox="0 0 16 16" fill="none" xmlns="http://www.w3.org/2000/svg">
<path d="M0 1.5C0 1.10218 0.158035 0.720644 0.43934 0.43934C0.720644 0.158035 1.10218 0 1.5 0L14.5 0C14.8978 0 15.2794 0.158035 15.5607 0.43934C15.842 0.720644 16 1.10218 16 1.5V3.5C16 3.89782 15.842 4.27936 15.5607 4.56066C15.2794 4.84196 14.8978 5 14.5 5H1.5C1.10218 5 0.720644 4.84196 0.43934 4.56066C0.158035 4.27936 0 3.89782 0 3.5L0 1.5ZM1.5 1C1.36739 1 1.24021 1.05268 1.14645 1.14645C1.05268 1.24021 1 1.36739 1 1.5V3.5C1 3.63261 1.05268 3.75979 1.14645 3.85355C1.24021 3.94732 1.36739 4 1.5 4H14.5C14.6326 4 14.7598 3.94732 14.8536 3.85355C14.9473 3.75979 15 3.63261 15 3.5V1.5C15 1.36739 14.9473 1.24021 14.8536 1.14645C14.7598 1.05268 14.6326 1 14.5 1H1.5Z" fill="black"/>
<path d="M2 2.5C2 2.36739 2.05268 2.24022 2.14645 2.14645C2.24021 2.05268 2.36739 2 2.5 2H5.5C5.63261 2 5.75979 2.05268 5.85355 2.14645C5.94732 2.24022 6 2.36739 6 2.5C6 2.63261 5.94732 2.75979 5.85355 2.85355C5.75979 2.94732 5.63261 3 5.5 3H2.5C2.36739 3 2.24021 2.94732 2.14645 2.85355C2.05268 2.75979 2 2.63261 2 2.5ZM12.823 2.823L12.427 2.427C12.3919 2.39204 12.3681 2.34745 12.3584 2.2989C12.3487 2.25034 12.3536 2.20001 12.3726 2.15427C12.3916 2.10853 12.4237 2.06945 12.4649 2.04199C12.5061 2.01453 12.5545 1.99991 12.604 2H13.396C13.4455 1.99991 13.4939 2.01453 13.5351 2.04199C13.5763 2.06945 13.6084 2.10853 13.6274 2.15427C13.6464 2.20001 13.6513 2.25034 13.6416 2.2989C13.6319 2.34745 13.6081 2.39204 13.573 2.427L13.177 2.823C13.1538 2.84628 13.1262 2.86475 13.0958 2.87736C13.0654 2.88996 13.0329 2.89645 13 2.89645C12.9671 2.89645 12.9346 2.88996 12.9042 2.87736C12.8738 2.86475 12.8462 2.84628 12.823 2.823ZM0 8C0 7.46957 0.210714 6.96086 0.585786 6.58579C0.960859 6.21071 1.46957 6 2 6H14C14.5304 6 15.0391 6.21071 15.4142 6.58579C15.7893 6.96086 16 7.46957 16 8V13C16 13.5304 15.7893 14.0391 15.4142 14.4142C15.0391 14.7893 14.5304 15 14 15H2C1.46957 15 0.960859 14.7893 0.585786 14.4142C0.210714 14.0391 0 13.5304 0 13V8ZM1 11V13C1 13.2652 1.10536 13.5196 1.29289 13.7071C1.48043 13.8946 1.73478 14 2 14H14C14.2652 14 14.5196 13.8946 14.7071 13.7071C14.8946 13.5196 15 13.2652 15 13V11H1ZM15 10V8C15 7.73478 14.8946 7.48043 14.7071 7.29289C14.5196 7.10536 14.2652 7 14 7H2C1.73478 7 1.48043 7.10536 1.29289 7.29289C1.10536 7.48043 1 7.73478 1 8V10H15ZM2 8.5C2 8.36739 2.05268 8.24021 2.14645 8.14645C2.24021 8.05268 2.36739 8 2.5 8H11.5C11.6326 8 11.7598 8.05268 11.8536 8.14645C11.9473 8.24021 12 8.36739 12 8.5C12 8.63261 11.9473 8.75979 11.8536 8.85355C11.7598 8.94732 11.6326 9 11.5 9H2.5C2.36739 9 2.24021 8.94732 2.14645 8.85355C2.05268 8.75979 2 8.63261 2 8.5ZM2 12.5C2 12.3674 2.05268 12.2402 2.14645 12.1464C2.24021 12.0527 2.36739 12 2.5 12H8.5C8.63261 12 8.75979 12.0527 8.85355 12.1464C8.94732 12.2402 9 12.3674 9 12.5C9 12.6326 8.94732 12.7598 8.85355 12.8536C8.75979 12.9473 8.63261 13 8.5 13H2.5C2.36739 13 2.24021 12.9473 2.14645 12.8536C2.05268 12.7598 2 12.6326 2 12.5Z" fill="black"/>
</svg>
