<svg width="16" height="16" viewBox="0 0 16 16" fill="none" xmlns="http://www.w3.org/2000/svg">
<path d="M0 1.5C0 1.10218 0.158035 0.720644 0.43934 0.43934C0.720644 0.158035 1.10218 0 1.5 0L9.5 0C9.89782 0 10.2794 0.158035 10.5607 0.43934C10.842 0.720644 11 1.10218 11 1.5V3.5C11 3.89782 10.842 4.27936 10.5607 4.56066C10.2794 4.84196 9.89782 5 9.5 5H1.5C1.10218 5 0.720644 4.84196 0.43934 4.56066C0.158035 4.27936 0 3.89782 0 3.5L0 1.5ZM1.5 1C1.36739 1 1.24021 1.05268 1.14645 1.14645C1.05268 1.24021 1 1.36739 1 1.5V3.5C1 3.63261 1.05268 3.75979 1.14645 3.85355C1.24021 3.94732 1.36739 4 1.5 4H9.5C9.63261 4 9.75979 3.94732 9.85355 3.85355C9.94732 3.75979 10 3.63261 10 3.5V1.5C10 1.36739 9.94732 1.24021 9.85355 1.14645C9.75979 1.05268 9.63261 1 9.5 1H1.5Z" fill="black"/>
<path d="M7.823 2.823L7.427 2.427C7.39195 2.39204 7.36806 2.34745 7.35838 2.2989C7.3487 2.25034 7.35365 2.20001 7.37261 2.15427C7.39157 2.10853 7.42368 2.06945 7.46487 2.04199C7.50607 2.01453 7.55449 1.99991 7.604 2H8.396C8.44551 1.99991 8.49393 2.01453 8.53513 2.04199C8.57632 2.06945 8.60843 2.10853 8.62739 2.15427C8.64635 2.20001 8.6513 2.25034 8.64162 2.2989C8.63194 2.34745 8.60805 2.39204 8.573 2.427L8.177 2.823C8.15378 2.84628 8.12619 2.86475 8.09582 2.87736C8.06544 2.88996 8.03288 2.89645 8 2.89645C7.96712 2.89645 7.93456 2.88996 7.90418 2.87736C7.87381 2.86475 7.84622 2.84628 7.823 2.823ZM0 8C0 7.46957 0.210714 6.96086 0.585786 6.58579C0.960859 6.21071 1.46957 6 2 6H14C14.5304 6 15.0391 6.21071 15.4142 6.58579C15.7893 6.96086 16 7.46957 16 8V13C16 13.5304 15.7893 14.0391 15.4142 14.4142C15.0391 14.7893 14.5304 15 14 15H2C1.46957 15 0.960859 14.7893 0.585786 14.4142C0.210714 14.0391 0 13.5304 0 13V8ZM1 11V13C1 13.2652 1.10536 13.5196 1.29289 13.7071C1.48043 13.8946 1.73478 14 2 14H14C14.2652 14 14.5196 13.8946 14.7071 13.7071C14.8946 13.5196 15 13.2652 15 13V11H1ZM15 10V8C15 7.73478 14.8946 7.48043 14.7071 7.29289C14.5196 7.10536 14.2652 7 14 7H2C1.73478 7 1.48043 7.10536 1.29289 7.29289C1.10536 7.48043 1 7.73478 1 8V10H15ZM2 8.5C2 8.36739 2.05268 8.24021 2.14645 8.14645C2.24021 8.05268 2.36739 8 2.5 8H11.5C11.6326 8 11.7598 8.05268 11.8536 8.14645C11.9473 8.24021 12 8.36739 12 8.5C12 8.63261 11.9473 8.75979 11.8536 8.85355C11.7598 8.94732 11.6326 9 11.5 9H2.5C2.36739 9 2.24021 8.94732 2.14645 8.85355C2.05268 8.75979 2 8.63261 2 8.5ZM2 12.5C2 12.3674 2.05268 12.2402 2.14645 12.1464C2.24021 12.0527 2.36739 12 2.5 12H8.5C8.63261 12 8.75979 12.0527 8.85355 12.1464C8.94732 12.2402 9 12.3674 9 12.5C9 12.6326 8.94732 12.7598 8.85355 12.8536C8.75979 12.9473 8.63261 13 8.5 13H2.5C2.36739 13 2.24021 12.9473 2.14645 12.8536C2.05268 12.7598 2 12.6326 2 12.5Z" fill="black"/>
</svg>
