<svg width="16" height="16" viewBox="0 0 16 16" fill="none" xmlns="http://www.w3.org/2000/svg">
<g clip-path="url(#clip0_104_2607)">
<path d="M7.646 0.146039C7.69245 0.0994761 7.74762 0.0625332 7.80837 0.0373268C7.86911 0.0121203 7.93423 -0.000854492 8 -0.000854492C8.06577 -0.000854492 8.13089 0.0121203 8.19163 0.0373268C8.25238 0.0625332 8.30755 0.0994761 8.354 0.146039L10.207 2.00004H14C14.5304 2.00004 15.0391 2.21075 15.4142 2.58583C15.7893 2.9609 16 3.46961 16 4.00004V13C16 13.5305 15.7893 14.0392 15.4142 14.4143C15.0391 14.7893 14.5304 15 14 15H2C1.46957 15 0.960859 14.7893 0.585786 14.4143C0.210714 14.0392 0 13.5305 0 13V4.00004C0 3.46961 0.210714 2.9609 0.585786 2.58583C0.960859 2.21075 1.46957 2.00004 2 2.00004H5.793L7.646 0.146039ZM1 7.00004V10H15V7.00004H1ZM15 6.00004V4.00004C15 3.73482 14.8946 3.48047 14.7071 3.29293C14.5196 3.1054 14.2652 3.00004 14 3.00004H10.207C9.9418 2.99998 9.68749 2.89459 9.5 2.70704L8 1.20704L6.5 2.70704C6.31251 2.89459 6.0582 2.99998 5.793 3.00004H2C1.73478 3.00004 1.48043 3.1054 1.29289 3.29293C1.10536 3.48047 1 3.73482 1 4.00004V6.00004H15ZM15 11H1V13C1 13.2653 1.10536 13.5196 1.29289 13.7071C1.48043 13.8947 1.73478 14 2 14H14C14.2652 14 14.5196 13.8947 14.7071 13.7071C14.8946 13.5196 15 13.2653 15 13V11ZM2 4.50004C2 4.36743 2.05268 4.24025 2.14645 4.14649C2.24021 4.05272 2.36739 4.00004 2.5 4.00004H10.5C10.6326 4.00004 10.7598 4.05272 10.8536 4.14649C10.9473 4.24025 11 4.36743 11 4.50004C11 4.63265 10.9473 4.75982 10.8536 4.85359C10.7598 4.94736 10.6326 5.00004 10.5 5.00004H2.5C2.36739 5.00004 2.24021 4.94736 2.14645 4.85359C2.05268 4.75982 2 4.63265 2 4.50004ZM2 8.50004C2 8.36743 2.05268 8.24025 2.14645 8.14649C2.24021 8.05272 2.36739 8.00004 2.5 8.00004H13.5C13.6326 8.00004 13.7598 8.05272 13.8536 8.14649C13.9473 8.24025 14 8.36743 14 8.50004C14 8.63265 13.9473 8.75982 13.8536 8.85359C13.7598 8.94736 13.6326 9.00004 13.5 9.00004H2.5C2.36739 9.00004 2.24021 8.94736 2.14645 8.85359C2.05268 8.75982 2 8.63265 2 8.50004ZM2 12.5C2 12.3674 2.05268 12.2403 2.14645 12.1465C2.24021 12.0527 2.36739 12 2.5 12H8.5C8.63261 12 8.75979 12.0527 8.85355 12.1465C8.94732 12.2403 9 12.3674 9 12.5C9 12.6326 8.94732 12.7598 8.85355 12.8536C8.75979 12.9474 8.63261 13 8.5 13H2.5C2.36739 13 2.24021 12.9474 2.14645 12.8536C2.05268 12.7598 2 12.6326 2 12.5Z" fill="black"/>
</g>
<defs>
<clipPath id="clip0_104_2607">
<rect width="16" height="16" fill="white"/>
</clipPath>
</defs>
</svg>
