<svg width="24" height="24" viewBox="0 0 24 24" xmlns="http://www.w3.org/2000/svg" fill='currentColor'><path d="M21.9 20.8851L3.52001 2.50507L2.10001 3.91507L5.88001 7.69507H4.71001L5.71001 17.6951H6.71001C6.71001 19.9051 8.50001 21.6951 10.71 21.6951C12.92 21.6951 14.71 19.9051 14.71 17.6951V16.5251L20.49 22.3051L21.9 20.8851ZM12.71 17.6951C12.71 18.7951 11.81 19.6951 10.71 19.6951C9.61001 19.6951 8.71001 18.7951 8.71001 17.6951H9.71001L10.27 12.0851L12.71 14.5251V17.6951ZM14.71 5.69507V10.8651L12.71 8.86507V5.69507C12.71 3.48507 14.5 1.69507 16.71 1.69507C18.92 1.69507 20.71 3.48507 20.71 5.69507V16.8651L18.71 14.8651V5.69507C18.71 4.59507 17.81 3.69507 16.71 3.69507C15.61 3.69507 14.71 4.59507 14.71 5.69507ZM10.71 4.69507C10.71 5.31507 10.51 5.87507 10.19 6.35507L6.04001 2.20507C6.52001 1.88507 7.09001 1.69507 7.71001 1.69507C9.37001 1.69507 10.71 3.03507 10.71 4.69507Z"/></svg>