<svg width="16" height="16" viewBox="0 0 16 16" fill="none" xmlns="http://www.w3.org/2000/svg">
<g clip-path="url(#clip0_104_2627)">
<path d="M3.99999 15C3.73477 15 3.48042 14.8946 3.29288 14.7071C3.10534 14.5196 2.99999 14.2652 2.99999 14C2.99999 13.7348 3.10534 13.4804 3.29288 13.2929C3.48042 13.1054 3.73477 13 3.99999 13C4.2652 13 4.51956 13.1054 4.70709 13.2929C4.89463 13.4804 4.99999 13.7348 4.99999 14C4.99999 14.2652 4.89463 14.5196 4.70709 14.7071C4.51956 14.8946 4.2652 15 3.99999 15ZM3.99999 16C4.53042 16 5.03913 15.7893 5.4142 15.4142C5.78927 15.0391 5.99999 14.5304 5.99999 14C5.99999 13.4696 5.78927 12.9609 5.4142 12.5858C5.03913 12.2107 4.53042 12 3.99999 12C3.46955 12 2.96084 12.2107 2.58577 12.5858C2.2107 12.9609 1.99999 13.4696 1.99999 14C1.99999 14.5304 2.2107 15.0391 2.58577 15.4142C2.96084 15.7893 3.46955 16 3.99999 16ZM12 15C11.7348 15 11.4804 14.8946 11.2929 14.7071C11.1053 14.5196 11 14.2652 11 14C11 13.7348 11.1053 13.4804 11.2929 13.2929C11.4804 13.1054 11.7348 13 12 13C12.2652 13 12.5196 13.1054 12.7071 13.2929C12.8946 13.4804 13 13.7348 13 14C13 14.2652 12.8946 14.5196 12.7071 14.7071C12.5196 14.8946 12.2652 15 12 15ZM12 16C12.5304 16 13.0391 15.7893 13.4142 15.4142C13.7893 15.0391 14 14.5304 14 14C14 13.4696 13.7893 12.9609 13.4142 12.5858C13.0391 12.2107 12.5304 12 12 12C11.4696 12 10.9608 12.2107 10.5858 12.5858C10.2107 12.9609 9.99999 13.4696 9.99999 14C9.99999 14.5304 10.2107 15.0391 10.5858 15.4142C10.9608 15.7893 11.4696 16 12 16ZM0.114985 3.18C0.161997 3.12356 0.220867 3.07817 0.287409 3.04706C0.353951 3.01595 0.42653 2.99988 0.499985 3H15.5C15.5734 3.00007 15.6459 3.0163 15.7123 3.04755C15.7788 3.0788 15.8375 3.12429 15.8844 3.1808C15.9312 3.23731 15.9651 3.30345 15.9835 3.37452C16.0019 3.44559 16.0045 3.51984 15.991 3.592L14.491 11.592C14.4695 11.7066 14.4087 11.8101 14.3191 11.8846C14.2294 11.9591 14.1166 11.9999 14 12H1.99999C1.88342 11.9999 1.77055 11.9591 1.6809 11.8846C1.59124 11.8101 1.53043 11.7066 1.50899 11.592L0.00898534 3.592C-0.00457586 3.51991 -0.00210962 3.44572 0.0162092 3.37469C0.034528 3.30367 0.0682506 3.23754 0.114985 3.181V3.18ZM1.10199 4L2.41499 11H13.585L14.898 4H1.10199Z" fill="black"/>
</g>
<defs>
<clipPath id="clip0_104_2627">
<rect width="16" height="16" fill="white"/>
</clipPath>
</defs>
</svg>
