<svg width="24" height="24" viewBox="0 0 24 24" xmlns="http://www.w3.org/2000/svg" fill='currentColor'><path d="M16.645 8.05482L14.355 8.87482C14.175 8.74482 13.975 8.62482 13.775 8.53482C13.945 7.70482 14.405 6.95482 15.135 6.47482C17.155 5.13482 16.485 1.69482 13.695 1.69482C10.615 1.69482 8.795 3.16482 8.395 4.95482L19.035 15.5948C20.535 15.9848 22.305 15.0848 22.305 13.0848C22.305 8.69482 19.295 6.85482 16.645 8.05482Z"/><path d="M3.115 2.50482L1.695 3.91482L5.575 7.79482C4.075 7.39482 2.305 8.30482 2.305 10.3048C2.305 14.7048 5.315 16.5448 7.965 15.3348L10.255 14.5148C10.435 14.6448 10.635 14.7648 10.835 14.8548C10.665 15.6848 10.205 16.4348 9.475 16.9148C7.455 18.2548 8.125 21.6948 10.915 21.6948C13.995 21.6948 15.815 20.2248 16.215 18.4348L20.085 22.3048L21.495 20.8948L3.115 2.50482Z"/></svg>