<svg width="24" height="24" viewBox="0 0 24 24" xmlns="http://www.w3.org/2000/svg" fill='currentColor'><path d="M16.645 8.05507L14.355 8.87507C14.175 8.74507 13.975 8.62507 13.775 8.53507C13.945 7.70507 14.405 6.95507 15.135 6.47507C17.155 5.13507 16.485 1.69507 13.695 1.69507C10.615 1.69507 8.795 3.16507 8.395 4.95507L19.035 15.5951C20.535 15.9851 22.305 15.0851 22.305 13.0851C22.305 8.69507 19.295 6.85507 16.645 8.05507Z"/><path d="M3.115 2.50507L1.695 3.91507L5.575 7.79507C4.075 7.39507 2.305 8.30507 2.305 10.3051C2.305 14.7051 5.315 16.5451 7.965 15.3351L10.255 14.5151C10.435 14.6451 10.635 14.7651 10.835 14.8551C10.665 15.6851 10.205 16.4351 9.475 16.9151C7.455 18.2551 8.125 21.6951 10.915 21.6951C13.995 21.6951 15.815 20.2251 16.215 18.4351L20.085 22.3051L21.495 20.8951L3.115 2.50507Z"/></svg>