<svg xmlns="http://www.w3.org/2000/svg" width="24" height="24" viewBox="0 0 24 24" fill='currentColor'><path d="m16.645 8.055-2.29.82c-.18-.13-.38-.25-.58-.34.17-.83.63-1.58 1.36-2.06 2.02-1.34 1.35-4.78-1.44-4.78-3.08 0-4.9 1.47-5.3 3.26l10.64 10.64c1.5.39 3.27-.51 3.27-2.51 0-4.39-3.01-6.23-5.66-5.03m-13.53-5.55-1.42 1.41 3.88 3.88c-1.5-.4-3.27.51-3.27 2.51 0 4.4 3.01 6.24 5.66 5.03l2.29-.82c.18.13.38.25.58.34-.17.83-.63 1.58-1.36 2.06-2.02 1.34-1.35 4.78 1.44 4.78 3.08 0 4.9-1.47 5.3-3.26l3.87 3.87 1.41-1.41z"/></svg>