<svg xmlns="http://www.w3.org/2000/svg" width="24" height="24" viewBox="0 0 24 24" fill='currentColor'><path d="M11.24 6.72c.42-.31.93-.47 1.54-.47s1.11.16 1.5.49c.39.32.65.7.79 1.12l1.89-.8c-.24-.71-.71-1.35-1.4-1.92-.5-.4-1.12-.65-1.85-.77V2.29h-2V4.4q-.615.12-1.14.39c-.35.18-.64.39-.9.63l1.43 1.43c.04-.04.09-.09.14-.13M3.52 2.1 2.1 3.51l12.35 12.35c-.43.28-.95.43-1.55.43-.71 0-1.32-.23-1.83-.7-.5-.47-.86-1.07-1.06-1.81l-1.98.8q.51 1.755 1.83 2.73c.57.42 1.19.68 1.85.83v2.15h2v-2.08c.44-.07.87-.17 1.29-.35.34-.14.64-.32.92-.53l4.57 4.57 1.41-1.41z"/></svg>