<svg width="16" height="16" viewBox="0 0 16 16" xmlns="http://www.w3.org/2000/svg" fill='currentColor'><g clip-path="url(#clip0_104_2638)"><path d="M6 0.278054C6.09761 0.396667 6.15741 0.541826 6.17168 0.694777C6.18594 0.847728 6.154 1.00144 6.08 1.13605C5.50186 2.19753 5.19993 3.38735 5.202 4.59605C5.202 8.61705 8.48 11.8731 12.52 11.8731C13.047 11.8731 13.56 11.8181 14.053 11.7131C14.2041 11.6803 14.3615 11.6928 14.5056 11.749C14.6497 11.8052 14.774 11.9026 14.863 12.0291C14.957 12.1605 15.0049 12.3193 14.9993 12.4808C14.9937 12.6423 14.9349 12.7974 14.832 12.9221C14.0477 13.8855 13.0582 14.6618 11.9358 15.1942C10.8134 15.7267 9.58632 16.002 8.344 16.0001C3.734 16.0001 0 12.2861 0 7.71005C0 4.26605 2.114 1.31205 5.124 0.0600544C5.27394 -0.00331379 5.44039 -0.0163198 5.59835 0.02299C5.75631 0.0622999 5.89725 0.151803 6 0.278054ZM4.858 1.31105C3.7006 1.93188 2.73304 2.8547 2.05813 3.98142C1.38323 5.10814 1.0262 6.39666 1.025 7.71005C1.025 11.7301 4.304 14.9861 8.344 14.9861C9.31144 14.9877 10.2696 14.7975 11.1631 14.4264C12.0565 14.0553 12.8675 13.5107 13.549 12.8241C13.212 12.8661 12.869 12.8871 12.52 12.8871C7.91 12.8871 4.177 9.17305 4.177 4.59705C4.177 3.43005 4.419 2.31905 4.858 1.31105Z"/><path d="M10.794 3.14797C10.8083 3.10466 10.836 3.06698 10.8729 3.04027C10.9099 3.01356 10.9544 2.99918 11 2.99918C11.0456 2.99918 11.0901 3.01356 11.1271 3.04027C11.164 3.06698 11.1917 3.10466 11.206 3.14797L11.593 4.30997C11.766 4.82797 12.172 5.23397 12.69 5.40697L13.852 5.79397C13.8953 5.80831 13.933 5.83593 13.9597 5.87291C13.9864 5.90989 14.0008 5.95435 14.0008 5.99997C14.0008 6.04559 13.9864 6.09004 13.9597 6.12702C13.933 6.164 13.8953 6.19163 13.852 6.20597L12.69 6.59297C12.4345 6.67808 12.2024 6.82153 12.012 7.01194C11.8216 7.20235 11.6781 7.43449 11.593 7.68997L11.206 8.85197C11.1917 8.89527 11.164 8.93296 11.1271 8.95967C11.0901 8.98638 11.0456 9.00075 11 9.00075C10.9544 9.00075 10.9099 8.98638 10.8729 8.95967C10.836 8.93296 10.8083 8.89527 10.794 8.85197L10.407 7.68997C10.3219 7.43449 10.1784 7.20235 9.98803 7.01194C9.79762 6.82153 9.56548 6.67808 9.31 6.59297L8.148 6.20597C8.1047 6.19163 8.06701 6.164 8.0403 6.12702C8.01359 6.09004 7.99921 6.04559 7.99921 5.99997C7.99921 5.95435 8.01359 5.90989 8.0403 5.87291C8.06701 5.83593 8.1047 5.80831 8.148 5.79397L9.31 5.40697C9.56548 5.32185 9.79762 5.1784 9.98803 4.98799C10.1784 4.79758 10.3219 4.56544 10.407 4.30997L10.794 3.14797ZM13.863 0.0989675C13.8729 0.0704938 13.8914 0.0458034 13.9159 0.0283291C13.9405 0.0108548 13.9699 0.00146484 14 0.00146484C14.0301 0.00146484 14.0595 0.0108548 14.0841 0.0283291C14.1086 0.0458034 14.1271 0.0704938 14.137 0.0989675L14.395 0.872967C14.51 1.21897 14.781 1.48997 15.127 1.60497L15.901 1.86297C15.9295 1.87284 15.9542 1.89134 15.9716 1.91589C15.9891 1.94044 15.9985 1.96983 15.9985 1.99997C15.9985 2.0301 15.9891 2.05949 15.9716 2.08404C15.9542 2.1086 15.9295 2.1271 15.901 2.13697L15.127 2.39497C14.9565 2.45169 14.8015 2.54738 14.6745 2.67445C14.5474 2.80152 14.4517 2.95646 14.395 3.12697L14.137 3.90097C14.1271 3.92944 14.1086 3.95413 14.0841 3.97161C14.0595 3.98908 14.0301 3.99847 14 3.99847C13.9699 3.99847 13.9405 3.98908 13.9159 3.97161C13.8914 3.95413 13.8729 3.92944 13.863 3.90097L13.605 3.12697C13.5483 2.95646 13.4526 2.80152 13.3255 2.67445C13.1985 2.54738 13.0435 2.45169 12.873 2.39497L12.099 2.13697C12.0705 2.1271 12.0458 2.1086 12.0284 2.08404C12.0109 2.05949 12.0015 2.0301 12.0015 1.99997C12.0015 1.96983 12.0109 1.94044 12.0284 1.91589C12.0458 1.89134 12.0705 1.87284 12.099 1.86297L12.873 1.60497C13.219 1.48997 13.49 1.21897 13.605 0.872967L13.863 0.0999675V0.0989675Z"/></g><defs><clipPath id="clip0_104_2638"><rect width="16" height="16"/></clipPath></defs></svg>