<svg width="16" height="16" viewBox="0 0 16 16" xmlns="http://www.w3.org/2000/svg" fill='currentColor'><g clip-path="url(#clip0_104_2634)"><path d="M6 0.278054C6.09761 0.396667 6.15741 0.541826 6.17168 0.694777C6.18594 0.847728 6.154 1.00144 6.08 1.13605C5.50186 2.19753 5.19993 3.38735 5.202 4.59605C5.202 8.61705 8.48 11.8731 12.52 11.8731C13.047 11.8731 13.56 11.8181 14.053 11.7131C14.2041 11.6803 14.3615 11.6928 14.5056 11.749C14.6497 11.8052 14.774 11.9026 14.863 12.0291C14.957 12.1605 15.0049 12.3193 14.9993 12.4808C14.9937 12.6423 14.9349 12.7974 14.832 12.9221C14.0477 13.8855 13.0582 14.6618 11.9358 15.1942C10.8134 15.7267 9.58632 16.002 8.344 16.0001C3.734 16.0001 0 12.2861 0 7.71005C0 4.26605 2.114 1.31205 5.124 0.0600544C5.27394 -0.00331379 5.44039 -0.0163198 5.59835 0.02299C5.75631 0.0622999 5.89725 0.151803 6 0.278054ZM4.858 1.31105C3.7006 1.93188 2.73304 2.8547 2.05813 3.98142C1.38323 5.10814 1.0262 6.39666 1.025 7.71005C1.025 11.7301 4.304 14.9861 8.344 14.9861C9.31144 14.9877 10.2696 14.7975 11.1631 14.4264C12.0565 14.0553 12.8675 13.5107 13.549 12.8241C13.212 12.8661 12.869 12.8871 12.52 12.8871C7.91 12.8871 4.177 9.17305 4.177 4.59705C4.177 3.43005 4.419 2.31905 4.858 1.31105Z"/></g><defs><clipPath id="clip0_104_2634"><rect width="16" height="16"/></clipPath></defs></svg>