<svg width="16" height="16" viewBox="0 0 16 16" xmlns="http://www.w3.org/2000/svg" fill='currentColor'><g clip-path="url(#clip0_104_2644)"><path d="M8 3C8.13261 3 8.25979 3.05268 8.35355 3.14645C8.44732 3.24021 8.5 3.36739 8.5 3.5V5.5C8.5 5.63261 8.44732 5.75979 8.35355 5.85355C8.25979 5.94732 8.13261 6 8 6C7.86739 6 7.74021 5.94732 7.64645 5.85355C7.55268 5.75979 7.5 5.63261 7.5 5.5V3.5C7.5 3.36739 7.55268 3.24021 7.64645 3.14645C7.74021 3.05268 7.86739 3 8 3ZM12 11C12 12.0609 11.5786 13.0783 10.8284 13.8284C10.0783 14.5786 9.06087 15 8 15C6.93913 15 5.92172 14.5786 5.17157 13.8284C4.42143 13.0783 4 12.0609 4 11V5C4 3.93913 4.42143 2.92172 5.17157 2.17157C5.92172 1.42143 6.93913 1 8 1C9.06087 1 10.0783 1.42143 10.8284 2.17157C11.5786 2.92172 12 3.93913 12 5V11ZM8 0C6.67392 0 5.40215 0.526784 4.46447 1.46447C3.52678 2.40215 3 3.67392 3 5V11C3 12.3261 3.52678 13.5979 4.46447 14.5355C5.40215 15.4732 6.67392 16 8 16C9.32608 16 10.5979 15.4732 11.5355 14.5355C12.4732 13.5979 13 12.3261 13 11V5C13 3.67392 12.4732 2.40215 11.5355 1.46447C10.5979 0.526784 9.32608 0 8 0V0Z"/></g><defs><clipPath id="clip0_104_2644"><rect width="16" height="16"/></clipPath></defs></svg>