<svg width="16" height="16" viewBox="0 0 16 16" fill="none" xmlns="http://www.w3.org/2000/svg">
<path d="M7 0C6.407 0 5.896 0.157 5.473 0.463C5.055 0.765 4.756 1.189 4.543 1.671C4.123 2.619 4 3.879 4 5.187V5.691L3.382 6C2.96674 6.20762 2.6175 6.52678 2.37341 6.9217C2.12931 7.31663 2.00002 7.77173 2 8.236V10.812C2 13.659 4.22 16 7 16H9C11.78 16 14 13.658 14 10.812V7.51C14.0001 7.50333 14.0001 7.49667 14 7.49V5.186C14 4.056 13.728 3.142 13.252 2.414C12.778 1.688 12.122 1.179 11.403 0.824C9.981 0.123 8.26 0 7 0ZM9.5 6.099V1.232C10.01 1.342 10.508 1.499 10.96 1.722C11.556 2.015 12.059 2.416 12.415 2.962C12.77 3.505 13 4.224 13 5.187V6.877L9.5 6.099ZM8.5 1.074V5.877L5 5.099C5.006 3.857 5.134 2.806 5.457 2.075C5.619 1.709 5.82 1.445 6.059 1.274C6.292 1.105 6.593 1 7 1C7.468 1 7.98 1.018 8.5 1.074ZM5 6.124L13 7.9V10.812C13 13.145 11.19 15 9 15H7C4.81 15 3 13.145 3 10.812V8.236C3.00001 7.95728 3.07767 7.68408 3.22428 7.44704C3.37088 7.21 3.58063 7.01849 3.83 6.894L4.017 6.801C4.027 7.066 4.041 7.381 4.064 7.721C4.126 8.659 4.254 9.841 4.526 10.658C4.54483 10.7226 4.5765 10.7827 4.6191 10.8347C4.66171 10.8868 4.71437 10.9297 4.77395 10.9609C4.83352 10.9921 4.89878 11.011 4.96582 11.0164C5.03287 11.0218 5.10031 11.0136 5.16411 10.9923C5.22792 10.9711 5.28678 10.9371 5.33717 10.8926C5.38756 10.8481 5.42844 10.7938 5.45738 10.7331C5.48631 10.6724 5.50269 10.6064 5.50555 10.5392C5.50841 10.472 5.49767 10.405 5.474 10.342C5.247 9.659 5.124 8.592 5.061 7.654C5.02765 7.14528 5.00764 6.63577 5.001 6.126V6.124H5Z" fill="black"/>
</svg>
