<svg width="16" height="16" viewBox="0 0 16 16" fill="none" xmlns="http://www.w3.org/2000/svg">
<g clip-path="url(#clip0_104_2652)">
<path d="M8.5 0.0689485C8.00143 0.0214567 7.50083 -0.00157095 7 -5.15306e-05C6.407 -5.15306e-05 5.896 0.156948 5.473 0.462948C5.055 0.764948 4.756 1.18895 4.543 1.67095C4.157 2.54395 4.021 3.68095 4.003 4.87695L8.5 5.87695V0.0689485ZM3.71 5.83595L3.381 5.99995C2.96593 6.20771 2.61689 6.52692 2.37298 6.92184C2.12907 7.31676 1.99992 7.77178 2 8.23595V10.8119C2 13.6589 4.22 15.9999 7 15.9999H9C11.78 15.9999 14 13.6579 14 10.8119V8.12295L5 6.12295V6.12595L5.008 6.47895C5.015 6.77895 5.031 7.19395 5.061 7.65395C5.124 8.59095 5.247 9.65895 5.474 10.3419C5.49767 10.4049 5.50841 10.472 5.50555 10.5392C5.50269 10.6064 5.48631 10.6723 5.45738 10.733C5.42844 10.7937 5.38756 10.848 5.33717 10.8925C5.28678 10.9371 5.22792 10.971 5.16411 10.9923C5.10031 11.0136 5.03287 11.0217 4.96582 11.0163C4.89878 11.0109 4.83352 10.9921 4.77395 10.9608C4.71437 10.9296 4.66171 10.8867 4.6191 10.8347C4.5765 10.7826 4.54483 10.7225 4.526 10.6579C4.253 9.84095 4.126 8.65795 4.064 7.72095C4.02635 7.14901 4.005 6.57611 4 6.00295C4 5.96895 4.003 5.93595 4.01 5.90295L3.71 5.83595ZM14 7.09995V5.18695C14 4.05695 13.728 3.14295 13.252 2.41495C12.778 1.68895 12.122 1.17995 11.403 0.824948C10.7989 0.536548 10.1589 0.330381 9.5 0.211948V6.09895L14 7.09895V7.09995Z" fill="black"/>
</g>
<defs>
<clipPath id="clip0_104_2652">
<rect width="16" height="16" fill="white"/>
</clipPath>
</defs>
</svg>
