<svg width="16" height="16" viewBox="0 0 16 16" fill="none" xmlns="http://www.w3.org/2000/svg">
<path d="M3 5C3 3.67392 3.52678 2.40215 4.46447 1.46447C5.40215 0.526784 6.67392 0 8 0C9.32608 0 10.5979 0.526784 11.5355 1.46447C12.4732 2.40215 13 3.67392 13 5V11C13 12.3261 12.4732 13.5979 11.5355 14.5355C10.5979 15.4732 9.32608 16 8 16C6.67392 16 5.40215 15.4732 4.46447 14.5355C3.52678 13.5979 3 12.3261 3 11V5ZM8.5 3.5C8.5 3.36739 8.44732 3.24021 8.35355 3.14645C8.25979 3.05268 8.13261 3 8 3C7.86739 3 7.74021 3.05268 7.64645 3.14645C7.55268 3.24021 7.5 3.36739 7.5 3.5V5.5C7.5 5.63261 7.55268 5.75979 7.64645 5.85355C7.74021 5.94732 7.86739 6 8 6C8.13261 6 8.25979 5.94732 8.35355 5.85355C8.44732 5.75979 8.5 5.63261 8.5 5.5V3.5Z" fill="black"/>
</svg>
