<svg width="16" height="16" viewBox="0 0 16 16" fill="none" xmlns="http://www.w3.org/2000/svg">
<g clip-path="url(#clip0_104_2673)">
<path d="M8 12C8.26522 12 8.51957 11.8946 8.70711 11.7071C8.89464 11.5196 9 11.2652 9 11C9 10.7348 8.89464 10.4804 8.70711 10.2929C8.51957 10.1054 8.26522 10 8 10C7.73478 10 7.48043 10.1054 7.29289 10.2929C7.10536 10.4804 7 10.7348 7 11C7 11.2652 7.10536 11.5196 7.29289 11.7071C7.48043 11.8946 7.73478 12 8 12Z" fill="black"/>
<path d="M4 0C3.46957 0 2.96086 0.210714 2.58579 0.585786C2.21071 0.960859 2 1.46957 2 2V14C2 14.5304 2.21071 15.0391 2.58579 15.4142C2.96086 15.7893 3.46957 16 4 16H12C12.5304 16 13.0391 15.7893 13.4142 15.4142C13.7893 15.0391 14 14.5304 14 14V2C14 1.46957 13.7893 0.960859 13.4142 0.585786C13.0391 0.210714 12.5304 0 12 0L4 0ZM5 2H11C11.2652 2 11.5196 2.10536 11.7071 2.29289C11.8946 2.48043 12 2.73478 12 3V5.5C12 5.76522 11.8946 6.01957 11.7071 6.20711C11.5196 6.39464 11.2652 6.5 11 6.5H5C4.73478 6.5 4.48043 6.39464 4.29289 6.20711C4.10536 6.01957 4 5.76522 4 5.5V3C4 2.73478 4.10536 2.48043 4.29289 2.29289C4.48043 2.10536 4.73478 2 5 2ZM8 14C7.60603 14 7.21593 13.9224 6.85195 13.7716C6.48797 13.6209 6.15726 13.3999 5.87868 13.1213C5.6001 12.8427 5.37913 12.512 5.22836 12.1481C5.0776 11.7841 5 11.394 5 11C5 10.606 5.0776 10.2159 5.22836 9.85195C5.37913 9.48797 5.6001 9.15726 5.87868 8.87868C6.15726 8.6001 6.48797 8.37913 6.85195 8.22836C7.21593 8.0776 7.60603 8 8 8C8.79565 8 9.55871 8.31607 10.1213 8.87868C10.6839 9.44129 11 10.2044 11 11C11 11.7956 10.6839 12.5587 10.1213 13.1213C9.55871 13.6839 8.79565 14 8 14Z" fill="black"/>
</g>
<defs>
<clipPath id="clip0_104_2673">
<rect width="16" height="16" fill="white"/>
</clipPath>
</defs>
</svg>
