<svg width="16" height="16" viewBox="0 0 16 16" fill="none" xmlns="http://www.w3.org/2000/svg">
<path d="M12 13C12 14.105 10.88 15 9.5 15C8.12 15 7 14.105 7 13C7 11.895 8.12 11 9.5 11C10.88 11 12 11.895 12 13Z" fill="black"/>
<path fill-rule="evenodd" clip-rule="evenodd" d="M12 3V13H11V3H12Z" fill="black"/>
<path d="M11 2.81998C11.0001 2.58888 11.0803 2.36497 11.2269 2.18631C11.3735 2.00765 11.5774 1.88527 11.804 1.83998L14.804 1.23998C14.949 1.21099 15.0987 1.21453 15.2422 1.25034C15.3856 1.28616 15.5194 1.35335 15.6338 1.44709C15.7482 1.54082 15.8404 1.65876 15.9037 1.79241C15.967 1.92606 15.9999 2.07209 16 2.21998V3.99998L11 4.99998V2.81998Z" fill="black"/>
<path fill-rule="evenodd" clip-rule="evenodd" d="M0 11.5C0 11.3674 0.0526784 11.2402 0.146447 11.1464C0.240215 11.0527 0.367392 11 0.5 11H4C4.13261 11 4.25979 11.0527 4.35355 11.1464C4.44732 11.2402 4.5 11.3674 4.5 11.5C4.5 11.6326 4.44732 11.7598 4.35355 11.8536C4.25979 11.9473 4.13261 12 4 12H0.5C0.367392 12 0.240215 11.9473 0.146447 11.8536C0.0526784 11.7598 0 11.6326 0 11.5ZM0 7.5C0 7.36739 0.0526784 7.24021 0.146447 7.14645C0.240215 7.05268 0.367392 7 0.5 7H8C8.13261 7 8.25979 7.05268 8.35355 7.14645C8.44732 7.24021 8.5 7.36739 8.5 7.5C8.5 7.63261 8.44732 7.75979 8.35355 7.85355C8.25979 7.94732 8.13261 8 8 8H0.5C0.367392 8 0.240215 7.94732 0.146447 7.85355C0.0526784 7.75979 0 7.63261 0 7.5ZM0 3.5C0 3.36739 0.0526784 3.24021 0.146447 3.14645C0.240215 3.05268 0.367392 3 0.5 3H8C8.13261 3 8.25979 3.05268 8.35355 3.14645C8.44732 3.24021 8.5 3.36739 8.5 3.5C8.5 3.63261 8.44732 3.75979 8.35355 3.85355C8.25979 3.94732 8.13261 4 8 4H0.5C0.367392 4 0.240215 3.94732 0.146447 3.85355C0.0526784 3.75979 0 3.63261 0 3.5Z" fill="black"/>
</svg>
