<svg width="16" height="16" viewBox="0 0 16 16" fill="none" xmlns="http://www.w3.org/2000/svg">
<path d="M9 13C9 14.105 7.88 15 6.5 15C5.12 15 4 14.105 4 13C4 11.895 5.12 11 6.5 11C7.88 11 9 11.895 9 13Z" fill="black"/>
<path fill-rule="evenodd" clip-rule="evenodd" d="M9 3V13H8V3H9Z" fill="black"/>
<path d="M8 2.81998C8.00014 2.58888 8.08031 2.36497 8.22689 2.18631C8.37346 2.00765 8.57739 1.88527 8.804 1.83998L11.804 1.23998C11.949 1.21099 12.0987 1.21453 12.2422 1.25034C12.3856 1.28616 12.5194 1.35335 12.6338 1.44709C12.7482 1.54082 12.8404 1.65876 12.9037 1.79241C12.967 1.92606 12.9999 2.07209 13 2.21998V3.99998L8 4.99998V2.81998Z" fill="black"/>
</svg>
