<svg width="24" height="24" viewBox="0 0 24 24" xmlns="http://www.w3.org/2000/svg" fill='currentColor'><path d="M22.085 9.08496C22.085 5.21496 18.955 2.08496 15.085 2.08496C11.215 2.08496 8.08498 5.21496 8.08498 9.08496C8.08498 12.555 10.605 15.425 13.915 15.975V19.915H5.91498V16.915H6.91498V12.915C6.91498 12.365 6.46498 11.915 5.91498 11.915H2.91498C2.36498 11.915 1.91498 12.365 1.91498 12.915V16.915H2.91498V21.915H18.915V19.915H15.915V16.035C19.385 15.625 22.085 12.675 22.085 9.08496ZM4.41498 10.915C5.24498 10.915 5.91498 10.245 5.91498 9.41496C5.91498 8.58496 5.24498 7.91496 4.41498 7.91496C3.58498 7.91496 2.91498 8.58496 2.91498 9.41496C2.91498 10.245 3.58498 10.915 4.41498 10.915Z"/></svg>