<svg width="24" height="24" viewBox="0 0 24 24" xmlns="http://www.w3.org/2000/svg" fill='currentColor'><path d="M21.7137 13.1174L19.1337 15.6974L17.3237 13.8874L19.5037 11.6974L12.3037 4.49739L10.1137 6.68739L8.30373 4.86739L10.8837 2.28739C11.6637 1.50739 12.9337 1.50739 13.7137 2.28739L21.7137 10.2874C22.5037 11.0674 22.5037 12.3274 21.7137 13.1174ZM21.4937 20.8874L20.0837 22.2974L16.3037 18.5274L13.7237 21.1074C12.9437 21.8874 11.6737 21.8874 10.8937 21.1074L2.89373 13.1074C2.11373 12.3274 2.11373 11.0574 2.89373 10.2774L5.47373 7.69739L1.69373 3.91739L3.10373 2.50739L21.4937 20.8874ZM14.4937 16.7174L13.1037 15.3274L12.3037 16.1274L7.88373 11.6974L8.68373 10.8974L7.28373 9.50739L5.10373 11.6974L12.3037 18.8974L14.4937 16.7174ZM16.7237 11.6974L12.3037 7.27739L11.5037 8.07739L15.9237 12.4974L16.7237 11.6974Z"/></svg>