<svg width="24" height="24" viewBox="0 0 24 24" xmlns="http://www.w3.org/2000/svg" fill='currentColor'><path d="M12.0025 7.57256L16.4225 11.9926L12.0025 16.4126L7.5825 11.9926L12.0025 7.57256ZM12.0025 19.1926L4.8025 11.9926L12.0025 4.79256L18.0025 10.7926V7.16256L13.4225 2.58256C12.6425 1.80256 11.3725 1.80256 10.5925 2.58256L2.5825 10.5826C1.8025 11.3626 1.8025 12.6326 2.5825 13.4126L10.5925 21.4126C11.3725 22.1926 12.6425 22.1926 13.4225 21.4126L18.0025 16.8226V13.1926L12.0025 19.1926ZM20.0025 20.0026H22.0025V22.0026H20.0025V20.0026ZM22.0025 10.0026H20.0025V18.0026H22.0025V10.0026Z"/></svg>