<svg width="24" height="24" viewBox="0 0 24 24" xmlns="http://www.w3.org/2000/svg" fill='currentColor'><path d="M15.83 1.00891L11.72 1.42891C8.47 1.74891 6 4.47891 6 7.74891C6 11.0189 8.47 13.7489 11.72 14.0789L13.62 14.2689L13.06 15.1189C12.71 15.0389 12.36 14.9989 12 14.9989C9.24 14.9989 7 17.2389 7 19.9989V21.9989C7 22.5489 7.45 22.9989 8 22.9989H16C16.55 22.9989 17 22.5489 17 21.9989V19.9989C17 18.3289 16.17 16.8489 14.91 15.9389L15.88 14.4889C17.02 14.5589 18 13.6589 18 12.4989V2.99891C18 1.82891 17 0.908911 15.83 1.00891Z"/></svg>