<svg width="24" height="24" viewBox="0 0 24 24" xmlns="http://www.w3.org/2000/svg" fill='currentColor'><path d="M15.83 1.00867L11.72 1.42867C8.47 1.74867 6 4.47867 6 7.74867C6 11.0187 8.47 13.7487 11.72 14.0787L13.62 14.2687L13.06 15.1187C12.71 15.0387 12.36 14.9987 12 14.9987C9.24 14.9987 7 17.2387 7 19.9987V21.9987C7 22.5487 7.45 22.9987 8 22.9987H16C16.55 22.9987 17 22.5487 17 21.9987V19.9987C17 18.3287 16.17 16.8487 14.91 15.9387L15.88 14.4887C17.02 14.5587 18 13.6587 18 12.4987V2.99867C18 1.82867 17 0.908667 15.83 1.00867Z"/></svg>