<svg xmlns="http://www.w3.org/2000/svg" width="24" height="24" viewBox="0 0 24 24" fill='currentColor'><path d="M15.9 4.771c-.17 0-.32.09-.41.23l-.07.15-5.18 11.65c-.16.29-.26.61-.26.96 0 1.11.9 2.01 2.01 2.01.96 0 1.77-.68 1.96-1.59l.01-.03 2.44-12.88c0-.28-.22-.5-.5-.5m-14.9 4 2 2c2.88-2.88 6.79-4.08 10.53-3.62l1.19-2.68c-4.83-.86-9.98.57-13.72 4.3m20 2 2-2a15.4 15.4 0 0 0-5.59-3.57l-.53 2.82c1.5.62 2.9 1.53 4.12 2.75m-4 4 2-2c-.8-.8-1.7-1.42-2.66-1.89l-.55 2.92c.42.27.83.59 1.21.97m-12-2 2 2a7.1 7.1 0 0 1 4.03-2l1.28-2.88c-2.63-.08-5.3.87-7.31 2.88"/></svg>