<svg width="24" height="24" viewBox="0 0 24 24" xmlns="http://www.w3.org/2000/svg" fill='currentColor'><path d="M12.42 12.07C10.09 7.56 11.92 3.59 12.95 2C7.59001 2.19 3.30001 6.58 3.30001 11.99C3.30001 12.13 3.32001 12.27 3.32001 12.41C3.94001 12.14 4.61001 11.99 5.32001 11.99C6.98001 11.99 8.50001 12.82 9.42001 14.14C11.09 14.62 12.32 16.16 12.32 17.99C12.32 19.51 11.45 20.82 10.2 21.5C11.18 21.82 12.23 22 13.31 22C16.81 22 19.89 20.2 21.68 17.48C19.32 17.71 14.7 16.51 12.42 12.07Z"/><path d="M8.32001 15.99H8.14001C7.72001 14.83 6.62001 13.99 5.32001 13.99C3.66001 13.99 2.32001 15.33 2.32001 16.99C2.32001 18.65 3.66001 19.99 5.32001 19.99H8.32001C9.42001 19.99 10.32 19.09 10.32 17.99C10.32 16.89 9.42001 15.99 8.32001 15.99Z"/></svg>