<svg width="24" height="24" viewBox="0 0 24 24" xmlns="http://www.w3.org/2000/svg" fill='currentColor'><path d="M21.9 20.8848L3.52 2.50482L2.1 3.91482L4.86 6.67482C4.77 7.00482 4.71 7.33482 4.71 7.69482V19.6948C4.71 20.7948 5.61 21.6948 6.71 21.6948H18.71C19.05 21.6948 19.36 21.6048 19.64 21.4548L20.49 22.3048L21.9 20.8848ZM6.71 13.6948V11.6948H9.88L11.88 13.6948H6.71ZM15.54 11.6948L7.69 3.84482C7.7 3.84482 7.7 3.83482 7.71 3.83482V1.69482H10.71V3.69482H14.71V1.69482H17.71V3.83482C19.43 4.28482 20.71 5.83482 20.71 7.69482V16.8648L18.71 14.8648V11.6948H15.54Z"/></svg>