<svg width="24" height="24" viewBox="0 0 24 24" xmlns="http://www.w3.org/2000/svg" fill='currentColor'><g clip-path="url(#clip0_1616_3215)"><path d="M11.505 8.35984L11.155 4.83984H16.155V0.839844H18.155V4.83984H23.155L21.775 18.6298L11.505 8.35984ZM1.15497 20.8398V21.8398C1.15497 22.3898 1.60497 22.8398 2.15497 22.8398H15.155C15.705 22.8398 16.155 22.3898 16.155 21.8398V20.8398H1.15497ZM22.055 21.7398L2.25497 1.93984L0.844971 3.34984L6.54497 9.04984C3.43497 9.70984 1.15497 11.8298 1.15497 14.8398H12.325L14.325 16.8398H1.15497V18.8398H16.155V18.6698L20.645 23.1598L22.055 21.7398Z"/></g><defs><clipPath id="clip0_1616_3215"><rect width="24" height="24"/></clipPath></defs></svg>