<svg width="24" height="24" viewBox="0 0 24 24" xmlns="http://www.w3.org/2000/svg" fill='currentColor'><path d="M2.92999 1.97002L1.51999 3.39002L6.81999 8.69002L6.61999 8.92002H4.07999C3.19999 8.92002 2.47999 9.64002 2.47999 10.52V19.92C2.47999 20.8 3.19999 21.52 4.07999 21.52H16.88C17.63 21.52 18.26 21 18.43 20.3L20.61 22.48L22.02 21.07L18.48 17.52L2.92999 1.97002ZM10.48 19.52C8.26999 19.52 6.47999 17.73 6.47999 15.52C6.47999 13.57 7.87999 11.95 9.72999 11.6L11.3 13.17C11.04 13.08 10.77 13.02 10.48 13.02C9.09999 13.02 7.97999 14.14 7.97999 15.52C7.97999 16.9 9.09999 18.02 10.48 18.02C11.86 18.02 12.98 16.9 12.98 15.52C12.98 15.23 12.92 14.96 12.83 14.7L14.4 16.27C14.05 18.12 12.43 19.52 10.48 19.52ZM18.48 14.69L11.31 7.52002H13.06L14.34 8.92002H16.88C17.76 8.92002 18.48 9.64002 18.48 10.52V14.69ZM20.88 5.12002H22.48L19.48 10.52V6.52002H18.48V1.52002H22.48L20.88 5.12002Z"/></svg>