<svg width="24" height="24" viewBox="0 0 24 24" xmlns="http://www.w3.org/2000/svg" fill='currentColor'><path d="M13.46 8.69482V9.61482L15.21 11.3648V8.69482H16.71V12.8648L19.71 15.8648V7.69482C19.71 6.59482 18.81 5.69482 17.71 5.69482H15.71V2.69482C15.71 2.14482 15.26 1.69482 14.71 1.69482H10.71C10.16 1.69482 9.71001 2.14482 9.71001 2.69482V5.69482H9.54001L12.54 8.69482H13.46ZM11.21 3.19482H14.21V5.69482H11.21V3.19482ZM21.9 20.8848L3.52001 2.50482L2.10001 3.91482L5.73001 7.54482C5.73001 7.59482 5.71001 7.64482 5.71001 7.69482V18.6948C5.71001 19.7948 6.61001 20.6948 7.71001 20.6948C7.71001 21.2448 8.16001 21.6948 8.71001 21.6948C9.26001 21.6948 9.71001 21.2448 9.71001 20.6948H15.71C15.71 21.2448 16.16 21.6948 16.71 21.6948C17.26 21.6948 17.71 21.2448 17.71 20.6948C18.05 20.6948 18.36 20.6048 18.64 20.4548L20.49 22.3048L21.9 20.8848ZM8.71001 17.6948V10.5248L10.21 12.0248V17.6948H8.71001ZM13.46 17.6948H11.96V13.7748L13.46 15.2748V17.6948Z"/></svg>