<svg xmlns="http://www.w3.org/2000/svg" width="24" height="24" viewBox="0 0 24 24" fill='currentColor'><path d="m11.6 7.415-3.46-3.46 1.52-1.66h6l1.83 2h3.17c1.1 0 2 .9 2 2v12c0 .05-.01.1-.02.16l-5.1-5.1c.08-.35.12-.7.12-1.06 0-2.76-2.24-5-5-5-.36 0-.71.04-1.06.12m9.55 15.19-2.32-2.31H4.66c-1.1 0-2-.9-2-2v-12c0-.59.27-1.12.68-1.49l-2-2 1.42-1.41 19.8 19.8zm-6-5.99-1.5-1.5c-.32.1-.64.18-.99.18-1.66 0-3-1.34-3-3 0-.35.08-.67.19-.98l-1.5-1.5a4.74 4.74 0 0 0-.69 2.48c0 2.76 2.24 5 5 5 .91 0 1.76-.25 2.49-.68"/></svg>