<svg width="24" height="24" viewBox="0 0 24 24" xmlns="http://www.w3.org/2000/svg" fill='currentColor'><path d="M6.30501 17.2901C7.40501 17.2901 8.30501 18.1901 8.30501 19.2901C8.30501 20.3901 7.40501 21.2901 6.30501 21.2901C5.20501 21.2901 4.30501 20.3901 4.30501 19.2901C4.30501 18.1901 5.20501 17.2901 6.30501 17.2901ZM18.955 2.2901C17.295 2.2901 16.415 3.5601 15.775 4.3201L12.275 8.4301L17.305 13.4601V5.5601C17.885 4.8801 18.275 4.2901 18.955 4.2901C19.725 4.2901 20.305 4.9501 20.305 5.7701V6.2901H22.305V5.7701C22.305 3.8501 20.825 2.2901 18.955 2.2901ZM3.11501 2.1001L1.69501 3.5101L9.66501 11.4801L7.00501 14.6001C6.45501 15.2501 6.91501 16.2501 7.76501 16.2501H14.425L15.595 17.4201C14.845 17.7101 14.305 18.4301 14.305 19.2901C14.305 20.3901 15.205 21.2901 16.305 21.2901C17.165 21.2901 17.885 20.7501 18.175 19.9901L20.085 21.9001L21.495 20.4901L3.11501 2.1001ZM13.775 4.3201C14.045 4.0001 14.355 3.6001 14.755 3.2301C12.295 2.0401 9.43501 2.0101 6.94501 3.1001L11.195 7.3501L13.775 4.3201Z"/></svg>