<svg width="24" height="24" viewBox="0 0 24 24" xmlns="http://www.w3.org/2000/svg" fill='currentColor'><path d="M21.9 20.8848L3.52001 2.50482L2.10001 3.91482L4.71001 6.52482V15.6948C4.71001 16.5748 5.10001 17.3648 5.71001 17.9148V19.6948C5.71001 20.2448 6.16001 20.6948 6.71001 20.6948H7.71001C8.26001 20.6948 8.71001 20.2448 8.71001 19.6948V18.6948H16.71V19.6948C16.71 20.2448 17.16 20.6948 17.71 20.6948H18.71C18.76 20.6948 18.8 20.6748 18.85 20.6648L20.49 22.3048L21.9 20.8848ZM8.21001 16.6948C7.38001 16.6948 6.71001 16.0248 6.71001 15.1948C6.71001 14.3648 7.38001 13.6948 8.21001 13.6948C9.04001 13.6948 9.71001 14.3648 9.71001 15.1948C9.71001 16.0248 9.04001 16.6948 8.21001 16.6948ZM6.71001 10.6948V8.52482L8.88001 10.6948H6.71001ZM9.54001 5.69482L6.49001 2.64482C7.95001 1.85482 10.19 1.69482 12.71 1.69482C17.13 1.69482 20.71 2.19482 20.71 5.69482V15.6948C20.71 16.0448 20.63 16.3648 20.52 16.6748L14.54 10.6948H18.71V5.69482H9.54001Z"/></svg>