<svg width="16" height="16" viewBox="0 0 16 16" xmlns="http://www.w3.org/2000/svg" fill='currentColor'><g clip-path="url(#clip0_104_2685)"><path d="M11 13C11.9676 13 12.9144 12.7192 13.7256 12.1918C14.5367 11.6643 15.1775 10.9128 15.57 10.0284C15.9625 9.14406 16.09 8.16477 15.937 7.20936C15.784 6.25395 15.3571 5.36345 14.708 4.64588C14.0589 3.9283 13.2156 3.41447 12.2803 3.1667C11.3449 2.91894 10.3578 2.94788 9.43861 3.25003C8.51941 3.55217 7.70762 4.11453 7.1017 4.86891C6.49578 5.62328 6.12176 6.53726 6.025 7.5H4C4 7.10218 3.84196 6.72064 3.56066 6.43934C3.27936 6.15804 2.89782 6 2.5 6H1.5C1.10218 6 0.720644 6.15804 0.43934 6.43934C0.158035 6.72064 0 7.10218 0 7.5L0 8.5C0 8.89782 0.158035 9.27936 0.43934 9.56066C0.720644 9.84196 1.10218 10 1.5 10H2.5C2.89782 10 3.27936 9.84196 3.56066 9.56066C3.84196 9.27936 4 8.89782 4 8.5H6.025C6.14895 9.73332 6.72659 10.8766 7.64586 11.7081C8.56512 12.5396 9.76047 13 11 13ZM11.5 5.5V7.5H13.5C13.6326 7.5 13.7598 7.55268 13.8536 7.64645C13.9473 7.74021 14 7.86739 14 8C14 8.13261 13.9473 8.25979 13.8536 8.35355C13.7598 8.44732 13.6326 8.5 13.5 8.5H11.5V10.5C11.5 10.6326 11.4473 10.7598 11.3536 10.8536C11.2598 10.9473 11.1326 11 11 11C10.8674 11 10.7402 10.9473 10.6464 10.8536C10.5527 10.7598 10.5 10.6326 10.5 10.5V8.5H8.5C8.36739 8.5 8.24021 8.44732 8.14645 8.35355C8.05268 8.25979 8 8.13261 8 8C8 7.86739 8.05268 7.74021 8.14645 7.64645C8.24021 7.55268 8.36739 7.5 8.5 7.5H10.5V5.5C10.5 5.36739 10.5527 5.24022 10.6464 5.14645C10.7402 5.05268 10.8674 5 11 5C11.1326 5 11.2598 5.05268 11.3536 5.14645C11.4473 5.24022 11.5 5.36739 11.5 5.5Z"/></g><defs><clipPath id="clip0_104_2685"><rect width="16" height="16"/></clipPath></defs></svg>