<svg width="16" height="16" viewBox="0 0 16 16" fill="none" xmlns="http://www.w3.org/2000/svg">
<path fill-rule="evenodd" clip-rule="evenodd" d="M11 4.00001C9.93913 4.00001 8.92172 4.42143 8.17157 5.17158C7.42143 5.92172 7 6.93914 7 8.00001C7 9.06087 7.42143 10.0783 8.17157 10.8284C8.92172 11.5786 9.93913 12 11 12C12.0609 12 13.0783 11.5786 13.8284 10.8284C14.5786 10.0783 15 9.06087 15 8.00001C15 6.93914 14.5786 5.92172 13.8284 5.17158C13.0783 4.42143 12.0609 4.00001 11 4.00001ZM6.025 7.50001C6.15328 6.22369 6.76718 5.04549 7.73973 4.20908C8.71229 3.37268 9.96911 2.94206 11.2503 3.00627C12.5314 3.07049 13.7388 3.62464 14.6229 4.55411C15.5069 5.48357 15.9999 6.71726 15.9999 8.00001C15.9999 9.28275 15.5069 10.5164 14.6229 11.4459C13.7388 12.3754 12.5314 12.9295 11.2503 12.9937C9.96911 13.058 8.71229 12.6273 7.73973 11.7909C6.76718 10.9545 6.15328 9.77632 6.025 8.50001H4C4 8.89783 3.84196 9.27936 3.56066 9.56067C3.27936 9.84197 2.89782 10 2.5 10H1.5C1.10218 10 0.720644 9.84197 0.43934 9.56067C0.158035 9.27936 0 8.89783 0 8.50001L0 7.50001C0 7.10218 0.158035 6.72065 0.43934 6.43934C0.720644 6.15804 1.10218 6.00001 1.5 6.00001H2.5C2.89782 6.00001 3.27936 6.15804 3.56066 6.43934C3.84196 6.72065 4 7.10218 4 7.50001H6.025ZM1.5 7.00001C1.36739 7.00001 1.24021 7.05268 1.14645 7.14645C1.05268 7.24022 1 7.3674 1 7.50001V8.50001C1 8.63261 1.05268 8.75979 1.14645 8.85356C1.24021 8.94733 1.36739 9.00001 1.5 9.00001H2.5C2.63261 9.00001 2.75979 8.94733 2.85355 8.85356C2.94732 8.75979 3 8.63261 3 8.50001V7.50001C3 7.3674 2.94732 7.24022 2.85355 7.14645C2.75979 7.05268 2.63261 7.00001 2.5 7.00001H1.5ZM8 8.00001C8 7.8674 8.05268 7.74022 8.14645 7.64645C8.24021 7.55268 8.36739 7.50001 8.5 7.50001H13.5C13.6326 7.50001 13.7598 7.55268 13.8536 7.64645C13.9473 7.74022 14 7.8674 14 8.00001C14 8.13261 13.9473 8.25979 13.8536 8.35356C13.7598 8.44733 13.6326 8.50001 13.5 8.50001H8.5C8.36739 8.50001 8.24021 8.44733 8.14645 8.35356C8.05268 8.25979 8 8.13261 8 8.00001Z" fill="black"/>
</svg>
