<svg width="16" height="16" viewBox="0 0 16 16" fill="none" xmlns="http://www.w3.org/2000/svg">
<path fill-rule="evenodd" clip-rule="evenodd" d="M16 8.00002C16.0002 9.28288 15.5072 10.5167 14.6232 11.4463C13.7391 12.3759 12.5316 12.9302 11.2503 12.9944C9.96906 13.0586 8.71215 12.6279 7.73956 11.7914C6.76697 10.9548 6.15313 9.77646 6.025 8.50002H4C4 8.89785 3.84196 9.27938 3.56066 9.56068C3.27936 9.84199 2.89782 10 2.5 10H1.5C1.10218 10 0.720644 9.84199 0.43934 9.56068C0.158035 9.27938 0 8.89785 0 8.50002L0 7.50002C0 7.1022 0.158035 6.72066 0.43934 6.43936C0.720644 6.15806 1.10218 6.00002 1.5 6.00002H2.5C2.89782 6.00002 3.27936 6.15806 3.56066 6.43936C3.84196 6.72066 4 7.1022 4 7.50002H6.025C6.15313 6.22358 6.76697 5.04522 7.73956 4.20868C8.71215 3.37214 9.96906 2.94144 11.2503 3.00566C12.5316 3.06989 13.7391 3.62412 14.6232 4.55372C15.5072 5.48332 16.0002 6.71716 16 8.00002ZM14 8.00002C14 7.86741 13.9473 7.74024 13.8536 7.64647C13.7598 7.5527 13.6326 7.50002 13.5 7.50002H8.5C8.36739 7.50002 8.24021 7.5527 8.14645 7.64647C8.05268 7.74024 8 7.86741 8 8.00002C8 8.13263 8.05268 8.25981 8.14645 8.35357C8.24021 8.44734 8.36739 8.50002 8.5 8.50002H13.5C13.6326 8.50002 13.7598 8.44734 13.8536 8.35357C13.9473 8.25981 14 8.13263 14 8.00002Z" fill="black"/>
</svg>
