<svg width="24" height="24" viewBox="0 0 24 24" xmlns="http://www.w3.org/2000/svg" fill='currentColor'><path d="M16 15H14C14 15.55 13.55 16 13 16C12.57 16 12.19 15.73 12.05 15.32C11.9 14.88 11.65 14.24 11.12 13.71L9.76 12.35C9.28 11.87 9 11.19 9 10.5C9 9.12 10.12 8 11.5 8C12.71 8 13.72 8.86 13.95 10H15.97C15.72 7.75 13.81 6 11.5 6C9.02 6 7 8.02 7 10.5C7 11.72 7.49 12.91 8.35 13.77L9.71 15.13C9.88 15.3 10.02 15.57 10.15 15.95C10.56 17.17 11.71 18 13 18C14.65 18 16 16.65 16 15Z"/><path d="M13.5 14C14.3284 14 15 13.3284 15 12.5C15 11.6716 14.3284 11 13.5 11C12.6716 11 12 11.6716 12 12.5C12 13.3284 12.6716 14 13.5 14Z"/><path d="M3.6 6.58L5.18 7.84C5.53 7.27 5.95 6.74 6.42 6.27L4.85 5.02C4.38 5.49 3.97 6.02 3.6 6.58Z"/><path d="M9.46 4.42L8.59 2.61C7.96 2.84 7.35 3.13 6.79 3.48L7.66 5.29C8.22 4.93 8.82 4.64 9.46 4.42Z"/><path d="M4.49 9.26L2.53 8.81C2.32 9.44 2.17 10.09 2.09 10.76L4.05 11.21C4.11 10.53 4.27 9.88 4.49 9.26Z"/><path d="M20.4 6.58C20.04 6.02 19.62 5.49 19.15 5.02L17.57 6.28C18.05 6.75 18.46 7.27 18.81 7.85L20.4 6.58Z"/><path d="M4.04 12.79L2.08 13.24C2.16 13.91 2.31 14.57 2.52 15.19L4.49 14.74C4.27 14.12 4.11 13.47 4.04 12.79Z"/><path d="M17.21 3.48C16.64 3.13 16.04 2.84 15.41 2.61L14.54 4.42C15.18 4.64 15.78 4.93 16.34 5.29L17.21 3.48Z"/><path d="M13 4.07V2.05C12.67 2.02 12.34 2 12 2C11.66 2 11.33 2.02 11 2.05V4.07C11.33 4.03 11.66 4 12 4C12.34 4 12.67 4.03 13 4.07Z"/><path d="M11 19.93V21.95C11.33 21.98 11.66 22 12 22C12.34 22 12.67 21.98 13 21.95V19.93C12.67 19.97 12.34 20 12 20C11.66 20 11.33 19.97 11 19.93Z"/><path d="M19.51 14.74L21.48 15.19C21.69 14.56 21.84 13.91 21.92 13.24L19.96 12.79C19.89 13.47 19.73 14.12 19.51 14.74Z"/><path d="M19.96 11.21L21.92 10.76C21.84 10.09 21.69 9.43 21.48 8.81L19.51 9.26C19.73 9.88 19.89 10.53 19.96 11.21Z"/><path d="M17.58 17.73L19.16 18.99C19.63 18.51 20.04 17.99 20.41 17.43L18.83 16.17C18.47 16.73 18.05 17.26 17.58 17.73Z"/><path d="M6.79 20.52C7.36 20.87 7.96 21.16 8.59 21.39L9.46 19.58C8.82 19.36 8.22 19.07 7.66 18.71L6.79 20.52Z"/><path d="M14.54 19.58L15.41 21.39C16.04 21.16 16.65 20.87 17.21 20.52L16.34 18.71C15.78 19.07 15.18 19.36 14.54 19.58Z"/><path d="M3.6 17.42C3.96 17.98 4.38 18.51 4.85 18.98L6.43 17.72C5.95 17.25 5.54 16.73 5.19 16.15L3.6 17.42Z"/></svg>