<svg xmlns="http://www.w3.org/2000/svg" width="24" height="24" viewBox="0 0 24 24" fill='currentColor'><path d="m14.71 10.745-3.42-3.42c.32-.34.74-.57 1.23-.61.48-.04.84.07 1.2.26.19.1.39.22.63.46l1.29 1.43c.98 1.08 2.53 1.85 4.07 1.83v2c-1.75-.01-3.71-.88-5-1.95m-2-5.05c1.1 0 2-.9 2-2s-.9-2-2-2-2 .9-2 2 .9 2 2 2m-9.19-3.19L2.1 3.915l8.61 8.61v2.17c0 1.1.9 2 2 2h2.17l5.61 5.61 1.41-1.41zm7.19 17.19c-1.66 0-3-1.34-3-3 0-1.31.84-2.41 2-2.83v-2.07a5 5 0 1 0 5.9 5.9h-2.07c-.41 1.16-1.52 2-2.83 2"/></svg>