<svg width="24" height="24" viewBox="0 0 24 24" xmlns="http://www.w3.org/2000/svg" fill='currentColor'><path d="M14.71 10.7448L11.29 7.32482C11.61 6.98482 12.03 6.75482 12.52 6.71482C13 6.67482 13.36 6.78482 13.72 6.97482C13.91 7.07482 14.11 7.19482 14.35 7.43482L15.64 8.86482C16.62 9.94482 18.17 10.7148 19.71 10.6948V12.6948C17.96 12.6848 16 11.8148 14.71 10.7448ZM12.71 5.69482C13.81 5.69482 14.71 4.79482 14.71 3.69482C14.71 2.59482 13.81 1.69482 12.71 1.69482C11.61 1.69482 10.71 2.59482 10.71 3.69482C10.71 4.79482 11.61 5.69482 12.71 5.69482ZM3.52001 2.50482L2.10001 3.91482L10.71 12.5248V14.6948C10.71 15.7948 11.61 16.6948 12.71 16.6948H14.88L20.49 22.3048L21.9 20.8948L3.52001 2.50482ZM10.71 19.6948C9.05001 19.6948 7.71001 18.3548 7.71001 16.6948C7.71001 15.3848 8.55001 14.2848 9.71001 13.8648V11.7948C7.43001 12.2548 5.71001 14.2748 5.71001 16.6948C5.71001 19.4548 7.95001 21.6948 10.71 21.6948C13.13 21.6948 15.15 19.9748 15.61 17.6948H13.54C13.13 18.8548 12.02 19.6948 10.71 19.6948Z"/></svg>