<svg width="16" height="16" viewBox="0 0 16 16" xmlns="http://www.w3.org/2000/svg" fill='currentColor'><path d="M4.58002 1C4.40376 1.00006 4.23064 1.0467 4.07821 1.13521C3.92578 1.22372 3.79945 1.35095 3.71202 1.504L0.284021 7.504C0.197731 7.65506 0.152344 7.82603 0.152344 8C0.152344 8.17397 0.197731 8.34494 0.284021 8.496L3.71202 14.496C3.79945 14.6491 3.92578 14.7763 4.07821 14.8648C4.23064 14.9533 4.40376 14.9999 4.58002 15H11.42C11.5963 14.9999 11.7694 14.9533 11.9218 14.8648C12.0743 14.7763 12.2006 14.6491 12.288 14.496L15.717 8.496C15.8033 8.34494 15.8487 8.17397 15.8487 8C15.8487 7.82603 15.8033 7.65506 15.717 7.504L12.288 1.504C12.2006 1.35095 12.0743 1.22372 11.9218 1.13521C11.7694 1.0467 11.5963 1.00006 11.42 1H4.58002ZM9.59802 10.696C9.25671 10.8961 8.87919 11.0267 8.4872 11.0803C8.0952 11.1339 7.69648 11.1094 7.31398 11.0083C6.93149 10.9072 6.57277 10.7314 6.25848 10.4911C5.9442 10.2507 5.68056 9.95061 5.48273 9.60798C5.28491 9.26535 5.15681 8.88697 5.10581 8.49463C5.05482 8.10229 5.08193 7.70374 5.18559 7.32192C5.28925 6.9401 5.46741 6.58256 5.70982 6.26988C5.95222 5.95719 6.25409 5.69555 6.59802 5.5C7.2867 5.10845 8.10229 5.00519 8.86681 5.21275C9.63134 5.42032 10.2827 5.92185 10.6788 6.60792C11.075 7.29398 11.1836 8.10887 10.9811 8.87475C10.7786 9.64064 10.2814 10.2953 9.59802 10.696Z"/></svg>