<svg width="16" height="16" viewBox="0 0 16 16" fill="none" xmlns="http://www.w3.org/2000/svg">
<path d="M1 2.5C1 2.36739 1.05268 2.24022 1.14645 2.14645C1.24021 2.05268 1.36739 2 1.5 2H5.297C5.38678 1.99993 5.47491 2.02404 5.55216 2.06979C5.6294 2.11554 5.69291 2.18124 5.736 2.26L11 13H14.5C14.6326 13 14.7598 13.0527 14.8536 13.1464C14.9473 13.2402 15 13.3674 15 13.5C15 13.6326 14.9473 13.7598 14.8536 13.8536C14.7598 13.9473 14.6326 14 14.5 14H10.703C10.6132 14.0001 10.5251 13.976 10.4478 13.9302C10.3706 13.8845 10.3071 13.8188 10.264 13.74L5 3H1.5C1.36739 3 1.24021 2.94732 1.14645 2.85355C1.05268 2.75979 1 2.63261 1 2.5ZM11 2.5C11 2.36739 11.0527 2.24022 11.1464 2.14645C11.2402 2.05268 11.3674 2 11.5 2H14.5C14.6326 2 14.7598 2.05268 14.8536 2.14645C14.9473 2.24022 15 2.36739 15 2.5C15 2.63261 14.9473 2.75979 14.8536 2.85355C14.7598 2.94732 14.6326 3 14.5 3H11.5C11.3674 3 11.2402 2.94732 11.1464 2.85355C11.0527 2.75979 11 2.63261 11 2.5Z" fill="black"/>
</svg>
