<svg width="16" height="16" viewBox="0 0 16 16" fill="none" xmlns="http://www.w3.org/2000/svg">
<path d="M3.34 2.994C3.615 2.656 4.02 2.5 4.414 2.5H11.586C11.979 2.5 12.384 2.656 12.66 2.994C13.238 3.702 14.5 5.528 14.5 8C14.5 10.472 13.238 12.297 12.66 13.006C12.384 13.344 11.98 13.5 11.586 13.5H4.414C4.02 13.5 3.615 13.344 3.34 13.006C2.762 12.297 1.5 10.472 1.5 8C1.5 5.528 2.762 3.703 3.34 2.994ZM4.414 3.5C4.35792 3.49735 4.30195 3.50728 4.25021 3.52909C4.19847 3.55089 4.15227 3.58401 4.115 3.626C3.599 4.259 2.5 5.863 2.5 8C2.5 10.137 3.599 11.74 4.115 12.374C4.175 12.447 4.278 12.5 4.415 12.5H11.585C11.722 12.5 11.825 12.447 11.885 12.374C12.401 11.741 13.5 10.137 13.5 8C13.5 5.863 12.401 4.26 11.885 3.626C11.8476 3.58387 11.8013 3.55068 11.7493 3.52887C11.6974 3.50706 11.6412 3.49719 11.585 3.5H4.415H4.414Z" fill="black"/>
<path d="M6 5.5C6.13261 5.5 6.25979 5.55268 6.35355 5.64645C6.44732 5.74021 6.5 5.86739 6.5 6V7.5C6.5 7.63261 6.44732 7.75979 6.35355 7.85355C6.25979 7.94732 6.13261 8 6 8C5.86739 8 5.74021 7.94732 5.64645 7.85355C5.55268 7.75979 5.5 7.63261 5.5 7.5V6C5.5 5.86739 5.55268 5.74021 5.64645 5.64645C5.74021 5.55268 5.86739 5.5 6 5.5ZM10 5.5C10.1326 5.5 10.2598 5.55268 10.3536 5.64645C10.4473 5.74021 10.5 5.86739 10.5 6V7.5C10.5 7.63261 10.4473 7.75979 10.3536 7.85355C10.2598 7.94732 10.1326 8 10 8C9.86739 8 9.74021 7.94732 9.64645 7.85355C9.55268 7.75979 9.5 7.63261 9.5 7.5V6C9.5 5.86739 9.55268 5.74021 9.64645 5.64645C9.74021 5.55268 9.86739 5.5 10 5.5ZM7 10V11H9V10C9 9.73478 8.89464 9.48043 8.70711 9.29289C8.51957 9.10536 8.26522 9 8 9C7.73478 9 7.48043 9.10536 7.29289 9.29289C7.10536 9.48043 7 9.73478 7 10Z" fill="black"/>
</svg>
