<svg width="16" height="16" viewBox="0 0 16 16" fill="none" xmlns="http://www.w3.org/2000/svg">
<path d="M6.192 2.77999C5.734 2.10299 5.265 1.53199 4.842 1.13699C4.63211 0.93115 4.39284 0.757594 4.132 0.621987C3.915 0.517987 3.572 0.416987 3.25 0.601987C2.883 0.814987 2.823 1.23199 2.82 1.49799C2.817 1.80199 2.884 2.16199 2.993 2.54199C3.189 3.22899 3.549 4.06999 4.028 4.94399L0.752003 8.21999C0.475003 8.49699 0.483003 8.87599 0.534003 9.13799C0.589003 9.42099 0.721003 9.73099 0.894003 10.041C1.242 10.668 1.814 11.402 2.52 12.109C3.227 12.816 3.961 13.387 4.588 13.735C4.898 13.908 5.208 14.04 5.491 14.095C5.753 14.145 6.131 14.154 6.409 13.877L12.024 8.26199C12.142 8.51899 12.116 8.77399 12.074 9.20099C12.044 9.49299 12.006 9.86599 12.001 10.377V10.5H12.004C12.025 10.7499 12.139 10.9827 12.3236 11.1525C12.5082 11.3222 12.7498 11.4164 13.0005 11.4164C13.2512 11.4164 13.4928 11.3222 13.6774 11.1525C13.862 10.9827 13.976 10.7499 13.997 10.5H14V10.443C14.0009 10.4039 13.9996 10.3649 13.996 10.326C13.941 9.07599 13.296 7.58799 12.136 6.83199C12.0738 6.6835 12.0034 6.53861 11.925 6.39799C11.576 5.77199 11.005 5.03799 10.298 4.33099C9.591 3.62399 8.857 3.05199 8.23 2.70399C7.92 2.53199 7.61 2.39999 7.327 2.34399C7.065 2.29399 6.687 2.28599 6.409 2.56299L6.192 2.77899V2.77999ZM4.16 1.86699C4.541 2.22299 5.004 2.78899 5.471 3.49899L4.767 4.20399C4.385 3.47699 4.107 2.80199 3.954 2.26599C3.88697 2.04684 3.84306 1.82128 3.823 1.59299C3.914 1.65399 4.027 1.74299 4.16 1.86699ZM4.554 5.83199C5.094 6.68399 5.661 7.39899 6.161 7.86499C6.20907 7.90977 6.26548 7.94464 6.32702 7.96762C6.38856 7.9906 6.45403 8.00123 6.51968 7.99891C6.58533 7.99659 6.64988 7.98136 6.70965 7.95409C6.76941 7.92682 6.82322 7.88805 6.868 7.83999C6.91278 7.79192 6.94766 7.73551 6.97064 7.67397C6.99362 7.61243 7.00425 7.54696 7.00193 7.48131C6.99961 7.41566 6.98438 7.35111 6.95711 7.29134C6.92984 7.23158 6.89107 7.17777 6.843 7.13299C6.39 6.71099 5.826 5.99699 5.279 5.10599L6.367 4.01799C6.421 4.13799 6.482 4.26099 6.55 4.38299C6.899 5.00999 7.47 5.74399 8.177 6.45099C8.883 7.15799 9.617 7.72899 10.245 8.07699C10.367 8.14499 10.489 8.20699 10.61 8.25999L5.749 13.122C5.72616 13.12 5.70345 13.1167 5.681 13.112C5.544 13.085 5.339 13.008 5.073 12.86C4.549 12.568 3.887 12.06 3.227 11.4C2.567 10.74 2.059 10.08 1.767 9.55399C1.62 9.28899 1.542 9.08399 1.516 8.94699C1.51131 8.92454 1.50797 8.90183 1.506 8.87899L4.554 5.83199ZM7.424 3.89699C7.3205 3.72082 7.23953 3.53234 7.183 3.33599C7.318 3.36899 7.507 3.44599 7.745 3.57699C8.269 3.86899 8.931 4.37699 9.591 5.03699C10.041 5.48699 10.421 5.93799 10.709 6.34699C10.3511 6.32246 9.99156 6.35316 9.643 6.43799C9.37923 6.21835 9.12564 5.98677 8.883 5.74399C8.223 5.08399 7.716 4.42199 7.425 3.89699H7.424Z" fill="black"/>
</svg>
