<svg width="16" height="16" viewBox="0 0 16 16" xmlns="http://www.w3.org/2000/svg" fill='currentColor'><g clip-path="url(#clip0_104_2708)"><path d="M0 0.5C0 0.367392 0.0526784 0.240215 0.146447 0.146447C0.240215 0.0526784 0.367392 0 0.5 0L5.5 0C5.63261 0 5.75979 0.0526784 5.85355 0.146447C5.94732 0.240215 6 0.367392 6 0.5V5.777L10.147 1.646C10.2408 1.55226 10.3679 1.49961 10.5005 1.49961C10.6331 1.49961 10.7602 1.55226 10.854 1.646L14.389 5.182C14.4356 5.22845 14.4725 5.28362 14.4977 5.34437C14.5229 5.40511 14.5359 5.47023 14.5359 5.536C14.5359 5.60177 14.5229 5.66689 14.4977 5.72763C14.4725 5.78838 14.4356 5.84355 14.389 5.89L10.261 10H15.5C15.6326 10 15.7598 10.0527 15.8536 10.1464C15.9473 10.2402 16 10.3674 16 10.5V15.5C16 15.6326 15.9473 15.7598 15.8536 15.8536C15.7598 15.9473 15.6326 16 15.5 16H3C2.60598 16.0005 2.21576 15.923 1.85177 15.7722C1.48777 15.6213 1.15718 15.4 0.879 15.121C0.326111 14.57 0.0106441 13.8245 0 13.044L0 0.5ZM6 12.834L13.328 5.534L10.499 2.706L6 7.188V12.835V12.834ZM4.5 13C4.5 12.6022 4.34196 12.2206 4.06066 11.9393C3.77936 11.658 3.39782 11.5 3 11.5C2.60218 11.5 2.22064 11.658 1.93934 11.9393C1.65804 12.2206 1.5 12.6022 1.5 13C1.5 13.3978 1.65804 13.7794 1.93934 14.0607C2.22064 14.342 2.60218 14.5 3 14.5C3.39782 14.5 3.77936 14.342 4.06066 14.0607C4.34196 13.7794 4.5 13.3978 4.5 13ZM15 15V11H9.258L5.243 15H15ZM0 0.5V12.995V0.5Z"/><path d="M0 12.995V13C1.35722e-06 12.9983 1.35722e-06 12.9967 0 12.995H0Z"/></g><defs><clipPath id="clip0_104_2708"><rect width="16" height="16"/></clipPath></defs></svg>