<svg width="16" height="16" viewBox="0 0 16 16" xmlns="http://www.w3.org/2000/svg" fill='currentColor'><g clip-path="url(#clip0_104_2711)"><path d="M12.433 10.07C14.133 10.585 16 11.15 16 8C16 6.41775 15.5308 4.87103 14.6518 3.55544C13.7727 2.23985 12.5233 1.21447 11.0615 0.608967C9.59966 0.00346625 7.99113 -0.15496 6.43928 0.153721C4.88743 0.462403 3.46197 1.22433 2.34315 2.34315C1.22433 3.46197 0.462399 4.88743 0.153718 6.43928C-0.154964 7.99113 0.00346243 9.59966 0.608963 11.0615C1.21446 12.5233 2.23984 13.7727 3.55544 14.6518C4.87103 15.5308 6.41775 16 8 16C9.996 16 9.826 14.496 9.649 12.92C9.525 11.819 9.397 10.683 10 10C10.465 9.473 11.42 9.763 12.433 10.07ZM8 5C7.80302 5 7.60796 4.96121 7.42597 4.88582C7.24399 4.81044 7.07863 4.69995 6.93934 4.56066C6.80005 4.42138 6.68956 4.25602 6.61418 4.07403C6.5388 3.89204 6.5 3.69699 6.5 3.5C6.5 3.30302 6.5388 3.10797 6.61418 2.92598C6.68956 2.74399 6.80005 2.57863 6.93934 2.43934C7.07863 2.30006 7.24399 2.18957 7.42597 2.11418C7.60796 2.0388 7.80302 2 8 2C8.39782 2 8.77936 2.15804 9.06066 2.43934C9.34196 2.72065 9.5 3.10218 9.5 3.5C9.5 3.89783 9.34196 4.27936 9.06066 4.56066C8.77936 4.84197 8.39782 5 8 5ZM12.5 8C12.1022 8 11.7206 7.84197 11.4393 7.56066C11.158 7.27936 11 6.89783 11 6.5C11 6.10218 11.158 5.72065 11.4393 5.43934C11.7206 5.15804 12.1022 5 12.5 5C12.8978 5 13.2794 5.15804 13.5607 5.43934C13.842 5.72065 14 6.10218 14 6.5C14 6.89783 13.842 7.27936 13.5607 7.56066C13.2794 7.84197 12.8978 8 12.5 8ZM5 6.5C5 6.69699 4.9612 6.89204 4.88582 7.07403C4.81044 7.25602 4.69995 7.42138 4.56066 7.56066C4.42137 7.69995 4.25601 7.81044 4.07403 7.88582C3.89204 7.96121 3.69698 8 3.5 8C3.30302 8 3.10796 7.96121 2.92597 7.88582C2.74399 7.81044 2.57863 7.69995 2.43934 7.56066C2.30005 7.42138 2.18956 7.25602 2.11418 7.07403C2.0388 6.89204 2 6.69699 2 6.5C2 6.10218 2.15804 5.72065 2.43934 5.43934C2.72064 5.15804 3.10217 5 3.5 5C3.89782 5 4.27936 5.15804 4.56066 5.43934C4.84196 5.72065 5 6.10218 5 6.5ZM5.5 13C5.10218 13 4.72064 12.842 4.43934 12.5607C4.15804 12.2794 4 11.8978 4 11.5C4 11.1022 4.15804 10.7206 4.43934 10.4393C4.72064 10.158 5.10218 10 5.5 10C5.89782 10 6.27936 10.158 6.56066 10.4393C6.84196 10.7206 7 11.1022 7 11.5C7 11.8978 6.84196 12.2794 6.56066 12.5607C6.27936 12.842 5.89782 13 5.5 13Z"/></g><defs><clipPath id="clip0_104_2711"><rect width="16" height="16"/></clipPath></defs></svg>