<svg width="24" height="24" viewBox="0 0 24 24" xmlns="http://www.w3.org/2000/svg" fill='currentColor'><mask id="mask0_32484_503" style="mask-type:alpha" maskUnits="userSpaceOnUse" x="0" y="0" width="24" height="24"><rect width="24" height="24"/></mask><g mask="url(#mask0_32484_503)"><path d="M2 22V18H22V22H19V20H13.5V22H10.5V20H5V22H2ZM6 16C5.71667 16 5.47917 15.9042 5.2875 15.7125C5.09583 15.5208 5 15.2833 5 15V3C5 2.71667 5.09583 2.47917 5.2875 2.2875C5.47917 2.09583 5.71667 2 6 2H18C18.2833 2 18.5208 2.09583 18.7125 2.2875C18.9042 2.47917 19 2.71667 19 3V15C19 15.2833 18.9042 15.5208 18.7125 15.7125C18.5208 15.9042 18.2833 16 18 16H6ZM7 14H17V4H7V14ZM9 8H15V6H9V8Z"/></g></svg>