<svg width="24" height="24" viewBox="0 0 24 24" xmlns="http://www.w3.org/2000/svg" fill='currentColor'><path d="M19.935 21.12C18.835 18.18 18.295 15.09 18.295 12C18.295 8.91 18.845 5.82 19.935 2.88C19.985 2.77 20.005 2.66 20.005 2.57C20.005 2.23 19.765 2 19.365 2H4.625C4.225 2 3.995 2.23 3.995 2.57C3.995 2.67 4.015 2.77 4.055 2.88C5.165 5.82 5.705 8.91 5.705 12C5.705 15.09 5.155 18.18 4.065 21.12C4.015 21.23 3.995 21.34 3.995 21.43C3.995 21.76 4.225 22 4.625 22H19.375C19.765 22 20.005 21.76 20.005 21.43C20.005 21.33 19.985 21.23 19.935 21.12Z"/></svg>