<svg width="16" height="16" viewBox="0 0 16 16" xmlns="http://www.w3.org/2000/svg" fill='currentColor'><path d="M10.5 15C10.3674 15 10.2402 14.9473 10.1464 14.8536C10.0527 14.7598 10 14.6326 10 14.5V2H9V14.5C9 14.6326 8.94732 14.7598 8.85355 14.8536C8.75979 14.9473 8.63261 15 8.5 15C8.36739 15 8.24021 14.9473 8.14645 14.8536C8.05268 14.7598 8 14.6326 8 14.5V9H7C5.93913 9 4.92172 8.57857 4.17157 7.82843C3.42143 7.07828 3 6.06087 3 5C3 3.93913 3.42143 2.92172 4.17157 2.17157C4.92172 1.42143 5.93913 1 7 1H12.5C12.6326 1 12.7598 1.05268 12.8536 1.14645C12.9473 1.24021 13 1.36739 13 1.5C13 1.63261 12.9473 1.75979 12.8536 1.85355C12.7598 1.94732 12.6326 2 12.5 2H11V14.5C11 14.6326 10.9473 14.7598 10.8536 14.8536C10.7598 14.9473 10.6326 15 10.5 15Z"/></svg>