<svg width="16" height="16" viewBox="0 0 16 16" xmlns="http://www.w3.org/2000/svg" fill='currentColor'><g clip-path="url(#clip0_104_2720)"><path d="M10.067 0.869951C9.79783 0.594492 9.47632 0.375612 9.12136 0.226174C8.76639 0.0767365 8.38514 -0.000244141 8 -0.000244141C7.61487 -0.000244141 7.23361 0.0767365 6.87865 0.226174C6.52369 0.375612 6.20217 0.594492 5.933 0.869951L5.311 1.50795L4.421 1.49695C4.03575 1.49239 3.65348 1.56491 3.29667 1.71024C2.93985 1.85557 2.61569 2.07078 2.34326 2.34321C2.07083 2.61564 1.85562 2.9398 1.71029 3.29661C1.56496 3.65343 1.49244 4.0357 1.497 4.42095L1.507 5.31095L0.871004 5.93295C0.595544 6.20212 0.376665 6.52364 0.227227 6.8786C0.0777894 7.23356 0.000808716 7.61481 0.000808716 7.99995C0.000808716 8.38509 0.0777894 8.76634 0.227227 9.1213C0.376665 9.47627 0.595544 9.79778 0.871004 10.067L1.508 10.689L1.497 11.579C1.49244 11.9642 1.56496 12.3465 1.71029 12.7033C1.85562 13.0601 2.07083 13.3843 2.34326 13.6567C2.61569 13.9291 2.93985 14.1443 3.29667 14.2897C3.65348 14.435 4.03575 14.5075 4.421 14.503L5.311 14.493L5.933 15.129C6.20217 15.4044 6.52369 15.6233 6.87865 15.7727C7.23361 15.9222 7.61487 15.9991 8 15.9991C8.38514 15.9991 8.76639 15.9222 9.12136 15.7727C9.47632 15.6233 9.79783 15.4044 10.067 15.129L10.689 14.492L11.579 14.503C11.9643 14.5075 12.3465 14.435 12.7033 14.2897C13.0602 14.1443 13.3843 13.9291 13.6567 13.6567C13.9292 13.3843 14.1444 13.0601 14.2897 12.7033C14.435 12.3465 14.5076 11.9642 14.503 11.579L14.493 10.689L15.129 10.067C15.4045 9.79778 15.6233 9.47627 15.7728 9.1213C15.9222 8.76634 15.9992 8.38509 15.9992 7.99995C15.9992 7.61481 15.9222 7.23356 15.7728 6.8786C15.6233 6.52364 15.4045 6.20212 15.129 5.93295L14.492 5.31095L14.503 4.42095C14.5076 4.0357 14.435 3.65343 14.2897 3.29661C14.1444 2.9398 13.9292 2.61564 13.6567 2.34321C13.3843 2.07078 13.0602 1.85557 12.7033 1.71024C12.3465 1.56491 11.9643 1.49239 11.579 1.49695L10.689 1.50695L10.067 0.870951V0.869951ZM10.354 6.85395L7.354 9.85395C7.30756 9.90051 7.25238 9.93746 7.19164 9.96266C7.13089 9.98787 7.06577 10.0008 7 10.0008C6.93424 10.0008 6.86912 9.98787 6.80837 9.96266C6.74762 9.93746 6.69245 9.90051 6.646 9.85395L5.146 8.35395C5.09952 8.30746 5.06264 8.25227 5.03748 8.19153C5.01232 8.1308 4.99937 8.06569 4.99937 7.99995C4.99937 7.93421 5.01232 7.86911 5.03748 7.80837C5.06264 7.74763 5.09952 7.69244 5.146 7.64595C5.19249 7.59946 5.24768 7.56259 5.30842 7.53743C5.36916 7.51227 5.43426 7.49932 5.5 7.49932C5.56575 7.49932 5.63085 7.51227 5.69159 7.53743C5.75233 7.56259 5.80752 7.59946 5.854 7.64595L7 8.79295L9.646 6.14595C9.73989 6.05206 9.86723 5.99932 10 5.99932C10.1328 5.99932 10.2601 6.05206 10.354 6.14595C10.4479 6.23984 10.5006 6.36718 10.5006 6.49995C10.5006 6.63273 10.4479 6.76006 10.354 6.85395Z"/></g><defs><clipPath id="clip0_104_2720"><rect width="16" height="16"/></clipPath></defs></svg>