<svg width="16" height="16" viewBox="0 0 16 16" fill="none" xmlns="http://www.w3.org/2000/svg">
<g clip-path="url(#clip0_104_2735)">
<path d="M10.067 0.869951C9.79782 0.594492 9.47631 0.375612 9.12134 0.226174C8.76638 0.0767365 8.38513 -0.000244141 7.99999 -0.000244141C7.61485 -0.000244141 7.2336 0.0767365 6.87864 0.226174C6.52367 0.375612 6.20216 0.594492 5.93299 0.869951L5.31099 1.50795L4.42099 1.49695C4.03574 1.49239 3.65347 1.56491 3.29665 1.71024C2.93983 1.85557 2.61568 2.07078 2.34325 2.34321C2.07082 2.61564 1.85561 2.9398 1.71028 3.29661C1.56495 3.65343 1.49243 4.0357 1.49699 4.42095L1.50699 5.31095L0.870989 5.93295C0.595529 6.20212 0.376649 6.52364 0.227212 6.8786C0.0777741 7.23356 0.000793457 7.61481 0.000793457 7.99995C0.000793457 8.38509 0.0777741 8.76634 0.227212 9.1213C0.376649 9.47627 0.595529 9.79778 0.870989 10.067L1.50799 10.689L1.49699 11.579C1.49243 11.9642 1.56495 12.3465 1.71028 12.7033C1.85561 13.0601 2.07082 13.3843 2.34325 13.6567C2.61568 13.9291 2.93983 14.1443 3.29665 14.2897C3.65347 14.435 4.03574 14.5075 4.42099 14.503L5.31099 14.493L5.93299 15.129C6.20216 15.4044 6.52367 15.6233 6.87864 15.7727C7.2336 15.9222 7.61485 15.9991 7.99999 15.9991C8.38513 15.9991 8.76638 15.9222 9.12134 15.7727C9.47631 15.6233 9.79782 15.4044 10.067 15.129L10.689 14.492L11.579 14.503C11.9642 14.5075 12.3465 14.435 12.7033 14.2897C13.0601 14.1443 13.3843 13.9291 13.6567 13.6567C13.9292 13.3843 14.1444 13.0601 14.2897 12.7033C14.435 12.3465 14.5075 11.9642 14.503 11.579L14.493 10.689L15.129 10.067C15.4044 9.79778 15.6233 9.47627 15.7728 9.1213C15.9222 8.76634 15.9992 8.38509 15.9992 7.99995C15.9992 7.61481 15.9222 7.23356 15.7728 6.8786C15.6233 6.52364 15.4044 6.20212 15.129 5.93295L14.492 5.31095L14.503 4.42095C14.5075 4.0357 14.435 3.65343 14.2897 3.29661C14.1444 2.9398 13.9292 2.61564 13.6567 2.34321C13.3843 2.07078 13.0601 1.85557 12.7033 1.71024C12.3465 1.56491 11.9642 1.49239 11.579 1.49695L10.689 1.50695L10.067 0.870951V0.869951ZM8.49999 5.99995V7.49995H9.99999C10.1326 7.49995 10.2598 7.55263 10.3535 7.6464C10.4473 7.74017 10.5 7.86734 10.5 7.99995C10.5 8.13256 10.4473 8.25974 10.3535 8.35351C10.2598 8.44727 10.1326 8.49995 9.99999 8.49995H8.49999V9.99995C8.49999 10.1326 8.44731 10.2597 8.35354 10.3535C8.25977 10.4473 8.1326 10.5 7.99999 10.5C7.86738 10.5 7.7402 10.4473 7.64644 10.3535C7.55267 10.2597 7.49999 10.1326 7.49999 9.99995V8.49995H5.99999C5.86738 8.49995 5.7402 8.44727 5.64644 8.35351C5.55267 8.25974 5.49999 8.13256 5.49999 7.99995C5.49999 7.86734 5.55267 7.74017 5.64644 7.6464C5.7402 7.55263 5.86738 7.49995 5.99999 7.49995H7.49999V5.99995C7.49999 5.86734 7.55267 5.74017 7.64644 5.6464C7.7402 5.55263 7.86738 5.49995 7.99999 5.49995C8.1326 5.49995 8.25977 5.55263 8.35354 5.6464C8.44731 5.74017 8.49999 5.86734 8.49999 5.99995Z" fill="black"/>
</g>
<defs>
<clipPath id="clip0_104_2735">
<rect width="16" height="16" fill="white"/>
</clipPath>
</defs>
</svg>
