<svg width="16" height="16" viewBox="0 0 16 16" xmlns="http://www.w3.org/2000/svg" fill='currentColor'><g clip-path="url(#clip0_104_2741)"><path d="M5.93299 0.869951C6.20216 0.594492 6.52367 0.375612 6.87864 0.226174C7.2336 0.0767365 7.61485 -0.000244141 7.99999 -0.000244141C8.38513 -0.000244141 8.76638 0.0767365 9.12134 0.226174C9.47631 0.375612 9.79782 0.594492 10.067 0.869951L10.689 1.50795L11.579 1.49695C11.9642 1.49239 12.3465 1.56491 12.7033 1.71024C13.0601 1.85557 13.3843 2.07078 13.6567 2.34321C13.9292 2.61564 14.1444 2.9398 14.2897 3.29661C14.435 3.65343 14.5075 4.0357 14.503 4.42095L14.493 5.31095L15.129 5.93295C15.4044 6.20212 15.6233 6.52364 15.7728 6.8786C15.9222 7.23356 15.9992 7.61481 15.9992 7.99995C15.9992 8.38509 15.9222 8.76634 15.7728 9.1213C15.6233 9.47627 15.4044 9.79778 15.129 10.067L14.492 10.689L14.503 11.579C14.5075 11.9642 14.435 12.3465 14.2897 12.7033C14.1444 13.0601 13.9292 13.3843 13.6567 13.6567C13.3843 13.9291 13.0601 14.1443 12.7033 14.2897C12.3465 14.435 11.9642 14.5075 11.579 14.503L10.689 14.493L10.067 15.129C9.79782 15.4044 9.47631 15.6233 9.12134 15.7727C8.76638 15.9222 8.38513 15.9991 7.99999 15.9991C7.61485 15.9991 7.2336 15.9222 6.87864 15.7727C6.52367 15.6233 6.20216 15.4044 5.93299 15.129L5.31099 14.492L4.42099 14.503C4.03574 14.5075 3.65347 14.435 3.29665 14.2897C2.93983 14.1443 2.61568 13.9291 2.34325 13.6567C2.07082 13.3843 1.85561 13.0601 1.71028 12.7033C1.56495 12.3465 1.49243 11.9642 1.49699 11.579L1.50699 10.689L0.870989 10.067C0.595529 9.79778 0.376649 9.47627 0.227212 9.1213C0.0777741 8.76634 0.000793457 8.38509 0.000793457 7.99995C0.000793457 7.61481 0.0777741 7.23356 0.227212 6.8786C0.376649 6.52364 0.595529 6.20212 0.870989 5.93295L1.50799 5.31095L1.49699 4.42095C1.49243 4.0357 1.56495 3.65343 1.71028 3.29661C1.85561 2.9398 2.07082 2.61564 2.34325 2.34321C2.61568 2.07078 2.93983 1.85557 3.29665 1.71024C3.65347 1.56491 4.03574 1.49239 4.42099 1.49695L5.31099 1.50695L5.93299 0.870951V0.869951ZM7.00199 11C7.00199 11.1313 7.02785 11.2613 7.07811 11.3826C7.12836 11.504 7.20202 11.6142 7.29488 11.7071C7.38774 11.7999 7.49798 11.8736 7.61931 11.9238C7.74063 11.9741 7.87067 12 8.00199 12C8.13331 12 8.26335 11.9741 8.38467 11.9238C8.506 11.8736 8.61624 11.7999 8.7091 11.7071C8.80195 11.6142 8.87561 11.504 8.92587 11.3826C8.97612 11.2613 9.00199 11.1313 9.00199 11C9.00199 10.7347 8.89663 10.4804 8.7091 10.2928C8.52156 10.1053 8.26721 9.99995 8.00199 9.99995C7.73677 9.99995 7.48242 10.1053 7.29488 10.2928C7.10735 10.4804 7.00199 10.7347 7.00199 11ZM8.60399 8.97295C8.64399 8.43895 8.80199 8.15795 9.44999 7.71295C10.124 7.23795 10.5 6.62295 10.5 5.72695C10.5 4.40195 9.57999 3.49995 8.23799 3.49995C7.21799 3.49995 6.44599 3.99195 6.13799 4.78995C6.04465 5.0079 5.99766 5.24287 5.99999 5.47995C5.99999 5.87295 6.20299 6.11995 6.54499 6.11995C6.81699 6.11995 6.99999 5.97295 7.10899 5.60995C7.26699 5.01795 7.63399 4.69495 8.18299 4.69495C8.79299 4.69495 9.21299 5.14095 9.21299 5.77895C9.21299 6.34195 9.00499 6.66395 8.39099 7.10395C7.77199 7.53695 7.46499 8.01795 7.46499 8.74395V8.85495C7.46499 9.28295 7.67299 9.59995 8.04999 9.59995C8.38599 9.59995 8.55399 9.35995 8.60399 8.97295Z"/></g><defs><clipPath id="clip0_104_2741"><rect width="16" height="16"/></clipPath></defs></svg>