<svg width="16" height="16" viewBox="0 0 16 16" xmlns="http://www.w3.org/2000/svg" fill='currentColor'><g clip-path="url(#clip0_104_2725)"><path d="M10.067 0.869951C9.79782 0.594492 9.47631 0.375612 9.12134 0.226174C8.76638 0.0767365 8.38513 -0.000244141 7.99999 -0.000244141C7.61485 -0.000244141 7.2336 0.0767365 6.87864 0.226174C6.52367 0.375612 6.20216 0.594492 5.93299 0.869951L5.31099 1.50795L4.42099 1.49695C4.03574 1.49239 3.65347 1.56491 3.29665 1.71024C2.93983 1.85557 2.61568 2.07078 2.34325 2.34321C2.07082 2.61564 1.85561 2.9398 1.71028 3.29661C1.56495 3.65343 1.49243 4.0357 1.49699 4.42095L1.50699 5.31095L0.870989 5.93295C0.595529 6.20212 0.376649 6.52364 0.227212 6.8786C0.0777741 7.23356 0.000793457 7.61481 0.000793457 7.99995C0.000793457 8.38509 0.0777741 8.76634 0.227212 9.1213C0.376649 9.47627 0.595529 9.79778 0.870989 10.067L1.50799 10.689L1.49699 11.579C1.49243 11.9642 1.56495 12.3465 1.71028 12.7033C1.85561 13.0601 2.07082 13.3843 2.34325 13.6567C2.61568 13.9291 2.93983 14.1443 3.29665 14.2897C3.65347 14.435 4.03574 14.5075 4.42099 14.503L5.31099 14.493L5.93299 15.129C6.20216 15.4044 6.52367 15.6233 6.87864 15.7727C7.2336 15.9222 7.61485 15.9991 7.99999 15.9991C8.38513 15.9991 8.76638 15.9222 9.12134 15.7727C9.47631 15.6233 9.79782 15.4044 10.067 15.129L10.689 14.492L11.579 14.503C11.9642 14.5075 12.3465 14.435 12.7033 14.2897C13.0601 14.1443 13.3843 13.9291 13.6567 13.6567C13.9292 13.3843 14.1444 13.0601 14.2897 12.7033C14.435 12.3465 14.5075 11.9642 14.503 11.579L14.493 10.689L15.129 10.067C15.4044 9.79778 15.6233 9.47627 15.7728 9.1213C15.9222 8.76634 15.9992 8.38509 15.9992 7.99995C15.9992 7.61481 15.9222 7.23356 15.7728 6.8786C15.6233 6.52364 15.4044 6.20212 15.129 5.93295L14.492 5.31095L14.503 4.42095C14.5075 4.0357 14.435 3.65343 14.2897 3.29661C14.1444 2.9398 13.9292 2.61564 13.6567 2.34321C13.3843 2.07078 13.0601 1.85557 12.7033 1.71024C12.3465 1.56491 11.9642 1.49239 11.579 1.49695L10.689 1.50695L10.067 0.870951V0.869951ZM7.99999 3.99995C8.53499 3.99995 8.95399 4.46195 8.89999 4.99495L8.54999 8.50195C8.53823 8.63972 8.47519 8.76806 8.37334 8.86159C8.2715 8.95511 8.13826 9.007 7.99999 9.007C7.86172 9.007 7.72848 8.95511 7.62663 8.86159C7.52479 8.76806 7.46175 8.63972 7.44999 8.50195L7.09999 4.99495C7.08742 4.86918 7.10133 4.74218 7.14083 4.62212C7.18033 4.50206 7.24455 4.3916 7.32933 4.29786C7.41412 4.20413 7.5176 4.12919 7.63311 4.07788C7.74862 4.02657 7.8736 4.00002 7.99999 3.99995ZM8.00199 9.99995C8.26721 9.99995 8.52156 10.1053 8.7091 10.2928C8.89663 10.4804 9.00199 10.7347 9.00199 11C9.00199 11.2652 8.89663 11.5195 8.7091 11.7071C8.52156 11.8946 8.26721 12 8.00199 12C7.73677 12 7.48242 11.8946 7.29488 11.7071C7.10735 11.5195 7.00199 11.2652 7.00199 11C7.00199 10.7347 7.10735 10.4804 7.29488 10.2928C7.48242 10.1053 7.73677 9.99995 8.00199 9.99995Z"/></g><defs><clipPath id="clip0_104_2725"><rect width="16" height="16"/></clipPath></defs></svg>