<svg width="16" height="16" viewBox="0 0 16 16" xmlns="http://www.w3.org/2000/svg" fill='currentColor'><g clip-path="url(#clip0_104_2717)"><path fill-rule="evenodd" clip-rule="evenodd" d="M10.354 6.14604C10.4006 6.19248 10.4375 6.24766 10.4627 6.30841C10.4879 6.36915 10.5009 6.43427 10.5009 6.50004C10.5009 6.56581 10.4879 6.63093 10.4627 6.69167C10.4375 6.75242 10.4006 6.80759 10.354 6.85404L7.35401 9.85404C7.30756 9.9006 7.25239 9.93754 7.19164 9.96275C7.13089 9.98796 7.06577 10.0009 7.00001 10.0009C6.93424 10.0009 6.86912 9.98796 6.80837 9.96275C6.74763 9.93754 6.69245 9.9006 6.64601 9.85404L5.14601 8.35404C5.09952 8.30755 5.06264 8.25236 5.03748 8.19162C5.01232 8.13088 4.99937 8.06578 4.99937 8.00004C4.99937 7.9343 5.01232 7.86919 5.03748 7.80846C5.06264 7.74772 5.09952 7.69253 5.14601 7.64604C5.19249 7.59955 5.24768 7.56267 5.30842 7.53752C5.36916 7.51236 5.43426 7.49941 5.50001 7.49941C5.56575 7.49941 5.63085 7.51236 5.69159 7.53752C5.75233 7.56267 5.80752 7.59955 5.85401 7.64604L7.00001 8.79304L9.64601 6.14604C9.69245 6.09948 9.74763 6.06253 9.80837 6.03733C9.86912 6.01212 9.93424 5.99915 10 5.99915C10.0658 5.99915 10.1309 6.01212 10.1916 6.03733C10.2524 6.06253 10.3076 6.09948 10.354 6.14604Z"/><path d="M10.273 2.51305L9.352 1.56905L10.067 0.87105L10.689 1.50805L11.579 1.49705C11.9643 1.49249 12.3465 1.56501 12.7033 1.71034C13.0602 1.85567 13.3843 2.07088 13.6567 2.34331C13.9292 2.61574 14.1444 2.9399 14.2897 3.29671C14.435 3.65353 14.5076 4.0358 14.503 4.42105L14.493 5.31105L15.129 5.93305C15.4045 6.20222 15.6233 6.52373 15.7728 6.8787C15.9222 7.23366 15.9992 7.61491 15.9992 8.00005C15.9992 8.38519 15.9222 8.76644 15.7728 9.1214C15.6233 9.47637 15.4045 9.79788 15.129 10.067L14.492 10.689L14.503 11.5791C14.5076 11.9643 14.435 12.3466 14.2897 12.7034C14.1444 13.0602 13.9292 13.3844 13.6567 13.6568C13.3843 13.9292 13.0602 14.1444 12.7033 14.2898C12.3465 14.4351 11.9643 14.5076 11.579 14.503L10.689 14.493L10.067 15.129C9.79783 15.4045 9.47632 15.6234 9.12136 15.7728C8.76639 15.9223 8.38514 15.9992 8 15.9992C7.61487 15.9992 7.23361 15.9223 6.87865 15.7728C6.52369 15.6234 6.20217 15.4045 5.933 15.129L5.311 14.492L4.421 14.503C4.03575 14.5076 3.65348 14.4351 3.29667 14.2898C2.93985 14.1444 2.61569 13.9292 2.34326 13.6568C2.07083 13.3844 1.85562 13.0602 1.71029 12.7034C1.56496 12.3466 1.49244 11.9643 1.497 11.5791L1.507 10.689L0.871004 10.067C0.595544 9.79788 0.376665 9.47637 0.227227 9.1214C0.0777894 8.76644 0.000808716 8.38519 0.000808716 8.00005C0.000808716 7.61491 0.0777894 7.23366 0.227227 6.8787C0.376665 6.52373 0.595544 6.20222 0.871004 5.93305L1.508 5.31105L1.497 4.42105C1.49244 4.0358 1.56496 3.65353 1.71029 3.29671C1.85562 2.9399 2.07083 2.61574 2.34326 2.34331C2.61569 2.07088 2.93985 1.85567 3.29667 1.71034C3.65348 1.56501 4.03575 1.49249 4.421 1.49705L5.311 1.50705L5.933 0.87105C6.20217 0.59559 6.52369 0.37671 6.87865 0.227273C7.23361 0.0778352 7.61487 0.000854492 8 0.000854492C8.38514 0.000854492 8.76639 0.0778352 9.12136 0.227273C9.47632 0.37671 9.79783 0.59559 10.067 0.87105L9.352 1.56905C9.17597 1.38884 8.96567 1.24564 8.73349 1.14787C8.50131 1.0501 8.25193 0.99973 8 0.99973C7.74808 0.99973 7.49869 1.0501 7.26651 1.14787C7.03433 1.24564 6.82404 1.38884 6.648 1.56905L5.728 2.51305L4.408 2.49705C4.15618 2.49423 3.90634 2.54177 3.67315 2.63688C3.43996 2.73198 3.22812 2.87273 3.05009 3.05085C2.87206 3.22897 2.73143 3.44088 2.63645 3.67412C2.54147 3.90736 2.49406 4.15723 2.497 4.40905L2.513 5.72705L1.569 6.64805C1.38879 6.82409 1.24559 7.03438 1.14782 7.26656C1.05005 7.49874 0.999684 7.74812 0.999684 8.00005C0.999684 8.25198 1.05005 8.50136 1.14782 8.73354C1.24559 8.96572 1.38879 9.17601 1.569 9.35205L2.513 10.272L2.497 11.592C2.49419 11.8439 2.54173 12.0937 2.63683 12.3269C2.73193 12.5601 2.87268 12.7719 3.0508 12.95C3.22893 13.128 3.44083 13.2686 3.67407 13.3636C3.90731 13.4586 4.15718 13.506 4.409 13.503L5.727 13.4871L6.648 14.431C6.82404 14.6113 7.03433 14.7545 7.26651 14.8522C7.49869 14.95 7.74808 15.0004 8 15.0004C8.25193 15.0004 8.50131 14.95 8.73349 14.8522C8.96567 14.7545 9.17597 14.6113 9.352 14.431L10.272 13.4871L11.592 13.503C11.8438 13.5059 12.0937 13.4583 12.3269 13.3632C12.5601 13.2681 12.7719 13.1274 12.9499 12.9493C13.1279 12.7711 13.2686 12.5592 13.3636 12.326C13.4585 12.0927 13.506 11.8429 13.503 11.591L13.487 10.273L14.431 9.35205C14.6112 9.17601 14.7544 8.96572 14.8522 8.73354C14.95 8.50136 15.0003 8.25198 15.0003 8.00005C15.0003 7.74812 14.95 7.49874 14.8522 7.26656C14.7544 7.03438 14.6112 6.82409 14.431 6.64805L13.487 5.72805L13.503 4.40805C13.5058 4.15623 13.4583 3.90638 13.3632 3.67319C13.2681 3.44 13.1273 3.22817 12.9492 3.05014C12.7711 2.87211 12.5592 2.73147 12.3259 2.63649C12.0927 2.54151 11.8428 2.4941 11.591 2.49705L10.273 2.51305Z"/></g><defs><clipPath id="clip0_104_2717"><rect width="16" height="16"/></clipPath></defs></svg>