<svg width="16" height="16" viewBox="0 0 16 16" fill="none" xmlns="http://www.w3.org/2000/svg">
<g clip-path="url(#clip0_104_2750)">
<path d="M8 15C6.14348 15 4.36301 14.2625 3.05025 12.9497C1.7375 11.637 1 9.85652 1 8C1 6.14348 1.7375 4.36301 3.05025 3.05025C4.36301 1.7375 6.14348 1 8 1C9.85652 1 11.637 1.7375 12.9497 3.05025C14.2625 4.36301 15 6.14348 15 8C15 9.85652 14.2625 11.637 12.9497 12.9497C11.637 14.2625 9.85652 15 8 15ZM8 16C10.1217 16 12.1566 15.1571 13.6569 13.6569C15.1571 12.1566 16 10.1217 16 8C16 5.87827 15.1571 3.84344 13.6569 2.34315C12.1566 0.842855 10.1217 0 8 0C5.87827 0 3.84344 0.842855 2.34315 2.34315C0.842855 3.84344 0 5.87827 0 8C0 10.1217 0.842855 12.1566 2.34315 13.6569C3.84344 15.1571 5.87827 16 8 16Z" fill="black"/>
<path d="M5 6.25C5 5.91848 5.1317 5.60054 5.36612 5.36612C5.60054 5.1317 5.91848 5 6.25 5C6.58152 5 6.89946 5.1317 7.13388 5.36612C7.3683 5.60054 7.5 5.91848 7.5 6.25V9.75C7.5 10.0815 7.3683 10.3995 7.13388 10.6339C6.89946 10.8683 6.58152 11 6.25 11C5.91848 11 5.60054 10.8683 5.36612 10.6339C5.1317 10.3995 5 10.0815 5 9.75V6.25ZM8.5 6.25C8.5 5.91848 8.6317 5.60054 8.86612 5.36612C9.10054 5.1317 9.41848 5 9.75 5C10.0815 5 10.3995 5.1317 10.6339 5.36612C10.8683 5.60054 11 5.91848 11 6.25V9.75C11 10.0815 10.8683 10.3995 10.6339 10.6339C10.3995 10.8683 10.0815 11 9.75 11C9.41848 11 9.10054 10.8683 8.86612 10.6339C8.6317 10.3995 8.5 10.0815 8.5 9.75V6.25Z" fill="black"/>
</g>
<defs>
<clipPath id="clip0_104_2750">
<rect width="16" height="16" fill="white"/>
</clipPath>
</defs>
</svg>
