<svg width="16" height="16" viewBox="0 0 16 16" fill="none" xmlns="http://www.w3.org/2000/svg">
<path d="M6 3.5C6.13261 3.5 6.25979 3.55268 6.35355 3.64645C6.44732 3.74021 6.5 3.86739 6.5 4V12C6.5 12.1326 6.44732 12.2598 6.35355 12.3536C6.25979 12.4473 6.13261 12.5 6 12.5C5.86739 12.5 5.74021 12.4473 5.64645 12.3536C5.55268 12.2598 5.5 12.1326 5.5 12V4C5.5 3.86739 5.55268 3.74021 5.64645 3.64645C5.74021 3.55268 5.86739 3.5 6 3.5ZM10 3.5C10.1326 3.5 10.2598 3.55268 10.3536 3.64645C10.4473 3.74021 10.5 3.86739 10.5 4V12C10.5 12.1326 10.4473 12.2598 10.3536 12.3536C10.2598 12.4473 10.1326 12.5 10 12.5C9.86739 12.5 9.74021 12.4473 9.64645 12.3536C9.55268 12.2598 9.5 12.1326 9.5 12V4C9.5 3.86739 9.55268 3.74021 9.64645 3.64645C9.74021 3.55268 9.86739 3.5 10 3.5Z" fill="black"/>
</svg>
