<svg width="16" height="16" viewBox="0 0 16 16" xmlns="http://www.w3.org/2000/svg" fill='currentColor'><g clip-path="url(#clip0_104_2753)"><path d="M16 8C16 10.1217 15.1571 12.1566 13.6569 13.6569C12.1566 15.1571 10.1217 16 8 16C5.87827 16 3.84344 15.1571 2.34315 13.6569C0.842855 12.1566 0 10.1217 0 8C0 5.87827 0.842855 3.84344 2.34315 2.34315C3.84344 0.842855 5.87827 0 8 0C10.1217 0 12.1566 0.842855 13.6569 2.34315C15.1571 3.84344 16 5.87827 16 8ZM6.25 5C5.56 5 5 5.56 5 6.25V9.75C5 10.0815 5.1317 10.3995 5.36612 10.6339C5.60054 10.8683 5.91848 11 6.25 11C6.58152 11 6.89946 10.8683 7.13388 10.6339C7.3683 10.3995 7.5 10.0815 7.5 9.75V6.25C7.5 5.56 6.94 5 6.25 5ZM9.75 5C9.06 5 8.5 5.56 8.5 6.25V9.75C8.5 10.0815 8.6317 10.3995 8.86612 10.6339C9.10054 10.8683 9.41848 11 9.75 11C10.0815 11 10.3995 10.8683 10.6339 10.6339C10.8683 10.3995 11 10.0815 11 9.75V6.25C11 5.56 10.44 5 9.75 5Z"/></g><defs><clipPath id="clip0_104_2753"><rect width="16" height="16"/></clipPath></defs></svg>