<svg width="16" height="16" viewBox="0 0 16 16" fill="none" xmlns="http://www.w3.org/2000/svg">
<path d="M5.5 3.5C5.89782 3.5 6.27936 3.65804 6.56066 3.93934C6.84196 4.22064 7 4.60218 7 5V11C7 11.3978 6.84196 11.7794 6.56066 12.0607C6.27936 12.342 5.89782 12.5 5.5 12.5C5.10218 12.5 4.72064 12.342 4.43934 12.0607C4.15804 11.7794 4 11.3978 4 11V5C4 4.60218 4.15804 4.22064 4.43934 3.93934C4.72064 3.65804 5.10218 3.5 5.5 3.5ZM10.5 3.5C10.8978 3.5 11.2794 3.65804 11.5607 3.93934C11.842 4.22064 12 4.60218 12 5V11C12 11.3978 11.842 11.7794 11.5607 12.0607C11.2794 12.342 10.8978 12.5 10.5 12.5C10.1022 12.5 9.72064 12.342 9.43934 12.0607C9.15804 11.7794 9 11.3978 9 11V5C9 4.60218 9.15804 4.22064 9.43934 3.93934C9.72064 3.65804 10.1022 3.5 10.5 3.5Z" fill="black"/>
</svg>
