<svg width="16" height="16" viewBox="0 0 16 16" fill="none" xmlns="http://www.w3.org/2000/svg">
<path d="M0 12V4C0 3.46957 0.210714 2.96086 0.585786 2.58579C0.960859 2.21071 1.46957 2 2 2H14C14.5304 2 15.0391 2.21071 15.4142 2.58579C15.7893 2.96086 16 3.46957 16 4V12C16 12.5304 15.7893 13.0391 15.4142 13.4142C15.0391 13.7893 14.5304 14 14 14H2C1.46957 14 0.960859 13.7893 0.585786 13.4142C0.210714 13.0391 0 12.5304 0 12ZM6.25 5C5.56 5 5 5.56 5 6.25V9.75C5 10.0815 5.1317 10.3995 5.36612 10.6339C5.60054 10.8683 5.91848 11 6.25 11C6.58152 11 6.89946 10.8683 7.13388 10.6339C7.3683 10.3995 7.5 10.0815 7.5 9.75V6.25C7.5 5.56 6.94 5 6.25 5ZM9.75 5C9.06 5 8.5 5.56 8.5 6.25V9.75C8.5 10.0815 8.6317 10.3995 8.86612 10.6339C9.10054 10.8683 9.41848 11 9.75 11C10.0815 11 10.3995 10.8683 10.6339 10.6339C10.8683 10.3995 11 10.0815 11 9.75V6.25C11 5.56 10.44 5 9.75 5Z" fill="black"/>
</svg>
