<svg width="16" height="16" viewBox="0 0 16 16" fill="none" xmlns="http://www.w3.org/2000/svg">
<g clip-path="url(#clip0_104_2772)">
<path d="M13.498 0.794987L13.647 0.645987C13.7591 0.533904 13.8923 0.445008 14.0388 0.384374C14.1853 0.32374 14.3423 0.292556 14.5009 0.292603C14.6594 0.292649 14.8164 0.323925 14.9629 0.384645C15.1093 0.445364 15.2424 0.534339 15.3545 0.646487C15.4666 0.758636 15.5555 0.891763 15.6161 1.03827C15.6767 1.18477 15.7079 1.34178 15.7079 1.50034C15.7078 1.6589 15.6766 1.81589 15.6158 1.96236C15.5551 2.10883 15.4661 2.2419 15.354 2.35399L15.205 2.50199C15.4599 2.78785 15.5958 3.16038 15.5848 3.54322C15.5738 3.92605 15.4168 4.29019 15.146 4.56099L4.854 14.854C4.78966 14.918 4.70911 14.9633 4.621 14.985L0.620999 15.985C0.537292 16.0058 0.449615 16.0047 0.366492 15.9816C0.283369 15.9585 0.207627 15.9144 0.14663 15.8534C0.085632 15.7924 0.0414533 15.7166 0.0183878 15.6335C-0.00467757 15.5504 -0.00584496 15.4627 0.0149991 15.379L1.015 11.379C1.03688 11.2912 1.08215 11.2111 1.146 11.147L10.788 1.50499C10.6916 1.43712 10.5742 1.40551 10.4568 1.41576C10.3393 1.42601 10.2292 1.47745 10.146 1.56099L6.854 4.85399C6.80751 4.90048 6.75232 4.93735 6.69158 4.96251C6.63084 4.98767 6.56574 5.00062 6.5 5.00062C6.43426 5.00062 6.36915 4.98767 6.30842 4.96251C6.24768 4.93735 6.19249 4.90048 6.146 4.85399C6.09951 4.8075 6.06263 4.75231 6.03748 4.69157C6.01232 4.63083 5.99937 4.56573 5.99937 4.49999C5.99937 4.43424 6.01232 4.36914 6.03748 4.3084C6.06263 4.24766 6.09951 4.19248 6.146 4.14599L9.44 0.853987C9.71097 0.583003 10.0754 0.426008 10.4585 0.415223C10.8415 0.404437 11.2142 0.540679 11.5 0.795987C11.7748 0.550426 12.1303 0.414599 12.4988 0.414415C12.8673 0.414231 13.223 0.549701 13.498 0.794987Z" fill="black"/>
</g>
<defs>
<clipPath id="clip0_104_2772">
<rect width="16" height="16" fill="white"/>
</clipPath>
</defs>
</svg>
