<svg width="16" height="16" viewBox="0 0 16 16" fill="none" xmlns="http://www.w3.org/2000/svg">
<g clip-path="url(#clip0_104_2767)">
<path d="M12.854 0.146027C12.7602 0.0522915 12.6331 -0.000366211 12.5005 -0.000366211C12.3679 -0.000366211 12.2408 0.0522915 12.147 0.146027L10.5 1.79303L14.207 5.50003L15.854 3.85403C15.9006 3.80758 15.9375 3.75241 15.9627 3.69166C15.9879 3.63092 16.0009 3.56579 16.0009 3.50003C16.0009 3.43426 15.9879 3.36914 15.9627 3.30839C15.9375 3.24765 15.9006 3.19247 15.854 3.14603L12.854 0.146027ZM13.5 6.20703L9.793 2.50003L3.293 9.00003H3.5C3.63261 9.00003 3.75979 9.0527 3.85355 9.14647C3.94732 9.24024 4 9.36742 4 9.50003V10H4.5C4.63261 10 4.75979 10.0527 4.85355 10.1465C4.94732 10.2402 5 10.3674 5 10.5V11H5.5C5.63261 11 5.75979 11.0527 5.85355 11.1465C5.94732 11.2402 6 11.3674 6 11.5V12H6.5C6.63261 12 6.75979 12.0527 6.85355 12.1465C6.94732 12.2402 7 12.3674 7 12.5V12.707L13.5 6.20703ZM6.032 13.675C6.01096 13.6191 6.00012 13.5598 6 13.5V13H5.5C5.36739 13 5.24022 12.9473 5.14645 12.8536C5.05268 12.7598 5 12.6326 5 12.5V12H4.5C4.36739 12 4.24022 11.9473 4.14645 11.8536C4.05268 11.7598 4 11.6326 4 11.5V11H3.5C3.36739 11 3.24022 10.9473 3.14645 10.8536C3.05268 10.7598 3 10.6326 3 10.5V10H2.5C2.44022 9.99993 2.38095 9.98909 2.325 9.96803L2.146 10.146C2.09835 10.194 2.06093 10.2512 2.036 10.314L0.0360006 15.314C-0.000370044 15.4049 -0.00927355 15.5044 0.0103939 15.6003C0.0300614 15.6962 0.0774349 15.7842 0.146641 15.8534C0.215848 15.9226 0.303844 15.97 0.39972 15.9896C0.495596 16.0093 0.595137 16.0004 0.686001 15.964L5.686 13.964C5.74886 13.9391 5.80602 13.9017 5.854 13.854L6.032 13.676V13.675Z" fill="black"/>
</g>
<defs>
<clipPath id="clip0_104_2767">
<rect width="16" height="16" fill="white"/>
</clipPath>
</defs>
</svg>
