<svg width="16" height="16" viewBox="0 0 16 16" fill="none" xmlns="http://www.w3.org/2000/svg">
<g clip-path="url(#clip0_104_2765)">
<path d="M12.146 0.146039C12.1924 0.0994761 12.2476 0.0625332 12.3084 0.0373268C12.3691 0.0121203 12.4342 -0.000854492 12.5 -0.000854492C12.5658 -0.000854492 12.6309 0.0121203 12.6916 0.0373268C12.7524 0.0625332 12.8076 0.0994761 12.854 0.146039L15.854 3.14604C15.9006 3.19248 15.9375 3.24766 15.9627 3.30841C15.9879 3.36915 16.0009 3.43427 16.0009 3.50004C16.0009 3.56581 15.9879 3.63093 15.9627 3.69167C15.9375 3.75242 15.9006 3.80759 15.854 3.85404L5.854 13.854C5.80601 13.9017 5.74886 13.9391 5.686 13.964L0.686 15.964C0.595136 16.0004 0.495595 16.0093 0.399719 15.9896C0.303843 15.97 0.215847 15.9226 0.14664 15.8534C0.0774339 15.7842 0.0300604 15.6962 0.010393 15.6003C-0.0092745 15.5044 -0.000370998 15.4049 0.0359997 15.314L2.036 10.314C2.06093 10.2512 2.09835 10.194 2.146 10.146L12.146 0.146039ZM11.207 2.50004L13.5 4.79304L14.793 3.50004L12.5 1.20704L11.207 2.50004ZM12.793 5.50004L10.5 3.20704L4 9.70704V10H4.5C4.63261 10 4.75978 10.0527 4.85355 10.1465C4.94732 10.2403 5 10.3674 5 10.5V11H5.5C5.63261 11 5.75978 11.0527 5.85355 11.1465C5.94732 11.2403 6 11.3674 6 11.5V12H6.293L12.793 5.50004ZM3.032 10.675L2.926 10.781L1.398 14.602L5.219 13.074L5.325 12.968C5.22962 12.9324 5.14739 12.8685 5.08931 12.7849C5.03124 12.7012 5.00008 12.6019 5 12.5V12H4.5C4.36739 12 4.24021 11.9474 4.14645 11.8536C4.05268 11.7598 4 11.6326 4 11.5V11H3.5C3.39818 11 3.29881 10.9688 3.21518 10.9107C3.13154 10.8526 3.06764 10.7704 3.032 10.675Z" fill="black"/>
</g>
<defs>
<clipPath id="clip0_104_2765">
<rect width="16" height="16" fill="white"/>
</clipPath>
</defs>
</svg>
