<svg width="16" height="16" viewBox="0 0 16 16" fill="none" xmlns="http://www.w3.org/2000/svg">
<path d="M15 14C15 14 16 14 16 13C16 12 15 9 11 9C7 9 6 12 6 13C6 14 7 14 7 14H15ZM7.022 13C7.01461 12.999 7.00727 12.9976 7 12.996C7.001 12.732 7.167 11.966 7.76 11.276C8.312 10.629 9.282 10 11 10C12.717 10 13.687 10.63 14.24 11.276C14.833 11.966 14.998 12.733 15 12.996L14.992 12.998C14.9874 12.9988 14.9827 12.9995 14.978 13H7.022ZM11 7C11.5304 7 12.0391 6.78929 12.4142 6.41421C12.7893 6.03914 13 5.53043 13 5C13 4.46957 12.7893 3.96086 12.4142 3.58579C12.0391 3.21071 11.5304 3 11 3C10.4696 3 9.96086 3.21071 9.58579 3.58579C9.21071 3.96086 9 4.46957 9 5C9 5.53043 9.21071 6.03914 9.58579 6.41421C9.96086 6.78929 10.4696 7 11 7ZM14 5C14 5.39397 13.9224 5.78407 13.7716 6.14805C13.6209 6.51203 13.3999 6.84274 13.1213 7.12132C12.8427 7.3999 12.512 7.62087 12.1481 7.77164C11.7841 7.9224 11.394 8 11 8C10.606 8 10.2159 7.9224 9.85195 7.77164C9.48797 7.62087 9.15726 7.3999 8.87868 7.12132C8.6001 6.84274 8.37913 6.51203 8.22836 6.14805C8.0776 5.78407 8 5.39397 8 5C8 4.20435 8.31607 3.44129 8.87868 2.87868C9.44129 2.31607 10.2044 2 11 2C11.7956 2 12.5587 2.31607 13.1213 2.87868C13.6839 3.44129 14 4.20435 14 5ZM6.936 9.28C6.53598 9.15404 6.12364 9.07123 5.706 9.033C5.47133 9.01068 5.23573 8.99967 5 9C1 9 0 12 0 13C0 13.667 0.333 14 1 14H5.216C5.06776 13.6878 4.99382 13.3455 5 13C5 11.99 5.377 10.958 6.09 10.096C6.333 9.802 6.616 9.527 6.936 9.28ZM4.92 10C4.32815 10.8893 4.00844 11.9318 4 13H1C1 12.74 1.164 11.97 1.76 11.276C2.305 10.64 3.252 10.02 4.92 10.001V10ZM1.5 5.5C1.5 4.70435 1.81607 3.94129 2.37868 3.37868C2.94129 2.81607 3.70435 2.5 4.5 2.5C5.29565 2.5 6.05871 2.81607 6.62132 3.37868C7.18393 3.94129 7.5 4.70435 7.5 5.5C7.5 6.29565 7.18393 7.05871 6.62132 7.62132C6.05871 8.18393 5.29565 8.5 4.5 8.5C3.70435 8.5 2.94129 8.18393 2.37868 7.62132C1.81607 7.05871 1.5 6.29565 1.5 5.5ZM4.5 3.5C3.96957 3.5 3.46086 3.71071 3.08579 4.08579C2.71071 4.46086 2.5 4.96957 2.5 5.5C2.5 6.03043 2.71071 6.53914 3.08579 6.91421C3.46086 7.28929 3.96957 7.5 4.5 7.5C5.03043 7.5 5.53914 7.28929 5.91421 6.91421C6.28929 6.53914 6.5 6.03043 6.5 5.5C6.5 4.96957 6.28929 4.46086 5.91421 4.08579C5.53914 3.71071 5.03043 3.5 4.5 3.5Z" fill="black"/>
</svg>
