<svg width="24" height="24" viewBox="0 0 24 24" xmlns="http://www.w3.org/2000/svg" fill='currentColor'><path d="M7.49791 11.0024C9.42791 11.0024 10.9979 9.43242 10.9979 7.50242C10.9979 5.57242 9.42791 4.00242 7.49791 4.00242C5.56791 4.00242 3.99791 5.57242 3.99791 7.50242C3.99791 9.43242 5.56791 11.0024 7.49791 11.0024ZM7.49791 6.00242C8.32791 6.00242 8.99791 6.67242 8.99791 7.50242C8.99791 8.33242 8.32791 9.00242 7.49791 9.00242C6.66791 9.00242 5.99791 8.33242 5.99791 7.50242C5.99791 6.67242 6.66791 6.00242 7.49791 6.00242Z"/><path d="M18.5879 3.99805L4.00041 18.5855L5.41461 19.9997L20.0021 5.41225L18.5879 3.99805Z"/><path d="M16.4979 13.0024C14.5679 13.0024 12.9979 14.5724 12.9979 16.5024C12.9979 18.4324 14.5679 20.0024 16.4979 20.0024C18.4279 20.0024 19.9979 18.4324 19.9979 16.5024C19.9979 14.5724 18.4279 13.0024 16.4979 13.0024ZM16.4979 18.0024C15.6679 18.0024 14.9979 17.3324 14.9979 16.5024C14.9979 15.6724 15.6679 15.0024 16.4979 15.0024C17.3279 15.0024 17.9979 15.6724 17.9979 16.5024C17.9979 17.3324 17.3279 18.0024 16.4979 18.0024Z"/></svg>