<svg width="16" height="16" viewBox="0 0 16 16" xmlns="http://www.w3.org/2000/svg" fill='currentColor'><path d="M13.442 2.558C13.5001 2.61604 13.5461 2.68495 13.5775 2.76078C13.6089 2.83662 13.6251 2.91791 13.6251 3C13.6251 3.08209 13.6089 3.16338 13.5775 3.23922C13.5461 3.31505 13.5001 3.38396 13.442 3.442L3.442 13.442C3.38396 13.5 3.31505 13.5461 3.23921 13.5775C3.16337 13.6089 3.08209 13.6251 3 13.6251C2.91791 13.6251 2.83663 13.6089 2.76079 13.5775C2.68495 13.5461 2.61604 13.5 2.558 13.442C2.49996 13.384 2.45391 13.315 2.4225 13.2392C2.39109 13.1634 2.37492 13.0821 2.37492 13C2.37492 12.9179 2.39109 12.8366 2.4225 12.7608C2.45391 12.685 2.49996 12.616 2.558 12.558L12.558 2.558C12.616 2.49995 12.6849 2.45389 12.7608 2.42247C12.8366 2.39106 12.9179 2.37488 13 2.37488C13.0821 2.37488 13.1634 2.39106 13.2392 2.42247C13.3151 2.45389 13.384 2.49995 13.442 2.558ZM4.5 6C4.10218 6 3.72064 5.84196 3.43934 5.56066C3.15804 5.27936 3 4.89782 3 4.5C3 4.10218 3.15804 3.72064 3.43934 3.43934C3.72064 3.15804 4.10218 3 4.5 3C4.89782 3 5.27936 3.15804 5.56066 3.43934C5.84196 3.72064 6 4.10218 6 4.5C6 4.89782 5.84196 5.27936 5.56066 5.56066C5.27936 5.84196 4.89782 6 4.5 6ZM4.5 7C5.16304 7 5.79893 6.73661 6.26777 6.26777C6.73661 5.79893 7 5.16304 7 4.5C7 3.83696 6.73661 3.20107 6.26777 2.73223C5.79893 2.26339 5.16304 2 4.5 2C3.83696 2 3.20107 2.26339 2.73223 2.73223C2.26339 3.20107 2 3.83696 2 4.5C2 5.16304 2.26339 5.79893 2.73223 6.26777C3.20107 6.73661 3.83696 7 4.5 7ZM11.5 13C11.1022 13 10.7206 12.842 10.4393 12.5607C10.158 12.2794 10 11.8978 10 11.5C10 11.1022 10.158 10.7206 10.4393 10.4393C10.7206 10.158 11.1022 10 11.5 10C11.8978 10 12.2794 10.158 12.5607 10.4393C12.842 10.7206 13 11.1022 13 11.5C13 11.8978 12.842 12.2794 12.5607 12.5607C12.2794 12.842 11.8978 13 11.5 13ZM11.5 14C12.163 14 12.7989 13.7366 13.2678 13.2678C13.7366 12.7989 14 12.163 14 11.5C14 10.837 13.7366 10.2011 13.2678 9.73223C12.7989 9.26339 12.163 9 11.5 9C10.837 9 10.2011 9.26339 9.73223 9.73223C9.26339 10.2011 9 10.837 9 11.5C9 12.163 9.26339 12.7989 9.73223 13.2678C10.2011 13.7366 10.837 14 11.5 14Z"/></svg>