<svg width="24" height="24" viewBox="0 0 24 24" xmlns="http://www.w3.org/2000/svg" fill='currentColor'><g clip-path="url(#clip0_1616_3037)"><path d="M19.0594 11.5C19.3994 11.5 19.7294 11.53 20.0594 11.57L20.0694 0L0.069397 20H11.6294C11.5894 19.67 11.5594 19.34 11.5594 19C11.5594 14.86 14.9194 11.5 19.0594 11.5ZM22.7694 19.49C22.7894 19.33 22.8094 19.17 22.8094 19C22.8094 18.83 22.7994 18.67 22.7694 18.51L23.8294 17.68C23.9194 17.6 23.9494 17.47 23.8894 17.36L22.8894 15.63C22.8294 15.52 22.6994 15.48 22.5794 15.52L21.3394 16.02C21.0794 15.82 20.7994 15.65 20.4894 15.53L20.2994 14.21C20.2894 14.09 20.1794 14 20.0594 14H18.0594C17.9394 14 17.8294 14.09 17.8094 14.21L17.6194 15.53C17.3194 15.66 17.0294 15.82 16.7694 16.02L15.5294 15.52C15.4194 15.48 15.2894 15.52 15.2194 15.63L14.2194 17.36C14.1594 17.47 14.1794 17.6 14.2794 17.68L15.3394 18.51C15.3194 18.67 15.3094 18.83 15.3094 19C15.3094 19.17 15.3194 19.33 15.3394 19.49L14.2794 20.32C14.1894 20.4 14.1594 20.53 14.2194 20.64L15.2194 22.37C15.2794 22.48 15.4094 22.52 15.5294 22.48L16.7694 21.98C17.0294 22.18 17.3094 22.35 17.6194 22.47L17.8094 23.79C17.8294 23.91 17.9294 24 18.0594 24H20.0594C20.1794 24 20.2894 23.91 20.3094 23.79L20.4994 22.47C20.7994 22.34 21.0894 22.18 21.3394 21.98L22.5894 22.48C22.6994 22.52 22.8294 22.48 22.8994 22.37L23.8994 20.64C23.9594 20.53 23.9294 20.4 23.8394 20.32L22.7694 19.49ZM19.0594 20.5C18.2294 20.5 17.5594 19.83 17.5594 19C17.5594 18.17 18.2294 17.5 19.0594 17.5C19.8894 17.5 20.5594 18.17 20.5594 19C20.5594 19.83 19.8894 20.5 19.0594 20.5Z"/></g><defs><clipPath id="clip0_1616_3037"><rect width="24" height="24"/></clipPath></defs></svg>