<svg width="16" height="16" viewBox="0 0 16 16" xmlns="http://www.w3.org/2000/svg" fill='currentColor'><g clip-path="url(#clip0_104_2844)"><path fill-rule="evenodd" clip-rule="evenodd" d="M1 14C1 14 0 14 0 13C0 12 1 9 6 9C11 9 12 12 12 13C12 14 11 14 11 14H1ZM6 8C6.79565 8 7.55871 7.68393 8.12132 7.12132C8.68393 6.55871 9 5.79565 9 5C9 4.20435 8.68393 3.44129 8.12132 2.87868C7.55871 2.31607 6.79565 2 6 2C5.20435 2 4.44129 2.31607 3.87868 2.87868C3.31607 3.44129 3 4.20435 3 5C3 5.79565 3.31607 6.55871 3.87868 7.12132C4.44129 7.68393 5.20435 8 6 8ZM12.146 5.146C12.1924 5.09944 12.2476 5.06249 12.3084 5.03729C12.3691 5.01208 12.4342 4.99911 12.5 4.99911C12.5658 4.99911 12.6309 5.01208 12.6916 5.03729C12.7524 5.06249 12.8076 5.09944 12.854 5.146L14 6.293L15.146 5.146C15.2399 5.05211 15.3672 4.99937 15.5 4.99937C15.6328 4.99937 15.7601 5.05211 15.854 5.146C15.9479 5.23989 16.0006 5.36722 16.0006 5.5C16.0006 5.63278 15.9479 5.76011 15.854 5.854L14.707 7L15.854 8.146C15.9479 8.23989 16.0006 8.36722 16.0006 8.5C16.0006 8.63278 15.9479 8.76011 15.854 8.854C15.7601 8.94789 15.6328 9.00063 15.5 9.00063C15.3672 9.00063 15.2399 8.94789 15.146 8.854L14 7.707L12.854 8.854C12.7601 8.94789 12.6328 9.00063 12.5 9.00063C12.3672 9.00063 12.2399 8.94789 12.146 8.854C12.0521 8.76011 11.9994 8.63278 11.9994 8.5C11.9994 8.36722 12.0521 8.23989 12.146 8.146L13.293 7L12.146 5.854C12.0994 5.80755 12.0625 5.75238 12.0373 5.69163C12.0121 5.63089 11.9991 5.56577 11.9991 5.5C11.9991 5.43423 12.0121 5.36911 12.0373 5.30837C12.0625 5.24762 12.0994 5.19245 12.146 5.146Z"/></g><defs><clipPath id="clip0_104_2844"><rect width="16" height="16"/></clipPath></defs></svg>