<svg width="16" height="16" viewBox="0 0 16 16" fill="none" xmlns="http://www.w3.org/2000/svg">
<g clip-path="url(#clip0_104_2801)">
<path fill-rule="evenodd" clip-rule="evenodd" d="M15.854 5.14604C15.9006 5.19248 15.9375 5.24766 15.9627 5.30841C15.9879 5.36915 16.0009 5.43427 16.0009 5.50004C16.0009 5.56581 15.9879 5.63093 15.9627 5.69167C15.9375 5.75242 15.9006 5.80759 15.854 5.85404L12.854 8.85404C12.8076 8.9006 12.7524 8.93754 12.6917 8.96275C12.6309 8.98796 12.5658 9.00093 12.5 9.00093C12.4343 9.00093 12.3691 8.98796 12.3084 8.96275C12.2476 8.93754 12.1925 8.9006 12.146 8.85404L10.646 7.35404C10.5521 7.26015 10.4994 7.13281 10.4994 7.00004C10.4994 6.86726 10.5521 6.73993 10.646 6.64604C10.7399 6.55215 10.8672 6.49941 11 6.49941C11.1328 6.49941 11.2601 6.55215 11.354 6.64604L12.5 7.79304L15.146 5.14604C15.1925 5.09948 15.2476 5.06253 15.3084 5.03733C15.3691 5.01212 15.4343 4.99915 15.5 4.99915C15.5658 4.99915 15.6309 5.01212 15.6917 5.03733C15.7524 5.06253 15.8076 5.09948 15.854 5.14604Z" fill="black"/>
<path d="M1 14C1 14 0 14 0 13C0 12 1 9 6 9C11 9 12 12 12 13C12 14 11 14 11 14H1ZM6 8C6.79565 8 7.55871 7.68393 8.12132 7.12132C8.68393 6.55871 9 5.79565 9 5C9 4.20435 8.68393 3.44129 8.12132 2.87868C7.55871 2.31607 6.79565 2 6 2C5.20435 2 4.44129 2.31607 3.87868 2.87868C3.31607 3.44129 3 4.20435 3 5C3 5.79565 3.31607 6.55871 3.87868 7.12132C4.44129 7.68393 5.20435 8 6 8Z" fill="black"/>
</g>
<defs>
<clipPath id="clip0_104_2801">
<rect width="16" height="16" fill="white"/>
</clipPath>
</defs>
</svg>
