<svg width="16" height="16" viewBox="0 0 16 16" xmlns="http://www.w3.org/2000/svg" fill='currentColor'><g clip-path="url(#clip0_104_2832)"><path d="M10 9.05005C10.663 9.05005 11.2989 8.78666 11.7678 8.31782C12.2366 7.84897 12.5 7.21309 12.5 6.55005C12.5 5.88701 12.2366 5.25112 11.7678 4.78228C11.2989 4.31344 10.663 4.05005 10 4.05005C9.33696 4.05005 8.70107 4.31344 8.23223 4.78228C7.76339 5.25112 7.5 5.88701 7.5 6.55005C7.5 7.21309 7.76339 7.84897 8.23223 8.31782C8.70107 8.78666 9.33696 9.05005 10 9.05005Z"/><path d="M2 1C1.46957 1 0.960859 1.21071 0.585786 1.58579C0.210714 1.96086 0 2.46957 0 3L0 12C0 12.5304 0.210714 13.0391 0.585786 13.4142C0.960859 13.7893 1.46957 14 2 14H14C14.5304 14 15.0391 13.7893 15.4142 13.4142C15.7893 13.0391 16 12.5304 16 12V3C16 2.46957 15.7893 1.96086 15.4142 1.58579C15.0391 1.21071 14.5304 1 14 1H2ZM1 3C1 2.73478 1.10536 2.48043 1.29289 2.29289C1.48043 2.10536 1.73478 2 2 2H4V4H1V3ZM5 13V2H14C14.2652 2 14.5196 2.10536 14.7071 2.29289C14.8946 2.48043 15 2.73478 15 3V12C15 12.285 14.88 12.543 14.69 12.725C14.15 11.494 12.822 10 10 10C6.963 10 5.655 11.73 5.202 13H5ZM1 11H4V13H2C1.73478 13 1.48043 12.8946 1.29289 12.7071C1.10536 12.5196 1 12.2652 1 12V11ZM4 10H1V8H4V10ZM4 7H1V5H4V7Z"/></g><defs><clipPath id="clip0_104_2832"><rect width="16" height="16"/></clipPath></defs></svg>