<svg width="24" height="24" viewBox="0 0 24 24" xmlns="http://www.w3.org/2000/svg" fill='currentColor'><g clip-path="url(#clip0_1616_3011)"><path d="M15.5 11.0999C17.7091 11.0999 19.5 9.30904 19.5 7.0999C19.5 4.89076 17.7091 3.0999 15.5 3.0999C13.2909 3.0999 11.5 4.89076 11.5 7.0999C11.5 9.30904 13.2909 11.0999 15.5 11.0999Z"/><path d="M23.5 19.0999V17.0999C23.5 14.7999 19.4 13.3999 16.6 13.1999L22.6 19.0999H23.5ZM11.9 13.5999C9.7 14.1999 7.5 15.3999 7.5 17.0999V19.0999H17.4L21.4 23.0999L22.7 21.7999L1.7 0.899902L0.5 2.1999L4.5 6.1999V9.0999H1.5V11.0999H4.5V14.0999H6.5V11.0999H9.4L11.9 13.5999ZM6.5 9.0999V8.1999L7.4 9.0999H6.5Z"/></g><defs><clipPath id="clip0_1616_3011"><rect width="24" height="24"/></clipPath></defs></svg>