<svg width="16" height="16" viewBox="0 0 16 16" fill="none" xmlns="http://www.w3.org/2000/svg">
<g clip-path="url(#clip0_104_2795)">
<path d="M1.5 1C1.36739 1 1.24021 1.05268 1.14645 1.14645C1.05268 1.24021 1 1.36739 1 1.5V4.5C1 4.63261 0.947322 4.75979 0.853553 4.85355C0.759785 4.94732 0.632608 5 0.5 5C0.367392 5 0.240215 4.94732 0.146447 4.85355C0.0526784 4.75979 0 4.63261 0 4.5V1.5C0 1.10218 0.158035 0.720644 0.43934 0.43934C0.720644 0.158035 1.10218 0 1.5 0L4.5 0C4.63261 0 4.75979 0.0526784 4.85355 0.146447C4.94732 0.240215 5 0.367392 5 0.5C5 0.632608 4.94732 0.759785 4.85355 0.853553C4.75979 0.947322 4.63261 1 4.5 1H1.5ZM11 0.5C11 0.367392 11.0527 0.240215 11.1464 0.146447C11.2402 0.0526784 11.3674 0 11.5 0L14.5 0C14.8978 0 15.2794 0.158035 15.5607 0.43934C15.842 0.720644 16 1.10218 16 1.5V4.5C16 4.63261 15.9473 4.75979 15.8536 4.85355C15.7598 4.94732 15.6326 5 15.5 5C15.3674 5 15.2402 4.94732 15.1464 4.85355C15.0527 4.75979 15 4.63261 15 4.5V1.5C15 1.36739 14.9473 1.24021 14.8536 1.14645C14.7598 1.05268 14.6326 1 14.5 1H11.5C11.3674 1 11.2402 0.947322 11.1464 0.853553C11.0527 0.759785 11 0.632608 11 0.5ZM0.5 11C0.632608 11 0.759785 11.0527 0.853553 11.1464C0.947322 11.2402 1 11.3674 1 11.5V14.5C1 14.6326 1.05268 14.7598 1.14645 14.8536C1.24021 14.9473 1.36739 15 1.5 15H4.5C4.63261 15 4.75979 15.0527 4.85355 15.1464C4.94732 15.2402 5 15.3674 5 15.5C5 15.6326 4.94732 15.7598 4.85355 15.8536C4.75979 15.9473 4.63261 16 4.5 16H1.5C1.10218 16 0.720644 15.842 0.43934 15.5607C0.158035 15.2794 0 14.8978 0 14.5L0 11.5C0 11.3674 0.0526784 11.2402 0.146447 11.1464C0.240215 11.0527 0.367392 11 0.5 11ZM15.5 11C15.6326 11 15.7598 11.0527 15.8536 11.1464C15.9473 11.2402 16 11.3674 16 11.5V14.5C16 14.8978 15.842 15.2794 15.5607 15.5607C15.2794 15.842 14.8978 16 14.5 16H11.5C11.3674 16 11.2402 15.9473 11.1464 15.8536C11.0527 15.7598 11 15.6326 11 15.5C11 15.3674 11.0527 15.2402 11.1464 15.1464C11.2402 15.0527 11.3674 15 11.5 15H14.5C14.6326 15 14.7598 14.9473 14.8536 14.8536C14.9473 14.7598 15 14.6326 15 14.5V11.5C15 11.3674 15.0527 11.2402 15.1464 11.1464C15.2402 11.0527 15.3674 11 15.5 11Z" fill="black"/>
<path d="M3 14C3 14 2 14 2 13C2 12 3 9 8 9C13 9 14 12 14 13C14 14 13 14 13 14H3ZM11 5C11 5.79565 10.6839 6.55871 10.1213 7.12132C9.55871 7.68393 8.79565 8 8 8C7.20435 8 6.44129 7.68393 5.87868 7.12132C5.31607 6.55871 5 5.79565 5 5C5 4.20435 5.31607 3.44129 5.87868 2.87868C6.44129 2.31607 7.20435 2 8 2C8.79565 2 9.55871 2.31607 10.1213 2.87868C10.6839 3.44129 11 4.20435 11 5Z" fill="black"/>
</g>
<defs>
<clipPath id="clip0_104_2795">
<rect width="16" height="16" fill="white"/>
</clipPath>
</defs>
</svg>
