<svg width="16" height="16" viewBox="0 0 16 16" fill="none" xmlns="http://www.w3.org/2000/svg">
<g clip-path="url(#clip0_104_2829)">
<path d="M8 9.05005C8.66304 9.05005 9.29893 8.78666 9.76777 8.31782C10.2366 7.84897 10.5 7.21309 10.5 6.55005C10.5 5.88701 10.2366 5.25112 9.76777 4.78228C9.29893 4.31344 8.66304 4.05005 8 4.05005C7.33696 4.05005 6.70107 4.31344 6.23223 4.78228C5.76339 5.25112 5.5 5.88701 5.5 6.55005C5.5 7.21309 5.76339 7.84897 6.23223 8.31782C6.70107 8.78666 7.33696 9.05005 8 9.05005Z" fill="black"/>
<path d="M2 2C1.46957 2 0.960859 2.21071 0.585786 2.58579C0.210714 2.96086 0 3.46957 0 4L0 12C0 12.5304 0.210714 13.0391 0.585786 13.4142C0.960859 13.7893 1.46957 14 2 14H14C14.5304 14 15.0391 13.7893 15.4142 13.4142C15.7893 13.0391 16 12.5304 16 12V4C16 3.46957 15.7893 2.96086 15.4142 2.58579C15.0391 2.21071 14.5304 2 14 2H2ZM12.798 13C12.345 11.73 11.038 10 8 10C4.963 10 3.655 11.73 3.202 13H2C1.73478 13 1.48043 12.8946 1.29289 12.7071C1.10536 12.5196 1 12.2652 1 12V4C1 3.73478 1.10536 3.48043 1.29289 3.29289C1.48043 3.10536 1.73478 3 2 3H14C14.2652 3 14.5196 3.10536 14.7071 3.29289C14.8946 3.48043 15 3.73478 15 4V12C15 12.2652 14.8946 12.5196 14.7071 12.7071C14.5196 12.8946 14.2652 13 14 13H12.798Z" fill="black"/>
</g>
<defs>
<clipPath id="clip0_104_2829">
<rect width="16" height="16" fill="white"/>
</clipPath>
</defs>
</svg>
