<svg width="24" height="24" viewBox="0 0 24 24" xmlns="http://www.w3.org/2000/svg" fill='currentColor'><path d="M9.36 5.1101C10.07 4.0101 11.31 3.2901 12.71 3.2901C14.92 3.2901 16.71 5.0801 16.71 7.2901C16.71 8.6901 15.99 9.9301 14.89 10.6401L9.36 5.1101ZM20.71 16.4601C20.69 15.3601 20.08 14.3501 19.1 13.8401C18.56 13.5601 17.97 13.3001 17.33 13.0801L20.71 16.4601ZM21.9 20.4801L3.52 2.1001L2.1 3.5101L10.99 12.4001C9.18 12.6301 7.6 13.1901 6.32 13.8501C5.32 14.3601 4.71 15.3901 4.71 16.5101V19.2901H17.88L20.49 21.9001L21.9 20.4801Z"/></svg>