<svg width="16" height="16" viewBox="0 0 16 16" xmlns="http://www.w3.org/2000/svg" fill='currentColor'><g clip-path="url(#clip0_104_2841)"><path d="M6 8C6.79565 8 7.55871 7.68393 8.12132 7.12132C8.68393 6.55871 9 5.79565 9 5C9 4.20435 8.68393 3.44129 8.12132 2.87868C7.55871 2.31607 6.79565 2 6 2C5.20435 2 4.44129 2.31607 3.87868 2.87868C3.31607 3.44129 3 4.20435 3 5C3 5.79565 3.31607 6.55871 3.87868 7.12132C4.44129 7.68393 5.20435 8 6 8ZM8 5C8 5.53043 7.78929 6.03914 7.41421 6.41421C7.03914 6.78929 6.53043 7 6 7C5.46957 7 4.96086 6.78929 4.58579 6.41421C4.21071 6.03914 4 5.53043 4 5C4 4.46957 4.21071 3.96086 4.58579 3.58579C4.96086 3.21071 5.46957 3 6 3C6.53043 3 7.03914 3.21071 7.41421 3.58579C7.78929 3.96086 8 4.46957 8 5ZM12 13C12 14 11 14 11 14H1C1 14 0 14 0 13C0 12 1 9 6 9C11 9 12 12 12 13ZM11 12.996C10.999 12.75 10.846 12.01 10.168 11.332C9.516 10.68 8.289 10 6 10C3.71 10 2.484 10.68 1.832 11.332C1.154 12.01 1.002 12.75 1 12.996H11Z"/><path fill-rule="evenodd" clip-rule="evenodd" d="M12.146 5.14604C12.1924 5.09948 12.2476 5.06253 12.3084 5.03733C12.3691 5.01212 12.4342 4.99915 12.5 4.99915C12.5658 4.99915 12.6309 5.01212 12.6916 5.03733C12.7524 5.06253 12.8075 5.09948 12.854 5.14604L14 6.29304L15.146 5.14604C15.2399 5.05215 15.3672 4.99941 15.5 4.99941C15.6328 4.99941 15.7601 5.05215 15.854 5.14604C15.9479 5.23993 16.0006 5.36726 16.0006 5.50004C16.0006 5.63281 15.9479 5.76015 15.854 5.85404L14.707 7.00004L15.854 8.14604C15.9479 8.23993 16.0006 8.36726 16.0006 8.50004C16.0006 8.63281 15.9479 8.76015 15.854 8.85404C15.7601 8.94793 15.6328 9.00067 15.5 9.00067C15.3672 9.00067 15.2399 8.94793 15.146 8.85404L14 7.70704L12.854 8.85404C12.7601 8.94793 12.6328 9.00067 12.5 9.00067C12.3672 9.00067 12.2399 8.94793 12.146 8.85404C12.0521 8.76015 11.9994 8.63281 11.9994 8.50004C11.9994 8.36726 12.0521 8.23993 12.146 8.14604L13.293 7.00004L12.146 5.85404C12.0994 5.80759 12.0625 5.75242 12.0373 5.69167C12.0121 5.63093 11.9991 5.56581 11.9991 5.50004C11.9991 5.43427 12.0121 5.36915 12.0373 5.30841C12.0625 5.24766 12.0994 5.19248 12.146 5.14604Z"/></g><defs><clipPath id="clip0_104_2841"><rect width="16" height="16"/></clipPath></defs></svg>