<svg width="16" height="16" viewBox="0 0 16 16" fill="none" xmlns="http://www.w3.org/2000/svg">
<path fill-rule="evenodd" clip-rule="evenodd" d="M11 7.5C11 7.36739 11.0527 7.24021 11.1464 7.14645C11.2402 7.05268 11.3674 7 11.5 7H15.5C15.6326 7 15.7598 7.05268 15.8536 7.14645C15.9473 7.24021 16 7.36739 16 7.5C16 7.63261 15.9473 7.75979 15.8536 7.85355C15.7598 7.94732 15.6326 8 15.5 8H11.5C11.3674 8 11.2402 7.94732 11.1464 7.85355C11.0527 7.75979 11 7.63261 11 7.5Z" fill="black"/>
<path d="M1 14C1 14 0 14 0 13C0 12 1 9 6 9C11 9 12 12 12 13C12 14 11 14 11 14H1ZM6 8C6.79565 8 7.55871 7.68393 8.12132 7.12132C8.68393 6.55871 9 5.79565 9 5C9 4.20435 8.68393 3.44129 8.12132 2.87868C7.55871 2.31607 6.79565 2 6 2C5.20435 2 4.44129 2.31607 3.87868 2.87868C3.31607 3.44129 3 4.20435 3 5C3 5.79565 3.31607 6.55871 3.87868 7.12132C4.44129 7.68393 5.20435 8 6 8Z" fill="black"/>
</svg>
