<svg width="16" height="16" viewBox="0 0 16 16" fill="none" xmlns="http://www.w3.org/2000/svg">
<g clip-path="url(#clip0_104_2823)">
<path d="M8 9.05005C8.66304 9.05005 9.29893 8.78666 9.76777 8.31782C10.2366 7.84897 10.5 7.21309 10.5 6.55005C10.5 5.88701 10.2366 5.25112 9.76777 4.78228C9.29893 4.31344 8.66304 4.05005 8 4.05005C7.33696 4.05005 6.70107 4.31344 6.23223 4.78228C5.76339 5.25112 5.5 5.88701 5.5 6.55005C5.5 7.21309 5.76339 7.84897 6.23223 8.31782C6.70107 8.78666 7.33696 9.05005 8 9.05005Z" fill="black"/>
<path d="M1 1C0.734784 1 0.48043 1.10536 0.292893 1.29289C0.105357 1.48043 0 1.73478 0 2L0 13C0 13.2652 0.105357 13.5196 0.292893 13.7071C0.48043 13.8946 0.734784 14 1 14H1.5C1.63261 14 1.75979 13.9473 1.85355 13.8536C1.94732 13.7598 2 13.6326 2 13.5C2 13.3674 2.05268 13.2402 2.14645 13.1464C2.24021 13.0527 2.36739 13 2.5 13C2.63261 13 2.75979 13.0527 2.85355 13.1464C2.94732 13.2402 3 13.3674 3 13.5C3 13.6326 3.05268 13.7598 3.14645 13.8536C3.24021 13.9473 3.36739 14 3.5 14H12.5C12.6326 14 12.7598 13.9473 12.8536 13.8536C12.9473 13.7598 13 13.6326 13 13.5C13 13.3674 13.0527 13.2402 13.1464 13.1464C13.2402 13.0527 13.3674 13 13.5 13C13.6326 13 13.7598 13.0527 13.8536 13.1464C13.9473 13.2402 14 13.3674 14 13.5C14 13.6326 14.0527 13.7598 14.1464 13.8536C14.2402 13.9473 14.3674 14 14.5 14H15C15.2652 14 15.5196 13.8946 15.7071 13.7071C15.8946 13.5196 16 13.2652 16 13V3C16 2.73478 15.8946 2.48043 15.7071 2.29289C15.5196 2.10536 15.2652 2 15 2H6.707L6 1.293C5.81251 1.10545 5.5582 1.00006 5.293 1H1ZM1 2H5.293L6 2.707C6.18749 2.89455 6.4418 2.99994 6.707 3H15V13H14.915C14.8334 12.7693 14.6965 12.5621 14.5164 12.3965C14.3364 12.2308 14.1185 12.1117 13.8818 12.0496C13.6451 11.9875 13.3968 11.9842 13.1586 12.04C12.9204 12.0959 12.6994 12.2092 12.515 12.37C11.885 11.223 10.554 10 8 10C5.445 10 4.114 11.224 3.486 12.37C3.30159 12.2092 3.08063 12.0959 2.8424 12.04C2.60416 11.9842 2.35588 11.9875 2.11921 12.0496C1.88253 12.1117 1.66465 12.2308 1.48456 12.3965C1.30447 12.5621 1.16764 12.7693 1.086 13H1V2Z" fill="black"/>
</g>
<defs>
<clipPath id="clip0_104_2823">
<rect width="16" height="16" fill="white"/>
</clipPath>
</defs>
</svg>
