<svg width="24" height="24" viewBox="0 0 24 24" xmlns="http://www.w3.org/2000/svg" fill='currentColor'><path d="M18.39 15.56C16.71 14.7 14.53 14 12 14C9.47 14 7.29 14.7 5.61 15.56C4.61 16.07 4 17.1 4 18.22V21H20V18.22C20 17.1 19.39 16.07 18.39 15.56Z"/><path d="M10 13C10.17 13 13.83 13 14 13C15.66 13 17 11.66 17 10C17 9.27 16.73 8.6 16.29 8.08C16.42 7.75 16.5 7.38 16.5 7C16.5 5.75 15.73 4.68 14.64 4.23C14 3.48 13.06 3 12 3C10.94 3 10 3.48 9.36 4.23C8.27 4.68 7.5 5.75 7.5 7C7.5 7.38 7.58 7.75 7.71 8.08C7.27 8.6 7 9.27 7 10C7 11.66 8.34 13 10 13Z"/></svg>