<svg width="16" height="16" viewBox="0 0 16 16" xmlns="http://www.w3.org/2000/svg" fill='currentColor'><g clip-path="url(#clip0_104_2856)"><path d="M10 3C10.2652 3 10.5196 3.10536 10.7071 3.29289C10.8946 3.48043 11 3.73478 11 4V12C11 12.2652 10.8946 12.5196 10.7071 12.7071C10.5196 12.8946 10.2652 13 10 13H6C5.73478 13 5.48043 12.8946 5.29289 12.7071C5.10536 12.5196 5 12.2652 5 12V4C5 3.73478 5.10536 3.48043 5.29289 3.29289C5.48043 3.10536 5.73478 3 6 3H10ZM6 2C5.46957 2 4.96086 2.21071 4.58579 2.58579C4.21071 2.96086 4 3.46957 4 4V12C4 12.5304 4.21071 13.0391 4.58579 13.4142C4.96086 13.7893 5.46957 14 6 14H10C10.5304 14 11.0391 13.7893 11.4142 13.4142C11.7893 13.0391 12 12.5304 12 12V4C12 3.46957 11.7893 2.96086 11.4142 2.58579C11.0391 2.21071 10.5304 2 10 2H6Z"/><path d="M8.00001 12C8.26523 12 8.51958 11.8947 8.70712 11.7071C8.89465 11.5196 9.00001 11.2653 9.00001 11C9.00001 10.7348 8.89465 10.4805 8.70712 10.2929C8.51958 10.1054 8.26523 10 8.00001 10C7.73479 10 7.48044 10.1054 7.2929 10.2929C7.10537 10.4805 7.00001 10.7348 7.00001 11C7.00001 11.2653 7.10537 11.5196 7.2929 11.7071C7.48044 11.8947 7.73479 12 8.00001 12ZM1.59901 4.05804C1.65706 4.08876 1.7085 4.13061 1.75037 4.18121C1.79225 4.23181 1.82374 4.29017 1.84306 4.35295C1.86238 4.41572 1.86913 4.48169 1.86295 4.54708C1.85676 4.61247 1.83775 4.676 1.80701 4.73404C1.27525 5.74044 0.998175 6.8618 1.00001 8.00004C1.00001 9.18004 1.29201 10.292 1.80701 11.266C1.86907 11.3833 1.88202 11.5203 1.84301 11.6471C1.804 11.7739 1.71623 11.88 1.59901 11.942C1.48178 12.0041 1.3447 12.0171 1.21793 11.978C1.09116 11.939 0.985069 11.8513 0.923008 11.734C0.315032 10.5834 -0.00186755 9.3014 8.27941e-06 8.00004C8.27941e-06 6.65304 0.334008 5.38104 0.923008 4.26604C0.953726 4.20798 0.995581 4.15655 1.04618 4.11467C1.09678 4.0728 1.15514 4.0413 1.21792 4.02199C1.28069 4.00267 1.34666 3.99591 1.41205 4.0021C1.47744 4.00829 1.54097 4.02729 1.59901 4.05804ZM14.401 4.05804C14.459 4.02729 14.5226 4.00829 14.588 4.0021C14.6534 3.99591 14.7193 4.00267 14.7821 4.02199C14.8449 4.0413 14.9032 4.0728 14.9538 4.11467C15.0044 4.15655 15.0463 4.20798 15.077 4.26604C15.685 5.41664 16.0019 6.69867 16 8.00004C16.0019 9.30141 15.685 10.5834 15.077 11.734C15.0149 11.8513 14.9089 11.939 14.7821 11.978C14.6553 12.0171 14.5182 12.0041 14.401 11.942C14.2838 11.88 14.196 11.7739 14.157 11.6471C14.118 11.5203 14.1309 11.3833 14.193 11.266C14.7248 10.2596 15.0018 9.13828 15 8.00004C15 6.82004 14.708 5.70804 14.193 4.73404C14.1623 4.676 14.1433 4.61247 14.1371 4.54708C14.1309 4.48169 14.1376 4.41572 14.157 4.35295C14.1763 4.29017 14.2078 4.23181 14.2496 4.18121C14.2915 4.13061 14.343 4.08876 14.401 4.05804ZM3.05701 5.53404C3.11823 5.55791 3.17414 5.59361 3.22155 5.63911C3.26896 5.6846 3.30694 5.73899 3.33332 5.79918C3.3597 5.85936 3.37395 5.92415 3.37527 5.98984C3.37659 6.05554 3.36495 6.12085 3.34101 6.18204C3.11495 6.76147 2.99929 7.37808 3.00001 8.00004C3.00001 8.64204 3.12001 9.25504 3.34001 9.81804C3.36791 9.87984 3.38296 9.94667 3.38422 10.0145C3.38549 10.0823 3.37295 10.1496 3.34737 10.2124C3.32179 10.2752 3.2837 10.3322 3.23542 10.3798C3.18715 10.4274 3.12969 10.4647 3.06655 10.4894C3.0034 10.5141 2.93589 10.5257 2.86811 10.5235C2.80034 10.5213 2.73372 10.5054 2.67231 10.4766C2.6109 10.4479 2.55597 10.4069 2.51088 10.3563C2.46579 10.3057 2.43147 10.2464 2.41001 10.182C2.13847 9.48664 1.99942 8.74658 2.00001 8.00004C2.00001 7.23104 2.14501 6.49504 2.41001 5.81804C2.45823 5.69464 2.55344 5.59543 2.67475 5.54218C2.79606 5.48893 2.93354 5.486 3.05701 5.53404ZM12.943 5.53404C13.0042 5.5101 13.0695 5.49846 13.1352 5.49978C13.2009 5.5011 13.2657 5.51535 13.3259 5.54173C13.3861 5.5681 13.4404 5.60608 13.4859 5.6535C13.5314 5.70091 13.5671 5.75682 13.591 5.81804C13.855 6.49504 14 7.23104 14 8.00004C14 8.76904 13.855 9.50504 13.59 10.182C13.5373 10.2989 13.4416 10.391 13.3229 10.4393C13.2042 10.4877 13.0714 10.4886 12.9521 10.4419C12.8327 10.3952 12.7358 10.3044 12.6815 10.1883C12.6271 10.0722 12.6194 9.93964 12.66 9.81804C12.88 9.25504 13 8.64204 13 8.00004C13 7.35804 12.88 6.74504 12.66 6.18204C12.6116 6.05858 12.6142 5.92095 12.6673 5.79943C12.7204 5.67791 12.8196 5.58244 12.943 5.53404Z"/></g><defs><clipPath id="clip0_104_2856"><rect width="16" height="16"/></clipPath></defs></svg>