<svg width="24" height="24" viewBox="0 0 24 24" xmlns="http://www.w3.org/2000/svg" fill='currentColor'><path d="M11.8204 12.49C11.8404 12.33 11.8604 12.17 11.8604 12C11.8604 11.83 11.8404 11.67 11.8204 11.51L12.9004 10.69C13.0004 10.62 13.0204 10.48 12.9604 10.37L11.9304 8.64C11.8704 8.53 11.7304 8.49 11.6204 8.53L10.3404 9.03C10.0704 8.83 9.78039 8.67 9.47039 8.54L9.27039 7.21C9.27039 7.09 9.16039 7 9.03039 7H6.98039C6.85039 7 6.74039 7.09 6.72039 7.21L6.52039 8.53C6.21039 8.65 5.92039 8.83 5.65039 9.02L4.37039 8.52C4.25039 8.47 4.12039 8.52 4.06039 8.63L3.03039 10.36C2.97039 10.48 3.00039 10.61 3.10039 10.69L4.18039 11.51C4.16039 11.67 4.15039 11.84 4.15039 12C4.15039 12.17 4.17039 12.33 4.19039 12.49L3.10039 13.32C3.00039 13.39 2.98039 13.53 3.04039 13.64L4.07039 15.37C4.13039 15.48 4.27039 15.52 4.38039 15.48L5.66039 14.98C5.93039 15.18 6.22039 15.34 6.53039 15.47L6.73039 16.79C6.74039 16.91 6.85039 17 6.98039 17H9.04039C9.17039 17 9.28039 16.91 9.29039 16.79L9.49039 15.47C9.80039 15.35 10.0904 15.17 10.3604 14.98L11.6404 15.48C11.7604 15.53 11.8904 15.48 11.9504 15.37L12.9804 13.64C13.0404 13.53 13.0204 13.4 12.9204 13.32L11.8204 12.49ZM8.00039 13.75C7.01039 13.75 6.20039 12.97 6.20039 12C6.20039 11.03 7.01039 10.25 8.00039 10.25C8.99039 10.25 9.80039 11.03 9.80039 12C9.80039 12.97 9.00039 13.75 8.00039 13.75ZM19.0004 1.01L9.00039 1C7.90039 1 7.00039 1.9 7.00039 3V6H9.00039V5H19.0004V19H9.00039V18H7.00039V21C7.00039 22.1 7.90039 23 9.00039 23H19.0004C20.1004 23 21.0004 22.1 21.0004 21V3C21.0004 1.9 20.1004 1.01 19.0004 1.01Z"/></svg>