<svg width="16" height="16" viewBox="0 0 16 16" fill="none" xmlns="http://www.w3.org/2000/svg">
<path d="M2 12.5C1.46957 12.5 0.960859 12.2893 0.585786 11.9142C0.210714 11.5391 0 11.0304 0 10.5V4.5C0 3.96957 0.210714 3.46086 0.585786 3.08579C0.960859 2.71071 1.46957 2.5 2 2.5H14C14.5304 2.5 15.0391 2.71071 15.4142 3.08579C15.7893 3.46086 16 3.96957 16 4.5V10.5C16 11.0304 15.7893 11.5391 15.4142 11.9142C15.0391 12.2893 14.5304 12.5 14 12.5H2ZM13 6.5C12.7348 6.5 12.4804 6.60536 12.2929 6.79289C12.1054 6.98043 12 7.23478 12 7.5C12 7.76522 12.1054 8.01957 12.2929 8.20711C12.4804 8.39464 12.7348 8.5 13 8.5C13.2652 8.5 13.5196 8.39464 13.7071 8.20711C13.8946 8.01957 14 7.76522 14 7.5C14 7.23478 13.8946 6.98043 13.7071 6.79289C13.5196 6.60536 13.2652 6.5 13 6.5Z" fill="black"/>
</svg>
