<svg width="16" height="16" viewBox="0 0 16 16" fill="none" xmlns="http://www.w3.org/2000/svg">
<g clip-path="url(#clip0_104_2851)">
<path d="M1 4.5C1 4.23478 1.10536 3.98043 1.29289 3.79289C1.48043 3.60536 1.73478 3.5 2 3.5H14C14.2652 3.5 14.5196 3.60536 14.7071 3.79289C14.8946 3.98043 15 4.23478 15 4.5V10.5C15 10.7652 14.8946 11.0196 14.7071 11.2071C14.5196 11.3946 14.2652 11.5 14 11.5H2C1.73478 11.5 1.48043 11.3946 1.29289 11.2071C1.10536 11.0196 1 10.7652 1 10.5V4.5ZM0 10.5C0 11.0304 0.210714 11.5391 0.585786 11.9142C0.960859 12.2893 1.46957 12.5 2 12.5H14C14.5304 12.5 15.0391 12.2893 15.4142 11.9142C15.7893 11.5391 16 11.0304 16 10.5V4.5C16 3.96957 15.7893 3.46086 15.4142 3.08579C15.0391 2.71071 14.5304 2.5 14 2.5H2C1.46957 2.5 0.960859 2.71071 0.585786 3.08579C0.210714 3.46086 0 3.96957 0 4.5L0 10.5Z" fill="black"/>
<path d="M14 7.5C14 7.23478 13.8946 6.98043 13.7071 6.79289C13.5196 6.60536 13.2652 6.5 13 6.5C12.7348 6.5 12.4804 6.60536 12.2929 6.79289C12.1054 6.98043 12 7.23478 12 7.5C12 7.76522 12.1054 8.01957 12.2929 8.20711C12.4804 8.39464 12.7348 8.5 13 8.5C13.2652 8.5 13.5196 8.39464 13.7071 8.20711C13.8946 8.01957 14 7.76522 14 7.5Z" fill="black"/>
</g>
<defs>
<clipPath id="clip0_104_2851">
<rect width="16" height="16" fill="white"/>
</clipPath>
</defs>
</svg>
