<svg width="16" height="16" viewBox="0 0 16 16" fill="none" xmlns="http://www.w3.org/2000/svg">
<g clip-path="url(#clip0_104_2859)">
<path d="M4.00001 4C4.00001 3.46957 4.21072 2.96086 4.58579 2.58579C4.96087 2.21071 5.46958 2 6.00001 2H10C10.5304 2 11.0391 2.21071 11.4142 2.58579C11.7893 2.96086 12 3.46957 12 4V12C12 12.5304 11.7893 13.0391 11.4142 13.4142C11.0391 13.7893 10.5304 14 10 14H6.00001C5.46958 14 4.96087 13.7893 4.58579 13.4142C4.21072 13.0391 4.00001 12.5304 4.00001 12V4ZM9.00001 11C9.00001 10.7348 8.89465 10.4804 8.70712 10.2929C8.51958 10.1054 8.26523 10 8.00001 10C7.73479 10 7.48044 10.1054 7.2929 10.2929C7.10537 10.4804 7.00001 10.7348 7.00001 11C7.00001 11.2652 7.10537 11.5196 7.2929 11.7071C7.48044 11.8946 7.73479 12 8.00001 12C8.26523 12 8.51958 11.8946 8.70712 11.7071C8.89465 11.5196 9.00001 11.2652 9.00001 11ZM1.80701 4.734C1.86907 4.61677 1.88202 4.4797 1.84301 4.35292C1.80401 4.22615 1.71623 4.12006 1.59901 4.058C1.48178 3.99594 1.3447 3.98299 1.21793 4.022C1.09116 4.061 0.985069 4.14877 0.923009 4.266C0.314994 5.4166 -0.00190782 6.69863 8.64084e-06 8C8.64084e-06 9.347 0.334009 10.618 0.923009 11.734C0.953738 11.792 0.995599 11.8435 1.0462 11.8853C1.0968 11.9272 1.15516 11.9587 1.21793 11.978C1.2807 11.9973 1.34666 12.0041 1.41205 11.9979C1.47744 11.9917 1.54096 11.9727 1.59901 11.942C1.65705 11.9113 1.70848 11.8694 1.75034 11.8188C1.79221 11.7682 1.8237 11.7099 1.84301 11.6471C1.86233 11.5843 1.86909 11.5183 1.86291 11.453C1.85673 11.3876 1.83774 11.324 1.80701 11.266C1.27525 10.2596 0.998176 9.13824 1.00001 8C1.00001 6.82 1.29201 5.708 1.80701 4.734ZM15.077 4.266C15.0149 4.14877 14.9089 4.061 14.7821 4.022C14.6553 3.98299 14.5182 3.99594 14.401 4.058C14.2838 4.12006 14.196 4.22615 14.157 4.35292C14.118 4.4797 14.1309 4.61677 14.193 4.734C14.708 5.708 15 6.819 15 8C15 9.18 14.708 10.292 14.193 11.266C14.1309 11.3832 14.118 11.5203 14.157 11.6471C14.196 11.7739 14.2838 11.8799 14.401 11.942C14.5182 12.0041 14.6553 12.017 14.7821 11.978C14.9089 11.939 15.0149 11.8512 15.077 11.734C15.685 10.5834 16.0019 9.30137 16 8C16.0019 6.69863 15.685 5.4166 15.077 4.266ZM3.34001 6.182C3.36791 6.1202 3.38296 6.05337 3.38422 5.98557C3.38549 5.91777 3.37295 5.85043 3.34737 5.78763C3.32179 5.72483 3.2837 5.66789 3.23543 5.62027C3.18715 5.57265 3.12969 5.53535 3.06655 5.51063C3.0034 5.48592 2.93589 5.47431 2.86811 5.4765C2.80034 5.4787 2.73372 5.49466 2.67231 5.52341C2.6109 5.55216 2.55597 5.5931 2.51088 5.64375C2.46579 5.69439 2.43147 5.75368 2.41001 5.818C2.13847 6.5134 1.99942 7.25346 2.00001 8C2.00001 8.769 2.14501 9.505 2.41001 10.182C2.43147 10.2463 2.46579 10.3056 2.51088 10.3563C2.55597 10.4069 2.6109 10.4478 2.67231 10.4766C2.73372 10.5053 2.80034 10.5213 2.86811 10.5235C2.93589 10.5257 3.0034 10.5141 3.06655 10.4894C3.12969 10.4647 3.18715 10.4274 3.23543 10.3797C3.2837 10.3321 3.32179 10.2752 3.34737 10.2124C3.37295 10.1496 3.38549 10.0822 3.38422 10.0144C3.38296 9.94663 3.36791 9.8798 3.34001 9.818C3.11429 9.23851 2.99897 8.6219 3.00001 8C3.00001 7.358 3.12001 6.745 3.34001 6.182ZM13.59 5.818C13.5373 5.70117 13.4416 5.60906 13.3229 5.5607C13.2042 5.51234 13.0714 5.51143 12.9521 5.55815C12.8327 5.60488 12.7358 5.69566 12.6815 5.81176C12.6271 5.92786 12.6194 6.0604 12.66 6.182C12.88 6.745 13 7.358 13 8C13 8.642 12.88 9.255 12.66 9.818C12.6194 9.9396 12.6271 10.0721 12.6815 10.1882C12.7358 10.3043 12.8327 10.3951 12.9521 10.4418C13.0714 10.4886 13.2042 10.4877 13.3229 10.4393C13.4416 10.3909 13.5373 10.2988 13.59 10.182C13.856 9.505 14 8.769 14 8C14 7.231 13.855 6.495 13.59 5.818Z" fill="black"/>
</g>
<defs>
<clipPath id="clip0_104_2859">
<rect width="16" height="16" fill="white"/>
</clipPath>
</defs>
</svg>
