<svg xmlns="http://www.w3.org/2000/svg" width="24" height="24" viewBox="0 0 24 24" fill='currentColor'><path d="M11.82 12.49c.02-.16.04-.32.04-.49s-.02-.33-.04-.49l1.08-.82c.1-.07.12-.21.06-.32l-1.03-1.73c-.06-.11-.2-.15-.31-.11l-1.28.5c-.27-.2-.56-.36-.87-.49l-.2-1.33c0-.12-.11-.21-.24-.21H6.98a.26.26 0 0 0-.26.21l-.2 1.32c-.31.12-.6.3-.87.49l-1.28-.5c-.12-.05-.25 0-.31.11l-1.03 1.73c-.06.12-.03.25.07.33l1.08.82c-.02.16-.03.33-.03.49 0 .17.02.33.04.49l-1.09.83c-.1.07-.12.21-.06.32l1.03 1.73c.06.11.2.15.31.11l1.28-.5c.27.2.56.36.87.49l.2 1.32c.01.12.12.21.25.21h2.06c.13 0 .24-.09.25-.21l.2-1.32c.31-.12.6-.3.87-.49l1.28.5c.12.05.25 0 .31-.11l1.03-1.73c.06-.11.04-.24-.06-.32zM8 13.75c-.99 0-1.8-.78-1.8-1.75s.81-1.75 1.8-1.75 1.8.78 1.8 1.75S9 13.75 8 13.75M19 1.01 9 1c-1.1 0-2 .9-2 2v3h2V5h10v14H9v-1H7v3c0 1.1.9 2 2 2h10c1.1 0 2-.9 2-2V3c0-1.1-.9-1.99-2-1.99"/></svg>