<svg width="24" height="24" viewBox="0 0 24 24" xmlns="http://www.w3.org/2000/svg" fill='currentColor'><path d="M21.9 20.4801L3.52001 2.1001L2.10001 3.5101L3.71001 5.1201V18.2901C3.71001 19.3901 4.61001 20.2901 5.71001 20.2901H18.88L20.49 21.9001L21.9 20.4801ZM8.96001 18.2901H5.71001V7.1201L7.71001 9.1201V12.7901C7.71001 13.3401 8.16001 13.7901 8.71001 13.7901H8.96001V18.2901ZM10.46 18.2901V13.7901H10.71C11.17 13.7901 11.53 13.4801 11.65 13.0601L14.96 16.3701V18.2901H10.46ZM11.71 7.4601L6.54001 2.2901H19.71C20.81 2.2901 21.71 3.1901 21.71 4.2901V17.4601L19.71 15.4601V4.2901H17.71V12.7901C17.71 12.9801 17.64 13.1501 17.55 13.3001L13.71 9.4601V4.2901H11.71V7.4601Z"/></svg>