<svg width="16" height="16" viewBox="0 0 16 16" fill="none" xmlns="http://www.w3.org/2000/svg">
<g clip-path="url(#clip0_104_2863)">
<path d="M15.985 8.50001H8.20698L2.70698 14C3.82973 14.9906 5.20793 15.6461 6.68482 15.8922C8.1617 16.1383 9.678 15.9649 11.0613 15.3919C12.4445 14.8189 13.6392 13.8692 14.5095 12.6508C15.3797 11.4325 15.8906 9.99434 15.984 8.50001H15.985ZM1.99998 13.292C1.00944 12.1693 0.353862 10.7911 0.107801 9.31418C-0.138261 7.83729 0.0350724 6.32099 0.608086 4.93774C1.1811 3.55448 2.1308 2.35979 3.34916 1.48954C4.56752 0.619291 6.00565 0.108414 7.49998 0.0150146V7.79302L1.99998 13.293V13.292ZM8.49998 0.0150146V7.50001H15.985C15.8631 5.5548 15.0354 3.72097 13.6572 2.34279C12.279 0.964622 10.4452 0.136897 8.49998 0.0150146Z" fill="black"/>
</g>
<defs>
<clipPath id="clip0_104_2863">
<rect width="16" height="16" fill="white"/>
</clipPath>
</defs>
</svg>
