<svg width="16" height="16" viewBox="0 0 16 16" fill="none" xmlns="http://www.w3.org/2000/svg">
<g clip-path="url(#clip0_104_2865)">
<path d="M5 6.25001C5 6.44892 4.92098 6.63969 4.78033 6.78034C4.63968 6.92099 4.44891 7.00001 4.25 7.00001C4.05109 7.00001 3.86032 6.92099 3.71967 6.78034C3.57902 6.63969 3.5 6.44892 3.5 6.25001C3.5 6.0511 3.57902 5.86033 3.71967 5.71968C3.86032 5.57903 4.05109 5.50001 4.25 5.50001C4.44891 5.50001 4.63968 5.57903 4.78033 5.71968C4.92098 5.86033 5 6.0511 5 6.25001ZM6.138 4.75401C6.73182 4.5845 7.34646 4.499 7.964 4.50001C8.63 4.50001 9.267 4.59701 9.857 4.77301C9.98308 4.80779 10.1178 4.79178 10.2322 4.72841C10.3466 4.66505 10.4316 4.55937 10.4691 4.43404C10.5065 4.30872 10.4933 4.17372 10.4323 4.058C10.3714 3.94228 10.2675 3.85505 10.143 3.81501C9.4358 3.60483 8.70177 3.49872 7.964 3.50001C7.23 3.50001 6.523 3.60301 5.862 3.79201C5.73443 3.82861 5.62663 3.91439 5.5623 4.03047C5.49798 4.14656 5.4824 4.28344 5.519 4.41101C5.5556 4.53858 5.64138 4.64639 5.75746 4.71071C5.87355 4.77504 6.01043 4.79061 6.138 4.75401Z" fill="black"/>
<path fill-rule="evenodd" clip-rule="evenodd" d="M7.964 1.52698C4.987 1.52698 2.393 3.23098 1.644 5.65198H1.094C0.948206 5.65214 0.804214 5.68417 0.672108 5.74584C0.540002 5.80751 0.422978 5.89731 0.329233 6.00897C0.235489 6.12062 0.167292 6.25143 0.129421 6.39221C0.0915499 6.533 0.08492 6.68036 0.109996 6.82398L0.363996 8.28398C0.424526 8.63204 0.605971 8.94758 0.876354 9.17497C1.14674 9.40236 1.48871 9.52702 1.842 9.52698H2.105C2.405 10.04 2.793 10.505 3.25 10.909L2.521 13.386C2.49907 13.4606 2.49484 13.5392 2.50864 13.6157C2.52244 13.6922 2.55388 13.7645 2.60048 13.8267C2.64707 13.8889 2.70753 13.9394 2.77706 13.9742C2.84659 14.0089 2.92326 14.027 3.001 14.027H5.001C5.10416 14.027 5.20481 13.9951 5.28913 13.9357C5.37346 13.8762 5.43733 13.7921 5.472 13.695L5.954 12.344C6.589 12.517 7.264 12.611 7.965 12.611C8.672 12.611 9.353 12.516 9.993 12.339L10.536 13.711C10.5729 13.8042 10.637 13.8842 10.7199 13.9405C10.8028 13.9969 10.9007 14.027 11.001 14.027H13.001C13.079 14.0269 13.1559 14.0086 13.2256 13.9734C13.2953 13.9383 13.3557 13.8874 13.4022 13.8247C13.4486 13.762 13.4798 13.6893 13.4931 13.6124C13.5065 13.5356 13.5016 13.4566 13.479 13.382L12.718 10.876C13.81 9.89498 14.5 8.55898 14.5 7.06898C14.5 6.92398 14.493 6.77898 14.48 6.63798C14.741 6.52798 14.988 6.37198 15.185 6.19398C15.5 6.49998 16 6.49998 16 5.77698C16 5.99998 15.5 5.99998 15.539 5.75098C15.581 5.6707 15.6113 5.58483 15.629 5.49598C15.6525 5.38016 15.6463 5.26027 15.611 5.14748C15.5757 5.0347 15.5124 4.93269 15.427 4.85098C15.3369 4.75816 15.2185 4.6981 15.0904 4.68035C14.9623 4.66259 14.8319 4.68815 14.72 4.75298C14.6171 4.80984 14.5293 4.89055 14.4641 4.98834C14.3988 5.08613 14.358 5.19814 14.345 5.31498C14.321 5.55798 14.427 5.79498 14.665 5.96898C14.5824 6.02607 14.4959 6.0772 14.406 6.12198C13.872 3.45798 11.122 1.52698 7.964 1.52698ZM2.516 6.25998C2.971 4.19398 5.183 2.52698 7.964 2.52698C11.11 2.52698 13.5 4.64098 13.5 7.06898C13.5 8.32298 12.876 9.47898 11.83 10.317C11.7523 10.3795 11.695 10.4639 11.6656 10.5592C11.6362 10.6546 11.636 10.7565 11.665 10.852L12.325 13.027H11.34L10.75 11.54C10.7025 11.4202 10.6105 11.3233 10.4933 11.2696C10.3761 11.216 10.2427 11.2096 10.121 11.252C9.46 11.482 8.731 11.611 7.964 11.611C7.22997 11.6129 6.50084 11.4915 5.807 11.252C5.68245 11.2087 5.54585 11.2163 5.42692 11.2733C5.308 11.3302 5.21637 11.4318 5.172 11.556L4.647 13.027H3.668L4.301 10.877C4.32924 10.7812 4.32814 10.6791 4.29784 10.5839C4.26754 10.4887 4.20943 10.4048 4.131 10.343C3.59596 9.92886 3.15777 9.40296 2.847 8.80198C2.80537 8.71937 2.74164 8.64993 2.6629 8.60138C2.58416 8.55283 2.4935 8.52707 2.401 8.52698H1.841C1.7234 8.52685 1.6096 8.48527 1.51962 8.40955C1.42964 8.33384 1.36922 8.22883 1.349 8.11298L1.095 6.65298H2.028C2.14194 6.65288 2.25244 6.61387 2.34119 6.5424C2.42994 6.47093 2.49161 6.37129 2.516 6.25998ZM15.137 5.40298C15.1192 5.479 15.0858 5.5505 15.039 5.61298C15.024 5.60517 15.0094 5.59684 14.995 5.58798C14.849 5.49798 14.838 5.41298 14.843 5.36498C14.8479 5.3291 14.861 5.29483 14.8813 5.26483C14.9016 5.23483 14.9285 5.2099 14.96 5.19198C15.009 5.16498 15.04 5.17098 15.073 5.20398C15.1008 5.22816 15.1215 5.25948 15.1327 5.29456C15.144 5.32963 15.1455 5.36712 15.137 5.40298Z" fill="black"/>
</g>
<defs>
<clipPath id="clip0_104_2865">
<rect width="16" height="16" fill="white"/>
</clipPath>
</defs>
</svg>
