<svg width="16" height="16" viewBox="0 0 16 16" fill="none" xmlns="http://www.w3.org/2000/svg">
<path d="M9.828 0.722047C9.89371 0.721929 9.95879 0.734763 10.0195 0.759815C10.0803 0.784867 10.1355 0.821645 10.182 0.868047L15.132 5.81805C15.2257 5.91181 15.2784 6.03896 15.2784 6.17155C15.2784 6.30413 15.2257 6.43128 15.132 6.52505C14.652 7.00505 14.06 7.11305 13.629 7.11305C13.452 7.11305 13.294 7.09505 13.169 7.07405L10.035 10.208C10.1175 10.5405 10.171 10.8794 10.195 11.221C10.241 11.923 10.163 12.908 9.47501 13.596C9.38124 13.6898 9.25409 13.7424 9.1215 13.7424C8.98892 13.7424 8.86177 13.6898 8.768 13.596L5.939 10.768L2.757 13.95C2.562 14.145 1.538 14.852 1.343 14.657C1.148 14.462 1.855 13.437 2.05 13.243L5.232 10.061L2.404 7.23205C2.31027 7.13828 2.25761 7.01113 2.25761 6.87855C2.25761 6.74596 2.31027 6.61881 2.404 6.52505C3.092 5.83705 4.077 5.75805 4.779 5.80505C5.12066 5.82899 5.4596 5.88252 5.792 5.96505L8.926 2.83205C8.89985 2.67976 8.88647 2.52556 8.886 2.37105C8.886 1.94105 8.99401 1.34905 9.47501 0.868047C9.56871 0.774578 9.69565 0.722075 9.828 0.722047Z" fill="black"/>
</svg>
