<svg width="16" height="16" viewBox="0 0 16 16" xmlns="http://www.w3.org/2000/svg" fill='currentColor'><path d="M9.828 0.722047C9.89371 0.721929 9.95879 0.734763 10.0195 0.759815C10.0803 0.784867 10.1355 0.821645 10.182 0.868047L15.132 5.81805C15.2257 5.91181 15.2784 6.03896 15.2784 6.17155C15.2784 6.30413 15.2257 6.43128 15.132 6.52505C14.652 7.00505 14.06 7.11305 13.629 7.11305C13.452 7.11305 13.294 7.09505 13.169 7.07405L10.035 10.208C10.1175 10.5405 10.171 10.8794 10.195 11.221C10.241 11.923 10.163 12.908 9.47501 13.596C9.38124 13.6898 9.25409 13.7424 9.1215 13.7424C8.98892 13.7424 8.86177 13.6898 8.768 13.596L5.939 10.768L2.757 13.95C2.562 14.145 1.538 14.852 1.343 14.657C1.148 14.462 1.855 13.437 2.05 13.243L5.232 10.061L2.404 7.23205C2.31027 7.13828 2.25761 7.01113 2.25761 6.87855C2.25761 6.74596 2.31027 6.61881 2.404 6.52505C3.092 5.83705 4.077 5.75805 4.779 5.80505C5.12066 5.82899 5.4596 5.88252 5.792 5.96505L8.926 2.83205C8.89985 2.67976 8.88647 2.52556 8.886 2.37105C8.886 1.94105 8.99401 1.34905 9.47501 0.868047C9.56871 0.774578 9.69565 0.722075 9.828 0.722047ZM9.95 2.83405V2.83205V2.83405ZM9.95 2.83205V2.83405C9.97888 2.92202 9.98277 3.01628 9.96123 3.10632C9.93969 3.19637 9.89357 3.27867 9.828 3.34405L6.293 6.87805C6.22732 6.94345 6.14475 6.9893 6.05452 7.01049C5.96428 7.03168 5.86993 7.02738 5.782 6.99805H5.78L5.766 6.99405C5.67087 6.96555 5.57482 6.9402 5.478 6.91805C5.22644 6.85937 4.97065 6.82058 4.713 6.80205C4.291 6.77405 3.877 6.81005 3.538 6.95205L9.048 12.461C9.189 12.121 9.225 11.708 9.197 11.286C9.17153 10.9288 9.10715 10.5754 9.005 10.232L9.001 10.219V10.218C8.97148 10.13 8.96706 10.0354 8.98826 9.945C9.00945 9.85456 9.05542 9.77182 9.121 9.70605L12.657 6.17105C12.7251 6.10254 12.8116 6.05522 12.906 6.03481C13.0004 6.01441 13.0987 6.02178 13.189 6.05605L13.285 6.07805C13.372 6.09505 13.493 6.11205 13.629 6.11205C13.743 6.11205 13.859 6.10105 13.972 6.07205L9.927 2.02805C9.898 2.14105 9.887 2.25805 9.887 2.37105C9.88749 2.52643 9.90834 2.68108 9.94901 2.83105L9.95 2.83205Z"/></svg>