<svg width="16" height="16" viewBox="0 0 16 16" xmlns="http://www.w3.org/2000/svg" fill='currentColor'><g clip-path="url(#clip0_104_2878)"><path fill-rule="evenodd" clip-rule="evenodd" d="M3.1 11.2C3.14657 11.1379 3.20697 11.0875 3.27639 11.0528C3.34582 11.0181 3.42238 11 3.5 11H6C6.13261 11 6.25979 11.0527 6.35355 11.1464C6.44732 11.2402 6.5 11.3674 6.5 11.5C6.5 11.6326 6.44732 11.7598 6.35355 11.8536C6.25979 11.9473 6.13261 12 6 12H3.75L1.5 15H14.5L12.25 12H10C9.86739 12 9.74021 11.9473 9.64645 11.8536C9.55268 11.7598 9.5 11.6326 9.5 11.5C9.5 11.3674 9.55268 11.2402 9.64645 11.1464C9.74021 11.0527 9.86739 11 10 11H12.5C12.5776 11 12.6542 11.0181 12.7236 11.0528C12.793 11.0875 12.8534 11.1379 12.9 11.2L15.9 15.2C15.9557 15.2743 15.9896 15.3626 15.998 15.4551C16.0063 15.5476 15.9887 15.6406 15.9472 15.7236C15.9057 15.8067 15.8419 15.8765 15.7629 15.9253C15.6839 15.9741 15.5929 16 15.5 16H0.5C0.407144 16 0.316123 15.9741 0.237135 15.9253C0.158147 15.8765 0.0943131 15.8067 0.0527866 15.7236C0.0112602 15.6406 -0.00631841 15.5476 0.00202058 15.4551C0.0103596 15.3626 0.0442867 15.2743 0.1 15.2L3.1 11.2Z"/><path fill-rule="evenodd" clip-rule="evenodd" d="M8 0.999996C7.60603 0.999996 7.21593 1.07759 6.85195 1.22836C6.48797 1.37912 6.15726 1.6001 5.87868 1.87868C5.6001 2.15725 5.37913 2.48797 5.22836 2.85195C5.0776 3.21592 5 3.60603 5 4C5 4.39396 5.0776 4.78407 5.22836 5.14805C5.37913 5.51202 5.6001 5.84274 5.87868 6.12132C6.15726 6.39989 6.48797 6.62087 6.85195 6.77163C7.21593 6.9224 7.60603 7 8 7C8.79565 7 9.55871 6.68393 10.1213 6.12132C10.6839 5.55871 11 4.79564 11 4C11 3.20435 10.6839 2.44128 10.1213 1.87868C9.55871 1.31607 8.79565 0.999996 8 0.999996ZM4 4C4.00007 3.23022 4.22226 2.47682 4.63989 1.83019C5.05753 1.18356 5.65288 0.671167 6.3545 0.354502C7.05613 0.0378371 7.83422 -0.0696522 8.59542 0.0449322C9.35662 0.159517 10.0686 0.491307 10.6459 1.00049C11.2232 1.50968 11.6413 2.17463 11.8501 2.91555C12.0589 3.65647 12.0494 4.4419 11.8228 5.17758C11.5963 5.91326 11.1623 6.56795 10.5729 7.06309C9.98349 7.55822 9.26374 7.87277 8.5 7.969V13.5C8.5 13.6326 8.44732 13.7598 8.35355 13.8535C8.25979 13.9473 8.13261 14 8 14C7.86739 14 7.74022 13.9473 7.64645 13.8535C7.55268 13.7598 7.5 13.6326 7.5 13.5V7.97C6.53297 7.84816 5.64369 7.37743 4.99922 6.64623C4.35474 5.91503 3.99942 4.97368 4 3.999V4Z"/></g><defs><clipPath id="clip0_104_2878"><rect width="16" height="16"/></clipPath></defs></svg>