<svg width="24" height="24" viewBox="0 0 24 24" xmlns="http://www.w3.org/2000/svg" fill='currentColor'><path d="M6.00021 2.5V1H11.0002V6H9.50021V3.56L3.56021 9.5H6.00021V11H1.00021V6H2.50021V8.44L8.44021 2.5H6.00021ZM22.9802 16.82L22.3502 21.28C22.2102 22.27 21.3602 23 20.3702 23H14.2102C13.6802 23 12.9202 22.79 12.5502 22.41L8.00021 17.62L8.83021 16.78C9.07021 16.54 9.41021 16.43 9.75021 16.5L13.0002 17.24V6.5C13.0002 5.67 13.6702 5 14.5002 5C15.3302 5 16.0002 5.67 16.0002 6.5V12.5H16.9102C17.2202 12.5 17.5302 12.57 17.8002 12.71L21.8902 14.75C22.6602 15.14 23.1002 15.97 22.9802 16.82Z"/></svg>