<svg width="16" height="16" viewBox="0 0 16 16" xmlns="http://www.w3.org/2000/svg" fill='currentColor'><g clip-path="url(#clip0_104_2884)"><path d="M8 1.61021e-06C6.1347 -0.00118135 4.32762 0.649478 2.89121 1.83948C1.4548 3.02947 0.479378 4.684 0.13359 6.51697C-0.212197 8.34994 0.0933913 10.2461 0.997518 11.8777C1.90165 13.5092 3.34747 14.7735 5.085 15.452C5.015 14.819 4.951 13.846 5.112 13.155C5.258 12.53 6.05 9.178 6.05 9.178C6.05 9.178 5.811 8.699 5.811 7.991C5.811 6.878 6.456 6.048 7.259 6.048C7.941 6.048 8.271 6.56 8.271 7.175C8.271 7.861 7.834 8.887 7.608 9.838C7.42 10.634 8.008 11.284 8.793 11.284C10.215 11.284 11.308 9.784 11.308 7.62C11.308 5.705 9.931 4.366 7.966 4.366C5.69 4.366 4.354 6.073 4.354 7.837C4.354 8.525 4.619 9.262 4.949 9.663C4.97742 9.69323 4.99752 9.73031 5.00733 9.77062C5.01715 9.81093 5.01634 9.85309 5.005 9.893C4.944 10.145 4.809 10.689 4.783 10.8C4.748 10.946 4.667 10.977 4.515 10.907C3.515 10.442 2.891 8.981 2.891 7.807C2.891 5.284 4.725 2.967 8.177 2.967C10.952 2.967 13.109 4.944 13.109 7.587C13.109 10.344 11.37 12.563 8.958 12.563C8.147 12.563 7.385 12.142 7.124 11.644L6.626 13.546C6.445 14.241 5.957 15.112 5.631 15.643C6.73097 15.9831 7.8914 16.0818 9.033 15.9323C10.1746 15.7828 11.2705 15.3886 12.2458 14.7767C13.2211 14.1648 14.0528 13.3496 14.6841 12.3868C15.3155 11.424 15.7316 10.3362 15.904 9.19787C16.0764 8.0595 16.001 6.89733 15.6831 5.79075C15.3651 4.68418 14.812 3.65927 14.0617 2.78604C13.3113 1.91281 12.3812 1.21184 11.3351 0.731016C10.289 0.250192 9.15135 0.000842303 8 1.61021e-06Z"/></g><defs><clipPath id="clip0_104_2884"><rect width="16" height="16"/></clipPath></defs></svg>