<svg width="24" height="24" viewBox="0 0 24 24" xmlns="http://www.w3.org/2000/svg" fill='currentColor'><path d="M15.4463 16.5199L12.4363 13.5099C12.3263 13.3999 12.1963 13.3799 12.1263 13.3799C12.0563 13.3799 11.9263 13.3999 11.8163 13.5099L8.79628 16.5299C8.45628 16.8699 7.92628 17.4199 6.15628 17.4199L9.86628 21.1199C11.0363 22.2899 12.9363 22.2899 14.1063 21.1199L17.8263 17.4099C16.9163 17.4099 16.1563 17.2299 15.4463 16.5199Z"/><path d="M8.79628 7.46994L11.8163 10.4899C11.8963 10.5699 12.0163 10.6199 12.1263 10.6199C12.2363 10.6199 12.3563 10.5699 12.4363 10.4899L15.4263 7.49994C16.1363 6.75994 16.9463 6.58994 17.8563 6.58994L14.1363 2.87994C12.9663 1.70994 11.0663 1.70994 9.89628 2.87994L6.18628 6.57994C7.94628 6.57994 8.48628 7.15994 8.79628 7.46994Z"/><path d="M21.1063 9.84994L18.8563 7.58994H17.5963C17.0563 7.58994 16.5163 7.80994 16.1463 8.19994L13.1463 11.1999C12.8663 11.4799 12.4963 11.6199 12.1263 11.6199C11.7663 11.6199 11.3863 11.4699 11.1063 11.1999L8.08628 8.16994C7.70628 7.78994 7.18628 7.56994 6.63628 7.56994H5.16628L2.87628 9.86994C1.70628 11.0399 1.70628 12.9399 2.87628 14.1099L5.16628 16.4099H6.64628C7.18628 16.4099 7.70628 16.1899 8.09628 15.8099L11.1163 12.7899C11.3963 12.5099 11.7663 12.3699 12.1363 12.3699C12.5063 12.3699 12.8763 12.5099 13.1563 12.7899L16.1663 15.7999C16.5463 16.1799 17.0663 16.3999 17.6163 16.3999H18.8763L21.1263 14.1399C22.2963 12.9599 22.2963 11.0399 21.1063 9.84994Z"/></svg>