<svg width="16" height="16" viewBox="0 0 16 16" xmlns="http://www.w3.org/2000/svg" fill='currentColor'><g clip-path="url(#clip0_104_2901)"><path d="M16 8C16 10.1217 15.1571 12.1566 13.6569 13.6569C12.1566 15.1571 10.1217 16 8 16C5.87827 16 3.84344 15.1571 2.34315 13.6569C0.842855 12.1566 0 10.1217 0 8C0 5.87827 0.842855 3.84344 2.34315 2.34315C3.84344 0.842855 5.87827 0 8 0C10.1217 0 12.1566 0.842855 13.6569 2.34315C15.1571 3.84344 16 5.87827 16 8ZM6.79 5.093C6.71524 5.03977 6.62726 5.00814 6.53572 5.00159C6.44418 4.99503 6.35259 5.01379 6.27101 5.05583C6.18942 5.09786 6.12098 5.16154 6.07317 5.23988C6.02537 5.31823 6.00006 5.40822 6 5.5V10.5C6.00006 10.5918 6.02537 10.6818 6.07317 10.7601C6.12098 10.8385 6.18942 10.9021 6.27101 10.9442C6.35259 10.9862 6.44418 11.005 6.53572 10.9984C6.62726 10.9919 6.71524 10.9602 6.79 10.907L10.29 8.407C10.3548 8.36075 10.4076 8.29968 10.4441 8.22889C10.4805 8.1581 10.4996 8.07963 10.4996 8C10.4996 7.92037 10.4805 7.8419 10.4441 7.77111C10.4076 7.70031 10.3548 7.63925 10.29 7.593L6.79 5.093Z"/></g><defs><clipPath id="clip0_104_2901"><rect width="16" height="16"/></clipPath></defs></svg>