<svg width="16" height="16" viewBox="0 0 16 16" xmlns="http://www.w3.org/2000/svg" fill='currentColor'><path d="M0 12V4C0 3.46957 0.210714 2.96086 0.585786 2.58579C0.960859 2.21071 1.46957 2 2 2H14C14.5304 2 15.0391 2.21071 15.4142 2.58579C15.7893 2.96086 16 3.46957 16 4V12C16 12.5304 15.7893 13.0391 15.4142 13.4142C15.0391 13.7893 14.5304 14 14 14H2C1.46957 14 0.960859 13.7893 0.585786 13.4142C0.210714 13.0391 0 12.5304 0 12ZM6.79 5.093C6.71524 5.03977 6.62726 5.00814 6.53572 5.00159C6.44418 4.99503 6.35259 5.01379 6.27101 5.05583C6.18942 5.09786 6.12098 5.16154 6.07317 5.23988C6.02537 5.31823 6.00006 5.40822 6 5.5V10.5C6.00006 10.5918 6.02537 10.6818 6.07317 10.7601C6.12098 10.8385 6.18942 10.9021 6.27101 10.9442C6.35259 10.9862 6.44418 11.005 6.53572 10.9984C6.62726 10.9919 6.71524 10.9602 6.79 10.907L10.29 8.407C10.3548 8.36075 10.4076 8.29968 10.4441 8.22889C10.4805 8.1581 10.4996 8.07963 10.4996 8C10.4996 7.92037 10.4805 7.8419 10.4441 7.77111C10.4076 7.70031 10.3548 7.63925 10.29 7.593L6.79 5.093Z"/></svg>