<svg width="16" height="16" viewBox="0 0 16 16" xmlns="http://www.w3.org/2000/svg" fill='currentColor'><g clip-path="url(#clip0_104_2923)"><path d="M2.5 0C2.334 0 2.17 0.016 2.013 0.048L2.207 1.028C2.30352 1.00915 2.40165 0.99977 2.5 1H2.958V0H2.5ZM4.792 0H3.875V1H4.792V0ZM6.625 0H5.708V1H6.625V0ZM8.458 0H7.542V1H8.458V0ZM10.292 0H9.375V1H10.292V0ZM12.125 0H11.208V1H12.125V0ZM13.5 0H13.042V1H13.5C13.6 1 13.699 1.01 13.793 1.029L13.987 0.048C13.8266 0.0161758 13.6635 9.94507e-05 13.5 0V0ZM15.579 1.11C15.3962 0.837453 15.1618 0.603373 14.889 0.421L14.333 1.252C14.497 1.362 14.638 1.503 14.748 1.667L15.578 1.111L15.579 1.11ZM1.11 0.421C0.837453 0.603769 0.603373 0.838188 0.421 1.111L1.252 1.667C1.362 1.503 1.503 1.362 1.667 1.252L1.11 0.422V0.421ZM16 2.5C16 2.334 15.984 2.17 15.952 2.013L14.972 2.207C14.99 2.301 15 2.399 15 2.5V2.958H16V2.5ZM0.048 2.013C0.0161758 2.17338 9.94507e-05 2.33649 0 2.5L0 2.958H1V2.5C1 2.4 1.01 2.301 1.029 2.207L0.048 2.013ZM0 3.875V4.792H1V3.875H0ZM16 4.792V3.875H15V4.792H16ZM0 5.708V6.625H1V5.708H0ZM16 6.625V5.708H15V6.625H16ZM0 7.542V8.458H1V7.542H0ZM15 8.458H16V7.542H15V8.458ZM0 9.375V10.292H1V9.375H0ZM16 10.292V9.375H15V10.292H16ZM0 11.208V12.125H1V11.208H0ZM16 12.125V11.208H15V12.125H16ZM0 13.042V13.5C0 13.666 0.016 13.83 0.048 13.987L1.028 13.793C1.00915 13.6965 0.99977 13.5983 1 13.5V13.042H0ZM16 13.5V13.042H15V13.5C15 13.6 14.99 13.699 14.971 13.793L15.952 13.987C15.984 13.829 16 13.667 16 13.5ZM0.421 14.89C0.604 15.162 0.838 15.396 1.111 15.579L1.667 14.748C1.50286 14.6381 1.36186 14.4971 1.252 14.333L0.422 14.889L0.421 14.89ZM14.89 15.579C15.162 15.396 15.396 15.162 15.579 14.889L14.748 14.333C14.638 14.497 14.497 14.638 14.333 14.748L14.889 15.578L14.89 15.579ZM2.013 15.952C2.171 15.984 2.333 16 2.5 16H2.958V15H2.5C2.4 15 2.301 14.99 2.207 14.971L2.013 15.952ZM13.5 16C13.666 16 13.83 15.984 13.987 15.952L13.793 14.972C13.6965 14.9909 13.5983 15.0002 13.5 15H13.042V16H13.5ZM3.875 16H4.792V15H3.875V16ZM5.708 16H6.625V15H5.708V16ZM7.542 15V16H8.458V15H7.542ZM9.375 16H10.292V15H9.375V16ZM11.208 16H12.125V15H11.208V16ZM8.5 4.5C8.5 4.36739 8.44732 4.24021 8.35355 4.14645C8.25979 4.05268 8.13261 4 8 4C7.86739 4 7.74021 4.05268 7.64645 4.14645C7.55268 4.24021 7.5 4.36739 7.5 4.5V7.5H4.5C4.36739 7.5 4.24021 7.55268 4.14645 7.64645C4.05268 7.74021 4 7.86739 4 8C4 8.13261 4.05268 8.25979 4.14645 8.35355C4.24021 8.44732 4.36739 8.5 4.5 8.5H7.5V11.5C7.5 11.6326 7.55268 11.7598 7.64645 11.8536C7.74021 11.9473 7.86739 12 8 12C8.13261 12 8.25979 11.9473 8.35355 11.8536C8.44732 11.7598 8.5 11.6326 8.5 11.5V8.5H11.5C11.6326 8.5 11.7598 8.44732 11.8536 8.35355C11.9473 8.25979 12 8.13261 12 8C12 7.86739 11.9473 7.74021 11.8536 7.64645C11.7598 7.55268 11.6326 7.5 11.5 7.5H8.5V4.5Z"/></g><defs><clipPath id="clip0_104_2923"><rect width="16" height="16"/></clipPath></defs></svg>