<svg xmlns="http://www.w3.org/2000/svg" width="24" height="24" viewBox="0 0 24 24" fill='currentColor'><path d="M17.56 14.49c.28-.69.44-1.45.44-2.24 0-3.31-2.69-6-6-6-.79 0-1.55.16-2.24.44l1.62 1.62c.2-.03.41-.06.62-.06a4 4 0 0 1 3.95 4.63zM12 4.25c4.42 0 8 3.58 8 8 0 1.35-.35 2.62-.95 3.74l1.47 1.47A9.86 9.86 0 0 0 22 12.25c0-5.52-4.48-10-10-10-1.91 0-3.69.55-5.21 1.47l1.46 1.46c1.12-.59 2.4-.93 3.75-.93m-8.73-1.5L2 4.02l2.1 2.1C2.79 7.82 2 9.94 2 12.25c0 3.7 2.01 6.92 4.99 8.65l1-1.73C5.61 17.78 4 15.21 4 12.25c0-1.76.57-3.38 1.53-4.69L6.96 9c-.6.93-.96 2.05-.96 3.25 0 2.22 1.21 4.15 3 5.19l1-1.74c-1.19-.7-2-1.97-2-3.45 0-.65.17-1.25.44-1.79l1.58 1.58-.02.21c0 1.1.9 2 2 2l.21-.02 7.52 7.52L21 20.48z"/></svg>