<svg width="24" height="24" viewBox="0 0 24 24" xmlns="http://www.w3.org/2000/svg" fill='currentColor'><path d="M19.9287 8.45763L16.3287 10.1376L13.9987 7.94763V6.54763L16.3287 4.35763L19.9287 6.03763C20.3087 6.21763 20.7487 6.04763 20.9287 5.67763C21.1087 5.29763 20.9387 4.85763 20.5687 4.67763L16.6487 2.84763C16.2687 2.66763 15.8187 2.74763 15.5187 3.04763L13.7787 4.64763C13.5987 4.40763 13.3187 4.24763 12.9987 4.24763C12.4487 4.24763 11.9987 4.69763 11.9987 5.24763V6.24763H8.81873C8.33873 4.89763 6.97873 3.97763 5.39873 4.31763C4.23873 4.56763 3.24873 5.56763 3.03873 6.74763C2.81873 8.06763 3.49873 9.21763 4.51873 9.82763L7.07873 18.2476H3.99873V21.2476H16.9987V18.2476H13.3787L8.40873 9.01763C8.57873 8.77763 8.71873 8.52763 8.81873 8.24763H11.9987V9.24763C11.9987 9.79763 12.4487 10.2476 12.9987 10.2476C13.3187 10.2476 13.5987 10.0876 13.7787 9.84763L15.5187 11.4476C15.8187 11.7476 16.2687 11.8276 16.6487 11.6476L20.5687 9.81763C20.9487 9.63763 21.1087 9.19763 20.9287 8.81763C20.7487 8.44763 20.3087 8.27763 19.9287 8.45763ZM5.99873 8.24763C5.44873 8.24763 4.99873 7.79763 4.99873 7.24763C4.99873 6.69763 5.44873 6.24763 5.99873 6.24763C6.54873 6.24763 6.99873 6.69763 6.99873 7.24763C6.99873 7.79763 6.54873 8.24763 5.99873 8.24763Z"/></svg>