<svg xmlns="http://www.w3.org/2000/svg" width="24" height="24" viewBox="0 0 24 24" fill='currentColor'><path d="m19.929 8.458-3.6 1.68-2.33-2.19v-1.4l2.33-2.19 3.6 1.68c.38.18.82.01 1-.36.18-.38.01-.82-.36-1l-3.92-1.83a.99.99 0 0 0-1.13.2l-1.74 1.6a.98.98 0 0 0-.78-.4c-.55 0-1 .45-1 1v1h-3.18c-.48-1.35-1.84-2.27-3.42-1.93-1.16.25-2.15 1.25-2.36 2.43-.22 1.32.46 2.47 1.48 3.08l2.56 8.42h-3.08v3h13v-3h-3.62l-4.97-9.23c.17-.24.31-.49.41-.77h3.18v1c0 .55.45 1 1 1 .32 0 .6-.16.78-.4l1.74 1.6c.3.3.75.38 1.13.2l3.92-1.83c.38-.18.54-.62.36-1a.753.753 0 0 0-1-.36m-13.93-.21c-.55 0-1-.45-1-1s.45-1 1-1 1 .45 1 1-.45 1-1 1"/></svg>