<svg width="24" height="24" viewBox="0 0 24 24" xmlns="http://www.w3.org/2000/svg" fill='currentColor'><g clip-path="url(#clip0_1616_2823)"><path d="M20 16.0999H22.9V10.0999C22.9 8.3999 21.6 7.0999 19.9 7.0999H10.9L20 16.0999ZM19.9 9.0999C20.45 9.0999 20.9 9.5499 20.9 10.0999C20.9 10.6499 20.45 11.0999 19.9 11.0999C19.35 11.0999 18.9 10.6499 18.9 10.0999C18.9 9.5499 19.35 9.0999 19.9 9.0999ZM18.9 6.0999V2.0999H6.90002V3.1999L9.90002 6.0999H18.9ZM2.10002 0.899902L0.900024 2.0999L5.80002 7.0999C4.20002 7.1999 2.90002 8.4999 2.90002 10.0999V16.0999H6.90002V20.0999H18.8L21.8 23.0999L23.1 21.7999L2.10002 0.899902ZM8.90002 18.0999V13.0999H11.8L16.8 18.0999H8.90002Z"/></g><defs><clipPath id="clip0_1616_2823"><rect width="24" height="24"/></clipPath></defs></svg>