<svg width="16" height="16" viewBox="0 0 16 16" xmlns="http://www.w3.org/2000/svg" fill='currentColor'><path d="M5 1C4.46957 1 3.96086 1.21071 3.58579 1.58579C3.21071 1.96086 3 2.46957 3 3V4H13V3C13 2.46957 12.7893 1.96086 12.4142 1.58579C12.0391 1.21071 11.5304 1 11 1H5ZM11 9H5C4.73478 9 4.48043 9.10536 4.29289 9.29289C4.10536 9.48043 4 9.73478 4 10V13C4 13.2652 4.10536 13.5196 4.29289 13.7071C4.48043 13.8946 4.73478 14 5 14H11C11.2652 14 11.5196 13.8946 11.7071 13.7071C11.8946 13.5196 12 13.2652 12 13V10C12 9.73478 11.8946 9.48043 11.7071 9.29289C11.5196 9.10536 11.2652 9 11 9Z"/><path d="M0 7C0 6.46957 0.210714 5.96086 0.585786 5.58579C0.960859 5.21071 1.46957 5 2 5H14C14.5304 5 15.0391 5.21071 15.4142 5.58579C15.7893 5.96086 16 6.46957 16 7V10C16 10.5304 15.7893 11.0391 15.4142 11.4142C15.0391 11.7893 14.5304 12 14 12H13V10C13 9.46957 12.7893 8.96086 12.4142 8.58579C12.0391 8.21071 11.5304 8 11 8H5C4.46957 8 3.96086 8.21071 3.58579 8.58579C3.21071 8.96086 3 9.46957 3 10V12H2C1.46957 12 0.960859 11.7893 0.585786 11.4142C0.210714 11.0391 0 10.5304 0 10V7ZM2.5 8C2.63261 8 2.75979 7.94732 2.85355 7.85355C2.94732 7.75979 3 7.63261 3 7.5C3 7.36739 2.94732 7.24021 2.85355 7.14645C2.75979 7.05268 2.63261 7 2.5 7C2.36739 7 2.24021 7.05268 2.14645 7.14645C2.05268 7.24021 2 7.36739 2 7.5C2 7.63261 2.05268 7.75979 2.14645 7.85355C2.24021 7.94732 2.36739 8 2.5 8Z"/></svg>