<svg width="24" height="24" viewBox="0 0 24 24" xmlns="http://www.w3.org/2000/svg" fill='currentColor'><path d="M17.66 9.5298L10.59 16.5998L6.35 12.3598L7.76 10.9498L10.59 13.7798L16.25 8.1198L17.66 9.5298ZM4 11.9998C4 9.6698 5.02 7.5798 6.62 6.1198L9 8.4998V2.4998H3L5.2 4.6998C3.24 6.5198 2 9.1098 2 11.9998C2 17.1898 5.95 21.4498 11 21.9498V19.9298C7.06 19.4398 4 16.0698 4 11.9998ZM22 11.9998C22 6.8098 18.05 2.5498 13 2.0498V4.0698C16.94 4.5598 20 7.9298 20 11.9998C20 14.3298 18.98 16.4198 17.38 17.8798L15 15.4998V21.4998H21L18.8 19.2998C20.76 17.4798 22 14.8898 22 11.9998Z"/></svg>