<svg width="16" height="16" viewBox="0 0 16 16" fill="none" xmlns="http://www.w3.org/2000/svg">
<path d="M3.112 3.645C3.09178 3.43677 3.11534 3.22661 3.18116 3.02802C3.24699 2.82944 3.35364 2.64682 3.49424 2.4919C3.63485 2.33698 3.8063 2.21319 3.9976 2.12847C4.18889 2.04376 4.39579 2 4.605 2H7C7.13261 2 7.25979 2.05268 7.35355 2.14645C7.44732 2.24021 7.5 2.36739 7.5 2.5V2.882C7.5 3.578 7.003 4.064 6.628 4.351C6.58286 4.38307 6.5439 4.42305 6.513 4.469C6.50799 4.47681 6.50396 4.48521 6.501 4.494L6.5 4.5V4.503L6.503 4.513C6.507 4.523 6.517 4.541 6.539 4.566C6.61552 4.64761 6.70724 4.71351 6.809 4.76C7.09 4.9 7.51 5 8 5C8.492 5 8.912 4.9 9.19 4.76C9.29212 4.71362 9.38418 4.64772 9.461 4.566C9.47758 4.54744 9.49078 4.52612 9.5 4.503V4.494C9.49705 4.4852 9.49302 4.4768 9.488 4.469C9.4571 4.42305 9.41814 4.38307 9.373 4.351C8.998 4.064 8.501 3.578 8.501 2.882V2.5C8.501 2.36756 8.55354 2.24054 8.64709 2.1468C8.74064 2.05306 8.86757 2.00026 9 2H11.395C11.6042 2 11.8111 2.04376 12.0024 2.12847C12.1937 2.21319 12.3652 2.33698 12.5058 2.4919C12.6464 2.64682 12.753 2.82944 12.8188 3.02802C12.8847 3.22661 12.9082 3.43677 12.888 3.645L12.645 6.5H12.882C13.077 6.5 13.302 6.353 13.557 6.02C13.767 5.746 14.085 5.5 14.5 5.5C15.068 5.5 15.447 5.947 15.654 6.362C15.877 6.807 16 7.387 16 8C16 8.613 15.877 9.193 15.654 9.638C15.447 10.053 15.068 10.5 14.5 10.5C14.085 10.5 13.767 10.254 13.557 9.98C13.302 9.647 13.077 9.5 12.882 9.5H12.645L12.888 12.355C12.9082 12.5632 12.8847 12.7734 12.8188 12.972C12.753 13.1706 12.6464 13.3532 12.5058 13.5081C12.3652 13.663 12.1937 13.7868 12.0024 13.8715C11.8111 13.9562 11.6042 14 11.395 14H9C8.86739 14 8.74021 13.9473 8.64645 13.8536C8.55268 13.7598 8.5 13.6326 8.5 13.5V13.118C8.5 12.422 8.997 11.936 9.372 11.649C9.41714 11.6169 9.4561 11.5769 9.487 11.531C9.49201 11.5232 9.49604 11.5148 9.499 11.506L9.5 11.5V11.497C9.49087 11.4735 9.47766 11.4519 9.461 11.433C9.3844 11.3517 9.29269 11.2862 9.191 11.24C8.91 11.1 8.49 11 8 11C7.509 11 7.088 11.1 6.81 11.24C6.70787 11.2864 6.6158 11.3523 6.539 11.434C6.52244 11.4526 6.50924 11.4739 6.5 11.497V11.5L6.501 11.506C6.50396 11.5148 6.50799 11.5232 6.513 11.531C6.529 11.558 6.563 11.599 6.628 11.649C7.003 11.936 7.5 12.422 7.5 13.118V13.5C7.5 13.6326 7.44732 13.7598 7.35355 13.8536C7.25979 13.9473 7.13261 14 7 14H4.605C4.39579 14 4.18889 13.9562 3.9976 13.8715C3.8063 13.7868 3.63485 13.663 3.49424 13.5081C3.35364 13.3532 3.24699 13.1706 3.18116 12.972C3.11534 12.7734 3.09178 12.5632 3.112 12.355L3.356 9.5H3.118C2.923 9.5 2.698 9.647 2.443 9.98C2.233 10.254 1.915 10.5 1.5 10.5C0.932 10.5 0.553 10.053 0.346 9.638C0.123 9.193 0 8.613 0 8C0 7.387 0.123 6.807 0.346 6.362C0.553 5.947 0.932 5.5 1.5 5.5C1.915 5.5 2.233 5.746 2.443 6.02C2.698 6.353 2.923 6.5 3.118 6.5H3.356L3.112 3.645ZM4.605 3C4.53508 2.99993 4.46592 3.01452 4.40199 3.04284C4.33806 3.07116 4.28078 3.11257 4.23385 3.1644C4.18692 3.21623 4.15139 3.27733 4.12954 3.34375C4.10769 3.41017 4.10001 3.48043 4.107 3.55L4.108 3.557L4.398 6.957C4.40396 7.02602 4.39551 7.09552 4.37319 7.1611C4.35087 7.22668 4.31517 7.2869 4.26834 7.33795C4.22152 7.38901 4.1646 7.42977 4.10119 7.45767C4.03779 7.48556 3.96927 7.49998 3.9 7.5H3.118C2.422 7.5 1.936 7.003 1.649 6.628C1.61693 6.58286 1.57695 6.5439 1.531 6.513C1.5232 6.50798 1.5148 6.50395 1.506 6.501L1.5 6.5H1.497C1.47353 6.50912 1.45186 6.52232 1.433 6.539C1.35175 6.61561 1.28619 6.70732 1.24 6.809C1.1 7.09 1 7.51 1 8C1 8.491 1.1 8.912 1.24 9.19C1.31 9.33 1.38 9.415 1.434 9.461C1.45256 9.47758 1.47388 9.49078 1.497 9.5H1.5L1.506 9.499C1.5148 9.49605 1.5232 9.49202 1.531 9.487C1.57695 9.4561 1.61693 9.41714 1.649 9.372C1.936 8.997 2.422 8.5 3.118 8.5H3.9C3.96918 8.50003 4.0376 8.51442 4.10094 8.54226C4.16427 8.57009 4.22114 8.61076 4.26795 8.66171C4.31476 8.71265 4.35048 8.77275 4.37287 8.83821C4.39525 8.90367 4.40381 8.97306 4.398 9.042L4.108 12.45C4.10102 12.5195 4.10867 12.5897 4.13046 12.656C4.15225 12.7224 4.1877 12.7834 4.23452 12.8352C4.28134 12.887 4.3385 12.9285 4.40231 12.9569C4.46612 12.9852 4.53516 12.9999 4.605 13H6.483C6.435 12.834 6.288 12.648 6.02 12.443C5.746 12.233 5.5 11.915 5.5 11.5C5.5 10.932 5.947 10.553 6.362 10.346C6.807 10.123 7.387 10 8 10C8.613 10 9.193 10.123 9.638 10.346C10.053 10.553 10.5 10.932 10.5 11.5C10.5 11.915 10.254 12.233 9.98 12.443C9.712 12.648 9.565 12.833 9.517 13H11.395C11.4649 13.0001 11.5341 12.9855 11.598 12.9572C11.6619 12.9288 11.7192 12.8874 11.7661 12.8356C11.8131 12.7838 11.8486 12.7227 11.8705 12.6563C11.8923 12.5898 11.9 12.5196 11.893 12.45L11.892 12.443L11.602 9.043C11.596 8.97398 11.6045 8.90448 11.6268 8.8389C11.6491 8.77332 11.6848 8.7131 11.7317 8.66205C11.7785 8.61099 11.8354 8.57023 11.8988 8.54233C11.9622 8.51444 12.0307 8.50002 12.1 8.5H12.882C13.578 8.5 14.064 8.997 14.351 9.372C14.401 9.437 14.442 9.471 14.469 9.487C14.482 9.495 14.49 9.497 14.494 9.499C14.4959 9.49964 14.498 9.49997 14.5 9.5H14.503C14.5265 9.49087 14.5481 9.47766 14.567 9.461C14.6483 9.38439 14.7138 9.29268 14.76 9.191C14.9 8.911 15 8.491 15 8C15 7.508 14.9 7.088 14.76 6.81C14.7136 6.70788 14.6477 6.61582 14.566 6.539C14.5474 6.52245 14.5261 6.50926 14.503 6.5H14.5L14.494 6.501C14.4852 6.50396 14.4768 6.50799 14.469 6.513C14.4231 6.5439 14.3831 6.58286 14.351 6.628C14.064 7.003 13.578 7.5 12.882 7.5H12.1C12.0307 7.49998 11.9622 7.48556 11.8988 7.45767C11.8354 7.42977 11.7785 7.38901 11.7317 7.33795C11.6848 7.2869 11.6491 7.22668 11.6268 7.1611C11.6045 7.09552 11.596 7.02602 11.602 6.957L11.892 3.55C11.899 3.48051 11.8913 3.41034 11.8695 3.34399C11.8478 3.27764 11.8123 3.21659 11.7655 3.16477C11.7187 3.11296 11.6615 3.07153 11.5977 3.04315C11.5339 3.01477 11.4648 3.00007 11.395 3H9.517C9.565 3.166 9.712 3.352 9.98 3.557C10.254 3.767 10.5 4.085 10.5 4.5C10.5 5.068 10.053 5.447 9.638 5.654C9.193 5.877 8.613 6 8 6C7.387 6 6.807 5.877 6.362 5.654C5.947 5.447 5.5 5.068 5.5 4.5C5.5 4.085 5.746 3.767 6.02 3.557C6.288 3.352 6.435 3.167 6.483 3H4.605Z" fill="black"/>
</svg>
