<svg width="16" height="16" viewBox="0 0 16 16" fill="none" xmlns="http://www.w3.org/2000/svg">
<g clip-path="url(#clip0_104_2962)">
<path d="M2 0C1.46957 0 0.960859 0.210714 0.585786 0.585786C0.210714 0.960859 0 1.46957 0 2L0 14C0 14.5304 0.210714 15.0391 0.585786 15.4142C0.960859 15.7893 1.46957 16 2 16H14C14.5304 16 15.0391 15.7893 15.4142 15.4142C15.7893 15.0391 16 14.5304 16 14V2C16 1.46957 15.7893 0.960859 15.4142 0.585786C15.0391 0.210714 14.5304 0 14 0L2 0ZM5.496 6.033C5.46377 6.03344 5.43178 6.02729 5.402 6.01494C5.37222 6.00259 5.34528 5.9843 5.32281 5.96118C5.30035 5.93806 5.28284 5.9106 5.27135 5.88048C5.25986 5.85036 5.25464 5.81821 5.256 5.786C5.35 4.091 6.737 3.5 8.005 3.5C9.401 3.5 10.677 4.23 10.677 5.74C10.677 6.82 10.042 7.334 9.433 7.797C8.696 8.356 8.423 8.565 8.423 9.283V9.388C8.423 9.4543 8.39666 9.51789 8.34978 9.56478C8.30289 9.61166 8.2393 9.638 8.173 9.638H7.363C7.29738 9.63801 7.23439 9.61222 7.18762 9.5662C7.14085 9.52017 7.11405 9.45761 7.113 9.392L7.109 9.175C7.071 8.248 7.604 7.677 8.277 7.188C8.867 6.744 9.242 6.452 9.242 5.817C9.242 4.992 8.614 4.649 7.928 4.649C7.125 4.649 6.675 5.127 6.586 5.783C6.568 5.92 6.458 6.033 6.32 6.033H5.495H5.496ZM7.821 12.476C7.237 12.476 6.812 12.082 6.812 11.549C6.812 10.997 7.237 10.609 7.822 10.609C8.431 10.609 8.85 10.997 8.85 11.549C8.85 12.082 8.43 12.476 7.821 12.476Z" fill="black"/>
</g>
<defs>
<clipPath id="clip0_104_2962">
<rect width="16" height="16" fill="white"/>
</clipPath>
</defs>
</svg>
