<svg width="16" height="16" viewBox="0 0 16 16" xmlns="http://www.w3.org/2000/svg" fill='currentColor'><g clip-path="url(#clip0_104_2947)"><path d="M6.95 0.435C7.53 -0.145 8.47 -0.145 9.05 0.435L15.565 6.951C16.145 7.531 16.145 8.47 15.565 9.049L9.05 15.565C8.47 16.145 7.531 16.145 6.952 15.565L0.434999 9.05C0.297063 8.91234 0.187629 8.74884 0.112962 8.56883C0.0382959 8.38883 -0.000137329 8.19587 -0.000137329 8.001C-0.000137329 7.80613 0.0382959 7.61317 0.112962 7.43317C0.187629 7.25316 0.297063 7.08966 0.434999 6.952L6.95 0.435ZM8.35 1.135C8.25717 1.04218 8.13127 0.990036 8 0.990036C7.86873 0.990036 7.74283 1.04218 7.65 1.135L1.134 7.65C1.04118 7.74283 0.989035 7.86873 0.989035 8C0.989035 8.13127 1.04118 8.25717 1.134 8.35L7.65 14.866C7.74283 14.9588 7.86873 15.011 8 15.011C8.13127 15.011 8.25717 14.9588 8.35 14.866L14.866 8.35C14.9588 8.25717 15.011 8.13127 15.011 8C15.011 7.86873 14.9588 7.74283 14.866 7.65L8.35 1.134V1.135Z"/><path d="M5.255 5.786C5.25363 5.81829 5.25889 5.85053 5.27044 5.88072C5.28198 5.91091 5.29959 5.93841 5.32216 5.96155C5.34473 5.98468 5.3718 6.00296 5.4017 6.01524C5.43159 6.02753 5.46369 6.03357 5.496 6.033H6.321C6.459 6.033 6.569 5.92 6.587 5.783C6.677 5.127 7.127 4.649 7.929 4.649C8.615 4.649 9.243 4.992 9.243 5.817C9.243 6.452 8.869 6.744 8.278 7.188C7.605 7.677 7.072 8.248 7.11 9.175L7.113 9.392C7.11405 9.45761 7.14086 9.52017 7.18763 9.5662C7.2344 9.61222 7.29739 9.63801 7.363 9.638H8.174C8.24031 9.638 8.3039 9.61166 8.35078 9.56478C8.39766 9.51789 8.424 9.4543 8.424 9.388V9.283C8.424 8.565 8.697 8.356 9.434 7.797C10.043 7.334 10.678 6.82 10.678 5.741C10.678 4.23 9.402 3.5 8.005 3.5C6.738 3.5 5.35 4.09 5.255 5.786ZM6.812 11.549C6.812 12.082 7.237 12.476 7.822 12.476C8.431 12.476 8.85 12.082 8.85 11.549C8.85 10.997 8.43 10.609 7.821 10.609C7.237 10.609 6.812 10.997 6.812 11.549Z"/></g><defs><clipPath id="clip0_104_2947"><rect width="16" height="16"/></clipPath></defs></svg>