<svg width="16" height="16" viewBox="0 0 16 16" xmlns="http://www.w3.org/2000/svg" fill='currentColor'><g clip-path="url(#clip0_104_2950)"><path d="M9.05001 0.435C8.47001 -0.145 7.53001 -0.145 6.95001 0.435L0.436007 6.95C-0.143993 7.53 -0.143993 8.469 0.436007 9.048L6.95201 15.564C7.53201 16.144 8.47101 16.144 9.05001 15.564L15.566 9.048C16.146 8.468 16.146 7.529 15.566 6.95L9.05001 0.435ZM5.49501 6.033C5.46277 6.03344 5.43079 6.02729 5.40101 6.01494C5.37123 6.00259 5.34429 5.9843 5.32182 5.96118C5.29935 5.93806 5.28184 5.9106 5.27035 5.88048C5.25887 5.85036 5.25364 5.81821 5.25501 5.786C5.35001 4.091 6.73701 3.5 8.00501 3.5C9.40101 3.5 10.677 4.23 10.677 5.74C10.677 6.82 10.042 7.334 9.43301 7.797C8.69601 8.356 8.42301 8.565 8.42301 9.283V9.388C8.42301 9.4543 8.39667 9.51789 8.34978 9.56478C8.3029 9.61166 8.23931 9.638 8.17301 9.638H7.36301C7.29739 9.63801 7.2344 9.61222 7.18763 9.5662C7.14086 9.52017 7.11406 9.45761 7.11301 9.392L7.10901 9.175C7.07101 8.248 7.60401 7.677 8.27701 7.188C8.86701 6.744 9.24201 6.452 9.24201 5.817C9.24201 4.992 8.61401 4.649 7.92801 4.649C7.12501 4.649 6.67501 5.127 6.58601 5.783C6.56801 5.92 6.45801 6.033 6.32001 6.033H5.49501ZM7.82001 12.476C7.23601 12.476 6.81101 12.082 6.81101 11.549C6.81101 10.997 7.23601 10.609 7.82101 10.609C8.43001 10.609 8.84901 10.997 8.84901 11.549C8.84901 12.082 8.42901 12.476 7.82001 12.476Z"/></g><defs><clipPath id="clip0_104_2950"><rect width="16" height="16"/></clipPath></defs></svg>