<svg width="16" height="16" viewBox="0 0 16 16" fill="none" xmlns="http://www.w3.org/2000/svg">
<path fill-rule="evenodd" clip-rule="evenodd" d="M4.47501 5.458C4.19101 5.458 3.96101 5.221 4.00501 4.941C4.28001 3.24 5.57601 2 7.82501 2C10.075 2 11.592 3.36 11.592 5.215C11.592 6.559 10.927 7.503 9.80201 8.188C8.70201 8.847 8.38801 9.306 8.38801 10.198V10.228C8.38801 10.3606 8.33533 10.4878 8.24156 10.5816C8.14779 10.6753 8.02062 10.728 7.88801 10.728H7.11801C6.98626 10.728 6.85984 10.676 6.76621 10.5833C6.67258 10.4906 6.61932 10.3647 6.61801 10.233L6.61501 10.033C6.57201 8.812 7.09201 8.032 8.26001 7.321C9.29001 6.689 9.65701 6.186 9.65701 5.293C9.65701 4.314 8.89901 3.595 7.73101 3.595C6.72201 3.595 6.02101 4.124 5.79301 4.997C5.72701 5.251 5.51501 5.458 5.25301 5.458H4.47601H4.47501ZM7.49601 14C8.11801 14 8.59101 13.526 8.59101 12.91C8.59101 12.292 8.11801 11.818 7.49601 11.818C6.89001 11.818 6.40901 12.292 6.40901 12.909C6.40901 13.526 6.89001 14 7.49601 14Z" fill="black"/>
</svg>
