<svg width="16" height="16" viewBox="0 0 16 16" fill="none" xmlns="http://www.w3.org/2000/svg">
<g clip-path="url(#clip0_104_2964)">
<path d="M8 1C6.14348 1 4.36301 1.7375 3.05025 3.05025C1.7375 4.36301 1 6.14348 1 8C1 9.85652 1.7375 11.637 3.05025 12.9497C4.36301 14.2625 6.14348 15 8 15C9.85652 15 11.637 14.2625 12.9497 12.9497C14.2625 11.637 15 9.85652 15 8C15 6.14348 14.2625 4.36301 12.9497 3.05025C11.637 1.7375 9.85652 1 8 1ZM0 8C0 5.87827 0.842855 3.84344 2.34315 2.34315C3.84344 0.842855 5.87827 0 8 0C10.1217 0 12.1566 0.842855 13.6569 2.34315C15.1571 3.84344 16 5.87827 16 8C16 10.1217 15.1571 12.1566 13.6569 13.6569C12.1566 15.1571 10.1217 16 8 16C5.87827 16 3.84344 15.1571 2.34315 13.6569C0.842855 12.1566 0 10.1217 0 8Z" fill="black"/>
<path d="M9.65299 5.49601C9.16282 5.17158 8.58779 4.99904 7.99999 5.00001C7.38999 5.00001 6.82099 5.18301 6.34699 5.49601L4.69398 2.99201C5.67432 2.34315 6.82437 1.99806 7.99999 2.00001C9.22199 2.00001 10.358 2.36501 11.306 2.99201L9.65299 5.49601ZM10.995 7.82001C11.0215 8.24618 10.9563 8.67308 10.8038 9.07192C10.6513 9.47076 10.4151 9.83225 10.111 10.132C9.88537 10.3554 9.62583 10.5417 9.34199 10.684L10.684 13.367C11.254 13.081 11.774 12.707 12.222 12.264C12.8292 11.6639 13.3011 10.9407 13.6058 10.1432C13.9106 9.34569 14.0413 8.49219 13.989 7.64001L10.995 7.82001ZM5.31599 13.368L6.65799 10.684C6.13214 10.4211 5.69513 10.0095 5.40125 9.50032C5.10738 8.99114 4.96958 8.40684 5.00499 7.82001L2.01099 7.64001C1.94017 8.81367 2.21577 9.98228 2.80352 11.0006C3.39128 12.019 4.2653 12.8422 5.31699 13.368H5.31599ZM9.99999 8.00001C9.99999 8.53044 9.78927 9.03915 9.4142 9.41422C9.03913 9.78929 8.53042 10 7.99999 10C7.46955 10 6.96084 9.78929 6.58577 9.41422C6.2107 9.03915 5.99999 8.53044 5.99999 8.00001C5.99999 7.46957 6.2107 6.96087 6.58577 6.58579C6.96084 6.21072 7.46955 6.00001 7.99999 6.00001C8.53042 6.00001 9.03913 6.21072 9.4142 6.58579C9.78927 6.96087 9.99999 7.46957 9.99999 8.00001Z" fill="black"/>
</g>
<defs>
<clipPath id="clip0_104_2964">
<rect width="16" height="16" fill="white"/>
</clipPath>
</defs>
</svg>
