<svg width="16" height="16" viewBox="0 0 16 16" xmlns="http://www.w3.org/2000/svg" fill='currentColor'><path d="M8 4.5C6.14348 4.5 4.36301 5.2375 3.05025 6.55025C1.7375 7.86301 1 9.64348 1 11.5C1 11.6326 0.947322 11.7598 0.853553 11.8536C0.759785 11.9473 0.632608 12 0.5 12C0.367392 12 0.240215 11.9473 0.146447 11.8536C0.0526784 11.7598 0 11.6326 0 11.5C0 9.37827 0.842855 7.34344 2.34315 5.84315C3.84344 4.34285 5.87827 3.5 8 3.5C10.1217 3.5 12.1566 4.34285 13.6569 5.84315C15.1571 7.34344 16 9.37827 16 11.5C16 11.6326 15.9473 11.7598 15.8536 11.8536C15.7598 11.9473 15.6326 12 15.5 12C15.3674 12 15.2402 11.9473 15.1464 11.8536C15.0527 11.7598 15 11.6326 15 11.5C15 9.64348 14.2625 7.86301 12.9497 6.55025C11.637 5.2375 9.85652 4.5 8 4.5ZM8 6.5C6.67392 6.5 5.40215 7.02678 4.46447 7.96447C3.52678 8.90215 3 10.1739 3 11.5C3 11.6326 2.94732 11.7598 2.85355 11.8536C2.75979 11.9473 2.63261 12 2.5 12C2.36739 12 2.24021 11.9473 2.14645 11.8536C2.05268 11.7598 2 11.6326 2 11.5C2 10.7121 2.15519 9.93185 2.45672 9.2039C2.75825 8.47595 3.20021 7.81451 3.75736 7.25736C4.31451 6.70021 4.97595 6.25825 5.7039 5.95672C6.43185 5.65519 7.21207 5.5 8 5.5C8.78793 5.5 9.56815 5.65519 10.2961 5.95672C11.0241 6.25825 11.6855 6.70021 12.2426 7.25736C12.7998 7.81451 13.2417 8.47595 13.5433 9.2039C13.8448 9.93185 14 10.7121 14 11.5C14 11.6326 13.9473 11.7598 13.8536 11.8536C13.7598 11.9473 13.6326 12 13.5 12C13.3674 12 13.2402 11.9473 13.1464 11.8536C13.0527 11.7598 13 11.6326 13 11.5C13 10.1739 12.4732 8.90215 11.5355 7.96447C10.5979 7.02678 9.32608 6.5 8 6.5ZM8 8.5C7.20435 8.5 6.44129 8.81607 5.87868 9.37868C5.31607 9.94129 5 10.7044 5 11.5C5 11.6326 4.94732 11.7598 4.85355 11.8536C4.75979 11.9473 4.63261 12 4.5 12C4.36739 12 4.24021 11.9473 4.14645 11.8536C4.05268 11.7598 4 11.6326 4 11.5C4 10.4391 4.42143 9.42172 5.17157 8.67157C5.92172 7.92143 6.93913 7.5 8 7.5C9.06087 7.5 10.0783 7.92143 10.8284 8.67157C11.5786 9.42172 12 10.4391 12 11.5C12 11.6326 11.9473 11.7598 11.8536 11.8536C11.7598 11.9473 11.6326 12 11.5 12C11.3674 12 11.2402 11.9473 11.1464 11.8536C11.0527 11.7598 11 11.6326 11 11.5C11 10.7044 10.6839 9.94129 10.1213 9.37868C9.55871 8.81607 8.79565 8.5 8 8.5ZM8 10.5C7.73478 10.5 7.48043 10.6054 7.29289 10.7929C7.10536 10.9804 7 11.2348 7 11.5C7 11.6326 6.94732 11.7598 6.85355 11.8536C6.75979 11.9473 6.63261 12 6.5 12C6.36739 12 6.24021 11.9473 6.14645 11.8536C6.05268 11.7598 6 11.6326 6 11.5C6 10.9696 6.21071 10.4609 6.58579 10.0858C6.96086 9.71071 7.46957 9.5 8 9.5C8.53043 9.5 9.03914 9.71071 9.41421 10.0858C9.78929 10.4609 10 10.9696 10 11.5C10 11.6326 9.94732 11.7598 9.85355 11.8536C9.75979 11.9473 9.63261 12 9.5 12C9.36739 12 9.24021 11.9473 9.14645 11.8536C9.05268 11.7598 9 11.6326 9 11.5C9 11.2348 8.89464 10.9804 8.70711 10.7929C8.51957 10.6054 8.26522 10.5 8 10.5Z"/></svg>