<svg width="24" height="24" viewBox="0 0 24 24" xmlns="http://www.w3.org/2000/svg" fill='currentColor'><path d="M17.715 13.6101L18.305 11.2501L19.065 14.2901H20.545L22.045 8.2901H20.545L19.805 11.2901L19.065 8.2901H17.545L16.805 11.2901L16.065 8.2901H14.565L15.285 11.1901L17.715 13.6101Z"/><path d="M1.95499 3.5101L6.73499 8.2901H3.56499V14.2901H5.06499V12.2901H6.16499L7.06499 14.2901H8.56499L7.66499 12.1901C8.16499 11.8901 8.56499 11.3901 8.56499 10.7901V10.1201L9.99499 11.5501L9.31499 14.2901H10.815L11.195 12.7901H11.235L20.345 21.9001L21.755 20.4901L3.37499 2.1001L1.95499 3.5101ZM7.06499 10.7901H5.06499V9.7901H7.06499V10.7901Z"/></svg>