<svg width="24" height="24" viewBox="0 0 24 24" xmlns="http://www.w3.org/2000/svg" fill='currentColor'><path d="M17.715 13.6101L18.305 11.2501L19.065 14.2901H20.545L22.045 8.2901H20.545L19.805 11.2901L19.065 8.2901H17.545L16.805 11.2901L16.065 8.2901H14.565L15.285 11.1901L17.715 13.6101Z"/><path d="M1.95496 3.5101L6.73496 8.2901H3.56496V14.2901H5.06496V12.2901H6.16496L7.06496 14.2901H8.56496L7.66496 12.1901C8.16496 11.8901 8.56496 11.3901 8.56496 10.7901V10.1201L9.99496 11.5501L9.31496 14.2901H10.815L11.195 12.7901H11.235L20.345 21.9001L21.755 20.4901L3.37496 2.1001L1.95496 3.5101ZM7.06496 10.7901H5.06496V9.7901H7.06496V10.7901Z"/></svg>