<svg width="16" height="16" viewBox="0 0 16 16" xmlns="http://www.w3.org/2000/svg" fill='currentColor'><path d="M1.92 0.506039C1.99826 0.493291 2.07843 0.499338 2.15389 0.52368C2.22935 0.548023 2.29794 0.589963 2.354 0.646039L3 1.29304L3.646 0.646039C3.69245 0.599476 3.74762 0.562533 3.80837 0.537327C3.86911 0.51212 3.93423 0.499146 4 0.499146C4.06577 0.499146 4.13089 0.51212 4.19163 0.537327C4.25238 0.562533 4.30755 0.599476 4.354 0.646039L5 1.29304L5.646 0.646039C5.69245 0.599476 5.74762 0.562533 5.80837 0.537327C5.86911 0.51212 5.93423 0.499146 6 0.499146C6.06577 0.499146 6.13089 0.51212 6.19163 0.537327C6.25238 0.562533 6.30755 0.599476 6.354 0.646039L7 1.29304L7.646 0.646039C7.69245 0.599476 7.74762 0.562533 7.80837 0.537327C7.86911 0.51212 7.93423 0.499146 8 0.499146C8.06577 0.499146 8.13089 0.51212 8.19163 0.537327C8.25238 0.562533 8.30755 0.599476 8.354 0.646039L9 1.29304L9.646 0.646039C9.69245 0.599476 9.74762 0.562533 9.80837 0.537327C9.86911 0.51212 9.93423 0.499146 10 0.499146C10.0658 0.499146 10.1309 0.51212 10.1916 0.537327C10.2524 0.562533 10.3076 0.599476 10.354 0.646039L11 1.29304L11.646 0.646039C11.6924 0.599476 11.7476 0.562533 11.8084 0.537327C11.8691 0.51212 11.9342 0.499146 12 0.499146C12.0658 0.499146 12.1309 0.51212 12.1916 0.537327C12.2524 0.562533 12.3076 0.599476 12.354 0.646039L13 1.29304L13.646 0.646039C13.702 0.589972 13.7706 0.548027 13.846 0.523663C13.9214 0.499299 14.0016 0.493215 14.0798 0.505913C14.158 0.51861 14.2321 0.549726 14.296 0.596692C14.3598 0.643659 14.4116 0.705131 14.447 0.776039L14.947 1.77604C14.9818 1.84557 15 1.92227 15 2.00004V14C15 14.0778 14.9818 14.1545 14.947 14.224L14.447 15.224C14.4115 15.2948 14.3598 15.3561 14.296 15.4029C14.2323 15.4498 14.1583 15.4808 14.0802 15.4935C14.0021 15.5062 13.9221 15.5002 13.8468 15.4759C13.7715 15.4517 13.703 15.4099 13.647 15.354L13 14.707L12.354 15.354C12.3076 15.4006 12.2524 15.4375 12.1916 15.4628C12.1309 15.488 12.0658 15.5009 12 15.5009C11.9342 15.5009 11.8691 15.488 11.8084 15.4628C11.7476 15.4375 11.6924 15.4006 11.646 15.354L11 14.707L10.354 15.354C10.3076 15.4006 10.2524 15.4375 10.1916 15.4628C10.1309 15.488 10.0658 15.5009 10 15.5009C9.93423 15.5009 9.86911 15.488 9.80837 15.4628C9.74762 15.4375 9.69245 15.4006 9.646 15.354L9 14.707L8.354 15.354C8.30755 15.4006 8.25238 15.4375 8.19163 15.4628C8.13089 15.488 8.06577 15.5009 8 15.5009C7.93423 15.5009 7.86911 15.488 7.80837 15.4628C7.74762 15.4375 7.69245 15.4006 7.646 15.354L7 14.707L6.354 15.354C6.30755 15.4006 6.25238 15.4375 6.19163 15.4628C6.13089 15.488 6.06577 15.5009 6 15.5009C5.93423 15.5009 5.86911 15.488 5.80837 15.4628C5.74762 15.4375 5.69245 15.4006 5.646 15.354L5 14.707L4.354 15.354C4.30755 15.4006 4.25238 15.4375 4.19163 15.4628C4.13089 15.488 4.06577 15.5009 4 15.5009C3.93423 15.5009 3.86911 15.488 3.80837 15.4628C3.74762 15.4375 3.69245 15.4006 3.646 15.354L3 14.707L2.354 15.354C2.29798 15.4101 2.22943 15.4521 2.154 15.4764C2.07858 15.5008 1.99845 15.5069 1.92021 15.4942C1.84197 15.4815 1.76787 15.4504 1.70403 15.4034C1.64018 15.3564 1.58842 15.2949 1.553 15.224L1.053 14.224C1.01815 14.1545 1.00001 14.0778 1 14V2.00004C1.00001 1.92227 1.01815 1.84557 1.053 1.77604L1.553 0.776039C1.58841 0.705181 1.64015 0.64375 1.70396 0.596807C1.76777 0.549865 1.84181 0.518755 1.92 0.506039ZM2.137 1.84404L2 2.11804V13.882L2.137 14.156L2.647 13.646C2.74076 13.5523 2.86792 13.4996 3.0005 13.4996C3.13308 13.4996 3.26024 13.5523 3.354 13.646L4 14.293L4.646 13.647C4.69245 13.6005 4.74762 13.5635 4.80837 13.5383C4.86911 13.5131 4.93423 13.5001 5 13.5001C5.06577 13.5001 5.13089 13.5131 5.19163 13.5383C5.25238 13.5635 5.30755 13.6005 5.354 13.647L6 14.293L6.646 13.647C6.69245 13.6005 6.74762 13.5635 6.80837 13.5383C6.86911 13.5131 6.93423 13.5001 7 13.5001C7.06577 13.5001 7.13089 13.5131 7.19163 13.5383C7.25238 13.5635 7.30755 13.6005 7.354 13.647L8 14.293L8.646 13.647C8.69245 13.6005 8.74762 13.5635 8.80837 13.5383C8.86911 13.5131 8.93423 13.5001 9 13.5001C9.06577 13.5001 9.13089 13.5131 9.19163 13.5383C9.25238 13.5635 9.30755 13.6005 9.354 13.647L10 14.293L10.646 13.647C10.6924 13.6005 10.7476 13.5635 10.8084 13.5383C10.8691 13.5131 10.9342 13.5001 11 13.5001C11.0658 13.5001 11.1309 13.5131 11.1916 13.5383C11.2524 13.5635 11.3076 13.6005 11.354 13.647L12 14.293L12.646 13.647C12.6924 13.6005 12.7476 13.5635 12.8084 13.5383C12.8691 13.5131 12.9342 13.5001 13 13.5001C13.0658 13.5001 13.1309 13.5131 13.1916 13.5383C13.2524 13.5635 13.3076 13.6005 13.354 13.647L13.863 14.156L14 13.882V2.11804L13.863 1.84404L13.353 2.35404C13.2592 2.44778 13.1321 2.50043 12.9995 2.50043C12.8669 2.50043 12.7398 2.44778 12.646 2.35404L12 1.70704L11.354 2.35404C11.3076 2.4006 11.2524 2.43755 11.1916 2.46275C11.1309 2.48796 11.0658 2.50093 11 2.50093C10.9342 2.50093 10.8691 2.48796 10.8084 2.46275C10.7476 2.43755 10.6924 2.4006 10.646 2.35404L10 1.70704L9.354 2.35404C9.30755 2.4006 9.25238 2.43755 9.19163 2.46275C9.13089 2.48796 9.06577 2.50093 9 2.50093C8.93423 2.50093 8.86911 2.48796 8.80837 2.46275C8.74762 2.43755 8.69245 2.4006 8.646 2.35404L8 1.70704L7.354 2.35404C7.30755 2.4006 7.25238 2.43755 7.19163 2.46275C7.13089 2.48796 7.06577 2.50093 7 2.50093C6.93423 2.50093 6.86911 2.48796 6.80837 2.46275C6.74762 2.43755 6.69245 2.4006 6.646 2.35404L6 1.70704L5.354 2.35404C5.30755 2.4006 5.25238 2.43755 5.19163 2.46275C5.13089 2.48796 5.06577 2.50093 5 2.50093C4.93423 2.50093 4.86911 2.48796 4.80837 2.46275C4.74762 2.43755 4.69245 2.4006 4.646 2.35404L4 1.70704L3.354 2.35404C3.30755 2.4006 3.25238 2.43755 3.19163 2.46275C3.13089 2.48796 3.06577 2.50093 3 2.50093C2.93423 2.50093 2.86911 2.48796 2.80837 2.46275C2.74762 2.43755 2.69245 2.4006 2.646 2.35404L2.137 1.84404Z"/><path d="M3 4.5C3 4.36739 3.05268 4.24021 3.14645 4.14645C3.24021 4.05268 3.36739 4 3.5 4H9.5C9.63261 4 9.75979 4.05268 9.85355 4.14645C9.94732 4.24021 10 4.36739 10 4.5C10 4.63261 9.94732 4.75979 9.85355 4.85355C9.75979 4.94732 9.63261 5 9.5 5H3.5C3.36739 5 3.24021 4.94732 3.14645 4.85355C3.05268 4.75979 3 4.63261 3 4.5ZM3 6.5C3 6.36739 3.05268 6.24021 3.14645 6.14645C3.24021 6.05268 3.36739 6 3.5 6H9.5C9.63261 6 9.75979 6.05268 9.85355 6.14645C9.94732 6.24021 10 6.36739 10 6.5C10 6.63261 9.94732 6.75979 9.85355 6.85355C9.75979 6.94732 9.63261 7 9.5 7H3.5C3.36739 7 3.24021 6.94732 3.14645 6.85355C3.05268 6.75979 3 6.63261 3 6.5ZM3 8.5C3 8.36739 3.05268 8.24021 3.14645 8.14645C3.24021 8.05268 3.36739 8 3.5 8H9.5C9.63261 8 9.75979 8.05268 9.85355 8.14645C9.94732 8.24021 10 8.36739 10 8.5C10 8.63261 9.94732 8.75979 9.85355 8.85355C9.75979 8.94732 9.63261 9 9.5 9H3.5C3.36739 9 3.24021 8.94732 3.14645 8.85355C3.05268 8.75979 3 8.63261 3 8.5ZM3 10.5C3 10.3674 3.05268 10.2402 3.14645 10.1464C3.24021 10.0527 3.36739 10 3.5 10H9.5C9.63261 10 9.75979 10.0527 9.85355 10.1464C9.94732 10.2402 10 10.3674 10 10.5C10 10.6326 9.94732 10.7598 9.85355 10.8536C9.75979 10.9473 9.63261 11 9.5 11H3.5C3.36739 11 3.24021 10.9473 3.14645 10.8536C3.05268 10.7598 3 10.6326 3 10.5ZM11 4.5C11 4.36739 11.0527 4.24021 11.1464 4.14645C11.2402 4.05268 11.3674 4 11.5 4H12.5C12.6326 4 12.7598 4.05268 12.8536 4.14645C12.9473 4.24021 13 4.36739 13 4.5C13 4.63261 12.9473 4.75979 12.8536 4.85355C12.7598 4.94732 12.6326 5 12.5 5H11.5C11.3674 5 11.2402 4.94732 11.1464 4.85355C11.0527 4.75979 11 4.63261 11 4.5ZM11 6.5C11 6.36739 11.0527 6.24021 11.1464 6.14645C11.2402 6.05268 11.3674 6 11.5 6H12.5C12.6326 6 12.7598 6.05268 12.8536 6.14645C12.9473 6.24021 13 6.36739 13 6.5C13 6.63261 12.9473 6.75979 12.8536 6.85355C12.7598 6.94732 12.6326 7 12.5 7H11.5C11.3674 7 11.2402 6.94732 11.1464 6.85355C11.0527 6.75979 11 6.63261 11 6.5ZM11 8.5C11 8.36739 11.0527 8.24021 11.1464 8.14645C11.2402 8.05268 11.3674 8 11.5 8H12.5C12.6326 8 12.7598 8.05268 12.8536 8.14645C12.9473 8.24021 13 8.36739 13 8.5C13 8.63261 12.9473 8.75979 12.8536 8.85355C12.7598 8.94732 12.6326 9 12.5 9H11.5C11.3674 9 11.2402 8.94732 11.1464 8.85355C11.0527 8.75979 11 8.63261 11 8.5ZM11 10.5C11 10.3674 11.0527 10.2402 11.1464 10.1464C11.2402 10.0527 11.3674 10 11.5 10H12.5C12.6326 10 12.7598 10.0527 12.8536 10.1464C12.9473 10.2402 13 10.3674 13 10.5C13 10.6326 12.9473 10.7598 12.8536 10.8536C12.7598 10.9473 12.6326 11 12.5 11H11.5C11.3674 11 11.2402 10.9473 11.1464 10.8536C11.0527 10.7598 11 10.6326 11 10.5Z"/></svg>