<svg xmlns="http://www.w3.org/2000/svg" width="24" height="24" viewBox="0 0 24 24" fill='currentColor'><path d="m6.27 6.65 2.46-4.08c.39-.65 1.33-.65 1.72 0l1.48 2.46-1.23 2.06-1 1.62zm15.95 5.82-1.6-2.66-3.46 2 2.21 3.69h1.13a2 2 0 0 0 2-2c0-.36-.1-.71-.28-1.03M16.5 20.5H18a2 2 0 0 0 1.79-1.11l1.45-2.89H16.5v-2l-4 4 4 4zm-6-4H6.2l-.84 1.41c-.3.5-.32 1.12-.06 1.65.28.57.87.94 1.52.94h3.68zm-3.88-2.65 1.73 1.04L6.98 9.4 1.5 10.77l1.7 1.02-.41.69c-.35.59-.38 1.31-.07 1.92l1.63 3.26zm10.9-9.21-1.3-2.17c-.37-.6-1.02-.97-1.72-.97h-3.53l3.12 5.2-1.72 1.03 5.49 1.37 1.37-5.49z"/></svg>