<svg width="16" height="16" viewBox="0 0 16 16" fill="none" xmlns="http://www.w3.org/2000/svg">
<path d="M5.921 11.8999L1.353 8.61994C1.24541 8.55636 1.15624 8.46583 1.0943 8.35728C1.03236 8.24873 0.999786 8.12592 0.999786 8.00094C0.999786 7.87596 1.03236 7.75314 1.0943 7.6446C1.15624 7.53605 1.24541 7.44552 1.353 7.38194L5.921 4.09994C6.02989 4.03589 6.15379 4.00179 6.28012 4.00111C6.40645 4.00042 6.53071 4.03318 6.64029 4.09604C6.74987 4.1589 6.84087 4.24964 6.90404 4.35904C6.96722 4.46844 7.00032 4.59261 7 4.71894V5.99994C8.5 5.99994 13 5.99994 14 13.9999C11.5 9.49994 7 9.99994 7 9.99994V11.2809C7 11.8409 6.394 12.1789 5.921 11.9009V11.8999Z" fill="black"/>
</svg>
