<svg width="16" height="16" viewBox="0 0 16 16" fill="none" xmlns="http://www.w3.org/2000/svg">
<g clip-path="url(#clip0_104_3015)">
<path d="M8.02101 11.8999L3.45301 8.61994C3.34541 8.55636 3.25625 8.46583 3.19431 8.35728C3.13237 8.24873 3.09979 8.12592 3.09979 8.00094C3.09979 7.87596 3.13237 7.75314 3.19431 7.6446C3.25625 7.53605 3.34541 7.44552 3.45301 7.38194L8.02101 4.09994C8.1299 4.03589 8.2538 4.00179 8.38013 4.00111C8.50646 4.00042 8.63072 4.03318 8.7403 4.09604C8.84988 4.1589 8.94087 4.24964 9.00405 4.35904C9.06722 4.46844 9.10033 4.59261 9.10001 4.71894V5.99994C10.6 5.99994 15.1 5.99994 16.1 13.9999C13.6 9.49994 9.10001 9.99994 9.10001 9.99994V11.2809C9.10001 11.8409 8.49401 12.1789 8.02101 11.9009V11.8999Z" fill="black"/>
<path d="M5.232 4.29299C5.27109 4.34588 5.29935 4.40596 5.31518 4.4698C5.331 4.53363 5.33408 4.59996 5.32423 4.66498C5.31439 4.73 5.29181 4.79245 5.25779 4.84873C5.22378 4.90502 5.17899 4.95404 5.126 4.99299L1.114 7.94499C1.10048 7.95502 1.08647 7.96437 1.072 7.97299C1.05026 7.98605 1.03227 8.00453 1.01978 8.0266C1.00729 8.04868 1.00072 8.07362 1.00072 8.09899C1.00072 8.12436 1.00729 8.14929 1.01978 8.17137C1.03227 8.19345 1.05026 8.21192 1.072 8.22499C1.08646 8.23361 1.10048 8.24296 1.114 8.25299L5.126 11.207C5.18018 11.2454 5.22617 11.2942 5.26126 11.3506C5.29636 11.407 5.31987 11.4698 5.33042 11.5354C5.34098 11.601 5.33835 11.668 5.32272 11.7326C5.30708 11.7971 5.27873 11.8579 5.23934 11.9114C5.19994 11.9649 5.15029 12.01 5.09328 12.044C5.03626 12.0781 4.97303 12.1005 4.90727 12.1098C4.84152 12.1192 4.77455 12.1154 4.71029 12.0986C4.64603 12.0818 4.58576 12.0523 4.533 12.012L0.539004 9.07299C0.373884 8.96992 0.23771 8.82652 0.143303 8.6563C0.0488948 8.48608 -0.000640869 8.29464 -0.000640869 8.09999C-0.000640869 7.90534 0.0488948 7.71389 0.143303 7.54367C0.23771 7.37345 0.373884 7.23006 0.539004 7.12699L4.533 4.18699C4.63976 4.10837 4.77337 4.07538 4.90445 4.09525C5.03553 4.11513 5.15335 4.18626 5.232 4.29299Z" fill="black"/>
</g>
<defs>
<clipPath id="clip0_104_3015">
<rect width="16" height="16" fill="white"/>
</clipPath>
</defs>
</svg>
