<svg width="16" height="16" viewBox="0 0 16 16" xmlns="http://www.w3.org/2000/svg" fill='currentColor'><g clip-path="url(#clip0_104_3012)"><path d="M8.098 5.01296C8.12009 5.00324 8.14427 4.99922 8.16832 5.00128C8.19237 5.00334 8.21551 5.01142 8.23562 5.02476C8.25574 5.0381 8.27217 5.05628 8.28342 5.07764C8.29467 5.09899 8.30037 5.12283 8.3 5.14696V6.29996C8.3 6.43257 8.35268 6.55974 8.44645 6.65351C8.54022 6.74728 8.6674 6.79996 8.8 6.79996C9.467 6.79996 10.813 6.80496 12.1 7.62196C13.084 8.24596 14.09 9.38196 14.695 11.498C13.675 10.515 12.51 9.98196 11.49 9.69896C10.8631 9.5258 10.2187 9.42316 9.569 9.39296C9.30305 9.38128 9.03667 9.38395 8.771 9.40096H8.758L8.753 9.40196H8.752L8.8 9.89996L8.75 9.40196C8.62659 9.41436 8.51219 9.4722 8.42902 9.56423C8.34586 9.65626 8.29988 9.77592 8.3 9.89996V11.053C8.3 11.161 8.19 11.229 8.098 11.187L4.114 8.25396C4.10048 8.24393 4.08647 8.23458 4.072 8.22596C4.05026 8.21289 4.03227 8.19442 4.01978 8.17234C4.00729 8.15026 4.00072 8.12533 4.00072 8.09996C4.00072 8.07459 4.00729 8.04965 4.01978 8.02758C4.03227 8.0055 4.05026 7.98703 4.072 7.97396C4.08647 7.96534 4.10049 7.956 4.114 7.94596L8.098 5.01296ZM9.3 10.386C9.368 10.386 9.443 10.389 9.523 10.392C9.957 10.412 10.557 10.478 11.223 10.663C12.549 11.031 14.119 11.865 15.163 13.743C15.2195 13.8443 15.3094 13.9229 15.4175 13.9652C15.5255 14.0076 15.6449 14.011 15.7552 13.9749C15.8655 13.9389 15.9598 13.8656 16.022 13.7676C16.0842 13.6697 16.1103 13.5531 16.096 13.438C15.632 9.72796 14.21 7.77596 12.636 6.77796C11.391 5.98796 10.109 5.83596 9.3 5.80696V5.14696C9.3001 4.94103 9.2446 4.73889 9.13937 4.56187C9.03415 4.38486 8.88309 4.23953 8.70214 4.14122C8.52119 4.04291 8.31705 3.99527 8.11128 4.00332C7.90551 4.01137 7.70572 4.07481 7.533 4.18696L3.539 7.12696C3.37388 7.23003 3.23771 7.37342 3.1433 7.54364C3.04889 7.71386 2.99936 7.90531 2.99936 8.09996C2.99936 8.29461 3.04889 8.48605 3.1433 8.65627C3.23771 8.82649 3.37388 8.96989 3.539 9.07296L7.533 12.013C7.70572 12.1251 7.90551 12.1886 8.11128 12.1966C8.31705 12.2047 8.52119 12.157 8.70214 12.0587C8.88309 11.9604 9.03415 11.8151 9.13937 11.638C9.2446 11.461 9.3001 11.2589 9.3 11.053V10.386Z"/><path d="M5.232 4.29298C5.19305 4.23999 5.14402 4.1952 5.08774 4.16119C5.03145 4.12717 4.96901 4.10459 4.90399 4.09475C4.83896 4.0849 4.77264 4.08798 4.7088 4.1038C4.64497 4.11963 4.58489 4.14789 4.532 4.18698L0.539996 7.12698C0.374876 7.23004 0.238702 7.37344 0.144294 7.54366C0.0498866 7.71388 0.000350952 7.90533 0.000350952 8.09998C0.000350952 8.29462 0.0498866 8.48607 0.144294 8.65629C0.238702 8.82651 0.374876 8.96991 0.539996 9.07298L4.534 12.013C4.58675 12.0533 4.64702 12.0828 4.71128 12.0996C4.77554 12.1164 4.84251 12.1202 4.90826 12.1108C4.97402 12.1015 5.03725 12.0791 5.09427 12.045C5.15128 12.0109 5.20094 11.9659 5.24033 11.9124C5.27972 11.8589 5.30807 11.7981 5.32371 11.7336C5.33935 11.669 5.34197 11.602 5.33142 11.5364C5.32087 11.4708 5.29735 11.408 5.26226 11.3516C5.22716 11.2952 5.18118 11.2464 5.127 11.208L1.114 8.25397C1.10047 8.24394 1.08646 8.2346 1.072 8.22598C1.05025 8.21291 1.03226 8.19444 1.01977 8.17236C1.00728 8.15028 1.00071 8.12534 1.00071 8.09998C1.00071 8.07461 1.00728 8.04967 1.01977 8.02759C1.03226 8.00551 1.05025 7.98704 1.072 7.97398C1.08646 7.96536 1.10048 7.95601 1.114 7.94598L5.126 4.99198C5.23273 4.91333 5.30385 4.79551 5.32373 4.66442C5.34361 4.53334 5.31061 4.39973 5.232 4.29298Z"/></g><defs><clipPath id="clip0_104_3012"><rect width="16" height="16"/></clipPath></defs></svg>