<svg xmlns="http://www.w3.org/2000/svg" width="24" height="24" viewBox="0 0 24 24" fill='currentColor'><path d="M12 6V2L7 7l5 5V8c3.31 0 6 2.69 6 6s-2.69 6-6 6-6-2.69-6-6H4c0 4.42 3.58 8 8 8s8-3.58 8-8-3.58-8-8-8"/><path d="m10.69 14.9.25-2.17h2.39v.71h-1.7l-.11.92c.03-.02.07-.03.11-.05s.09-.04.15-.05.12-.03.18-.04.13-.02.2-.02c.21 0 .39.03.55.1s.3.16.41.28.2.27.25.45.09.38.09.6q0 .285-.09.54t-.27.45c-.12.13-.27.24-.45.31s-.39.12-.64.12c-.18 0-.36-.03-.53-.08s-.32-.14-.46-.24a1.1 1.1 0 0 1-.32-.39c-.08-.15-.13-.33-.13-.53h.84c.02.18.08.32.19.41s.25.15.42.15q.165 0 .27-.06c.07-.04.14-.1.18-.17s.08-.15.11-.25.03-.2.03-.31-.01-.21-.04-.31a.6.6 0 0 0-.13-.24.5.5 0 0 0-.21-.15.9.9 0 0 0-.3-.05c-.08 0-.15.01-.2.02a.7.7 0 0 0-.15.05c-.04.02-.08.05-.12.07s-.07.06-.1.09z"/></svg>