<svg width="24" height="24" viewBox="0 0 24 24" xmlns="http://www.w3.org/2000/svg" fill='currentColor'><path d="M12 6V2L7 7L12 12V8C15.31 8 18 10.69 18 14C18 17.31 15.31 20 12 20C8.69 20 6 17.31 6 14H4C4 18.42 7.58 22 12 22C16.42 22 20 18.42 20 14C20 9.58 16.42 6 12 6Z"/><path d="M10.69 14.9L10.94 12.73H13.33V13.44H11.63L11.52 14.36C11.55 14.34 11.59 14.33 11.63 14.31C11.67 14.29 11.72 14.27 11.78 14.26C11.84 14.25 11.9 14.23 11.96 14.22C12.02 14.21 12.09 14.2 12.16 14.2C12.37 14.2 12.55 14.23 12.71 14.3C12.87 14.37 13.01 14.46 13.12 14.58C13.23 14.7 13.32 14.85 13.37 15.03C13.42 15.21 13.46 15.41 13.46 15.63C13.46 15.82 13.43 16 13.37 16.17C13.31 16.34 13.22 16.49 13.1 16.62C12.98 16.75 12.83 16.86 12.65 16.93C12.47 17 12.26 17.05 12.01 17.05C11.83 17.05 11.65 17.02 11.48 16.97C11.31 16.92 11.16 16.83 11.02 16.73C10.88 16.63 10.78 16.49 10.7 16.34C10.62 16.19 10.57 16.01 10.57 15.81H11.41C11.43 15.99 11.49 16.13 11.6 16.22C11.71 16.31 11.85 16.37 12.02 16.37C12.13 16.37 12.22 16.35 12.29 16.31C12.36 16.27 12.43 16.21 12.47 16.14C12.51 16.07 12.55 15.99 12.58 15.89C12.61 15.79 12.61 15.69 12.61 15.58C12.61 15.47 12.6 15.37 12.57 15.27C12.54 15.17 12.5 15.1 12.44 15.03C12.38 14.96 12.31 14.91 12.23 14.88C12.15 14.85 12.04 14.83 11.93 14.83C11.85 14.83 11.78 14.84 11.73 14.85C11.68 14.86 11.62 14.88 11.58 14.9C11.54 14.92 11.5 14.95 11.46 14.97C11.42 14.99 11.39 15.03 11.36 15.06L10.69 14.9Z"/></svg>