<svg width="24" height="24" viewBox="0 0 24 24" xmlns="http://www.w3.org/2000/svg" fill='currentColor'><path d="M12 5.53516V2.53516L8 6.53516L12 10.5352V7.53516C15.31 7.53516 18 10.2252 18 13.5352C18 16.5052 15.83 18.9652 13 19.4452V21.4652C16.95 20.9752 20 17.6152 20 13.5352C20 9.11516 16.42 5.53516 12 5.53516Z"/><path d="M6 13.5352C6 11.8852 6.67 10.3852 7.76 9.29516L6.34 7.87516C4.9 9.32516 4 11.3252 4 13.5352C4 17.6152 7.05 20.9752 11 21.4652V19.4452C8.17 18.9652 6 16.5052 6 13.5352Z"/></svg>