<svg xmlns="http://www.w3.org/2000/svg" width="24" height="24" viewBox="0 0 24 24" fill='currentColor'><path d="M9.435 6.107c-2.04 2.29-3.44 5.58-3.57 5.89l-3.62-1.55 4.05-4.05c.47-.47 1.15-.68 1.81-.55zm1.98 10.65s3.74-1.55 5.89-3.7c5.4-5.4 4.5-9.62 4.21-10.57-.95-.3-5.17-1.19-10.57 4.21-2.15 2.15-3.7 5.89-3.7 5.89zm6.48-2.19c-2.29 2.04-5.58 3.44-5.89 3.57l1.55 3.62 4.05-4.05c.47-.47.68-1.15.55-1.81zm-8.65 3.19c0 .83-.34 1.58-.88 2.12-1.18 1.18-6.12 1.88-6.12 1.88s.7-4.94 1.88-6.12a2.996 2.996 0 0 1 5.12 2.12m4-9c0-1.1.9-2 2-2s2 .9 2 2-.9 2-2 2-2-.9-2-2"/></svg>