<svg width="24" height="24" viewBox="0 0 24 24" xmlns="http://www.w3.org/2000/svg" fill='currentColor'><path d="M7.075 10.0652L5.665 8.64516C4.765 9.80516 4.205 11.1452 4.035 12.5352H6.055C6.195 11.6652 6.545 10.8152 7.075 10.0652ZM6.055 14.5352H4.035C4.205 15.9252 4.755 17.2652 5.655 18.4252L7.065 17.0052C6.545 16.2552 6.195 15.4152 6.055 14.5352ZM7.065 19.8552C8.225 20.7552 9.575 21.2952 10.965 21.4652V19.4352C10.095 19.2852 9.255 18.9452 8.505 18.4052L7.065 19.8552ZM12.965 5.60516V2.53516L8.415 7.08516L12.965 11.5352V7.62516C15.805 8.10516 17.965 10.5652 17.965 13.5352C17.965 16.5052 15.805 18.9652 12.965 19.4452V21.4652C16.915 20.9752 19.965 17.6152 19.965 13.5352C19.965 9.45516 16.915 6.09516 12.965 5.60516Z"/></svg>