<svg width="24" height="24" viewBox="0 0 24 24" xmlns="http://www.w3.org/2000/svg" fill='currentColor'><path d="M7.07503 10.0652L5.66503 8.64516C4.76503 9.80516 4.20503 11.1452 4.03503 12.5352H6.05503C6.19503 11.6652 6.54503 10.8152 7.07503 10.0652ZM6.05503 14.5352H4.03503C4.20503 15.9252 4.75503 17.2652 5.65503 18.4252L7.06503 17.0052C6.54503 16.2552 6.19503 15.4152 6.05503 14.5352ZM7.06503 19.8552C8.22503 20.7552 9.57503 21.2952 10.965 21.4652V19.4352C10.095 19.2852 9.25503 18.9452 8.50503 18.4052L7.06503 19.8552ZM12.965 5.60516V2.53516L8.41503 7.08516L12.965 11.5352V7.62516C15.805 8.10516 17.965 10.5652 17.965 13.5352C17.965 16.5052 15.805 18.9652 12.965 19.4452V21.4652C16.915 20.9752 19.965 17.6152 19.965 13.5352C19.965 9.45516 16.915 6.09516 12.965 5.60516Z"/></svg>