<svg width="16" height="16" viewBox="0 0 16 16" fill="none" xmlns="http://www.w3.org/2000/svg">
<g clip-path="url(#clip0_104_3020)">
<path d="M14 1C14.2652 1 14.5196 1.10536 14.7071 1.29289C14.8946 1.48043 15 1.73478 15 2V14C15 14.2652 14.8946 14.5196 14.7071 14.7071C14.5196 14.8946 14.2652 15 14 15H2C1.73478 15 1.48043 14.8946 1.29289 14.7071C1.10536 14.5196 1 14.2652 1 14V2C1 1.73478 1.10536 1.48043 1.29289 1.29289C1.48043 1.10536 1.73478 1 2 1H14ZM2 0C1.46957 0 0.960859 0.210714 0.585786 0.585786C0.210714 0.960859 0 1.46957 0 2L0 14C0 14.5304 0.210714 15.0391 0.585786 15.4142C0.960859 15.7893 1.46957 16 2 16H14C14.5304 16 15.0391 15.7893 15.4142 15.4142C15.7893 15.0391 16 14.5304 16 14V2C16 1.46957 15.7893 0.960859 15.4142 0.585786C15.0391 0.210714 14.5304 0 14 0L2 0Z" fill="black"/>
<path d="M5.5 12C5.5 12.3978 5.34196 12.7794 5.06066 13.0607C4.77936 13.342 4.39782 13.5 4 13.5C3.60218 13.5 3.22064 13.342 2.93934 13.0607C2.65804 12.7794 2.5 12.3978 2.5 12C2.5 11.6022 2.65804 11.2206 2.93934 10.9393C3.22064 10.658 3.60218 10.5 4 10.5C4.39782 10.5 4.77936 10.658 5.06066 10.9393C5.34196 11.2206 5.5 11.6022 5.5 12ZM2.5 3.5C2.5 3.23478 2.60536 2.98043 2.79289 2.79289C2.98043 2.60536 3.23478 2.5 3.5 2.5C9.023 2.5 13.5 6.977 13.5 12.5C13.5 12.7652 13.3946 13.0196 13.2071 13.2071C13.0196 13.3946 12.7652 13.5 12.5 13.5C12.2348 13.5 11.9804 13.3946 11.7929 13.2071C11.6054 13.0196 11.5 12.7652 11.5 12.5C11.5 10.3783 10.6571 8.34344 9.15685 6.84315C7.65656 5.34285 5.62173 4.5 3.5 4.5C3.23478 4.5 2.98043 4.39464 2.79289 4.20711C2.60536 4.01957 2.5 3.76522 2.5 3.5ZM2.5 7.5C2.5 7.23478 2.60536 6.98043 2.79289 6.79289C2.98043 6.60536 3.23478 6.5 3.5 6.5C5.0913 6.5 6.61742 7.13214 7.74264 8.25736C8.86786 9.38258 9.5 10.9087 9.5 12.5C9.5 12.7652 9.39464 13.0196 9.20711 13.2071C9.01957 13.3946 8.76522 13.5 8.5 13.5C8.23478 13.5 7.98043 13.3946 7.79289 13.2071C7.60536 13.0196 7.5 12.7652 7.5 12.5C7.5 11.4391 7.07857 10.4217 6.32843 9.67157C5.57828 8.92143 4.56087 8.5 3.5 8.5C3.23478 8.5 2.98043 8.39464 2.79289 8.20711C2.60536 8.01957 2.5 7.76522 2.5 7.5Z" fill="black"/>
</g>
<defs>
<clipPath id="clip0_104_3020">
<rect width="16" height="16" fill="white"/>
</clipPath>
</defs>
</svg>
