<svg width="24" height="24" viewBox="0 0 24 24" xmlns="http://www.w3.org/2000/svg" fill='currentColor'><path d="M6.39997 19.7802C7.60395 19.7802 8.57997 18.8042 8.57997 17.6002C8.57997 16.3962 7.60395 15.4202 6.39997 15.4202C5.19599 15.4202 4.21997 16.3962 4.21997 17.6002C4.21997 18.8042 5.19599 19.7802 6.39997 19.7802Z"/><path d="M4.21997 4.22021V7.05021C11.25 7.05021 16.95 12.7502 16.95 19.7802H19.78C19.78 11.1902 12.81 4.22021 4.21997 4.22021ZM4.21997 9.88022V12.7102C8.11997 12.7102 11.29 15.8802 11.29 19.7802H14.12C14.12 14.3102 9.68997 9.88022 4.21997 9.88022Z"/></svg>