<svg width="16" height="16" viewBox="0 0 16 16" fill="none" xmlns="http://www.w3.org/2000/svg">
<g clip-path="url(#clip0_104_3033)">
<path d="M6.56297 8.00003H5.03497C5.11804 7.42086 5.34572 6.87197 5.69697 6.40403L6.77697 7.48403C6.68297 7.64403 6.60997 7.81603 6.56297 8.00003ZM7.48397 6.77703L6.40397 5.69703C6.8719 5.34578 7.4208 5.1181 7.99997 5.03503V6.56303C7.81597 6.61003 7.64297 6.68303 7.48397 6.77703ZM8.99997 6.56303V5.03503C9.57914 5.1181 10.128 5.34578 10.596 5.69703L9.51597 6.77703C9.3549 6.68177 9.18119 6.60973 8.99997 6.56303ZM10.223 7.48403L11.303 6.40403C11.646 6.86203 11.88 7.40703 11.965 8.00003H10.437C10.3903 7.81882 10.3182 7.64511 10.223 7.48403ZM10.437 9.00003H11.965C11.8819 9.57919 11.6542 10.1281 11.303 10.596L10.223 9.51603C10.317 9.35603 10.39 9.18403 10.437 9.00003ZM9.51597 10.223L10.596 11.303C10.128 11.6543 9.57913 11.8819 8.99997 11.965V10.437C9.18397 10.39 9.35697 10.317 9.51597 10.223ZM7.99997 10.437V11.965C7.42081 11.8819 6.87193 11.6543 6.40397 11.303L7.48397 10.223C7.64397 10.317 7.81597 10.39 7.99997 10.437ZM6.77697 9.51603L5.69697 10.596C5.34572 10.1281 5.11804 9.5792 5.03497 9.00003H6.56297C6.60997 9.18403 6.68297 9.35703 6.77697 9.51603ZM7.49997 8.50003C7.49997 8.23482 7.60533 7.98046 7.79287 7.79293C7.9804 7.60539 8.23476 7.50003 8.49997 7.50003C8.76519 7.50003 9.01954 7.60539 9.20708 7.79293C9.39462 7.98046 9.49997 8.23482 9.49997 8.50003C9.49997 8.76525 9.39462 9.0196 9.20708 9.20714C9.01954 9.39468 8.76519 9.50003 8.49997 9.50003C8.23476 9.50003 7.9804 9.39468 7.79287 9.20714C7.60533 9.0196 7.49997 8.76525 7.49997 8.50003Z" fill="black"/>
<path d="M2.5 1C2.10218 1 1.72064 1.15804 1.43934 1.43934C1.15804 1.72064 1 2.10218 1 2.5V3H0.5C0.367392 3 0.240215 3.05268 0.146447 3.14645C0.0526784 3.24021 0 3.36739 0 3.5C0 3.63261 0.0526784 3.75979 0.146447 3.85355C0.240215 3.94732 0.367392 4 0.5 4H1V8H0.5C0.367392 8 0.240215 8.05268 0.146447 8.14645C0.0526784 8.24021 0 8.36739 0 8.5C0 8.63261 0.0526784 8.75979 0.146447 8.85355C0.240215 8.94732 0.367392 9 0.5 9H1V13H0.5C0.367392 13 0.240215 13.0527 0.146447 13.1464C0.0526784 13.2402 0 13.3674 0 13.5C0 13.6326 0.0526784 13.7598 0.146447 13.8536C0.240215 13.9473 0.367392 14 0.5 14H1V14.5C1 14.8978 1.15804 15.2794 1.43934 15.5607C1.72064 15.842 2.10218 16 2.5 16H14.5C14.8978 16 15.2794 15.842 15.5607 15.5607C15.842 15.2794 16 14.8978 16 14.5V2.5C16 2.10218 15.842 1.72064 15.5607 1.43934C15.2794 1.15804 14.8978 1 14.5 1H2.5ZM8.5 4C9.69347 4 10.8381 4.47411 11.682 5.31802C12.5259 6.16193 13 7.30653 13 8.5C13 9.69347 12.5259 10.8381 11.682 11.682C10.8381 12.5259 9.69347 13 8.5 13C7.30653 13 6.16193 12.5259 5.31802 11.682C4.47411 10.8381 4 9.69347 4 8.5C4 7.30653 4.47411 6.16193 5.31802 5.31802C6.16193 4.47411 7.30653 4 8.5 4Z" fill="black"/>
</g>
<defs>
<clipPath id="clip0_104_3033">
<rect width="16" height="16" fill="white"/>
</clipPath>
</defs>
</svg>
