<svg width="16" height="16" viewBox="0 0 16 16" fill="none" xmlns="http://www.w3.org/2000/svg">
<g clip-path="url(#clip0_104_3027)">
<path d="M1 1.5C1 1.10218 1.15804 0.720644 1.43934 0.43934C1.72064 0.158035 2.10218 0 2.5 0L14.5 0C14.8978 0 15.2794 0.158035 15.5607 0.43934C15.842 0.720644 16 1.10218 16 1.5V14.5C16 14.8978 15.842 15.2794 15.5607 15.5607C15.2794 15.842 14.8978 16 14.5 16H2.5C2.10218 16 1.72064 15.842 1.43934 15.5607C1.15804 15.2794 1 14.8978 1 14.5V13H0.5C0.367392 13 0.240215 12.9473 0.146447 12.8536C0.0526784 12.7598 0 12.6326 0 12.5C0 12.3674 0.0526784 12.2402 0.146447 12.1464C0.240215 12.0527 0.367392 12 0.5 12H1V8.5H0.5C0.367392 8.5 0.240215 8.44732 0.146447 8.35355C0.0526784 8.25979 0 8.13261 0 8C0 7.86739 0.0526784 7.74021 0.146447 7.64645C0.240215 7.55268 0.367392 7.5 0.5 7.5H1V4H0.5C0.367392 4 0.240215 3.94732 0.146447 3.85355C0.0526784 3.75979 0 3.63261 0 3.5C0 3.36739 0.0526784 3.24021 0.146447 3.14645C0.240215 3.05268 0.367392 3 0.5 3H1V1.5ZM2.5 1C2.36739 1 2.24021 1.05268 2.14645 1.14645C2.05268 1.24021 2 1.36739 2 1.5V14.5C2 14.6326 2.05268 14.7598 2.14645 14.8536C2.24021 14.9473 2.36739 15 2.5 15H14.5C14.6326 15 14.7598 14.9473 14.8536 14.8536C14.9473 14.7598 15 14.6326 15 14.5V1.5C15 1.36739 14.9473 1.24021 14.8536 1.14645C14.7598 1.05268 14.6326 1 14.5 1H2.5Z" fill="black"/>
<path d="M13.5 6.00003C13.6326 6.00003 13.7598 6.05271 13.8535 6.14648C13.9473 6.24025 14 6.36742 14 6.50003V9.50003C14 9.63264 13.9473 9.75982 13.8535 9.85359C13.7598 9.94735 13.6326 10 13.5 10C13.3674 10 13.2402 9.94735 13.1464 9.85359C13.0527 9.75982 13 9.63264 13 9.50003V6.50003C13 6.36742 13.0527 6.24025 13.1464 6.14648C13.2402 6.05271 13.3674 6.00003 13.5 6.00003ZM4.82799 4.46403C4.87443 4.41747 4.92961 4.38053 4.99035 4.35532C5.0511 4.33011 5.11622 4.31714 5.18199 4.31714C5.24775 4.31714 5.31287 4.33011 5.37362 4.35532C5.43436 4.38053 5.48954 4.41747 5.53598 4.46403L6.62599 5.55403C7.13385 5.1936 7.74122 4.99998 8.36399 4.99998C8.98675 4.99998 9.59412 5.1936 10.102 5.55403L11.192 4.46403C11.2859 4.37028 11.4132 4.31766 11.5458 4.31775C11.6785 4.31785 11.8057 4.37065 11.8995 4.46453C11.9932 4.55842 12.0459 4.6857 12.0458 4.81839C12.0457 4.95107 11.9929 5.07828 11.899 5.17203L10.809 6.26203C11.549 7.29903 11.549 8.70203 10.809 9.73803L11.899 10.828C11.9929 10.9218 12.0457 11.049 12.0458 11.1817C12.0459 11.3144 11.9932 11.4416 11.8995 11.5355C11.8057 11.6294 11.6785 11.6822 11.5458 11.6823C11.4132 11.6824 11.2859 11.6298 11.192 11.536L10.102 10.446C9.59417 10.8066 8.98679 11.0003 8.36399 11.0003C7.74118 11.0003 7.1338 10.8066 6.62599 10.446L5.53598 11.536C5.4895 11.5825 5.43431 11.6194 5.37357 11.6446C5.31283 11.6697 5.24773 11.6827 5.18199 11.6827C5.11624 11.6827 5.05114 11.6697 4.9904 11.6446C4.92966 11.6194 4.87447 11.5825 4.82799 11.536C4.7815 11.4895 4.74462 11.4344 4.71946 11.3736C4.6943 11.3129 4.68135 11.2478 4.68135 11.182C4.68135 11.1163 4.6943 11.0512 4.71946 10.9904C4.74462 10.9297 4.7815 10.8745 4.82799 10.828L5.91799 9.73803C5.55756 9.23016 5.36394 8.6228 5.36394 8.00003C5.36394 7.37726 5.55756 6.7699 5.91799 6.26203L4.82799 5.17203C4.78142 5.12559 4.74448 5.07041 4.71927 5.00967C4.69407 4.94892 4.68109 4.8838 4.68109 4.81803C4.68109 4.75226 4.69407 4.68714 4.71927 4.6264C4.74448 4.56565 4.78142 4.51048 4.82799 4.46403ZM6.94999 6.58603C6.75896 6.77053 6.6066 6.99122 6.50178 7.23522C6.39696 7.47923 6.34179 7.74167 6.33948 8.00723C6.33718 8.27279 6.38778 8.53615 6.48834 8.78194C6.5889 9.02773 6.73741 9.25104 6.9252 9.43882C7.11298 9.62661 7.33628 9.77511 7.58208 9.87568C7.82787 9.97624 8.09123 10.0268 8.35679 10.0245C8.62235 10.0222 8.88479 9.96705 9.12879 9.86224C9.3728 9.75742 9.59349 9.60505 9.77799 9.41403C10.1423 9.03683 10.3439 8.53162 10.3393 8.00723C10.3348 7.48284 10.1244 6.98121 9.75362 6.6104C9.38281 6.23958 8.88118 6.02924 8.35679 6.02468C7.83239 6.02013 7.32719 6.22172 6.94999 6.58603Z" fill="black"/>
</g>
<defs>
<clipPath id="clip0_104_3027">
<rect width="16" height="16" fill="white"/>
</clipPath>
</defs>
</svg>
