<svg width="16" height="16" viewBox="0 0 16 16" fill="none" xmlns="http://www.w3.org/2000/svg">
<path d="M1 2.5C1 2.10218 1.15804 1.72064 1.43934 1.43934C1.72064 1.15804 2.10218 1 2.5 1H14.5C14.8978 1 15.2794 1.15804 15.5607 1.43934C15.842 1.72064 16 2.10218 16 2.5V14.5C16 14.8978 15.842 15.2794 15.5607 15.5607C15.2794 15.842 14.8978 16 14.5 16H2.5C2.10218 16 1.72064 15.842 1.43934 15.5607C1.15804 15.2794 1 14.8978 1 14.5V14H0.5C0.367392 14 0.240215 13.9473 0.146447 13.8536C0.0526784 13.7598 0 13.6326 0 13.5C0 13.3674 0.0526784 13.2402 0.146447 13.1464C0.240215 13.0527 0.367392 13 0.5 13H1V9H0.5C0.367392 9 0.240215 8.94732 0.146447 8.85355C0.0526784 8.75979 0 8.63261 0 8.5C0 8.36739 0.0526784 8.24021 0.146447 8.14645C0.240215 8.05268 0.367392 8 0.5 8H1V4H0.5C0.367392 4 0.240215 3.94732 0.146447 3.85355C0.0526784 3.75979 0 3.63261 0 3.5C0 3.36739 0.0526784 3.24021 0.146447 3.14645C0.240215 3.05268 0.367392 3 0.5 3H1V2.5ZM2.5 2C2.36739 2 2.24021 2.05268 2.14645 2.14645C2.05268 2.24021 2 2.36739 2 2.5V14.5C2 14.6326 2.05268 14.7598 2.14645 14.8536C2.24021 14.9473 2.36739 15 2.5 15H14.5C14.6326 15 14.7598 14.9473 14.8536 14.8536C14.9473 14.7598 15 14.6326 15 14.5V2.5C15 2.36739 14.9473 2.24021 14.8536 2.14645C14.7598 2.05268 14.6326 2 14.5 2H2.5Z" fill="black"/>
<path d="M5.035 8H6.563C6.61 7.816 6.683 7.643 6.777 7.484L5.697 6.404C5.34575 6.87193 5.11807 7.42083 5.035 8ZM6.404 5.697L7.484 6.777C7.644 6.683 7.816 6.61 8 6.563V5.035C7.42083 5.11807 6.87193 5.34575 6.404 5.697ZM9 5.035V6.563C9.184 6.61 9.357 6.683 9.516 6.777L10.596 5.697C10.1281 5.34575 9.57917 5.11807 9 5.035ZM11.303 6.404L10.223 7.484C10.317 7.644 10.39 7.816 10.437 8H11.965C11.8819 7.42084 11.6542 6.87195 11.303 6.404ZM11.965 9H10.437C10.39 9.184 10.317 9.357 10.223 9.516L11.303 10.596C11.6542 10.128 11.8819 9.57916 11.965 9ZM10.596 11.303L9.516 10.223C9.356 10.317 9.184 10.39 9 10.437V11.965C9.57916 11.8819 10.128 11.6542 10.596 11.303ZM8 11.965V10.437C7.81879 10.3903 7.64508 10.3183 7.484 10.223L6.404 11.303C6.87195 11.6542 7.42084 11.8819 8 11.965ZM5.697 10.596L6.777 9.516C6.68174 9.35493 6.60969 9.18121 6.563 9H5.035C5.12 9.593 5.354 10.138 5.697 10.596ZM4 8.5C4 7.30653 4.47411 6.16193 5.31802 5.31802C6.16193 4.47411 7.30653 4 8.5 4C9.69347 4 10.8381 4.47411 11.682 5.31802C12.5259 6.16193 13 7.30653 13 8.5C13 9.69347 12.5259 10.8381 11.682 11.682C10.8381 12.5259 9.69347 13 8.5 13C7.30653 13 6.16193 12.5259 5.31802 11.682C4.47411 10.8381 4 9.69347 4 8.5ZM8.5 7.5C8.23478 7.5 7.98043 7.60536 7.79289 7.79289C7.60536 7.98043 7.5 8.23478 7.5 8.5C7.5 8.76522 7.60536 9.01957 7.79289 9.20711C7.98043 9.39464 8.23478 9.5 8.5 9.5C8.76522 9.5 9.01957 9.39464 9.20711 9.20711C9.39464 9.01957 9.5 8.76522 9.5 8.5C9.5 8.23478 9.39464 7.98043 9.20711 7.79289C9.01957 7.60536 8.76522 7.5 8.5 7.5Z" fill="black"/>
</svg>
