<svg width="16" height="16" viewBox="0 0 16 16" fill="none" xmlns="http://www.w3.org/2000/svg">
<g clip-path="url(#clip0_104_3039)">
<path d="M2 1C1.73478 1 1.48043 1.10536 1.29289 1.29289C1.10536 1.48043 1 1.73478 1 2V14C1 14.2652 1.10536 14.5196 1.29289 14.7071C1.48043 14.8946 1.73478 15 2 15H14C14.2652 15 14.5196 14.8946 14.7071 14.7071C14.8946 14.5196 15 14.2652 15 14V2C15 1.73478 14.8946 1.48043 14.7071 1.29289C14.5196 1.10536 14.2652 1 14 1H9.5C9.23478 1 8.98043 1.10536 8.79289 1.29289C8.60536 1.48043 8.5 1.73478 8.5 2V9.293L11.146 6.646C11.2399 6.55211 11.3672 6.49937 11.5 6.49937C11.6328 6.49937 11.7601 6.55211 11.854 6.646C11.9479 6.73989 12.0006 6.86722 12.0006 7C12.0006 7.13278 11.9479 7.26011 11.854 7.354L8.354 10.854C8.30755 10.9006 8.25238 10.9375 8.19163 10.9627C8.13089 10.9879 8.06577 11.0009 8 11.0009C7.93423 11.0009 7.86911 10.9879 7.80837 10.9627C7.74762 10.9375 7.69245 10.9006 7.646 10.854L4.146 7.354C4.09951 7.30751 4.06264 7.25232 4.03748 7.19158C4.01232 7.13084 3.99937 7.06574 3.99937 7C3.99937 6.93426 4.01232 6.86916 4.03748 6.80842C4.06264 6.74768 4.09951 6.69249 4.146 6.646C4.19249 6.59951 4.24768 6.56264 4.30842 6.53748C4.36916 6.51232 4.43426 6.49937 4.5 6.49937C4.56574 6.49937 4.63084 6.51232 4.69158 6.53748C4.75232 6.56264 4.80751 6.59951 4.854 6.646L7.5 9.293V2C7.5 1.46957 7.71071 0.960859 8.08579 0.585786C8.46086 0.210714 8.96957 0 9.5 0L14 0C14.5304 0 15.0391 0.210714 15.4142 0.585786C15.7893 0.960859 16 1.46957 16 2V14C16 14.5304 15.7893 15.0391 15.4142 15.4142C15.0391 15.7893 14.5304 16 14 16H2C1.46957 16 0.960859 15.7893 0.585786 15.4142C0.210714 15.0391 0 14.5304 0 14V2C0 1.46957 0.210714 0.960859 0.585786 0.585786C0.960859 0.210714 1.46957 0 2 0L4.5 0C4.63261 0 4.75979 0.0526784 4.85355 0.146447C4.94732 0.240215 5 0.367392 5 0.5C5 0.632608 4.94732 0.759785 4.85355 0.853553C4.75979 0.947322 4.63261 1 4.5 1H2Z" fill="black"/>
</g>
<defs>
<clipPath id="clip0_104_3039">
<rect width="16" height="16" fill="white"/>
</clipPath>
</defs>
</svg>
