<svg width="16" height="16" viewBox="0 0 16 16" fill="none" xmlns="http://www.w3.org/2000/svg">
<g clip-path="url(#clip0_104_3041)">
<path d="M2 1C1.73478 1 1.48043 1.10536 1.29289 1.29289C1.10536 1.48043 1 1.73478 1 2V14C1 14.2652 1.10536 14.5196 1.29289 14.7071C1.48043 14.8946 1.73478 15 2 15H14C14.2652 15 14.5196 14.8946 14.7071 14.7071C14.8946 14.5196 15 14.2652 15 14V2C15 1.73478 14.8946 1.48043 14.7071 1.29289C14.5196 1.10536 14.2652 1 14 1H9.5C9.23478 1 8.98043 1.10536 8.79289 1.29289C8.60536 1.48043 8.5 1.73478 8.5 2V6.5H10.5C10.599 6.49982 10.6959 6.52905 10.7783 6.58398C10.8606 6.63891 10.9249 6.71706 10.9628 6.80854C11.0007 6.90001 11.0106 7.00068 10.9912 7.09779C10.9719 7.1949 10.9241 7.28407 10.854 7.354L8.354 9.854C8.30755 9.90056 8.25238 9.93751 8.19163 9.96271C8.13089 9.98792 8.06577 10.0009 8 10.0009C7.93423 10.0009 7.86911 9.98792 7.80837 9.96271C7.74762 9.93751 7.69245 9.90056 7.646 9.854L5.146 7.354C5.07589 7.28407 5.02813 7.1949 5.00876 7.09779C4.9894 7.00068 4.9993 6.90001 5.03722 6.80854C5.07513 6.71706 5.13936 6.63891 5.22175 6.58398C5.30414 6.52905 5.40098 6.49982 5.5 6.5H7.5V2C7.5 1.46957 7.71071 0.960859 8.08579 0.585786C8.46086 0.210714 8.96957 0 9.5 0L14 0C14.5304 0 15.0391 0.210714 15.4142 0.585786C15.7893 0.960859 16 1.46957 16 2V14C16 14.5304 15.7893 15.0391 15.4142 15.4142C15.0391 15.7893 14.5304 16 14 16H2C1.46957 16 0.960859 15.7893 0.585786 15.4142C0.210714 15.0391 0 14.5304 0 14V2C0 1.46957 0.210714 0.960859 0.585786 0.585786C0.960859 0.210714 1.46957 0 2 0L4.5 0C4.63261 0 4.75979 0.0526784 4.85355 0.146447C4.94732 0.240215 5 0.367392 5 0.5C5 0.632608 4.94732 0.759785 4.85355 0.853553C4.75979 0.947322 4.63261 1 4.5 1H2Z" fill="black"/>
</g>
<defs>
<clipPath id="clip0_104_3041">
<rect width="16" height="16" fill="white"/>
</clipPath>
</defs>
</svg>
