<svg width="16" height="16" viewBox="0 0 16 16" xmlns="http://www.w3.org/2000/svg" fill='currentColor'><path d="M3.5 3.5C2.886 2.616 3.426 1.538 4.358 1L8 7.226L11.642 1C12.574 1.538 13.114 2.616 12.5 3.5L8.81 8.61L10.366 11.271C10.9174 10.9902 11.5533 10.9238 12.1507 11.0847C12.7482 11.2456 13.2648 11.6223 13.6005 12.142C13.9363 12.6617 14.0674 13.2875 13.9685 13.8983C13.8696 14.5091 13.5477 15.0615 13.0651 15.4487C12.5825 15.8359 11.9734 16.0303 11.3557 15.9945C10.738 15.9586 10.1555 15.6949 9.72098 15.2544C9.28643 14.814 9.03066 14.228 9.00314 13.6099C8.97562 12.9917 9.17831 12.3853 9.572 11.908L8 9.73L6.428 11.907C6.82169 12.3843 7.02438 12.9907 6.99686 13.6089C6.96934 14.227 6.71357 14.813 6.27902 15.2534C5.84447 15.6939 5.26201 15.9576 4.64431 15.9935C4.0266 16.0293 3.41753 15.8349 2.9349 15.4477C2.45228 15.0605 2.13038 14.5081 2.03148 13.8973C1.93258 13.2865 2.06369 12.6607 2.39947 12.141C2.73524 11.6213 3.25182 11.2446 3.84929 11.0837C4.44675 10.9228 5.08265 10.9892 5.634 11.27L7.19 8.61L3.5 3.5ZM6 13.5C6 13.1022 5.84197 12.7206 5.56066 12.4393C5.27936 12.158 4.89783 12 4.5 12C4.10218 12 3.72065 12.158 3.43934 12.4393C3.15804 12.7206 3 13.1022 3 13.5C3 13.8978 3.15804 14.2794 3.43934 14.5607C3.72065 14.842 4.10218 15 4.5 15C4.89783 15 5.27936 14.842 5.56066 14.5607C5.84197 14.2794 6 13.8978 6 13.5ZM13 13.5C13 13.1022 12.842 12.7206 12.5607 12.4393C12.2794 12.158 11.8978 12 11.5 12C11.1022 12 10.7206 12.158 10.4393 12.4393C10.158 12.7206 10 13.1022 10 13.5C10 13.8978 10.158 14.2794 10.4393 14.5607C10.7206 14.842 11.1022 15 11.5 15C11.8978 15 12.2794 14.842 12.5607 14.5607C12.842 14.2794 13 13.8978 13 13.5Z"/></svg>