<svg xmlns="http://www.w3.org/2000/svg" width="24" height="24" viewBox="0 0 24 24" fill='currentColor'><g clip-path="url(#a)"><path d="m22.904 13.27-2.57-2.57-1.41 1.41 2.22 2.22-5.66 5.66L4.164 8.67l5.66-5.66 2.1 2.1 1.41-1.41-2.45-2.45a1.49 1.49 0 0 0-2.12 0l-6.36 6.36a1.49 1.49 0 0 0 0 2.12l12.02 12.02c.59.59 1.54.59 2.12 0l6.36-6.36c.59-.59.59-1.54 0-2.12m-14.78 7.71a10.49 10.49 0 0 1-5.97-8.48h-1.5c.51 6.16 5.66 11 11.95 11l.66-.03-3.81-3.82zm7.53-11.48h5c.55 0 1-.45 1-1v-4c0-.55-.45-1-1-1V3a2.5 2.5 0 0 0-5 0v.5c-.55 0-1 .45-1 1v4c0 .55.45 1 1 1m.8-6.5c0-.94.76-1.7 1.7-1.7s1.7.76 1.7 1.7v.5h-3.4z"/></g><defs><clipPath id="a"><path d="M0 0h24v24H0z"/></clipPath></defs></svg>