<svg width="16" height="16" viewBox="0 0 16 16" xmlns="http://www.w3.org/2000/svg" fill='currentColor'><g clip-path="url(#clip0_104_3049)"><path d="M0 1L1 0L4.081 2.2C4.21074 2.29262 4.31647 2.41491 4.38935 2.55668C4.46224 2.69845 4.50017 2.85559 4.5 3.015V3.085C4.4999 3.21648 4.52572 3.34669 4.576 3.46818C4.62628 3.58966 4.70002 3.70004 4.793 3.793L10.5 9.5L11.414 9.195C11.5902 9.13639 11.7792 9.12799 11.9599 9.17073C12.1405 9.21347 12.3058 9.30567 12.437 9.437L15.793 12.793C15.9805 12.9805 16.0858 13.2348 16.0858 13.5C16.0858 13.7652 15.9805 14.0195 15.793 14.207L14.207 15.793C14.0195 15.9805 13.7652 16.0858 13.5 16.0858C13.2348 16.0858 12.9805 15.9805 12.793 15.793L9.437 12.437C9.30567 12.3058 9.21347 12.1405 9.17073 11.9599C9.12799 11.7792 9.13639 11.5902 9.195 11.414L9.5 10.5L3.793 4.793C3.60551 4.60545 3.35119 4.50006 3.086 4.5H3.015C2.85576 4.50002 2.69882 4.462 2.55723 4.38912C2.41565 4.31624 2.29352 4.21061 2.201 4.081L0 1ZM11.354 10.646C11.2601 10.5521 11.1328 10.4994 11 10.4994C10.8672 10.4994 10.7399 10.5521 10.646 10.646C10.5521 10.7399 10.4994 10.8672 10.4994 11C10.4994 11.1328 10.5521 11.2601 10.646 11.354L13.646 14.354C13.7399 14.4479 13.8672 14.5006 14 14.5006C14.1328 14.5006 14.2601 14.4479 14.354 14.354C14.4479 14.2601 14.5006 14.1328 14.5006 14C14.5006 13.8672 14.4479 13.7399 14.354 13.646L11.354 10.646Z"/></g><defs><clipPath id="clip0_104_3049"><rect width="16" height="16"/></clipPath></defs></svg>