<svg width="24" height="24" viewBox="0 0 24 24" xmlns="http://www.w3.org/2000/svg" fill='currentColor'><g clip-path="url(#clip0_1616_2541)"><path d="M22.9038 13.27L20.3338 10.7L18.9238 12.11L21.1438 14.33L15.4838 19.99L4.16381 8.67L9.82381 3.01L11.9238 5.11L13.3338 3.7L10.8838 1.25C10.2938 0.66 9.34381 0.66 8.76381 1.25L2.40381 7.61C1.81381 8.2 1.81381 9.15 2.40381 9.73L14.4238 21.75C15.0138 22.34 15.9638 22.34 16.5438 21.75L22.9038 15.39C23.4938 14.8 23.4938 13.85 22.9038 13.27ZM8.12381 20.98C4.85381 19.44 2.51381 16.26 2.15381 12.5H0.653809C1.16381 18.66 6.31381 23.5 12.6038 23.5L13.2638 23.47L9.45381 19.65L8.12381 20.98ZM15.6538 9.5H20.6538C21.2038 9.5 21.6538 9.05 21.6538 8.5V4.5C21.6538 3.95 21.2038 3.5 20.6538 3.5V3C20.6538 1.62 19.5338 0.5 18.1538 0.5C16.7738 0.5 15.6538 1.62 15.6538 3V3.5C15.1038 3.5 14.6538 3.95 14.6538 4.5V8.5C14.6538 9.05 15.1038 9.5 15.6538 9.5ZM16.4538 3C16.4538 2.06 17.2138 1.3 18.1538 1.3C19.0938 1.3 19.8538 2.06 19.8538 3V3.5H16.4538V3Z"/></g><defs><clipPath id="clip0_1616_2541"><rect width="24" height="24"/></clipPath></defs></svg>