<svg width="24" height="24" viewBox="0 0 24 24" xmlns="http://www.w3.org/2000/svg" fill='currentColor'><g clip-path="url(#clip0_1616_2539)"><path d="M16.48 2.52C19.75 4.07 22.09 7.24 22.45 11H23.95C23.44 4.84 18.29 0 12 0L11.34 0.03L15.15 3.84L16.48 2.52ZM10.23 1.75C9.64 1.16 8.69 1.16 8.11 1.75L1.75 8.11C1.16 8.7 1.16 9.65 1.75 10.23L13.77 22.25C14.36 22.84 15.31 22.84 15.89 22.25L22.25 15.89C22.84 15.3 22.84 14.35 22.25 13.77L10.23 1.75ZM14.83 21.19L2.81 9.17L9.17 2.81L21.19 14.83L14.83 21.19ZM7.52 21.48C4.25 19.94 1.91 16.76 1.55 13H0.0500031C0.560003 19.16 5.71 24 12 24L12.66 23.97L8.85 20.16L7.52 21.48Z"/></g><defs><clipPath id="clip0_1616_2539"><rect width="24" height="24"/></clipPath></defs></svg>