<svg width="16" height="16" viewBox="0 0 16 16" xmlns="http://www.w3.org/2000/svg" fill='currentColor'><g clip-path="url(#clip0_104_3051)"><path d="M6.25 3.5C6.25 3.30109 6.17098 3.11032 6.03033 2.96967C5.88968 2.82902 5.69891 2.75 5.5 2.75C5.30109 2.75 5.11032 2.82902 4.96967 2.96967C4.82902 3.11032 4.75 3.30109 4.75 3.5V5.5C4.75 5.69891 4.82902 5.88968 4.96967 6.03033C5.11032 6.17098 5.30109 6.25 5.5 6.25C5.69891 6.25 5.88968 6.17098 6.03033 6.03033C6.17098 5.88968 6.25 5.69891 6.25 5.5V3.5ZM8.25 3.5C8.25 3.30109 8.17098 3.11032 8.03033 2.96967C7.88968 2.82902 7.69891 2.75 7.5 2.75C7.30109 2.75 7.11032 2.82902 6.96967 2.96967C6.82902 3.11032 6.75 3.30109 6.75 3.5V5.5C6.75 5.69891 6.82902 5.88968 6.96967 6.03033C7.11032 6.17098 7.30109 6.25 7.5 6.25C7.69891 6.25 7.88968 6.17098 8.03033 6.03033C8.17098 5.88968 8.25 5.69891 8.25 5.5V3.5ZM10.25 3.5C10.25 3.30109 10.171 3.11032 10.0303 2.96967C9.88968 2.82902 9.69891 2.75 9.5 2.75C9.30109 2.75 9.11032 2.82902 8.96967 2.96967C8.82902 3.11032 8.75 3.30109 8.75 3.5V5.5C8.75 5.69891 8.82902 5.88968 8.96967 6.03033C9.11032 6.17098 9.30109 6.25 9.5 6.25C9.69891 6.25 9.88968 6.17098 10.0303 6.03033C10.171 5.88968 10.25 5.69891 10.25 5.5V3.5ZM12.25 3.5C12.25 3.30109 12.171 3.11032 12.0303 2.96967C11.8897 2.82902 11.6989 2.75 11.5 2.75C11.3011 2.75 11.1103 2.82902 10.9697 2.96967C10.829 3.11032 10.75 3.30109 10.75 3.5V5.5C10.75 5.69891 10.829 5.88968 10.9697 6.03033C11.1103 6.17098 11.3011 6.25 11.5 6.25C11.6989 6.25 11.8897 6.17098 12.0303 6.03033C12.171 5.88968 12.25 5.69891 12.25 5.5V3.5Z"/><path fill-rule="evenodd" clip-rule="evenodd" d="M5.914 1.53971e-07H12.5C12.8978 1.53971e-07 13.2794 0.158035 13.5607 0.43934C13.842 0.720645 14 1.10218 14 1.5V14.5C14 14.8978 13.842 15.2794 13.5607 15.5607C13.2794 15.842 12.8978 16 12.5 16H3.5C3.10218 16 2.72064 15.842 2.43934 15.5607C2.15804 15.2794 2 14.8978 2 14.5V3.914C2 3.516 2.158 3.134 2.44 2.854L4.853 0.439C4.99236 0.299733 5.15778 0.189283 5.33983 0.113959C5.52188 0.0386344 5.71698 -8.9109e-05 5.914 1.53971e-07ZM13 1.5C13 1.36739 12.9473 1.24021 12.8536 1.14645C12.7598 1.05268 12.6326 1 12.5 1H5.914C5.78165 1.00003 5.65471 1.05253 5.561 1.146L3.146 3.561C3.05253 3.65471 3.00003 3.78165 3 3.914V14.5C3 14.6326 3.05268 14.7598 3.14645 14.8536C3.24021 14.9473 3.36739 15 3.5 15H12.5C12.6326 15 12.7598 14.9473 12.8536 14.8536C12.9473 14.7598 13 14.6326 13 14.5V1.5Z"/></g><defs><clipPath id="clip0_104_3051"><rect width="16" height="16"/></clipPath></defs></svg>