<svg width="16" height="16" viewBox="0 0 16 16" fill="none" xmlns="http://www.w3.org/2000/svg">
<path fill-rule="evenodd" clip-rule="evenodd" d="M12.5 0H5.914C5.51631 0.000350104 5.13504 0.158615 4.854 0.44L2.439 2.853C2.29973 2.99236 2.18928 3.15778 2.11396 3.33983C2.03863 3.52188 1.99991 3.71698 2 3.914V14.5C2 14.8978 2.15804 15.2794 2.43934 15.5607C2.72064 15.842 3.10218 16 3.5 16H12.5C12.8978 16 13.2794 15.842 13.5607 15.5607C13.842 15.2794 14 14.8978 14 14.5V1.5C14 1.10218 13.842 0.720644 13.5607 0.43934C13.2794 0.158035 12.8978 0 12.5 0V0ZM5.5 2.75C5.69891 2.75 5.88968 2.82902 6.03033 2.96967C6.17098 3.11032 6.25 3.30109 6.25 3.5V5.5C6.25 5.69891 6.17098 5.88968 6.03033 6.03033C5.88968 6.17098 5.69891 6.25 5.5 6.25C5.30109 6.25 5.11032 6.17098 4.96967 6.03033C4.82902 5.88968 4.75 5.69891 4.75 5.5V3.5C4.75 3.30109 4.82902 3.11032 4.96967 2.96967C5.11032 2.82902 5.30109 2.75 5.5 2.75ZM7.5 2.75C7.69891 2.75 7.88968 2.82902 8.03033 2.96967C8.17098 3.11032 8.25 3.30109 8.25 3.5V5.5C8.25 5.69891 8.17098 5.88968 8.03033 6.03033C7.88968 6.17098 7.69891 6.25 7.5 6.25C7.30109 6.25 7.11032 6.17098 6.96967 6.03033C6.82902 5.88968 6.75 5.69891 6.75 5.5V3.5C6.75 3.30109 6.82902 3.11032 6.96967 2.96967C7.11032 2.82902 7.30109 2.75 7.5 2.75ZM10.25 3.5C10.25 3.30109 10.171 3.11032 10.0303 2.96967C9.88968 2.82902 9.69891 2.75 9.5 2.75C9.30109 2.75 9.11032 2.82902 8.96967 2.96967C8.82902 3.11032 8.75 3.30109 8.75 3.5V5.5C8.75 5.69891 8.82902 5.88968 8.96967 6.03033C9.11032 6.17098 9.30109 6.25 9.5 6.25C9.69891 6.25 9.88968 6.17098 10.0303 6.03033C10.171 5.88968 10.25 5.69891 10.25 5.5V3.5ZM11.5 2.75C11.6989 2.75 11.8897 2.82902 12.0303 2.96967C12.171 3.11032 12.25 3.30109 12.25 3.5V5.5C12.25 5.69891 12.171 5.88968 12.0303 6.03033C11.8897 6.17098 11.6989 6.25 11.5 6.25C11.3011 6.25 11.1103 6.17098 10.9697 6.03033C10.829 5.88968 10.75 5.69891 10.75 5.5V3.5C10.75 3.30109 10.829 3.11032 10.9697 2.96967C11.1103 2.82902 11.3011 2.75 11.5 2.75Z" fill="black"/>
</svg>
