<svg width="24" height="24" viewBox="0 0 24 24" xmlns="http://www.w3.org/2000/svg" fill='currentColor'><path d="M21.4081 11.4124L12.5781 2.58244C12.2081 2.21244 11.6981 2.00244 11.1681 2.00244H3.99811C2.89811 2.00244 1.99811 2.90244 1.99811 4.00244V11.1724C1.99811 11.7024 2.20811 12.2124 2.58811 12.5824L11.4181 21.4124C12.1981 22.1924 13.4681 22.1924 14.2481 21.4124L21.4181 14.2424C22.1981 13.4624 22.1981 12.2024 21.4081 11.4124ZM6.49811 8.00244C5.66811 8.00244 4.99811 7.33244 4.99811 6.50244C4.99811 5.67244 5.66811 5.00244 6.49811 5.00244C7.32811 5.00244 7.99811 5.67244 7.99811 6.50244C7.99811 7.33244 7.32811 8.00244 6.49811 8.00244Z"/></svg>