<svg width="16" height="16" viewBox="0 0 16 16" xmlns="http://www.w3.org/2000/svg" fill='currentColor'><path d="M1.333 2.667C1.333 1.194 4.318 0 8 0C11.682 0 14.667 1.194 14.667 2.667V4C14.667 5.473 11.682 6.667 8 6.667C4.318 6.667 1.333 5.473 1.333 4V2.667Z"/><path d="M1.333 6.33398V9.33398C1.333 10.805 4.318 12 8 12C11.682 12 14.667 10.806 14.667 9.33298V6.33398C14.2167 6.65839 13.7267 6.92388 13.209 7.12398C11.81 7.68398 9.967 7.99998 8 7.99998C6.034 7.99998 4.191 7.68298 2.792 7.12398C2.2743 6.9239 1.78433 6.65841 1.334 6.33398H1.333Z"/><path d="M14.667 11.668C14.2166 11.9921 13.7266 12.2572 13.209 12.457C11.809 13.017 9.967 13.333 7.999 13.333C6.033 13.333 4.19 13.017 2.791 12.457C2.27331 12.2569 1.78334 11.9914 1.333 11.667V13.333C1.333 14.806 4.318 16 8 16C11.682 16 14.667 14.806 14.667 13.333V11.668Z"/></svg>