<svg width="24" height="24" viewBox="0 0 24 24" xmlns="http://www.w3.org/2000/svg" fill='currentColor'><path d="M17 6.59L14.59 5.5L17 4.41L18.09 2L19.18 4.41L21.59 5.5L19.18 6.59L18.09 9L17 6.59ZM20.87 12.72L20.09 11L19.31 12.72L17.59 13.5L19.31 14.28L20.09 16L20.87 14.28L22.59 13.5L20.87 12.72ZM15.83 14.37L17.77 15.84L15.27 20.17L13.03 19.23C12.83 19.36 12.61 19.49 12.39 19.6L12.09 22H7.09L6.79 19.59C6.57 19.48 6.36 19.36 6.15 19.22L3.91 20.16L1.41 15.83L3.35 14.36C3.34 14.25 3.34 14.12 3.34 14C3.34 13.88 3.34 13.75 3.35 13.63L1.41 12.16L3.91 7.83L6.15 8.77C6.35 8.64 6.57 8.51 6.79 8.4L7.09 6H12.09L12.39 8.41C12.61 8.52 12.82 8.64 13.03 8.78L15.27 7.84L17.77 12.17L15.83 13.64C15.84 13.76 15.84 13.88 15.84 14.01C15.84 14.14 15.84 14.25 15.83 14.37ZM12.59 14C12.59 12.34 11.25 11 9.59 11C7.93 11 6.59 12.34 6.59 14C6.59 15.66 7.93 17 9.59 17C11.25 17 12.59 15.66 12.59 14Z"/></svg>