<svg width="16" height="16" viewBox="0 0 16 16" fill="none" xmlns="http://www.w3.org/2000/svg">
<g clip-path="url(#clip0_104_3064)">
<path d="M13.5 0.999948C13.1022 0.999948 12.7206 1.15798 12.4393 1.43929C12.158 1.72059 12 2.10212 12 2.49995C12 2.89777 12.158 3.2793 12.4393 3.56061C12.7206 3.84191 13.1022 3.99995 13.5 3.99995C13.8978 3.99995 14.2794 3.84191 14.5607 3.56061C14.842 3.2793 15 2.89777 15 2.49995C15 2.10212 14.842 1.72059 14.5607 1.43929C14.2794 1.15798 13.8978 0.999948 13.5 0.999948ZM11 2.49995C10.9999 1.91338 11.2061 1.34546 11.5825 0.895559C11.9588 0.445654 12.4814 0.142411 13.0588 0.0388849C13.6361 -0.0646415 14.2315 0.0381412 14.7407 0.32925C15.25 0.620359 15.6406 1.08126 15.8444 1.63131C16.0481 2.18135 16.0519 2.78553 15.8552 3.33812C15.6585 3.89071 15.2737 4.35654 14.7682 4.65409C14.2627 4.95165 13.6687 5.06198 13.0901 4.9658C12.5114 4.86962 11.985 4.57304 11.603 4.12795L4.885 7.24795C5.03944 7.73739 5.03944 8.26251 4.885 8.75195L11.603 11.8719C12.0068 11.4023 12.5707 11.0993 13.1852 11.0216C13.7997 10.9439 14.4212 11.0972 14.9292 11.4516C15.4372 11.8061 15.7955 12.3365 15.9347 12.9401C16.0739 13.5436 15.984 14.1774 15.6826 14.7185C15.3811 15.2596 14.8895 15.6696 14.3031 15.8689C13.7166 16.0682 13.077 16.0427 12.5083 15.7974C11.9395 15.552 11.4821 15.1042 11.2247 14.5408C10.9673 13.9774 10.9282 13.3385 11.115 12.7479L4.397 9.62795C4.06443 10.0155 3.62115 10.2919 3.12678 10.42C2.63241 10.5481 2.11066 10.5217 1.63174 10.3444C1.15281 10.1671 0.739674 9.84738 0.447906 9.42824C0.156137 9.00909 -0.000267029 8.51064 -0.000267029 7.99995C-0.000267029 7.48925 0.156137 6.99081 0.447906 6.57166C0.739674 6.15252 1.15281 5.83278 1.63174 5.65547C2.11066 5.47816 2.63241 5.45177 3.12678 5.57986C3.62115 5.70795 4.06443 5.98438 4.397 6.37195L11.115 3.25195C11.0385 3.00862 10.9997 2.75501 11 2.49995ZM2.5 6.49995C2.10217 6.49995 1.72064 6.65798 1.43934 6.93929C1.15803 7.22059 0.999998 7.60212 0.999998 7.99995C0.999998 8.39777 1.15803 8.7793 1.43934 9.06061C1.72064 9.34191 2.10217 9.49995 2.5 9.49995C2.89782 9.49995 3.27935 9.34191 3.56066 9.06061C3.84196 8.7793 4 8.39777 4 7.99995C4 7.60212 3.84196 7.22059 3.56066 6.93929C3.27935 6.65798 2.89782 6.49995 2.5 6.49995ZM13.5 11.9999C13.1022 11.9999 12.7206 12.158 12.4393 12.4393C12.158 12.7206 12 13.1021 12 13.4999C12 13.8978 12.158 14.2793 12.4393 14.5606C12.7206 14.8419 13.1022 14.9999 13.5 14.9999C13.8978 14.9999 14.2794 14.8419 14.5607 14.5606C14.842 14.2793 15 13.8978 15 13.4999C15 13.1021 14.842 12.7206 14.5607 12.4393C14.2794 12.158 13.8978 11.9999 13.5 11.9999Z" fill="black"/>
</g>
<defs>
<clipPath id="clip0_104_3064">
<rect width="16" height="16" fill="white"/>
</clipPath>
</defs>
</svg>
