<svg width="16" height="16" viewBox="0 0 16 16" fill="none" xmlns="http://www.w3.org/2000/svg">
<g clip-path="url(#clip0_104_3066)">
<path d="M11 2.49995C10.9999 1.91338 11.2061 1.34546 11.5825 0.895559C11.9588 0.445654 12.4814 0.142411 13.0588 0.0388849C13.6361 -0.0646415 14.2315 0.0381412 14.7407 0.32925C15.25 0.620359 15.6406 1.08126 15.8444 1.63131C16.0481 2.18135 16.0519 2.78553 15.8552 3.33812C15.6585 3.89071 15.2737 4.35654 14.7682 4.65409C14.2627 4.95165 13.6687 5.06198 13.0901 4.9658C12.5114 4.86962 11.9851 4.57304 11.603 4.12795L4.88501 7.24795C5.03945 7.73739 5.03945 8.26251 4.88501 8.75195L11.603 11.8719C12.0068 11.4023 12.5707 11.0993 13.1852 11.0216C13.7997 10.9439 14.4212 11.0972 14.9292 11.4516C15.4372 11.8061 15.7955 12.3365 15.9347 12.9401C16.0739 13.5436 15.984 14.1774 15.6826 14.7185C15.3812 15.2596 14.8896 15.6696 14.3031 15.8689C13.7166 16.0682 13.077 16.0427 12.5083 15.7974C11.9395 15.552 11.4821 15.1042 11.2247 14.5408C10.9673 13.9774 10.9282 13.3385 11.115 12.7479L4.39701 9.62795C4.06444 10.0155 3.62116 10.2919 3.12678 10.42C2.63241 10.5481 2.11067 10.5217 1.63174 10.3444C1.15282 10.1671 0.739682 9.84738 0.447913 9.42824C0.156145 9.00909 -0.000259399 8.51064 -0.000259399 7.99995C-0.000259399 7.48925 0.156145 6.99081 0.447913 6.57166C0.739682 6.15252 1.15282 5.83278 1.63174 5.65547C2.11067 5.47816 2.63241 5.45177 3.12678 5.57986C3.62116 5.70795 4.06444 5.98438 4.39701 6.37195L11.115 3.25195C11.0385 3.00862 10.9998 2.75501 11 2.49995Z" fill="black"/>
</g>
<defs>
<clipPath id="clip0_104_3066">
<rect width="16" height="16" fill="white"/>
</clipPath>
</defs>
</svg>
