<svg width="16" height="16" viewBox="0 0 16 16" xmlns="http://www.w3.org/2000/svg" fill='currentColor'><path d="M8.00001 0C7.31001 0 6.15701 0.265 5.07201 0.56C3.96201 0.86 2.84301 1.215 2.18501 1.43C1.9099 1.52085 1.666 1.68747 1.48132 1.9107C1.29665 2.13394 1.17869 2.40474 1.14101 2.692C0.545005 7.169 1.92801 10.487 3.60601 12.682C4.31759 13.621 5.16603 14.4478 6.12301 15.135C6.50901 15.408 6.86701 15.617 7.17101 15.76C7.45101 15.892 7.75201 16 8.00001 16C8.24801 16 8.54801 15.892 8.82901 15.76C9.19549 15.5819 9.5461 15.3728 9.87701 15.135C10.834 14.4479 11.6824 13.621 12.394 12.682C14.072 10.487 15.455 7.169 14.859 2.692C14.8214 2.4046 14.7035 2.13364 14.5188 1.91023C14.3341 1.68683 14.0902 1.52003 13.815 1.429C12.8598 1.11581 11.8972 0.825729 10.928 0.559C9.84301 0.266 8.69001 0 8.00001 0ZM6.85401 5.146L8.00001 6.293L9.14601 5.146C9.23989 5.05211 9.36723 4.99937 9.50001 4.99937C9.63278 4.99937 9.76012 5.05211 9.85401 5.146C9.94789 5.23989 10.0006 5.36722 10.0006 5.5C10.0006 5.63278 9.94789 5.76011 9.85401 5.854L8.70701 7L9.85401 8.146C9.94789 8.23989 10.0006 8.36722 10.0006 8.5C10.0006 8.63278 9.94789 8.76011 9.85401 8.854C9.76012 8.94789 9.63278 9.00063 9.50001 9.00063C9.36723 9.00063 9.23989 8.94789 9.14601 8.854L8.00001 7.707L6.85401 8.854C6.80752 8.90049 6.75233 8.93736 6.69159 8.96252C6.63085 8.98768 6.56575 9.00063 6.50001 9.00063C6.43426 9.00063 6.36916 8.98768 6.30842 8.96252C6.24768 8.93736 6.19249 8.90049 6.14601 8.854C6.09952 8.80751 6.06264 8.75232 6.03748 8.69158C6.01232 8.63084 5.99937 8.56574 5.99937 8.5C5.99937 8.43426 6.01232 8.36916 6.03748 8.30842C6.06264 8.24768 6.09952 8.19249 6.14601 8.146L7.29301 7L6.14601 5.854C6.09952 5.80751 6.06264 5.75232 6.03748 5.69158C6.01232 5.63084 5.99937 5.56574 5.99937 5.5C5.99937 5.43426 6.01232 5.36916 6.03748 5.30842C6.06264 5.24768 6.09952 5.19249 6.14601 5.146C6.19249 5.09951 6.24768 5.06264 6.30842 5.03748C6.36916 5.01232 6.43426 4.99937 6.50001 4.99937C6.56575 4.99937 6.63085 5.01232 6.69159 5.03748C6.75233 5.06264 6.80752 5.09951 6.85401 5.146Z"/></svg>