<svg width="16" height="16" viewBox="0 0 16 16" xmlns="http://www.w3.org/2000/svg" fill='currentColor'><path d="M5.07201 0.56C6.15701 0.265 7.31001 0 8.00001 0C8.69001 0 9.84301 0.265 10.928 0.56C12.038 0.86 13.157 1.215 13.815 1.43C14.0901 1.52085 14.334 1.68747 14.5187 1.9107C14.7034 2.13394 14.8213 2.40474 14.859 2.692C15.455 7.169 14.072 10.487 12.394 12.682C11.6824 13.621 10.834 14.4479 9.87701 15.135C9.5461 15.3728 9.19549 15.5819 8.82901 15.76C8.54901 15.892 8.24801 16 8.00001 16C7.75201 16 7.45201 15.892 7.17101 15.76C6.80452 15.5819 6.45391 15.3728 6.12301 15.135C5.16603 14.4478 4.31759 13.621 3.60601 12.682C1.92801 10.487 0.545005 7.169 1.14101 2.692C1.17869 2.40474 1.29665 2.13394 1.48132 1.9107C1.666 1.68747 1.9099 1.52085 2.18501 1.43C3.1402 1.11681 4.10281 0.826725 5.07201 0.56Z"/></svg>