<svg width="16" height="16" viewBox="0 0 16 16" fill="none" xmlns="http://www.w3.org/2000/svg">
<path fill-rule="evenodd" clip-rule="evenodd" d="M1.093 3.093C0.627996 7.368 1.978 10.553 3.606 12.682C4.31758 13.621 5.16602 14.4478 6.123 15.135C6.509 15.408 6.867 15.617 7.171 15.76C7.451 15.892 7.752 16 8 16C8.248 16 8.548 15.892 8.829 15.76C9.19548 15.5819 9.54609 15.3728 9.877 15.135C10.5051 14.687 11.0858 14.1761 11.61 13.61L10.865 12.865C10.388 13.3818 9.85927 13.8483 9.287 14.257C8.941 14.501 8.635 14.677 8.394 14.79C8.274 14.847 8.176 14.885 8.101 14.908C8.06819 14.9195 8.03438 14.9279 8 14.933C7.96602 14.9275 7.93257 14.9191 7.9 14.908C7.79945 14.8753 7.70123 14.8359 7.606 14.79C7.29379 14.6379 6.99506 14.4596 6.713 14.257C5.8434 13.6311 5.07251 12.8784 4.426 12.024C3.053 10.228 1.879 7.594 2.06 4.06L1.093 3.093ZM3.98 1.98L3.128 1.128C3.77269 0.927211 4.42078 0.737516 5.072 0.559C6.157 0.266 7.31 0 8 0C8.69 0 9.843 0.265 10.928 0.56C12.038 0.86 13.157 1.215 13.815 1.43C14.0901 1.52085 14.334 1.68747 14.5187 1.9107C14.7034 2.13394 14.8213 2.40474 14.859 2.692C15.342 6.318 14.527 9.183 13.308 11.308L12.538 10.538C13.58 8.623 14.258 6.069 13.828 2.836C13.8153 2.74652 13.7776 2.66244 13.7192 2.59345C13.6608 2.52446 13.5841 2.47335 13.498 2.446C12.848 2.233 11.748 1.886 10.662 1.591C9.552 1.29 8.531 1.067 8 1.067C7.47 1.067 6.448 1.29 5.338 1.591C4.88384 1.71457 4.43146 1.84458 3.981 1.981L3.98 1.98ZM13.646 14.354L0.645996 1.354L1.354 0.646L14.354 13.646L13.647 14.353L13.646 14.354Z" fill="black"/>
</svg>
