<svg width="16" height="16" viewBox="0 0 16 16" xmlns="http://www.w3.org/2000/svg" fill='currentColor'><path fill-rule="evenodd" clip-rule="evenodd" d="M1.093 3.093C0.627996 7.368 1.978 10.553 3.606 12.682C4.31758 13.621 5.16602 14.4478 6.123 15.135C6.509 15.408 6.867 15.617 7.171 15.76C7.451 15.892 7.752 16 8 16C8.248 16 8.548 15.892 8.829 15.76C9.19548 15.5819 9.54609 15.3728 9.877 15.135C10.5051 14.687 11.0858 14.1761 11.61 13.61L1.093 3.093ZM13.308 11.308L3.128 1.128C3.77316 0.927976 4.42158 0.738617 5.073 0.56C6.157 0.265 7.31 0 8 0C8.69 0 9.843 0.265 10.928 0.56C12.038 0.86 13.157 1.215 13.815 1.43C14.0901 1.52085 14.334 1.68747 14.5187 1.9107C14.7034 2.13394 14.8213 2.40474 14.859 2.692C15.342 6.318 14.527 9.183 13.308 11.308ZM13.646 14.354L0.645996 1.354L1.354 0.646L14.354 13.646L13.647 14.353L13.646 14.354Z"/></svg>