<svg width="16" height="16" viewBox="0 0 16 16" xmlns="http://www.w3.org/2000/svg" fill='currentColor'><path fill-rule="evenodd" clip-rule="evenodd" d="M8.00001 0C7.31001 0 6.15701 0.265 5.07201 0.56C3.96201 0.86 2.84301 1.215 2.18501 1.43C1.9099 1.52085 1.666 1.68747 1.48132 1.9107C1.29665 2.13394 1.17869 2.40474 1.14101 2.692C0.545005 7.169 1.92801 10.487 3.60601 12.682C4.31759 13.621 5.16603 14.4478 6.12301 15.135C6.50901 15.408 6.86701 15.617 7.17101 15.76C7.45101 15.892 7.75201 16 8.00001 16C8.24801 16 8.54801 15.892 8.82901 15.76C9.19549 15.5819 9.5461 15.3728 9.87701 15.135C10.834 14.4479 11.6824 13.621 12.394 12.682C14.072 10.487 15.455 7.169 14.859 2.692C14.8214 2.4046 14.7035 2.13364 14.5188 1.91023C14.3341 1.68683 14.0902 1.52003 13.815 1.429C12.8598 1.11581 11.8972 0.825729 10.928 0.559C9.84301 0.266 8.69001 0 8.00001 0ZM10.146 5.146C10.2399 5.05211 10.3672 4.99937 10.5 4.99937C10.6328 4.99937 10.7601 5.05211 10.854 5.146C10.9479 5.23989 11.0006 5.36722 11.0006 5.5C11.0006 5.63278 10.9479 5.76011 10.854 5.854L7.85401 8.854C7.80756 8.90056 7.75238 8.93751 7.69164 8.96271C7.63089 8.98792 7.56577 9.00089 7.50001 9.00089C7.43424 9.00089 7.36912 8.98792 7.30837 8.96271C7.24763 8.93751 7.19245 8.90056 7.14601 8.854L5.64601 7.354C5.59952 7.30751 5.56264 7.25232 5.53748 7.19158C5.51232 7.13084 5.49937 7.06574 5.49937 7C5.49937 6.93426 5.51232 6.86916 5.53748 6.80842C5.56264 6.74768 5.59952 6.69249 5.64601 6.646C5.69249 6.59951 5.74768 6.56264 5.80842 6.53748C5.86916 6.51232 5.93426 6.49937 6.00001 6.49937C6.06575 6.49937 6.13085 6.51232 6.19159 6.53748C6.25233 6.56264 6.30752 6.59951 6.35401 6.646L7.50001 7.793L10.146 5.146Z"/></svg>