<svg width="16" height="16" viewBox="0 0 16 16" fill="none" xmlns="http://www.w3.org/2000/svg">
<path fill-rule="evenodd" clip-rule="evenodd" d="M8.00001 0C7.31001 0 6.15701 0.265 5.07201 0.56C3.96201 0.86 2.84301 1.215 2.18501 1.43C1.9099 1.52085 1.666 1.68747 1.48132 1.9107C1.29665 2.13394 1.17869 2.40474 1.14101 2.692C0.545005 7.169 1.92801 10.487 3.60601 12.682C4.31759 13.621 5.16603 14.4478 6.12301 15.135C6.50901 15.408 6.86701 15.617 7.17101 15.76C7.45101 15.892 7.75201 16 8.00001 16C8.24801 16 8.54801 15.892 8.82901 15.76C9.19549 15.5819 9.5461 15.3728 9.87701 15.135C10.834 14.4479 11.6824 13.621 12.394 12.682C14.072 10.487 15.455 7.169 14.859 2.692C14.8214 2.4046 14.7035 2.13364 14.5188 1.91023C14.3341 1.68683 14.0902 1.52003 13.815 1.429C12.8598 1.11581 11.8972 0.825729 10.928 0.559C9.84301 0.266 8.69001 0 8.00001 0ZM7.45001 8.502L7.10001 4.995C7.08669 4.86884 7.10004 4.74129 7.13921 4.62063C7.17837 4.49996 7.24246 4.38888 7.32732 4.29459C7.41219 4.20029 7.51593 4.12489 7.63182 4.07328C7.7477 4.02167 7.87315 3.995 8.00001 3.995C8.12686 3.995 8.25231 4.02167 8.36819 4.07328C8.48408 4.12489 8.58782 4.20029 8.67269 4.29459C8.75755 4.38888 8.82164 4.49996 8.86081 4.62063C8.89997 4.74129 8.91332 4.86884 8.9 4.995L8.55001 8.502C8.53825 8.63977 8.47521 8.76811 8.37336 8.86164C8.27151 8.95516 8.13828 9.00705 8.00001 9.00705C7.86173 9.00705 7.7285 8.95516 7.62665 8.86164C7.5248 8.76811 7.46176 8.63977 7.45001 8.502ZM8.00201 12C7.73679 12 7.48243 11.8946 7.2949 11.7071C7.10736 11.5196 7.00201 11.2652 7.00201 11C7.00201 10.7348 7.10736 10.4804 7.2949 10.2929C7.48243 10.1054 7.73679 10 8.00201 10C8.26722 10 8.52158 10.1054 8.70911 10.2929C8.89665 10.4804 9.00201 10.7348 9.00201 11C9.00201 11.2652 8.89665 11.5196 8.70911 11.7071C8.52158 11.8946 8.26722 12 8.00201 12Z" fill="black"/>
</svg>
