<svg width="16" height="16" viewBox="0 0 16 16" xmlns="http://www.w3.org/2000/svg" fill='currentColor'><path d="M7.27 2.04702C7.36354 1.94711 7.4766 1.86746 7.60216 1.81301C7.72773 1.75856 7.86314 1.73047 8 1.73047C8.13687 1.73047 8.27228 1.75856 8.39784 1.81301C8.52341 1.86746 8.63646 1.94711 8.73 2.04702L15.075 8.81702C15.675 9.45502 15.221 10.5 14.345 10.5H11.5V13.5C11.5 13.7652 11.3946 14.0196 11.2071 14.2071C11.0196 14.3947 10.7652 14.5 10.5 14.5H5.5C5.23479 14.5 4.98043 14.3947 4.7929 14.2071C4.60536 14.0196 4.5 13.7652 4.5 13.5V10.5H1.654C0.780004 10.5 0.326004 9.45502 0.924004 8.81602L7.27 2.04702Z"/></svg>