<svg width="16" height="16" viewBox="0 0 16 16" fill="none" xmlns="http://www.w3.org/2000/svg">
<g clip-path="url(#clip0_104_3112)">
<path d="M2.97 1.35C3.06389 1.24023 3.18044 1.15211 3.31163 1.09169C3.44283 1.03127 3.58556 0.99999 3.73 1H12.27C12.4144 0.99999 12.5572 1.03127 12.6884 1.09169C12.8196 1.15211 12.9361 1.24023 13.03 1.35L15.639 4.394C15.8719 4.66583 16 5.01201 16 5.37V5.625C16.0001 6.11998 15.8455 6.6026 15.5578 7.00542C15.2702 7.40824 14.8639 7.71113 14.3957 7.87174C13.9275 8.03236 13.4208 8.04268 12.9465 7.90127C12.4721 7.75986 12.0538 7.47377 11.75 7.083C11.5281 7.36877 11.2438 7.59998 10.9188 7.75892C10.5938 7.91786 10.2368 8.00033 9.875 8C9.51321 8.0004 9.15612 7.91797 8.83112 7.75902C8.50611 7.60007 8.22181 7.36882 8 7.083C7.77819 7.36882 7.49389 7.60007 7.16888 7.75902C6.84388 7.91797 6.48679 8.0004 6.125 8C5.76321 8.0004 5.40612 7.91797 5.08112 7.75902C4.75611 7.60007 4.47181 7.36882 4.25 7.083C3.94619 7.47377 3.52788 7.75986 3.05354 7.90127C2.57919 8.04268 2.07252 8.03236 1.60432 7.87174C1.13613 7.71113 0.729823 7.40824 0.442182 7.00542C0.154542 6.6026 -5.45986e-05 6.11998 1.44645e-08 5.625V5.37C1.26075e-05 5.01201 0.128057 4.66583 0.361 4.394L2.971 1.349L2.97 1.35ZM4.75 5.625C4.75 5.98967 4.89487 6.33941 5.15273 6.59727C5.41059 6.85513 5.76033 7 6.125 7C6.48967 7 6.83941 6.85513 7.09727 6.59727C7.35513 6.33941 7.5 5.98967 7.5 5.625C7.5 5.49239 7.55268 5.36521 7.64645 5.27145C7.74021 5.17768 7.86739 5.125 8 5.125C8.13261 5.125 8.25979 5.17768 8.35355 5.27145C8.44732 5.36521 8.5 5.49239 8.5 5.625C8.5 5.98967 8.64487 6.33941 8.90273 6.59727C9.16059 6.85513 9.51033 7 9.875 7C10.2397 7 10.5894 6.85513 10.8473 6.59727C11.1051 6.33941 11.25 5.98967 11.25 5.625C11.25 5.49239 11.3027 5.36521 11.3964 5.27145C11.4902 5.17768 11.6174 5.125 11.75 5.125C11.8826 5.125 12.0098 5.17768 12.1036 5.27145C12.1973 5.36521 12.25 5.49239 12.25 5.625C12.25 5.98967 12.3949 6.33941 12.6527 6.59727C12.9106 6.85513 13.2603 7 13.625 7C13.9897 7 14.3394 6.85513 14.5973 6.59727C14.8551 6.33941 15 5.98967 15 5.625V5.37C15 5.25083 14.9575 5.13557 14.88 5.045L12.27 2H3.73L1.12 5.045C1.04255 5.13557 0.999991 5.25083 1 5.37V5.625C1 5.98967 1.14487 6.33941 1.40273 6.59727C1.66059 6.85513 2.01033 7 2.375 7C2.73967 7 3.08941 6.85513 3.34727 6.59727C3.60513 6.33941 3.75 5.98967 3.75 5.625C3.75 5.49239 3.80268 5.36521 3.89645 5.27145C3.99021 5.17768 4.11739 5.125 4.25 5.125C4.38261 5.125 4.50979 5.17768 4.60355 5.27145C4.69732 5.36521 4.75 5.49239 4.75 5.625ZM1.5 8.5C1.63261 8.5 1.75979 8.55268 1.85355 8.64645C1.94732 8.74021 2 8.86739 2 9V15H3V10C3 9.73478 3.10536 9.48043 3.29289 9.29289C3.48043 9.10536 3.73478 9 4 9H7C7.26522 9 7.51957 9.10536 7.70711 9.29289C7.89464 9.48043 8 9.73478 8 10V15H14V9C14 8.86739 14.0527 8.74021 14.1464 8.64645C14.2402 8.55268 14.3674 8.5 14.5 8.5C14.6326 8.5 14.7598 8.55268 14.8536 8.64645C14.9473 8.74021 15 8.86739 15 9V15H15.5C15.6326 15 15.7598 15.0527 15.8536 15.1464C15.9473 15.2402 16 15.3674 16 15.5C16 15.6326 15.9473 15.7598 15.8536 15.8536C15.7598 15.9473 15.6326 16 15.5 16H0.5C0.367392 16 0.240215 15.9473 0.146447 15.8536C0.0526784 15.7598 1.44645e-08 15.6326 1.44645e-08 15.5C1.44645e-08 15.3674 0.0526784 15.2402 0.146447 15.1464C0.240215 15.0527 0.367392 15 0.5 15H1V9C1 8.86739 1.05268 8.74021 1.14645 8.64645C1.24021 8.55268 1.36739 8.5 1.5 8.5ZM4 15H7V10H4V15ZM9 10C9 9.73478 9.10536 9.48043 9.29289 9.29289C9.48043 9.10536 9.73478 9 10 9H12C12.2652 9 12.5196 9.10536 12.7071 9.29289C12.8946 9.48043 13 9.73478 13 10V13C13 13.2652 12.8946 13.5196 12.7071 13.7071C12.5196 13.8946 12.2652 14 12 14H10C9.73478 14 9.48043 13.8946 9.29289 13.7071C9.10536 13.5196 9 13.2652 9 13V10ZM12 10H10V13H12V10Z" fill="black"/>
</g>
<defs>
<clipPath id="clip0_104_3112">
<rect width="16" height="16" fill="white"/>
</clipPath>
</defs>
</svg>
