<svg width="16" height="16" viewBox="0 0 16 16" xmlns="http://www.w3.org/2000/svg" fill='currentColor'><path fill-rule="evenodd" clip-rule="evenodd" d="M0 3.5C0 3.36739 0.0526784 3.24021 0.146447 3.14645C0.240215 3.05268 0.367392 3 0.5 3H1C3.202 3 4.827 4.24 5.874 5.418C6.364 5.97 6.739 6.52 7 6.95C7.26 6.52 7.636 5.97 8.126 5.418C9.173 4.24 10.798 3 13 3V4C11.202 4 9.827 5.01 8.874 6.082C8.3587 6.66567 7.91613 7.30971 7.556 8C7.91582 8.69024 8.35805 9.33428 8.873 9.918C9.828 10.99 11.204 12 13 12V13C10.798 13 9.173 11.76 8.126 10.582C7.70551 10.1061 7.32866 9.59338 7 9.05C6.74 9.48 6.364 10.03 5.874 10.582C4.827 11.76 3.202 13 1 13H0.5C0.367392 13 0.240215 12.9473 0.146447 12.8536C0.0526784 12.7598 0 12.6326 0 12.5C0 12.3674 0.0526784 12.2402 0.146447 12.1464C0.240215 12.0527 0.367392 12 0.5 12H1C2.798 12 4.173 10.99 5.126 9.918C5.6413 9.33433 6.08387 8.69029 6.444 8C6.08418 7.30976 5.64195 6.66572 5.127 6.082C4.172 5.01 2.796 4 1 4H0.5C0.367392 4 0.240215 3.94732 0.146447 3.85355C0.0526784 3.75979 0 3.63261 0 3.5Z"/><path d="M13 5.46596V1.53396C13 1.48646 13.0136 1.43995 13.0391 1.39987C13.0646 1.35979 13.101 1.3278 13.144 1.30765C13.187 1.28751 13.2349 1.28004 13.282 1.28611C13.3291 1.29219 13.3735 1.31156 13.41 1.34196L15.77 3.30796C15.89 3.40796 15.89 3.59196 15.77 3.69196L13.41 5.65796C13.3735 5.68837 13.3291 5.70774 13.282 5.71382C13.2349 5.71989 13.187 5.71242 13.144 5.69228C13.101 5.67213 13.0646 5.64014 13.0391 5.60006C13.0136 5.55998 13 5.51347 13 5.46596ZM13 14.466V10.534C13 10.4865 13.0136 10.4399 13.0391 10.3999C13.0646 10.3598 13.101 10.3278 13.144 10.3077C13.187 10.2875 13.2349 10.28 13.282 10.2861C13.3291 10.2922 13.3735 10.3116 13.41 10.342L15.77 12.308C15.89 12.408 15.89 12.592 15.77 12.692L13.41 14.658C13.3735 14.6884 13.3291 14.7077 13.282 14.7138C13.2349 14.7199 13.187 14.7124 13.144 14.6923C13.101 14.6721 13.0646 14.6401 13.0391 14.6001C13.0136 14.56 13 14.5135 13 14.466Z"/></svg>