<svg width="16" height="16" viewBox="0 0 16 16" fill="none" xmlns="http://www.w3.org/2000/svg">
<g clip-path="url(#clip0_104_3123)">
<path d="M7 1.41394V1.99994H2C1.73478 1.99994 1.48043 2.1053 1.29289 2.29283C1.10536 2.48037 1 2.73472 1 2.99994V4.99994C1 5.26516 1.10536 5.51951 1.29289 5.70705C1.48043 5.89458 1.73478 5.99994 2 5.99994H7V6.99994H2.5C2.34475 6.99994 2.19164 7.03609 2.05279 7.10551C1.91393 7.17494 1.79315 7.27574 1.7 7.39994L0.725 8.69994C0.660089 8.78649 0.625 8.89176 0.625 8.99994C0.625 9.10813 0.660089 9.21339 0.725 9.29994L1.7 10.5999C1.79315 10.7241 1.91393 10.8249 2.05279 10.8944C2.19164 10.9638 2.34475 10.9999 2.5 10.9999H7V15.9999H9V10.9999H14C14.2652 10.9999 14.5196 10.8946 14.7071 10.707C14.8946 10.5195 15 10.2652 15 9.99994V7.99994C15 7.73472 14.8946 7.48037 14.7071 7.29283C14.5196 7.1053 14.2652 6.99994 14 6.99994H9V5.99994H13.5C13.6552 5.99994 13.8084 5.9638 13.9472 5.89437C14.0861 5.82494 14.2069 5.72414 14.3 5.59994L15.275 4.29994C15.3399 4.21339 15.375 4.10813 15.375 3.99994C15.375 3.89176 15.3399 3.78649 15.275 3.69994L14.3 2.39994C14.2069 2.27574 14.0861 2.17494 13.9472 2.10551C13.8084 2.03609 13.6552 1.99994 13.5 1.99994H9V1.41394C9 1.14872 8.89464 0.89437 8.70711 0.706834C8.51957 0.519297 8.26522 0.41394 8 0.41394C7.73478 0.41394 7.48043 0.519297 7.29289 0.706834C7.10536 0.89437 7 1.14872 7 1.41394ZM13.5 2.99994L14.25 3.99994L13.5 4.99994H2V2.99994H13.5ZM14 7.99994V9.99994H2.5L1.75 8.99994L2.5 7.99994H14Z" fill="black"/>
</g>
<defs>
<clipPath id="clip0_104_3123">
<rect width="16" height="16" fill="white"/>
</clipPath>
</defs>
</svg>
