<svg width="16" height="16" viewBox="0 0 16 16" xmlns="http://www.w3.org/2000/svg" fill='currentColor'><g clip-path="url(#clip0_104_3125)"><path d="M7.293 0.707094C7.10545 0.894586 7.00006 1.1489 7 1.41409V2.00009H2C1.73478 2.00009 1.48043 2.10545 1.29289 2.29299C1.10536 2.48052 1 2.73488 1 3.00009V5.00009C1 5.26531 1.10536 5.51966 1.29289 5.7072C1.48043 5.89474 1.73478 6.00009 2 6.00009H7V7.00009H2.5C2.34475 7.00009 2.19164 7.03624 2.05279 7.10567C1.91393 7.17509 1.79315 7.2759 1.7 7.40009L0.725 8.70009C0.660089 8.78664 0.625 8.89191 0.625 9.00009C0.625 9.10828 0.660089 9.21355 0.725 9.30009L1.7 10.6001C1.79315 10.7243 1.91393 10.8251 2.05279 10.8945C2.19164 10.9639 2.34475 11.0001 2.5 11.0001H7V16.0001H9V11.0001H14C14.2652 11.0001 14.5196 10.8947 14.7071 10.7072C14.8946 10.5197 15 10.2653 15 10.0001V8.00009C15 7.73488 14.8946 7.48052 14.7071 7.29299C14.5196 7.10545 14.2652 7.00009 14 7.00009H9V6.00009H13.5C13.6552 6.00009 13.8084 5.96395 13.9472 5.89452C14.0861 5.82509 14.2069 5.72429 14.3 5.60009L15.275 4.30009C15.3399 4.21355 15.375 4.10828 15.375 4.00009C15.375 3.89191 15.3399 3.78664 15.275 3.70009L14.3 2.40009C14.2069 2.2759 14.0861 2.17509 13.9472 2.10567C13.8084 2.03624 13.6552 2.00009 13.5 2.00009H9V1.41409C8.99996 1.21634 8.94129 1.02305 8.8314 0.858635C8.72152 0.694225 8.56535 0.566086 8.38265 0.490416C8.19995 0.414746 7.99892 0.394943 7.80497 0.43351C7.61102 0.472078 7.43285 0.567284 7.293 0.707094Z"/></g><defs><clipPath id="clip0_104_3125"><rect width="16" height="16"/></clipPath></defs></svg>