<svg width="16" height="16" viewBox="0 0 16 16" xmlns="http://www.w3.org/2000/svg" fill='currentColor'><path d="M7.293 0.707094C7.10545 0.894586 7.00006 1.1489 7 1.41409V4.00009H2C1.73478 4.00009 1.48043 4.10545 1.29289 4.29299C1.10536 4.48052 1 4.73488 1 5.00009V9.00009C1 9.26531 1.10536 9.51966 1.29289 9.7072C1.48043 9.89474 1.73478 10.0001 2 10.0001H7V16.0001H9V10.0001H12.532C12.6786 10 12.8233 9.96776 12.9561 9.90555C13.0888 9.84334 13.2062 9.75272 13.3 9.64009L15.233 7.32009C15.3078 7.23025 15.3488 7.11702 15.3488 7.00009C15.3488 6.88317 15.3078 6.76994 15.233 6.68009L13.3 4.36009C13.2062 4.24747 13.0888 4.15685 12.9561 4.09463C12.8233 4.03242 12.6786 4.00015 12.532 4.00009H9V1.41409C8.99996 1.21634 8.94129 1.02305 8.8314 0.858635C8.72152 0.694225 8.56535 0.566086 8.38265 0.490416C8.19995 0.414746 7.99892 0.394943 7.80497 0.43351C7.61102 0.472078 7.43285 0.567284 7.293 0.707094Z"/></svg>