<svg width="16" height="16" viewBox="0 0 16 16" xmlns="http://www.w3.org/2000/svg" fill='currentColor'><g clip-path="url(#clip0_104_3121)"><path d="M7 1.41406V4.00006H2C1.73478 4.00006 1.48043 4.10542 1.29289 4.29296C1.10536 4.48049 1 4.73485 1 5.00006V9.00006C1 9.26528 1.10536 9.51963 1.29289 9.70717C1.48043 9.89471 1.73478 10.0001 2 10.0001H7V16.0001H9V10.0001H12.532C12.6786 10 12.8233 9.96773 12.9561 9.90552C13.0888 9.84331 13.2062 9.75269 13.3 9.64006L15.233 7.32006C15.3078 7.23022 15.3488 7.11699 15.3488 7.00006C15.3488 6.88314 15.3078 6.76991 15.233 6.68006L13.3 4.36006C13.2062 4.24744 13.0888 4.15681 12.9561 4.0946C12.8233 4.03239 12.6786 4.00012 12.532 4.00006H9V1.41406C9 1.14885 8.89464 0.894492 8.70711 0.706956C8.51957 0.519419 8.26522 0.414063 8 0.414062C7.73478 0.414063 7.48043 0.519419 7.29289 0.706956C7.10536 0.894492 7 1.14885 7 1.41406ZM12.532 5.00006L14.198 7.00006L12.532 9.00006H2V5.00006H12.532Z"/></g><defs><clipPath id="clip0_104_3121"><rect width="16" height="16"/></clipPath></defs></svg>