<svg width="16" height="16" viewBox="0 0 16 16" fill="none" xmlns="http://www.w3.org/2000/svg">
<g clip-path="url(#clip0_104_3129)">
<path d="M7 6.99994V1.41394C7 1.14872 7.10536 0.89437 7.29289 0.706834C7.48043 0.519297 7.73478 0.41394 8 0.41394C8.26522 0.41394 8.51957 0.519297 8.70711 0.706834C8.89464 0.89437 9 1.14872 9 1.41394V1.99994H14C14.1552 1.99994 14.3084 2.03609 14.4472 2.10551C14.5861 2.17494 14.7069 2.27574 14.8 2.39994L15.775 3.69994C15.8399 3.78649 15.875 3.89176 15.875 3.99994C15.875 4.10813 15.8399 4.21339 15.775 4.29994L14.8 5.59994C14.7069 5.72414 14.5861 5.82494 14.4472 5.89437C14.3084 5.9638 14.1552 5.99994 14 5.99994H9V15.9999H7V10.9999H2C1.84475 10.9999 1.69164 10.9638 1.55279 10.8944C1.41393 10.8249 1.29315 10.7241 1.2 10.5999L0.225 9.29994C0.160089 9.21339 0.125 9.10813 0.125 8.99994C0.125 8.89176 0.160089 8.78649 0.225 8.69994L1.2 7.39994C1.29315 7.27574 1.41393 7.17494 1.55279 7.10551C1.69164 7.03609 1.84475 6.99994 2 6.99994H7ZM8 9.99994V7.99994H2L1.25 8.99994L2 9.99994H8ZM8 4.99994H14L14.75 3.99994L14 2.99994H8V4.99994Z" fill="black"/>
</g>
<defs>
<clipPath id="clip0_104_3129">
<rect width="16" height="16" fill="white"/>
</clipPath>
</defs>
</svg>
