<svg width="16" height="16" viewBox="0 0 16 16" fill="none" xmlns="http://www.w3.org/2000/svg">
<path d="M7.293 0.706971C7.10545 0.894464 7.00006 1.14878 7 1.41397V3.99997H2C1.73478 3.99997 1.48043 4.10533 1.29289 4.29286C1.10536 4.4804 1 4.73476 1 4.99997V8.99997C1 9.26519 1.10536 9.51954 1.29289 9.70708C1.48043 9.89461 1.73478 9.99997 2 9.99997H7V16H9V9.99997H12.532C12.6786 9.99992 12.8233 9.96764 12.9561 9.90543C13.0888 9.84322 13.2062 9.75259 13.3 9.63997L15.233 7.31997C15.3078 7.23013 15.3488 7.1169 15.3488 6.99997C15.3488 6.88304 15.3078 6.76981 15.233 6.67997L13.3 4.35997C13.2062 4.24735 13.0888 4.15672 12.9561 4.09451C12.8233 4.0323 12.6786 4.00003 12.532 3.99997H9V1.41397C8.99996 1.21622 8.94129 1.02292 8.8314 0.858513C8.72152 0.694103 8.56535 0.565964 8.38265 0.490294C8.19995 0.414623 7.99892 0.394821 7.80497 0.433388C7.61102 0.471956 7.43285 0.567162 7.293 0.706971Z" fill="black"/>
</svg>
