<svg width="16" height="16" viewBox="0 0 16 16" fill="none" xmlns="http://www.w3.org/2000/svg">
<g clip-path="url(#clip0_104_3121)">
<path d="M7 1.41394V3.99994H2C1.73478 3.99994 1.48043 4.1053 1.29289 4.29283C1.10536 4.48037 1 4.73472 1 4.99994V8.99994C1 9.26516 1.10536 9.51951 1.29289 9.70705C1.48043 9.89458 1.73478 9.99994 2 9.99994H7V15.9999H9V9.99994H12.532C12.6786 9.99989 12.8233 9.96761 12.9561 9.9054C13.0888 9.84319 13.2062 9.75256 13.3 9.63994L15.233 7.31994C15.3078 7.2301 15.3488 7.11687 15.3488 6.99994C15.3488 6.88301 15.3078 6.76978 15.233 6.67994L13.3 4.35994C13.2062 4.24732 13.0888 4.15669 12.9561 4.09448C12.8233 4.03227 12.6786 4 12.532 3.99994H9V1.41394C9 1.14872 8.89464 0.89437 8.70711 0.706834C8.51957 0.519297 8.26522 0.41394 8 0.41394C7.73478 0.41394 7.48043 0.519297 7.29289 0.706834C7.10536 0.89437 7 1.14872 7 1.41394ZM12.532 4.99994L14.198 6.99994L12.532 8.99994H2V4.99994H12.532Z" fill="black"/>
</g>
<defs>
<clipPath id="clip0_104_3121">
<rect width="16" height="16" fill="white"/>
</clipPath>
</defs>
</svg>
