<svg width="16" height="16" viewBox="0 0 16 16" xmlns="http://www.w3.org/2000/svg" fill='currentColor'><g clip-path="url(#clip0_104_3119)"><path d="M6.08 0.233991L6.259 0.960991C5.55104 1.13586 4.87344 1.41634 4.249 1.79299L3.866 1.14999C4.55283 0.733961 5.29907 0.425078 6.079 0.233991H6.08ZM9.92 0.233991L9.742 0.959991C10.45 1.13487 11.1276 1.41535 11.752 1.79199L12.14 1.14899C11.4505 0.733449 10.702 0.424937 9.92 0.233991ZM1.15 3.86399C0.734396 4.55175 0.425548 5.29858 0.234001 6.07899L0.961001 6.25899C1.13587 5.55103 1.41635 4.87343 1.793 4.24899L1.15 3.86299V3.86399ZM0.750001 7.99999C0.749924 7.63648 0.777 7.27347 0.831001 6.91399L0.0910012 6.79999C-0.0294793 7.59478 -0.0294793 8.4032 0.0910012 9.19799L0.831001 9.08599C0.776858 8.72653 0.749782 8.36351 0.750001 7.99999ZM12.134 14.848L11.75 14.208C11.1267 14.5845 10.45 14.8646 9.743 15.039L9.923 15.767C10.7021 15.5738 11.4475 15.264 12.134 14.848ZM15.251 7.99999C15.251 8.36399 15.223 8.72699 15.169 9.08599L15.909 9.19799C16.03 8.40324 16.03 7.59474 15.909 6.79999L15.169 6.91399C15.223 7.27399 15.251 7.63599 15.251 7.99999ZM15.767 9.91799L15.039 9.73799C14.8645 10.4467 14.584 11.125 14.207 11.75L14.85 12.137C15.2665 11.4481 15.5757 10.6999 15.767 9.91799ZM9.087 15.168C8.367 15.278 7.634 15.278 6.914 15.168L6.802 15.91C7.59613 16.0304 8.40387 16.0304 9.198 15.91L9.086 15.169L9.087 15.168ZM13.837 12.3C13.4048 12.8858 12.8867 13.403 12.3 13.834L12.746 14.439C13.3918 13.9633 13.9631 13.3941 14.441 12.75L13.837 12.3ZM12.3 2.16299C12.887 2.59499 13.405 3.11299 13.837 3.69999L14.441 3.24999C13.9649 2.60545 13.3953 2.03551 12.751 1.55899L12.301 2.16299H12.3ZM2.163 3.69999C2.59509 3.11325 3.11326 2.59508 3.7 2.16299L3.25 1.55899C2.60546 2.03513 2.03552 2.60473 1.559 3.24899L2.163 3.69899V3.69999ZM14.851 3.86299L14.207 4.24999C14.584 4.87299 14.865 5.54999 15.039 6.25699L15.767 6.07699C15.5756 5.29686 15.2667 4.55034 14.851 3.86299ZM6.913 0.830991C7.6329 0.721986 8.3651 0.721986 9.085 0.830991L9.197 0.0909906C8.40288 -0.0295164 7.59512 -0.0295164 6.801 0.0909906L6.913 0.830991ZM2.547 14.64L1 15L1.36 13.451L0.631001 13.281L0.270001 14.829C0.240835 14.9532 0.243822 15.0827 0.27868 15.2054C0.313539 15.3281 0.379117 15.4399 0.469214 15.5302C0.559311 15.6205 0.670949 15.6863 0.793574 15.7215C0.916199 15.7566 1.04576 15.7599 1.17 15.731L2.718 15.374L2.548 14.64H2.547ZM0.786001 12.612L1.518 12.78L1.768 11.707C1.40262 11.095 1.13031 10.4321 0.960001 9.73999L0.233001 9.91999C0.396186 10.5828 0.643529 11.222 0.969001 11.822L0.785001 12.612H0.786001ZM4.286 14.235L3.213 14.485L3.383 15.216L4.173 15.032C4.773 15.359 5.412 15.606 6.075 15.769L6.255 15.041C5.56451 14.8691 4.90331 14.5958 4.293 14.23L4.286 14.235ZM8 1.49999C6.27626 1.50105 4.62348 2.18655 3.40498 3.4058C2.18648 4.62504 1.502 6.27825 1.502 8.00199C1.50398 9.22447 1.84982 10.4217 2.5 11.457L1.875 14.125L4.54 13.5C5.99769 14.3749 7.74006 14.644 9.3938 14.2498C11.0475 13.8555 12.4811 12.8293 13.3873 11.3908C14.2935 9.95241 14.6003 8.21627 14.2419 6.55439C13.8835 4.89251 12.8885 3.4371 11.47 2.49999C10.4306 1.8464 9.22778 1.49975 8 1.49999Z"/></g><defs><clipPath id="clip0_104_3119"><rect width="16" height="16"/></clipPath></defs></svg>