<svg width="16" height="16" viewBox="0 0 16 16" xmlns="http://www.w3.org/2000/svg" fill='currentColor'><g clip-path="url(#clip0_104_3129)"><path d="M7 7.00006V1.41406C7 1.14885 7.10536 0.894492 7.29289 0.706956C7.48043 0.519419 7.73478 0.414063 8 0.414062C8.26522 0.414063 8.51957 0.519419 8.70711 0.706956C8.89464 0.894492 9 1.14885 9 1.41406V2.00006H14C14.1552 2.00006 14.3084 2.03621 14.4472 2.10564C14.5861 2.17506 14.7069 2.27587 14.8 2.40006L15.775 3.70006C15.8399 3.78661 15.875 3.89188 15.875 4.00006C15.875 4.10825 15.8399 4.21351 15.775 4.30006L14.8 5.60006C14.7069 5.72426 14.5861 5.82506 14.4472 5.89449C14.3084 5.96392 14.1552 6.00006 14 6.00006H9V16.0001H7V11.0001H2C1.84475 11.0001 1.69164 10.9639 1.55279 10.8945C1.41393 10.8251 1.29315 10.7243 1.2 10.6001L0.225 9.30006C0.160089 9.21352 0.125 9.10825 0.125 9.00006C0.125 8.89188 0.160089 8.78661 0.225 8.70006L1.2 7.40006C1.29315 7.27587 1.41393 7.17506 1.55279 7.10564C1.69164 7.03621 1.84475 7.00006 2 7.00006H7ZM8 10.0001V8.00006H2L1.25 9.00006L2 10.0001H8ZM8 5.00006H14L14.75 4.00006L14 3.00006H8V5.00006Z"/></g><defs><clipPath id="clip0_104_3129"><rect width="16" height="16"/></clipPath></defs></svg>