<svg width="16" height="16" viewBox="0 0 16 16" xmlns="http://www.w3.org/2000/svg" fill='currentColor'><g clip-path="url(#clip0_104_3123)"><path d="M7 1.41406V2.00006H2C1.73478 2.00006 1.48043 2.10542 1.29289 2.29296C1.10536 2.48049 1 2.73485 1 3.00006V5.00006C1 5.26528 1.10536 5.51963 1.29289 5.70717C1.48043 5.89471 1.73478 6.00006 2 6.00006H7V7.00006H2.5C2.34475 7.00006 2.19164 7.03621 2.05279 7.10564C1.91393 7.17506 1.79315 7.27587 1.7 7.40006L0.725 8.70006C0.660089 8.78661 0.625 8.89188 0.625 9.00006C0.625 9.10825 0.660089 9.21352 0.725 9.30006L1.7 10.6001C1.79315 10.7243 1.91393 10.8251 2.05279 10.8945C2.19164 10.9639 2.34475 11.0001 2.5 11.0001H7V16.0001H9V11.0001H14C14.2652 11.0001 14.5196 10.8947 14.7071 10.7072C14.8946 10.5196 15 10.2653 15 10.0001V8.00006C15 7.73485 14.8946 7.48049 14.7071 7.29296C14.5196 7.10542 14.2652 7.00006 14 7.00006H9V6.00006H13.5C13.6552 6.00006 13.8084 5.96392 13.9472 5.89449C14.0861 5.82506 14.2069 5.72426 14.3 5.60006L15.275 4.30006C15.3399 4.21351 15.375 4.10825 15.375 4.00006C15.375 3.89188 15.3399 3.78661 15.275 3.70006L14.3 2.40006C14.2069 2.27587 14.0861 2.17506 13.9472 2.10564C13.8084 2.03621 13.6552 2.00006 13.5 2.00006H9V1.41406C9 1.14885 8.89464 0.894492 8.70711 0.706956C8.51957 0.519419 8.26522 0.414063 8 0.414062C7.73478 0.414063 7.48043 0.519419 7.29289 0.706956C7.10536 0.894492 7 1.14885 7 1.41406ZM13.5 3.00006L14.25 4.00006L13.5 5.00006H2V3.00006H13.5ZM14 8.00006V10.0001H2.5L1.75 9.00006L2.5 8.00006H14Z"/></g><defs><clipPath id="clip0_104_3123"><rect width="16" height="16"/></clipPath></defs></svg>