<svg width="16" height="16" viewBox="0 0 16 16" xmlns="http://www.w3.org/2000/svg" fill='currentColor'><g clip-path="url(#clip0_104_3119)"><path d="M6.08 0.234113L6.259 0.961113C5.55104 1.13598 4.87344 1.41646 4.249 1.79311L3.866 1.15011C4.55283 0.734083 5.29907 0.425201 6.079 0.234113H6.08ZM9.92 0.234113L9.742 0.960113C10.45 1.135 11.1276 1.41547 11.752 1.79211L12.14 1.14911C11.4505 0.733572 10.702 0.42506 9.92 0.234113ZM1.15 3.86411C0.734396 4.55187 0.425548 5.2987 0.234001 6.07911L0.961001 6.25911C1.13587 5.55115 1.41635 4.87355 1.793 4.24911L1.15 3.86311V3.86411ZM0.750001 8.00011C0.749924 7.6366 0.777 7.27359 0.831001 6.91411L0.0910012 6.80011C-0.0294793 7.59491 -0.0294793 8.40332 0.0910012 9.19811L0.831001 9.08611C0.776858 8.72665 0.749782 8.36363 0.750001 8.00011ZM12.134 14.8481L11.75 14.2081C11.1267 14.5846 10.45 14.8648 9.743 15.0391L9.923 15.7671C10.7021 15.5739 11.4475 15.2641 12.134 14.8481ZM15.251 8.00011C15.251 8.36411 15.223 8.72711 15.169 9.08611L15.909 9.19811C16.03 8.40336 16.03 7.59487 15.909 6.80011L15.169 6.91411C15.223 7.27411 15.251 7.63611 15.251 8.00011ZM15.767 9.91811L15.039 9.73811C14.8645 10.4468 14.584 11.1251 14.207 11.7501L14.85 12.1371C15.2665 11.4483 15.5757 10.7 15.767 9.91811ZM9.087 15.1681C8.367 15.2781 7.634 15.2781 6.914 15.1681L6.802 15.9101C7.59613 16.0305 8.40387 16.0305 9.198 15.9101L9.086 15.1691L9.087 15.1681ZM13.837 12.3001C13.4048 12.8859 12.8867 13.4031 12.3 13.8341L12.746 14.4391C13.3918 13.9635 13.9631 13.3942 14.441 12.7501L13.837 12.3001ZM12.3 2.16311C12.887 2.59511 13.405 3.11311 13.837 3.70011L14.441 3.25011C13.9649 2.60557 13.3953 2.03563 12.751 1.55911L12.301 2.16311H12.3ZM2.163 3.70011C2.59509 3.11337 3.11326 2.5952 3.7 2.16311L3.25 1.55911C2.60546 2.03525 2.03552 2.60485 1.559 3.24911L2.163 3.69911V3.70011ZM14.851 3.86311L14.207 4.25011C14.584 4.87311 14.865 5.55011 15.039 6.25711L15.767 6.07711C15.5756 5.29698 15.2667 4.55047 14.851 3.86311ZM6.913 0.831113C7.6329 0.722108 8.3651 0.722108 9.085 0.831113L9.197 0.0911127C8.40288 -0.0293943 7.59512 -0.0293943 6.801 0.0911127L6.913 0.831113ZM2.547 14.6401L1 15.0001L1.36 13.4511L0.631001 13.2811L0.270001 14.8291C0.240835 14.9533 0.243822 15.0829 0.27868 15.2056C0.313539 15.3283 0.379117 15.44 0.469214 15.5303C0.559311 15.6206 0.670949 15.6865 0.793574 15.7216C0.916199 15.7567 1.04576 15.76 1.17 15.7311L2.718 15.3741L2.548 14.6401H2.547ZM0.786001 12.6121L1.518 12.7801L1.768 11.7071C1.40262 11.0951 1.13031 10.4322 0.960001 9.74011L0.233001 9.92011C0.396186 10.5829 0.643529 11.2221 0.969001 11.8221L0.785001 12.6121H0.786001ZM4.286 14.2351L3.213 14.4851L3.383 15.2161L4.173 15.0321C4.773 15.3591 5.412 15.6061 6.075 15.7691L6.255 15.0411C5.56451 14.8693 4.90331 14.5959 4.293 14.2301L4.286 14.2351ZM8 1.50011C6.27626 1.50117 4.62348 2.18667 3.40498 3.40592C2.18648 4.62516 1.502 6.27837 1.502 8.00211C1.50398 9.2246 1.84982 10.4219 2.5 11.4571L1.875 14.1251L4.54 13.5001C5.99769 14.375 7.74006 14.6441 9.3938 14.2499C11.0475 13.8557 12.4811 12.8294 13.3873 11.391C14.2935 9.95253 14.6003 8.21639 14.2419 6.55451C13.8835 4.89263 12.8885 3.43722 11.47 2.50011C10.4306 1.84652 9.22778 1.49987 8 1.50011Z"/></g><defs><clipPath id="clip0_104_3119"><rect width="16" height="16"/></clipPath></defs></svg>