<svg width="16" height="16" viewBox="0 0 16 16" xmlns="http://www.w3.org/2000/svg" fill='currentColor'><g clip-path="url(#clip0_104_3125)"><path d="M7.293 0.706971C7.10545 0.894464 7.00006 1.14878 7 1.41397V1.99997H2C1.73478 1.99997 1.48043 2.10533 1.29289 2.29286C1.10536 2.4804 1 2.73475 1 2.99997V4.99997C1 5.26519 1.10536 5.51954 1.29289 5.70708C1.48043 5.89461 1.73478 5.99997 2 5.99997H7V6.99997H2.5C2.34475 6.99997 2.19164 7.03612 2.05279 7.10554C1.91393 7.17497 1.79315 7.27578 1.7 7.39997L0.725 8.69997C0.660089 8.78652 0.625 8.89179 0.625 8.99997C0.625 9.10816 0.660089 9.21342 0.725 9.29997L1.7 10.6C1.79315 10.7242 1.91393 10.825 2.05279 10.8944C2.19164 10.9638 2.34475 11 2.5 11H7V16H9V11H14C14.2652 11 14.5196 10.8946 14.7071 10.7071C14.8946 10.5195 15 10.2652 15 9.99997V7.99997C15 7.73476 14.8946 7.4804 14.7071 7.29286C14.5196 7.10533 14.2652 6.99997 14 6.99997H9V5.99997H13.5C13.6552 5.99997 13.8084 5.96383 13.9472 5.8944C14.0861 5.82497 14.2069 5.72417 14.3 5.59997L15.275 4.29997C15.3399 4.21342 15.375 4.10816 15.375 3.99997C15.375 3.89179 15.3399 3.78652 15.275 3.69997L14.3 2.39997C14.2069 2.27578 14.0861 2.17497 13.9472 2.10554C13.8084 2.03612 13.6552 1.99997 13.5 1.99997H9V1.41397C8.99996 1.21622 8.94129 1.02292 8.8314 0.858513C8.72152 0.694103 8.56535 0.565964 8.38265 0.490294C8.19995 0.414623 7.99892 0.394821 7.80497 0.433388C7.61102 0.471956 7.43285 0.567162 7.293 0.706971Z"/></g><defs><clipPath id="clip0_104_3125"><rect width="16" height="16"/></clipPath></defs></svg>