<svg width="16" height="16" viewBox="0 0 16 16" xmlns="http://www.w3.org/2000/svg" fill='currentColor'><g clip-path="url(#clip0_104_3136)"><path d="M5 4.5C5 4.36739 5.05268 4.24021 5.14645 4.14645C5.24021 4.05268 5.36739 4 5.5 4H7.5V6H5V4.5ZM8.5 6V4H10.5C10.6326 4 10.7598 4.05268 10.8536 4.14645C10.9473 4.24021 11 4.36739 11 4.5V6H8.5ZM5 7H11V9H5V7ZM8.5 10H11V11.5C11 11.6326 10.9473 11.7598 10.8536 11.8536C10.7598 11.9473 10.6326 12 10.5 12H8.5V10ZM7.5 10V12H5.5C5.36739 12 5.24021 11.9473 5.14645 11.8536C5.05268 11.7598 5 11.6326 5 11.5V10H7.5Z"/><path d="M3.5 1.53971e-07C3.10218 1.53971e-07 2.72064 0.158035 2.43934 0.43934C2.15804 0.720645 2 1.10218 2 1.5V14.5C2 14.8978 2.15804 15.2794 2.43934 15.5607C2.72064 15.842 3.10218 16 3.5 16H12.5C12.8978 16 13.2794 15.842 13.5607 15.5607C13.842 15.2794 14 14.8978 14 14.5V3.414C13.9997 3.01631 13.8414 2.63504 13.56 2.354L11.647 0.439C11.5076 0.299733 11.3422 0.189283 11.1602 0.113959C10.9781 0.0386344 10.783 -8.9109e-05 10.586 1.53971e-07H3.5ZM5.5 3H10.5C10.8978 3 11.2794 3.15804 11.5607 3.43934C11.842 3.72064 12 4.10218 12 4.5V11.5C12 11.8978 11.842 12.2794 11.5607 12.5607C11.2794 12.842 10.8978 13 10.5 13H5.5C5.10218 13 4.72064 12.842 4.43934 12.5607C4.15804 12.2794 4 11.8978 4 11.5V4.5C4 4.10218 4.15804 3.72064 4.43934 3.43934C4.72064 3.15804 5.10218 3 5.5 3Z"/></g><defs><clipPath id="clip0_104_3136"><rect width="16" height="16"/></clipPath></defs></svg>