<svg width="16" height="16" viewBox="0 0 16 16" xmlns="http://www.w3.org/2000/svg" fill='currentColor'><path d="M9.71 5.093C9.78476 5.03977 9.87274 5.00814 9.96428 5.00159C10.0558 4.99503 10.1474 5.01379 10.229 5.05583C10.3106 5.09786 10.379 5.16154 10.4268 5.23988C10.4746 5.31823 10.4999 5.40822 10.5 5.5V10.5C10.4999 10.5918 10.4746 10.6818 10.4268 10.7601C10.379 10.8385 10.3106 10.9021 10.229 10.9442C10.1474 10.9862 10.0558 11.005 9.96428 10.9984C9.87274 10.9919 9.78476 10.9602 9.71 10.907L7 8.972V10.5C7 10.6326 6.94732 10.7598 6.85355 10.8536C6.75979 10.9473 6.63261 11 6.5 11C6.36739 11 6.24021 10.9473 6.14645 10.8536C6.05268 10.7598 6 10.6326 6 10.5V5.5C6 5.36739 6.05268 5.24021 6.14645 5.14645C6.24021 5.05268 6.36739 5 6.5 5C6.63261 5 6.75979 5.05268 6.85355 5.14645C6.94732 5.24021 7 5.36739 7 5.5V7.028L9.71 5.093Z"/><path d="M0 4C0 3.46957 0.210714 2.96086 0.585786 2.58579C0.960859 2.21071 1.46957 2 2 2H14C14.5304 2 15.0391 2.21071 15.4142 2.58579C15.7893 2.96086 16 3.46957 16 4V12C16 12.5304 15.7893 13.0391 15.4142 13.4142C15.0391 13.7893 14.5304 14 14 14H2C1.46957 14 0.960859 13.7893 0.585786 13.4142C0.210714 13.0391 0 12.5304 0 12V4ZM15 4C15 3.73478 14.8946 3.48043 14.7071 3.29289C14.5196 3.10536 14.2652 3 14 3H2C1.73478 3 1.48043 3.10536 1.29289 3.29289C1.10536 3.48043 1 3.73478 1 4V12C1 12.2652 1.10536 12.5196 1.29289 12.7071C1.48043 12.8946 1.73478 13 2 13H14C14.2652 13 14.5196 12.8946 14.7071 12.7071C14.8946 12.5196 15 12.2652 15 12V4Z"/></svg>