<svg width="16" height="16" viewBox="0 0 16 16" xmlns="http://www.w3.org/2000/svg" fill='currentColor'><path d="M15.5 3.49998C15.6326 3.49998 15.7598 3.55266 15.8536 3.64643C15.9473 3.7402 16 3.86737 16 3.99998V12C16 12.1326 15.9473 12.2598 15.8536 12.3535C15.7598 12.4473 15.6326 12.5 15.5 12.5C15.3674 12.5 15.2402 12.4473 15.1464 12.3535C15.0527 12.2598 15 12.1326 15 12V8.75298L8.733 12.389C8.193 12.702 7.5 12.323 7.5 11.692V8.75198L1.233 12.388C0.693 12.703 0 12.324 0 11.693V4.30798C0 3.67798 0.693 3.29798 1.233 3.61198L7.5 7.24798V4.30798C7.5 3.67798 8.193 3.29798 8.733 3.61198L15 7.24798V3.99998C15 3.86737 15.0527 3.7402 15.1464 3.64643C15.2402 3.55266 15.3674 3.49998 15.5 3.49998Z"/></svg>