<svg width="16" height="16" viewBox="0 0 16 16" fill="none" xmlns="http://www.w3.org/2000/svg">
<path d="M0.5 3.5C0.632608 3.5 0.759785 3.55268 0.853553 3.64645C0.947322 3.74021 1 3.86739 1 4V7.248L7.267 3.612C7.787 3.31 8.5 3.655 8.5 4.308V7.248L14.767 3.612C15.287 3.31 16 3.655 16 4.308V11.692C16 12.345 15.287 12.69 14.767 12.388L8.5 8.752V11.692C8.5 12.345 7.787 12.69 7.267 12.388L1 8.752V12C1 12.1326 0.947322 12.2598 0.853553 12.3536C0.759785 12.4473 0.632608 12.5 0.5 12.5C0.367392 12.5 0.240215 12.4473 0.146447 12.3536C0.0526784 12.2598 0 12.1326 0 12V4C0 3.86739 0.0526784 3.74021 0.146447 3.64645C0.240215 3.55268 0.367392 3.5 0.5 3.5ZM7.5 4.633L1.696 8L7.5 11.367V4.633ZM15 4.633L9.196 8L15 11.367V4.633Z" fill="black"/>
</svg>
