<svg width="16" height="16" viewBox="0 0 16 16" fill="none" xmlns="http://www.w3.org/2000/svg">
<g clip-path="url(#clip0_104_3174)">
<path d="M8 15C6.14348 15 4.36301 14.2625 3.05025 12.9497C1.7375 11.637 1 9.85652 1 8C1 6.14348 1.7375 4.36301 3.05025 3.05025C4.36301 1.7375 6.14348 1 8 1C9.85652 1 11.637 1.7375 12.9497 3.05025C14.2625 4.36301 15 6.14348 15 8C15 9.85652 14.2625 11.637 12.9497 12.9497C11.637 14.2625 9.85652 15 8 15ZM8 16C10.1217 16 12.1566 15.1571 13.6569 13.6569C15.1571 12.1566 16 10.1217 16 8C16 5.87827 15.1571 3.84344 13.6569 2.34315C12.1566 0.842855 10.1217 0 8 0C5.87827 0 3.84344 0.842855 2.34315 2.34315C0.842855 3.84344 0 5.87827 0 8C0 10.1217 0.842855 12.1566 2.34315 13.6569C3.84344 15.1571 5.87827 16 8 16Z" fill="black"/>
<path d="M4.271 5.05499C4.35278 5.01287 4.4446 4.99414 4.53635 5.00084C4.62809 5.00755 4.71621 5.03943 4.791 5.09299L7.5 7.02799V5.49999C7.50006 5.40821 7.52537 5.31822 7.57318 5.23987C7.62098 5.16152 7.68942 5.09785 7.77101 5.05581C7.8526 5.01378 7.94418 4.99502 8.03572 5.00157C8.12726 5.00813 8.21524 5.03975 8.29 5.09299L11 7.02799V5.49999C11 5.36738 11.0527 5.2402 11.1464 5.14643C11.2402 5.05266 11.3674 4.99999 11.5 4.99999C11.6326 4.99999 11.7598 5.05266 11.8536 5.14643C11.9473 5.2402 12 5.36738 12 5.49999V10.5C12 10.6326 11.9473 10.7598 11.8536 10.8535C11.7598 10.9473 11.6326 11 11.5 11C11.3674 11 11.2402 10.9473 11.1464 10.8535C11.0527 10.7598 11 10.6326 11 10.5V8.97199L8.29 10.907C8.21524 10.9602 8.12726 10.9918 8.03572 10.9984C7.94418 11.005 7.8526 10.9862 7.77101 10.9442C7.68942 10.9021 7.62098 10.8384 7.57318 10.7601C7.52537 10.6818 7.50006 10.5918 7.5 10.5V8.97199L4.79 10.907C4.71524 10.9602 4.62726 10.9918 4.53572 10.9984C4.44418 11.005 4.3526 10.9862 4.27101 10.9442C4.18942 10.9021 4.12098 10.8384 4.07318 10.7601C4.02537 10.6818 4.00006 10.5918 4 10.5V5.49999C3.9999 5.40807 4.02515 5.3179 4.07296 5.2394C4.12077 5.16089 4.18929 5.09708 4.271 5.05499Z" fill="black"/>
</g>
<defs>
<clipPath id="clip0_104_3174">
<rect width="16" height="16" fill="white"/>
</clipPath>
</defs>
</svg>
