<svg width="16" height="16" viewBox="0 0 16 16" xmlns="http://www.w3.org/2000/svg" fill='currentColor'><g clip-path="url(#clip0_104_3188)"><path d="M8 15C6.14348 15 4.36301 14.2625 3.05025 12.9497C1.7375 11.637 1 9.85652 1 8C1 6.14348 1.7375 4.36301 3.05025 3.05025C4.36301 1.7375 6.14348 1 8 1C9.85652 1 11.637 1.7375 12.9497 3.05025C14.2625 4.36301 15 6.14348 15 8C15 9.85652 14.2625 11.637 12.9497 12.9497C11.637 14.2625 9.85652 15 8 15ZM8 16C10.1217 16 12.1566 15.1571 13.6569 13.6569C15.1571 12.1566 16 10.1217 16 8C16 5.87827 15.1571 3.84344 13.6569 2.34315C12.1566 0.842855 10.1217 0 8 0C5.87827 0 3.84344 0.842855 2.34315 2.34315C0.842855 3.84344 0 5.87827 0 8C0 10.1217 0.842855 12.1566 2.34315 13.6569C3.84344 15.1571 5.87827 16 8 16Z"/><path d="M10.229 5.05499C10.1472 5.01287 10.0554 4.99414 9.96365 5.00084C9.87191 5.00755 9.78379 5.03943 9.709 5.09299L7 7.02799V5.49999C7 5.36738 6.94732 5.2402 6.85355 5.14643C6.75979 5.05266 6.63261 4.99999 6.5 4.99999C6.36739 4.99999 6.24021 5.05266 6.14645 5.14643C6.05268 5.2402 6 5.36738 6 5.49999V10.5C6 10.6326 6.05268 10.7598 6.14645 10.8535C6.24021 10.9473 6.36739 11 6.5 11C6.63261 11 6.75979 10.9473 6.85355 10.8535C6.94732 10.7598 7 10.6326 7 10.5V8.97199L9.71 10.907C9.78476 10.9602 9.87274 10.9918 9.96428 10.9984C10.0558 11.005 10.1474 10.9862 10.229 10.9442C10.3106 10.9021 10.379 10.8384 10.4268 10.7601C10.4746 10.6818 10.4999 10.5918 10.5 10.5V5.49999C10.5001 5.40807 10.4749 5.3179 10.427 5.2394C10.3792 5.16089 10.3107 5.09708 10.229 5.05499Z"/></g><defs><clipPath id="clip0_104_3188"><rect width="16" height="16"/></clipPath></defs></svg>