<svg width="16" height="16" viewBox="0 0 16 16" fill="none" xmlns="http://www.w3.org/2000/svg">
<g clip-path="url(#clip0_104_3151)">
<path d="M0.5 3.49998C0.367392 3.49998 0.240215 3.55266 0.146447 3.64643C0.0526784 3.7402 0 3.86737 0 3.99998L0 12C0 12.1326 0.0526784 12.2598 0.146447 12.3535C0.240215 12.4473 0.367392 12.5 0.5 12.5C0.632608 12.5 0.759785 12.4473 0.853553 12.3535C0.947322 12.2598 1 12.1326 1 12V8.75298L7.267 12.389C7.807 12.702 8.5 12.323 8.5 11.692V8.75198L14.767 12.388C15.307 12.702 16 12.323 16 11.692V4.30798C16 3.67798 15.307 3.29798 14.767 3.61198L8.5 7.24798V4.30798C8.5 3.67798 7.808 3.29798 7.267 3.61198L1 7.24798V3.99998C1 3.86737 0.947322 3.7402 0.853553 3.64643C0.759785 3.55266 0.632608 3.49998 0.5 3.49998Z" fill="black"/>
</g>
<defs>
<clipPath id="clip0_104_3151">
<rect width="16" height="16" fill="white"/>
</clipPath>
</defs>
</svg>
