<svg width="16" height="16" viewBox="0 0 16 16" xmlns="http://www.w3.org/2000/svg" fill='currentColor'><path d="M15.5 3.5001C15.6326 3.5001 15.7598 3.55278 15.8536 3.64655C15.9473 3.74032 16 3.8675 16 4.0001V12.0001C16 12.1327 15.9473 12.2599 15.8536 12.3537C15.7598 12.4474 15.6326 12.5001 15.5 12.5001C15.3674 12.5001 15.2402 12.4474 15.1464 12.3537C15.0527 12.2599 15 12.1327 15 12.0001V8.7531L8.733 12.3891C8.193 12.7021 7.5 12.3231 7.5 11.6921V8.7521L1.233 12.3881C0.693 12.7031 0 12.3241 0 11.6931V4.3081C0 3.6781 0.693 3.2981 1.233 3.6121L7.5 7.2481V4.3081C7.5 3.6781 8.193 3.2981 8.733 3.6121L15 7.2481V4.0001C15 3.8675 15.0527 3.74032 15.1464 3.64655C15.2402 3.55278 15.3674 3.5001 15.5 3.5001Z"/></svg>