<svg width="16" height="16" viewBox="0 0 16 16" xmlns="http://www.w3.org/2000/svg" fill='currentColor'><path d="M12.5 4C12.5 3.86739 12.4473 3.74021 12.3536 3.64645C12.2598 3.55268 12.1326 3.5 12 3.5C11.8674 3.5 11.7402 3.55268 11.6464 3.64645C11.5527 3.74021 11.5 3.86739 11.5 4V7.248L5.233 3.612C4.713 3.31 4 3.655 4 4.308V11.692C4 12.345 4.713 12.69 5.233 12.388L11.5 8.752V12C11.5 12.1326 11.5527 12.2598 11.6464 12.3536C11.7402 12.4473 11.8674 12.5 12 12.5C12.1326 12.5 12.2598 12.4473 12.3536 12.3536C12.4473 12.2598 12.5 12.1326 12.5 12V4ZM5 4.633L10.804 8L5 11.367V4.633Z"/></svg>