<svg width="16" height="16" viewBox="0 0 16 16" xmlns="http://www.w3.org/2000/svg" fill='currentColor'><g clip-path="url(#clip0_104_3191)"><path d="M16 8C16 10.1217 15.1571 12.1566 13.6569 13.6569C12.1566 15.1571 10.1217 16 8 16C5.87827 16 3.84344 15.1571 2.34315 13.6569C0.842855 12.1566 0 10.1217 0 8C0 5.87827 0.842855 3.84344 2.34315 2.34315C3.84344 0.842855 5.87827 0 8 0C10.1217 0 12.1566 0.842855 13.6569 2.34315C15.1571 3.84344 16 5.87827 16 8ZM9.71 5.093L7 7.028V5.5C7 5.36739 6.94732 5.24021 6.85355 5.14645C6.75979 5.05268 6.63261 5 6.5 5C6.36739 5 6.24021 5.05268 6.14645 5.14645C6.05268 5.24021 6 5.36739 6 5.5V10.5C6 10.6326 6.05268 10.7598 6.14645 10.8536C6.24021 10.9473 6.36739 11 6.5 11C6.63261 11 6.75979 10.9473 6.85355 10.8536C6.94732 10.7598 7 10.6326 7 10.5V8.972L9.71 10.907C9.78476 10.9602 9.87274 10.9919 9.96428 10.9984C10.0558 11.005 10.1474 10.9862 10.229 10.9442C10.3106 10.9021 10.379 10.8385 10.4268 10.7601C10.4746 10.6818 10.4999 10.5918 10.5 10.5V5.5C10.4999 5.40822 10.4746 5.31823 10.4268 5.23988C10.379 5.16154 10.3106 5.09786 10.229 5.05583C10.1474 5.01379 10.0558 4.99503 9.96428 5.00159C9.87274 5.00814 9.78476 5.03977 9.71 5.093Z"/></g><defs><clipPath id="clip0_104_3191"><rect width="16" height="16"/></clipPath></defs></svg>