<svg width="16" height="16" viewBox="0 0 16 16" fill="none" xmlns="http://www.w3.org/2000/svg">
<path d="M0 12V4C0 3.46957 0.210714 2.96086 0.585786 2.58579C0.960859 2.21071 1.46957 2 2 2H14C14.5304 2 15.0391 2.21071 15.4142 2.58579C15.7893 2.96086 16 3.46957 16 4V12C16 12.5304 15.7893 13.0391 15.4142 13.4142C15.0391 13.7893 14.5304 14 14 14H2C1.46957 14 0.960859 13.7893 0.585786 13.4142C0.210714 13.0391 0 12.5304 0 12ZM11.21 5.093L8.5 7.028V5.5C8.49994 5.40822 8.47463 5.31823 8.42682 5.23988C8.37902 5.16154 8.31058 5.09786 8.22899 5.05583C8.1474 5.01379 8.05582 4.99503 7.96428 5.00159C7.87274 5.00814 7.78476 5.03977 7.71 5.093L5 7.028V5.5C5 5.36739 4.94732 5.24021 4.85355 5.14645C4.75979 5.05268 4.63261 5 4.5 5C4.36739 5 4.24021 5.05268 4.14645 5.14645C4.05268 5.24021 4 5.36739 4 5.5V10.5C4 10.6326 4.05268 10.7598 4.14645 10.8536C4.24021 10.9473 4.36739 11 4.5 11C4.63261 11 4.75979 10.9473 4.85355 10.8536C4.94732 10.7598 5 10.6326 5 10.5V8.972L7.71 10.907C7.78476 10.9602 7.87274 10.9919 7.96428 10.9984C8.05582 11.005 8.1474 10.9862 8.22899 10.9442C8.31058 10.9021 8.37902 10.8385 8.42682 10.7601C8.47463 10.6818 8.49994 10.5918 8.5 10.5V8.972L11.21 10.907C11.2848 10.9602 11.3727 10.9919 11.4643 10.9984C11.5558 11.005 11.6474 10.9862 11.729 10.9442C11.8106 10.9021 11.879 10.8385 11.9268 10.7601C11.9746 10.6818 11.9999 10.5918 12 10.5V5.5C11.9999 5.40822 11.9746 5.31823 11.9268 5.23988C11.879 5.16154 11.8106 5.09786 11.729 5.05583C11.6474 5.01379 11.5558 4.99503 11.4643 5.00159C11.3727 5.00814 11.2848 5.03977 11.21 5.093Z" fill="black"/>
</svg>
