<svg width="16" height="16" viewBox="0 0 16 16" xmlns="http://www.w3.org/2000/svg" fill='currentColor'><g clip-path="url(#clip0_104_3151)"><path d="M0.5 3.5001C0.367392 3.5001 0.240215 3.55278 0.146447 3.64655C0.0526784 3.74032 0 3.8675 0 4.0001L0 12.0001C0 12.1327 0.0526784 12.2599 0.146447 12.3537C0.240215 12.4474 0.367392 12.5001 0.5 12.5001C0.632608 12.5001 0.759785 12.4474 0.853553 12.3537C0.947322 12.2599 1 12.1327 1 12.0001V8.7531L7.267 12.3891C7.807 12.7021 8.5 12.3231 8.5 11.6921V8.7521L14.767 12.3881C15.307 12.7021 16 12.3231 16 11.6921V4.3081C16 3.6781 15.307 3.2981 14.767 3.6121L8.5 7.2481V4.3081C8.5 3.6781 7.808 3.2981 7.267 3.6121L1 7.2481V4.0001C1 3.8675 0.947322 3.74032 0.853553 3.64655C0.759785 3.55278 0.632608 3.5001 0.5 3.5001Z"/></g><defs><clipPath id="clip0_104_3151"><rect width="16" height="16"/></clipPath></defs></svg>