<svg width="16" height="16" viewBox="0 0 16 16" xmlns="http://www.w3.org/2000/svg" fill='currentColor'><path d="M15.5 3.5C15.6326 3.5 15.7598 3.55268 15.8536 3.64645C15.9473 3.74021 16 3.86739 16 4V12C16 12.1326 15.9473 12.2598 15.8536 12.3536C15.7598 12.4473 15.6326 12.5 15.5 12.5C15.3674 12.5 15.2402 12.4473 15.1464 12.3536C15.0527 12.2598 15 12.1326 15 12V8.752L8.733 12.388C8.213 12.69 7.5 12.345 7.5 11.692V8.752L1.233 12.388C0.713 12.69 0 12.345 0 11.692V4.308C0 3.655 0.713 3.31 1.233 3.612L7.5 7.248V4.308C7.5 3.655 8.213 3.31 8.733 3.612L15 7.248V4C15 3.86739 15.0527 3.74021 15.1464 3.64645C15.2402 3.55268 15.3674 3.5 15.5 3.5ZM1 4.633V11.367L6.804 8L1 4.633ZM8.5 4.633V11.367L14.304 8L8.5 4.633Z"/></svg>