<svg width="16" height="16" viewBox="0 0 16 16" xmlns="http://www.w3.org/2000/svg" fill='currentColor'><g clip-path="url(#clip0_104_3177)"><path d="M16 8C16 10.1217 15.1571 12.1566 13.6569 13.6569C12.1566 15.1571 10.1217 16 8 16C5.87827 16 3.84344 15.1571 2.34315 13.6569C0.842855 12.1566 0 10.1217 0 8C0 5.87827 0.842855 3.84344 2.34315 2.34315C3.84344 0.842855 5.87827 0 8 0C10.1217 0 12.1566 0.842855 13.6569 2.34315C15.1571 3.84344 16 5.87827 16 8ZM4.79 5.093C4.71524 5.03977 4.62726 5.00814 4.53572 5.00159C4.44418 4.99503 4.35259 5.01379 4.27101 5.05583C4.18942 5.09786 4.12098 5.16154 4.07317 5.23988C4.02537 5.31823 4.00006 5.40822 4 5.5V10.5C4.00006 10.5918 4.02537 10.6818 4.07317 10.7601C4.12098 10.8385 4.18942 10.9021 4.27101 10.9442C4.35259 10.9862 4.44418 11.005 4.53572 10.9984C4.62726 10.9919 4.71524 10.9602 4.79 10.907L7.5 8.972V10.5C7.50006 10.5918 7.52537 10.6818 7.57317 10.7601C7.62098 10.8385 7.68942 10.9021 7.77101 10.9442C7.85259 10.9862 7.94418 11.005 8.03572 10.9984C8.12726 10.9919 8.21524 10.9602 8.29 10.907L11 8.972V10.5C11 10.6326 11.0527 10.7598 11.1464 10.8536C11.2402 10.9473 11.3674 11 11.5 11C11.6326 11 11.7598 10.9473 11.8536 10.8536C11.9473 10.7598 12 10.6326 12 10.5V5.5C12 5.36739 11.9473 5.24021 11.8536 5.14645C11.7598 5.05268 11.6326 5 11.5 5C11.3674 5 11.2402 5.05268 11.1464 5.14645C11.0527 5.24021 11 5.36739 11 5.5V7.028L8.29 5.093C8.21524 5.03977 8.12726 5.00814 8.03572 5.00159C7.94418 4.99503 7.85259 5.01379 7.77101 5.05583C7.68942 5.09786 7.62098 5.16154 7.57317 5.23988C7.52537 5.31823 7.50006 5.40822 7.5 5.5V7.028L4.79 5.093Z"/></g><defs><clipPath id="clip0_104_3177"><rect width="16" height="16"/></clipPath></defs></svg>