<svg width="16" height="16" viewBox="0 0 16 16" fill="none" xmlns="http://www.w3.org/2000/svg">
<path d="M0 10V2C0 1.46957 0.210714 0.960859 0.585786 0.585786C0.960859 0.210714 1.46957 0 2 0L14 0C14.5304 0 15.0391 0.210714 15.4142 0.585786C15.7893 0.960859 16 1.46957 16 2V10C16 10.5304 15.7893 11.0391 15.4142 11.4142C15.0391 11.7893 14.5304 12 14 12H2C1.46957 12 0.960859 11.7893 0.585786 11.4142C0.210714 11.0391 0 10.5304 0 10ZM4.79 3.093C4.71524 3.03977 4.62726 3.00814 4.53572 3.00159C4.44418 2.99503 4.35259 3.0138 4.27101 3.05583C4.18942 3.09786 4.12098 3.16154 4.07317 3.23988C4.02537 3.31823 4.00006 3.40822 4 3.5V8.5C4.00006 8.59178 4.02537 8.68177 4.07317 8.76012C4.12098 8.83846 4.18942 8.90214 4.27101 8.94417C4.35259 8.98621 4.44418 9.00497 4.53572 8.99841C4.62726 8.99186 4.71524 8.96023 4.79 8.907L7.5 6.972V8.5C7.50006 8.59178 7.52537 8.68177 7.57317 8.76012C7.62098 8.83846 7.68942 8.90214 7.77101 8.94417C7.85259 8.98621 7.94418 9.00497 8.03572 8.99841C8.12726 8.99186 8.21524 8.96023 8.29 8.907L11 6.972V8.5C11 8.63261 11.0527 8.75979 11.1464 8.85355C11.2402 8.94732 11.3674 9 11.5 9C11.6326 9 11.7598 8.94732 11.8536 8.85355C11.9473 8.75979 12 8.63261 12 8.5V3.5C12 3.36739 11.9473 3.24021 11.8536 3.14645C11.7598 3.05268 11.6326 3 11.5 3C11.3674 3 11.2402 3.05268 11.1464 3.14645C11.0527 3.24021 11 3.36739 11 3.5V5.028L8.29 3.093C8.21524 3.03977 8.12726 3.00814 8.03572 3.00159C7.94418 2.99503 7.85259 3.0138 7.77101 3.05583C7.68942 3.09786 7.62098 3.16154 7.57317 3.23988C7.52537 3.31823 7.50006 3.40822 7.5 3.5V5.028L4.79 3.093Z" fill="black"/>
</svg>
