<svg width="16" height="16" viewBox="0 0 16 16" xmlns="http://www.w3.org/2000/svg" fill='currentColor'><path d="M4 4C4 3.86739 4.05268 3.74021 4.14645 3.64645C4.24021 3.55268 4.36739 3.5 4.5 3.5C4.63261 3.5 4.75979 3.55268 4.85355 3.64645C4.94732 3.74021 5 3.86739 5 4V7.248L11.267 3.612C11.787 3.31 12.5 3.655 12.5 4.308V11.692C12.5 12.345 11.787 12.69 11.267 12.388L5 8.752V12C5 12.1326 4.94732 12.2598 4.85355 12.3536C4.75979 12.4473 4.63261 12.5 4.5 12.5C4.36739 12.5 4.24021 12.4473 4.14645 12.3536C4.05268 12.2598 4 12.1326 4 12V4ZM11.5 4.633L5.696 8L11.5 11.367V4.633Z"/></svg>