<svg width="16" height="16" viewBox="0 0 16 16" xmlns="http://www.w3.org/2000/svg" fill='currentColor'><g clip-path="url(#clip0_104_3197)"><path d="M3.362 10.11C3.362 11.036 2.606 11.791 1.681 11.791C0.756 11.791 0 11.036 0 10.111C0 9.186 0.756 8.43 1.68 8.43H3.362V10.11ZM4.208 10.11C4.208 9.186 4.964 8.43 5.889 8.43C6.814 8.43 7.57 9.186 7.57 10.11V14.32C7.57 15.244 6.814 16 5.89 16C5.4445 15.9992 5.01743 15.822 4.70223 15.5072C4.38702 15.1924 4.20932 14.7655 4.208 14.32V10.11ZM5.89 3.362C4.964 3.362 4.208 2.606 4.208 1.681C4.208 0.756 4.964 0 5.89 0C6.816 0 7.57 0.756 7.57 1.68V3.362H5.89ZM5.89 4.208C6.814 4.208 7.57 4.964 7.57 5.889C7.57 6.814 6.814 7.57 5.89 7.57H1.68C0.757 7.57 0 6.814 0 5.89C0 4.964 0.756 4.208 1.68 4.208H5.89ZM12.639 5.89C12.639 4.964 13.394 4.208 14.319 4.208C15.244 4.208 16 4.964 16 5.889C16 6.814 15.244 7.57 14.32 7.57H12.639V5.89ZM11.791 5.89C11.791 6.814 11.036 7.57 10.111 7.57C9.66567 7.56894 9.23886 7.39164 8.92387 7.07683C8.60888 6.76203 8.43132 6.33533 8.43 5.89V1.68C8.43 0.757 9.186 0 10.11 0C11.036 0 11.791 0.756 11.791 1.68V5.89ZM10.11 12.638C11.036 12.638 11.792 13.394 11.792 14.319C11.792 15.244 11.036 16 10.11 16C9.184 16 8.429 15.244 8.429 14.32V12.638H10.109H10.11ZM10.11 11.791C9.186 11.791 8.43 11.036 8.43 10.111C8.43 9.186 9.186 8.43 10.11 8.43H14.32C15.244 8.43 16 9.186 16 10.11C16 11.036 15.244 11.791 14.32 11.791H10.11Z"/></g><defs><clipPath id="clip0_104_3197"><rect width="16" height="16"/></clipPath></defs></svg>