<svg width="16" height="16" viewBox="0 0 16 16" xmlns="http://www.w3.org/2000/svg" fill='currentColor'><path fill-rule="evenodd" clip-rule="evenodd" d="M13.854 2.14592C13.9006 2.19236 13.9375 2.24754 13.9627 2.30828C13.9879 2.36903 14.0009 2.43415 14.0009 2.49992C14.0009 2.56568 13.9879 2.63081 13.9627 2.69155C13.9375 2.7523 13.9006 2.80747 13.854 2.85392L2.85402 13.8539C2.76013 13.9478 2.6328 14.0005 2.50002 14.0005C2.36725 14.0005 2.23991 13.9478 2.14602 13.8539C2.05213 13.76 1.99939 13.6327 1.99939 13.4999C1.99939 13.3671 2.05213 13.2398 2.14602 13.1459L13.146 2.14592C13.1925 2.09935 13.2476 2.06241 13.3084 2.0372C13.3691 2.012 13.4343 1.99902 13.5 1.99902C13.5658 1.99902 13.6309 2.012 13.6917 2.0372C13.7524 2.06241 13.8076 2.09935 13.854 2.14592Z"/></svg>