<svg width="16" height="16" viewBox="0 0 16 16" xmlns="http://www.w3.org/2000/svg" fill='currentColor'><path fill-rule="evenodd" clip-rule="evenodd" d="M13.854 2.14604C13.9006 2.19248 13.9375 2.24766 13.9627 2.30841C13.9879 2.36915 14.0009 2.43427 14.0009 2.50004C14.0009 2.56581 13.9879 2.63093 13.9627 2.69167C13.9375 2.75242 13.9006 2.80759 13.854 2.85404L2.85402 13.854C2.76013 13.9479 2.6328 14.0007 2.50002 14.0007C2.36725 14.0007 2.23991 13.9479 2.14602 13.854C2.05213 13.7602 1.99939 13.6328 1.99939 13.5C1.99939 13.3673 2.05213 13.2399 2.14602 13.146L13.146 2.14604C13.1925 2.09948 13.2476 2.06253 13.3084 2.03733C13.3691 2.01212 13.4343 1.99915 13.5 1.99915C13.5658 1.99915 13.6309 2.01212 13.6917 2.03733C13.7524 2.06253 13.8076 2.09948 13.854 2.14604Z"/></svg>