<svg width="16" height="16" viewBox="0 0 16 16" fill="none" xmlns="http://www.w3.org/2000/svg">
<g clip-path="url(#clip0_104_3211)">
<path d="M2 0C1.46957 0 0.960859 0.210714 0.585786 0.585786C0.210714 0.960859 0 1.46957 0 2L0 14C0 14.5304 0.210714 15.0391 0.585786 15.4142C0.960859 15.7893 1.46957 16 2 16H14C14.5304 16 15.0391 15.7893 15.4142 15.4142C15.7893 15.0391 16 14.5304 16 14V2C16 1.46957 15.7893 0.960859 15.4142 0.585786C15.0391 0.210714 14.5304 0 14 0L2 0ZM11.354 5.354L5.354 11.354C5.26011 11.4479 5.13278 11.5006 5 11.5006C4.86722 11.5006 4.73989 11.4479 4.646 11.354C4.55211 11.2601 4.49937 11.1328 4.49937 11C4.49937 10.8672 4.55211 10.7399 4.646 10.646L10.646 4.646C10.7399 4.55211 10.8672 4.49937 11 4.49937C11.1328 4.49937 11.2601 4.55211 11.354 4.646C11.4479 4.73989 11.5006 4.86722 11.5006 5C11.5006 5.13278 11.4479 5.26011 11.354 5.354Z" fill="black"/>
</g>
<defs>
<clipPath id="clip0_104_3211">
<rect width="16" height="16" fill="white"/>
</clipPath>
</defs>
</svg>
