<svg width="16" height="16" viewBox="0 0 16 16" fill="none" xmlns="http://www.w3.org/2000/svg">
<g clip-path="url(#clip0_104_3204)">
<path d="M16 8C16 10.1217 15.1571 12.1566 13.6569 13.6569C12.1566 15.1571 10.1217 16 8 16C5.87827 16 3.84344 15.1571 2.34315 13.6569C0.842855 12.1566 0 10.1217 0 8C0 5.87827 0.842855 3.84344 2.34315 2.34315C3.84344 0.842855 5.87827 0 8 0C10.1217 0 12.1566 0.842855 13.6569 2.34315C15.1571 3.84344 16 5.87827 16 8ZM11.354 5.354C11.4479 5.26011 11.5006 5.13278 11.5006 5C11.5006 4.86722 11.4479 4.73989 11.354 4.646C11.2601 4.55211 11.1328 4.49937 11 4.49937C10.8672 4.49937 10.7399 4.55211 10.646 4.646L4.646 10.646C4.59951 10.6925 4.56264 10.7477 4.53748 10.8084C4.51232 10.8692 4.49937 10.9343 4.49937 11C4.49937 11.0657 4.51232 11.1308 4.53748 11.1916C4.56264 11.2523 4.59951 11.3075 4.646 11.354C4.73989 11.4479 4.86722 11.5006 5 11.5006C5.06574 11.5006 5.13084 11.4877 5.19158 11.4625C5.25232 11.4374 5.30751 11.4005 5.354 11.354L11.354 5.354Z" fill="black"/>
</g>
<defs>
<clipPath id="clip0_104_3204">
<rect width="16" height="16" fill="white"/>
</clipPath>
</defs>
</svg>
