<svg width="16" height="16" viewBox="0 0 16 16" xmlns="http://www.w3.org/2000/svg" fill='currentColor'><g clip-path="url(#clip0_104_3201)"><path d="M8 15C6.14348 15 4.36301 14.2625 3.05025 12.9497C1.7375 11.637 1 9.85652 1 8C1 6.14348 1.7375 4.36301 3.05025 3.05025C4.36301 1.7375 6.14348 1 8 1C9.85652 1 11.637 1.7375 12.9497 3.05025C14.2625 4.36301 15 6.14348 15 8C15 9.85652 14.2625 11.637 12.9497 12.9497C11.637 14.2625 9.85652 15 8 15ZM8 16C10.1217 16 12.1566 15.1571 13.6569 13.6569C15.1571 12.1566 16 10.1217 16 8C16 5.87827 15.1571 3.84344 13.6569 2.34315C12.1566 0.842855 10.1217 0 8 0C5.87827 0 3.84344 0.842855 2.34315 2.34315C0.842855 3.84344 0 5.87827 0 8C0 10.1217 0.842855 12.1566 2.34315 13.6569C3.84344 15.1571 5.87827 16 8 16Z"/><path d="M11.354 4.64604C11.3076 4.59948 11.2524 4.56253 11.1917 4.53733C11.1309 4.51212 11.0658 4.49915 11 4.49915C10.9343 4.49915 10.8691 4.51212 10.8084 4.53733C10.7476 4.56253 10.6925 4.59948 10.646 4.64604L4.64602 10.646C4.59953 10.6925 4.56266 10.7477 4.5375 10.8085C4.51234 10.8692 4.49939 10.9343 4.49939 11C4.49939 11.0658 4.51234 11.1309 4.5375 11.1916C4.56266 11.2524 4.59953 11.3076 4.64602 11.354C4.73991 11.4479 4.86725 11.5007 5.00002 11.5007C5.06577 11.5007 5.13087 11.4877 5.19161 11.4626C5.25234 11.4374 5.30753 11.4005 5.35402 11.354L11.354 5.35404C11.4006 5.30759 11.4375 5.25242 11.4627 5.19167C11.4879 5.13093 11.5009 5.06581 11.5009 5.00004C11.5009 4.93427 11.4879 4.86915 11.4627 4.80841C11.4375 4.74766 11.4006 4.69248 11.354 4.64604Z"/></g><defs><clipPath id="clip0_104_3201"><rect width="16" height="16"/></clipPath></defs></svg>