<svg width="16" height="16" viewBox="0 0 16 16" xmlns="http://www.w3.org/2000/svg" fill='currentColor'><path d="M11.354 4.64592C11.4006 4.69236 11.4375 4.74754 11.4627 4.80828C11.4879 4.86903 11.5009 4.93415 11.5009 4.99992C11.5009 5.06568 11.4879 5.13081 11.4627 5.19155C11.4375 5.2523 11.4006 5.30747 11.354 5.35392L5.35402 11.3539C5.26013 11.4478 5.1328 11.5005 5.00002 11.5005C4.86725 11.5005 4.73991 11.4478 4.64602 11.3539C4.55213 11.26 4.49939 11.1327 4.49939 10.9999C4.49939 10.8671 4.55213 10.7398 4.64602 10.6459L10.646 4.64592C10.6925 4.59935 10.7476 4.56241 10.8084 4.5372C10.8691 4.512 10.9343 4.49902 11 4.49902C11.0658 4.49902 11.1309 4.512 11.1917 4.5372C11.2524 4.56241 11.3076 4.59935 11.354 4.64592Z"/></svg>