<svg width="24" height="24" viewBox="0 0 24 24" xmlns="http://www.w3.org/2000/svg" fill='currentColor'><path d="M14.0004 3.74707C14.0004 4.84707 13.1004 5.74707 12.0004 5.74707C10.9004 5.74707 10.0004 4.84707 10.0004 3.74707C10.0004 2.64707 10.9004 1.74707 12.0004 1.74707C13.1004 1.74707 14.0004 2.64707 14.0004 3.74707ZM22.8004 19.4871C22.1203 21.5871 19.8604 22.7371 17.7604 22.0571L1.00035 16.6071L1.46035 15.1771L5.39035 16.4571L5.85035 15.0271L1.93035 13.7471L2.39035 12.3171L4.00035 12.8471V8.74707L9.47035 6.39707C9.86035 6.22707 10.3104 6.18707 10.7504 6.32707C11.7004 6.63707 12.2104 7.64707 11.9104 8.59707L10.8604 11.8371L13.0004 11.4971C13.8904 11.3471 14.7604 11.8171 15.1404 12.6371L17.2204 17.1471L19.1504 17.7771L18.6904 19.2071L15.3704 18.1271L14.9004 19.5471L18.2204 20.6271C19.5303 21.0571 20.9404 20.3371 21.3704 19.0171C21.8004 17.7071 21.0804 16.2971 19.7604 15.8671L20.2204 14.4371C22.3304 15.1271 23.4904 17.3871 22.8004 19.4871ZM6.00035 13.4971L7.01035 13.8271C6.79035 13.4071 6.73035 12.9071 6.89035 12.4271L7.92035 9.24707L6.00035 10.0671V13.4971ZM13.9404 17.6571L7.28035 15.4971L6.82035 16.9271L13.4804 19.0871L13.9404 17.6571ZM14.6304 16.2971L13.4504 13.7371L9.48035 14.6271L14.6304 16.2971Z"/></svg>