<svg width="16" height="16" viewBox="0 0 16 16" fill="none" xmlns="http://www.w3.org/2000/svg">
<g clip-path="url(#clip0_104_3213)">
<path fill-rule="evenodd" clip-rule="evenodd" d="M11.5 1.99994C11.303 1.99994 11.108 2.03874 10.926 2.11412C10.744 2.18951 10.5786 2.29999 10.4393 2.43928C10.3001 2.57857 10.1896 2.74393 10.1142 2.92592C10.0388 3.10791 10 3.30296 10 3.49994C10 3.69693 10.0388 3.89198 10.1142 4.07397C10.1896 4.25596 10.3001 4.42132 10.4393 4.5606C10.5786 4.69989 10.744 4.81038 10.926 4.88576C11.108 4.96114 11.303 4.99994 11.5 4.99994C11.8978 4.99994 12.2794 4.84191 12.5607 4.5606C12.842 4.2793 13 3.89777 13 3.49994C13 3.10212 12.842 2.72059 12.5607 2.43928C12.2794 2.15798 11.8978 1.99994 11.5 1.99994ZM9.05 2.99994C9.16476 2.4348 9.47136 1.92671 9.91787 1.56175C10.3644 1.1968 10.9233 0.997437 11.5 0.997437C12.0767 0.997437 12.6356 1.1968 13.0821 1.56175C13.5286 1.92671 13.8352 2.4348 13.95 2.99994H16V3.99994H13.95C13.8352 4.56509 13.5286 5.07318 13.0821 5.43813C12.6356 5.80308 12.0767 6.00245 11.5 6.00245C10.9233 6.00245 10.3644 5.80308 9.91787 5.43813C9.47136 5.07318 9.16476 4.56509 9.05 3.99994H0V2.99994H9.05ZM4.5 6.99994C4.10218 6.99994 3.72064 7.15798 3.43934 7.43928C3.15804 7.72059 3 8.10212 3 8.49994C3 8.89777 3.15804 9.2793 3.43934 9.5606C3.72064 9.84191 4.10218 9.99994 4.5 9.99994C4.89782 9.99994 5.27936 9.84191 5.56066 9.5606C5.84196 9.2793 6 8.89777 6 8.49994C6 8.10212 5.84196 7.72059 5.56066 7.43928C5.27936 7.15798 4.89782 6.99994 4.5 6.99994ZM2.05 7.99994C2.16476 7.4348 2.47136 6.92671 2.91787 6.56175C3.36438 6.1968 3.92332 5.99744 4.5 5.99744C5.07668 5.99744 5.63562 6.1968 6.08213 6.56175C6.52864 6.92671 6.83524 7.4348 6.95 7.99994H16V8.99994H6.95C6.83524 9.56509 6.52864 10.0732 6.08213 10.4381C5.63562 10.8031 5.07668 11.0024 4.5 11.0024C3.92332 11.0024 3.36438 10.8031 2.91787 10.4381C2.47136 10.0732 2.16476 9.56509 2.05 8.99994H0V7.99994H2.05ZM11.5 11.9999C11.1022 11.9999 10.7206 12.158 10.4393 12.4393C10.158 12.7206 10 13.1021 10 13.4999C10 13.8978 10.158 14.2793 10.4393 14.5606C10.7206 14.8419 11.1022 14.9999 11.5 14.9999C11.8978 14.9999 12.2794 14.8419 12.5607 14.5606C12.842 14.2793 13 13.8978 13 13.4999C13 13.1021 12.842 12.7206 12.5607 12.4393C12.2794 12.158 11.8978 11.9999 11.5 11.9999ZM9.05 12.9999C9.16476 12.4348 9.47136 11.9267 9.91787 11.5618C10.3644 11.1968 10.9233 10.9974 11.5 10.9974C12.0767 10.9974 12.6356 11.1968 13.0821 11.5618C13.5286 11.9267 13.8352 12.4348 13.95 12.9999H16V13.9999H13.95C13.8352 14.5651 13.5286 15.0732 13.0821 15.4381C12.6356 15.8031 12.0767 16.0024 11.5 16.0024C10.9233 16.0024 10.3644 15.8031 9.91787 15.4381C9.47136 15.0732 9.16476 14.5651 9.05 13.9999H0V12.9999H9.05Z" fill="black"/>
</g>
<defs>
<clipPath id="clip0_104_3213">
<rect width="16" height="16" fill="white"/>
</clipPath>
</defs>
</svg>
