<svg width="16" height="16" viewBox="0 0 16 16" xmlns="http://www.w3.org/2000/svg" fill='currentColor'><path d="M9 5C9 4.86739 8.94732 4.74021 8.85355 4.64645C8.75979 4.55268 8.63261 4.5 8.5 4.5C8.36739 4.5 8.24021 4.55268 8.14645 4.64645C8.05268 4.74021 8 4.86739 8 5V8H6C5.86739 8 5.74021 8.05268 5.64645 8.14645C5.55268 8.24021 5.5 8.36739 5.5 8.5C5.5 8.63261 5.55268 8.75979 5.64645 8.85355C5.74021 8.94732 5.86739 9 6 9H8.5C8.63261 9 8.75979 8.94732 8.85355 8.85355C8.94732 8.75979 9 8.63261 9 8.5V5Z"/><path d="M4 1.667V2.05C3.43532 2.16527 2.9278 2.47209 2.56335 2.91855C2.19889 3.36501 1.99988 3.92367 2 4.5V11.5C1.99988 12.0763 2.19889 12.635 2.56335 13.0815C2.9278 13.5279 3.43532 13.8347 4 13.95V14.333C4 15.253 4.746 16 5.667 16H10.333C11.253 16 12 15.254 12 14.333V13.95C12.5647 13.8347 13.0722 13.5279 13.4367 13.0815C13.8011 12.635 14.0001 12.0763 14 11.5V8H14.5C14.6326 8 14.7598 7.94732 14.8536 7.85355C14.9473 7.75979 15 7.63261 15 7.5V5.5C15 5.36739 14.9473 5.24021 14.8536 5.14645C14.7598 5.05268 14.6326 5 14.5 5H14V4.5C14.0001 3.92367 13.8011 3.36501 13.4367 2.91855C13.0722 2.47209 12.5647 2.16527 12 2.05V1.667C12 0.747 11.254 0 10.333 0H5.667C4.747 0 4 0.746 4 1.667ZM4.5 3H11.5C11.8978 3 12.2794 3.15804 12.5607 3.43934C12.842 3.72064 13 4.10218 13 4.5V11.5C13 11.8978 12.842 12.2794 12.5607 12.5607C12.2794 12.842 11.8978 13 11.5 13H4.5C4.10218 13 3.72064 12.842 3.43934 12.5607C3.15804 12.2794 3 11.8978 3 11.5V4.5C3 4.10218 3.15804 3.72064 3.43934 3.43934C3.72064 3.15804 4.10218 3 4.5 3Z"/></svg>