<svg width="16" height="16" viewBox="0 0 16 16" xmlns="http://www.w3.org/2000/svg" fill='currentColor'><g clip-path="url(#clip0_104_3218)"><path d="M15.943 11.526C15.832 11.223 15.62 11.061 15.379 10.927C15.3391 10.9037 15.298 10.8823 15.256 10.863L15.037 10.752C14.285 10.353 13.698 9.85 13.291 9.254C13.1752 9.08638 13.0748 8.90866 12.991 8.723C12.957 8.623 12.959 8.567 12.983 8.516C13.008 8.47629 13.0411 8.44224 13.08 8.416C13.209 8.33 13.342 8.243 13.432 8.185C13.594 8.081 13.721 7.998 13.803 7.94C14.112 7.724 14.328 7.494 14.463 7.238C14.5571 7.06093 14.6119 6.86567 14.6238 6.66551C14.6357 6.46536 14.6044 6.26498 14.532 6.078C14.327 5.54 13.819 5.206 13.203 5.206C13.0385 5.20567 12.8747 5.22753 12.716 5.271C12.722 4.903 12.714 4.514 12.681 4.132C12.565 2.788 12.094 2.084 11.604 1.522C11.2899 1.17019 10.9199 0.872537 10.509 0.641C9.764 0.216 8.92 0 7.999 0C7.079 0 6.239 0.216 5.494 0.641C5.082 0.873 4.712 1.171 4.397 1.524C3.907 2.086 3.437 2.791 3.32 4.134C3.287 4.516 3.28 4.906 3.284 5.272C3.12533 5.22854 2.96152 5.20668 2.797 5.207C2.182 5.207 1.673 5.542 1.469 6.08C1.39619 6.26699 1.36449 6.46746 1.37605 6.6678C1.38761 6.86813 1.44216 7.06363 1.536 7.241C1.672 7.497 1.888 7.727 2.196 7.942C2.278 8 2.406 8.082 2.567 8.188L2.906 8.409C2.9495 8.4378 2.9866 8.47524 3.015 8.519C3.041 8.572 3.042 8.629 3.003 8.736C2.9203 8.91775 2.82158 9.09177 2.708 9.256C2.31 9.839 1.74 10.333 1.012 10.728C0.627 10.932 0.226 11.068 0.0570004 11.528C-0.0709996 11.876 0.0130005 12.271 0.337 12.603C0.456 12.728 0.594 12.833 0.746 12.913C1.06182 13.0865 1.39764 13.2208 1.746 13.313C1.81792 13.3314 1.88621 13.3619 1.948 13.403C2.066 13.507 2.05 13.663 2.207 13.891C2.286 14.009 2.387 14.111 2.503 14.191C2.833 14.42 3.204 14.434 3.598 14.449C3.953 14.463 4.356 14.479 4.815 14.629C5.005 14.693 5.204 14.815 5.433 14.957C5.983 15.295 6.738 15.759 7.999 15.759C9.261 15.759 10.019 15.293 10.575 14.953C10.802 14.813 10.999 14.693 11.184 14.632C11.644 14.48 12.047 14.464 12.402 14.451C12.795 14.436 13.166 14.421 13.497 14.193C13.6348 14.0966 13.7495 13.9709 13.833 13.825C13.947 13.633 13.943 13.498 14.05 13.405C14.108 13.3655 14.1722 13.3361 14.24 13.318C14.5933 13.2255 14.9339 13.0898 15.254 12.914C15.414 12.827 15.56 12.714 15.683 12.578L15.687 12.573C15.991 12.248 16.067 11.864 15.943 11.526ZM14.822 12.128C14.138 12.506 13.683 12.465 13.329 12.693C13.029 12.886 13.207 13.303 12.989 13.453C12.72 13.639 11.928 13.441 10.904 13.779C10.059 14.058 9.52 14.861 8.001 14.861C6.482 14.861 5.956 14.06 5.097 13.777C4.075 13.439 3.281 13.637 3.013 13.452C2.795 13.302 2.972 12.884 2.672 12.691C2.318 12.463 1.863 12.504 1.18 12.128C0.744 11.888 0.991001 11.738 1.136 11.668C3.614 10.469 4.009 8.618 4.026 8.48C4.048 8.314 4.071 8.183 3.888 8.014C3.711 7.85 2.926 7.364 2.708 7.212C2.348 6.96 2.188 6.709 2.306 6.4C2.388 6.186 2.587 6.105 2.796 6.105C2.86226 6.10529 2.92831 6.11267 2.993 6.127C3.389 6.213 3.773 6.412 3.995 6.465C4.022 6.472 4.049 6.475 4.077 6.476C4.195 6.476 4.237 6.416 4.229 6.281C4.203 5.848 4.142 5.004 4.21 4.215C4.304 3.131 4.654 2.593 5.069 2.118C5.269 1.889 6.206 0.898 7.999 0.898C9.791 0.898 10.731 1.885 10.93 2.113C11.346 2.588 11.696 3.126 11.789 4.211C11.857 4.999 11.798 5.843 11.77 6.276C11.76 6.418 11.804 6.471 11.922 6.471C11.9496 6.47092 11.9772 6.46756 12.004 6.461C12.226 6.407 12.611 6.208 13.006 6.123C13.0706 6.10819 13.1367 6.10048 13.203 6.1C13.413 6.1 13.612 6.182 13.693 6.395C13.81 6.704 13.653 6.955 13.292 7.207C13.074 7.359 12.289 7.845 12.112 8.009C11.928 8.178 11.952 8.309 11.973 8.475C11.991 8.615 12.386 10.466 14.863 11.664C15.01 11.737 15.257 11.886 14.822 12.128Z"/></g><defs><clipPath id="clip0_104_3218"><rect width="16" height="16"/></clipPath></defs></svg>