<svg width="16" height="16" viewBox="0 0 16 16" fill="none" xmlns="http://www.w3.org/2000/svg">
<path d="M8 16C7.86739 16 7.74022 15.9473 7.64645 15.8536C7.55268 15.7598 7.5 15.6326 7.5 15.5V14.207L6.854 14.854C6.76011 14.9478 6.63283 15.0004 6.50015 15.0003C6.36747 15.0002 6.24025 14.9474 6.1465 14.8535C6.05275 14.7596 6.00013 14.6323 6.00022 14.4996C6.00032 14.367 6.05311 14.2398 6.147 14.146L7.5 12.793V11.707L6.854 12.354C6.80751 12.4004 6.75234 12.4372 6.69162 12.4623C6.63091 12.4874 6.56585 12.5003 6.50015 12.5003C6.36747 12.5002 6.24025 12.4474 6.1465 12.3535C6.05275 12.2596 6.00013 12.1323 6.00022 11.9996C6.00032 11.867 6.05311 11.7398 6.147 11.646L7.5 10.293V8.866L6.264 9.579L5.769 11.429C5.75193 11.4924 5.72253 11.5519 5.68249 11.6039C5.64244 11.656 5.59253 11.6997 5.53561 11.7325C5.47869 11.7652 5.41587 11.7865 5.35073 11.795C5.2856 11.8035 5.21943 11.7991 5.156 11.782C5.09257 11.7649 5.03313 11.7355 4.98106 11.6955C4.92899 11.6554 4.88532 11.6055 4.85254 11.5486C4.81977 11.4917 4.79852 11.4289 4.79002 11.3637C4.78152 11.2986 4.78593 11.2324 4.803 11.169L5.04 10.287L4.1 10.829L3.604 12.679C3.56952 12.8071 3.48557 12.9163 3.37061 12.9825C3.25565 13.0487 3.1191 13.0665 2.991 13.032C2.8629 12.9975 2.75374 12.9136 2.68754 12.7986C2.62134 12.6836 2.60352 12.5471 2.638 12.419L2.875 11.537L1.755 12.183C1.64022 12.2483 1.50429 12.2655 1.37687 12.2309C1.24945 12.1963 1.14088 12.1127 1.07486 11.9983C1.00885 11.884 0.990734 11.7482 1.02448 11.6205C1.05823 11.4929 1.1411 11.3838 1.255 11.317L2.375 10.671L1.491 10.434C1.42757 10.4169 1.36813 10.3875 1.31606 10.3475C1.26399 10.3074 1.22032 10.2575 1.18754 10.2006C1.15477 10.1437 1.13352 10.0809 1.12502 10.0157C1.11652 9.9506 1.12093 9.88443 1.138 9.821C1.15507 9.75757 1.18447 9.69813 1.22452 9.64606C1.26456 9.59399 1.31447 9.55032 1.37139 9.51754C1.42831 9.48477 1.49114 9.46352 1.55627 9.45502C1.6214 9.44652 1.68757 9.45093 1.751 9.468L3.599 9.963L4.539 9.421L3.657 9.184C3.59261 9.16795 3.53205 9.13924 3.47886 9.09955C3.42568 9.05986 3.38093 9.00997 3.34722 8.9528C3.31351 8.89564 3.29152 8.83233 3.28253 8.76658C3.27354 8.70083 3.27773 8.63394 3.29485 8.56982C3.31197 8.50571 3.34169 8.44564 3.38227 8.39312C3.42285 8.34061 3.47347 8.2967 3.5312 8.26395C3.58892 8.2312 3.65258 8.21028 3.71848 8.20239C3.78437 8.1945 3.85118 8.19981 3.915 8.218L5.765 8.713L7 8L5.764 7.287L3.915 7.782C3.85118 7.8002 3.78437 7.8055 3.71848 7.79761C3.65258 7.78972 3.58892 7.7688 3.5312 7.73605C3.47347 7.7033 3.42285 7.65939 3.38227 7.60688C3.34169 7.55436 3.31197 7.49429 3.29485 7.43018C3.27773 7.36606 3.27354 7.29917 3.28253 7.23342C3.29152 7.16767 3.31351 7.10436 3.34722 7.0472C3.38093 6.99003 3.42568 6.94014 3.47886 6.90045C3.53205 6.86076 3.59261 6.83205 3.657 6.816L4.54 6.579L3.6 6.037L1.75 6.532C1.62273 6.56372 1.4881 6.54416 1.37512 6.47754C1.26214 6.41092 1.17986 6.30258 1.14602 6.17586C1.11217 6.04914 1.12948 5.9142 1.19419 5.80012C1.25891 5.68604 1.36587 5.60196 1.492 5.566L2.375 5.329L1.255 4.683C1.19768 4.65041 1.14737 4.6068 1.10697 4.55469C1.06657 4.50257 1.03687 4.44298 1.0196 4.37935C1.00232 4.31571 0.9978 4.24928 1.0063 4.18389C1.0148 4.1185 1.03615 4.05544 1.06912 3.99834C1.10209 3.94123 1.14603 3.89121 1.19841 3.85116C1.25079 3.8111 1.31058 3.7818 1.37433 3.76495C1.43808 3.7481 1.50453 3.74402 1.56986 3.75295C1.6352 3.76188 1.69812 3.78365 1.755 3.817L2.875 4.463L2.638 3.58C2.60628 3.45273 2.62584 3.3181 2.69246 3.20512C2.75908 3.09214 2.86742 3.00986 2.99414 2.97602C3.12086 2.94217 3.2558 2.95947 3.36988 3.02419C3.48396 3.08891 3.56804 3.19587 3.604 3.322L4.099 5.171L5.039 5.713L4.803 4.83C4.77128 4.70273 4.79084 4.5681 4.85746 4.45512C4.92408 4.34214 5.03242 4.25986 5.15914 4.22602C5.28586 4.19217 5.4208 4.20947 5.53488 4.27419C5.64896 4.33891 5.73304 4.44587 5.769 4.572L6.264 6.421L7.5 7.134V5.707L6.147 4.354C6.05311 4.26025 6.00032 4.13304 6.00022 4.00035C6.00013 3.86767 6.05275 3.74039 6.1465 3.6465C6.24025 3.55261 6.36747 3.49982 6.50015 3.49972C6.63283 3.49963 6.76011 3.55225 6.854 3.646L7.5 4.293V3.207L6.147 1.854C6.10051 1.80758 6.06362 1.75245 6.03844 1.69177C6.01326 1.6311 6.00027 1.56605 6.00022 1.50035C6.00018 1.43466 6.01307 1.36959 6.03817 1.30888C6.06327 1.24816 6.10008 1.19299 6.1465 1.1465C6.19292 1.10001 6.24805 1.06312 6.30873 1.03794C6.36941 1.01275 6.43445 0.999768 6.50015 0.999722C6.56585 0.999676 6.63091 1.01257 6.69162 1.03767C6.75234 1.06277 6.80751 1.09958 6.854 1.146L7.5 1.793V0.5C7.5 0.367392 7.55268 0.240215 7.64645 0.146447C7.74022 0.0526784 7.86739 0 8 0C8.13261 0 8.25979 0.0526784 8.35355 0.146447C8.44732 0.240215 8.5 0.367392 8.5 0.5V1.793L9.147 1.146C9.24089 1.05225 9.36817 0.999628 9.50085 0.999722C9.63354 0.999816 9.76075 1.05261 9.8545 1.1465C9.94825 1.24039 10.0009 1.36767 10.0008 1.50035C10.0007 1.63304 9.94789 1.76025 9.854 1.854L8.5 3.207V4.293L9.147 3.646C9.24089 3.55225 9.36817 3.49963 9.50085 3.49972C9.63354 3.49982 9.76075 3.55261 9.8545 3.6465C9.94825 3.74039 10.0009 3.86767 10.0008 4.00035C10.0007 4.13304 9.94789 4.26025 9.854 4.354L8.5 5.707V7.134L9.736 6.421L10.231 4.571C10.2481 4.50757 10.2775 4.44813 10.3175 4.39606C10.3576 4.34399 10.4075 4.30032 10.4644 4.26754C10.5213 4.23476 10.5841 4.21352 10.6493 4.20502C10.7144 4.19652 10.7806 4.20093 10.844 4.218C10.9074 4.23507 10.9669 4.26447 11.0189 4.30451C11.071 4.34456 11.1147 4.39447 11.1475 4.45139C11.1802 4.50831 11.2015 4.57113 11.21 4.63627C11.2185 4.7014 11.2141 4.76757 11.197 4.831L10.961 5.713L11.901 5.171L12.396 3.321C12.4305 3.1929 12.5144 3.08374 12.6294 3.01754C12.7444 2.95134 12.8809 2.93352 13.009 2.968C13.1371 3.00248 13.2463 3.08643 13.3125 3.20139C13.3787 3.31635 13.3965 3.4529 13.362 3.581L13.126 4.463L14.246 3.817C14.3608 3.75174 14.4967 3.73453 14.6241 3.76913C14.7516 3.80372 14.8601 3.88731 14.9261 4.00165C14.9922 4.116 15.0103 4.25181 14.9765 4.37946C14.9428 4.50711 14.8599 4.61622 14.746 4.683L13.626 5.329L14.509 5.566C14.6371 5.60048 14.7463 5.68443 14.8125 5.79939C14.8787 5.91435 14.8965 6.0509 14.862 6.179C14.8275 6.3071 14.7436 6.41626 14.6286 6.48246C14.5136 6.54866 14.3771 6.56648 14.249 6.532L12.401 6.037L11.461 6.579L12.344 6.816C12.4721 6.85048 12.5813 6.93443 12.6475 7.04939C12.7137 7.16435 12.7315 7.3009 12.697 7.429C12.6625 7.5571 12.5786 7.66626 12.4636 7.73246C12.3486 7.79866 12.2121 7.81648 12.084 7.782L10.236 7.287L9 8L10.236 8.713L12.085 8.218C12.2131 8.18365 12.3496 8.2016 12.4645 8.2679C12.5793 8.33419 12.6632 8.4434 12.6975 8.5715C12.7318 8.6996 12.7139 8.8361 12.6476 8.95096C12.5813 9.06583 12.4721 9.14965 12.344 9.184L11.461 9.421L12.401 9.963L14.25 9.468C14.3781 9.43365 14.5146 9.4516 14.6295 9.5179C14.7443 9.58419 14.8282 9.6934 14.8625 9.8215C14.8968 9.9496 14.8789 10.0861 14.8126 10.201C14.7463 10.3158 14.6371 10.3997 14.509 10.434L13.626 10.671L14.746 11.317C14.8599 11.3838 14.9428 11.4929 14.9765 11.6205C15.0103 11.7482 14.9922 11.884 14.9261 11.9983C14.8601 12.1127 14.7516 12.1963 14.6241 12.2309C14.4967 12.2655 14.3608 12.2483 14.246 12.183L13.126 11.537L13.362 12.42C13.3802 12.4838 13.3855 12.5506 13.3776 12.6165C13.3697 12.6824 13.3488 12.7461 13.316 12.8038C13.2833 12.8615 13.2394 12.9122 13.1869 12.9527C13.1344 12.9933 13.0743 13.023 13.0102 13.0402C12.9461 13.0573 12.8792 13.0615 12.8134 13.0525C12.7477 13.0435 12.6844 13.0215 12.6272 12.9878C12.57 12.9541 12.5201 12.9093 12.4805 12.8561C12.4408 12.803 12.4121 12.7424 12.396 12.678L11.901 10.829L10.961 10.287L11.197 11.17C11.2287 11.2973 11.2092 11.4319 11.1425 11.5449C11.0759 11.6579 10.9676 11.7401 10.8409 11.774C10.7141 11.8078 10.5792 11.7905 10.4651 11.7258C10.351 11.6611 10.267 11.5541 10.231 11.428L9.736 9.58L8.5 8.866V10.293L9.854 11.646C9.94789 11.7398 10.0007 11.867 10.0008 11.9996C10.0009 12.1323 9.94825 12.2596 9.8545 12.3535C9.76075 12.4474 9.63354 12.5002 9.50085 12.5003C9.36817 12.5004 9.24089 12.4478 9.147 12.354L8.5 11.707V12.793L9.854 14.146C9.94789 14.2398 10.0007 14.367 10.0008 14.4996C10.0009 14.6323 9.94825 14.7596 9.8545 14.8535C9.76075 14.9474 9.63354 15.0002 9.50085 15.0003C9.36817 15.0004 9.24089 14.9478 9.147 14.854L8.5 14.207V15.5C8.5 15.6326 8.44732 15.7598 8.35355 15.8536C8.25979 15.9473 8.13261 16 8 16Z" fill="black"/>
</svg>
