<svg width="24" height="24" viewBox="0 0 24 24" xmlns="http://www.w3.org/2000/svg" fill='currentColor'><path d="M13.999 3.24951C13.999 2.14951 14.899 1.24951 15.999 1.24951C17.099 1.24951 17.999 2.14951 17.999 3.24951C17.999 4.34951 17.099 5.24951 15.999 5.24951C14.899 5.24951 13.999 4.34951 13.999 3.24951ZM21.399 20.3395C21.169 20.2895 20.939 20.3595 20.759 20.5095C20.069 21.1095 19.119 21.3895 18.159 21.1795L16.999 20.9395L15.999 14.7495L12.679 12.0795L14.479 9.18951C15.629 11.0295 17.679 12.2495 19.999 12.2495V10.2495C18.149 10.2495 16.559 9.12951 15.869 7.52951L15.349 6.31951C15.159 5.88951 14.609 5.24951 13.699 5.24951H7.99904L5.49904 9.24951L7.19904 10.3095L9.09904 7.24951H11.449L8.93904 11.2395C8.65904 11.6895 8.56904 12.2395 8.68904 12.7595L9.49904 16.2495L5.99904 18.5995L5.52904 18.4995C4.56904 18.2995 3.81904 17.6495 3.42904 16.8295C3.32904 16.6195 3.14904 16.4595 2.91904 16.4095C2.48904 16.3195 2.09904 16.6095 2.01904 16.9895C1.97904 17.1295 1.99904 17.2995 2.06904 17.4495C2.64904 18.6895 3.77904 19.6495 5.21904 19.9595L17.849 22.6495C19.289 22.9595 20.709 22.5395 21.749 21.6395C21.879 21.5295 21.959 21.3795 21.989 21.2295C22.059 20.8495 21.829 20.4295 21.399 20.3395ZM8.72904 19.1795L11.749 17.1495L11.309 13.8295L14.149 15.8495L14.899 20.4895L8.72904 19.1795Z"/></svg>