<svg width="16" height="16" viewBox="0 0 16 16" fill="none" xmlns="http://www.w3.org/2000/svg">
<path d="M8 7.5C7.86739 7.5 7.74021 7.55268 7.64645 7.64645C7.55268 7.74021 7.5 7.86739 7.5 8C7.5 8.13261 7.55268 8.25979 7.64645 8.35355C7.74021 8.44732 7.86739 8.5 8 8.5C8.13261 8.5 8.25979 8.44732 8.35355 8.35355C8.44732 8.25979 8.5 8.13261 8.5 8C8.5 7.86739 8.44732 7.74021 8.35355 7.64645C8.25979 7.55268 8.13261 7.5 8 7.5Z" fill="black"/>
<path d="M8 16C7.86739 16 7.74021 15.9473 7.64645 15.8536C7.55268 15.7598 7.5 15.6326 7.5 15.5V14.207L6.854 14.854C6.76011 14.9478 6.63283 15.0004 6.50015 15.0003C6.36746 15.0002 6.24025 14.9474 6.1465 14.8535C6.05275 14.7596 6.00013 14.6323 6.00022 14.4996C6.00032 14.367 6.05311 14.2398 6.147 14.146L7.5 12.793V11.283L5.447 10.051L4.099 10.829L3.604 12.679C3.58693 12.7424 3.55753 12.8019 3.51748 12.8539C3.47744 12.906 3.42753 12.9497 3.37061 12.9825C3.31369 13.0152 3.25086 13.0365 3.18573 13.045C3.1206 13.0535 3.05443 13.0491 2.991 13.032C2.92757 13.0149 2.86813 12.9855 2.81606 12.9455C2.76399 12.9054 2.72032 12.8555 2.68754 12.7986C2.65476 12.7417 2.63352 12.6789 2.62502 12.6137C2.61652 12.5486 2.62093 12.4824 2.638 12.419L2.875 11.537L1.755 12.183C1.64022 12.2483 1.50429 12.2655 1.37687 12.2309C1.24945 12.1963 1.14088 12.1127 1.07486 11.9983C1.00884 11.884 0.990733 11.7482 1.02448 11.6205C1.05823 11.4929 1.1411 11.3838 1.255 11.317L2.375 10.671L1.492 10.434C1.4276 10.418 1.36705 10.3892 1.31386 10.3495C1.26068 10.3099 1.21592 10.26 1.18222 10.2028C1.14851 10.1456 1.12652 10.0823 1.11753 10.0166C1.10854 9.95083 1.11272 9.88394 1.12985 9.81982C1.14697 9.75571 1.17669 9.69564 1.21727 9.64312C1.25785 9.59061 1.30847 9.5467 1.3662 9.51395C1.42392 9.4812 1.48758 9.46028 1.55348 9.45239C1.61937 9.4445 1.68618 9.44981 1.75 9.468L3.6 9.963L5 9.155V6.845L3.6 6.037L1.75 6.532C1.68657 6.54901 1.62041 6.55335 1.55531 6.54479C1.4902 6.53623 1.42741 6.51493 1.37054 6.4821C1.31366 6.44928 1.26381 6.40557 1.22382 6.35348C1.18384 6.30139 1.15451 6.24193 1.1375 6.1785C1.12049 6.11507 1.11615 6.04891 1.12471 5.98381C1.13327 5.9187 1.15457 5.85591 1.1874 5.79904C1.22022 5.74216 1.26393 5.69231 1.31602 5.65232C1.36811 5.61234 1.42757 5.58301 1.491 5.566L2.375 5.329L1.255 4.683C1.1411 4.61622 1.05823 4.50711 1.02448 4.37946C0.990733 4.25181 1.00884 4.116 1.07486 4.00165C1.14088 3.88731 1.24945 3.80372 1.37687 3.76913C1.50429 3.73453 1.64022 3.75174 1.755 3.817L2.875 4.463L2.638 3.58C2.6198 3.51618 2.6145 3.44937 2.62239 3.38348C2.63028 3.31758 2.6512 3.25392 2.68395 3.1962C2.7167 3.13847 2.76061 3.08785 2.81312 3.04727C2.86564 3.00669 2.92571 2.97697 2.98982 2.95985C3.05394 2.94272 3.12083 2.93854 3.18658 2.94753C3.25233 2.95652 3.31564 2.97851 3.3728 3.01222C3.42997 3.04593 3.47986 3.09068 3.51955 3.14386C3.55924 3.19705 3.58795 3.2576 3.604 3.322L4.099 5.171L5.447 5.949L7.5 4.717V3.207L6.147 1.854C6.10051 1.80758 6.06362 1.75245 6.03844 1.69177C6.01325 1.6311 6.00027 1.56605 6.00022 1.50035C6.00017 1.43466 6.01307 1.36959 6.03817 1.30888C6.06327 1.24816 6.10008 1.19299 6.1465 1.1465C6.19292 1.10001 6.24805 1.06312 6.30872 1.03794C6.3694 1.01275 6.43445 0.999768 6.50015 0.999722C6.56584 0.999676 6.63091 1.01257 6.69162 1.03767C6.75234 1.06277 6.80751 1.09958 6.854 1.146L7.5 1.793V0.5C7.5 0.367392 7.55268 0.240215 7.64645 0.146447C7.74021 0.0526784 7.86739 0 8 0C8.13261 0 8.25979 0.0526784 8.35355 0.146447C8.44732 0.240215 8.5 0.367392 8.5 0.5V1.793L9.147 1.146C9.24089 1.05225 9.36817 0.999628 9.50085 0.999722C9.63354 0.999816 9.76075 1.05261 9.8545 1.1465C9.94825 1.24039 10.0009 1.36767 10.0008 1.50035C10.0007 1.63304 9.94789 1.76025 9.854 1.854L8.5 3.207V4.717L10.553 5.949L11.901 5.171L12.396 3.321C12.4305 3.1929 12.5144 3.08374 12.6294 3.01754C12.7444 2.95134 12.8809 2.93352 13.009 2.968C13.1371 3.00248 13.2463 3.08643 13.3125 3.20139C13.3787 3.31635 13.3965 3.4529 13.362 3.581L13.126 4.463L14.246 3.817C14.3608 3.75174 14.4967 3.73453 14.6241 3.76913C14.7516 3.80372 14.8601 3.88731 14.9261 4.00165C14.9922 4.116 15.0103 4.25181 14.9765 4.37946C14.9428 4.50711 14.8599 4.61622 14.746 4.683L13.626 5.329L14.509 5.566C14.6371 5.60048 14.7463 5.68443 14.8125 5.79939C14.8787 5.91435 14.8965 6.0509 14.862 6.179C14.8275 6.3071 14.7436 6.41626 14.6286 6.48246C14.5136 6.54866 14.3771 6.56648 14.249 6.532L12.401 6.037L11.001 6.845V9.155L12.401 9.963L14.25 9.468C14.3781 9.43365 14.5146 9.4516 14.6295 9.5179C14.7443 9.58419 14.8282 9.6934 14.8625 9.8215C14.8968 9.9496 14.8789 10.0861 14.8126 10.201C14.7463 10.3158 14.6371 10.3997 14.509 10.434L13.626 10.671L14.746 11.317C14.8599 11.3838 14.9428 11.4929 14.9765 11.6205C15.0103 11.7482 14.9922 11.884 14.9261 11.9983C14.8601 12.1127 14.7516 12.1963 14.6241 12.2309C14.4967 12.2655 14.3608 12.2483 14.246 12.183L13.126 11.537L13.362 12.42C13.3802 12.4838 13.3855 12.5506 13.3776 12.6165C13.3697 12.6824 13.3488 12.7461 13.316 12.8038C13.2833 12.8615 13.2394 12.9122 13.1869 12.9527C13.1344 12.9933 13.0743 13.023 13.0102 13.0402C12.9461 13.0573 12.8792 13.0615 12.8134 13.0525C12.7477 13.0435 12.6844 13.0215 12.6272 12.9878C12.57 12.9541 12.5201 12.9093 12.4805 12.8561C12.4408 12.803 12.412 12.7424 12.396 12.678L11.901 10.829L10.553 10.051L8.5 11.283V12.793L9.854 14.146C9.94789 14.2398 10.0007 14.367 10.0008 14.4996C10.0009 14.6323 9.94825 14.7596 9.8545 14.8535C9.76075 14.9474 9.63354 15.0002 9.50085 15.0003C9.36817 15.0004 9.24089 14.9478 9.147 14.854L8.5 14.207V15.5C8.5 15.6326 8.44732 15.7598 8.35355 15.8536C8.25979 15.9473 8.13261 16 8 16ZM10 9.217V6.783L8 5.583L6 6.783V9.217L8 10.417L10 9.217Z" fill="black"/>
</svg>
