<svg xmlns="http://www.w3.org/2000/svg" width="24" height="24" viewBox="0 0 24 24" fill='currentColor'><path d="M12.5 3.25c0-1.1.9-2 2-2s2 .9 2 2-.9 2-2 2-2-.9-2-2M6.32 18.78l-1.14-1.47-1.18.94 2.38 3.04c.51.65 1.16 1.15 1.88 1.41.28.1.53.04.72-.11.3-.23.42-.7.12-1.07a.84.84 0 0 0-.31-.22 3 3 0 0 1-1.14-.83l-.08-.1L11 17.95l.89-3.22 2.11 2v4.52h-2v1.5h3.87c.82 0 1.61-.21 2.26-.61.26-.16.37-.39.37-.64 0-.38-.3-.75-.77-.75-.13 0-.26.04-.37.1-.4.23-.87.37-1.36.4v-6.02l-2.11-2 .6-3c1.3 1.5 3.31 2.52 5.51 2.52v-2c-1.9 0-3.51-1.02-4.31-2.42l-1-1.58c-.4-.6-1-1-1.7-1-.75 0-1.41.34-5.99 2.28v4.72h2V9.33l1.79-.7-1.59 8.12z"/></svg>