<svg width="16" height="16" viewBox="0 0 16 16" fill="none" xmlns="http://www.w3.org/2000/svg">
<path d="M8 16C7.86739 16 7.74022 15.9473 7.64645 15.8536C7.55268 15.7598 7.5 15.6326 7.5 15.5V14.207L6.854 14.854C6.76011 14.9478 6.63283 15.0004 6.50015 15.0003C6.36747 15.0002 6.24025 14.9474 6.1465 14.8535C6.05275 14.7596 6.00013 14.6323 6.00022 14.4996C6.00032 14.367 6.05311 14.2398 6.147 14.146L7.5 12.793V8.866L4.1 10.829L3.604 12.679C3.56952 12.8071 3.48557 12.9163 3.37061 12.9825C3.25565 13.0487 3.1191 13.0665 2.991 13.032C2.8629 12.9975 2.75374 12.9136 2.68754 12.7986C2.62134 12.6836 2.60352 12.5471 2.638 12.419L2.875 11.537L1.755 12.183C1.64022 12.2483 1.50429 12.2655 1.37687 12.2309C1.24945 12.1963 1.14088 12.1127 1.07486 11.9983C1.00885 11.884 0.990734 11.7482 1.02448 11.6205C1.05823 11.4929 1.1411 11.3838 1.255 11.317L2.375 10.671L1.491 10.434C1.42757 10.4169 1.36813 10.3875 1.31606 10.3475C1.26399 10.3074 1.22032 10.2575 1.18754 10.2006C1.15477 10.1437 1.13352 10.0809 1.12502 10.0157C1.11652 9.9506 1.12093 9.88443 1.138 9.821C1.15507 9.75757 1.18447 9.69813 1.22452 9.64606C1.26456 9.59399 1.31447 9.55032 1.37139 9.51754C1.42831 9.48477 1.49114 9.46352 1.55627 9.45502C1.6214 9.44652 1.68757 9.45093 1.751 9.468L3.599 9.963L7 8L3.6 6.037L1.75 6.532C1.62273 6.56372 1.4881 6.54416 1.37512 6.47754C1.26214 6.41092 1.17986 6.30258 1.14602 6.17586C1.11217 6.04914 1.12948 5.9142 1.19419 5.80012C1.25891 5.68604 1.36587 5.60196 1.492 5.566L2.375 5.329L1.255 4.683C1.19768 4.65041 1.14737 4.6068 1.10697 4.55469C1.06657 4.50257 1.03687 4.44298 1.0196 4.37935C1.00232 4.31571 0.9978 4.24928 1.0063 4.18389C1.0148 4.1185 1.03615 4.05544 1.06912 3.99834C1.10209 3.94123 1.14603 3.89121 1.19841 3.85116C1.25079 3.8111 1.31058 3.7818 1.37433 3.76495C1.43808 3.7481 1.50453 3.74402 1.56986 3.75295C1.6352 3.76188 1.69812 3.78365 1.755 3.817L2.875 4.463L2.638 3.58C2.61981 3.51618 2.6145 3.44937 2.62239 3.38348C2.63028 3.31758 2.65121 3.25392 2.68395 3.1962C2.7167 3.13847 2.76061 3.08785 2.81313 3.04727C2.86564 3.00669 2.92571 2.97697 2.98982 2.95985C3.05394 2.94272 3.12083 2.93854 3.18658 2.94753C3.25233 2.95652 3.31564 2.97851 3.37281 3.01222C3.42997 3.04593 3.47986 3.09068 3.51955 3.14386C3.55924 3.19705 3.58795 3.2576 3.604 3.322L4.099 5.171L7.5 7.134V3.207L6.147 1.854C6.10051 1.80758 6.06362 1.75245 6.03844 1.69177C6.01326 1.6311 6.00027 1.56605 6.00022 1.50035C6.00018 1.43466 6.01307 1.36959 6.03817 1.30888C6.06327 1.24816 6.10008 1.19299 6.1465 1.1465C6.19292 1.10001 6.24805 1.06312 6.30873 1.03794C6.36941 1.01275 6.43445 0.999768 6.50015 0.999722C6.56585 0.999676 6.63091 1.01257 6.69162 1.03767C6.75234 1.06277 6.80751 1.09958 6.854 1.146L7.5 1.793V0.5C7.5 0.367392 7.55268 0.240215 7.64645 0.146447C7.74022 0.0526784 7.86739 0 8 0C8.13261 0 8.25979 0.0526784 8.35355 0.146447C8.44732 0.240215 8.5 0.367392 8.5 0.5V1.793L9.147 1.146C9.24089 1.05225 9.36817 0.999628 9.50085 0.999722C9.63354 0.999816 9.76075 1.05261 9.8545 1.1465C9.94825 1.24039 10.0009 1.36767 10.0008 1.50035C10.0007 1.63304 9.94789 1.76025 9.854 1.854L8.5 3.207V7.134L11.9 5.171L12.396 3.321C12.4305 3.1929 12.5144 3.08374 12.6294 3.01754C12.7444 2.95134 12.8809 2.93352 13.009 2.968C13.1371 3.00248 13.2463 3.08643 13.3125 3.20139C13.3787 3.31635 13.3965 3.4529 13.362 3.581L13.126 4.463L14.246 3.817C14.3608 3.75174 14.4967 3.73453 14.6241 3.76913C14.7516 3.80372 14.8601 3.88731 14.9261 4.00165C14.9922 4.116 15.0103 4.25181 14.9765 4.37946C14.9428 4.50711 14.8599 4.61622 14.746 4.683L13.626 5.329L14.509 5.566C14.6371 5.60048 14.7463 5.68443 14.8125 5.79939C14.8787 5.91435 14.8965 6.0509 14.862 6.179C14.8275 6.3071 14.7436 6.41626 14.6286 6.48246C14.5136 6.54866 14.3771 6.56648 14.249 6.532L12.401 6.037L9 8L12.4 9.963L14.249 9.468C14.3771 9.43365 14.5136 9.4516 14.6285 9.5179C14.7433 9.58419 14.8272 9.6934 14.8615 9.8215C14.8958 9.9496 14.8779 10.0861 14.8116 10.201C14.7453 10.3158 14.6361 10.3997 14.508 10.434L13.625 10.671L14.745 11.317C14.8589 11.3838 14.9418 11.4929 14.9755 11.6205C15.0093 11.7482 14.9912 11.884 14.9251 11.9983C14.8591 12.1127 14.7506 12.1963 14.6231 12.2309C14.4957 12.2655 14.3598 12.2483 14.245 12.183L13.125 11.537L13.361 12.42C13.3792 12.4838 13.3845 12.5506 13.3766 12.6165C13.3687 12.6824 13.3478 12.7461 13.315 12.8038C13.2823 12.8615 13.2384 12.9122 13.1859 12.9527C13.1334 12.9933 13.0733 13.023 13.0092 13.0402C12.9451 13.0573 12.8782 13.0615 12.8124 13.0525C12.7467 13.0435 12.6834 13.0215 12.6262 12.9878C12.569 12.9541 12.5191 12.9093 12.4795 12.8561C12.4398 12.803 12.4111 12.7424 12.395 12.678L11.9 10.829L8.5 8.866V12.793L9.853 14.146C9.94689 14.2398 9.99969 14.367 9.99978 14.4996C9.99987 14.6323 9.94726 14.7596 9.8535 14.8535C9.75975 14.9474 9.63254 15.0002 9.49985 15.0003C9.36717 15.0004 9.23989 14.9478 9.146 14.854L8.499 14.207V15.5C8.499 15.6326 8.44632 15.7598 8.35255 15.8536C8.25879 15.9473 8.13161 16 7.999 16H8Z" fill="black"/>
</svg>
