<svg width="24" height="24" viewBox="0 0 24 24" fill="none" xmlns="http://www.w3.org/2000/svg">
<path d="M3.33 16H11V13H4L3.33 16Z" fill="#31373A"/>
<path d="M13 16H20.67L20 13H13V16Z" fill="#31373A"/>
<path d="M21.11 18H13V22H22L21.11 18Z" fill="#31373A"/>
<path d="M2 22H11V18H2.89L2 22Z" fill="#31373A"/>
<path d="M13 8H11V11H13V8Z" fill="#31373A"/>
<path d="M17.1787 5.79096L15.7645 7.20516L17.8858 9.32646L19.3 7.91226L17.1787 5.79096Z" fill="#31373A"/>
<path d="M6.82616 5.79149L4.70486 7.91279L6.11906 9.32699L8.24036 7.20569L6.82616 5.79149Z" fill="#31373A"/>
<path d="M6 2H3V4H6V2Z" fill="#31373A"/>
<path d="M21 2H18V4H21V2Z" fill="#31373A"/>
<path d="M12 7C14.76 7 17 4.76 17 2H7C7 4.76 9.24 7 12 7Z" fill="#31373A"/>
</svg>
