<svg width="16" height="16" viewBox="0 0 16 16" fill="none" xmlns="http://www.w3.org/2000/svg">
<path d="M3.49999 13.5C3.49999 13.6326 3.44731 13.7598 3.35354 13.8536C3.25978 13.9473 3.1326 14 2.99999 14C2.86738 14 2.74021 13.9473 2.64644 13.8536C2.55267 13.7598 2.49999 13.6326 2.49999 13.5V4.70703L1.35399 5.85403C1.3075 5.90052 1.25231 5.93739 1.19157 5.96255C1.13083 5.98771 1.06573 6.00066 0.999991 6.00066C0.867215 6.00066 0.739877 5.94791 0.645991 5.85403C0.552104 5.76014 0.499359 5.6328 0.499359 5.50003C0.499359 5.36725 0.552104 5.23991 0.645991 5.14603L2.64599 3.14703L2.65299 3.14003C2.74699 3.04873 2.87319 2.99816 3.00422 2.99929C3.13526 3.00041 3.26057 3.05313 3.35299 3.14603L5.35299 5.14603C5.39948 5.19245 5.43637 5.24757 5.46155 5.30825C5.48674 5.36893 5.49972 5.43398 5.49977 5.49967C5.49982 5.56537 5.48692 5.63044 5.46182 5.69115C5.43672 5.75186 5.39991 5.80704 5.35349 5.85353C5.30707 5.90002 5.25194 5.93691 5.19127 5.96209C5.13059 5.98727 5.06554 6.00026 4.99984 6.00031C4.93415 6.00035 4.86908 5.98746 4.80837 5.96236C4.74766 5.93726 4.69248 5.90045 4.64599 5.85403L3.49999 4.70703V13.5ZM7.49999 4.00003C7.36738 4.00003 7.24021 3.94735 7.14644 3.85358C7.05267 3.75981 6.99999 3.63264 6.99999 3.50003C6.99999 3.36742 7.05267 3.24024 7.14644 3.14647C7.24021 3.05271 7.36738 3.00003 7.49999 3.00003H8.49999C8.6326 3.00003 8.75978 3.05271 8.85354 3.14647C8.94731 3.24024 8.99999 3.36742 8.99999 3.50003C8.99999 3.63264 8.94731 3.75981 8.85354 3.85358C8.75978 3.94735 8.6326 4.00003 8.49999 4.00003H7.49999ZM7.49999 7.00003C7.36738 7.00003 7.24021 6.94735 7.14644 6.85358C7.05267 6.75981 6.99999 6.63264 6.99999 6.50003C6.99999 6.36742 7.05267 6.24024 7.14644 6.14647C7.24021 6.05271 7.36738 6.00003 7.49999 6.00003H10.5C10.6326 6.00003 10.7598 6.05271 10.8535 6.14647C10.9473 6.24024 11 6.36742 11 6.50003C11 6.63264 10.9473 6.75981 10.8535 6.85358C10.7598 6.94735 10.6326 7.00003 10.5 7.00003H7.49999ZM7.49999 10C7.36738 10 7.24021 9.94735 7.14644 9.85358C7.05267 9.75981 6.99999 9.63264 6.99999 9.50003C6.99999 9.36742 7.05267 9.24024 7.14644 9.14647C7.24021 9.05271 7.36738 9.00003 7.49999 9.00003H12.5C12.6326 9.00003 12.7598 9.05271 12.8535 9.14647C12.9473 9.24024 13 9.36742 13 9.50003C13 9.63264 12.9473 9.75981 12.8535 9.85358C12.7598 9.94735 12.6326 10 12.5 10H7.49999ZM6.99999 12.5C6.99999 12.6326 7.05267 12.7598 7.14644 12.8536C7.24021 12.9473 7.36738 13 7.49999 13H14.5C14.6326 13 14.7598 12.9473 14.8535 12.8536C14.9473 12.7598 15 12.6326 15 12.5C15 12.3674 14.9473 12.2402 14.8535 12.1465C14.7598 12.0527 14.6326 12 14.5 12H7.49999C7.36738 12 7.24021 12.0527 7.14644 12.1465C7.05267 12.2402 6.99999 12.3674 6.99999 12.5Z" fill="black"/>
</svg>
