<svg width="16" height="16" viewBox="0 0 16 16" xmlns="http://www.w3.org/2000/svg" fill='currentColor'><path d="M12.96 6.99997H9.028V6.30897L11.607 2.58897V2.53497H9.098V1.66797H12.883V2.35897L10.316 6.07897V6.13297H12.961V6.99997H12.96Z"/><path fill-rule="evenodd" clip-rule="evenodd" d="M10.082 12.629L9.66399 14H8.59799L10.387 8.66797H11.621L13.402 14H12.282L11.863 12.629H10.082ZM11.652 11.844L11 9.68797H10.953L10.301 11.844H11.652Z"/><path d="M4.50001 13.5C4.50001 13.6326 4.44733 13.7598 4.35356 13.8536C4.25979 13.9473 4.13261 14 4.00001 14C3.8674 14 3.74022 13.9473 3.64645 13.8536C3.55268 13.7598 3.50001 13.6326 3.50001 13.5V3.70703L2.35401 4.85403C2.30752 4.90052 2.25233 4.93739 2.19159 4.96255C2.13085 4.98771 2.06575 5.00066 2.00001 5.00066C1.93426 5.00066 1.86916 4.98771 1.80842 4.96255C1.74768 4.93739 1.69249 4.90052 1.64601 4.85403C1.59952 4.80754 1.56264 4.75235 1.53748 4.69161C1.51232 4.63087 1.49937 4.56577 1.49937 4.50003C1.49937 4.43428 1.51232 4.36918 1.53748 4.30844C1.56264 4.2477 1.59952 4.19252 1.64601 4.14603L3.64601 2.14703L3.65301 2.14003C3.74701 2.04873 3.8732 1.99816 4.00424 1.99929C4.13527 2.00041 4.26058 2.05313 4.35301 2.14603L6.35301 4.14603C6.39949 4.19245 6.43638 4.24757 6.46157 4.30825C6.48675 4.36893 6.49974 4.43398 6.49978 4.49967C6.49983 4.56537 6.48694 4.63044 6.46184 4.69115C6.43674 4.75186 6.39993 4.80704 6.35351 4.85353C6.30708 4.90002 6.25196 4.93691 6.19128 4.96209C6.1306 4.98727 6.06556 5.00026 5.99986 5.00031C5.93416 5.00035 5.8691 4.98746 5.80838 4.96236C5.74767 4.93726 5.69249 4.90045 5.64601 4.85403L4.50001 3.70703V13.5Z"/></svg>