<svg width="16" height="16" viewBox="0 0 16 16" xmlns="http://www.w3.org/2000/svg" fill='currentColor'><path d="M3.50001 2.5C3.50001 2.36739 3.44733 2.24021 3.35356 2.14645C3.25979 2.05268 3.13261 2 3.00001 2C2.8674 2 2.74022 2.05268 2.64645 2.14645C2.55268 2.24021 2.50001 2.36739 2.50001 2.5V11.293L1.35401 10.146C1.26012 10.0521 1.13278 9.99937 1.00001 9.99937C0.86723 9.99937 0.739893 10.0521 0.646006 10.146C0.552119 10.2399 0.499374 10.3672 0.499374 10.5C0.499374 10.6328 0.552119 10.7601 0.646006 10.854L2.64601 12.853L2.65301 12.86C2.74688 12.9515 2.87313 13.0023 3.00424 13.0011C3.13536 13 3.26071 12.9471 3.35301 12.854L5.35301 10.854C5.39949 10.8076 5.43638 10.7525 5.46157 10.6918C5.48675 10.6311 5.49974 10.5661 5.49978 10.5004C5.49983 10.4347 5.48694 10.3696 5.46184 10.3089C5.43674 10.2482 5.39993 10.193 5.35351 10.1465C5.30708 10.1 5.25196 10.0631 5.19128 10.0379C5.1306 10.0128 5.06556 9.99977 4.99986 9.99972C4.93416 9.99968 4.8691 10.0126 4.80838 10.0377C4.74767 10.0628 4.69249 10.0996 4.64601 10.146L3.50001 11.293V2.5ZM7.00001 3.5C7.00001 3.36739 7.05268 3.24021 7.14645 3.14645C7.24022 3.05268 7.3674 3 7.50001 3H14.5C14.6326 3 14.7598 3.05268 14.8536 3.14645C14.9473 3.24021 15 3.36739 15 3.5C15 3.63261 14.9473 3.75979 14.8536 3.85355C14.7598 3.94732 14.6326 4 14.5 4H7.50001C7.3674 4 7.24022 3.94732 7.14645 3.85355C7.05268 3.75979 7.00001 3.63261 7.00001 3.5ZM7.50001 6C7.3674 6 7.24022 6.05268 7.14645 6.14645C7.05268 6.24021 7.00001 6.36739 7.00001 6.5C7.00001 6.63261 7.05268 6.75979 7.14645 6.85355C7.24022 6.94732 7.3674 7 7.50001 7H12.5C12.6326 7 12.7598 6.94732 12.8536 6.85355C12.9473 6.75979 13 6.63261 13 6.5C13 6.36739 12.9473 6.24021 12.8536 6.14645C12.7598 6.05268 12.6326 6 12.5 6H7.50001ZM7.50001 9C7.3674 9 7.24022 9.05268 7.14645 9.14645C7.05268 9.24021 7.00001 9.36739 7.00001 9.5C7.00001 9.63261 7.05268 9.75979 7.14645 9.85355C7.24022 9.94732 7.3674 10 7.50001 10H10.5C10.6326 10 10.7598 9.94732 10.8536 9.85355C10.9473 9.75979 11 9.63261 11 9.5C11 9.36739 10.9473 9.24021 10.8536 9.14645C10.7598 9.05268 10.6326 9 10.5 9H7.50001ZM7.50001 12C7.3674 12 7.24022 12.0527 7.14645 12.1464C7.05268 12.2402 7.00001 12.3674 7.00001 12.5C7.00001 12.6326 7.05268 12.7598 7.14645 12.8536C7.24022 12.9473 7.3674 13 7.50001 13H8.50001C8.63261 13 8.75979 12.9473 8.85356 12.8536C8.94733 12.7598 9.00001 12.6326 9.00001 12.5C9.00001 12.3674 8.94733 12.2402 8.85356 12.1464C8.75979 12.0527 8.63261 12 8.50001 12H7.50001Z"/></svg>