<svg width="16" height="16" viewBox="0 0 16 16" xmlns="http://www.w3.org/2000/svg" fill='currentColor'><path fill-rule="evenodd" clip-rule="evenodd" d="M11.36 7.09801C10.223 7.09801 9.65199 6.44101 9.59799 5.82001H10.602C10.66 6.04301 10.945 6.27001 11.375 6.27001C12.199 6.27001 12.539 5.44101 12.508 4.41401H12.449C12.301 4.80401 11.879 5.15601 11.188 5.15601C10.278 5.15601 9.46799 4.54301 9.46799 3.39801C9.46799 2.25001 10.316 1.56201 11.441 1.56201C12.531 1.56201 13.504 2.19901 13.504 4.25001C13.504 6.11701 12.781 7.09801 11.359 7.09801H11.36ZM11.422 4.36301C11.926 4.36301 12.355 4.02701 12.355 3.39101C12.355 2.75801 11.957 2.38301 11.415 2.38301C10.895 2.38301 10.488 2.75801 10.488 3.38301C10.488 4.02301 10.906 4.36301 11.422 4.36301Z"/><path d="M12.438 8.668V14H11.39V9.684H11.339L10.128 10.543V9.574L11.39 8.668H12.436H12.438ZM4.49999 2.5C4.49999 2.36739 4.44731 2.24021 4.35354 2.14645C4.25978 2.05268 4.1326 2 3.99999 2C3.86738 2 3.74021 2.05268 3.64644 2.14645C3.55267 2.24021 3.49999 2.36739 3.49999 2.5V12.293L2.35399 11.146C2.3075 11.0995 2.25231 11.0626 2.19157 11.0375C2.13083 11.0123 2.06573 10.9994 1.99999 10.9994C1.93425 10.9994 1.86915 11.0123 1.80841 11.0375C1.74767 11.0626 1.69248 11.0995 1.64599 11.146C1.5995 11.1925 1.56263 11.2477 1.53747 11.3084C1.51231 11.3692 1.49936 11.4343 1.49936 11.5C1.49936 11.5657 1.51231 11.6308 1.53747 11.6916C1.56263 11.7523 1.5995 11.8075 1.64599 11.854L3.64599 13.853L3.65299 13.86C3.74687 13.9515 3.87311 14.0023 4.00423 14.0011C4.13534 14 4.2607 13.9471 4.35299 13.854L6.35299 11.854C6.44688 11.7602 6.49967 11.633 6.49977 11.5004C6.49986 11.3677 6.44724 11.2404 6.35349 11.1465C6.25974 11.0526 6.13253 10.9998 5.99984 10.9997C5.86716 10.9996 5.73988 11.0522 5.64599 11.146L4.49999 12.293V2.5Z"/></svg>