<svg width="16" height="16" viewBox="0 0 16 16" fill="none" xmlns="http://www.w3.org/2000/svg">
<path fill-rule="evenodd" clip-rule="evenodd" d="M11.36 7.09801C10.223 7.09801 9.65199 6.44101 9.59799 5.82001H10.602C10.66 6.04301 10.945 6.27001 11.375 6.27001C12.199 6.27001 12.539 5.44101 12.508 4.41401H12.449C12.301 4.80401 11.879 5.15601 11.188 5.15601C10.278 5.15601 9.46799 4.54301 9.46799 3.39801C9.46799 2.25001 10.316 1.56201 11.441 1.56201C12.531 1.56201 13.504 2.19901 13.504 4.25001C13.504 6.11701 12.781 7.09801 11.359 7.09801H11.36ZM11.422 4.36301C11.926 4.36301 12.355 4.02701 12.355 3.39101C12.355 2.75801 11.957 2.38301 11.415 2.38301C10.895 2.38301 10.488 2.75801 10.488 3.38301C10.488 4.02301 10.906 4.36301 11.422 4.36301Z" fill="black"/>
<path d="M12.438 8.66803V14H11.39V9.68403H11.339L10.128 10.543V9.57403L11.39 8.66803H12.436H12.438ZM4.49999 13.5C4.49999 13.6326 4.44731 13.7598 4.35354 13.8536C4.25978 13.9473 4.1326 14 3.99999 14C3.86738 14 3.74021 13.9473 3.64644 13.8536C3.55267 13.7598 3.49999 13.6326 3.49999 13.5V3.70703L2.35399 4.85403C2.3075 4.90052 2.25231 4.93739 2.19157 4.96255C2.13083 4.98771 2.06573 5.00066 1.99999 5.00066C1.93425 5.00066 1.86915 4.98771 1.80841 4.96255C1.74767 4.93739 1.69248 4.90052 1.64599 4.85403C1.5995 4.80754 1.56263 4.75235 1.53747 4.69161C1.51231 4.63087 1.49936 4.56577 1.49936 4.50003C1.49936 4.43428 1.51231 4.36918 1.53747 4.30844C1.56263 4.2477 1.5995 4.19252 1.64599 4.14603L3.64599 2.14703L3.65299 2.14003C3.74699 2.04873 3.87319 1.99816 4.00422 1.99929C4.13526 2.00041 4.26057 2.05313 4.35299 2.14603L6.35299 4.14603C6.39948 4.19245 6.43637 4.24757 6.46155 4.30825C6.48674 4.36893 6.49972 4.43398 6.49977 4.49967C6.49982 4.56537 6.48692 4.63044 6.46182 4.69115C6.43672 4.75186 6.39991 4.80704 6.35349 4.85353C6.30707 4.90002 6.25194 4.93691 6.19127 4.96209C6.13059 4.98727 6.06554 5.00026 5.99984 5.00031C5.93415 5.00035 5.86908 4.98746 5.80837 4.96236C5.74766 4.93726 5.69248 4.90045 5.64599 4.85403L4.49999 3.70703V13.5Z" fill="black"/>
</svg>
