<svg width="16" height="16" viewBox="0 0 16 16" xmlns="http://www.w3.org/2000/svg" fill='currentColor'><path d="M3.49999 12.5C3.49999 12.6326 3.44731 12.7598 3.35354 12.8536C3.25978 12.9473 3.1326 13 2.99999 13C2.86738 13 2.74021 12.9473 2.64644 12.8536C2.55267 12.7598 2.49999 12.6326 2.49999 12.5V3.70703L1.35399 4.85403C1.3075 4.90052 1.25231 4.93739 1.19157 4.96255C1.13083 4.98771 1.06573 5.00066 0.999991 5.00066C0.934247 5.00066 0.869147 4.98771 0.808407 4.96255C0.747668 4.93739 0.692479 4.90052 0.645991 4.85403C0.599503 4.80754 0.562627 4.75235 0.537467 4.69161C0.512308 4.63087 0.499359 4.56577 0.499359 4.50003C0.499359 4.43428 0.512308 4.36918 0.537467 4.30844C0.562627 4.2477 0.599503 4.19252 0.645991 4.14603L2.64599 2.14703L2.65299 2.14003C2.74699 2.04873 2.87319 1.99816 3.00422 1.99929C3.13526 2.00041 3.26057 2.05313 3.35299 2.14603L5.35299 4.14603C5.39948 4.19245 5.43637 4.24757 5.46155 4.30825C5.48674 4.36893 5.49972 4.43398 5.49977 4.49967C5.49982 4.56537 5.48692 4.63044 5.46182 4.69115C5.43672 4.75186 5.39991 4.80704 5.35349 4.85353C5.30707 4.90002 5.25194 4.93691 5.19127 4.96209C5.13059 4.98727 5.06554 5.00026 4.99984 5.00031C4.93415 5.00035 4.86908 4.98746 4.80837 4.96236C4.74766 4.93726 4.69248 4.90045 4.64599 4.85403L3.49999 3.70703V12.5ZM6.99999 3.50003C6.99999 3.36742 7.05267 3.24024 7.14644 3.14647C7.24021 3.05271 7.36738 3.00003 7.49999 3.00003H14.5C14.6326 3.00003 14.7598 3.05271 14.8535 3.14647C14.9473 3.24024 15 3.36742 15 3.50003C15 3.63264 14.9473 3.75981 14.8535 3.85358C14.7598 3.94735 14.6326 4.00003 14.5 4.00003H7.49999C7.36738 4.00003 7.24021 3.94735 7.14644 3.85358C7.05267 3.75981 6.99999 3.63264 6.99999 3.50003ZM7.49999 6.00003C7.36738 6.00003 7.24021 6.05271 7.14644 6.14647C7.05267 6.24024 6.99999 6.36742 6.99999 6.50003C6.99999 6.63264 7.05267 6.75981 7.14644 6.85358C7.24021 6.94735 7.36738 7.00003 7.49999 7.00003H12.5C12.6326 7.00003 12.7598 6.94735 12.8535 6.85358C12.9473 6.75981 13 6.63264 13 6.50003C13 6.36742 12.9473 6.24024 12.8535 6.14647C12.7598 6.05271 12.6326 6.00003 12.5 6.00003H7.49999ZM7.49999 9.00003C7.36738 9.00003 7.24021 9.05271 7.14644 9.14647C7.05267 9.24024 6.99999 9.36742 6.99999 9.50003C6.99999 9.63264 7.05267 9.75981 7.14644 9.85358C7.24021 9.94735 7.36738 10 7.49999 10H10.5C10.6326 10 10.7598 9.94735 10.8535 9.85358C10.9473 9.75981 11 9.63264 11 9.50003C11 9.36742 10.9473 9.24024 10.8535 9.14647C10.7598 9.05271 10.6326 9.00003 10.5 9.00003H7.49999ZM7.49999 12C7.36738 12 7.24021 12.0527 7.14644 12.1465C7.05267 12.2402 6.99999 12.3674 6.99999 12.5C6.99999 12.6326 7.05267 12.7598 7.14644 12.8536C7.24021 12.9473 7.36738 13 7.49999 13H8.49999C8.6326 13 8.75978 12.9473 8.85354 12.8536C8.94731 12.7598 8.99999 12.6326 8.99999 12.5C8.99999 12.3674 8.94731 12.2402 8.85354 12.1465C8.75978 12.0527 8.6326 12 8.49999 12H7.49999Z"/></svg>