<svg width="16" height="16" viewBox="0 0 16 16" xmlns="http://www.w3.org/2000/svg" fill='currentColor'><path d="M3.50001 3.5C3.50001 3.36739 3.44733 3.24021 3.35356 3.14645C3.25979 3.05268 3.13261 3 3.00001 3C2.8674 3 2.74022 3.05268 2.64645 3.14645C2.55268 3.24021 2.50001 3.36739 2.50001 3.5V12.293L1.35401 11.146C1.30752 11.0995 1.25233 11.0626 1.19159 11.0375C1.13085 11.0123 1.06575 10.9994 1.00001 10.9994C0.934262 10.9994 0.869162 11.0123 0.808423 11.0375C0.747683 11.0626 0.692494 11.0995 0.646006 11.146C0.599518 11.1925 0.562642 11.2477 0.537483 11.3084C0.512324 11.3692 0.499374 11.4343 0.499374 11.5C0.499374 11.5657 0.512324 11.6308 0.537483 11.6916C0.562642 11.7523 0.599518 11.8075 0.646006 11.854L2.64601 13.853L2.65301 13.86C2.74688 13.9515 2.87313 14.0023 3.00424 14.0011C3.13536 14 3.26071 13.9471 3.35301 13.854L5.35301 11.854C5.44689 11.7602 5.49969 11.633 5.49978 11.5004C5.49988 11.3677 5.44726 11.2404 5.35351 11.1465C5.25975 11.0526 5.13254 10.9998 4.99986 10.9997C4.86718 10.9996 4.73989 11.0522 4.64601 11.146L3.50001 12.293V3.5ZM7.50001 4C7.3674 4 7.24022 3.94732 7.14645 3.85355C7.05268 3.75979 7.00001 3.63261 7.00001 3.5C7.00001 3.36739 7.05268 3.24021 7.14645 3.14645C7.24022 3.05268 7.3674 3 7.50001 3H8.50001C8.63261 3 8.75979 3.05268 8.85356 3.14645C8.94733 3.24021 9.00001 3.36739 9.00001 3.5C9.00001 3.63261 8.94733 3.75979 8.85356 3.85355C8.75979 3.94732 8.63261 4 8.50001 4H7.50001ZM7.50001 7C7.3674 7 7.24022 6.94732 7.14645 6.85355C7.05268 6.75979 7.00001 6.63261 7.00001 6.5C7.00001 6.36739 7.05268 6.24021 7.14645 6.14645C7.24022 6.05268 7.3674 6 7.50001 6H10.5C10.6326 6 10.7598 6.05268 10.8536 6.14645C10.9473 6.24021 11 6.36739 11 6.5C11 6.63261 10.9473 6.75979 10.8536 6.85355C10.7598 6.94732 10.6326 7 10.5 7H7.50001ZM7.50001 10C7.3674 10 7.24022 9.94732 7.14645 9.85355C7.05268 9.75979 7.00001 9.63261 7.00001 9.5C7.00001 9.36739 7.05268 9.24021 7.14645 9.14645C7.24022 9.05268 7.3674 9 7.50001 9H12.5C12.6326 9 12.7598 9.05268 12.8536 9.14645C12.9473 9.24021 13 9.36739 13 9.5C13 9.63261 12.9473 9.75979 12.8536 9.85355C12.7598 9.94732 12.6326 10 12.5 10H7.50001ZM7.00001 12.5C7.00001 12.6326 7.05268 12.7598 7.14645 12.8536C7.24022 12.9473 7.3674 13 7.50001 13H14.5C14.6326 13 14.7598 12.9473 14.8536 12.8536C14.9473 12.7598 15 12.6326 15 12.5C15 12.3674 14.9473 12.2402 14.8536 12.1464C14.7598 12.0527 14.6326 12 14.5 12H7.50001C7.3674 12 7.24022 12.0527 7.14645 12.1464C7.05268 12.2402 7.00001 12.3674 7.00001 12.5Z"/></svg>