<svg width="16" height="16" viewBox="0 0 16 16" fill="none" xmlns="http://www.w3.org/2000/svg">
<path fill-rule="evenodd" clip-rule="evenodd" d="M8.5 2C8.63261 2 8.75979 2.05268 8.85355 2.14645C8.94732 2.24021 9 2.36739 9 2.5V13.5C9 13.6326 8.94732 13.7598 8.85355 13.8536C8.75979 13.9473 8.63261 14 8.5 14C8.36739 14 8.24021 13.9473 8.14645 13.8536C8.05268 13.7598 8 13.6326 8 13.5V2.5C8 2.36739 8.05268 2.24021 8.14645 2.14645C8.24021 2.05268 8.36739 2 8.5 2ZM6.5 4C6.63261 4 6.75979 4.05268 6.85355 4.14645C6.94732 4.24021 7 4.36739 7 4.5V11.5C7 11.6326 6.94732 11.7598 6.85355 11.8536C6.75979 11.9473 6.63261 12 6.5 12C6.36739 12 6.24021 11.9473 6.14645 11.8536C6.05268 11.7598 6 11.6326 6 11.5V4.5C6 4.36739 6.05268 4.24021 6.14645 4.14645C6.24021 4.05268 6.36739 4 6.5 4ZM10.5 4C10.6326 4 10.7598 4.05268 10.8536 4.14645C10.9473 4.24021 11 4.36739 11 4.5V11.5C11 11.6326 10.9473 11.7598 10.8536 11.8536C10.7598 11.9473 10.6326 12 10.5 12C10.3674 12 10.2402 11.9473 10.1464 11.8536C10.0527 11.7598 10 11.6326 10 11.5V4.5C10 4.36739 10.0527 4.24021 10.1464 4.14645C10.2402 4.05268 10.3674 4 10.5 4ZM4.5 5.5C4.63261 5.5 4.75979 5.55268 4.85355 5.64645C4.94732 5.74021 5 5.86739 5 6V10C5 10.1326 4.94732 10.2598 4.85355 10.3536C4.75979 10.4473 4.63261 10.5 4.5 10.5C4.36739 10.5 4.24021 10.4473 4.14645 10.3536C4.05268 10.2598 4 10.1326 4 10V6C4 5.86739 4.05268 5.74021 4.14645 5.64645C4.24021 5.55268 4.36739 5.5 4.5 5.5ZM12.5 5.5C12.6326 5.5 12.7598 5.55268 12.8536 5.64645C12.9473 5.74021 13 5.86739 13 6V10C13 10.1326 12.9473 10.2598 12.8536 10.3536C12.7598 10.4473 12.6326 10.5 12.5 10.5C12.3674 10.5 12.2402 10.4473 12.1464 10.3536C12.0527 10.2598 12 10.1326 12 10V6C12 5.86739 12.0527 5.74021 12.1464 5.64645C12.2402 5.55268 12.3674 5.5 12.5 5.5ZM2.5 6.5C2.63261 6.5 2.75979 6.55268 2.85355 6.64645C2.94732 6.74021 3 6.86739 3 7V9C3 9.13261 2.94732 9.25979 2.85355 9.35355C2.75979 9.44732 2.63261 9.5 2.5 9.5C2.36739 9.5 2.24021 9.44732 2.14645 9.35355C2.05268 9.25979 2 9.13261 2 9V7C2 6.86739 2.05268 6.74021 2.14645 6.64645C2.24021 6.55268 2.36739 6.5 2.5 6.5ZM14.5 6.5C14.6326 6.5 14.7598 6.55268 14.8536 6.64645C14.9473 6.74021 15 6.86739 15 7V9C15 9.13261 14.9473 9.25979 14.8536 9.35355C14.7598 9.44732 14.6326 9.5 14.5 9.5C14.3674 9.5 14.2402 9.44732 14.1464 9.35355C14.0527 9.25979 14 9.13261 14 9V7C14 6.86739 14.0527 6.74021 14.1464 6.64645C14.2402 6.55268 14.3674 6.5 14.5 6.5Z" fill="black"/>
</svg>
