<svg xmlns="http://www.w3.org/2000/svg" width="24" height="24" viewBox="0 0 24 24" fill='currentColor'><path d="M6.1 7c-.34.55-.4.97-.4 1.38 0 .77 1 2.62 1 3.62 0 .95-.4 1.5-.4 1.5H4.8s.4-.55.4-1.5c0-1-1-2.85-1-3.62 0-.41.06-.83.4-1.38zm5 0c-.34.55-.4.97-.4 1.38 0 .77 1 2.62 1 3.62 0 .95-.4 1.5-.4 1.5h1.5s.4-.55.4-1.5c0-1-1-2.85-1-3.62 0-.41.06-.83.4-1.38zM7.85 7c-.34.55-.4.97-.4 1.38 0 .77 1 2.63 1 3.62 0 .95-.4 1.5-.4 1.5h1.5s.4-.55.4-1.5c0-1-1-2.85-1-3.62 0-.41.06-.83.4-1.38zm13.32-.5s.13-1.06.13-1.5c0-1.65-1.35-3-3-3-1.54 0-2.81 1.16-2.98 2.65L14.23 15H3.71c-.6 0-1.09.53-1 1.13C3.23 19.46 6.09 22 9.45 22c3.48 0 6.34-2.73 6.71-6.23L17.31 4.9c.05-.51.47-.9.99-.9.55 0 1 .45 1 1 0 .3-.1 1.25-.1 1.25z"/></svg>