<svg width="24" height="24" viewBox="0 0 24 24" xmlns="http://www.w3.org/2000/svg" fill='currentColor'><path d="M9.56 14C11.7691 14 13.56 12.2091 13.56 10C13.56 7.79086 11.7691 6 9.56 6C7.35086 6 5.56 7.79086 5.56 10C5.56 12.2091 7.35086 14 9.56 14Z"/><path d="M15.95 16.56C14.27 15.7 12.09 15 9.56 15C7.03 15 4.85 15.7 3.17 16.56C2.17 17.07 1.56 18.1 1.56 19.22V22H17.56V19.22C17.56 18.1 16.95 17.07 15.95 16.56Z"/><path d="M19.61 3.41L18.2 2C14.69 5.51 14.69 11.21 18.2 14.73L19.61 13.32C16.88 10.58 16.88 6.14 19.61 3.41Z"/><path d="M22.44 6.24L21.03 4.83C19.08 6.78 19.08 9.95 21.03 11.9L22.44 10.49C21.27 9.32 21.27 7.41 22.44 6.24Z"/></svg>