<svg width="24" height="24" viewBox="0 0 24 24" xmlns="http://www.w3.org/2000/svg" fill='currentColor'><path d="M9.56006 14C11.7692 14 13.5601 12.2091 13.5601 10C13.5601 7.79086 11.7692 6 9.56006 6C7.35092 6 5.56006 7.79086 5.56006 10C5.56006 12.2091 7.35092 14 9.56006 14Z"/><path d="M15.9501 16.56C14.2701 15.7 12.0901 15 9.56006 15C7.03006 15 4.85006 15.7 3.17006 16.56C2.17006 17.07 1.56006 18.1 1.56006 19.22V22H17.5601V19.22C17.5601 18.1 16.9501 17.07 15.9501 16.56Z"/><path d="M19.6101 3.41L18.2001 2C14.6901 5.51 14.6901 11.21 18.2001 14.73L19.6101 13.32C16.8801 10.58 16.8801 6.14 19.6101 3.41Z"/><path d="M22.4401 6.24L21.0301 4.83C19.0801 6.78 19.0801 9.95 21.0301 11.9L22.4401 10.49C21.2701 9.32 21.2701 7.41 22.4401 6.24Z"/></svg>