<svg width="16" height="16" viewBox="0 0 16 16" fill="none" xmlns="http://www.w3.org/2000/svg">
<g clip-path="url(#clip0_104_3268)">
<path d="M9 4C9 4.26522 8.89464 4.51957 8.70711 4.70711C8.51957 4.89464 8.26522 5 8 5C7.73478 5 7.48043 4.89464 7.29289 4.70711C7.10536 4.51957 7 4.26522 7 4C7 3.73478 7.10536 3.48043 7.29289 3.29289C7.48043 3.10536 7.73478 3 8 3C8.26522 3 8.51957 3.10536 8.70711 3.29289C8.89464 3.48043 9 3.73478 9 4ZM6.5 10.5C6.5 10.1022 6.65804 9.72064 6.93934 9.43934C7.22064 9.15804 7.60218 9 8 9C8.39782 9 8.77936 9.15804 9.06066 9.43934C9.34196 9.72064 9.5 10.1022 9.5 10.5C9.5 10.8978 9.34196 11.2794 9.06066 11.5607C8.77936 11.842 8.39782 12 8 12C7.60218 12 7.22064 11.842 6.93934 11.5607C6.65804 11.2794 6.5 10.8978 6.5 10.5Z" fill="black"/>
<path d="M4 0C3.46957 0 2.96086 0.210714 2.58579 0.585786C2.21071 0.960859 2 1.46957 2 2V14C2 14.5304 2.21071 15.0391 2.58579 15.4142C2.96086 15.7893 3.46957 16 4 16H12C12.5304 16 13.0391 15.7893 13.4142 15.4142C13.7893 15.0391 14 14.5304 14 14V2C14 1.46957 13.7893 0.960859 13.4142 0.585786C13.0391 0.210714 12.5304 0 12 0L4 0ZM10 4C10 4.53043 9.78929 5.03914 9.41421 5.41421C9.03914 5.78929 8.53043 6 8 6C7.46957 6 6.96086 5.78929 6.58579 5.41421C6.21071 5.03914 6 4.53043 6 4C6 3.46957 6.21071 2.96086 6.58579 2.58579C6.96086 2.21071 7.46957 2 8 2C8.53043 2 9.03914 2.21071 9.41421 2.58579C9.78929 2.96086 10 3.46957 10 4ZM8 7C8.92826 7 9.8185 7.36875 10.4749 8.02513C11.1313 8.6815 11.5 9.57174 11.5 10.5C11.5 11.4283 11.1313 12.3185 10.4749 12.9749C9.8185 13.6313 8.92826 14 8 14C7.07174 14 6.1815 13.6313 5.52513 12.9749C4.86875 12.3185 4.5 11.4283 4.5 10.5C4.5 9.57174 4.86875 8.6815 5.52513 8.02513C6.1815 7.36875 7.07174 7 8 7Z" fill="black"/>
</g>
<defs>
<clipPath id="clip0_104_3268">
<rect width="16" height="16" fill="white"/>
</clipPath>
</defs>
</svg>
