<svg width="16" height="16" viewBox="0 0 16 16" xmlns="http://www.w3.org/2000/svg" fill='currentColor'><g clip-path="url(#clip0_104_3265)"><path d="M12 1C12.2652 1 12.5196 1.10536 12.7071 1.29289C12.8946 1.48043 13 1.73478 13 2V14C13 14.2652 12.8946 14.5196 12.7071 14.7071C12.5196 14.8946 12.2652 15 12 15H4C3.73478 15 3.48043 14.8946 3.29289 14.7071C3.10536 14.5196 3 14.2652 3 14V2C3 1.73478 3.10536 1.48043 3.29289 1.29289C3.48043 1.10536 3.73478 1 4 1H12ZM4 0C3.46957 0 2.96086 0.210714 2.58579 0.585786C2.21071 0.960859 2 1.46957 2 2V14C2 14.5304 2.21071 15.0391 2.58579 15.4142C2.96086 15.7893 3.46957 16 4 16H12C12.5304 16 13.0391 15.7893 13.4142 15.4142C13.7893 15.0391 14 14.5304 14 14V2C14 1.46957 13.7893 0.960859 13.4142 0.585786C13.0391 0.210714 12.5304 0 12 0L4 0Z"/><path d="M8 4.75C7.80109 4.75 7.61032 4.67098 7.46967 4.53033C7.32902 4.38968 7.25 4.19891 7.25 4C7.25 3.80109 7.32902 3.61032 7.46967 3.46967C7.61032 3.32902 7.80109 3.25 8 3.25C8.19891 3.25 8.38968 3.32902 8.53033 3.46967C8.67098 3.61032 8.75 3.80109 8.75 4C8.75 4.19891 8.67098 4.38968 8.53033 4.53033C8.38968 4.67098 8.19891 4.75 8 4.75ZM8 6C8.53043 6 9.03914 5.78929 9.41421 5.41421C9.78929 5.03914 10 4.53043 10 4C10 3.46957 9.78929 2.96086 9.41421 2.58579C9.03914 2.21071 8.53043 2 8 2C7.46957 2 6.96086 2.21071 6.58579 2.58579C6.21071 2.96086 6 3.46957 6 4C6 4.53043 6.21071 5.03914 6.58579 5.41421C6.96086 5.78929 7.46957 6 8 6ZM8 9C7.60218 9 7.22064 9.15804 6.93934 9.43934C6.65804 9.72064 6.5 10.1022 6.5 10.5C6.5 10.8978 6.65804 11.2794 6.93934 11.5607C7.22064 11.842 7.60218 12 8 12C8.39782 12 8.77936 11.842 9.06066 11.5607C9.34196 11.2794 9.5 10.8978 9.5 10.5C9.5 10.1022 9.34196 9.72064 9.06066 9.43934C8.77936 9.15804 8.39782 9 8 9ZM4.5 10.5C4.5 9.57174 4.86875 8.6815 5.52513 8.02513C6.1815 7.36875 7.07174 7 8 7C8.92826 7 9.8185 7.36875 10.4749 8.02513C11.1313 8.6815 11.5 9.57174 11.5 10.5C11.5 11.4283 11.1313 12.3185 10.4749 12.9749C9.8185 13.6313 8.92826 14 8 14C7.07174 14 6.1815 13.6313 5.52513 12.9749C4.86875 12.3185 4.5 11.4283 4.5 10.5Z"/></g><defs><clipPath id="clip0_104_3265"><rect width="16" height="16"/></clipPath></defs></svg>