<svg width="16" height="16" viewBox="0 0 16 16" xmlns="http://www.w3.org/2000/svg" fill='currentColor'><g clip-path="url(#clip0_104_3274)"><path d="M8 4C8.13261 4 8.25979 4.05268 8.35355 4.14645C8.44732 4.24021 8.5 4.36739 8.5 4.5V6C8.5 6.13261 8.44732 6.25979 8.35355 6.35355C8.25979 6.44732 8.13261 6.5 8 6.5C7.86739 6.5 7.74021 6.44732 7.64645 6.35355C7.55268 6.25979 7.5 6.13261 7.5 6V4.5C7.5 4.36739 7.55268 4.24021 7.64645 4.14645C7.74021 4.05268 7.86739 4 8 4ZM3.732 5.732C3.82576 5.63826 3.95292 5.58561 4.0855 5.58561C4.21808 5.58561 4.34524 5.63826 4.439 5.732L5.354 6.646C5.40049 6.69249 5.43736 6.74768 5.46252 6.80842C5.48768 6.86916 5.50063 6.93426 5.50063 7C5.50063 7.06574 5.48768 7.13084 5.46252 7.19158C5.43736 7.25232 5.40049 7.30751 5.354 7.354C5.30751 7.40049 5.25232 7.43736 5.19158 7.46252C5.13084 7.48768 5.06574 7.50063 5 7.50063C4.93426 7.50063 4.86916 7.48768 4.80842 7.46252C4.74768 7.43736 4.69249 7.40049 4.646 7.354L3.732 6.439C3.63826 6.34524 3.58561 6.21808 3.58561 6.0855C3.58561 5.95292 3.63826 5.82576 3.732 5.732ZM2 10C2 9.86739 2.05268 9.74021 2.14645 9.64645C2.24021 9.55268 2.36739 9.5 2.5 9.5H4.086C4.21861 9.5 4.34579 9.55268 4.43955 9.64645C4.53332 9.74021 4.586 9.86739 4.586 10C4.586 10.1326 4.53332 10.2598 4.43955 10.3536C4.34579 10.4473 4.21861 10.5 4.086 10.5H2.5C2.36739 10.5 2.24021 10.4473 2.14645 10.3536C2.05268 10.2598 2 10.1326 2 10ZM11.5 10C11.5 9.86739 11.5527 9.74021 11.6464 9.64645C11.7402 9.55268 11.8674 9.5 12 9.5H13.5C13.6326 9.5 13.7598 9.55268 13.8536 9.64645C13.9473 9.74021 14 9.86739 14 10C14 10.1326 13.9473 10.2598 13.8536 10.3536C13.7598 10.4473 13.6326 10.5 13.5 10.5H12C11.8674 10.5 11.7402 10.4473 11.6464 10.3536C11.5527 10.2598 11.5 10.1326 11.5 10ZM12.254 5.754C12.1847 5.68509 12.0921 5.64477 11.9944 5.64106C11.8968 5.63736 11.8013 5.67053 11.727 5.734L7.547 9.31C7.44961 9.39206 7.37053 9.49364 7.31487 9.60818C7.2592 9.72273 7.22821 9.84768 7.22387 9.97496C7.21954 10.1022 7.24197 10.229 7.28971 10.3471C7.33745 10.4651 7.40945 10.5719 7.50103 10.6603C7.59262 10.7488 7.70175 10.8171 7.82139 10.8608C7.94102 10.9044 8.06849 10.9225 8.19554 10.9138C8.32259 10.9051 8.44641 10.8698 8.55897 10.8102C8.67153 10.7507 8.77034 10.6682 8.849 10.568L12.283 6.271C12.3427 6.19621 12.3728 6.10203 12.3675 6.00646C12.3621 5.91089 12.3217 5.82065 12.254 5.753V5.754Z"/><path fill-rule="evenodd" clip-rule="evenodd" d="M5.30783e-06 9.9999C0.00105068 8.8357 0.256178 7.68575 0.747577 6.63035C1.23898 5.57494 1.9548 4.6395 2.84509 3.88933C3.73538 3.13916 4.77866 2.59234 5.90212 2.28705C7.02558 1.98175 8.20213 1.92534 9.34964 2.12175C10.4972 2.31815 11.588 2.76265 12.5459 3.4242C13.5039 4.08574 14.306 4.94841 14.8961 5.95196C15.4862 6.95551 15.8502 8.07577 15.9626 9.23453C16.075 10.3933 15.9332 11.5626 15.547 12.6609C15.105 13.9139 13.702 14.2629 12.615 13.9109C11.309 13.4879 9.47501 12.9999 8.00001 12.9999C6.52601 12.9999 4.69001 13.4879 3.38501 13.9109C2.29801 14.2629 0.895005 13.9139 0.453005 12.6609C0.152147 11.806 -0.00103942 10.9062 5.30783e-06 9.9999ZM8.00001 2.9999C6.88038 2.99961 5.77701 3.26789 4.78252 3.78223C3.78802 4.29657 2.93141 5.04195 2.28457 5.95583C1.63774 6.86971 1.21955 7.92541 1.06511 9.03434C0.910674 10.1433 1.02449 11.2731 1.39701 12.3289C1.60001 12.9039 2.32001 13.2049 3.07701 12.9589C4.39701 12.5329 6.35801 11.9999 8.00001 11.9999C9.64201 11.9999 11.604 12.5319 12.923 12.9599C13.68 13.2049 14.4 12.9039 14.603 12.3289C14.9755 11.2731 15.0893 10.1433 14.9349 9.03434C14.7805 7.92541 14.3623 6.86971 13.7154 5.95583C13.0686 5.04195 12.212 4.29657 11.2175 3.78223C10.223 3.26789 9.11963 2.99961 8.00001 2.9999Z"/></g><defs><clipPath id="clip0_104_3274"><rect width="16" height="16"/></clipPath></defs></svg>