<svg width="24" height="24" viewBox="0 0 24 24" xmlns="http://www.w3.org/2000/svg" fill='currentColor'><path d="M20.3642 8.55108L19.1342 10.4011C19.7274 11.5842 20.0178 12.8959 19.9794 14.2188C19.941 15.5417 19.575 16.8344 18.9142 17.9811H5.05424C4.19541 16.4912 3.83954 14.7642 4.03938 13.0561C4.23923 11.3481 4.98415 9.7499 6.16372 8.49851C7.34329 7.24711 8.89471 6.40912 10.588 6.10877C12.2813 5.80843 14.0262 6.06171 15.5642 6.83108L17.4142 5.60108C15.5307 4.39329 13.2966 3.85208 11.0691 4.06401C8.8417 4.27595 6.74969 5.22878 5.12773 6.77009C3.50578 8.31141 2.4476 10.3521 2.12246 12.5659C1.79732 14.7796 2.22399 17.0385 3.33424 18.9811C3.50875 19.2834 3.75933 19.5347 4.06107 19.7101C4.36282 19.8856 4.70521 19.979 5.05424 19.9811H18.9042C19.2567 19.9825 19.6032 19.8907 19.9087 19.7151C20.2143 19.5395 20.468 19.2863 20.6442 18.9811C21.5656 17.385 22.028 15.5653 21.9804 13.723C21.9327 11.8807 21.3769 10.0874 20.3742 8.54108L20.3642 8.55108ZM10.5742 15.3911C10.76 15.577 10.9806 15.7245 11.2234 15.8252C11.4662 15.9258 11.7264 15.9777 11.9892 15.9777C12.2521 15.9777 12.5123 15.9258 12.7551 15.8252C12.9979 15.7245 13.2185 15.577 13.4042 15.3911L19.0642 6.90108L10.5742 12.5611C10.3883 12.7468 10.2408 12.9674 10.1401 13.2102C10.0395 13.453 9.98767 13.7132 9.98767 13.9761C9.98767 14.2389 10.0395 14.4992 10.1401 14.742C10.2408 14.9848 10.3883 15.2053 10.5742 15.3911Z"/></svg>