<svg width="16" height="16" viewBox="0 0 16 16" xmlns="http://www.w3.org/2000/svg" fill='currentColor'><g clip-path="url(#clip0_104_3271)"><path d="M8 2C8.13261 2 8.25979 2.05268 8.35355 2.14645C8.44732 2.24021 8.5 2.36739 8.5 2.5V4C8.5 4.13261 8.44732 4.25979 8.35355 4.35355C8.25979 4.44732 8.13261 4.5 8 4.5C7.86739 4.5 7.74021 4.44732 7.64645 4.35355C7.55268 4.25979 7.5 4.13261 7.5 4V2.5C7.5 2.36739 7.55268 2.24021 7.64645 2.14645C7.74021 2.05268 7.86739 2 8 2ZM3.732 3.732C3.82576 3.63826 3.95292 3.58561 4.0855 3.58561C4.21808 3.58561 4.34524 3.63826 4.439 3.732L5.354 4.646C5.44789 4.73989 5.50063 4.86722 5.50063 5C5.50063 5.13278 5.44789 5.26011 5.354 5.354C5.26011 5.44789 5.13278 5.50063 5 5.50063C4.86722 5.50063 4.73989 5.44789 4.646 5.354L3.732 4.439C3.63826 4.34524 3.58561 4.21808 3.58561 4.0855C3.58561 3.95292 3.63826 3.82576 3.732 3.732ZM2 8C2 7.86739 2.05268 7.74021 2.14645 7.64645C2.24021 7.55268 2.36739 7.5 2.5 7.5H4.086C4.21861 7.5 4.34579 7.55268 4.43955 7.64645C4.53332 7.74021 4.586 7.86739 4.586 8C4.586 8.13261 4.53332 8.25979 4.43955 8.35355C4.34579 8.44732 4.21861 8.5 4.086 8.5H2.5C2.36739 8.5 2.24021 8.44732 2.14645 8.35355C2.05268 8.25979 2 8.13261 2 8ZM11.5 8C11.5 7.86739 11.5527 7.74021 11.6464 7.64645C11.7402 7.55268 11.8674 7.5 12 7.5H13.5C13.6326 7.5 13.7598 7.55268 13.8536 7.64645C13.9473 7.74021 14 7.86739 14 8C14 8.13261 13.9473 8.25979 13.8536 8.35355C13.7598 8.44732 13.6326 8.5 13.5 8.5H12C11.8674 8.5 11.7402 8.44732 11.6464 8.35355C11.5527 8.25979 11.5 8.13261 11.5 8ZM12.254 3.754C12.1847 3.68509 12.0921 3.64477 11.9944 3.64106C11.8968 3.63736 11.8013 3.67053 11.727 3.734L7.547 7.31C7.45072 7.39243 7.37272 7.49406 7.318 7.60838C7.26328 7.72271 7.23304 7.8472 7.22923 7.97389C7.22542 8.10058 7.24811 8.22667 7.29585 8.34407C7.3436 8.46148 7.41535 8.56762 7.50649 8.65569C7.59764 8.74376 7.70618 8.81182 7.82516 8.8555C7.94414 8.89919 8.07093 8.91754 8.19741 8.90938C8.3239 8.90122 8.44728 8.86673 8.55966 8.80811C8.67203 8.7495 8.77093 8.66805 8.85 8.569L12.284 4.272C12.3437 4.19721 12.3738 4.10303 12.3685 4.00746C12.3631 3.91189 12.3227 3.82165 12.255 3.754H12.254Z"/><path fill-rule="evenodd" clip-rule="evenodd" d="M6.66402 15.889C5.62796 15.7136 4.6366 15.3358 3.74654 14.7772C2.85648 14.2186 2.08516 13.4902 1.47661 12.6336C0.247589 10.9034 -0.243807 8.75596 0.110522 6.66353C0.464851 4.57111 1.63588 2.70514 3.366 1.47612C5.09611 0.2471 7.2436 -0.244296 9.33602 0.110034C11.4286 0.464363 13.2947 1.63544 14.5238 3.36566C15.7529 5.09587 16.2444 7.24348 15.89 9.33603C15.5357 11.4286 14.3646 13.2947 12.6344 14.5238C10.9042 15.7529 8.75658 16.2444 6.66402 15.89V15.889ZM1.99902 11.606C3.82271 10.5508 5.89306 9.99674 8.00002 10C10.186 10 12.236 10.585 14.001 11.606C14.6389 10.5439 14.9834 9.33144 14.9994 8.09257C15.0154 6.85369 14.7023 5.63276 14.0921 4.55448C13.4819 3.4762 12.5964 2.5792 11.5261 1.9551C10.4558 1.33099 9.239 1.00215 8.00002 1.00215C6.76104 1.00215 5.54426 1.33099 4.47395 1.9551C3.40364 2.5792 2.51815 3.4762 1.90793 4.55448C1.2977 5.63276 0.984602 6.85369 1.00061 8.09257C1.01661 9.33144 1.36114 10.5439 1.99902 11.606Z"/></g><defs><clipPath id="clip0_104_3271"><rect width="16" height="16"/></clipPath></defs></svg>