<svg width="24" height="24" viewBox="0 0 24 24" xmlns="http://www.w3.org/2000/svg" fill='currentColor'><path d="M20.3642 8.55108L19.1342 10.4011C19.7274 11.5842 20.0178 12.8959 19.9794 14.2188C19.941 15.5417 19.575 16.8344 18.9142 17.9811H5.05418C4.19535 16.4912 3.83948 14.7642 4.03932 13.0561C4.23917 11.3481 4.98409 9.7499 6.16366 8.49851C7.34323 7.24711 8.89465 6.40912 10.5879 6.10877C12.2812 5.80843 14.0262 6.06171 15.5642 6.83108L17.4142 5.60108C15.5307 4.39329 13.2965 3.85208 11.0691 4.06401C8.84163 4.27595 6.74963 5.22878 5.12767 6.77009C3.50572 8.31141 2.44754 10.3521 2.1224 12.5659C1.79725 14.7796 2.22393 17.0385 3.33418 18.9811C3.50869 19.2834 3.75927 19.5347 4.06101 19.7101C4.36275 19.8856 4.70515 19.979 5.05418 19.9811H18.9042C19.2566 19.9825 19.6031 19.8907 19.9087 19.7151C20.2142 19.5395 20.468 19.2863 20.6442 18.9811C21.5656 17.385 22.0279 15.5653 21.9803 13.723C21.9327 11.8807 21.3768 10.0874 20.3742 8.54108L20.3642 8.55108ZM10.5742 15.3911C10.7599 15.577 10.9805 15.7245 11.2233 15.8252C11.4661 15.9258 11.7264 15.9777 11.9892 15.9777C12.252 15.9777 12.5123 15.9258 12.7551 15.8252C12.9979 15.7245 13.2184 15.577 13.4042 15.3911L19.0642 6.90108L10.5742 12.5611C10.3882 12.7468 10.2407 12.9674 10.1401 13.2102C10.0394 13.453 9.98761 13.7132 9.98761 13.9761C9.98761 14.2389 10.0394 14.4992 10.1401 14.742C10.2407 14.9848 10.3882 15.2053 10.5742 15.3911Z"/></svg>