<svg width="16" height="16" viewBox="0 0 16 16" fill="none" xmlns="http://www.w3.org/2000/svg">
<path d="M8.217 11.068C9.433 11.068 10.165 10.199 10.165 8.75803V8.05603C10.165 6.61603 9.438 5.75103 8.236 5.75103C7.494 5.75103 6.908 6.09803 6.737 6.64003H6.674V3.98303H5.384V11H6.654V10.209H6.718C6.928 10.741 7.494 11.069 8.217 11.069V11.068ZM7.787 10.043C7.127 10.043 6.674 9.52503 6.674 8.76303V8.12003C6.674 7.29503 7.094 6.77703 7.772 6.77703C8.456 6.77703 8.847 7.29503 8.847 8.19303V8.64303C8.847 9.53103 8.461 10.044 7.787 10.044V10.043ZM2.204 11.078C2.971 11.078 3.405 10.722 3.61 10.341H3.669V11H4.885V7.51903C4.885 6.20503 3.938 5.73603 2.775 5.73603C1.355 5.73603 0.75 6.42003 0.69 7.27003H1.906C1.97 6.94703 2.219 6.71803 2.746 6.71803C3.273 6.71803 3.61 6.96703 3.61 7.48903V7.95303H2.346C1.145 7.95303 0.5 8.56803 0.5 9.49603C0.5 10.473 1.193 11.078 2.204 11.078ZM2.624 10.131C2.184 10.131 1.779 9.89603 1.779 9.41303C1.779 9.01803 2.048 8.72903 2.619 8.72903H3.61V9.26703C3.61 9.77003 3.166 10.131 2.624 10.131ZM11.521 10.698C10.944 10.298 10.621 9.61003 10.621 8.71503V8.06503C10.621 6.64503 11.515 5.72703 12.926 5.72703C14.278 5.72703 15.045 6.54703 15.065 7.53303H13.878C13.838 7.18203 13.595 6.75703 12.96 6.75703C12.286 6.75703 11.915 7.27403 11.915 8.08503V8.71003C11.915 9.17803 12.036 9.54403 12.258 9.77703L11.521 10.697V10.698Z" fill="black"/>
<path d="M14.469 9.41395C14.546 9.47549 14.6101 9.55162 14.6577 9.63797C14.7053 9.72432 14.7353 9.8192 14.7462 9.91719C14.7571 10.0152 14.7485 10.1143 14.721 10.209C14.6935 10.3037 14.6476 10.392 14.586 10.4689L10.586 15.4689C10.52 15.5513 10.4374 15.6187 10.3436 15.667C10.2498 15.7152 10.1469 15.7431 10.0416 15.7489C9.93629 15.7546 9.83094 15.7381 9.73244 15.7004C9.63394 15.6627 9.5445 15.6046 9.46997 15.5299L6.96997 13.0299C6.89628 12.9613 6.83718 12.8785 6.79619 12.7865C6.7552 12.6945 6.73316 12.5952 6.73138 12.4945C6.7296 12.3938 6.74813 12.2937 6.78585 12.2004C6.82357 12.107 6.87971 12.0221 6.95093 11.9509C7.02215 11.8797 7.10698 11.8235 7.20037 11.7858C7.29376 11.7481 7.39379 11.7296 7.49449 11.7314C7.5952 11.7331 7.69451 11.7552 7.78651 11.7962C7.87851 11.8372 7.96131 11.8963 8.02997 11.9699L9.93797 13.8769L13.414 9.53095C13.4755 9.45393 13.5516 9.3898 13.638 9.34223C13.7243 9.29466 13.8192 9.26458 13.9172 9.25372C14.0152 9.24285 14.1144 9.25141 14.209 9.2789C14.3037 9.3064 14.392 9.35229 14.469 9.41395Z" fill="black"/>
</svg>
