<svg width="24" height="24" viewBox="0 0 24 24" xmlns="http://www.w3.org/2000/svg" fill='currentColor'><path d="M17.09 10.9998H21.95C21.79 9.38981 21.24 7.8898 20.41 6.5998C18.68 7.4298 17.42 9.04981 17.09 10.9998Z"/><path d="M6.90999 10.9998C6.57999 9.04981 5.31999 7.4298 3.58999 6.5998C2.75999 7.8898 2.20999 9.38981 2.04999 10.9998H6.90999Z"/><path d="M15.07 10.9998C15.39 8.4098 16.95 6.2098 19.13 4.9998C17.53 3.3698 15.39 2.2898 13 2.0498V10.9998H15.07Z"/><path d="M8.92999 10.9998H11V2.0498C8.60999 2.2898 6.45999 3.3698 4.86999 4.9998C7.04999 6.2098 8.60999 8.4098 8.92999 10.9998Z"/><path d="M15.07 12.9998H13V21.9498C15.39 21.7098 17.54 20.6298 19.13 18.9998C16.95 17.7898 15.39 15.5898 15.07 12.9998Z"/><path d="M3.58999 17.3998C5.30999 16.5698 6.57999 14.9398 6.90999 12.9998H2.04999C2.20999 14.6098 2.75999 16.1098 3.58999 17.3998Z"/><path d="M17.09 12.9998C17.42 14.9498 18.68 16.5698 20.41 17.3998C21.24 16.1098 21.79 14.6098 21.95 12.9998H17.09Z"/><path d="M8.92999 12.9998C8.60999 15.5898 7.04999 17.7898 4.86999 18.9998C6.46999 20.6298 8.60999 21.7098 11 21.9498V12.9998H8.92999Z"/></svg>