<svg width="24" height="24" viewBox="0 0 24 24" xmlns="http://www.w3.org/2000/svg" fill='currentColor'><path d="M15.0363 12.8105L6.54629 4.32049C6.15629 3.93049 5.52629 3.93049 5.13629 4.32049L2.30629 7.15049C1.91629 7.54049 1.91629 8.17049 2.30629 8.56049L10.7963 17.0505C11.1863 17.4405 11.8163 17.4405 12.2063 17.0505L15.0363 14.2205C15.4263 13.8305 15.4263 13.2005 15.0363 12.8105Z"/><path d="M15.7417 16.3425L14.3275 17.7567L18.5701 21.9993L19.9843 20.5851L15.7417 16.3425Z"/><path d="M18.4863 9.00049C20.4193 9.00049 21.9863 7.43349 21.9863 5.50049C21.9863 3.56749 20.4193 2.00049 18.4863 2.00049C16.5533 2.00049 14.9863 3.56749 14.9863 5.50049C14.9863 7.43349 16.5533 9.00049 18.4863 9.00049Z"/></svg>