<svg width="24" height="24" viewBox="0 0 24 24" xmlns="http://www.w3.org/2000/svg" fill='currentColor'><path d="M21.5799 16.09L20.4899 8.43C20.2099 6.46 18.5199 5 16.5299 5H7.46994C5.47994 5 3.78994 6.46 3.50994 8.43L2.41994 16.09C2.19994 17.63 3.38994 19 4.93994 19C5.61994 19 6.25994 18.73 6.73994 18.25L8.99994 16H14.9999L17.2499 18.25C17.7299 18.73 18.3799 19 19.0499 19C20.6099 19 21.7999 17.63 21.5799 16.09ZM10.9999 11H8.99994V13H7.99994V11H5.99994V10H7.99994V8H8.99994V10H10.9999V11ZM14.9999 10C14.4499 10 13.9999 9.55 13.9999 9C13.9999 8.45 14.4499 8 14.9999 8C15.5499 8 15.9999 8.45 15.9999 9C15.9999 9.55 15.5499 10 14.9999 10ZM16.9999 13C16.4499 13 15.9999 12.55 15.9999 12C15.9999 11.45 16.4499 11 16.9999 11C17.5499 11 17.9999 11.45 17.9999 12C17.9999 12.55 17.5499 13 16.9999 13Z"/></svg>