<svg width="16" height="16" viewBox="0 0 16 16" fill="none" xmlns="http://www.w3.org/2000/svg">
<g clip-path="url(#clip0_104_3280)">
<path d="M8 0C5.87827 0 3.84344 0.842855 2.34315 2.34315C0.842855 3.84344 0 5.87827 0 8C0 10.1217 0.842855 12.1566 2.34315 13.6569C3.84344 15.1571 5.87827 16 8 16C10.1217 16 12.1566 15.1571 13.6569 13.6569C15.1571 12.1566 16 10.1217 16 8C16 5.87827 15.1571 3.84344 13.6569 2.34315C12.1566 0.842855 10.1217 0 8 0V0ZM11.669 11.538C11.6349 11.594 11.59 11.6426 11.5371 11.6813C11.4841 11.7199 11.424 11.7476 11.3603 11.7629C11.2965 11.7783 11.2304 11.7809 11.1657 11.7706C11.1009 11.7603 11.0388 11.7373 10.983 11.703C9.104 10.556 6.74 10.296 3.955 10.933C3.82597 10.9624 3.69053 10.9394 3.57848 10.869C3.46643 10.7986 3.38694 10.6865 3.3575 10.5575C3.32806 10.4285 3.35108 10.293 3.4215 10.181C3.49192 10.0689 3.60397 9.98944 3.733 9.96C6.781 9.264 9.395 9.563 11.503 10.852C11.6158 10.9211 11.6966 11.0321 11.7277 11.1607C11.7588 11.2893 11.7377 11.425 11.669 11.538ZM12.648 9.36C12.5614 9.50092 12.4223 9.60167 12.2614 9.64011C12.1005 9.67855 11.931 9.65153 11.79 9.565C9.64 8.244 6.362 7.861 3.818 8.633C3.66315 8.6698 3.5001 8.64613 3.36211 8.56684C3.22411 8.48754 3.12157 8.35858 3.07539 8.20627C3.02921 8.05396 3.04288 7.88977 3.11361 7.74719C3.18433 7.60461 3.30679 7.49439 3.456 7.439C6.361 6.558 9.973 6.985 12.442 8.502C12.5831 8.58847 12.684 8.72744 12.7227 8.88834C12.7613 9.04924 12.7344 9.2189 12.648 9.36ZM12.732 7.092C10.154 5.56 5.9 5.419 3.438 6.166C3.24811 6.22355 3.04313 6.20331 2.86815 6.10973C2.69318 6.01615 2.56255 5.85689 2.505 5.667C2.44745 5.4771 2.46769 5.27213 2.56127 5.09715C2.65485 4.92218 2.81411 4.79155 3.004 4.734C5.829 3.877 10.527 4.042 13.496 5.804C13.6668 5.90531 13.7904 6.07033 13.8395 6.26274C13.8886 6.45515 13.8593 6.6592 13.758 6.83C13.6567 7.0008 13.4917 7.12436 13.2993 7.17349C13.1068 7.22263 12.9028 7.19331 12.732 7.092Z" fill="black"/>
</g>
<defs>
<clipPath id="clip0_104_3280">
<rect width="16" height="16" fill="white"/>
</clipPath>
</defs>
</svg>
