<svg width="16" height="16" viewBox="0 0 16 16" xmlns="http://www.w3.org/2000/svg" fill='currentColor'><g clip-path="url(#clip0_104_3288)"><path d="M14.12 10.163L15.835 11.021C16.055 11.131 16.055 11.445 15.835 11.555L8.267 15.34C8.18408 15.3814 8.09267 15.403 8 15.403C7.90733 15.403 7.81592 15.3814 7.733 15.34L0.165 11.555C0.115562 11.5301 0.0740126 11.492 0.0449824 11.4448C0.0159522 11.3977 0.000580786 11.3434 0.000580786 11.288C0.000580786 11.2327 0.0159522 11.1784 0.0449824 11.1313C0.0740126 11.0841 0.115562 11.046 0.165 11.021L1.881 10.163L7.198 12.822C7.703 13.074 8.298 13.074 8.802 12.822L14.119 10.162L14.12 10.163ZM7.733 0.063038C7.81592 0.0216607 7.90733 0.00012207 8 0.00012207C8.09267 0.00012207 8.18408 0.0216607 8.267 0.063038L15.835 3.84704C15.8844 3.87212 15.9259 3.91039 15.9549 3.9576C15.9839 4.00482 15.9992 4.05914 15.9992 4.11454C15.9992 4.16994 15.9839 4.22426 15.9549 4.27147C15.9259 4.31869 15.8844 4.35696 15.835 4.38204L8.267 8.16504C8.18408 8.20642 8.09267 8.22795 8 8.22795C7.90733 8.22795 7.81592 8.20642 7.733 8.16504L0.165 4.38204C0.115299 4.35722 0.0734963 4.31904 0.0442786 4.27179C0.0150609 4.22455 -0.000415802 4.17009 -0.000415802 4.11454C-0.000415802 4.05899 0.0150609 4.00453 0.0442786 3.95728C0.0734963 3.91003 0.115299 3.87186 0.165 3.84704L7.733 0.063038Z"/><path d="M14.12 6.57605L15.835 7.43405C16.055 7.54405 16.055 7.85805 15.835 7.96805L8.267 11.752C8.18408 11.7934 8.09267 11.815 8 11.815C7.90733 11.815 7.81592 11.7934 7.733 11.752L0.165001 7.96805C0.115562 7.94313 0.0740136 7.90497 0.0449834 7.85783C0.0159531 7.81069 0.000581741 7.75641 0.000581741 7.70105C0.000581741 7.64569 0.0159531 7.59141 0.0449834 7.54427C0.0740136 7.49713 0.115562 7.45897 0.165001 7.43405L1.881 6.57605L7.198 9.23505C7.703 9.48705 8.298 9.48705 8.802 9.23505L14.119 6.57605H14.12Z"/></g><defs><clipPath id="clip0_104_3288"><rect width="16" height="16"/></clipPath></defs></svg>