<svg width="16" height="16" viewBox="0 0 16 16" xmlns="http://www.w3.org/2000/svg" fill='currentColor'><g clip-path="url(#clip0_104_3288)"><path d="M14.12 10.1629L15.835 11.0209C16.055 11.1309 16.055 11.4449 15.835 11.5549L8.267 15.3399C8.18408 15.3813 8.09267 15.4028 8 15.4028C7.90733 15.4028 7.81592 15.3813 7.733 15.3399L0.165 11.5549C0.115562 11.53 0.0740126 11.4918 0.0449824 11.4447C0.0159522 11.3976 0.000580786 11.3433 0.000580786 11.2879C0.000580786 11.2326 0.0159522 11.1783 0.0449824 11.1311C0.0740126 11.084 0.115562 11.0458 0.165 11.0209L1.881 10.1629L7.198 12.8219C7.703 13.0739 8.298 13.0739 8.802 12.8219L14.119 10.1619L14.12 10.1629ZM7.733 0.0629159C7.81592 0.0215386 7.90733 0 8 0C8.09267 0 8.18408 0.0215386 8.267 0.0629159L15.835 3.84692C15.8844 3.872 15.9259 3.91026 15.9549 3.95748C15.9839 4.0047 15.9992 4.05902 15.9992 4.11442C15.9992 4.16982 15.9839 4.22414 15.9549 4.27135C15.9259 4.31857 15.8844 4.35684 15.835 4.38192L8.267 8.16492C8.18408 8.20629 8.09267 8.22783 8 8.22783C7.90733 8.22783 7.81592 8.20629 7.733 8.16492L0.165 4.38192C0.115299 4.3571 0.0734963 4.31892 0.0442786 4.27167C0.0150609 4.22442 -0.000415802 4.16997 -0.000415802 4.11442C-0.000415802 4.05886 0.0150609 4.00441 0.0442786 3.95716C0.0734963 3.90991 0.115299 3.87174 0.165 3.84692L7.733 0.0629159Z"/><path d="M14.12 6.57593L15.835 7.43393C16.055 7.54393 16.055 7.85793 15.835 7.96793L8.267 11.7519C8.18408 11.7933 8.09267 11.8148 8 11.8148C7.90733 11.8148 7.81592 11.7933 7.733 11.7519L0.165001 7.96793C0.115562 7.94301 0.0740136 7.90485 0.0449834 7.85771C0.0159531 7.81057 0.000581741 7.75629 0.000581741 7.70093C0.000581741 7.64556 0.0159531 7.59129 0.0449834 7.54415C0.0740136 7.497 0.115562 7.45885 0.165001 7.43393L1.881 6.57593L7.198 9.23493C7.703 9.48693 8.298 9.48693 8.802 9.23493L14.119 6.57593H14.12Z"/></g><defs><clipPath id="clip0_104_3288"><rect width="16" height="16"/></clipPath></defs></svg>