<svg width="24" height="24" viewBox="0 0 24 24" xmlns="http://www.w3.org/2000/svg" fill='currentColor'><path d="M7 5.06006L3 7.06006V3.06006L7 5.06006ZM18 3.06006V7.06006L22 5.06006L18 3.06006ZM11 2.06006V6.06006L15 4.06006L11 2.06006ZM5 10.1001C6.38 10.5901 8.77 11.0601 12 11.0601C15.23 11.0601 17.62 10.5901 19 10.1001C19 9.92006 16.22 9.06006 12 9.06006C7.78 9.06006 5 9.92006 5 10.1001ZM15 17.0601H9V21.9401C4.94 21.5501 2 20.4001 2 19.0601V10.0601C2 8.40006 6.48 7.06006 12 7.06006C17.52 7.06006 22 8.40006 22 10.0601V19.0601C22 20.4001 19.06 21.5401 15 21.9301V17.0601Z"/></svg>