<svg width="16" height="16" viewBox="0 0 16 16" xmlns="http://www.w3.org/2000/svg" fill='currentColor'><g clip-path="url(#clip0_104_3294)"><path d="M2.866 14.8499C2.788 15.2939 3.226 15.6409 3.612 15.4429L8.002 13.1869L12.391 15.4429C12.777 15.6409 13.215 15.2939 13.137 14.8509L12.307 10.1209L15.829 6.76492C16.159 6.45092 15.989 5.87692 15.547 5.81492L10.649 5.11892L8.465 0.791923C8.4234 0.704212 8.35776 0.630106 8.27571 0.578215C8.19366 0.526325 8.09858 0.498779 8.0015 0.498779C7.90442 0.498779 7.80934 0.526325 7.72729 0.578215C7.64524 0.630106 7.57961 0.704212 7.538 0.791923L5.354 5.11992L0.456 5.81592C0.015 5.87792 -0.156 6.45192 0.173 6.76592L3.696 10.1219L2.866 14.8519V14.8499ZM7.771 12.0829L4.085 13.9769L4.779 10.0199C4.79526 9.92884 4.7889 9.83515 4.76048 9.7471C4.73205 9.65904 4.68244 9.57932 4.616 9.51492L1.71 6.74492L5.762 6.16892C5.8459 6.15625 5.92549 6.12343 5.99393 6.07327C6.06238 6.02312 6.11765 5.95711 6.155 5.88092L8 2.22292L9.847 5.88092C9.88436 5.95711 9.93962 6.02312 10.0081 6.07327C10.0765 6.12343 10.1561 6.15625 10.24 6.16892L14.292 6.74392L11.386 9.51392C11.3194 9.57842 11.2697 9.65831 11.2413 9.74655C11.2128 9.8348 11.2066 9.92868 11.223 10.0199L11.917 13.9769L8.231 12.0829C8.15972 12.0462 8.08069 12.027 8.0005 12.027C7.92031 12.027 7.84128 12.0462 7.77 12.0829H7.771Z"/></g><defs><clipPath id="clip0_104_3294"><rect width="16" height="16"/></clipPath></defs></svg>