<svg width="16" height="16" viewBox="0 0 16 16" xmlns="http://www.w3.org/2000/svg" fill='currentColor'><g clip-path="url(#clip0_104_3298)"><path d="M5.354 5.119L7.538 0.792C7.57995 0.704954 7.64549 0.631433 7.72717 0.57981C7.80885 0.528186 7.90338 0.500533 8 0.5C8.183 0.5 8.366 0.597 8.465 0.792L10.649 5.119L15.547 5.815C15.6691 5.83419 15.7808 5.89491 15.8633 5.98691C15.9459 6.07891 15.9941 6.19655 16 6.32C16.007 6.40219 15.9953 6.48489 15.9659 6.56194C15.9365 6.63899 15.89 6.7084 15.83 6.765L12.307 10.121L13.137 14.851C13.215 15.294 12.777 15.641 12.391 15.443L8 13.187L3.611 15.443C3.56509 15.4668 3.51589 15.4837 3.465 15.493C3.123 15.553 2.797 15.239 2.865 14.851L3.695 10.121L0.173003 6.765C0.118248 6.7132 0.0747262 6.65069 0.045138 6.58137C0.0155498 6.51204 0.000527224 6.43737 0.00100277 6.362C0.00105478 6.25544 0.0304641 6.15095 0.0860028 6.06C0.125401 5.99407 0.179102 5.93783 0.243141 5.89542C0.30718 5.85302 0.379923 5.82553 0.456003 5.815L5.354 5.119ZM8 12.027C8.08072 12.0267 8.16032 12.0459 8.232 12.083L11.918 13.977L11.224 10.02C11.2076 9.929 11.2138 9.83536 11.2421 9.74731C11.2703 9.65926 11.3197 9.57949 11.386 9.515L14.293 6.745L10.241 6.169C10.1571 6.15633 10.0775 6.12351 10.0091 6.07335C9.94063 6.02319 9.88536 5.95719 9.848 5.881L8.001 2.223L8 2.226V12.026V12.027Z"/></g><defs><clipPath id="clip0_104_3298"><rect width="16" height="16"/></clipPath></defs></svg>