<svg width="16" height="16" viewBox="0 0 16 16" fill="none" xmlns="http://www.w3.org/2000/svg">
<g clip-path="url(#clip0_104_3305)">
<path d="M0 1.5V13C0 13.2652 0.105357 13.5196 0.292893 13.7071C0.48043 13.8946 0.734784 14 1 14V1.5C1 1.36739 1.05268 1.24021 1.14645 1.14645C1.24021 1.05268 1.36739 1 1.5 1H14C14 0.734784 13.8946 0.48043 13.7071 0.292893C13.5196 0.105357 13.2652 0 13 0L1.5 0C1.10218 0 0.720644 0.158035 0.43934 0.43934C0.158035 0.720644 0 1.10218 0 1.5H0Z" fill="black"/>
<path d="M3.5 2C3.10218 2 2.72064 2.15804 2.43934 2.43934C2.15804 2.72064 2 3.10218 2 3.5V14.5C2 14.8978 2.15804 15.2794 2.43934 15.5607C2.72064 15.842 3.10218 16 3.5 16H9.586C9.98369 15.9997 10.365 15.8414 10.646 15.56L15.561 10.646C15.842 10.3648 15.9999 9.98355 16 9.586V3.5C16 3.10218 15.842 2.72064 15.5607 2.43934C15.2794 2.15804 14.8978 2 14.5 2H3.5ZM9.5 10.5C9.5 10.2348 9.60536 9.98043 9.79289 9.79289C9.98043 9.60536 10.2348 9.5 10.5 9.5H14.896C14.9455 9.49991 14.9939 9.51453 15.0351 9.54199C15.0763 9.56945 15.1084 9.60853 15.1274 9.65427C15.1464 9.70001 15.1513 9.75034 15.1416 9.7989C15.1319 9.84745 15.1081 9.89204 15.073 9.927L9.927 15.073C9.89204 15.1081 9.84745 15.1319 9.7989 15.1416C9.75034 15.1513 9.70001 15.1464 9.65427 15.1274C9.60853 15.1084 9.56945 15.0763 9.54199 15.0351C9.51453 14.9939 9.49991 14.9455 9.5 14.896V10.5Z" fill="black"/>
</g>
<defs>
<clipPath id="clip0_104_3305">
<rect width="16" height="16" fill="white"/>
</clipPath>
</defs>
</svg>
