<svg width="16" height="16" viewBox="0 0 16 16" fill="none" xmlns="http://www.w3.org/2000/svg">
<g clip-path="url(#clip0_104_3302)">
<path d="M1.5 0C1.10218 0 0.720644 0.158035 0.43934 0.43934C0.158035 0.720644 0 1.10218 0 1.5L0 13C0 13.2652 0.105357 13.5196 0.292893 13.7071C0.48043 13.8946 0.734784 14 1 14V1.5C1 1.36739 1.05268 1.24021 1.14645 1.14645C1.24021 1.05268 1.36739 1 1.5 1H14C14 0.734784 13.8946 0.48043 13.7071 0.292893C13.5196 0.105357 13.2652 0 13 0L1.5 0Z" fill="black"/>
<path d="M3.5 2C3.10218 2 2.72064 2.15804 2.43934 2.43934C2.15804 2.72064 2 3.10218 2 3.5V14.5C2 14.8978 2.15804 15.2794 2.43934 15.5607C2.72064 15.842 3.10218 16 3.5 16H9.586C9.98369 15.9997 10.365 15.8414 10.646 15.56L15.561 10.646C15.842 10.3648 15.9999 9.98355 16 9.586V3.5C16 3.10218 15.842 2.72064 15.5607 2.43934C15.2794 2.15804 14.8978 2 14.5 2H3.5ZM3 3.5C3 3.36739 3.05268 3.24021 3.14645 3.14645C3.24021 3.05268 3.36739 3 3.5 3H14.5C14.6326 3 14.7598 3.05268 14.8536 3.14645C14.9473 3.24021 15 3.36739 15 3.5V9H10.5C10.1022 9 9.72064 9.15804 9.43934 9.43934C9.15804 9.72064 9 10.1022 9 10.5V15H3.5C3.36739 15 3.24021 14.9473 3.14645 14.8536C3.05268 14.7598 3 14.6326 3 14.5V3.5ZM10 14.793V10.5C10 10.3674 10.0527 10.2402 10.1464 10.1464C10.2402 10.0527 10.3674 10 10.5 10H14.793L10 14.793Z" fill="black"/>
</g>
<defs>
<clipPath id="clip0_104_3302">
<rect width="16" height="16" fill="white"/>
</clipPath>
</defs>
</svg>
