<svg width="16" height="16" viewBox="0 0 16 16" fill="none" xmlns="http://www.w3.org/2000/svg">
<g clip-path="url(#clip0_104_3334)">
<path d="M6.50002 0C6.36741 0 6.24024 0.0526784 6.14647 0.146447C6.0527 0.240215 6.00002 0.367392 6.00002 0.5C6.00002 0.632608 6.0527 0.759785 6.14647 0.853553C6.24024 0.947322 6.36741 1 6.50002 1H7.00002V2.07C5.24847 2.32316 3.65779 3.23027 2.54802 4.60883C1.43825 5.98739 0.89175 7.73509 1.01847 9.50029C1.14519 11.2655 1.93573 12.9172 3.23103 14.1231C4.52633 15.329 6.23027 15.9996 8.00002 16C9.34193 15.9999 10.6555 15.6142 11.7844 14.8887C12.9133 14.1631 13.8098 13.1284 14.3672 11.9078C14.9247 10.6871 15.1195 9.332 14.9285 8.00375C14.7375 6.67551 14.1688 5.43015 13.29 4.416C13.2944 4.41207 13.2988 4.40807 13.303 4.404L13.657 4.05L14.01 4.404C14.0561 4.45176 14.1113 4.48985 14.1723 4.51605C14.2333 4.54226 14.2989 4.55605 14.3653 4.55663C14.4317 4.5572 14.4976 4.54455 14.559 4.51941C14.6204 4.49427 14.6763 4.45714 14.7232 4.4102C14.7702 4.36325 14.8073 4.30743 14.8324 4.24598C14.8576 4.18453 14.8702 4.11869 14.8696 4.0523C14.8691 3.98591 14.8553 3.9203 14.8291 3.8593C14.8029 3.7983 14.7648 3.74312 14.717 3.697L13.303 2.282C13.2569 2.23425 13.2017 2.19615 13.1407 2.16995C13.0797 2.14374 13.0141 2.12995 12.9477 2.12937C12.8813 2.1288 12.8155 2.14145 12.754 2.16659C12.6926 2.19173 12.6368 2.22886 12.5898 2.2758C12.5429 2.32275 12.5058 2.37857 12.4806 2.44002C12.4555 2.50147 12.4428 2.56731 12.4434 2.6337C12.444 2.70009 12.4578 2.7657 12.484 2.8267C12.5102 2.8877 12.5483 2.94288 12.596 2.989L12.95 3.343L12.596 3.697C12.592 3.70095 12.588 3.70495 12.584 3.709C11.5717 2.82977 10.3273 2.26106 9.00002 2.071V1H9.50002C9.63263 1 9.75981 0.947322 9.85358 0.853553C9.94734 0.759785 10 0.632608 10 0.5C10 0.367392 9.94734 0.240215 9.85358 0.146447C9.75981 0.0526784 9.63263 0 9.50002 0L6.50002 0ZM8.50002 5.6V9C8.50002 9.13261 8.44734 9.25979 8.35358 9.35355C8.25981 9.44732 8.13263 9.5 8.00002 9.5H4.50002C4.36741 9.5 4.24024 9.44732 4.14647 9.35355C4.0527 9.25979 4.00002 9.13261 4.00002 9C4.00002 8.86739 4.0527 8.74021 4.14647 8.64645C4.24024 8.55268 4.36741 8.5 4.50002 8.5H7.50002V5.6C7.50002 5.46739 7.5527 5.34021 7.64647 5.24645C7.74024 5.15268 7.86741 5.1 8.00002 5.1C8.13263 5.1 8.25981 5.15268 8.35358 5.24645C8.44734 5.34021 8.50002 5.46739 8.50002 5.6Z" fill="black"/>
</g>
<defs>
<clipPath id="clip0_104_3334">
<rect width="16" height="16" fill="white"/>
</clipPath>
</defs>
</svg>
