<svg width="16" height="16" viewBox="0 0 16 16" fill="none" xmlns="http://www.w3.org/2000/svg">
<g clip-path="url(#clip0_104_3329)">
<path fill-rule="evenodd" clip-rule="evenodd" d="M6 0C5.46957 0 4.96086 0.210714 4.58579 0.585786C4.21071 0.960859 4 1.46957 4 2H2C2.167 2.5 2.8 3.6 4 4V6H2C2.167 6.5 2.8 7.6 4 8V10H2C2.167 10.5 2.8 11.6 4 12V13C4 13.5304 4.21071 14.0391 4.58579 14.4142C4.96086 14.7893 5.46957 15 6 15H10C10.5304 15 11.0391 14.7893 11.4142 14.4142C11.7893 14.0391 12 13.5304 12 13V12C13.2 11.6 13.833 10.5 14 10H12V8C13.2 7.6 13.833 6.5 14 6H12V4C13.2 3.6 13.833 2.5 14 2H12C12 1.46957 11.7893 0.960859 11.4142 0.585786C11.0391 0.210714 10.5304 0 10 0L6 0ZM9.5 3.5C9.5 3.89782 9.34196 4.27936 9.06066 4.56066C8.77936 4.84196 8.39782 5 8 5C7.60218 5 7.22064 4.84196 6.93934 4.56066C6.65804 4.27936 6.5 3.89782 6.5 3.5C6.5 3.10218 6.65804 2.72064 6.93934 2.43934C7.22064 2.15804 7.60218 2 8 2C8.39782 2 8.77936 2.15804 9.06066 2.43934C9.34196 2.72064 9.5 3.10218 9.5 3.5ZM9.5 7.5C9.5 7.89782 9.34196 8.27936 9.06066 8.56066C8.77936 8.84196 8.39782 9 8 9C7.60218 9 7.22064 8.84196 6.93934 8.56066C6.65804 8.27936 6.5 7.89782 6.5 7.5C6.5 7.10218 6.65804 6.72064 6.93934 6.43934C7.22064 6.15804 7.60218 6 8 6C8.39782 6 8.77936 6.15804 9.06066 6.43934C9.34196 6.72064 9.5 7.10218 9.5 7.5ZM8 13C7.60218 13 7.22064 12.842 6.93934 12.5607C6.65804 12.2794 6.5 11.8978 6.5 11.5C6.5 11.1022 6.65804 10.7206 6.93934 10.4393C7.22064 10.158 7.60218 10 8 10C8.39782 10 8.77936 10.158 9.06066 10.4393C9.34196 10.7206 9.5 11.1022 9.5 11.5C9.5 11.8978 9.34196 12.2794 9.06066 12.5607C8.77936 12.842 8.39782 13 8 13Z" fill="black"/>
</g>
<defs>
<clipPath id="clip0_104_3329">
<rect width="16" height="16" fill="white"/>
</clipPath>
</defs>
</svg>
