<svg width="24" height="24" viewBox="0 0 24 24" xmlns="http://www.w3.org/2000/svg" fill='currentColor'><path d="M21.8979 8.89L20.8479 4.52C20.6279 3.62 19.8479 3 18.9379 3H5.04787C4.14787 3 3.35787 3.63 3.14787 4.52L2.09787 8.89C1.85787 9.91 2.07787 10.95 2.71787 11.77C2.79787 11.88 2.90787 11.96 2.99787 12.06V19C2.99787 20.1 3.89787 21 4.99787 21H18.9979C20.0979 21 20.9979 20.1 20.9979 19V12.06C21.0879 11.97 21.1979 11.88 21.2779 11.78C21.9179 10.96 22.1479 9.91 21.8979 8.89ZM18.9079 4.99L19.9579 9.36C20.0579 9.78 19.9679 10.2 19.7079 10.53C19.5679 10.71 19.2679 11 18.7679 11C18.1579 11 17.6279 10.51 17.5579 9.86L16.9779 5L18.9079 4.99ZM12.9979 5H14.9579L15.4979 9.52C15.5479 9.91 15.4279 10.3 15.1679 10.59C14.9479 10.85 14.6279 11 14.2179 11C13.5479 11 12.9979 10.41 12.9979 9.69V5ZM8.48787 9.52L9.03787 5H10.9979V9.69C10.9979 10.41 10.4479 11 9.70787 11C9.36787 11 9.05787 10.85 8.81787 10.59C8.56787 10.3 8.44787 9.91 8.48787 9.52ZM4.03787 9.36L5.04787 5H7.01787L6.43787 9.86C6.35787 10.51 5.83787 11 5.22787 11C4.73787 11 4.42787 10.71 4.29787 10.53C4.02787 10.21 3.93787 9.78 4.03787 9.36ZM4.99787 19V12.97C5.07787 12.98 5.14787 13 5.22787 13C6.09787 13 6.88787 12.64 7.46787 12.05C8.06787 12.65 8.86787 13 9.77787 13C10.6479 13 11.4279 12.64 12.0079 12.07C12.5979 12.64 13.3979 13 14.2979 13C15.1379 13 15.9379 12.65 16.5379 12.05C17.1179 12.64 17.9079 13 18.7779 13C18.8579 13 18.9279 12.98 19.0079 12.97V19H4.99787Z"/></svg>