<svg width="24" height="24" viewBox="0 0 24 24" xmlns="http://www.w3.org/2000/svg" fill='currentColor'><path d="M18.9322 8C16.7222 4.18 11.8222 2.87 8.00221 5.07C6.59221 5.89 5.52221 7.07 4.84221 8.44C4.71221 6.24 5.06221 4.04 5.86221 2H3.74221C2.20221 6.49 2.52221 11.58 5.07221 16C6.17221 17.91 7.95221 19.19 9.93221 19.72C11.9122 20.25 14.0922 20.03 16.0022 18.93C17.4122 18.11 18.4822 16.93 19.1622 15.56C19.2922 17.76 18.9522 19.96 18.1522 22H20.2622C21.7922 17.51 21.4822 12.42 18.9322 8ZM15.0022 17.2C12.1322 18.85 8.46221 17.87 6.80221 15C6.69221 14.8 6.59221 14.6 6.50221 14.4C5.30221 11.64 6.33221 8.34 9.00221 6.8C11.8622 5.15 15.5422 6.13 17.2022 9C17.3122 9.2 17.4122 9.4 17.5022 9.6C18.7022 12.36 17.6722 15.66 15.0022 17.2ZM12.0022 10C13.1022 10 14.0022 10.9 14.0022 12C14.0022 13.1 13.1022 14 12.0022 14C10.9022 14 10.0022 13.1 10.0022 12C10.0022 10.9 10.9022 10 12.0022 10ZM12.0022 8C9.79221 8 8.00221 9.79 8.00221 12C8.00221 14.21 9.79221 16 12.0022 16C14.2122 16 16.0022 14.21 16.0022 12C16.0022 9.79 14.2122 8 12.0022 8Z"/></svg>