<svg width="24" height="24" viewBox="0 0 24 24" xmlns="http://www.w3.org/2000/svg" fill='currentColor'><path d="M21.8979 8.89L20.8479 4.52C20.6279 3.62 19.8479 3 18.9379 3H5.04786C4.14786 3 3.35786 3.63 3.14786 4.52L2.09786 8.89C1.85786 9.91 2.07786 10.95 2.71786 11.77C2.79786 11.88 2.90786 11.96 2.99786 12.06V19C2.99786 20.1 3.89786 21 4.99786 21H18.9979C20.0979 21 20.9979 20.1 20.9979 19V12.06C21.0879 11.97 21.1979 11.88 21.2779 11.78C21.9179 10.96 22.1479 9.91 21.8979 8.89ZM18.9079 4.99L19.9579 9.36C20.0579 9.78 19.9679 10.2 19.7079 10.53C19.5679 10.71 19.2679 11 18.7679 11C18.1579 11 17.6279 10.51 17.5579 9.86L16.9779 5L18.9079 4.99ZM12.9979 5H14.9579L15.4979 9.52C15.5479 9.91 15.4279 10.3 15.1679 10.59C14.9479 10.85 14.6279 11 14.2179 11C13.5479 11 12.9979 10.41 12.9979 9.69V5ZM8.48785 9.52L9.03786 5H10.9979V9.69C10.9979 10.41 10.4479 11 9.70786 11C9.36786 11 9.05785 10.85 8.81785 10.59C8.56785 10.3 8.44785 9.91 8.48785 9.52ZM4.03786 9.36L5.04786 5H7.01786L6.43786 9.86C6.35786 10.51 5.83786 11 5.22786 11C4.73786 11 4.42786 10.71 4.29786 10.53C4.02786 10.21 3.93786 9.78 4.03786 9.36ZM4.99786 19V12.97C5.07786 12.98 5.14786 13 5.22786 13C6.09786 13 6.88786 12.64 7.46785 12.05C8.06785 12.65 8.86786 13 9.77785 13C10.6479 13 11.4279 12.64 12.0079 12.07C12.5979 12.64 13.3979 13 14.2979 13C15.1379 13 15.9379 12.65 16.5379 12.05C17.1179 12.64 17.9079 13 18.7779 13C18.8579 13 18.9279 12.98 19.0079 12.97V19H4.99786Z"/></svg>