<svg width="24" height="24" viewBox="0 0 24 24" xmlns="http://www.w3.org/2000/svg" fill='currentColor'><path d="M21.8978 8.89L20.8478 4.52C20.6278 3.62 19.8478 3 18.9378 3H5.04781C4.14781 3 3.35781 3.63 3.14781 4.52L2.09781 8.89C1.85781 9.91 2.07781 10.95 2.71781 11.77C2.79781 11.88 2.90781 11.96 2.99781 12.06V19C2.99781 20.1 3.89781 21 4.99781 21H18.9978C20.0978 21 20.9978 20.1 20.9978 19V12.06C21.0878 11.97 21.1978 11.88 21.2778 11.78C21.9178 10.96 22.1478 9.91 21.8978 8.89ZM18.9078 4.99L19.9578 9.36C20.0578 9.78 19.9678 10.2 19.7078 10.53C19.5678 10.71 19.2678 11 18.7678 11C18.1578 11 17.6278 10.51 17.5578 9.86L16.9778 5L18.9078 4.99ZM12.9978 5H14.9578L15.4978 9.52C15.5478 9.91 15.4278 10.3 15.1678 10.59C14.9478 10.85 14.6278 11 14.2178 11C13.5478 11 12.9978 10.41 12.9978 9.69V5ZM8.48781 9.52L9.03781 5H10.9978V9.69C10.9978 10.41 10.4478 11 9.70781 11C9.36781 11 9.05781 10.85 8.81781 10.59C8.56781 10.3 8.44781 9.91 8.48781 9.52ZM4.03781 9.36L5.04781 5H7.01781L6.43781 9.86C6.35781 10.51 5.83781 11 5.22781 11C4.73781 11 4.42781 10.71 4.29781 10.53C4.02781 10.21 3.93781 9.78 4.03781 9.36ZM4.99781 19V12.97C5.07781 12.98 5.14781 13 5.22781 13C6.09781 13 6.88781 12.64 7.46781 12.05C8.06781 12.65 8.86781 13 9.77781 13C10.6478 13 11.4278 12.64 12.0078 12.07C12.5978 12.64 13.3978 13 14.2978 13C15.1378 13 15.9378 12.65 16.5378 12.05C17.1178 12.64 17.9078 13 18.7778 13C18.8578 13 18.9278 12.98 19.0078 12.97V19H4.99781Z"/></svg>