<svg width="24" height="24" viewBox="0 0 24 24" xmlns="http://www.w3.org/2000/svg" fill='currentColor'><path d="M20.48 3.29512H7.31L15.31 11.2951H20.48V13.2951H17.31L22.24 18.2251C22.39 17.9451 22.48 17.6351 22.48 17.2951V5.29512C22.48 4.19512 21.58 3.29512 20.48 3.29512Z"/><path d="M1.52 3.16512L2.72 4.36512C2.57 4.64512 2.48 4.95512 2.48 5.29512V17.2951C2.48 18.3951 3.38 19.2951 4.48 19.2951H17.65L20.61 22.2551L22.02 20.8451L2.93 1.74512L1.52 3.16512ZM8.48 11.2951V13.2951H4.48V11.2951H8.48ZM14.48 16.1251V17.2951H4.48V15.2951H13.65L14.48 16.1251Z"/></svg>