<svg width="16" height="16" viewBox="0 0 16 16" xmlns="http://www.w3.org/2000/svg" fill='currentColor'><g clip-path="url(#clip0_104_3352)"><path d="M8 1.10073e-08C8.08641 -1.81179e-05 8.17135 0.0223577 8.24653 0.0649454C8.32172 0.107533 8.38459 0.168879 8.429 0.243C9.788 2.508 11.354 3.925 12.679 5.125C12.775 5.211 12.869 5.295 12.961 5.38C14.308 6.604 15.5 7.747 15.5 9.5C15.5002 10.1466 15.3437 10.7835 15.0438 11.3564C14.7439 11.9292 14.3097 12.4208 13.7782 12.7891C13.2468 13.1573 12.634 13.3913 11.9923 13.4708C11.3507 13.5504 10.6993 13.4733 10.094 13.246C10.329 13.636 10.585 14.028 10.816 14.377C11.25 15.036 10.806 16 9.96 16H6.04C5.195 16 4.75 15.036 5.184 14.377C5.447 13.98 5.694 13.6 5.912 13.243C5.30661 13.4714 4.65484 13.5495 4.01262 13.4707C3.37039 13.3919 2.75688 13.1584 2.22471 12.7903C1.69254 12.4223 1.2576 11.9306 0.957202 11.3575C0.656805 10.7845 0.499918 10.147 0.5 9.5C0.5 7.747 1.692 6.604 3.039 5.38L3.32 5.125C4.646 3.925 6.212 2.508 7.571 0.243C7.61541 0.168879 7.67828 0.107533 7.75347 0.0649454C7.82865 0.0223577 7.91359 -1.81179e-05 8 1.10073e-08ZM3.711 6.12C2.308 7.396 1.5 8.253 1.5 9.5C1.49992 10.1126 1.68741 10.7106 2.03726 11.2136C2.38711 11.7165 2.88256 12.1002 3.45698 12.3132C4.03141 12.5262 4.65727 12.5583 5.25044 12.405C5.84361 12.2518 6.37564 11.9206 6.775 11.456C6.84743 11.3719 6.94578 11.3143 7.05456 11.2922C7.16335 11.2702 7.27637 11.285 7.37583 11.3342C7.47529 11.3835 7.55553 11.4645 7.6039 11.5644C7.65227 11.6643 7.66603 11.7774 7.643 11.886C7.549 12.324 7.313 12.818 7.032 13.314C6.71195 13.8629 6.37411 14.4011 6.019 14.928C6.01546 14.9333 6.01371 14.9396 6.014 14.946C6.01408 14.9562 6.01625 14.9662 6.02038 14.9755C6.02451 14.9848 6.0305 14.9931 6.038 15H9.962C9.9695 14.9931 9.97549 14.9848 9.97962 14.9755C9.98375 14.9662 9.98592 14.9562 9.986 14.946C9.98629 14.9396 9.98454 14.9333 9.981 14.928C9.681 14.473 9.323 13.923 9.021 13.393C8.727 12.879 8.451 12.329 8.357 11.886C8.33397 11.7774 8.34773 11.6643 8.3961 11.5644C8.44447 11.4645 8.52471 11.3835 8.62417 11.3342C8.72363 11.285 8.83665 11.2702 8.94544 11.2922C9.05422 11.3143 9.15257 11.3719 9.225 11.456C9.62436 11.9206 10.1564 12.2518 10.7496 12.405C11.3427 12.5583 11.9686 12.5262 12.543 12.3132C13.1174 12.1002 13.6129 11.7165 13.9627 11.2136C14.3126 10.7106 14.5001 10.1126 14.5 9.5C14.5 8.253 13.692 7.396 12.289 6.12L12 5.86C10.804 4.776 9.332 3.444 8 1.436C6.668 3.444 5.196 4.776 4 5.858L3.711 6.119V6.12Z"/></g><defs><clipPath id="clip0_104_3352"><rect width="16" height="16"/></clipPath></defs></svg>