<svg width="16" height="16" viewBox="0 0 16 16" fill="none" xmlns="http://www.w3.org/2000/svg">
<path d="M7.184 11.246C6.72278 11.7971 6.10311 12.1928 5.40916 12.3795C4.71521 12.5662 3.98063 12.5347 3.30518 12.2894C2.62973 12.0441 2.04617 11.5968 1.63376 11.0083C1.22135 10.4198 1.00007 9.71862 1 9C1 7.398 2.14 6.367 3.66 4.992C4.986 3.792 6.602 2.33 8 0C9.398 2.33 11.014 3.792 12.34 4.992C13.86 6.367 15 7.398 15 9C14.9999 9.71862 14.7787 10.4198 14.3662 11.0083C13.9538 11.5968 13.3703 12.0441 12.6948 12.2894C12.0194 12.5347 11.2848 12.5662 10.5908 12.3795C9.89689 12.1928 9.27722 11.7971 8.816 11.246C9.26178 12.2572 9.79094 13.2296 10.398 14.153C10.629 14.503 10.378 15 9.96 15H6.04C5.621 15 5.37 14.503 5.602 14.153C6.20906 13.2296 6.73822 12.2572 7.184 11.246Z" fill="black"/>
</svg>
