<svg width="16" height="16" viewBox="0 0 16 16" fill="none" xmlns="http://www.w3.org/2000/svg">
<g clip-path="url(#clip0_104_3340)">
<path d="M8 1C7.13804 1 6.31139 1.34241 5.7019 1.9519C5.09241 2.5614 4.75 3.38805 4.75 4.25C4.75 4.436 4.75 4.54 4.766 4.66C4.78 4.78 4.811 4.93 4.886 5.187L5.076 5.852L4.384 5.824C3.83218 5.80114 3.28364 5.91927 2.79015 6.16726C2.29667 6.41524 1.87452 6.7849 1.56356 7.24133C1.25259 7.69775 1.06307 8.2259 1.01289 8.7759C0.962707 9.32591 1.05351 9.87963 1.27674 10.3848C1.49996 10.89 1.84824 11.3299 2.2887 11.6631C2.72916 11.9963 3.24726 12.2118 3.7941 12.2892C4.34095 12.3665 4.89849 12.3033 5.4141 12.1054C5.92971 11.9075 6.38638 11.5814 6.741 11.158C6.81774 11.065 6.92549 11.0029 7.04441 10.9831C7.16333 10.9632 7.28541 10.9871 7.38817 11.0501C7.49092 11.1132 7.56742 11.2113 7.60359 11.3263C7.63976 11.4413 7.63316 11.5655 7.585 11.676L7.582 11.681L7.576 11.696L7.552 11.751C7.41315 12.061 7.26711 12.3678 7.114 12.671C6.73386 13.4267 6.31118 14.1602 5.848 14.868C5.835 14.886 5.828 14.918 5.849 14.958C5.859 14.978 5.87 14.988 5.879 14.994C5.88521 14.9981 5.89254 15.0002 5.9 15H10.1C10.11 15 10.116 14.998 10.122 14.994C10.1344 14.9849 10.1444 14.9729 10.151 14.959C10.171 14.919 10.165 14.886 10.152 14.868C9.50406 13.8747 8.93434 12.8326 8.448 11.751L8.424 11.697L8.418 11.682L8.416 11.678C8.36884 11.5683 8.3625 11.4453 8.39813 11.3313C8.43377 11.2174 8.50902 11.1199 8.61027 11.0566C8.71152 10.9933 8.83208 10.9683 8.95016 10.9862C9.06823 11.004 9.17601 11.0636 9.254 11.154C9.855 11.854 10.77 12.322 11.75 12.322C12.1802 12.3182 12.6054 12.229 13.0009 12.0596C13.3964 11.8903 13.7543 11.644 14.0539 11.3353C14.3535 11.0265 14.5888 10.6613 14.7461 10.2609C14.9035 9.86044 14.9798 9.43276 14.9706 9.00262C14.9614 8.57248 14.8669 8.14846 14.6925 7.75513C14.5182 7.36181 14.2675 7.00701 13.955 6.71132C13.6424 6.41564 13.2743 6.18494 12.872 6.03262C12.4696 5.88031 12.041 5.80939 11.611 5.824L10.912 5.854L11.111 5.183C11.251 4.713 11.251 4.438 11.25 4.256V4.25C11.25 3.38805 10.9076 2.5614 10.2981 1.9519C9.6886 1.34241 8.86195 1 8 1ZM10.207 13.024C10.432 13.429 10.694 13.872 10.987 14.318C11.437 15 10.975 16 10.1 16H5.9C5.024 16 4.562 15 5.013 14.317C5.304 13.875 5.565 13.437 5.789 13.034C5.22548 13.2522 4.62192 13.3476 4.01858 13.3141C3.41524 13.2805 2.82599 13.1187 2.29014 12.8394C1.7543 12.56 1.28418 12.1697 0.911144 11.6943C0.538108 11.2189 0.270735 10.6694 0.126861 10.0825C-0.0170137 9.49565 -0.034081 8.88482 0.0767974 8.2908C0.187676 7.69679 0.423951 7.13325 0.769859 6.63778C1.11577 6.1423 1.56336 5.72629 2.08277 5.41749C2.60218 5.10869 3.18147 4.9142 3.782 4.847C3.77875 4.8257 3.77575 4.80437 3.773 4.783C3.75 4.596 3.75 4.435 3.75 4.263V4.25C3.75 3.12283 4.19776 2.04183 4.99479 1.2448C5.79182 0.447767 6.87283 0 8 0C9.12717 0 10.2082 0.447767 11.0052 1.2448C11.8022 2.04183 12.25 3.12283 12.25 4.25C12.25 4.39 12.25 4.583 12.21 4.846C13.2927 4.96153 14.2898 5.48822 14.9955 6.31742C15.7013 7.14661 16.0618 8.21506 16.0028 9.30232C15.9438 10.3896 15.4697 11.4127 14.6784 12.1607C13.8871 12.9086 12.8389 13.3243 11.75 13.322C11.2215 13.321 10.6979 13.2199 10.207 13.024Z" fill="black"/>
</g>
<defs>
<clipPath id="clip0_104_3340">
<rect width="16" height="16" fill="white"/>
</clipPath>
</defs>
</svg>
