<svg width="16" height="16" viewBox="0 0 16 16" xmlns="http://www.w3.org/2000/svg" fill='currentColor'><path d="M2.45 7.39999L7.2 1.06699C7.29315 0.942796 7.41393 0.841993 7.55279 0.772565C7.69164 0.703137 7.84475 0.666992 8 0.666992C8.15525 0.666992 8.30836 0.703137 8.44721 0.772565C8.58607 0.841993 8.70685 0.942796 8.8 1.06699L13.55 7.39999C13.6798 7.57309 13.75 7.78362 13.75 7.99999C13.75 8.21636 13.6798 8.4269 13.55 8.59999L8.8 14.933C8.70685 15.0572 8.58607 15.158 8.44721 15.2274C8.30836 15.2968 8.15525 15.333 8 15.333C7.84475 15.333 7.69164 15.2968 7.55279 15.2274C7.41393 15.158 7.29315 15.0572 7.2 14.933L2.45 8.59999C2.32018 8.4269 2.25 8.21636 2.25 7.99999C2.25 7.78362 2.32018 7.57309 2.45 7.39999Z"/></svg>