<svg width="16" height="16" viewBox="0 0 16 16" fill="none" xmlns="http://www.w3.org/2000/svg">
<path d="M8 6.236L7.106 4.447C6.884 4.004 6.499 3.367 5.954 2.852C5.418 2.345 4.776 2 4 2C2.324 2 1 3.326 1 4.92C1 6.131 1.554 6.986 2.868 8.29C3.205 8.624 3.589 8.985 4.014 9.383C5.122 10.423 6.5 11.717 8 13.447C9.5 11.717 10.878 10.423 11.986 9.383C12.411 8.985 12.796 8.623 13.132 8.29C14.446 6.986 15 6.131 15 4.92C15 3.326 13.676 2 12 2C11.223 2 10.582 2.345 10.046 2.852C9.501 3.367 9.116 4.004 8.894 4.447L8 6.236ZM8.392 14.528C8.34384 14.585 8.28382 14.6309 8.21611 14.6623C8.14841 14.6938 8.07465 14.7101 8 14.7101C7.92535 14.7101 7.85159 14.6938 7.78389 14.6623C7.71618 14.6309 7.65616 14.585 7.608 14.528C6.007 12.626 4.558 11.266 3.365 10.147C1.3 8.208 0 6.989 0 4.92C0 2.755 1.79 1 4 1C5.6 1 6.719 2.05 7.404 3.008C7.664 3.373 7.862 3.724 8 4C8.17299 3.65457 8.37225 3.32293 8.596 3.008C9.281 2.049 10.4 1 12 1C14.21 1 16 2.755 16 4.92C16 6.989 14.7 8.208 12.635 10.147C11.442 11.267 9.993 12.627 8.392 14.527V14.528Z" fill="black"/>
</svg>
