<svg width="16" height="16" viewBox="0 0 16 16" xmlns="http://www.w3.org/2000/svg" fill='currentColor'><path d="M11.5 12.5C10.9881 12.5005 10.4823 12.3884 10.0185 12.1717C9.55466 11.955 9.14415 11.639 8.816 11.246C9.26178 12.2572 9.79094 13.2296 10.398 14.153C10.629 14.503 10.378 15 9.96 15H6.04C5.621 15 5.37 14.503 5.602 14.153C6.20906 13.2296 6.73822 12.2572 7.184 11.246C6.80223 11.7023 6.31047 12.0537 5.75516 12.2671C5.19984 12.4805 4.5993 12.5488 4.01025 12.4656C3.42119 12.3824 2.86307 12.1504 2.38858 11.7916C1.91408 11.4327 1.53889 10.9589 1.29842 10.4147C1.05795 9.87059 0.960146 9.27415 1.01424 8.68171C1.06834 8.08927 1.27255 7.5204 1.60759 7.02882C1.94263 6.53723 2.39744 6.13916 2.92907 5.87219C3.46071 5.60522 4.05162 5.47817 4.646 5.50303C4.49019 4.98062 4.45856 4.42904 4.55364 3.89224C4.64872 3.35545 4.86788 2.84829 5.19365 2.41118C5.51941 1.97407 5.94278 1.6191 6.43001 1.37457C6.91724 1.13003 7.45485 1.00269 8 1.00269C8.54515 1.00269 9.08276 1.13003 9.56999 1.37457C10.0572 1.6191 10.4806 1.97407 10.8063 2.41118C11.1321 2.84829 11.3513 3.35545 11.4464 3.89224C11.5414 4.42904 11.5098 4.98062 11.354 5.50303C11.8193 5.48375 12.2837 5.55752 12.7201 5.72001C13.1565 5.8825 13.5561 6.13044 13.8955 6.44931C14.2349 6.76819 14.5072 7.15158 14.6965 7.57703C14.8859 8.00248 14.9884 8.46144 14.9981 8.92701C15.0078 9.39259 14.9245 9.85542 14.7531 10.2884C14.5817 10.7214 14.3256 11.1158 13.9998 11.4486C13.674 11.7813 13.2851 12.0457 12.8559 12.2263C12.4266 12.4068 11.9657 12.4999 11.5 12.5Z"/></svg>