<svg width="16" height="16" viewBox="0 0 16 16" xmlns="http://www.w3.org/2000/svg" fill='currentColor'><path d="M8.384 1.22592C8.34162 1.16301 8.28445 1.11148 8.21749 1.07585C8.15053 1.04023 8.07585 1.02159 8 1.02159C7.92415 1.02159 7.84947 1.04023 7.78251 1.07585C7.71555 1.11148 7.65837 1.16301 7.616 1.22592L3.056 7.69392C2.99368 7.78379 2.96029 7.89055 2.96029 7.99992C2.96029 8.10928 2.99368 8.21604 3.056 8.30592L7.616 14.7749C7.65837 14.8378 7.71555 14.8894 7.78251 14.925C7.84947 14.9606 7.92415 14.9792 8 14.9792C8.07585 14.9792 8.15053 14.9606 8.21749 14.925C8.28445 14.8894 8.34162 14.8378 8.384 14.7749L12.944 8.30592C13.0063 8.21604 13.0397 8.10928 13.0397 7.99992C13.0397 7.89055 13.0063 7.78379 12.944 7.69392L8.384 1.22592ZM6.848 0.612917C6.97528 0.424411 7.14687 0.270018 7.34772 0.163283C7.54857 0.0565482 7.77255 0.000732422 8 0.000732422C8.22745 0.000732422 8.45143 0.0565482 8.65228 0.163283C8.85313 0.270018 9.02472 0.424411 9.152 0.612917L13.712 7.08092C13.8995 7.35068 14.0001 7.67137 14.0001 7.99992C14.0001 8.32847 13.8995 8.64915 13.712 8.91892L9.152 15.3869C9.02472 15.5754 8.85313 15.7298 8.65228 15.8366C8.45143 15.9433 8.22745 15.9991 8 15.9991C7.77255 15.9991 7.54857 15.9433 7.34772 15.8366C7.14687 15.7298 6.97528 15.5754 6.848 15.3869L2.288 8.91992C2.10046 8.65015 1.99994 8.32947 1.99994 8.00092C1.99994 7.67237 2.10046 7.35168 2.288 7.08192L6.848 0.612917Z"/></svg>