<svg width="16" height="16" viewBox="0 0 16 16" fill="none" xmlns="http://www.w3.org/2000/svg">
<path d="M8.384 1.22604C8.34162 1.16313 8.28445 1.1116 8.21749 1.07598C8.15053 1.04035 8.07585 1.02172 8 1.02172C7.92415 1.02172 7.84947 1.04035 7.78251 1.07598C7.71555 1.1116 7.65837 1.16313 7.616 1.22604L3.056 7.69404C2.99368 7.78391 2.96029 7.89067 2.96029 8.00004C2.96029 8.10941 2.99368 8.21617 3.056 8.30604L7.616 14.775C7.65837 14.8379 7.71555 14.8895 7.78251 14.9251C7.84947 14.9607 7.92415 14.9794 8 14.9794C8.07585 14.9794 8.15053 14.9607 8.21749 14.9251C8.28445 14.8895 8.34162 14.8379 8.384 14.775L12.944 8.30604C13.0063 8.21617 13.0397 8.10941 13.0397 8.00004C13.0397 7.89067 13.0063 7.78391 12.944 7.69404L8.384 1.22604ZM6.848 0.61304C6.97528 0.424533 7.14687 0.27014 7.34772 0.163405C7.54857 0.0566703 7.77255 0.000854492 8 0.000854492C8.22745 0.000854492 8.45143 0.0566703 8.65228 0.163405C8.85313 0.27014 9.02472 0.424533 9.152 0.61304L13.712 7.08104C13.8995 7.35081 14.0001 7.67149 14.0001 8.00004C14.0001 8.32859 13.8995 8.64927 13.712 8.91904L9.152 15.387C9.02472 15.5755 8.85313 15.7299 8.65228 15.8367C8.45143 15.9434 8.22745 15.9992 8 15.9992C7.77255 15.9992 7.54857 15.9434 7.34772 15.8367C7.14687 15.7299 6.97528 15.5755 6.848 15.387L2.288 8.92004C2.10046 8.65027 1.99994 8.32959 1.99994 8.00104C1.99994 7.67249 2.10046 7.35181 2.288 7.08204L6.848 0.61304Z" fill="black"/>
</svg>
