<svg width="16" height="16" viewBox="0 0 16 16" xmlns="http://www.w3.org/2000/svg" fill='currentColor'><g clip-path="url(#clip0_104_3360)"><path d="M3 5C2.46957 5 1.96086 5.21071 1.58579 5.58579C1.21071 5.96086 1 6.46957 1 7V7.5H0.5C0.367392 7.5 0.240215 7.55268 0.146447 7.64645C0.0526784 7.74022 0 7.86739 0 8C0 8.13261 0.0526784 8.25979 0.146447 8.35355C0.240215 8.44732 0.367392 8.5 0.5 8.5H1V9C1 9.53043 1.21071 10.0391 1.58579 10.4142C1.96086 10.7893 2.46957 11 3 11H4C4.79565 11 5.55871 10.6839 6.12132 10.1213C6.68393 9.55871 7 8.79565 7 8C7 7.73478 7.10536 7.48043 7.29289 7.29289C7.48043 7.10536 7.73478 7 8 7C8.26522 7 8.51957 7.10536 8.70711 7.29289C8.89464 7.48043 9 7.73478 9 8C9 8.79565 9.31607 9.55871 9.87868 10.1213C10.4413 10.6839 11.2044 11 12 11H13C13.5304 11 14.0391 10.7893 14.4142 10.4142C14.7893 10.0391 15 9.53043 15 9V8.5H15.5C15.6326 8.5 15.7598 8.44732 15.8536 8.35355C15.9473 8.25979 16 8.13261 16 8C16 7.86739 15.9473 7.74022 15.8536 7.64645C15.7598 7.55268 15.6326 7.5 15.5 7.5H15V7C15 6.46957 14.7893 5.96086 14.4142 5.58579C14.0391 5.21071 13.5304 5 13 5H11C10.5854 4.99985 10.1811 5.12852 9.84284 5.36822C9.50461 5.60792 9.24922 5.94681 9.112 6.338C8.78323 6.11719 8.39604 5.9995 8 6C7.60396 5.9995 7.21677 6.11719 6.888 6.338C6.75078 5.94681 6.49539 5.60792 6.15716 5.36822C5.81892 5.12852 5.41456 4.99985 5 5H3ZM3 6H3.941C4.205 6 4.289 6.356 4.053 6.474L3.596 6.702C3.20917 6.89549 2.89549 7.20917 2.702 7.596L2.474 8.053C2.356 8.289 2 8.205 2 7.94V7C2 6.73478 2.10536 6.48043 2.29289 6.29289C2.48043 6.10536 2.73478 6 3 6Z"/></g><defs><clipPath id="clip0_104_3360"><rect width="16" height="16"/></clipPath></defs></svg>