<svg width="16" height="16" viewBox="0 0 16 16" fill="none" xmlns="http://www.w3.org/2000/svg">
<g clip-path="url(#clip0_104_3364)">
<path d="M7.646 1.14604C7.69245 1.09948 7.74762 1.06253 7.80837 1.03733C7.86911 1.01212 7.93423 0.999146 8 0.999146C8.06577 0.999146 8.13089 1.01212 8.19163 1.03733C8.25238 1.06253 8.30755 1.09948 8.354 1.14604L9.854 2.64604C9.90049 2.69253 9.93736 2.74772 9.96252 2.80846C9.98768 2.8692 10.0006 2.9343 10.0006 3.00004C10.0006 3.06578 9.98768 3.13088 9.96252 3.19162C9.93736 3.25236 9.90049 3.30755 9.854 3.35404C9.80751 3.40053 9.75232 3.4374 9.69158 3.46256C9.63084 3.48772 9.56574 3.50067 9.5 3.50067C9.43426 3.50067 9.36916 3.48772 9.30842 3.46256C9.24768 3.4374 9.19249 3.40053 9.146 3.35404L8.5 2.70704V4.50004C8.5 4.63265 8.44732 4.75982 8.35355 4.85359C8.25979 4.94736 8.13261 5.00004 8 5.00004C7.86739 5.00004 7.74021 4.94736 7.64645 4.85359C7.55268 4.75982 7.5 4.63265 7.5 4.50004V2.70704L6.854 3.35404C6.80751 3.40053 6.75232 3.4374 6.69158 3.46256C6.63084 3.48772 6.56574 3.50067 6.5 3.50067C6.43426 3.50067 6.36916 3.48772 6.30842 3.46256C6.24768 3.4374 6.19249 3.40053 6.146 3.35404C6.09951 3.30755 6.06264 3.25236 6.03748 3.19162C6.01232 3.13088 5.99937 3.06578 5.99937 3.00004C5.99937 2.9343 6.01232 2.8692 6.03748 2.80846C6.06264 2.74772 6.09951 2.69253 6.146 2.64604L7.646 1.14604ZM2.343 4.34304C2.43676 4.2493 2.56392 4.19665 2.6965 4.19665C2.82908 4.19665 2.95624 4.2493 3.05 4.34304L4.464 5.75704C4.55508 5.85134 4.60548 5.97764 4.60434 6.10874C4.6032 6.23984 4.55061 6.36524 4.45791 6.45795C4.3652 6.55065 4.2398 6.60324 4.1087 6.60438C3.9776 6.60552 3.8513 6.55512 3.757 6.46404L2.343 5.05004C2.24926 4.95628 2.19661 4.82912 2.19661 4.69654C2.19661 4.56396 2.24926 4.4368 2.343 4.34304ZM13.657 4.34304C13.7507 4.4368 13.8034 4.56396 13.8034 4.69654C13.8034 4.82912 13.7507 4.95628 13.657 5.05004L12.243 6.46404C12.1969 6.51179 12.1417 6.54989 12.0807 6.57609C12.0197 6.60229 11.9541 6.61609 11.8877 6.61666C11.8213 6.61724 11.7555 6.60459 11.694 6.57945C11.6326 6.55431 11.5767 6.51718 11.5298 6.47024C11.4829 6.42329 11.4457 6.36746 11.4206 6.30602C11.3954 6.24457 11.3828 6.17873 11.3834 6.11234C11.384 6.04595 11.3977 5.98034 11.4239 5.91934C11.4502 5.85834 11.4882 5.80316 11.536 5.75704L12.95 4.34304C13.0438 4.2493 13.1709 4.19665 13.3035 4.19665C13.4361 4.19665 13.5632 4.2493 13.657 4.34304ZM11.709 11.5C11.9542 10.8929 12.0466 10.2348 11.978 9.58363C11.9095 8.93243 11.6822 8.30802 11.316 7.7652C10.9497 7.22239 10.4559 6.77777 9.87773 6.47039C9.29957 6.16301 8.65479 6.00227 8 6.00227C7.34521 6.00227 6.70043 6.16301 6.12227 6.47039C5.54411 6.77777 5.05025 7.22239 4.68405 7.7652C4.31784 8.30802 4.0905 8.93243 4.02197 9.58363C3.95344 10.2348 4.04582 10.8929 4.291 11.5H0.5C0.367392 11.5 0.240215 11.5527 0.146447 11.6465C0.0526784 11.7403 0 11.8674 0 12C0 12.1326 0.0526784 12.2598 0.146447 12.3536C0.240215 12.4474 0.367392 12.5 0.5 12.5H15.5C15.6326 12.5 15.7598 12.4474 15.8536 12.3536C15.9473 12.2598 16 12.1326 16 12C16 11.8674 15.9473 11.7403 15.8536 11.6465C15.7598 11.5527 15.6326 11.5 15.5 11.5H11.71H11.709ZM0 10C0 9.86743 0.0526784 9.74025 0.146447 9.64649C0.240215 9.55272 0.367392 9.50004 0.5 9.50004H2.5C2.63261 9.50004 2.75979 9.55272 2.85355 9.64649C2.94732 9.74025 3 9.86743 3 10C3 10.1326 2.94732 10.2598 2.85355 10.3536C2.75979 10.4474 2.63261 10.5 2.5 10.5H0.5C0.367392 10.5 0.240215 10.4474 0.146447 10.3536C0.0526784 10.2598 0 10.1326 0 10ZM13 10C13 9.86743 13.0527 9.74025 13.1464 9.64649C13.2402 9.55272 13.3674 9.50004 13.5 9.50004H15.5C15.6326 9.50004 15.7598 9.55272 15.8536 9.64649C15.9473 9.74025 16 9.86743 16 10C16 10.1326 15.9473 10.2598 15.8536 10.3536C15.7598 10.4474 15.6326 10.5 15.5 10.5H13.5C13.3674 10.5 13.2402 10.4474 13.1464 10.3536C13.0527 10.2598 13 10.1326 13 10Z" fill="black"/>
</g>
<defs>
<clipPath id="clip0_104_3364">
<rect width="16" height="16" fill="white"/>
</clipPath>
</defs>
</svg>
