<svg width="16" height="16" viewBox="0 0 16 16" xmlns="http://www.w3.org/2000/svg" fill='currentColor'><g clip-path="url(#clip0_104_3362)"><path d="M7.64599 1.14592C7.69244 1.09935 7.74761 1.06241 7.80836 1.0372C7.8691 1.012 7.93423 0.999023 7.99999 0.999023C8.06576 0.999023 8.13088 1.012 8.19163 1.0372C8.25237 1.06241 8.30755 1.09935 8.35399 1.14592L9.85399 2.64592C9.90048 2.69241 9.93736 2.74759 9.96252 2.80833C9.98768 2.86907 10.0006 2.93417 10.0006 2.99992C10.0006 3.06566 9.98768 3.13076 9.96252 3.1915C9.93736 3.25224 9.90048 3.30743 9.85399 3.35392C9.80751 3.40041 9.75232 3.43728 9.69158 3.46244C9.63084 3.4876 9.56574 3.50055 9.49999 3.50055C9.43425 3.50055 9.36915 3.4876 9.30841 3.46244C9.24767 3.43728 9.19248 3.40041 9.14599 3.35392L8.49999 2.70692V4.49992C8.49999 4.63253 8.44732 4.7597 8.35355 4.85347C8.25978 4.94724 8.1326 4.99992 7.99999 4.99992C7.86738 4.99992 7.74021 4.94724 7.64644 4.85347C7.55267 4.7597 7.49999 4.63253 7.49999 4.49992V2.70692L6.85399 3.35392C6.80751 3.40041 6.75232 3.43728 6.69158 3.46244C6.63084 3.4876 6.56574 3.50055 6.49999 3.50055C6.43425 3.50055 6.36915 3.4876 6.30841 3.46244C6.24767 3.43728 6.19248 3.40041 6.14599 3.35392C6.0995 3.30743 6.06263 3.25224 6.03747 3.1915C6.01231 3.13076 5.99936 3.06566 5.99936 2.99992C5.99936 2.93417 6.01231 2.86907 6.03747 2.80833C6.06263 2.74759 6.0995 2.69241 6.14599 2.64592L7.64599 1.14592ZM2.34299 4.34292C2.43676 4.24918 2.56391 4.19652 2.69649 4.19652C2.82908 4.19652 2.95623 4.24918 3.04999 4.34292L4.46399 5.75692C4.55507 5.85122 4.60547 5.97752 4.60433 6.10862C4.60319 6.23972 4.55061 6.36512 4.4579 6.45783C4.3652 6.55053 4.23979 6.60312 4.10869 6.60425C3.9776 6.60539 3.85129 6.555 3.75699 6.46392L2.34299 5.04992C2.24926 4.95615 2.1966 4.829 2.1966 4.69642C2.1966 4.56383 2.24926 4.43668 2.34299 4.34292ZM13.657 4.34292C13.7507 4.43668 13.8034 4.56383 13.8034 4.69642C13.8034 4.829 13.7507 4.95615 13.657 5.04992L12.243 6.46392C12.1969 6.51167 12.1417 6.54976 12.0807 6.57597C12.0197 6.60217 11.9541 6.61597 11.8877 6.61654C11.8213 6.61712 11.7555 6.60447 11.694 6.57933C11.6326 6.55419 11.5767 6.51706 11.5298 6.47011C11.4828 6.42317 11.4457 6.36734 11.4206 6.30589C11.3954 6.24445 11.3828 6.17861 11.3834 6.11222C11.3839 6.04583 11.3977 5.98022 11.4239 5.91921C11.4501 5.85821 11.4882 5.80304 11.536 5.75692L12.95 4.34292C13.0438 4.24918 13.1709 4.19652 13.3035 4.19652C13.4361 4.19652 13.5632 4.24918 13.657 4.34292ZM7.99999 6.99992C8.52668 6.99975 9.04413 7.13826 9.50032 7.40149C9.9565 7.66473 10.3353 8.04343 10.5988 8.49952C10.8622 8.9556 11.0009 9.473 11.0009 9.99969C11.001 10.5264 10.8623 11.0438 10.599 11.4999H5.39999C5.13661 11.0437 4.99798 10.5262 4.99807 9.99944C4.99815 9.47266 5.13694 8.9552 5.40047 8.49908C5.66401 8.04297 6.04299 7.66429 6.49932 7.40112C6.95564 7.13795 7.47322 6.99958 7.99999 6.99992ZM11.71 11.4999C11.9552 10.8928 12.0476 10.2347 11.979 9.5835C11.9105 8.93231 11.6831 8.3079 11.3169 7.76508C10.9507 7.22227 10.4569 6.77765 9.87872 6.47027C9.30056 6.16289 8.65578 6.00215 8.00099 6.00215C7.3462 6.00215 6.70142 6.16289 6.12326 6.47027C5.5451 6.77765 5.05124 7.22227 4.68504 7.76508C4.31884 8.3079 4.09149 8.93231 4.02296 9.5835C3.95443 10.2347 4.04681 10.8928 4.29199 11.4999H0.498993C0.366385 11.4999 0.239208 11.5526 0.14544 11.6464C0.0516713 11.7401 -0.00100708 11.8673 -0.00100708 11.9999C-0.00100708 12.1325 0.0516713 12.2597 0.14544 12.3535C0.239208 12.4472 0.366385 12.4999 0.498993 12.4999H15.499C15.6316 12.4999 15.7588 12.4472 15.8525 12.3535C15.9463 12.2597 15.999 12.1325 15.999 11.9999C15.999 11.8673 15.9463 11.7401 15.8525 11.6464C15.7588 11.5526 15.6316 11.4999 15.499 11.4999H11.709H11.71ZM-7.08003e-06 9.99992C-7.08003e-06 9.86731 0.0526714 9.74013 0.14644 9.64636C0.240208 9.5526 0.367385 9.49992 0.499993 9.49992H2.49999C2.6326 9.49992 2.75978 9.5526 2.85355 9.64636C2.94731 9.74013 2.99999 9.86731 2.99999 9.99992C2.99999 10.1325 2.94731 10.2597 2.85355 10.3535C2.75978 10.4472 2.6326 10.4999 2.49999 10.4999H0.499993C0.367385 10.4999 0.240208 10.4472 0.14644 10.3535C0.0526714 10.2597 -7.08003e-06 10.1325 -7.08003e-06 9.99992ZM13 9.99992C13 9.86731 13.0527 9.74013 13.1464 9.64636C13.2402 9.5526 13.3674 9.49992 13.5 9.49992H15.5C15.6326 9.49992 15.7598 9.5526 15.8535 9.64636C15.9473 9.74013 16 9.86731 16 9.99992C16 10.1325 15.9473 10.2597 15.8535 10.3535C15.7598 10.4472 15.6326 10.4999 15.5 10.4999H13.5C13.3674 10.4999 13.2402 10.4472 13.1464 10.3535C13.0527 10.2597 13 10.1325 13 9.99992Z"/></g><defs><clipPath id="clip0_104_3362"><rect width="16" height="16"/></clipPath></defs></svg>