<svg width="16" height="16" viewBox="0 0 16 16" xmlns="http://www.w3.org/2000/svg" fill='currentColor'><g clip-path="url(#clip0_104_3364)"><path d="M7.646 1.14592C7.69245 1.09935 7.74762 1.06241 7.80837 1.0372C7.86911 1.012 7.93423 0.999023 8 0.999023C8.06577 0.999023 8.13089 1.012 8.19163 1.0372C8.25238 1.06241 8.30755 1.09935 8.354 1.14592L9.854 2.64592C9.90049 2.69241 9.93736 2.74759 9.96252 2.80833C9.98768 2.86907 10.0006 2.93417 10.0006 2.99992C10.0006 3.06566 9.98768 3.13076 9.96252 3.1915C9.93736 3.25224 9.90049 3.30743 9.854 3.35392C9.80751 3.40041 9.75232 3.43728 9.69158 3.46244C9.63084 3.4876 9.56574 3.50055 9.5 3.50055C9.43426 3.50055 9.36916 3.4876 9.30842 3.46244C9.24768 3.43728 9.19249 3.40041 9.146 3.35392L8.5 2.70692V4.49992C8.5 4.63253 8.44732 4.7597 8.35355 4.85347C8.25979 4.94724 8.13261 4.99992 8 4.99992C7.86739 4.99992 7.74021 4.94724 7.64645 4.85347C7.55268 4.7597 7.5 4.63253 7.5 4.49992V2.70692L6.854 3.35392C6.80751 3.40041 6.75232 3.43728 6.69158 3.46244C6.63084 3.4876 6.56574 3.50055 6.5 3.50055C6.43426 3.50055 6.36916 3.4876 6.30842 3.46244C6.24768 3.43728 6.19249 3.40041 6.146 3.35392C6.09951 3.30743 6.06264 3.25224 6.03748 3.1915C6.01232 3.13076 5.99937 3.06566 5.99937 2.99992C5.99937 2.93417 6.01232 2.86907 6.03748 2.80833C6.06264 2.74759 6.09951 2.69241 6.146 2.64592L7.646 1.14592ZM2.343 4.34292C2.43676 4.24918 2.56392 4.19652 2.6965 4.19652C2.82908 4.19652 2.95624 4.24918 3.05 4.34292L4.464 5.75692C4.55508 5.85122 4.60548 5.97752 4.60434 6.10862C4.6032 6.23972 4.55061 6.36512 4.45791 6.45783C4.3652 6.55053 4.2398 6.60312 4.1087 6.60425C3.9776 6.60539 3.8513 6.555 3.757 6.46392L2.343 5.04992C2.24926 4.95615 2.19661 4.829 2.19661 4.69642C2.19661 4.56383 2.24926 4.43668 2.343 4.34292ZM13.657 4.34292C13.7507 4.43668 13.8034 4.56383 13.8034 4.69642C13.8034 4.829 13.7507 4.95615 13.657 5.04992L12.243 6.46392C12.1969 6.51167 12.1417 6.54976 12.0807 6.57597C12.0197 6.60217 11.9541 6.61597 11.8877 6.61654C11.8213 6.61712 11.7555 6.60447 11.694 6.57933C11.6326 6.55419 11.5767 6.51706 11.5298 6.47011C11.4829 6.42317 11.4457 6.36734 11.4206 6.30589C11.3954 6.24445 11.3828 6.17861 11.3834 6.11222C11.384 6.04583 11.3977 5.98022 11.4239 5.91921C11.4502 5.85821 11.4882 5.80304 11.536 5.75692L12.95 4.34292C13.0438 4.24918 13.1709 4.19652 13.3035 4.19652C13.4361 4.19652 13.5632 4.24918 13.657 4.34292ZM11.709 11.4999C11.9542 10.8928 12.0466 10.2347 11.978 9.5835C11.9095 8.93231 11.6822 8.3079 11.316 7.76508C10.9497 7.22227 10.4559 6.77765 9.87773 6.47027C9.29957 6.16289 8.65479 6.00215 8 6.00215C7.34521 6.00215 6.70043 6.16289 6.12227 6.47027C5.54411 6.77765 5.05025 7.22227 4.68405 7.76508C4.31784 8.3079 4.0905 8.93231 4.02197 9.5835C3.95344 10.2347 4.04582 10.8928 4.291 11.4999H0.5C0.367392 11.4999 0.240215 11.5526 0.146447 11.6464C0.0526784 11.7401 0 11.8673 0 11.9999C0 12.1325 0.0526784 12.2597 0.146447 12.3535C0.240215 12.4472 0.367392 12.4999 0.5 12.4999H15.5C15.6326 12.4999 15.7598 12.4472 15.8536 12.3535C15.9473 12.2597 16 12.1325 16 11.9999C16 11.8673 15.9473 11.7401 15.8536 11.6464C15.7598 11.5526 15.6326 11.4999 15.5 11.4999H11.71H11.709ZM0 9.99992C0 9.86731 0.0526784 9.74013 0.146447 9.64636C0.240215 9.5526 0.367392 9.49992 0.5 9.49992H2.5C2.63261 9.49992 2.75979 9.5526 2.85355 9.64636C2.94732 9.74013 3 9.86731 3 9.99992C3 10.1325 2.94732 10.2597 2.85355 10.3535C2.75979 10.4472 2.63261 10.4999 2.5 10.4999H0.5C0.367392 10.4999 0.240215 10.4472 0.146447 10.3535C0.0526784 10.2597 0 10.1325 0 9.99992ZM13 9.99992C13 9.86731 13.0527 9.74013 13.1464 9.64636C13.2402 9.5526 13.3674 9.49992 13.5 9.49992H15.5C15.6326 9.49992 15.7598 9.5526 15.8536 9.64636C15.9473 9.74013 16 9.86731 16 9.99992C16 10.1325 15.9473 10.2597 15.8536 10.3535C15.7598 10.4472 15.6326 10.4999 15.5 10.4999H13.5C13.3674 10.4999 13.2402 10.4472 13.1464 10.3535C13.0527 10.2597 13 10.1325 13 9.99992Z"/></g><defs><clipPath id="clip0_104_3364"><rect width="16" height="16"/></clipPath></defs></svg>