<svg width="16" height="16" viewBox="0 0 16 16" xmlns="http://www.w3.org/2000/svg" fill='currentColor'><g clip-path="url(#clip0_104_3368)"><path d="M7.646 4.854C7.69245 4.90056 7.74762 4.93751 7.80837 4.96271C7.86911 4.98792 7.93423 5.00089 8 5.00089C8.06577 5.00089 8.13089 4.98792 8.19163 4.96271C8.25238 4.93751 8.30755 4.90056 8.354 4.854L9.854 3.354C9.90049 3.30751 9.93736 3.25232 9.96252 3.19158C9.98768 3.13084 10.0006 3.06574 10.0006 3C10.0006 2.93426 9.98768 2.86916 9.96252 2.80842C9.93736 2.74768 9.90049 2.69249 9.854 2.646C9.80751 2.59951 9.75232 2.56264 9.69158 2.53748C9.63084 2.51232 9.56574 2.49937 9.5 2.49937C9.43426 2.49937 9.36916 2.51232 9.30842 2.53748C9.24768 2.56264 9.19249 2.59951 9.146 2.646L8.5 3.293V1.5C8.5 1.36739 8.44732 1.24021 8.35355 1.14645C8.25979 1.05268 8.13261 1 8 1C7.86739 1 7.74021 1.05268 7.64645 1.14645C7.55268 1.24021 7.5 1.36739 7.5 1.5V3.293L6.854 2.646C6.80751 2.59951 6.75232 2.56264 6.69158 2.53748C6.63084 2.51232 6.56574 2.49937 6.5 2.49937C6.43426 2.49937 6.36916 2.51232 6.30842 2.53748C6.24768 2.56264 6.19249 2.59951 6.146 2.646C6.09951 2.69249 6.06264 2.74768 6.03748 2.80842C6.01232 2.86916 5.99937 2.93426 5.99937 3C5.99937 3.06574 6.01232 3.13084 6.03748 3.19158C6.06264 3.25232 6.09951 3.30751 6.146 3.354L7.646 4.854ZM2.343 4.344C2.43676 4.25026 2.56392 4.19761 2.6965 4.19761C2.82908 4.19761 2.95624 4.25026 3.05 4.344L4.464 5.757C4.55508 5.8513 4.60548 5.9776 4.60434 6.1087C4.6032 6.2398 4.55061 6.3652 4.45791 6.45791C4.3652 6.55061 4.2398 6.6032 4.1087 6.60434C3.9776 6.60548 3.8513 6.55508 3.757 6.464L2.343 5.05C2.24926 4.95624 2.19661 4.82908 2.19661 4.6965C2.19661 4.56392 2.24926 4.43676 2.343 4.343V4.344ZM13.657 4.344C13.7504 4.43772 13.8029 4.56466 13.8029 4.697C13.8029 4.82934 13.7504 4.95628 13.657 5.05L12.243 6.464C12.1969 6.51176 12.1417 6.54985 12.0807 6.57605C12.0197 6.60226 11.9541 6.61605 11.8877 6.61663C11.8213 6.6172 11.7555 6.60455 11.694 6.57941C11.6326 6.55427 11.5767 6.51714 11.5298 6.4702C11.4829 6.42325 11.4457 6.36742 11.4206 6.30598C11.3954 6.24453 11.3828 6.17869 11.3834 6.1123C11.384 6.04591 11.3977 5.9803 11.4239 5.9193C11.4502 5.8583 11.4882 5.80312 11.536 5.757L12.95 4.343C13.0438 4.24926 13.1709 4.19661 13.3035 4.19661C13.4361 4.19661 13.5632 4.24926 13.657 4.343V4.344ZM11.709 11.5C11.9542 10.8928 12.0466 10.2348 11.978 9.58359C11.9095 8.93239 11.6822 8.30798 11.316 7.76516C10.9497 7.22235 10.4559 6.77774 9.87773 6.47036C9.29957 6.16298 8.65479 6.00223 8 6.00223C7.34521 6.00223 6.70043 6.16298 6.12227 6.47036C5.54411 6.77774 5.05025 7.22235 4.68405 7.76516C4.31784 8.30798 4.0905 8.93239 4.02197 9.58359C3.95344 10.2348 4.04582 10.8928 4.291 11.5H0.5C0.367392 11.5 0.240215 11.5527 0.146447 11.6464C0.0526784 11.7402 0 11.8674 0 12C0 12.1326 0.0526784 12.2598 0.146447 12.3536C0.240215 12.4473 0.367392 12.5 0.5 12.5H15.5C15.6326 12.5 15.7598 12.4473 15.8536 12.3536C15.9473 12.2598 16 12.1326 16 12C16 11.8674 15.9473 11.7402 15.8536 11.6464C15.7598 11.5527 15.6326 11.5 15.5 11.5H11.71H11.709ZM0 10C0 9.86739 0.0526784 9.74021 0.146447 9.64645C0.240215 9.55268 0.367392 9.5 0.5 9.5H2.5C2.63261 9.5 2.75979 9.55268 2.85355 9.64645C2.94732 9.74021 3 9.86739 3 10C3 10.1326 2.94732 10.2598 2.85355 10.3536C2.75979 10.4473 2.63261 10.5 2.5 10.5H0.5C0.367392 10.5 0.240215 10.4473 0.146447 10.3536C0.0526784 10.2598 0 10.1326 0 10ZM13 10C13 9.86739 13.0527 9.74021 13.1464 9.64645C13.2402 9.55268 13.3674 9.5 13.5 9.5H15.5C15.6326 9.5 15.7598 9.55268 15.8536 9.64645C15.9473 9.74021 16 9.86739 16 10C16 10.1326 15.9473 10.2598 15.8536 10.3536C15.7598 10.4473 15.6326 10.5 15.5 10.5H13.5C13.3674 10.5 13.2402 10.4473 13.1464 10.3536C13.0527 10.2598 13 10.1326 13 10Z"/></g><defs><clipPath id="clip0_104_3368"><rect width="16" height="16"/></clipPath></defs></svg>