<svg width="24" height="24" viewBox="0 0 24 24" xmlns="http://www.w3.org/2000/svg" fill='currentColor'><path d="M3.5223 12.1287C3.3223 11.2687 3.2223 10.3687 3.2223 9.44873C3.2223 6.60873 4.2123 3.99873 5.8523 1.94873L6.9223 3.01873C5.5423 4.79873 4.7223 7.02873 4.7223 9.44873C4.7223 10.3287 4.8323 11.1887 5.0423 12.0087L6.6623 10.3887L7.7223 11.4487L4.2223 14.9487L0.722298 11.4487L1.7823 10.3887L3.5223 12.1287ZM13.5723 11.5687L10.8923 6.19873C10.5223 5.45873 9.6223 5.15873 8.8823 5.52873C8.1323 5.90873 7.8323 6.80873 8.2023 7.54873L13.0123 17.1487L9.7723 17.9487C9.4423 18.0387 9.1823 18.2787 9.0723 18.6087L8.7223 19.7287L14.9123 21.9787C15.4123 22.1487 16.1923 21.9987 16.6623 21.7587L22.1723 19.0087C23.0623 18.5587 23.4923 17.5287 23.1723 16.5887L21.7423 12.3187C21.4723 11.4987 20.7023 10.9487 19.8423 10.9487H15.2823C14.9723 10.9487 14.6623 11.0187 14.3923 11.1587L13.5723 11.5687Z"/></svg>