<svg xmlns="http://www.w3.org/2000/svg" width="24" height="24" viewBox="0 0 24 24" fill='currentColor'><path d="M1.222 3.449h2.02a13.4 13.4 0 0 0-3.02 8.5c0 3.22 1.13 6.18 3.02 8.5h-2.02v1.5h5v-5h-1.5v2.91c-1.86-2.11-3-4.88-3-7.91s1.14-5.79 3-7.91v2.91h1.5v-5h-5zm12.85 8.12-2.68-5.37a1.5 1.5 0 0 0-2.01-.67c-.75.38-1.05 1.28-.68 2.02l4.81 9.6-3.24.8c-.33.09-.59.33-.7.66l-.35 1.12 6.19 2.25c.5.17 1.28.02 1.75-.22l5.51-2.75c.89-.45 1.32-1.48 1-2.42l-1.43-4.27a2 2 0 0 0-1.9-1.37h-4.56c-.31 0-.62.07-.89.21z"/></svg>