<svg width="16" height="16" viewBox="0 0 16 16" fill="none" xmlns="http://www.w3.org/2000/svg">
<g clip-path="url(#clip0_104_3370)">
<path d="M13.5 7C13.6112 7.00015 13.7192 6.96324 13.8071 6.89512C13.8949 6.82699 13.9576 6.73152 13.9851 6.62382C14.0126 6.51611 14.0035 6.40229 13.9591 6.30037C13.9147 6.19844 13.8376 6.11421 13.74 6.061L2.74 0.0609996C2.66383 0.0193227 2.57812 -0.00180049 2.4913 -0.000290586C2.40449 0.00121932 2.31957 0.0253103 2.24489 0.0696108C2.17022 0.113911 2.10836 0.176894 2.06542 0.25236C2.02248 0.327826 1.99994 0.413173 2 0.5V6.5C2 6.63261 2.05268 6.75978 2.14645 6.85355C2.24022 6.94732 2.36739 7 2.5 7H13.5ZM13.985 9.376C14.0125 9.48384 14.0032 9.59776 13.9587 9.69974C13.9141 9.80172 13.8368 9.88592 13.739 9.939L2.739 15.939C2.66286 15.9804 2.57726 16.0014 2.49059 15.9997C2.40392 15.9981 2.31916 15.974 2.24464 15.9297C2.17011 15.8854 2.10837 15.8225 2.06549 15.7472C2.0226 15.6719 2.00003 15.5867 2 15.5V9.5C2 9.36739 2.05268 9.24021 2.14645 9.14645C2.24022 9.05268 2.36739 9 2.5 9H13.5C13.6111 8.99986 13.7191 9.03675 13.807 9.10484C13.8948 9.17293 13.9574 9.26834 13.985 9.376ZM11.539 10H3V14.658L11.54 10H11.539Z" fill="black"/>
</g>
<defs>
<clipPath id="clip0_104_3370">
<rect width="16" height="16" fill="white"/>
</clipPath>
</defs>
</svg>
