<svg width="16" height="16" viewBox="0 0 16 16" xmlns="http://www.w3.org/2000/svg" fill='currentColor'><g clip-path="url(#clip0_104_3370)"><path d="M13.5 7.00012C13.6112 7.00027 13.7192 6.96337 13.8071 6.89524C13.8949 6.82711 13.9576 6.73165 13.9851 6.62394C14.0126 6.51623 14.0035 6.40242 13.9591 6.30049C13.9147 6.19856 13.8376 6.11434 13.74 6.06112L2.74 0.0611217C2.66383 0.0194447 2.57812 -0.00167842 2.4913 -0.000168516C2.40449 0.00134139 2.31957 0.0254323 2.24489 0.0697329C2.17022 0.114033 2.10836 0.177016 2.06542 0.252482C2.02248 0.327948 1.99994 0.413295 2 0.500122V6.50012C2 6.63273 2.05268 6.75991 2.14645 6.85367C2.24022 6.94744 2.36739 7.00012 2.5 7.00012H13.5ZM13.985 9.37612C14.0125 9.48396 14.0032 9.59789 13.9587 9.69986C13.9141 9.80184 13.8368 9.88604 13.739 9.93912L2.739 15.9391C2.66286 15.9806 2.57726 16.0015 2.49059 15.9999C2.40392 15.9982 2.31916 15.9741 2.24464 15.9298C2.17011 15.8855 2.10837 15.8227 2.06549 15.7473C2.0226 15.672 2.00003 15.5868 2 15.5001V9.50012C2 9.36751 2.05268 9.24034 2.14645 9.14657C2.24022 9.0528 2.36739 9.00012 2.5 9.00012H13.5C13.6111 8.99998 13.7191 9.03687 13.807 9.10496C13.8948 9.17305 13.9574 9.26846 13.985 9.37612ZM11.539 10.0001H3V14.6581L11.54 10.0001H11.539Z"/></g><defs><clipPath id="clip0_104_3370"><rect width="16" height="16"/></clipPath></defs></svg>