<svg width="24" height="24" viewBox="0 0 24 24" xmlns="http://www.w3.org/2000/svg" fill='currentColor'><path d="M10.57 5.78018V3.69018C9.77 3.90018 9.02 4.23018 8.34 4.65018L9.8 6.11018C10.05 5.99018 10.3 5.87018 10.57 5.78018ZM3.43 4.84018L5.79 7.20018C5.02 8.42018 4.57 9.87018 4.57 11.4302C4.57 13.6402 5.48 15.6302 6.93 17.0702L4.57 19.4302H10.57V13.4302L8.33 15.6702C7.25 14.5802 6.57 13.0902 6.57 11.4302C6.57 10.4302 6.82 9.49018 7.25 8.66018L15.33 16.7402C15.08 16.8702 14.83 16.9902 14.56 17.0802V19.1702C15.36 18.9602 16.11 18.6302 16.79 18.2102L19.15 20.5702L20.42 19.3002L4.71 3.57018L3.43 4.84018ZM20.57 3.43018H14.57V9.43018L16.81 7.19018C17.89 8.28018 18.57 9.77018 18.57 11.4302C18.57 12.4302 18.32 13.3702 17.89 14.2002L19.35 15.6602C20.12 14.4402 20.57 12.9902 20.57 11.4302C20.57 9.22018 19.66 7.23018 18.21 5.79018L20.57 3.43018Z"/></svg>