<svg width="16" height="16" viewBox="0 0 16 16" xmlns="http://www.w3.org/2000/svg" fill='currentColor'><path d="M2 1C1.73478 1 1.48043 1.10536 1.29289 1.29289C1.10536 1.48043 1 1.73478 1 2V6.586C1.00006 6.85119 1.10545 7.10551 1.293 7.293L8.293 14.293C8.48053 14.4805 8.73484 14.5858 9 14.5858C9.26516 14.5858 9.51947 14.4805 9.707 14.293L14.293 9.707C14.4805 9.51947 14.5858 9.26516 14.5858 9C14.5858 8.73484 14.4805 8.48053 14.293 8.293L7.293 1.293C7.10551 1.10545 6.85119 1.00006 6.586 1H2ZM6 4.5C6 4.89782 5.84196 5.27936 5.56066 5.56066C5.27936 5.84196 4.89782 6 4.5 6C4.10218 6 3.72064 5.84196 3.43934 5.56066C3.15804 5.27936 3 4.89782 3 4.5C3 4.10218 3.15804 3.72064 3.43934 3.43934C3.72064 3.15804 4.10218 3 4.5 3C4.89782 3 5.27936 3.15804 5.56066 3.43934C5.84196 3.72064 6 4.10218 6 4.5Z"/></svg>