<svg xmlns="http://www.w3.org/2000/svg" width="24" height="24" viewBox="0 0 24 24" fill='currentColor'><path d="M23 7.995a7 7 0 0 0-13.32-3H7v2H4.5a1.5 1.5 0 0 0-1.42 1.01L1 13.995v8a1 1 0 0 0 1 1h1a1 1 0 0 0 1-1v-1h12v1a1 1 0 0 0 1 1h1a1 1 0 0 0 1-1v-7.68a7.01 7.01 0 0 0 4-6.32m-18.5.5h4.53a6.93 6.93 0 0 0 2.08 4.5H3zm0 9.5a1.5 1.5 0 1 1 0-3 1.5 1.5 0 0 1 0 3m11 0a1.5 1.5 0 1 1 0-3 1.5 1.5 0 0 1 0 3m2.93-5.63-.21.11-.18.09q-.206.09-.42.16l-.22.07-.23.06-.2.05a5 5 0 0 1-5.94-4.41 4 4 0 0 1-.03-.5l.02-.47.02-.17.04-.28.04-.21.05-.21.07-.24.05-.13a4.99 4.99 0 0 1 9.69 1.7 4.96 4.96 0 0 1-2.55 4.38M15 3.995h2v5h-2zm0 6h2v2h-2z"/></svg>