<svg width="16" height="16" viewBox="0 0 16 16" fill="none" xmlns="http://www.w3.org/2000/svg">
<g clip-path="url(#clip0_104_3418)">
<path fill-rule="evenodd" clip-rule="evenodd" d="M1.88501 0.511C2.05999 0.336289 2.27009 0.200758 2.50141 0.11339C2.73273 0.0260217 2.97997 -0.0111893 3.22675 0.00422291C3.47354 0.0196351 3.71423 0.0873186 3.93288 0.202788C4.15152 0.318257 4.34314 0.478876 4.49501 0.674L6.29001 2.98C6.61901 3.403 6.73501 3.954 6.60501 4.474L6.05801 6.664C6.02973 6.77743 6.03126 6.89624 6.06245 7.00891C6.09364 7.12157 6.15343 7.22426 6.23601 7.307L8.69301 9.764C8.77585 9.84675 8.87871 9.90664 8.99156 9.93784C9.10442 9.96903 9.22344 9.97047 9.33701 9.942L11.526 9.395C11.7826 9.33084 12.0505 9.32586 12.3093 9.38043C12.5681 9.435 12.8111 9.5477 13.02 9.71L15.326 11.504C16.155 12.149 16.231 13.374 15.489 14.115L14.455 15.149C13.715 15.889 12.609 16.214 11.578 15.851C8.9392 14.9225 6.54329 13.4118 4.56801 11.431C2.5873 9.45602 1.07662 7.06046 0.148013 4.422C-0.213987 3.392 0.111013 2.285 0.851013 1.545L1.88501 0.511ZM11 0.5C11 0.367392 11.0527 0.240215 11.1465 0.146447C11.2402 0.0526784 11.3674 0 11.5 0L15.5 0C15.6326 0 15.7598 0.0526784 15.8536 0.146447C15.9473 0.240215 16 0.367392 16 0.5V4.5C16 4.63261 15.9473 4.75979 15.8536 4.85355C15.7598 4.94732 15.6326 5 15.5 5C15.3674 5 15.2402 4.94732 15.1465 4.85355C15.0527 4.75979 15 4.63261 15 4.5V1.707L10.854 5.854C10.7601 5.94789 10.6328 6.00063 10.5 6.00063C10.3672 6.00063 10.2399 5.94789 10.146 5.854C10.0521 5.76011 9.99938 5.63278 9.99938 5.5C9.99938 5.36722 10.0521 5.23989 10.146 5.146L14.293 1H11.5C11.3674 1 11.2402 0.947322 11.1465 0.853553C11.0527 0.759785 11 0.632608 11 0.5Z" fill="black"/>
</g>
<defs>
<clipPath id="clip0_104_3418">
<rect width="16" height="16" fill="white"/>
</clipPath>
</defs>
</svg>
