<svg width="16" height="16" viewBox="0 0 16 16" fill="none" xmlns="http://www.w3.org/2000/svg">
<g clip-path="url(#clip0_104_3428)">
<path fill-rule="evenodd" clip-rule="evenodd" d="M1.88498 0.510903C2.05996 0.336191 2.27006 0.200661 2.50138 0.113293C2.7327 0.0259244 2.97994 -0.0112866 3.22672 0.00412564C3.47351 0.0195378 3.7142 0.0872213 3.93285 0.202691C4.15149 0.31816 4.34311 0.478779 4.49498 0.673903L6.28998 2.9799C6.61898 3.4029 6.73498 3.9539 6.60498 4.4739L6.05798 6.6639C6.0297 6.77733 6.03123 6.89615 6.06242 7.00881C6.09361 7.12148 6.1534 7.22416 6.23598 7.3069L8.69298 9.7639C8.77582 9.84666 8.87868 9.90655 8.99153 9.93774C9.10439 9.96893 9.22341 9.97037 9.33698 9.9419L11.526 9.3949C11.7826 9.33074 12.0504 9.32576 12.3093 9.38033C12.5681 9.4349 12.8111 9.5476 13.02 9.7099L15.326 11.5039C16.155 12.1489 16.231 13.3739 15.489 14.1149L14.455 15.1489C13.715 15.8889 12.609 16.2139 11.578 15.8509C8.93917 14.9224 6.54325 13.4117 4.56798 11.4309C2.58727 9.45592 1.07659 7.06036 0.147983 4.4219C-0.214017 3.3919 0.110983 2.2849 0.850983 1.5449L1.88498 0.510903ZM11.146 1.6459C11.1924 1.59934 11.2476 1.5624 11.3083 1.53719C11.3691 1.51198 11.4342 1.49901 11.5 1.49901C11.5658 1.49901 11.6309 1.51198 11.6916 1.53719C11.7524 1.5624 11.8075 1.59934 11.854 1.6459L13 2.7929L14.146 1.6459C14.2399 1.55202 14.3672 1.49927 14.5 1.49927C14.6328 1.49927 14.7601 1.55202 14.854 1.6459C14.9479 1.73979 15.0006 1.86713 15.0006 1.9999C15.0006 2.13268 14.9479 2.26002 14.854 2.3539L13.707 3.4999L14.854 4.6459C14.9479 4.73979 15.0006 4.86713 15.0006 4.9999C15.0006 5.13268 14.9479 5.26002 14.854 5.3539C14.7601 5.44779 14.6328 5.50053 14.5 5.50053C14.3672 5.50053 14.2399 5.44779 14.146 5.3539L13 4.2069L11.854 5.3539C11.8075 5.40039 11.7523 5.43727 11.6916 5.46243C11.6308 5.48759 11.5657 5.50053 11.5 5.50053C11.4342 5.50053 11.3691 5.48759 11.3084 5.46243C11.2477 5.43727 11.1925 5.40039 11.146 5.3539C11.0995 5.30742 11.0626 5.25223 11.0375 5.19149C11.0123 5.13075 10.9994 5.06565 10.9994 4.9999C10.9994 4.93416 11.0123 4.86906 11.0375 4.80832C11.0626 4.74758 11.0995 4.69239 11.146 4.6459L12.293 3.4999L11.146 2.3539C11.0994 2.30746 11.0625 2.25228 11.0373 2.19154C11.0121 2.13079 10.9991 2.06567 10.9991 1.9999C10.9991 1.93414 11.0121 1.86901 11.0373 1.80827C11.0625 1.74752 11.0994 1.69235 11.146 1.6459Z" fill="black"/>
</g>
<defs>
<clipPath id="clip0_104_3428">
<rect width="16" height="16" fill="white"/>
</clipPath>
</defs>
</svg>
