<svg width="16" height="16" viewBox="0 0 16 16" xmlns="http://www.w3.org/2000/svg" fill='currentColor'><g clip-path="url(#clip0_104_3416)"><path d="M3.65401 1.32805C3.59498 1.25211 3.52046 1.1896 3.43542 1.14468C3.35037 1.09975 3.25673 1.07343 3.16073 1.06747C3.06473 1.06151 2.96856 1.07605 2.87861 1.11012C2.78866 1.14418 2.70698 1.19699 2.63901 1.26505L1.60501 2.30005C1.12201 2.78405 0.944013 3.46905 1.15501 4.07005C2.03075 6.55764 3.45531 8.81615 5.32301 10.6781C7.18494 12.5457 9.44344 13.9703 11.931 14.8461C12.532 15.0571 13.217 14.8791 13.701 14.3961L14.735 13.3621C14.8031 13.2941 14.8559 13.2124 14.8899 13.1225C14.924 13.0325 14.9385 12.9363 14.9326 12.8403C14.9266 12.7443 14.9003 12.6507 14.8554 12.5656C14.8105 12.4806 14.748 12.4061 14.672 12.3471L12.365 10.5531C12.2839 10.4901 12.1895 10.4465 12.0891 10.4253C11.9886 10.4042 11.8846 10.4061 11.785 10.4311L9.59501 10.9781C9.30269 11.0511 8.99644 11.0472 8.70606 10.9668C8.41568 10.8864 8.15108 10.7321 7.93801 10.5191L5.48201 8.06205C5.26878 7.84909 5.11434 7.58453 5.03373 7.29415C4.95311 7.00377 4.94908 6.69746 5.02201 6.40505L5.57001 4.21505C5.59492 4.11545 5.59688 4.01149 5.57575 3.91101C5.55461 3.81054 5.51094 3.71618 5.44801 3.63505L3.65401 1.32805ZM1.88401 0.511051C2.05901 0.336 2.26924 0.200181 2.50075 0.112612C2.73226 0.0250429 2.97976 -0.0122724 3.22679 0.00314389C3.47383 0.0185602 3.71477 0.0863553 3.93359 0.202028C4.15242 0.3177 4.34414 0.478602 4.49601 0.674051L6.29001 2.98005C6.61901 3.40305 6.73501 3.95405 6.60501 4.47405L6.05801 6.66405C6.02973 6.77748 6.03126 6.8963 6.06245 7.00896C6.09364 7.12163 6.15343 7.22431 6.23601 7.30705L8.69301 9.76405C8.77585 9.8468 8.87871 9.90669 8.99156 9.93789C9.10442 9.96908 9.22344 9.97052 9.33701 9.94205L11.526 9.39505C11.7826 9.33089 12.0505 9.32591 12.3093 9.38048C12.5681 9.43505 12.8111 9.54775 13.02 9.71005L15.326 11.5041C16.155 12.149 16.231 13.3741 15.489 14.1151L14.455 15.1491C13.715 15.8891 12.609 16.2141 11.578 15.8511C8.9392 14.9226 6.54329 13.4119 4.56801 11.4311C2.5873 9.45607 1.07662 7.06051 0.148013 4.42205C-0.213987 3.39205 0.111013 2.28505 0.851013 1.54505L1.88501 0.511051H1.88401ZM11 0.500051C11 0.367443 11.0527 0.240266 11.1465 0.146497C11.2402 0.0527293 11.3674 5.08352e-05 11.5 5.08352e-05H15.5C15.6326 5.08352e-05 15.7598 0.0527293 15.8536 0.146497C15.9473 0.240266 16 0.367443 16 0.500051V4.50005C16 4.63266 15.9473 4.75984 15.8536 4.8536C15.7598 4.94737 15.6326 5.00005 15.5 5.00005C15.3674 5.00005 15.2402 4.94737 15.1465 4.8536C15.0527 4.75984 15 4.63266 15 4.50005V1.70705L10.854 5.85405C10.7601 5.94794 10.6328 6.00068 10.5 6.00068C10.3672 6.00068 10.2399 5.94794 10.146 5.85405C10.0521 5.76016 9.99938 5.63283 9.99938 5.50005C9.99938 5.36728 10.0521 5.23994 10.146 5.14605L14.293 1.00005H11.5C11.3674 1.00005 11.2402 0.947372 11.1465 0.853604C11.0527 0.759836 11 0.632659 11 0.500051Z"/></g><defs><clipPath id="clip0_104_3416"><rect width="16" height="16"/></clipPath></defs></svg>