<svg width="16" height="16" viewBox="0 0 16 16" fill="none" xmlns="http://www.w3.org/2000/svg">
<g clip-path="url(#clip0_104_3414)">
<path fill-rule="evenodd" clip-rule="evenodd" d="M1.88501 0.510903C2.05999 0.336191 2.27009 0.200661 2.50141 0.113293C2.73273 0.0259244 2.97997 -0.0112866 3.22675 0.00412564C3.47354 0.0195378 3.71423 0.0872213 3.93288 0.202691C4.15152 0.31816 4.34314 0.478779 4.49501 0.673903L6.29001 2.9799C6.61901 3.4029 6.73501 3.9539 6.60501 4.4739L6.05801 6.6639C6.02973 6.77733 6.03126 6.89615 6.06245 7.00881C6.09364 7.12148 6.15343 7.22416 6.23601 7.3069L8.69301 9.7639C8.77585 9.84666 8.87871 9.90655 8.99156 9.93774C9.10442 9.96893 9.22344 9.97037 9.33701 9.9419L11.526 9.3949C11.7826 9.33074 12.0505 9.32576 12.3093 9.38033C12.5681 9.4349 12.8111 9.5476 13.02 9.7099L15.326 11.5039C16.155 12.1489 16.231 13.3739 15.489 14.1149L14.455 15.1489C13.715 15.8889 12.609 16.2139 11.578 15.8509C8.9392 14.9224 6.54329 13.4117 4.56801 11.4309C2.5873 9.45592 1.07662 7.06036 0.148013 4.4219C-0.213987 3.3919 0.111013 2.2849 0.851013 1.5449L1.88501 0.510903ZM10 3.4999C10 3.36729 10.0527 3.24012 10.1465 3.14635C10.2402 3.05258 10.3674 2.9999 10.5 2.9999H14.5C14.6326 2.9999 14.7598 3.05258 14.8536 3.14635C14.9473 3.24012 15 3.36729 15 3.4999C15 3.63251 14.9473 3.75969 14.8536 3.85346C14.7598 3.94722 14.6326 3.9999 14.5 3.9999H10.5C10.3674 3.9999 10.2402 3.94722 10.1465 3.85346C10.0527 3.75969 10 3.63251 10 3.4999Z" fill="black"/>
</g>
<defs>
<clipPath id="clip0_104_3414">
<rect width="16" height="16" fill="white"/>
</clipPath>
</defs>
</svg>
