<svg width="16" height="16" viewBox="0 0 16 16" xmlns="http://www.w3.org/2000/svg" fill='currentColor'><g clip-path="url(#clip0_104_3405)"><path fill-rule="evenodd" clip-rule="evenodd" d="M1.885 0.510903C2.05997 0.336191 2.27008 0.200661 2.50139 0.113293C2.73271 0.0259244 2.97995 -0.0112866 3.22674 0.00412564C3.47352 0.0195378 3.71421 0.0872213 3.93286 0.202691C4.15151 0.31816 4.34312 0.478779 4.495 0.673903L6.29 2.9799C6.619 3.4029 6.735 3.9539 6.605 4.4739L6.058 6.6639C6.02972 6.77733 6.03124 6.89615 6.06243 7.00881C6.09362 7.12148 6.15341 7.22416 6.236 7.3069L8.693 9.7639C8.77584 9.84666 8.87869 9.90655 8.99155 9.93774C9.10441 9.96893 9.22342 9.97037 9.337 9.9419L11.526 9.3949C11.7826 9.33074 12.0505 9.32576 12.3093 9.38033C12.5681 9.4349 12.8111 9.5476 13.02 9.7099L15.326 11.5039C16.155 12.1489 16.231 13.3739 15.489 14.1149L14.455 15.1489C13.715 15.8889 12.609 16.2139 11.578 15.8509C8.93918 14.9224 6.54327 13.4117 4.568 11.4309C2.58729 9.45592 1.07661 7.06036 0.147998 4.4219C-0.214002 3.3919 0.110998 2.2849 0.850998 1.5449L1.885 0.510903ZM12.646 0.645903C12.6924 0.599339 12.7476 0.562397 12.8084 0.53719C12.8691 0.511984 12.9342 0.499009 13 0.499009C13.0658 0.499009 13.1309 0.511984 13.1916 0.53719C13.2524 0.562397 13.3076 0.599339 13.354 0.645903L15.854 3.1459C15.9006 3.19235 15.9375 3.24752 15.9627 3.30827C15.9879 3.36901 16.0009 3.43414 16.0009 3.4999C16.0009 3.56567 15.9879 3.63079 15.9627 3.69154C15.9375 3.75228 15.9006 3.80746 15.854 3.8539L13.354 6.3539C13.2601 6.44779 13.1328 6.50053 13 6.50053C12.8672 6.50053 12.7399 6.44779 12.646 6.3539C12.5521 6.26002 12.4994 6.13268 12.4994 5.9999C12.4994 5.86713 12.5521 5.73979 12.646 5.6459L14.293 3.9999H9.5C9.36739 3.9999 9.24021 3.94722 9.14644 3.85346C9.05268 3.75969 9 3.63251 9 3.4999C9 3.36729 9.05268 3.24012 9.14644 3.14635C9.24021 3.05258 9.36739 2.9999 9.5 2.9999H14.293L12.646 1.3539C12.5994 1.30746 12.5625 1.25228 12.5373 1.19154C12.5121 1.13079 12.4991 1.06567 12.4991 0.999903C12.4991 0.934135 12.5121 0.869014 12.5373 0.808269C12.5625 0.747524 12.5994 0.692348 12.646 0.645903Z"/></g><defs><clipPath id="clip0_104_3405"><rect width="16" height="16"/></clipPath></defs></svg>