<svg width="16" height="16" viewBox="0 0 16 16" fill="none" xmlns="http://www.w3.org/2000/svg">
<g clip-path="url(#clip0_104_3411)">
<path fill-rule="evenodd" clip-rule="evenodd" d="M10 3.5C10 3.36739 10.0527 3.24021 10.1464 3.14645C10.2402 3.05268 10.3674 3 10.5 3H14.5C14.6326 3 14.7598 3.05268 14.8536 3.14645C14.9473 3.24021 15 3.36739 15 3.5C15 3.63261 14.9473 3.75979 14.8536 3.85355C14.7598 3.94732 14.6326 4 14.5 4H10.5C10.3674 4 10.2402 3.94732 10.1464 3.85355C10.0527 3.75979 10 3.63261 10 3.5Z" fill="black"/>
<path d="M3.654 1.32805C3.59496 1.25211 3.52045 1.1896 3.4354 1.14468C3.35035 1.09975 3.25672 1.07343 3.16072 1.06747C3.06472 1.06151 2.96855 1.07605 2.87859 1.11012C2.78864 1.14418 2.70697 1.19699 2.639 1.26505L1.605 2.30005C1.122 2.78405 0.943998 3.46905 1.155 4.07005C2.03074 6.55764 3.45529 8.81615 5.323 10.6781C7.18492 12.5457 9.44343 13.9703 11.931 14.8461C12.532 15.0571 13.217 14.8791 13.701 14.3961L14.735 13.3621C14.8031 13.2941 14.8559 13.2124 14.8899 13.1225C14.924 13.0325 14.9385 12.9363 14.9326 12.8403C14.9266 12.7443 14.9003 12.6507 14.8554 12.5656C14.8104 12.4806 14.7479 12.4061 14.672 12.3471L12.365 10.5531C12.2839 10.4901 12.1895 10.4465 12.089 10.4253C11.9886 10.4042 11.8846 10.4061 11.785 10.4311L9.595 10.9781C9.30268 11.0511 8.99642 11.0472 8.70604 10.9668C8.41566 10.8864 8.15106 10.7321 7.938 10.5191L5.482 8.06205C5.26877 7.84909 5.11432 7.58453 5.03371 7.29415C4.9531 7.00377 4.94906 6.69746 5.022 6.40505L5.57 4.21505C5.59491 4.11545 5.59687 4.01149 5.57573 3.91101C5.5546 3.81054 5.51092 3.71618 5.448 3.63505L3.654 1.32805ZM1.884 0.511051C2.05899 0.336 2.26923 0.200181 2.50074 0.112612C2.73225 0.0250429 2.97974 -0.0122724 3.22678 0.00314389C3.47382 0.0185602 3.71475 0.0863553 3.93358 0.202028C4.15241 0.3177 4.34412 0.478602 4.496 0.674051L6.29 2.98005C6.619 3.40305 6.735 3.95405 6.605 4.47405L6.058 6.66405C6.02972 6.77748 6.03124 6.8963 6.06243 7.00896C6.09362 7.12163 6.15341 7.22431 6.236 7.30705L8.693 9.76405C8.77584 9.8468 8.87869 9.90669 8.99155 9.93789C9.10441 9.96908 9.22342 9.97052 9.337 9.94205L11.526 9.39505C11.7826 9.33089 12.0505 9.32591 12.3093 9.38048C12.5681 9.43505 12.8111 9.54775 13.02 9.71005L15.326 11.5041C16.155 12.149 16.231 13.3741 15.489 14.1151L14.455 15.1491C13.715 15.8891 12.609 16.2141 11.578 15.8511C8.93918 14.9226 6.54327 13.4119 4.568 11.4311C2.58729 9.45607 1.07661 7.06051 0.147998 4.42205C-0.214002 3.39205 0.110998 2.28505 0.850998 1.54505L1.885 0.511051H1.884Z" fill="black"/>
</g>
<defs>
<clipPath id="clip0_104_3411">
<rect width="16" height="16" fill="white"/>
</clipPath>
</defs>
</svg>
