<svg width="16" height="16" viewBox="0 0 16 16" xmlns="http://www.w3.org/2000/svg" fill='currentColor'><g clip-path="url(#clip0_104_3425)"><path d="M3.65401 1.32805C3.59498 1.25211 3.52046 1.1896 3.43542 1.14468C3.35037 1.09975 3.25673 1.07343 3.16073 1.06747C3.06473 1.06151 2.96856 1.07605 2.87861 1.11012C2.78866 1.14418 2.70698 1.19699 2.63901 1.26505L1.60501 2.30005C1.12201 2.78405 0.944013 3.46905 1.15501 4.07005C2.03075 6.55764 3.45531 8.81615 5.32301 10.6781C7.18494 12.5457 9.44344 13.9703 11.931 14.8461C12.532 15.0571 13.217 14.8791 13.701 14.3961L14.735 13.3621C14.8031 13.2941 14.8559 13.2124 14.8899 13.1225C14.924 13.0325 14.9385 12.9363 14.9326 12.8403C14.9266 12.7443 14.9003 12.6507 14.8554 12.5656C14.8105 12.4806 14.748 12.4061 14.672 12.3471L12.365 10.5531C12.2839 10.4901 12.1895 10.4465 12.0891 10.4253C11.9886 10.4042 11.8846 10.4061 11.785 10.4311L9.59501 10.9781C9.30269 11.0511 8.99644 11.0472 8.70606 10.9668C8.41568 10.8864 8.15108 10.7321 7.93801 10.5191L5.48201 8.06205C5.26878 7.84909 5.11434 7.58453 5.03373 7.29415C4.95311 7.00377 4.94908 6.69746 5.02201 6.40505L5.57001 4.21505C5.59492 4.11545 5.59688 4.01149 5.57575 3.91101C5.55461 3.81054 5.51094 3.71618 5.44801 3.63505L3.65401 1.32805ZM1.88401 0.511051C2.05901 0.336 2.26924 0.200181 2.50075 0.112612C2.73226 0.0250429 2.97976 -0.0122724 3.22679 0.00314389C3.47383 0.0185602 3.71477 0.0863553 3.93359 0.202028C4.15242 0.3177 4.34414 0.478602 4.49601 0.674051L6.29001 2.98005C6.61901 3.40305 6.73501 3.95405 6.60501 4.47405L6.05801 6.66405C6.02973 6.77748 6.03126 6.8963 6.06245 7.00896C6.09364 7.12163 6.15343 7.22431 6.23601 7.30705L8.69301 9.76405C8.77585 9.8468 8.87871 9.90669 8.99156 9.93789C9.10442 9.96908 9.22344 9.97052 9.33701 9.94205L11.526 9.39505C11.7826 9.33089 12.0505 9.32591 12.3093 9.38048C12.5681 9.43505 12.8111 9.54775 13.02 9.71005L15.326 11.5041C16.155 12.149 16.231 13.3741 15.489 14.1151L14.455 15.1491C13.715 15.8891 12.609 16.2141 11.578 15.8511C8.9392 14.9226 6.54329 13.4119 4.56801 11.4311C2.5873 9.45607 1.07662 7.06051 0.148013 4.42205C-0.213987 3.39205 0.111013 2.28505 0.851013 1.54505L1.88501 0.511051H1.88401Z"/><path fill-rule="evenodd" clip-rule="evenodd" d="M11.146 1.64592C11.1925 1.59935 11.2476 1.56241 11.3084 1.5372C11.3691 1.512 11.4342 1.49902 11.5 1.49902C11.5658 1.49902 11.6309 1.512 11.6916 1.5372C11.7524 1.56241 11.8076 1.59935 11.854 1.64592L13 2.79292L14.146 1.64592C14.2399 1.55203 14.3672 1.49929 14.5 1.49929C14.6328 1.49929 14.7601 1.55203 14.854 1.64592C14.9479 1.7398 15.0006 1.86714 15.0006 1.99992C15.0006 2.13269 14.9479 2.26003 14.854 2.35392L13.707 3.49992L14.854 4.64592C14.9479 4.7398 15.0006 4.86714 15.0006 4.99992C15.0006 5.13269 14.9479 5.26003 14.854 5.35392C14.7601 5.4478 14.6328 5.50055 14.5 5.50055C14.3672 5.50055 14.2399 5.4478 14.146 5.35392L13 4.20692L11.854 5.35392C11.8075 5.40041 11.7523 5.43728 11.6916 5.46244C11.6309 5.4876 11.5658 5.50055 11.5 5.50055C11.4343 5.50055 11.3692 5.4876 11.3084 5.46244C11.2477 5.43728 11.1925 5.40041 11.146 5.35392C11.0995 5.30743 11.0626 5.25224 11.0375 5.1915C11.0123 5.13076 10.9994 5.06566 10.9994 4.99992C10.9994 4.93417 11.0123 4.86907 11.0375 4.80833C11.0626 4.74759 11.0995 4.69241 11.146 4.64592L12.293 3.49992L11.146 2.35392C11.0994 2.30747 11.0625 2.2523 11.0373 2.19155C11.0121 2.13081 10.9991 2.06568 10.9991 1.99992C10.9991 1.93415 11.0121 1.86903 11.0373 1.80828C11.0625 1.74754 11.0994 1.69236 11.146 1.64592Z"/></g><defs><clipPath id="clip0_104_3425"><rect width="16" height="16"/></clipPath></defs></svg>