<svg width="16" height="16" viewBox="0 0 16 16" fill="none" xmlns="http://www.w3.org/2000/svg">
<g clip-path="url(#clip0_104_3430)">
<path d="M6.00002 8.9999C6.00002 8.86729 6.0527 8.74011 6.14647 8.64635C6.24024 8.55258 6.36741 8.4999 6.50002 8.4999H9.50002C9.63263 8.4999 9.75981 8.55258 9.85357 8.64635C9.94734 8.74011 10 8.86729 10 8.9999C10 9.13251 9.94734 9.25968 9.85357 9.35345C9.75981 9.44722 9.63263 9.4999 9.50002 9.4999H6.50002C6.36741 9.4999 6.24024 9.44722 6.14647 9.35345C6.0527 9.25968 6.00002 9.13251 6.00002 8.9999ZM3.85402 4.1459C3.80753 4.09941 3.75234 4.06253 3.6916 4.03738C3.63087 4.01222 3.56577 3.99927 3.50002 3.99927C3.43428 3.99927 3.36918 4.01222 3.30844 4.03738C3.2477 4.06253 3.19251 4.09941 3.14602 4.1459C3.09953 4.19239 3.06266 4.24758 3.0375 4.30832C3.01234 4.36905 2.99939 4.43416 2.99939 4.4999C2.99939 4.56564 3.01234 4.63074 3.0375 4.69148C3.06266 4.75222 3.09953 4.80741 3.14602 4.8539L4.79302 6.4999L3.14602 8.1459C3.09953 8.19239 3.06266 8.24758 3.0375 8.30832C3.01234 8.36905 2.99939 8.43415 2.99939 8.4999C2.99939 8.56564 3.01234 8.63074 3.0375 8.69148C3.06266 8.75222 3.09953 8.80741 3.14602 8.8539C3.23991 8.94779 3.36725 9.00053 3.50002 9.00053C3.56577 9.00053 3.63087 8.98758 3.6916 8.96242C3.75234 8.93726 3.80753 8.90039 3.85402 8.8539L5.85402 6.8539C5.90058 6.80745 5.93753 6.75228 5.96273 6.69153C5.98794 6.63079 6.00091 6.56567 6.00091 6.4999C6.00091 6.43413 5.98794 6.36901 5.96273 6.30827C5.93753 6.24752 5.90058 6.19234 5.85402 6.1459L3.85402 4.1459Z" fill="black"/>
<path d="M2 1C1.46957 1 0.960859 1.21071 0.585786 1.58579C0.210714 1.96086 0 2.46957 0 3L0 13C0 13.5304 0.210714 14.0391 0.585786 14.4142C0.960859 14.7893 1.46957 15 2 15H14C14.5304 15 15.0391 14.7893 15.4142 14.4142C15.7893 14.0391 16 13.5304 16 13V3C16 2.46957 15.7893 1.96086 15.4142 1.58579C15.0391 1.21071 14.5304 1 14 1H2ZM14 2C14.2652 2 14.5196 2.10536 14.7071 2.29289C14.8946 2.48043 15 2.73478 15 3V13C15 13.2652 14.8946 13.5196 14.7071 13.7071C14.5196 13.8946 14.2652 14 14 14H2C1.73478 14 1.48043 13.8946 1.29289 13.7071C1.10536 13.5196 1 13.2652 1 13V3C1 2.73478 1.10536 2.48043 1.29289 2.29289C1.48043 2.10536 1.73478 2 2 2H14Z" fill="black"/>
</g>
<defs>
<clipPath id="clip0_104_3430">
<rect width="16" height="16" fill="white"/>
</clipPath>
</defs>
</svg>
