<svg width="16" height="16" viewBox="0 0 16 16" xmlns="http://www.w3.org/2000/svg" fill='currentColor'><path d="M0 3C0 2.46957 0.210714 1.96086 0.585786 1.58579C0.960859 1.21071 1.46957 1 2 1H14C14.5304 1 15.0391 1.21071 15.4142 1.58579C15.7893 1.96086 16 2.46957 16 3V13C16 13.5304 15.7893 14.0391 15.4142 14.4142C15.0391 14.7893 14.5304 15 14 15H2C1.46957 15 0.960859 14.7893 0.585786 14.4142C0.210714 14.0391 0 13.5304 0 13V3ZM9.5 8.5H6.5C6.36739 8.5 6.24021 8.55268 6.14645 8.64645C6.05268 8.74021 6 8.86739 6 9C6 9.13261 6.05268 9.25979 6.14645 9.35355C6.24021 9.44732 6.36739 9.5 6.5 9.5H9.5C9.63261 9.5 9.75979 9.44732 9.85355 9.35355C9.94732 9.25979 10 9.13261 10 9C10 8.86739 9.94732 8.74021 9.85355 8.64645C9.75979 8.55268 9.63261 8.5 9.5 8.5ZM3.146 8.146C3.09951 8.19249 3.06264 8.24768 3.03748 8.30842C3.01232 8.36916 2.99937 8.43426 2.99937 8.5C2.99937 8.56574 3.01232 8.63084 3.03748 8.69158C3.06264 8.75232 3.09951 8.80751 3.146 8.854C3.23989 8.94789 3.36722 9.00063 3.5 9.00063C3.56574 9.00063 3.63084 8.98768 3.69158 8.96252C3.75232 8.93736 3.80751 8.90049 3.854 8.854L5.854 6.854C5.90056 6.80755 5.93751 6.75238 5.96271 6.69163C5.98792 6.63089 6.00089 6.56577 6.00089 6.5C6.00089 6.43423 5.98792 6.36911 5.96271 6.30837C5.93751 6.24762 5.90056 6.19245 5.854 6.146L3.854 4.146C3.80751 4.09951 3.75232 4.06264 3.69158 4.03748C3.63084 4.01232 3.56574 3.99937 3.5 3.99937C3.43426 3.99937 3.36916 4.01232 3.30842 4.03748C3.24768 4.06264 3.19249 4.09951 3.146 4.146C3.09951 4.19249 3.06264 4.24768 3.03748 4.30842C3.01232 4.36916 2.99937 4.43426 2.99937 4.5C2.99937 4.56574 3.01232 4.63084 3.03748 4.69158C3.06264 4.75232 3.09951 4.80751 3.146 4.854L4.793 6.5L3.146 8.146Z"/></svg>