<svg width="16" height="16" viewBox="0 0 16 16" fill="none" xmlns="http://www.w3.org/2000/svg">
<g clip-path="url(#clip0_104_3439)">
<path d="M1.50002 2.5C1.50002 2.10218 1.65806 1.72064 1.93936 1.43934C2.22066 1.15804 2.6022 1 3.00002 1H13C13.3978 1 13.7794 1.15804 14.0607 1.43934C14.342 1.72064 14.5 2.10218 14.5 2.5V6.063C14.9298 6.1735 15.3106 6.42378 15.5825 6.77445C15.8544 7.12512 16.002 7.55626 16.002 8C16.002 8.44374 15.8544 8.87488 15.5825 9.22555C15.3106 9.57622 14.9298 9.8265 14.5 9.937V13.5C14.5 13.8978 14.342 14.2794 14.0607 14.5607C13.7794 14.842 13.3978 15 13 15H3.00002C2.6022 15 2.22066 14.842 1.93936 14.5607C1.65806 14.2794 1.50002 13.8978 1.50002 13.5V9.937C1.07026 9.8265 0.689445 9.57622 0.417532 9.22555C0.145619 8.87488 -0.00195313 8.44374 -0.00195312 8C-0.00195313 7.55626 0.145619 7.12512 0.417532 6.77445C0.689445 6.42378 1.07026 6.1735 1.50002 6.063V2.5ZM2.50002 6.063C2.92978 6.1735 3.31059 6.42378 3.58251 6.77445C3.85442 7.12512 4.00199 7.55626 4.00199 8C4.00199 8.44374 3.85442 8.87488 3.58251 9.22555C3.31059 9.57622 2.92978 9.8265 2.50002 9.937V13.5C2.50002 13.6326 2.5527 13.7598 2.64647 13.8536C2.74023 13.9473 2.86741 14 3.00002 14H13C13.1326 14 13.2598 13.9473 13.3536 13.8536C13.4473 13.7598 13.5 13.6326 13.5 13.5V9.937C13.0703 9.8265 12.6894 9.57622 12.4175 9.22555C12.1456 8.87488 11.998 8.44374 11.998 8C11.998 7.55626 12.1456 7.12512 12.4175 6.77445C12.6894 6.42378 13.0703 6.1735 13.5 6.063V2.5C13.5 2.36739 13.4473 2.24021 13.3536 2.14645C13.2598 2.05268 13.1326 2 13 2H3.00002C2.86741 2 2.74023 2.05268 2.64647 2.14645C2.5527 2.24021 2.50002 2.36739 2.50002 2.5V6.063ZM2.00002 7C1.7348 7 1.48045 7.10536 1.29291 7.29289C1.10538 7.48043 1.00002 7.73478 1.00002 8C1.00002 8.26522 1.10538 8.51957 1.29291 8.70711C1.48045 8.89464 1.7348 9 2.00002 9C2.26524 9 2.51959 8.89464 2.70713 8.70711C2.89466 8.51957 3.00002 8.26522 3.00002 8C3.00002 7.73478 2.89466 7.48043 2.70713 7.29289C2.51959 7.10536 2.26524 7 2.00002 7ZM14 7C13.7348 7 13.4804 7.10536 13.2929 7.29289C13.1054 7.48043 13 7.73478 13 8C13 8.26522 13.1054 8.51957 13.2929 8.70711C13.4804 8.89464 13.7348 9 14 9C14.2652 9 14.5196 8.89464 14.7071 8.70711C14.8947 8.51957 15 8.26522 15 8C15 7.73478 14.8947 7.48043 14.7071 7.29289C14.5196 7.10536 14.2652 7 14 7Z" fill="black"/>
<path d="M11.434 4H4.566L4.5 5.994H4.886C5.096 4.742 5.498 4.548 7.059 4.499L7.402 4.488V10.831C7.402 11.368 7.286 11.496 6.353 11.579V12H9.647V11.579C8.709 11.496 8.593 11.369 8.593 10.831V4.488L8.941 4.498C10.501 4.548 10.904 4.742 11.114 5.994H11.5L11.434 4Z" fill="black"/>
</g>
<defs>
<clipPath id="clip0_104_3439">
<rect width="16" height="16" fill="white"/>
</clipPath>
</defs>
</svg>
