<svg width="16" height="16" viewBox="0 0 16 16" fill="none" xmlns="http://www.w3.org/2000/svg">
<path d="M2 3.5C2 3.36739 2.05268 3.24021 2.14645 3.14645C2.24021 3.05268 2.36739 3 2.5 3H13.5C13.6326 3 13.7598 3.05268 13.8536 3.14645C13.9473 3.24021 14 3.36739 14 3.5C14 3.63261 13.9473 3.75979 13.8536 3.85355C13.7598 3.94732 13.6326 4 13.5 4H2.5C2.36739 4 2.24021 3.94732 2.14645 3.85355C2.05268 3.75979 2 3.63261 2 3.5ZM2.646 5.646C2.69245 5.59944 2.74762 5.56249 2.80837 5.53729C2.86911 5.51208 2.93423 5.49911 3 5.49911C3.06577 5.49911 3.13089 5.51208 3.19163 5.53729C3.25238 5.56249 3.30755 5.59944 3.354 5.646L5.354 7.646C5.40056 7.69245 5.43751 7.74762 5.46271 7.80837C5.48792 7.86911 5.50089 7.93423 5.50089 8C5.50089 8.06577 5.48792 8.13089 5.46271 8.19163C5.43751 8.25238 5.40056 8.30755 5.354 8.354L3.354 10.354C3.30751 10.4005 3.25232 10.4374 3.19158 10.4625C3.13084 10.4877 3.06574 10.5006 3 10.5006C2.93426 10.5006 2.86916 10.4877 2.80842 10.4625C2.74768 10.4374 2.69249 10.4005 2.646 10.354C2.59951 10.3075 2.56264 10.2523 2.53748 10.1916C2.51232 10.1308 2.49937 10.0657 2.49937 10C2.49937 9.93426 2.51232 9.86916 2.53748 9.80842C2.56264 9.74768 2.59951 9.69249 2.646 9.646L4.293 8L2.646 6.354C2.59944 6.30755 2.56249 6.25238 2.53729 6.19163C2.51208 6.13089 2.49911 6.06577 2.49911 6C2.49911 5.93423 2.51208 5.86911 2.53729 5.80837C2.56249 5.74762 2.59944 5.69245 2.646 5.646ZM7 6.5C7 6.36739 7.05268 6.24021 7.14645 6.14645C7.24021 6.05268 7.36739 6 7.5 6H13.5C13.6326 6 13.7598 6.05268 13.8536 6.14645C13.9473 6.24021 14 6.36739 14 6.5C14 6.63261 13.9473 6.75979 13.8536 6.85355C13.7598 6.94732 13.6326 7 13.5 7H7.5C7.36739 7 7.24021 6.94732 7.14645 6.85355C7.05268 6.75979 7 6.63261 7 6.5ZM7 9.5C7 9.36739 7.05268 9.24021 7.14645 9.14645C7.24021 9.05268 7.36739 9 7.5 9H13.5C13.6326 9 13.7598 9.05268 13.8536 9.14645C13.9473 9.24021 14 9.36739 14 9.5C14 9.63261 13.9473 9.75979 13.8536 9.85355C13.7598 9.94732 13.6326 10 13.5 10H7.5C7.36739 10 7.24021 9.94732 7.14645 9.85355C7.05268 9.75979 7 9.63261 7 9.5ZM2 12.5C2 12.3674 2.05268 12.2402 2.14645 12.1464C2.24021 12.0527 2.36739 12 2.5 12H13.5C13.6326 12 13.7598 12.0527 13.8536 12.1464C13.9473 12.2402 14 12.3674 14 12.5C14 12.6326 13.9473 12.7598 13.8536 12.8536C13.7598 12.9473 13.6326 13 13.5 13H2.5C2.36739 13 2.24021 12.9473 2.14645 12.8536C2.05268 12.7598 2 12.6326 2 12.5Z" fill="black"/>
</svg>
