<svg width="16" height="16" viewBox="0 0 16 16" fill="none" xmlns="http://www.w3.org/2000/svg">
<path d="M2 3.5C2 3.36739 2.05268 3.24021 2.14645 3.14645C2.24021 3.05268 2.36739 3 2.5 3H13.5C13.6326 3 13.7598 3.05268 13.8536 3.14645C13.9473 3.24021 14 3.36739 14 3.5C14 3.63261 13.9473 3.75979 13.8536 3.85355C13.7598 3.94732 13.6326 4 13.5 4H2.5C2.36739 4 2.24021 3.94732 2.14645 3.85355C2.05268 3.75979 2 3.63261 2 3.5ZM12.646 5.646C12.7399 5.55211 12.8672 5.49937 13 5.49937C13.1328 5.49937 13.2601 5.55211 13.354 5.646C13.4479 5.73989 13.5006 5.86722 13.5006 6C13.5006 6.13278 13.4479 6.26011 13.354 6.354L11.707 8L13.354 9.646C13.4479 9.73989 13.5006 9.86722 13.5006 10C13.5006 10.1328 13.4479 10.2601 13.354 10.354C13.2601 10.4479 13.1328 10.5006 13 10.5006C12.8672 10.5006 12.7399 10.4479 12.646 10.354L10.646 8.354C10.5994 8.30755 10.5625 8.25238 10.5373 8.19163C10.5121 8.13089 10.4991 8.06577 10.4991 8C10.4991 7.93423 10.5121 7.86911 10.5373 7.80837C10.5625 7.74762 10.5994 7.69245 10.646 7.646L12.646 5.646ZM2 6.5C2 6.36739 2.05268 6.24021 2.14645 6.14645C2.24021 6.05268 2.36739 6 2.5 6H8.5C8.63261 6 8.75979 6.05268 8.85355 6.14645C8.94732 6.24021 9 6.36739 9 6.5C9 6.63261 8.94732 6.75979 8.85355 6.85355C8.75979 6.94732 8.63261 7 8.5 7H2.5C2.36739 7 2.24021 6.94732 2.14645 6.85355C2.05268 6.75979 2 6.63261 2 6.5ZM2 9.5C2 9.36739 2.05268 9.24021 2.14645 9.14645C2.24021 9.05268 2.36739 9 2.5 9H8.5C8.63261 9 8.75979 9.05268 8.85355 9.14645C8.94732 9.24021 9 9.36739 9 9.5C9 9.63261 8.94732 9.75979 8.85355 9.85355C8.75979 9.94732 8.63261 10 8.5 10H2.5C2.36739 10 2.24021 9.94732 2.14645 9.85355C2.05268 9.75979 2 9.63261 2 9.5ZM2 12.5C2 12.3674 2.05268 12.2402 2.14645 12.1464C2.24021 12.0527 2.36739 12 2.5 12H13.5C13.6326 12 13.7598 12.0527 13.8536 12.1464C13.9473 12.2402 14 12.3674 14 12.5C14 12.6326 13.9473 12.7598 13.8536 12.8536C13.7598 12.9473 13.6326 13 13.5 13H2.5C2.36739 13 2.24021 12.9473 2.14645 12.8536C2.05268 12.7598 2 12.6326 2 12.5Z" fill="black"/>
</svg>
