<svg width="16" height="16" viewBox="0 0 16 16" fill="none" xmlns="http://www.w3.org/2000/svg">
<g clip-path="url(#clip0_104_3454)">
<path d="M8 14C8.19698 14 8.39204 13.9612 8.57403 13.8858C8.75601 13.8104 8.92137 13.6999 9.06066 13.5607C9.19995 13.4214 9.31044 13.256 9.38582 13.074C9.4612 12.892 9.5 12.697 9.5 12.5C9.5 12.303 9.4612 12.108 9.38582 11.926C9.31044 11.744 9.19995 11.5786 9.06066 11.4393C8.92137 11.3001 8.75601 11.1896 8.57403 11.1142C8.39204 11.0388 8.19698 11 8 11C7.60218 11 7.22064 11.158 6.93934 11.4393C6.65804 11.7206 6.5 12.1022 6.5 12.5C6.5 12.8978 6.65804 13.2794 6.93934 13.5607C7.22064 13.842 7.60218 14 8 14Z" fill="black"/>
<path d="M8 0C7.33696 0 6.70108 0.263392 6.23223 0.732233C5.76339 1.20107 5.5 1.83696 5.5 2.5V10.05C5.01767 10.5423 4.69141 11.166 4.56213 11.843C4.43285 12.5199 4.50631 13.22 4.7733 13.8554C5.04029 14.4907 5.48892 15.0332 6.06294 15.4146C6.63695 15.796 7.31081 15.9995 8 15.9995C8.68919 15.9995 9.36305 15.796 9.93707 15.4146C10.5111 15.0332 10.9597 14.4907 11.2267 13.8554C11.4937 13.22 11.5672 12.5199 11.4379 11.843C11.3086 11.166 10.9823 10.5423 10.5 10.05V2.5C10.5 1.83696 10.2366 1.20107 9.76777 0.732233C9.29893 0.263392 8.66304 0 8 0V0ZM6.5 2.5C6.5 2.10218 6.65804 1.72064 6.93934 1.43934C7.22065 1.15804 7.60218 1 8 1C8.39783 1 8.77936 1.15804 9.06066 1.43934C9.34197 1.72064 9.5 2.10218 9.5 2.5V10.487L9.667 10.637C10.0444 10.9745 10.3105 11.4187 10.4299 11.9107C10.5494 12.4028 10.5166 12.9195 10.336 13.3925C10.1553 13.8655 9.83531 14.2725 9.41827 14.5597C9.00123 14.8468 8.50683 15.0005 8.0005 15.0005C7.49417 15.0005 6.99977 14.8468 6.58274 14.5597C6.1657 14.2725 5.84568 13.8655 5.66503 13.3925C5.48438 12.9195 5.45162 12.4028 5.57107 11.9107C5.69053 11.4187 5.95657 10.9745 6.334 10.637L6.5 10.487V2.5Z" fill="black"/>
</g>
<defs>
<clipPath id="clip0_104_3454">
<rect width="16" height="16" fill="white"/>
</clipPath>
</defs>
</svg>
