<svg width="24" height="24" viewBox="0 0 24 24" xmlns="http://www.w3.org/2000/svg" fill='currentColor'><path d="M10.96 12.9802C10.8 12.7402 10.6 12.5202 10.34 12.3302C10.09 12.1402 9.78001 11.9802 9.41001 11.8502C9.71001 11.7102 9.98001 11.5502 10.21 11.3502C10.44 11.1502 10.63 10.9402 10.78 10.7102C10.93 10.4802 11.05 10.2502 11.12 10.0002C11.2 9.76016 11.23 9.51016 11.23 9.27016C11.23 8.72016 11.14 8.23016 10.95 7.81016C10.77 7.39016 10.51 7.04016 10.17 6.75016C9.84001 6.47016 9.44001 6.25016 8.97001 6.11016C8.52001 5.98016 8.00001 5.91016 7.44001 5.91016C6.89001 5.91016 6.38001 5.99016 5.92001 6.15016C5.45001 6.32016 5.05001 6.55016 4.72001 6.84016C4.39001 7.13016 4.12001 7.47016 3.94001 7.87016C3.74001 8.26016 3.65001 8.70016 3.65001 9.16016H5.63001C5.63001 8.90016 5.68001 8.67016 5.77001 8.47016C5.86001 8.27016 5.99001 8.09016 6.15001 7.95016C6.32001 7.81016 6.51001 7.70016 6.73001 7.62016C6.95001 7.54016 7.19001 7.50016 7.46001 7.50016C8.07001 7.50016 8.52001 7.66016 8.82001 7.97016C9.12001 8.28016 9.26001 8.72016 9.26001 9.29016C9.26001 9.56016 9.22001 9.81016 9.14001 10.0302C9.06001 10.2502 8.93001 10.4402 8.76001 10.6002C8.59001 10.7602 8.38001 10.8802 8.13001 10.9702C7.88001 11.0602 7.58001 11.1002 7.24001 11.1002H6.07001V12.6702H7.25001C7.59001 12.6702 7.89001 12.7102 8.16001 12.7802C8.43001 12.8602 8.66001 12.9702 8.85001 13.1302C9.04001 13.2902 9.19001 13.4902 9.29001 13.7402C9.39001 13.9802 9.45001 14.2802 9.45001 14.6102C9.45001 15.2302 9.27001 15.7002 8.92001 16.0302C8.57001 16.3602 8.08001 16.5202 7.47001 16.5202C7.18001 16.5202 6.91001 16.4802 6.67001 16.3902C6.43001 16.3102 6.23001 16.1902 6.06001 16.0302C5.89001 15.8702 5.76001 15.6902 5.67001 15.4702C5.58001 15.2502 5.53001 15.0102 5.53001 14.7502H3.54001C3.54001 15.3002 3.65001 15.7802 3.86001 16.2002C4.07001 16.6202 4.36001 16.9702 4.72001 17.2502C5.08001 17.5302 5.49001 17.7402 5.96001 17.8802C6.43001 18.0202 6.92001 18.0902 7.44001 18.0902C8.01001 18.0902 8.53001 18.0102 9.02001 17.8602C9.51001 17.7102 9.93001 17.4802 10.28 17.1802C10.64 16.8802 10.92 16.5202 11.12 16.0802C11.32 15.6502 11.42 15.1502 11.42 14.6002C11.42 14.3102 11.38 14.0202 11.31 13.7402C11.23 13.4902 11.12 13.2302 10.96 12.9802ZM20.22 14.3802C20.08 14.1002 19.87 13.8502 19.59 13.6402C19.31 13.4302 18.98 13.2502 18.58 13.1102C18.18 12.9702 17.73 12.8402 17.23 12.7302C16.88 12.6602 16.59 12.5802 16.36 12.5002C16.13 12.4202 15.95 12.3402 15.81 12.2502C15.67 12.1602 15.58 12.0602 15.53 11.9502C15.48 11.8402 15.45 11.7102 15.45 11.5602C15.45 11.4102 15.48 11.2802 15.54 11.1502C15.6 11.0202 15.69 10.9002 15.81 10.8102C15.93 10.7102 16.08 10.6302 16.26 10.5702C16.44 10.5102 16.66 10.4802 16.9 10.4802C17.15 10.4802 17.37 10.5202 17.56 10.5902C17.75 10.6602 17.91 10.7602 18.04 10.8802C18.17 11.0002 18.26 11.1402 18.33 11.3002C18.39 11.4602 18.43 11.6202 18.43 11.7902H20.38C20.38 11.4002 20.3 11.0402 20.14 10.7002C19.98 10.3602 19.75 10.0702 19.45 9.82016C19.15 9.57016 18.79 9.38016 18.36 9.23016C17.93 9.08016 17.44 9.01016 16.9 9.01016C16.39 9.01016 15.92 9.08016 15.51 9.22016C15.1 9.36016 14.74 9.55016 14.45 9.79016C14.16 10.0302 13.94 10.3102 13.78 10.6302C13.62 10.9502 13.55 11.2802 13.55 11.6402C13.55 12.0002 13.63 12.3202 13.78 12.6002C13.93 12.8802 14.15 13.1202 14.42 13.3302C14.69 13.5402 15.02 13.7102 15.4 13.8602C15.78 14.0002 16.21 14.1202 16.67 14.2202C17.06 14.3002 17.38 14.3902 17.62 14.4802C17.86 14.5702 18.05 14.6702 18.19 14.7702C18.32 14.8702 18.41 14.9902 18.46 15.1102C18.51 15.2302 18.53 15.3602 18.53 15.5002C18.53 15.8202 18.4 16.0702 18.13 16.2702C17.86 16.4702 17.47 16.5602 16.96 16.5602C16.74 16.5602 16.53 16.5402 16.32 16.4802C16.11 16.4302 15.92 16.3502 15.76 16.2402C15.59 16.1302 15.46 15.9802 15.35 15.8002C15.24 15.6202 15.18 15.3902 15.17 15.1302H13.28C13.28 15.4902 13.36 15.8402 13.52 16.1802C13.68 16.5202 13.91 16.8302 14.22 17.1102C14.53 17.3802 14.91 17.6002 15.37 17.7702C15.83 17.9402 16.35 18.0202 16.95 18.0202C17.48 18.0202 17.96 17.9602 18.39 17.8302C18.82 17.7002 19.19 17.5202 19.5 17.2902C19.81 17.0602 20.04 16.7802 20.21 16.4602C20.38 16.1402 20.46 15.7902 20.46 15.4002C20.44 15.0002 20.37 14.6602 20.22 14.3802Z"/></svg>