<svg width="24" height="24" viewBox="0 0 24 24" xmlns="http://www.w3.org/2000/svg" fill='currentColor'><path d="M15.71 1.19482H9.70998V3.19482H15.71V1.19482Z"/><path d="M13.71 8.19482V10.3648L20.69 17.3448C21.34 16.1048 21.71 14.6948 21.71 13.1948C21.71 11.0748 20.97 9.12482 19.74 7.58482L21.16 6.16482C20.73 5.65482 20.26 5.17482 19.75 4.75482L18.33 6.17482C16.78 4.93482 14.83 4.19482 12.71 4.19482C11.21 4.19482 9.79998 4.56482 8.55998 5.21482L11.54 8.19482H13.71Z"/><path d="M3.51998 3.00482L2.09998 4.41482L5.49998 7.81482C4.37998 9.31482 3.70998 11.1748 3.70998 13.1948C3.70998 18.1648 7.72998 22.1948 12.71 22.1948C14.73 22.1948 16.59 21.5248 18.09 20.4048L20.49 22.8048L21.9 21.3948L3.51998 3.00482Z"/></svg>