<svg width="16" height="16" viewBox="0 0 16 16" fill="none" xmlns="http://www.w3.org/2000/svg">
<g clip-path="url(#clip0_104_3479)">
<path d="M7 5H3C2.20435 5 1.44129 5.31607 0.87868 5.87868C0.31607 6.44129 0 7.20435 0 8C0 8.79565 0.31607 9.55871 0.87868 10.1213C1.44129 10.6839 2.20435 11 3 11H7C6.76722 10.6904 6.57124 10.3548 6.416 10H3C2.46957 10 1.96086 9.78929 1.58579 9.41421C1.21071 9.03914 1 8.53043 1 8C1 7.46957 1.21071 6.96086 1.58579 6.58579C1.96086 6.21071 2.46957 6 3 6H6.416C6.572 5.643 6.768 5.308 7 5Z" fill="black"/>
<path d="M16 8C16 9.32608 15.4732 10.5979 14.5355 11.5355C13.5979 12.4732 12.3261 13 11 13C9.67392 13 8.40215 12.4732 7.46447 11.5355C6.52678 10.5979 6 9.32608 6 8C6 6.67392 6.52678 5.40215 7.46447 4.46447C8.40215 3.52678 9.67392 3 11 3C12.3261 3 13.5979 3.52678 14.5355 4.46447C15.4732 5.40215 16 6.67392 16 8Z" fill="black"/>
</g>
<defs>
<clipPath id="clip0_104_3479">
<rect width="16" height="16" fill="white"/>
</clipPath>
</defs>
</svg>
