<svg width="16" height="16" viewBox="0 0 16 16" xmlns="http://www.w3.org/2000/svg" fill='currentColor'><g clip-path="url(#clip0_104_3476)"><path d="M9 11C9.628 10.164 10 9.126 10 8C10.0016 6.91789 9.65054 5.86473 9 5H13C13.7956 5 14.5587 5.31607 15.1213 5.87868C15.6839 6.44129 16 7.20435 16 8C16 8.79565 15.6839 9.55871 15.1213 10.1213C14.5587 10.6839 13.7956 11 13 11H9Z"/><path d="M5 12C3.93913 12 2.92172 11.5786 2.17157 10.8284C1.42143 10.0783 1 9.06087 1 8C1 6.93913 1.42143 5.92172 2.17157 5.17157C2.92172 4.42143 3.93913 4 5 4C6.06087 4 7.07828 4.42143 7.82843 5.17157C8.57857 5.92172 9 6.93913 9 8C9 9.06087 8.57857 10.0783 7.82843 10.8284C7.07828 11.5786 6.06087 12 5 12ZM5 13C6.32608 13 7.59785 12.4732 8.53553 11.5355C9.47322 10.5979 10 9.32608 10 8C10 6.67392 9.47322 5.40215 8.53553 4.46447C7.59785 3.52678 6.32608 3 5 3C3.67392 3 2.40215 3.52678 1.46447 4.46447C0.526784 5.40215 0 6.67392 0 8C0 9.32608 0.526784 10.5979 1.46447 11.5355C2.40215 12.4732 3.67392 13 5 13Z"/></g><defs><clipPath id="clip0_104_3476"><rect width="16" height="16"/></clipPath></defs></svg>