<svg width="16" height="16" viewBox="0 0 16 16" xmlns="http://www.w3.org/2000/svg" fill='currentColor'><path d="M4.5 9C3.57174 9 2.6815 9.36875 2.02513 10.0251C1.36875 10.6815 1 11.5717 1 12.5C1 13.4283 1.36875 14.3185 2.02513 14.9749C2.6815 15.6313 3.57174 16 4.5 16H11.5C12.4283 16 13.3185 15.6313 13.9749 14.9749C14.6313 14.3185 15 13.4283 15 12.5C15 11.5717 14.6313 10.6815 13.9749 10.0251C13.3185 9.36875 12.4283 9 11.5 9H4.5ZM11.5 15C10.837 15 10.2011 14.7366 9.73223 14.2678C9.26339 13.7989 9 13.163 9 12.5C9 11.837 9.26339 11.2011 9.73223 10.7322C10.2011 10.2634 10.837 10 11.5 10C12.163 10 12.7989 10.2634 13.2678 10.7322C13.7366 11.2011 14 11.837 14 12.5C14 13.163 13.7366 13.7989 13.2678 14.2678C12.7989 14.7366 12.163 15 11.5 15ZM4.5 1C3.83696 1 3.20107 1.26339 2.73223 1.73223C2.26339 2.20107 2 2.83696 2 3.5C2 4.16304 2.26339 4.79893 2.73223 5.26777C3.20107 5.73661 3.83696 6 4.5 6C5.16304 6 5.79893 5.73661 6.26777 5.26777C6.73661 4.79893 7 4.16304 7 3.5C7 2.83696 6.73661 2.20107 6.26777 1.73223C5.79893 1.26339 5.16304 1 4.5 1ZM6.95 1C7.28296 1.32558 7.54739 1.7145 7.72772 2.14386C7.90805 2.57321 8.00063 3.03431 8 3.5C8.00063 3.96569 7.90805 4.42679 7.72772 4.85614C7.54739 5.2855 7.28296 5.67442 6.95 6H11.5C12.163 6 12.7989 5.73661 13.2678 5.26777C13.7366 4.79893 14 4.16304 14 3.5C14 2.83696 13.7366 2.20107 13.2678 1.73223C12.7989 1.26339 12.163 1 11.5 1H6.95ZM4.5 0H11.5C12.4283 0 13.3185 0.368749 13.9749 1.02513C14.6313 1.6815 15 2.57174 15 3.5C15 4.42826 14.6313 5.3185 13.9749 5.97487C13.3185 6.63125 12.4283 7 11.5 7H4.5C3.57174 7 2.6815 6.63125 2.02513 5.97487C1.36875 5.3185 1 4.42826 1 3.5C1 2.57174 1.36875 1.6815 2.02513 1.02513C2.6815 0.368749 3.57174 0 4.5 0V0Z"/></svg>