<svg width="16" height="16" viewBox="0 0 16 16" fill="none" xmlns="http://www.w3.org/2000/svg">
<path d="M9.46503 10H12C12.5305 10 13.0392 10.2107 13.4142 10.5858C13.7893 10.9609 14 11.4696 14 12C14 12.5304 13.7893 13.0391 13.4142 13.4142C13.0392 13.7893 12.5305 14 12 14H9.46503C9.80503 13.412 10 12.729 10 12C10 11.271 9.80503 10.588 9.46503 10Z" fill="black"/>
<path d="M6 15C6.79565 15 7.55871 14.6839 8.12132 14.1213C8.68393 13.5587 9 12.7956 9 12C9 11.2044 8.68393 10.4413 8.12132 9.87868C7.55871 9.31607 6.79565 9 6 9C5.20435 9 4.44129 9.31607 3.87868 9.87868C3.31607 10.4413 3 11.2044 3 12C3 12.7956 3.31607 13.5587 3.87868 14.1213C4.44129 14.6839 5.20435 15 6 15ZM6 16C4.93913 16 3.92172 15.5786 3.17157 14.8284C2.42143 14.0783 2 13.0609 2 12C2 10.9391 2.42143 9.92172 3.17157 9.17157C3.92172 8.42143 4.93913 8 6 8C7.06087 8 8.07828 8.42143 8.82843 9.17157C9.57857 9.92172 10 10.9391 10 12C10 13.0609 9.57857 14.0783 8.82843 14.8284C8.07828 15.5786 7.06087 16 6 16ZM6.535 6C6.35379 5.68683 6.21619 5.35039 6.126 5H4C3.73478 5 3.48043 4.89464 3.29289 4.70711C3.10536 4.51957 3 4.26522 3 4C3 3.73478 3.10536 3.48043 3.29289 3.29289C3.48043 3.10536 3.73478 3 4 3H6.126C6.217 2.645 6.356 2.31 6.536 2H4C3.46957 2 2.96086 2.21071 2.58579 2.58579C2.21071 2.96086 2 3.46957 2 4C2 4.53043 2.21071 5.03914 2.58579 5.41421C2.96086 5.78929 3.46957 6 4 6H6.535Z" fill="black"/>
<path d="M14 4C14 5.06087 13.5786 6.07828 12.8284 6.82843C12.0783 7.57857 11.0609 8 10 8C8.93913 8 7.92172 7.57857 7.17157 6.82843C6.42143 6.07828 6 5.06087 6 4C6 2.93913 6.42143 1.92172 7.17157 1.17157C7.92172 0.421427 8.93913 0 10 0C11.0609 0 12.0783 0.421427 12.8284 1.17157C13.5786 1.92172 14 2.93913 14 4Z" fill="black"/>
</svg>
