<svg width="16" height="16" viewBox="0 0 16 16" fill="none" xmlns="http://www.w3.org/2000/svg">
<g clip-path="url(#clip0_104_3492)">
<path d="M1 -8.36796e-05L0 0.999916L2.2 4.08092C2.29262 4.21066 2.41491 4.31638 2.55668 4.38927C2.69845 4.46215 2.85559 4.50009 3.015 4.49992H3.085C3.21648 4.49981 3.34669 4.52564 3.46818 4.57592C3.58966 4.62619 3.70004 4.69993 3.793 4.79292L6.468 7.46792L3.851 10.1219C3.40339 9.99016 2.93124 9.96451 2.472 10.047C2.01275 10.1295 1.57905 10.3179 1.2053 10.5972C0.831545 10.8765 0.528021 11.2391 0.318803 11.6562C0.109586 12.0732 0.000432201 12.5333 0 12.9999C0.000599463 13.4299 0.0936037 13.8546 0.272711 14.2455C0.451819 14.6364 0.712846 14.9841 1.03811 15.2653C1.36337 15.5465 1.74526 15.7544 2.15792 15.8751C2.57057 15.9958 3.00434 16.0264 3.42985 15.9648C3.85535 15.9032 4.26264 15.7508 4.62413 15.5181C4.98561 15.2853 5.29284 14.9776 5.52501 14.6157C5.75717 14.2538 5.90884 13.8463 5.96975 13.4207C6.03065 12.9951 5.99936 12.5614 5.878 12.1489L8.532 9.53192L9.5 10.4999L9.195 11.4139C9.13639 11.5901 9.12799 11.7791 9.17073 11.9598C9.21347 12.1405 9.30567 12.3057 9.437 12.4369L12.793 15.7929C12.9805 15.9804 13.2348 16.0857 13.5 16.0857C13.7652 16.0857 14.0195 15.9804 14.207 15.7929L15.793 14.2069C15.9805 14.0194 16.0858 13.7651 16.0858 13.4999C16.0858 13.2348 15.9805 12.9804 15.793 12.7929L12.437 9.43692C12.3058 9.30559 12.1405 9.21339 11.9599 9.17065C11.7792 9.1279 11.5902 9.13631 11.414 9.19492L10.5 9.49992L9.54 8.53992L12.22 5.89692C12.6646 6.01559 13.1305 6.03058 13.5818 5.94073C14.0331 5.85087 14.4577 5.65858 14.8229 5.37867C15.1882 5.09876 15.4842 4.73871 15.6883 4.32628C15.8924 3.91385 15.999 3.46007 16 2.99992C16 2.73092 15.965 2.46992 15.898 2.22292L13.758 4.36392L12 3.99992L11.636 2.24292L13.777 0.101916C13.2677 -0.0350224 12.7313 -0.035278 12.2219 0.101175C11.7124 0.237629 11.248 0.505968 10.8753 0.879146C10.5026 1.25232 10.2349 1.71715 10.0991 2.22677C9.96338 2.73639 9.96437 3.2728 10.102 3.78192L7.462 6.45992L4.793 3.79292C4.60545 3.60542 4.50006 3.35111 4.5 3.08592V3.01492C4.50002 2.85568 4.462 2.69873 4.38912 2.55715C4.31624 2.41557 4.21061 2.29343 4.081 2.20092L1 -8.36796e-05ZM10.646 10.6459C10.6924 10.5994 10.7476 10.5624 10.8084 10.5372C10.8691 10.512 10.9342 10.499 11 10.499C11.0658 10.499 11.1309 10.512 11.1916 10.5372C11.2524 10.5624 11.3076 10.5994 11.354 10.6459L14.354 13.6459C14.4005 13.6924 14.4374 13.7476 14.4625 13.8083C14.4877 13.8691 14.5006 13.9342 14.5006 13.9999C14.5006 14.0657 14.4877 14.1308 14.4625 14.1915C14.4374 14.2522 14.4005 14.3074 14.354 14.3539C14.3075 14.4004 14.2523 14.4373 14.1916 14.4624C14.1308 14.4876 14.0657 14.5005 14 14.5005C13.9343 14.5005 13.8692 14.4876 13.8084 14.4624C13.7477 14.4373 13.6925 14.4004 13.646 14.3539L10.646 11.3539C10.5994 11.3075 10.5625 11.2523 10.5373 11.1915C10.5121 11.1308 10.4991 11.0657 10.4991 10.9999C10.4991 10.9341 10.5121 10.869 10.5373 10.8083C10.5625 10.7475 10.5994 10.6924 10.646 10.6459ZM3 10.9999L3.471 11.2419L4 11.2679L4.287 11.7129L4.732 11.9999L4.758 12.5289L5 12.9999L4.758 13.4709L4.732 13.9999L4.287 14.2869L4 14.7319L3.471 14.7579L3 14.9999L2.529 14.7579L2 14.7319L1.713 14.2869L1.268 13.9999L1.242 13.4709L1 12.9999L1.242 12.5289L1.268 11.9999L1.713 11.7129L2 11.2679L2.529 11.2419L3 10.9999Z" fill="black"/>
</g>
<defs>
<clipPath id="clip0_104_3492">
<rect width="16" height="16" fill="white"/>
</clipPath>
</defs>
</svg>
