<svg width="16" height="16" viewBox="0 0 16 16" xmlns="http://www.w3.org/2000/svg" fill='currentColor'><g clip-path="url(#clip0_104_3494)"><path d="M1.125 2.45C1.04411 2.31376 1.00096 2.15844 1 2C1 1.74 1.116 1.526 1.258 1.366C1.40563 1.2081 1.57912 1.07654 1.771 0.977C2.158 0.767 2.684 0.592 3.291 0.452C4.514 0.17 6.18 0 8 0C9.821 0 11.486 0.17 12.709 0.452C13.316 0.592 13.842 0.766 14.229 0.977C14.422 1.083 14.603 1.21 14.742 1.366C14.883 1.526 15 1.74 15 2C15 3.011 14.65 3.612 14.366 4.102C14.326 4.172 14.286 4.239 14.25 4.305C14.1002 4.55481 13.9944 4.82844 13.937 5.114C13.8881 5.40871 13.8843 5.70917 13.926 6.005C14.0303 5.98904 14.137 6.00647 14.2308 6.05482C14.3245 6.10317 14.4006 6.17995 14.4481 6.27417C14.4956 6.36838 14.5121 6.47521 14.4952 6.57936C14.4783 6.68351 14.4289 6.77965 14.354 6.854C14.294 6.914 14.221 6.98 14.139 7.049C14.343 8.165 14.227 9.039 13.839 9.76C13.386 10.6 12.608 11.143 11.819 11.616C11.615 11.739 11.407 11.859 11.199 11.98C9.755 12.812 8.271 13.669 7.464 15.686C7.43613 15.7557 7.39292 15.8182 7.33759 15.8689C7.28226 15.9196 7.21622 15.9572 7.14437 15.9789C7.07252 16.0007 6.99671 16.0059 6.92255 15.9943C6.84839 15.9827 6.7778 15.9546 6.716 15.912L6.715 15.911L6.713 15.91L6.709 15.907L6.699 15.899C6.64835 15.8628 6.59931 15.8245 6.552 15.784C6.02606 15.3399 5.62056 14.7703 5.373 14.128C5.21545 13.7138 5.13185 13.2751 5.126 12.832C5.04463 12.7406 4.99978 12.6224 5 12.5V12.482C5.00098 12.4555 5.00365 12.4291 5.008 12.403C5.03044 12.2584 5.09595 12.1238 5.196 12.017C5.286 11.528 5.468 11.003 5.769 10.443C5.68186 10.3977 5.61 10.3277 5.5624 10.2417C5.51481 10.1558 5.49357 10.0577 5.50136 9.95982C5.50915 9.86189 5.54561 9.76843 5.60619 9.6911C5.66677 9.61377 5.74879 9.556 5.842 9.525C6.04256 9.45726 6.24918 9.40904 6.459 9.381L6.609 9.188C6.894 8.832 7.013 8.549 7.046 8.327C7.0772 8.11279 7.03415 7.89435 6.924 7.708C6.675 7.253 6.109 6.805 5.311 6.278C5.118 6.151 4.913 6.02 4.702 5.884L4.583 5.808C4.1638 5.71836 3.74957 5.60687 3.342 5.474C3.27318 5.45113 3.21016 5.41357 3.1573 5.36392C3.10445 5.31426 3.06303 5.2537 3.03591 5.18644C3.0088 5.11918 2.99664 5.04683 3.00028 4.9744C3.00392 4.90197 3.02328 4.8312 3.057 4.767L2.827 4.587C2.117 4.01 1.463 3.32 1.125 2.45ZM3.098 3.501C3.211 3.605 3.331 3.708 3.456 3.809C3.928 4.19 4.446 4.531 4.971 4.869C6.511 5.186 8.603 5.369 10.401 5.009C10.4654 4.99606 10.5317 4.99594 10.5962 5.00864C10.6607 5.02134 10.722 5.04661 10.7767 5.08301C10.8314 5.11941 10.8784 5.16623 10.915 5.22079C10.9516 5.27535 10.9771 5.33659 10.99 5.401C11.0029 5.46541 11.0031 5.53174 10.9904 5.5962C10.9777 5.66066 10.9524 5.72199 10.916 5.77669C10.8796 5.83138 10.8328 5.87837 10.7782 5.91497C10.7236 5.95157 10.6624 5.97706 10.598 5.99C9.382 6.234 8.061 6.25 6.839 6.147C7.238 6.473 7.583 6.829 7.802 7.228C8.005 7.601 8.104 8.018 8.035 8.475C7.985 8.805 7.853 9.132 7.645 9.46C7.72 9.477 7.793 9.495 7.865 9.513L7.871 9.515C8.352 9.635 8.734 9.728 9.341 9.525C9.46698 9.48296 9.6045 9.49269 9.7233 9.55205C9.8421 9.6114 9.93246 9.71552 9.9745 9.8415C10.0165 9.96748 10.0068 10.105 9.94745 10.2238C9.8881 10.3426 9.78398 10.433 9.658 10.475C8.77 10.77 8.153 10.616 7.635 10.487L7.629 10.485C7.41817 10.426 7.20274 10.3848 6.985 10.362C6.615 10.912 6.387 11.412 6.259 11.859C6.401 11.904 6.555 11.969 6.724 12.053C6.78322 12.0821 6.8361 12.1226 6.87957 12.1723C6.92305 12.2219 6.95628 12.2797 6.97733 12.3422C6.99838 12.4047 7.00685 12.4708 7.00224 12.5367C6.99763 12.6025 6.98004 12.6667 6.95048 12.7257C6.92091 12.7847 6.87996 12.8373 6.82999 12.8804C6.78002 12.9235 6.72201 12.9563 6.65931 12.9768C6.59661 12.9974 6.53046 13.0053 6.46468 13.0002C6.39889 12.9951 6.33476 12.977 6.276 12.947C6.22729 12.9224 6.17794 12.899 6.128 12.877C6.14 13.222 6.212 13.52 6.308 13.772C6.448 14.141 6.65 14.438 6.836 14.658C7.828 12.755 9.419 11.844 10.721 11.098C10.924 10.982 11.12 10.87 11.305 10.758C12.08 10.294 12.645 9.868 12.958 9.286C13.17 8.893 13.288 8.386 13.218 7.669C12.2315 8.21028 11.1252 8.49596 10 8.5C9.86739 8.5 9.74021 8.44732 9.64645 8.35355C9.55268 8.25979 9.5 8.13261 9.5 8C9.5 7.86739 9.55268 7.74021 9.64645 7.64645C9.74021 7.55268 9.86739 7.5 10 7.5C11.067 7.49439 12.1115 7.1925 13.017 6.628C13.0144 6.61807 13.012 6.60807 13.01 6.598C12.875 5.925 12.87 5.391 12.954 4.933C13.038 4.473 13.207 4.123 13.375 3.82L13.506 3.59C13.571 3.478 13.632 3.37 13.688 3.263C13.398 3.37 13.068 3.465 12.708 3.548C11.487 3.83 9.822 4 8 4C6.179 4 4.514 3.83 3.291 3.548C3.226 3.533 3.161 3.518 3.098 3.501ZM13.964 2C13.8985 1.94357 13.8267 1.89491 13.75 1.855C13.478 1.707 13.053 1.558 12.484 1.427C11.354 1.166 9.769 1 8 1C6.231 1 4.646 1.166 3.516 1.427C2.947 1.557 2.522 1.707 2.25 1.855C2.17331 1.89491 2.1015 1.94357 2.036 2C2.076 2.038 2.145 2.087 2.25 2.145C2.522 2.293 2.947 2.442 3.516 2.573C4.646 2.834 6.231 3 8 3C9.769 3 11.354 2.834 12.484 2.573C13.053 2.443 13.478 2.293 13.75 2.145C13.8267 2.10509 13.8985 2.05643 13.964 2Z"/></g><defs><clipPath id="clip0_104_3494"><rect width="16" height="16"/></clipPath></defs></svg>