<svg xmlns="http://www.w3.org/2000/svg" width="24" height="24" viewBox="0 0 24 24" fill='currentColor'><path d="M8.75 9.74V6a2.5 2.5 0 0 1 5 0v3.74c1.21-.81 2-2.18 2-3.74 0-2.49-2.01-4.5-4.5-4.5S6.75 3.51 6.75 6c0 1.56.79 2.93 2 3.74m9.84 4.63-4.54-2.26c-.17-.07-.35-.11-.54-.11h-.76V6c0-.83-.67-1.5-1.5-1.5s-1.5.67-1.5 1.5v10.74c-3.6-.76-3.54-.75-3.67-.75-.31 0-.59.13-.79.33l-.79.8 4.94 4.94c.27.27.65.44 1.06.44h6.79c.75 0 1.33-.55 1.44-1.28l.75-5.27c.01-.07.02-.14.02-.2 0-.62-.38-1.16-.91-1.38"/></svg>