<svg width="24" height="24" viewBox="0 0 24 24" xmlns="http://www.w3.org/2000/svg" fill='currentColor'><path d="M22.5012 14C22.5012 12.05 21.1012 10.43 19.2512 10.08L17.9012 6.05C17.5012 4.82 16.3512 4 15.0612 4H9.94125C8.65125 4 7.50125 4.82 7.10125 6.05L6.31125 8.4L4.91125 7L5.20125 6.71C5.59125 6.32 5.59125 5.69 5.20125 5.3C4.81125 4.91 4.18125 4.91 3.79125 5.3L1.79125 7.3C1.40125 7.69 1.40125 8.32 1.79125 8.71C2.18125 9.1 2.81125 9.1 3.20125 8.71L3.50125 8.41L5.29125 10.2C3.68125 10.72 2.50125 12.22 2.50125 14C2.50125 15.5 3.33125 16.79 4.55125 17.48C4.78125 18.9 6.01125 20 7.50125 20C8.80125 20 9.90125 19.16 10.3212 18H14.6912C15.1012 19.16 16.2013 20 17.5112 20C19.0012 20 20.2312 18.9 20.4612 17.48C21.6712 16.79 22.5012 15.5 22.5012 14ZM7.50125 18C6.95125 18 6.50125 17.55 6.50125 17C6.50125 16.45 6.95125 16 7.50125 16C8.05125 16 8.50125 16.45 8.50125 17C8.50125 17.55 8.05125 18 7.50125 18ZM11.5012 10H7.91125L7.89125 9.98L8.99125 6.68C9.13125 6.27 9.51125 6 9.94125 6H11.5012V10ZM13.5012 6H15.0612C15.4912 6 15.8712 6.27 16.0112 6.68L17.1112 10H13.5012V6ZM17.5012 18C16.9512 18 16.5012 17.55 16.5012 17C16.5012 16.45 16.9512 16 17.5012 16C18.0512 16 18.5012 16.45 18.5012 17C18.5012 17.55 18.0512 18 17.5012 18Z"/></svg>