<svg xmlns="http://www.w3.org/2000/svg" width="24" height="24" viewBox="0 0 24 24" fill='currentColor'><path d="M22.501 14c0-1.95-1.4-3.57-3.25-3.92l-1.35-4.03A2.98 2.98 0 0 0 15.061 4h-5.12c-1.29 0-2.44.82-2.84 2.05l-.79 2.35-1.4-1.4.29-.29a.996.996 0 1 0-1.41-1.41l-2 2a.996.996 0 1 0 1.41 1.41l.3-.3 1.79 1.79c-1.61.52-2.79 2.02-2.79 3.8 0 1.5.83 2.79 2.05 3.48A3 3 0 0 0 7.501 20c1.3 0 2.4-.84 2.82-2h4.37c.41 1.16 1.51 2 2.82 2a3 3 0 0 0 2.95-2.52c1.21-.69 2.04-1.98 2.04-3.48m-15 4c-.55 0-1-.45-1-1s.45-1 1-1 1 .45 1 1-.45 1-1 1m4-8h-3.59l-.02-.02 1.1-3.3a1 1 0 0 1 .95-.68h1.56zm2-4h1.56a1 1 0 0 1 .95.68l1.1 3.32h-3.61zm4 12c-.55 0-1-.45-1-1s.45-1 1-1 1 .45 1 1-.45 1-1 1"/></svg>