<svg width="16" height="16" viewBox="0 0 16 16" fill="none" xmlns="http://www.w3.org/2000/svg">
<path d="M2.037 3.225C2.0125 3.15251 2.00001 3.07651 2 3C2 1.895 4.686 1 8 1C11.314 1 14 1.895 14 3C14 3.07652 13.9875 3.15252 13.963 3.225L12.279 13.329C12.2011 13.7962 11.9599 14.2205 11.5984 14.5265C11.237 14.8325 10.7786 15.0003 10.305 15H5.694C5.22056 15.0001 4.76245 14.8322 4.40118 14.5262C4.0399 14.2202 3.79888 13.796 3.721 13.329L2.037 3.225ZM11.927 2.535C10.966 2.214 9.578 2 8 2C6.42 2 5.032 2.215 4.074 2.534C3.597 2.694 3.279 2.861 3.099 3C3.279 3.14 3.597 3.307 4.074 3.466C5.032 3.786 6.42 4 8 4C9.58 4 10.967 3.785 11.926 3.466C12.403 3.306 12.721 3.139 12.901 3C12.721 2.86 12.403 2.693 11.926 2.534L11.927 2.535Z" fill="black"/>
</svg>
