<svg width="16" height="16" viewBox="0 0 16 16" fill="none" xmlns="http://www.w3.org/2000/svg">
<path d="M8.416 0.2231C8.37034 0.154622 8.30848 0.0984739 8.23591 0.0596403C8.16334 0.0208067 8.0823 0.000488281 8 0.000488281C7.91769 0.000488281 7.83666 0.0208067 7.76409 0.0596403C7.69152 0.0984739 7.62966 0.154622 7.584 0.2231L4.584 4.7231C4.53389 4.7984 4.50515 4.88587 4.50083 4.97621C4.49651 5.06655 4.51677 5.15637 4.55946 5.2361C4.60215 5.31583 4.66566 5.3825 4.74324 5.42899C4.82082 5.47548 4.90956 5.50005 5 5.5001H5.098L3.076 8.7351C3.02869 8.81079 3.00251 8.89775 3.00017 8.98698C2.99783 9.0762 3.01941 9.16442 3.06268 9.24249C3.10594 9.32055 3.16932 9.38561 3.24622 9.43091C3.32312 9.47621 3.41075 9.5001 3.5 9.5001H3.691L2.053 12.7761C2.0148 12.8523 1.99673 12.9371 2.00051 13.0222C2.00428 13.1074 2.02978 13.1902 2.07457 13.2628C2.11936 13.3353 2.18196 13.3952 2.25643 13.4368C2.33089 13.4783 2.41473 13.5001 2.5 13.5001H7V16.0001H9V13.5001H13.5C13.5853 13.5001 13.6691 13.4783 13.7436 13.4368C13.818 13.3952 13.8806 13.3353 13.9254 13.2628C13.9702 13.1902 13.9957 13.1074 13.9995 13.0222C14.0033 12.9371 13.9852 12.8523 13.947 12.7761L12.31 9.5001H12.501C12.5903 9.5001 12.6779 9.47621 12.7548 9.43091C12.8317 9.38561 12.8951 9.32055 12.9383 9.24249C12.9816 9.16442 13.0032 9.0762 13.0008 8.98698C12.9985 8.89775 12.9723 8.81079 12.925 8.7351L10.902 5.5001H11C11.0904 5.50005 11.1792 5.47548 11.2568 5.42899C11.3343 5.3825 11.3979 5.31583 11.4405 5.2361C11.4832 5.15637 11.5035 5.06655 11.4992 4.97621C11.4948 4.88587 11.4661 4.7984 11.416 4.7231L8.416 0.2231ZM6.437 4.7581C6.39381 4.68001 6.33051 4.61491 6.25366 4.56954C6.17682 4.52417 6.08923 4.5002 6 4.5001H5.934L8 1.4011L10.066 4.5001H10C9.91075 4.5001 9.82312 4.52399 9.74622 4.56929C9.66932 4.61459 9.60594 4.67965 9.56268 4.75772C9.51941 4.83578 9.49783 4.924 9.50017 5.01322C9.50251 5.10245 9.5287 5.18941 9.576 5.2651L11.598 8.5001H11.5C11.4147 8.5001 11.3309 8.52191 11.2564 8.56345C11.182 8.60499 11.1194 8.66488 11.0746 8.73743C11.0298 8.80998 11.0043 8.89278 11.0005 8.97796C10.9967 9.06314 11.0148 9.14787 11.053 9.2241L12.69 12.5001H3.309L4.947 9.2241C4.9852 9.14787 5.00327 9.06314 4.99949 8.97796C4.99572 8.89278 4.97022 8.80998 4.92543 8.73743C4.88063 8.66488 4.81803 8.60499 4.74357 8.56345C4.66911 8.52191 4.58526 8.5001 4.5 8.5001H4.402L6.424 5.2651C6.47118 5.18943 6.49727 5.10252 6.49955 5.01337C6.50184 4.92422 6.48024 4.83609 6.437 4.7581Z" fill="black"/>
</svg>
