<svg width="16" height="16" viewBox="0 0 16 16" xmlns="http://www.w3.org/2000/svg" fill='currentColor'><g clip-path="url(#clip0_104_3516)"><path d="M8.065 2.01595C8.04569 2.00537 8.02401 1.99986 8.002 1.99995V13.983L14.858 14C14.8812 14.0008 14.9041 13.9949 14.924 13.983C14.9468 13.9678 14.9654 13.9472 14.978 13.923C14.9945 13.8952 15.003 13.8634 15.0027 13.8312C15.0023 13.7989 14.9931 13.7673 14.976 13.74L8.12 2.07295C8.10754 2.04938 8.08887 2.02966 8.066 2.01595H8.065ZM7.022 1.56595C7.12099 1.39352 7.26372 1.25025 7.43579 1.15062C7.60786 1.051 7.80317 0.998535 8.002 0.998535C8.20083 0.998535 8.39614 1.051 8.56821 1.15062C8.74027 1.25025 8.88301 1.39352 8.982 1.56595L15.838 13.233C16.296 14.011 15.747 15 14.858 15H1.146C0.256999 15 -0.291001 14.01 0.165999 13.233L7.022 1.56595Z"/></g><defs><clipPath id="clip0_104_3516"><rect width="16" height="16"/></clipPath></defs></svg>