<svg width="16" height="16" viewBox="0 0 16 16" fill="none" xmlns="http://www.w3.org/2000/svg">
<g clip-path="url(#clip0_104_3512)">
<path d="M7.938 2.01595C7.9576 2.0052 7.97965 1.99969 8.002 1.99995C8.02402 1.99986 8.04569 2.00537 8.065 2.01595C8.08787 2.02966 8.10654 2.04938 8.119 2.07295L14.976 13.74C15.012 13.8 15.011 13.864 14.978 13.923C14.9653 13.9472 14.9467 13.9678 14.924 13.983C14.9042 13.9951 14.8812 14.001 14.858 14H1.146C1.12279 14.0011 1.09978 13.9952 1.08 13.983C1.05725 13.9678 1.03868 13.9472 1.026 13.923C1.00952 13.8952 1.00099 13.8634 1.00134 13.8312C1.0017 13.7989 1.01092 13.7673 1.028 13.74L7.884 2.07295C7.8965 2.04941 7.91517 2.0297 7.938 2.01595ZM8.982 1.56595C8.88301 1.39352 8.74028 1.25025 8.56821 1.15062C8.39614 1.051 8.20083 0.998535 8.002 0.998535C7.80317 0.998535 7.60786 1.051 7.43579 1.15062C7.26372 1.25025 7.12099 1.39352 7.022 1.56595L0.165 13.233C-0.292 14.011 0.256 15 1.145 15H14.858C15.747 15 16.296 14.01 15.838 13.233L8.982 1.56595Z" fill="black"/>
</g>
<defs>
<clipPath id="clip0_104_3512">
<rect width="16" height="16" fill="white"/>
</clipPath>
</defs>
</svg>
