<svg width="16" height="16" viewBox="0 0 16 16" fill="none" xmlns="http://www.w3.org/2000/svg">
<g clip-path="url(#clip0_104_3529)">
<path d="M0.0360122 12.314C0.0853657 12.191 0.181563 12.0926 0.303454 12.0404C0.425345 11.9883 0.562949 11.9867 0.686012 12.036L2.44301 12.739C2.80058 12.882 3.19945 12.882 3.55701 12.739L4.57101 12.333C5.16705 12.0946 5.83197 12.0946 6.42801 12.333L7.44301 12.739C7.80058 12.882 8.19945 12.882 8.55701 12.739L9.57101 12.333C10.1671 12.0946 10.832 12.0946 11.428 12.333L12.443 12.739C12.8006 12.882 13.1994 12.882 13.557 12.739L15.314 12.036C15.3752 12.01 15.4411 11.9964 15.5076 11.9961C15.5741 11.9959 15.64 12.0089 15.7015 12.0344C15.7629 12.0599 15.8187 12.0975 15.8654 12.1448C15.9122 12.1921 15.949 12.2483 15.9738 12.3101C15.9985 12.3719 16.0107 12.4379 16.0096 12.5045C16.0085 12.571 15.9941 12.6366 15.9673 12.6975C15.9405 12.7584 15.9018 12.8134 15.8535 12.8591C15.8052 12.9049 15.7483 12.9405 15.686 12.964L13.928 13.667C13.332 13.9054 12.6671 13.9054 12.071 13.667L11.057 13.261C10.6994 13.118 10.3006 13.118 9.94301 13.261L8.92801 13.667C8.33197 13.9054 7.66705 13.9054 7.07101 13.667L6.05701 13.261C5.69945 13.118 5.30058 13.118 4.94301 13.261L3.92801 13.667C3.33197 13.9054 2.66705 13.9054 2.07101 13.667L0.314012 12.964C0.190971 12.9146 0.0925655 12.8184 0.0404339 12.6966C-0.0116978 12.5747 -0.0132883 12.4371 0.0360122 12.314ZM0.0360122 14.314C0.0853657 14.191 0.181563 14.0926 0.303454 14.0404C0.425345 13.9883 0.562949 13.9867 0.686012 14.036L2.44301 14.739C2.80058 14.882 3.19945 14.882 3.55701 14.739L4.57101 14.333C5.16705 14.0946 5.83197 14.0946 6.42801 14.333L7.44301 14.739C7.80058 14.882 8.19945 14.882 8.55701 14.739L9.57101 14.333C10.1671 14.0946 10.832 14.0946 11.428 14.333L12.443 14.739C12.8006 14.882 13.1994 14.882 13.557 14.739L15.314 14.036C15.3752 14.01 15.4411 13.9964 15.5076 13.9961C15.5741 13.9959 15.64 14.0089 15.7015 14.0344C15.7629 14.0599 15.8187 14.0975 15.8654 14.1448C15.9122 14.1921 15.949 14.2483 15.9738 14.3101C15.9985 14.3719 16.0107 14.4379 16.0096 14.5045C16.0085 14.571 15.9941 14.6366 15.9673 14.6975C15.9405 14.7584 15.9018 14.8134 15.8535 14.8591C15.8052 14.9049 15.7483 14.9405 15.686 14.964L13.928 15.667C13.332 15.9054 12.6671 15.9054 12.071 15.667L11.057 15.261C10.6994 15.118 10.3006 15.118 9.94301 15.261L8.92801 15.667C8.33197 15.9054 7.66705 15.9054 7.07101 15.667L6.05701 15.261C5.69945 15.118 5.30058 15.118 4.94301 15.261L3.92801 15.667C3.33197 15.9054 2.66705 15.9054 2.07101 15.667L0.314012 14.964C0.190971 14.9146 0.0925655 14.8184 0.0404339 14.6966C-0.0116978 14.5747 -0.0132883 14.4371 0.0360122 14.314ZM2.66201 8.08C2.20601 9.143 1.66801 10.178 0.820012 10.884C0.717759 10.9651 0.587833 11.0031 0.45799 10.9897C0.328148 10.9763 0.208684 10.9127 0.12512 10.8124C0.0415568 10.7121 0.000520077 10.5832 0.0107768 10.453C0.0210336 10.3229 0.0817705 10.2019 0.180012 10.116C0.832012 9.572 1.29401 8.732 1.74401 7.686C1.88401 7.358 2.02501 7.006 2.17101 6.642C2.47301 5.888 2.79501 5.083 3.18101 4.334C3.76301 3.2 4.52801 2.105 5.70001 1.299C6.87701 0.49 8.41801 0 10.5 0C11.963 0 13.011 0.4 13.679 1.058C14.349 1.718 14.572 2.576 14.498 3.36C14.424 4.131 14.057 4.876 13.478 5.325C13.2144 5.53743 12.8984 5.67467 12.5632 5.7222C12.228 5.76972 11.8862 5.72578 11.574 5.595C10.924 6.237 10.667 7.274 10.864 8.209C11.076 9.215 11.784 10 13 10H15.5C15.6326 10 15.7598 10.0527 15.8536 10.1464C15.9473 10.2402 16 10.3674 16 10.5C16 10.6326 15.9473 10.7598 15.8536 10.8536C15.7598 10.9473 15.6326 11 15.5 11H13C11.216 11 10.174 9.785 9.88601 8.415C9.65401 7.315 9.89101 6.042 10.644 5.131L10.5 5.06L9.72301 5.448C9.65361 5.48268 9.5771 5.50073 9.49951 5.50073C9.42193 5.50073 9.34541 5.48268 9.27601 5.448L8.27601 4.948C8.16165 4.88633 8.07578 4.78256 8.0366 4.65868C7.99743 4.53479 8.00801 4.40052 8.06612 4.2843C8.12423 4.16809 8.22529 4.07906 8.34791 4.03607C8.47052 3.99308 8.60506 3.99951 8.72301 4.054L9.50001 4.442L10.276 4.054C10.3454 4.01932 10.4219 4.00127 10.4995 4.00127C10.5771 4.00127 10.6536 4.01932 10.723 4.054L11.723 4.554C11.7346 4.55956 11.7459 4.56556 11.757 4.572C12.197 4.836 12.567 4.767 12.865 4.536C13.193 4.281 13.451 3.807 13.502 3.266C13.552 2.737 13.402 2.19 12.977 1.771C12.551 1.351 11.787 1.001 10.5 1.001C8.58201 1.001 7.24801 1.449 6.26801 2.124C5.28301 2.8 4.61001 3.738 4.07001 4.79C3.70501 5.5 3.41501 6.223 3.12501 6.95C2.97501 7.326 2.82401 7.703 2.66201 8.08Z" fill="black"/>
</g>
<defs>
<clipPath id="clip0_104_3529">
<rect width="16" height="16" fill="white"/>
</clipPath>
</defs>
</svg>
