<svg width="24" height="24" viewBox="0 0 24 24" xmlns="http://www.w3.org/2000/svg" fill='currentColor'><path d="M13.9857 4.01416H15.9857V6.01416H13.9857V4.01416ZM12.9857 7.01416H14.9857V9.01416H12.9857V7.01416ZM10.9857 4.01416H12.9857V6.01416H10.9857V4.01416ZM17.9857 9.01416H15.9857V7.01416H17.9857V9.01416ZM18.9857 6.01416H16.9857V4.01416H18.9857V6.01416ZM20.9857 9.01416H18.9857V7.01416H20.9857V9.01416ZM21.9857 6.01416H19.9857V4.01416H21.9857V6.01416ZM14.6057 14.3942L12.0857 16.9142C9.58567 15.4842 7.51567 13.4142 6.08567 10.9142L8.60567 8.39416C8.84567 8.15416 8.94567 7.81416 8.88567 7.49416L8.14567 3.81416C8.05567 3.35416 7.64567 3.01416 7.16567 3.01416H3.01567C2.45567 3.01416 1.98567 3.48416 2.01567 4.04416C2.18567 6.93416 3.03567 9.64416 4.41567 12.0142C5.99567 14.7442 8.26567 17.0042 10.9857 18.5842C13.3557 19.9542 16.0657 20.8142 18.9557 20.9842C19.5157 21.0142 19.9857 20.5442 19.9857 19.9842V15.8342C19.9857 15.3542 19.6457 14.9442 19.1857 14.8542L15.5157 14.1242C15.1857 14.0542 14.8457 14.1542 14.6057 14.3942ZM13.9857 10.0142H15.9857V12.0142H13.9857V10.0142ZM10.9857 10.0142H12.9857V12.0142H10.9857V10.0142ZM18.9857 12.0142H16.9857V10.0142H18.9857V12.0142ZM21.9857 12.0142H19.9857V10.0142H21.9857V12.0142Z"/></svg>