<svg width="16" height="16" viewBox="0 0 16 16" fill="none" xmlns="http://www.w3.org/2000/svg">
<path d="M2.5 13.5C2.5 13.3674 2.55268 13.2402 2.64645 13.1464C2.74021 13.0527 2.86739 13 3 13H13C13.1326 13 13.2598 13.0527 13.3536 13.1464C13.4473 13.2402 13.5 13.3674 13.5 13.5C13.5 13.6326 13.4473 13.7598 13.3536 13.8536C13.2598 13.9473 13.1326 14 13 14H3C2.86739 14 2.74021 13.9473 2.64645 13.8536C2.55268 13.7598 2.5 13.6326 2.5 13.5ZM2 2H14C14 2 16 2 16 4V10C16 10 16 12 14 12H2C2 12 0 12 0 10V4C0 4 0 2 2 2Z" fill="black"/>
</svg>
