<svg width="16" height="16" viewBox="0 0 16 16" fill="none" xmlns="http://www.w3.org/2000/svg">
<path d="M2.5 13.5C2.5 13.3674 2.55268 13.2402 2.64645 13.1464C2.74021 13.0527 2.86739 13 3 13H13C13.1326 13 13.2598 13.0527 13.3536 13.1464C13.4473 13.2402 13.5 13.3674 13.5 13.5C13.5 13.6326 13.4473 13.7598 13.3536 13.8536C13.2598 13.9473 13.1326 14 13 14H3C2.86739 14 2.74021 13.9473 2.64645 13.8536C2.55268 13.7598 2.5 13.6326 2.5 13.5ZM13.991 3L14.015 3.001C14.2018 3.01372 14.3845 3.06227 14.553 3.144C14.6744 3.20048 14.7786 3.28812 14.855 3.398C14.922 3.498 15 3.675 15 4V9.991L14.999 10.015C14.9862 10.2018 14.9376 10.3845 14.856 10.553C14.7995 10.6743 14.7118 10.7785 14.602 10.855C14.502 10.922 14.325 11 14 11H2.009L1.985 10.999C1.79817 10.9862 1.61554 10.9376 1.447 10.856C1.32567 10.7995 1.22148 10.7118 1.145 10.602C1.078 10.502 1 10.325 1 10V4.009L1.001 3.985C1.01372 3.79815 1.06227 3.6155 1.144 3.447C1.20052 3.32567 1.28816 3.22148 1.398 3.145C1.498 3.078 1.675 3 2 3H13.991ZM14 2H2C0 2 0 4 0 4V10C0 12 2 12 2 12H14C16 12 16 10 16 10V4C16 2 14 2 14 2Z" fill="black"/>
</svg>
