<svg width="16" height="16" viewBox="0 0 16 16" xmlns="http://www.w3.org/2000/svg" fill='currentColor'><path d="M7.638 13V3.66903H6.38V7.62003H1.759V3.67003H0.5V13H1.758V8.72803H6.378V13H7.637H7.638ZM10.66 6.26703V6.21903C10.66 5.33003 11.29 4.55103 12.376 4.55103C13.333 4.55103 14.051 5.15903 14.051 6.12303C14.051 6.97803 13.497 7.62703 12.984 8.20803L9.471 12.207V13H15.5V11.906H11.255V11.831L13.736 8.98703C14.611 7.98903 15.322 7.20303 15.322 6.03403C15.322 4.57103 14.167 3.47803 12.403 3.47803C10.462 3.47803 9.437 4.80403 9.437 6.21803V6.26703H10.66Z"/></svg>