<svg width="16" height="16" viewBox="0 0 16 16" xmlns="http://www.w3.org/2000/svg" fill='currentColor'><path d="M6.333 5.68592C6.333 5.99592 6.416 6.26692 6.603 6.49992H5.166C5.09802 6.25239 5.0647 5.99662 5.067 5.73992C5.067 4.11292 6.503 2.97192 8.547 2.97192C10.516 2.97192 11.937 4.14692 11.992 5.82192H10.762C10.652 4.74192 9.798 4.07892 8.512 4.07892C7.282 4.07892 6.332 4.68092 6.332 5.68592H6.333ZM8.527 13.1639C6.374 13.1639 4.938 12.0569 4.822 10.3539H6.052C6.196 11.4139 7.181 12.0569 8.596 12.0569C9.936 12.0569 10.906 11.3519 10.906 10.3819C10.906 9.55492 10.359 9.00792 8.992 8.70692L8.046 8.49992H1V7.49992H15V8.49992H11.496C11.964 8.93692 12.171 9.49392 12.171 10.1969C12.171 12.0229 10.735 13.1639 8.527 13.1639Z"/></svg>