<svg width="16" height="16" viewBox="0 0 16 16" fill="none" xmlns="http://www.w3.org/2000/svg">
<path d="M8.21002 13C10.316 13 11.622 11.913 11.622 10.177C11.622 8.87099 10.638 7.89399 9.29802 7.79099V7.73599C9.81119 7.65872 10.2798 7.4006 10.6194 7.0082C10.959 6.61579 11.1472 6.11493 11.15 5.59599C11.15 4.08599 9.98802 3.13599 8.13602 3.13599H3.84302V13H8.21002ZM5.90802 4.67399H7.60402C8.56702 4.67399 9.12102 5.12499 9.12102 5.91799C9.12102 6.75199 8.49202 7.23799 7.39102 7.23799H5.90802V4.67299V4.67399ZM5.90802 11.462V8.59799H7.63802C8.85502 8.59799 9.51802 9.08999 9.51802 10.013C9.51802 10.956 8.87502 11.462 7.68602 11.462H5.90702H5.90802Z" fill="black"/>
</svg>
