<svg width="16" height="16" viewBox="0 0 16 16" fill="none" xmlns="http://www.w3.org/2000/svg">
<g clip-path="url(#clip0_104_3558)">
<path d="M2 10H5C5.26522 10 5.51957 10.1054 5.70711 10.2929C5.89464 10.4804 6 10.7348 6 11V14C6 14.2652 5.89464 14.5196 5.70711 14.7071C5.51957 14.8946 5.26522 15 5 15H2C1.73478 15 1.48043 14.8946 1.29289 14.7071C1.10536 14.5196 1 14.2652 1 14V11C1 10.7348 1.10536 10.4804 1.29289 10.2929C1.48043 10.1054 1.73478 10 2 10ZM11 1H14C14.2652 1 14.5196 1.10536 14.7071 1.29289C14.8946 1.48043 15 1.73478 15 2V5C15 5.26522 14.8946 5.51957 14.7071 5.70711C14.5196 5.89464 14.2652 6 14 6H11C10.7348 6 10.4804 5.89464 10.2929 5.70711C10.1054 5.51957 10 5.26522 10 5V2C10 1.73478 10.1054 1.48043 10.2929 1.29289C10.4804 1.10536 10.7348 1 11 1ZM11 10C10.7348 10 10.4804 10.1054 10.2929 10.2929C10.1054 10.4804 10 10.7348 10 11V14C10 14.2652 10.1054 14.5196 10.2929 14.7071C10.4804 14.8946 10.7348 15 11 15H14C14.2652 15 14.5196 14.8946 14.7071 14.7071C14.8946 14.5196 15 14.2652 15 14V11C15 10.7348 14.8946 10.4804 14.7071 10.2929C14.5196 10.1054 14.2652 10 14 10H11ZM11 0C10.4696 0 9.96086 0.210714 9.58579 0.585786C9.21071 0.960859 9 1.46957 9 2V5C9 5.53043 9.21071 6.03914 9.58579 6.41421C9.96086 6.78929 10.4696 7 11 7H14C14.5304 7 15.0391 6.78929 15.4142 6.41421C15.7893 6.03914 16 5.53043 16 5V2C16 1.46957 15.7893 0.960859 15.4142 0.585786C15.0391 0.210714 14.5304 0 14 0L11 0ZM2 9C1.46957 9 0.960859 9.21071 0.585786 9.58579C0.210714 9.96086 0 10.4696 0 11L0 14C0 14.5304 0.210714 15.0391 0.585786 15.4142C0.960859 15.7893 1.46957 16 2 16H5C5.53043 16 6.03914 15.7893 6.41421 15.4142C6.78929 15.0391 7 14.5304 7 14V11C7 10.4696 6.78929 9.96086 6.41421 9.58579C6.03914 9.21071 5.53043 9 5 9H2ZM9 11C9 10.4696 9.21071 9.96086 9.58579 9.58579C9.96086 9.21071 10.4696 9 11 9H14C14.5304 9 15.0391 9.21071 15.4142 9.58579C15.7893 9.96086 16 10.4696 16 11V14C16 14.5304 15.7893 15.0391 15.4142 15.4142C15.0391 15.7893 14.5304 16 14 16H11C10.4696 16 9.96086 15.7893 9.58579 15.4142C9.21071 15.0391 9 14.5304 9 14V11ZM0 2C0 1.46957 0.210714 0.960859 0.585786 0.585786C0.960859 0.210714 1.46957 0 2 0L5 0C5.53043 0 6.03914 0.210714 6.41421 0.585786C6.78929 0.960859 7 1.46957 7 2V5C7 5.53043 6.78929 6.03914 6.41421 6.41421C6.03914 6.78929 5.53043 7 5 7H2C1.46957 7 0.960859 6.78929 0.585786 6.41421C0.210714 6.03914 0 5.53043 0 5V2ZM5.354 2.854C5.40049 2.80751 5.43736 2.75232 5.46252 2.69158C5.48768 2.63084 5.50063 2.56574 5.50063 2.5C5.50063 2.43426 5.48768 2.36916 5.46252 2.30842C5.43736 2.24768 5.40049 2.19249 5.354 2.146C5.30751 2.09951 5.25232 2.06264 5.19158 2.03748C5.13084 2.01232 5.06574 1.99937 5 1.99937C4.93426 1.99937 4.86916 2.01232 4.80842 2.03748C4.74768 2.06264 4.69249 2.09951 4.646 2.146L3 3.793L2.354 3.146C2.30751 3.09951 2.25232 3.06264 2.19158 3.03748C2.13084 3.01232 2.06574 2.99937 2 2.99937C1.93426 2.99937 1.86916 3.01232 1.80842 3.03748C1.74768 3.06264 1.69249 3.09951 1.646 3.146C1.59951 3.19249 1.56264 3.24768 1.53748 3.30842C1.51232 3.36916 1.49937 3.43426 1.49937 3.5C1.49937 3.56574 1.51232 3.63084 1.53748 3.69158C1.56264 3.75232 1.59951 3.80751 1.646 3.854L2.646 4.854C2.69245 4.90056 2.74762 4.93751 2.80837 4.96271C2.86911 4.98792 2.93423 5.00089 3 5.00089C3.06577 5.00089 3.13089 4.98792 3.19163 4.96271C3.25238 4.93751 3.30755 4.90056 3.354 4.854L5.354 2.854Z" fill="black"/>
</g>
<defs>
<clipPath id="clip0_104_3558">
<rect width="16" height="16" fill="white"/>
</clipPath>
</defs>
</svg>
