<svg width="16" height="16" viewBox="0 0 16 16" xmlns="http://www.w3.org/2000/svg" fill='currentColor'><g clip-path="url(#clip0_104_3556)"><path d="M7 2.5C7 2.36739 7.05268 2.24021 7.14645 2.14645C7.24021 2.05268 7.36739 2 7.5 2H14.5C14.6326 2 14.7598 2.05268 14.8536 2.14645C14.9473 2.24021 15 2.36739 15 2.5V3.5C15 3.63261 14.9473 3.75979 14.8536 3.85355C14.7598 3.94732 14.6326 4 14.5 4H7.5C7.36739 4 7.24021 3.94732 7.14645 3.85355C7.05268 3.75979 7 3.63261 7 3.5V2.5ZM2 1C1.46957 1 0.960859 1.21071 0.585786 1.58579C0.210714 1.96086 0 2.46957 0 3L0 5C0 5.53043 0.210714 6.03914 0.585786 6.41421C0.960859 6.78929 1.46957 7 2 7H4C4.53043 7 5.03914 6.78929 5.41421 6.41421C5.78929 6.03914 6 5.53043 6 5V3C6 2.46957 5.78929 1.96086 5.41421 1.58579C5.03914 1.21071 4.53043 1 4 1H2ZM2 9C1.46957 9 0.960859 9.21071 0.585786 9.58579C0.210714 9.96086 0 10.4696 0 11L0 13C0 13.5304 0.210714 14.0391 0.585786 14.4142C0.960859 14.7893 1.46957 15 2 15H4C4.53043 15 5.03914 14.7893 5.41421 14.4142C5.78929 14.0391 6 13.5304 6 13V11C6 10.4696 5.78929 9.96086 5.41421 9.58579C5.03914 9.21071 4.53043 9 4 9H2ZM2.854 5.354C2.80755 5.40056 2.75238 5.43751 2.69163 5.46271C2.63089 5.48792 2.56577 5.50089 2.5 5.50089C2.43423 5.50089 2.36911 5.48792 2.30837 5.46271C2.24762 5.43751 2.19245 5.40056 2.146 5.354L1.146 4.354C1.09951 4.30751 1.06264 4.25232 1.03748 4.19158C1.01232 4.13084 0.999368 4.06574 0.999368 4C0.999368 3.93426 1.01232 3.86916 1.03748 3.80842C1.06264 3.74768 1.09951 3.69249 1.146 3.646C1.19249 3.59951 1.24768 3.56264 1.30842 3.53748C1.36916 3.51232 1.43426 3.49937 1.5 3.49937C1.56574 3.49937 1.63084 3.51232 1.69158 3.53748C1.75232 3.56264 1.80751 3.59951 1.854 3.646L2.5 4.293L4.146 2.646C4.19249 2.59951 4.24768 2.56264 4.30842 2.53748C4.36916 2.51232 4.43426 2.49937 4.5 2.49937C4.56574 2.49937 4.63084 2.51232 4.69158 2.53748C4.75232 2.56264 4.80751 2.59951 4.854 2.646C4.90049 2.69249 4.93736 2.74768 4.96252 2.80842C4.98768 2.86916 5.00063 2.93426 5.00063 3C5.00063 3.06574 4.98768 3.13084 4.96252 3.19158C4.93736 3.25232 4.90049 3.30751 4.854 3.354L2.854 5.354ZM2.854 13.354C2.80755 13.4006 2.75238 13.4375 2.69163 13.4627C2.63089 13.4879 2.56577 13.5009 2.5 13.5009C2.43423 13.5009 2.36911 13.4879 2.30837 13.4627C2.24762 13.4375 2.19245 13.4006 2.146 13.354L1.146 12.354C1.05211 12.2601 0.999368 12.1328 0.999368 12C0.999368 11.8672 1.05211 11.7399 1.146 11.646C1.23989 11.5521 1.36722 11.4994 1.5 11.4994C1.63278 11.4994 1.76011 11.5521 1.854 11.646L2.5 12.293L4.146 10.646C4.23989 10.5521 4.36722 10.4994 4.5 10.4994C4.63278 10.4994 4.76011 10.5521 4.854 10.646C4.94789 10.7399 5.00063 10.8672 5.00063 11C5.00063 11.1328 4.94789 11.2601 4.854 11.354L2.854 13.354ZM7 10.5C7 10.3674 7.05268 10.2402 7.14645 10.1464C7.24021 10.0527 7.36739 10 7.5 10H14.5C14.6326 10 14.7598 10.0527 14.8536 10.1464C14.9473 10.2402 15 10.3674 15 10.5V11.5C15 11.6326 14.9473 11.7598 14.8536 11.8536C14.7598 11.9473 14.6326 12 14.5 12H7.5C7.36739 12 7.24021 11.9473 7.14645 11.8536C7.05268 11.7598 7 11.6326 7 11.5V10.5ZM7 5.5C7 5.36739 7.05268 5.24021 7.14645 5.14645C7.24021 5.05268 7.36739 5 7.5 5H12.5C12.6326 5 12.7598 5.05268 12.8536 5.14645C12.9473 5.24021 13 5.36739 13 5.5C13 5.63261 12.9473 5.75979 12.8536 5.85355C12.7598 5.94732 12.6326 6 12.5 6H7.5C7.36739 6 7.24021 5.94732 7.14645 5.85355C7.05268 5.75979 7 5.63261 7 5.5ZM7 13.5C7 13.3674 7.05268 13.2402 7.14645 13.1464C7.24021 13.0527 7.36739 13 7.5 13H12.5C12.6326 13 12.7598 13.0527 12.8536 13.1464C12.9473 13.2402 13 13.3674 13 13.5C13 13.6326 12.9473 13.7598 12.8536 13.8536C12.7598 13.9473 12.6326 14 12.5 14H7.5C7.36739 14 7.24021 13.9473 7.14645 13.8536C7.05268 13.7598 7 13.6326 7 13.5Z"/></g><defs><clipPath id="clip0_104_3556"><rect width="16" height="16"/></clipPath></defs></svg>