<svg width="16" height="16" viewBox="0 0 16 16" xmlns="http://www.w3.org/2000/svg" fill='currentColor'><g clip-path="url(#clip0_104_3560)"><path d="M7 2.5C7 2.36739 7.05268 2.24021 7.14645 2.14645C7.24021 2.05268 7.36739 2 7.5 2H14.5C14.6326 2 14.7598 2.05268 14.8536 2.14645C14.9473 2.24021 15 2.36739 15 2.5V3.5C15 3.63261 14.9473 3.75979 14.8536 3.85355C14.7598 3.94732 14.6326 4 14.5 4H7.5C7.36739 4 7.24021 3.94732 7.14645 3.85355C7.05268 3.75979 7 3.63261 7 3.5V2.5ZM4.47035e-08 12C4.47035e-08 11.2044 0.316071 10.4413 0.87868 9.87868C1.44129 9.31607 2.20435 9 3 9C3.79565 9 4.55871 9.31607 5.12132 9.87868C5.68393 10.4413 6 11.2044 6 12C6 12.7956 5.68393 13.5587 5.12132 14.1213C4.55871 14.6839 3.79565 15 3 15C2.20435 15 1.44129 14.6839 0.87868 14.1213C0.316071 13.5587 4.47035e-08 12.7956 4.47035e-08 12ZM7 10.5C7 10.3674 7.05268 10.2402 7.14645 10.1464C7.24021 10.0527 7.36739 10 7.5 10H14.5C14.6326 10 14.7598 10.0527 14.8536 10.1464C14.9473 10.2402 15 10.3674 15 10.5V11.5C15 11.6326 14.9473 11.7598 14.8536 11.8536C14.7598 11.9473 14.6326 12 14.5 12H7.5C7.36739 12 7.24021 11.9473 7.14645 11.8536C7.05268 11.7598 7 11.6326 7 11.5V10.5ZM7 5.5C7 5.36739 7.05268 5.24021 7.14645 5.14645C7.24021 5.05268 7.36739 5 7.5 5H12.5C12.6326 5 12.7598 5.05268 12.8536 5.14645C12.9473 5.24021 13 5.36739 13 5.5C13 5.63261 12.9473 5.75979 12.8536 5.85355C12.7598 5.94732 12.6326 6 12.5 6H7.5C7.36739 6 7.24021 5.94732 7.14645 5.85355C7.05268 5.75979 7 5.63261 7 5.5ZM7 13.5C7 13.3674 7.05268 13.2402 7.14645 13.1464C7.24021 13.0527 7.36739 13 7.5 13H12.5C12.6326 13 12.7598 13.0527 12.8536 13.1464C12.9473 13.2402 13 13.3674 13 13.5C13 13.6326 12.9473 13.7598 12.8536 13.8536C12.7598 13.9473 12.6326 14 12.5 14H7.5C7.36739 14 7.24021 13.9473 7.14645 13.8536C7.05268 13.7598 7 13.6326 7 13.5ZM3 1C2.60603 1 2.21593 1.0776 1.85195 1.22836C1.48797 1.37913 1.15726 1.6001 0.87868 1.87868C0.600104 2.15726 0.379126 2.48797 0.228361 2.85195C0.0775973 3.21593 0 3.60603 0 4C0 4.39397 0.0775973 4.78407 0.228361 5.14805C0.379126 5.51203 0.600104 5.84274 0.87868 6.12132C1.15726 6.3999 1.48797 6.62087 1.85195 6.77164C2.21593 6.9224 2.60603 7 3 7C3.79565 7 4.55871 6.68393 5.12132 6.12132C5.68393 5.55871 6 4.79565 6 4C6 3.20435 5.68393 2.44129 5.12132 1.87868C4.55871 1.31607 3.79565 1 3 1ZM3 5.5C2.60218 5.5 2.22064 5.34196 1.93934 5.06066C1.65804 4.77936 1.5 4.39782 1.5 4C1.5 3.60218 1.65804 3.22064 1.93934 2.93934C2.22064 2.65804 2.60218 2.5 3 2.5C3.39782 2.5 3.77936 2.65804 4.06066 2.93934C4.34196 3.22064 4.5 3.60218 4.5 4C4.5 4.39782 4.34196 4.77936 4.06066 5.06066C3.77936 5.34196 3.39782 5.5 3 5.5Z"/></g><defs><clipPath id="clip0_104_3560"><rect width="16" height="16"/></clipPath></defs></svg>