<svg width="16" height="16" viewBox="0 0 16 16" fill="none" xmlns="http://www.w3.org/2000/svg">
<g clip-path="url(#clip0_104_3566)">
<path fill-rule="evenodd" clip-rule="evenodd" d="M8 0C8.13261 0 8.25979 0.0526784 8.35355 0.146447C8.44732 0.240215 8.5 0.367392 8.5 0.5V1.014C12.625 1.238 16 4.22 16 8C16 8 16 8.5 15.5 8.5C15.351 8.5 15.148 8.355 15.148 8.355L15.144 8.351L15.119 8.328C14.9473 8.17887 14.7614 8.0469 14.564 7.934C14.0892 7.65589 13.5502 7.5063 13 7.5C12.362 7.5 11.822 7.713 11.436 7.934C11.2386 8.0469 11.0527 8.17887 10.881 8.328L10.856 8.351L10.853 8.354C10.853 8.354 10.649 8.5 10.5 8.5C10.351 8.5 10.148 8.355 10.148 8.355L10.144 8.351L10.119 8.328C9.9473 8.17887 9.76142 8.0469 9.564 7.934C9.23448 7.74362 8.8745 7.61168 8.5 7.544V13.5H8H8.5V13.539L8.495 13.622C8.46816 14.0052 8.36695 14.3795 8.197 14.724C8.02404 15.079 7.76094 15.3825 7.434 15.604C7.06 15.851 6.587 16 6 16C5.413 16 4.939 15.852 4.566 15.604C4.23899 15.3825 3.97588 15.0791 3.803 14.724C3.62089 14.3543 3.51803 13.9507 3.501 13.539V13.514L3.5 13.505V13.502C3.5 13.502 3.5 13.5 4 13.5H3.5V13C3.5 12.8674 3.55268 12.7402 3.64645 12.6464C3.74021 12.5527 3.86739 12.5 4 12.5C4.13261 12.5 4.25979 12.5527 4.35355 12.6464C4.44732 12.7402 4.5 12.8674 4.5 13V13.506L4.503 13.55C4.5205 13.8023 4.58672 14.0489 4.698 14.276C4.793 14.467 4.928 14.643 5.121 14.771C5.311 14.898 5.587 15 6 15C6.413 15 6.689 14.898 6.879 14.771C7.072 14.643 7.207 14.467 7.303 14.276C7.42062 14.0355 7.48767 13.7734 7.5 13.506V7.544C7.1255 7.61168 6.76553 7.74362 6.436 7.934C6.22888 8.05275 6.03453 8.19248 5.856 8.351L5.852 8.355C5.852 8.355 5.65 8.5 5.5 8.5C5.351 8.5 5.148 8.355 5.148 8.355L5.144 8.351C4.96547 8.19248 4.77112 8.05275 4.564 7.934C4.08924 7.65589 3.55019 7.5063 3 7.5C2.362 7.5 1.823 7.713 1.436 7.934C1.22888 8.05275 1.03453 8.19248 0.856 8.351L0.852 8.355C0.852 8.355 0.65 8.5 0.5 8.5C0 8.5 0 8 0 8C0 4.22 3.375 1.238 7.5 1.014V0.5C7.5 0.367392 7.55268 0.240215 7.64645 0.146447C7.74021 0.0526784 7.86739 0 8 0V0Z" fill="black"/>
</g>
<defs>
<clipPath id="clip0_104_3566">
<rect width="16" height="16" fill="white"/>
</clipPath>
</defs>
</svg>
