<svg width="16" height="16" viewBox="0 0 16 16" fill="none" xmlns="http://www.w3.org/2000/svg">
<g clip-path="url(#clip0_104_3572)">
<path d="M11 1C10.4696 1 9.96086 1.21071 9.58579 1.58579C9.21071 1.96086 9 2.46957 9 3V7C9.53043 7 10.0391 7.21071 10.4142 7.58579C10.7893 7.96086 11 8.46957 11 9V14C11 14.5304 10.7893 15.0391 10.4142 15.4142C10.0391 15.7893 9.53043 16 9 16H3C2.46957 16 1.96086 15.7893 1.58579 15.4142C1.21071 15.0391 1 14.5304 1 14V9C1 8.46957 1.21071 7.96086 1.58579 7.58579C1.96086 7.21071 2.46957 7 3 7H8V3C8 2.20435 8.31607 1.44129 8.87868 0.87868C9.44129 0.31607 10.2044 0 11 0C11.7956 0 12.5587 0.31607 13.1213 0.87868C13.6839 1.44129 14 2.20435 14 3V7C14 7.13261 13.9473 7.25979 13.8536 7.35355C13.7598 7.44732 13.6326 7.5 13.5 7.5C13.3674 7.5 13.2402 7.44732 13.1464 7.35355C13.0527 7.25979 13 7.13261 13 7V3C13 2.46957 12.7893 1.96086 12.4142 1.58579C12.0391 1.21071 11.5304 1 11 1Z" fill="black"/>
</g>
<defs>
<clipPath id="clip0_104_3572">
<rect width="16" height="16" fill="white"/>
</clipPath>
</defs>
</svg>
