<svg width="24" height="24" viewBox="0 0 24 24" xmlns="http://www.w3.org/2000/svg" fill='currentColor'><path d="M18 13.5C16.07 13.5 14.5 15.07 14.5 17C14.5 18.93 16.07 20.5 18 20.5C19.93 20.5 21.5 18.93 21.5 17C21.5 15.07 19.93 13.5 18 13.5ZM20 17.5H16V16.5H20V17.5ZM13.05 17.5C13.03 17.33 13 17.17 13 17C13 14.24 15.24 12 18 12C18.92 12 19.76 12.26 20.5 12.69V5.5C20.5 4.4 19.6 3.5 18.5 3.5H4.5C3.4 3.5 2.5 4.4 2.5 5.5V15.5C2.5 16.6 3.4 17.5 4.5 17.5H13.05ZM11.5 11L4.5 7.5V5.5L11.5 9L18.5 5.5V7.5L11.5 11Z"/></svg>