<svg width="24" height="24" viewBox="0 0 24 24" xmlns="http://www.w3.org/2000/svg" fill='currentColor'><path d="M20.9994 10.12H14.2194L16.9594 7.3C14.2294 4.6 9.80939 4.5 7.07939 7.2C4.34939 9.91 4.34939 14.28 7.07939 16.99C9.80939 19.7 14.2294 19.7 16.9594 16.99C18.3194 15.65 18.9994 14.08 18.9994 12.1H20.9994C20.9994 14.08 20.1194 16.65 18.3594 18.39C14.8494 21.87 9.14939 21.87 5.63939 18.39C2.13939 14.92 2.10939 9.28 5.61939 5.81C9.12939 2.34 14.7594 2.34 18.2694 5.81L20.9994 3V10.12ZM12.4994 8V12.25L15.9994 14.33L15.2794 15.54L10.9994 13V8H12.4994Z"/></svg>