<svg width="24" height="24" viewBox="0 0 24 24" xmlns="http://www.w3.org/2000/svg" fill='currentColor'><path d="M15.1 7.3999V11.3999H16.1V13.3999H13.1V5.3999H15.1L12.1 1.3999L9.09999 5.3999H11.1V13.3999H8.09999V11.3299C8.79999 10.9599 9.29999 10.2499 9.29999 9.3999C9.29999 8.1899 8.30999 7.1999 7.09999 7.1999C5.88999 7.1999 4.89999 8.1899 4.89999 9.3999C4.89999 10.2499 5.39999 10.9599 6.09999 11.3299V13.3999C6.09999 14.5099 6.98999 15.3999 8.09999 15.3999H11.1V18.4499C10.39 18.8199 9.89999 19.5499 9.89999 20.3999C9.89999 21.6199 10.89 22.5999 12.1 22.5999C13.31 22.5999 14.3 21.6199 14.3 20.3999C14.3 19.5499 13.81 18.8199 13.1 18.4499V15.3999H16.1C17.21 15.3999 18.1 14.5099 18.1 13.3999V11.3999H19.1V7.3999H15.1Z"/></svg>