<svg width="16" height="16" viewBox="0 0 16 16" xmlns="http://www.w3.org/2000/svg" fill='currentColor'><path fill-rule="evenodd" clip-rule="evenodd" d="M10.646 0.645917C10.6924 0.599354 10.7476 0.562411 10.8084 0.537205C10.8691 0.511998 10.9342 0.499023 11 0.499023C11.0658 0.499023 11.1309 0.511998 11.1916 0.537205C11.2524 0.562411 11.3076 0.599354 11.354 0.645917L15.354 4.64592C15.4006 4.69236 15.4375 4.74754 15.4627 4.80828C15.4879 4.86903 15.5009 4.93415 15.5009 4.99992C15.5009 5.06568 15.4879 5.13081 15.4627 5.19155C15.4375 5.2523 15.4006 5.30747 15.354 5.35392L13.452 7.25592L12.623 10.5689C12.56 10.8212 12.4324 11.0527 12.2529 11.2408C12.0734 11.4289 11.848 11.5672 11.599 11.6419L1.254 14.7459L4.358 4.39992C4.43282 4.15118 4.57094 3.92613 4.75886 3.7468C4.94677 3.56748 5.17803 3.44002 5.43 3.37692L8.743 2.54892L10.646 0.645917ZM8.846 3.55392L5.673 4.34692C5.58877 4.36794 5.51147 4.41053 5.4487 4.4705C5.38592 4.53046 5.33985 4.60574 5.315 4.68892L2.745 13.2539L11.312 10.6839C11.3947 10.6589 11.4695 10.6128 11.5291 10.5502C11.5886 10.4877 11.631 10.4107 11.652 10.3269L12.446 7.15292L8.846 3.55292V3.55392Z"/><path fill-rule="evenodd" clip-rule="evenodd" d="M2.832 13.228L8 9C8.19778 9 8.39112 8.94135 8.55557 8.83147C8.72002 8.72159 8.84819 8.56541 8.92388 8.38268C8.99957 8.19996 9.01937 7.99889 8.98079 7.80491C8.9422 7.61093 8.84696 7.43275 8.70711 7.29289C8.56726 7.15304 8.38907 7.0578 8.19509 7.01922C8.00111 6.98063 7.80005 7.00043 7.61732 7.07612C7.43459 7.15181 7.27841 7.27998 7.16853 7.44443C7.05865 7.60888 7 7.80222 7 8L2.772 13.168L2.746 13.254L2.832 13.228Z"/></svg>