<svg width="16" height="16" viewBox="0 0 16 16" fill="none" xmlns="http://www.w3.org/2000/svg">
<path d="M3 4.5H13C13.5304 4.5 14.0391 4.71071 14.4142 5.08579C14.7893 5.46086 15 5.96957 15 6.5V9.5C15 10.0304 14.7893 10.5391 14.4142 10.9142C14.0391 11.2893 13.5304 11.5 13 11.5H3C2.46957 11.5 1.96086 11.2893 1.58579 10.9142C1.21071 10.5391 1 10.0304 1 9.5V6.5C1 5.96957 1.21071 5.46086 1.58579 5.08579C1.96086 4.71071 2.46957 4.5 3 4.5ZM3 5.5C2.73478 5.5 2.48043 5.60536 2.29289 5.79289C2.10536 5.98043 2 6.23478 2 6.5V9.5C2 9.76522 2.10536 10.0196 2.29289 10.2071C2.48043 10.3946 2.73478 10.5 3 10.5H13C13.2652 10.5 13.5196 10.3946 13.7071 10.2071C13.8946 10.0196 14 9.76522 14 9.5V6.5C14 6.23478 13.8946 5.98043 13.7071 5.79289C13.5196 5.60536 13.2652 5.5 13 5.5H3ZM1 2C1 1.86739 1.05268 1.74021 1.14645 1.64645C1.24021 1.55268 1.36739 1.5 1.5 1.5H14.5C14.6326 1.5 14.7598 1.55268 14.8536 1.64645C14.9473 1.74021 15 1.86739 15 2C15 2.13261 14.9473 2.25979 14.8536 2.35355C14.7598 2.44732 14.6326 2.5 14.5 2.5H1.5C1.36739 2.5 1.24021 2.44732 1.14645 2.35355C1.05268 2.25979 1 2.13261 1 2ZM1 14C1 13.8674 1.05268 13.7402 1.14645 13.6464C1.24021 13.5527 1.36739 13.5 1.5 13.5H14.5C14.6326 13.5 14.7598 13.5527 14.8536 13.6464C14.9473 13.7402 15 13.8674 15 14C15 14.1326 14.9473 14.2598 14.8536 14.3536C14.7598 14.4473 14.6326 14.5 14.5 14.5H1.5C1.36739 14.5 1.24021 14.4473 1.14645 14.3536C1.05268 14.2598 1 14.1326 1 14Z" fill="black"/>
</svg>
