<svg width="16" height="16" viewBox="0 0 16 16" fill="none" xmlns="http://www.w3.org/2000/svg">
<path d="M15.992 4.20395C15.921 5.75995 14.834 7.89095 12.73 10.5969C10.555 13.4259 8.714 14.8399 7.208 14.8399C6.275 14.8399 5.486 13.9789 4.841 12.2569L3.55 7.52295C3.07 5.79995 2.556 4.93995 2.007 4.93995C1.889 4.93995 1.47 5.19295 0.753 5.69395L0 4.72395C0.783165 4.03609 1.56119 3.34241 2.334 2.64295C3.388 1.73295 4.179 1.25495 4.707 1.20595C5.95 1.08295 6.717 1.93395 7.005 3.75895C7.315 5.72695 7.531 6.94895 7.651 7.42495C8.011 9.05595 8.407 9.87095 8.837 9.86995C9.171 9.86995 9.673 9.33995 10.345 8.28295C11.016 7.22495 11.375 6.41995 11.422 5.86795C11.518 4.95495 11.159 4.49795 10.345 4.49795C9.93642 4.50394 9.53329 4.59273 9.16 4.75895C9.949 2.18595 11.451 0.933947 13.668 1.00295C15.312 1.05295 16.087 2.11995 15.992 4.20295V4.20395Z" fill="black"/>
</svg>
