<svg width="16" height="16" viewBox="0 0 16 16" xmlns="http://www.w3.org/2000/svg" fill='currentColor'><g clip-path="url(#clip0_104_3590)"><path d="M8 15C6.14348 15 4.36301 14.2625 3.05025 12.9497C1.7375 11.637 1 9.85652 1 8C1 6.14348 1.7375 4.36301 3.05025 3.05025C4.36301 1.7375 6.14348 1 8 1C9.85652 1 11.637 1.7375 12.9497 3.05025C14.2625 4.36301 15 6.14348 15 8C15 9.85652 14.2625 11.637 12.9497 12.9497C11.637 14.2625 9.85652 15 8 15ZM8 16C10.1217 16 12.1566 15.1571 13.6569 13.6569C15.1571 12.1566 16 10.1217 16 8C16 5.87827 15.1571 3.84344 13.6569 2.34315C12.1566 0.842855 10.1217 0 8 0C5.87827 0 3.84344 0.842855 2.34315 2.34315C0.842855 3.84344 0 5.87827 0 8C0 10.1217 0.842855 12.1566 2.34315 13.6569C3.84344 15.1571 5.87827 16 8 16Z"/><path d="M8 6C7.46957 6 6.96086 6.21071 6.58579 6.58579C6.21071 6.96086 6 7.46957 6 8C6 8.53043 6.21071 9.03914 6.58579 9.41421C6.96086 9.78929 7.46957 10 8 10C8.53043 10 9.03914 9.78929 9.41421 9.41421C9.78929 9.03914 10 8.53043 10 8C10 7.46957 9.78929 6.96086 9.41421 6.58579C9.03914 6.21071 8.53043 6 8 6ZM4 8C4 6.93913 4.42143 5.92172 5.17157 5.17157C5.92172 4.42143 6.93913 4 8 4C9.06087 4 10.0783 4.42143 10.8284 5.17157C11.5786 5.92172 12 6.93913 12 8C12 9.06087 11.5786 10.0783 10.8284 10.8284C10.0783 11.5786 9.06087 12 8 12C6.93913 12 5.92172 11.5786 5.17157 10.8284C4.42143 10.0783 4 9.06087 4 8Z"/><path d="M9 8C9 8.26522 8.89464 8.51957 8.70711 8.70711C8.51957 8.89464 8.26522 9 8 9C7.73478 9 7.48043 8.89464 7.29289 8.70711C7.10536 8.51957 7 8.26522 7 8C7 7.73478 7.10536 7.48043 7.29289 7.29289C7.48043 7.10536 7.73478 7 8 7C8.26522 7 8.51957 7.10536 8.70711 7.29289C8.89464 7.48043 9 7.73478 9 8Z"/></g><defs><clipPath id="clip0_104_3590"><rect width="16" height="16"/></clipPath></defs></svg>