<svg width="16" height="16" viewBox="0 0 16 16" xmlns="http://www.w3.org/2000/svg" fill='currentColor'><g clip-path="url(#clip0_104_3597)"><path d="M7 8.5C7.00063 8.96569 6.90805 9.42679 6.72772 9.85614C6.54739 10.2855 6.28296 10.6744 5.95 11H10.05C9.47053 10.4322 9.10629 9.68082 9.01955 8.87421C8.93282 8.06761 9.12897 7.25592 9.57448 6.57794C10.02 5.89996 10.6872 5.3978 11.462 5.15732C12.2368 4.91683 13.071 4.95296 13.8221 5.25953C14.5732 5.56611 15.1945 6.12407 15.5797 6.83803C15.965 7.55199 16.0902 8.3776 15.934 9.17368C15.7779 9.96977 15.35 10.6869 14.7237 11.2024C14.0973 11.718 13.3113 11.9999 12.5 12H3.5C2.80777 12 2.13108 11.7947 1.55551 11.4101C0.979934 11.0256 0.53133 10.4789 0.266423 9.83939C0.00151652 9.19985 -0.0677952 8.49612 0.0672531 7.81719C0.202301 7.13825 0.535644 6.51461 1.02513 6.02513C1.51461 5.53564 2.13825 5.2023 2.81719 5.06725C3.49612 4.9322 4.19985 5.00152 4.83939 5.26642C5.47894 5.53133 6.02556 5.97993 6.41015 6.55551C6.79473 7.13108 7 7.80777 7 8.5ZM1 8.5C1 9.16304 1.26339 9.79893 1.73223 10.2678C2.20108 10.7366 2.83696 11 3.5 11C4.16304 11 4.79893 10.7366 5.26777 10.2678C5.73661 9.79893 6 9.16304 6 8.5C6 7.83696 5.73661 7.20108 5.26777 6.73223C4.79893 6.26339 4.16304 6 3.5 6C2.83696 6 2.20108 6.26339 1.73223 6.73223C1.26339 7.20108 1 7.83696 1 8.5ZM15 8.5C15 7.83696 14.7366 7.20108 14.2678 6.73223C13.7989 6.26339 13.163 6 12.5 6C11.837 6 11.2011 6.26339 10.7322 6.73223C10.2634 7.20108 10 7.83696 10 8.5C10 9.16304 10.2634 9.79893 10.7322 10.2678C11.2011 10.7366 11.837 11 12.5 11C13.163 11 13.7989 10.7366 14.2678 10.2678C14.7366 9.79893 15 9.16304 15 8.5Z"/></g><defs><clipPath id="clip0_104_3597"><rect width="16" height="16"/></clipPath></defs></svg>