<svg xmlns="http://www.w3.org/2000/svg" width="24" height="24" viewBox="0 0 24 24" fill='currentColor'><path d="M12.99 9.68c0-.06.01-.12.01-.18 0-2.21-1.79-4-4-4-.06 0-.12.01-.18.01zM4.27 3.5 3 4.77l2.62 2.62C5.23 8 5 8.72 5 9.5c0 2.21 1.79 4 4 4 .78 0 1.5-.23 2.11-.62l8.62 8.62L21 20.23zM9 15.5c-2.67 0-8 1.34-8 4v2h16v-2c0-2.66-5.33-4-8-4m7.76-9.64-1.68 1.69c.84 1.18.84 2.71 0 3.89l1.68 1.69c2.02-2.02 2.02-5.07 0-7.27m3.31-3.36-1.63 1.63c2.77 3.02 2.77 7.56 0 10.74l1.63 1.63c3.9-3.89 3.91-9.95 0-14"/></svg>