<svg width="24" height="24" viewBox="0 0 24 24" xmlns="http://www.w3.org/2000/svg" fill='currentColor'><path d="M5.495 11H1.495V22H5.495V11Z"/><path d="M16.495 3.25C17.145 2.49 18.155 2 19.195 2C21.045 2 22.495 3.45 22.495 5.3C22.495 7.57 19.585 10.2 16.495 13C13.405 10.19 10.495 7.56 10.495 5.3C10.495 3.45 11.945 2 13.795 2C14.835 2 15.845 2.49 16.495 3.25Z"/><path d="M20.495 17H13.495L11.405 16.27L11.735 15.33L13.495 16H16.315C16.965 16 17.495 15.47 17.495 14.82C17.495 14.33 17.185 13.89 16.725 13.71L9.465 11H7.495V20.02L14.495 22L22.505 19C22.495 17.9 21.605 17 20.495 17Z"/></svg>