<svg width="16" height="16" viewBox="0 0 16 16" xmlns="http://www.w3.org/2000/svg" fill='currentColor'><path d="M10.717 3.54994C10.8017 3.59074 10.8732 3.65461 10.9233 3.73421C10.9733 3.81381 10.9999 3.90591 11 3.99994V11.9999C10.9999 12.094 10.9732 12.1862 10.923 12.2658C10.8729 12.3454 10.8013 12.4092 10.7165 12.4499C10.6317 12.4907 10.5371 12.5066 10.4436 12.496C10.3501 12.4854 10.2615 12.4486 10.188 12.3899L7.825 10.4999H5.5C5.36739 10.4999 5.24021 10.4473 5.14645 10.3535C5.05268 10.2597 5 10.1325 5 9.99994V5.99994C5 5.86733 5.05268 5.74015 5.14645 5.64638C5.24021 5.55261 5.36739 5.49994 5.5 5.49994H7.825L10.188 3.60994C10.2616 3.55112 10.3503 3.51429 10.4439 3.50367C10.5374 3.49306 10.6321 3.5091 10.717 3.54994Z"/></svg>