<svg width="16" height="16" viewBox="0 0 16 16" fill="none" xmlns="http://www.w3.org/2000/svg">
<path d="M11.536 14.01C12.3265 13.2217 12.9535 12.2849 13.3808 11.2535C13.8081 10.2221 14.0274 9.11641 14.026 7.99999C14.0274 6.88358 13.8081 5.7779 13.3808 4.7465C12.9535 3.7151 12.3265 2.77832 11.536 1.98999L10.828 2.69699C11.5255 3.39258 12.0787 4.21916 12.4557 5.12923C12.8328 6.0393 13.0262 7.01491 13.025 7.99999C13.025 10.071 12.185 11.946 10.828 13.303L11.536 14.01Z" fill="black"/>
<path d="M10.121 12.5961C10.7255 11.9932 11.2049 11.2768 11.5316 10.488C11.8584 9.69931 12.026 8.85379 12.025 8.00005C12.026 7.14632 11.8584 6.30079 11.5316 5.51206C11.2049 4.72333 10.7255 4.00694 10.121 3.40405L9.414 4.11105C9.92548 4.6212 10.3311 5.22739 10.6076 5.89479C10.884 6.5622 11.0259 7.27765 11.025 8.00005C11.0262 8.72255 10.8845 9.43815 10.6082 10.1057C10.3319 10.7733 9.92642 11.3797 9.415 11.8901L10.121 12.5961Z" fill="black"/>
<path d="M8.707 11.1819C9.12548 10.7645 9.45735 10.2685 9.68354 9.72246C9.90973 9.17639 10.0258 8.591 10.025 7.99994C10.0258 7.40887 9.90973 6.82348 9.68354 6.27741C9.45735 5.73134 9.12548 5.23534 8.707 4.81794L8 5.52494C8.32548 5.84961 8.5836 6.2354 8.7595 6.66014C8.93541 7.08489 9.02563 7.54021 9.025 7.99994C9.02558 8.45966 8.93533 8.91496 8.75942 9.3397C8.58352 9.76443 8.32544 10.1502 8 10.4749L8.707 11.1819ZM6.717 3.54994C6.80171 3.59074 6.8732 3.65461 6.92326 3.73421C6.97332 3.81381 6.99991 3.90591 7 3.99994V11.9999C6.99987 12.094 6.97319 12.1862 6.92303 12.2658C6.87288 12.3454 6.80128 12.4092 6.71647 12.4499C6.63166 12.4907 6.53708 12.5066 6.4436 12.496C6.35011 12.4854 6.26152 12.4486 6.188 12.3899L3.825 10.4999H1.5C1.36739 10.4999 1.24021 10.4473 1.14645 10.3535C1.05268 10.2597 1 10.1325 1 9.99994V5.99994C1 5.86733 1.05268 5.74015 1.14645 5.64638C1.24021 5.55261 1.36739 5.49994 1.5 5.49994H3.825L6.188 3.60994C6.26157 3.55112 6.35026 3.51429 6.44385 3.50367C6.53744 3.49306 6.63212 3.5091 6.717 3.54994Z" fill="black"/>
</svg>
