<svg width="16" height="16" viewBox="0 0 16 16" fill="none" xmlns="http://www.w3.org/2000/svg">
<path d="M6.717 3.54994C6.80171 3.59074 6.8732 3.65461 6.92326 3.73421C6.97332 3.81381 6.99991 3.90591 7 3.99994V11.9999C6.99987 12.094 6.97319 12.1862 6.92303 12.2658C6.87288 12.3454 6.80128 12.4092 6.71647 12.4499C6.63166 12.4907 6.53708 12.5066 6.4436 12.496C6.35011 12.4854 6.26152 12.4486 6.188 12.3899L3.825 10.4999H1.5C1.36739 10.4999 1.24021 10.4473 1.14645 10.3535C1.05268 10.2597 1 10.1325 1 9.99994V5.99994C1 5.86733 1.05268 5.74015 1.14645 5.64638C1.24021 5.55261 1.36739 5.49994 1.5 5.49994H3.825L6.188 3.60994C6.26157 3.55112 6.35026 3.51429 6.44385 3.50367C6.53744 3.49306 6.63212 3.5091 6.717 3.54994ZM6 5.03994L4.312 6.38994C4.22349 6.46094 4.11347 6.49973 4 6.49994H2V9.49994H4C4.11347 9.50014 4.22349 9.53893 4.312 9.60994L6 10.9599V5.03994ZM13.854 5.64594C13.9006 5.69238 13.9375 5.74756 13.9627 5.8083C13.9879 5.86905 14.0009 5.93417 14.0009 5.99994C14.0009 6.0657 13.9879 6.13082 13.9627 6.19157C13.9375 6.25232 13.9006 6.30749 13.854 6.35394L12.207 7.99994L13.854 9.64594C13.9479 9.73982 14.0006 9.86716 14.0006 9.99994C14.0006 10.1327 13.9479 10.26 13.854 10.3539C13.7601 10.4478 13.6328 10.5006 13.5 10.5006C13.3672 10.5006 13.2399 10.4478 13.146 10.3539L11.5 8.70694L9.854 10.3539C9.76011 10.4478 9.63278 10.5006 9.5 10.5006C9.36722 10.5006 9.23989 10.4478 9.146 10.3539C9.05211 10.26 8.99937 10.1327 8.99937 9.99994C8.99937 9.86716 9.05211 9.73982 9.146 9.64594L10.793 7.99994L9.146 6.35394C9.09951 6.30745 9.06264 6.25226 9.03748 6.19152C9.01232 6.13078 8.99937 6.06568 8.99937 5.99994C8.99937 5.93419 9.01232 5.86909 9.03748 5.80835C9.06264 5.74761 9.09951 5.69242 9.146 5.64594C9.23989 5.55205 9.36722 5.4993 9.5 5.4993C9.56574 5.4993 9.63084 5.51225 9.69158 5.53741C9.75232 5.56257 9.80751 5.59945 9.854 5.64594L11.5 7.29294L13.146 5.64594C13.1924 5.59937 13.2476 5.56243 13.3084 5.53722C13.3691 5.51202 13.4342 5.49904 13.5 5.49904C13.5658 5.49904 13.6309 5.51202 13.6916 5.53722C13.7524 5.56243 13.8076 5.59937 13.854 5.64594Z" fill="black"/>
</svg>
