<svg width="24" height="24" viewBox="0 0 24 24" xmlns="http://www.w3.org/2000/svg" fill='currentColor'><path d="M20.83 17.2901H21V13.2901H23V9.2901H12.83L20.83 17.2901ZM19.78 21.9001L21.19 20.4901L2.81 2.1001L1.39 3.5101L3.98 6.1001C2.2 7.1401 1 9.0801 1 11.2901C1 14.6001 3.69 17.2901 7 17.2901C9.21 17.2901 11.15 16.0901 12.18 14.3001L19.78 21.9001ZM8.99 11.1101C9 11.1701 9 11.2301 9 11.2901C9 12.3901 8.1 13.2901 7 13.2901C5.9 13.2901 5 12.3901 5 11.2901C5 10.1901 5.9 9.2901 7 9.2901C7.06 9.2901 7.12 9.2901 7.18 9.3001L8.99 11.1101Z"/></svg>