<svg width="16" height="16" viewBox="0 0 16 16" xmlns="http://www.w3.org/2000/svg" fill='currentColor'><g clip-path="url(#clip0_104_3621)"><path d="M0 3C0 2.46957 0.210714 1.96086 0.585786 1.58579C0.960859 1.21071 1.46957 1 2 1H15.5C15.6326 1 15.7598 1.05268 15.8536 1.14645C15.9473 1.24021 16 1.36739 16 1.5C16 1.63261 15.9473 1.75979 15.8536 1.85355C15.7598 1.94732 15.6326 2 15.5 2H15V4C15.2652 4 15.5196 4.10536 15.7071 4.29289C15.8946 4.48043 16 4.73478 16 5V13.5C16 13.8978 15.842 14.2794 15.5607 14.5607C15.2794 14.842 14.8978 15 14.5 15H2.5C1.83696 15 1.20107 14.7366 0.732233 14.2678C0.263392 13.7989 0 13.163 0 12.5L0 3ZM1 4.732V12.5C1 12.8978 1.15804 13.2794 1.43934 13.5607C1.72064 13.842 2.10218 14 2.5 14H14.5C14.6326 14 14.7598 13.9473 14.8536 13.8536C14.9473 13.7598 15 13.6326 15 13.5V5H2C1.64886 5.00046 1.30385 4.90799 1 4.732ZM1 3C1 3.26522 1.10536 3.51957 1.29289 3.70711C1.48043 3.89464 1.73478 4 2 4H14V2H2C1.73478 2 1.48043 2.10536 1.29289 2.29289C1.10536 2.48043 1 2.73478 1 3Z"/></g><defs><clipPath id="clip0_104_3621"><rect width="16" height="16"/></clipPath></defs></svg>