<svg width="16" height="16" viewBox="0 0 16 16" xmlns="http://www.w3.org/2000/svg" fill='currentColor'><g clip-path="url(#clip0_104_3623)"><path d="M12.136 0.326086C12.3571 0.270789 12.5878 0.266584 12.8107 0.313789C13.0337 0.360994 13.2429 0.458369 13.4226 0.598521C13.6023 0.738673 13.7476 0.917919 13.8477 1.12265C13.9477 1.32738 13.9998 1.55222 14 1.78009V3.00009H14.5C14.8978 3.00009 15.2794 3.15812 15.5607 3.43943C15.842 3.72073 16 4.10226 16 4.50009V13.5001C16 13.8979 15.842 14.2794 15.5607 14.5607C15.2794 14.8421 14.8978 15.0001 14.5 15.0001H1.5C1.10218 15.0001 0.720644 14.8421 0.43934 14.5607C0.158035 14.2794 9.80916e-08 13.8979 9.80916e-08 13.5001V4.50009C-0.000139461 4.11394 0.148642 3.74261 0.415377 3.4634C0.682113 3.18418 1.04625 3.01859 1.432 3.00109L12.136 0.326086ZM5.562 3.00009H13V1.78009C12.9998 1.70422 12.9824 1.62939 12.949 1.56126C12.9156 1.49313 12.8672 1.43349 12.8074 1.38686C12.7475 1.34022 12.6779 1.30781 12.6036 1.29208C12.5294 1.27636 12.4526 1.27773 12.379 1.29609L5.562 3.00009ZM1.5 4.00009C1.36739 4.00009 1.24021 4.05276 1.14645 4.14653C1.05268 4.2403 1 4.36748 1 4.50009V13.5001C1 13.6327 1.05268 13.7599 1.14645 13.8536C1.24021 13.9474 1.36739 14.0001 1.5 14.0001H14.5C14.6326 14.0001 14.7598 13.9474 14.8536 13.8536C14.9473 13.7599 15 13.6327 15 13.5001V4.50009C15 4.36748 14.9473 4.2403 14.8536 4.14653C14.7598 4.05276 14.6326 4.00009 14.5 4.00009H1.5Z"/></g><defs><clipPath id="clip0_104_3623"><rect width="16" height="16"/></clipPath></defs></svg>