<svg width="16" height="16" viewBox="0 0 16 16" xmlns="http://www.w3.org/2000/svg" fill='currentColor'><g clip-path="url(#clip0_104_3625)"><path d="M1.5 2C1.10218 2 0.720644 2.15804 0.43934 2.43934C0.158035 2.72064 0 3.10218 0 3.5L0 5.5H6C6.13261 5.5 6.25979 5.55268 6.35355 5.64645C6.44732 5.74021 6.5 5.86739 6.5 6C6.5 6.253 6.58 6.644 6.806 6.958C7.013 7.246 7.363 7.5 8 7.5C8.637 7.5 8.987 7.246 9.194 6.958C9.42 6.644 9.5 6.253 9.5 6C9.5 5.86739 9.55268 5.74021 9.64645 5.64645C9.74021 5.55268 9.86739 5.5 10 5.5H16V3.5C16 3.10218 15.842 2.72064 15.5607 2.43934C15.2794 2.15804 14.8978 2 14.5 2H1.5Z"/><path d="M16 6.5H10.449C10.3773 6.87494 10.2262 7.23021 10.006 7.542C9.613 8.088 8.963 8.5 8 8.5C7.037 8.5 6.387 8.088 5.994 7.542C5.77378 7.23019 5.62274 6.87493 5.551 6.5H0V12.5C0 12.8978 0.158035 13.2794 0.43934 13.5607C0.720644 13.842 1.10218 14 1.5 14H14.5C14.8978 14 15.2794 13.842 15.5607 13.5607C15.842 13.2794 16 12.8978 16 12.5V6.5Z"/></g><defs><clipPath id="clip0_104_3625"><rect width="16" height="16"/></clipPath></defs></svg>