<svg xmlns="http://www.w3.org/2000/svg" width="24" height="24" viewBox="0 0 24 24" fill='currentColor'><path d="M19 8a2.5 2.5 0 0 0 2.5-2.5C21.5 3.83 19 1 19 1s-2.5 2.83-2.5 4.5A2.5 2.5 0 0 0 19 8m-5 1c.83 0 1.5-.67 1.5-1.5C15.5 6.66 14 5 14 5s-1.5 1.66-1.5 2.5c0 .83.67 1.5 1.5 1.5M9.62 5l-7.18 6.79c-.6.56-.94 1.35-.94 2.18V20c0 1.66 1.34 3 3 3h13.75a1.25 1.25 0 0 0 0-2.5H12.5v-1h7.75a1.25 1.25 0 0 0 0-2.5H12.5v-1h8.75a1.25 1.25 0 0 0 0-2.5H12.5v-1h6.75a1.25 1.25 0 0 0 0-2.5H9.36c.64-1.11 1.48-2.58 1.49-2.61a1.065 1.065 0 0 0-.12-1.23C10.72 6.12 9.62 5 9.62 5"/></svg>