<svg width="16" height="16" viewBox="0 0 16 16" fill="none" xmlns="http://www.w3.org/2000/svg">
<path d="M8.5 5C8.5 4.86739 8.44732 4.74021 8.35355 4.64645C8.25979 4.55268 8.13261 4.5 8 4.5C7.86739 4.5 7.74021 4.55268 7.64645 4.64645C7.55268 4.74021 7.5 4.86739 7.5 5V7.5H6C5.86739 7.5 5.74021 7.55268 5.64645 7.64645C5.55268 7.74021 5.5 7.86739 5.5 8C5.5 8.13261 5.55268 8.25979 5.64645 8.35355C5.74021 8.44732 5.86739 8.5 6 8.5H8C8.13261 8.5 8.25979 8.44732 8.35355 8.35355C8.44732 8.25979 8.5 8.13261 8.5 8V5Z" fill="black"/>
<path d="M5.667 16C4.747 16 4 15.254 4 14.333V12.473C3.36994 11.9107 2.86599 11.2215 2.52129 10.4505C2.17659 9.67962 1.99894 8.84448 2 8C2 6.223 2.772 4.626 4 3.528V1.667C4 0.747 4.746 0 5.667 0H10.333C11.253 0 12 0.746 12 1.667V3.527C13.0167 4.43498 13.6933 5.66256 13.918 7.007C13.9896 6.99545 14.0628 6.99953 14.1326 7.01895C14.2024 7.03838 14.2672 7.07269 14.3225 7.11954C14.3778 7.16638 14.4223 7.22464 14.4529 7.29032C14.4836 7.356 14.4996 7.42753 14.5 7.5V8.5C14.5 8.57258 14.4841 8.64428 14.4536 8.71013C14.4231 8.77597 14.3786 8.83438 14.3232 8.88129C14.2678 8.9282 14.2029 8.96249 14.1329 8.98178C14.0629 9.00108 13.9896 9.0049 13.918 8.993C13.6933 10.3374 13.0167 11.565 12 12.473V14.333C12 15.253 11.254 16 10.333 16H5.667ZM13 8C13 6.67392 12.4732 5.40215 11.5355 4.46447C10.5979 3.52678 9.32609 3 8 3C6.67392 3 5.40215 3.52678 4.46447 4.46447C3.52679 5.40215 3 6.67392 3 8C3 9.32608 3.52679 10.5979 4.46447 11.5355C5.40215 12.4732 6.67392 13 8 13C9.32609 13 10.5979 12.4732 11.5355 11.5355C12.4732 10.5979 13 9.32608 13 8Z" fill="black"/>
</svg>
