<svg width="24" height="24" viewBox="0 0 24 24" xmlns="http://www.w3.org/2000/svg" fill='currentColor'><path d="M12.71 6.69482C15.47 6.69482 17.71 8.93482 17.71 11.6948C17.71 12.3348 17.58 12.9448 17.36 13.5148L18.86 15.0148C19.4 14.0248 19.71 12.8948 19.71 11.6948C19.71 9.47482 18.68 7.50482 17.07 6.22482L15.71 1.69482H9.71001L8.75001 4.90482L10.89 7.04482C11.46 6.82482 12.07 6.69482 12.71 6.69482Z"/><path d="M3.52001 2.50482L2.10001 3.91482L6.56001 8.37482C6.02001 9.36482 5.71001 10.4948 5.71001 11.6948C5.71001 13.9148 6.74001 15.8848 8.35001 17.1648L9.71001 21.6948H15.71L16.67 18.4848L20.49 22.3048L21.9 20.8948L3.52001 2.50482ZM12.71 16.6948C9.95001 16.6948 7.71001 14.4548 7.71001 11.6948C7.71001 11.0548 7.84001 10.4448 8.06001 9.87482L14.53 16.3448C13.96 16.5648 13.35 16.6948 12.71 16.6948Z"/></svg>