<svg width="16" height="16" viewBox="0 0 16 16" fill="none" xmlns="http://www.w3.org/2000/svg">
<g clip-path="url(#clip0_104_3631)">
<path d="M0.0359969 3.31396C0.0853505 3.19092 0.181548 3.09251 0.303439 3.04038C0.425329 2.98825 0.562934 2.98666 0.685997 3.03596L2.443 3.73896C2.80056 3.88196 3.19943 3.88196 3.557 3.73896L4.571 3.33296C5.16704 3.09454 5.83196 3.09454 6.428 3.33296L7.443 3.73896C7.80056 3.88196 8.19943 3.88196 8.557 3.73896L9.571 3.33296C10.167 3.09454 10.832 3.09454 11.428 3.33296L12.443 3.73896C12.8006 3.88196 13.1994 3.88196 13.557 3.73896L15.314 3.03596C15.3752 3.00993 15.441 2.99637 15.5076 2.9961C15.5741 2.99582 15.64 3.00883 15.7015 3.03436C15.7629 3.05988 15.8186 3.09742 15.8654 3.14476C15.9122 3.1921 15.949 3.2483 15.9737 3.31005C15.9985 3.37181 16.0107 3.43789 16.0096 3.50442C16.0085 3.57094 15.9941 3.63658 15.9673 3.69748C15.9405 3.75838 15.9018 3.81332 15.8535 3.85908C15.8052 3.90484 15.7483 3.94049 15.686 3.96396L13.928 4.66696C13.332 4.90538 12.667 4.90538 12.071 4.66696L11.057 4.26096C10.6994 4.11796 10.3006 4.11796 9.943 4.26096L8.928 4.66696C8.33196 4.90538 7.66704 4.90538 7.071 4.66696L6.057 4.26096C5.69943 4.11796 5.30056 4.11796 4.943 4.26096L3.928 4.66696C3.33196 4.90538 2.66704 4.90538 2.071 4.66696L0.313997 3.96396C0.190955 3.91461 0.0925503 3.81841 0.0404186 3.69652C-0.011713 3.57463 -0.0133035 3.43702 0.0359969 3.31396ZM0.0359969 6.31396C0.0853505 6.19092 0.181548 6.09251 0.303439 6.04038C0.425329 5.98825 0.562934 5.98666 0.685997 6.03596L2.443 6.73896C2.80056 6.88196 3.19943 6.88196 3.557 6.73896L4.571 6.33296C5.16704 6.09454 5.83196 6.09454 6.428 6.33296L7.443 6.73896C7.80056 6.88196 8.19943 6.88196 8.557 6.73896L9.571 6.33296C10.167 6.09454 10.832 6.09454 11.428 6.33296L12.443 6.73896C12.8006 6.88196 13.1994 6.88196 13.557 6.73896L15.314 6.03596C15.3752 6.00993 15.441 5.99637 15.5076 5.9961C15.5741 5.99582 15.64 6.00883 15.7015 6.03436C15.7629 6.05988 15.8186 6.09742 15.8654 6.14476C15.9122 6.1921 15.949 6.2483 15.9737 6.31005C15.9985 6.37181 16.0107 6.43789 16.0096 6.50442C16.0085 6.57094 15.9941 6.63658 15.9673 6.69748C15.9405 6.75838 15.9018 6.81332 15.8535 6.85908C15.8052 6.90483 15.7483 6.94049 15.686 6.96396L13.928 7.66696C13.332 7.90538 12.667 7.90538 12.071 7.66696L11.057 7.26096C10.6994 7.11796 10.3006 7.11796 9.943 7.26096L8.928 7.66696C8.33196 7.90538 7.66704 7.90538 7.071 7.66696L6.057 7.26096C5.69943 7.11796 5.30056 7.11796 4.943 7.26096L3.928 7.66696C3.33196 7.90538 2.66704 7.90538 2.071 7.66696L0.313997 6.96396C0.190955 6.91461 0.0925503 6.81841 0.0404186 6.69652C-0.011713 6.57463 -0.0133035 6.43702 0.0359969 6.31396ZM0.0359969 9.31396C0.0853505 9.19092 0.181548 9.09251 0.303439 9.04038C0.425329 8.98825 0.562934 8.98666 0.685997 9.03596L2.443 9.73896C2.80056 9.88196 3.19943 9.88196 3.557 9.73896L4.571 9.33296C5.16704 9.09454 5.83196 9.09454 6.428 9.33296L7.443 9.73896C7.80056 9.88196 8.19943 9.88196 8.557 9.73896L9.571 9.33296C10.167 9.09454 10.832 9.09454 11.428 9.33296L12.443 9.73896C12.8006 9.88196 13.1994 9.88196 13.557 9.73896L15.314 9.03596C15.3752 9.00993 15.441 8.99637 15.5076 8.9961C15.5741 8.99582 15.64 9.00883 15.7015 9.03436C15.7629 9.05988 15.8186 9.09742 15.8654 9.14476C15.9122 9.1921 15.949 9.24829 15.9737 9.31005C15.9985 9.37181 16.0107 9.43789 16.0096 9.50442C16.0085 9.57094 15.9941 9.63658 15.9673 9.69748C15.9405 9.75838 15.9018 9.81332 15.8535 9.85908C15.8052 9.90483 15.7483 9.94049 15.686 9.96396L13.928 10.667C13.332 10.9054 12.667 10.9054 12.071 10.667L11.057 10.261C10.6994 10.118 10.3006 10.118 9.943 10.261L8.928 10.667C8.33196 10.9054 7.66704 10.9054 7.071 10.667L6.057 10.261C5.69943 10.118 5.30056 10.118 4.943 10.261L3.928 10.667C3.33196 10.9054 2.66704 10.9054 2.071 10.667L0.313997 9.96396C0.190955 9.91461 0.0925503 9.81841 0.0404186 9.69652C-0.011713 9.57463 -0.0133035 9.43702 0.0359969 9.31396ZM0.0359969 12.314C0.0853505 12.1909 0.181548 12.0925 0.303439 12.0404C0.425329 11.9882 0.562934 11.9867 0.685997 12.036L2.443 12.739C2.80056 12.882 3.19943 12.882 3.557 12.739L4.571 12.333C5.16704 12.0945 5.83196 12.0945 6.428 12.333L7.443 12.739C7.80056 12.882 8.19943 12.882 8.557 12.739L9.571 12.333C10.167 12.0945 10.832 12.0945 11.428 12.333L12.443 12.739C12.8006 12.882 13.1994 12.882 13.557 12.739L15.314 12.036C15.3752 12.0099 15.441 11.9964 15.5076 11.9961C15.5741 11.9958 15.64 12.0088 15.7015 12.0344C15.7629 12.0599 15.8186 12.0974 15.8654 12.1448C15.9122 12.1921 15.949 12.2483 15.9737 12.3101C15.9985 12.3718 16.0107 12.4379 16.0096 12.5044C16.0085 12.5709 15.9941 12.6366 15.9673 12.6975C15.9405 12.7584 15.9018 12.8133 15.8535 12.8591C15.8052 12.9048 15.7483 12.9405 15.686 12.964L13.928 13.667C13.332 13.9054 12.667 13.9054 12.071 13.667L11.057 13.261C10.6994 13.118 10.3006 13.118 9.943 13.261L8.928 13.667C8.33196 13.9054 7.66704 13.9054 7.071 13.667L6.057 13.261C5.69943 13.118 5.30056 13.118 4.943 13.261L3.928 13.667C3.33196 13.9054 2.66704 13.9054 2.071 13.667L0.313997 12.964C0.190955 12.9146 0.0925503 12.8184 0.0404186 12.6965C-0.011713 12.5746 -0.0133035 12.437 0.0359969 12.314Z" fill="black"/>
</g>
<defs>
<clipPath id="clip0_104_3631">
<rect width="16" height="16" fill="white"/>
</clipPath>
</defs>
</svg>
