<svg width="24" height="24" viewBox="0 0 24 24" xmlns="http://www.w3.org/2000/svg" fill='currentColor'><path d="M3.55 18.5649L4.96 19.9749L6.75 18.1749L5.34 16.7649L3.55 18.5649ZM11 19.4749H13V22.4749H11V19.4749ZM1 10.4749H4V12.4749H1V10.4749ZM13 3.5249V7.4849L14 8.0649C15.24 8.7849 16 10.1049 16 11.5249C16 13.7349 14.21 15.5249 12 15.5249C9.79 15.5249 8 13.7349 8 11.5249C8 10.1049 8.77 8.7849 10 8.0649L11 7.4849V3.5249H13ZM15 1.5249H9V6.3349C7.21 7.3749 6 9.3049 6 11.5249C6 14.8349 8.69 17.5249 12 17.5249C15.31 17.5249 18 14.8349 18 11.5249C18 9.3049 16.79 7.3749 15 6.3349V1.5249ZM20 10.4749H23V12.4749H20V10.4749ZM17.24 18.1849L19.03 19.9849L20.44 18.5749L18.64 16.7849L17.24 18.1849Z"/></svg>