<svg width="24" height="24" viewBox="0 0 24 24" xmlns="http://www.w3.org/2000/svg" fill='currentColor'><path d="M3.55 18.5649L4.96 19.9749L6.75 18.1749L5.34 16.7649L3.55 18.5649ZM11 22.4749H13V19.5249H11V22.4749ZM4 10.5249H1V12.5249H4V10.5249ZM15 6.3349V1.5249H9V6.3349C7.21 7.3749 6 9.3049 6 11.5249C6 14.8349 8.69 17.5249 12 17.5249C15.31 17.5249 18 14.8349 18 11.5249C18 9.3049 16.79 7.3749 15 6.3349ZM20 10.5249V12.5249H23V10.5249H20ZM17.24 18.1849L19.03 19.9849L20.44 18.5749L18.64 16.7849L17.24 18.1849Z"/></svg>