<svg width="16" height="16" viewBox="0 0 16 16" fill="none" xmlns="http://www.w3.org/2000/svg">
<path fill-rule="evenodd" clip-rule="evenodd" d="M0 6C0 5.46957 0.210714 4.96086 0.585786 4.58579C0.960859 4.21071 1.46957 4 2 4H14C14.5304 4 15.0391 4.21071 15.4142 4.58579C15.7893 4.96086 16 5.46957 16 6V9C16 9.53043 15.7893 10.0391 15.4142 10.4142C15.0391 10.7893 14.5304 11 14 11H9.269C9.413 11.162 9.599 11.324 9.8 11.475C10.0868 11.6886 10.3901 11.8792 10.707 12.045L10.721 12.051L10.724 12.053C10.8247 12.1034 10.9053 12.1864 10.953 12.2884C11.0006 12.3904 11.0125 12.5055 10.9865 12.6151C10.9606 12.7247 10.8985 12.8223 10.8102 12.8921C10.7219 12.962 10.6126 13 10.5 13H5.5C5.38741 13 5.27812 12.962 5.18982 12.8921C5.10152 12.8223 5.03938 12.7247 5.01346 12.6151C4.98754 12.5055 4.99937 12.3904 5.04701 12.2884C5.09466 12.1864 5.17534 12.1034 5.276 12.053L5.279 12.051L5.293 12.044C5.384 11.9977 5.47338 11.9484 5.561 11.896C5.78179 11.7679 5.99513 11.6273 6.2 11.475C6.4 11.325 6.587 11.162 6.731 11H2C1.46957 11 0.960859 10.7893 0.585786 10.4142C0.210714 10.0391 0 9.53043 0 9V6ZM2 5C1.73478 5 1.48043 5.10536 1.29289 5.29289C1.10536 5.48043 1 5.73478 1 6V9C1 9.26522 1.10536 9.51957 1.29289 9.70711C1.48043 9.89464 1.73478 10 2 10H14C14.2652 10 14.5196 9.89464 14.7071 9.70711C14.8946 9.51957 15 9.26522 15 9V6C15 5.73478 14.8946 5.48043 14.7071 5.29289C14.5196 5.10536 14.2652 5 14 5H2Z" fill="black"/>
<path fill-rule="evenodd" clip-rule="evenodd" d="M8 6.5C7.73478 6.5 7.48043 6.60536 7.29289 6.79289C7.10536 6.98043 7 7.23478 7 7.5C7 7.76522 7.10536 8.01957 7.29289 8.20711C7.48043 8.39464 7.73478 8.5 8 8.5C8.26522 8.5 8.51957 8.39464 8.70711 8.20711C8.89464 8.01957 9 7.76522 9 7.5C9 7.23478 8.89464 6.98043 8.70711 6.79289C8.51957 6.60536 8.26522 6.5 8 6.5ZM6 7.5C6 6.96957 6.21071 6.46086 6.58579 6.08579C6.96086 5.71071 7.46957 5.5 8 5.5C8.53043 5.5 9.03914 5.71071 9.41421 6.08579C9.78929 6.46086 10 6.96957 10 7.5C10 8.03043 9.78929 8.53914 9.41421 8.91421C9.03914 9.28929 8.53043 9.5 8 9.5C7.46957 9.5 6.96086 9.28929 6.58579 8.91421C6.21071 8.53914 6 8.03043 6 7.5Z" fill="black"/>
<path d="M13 7.5C13 7.63261 12.9473 7.75979 12.8536 7.85355C12.7598 7.94732 12.6326 8 12.5 8C12.3674 8 12.2402 7.94732 12.1464 7.85355C12.0527 7.75979 12 7.63261 12 7.5C12 7.36739 12.0527 7.24021 12.1464 7.14645C12.2402 7.05268 12.3674 7 12.5 7C12.6326 7 12.7598 7.05268 12.8536 7.14645C12.9473 7.24021 13 7.36739 13 7.5Z" fill="black"/>
</svg>
