<svg width="16" height="16" viewBox="0 0 16 16" fill="none" xmlns="http://www.w3.org/2000/svg">
<g clip-path="url(#clip0_104_3637)">
<path fill-rule="evenodd" clip-rule="evenodd" d="M6.644 11.0941C6.69042 11.0467 6.74581 11.0091 6.80693 10.9833C6.86804 10.9576 6.93368 10.9442 7 10.9441H9C9.06632 10.9442 9.13195 10.9576 9.19307 10.9833C9.25419 11.0091 9.30957 11.0467 9.356 11.0941C9.531 11.2711 9.746 11.4411 9.959 11.5901C10.2001 11.7573 10.4512 11.9096 10.711 12.0461L10.721 12.0521H10.724C10.8252 12.1022 10.9065 12.1852 10.9545 12.2874C11.0025 12.3897 11.0146 12.5051 10.9886 12.6151C10.9626 12.725 10.9002 12.8229 10.8115 12.8928C10.7227 12.9627 10.613 13.0005 10.5 13.0001H5.5C5.38741 13.0001 5.27811 12.9621 5.18981 12.8922C5.10151 12.8224 5.03937 12.7248 5.01346 12.6152C4.98754 12.5056 4.99936 12.3905 5.04701 12.2885C5.09466 12.1865 5.17534 12.1035 5.276 12.0531L5.278 12.0521L5.288 12.0461C5.36065 12.0099 5.43202 11.9712 5.502 11.9301C5.6864 11.8244 5.86623 11.711 6.041 11.5901C6.255 11.4401 6.469 11.2711 6.644 11.0941Z" fill="black"/>
<path d="M7 6.5C7 6.23478 7.10536 5.98043 7.29289 5.79289C7.48043 5.60536 7.73478 5.5 8 5.5C8.26522 5.5 8.51957 5.60536 8.70711 5.79289C8.89464 5.98043 9 6.23478 9 6.5C9 6.76522 8.89464 7.01957 8.70711 7.20711C8.51957 7.39464 8.26522 7.5 8 7.5C7.73478 7.5 7.48043 7.39464 7.29289 7.20711C7.10536 7.01957 7 6.76522 7 6.5Z" fill="black"/>
<path fill-rule="evenodd" clip-rule="evenodd" d="M2 3C1.46957 3 0.960859 3.21071 0.585786 3.58579C0.210714 3.96086 0 4.46957 0 5L0 8C0 8.53043 0.210714 9.03914 0.585786 9.41421C0.960859 9.78929 1.46957 10 2 10H14C14.5304 10 15.0391 9.78929 15.4142 9.41421C15.7893 9.03914 16 8.53043 16 8V5C16 4.46957 15.7893 3.96086 15.4142 3.58579C15.0391 3.21071 14.5304 3 14 3H2ZM8 4.5C7.46957 4.5 6.96086 4.71071 6.58579 5.08579C6.21071 5.46086 6 5.96957 6 6.5C6 7.03043 6.21071 7.53914 6.58579 7.91421C6.96086 8.28929 7.46957 8.5 8 8.5C8.53043 8.5 9.03914 8.28929 9.41421 7.91421C9.78929 7.53914 10 7.03043 10 6.5C10 5.96957 9.78929 5.46086 9.41421 5.08579C9.03914 4.71071 8.53043 4.5 8 4.5ZM12.5 7C12.6326 7 12.7598 6.94732 12.8536 6.85355C12.9473 6.75979 13 6.63261 13 6.5C13 6.36739 12.9473 6.24021 12.8536 6.14645C12.7598 6.05268 12.6326 6 12.5 6C12.3674 6 12.2402 6.05268 12.1464 6.14645C12.0527 6.24021 12 6.36739 12 6.5C12 6.63261 12.0527 6.75979 12.1464 6.85355C12.2402 6.94732 12.3674 7 12.5 7Z" fill="black"/>
</g>
<defs>
<clipPath id="clip0_104_3637">
<rect width="16" height="16" fill="white"/>
</clipPath>
</defs>
</svg>
