<svg width="16" height="16" viewBox="0 0 16 16" fill="none" xmlns="http://www.w3.org/2000/svg">
<g clip-path="url(#clip0_104_3641)">
<path d="M13.601 2.32605C12.8675 1.58573 11.9939 0.998793 11.0313 0.599454C10.0687 0.200115 9.03617 -0.00364427 7.994 4.93305e-05C3.627 4.93305e-05 0.068 3.55805 0.064 7.92605C0.064 9.32505 0.43 10.686 1.121 11.891L0 16L4.204 14.898C5.367 15.531 6.66993 15.8627 7.994 15.863H7.998C12.366 15.863 15.924 12.305 15.928 7.93305C15.929 6.89109 15.7238 5.85924 15.3243 4.89693C14.9247 3.93462 14.3387 3.06088 13.6 2.32605H13.601ZM7.994 14.521C6.813 14.5214 5.6537 14.2036 4.638 13.601L4.398 13.457L1.904 14.111L2.57 11.6781L2.414 11.427C1.75381 10.3774 1.40465 9.16208 1.407 7.92205C1.407 4.29605 4.364 1.33805 7.998 1.33805C8.86374 1.3365 9.72123 1.50632 10.521 1.83774C11.3208 2.16916 12.0471 2.65561 12.658 3.26905C13.271 3.8801 13.757 4.60647 14.0879 5.40628C14.4188 6.20609 14.5881 7.06349 14.586 7.92905C14.582 11.568 11.625 14.521 7.994 14.521ZM11.609 9.58705C11.412 9.48805 10.439 9.00905 10.256 8.94105C10.074 8.87605 9.941 8.84205 9.811 9.04005C9.678 9.23705 9.298 9.68605 9.184 9.81505C9.07 9.94805 8.952 9.96305 8.754 9.86505C8.557 9.76505 7.918 9.55705 7.162 8.88005C6.572 8.35505 6.177 7.70505 6.059 7.50805C5.945 7.31005 6.048 7.20405 6.147 7.10505C6.234 7.01705 6.344 6.87305 6.443 6.75905C6.543 6.64505 6.576 6.56105 6.641 6.42905C6.706 6.29505 6.675 6.18105 6.626 6.08205C6.576 5.98305 6.181 5.00605 6.014 4.61205C5.854 4.22305 5.691 4.27705 5.569 4.27205C5.455 4.26505 5.322 4.26505 5.189 4.26505C5.08856 4.26755 4.98973 4.29078 4.89869 4.33328C4.80766 4.37579 4.7264 4.43665 4.66 4.51205C4.478 4.71005 3.969 5.18905 3.969 6.16605C3.969 7.14305 4.679 8.08205 4.779 8.21505C4.877 8.34805 6.173 10.347 8.162 11.207C8.632 11.412 9.002 11.533 9.291 11.625C9.766 11.7771 10.195 11.754 10.537 11.705C10.917 11.647 11.708 11.225 11.875 10.762C12.039 10.298 12.039 9.90205 11.989 9.81905C11.94 9.73505 11.807 9.68605 11.609 9.58705Z" fill="black"/>
</g>
<defs>
<clipPath id="clip0_104_3641">
<rect width="16" height="16" fill="white"/>
</clipPath>
</defs>
</svg>
