<svg width="24" height="24" viewBox="0 0 24 24" xmlns="http://www.w3.org/2000/svg" fill='currentColor'><path d="M3.70499 4C3.70499 2.89 4.59499 2 5.70499 2C6.81499 2 7.70499 2.89 7.70499 4C7.70499 5.11 6.81499 6 5.70499 6C4.59499 6 3.70499 5.11 3.70499 4ZM9.20499 10.95V9C9.20499 7.9 8.30499 7 7.20499 7H4.20499C3.10499 7 2.20499 7.9 2.20499 9V15H4.20499V22H7.70499V21.89C6.46499 20.63 5.70499 18.9 5.70499 17C5.70499 14.42 7.11499 12.16 9.20499 10.95ZM15.705 17C15.705 18.65 14.355 20 12.705 20C11.055 20 9.70499 18.65 9.70499 17C9.70499 15.89 10.315 14.94 11.205 14.42V12.26C9.18499 12.9 7.70499 14.77 7.70499 17C7.70499 19.76 9.94499 22 12.705 22C15.465 22 17.705 19.76 17.705 17H15.705ZM18.745 14H14.205V8H12.205V16H17.665L20.135 19.71L21.795 18.6L18.745 14Z"/></svg>