<svg width="16" height="16" viewBox="0 0 16 16" fill="none" xmlns="http://www.w3.org/2000/svg">
<path d="M13.229 8.27101C13.445 8.05501 13.423 7.69301 13.166 7.52601C11.6284 6.52726 9.83354 5.99707 8.00002 6.00001C6.09502 6.00001 4.32002 6.56001 2.83402 7.52601C2.77457 7.56613 2.72487 7.61906 2.68856 7.68092C2.65226 7.74277 2.63028 7.81197 2.62424 7.88344C2.61819 7.9549 2.62824 8.02681 2.65364 8.09388C2.67904 8.16095 2.71915 8.22148 2.77102 8.27101C2.85622 8.35417 2.96716 8.4059 3.08563 8.41771C3.2041 8.42952 3.32307 8.40071 3.42302 8.33601C4.78904 7.46107 6.37781 6.99732 8.00002 7.00001C9.62222 6.99732 11.211 7.46107 12.577 8.33601C12.782 8.46801 13.057 8.44401 13.229 8.27101ZM11.046 10.454C11.272 10.228 11.231 9.84901 10.946 9.70401C10.0335 9.23966 9.02387 8.99839 8.00002 9.00001C6.94002 9.00001 5.93801 9.25401 5.05401 9.70401C4.76901 9.84901 4.72801 10.228 4.95402 10.454L4.96901 10.469C5.12901 10.629 5.37701 10.659 5.58001 10.559C6.33324 10.1899 7.16119 9.9986 8.00002 10C8.86802 10 9.69002 10.201 10.42 10.56C10.623 10.66 10.87 10.63 11.031 10.469L11.046 10.454ZM9.06002 12.44C9.25602 12.244 9.25802 11.92 9.02002 11.78C8.7115 11.5964 8.35905 11.4996 8.00002 11.5C7.64098 11.4996 7.28853 11.5964 6.98002 11.78C6.74202 11.92 6.74402 12.244 6.94002 12.44L7.64602 13.146C7.69246 13.1926 7.74764 13.2295 7.80838 13.2547C7.86913 13.2799 7.93425 13.2929 8.00002 13.2929C8.06578 13.2929 8.1309 13.2799 8.19165 13.2547C8.25239 13.2295 8.30757 13.1926 8.35402 13.146L9.06102 12.439L9.06002 12.44Z" fill="black"/>
</svg>
