<svg xmlns="http://www.w3.org/2000/svg" width="24" height="24" viewBox="0 0 24 24" fill='currentColor'><path d="M23 17v-1c0-1.1-.9-2-2-2s-2 .9-2 2v1c-.55 0-1 .45-1 1v3c0 .55.45 1 1 1h4c.55 0 1-.45 1-1v-3c0-.55-.45-1-1-1m-1 0h-2v-1c0-.55.45-1 1-1s1 .45 1 1zm2-10.02-2.12 2.13A13.9 13.9 0 0 0 12 5C8.15 5 4.65 6.57 2.12 9.11L0 6.98A16.88 16.88 0 0 1 12 2c4.69 0 8.93 1.9 12 4.98M12 8c3.03 0 5.78 1.23 7.76 3.22l-2.12 2.12A7.97 7.97 0 0 0 12 11c-2.2 0-4.2.9-5.64 2.35l-2.12-2.12C6.22 9.23 8.97 8 12 8m3.53 7.46L12 19l-3.53-3.54c.9-.9 2.15-1.46 3.53-1.46s2.63.56 3.53 1.46"/></svg>