<svg width="16" height="16" viewBox="0 0 16 16" xmlns="http://www.w3.org/2000/svg" fill='currentColor'><path d="M10.706 3.29406C9.81732 3.0982 8.90998 2.99962 7.99999 3.00006C5.25899 3.00006 2.72299 3.88206 0.662991 5.37906C0.606835 5.42102 0.560445 5.47466 0.527016 5.53628C0.493587 5.5979 0.473913 5.66604 0.469351 5.73599C0.464789 5.80595 0.475446 5.87606 0.500589 5.9415C0.525731 6.00694 0.564762 6.06615 0.614991 6.11506C0.702386 6.20114 0.817494 6.25341 0.939821 6.26256C1.06215 6.27172 1.18375 6.23717 1.28299 6.16506C3.23813 4.75404 5.58887 3.99636 7.99999 4.00006C8.62999 4.00006 9.24899 4.05006 9.85199 4.14806L10.706 3.29406ZM7.99999 6.00006C6.09499 6.00006 4.31999 6.56006 2.83399 7.52606C2.77454 7.56618 2.72484 7.61911 2.68854 7.68096C2.65223 7.74281 2.63025 7.81202 2.62421 7.88348C2.61817 7.95495 2.62822 8.02685 2.65362 8.09393C2.67902 8.161 2.71912 8.22152 2.77099 8.27106C2.85619 8.35422 2.96713 8.40594 3.08561 8.41776C3.20408 8.42957 3.32305 8.40076 3.42299 8.33606C4.48366 7.65631 5.68293 7.22238 6.93299 7.06606L7.99999 6.00006ZM10.596 7.40406L11.381 6.61906C12.011 6.85906 12.608 7.16406 13.166 7.52606C13.2251 7.56641 13.2745 7.61944 13.3106 7.68129C13.3467 7.74313 13.3686 7.81223 13.3746 7.88358C13.3806 7.95493 13.3707 8.02672 13.3455 8.09374C13.3203 8.16077 13.2805 8.22134 13.229 8.27106C13.1438 8.35422 13.0328 8.40594 12.9144 8.41776C12.7959 8.42957 12.6769 8.40076 12.577 8.33606C11.9601 7.941 11.2945 7.62771 10.597 7.40406H10.596ZM7.99999 10.0001L8.93299 9.06706C9.6344 9.16747 10.3145 9.38268 10.946 9.70406C11.231 9.84906 11.272 10.2281 11.046 10.4541L11.031 10.4691C10.9512 10.5458 10.8494 10.5957 10.7399 10.6118C10.6304 10.6279 10.5185 10.6095 10.42 10.5591C9.66676 10.1899 8.83882 9.99865 7.99999 10.0001ZM12.905 5.09506L13.652 4.34806C14.242 4.64806 14.805 4.99306 15.337 5.37806C15.3932 5.42009 15.4397 5.47384 15.4731 5.53559C15.5066 5.59734 15.5262 5.66562 15.5307 5.7357C15.5352 5.80579 15.5244 5.876 15.499 5.9415C15.4737 6.007 15.4344 6.06622 15.384 6.11506C15.2966 6.20114 15.1815 6.25341 15.0592 6.26256C14.9368 6.27172 14.8152 6.23717 14.716 6.16506C14.1463 5.75378 13.5401 5.39561 12.905 5.09506ZM9.01999 11.7801C9.25799 11.9201 9.25599 12.2441 9.05999 12.4401L8.35299 13.1461C8.25923 13.2398 8.13207 13.2924 7.99949 13.2924C7.86691 13.2924 7.73975 13.2398 7.64599 13.1461L6.93899 12.4391C6.74399 12.2441 6.74199 11.9211 6.97899 11.7791C7.2879 11.5956 7.64071 11.4992 7.99999 11.5001C8.37399 11.5001 8.72299 11.6021 9.02099 11.7801H9.01999ZM13.375 1.87506C13.4744 1.7756 13.6093 1.71973 13.75 1.71973C13.8906 1.71973 14.0255 1.7756 14.125 1.87506C14.2244 1.97451 14.2803 2.1094 14.2803 2.25006C14.2803 2.39071 14.2244 2.5256 14.125 2.62506L3.37499 13.3751C3.32574 13.4243 3.26728 13.4634 3.20294 13.49C3.1386 13.5167 3.06963 13.5304 2.99999 13.5304C2.93035 13.5304 2.86138 13.5167 2.79704 13.49C2.7327 13.4634 2.67424 13.4243 2.62499 13.3751C2.57574 13.3258 2.53668 13.2673 2.51003 13.203C2.48338 13.1387 2.46966 13.0697 2.46966 13.0001C2.46966 12.9304 2.48338 12.8615 2.51003 12.7971C2.53668 12.7328 2.57574 12.6743 2.62499 12.6251L13.375 1.87506Z"/></svg>