<svg width="16" height="16" viewBox="0 0 16 16" fill="none" xmlns="http://www.w3.org/2000/svg">
<path d="M15.384 6.11501C15.4343 6.06618 15.4734 6.00703 15.4986 5.94163C15.5238 5.87623 15.5346 5.80614 15.5301 5.73618C15.5256 5.66623 15.5061 5.59808 15.4727 5.53642C15.4394 5.47476 15.3931 5.42106 15.337 5.37902C13.205 3.82896 10.6359 2.99593 7.99999 3.00001C5.25899 3.00001 2.72299 3.88202 0.662991 5.37902C0.606835 5.42098 0.560445 5.47462 0.527016 5.53624C0.493587 5.59786 0.473913 5.666 0.469351 5.73595C0.464789 5.80591 0.475446 5.87602 0.500589 5.94146C0.525731 6.0069 0.564762 6.06611 0.614991 6.11501C0.702386 6.2011 0.817494 6.25337 0.939821 6.26252C1.06215 6.27168 1.18375 6.23713 1.28299 6.16501C3.23813 4.754 5.58887 3.99632 7.99999 4.00001C10.507 4.00001 12.827 4.80202 14.716 6.16402C14.921 6.31202 15.206 6.29401 15.384 6.11501Z" fill="black"/>
<path d="M13.229 8.27101C13.2805 8.2213 13.3203 8.16073 13.3455 8.0937C13.3707 8.02668 13.3807 7.95488 13.3746 7.88354C13.3686 7.81219 13.3467 7.74308 13.3107 7.68124C13.2746 7.6194 13.2252 7.56637 13.166 7.52601C11.6284 6.5272 9.83355 5.99702 8.00002 6.00001C6.09502 6.00001 4.32002 6.56001 2.83402 7.52601C2.77457 7.56613 2.72487 7.61906 2.68856 7.68092C2.65226 7.74277 2.63028 7.81197 2.62424 7.88344C2.61819 7.9549 2.62824 8.02681 2.65364 8.09388C2.67904 8.16095 2.71915 8.22148 2.77102 8.27101C2.85622 8.35417 2.96716 8.4059 3.08563 8.41771C3.2041 8.42952 3.32307 8.40071 3.42302 8.33601C4.78904 7.46107 6.37781 6.99732 8.00002 7.00001C9.62188 6.99751 11.2103 7.46125 12.576 8.33601C12.782 8.46801 13.056 8.44401 13.229 8.27101ZM11.046 10.454C11.272 10.228 11.231 9.84901 10.946 9.70401C10.0335 9.23966 9.02387 8.99839 8.00002 9.00001C6.94002 9.00001 5.93801 9.25401 5.05401 9.70401C4.76901 9.84901 4.72801 10.228 4.95402 10.454L4.96901 10.469C5.12901 10.629 5.37601 10.659 5.58001 10.559C6.33324 10.1899 7.16119 9.99861 8.00002 10C8.86802 10 9.69002 10.201 10.42 10.56C10.623 10.66 10.87 10.63 11.03 10.469L11.046 10.454ZM9.06002 12.44C9.25602 12.244 9.25802 11.92 9.02002 11.78C8.7115 11.5964 8.35905 11.4996 8.00002 11.5C7.64098 11.4996 7.28853 11.5964 6.98002 11.78C6.74202 11.92 6.74402 12.244 6.94002 12.44L7.64602 13.146C7.73978 13.2397 7.86693 13.2924 7.99952 13.2924C8.1321 13.2924 8.25925 13.2397 8.35301 13.146L9.06002 12.439V12.44Z" fill="black"/>
</svg>
