<svg width="16" height="16" viewBox="0 0 16 16" fill="none" xmlns="http://www.w3.org/2000/svg">
<path d="M11.046 10.454C11.272 10.228 11.231 9.84901 10.946 9.70401C10.0335 9.23965 9.02387 8.99838 8.00001 9.00001C6.94001 9.00001 5.93801 9.25401 5.05401 9.70401C4.76901 9.84901 4.72801 10.228 4.95401 10.454L4.96901 10.469C5.12901 10.629 5.37601 10.659 5.58001 10.559C6.33324 10.1898 7.16119 9.9986 8.00001 10C8.86801 10 9.69001 10.201 10.42 10.56C10.623 10.66 10.87 10.63 11.031 10.469L11.046 10.454ZM9.06001 12.44C9.25601 12.244 9.25801 11.92 9.02001 11.78C8.7115 11.5964 8.35904 11.4996 8.00001 11.5C7.64098 11.4996 7.28853 11.5964 6.98001 11.78C6.74201 11.92 6.74401 12.244 6.94001 12.44L7.64601 13.146C7.73977 13.2397 7.86693 13.2924 7.99951 13.2924C8.13209 13.2924 8.25925 13.2397 8.35301 13.146L9.06101 12.439L9.06001 12.44Z" fill="black"/>
</svg>
