<svg xmlns="http://www.w3.org/2000/svg" width="24" height="24" viewBox="0 0 24 24" fill='currentColor'><path d="m3.115 2.105-1.42 1.41 2.69 2.69a9.96 9.96 0 0 0-2.08 6.09c0 2.76 1.12 5.26 2.93 7.07l1.42-1.42a7.96 7.96 0 0 1-.84-10.31l1.43 1.43a6 6 0 0 0 .82 7.47l1.42-1.42a3.93 3.93 0 0 1-1.18-2.82c0-.63.15-1.23.41-1.76l1.61 1.61c0 .05-.02.1-.02.15 0 .55.23 1.05.59 1.41s.86.59 1.41.59c.05 0 .1-.01.16-.02l7.62 7.62 1.41-1.41zm14.89 12.06c.19-.59.3-1.22.3-1.87 0-3.31-2.69-6-6-6-.65 0-1.28.1-1.87.3l1.71 1.71c.05-.01.11-.01.16-.01 2.21 0 4 1.79 4 4 0 .05 0 .11-.01.16zm-5.7-9.87c4.42 0 8 3.58 8 8 0 1.22-.27 2.37-.77 3.4l1.49 1.49a9.95 9.95 0 0 0 1.28-4.89c0-5.52-4.48-10-10-10-1.78 0-3.44.46-4.89 1.28l1.48 1.48c1.04-.49 2.19-.76 3.41-.76"/></svg>