<svg width="24" height="24" viewBox="0 0 24 24" xmlns="http://www.w3.org/2000/svg" fill='currentColor'><path d="M16.705 5.29L18.995 3H10.995V11L13.295 8.7C15.265 10.16 16.545 12.48 16.545 15.12C16.545 16.43 16.225 17.66 15.665 18.75C17.995 17.23 19.545 14.61 19.545 11.62C19.545 9.1 18.435 6.85 16.705 5.29Z"/><path d="M7.45502 8.88C7.45502 7.57 7.77502 6.34 8.33502 5.25C5.99502 6.77 4.45502 9.39 4.45502 12.38C4.45502 14.9 5.55502 17.15 7.29502 18.71L4.99502 21H12.995V13L10.695 15.3C8.73502 13.84 7.45502 11.52 7.45502 8.88Z"/></svg>