<svg width="16" height="16" viewBox="0 0 16 16" xmlns="http://www.w3.org/2000/svg" fill='currentColor'><g clip-path="url(#clip0_104_3657)"><path fill-rule="evenodd" clip-rule="evenodd" d="M15 5H1V13C1 13.2652 1.10536 13.5196 1.29289 13.7071C1.48043 13.8946 1.73478 14 2 14H14C14.2652 14 14.5196 13.8946 14.7071 13.7071C14.8946 13.5196 15 13.2652 15 13V5ZM15 4H1V3C1 2.73478 1.10536 2.48043 1.29289 2.29289C1.48043 2.10536 1.73478 2 2 2H14C14.2652 2 14.5196 2.10536 14.7071 2.29289C14.8946 2.48043 15 2.73478 15 3V4ZM16 3C16 2.46957 15.7893 1.96086 15.4142 1.58579C15.0391 1.21071 14.5304 1 14 1H2C1.46957 1 0.960859 1.21071 0.585786 1.58579C0.210714 1.96086 0 2.46957 0 3L0 13C0 13.5304 0.210714 14.0391 0.585786 14.4142C0.960859 14.7893 1.46957 15 2 15H14C14.5304 15 15.0391 14.7893 15.4142 14.4142C15.7893 14.0391 16 13.5304 16 13V3Z"/><path d="M3 11.5C3 11.3674 3.05268 11.2402 3.14645 11.1464C3.24021 11.0527 3.36739 11 3.5 11H4.5C4.63261 11 4.75979 11.0527 4.85355 11.1464C4.94732 11.2402 5 11.3674 5 11.5V12.5C5 12.6326 4.94732 12.7598 4.85355 12.8536C4.75979 12.9473 4.63261 13 4.5 13H3.5C3.36739 13 3.24021 12.9473 3.14645 12.8536C3.05268 12.7598 3 12.6326 3 12.5V11.5ZM7 11.5C7 11.3674 7.05268 11.2402 7.14645 11.1464C7.24021 11.0527 7.36739 11 7.5 11H8.5C8.63261 11 8.75979 11.0527 8.85355 11.1464C8.94732 11.2402 9 11.3674 9 11.5V12.5C9 12.6326 8.94732 12.7598 8.85355 12.8536C8.75979 12.9473 8.63261 13 8.5 13H7.5C7.36739 13 7.24021 12.9473 7.14645 12.8536C7.05268 12.7598 7 12.6326 7 12.5V11.5ZM11 11.5C11 11.3674 11.0527 11.2402 11.1464 11.1464C11.2402 11.0527 11.3674 11 11.5 11H12.5C12.6326 11 12.7598 11.0527 12.8536 11.1464C12.9473 11.2402 13 11.3674 13 11.5V12.5C13 12.6326 12.9473 12.7598 12.8536 12.8536C12.7598 12.9473 12.6326 13 12.5 13H11.5C11.3674 13 11.2402 12.9473 11.1464 12.8536C11.0527 12.7598 11 12.6326 11 12.5V11.5Z"/></g><defs><clipPath id="clip0_104_3657"><rect width="16" height="16"/></clipPath></defs></svg>