<svg width="16" height="16" viewBox="0 0 16 16" xmlns="http://www.w3.org/2000/svg" fill='currentColor'><g clip-path="url(#clip0_104_3662)"><path d="M2.5 4C2.63261 4 2.75979 3.94732 2.85355 3.85355C2.94732 3.75979 3 3.63261 3 3.5C3 3.36739 2.94732 3.24021 2.85355 3.14645C2.75979 3.05268 2.63261 3 2.5 3C2.36739 3 2.24021 3.05268 2.14645 3.14645C2.05268 3.24021 2 3.36739 2 3.5C2 3.63261 2.05268 3.75979 2.14645 3.85355C2.24021 3.94732 2.36739 4 2.5 4ZM4.5 3.5C4.5 3.63261 4.44732 3.75979 4.35355 3.85355C4.25979 3.94732 4.13261 4 4 4C3.86739 4 3.74021 3.94732 3.64645 3.85355C3.55268 3.75979 3.5 3.63261 3.5 3.5C3.5 3.36739 3.55268 3.24021 3.64645 3.14645C3.74021 3.05268 3.86739 3 4 3C4.13261 3 4.25979 3.05268 4.35355 3.14645C4.44732 3.24021 4.5 3.36739 4.5 3.5ZM5.5 4C5.63261 4 5.75979 3.94732 5.85355 3.85355C5.94732 3.75979 6 3.63261 6 3.5C6 3.36739 5.94732 3.24021 5.85355 3.14645C5.75979 3.05268 5.63261 3 5.5 3C5.36739 3 5.24021 3.05268 5.14645 3.14645C5.05268 3.24021 5 3.36739 5 3.5C5 3.63261 5.05268 3.75979 5.14645 3.85355C5.24021 3.94732 5.36739 4 5.5 4Z"/><path d="M2 1C1.46957 1 0.960859 1.21071 0.585786 1.58579C0.210714 1.96086 0 2.46957 0 3L0 13C0 13.5304 0.210714 14.0391 0.585786 14.4142C0.960859 14.7893 1.46957 15 2 15H14C14.5304 15 15.0391 14.7893 15.4142 14.4142C15.7893 14.0391 16 13.5304 16 13V3C16 2.46957 15.7893 1.96086 15.4142 1.58579C15.0391 1.21071 14.5304 1 14 1H2ZM14 2C14.2652 2 14.5196 2.10536 14.7071 2.29289C14.8946 2.48043 15 2.73478 15 3V5H1V3C1 2.73478 1.10536 2.48043 1.29289 2.29289C1.48043 2.10536 1.73478 2 2 2H14ZM1 13V6H5V14H2C1.73478 14 1.48043 13.8946 1.29289 13.7071C1.10536 13.5196 1 13.2652 1 13ZM6 14V6H15V13C15 13.2652 14.8946 13.5196 14.7071 13.7071C14.5196 13.8946 14.2652 14 14 14H6Z"/></g><defs><clipPath id="clip0_104_3662"><rect width="16" height="16"/></clipPath></defs></svg>