<svg width="16" height="16" viewBox="0 0 16 16" xmlns="http://www.w3.org/2000/svg" fill='currentColor'><g clip-path="url(#clip0_104_3665)"><path d="M12.633 7.65297C12.633 6.80497 12.328 6.21797 12.067 5.76097L11.987 5.63097C11.67 5.12097 11.393 4.67297 11.393 4.15097C11.393 3.52097 11.871 2.93297 12.545 2.93297C12.565 2.93297 12.584 2.93497 12.603 2.93597L12.634 2.93897C11.3702 1.77811 9.71609 1.13488 8.00003 1.13697C6.8627 1.13638 5.74309 1.41879 4.7421 1.95874C3.74111 2.49869 2.89019 3.27921 2.26603 4.22997C2.42603 4.23497 2.57903 4.23897 2.70803 4.23897C3.42503 4.23897 4.53603 4.15197 4.53603 4.15197C4.90603 4.12997 4.95003 4.67297 4.58003 4.71697C4.58003 4.71697 4.20903 4.76097 3.79503 4.78197L6.29503 12.216L7.79503 7.70997L6.72503 4.78097C6.35603 4.75897 6.00603 4.71597 6.00603 4.71597C5.63603 4.69397 5.68003 4.12797 6.04903 4.14997C6.04903 4.14997 7.18303 4.23697 7.85703 4.23697C8.57503 4.23697 9.68703 4.14997 9.68703 4.14997C10.057 4.12797 10.1 4.67197 9.73003 4.71597C9.73003 4.71597 9.35803 4.75897 8.94503 4.78097L11.425 12.158L12.109 9.87097L12.163 9.69797C12.433 8.83797 12.632 8.20297 12.632 7.65197L12.633 7.65297ZM1.13703 7.99997C1.13696 9.28871 1.49971 10.5514 2.18376 11.6437C2.86781 12.7359 3.84553 13.6135 5.00503 14.176L1.73003 5.20597C1.33786 6.08517 1.13578 7.03727 1.13703 7.99997Z"/><path d="M6.06097 14.583L8.12097 8.60003L10.23 14.38C10.244 14.413 10.26 14.444 10.279 14.474C8.91942 14.953 7.44346 14.9911 6.06097 14.583ZM14.021 4.70703C14.051 4.92603 14.068 5.16003 14.068 5.41303C14.068 6.10903 13.938 6.89203 13.546 7.87103L11.45 13.931C12.9967 13.0324 14.1312 11.5651 14.6117 9.84204C15.0921 8.11896 14.8805 6.27635 14.022 4.70703H14.021Z"/><path fill-rule="evenodd" clip-rule="evenodd" d="M0 8C0 3.589 3.589 0 8 0C12.41 0 16 3.589 16 8C16 12.411 12.41 16 8 16C3.589 16 0 12.411 0 8ZM0.367 8C0.367 12.209 3.791 15.633 8 15.633C12.208 15.633 15.632 12.209 15.632 8C15.632 3.79 12.208 0.367 8 0.367C3.79 0.367 0.367 3.79 0.367 8Z"/></g><defs><clipPath id="clip0_104_3665"><rect width="16" height="16"/></clipPath></defs></svg>