<svg width="24" height="24" viewBox="0 0 24 24" xmlns="http://www.w3.org/2000/svg" fill='currentColor'><path d="M17.5 10.5C18.99 10.5 20.37 10.97 21.5 11.76V7.5C21.5 6.39 20.61 5.5 19.5 5.5H15.5V3.5C15.5 2.39 14.61 1.5 13.5 1.5H9.5C8.39 1.5 7.5 2.39 7.5 3.5V5.5H3.5C2.39 5.5 1.51 6.39 1.51 7.5L1.5 18.5C1.5 19.61 2.39 20.5 3.5 20.5H11.18C10.75 19.59 10.5 18.58 10.5 17.5C10.5 13.63 13.63 10.5 17.5 10.5ZM9.5 3.5H13.5V5.5H9.5V3.5Z"/><path d="M17.5 12.5C14.74 12.5 12.5 14.74 12.5 17.5C12.5 20.26 14.74 22.5 17.5 22.5C20.26 22.5 22.5 20.26 22.5 17.5C22.5 14.74 20.26 12.5 17.5 12.5ZM19.15 19.85L17 17.7V14.5H18V17.29L19.85 19.14L19.15 19.85Z"/></svg>