<svg width="16" height="16" viewBox="0 0 16 16" fill="none" xmlns="http://www.w3.org/2000/svg">
<g clip-path="url(#clip0_104_3669)">
<path d="M0.102017 2.22305C-0.0332409 2.73194 -0.0323579 3.26745 0.104578 3.7759C0.241513 4.28434 0.50969 4.74786 0.882228 5.11999C1.25477 5.49212 1.71858 5.7598 2.22717 5.89618C2.73576 6.03256 3.27127 6.03286 3.78002 5.89705L10.121 12.149C9.98923 12.5967 9.9636 13.069 10.0462 13.5283C10.1287 13.9876 10.3172 14.4214 10.5966 14.7952C10.8761 15.1689 11.2388 15.4724 11.656 15.6816C12.0731 15.8907 12.5333 15.9998 13 16C13.43 15.9995 13.8547 15.9064 14.2456 15.7273C14.6365 15.5482 14.9842 15.2872 15.2654 14.9619C15.5466 14.6367 15.7545 14.2548 15.8752 13.8421C15.9959 13.4295 16.0265 12.9957 15.9649 12.5702C15.9033 12.1447 15.7509 11.7374 15.5182 11.3759C15.2854 11.0144 14.9777 10.7072 14.6158 10.475C14.2539 10.2429 13.8464 10.0912 13.4208 10.0303C12.9952 9.9694 12.5615 10.0007 12.149 10.122L5.89702 3.78105C6.03349 3.27211 6.03369 2.73622 5.8976 2.22718C5.76151 1.71813 5.49392 1.25384 5.12169 0.880897C4.74945 0.507953 4.28567 0.23948 3.77689 0.102423C3.2681 -0.0346336 2.73222 -0.0354522 2.22302 0.10005L4.36402 2.24205L4.00002 4.00005L2.24302 4.36405L0.102017 2.22305ZM13.472 11.242L14 11.268L14.287 11.713L14.732 12L14.758 12.529L15 13L14.758 13.471L14.732 14L14.287 14.287L14 14.732L13.471 14.758L13 15L12.529 14.758L12 14.732L11.713 14.287L11.268 14L11.242 13.471L11 13L11.242 12.529L11.268 12L11.713 11.713L12 11.268L12.529 11.242L13 11L13.471 11.242H13.472Z" fill="black"/>
</g>
<defs>
<clipPath id="clip0_104_3669">
<rect width="16" height="16" fill="white"/>
</clipPath>
</defs>
</svg>
