<svg width="24" height="24" viewBox="0 0 24 24" xmlns="http://www.w3.org/2000/svg" fill='currentColor'><path d="M12.73 9.76998V3.02998C12.08 2.85998 11.41 2.76998 10.73 2.76998C6.53001 2.76998 2.73001 5.98998 2.73001 10.97C2.73001 14.29 5.40001 18.22 10.73 22.77C16.06 18.22 18.73 14.29 18.73 10.97C18.73 10.56 18.69 10.16 18.64 9.76998H12.73ZM10.73 12.77C9.63001 12.77 8.73001 11.87 8.73001 10.77C8.73001 9.66998 9.63001 8.76998 10.73 8.76998C11.83 8.76998 12.73 9.66998 12.73 10.77C12.73 11.87 11.83 12.77 10.73 12.77Z"/><path d="M21.27 2.64998L19.85 1.22998L17.73 3.35998L15.61 1.22998L14.19 2.64998L16.32 4.76998L14.19 6.88998L15.61 8.30998L17.73 6.17998L19.85 8.30998L21.27 6.88998L19.14 4.76998L21.27 2.64998Z"/></svg>