<svg width="16" height="16" viewBox="0 0 16 16" fill="none" xmlns="http://www.w3.org/2000/svg">
<g clip-path="url(#clip0_104_3680)">
<path d="M9.05 0.435C8.47 -0.145 7.53 -0.145 6.95 0.435L4.047 3.339L8 7.293L11.954 3.339L9.049 0.435H9.05ZM12.66 4.046L8.708 8L12.662 11.954L15.566 9.049C16.146 8.469 16.146 7.53 15.566 6.951L12.662 4.046H12.66ZM11.954 12.66L8 8.708L4.046 12.662L6.951 15.566C7.531 16.146 8.47 16.146 9.049 15.566L11.954 12.662V12.66ZM3.34 11.954L7.292 8L3.339 4.046L0.435 6.951C-0.145 7.531 -0.145 8.47 0.435 9.049L3.339 11.954H3.34Z" fill="black"/>
</g>
<defs>
<clipPath id="clip0_104_3680">
<rect width="16" height="16" fill="white"/>
</clipPath>
</defs>
</svg>
