<svg width="16" height="16" viewBox="0 0 16 16" xmlns="http://www.w3.org/2000/svg" fill='currentColor'><g clip-path="url(#clip0_104_3678)"><path d="M7.987 16.0001C7.58527 15.9974 7.20079 15.8364 6.917 15.5521L0.45 9.08206C0.162931 8.79495 0.0016613 8.40557 0.0016613 7.99956C0.0016613 7.59355 0.162931 7.20417 0.45 6.91706L6.917 0.45006C7.05918 0.307768 7.22801 0.194889 7.41384 0.117875C7.59966 0.0408605 7.79885 0.0012207 8 0.0012207C8.20115 0.0012207 8.40034 0.0408605 8.58616 0.117875C8.77199 0.194889 8.94082 0.307768 9.083 0.45006L15.552 6.91806C15.6958 7.06157 15.8095 7.23235 15.8864 7.42038C15.9634 7.60841 16.002 7.80991 16 8.01306C15.9973 8.41479 15.8364 8.79927 15.552 9.08306L9.082 15.5521C8.93861 15.6957 8.768 15.8094 8.58014 15.8863C8.39229 15.9632 8.19098 16.0019 7.988 16.0001H7.987ZM7.639 1.17006L4.766 4.04406L8 7.27806L11.234 4.04406L8.361 1.17006C8.31363 1.12259 8.25736 1.08493 8.19541 1.05923C8.13347 1.03354 8.06706 1.02031 8 1.02031C7.93294 1.02031 7.86653 1.03354 7.80459 1.05923C7.74264 1.08493 7.68637 1.12259 7.639 1.17006ZM8.722 8.00006L11.956 11.2341L14.829 8.36106C15.029 8.16106 15.029 7.83806 14.829 7.63906L11.956 4.76606L8.722 8.00006ZM8 8.72206L4.766 11.9561L7.639 14.8291C7.839 15.0291 8.162 15.0291 8.361 14.8291L11.234 11.9561L8 8.72206ZM7.278 8.00006L4.044 4.76606L1.17 7.63906C1.07437 7.73486 1.02066 7.8647 1.02066 8.00006C1.02066 8.13542 1.07437 8.26526 1.17 8.36106L4.044 11.2341L7.278 8.00006Z"/></g><defs><clipPath id="clip0_104_3678"><rect width="16" height="16"/></clipPath></defs></svg>