<svg width="16" height="16" viewBox="0 0 16 16" xmlns="http://www.w3.org/2000/svg" fill='currentColor'><g clip-path="url(#clip0_104_3685)"><path d="M4.54 0.146C4.63371 0.052531 4.76065 2.8119e-05 4.893 0L11.107 0C11.2394 2.8119e-05 11.3663 0.052531 11.46 0.146L15.854 4.54C15.9475 4.63371 16 4.76065 16 4.893V11.107C16 11.2394 15.9475 11.3663 15.854 11.46L11.46 15.854C11.3663 15.9475 11.2394 16 11.107 16H4.893C4.76065 16 4.63371 15.9475 4.54 15.854L0.146 11.46C0.052531 11.3663 2.8119e-05 11.2394 0 11.107L0 4.893C2.8119e-05 4.76065 0.052531 4.63371 0.146 4.54L4.54 0.146ZM5.1 1L1 5.1V10.9L5.1 15H10.9L15 10.9V5.1L10.9 1H5.1Z"/><path d="M4.646 4.64592C4.69245 4.59935 4.74762 4.56241 4.80837 4.5372C4.86911 4.512 4.93423 4.49902 5 4.49902C5.06577 4.49902 5.13089 4.512 5.19163 4.5372C5.25238 4.56241 5.30756 4.59935 5.354 4.64592L8 7.29292L10.646 4.64592C10.6925 4.59943 10.7477 4.56255 10.8084 4.53739C10.8692 4.51223 10.9343 4.49929 11 4.49929C11.0657 4.49929 11.1308 4.51223 11.1916 4.53739C11.2523 4.56255 11.3075 4.59943 11.354 4.64592C11.4005 4.6924 11.4374 4.74759 11.4625 4.80833C11.4877 4.86907 11.5006 4.93417 11.5006 4.99992C11.5006 5.06566 11.4877 5.13076 11.4625 5.1915C11.4374 5.25224 11.4005 5.30743 11.354 5.35392L8.707 7.99992L11.354 10.6459C11.4005 10.6924 11.4374 10.7476 11.4625 10.8083C11.4877 10.8691 11.5006 10.9342 11.5006 10.9999C11.5006 11.0657 11.4877 11.1308 11.4625 11.1915C11.4374 11.2522 11.4005 11.3074 11.354 11.3539C11.3075 11.4004 11.2523 11.4373 11.1916 11.4624C11.1308 11.4876 11.0657 11.5005 11 11.5005C10.9343 11.5005 10.8692 11.4876 10.8084 11.4624C10.7477 11.4373 10.6925 11.4004 10.646 11.3539L8 8.70692L5.354 11.3539C5.30751 11.4004 5.25232 11.4373 5.19158 11.4624C5.13085 11.4876 5.06574 11.5005 5 11.5005C4.93426 11.5005 4.86916 11.4876 4.80842 11.4624C4.74768 11.4373 4.69249 11.4004 4.646 11.3539C4.59951 11.3074 4.56264 11.2522 4.53748 11.1915C4.51232 11.1308 4.49937 11.0657 4.49937 10.9999C4.49937 10.9342 4.51232 10.8691 4.53748 10.8083C4.56264 10.7476 4.59951 10.6924 4.646 10.6459L7.293 7.99992L4.646 5.35392C4.59944 5.30747 4.56249 5.2523 4.53729 5.19155C4.51208 5.13081 4.49911 5.06568 4.49911 4.99992C4.49911 4.93415 4.51208 4.86903 4.53729 4.80828C4.56249 4.74754 4.59944 4.69236 4.646 4.64592Z"/></g><defs><clipPath id="clip0_104_3685"><rect width="16" height="16"/></clipPath></defs></svg>