<svg width="16" height="16" viewBox="0 0 16 16" xmlns="http://www.w3.org/2000/svg" fill='currentColor'><g clip-path="url(#clip0_104_3693)"><path d="M2 0C1.46957 0 0.960859 0.210714 0.585786 0.585786C0.210714 0.960859 0 1.46957 0 2L0 14C0 14.5304 0.210714 15.0391 0.585786 15.4142C0.960859 15.7893 1.46957 16 2 16H14C14.5304 16 15.0391 15.7893 15.4142 15.4142C15.7893 15.0391 16 14.5304 16 14V2C16 1.46957 15.7893 0.960859 15.4142 0.585786C15.0391 0.210714 14.5304 0 14 0L2 0ZM5.354 4.646L8 7.293L10.646 4.646C10.6925 4.59951 10.7477 4.56264 10.8084 4.53748C10.8692 4.51232 10.9343 4.49937 11 4.49937C11.0657 4.49937 11.1308 4.51232 11.1916 4.53748C11.2523 4.56264 11.3075 4.59951 11.354 4.646C11.4005 4.69249 11.4374 4.74768 11.4625 4.80842C11.4877 4.86916 11.5006 4.93426 11.5006 5C11.5006 5.06574 11.4877 5.13084 11.4625 5.19158C11.4374 5.25232 11.4005 5.30751 11.354 5.354L8.707 8L11.354 10.646C11.4005 10.6925 11.4374 10.7477 11.4625 10.8084C11.4877 10.8692 11.5006 10.9343 11.5006 11C11.5006 11.0657 11.4877 11.1308 11.4625 11.1916C11.4374 11.2523 11.4005 11.3075 11.354 11.354C11.3075 11.4005 11.2523 11.4374 11.1916 11.4625C11.1308 11.4877 11.0657 11.5006 11 11.5006C10.9343 11.5006 10.8692 11.4877 10.8084 11.4625C10.7477 11.4374 10.6925 11.4005 10.646 11.354L8 8.707L5.354 11.354C5.30751 11.4005 5.25232 11.4374 5.19158 11.4625C5.13084 11.4877 5.06574 11.5006 5 11.5006C4.93426 11.5006 4.86916 11.4877 4.80842 11.4625C4.74768 11.4374 4.69249 11.4005 4.646 11.354C4.59951 11.3075 4.56264 11.2523 4.53748 11.1916C4.51232 11.1308 4.49937 11.0657 4.49937 11C4.49937 10.9343 4.51232 10.8692 4.53748 10.8084C4.56264 10.7477 4.59951 10.6925 4.646 10.646L7.293 8L4.646 5.354C4.55211 5.26011 4.49937 5.13278 4.49937 5C4.49937 4.86722 4.55211 4.73989 4.646 4.646C4.73989 4.55211 4.86722 4.49937 5 4.49937C5.13278 4.49937 5.26011 4.55211 5.354 4.646Z"/></g><defs><clipPath id="clip0_104_3693"><rect width="16" height="16"/></clipPath></defs></svg>