<svg width="16" height="16" viewBox="0 0 16 16" xmlns="http://www.w3.org/2000/svg" fill='currentColor'><g clip-path="url(#clip0_104_3690)"><path d="M14 1C14.2652 1 14.5196 1.10536 14.7071 1.29289C14.8946 1.48043 15 1.73478 15 2V14C15 14.2652 14.8946 14.5196 14.7071 14.7071C14.5196 14.8946 14.2652 15 14 15H2C1.73478 15 1.48043 14.8946 1.29289 14.7071C1.10536 14.5196 1 14.2652 1 14V2C1 1.73478 1.10536 1.48043 1.29289 1.29289C1.48043 1.10536 1.73478 1 2 1H14ZM2 0C1.46957 0 0.960859 0.210714 0.585786 0.585786C0.210714 0.960859 0 1.46957 0 2L0 14C0 14.5304 0.210714 15.0391 0.585786 15.4142C0.960859 15.7893 1.46957 16 2 16H14C14.5304 16 15.0391 15.7893 15.4142 15.4142C15.7893 15.0391 16 14.5304 16 14V2C16 1.46957 15.7893 0.960859 15.4142 0.585786C15.0391 0.210714 14.5304 0 14 0L2 0Z"/><path d="M4.64599 4.64592C4.69244 4.59935 4.74761 4.56241 4.80836 4.5372C4.8691 4.512 4.93423 4.49902 4.99999 4.49902C5.06576 4.49902 5.13088 4.512 5.19163 4.5372C5.25237 4.56241 5.30755 4.59935 5.35399 4.64592L7.99999 7.29292L10.646 4.64592C10.6925 4.59943 10.7477 4.56255 10.8084 4.53739C10.8691 4.51223 10.9342 4.49929 11 4.49929C11.0657 4.49929 11.1308 4.51223 11.1916 4.53739C11.2523 4.56255 11.3075 4.59943 11.354 4.64592C11.4005 4.6924 11.4374 4.74759 11.4625 4.80833C11.4877 4.86907 11.5006 4.93417 11.5006 4.99992C11.5006 5.06566 11.4877 5.13076 11.4625 5.1915C11.4374 5.25224 11.4005 5.30743 11.354 5.35392L8.70699 7.99992L11.354 10.6459C11.4005 10.6924 11.4374 10.7476 11.4625 10.8083C11.4877 10.8691 11.5006 10.9342 11.5006 10.9999C11.5006 11.0657 11.4877 11.1308 11.4625 11.1915C11.4374 11.2522 11.4005 11.3074 11.354 11.3539C11.3075 11.4004 11.2523 11.4373 11.1916 11.4624C11.1308 11.4876 11.0657 11.5005 11 11.5005C10.9342 11.5005 10.8691 11.4876 10.8084 11.4624C10.7477 11.4373 10.6925 11.4004 10.646 11.3539L7.99999 8.70692L5.35399 11.3539C5.30751 11.4004 5.25232 11.4373 5.19158 11.4624C5.13084 11.4876 5.06574 11.5005 4.99999 11.5005C4.93425 11.5005 4.86915 11.4876 4.80841 11.4624C4.74767 11.4373 4.69248 11.4004 4.64599 11.3539C4.59951 11.3074 4.56263 11.2522 4.53747 11.1915C4.51231 11.1308 4.49936 11.0657 4.49936 10.9999C4.49936 10.9342 4.51231 10.8691 4.53747 10.8083C4.56263 10.7476 4.59951 10.6924 4.64599 10.6459L7.29299 7.99992L4.64599 5.35392C4.59943 5.30747 4.56249 5.2523 4.53728 5.19155C4.51207 5.13081 4.4991 5.06568 4.4991 4.99992C4.4991 4.93415 4.51207 4.86903 4.53728 4.80828C4.56249 4.74754 4.59943 4.69236 4.64599 4.64592Z"/></g><defs><clipPath id="clip0_104_3690"><rect width="16" height="16"/></clipPath></defs></svg>