<svg width="16" height="16" viewBox="0 0 16 16" fill="none" xmlns="http://www.w3.org/2000/svg">
<g clip-path="url(#clip0_104_3704)">
<path fill-rule="evenodd" clip-rule="evenodd" d="M6.5 12C7.22227 12 7.93747 11.8577 8.60476 11.5813C9.27205 11.3049 9.87837 10.8998 10.3891 10.3891C10.8998 9.87837 11.3049 9.27205 11.5813 8.60476C11.8577 7.93747 12 7.22227 12 6.5C12 5.77773 11.8577 5.06253 11.5813 4.39524C11.3049 3.72795 10.8998 3.12163 10.3891 2.61091C9.87837 2.10019 9.27205 1.69506 8.60476 1.41866C7.93747 1.14226 7.22227 1 6.5 1C5.04131 1 3.64236 1.57946 2.61091 2.61091C1.57946 3.64236 1 5.04131 1 6.5C1 7.95869 1.57946 9.35764 2.61091 10.3891C3.64236 11.4205 5.04131 12 6.5 12ZM13 6.5C13 8.22391 12.3152 9.87721 11.0962 11.0962C9.87721 12.3152 8.22391 13 6.5 13C4.77609 13 3.12279 12.3152 1.90381 11.0962C0.684819 9.87721 0 8.22391 0 6.5C0 4.77609 0.684819 3.12279 1.90381 1.90381C3.12279 0.684819 4.77609 0 6.5 0C8.22391 0 9.87721 0.684819 11.0962 1.90381C12.3152 3.12279 13 4.77609 13 6.5Z" fill="black"/>
<path d="M10.344 11.742C10.374 11.782 10.406 11.82 10.442 11.857L14.292 15.707C14.4795 15.8947 14.7339 16.0001 14.9991 16.0002C15.2644 16.0003 15.5189 15.895 15.7065 15.7075C15.8941 15.52 15.9996 15.2656 15.9997 15.0004C15.9998 14.7351 15.8945 14.4807 15.707 14.293L11.857 10.443C11.8212 10.4068 11.7828 10.3734 11.742 10.343C11.3497 10.8779 10.8783 11.35 10.344 11.743V11.742Z" fill="black"/>
<path fill-rule="evenodd" clip-rule="evenodd" d="M3 6.5C3 6.36739 3.05268 6.24021 3.14645 6.14645C3.24021 6.05268 3.36739 6 3.5 6H9.5C9.63261 6 9.75979 6.05268 9.85355 6.14645C9.94732 6.24021 10 6.36739 10 6.5C10 6.63261 9.94732 6.75979 9.85355 6.85355C9.75979 6.94732 9.63261 7 9.5 7H3.5C3.36739 7 3.24021 6.94732 3.14645 6.85355C3.05268 6.75979 3 6.63261 3 6.5Z" fill="black"/>
</g>
<defs>
<clipPath id="clip0_104_3704">
<rect width="16" height="16" fill="white"/>
</clipPath>
</defs>
</svg>
