<svg xmlns="http://www.w3.org/2000/svg" width="24" height="24" viewBox="0 0 24 24" fill='currentColor'><path d="M3.423 21.75v-4.5h1.5v4.5zm3.692 0v-4.5h1.5v4.5zm3.693 0v-4.5h1.5v4.5zm3.692 0v-4.5h6.077v4.5zm2.404-8.25v-2.75h-3.712V4.5h1.5v4.75h2.212V4.5h1.5v4.75h1.711v1.5h-1.711v2.75zm-11.52 0v-3.442q0-.746.532-1.277a1.74 1.74 0 0 1 1.276-.531H9a.3.3 0 0 0 .221-.086.3.3 0 0 0 .087-.222V6.308a.3.3 0 0 0-.087-.221A.3.3 0 0 0 9 6H5.385V4.5H9q.746 0 1.277.531t.53 1.277v1.634q0 .746-.53 1.277A1.74 1.74 0 0 1 9 9.75H7.192a.3.3 0 0 0-.22.086.3.3 0 0 0-.088.222V12h3.808v1.5z"/></svg>