<svg xmlns="http://www.w3.org/2000/svg" width="24" height="24" viewBox="0 0 24 24" fill='currentColor'><path d="M11.25 21.75v-4.496l-3.5 3.45-1.054-1.054 4.554-4.554V12.75H8.904L4.35 17.304 3.296 16.25l3.45-3.5H2.25v-1.5h4.496l-3.45-3.5L4.35 6.696l4.554 4.554h2.346V8.904L6.696 4.35 7.75 3.296l3.5 3.45V2.25h1.5v4.496l3.5-3.45 1.054 1.054-4.554 4.554v2.346h2.346l4.554-4.554 1.054 1.054-3.45 3.5h4.496v1.5h-4.496l3.45 3.5-1.054 1.054-4.554-4.554H12.75v2.346l4.554 4.554-1.054 1.054-3.5-3.45v4.496z"/></svg>