<svg xmlns="http://www.w3.org/2000/svg" width="24" height="24" viewBox="0 0 24 24" fill='currentColor'><path d="M12.048 6.135q-.758 0-1.302-.544a1.78 1.78 0 0 1-.544-1.302q0-.759.544-1.302a1.78 1.78 0 0 1 1.302-.545q.758 0 1.302.545.544.543.544 1.302 0 .757-.544 1.302a1.78 1.78 0 0 1-1.302.544m5.115 15.634V16.75h-6.865V9q0-.729.51-1.24.511-.51 1.24-.51a1.7 1.7 0 0 1 .87.229q.393.228.884.794 1.384 1.64 2.454 2.248 1.069.608 2.465.71v1.5a6.9 6.9 0 0 1-2.65-.686 9.2 9.2 0 0 1-2.35-1.649v4.431h4.942v6.942zm-7.115 0q-1.97 0-3.37-1.4T5.279 17q0-1.77 1.138-3.088 1.139-1.318 2.882-1.61v1.53a3.35 3.35 0 0 0-1.803 1.137Q6.78 15.833 6.78 17q0 1.366.952 2.317t2.317.952q1.167 0 2.03-.716a3.35 3.35 0 0 0 1.138-1.803h1.53a4.65 4.65 0 0 1-1.6 2.872q-1.326 1.147-3.098 1.147"/></svg>