<svg xmlns="http://www.w3.org/2000/svg" width="24" height="24" viewBox="0 0 24 24" fill='currentColor'><path d="M12 20q1.333 0 2.57-.421a7.7 7.7 0 0 0 2.272-1.233A8.05 8.05 0 0 0 12 16.75q-1.333 0-2.57.397a7.4 7.4 0 0 0-2.272 1.2q1.035.81 2.272 1.232 1.237.42 2.57.421m2.458-8.363-1.07-1.07a1.8 1.8 0 0 0 .268-.508 1.7 1.7 0 0 0 .094-.559q0-.721-.514-1.235A1.68 1.68 0 0 0 12 7.75a1.7 1.7 0 0 0-.559.094 1.8 1.8 0 0 0-.508.268l-1.07-1.07q.443-.396.99-.594a3.4 3.4 0 0 1 1.151-.198q1.35 0 2.298.948a3.13 3.13 0 0 1 .948 2.298q0 .605-.198 1.152t-.594.989m5.527 5.526L18.89 16.07A8 8 0 0 0 20 12q-.001-3.348-2.326-5.674Q15.35 4 12 4a8 8 0 0 0-4.07 1.11L6.838 4.016A9.56 9.56 0 0 1 12 2.5q1.972 0 3.705.748a9.6 9.6 0 0 1 3.016 2.03 9.6 9.6 0 0 1 2.03 3.017A9.25 9.25 0 0 1 21.5 12q0 1.382-.387 2.694a9.6 9.6 0 0 1-1.128 2.47M11.996 21.5a9.2 9.2 0 0 1-3.7-.749A9.6 9.6 0 0 1 5.28 18.72a9.6 9.6 0 0 1-2.031-3.016A9.2 9.2 0 0 1 2.5 12q0-1.504.451-2.923.45-1.419 1.338-2.64L1.28 3.404l1.069-1.07L21.86 21.846l-1.069 1.07L5.39 7.535A7.8 7.8 0 0 0 4 12q0 1.486.518 2.842a7.8 7.8 0 0 0 1.505 2.45 11 11 0 0 1 2.837-1.505A9.3 9.3 0 0 1 12 15.25q1.142 0 2.251.306 1.11.306 2.124.829l2.344 2.344a9.2 9.2 0 0 1-3.086 2.064 9.6 9.6 0 0 1-3.637.707"/></svg>