<svg xmlns="http://www.w3.org/2000/svg" width="24" height="24" viewBox="0 0 24 24" fill='currentColor'><path d="M11.997 2.5a9.2 9.2 0 0 1 3.698.749q1.725.75 3.017 2.04a9.7 9.7 0 0 1 2.039 3.015q.75 1.725.749 3.699 0 1.95-.749 3.685a9.6 9.6 0 0 1-2.04 3.024 9.7 9.7 0 0 1-3.015 2.039q-1.725.75-3.699.749-1.95 0-3.683-.747a9.6 9.6 0 0 1-3.026-2.041 9.6 9.6 0 0 1-2.04-3.026 9.2 9.2 0 0 1-.748-3.683q0-1.975.749-3.7a9.7 9.7 0 0 1 2.04-3.015A9.6 9.6 0 0 1 8.313 3.25a9.2 9.2 0 0 1 3.684-.749M12 20q3.325 0 5.663-2.337T20 12t-2.337-5.662T12 4 6.338 6.338 4 12t2.338 5.663T12 20M10.154 7.385q0 .767.54 1.306.538.54 1.306.54.767 0 1.307-.54t.54-1.306q0-.768-.54-1.307A1.78 1.78 0 0 0 12 5.538q-.767 0-1.307.54t-.54 1.307M12 10.154q-1.223 0-2.688.6T7.846 12.46v3.693q0 1.023 1.455 1.72t3.16.557v-1.85a5.4 5.4 0 0 1-1.512-.115 4.2 4.2 0 0 1-1.257-.493q.105-.527.808-.865a3.4 3.4 0 0 1 1.5-.339q.798 0 1.553.362.755.36.755.934v1.954q1.003-.352 1.425-.871.42-.52.42-.994V12.46q0-1.107-1.464-1.707-1.467-.6-2.689-.6m-.001 4.154q-.486 0-.82-.335a1.12 1.12 0 0 1-.333-.82q0-.486.335-.82.336-.333.82-.333.486 0 .82.335t.333.82-.335.819a1.12 1.12 0 0 1-.82.334"/></svg>