<svg xmlns="http://www.w3.org/2000/svg" width="24" height="24" viewBox="0 0 24 24" fill='currentColor'><path d="m21.264 22.308-2.931-2.906a3.4 3.4 0 0 1-.934.446 3.6 3.6 0 0 1-1.053.152q-1.511 0-2.587-1.075t-1.076-2.585 1.075-2.583 2.584-1.074 2.584 1.073T20 16.336a3.5 3.5 0 0 1-.613 2.003l2.92 2.915zm-15.61-2.299q-1.508 0-2.58-1.073Q2 17.862 2 16.336q0-1.506 1.073-2.58 1.074-1.073 2.58-1.073 1.526 0 2.6 1.073 1.074 1.074 1.074 2.58a3.54 3.54 0 0 1-1.074 2.6 3.54 3.54 0 0 1-2.6 1.073m0-1.5q.912 0 1.542-.63t.631-1.543q0-.888-.63-1.52a2.1 2.1 0 0 0-1.543-.633q-.889 0-1.521.632a2.07 2.07 0 0 0-.633 1.522q0 .91.633 1.542.633.63 1.52.63m10.692 0q.889 0 1.521-.63.633-.63.633-1.543 0-.888-.633-1.52a2.07 2.07 0 0 0-1.52-.633q-.913 0-1.543.632-.63.633-.631 1.522 0 .91.63 1.542.631.63 1.543.63M5.654 9.337q-1.508 0-2.58-1.074Q2 7.189 2 5.663q0-1.506 1.073-2.58Q4.147 2.01 5.653 2.01q1.526 0 2.6 1.073 1.074 1.074 1.074 2.58a3.54 3.54 0 0 1-1.074 2.6 3.54 3.54 0 0 1-2.6 1.074m10.692 0a3.54 3.54 0 0 1-2.599-1.074 3.54 3.54 0 0 1-1.074-2.6q0-1.506 1.074-2.58a3.54 3.54 0 0 1 2.6-1.073q1.506 0 2.58 1.073Q20 4.157 20 5.663q0 1.526-1.073 2.6-1.074 1.074-2.58 1.074m-10.692-1.5q.912 0 1.542-.631.63-.63.631-1.542 0-.89-.63-1.522a2.1 2.1 0 0 0-1.543-.632q-.889 0-1.521.632A2.07 2.07 0 0 0 3.5 5.664q0 .91.633 1.542.633.63 1.52.63m10.692 0q.889 0 1.521-.631.633-.63.633-1.542 0-.89-.633-1.522a2.07 2.07 0 0 0-1.52-.632q-.913 0-1.543.632-.63.633-.631 1.522 0 .91.63 1.542.631.63 1.543.63"/></svg>