<svg xmlns="http://www.w3.org/2000/svg" width="24" height="24" viewBox="0 0 24 24" fill='currentColor'><path d="M5.385 21.115a2.4 2.4 0 0 1-1.771-.729 2.4 2.4 0 0 1-.73-1.77q0-.84.496-1.488.495-.648 1.255-.895V7.767a2.54 2.54 0 0 1-1.255-.895 2.38 2.38 0 0 1-.495-1.487q0-1.042.729-1.771a2.4 2.4 0 0 1 1.77-.73q.84 0 1.488.496.648.495.895 1.255h8.466q.233-.76.882-1.255.65-.495 1.5-.495 1.042 0 1.771.729.73.729.73 1.77 0 .852-.496 1.501-.495.65-1.255.882v8.466q.76.247 1.255.895.495.647.495 1.487 0 1.042-.729 1.771a2.4 2.4 0 0 1-1.77.73q-.84 0-1.488-.496a2.54 2.54 0 0 1-.895-1.255H7.767a2.54 2.54 0 0 1-.895 1.255q-.647.495-1.487.495m0-14.73q.424 0 .712-.288a.97.97 0 0 0 .288-.712.97.97 0 0 0-.288-.713.97.97 0 0 0-.712-.287.97.97 0 0 0-.713.287.97.97 0 0 0-.287.713q0 .424.287.712.288.288.713.288m13.23 0q.425 0 .713-.288a.97.97 0 0 0 .287-.712.97.97 0 0 0-.287-.713.97.97 0 0 0-.713-.287.97.97 0 0 0-.712.287.97.97 0 0 0-.288.713q0 .424.288.712.287.288.712.288M7.767 17.865h8.466a2.46 2.46 0 0 1 1.632-1.632V7.767a2.4 2.4 0 0 1-1.024-.608 2.4 2.4 0 0 1-.608-1.024H7.767a2.46 2.46 0 0 1-1.632 1.632v8.466a2.46 2.46 0 0 1 1.632 1.632m10.848 1.75q.425 0 .713-.287a.97.97 0 0 0 .287-.713.97.97 0 0 0-.287-.712.97.97 0 0 0-.713-.288.97.97 0 0 0-.712.288.97.97 0 0 0-.288.712q0 .425.288.713.287.287.712.287m-13.23 0q.424 0 .712-.287a.97.97 0 0 0 .288-.713.97.97 0 0 0-.288-.712.97.97 0 0 0-.712-.288.97.97 0 0 0-.713.288.97.97 0 0 0-.287.712q0 .425.287.713.288.287.713.287"/></svg>