<svg xmlns="http://www.w3.org/2000/svg" width="24" height="24" viewBox="0 0 24 24" fill='currentColor'><path d="M22.5 13.462h-4.575a5.1 5.1 0 0 0-.525-1.5h3.554q-.071-.3-.22-.498-.15-.197-.42-.335a5.6 5.6 0 0 0-1.56-.579 9 9 0 0 0-1.879-.185q-.18 0-.35.015t-.35.053a4.8 4.8 0 0 0-.832-.717 5.7 5.7 0 0 0-.976-.527q.594-.154 1.22-.239a10 10 0 0 1 1.288-.084q1.209 0 2.292.255t2.035.752q.64.34.969.942.33.6.329 1.418zm-5.625-5.539q-1.125 0-1.914-.79a2.62 2.62 0 0 1-.788-1.921q0-1.13.788-1.921a2.6 2.6 0 0 1 1.914-.791q1.125 0 1.913.791.789.79.789 1.92a2.62 2.62 0 0 1-.788 1.921 2.6 2.6 0 0 1-1.914.791m0-1.5q.512 0 .857-.348.345-.347.345-.861t-.346-.864a1.16 1.16 0 0 0-.857-.35q-.51 0-.856.348-.345.347-.345.861t.346.864.857.35M1.5 13.461v-1.228q0-.818.329-1.418.33-.601.969-.942a8.7 8.7 0 0 1 2.035-.752 10 10 0 0 1 2.292-.255q.663 0 1.289.084.625.085 1.219.239a5.7 5.7 0 0 0-.976.527q-.45.304-.832.717a3 3 0 0 0-.35-.053 4 4 0 0 0-.35-.015q-1.027 0-1.879.185a5.6 5.6 0 0 0-1.56.579q-.27.138-.42.335t-.22.497H6.6a5.1 5.1 0 0 0-.525 1.5zm5.626-5.538q-1.125 0-1.915-.79a2.62 2.62 0 0 1-.788-1.921q0-1.13.788-1.921A2.6 2.6 0 0 1 7.125 2.5q1.125 0 1.914.791.788.79.788 1.92a2.62 2.62 0 0 1-.788 1.921 2.6 2.6 0 0 1-1.913.791m0-1.5q.51 0 .856-.348.345-.347.345-.861t-.346-.864A1.16 1.16 0 0 0 7.125 4q-.512 0-.857.348-.345.347-.345.861t.346.864.856.35M12 16.587q-.72-.001-1.22-.506a1.68 1.68 0 0 1-.501-1.225v-2.942q0-.72.5-1.226.503-.505 1.221-.505.72 0 1.22.505.501.507.501 1.226v2.942q0 .72-.5 1.225-.503.506-1.221.506m-.596 4.913v-2.002q-1.713-.217-2.881-1.536t-1.167-3.106h1.183q0 1.45 1.01 2.47T12 18.346t2.451-1.022a3.38 3.38 0 0 0 1.01-2.468h1.193q0 1.789-1.172 3.106-1.173 1.32-2.886 1.536V21.5z"/></svg>