<svg xmlns="http://www.w3.org/2000/svg" width="24" height="24" viewBox="0 0 24 24" fill='currentColor'><path d="M12.002 21.5a9.3 9.3 0 0 1-3.706-.748 9.6 9.6 0 0 1-3.016-2.03 9.6 9.6 0 0 1-2.032-3.016 9.25 9.25 0 0 1-.748-3.704q0-1.972.748-3.706a9.6 9.6 0 0 1 2.03-3.016 9.6 9.6 0 0 1 3.017-2.032A9.25 9.25 0 0 1 12 2.5q1.036 0 2.008.208a9 9 0 0 1 1.857.607v1.683a8.2 8.2 0 0 0-1.83-.735A7.8 7.8 0 0 0 12 4Q8.675 4 6.338 6.338 4 8.675 4 12t2.338 5.663T12 20t5.663-2.337T20 12q0-.761-.143-1.478a8.7 8.7 0 0 0-.4-1.387h1.612A9.4 9.4 0 0 1 21.5 12q0 1.972-.748 3.705a9.6 9.6 0 0 1-2.03 3.016 9.6 9.6 0 0 1-3.016 2.03 9.25 9.25 0 0 1-3.704.749M20.25 6.75v-2h-2v-1.5h2v-2h1.5v2h2v1.5h-2v2zm-4.844 4.058q.546 0 .926-.383.38-.381.38-.927t-.383-.926a1.27 1.27 0 0 0-.928-.38q-.545 0-.925.383-.38.381-.38.927t.382.926.928.38m-6.808 0q.546 0 .926-.383.38-.381.38-.927t-.382-.926a1.27 1.27 0 0 0-.928-.38q-.546 0-.926.383-.38.381-.38.927t.382.926.928.38M12 17.192a5 5 0 0 0 2.868-.876A5.23 5.23 0 0 0 16.774 14H7.227a5.23 5.23 0 0 0 1.905 2.316 5 5 0 0 0 2.868.876"/></svg>