<svg xmlns="http://www.w3.org/2000/svg" width="24" height="24" viewBox="0 0 24 24" fill='currentColor'><path d="M12 21.48q-3.244-.884-5.372-3.818T4.5 11.1V5.346L12 2.54l7.5 2.807v5.666a8 8 0 0 0-.735-.257 7 7 0 0 0-.765-.18V6.391L12 4.15 6 6.39v4.71q0 1.328.375 2.595.375 1.266 1.034 2.367a9.4 9.4 0 0 0 1.574 1.977 7.9 7.9 0 0 0 1.986 1.4l.03-.01a5.5 5.5 0 0 0 1.23 1.969q-.063.02-.114.041a1 1 0 0 1-.115.042m5 .02q-1.873 0-3.187-1.314Q12.5 18.874 12.5 17t1.313-3.187T17 12.5t3.186 1.313Q21.5 15.128 21.5 17t-1.314 3.186Q18.874 21.5 17 21.5m-.442-1.75h.884v-2.308h2.308v-.884h-2.308V14.25h-.884v2.308H14.25v.884h2.308z"/></svg>