<svg xmlns="http://www.w3.org/2000/svg" width="24" height="24" viewBox="0 0 24 24" fill='currentColor'><path d="M11.25 8.75v-3h-3v-1.5h3v-3h1.5v3h3v1.5h-3v3zM7.154 21.558q-.73 0-1.24-.511-.51-.51-.51-1.24 0-.727.51-1.239.51-.51 1.24-.51.729 0 1.24.51.51.51.51 1.24 0 .729-.51 1.239-.511.51-1.24.51m9.692 0q-.729 0-1.24-.511-.51-.51-.51-1.24 0-.727.51-1.239.511-.51 1.24-.51.73 0 1.24.51t.51 1.24-.51 1.239-1.24.51M1.5 3.75v-1.5h2.862l4.172 8.808h7L19.32 4.25h1.708l-4.6 8.308H8.1l-1.37 2.5h11.866v1.5H4.183l2.86-5.15-3.64-7.658z"/></svg>