<svg xmlns="http://www.w3.org/2000/svg" width="24" height="24" viewBox="0 0 24 24" fill='currentColor'><path d="M1.5 20.5v-9.25L8 6.616l6.644 4.74q-.263.263-.525.54-.262.275-.525.538L8 8.47 3 12v7h2.366v-4.75h5.268v6.25h-1.5v-4.75H6.866v4.75zm21-17v9.346a5.3 5.3 0 0 0-.699-.582A6 6 0 0 0 21 11.8V5h-9.308v1.794l-1.5-1.084V3.5zm-5.384 5.384h1.768V7.115h-1.768zM18 22.5q-1.873 0-3.187-1.314Q13.5 19.874 13.5 18t1.313-3.187T18 13.5t3.186 1.313Q22.5 16.127 22.5 18t-1.314 3.186Q19.874 22.5 18 22.5m-.442-1.558h.884v-2.5h2.5v-.884h-2.5v-2.5h-.884v2.5h-2.5v.884h2.5z"/></svg>