<svg xmlns="http://www.w3.org/2000/svg" width="24" height="24" viewBox="0 0 24 24" fill='currentColor'><path d="M2.5 19.5v-5.096a2.42 2.42 0 0 0 1.427-.838Q4.5 12.892 4.5 12q0-.893-.573-1.566A2.42 2.42 0 0 0 2.5 9.596V4.5h19v15zM4 18h16V6H4v2.55a4.1 4.1 0 0 1 1.463 1.462Q6 10.926 6 12q0 1.076-.537 1.988A4.1 4.1 0 0 1 4 15.45zm4.889-2.466 8.803-2.33a.86.86 0 0 0 .549-.415.85.85 0 0 0 .101-.67.75.75 0 0 0-.408-.505.92.92 0 0 0-.665-.068l-2.488.67-4-3.75-1.227.292 2.4 4.2-2.573.638-1.25-.95-.777.212z"/></svg>