<svg xmlns="http://www.w3.org/2000/svg" width="24" height="24" viewBox="0 0 24 24" fill='currentColor'><path d="M6.183 18.096a2.5 2.5 0 0 1-1.84-.757 2.5 2.5 0 0 1-.756-1.839H1.625v-10h15.039l5.711 5.558V15.5h-1.808q0 1.081-.757 1.839a2.5 2.5 0 0 1-1.839.757 2.5 2.5 0 0 1-1.839-.757 2.5 2.5 0 0 1-.757-1.839H8.779q0 1.077-.757 1.837a2.5 2.5 0 0 1-1.84.759m8.442-7.807h4.73L15.953 7h-1.327zm-5.75 0h4.25V7h-4.25zm-5.75 0h4.25V7h-4.25zm3.058 6.461q.525 0 .887-.363.363-.362.363-.887t-.363-.887a1.2 1.2 0 0 0-.887-.363q-.525 0-.888.363a1.2 1.2 0 0 0-.362.887q0 .525.362.887.363.363.888.363m11.788 0q.525 0 .888-.363.362-.362.362-.887t-.362-.887a1.2 1.2 0 0 0-.888-.363q-.525 0-.887.363a1.2 1.2 0 0 0-.363.887q0 .525.363.887.362.363.887.363M3.125 14h.992q.32-.45.855-.773t1.21-.323 1.197.309q.52.308.869.787h7.658q.32-.45.854-.773.537-.323 1.211-.323.675 0 1.196.309.521.308.87.787h.838v-2.211H3.125z"/></svg>