<svg xmlns="http://www.w3.org/2000/svg" width="24" height="24" viewBox="0 0 24 24" fill='currentColor'><path d="M18.577 8.766q-.635.632-1.458.96a4.5 4.5 0 0 1-1.66.328 4.4 4.4 0 0 1-1.643-.318 4.1 4.1 0 0 1-1.443-.97L10.498 6.89a2.7 2.7 0 0 0-.93-.62 2.87 2.87 0 0 0-2.136 0 2.7 2.7 0 0 0-.93.62L4.8 8.583l-1.07-1.07 1.693-1.701a4.2 4.2 0 0 1 1.443-.955 4.32 4.32 0 0 1 4.686.955l1.875 1.875q.437.44.956.646t1.077.206 1.078-.207a2.8 2.8 0 0 0 .96-.645L19.2 5.994l1.07 1.07zm0 4.711a4.2 4.2 0 0 1-1.451.955 4.5 4.5 0 0 1-1.651.318 4.5 4.5 0 0 1-1.65-.318 4.2 4.2 0 0 1-1.452-.955l-1.875-1.875a2.7 2.7 0 0 0-.93-.62 2.87 2.87 0 0 0-2.136 0 2.7 2.7 0 0 0-.93.62L4.8 13.294 3.73 12.25l1.693-1.727a4.2 4.2 0 0 1 1.443-.955 4.32 4.32 0 0 1 4.686.955l1.875 1.875q.434.44.95.646.515.206 1.073.206t1.084-.207.964-.645l1.702-1.692 1.07 1.069zm-.025 4.712a4.2 4.2 0 0 1-1.439.954 4.4 4.4 0 0 1-1.638.319 4.5 4.5 0 0 1-1.651-.323 4.3 4.3 0 0 1-1.451-.96l-1.9-1.865a2.7 2.7 0 0 0-.93-.62 2.87 2.87 0 0 0-2.136 0 2.7 2.7 0 0 0-.93.62l-1.702 1.692-1.044-1.044 1.692-1.727a4.2 4.2 0 0 1 1.44-.955 4.4 4.4 0 0 1 1.628-.319 4.34 4.34 0 0 1 3.061 1.274l1.875 1.875q.438.438.96.645a2.9 2.9 0 0 0 2.155 0q.52-.205.956-.645l1.702-1.693 1.044 1.07z"/></svg>