<svg xmlns="http://www.w3.org/2000/svg" width="24" height="24" viewBox="0 0 24 24" fill='currentColor'><path d="M12 16q1.672 0 2.836-1.164Q16 13.674 16 12q0-1.672-1.164-2.836Q13.674 8 12 8q-1.672 0-2.836 1.164Q8 10.326 8 12q0 1.672 1.164 2.836Q10.326 16 12 16m0-3a.97.97 0 0 1-.713-.287A.97.97 0 0 1 11 12q0-.424.287-.713A.97.97 0 0 1 12 11q.424 0 .713.287.287.288.287.713 0 .424-.287.713A.97.97 0 0 1 12 13m.002 8.5a9.3 9.3 0 0 1-3.706-.748 9.6 9.6 0 0 1-3.016-2.03 9.6 9.6 0 0 1-2.032-3.016 9.25 9.25 0 0 1-.748-3.704q0-1.972.748-3.706a9.6 9.6 0 0 1 2.03-3.016 9.6 9.6 0 0 1 3.016-2.032 9.25 9.25 0 0 1 3.704-.748q1.972 0 3.706.748a9.6 9.6 0 0 1 3.017 2.03 9.6 9.6 0 0 1 2.03 3.016 9.25 9.25 0 0 1 .749 3.704q0 1.972-.748 3.706a9.6 9.6 0 0 1-2.03 3.017 9.6 9.6 0 0 1-3.016 2.03 9.25 9.25 0 0 1-3.704.749M12 20q3.35 0 5.675-2.325T20 12t-2.325-5.675T12 4 6.325 6.325 4 12t2.325 5.675T12 20"/></svg>