<svg xmlns="http://www.w3.org/2000/svg" width="24" height="24" viewBox="0 0 24 24" fill='currentColor'><path d="M3.5 20.5v-4.25H5V19h2.75v1.5zm12.75 0V19H19v-2.75h1.5v4.25zm-4.25-2q-2.698 0-4.599-1.901-1.9-1.9-1.901-4.599 0-2.698 1.901-4.599Q9.301 5.501 12 5.5q2.698 0 4.599 1.901 1.9 1.9 1.901 4.599 0 2.698-1.901 4.599-1.9 1.9-4.599 1.901m0-1.5q2.075 0 3.537-1.463Q17 14.075 17 12t-1.463-3.537Q14.075 7 12 7T8.463 8.463 7 12t1.463 3.537T12 17M3.5 7.75V3.5h4.25V5H5v2.75zm15.5 0V5h-2.75V3.5h4.25v4.25z"/></svg>