<svg xmlns="http://www.w3.org/2000/svg" width="24" height="24" viewBox="0 0 24 24" fill='currentColor'><path d="M18.789 22.183a1.2 1.2 0 0 1-1.053-.602q-2.977-.531-5.227-2.676T9.355 13.56q-2.526 1.097-4.021 3.289-1.497 2.192-1.573 4.9h-1.5q.057-3.264 1.88-5.87 1.824-2.605 4.88-3.828-.525-2.74-.15-5.029.374-2.288 1.64-3.713l-.034-.077a.2.2 0 0 1-.015-.087q.031-.503.389-.854.359-.35.861-.35.52 0 .885.366.366.365.365.884 0 .519-.365.885a1.2 1.2 0 0 1-.885.365h-.095a.3.3 0 0 1-.11-.025 5.5 5.5 0 0 0-.962 1.927q-.315 1.11-.31 2.572a4.1 4.1 0 0 1 1.053-1.137 5.4 5.4 0 0 1 1.476-.76 8 8 0 0 1 1.618-.349 12 12 0 0 1 1.884-.054q.171-.2.398-.307.225-.107.49-.107.52 0 .886.365.365.366.365.885t-.366.885a1.2 1.2 0 0 1-.884.365q-.321 0-.606-.153a1.1 1.1 0 0 1-.446-.434q-.912-.03-1.703.066a6 6 0 0 0-1.41.334q-1.033.393-1.577 1.143-.543.75-.616 1.879a12 12 0 0 1 1.37-.23q.632-.066 1.984-.066.171-.232.42-.361.25-.13.545-.13.519 0 .885.366.366.365.365.884 0 .52-.365.884a1.2 1.2 0 0 1-.885.366 1.2 1.2 0 0 1-.56-.13 1.07 1.07 0 0 1-.415-.38q-1.296 0-1.916.067a10 10 0 0 0-1.312.24q.304 1.07 1.342 1.621 1.036.552 2.792.582.658.03 1.419-.034a20 20 0 0 0 1.543-.197q.16-.31.458-.492.297-.18.65-.18.518 0 .884.364.366.367.365.885 0 .519-.365.885a1.2 1.2 0 0 1-.885.365q-.24 0-.443-.09a1.3 1.3 0 0 1-.374-.258q-.801.13-1.547.204a14 14 0 0 1-1.403.073 9 9 0 0 1-1.735-.152q-.79-.152-1.423-.465a8.8 8.8 0 0 0 2.476 2.61 8.15 8.15 0 0 0 3.218 1.343 1.15 1.15 0 0 1 .904-.428q.52 0 .885.365.366.366.366.885 0 .518-.366.884a1.2 1.2 0 0 1-.884.366"/></svg>