<svg xmlns="http://www.w3.org/2000/svg" width="24" height="24" viewBox="0 0 24 24" fill='currentColor'><path d="M9 21.5q-1.353 0-2.533-.512a6.6 6.6 0 0 1-2.061-1.394 6.6 6.6 0 0 1-1.394-2.061A6.3 6.3 0 0 1 2.5 15q0-1.9.997-3.484a6.3 6.3 0 0 1 2.669-2.381 6.3 6.3 0 0 1 1.227-1.751 6.2 6.2 0 0 1 1.742-1.219 6.2 6.2 0 0 1 2.347-2.658Q13.062 2.5 15 2.5q1.353 0 2.533.511a6.6 6.6 0 0 1 2.061 1.395 6.6 6.6 0 0 1 1.394 2.061Q21.5 7.646 21.5 9q0 1.99-.992 3.52a6.5 6.5 0 0 1-2.674 2.345 6.3 6.3 0 0 1-1.223 1.746 6.3 6.3 0 0 1-1.746 1.223 6.44 6.44 0 0 1-2.362 2.66Q10.939 21.5 9 21.5m.02-1.5q.968 0 1.909-.394a4.15 4.15 0 0 0 1.59-1.164 6.1 6.1 0 0 1-2.806-.381 6.7 6.7 0 0 1-2.288-1.477 6.6 6.6 0 0 1-1.485-2.282 6.06 6.06 0 0 1-.382-2.802q-.76.66-1.159 1.585A4.8 4.8 0 0 0 4 15q0 1.05.4 1.955t1.075 1.58q.684.675 1.59 1.07A4.8 4.8 0 0 0 9.019 20M12 17q1.133 0 2.045-.452.913-.452 1.505-1.106-1.504.135-2.822-.39a6.8 6.8 0 0 1-2.287-1.483 6.7 6.7 0 0 1-1.494-2.283q-.525-1.312-.39-2.817a4.8 4.8 0 0 0-1.11 1.539A4.65 4.65 0 0 0 7.02 12q0 1.05.388 1.95.387.9 1.078 1.575.675.7 1.57 1.088A4.85 4.85 0 0 0 12 17m3.02-3q.45 0 .862-.075t.837-.225q.55-1.5.163-2.887-.388-1.389-1.338-2.338t-2.337-1.337-2.888.162q-.15.425-.225.837-.075.413-.075.863 0 1.05.388 1.95.387.9 1.087 1.575A4.8 4.8 0 0 0 15.02 14m3.442-1.47a4.6 4.6 0 0 0 1.134-1.533Q20.001 10.113 20 9q0-1.05-.387-1.95a4.8 4.8 0 0 0-1.088-1.575A4.8 4.8 0 0 0 15 4a4.6 4.6 0 0 0-1.964.409 4.9 4.9 0 0 0-1.567 1.149q1.504-.135 2.822.39 1.32.523 2.288 1.483a6.7 6.7 0 0 1 1.493 2.282q.525 1.314.39 2.818"/></svg>