<svg xmlns="http://www.w3.org/2000/svg" width="24" height="24" viewBox="0 0 24 24" fill='currentColor'><path d="M17.75 15.846a3.7 3.7 0 0 1-2.72-1.127A3.7 3.7 0 0 1 13.905 12q0-1.592 1.127-2.72a3.7 3.7 0 0 1 2.719-1.126q1.592 0 2.72 1.127A3.7 3.7 0 0 1 21.595 12a3.7 3.7 0 0 1-1.127 2.72 3.7 3.7 0 0 1-2.719 1.126m0-1.192q.377 0 .722-.104t.678-.312L15.512 10.6a2.8 2.8 0 0 0-.312.678q-.104.345-.104.722 0 1.108.773 1.88a2.56 2.56 0 0 0 1.881.774m2.238-1.254q.228-.342.322-.683.094-.34.094-.717a2.56 2.56 0 0 0-.773-1.88 2.56 2.56 0 0 0-1.881-.774q-.377 0-.722.104t-.678.312zM5.5 22.5v-21h13v5.462H17V5.75H7v12.5h10v-1.212h1.5V22.5zM7 19.75V21h10v-1.25zm0-15.5h10V3H7z"/></svg>