<svg xmlns="http://www.w3.org/2000/svg" width="24" height="24" viewBox="0 0 24 24" fill='currentColor'><path d="M13.75 16.933q.471 0 .917-.186t.777-.516l.87-.87-.839-.838-.87.87a1 1 0 0 1-.397.245 1.4 1.4 0 0 1-.458.078 1.4 1.4 0 0 1-.458-.077 1 1 0 0 1-.398-.247l-.95-.95q-.33-.33-.777-.499a2.58 2.58 0 0 0-1.834 0 2.2 2.2 0 0 0-.777.5l-.87.869.839.838.87-.87q.168-.168.397-.245.23-.077.458-.077t.458.076q.228.078.398.247l.95.95q.33.33.777.516.446.186.917.186m0-2.894q.471 0 .917-.186a2.4 2.4 0 0 0 .777-.517l.87-.869-.839-.838-.87.869a1 1 0 0 1-.397.246 1.4 1.4 0 0 1-.458.077q-.228 0-.458-.077a1 1 0 0 1-.398-.246l-.95-.95q-.33-.33-.777-.499a2.58 2.58 0 0 0-1.834 0 2.2 2.2 0 0 0-.777.499l-.87.87.839.838.87-.87q.168-.168.397-.245.23-.078.458-.078t.458.077q.228.078.398.246l.95.95q.33.331.777.517.446.186.917.186m0-2.895q.471 0 .917-.185.447-.186.777-.517l.87-.869-.839-.838-.87.869a1 1 0 0 1-.397.246 1.4 1.4 0 0 1-.458.077q-.228 0-.458-.077a1 1 0 0 1-.398-.246l-.95-.95q-.33-.33-.777-.5a2.58 2.58 0 0 0-1.834 0 2.2 2.2 0 0 0-.777.5l-.87.869.839.838.87-.869a1 1 0 0 1 .397-.246q.23-.077.458-.077t.458.077q.228.076.398.246l.95.95q.33.33.777.517.446.185.917.185M4.5 19.5V8.25L12 2.615l7.5 5.635V19.5zM6 18h12V9l-6-4.5L6 9z"/></svg>