<svg xmlns="http://www.w3.org/2000/svg" width="24" height="24" viewBox="0 0 24 24" fill='currentColor'><path d="M12 22.327q-3.523 0-6.011-.928-2.49-.928-2.489-2.572 0-.742.563-1.342.563-.599 1.539-1.021l1.221 1.094a5.3 5.3 0 0 0-1.283.57q-.54.34-.54.699 0 .708 1.996 1.354 1.996.645 5.004.646 3.008 0 5.004-.646T19 18.827q0-.358-.54-.7a5.3 5.3 0 0 0-1.283-.57l1.221-1.093q.977.423 1.54 1.021.562.6.562 1.342 0 1.644-2.488 2.572-2.49.928-6.012.928m0-2.879-8.5-7.523V8.564L12 .66l8.5 7.904v3.361zm-.08-4.417 6.809-6.044L12 2.697l-6.81 6.37zM9 10.25q.487 0 .82-.334.334-.333.334-.82t-.334-.82A1.12 1.12 0 0 0 9 7.942q-.487 0-.82.334a1.12 1.12 0 0 0-.334.82q0 .487.334.82.334.334.82.334m1.423 1.408a3.63 3.63 0 0 0 2.143.265 3.93 3.93 0 0 0 1.967-.944 3.27 3.27 0 0 0 1.05-1.71 2.92 2.92 0 0 0-.171-1.969zM12 7.25q.487 0 .82-.334.334-.333.334-.82t-.334-.82a1.12 1.12 0 0 0-.82-.334q-.487 0-.82.334a1.12 1.12 0 0 0-.334.82q0 .487.334.82.334.334.82.334"/></svg>