<svg xmlns="http://www.w3.org/2000/svg" width="24" height="24" viewBox="0 0 24 24" fill='currentColor'><path d="M3.5 20.5V15H5v2.946l3.35-3.35 1.054 1.054L6.054 19H9v1.5zm11.5 0V19h2.946l-3.35-3.35 1.054-1.054 3.35 3.35V15h1.5v5.5zM8.35 9.404 5 6.054V9H3.5V3.5H9V5H6.054l3.35 3.35zm7.3 0L14.596 8.35 17.946 5H15V3.5h5.5V9H19V6.054zM12 13.664q-.686 0-1.175-.49A1.6 1.6 0 0 1 10.336 12q0-.686.49-1.175A1.6 1.6 0 0 1 12 10.336q.686 0 1.175.49.489.487.489 1.174t-.49 1.175a1.6 1.6 0 0 1-1.174.489"/></svg>