<svg xmlns="http://www.w3.org/2000/svg" width="24" height="24" viewBox="0 0 24 24" fill='currentColor'><path d="M11.016 21.45a9.3 9.3 0 0 1-3.35-.994 9.6 9.6 0 0 1-2.7-2.074 9.6 9.6 0 0 1-1.81-2.909A9.3 9.3 0 0 1 2.5 12q0-3.704 2.459-6.394t6.066-3.056v1.516Q8.04 4.459 6.02 6.702 4 8.944 4 12t2.016 5.298 5 2.637zm.25-4.796v-6.435l-2.85 2.85L7.361 12l4.653-4.654L16.67 12l-1.07 1.054-2.835-2.835v6.435zm1.75 4.796v-1.515a8 8 0 0 0 2.077-.545 7.7 7.7 0 0 0 1.823-1.07l1.088 1.084a10.13 10.13 0 0 1-4.989 2.046M16.918 5.7a8.6 8.6 0 0 0-1.824-1.075 7.5 7.5 0 0 0-2.07-.56V2.55a9.7 9.7 0 0 1 2.643.687q1.26.526 2.336 1.36zm2.485 12.27-1.07-1.07a8 8 0 0 0 1.066-1.822A7.8 7.8 0 0 0 19.95 13h1.515a9.3 9.3 0 0 1-.689 2.648q-.54 1.263-1.372 2.321M19.95 11a7.8 7.8 0 0 0-.55-2.078A8 8 0 0 0 18.335 7.1l1.088-1.088q.813 1.077 1.343 2.34t.7 2.648z"/></svg>