<svg xmlns="http://www.w3.org/2000/svg" width="24" height="24" viewBox="0 0 24 24" fill='currentColor'><path d="M18.558 9.923h3.192v1.77h-2v5.365q0 .945-.652 1.597a2.17 2.17 0 0 1-1.598.653q-.945 0-1.597-.653a2.17 2.17 0 0 1-.653-1.597q0-.944.652-1.598a2.17 2.17 0 0 1 1.598-.652q.258 0 .522.066t.536.23zM3.25 19.308v-2.224q0-.75.399-1.368.4-.618 1.066-.954a14.5 14.5 0 0 1 3.001-1.096 13 13 0 0 1 4.89-.225q.904.134 1.8.411a3.8 3.8 0 0 0-.607.566q-.27.315-.474.67-.611-.14-1.268-.21t-1.307-.07q-1.377 0-2.713.33-1.338.332-2.633.962-.301.154-.478.417a1 1 0 0 0-.176.567v.724h8.188q.05.384.184.756.133.372.364.744zm7.5-7.616q-1.444 0-2.472-1.028T7.25 8.192t1.028-2.471 2.472-1.029 2.472 1.029 1.028 2.471-1.028 2.472-2.472 1.028m0-1.5q.825 0 1.412-.587.588-.588.588-1.413t-.588-1.412a1.93 1.93 0 0 0-1.412-.588q-.825 0-1.412.588a1.93 1.93 0 0 0-.588 1.412q0 .825.588 1.413.587.587 1.412.587"/></svg>