<svg xmlns="http://www.w3.org/2000/svg" width="24" height="24" viewBox="0 0 24 24" fill='currentColor'><path d="M5 19V5v4.33-.522zm2.25-6.25h5.275q.04-.405.178-.78t.341-.72H7.25zm0 4h3.704q.338-.384.755-.65.415-.265.87-.435a1.3 1.3 0 0 1-.108-.2 2 2 0 0 1-.077-.215H7.25zM3.5 20.5v-17h17v7.239a4 4 0 0 0-.653-.81A3.7 3.7 0 0 0 19 9.332V5H5v14h5.03a2.3 2.3 0 0 0-.03.37v1.13zm13.442-5q-.934 0-1.592-.658a2.17 2.17 0 0 1-.658-1.592q0-.935.658-1.592.659-.658 1.592-.658.935 0 1.593.658.657.657.657 1.592t-.657 1.592-1.593.658m-4.75 5v-1.15q0-.532.273-.978.272-.445.774-.641a9.3 9.3 0 0 1 1.805-.548 9.9 9.9 0 0 1 3.778 0q.934.183 1.824.548.501.195.774.64.272.447.272.979v1.15zM7.25 8.75h9.5v-1.5h-9.5z"/></svg>