<svg xmlns="http://www.w3.org/2000/svg" width="24" height="24" viewBox="0 0 24 24" fill='currentColor'><path d="M11.996 22.5q-2.175 0-4.093-.824a10.5 10.5 0 0 1-3.337-2.244 10.6 10.6 0 0 1-2.242-3.337 10.25 10.25 0 0 1-.824-4.09q0-2.2.824-4.111A10.6 10.6 0 0 1 4.568 4.56a10.5 10.5 0 0 1 3.337-2.24 10.3 10.3 0 0 1 4.092-.82q2.2 0 4.111.82a10.5 10.5 0 0 1 3.333 2.239 10.5 10.5 0 0 1 2.24 3.332q.819 1.913.819 4.112a10.3 10.3 0 0 1-.82 4.092 10.5 10.5 0 0 1-2.24 3.337 10.6 10.6 0 0 1-3.334 2.244q-1.912.824-4.11.824m-.046-2.92 7.606-7.605-7.606-7.606-7.606 7.606zm-3.725-4.855v-4.5h5.516l-1.32-1.35 1.054-1.054 3.154 3.154-3.154 3.154-1.054-1.054 1.32-1.35H9.725v3zM12 21q3.776 0 6.387-2.613Q21 15.776 21 12t-2.613-6.387T12 3 5.613 5.613 3 12q0 3.776 2.613 6.387Q8.224 21 12 21"/></svg>