<svg xmlns="http://www.w3.org/2000/svg" width="24" height="24" viewBox="0 0 24 24" fill='currentColor'><path d="M18.775 8.2 17.7 5.875 15.375 4.8 17.7 3.75l1.075-2.325 1.05 2.325 2.35 1.05-2.35 1.075zm0 14.375L17.7 20.25l-2.325-1.05 2.325-1.075 1.075-2.325 1.05 2.325 2.35 1.075-2.35 1.05zm-13.325-6.9 3.1-8.425h1.575l3.125 8.425H11.8l-.75-2h-3.4l-.75 2zm2.575-3.1h2.65L9.35 8.8zM9.35 18q2.5 0 4.25-1.75T15.35 12 13.6 7.75 9.35 6 5.1 7.75 3.35 12t1.75 4.25T9.35 18m0 1.5q-3.15 0-5.325-2.175T1.85 12t2.175-5.325T9.35 4.5q3.124 0 5.313 2.175Q16.85 8.85 16.85 12t-2.175 5.325T9.35 19.5"/></svg>