<svg xmlns="http://www.w3.org/2000/svg" width="24" height="24" viewBox="0 0 24 24" fill='currentColor'><path d="M11.256 20.75v-2.092q-1.305-.233-2.25-1.02-.942-.789-1.393-2.203l1.389-.577q.405 1.16 1.15 1.777.748.615 1.996.615 1.083 0 1.91-.515.83-.516.829-1.635 0-.971-.623-1.551-.621-.58-2.573-1.21-2.045-.646-2.84-1.512T8.056 8.65q0-1.509 1.06-2.376 1.06-.865 2.14-.963V3.25h1.5v2.061q1.145.153 1.923.745.78.592 1.211 1.54l-1.369.627q-.33-.723-.917-1.123-.588-.4-1.548-.4-1.13 0-1.815.55t-.685 1.4q0 .873.702 1.396.701.523 2.61 1.096 1.772.539 2.646 1.535t.873 2.392q0 1.64-1.055 2.546t-2.576 1.074v2.061z"/></svg>