<svg xmlns="http://www.w3.org/2000/svg" width="24" height="24" viewBox="0 0 24 24" fill='currentColor'><path d="m10.933 10.558-8-5.116v10.25a.3.3 0 0 0 .086.222.3.3 0 0 0 .221.086h10.058v1.5H1.433v-15h19v6.692h-1.5v-3.75zm0-1.558 7.846-5H3.086zm8 12.48a3.5 3.5 0 0 1-2.57-1.064 3.5 3.5 0 0 1-1.065-2.57v-4.5q0-.921.636-1.556a2.12 2.12 0 0 1 1.557-.636q.92 0 1.556.636t.636 1.556v4.5h-1.5v-4.5a.67.67 0 0 0-.203-.49.67.67 0 0 0-.49-.202.67.67 0 0 0-.489.203.67.67 0 0 0-.203.49v4.5q0 .88.628 1.507.627.627 1.508.627.882 0 1.507-.627.627-.626.626-1.508v-4h1.5v4q0 1.506-1.064 2.57a3.5 3.5 0 0 1-2.57 1.065m-16-16.038V4v12z"/></svg>