<svg xmlns="http://www.w3.org/2000/svg" width="24" height="24" viewBox="0 0 24 24" fill='currentColor'><path d="M1.616 15.75V9l.75-.75h3.98l.75.75v6.75h-1.5v-2h-2.48v2zm1.5-3.5h2.48v-2.5h-2.48zm6.173 3.5v-7.5h4.75l.75.75v6l-.75.75zm1.5-1.5h2.5v-4.5h-2.5zm6.907.175-1.054-1.07q.276-.27.413-.614.137-.345.137-.739 0-.418-.137-.75a1.9 1.9 0 0 0-.413-.608l1.054-1.094q.477.476.736 1.103.26.628.26 1.347 0 .72-.26 1.335t-.736 1.09m2.604 2.623-1.085-1.058a5.8 5.8 0 0 0 1.223-1.795q.447-1.02.447-2.195 0-1.188-.447-2.201a5.9 5.9 0 0 0-1.223-1.79L20.3 6.938a7.1 7.1 0 0 1 1.535 2.284 7.1 7.1 0 0 1 .55 2.778q0 1.477-.55 2.77a7.2 7.2 0 0 1-1.535 2.279"/></svg>