<svg xmlns="http://www.w3.org/2000/svg" width="24" height="24" viewBox="0 0 24 24" fill='currentColor'><path d="m5.5 9.775-.875-1.9L2.725 7l1.9-.875.875-1.9.875 1.9 1.9.875-1.9.875zm12.25-3L17.2 5.55 16 5l1.2-.55.55-1.225.55 1.225 1.225.55-1.225.55zm1.775 4-.55-1.225L17.75 9l1.225-.55.55-1.225.55 1.225 1.2.55-1.2.55zM12 14.5q-1.05 0-1.775-.725T9.5 12V6q0-1.05.725-1.775T12 3.5t1.775.725T14.5 6v6q0 1.05-.725 1.775T12 14.5m-.75 7.25v-3.3q-2.475-.275-4.112-2.113Q5.5 14.5 5.5 12H7q0 2.075 1.463 3.537Q9.926 17 12 17q2.075 0 3.538-1.463Q17 14.075 17 12h1.5q0 2.5-1.637 4.337-1.638 1.838-4.113 2.113v3.3zM12 13a.97.97 0 0 0 .713-.288A.97.97 0 0 0 13 12V6a.97.97 0 0 0-.287-.713A.97.97 0 0 0 12 5a.97.97 0 0 0-.712.287A.97.97 0 0 0 11 6v6q0 .424.288.712A.97.97 0 0 0 12 13"/></svg>