<svg xmlns="http://www.w3.org/2000/svg" width="24" height="24" viewBox="0 0 24 24" fill='currentColor'><path d="M5.167 15.627a7.8 7.8 0 0 1-.685-1.743 7.3 7.3 0 0 1-.232-1.834q0-3.245 2.258-5.522T12 4.25h.78L10.93 2.4l1.055-1.054L15.639 5l-3.654 3.654L10.93 7.6l1.85-1.85H12q-2.605 0-4.428 1.834Q5.75 9.42 5.75 12.05q0 .621.136 1.241t.406 1.21zm6.849 7.027L8.36 19l3.654-3.654L13.07 16.4l-1.85 1.85H12q2.605 0 4.428-1.835t1.822-4.465a5.8 5.8 0 0 0-.136-1.241 6 6 0 0 0-.406-1.211l1.125-1.125q.453.845.685 1.743t.232 1.834q0 3.244-2.258 5.522T12 19.75h-.78l1.85 1.85z"/></svg>