<svg xmlns="http://www.w3.org/2000/svg" width="24" height="24" viewBox="0 0 24 24" fill='currentColor'><path d="M11.058 20.5H5.5V6h-1V4.5H9v-.885h6V4.5h4.5V6h-1v4.271a5.5 5.5 0 0 0-.741-.14 6 6 0 0 0-.759-.054V6H7v13h3.377q.11.397.293.787a7 7 0 0 0 .388.713M9.327 17h.75q0-1.315.375-2.184l.375-.868V8h-1.5zm3.846-5.77q.319-.207.722-.415.403-.207.778-.313V8h-1.5zm3.825 10.693q-2.044 0-3.483-1.44-1.438-1.442-1.438-3.485t1.44-3.483q1.442-1.438 3.485-1.438t3.483 1.44q1.438 1.442 1.438 3.485t-1.44 3.483q-1.442 1.438-3.485 1.438m1.652-2.65.623-.623-1.83-1.827v-2.765h-.885v3.123z"/></svg>