<svg xmlns="http://www.w3.org/2000/svg" width="24" height="24" viewBox="0 0 24 24" fill='currentColor'><path d="M5.375 21.125q-1.024 0-1.762-.738a2.4 2.4 0 0 1-.738-1.762q0-.85.5-1.5a2.6 2.6 0 0 1 1.25-.9v-8.45a2.6 2.6 0 0 1-1.25-.9 2.4 2.4 0 0 1-.5-1.5q0-1.025.738-1.763a2.4 2.4 0 0 1 1.762-.737q.85 0 1.5.5t.9 1.25h8.45q.25-.75.9-1.25t1.5-.5q1.025 0 1.763.737.737.738.737 1.763 0 .85-.5 1.5t-1.25.9v8.45q.75.25 1.25.9t.5 1.5q0 1.024-.737 1.762a2.4 2.4 0 0 1-1.763.738 2.4 2.4 0 0 1-1.5-.5 2.6 2.6 0 0 1-.9-1.25h-8.45q-.25.75-.9 1.25t-1.5.5m0-14.75a.97.97 0 0 0 .713-.287.97.97 0 0 0 .287-.713.97.97 0 0 0-.287-.713.97.97 0 0 0-.713-.287.97.97 0 0 0-.713.287.97.97 0 0 0-.287.713.97.97 0 0 0 .287.713.97.97 0 0 0 .713.287m13.25 0q.424 0 .712-.287a.97.97 0 0 0 .288-.713.97.97 0 0 0-.288-.713.97.97 0 0 0-.712-.287.97.97 0 0 0-.712.287.97.97 0 0 0-.288.713q0 .425.288.713a.97.97 0 0 0 .712.287m-10.85 11.5h8.45q.2-.6.625-1.025a2.6 2.6 0 0 1 1.025-.625v-8.45a2.4 2.4 0 0 1-1.037-.613 2.4 2.4 0 0 1-.613-1.037h-8.45A2.6 2.6 0 0 1 7.15 7.15a2.6 2.6 0 0 1-1.025.625v8.45q.6.2 1.025.625t.625 1.025m10.85 1.75q.424 0 .712-.288a.97.97 0 0 0 .288-.712.97.97 0 0 0-.288-.712.97.97 0 0 0-.712-.288.97.97 0 0 0-.712.288.97.97 0 0 0-.288.712q0 .424.288.712a.97.97 0 0 0 .712.288m-13.25 0a.97.97 0 0 0 .713-.288.97.97 0 0 0 .287-.712.97.97 0 0 0-.287-.712.97.97 0 0 0-.713-.288.97.97 0 0 0-.713.288.97.97 0 0 0-.287.712q0 .424.287.712.288.288.713.288M12 15.4l-1.05-2.35L8.6 12l2.35-1.05L12 8.6l1.05 2.35L15.4 12l-2.35 1.05z"/></svg>