<svg xmlns="http://www.w3.org/2000/svg" width="24" height="24" viewBox="0 0 24 24" fill='currentColor'><path d="M15.105 5.048a.98.98 0 0 1-.723-.296 1 1 0 0 1-.296-.724q.001-.428.296-.723a1 1 0 0 1 .724-.295q.429 0 .724.296a1 1 0 0 1 .295.723.98.98 0 0 1-.296.724 1 1 0 0 1-.724.295m-.029 15.942a.98.98 0 0 1-.723-.295 1 1 0 0 1-.295-.724q0-.429.296-.724a1 1 0 0 1 .724-.295q.428 0 .723.296a1 1 0 0 1 .295.724.98.98 0 0 1-.296.723 1 1 0 0 1-.724.295m4-12.557a.98.98 0 0 1-.723-.296 1 1 0 0 1-.295-.724q0-.428.296-.724a1 1 0 0 1 .724-.295q.428 0 .723.296a1 1 0 0 1 .295.724.98.98 0 0 1-.296.723 1 1 0 0 1-.724.296m-.029 9.202a.98.98 0 0 1-.723-.296 1 1 0 0 1-.295-.724q0-.429.296-.724a1 1 0 0 1 .724-.295q.427 0 .723.296a1 1 0 0 1 .295.724.98.98 0 0 1-.296.724 1 1 0 0 1-.724.294m1.433-4.616a.98.98 0 0 1-.723-.296 1 1 0 0 1-.296-.724q.001-.428.296-.723a1 1 0 0 1 .724-.295q.429 0 .724.296A1 1 0 0 1 21.5 12a.98.98 0 0 1-.296.723 1 1 0 0 1-.724.295M12 21.5a9.25 9.25 0 0 1-3.703-.748 9.6 9.6 0 0 1-3.018-2.03 9.6 9.6 0 0 1-2.03-3.016 9.25 9.25 0 0 1-.749-3.704q0-1.972.748-3.706a9.6 9.6 0 0 1 2.03-3.016 9.6 9.6 0 0 1 3.017-2.032A9.25 9.25 0 0 1 12 2.5V4Q8.65 4 6.325 6.325T4 12t2.325 5.675T12 20zm0-7.75q-.729 0-1.24-.51-.51-.511-.51-1.24 0-.153.022-.301a.9.9 0 0 1 .091-.282L8.357 9.4 9.4 8.356l2.017 2.008q.11-.045.583-.114.729 0 1.24.51.51.511.51 1.24t-.51 1.24-1.24.51"/></svg>