<svg xmlns="http://www.w3.org/2000/svg" width="24" height="24" viewBox="0 0 24 24" fill='currentColor'><path d="M3.25 21.75v-9.461l1.566-4.587q.17-.564.649-.883.48-.32 1.023-.319.173 0 .354.037.18.039.352.119L11.402 8.5h2.348V10h-2.702L8.146 8.739 6.75 12.96v8.789zm6-3.75v-1.5h11.5V18zm9.849-2.5q-.56 0-.955-.392a1.3 1.3 0 0 1-.394-.952q0-.56.392-.954t.952-.394.954.392q.394.39.394.952 0 .559-.392.954a1.3 1.3 0 0 1-.951.394m-7.849 0v-3h-2V11h3.5v2h2.5v-2h1.5v4.5zM7.904 5.192q-.761 0-1.304-.542a1.78 1.78 0 0 1-.542-1.304q0-.76.542-1.304A1.78 1.78 0 0 1 7.904 1.5q.76 0 1.304.542.542.543.542 1.304T9.208 4.65a1.78 1.78 0 0 1-1.304.542"/></svg>