<svg xmlns="http://www.w3.org/2000/svg" width="24" height="24" viewBox="0 0 24 24" fill='currentColor'><path d="M6.5 19.5q-2.072 0-3.536-1.438Q1.5 16.623 1.5 14.546q0-1.863 1.199-3.278 1.199-1.414 2.974-1.676.48-2.242 2.255-3.667T12 4.5q2.716 0 4.608 1.892T18.5 11v.5h.308q1.58.123 2.636 1.271Q22.5 13.92 22.5 15.5q0 1.672-1.154 2.837Q20.192 19.5 18.52 19.5h-5.461q-.758 0-1.283-.525a1.75 1.75 0 0 1-.525-1.283v-5.477l-1.85 1.82-1.054-1.044L12 9.336l3.654 3.655-1.054 1.043-1.85-1.819v5.477q0 .116.096.212a.3.3 0 0 0 .212.096H18.5q1.05 0 1.775-.725T21 15.5t-.725-1.775T18.5 13H17v-2q0-2.075-1.463-3.537Q14.075 6 12 6T8.463 7.463 7 11h-.52q-1.42 0-2.45 1.025A3.36 3.36 0 0 0 3 14.5q0 1.45 1.025 2.475A3.37 3.37 0 0 0 6.5 18H9v1.5z"/></svg>