<svg xmlns="http://www.w3.org/2000/svg" width="24" height="24" viewBox="0 0 24 24" fill='currentColor'><path d="M3 14.5a.48.48 0 0 1-.35-.15.48.48 0 0 1 0-.7.48.48 0 0 1 .7 0 .48.48 0 0 1 0 .7.48.48 0 0 1-.35.15m0-4a.48.48 0 0 1-.35-.15.48.48 0 0 1 0-.7.48.48 0 0 1 .7 0 .48.48 0 0 1 0 .7.48.48 0 0 1-.35.15m3 8.192A.673.673 0 0 1 5.308 18 .673.673 0 0 1 6 17.308a.673.673 0 0 1 .692.692.673.673 0 0 1-.692.692m0-4A.673.673 0 0 1 5.308 14 .673.673 0 0 1 6 13.308a.673.673 0 0 1 .692.692.673.673 0 0 1-.692.692m0-4A.673.673 0 0 1 5.308 10 .67.67 0 0 1 6 9.308a.67.67 0 0 1 .692.692.673.673 0 0 1-.692.692m0-4A.67.67 0 0 1 5.308 6 .67.67 0 0 1 6 5.308.67.67 0 0 1 6.692 6 .67.67 0 0 1 6 6.692m4 12A.673.673 0 0 1 9.308 18a.673.673 0 0 1 .692-.692.673.673 0 0 1 .692.692.673.673 0 0 1-.692.692m0-12A.67.67 0 0 1 9.308 6 .67.67 0 0 1 10 5.308a.673.673 0 0 1 .692.692.673.673 0 0 1-.692.692M10 21.5a.48.48 0 0 1-.35-.15.48.48 0 0 1 0-.7.48.48 0 0 1 .7 0 .48.48 0 0 1 0 .7.48.48 0 0 1-.35.15m0-18a.48.48 0 0 1-.35-.15.48.48 0 0 1 0-.7.48.48 0 0 1 .7 0 .48.48 0 0 1 0 .7.48.48 0 0 1-.35.15m4 15.192a.673.673 0 0 1-.692-.692.673.673 0 0 1 .692-.692.673.673 0 0 1 .692.692.673.673 0 0 1-.692.692m0-12A.673.673 0 0 1 13.308 6 .673.673 0 0 1 14 5.308a.673.673 0 0 1 .692.692.673.673 0 0 1-.692.692M14 21.5a.48.48 0 0 1-.35-.15.48.48 0 0 1 0-.7.48.48 0 0 1 .7 0 .48.48 0 0 1 0 .7.48.48 0 0 1-.35.15m0-18a.48.48 0 0 1-.35-.15.48.48 0 0 1 0-.7.48.48 0 0 1 .7 0 .48.48 0 0 1 0 .7.48.48 0 0 1-.35.15m4 15.192a.673.673 0 0 1-.692-.692.673.673 0 0 1 .692-.692.673.673 0 0 1 .692.692.673.673 0 0 1-.692.692m0-4a.673.673 0 0 1-.692-.692.673.673 0 0 1 .692-.692.673.673 0 0 1 .692.692.673.673 0 0 1-.692.692m0-4a.673.673 0 0 1-.692-.692.673.673 0 0 1 .692-.692.673.673 0 0 1 .692.692.673.673 0 0 1-.692.692m0-4A.673.673 0 0 1 17.308 6 .673.673 0 0 1 18 5.308a.673.673 0 0 1 .692.692.673.673 0 0 1-.692.692m3 7.808a.48.48 0 0 1-.35-.15.48.48 0 0 1 0-.7.48.48 0 0 1 .7 0 .48.48 0 0 1 0 .7.48.48 0 0 1-.35.15m0-4a.48.48 0 0 1-.35-.15.48.48 0 0 1 0-.7.48.48 0 0 1 .7 0 .48.48 0 0 1 0 .7.48.48 0 0 1-.35.15M8.346 15.654v-.358q0-1.175 1.15-1.658A6.4 6.4 0 0 1 12 13.154q1.356 0 2.505.483 1.149.484 1.149 1.66v.357zM12 11.846q-.729 0-1.24-.51-.51-.51-.51-1.24 0-.729.51-1.24.511-.51 1.24-.51t1.24.51.51 1.24-.51 1.24q-.511.51-1.24.51"/></svg>