<svg xmlns="http://www.w3.org/2000/svg" width="24" height="24" viewBox="0 0 24 24" fill='currentColor'><path d="M5 19h2.375v-2.375H5zm3.875 0h2.375v-2.375H8.875zm3.875 0h2.375v-2.375H12.75zm3.875 0H19v-2.375h-2.375zM5 7.375h2.375V5H5zm0 3.875h2.375V8.875H5zm0 3.875h2.375V12.75H5zm3.875-7.75h2.375V5H8.875zm0 3.875h2.375V8.875H8.875zm0 3.875h2.375V12.75H8.875zm3.875-7.75h2.375V5H12.75zm0 3.875h2.375V8.875H12.75zm0 3.875h2.375V12.75H12.75zm3.875-7.75H19V5h-2.375zm0 3.875H19V8.875h-2.375zm0 3.875H19V12.75h-2.375zM3.5 20.5v-17h17v17z"/></svg>