<svg xmlns="http://www.w3.org/2000/svg" width="24" height="24" viewBox="0 0 24 24" fill='currentColor'><path d="M6 20.23q-1.25 0-1.988-.97-.739-.97-.431-2.154l1.848-6.964q-.816-.4-1.372-1.237A3.36 3.36 0 0 1 3.5 7q0-1.444 1.028-2.472T7 3.5h10.417l-3.5 7h-3.403l-.324 1.202h1.08v3.5H9.264l-.846 3.204q-.23.809-.896 1.317A2.44 2.44 0 0 1 6 20.23m0-1.5a.93.93 0 0 0 .6-.2 1.05 1.05 0 0 0 .35-.524L8.958 10.5H6.883l-1.858 6.98a.95.95 0 0 0 .175.863.96.96 0 0 0 .8.388M18.49 4.828l-.51-1.11 3.376-1.534.494 1.125zm2.866 6.99-3.375-1.51.51-1.124 3.359 1.534zm-2.798-4.202v-1.23h3.73v1.23zM7 9h6l2-4H7q-.824 0-1.412.587A1.93 1.93 0 0 0 5 7q0 .824.588 1.412Q6.175 9 7 9"/></svg>