<svg xmlns="http://www.w3.org/2000/svg" width="24" height="24" viewBox="0 0 24 24" fill='currentColor'><path d="M9 17.885q.378 0 .63-.255.255-.255.254-.63 0-.378-.254-.63a.86.86 0 0 0-.63-.255q-.378 0-.63.255a.86.86 0 0 0-.254.63q0 .378.254.63.255.255.63.255m3 0q.378 0 .63-.255.255-.255.254-.63 0-.378-.254-.63a.86.86 0 0 0-.63-.255q-.378 0-.63.255a.86.86 0 0 0-.254.63q0 .378.254.63.255.255.63.255m3 0q.378 0 .63-.255.255-.255.254-.63 0-.378-.254-.63a.86.86 0 0 0-.63-.255q-.378 0-.63.255a.86.86 0 0 0-.254.63q0 .378.254.63.255.255.63.255m-6-3q.378 0 .63-.255.255-.255.254-.63 0-.378-.254-.63a.86.86 0 0 0-.63-.254q-.378 0-.63.254a.86.86 0 0 0-.254.63q0 .378.254.63.255.255.63.254m3 0q.378 0 .63-.255.255-.255.254-.63 0-.378-.254-.63a.86.86 0 0 0-.63-.254q-.378 0-.63.254a.86.86 0 0 0-.254.63q0 .378.254.63.255.255.63.254m3 0q.378 0 .63-.255.255-.255.254-.63 0-.378-.254-.63a.86.86 0 0 0-.63-.254q-.378 0-.63.254a.86.86 0 0 0-.254.63q0 .378.254.63.255.255.63.254m-7.692-3.193h9.384V11q0-1.94-1.376-3.316T12 6.308 8.684 7.684 7.308 11zM8.55 10.5q.2-1.275 1.162-2.137Q10.676 7.5 12 7.5t2.287.863A3.52 3.52 0 0 1 15.45 10.5zm-6.05 11v-19h19v19zM4 20h16V4H4z"/></svg>