<svg xmlns="http://www.w3.org/2000/svg" width="24" height="24" viewBox="0 0 24 24" fill='currentColor'><path d="M7.442 21.5V4.24h2.712V2.5h3.692v1.74h2.712V21.5zm1.5-1.5h6.116V5.73H8.942zm2.808-2.84 1.07-1.045-.768-.776a1 1 0 0 1-.302-.724q0-.213.074-.404a1 1 0 0 1 .228-.344l.95-.95q.361-.361.555-.818.193-.457.193-.959 0-.517-.193-.991a2.5 2.5 0 0 0-.555-.835l-.777-.768-1.044 1.07.742.751q.155.154.24.34.087.185.087.408a.9.9 0 0 1-.082.389q-.082.18-.235.335l-.925.95a2.6 2.6 0 0 0-.56.822 2.5 2.5 0 0 0-.198.98q0 .517.193.99.194.475.555.836z"/></svg>