<svg xmlns="http://www.w3.org/2000/svg" width="24" height="24" viewBox="0 0 24 24" fill='currentColor'><path d="m19.475 20.539-6.196-6.178 1.054-1.053 6.196 6.196zm-13.515-.97a9.1 9.1 0 0 1-1.87-3.048 9.9 9.9 0 0 1-.61-3.411q0-1.864.692-3.622.691-1.76 2.115-3.172Q7.71 4.892 9.476 4.193a9.7 9.7 0 0 1 3.61-.699 9.7 9.7 0 0 1 3.41.618 9.3 9.3 0 0 1 3.044 1.877zm.161-2.3 1.581-1.58q-.4-.544-.777-1.133a11 11 0 0 1-.677-1.216q-.3-.627-.5-1.297a9 9 0 0 1-.3-1.358 7.4 7.4 0 0 0-.403 3.368 7.9 7.9 0 0 0 1.076 3.216m2.685-2.634 5.8-5.85q-1.076-.825-2.177-1.319-1.103-.493-2.076-.666-.975-.173-1.76-.029-.787.145-1.222.579-.435.45-.579 1.237-.144.786.024 1.768t.662 2.08q.493 1.1 1.328 2.2m6.873-6.904L17.29 6.15a7.9 7.9 0 0 0-3.262-1.098 7.54 7.54 0 0 0-3.373.406q.713.088 1.383.299.671.21 1.297.503.627.293 1.213.669.585.376 1.13.802"/></svg>