<svg xmlns="http://www.w3.org/2000/svg" width="24" height="24" viewBox="0 0 24 24" fill='currentColor'><path d="M4 18h2.25v-2.75h1.5V18h2.5v-2.75h1.5V18h2.5v-2.75h1.5V18H20v-7.483q-.777.543-1.865.792a10 10 0 0 1-2.24.249 10 10 0 0 1-1.97-.197 6.5 6.5 0 0 1-1.752-.611H4zm3-8.75h3.66a2.1 2.1 0 0 1-.276-.571A2.3 2.3 0 0 1 10.289 8q0-.274.044-.525.045-.25.134-.475H7zm8.894.808q1.49 0 2.797-.39Q20.001 9.278 20 8q0-1.279-1.309-1.668a9.8 9.8 0 0 0-2.797-.39 9.8 9.8 0 0 0-2.797.39q-1.308.39-1.308 1.668 0 1.28 1.308 1.668a9.8 9.8 0 0 0 2.797.39M2.5 19.5V9.25h3V5.5h6.24q.803-.548 1.902-.803a10 10 0 0 1 2.252-.255q2.103 0 3.854.853Q21.5 6.148 21.5 8v11.5z"/></svg>