<svg xmlns="http://www.w3.org/2000/svg" width="24" height="24" viewBox="0 0 24 24" fill='currentColor'><path d="M5.22 16.78a9.7 9.7 0 0 1-2.103-3.113 9.4 9.4 0 0 1-.732-3.666q0-1.924.732-3.668A9.7 9.7 0 0 1 5.22 3.22l.931.931a8.4 8.4 0 0 0-1.813 2.687A8.1 8.1 0 0 0 3.7 10q0 1.65.637 3.162A8.4 8.4 0 0 0 6.15 15.85zm2.3-2.3a6.2 6.2 0 0 1-1.365-2.05 6.4 6.4 0 0 1-.47-2.43q0-1.273.47-2.429A6.2 6.2 0 0 1 7.519 5.52l.931.931a4.8 4.8 0 0 0-1.088 1.637A5.1 5.1 0 0 0 7 10q0 1 .362 1.912A4.8 4.8 0 0 0 8.45 13.55zm3.73 6.078v-8.489a2.1 2.1 0 0 1-1.059-.79A2.16 2.16 0 0 1 9.788 10q0-.93.642-1.57A2.14 2.14 0 0 1 12 7.788q.93 0 1.57.642.642.64.641 1.57 0 .71-.402 1.279a2.1 2.1 0 0 1-1.059.79v8.489zm5.23-6.077-.93-.931a4.8 4.8 0 0 0 1.087-1.638A5.1 5.1 0 0 0 17 10q0-1-.363-1.913A4.8 4.8 0 0 0 15.55 6.45l.93-.93a6.2 6.2 0 0 1 1.365 2.05q.47 1.156.47 2.43 0 1.273-.47 2.429a6.2 6.2 0 0 1-1.364 2.052m2.3 2.3-.93-.931a8.4 8.4 0 0 0 1.813-2.687A8.1 8.1 0 0 0 20.3 10q0-1.65-.637-3.163A8.4 8.4 0 0 0 17.85 4.15l.93-.93a9.7 9.7 0 0 1 2.103 3.113 9.4 9.4 0 0 1 .732 3.666 9.4 9.4 0 0 1-.732 3.667 9.7 9.7 0 0 1-2.102 3.115"/></svg>