<svg xmlns="http://www.w3.org/2000/svg" width="24" height="24" viewBox="0 0 24 24" fill='currentColor'><path d="M.115 18.75v-1.5h4.312a5.4 5.4 0 0 1 1.417-3.033q1.19-1.294 2.86-1.66L7.167 5.75H3.365v-1.5h5.008l2.166 9.635H10q-1.705 0-2.92 1.214-1.215 1.215-1.215 2.92v.731zm9.886 2.02a2.65 2.65 0 0 1-1.948-.802 2.65 2.65 0 0 1-.803-1.948q0-1.145.802-1.948a2.65 2.65 0 0 1 1.947-.803q1.145 0 1.948.802.803.801.803 1.947t-.802 1.948a2.65 2.65 0 0 1-1.947.803M10 19.27q.522 0 .886-.365.364-.364.364-.886 0-.52-.364-.885a1.2 1.2 0 0 0-.886-.365q-.522 0-.886.365a1.2 1.2 0 0 0-.364.885q0 .522.364.886t.886.364m9.116-1.54q-1.772 0-3.076-1.102t-1.613-2.878h-2.523l-.335-1.5h2.858q.106-.633.424-1.349a3 3 0 0 1 .899-1.17h-4.727l-.335-1.5h5.843l-1.417-3.866H12.58v-1.5h3.602l1.96 5.335h.973q1.988 0 3.369 1.38 1.38 1.381 1.38 3.37t-1.404 3.386q-1.405 1.395-3.345 1.395m-.001-1.48q1.38 0 2.316-.952.934-.952.934-2.302 0-1.377-.934-2.312-.935-.934-2.315-.934a5 5 0 0 0-.233.005 1 1 0 0 0-.214.033l1.02 2.708-1.42.527-.969-2.708q-.682.454-1.059 1.164T15.865 13q0 1.347.935 2.298.934.952 2.315.952"/></svg>