<svg xmlns="http://www.w3.org/2000/svg" width="24" height="24" viewBox="0 0 24 24" fill='currentColor'><path d="M4.25 20.5a2.65 2.65 0 0 1-1.948-.802A2.65 2.65 0 0 1 1.5 17.75V6.25q0-1.146.802-1.948A2.65 2.65 0 0 1 4.25 3.5h7.5q1.146 0 1.948.802T14.5 6.25v6.3h1.327q.729 0 1.24.51.51.511.51 1.24v3.123q0 .325.232.557t.556.232a.76.76 0 0 0 .557-.232.76.76 0 0 0 .232-.557V10.75q-.787 0-1.336-.549a1.82 1.82 0 0 1-.549-1.336V6.25h.885V4.442h1.192V6.25h1.116V4.442h1.192V6.25h.884v2.615q0 .787-.549 1.336a1.82 1.82 0 0 1-1.335.549v6.611q0 .954-.668 1.622a2.2 2.2 0 0 1-1.62.667 2.2 2.2 0 0 1-1.622-.667 2.2 2.2 0 0 1-.667-1.622v-3.103a.3.3 0 0 0-.087-.221.3.3 0 0 0-.22-.087H14.5v3.108q0 1.42-1.011 2.43-1.011 1.012-2.431 1.012zm0-1.5h6.81q.804 0 1.372-.57T13 17.058t-.57-1.372a1.87 1.87 0 0 0-1.372-.57h-4.77a.57.57 0 0 0-.422.174.57.57 0 0 0-.174.422q0 .248.174.422a.57.57 0 0 0 .423.174h4.769q.318 0 .534.215a.73.73 0 0 1 .216.535q0 .319-.216.534a.73.73 0 0 1-.534.216h-4.77A2.02 2.02 0 0 1 4.8 17.2a2.02 2.02 0 0 1-.608-1.489q0-.879.608-1.488a2.02 2.02 0 0 1 1.489-.607h4.769q.518 0 1.024.14.507.14.918.469V6.25q0-.522-.364-.886A1.2 1.2 0 0 0 11.75 5h-7.5q-.522 0-.885.364A1.2 1.2 0 0 0 3 6.25v11.5q0 .522.365.886.363.364.885.364m0 0h6.808H3z"/></svg>