<svg xmlns="http://www.w3.org/2000/svg" width="24" height="24" viewBox="0 0 24 24" fill='currentColor'><path d="M5.346 17.346q.573 0 .96-.387.386-.386.386-.959t-.386-.96a1.3 1.3 0 0 0-.96-.386q-.573 0-.96.386A1.3 1.3 0 0 0 4 16q0 .573.386.96.387.386.96.386m4-4.423q.392 0 .658-.265a.9.9 0 0 0 .265-.658.9.9 0 0 0-.265-.658.9.9 0 0 0-.658-.265.9.9 0 0 0-.658.265.9.9 0 0 0-.265.658q0 .391.265.658a.9.9 0 0 0 .658.265m0-4q.392 0 .658-.265A.9.9 0 0 0 10.269 8a.9.9 0 0 0-.265-.658.9.9 0 0 0-.658-.265.9.9 0 0 0-.658.265.9.9 0 0 0-.265.658q0 .391.265.658a.9.9 0 0 0 .658.265M3.5 20.5V19h17v1.5zM5.346 9.346q.573 0 .96-.386.386-.387.386-.96t-.386-.96a1.3 1.3 0 0 0-.96-.386q-.573 0-.96.386A1.3 1.3 0 0 0 4 8q0 .573.386.96.387.386.96.386m0 4q.573 0 .96-.386.386-.387.386-.96t-.386-.96a1.3 1.3 0 0 0-.96-.386q-.573 0-.96.386A1.3 1.3 0 0 0 4 12q0 .573.386.96.387.386.96.386m4 3.577q.392 0 .658-.265a.9.9 0 0 0 .265-.658.9.9 0 0 0-.265-.658.9.9 0 0 0-.658-.265.9.9 0 0 0-.658.265.9.9 0 0 0-.265.658q0 .392.265.658a.9.9 0 0 0 .658.265m8-.423a.5.5 0 0 0 .363-.137.5.5 0 0 0 .137-.363.5.5 0 0 0-.137-.363.5.5 0 0 0-.363-.137.5.5 0 0 0-.362.137.5.5 0 0 0-.138.363q0 .224.138.363a.5.5 0 0 0 .362.137M3.5 5V3.5h17V5zm13.846 3.5a.5.5 0 0 0 .363-.137.5.5 0 0 0 .137-.363.5.5 0 0 0-.137-.362.5.5 0 0 0-.363-.138.5.5 0 0 0-.362.138.5.5 0 0 0-.138.362q0 .224.138.363a.5.5 0 0 0 .362.137m0 4a.5.5 0 0 0 .363-.137.5.5 0 0 0 .137-.363.5.5 0 0 0-.137-.363.5.5 0 0 0-.363-.137.5.5 0 0 0-.362.137.5.5 0 0 0-.138.363q0 .224.138.363a.5.5 0 0 0 .362.137m-4-3.577q.392 0 .658-.265A.9.9 0 0 0 14.269 8a.9.9 0 0 0-.265-.658.9.9 0 0 0-.658-.265.9.9 0 0 0-.658.265.9.9 0 0 0-.265.658q0 .391.265.658a.9.9 0 0 0 .658.265m0 4q.392 0 .658-.265a.9.9 0 0 0 .265-.658.9.9 0 0 0-.265-.658.9.9 0 0 0-.658-.265.9.9 0 0 0-.658.265.9.9 0 0 0-.265.658q0 .391.265.658a.9.9 0 0 0 .658.265m0 4q.392 0 .658-.265a.9.9 0 0 0 .265-.658.9.9 0 0 0-.265-.658.9.9 0 0 0-.658-.265.9.9 0 0 0-.658.265.9.9 0 0 0-.265.658q0 .392.265.658a.9.9 0 0 0 .658.265"/></svg>