<svg xmlns="http://www.w3.org/2000/svg" width="24" height="24" viewBox="0 0 24 24" fill='currentColor'><path d="M8.308 15.692v-2.769q.391 0 .658-.265A.9.9 0 0 0 9.23 12a.9.9 0 0 0-.265-.658.9.9 0 0 0-.658-.265v-2.77h7.384v2.77a.9.9 0 0 0-.658.265.9.9 0 0 0-.265.658q0 .391.265.658a.9.9 0 0 0 .658.265v2.77zM12 14.308a.44.44 0 0 0 .326-.136.44.44 0 0 0 .135-.326.45.45 0 0 0-.135-.326.44.44 0 0 0-.326-.136.44.44 0 0 0-.326.136.45.45 0 0 0-.135.326q0 .19.135.326t.326.136m0-1.847a.45.45 0 0 0 .326-.135.45.45 0 0 0 .135-.326.45.45 0 0 0-.135-.326.45.45 0 0 0-.326-.135.45.45 0 0 0-.326.135.45.45 0 0 0-.135.326q0 .19.135.326.135.135.326.135m0-1.845a.44.44 0 0 0 .326-.136.45.45 0 0 0 .135-.326.44.44 0 0 0-.135-.326.44.44 0 0 0-.326-.136.44.44 0 0 0-.326.136.44.44 0 0 0-.135.326q0 .19.135.326.135.135.326.136M5.5 22.5v-21h13v21zM7 19.75V21h10v-1.25zm0-1.5h10V5.75H7zm0-14h10V3H7z"/></svg>