<svg xmlns="http://www.w3.org/2000/svg" width="24" height="24" viewBox="0 0 24 24" fill='currentColor'><path d="M3.5 20.5V19h17v1.5zm0-3.846v-1.615h1.616v1.615zm0-3.846v-1.616h1.616v1.616zm0-3.847V7.346h1.616v1.615zm0-3.846V3.5h1.616v1.616zm3.846 7.693v-1.616h1.615v1.616zm0-7.692V3.5h1.615v1.616zm3.846 11.538v-1.615h1.616v1.615zm0-3.846v-1.616h1.616v1.616zm0-3.847V7.346h1.616v1.615zm0-3.846V3.5h1.616v1.616zm3.847 7.693v-1.616h1.615v1.616zm0-7.692V3.5h1.615v1.616zm3.845 11.538v-1.615H20.5v1.615zm0-3.846v-1.616H20.5v1.616zm0-3.847V7.346H20.5v1.615zm0-3.846V3.5H20.5v1.616z"/></svg>