<svg xmlns="http://www.w3.org/2000/svg" width="24" height="24" viewBox="0 0 24 24" fill='currentColor'><path d="M3.5 20.5v-1.616h1.616V20.5zm0-3.846v-1.615h1.616v1.615zm0-3.846v-1.616h1.616v1.616zm0-3.847V7.346h1.616v1.615zM3.5 5V3.5h17V5zm3.846 15.5v-1.616h1.615V20.5zm0-7.692v-1.616h1.615v1.616zm3.846 7.692v-1.616h1.616V20.5zm0-3.846v-1.615h1.616v1.615zm0-3.846v-1.616h1.616v1.616zm0-3.847V7.346h1.616v1.615zM15.04 20.5v-1.616h1.615V20.5zm0-7.692v-1.616h1.615v1.616zm3.845 7.692v-1.616H20.5V20.5zm0-3.846v-1.615H20.5v1.615zm0-3.846v-1.616H20.5v1.616zm0-3.847V7.346H20.5v1.615z"/></svg>