<svg xmlns="http://www.w3.org/2000/svg" width="24" height="24" viewBox="0 0 24 24" fill='currentColor'><path d="M3.5 20.5v-17h17v17zM5 15.75V19h14v-3.25h-4.973a2.7 2.7 0 0 1-.9.691 2.6 2.6 0 0 1-1.125.251q-.605 0-1.128-.25a2.7 2.7 0 0 1-.901-.692zm7-.558q.507 0 .85-.342.342-.343.342-.85t-.342-.85a1.15 1.15 0 0 0-.85-.342q-.507 0-.85.342a1.15 1.15 0 0 0-.342.85q0 .507.342.85.343.342.85.342m-7-.942h4.346q-.135-1.173.659-2.058.793-.885 1.995-.884 1.201 0 1.995.884.794.885.659 2.058H19V5H5z"/></svg>