<svg xmlns="http://www.w3.org/2000/svg" width="24" height="24" viewBox="0 0 24 24" fill='currentColor'><path d="M12.416 16.615q1.914 0 3.265-1.35 1.35-1.35 1.35-3.265t-1.35-3.265-3.265-1.35a4.5 4.5 0 0 0-.985.107q-.48.108-.942.314a4.6 4.6 0 0 1 1.968 1.705q.726 1.13.726 2.49 0 1.358-.726 2.488a4.57 4.57 0 0 1-1.969 1.705q.462.206.943.314.48.107.985.107M12 22.608 8.86 19.5H4.5v-4.36L1.392 12 4.5 8.86V4.5h4.36L12 1.392 15.14 4.5h4.36v4.36L22.608 12 19.5 15.14v4.36h-4.36zm0-2.108 2.5-2.5H18v-3.5l2.5-2.5L18 9.5V6h-3.5L12 3.5 9.5 6H6v3.5L3.5 12 6 14.5V18h3.5z"/></svg>