<svg xmlns="http://www.w3.org/2000/svg" width="24" height="24" viewBox="0 0 24 24" fill='currentColor'><path d="M6.192 20.308a4.1 4.1 0 0 1-1.697-.377 4.1 4.1 0 0 1-1.399-1.008q.573-.164 1.085-.695.51-.532.511-1.42 0-1.049.726-1.774a2.4 2.4 0 0 1 1.774-.726q1.049 0 1.774.726.726.725.726 1.774 0 1.443-1.028 2.471t-2.472 1.029m0-1.5q.825 0 1.413-.588.587-.587.587-1.412a.97.97 0 0 0-.287-.713.97.97 0 0 0-.713-.287.97.97 0 0 0-.712.287.97.97 0 0 0-.288.713q0 .574-.137 1.05a4.7 4.7 0 0 1-.363.9.7.7 0 0 0 .25.05zM11.5 14.75l-2.23-2.23 9.265-9.266 2.23 2.23z"/></svg>