<svg xmlns="http://www.w3.org/2000/svg" width="24" height="24" viewBox="0 0 24 24" fill='currentColor'><path d="M12 3.5q1.755 0 3.3.67a8.6 8.6 0 0 1 2.704 1.826A8.6 8.6 0 0 1 19.83 8.7q.669 1.545.669 3.3t-.67 3.3a8.6 8.6 0 0 1-1.826 2.704A8.6 8.6 0 0 1 15.3 19.83q-1.545.669-3.3.669a8.4 8.4 0 0 1-1.912-.22 8.8 8.8 0 0 1-1.828-.646l1.14-1.14q.603.248 1.278.377T12 19q2.9 0 4.95-2.05T19 12t-2.05-4.95T12 5 7.05 7.05 5 12q0 .677.124 1.317t.382 1.274L4.38 15.715a7.5 7.5 0 0 1-.66-1.795A8.5 8.5 0 0 1 3.5 12q0-1.755.67-3.3a8.6 8.6 0 0 1 1.826-2.704A8.6 8.6 0 0 1 8.7 4.17 8.2 8.2 0 0 1 12 3.5m1.25 12.25v-3.946l-8.658 8.658-1.053-1.054 8.657-8.658H8.25v-1.5h6.5v6.5z"/></svg>