<svg xmlns="http://www.w3.org/2000/svg" width="24" height="24" viewBox="0 0 24 24" fill='currentColor'><path d="m18.116 21.242-6.939-6.969q-.53.229-1.075.353-.546.124-1.16.124-2.394 0-4.072-1.678T3.192 9q0-.775.198-1.482.196-.706.56-1.345l3.592 3.573L9.69 7.6 6.135 4.027q.637-.363 1.335-.57a5.2 5.2 0 0 1 1.472-.207q2.394 0 4.073 1.678Q14.692 6.606 14.692 9q0 .633-.119 1.179-.12.546-.358 1.056l6.97 6.938zm0-2.138.915-.915-6.66-6.66q.42-.519.621-1.182.2-.662.2-1.347 0-1.663-1.188-2.944Q10.815 4.775 8.996 4.8l2.8 2.8-4.254 4.254-2.8-2.8q.004 1.924 1.295 3.06t2.905 1.136q.66 0 1.315-.195t1.199-.61z"/></svg>