<svg xmlns="http://www.w3.org/2000/svg" width="24" height="24" viewBox="0 0 24 24" fill='currentColor'><path d="M8.498 13.192q-.546 0-.926.383-.38.381-.38.927t.382.926.928.38.926-.383q.38-.381.38-.927t-.383-.926a1.27 1.27 0 0 0-.927-.38m8.908-2.576q1.82 0 2.957 1.026t1.137 2.666v3.5q0 .761-.542 1.303a1.78 1.78 0 0 1-1.304.543L21.5 21.5h-8.211l1.846-1.846q-.762 0-1.304-.543a1.78 1.78 0 0 1-.542-1.303v-3.5q0-1.639 1.149-2.666 1.148-1.026 2.968-1.026m-.06 5.884q-.29 0-.5.21a.68.68 0 0 0-.212.502q0 .29.211.5.21.21.501.211.29 0 .501-.21.21-.21.21-.502 0-.29-.21-.5a.68.68 0 0 0-.5-.211m-2.684-3.115a2.3 2.3 0 0 0-.181.923v.923h5.827v-.925q0-.255-.046-.48a2.3 2.3 0 0 0-.135-.441zM12 2.5q4.03 0 5.765.81Q19.5 4.119 19.5 6v2.727a5 5 0 0 0-.715-.175A11 11 0 0 0 18 8.448V6.769H6V10.5h6.461q-.294.33-.514.699a5 5 0 0 0-.381.801H6v3q0 .824.588 1.413Q7.175 17 8 17h3.096v1.5H7.885v2H5.768v-2.723Q5.3 17.421 4.9 16.77a2.74 2.74 0 0 1-.4-1.462V6q0-1.815 1.805-2.658Q8.109 2.5 12 2.5m.03 2.77h5.755H6.277zm-5.753 0h11.508q-.318-.599-1.608-.934T12.031 4q-2.81 0-4.1.351t-1.654.918"/></svg>