<svg xmlns="http://www.w3.org/2000/svg" width="24" height="24" viewBox="0 0 24 24" fill='currentColor'><path d="M18.575 21.5q-2.913 0-5.803-1.297t-5.279-3.691q-2.39-2.396-3.691-5.286Q2.5 8.335 2.5 5.425V4.5h5.17l.886 4.554-2.773 2.692q.617 1.08 1.32 2.009.704.927 1.49 1.697a14 14 0 0 0 1.697 1.479q.935.696 2.08 1.338l2.755-2.803 4.375.89V21.5zM5.073 10.327l1.871-1.785L6.442 6H4.016q.075 1.135.34 2.209.266 1.074.717 2.118m8.7 8.642q.962.445 2.051.7t2.176.3v-2.402l-2.37-.475zM12 4V2.5h9.5V4zm0 3.692v-1.5h9.5v1.5zm0 3.692v-1.5h9.5v1.5z"/></svg>