<svg xmlns="http://www.w3.org/2000/svg" width="24" height="24" viewBox="0 0 24 24" fill='currentColor'><path d="M4.044 16.683.746 13.466l.817-.843q2.115-2.226 4.89-3.3T12 8.25q2.774 0 5.522 1.085 2.75 1.086 4.905 3.288l.827.843-3.298 3.217-3.706-2.799v-3.407a15 15 0 0 0-2.113-.537 12.2 12.2 0 0 0-4.273 0 15 15 0 0 0-2.114.537v3.407zm2.206-5.618q-.927.453-1.785 1.05-.857.599-1.611 1.285l1.327 1.327 2.069-1.592zm11.5.031v2.02l2.07 1.611 1.346-1.277a17 17 0 0 0-1.65-1.327 12 12 0 0 0-1.766-1.027"/></svg>