<svg xmlns="http://www.w3.org/2000/svg" width="24" height="24" viewBox="0 0 24 24" fill='currentColor'><path d="M11.342 9.116h8.116a7.9 7.9 0 0 0-2.077-3.04A7.6 7.6 0 0 0 14.15 4.3zm-2.184 2L13.235 4.1a6 6 0 0 0-.618-.075A9 9 0 0 0 12 4a7.6 7.6 0 0 0-3.075.625A8.7 8.7 0 0 0 6.4 6.3zM4.25 14h5.566L5.777 7.004a8.4 8.4 0 0 0-1.308 2.31A7.6 7.6 0 0 0 4 12a8 8 0 0 0 .25 2m5.62 5.7 2.776-4.815H4.542a7.86 7.86 0 0 0 2.087 3.039 7.65 7.65 0 0 0 3.24 1.776M12 20a7.6 7.6 0 0 0 3.075-.625A8.7 8.7 0 0 0 17.6 17.7l-2.758-4.815-4.058 6.996q.275.06.596.09T12 20m6.223-3.004a8.8 8.8 0 0 0 1.289-2.31A7.5 7.5 0 0 0 20 12a8 8 0 0 0-.25-2h-5.565zM12 21.5a9.2 9.2 0 0 1-3.687-.749 9.6 9.6 0 0 1-3.025-2.04 9.6 9.6 0 0 1-2.039-3.023A9.2 9.2 0 0 1 2.5 12q0-1.97.749-3.695a9.7 9.7 0 0 1 2.04-3.016 9.6 9.6 0 0 1 3.024-2.04A9.2 9.2 0 0 1 12 2.5q1.97 0 3.695.749 1.725.75 3.017 2.04 1.29 1.29 2.039 3.016T21.5 12q0 1.954-.749 3.688a9.6 9.6 0 0 1-2.04 3.024 9.7 9.7 0 0 1-3.016 2.039q-1.725.75-3.695.749"/></svg>