<svg xmlns="http://www.w3.org/2000/svg" width="24" height="24" viewBox="0 0 24 24" fill='currentColor'><path d="M5.5 19.75v-1.5h4.896l-1.35-1.35 1.054-1.054L13.254 19 10.1 22.154 9.046 21.1l1.35-1.35zm0-2.75V2.5h13V17H17v-1.858q-.972-.648-2.301-1.01a10.2 10.2 0 0 0-5.398 0q-1.33.362-2.301 1.01V17zM7 13.42a12.3 12.3 0 0 1 2.467-.849q1.306-.302 2.533-.302t2.533.302 2.467.848V4H7zm7 6.33v-1.5h4.5v1.5zm-1.999-8.77a2.65 2.65 0 0 1-1.948-.801 2.65 2.65 0 0 1-.803-1.947q0-1.146.802-1.948a2.65 2.65 0 0 1 1.947-.803q1.145 0 1.948.801a2.65 2.65 0 0 1 .803 1.948q0 1.145-.802 1.948a2.65 2.65 0 0 1-1.947.803M12 9.48q.522.001.886-.364.364-.364.364-.885 0-.522-.364-.886A1.2 1.2 0 0 0 12 6.981q-.522 0-.886.364a1.2 1.2 0 0 0-.364.886q0 .521.364.886.364.364.886.364"/></svg>