<svg xmlns="http://www.w3.org/2000/svg" width="24" height="24" viewBox="0 0 24 24" fill='currentColor'><g clip-path="url(#a)"><path d="M6.5 16.5v-9h2.692l1-1h3.616l1 1H17.5v9zM8 15h8V9H8zm4-1.289a1.65 1.65 0 0 0 1.21-.5A1.65 1.65 0 0 0 13.712 12a1.65 1.65 0 0 0-.5-1.21A1.65 1.65 0 0 0 12 10.289a1.65 1.65 0 0 0-1.21.5A1.65 1.65 0 0 0 10.289 12q0 .71.5 1.21a1.65 1.65 0 0 0 1.211.501M9.242.846a8 8 0 0 1 1.362-.272Q11.288.499 11.98.5q2.244 0 4.245.799a11.6 11.6 0 0 1 3.551 2.215 11.7 11.7 0 0 1 2.537 3.336A11.2 11.2 0 0 1 23.5 11H22a9.7 9.7 0 0 0-.993-3.444 10 10 0 0 0-2.074-2.789A10.3 10.3 0 0 0 16.03 2.85a9.7 9.7 0 0 0-3.496-.818l1.743 1.742-1.054 1.054zm5.516 22.308a8 8 0 0 1-1.362.272q-.684.075-1.377.074a11.3 11.3 0 0 1-4.245-.799 11.6 11.6 0 0 1-3.551-2.215 11.7 11.7 0 0 1-2.536-3.336A11.2 11.2 0 0 1 .5 13H2q.2 1.848 1.001 3.444a9.9 9.9 0 0 0 2.066 2.789A10.3 10.3 0 0 0 7.97 21.15a9.7 9.7 0 0 0 3.496.818l-1.743-1.742 1.054-1.054z"/></g><defs><clipPath id="a"><path d="M0 0h24v24H0z"/></clipPath></defs></svg>