<svg xmlns="http://www.w3.org/2000/svg" width="24" height="24" viewBox="0 0 24 24" fill='currentColor'><path d="m15.139 19.196 1.75-1.75 1.75 1.75.653-.654-1.734-1.734 1.75-1.75-.654-.654-1.75 1.75-1.75-1.75-.654.654 1.75 1.75-1.75 1.75zm-11.543.073V4.692l13.29 5.625h-.184a6.3 6.3 0 0 0-1.28.167q-.616.147-1.149.4L5.096 7v3.692L10.52 12l-5.423 1.308V17l5.717-2.435a6 6 0 0 0-.252.883 5 5 0 0 0-.1.87v.03zm13.308 2.039q-1.873 0-3.187-1.314-1.313-1.313-1.313-3.186 0-1.874 1.313-3.187 1.314-1.313 3.187-1.313t3.186 1.313 1.314 3.187-1.314 3.186q-1.312 1.314-3.186 1.314M5.096 14.565V7v10z"/></svg>