<svg xmlns="http://www.w3.org/2000/svg" width="24" height="24" viewBox="0 0 24 24" fill='currentColor'><path d="M6.212 20h11.634q.515 0 .863-.348.35-.349.349-.864v-.22H5v.22q0 .515.348.864.349.348.864.348M12.03 7.817q-1.066 0-1.785-.75-.718-.752-.668-1.817a3.35 3.35 0 0 1 .812-2.076q.76-.9 1.64-1.674a16 16 0 0 1 1.64 1.674q.761.901.812 2.066.049 1.076-.667 1.826-.716.751-1.784.751m-1.194 9.25h2.385V10.75h-2.385zm1.192-10.75a.9.9 0 0 0 .682-.286.98.98 0 0 0 .27-.7q.001-.521-.304-.944a11 11 0 0 0-.647-.814q-.342.392-.647.815a1.57 1.57 0 0 0-.305.943q0 .414.27.7.27.285.681.286m8.02 10.75a.92.92 0 0 0 .677-.275.93.93 0 0 0 .275-.682.93.93 0 0 0-.275-.681.92.92 0 0 0-.677-.275.92.92 0 0 0-.677.275.93.93 0 0 0-.275.681q0 .408.275.682a.92.92 0 0 0 .677.275M17.846 21.5H6.212a2.6 2.6 0 0 1-1.921-.791 2.6 2.6 0 0 1-.791-1.92v-1.722h5.836V9.25h5.385v7.817h3.12a2.4 2.4 0 0 1-.181-.462 2 2 0 0 1-.064-.5q0-1.024.713-1.738a2.37 2.37 0 0 1 1.739-.713q1.025 0 1.739.713.713.713.713 1.739a2.37 2.37 0 0 1-.553 1.56 2.38 2.38 0 0 1-1.39.84v.282q0 1.13-.79 1.921a2.62 2.62 0 0 1-1.92.791"/></svg>