<svg xmlns="http://www.w3.org/2000/svg" width="24" height="24" viewBox="0 0 24 24" fill='currentColor'><path d="m20.7 21.77-3.2-3.2v2.58H16V16h5.15v1.5h-2.606l3.2 3.2zM12 21.5q-1.972 0-3.705-.748a9.6 9.6 0 0 1-3.016-2.03 9.6 9.6 0 0 1-2.03-3.016 9.25 9.25 0 0 1-.749-3.704q0-1.972.748-3.706a9.6 9.6 0 0 1 2.03-3.016 9.6 9.6 0 0 1 3.016-2.032 9.25 9.25 0 0 1 3.704-.748q1.972 0 3.706.748a9.6 9.6 0 0 1 3.017 2.03 9.6 9.6 0 0 1 2.03 3.017A9.25 9.25 0 0 1 21.5 12a9.6 9.6 0 0 1-.171 1.808h-1.54A8 8 0 0 0 20 12a8 8 0 0 0-.072-1.09 7.6 7.6 0 0 0-.226-1.083h-3.718q.095.539.137 1.083a14 14 0 0 1 .012 1.994q-.03.451-.09.904h-1.5a13.6 13.6 0 0 0 .078-2.898 12 12 0 0 0-.136-1.083h-4.97q-.093.538-.136 1.084a14 14 0 0 0 0 2.18q.043.544.136 1.082h3.677v1.5H9.86q.331 1.18.858 2.264T12 19.98q.452 0 .904-.053.451-.053.904-.103v1.521l-.904.103A8 8 0 0 1 12 21.5m-7.702-7.327h3.717q-.093-.538-.136-1.084a14 14 0 0 1 0-2.18q.042-.544.136-1.082H4.298a7.6 7.6 0 0 0-.226 1.084 8.3 8.3 0 0 0 0 2.18q.072.544.226 1.082m.629-5.846h3.388q.258-1.089.687-2.106t1.061-1.944a7.34 7.34 0 0 0-3.018 1.435 7.75 7.75 0 0 0-2.118 2.615m5.137 11.396a13 13 0 0 1-1.038-1.954 14 14 0 0 1-.707-2.096H4.927a7.75 7.75 0 0 0 2.123 2.606 7.5 7.5 0 0 0 3.013 1.444M9.86 8.327h4.28a12 12 0 0 0-.86-2.254A13.4 13.4 0 0 0 12 4.02a12 12 0 0 0-1.284 2.042 12.3 12.3 0 0 0-.856 2.264m5.82 0h3.393a7.8 7.8 0 0 0-2.118-2.62 7.2 7.2 0 0 0-3.018-1.43q.603.936 1.023 1.959.42 1.021.72 2.091"/></svg>