<svg xmlns="http://www.w3.org/2000/svg" width="24" height="24" viewBox="0 0 24 24" fill='currentColor'><path d="M2.5 21.5v-8.423L4.806 6.5h5.356q-.046.375-.037.75t.066.75H5.869l-1.261 3.577h7.571q.511.504 1.108.886.598.384 1.305.614H4V18h14v-4.354a4.5 4.5 0 0 0 1.5-.456v8.31h-2.115v-2H4.615v2zm13.04-4.654q.547 0 .926-.382.38-.382.38-.928t-.382-.925a1.27 1.27 0 0 0-.928-.38q-.546 0-.925.382-.38.382-.38.928t.382.925.928.38m-9.076 0q.546 0 .925-.382.38-.382.38-.928t-.382-.925a1.27 1.27 0 0 0-.928-.38q-.546 0-.925.382-.38.382-.38.928t.382.925.928.38m10.34-5.346q-1.869 0-3.183-1.313-1.313-1.314-1.313-3.19 0-1.855 1.306-3.176 1.305-1.32 3.197-1.321 1.87 0 3.183 1.314Q21.308 5.126 21.308 7t-1.318 3.187Q18.673 11.5 16.804 11.5m-.439-3.692h.885v-3.5h-.885zm.443 1.923a.45.45 0 0 0 .335-.14.5.5 0 0 0 .145-.332.48.48 0 0 0-.14-.343.45.45 0 0 0-.34-.147.46.46 0 0 0-.34.14.46.46 0 0 0-.141.341q0 .2.14.34t.34.14"/></svg>