<svg xmlns="http://www.w3.org/2000/svg" width="24" height="24" viewBox="0 0 24 24" fill='currentColor'><path d="M3.5 20.5v-8.423L5.806 5.5h6.029q-.031.22-.034.435-.003.213.007.45 0 .169.007.315.008.146.039.3H6.869l-1.261 3.577h8.33a6.3 6.3 0 0 0 1.72 1.097q.945.403 2.13.403H5V17h14v-5.062q.416-.08.785-.212t.715-.33V20.5h-2.115v-2H5.615v2zM17.238 9.654l-.188-.992a2.4 2.4 0 0 1-1.13-.648l-.94.355-.55-.938.75-.677a2.7 2.7 0 0 1-.088-.677q0-.33.089-.677l-.75-.646.552-.938.92.325q.226-.23.507-.394t.64-.255l.188-.992h1.085l.204.977q.357.105.64.27.28.164.506.394l.92-.325.553.938-.735.646q.09.348.097.684t-.096.685l.734.646-.535.939-.938-.34q-.225.228-.514.393a2.6 2.6 0 0 1-.632.255l-.204.992zm.552-2.058q.633 0 1.075-.443.443-.444.443-1.077 0-.634-.444-1.076a1.47 1.47 0 0 0-1.077-.442q-.633 0-1.075.443a1.47 1.47 0 0 0-.443 1.077q0 .633.444 1.076.443.442 1.076.442m-10.326 8.25q.546 0 .925-.382.38-.382.38-.928t-.382-.925a1.27 1.27 0 0 0-.928-.38q-.546 0-.925.382-.38.382-.38.928t.382.925.928.38m9.077 0q.546 0 .925-.382.38-.382.38-.928t-.382-.925a1.27 1.27 0 0 0-.928-.38q-.546 0-.926.382t-.38.928.383.925.928.38"/></svg>