<svg xmlns="http://www.w3.org/2000/svg" width="24" height="24" viewBox="0 0 24 24" fill='currentColor'><path d="M6.464 15.846q.546 0 .925-.382.38-.382.38-.928t-.382-.925a1.27 1.27 0 0 0-.928-.38q-.546 0-.925.382-.38.382-.38.928t.382.925.928.38M4.615 18.5v2H2.5v-8.423L4.795 5.5h4.263V7H5.869l-1.261 3.577h7.206l1.5 1.5H4V17h14v-1.223l1.5-1.5V20.5h-2.115v-2zM15 5.865q.367 0 .616-.248a.84.84 0 0 0 .25-.617.84.84 0 0 0-.25-.616.84.84 0 0 0-.616-.25.84.84 0 0 0-.616.25.84.84 0 0 0-.25.616q0 .367.25.616a.84.84 0 0 0 .616.25m2.6 7.414-6.35-6.375V1.25h5.644l6.36 6.375zm0-2.123 3.53-3.531-4.874-4.875H12.75v3.53zm-2.062 4.69q.322 0 .585-.137.263-.138.435-.378l-1.812-1.812a1.22 1.22 0 0 0-.515 1.02q0 .544.381.926.381.381.927.381"/></svg>