<svg xmlns="http://www.w3.org/2000/svg" width="24" height="24" viewBox="0 0 24 24" fill='currentColor'><path d="M5.096 14.625 1.51 11.048l3.586-3.577L6.15 8.525l-1.767 1.773h6.254l4.742-5.74 1.14.982-5.213 6.258H4.383l1.767 1.773zm5.32-7.513L8.3 5H5.327V3.5h3.587l2.475 2.446zm3.488 12.913q.912 0 1.547-.63.636-.631.636-1.533 0-.893-.636-1.528a2.1 2.1 0 0 0-1.547-.636q-.912 0-1.547.636a2.08 2.08 0 0 0-.636 1.527q0 .903.636 1.533t1.547.631m0 1.475q-1.334 0-2.325-.826a3.6 3.6 0 0 1-1.256-2.078H5.327v-1.5h4.996a3.6 3.6 0 0 1 1.256-2.067q.991-.831 2.325-.831 1.332 0 2.325.83a3.6 3.6 0 0 1 1.256 2.068H20v-4.562a2.08 2.08 0 0 0-.543-1.427 2.15 2.15 0 0 0-1.36-.72l-2.48-.312 1.125-1.373 1.537.184q1.384.181 2.303 1.215.918 1.034.918 2.433v6.062h-4.015a3.6 3.6 0 0 1-1.256 2.078q-.993.825-2.325.826"/></svg>