<svg xmlns="http://www.w3.org/2000/svg" width="24" height="24" viewBox="0 0 24 24" fill='currentColor'><path d="M8.192 6.942a2.65 2.65 0 0 1-1.947-.802 2.65 2.65 0 0 1-.803-1.947q0-1.145.803-1.948a2.65 2.65 0 0 1 1.947-.803q.921 0 1.644.568.722.567 1.014 1.432h7.708v1.5h-1v2h-1.5v-2H10.85a3 3 0 0 1-1.014 1.433 2.6 2.6 0 0 1-1.644.567m0-1.5q.522 0 .886-.364t.364-.886q0-.52-.364-.885a1.2 1.2 0 0 0-.886-.365q-.52 0-.885.365a1.2 1.2 0 0 0-.365.885q0 .522.365.886t.885.364m.616 11.77a.85.85 0 0 0 .626-.26.85.85 0 0 0 .258-.625.85.85 0 0 0-.258-.626.85.85 0 0 0-.626-.259.85.85 0 0 0-.626.259.85.85 0 0 0-.259.626q0 .367.259.626a.85.85 0 0 0 .626.258m6.384 0a.85.85 0 0 0 .626-.26.85.85 0 0 0 .259-.625.85.85 0 0 0-.259-.626.85.85 0 0 0-.626-.259.85.85 0 0 0-.626.259.85.85 0 0 0-.258.626q0 .367.258.626a.85.85 0 0 0 .626.258M5.5 21.326v-6.823l1.787-5.177h9.423l1.79 5.177v6.823H17v-2H7v2zm1.977-8h9.046l-.873-2.5h-7.3zM7 17.827h10v-3H7z"/></svg>