<svg xmlns="http://www.w3.org/2000/svg" width="24" height="24" viewBox="0 0 24 24" fill='currentColor'><path d="m18.208 21.5-2.948-4.654H7.51L6.1 9.842q-.186-.989.446-1.742a2.02 2.02 0 0 1 1.621-.754q.706 0 1.266.468.56.47.78 1.228l1.537 5.333h3.908L19.5 20.74zm-3.418 0H4.362l-2.64-10.242a4.4 4.4 0 0 1-.161-.736 5.4 5.4 0 0 1 .103-1.963q.147-.626.444-1.219a1.44 1.44 0 0 1 1.31-.82q.468 0 .812.343.343.343.343.812 0 .217-.08.42a1.2 1.2 0 0 1-.243.372q-.494.495-.604 1.2t.2 1.395l.462.992q.806 1.774 1.199 3.336t.393 3.021v1.235q.394-.311.807-.46.413-.147.824-.148h5.523q.725 0 1.23.502.506.5.506 1.21zM7.712 6.346q-.72 0-1.225-.506a1.67 1.67 0 0 1-.506-1.224q0-.72.506-1.225a1.67 1.67 0 0 1 1.225-.506q.718 0 1.225.506.505.505.505 1.225 0 .718-.505 1.225a1.67 1.67 0 0 1-1.225.505m12.01 10.471-2.78-2.778.83-.839 1.353 1.339v-3.347h1.192v3.347l1.354-1.339.829.839zm-.978-6.732-.99-.652.215-.325a1.4 1.4 0 0 0 .15-.306q.054-.162.054-.33a1.05 1.05 0 0 0-.094-.438 1.4 1.4 0 0 0-.294-.409 2.1 2.1 0 0 1-.464-.711 2.32 2.32 0 0 1-.07-1.557q.103-.318.293-.6l.225-.324 1 .652-.225.325a1.3 1.3 0 0 0-.149.305 1.02 1.02 0 0 0 .047.777q.102.216.287.4.266.266.426.617t.21.747-.057.784a2.4 2.4 0 0 1-.339.72zm-2.977-.046-1.051-.56.2-.356a1 1 0 0 0 .133-.313q.04-.17.04-.339 0-.228-.095-.46a1.6 1.6 0 0 0-.263-.432 2.1 2.1 0 0 1-.395-.712 2.6 2.6 0 0 1-.134-.83q0-.316.08-.626a2.1 2.1 0 0 1 .24-.576l.194-.356 1.061.56-.21.355a1 1 0 0 0-.133.314q-.04.169-.04.338 0 .23.095.46.093.233.263.433.26.305.394.706.135.402.135.826 0 .315-.08.623a2.2 2.2 0 0 1-.24.573zm-3.796-1.847-.836-5.74q.81-.266 1.746-.48.796-.181 1.821-.327a15 15 0 0 1 2.115-.145q2.033 0 3.613.394 1.58.395 2.07.558l-.837 5.74h-1.207l.715-4.886q-1.074-.285-2.145-.45-1.07-.164-2.18-.164t-2.184.165-2.199.449l.716 4.886z"/></svg>