<svg xmlns="http://www.w3.org/2000/svg" width="24" height="24" viewBox="0 0 24 24" fill='currentColor'><path d="m12.01 20.462-2.19-1.947a93 93 0 0 1-3.458-3.236q-1.398-1.39-2.265-2.544-.865-1.154-1.24-2.166a6 6 0 0 1-.372-2.085q0-2.128 1.435-3.556T7.485 3.5q1.31 0 2.48.612 1.17.613 2.044 1.757.885-1.144 2.046-1.756a5.2 5.2 0 0 1 2.47-.613q2.129 0 3.565 1.428t1.435 3.557a6 6 0 0 1-.373 2.084q-.373 1.012-1.24 2.165-.866 1.155-2.264 2.545a93 93 0 0 1-3.458 3.236zm-7.533-10.02h15.065a5 5 0 0 0 .37-1.01 4 4 0 0 0 .113-.947q0-1.5-1.028-2.493T16.525 5a3.76 3.76 0 0 0-2.177.683q-.993.683-1.835 1.952h-1.017q-.842-1.27-1.834-1.952A3.76 3.76 0 0 0 7.485 5q-1.444 0-2.472.992T3.985 8.485q0 .471.118.947.119.476.374 1.01m2.57 3.385h9.926q.516-.54.918-.999.401-.459.715-.886H5.404q.323.427.725.886t.917.999m4.962 4.608q1.016-.896 1.87-1.661.856-.765 1.563-1.447H8.577q.708.682 1.563 1.447t1.87 1.66"/></svg>