<svg xmlns="http://www.w3.org/2000/svg" width="24" height="24" viewBox="0 0 24 24" fill='currentColor'><path d="M9.25 19V9H8v10zm2.489 1.5H6.5v-13H14V4h-1.808V2.5H15.5v9.233a8 8 0 0 0-.778.318q-.35.165-.722.42V9h-3.25v10h.533q.064.436.177.778.111.342.278.722m5.915-7.154q1.873 0 3.186 1.314 1.314 1.313 1.314 3.186t-1.314 3.187q-1.312 1.313-3.186 1.313t-3.187-1.313-1.313-3.187q0-1.873 1.313-3.186 1.314-1.314 3.187-1.314m0 7.423a.57.57 0 0 0 .421-.17.57.57 0 0 0 .171-.422.57.57 0 0 0-.17-.421.57.57 0 0 0-.422-.172.57.57 0 0 0-.422.172.57.57 0 0 0-.17.421q0 .25.17.421a.57.57 0 0 0 .422.171m-.412-1.842h.823v-.212q0-.285.15-.482.15-.198.35-.399.35-.3.55-.594t.2-.778q0-.702-.463-1.14-.462-.437-1.194-.437-.56 0-1.023.337-.462.338-.662.893l.742.312q.094-.3.342-.525a.86.86 0 0 1 .597-.225q.393 0 .616.196t.222.589a.73.73 0 0 1-.16.48 6 6 0 0 1-.359.392q-.15.15-.303.31t-.278.343a1.2 1.2 0 0 0-.112.293 1.4 1.4 0 0 0-.038.334z"/></svg>