<svg xmlns="http://www.w3.org/2000/svg" width="24" height="24" viewBox="0 0 24 24" fill='currentColor'><path d="m14.5 12.573-1.5-1.5V9h-2.083l-1.5-1.5H13V4h-1.808V2.5H14.5zm4.53 9.488-1.88-1.88a2.73 2.73 0 0 1-.899 1.636q-.73.645-1.751.645-.975 0-1.675-.587t-.904-1.375H5.5V9.308q0-.17.038-.327a1.2 1.2 0 0 1 .116-.296L1.669 4.7l1.054-1.054 17.362 17.362zM8.25 19v-7.688L7 10.062V19zm6.25 2.27q.65 0 1.085-.436.434-.434.434-1.084t-.434-1.085a1.47 1.47 0 0 0-1.085-.434q-.65 0-1.085.434-.435.435-.434 1.085 0 .65.434 1.084.435.435 1.085.435M9.75 19h2.18q.097-.437.393-.835.296-.4.677-.586V16.06l-3.25-3.25z"/></svg>