<svg xmlns="http://www.w3.org/2000/svg" width="24" height="24" viewBox="0 0 24 24" fill='currentColor'><path d="M15.5 17.039q1.13 0 1.92.79.791.792.791 1.921t-.79 1.92a2.62 2.62 0 0 1-1.921.791 2.6 2.6 0 0 1-1.621-.545 2.74 2.74 0 0 1-.973-1.416H6.5v-13H14V4h-1.808V2.5H15.5zM9.25 19V9H8v10zm1.5-10v10h2.165q.081-.48.378-.856.297-.375.707-.596V9zm4.751 12.27q.633 0 1.076-.444.442-.444.442-1.077 0-.634-.443-1.076a1.47 1.47 0 0 0-1.077-.442q-.634 0-1.076.443a1.47 1.47 0 0 0-.442 1.077q0 .633.443 1.076.444.442 1.077.442"/></svg>