<svg xmlns="http://www.w3.org/2000/svg" width="24" height="24" viewBox="0 0 24 24" fill='currentColor'><path d="m14.73 11.704 3.77-2.165-3.77-2.166-3.769 2.166zm0 2.954 2.674-1.543v-1.927L14.73 12.75l-2.673-1.562v1.927zM21.5 19.5h-6.77a11 11 0 0 0-.101-1.5H20V6H4v1.371a11 11 0 0 0-1.5-.102V4.5h19zm-19 0v-2.462q1.02 0 1.74.721.721.721.721 1.741zm4.654 0q0-1.93-1.362-3.283-1.361-1.352-3.292-1.37v-1.5q2.57 0 4.362 1.79T8.654 19.5zm3.885 0a8.3 8.3 0 0 0-.675-3.329 8.7 8.7 0 0 0-1.828-2.706 8.7 8.7 0 0 0-2.707-1.83 8.3 8.3 0 0 0-3.329-.674v-1.5q2.083 0 3.906.787a10.2 10.2 0 0 1 3.192 2.154q1.368 1.368 2.154 3.192a9.8 9.8 0 0 1 .787 3.906z"/></svg>