<svg xmlns="http://www.w3.org/2000/svg" width="24" height="24" viewBox="0 0 24 24" fill='currentColor'><path d="M2.5 20v-7.23h7.23V20zM4 18.5h4.23v-4.23H4zm2.308-9 4.808-7.885L15.923 9.5zM8.954 8h4.323l-2.161-3.477zm12.64 14.392-2.63-2.63q-.496.36-1.09.549-.593.189-1.258.189-1.721 0-2.919-1.197T12.5 16.384t1.197-2.918 2.919-1.197 2.918 1.197 1.197 2.919q0 .65-.19 1.238-.189.588-.524 1.085l2.631 2.63zM16.615 19q1.098 0 1.857-.759.759-.758.759-1.856t-.759-1.857-1.856-.759q-1.1 0-1.857.758-.759.759-.759 1.857 0 1.1.758 1.857.759.759 1.857.759"/></svg>