<svg xmlns="http://www.w3.org/2000/svg" width="24" height="24" viewBox="0 0 24 24" fill='currentColor'><path d="M5.189 16.812q-1.407-1.453-2.105-3.2a9.6 9.6 0 0 1-.7-3.612q0-1.863.7-3.612.699-1.748 2.105-3.2l.93.931A8.1 8.1 0 0 0 4.3 6.886 8.5 8.5 0 0 0 3.7 10q0 1.575.6 3.114a8.1 8.1 0 0 0 1.82 2.767zM7.55 14.45a6.5 6.5 0 0 1-1.391-2.094A6.2 6.2 0 0 1 5.685 10q0-1.198.474-2.356A6.5 6.5 0 0 1 7.55 5.55l.93.93a4.5 4.5 0 0 0-1.11 1.625A5.1 5.1 0 0 0 7 10q0 .92.366 1.844A4.9 4.9 0 0 0 8.48 13.52zm-.011 6.723 3.144-9.433a2.1 2.1 0 0 1-.657-.762A2.1 2.1 0 0 1 9.789 10q0-.926.643-1.568A2.13 2.13 0 0 1 12 7.788q.926 0 1.568.644.644.643.643 1.568 0 .518-.227.968-.228.45-.667.772l3.145 9.433h-1.52l-.65-2H9.723l-.656 2zm2.68-3.5h3.562L12 12.327zm6.231-3.223-.93-.93a4.5 4.5 0 0 0 1.11-1.625Q17 10.965 17 10q0-.89-.37-1.825a5.1 5.1 0 0 0-1.11-1.694l.93-.931a6.2 6.2 0 0 1 1.368 2.104q.451 1.167.497 2.355 0 1.2-.469 2.351a6.4 6.4 0 0 1-1.396 2.09m2.361 2.361-.93-.93a8.1 8.1 0 0 0 1.819-2.767q.6-1.539.6-3.114t-.6-3.114a8.1 8.1 0 0 0-1.82-2.767l.931-.93q1.396 1.45 2.1 3.2.704 1.748.704 3.611a10 10 0 0 1-.67 3.611q-.672 1.75-2.134 3.2"/></svg>