<svg xmlns="http://www.w3.org/2000/svg" width="24" height="24" viewBox="0 0 24 24" fill='currentColor'><path d="M7.212 21.5 21.5 7.162V21.5zM18 20h2v-9.2l-2 2zm-6.95-6.996q-.533 0-.92-.388a1.26 1.26 0 0 1-.388-.92q0-.533.388-.92.387-.387.92-.387t.92.387.388.92-.388.92a1.26 1.26 0 0 1-.92.388M7.85 9.8l-.992-.992a6.1 6.1 0 0 1 1.99-1.26 6.17 6.17 0 0 1 4.429-.01q1.072.406 1.965 1.25L14.25 9.8a4.6 4.6 0 0 0-1.505-.97 4.6 4.6 0 0 0-1.676-.322q-.846 0-1.685.323-.84.322-1.534.969M5.3 7.2l-.992-.961Q5.735 4.85 7.483 4.175a9.88 9.88 0 0 1 7.179 0q1.753.675 3.18 2.064l-.992.961a8.3 8.3 0 0 0-2.727-1.717 8.5 8.5 0 0 0-3.054-.575q-1.546 0-3.048.575A8.3 8.3 0 0 0 5.3 7.2"/></svg>