<svg xmlns="http://www.w3.org/2000/svg" width="24" height="24" viewBox="0 0 24 24" fill='currentColor'><path d="M3.5 20.5V15H5v4h4v1.5zm11.5 0V19h4v-4h1.5v5.5zM3.5 9V3.5H9V5H5v4zM19 9V5h-4V3.5h5.5V9zm-7 7.5q-1.873 0-3.187-1.313Q7.5 13.873 7.5 12t1.313-3.187Q10.128 7.5 12 7.5t3.187 1.313Q16.5 10.128 16.5 12t-1.313 3.187Q13.873 16.5 12 16.5m0-1.5q1.25 0 2.125-.875A2.9 2.9 0 0 0 15 12q0-1.25-.875-2.125A2.9 2.9 0 0 0 12 9q-1.25 0-2.125.875A2.9 2.9 0 0 0 9 12q0 1.25.875 2.125A2.9 2.9 0 0 0 12 15"/></svg>