<svg xmlns="http://www.w3.org/2000/svg" width="24" height="24" viewBox="0 0 24 24" fill='currentColor'><path d="M3.25 19.5a.73.73 0 0 1-.534-.215.72.72 0 0 1-.216-.531.8.8 0 0 1 .076-.347.6.6 0 0 1 .228-.255l8.446-6.286v-1.77q0-.318.224-.534a.75.75 0 0 1 .541-.216 1.6 1.6 0 0 0 1.18-.498q.488-.499.488-1.19a1.6 1.6 0 0 0-.488-1.175A1.62 1.62 0 0 0 12.009 6q-.692 0-1.187.485t-.495 1.178h-1.5q0-1.315.929-2.239.93-.924 2.253-.924 1.326 0 2.25.917.924.915.924 2.24 0 1.118-.678 1.971a3.13 3.13 0 0 1-1.755 1.116v1.122l8.456 6.286a.6.6 0 0 1 .227.253q.076.159.076.346 0 .318-.215.534a.73.73 0 0 1-.535.215zM5.52 18h12.97L12 13.183z"/></svg>