<svg xmlns="http://www.w3.org/2000/svg" width="24" height="24" viewBox="0 0 24 24" fill='currentColor'><path d="M7.896 5.033 6.992 2.33l1.112-.364.904 2.687zm3.508-1.187V1.154h1.192v2.692zm4.7 1.187-1.112-.38.904-2.686 1.112.38zm5.525 17.727.223-1.485-6.054-.929-1.034-3.313.628-1.377.83 2.577 1.428-.456-2.58-8.029.415-.22 4.438 8.463h2.471v-1.5H20.84l-4.757-9.03-2.808 1.578 1.448 4.51-1.571 3.382 1.506 4.763zm-19.258 0-.223-1.485 6.039-.929 1.05-3.313-.645-1.377-.813 2.577-1.429-.456 2.556-8.029-.39-.22-4.454 8.463H1.606v-1.5H3.16l4.757-9.03 2.808 1.578-1.448 4.51 1.571 3.382-1.53 4.763z"/></svg>