<svg xmlns="http://www.w3.org/2000/svg" width="24" height="24" viewBox="0 0 24 24" fill='currentColor'><path d="M14.444 11.596q-.46 0-.779-.317a1.05 1.05 0 0 1-.319-.777q0-.46.318-.779.317-.32.777-.32.459 0 .778.318.32.317.32.777t-.318.779-.777.32m-4.885 0q-.459 0-.778-.317a1.05 1.05 0 0 1-.32-.777q0-.46.318-.779.317-.32.777-.32t.779.318.319.777-.318.779q-.316.32-.777.32M12 16.616a4.47 4.47 0 0 1-2.467-.715A4.75 4.75 0 0 1 7.827 14h8.346a4.75 4.75 0 0 1-1.706 1.901 4.47 4.47 0 0 1-2.467.714m0 3.884a8.3 8.3 0 0 1-3.315-.67 8.6 8.6 0 0 1-2.697-1.818 8.6 8.6 0 0 1-1.819-2.696A8.3 8.3 0 0 1 3.5 12q0-1.77.67-3.316a8.6 8.6 0 0 1 1.819-2.697A8.6 8.6 0 0 1 8.684 4.17 8.3 8.3 0 0 1 12 3.5q1.77 0 3.315.67a8.6 8.6 0 0 1 2.697 1.819 8.6 8.6 0 0 1 1.819 2.695Q20.5 10.23 20.5 12t-.67 3.315a8.6 8.6 0 0 1-1.818 2.697 8.6 8.6 0 0 1-2.696 1.819 8.3 8.3 0 0 1-3.315.669m0-1.5q2.9 0 4.95-2.05T19 12t-2.05-4.95T12 5q-.21 0-.422.01-.21.009-.409.06a.9.9 0 0 0-.142.324 2 2 0 0 0-.03.356q0 .583.41.993t.996.41q.25 0 .424-.074a.9.9 0 0 1 .373-.075q.234 0 .39.18.156.178.156.417 0 .459-.46.602a3 3 0 0 1-.886.143 2.5 2.5 0 0 1-1.832-.764 2.5 2.5 0 0 1-.764-1.832v-.177q0-.083.034-.221a6.98 6.98 0 0 0-3.48 2.491Q5 9.643 5 12q0 2.9 2.05 4.95T12 19"/></svg>