<svg xmlns="http://www.w3.org/2000/svg" width="24" height="24" viewBox="0 0 24 24" fill='currentColor'><path d="M9.49 20.5q-2.76 0-4.683-1.922-1.922-1.923-1.922-4.684 0-2.553 1.683-4.43Q6.253 7.59 8.741 7.326V5.758q0-1.358.95-2.308t2.307-.95q.792 0 1.507.346t1.2.958l4.776 6.029.594-.475 2.458 3.08-2.356 1.858-2.442-3.08.565-.457-4.785-6.038a2 2 0 0 0-.679-.535A1.9 1.9 0 0 0 11.999 4q-.744 0-1.25.507a1.7 1.7 0 0 0-.507 1.25v1.568q2.498.263 4.181 2.135 1.684 1.87 1.684 4.434 0 2.761-1.927 4.684Q12.252 20.5 9.49 20.5m0-1.5q2.124 0 3.62-1.491 1.496-1.493 1.496-3.615t-1.496-3.619-3.62-1.496-3.614 1.496q-1.491 1.497-1.491 3.62t1.491 3.614T9.491 19"/></svg>