<svg xmlns="http://www.w3.org/2000/svg" width="24" height="24" viewBox="0 0 24 24" fill='currentColor'><path d="M13 14.054 14.054 13l-2.304-2.304V6.25h-1.5v5.054zm-3.3 3.798a3.6 3.6 0 0 1 1.235-1.685 3.23 3.23 0 0 1 2.015-.667h3.348a6.6 6.6 0 0 0 1.252-2.04A6.7 6.7 0 0 0 18 11q0-2.925-2.037-4.962T11 4 6.038 6.037 4 11q0 2.585 1.626 4.495T9.7 17.852M13 22.5q-1.364 0-2.348-.913-.985-.912-1.096-2.22-3.012-.506-5.034-2.855Q2.5 14.165 2.5 11q0-3.542 2.479-6.02Q7.457 2.5 10.998 2.5t6.021 2.48T19.5 11a7.8 7.8 0 0 1-.367 2.4 8.1 8.1 0 0 1-1.02 2.1h.953q1.443 0 2.439 1.028.995 1.029.995 2.472t-1.028 2.472Q20.443 22.5 19 22.5zm0-1.5h6q.824 0 1.413-.587Q21 19.825 21 19q0-.824-.587-1.413A1.93 1.93 0 0 0 19 17h-6q-.825 0-1.412.587A1.93 1.93 0 0 0 11 19q0 .824.588 1.413Q12.175 21 13 21m0-1.135a.84.84 0 0 1-.616-.248.84.84 0 0 1-.25-.617q0-.367.25-.616a.84.84 0 0 1 .616-.25q.367 0 .616.25a.84.84 0 0 1 .25.616q0 .367-.25.616a.84.84 0 0 1-.616.25m3 0a.84.84 0 0 1-.616-.248.84.84 0 0 1-.25-.617q0-.367.25-.616a.84.84 0 0 1 .616-.25q.367 0 .616.25a.84.84 0 0 1 .25.616q0 .367-.25.616a.84.84 0 0 1-.616.25m3 0a.84.84 0 0 1-.616-.248.84.84 0 0 1-.25-.617q0-.367.25-.616a.84.84 0 0 1 .616-.25q.367 0 .616.25a.84.84 0 0 1 .25.616q0 .367-.25.616a.84.84 0 0 1-.616.25"/></svg>