<svg xmlns="http://www.w3.org/2000/svg" width="24" height="24" viewBox="0 0 24 24" fill='currentColor'><path d="M19.885 14.25v-4.5h2.788v4.5zm-1.193 1.25H11q-.457 0-.918.122-.46.123-1.134.416-.927.397-1.577.554T6 16.75q-1.748 0-3.124-1.01T1.5 13.404v-2.808q0-1.35 1.376-2.348T6 7.25q.72 0 1.37.158t1.578.553q.674.295 1.134.417T11 8.5h7.692zM6 15.25q.55 0 1.075-.125a8 8 0 0 0 1.275-.45q.875-.375 1.475-.525T11 14h6.192v-4H11q-.575 0-1.175-.15T8.35 9.325a8 8 0 0 0-1.275-.45A4.6 4.6 0 0 0 6 8.75q-1.176 0-2.087.545Q3 9.84 3 10.596v.962h.539q.176 0 .309.133a.42.42 0 0 1 .133.309.42.42 0 0 1-.133.31.42.42 0 0 1-.31.132H3v.962q0 .756.913 1.301.912.545 2.087.545"/></svg>