<svg xmlns="http://www.w3.org/2000/svg" width="24" height="24" viewBox="0 0 24 24" fill='currentColor'><path d="M6 20.615q-1.491 0-2.553-1.062T2.385 17t1.062-2.553T6 13.385t2.553 1.062T9.615 17t-1.062 2.553T6 20.615m12 0q-1.491 0-2.553-1.062T14.385 17t1.062-2.553T18 13.385t2.553 1.062T21.615 17t-1.062 2.553T18 20.615m-12-1.5q.873 0 1.494-.621.622-.621.622-1.494t-.622-1.494A2.04 2.04 0 0 0 6 14.884q-.873 0-1.494.622A2.04 2.04 0 0 0 3.884 17q0 .873.622 1.494.621.622 1.494.622m12 0q.873 0 1.494-.621.622-.621.622-1.494t-.622-1.494A2.04 2.04 0 0 0 18 14.884q-.873 0-1.494.622A2.04 2.04 0 0 0 15.884 17q0 .873.622 1.494.621.622 1.494.622m-6-4.407q-.714 0-1.21-.498a1.65 1.65 0 0 1-.498-1.21q0-.714.498-1.21a1.65 1.65 0 0 1 1.21-.498q.714 0 1.21.498.498.495.498 1.21 0 .714-.498 1.21a1.65 1.65 0 0 1-1.21.498m0-5.093q-1.491 0-2.553-1.062T8.385 6t1.062-2.553T12 2.385t2.553 1.062T15.615 6t-1.062 2.553T12 9.615m0-1.5q.873 0 1.494-.621T14.116 6t-.622-1.494A2.04 2.04 0 0 0 12 3.885q-.873 0-1.494.621A2.04 2.04 0 0 0 9.884 6q0 .873.622 1.494.621.621 1.494.622"/></svg>