<svg xmlns="http://www.w3.org/2000/svg" width="24" height="24" viewBox="0 0 24 24" fill='currentColor'><path d="M16.775 14.423q.613.03 1.21-.059.596-.09 1.163-.308-.39 3.092-2.708 5.143T11 21.249a8 8 0 0 1-3.214-.65 8.4 8.4 0 0 1-2.62-1.766A8.4 8.4 0 0 1 3.4 16.214 8 8 0 0 1 2.75 13q0-3.123 2.051-5.436t5.143-2.722q-.219.567-.309 1.168-.089.601-.058 1.215a5.85 5.85 0 0 0-3.294 2.084Q5 10.912 5 12.999q0 2.501 1.75 4.25Q8.5 19 11 19q2.088 0 3.701-1.282a5.73 5.73 0 0 0 2.074-3.294M17 1.577q2.26 0 3.841 1.582t1.582 3.84-1.582 3.842Q19.26 12.423 17 12.423t-3.841-1.582Q11.577 9.26 11.577 7t1.582-3.841T17 1.577m0 8.596a3.06 3.06 0 0 0 2.247-.926A3.06 3.06 0 0 0 20.173 7a3.06 3.06 0 0 0-.925-2.248A3.06 3.06 0 0 0 17 3.827a3.06 3.06 0 0 0-2.248.925A3.06 3.06 0 0 0 13.827 7q0 1.322.925 2.247a3.06 3.06 0 0 0 2.248.926"/></svg>