<svg xmlns="http://www.w3.org/2000/svg" width="24" height="24" viewBox="0 0 24 24" fill='currentColor'><path d="m7.442 22.5-1.865-14h12.856l-1.866 14zM9.02 21h5.962a.3.3 0 0 0 .202-.077.32.32 0 0 0 .106-.192L16.7 10H7.275l1.436 10.73a.32.32 0 0 0 .106.193.3.3 0 0 0 .202.077M12 15.75q1.145 0 1.947-.803A2.65 2.65 0 0 0 14.75 13v-1.75h-1.5V13q0 .522-.364.886a1.2 1.2 0 0 1-.886.364q-.522 0-.886-.364A1.2 1.2 0 0 1 10.75 13v-1.75h-1.5V13q0 1.145.803 1.947A2.65 2.65 0 0 0 12 15.75m3-8.76q-.52 0-.884-.365a1.2 1.2 0 0 1-.366-.885q0-.519.366-.884.365-.366.884-.366.52 0 .884.366.366.365.366.884 0 .52-.366.885A1.2 1.2 0 0 1 15 6.99m-5-1q-.935 0-1.592-.657A2.17 2.17 0 0 1 7.75 3.74q0-.943.658-1.597Q9.065 1.49 10 1.49q.945 0 1.597.653.653.654.653 1.597 0 .934-.653 1.593A2.16 2.16 0 0 1 10 5.99M14.98 21H8.73h6.54z"/></svg>