<svg xmlns="http://www.w3.org/2000/svg" width="24" height="24" viewBox="0 0 24 24" fill='currentColor'><path d="m14.01 22.212-7.308-2.085V21.5h-5v-9.577h7.162l7.703 2.846v1.808H21.5v3.307zM3.201 20h2v-6.577h-2zm10.758.63 5.979-1.84v-.713H12.94l-3.116-1.03.466-1.43 2.925.96h1.851v-.785L8.61 13.423H6.702v5.154zm.973-8.47-1.5-.549v-.442a3.17 3.17 0 0 0-.97-2.257q-.94-.93-2.28-.931-1.056 0-1.844.58-.789.582-1.141 1.478H5.606A4.94 4.94 0 0 1 6.95 7.752q.987-.964 2.482-1.21V4h-1.5V2.5h5.25q.725 0 1.379.217.653.218 1.202.596l-1.08 1.08a3.6 3.6 0 0 0-.713-.287A3 3 0 0 0 13.183 4h-2.25v2.542q1.782.293 2.891 1.626 1.11 1.334 1.109 3.063zm3.817-2.352q-.729 0-1.24-.511-.51-.51-.51-1.24 0-.525.382-1.309.381-.783 1.368-2.248.987 1.466 1.368 2.243.382.778.382 1.315 0 .729-.51 1.239-.511.51-1.24.51"/></svg>