<svg xmlns="http://www.w3.org/2000/svg" width="24" height="24" viewBox="0 0 24 24" fill='currentColor'><path d="M17 15.817a2.56 2.56 0 0 1-1.88-.774 2.56 2.56 0 0 1-.774-1.88q0-1.105.774-1.88A2.56 2.56 0 0 1 17 10.51a2.56 2.56 0 0 1 1.88.774q.774.774.774 1.88a2.56 2.56 0 0 1-.774 1.88 2.56 2.56 0 0 1-1.88.773m0-1.5q.483 0 .818-.335.336-.336.336-.818 0-.483-.336-.819A1.1 1.1 0 0 0 17 12.01q-.483 0-.818.336a1.1 1.1 0 0 0-.336.819q0 .482.336.818.335.335.818.335m-5.654 7.952v-3.688q.954-.552 1.963-.918 1.008-.367 2.093-.547L17 19.125l1.588-2.01q1.099.14 2.105.531 1.007.392 1.96.92v3.703zm1.475-1.5h3.566l-1.552-1.977q-.53.135-1.03.349-.501.215-.984.478zm4.792 0h3.54v-1.15a7 7 0 0 0-.967-.48 8 8 0 0 0-1.03-.337zm-8.651-.27H3.5v-17h17v6.154a7 7 0 0 0-.668-.666A2 2 0 0 0 19 8.556V5H5v14h3.961zM7.25 8.865h7.211a3.7 3.7 0 0 1 1.094-.529q.587-.173 1.195-.192v-.779h-9.5zm0 3.885h4.76q.018-.4.107-.77.09-.37.231-.73H7.25zm0 3.884h2.794l1.487-.675v-.824H7.25zM8.961 19H5V5h14v3.54a5 5 0 0 0-2-.415q-2.09 0-3.565 1.474-1.473 1.473-1.474 3.565 0 .636.155 1.22.155.585.465 1.099L8.96 17.13z"/></svg>