<svg xmlns="http://www.w3.org/2000/svg" width="24" height="24" viewBox="0 0 24 24" fill='currentColor'><path d="M8.617 18.904q-2.895 0-4.92-2.027t-2.024-4.923 2.025-4.925Q5.723 4.999 8.617 5q2.892 0 4.922 2.027 2.028 2.028 2.028 4.923t-2.027 4.925-4.923 2.029m10.075.596V7.358L17.4 8.65l-1.054-1.054L19.442 4.5l3.096 3.096L21.47 8.65l-1.277-1.277V19.5zM8.615 17.404q2.28 0 3.866-1.586t1.586-3.867-1.586-3.866T8.615 6.5 4.754 8.086t-1.581 3.867 1.58 3.865q1.582 1.586 3.862 1.586m2.154-2.164 1.064-1.053-2.458-2.483V8.096h-1.5v4.25z"/></svg>