<svg xmlns="http://www.w3.org/2000/svg" width="24" height="24" viewBox="0 0 24 24" fill='currentColor'><path d="M6.5 19.5q-2.075 0-3.538-1.438T1.5 14.55a5 5 0 0 1 1.175-3.275q1.175-1.425 3-1.675.475-2.25 2.25-3.675T12 4.5q2.725 0 4.613 1.887Q18.5 8.275 18.5 11v.5h.3q1.6.125 2.65 1.275T22.5 15.5q0 1.675-1.163 2.837Q20.175 19.5 18.5 19.5zm0-1.5h12q1.05 0 1.775-.725T21 15.5t-.725-1.775T18.5 13H17v-2q0-2.075-1.462-3.538Q14.075 6 12 6T8.463 7.462Q7 8.925 7 11h-.5q-1.45 0-2.475 1.025A3.37 3.37 0 0 0 3 14.5q0 1.45 1.025 2.475A3.37 3.37 0 0 0 6.5 18"/></svg>