<svg xmlns="http://www.w3.org/2000/svg" width="24" height="24" viewBox="0 0 24 24" fill='currentColor'><path d="m10.35 16.654 5.304-5.304-1.085-1.085-4.235 4.235-2.118-2.12-1.07 1.07zM6.5 19.5q-2.072 0-3.536-1.44T1.5 14.546q0-1.834 1.175-3.263 1.175-1.43 2.998-1.69.48-2.243 2.255-3.668T12 4.5q2.714 0 4.607 1.893T18.5 11v.5h.308q1.58.123 2.636 1.271Q22.5 13.92 22.5 15.5q0 1.672-1.163 2.837Q20.173 19.5 18.5 19.5zm0-1.5h12q1.05 0 1.775-.725T21 15.5t-.725-1.775T18.5 13H17v-2q0-2.075-1.463-3.537Q14.075 6 12 6T8.463 7.463 7 11h-.5q-1.45 0-2.475 1.025A3.37 3.37 0 0 0 3 14.5q0 1.45 1.025 2.475A3.37 3.37 0 0 0 6.5 18"/></svg>