<svg xmlns="http://www.w3.org/2000/svg" width="24" height="24" viewBox="0 0 24 24" fill='currentColor'><path d="M8.5 15.5H16q1.048 0 1.774-.726A2.4 2.4 0 0 0 18.5 13q0-1.029-.721-1.764-.72-.735-1.779-.736h-.5v-.298a3.45 3.45 0 0 0-1.118-2.268Q13.386 7 12.102 7q-1.208 0-2.144.674-.937.675-1.273 1.826h-.308q-1.224.077-2.05.924-.827.848-.827 2.067 0 1.246.876 2.127A2.88 2.88 0 0 0 8.5 15.5m0-1.5q-.625 0-1.062-.437A1.45 1.45 0 0 1 7 12.5q0-.625.438-1.062A1.45 1.45 0 0 1 8.5 11H10v-.5q0-.825.588-1.412A1.93 1.93 0 0 1 12 8.5q.825 0 1.412.588Q14 9.675 14 10.5V12h2q.424 0 .712.287.288.288.288.713 0 .424-.288.713A.97.97 0 0 1 16 14zm3.502 7.5a9.3 9.3 0 0 1-3.706-.748 9.6 9.6 0 0 1-3.016-2.03 9.6 9.6 0 0 1-2.032-3.016 9.25 9.25 0 0 1-.748-3.704q0-1.972.748-3.706a9.6 9.6 0 0 1 2.03-3.016 9.6 9.6 0 0 1 3.016-2.032 9.25 9.25 0 0 1 3.704-.748q1.972 0 3.706.748a9.6 9.6 0 0 1 3.017 2.03 9.6 9.6 0 0 1 2.03 3.016 9.25 9.25 0 0 1 .749 3.704q0 1.972-.748 3.706a9.6 9.6 0 0 1-2.03 3.017 9.6 9.6 0 0 1-3.016 2.03 9.25 9.25 0 0 1-3.704.749M12 20q3.35 0 5.675-2.325T20 12t-2.325-5.675T12 4 6.325 6.325 4 12t2.325 5.675T12 20"/></svg>