<svg xmlns="http://www.w3.org/2000/svg" width="24" height="24" viewBox="0 0 24 24" fill='currentColor'><path d="M21 20.289V4.75H3v8H1.5v-9.5h21v17.039zM9 13.691q-1.444 0-2.472-1.028T5.5 10.192t1.028-2.471T9 6.692t2.472 1.029 1.028 2.471-1.028 2.472T9 13.692m0-1.5q.825 0 1.412-.587.588-.588.588-1.413t-.588-1.412A1.93 1.93 0 0 0 9 8.192q-.825 0-1.412.588A1.93 1.93 0 0 0 7 10.192q0 .825.588 1.413.587.587 1.412.587m-7.5 9.116v-2.224q0-.735.399-1.36a2.66 2.66 0 0 1 1.067-.962 14.5 14.5 0 0 1 2.99-1.09 12.95 12.95 0 0 1 6.087 0q1.509.363 2.992 1.09.667.336 1.066.962t.399 1.36v2.224zm1.5-1.5h12v-.724a1 1 0 0 0-.176-.562 1.3 1.3 0 0 0-.478-.422 13 13 0 0 0-2.635-.965 11.4 11.4 0 0 0-5.422 0q-1.343.329-2.635.965-.301.164-.478.422a1 1 0 0 0-.176.563z"/></svg>