<svg xmlns="http://www.w3.org/2000/svg" width="24" height="24" viewBox="0 0 24 24" fill='currentColor'><path d="M4.5 21.5v-19h15V4h-2.25v2.462h-9V4H6v16h4.28a4.7 4.7 0 0 1-1.475-1.554q-.555-.945-.555-2.177v-4.5h9v4.5q0 1.23-.555 2.177A4.7 4.7 0 0 1 15.22 20h4.28v1.5zm8.25-2.23q1.25 0 2.125-.876a2.9 2.9 0 0 0 .875-2.125v-3h-6v3q0 1.25.875 2.125a2.9 2.9 0 0 0 2.125.875m0-9.27a.85.85 0 0 0 .626-.259.85.85 0 0 0 .258-.625.85.85 0 0 0-.258-.626.85.85 0 0 0-.626-.26.85.85 0 0 0-.626.26.85.85 0 0 0-.259.626q0 .366.259.625a.85.85 0 0 0 .626.259"/></svg>