<svg xmlns="http://www.w3.org/2000/svg" width="24" height="24" viewBox="0 0 24 24" fill='currentColor'><path d="M12 16.75q-1.787 0-3.086-1.137a4.84 4.84 0 0 1-1.612-2.863H2.5v-1.5h4.802a4.84 4.84 0 0 1 1.612-2.863Q10.214 7.25 12 7.25t3.091 1.137a4.78 4.78 0 0 1 1.607 2.863H21.5v1.5h-4.802a4.78 4.78 0 0 1-1.607 2.863Q13.786 16.75 12 16.75m0-1.5a3.13 3.13 0 0 0 2.298-.952A3.13 3.13 0 0 0 15.25 12a3.13 3.13 0 0 0-.952-2.298A3.13 3.13 0 0 0 12 8.75a3.13 3.13 0 0 0-2.298.952A3.13 3.13 0 0 0 8.75 12q0 1.347.952 2.298A3.13 3.13 0 0 0 12 15.25"/></svg>