<svg xmlns="http://www.w3.org/2000/svg" width="24" height="24" viewBox="0 0 24 24" fill='currentColor'><path d="M12 20.673a8.5 8.5 0 0 1-3.415-.692A8.9 8.9 0 0 1 5.804 18.1a8.9 8.9 0 0 1-1.88-2.78 8.5 8.5 0 0 1-.693-3.416q0-1.823.692-3.416a8.9 8.9 0 0 1 1.881-2.78 8.9 8.9 0 0 1 2.78-1.881A8.5 8.5 0 0 1 12 3.135V.827l3.692 3.692L12 8.212V5.904q-2.493 0-4.246 1.754Q5.999 9.413 6 11.905q0 1.524.7 2.826a5.86 5.86 0 0 0 1.888 2.11q.362-.643 1.091-1.092a4.1 4.1 0 0 1 1.679-.565q-.07-.486-.189-.973a8 8 0 0 0-.273-.898q-.254.207-.554.322t-.646.115q-.761 0-1.306-.543a1.78 1.78 0 0 1-.544-1.306v-.924q0-.393-.123-.734a2.7 2.7 0 0 0-.338-.647q1.153-.025 2.052.207.785.208 1.43.68.646.472.672 1.425 0 .21-.038.383a1.5 1.5 0 0 1-.128.355 7 7 0 0 0-.598-.418 5 5 0 0 0-.621-.324q.396.306.902.926.507.621.944 1.472.471-1.129 1.16-2.225.69-1.095 1.61-2.02-.528.372-1.014.783-.487.412-.948.883a2.5 2.5 0 0 1-.251-.568 2.2 2.2 0 0 1-.096-.636q0-.963.673-1.635a2.23 2.23 0 0 1 1.638-.673h.92q.53 0 .875-.138t.575-.323q.256-.208.396-.462.09 1.55-.155 2.77a5.4 5.4 0 0 1-.792 1.902q-.575.864-1.82.864-.346 0-.657-.092a2.2 2.2 0 0 1-.565-.254q-.16.438-.368 1.164a11 11 0 0 0-.323 1.558 4.1 4.1 0 0 1 1.541.6q.668.44 1.013 1.04a6 6 0 0 0 1.883-2.099Q18 13.45 18 11.904h2.77a8.5 8.5 0 0 1-.693 3.415 8.9 8.9 0 0 1-1.881 2.78 8.9 8.9 0 0 1-2.78 1.882 8.5 8.5 0 0 1-3.416.692"/></svg>