<svg xmlns="http://www.w3.org/2000/svg" width="24" height="24" viewBox="0 0 24 24" fill='currentColor'><path d="m15.687 21.246-2.6-4.4H10a.82.82 0 0 1-.602-.244.82.82 0 0 1-.244-.602q0-.359.244-.602a.82.82 0 0 1 .602-.244h3.086l2.6-4.4h.812l-1.3 4.4h3.129l.75-1h.711L19.237 16l.552 1.846h-.711l-.75-1h-3.129l1.3 4.4zm-8.185-8 1.3-4.4H5.673l-.75 1h-.712L4.763 8l-.552-1.846h.712l.75 1h3.129l-1.3-4.4h.811l2.6 4.4H14q.359 0 .602.244a.82.82 0 0 1 .244.602q0 .358-.244.602a.82.82 0 0 1-.602.244h-3.086l-2.6 4.4z"/></svg>