<svg xmlns="http://www.w3.org/2000/svg" width="24" height="24" viewBox="0 0 24 24" fill='currentColor'><path d="m18.929 20.5-5.513-5.513 1.58-1.581 5.513 5.513zm-13.848 0L3.5 18.92l6.929-6.93-2.335-2.325-.623.624L6.36 9.167v1.925l-.623.623-2.823-2.823.623-.623h1.925L4.356 7.173l2.858-2.857q.423-.424.916-.62A2.8 2.8 0 0 1 9.156 3.5q.532 0 1.026.196.493.196.916.62L9.125 6.289l1.173 1.173-.623.623 2.334 2.325 2.405-2.404a2.5 2.5 0 0 1-.245-.628 3 3 0 0 1-.077-.682q0-1.35.931-2.28.93-.93 2.28-.931.319 0 .607.056.29.055.582.186L16.22 6 18 7.78l2.273-2.272q.146.292.194.582.048.289.048.606 0 1.35-.93 2.281-.931.93-2.281.93-.358 0-.682-.068a2 2 0 0 1-.628-.252z"/></svg>