<svg xmlns="http://www.w3.org/2000/svg" width="24" height="24" viewBox="0 0 24 24" fill='currentColor'><path d="m19.048 19.117-2.125 2.11-1.054-1.054 2.11-2.125-2.11-2.125 1.054-1.054 2.125 2.11 2.125-2.11 1.054 1.054-2.11 2.125 2.11 2.125-1.054 1.054zM6 21.5q-1.048 0-1.774-.726A2.4 2.4 0 0 1 3.5 19v-2.884h3V2.5h14v9.837a4.4 4.4 0 0 0-.735-.171A5 5 0 0 0 19 12.11V4H8v12.116h5.437a5.3 5.3 0 0 0-.293 1.5H5V19q0 .424.287.712Q5.576 20 6 20h7.437q.142.43.36.801.219.37.493.699zM9.192 8.692v-1.5h8.616v1.5zm0 2.885v-1.5h8.616v1.5zM13.437 20H5h8.144-.021z"/></svg>