<svg xmlns="http://www.w3.org/2000/svg" width="24" height="24" viewBox="0 0 24 24" fill='currentColor'><path d="m21.158 22.212-2.623-2.614a5 5 0 0 1-1.062.489 3.7 3.7 0 0 1-1.165.182q-1.644 0-2.803-1.158-1.16-1.16-1.159-2.803t1.159-2.803 2.803-1.159 2.802 1.159q1.16 1.159 1.16 2.803 0 .601-.174 1.168a3.9 3.9 0 0 1-.508 1.059l2.624 2.623zm-4.853-3.443q1.034 0 1.749-.713a2.37 2.37 0 0 0 .715-1.746q0-1.033-.713-1.748a2.37 2.37 0 0 0-1.746-.716q-1.033 0-1.748.713a2.37 2.37 0 0 0-.716 1.747q0 1.032.713 1.748a2.37 2.37 0 0 0 1.746.715M20.5 10H19V5h-2.5v2.615h-9V5H5v14h5.25v1.5H3.5v-17h6.214q.207-.73.848-1.211.642-.48 1.438-.481.827 0 1.46.48.635.482.842 1.212H20.5zm-8.498-4.884a.87.87 0 0 0 .643-.26.88.88 0 0 0 .259-.646.87.87 0 0 0-.26-.644.88.88 0 0 0-.646-.258.87.87 0 0 0-.643.26.88.88 0 0 0-.259.645.87.87 0 0 0 .26.644.88.88 0 0 0 .646.259"/></svg>