<svg xmlns="http://www.w3.org/2000/svg" width="24" height="24" viewBox="0 0 24 24" fill='currentColor'><path d="M8.323 14.323q.187-.533.295-1.118.11-.585.109-1.205 0-.619-.109-1.205a7.6 7.6 0 0 0-.295-1.118l-1.388.577q.121.412.206.853a4.7 4.7 0 0 1 0 1.786 9 9 0 0 1-.206.853zm3.22 1.35a8.4 8.4 0 0 0 .524-1.79q.16-.919.16-1.882 0-.964-.16-1.883a8.4 8.4 0 0 0-.525-1.791l-1.388.558q.302.72.437 1.505.136.783.136 1.61t-.136 1.61a7 7 0 0 1-.437 1.505zm3.25 1.35a13 13 0 0 0 .7-2.435q.234-1.26.234-2.588t-.234-2.588a13 13 0 0 0-.7-2.435l-1.389.608q.411 1.018.617 2.134t.206 2.279-.206 2.28a11 11 0 0 1-.617 2.137zM12.001 21.5a9.3 9.3 0 0 1-3.706-.748 9.6 9.6 0 0 1-3.016-2.03 9.6 9.6 0 0 1-2.032-3.016 9.25 9.25 0 0 1-.748-3.704q0-1.972.748-3.706a9.6 9.6 0 0 1 2.03-3.016 9.6 9.6 0 0 1 3.016-2.032 9.25 9.25 0 0 1 3.704-.748q1.972 0 3.706.748a9.6 9.6 0 0 1 3.017 2.03 9.6 9.6 0 0 1 2.03 3.016 9.25 9.25 0 0 1 .749 3.704q0 1.972-.748 3.706a9.6 9.6 0 0 1-2.03 3.017 9.6 9.6 0 0 1-3.016 2.03 9.25 9.25 0 0 1-3.704.749M12 20q3.35 0 5.675-2.325T20 12t-2.325-5.675T12 4 6.325 6.325 4 12t2.325 5.675T12 20"/></svg>