<svg xmlns="http://www.w3.org/2000/svg" width="24" height="24" viewBox="0 0 24 24" fill='currentColor'><path d="M14.25 15.654h1.5V12.75h2.904v-1.5H15.75V8.346h-1.5v2.904h-2.904v1.5h2.904zM6 19.962q-2.494-.95-3.997-3.125A8.3 8.3 0 0 1 .5 12q0-2.664 1.503-4.837Q3.506 4.989 6 4.037V5.7a6.85 6.85 0 0 0-2.925 2.575A6.83 6.83 0 0 0 2 12q0 2.025 1.075 3.725A6.85 6.85 0 0 0 6 18.3zm9 .538a8.3 8.3 0 0 1-3.315-.67 8.6 8.6 0 0 1-2.697-1.818 8.6 8.6 0 0 1-1.819-2.696 8.3 8.3 0 0 1-.669-3.315q0-1.77.67-3.316a8.6 8.6 0 0 1 1.819-2.697 8.6 8.6 0 0 1 2.695-1.819A8.3 8.3 0 0 1 15 3.5q1.77 0 3.315.67a8.6 8.6 0 0 1 2.697 1.819 8.6 8.6 0 0 1 1.819 2.695Q23.5 10.23 23.5 12t-.67 3.315a8.6 8.6 0 0 1-1.818 2.697 8.6 8.6 0 0 1-2.696 1.819 8.3 8.3 0 0 1-3.315.669m0-1.5q2.925 0 4.962-2.038T22 12t-2.038-4.962T15 5t-4.962 2.037T8 12t2.037 4.962T15 19"/></svg>