<svg xmlns="http://www.w3.org/2000/svg" width="24" height="24" viewBox="0 0 24 24" fill='currentColor'><path d="M.5 20.308V3.692h23v16.616zm14.842-1.5H22V5.192H2v13.616h.658a7.7 7.7 0 0 1 2.727-2.558A7.26 7.26 0 0 1 9 15.308a7.26 7.26 0 0 1 3.615.942 7.7 7.7 0 0 1 2.727 2.558M9 14.115q1.145 0 1.948-.801a2.65 2.65 0 0 0 .803-1.948q0-1.145-.802-1.948a2.65 2.65 0 0 0-1.947-.803q-1.145 0-1.948.802a2.65 2.65 0 0 0-.803 1.947q0 1.146.802 1.948A2.65 2.65 0 0 0 9 14.115m-4.45 4.693h8.9a6.1 6.1 0 0 0-2.019-1.475A5.8 5.8 0 0 0 9 16.808q-1.275 0-2.425.525a6.3 6.3 0 0 0-2.025 1.475M9 12.615q-.522 0-.886-.364a1.2 1.2 0 0 1-.364-.886q0-.52.364-.885T9 10.115t.886.365.364.885-.364.886a1.2 1.2 0 0 1-.886.364m8.404-.769h1.192v-1.815l1.571.907.596-1.03L19.194 9l1.57-.908-.596-1.03-1.57.907V6.154h-1.193v1.815l-1.571-.908-.597 1.031L16.809 9l-1.572.908.597 1.03 1.57-.907z"/></svg>