<svg xmlns="http://www.w3.org/2000/svg" width="24" height="24" viewBox="0 0 24 24" fill='currentColor'><path d="M19 20.75q-.936 0-1.668-.562a2.62 2.62 0 0 1-.965-1.438H11a3.6 3.6 0 0 1-2.652-1.098A3.6 3.6 0 0 1 7.25 15q0-1.554 1.098-2.652A3.6 3.6 0 0 1 11 11.25h2q.929 0 1.589-.662.66-.66.661-1.59 0-.93-.661-1.588-.66-.66-1.589-.66H7.633a2.7 2.7 0 0 1-.973 1.438A2.63 2.63 0 0 1 5 8.75a2.65 2.65 0 0 1-1.948-.802 2.65 2.65 0 0 1-.802-1.947q0-1.145.802-1.948A2.65 2.65 0 0 1 5 3.25q.936 0 1.66.563t.973 1.437H13q1.554 0 2.652 1.098A3.6 3.6 0 0 1 16.75 9q0 1.554-1.098 2.652A3.6 3.6 0 0 1 13 12.75h-2q-.929 0-1.589.662a2.17 2.17 0 0 0-.661 1.59q0 .93.661 1.588.66.66 1.589.66h5.367q.249-.875.973-1.437A2.63 2.63 0 0 1 19 15.25q1.146 0 1.948.802a2.65 2.65 0 0 1 .802 1.947q0 1.145-.802 1.948A2.65 2.65 0 0 1 19 20.75M5 7.25q.522 0 .886-.364.363-.364.364-.886 0-.522-.364-.886A1.2 1.2 0 0 0 5 4.75q-.522 0-.886.364A1.2 1.2 0 0 0 3.75 6q0 .522.364.886.365.363.886.364"/></svg>