<svg xmlns="http://www.w3.org/2000/svg" width="24" height="24" viewBox="0 0 24 24" fill='currentColor'><path d="M4 18v-7.846.402V6zm0-9.596h16V6H4zM11.421 19.5H2.5v-15h19v6.806a6.9 6.9 0 0 0-1.773-.85 6.6 6.6 0 0 0-2.01-.302q-1.146 0-2.177.383a6.3 6.3 0 0 0-1.848 1.059H4V18h6.994q.066.4.168.77.1.37.26.73m5.546 1.904-.203-1.192a4 4 0 0 1-.726-.292 3 3 0 0 1-.644-.462l-1.142.392-.77-1.258.92-.788a3.4 3.4 0 0 1 0-1.684l-.92-.79.77-1.257 1.142.393a2.6 2.6 0 0 1 .639-.463q.345-.175.73-.292l.204-1.192h1.5l.204 1.192q.387.117.731.292.345.175.638.463l1.143-.393.769 1.258-.92.788a3.4 3.4 0 0 1 0 1.685l.92.788-.77 1.258-1.142-.392a3 3 0 0 1-.643.462 4 4 0 0 1-.726.291l-.204 1.193zm.75-2.366q.864 0 1.47-.606.607-.607.607-1.47 0-.864-.607-1.47a2 2 0 0 0-1.47-.608q-.863 0-1.47.607a2 2 0 0 0-.607 1.47q0 .864.607 1.47.607.607 1.47.607"/></svg>