<svg xmlns="http://www.w3.org/2000/svg" width="24" height="24" viewBox="0 0 24 24" fill='currentColor'><path d="m19.54 19.317.624-.623-1.885-1.884v-2.771h-.885v3.132zm-1.688 2.327q-1.956 0-3.318-1.349-1.36-1.349-1.361-3.305 0-1.955 1.361-3.31 1.362-1.353 3.318-1.353 1.94 0 3.29 1.361 1.348 1.362 1.348 3.303t-1.349 3.297-3.289 1.356M4 18v-7.846.402V6zm0-9.596h16V6H4zM11.421 19.5H2.5v-15h19v6.806a6.9 6.9 0 0 0-1.773-.85 6.6 6.6 0 0 0-2.01-.302q-1.146 0-2.177.383a6.3 6.3 0 0 0-1.848 1.059H4V18h6.994q.066.4.168.77.1.37.26.73"/></svg>