<svg xmlns="http://www.w3.org/2000/svg" width="24" height="24" viewBox="0 0 24 24" fill='currentColor'><path d="M6 14.27h12v-3.318h-7.904V6H8q-.824 0-1.412.607A2.03 2.03 0 0 0 6 8.067zM12.002 20q.566 0 1.128-.087a10 10 0 0 0 1.12-.24v-3.904h-4.5v3.904q.558.155 1.123.24.564.087 1.13.087M12 21.5a9.3 9.3 0 0 1-3.63-.724 9.9 9.9 0 0 1-3.099-2.047l1.07-1.07a7.7 7.7 0 0 0 1.909 1.4v-3.29H4.5V8.067q0-1.476 1.028-2.522T8 4.5h3.596v4.952H19.5v6.317h-3.75v3.29a7.9 7.9 0 0 0 1.91-1.4l1.069 1.07a9.9 9.9 0 0 1-3.1 2.047A9.3 9.3 0 0 1 12 21.5"/></svg>