<svg xmlns="http://www.w3.org/2000/svg" width="24" height="24" viewBox="0 0 24 24" fill='currentColor'><path d="M13.467 17.394h1.842l.01-.075-4-4.27.025-.074h.25q1.408 0 2.315-.787a3.08 3.08 0 0 0 1.068-1.963h.98v-.992H14.95a2.5 2.5 0 0 0-.294-.838 3.3 3.3 0 0 0-.554-.71h1.856v-.993H8.042v1.146h3.544q.814 0 1.337.383.523.382.673 1.012H8.042v.992h5.58a1.82 1.82 0 0 1-.667 1.113q-.536.43-1.415.43H9.464v1.282zM12.002 21.5a9.3 9.3 0 0 1-3.706-.748 9.6 9.6 0 0 1-3.016-2.03 9.6 9.6 0 0 1-2.032-3.016 9.25 9.25 0 0 1-.748-3.704q0-1.972.748-3.706a9.6 9.6 0 0 1 2.03-3.016 9.6 9.6 0 0 1 3.016-2.032 9.25 9.25 0 0 1 3.704-.748q1.972 0 3.706.748a9.6 9.6 0 0 1 3.017 2.03 9.6 9.6 0 0 1 2.03 3.016 9.25 9.25 0 0 1 .749 3.704q0 1.972-.748 3.706a9.6 9.6 0 0 1-2.03 3.017 9.6 9.6 0 0 1-3.016 2.03 9.25 9.25 0 0 1-3.704.749M12 20q3.35 0 5.675-2.325T20 12t-2.325-5.675T12 4 6.325 6.325 4 12t2.325 5.675T12 20"/></svg>