<svg xmlns="http://www.w3.org/2000/svg" width="24" height="24" viewBox="0 0 24 24" fill='currentColor'><path d="M12 22.5q-2.925 0-5.309-1.448a10.4 10.4 0 0 1-3.739-3.881v2.983h-1.5v-5.5h5.5v1.5h-2.84q1.084 2.184 3.205 3.515T12 21a8.8 8.8 0 0 0 3.445-.679 9 9 0 0 0 2.817-1.853 9.1 9.1 0 0 0 1.939-2.773 8.9 8.9 0 0 0 .79-3.445h1.5a10.2 10.2 0 0 1-.892 3.996 10.7 10.7 0 0 1-2.262 3.26A10.5 10.5 0 0 1 16.03 21.7q-1.89.8-4.03.8m-.708-3.692v-1.262q-1.097-.255-1.826-.912-.727-.655-1.116-1.768l1.265-.516q.358.976 1.024 1.485.667.507 1.511.507.854 0 1.533-.426t.678-1.366q0-.782-.583-1.247-.584-.465-2.178-1.05-1.542-.553-2.225-1.24T8.692 9.2q0-.967.699-1.771.697-.804 1.951-1.025V5.192h1.366v1.212a2.8 2.8 0 0 1 1.55.633q.71.57 1.023 1.367l-1.235.496a2.44 2.44 0 0 0-.736-.924q-.48-.368-1.26-.368-.933 0-1.463.442t-.53 1.15.518 1.102q.518.395 2.094.933 1.8.65 2.42 1.457a2.97 2.97 0 0 1 .619 1.858q0 .716-.265 1.256-.264.54-.691.909-.428.368-.972.581a5.2 5.2 0 0 1-1.122.3v1.212zM1.51 11.75q.067-2.179.92-4.049a10.6 10.6 0 0 1 2.28-3.255 10.5 10.5 0 0 1 3.304-2.165Q9.888 1.5 12 1.5q2.895 0 5.309 1.453a10.07 10.07 0 0 1 3.739 3.915V3.846h1.5v5.5h-5.5v-1.5h2.84Q18.834 5.7 16.708 4.35T12 3a8.75 8.75 0 0 0-3.402.67 9.1 9.1 0 0 0-2.821 1.833 9.1 9.1 0 0 0-1.963 2.763q-.747 1.599-.804 3.484z"/></svg>