<svg xmlns="http://www.w3.org/2000/svg" width="24" height="24" viewBox="0 0 24 24" fill='currentColor'><path d="M9.404 20.5v-2h-3V17h2V7h-2V5.5h3v-2h1.5v2H13v-2h1.5v2.077q1.31.215 2.155 1.191.845.975.845 2.357a3.53 3.53 0 0 1-1.027 2.527 3.4 3.4 0 0 1 1.48 1.286q.547.856.547 1.937 0 1.535-1.045 2.58-1.046 1.045-2.58 1.045H14.5v2H13v-2h-2.096v2zm.5-9.25h3.971q.902 0 1.514-.611.61-.612.611-1.514 0-.902-.611-1.513Q14.777 7 13.875 7H9.904zm0 5.75h4.971q.902 0 1.514-.611.61-.612.611-1.514 0-.902-.611-1.514-.612-.61-1.514-.611H9.904z"/></svg>