<svg xmlns="http://www.w3.org/2000/svg" width="24" height="24" viewBox="0 0 24 24" fill='currentColor'><path d="M2.5 20.5V19h2V3.5h15V19h2v1.5zM6 19h4.19q-.2-1.846-1.217-3.71T6 12.89zM6 5v6.11q1.956-.535 2.973-2.4T10.19 5zm1.667 7q1.844.99 2.847 2.979Q11.515 16.967 11.7 19h.6q.185-2.033 1.186-4.021Q14.489 12.99 16.334 12q-1.854-.99-2.856-2.979Q12.476 7.033 12.29 5h-.59q-.185 2.033-1.186 4.021Q9.512 11.01 7.667 12M18 5h-4.2q.2 1.846 1.217 3.71T18 11.11zm0 14v-6.11q-1.965.535-2.97 2.4T13.825 19z"/></svg>