<svg xmlns="http://www.w3.org/2000/svg" width="24" height="24" viewBox="0 0 24 24" fill='currentColor'><path d="m19.192 20.77-7.153-7.155-2.735 2.735q.21.375.299.795.09.42.09.855 0 1.507-1.074 2.58-1.072 1.074-2.58 1.074-1.506 0-2.58-1.073Q2.385 19.507 2.385 18q0-1.508 1.073-2.58 1.074-1.075 2.58-1.075.435 0 .855.09t.796.299L10.423 12 7.689 9.265q-.375.21-.796.3-.42.089-.854.089-1.507 0-2.581-1.073Q2.385 7.507 2.385 6q0-1.508 1.073-2.58 1.072-1.075 2.58-1.075 1.506 0 2.58 1.073Q9.692 4.493 9.692 6q0 .435-.09.856-.088.42-.298.795L21.615 19.96v.808zm-4.384-9.924-1.616-1.615 6-6h2.423v.807zm-8.77-2.692q.89 0 1.522-.633T8.192 6q0-.889-.632-1.521a2.08 2.08 0 0 0-1.521-.633q-.89 0-1.522.633a2.07 2.07 0 0 0-.632 1.52q0 .89.632 1.522.633.633 1.522.633m6 4.096a.24.24 0 0 0 .175-.075.24.24 0 0 0 0-.35.24.24 0 0 0-.35 0 .24.24 0 0 0 0 .35.24.24 0 0 0 .176.075m-6 7.904q.89 0 1.522-.633T8.192 18q0-.889-.632-1.521a2.07 2.07 0 0 0-1.521-.633q-.89 0-1.522.633a2.07 2.07 0 0 0-.632 1.52q0 .89.632 1.522.633.633 1.522.633"/></svg>