<svg xmlns="http://www.w3.org/2000/svg" width="24" height="24" viewBox="0 0 24 24" fill='currentColor'><path d="M12 15.5q-1.448 0-2.474-1.026A3.37 3.37 0 0 1 8.5 12q0-1.448 1.026-2.474A3.37 3.37 0 0 1 12 8.5q1.448 0 2.474 1.026A3.37 3.37 0 0 1 15.5 12q0 1.448-1.026 2.474A3.37 3.37 0 0 1 12 15.5m0-1.5q.825 0 1.412-.588Q14 12.825 14 12q0-.824-.588-1.413A1.93 1.93 0 0 0 12 10q-.825 0-1.412.587A1.93 1.93 0 0 0 10 12q0 .825.588 1.412Q11.175 14 12 14m4.785 7.558q.41-1.381.622-2.606.21-1.225.306-2.212a7.2 7.2 0 0 1-2.48 2.006A7.1 7.1 0 0 1 12 19.5q-3.63 0-5.857-.347-2.226-.348-3.7-.772v-1.596q1.4.44 2.624.646t2.212.282q-1.213-.911-1.996-2.428A7.06 7.06 0 0 1 4.5 12q0-3.012.357-5.47.357-2.46.753-4.088h1.596Q6.804 3.94 6.6 5.12q-.204 1.182-.313 2.159.94-1.243 2.442-2.01A7.1 7.1 0 0 1 12 4.498q3.329 0 5.653.348 2.324.347 3.905.763v1.596a24 24 0 0 0-2.654-.63 26 26 0 0 0-2.173-.3 7.1 7.1 0 0 1 2.03 2.515A7.2 7.2 0 0 1 19.5 12q0 3.473-.361 5.778-.362 2.304-.758 3.78zM12 18q2.5 0 4.25-1.75T18 12t-1.75-4.25T12 6 7.75 7.75 6 12t1.75 4.25T12 18"/></svg>