<svg xmlns="http://www.w3.org/2000/svg" width="24" height="24" viewBox="0 0 24 24" fill='currentColor'><path d="M12.029 20.5q-3.541 0-6.021-2.48-2.48-2.478-2.479-6.02 0-3.394 2.303-5.822t5.639-2.63a6 6 0 0 1 .83.062 5.3 5.3 0 0 0-1.218 1.729 5.2 5.2 0 0 0-.454 2.161q0 2.458 1.72 4.18 1.721 1.72 4.18 1.72 1.163 0 2.169-.454a5.2 5.2 0 0 0 1.712-1.219 5 5 0 0 1 .061.83q-.192 3.337-2.62 5.64T12.029 20.5m0-1.5q2.2 0 3.95-1.212a7 7 0 0 0 2.55-3.163q-.5.125-1 .2t-1 .075q-3.075 0-5.238-2.162Q9.13 10.575 9.13 7.5q0-.5.075-1t.2-1A7 7 0 0 0 6.24 8.05Q5.03 9.8 5.03 12q0 2.9 2.05 4.95T12.03 19"/></svg>