<svg xmlns="http://www.w3.org/2000/svg" width="24" height="24" viewBox="0 0 24 24" fill='currentColor'><path d="M12 21.5q-1.972 0-3.705-.748a9.6 9.6 0 0 1-3.016-2.03 9.6 9.6 0 0 1-2.03-3.016 9.25 9.25 0 0 1-.749-3.704q0-1.972.748-3.706a9.6 9.6 0 0 1 2.03-3.016 9.6 9.6 0 0 1 3.016-2.032 9.25 9.25 0 0 1 3.704-.748q1.972 0 3.706.748a9.6 9.6 0 0 1 3.017 2.03 9.6 9.6 0 0 1 2.03 3.017A9.25 9.25 0 0 1 21.5 12v9.5zm0-1.5q3.35 0 5.675-2.325T20 12t-2.325-5.675T12 4 6.325 6.325 4 12q0 .642.094 1.26.094.617.292 1.2l3.623-3.624 3.31 2.775 3.862-3.861H13.25v-1.5h4.5v4.5h-1.5v-1.921l-4.86 4.835-3.274-2.8-3.066 3.065a8 8 0 0 0 2.856 2.946Q9.741 20 12 20m7.384.27a.85.85 0 0 0 .627-.26.85.85 0 0 0 .258-.626.85.85 0 0 0-.258-.625.85.85 0 0 0-.626-.259.85.85 0 0 0-.626.259.85.85 0 0 0-.259.625q0 .368.259.627a.85.85 0 0 0 .625.258"/></svg>