<svg xmlns="http://www.w3.org/2000/svg" width="24" height="24" viewBox="0 0 24 24" fill='currentColor'><path d="M19.573 21.696 2.304 4.426l1.054-1.068 17.284 17.284zM12 20.5q-3.64 0-6.07-1.028-2.43-1.027-2.43-2.568V7q0-.554.399-1.055.4-.5 1.112-.934l5.32 5.32a16.3 16.3 0 0 1-2.979-.489Q5.99 9.476 5 8.9v3.548q1.227.724 3.042 1.12 1.815.393 3.958.393.49 0 .956-.012t.93-.063l1.318 1.318q-.754.135-1.559.197-.804.06-1.645.06-2.143 0-3.958-.394T5 13.947V17q.37.811 2.447 1.406T12 19q1.725 0 3.304-.31 1.579-.312 2.59-.796l1.095 1.094q-1.14.699-2.95 1.105-1.812.407-4.039.407m8.346-2.98L19 16.176v-2.227q-.343.198-.723.366-.381.17-.816.322l-1.15-1.15q.77-.2 1.447-.452A7.7 7.7 0 0 0 19 12.448V8.9q-1.072.633-2.571 1.007-1.498.373-3.237.46l-1.41-1.41a15 15 0 0 0 2.05-.136 19 19 0 0 0 2.224-.414q1.07-.27 1.88-.631.808-.363 1.035-.77-.342-.735-2.541-1.37A16 16 0 0 0 12 5q-.925 0-1.887.125-.963.125-1.838.325L7.01 4.185a16 16 0 0 1 2.326-.501A18.6 18.6 0 0 1 12 3.5q3.523 0 6.012 1.028T20.5 7v9.904q0 .172-.038.316a1.7 1.7 0 0 1-.116.3"/></svg>