<svg xmlns="http://www.w3.org/2000/svg" width="24" height="24" viewBox="0 0 24 24" fill='currentColor'><path d="M8 13.942a.85.85 0 0 1-.626-.258.85.85 0 0 1-.258-.626q0-.368.258-.626A.85.85 0 0 1 8 12.173q.368 0 .626.259a.85.85 0 0 1 .258.626.85.85 0 0 1-.258.626.85.85 0 0 1-.626.258m4 0a.85.85 0 0 1-.626-.258.85.85 0 0 1-.258-.626q0-.368.258-.626a.85.85 0 0 1 .626-.259q.368 0 .626.259a.85.85 0 0 1 .258.626.85.85 0 0 1-.258.626.85.85 0 0 1-.626.258m4 0a.85.85 0 0 1-.626-.258.85.85 0 0 1-.258-.626q0-.368.258-.626a.85.85 0 0 1 .626-.259q.367 0 .626.259a.85.85 0 0 1 .258.626.85.85 0 0 1-.258.626.85.85 0 0 1-.626.258M3.5 21.5v-17h3.192V2.385h1.539V4.5h7.577V2.385h1.5V4.5H20.5v17zM5 20h14v-9.692H5zM5 8.808h14V6H5z"/></svg>