<svg xmlns="http://www.w3.org/2000/svg" width="24" height="24" viewBox="0 0 24 24" fill='currentColor'><path d="M6 14.923a.9.9 0 0 1-.658-.265.9.9 0 0 1-.265-.658q0-.391.265-.658A.9.9 0 0 1 6 13.077q.391 0 .658.265a.9.9 0 0 1 .265.658q0 .391-.265.658a.9.9 0 0 1-.658.265m0 4a.9.9 0 0 1-.658-.265.9.9 0 0 1-.265-.658q0-.392.265-.658A.9.9 0 0 1 6 17.077q.391 0 .658.265a.9.9 0 0 1 .265.658q0 .392-.265.658a.9.9 0 0 1-.658.265m0-8a.9.9 0 0 1-.658-.265.9.9 0 0 1-.265-.658q0-.391.265-.658A.9.9 0 0 1 6 9.077q.391 0 .658.265a.9.9 0 0 1 .265.658q0 .391-.265.658a.9.9 0 0 1-.658.265M3 10.5a.48.48 0 0 1-.35-.15.48.48 0 0 1 0-.7.48.48 0 0 1 .7 0 .48.48 0 0 1 0 .7.48.48 0 0 1-.35.15m3-3.577a.9.9 0 0 1-.658-.265A.9.9 0 0 1 5.077 6q0-.391.265-.658A.9.9 0 0 1 6 5.077q.391 0 .658.265A.9.9 0 0 1 6.923 6q0 .391-.265.658A.9.9 0 0 1 6 6.923M3 14.5a.48.48 0 0 1-.35-.15.48.48 0 0 1 0-.7.48.48 0 0 1 .7 0 .48.48 0 0 1 0 .7.48.48 0 0 1-.35.15m7 7a.48.48 0 0 1-.35-.15.48.48 0 0 1 0-.7.48.48 0 0 1 .7 0 .48.48 0 0 1 0 .7.48.48 0 0 1-.35.15m0-18a.48.48 0 0 1-.35-.15.48.48 0 0 1 0-.7.48.48 0 0 1 .7 0 .48.48 0 0 1 0 .7.48.48 0 0 1-.35.15m0 3.423a.9.9 0 0 1-.658-.265A.9.9 0 0 1 9.077 6q0-.391.265-.658A.9.9 0 0 1 10 5.077q.391 0 .658.265a.9.9 0 0 1 .265.658q0 .391-.265.658a.9.9 0 0 1-.658.265m.002 8.423q-.56 0-.954-.392a1.3 1.3 0 0 1-.394-.952q0-.56.392-.954.391-.394.952-.394t.954.392.394.952-.392.954a1.3 1.3 0 0 1-.952.394m0-4q-.56 0-.954-.392a1.3 1.3 0 0 1-.394-.952q0-.56.392-.954.391-.394.952-.394t.954.392.394.952-.392.954a1.3 1.3 0 0 1-.952.394M10 18.923a.9.9 0 0 1-.658-.265.9.9 0 0 1-.265-.658q0-.392.265-.658a.9.9 0 0 1 .658-.265q.391 0 .658.265a.9.9 0 0 1 .265.658q0 .392-.265.658a.9.9 0 0 1-.658.265m2.25 1.817v-1.5q2.9-.076 4.95-2.17 2.05-2.092 2.05-5.07 0-2.977-2.05-5.07t-4.95-2.17v-1.5a8.4 8.4 0 0 1 3.315.74 8.8 8.8 0 0 1 2.703 1.89 8.9 8.9 0 0 1 1.817 2.759A8.5 8.5 0 0 1 20.75 12a8.5 8.5 0 0 1-.665 3.35 8.9 8.9 0 0 1-1.817 2.76 8.8 8.8 0 0 1-2.703 1.889 8.4 8.4 0 0 1-3.315.741"/></svg>