<svg xmlns="http://www.w3.org/2000/svg" width="24" height="24" viewBox="0 0 24 24" fill='currentColor'><path d="M10.958 19.904a5.7 5.7 0 0 0-1.4-2.233 6.3 6.3 0 0 0-1.025-.834 5.5 5.5 0 0 0-1.2-.583q.05.724.35 1.35.3.624.8 1.125.5.5 1.125.808.624.307 1.35.367m2.075 0a3.9 3.9 0 0 0 1.352-.365q.628-.3 1.13-.8t.802-1.13.366-1.355q-.648.224-1.208.575a5.96 5.96 0 0 0-2.442 3.075M12 11.289q1.621 0 2.762-1.142t1.142-2.762V5.896l-1.75 1.475L12 4.646 9.846 7.371l-1.75-1.475v1.489q0 1.62 1.141 2.762T12 11.29m-.692 10.115q-2.292 0-3.896-1.604t-1.604-3.896v-1.442a7.15 7.15 0 0 1 3.119.931q1.44.822 2.323 2.107v-4.758q-1.986-.263-3.32-1.776-1.335-1.514-1.334-3.581V2.618l3.058 2.64L12 2.31l2.346 2.948 3.058-2.64v4.767q0 2.068-1.334 3.58-1.334 1.515-3.32 1.777v4.749q.882-1.276 2.318-2.098a7.1 7.1 0 0 1 3.105-.931v1.442q0 2.291-1.601 3.896-1.602 1.604-3.89 1.604z"/></svg>