<svg xmlns="http://www.w3.org/2000/svg" width="24" height="24" viewBox="0 0 24 24" fill='currentColor'><path d="M15.635 21.394 11.99 17.75l3.643-3.644 1.055 1.044L14.864 17h6.492v1.5h-6.493l1.826 1.85zm-12.51-8.48v-2.347h2.346v2.347zm6.663 0q-1.296 0-2.21-.916a3 3 0 0 1-.915-2.21v-4q0-1.295.916-2.21a3 3 0 0 1 2.21-.914q1.296 0 2.21.915.915.915.915 2.21v4q0 1.295-.916 2.21-.915.915-2.21.915m0-1.5q.677 0 1.152-.474t.474-1.151v-4q0-.678-.474-1.151a1.57 1.57 0 0 0-1.151-.474q-.677 0-1.152.474-.474.475-.473 1.15v4q0 .678.473 1.152.474.474 1.152.474"/></svg>