<svg xmlns="http://www.w3.org/2000/svg" width="24" height="24" viewBox="0 0 24 24" fill='currentColor'><path d="m16.256 20.5-1.045-1.044 2.1-2.1-2.1-2.1 1.045-1.045 2.1 2.1 2.1-2.1 1.044 1.045-2.075 2.1 2.075 2.1-1.044 1.044-2.1-2.075zm-4.275 0q-3.249 0-5.662-2.139T3.541 13h1.53q.38 2.59 2.332 4.295Q9.356 19 11.981 19q.275 0 .527-.012t.511-.063v1.515a6 6 0 0 1-.511.047q-.252.013-.527.013m-8-11.27V4.155h1.5v2.369a8.5 8.5 0 0 1 2.915-2.23 8.4 8.4 0 0 1 3.585-.793q3.538 0 6.019 2.48 2.48 2.482 2.48 6.02v.135h-1.5V12q0-2.925-2.037-4.962T11.981 5a6.7 6.7 0 0 0-3.071.728 7.6 7.6 0 0 0-2.468 2.003h2.616v1.5zm9.658 5.453-2.38-2.38V7h1.5v4.696l1.67 1.67z"/></svg>