<svg xmlns="http://www.w3.org/2000/svg" width="24" height="24" viewBox="0 0 24 24" fill='currentColor'><path d="M7.25 19.5a2.65 2.65 0 0 1-1.947-.803A2.65 2.65 0 0 1 4.5 16.75H2.135l.334-1.5h2.547A2.6 2.6 0 0 1 7.25 14q.708 0 1.297.34.59.34.938.91h4.396L16.029 6H5.079l.062-.261a1.5 1.5 0 0 1 .533-.893q.422-.346.993-.346h11.237l-.867 3.75h2.502l2.855 3.808-.932 4.692h-1.578q0 1.145-.802 1.947a2.65 2.65 0 0 1-1.947.803 2.65 2.65 0 0 1-1.948-.803 2.65 2.65 0 0 1-.802-1.947H10a2.65 2.65 0 0 1-.803 1.947 2.65 2.65 0 0 1-1.947.803m8.656-6.375h4.738l.139-.708-1.995-2.667h-2.096zm-.023-6.536L16.029 6l-2.148 9.25.146-.588.821-3.574zM1.087 13.162l.375-1.5h4.99l-.375 1.5zm2-3.574.374-1.5h5.991l-.375 1.5zM7.25 18q.522 0 .886-.364t.364-.886-.364-.886a1.2 1.2 0 0 0-.886-.364q-.522 0-.886.364A1.2 1.2 0 0 0 6 16.75q0 .522.364.886.365.364.886.364m9.885 0q.52 0 .885-.364t.365-.886-.365-.886a1.2 1.2 0 0 0-.885-.364q-.522 0-.886.364a1.2 1.2 0 0 0-.364.886q0 .522.364.886t.886.364"/></svg>