<svg xmlns="http://www.w3.org/2000/svg" width="24" height="24" viewBox="0 0 24 24" fill='currentColor'><path d="M16.904 2.625q1.448.01 2.474 1.03a3.36 3.36 0 0 1 1.026 2.47q0 .256-.033.699-.032.444-.107 1.034l-1.385 10.075a1.82 1.82 0 0 1-.69 1.242q-.593.475-1.36.475-.488 0-.885-.235a2.2 2.2 0 0 1-.673-.619l-2.819-3.967a.5.5 0 0 0-.201-.181.6.6 0 0 0-.276-.062q-.138 0-.477.293L8.754 18.72q-.302.414-.723.671a1.7 1.7 0 0 1-.91.258q-.766 0-1.348-.487a1.9 1.9 0 0 1-.677-1.255l-1.36-10.05q-.075-.59-.107-1.034a10 10 0 0 1-.033-.699q0-1.448 1.026-2.474a3.37 3.37 0 0 1 2.474-1.026q.813 0 1.342.237.527.239 1.027.513.501.275 1.077.513.577.237 1.458.237.89 0 1.472-.237.581-.239 1.082-.513.5-.275 1.03-.513.531-.237 1.32-.237m0 1.5q-.576 0-1.013.237-.437.239-.953.513a8.5 8.5 0 0 1-1.196.513q-.68.237-1.742.237-1.043 0-1.723-.237a8.5 8.5 0 0 1-1.196-.513l-.963-.513a2.15 2.15 0 0 0-1.022-.237q-.825 0-1.412.588a1.93 1.93 0 0 0-.588 1.412q0 .2.025.575t.1.875L6.596 17.7a.44.44 0 0 0 .175.313q.15.111.35.112a.4.4 0 0 0 .268-.093.9.9 0 0 0 .194-.223l2.678-3.776q.303-.423.756-.685.454-.261.983-.262.519 0 .978.262.46.261.76.685l2.72 3.851q.078.104.168.185t.228.081a.62.62 0 0 0 .362-.112.43.43 0 0 0 .188-.313l1.375-10.15a11 11 0 0 0 .125-1.45q0-.824-.588-1.412a1.93 1.93 0 0 0-1.412-.588"/></svg>