<svg xmlns="http://www.w3.org/2000/svg" width="24" height="24" viewBox="0 0 24 24" fill='currentColor'><path d="m16.77 20.692-4.02-2.345v-4.668l4.02-2.346 4.038 2.347v4.65zm-2.274-6.688 2.283 1.327 2.282-1.327-2.282-1.312zm2.879 4.95 2.24-1.294v-2.737l-2.24 1.335zm-3.433-1.29 2.24 1.315v-2.696l-2.24-1.325zM10 11.691q-1.444 0-2.472-1.028T6.5 8.192 7.528 5.72 10 4.692t2.472 1.028T13.5 8.192t-1.028 2.472Q11.443 11.693 10 11.692m-7.5 7.616v-2.224a2.52 2.52 0 0 1 1.466-2.323q1.245-.621 2.692-1.037 1.446-.417 3.342-.416h.292q.121 0 .262.03a5.4 5.4 0 0 0-.251.721 8 8 0 0 0-.165.749H10q-1.726 0-3.058.397-1.33.396-2.288.895a1.3 1.3 0 0 0-.497.427 1 1 0 0 0-.157.557v.724h6.3q.11.38.29.773.177.391.39.727zm7.5-9.116q.825 0 1.412-.587Q12 9.017 12 8.192q0-.824-.588-1.412A1.93 1.93 0 0 0 10 6.192q-.825 0-1.412.588A1.93 1.93 0 0 0 8 8.192q0 .825.588 1.413.587.587 1.412.587"/></svg>