<svg xmlns="http://www.w3.org/2000/svg" width="24" height="24" viewBox="0 0 24 24" fill='currentColor'><path d="M2.5 20.5v-10h6.75V12q0 1.146.802 1.948a2.65 2.65 0 0 0 1.947.802q1.145 0 1.948-.802A2.65 2.65 0 0 0 14.75 12v-1.5h6.75v10zM4 19h16v-7h-3.75q0 1.767-1.243 3.008T12 16.25t-3.007-1.243T7.75 12H4zm8-6.25a.73.73 0 0 1-.534-.216.73.73 0 0 1-.216-.534q0-2.663.61-5.253a7.86 7.86 0 0 1 2.644-4.305.76.76 0 0 1 .547-.175.72.72 0 0 1 .507.267.7.7 0 0 1 .18.547.7.7 0 0 1-.277.502q-1.788 1.513-2.25 3.789A23.2 23.2 0 0 0 12.75 12q0 .319-.216.534a.73.73 0 0 1-.534.216m-6.252 2.711a.687.687 0 0 0 .713-.71.687.687 0 0 0-.71-.713.687.687 0 0 0-.713.71q0 .308.202.51a.7.7 0 0 0 .508.204m1 2.5a.687.687 0 0 0 .713-.71.687.687 0 0 0-.71-.713.687.687 0 0 0-.713.71q0 .307.202.51a.7.7 0 0 0 .508.204m11.5-2.5a.687.687 0 0 0 .713-.71.687.687 0 0 0-.71-.713.687.687 0 0 0-.713.71q0 .308.201.51a.7.7 0 0 0 .51.204"/></svg>