<svg xmlns="http://www.w3.org/2000/svg" width="24" height="24" viewBox="0 0 24 24" fill='currentColor'><path d="M9 14h6.5q.945 0 1.597-.665.653-.666.653-1.61a2.14 2.14 0 0 0-.673-1.597 2.25 2.25 0 0 0-1.627-.653h-.135v-.058a3.1 3.1 0 0 0-1.074-2.081A3.3 3.3 0 0 0 12 6.5q-.948 0-1.74.511a3.2 3.2 0 0 0-1.189 1.37l-.067.134-.144.01a2.65 2.65 0 0 0-1.857.835 2.63 2.63 0 0 0-.753 1.89q0 1.145.803 1.947A2.65 2.65 0 0 0 9 14m0-1.5q-.522 0-.886-.364a1.2 1.2 0 0 1-.364-.886q0-.522.364-.886T9 10h1.01v-.154q.057-.783.632-1.314A1.93 1.93 0 0 1 12 8q.831 0 1.415.585T14 10v1h1.5q.306 0 .528.222a.72.72 0 0 1 .222.528q0 .306-.222.528a.72.72 0 0 1-.528.222zm-.5 8V19h2v-2h-8V3.5h19V17h-8v2h2v1.5zm-4.5-5h16V5H4z"/></svg>