<svg xmlns="http://www.w3.org/2000/svg" width="24" height="24" viewBox="0 0 24 24" fill='currentColor'><path d="m12.837 21.733-1.43-.447.334-1.059q.168-.648.104-1.278a2.9 2.9 0 0 0-.434-1.234 4.7 4.7 0 0 1-.748-1.866q-.153-.965.178-2.022l.323-1.06 1.428.447-.333 1.059q-.209.642-.13 1.298.08.656.46 1.214.555.9.728 1.894a4.05 4.05 0 0 1-.158 1.994zm-4.15 0-1.43-.447.333-1.059q.17-.633.105-1.29a2.7 2.7 0 0 0-.443-1.231 4.1 4.1 0 0 1-.757-1.865 4.5 4.5 0 0 1 .196-2.014l.322-1.06 1.43.447-.333 1.059q-.21.642-.13 1.31.08.67.468 1.211.57.862.727 1.887a4.2 4.2 0 0 1-.166 1.992zm8.2 0-1.43-.447.333-1.059a3.6 3.6 0 0 0 .105-1.29 2.6 2.6 0 0 0-.443-1.231 4.14 4.14 0 0 1-.752-1.87 4.6 4.6 0 0 1 .19-2.009l.323-1.06 1.43.447-.334 1.059q-.209.657-.13 1.298.08.64.46 1.214.57.91.724 1.899.152.987-.154 1.989zM5 5v1.385h14V5zm2.811 2.885.473 1.384h7.432l.473-1.384zm-.62 2.884-.96-2.884H3.5V3.5h17v4.385h-2.73l-1.112 2.884z"/></svg>