<svg xmlns="http://www.w3.org/2000/svg" width="24" height="24" viewBox="0 0 24 24" fill='currentColor'><path d="M20.86 22.848 1.348 3.337l1.07-1.07 19.51 19.512zM6.479 3.5h13.136v3.885h1.77v1.5h-1.77v2.279h1.77v1.5h-1.77v2.278h1.77v1.5H19.43l-1.315-1.315V5H7.979zm4.579 4.704-.82-.82h.82zm1.825 1.7-.671-.671V7.385h3.519v2.519zM15.73 12.9l-1.804-1.804h1.804zM6.5 16.615v-3.519h4.558v3.52zM3.767 3.617 5.15 5H4.115v14h14v-1.034l1.49 1.49V20.5H2.616V3.617zm8.445 8.445 3.519 3.519v1.034h-3.52zM7.535 7.385l3.523 3.523v.996H6.5v-4.52z"/></svg>