<svg xmlns="http://www.w3.org/2000/svg" width="24" height="24" viewBox="0 0 24 24" fill='currentColor'><path d="M12 16.779a.82.82 0 0 1-.603-.256.82.82 0 0 1-.255-.602q0-.348.256-.603a.83.83 0 0 1 .603-.255q.347 0 .602.256.255.255.255.603a.82.82 0 0 1-.256.602.83.83 0 0 1-.603.255m-.596-2.988q0-.958.216-1.417t.996-1.141q.378-.37.633-.712t.255-.81q0-.493-.371-.892-.372-.398-1.133-.398-.694 0-1.054.364-.36.363-.523.798l-1.08-.435q.3-.798.97-1.343.67-.546 1.687-.545 1.127 0 1.912.623t.784 1.802q0 .59-.276 1.072-.275.482-.719.924-.738.738-.912 1.067-.174.33-.193 1.043zM5.5 22.5v-21h13v21zM7 19.75V21h10v-1.25zm0-1.5h10V5.75H7zm0-14h10V3H7z"/></svg>