<svg xmlns="http://www.w3.org/2000/svg" width="24" height="24" viewBox="0 0 24 24" fill='currentColor'><path d="M15.5 10.75q-.52 0-.884-.366a1.2 1.2 0 0 1-.366-.884q0-.348.175-.694.175-.345.392-.637a6 6 0 0 1 .422-.504q.203-.213.261-.28.058.067.261.28.205.214.422.504t.392.637q.175.346.175.694 0 .52-.366.884a1.2 1.2 0 0 1-.884.366m4-3q-.52 0-.884-.365a1.2 1.2 0 0 1-.366-.885q0-.348.175-.694.175-.345.392-.637a6 6 0 0 1 .421-.503q.204-.214.262-.281.058.067.262.28t.42.504.393.637.175.694q0 .519-.366.885a1.2 1.2 0 0 1-.884.365m0 6q-.52 0-.884-.366a1.2 1.2 0 0 1-.366-.884q0-.348.175-.694.175-.345.392-.637.217-.29.421-.504.204-.213.262-.28.058.067.262.28a6 6 0 0 1 .42.504q.218.29.393.637.175.345.175.694 0 .52-.366.884a1.2 1.2 0 0 1-.884.366M9.077 20.5q-1.873 0-3.186-1.314Q4.577 17.874 4.577 16q0-1.123.525-2.098a4.65 4.65 0 0 1 1.475-1.633V6q0-1.048.726-1.774A2.4 2.4 0 0 1 9.077 3.5q1.048 0 1.774.726T11.577 6v6.27a4.65 4.65 0 0 1 1.475 1.632q.525.976.525 2.098 0 1.873-1.313 3.186Q10.95 20.5 9.077 20.5m-3-4.5h6q0-.735-.356-1.393a3.4 3.4 0 0 0-1.017-1.142L10.077 13V6a.97.97 0 0 0-.287-.713A.97.97 0 0 0 9.077 5a.97.97 0 0 0-.713.287.97.97 0 0 0-.287.713v7l-.627.465q-.662.483-1.017 1.142A2.9 2.9 0 0 0 6.077 16"/></svg>