<svg xmlns="http://www.w3.org/2000/svg" width="24" height="24" viewBox="0 0 24 24" fill='currentColor'><path d="M12 8.942q-1.296 0-2.206-.91a3 3 0 0 1-.91-2.205q0-1.297.91-2.206A3 3 0 0 1 12 2.711q1.296 0 2.206.91t.91 2.206-.91 2.206a3 3 0 0 1-2.206.91m0-1.5q.673 0 1.144-.47.472-.472.472-1.145t-.472-1.144A1.56 1.56 0 0 0 12 4.21q-.673 0-1.144.472a1.56 1.56 0 0 0-.472 1.144q0 .673.472 1.144.47.471 1.144.471m0 13.692-5.73-5.73a2.9 2.9 0 0 1-.664-1.005 3.3 3.3 0 0 1-.221-1.23q0-1.31.9-2.211.903-.9 2.215-.9.643 0 1.186.24.543.243.995.694L12 12.312l1.32-1.32q.441-.442.992-.688a2.9 2.9 0 0 1 1.192-.246q1.307 0 2.21.9.9.9.901 2.212 0 .666-.22 1.229-.223.563-.664 1.005zm0-2.138 4.646-4.646q.244-.245.357-.546.113-.303.113-.626 0-.648-.464-1.134a1.53 1.53 0 0 0-1.153-.486q-.318 0-.575.095a1.4 1.4 0 0 0-.501.343L12 14.419l-2.404-2.404a1.8 1.8 0 0 0-.429-.314q-.263-.143-.663-.143-.693 0-1.156.483a1.58 1.58 0 0 0-.463 1.129q0 .323.12.614.12.29.349.535z"/></svg>