<svg xmlns="http://www.w3.org/2000/svg" width="24" height="24" viewBox="0 0 24 24" fill='currentColor'><path d="M4.27 20.73 2.5 18.963h19l-1.77 1.769zm-.77-2.865a3.5 3.5 0 0 1 .414-.768q.255-.357.586-.678V8.77h-1V7.577h1v-.846h-1V5.539h1v-.847h-1V3.5h8.404v2.039H20.5V6.73h-8.596v2.038H8.192v6.466q.466.06.922.217.454.158.832.444a4.67 4.67 0 0 1 1.768-2.525 4.87 4.87 0 0 1 2.948-.957q2.006 0 3.422 1.378t1.416 3.373v.7zm7.927-1.5h6.358a3.14 3.14 0 0 0-1.13-1.762 3.13 3.13 0 0 0-2.003-.69 3.35 3.35 0 0 0-2.064.675q-.9.674-1.161 1.778M8.192 5.54h2.212v-.847H8.192zm0 2.038h2.212v-.846H8.192zm-2.5-2.038H7v-.847H5.692zm0 2.038H7v-.846H5.692zm0 8.014q.318-.165.637-.25.319-.087.671-.14V8.769H5.692z"/></svg>