<svg xmlns="http://www.w3.org/2000/svg" width="24" height="24" viewBox="0 0 24 24" fill='currentColor'><path d="M15.308 5.442q-.73 0-1.24-.51t-.51-1.24.51-1.239q.51-.51 1.24-.51.729 0 1.239.51t.51 1.24-.51 1.239q-.51.51-1.24.51m-4.796 5 2.238 2.339v5.97h-1.5v-4.972l-4.67-3.812 4.194-4.194a1.8 1.8 0 0 1 .606-.405q.33-.127.721-.127.392 0 .721.127.33.128.606.405l1.9 1.9q.665.665 1.55 1.088.887.422 1.973.47v1.52q-1.45-.05-2.61-.583a7.1 7.1 0 0 1-2.067-1.44l-.973-.974zm-5.32 1.866q1.995 0 3.344 1.349Q9.884 15.007 9.884 17q0 1.995-1.348 3.343-1.35 1.35-3.344 1.35-1.995 0-3.343-1.35Q.499 18.995.5 17q0-1.995 1.349-3.343 1.35-1.35 3.343-1.35m0 8.192q1.444 0 2.473-1.028Q8.692 18.445 8.692 17q0-1.444-1.027-2.472Q6.636 13.5 5.192 13.5q-1.445 0-2.472 1.028Q1.692 15.556 1.692 17q0 1.445 1.028 2.472Q3.748 20.5 5.192 20.5m13.616-8.192q1.995 0 3.343 1.349 1.35 1.35 1.349 3.343 0 1.995-1.349 3.343-1.35 1.35-3.343 1.35-1.994 0-3.344-1.35-1.348-1.348-1.348-3.343t1.348-3.343q1.35-1.35 3.344-1.35m0 8.192q1.444 0 2.472-1.028 1.028-1.027 1.028-2.472 0-1.444-1.028-2.472T18.808 13.5t-2.472 1.028T15.308 17t1.027 2.472q1.029 1.028 2.473 1.028"/></svg>