<svg xmlns="http://www.w3.org/2000/svg" width="24" height="24" viewBox="0 0 24 24" fill='currentColor'><path d="M2.5 20.5v-15h4.862l1.85-2h5.577l1.85 2H21.5v15zM4 19h16V7h-4.03l-1.836-2H9.866L8.03 7H4zm14.15-1.058q.321 0 .557-.235a.76.76 0 0 0 .235-.557q0-.321-.235-.557a.76.76 0 0 0-.557-.235q-.321 0-.557.235a.76.76 0 0 0-.235.557q0 .321.235.557a.76.76 0 0 0 .557.235m-7.27-1.827q.342 0 .513.296.172.294.172.95 0 .416-.09.786a3.6 3.6 0 0 0-.09.853h1.43q0-.61-.16-1.072a3 3 0 0 1-.159-1.005q0-.435.255-.69.255-.256.538-.256.215 0 .458.094t.638.352q.5.333.799.455t.524.122q.38 0 .64-.325t.26-.644a.51.51 0 0 0-.221-.435q-.222-.161-.78-.361-.51-.17-.723-.358a.58.58 0 0 1-.211-.446q0-.341.38-.466.38-.127 1.255-.176.797-.051 1.199-.167.4-.117.4-.499a1.03 1.03 0 0 0-.184-.604.57.57 0 0 0-.492-.265q-.204 0-.9.269a2.6 2.6 0 0 1-.459.168q-.155.032-.318.032-.23 0-.388-.214a.8.8 0 0 1-.158-.498q0-.36.33-.685t1.25-.76q.949-.45 1.296-.762t.347-.662q0-.384-.332-.788-.331-.405-.649-.404-.302 0-.624.32-.323.32-1.076 1.342-.539.734-.93 1.011-.39.277-.766.277-.36 0-.776-.314-.417-.313-.709-1.12-.232-.647-.417-.92a.59.59 0 0 0-.521-.273q-.364 0-.582.14-.219.139-.218.306 0 .216.461.992.225.38.303.583.078.204.078.433 0 .286-.28.49a1 1 0 0 1-.593.202q-.286 0-.568-.157-.285-.156-.69-.581-.498-.492-.678-.635a.65.65 0 0 0-.414-.142.66.66 0 0 0-.484.205q-.205.204-.205.422 0 .14.06.268t.267.401q.15.216.245.397a.8.8 0 0 1 .094.38q0 .33-.234.46-.233.131-.67.217-.435.102-.583.243a.5.5 0 0 0-.148.384.9.9 0 0 0 .097.394.54.54 0 0 0 .28.271q.26.123.625.12.366-.005.656-.005.585 0 .771.295.187.293.187.806 0 .386-.164.696a2.6 2.6 0 0 1-.521.65q-.33.308-.415.433a.4.4 0 0 0-.085.232q0 .264.26.455.26.19.486.191.27 0 .51-.196.239-.195.663-.77.337-.44.524-.588.186-.15.415-.15"/></svg>