<svg xmlns="http://www.w3.org/2000/svg" width="24" height="24" viewBox="0 0 24 24" fill='currentColor'><path d="M11.846 16q1.674 0 2.837-1.164 1.163-1.162 1.163-2.836 0-1.672-1.163-2.836T11.846 8Q10.174 8 9.01 9.164 7.846 10.326 7.846 12q0 1.672 1.164 2.836Q10.172 16 11.846 16m0-3a.97.97 0 0 1-.712-.287.97.97 0 0 1-.288-.713q0-.424.288-.713a.97.97 0 0 1 .712-.287q.426 0 .713.287.287.288.287.713 0 .424-.287.713a.97.97 0 0 1-.713.287m0 8.5q-1.971 0-3.705-.748a9.6 9.6 0 0 1-3.016-2.03 9.6 9.6 0 0 1-2.03-3.016 9.25 9.25 0 0 1-.749-3.704q0-1.972.748-3.706A9.6 9.6 0 0 1 5.125 5.28a9.6 9.6 0 0 1 3.016-2.032 9.25 9.25 0 0 1 3.705-.748q2.866 0 5.23 1.566a9.4 9.4 0 0 1 3.497 4.184h-1.692a7.7 7.7 0 0 0-2.915-3.11A7.84 7.84 0 0 0 11.846 4q-3.35 0-5.675 2.325T3.846 12t2.325 5.675T11.846 20a7.7 7.7 0 0 0 3.464-.809 8.2 8.2 0 0 0 2.786-2.249v2.135q-1.305 1.142-2.908 1.782a8.9 8.9 0 0 1-3.342.641m8.25-3.5v-7.75h1.5V18zm.75 3.327a.78.78 0 0 1-.575-.232.78.78 0 0 1-.233-.576q0-.343.233-.575a.78.78 0 0 1 .575-.232.78.78 0 0 1 .576.232.78.78 0 0 1 .232.575q0 .343-.232.576a.78.78 0 0 1-.576.232"/></svg>