<svg xmlns="http://www.w3.org/2000/svg" width="24" height="24" viewBox="0 0 24 24" fill='currentColor'><path d="M8 6.885a.85.85 0 0 0 .626-.259A.85.85 0 0 0 8.884 6a.85.85 0 0 0-.258-.626A.85.85 0 0 0 8 5.116a.85.85 0 0 0-.626.258.85.85 0 0 0-.258.626q0 .368.258.626A.85.85 0 0 0 8 6.884m3 0a.85.85 0 0 0 .626-.259.85.85 0 0 0 .258-.626.85.85 0 0 0-.258-.626.85.85 0 0 0-.626-.258.85.85 0 0 0-.626.258.85.85 0 0 0-.258.626q0 .368.258.626a.85.85 0 0 0 .626.258m1 10.865q1.47 0 2.51-1.003a3.27 3.27 0 0 0 1.04-2.448q0-.676-.23-1.315a3 3 0 0 0-.7-1.108L12 9.256 9.476 11.78a3.5 3.5 0 0 0-.783 1.167q-.269.653-.243 1.352a3.47 3.47 0 0 0 1.077 2.448A3.4 3.4 0 0 0 12 17.75m-.001-1.41q-.855 0-1.452-.592A1.96 1.96 0 0 1 9.95 14.3q0-.413.142-.784.143-.372.447-.676L12 11.38l1.485 1.485q.285.284.425.663t.14.773q0 .855-.598 1.448a2 2 0 0 1-1.453.592M4.5 21.5v-19h15v19zM6 20h12V4H6z"/></svg>