<svg xmlns="http://www.w3.org/2000/svg" width="24" height="24" viewBox="0 0 24 24" fill='currentColor'><path d="M8.962 22.06a3.37 3.37 0 0 1-2.039-.649 3.75 3.75 0 0 1-1.302-1.717 2.33 2.33 0 0 1-.926.793 2.7 2.7 0 0 1-1.195.278q-1.16 0-1.955-.802a2.66 2.66 0 0 1-.795-1.948q0-.998.671-1.807.672-.81 1.698-.877a3.7 3.7 0 0 1-.667-1.087 3.4 3.4 0 0 1-.24-1.27q0-.915.46-1.717A3.7 3.7 0 0 1 3.96 9.944q.096.336.26.718t.363.67q-.408.315-.627.751a2 2 0 0 0-.22.917q0 1.477 1.15 1.864 1.15.388 2.272.607l.35.598q-.275.8-.461 1.358a3.3 3.3 0 0 0-.185 1.017q0 .843.607 1.474.608.632 1.483.632 1.008 0 1.662-.826a7.1 7.1 0 0 0 1.072-1.952q.42-1.125.647-2.296t.371-1.853l1.469.4q-.215 1.058-.521 2.44a13.5 13.5 0 0 1-.864 2.628 6.6 6.6 0 0 1-1.47 2.107q-.912.861-2.357.861M3.5 19.264q.522 0 .886-.364t.364-.886q0-.52-.364-.885a1.2 1.2 0 0 0-.886-.365q-.521 0-.885.365a1.2 1.2 0 0 0-.365.885q0 .522.365.886.364.364.885.364m6.59-4.036a98 98 0 0 1-1.972-1.807 16.5 16.5 0 0 1-1.533-1.638 7 7 0 0 1-.99-1.599 4.1 4.1 0 0 1-.345-1.66q0-1.52 1.04-2.56t2.56-1.04q.187 0 .334.022.147.023.295.05a2.7 2.7 0 0 1-.17-.486 2.2 2.2 0 0 1-.059-.519q0-1.146.802-1.948a2.65 2.65 0 0 1 1.947-.802q1.145 0 1.948.802a2.65 2.65 0 0 1 .803 1.948q0 .275-.06.513-.06.237-.169.478a3 3 0 0 1 .629-.058q1.317 0 2.266.804a3.54 3.54 0 0 1 1.207 2.017 5 5 0 0 0-.771-.056q-.43 0-.788.04a2.05 2.05 0 0 0-.73-.94 1.96 1.96 0 0 0-1.18-.365q-.908 0-1.429.498-.522.498-1.39 1.502h-.695q-.894-1.044-1.415-1.522-.522-.478-1.375-.478-.908 0-1.504.596T6.75 8.525q0 .578.31 1.194.312.616.883 1.303.57.687 1.386 1.463a71 71 0 0 0 1.83 1.675zM12 5.242q.522 0 .886-.364t.364-.886q0-.52-.364-.885A1.2 1.2 0 0 0 12 2.742q-.522 0-.886.365a1.2 1.2 0 0 0-.364.885q0 .522.364.886t.886.364m2.994 16.827q-.453 0-.895-.113a3.2 3.2 0 0 1-.855-.358q.207-.265.414-.624.207-.36.377-.663.248.135.497.191.248.058.497.058.886 0 1.5-.631.615-.63.615-1.5 0-.473-.185-1.02l-.461-1.346.36-.598a16.5 16.5 0 0 0 2.283-.611q1.138-.393 1.138-1.87 0-1.106-.795-1.623a3.17 3.17 0 0 0-1.767-.517q-1.029 0-2.4.371-1.373.371-3.19.977l-.4-1.47a95 95 0 0 1 3.285-.991q1.45-.405 2.663-.406 1.62 0 2.861.958 1.243.958 1.243 2.701 0 .66-.236 1.253-.236.594-.662 1.094 1.026.076 1.698.877.67.8.671 1.807a2.67 2.67 0 0 1-.795 1.943q-.795.807-1.955.807-.621 0-1.195-.278a2.33 2.33 0 0 1-.926-.793 3.75 3.75 0 0 1-1.312 1.722q-.898.654-2.073.653m5.531-2.804q.52 0 .873-.364.352-.364.352-.886 0-.52-.364-.898a1.2 1.2 0 0 0-.886-.377q-.522 0-.886.365a1.2 1.2 0 0 0-.364.885q0 .522.377.898.376.377.898.377"/></svg>