<svg xmlns="http://www.w3.org/2000/svg" width="24" height="24" viewBox="0 0 24 24" fill='currentColor'><path d="M19 8.5q.424 0 .712-.287A.97.97 0 0 0 20 7.5a.97.97 0 0 0-.288-.713A.97.97 0 0 0 19 6.5a.97.97 0 0 0-.712.287A.97.97 0 0 0 18 7.5q0 .424.288.713.287.287.712.287m0 1.5q-1.064 0-1.782-.718t-.718-1.78q0-1.04.718-1.771T18.998 5q1.04 0 1.771.73A2.4 2.4 0 0 1 21.5 7.5q0 1.064-.73 1.782A2.43 2.43 0 0 1 19 10m-7-2.5q.624 0 1.063-.425Q13.5 6.65 13.5 6q0-.625-.437-1.062A1.45 1.45 0 0 0 12 4.5q-.65 0-1.075.438A1.47 1.47 0 0 0 10.5 6q0 .65.425 1.075T12 7.5M12 9q-1.263 0-2.132-.867Q9 7.266 9 6.003q0-1.242.867-2.122T11.997 3q1.242 0 2.122.878Q15 4.758 15 6q0 1.263-.879 2.132a2.9 2.9 0 0 1-2.12.868m-4.27 4.375q0 .826.82 1.866.819 1.038 3.267 3.261l.183.164.202-.193q2.35-2.125 3.209-3.187.858-1.062.858-1.911 0-.687-.452-1.166a1.48 1.48 0 0 0-1.117-.478q-.408 0-.773.178-.366.18-.614.493L12.2 13.731h-.415l-1.123-1.329a1.8 1.8 0 0 0-.609-.492 1.7 1.7 0 0 0-.753-.18q-.694 0-1.132.479a1.67 1.67 0 0 0-.437 1.166m-1.5 0q0-1.23.867-2.187t2.203-.957q.755 0 1.43.35t1.145.93l.125.145.125-.154q.48-.57 1.142-.921.662-.35 1.433-.35 1.327 0 2.198.966.87.967.871 2.178 0 1.248-.938 2.502-.939 1.253-3.75 3.825l-1.081.99-1.062-.961q-2.88-2.635-3.794-3.867-.913-1.23-.913-2.489M5 8.5q.424 0 .713-.287A.97.97 0 0 0 6 7.5a.97.97 0 0 0-.287-.713A.97.97 0 0 0 5 6.5a.97.97 0 0 0-.713.287A.97.97 0 0 0 4 7.5q0 .424.287.713.288.287.713.287m7.075 13V20H20v-7h-2.911v-1.5H21.5v10zM4 20h8.075v1.5H2.5v-10h4.412V13H4zm1-10q-1.064 0-1.782-.718T2.5 7.502q0-1.04.718-1.771T4.998 5q1.04 0 1.771.73.73.729.731 1.77 0 1.064-.73 1.782A2.43 2.43 0 0 1 5 10"/></svg>