<svg xmlns="http://www.w3.org/2000/svg" width="24" height="24" viewBox="0 0 24 24" fill='currentColor'><path d="M1.51 19.692v-3.75q0-.725.491-1.228.492-.502 1.191-.522h3.083q.452 0 .859.221.406.222.662.618a5.2 5.2 0 0 0 1.845 1.592q1.1.57 2.359.57a5.12 5.12 0 0 0 4.214-2.162q.286-.396.685-.618.399-.22.826-.22h3.083q.715.018 1.204.521.488.503.488 1.228v3.75H16V17.34q-.856.654-1.873 1.003a6.5 6.5 0 0 1-2.127.35 6.4 6.4 0 0 1-2.105-.353 6.8 6.8 0 0 1-1.885-1.006v2.358zM12 15.808q-.901 0-1.709-.419a3.9 3.9 0 0 1-1.352-1.155 3.3 3.3 0 0 0-.943-.91 2.85 2.85 0 0 0-1.21-.43q.637-.78 2.225-1.212 1.587-.432 2.989-.432t2.99.432 2.233 1.212a2.9 2.9 0 0 0-1.202.43 3.2 3.2 0 0 0-.95.91 3.5 3.5 0 0 1-1.332 1.168q-.812.405-1.739.406m-7.711-3q-1.135 0-1.943-.808a2.65 2.65 0 0 1-.807-1.942q0-1.16.807-1.955a2.67 2.67 0 0 1 1.943-.795q1.16 0 1.954.795.795.794.796 1.955A2.67 2.67 0 0 1 6.243 12q-.795.807-1.954.808m15.423 0q-1.135 0-1.943-.808a2.65 2.65 0 0 1-.807-1.942q0-1.16.807-1.955a2.67 2.67 0 0 1 1.943-.795q1.16 0 1.954.795.795.794.796 1.955A2.67 2.67 0 0 1 21.666 12q-.795.807-1.954.808m-7.712-3q-1.134 0-1.942-.808a2.65 2.65 0 0 1-.808-1.942q0-1.16.808-1.955A2.67 2.67 0 0 1 12 4.308q1.16 0 1.955.795t.795 1.955A2.67 2.67 0 0 1 13.955 9q-.795.807-1.955.808"/></svg>