<svg xmlns="http://www.w3.org/2000/svg" width="24" height="24" viewBox="0 0 24 24" fill='currentColor'><path d="M7.501 6.558q-.52 0-.886.364a1.2 1.2 0 0 0-.365.884q0 .521.364.886.364.366.885.366.52 0 .885-.365.366-.363.366-.884 0-.52-.364-.886a1.2 1.2 0 0 0-.885-.365m0 9.384q-.52 0-.886.364a1.2 1.2 0 0 0-.365.885q0 .52.364.886.364.365.885.365.52 0 .885-.364.366-.364.366-.885 0-.52-.364-.885a1.2 1.2 0 0 0-.885-.366M3.5 11.808v-8h17v8zm1.5-6.5v5h14v-5zM3.5 21.192v-8h17v8zm1.5-6.5v5h14v-5z"/></svg>