<svg xmlns="http://www.w3.org/2000/svg" width="24" height="24" viewBox="0 0 24 24" fill='currentColor'><path d="m15.596 12.75-1.5-1.5h2.654v1.5zm-4.969-1.5v1.5H7.25v-1.5zm10.165 11.666-3.229-3.23A9.26 9.26 0 0 1 12 21.5a9.25 9.25 0 0 1-3.704-.748 9.6 9.6 0 0 1-3.016-2.03 9.6 9.6 0 0 1-2.03-3.017A9.25 9.25 0 0 1 2.5 12a9.26 9.26 0 0 1 1.814-5.563L1.28 3.404l1.07-1.069 19.511 19.512zM12 20a7.4 7.4 0 0 0 2.383-.377 8.3 8.3 0 0 0 2.08-1.036L5.413 7.537a8.3 8.3 0 0 0-1.036 2.08A7.4 7.4 0 0 0 4 12q0 3.325 2.338 5.663T12 20m8-2.846-1.11-1.11A7.73 7.73 0 0 0 20 12q0-3.325-2.337-5.662Q15.325 4 12 4a7.7 7.7 0 0 0-4.044 1.11L6.846 4a9.7 9.7 0 0 1 2.425-1.108A9.4 9.4 0 0 1 12 2.5q1.972 0 3.705.748a9.6 9.6 0 0 1 3.016 2.031 9.6 9.6 0 0 1 2.03 3.016A9.25 9.25 0 0 1 21.5 12a9.4 9.4 0 0 1-.392 2.73A9.7 9.7 0 0 1 20 17.154"/></svg>