<svg xmlns="http://www.w3.org/2000/svg" width="24" height="24" viewBox="0 0 24 24" fill='currentColor'><path d="M13 20.75a.73.73 0 0 1-.534-.215.73.73 0 0 1-.216-.535q0-.32.216-.535A.73.73 0 0 1 13 19.25h3.613l-2.944-2.077a.7.7 0 0 1-.311-.474.77.77 0 0 1 .119-.555.65.65 0 0 1 .466-.311q.3-.048.563.119l2.979 2.062-1.254-3.4a.67.67 0 0 1 .025-.563.76.76 0 0 1 .43-.395.72.72 0 0 1 .583.025.76.76 0 0 1 .4.43l1.22 3.381.951-3.475a.84.84 0 0 1 .348-.458.6.6 0 0 1 .545-.068q.294.096.47.347.178.25.082.545l-1.56 5.8a.8.8 0 0 1-.276.415.73.73 0 0 1-.459.152zm-9.75-3v-1.5h7.046q-.045.39-.034.75.013.36.06.75zm0-4v-1.5h9.477q-.431.304-.787.679a6 6 0 0 0-.65.821zm0-4v-1.5h14.5v1.5zm0-4v-1.5h14.5v1.5z"/></svg>