<svg xmlns="http://www.w3.org/2000/svg" width="24" height="24" viewBox="0 0 24 24" fill='currentColor'><path d="M5 4v6.179-.025V20zM3.5 21.5v-19h9.75l5.25 5.25v2.76a4 4 0 0 0-.735-.217A9 9 0 0 0 17 10.18V8.5h-4.5V4H5v16h6.208q.293.444.659.823t.792.677zm13.002-2.346q1.115 0 1.884-.77t.768-1.886-.77-1.884-1.886-.768-1.884.77-.768 1.886.77 1.884 1.886.768m5.098 3.49-2.739-2.738a3.8 3.8 0 0 1-1.108.559q-.603.189-1.253.189-1.731 0-2.942-1.212-1.212-1.21-1.212-2.942 0-1.731 1.212-2.942 1.21-1.212 2.942-1.212 1.731 0 2.942 1.212 1.212 1.21 1.212 2.942 0 .65-.19 1.253a3.8 3.8 0 0 1-.558 1.108l2.738 2.739z"/></svg>