<svg xmlns="http://www.w3.org/2000/svg" width="24" height="24" viewBox="0 0 24 24" fill='currentColor'><path d="M7.8 17.5a6.2 6.2 0 0 1-2.255-.416 5.9 5.9 0 0 1-1.933-1.215 6.2 6.2 0 0 1-1.608-2.499 9 9 0 0 1-.504-2.995q0-1.719.825-2.797T4.735 6.5q.291 0 .566.053t.551.159L12 9.014l6.148-2.302q.277-.106.551-.159t.566-.053q1.585 0 2.41 1.078.825 1.077.825 2.797 0 1.545-.504 2.995a6.2 6.2 0 0 1-1.607 2.5 5.9 5.9 0 0 1-1.934 1.214 6.2 6.2 0 0 1-2.255.416q-1.515 0-2.641-.75L12.433 16h-.866l-1.126.75q-1.125.75-2.641.75m0-1.5q.926 0 1.725-.437A7.4 7.4 0 0 0 11 14.5h2q.675.624 1.475 1.063A3.54 3.54 0 0 0 16.2 16q.9 0 1.738-.312a4.1 4.1 0 0 0 1.487-.963 4.85 4.85 0 0 0 1.212-2q.363-1.15.363-2.35 0-1.024-.425-1.713-.425-.687-1.35-.662-.075 0-.55.1L12 10.6 5.325 8.1a1.4 1.4 0 0 0-.263-.075A1.6 1.6 0 0 0 4.776 8q-.926 0-1.35.675T3 10.375q0 1.225.362 2.375a4.7 4.7 0 0 0 1.238 2q.65.626 1.475.938A4.8 4.8 0 0 0 7.8 16m1.225-1.654q.848 0 1.33-.369.481-.369.491-1.027-.02-1.167-1.579-2.232-1.56-1.065-3.292-1.064-.848 0-1.33.369-.481.369-.491 1.027.02 1.167 1.579 2.232 1.56 1.065 3.292 1.064m-.092-1.192q-1.104 0-2.27-.678t-1.317-1.395a.63.63 0 0 1 .273-.179q.187-.07.448-.071 1.104 0 2.27.685 1.165.686 1.317 1.403a.6.6 0 0 1-.273.172 1.4 1.4 0 0 1-.448.063m6.042 1.217q1.733 0 3.292-1.077 1.56-1.077 1.58-2.244-.01-.648-.485-1.035-.473-.386-1.337-.386-1.723.019-3.287 1.091t-1.584 2.23q.01.648.491 1.035.482.386 1.33.386m.092-1.207a1.5 1.5 0 0 1-.435-.073.6.6 0 0 1-.27-.172q.15-.707 1.317-1.385 1.165-.678 2.269-.698.252.01.436.073.183.064.27.172-.151.717-1.317 1.4t-2.27.683"/></svg>