<svg xmlns="http://www.w3.org/2000/svg" width="24" height="24" viewBox="0 0 24 24" fill='currentColor'><path d="M12.967 2.55q3.4.33 5.788 2.709 2.39 2.377 2.72 5.78H14.69a3 3 0 0 0-.668-1.066 2.7 2.7 0 0 0-1.055-.668zm1.5 1.877v3.977q.334.234.621.518.29.284.514.616h3.996a7.6 7.6 0 0 0-1.928-3.203 7.45 7.45 0 0 0-3.203-1.908M11.083 2.55V9.3A2.8 2.8 0 0 0 9.7 10.356a2.8 2.8 0 0 0-.521 1.646q0 .9.526 1.62.526.718 1.378 1.027v6.8q-3.658-.365-6.108-3.065-2.45-2.702-2.45-6.385 0-3.684 2.45-6.394t6.108-3.055m-1.5 1.877A7.5 7.5 0 0 0 5.56 7.269Q4.025 9.371 4.025 12t1.535 4.732a7.67 7.67 0 0 0 4.023 2.873v-4.046a4.85 4.85 0 0 1-1.389-1.561 4.04 4.04 0 0 1-.515-2.002q0-1.08.51-2.007t1.394-1.565zm5.107 8.515h6.785q-.333 3.399-2.721 5.787t-5.787 2.72v-6.801q.618-.215 1.058-.654t.665-1.052m.912 1.5a4.6 4.6 0 0 1-.516.607 4.3 4.3 0 0 1-.619.509v4.015a7.5 7.5 0 0 0 3.208-1.918 7.6 7.6 0 0 0 1.923-3.213z"/></svg>