<svg xmlns="http://www.w3.org/2000/svg" width="24" height="24" viewBox="0 0 24 24" fill='currentColor'><path d="M9.366 12.885a.85.85 0 0 1-.626-.259.85.85 0 0 1-.26-.626q0-.367.26-.626a.85.85 0 0 1 .626-.258q.366 0 .625.258a.85.85 0 0 1 .259.626.85.85 0 0 1-.259.626.85.85 0 0 1-.625.258m5.268 0a.85.85 0 0 1-.625-.259.85.85 0 0 1-.259-.626q0-.367.259-.626a.85.85 0 0 1 .625-.258q.367 0 .627.258a.85.85 0 0 1 .258.626.85.85 0 0 1-.258.626.85.85 0 0 1-.626.258M3.75 20.5V19h1V3.5h14.5V19h1v1.5zm2.5-1.5h5V5h-5zm6.5 0h5V5h-5z"/></svg>