<svg xmlns="http://www.w3.org/2000/svg" width="24" height="24" viewBox="0 0 24 24" fill='currentColor'><path d="M12 17.5q-2.175 0-3.736-1.453t-1.745-3.593l1.59.471q.325 1.35 1.397 2.212T12 16q1.65 0 2.825-1.175T16 12q0-1.425-.867-2.5a3.96 3.96 0 0 0-2.208-1.4l-.48-1.58q2.139.182 3.597 1.744Q17.5 9.824 17.5 12q0 2.292-1.604 3.896T12 17.5m.002 4a9.25 9.25 0 0 1-3.706-.748 9.6 9.6 0 0 1-3.016-2.03 9.6 9.6 0 0 1-2.032-3.017A9.25 9.25 0 0 1 2.5 12v-.373q0-.187.04-.373L4 11.7v.3q0 3.35 2.325 5.675T12 20t5.675-2.325T20 12t-2.325-5.675T12 4h-.3l-.456-1.46q.189-.04.378-.04H12q1.972 0 3.705.748a9.6 9.6 0 0 1 3.016 2.03 9.6 9.6 0 0 1 2.03 3.016 9.25 9.25 0 0 1 .749 3.704q0 1.972-.748 3.706a9.6 9.6 0 0 1-2.03 3.017 9.6 9.6 0 0 1-3.016 2.03 9.25 9.25 0 0 1-3.704.749m-1.362-9.356L6.107 7.6 5.02 10.884 2.5 2.5l8.385 2.52L7.6 6.105l4.544 4.534z"/></svg>