<svg xmlns="http://www.w3.org/2000/svg" width="24" height="24" viewBox="0 0 24 24" fill='currentColor'><path d="M14.815 20h1.4v-2.075l2.55-.6q.507-.125 1.078-.259.572-.133.572-.52 0-.221-.21-.388-.208-.167-.665-.308-.92-.274-1.435-.855-.515-.578-.465-1.214.051-.511.497-.939.448-.426 1.219-.692.681-.23 1.032-.562.352-.333.352-.744 0-.485-.434-.752a1 1 0 0 0-.913-.092 2 2 0 0 1-.614.1q-.645 0-1.091-.505a1.75 1.75 0 0 1-.448-1.2q0-.651.338-1.203.337-.552.337-1.144a.93.93 0 0 0-.367-.751A1.35 1.35 0 0 0 16.675 5q-.667 0-.989.37-.32.37-.32 1.188 0 .367.037.772t.037.791q0 1.068-.433 1.636-.434.568-1.217.568-.275 0-.575-.075a2.3 2.3 0 0 0-.546-.075q-.17 0-.261.066-.093.066-.093.199 0 .264.31.509l.614.49q.591.517.896 1.056.306.54.305 1.056 0 .664-.502 1.144-.501.48-1.182.48a3 3 0 0 1-.52-.05 6 6 0 0 0-.54-.075q-.661-.05-1.046.125t-.385.525q0 .34.335.57.334.23.94.33l3.275.525zm-10.942.5L2.5 19.877 7.298 9.339l1.373.613zm9.442 1v-3.113L11.41 18.1q-1.193-.18-1.911-.824t-.718-1.54q0-.988.785-1.618.786-.63 1.94-.583.24 0 .428.031.189.032.357.047.182 0 .293-.1a.34.34 0 0 0 .11-.265 2.6 2.6 0 0 0-.327-.511 5 5 0 0 0-.488-.526 7 7 0 0 1-.73-.882 1.57 1.57 0 0 1-.287-.904q0-.744.444-1.224.445-.48 1.169-.48.213 0 .509.037.295.037.616.067.183 0 .27-.14.086-.138.086-.437.03-.461-.015-.938a10 10 0 0 1-.045-.919q0-1.39.73-2.14t2.045-.751q1.187 0 1.98.68.795.68.78 1.686 0 .622-.253 1.182a8 8 0 0 0-.407 1.085q0 .153.096.264.097.11.24.11.165-.014.335-.056a1.6 1.6 0 0 1 .373-.041q.99 0 1.707.714.718.715.718 1.751 0 .912-.642 1.625a3.4 3.4 0 0 1-1.61.998 1.1 1.1 0 0 0-.375.197.36.36 0 0 0-.134.245q.098.175.344.336.246.16.617.293.706.293 1.098.8t.393 1.152q0 .922-.819 1.456-.818.534-2.012.823l-1.385.337V21.5zM3.72 10.45a4.7 4.7 0 0 1-.91-1.483 4.8 4.8 0 0 1-.31-1.711q0-1.988 1.37-3.372Q5.238 2.5 7.22 2.5q.894 0 1.72.317t1.493.927L9.381 4.788a3.1 3.1 0 0 0-.998-.587A3.3 3.3 0 0 0 7.242 4q-1.35 0-2.296.945T4 7.24q0 .591.201 1.143.201.554.588.998z"/></svg>