<svg xmlns="http://www.w3.org/2000/svg" width="24" height="24" viewBox="0 0 24 24" fill='currentColor'><path d="M16.9 20.144 15.856 19.1l3.325-3.35H16.25v-1.5h5.5v5.5h-1.5v-2.946zM5.692 21q-.386 0-.78-.234a1.53 1.53 0 0 1-.575-.554l-2.308-4.039a1.6 1.6 0 0 1-.186-.78q-.004-.46.186-.782L8.337 3.788q.19-.321.58-.554T9.691 3h4.616q.386 0 .776.234.39.232.58.555l4.242 7.28a5.4 5.4 0 0 0-.875-.113 4.3 4.3 0 0 0-.89.05L14.35 4.5h-4.7L3.3 15.4l2.35 4.1h7.871q.198.43.455.801.256.37.597.699zm1.702-4.25-.58-1.025 4.488-7.821h1.396l2.515 4.39q-.31.248-.58.54-.271.291-.489.6L12 9.7l-3.183 5.55h4.427q-.126.36-.19.73a5 5 0 0 0-.073.77z"/></svg>