<svg xmlns="http://www.w3.org/2000/svg" width="24" height="24" viewBox="0 0 24 24" fill='currentColor'><path d="M12.002 21.5a9.3 9.3 0 0 1-3.706-.748 9.6 9.6 0 0 1-3.016-2.03 9.6 9.6 0 0 1-2.032-3.016 9.25 9.25 0 0 1-.748-3.704q0-1.972.748-3.706a9.6 9.6 0 0 1 2.03-3.016 9.6 9.6 0 0 1 3.017-2.032A9.25 9.25 0 0 1 12 2.5h7.692q.758 0 1.283.525t.525 1.283V12q0 1.972-.748 3.705a9.6 9.6 0 0 1-2.03 3.016 9.6 9.6 0 0 1-3.016 2.03 9.25 9.25 0 0 1-3.704.749M12 20q3.35 0 5.675-2.325T20 12V4.308a.3.3 0 0 0-.087-.221.3.3 0 0 0-.22-.087H12Q8.65 4 6.325 6.325T4 12t2.325 5.675T12 20m-4.615-5.327h6.5v-2l3 2v-5.5l-3 2v-2h-6.5z"/></svg>