<svg xmlns="http://www.w3.org/2000/svg" width="24" height="24" viewBox="0 0 24 24" fill='currentColor'><path d="M7 13.808q.343 0 .575-.232A.78.78 0 0 0 7.809 13a.78.78 0 0 0-.232-.575.78.78 0 0 0-.576-.233.78.78 0 0 0-.575.232.78.78 0 0 0-.233.576q0 .343.232.575a.78.78 0 0 0 .576.233m0-4q.343 0 .575-.232A.78.78 0 0 0 7.809 9a.78.78 0 0 0-.232-.575A.78.78 0 0 0 7 8.192a.78.78 0 0 0-.575.232.78.78 0 0 0-.233.576q0 .343.232.575A.78.78 0 0 0 7 9.809m2.058 3.942h8.692v-1.5H9.058zm0-4h8.692v-1.5H9.058zM8.5 20.5v-2h-6v-15h19v15h-6v2zM4 17h16V5H4z"/></svg>