<svg xmlns="http://www.w3.org/2000/svg" width="24" height="24" viewBox="0 0 24 24" fill='currentColor'><path d="M16.192 11V9.385h1.616V11zm.058-3.615V2.5h1.5v4.885zM19.575 20.5q-2.913 0-5.803-1.297-2.889-1.297-5.283-3.691-2.385-2.395-3.687-5.286Q3.5 7.334 3.5 4.425V3.5h5.17l.886 4.554-2.773 2.692q.617 1.08 1.32 2.009.704.927 1.49 1.697.762.783 1.697 1.479t2.08 1.338l2.755-2.803 4.375.89V20.5zM6.073 9.327l1.871-1.785L7.442 5H5.016q.075 1.135.34 2.209t.717 2.118m8.7 8.642q.962.445 2.051.7t2.176.3v-2.402l-2.37-.475z"/></svg>