<svg xmlns="http://www.w3.org/2000/svg" width="24" height="24" viewBox="0 0 24 24" fill='currentColor'><path d="M8.002 20.75q-1.971 0-3.362-1.39Q3.25 17.972 3.25 16V6.123q0-1.206.787-2.04.786-.833 1.982-.833H8.75v5.5h-4V16q0 1.354.948 2.302t2.303.948 2.302-.948q.947-.949.947-2.302V8q0-1.971 1.389-3.36 1.389-1.39 3.36-1.39t3.36 1.39T20.75 8v10q0 1.16-.861 1.955a2.87 2.87 0 0 1-2.012.795H15.25v-5.5h4V8q0-1.354-.948-2.302t-2.303-.948-2.302.948T12.75 8v8q0 1.971-1.389 3.36-1.389 1.39-3.36 1.39M4.75 7.25h2.5v-2.5H6q-.522 0-.886.364A1.2 1.2 0 0 0 4.75 6zm12 12H18q.522 0 .886-.364T19.25 18v-1.25h-2.5z"/></svg>