<svg xmlns="http://www.w3.org/2000/svg" width="24" height="24" viewBox="0 0 24 24" fill='currentColor'><path d="M2.5 9.058V4.5h19V12H20V6H4v3.058zm0 10.442v-4.558H4V18h6.99v1.5zM18 22.077l-1.314-1.118q-2.142-1.836-2.75-2.606t-.609-1.573q0-1.004.705-1.728a2.3 2.3 0 0 1 1.718-.725q.55 0 1.049.252.497.252.913.74l.288.26.27-.25q.4-.489.905-.745a2.34 2.34 0 0 1 1.075-.257q.99 0 1.707.725.716.725.716 1.728 0 .803-.621 1.573-.62.77-2.764 2.606zm0-1.996.738-.614q1.506-1.286 1.97-1.793.465-.507.465-.895a.93.93 0 0 0-.277-.666.87.87 0 0 0-.646-.286q-.236 0-.429.097a2 2 0 0 0-.437.326L18 17.57l-1.41-1.32a2 2 0 0 0-.437-.326.9.9 0 0 0-.403-.097.86.86 0 0 0-.658.286.95.95 0 0 0-.265.666q0 .382.48.916.482.534 1.958 1.791zM2.5 12.75v-1.5h2.946L7 14.333l3.59-7.246h.785l2.071 4.163h3.304v1.5h-4.221L10.99 9.692l-3.616 7.231h-.77L4.53 12.75z"/></svg>