<svg xmlns="http://www.w3.org/2000/svg" width="24" height="24" viewBox="0 0 24 24" fill='currentColor'><path d="M4.248 13.461a5.8 5.8 0 0 1-1.311-1.985A6.2 6.2 0 0 1 2.5 9.179q0-2.364 1.511-4.04Q5.524 3.46 7.755 3.46q1.113 0 2.118.451t1.792 1.263L12 5.53l.317-.337a5.5 5.5 0 0 1 1.79-1.282 5.1 5.1 0 0 1 2.114-.45q2.23 0 3.755 1.676Q21.5 6.815 21.5 9.154q0 1.196-.444 2.306a6 6 0 0 1-1.304 1.986l-7.777 7.792zm3.506-8.5q-1.593 0-2.673 1.234T4 9.154q0 .546.123 1.07t.375 1.026H9.39l1.387 2.067 1.514-4.713h1.342l1.757 2.646h4.112q.261-.502.392-1.03.13-.53.122-1.066-.04-1.725-1.122-2.944-1.08-1.218-2.673-1.218-.794 0-1.536.315a3.6 3.6 0 0 0-1.285.918l-1.088 1.163h-.648l-1.089-1.163a3.8 3.8 0 0 0-1.278-.934 3.7 3.7 0 0 0-1.543-.33M12 19.1l6.325-6.35h-3.73l-1.372-2.067-1.514 4.728h-1.357L8.585 12.75H5.659z"/></svg>