<svg xmlns="http://www.w3.org/2000/svg" width="24" height="24" viewBox="0 0 24 24" fill='currentColor'><path d="M5.746 19.249a7.8 7.8 0 0 1-1.652-2.444A7.2 7.2 0 0 1 3.5 13.95q0-1.479.566-2.935.567-1.456 1.83-2.719.914-.913 2.288-1.505t3.112-.9a25 25 0 0 1 3.79-.361q2.05-.05 4.303.131.16 2.15.11 4.178a26 26 0 0 1-.355 3.782q-.303 1.754-.887 3.159t-1.503 2.324q-1.239 1.249-2.65 1.822a7.5 7.5 0 0 1-2.856.574 7.9 7.9 0 0 1-2.98-.594 7.5 7.5 0 0 1-2.522-1.657m2.242-.165a5.7 5.7 0 0 0 1.594.695q.84.22 1.668.22 1.157 0 2.288-.457 1.131-.458 2.146-1.492.449-.45.91-1.263.46-.812.796-2.125.337-1.312.51-3.175.175-1.861.07-4.437a51 51 0 0 0-2.773-.028q-1.547.022-3.086.252a15.3 15.3 0 0 0-2.91.72q-1.37.49-2.217 1.337-1.115 1.115-1.55 2.258Q5 12.732 5 13.758q0 1.416.553 2.563.553 1.146 1.15 1.702.84-1.885 2.357-3.616 1.519-1.732 3.848-3.022A17.8 17.8 0 0 0 9.89 14.76q-1.255 1.838-1.902 4.324"/></svg>