<svg xmlns="http://www.w3.org/2000/svg" width="24" height="24" viewBox="0 0 24 24" fill='currentColor'><path d="M8.692 13.308h1.085l3.9-3.916-1.07-1.069-3.915 3.9zm5.71-4.64.879-.88-1.07-1.069-.878.879zM12 19.513q2.934-2.628 4.491-5.04t1.557-4.226q0-2.735-1.737-4.496-1.739-1.76-4.311-1.76T7.69 5.752t-1.738 4.496q0 1.814 1.557 4.226T12 19.514m0 1.995q-3.776-3.27-5.661-6.088-1.887-2.817-1.887-5.173 0-3.462 2.24-5.605Q8.93 2.5 12 2.5t5.309 2.143 2.239 5.605q0 2.356-1.886 5.173Q15.775 18.238 12 21.51"/></svg>