<svg xmlns="http://www.w3.org/2000/svg" width="24" height="24" viewBox="0 0 24 24" fill='currentColor'><path d="m7.5 22.846-1.206-.892 2.331-3.242h-2.26q.078-1.414.55-3.527a28.4 28.4 0 0 1 1.247-4.1q.773-2.008 1.805-3.412t2.21-1.404q.79 0 1.158.503t.955 1.5q.8 1.35 1.475 2.034.673.684 1.549 1.17.225-.23.46-.334.234-.103.537-.103.607 0 1.027.42.421.423.421 1.003v10.384h-.884V12.462a.52.52 0 0 0-.162-.377.517.517 0 0 0-.754 0 .52.52 0 0 0-.161.377v.952h-.884v-.475a12.4 12.4 0 0 1-1.989-1.502q-1.01-.92-1.542-1.939l-.748 3.512 2.01 5.561v4.275h-1.5v-4.134H10.5zm5.894-17.5q-.761 0-1.303-.542a1.78 1.78 0 0 1-.543-1.304q0-.143.09-.552a1 1 0 0 1-.399-.336.85.85 0 0 1-.153-.498.9.9 0 0 1 .266-.658.9.9 0 0 1 .657-.264.85.85 0 0 1 .498.153 1 1 0 0 1 .336.4q.14-.05.277-.07.138-.021.275-.021.757 0 1.301.542.544.543.544 1.304t-.542 1.304a1.78 1.78 0 0 1-1.304.542"/></svg>