<svg xmlns="http://www.w3.org/2000/svg" width="24" height="24" viewBox="0 0 24 24" fill='currentColor'><path d="M5 16.75q-2.019 0-3.384-1.366Q.25 14.02.25 12q0-2 1.39-3.384Q3.03 7.23 5 7.23q1.82 0 3.117 1.155a4.73 4.73 0 0 1 1.571 2.864h1.208l-1.973-5.5H7.25v-1.5h4.5v1.5h-1.216l.524 1.48h5.358l-1.633-4.48H12.25v-1.5h3.602l2.175 5.95H19q1.97 0 3.36 1.39t1.39 3.36q0 1.984-1.383 3.383Q20.984 16.73 19 16.73q-1.761 0-3.071-1.13a4.76 4.76 0 0 1-1.617-2.851H9.689a4.6 4.6 0 0 1-1.6 2.863A4.6 4.6 0 0 1 5 16.75m0-1.5q1.14 0 1.989-.678.847-.678 1.138-1.822H5.25v-1.5h2.877q-.29-1.16-1.139-1.83Q6.14 8.75 5 8.75q-1.38 0-2.315.934Q1.75 10.62 1.75 12q0 1.347.934 2.298.936.952 2.316.952m7.527-4h1.785q.105-.633.424-1.349.318-.717.899-1.17h-4.05zm6.473 4q1.38 0 2.316-.952A3.16 3.16 0 0 0 22.25 12q0-1.38-.934-2.315Q20.38 8.75 19 8.75a5 5 0 0 0-.233.005 1 1 0 0 0-.213.034l1.019 2.707-1.42.527-.968-2.708q-.682.454-1.059 1.164A3.2 3.2 0 0 0 15.75 12q0 1.347.934 2.298.935.952 2.316.952m-6.077 7.577-5.557-2.789h3.692v-1.865l5.557 2.789h-3.692z"/></svg>