<svg xmlns="http://www.w3.org/2000/svg" width="24" height="24" viewBox="0 0 24 24" fill='currentColor'><path d="M5.615 14.5v2H3.5V8.077L5.806 1.5h12.388L20.5 8.077V16.5h-2.115v-2zm-.007-7.923h12.784L17.131 3H6.869zm1.856 5.27q.546 0 .925-.383.38-.382.38-.928t-.382-.925a1.27 1.27 0 0 0-.928-.38q-.546 0-.925.382-.38.382-.38.928t.382.925.928.38m9.077 0q.546 0 .925-.383.38-.382.38-.928t-.382-.925a1.27 1.27 0 0 0-.928-.38q-.546 0-.926.382t-.38.928.383.925.928.38m-3.608 10.98-5.558-2.789h3.692v-1.865l5.558 2.789h-3.692zM5 13h14V8.077H5z"/></svg>