<svg xmlns="http://www.w3.org/2000/svg" width="24" height="24" viewBox="0 0 24 24" fill='currentColor'><path d="M6.096 16.808q-.994 0-1.723-.601a2.8 2.8 0 0 1-.962-1.476H1.654V3.5h14.39l4.571 5.711V11.4q.76.3 1.245.996T22.347 14q0 1.164-.822 1.986a2.7 2.7 0 0 1-1.986.822 2.68 2.68 0 0 1-1.733-.596 2.82 2.82 0 0 1-.982-1.481H8.811a3 3 0 0 1-.987 1.476q-.725.6-1.728.6M3.154 8.25h4.25V5h-4.25zm5.75 5.02h5.48V5h-5.48v3.25h3.25v1.5h-3.25zm6.98-4.02h2.824l-2.823-3.573zm-9.788 6.058q.55 0 .929-.38.38-.378.379-.928 0-.55-.379-.929a1.26 1.26 0 0 0-.929-.379q-.55 0-.929.38a1.26 1.26 0 0 0-.379.928q0 .55.38.929.378.378.928.379m13.442 0q.55 0 .93-.38.378-.378.378-.928t-.379-.929a1.26 1.26 0 0 0-.928-.379q-.55 0-.93.38a1.26 1.26 0 0 0-.378.928q0 .55.378.929.38.378.93.379m-6.461 7.519L7.52 20.038h3.692v-1.865l5.558 2.789h-3.692zM3.154 9.75v3.48H3.4q.244-.855.987-1.446a2.67 2.67 0 0 1 1.71-.592q.37 0 .726.11t.581.29V9.75zm12.73 3.52h.939q.187-.747.794-1.33.608-.585 1.499-.636v-.554h-3.232z"/></svg>