<svg xmlns="http://www.w3.org/2000/svg" width="24" height="24" viewBox="0 0 24 24" fill='currentColor'><path d="M5 14q0 1.511.722 2.814a5.74 5.74 0 0 0 1.986 2.1 1.74 1.74 0 0 1-.208-.864q0-.695.266-1.308a3.6 3.6 0 0 1 .765-1.111L11 13.202l2.479 2.429q.498.498.76 1.111a3.3 3.3 0 0 1 .261 1.308q0 .23-.048.441t-.16.422a5.74 5.74 0 0 0 1.986-2.1A5.7 5.7 0 0 0 17 14q0-1.249-.462-2.363A6.1 6.1 0 0 0 15.2 9.65q-.5.326-1.05.487a4 4 0 0 1-1.125.163q-1.56 0-2.697-1.025a3.88 3.88 0 0 1-1.303-2.544A14 14 0 0 0 7.3 8.434q-.75.887-1.263 1.81a8.5 8.5 0 0 0-.774 1.872A7 7 0 0 0 5 14m6 1.3-1.425 1.4a2 2 0 0 0-.425.625q-.15.35-.15.725 0 .8.588 1.375Q10.175 20 11 20t1.412-.575T13 18.05q0-.4-.15-.738t-.425-.612zm-.5-11.406V6.3q0 1.062.732 1.78.732.72 1.793.72.459 0 .876-.173.415-.173.765-.51l.44-.444a7.2 7.2 0 0 1 2.487 2.7A7.55 7.55 0 0 1 18.5 14q0 3.138-2.18 5.32Q14.137 21.5 11 21.5t-5.32-2.18Q3.5 17.137 3.5 14q0-2.898 1.888-5.577 1.89-2.678 5.112-4.529M21 10.75a.73.73 0 0 1-.535-.216.73.73 0 0 1-.215-.534q0-.32.215-.534A.73.73 0 0 1 21 9.25q.32 0 .535.216a.73.73 0 0 1 .215.534.73.73 0 0 1-.215.534.73.73 0 0 1-.535.216m-.75-2.885V3.25h1.5v4.615z"/></svg>