<svg xmlns="http://www.w3.org/2000/svg" width="24" height="24" viewBox="0 0 24 24" fill='currentColor'><path d="M12 21.325q1.875-1.774 2.938-3.412Q16 16.275 16 15.15q0-1.725-1.162-2.937Q13.676 11 12 11q-1.675 0-2.837 1.213Q8 13.425 8 15.15q0 1.125 1.063 2.763T12 21.325m0 2.012q-2.756-2.403-4.128-4.444T6.5 15.15q0-2.338 1.593-3.994T12 9.5t3.907 1.656T17.5 15.15q0 1.76-1.396 3.772T12 23.337m0-7.03q.548 0 .928-.38.38-.378.38-.927 0-.547-.38-.928a1.26 1.26 0 0 0-.928-.38q-.548 0-.928.38t-.38.928.38.928.928.38m-3.54-9.01L7.416 6.251a6.8 6.8 0 0 1 2.12-1.342A6.6 6.6 0 0 1 12 4.442q1.285 0 2.464.468a6.8 6.8 0 0 1 2.12 1.342l-1.043 1.044a5 5 0 0 0-1.648-1.015A5.4 5.4 0 0 0 12 5.942a5.4 5.4 0 0 0-1.893.339A5 5 0 0 0 8.46 7.296M5.65 4.47 4.59 3.417A10.64 10.64 0 0 1 12 .442q2.084 0 3.993.763a10.6 10.6 0 0 1 3.426 2.222l-1.053 1.07A9.14 9.14 0 0 0 12 1.941a9.2 9.2 0 0 0-3.418.647A9 9 0 0 0 5.65 4.47"/></svg>