<svg xmlns="http://www.w3.org/2000/svg" width="24" height="24" viewBox="0 0 24 24" fill='currentColor'><path d="m18 8.73-.916.816a.98.98 0 0 1-.694.277q-.404 0-.725-.227a1.08 1.08 0 0 1-.398-.58 1.36 1.36 0 0 1 .025-.789l.439-1.404-.966-.577a1.07 1.07 0 0 1-.48-.558 1.17 1.17 0 0 1-.043-.73.93.93 0 0 1 .418-.562q.323-.204.74-.204h1.154l.338-1.103q.122-.398.431-.648.31-.249.677-.249t.677.25.43.647l.34 1.103H20.6q.407 0 .722.204t.436.562q.146.383.005.75a1 1 0 0 1-.46.538l-1.034.577.439 1.385q.13.417.03.797-.102.38-.404.591-.326.237-.726.232a1 1 0 0 1-.692-.282zm0-1.71a.93.93 0 0 0 .684-.279.93.93 0 0 0 .277-.683.93.93 0 0 0-.277-.684.93.93 0 0 0-.684-.278.93.93 0 0 0-.684.278.93.93 0 0 0-.277.684q0 .405.277.683A.93.93 0 0 0 18 7.02m-4.68 10.803q.516 1.347-.352 2.512t-2.42 1.165q-.748 0-1.408-.406a2.64 2.64 0 0 1-1.001-1.086q-1.835.184-3.068-1.043-1.232-1.229-1.079-3.084a2.6 2.6 0 0 1-1.102-1.062 3.16 3.16 0 0 1-.39-1.577q0-1.41 1.272-2.231 1.272-.822 2.559-.292l1.435.593A3.47 3.47 0 0 1 8.97 9.939a3.4 3.4 0 0 1 1.741-.581v-2.03h1.193V9.48q1.002.198 1.684.872t.981 1.782h2.123v1.192h-2.03a3.4 3.4 0 0 1-.576 1.732 3.5 3.5 0 0 1-1.367 1.214zm-5.605.716a5.8 5.8 0 0 1 .06-1.347q.109-.67.352-1.319a4.7 4.7 0 0 1-1.295.373q-.692.099-1.37.02.029 1.023.654 1.648.625.624 1.6.625m-1.773-3.754q.858 0 1.615-.268.756-.267 1.79-.944l-3.33-1.403q-.783-.329-1.4.027-.62.357-.619 1.108 0 .698.511 1.09.511.39 1.431.39M10.548 20q.731 0 1.176-.52.445-.518.207-1.1l-1.446-3.668a8.2 8.2 0 0 0-.95 1.778q-.32.862-.32 1.618 0 .873.355 1.383.356.51.978.51m1.583-5.146q.46-.27.746-.773.284-.504.284-1.089 0-.896-.601-1.523a1.98 1.98 0 0 0-1.483-.627q-.613 0-1.114.285t-.748.762l2.066.919z"/></svg>