<svg xmlns="http://www.w3.org/2000/svg" width="24" height="24" viewBox="0 0 24 24" fill='currentColor'><path d="M12 20.942q-.602 0-1.065-.317a1.67 1.67 0 0 1-.646-.833H8.5v-4.78a6.64 6.64 0 0 1-2.382-2.46A6.6 6.6 0 0 1 5.25 9.25q0-2.823 1.963-4.786Q9.179 2.5 12 2.5t4.787 1.963Q18.75 6.429 18.75 9.25q0 1.791-.868 3.317a6.7 6.7 0 0 1-2.382 2.444v4.781h-1.789a1.67 1.67 0 0 1-.646.833 1.84 1.84 0 0 1-1.065.317m-2-2.65h4v-.938h-4zm0-1.823h4V15.5h-4zM9.8 14h1.604v-2.911L9.262 8.946l.838-.838 1.9 1.9 1.9-1.9.838.838-2.142 2.143V14H14.2a5.5 5.5 0 0 0 2.2-1.912q.85-1.263.85-2.838 0-2.2-1.525-3.725T12 4 8.275 5.525 6.75 9.25q0 1.575.85 2.838Q8.45 13.35 9.8 14"/></svg>