<svg xmlns="http://www.w3.org/2000/svg" width="24" height="24" viewBox="0 0 24 24" fill='currentColor'><path d="M12 21.5a9.2 9.2 0 0 1-3.703-.749 9.6 9.6 0 0 1-3.016-2.032 9.6 9.6 0 0 1-2.032-3.016A9.2 9.2 0 0 1 2.5 12q0-3.156 1.867-5.668Q6.235 3.82 9.25 2.902v1.612a7.84 7.84 0 0 0-3.81 2.913Q4 9.473 4 12q0 3.35 2.325 5.675T12 20t5.675-2.325T20 12q0-2.527-1.44-4.573a7.84 7.84 0 0 0-3.81-2.913V2.902q3.015.918 4.883 3.43T21.5 12q0 1.97-.749 3.703a9.6 9.6 0 0 1-2.032 3.016 9.6 9.6 0 0 1-3.016 2.032q-1.734.75-3.703.749m0-5.856-4.654-4.653L8.4 9.937l2.85 2.834V2.51h1.5v10.26l2.85-2.834 1.054 1.054z"/></svg>