<svg xmlns="http://www.w3.org/2000/svg" width="24" height="24" viewBox="0 0 24 24" fill='currentColor'><path d="M12.01 18q2.5 0 4.225-1.755T18 11.993V6h-5.993q-2.497.04-4.252 1.766T6 11.99t1.753 4.254T12.009 18m-1.335-1.825 4.471-3.979-.256-.732-3.302-.312 2.143-2.961-.381-.416-4.462 3.994.247.742 3.302.312-2.148 2.946zm1.334 3.325q-1.361 0-2.565-.447a7.6 7.6 0 0 1-2.185-1.247L5.25 19.819 4.18 18.75l2.014-2.01a7.6 7.6 0 0 1-1.247-2.184 7.3 7.3 0 0 1-.447-2.565q0-3.138 2.185-5.314Q8.872 4.5 12.008 4.5H19.5v7.492q0 3.137-2.177 5.322T12.009 19.5"/></svg>