<svg xmlns="http://www.w3.org/2000/svg" width="24" height="24" viewBox="0 0 24 24" fill='currentColor'><path d="M1.5 21.5v-17h9.75V6H3v14h14v-6.25h1.5v7.75zm3.866-3.75h1.5v-6.5h-1.5zm3.884 0h1.5v-9.5h-1.5zm3.885 0h1.5v-3.5h-1.5zm4.865-6q-.769 0-1.494-.242a4.9 4.9 0 0 1-1.35-.7l-1.081.996-1.029-1.029 1.071-1.062a5.4 5.4 0 0 1-.638-1.293A4.5 4.5 0 0 1 13.25 7q0-1.971 1.39-3.36Q16.029 2.25 18 2.25h4.75V7q0 1.971-1.39 3.36-1.389 1.39-3.36 1.39m0-1.5q1.354 0 2.302-.948.948-.949.948-2.302V3.75H18q-1.354 0-2.302.948-.948.949-.948 2.302 0 .433.13.833t.322.786l3.348-3.348 1.079 1.054-3.364 3.363q.382.266.828.414t.907.148"/></svg>