<svg xmlns="http://www.w3.org/2000/svg" width="24" height="24" viewBox="0 0 24 24" fill='currentColor'><path d="M9.154 21.789v-.693q0-.8.634-1.304a2.7 2.7 0 0 1 1.462-.58v-7.458a2.6 2.6 0 0 1-1.088-.556 2.9 2.9 0 0 1-.735-.97l-2.246.576q-.766.18-1.467-.121a1.75 1.75 0 0 1-.975-.998l4.446-1.12q.17-1.035.925-1.71a2.73 2.73 0 0 1 1.806-.701l.676-2.462q.222-.768.828-1.248.607-.478 1.376-.355l-1.269 4.519q.635.38.977 1.016a2.86 2.86 0 0 1 .262 2.033 7 7 0 0 1-.189.632l1.6 1.669q.548.563.68 1.323t-.334 1.33l-3.134-3.134a1 1 0 0 1-.303.17 5 5 0 0 1-.336.107v7.458a2.7 2.7 0 0 1 1.463.58q.633.504.633 1.304v.693zM12 10.654q.691 0 1.173-.48.48-.481.48-1.174 0-.691-.48-1.173-.48-.48-1.173-.48-.691 0-1.173.48-.48.48-.48 1.173t.48 1.173 1.173.48"/></svg>