<svg xmlns="http://www.w3.org/2000/svg" width="24" height="24" viewBox="0 0 24 24" fill='currentColor'><path d="M11.5 16.75q1.77 0 3.01-1.24t1.24-3.01V8.25H11.5q-1.77 0-3.01 1.24T7.25 12.5q0 .67.185 1.289t.582 1.15l-.544.534a.72.72 0 0 0-.217.527q0 .31.217.527t.527.217a.72.72 0 0 0 .527-.217l.534-.544q.54.388 1.16.577.62.19 1.279.19m0-1.5q-.35 0-.685-.089a2.5 2.5 0 0 1-.638-.269l2.35-2.365a.72.72 0 0 0 .217-.527.72.72 0 0 0-.217-.527.72.72 0 0 0-.527-.217.72.72 0 0 0-.527.217l-2.365 2.35a2.5 2.5 0 0 1-.27-.638 2.7 2.7 0 0 1-.088-.685q0-1.154.797-1.953.798-.797 1.953-.797h2.75v2.75q0 1.154-.797 1.952-.798.798-1.953.798m.5 7.038-3.227-2.525-4.045-.491-.491-4.045L1.711 12l2.526-3.227.491-4.045 4.045-.491L12 1.71l3.227 2.526 4.045.49.491 4.046L22.288 12l-2.525 3.227-.491 4.045-4.045.49zm0-1.915 2.626-2.031 3.32-.422.396-3.294L20.373 12l-2.031-2.626-.421-3.295-3.295-.42L12 3.626 9.374 5.658l-3.32.421-.396 3.295L3.627 12l2.031 2.626.421 3.32 3.295.396z"/></svg>