<svg xmlns="http://www.w3.org/2000/svg" width="24" height="24" viewBox="0 0 24 24" fill='currentColor'><path d="M1.483 20.596v-2.223q0-.739.386-1.357a2.6 2.6 0 0 1 1.079-.966q1.246-.63 2.788-1.042a12.5 12.5 0 0 1 3.247-.412q1.704 0 3.246.412 1.542.411 2.788 1.042.693.346 1.079.966.387.618.387 1.357v2.223zm1.5-1.5h12v-.723a.94.94 0 0 0-.186-.586 1.45 1.45 0 0 0-.468-.398q-.92-.47-2.332-.881a10.7 10.7 0 0 0-3.014-.412 10.7 10.7 0 0 0-3.015.412q-1.412.412-2.332.88a1.45 1.45 0 0 0-.468.399.94.94 0 0 0-.185.586zm6-6.115q-1.467 0-2.484-1.016T5.483 9.423H4.81V8.54h.673a3.65 3.65 0 0 1 .434-1.703q.415-.76 1.181-1.305v1.392h.885V5.15q.215-.074.47-.122a3 3 0 0 1 .53-.047q.275 0 .53.047t.47.122v1.773h.884V5.531a3.8 3.8 0 0 1 1.186 1.305q.41.76.43 1.703h.673v.884h-.673q0 1.525-1.017 2.542T8.983 12.98m0-1.5q.845 0 1.422-.578.578-.578.578-1.422h-4q0 .845.577 1.422.579.578 1.423.578m7.519 3.442-.111-.73a2 2 0 0 1-.341-.137 1.2 1.2 0 0 1-.306-.221l-.68.269-.443-.785.57-.461a1 1 0 0 1-.02-.18v-.352q0-.08.02-.184l-.57-.461.442-.785.681.27q.12-.12.298-.214.18-.094.348-.144l.112-.73h.885l.111.73q.17.05.348.144.18.094.298.214l.681-.27.442.785-.569.461q.02.104.02.184v.353a1 1 0 0 1-.02.179l.57.461-.443.785-.68-.27q-.135.135-.306.222a2 2 0 0 1-.341.136l-.111.731zm.442-1.596q.339 0 .583-.244a.8.8 0 0 0 .244-.583.8.8 0 0 0-.244-.583.8.8 0 0 0-.583-.244.8.8 0 0 0-.582.244.8.8 0 0 0-.245.583q0 .339.244.583a.8.8 0 0 0 .583.244m1.916-3.615-.143-.916a2 2 0 0 1-.503-.206 1.6 1.6 0 0 1-.42-.34l-.896.33-.565-.968.754-.616a1 1 0 0 1-.06-.248 3 3 0 0 1 0-.496 1 1 0 0 1 .06-.248l-.754-.615.565-.97.896.331q.17-.198.42-.34a2 2 0 0 1 .503-.206l.143-.915h1.13l.143.915q.253.065.504.207.25.14.419.34l.896-.332.565.97-.753.615q.05.135.059.248a3 3 0 0 1 0 .496 1 1 0 0 1-.06.248l.754.616-.565.969-.896-.33a1.6 1.6 0 0 1-.42.339 2 2 0 0 1-.503.206l-.143.916zm.565-1.904q.555 0 .93-.377.378-.378.378-.93 0-.554-.377-.932a1.26 1.26 0 0 0-.931-.377q-.555 0-.93.377a1.26 1.26 0 0 0-.378.931q0 .555.377.93.378.378.931.378"/></svg>