<svg xmlns="http://www.w3.org/2000/svg" width="24" height="24" viewBox="0 0 24 24" fill='currentColor'><path d="M9.398 21.5h1.5l.596-5.75h3.256v-1.5h-3.104l.312-2.885h4.83v-1.5h-6.194zm-2.898 0v-4.03a9.4 9.4 0 0 1-2.213-2.98 8.15 8.15 0 0 1-.787-3.497q0-3.539 2.48-6.016Q8.457 2.5 12 2.5q2.914 0 5.21 1.742 2.298 1.74 2.984 4.518l1.437 5.74H18.5v5h-4v2H13V18h4v-5h2.7l-.95-3.875a6.5 6.5 0 0 0-2.46-3.705Q14.407 4 12 4 9.1 4 7.05 6.028T5 10.96q0 1.497.612 2.845a7.5 7.5 0 0 0 1.738 2.396L8 16.8v4.7z"/></svg>