<svg xmlns="http://www.w3.org/2000/svg" width="24" height="24" viewBox="0 0 24 24" fill='currentColor'><path d="M12 20.5a8.3 8.3 0 0 1-3.315-.67 8.6 8.6 0 0 1-2.697-1.818 8.6 8.6 0 0 1-1.819-2.697A8.3 8.3 0 0 1 3.5 12q0-1.77.67-3.315a8.6 8.6 0 0 1 1.819-2.697A8.6 8.6 0 0 1 8.685 4.17 8.3 8.3 0 0 1 12 3.5q1.77 0 3.315.67a8.6 8.6 0 0 1 2.697 1.819 8.6 8.6 0 0 1 1.819 2.696Q20.5 10.23 20.5 12t-.67 3.315a8.6 8.6 0 0 1-1.818 2.697 8.6 8.6 0 0 1-2.697 1.819A8.3 8.3 0 0 1 12 20.5M5 12q0 2.296 1.343 4.113a6.66 6.66 0 0 0 3.513 2.474Q8.73 17.32 8.148 15.582q-.58-1.74-.58-3.738 0-1.842.515-3.442a8.8 8.8 0 0 1 1.496-2.829 6.58 6.58 0 0 0-3.312 2.455Q5 9.792 5 12m8.43 6.848a6.85 6.85 0 0 0 3.52-1.898 6.85 6.85 0 0 0 1.898-3.52zm-1.405-.287 6.96-6.95a9 9 0 0 0-.11-.909 5.5 5.5 0 0 0-.233-.89l-7.696 7.705q.23.303.505.557.276.255.574.487m-1.792-2.023 7.894-7.903a10 10 0 0 0-.377-.632 4 4 0 0 0-.456-.578l-7.708 7.702q.136.37.297.72t.35.691m-.99-2.719 7.207-7.223a7 7 0 0 0-.617-.463 5.5 5.5 0 0 0-.662-.375l-6.094 6.084q-.005.517.034 1.006.036.49.131.971m-.01-3.79 4.73-4.746q-.404-.12-.812-.189A8 8 0 0 0 12.319 5a6.4 6.4 0 0 0-2.006 2.071q-.79 1.29-1.08 2.958"/></svg>