<svg xmlns="http://www.w3.org/2000/svg" width="24" height="24" viewBox="0 0 24 24" fill='currentColor'><path d="M8.877 20.5H3.5v-5.377a2.95 2.95 0 0 0 1.763-.854A2.4 2.4 0 0 0 6 12.5q0-1.04-.737-1.768A2.95 2.95 0 0 0 3.5 9.877V4.5H9q.135-.954.835-1.573a2.43 2.43 0 0 1 1.665-.62 2.43 2.43 0 0 1 1.665.62q.7.62.835 1.573h5.5V10q.954.135 1.573.835a2.43 2.43 0 0 1 .62 1.665q0 .963-.62 1.664A2.5 2.5 0 0 1 19.5 15v5.5h-5.377q-.135-1.077-.879-1.789Q12.5 18 11.5 18t-1.744.711q-.745.712-.879 1.789M5 19h2.712q.513-1.324 1.622-1.912T11.5 16.5t2.166.588q1.11.59 1.623 1.912H18v-5.442h1.23q.46-.058.711-.372.252-.313.251-.686 0-.373-.25-.687-.252-.313-.711-.37H18V6h-5.442V4.77q-.058-.46-.371-.711a1.07 1.07 0 0 0-.687-.251q-.373 0-.687.25-.313.252-.37.711V6H5v2.74a3.95 3.95 0 0 1 1.82 1.496A4 4 0 0 1 7.5 12.5q0 1.223-.68 2.249A4.05 4.05 0 0 1 5 16.26z"/></svg>