<svg xmlns="http://www.w3.org/2000/svg" width="24" height="24" viewBox="0 0 24 24" fill='currentColor'><path d="M3.5 20.5v-5.377a2.95 2.95 0 0 0 1.763-.854A2.4 2.4 0 0 0 6 12.5q0-1.04-.737-1.768A2.95 2.95 0 0 0 3.5 9.877V4.404l1.5 1.5v2.834a3.95 3.95 0 0 1 1.82 1.497q.68 1.026.68 2.268a4 4 0 0 1-.68 2.246A4.05 4.05 0 0 1 5 16.26V19h2.729a4.1 4.1 0 0 1 1.522-1.82 4 4 0 0 1 2.249-.68q1.223 0 2.249.68A4.1 4.1 0 0 1 15.271 19h2.825l1.5 1.5h-5.473a2.95 2.95 0 0 0-.854-1.764A2.4 2.4 0 0 0 11.5 18q-1.04 0-1.77.736a2.95 2.95 0 0 0-.853 1.764zm16-3.83-1.5-1.5v-1.612h1.23a1.07 1.07 0 0 0 .687-.348q.276-.299.275-.71 0-.411-.275-.71a1.07 1.07 0 0 0-.686-.348H18V6h-5.442V4.77a1.07 1.07 0 0 0-.348-.687 1 1 0 0 0-.71-.275q-.411 0-.71.275-.3.275-.348.686V6H8.83l-1.5-1.5H9q.135-.953.835-1.572a2.43 2.43 0 0 1 1.665-.62 2.43 2.43 0 0 1 1.665.62q.7.62.835 1.573h5.5V10q.954.135 1.573.835a2.43 2.43 0 0 1 .62 1.665q0 .963-.62 1.664A2.5 2.5 0 0 1 19.5 15zm.304 5.272L2.058 4.196l1.069-1.07 17.746 17.747z"/></svg>