<svg xmlns="http://www.w3.org/2000/svg" width="24" height="24" viewBox="0 0 24 24" fill='currentColor'><path d="M7.148 15.02a2.35 2.35 0 0 0 1.417-.46q.631-.46.89-1.204l.347-1.083q.41-1.228-.214-2.26Q8.963 8.98 7.81 8.98H4.266l.475 3.915q.125.904.806 1.514.682.61 1.601.61m9.704 0q.92 0 1.6-.61.683-.61.807-1.514l.476-3.915h-3.52q-1.154 0-1.782 1.04-.63 1.038-.22 2.268l.331 1.067q.26.744.891 1.204.633.46 1.417.46m-9.704 1.5a3.8 3.8 0 0 1-2.59-.977 3.78 3.78 0 0 1-1.292-2.464L2.75 8.981h-.923v-1.5H7.81q.984 0 1.815.504a3.73 3.73 0 0 1 1.327 1.38h2.121a3.73 3.73 0 0 1 1.327-1.38 3.44 3.44 0 0 1 1.815-.504h5.958v1.5h-.923l-.515 4.098a3.78 3.78 0 0 1-1.294 2.464 3.8 3.8 0 0 1-2.589.977q-1.281 0-2.298-.731a3.86 3.86 0 0 1-1.429-1.937l-.346-1.067a7 7 0 0 1-.11-.425 7 7 0 0 1-.1-.648h-1.138a8 8 0 0 1-.1.603q-.05.225-.11.43l-.346 1.082a3.86 3.86 0 0 1-1.424 1.95 3.82 3.82 0 0 1-2.303.743"/></svg>