<svg xmlns="http://www.w3.org/2000/svg" width="24" height="24" viewBox="0 0 24 24" fill='currentColor'><path d="M9 16.25q-.525 0-.887-.362A1.2 1.2 0 0 1 7.75 15q0-.525.363-.887.362-.363.887-.363t.887.363.363.887-.363.888A1.2 1.2 0 0 1 9 16.25m6 0q-.525 0-.887-.362A1.2 1.2 0 0 1 13.75 15q0-.525.363-.887.362-.363.887-.363t.887.363.363.887-.363.888a1.2 1.2 0 0 1-.887.362M12 22q3.35 0 5.675-2.325T20 14q0-.6-.075-1.162a4.8 4.8 0 0 0-.275-1.088q-.525.125-1.05.188-.525.062-1.1.062a9.8 9.8 0 0 1-4.3-.975A10 10 0 0 1 9.75 8.3a9.9 9.9 0 0 1-2.287 3.388A9.8 9.8 0 0 1 4 13.85V14q0 3.35 2.325 5.675T12 22M10.179 6.221q1.136 2.096 3.153 3.188 2.016 1.09 4.168 1.091.408 0 .795-.042t.786-.121a7.74 7.74 0 0 0-2.903-3.164A7.8 7.8 0 0 0 12 6a7.3 7.3 0 0 0-1.821.221m-5.898 5.87q1.41-.705 2.677-2.063 1.267-1.357 1.636-3.253a7.5 7.5 0 0 0-2.773 2.14 7.7 7.7 0 0 0-1.54 3.176M3.3 10.393a8.8 8.8 0 0 1 1.84-2.955 8.7 8.7 0 0 1 2.849-2.013 3.8 3.8 0 0 0-1.183-.975 3.2 3.2 0 0 0-1.546-.373q-1.458 0-2.465 1.008Q1.79 6.092 1.79 7.552q0 .888.416 1.623T3.3 10.393M12.002 23.5a9.25 9.25 0 0 1-3.706-.748 9.6 9.6 0 0 1-3.016-2.03 9.6 9.6 0 0 1-2.032-3.017A9.25 9.25 0 0 1 2.5 14q0-.56.067-1.11.066-.55.208-1.055A4.9 4.9 0 0 1 .97 10.06a4.77 4.77 0 0 1-.682-2.509q0-2.075 1.45-3.525t3.525-1.45q1.298 0 2.385.614a4.94 4.94 0 0 1 1.764 1.67q.611-.18 1.266-.27T12 4.5q1.972 0 3.705.747a9.6 9.6 0 0 1 3.016 2.03 9.6 9.6 0 0 1 2.03 3.016 9.25 9.25 0 0 1 .749 3.704q0 1.972-.748 3.706a9.6 9.6 0 0 1-2.03 3.017 9.6 9.6 0 0 1-3.016 2.03 9.25 9.25 0 0 1-3.704.75"/></svg>