<svg xmlns="http://www.w3.org/2000/svg" width="24" height="24" viewBox="0 0 24 24" fill='currentColor'><path d="M11.998 15.73a3.15 3.15 0 0 0 1.971-.664 3.83 3.83 0 0 0 1.262-1.693H8.769q.396 1.029 1.26 1.693a3.14 3.14 0 0 0 1.97.665m-2.303-3.769q.546 0 .925-.382.38-.381.38-.928 0-.546-.382-.925a1.27 1.27 0 0 0-.928-.38q-.546 0-.925.382-.38.382-.38.928t.382.926.928.38m4.615 0q.546 0 .925-.382.38-.381.38-.928 0-.546-.382-.925a1.27 1.27 0 0 0-.928-.38q-.546 0-.925.382-.38.382-.38.928t.382.926.928.38M7.875 6.746 12 1.331l4.125 5.415 6.494 2.185-4.132 5.73.165 6.44L12 19.205l-6.652 1.898.166-6.466-4.108-5.705zm.927 1.292L3.827 9.706l3.196 4.484-.12 4.89L12 17.649l5.096 1.467-.119-4.925 3.196-4.434-4.975-1.718L12 3.808z"/></svg>