<svg xmlns="http://www.w3.org/2000/svg" width="24" height="24" viewBox="0 0 24 24" fill='currentColor'><path d="m12 20.327-1.104-.993a123 123 0 0 1-4.112-3.876q-1.626-1.621-2.577-2.886-.951-1.264-1.329-2.307A6.2 6.2 0 0 1 2.5 8.15q0-2.129 1.436-3.565T7.5 3.15q1.31 0 2.475.612Q11.14 4.375 12 5.52q.86-1.144 2.025-1.757A5.25 5.25 0 0 1 16.5 3.15q2.13 0 3.564 1.435Q21.5 6.022 21.5 8.15q0 1.072-.378 2.115t-1.329 2.307-2.572 2.886q-1.62 1.62-4.117 3.876zm0-2.027q2.4-2.16 3.95-3.702t2.45-2.68 1.25-2.02T20 8.15q0-1.5-1-2.5t-2.5-1q-1.185 0-2.19.672t-1.59 1.87h-1.44q-.596-1.207-1.595-1.875A3.86 3.86 0 0 0 7.5 4.65q-1.49 0-2.495 1T4 8.15q0 .866.35 1.748.35.883 1.25 2.02t2.45 2.675T12 18.3"/></svg>