<svg xmlns="http://www.w3.org/2000/svg" width="24" height="24" viewBox="0 0 24 24" fill='currentColor'><path d="m18 12.885 1.5 1.5V21.5h-17v-17h7.24q-.142.364-.208.741-.066.378-.107.759H4v14h14zm.877-4.062 3.258 3.258-1.054 1.053-3.258-3.257a3.98 3.98 0 0 1-2.323.738q-1.722 0-2.918-1.197T11.385 6.5q0-1.72 1.197-2.918 1.196-1.197 2.918-1.197 1.721 0 2.918 1.197T19.615 6.5q0 .675-.204 1.256a4.7 4.7 0 0 1-.534 1.067m-3.377.293q1.097 0 1.857-.76.759-.758.759-1.856 0-1.097-.76-1.857-.758-.758-1.856-.758-1.097 0-1.857.758-.759.759-.759 1.857t.76 1.857 1.856.759M4 12.884V20 6v6.615-.29z"/></svg>