<svg xmlns="http://www.w3.org/2000/svg" width="24" height="24" viewBox="0 0 24 24" fill='currentColor'><path d="M11.25 20.75v-2h-2v-1.5h2v-2.562q-1.946-.283-3.223-1.762T6.75 9.469q0-2.178 1.536-3.699Q9.82 4.25 12 4.25t3.714 1.52q1.536 1.52 1.536 3.7 0 1.976-1.277 3.456t-3.223 1.762v2.562h2v1.5h-2v2zm.752-7.5a3.6 3.6 0 0 0 2.651-1.099A3.62 3.62 0 0 0 15.75 9.5a3.6 3.6 0 0 0-1.099-2.652A3.62 3.62 0 0 0 12 5.75a3.6 3.6 0 0 0-2.652 1.099A3.62 3.62 0 0 0 8.25 9.502a3.6 3.6 0 0 0 1.099 2.651 3.62 3.62 0 0 0 2.653 1.097"/></svg>