<svg xmlns="http://www.w3.org/2000/svg" width="24" height="24" viewBox="0 0 24 24" fill='currentColor'><path d="M13.404 12.789a.85.85 0 0 0 .626-.26.85.85 0 0 0 .259-.625q0-.147-.028-.26a.8.8 0 0 0-.094-.219.9.9 0 0 0 .444-.307.82.82 0 0 0 .178-.522.85.85 0 0 0-.26-.626.85.85 0 0 0-.625-.259.87.87 0 0 0-.518.166.8.8 0 0 0-.311.446l-3.66-1.76a1 1 0 0 0 .12-.224.85.85 0 0 0-.217-.87.85.85 0 0 0-.626-.258.85.85 0 0 0-.626.26.85.85 0 0 0-.258.625q0 .121.04.235.04.112.106.219a.95.95 0 0 0-.456.307.82.82 0 0 0-.19.547q0 .367.258.626a.85.85 0 0 0 .626.259.86.86 0 0 0 .835-.589l3.65 1.74q-.019.02-.158.464 0 .367.259.626.258.259.626.259m-3.015 9.202a12.2 12.2 0 0 1-.672-2.482 18 18 0 0 1-.222-2.318q-.026-1.08.04-1.93.067-.85.113-1.315a.4.4 0 0 1-.014-.106q0-.047-.082-.057l-1.046-.226q-.69-.15-1.559-.465-.87-.315-1.84-.811t-1.901-1.252l.923-1.279a9 9 0 0 0 2.09 1.387q1.087.513 1.997.8.909.288 1.509.376l.6.087q.498.035.732.404t.168.771l-.112.838a17 17 0 0 0-.125 2.087q-.013 1.25.187 2.725A9.2 9.2 0 0 0 12 22zM18.5 22H17V11.425q0-1.2-.637-2.175a4.04 4.04 0 0 0-1.713-1.475L7.816 4.719l.946-1.28 6.511 2.963a5.4 5.4 0 0 1 2.351 2.017q.876 1.35.876 3.006z"/></svg>