<svg xmlns="http://www.w3.org/2000/svg" width="24" height="24" viewBox="0 0 24 24" fill='currentColor'><path d="M2.346 21.75q.667-1.85.886-3.784t.268-3.89a3.3 3.3 0 0 1-1.612-1.216q-.638-.88-.638-2.11V9.173q2.817-.93 5.742-2.833Q9.917 4.438 12 2.308q2.083 2.13 5.008 4.032t5.742 2.833v1.577q0 1.23-.637 2.11a3.3 3.3 0 0 1-1.613 1.217q.05 1.956.268 3.89.218 1.933.886 3.783zm2.477-12.5h14.354a29.5 29.5 0 0 1-3.96-2.35A36 36 0 0 1 12 4.355 36 36 0 0 1 8.783 6.9a29.5 29.5 0 0 1-3.96 2.349m9.677 3.5q.77 0 1.26-.596.49-.597.49-1.404h-3.5q0 .807.49 1.404t1.26.596m-5 0q.77 0 1.26-.596.49-.597.49-1.404h-3.5q0 .807.49 1.404t1.26.596m-5 0q.77 0 1.26-.596.49-.597.49-1.404h-3.5q0 .807.49 1.404t1.26.596m-.177 7.5h3.223a46 46 0 0 0 .374-3.172q.13-1.575.196-3.182a3.5 3.5 0 0 1-.6-.378A2.4 2.4 0 0 1 7 12.95a2.95 2.95 0 0 1-2 1.254 54 54 0 0 1-.185 3.048 21 21 0 0 1-.492 2.998m4.739 0h5.877q-.23-1.5-.351-2.995a79 79 0 0 1-.188-3.02 2.8 2.8 0 0 1-1.375-.351A2.9 2.9 0 0 1 12 12.927a2.84 2.84 0 0 1-1.04.957q-.645.349-1.36.35a79 79 0 0 1-.187 3.02 43 43 0 0 1-.351 2.996m7.392 0h3.223a21 21 0 0 1-.492-2.998A54 54 0 0 1 19 14.204a3.1 3.1 0 0 1-1.142-.416 2.54 2.54 0 0 1-.858-.857q-.21.354-.507.582-.297.229-.608.383.064 1.605.202 3.182t.367 3.172m3.046-7.5q.77 0 1.26-.596.49-.597.49-1.404h-3.5q0 .807.49 1.404t1.26.596"/></svg>