<svg xmlns="http://www.w3.org/2000/svg" width="24" height="24" viewBox="0 0 24 24" fill='currentColor'><path d="M4.529 14.846H6.74l.673-.682v-5.01H6.22v4.654H4.885V12.5H3.846v1.664zm4.367 0h2.058l.673-.682v-1.895l-.673-.673H9.252v-1.404h1.336v.654h1.039V9.827l-.673-.673H8.896l-.683.673v1.894l.683.683h1.692v1.404H9.253v-.654h-1.04v1.01zm4.554-1.192v-3.308h1.337v3.308zm-.356 1.192h2.058l.673-.682V9.827l-.673-.673h-2.058l-.682.673v4.337zm3.531 0h1.038v-3l1.299 3H20V9.154h-1.038v3l-1.299-3h-1.038zM1.5 19.5v-15h21v15zM3 18h18V6H3z"/></svg>