<svg xmlns="http://www.w3.org/2000/svg" width="24" height="24" viewBox="0 0 24 24" fill='currentColor'><path d="M12.04 20.98q-1.31 0-2.313-.885-1.004-.886-1.125-2.122-1.162.492-2.425.099a3.36 3.36 0 0 1-1.94-1.51q-.683-1.114-.42-2.452.262-1.337 1.343-2.112-1.05-.756-1.32-2.055t.366-2.412 1.917-1.564 2.448.04q.12-1.255 1.125-2.131A3.4 3.4 0 0 1 12.01 3q1.31 0 2.314.876t1.125 2.132a3.35 3.35 0 0 1 2.439-.065 3.43 3.43 0 0 1 1.907 1.588q.637 1.145.382 2.42-.255 1.276-1.336 2.049 1.08.773 1.351 2.095t-.366 2.466q-.677 1.179-1.908 1.542a3.6 3.6 0 0 1-2.438-.13q-.12 1.237-1.125 2.122-1.004.886-2.313.886m0-1.5q1.175 0 1.763-1.012t-.013-1.987l-.7-1.15q-.275.09-.524.134a3.1 3.1 0 0 1-1.033.002 4 4 0 0 1-.542-.127l-.7 1.14q-.6.975-.013 1.988.588 1.013 1.762 1.013m-6.562-3.73q.595 1.006 1.762 1.006 1.166 0 1.743-1.006l.66-1.16a5 5 0 0 1-.385-.415 2.7 2.7 0 0 1-.3-.456 4 4 0 0 1-.381-.969H7.233q-1.155 0-1.74.997t-.015 2.003m9.54 0q.564.996 1.737 1.001 1.171.005 1.767-1.001.57-1.005-.014-2.003-.585-.997-1.74-.997h-1.344a3 3 0 0 1-.149.502 4 4 0 0 1-.223.463 2.5 2.5 0 0 1-.305.46 5 5 0 0 1-.39.415zm-6.441-4.5q.068-.271.17-.531.1-.26.228-.484.127-.225.293-.425t.374-.4l-.66-1.16q-.574-1.015-1.741-1.02-1.169-.004-1.758 1.02-.565 1.005.014 2.003.58.997 1.736.997zm8.19 0q1.156 0 1.736-.997t.014-2.003q-.59-1.024-1.758-1.02-1.166.005-1.742 1.02l-.66 1.16q.212.2.383.4t.297.425q.125.225.222.484.099.26.164.531zm-5.823-2.59a3.2 3.2 0 0 1 1.063-.17q.268 0 .527.043.26.042.531.127l.694-1.16q.585-.975.005-1.987Q13.186 4.5 12.01 4.5q-1.174 0-1.75 1.005-.574 1.005 0 1.995zm-1.986 5.06v-.005q.125.244.3.46a2.7 2.7 0 0 1-.3-.456m-.211-3.001q.1-.26.228-.484.127-.225.293-.425h.001q-.167.2-.296.425-.125.225-.226.484m3.294 4.79a3 3 0 0 1-.508-.042h.002q.26.042.508.042zm2.317-.919q.21-.2.388-.415.178-.216.306-.456v-.004a2.5 2.5 0 0 1-.305.46 5 5 0 0 1-.39.415M12 14q.825 0 1.412-.588Q14 12.826 14 12t-.588-1.412A1.93 1.93 0 0 0 12 10q-.825 0-1.412.588A1.93 1.93 0 0 0 10 12q0 .825.588 1.412Q11.175 14 12 14"/></svg>