<svg xmlns="http://www.w3.org/2000/svg" width="24" height="24" viewBox="0 0 24 24" fill='currentColor'><path d="M6.5 19.5q-2.088 0-3.544-1.456T1.5 14.5q0-1.806 1.179-3.221a4.67 4.67 0 0 1 2.994-1.687q.491-2.259 2.263-3.676Q9.71 4.5 12 4.5q2.745 0 4.622 1.904Q18.5 8.308 18.5 11v.5h.308q1.663.123 2.677 1.31 1.015 1.186 1.015 2.665 0 1.673-1.163 2.849T18.5 19.5zm0-1.5h12q1.05 0 1.775-.725T21 15.5t-.725-1.775T18.5 13H17v-2q0-2.075-1.463-3.537Q14.075 6 12 6a4.78 4.78 0 0 0-2.968.992 4.85 4.85 0 0 0-1.767 2.564q1.757.286 2.997 1.645Q11.5 12.559 11.5 14.5H10q0-1.45-1.025-2.475A3.37 3.37 0 0 0 6.5 11q-1.45 0-2.475 1.025A3.37 3.37 0 0 0 3 14.5q0 1.45 1.025 2.475A3.37 3.37 0 0 0 6.5 18"/></svg>