<svg xmlns="http://www.w3.org/2000/svg" width="24" height="24" viewBox="0 0 24 24" fill='currentColor'><path d="M4.6 10q.33-2.363 2.153-3.932T11 4.5q1.764 0 3.003.76T16 6.927V4.5h1.5V10H12V8.5h3.27q-.61-.987-1.68-1.743T11 6Q9.2 6 7.825 7.138T6.1 10zm15 10.673L15.027 16.1q-.871.694-1.886 1.047A6.5 6.5 0 0 1 11 17.5a6.36 6.36 0 0 1-2.806-.644A6 6 0 0 1 6 15.073V17.5H4.5V12H10v1.5H6.73a5.14 5.14 0 0 0 1.758 1.801Q9.605 16 11 16q1.8 0 3.175-1.137Q15.551 13.725 15.9 12h1.5a5.9 5.9 0 0 1-.45 1.62q-.325.72-.87 1.426l4.574 4.573z"/></svg>