<svg xmlns="http://www.w3.org/2000/svg" width="24" height="24" viewBox="0 0 24 24" fill='currentColor'><path d="m21.008 22.716-9.902-9.918q-.57.217-.913.717a1.97 1.97 0 0 0-.341 1.135q0 2.3 1.489 4.115 1.488 1.814 4.111 2.418l-.216.86q-2.893-.679-4.581-2.735T8.967 14.65a2.82 2.82 0 0 1 1.471-2.504L9.322 11.03a4.5 4.5 0 0 0-1.492 1.578 4.14 4.14 0 0 0-.527 2.043 8.05 8.05 0 0 0 .706 3.358q.705 1.56 2.375 3.277l-.608.638q-1.83-1.832-2.594-3.545t-.764-3.728q0-1.267.613-2.393a5.4 5.4 0 0 1 1.668-1.867L7.511 9.22q-1.478 1.205-2.144 2.489-.665 1.284-.665 2.941 0 .862.18 1.822t.65 2.22l-.809.316a16 16 0 0 1-.686-2.35 10.4 10.4 0 0 1-.204-2.008q0-1.844.738-3.327.739-1.482 2.318-2.742L5.786 7.479q-.568.444-1.085.997-.518.553-1.08 1.372l-.726-.517Q3.48 8.516 4.03 7.93q.549-.585 1.152-1.055L1.512 3.19l.838-.839 19.511 19.512zm-4.26-7.624q0-2.103-1.294-3.418a4.8 4.8 0 0 0-3.121-1.466l-.875-.875q.14-.025.283-.025h.284q2.316.03 3.961 1.645 1.647 1.614 1.647 4.14zM12.025 2.073q1.803 0 3.365.448 1.561.449 3.058 1.243l-.361.819a14.5 14.5 0 0 0-2.811-1.19q-1.443-.435-3.251-.435-1.431 0-2.823.34-1.393.339-2.725 1.054l-.654-.669a12.3 12.3 0 0 1 2.984-1.205 12.8 12.8 0 0 1 3.218-.405m-.02 2.45q2.803 0 5.114 1.197t4.054 3.58l-.732.523q-1.562-2.217-3.696-3.316-2.133-1.1-4.74-1.099-.975 0-1.926.164a8 8 0 0 0-1.837.545l-.654-.684q1.05-.466 2.148-.688a11.4 11.4 0 0 1 2.27-.222m0 2.35q3.33 0 5.754 2.202t2.424 5.479q0 .696-.311 1.327a2.86 2.86 0 0 1-.835 1.03l-.623-.622q.408-.305.646-.77a2.1 2.1 0 0 0 .238-.965q0-2.91-2.196-4.853t-5.08-1.943q-.5 0-.973.055a6 6 0 0 0-.932.18l-.713-.714q.615-.2 1.268-.303t1.334-.103m4.893 13.02q-2.347 0-3.903-1.67-1.554-1.67-1.478-4h.885q-.062 1.97 1.235 3.37 1.295 1.4 3.261 1.4.356 0 .724-.058t.734-.142l.178.844q-.434.11-.837.183a4.5 4.5 0 0 1-.799.072"/></svg>