<svg xmlns="http://www.w3.org/2000/svg" width="24" height="24" viewBox="0 0 24 24" fill='currentColor'><path d="M4.539 21.5V20H6.5v-3.452H3.789v-5.096H6.5V8H4.539V6.5h2.196A5.43 5.43 0 0 1 8.67 3.63Q10.117 2.5 12 2.5t3.329 1.13a5.43 5.43 0 0 1 1.936 2.87h2.197V8H17.5v3.452h2.712v5.096H17.5V20h1.962v1.5zm3.803-15h7.316a3.85 3.85 0 0 0-1.404-1.801Q13.269 4 12 4t-2.254.699A3.85 3.85 0 0 0 8.342 6.5M8 20h8v-4.952h2.712v-2.096H16V8H8v4.952H5.289v2.096H8zm4-2.73q1.353 0 2.312-.958A3.15 3.15 0 0 0 15.269 14q0-1.353-.957-2.312a3.15 3.15 0 0 0-2.311-.957q-1.355 0-2.312.957a3.15 3.15 0 0 0-.958 2.311q0 1.355.957 2.312a3.15 3.15 0 0 0 2.311.958m-.002-1.5a1.7 1.7 0 0 1-1.253-.518 1.7 1.7 0 0 1-.514-1.254q0-.738.517-1.253a1.7 1.7 0 0 1 1.254-.514 1.7 1.7 0 0 1 1.253.517q.514.516.514 1.254a1.7 1.7 0 0 1-.517 1.253 1.7 1.7 0 0 1-1.254.514"/></svg>