<svg xmlns="http://www.w3.org/2000/svg" width="24" height="24" viewBox="0 0 24 24" fill='currentColor'><path d="M6.998 20.615q-1.17 0-1.988-.819a2.7 2.7 0 0 1-.818-1.988H1.5V11h11V5.5h3.75V3.846h2.5V5.5h1.87l1.88 5.561v6.747h-2.692q0 1.17-.82 1.988a2.7 2.7 0 0 1-1.99.82q-1.17 0-1.988-.82a2.7 2.7 0 0 1-.818-1.988H9.808q0 1.173-.82 1.99a2.7 2.7 0 0 1-1.99.817m.002-1.5q.55 0 .929-.379.378-.378.379-.924 0-.545-.38-.929A1.25 1.25 0 0 0 7 16.5q-.55 0-.929.383a1.27 1.27 0 0 0-.379.93q0 .544.38.923.378.38.928.38m10 0q.55 0 .929-.379.378-.378.379-.924 0-.545-.38-.929A1.25 1.25 0 0 0 17 16.5q-.55 0-.929.383a1.27 1.27 0 0 0-.379.93q0 .544.38.923.378.38.928.38M3 12.5v3.808h1.708q.347-.6.957-.954A2.6 2.6 0 0 1 7 15q.728 0 1.335.354.609.354.957.954H12.5V12.5zm11 3.808h.708q.347-.6.957-.954A2.6 2.6 0 0 1 17 15q.727 0 1.335.354.609.354.957.954H21V12.5h-7zM14 11h6.9l-1.34-4H14zM1.5 10V8.808h1V6.692h-1V5.5h9.692v1.192h-1v2.116h1V10zm2.192-1.192H5.75V6.692H3.692zm3.25 0H9V6.692H6.942z"/></svg>