<svg xmlns="http://www.w3.org/2000/svg" width="24" height="24" viewBox="0 0 24 24" fill='currentColor'><path d="M2.25 21.24v-1.51q.893-.076 1.326-.523.434-.448 1.774-.448 1.389 0 1.858.5t1.467.5q.997 0 1.467-.5t1.858-.5q1.348 0 1.87.5t1.48.5q.997 0 1.467-.5t1.858-.5q1.34 0 1.761.448.422.447 1.314.524v1.51q-1.2-.059-1.675-.52-.475-.462-1.4-.462-.974 0-1.467.5-.495.5-1.858.5t-1.87-.5-1.48-.5q-.998 0-1.467.5t-1.858.5-1.858-.5-1.467-.5q-.925 0-1.4.462-.475.461-1.7.52m6.425-3.99q-1.338 0-1.853-.5t-1.472-.5q-.875 0-1.395.461-.52.462-1.705.52v-1.51q.892-.077 1.318-.524t1.767-.447q.293 0 .56.06.264.06.65.26l-1.2-4.482-1.453 1.858-1.18-.933 7.217-8.917 10.708 4.092-.543 1.404-2.186-.87L20 15.037q.437.134.837.38.399.248.913.305v1.5q-1.185-.073-1.675-.522-.49-.45-1.4-.45-.997.001-1.467.5-.47.5-1.858.5-1.348 0-1.87-.5-.522-.499-1.48-.5-.998.001-1.467.5-.47.5-1.858.5m0-1.5q.798 0 1.23-.355.431-.354 1.262-.555l-.992-3.64 3.875-1.025 1.467 5.55q.814-.06 1.264-.477.45-.418 1.577-.483L16.16 6.538 10.416 4.4 6.509 9.129l1.774 6.58q.099.025.198.033.098.008.194.008"/></svg>