<svg xmlns="http://www.w3.org/2000/svg" width="24" height="24" viewBox="0 0 24 24" fill='currentColor'><path d="M4 12.154V18 6zm10.289 8.461q.482 0 .818-.335.335-.336.335-.819t-.335-.818a1.1 1.1 0 0 0-.818-.335q-.483 0-.819.335a1.1 1.1 0 0 0-.335.819q0 .482.335.818.336.335.819.335M20 11.5q.483 0 .818-.335.336-.336.336-.819t-.336-.818A1.1 1.1 0 0 0 20 9.192q-.483 0-.818.336a1.1 1.1 0 0 0-.336.818q0 .483.336.819.335.335.818.335m-13.75-.75h5.135v-1.5H6.25zm0 4h5.135v-1.5H6.25zM2.5 19.5v-15h19v1.808H20V6H4v12h5.635v1.5zm11.789 2.615a2.56 2.56 0 0 1-1.88-.774 2.56 2.56 0 0 1-.774-1.88q0-.907.538-1.605a2.57 2.57 0 0 1 1.366-.931v-2.771h5.711v-1.271a2.56 2.56 0 0 1-1.365-.931q-.54-.698-.539-1.606 0-1.106.774-1.88A2.56 2.56 0 0 1 20 7.693q1.106 0 1.88.774a2.56 2.56 0 0 1 .774 1.88q0 .907-.539 1.606a2.56 2.56 0 0 1-1.365.93v2.772h-5.711v1.271a2.56 2.56 0 0 1 1.365.93q.538.699.538 1.607a2.56 2.56 0 0 1-.774 1.88 2.56 2.56 0 0 1-1.88.773"/></svg>