<svg xmlns="http://www.w3.org/2000/svg" width="24" height="24" viewBox="0 0 24 24" fill='currentColor'><path d="M18.673 21.27a1.74 1.74 0 0 1-1.276-.532 1.74 1.74 0 0 1-.532-1.276v-1.033a4.37 4.37 0 0 1-2.68-1.506q-1.07-1.242-1.07-2.923V7.5h9V14q0 1.68-1.07 2.923a4.37 4.37 0 0 1-2.68 1.506v1.033a.3.3 0 0 0 .087.22.3.3 0 0 0 .221.087h2.692v1.5zm.692-8.02h1.25V9h-6v2.25h.75q.758 0 1.443.346.684.346 1.156.958.233.348.613.522t.788.174M17.615 17q1.042 0 1.847-.64a2.86 2.86 0 0 0 1.036-1.61h-1.133q-.765 0-1.451-.334a3.16 3.16 0 0 1-1.156-.96 1.8 1.8 0 0 0-.619-.52 1.7 1.7 0 0 0-.774-.186h-.75V14q0 1.275.863 2.137.862.863 2.137.863m-9.577 4.712-1.5-1.125v-3.895H5.5a1.74 1.74 0 0 1-1.277-.53 1.74 1.74 0 0 1-.53-1.277V7.5h-.885V6h3.73V4.385H5.135v-1.5h4.307v1.5H8.038V6h3.731v1.5h-.885v7.384q0 .746-.53 1.277a1.74 1.74 0 0 1-1.277.531H8.038zM5.5 15.192h3.577a.3.3 0 0 0 .221-.086.3.3 0 0 0 .087-.222v-1.461H6.942v-1.192h2.443v-1.77H6.942V9.27h2.443V7.5H5.192v7.384a.3.3 0 0 0 .087.222.3.3 0 0 0 .221.086"/></svg>