<svg xmlns="http://www.w3.org/2000/svg" width="24" height="24" viewBox="0 0 24 24" fill='currentColor'><path d="M15.058 22.692q-.73 0-1.24-.51t-.51-1.24q0-.536.28-.953a1.83 1.83 0 0 1 .72-.633v-5.852a1.87 1.87 0 0 1-.72-.621 1.6 1.6 0 0 1-.28-.94q0-.73.51-1.24t1.24-.51q.729 0 1.239.51t.51 1.24q0 .535-.28.94a1.87 1.87 0 0 1-.72.62v3.29L20 15.4v-1.896a1.87 1.87 0 0 1-.72-.621 1.6 1.6 0 0 1-.28-.94q0-.73.51-1.24.511-.51 1.24-.51t1.24.51.51 1.24q0 .535-.28.94-.279.404-.72.62v2.966l-5.692 1.894v.993q.44.218.72.633.28.417.28.953 0 .73-.511 1.24-.51.51-1.24.51M2.5 19.5v-15h7.298l2 2H21.5V8H11.185l-2-2H4v12h7.116v1.5z"/></svg>