<svg xmlns="http://www.w3.org/2000/svg" width="24" height="24" viewBox="0 0 24 24" fill='currentColor'><path d="M4 18V6v5.617-.463zm-1.5 1.5v-15h7.298l2 2H21.5v5.88a5 5 0 0 0-.715-.432 7 7 0 0 0-.785-.33V8h-8.815l-2-2H4v12h6.971a8 8 0 0 0 .056.765q.045.375.158.735zm14.439.48 3.407-3.392-.838-.838-2.57 2.538L15.8 17.15l-.839.854zm.715-6.634q1.873 0 3.186 1.314 1.314 1.313 1.314 3.186t-1.314 3.187q-1.312 1.313-3.186 1.313t-3.187-1.313-1.313-3.187q0-1.873 1.313-3.186 1.314-1.314 3.187-1.314"/></svg>