<svg xmlns="http://www.w3.org/2000/svg" width="24" height="24" viewBox="0 0 24 24" fill='currentColor'><path d="M9.058 18.89a7.3 7.3 0 0 1-3.025-2.339A7.4 7.4 0 0 1 4.575 13H6.09q.226 1.344 1 2.454a5.9 5.9 0 0 0 1.968 1.784zm2.192 2.61v-8.308h4.039l.961 1.462h5.25V21.5zM2.5 10.808V2.5h4.039L7.5 3.962h5.25v6.846zM18 12q0-1.644-.814-3.041a5.8 5.8 0 0 0-2.244-2.188V5.13a7.2 7.2 0 0 1 3.325 2.74A7.36 7.36 0 0 1 19.5 12zm-5.25 8H20v-3.846h-4.556l-.971-1.462H12.75zM4 9.308h7.25V5.462H6.694L5.723 4H4z"/></svg>