<svg xmlns="http://www.w3.org/2000/svg" width="24" height="24" viewBox="0 0 24 24" fill='currentColor'><path d="m17.106 21.202-.204-1.193a3.8 3.8 0 0 1-.75-.296 3 3 0 0 1-.62-.457l-1.142.392-.769-1.258.92-.788a3.34 3.34 0 0 1 0-1.685l-.92-.788.77-1.258 1.142.393q.303-.297.619-.463.315-.166.75-.292l.204-1.192h1.5l.203 1.192q.435.126.75.292t.62.463l1.142-.393.77 1.258-.92.788a3.34 3.34 0 0 1 0 1.685l.92.788-.77 1.258-1.142-.392a3 3 0 0 1-.62.457q-.315.171-.75.296l-.203 1.193zm.75-2.366a2 2 0 0 0 1.465-.611 2 2 0 0 0 .612-1.466q0-.853-.612-1.465a2 2 0 0 0-1.465-.611 2 2 0 0 0-1.466.611 2 2 0 0 0-.611 1.465 2 2 0 0 0 .611 1.466 2 2 0 0 0 1.466.611M4 18V6v4.367V10zm-1.5 1.5v-15h7.298l2 2H21.5v4.592a5 5 0 0 0-.715-.413 7 7 0 0 0-.785-.312V8h-8.815l-2-2H4v12h7.22q.064.4.184.77t.287.73z"/></svg>