<svg xmlns="http://www.w3.org/2000/svg" width="24" height="24" viewBox="0 0 24 24" fill='currentColor'><path d="m19.573 21.696-8.9-8.9-2.808 4.858H6.142l2.349-4.087a.6.6 0 0 1-.202.068q-.115.02-.231.019-1.525 0-2.59-1.073A3.53 3.53 0 0 1 4.404 10q0-.734.27-1.362.27-.63.742-1.1L2.304 4.427l1.054-1.07 17.284 17.285zm-1.462-6.41-4.745-4.745a2 2 0 0 1-.077-.54q0-1.536 1.064-2.595t2.59-1.06q1.506 0 2.58 1.065 1.073 1.064 1.073 2.586 0 .53-.128.984t-.374.865zm-10.053-3.44q.342 0 .646-.14a1.5 1.5 0 0 0 .506-.373L6.725 8.848a1.5 1.5 0 0 0-.373.506q-.14.304-.14.646 0 .77.538 1.308a1.78 1.78 0 0 0 1.308.538m8.884 0q.77 0 1.308-.538A1.78 1.78 0 0 0 18.788 10q0-.77-.538-1.308a1.78 1.78 0 0 0-1.308-.538q-.77 0-1.308.538A1.78 1.78 0 0 0 15.096 10q0 .77.538 1.308a1.78 1.78 0 0 0 1.308.538"/></svg>