<svg xmlns="http://www.w3.org/2000/svg" width="24" height="24" viewBox="0 0 24 24" fill='currentColor'><path d="m6.142 17.654 2.348-4.087a.6.6 0 0 1-.202.067q-.115.02-.23.02-1.525 0-2.59-1.074A3.53 3.53 0 0 1 4.404 10q0-1.525 1.064-2.59t2.59-1.064q1.508 0 2.58 1.064 1.074 1.065 1.073 2.587 0 .53-.127.984-.129.453-.374.865l-3.345 5.808zm8.885 0 2.348-4.087a.6.6 0 0 1-.202.067q-.116.02-.23.02-1.525 0-2.59-1.074A3.53 3.53 0 0 1 13.289 10q0-1.535 1.064-2.594 1.065-1.06 2.59-1.06 1.506 0 2.58 1.064 1.073 1.065 1.073 2.587 0 .53-.128.984a3.6 3.6 0 0 1-.374.865l-3.344 5.808zm-6.97-5.808q.771 0 1.308-.538A1.78 1.78 0 0 0 9.904 10q0-.77-.539-1.308a1.78 1.78 0 0 0-1.307-.538q-.77 0-1.308.538A1.78 1.78 0 0 0 6.211 10q0 .77.539 1.308a1.78 1.78 0 0 0 1.308.538m8.885 0q.77 0 1.308-.538A1.78 1.78 0 0 0 18.788 10q0-.77-.538-1.308a1.78 1.78 0 0 0-1.308-.538q-.77 0-1.308.538A1.78 1.78 0 0 0 15.096 10q0 .77.538 1.308a1.78 1.78 0 0 0 1.308.538"/></svg>