<svg xmlns="http://www.w3.org/2000/svg" width="24" height="24" viewBox="0 0 24 24" fill='currentColor'><path d="M1.692 22.308v-5.116H3.5V6.808H1.692V1.692h5.116V3.5h10.384V1.692h5.116v5.116H20.5v10.384h1.808v5.116h-5.116V20.5H6.808v1.808zM6.808 19h10.384v-1.808H19V6.808h-1.808V5H6.808v1.808H5v10.384h1.808zm1.175-3 3.458-9h1.118l3.478 9h-1.262l-.915-2.454h-3.69L9.256 16zm2.561-3.504h2.912L12.04 8.612h-.1zM3.192 5.308h2.116V3.192H3.192zm15.5 0h2.116V3.192h-2.116zm0 15.5h2.116v-2.116h-2.116zm-15.5 0h2.116v-2.116H3.192z"/></svg>