<svg xmlns="http://www.w3.org/2000/svg" width="24" height="24" viewBox="0 0 24 24" fill='currentColor'><path d="M17.558 20.942h.884v-2.5h2.5v-.884h-2.5v-2.5h-.884v2.5h-2.5v.884h2.5zM18 22.5q-1.873 0-3.187-1.314Q13.5 19.874 13.5 18q0-1.872 1.313-3.187Q16.127 13.5 18 13.5t3.186 1.313T22.5 18t-1.314 3.186Q19.874 22.5 18 22.5M9.308 6.75v-1.5H20.5v1.5zM5.164 19.663q-.687 0-1.175-.488A1.6 1.6 0 0 1 3.5 18q0-.687.489-1.175a1.6 1.6 0 0 1 1.175-.489q.686 0 1.174.49.489.487.489 1.174t-.489 1.175a1.6 1.6 0 0 1-1.174.488m0-6q-.687 0-1.175-.488A1.6 1.6 0 0 1 3.5 12q0-.687.489-1.175a1.6 1.6 0 0 1 1.175-.489q.686 0 1.174.49.489.487.489 1.174t-.489 1.175a1.6 1.6 0 0 1-1.174.488m0-6q-.687 0-1.175-.488A1.6 1.6 0 0 1 3.5 6q0-.687.489-1.175a1.6 1.6 0 0 1 1.175-.489q.686 0 1.174.49.489.487.489 1.174t-.489 1.175a1.6 1.6 0 0 1-1.174.488M9.308 18.75v-1.5h1.988a5.1 5.1 0 0 0 0 1.5zm0-6v-1.5H18q-1.185 0-2.233.398a6.5 6.5 0 0 0-1.882 1.102z"/></svg>