<svg xmlns="http://www.w3.org/2000/svg" width="24" height="24" viewBox="0 0 24 24" fill='currentColor'><path d="M19.5 13.12a7 7 0 0 1-.166 1.537q-.167.753-.488 1.474l-1.165-1.135q.17-.424.244-.886.075-.462.075-.99 0-1.176-.437-2.235A5.4 5.4 0 0 0 16.25 9L12 4.8 9.723 7.027 8.669 5.973 12 2.693l5.304 5.203a7 7 0 0 1 1.605 2.353 7.3 7.3 0 0 1 .591 2.87m.338 8.826-3.119-3.12a7.1 7.1 0 0 1-2.166 1.234A7.5 7.5 0 0 1 12 20.5q-3.123 0-5.311-2.159-2.19-2.159-2.189-5.222 0-1.332.472-2.531A8.2 8.2 0 0 1 6.273 8.38L2.112 4.219l1.054-1.053 17.726 17.726zM12 19q1.092 0 2.025-.36a6.1 6.1 0 0 0 1.61-.898L7.327 9.465a6.8 6.8 0 0 0-.965 1.692A5.3 5.3 0 0 0 6 13.119q0 2.45 1.75 4.166Q9.5 19 12 19"/></svg>