<svg xmlns="http://www.w3.org/2000/svg" width="24" height="24" viewBox="0 0 24 24" fill='currentColor'><path d="M5.308 9.077V4.885L6.692 3.5h3.904v5.577h-1.5V5h-1.98l-.308.308v3.769zM13.933 8a.84.84 0 0 1-.617-.249.84.84 0 0 1-.249-.616q0-.367.249-.617a.84.84 0 0 1 .616-.249q.368 0 .617.249a.84.84 0 0 1 .249.616q0 .368-.249.617a.84.84 0 0 1-.616.249m5.817 0a.84.84 0 0 1-.616-.249.84.84 0 0 1-.25-.616q0-.367.25-.617a.84.84 0 0 1 .616-.249q.367 0 .616.249a.84.84 0 0 1 .25.616q0 .368-.25.617A.84.84 0 0 1 19.75 8m-2.913-1.942a.84.84 0 0 1-.612-.249.83.83 0 0 1-.254-.616.83.83 0 0 1 .254-.617.85.85 0 0 1 .616-.249q.363 0 .612.249.249.247.249.616 0 .367-.249.617a.84.84 0 0 1-.616.249m2.913-1.942a.84.84 0 0 1-.616-.25.84.84 0 0 1-.25-.616q0-.367.25-.616a.84.84 0 0 1 .616-.25q.367 0 .616.25a.84.84 0 0 1 .25.616q0 .367-.25.616a.84.84 0 0 1-.616.25m-2.913 5.826a.83.83 0 0 1-.612-.253.84.84 0 0 1-.254-.617q0-.362.254-.611a.85.85 0 0 1 .616-.25q.363 0 .612.25.249.247.249.616a.84.84 0 0 1-.249.612.83.83 0 0 1-.616.253m2.913 1.942a.83.83 0 0 1-.616-.253.85.85 0 0 1-.25-.617q0-.362.25-.611a.84.84 0 0 1 .616-.25q.367 0 .616.25a.84.84 0 0 1 .25.616.84.84 0 0 1-.25.612.83.83 0 0 1-.616.253M5 19h5.904v-8.423H5zm-1.5 1.5V9.077h8.904V20.5z"/></svg>