<svg xmlns="http://www.w3.org/2000/svg" width="24" height="24" viewBox="0 0 24 24" fill='currentColor'><path d="M2.5 21.5V16H4v4h4v1.5zM2.5 8V2.5H8V4H4v4zM16 21.5V20h4v-4h1.5v5.5zM20 8V4h-4V2.5h5.5V8zm-8.001 3.942q-1.158 0-1.954-.795-.795-.795-.795-1.953 0-1.137.795-1.944.796-.808 1.954-.808 1.136 0 1.943.808a2.65 2.65 0 0 1 .808 1.944q0 1.158-.808 1.953a2.67 2.67 0 0 1-1.943.795m.001-1.5q.522 0 .886-.359.364-.36.364-.89 0-.522-.364-.886a1.2 1.2 0 0 0-.89-.365q-.527 0-.886.365-.36.365-.36.89 0 .526.36.886.359.36.89.36m-5.75 7.116v-1.65q0-.465.234-.872a1.8 1.8 0 0 1 .635-.652 9.5 9.5 0 0 1 2.345-.99A9.6 9.6 0 0 1 12 13.057q1.302 0 2.536.335a9.5 9.5 0 0 1 2.345.991q.4.244.635.652t.234.872v1.65zm5.75-3q-1.073 0-2.125.288a8.8 8.8 0 0 0-2.033.846v.375h8.316v-.384a8.5 8.5 0 0 0-2.028-.842 8.2 8.2 0 0 0-2.13-.283m0 1.51h4.158-8.316z"/></svg>