<svg xmlns="http://www.w3.org/2000/svg" width="24" height="24" viewBox="0 0 24 24" fill='currentColor'><path d="M5.192 17.558v-1.65q0-.465.234-.872a1.8 1.8 0 0 1 .635-.652 9.3 9.3 0 0 1 2.708-1.08 9.9 9.9 0 0 1 2.908-.212q-.03.169-.046.33a4 4 0 0 0-.015.328q0 .218.015.429t.056.413a7.3 7.3 0 0 0-2.536.17 9 9 0 0 0-2.366.93v.375h5.438q.217.447.513.817t.687.674zm5.75-5.616q-1.16 0-1.954-.795-.796-.795-.796-1.953 0-1.137.796-1.944.794-.808 1.953-.808 1.136 0 1.943.808a2.65 2.65 0 0 1 .808 1.944q0 1.158-.808 1.953a2.67 2.67 0 0 1-1.943.795m0-1.5q.522 0 .886-.359.364-.36.364-.89 0-.522-.364-.886a1.2 1.2 0 0 0-.89-.365q-.526 0-.886.365t-.36.89.36.886.89.36m5.174 7.116v-1.422a2.82 2.82 0 0 1-1.644-.925q-.654-.74-.664-1.769h.884q.01.767.556 1.307.544.54 1.311.54.765 0 1.31-.54t.554-1.307h.885q-.01 1.03-.665 1.769-.655.74-1.643.922v1.425zm.442-3.154q-.477 0-.806-.33a1.1 1.1 0 0 1-.329-.805v-1.846q0-.477.33-.806.328-.328.805-.328t.805.329q.33.328.33.805v1.846q0 .477-.33.806t-.805.329M2.5 21.5V16H4v4h4v1.5zM2.5 8V2.5H8V4H4v4zM16 21.5V20h4v-4h1.5v5.5zM20 8V4h-4V2.5h5.5V8z"/></svg>