<svg xmlns="http://www.w3.org/2000/svg" width="24" height="24" viewBox="0 0 24 24" fill='currentColor'><path d="M12.164 11.75v-10h1.5v10zm-3.837 0v-9h1.5v9zm4.175 10.75q-3.34 0-5.671-2.33T4.5 14.5v-10H6v10q0 2.725 1.888 4.613Q9.775 21 12.5 21t4.613-1.887T19 14.5v-3.75h-.25q-.522 0-.886.364A1.2 1.2 0 0 0 17.5 12v3.461h-2.461q-.941 0-1.596.655a2.17 2.17 0 0 0-.654 1.596v.75h-1.5v-.75q0-1.554 1.098-2.652a3.6 3.6 0 0 1 2.652-1.099H16V3.75h1.5v5.867q.279-.17.586-.269.308-.098.664-.098h1.75v5.25q0 3.341-2.329 5.67-2.328 2.33-5.669 2.33"/></svg>