<svg xmlns="http://www.w3.org/2000/svg" width="24" height="24" viewBox="0 0 24 24" fill='currentColor'><path d="M10.154 17.75v-1.5h1.415L14.406 13l-2.837-3.25H9.784l-1.6 8.398q-.238 1.28-.9 1.94-.663.662-1.711.662-1 0-1.633-.542-.632-.542-.632-1.437 0-.675.352-1.085.354-.411.898-.411.519 0 .884.358.366.357.366.861 0 .202-.09.355a.7.7 0 0 1-.22.24q.048.048.135.081a.5.5 0 0 0 .192.034.68.68 0 0 0 .535-.301q.207-.285.334-.88l1.56-8.273H5.346v-1.5h3.187l.505-2.734q.195-1.056.87-1.661.676-.605 1.66-.605t1.617.578q.632.577.632 1.457 0 .643-.353 1.055-.353.41-.897.41-.518 0-.884-.353a1.16 1.16 0 0 1-.366-.872.69.69 0 0 1 .32-.594.35.35 0 0 0-.15-.096.6.6 0 0 0-.206-.039.68.68 0 0 0-.5.275q-.185.245-.283.723l-.425 2.456h4.58v1.5h-1.097l1.848 2.11 1.848-2.11h-1.098v-1.5h4.5v1.5h-1.416L16.403 13l2.846 3.25h1.406v1.5h-4.5v-1.5h1.098l-1.848-2.125-1.848 2.125h1.098v1.5z"/></svg>