<svg xmlns="http://www.w3.org/2000/svg" width="24" height="24" viewBox="0 0 24 24" fill='currentColor'><path d="M2.5 21.5v-19h19v19zM4 20h16V4H4zm4.808-6.116a.85.85 0 0 1-.626-.258.85.85 0 0 1-.259-.626q0-.367.259-.626a.85.85 0 0 1 .626-.258q.367 0 .626.258a.85.85 0 0 1 .258.626.85.85 0 0 1-.258.626.85.85 0 0 1-.626.258m6.384 0a.85.85 0 0 1-.626-.258.85.85 0 0 1-.258-.626q0-.367.258-.626a.85.85 0 0 1 .626-.258q.368 0 .626.258a.85.85 0 0 1 .259.626.85.85 0 0 1-.259.626.85.85 0 0 1-.626.258M5.5 11.177V18H7v-2h10v2h1.5v-6.823L16.713 6H7.29zM7.477 10l.873-2.5h7.3l.873 2.5zM7 14.5v-3h10v3z"/></svg>