<svg xmlns="http://www.w3.org/2000/svg" width="24" height="24" viewBox="0 0 24 24" fill='currentColor'><path d="m11.715 14.902-3.373 5.05H5.5v-10.6l-1.748-4.14H1.731v-1.5h3.035L6.358 7.5h15.425l-3.302 6.467a2.94 2.94 0 0 1 1.877.989q.757.847.757 1.996a2.9 2.9 0 0 1-.867 2.121 2.85 2.85 0 0 1-2.108.879q-1.263 0-2.131-.879a2.9 2.9 0 0 1-.869-2.121 2.8 2.8 0 0 1 .552-1.693zm5.137-1.027L19.325 9H6.981l1.754 4.125zM7 18.427h.552l2.48-3.677-2.341-.212L7 12.936zm11.115.034q.65 0 1.075-.437.425-.438.425-1.063 0-.65-.425-1.075-.424-.425-1.075-.425-.624 0-1.062.425-.438.426-.438 1.075 0 .625.438 1.063.437.438 1.062.437"/></svg>