<svg xmlns="http://www.w3.org/2000/svg" width="24" height="24" viewBox="0 0 24 24" fill='currentColor'><path d="M3.49 21.75V16q0-1.145.803-1.947a2.65 2.65 0 0 1 1.947-.803h2q1.356 0 2.303-.947.948-.948.948-2.303 0-.522-.365-.886a1.2 1.2 0 0 0-.885-.364q-.73 0-1.24-.51-.51-.511-.51-1.24V2.25H10V7q0 .106.067.178a.23.23 0 0 0 .174.072 2.65 2.65 0 0 1 1.947.803q.803.802.803 1.947 0 1.97-1.391 3.36-1.39 1.39-3.36 1.39h-2q-.52 0-.885.364A1.2 1.2 0 0 0 4.99 16v5.75zm5.01 0H7V20q0-1.145.803-1.947a2.65 2.65 0 0 1 1.947-.803h4q2.18 0 3.715-1.534Q19 14.18 19 12v-1q0-2.152-1.453-3.701-1.453-1.55-3.576-1.549a1.9 1.9 0 0 1-1.393-.583A1.9 1.9 0 0 1 12 3.78V2.25h1.5v1.529q0 .192.14.332.139.14.331.139 2.762 0 4.645 1.98Q20.5 8.21 20.5 11v1q0 2.82-1.965 4.785T13.75 18.75h-4q-.522 0-.886.364A1.2 1.2 0 0 0 8.5 20z"/></svg>