<svg xmlns="http://www.w3.org/2000/svg" width="24" height="24" viewBox="0 0 24 24" fill='currentColor'><path d="M13.802 20.5q-1.254 0-2.078-.829-.825-.829-.824-2.061 0-1.804 1.509-3.236t3.741-1.74q-.094-1.091-.503-1.622-.408-.53-1.145-.53-.808 0-1.702.64-.895.639-2.152 2.151-1.699 2.056-2.603 2.736-.903.681-1.885.681-1.15 0-1.905-.839-.755-.84-.755-2.113 0-1.234.544-2.56.545-1.325 1.79-3.08.562-.775.811-1.283.25-.507.25-.84 0-.242-.111-.359-.11-.116-.322-.116-.3 0-.683.284-.385.283-.875.876L3.5 5.25q.742-.86 1.486-1.305.742-.445 1.476-.445 1.035 0 1.733.694.7.694.7 1.75 0 .696-.361 1.523-.36.828-1.236 2.062-.92 1.32-1.36 2.322-.438 1.001-.438 1.795 0 .483.18.763.18.282.48.281.279 0 .524-.151.245-.152.716-.62.325-.32.741-.8l1.009-1.161q1.584-1.894 2.802-2.685 1.217-.79 2.54-.79 1.57 0 2.548 1.086.98 1.087 1.11 2.989h2.36v2h-2.36q-.18 2.713-1.361 4.328-1.181 1.614-2.987 1.614m.03-2q.907 0 1.524-1.033.616-1.032.779-2.802a4.4 4.4 0 0 0-2.275 1.078q-.96.86-.96 1.795 0 .436.248.7.248.262.685.262"/></svg>