<svg xmlns="http://www.w3.org/2000/svg" width="24" height="24" viewBox="0 0 24 24" fill='currentColor'><path d="M1.673 11.73v-1.614H3.29v1.615zm19.039 0v-1.614h1.615v1.615zM1.672 7.924V6.308H3.29v1.615zm19.039 0V6.308h1.615v1.615zM1.672 4.116V2.5H3.29v1.616zm3.808 7.615v-1.615h1.615v1.615zm11.423 0v-1.615h1.615v1.615zm3.808-7.615V2.5h1.615v1.616zm-15.231 0V2.5h1.615v1.616zm3.808 0V2.5h1.615v1.616zm3.807 0V2.5h1.615v1.616zm3.808 0V2.5h1.615v1.616zM11.746 22.24a2.7 2.7 0 0 1-1.938-.804l-4.727-4.734 1.302-1.327 2.79.713V7.25h1.5v10.825l-2.844-.758 3.036 3.056q.188.189.407.278t.476.09h3.829q.928 0 1.589-.662.66-.66.661-1.589v-4.336h1.5v4.336q0 1.554-1.098 2.652a3.6 3.6 0 0 1-2.652 1.098zm.312-6.711v-4.76h1.5v4.76zm2.884 0v-2.952h1.5v2.952z"/></svg>