<svg xmlns="http://www.w3.org/2000/svg" width="24" height="24" viewBox="0 0 24 24" fill='currentColor'><path d="m11.8 20.006.15-4.21L15 12.8h1.95v1.85l2.26.35a9.4 9.4 0 0 0 .434-1.45q.162-.75.162-1.55 0-2.224-1.103-4.053A8.14 8.14 0 0 0 15.8 5.069V8h-3v3h-2v3H8.775L6.8 11h-1v1l-1.756 1.975q.65 2.6 2.803 4.316t4.953 1.715m4-6.006h-3v-2h3zm0-6h2.025l-1.01 3h-2.04zm-3.998 13.5q-1.972 0-3.706-.748a9.6 9.6 0 0 1-3.017-2.03 9.6 9.6 0 0 1-2.03-3.016 9.25 9.25 0 0 1-.749-3.704q0-1.972.748-3.706a9.6 9.6 0 0 1 2.03-3.016 9.6 9.6 0 0 1 3.016-2.032 9.25 9.25 0 0 1 3.704-.748q1.971 0 3.706.748a9.6 9.6 0 0 1 3.016 2.03 9.6 9.6 0 0 1 2.032 3.016 9.2 9.2 0 0 1 .748 3.704q0 1.972-.748 3.706a9.6 9.6 0 0 1-2.03 3.017 9.6 9.6 0 0 1-3.016 2.03 9.25 9.25 0 0 1-3.704.749"/></svg>