<svg xmlns="http://www.w3.org/2000/svg" width="24" height="24" viewBox="0 0 24 24" fill='currentColor'><path d="M12 20a7.2 7.2 0 0 0 1.7-.2L12.5 18H9v-1l2-2h2v-3h-2l-1-1V9H7.8V7.275l2-2.95Q7.276 5.05 5.637 7.15 4 9.25 4 12h1v-2h4v2l-1 1v3H5.075a8.1 8.1 0 0 0 2.875 2.9Q9.775 20 12 20m7.6-5.55q.2-.575.3-1.187T20 12q0-2.8-1.7-4.937T14 4.25V7l2 2v2h1.175zm-7.598 7.05a9.3 9.3 0 0 1-3.706-.748 9.6 9.6 0 0 1-3.016-2.03 9.6 9.6 0 0 1-2.032-3.016 9.25 9.25 0 0 1-.748-3.704q0-1.972.748-3.706a9.6 9.6 0 0 1 2.03-3.016 9.6 9.6 0 0 1 3.016-2.032 9.25 9.25 0 0 1 3.704-.748q1.972 0 3.706.748a9.6 9.6 0 0 1 3.017 2.03 9.6 9.6 0 0 1 2.03 3.016 9.25 9.25 0 0 1 .749 3.704q0 1.972-.748 3.706a9.6 9.6 0 0 1-2.03 3.017 9.6 9.6 0 0 1-3.016 2.03 9.25 9.25 0 0 1-3.704.749"/></svg>