<svg xmlns="http://www.w3.org/2000/svg" width="24" height="24" viewBox="0 0 24 24" fill='currentColor'><path d="m6.166 13.639 2.044-1.54L11 13.876V3.25h1.5v13.373l-3.277-2.102-.202.135L13.585 20h7.424v-9.942h1.5V21.5h-9.593zm8.17-.889V6.962h1.5v5.788zm3.337 0V8.058h1.5v4.692zM4.5 9.75q-1.37 0-2.31-.935a3.08 3.08 0 0 1-.94-2.265q0-.802.313-1.379.314-.576 1.545-1.973L4.5 1.61l1.383 1.604Q7.129 4.65 7.439 5.207T7.75 6.55q0 1.32-.948 2.26-.949.94-2.302.94m0-1.5q.73 0 1.24-.497t.51-1.203q0-.453-.232-.83-.231-.375-1.23-1.503L4.49 3.9l-.279.317q-.896 1.016-1.178 1.466-.283.45-.283.867 0 .706.502 1.203T4.5 8.25"/></svg>