<svg xmlns="http://www.w3.org/2000/svg" width="24" height="24" viewBox="0 0 24 24" fill='currentColor'><path d="M5.87 2.31h1.41l3.376 8.49H9.242l-.798-2.064H4.706L3.908 10.8H2.494zm-.145 10.04q.945 0 1.597.653.653.652.653 1.597 0 .452-.163.866-.165.415-.485.736l-.548.523 1.046 1.056 1.425-1.4 1.07 1.069-1.4 1.41 1.4 1.415-1.07 1.044-1.4-1.4-1.223 1.233q-.336.337-.768.505t-.909.168a2.08 2.08 0 0 1-1.567-.665 2.25 2.25 0 0 1-.633-1.61q0-.452.176-.866.176-.415.497-.736l1.233-1.233-.533-.523a2.4 2.4 0 0 1-.497-.723 2.1 2.1 0 0 1-.176-.844q0-.945.666-1.61.665-.665 1.609-.665m0 5.444-1.248 1.233a.64.64 0 0 0-.153.24.8.8 0 0 0-.049.283q0 .306.21.528T5 20.3a.7.7 0 0 0 .279-.057.8.8 0 0 0 .244-.17l1.248-1.233zM5.7 13.85a.68.68 0 0 0-.515.222.74.74 0 0 0-.21.528.8.8 0 0 0 .049.284q.05.135.153.239l.539.533.507-.508a.8.8 0 0 0 .17-.244.77.77 0 0 0-.16-.824.7.7 0 0 0-.533-.23m.825-9.908-1.38 3.59h2.86l-1.38-3.59zm10.873-2.067q.172.277.285.57.113.291.194.594l-.94.286h4.62v1.5h-1.444a6.7 6.7 0 0 1-.741 1.692 7.4 7.4 0 0 1-1.147 1.435q.694.438 1.443.735.75.295 1.553.496l-.35 1.454a13 13 0 0 1-1.991-.666 10 10 0 0 1-1.841-1.025q-.887.6-1.87 1.008t-2.03.673l-.345-1.435a14 14 0 0 0 1.581-.496 8.2 8.2 0 0 0 1.477-.744 7.6 7.6 0 0 1-1.114-1.444 6.6 6.6 0 0 1-.711-1.683h-1.585v-1.5h4.044a5 5 0 0 0-.161-.537 8 8 0 0 0-.212-.511zm2.677 10.956 1.07 1.044-7.42 7.42-1.07-1.045zM14.5 13.3q.52 0 .884.365.366.366.366.885 0 .52-.366.884a1.2 1.2 0 0 1-.884.366q-.52 0-.884-.366a1.2 1.2 0 0 1-.366-.884q0-.519.366-.885.365-.365.884-.365m1.104-8.475q.2.639.567 1.198.368.56.867 1.021a5.7 5.7 0 0 0 .892-1.021q.382-.56.607-1.198zM19.5 18.3q.52 0 .884.366.366.365.366.884 0 .52-.366.884a1.2 1.2 0 0 1-.884.366q-.52 0-.884-.366a1.2 1.2 0 0 1-.366-.884q0-.52.366-.884.365-.366.884-.366"/></svg>