<svg xmlns="http://www.w3.org/2000/svg" width="24" height="24" viewBox="0 0 24 24" fill='currentColor'><path d="M3.5 20.5v-7.673q0-1.486 1.07-2.541Q5.637 9.23 7.153 9.23h4.096V6.12L1.5 8.77V7.28l4.99-1.362a2 2 0 0 1-.082-.236 1 1 0 0 1-.033-.277q0-.52.36-.875.361-.356.88-.356.489 0 .832.318.343.316.384.796l2.419-.656V3.5h1.5v.715l2.535-.681a1.2 1.2 0 0 1-.131-.554q0-.52.355-.88.357-.36.875-.36.49 0 .85.337t.391.826L22.5 1.567v1.49l-9.75 2.649V9.23h4.096q1.515 0 2.585 1.055t1.069 2.541V20.5zM5 19h14v-2.577H5zm0-4.077h3.662v-4.192H7.154a2.1 2.1 0 0 0-1.523.616Q5 11.964 5 12.827zm5.162 0h3.661v-4.192h-3.661zm5.176 0H19v-2.096q0-.863-.63-1.48a2.1 2.1 0 0 0-1.524-.616h-1.508z"/></svg>