<svg xmlns="http://www.w3.org/2000/svg" width="24" height="24" viewBox="0 0 24 24" fill='currentColor'><path d="M8.25 20.5v-2H2.5v-15h19v3.616H20V5H4v12h7.192v3.5zm6.92-4.154q0-.903.636-1.54a2.1 2.1 0 0 1 1.54-.637q.904 0 1.54.637.637.637.637 1.54 0 .904-.637 1.54a2.1 2.1 0 0 1-1.54.637 2.1 2.1 0 0 1-1.54-.637 2.1 2.1 0 0 1-.637-1.54M21.5 8.5v12h-8.308v-12zm-4.155.923q-.6 0-.992.393t-.392.993.393.992q.393.39.994.391.6 0 .992-.392.39-.393.39-.994 0-.6-.392-.991-.393-.392-.993-.392m0 10.154q1.361 0 2.296-.934.936-.934.936-2.296 0-1.36-.934-2.296t-2.296-.935q-1.36-.001-2.296.934-.936.933-.935 2.295-.001 1.361.934 2.296.933.936 2.295.936"/></svg>