<svg xmlns="http://www.w3.org/2000/svg" width="24" height="24" viewBox="0 0 24 24" fill='currentColor'><path d="M12 15.615q.343 0 .575-.232a.78.78 0 0 0 .233-.575.78.78 0 0 0-.232-.576A.78.78 0 0 0 12 14a.78.78 0 0 0-.575.232.78.78 0 0 0-.233.576q0 .343.232.575a.78.78 0 0 0 .576.232m-.75-3.403h1.5V7.385h-1.5zM12 21.48q-3.244-.885-5.372-3.82T4.5 11.102V5.345L12 2.54l7.5 2.807V11.1q0 3.627-2.128 6.562Q15.244 20.596 12 21.48m0-1.58q2.6-.825 4.3-3.3 1.7-2.476 1.7-5.5V6.374l-6-2.24-6 2.24V11.1q0 3.025 1.7 5.5t4.3 3.3"/></svg>