<svg xmlns="http://www.w3.org/2000/svg" width="24" height="24" viewBox="0 0 24 24" fill='currentColor'><path d="M11.992 21.98q-1.115 0-1.895-.781a2.6 2.6 0 0 1-.78-1.9q0-1.116.78-1.9a2.57 2.57 0 0 1 1.895-.784q1.114 0 1.902.782.789.783.789 1.9a2.58 2.58 0 0 1-.789 1.9 2.6 2.6 0 0 1-1.902.784m.003-1.5q.497 0 .843-.339.345-.34.345-.842a1.14 1.14 0 0 0-.343-.843 1.16 1.16 0 0 0-.85-.34q-.492 0-.832.345t-.34.837.34.838.837.345m-6.311-2.143q-1.115 0-1.895-.782a2.6 2.6 0 0 1-.78-1.9q0-1.117.78-1.9a2.57 2.57 0 0 1 1.895-.784q1.115 0 1.902.782.789.781.789 1.9a2.58 2.58 0 0 1-.788 1.9 2.6 2.6 0 0 1-1.903.784m12.615 0q-1.114 0-1.894-.782a2.6 2.6 0 0 1-.78-1.9q0-1.117.78-1.9a2.57 2.57 0 0 1 1.894-.784q1.114 0 1.903.782.788.781.788 1.9a2.58 2.58 0 0 1-.788 1.9 2.6 2.6 0 0 1-1.903.784m-12.611-1.5q.497 0 .842-.34t.345-.843a1.14 1.14 0 0 0-.343-.842 1.16 1.16 0 0 0-.85-.34q-.491 0-.832.344-.34.345-.34.838 0 .492.34.837.34.346.838.346m12.615 0q.497 0 .842-.34.346-.34.346-.843a1.14 1.14 0 0 0-.343-.842 1.16 1.16 0 0 0-.85-.34q-.492 0-.833.344-.34.345-.34.838 0 .492.34.837.34.346.838.346M5.683 11.05q-1.113 0-1.893-.782a2.6 2.6 0 0 1-.78-1.899q0-1.117.78-1.9a2.57 2.57 0 0 1 1.894-.784q1.115 0 1.902.782.789.78.789 1.899a2.58 2.58 0 0 1-.788 1.9 2.6 2.6 0 0 1-1.903.784m12.616 0q-1.114 0-1.894-.782a2.6 2.6 0 0 1-.78-1.899q0-1.117.78-1.9a2.57 2.57 0 0 1 1.894-.784q1.114 0 1.903.782.788.78.788 1.899a2.58 2.58 0 0 1-.788 1.9 2.6 2.6 0 0 1-1.903.784M5.689 9.55q.497 0 .842-.34t.345-.842-.343-.843a1.16 1.16 0 0 0-.85-.34q-.491 0-.832.345t-.34.838q0 .492.34.837t.838.345m12.615 0q.497 0 .842-.34.346-.34.346-.842a1.14 1.14 0 0 0-.343-.843 1.16 1.16 0 0 0-.85-.34q-.492 0-.833.345t-.34.838.34.837.838.345M11.99 7.375q-1.114 0-1.894-.782a2.6 2.6 0 0 1-.78-1.899q0-1.117.78-1.9a2.57 2.57 0 0 1 1.895-.784q1.114 0 1.902.782.789.78.789 1.899a2.58 2.58 0 0 1-.789 1.9 2.6 2.6 0 0 1-1.902.784m.004-1.5q.497 0 .843-.34.345-.34.345-.842a1.14 1.14 0 0 0-.343-.843 1.16 1.16 0 0 0-.85-.34q-.492 0-.832.345-.34.346-.34.837 0 .493.34.838t.837.345"/></svg>