<svg xmlns="http://www.w3.org/2000/svg" width="24" height="24" viewBox="0 0 24 24" fill='currentColor'><path d="M12 22.5a2.6 2.6 0 0 1-1.909-.788 2.6 2.6 0 0 1-.783-1.914q0-.36.082-.677a2.4 2.4 0 0 1 .25-.607l-4.153-4.16q-.29.154-.62.25-.33.099-.68.098-1.125 0-1.902-.788A2.63 2.63 0 0 1 1.51 12q0-1.125.775-1.914a2.56 2.56 0 0 1 1.901-.788q.928 0 1.64.558t.945 1.404h2.654a2.53 2.53 0 0 1 .671-1.156q.485-.478 1.164-.663V6.787a2.6 2.6 0 0 1-1.4-.95 2.6 2.6 0 0 1-.552-1.635q0-1.125.788-1.909a2.6 2.6 0 0 1 1.913-.783q1.125 0 1.914.783a2.6 2.6 0 0 1 .788 1.909 2.6 2.6 0 0 1-.348 1.3l4.145 4.144a2.55 2.55 0 0 1 1.3-.348q1.125 0 1.908.788.784.789.784 1.914t-.784 1.914a2.6 2.6 0 0 1-1.908.788 2.6 2.6 0 0 1-1.635-.553 2.6 2.6 0 0 1-.95-1.399h-2.644q-.187.679-.668 1.164a2.56 2.56 0 0 1-1.161.67v2.639a2.63 2.63 0 0 1 1.404.945q.558.712.557 1.63 0 1.125-.793 1.914A2.62 2.62 0 0 1 12 22.5m-.74-5.277v-2.638a2.66 2.66 0 0 1-1.569-1.21 2.7 2.7 0 0 1-.266-.625H6.771a1 1 0 0 1-.032.134l-.048.143q-.027.07-.06.13-.03.059-.075.127l.753.75q.62.614 1.324 1.326.704.711 1.323 1.33l.754.754q.068-.045.135-.076l.138-.066a.7.7 0 0 1 .142-.052q.07-.017.135-.027m3.319-5.973h2.644a.9.9 0 0 1 .088-.292l.067-.138a.6.6 0 0 1 .076-.12q-.135-.134-.75-.754a481 481 0 0 0-3.395-3.39.6.6 0 0 1-.12.076q-.066.03-.137.066a1 1 0 0 1-.293.089V9.44q.32.08.617.258t.527.412q.23.236.412.527.183.293.264.612m5.229 1.952q.502 0 .847-.345T21 12q0-.503-.345-.852a1.14 1.14 0 0 0-.847-.35q-.512 0-.857.35t-.345.852q0 .512.345.857t.857.345m-7.799 0q.503 0 .852-.345.35-.345.35-.857a1.16 1.16 0 0 0-.35-.852 1.16 1.16 0 0 0-.852-.35q-.51 0-.856.35-.345.35-.345.852 0 .512.345.857t.856.345m0 7.798q.503 0 .852-.35a1.16 1.16 0 0 0 .35-.852 1.16 1.16 0 0 0-.35-.852 1.16 1.16 0 0 0-.852-.35q-.51 0-.856.35-.345.35-.345.852 0 .503.345.852.345.35.856.35m-7.797-7.798q.501 0 .852-.345.35-.345.35-.857a1.16 1.16 0 0 0-.35-.852 1.16 1.16 0 0 0-.852-.35 1.16 1.16 0 0 0-.852.35 1.16 1.16 0 0 0-.35.852q0 .512.35.857t.852.345m7.797-7.798q.503 0 .852-.345.35-.345.35-.857a1.16 1.16 0 0 0-.35-.852A1.16 1.16 0 0 0 12.01 3q-.51 0-.856.35-.345.35-.345.852 0 .512.345.857t.856.345"/></svg>