<svg xmlns="http://www.w3.org/2000/svg" width="24" height="24" viewBox="0 0 24 24" fill='currentColor'><path d="M2.5 21.5v-1.865q0-.699.362-1.25a2.53 2.53 0 0 1 .994-.872 13.6 13.6 0 0 1 2.49-.952q1.258-.34 2.785-.34 1.526 0 2.799.34t2.49.953q.626.32.988.872.36.55.361 1.249V21.5zm15.27 0v-2.02q0-.863-.407-1.63a4.7 4.7 0 0 0-1.034-1.325q.704.171 1.395.404.69.233 1.34.57.6.32 1.019.827.417.507.417 1.155V21.5zm-8.598-6.779a3 3 0 0 1-2.205-.91 3 3 0 0 1-.91-2.204q0-1.296.91-2.21a3 3 0 0 1 2.205-.916q1.295 0 2.21.915.916.915.916 2.21 0 1.297-.915 2.206-.916.91-2.211.91m7.626-3.114q0 1.295-.915 2.205a3.02 3.02 0 0 1-2.21.91q-.132 0-.238-.009a1.2 1.2 0 0 1-.222-.038q.549-.648.817-1.433a5 5 0 0 0 .268-1.638q0-.852-.268-1.636a4.5 4.5 0 0 0-.817-1.441q.115-.03.222-.039a3 3 0 0 1 .238-.007q1.295 0 2.21.915t.915 2.21M4 20h10.27v-.35a.85.85 0 0 0-.133-.464q-.13-.207-.437-.365a9.8 9.8 0 0 0-2.162-.82q-1.127-.28-2.423-.28t-2.412.28a9.6 9.6 0 0 0-2.143.82 1.14 1.14 0 0 0-.428.357.84.84 0 0 0-.132.472zm5.173-6.779q.673 0 1.15-.471a1.55 1.55 0 0 0 .475-1.144q0-.673-.474-1.15a1.56 1.56 0 0 0-1.15-.475q-.675 0-1.145.474-.471.474-.471 1.15 0 .674.47 1.145.472.471 1.145.471m9.067-3.202q0-1.775-1.242-3.017T13.981 5.76q1.775 0 3.017-1.243Q18.24 3.275 18.24 1.5q0 1.775 1.243 3.017Q20.725 5.76 22.5 5.76q-1.775 0-3.017 1.242-1.243 1.242-1.243 3.017"/></svg>