<svg xmlns="http://www.w3.org/2000/svg" width="24" height="24" viewBox="0 0 24 24" fill='currentColor'><path d="m4.27 13.736 2.13-2.13-2.13-2.131-2.131 2.13zm13.346-.41 2.134-3.422 2.144 3.423zm-5.612-.826a2.5 2.5 0 0 1-1.84-.757 2.5 2.5 0 0 1-.76-1.84q0-1.102.757-1.849A2.52 2.52 0 0 1 12 7.308q1.103 0 1.85.745.746.746.746 1.847 0 1.08-.745 1.84t-1.848.76M12 8.808q-.454 0-.775.315a1.05 1.05 0 0 0-.321.78q0 .455.321.776.321.32.78.32t.775-.32a1.07 1.07 0 0 0 .316-.78q0-.459-.315-.775T12 8.808M.5 17.788V16.57q0-1.013 1.046-1.647t2.714-.634q.306 0 .586.018t.537.067a3.64 3.64 0 0 0-.575 2.005v1.41zm6 0v-1.375q0-1.432 1.525-2.298 1.524-.865 3.978-.865 2.476 0 3.986.865t1.511 2.298v1.375zm13.25-3.5q1.687 0 2.719.634 1.03.633 1.031 1.647v1.22h-4.308v-1.411q0-.564-.133-1.064a3.6 3.6 0 0 0-.401-.941 4 4 0 0 1 .53-.067 9 9 0 0 1 .562-.018m-7.751.462q-1.56 0-2.679.413-1.12.414-1.243 1.02v.105h7.861v-.105q-.138-.606-1.246-1.02-1.107-.413-2.693-.413"/></svg>