<svg xmlns="http://www.w3.org/2000/svg" width="24" height="24" viewBox="0 0 24 24" fill='currentColor'><path d="M8.173 15.712q.73 0 1.24-.511.51-.51.51-1.24 0-.727-.51-1.239-.51-.51-1.24-.51-.729 0-1.24.51-.51.51-.51 1.24 0 .728.51 1.239.511.51 1.24.51m7.654 0q.729 0 1.24-.511.51-.51.51-1.24 0-.727-.51-1.239-.511-.51-1.24-.51-.73 0-1.24.51t-.51 1.24q0 .728.51 1.239.51.51 1.24.51M12 9.808q.729 0 1.24-.511.51-.51.51-1.24 0-.728-.51-1.239-.511-.51-1.24-.51t-1.24.51-.51 1.24.51 1.239 1.24.51m.002 11.692a9.3 9.3 0 0 1-3.706-.748 9.6 9.6 0 0 1-3.016-2.03 9.6 9.6 0 0 1-2.032-3.016 9.25 9.25 0 0 1-.748-3.704q0-1.972.748-3.706a9.6 9.6 0 0 1 2.03-3.016 9.6 9.6 0 0 1 3.016-2.032 9.25 9.25 0 0 1 3.704-.748q1.972 0 3.706.748a9.6 9.6 0 0 1 3.017 2.03 9.6 9.6 0 0 1 2.03 3.016 9.25 9.25 0 0 1 .749 3.704q0 1.972-.748 3.706a9.6 9.6 0 0 1-2.03 3.017 9.6 9.6 0 0 1-3.016 2.03 9.25 9.25 0 0 1-3.704.749M12 20q3.35 0 5.675-2.325T20 12t-2.325-5.675T12 4 6.325 6.325 4 12t2.325 5.675T12 20"/></svg>