<svg xmlns="http://www.w3.org/2000/svg" width="24" height="24" viewBox="0 0 24 24" fill='currentColor'><path d="m9.408 20.921-.523-1.037a3 3 0 0 1-.306-.817q-.09-.42-.09-.867 0-.547.152-1.075.153-.529.484-.99.21-.304.324-.655t.114-.73q0-.42-.154-.798a25 25 0 0 0-.324-.758 7 7 0 0 1-.389-.927 3 3 0 0 1-.158-.967V7.885q0-.712-.466-1.231a1.5 1.5 0 0 0-1.159-.52q-.583 0-1.03.356a1.47 1.47 0 0 0-.554.893 2.72 2.72 0 0 1 1.39.977q.55.719.55 1.64a2.65 2.65 0 0 1-.803 1.947 2.65 2.65 0 0 1-1.947.803 2.65 2.65 0 0 1-1.947-.803A2.65 2.65 0 0 1 1.77 10q0-.961.585-1.693t1.475-.955A2.87 2.87 0 0 1 4.831 5.41a3.06 3.06 0 0 1 2.082-.775q.136 0 .269.012.132.013.268.044a7.7 7.7 0 0 1 2.187-.816q1.155-.24 2.363-.24 1.202 0 2.357.24t2.187.816q.128-.031.264-.044.135-.012.263-.012 1.212 0 2.098.775a2.87 2.87 0 0 1 1.002 1.942 2.7 2.7 0 0 1 1.47.96 2.63 2.63 0 0 1 .58 1.688q0 1.145-.803 1.947a2.65 2.65 0 0 1-1.947.803 2.65 2.65 0 0 1-1.947-.803A2.65 2.65 0 0 1 16.721 10q0-.922.55-1.645a2.65 2.65 0 0 1 1.4-.972 1.53 1.53 0 0 0-.558-.893 1.62 1.62 0 0 0-1.042-.355q-.693 0-1.15.519a1.8 1.8 0 0 0-.46 1.23V11.3q0 .495-.165.967a10 10 0 0 1-.38.927 10 10 0 0 0-.332.758 2.2 2.2 0 0 0-.147.798q0 .378.109.735.11.355.338.66.306.47.467.99.16.518.16 1.065 0 .446-.102.867-.104.421-.294.817l-.523 1.047-1.357-.679.523-1.037q.134-.228.194-.482.06-.255.06-.533a1.9 1.9 0 0 0-.11-.647 3.5 3.5 0 0 0-.279-.597 3.5 3.5 0 0 1-.513-1.033 3.9 3.9 0 0 1-.173-1.148q0-.546.162-1.034a6.5 6.5 0 0 1 .409-.96q.169-.37.311-.736t.142-.745V7.885a3.2 3.2 0 0 1 .255-1.272q.255-.596.711-1.007a7 7 0 0 0-1.434-.365q-.735-.106-1.493-.106t-1.498.106-1.429.365q.456.411.71 1.007.256.594.256 1.272V11.3q0 .389.134.762.134.375.32.729.23.47.4.959t.17 1.025q0 .587-.173 1.14-.172.554-.504 1.04-.194.29-.295.598a2.16 2.16 0 0 0-.037 1.18q.063.254.188.482l.514 1.037zM4.519 11.25q.522 0 .886-.364T5.769 10t-.364-.885a1.2 1.2 0 0 0-.886-.365q-.52 0-.885.365a1.2 1.2 0 0 0-.365.885q0 .522.365.886t.885.364m14.952 0q.522 0 .886-.364T20.72 10t-.364-.885a1.2 1.2 0 0 0-.886-.365q-.521 0-.886.365a1.2 1.2 0 0 0-.364.885q0 .522.364.886.365.364.886.364"/></svg>