<svg xmlns="http://www.w3.org/2000/svg" width="24" height="24" viewBox="0 0 24 24" fill='currentColor'><path d="m20.5 17.679-1.5-1.5V4.499h1.5zm-7.664-7.664-1.5-1.5V1.78h1.5zm3.837 1.843h-1.5v-9.08h1.5zm1.435 8.373L9 11.123v6.136l-4.046-2.08 4.742 5.015q.229.224.482.39.254.165.57.166h6.002a2 2 0 0 0 1.358-.52m-7.36 2.019q-.59 0-1.121-.254a3.2 3.2 0 0 1-.936-.679L2.08 14.4l1.773-1.466L7.5 14.836V9.623l-6.22-6.22 1.07-1.068 19.511 19.511-1.069 1.07-1.61-1.61a4 4 0 0 1-1.104.688 3.4 3.4 0 0 1-1.328.256zM21.702 5.333q0-1.19-.822-2.01-.822-.823-2.01-.823V1.308q1.672 0 2.848 1.176t1.176 2.849zM6.029 22.384q-1.835 0-3.124-1.29-1.29-1.292-1.29-3.123h1.193q0 1.335.943 2.278a3.1 3.1 0 0 0 2.278.943zM9 6.18l-1.5-1.5v-.9H9z"/></svg>