<svg xmlns="http://www.w3.org/2000/svg" width="24" height="24" viewBox="0 0 24 24" fill='currentColor'><g clip-path="url(#a)"><path d="M11.821 22.356 2.63 13.164 9.602 6.19l3.457 3.457.96-.96-5.561-5.561-6.681 6.68 1.11 1.11-1.07 1.07L-.33 9.839l8.82-8.82 3.157 3.158 3.167-3.167 9.177 9.177zm.006-2.108 10.03-10.061-7.059-7.06-2.088 2.089 3.457 3.457-3.108 3.108-3.467-3.467-4.85 4.85.985.984L9.5 10.375l1.054 1.054-3.773 3.773.969.97 3.889-3.89 1.069 1.07-3.889 3.888.97.97 3.888-3.889 1.054 1.054-3.889 3.889z"/></g><defs><clipPath id="a"><path d="M0 0h24v24H0z"/></clipPath></defs></svg>