<svg xmlns="http://www.w3.org/2000/svg" width="24" height="24" viewBox="0 0 24 24" fill='currentColor'><path d="M12 12q1.65 0 2.825-1.175T16 8t-1.175-2.825T12 4 9.175 5.175 8 8t1.175 2.825T12 12m.002 1.5q-2.29 0-3.896-1.604T6.5 8.002t1.604-3.896T11.998 2.5t3.896 1.604T17.5 7.998t-1.604 3.896-3.893 1.606m8.652 8.346v-2h-2v-1.192h2v-2h1.192v2h2v1.192h-2v2zm-7.5 0v-5.692h4.692v3.611h-.977l.9 2.081h-1.211l-.9-2h-1.312v2zm1.192-3.192h2.308v-1.308h-2.308zM.154 21.846v-5.692h1.192v2h2.308v-2h1.192v5.692H3.654v-2.5H1.346v2.5zm6.5 0v-5.692h4.096l.596.596v4.5l-.596.596zm1.192-1.192h2.308v-3.308H7.846z"/></svg>