<svg xmlns="http://www.w3.org/2000/svg" width="24" height="24" viewBox="0 0 24 24" fill='currentColor'><path d="M12 4q-1.125 0-2.145.28t-1.92.805L6.85 4a9.4 9.4 0 0 1 2.402-1.12Q10.507 2.5 12 2.5q1.972 0 3.705.748a9.6 9.6 0 0 1 3.016 2.03 9.6 9.6 0 0 1 2.03 3.017A9.25 9.25 0 0 1 21.5 12q0 1.406-.372 2.7a8.8 8.8 0 0 1-1.143 2.45L18.9 16.066a8.2 8.2 0 0 0 .813-1.92A8 8 0 0 0 20 12q0-3.35-2.325-5.675T12 4m-.154 5.012-1.192-1.193V6.154h1.192zm1.308-2.858h3.596l.596.596v4.5l-.596.596h-2.07l-1.526-1.527zm1.192 4.5h1.808V7.346h-1.808zm-6 5h2.308v-1.308H8.346zm0 3.192H7.154v-5.692h4.096l.596.596v2.42l-.596.595h-.38l.9 2.081h-1.253l-.86-2h-1.31zM7.154 8.208 8.346 9.4v2.446H7.154zm-2.37-2.38 1.045 1.08A8.8 8.8 0 0 0 4.5 9.214Q4 10.488 4 12q0 3.35 2.325 5.675T12 20q1.53 0 2.818-.51a8.9 8.9 0 0 0 2.3-1.319l1.044 1.054a9 9 0 0 1-2.826 1.688A9.5 9.5 0 0 1 12 21.5q-1.972 0-3.705-.748a9.6 9.6 0 0 1-3.016-2.03 9.6 9.6 0 0 1-2.03-3.017A9.25 9.25 0 0 1 2.5 12q0-1.834.62-3.394a9.7 9.7 0 0 1 1.665-2.777M1.047 3.155 2.1 2.1l19.8 19.8-1.054 1.054z"/></svg>