<svg xmlns="http://www.w3.org/2000/svg" width="24" height="24" viewBox="0 0 24 24" fill='currentColor'><path d="M20.654 21.846v-2h-2v-1.192h2v-2h1.192v2h2v1.192h-2v2zm-7.5 0v-5.692h4.692v3.611h-.977l.9 2.081h-1.211l-.9-2h-1.312v2zm1.192-3.192h2.308v-1.308h-2.308zM.154 21.846v-5.692h1.192v2h2.308v-2h1.192v5.692H3.654v-2.5H1.346v2.5zm6.5 0v-5.692h4.096l.596.596v4.5l-.596.596zm1.192-1.192h2.308v-3.308H7.846zm9.179-10.439L15.86 9.05q.06-.274.1-.525Q16 8.275 16 8q0-1.65-1.175-2.825T12 4q-.274 0-.534.037-.26.038-.475.104L9.794 2.944a5 5 0 0 1 1.089-.338Q11.436 2.5 12 2.5q2.292 0 3.896 1.604T17.5 8a5.5 5.5 0 0 1-.475 2.215m-.698 4.22-1.66-1.66q-.565.347-1.252.537-.688.188-1.415.188-2.292 0-3.896-1.604T6.5 8q0-.734.179-1.413.18-.679.546-1.254l-1.679-1.66L6.6 2.6l10.78 10.78zm-2.806-2.806-5.15-5.15q-.18.316-.276.718A3.5 3.5 0 0 0 8 8q0 1.65 1.175 2.825T12 12q.429 0 .813-.09t.708-.281"/></svg>