<svg xmlns="http://www.w3.org/2000/svg" width="24" height="24" viewBox="0 0 24 24" fill='currentColor'><path d="M7.644 17.5a3.54 3.54 0 0 1-2.573-1.055Q4 15.39 4 13.895v-3.873q0-1.138.728-1.996a3.08 3.08 0 0 1 1.853-1.064 25 25 0 0 1 2.71-.365Q10.633 6.49 12 6.49t2.721.102a23 23 0 0 1 2.697.369q1.125.22 1.853 1.07t.728 1.99v3.873a3.44 3.44 0 0 1-1.073 2.555 3.56 3.56 0 0 1-2.58 1.05h-.972a4 4 0 0 1-.586-.042 2.7 2.7 0 0 1-.573-.148l-1.543-.512a1.88 1.88 0 0 0-1.346 0l-1.552.512q-.28.105-.574.148t-.585.042zm0-1.5h.972q.185 0 .356-.03a3 3 0 0 0 .341-.08q.678-.215 1.328-.446a4 4 0 0 1 1.36-.23q.71 0 1.369.221.659.222 1.317.456.168.05.338.08.168.03.35.03h.971q.884 0 1.518-.62.636-.619.636-1.486v-3.873q0-.601-.389-1.039a1.76 1.76 0 0 0-.97-.562 18.5 18.5 0 0 0-2.549-.347A40 40 0 0 0 12 7.991q-1.316 0-2.582.095a24 24 0 0 0-2.558.335 1.65 1.65 0 0 0-.972.556 1.54 1.54 0 0 0-.388 1.044v3.874q0 .868.63 1.487.63.618 1.514.618M1.5 13.895v-3.827h1.183v3.827zm19.817 0v-3.827H22.5v3.827z"/></svg>