<svg xmlns="http://www.w3.org/2000/svg" width="24" height="24" viewBox="0 0 24 24" fill='currentColor'><path d="m12 16.958-5.15 5.15-4.967-4.968 5.16-5.16-5.141-5.14L6.85 1.892l5.14 5.14 5.14-5.14 4.968 4.967-5.15 5.15 5.15 5.15-4.948 4.949zm.002-5.862a.87.87 0 0 0 .643-.26.88.88 0 0 0 .259-.645.87.87 0 0 0-.26-.644.88.88 0 0 0-.646-.259.87.87 0 0 0-.643.26.88.88 0 0 0-.259.646.87.87 0 0 0 .26.643.88.88 0 0 0 .646.26m-3.916-.16 2.85-2.85L6.85 4 4 6.85zm2.108 1.968a.87.87 0 0 0 .643-.26.88.88 0 0 0 .26-.646.87.87 0 0 0-.261-.643.88.88 0 0 0-.645-.259.87.87 0 0 0-.644.26.88.88 0 0 0-.258.646.87.87 0 0 0 .26.643.88.88 0 0 0 .645.259m1.808 1.807a.87.87 0 0 0 .643-.26.88.88 0 0 0 .259-.645.87.87 0 0 0-.26-.644.88.88 0 0 0-.646-.258.87.87 0 0 0-.643.26.88.88 0 0 0-.259.645.87.87 0 0 0 .26.644.88.88 0 0 0 .646.258m1.807-1.807a.87.87 0 0 0 .644-.26.88.88 0 0 0 .258-.646.87.87 0 0 0-.26-.643.88.88 0 0 0-.645-.259.87.87 0 0 0-.643.26.88.88 0 0 0-.26.646.87.87 0 0 0 .261.643.88.88 0 0 0 .645.259m-.755 3L17.15 20 20 17.15l-4.096-4.096z"/></svg>