<svg xmlns="http://www.w3.org/2000/svg" width="24" height="24" viewBox="0 0 24 24" fill='currentColor'><path d="m11 20.327-2.165-1.946a112 112 0 0 1-3.444-3.246q-1.402-1.39-2.269-2.54-.866-1.149-1.244-2.16A5.9 5.9 0 0 1 1.5 8.35q0-2.129 1.436-3.557T6.5 3.366q1.31 0 2.475.612Q10.14 4.591 11 5.735q.86-1.144 2.025-1.757a5.25 5.25 0 0 1 2.475-.612q1.881 0 3.174 1.108a5.07 5.07 0 0 1 1.678 2.776h-1.577q-.345-1.115-1.258-1.75a3.46 3.46 0 0 0-2.017-.635q-1.246 0-2.205.688-.958.687-1.806 1.947h-.978Q9.67 6.23 8.678 5.548A3.76 3.76 0 0 0 6.5 4.865q-1.444 0-2.472.993Q3 6.85 3 8.35q0 .835.35 1.694.35.86 1.25 1.982t2.45 2.629T11 18.3q.708-.633 1.515-1.344a47 47 0 0 0 1.362-1.24l.167.167.367.367.368.367.167.168q-.57.528-1.357 1.223-.787.694-1.485 1.327zm6.865-3.577v-3h-3v-1.5h3v-3h1.5v3h3v1.5h-3v3z"/></svg>