<svg xmlns="http://www.w3.org/2000/svg" width="24" height="24" viewBox="0 0 24 24" fill='currentColor'><path d="M17.048 21.75q-1.357 0-2.39-.84-1.03-.84-1.487-2.164-.386-1.105-.936-1.792t-1.675-1.516q-1.608-1.2-2.454-2.91T7.26 9q0-2.835 1.957-4.792Q11.175 2.25 14.01 2.25q2.778 0 4.716 1.876T20.74 8.75h-1.5q-.076-2.125-1.576-3.563-1.5-1.437-3.655-1.437-2.21 0-3.73 1.52Q8.759 6.788 8.759 9q0 1.533.725 2.938a6.7 6.7 0 0 0 2.056 2.373q1.124.811 1.836 1.648t1.138 2.06q.323.904.962 1.567.639.664 1.572.664.925 0 1.612-.665.686-.663.686-1.604 0-.834-.245-1.495a5.5 5.5 0 0 0-.645-1.234l-1.604 1.273-2.433-4.304q-1.458.192-2.563-.768T10.75 9q0-1.354.948-2.302.949-.948 2.302-.948 1.548 0 2.514 1.191.964 1.192.667 2.68l4 3.47-1.52 1.209q.558.79.872 1.7t.313 1.98q0 1.564-1.117 2.667-1.118 1.103-2.681 1.103m-10.82-5.366a10.7 10.7 0 0 1-2.206-3.428A10.6 10.6 0 0 1 3.26 9q0-2.075.767-3.996a10.8 10.8 0 0 1 2.202-3.439L7.314 2.6a9.2 9.2 0 0 0-1.9 2.954A9.2 9.2 0 0 0 4.76 9q0 1.77.658 3.404a9.4 9.4 0 0 0 1.896 2.946zm11.07-2.11 1.521-1.224-2.307-2.016q-.139.197-.308.351a2.6 2.6 0 0 1-.366.278zM14 10.75q.73 0 1.24-.51T15.75 9t-.51-1.24T14 7.25t-1.24.51T12.25 9t.51 1.24 1.24.51"/></svg>