<svg xmlns="http://www.w3.org/2000/svg" width="24" height="24" viewBox="0 0 24 24" fill='currentColor'><path d="M12 17.635q-2.355 0-3.995-1.64T6.365 12t1.64-4T12 6.356 16 8t1.644 4T16 15.995t-4 1.64m-.596-1.547v-2.663L9.529 15.3q.417.312.88.517.464.206.995.271m1.192 0a3.8 3.8 0 0 0 .982-.266q.476-.201.893-.512l-1.875-1.876zm2.714-1.617a4.3 4.3 0 0 0 .512-.893 3.8 3.8 0 0 0 .267-.982h-2.654zm-1.876-3.067h2.655a3.8 3.8 0 0 0-.267-.982 4.3 4.3 0 0 0-.512-.893zm-.838-.829L14.471 8.7a4.6 4.6 0 0 0-.88-.517 3.5 3.5 0 0 0-.995-.271zM12 12.837a.8.8 0 0 0 .597-.24.8.8 0 0 0 .24-.597.8.8 0 0 0-.24-.597.8.8 0 0 0-.597-.24.8.8 0 0 0-.597.24.8.8 0 0 0-.24.597q0 .358.24.597.24.24.597.24m-.596-2.271V7.91a3.8 3.8 0 0 0-.982.267 4.3 4.3 0 0 0-.893.512zm-3.492.838h2.654L8.69 9.529a4.3 4.3 0 0 0-.512.893 3.8 3.8 0 0 0-.267.982m.779 3.067 1.874-1.875H7.903q.075.506.28.982.207.476.508.893M3.5 20.5v-17h17v17zM5 19h14V5H5z"/></svg>