<svg xmlns="http://www.w3.org/2000/svg" width="24" height="24" viewBox="0 0 24 24" fill='currentColor'><path d="M12.02 17.567a1 1 0 0 0 .723-.295.98.98 0 0 0 .296-.724 1 1 0 0 0-.296-.724 1 1 0 0 0-.724-.295 1 1 0 0 0-.724.295 1 1 0 0 0-.295.724q0 .429.295.724a1 1 0 0 0 .724.295m-.708-3.58h1.407q.02-.786.224-1.196t.826-1.032q.798-.798 1.142-1.356.342-.56.343-1.27 0-1.248-.852-2.013-.853-.764-2.194-.764-1.221 0-2.088.622a3.4 3.4 0 0 0-1.231 1.62l1.284.515q.213-.636.71-1.039.495-.402 1.244-.403.81 0 1.264.44.455.439.455 1.068 0 .463-.275.91-.275.446-.848.963-.815.735-1.113 1.364-.299.628-.298 1.57M3.5 20.5v-17h17v17zM5 19h14V5H5z"/></svg>