<svg xmlns="http://www.w3.org/2000/svg" width="24" height="24" viewBox="0 0 24 24" fill='currentColor'><path d="M13 22.5q-1.614 0-2.557-1.376T9.5 18t.943-3.124T13 13.5t2.557 1.376T16.5 18t-.943 3.124T13 22.5m-8.473-.508-1.42-.456q.738-2.32 1.06-4.715a36 36 0 0 0 0-9.642 28 28 0 0 0-1.06-4.716l1.42-.455a29.3 29.3 0 0 1 1.12 4.93q.343 2.5.343 5.062t-.343 5.061a29.3 29.3 0 0 1-1.12 4.931m14.936 0a29.3 29.3 0 0 1-1.12-4.93A37 37 0 0 1 18 12q0-2.564.343-5.061a29.3 29.3 0 0 1 1.12-4.931l1.42.455a28 28 0 0 0-1.06 4.716 36 36 0 0 0 0 9.642 28 28 0 0 0 1.06 4.715zM13 21q1 0 1.5-.937T15 18t-.5-2.062T13 15t-1.5.938A4.3 4.3 0 0 0 11 18q0 1.125.5 2.063Q12 21 13 21m-.67-1.315q.178.161.415.156a.62.62 0 0 0 .424-.181 2.15 2.15 0 0 0 .504-.755q.173-.434.173-.905t-.17-.9a2.3 2.3 0 0 0-.492-.76.54.54 0 0 0-.401-.181.6.6 0 0 0-.427.157.55.55 0 0 0-.194.414.62.62 0 0 0 .153.44 1.6 1.6 0 0 1 .208.308q.13.231.13.522t-.13.522a1.6 1.6 0 0 1-.207.309.57.57 0 0 0-.18.44q.008.252.195.413M11 10.5q-1.614 0-2.557-1.376T7.5 6t.943-3.124T11 1.5t2.557 1.376T14.5 6t-.943 3.124Q12.613 10.5 11 10.5M11 9q1 0 1.5-.937T13 6t-.5-2.062Q12 2.999 11 3q-1 0-1.5.938A4.3 4.3 0 0 0 9 6q0 1.125.5 2.063Q10 9 11 9m.644-1.315a.55.55 0 0 0 .194-.415.62.62 0 0 0-.153-.44 1.4 1.4 0 0 1-.247-.385 1.13 1.13 0 0 1 0-.89q.093-.216.246-.386a.6.6 0 0 0 .172-.427.6.6 0 0 0-.187-.426.6.6 0 0 0-.419-.162.57.57 0 0 0-.42.177q-.33.33-.503.764T10.154 6t.165.9.496.76a.58.58 0 0 0 .415.181.58.58 0 0 0 .414-.157"/></svg>