<svg xmlns="http://www.w3.org/2000/svg" width="24" height="24" viewBox="0 0 24 24" fill='currentColor'><path d="m7.115 22.75 3.008-15.348q.121-.61.578-.929t.957-.32q.51 0 .94.222.433.222.698.664l1 1.6q.47.753 1.302 1.399.832.645 1.96.978V9.154h1.192V22.75h-1.192V12.553a7.8 7.8 0 0 1-2.384-.958 8 8 0 0 1-2.01-1.74l-.726 3.636 2.12 2.019v7.24h-1.5v-5.952l-2.543-2.154-1.81 8.106zm.214-9.923-2.61-.488 1.239-6.414 2.625.542zm5.979-7.48q-.762 0-1.304-.543A1.78 1.78 0 0 1 11.46 3.5q0-.761.543-1.304a1.78 1.78 0 0 1 1.304-.542q.761 0 1.303.542.543.543.543 1.304 0 .762-.543 1.304a1.78 1.78 0 0 1-1.303.542"/></svg>