<svg xmlns="http://www.w3.org/2000/svg" width="24" height="24" viewBox="0 0 24 24" fill='currentColor'><path d="m19.23 16.429-1.084-1.095q.41-.735.622-1.58A7.2 7.2 0 0 0 18.981 12q0-2.925-2.038-4.963Q14.906 5 11.981 5q-.876 0-1.703.212A6.7 6.7 0 0 0 8.7 5.84L7.6 4.73a9 9 0 0 1 2.105-.91 8.2 8.2 0 0 1 2.276-.32q1.77 0 3.315.67a8.6 8.6 0 0 1 2.696 1.818 8.6 8.6 0 0 1 1.82 2.697q.669 1.545.669 3.315 0 1.22-.329 2.337a8.8 8.8 0 0 1-.921 2.092m-6.47-6.51-1.5-1.51V7h1.5zm7.386 12.335-3.308-3.308a9 9 0 0 1-2.26 1.14 8 8 0 0 1-2.597.414q-3.249 0-5.662-2.139T3.541 13h1.53q.38 2.59 2.332 4.295Q9.356 19 11.981 19q1.06 0 2.012-.294a6.5 6.5 0 0 0 1.761-.845l-8.631-8.63H3.981V6.088L1.746 3.854 2.8 2.8l18.4 18.4z"/></svg>