<svg xmlns="http://www.w3.org/2000/svg" width="24" height="24" viewBox="0 0 24 24" fill='currentColor'><path d="m9.894 21.75-1.7-3h-3.3L2.79 15l1.7-3-1.7-3 2.105-3.75h3.3l1.7-3h4.212l1.7 3h3.3L21.21 9l-1.7 3 1.7 3-2.105 3.75h-3.3l-1.7 3zm5.912-10.5h2.438L19.488 9l-1.244-2.25h-2.438L14.536 9zm-5 3h2.388l1.27-2.25-1.27-2.25h-2.388L9.536 12zm0-6h2.388l1.294-2.275L13.22 3.75h-2.438L9.51 5.975zm-5.025 3h2.413L9.464 9l-1.27-2.25H5.781L4.51 9zm0 6h2.413L9.464 15l-1.27-2.25H5.756L4.51 15zm5 3h2.438l1.27-2.225-1.295-2.275h-2.388l-1.294 2.275zm5.025-3h2.413L19.49 15l-1.27-2.25h-2.413L14.536 15z"/></svg>