<svg xmlns="http://www.w3.org/2000/svg" width="24" height="24" viewBox="0 0 24 24" fill='currentColor'><path d="M6.015 18a2.46 2.46 0 0 0 1.8-.733q.739-.734.739-1.796 0-.648-.323-1.261a2.24 2.24 0 0 0-.931-.945l-.63-.407V6.654a.65.65 0 0 0-.18-.468A.63.63 0 0 0 6.014 6a.64.64 0 0 0-.654.654v6.204l-.63.407a2.4 2.4 0 0 0-.936.946 2.6 2.6 0 0 0-.318 1.26q0 1.062.74 1.796A2.46 2.46 0 0 0 6.014 18m-.005 1.5q-1.677 0-2.855-1.17t-1.178-2.868q0-1.108.516-1.984a4.1 4.1 0 0 1 1.368-1.409V6.654q0-.904.63-1.53.628-.624 1.524-.624.915 0 1.535.625.62.624.62 1.529v5.415a4.1 4.1 0 0 1 1.363 1.416q.52.882.52 1.986 0 1.674-1.182 2.851T6.011 19.5m7.392-4.596a6.3 6.3 0 0 1-1.883-1.976q-.75-1.218-.75-2.793 0-2.348 1.643-3.991t3.99-1.644q2.349 0 3.992 1.644 1.645 1.643 1.645 3.99 0 1.576-.75 2.794a6.3 6.3 0 0 1-1.883 1.976zm.508-1.5h5.078a4.3 4.3 0 0 0 1.152-1.437q.398-.817.398-1.832 0-1.705-1.215-2.92T16.404 6t-2.92 1.215-1.214 2.92q0 1.025.444 1.842.445.817 1.197 1.427m2.494 6.096q-.562 0-.983-.421a1.35 1.35 0 0 1-.421-.983h2.808q0 .562-.421.983-.422.42-.983.421m-2.712-2.096v-1.5h5.423v1.5z"/></svg>