<svg xmlns="http://www.w3.org/2000/svg" width="24" height="24" viewBox="0 0 24 24" fill='currentColor'><path d="M5.25 17h13.5q.93 0 1.59-.66t.66-1.59v-5.5q0-.93-.66-1.59T18.75 7H5.25q-.93 0-1.59.66T3 9.25v5.5q0 .93.66 1.59t1.59.66m2.25 2.384V18.5H5.25a3.6 3.6 0 0 1-2.652-1.098A3.6 3.6 0 0 1 1.5 14.75v-5.5q0-1.554 1.098-2.652A3.6 3.6 0 0 1 5.25 5.5h13.5q1.554 0 2.652 1.098A3.6 3.6 0 0 1 22.5 9.25v5.5q0 1.554-1.098 2.652A3.6 3.6 0 0 1 18.75 18.5H16.5v.884zm3-6.5a.86.86 0 0 0 .626-.253.85.85 0 0 0 .258-.631.85.85 0 0 0-.258-.626.85.85 0 0 0-.626-.258.85.85 0 0 0-.63.258.86.86 0 0 0-.254.626q0 .377.253.63.255.255.631.254m-3 0a.86.86 0 0 0 .626-.253.85.85 0 0 0 .258-.631.85.85 0 0 0-.258-.626.85.85 0 0 0-.626-.258.85.85 0 0 0-.63.258.86.86 0 0 0-.255.626q0 .377.254.63.255.255.631.254m6 0a.86.86 0 0 0 .626-.253.85.85 0 0 0 .258-.631.85.85 0 0 0-.258-.626.85.85 0 0 0-.626-.258.85.85 0 0 0-.63.258.86.86 0 0 0-.254.626q0 .377.253.63.255.255.631.254m3 0a.86.86 0 0 0 .626-.253.85.85 0 0 0 .258-.631.85.85 0 0 0-.258-.626.85.85 0 0 0-.626-.258.85.85 0 0 0-.63.258.86.86 0 0 0-.254.626q0 .377.253.63.255.255.631.254"/></svg>