<svg xmlns="http://www.w3.org/2000/svg" width="24" height="24" viewBox="0 0 24 24" fill='currentColor'><path d="M9 18.5q-2.698 0-4.599-1.901-1.9-1.9-1.901-4.6 0-.885.438-2.001.439-1.117 1.532-2.124t2.922-1.69 4.609-.684 4.609.683q1.828.684 2.92 1.69 1.094 1.008 1.531 2.125.44 1.116.439 2 0 2.7-1.901 4.601-1.9 1.9-4.599 1.901zm.15-1.5h5.7q1.652 0 3.016-.929 1.365-.93 1.869-2.571H4.265q.505 1.643 1.869 2.571 1.365.93 3.016.929M4 12h16q0-.75-.4-1.625T18.262 8.75 15.788 7.5 12 7t-3.775.5-2.462 1.25-1.35 1.625T4 12"/></svg>