<svg xmlns="http://www.w3.org/2000/svg" width="24" height="24" viewBox="0 0 24 24" fill='currentColor'><path d="M4.5 19.5v-9.461l-2.098 1.576-.887-1.18L12 2.5l10.51 7.92-.902 1.195L12 4.375 6 8.908V18h3.836v1.5zm13 2.567q-1.089.755-2.26.68t-2.042-.945-.945-2.047q-.075-1.176.68-2.255-.755-1.089-.68-2.26t.945-2.042 2.047-.945q1.176-.075 2.255.68 1.089-.755 2.26-.68t2.042.945q.87.87.945 2.047.075 1.176-.68 2.255.755 1.089.68 2.26t-.945 2.042q-.87.87-2.047.945-1.176.075-2.255-.68m0-1.834 1.006.694q.527.373 1.148.318a1.7 1.7 0 0 0 1.079-.512 1.72 1.72 0 0 0 .517-1.08 1.66 1.66 0 0 0-.314-1.147l-.703-1.006.694-1.006q.373-.527.318-1.148a1.7 1.7 0 0 0-.512-1.079 1.72 1.72 0 0 0-1.08-.517 1.66 1.66 0 0 0-1.147.313l-1.006.704-1.006-.694a1.68 1.68 0 0 0-1.148-.318 1.7 1.7 0 0 0-1.079.512 1.72 1.72 0 0 0-.517 1.08q-.06.62.313 1.147l.704 1.006-.694 1.006a1.68 1.68 0 0 0-.318 1.148q.054.621.512 1.079t1.08.517 1.147-.314zm0-1.714a1 1 0 0 0 .724-.295 1 1 0 0 0 .295-.724 1 1 0 0 0-.295-.724 1 1 0 0 0-.724-.295 1 1 0 0 0-.724.295 1 1 0 0 0-.295.724q0 .429.295.724a1 1 0 0 0 .724.295"/></svg>