<svg xmlns="http://www.w3.org/2000/svg" width="24" height="24" viewBox="0 0 24 24" fill='currentColor'><path d="M8.595 11.173a2.54 2.54 0 0 0 1.853-.753 2.5 2.5 0 0 0 .763-1.843V6H6v2.581q0 1.085.753 1.838.752.754 1.842.754M6 18h5.211v-2.581q0-1.085-.763-1.838a2.54 2.54 0 0 0-1.853-.754q-1.09 0-1.843.753T6 15.423zm-3 1.5V18h1.5v-2.577q0-1.117.575-2.037A3.7 3.7 0 0 1 6.604 12a3.63 3.63 0 0 1-1.534-1.391q-.57-.924-.57-2.051V6H3V4.5h11.192V6h-1.48v2.558q0 1.136-.58 2.056A3.7 3.7 0 0 1 10.589 12a3.7 3.7 0 0 1 1.543 1.382q.58.915.58 2.041V18h1.48v1.5zm16.442 0-3.096-3.096 1.07-1.054 1.276 1.277V4.5h1.5v12.142l1.293-1.292 1.053 1.054z"/></svg>