<svg xmlns="http://www.w3.org/2000/svg" width="24" height="24" viewBox="0 0 24 24" fill='currentColor'><path d="M20.792 22.916 19.377 21.5H4.5V20h1.904v-3q0-1.717.905-3.05t2.276-1.93v-.048q-.868-.385-1.695-1.191a4.5 4.5 0 0 1-1.176-1.944L1.28 3.404l1.07-1.069 19.511 19.512zm-6.108-11.093-1.095-1.08a4.7 4.7 0 0 0 1.787-1.538q.72-1.014.72-2.205V4H7.904v1.058l-.962-.962V4h-.096l-1.5-1.5H19.5V4h-1.904v3q0 1.476-.823 2.764a6.4 6.4 0 0 1-2.088 2.06M7.905 20h8.192v-1.78l-5.169-5.16q-1.24.34-2.132 1.393-.891 1.053-.891 2.547zm9.692 0h.673l-.673-.788z"/></svg>