<svg xmlns="http://www.w3.org/2000/svg" width="24" height="24" viewBox="0 0 24 24" fill='currentColor'><path d="M9.05 21.5q-1.064 0-1.802-.735a2.48 2.48 0 0 1-.544-2.757q.194-.454.552-.812l2.269-2.229v-4.063a1.2 1.2 0 0 0-.353-.796 5.3 5.3 0 0 0-.724-.608Q7.4 8.707 6.95 7.909a3.5 3.5 0 0 1-.45-1.745q0-1.545 1.12-2.604t2.736-1.06a3.4 3.4 0 0 1 1.788.49q.257.116.447.221.188.106.384.106.462 0 .952-.388.314-.189.623-.309.31-.12.656-.12.989 0 1.641.684.653.683.653 1.672 0 .498-.204.99a2.8 2.8 0 0 1-.602.898l-2.169 2.229v5.97l2.244 2.253a2.5 2.5 0 0 1 .74 1.779q0 1.063-.723 1.79-.723.725-1.786.725-.504 0-.958-.186a2.5 2.5 0 0 1-.811-.544 1.7 1.7 0 0 0-.551-.369 1.7 1.7 0 0 0-.655-.126q-.346 0-.655.126a1.7 1.7 0 0 0-.55.369 2.5 2.5 0 0 1-.812.548 2.4 2.4 0 0 1-.958.192M9.01 20a1 1 0 0 0 .387-.08q.187-.08.338-.22.44-.45 1.02-.7.579-.25 1.23-.25.64 0 1.22.25t1.03.7q.14.14.332.22a1.01 1.01 0 0 0 1.125-.233q.308-.312.308-.737 0-.2-.088-.38a1.2 1.2 0 0 0-.228-.32l-2.282-2.258a1.25 1.25 0 0 1-.296-.439 1.4 1.4 0 0 1-.106-.53V9.056q0-.358.126-.67a1.6 1.6 0 0 1 .363-.55l2.161-2.161q.175-.176.262-.375.088-.2.088-.434a.87.87 0 0 0-.252-.633.84.84 0 0 0-.627-.258q-.165 0-.323.03a.66.66 0 0 0-.298.145l-.925.63q-.124.075-.262.133a.8.8 0 0 1-.304.058.9.9 0 0 1-.396-.093 2.4 2.4 0 0 1-.372-.218 3 3 0 0 0-.884-.482A3 3 0 0 0 10.365 4q-.976 0-1.67.629Q8 5.258 8 6.164q0 .694.356 1.132t.917.956l.433.346q.124-.486.375-1.036a3 3 0 0 1 .63-.92q.127-.11.262-.17a.7.7 0 0 1 .277-.059.75.75 0 0 1 .534.203Q12 6.82 12 7.14a.8.8 0 0 1-.068.316.7.7 0 0 1-.205.276l-.364.573Q11 8.877 11 10.164v4.828q0 .272-.106.53-.105.258-.296.44L8.284 18.25a.8.8 0 0 0-.23.313 1.02 1.02 0 0 0 .225 1.125.98.98 0 0 0 .73.312"/></svg>