<svg xmlns="http://www.w3.org/2000/svg" width="24" height="24" viewBox="0 0 24 24" fill='currentColor'><path d="M14.307 17.558q.52 0 .885-.365.366-.363.366-.884t-.364-.886a1.2 1.2 0 0 0-.885-.365q-.52 0-.886.364a1.2 1.2 0 0 0-.365.884q0 .521.364.886.365.366.884.366m-4.857.036 6.144-6.144-1.044-1.054-6.154 6.154zm.241-4.652q.52 0 .886-.364.365-.364.365-.885 0-.52-.364-.885a1.2 1.2 0 0 0-.884-.366q-.522 0-.886.364a1.2 1.2 0 0 0-.366.885q0 .52.364.886.364.365.885.365m2.307 8.558q-3.21 0-5.355-2.207Q4.5 17.086 4.5 13.8q0-2.328 1.862-5.101Q8.226 5.924 12 2.654q3.776 3.27 5.637 6.045 1.863 2.775 1.863 5.1 0 3.288-2.145 5.494T11.998 21.5M12 20q2.6 0 4.3-1.763T18 13.8q0-1.825-1.512-4.125Q14.975 7.374 12 4.65 9.024 7.374 7.513 9.675 6 11.975 6 13.8q0 2.675 1.7 4.437T12 20"/></svg>