<svg xmlns="http://www.w3.org/2000/svg" width="24" height="24" viewBox="0 0 24 24" fill='currentColor'><path d="M12 17.548q2.317 0 3.933-1.615T17.548 12t-1.615-3.933T12 6.452 8.067 8.067 6.452 12t1.615 3.933T12 17.548m0-1.49a3.8 3.8 0 0 1-1.491-.296 4.5 4.5 0 0 1-1.288-.82h5.558a4.5 4.5 0 0 1-1.288.82q-.709.296-1.491.296m-3.488-2a4.4 4.4 0 0 1-.53-1.616h8.035a4.1 4.1 0 0 1-.538 1.616zm-.53-2.5q.051-.429.186-.834t.353-.782h6.967a4.4 4.4 0 0 1 .53 1.616zm1.24-2.5a4.5 4.5 0 0 1 1.287-.82q.709-.296 1.491-.296t1.491.297q.71.295 1.288.819zM3.5 20.5v-17h17v17zM5 19h14V5H5z"/></svg>