<svg xmlns="http://www.w3.org/2000/svg" width="24" height="24" viewBox="0 0 24 24" fill='currentColor'><path d="m12.05 21.923-4.412-8.52q-1.582.297-2.86-.693Q3.5 11.723 3.5 10q0-1.121.67-2.055.67-.933 1.872-1.33.382-2.303 2.08-3.71Q9.816 1.502 12 1.5q2.183 0 3.879 1.406t2.079 3.71q1.2.396 1.872 1.33.67.932.67 2.054 0 1.73-1.272 2.701-1.272.97-2.797.703zM7 12q.375 0 .737-.125.363-.125.663-.425l.55-.55.65.4q.526.35 1.138.525T12 12t1.262-.175A4 4 0 0 0 14.4 11.3l.65-.4.55.55q.3.3.662.425T17 12q.824 0 1.413-.588Q19 10.826 19 10q0-.75-.475-1.312A1.98 1.98 0 0 0 17.3 8l-.75-.1-.05-.8q-.124-1.725-1.425-2.912Q13.775 3 12 3q-1.774 0-3.075 1.188Q7.625 5.375 7.5 7.1l-.05.8-.75.15q-.75.15-1.225.675T5 10q0 .825.588 1.412Q6.175 12 7 12m5.05 6.65L15 12.9l-.134-.116q-.687.35-1.42.532A6 6 0 0 1 12 13.5q-.636 0-1.358-.17a6 6 0 0 1-1.438-.546l-.135.116z"/></svg>