<svg xmlns="http://www.w3.org/2000/svg" width="24" height="24" viewBox="0 0 24 24" fill='currentColor'><path d="M15.924 17.327q.585 0 .994-.41t.409-.995-.41-.994a1.36 1.36 0 0 0-.995-.409q-.585 0-.994.41a1.36 1.36 0 0 0-.409.995q0 .585.41.994t.995.409m-3.923-3.923q.585 0 .994-.41t.409-.995-.41-.994a1.36 1.36 0 0 0-.995-.409q-.586 0-.994.41a1.36 1.36 0 0 0-.409.995q0 .585.41.994t.995.409M8.078 9.48q.585 0 .994-.41t.409-.995-.41-.994a1.36 1.36 0 0 0-.995-.409q-.585 0-.994.41a1.36 1.36 0 0 0-.409.995q0 .585.41.994t.995.409M3.5 20.5v-17h17v17zM5 19h14V5H5z"/></svg>