<svg xmlns="http://www.w3.org/2000/svg" width="24" height="24" viewBox="0 0 24 24" fill='currentColor'><path d="M16.404 19.875h.884v-3.634h-.884zm2.308 0h.884v-3.634h-.884zM6.385 8.865h11.23v-1.5H6.385zM18 22.558q-1.873 0-3.187-1.314-1.313-1.313-1.313-3.186t1.313-3.187T18 13.558t3.186 1.313 1.314 3.187-1.314 3.186Q19.874 22.558 18 22.558M3.5 21.384V3.5h17v8.117a5.5 5.5 0 0 0-1.5-.427V5H5v14.05h6.21q.096.592.281 1.139.187.545.495 1.036l-.092.092-1.317-1.163-1.423 1.23-1.423-1.23-1.423 1.23-1.423-1.23zm2.885-4.75h4.892q.065-.4.182-.77t.283-.73H6.385zm0-3.884h7.206a5.9 5.9 0 0 1 1.63-1.054 5.4 5.4 0 0 1 1.942-.446H6.385z"/></svg>