<svg xmlns="http://www.w3.org/2000/svg" width="24" height="24" viewBox="0 0 24 24" fill='currentColor'><path d="M3.5 20.5v-17h17v7.246a4.7 4.7 0 0 0-.73-.305 6 6 0 0 0-.77-.193V5H5v9.308h4.2q.235.695.76 1.19.524.494 1.204.694a10 10 0 0 0-.024.767q.004.384.07.768a4.3 4.3 0 0 1-1.635-.653 4.7 4.7 0 0 1-1.286-1.266H5V19h6.68q.167.416.357.785.191.37.46.715zM7.25 8.789h9.5v-1.5h-9.5zm0 3.288h5.57a5.6 5.6 0 0 1 1.084-.898q.592-.374 1.269-.602H7.25zm7.02 7.423v-.373q0-.513.271-.932.273-.418.761-.64a7 7 0 0 1 1.262-.415q.628-.14 1.367-.14.676 0 1.324.14.646.14 1.203.416.487.22.765.64.277.417.277.931v.373zm3.614-3.711q-.728 0-1.239-.511-.51-.51-.51-1.24 0-.728.51-1.239.51-.51 1.24-.51.728 0 1.239.51.51.51.51 1.24 0 .727-.51 1.239-.51.51-1.24.51"/></svg>