<svg xmlns="http://www.w3.org/2000/svg" width="24" height="24" viewBox="0 0 24 24" fill='currentColor'><path d="M5 18h6.69q.166.416.357.785t.459.715H3.5v-17h17v7.246a4.7 4.7 0 0 0-.73-.305 6 6 0 0 0-.77-.193V4H5v9.308h4.2q.225.683.76 1.184a3 3 0 0 0 1.213.7 10 10 0 0 0-.023.768q.004.382.07.767a4.3 4.3 0 0 1-1.645-.653 4.7 4.7 0 0 1-1.286-1.266H5zm11.91 2.115-.204-1.182a4 4 0 0 1-.745-.296 3 3 0 0 1-.634-.468l-1.133.392-.769-1.257.929-.789a3 3 0 0 1-.117-.832q0-.428.117-.843l-.929-.798.77-1.257 1.132.392q.304-.286.638-.463a4.3 4.3 0 0 1 .74-.3l.205-1.183h1.5l.203 1.183q.406.114.736.296.33.18.643.467l1.133-.392.77 1.257-.93.798a2.84 2.84 0 0 1-.01 1.675l.94.789-.77 1.258-1.133-.393q-.313.286-.634.463a3.7 3.7 0 0 1-.745.3l-.203 1.183zm.75-2.365a2 2 0 0 0 1.465-.611 2 2 0 0 0 .611-1.466q0-.855-.611-1.465a2 2 0 0 0-1.465-.612q-.855 0-1.466.612a2 2 0 0 0-.611 1.465 2 2 0 0 0 .611 1.466q.611.61 1.466.611"/></svg>