<svg xmlns="http://www.w3.org/2000/svg" width="24" height="24" viewBox="0 0 24 24" fill='currentColor'><path d="M3.5 20.5v-17h17v7.246a4.7 4.7 0 0 0-.73-.305 6 6 0 0 0-.77-.193V5H5v9.308h4.2q.235.695.76 1.19.524.494 1.204.694a10 10 0 0 0-.024.767q.004.384.07.768a4.3 4.3 0 0 1-1.635-.653 4.7 4.7 0 0 1-1.286-1.266H5V19h6.68q.167.416.357.785.191.37.46.715zM7.25 8.789h9.5v-1.5h-9.5zm0 3.288h5.57a5.6 5.6 0 0 1 1.084-.898q.592-.374 1.269-.602H7.25zM19.74 21.5q-.729 0-1.239-.51a1.7 1.7 0 0 1-.506-1.327l.014-.073-2.111-1.273q-.215.144-.448.221a1.6 1.6 0 0 1-.508.077q-.729 0-1.239-.51t-.51-1.24.51-1.239 1.24-.51q.274 0 .507.081.233.082.448.226l2.121-1.258a1.66 1.66 0 0 1 .444-1.341 1.68 1.68 0 0 1 1.287-.568q.729 0 1.24.51.51.51.51 1.24 0 .729-.51 1.24-.511.51-1.24.51-.275 0-.512-.077a1.8 1.8 0 0 1-.453-.221l-2.112 1.257q.02.093.02.163a1 1 0 0 1-.02.163l2.112 1.257q.215-.144.448-.221T19.74 18q.73 0 1.24.51.51.511.51 1.24t-.51 1.24-1.24.51"/></svg>