<svg xmlns="http://www.w3.org/2000/svg" width="24" height="24" viewBox="0 0 24 24" fill='currentColor'><path d="m15.073 21.073-1.07-1.07a11.5 11.5 0 0 0 2.44-3.6q.884-2.048.884-4.403t-.885-4.403a11.5 11.5 0 0 0-2.438-3.601l1.069-1.07a13 13 0 0 1 2.75 4.07Q18.828 9.322 18.827 12t-1.004 5.003a13 13 0 0 1-2.75 4.07m-2.613-2.614-1.07-1.069a7.8 7.8 0 0 0 1.644-2.425q.6-1.383.6-2.965 0-1.583-.6-2.965A7.8 7.8 0 0 0 11.39 6.61l1.07-1.07a9.2 9.2 0 0 1 1.954 2.894q.72 1.664.72 3.566t-.72 3.565a9.2 9.2 0 0 1-1.954 2.894m-2.604-2.604-1.07-1.069q.541-.543.849-1.258.307-.716.307-1.53 0-.813-.307-1.528a4 4 0 0 0-.848-1.257l1.069-1.069a5.45 5.45 0 0 1 1.586 3.858q0 1.132-.427 2.127a5.5 5.5 0 0 1-1.16 1.726M4.51 19.75V4.25h1.5v6q.718.01 1.23.521.51.51.51 1.23 0 .718-.51 1.229-.512.51-1.23.52v6z"/></svg>