<svg xmlns="http://www.w3.org/2000/svg" width="24" height="24" viewBox="0 0 24 24" fill='currentColor'><path d="M2.385 10.712 7.019 2.49l4.635 8.22zM7.029 20.76q-1.563 0-2.662-1.098T3.27 17.004q0-1.582 1.098-2.673t2.662-1.09 2.661 1.098T10.79 17t-1.1 2.662-2.66 1.098m0-1.5q.94 0 1.6-.66t.66-1.6-.66-1.6-1.6-.66-1.6.66-.66 1.6.66 1.6 1.6.66M4.948 9.212H9.1L7.02 5.567zM13.26 20.76v-7.52h7.519v7.52zm1.5-1.5h4.519v-4.52h-4.52zm2.26-8.548a276 276 0 0 1-2.042-1.698 16 16 0 0 1-1.432-1.34q-.565-.61-.844-1.18a2.7 2.7 0 0 1-.279-1.203q0-1.01.687-1.689.686-.679 1.726-.679.638 0 1.19.303.554.303.993.872a3.3 3.3 0 0 1 1.002-.867 2.45 2.45 0 0 1 1.19-.308q1.027 0 1.716.694.688.694.688 1.702 0 .626-.278 1.19-.28.564-.845 1.17-.566.606-1.431 1.335a278 278 0 0 1-2.042 1.698m0-1.962q1.77-1.422 2.433-2.154.663-.73.663-1.255a.92.92 0 0 0-.246-.66.84.84 0 0 0-.637-.258q-.287 0-.559.167-.271.166-.718.612l-.937.906-.936-.906q-.456-.456-.722-.617a1.06 1.06 0 0 0-.555-.162q-.402 0-.642.243-.24.244-.241.655 0 .544.662 1.275.663.732 2.434 2.154"/></svg>