<svg xmlns="http://www.w3.org/2000/svg" width="24" height="24" viewBox="0 0 24 24" fill='currentColor'><path d="M20.501 16.365q-.52 0-.886-.364a1.2 1.2 0 0 1-.365-.885v-2.5q0-.522.364-.886t.885-.364.886.364.365.886v2.5q0 .52-.364.885a1.2 1.2 0 0 1-.885.364m-.443 3.577v-1.54q-1.256-.2-2.056-1.105-.8-.904-.829-2.181h.885q0 1.02.708 1.731.708.71 1.734.71t1.734-.707.708-1.734h.885q-.03 1.276-.824 2.181-.795.905-2.06 1.104v1.541zM8.827 11.673q-1.38-.02-2.373-1.03-.993-1.013-.993-2.45 0-1.44.993-2.45.991-1.013 2.373-1.031.212 0 .416.03.205.032.415.108-.564.65-.861 1.492a5.5 5.5 0 0 0-.297 1.85q0 1.008.292 1.84.293.833.866 1.503-.201.077-.408.107-.209.03-.423.031m-7.366 7.635V17.1q0-.687.353-1.296a2.65 2.65 0 0 1 1.017-.985q.7-.384 1.538-.675a11 11 0 0 1 1.808-.452q-.798.566-1.238 1.449A4.3 4.3 0 0 0 4.5 17.1v2.207zM14 11.692q-1.444 0-2.472-1.028T10.5 8.192t1.028-2.471T14 4.692t2.472 1.029T17.5 8.192t-1.028 2.472T14 11.692m0-1.5q.825 0 1.412-.587Q16 9.017 16 8.192q0-.824-.588-1.412A1.93 1.93 0 0 0 14 6.192q-.825 0-1.412.588A1.93 1.93 0 0 0 12 8.192q0 .825.588 1.413.587.588 1.412.587m-7.5 9.116V17.1q0-.735.391-1.368a2.57 2.57 0 0 1 1.074-.97q1.237-.621 2.787-1.038A12.5 12.5 0 0 1 14 13.308q.473 0 .977.056.504.055.952.148-.174.324-.283.702a4.4 4.4 0 0 0-.15.757 6 6 0 0 0-.753-.125 8 8 0 0 0-.743-.038q-1.695 0-3.053.416-1.359.417-2.278.876a1.2 1.2 0 0 0-.493.425Q8 16.797 8 17.1v.708h8.089q.268.477.646.847.376.37.84.653z"/></svg>