<svg xmlns="http://www.w3.org/2000/svg" width="24" height="24" viewBox="0 0 24 24" fill='currentColor'><path d="M15.85 18.5a6 6 0 0 1-1.262-.137 6 6 0 0 1-1.188-.388q1.15-.85 1.8-2.438.65-1.587.65-3.537t-.65-3.538-1.8-2.437a6 6 0 0 1 1.188-.388A6 6 0 0 1 15.85 5.5q2.7 0 4.6 1.887T22.35 12t-1.9 4.613-4.6 1.887M12 17.25q-1.076 0-1.863-1.55T9.35 12t.787-3.7T12 6.75t1.863 1.55.787 3.7-.787 3.7q-.788 1.55-1.863 1.55M8.15 18.5q-2.7 0-4.6-1.887T1.65 12t1.9-4.613T8.15 5.5q.626 0 1.263.137.637.138 1.187.388-1.15.85-1.8 2.437Q8.15 10.05 8.15 12t.65 3.537 1.8 2.438a6 6 0 0 1-1.187.388 6 6 0 0 1-1.263.137"/></svg>