<svg xmlns="http://www.w3.org/2000/svg" width="24" height="24" viewBox="0 0 24 24" fill='currentColor'><path d="M2.25 22.75v-1.5H3q.8 0 1.545-.25A6.2 6.2 0 0 0 6 20.279q.71.47 1.455.721.746.25 1.545.25a5 5 0 0 0 1.558-.25A5.7 5.7 0 0 0 12 20.279q.71.47 1.455.721.746.25 1.545.25a5 5 0 0 0 1.558-.25A5.7 5.7 0 0 0 18 20.279q.684.47 1.442.721.758.25 1.558.25h.75v1.5H21q-.746 0-1.496-.192A7 7 0 0 1 18 21.97a7 7 0 0 1-1.504.587q-.75.192-1.496.192t-1.496-.192A7 7 0 0 1 12 21.97a7 7 0 0 1-1.504.587A6 6 0 0 1 9 22.75q-.746 0-1.496-.192A7 7 0 0 1 6 21.97a7 7 0 0 1-1.504.587q-.75.192-1.496.192zM9 19.058a3.9 3.9 0 0 1-1.627-.358A4.2 4.2 0 0 1 6 17.692q-.319.334-.683.606-.363.27-.825.442a25 25 0 0 1-1.993-.568A24 24 0 0 1 .683 17.5q1.292-.517 3.084-1.045a28 28 0 0 1 3.55-.809l1.447-4.415q.236-.706.883-.957.647-.25 1.236.051l2.665 1.358 2.902-1.597 1.717-3.844-.5-1.325 1.19-2.667 2.922 1.3-1.19 2.667-1.325.5-3.883 8.744q2.238.256 4.388.86 2.15.601 3.548 1.179-.83.335-1.871.674-1.04.34-1.948.566a3 3 0 0 1-.82-.426 4.3 4.3 0 0 1-.678-.622q-.598.651-1.378 1.008-.78.358-1.622.358t-1.622-.363T12 17.683q-.598.65-1.378 1.012-.78.363-1.622.363m5.123-3.723 1.354-3.039-1.929 1.079-1.894-.977-.97 2.9q.294-.02.631-.034.339-.014.685-.014.505 0 1.05.017.544.018 1.073.068M12 9.346q-.758 0-1.302-.544a1.78 1.78 0 0 1-.544-1.302q0-.758.544-1.302A1.78 1.78 0 0 1 12 5.654q.758 0 1.302.544t.544 1.302-.544 1.302A1.78 1.78 0 0 1 12 9.346"/></svg>