<svg xmlns="http://www.w3.org/2000/svg" width="24" height="24" viewBox="0 0 24 24" fill='currentColor'><path d="M10.885 7q0-.671.472-1.143a1.56 1.56 0 0 1 1.143-.472q.671 0 1.143.472T14.115 7t-.472 1.143a1.56 1.56 0 0 1-1.143.472q-.671 0-1.143-.472A1.56 1.56 0 0 1 10.885 7M12.5 23.394l-3.827-3.846 1.394-1.856-1.413-1.903L10 13.836v-1.944a5.57 5.57 0 0 1-2.165-1.984Q7 8.608 7 7q0-2.289 1.606-3.894Q10.21 1.5 12.5 1.5t3.894 1.606Q18 4.71 18 7q0 1.608-.83 2.908A5.5 5.5 0 0 1 15 11.892v9.002zM8.5 7q0 1.439.87 2.491.868 1.053 2.13 1.375v3.442l-.996 1.44 1.429 1.954-1.299 1.698 1.866 1.866 1-1v-9.4q1.261-.322 2.13-1.375.87-1.053.87-2.491 0-1.65-1.175-2.825T12.5 3 9.675 4.175 8.5 7"/></svg>