<svg xmlns="http://www.w3.org/2000/svg" width="24" height="24" viewBox="0 0 24 24" fill='currentColor'><path d="M13.166 15.885h-5.05v-1.77h5.261a14 14 0 0 0-.13.87q-.052.448-.082.9m-8.05-3v-1.77h1.769v1.77zm3 0v-1.77h1.769v1.77zm-3-3v-1.77h1.769v1.77zm9 0h1.768v-1.77h-1.768zm3 0h1.768v-1.77h-1.768zm0 2.329a5 5 0 0 1 .861-.217q.45-.074.907-.054v-.827h-1.768zm-1.232.67v-1.768h-1.768v.275l1.494 1.494zm-3-3V8.117h-1.768v.275l1.494 1.494zm7.533 12.782L1.364 3.596l1.053-1.054 19.07 19.07zm1.083-9.83a3.7 3.7 0 0 0-.699-.415 4.6 4.6 0 0 0-.801-.273V7H9.725l-1.5-1.5H21.5zM2.5 18.5v-13h2.875l1.5 1.5H4v10h9.625v1.5zm13.24 3v-4.76h.875l3.895 3.895v.865zm5.76-2.725L19.625 16.9v-1.169a.97.97 0 0 0-.288-.713.97.97 0 0 0-.716-.287q-.226 0-.441.1a.8.8 0 0 0-.34.285l-.623-.639a1.9 1.9 0 0 1 1.408-.63q.787 0 1.335.549.55.548.55 1.335v1h.99z"/></svg>