<svg xmlns="http://www.w3.org/2000/svg" width="24" height="24" viewBox="0 0 24 24" fill='currentColor'><path d="M12 13.5q-1.05 0-1.775-.725T9.5 11V5q0-1.05.725-1.775T12 2.5t1.775.725T14.5 5v6q0 1.05-.725 1.775T12 13.5m-.75 7.25v-3.3q-2.475-.274-4.112-2.112T5.5 11H7q0 2.075 1.463 3.537Q9.926 16 12 16q2.075 0 3.538-1.463Q17 13.075 17 11h1.5q0 2.5-1.637 4.338T12.75 17.45v3.3zM12 12a.97.97 0 0 0 .713-.288A.97.97 0 0 0 13 11V5a.97.97 0 0 0-.287-.713A.97.97 0 0 0 12 4a.97.97 0 0 0-.712.287A.97.97 0 0 0 11 5v6q0 .424.288.712A.97.97 0 0 0 12 12"/></svg>