<svg xmlns="http://www.w3.org/2000/svg" width="24" height="24" viewBox="0 0 24 24" fill='currentColor'><path d="M20.529 22.667 1.358 3.496l1.069-1.07 19.171 19.172zM6.067 9.952q-1.134 0-1.937-.808T3.327 7.22q0-.79.414-1.432a2.7 2.7 0 0 1 1.074-.974l3.648 3.648q-.332.66-.974 1.074a2.57 2.57 0 0 1-1.422.415m16.312 9.534-2.443-2.411-3.142-8.808a1.84 1.84 0 0 0-.707-.964 1.95 1.95 0 0 0-1.13-.342q-.632 0-1.137.354a1.9 1.9 0 0 0-.714.977l-.458 1.51-1.206-1.221.22-.72q.33-1.095 1.246-1.747a3.45 3.45 0 0 1 2.053-.653q1.116 0 2.016.64.9.641 1.246 1.695zM1.65 19.5l3.163-6.21q.23-.45.647-.716.418-.267.938-.267.542 0 .995.283t.657.802l.598 1.439q.117.274.456.252.34-.023.436-.297l1.237-4.01 1.212 1.212-1.005 3.229a2.03 2.03 0 0 1-.72 1.001 1.9 1.9 0 0 1-1.174.387q-.591 0-1.096-.314a1.82 1.82 0 0 1-.734-.878l-.618-1.496a.28.28 0 0 0-.264-.168.28.28 0 0 0-.274.159L3.308 19.5z"/></svg>