<svg xmlns="http://www.w3.org/2000/svg" width="24" height="24" viewBox="0 0 24 24" fill='currentColor'><path d="m1.65 19.5 3.163-6.21q.23-.45.647-.716.419-.267.938-.266.542 0 .995.282t.657.802l.598 1.439q.117.274.457.252.338-.023.436-.296l2.12-6.925q.331-1.095 1.247-1.748a3.45 3.45 0 0 1 2.053-.652q1.116 0 2.016.64t1.246 1.694L22.375 19.5h-1.587L16.795 8.267a1.84 1.84 0 0 0-.707-.964 1.95 1.95 0 0 0-1.13-.341q-.631 0-1.137.354a1.9 1.9 0 0 0-.714.976l-2.121 6.925q-.207.615-.721 1.001a1.9 1.9 0 0 1-1.173.388q-.592 0-1.096-.315a1.82 1.82 0 0 1-.735-.877l-.618-1.497a.28.28 0 0 0-.264-.168.28.28 0 0 0-.274.159L3.308 19.5zm4.59-9.538q-1.134 0-1.937-.808Q3.5 8.347 3.5 7.233q0-1.137.803-1.935A2.65 2.65 0 0 1 6.24 4.5q1.134 0 1.928.797t.794 1.937q0 1.116-.794 1.922a2.6 2.6 0 0 1-1.928.805m-.001-1.5q.52 0 .871-.36.352-.36.352-.876a1.2 1.2 0 0 0-.352-.871A1.18 1.18 0 0 0 6.239 6q-.52 0-.88.354T5 7.23q0 .51.36.871.36.36.879.36"/></svg>