<svg xmlns="http://www.w3.org/2000/svg" width="24" height="24" viewBox="0 0 24 24" fill='currentColor'><path d="M8.375 12.387h1.592V10.21H8.375zm-5.83 4.969-.33-.962h1.043q.124 0 .228-.097a.3.3 0 0 0 .102-.222v-2.708l-1.319.454-.217-.927 1.536-.494v-2.25H2.276v-.915H3.59v-2.31h.946v2.31h1.019v.915H4.519v1.954l1.039-.354.092.896-1.13.41v3.221q0 .42-.258.75a.8.8 0 0 1-.664.329zm3.33.188-.6-.713a4.9 4.9 0 0 0 1.462-1.504 4.1 4.1 0 0 0 .62-1.994H5.62v-.962h1.81v-2.16H6.05v-.9h6.161v.947h-1.328v2.19h1.682l-.03.885h-1.652v4.038h-.946v-4.038H8.304a5.25 5.25 0 0 1-.712 2.393 5.46 5.46 0 0 1-1.717 1.818m4.777-8.021-.842-.25.545-1.056q.27-.523.47-1.08l.923.323q-.231.536-.518 1.041t-.578 1.022M7.81 9.406q-.24-.517-.496-1.015a8 8 0 0 0-.577-.958l.846-.348q.31.461.572.958.26.498.5 1.015zm9.461 6.648q.749 0 1.488-.373a4.8 4.8 0 0 0 1.366-1.05v-2.997q-.633.095-1.163.219-.531.124-1.043.278-1.21.388-1.808.976-.596.588-.596 1.354 0 .738.48 1.165.478.428 1.276.428m-.354 1.296q-1.328 0-2.115-.774t-.787-2.078q0-1.223.816-2.038.815-.816 2.553-1.335.518-.15 1.2-.284.684-.135 1.541-.274v-.125q-.03-1.29-.535-1.914t-1.632-.624q-.669 0-1.326.237-.657.238-1.532.79l-.617-1.083a6.8 6.8 0 0 1 1.779-.916 6 6 0 0 1 1.988-.34q1.68 0 2.527 1.048.848 1.047.848 3.002v6.483h-1.262l-.13-1.211q-.729.672-1.581 1.054a4.2 4.2 0 0 1-1.735.382"/></svg>