<svg xmlns="http://www.w3.org/2000/svg" width="24" height="24" viewBox="0 0 24 24" fill='currentColor'><path d="m8.217 17.952-.606-.96q1.924-.229 3.044-1.147t1.12-2.283q0-.798-.56-1.452-.561-.654-1.482-.948-.605 1.463-1.401 2.607a10.7 10.7 0 0 1-1.757 1.979q.075.28.158.566t.182.586l-1.038.298a15 15 0 0 1-.116-.409q-.05-.187-.109-.385-.717.398-1.297.59a3.6 3.6 0 0 1-1.13.192q-.733 0-1.204-.505-.471-.506-.471-1.295 0-1.335.971-2.581.972-1.248 2.594-2.016.026-.525.06-1.034.034-.51.085-1.034-.74.025-1.519-.007A49 49 0 0 1 2.1 8.616L2.075 7.53q.65.115 1.414.153.765.037 1.901.028.05-.45.113-.888.063-.437.022-.887l1.221.025q-.157.424-.226.862-.07.438-.145.872 1.479-.075 2.694-.22t2.281-.385l.025 1.059a51 51 0 0 1-5.096.54q-.06.428-.082.86-.022.433-.072.86.777-.22 1.497-.309.72-.09 1.4-.04.075-.259.112-.495l.072-.466 1.146.273q-.066.19-.143.395a8 8 0 0 0-.163.48q1.294.36 2.062 1.28.767.922.767 2.058 0 1.655-1.254 2.823t-3.404 1.543M3.45 16.086q.454 0 .928-.189.474-.19 1.032-.578a17.6 17.6 0 0 1-.335-3.46q-1.133.715-1.782 1.6t-.649 1.737q0 .374.237.632a.74.74 0 0 0 .569.259m2.883-1.49a10.3 10.3 0 0 0 1.401-1.676q.6-.899.999-1.93a6.5 6.5 0 0 0-1.298.095q-.664.115-1.34.344-.05.697.016 1.47.068.772.222 1.697m10.938 1.458q.749 0 1.488-.373a4.8 4.8 0 0 0 1.366-1.05v-2.997q-.633.095-1.163.219-.531.124-1.043.278-1.21.388-1.808.976-.596.587-.596 1.354 0 .738.48 1.165.477.428 1.276.428m-.354 1.296q-1.328 0-2.115-.774t-.787-2.078q0-1.223.816-2.038.815-.816 2.553-1.335.518-.15 1.2-.284.684-.135 1.541-.274v-.125q-.03-1.29-.535-1.914t-1.632-.624q-.669 0-1.326.237-.657.238-1.532.79l-.617-1.083a6.8 6.8 0 0 1 1.779-.916 6 6 0 0 1 1.988-.34q1.68 0 2.527 1.048.848 1.046.848 3.002v6.483h-1.262l-.13-1.211q-.729.672-1.581 1.054a4.2 4.2 0 0 1-1.735.382"/></svg>