<svg xmlns="http://www.w3.org/2000/svg" width="24" height="24" viewBox="0 0 24 24" fill='currentColor'><path d="m4.317 11.327-2.51-4.344 5.908-3.396h.958q.41 1.23 1.147 2.071.738.843 2.18.842 1.442 0 2.18-.842.737-.842 1.147-2.071h.958l5.882 3.421-2.484 4.32-2.183-1.199v5.916l-1.123.98q-.065.05-.171.11-.106.062-.206.102V7.575L19.125 9.3l1-1.75L16.3 5.325a4.7 4.7 0 0 1-1.758 1.95A4.7 4.7 0 0 1 12 8q-1.384 0-2.542-.725A4.7 4.7 0 0 1 7.7 5.325L3.85 7.55 4.875 9.3 8 7.575v5.743q-.39.04-.765.11-.375.069-.735.21V10.13zm.362 7.452-.973-1.14 1.982-1.687q.547-.47 1.246-.719a4.28 4.28 0 0 1 2.87 0q.686.247 1.233.72l2.9 2.474q.338.29.794.436t.919.147q.48 0 .914-.14.436-.138.774-.443l1.983-1.711.973 1.165-1.983 1.687q-.546.472-1.232.706a4.5 4.5 0 0 1-2.87 0 3.7 3.7 0 0 1-1.245-.706l-2.9-2.475a2.3 2.3 0 0 0-.775-.436 2.8 2.8 0 0 0-.914-.147q-.463 0-.92.147a2.3 2.3 0 0 0-.794.436z"/></svg>