<svg xmlns="http://www.w3.org/2000/svg" width="24" height="24" viewBox="0 0 24 24" fill='currentColor'><path d="M13.913 21.5a7.2 7.2 0 0 1-2.54-.455 8.3 8.3 0 0 1-2.263-1.283l-2.033 2.042-1.054-1.054 2.042-2.033a8 8 0 0 1-1.288-2.262q-.45-1.218-.45-2.543 0-3.266 2.264-5.425 2.265-2.16 5.322-2.16H21.5v7.587q0 1.463-.559 2.84a7.8 7.8 0 0 1-1.666 2.521 7.8 7.8 0 0 1-2.52 1.666 7.5 7.5 0 0 1-2.842.559M5.76 10.02q0-1.776 1.242-3.018t3.017-1.242q-1.775 0-3.017-1.243Q5.76 3.275 5.76 1.5q0 1.775-1.243 3.017Q3.275 5.76 1.5 5.76q1.775 0 3.017 1.242t1.243 3.017M13.912 20q1.22 0 2.335-.452a5.8 5.8 0 0 0 1.974-1.327 5.8 5.8 0 0 0 1.327-1.975A6.2 6.2 0 0 0 20 13.913V7.827h-6.086q-1.192 0-2.296.45T9.657 9.57A6 6 0 0 0 8.3 11.549a6 6 0 0 0-.472 2.366q0 .992.329 1.934.329.941.96 1.808l5.951-5.952 1.054 1.054-5.952 5.967a6.5 6.5 0 0 0 1.8.952q.95.321 1.943.321"/></svg>