<svg xmlns="http://www.w3.org/2000/svg" width="24" height="24" viewBox="0 0 24 24" fill='currentColor'><path d="M3.5 13.808v-1.5a8.5 8.5 0 0 0 3.42-.694 9 9 0 0 0 2.8-1.894q1.2-1.2 1.894-2.805a8.5 8.5 0 0 0 .694-3.415h1.5q0 2.13-.81 4.01a10.4 10.4 0 0 1-2.208 3.28 10.4 10.4 0 0 1-3.274 2.208q-1.875.81-4.016.81m0-4v-1.5q1.995 0 3.402-1.406Q8.308 5.495 8.308 3.5h1.5q0 2.631-1.839 4.47T3.5 9.807m0-4V3.5h2.308q0 .962-.673 1.635a2.23 2.23 0 0 1-1.635.673M10.192 20.5q0-2.14.81-4.015a10.4 10.4 0 0 1 2.208-3.274 10.4 10.4 0 0 1 3.277-2.209q1.878-.81 4.013-.81v1.5a8.5 8.5 0 0 0-3.416.694 9 9 0 0 0-2.804 1.894q-1.2 1.2-1.894 2.8a8.5 8.5 0 0 0-.694 3.42zm4 0q0-2.631 1.839-4.47t4.469-1.838v1.5q-1.995 0-3.401 1.407-1.407 1.405-1.407 3.401zm4 0q0-.962.674-1.634a2.23 2.23 0 0 1 1.634-.674V20.5z"/></svg>