<svg xmlns="http://www.w3.org/2000/svg" width="24" height="24" viewBox="0 0 24 24" fill='currentColor'><path d="M12 12.5q-1.048 0-1.774-.726A2.4 2.4 0 0 1 9.5 10q0-1.048.726-1.774A2.4 2.4 0 0 1 12 7.5q1.048 0 1.774.726T14.5 10t-.726 1.774A2.4 2.4 0 0 1 12 12.5m-5.5 9.73v-7.157a7.2 7.2 0 0 1-1.475-2.296A7.4 7.4 0 0 1 4.5 10q0-3.14 2.18-5.32Q8.857 2.5 11.998 2.5t5.32 2.18Q19.5 6.86 19.5 10q0 1.473-.525 2.777a7.2 7.2 0 0 1-1.475 2.296v7.158L12 20.48zM12 16q2.5 0 4.25-1.75T18 10t-1.75-4.25T12 4 7.75 5.75 6 10t1.75 4.25T12 16m-4 4.035 4-1.073 4 1.073v-3.716a7.35 7.35 0 0 1-4.002 1.181 7.2 7.2 0 0 1-2.125-.311A7.4 7.4 0 0 1 8 16.319z"/></svg>