<svg xmlns="http://www.w3.org/2000/svg" width="24" height="24" viewBox="0 0 24 24" fill='currentColor'><path d="M12 21.577q-.757 0-1.307-.525a1.88 1.88 0 0 1-.597-1.283h3.808a1.88 1.88 0 0 1-.597 1.283q-.55.525-1.307.525M12 4q-1.11 0-2.08.407a5.5 5.5 0 0 0-1.697 1.1L7.138 4.455a7.6 7.6 0 0 1 2.227-1.442A6.75 6.75 0 0 1 12 2.5q2.923 0 4.962 2.039Q19 6.576 19 9.5q0 1.64-.582 2.821a7.8 7.8 0 0 1-1.391 2.01l-1.054-1.054q.554-.575 1.04-1.509.487-.933.487-2.268 0-2.3-1.6-3.9T12 4m8.68 16.815-1.069 1.07-6.384-6.385H8.404a7.3 7.3 0 0 1-2.488-2.553A6.73 6.73 0 0 1 5 9.5q0-.51.077-1.028t.211-.91L2.035 4.276l1.053-1.054zM8.85 14h2.877l-5.15-5.15q-.03.136-.053.31-.024.175-.024.34 0 1.35.612 2.525A5.55 5.55 0 0 0 8.85 14m6.992 2.884v1.5H8.25v-1.5z"/></svg>