<svg xmlns="http://www.w3.org/2000/svg" width="24" height="24" viewBox="0 0 24 24" fill='currentColor'><path d="M12 21.577q-.757 0-1.307-.525a1.88 1.88 0 0 1-.597-1.283h3.808a1.88 1.88 0 0 1-.597 1.283q-.55.525-1.307.525m-3.75-3.193v-1.5h7.5v1.5zm.154-2.884a7.3 7.3 0 0 1-2.487-2.553A6.73 6.73 0 0 1 5 9.5q0-2.923 2.039-4.961Q9.077 2.499 12 2.5t4.962 2.039T19 9.5a6.73 6.73 0 0 1-.916 3.447 7.3 7.3 0 0 1-2.488 2.553zM8.85 14h6.3a5.55 5.55 0 0 0 1.737-1.975A5.4 5.4 0 0 0 17.5 9.5q0-2.3-1.6-3.9T12 4 8.1 5.6 6.5 9.5q0 1.35.612 2.525A5.55 5.55 0 0 0 8.85 14"/></svg>