<svg xmlns="http://www.w3.org/2000/svg" width="24" height="24" viewBox="0 0 24 24" fill='currentColor'><path d="M3.25 21.5V20h7.5v1.5zm13.753-.981a1.7 1.7 0 0 1-1.252-.525 1.72 1.72 0 0 1-.52-1.254h-3.712v-.84q0-1.98 1.382-3.398a5.6 5.6 0 0 1 3.349-1.681v-9.83h1.5v9.83q1.992.264 3.366 1.68Q22.49 15.92 22.49 17.9v.84h-3.71q0 .729-.51 1.254t-1.265.525M6.25 18.749V11H1.354l2.13-8h7.041l2.13 8H7.75v7.75zm6.85-1.5h7.8a3.3 3.3 0 0 0-1.354-2.184 4.22 4.22 0 0 0-2.548-.815q-1.402 0-2.526.815A3.34 3.34 0 0 0 13.1 17.25M3.3 9.5h7.4l-1.325-5H4.65z"/></svg>