<svg xmlns="http://www.w3.org/2000/svg" width="24" height="24" viewBox="0 0 24 24" fill='currentColor'><path d="M12 15q1.25 0 2.125-.875A2.9 2.9 0 0 0 15 12q0-1.25-.875-2.125A2.9 2.9 0 0 0 12 9q-1.25 0-2.125.875A2.9 2.9 0 0 0 9 12q0 1.25.875 2.125A2.9 2.9 0 0 0 12 15m0 1.5q-1.873 0-3.187-1.313Q7.5 13.873 7.5 12t1.313-3.187Q10.128 7.5 12 7.5t3.187 1.313Q16.5 10.128 16.5 12t-1.313 3.187Q13.873 16.5 12 16.5m-7-3.75H1.25v-1.5H5zm17.75 0H19v-1.5h3.75zM11.25 5V1.25h1.5V5zm0 17.75V19h1.5v3.75zM6.573 7.577 4.231 5.316l1.06-1.11 2.255 2.317zm12.136 12.217-2.27-2.332.988-1.039 2.342 2.262zM16.423 6.573l2.262-2.342 1.11 1.06-2.318 2.255zM4.206 18.709l2.332-2.27 1.02.988-2.252 2.352z"/></svg>