<svg xmlns="http://www.w3.org/2000/svg" width="24" height="24" viewBox="0 0 24 24" fill='currentColor'><path d="M12 20.039a3.4 3.4 0 0 1-2.503-1.036A3.4 3.4 0 0 1 8.461 16.5H3.658a6 6 0 0 1-.114-.684A7 7 0 0 1 3.5 15q.03-3.317 2.248-5.754Q7.965 6.81 11.25 6.531V3.692h1.5v2.839q3.285.279 5.502 2.715Q20.47 11.684 20.5 15q0 .432-.044.816t-.114.684H15.54a3.4 3.4 0 0 1-1.036 2.503A3.4 3.4 0 0 1 12 20.039M5 15h14q0-2.9-2.05-4.95T12 8t-4.95 2.05T5 15m7.002 3.539q.842 0 1.44-.6.596-.597.597-1.439H9.96q0 .844.6 1.441t1.441.598"/></svg>