<svg xmlns="http://www.w3.org/2000/svg" width="24" height="24" viewBox="0 0 24 24" fill='currentColor'><path d="M20.4 7.23q0-1.94-1.344-3.285T15.769 2.6V1.5q2.385 0 4.058 1.672T21.5 7.23zm-2.65 0q0-.815-.582-1.397a1.9 1.9 0 0 0-1.399-.583v-1.1q1.28 0 2.164.893.886.894.917 2.188zM2.5 20.5v-15h4.862l1.85-2h5.557V5H9.866L8.03 7H4v12h16V8.23h1.5V20.5zm9.5-3.385q1.722 0 2.918-1.197 1.197-1.196 1.197-2.918t-1.197-2.918T12 8.885t-2.918 1.197Q7.885 11.278 7.885 13t1.197 2.918T12 17.115m0-1.5q-1.108.001-1.861-.754-.755-.753-.755-1.861t.755-1.861q.753-.755 1.861-.755t1.861.755q.755.753.755 1.861t-.755 1.861q-.753.755-1.861.755"/></svg>