<svg xmlns="http://www.w3.org/2000/svg" width="24" height="24" viewBox="0 0 24 24" fill='currentColor'><path d="M3.5 21.5V20h1.837v-3.344A2.5 2.5 0 0 1 4 15.747a2.5 2.5 0 0 1-.5-1.536V6.75h5.173v7.461q0 .85-.505 1.527a2.5 2.5 0 0 1-1.331.918V20h1.836v1.5zM5 11.471h2.173V8.25H5zm1.087 3.827q.453 0 .77-.316.316-.317.316-.77v-1.24H5v1.24q0 .453.316.77.317.316.77.316M11.46 21.5V9.348l3.02-1.138V2.5h4v5.71l3.02 1.128V21.5zm4.52-16.452h1V4h-1zm-3.02 7.25H20v-1.915l-3.02-1.13V6.549h-1v2.706l-3.019 1.129zm0 7.702H20v-2.346h-7.039zm0-3.846H20v-2.356h-7.039z"/></svg>