<svg xmlns="http://www.w3.org/2000/svg" width="24" height="24" viewBox="0 0 24 24" fill='currentColor'><path d="M12 21.808a13 13 0 0 0-3.923-2.384A13.8 13.8 0 0 0 3.5 18.5V8.327A12.5 12.5 0 0 1 8.105 9.33 13.5 13.5 0 0 1 12 11.838a13.5 13.5 0 0 1 3.895-2.507A12.5 12.5 0 0 1 20.5 8.327V18.5q-2.412.077-4.585.924A13 13 0 0 0 12 21.808m0-1.927a14.8 14.8 0 0 1 3.35-1.87q1.775-.705 3.65-.93V9.988a11.8 11.8 0 0 0-3.665 1.289q-1.771.963-3.335 2.527-1.563-1.564-3.335-2.527A11.8 11.8 0 0 0 5 9.988v7.093q1.875.225 3.65.93a14.8 14.8 0 0 1 3.35 1.87m0-11.093q-1.491 0-2.553-1.062T8.385 5.173 9.447 2.62 12 1.558t2.553 1.062 1.062 2.553-1.062 2.553T12 8.788m0-1.5q.873 0 1.494-.621.621-.622.622-1.494 0-.873-.622-1.494A2.04 2.04 0 0 0 12 3.058q-.873 0-1.494.621a2.04 2.04 0 0 0-.622 1.494q0 .873.622 1.494.621.621 1.494.621"/></svg>