<svg xmlns="http://www.w3.org/2000/svg" width="24" height="24" viewBox="0 0 24 24" fill='currentColor'><path d="M12 9.106q.463 0 .784-.321.322-.321.322-.785 0-.463-.322-.784A1.07 1.07 0 0 0 12 6.894q-.463 0-.784.322a1.07 1.07 0 0 0-.322.784q0 .464.322.785.32.32.784.32m.002 5.192a2.7 2.7 0 0 1-1.584-.499 2.67 2.67 0 0 1-1-1.335q-.126.029-.25.04a3 3 0 0 1-.258.013 2.66 2.66 0 0 1-1.94-.8 2.63 2.63 0 0 1-.807-1.936q0-.485.18-.935T6.844 8a3.4 3.4 0 0 1-.48-.846 2.6 2.6 0 0 1-.176-.935q0-1.136.795-1.936t1.927-.8q.135 0 .258.012.125.014.259.032.293-.827.993-1.326A2.66 2.66 0 0 1 12 1.702q.879 0 1.58.5.7.498.993 1.325.135-.019.259-.032.124-.012.258-.012 1.132 0 1.927.8t.794 1.936q0 .49-.167.941a2.9 2.9 0 0 1-.488.84q.306.396.48.846.175.45.175.935 0 1.137-.794 1.936-.795.8-1.927.8a2.6 2.6 0 0 1-.527-.053 2.63 2.63 0 0 1-.983 1.335 2.66 2.66 0 0 1-1.578.5M12 21.423q0-1.629.674-3.117a8.84 8.84 0 0 1 4.44-4.44 7.5 7.5 0 0 1 3.117-.674 7.5 7.5 0 0 1-.674 3.118 8.84 8.84 0 0 1-4.44 4.44 7.5 7.5 0 0 1-3.117.673m1.796-1.796a6.95 6.95 0 0 0 2.904-1.735 6.95 6.95 0 0 0 1.735-2.903 6.95 6.95 0 0 0-2.904 1.734 6.95 6.95 0 0 0-1.735 2.904M12 21.423a7.5 7.5 0 0 0-.674-3.117 8.84 8.84 0 0 0-4.44-4.44 7.5 7.5 0 0 0-3.117-.674q0 1.63.674 3.118a8.84 8.84 0 0 0 4.44 4.44q1.488.672 3.117.673m-1.796-1.796A6.95 6.95 0 0 1 7.3 17.892a6.94 6.94 0 0 1-1.735-2.903q1.695.525 2.904 1.734a6.95 6.95 0 0 1 1.735 2.904m4.886-8.61q.51 0 .874-.363.363-.363.363-.875 0-.377-.212-.678a1.06 1.06 0 0 0-.56-.412l-.98-.33q-.042.253-.127.493a2.7 2.7 0 0 1-.49.852q-.156.18-.356.336l.752.681q.144.139.328.218.183.078.408.078m-.515-3.376.98-.33q.35-.111.553-.42.203-.308.203-.672 0-.51-.352-.873a1.16 1.16 0 0 0-.869-.363 1 1 0 0 0-.403.079 1.4 1.4 0 0 0-.333.217l-.768.68q.2.157.364.337t.289.396.209.456.127.493m-3.533-2.056q.234-.09.468-.14t.492-.05.491.05.465.14l.269-1.175q.108-.48-.284-.844A1.34 1.34 0 0 0 12 3.202q-.552 0-.943.364-.392.363-.284.844zM12 12.798q.552 0 .943-.363.392-.364.284-.844l-.27-1.176a2.2 2.2 0 0 1-.464.146q-.234.045-.492.045-.256 0-.492-.045a2.2 2.2 0 0 1-.467-.146l-.269 1.176q-.108.48.284.844.39.363.943.363M9.425 7.641q.042-.253.127-.493a2.7 2.7 0 0 1 .49-.852q.156-.18.356-.336l-.752-.681a1.02 1.02 0 0 0-.736-.296q-.51 0-.874.363a1.2 1.2 0 0 0-.363.873q0 .364.212.673.21.308.56.42zm-.515 3.361q.228 0 .407-.071a.95.95 0 0 0 .33-.225l.767-.666a3 3 0 0 1-.364-.336 2.3 2.3 0 0 1-.289-.396 2.7 2.7 0 0 1-.209-.456 3 3 0 0 1-.127-.492l-.98.329a1.04 1.04 0 0 0-.558.42q-.208.308-.208.672.015.513.366.867.35.354.865.354"/></svg>