<svg xmlns="http://www.w3.org/2000/svg" width="24" height="24" viewBox="0 0 24 24" fill='currentColor'><path d="M5.615 18.5v2H3.5v-8.423L5.806 5.5H9.46V3.73h5.116V5.5h3.617l2.306 6.577V20.5h-2.115v-2zm-.007-7.923h12.784L17.131 7H6.869zm1.856 5.269q.546 0 .925-.382.38-.382.38-.928t-.382-.926a1.27 1.27 0 0 0-.928-.38q-.546 0-.925.383-.38.381-.38.928 0 .545.382.925t.928.38m9.077 0q.546 0 .925-.382.38-.382.38-.928t-.382-.926a1.27 1.27 0 0 0-.928-.38q-.546 0-.926.383-.38.381-.38.928 0 .545.383.925.382.38.928.38M5 17h14v-4.923H5z"/></svg>