<svg xmlns="http://www.w3.org/2000/svg" width="24" height="24" viewBox="0 0 24 24" fill='currentColor'><path d="M13.808 10.058a1.74 1.74 0 0 0-.531-1.277A1.74 1.74 0 0 0 12 8.251q-.203 0-.384.035a1.2 1.2 0 0 0-.352.131l2.376 2.377a1.2 1.2 0 0 0 .132-.353q.036-.181.036-.383m4.084 4.988-1.094-1.094q.615-1.05.933-1.977.317-.927.317-1.729 0-2.732-1.737-4.494Q14.572 3.991 12 3.991q-1.107 0-2.075.342a5.7 5.7 0 0 0-1.754.992l-1.06-1.06A7.3 7.3 0 0 1 9.365 2.96 7.6 7.6 0 0 1 12 2.5q3.07 0 5.309 2.143 2.24 2.145 2.239 5.602 0 1.107-.411 2.297-.412 1.191-1.245 2.504m-3.213 1.756L6.244 8.367a7 7 0 0 0-.214.904 6 6 0 0 0-.078.977q0 1.815 1.557 4.226T12 19.514q.765-.672 1.434-1.354.668-.683 1.245-1.358m6.113 6.113-5.069-5.069A40 40 0 0 1 12 21.51q-3.776-3.271-5.661-6.089-1.887-2.817-1.887-5.173a8 8 0 0 1 .6-3.073L1.281 3.404l1.06-1.079 19.52 19.521z"/></svg>