<svg xmlns="http://www.w3.org/2000/svg" width="24" height="24" viewBox="0 0 24 24" fill='currentColor'><path d="m12 3.615 7.5 5.635V20.5h-15V9.25zm-.001 11.135q1.145 0 1.948-.802a2.65 2.65 0 0 0 .803-1.947q0-1.146-.802-1.948a2.65 2.65 0 0 0-1.947-.803q-1.145 0-1.948.802a2.65 2.65 0 0 0-.803 1.947q0 1.145.802 1.948a2.65 2.65 0 0 0 1.947.803m.001-1.5q-.522 0-.886-.365A1.2 1.2 0 0 1 10.75 12q0-.522.364-.886T12 10.75t.886.364.364.886q0 .52-.364.885a1.2 1.2 0 0 1-.886.365m-.026 4.5A8 8 0 0 0 7.67 19h8.614a7.8 7.8 0 0 0-2.059-.933 8 8 0 0 0-2.25-.317M6 10v8.346a9.8 9.8 0 0 1 2.803-1.555 9.4 9.4 0 0 1 3.168-.541q1.664 0 3.201.536A9.8 9.8 0 0 1 18 18.336V10l-6-4.5z"/></svg>