<svg xmlns="http://www.w3.org/2000/svg" width="24" height="24" viewBox="0 0 24 24" fill='currentColor'><path d="M12.002 11.865q.746 0 1.276-.531.53-.532.53-1.278t-.532-1.276a1.75 1.75 0 0 0-1.278-.53q-.746 0-1.276.531-.53.532-.53 1.278t.532 1.277 1.278.53M12 19.514q2.934-2.628 4.491-5.04t1.557-4.226q0-2.735-1.737-4.496Q14.572 3.991 12 3.991T7.69 5.752t-1.738 4.496q0 1.814 1.557 4.226T12 19.514m0 1.995q-3.776-3.27-5.661-6.088-1.887-2.817-1.887-5.173 0-3.462 2.24-5.605Q8.93 2.5 12 2.5t5.309 2.143 2.239 5.605q0 2.356-1.886 5.173Q15.775 18.238 12 21.51"/></svg>