<svg xmlns="http://www.w3.org/2000/svg" width="24" height="24" viewBox="0 0 24 24" fill='currentColor'><path d="M1.5 17q0-2.169.824-4.083.825-1.914 2.252-3.341a10.6 10.6 0 0 1 3.341-2.252A10.2 10.2 0 0 1 12 6.5q2.169 0 4.083.824 1.913.825 3.341 2.252a10.6 10.6 0 0 1 2.252 3.341q.825 1.914.824 4.083H21q0-3.724-2.637-6.363Q15.725 8 12 8t-6.362 2.637T3 17zm4 0q0-2.698 1.901-4.599 1.9-1.9 4.599-1.901 2.698 0 4.599 1.901 1.9 1.9 1.901 4.599H17q0-2.075-1.463-3.537Q14.075 12 12 12t-3.537 1.463Q7 14.926 7 17z"/></svg>