<svg xmlns="http://www.w3.org/2000/svg" width="24" height="24" viewBox="0 0 24 24" fill='currentColor'><path d="M7.789 17.788q-1.218 0-1.944-.668t-.726-1.716q0-1.08.848-1.755t2.18-.674q.555 0 1.105.105t.96.29v-.445q0-.85-.503-1.329-.504-.48-1.401-.479-.546 0-1.007.209a2.8 2.8 0 0 0-.859.62l-.905-.721a3.8 3.8 0 0 1 1.261-.912 3.8 3.8 0 0 1 1.525-.292q1.58 0 2.354.774.773.774.773 2.322v4.43h-1.239v-.972h-.1a2.56 2.56 0 0 1-.974.909q-.585.304-1.349.304m.184-1.08q.952 0 1.603-.668t.651-1.62a3 3 0 0 0-.861-.313 4.7 4.7 0 0 0-1.006-.113q-.897 0-1.414.374-.517.375-.517 1.036 0 .557.433.93.435.374 1.111.374m9.296 1.08-3.653-3.653 1.053-1.054 1.85 1.85V8.308h1.5v6.623l1.85-1.85 1.054 1.054z"/></svg>