<svg xmlns="http://www.w3.org/2000/svg" width="24" height="24" viewBox="0 0 24 24" fill='currentColor'><path d="M2.5 20.5v-4.692h19V20.5zM4 17.308V19h16v-1.692zm8-4.25q-.89 0-1.391.5-.502.5-1.786.5t-1.77-.5-1.376-.5-1.391.5-1.786.5v-1.5q.891 0 1.392-.5t1.785-.5 1.77.5 1.376.5 1.391-.5q.502-.5 1.786-.5t1.786.5q.5.5 1.391.5.89 0 1.366-.5t1.76-.5q1.286 0 1.827.5t1.37.5v1.5q-1.285 0-1.745-.5t-1.351-.5-1.416.5q-.527.5-1.811.5-1.285 0-1.786-.5-.5-.5-1.391-.5m-9.5-3.25V9q0-2.615 2.4-4.058T12 3.5t7.1 1.442Q21.5 6.385 21.5 9v.808zM12 5q-3.504 0-5.529.866-2.025.867-2.379 2.442h15.816q-.355-1.575-2.38-2.442Q15.505 5 12 5"/></svg>