<svg xmlns="http://www.w3.org/2000/svg" width="24" height="24" viewBox="0 0 24 24" fill='currentColor'><path d="M2.789 20.788V2.5h14v2.146q-.447.208-.817.497a5 5 0 0 0-.683.646V4h-11v12h11v-3.789q.313.357.683.646t.816.497V17.5H6.077zm3.75-7.038h3.5v-1.5h-3.5zm12.27-2a2.66 2.66 0 0 1-1.949-.802 2.65 2.65 0 0 1-.802-1.947q0-1.145.802-1.948a2.65 2.65 0 0 1 1.948-.803q.38 0 .674.093.293.093.576.293V1.25h3.5v1.5h-2V9q0 1.146-.802 1.948a2.65 2.65 0 0 1-1.947.802m-12.27-1h6.5v-1.5h-6.5zm0-3h6.5v-1.5h-6.5z"/></svg>