<svg xmlns="http://www.w3.org/2000/svg" width="24" height="24" viewBox="0 0 24 24" fill='currentColor'><path d="m6.35 15.35-1.561-1.577a10.5 10.5 0 0 1 3.231-2.196q1.845-.807 3.98-.807 2.136 0 3.98.8a10.2 10.2 0 0 1 3.232 2.203L17.65 15.35a8.1 8.1 0 0 0-2.55-1.725Q13.65 13.001 12 13q-1.65 0-3.1.625a8.1 8.1 0 0 0-2.55 1.725M2.115 11.1.54 9.523a16.1 16.1 0 0 1 5.124-3.489Q8.594 4.77 12 4.77t6.337 1.264a16.1 16.1 0 0 1 5.125 3.49L21.885 11.1a14.1 14.1 0 0 0-4.455-3.012Q14.9 7 12 7T6.57 8.088A14.1 14.1 0 0 0 2.115 11.1M12 21.5l-1.058-2.346-2.346-1.058 2.346-1.057L12 14.693l1.058 2.346 2.346 1.057-2.346 1.058z"/></svg>