<svg xmlns="http://www.w3.org/2000/svg" width="24" height="24" viewBox="0 0 24 24" fill='currentColor'><path d="M12 22.5q-2.925 0-5.309-1.448a10.4 10.4 0 0 1-3.74-3.88v2.982H1.453v-5.5h5.5v1.5h-2.84q1.084 2.184 3.205 3.515T12 21a8.8 8.8 0 0 0 3.445-.679 9 9 0 0 0 2.817-1.853 9.1 9.1 0 0 0 1.939-2.773 8.9 8.9 0 0 0 .79-3.445h1.5a10.2 10.2 0 0 1-.892 3.996 10.7 10.7 0 0 1-2.262 3.26A10.5 10.5 0 0 1 16.03 21.7q-1.89.8-4.03.8M1.51 11.75q.067-2.179.92-4.05a10.6 10.6 0 0 1 2.28-3.254 10.5 10.5 0 0 1 3.303-2.165Q9.89 1.5 12 1.5q2.895 0 5.309 1.453a10.1 10.1 0 0 1 3.74 3.914v-3.02h1.499v5.5h-5.5v-1.5h2.84q-1.055-2.148-3.181-3.497Q14.58 3 12 3a8.7 8.7 0 0 0-3.402.67 9.1 9.1 0 0 0-2.821 1.833 9.1 9.1 0 0 0-1.964 2.763q-.746 1.6-.803 3.484zM12 16.394l-1.358-3.036L7.606 12l3.036-1.383L12 7.606l1.383 3.011L16.394 12l-3.011 1.358z"/></svg>