<svg xmlns="http://www.w3.org/2000/svg" width="24" height="24" viewBox="0 0 24 24" fill='currentColor'><path d="M10 11.692q-1.444 0-2.472-1.028T6.5 8.192t1.028-2.471T10 4.692t2.472 1.029T13.5 8.192t-1.028 2.472T10 11.692m-7.5 7.616v-2.223a2.52 2.52 0 0 1 1.466-2.323q1.245-.621 2.692-1.038 1.446-.416 3.342-.416h.292q.121 0 .262.03a5.4 5.4 0 0 0-.251.722 8 8 0 0 0-.165.748H10q-1.726 0-3.058.397-1.33.397-2.288.895-.34.183-.497.427a1 1 0 0 0-.157.558v.723h6.3q.11.38.29.773.177.392.39.727zm13.606.74-.223-1.327a3.5 3.5 0 0 1-.673-.277 3 3 0 0 1-.6-.429l-1.268.44-.711-1.209 1.034-.846a3 3 0 0 1-.107-.765q0-.378.107-.766l-1.024-.865.711-1.21 1.258.45q.274-.257.595-.424a4 4 0 0 1 .678-.272l.223-1.327h1.423l.213 1.327q.358.106.678.28t.595.447l1.258-.48.712 1.24-1.026.865q.108.36.108.752 0 .39-.108.748l1.035.846-.711 1.21-1.268-.44q-.285.257-.6.428-.315.172-.673.277l-.213 1.327zm.702-2.51q.786 0 1.345-.559.559-.56.559-1.345 0-.786-.56-1.344a1.84 1.84 0 0 0-1.345-.56q-.786 0-1.344.56a1.84 1.84 0 0 0-.56 1.346q0 .784.56 1.344.56.559 1.345.559M10 10.193q.825 0 1.412-.587Q12 9.017 12 8.192q0-.824-.588-1.412A1.93 1.93 0 0 0 10 6.192q-.825 0-1.412.588A1.93 1.93 0 0 0 8 8.192q0 .825.588 1.413.587.588 1.412.587"/></svg>