<svg xmlns="http://www.w3.org/2000/svg" width="24" height="24" viewBox="0 0 24 24" fill='currentColor'><path d="M3.5 20.494V5.416L9 3.539l6 2.1 5.5-2.133v8.833a5 5 0 0 0-1.5-1.366V5.7l-3.25 1.227v3.189q-.4.01-.77.068t-.73.185V6.927l-4.5-1.573v12.729zM5 18.3l3.25-1.246v-11.7L5 6.45zm10.942-.194q.918 0 1.528-.572.61-.573.626-1.582.015-.917-.61-1.536-.626-.618-1.544-.618-.917 0-1.535.618t-.618 1.536.618 1.536 1.535.618m0 1.5q-1.506 0-2.58-1.074t-1.073-2.58 1.074-2.58 2.58-1.074q1.505 0 2.579 1.074t1.074 2.58q0 .566-.152 1.068a3.4 3.4 0 0 1-.446.934l2.502 2.492-1.044 1.054-2.502-2.502a3.2 3.2 0 0 1-.934.456 3.7 3.7 0 0 1-1.078.152"/></svg>