<svg xmlns="http://www.w3.org/2000/svg" width="24" height="24" viewBox="0 0 24 24" fill='currentColor'><path d="M9.192 21.308q-2.697 0-4.599-1.901-1.9-1.9-1.9-4.6 0-2.697 1.9-4.598 1.901-1.9 4.6-1.901 2.697 0 4.598 1.9 1.901 1.902 1.901 4.6t-1.9 4.599q-1.901 1.9-4.6 1.9m0-1.5q2.076 0 3.538-1.463t1.462-3.537-1.462-3.538q-1.462-1.462-3.538-1.462-2.074 0-3.537 1.462-1.463 1.463-1.463 3.538t1.463 3.537q1.463 1.463 3.537 1.463m7.662-4.473q.03-.122.03-.25v-.277q0-3.19-2.25-5.442-2.25-2.25-5.442-2.25h-.276q-.13 0-.25.03.573-1.834 2.221-3.144 1.65-1.31 3.92-1.31 2.699 0 4.6 1.901t1.9 4.6q0 2.27-1.309 3.92-1.31 1.649-3.144 2.222"/></svg>