<svg xmlns="http://www.w3.org/2000/svg" width="24" height="24" viewBox="0 0 24 24" fill='currentColor'><path d="m3.67 17.43 3.155-8.497L2.323 4.43l1.054-1.054 17.246 17.246-1.054 1.054-7.775-7.775 1.321 3.529H11.61l-1.004-2.877h-4.44l-1.01 2.877zm4.15-7.5L6.625 13.3h3.515l-.567-1.62zm10.583 5.76q.21-.29.314-.642t.105-.745a3 3 0 0 0-.861-.312 4.7 4.7 0 0 0-1.183-.108 2 2 0 0 0-.168.014l-.913-.913q.25-.05.51-.088.259-.037.534-.037.556 0 1.106.104.55.105.96.29v-.444q0-.85-.503-1.33-.502-.479-1.4-.479-.546 0-1.007.209-.46.208-.858.62l-.845-.783a3.7 3.7 0 0 1 1.231-.865 3.9 3.9 0 0 1 1.494-.277q1.581 0 2.354.774T20.046 13v4.33z"/></svg>