<svg xmlns="http://www.w3.org/2000/svg" width="24" height="24" viewBox="0 0 24 24" fill='currentColor'><path d="M7.625 19.154v-4.789l3.836 2.394zM13 9.808q-1.186 0-2.016-.83a2.74 2.74 0 0 1-.83-2.014q0-1.186.83-2.017A2.74 2.74 0 0 1 13 4.115h1.096v1.193H13q-.69 0-1.171.483a1.6 1.6 0 0 0-.483 1.173q0 .69.482 1.17.483.481 1.172.481h1.096v1.193zm2.904 0V8.615H17q.69 0 1.172-.483t.482-1.173-.482-1.17A1.6 1.6 0 0 0 17 5.307h-1.096V4.115H17q1.186 0 2.016.83t.83 2.014-.83 2.017A2.74 2.74 0 0 1 17 9.808zm-2.75-2.25V6.365h3.692v1.193zm2.667 5.99v-1.5H21v-9H9v8.711H7.5V1.548h15v12zM1.5 22.452V11.067h15v11.385zm1.5-1.5h12v-8.385H3z"/></svg>