<svg xmlns="http://www.w3.org/2000/svg" width="24" height="24" viewBox="0 0 24 24" fill='currentColor'><path d="M10.116 21.5v-5.77q0-1.182.426-2.19a5.7 5.7 0 0 1 1.17-1.771l.853.854q-.593.615-.925 1.4a4.3 4.3 0 0 0-.332 1.707v1.077H13.5V21.5zm-7.616-2V4.057H4V18h3.923v1.5zm11.777-7.997-.92-.919a5.6 5.6 0 0 1 2.45-.546q2.373 0 4.033 1.66t1.66 4.032v2.997l-1.192-1.193V15.73q0-1.875-1.313-3.187-1.312-1.313-3.187-1.313-.406 0-.784.065a4 4 0 0 0-.747.208m-6.354 5.24a3.34 3.34 0 0 1-1.936-1.133q-.776-.905-.776-2.149 0-1.386.98-2.366a3.23 3.23 0 0 1 2.367-.98 3.2 3.2 0 0 1 .737.084q.353.084.66.241a8 8 0 0 0-.492.605q-.233.316-.434.65a2 2 0 0 0-.236-.06 1.78 1.78 0 0 0-1.543.518 1.78 1.78 0 0 0-.538 1.308q0 .606.353 1.083.352.477.904.66-.03.169-.038.33a7 7 0 0 0-.008.33zM6.773 4l-1.5-1.5h9.342v5.434a6 6 0 0 0-1.5.39V4zm13.554 18.492L1.373 3.538l1.054-1.054 18.954 18.954z"/></svg>