<svg xmlns="http://www.w3.org/2000/svg" width="24" height="24" viewBox="0 0 24 24" fill='currentColor'><path d="m19.839 21.946-3.904-3.904-.908.908-.715-.715.907-.908-4.469-4.47v4.047q0 1.467-1.03 2.484a3.4 3.4 0 0 1-2.47 1.016 3.4 3.4 0 0 1-2.47-1.012q-1.03-1.01-1.03-2.488 0-1.448 1.026-2.474a3.37 3.37 0 0 1 2.474-1.026q.633 0 1.125.19.492.191.875.495v-2.731L2.208 4.316l1.054-1.054 17.63 17.63zm1.15-3.807-6.666-6.616.685-.684 2.846 2.846V9h.465l3.354 3.323-2.6 2.581 2.6 2.55zm-2.128-4.454 1.381-1.362-1.38-1.35zM10.75 7.9l-1.5-1.5V3.596h5.442v3.27H10.75z"/></svg>