<svg xmlns="http://www.w3.org/2000/svg" width="24" height="24" viewBox="0 0 24 24" fill='currentColor'><path d="M3.5 5.115v-1.5h11v1.5zm4.192 12.193h2.616v-2.5h2.5v-2.616h-2.5v-2.5H7.692v2.5h-2.5v2.615h2.5zM2.5 20.5v-14h13v14zM4 19h10V8H4zm14.885-5.164q-.876-.425-1.438-1.369t-.562-2.213q0-1.599.795-2.676T19.634 6.5q1.16 0 1.956 1.078.795 1.079.794 2.672 0 1.273-.562 2.217t-1.437 1.37V20.5h-1.5zm.751-1.336q.375 0 .812-.605.436-.604.436-1.645t-.437-1.646Q20.007 8 19.633 8t-.812.604q-.437.605-.437 1.646t.439 1.645.813.605"/></svg>