<svg xmlns="http://www.w3.org/2000/svg" width="24" height="24" viewBox="0 0 24 24" fill='currentColor'><path d="M9.904 17.539V14.23H8.5v-3.254q0-.517.71-.882.71-.364 1.79-.364t1.79.364.71.882v3.254h-1.404v3.307zM11 9.154q-.573 0-.96-.387a1.3 1.3 0 0 1-.386-.96q0-.572.386-.959.387-.386.96-.386t.96.386q.386.387.386.96t-.386.96a1.3 1.3 0 0 1-.96.386M11 20.5q-3.538 0-6.02-2.48Q2.5 15.537 2.5 12q0-1.77.67-3.315a8.6 8.6 0 0 1 1.819-2.697A8.6 8.6 0 0 1 7.685 4.17 8.3 8.3 0 0 1 11 3.5q1.77 0 3.315.67a8.6 8.6 0 0 1 2.697 1.819 8.6 8.6 0 0 1 1.819 2.696Q19.5 10.23 19.5 12v.806l1.988-2.014 1.07 1.044-3.808 3.808-3.808-3.808 1.07-1.044L18 12.781V12q0-2.9-2.05-4.95T11 5 6.05 7.05 4 12q.015 2.91 2.053 4.955T11 19q1.415 0 2.632-.518 1.216-.519 2.185-1.424l1.079 1.069a8.8 8.8 0 0 1-2.688 1.743A8.3 8.3 0 0 1 11 20.5"/></svg>