<svg xmlns="http://www.w3.org/2000/svg" width="24" height="24" viewBox="0 0 24 24" fill='currentColor'><path d="M12.002 22.5q-2.716 0-4.609-1.892T5.5 16V8q0-2.716 1.891-4.608T11.999 1.5t4.609 1.892T18.5 8v8q0 2.716-1.892 4.608-1.89 1.892-4.606 1.892M12 21q2.075 0 3.537-1.462Q17 18.074 17 16V8q0-2.075-1.463-3.537Q14.075 3 12 3T8.463 4.463Q7 5.925 7 8v8q0 2.075 1.463 3.538T12 21m.002-13.192q.546 0 .926-.382t.38-.928-.383-.926a1.27 1.27 0 0 0-.927-.38q-.546 0-.926.382t-.38.928.383.926q.381.38.927.38M9.098 12a.87.87 0 0 0 .643-.26.88.88 0 0 0 .259-.646.87.87 0 0 0-.26-.643.88.88 0 0 0-.646-.259.87.87 0 0 0-.643.26.88.88 0 0 0-.259.646.87.87 0 0 0 .26.643.88.88 0 0 0 .646.259m2.904 0a.87.87 0 0 0 .643-.26.88.88 0 0 0 .259-.646.87.87 0 0 0-.26-.643.88.88 0 0 0-.646-.259.87.87 0 0 0-.643.26.88.88 0 0 0-.259.646.87.87 0 0 0 .26.643.88.88 0 0 0 .646.259m2.903 0a.87.87 0 0 0 .644-.26.88.88 0 0 0 .259-.646.87.87 0 0 0-.26-.643.88.88 0 0 0-.646-.259.87.87 0 0 0-.643.26.88.88 0 0 0-.259.646.87.87 0 0 0 .26.643.88.88 0 0 0 .646.259m-5.807 2.904a.87.87 0 0 0 .643-.26.88.88 0 0 0 .259-.646.87.87 0 0 0-.26-.643.88.88 0 0 0-.646-.259.87.87 0 0 0-.643.26.88.88 0 0 0-.259.646.87.87 0 0 0 .26.643.88.88 0 0 0 .646.259m5.807 0a.87.87 0 0 0 .644-.26.88.88 0 0 0 .259-.646.87.87 0 0 0-.26-.643.88.88 0 0 0-.646-.259.87.87 0 0 0-.643.26.88.88 0 0 0-.259.646q0 .384.26.643a.88.88 0 0 0 .646.259m-2.903 0a.87.87 0 0 0 .643-.26.88.88 0 0 0 .259-.646.87.87 0 0 0-.26-.643.88.88 0 0 0-.646-.259.87.87 0 0 0-.643.26.88.88 0 0 0-.259.646q0 .384.26.643a.88.88 0 0 0 .646.259M9.1 17.808a.87.87 0 0 0 .643-.26.88.88 0 0 0 .259-.646.87.87 0 0 0-.26-.643.88.88 0 0 0-.646-.259.87.87 0 0 0-.643.26.88.88 0 0 0-.259.645.87.87 0 0 0 .26.644.88.88 0 0 0 .646.259m5.807 0a.87.87 0 0 0 .644-.26.88.88 0 0 0 .259-.646.87.87 0 0 0-.26-.643.88.88 0 0 0-.646-.259.87.87 0 0 0-.643.26.88.88 0 0 0-.259.645.87.87 0 0 0 .26.644.88.88 0 0 0 .646.259m-2.903 0a.87.87 0 0 0 .643-.26.88.88 0 0 0 .259-.646.87.87 0 0 0-.26-.643.88.88 0 0 0-.646-.259.87.87 0 0 0-.643.26.88.88 0 0 0-.259.645.87.87 0 0 0 .26.644.88.88 0 0 0 .646.259"/></svg>