<svg xmlns="http://www.w3.org/2000/svg" width="24" height="24" viewBox="0 0 24 24" fill='currentColor'><path d="M12 13.5q-1.048 0-1.774-.726A2.4 2.4 0 0 1 9.5 11V5q0-1.048.726-1.774A2.4 2.4 0 0 1 12 2.5q1.048 0 1.774.726T14.5 5v6q0 1.048-.726 1.774A2.4 2.4 0 0 1 12 13.5m-.75 7.25v-3.296q-2.475-.283-4.112-2.123T5.5 11H7q0 2.075 1.463 3.537Q9.926 16 12 16q2.075 0 3.537-1.463Q17 13.075 17 11h1.5q0 2.49-1.637 4.33-1.638 1.841-4.113 2.124v3.296zM12 12q.424 0 .713-.287A.97.97 0 0 0 13 11V5a.97.97 0 0 0-.287-.713A.97.97 0 0 0 12 4a.97.97 0 0 0-.713.287A.97.97 0 0 0 11 5v6q0 .424.287.713.288.287.713.287"/></svg>