<svg xmlns="http://www.w3.org/2000/svg" width="24" height="24" viewBox="0 0 24 24" fill='currentColor'><path d="m17.24 14.18-1.103-1.123q.244-.43.375-.955.132-.523.132-1.102h1.5q0 .927-.238 1.712a6 6 0 0 1-.666 1.468m-3.219-3.25-1.377-1.377V5a.97.97 0 0 0-.287-.713.97.97 0 0 0-.713-.287.97.97 0 0 0-.712.287.97.97 0 0 0-.288.713v2.534l-1.5-1.5V5q0-1.048.726-1.774a2.4 2.4 0 0 1 1.774-.726q1.048 0 1.774.726T14.144 5v5.346q0 .17-.038.307a6 6 0 0 1-.085.277m-3.127 9.82v-3.297q-2.474-.282-4.112-2.123Q5.144 13.49 5.144 11h1.5q0 2.074 1.447 3.537T11.644 16q.966 0 1.815-.345a4.9 4.9 0 0 0 1.502-.953l1.07 1.069a6.6 6.6 0 0 1-1.65 1.129 5.9 5.9 0 0 1-1.987.553v3.297zm8.973.965L1.68 3.526l1.054-1.053L20.92 20.66z"/></svg>