<svg xmlns="http://www.w3.org/2000/svg" width="24" height="24" viewBox="0 0 24 24" fill='currentColor'><path d="M7.366 20.75v-3.296Q4.89 17.17 3.253 15.33T1.616 11h1.5q0 2.075 1.462 3.537Q6.04 16 8.116 16q.16 0 .32-.005.16-.004.314-.04.248.366.532.693t.593.616q-.25.065-.492.107a19 19 0 0 1-.518.083v3.296zm.192-7.329a2.53 2.53 0 0 1-1.393-.856q-.55-.656-.55-1.565V5q0-1.048.727-1.774A2.4 2.4 0 0 1 8.116 2.5q1.047 0 1.774.726.725.726.725 1.774v3.808H7.192V11q0 .636.092 1.241.09.606.274 1.18m8.327.079q-1.049 0-1.774-.726A2.4 2.4 0 0 1 13.385 11V5q0-1.048.726-1.774a2.4 2.4 0 0 1 1.773-.726q1.049 0 1.774.726T18.385 5v6q0 1.048-.726 1.774a2.4 2.4 0 0 1-1.774.726m-.75 7.25v-3.296q-2.475-.283-4.113-2.123Q9.385 13.49 9.385 11h1.5q0 2.075 1.462 3.537Q13.809 16 15.884 16t3.538-1.463T20.884 11h1.5q0 2.49-1.637 4.33-1.637 1.841-4.113 2.124v3.296zm.75-8.75q.424 0 .712-.287a.97.97 0 0 0 .287-.713V5a.97.97 0 0 0-.287-.713.97.97 0 0 0-.713-.287.97.97 0 0 0-.712.287.97.97 0 0 0-.288.713v6q0 .424.288.713.288.287.712.287"/></svg>