<svg xmlns="http://www.w3.org/2000/svg" width="24" height="24" viewBox="0 0 24 24" fill='currentColor'><path d="m6.402 18.192-1.044-1.044A7.2 7.2 0 0 0 7.5 12a7.2 7.2 0 0 0-2.142-5.148l1.044-1.07a8.7 8.7 0 0 1 1.91 2.844 8.6 8.6 0 0 1 .663 3.349 8.74 8.74 0 0 1-2.573 6.217M3.804 15.58l-1.07-1.08a3.55 3.55 0 0 0 .783-3.877 3.5 3.5 0 0 0-.782-1.148l1.069-1.079a5 5 0 0 1 1.51 3.579q0 1.02-.393 1.957a5 5 0 0 1-1.117 1.647M11.25 20.5v-17h1.5v17zm7.5-7.75v-1.5h1.75v1.5zm-3.75 0v-1.5h1.75v1.5z"/></svg>