<svg xmlns="http://www.w3.org/2000/svg" width="24" height="24" viewBox="0 0 24 24" fill='currentColor'><path d="m6.402 18.192-1.044-1.044A7.2 7.2 0 0 0 7.5 12a7.2 7.2 0 0 0-2.142-5.148L6.1 6.1l1.917 1.917q.454.91.706 1.909t.252 2.059a8.7 8.7 0 0 1-.663 3.356 8.7 8.7 0 0 1-1.91 2.851M3.804 15.58l-1.07-1.08q.513-.502.783-1.156.272-.654.272-1.36a3.5 3.5 0 0 0-1.054-2.509l1.069-1.079q.725.71 1.117 1.64.393.93.392 1.949 0 1.02-.392 1.952a5 5 0 0 1-1.117 1.642M15.58 12.75l-.58-.58v-.92h1.75v1.5zm3.169 0v-1.5h1.75v1.5zm-6-2.83-1.5-1.5V3.5h1.5zm7.054 12.022-7.054-7.054V20.5h-1.5v-7.112L2.058 4.196l1.069-1.069 17.746 17.746z"/></svg>