<svg xmlns="http://www.w3.org/2000/svg" width="24" height="24" viewBox="0 0 24 24" fill='currentColor'><path d="M6.5 21.5v-4.03a9.4 9.4 0 0 1-2.213-2.98 8.15 8.15 0 0 1-.787-3.497q0-3.539 2.48-6.016Q8.457 2.5 12 2.5q2.914 0 5.21 1.742 2.298 1.74 2.984 4.518l1.452 5.74H18.5v5h-4v2H13V18h3.692a.3.3 0 0 0 .221-.087.3.3 0 0 0 .087-.22V13h2.7l-.95-3.875a6.5 6.5 0 0 0-2.46-3.705Q14.407 4 12 4 9.1 4 7.05 6.028T5 10.96q0 1.497.612 2.845a7.5 7.5 0 0 0 1.738 2.396L8 16.8v4.7zm4.75-7.75h1.5v-6.5h-1.5zm3-1.5h1.5v-4h-1.5zm-6-.5h1.5v-3.5h-1.5z"/></svg>