<svg xmlns="http://www.w3.org/2000/svg" width="24" height="24" viewBox="0 0 24 24" fill='currentColor'><path d="M8 6.332 5.356 3.688 6.4 2.644l2.644 2.644zm8 0-1.044-1.044L17.6 2.644l1.044 1.044zm-4.75-1.294v-4.5h1.5v4.5zM3.5 23.5v-8.423L5.806 8.5h12.388l2.306 6.577V23.5h-2.115v-2H5.615v2zm2.108-9.923h12.784L17.131 10H6.869zm1.856 5.269q.546 0 .925-.382.38-.382.38-.928t-.382-.926a1.27 1.27 0 0 0-.928-.38q-.546 0-.925.382-.38.383-.38.928 0 .546.382.926t.928.38m9.077 0q.546 0 .925-.382.38-.382.38-.928t-.382-.926a1.27 1.27 0 0 0-.928-.38q-.546 0-.926.382-.38.383-.38.928 0 .546.383.926.382.38.928.38M5 20h14v-4.923H5z"/></svg>