<svg xmlns="http://www.w3.org/2000/svg" width="24" height="24" viewBox="0 0 24 24" fill='currentColor'><path d="m8.038 21.712-1.5-1.125v-3.895H5.5a1.74 1.74 0 0 1-1.277-.53 1.74 1.74 0 0 1-.53-1.277V7.5h-.885V6h3.73V4.385H5.135v-1.5h4.307v1.5H8.038V6h3.731v1.5h-.885v7.384q0 .746-.53 1.277a1.74 1.74 0 0 1-1.277.531H8.038zm8.671-.52q-1.485 0-2.539-1.056t-1.054-2.54v-7.5q0-1.483 1.056-2.54T16.715 6.5t2.539 1.057q1.055 1.055 1.055 2.54v7.499q0 1.484-1.057 2.54t-2.542 1.056m-11.209-6h3.577a.3.3 0 0 0 .221-.086.3.3 0 0 0 .087-.222v-1.461H6.942v-1.192h2.443v-1.77H6.942V9.27h2.443V7.5H5.192v7.384a.3.3 0 0 0 .087.222.3.3 0 0 0 .221.086M16.716 8q-.868 0-1.484.612a2 2 0 0 0-.617 1.484v.25h4.193v-.25q0-.873-.612-1.484A2.02 2.02 0 0 0 16.716 8m-2.1 7.846h4.192v-4h-4.193zm2.096 3.846q.873 0 1.484-.616.612-.616.612-1.48v-.25h-4.193v.25q0 .865.616 1.48.616.616 1.48.616"/></svg>