<svg xmlns="http://www.w3.org/2000/svg" width="24" height="24" viewBox="0 0 24 24" fill='currentColor'><path d="M7 21V3v5.083-.025zm5.02-14.846q.375 0 .63-.255t.254-.63q0-.377-.255-.63a.86.86 0 0 0-.63-.254q-.377 0-.63.254a.86.86 0 0 0-.254.631q0 .375.254.63.255.255.631.254M10.714 22.5H5.5v-21h13.039v6.842a7 7 0 0 0-.744-.16 14 14 0 0 0-.757-.1V3H7v18h2.398q.233.43.566.77t.75.73m5.785.25q-2.62 0-4.46-1.856-1.84-1.855-1.79-4.48.048-2.505 1.853-4.312 1.807-1.806 4.311-1.854 2.625-.048 4.481 1.791 1.856 1.84 1.856 4.46v6.251zm.002-1.5q1.98 0 3.364-1.386 1.386-1.386 1.385-3.365t-1.386-3.364T16.5 11.75t-3.364 1.386T11.75 16.5t1.386 3.364q1.385 1.386 3.365 1.385m-.597-2v-2.154h-2.029v-1.192h2.029V13.75h1.192v2.154h2.029v1.192h-2.029v2.154z"/></svg>