<svg xmlns="http://www.w3.org/2000/svg" width="24" height="24" viewBox="0 0 24 24" fill='currentColor'><path d="M5.17 18.475A8.62 8.62 0 0 1 3.25 13q0-3.653 2.548-6.202T12 4.25h.806l-1.86-1.86 1.045-1.043L15.644 5l-3.653 3.654-1.07-1.07 1.835-1.834H12q-3.006 0-5.128 2.122Q4.75 9.995 4.75 13q0 1.257.393 2.376a7 7 0 0 0 1.105 2.03zm5.965-.128a2.54 2.54 0 0 0-.421-1.23 20 20 0 0 0-.81-1.14 11 11 0 0 1-.786-1.19 2.7 2.7 0 0 1-.349-1.344q0-1.334.948-2.283A3.1 3.1 0 0 1 12 10.212q1.334 0 2.283.948t.948 2.283q0 .73-.35 1.34-.348.61-.785 1.189-.435.579-.81 1.146a2.54 2.54 0 0 0-.42 1.229zm.019 2.5v-1.308h1.692v1.308zm7.677-2.372-1.079-1.069A7.07 7.07 0 0 0 19.25 13q0-1.63-.654-3.038a7 7 0 0 0-1.805-2.396l1.069-1.07a8.8 8.8 0 0 1 2.117 2.878q.773 1.667.773 3.626a8.62 8.62 0 0 1-1.92 5.475"/></svg>