<svg xmlns="http://www.w3.org/2000/svg" width="24" height="24" viewBox="0 0 24 24" fill='currentColor'><path d="M19.804 22.443 2.058 4.697l1.069-1.07L12 12.5l8.873 8.873zm-1.102-6.097-1.13-1.13A6 6 0 0 0 18 13q0-1.25-.462-2.362A6.1 6.1 0 0 0 16.2 8.65q-.5.326-1.051.488a4 4 0 0 1-1.127.162q-1.553 0-2.692-1.025a3.88 3.88 0 0 1-1.305-2.544 7 7 0 0 0-.52.452l-.49.477-1.079-1.079A15 15 0 0 1 9.59 4.152a20 20 0 0 1 1.91-1.257V5.3q0 1.063.732 1.782.733.718 1.793.718.459 0 .876-.18.415-.181.765-.502l.44-.444a7.2 7.2 0 0 1 2.487 2.699A7.55 7.55 0 0 1 19.5 13q0 .897-.202 1.744a7 7 0 0 1-.596 1.602M12 20.5q-3.14 0-5.32-2.18T4.5 13a8.6 8.6 0 0 1 .551-3.016q.55-1.474 1.568-2.849l1.079 1.079a9.7 9.7 0 0 0-1.271 2.38A7.1 7.1 0 0 0 6 13q0 1.512.722 2.814a5.74 5.74 0 0 0 1.986 2.1 1.74 1.74 0 0 1-.208-.864q0-.694.266-1.312.267-.618.765-1.107l2.315-2.26 1.06 1.06-2.331 2.27a2 2 0 0 0-.425.624q-.15.35-.15.725 0 .8.588 1.375.587.576 1.412.575.825 0 1.412-.575.588-.574.588-1.375 0-.4-.162-.728a2.3 2.3 0 0 0-.438-.606l.9-.9 3.238 3.238a7.6 7.6 0 0 1-2.452 1.794Q13.673 20.5 12 20.5"/></svg>