<svg xmlns="http://www.w3.org/2000/svg" width="24" height="24" viewBox="0 0 24 24" fill='currentColor'><path d="M4.438 15.965q0 .937.481 1.84.48.903 1.539 1.96l-1.085 1.03q-1.28-1.265-1.858-2.42a5.3 5.3 0 0 1-.577-2.394q0-.967.283-2.027t.889-2.439q.593-1.33.824-2.138.23-.809.23-1.533 0-.87-.514-1.708-.513-.838-1.656-1.83l1.014-1.1Q5.379 4.37 6.02 5.5t.642 2.344a7.2 7.2 0 0 1-.265 1.878q-.266.986-.875 2.347-.575 1.313-.83 2.204a6.2 6.2 0 0 0-.255 1.692m3.914-.015q0 .936.48 1.842.481.906 1.54 1.964l-1.086 1.029q-1.28-1.266-1.857-2.415a5.26 5.26 0 0 1-.577-2.39q0-.966.283-2.026.282-1.06.888-2.439.594-1.33.824-2.143t.23-1.537q0-.872-.514-1.704-.513-.833-1.655-1.825l1.013-1.11Q9.292 4.362 9.934 5.49q.643 1.129.643 2.345 0 .893-.265 1.875-.266.982-.876 2.344-.575 1.311-.83 2.204a6.2 6.2 0 0 0-.254 1.692m3.84 5.8V2.25h1.5v4.496l3.5-3.465 1.054 1.069-4.554 4.554v2.346h2.346l4.554-4.554 1.045 1.045-3.441 3.509h4.496v1.5h-4.496l3.465 3.485-1.069 1.069-4.553-4.554h-2.347v2.346l4.554 4.554-1.044 1.044-3.51-3.44v4.496z"/></svg>