<svg xmlns="http://www.w3.org/2000/svg" width="24" height="24" viewBox="0 0 24 24" fill='currentColor'><path d="M21.404 13.016q0 1.246-.714 1.932a2.36 2.36 0 0 1-1.698.687q-.255 0-.579-.104a2.2 2.2 0 0 1-.53-.24L11.658 9.06a5.4 5.4 0 0 1 .703-2.037q.55-.928 1.412-1.5a.67.67 0 0 0 .28-.316q.082-.195.082-.453a.6.6 0 0 0-.215-.477q-.215-.18-.578-.18-1.17 0-2.299.5-1.128.501-1.178 1.659 0 .39.12.755.12.366.311.731l-1.85-1.85Q8.54 4.36 9.95 3.478t3.388-.882q1.097 0 1.697.647.6.648.6 1.512 0 .591-.259 1.14-.258.547-.772.9-.55.35-.912.952-.36.603-.515 1.344.227.095.414.195.188.101.344.235l2.319-.86q.396-.14.75-.218a3.4 3.4 0 0 1 .74-.077q1.765 0 2.713 1.4.947 1.401.947 3.25m-.929 9.9-4.906-4.931a.3.3 0 0 1 .02.096v.096q-.201 1.36-1.47 2.294-1.271.933-3.423.933-1.092 0-1.711-.657a2.17 2.17 0 0 1-.62-1.539q0-.588.259-1.129.258-.54.772-.883.56-.36.916-.962.358-.603.511-1.324a6 6 0 0 1-.406-.194 2 2 0 0 1-.351-.237l-2.32.835q-.396.14-.762.23-.365.09-.753.09-1.546 0-2.59-1.235-1.045-1.235-1.045-3.414 0-1.284.7-1.952a2.35 2.35 0 0 1 1.679-.667q.334 0 .73.12.394.122.653.287L.964 3.404l1.069-1.069 19.511 19.512zm-1.483-8.781a.86.86 0 0 0 .65-.279q.262-.279.262-.84 0-1.065-.496-2.1t-1.665-1.05q-.214 0-.419.032a1.7 1.7 0 0 0-.418.127l-2.02.748q.118.246.184.467.066.22.082.418.887.21 1.565.7.679.49 1.385 1.377.171.183.407.291.238.11.483.109m-12.78 0q.249 0 .462-.058.213-.057.42-.127l2.029-.723a2.3 2.3 0 0 1-.236-1.029 5.2 5.2 0 0 1-1.504-.655q-.694-.447-1.093-.964-.35-.397-.723-.556a1.7 1.7 0 0 0-.66-.158.71.71 0 0 0-.585.285q-.226.285-.226.835 0 1.293.556 2.221.555.93 1.56.929m4.484 5.769q1.56 0 2.514-.637.955-.636.925-1.62 0-.3-.11-.732a3 3 0 0 0-.34-.815l-1.031-1.03a1 1 0 0 1-.27.038q-.245 1.05-.782 1.921a4.6 4.6 0 0 1-1.375 1.429.7.7 0 0 0-.258.314 1 1 0 0 0-.104.44q.03.311.25.502.22.19.581.19"/></svg>