<svg xmlns="http://www.w3.org/2000/svg" width="24" height="24" viewBox="0 0 24 24" fill='currentColor'><path d="M12 21.673q-3.9-3.348-5.825-6.199T4.25 10.2q0-3.635 2.34-5.792T12 2.25q3.214 0 5.554 2.283t2.196 6.273l2.35-2.35L23.144 9.5 19 13.644 14.856 9.5 15.9 8.456l2.35 2.35q.144-3.177-1.66-5.116Q14.785 3.75 12 3.75q-2.631 0-4.44 1.805T5.75 10.2q0 1.823 1.533 4.197T12 19.687q.5-.45 1.055-.996.555-.544.98-.97a2.2 2.2 0 0 1-.258-.59 2.4 2.4 0 0 1-.085-.631q0-.963.672-1.636A2.23 2.23 0 0 1 16 14.192q.963 0 1.636.672t.672 1.636-.672 1.636a2.23 2.23 0 0 1-1.636.672q-.22 0-.425-.035a1.7 1.7 0 0 1-.39-.113q-.706.73-1.5 1.486A47 47 0 0 1 12 21.673"/></svg>