<svg xmlns="http://www.w3.org/2000/svg" width="24" height="24" viewBox="0 0 24 24" fill='currentColor'><path d="M7.05 16.75a5.6 5.6 0 0 1-2.647-2.023q-1.028-1.421-1.028-3.256 0-1.667.736-2.993a11 11 0 0 1 1.658-2.29q.924-.963 1.774-1.546.852-.585 1.082-.757v1.802q0 .787.556 1.336.555.548 1.344.548.36 0 .679-.14t.557-.387l.316-.323q.787.511 1.35 1.216.566.704.867 1.569l-1.242 1.242a4.1 4.1 0 0 0-.973-2.08q-.351.21-.747.306a3.4 3.4 0 0 1-.807.097q-1.11 0-1.992-.646-.883-.645-1.225-1.71a9.7 9.7 0 0 0-1.73 2.159 5.03 5.03 0 0 0-.703 2.597q0 .986.434 1.814a3.76 3.76 0 0 0 1.158 1.342.7.7 0 0 1-.076-.337q.03-.46.239-.87a2.9 2.9 0 0 1 .53-.73L9 10.85l1.852 1.821q.03.03.062.077.03.046.061.077l-1.07 1.07-.053-.078-.054-.061L9 12.973l-.787.787a1.3 1.3 0 0 0-.246.335.9.9 0 0 0-.092.41q0 .291.146.519t.383.372zm-.515 5.433L5.48 21.129 20.129 6.481l1.054 1.054-4.196 4.196h4.196v1.5h-5.706l-1.096 1.096 1.721 1.721h5.08v1.5h-3.58l2.763 2.764-1.053 1.053-2.764-2.763v3.58h-1.5v-5.08l-1.721-1.721-1.106 1.105v5.697h-1.5v-4.196z"/></svg>