<svg xmlns="http://www.w3.org/2000/svg" width="24" height="24" viewBox="0 0 24 24" fill='currentColor'><path d="M6 14q0 1.512.722 2.814a5.74 5.74 0 0 0 1.986 2.1 1.74 1.74 0 0 1-.208-.864q0-.695.267-1.308a3.6 3.6 0 0 1 .764-1.111L12 13.202l2.479 2.429q.498.498.76 1.111a3.3 3.3 0 0 1 .261 1.308q0 .231-.048.441a1.7 1.7 0 0 1-.16.423 5.74 5.74 0 0 0 1.986-2.1A5.7 5.7 0 0 0 18 14q0-1.25-.462-2.362A6.1 6.1 0 0 0 16.2 9.65a3.95 3.95 0 0 1-2.175.65q-1.56 0-2.697-1.025a3.88 3.88 0 0 1-1.303-2.544A14 14 0 0 0 8.3 8.434q-.75.888-1.263 1.81a8.5 8.5 0 0 0-.774 1.872A7 7 0 0 0 6 14m6 1.3-1.425 1.4a2 2 0 0 0-.425.625q-.15.35-.15.725 0 .8.588 1.375.587.576 1.412.575.825 0 1.412-.575.588-.574.588-1.375 0-.4-.15-.737-.15-.338-.425-.613zm-.5-11.405V6.3q0 1.062.732 1.781.732.72 1.793.72.459 0 .876-.174.415-.173.765-.51l.44-.443a7.2 7.2 0 0 1 2.487 2.699A7.55 7.55 0 0 1 19.5 14q0 3.14-2.18 5.32Q15.137 21.5 12 21.5t-5.32-2.18Q4.5 17.14 4.5 14q0-2.897 1.888-5.577 1.89-2.679 5.112-4.528"/></svg>