<svg xmlns="http://www.w3.org/2000/svg" width="24" height="24" viewBox="0 0 24 24" fill='currentColor'><path d="M11.25 17.087h1.5V20h4.827v1.5H6.433V20h4.817zM8.116 2.5h7.768q1.497 0 2.556 1.06a3.48 3.48 0 0 1 1.06 2.556v9.336q0 1.33-.929 2.247-.93.916-2.235.916h-2.201v-2.913h-4.27v2.913H7.663q-1.33 0-2.246-.916-.917-.916-.917-2.247V6.116q0-1.497 1.047-2.556Q6.594 2.5 8.116 2.5M6 11.77v3.682q0 .708.478 1.185a1.6 1.6 0 0 0 1.186.479h.702v-2.914h7.268v2.914h.703q.692 0 1.178-.479.485-.477.485-1.185v-3.683zm0-4.885v3.384h12V6.885zM8.116 4q-.69 0-1.205.39a2.13 2.13 0 0 0-.732.995H17.82a2.1 2.1 0 0 0-.74-.994A1.95 1.95 0 0 0 15.885 4zm0 1.385h9.705H6.18z"/></svg>