<svg xmlns="http://www.w3.org/2000/svg" width="24" height="24" viewBox="0 0 24 24" fill='currentColor'><path d="M6.23 13.5q-.618 0-1.058-.44A1.44 1.44 0 0 1 4.73 12q0-.619.44-1.06.44-.44 1.06-.44.618 0 1.06.44.44.442.44 1.06t-.44 1.06q-.442.44-1.06.44m5.77 0q-.619 0-1.06-.44A1.44 1.44 0 0 1 10.5 12q0-.619.44-1.06.442-.44 1.06-.44t1.06.44q.44.442.44 1.06t-.44 1.06q-.441.44-1.06.44m5.77 0q-.62 0-1.06-.44a1.44 1.44 0 0 1-.44-1.06q0-.619.44-1.06.44-.44 1.06-.44.618 0 1.058.44.441.442.441 1.06t-.44 1.06q-.44.44-1.06.44"/></svg>