<svg xmlns="http://www.w3.org/2000/svg" width="24" height="24" viewBox="0 0 24 24" fill='currentColor'><path d="M12 2.538q2.698 0 4.599 1.901 1.9 1.9 1.901 4.6v2.772a4.3 4.3 0 0 0-1.5-.02v-1.253h-3.783L11.25 8.555V4.1a4.6 4.6 0 0 0-1.601.51 5 5 0 0 0-1.312 1.017l-1.054-1.07A6.6 6.6 0 0 1 9.389 3.08 6.3 6.3 0 0 1 12 2.54M6.13 6.271l4.284 4.267H7V15q0 2.075 1.463 3.537Q9.926 20 12 20a3 3 0 0 0 .625-.062v1.515a2 2 0 0 1-.305.039 6 6 0 0 1-.32.008q-2.698 0-4.599-1.901-1.9-1.901-1.901-4.6V9.04a6.3 6.3 0 0 1 .63-2.768m6.62 2.767H17q0-1.887-1.224-3.28Q14.552 4.362 12.75 4.1zm7.667 13.627L1.364 3.595l1.053-1.053 19.07 19.07zM14.74 21.5v-4.77h1.866l3.884 3.885v.885zm4.77-4.623-.885-.882v-.265a.97.97 0 0 0-.288-.712.97.97 0 0 0-.712-.288q-.05 0-.11.005a.5.5 0 0 0-.111.02l-.673-.673q.206-.105.427-.17.223-.066.467-.066.787 0 1.335.549.55.549.55 1.335z"/></svg>