<svg xmlns="http://www.w3.org/2000/svg" width="24" height="24" viewBox="0 0 24 24" fill='currentColor'><path d="M14.74 21.5v-4.77h1v-1q0-.787.55-1.335a1.82 1.82 0 0 1 1.335-.55q.787 0 1.335.55.55.549.55 1.335v1h.99v4.77zm1.885-4.77h2v-1a.97.97 0 0 0-.288-.712.97.97 0 0 0-.712-.288.97.97 0 0 0-.712.288.97.97 0 0 0-.288.712zM12 21.5q-2.698 0-4.599-1.901-1.9-1.901-1.901-4.6V9.04q0-2.7 1.901-4.6 1.9-1.9 4.599-1.9 2.698 0 4.599 1.9 1.9 1.9 1.901 4.6v2.772a4.3 4.3 0 0 0-1.5-.02v-1.253H7V15q0 2.075 1.463 3.537Q9.926 20 12 20a3 3 0 0 0 .625-.062v1.515q-.156.03-.305.039a6 6 0 0 1-.32.008M7 9.038h4.25V4.1q-1.802.263-3.026 1.657T7 9.038m5.75 0H17q0-1.887-1.224-3.28Q14.552 4.362 12.75 4.1z"/></svg>