<svg xmlns="http://www.w3.org/2000/svg" width="24" height="24" viewBox="0 0 24 24" fill='currentColor'><path d="M7.154 19.5 3.5 15.846l3.654-3.654 1.069 1.054-1.85 1.85h5.233v1.5H6.373l1.835 1.85zm7.25-2.856a.77.77 0 0 1-.569-.229.77.77 0 0 1-.23-.568q0-.34.23-.569a.77.77 0 0 1 .568-.23q.339 0 .57.23.228.229.229.568a.77.77 0 0 1-.23.569.77.77 0 0 1-.567.23m3.596 0a.77.77 0 0 1-.568-.229.77.77 0 0 1-.23-.568q0-.34.23-.569a.77.77 0 0 1 .568-.23q.339 0 .568.23a.77.77 0 0 1 .23.568.77.77 0 0 1-.23.569.77.77 0 0 1-.568.23m-1.154-4.836-1.069-1.044 1.86-1.86h-5.243v-1.5h5.233l-1.835-1.85L16.846 4.5 20.5 8.154zM6 8.952a.77.77 0 0 1-.568-.23.77.77 0 0 1-.23-.568q0-.338.23-.569a.77.77 0 0 1 .567-.23q.34 0 .57.23t.229.568a.77.77 0 0 1-.23.569.77.77 0 0 1-.567.23m3.597 0a.77.77 0 0 1-.57-.23.77.77 0 0 1-.229-.568q0-.338.23-.569a.77.77 0 0 1 .567-.23q.339 0 .57.23t.23.568a.77.77 0 0 1-.23.569.77.77 0 0 1-.568.23"/></svg>