<svg xmlns="http://www.w3.org/2000/svg" width="24" height="24" viewBox="0 0 24 24" fill='currentColor'><path d="M8.25 5.25v-.942q0-.748.53-1.278t1.278-.53h3.884q.749 0 1.278.53.53.53.53 1.278v.942h2.942q.749 0 1.278.53.53.53.53 1.278v11.634q0 .749-.53 1.278-.53.53-1.278.53H5.308q-.748 0-1.278-.53a1.74 1.74 0 0 1-.53-1.278V7.058q0-.748.53-1.278t1.278-.53zM5.308 19h13.384a.3.3 0 0 0 .221-.087.3.3 0 0 0 .087-.22V10h-2.25v1.75q0 .749-.53 1.278-.53.53-1.278.53H9.058q-.749 0-1.278-.53a1.74 1.74 0 0 1-.53-1.278V10H5v8.692a.3.3 0 0 0 .087.221.3.3 0 0 0 .22.087M8 17.692a.85.85 0 0 1-.626-.258.85.85 0 0 1-.258-.626q0-.368.258-.626A.85.85 0 0 1 8 15.923q.368 0 .626.259.258.257.258.626a.85.85 0 0 1-.258.626.85.85 0 0 1-.626.258m4 0a.85.85 0 0 1-.626-.258.85.85 0 0 1-.258-.626q0-.368.258-.626a.85.85 0 0 1 .626-.259q.368 0 .626.259.258.257.258.626a.85.85 0 0 1-.258.626.85.85 0 0 1-.626.258m4 0a.85.85 0 0 1-.626-.258.85.85 0 0 1-.258-.626q0-.368.258-.626a.85.85 0 0 1 .626-.259q.367 0 .626.259.258.257.258.626a.85.85 0 0 1-.258.626.85.85 0 0 1-.626.258m-6.942-5.634h5.884a.3.3 0 0 0 .222-.087.3.3 0 0 0 .086-.221V10h-6.5v1.75a.3.3 0 0 0 .086.221.3.3 0 0 0 .222.087M5 8.5h14V7.058a.3.3 0 0 0-.087-.221.3.3 0 0 0-.22-.087H5.307a.3.3 0 0 0-.221.087.3.3 0 0 0-.087.22zm4.75-3.25h4.5v-.942a.3.3 0 0 0-.086-.221.3.3 0 0 0-.222-.087h-3.884a.3.3 0 0 0-.222.087.3.3 0 0 0-.086.22z"/></svg>