<svg xmlns="http://www.w3.org/2000/svg" width="24" height="24" viewBox="0 0 24 24" fill='currentColor'><path d="m8.52 14.365 1.596-.48 1.595.48v-.634l-1-.712v-2.73l3.25 1.038v-.788l-3.25-1.962V6.3a.66.66 0 0 0-.177-.444.54.54 0 0 0-.418-.202.53.53 0 0 0-.428.202.68.68 0 0 0-.169.444v2.277l-3.25 1.962v.788l3.25-1.038v2.73l-1 .712zm7.147 6.873-1.046-.974a36 36 0 0 0 3.707-4.814q1.663-2.58 1.663-5.202 0-1.898-.605-3.622-.606-1.724-1.645-2.909l1.098-.975q1.226 1.355 1.939 3.29.712 1.935.712 4.216 0 2.91-1.775 5.738a34.5 34.5 0 0 1-4.048 5.252m-5.61-1.724q2.935-2.628 4.492-5.04t1.557-4.226q0-2.735-1.738-4.496t-4.31-1.761-4.311 1.761-1.738 4.496q0 1.814 1.557 4.226t4.492 5.04m0 1.995q-3.774-3.27-5.66-6.088T2.51 10.248q0-3.462 2.239-5.605Q6.989 2.5 10.058 2.5t5.308 2.143 2.24 5.605q0 2.356-1.887 5.173-1.886 2.817-5.661 6.089"/></svg>