<svg xmlns="http://www.w3.org/2000/svg" width="24" height="24" viewBox="0 0 24 24" fill='currentColor'><path d="M11.577 22.24H6.614L1.08 16.702l1.302-1.352 2.79.739V7.25h1.5v10.825l-2.844-.758 3.404 3.423h4.344q.928 0 1.589-.66t.661-1.59v-4.336h1.5v4.336q0 1.554-1.098 2.652a3.6 3.6 0 0 1-2.652 1.098m-3.52-6.711v-4.76h1.5v4.76zm2.885 0V11.96h1.5v3.568zm5.125-5.068a7.1 7.1 0 0 1-3.791-1.07 6.95 6.95 0 0 1-2.641-2.91 6.95 6.95 0 0 1 2.641-2.91A7.1 7.1 0 0 1 16.067 2.5q2.054 0 3.792 1.07A6.95 6.95 0 0 1 22.5 6.48a6.95 6.95 0 0 1-2.642 2.911 7.1 7.1 0 0 1-3.791 1.07m-.001-1.5q1.407 0 2.655-.659a5.84 5.84 0 0 0 2.067-1.821 5.84 5.84 0 0 0-2.065-1.821A5.6 5.6 0 0 0 16.069 4q-1.407 0-2.655.66a5.8 5.8 0 0 0-2.068 1.82 5.84 5.84 0 0 0 2.066 1.822q1.247.66 2.654.66m.003-1.23q-.521 0-.886-.364a1.2 1.2 0 0 1-.366-.885q0-.52.364-.886.364-.365.885-.365.52 0 .886.364.365.365.365.885t-.364.885a1.2 1.2 0 0 1-.884.366"/></svg>