<svg xmlns="http://www.w3.org/2000/svg" width="24" height="24" viewBox="0 0 24 24" fill='currentColor'><path d="M14.106 19.5q-1.444 0-2.472-1.028T10.606 16t1.028-2.471 2.472-1.029q.575 0 1.077.172.501.171.923.513V4.347h5.442V7h-3.942v9q0 1.444-1.028 2.472T14.106 19.5M2.452 16q0-2.407.921-4.527A11.9 11.9 0 0 1 5.876 7.77a11.9 11.9 0 0 1 3.705-2.503 11.25 11.25 0 0 1 4.525-.921v1.5a9.8 9.8 0 0 0-3.933.8 10.3 10.3 0 0 0-3.237 2.182 10.3 10.3 0 0 0-2.184 3.224 9.8 9.8 0 0 0-.8 3.947zm4.077 0q0-1.563.604-2.948a7.64 7.64 0 0 1 4.037-4.036 7.3 7.3 0 0 1 2.936-.593v1.5q-2.529 0-4.303 1.773T8.029 16z"/></svg>