<svg xmlns="http://www.w3.org/2000/svg" width="24" height="24" viewBox="0 0 24 24" fill='currentColor'><path d="M11 18q2.9 0 4.95-2.042T18 11q0-2.9-2.05-4.95T11 4Q8.085 4 6.042 6.05 4 8.1 4 11q0 2.915 2.042 4.958Q8.084 18 11 18m0-3.154q-2.017 0-3.582-1.06A6 6 0 0 1 5.164 11q.69-1.703 2.254-2.774Q8.982 7.154 11 7.154q1.992 0 3.557 1.072T16.827 11a6.1 6.1 0 0 1-2.27 2.787q-1.565 1.06-3.557 1.06m0-1.192q1.423 0 2.621-.706A5.07 5.07 0 0 0 15.508 11a5.16 5.16 0 0 0-1.887-1.94A5.03 5.03 0 0 0 11 8.346q-1.439 0-2.641.713A5.14 5.14 0 0 0 6.467 11 5.12 5.12 0 0 0 11 13.654m0-1.154q.624 0 1.063-.43A1.44 1.44 0 0 0 12.5 11q0-.625-.437-1.062A1.45 1.45 0 0 0 11 9.5a1.44 1.44 0 0 0-1.07.438A1.46 1.46 0 0 0 9.5 11q0 .64.43 1.07t1.07.43m0 7a8.3 8.3 0 0 1-3.315-.67 8.6 8.6 0 0 1-2.696-1.818 8.6 8.6 0 0 1-1.82-2.697A8.3 8.3 0 0 1 2.5 11q0-1.755.67-3.3a8.7 8.7 0 0 1 1.819-2.704A8.5 8.5 0 0 1 7.685 3.17 8.3 8.3 0 0 1 11 2.5q1.755 0 3.3.67a8.6 8.6 0 0 1 2.704 1.826A8.6 8.6 0 0 1 18.83 7.7q.669 1.545.669 3.3a8.2 8.2 0 0 1-.53 2.948 8.9 8.9 0 0 1-1.464 2.514l3.994 3.994-1.06 1.044-3.994-3.979a8.7 8.7 0 0 1-2.513 1.457A8.3 8.3 0 0 1 11 19.5"/></svg>