<svg xmlns="http://www.w3.org/2000/svg" width="24" height="24" viewBox="0 0 24 24" fill='currentColor'><path d="M12.192 16.596q-1.25 0-2.125.863-.875.862-.875 2.137v1h6v-1q0-1.275-.862-2.137-.863-.863-2.138-.863M8 8.25a4.15 4.15 0 0 0 1.13 2.907 4.35 4.35 0 0 0 2.795 1.418l4.302.435V3.5l-4.302.4a4.22 4.22 0 0 0-2.8 1.406Q8 6.547 8 8.25m8.692 13.846h-9v-2.5q0-1.89 1.316-3.194 1.318-1.305 3.184-1.305a4.5 4.5 0 0 1 1.044.119l.608-.946-2.061-.195q-2.238-.23-3.76-1.898Q6.5 10.51 6.5 8.255q0-2.277 1.512-3.946 1.514-1.668 3.77-1.918l5.945-.542v12.798l-2.18-.2-.01-.01-.912 1.367q.936.599 1.502 1.592.565.993.565 2.2z"/></svg>