<svg xmlns="http://www.w3.org/2000/svg" width="24" height="24" viewBox="0 0 24 24" fill='currentColor'><path d="M9.173 20.289q-1.476 0-2.526-1.05t-1.05-2.527v-8.48q0-1.884 1.321-3.202t3.198-1.318h3.768q1.884 0 3.201 1.318 1.32 1.318 1.319 3.201v8.48q0 1.477-1.051 2.527t-2.526 1.05zm0-1.5h5.654a2 2 0 0 0 1.467-.61 2 2 0 0 0 .61-1.467v-8.48q0-1.259-.88-2.14a2.9 2.9 0 0 0-2.14-.88h-3.768q-1.259 0-2.14.88-.88.881-.88 2.14v8.48a2 2 0 0 0 .61 1.467 2 2 0 0 0 1.467.61m0-5.904a.85.85 0 0 0 .626-.259.85.85 0 0 0 .259-.626.85.85 0 0 0-.259-.626.85.85 0 0 0-.626-.258.85.85 0 0 0-.626.258.85.85 0 0 0-.258.626q0 .368.258.626.259.26.626.259m2.827 0a.85.85 0 0 0 .626-.259.85.85 0 0 0 .258-.626.85.85 0 0 0-.258-.626.85.85 0 0 0-.626-.258.85.85 0 0 0-.626.258.85.85 0 0 0-.258.626q0 .368.258.626a.85.85 0 0 0 .626.259m2.827 0a.85.85 0 0 0 .626-.259.85.85 0 0 0 .258-.626.85.85 0 0 0-.258-.626.85.85 0 0 0-.626-.258.85.85 0 0 0-.626.258.85.85 0 0 0-.259.626q0 .368.259.626a.85.85 0 0 0 .626.259"/></svg>