<svg xmlns="http://www.w3.org/2000/svg" width="24" height="24" viewBox="0 0 24 24" fill='currentColor'><path d="M9 15h6.25a2.15 2.15 0 0 0 1.599-.665 2.2 2.2 0 0 0 .651-1.587q0-.92-.623-1.57a2.17 2.17 0 0 0-1.546-.678h-.356l-.106-.365a2.87 2.87 0 0 0-1.071-1.548 2.95 2.95 0 0 0-1.8-.587q-.878 0-1.604.466-.725.465-1.092 1.27l-.125.28h-.298a2.4 2.4 0 0 0-1.69.76 2.4 2.4 0 0 0-.689 1.72q0 1.043.73 1.773Q7.957 15 9 15m0-1.5a.97.97 0 0 1-.713-.287A.97.97 0 0 1 8 12.5q0-.425.275-.7.274-.274.675-.3h1.2l.5-1.125q.199-.425.563-.65.362-.225.787-.225.5 0 .9.287.4.288.525.788l.4 1.425h1.45q.325 0 .525.213.2.212.2.537 0 .3-.213.525a.7.7 0 0 1-.537.225zm3.002 8a9.3 9.3 0 0 1-3.706-.748 9.6 9.6 0 0 1-3.016-2.03 9.6 9.6 0 0 1-2.032-3.016 9.25 9.25 0 0 1-.748-3.704q0-1.972.748-3.706a9.6 9.6 0 0 1 2.03-3.016 9.6 9.6 0 0 1 3.016-2.032 9.25 9.25 0 0 1 3.704-.748q1.972 0 3.706.748a9.6 9.6 0 0 1 3.017 2.03 9.6 9.6 0 0 1 2.03 3.016 9.25 9.25 0 0 1 .749 3.704q0 1.972-.748 3.706a9.6 9.6 0 0 1-2.03 3.017 9.6 9.6 0 0 1-3.016 2.03 9.25 9.25 0 0 1-3.704.749M12 20q3.35 0 5.675-2.325T20 12t-2.325-5.675T12 4 6.325 6.325 4 12t2.325 5.675T12 20"/></svg>