<svg xmlns="http://www.w3.org/2000/svg" width="24" height="24" viewBox="0 0 24 24" fill='currentColor'><path d="M8.865 5q-1.594 0-2.73 1.136Q5.002 7.27 5 8.866v6.269q0 .153.024.279.024.125.072.24h13.808q.048-.116.072-.24.024-.126.024-.28V8.866q0-1.594-1.136-2.73Q16.73 5.002 15.135 5zm0 15.5q-2.235 0-3.8-1.565t-1.565-3.8v-6.27q0-2.235 1.565-3.8t3.8-1.565h6.27q2.235 0 3.8 1.565t1.565 3.8v6.27q0 2.235-1.565 3.8t-3.8 1.565zM9.04 19q0-.396.265-.66a.9.9 0 0 1 .657-.263q.393 0 .658.265a.9.9 0 0 1 .265.658h2.232q0-.396.265-.66a.9.9 0 0 1 .658-.263q.391 0 .657.265a.9.9 0 0 1 .265.658q1.242 0 2.083-.492a3.9 3.9 0 0 0 1.367-1.354H17q0 .391-.265.657a.9.9 0 0 1-.658.266.9.9 0 0 1-.658-.266.9.9 0 0 1-.265-.657h-2.231a.9.9 0 0 1-.265.66.9.9 0 0 1-.658.263.9.9 0 0 1-.658-.266.9.9 0 0 1-.265-.657h-2.23a.9.9 0 0 1-.266.66.9.9 0 0 1-.658.263.9.9 0 0 1-.657-.266.9.9 0 0 1-.266-.657H5.588q.525.861 1.368 1.354.841.492 2.083.492m-.174-3.346H19 5z"/></svg>