<svg xmlns="http://www.w3.org/2000/svg" width="24" height="24" viewBox="0 0 24 24" fill='currentColor'><path d="M13.892 19.615a.9.9 0 0 1-.634.338.9.9 0 0 1-.685-.223l-3.536-2.96a5.4 5.4 0 0 1-1.656-2.352 5.54 5.54 0 0 1-.256-2.85L5.831 10.48a.87.87 0 0 1-.323-.604.93.93 0 0 1 .198-.665l.144-.173H4.23v2.375q0 .614-.443 1.057a1.44 1.44 0 0 1-1.056.443v-9.25q.613 0 1.057.443.443.444.443 1.057v2.375h2.856l1.579-1.913a.95.95 0 0 1 .644-.33.9.9 0 0 1 .675.214l1.269 1.064a5.4 5.4 0 0 1 2.869-.271q1.46.256 2.614 1.219l3.536 2.96q.296.255.329.634a.85.85 0 0 1-.213.66zm-.784-1.43 5.784-6.945-3.138-2.579a3.64 3.64 0 0 0-2.282-.834 6.4 6.4 0 0 0-2.497.463L9.45 7.03 7.237 9.696l1.49 1.24a6.4 6.4 0 0 0-.003 2.563q.259 1.27 1.27 2.106z"/></svg>