<svg xmlns="http://www.w3.org/2000/svg" width="24" height="24" viewBox="0 0 24 24" fill='currentColor'><path d="M9.5 21.75q-1.353 0-2.302-.948-.948-.949-.948-2.302V4.058q0-.748.53-1.278t1.278-.53h2.884q.749 0 1.278.53.53.53.53 1.278V18.5q0 1.354-.948 2.302-.949.948-2.302.948m-1.75-5.91q.408-.309.838-.45.429-.14.912-.14t.912.14.838.45V4.059a.3.3 0 0 0-.086-.221.3.3 0 0 0-.222-.087H8.058a.3.3 0 0 0-.221.087.3.3 0 0 0-.087.22zm1.75 4.41q.72 0 1.236-.515.514-.513.514-1.235 0-.721-.514-1.235A1.68 1.68 0 0 0 9.5 16.75q-.721 0-1.235.515A1.68 1.68 0 0 0 7.75 18.5q0 .721.515 1.235.513.515 1.235.515m7.558-2.5q-.748 0-1.278-.53a1.74 1.74 0 0 1-.53-1.278V8.058q0-.748.53-1.278t1.278-.53h.884q.749 0 1.278.53.53.53.53 1.278v7.884q0 .749-.53 1.278-.53.53-1.278.53zm0-1.5h.884a.3.3 0 0 0 .221-.087.3.3 0 0 0 .087-.22V8.057a.3.3 0 0 0-.087-.221.3.3 0 0 0-.22-.087h-.885a.3.3 0 0 0-.221.087.3.3 0 0 0-.087.22v7.885a.3.3 0 0 0 .087.221.3.3 0 0 0 .22.087m0 0h-.308 1.5z"/></svg>