<svg xmlns="http://www.w3.org/2000/svg" width="24" height="24" viewBox="0 0 24 24" fill='currentColor'><path d="M11.999 16.75q.52 0 .885-.364.366-.364.366-.885 0-.52-.364-.885A1.2 1.2 0 0 0 12 14.25q-.52 0-.885.364a1.2 1.2 0 0 0-.366.885q0 .52.364.885.365.366.885.366M9 21.5q-1.764 0-2.842-.976-1.077-.975-1.67-2.414a12 12 0 0 1-.79-3.095 25 25 0 0 1-.198-2.99q0-2.397.367-4.166.366-1.77 1.337-2.98.968-1.202 2.595-1.79 1.629-.59 4.2-.589 2.573 0 4.2.589 1.63.588 2.597 1.79.97 1.21 1.337 2.98t.367 4.166q0 1.356-.198 2.99a12 12 0 0 1-.79 3.095q-.593 1.438-1.67 2.414-1.077.975-2.842.976zM8.975 20h6q1.32 0 2.101-.884.78-.885 1.205-2.16t.555-2.63.13-2.301q0-2.077-.26-3.585-.26-1.507-1.035-2.492-.77-.994-2.127-1.471Q14.186 4 11.975 4t-3.57.477Q7.05 4.954 6.28 5.948q-.776.984-1.035 2.492-.26 1.507-.26 3.585 0 .945.13 2.3t.555 2.63 1.205 2.16 2.1.885"/></svg>