<svg xmlns="http://www.w3.org/2000/svg" width="24" height="24" viewBox="0 0 24 24" fill='currentColor'><path d="M9.5 7.675a5.3 5.3 0 0 0-1.979 1.752A5.35 5.35 0 0 0 6.6 12L6 19h12l-.6-7a5.2 5.2 0 0 0-.896-2.588A5.24 5.24 0 0 0 14.5 7.659V10q0 1.048-.726 1.774A2.4 2.4 0 0 1 12 12.5q-1.048 0-1.774-.726A2.4 2.4 0 0 1 9.5 10zM12 11q.424 0 .713-.287A.97.97 0 0 0 13 10V6a.97.97 0 0 0-.287-.713A.97.97 0 0 0 12 5a.97.97 0 0 0-.713.287A.97.97 0 0 0 11 6v4q0 .424.287.713.288.287.713.287m0-7.5q.986 0 1.69.641.702.641.795 1.613v.212a6.8 6.8 0 0 1 3.048 2.25q1.216 1.564 1.377 3.623l.736 8.661H4.363l.737-8.661q.175-2.058 1.38-3.616a6.77 6.77 0 0 1 3.035-2.242v-.212a2.45 2.45 0 0 1 .795-1.62A2.4 2.4 0 0 1 12 3.5"/></svg>