<svg xmlns="http://www.w3.org/2000/svg" width="24" height="24" viewBox="0 0 24 24" fill='currentColor'><path d="M20.164 11.693q-.491 0-.842-.351a1.15 1.15 0 0 1-.35-.842V4.904q0-.49.35-.841.352-.351.841-.351.49 0 .842.35.35.352.35.842V10.5q0 .49-.35.842a1.15 1.15 0 0 1-.841.35m-10.164 0q-1.444 0-2.472-1.028T6.5 8.193 7.528 5.72Q8.557 4.692 10 4.693t2.472 1.028T13.5 8.193t-1.028 2.472T10 11.693m-7.5 7.615v-2.223q0-.743.396-1.364t1.07-.96q1.423-.69 2.94-1.072a12.7 12.7 0 0 1 3.096-.38q1.577 0 3.093.38t2.94 1.073q.672.336 1.069.959t.396 1.364v2.223zm1.5-1.5h12v-.723a.98.98 0 0 0-.178-.577 1.3 1.3 0 0 0-.476-.408q-1.246-.63-2.592-.961a11.5 11.5 0 0 0-2.754-.33 11.5 11.5 0 0 0-2.753.33q-1.347.33-2.593.961a1.3 1.3 0 0 0-.476.408.98.98 0 0 0-.178.577zm6-7.615q.825 0 1.412-.588Q12 9.017 12 8.193q0-.825-.588-1.413A1.93 1.93 0 0 0 10 6.193q-.825 0-1.412.587A1.93 1.93 0 0 0 8 8.193q0 .825.588 1.412.587.588 1.412.588"/></svg>