<svg xmlns="http://www.w3.org/2000/svg" width="24" height="24" viewBox="0 0 24 24" fill='currentColor'><path d="M8.125 20.5q-1.943 0-3.284-1.341T3.5 15.875v-7.75q0-1.937 1.341-3.28Q6.182 3.5 8.125 3.5h7.75q1.937 0 3.28 1.344Q20.5 6.188 20.5 8.125v7.75q0 1.943-1.344 3.284T15.875 20.5zm0-1.5h7.75q1.323 0 2.224-.898.9-.9.901-2.227v-7.75q0-1.323-.901-2.224-.9-.9-2.224-.901h-7.75q-1.328 0-2.226.901-.9.9-.899 2.224v7.75q0 1.328.899 2.227.897.898 2.226.898m3.873-2.375q-1.944 0-3.283-1.34-1.34-1.34-1.34-3.28 0-1.942 1.34-3.286t3.28-1.344q1.942 0 3.286 1.342t1.344 3.285q0 1.944-1.342 3.284t-3.285 1.339m-.002-1.5q1.327 0 2.228-.898.9-.897.901-2.223 0-1.327-.9-2.228-.899-.9-2.228-.901-1.33 0-2.226.9-.896.899-.896 2.228t.898 2.226 2.223.896"/></svg>