<svg xmlns="http://www.w3.org/2000/svg" width="24" height="24" viewBox="0 0 24 24" fill='currentColor'><path d="M6.145 20.461q-1.126 0-1.914-.788a2.6 2.6 0 0 1-.789-1.914V8.54h1.5v9.22q0 .51.346.857.345.345.857.345.51 0 .856-.345.345-.345.345-.857V6.24q0-1.126.788-1.914a2.6 2.6 0 0 1 1.913-.788q1.126 0 1.914.788.789.788.789 1.914v11.52q0 .51.346.856.345.345.857.345.51 0 .856-.345.345-.345.345-.857V6.24q0-1.126.788-1.914a2.6 2.6 0 0 1 1.913-.788q1.126 0 1.914.788.789.788.789 1.914v9.221h-1.5v-9.22q0-.512-.346-.857a1.16 1.16 0 0 0-.857-.346q-.51 0-.856.346-.345.345-.345.856v11.52q0 1.125-.788 1.913a2.6 2.6 0 0 1-1.913.788q-1.126 0-1.914-.788a2.6 2.6 0 0 1-.789-1.914V6.24q0-.51-.346-.856a1.16 1.16 0 0 0-.857-.346q-.51 0-.856.346-.345.345-.345.856v11.52q0 1.125-.788 1.913a2.6 2.6 0 0 1-1.913.788"/></svg>