<svg xmlns="http://www.w3.org/2000/svg" width="24" height="24" viewBox="0 0 24 24" fill='currentColor'><path d="M14.14 18.813a1.73 1.73 0 0 1-1.213.651 1.74 1.74 0 0 1-1.313-.414l-3.976-3.323a6 6 0 0 1-1.096-1.172 5.5 5.5 0 0 1-.726-1.42 1.8 1.8 0 0 1-.619.495q-.363.177-.774.177H2.635V6.461h1.788q.705 0 1.22.48.514.478.592 1.203A6.07 6.07 0 0 1 8.51 5.866a6.16 6.16 0 0 1 3.12-.828q1.043 0 1.98.371a6.2 6.2 0 0 1 1.731 1.039l4 3.323q.583.477.64 1.203.06.726-.418 1.308zm-7.198-7.771q-.014 1.024.417 1.942a4.5 4.5 0 0 0 1.218 1.568l3.985 3.323q.105.076.23.072a.25.25 0 0 0 .202-.11l5.395-6.503a.36.36 0 0 0 .072-.23.25.25 0 0 0-.111-.202l-3.975-3.324a4.44 4.44 0 0 0-2.854-1.034q-1.885-.015-3.219 1.299-1.335 1.315-1.36 3.199"/></svg>