<svg xmlns="http://www.w3.org/2000/svg" width="24" height="24" viewBox="0 0 24 24" fill='currentColor'><path d="M22.817 16.147q-.761 0-1.303-.543a1.78 1.78 0 0 1-.543-1.304v-4q0-.784.543-1.315.542-.53 1.303-.53h.846v7.692zm-9.846-4.876q0 .899-.336 1.722a4.5 4.5 0 0 1-.985 1.477l-3.92 3.919-6.372-6.339 3.919-3.953a4.5 4.5 0 0 1 3.199-1.322q1.889 0 3.191 1.304 1.305 1.304 1.304 3.192m-4.5-2.996q-.575 0-1.13.23t-.995.67l-2.865 2.866 4.25 4.25 2.865-2.866q.44-.44.67-.993t.23-1.132q0-1.274-.875-2.15t-2.15-.875m8.488 6.845-.828-.83 1.344-1.343h-3.321v-1.193h3.44l-1.423-1.423.829-.82 2.788 2.78z"/></svg>