<svg xmlns="http://www.w3.org/2000/svg" width="24" height="24" viewBox="0 0 24 24" fill='currentColor'><path d="M4.547 16.873q-.747 0-1.277-.53a1.74 1.74 0 0 1-.53-1.278V7.833q0-.747.532-1.276.531-.53 1.278-.53.746 0 1.276.538.53.537.53 1.285a5.96 5.96 0 0 1 2.14-2.108q1.35-.792 3.004-.792a5.96 5.96 0 0 1 4.244 1.756l5.37 5.37-8.464 8.482-5.394-5.364a6 6 0 0 1-.9-1.144v1.015q0 .746-.532 1.277-.531.531-1.277.531M7 10.925q0 .9.338 1.725t.987 1.475l4.325 4.325L19 12.075 14.675 7.75A4.42 4.42 0 0 0 11.5 6.425q-1.875 0-3.187 1.313Q7 9.05 7 10.925"/></svg>