<svg xmlns="http://www.w3.org/2000/svg" width="24" height="24" viewBox="0 0 24 24" fill='currentColor'><path d="M12.002 21.75q-1.971 0-3.362-1.39Q7.25 18.972 7.25 17V7q0-1.971 1.389-3.36 1.389-1.39 3.36-1.39t3.36 1.39Q16.752 5.029 16.75 7v10q0 1.971-1.389 3.36-1.389 1.39-3.36 1.39m0-1.5q1.354 0 2.301-.948.947-.949.947-2.302V7q0-1.354-.948-2.302t-2.303-.948-2.302.948T8.75 7v10q0 1.354.948 2.302t2.303.948M12 9.942q.8 0 1.372-.57.57-.57.57-1.372 0-.8-.57-1.372A1.87 1.87 0 0 0 12 6.058q-.8 0-1.372.57-.57.57-.57 1.372 0 .8.57 1.372.57.57 1.372.57m0 8q.8 0 1.372-.57.57-.57.57-1.372 0-.8-.57-1.372a1.87 1.87 0 0 0-1.372-.57q-.8 0-1.372.57-.57.57-.57 1.372 0 .8.57 1.372.57.57 1.372.57m0-.884q-.444 0-.751-.307a1.02 1.02 0 0 1-.307-.751q0-.444.307-.751.306-.307.751-.307t.751.307q.307.306.307.751 0 .444-.307.751a1.02 1.02 0 0 1-.751.307"/></svg>