<svg xmlns="http://www.w3.org/2000/svg" width="24" height="24" viewBox="0 0 24 24" fill='currentColor'><path d="M.75 17.798V.298H2.5q.73 0 1.24.51t.51 1.24v2.19a5.3 5.3 0 0 1 1.942-1.96 5.3 5.3 0 0 1 2.737-.73h6.513v8.179l2.021 2.067-7.824 7.81-4.566-4.556a6 6 0 0 1-.446-.503 5 5 0 0 1-.377-.562v2.065q0 .729-.51 1.24-.51.51-1.24.51zm8.179-14.75q-1.548 0-2.676 1.08a3.96 3.96 0 0 0-1.251 2.624q0 .125.014.24t.053.231A5.8 5.8 0 0 1 6.833 6.01q1.02-.462 2.156-.462 1.103 0 2.122.441 1.02.442 1.803 1.224l1.028 1.014v-5.18zm-3.987 8.075q0 .8.313 1.54.312.74.887 1.316L9.64 17.49l5.726-5.711-3.515-3.531a4.1 4.1 0 0 0-1.318-.888 3.9 3.9 0 0 0-1.543-.312q-1.701 0-2.874 1.212-1.173 1.213-1.173 2.863m14.654 4.675h-2.692v-1.5h2.692zm-2.55 4.398-1.888-1.888 1.044-1.045 1.888 1.889zm-4.854 1.506v-2.693h1.5v2.693z"/></svg>