<svg xmlns="http://www.w3.org/2000/svg" width="24" height="24" viewBox="0 0 24 24" fill='currentColor'><path d="M8.296 19.5a.93.93 0 0 1-.46-.118.8.8 0 0 1-.328-.35l-1.854-3.32h1.354l.961 1.884h2.156v-.884H8.502l-.962-1.885H5.163l-1.348-2.375a2 2 0 0 1-.083-.226.8.8 0 0 1-.033-.226q0-.08.115-.452l1.349-2.375H7.54l.961-1.884h1.623v-.885H7.969l-.961 1.885H5.654l1.854-3.322a.8.8 0 0 1 .329-.349.93.93 0 0 1 .46-.118h2.357q.387 0 .645.259a.88.88 0 0 1 .259.645v3.807h-1.51l-.884.885h2.394v2.865H9.473l-.942-1.875H6.452l-.885.885h2.431l.942 1.875h2.618v4.75a.88.88 0 0 1-.259.645.88.88 0 0 1-.645.259zm5.704 0q-.729 0-1.24-.51-.51-.511-.51-1.24 0-.537.28-.94a1.87 1.87 0 0 1 .72-.621V7.81a1.87 1.87 0 0 1-.72-.62 1.6 1.6 0 0 1-.28-.941q0-.729.51-1.24.511-.51 1.24-.51t1.24.51.51 1.24q0 .537-.28.94a1.87 1.87 0 0 1-.72.621v2.708l2.27-1.363a1.67 1.67 0 0 1 .442-1.345q.52-.57 1.288-.57.729 0 1.24.51.51.51.51 1.24 0 .727-.51 1.239-.511.51-1.24.51-.275 0-.508-.081a2 2 0 0 1-.448-.226l-2.477 1.5 2.68 2.125q.174-.095.359-.134.184-.04.394-.04.729 0 1.24.511.51.51.51 1.24 0 .729-.51 1.239-.511.51-1.24.51-.858 0-1.368-.67-.51-.672-.328-1.475l-2.304-1.847v2.822q.44.216.708.616t.267.92q0 .729-.498 1.24-.498.51-1.227.51"/></svg>