<svg xmlns="http://www.w3.org/2000/svg" width="24" height="24" viewBox="0 0 24 24" fill='currentColor'><path d="M17.625 15.52h2v-1a.97.97 0 0 0-.288-.713.97.97 0 0 0-.712-.288.97.97 0 0 0-.712.288.97.97 0 0 0-.288.712zM12 20.287.711 9a15.8 15.8 0 0 1 5.2-3.347A16.4 16.4 0 0 1 12 4.5q3.17 0 6.09 1.153A15.8 15.8 0 0 1 23.288 9l-2.255 2.256a5 5 0 0 0-1.182-.408 6 6 0 0 0-1.255-.127q-2.392 0-4.066 1.675-1.674 1.674-1.674 4.066 0 .64.127 1.255t.407 1.181zm3.73 0V15.52h1.01v-1q0-.787.55-1.335a1.82 1.82 0 0 1 1.335-.55q.787 0 1.335.55.55.548.55 1.335v1h.99v4.77zM4.35 10.5a13.6 13.6 0 0 1 3.625-1.85Q9.925 8 12 8t4.025.65 3.625 1.85l1.45-1.45q-1.975-1.5-4.3-2.275A15.1 15.1 0 0 0 12 6q-2.475 0-4.8.775A14.8 14.8 0 0 0 2.9 9.05z"/></svg>