<svg xmlns="http://www.w3.org/2000/svg" width="24" height="24" viewBox="0 0 24 24" fill='currentColor'><path d="m19.554 20.08.623-.622-1.83-1.831v-2.762h-.886v3.123zm-7.112-6.107v-3.877h2.394l-.884-.885h-1.51V4.5h3.789l2.115 3.789h-1.354l-.961-1.885h-2.156v.885h1.623l.952 1.884h2.389l1.35 2.364a6 6 0 0 0-1.11-.315 6.4 6.4 0 0 0-1.175-.106q-1.704 0-3.137.777a6.6 6.6 0 0 0-2.325 2.08m-4.934 5.06L5.654 15.71h1.354l.961 1.885h2.156v-.884H8.502l-.962-1.885H5.163L3.567 12l1.595-2.827H7.54l.961-1.884h1.623v-.885H7.969l-.961 1.885H5.654L7.769 4.5h3.789v4.711h-1.51l-.884.885h2.394v2.865H9.473l-.942-1.875H6.452l-.885.885h2.431l.942 1.875h2.618v1.929a5.6 5.6 0 0 0-.26.986q-.087.51-.087 1.047 0 .338.028.667.028.33.115.667v.358H8.296a.93.93 0 0 1-.46-.118.8.8 0 0 1-.328-.35m10.396 3.275q-1.873 0-3.187-1.314-1.313-1.313-1.313-3.186 0-1.874 1.313-3.187 1.314-1.313 3.187-1.313t3.186 1.313 1.314 3.187-1.314 3.186q-1.312 1.314-3.186 1.314"/></svg>