<svg xmlns="http://www.w3.org/2000/svg" width="24" height="24" viewBox="0 0 24 24" fill='currentColor'><path d="M9.75 20.596a2.87 2.87 0 0 1-2.06-.83 3 3 0 0 1-.95-2.012 3.68 3.68 0 0 1-2.288-1.258 3.62 3.62 0 0 1-.913-2.457q0-.493.128-.973t.383-.902a3.3 3.3 0 0 1-.456-.953 3.8 3.8 0 0 1-.152-1.076q0-1.44.948-2.489a3.66 3.66 0 0 1 2.345-1.221.3.3 0 0 1-.01-.077v-.086a2.87 2.87 0 0 1 .924-2.043 2.94 2.94 0 0 1 2.101-.834q.689 0 1.227.269.538.27 1.023.762.48-.494 1.015-.762.537-.27 1.235-.27 1.209 0 2.082.832a2.86 2.86 0 0 1 .918 2.03v.087a.3.3 0 0 1-.01.077 3.7 3.7 0 0 1 2.358 1.224q.96 1.053.96 2.5 0 .564-.157 1.077a3.4 3.4 0 0 1-.46.953q.256.42.388.901.133.48.133.974 0 1.433-.922 2.475a3.7 3.7 0 0 1-2.305 1.24 3.03 3.03 0 0 1-.937 2.012q-.85.83-2.048.83a2.8 2.8 0 0 1-1.232-.262q-.54-.26-1.018-.763-.495.503-1.03.763a2.75 2.75 0 0 1-1.22.262m3-14.211v11.211q0 .63.436 1.065t1.068.435q.601 0 1.032-.448.43-.448.464-1.044a3.4 3.4 0 0 1-2.086-1.37.73.73 0 0 1-.146-.56.7.7 0 0 1 .313-.483.73.73 0 0 1 1.053.167q.31.45.79.69t1.038.24q.94 0 1.595-.654.655-.656.655-1.595 0-.19-.037-.379a1.8 1.8 0 0 0-.116-.371q-.424.289-.937.442a3.7 3.7 0 0 1-1.064.153.73.73 0 0 1-.535-.215.73.73 0 0 1-.215-.535q0-.318.215-.534a.73.73 0 0 1 .535-.215q.94 0 1.595-.655a2.17 2.17 0 0 0 .655-1.595q0-.925-.645-1.57a2.26 2.26 0 0 0-1.567-.68q-.255.459-.674.802-.418.341-.934.542a.7.7 0 0 1-.574-.019.67.67 0 0 1-.373-.427.8.8 0 0 1 .022-.578.65.65 0 0 1 .423-.38q.453-.154.733-.546t.281-.9q0-.625-.435-1.06a1.45 1.45 0 0 0-1.065-.434q-.63 0-1.065.435a1.45 1.45 0 0 0-.435 1.065m-1.5 11.211V6.385q0-.63-.435-1.065a1.45 1.45 0 0 0-1.065-.435q-.63 0-1.065.435a1.45 1.45 0 0 0-.435 1.065q0 .486.273.886t.725.554q.294.097.43.375a.75.75 0 0 1 .043.575.74.74 0 0 1-.397.426.75.75 0 0 1-.587.018 3.5 3.5 0 0 1-.934-.537 2.7 2.7 0 0 1-.674-.797 2.22 2.22 0 0 0-1.541.689 2.15 2.15 0 0 0-.646 1.564q0 .937.655 1.592t1.595.655q.319 0 .535.215a.73.73 0 0 1 .215.535q0 .319-.215.534a.73.73 0 0 1-.535.215q-.552 0-1.064-.153a3.4 3.4 0 0 1-.937-.442 1.8 1.8 0 0 0-.116.371 2 2 0 0 0-.036.379q0 .94.654 1.595a2.17 2.17 0 0 0 1.596.654q.56 0 1.037-.24.475-.243.79-.69a.72.72 0 0 1 .489-.312q.3-.049.564.14a.73.73 0 0 1 .167 1.049 3.6 3.6 0 0 1-.939.897q-.54.355-1.172.487.034.596.477 1.037t1.044.44q.632 0 1.068-.435.435-.435.436-1.065"/></svg>