<svg xmlns="http://www.w3.org/2000/svg" width="24" height="24" viewBox="0 0 24 24" fill='currentColor'><path d="M17.25 10.75v-3h-3v-1.5h3v-3h1.5v3h3v1.5h-3v3zM11 19.25q1.522 0 2.796-.667a6.6 6.6 0 0 0 2.185-1.858q-3.315-.095-5.522-2.3Q8.249 12.219 8.25 9q0-.42.049-.84.05-.418.157-.843A6.27 6.27 0 0 0 5.764 9.59Q4.75 11.108 4.75 13q0 2.595 1.827 4.423T11 19.25m0 1.5q-3.245 0-5.498-2.252Q3.25 16.245 3.25 13q0-3.138 2.147-5.382 2.147-2.242 5.305-2.349.076 0 .154.008.076.008.153.008a5.4 5.4 0 0 0-.934 1.711A6.3 6.3 0 0 0 9.75 9q0 2.595 1.827 4.423T16 15.25q.684 0 1.318-.152a6.3 6.3 0 0 0 1.217-.425q-.556 2.616-2.644 4.346Q13.804 20.75 11 20.75"/></svg>