<svg xmlns="http://www.w3.org/2000/svg" width="24" height="24" viewBox="0 0 24 24" fill='currentColor'><path d="M11 19.25a5.96 5.96 0 0 0 2.783-.674 6.5 6.5 0 0 0 2.198-1.851q-3.23-.095-5.48-2.31T8.25 9q0-.43.054-.854.053-.423.152-.829a6.3 6.3 0 0 0-2.69 2.292A6 6 0 0 0 4.75 13q0 2.604 1.823 4.427T11 19.25m0 1.5q-3.234 0-5.492-2.258T3.25 13q0-3.158 2.152-5.391 2.152-2.235 5.3-2.34.076 0 .154.008.076.008.153.008a5.2 5.2 0 0 0-.949 1.728Q9.75 7.972 9.75 9q0 2.604 1.823 4.427T16 15.25a6 6 0 0 0 1.312-.144 5.4 5.4 0 0 0 1.223-.433q-.566 2.69-2.686 4.384Q13.729 20.75 11 20.75m3.156-9.875 3.027-8.75h1.634l3.027 8.75h-1.448l-.69-2h-3.412l-.68 2zm2.502-3.1h2.684L18 3.596z"/></svg>