<svg xmlns="http://www.w3.org/2000/svg" width="24" height="24" viewBox="0 0 24 24" fill='currentColor'><path d="M14.912 10.97 10.54 6.597q.322-.17.689-.258.367-.09.79-.09 1.36 0 2.296.94t.935 2.31q0 .395-.094.786a3 3 0 0 1-.245.683M6.022 17.29q1.304-.965 2.793-1.504A9.3 9.3 0 0 1 12 15.25q.816 0 1.507.162.69.163 1.228.353l-3.046-3.046q-1.185-.12-1.994-.925-.809-.804-.92-1.988L5.858 6.889A8.2 8.2 0 0 0 4.5 9.199Q4 10.484 4 12q0 1.57.54 2.9t1.483 2.392m12.142-.219a9 9 0 0 0 1.327-2.291Q20 13.515 20 12q0-3.325-2.337-5.662Q15.325 4 12 4q-1.467 0-2.753.489a8.1 8.1 0 0 0-2.32 1.346zM12 21.5a9.3 9.3 0 0 1-3.697-.744 9.6 9.6 0 0 1-3.024-2.035 9.6 9.6 0 0 1-2.035-3.024A9.3 9.3 0 0 1 2.5 12q0-1.98.744-3.705A9.6 9.6 0 0 1 5.28 5.28a9.6 9.6 0 0 1 3.024-2.035A9.3 9.3 0 0 1 12 2.5q1.98 0 3.705.744A9.6 9.6 0 0 1 18.72 5.28a9.6 9.6 0 0 1 2.035 3.016A9.3 9.3 0 0 1 21.5 12a9.3 9.3 0 0 1-.744 3.697 9.6 9.6 0 0 1-2.035 3.024 9.6 9.6 0 0 1-3.016 2.035A9.3 9.3 0 0 1 12 21.5m0-1.5q1.363 0 2.616-.445a8.1 8.1 0 0 0 2.246-1.209 7.5 7.5 0 0 0-2.256-1.175 8.33 8.33 0 0 0-5.188-.014 7.5 7.5 0 0 0-2.28 1.19 8.1 8.1 0 0 0 2.246 1.208A7.8 7.8 0 0 0 12 20"/></svg>