<svg xmlns="http://www.w3.org/2000/svg" width="24" height="24" viewBox="0 0 24 24" fill='currentColor'><path d="m19.5 16.685-1.5-1.5V8.202q0-.909-.661-1.555A2.2 2.2 0 0 0 15.75 6H8.806L7.433 4.612a.1.1 0 0 0 .033-.005.1.1 0 0 1 .034-.005V2.5H10v2h4v-2h2.5v2.102q1.261.264 2.13 1.241.87.979.87 2.359zm-3.192-3.125-1.233-1.233h1.233zm-4.537-1.233v1.5H7.692v-1.5zm-6.25-6.652 1.054 1.054a1.9 1.9 0 0 0-.425.666Q6 7.787 6 8.202v11.52q0 .114.086.196a.3.3 0 0 0 .222.082h11.384a.3.3 0 0 0 .221-.082.26.26 0 0 0 .087-.197v-1.706l1.5 1.485v2h-15V8.202q0-.72.27-1.372.269-.653.751-1.155m14.283 16.252L2.074 4.197l1.053-1.07 17.73 17.746z"/></svg>