<svg xmlns="http://www.w3.org/2000/svg" width="24" height="24" viewBox="0 0 24 24" fill='currentColor'><path d="m19.5 17.342-1.5-1.5V10h-5.842l-1.5-1.5H15v-2q0-1.26-.882-2.13-.881-.87-2.141-.87t-2.134.867T8.97 6.5v.254L7.596 5.381a4.4 4.4 0 0 1 1.61-2.434A4.4 4.4 0 0 1 11.978 2q1.883 0 3.203 1.314Q16.5 4.626 16.5 6.5v2h3zm1 5.958-1.8-1.8H4.5V8.58h1.28L.7 3.5l1.054-1.054 19.8 19.8zM17.15 20l-3.848-3.898q-.246.246-.566.377-.318.13-.686.13-.729 0-1.24-.51-.51-.51-.51-1.24 0-.366.13-.686.132-.32.378-.565L7.15 10H6v10z"/></svg>