<svg xmlns="http://www.w3.org/2000/svg" width="24" height="24" viewBox="0 0 24 24" fill='currentColor'><path d="m20.792 22.916-2.961-2.962v1.316H2.73V9.554h3.727l.46-.514L1.28 3.404l1.07-1.069 19.511 19.512zM4.231 19.77h12.115v-1.3l-2.863-2.864q.01.039.01.072v.072a3.18 3.18 0 0 1-1.064 1.994q-.895.795-2.14.795-1.354 0-2.302-.949-.948-.947-.948-2.301 0-1.247.794-2.14a3.18 3.18 0 0 1 1.994-1.064h.072q.035 0 .072.01l-1.04-1.041h-4.7zm6.058-2.731q.73 0 1.24-.515t.51-1.235q0-.731-.51-1.24-.51-.51-1.24-.51-.722 0-1.236.51a1.68 1.68 0 0 0-.514 1.24q0 .72.514 1.235.515.515 1.236.515M17.846 15l-1.5-1.5v-2.446H13.9l-2.9-2.9h1.854l1.275 1.4h3.717zm.923-4.673V6.75h-.807V2.54h3.297L19.9 5.58h1.437z"/></svg>