<svg xmlns="http://www.w3.org/2000/svg" width="24" height="24" viewBox="0 0 24 24" fill='currentColor'><path d="M7.885 18.5v2H5.768v-2.723Q5.3 17.421 4.9 16.77a2.74 2.74 0 0 1-.4-1.462V6.623L1.28 3.404l1.07-1.069 19.511 19.512-1.069 1.069-4.608-4.608h2.139V20.5h-2.207v-2zM8 17h6.877l-5-5H6v3q0 .825.588 1.413Q7.175 17 8 17m11.283-.563L18 15.154V12h-3.154l-1.5-1.5H18V6.77H9.615l-1.5-1.5h9.67q-.318-.599-1.608-.934T12.031 4q-1.736 0-2.859.14t-1.8.385L6.23 3.385q.918-.442 2.343-.664 1.425-.22 3.426-.22 4.032 0 5.765.809Q19.5 4.12 19.5 6v9.308q0 .29-.06.571-.061.28-.157.558m-10.78-.629q.545 0 .925-.382t.38-.928-.383-.925a1.27 1.27 0 0 0-.927-.38q-.546 0-.926.382-.38.381-.38.928 0 .545.382.925t.928.38M6 10.5h2.377L6 8.123z"/></svg>