<svg xmlns="http://www.w3.org/2000/svg" width="24" height="24" viewBox="0 0 24 24" fill='currentColor'><path d="M13 17.75q1.16 0 1.955-.808A2.67 2.67 0 0 0 15.75 15h-1.5q0 .522-.358.886a1.2 1.2 0 0 1-.889.364 1.18 1.18 0 0 1-.722-.235 1.34 1.34 0 0 1-.462-.629 6 6 0 0 0-.344-.798 2.9 2.9 0 0 0-.523-.715l-1.35-1.35a2.9 2.9 0 0 1-.633-.94A2.8 2.8 0 0 1 8.75 10.5q0-1.154.802-1.953A2.66 2.66 0 0 1 11.5 7.75q1.005 0 1.765.63t.945 1.61h1.515a4.14 4.14 0 0 0-1.4-2.674Q13.125 6.25 11.5 6.25q-1.77 0-3.01 1.236t-1.24 3.013q0 .878.33 1.667.332.79.953 1.411l1.365 1.365q.195.195.301.431.107.237.191.49a2.84 2.84 0 0 0 1.019 1.358q.72.53 1.591.529m.5-4a1.2 1.2 0 0 0 .892-.364q.358-.366.358-.886 0-.535-.358-.892a1.22 1.22 0 0 0-.895-.358q-.516 0-.881.358a1.2 1.2 0 0 0-.366.895q0 .516.364.881.366.366.886.366m-1.498 7.75a9.3 9.3 0 0 1-3.706-.748 9.6 9.6 0 0 1-3.016-2.03 9.6 9.6 0 0 1-2.032-3.016 9.25 9.25 0 0 1-.748-3.704q0-1.972.748-3.706a9.6 9.6 0 0 1 2.03-3.016 9.6 9.6 0 0 1 3.016-2.032 9.25 9.25 0 0 1 3.704-.748q1.972 0 3.706.748a9.6 9.6 0 0 1 3.017 2.03 9.6 9.6 0 0 1 2.03 3.016 9.25 9.25 0 0 1 .749 3.704q0 1.972-.748 3.706a9.6 9.6 0 0 1-2.03 3.017 9.6 9.6 0 0 1-3.016 2.03 9.25 9.25 0 0 1-3.704.749M12 20q3.35 0 5.675-2.325T20 12t-2.325-5.675T12 4 6.325 6.325 4 12t2.325 5.675T12 20"/></svg>