<svg xmlns="http://www.w3.org/2000/svg" width="24" height="24" viewBox="0 0 24 24" fill='currentColor'><path d="M4.5 18.885v-1.5h1.808V9.923q0-2.017 1.245-3.567a5.52 5.52 0 0 1 3.197-1.983V2.5h2.5v1.873a5.52 5.52 0 0 1 3.197 1.983q1.245 1.55 1.245 3.567v7.462H19.5v1.5zm7.5 2.807q-.749 0-1.278-.53a1.74 1.74 0 0 1-.53-1.277h3.616q0 .747-.53 1.277t-1.278.53m-4.192-4.307h8.384V9.923q0-1.737-1.228-2.964Q13.737 5.73 12 5.73T9.035 6.959Q7.808 8.186 7.808 9.923zM2.615 9.913q0-2.211.94-4.082A9.5 9.5 0 0 1 6.09 2.67l.925 1.168a7.9 7.9 0 0 0-2.118 2.65q-.782 1.569-.782 3.425zm17.27 0q0-1.855-.782-3.43a7.9 7.9 0 0 0-2.118-2.654l.925-1.158a9.5 9.5 0 0 1 2.535 3.16q.94 1.87.94 4.083z"/></svg>