<svg xmlns="http://www.w3.org/2000/svg" width="24" height="24" viewBox="0 0 24 24" fill='currentColor'><path d="M11.998 21.692q-.746 0-1.276-.53a1.74 1.74 0 0 1-.53-1.277h3.616q0 .747-.532 1.277-.531.53-1.278.53m5.887-8.49v-3h-3v-1.5h3v-3h1.5v3h3v1.5h-3v3zM4.5 18.884v-1.5h1.808v-7.46q0-2.017 1.245-3.567a5.52 5.52 0 0 1 3.197-1.983V2.5h2.5v1.873q.408.1.793.232t.734.345a6 6 0 0 0-.536.557q-.248.293-.433.632a4 4 0 0 0-.87-.306A4.3 4.3 0 0 0 12 5.73q-1.737 0-2.964 1.228-1.228 1.227-1.228 2.964v7.462h8.384v-2.55q.345.188.715.31.37.123.785.194v2.046H19.5v1.5z"/></svg>