<svg xmlns="http://www.w3.org/2000/svg" width="24" height="24" viewBox="0 0 24 24" fill='currentColor'><path d="M4.5 18.885v-1.5h1.808V9.923q0-.7.169-1.39.17-.692.508-1.317L8.119 8.35a4.1 4.1 0 0 0-.311 1.573v7.462h7.277L2.035 4.373l1.053-1.054 17.843 17.843-1.054 1.053-3.361-3.33zm13.192-3.831-1.5-1.5V9.923q0-1.737-1.228-2.964Q13.737 5.73 12 5.73q-.742 0-1.425.243a3.7 3.7 0 0 0-1.233.73L8.258 5.619a6 6 0 0 1 1.156-.781q.628-.324 1.336-.465V2.5h2.5v1.873q1.962.414 3.202 1.968t1.24 3.582zm-5.694 6.638q-.746 0-1.276-.53a1.74 1.74 0 0 1-.53-1.277h3.616q0 .747-.532 1.277-.531.53-1.278.53"/></svg>