<svg xmlns="http://www.w3.org/2000/svg" width="24" height="24" viewBox="0 0 24 24" fill='currentColor'><path d="M4.5 18.885v-1.5h1.808V9.923q0-2.017 1.245-3.567a5.52 5.52 0 0 1 3.197-1.983V2.5h2.5v1.873a5.52 5.52 0 0 1 3.197 1.983q1.245 1.55 1.245 3.567v7.462H19.5v1.5zm7.498 2.807q-.746 0-1.276-.53a1.74 1.74 0 0 1-.53-1.277h3.616q0 .747-.532 1.277-.531.53-1.278.53m-4.19-4.307h8.384V9.923q0-1.737-1.228-2.964Q13.737 5.73 12 5.73T9.036 6.959Q7.808 8.186 7.808 9.923zm1.653-1.597h5.078v-1.376H11.5l3.039-3.824V9.213H9.46v1.377h3.04l-3.039 3.823z"/></svg>