<svg xmlns="http://www.w3.org/2000/svg" width="24" height="24" viewBox="0 0 24 24" fill='currentColor'><path d="M12 20.5q-2.714 0-4.607-1.893T5.5 14q0-2.206 1.316-3.943 1.314-1.738 3.44-2.32a3.3 3.3 0 0 1-1.351-.631 3.65 3.65 0 0 1-.95-1.127 5.3 5.3 0 0 1-.529-1.445 5.6 5.6 0 0 1-.103-1.595 4.8 4.8 0 0 1 1.787.178 4.65 4.65 0 0 1 2.653 2.043q.44.728.52 1.635.315-.755.824-1.49.508-.733 1.489-1.714l1.054 1.054q-.94.94-1.42 1.642-.477.702-.707 1.423 2.2.518 3.589 2.273T18.5 14q0 2.715-1.893 4.607T12 20.5m0-1.5q2.075 0 3.537-1.462Q17 16.076 17 14q0-2.074-1.463-3.537T12 9t-3.537 1.463T7 14q0 2.076 1.463 3.538T12 19"/></svg>