<svg xmlns="http://www.w3.org/2000/svg" width="24" height="24" viewBox="0 0 24 24" fill='currentColor'><path d="M11.154 16.77v-.886h1.692v.885zm0-1.386v-.745a2.1 2.1 0 0 1-.728-.695 1.73 1.73 0 0 1-.272-.944q0-.761.542-1.304A1.78 1.78 0 0 1 12 11.154q.761 0 1.304.542.542.543.542 1.304 0 .515-.272.944a2.1 2.1 0 0 1-.728.694v.746zm4.827.325-.848-.853q.256-.425.388-.893.133-.468.133-.96 0-.494-.133-.963a3.7 3.7 0 0 0-.388-.896l.848-.854q.432.598.649 1.288.216.69.216 1.422a4.7 4.7 0 0 1-.216 1.42q-.215.688-.65 1.29m-7.962 0a4.5 4.5 0 0 1-.649-1.287A4.7 4.7 0 0 1 7.154 13q0-2.018 1.414-3.432T12 8.154V7.096l1.865 1.654L12 10.404V9.346a3.52 3.52 0 0 0-2.585 1.07A3.52 3.52 0 0 0 8.346 13q0 .494.133.962.132.469.388.894zM4.5 22.5v-21h15v21zM6 18.25h12V5.75H6zm0 1.5V21h12v-1.25zm0-15.5h12V3H6z"/></svg>