<svg xmlns="http://www.w3.org/2000/svg" width="24" height="24" viewBox="0 0 24 24" fill='currentColor'><path d="M3.49 21.75V16q0-1.145.803-1.947a2.65 2.65 0 0 1 1.947-.803h2q1.356 0 2.303-.947.948-.948.948-2.303 0-.522-.365-.886a1.2 1.2 0 0 0-.885-.364q-.73 0-1.24-.51-.51-.511-.51-1.24V2.25H10V7q0 .106.067.178a.23.23 0 0 0 .174.072 2.65 2.65 0 0 1 1.947.803q.803.802.803 1.947 0 1.97-1.391 3.36-1.39 1.39-3.36 1.39h-2q-.52 0-.885.364A1.2 1.2 0 0 0 4.99 16v5.75zm17.01-9.37a4.5 4.5 0 0 0-.699-.514 6 6 0 0 0-.801-.391V11q0-2.152-1.453-3.701-1.453-1.55-3.576-1.549a1.9 1.9 0 0 1-1.393-.583A1.9 1.9 0 0 1 12 3.78V2.25h1.5v1.529l.471.471q2.762 0 4.645 1.98Q20.5 8.21 20.5 11zM7 21.75V20q0-1.145.803-1.947a2.65 2.65 0 0 1 1.947-.803h1.317a5 5 0 0 0 .092.77q.075.37.21.73H9.75q-.522 0-.886.364A1.2 1.2 0 0 0 8.5 20v1.75zm9.75-2.952a1.98 1.98 0 0 0 1.451-.607 1.98 1.98 0 0 0 .607-1.45 1.98 1.98 0 0 0-.607-1.451 1.98 1.98 0 0 0-1.451-.607 1.98 1.98 0 0 0-1.451.607 1.98 1.98 0 0 0-.607 1.45q0 .845.607 1.451a1.98 1.98 0 0 0 1.451.607m4.373 3.442-2.492-2.482a3.37 3.37 0 0 1-1.881.54 3.43 3.43 0 0 1-2.517-1.04 3.43 3.43 0 0 1-1.04-2.518 3.43 3.43 0 0 1 1.04-2.517 3.43 3.43 0 0 1 2.517-1.04q1.478 0 2.517 1.04a3.43 3.43 0 0 1 1.04 2.517q0 .556-.164 1.054t-.459.92l2.483 2.482z"/></svg>