<svg xmlns="http://www.w3.org/2000/svg" width="24" height="24" viewBox="0 0 24 24" fill='currentColor'><path d="M3.26 10.75v-1.5h1.748a7.5 7.5 0 0 1 2.19-2.986 7.36 7.36 0 0 1 3.34-1.58l-.911-.926 1.054-1.054 1.394 1.408q.233.233.301.554.069.32-.028.625a1.07 1.07 0 0 1-.344.526 1.03 1.03 0 0 1-.577.239q-1.88.17-3.259 1.335-1.38 1.167-1.89 2.813l-.16.546zM15.087 12q0-1.08.446-2.047.446-.966 1.323-1.44a6.2 6.2 0 0 0-1.381-1.402 5.7 5.7 0 0 0-1.74-.851l.43-1.444q1.445.42 2.534 1.33t1.83 2.268q.992.365 1.525 1.369.533 1.003.533 2.217 0 1.166-.51 2.177a2.84 2.84 0 0 1-1.548 1.42 7.4 7.4 0 0 1-1.84 2.252 7.2 7.2 0 0 1-2.558 1.345L13.7 17.75a6.2 6.2 0 0 0 1.765-.865 5.8 5.8 0 0 0 1.39-1.398q-.828-.465-1.298-1.42a4.6 4.6 0 0 1-.47-2.067m2.75 2.25q.47 0 .86-.694.39-.695.39-1.556 0-.88-.385-1.565t-.866-.685-.865.685q-.384.684-.384 1.565 0 .861.389 1.556.39.694.86.694m-7.214 7.123-1.054-1.07.989-.988a7.4 7.4 0 0 1-3.35-1.578 7.35 7.35 0 0 1-2.181-2.987H3.279v-1.5h2.857l.162.546q.51 1.646 1.89 2.813 1.38 1.166 3.258 1.335a1 1 0 0 1 .577.247q.248.214.344.519.096.303.028.617-.068.313-.3.546z"/></svg>