<svg xmlns="http://www.w3.org/2000/svg" width="24" height="24" viewBox="0 0 24 24" fill='currentColor'><path d="M18 19.644 16.956 18.6l1.815-1.85H14.25v-1.5h4.521l-1.815-1.85L18 12.356 21.644 16zM4.058 16.75a1.74 1.74 0 0 1-1.277-.531 1.74 1.74 0 0 1-.531-1.277V5.058q0-.746.531-1.277a1.74 1.74 0 0 1 1.277-.531h12.884q.746 0 1.277.531t.531 1.277v5.254a5 5 0 0 0-.75-.062q-.187 0-.375.008-.187.008-.375.038V5.823l-6.85 4.87-6.65-4.854v9.103a.3.3 0 0 0 .087.222.3.3 0 0 0 .22.086h8.24q-.031.188-.04.375-.006.188-.007.375a4.6 4.6 0 0 0 .062.75zm.738-12L10.4 8.858l5.773-4.108z"/></svg>