<svg xmlns="http://www.w3.org/2000/svg" width="24" height="24" viewBox="0 0 24 24" fill='currentColor'><path d="M16 7.192q.424 0 .712-.287A.97.97 0 0 0 17 6.192a.97.97 0 0 0-.288-.712.97.97 0 0 0-.712-.288.97.97 0 0 0-.713.288.97.97 0 0 0-.287.712q0 .425.287.713.288.287.713.287m-4 0q.424 0 .713-.287A.97.97 0 0 0 13 6.192a.97.97 0 0 0-.287-.712.97.97 0 0 0-.713-.288.97.97 0 0 0-.713.288.97.97 0 0 0-.287.712q0 .425.287.713.288.287.713.287m-4 0q.424 0 .713-.287A.97.97 0 0 0 9 6.192a.97.97 0 0 0-.287-.712A.97.97 0 0 0 8 5.192a.97.97 0 0 0-.713.288.97.97 0 0 0-.287.712q0 .425.287.713.288.287.713.287M5 9.808V19h14V9.808zm5.192 3.807h3.616V12h-3.616zM3.5 20.5v-17h17v17z"/></svg>