<svg xmlns="http://www.w3.org/2000/svg" width="24" height="24" viewBox="0 0 24 24" fill='currentColor'><path d="M12.002 21.5q-3.14 0-5.321-2.205T4.5 13.942V9.086q0-2.87 2.246-4.728T12 2.5q2.94 0 5.22 1.835 2.28 1.836 2.28 4.749V21.5zM12 20h2.586a4.5 4.5 0 0 1-1.078-1.498 4.55 4.55 0 0 1-.392-1.887v-1.02a9 9 0 0 1-1.116.069 8.4 8.4 0 0 1-3.334-.68A6.7 6.7 0 0 1 6 12.943v1q0 2.524 1.745 4.291T12 20m2.615-3.385q0 1.404.99 2.395.992.99 2.395.99v-7.048a6.3 6.3 0 0 1-1.51 1.415 7.3 7.3 0 0 1-1.875.892zm-3.365-6.557q0-1.689-1.178-2.847-1.178-1.16-2.85-1.234a4.7 4.7 0 0 0-.898 1.406A4.4 4.4 0 0 0 6 9.086q0 2.245 1.808 3.661Q9.615 14.163 12 14.164q2.385 0 4.192-1.417Q18 11.331 18 9.087q0-.918-.324-1.717a4.5 4.5 0 0 0-.912-1.418A4.17 4.17 0 0 0 13.923 7.2q-1.173 1.17-1.173 2.858zm-2.625-.106a.84.84 0 0 1-.616-.249.84.84 0 0 1-.25-.616q0-.367.25-.617a.84.84 0 0 1 .616-.249q.367 0 .616.249.25.249.25.616t-.25.617a.84.84 0 0 1-.616.249m6.75 0a.84.84 0 0 1-.616-.249.84.84 0 0 1-.25-.616q0-.367.25-.617a.84.84 0 0 1 .616-.249q.367 0 .616.249a.84.84 0 0 1 .25.616q0 .367-.25.617a.84.84 0 0 1-.616.249M8.79 4.829a5.3 5.3 0 0 1 1.876.973A5.3 5.3 0 0 1 12 7.381a5.38 5.38 0 0 1 3.187-2.552 6 6 0 0 0-1.5-.615A6.5 6.5 0 0 0 12 4q-.88 0-1.691.215a6.4 6.4 0 0 0-1.52.614"/></svg>