<svg xmlns="http://www.w3.org/2000/svg" width="24" height="24" viewBox="0 0 24 24" fill='currentColor'><path d="M1.5 14H3v3.75q0 .52.365.885.363.365.885.365h2.17v-1h2.83v-2h1.5v2h2.5v-2h1.5v2h2.83v1h2.18q.52 0 .885-.365.364-.364.364-.885V14h1.5v3.75q0 1.146-.802 1.948a2.65 2.65 0 0 1-1.948.802h-2.178v1H6.419v-1H4.25a2.65 2.65 0 0 1-1.948-.802A2.65 2.65 0 0 1 1.5 17.75zm7-12.51H10v5.5H7.25q-.94 0-1.595.655A2.16 2.16 0 0 0 5 9.23q0 .864.583 1.5.582.635 1.417.722v1.5a3.55 3.55 0 0 1-2.484-1.156A3.6 3.6 0 0 1 3.5 9.23q0-1.553 1.098-2.647A3.62 3.62 0 0 1 7.25 5.49H8.5zm5.5 0h1.5v4h1.25q1.554 0 2.652 1.093A3.6 3.6 0 0 1 20.5 9.23q0 1.488-1.016 2.566A3.55 3.55 0 0 1 17 12.952v-1.5a2.17 2.17 0 0 0 1.417-.723Q19 10.095 19 9.23a2.16 2.16 0 0 0-.655-1.585 2.17 2.17 0 0 0-1.595-.655H14zM11.725 14a3.08 3.08 0 0 1-1.84-.59 3.07 3.07 0 0 1-1.144-1.562 1.33 1.33 0 0 0-.467-.613A1.2 1.2 0 0 0 7.55 11H7V9.5h.55q.89 0 1.61.514.719.514 1 1.363.153.501.595.812.44.31.97.31h.55q.53 0 .97-.31.442-.31.596-.812.28-.849 1-1.363A2.7 2.7 0 0 1 16.45 9.5H17V11h-.55q-.402 0-.733.235-.33.236-.458.613a3.07 3.07 0 0 1-1.145 1.562q-.82.59-1.839.59z"/></svg>