<svg xmlns="http://www.w3.org/2000/svg" width="24" height="24" viewBox="0 0 24 24" fill='currentColor'><path d="M6.584 21.394q-1.304 0-2.222-.92a3.03 3.03 0 0 1-.92-2.224v-7.781q-.626-.602-1.313-1.255T1.442 7.65q0-.579.411-.99.41-.41.99-.41.406 0 .75.213t.6.537q.255-.324.599-.537t.75-.213q.579 0 .99.41.41.411.41.99 0 .911-.686 1.564-.687.653-1.314 1.255v7.78q0 .686.48 1.165.479.48 1.163.48.685 0 1.165-.48t.48-1.164v-11q0-1.956 1.379-3.334t3.333-1.378q1.956 0 3.334 1.378 1.377 1.378 1.378 3.334v.32a4.37 4.37 0 0 1 2.68 1.507q1.07 1.242 1.07 2.923v5q0 1.872-1.314 3.186-1.312 1.314-3.186 1.314t-3.187-1.314T12.404 17v-5q0-1.68 1.07-2.923a4.37 4.37 0 0 1 2.68-1.506V7.25q0-1.338-.937-2.275a3.1 3.1 0 0 0-2.274-.937 3.1 3.1 0 0 0-2.275.937q-.937.936-.937 2.275v11q0 1.303-.922 2.223a3.03 3.03 0 0 1-2.225.92M16.904 20q1.25 0 2.125-.875A2.9 2.9 0 0 0 19.904 17v-5q0-1.25-.875-2.125A2.9 2.9 0 0 0 16.904 9q-1.25 0-2.125.875A2.9 2.9 0 0 0 13.904 12v5q0 1.25.875 2.125a2.9 2.9 0 0 0 2.125.875m0-4.75q-.73 0-1.24.51t-.51 1.24q0 .728.51 1.24.51.51 1.24.51.729 0 1.24-.51.51-.512.51-1.24 0-.73-.51-1.24-.511-.51-1.24-.51"/></svg>