<svg xmlns="http://www.w3.org/2000/svg" width="24" height="24" viewBox="0 0 24 24" fill='currentColor'><path d="M17.654 19.654q-1.405 0-2.376-.97t-.97-2.376.97-2.376 2.376-.97 2.375.97q.971.971.971 2.376 0 1.406-.97 2.376-.971.97-2.376.97m-.001-1.5q.765 0 1.306-.54.54-.54.541-1.305 0-.765-.54-1.306a1.78 1.78 0 0 0-1.305-.541q-.765 0-1.306.54-.54.54-.541 1.305 0 .765.54 1.306.54.54 1.305.541M4.5 17.058v-1.5h7.616v1.5zm1.846-6.02q-1.406 0-2.375-.97T3 7.693t.97-2.376 2.376-.97 2.376.97q.97.97.97 2.376t-.97 2.375-2.376.97m0-1.5q.764 0 1.305-.54t.541-1.304-.54-1.306a1.78 1.78 0 0 0-1.305-.541q-.765 0-1.306.54-.54.54-.541 1.305 0 .765.54 1.306.54.54 1.305.54m5.538-1.095v-1.5H19.5v1.5z"/></svg>