<svg xmlns="http://www.w3.org/2000/svg" width="24" height="24" viewBox="0 0 24 24" fill='currentColor'><path d="M4 13.904q-.787 0-1.345-.56A1.84 1.84 0 0 1 2.096 12q0-.786.56-1.345A1.84 1.84 0 0 1 4 10.097q.786 0 1.344.56.56.558.559 1.344 0 .786-.56 1.345A1.84 1.84 0 0 1 4 13.904m0-1.1a.77.77 0 0 0 .568-.235.77.77 0 0 0 .236-.569.77.77 0 0 0-.236-.568.77.77 0 0 0-.568-.235.77.77 0 0 0-.568.235.77.77 0 0 0-.236.568q0 .333.236.569a.77.77 0 0 0 .568.235m5.33 1.1q-.786 0-1.344-.56A1.84 1.84 0 0 1 7.427 12q0-.786.56-1.345a1.84 1.84 0 0 1 1.345-.558q.784 0 1.344.56.558.558.559 1.344 0 .786-.56 1.345a1.84 1.84 0 0 1-1.345.558m0-1.1a.77.77 0 0 0 .569-.235.77.77 0 0 0 .236-.569.77.77 0 0 0-.236-.568.77.77 0 0 0-.568-.235.77.77 0 0 0-.569.235.77.77 0 0 0-.235.568q0 .333.236.569a.77.77 0 0 0 .568.235m5.32 1.1q-.787 0-1.345-.56a1.84 1.84 0 0 1-.56-1.344q0-.786.56-1.345a1.84 1.84 0 0 1 1.345-.558q.786 0 1.344.56.56.558.559 1.344 0 .786-.56 1.345a1.84 1.84 0 0 1-1.345.558m0-1.1a.78.78 0 0 0 .568-.235.77.77 0 0 0 .236-.569.77.77 0 0 0-.236-.568.78.78 0 0 0-.568-.235.77.77 0 0 0-.568.235.77.77 0 0 0-.236.568q0 .333.236.569a.77.77 0 0 0 .568.235m5.35 1.1q-.787 0-1.345-.56A1.84 1.84 0 0 1 18.096 12q0-.786.56-1.345A1.84 1.84 0 0 1 20 10.097q.786 0 1.344.56.56.558.559 1.344 0 .786-.56 1.345a1.84 1.84 0 0 1-1.345.558"/></svg>