<svg xmlns="http://www.w3.org/2000/svg" width="24" height="24" viewBox="0 0 24 24" fill='currentColor'><path d="M11.98 21.5a9.1 9.1 0 0 1-3.672-.749 9.7 9.7 0 0 1-3.02-2.04 9.6 9.6 0 0 1-2.039-3.023A9.2 9.2 0 0 1 2.5 12q0-1.98.77-3.713a9.6 9.6 0 0 1 2.089-3.016 9.9 9.9 0 0 1 3.088-2.027A9.6 9.6 0 0 1 12.22 2.5q1.875 0 3.554.64a9.4 9.4 0 0 1 2.949 1.77 8.6 8.6 0 0 1 2.024 2.687 7.64 7.64 0 0 1 .754 3.376q0 2.596-1.543 4.061Q18.413 16.5 16 16.5h-1.812q-.426 0-.682.279a.94.94 0 0 0-.256.66q0 .463.375.963T14 19.55q0 .99-.548 1.47-.549.48-1.471.48M6.5 12.75q.534 0 .892-.358.358-.357.358-.892t-.358-.892a1.2 1.2 0 0 0-.892-.358q-.534 0-.892.358a1.2 1.2 0 0 0-.358.892q0 .535.358.892.358.358.892.358m3-4q.534 0 .892-.358a1.2 1.2 0 0 0 .358-.892q0-.534-.358-.892A1.2 1.2 0 0 0 9.5 6.25q-.534 0-.892.358a1.2 1.2 0 0 0-.358.892q0 .534.358.892.357.358.892.358m5 0q.535 0 .892-.358a1.2 1.2 0 0 0 .358-.892q0-.534-.358-.892a1.2 1.2 0 0 0-.892-.358q-.535 0-.892.358a1.2 1.2 0 0 0-.358.892q0 .534.358.892.357.358.892.358m3 4q.535 0 .892-.358.358-.357.358-.892t-.358-.892a1.2 1.2 0 0 0-.892-.358q-.535 0-.892.358a1.2 1.2 0 0 0-.358.892q0 .535.358.892.358.358.892.358M11.98 20q.245 0 .383-.12a.42.42 0 0 0 .137-.33q0-.35-.375-.787-.375-.435-.375-1.367 0-1.07.725-1.732Q13.2 15 14.25 15H16q1.765 0 2.883-1.034Q20 12.93 20 10.973q0-3.034-2.327-5.004T12.219 4Q8.79 4 6.395 6.325T4 12q0 3.325 2.338 5.663T11.98 20"/></svg>