<svg xmlns="http://www.w3.org/2000/svg" width="24" height="24" viewBox="0 0 24 24" fill='currentColor'><path d="M11.99 21.173q-2.698 0-4.878-1.41a9.36 9.36 0 0 1-3.343-3.723L1.5 15.042V8.958l2.27-.998a9.36 9.36 0 0 1 3.342-3.723q2.18-1.41 4.879-1.41 2.697 0 4.878 1.41a9.36 9.36 0 0 1 3.343 3.723l2.288.998v6.084l-2.288.998a9.36 9.36 0 0 1-3.343 3.724q-2.181 1.41-4.878 1.41m0-1.5a7.3 7.3 0 0 0 3.319-.77 8 8 0 0 0 2.65-2.141q-1.445.36-2.943.549t-3.025.19a24 24 0 0 1-3.027-.19 25 25 0 0 1-2.943-.55 8 8 0 0 0 2.651 2.142q1.536.77 3.319.77m0-15.346a7.3 7.3 0 0 0-3.318.77 8 8 0 0 0-2.65 2.142q1.445-.36 2.942-.55 1.498-.189 3.027-.189 1.528 0 3.025.19 1.498.189 2.943.549a8 8 0 0 0-2.65-2.142 7.3 7.3 0 0 0-3.318-.77M12 16a23.2 23.2 0 0 0 4.93-.505q2.325-.504 4.07-1.395V9.9q-1.745-.891-4.07-1.395A23.2 23.2 0 0 0 12 8q-2.608 0-4.93.505Q4.744 9.009 3 9.9v4.2q1.745.891 4.07 1.395Q9.391 16 12 16"/></svg>