<svg xmlns="http://www.w3.org/2000/svg" width="24" height="24" viewBox="0 0 24 24" fill='currentColor'><path d="M13.1 22.5h-2.6l.356-.234q.357-.233.775-.524.418-.29.774-.524l.357-.234h.692a8 8 0 0 0 3.867-1.176 7.85 7.85 0 0 0 2.804-2.933 12.4 12.4 0 0 1-4.075-1.09 11.9 11.9 0 0 1-3.45-2.42 12.3 12.3 0 0 1-2.42-3.45A11.7 11.7 0 0 1 9.1 5.85a7.8 7.8 0 0 0-3.012 2.962 8.05 8.05 0 0 0-1.074 4.483q.014.22.044.386l-.223.094q-.225.095-.5.2-.275.107-.498.207l-.224.099a7 7 0 0 1-.086-.686A9 9 0 0 1 3.5 12.9q0-3.285 2.003-5.851 2.003-2.567 5.18-3.366a10.5 10.5 0 0 0 .496 4.669 10.25 10.25 0 0 0 2.49 3.979 10.25 10.25 0 0 0 3.979 2.49q2.261.772 4.67.496-.785 3.177-3.36 5.18Q16.386 22.5 13.1 22.5M6 21h4.5q.624 0 1.063-.438Q12 20.125 12 19.5t-.425-1.063A1.38 1.38 0 0 0 10.55 18h-1.3l-.5-1.2q-.35-.825-1.1-1.313A2.97 2.97 0 0 0 6 15q-1.25 0-2.125.862Q3 16.725 3 18q0 1.25.875 2.125A2.9 2.9 0 0 0 6 21m0 1.5q-1.873-.02-3.186-1.328Q1.5 19.863 1.5 17.997t1.314-3.182T6 13.5q1.355 0 2.468.734a4.43 4.43 0 0 1 1.654 1.977l.125.289h.308a2.93 2.93 0 0 1 2.084.902q.86.871.86 2.098 0 1.248-.876 2.124a2.9 2.9 0 0 1-2.124.876z"/></svg>