<svg xmlns="http://www.w3.org/2000/svg" width="24" height="24" viewBox="0 0 24 24" fill='currentColor'><path d="M11.25 5.212V1.52h1.5v3.692zm6.073 2.519-1.054-1.063 2.614-2.63 1.053 1.08zm1.465 5.02v-1.5h3.693v1.5zm.095 7.186-2.614-2.614 1.064-1.063 2.629 2.598zM6.687 7.74 4.054 5.108l1.079-1.06L7.74 6.687zm-.398 11.317h4.307q.72 0 1.236-.514.514-.514.514-1.236 0-.72-.497-1.23a1.64 1.64 0 0 0-1.218-.51H9.51l-.433-1.037a3 3 0 0 0-1.153-1.37 3.1 3.1 0 0 0-1.732-.507q-1.317 0-2.235.918t-.918 2.236q0 1.355.947 2.303.947.947 2.303.947m0 1.5q-1.97 0-3.36-1.39t-1.39-3.36q0-1.941 1.356-3.297 1.358-1.357 3.297-1.357 1.433 0 2.608.793a4.54 4.54 0 0 1 1.708 2.12q1.354 0 2.341.917.987.916.997 2.406a3.13 3.13 0 0 1-.971 2.249q-.94.92-2.279.919zm7.538-3.36q-.096-.375-.193-.73-.096-.355-.192-.73a4.2 4.2 0 0 0 1.856-1.489Q16 13.244 16 12q0-1.65-1.175-2.825T12 8a3.88 3.88 0 0 0-2.663 1.01Q8.2 10.017 8.04 11.546q-.375-.096-.766-.176-.39-.081-.765-.177.293-2.046 1.86-3.37A5.46 5.46 0 0 1 12 6.5q2.289 0 3.894 1.606Q17.5 9.712 17.5 12a5.33 5.33 0 0 1-1.009 3.174 5.57 5.57 0 0 1-2.664 2.024"/></svg>