<svg xmlns="http://www.w3.org/2000/svg" width="24" height="24" viewBox="0 0 24 24" fill='currentColor'><path d="M4.203 12.817q-1.126 0-1.915-.79A2.6 2.6 0 0 1 1.5 10.11q0-1.129.788-1.912a2.6 2.6 0 0 1 1.913-.784q1.125 0 1.915.786.788.785.788 1.907a2.62 2.62 0 0 1-.788 1.92 2.6 2.6 0 0 1-1.913.791m15.596-.01q-1.125 0-1.915-.787a2.6 2.6 0 0 1-.788-1.914q0-1.125.788-1.914a2.6 2.6 0 0 1 1.913-.788q1.126 0 1.915.788.788.788.788 1.913t-.788 1.914a2.6 2.6 0 0 1-1.913.789m-5.482-1.32L10.64 7.787q.288-.192.639-.288.35-.096.722-.096 1.125 0 1.914.788t.788 1.914q0 .376-.096.732a2.2 2.2 0 0 1-.289.648m5.83 10.767-3.64-3.639H2.5V17h12.392L1.746 3.854 2.8 2.8l18.4 18.4z"/></svg>