<svg xmlns="http://www.w3.org/2000/svg" width="24" height="24" viewBox="0 0 24 24" fill='currentColor'><path d="M15.935 13.808a2.53 2.53 0 0 1-1.853-.762 2.52 2.52 0 0 1-.765-1.851q0-1.089.762-1.854a2.52 2.52 0 0 1 1.851-.764q1.089 0 1.854.762t.764 1.851q0 1.09-.762 1.853a2.52 2.52 0 0 1-1.851.765m-5.618 5.615v-1.515q0-.426.207-.811t.57-.612a9.4 9.4 0 0 1 2.294-.965 9.7 9.7 0 0 1 2.545-.328q1.338 0 2.545.328t2.293.965a1.6 1.6 0 0 1 .57.612q.207.386.207.81v1.516zm1.592-1.654v.154h8.047v-.154a8.3 8.3 0 0 0-1.951-.803 7.94 7.94 0 0 0-4.144 0q-1.02.274-1.952.803m4.024-5.461q.463 0 .789-.326t.326-.79-.326-.789a1.08 1.08 0 0 0-.79-.326q-.462 0-.789.326-.326.325-.326.79 0 .462.326.789.326.326.79.326M3.443 13.75v-1.5h7.5v1.5zm0-8v-1.5h11.5v1.5zm7.955 4H3.442v-1.5h8.693q-.264.33-.443.699-.178.37-.294.801"/></svg>