<svg xmlns="http://www.w3.org/2000/svg" width="24" height="24" viewBox="0 0 24 24" fill='currentColor'><path d="M13.75 12.711q-1.048 0-1.774-.726a2.4 2.4 0 0 1-.726-1.774q0-1.048.726-1.774a2.4 2.4 0 0 1 1.774-.726q1.048 0 1.774.726t.726 1.774-.726 1.774a2.4 2.4 0 0 1-1.774.726m-8.404 3.096V4.615h16.808v11.192zm3.308-1.5h10.192q0-.747.531-1.277t1.277-.53V7.923a1.74 1.74 0 0 1-1.278-.531 1.74 1.74 0 0 1-.53-1.277H8.654q0 .749-.531 1.278-.531.53-1.277.53V12.5q.748 0 1.278.53.53.532.53 1.277m-6.808 5V7.597h1.5v10.212h15.827v1.5z"/></svg>