<svg xmlns="http://www.w3.org/2000/svg" width="24" height="24" viewBox="0 0 24 24" fill='currentColor'><path d="M12 17.635a8.5 8.5 0 0 0-2.992.533 8.3 8.3 0 0 0-2.652 1.62V20h11.26v-.212a8.1 8.1 0 0 0-2.622-1.62A8.5 8.5 0 0 0 12 17.634m-7 1.35q1.35-1.326 3.137-2.088 1.788-.762 3.863-.762 2.074 0 3.863.762A10.1 10.1 0 0 1 19 18.985V6H5zm7-5.235q-1.353 0-2.302-.948-.948-.949-.948-2.302t.948-2.302T12 7.25q1.353 0 2.302.948.948.948.948 2.302 0 1.353-.948 2.302-.949.948-2.302.948m0-1.5q.72 0 1.236-.514.514-.514.514-1.236 0-.721-.514-1.235A1.68 1.68 0 0 0 12 8.75q-.721 0-1.235.515a1.68 1.68 0 0 0-.515 1.235q0 .72.515 1.236.513.514 1.235.514M3.5 21.5v-17h3.192V2.385h1.539V4.5h7.577V2.385h1.5V4.5H20.5v17zm8.505-1.5h5.61-11.26z"/></svg>