<svg xmlns="http://www.w3.org/2000/svg" width="24" height="24" viewBox="0 0 24 24" fill='currentColor'><path d="M12 20.289.711 9a15.8 15.8 0 0 1 5.2-3.347A16.4 16.4 0 0 1 12 4.5q3.17 0 6.09 1.153A15.8 15.8 0 0 1 23.288 9zm0-2.139 9.1-9.1q-1.975-1.5-4.3-2.275A15.1 15.1 0 0 0 12 6q-2.475 0-4.8.775A14.8 14.8 0 0 0 2.9 9.05zM11.25 15h1.5v-5h-1.5zM12 8.904q.343 0 .575-.232a.78.78 0 0 0 .233-.576.78.78 0 0 0-.232-.575.78.78 0 0 0-.576-.232.78.78 0 0 0-.575.232.78.78 0 0 0-.233.575q0 .344.232.576a.78.78 0 0 0 .576.232"/></svg>