<svg xmlns="http://www.w3.org/2000/svg" width="24" height="24" viewBox="0 0 24 24" fill='currentColor'><path d="m2.5 21.5 19-19v9.41a5.7 5.7 0 0 0-1.5-.46V6.123L6.123 20h6.233q.12.405.299.773.178.367.4.727zM6.123 20 20 6.123l-6.938 6.939zm11.839 2.384-.204-1.192a4 4 0 0 1-.726-.291 3 3 0 0 1-.643-.462l-1.143.392-.769-1.258.92-.788a3.4 3.4 0 0 1-.108-.843q0-.42.107-.842l-.919-.789.77-1.257 1.142.392a2.6 2.6 0 0 1 .638-.462q.345-.177.73-.292l.204-1.192h1.5l.204 1.192q.387.115.731.292.344.176.639.462l1.142-.392.769 1.257-.92.789q.109.421.108.842 0 .421-.107.843l.919.788-.77 1.258-1.141-.392a3 3 0 0 1-.644.462 4 4 0 0 1-.726.291l-.203 1.192zm.75-2.365q.863 0 1.47-.606.607-.608.607-1.47 0-.864-.607-1.471a2 2 0 0 0-1.47-.607q-.864 0-1.47.607a2 2 0 0 0-.608 1.47q0 .864.607 1.47.608.607 1.47.607"/></svg>