<svg xmlns="http://www.w3.org/2000/svg" width="24" height="24" viewBox="0 0 24 24" fill='currentColor'><path d="M5.5 21.5V12q0-2.03 1.098-3.613a6.5 6.5 0 0 1 2.825-2.322V5.5q0-1.074.752-1.826a2.5 2.5 0 0 1 1.827-.751q1.075 0 1.825.751.75.752.75 1.826v.565a6.5 6.5 0 0 1 2.825 2.322Q18.5 9.971 18.5 12v9.5zM7 20h10v-8q0-2.076-1.463-3.538T12 7Q9.925 7 8.463 8.462 7 9.924 7 12zm1.25-6.25h6v2h1.5v-3.5h-7.5zm2.673-8.131q.285-.06.538-.09.255-.03.539-.03t.539.03q.253.03.538.09v-.12q0-.457-.31-.767a1.04 1.04 0 0 0-.767-.31q-.457 0-.767.31t-.31.768z"/></svg>