<svg xmlns="http://www.w3.org/2000/svg" width="24" height="24" viewBox="0 0 24 24" fill='currentColor'><path d="M12.564 19.308H4.5v-2.223q0-.735.399-1.36a2.66 2.66 0 0 1 1.066-.963 14.5 14.5 0 0 1 2.992-1.09A13 13 0 0 1 12 13.307v1.5q-1.368 0-2.71.328-1.344.327-2.636.964-.301.165-.478.422a1 1 0 0 0-.176.563v.723h6.106q.07.393.184.769.115.375.274.73m5.282 2.192q-1.67-.41-2.662-1.84a5.45 5.45 0 0 1-.992-3.177v-2.34l3.654-1.835 3.654 1.836v2.34q0 1.745-.991 3.175-.992 1.43-2.663 1.841m0-1.552a3.18 3.18 0 0 0 1.595-1.38 4.05 4.05 0 0 0 .569-2.085v-1.416l-2.164-1.077-2.163 1.077v1.416q0 1.117.568 2.085.568.969 1.595 1.38M12 11.692q-1.444 0-2.472-1.028T8.5 8.192t1.028-2.471T12 4.692t2.472 1.029T15.5 8.192t-1.028 2.472T12 11.692m0-1.5q.825 0 1.412-.587Q14 9.017 14 8.192q0-.824-.588-1.412A1.93 1.93 0 0 0 12 6.192q-.825 0-1.412.588A1.93 1.93 0 0 0 10 8.192q0 .825.588 1.413.587.588 1.412.587"/></svg>