<svg xmlns="http://www.w3.org/2000/svg" width="24" height="24" viewBox="0 0 24 24" fill='currentColor'><path d="M2.5 22.115v-1.5h19v1.5zm2-2.615v-5.346a15 15 0 0 1-1.29-3.084 11 11 0 0 1-.445-3.049q0-1.352.345-2.726t.917-2.924q.142-.39.467-.63t.74-.241q.554 0 .941.395.387.396.315.928l-.265 2.17q-.15 1.257.265 2.428t1.223 2.075A6.3 6.3 0 0 0 9.63 10.95a5.3 5.3 0 0 0 2.37.55q1.53 0 2.921.264 1.392.265 2.402.763 1.038.517 1.608 1.323t.569 2v3.65zM6 18h12v-2.15q0-.648-.329-1.14-.33-.49-.956-.795-.918-.442-2.182-.678A13.7 13.7 0 0 0 12 13a6.7 6.7 0 0 1-2.995-.694 7.7 7.7 0 0 1-2.41-1.841A7.9 7.9 0 0 1 5.074 7.84 6.7 6.7 0 0 1 4.75 4.8a8.7 8.7 0 0 0-.362 1.58q-.113.832-.113 1.641 0 1.365.479 2.768.48 1.405 1.246 2.95zm6-7.73q-1.448 0-2.474-1.027A3.37 3.37 0 0 1 8.5 6.77q0-1.448 1.026-2.474A3.37 3.37 0 0 1 12 3.27q1.448 0 2.474 1.026A3.37 3.37 0 0 1 15.5 6.77q0 1.449-1.026 2.474A3.37 3.37 0 0 1 12 10.27m0-1.5q.825 0 1.412-.588Q14 7.594 14 6.769t-.588-1.412A1.93 1.93 0 0 0 12 4.769q-.825 0-1.412.588A1.93 1.93 0 0 0 10 6.769q0 .825.588 1.413.587.587 1.412.587M8.27 19.5v-.666q0-1.54 1.075-2.63 1.077-1.088 2.616-1.088h3.693v1.5H11.96q-.926 0-1.559.65a2.17 2.17 0 0 0-.633 1.569v.665z"/></svg>