<svg xmlns="http://www.w3.org/2000/svg" width="24" height="24" viewBox="0 0 24 24" fill='currentColor'><path d="M12.005 17.692q-1.482 0-2.853.476-1.371.477-2.537 1.447V20h10.76v-.385a7.9 7.9 0 0 0-2.517-1.447 8.6 8.6 0 0 0-2.853-.476m-.005-1.5q1.725 0 3.225.525T18 18.192V4H6v14.192a10.3 10.3 0 0 1 2.775-1.475q1.5-.525 3.225-.525m0-3.653q-.721 0-1.235-.515a1.68 1.68 0 0 1-.515-1.235q0-.722.515-1.236A1.68 1.68 0 0 1 12 9.039q.72 0 1.236.514.514.515.514 1.236 0 .72-.514 1.235a1.68 1.68 0 0 1-1.236.515M4.5 21.5v-19h15v19zm7.5-7.461q1.353 0 2.302-.948.948-.95.948-2.302 0-1.354-.948-2.302-.949-.95-2.302-.949-1.353 0-2.302.948-.948.949-.948 2.303t.948 2.302 2.302.948"/></svg>