<svg xmlns="http://www.w3.org/2000/svg" width="24" height="24" viewBox="0 0 24 24" fill='currentColor'><path d="M18.125 13.75v-3h-3v-1.5h3v-3h1.5v3h3v1.5h-3v3zM9 11.692q-1.444 0-2.472-1.028T5.5 8.192t1.028-2.471T9 4.692t2.472 1.029T12.5 8.192t-1.028 2.472T9 11.692m-7.5 7.616v-2.223q0-.735.399-1.36a2.66 2.66 0 0 1 1.067-.963 14.5 14.5 0 0 1 2.99-1.09 12.95 12.95 0 0 1 6.087 0q1.509.363 2.992 1.09.667.336 1.066.962.399.627.399 1.36v2.224zm1.5-1.5h12v-.723a1 1 0 0 0-.176-.563 1.3 1.3 0 0 0-.478-.422 13 13 0 0 0-2.635-.964 11.4 11.4 0 0 0-5.422 0q-1.343.327-2.635.964-.301.165-.478.422a1 1 0 0 0-.176.563zm6-7.616q.825 0 1.412-.587Q11 9.017 11 8.192q0-.824-.588-1.412A1.93 1.93 0 0 0 9 6.192q-.825 0-1.412.588A1.93 1.93 0 0 0 7 8.192q0 .825.588 1.413.587.588 1.412.587"/></svg>