<svg xmlns="http://www.w3.org/2000/svg" width="24" height="24" viewBox="0 0 24 24" fill='currentColor'><path d="M4.5 19.308v-2.223q0-.735.399-1.36a2.66 2.66 0 0 1 1.066-.963 14.5 14.5 0 0 1 2.992-1.09 13 13 0 0 1 4.632-.266q.79.097 1.584.3l-1.252 1.267a23 23 0 0 0-.96-.118 10 10 0 0 0-.961-.047q-1.368 0-2.71.328-1.344.327-2.636.964-.301.165-.478.422a1 1 0 0 0-.176.563v.723h5.923v1.5zm9.616 1.192v-2.642l6.267-6.242 2.632 2.626-6.257 6.258zm1.192-1.192h.95l3.246-3.262-.46-.475-.465-.469-3.271 3.256zm3.736-3.737-.465-.469.925.944zM12 11.692q-1.444 0-2.472-1.028T8.5 8.192t1.028-2.471T12 4.692t2.472 1.029T15.5 8.192t-1.028 2.472T12 11.692m0-1.5q.825 0 1.412-.587Q14 9.017 14 8.192q0-.824-.588-1.412A1.93 1.93 0 0 0 12 6.192q-.825 0-1.412.588A1.93 1.93 0 0 0 10 8.192q0 .825.588 1.413.587.588 1.412.587"/></svg>