<svg xmlns="http://www.w3.org/2000/svg" width="24" height="24" viewBox="0 0 24 24" fill='currentColor'><path d="M12 12.692q-1.444 0-2.472-1.028T8.5 9.192V6.067q0-.549.382-.933.38-.384.926-.384a1.3 1.3 0 0 1 1.096.588q.18-.276.47-.432A1.3 1.3 0 0 1 12 4.75a1.3 1.3 0 0 1 1.096.588q.18-.276.47-.432t.621-.156q.553 0 .933.384t.38.933v3.125q0 1.444-1.028 2.472T12 12.692m0-1.5q.825 0 1.412-.587.588-.588.588-1.413v-2.5h-4v2.5q0 .825.588 1.413.587.587 1.412.587m-7.5 9.116v-2.224q0-.735.399-1.36a2.66 2.66 0 0 1 1.066-.963 14.5 14.5 0 0 1 2.992-1.09 12.95 12.95 0 0 1 6.086 0q1.509.364 2.992 1.09.667.338 1.066.963t.399 1.36v2.224zm1.5-1.5h12v-.724a1 1 0 0 0-.176-.562 1.3 1.3 0 0 0-.478-.422 13 13 0 0 0-2.635-.965 11.4 11.4 0 0 0-5.422 0q-1.343.329-2.635.965-.301.164-.478.422a1 1 0 0 0-.176.563z"/></svg>