<svg xmlns="http://www.w3.org/2000/svg" width="24" height="24" viewBox="0 0 24 24" fill='currentColor'><path d="M12 11.692q-1.444 0-2.472-1.028T8.5 8.192t1.028-2.471T12 4.692t2.472 1.029T15.5 8.192t-1.028 2.472T12 11.692m-7.5 7.616v-2.223q0-.743.396-1.365t1.07-.958q1.423-.693 2.94-1.073a12.7 12.7 0 0 1 3.096-.381q1.577 0 3.093.38 1.516.382 2.94 1.074.672.336 1.069.958.396.623.396 1.365v2.223zm7.5-9.116q.825 0 1.412-.587Q14 9.017 14 8.192q0-.824-.588-1.412A1.93 1.93 0 0 0 12 6.192q-.825 0-1.412.588A1.93 1.93 0 0 0 10 8.192q0 .825.588 1.413.587.588 1.412.587m3.711 5.23v2.386H18v-.723a.96.96 0 0 0-.183-.577 1.36 1.36 0 0 0-.47-.408 8 8 0 0 0-.806-.377 13 13 0 0 0-.83-.302M9.79 15.03v1.277h4.422V15.03a9 9 0 0 0-1.103-.171 12 12 0 0 0-2.219 0 9 9 0 0 0-1.1.17M6 17.808h2.289V15.42q-.414.134-.83.302a8 8 0 0 0-.805.377q-.289.154-.471.408a.96.96 0 0 0-.183.577z"/></svg>