<svg xmlns="http://www.w3.org/2000/svg" width="24" height="24" viewBox="0 0 24 24" fill='currentColor'><path d="M12 9.827q-1.444 0-2.472-1.028T8.5 6.327t1.028-2.472T12 2.827t2.472 1.028Q15.5 4.884 15.5 6.327T14.472 8.8 12 9.827m0-1.5q.825 0 1.412-.587Q14 7.152 14 6.327q0-.824-.588-1.412A1.93 1.93 0 0 0 12 4.327q-.825 0-1.412.588A1.93 1.93 0 0 0 10 6.327q0 .825.588 1.413.587.587 1.412.587M4.5 20.981v-5.939q0-.735.39-1.36.389-.627 1.076-.978 1.265-.63 2.805-1.042A12.5 12.5 0 0 1 12 11.25q1.689 0 3.229.412a15 15 0 0 1 2.806 1.042q.686.351 1.076.978.39.626.389 1.361v4.13q0 .758-.525 1.283t-1.283.525H10q-1.015 0-1.71-.694-.693-.695-.694-1.71 0-1.015.694-1.71.694-.694 1.71-.694h2.95l1.521-3.136a9 9 0 0 0-1.236-.218q-.65-.069-1.235-.069-1.617 0-2.974.39t-2.357.902a1.2 1.2 0 0 0-.493.425Q6 14.74 6 15.042v5.939zm5.5-1.5h1.373l.873-1.808H10a.87.87 0 0 0-.636.268.87.87 0 0 0-.268.636q0 .368.268.636.27.268.636.268m3.025 0h4.667a.3.3 0 0 0 .221-.087.3.3 0 0 0 .087-.22v-4.132q0-.303-.186-.575a1.34 1.34 0 0 0-.468-.425q-.31-.159-.664-.312t-.736-.293z"/></svg>