<svg xmlns="http://www.w3.org/2000/svg" width="24" height="24" viewBox="0 0 24 24" fill='currentColor'><path d="M11 11.692q-1.444 0-2.472-1.028T7.5 8.192t1.028-2.471T11 4.692t2.472 1.029T14.5 8.192t-1.028 2.472T11 11.692m0-1.5q.825 0 1.412-.587Q13 9.017 13 8.192q0-.824-.588-1.412A1.93 1.93 0 0 0 11 6.192q-.825 0-1.412.588A1.93 1.93 0 0 0 9 8.192q0 .825.588 1.413.587.588 1.412.587m10.658 12.52-2.931-2.931q-.506.32-1.067.5-.562.18-1.158.18-1.655 0-2.81-1.155-1.153-1.157-1.153-2.808t1.156-2.806q1.155-1.153 2.807-1.153t2.806 1.155 1.154 2.806q0 .598-.181 1.16a4.7 4.7 0 0 1-.5 1.067l2.93 2.93zm-5.158-3.75q1.04 0 1.751-.71.71-.711.71-1.752t-.71-1.75q-.71-.712-1.751-.711-1.04 0-1.751.71t-.71 1.751.71 1.751 1.751.71m-13 .346V17.1q0-.744.392-1.368a2.66 2.66 0 0 1 1.073-.97q1.179-.593 2.842-1.052 1.662-.46 3.641-.383a5.5 5.5 0 0 0-.387.729q-.165.375-.261.777-1.645.02-2.992.435-1.349.417-2.139.832a1.2 1.2 0 0 0-.493.422A1.03 1.03 0 0 0 5 17.1v.708h5.685a5 5 0 0 0 .59 1.5z"/></svg>