<svg xmlns="http://www.w3.org/2000/svg" width="24" height="24" viewBox="0 0 24 24" fill='currentColor'><path d="M4.5 11.875q-.945 0-1.597-.652a2.17 2.17 0 0 1-.653-1.598q0-.945.652-1.597A2.17 2.17 0 0 1 4.5 7.375q.945 0 1.597.652.653.653.653 1.598t-.652 1.597a2.17 2.17 0 0 1-1.598.653m4.5-4q-.945 0-1.597-.652a2.17 2.17 0 0 1-.653-1.598q0-.945.652-1.597A2.17 2.17 0 0 1 9 3.375q.945 0 1.598.652.653.653.653 1.598t-.652 1.597A2.17 2.17 0 0 1 9 7.875m6 0q-.945 0-1.597-.652a2.17 2.17 0 0 1-.653-1.598q0-.945.652-1.597A2.17 2.17 0 0 1 15 3.375q.945 0 1.597.652.653.653.653 1.598t-.652 1.597A2.17 2.17 0 0 1 15 7.875m4.5 4q-.945 0-1.597-.652a2.17 2.17 0 0 1-.653-1.598q0-.945.652-1.597a2.17 2.17 0 0 1 1.598-.653q.945 0 1.597.652.653.653.653 1.598t-.652 1.597a2.17 2.17 0 0 1-1.598.653m-12.85 10q-1.028 0-1.715-.788a2.75 2.75 0 0 1-.685-1.862q0-1.261.873-2.184.873-.922 1.72-1.843a9.7 9.7 0 0 0 1.254-1.692 10.5 10.5 0 0 1 1.245-1.708 5 5 0 0 1 1.195-1.012A2.76 2.76 0 0 1 12 10.375q.8 0 1.483.39.682.39 1.194 1.002a11 11 0 0 1 1.233 1.716q.532.915 1.248 1.715.846.922 1.719 1.843a3.07 3.07 0 0 1 .873 2.184q0 1.073-.686 1.862-.685.788-1.714.788-1.35 0-2.675-.225a16 16 0 0 0-5.35 0 16 16 0 0 1-2.675.225"/></svg>