<svg xmlns="http://www.w3.org/2000/svg" width="24" height="24" viewBox="0 0 24 24" fill='currentColor'><path d="M16.654 12.192V8.315l-2.358 2.358-.623-.623 2.8-2.8-2.8-2.8.623-.623 2.358 2.358V2.308h.423l2.792 2.823-2.15 2.119 2.15 2.15-2.792 2.792zm.884-1.707L18.624 9.4l-1.085-1.085zm0-4.3 1.085-1.054-1.085-1.085zM19.575 20.5q-2.913 0-5.803-1.297-2.889-1.297-5.283-3.692-2.385-2.394-3.687-5.285T3.5 4.425V3.5h5.17l.886 4.554-2.773 2.692q.617 1.08 1.32 2.009.704.927 1.49 1.697.762.783 1.697 1.479t2.08 1.338l2.755-2.804 4.375.89V20.5zM6.073 9.327l1.871-1.785L7.442 5H5.016q.075 1.134.34 2.209.265 1.074.717 2.118m8.7 8.642q.962.445 2.051.7t2.176.3v-2.402l-2.37-.475z"/></svg>