<svg xmlns="http://www.w3.org/2000/svg" width="24" height="24" viewBox="0 0 24 24" fill='currentColor'><path d="m17 15.577-.111-1.038a2 2 0 0 1-.51-.201 1.7 1.7 0 0 1-.39-.324l-.939.432-.75-1.307.827-.616a1.8 1.8 0 0 1-.088-.538q0-.252.088-.539l-.827-.615.78-1.277.909.402q.18-.183.39-.301a2 2 0 0 1 .51-.194L17 8.423h1.5l.111 1.038q.297.075.51.194.21.119.39.3l.908-.401.781 1.277-.827.615q.088.286.088.539 0 .252-.088.538l.827.616-.75 1.307-.938-.432q-.18.198-.392.324a2 2 0 0 1-.509.2l-.111 1.039zm.75-2.058q.65 0 1.084-.434.435-.435.435-1.085t-.434-1.085a1.47 1.47 0 0 0-1.085-.434q-.65 0-1.085.434-.434.435-.434 1.085t.434 1.085q.435.434 1.085.434M5.5 22.5v-21h13v5.462H17V5.75H7v12.5h10v-1.212h1.5V22.5zM7 19.75V21h10v-1.25zm0-15.5h10V3H7z"/></svg>