<svg xmlns="http://www.w3.org/2000/svg" width="24" height="24" viewBox="0 0 24 24" fill='currentColor'><path d="M20.55 21.625q-3.775-.075-7.05-1.512t-5.725-3.888T3.888 10.5 2.375 3.45a.96.96 0 0 1 .288-.762q.312-.313.762-.313h3.25q.425 0 .738.313.312.312.312.762.025 1 .163 1.862.137.862.412 1.638.1.3.025.612-.075.313-.3.538L5.65 10.475q1.15 2.45 3.225 4.537 2.075 2.088 4.6 3.313l2.375-2.375q.225-.225.55-.313a.95.95 0 0 1 .625.038q.825.25 1.713.387.886.138 1.812.163.45.025.762.35.313.325.313.775v3.225q0 .45-.3.75t-.775.3M14.9 19.05q1.175.45 2.45.712 1.275.263 2.65.363a.12.12 0 0 0 .087-.038.12.12 0 0 0 .038-.087v-2.15a.12.12 0 0 0-.038-.087.12.12 0 0 0-.087-.038 11.1 11.1 0 0 1-3.1-.55.3.3 0 0 0-.112.025q-.063.025-.113.05zm5.225-6.925q0-3.45-2.4-5.85t-5.85-2.4v-1.5q2.025 0 3.813.762a9.8 9.8 0 0 1 3.1 2.075 9.8 9.8 0 0 1 2.075 3.1 9.6 9.6 0 0 1 .762 3.813zm-4 0q0-1.774-1.238-3.012t-3.012-1.238v-1.5q2.4 0 4.075 1.675t1.675 4.075zM4.95 9.075l1.75-1.8a.12.12 0 0 0 .063-.087.6.6 0 0 0 .012-.113q-.2-.725-.337-1.488A14 14 0 0 1 6.25 4a.12.12 0 0 0-.037-.088q-.038-.037-.113-.037H4a.12.12 0 0 0-.087.037.12.12 0 0 0-.038.088q.075 1.3.35 2.562.275 1.263.725 2.513"/></svg>