<svg xmlns="http://www.w3.org/2000/svg" width="24" height="24" viewBox="0 0 24 24" fill='currentColor'><path d="M4.425 20.5H3.5v-5.144l4.375-.89 2.756 2.803a19 19 0 0 0 2.079-1.338q.935-.696 1.698-1.479a15.5 15.5 0 0 0 1.488-1.697q.705-.928 1.321-2.009l-2.773-2.692.887-4.554H20.5v.925q0 2.91-1.302 5.801t-3.687 5.285q-2.394 2.395-5.283 3.692T4.425 20.5M17.927 9.327q.452-1.044.716-2.118.265-1.075.341-2.209h-2.426l-.502 2.542zm-8.7 8.642-1.858-1.877L5 16.567v2.402a11.7 11.7 0 0 0 2.176-.3q1.09-.256 2.051-.7"/></svg>