<svg xmlns="http://www.w3.org/2000/svg" width="24" height="24" viewBox="0 0 24 24" fill='currentColor'><path d="M7.115 16.884V2.5h7.75a3.4 3.4 0 0 0-.23.74 6 6 0 0 0-.087.76H8.615v10.892h.289a8 8 0 0 1 2.487-1.654q1.391-.585 2.917-.584 1.515 0 2.911.592t2.492 1.662H20V9.403q.39-.01.76-.092t.74-.234v7.807zm-3.044 4.908L2.356 7.888l2.76-.352v1.51l-1.078.134 1.34 10.945 9.46-1.24h3.45l.122 1.12zM17.473 6.663l1.621-4.558h.975l1.637 4.558h-.921l-.346-.985h-1.724l-.326.985zm1.473-1.658h1.271l-.64-2.011zm-4.638 9.148q-1 0-1.942.308a5.6 5.6 0 0 0-1.724.923h7.331a5.6 5.6 0 0 0-1.724-.923 6.2 6.2 0 0 0-1.941-.308m-.002-8.115a2.5 2.5 0 0 1 1.841.755q.757.754.757 1.84a2.5 2.5 0 0 1-.755 1.84 2.5 2.5 0 0 1-1.84.757 2.5 2.5 0 0 1-1.84-.754 2.5 2.5 0 0 1-.758-1.84q0-1.085.755-1.841a2.5 2.5 0 0 1 1.84-.757m.002 1.5q-.46 0-.778.318a1.06 1.06 0 0 0-.319.778q0 .46.319.778.318.318.778.318.459 0 .777-.318.32-.318.319-.778 0-.459-.319-.778a1.06 1.06 0 0 0-.777-.318"/></svg>