<svg xmlns="http://www.w3.org/2000/svg" width="24" height="24" viewBox="0 0 24 24" fill='currentColor'><path d="M3.5 19.192v-3.5q0-1.872 1.314-3.186Q6.126 11.192 8 11.192h10.725q.74 0 1.258.506.517.506.517 1.244 0 .612-.37 1.085a1.78 1.78 0 0 1-.94.635l-2.594.722v3.828q0 .475-.214.861a1.86 1.86 0 0 1-.574.634 1.8 1.8 0 0 1-.794.306 1.75 1.75 0 0 1-.887-.127l-4.308-1.694zm11.596-3H9.28a.53.53 0 0 0-.402.158.584.584 0 0 0-.09.703q.091.16.3.24l5.586 2.207a.3.3 0 0 0 .288-.034.29.29 0 0 0 .135-.255zM5 17.692h2.648a1.5 1.5 0 0 1-.315-.417 1.1 1.1 0 0 1-.122-.515q0-.849.61-1.459a2 2 0 0 1 1.458-.609h4.017l5.504-1.475a.37.37 0 0 0 .175-.125.21.21 0 0 0 .025-.175.34.34 0 0 0-.087-.162q-.063-.063-.188-.063H8q-1.25 0-2.125.875A2.9 2.9 0 0 0 5 15.692zM10 10q-1.444 0-2.472-1.028T6.5 6.5t1.028-2.472T10 3t2.472 1.028T13.5 6.5t-1.028 2.472T10 10m0-1.5q.825 0 1.412-.588Q12 7.326 12 6.5q0-.824-.588-1.412A1.93 1.93 0 0 0 10 4.5q-.825 0-1.412.588A1.93 1.93 0 0 0 8 6.5q0 .824.588 1.412Q9.175 8.5 10 8.5"/></svg>