<svg xmlns="http://www.w3.org/2000/svg" width="24" height="24" viewBox="0 0 24 24" fill='currentColor'><path d="M12.75 11.25h7.22q-.29-2.895-2.307-4.917-2.019-2.024-4.913-2.302zm-1.5 8.72V4.03q-3.093.28-5.171 2.561Q4 8.873 4 12q0 3.128 2.079 5.409t5.171 2.56m1.5 0q2.895-.264 4.92-2.295t2.3-4.925h-7.22zm-.748 1.53a9.3 9.3 0 0 1-3.706-.748 9.6 9.6 0 0 1-3.016-2.03 9.6 9.6 0 0 1-2.032-3.016 9.25 9.25 0 0 1-.748-3.704q0-1.972.748-3.706a9.6 9.6 0 0 1 2.03-3.016 9.6 9.6 0 0 1 3.016-2.032 9.25 9.25 0 0 1 3.704-.748q1.972 0 3.697.749 1.725.75 3.017 2.04a9.7 9.7 0 0 1 2.039 3.015q.75 1.725.749 3.699 0 1.95-.748 3.683a9.7 9.7 0 0 1-2.03 3.026 9.5 9.5 0 0 1-3.016 2.04 9.3 9.3 0 0 1-3.704.748"/></svg>