<svg xmlns="http://www.w3.org/2000/svg" width="24" height="24" viewBox="0 0 24 24" fill='currentColor'><path d="M11.258 16.462q.469 0 .911-.132t.827-.376l2.585 2.584 1.053-1.053L14.05 14.9q.264-.375.385-.822.123-.447.123-.916 0-1.345-.948-2.273-.95-.928-2.302-.928-1.354 0-2.302.948-.948.95-.948 2.302 0 1.354.928 2.303.928.947 2.272.948m.05-1.5q-.721 0-1.236-.515a1.7 1.7 0 0 1-.514-1.235q0-.722.514-1.236a1.7 1.7 0 0 1 1.236-.515q.72 0 1.235.515t.515 1.235q0 .722-.515 1.236a1.7 1.7 0 0 1-1.235.515M4.5 21.5v-19h9.75l5.25 5.25V21.5zm9-13V4H6v16h12V8.5z"/></svg>