<svg xmlns="http://www.w3.org/2000/svg" width="24" height="24" viewBox="0 0 24 24" fill='currentColor'><path d="M14.304 10.365 13.26 9.321l2.715-2.715L13.26 3.89l1.044-1.054 2.715 2.716 2.716-2.716 1.044 1.054-2.716 2.716L20.78 9.32l-1.044 1.044-2.716-2.715zm-11.92.346 4.635-8.22 4.635 8.22zM7.03 20.76q-1.563 0-2.662-1.098T3.27 17.004q0-1.583 1.098-2.673t2.662-1.09 2.661 1.097T10.788 17 9.69 19.66t-2.66 1.1m0-1.5q.94 0 1.6-.66.66-.658.66-1.6 0-.94-.66-1.6-.66-.659-1.6-.659t-1.6.66-.66 1.6.66 1.6 1.6.66M4.948 9.211H9.1L7.02 5.567zM13.26 20.76v-7.52h7.519v7.52zm1.5-1.5h4.519v-4.52h-4.52z"/></svg>