<svg xmlns="http://www.w3.org/2000/svg" width="24" height="24" viewBox="0 0 24 24" fill='currentColor'><path d="m18.948 9.195-3.207-3.208-2.125 2.11-1.77-1.754 2.662-2.677q.261-.26.583-.38a1.87 1.87 0 0 1 1.311 0q.32.12.565.38l1.837 1.836q.411.396.605.906.193.51.193 1.046 0 .46-.16.909a2.6 2.6 0 0 1-.494.832M6.375 13.583a1.22 1.22 0 0 1-.382-.89q0-.506.382-.889l2.277-2.292 1.77 1.77-2.303 2.301a1.16 1.16 0 0 1-.864.383q-.498 0-.88-.383M4.896 20.73a1.8 1.8 0 0 1-.372-.585 1.9 1.9 0 0 1-.007-1.347 1.6 1.6 0 0 1 .38-.581l6.95-6.935-3.349-3.363a1.14 1.14 0 0 1-.378-.865q.005-.496.388-.88.367-.382.877-.377t.892.387l3.339 3.339 1.425-1.425 2.54 2.57q.233.234.233.523a.72.72 0 0 1-.233.522.72.72 0 0 1-.537.213q-.303-.01-.594-.28L7.375 20.72a1.7 1.7 0 0 1-.576.384q-.314.123-.651.123a1.83 1.83 0 0 1-1.252-.498"/></svg>