<svg xmlns="http://www.w3.org/2000/svg" width="24" height="24" viewBox="0 0 24 24" fill='currentColor'><path d="M11.25 21.5v-8.208a1.64 1.64 0 0 1-.552-.542A1.4 1.4 0 0 1 10.5 12q0-.612.443-1.056A1.44 1.44 0 0 1 12 10.5q.613 0 1.057.443.443.444.443 1.055 0 .426-.198.759t-.552.535V21.5zm-5.794-2.606a9.7 9.7 0 0 1-2.162-3.077q-.795-1.77-.794-3.814 0-1.972.748-3.706a9.6 9.6 0 0 1 2.03-3.018 9.6 9.6 0 0 1 3.016-2.03 9.25 9.25 0 0 1 3.704-.749q1.972 0 3.706.748A9.6 9.6 0 0 1 18.72 5.28a9.6 9.6 0 0 1 2.03 3.017 9.25 9.25 0 0 1 .749 3.706 9.3 9.3 0 0 1-.794 3.821 9.5 9.5 0 0 1-2.162 3.071L17.5 17.841a8.2 8.2 0 0 0 1.825-2.609A7.8 7.8 0 0 0 20 12q0-3.35-2.325-5.675T12 4 6.325 6.325 4 12q0 1.725.675 3.225t1.85 2.6zM8.28 16.07a5.7 5.7 0 0 1-1.3-1.804A5.35 5.35 0 0 1 6.5 12q0-2.292 1.604-3.896T11.998 6.5t3.896 1.605 1.606 3.899q0 1.215-.482 2.269a5.5 5.5 0 0 1-1.299 1.796L14.65 15a4.3 4.3 0 0 0 .987-1.35A3.85 3.85 0 0 0 16 12q0-1.65-1.175-2.825T12 8 9.175 9.175 8 12q0 .9.363 1.662.361.763.987 1.338z"/></svg>