<svg xmlns="http://www.w3.org/2000/svg" width="24" height="24" viewBox="0 0 24 24" fill='currentColor'><path d="m17.177 14.343 4.09-4.09 1.07 1.069-4.106 4.09zM1.875 19.395v-3.589a9.4 9.4 0 0 0 1.723-.63 8.7 8.7 0 0 0 1.573-.978l1.462 1.596.71-.71-1.416-1.53q.17-.171.34-.33.168-.158.339-.345L8.027 14.4l.725-.725-1.533-1.592q.126-.202.248-.421.123-.219.214-.471l1.756 1.8.696-.697-2.056-2.084 1.015-2.446 4.958-4.735 6.358 6.373-9.63 9.993zm1.5-1.5h6.76L18.3 9.433l-4.275-4.275-3.65 3.462-.706 1.727 2.018 2.015-5.125 5.125-1.358-1.502q-.43.306-.888.528-.456.222-.941.414z"/></svg>