<svg xmlns="http://www.w3.org/2000/svg" width="24" height="24" viewBox="0 0 24 24" fill='currentColor'><path d="M2.25 20.73v-1.518q.864-.048 1.334-.505t1.754-.457 1.83.5 1.501.5 1.502-.5q.545-.5 1.829-.5 1.285 0 1.838.5.555.5 1.512.5.958 0 1.492-.5.535-.5 1.82-.5 1.284 0 1.754.457.47.456 1.334.505v1.519q-1.186-.058-1.678-.52-.492-.46-1.41-.461-.92 0-1.454.5-.535.5-1.858.5t-1.877-.5-1.473-.5-1.463.5-1.868.5-1.867-.5-1.463-.5-1.411.462q-.492.46-1.678.519m0-4.5v-1.519q.864-.047 1.334-.504t1.754-.457 1.837.5 1.494.5q.959 0 1.502-.5.545-.5 1.829-.5t1.829.5 1.502.5 1.502-.5 1.829-.5 1.754.457 1.334.504v1.52q-1.186-.058-1.678-.52-.492-.46-1.41-.461-.92 0-1.431.5-.512.5-1.881.5-1.338 0-1.884-.5-.547-.5-1.466-.5-.95 0-1.456.5-.505.5-1.875.5t-1.89-.5q-.522-.5-1.44-.5-.92 0-1.411.461-.492.462-1.678.52M16.565 3.347q.964 0 1.636.68t.672 1.628q0 .963-.672 1.636a2.23 2.23 0 0 1-1.636.672 2.23 2.23 0 0 1-1.635-.672 2.23 2.23 0 0 1-.672-1.636q0-.948.672-1.628t1.635-.68M8.66 11.75q-.399 0-.703-.124a3 3 0 0 1-.614-.341l3.277-3.277-1.269-1.27-3.88-1.546V3.25l5.076 1.923 6.112 6.111a3 3 0 0 1-.614.342 1.9 1.9 0 0 1-.703.124q-.785 0-1.373-.5-.587-.5-1.968-.5-1.38 0-1.968.5t-1.373.5"/></svg>