<svg xmlns="http://www.w3.org/2000/svg" width="24" height="24" viewBox="0 0 24 24" fill='currentColor'><path d="m19.804 21.942-2.635-2.634H4.5v-2.223q0-.735.4-1.36a2.66 2.66 0 0 1 1.065-.963 13.8 13.8 0 0 1 4.958-1.393h.159q.081 0 .158.01L2.058 4.196l1.069-1.069 17.746 17.746zM12 17.808h3.67l-2.953-2.952-.358-.034q-.165-.014-.359-.014zm6.246-2.94q.446.214.708.653.26.439.277.946l-2.062-2.061q.278.107.546.215.27.108.531.246M13.94 11.11l-1.1-1.1q.528-.245.844-.738A1.96 1.96 0 0 0 14 8.192q0-.825-.588-1.412A1.93 1.93 0 0 0 12 6.192V9.17L9.083 6.252A3.46 3.46 0 0 1 12 4.692q1.448 0 2.474 1.026A3.37 3.37 0 0 1 15.5 8.192a3.46 3.46 0 0 1-1.56 2.918"/></svg>