<svg xmlns="http://www.w3.org/2000/svg" width="24" height="24" viewBox="0 0 24 24" fill='currentColor'><path d="m12.948 11.539 1.36-.989 1.334.989-.527-1.575 1.36-.979h-1.666l-.501-1.6-.508 1.6h-1.684l1.359.979zm-.95 5.077q1.913 0 3.266-1.338 1.35-1.338 1.351-3.276a6 6 0 0 0-.012-.369 2 2 0 0 0-.063-.365 3.15 3.15 0 0 1-1.13 1.785q-.876.703-2.052.703-1.383 0-2.331-.948t-.948-2.323q0-1.073.606-1.913.607-.84 1.57-1.187h-.253q-1.94 0-3.278 1.35-1.34 1.35-1.34 3.264 0 1.938 1.338 3.277t3.275 1.34M12 22.608 8.86 19.5H4.5v-4.36L1.392 12 4.5 8.86V4.5h4.36L12 1.393 15.14 4.5h4.36v4.36L22.608 12 19.5 15.14v4.36h-4.36zm0-2.108 2.5-2.5H18v-3.5l2.5-2.5L18 9.5V6h-3.5L12 3.5 9.5 6H6v3.5L3.5 12 6 14.5V18h3.5z"/></svg>