<svg xmlns="http://www.w3.org/2000/svg" width="24" height="24" viewBox="0 0 24 24" fill='currentColor'><path d="m17.162 20.92 1.323-1.334-2.014-2.013-1.332 1.323q-.437.436-.437 1.012 0 .575.437 1.011.436.437 1.011.437.574 0 1.012-.437m2.367-2.378 1.332-1.323q.437-.436.432-1.011t-.441-1.012a1.42 1.42 0 0 0-1.007-.431q-.57-.006-1.006.431l-1.324 1.333zm-1.308 3.446q-.867.868-2.076.863a2.87 2.87 0 0 1-2.076-.863 2.87 2.87 0 0 1-.862-2.075q-.005-1.209.862-2.076l3.71-3.71a2.83 2.83 0 0 1 2.076-.858q1.218 0 2.076.858.867.867.867 2.076t-.867 2.076zM10.904 20.5H3.5v-17h6.258a2.2 2.2 0 0 1 .727-1.416Q11.117 1.499 12 1.5a2.17 2.17 0 0 1 1.525.584q.632.583.717 1.416H20.5v7.461q-.375-.076-.75-.067-.375.01-.75.066V5H5v14h5.912q-.066.375-.076.75t.068.75M12 4.346a.73.73 0 0 0 .75-.75.73.73 0 0 0-.75-.75.73.73 0 0 0-.75.75.73.73 0 0 0 .75.75m-4.75 4.52v-1.5h9.5v1.5zm0 3.884v-1.5h9.5v.629a3 3 0 0 0-.325.249q-.153.133-.325.305l-.317.317zm0 3.884v-1.5h6.148l-.754.755q-.19.189-.357.373a5 5 0 0 0-.312.372z"/></svg>