<svg xmlns="http://www.w3.org/2000/svg" width="24" height="24" viewBox="0 0 24 24" fill='currentColor'><path d="M12.048 16.5q-1.848 0-3.321-.973Q7.254 14.555 6.548 13a6 6 0 0 1 1.357-1.878 5.9 5.9 0 0 1 1.99-1.227l.944.944a5.1 5.1 0 0 0-1.698.795A5 5 0 0 0 7.852 13a4.8 4.8 0 0 0 1.785 1.698q1.107.61 2.411.61.693 0 1.344-.186A5 5 0 0 0 14.6 14.6l.864.864a6 6 0 0 1-3.416 1.036m4.87-2.407-.845-.845.08-.124q.042-.058.082-.124a4.5 4.5 0 0 0-1.012-1.172 4.7 4.7 0 0 0-1.337-.766l-1.513-1.514a6.1 6.1 0 0 1 3.116 1.04q1.4.945 2.05 2.412-.132.29-.276.562a3.6 3.6 0 0 1-.346.53m2.674 7.623L18.377 20.5H3.5V5.623l-1.215-1.23 1.053-1.054 17.324 17.323zM5 19h11.877L5 7.123zm15.5-1.325-1.5-1.5V8.077h-8.098L6.325 3.5H20.5z"/></svg>