<svg xmlns="http://www.w3.org/2000/svg" width="24" height="24" viewBox="0 0 24 24" fill='currentColor'><path d="M3.5 20.5v-17h17v17zM5 19h14V7H5zm7-2.5q-1.839 0-3.297-.973A5.9 5.9 0 0 1 6.548 13a5.9 5.9 0 0 1 2.155-2.527Q10.161 9.5 12 9.5t3.297.973A5.9 5.9 0 0 1 17.452 13a5.9 5.9 0 0 1-2.155 2.527Q13.839 16.5 12 16.5m0-1.192q1.295 0 2.382-.61A4.85 4.85 0 0 0 16.148 13a4.85 4.85 0 0 0-1.766-1.698 4.8 4.8 0 0 0-2.382-.61q-1.294 0-2.382.61A4.85 4.85 0 0 0 7.852 13a4.85 4.85 0 0 0 1.766 1.698q1.088.61 2.382.61m.002-1q.546 0 .926-.383.38-.381.38-.927t-.383-.926a1.27 1.27 0 0 0-.927-.38q-.546 0-.926.383-.38.381-.38.927t.383.926q.381.38.927.38"/></svg>