<svg xmlns="http://www.w3.org/2000/svg" width="24" height="24" viewBox="0 0 24 24" fill='currentColor'><path d="M15.894 20.51v-4.654h.952v-1q0-.765.546-1.31.544-.546 1.311-.546t1.306.545.539 1.31v1h.952v4.654zm1.837-4.654h1.932v-1a.95.95 0 0 0-.268-.698.93.93 0 0 0-.693-.274.95.95 0 0 0-.698.274.95.95 0 0 0-.273.698zM6.497 20.5v-4H2.789V8.308h18.423v3.278a5.5 5.5 0 0 0-.72-.28 4 4 0 0 0-.78-.164V9.808H4.289V15H6.5v-1.77h7.98a6 6 0 0 0-.537.7 4 4 0 0 0-.404.8H8V19h5.283q.127.415.314.785t.432.715zM16 8.308v-3H8v3H6.5v-4.5h11v4.5z"/></svg>