<svg xmlns="http://www.w3.org/2000/svg" width="24" height="24" viewBox="0 0 24 24" fill='currentColor'><path d="M19.804 21.942 17.5 19.638v.862h-11v-4H2.788V8.308H6.17L2.058 4.196l1.069-1.069 17.746 17.746zM8 19h8v-.861l-3.408-3.408H8zm11.33-2.5-1.5-1.5h1.882V9.808h-7.073l-1.5-1.5h10.073V16.5zM4.289 15h2.213v-1.77h4.591L7.67 9.809H4.29zM16 8.308v-3H8.138l-1.5-1.5H17.5v4.5zm1.808 4q.424 0 .712-.288a.97.97 0 0 0 .288-.712.97.97 0 0 0-.288-.713.97.97 0 0 0-.712-.287.97.97 0 0 0-.713.287.97.97 0 0 0-.287.713q0 .424.287.712.288.288.713.288"/></svg>