<svg xmlns="http://www.w3.org/2000/svg" width="24" height="24" viewBox="0 0 24 24" fill='currentColor'><path d="M11.25 16.615h1.5v-5.827h-1.5zM12 9q.343 0 .575-.233a.78.78 0 0 0 .233-.575.78.78 0 0 0-.232-.576.78.78 0 0 0-.576-.232.78.78 0 0 0-.575.232.78.78 0 0 0-.233.576q0 .343.232.575A.78.78 0 0 0 12 9m0 12.48q-3.244-.885-5.372-3.819T4.5 11.1V5.346L12 2.538l7.5 2.808V11.1q0 3.627-2.128 6.561T12 21.481m0-1.58q2.6-.825 4.3-3.3 1.7-2.476 1.7-5.5V6.375l-6-2.24-6 2.24V11.1q0 3.024 1.7 5.5t4.3 3.3"/></svg>