<svg xmlns="http://www.w3.org/2000/svg" width="24" height="24" viewBox="0 0 24 24" fill='currentColor'><path d="M18.635 10.865q-.844 0-1.824-.5a7 7 0 0 1-1.836-1.38 7.7 7.7 0 0 1-1.357-1.862q-.499-.98-.499-1.818 0-.329.087-.587.086-.258.26-.432.591-.592 2.435-1.022a14.4 14.4 0 0 1 3.641-.384q.462.031.764.107.301.076.453.228a1 1 0 0 1 .22.408q.085.271.115.686a14.3 14.3 0 0 1-.335 3.68q-.414 1.888-1.02 2.495-.183.183-.474.282a2 2 0 0 1-.63.099m.692-3.663q.137-.565.205-1.273.068-.705.102-1.564a10 10 0 0 0-1.454.056q-.715.081-1.35.227.4.248.755.52.353.274.655.566.347.338.617.702.27.366.47.766m-.693 2.163q-.051-.548-.447-1.252a5.8 5.8 0 0 0-1.016-1.31 6 6 0 0 0-1.284-.988q-.68-.383-1.228-.45.05.576.425 1.295.375.72.935 1.28.6.6 1.308.988.707.387 1.307.437m2.666 8.979-4.594-4.594h-10L1.656 8.7 2.7 7.655l4.594 4.595h10l5.05 5.05zM8.25 21.49v-3.692q0-.748.53-1.278t1.278-.53h3.884q.749 0 1.278.53.53.53.53 1.278v3.692zm1.5-1.5h4.5v-2.192a.3.3 0 0 0-.086-.221.3.3 0 0 0-.222-.087h-3.884a.3.3 0 0 0-.222.087.3.3 0 0 0-.086.22z"/></svg>