<svg xmlns="http://www.w3.org/2000/svg" width="24" height="24" viewBox="0 0 24 24" fill='currentColor'><path d="M2.798 15.596v-2.223q0-.773.4-1.38a2.7 2.7 0 0 1 1.065-.944q1.425-.697 2.867-1.075 1.44-.378 3.168-.378 1.106 0 2.1.16.995.16 1.95.479a4.5 4.5 0 0 0-.57.575 6 6 0 0 0-.465.651q-.711-.191-1.456-.277a13 13 0 0 0-1.559-.088q-1.496 0-2.804.328a11.8 11.8 0 0 0-2.542.964q-.34.183-.497.427a1 1 0 0 0-.157.558v.723h8.027a7 7 0 0 0-.04.743q0 .372.03.757zm7.5-7.616q-1.444 0-2.472-1.028Q6.798 5.925 6.798 4.48q0-1.443 1.028-2.471T10.298.98t2.472 1.03 1.028 2.471-1.028 2.472-2.472 1.028m0-1.5q.825 0 1.412-.587.588-.588.588-1.413 0-.824-.588-1.412a1.93 1.93 0 0 0-1.412-.588q-.824 0-1.412.588a1.93 1.93 0 0 0-.588 1.412q0 .825.588 1.413.587.587 1.412.587m8.635-2q0 1.444-1.029 2.472T15.433 7.98q-.17 0-.431-.038a4 4 0 0 1-.43-.085q.606-.713.917-1.58.309-.865.309-1.798t-.32-1.793a5.6 5.6 0 0 0-.907-1.582q.216-.078.431-.1.215-.024.43-.024 1.444 0 2.472 1.029t1.029 2.471m-.138 14.74q-1.878 0-3.202-1.323-1.324-1.324-1.324-3.202 0-1.9 1.324-3.221 1.324-1.32 3.202-1.32 1.9 0 3.221 1.32 1.32 1.32 1.32 3.221 0 1.879-1.32 3.202-1.32 1.324-3.22 1.324m-.64-2.182 3.16-3.175-.623-.613-2.536 2.527-1.281-1.281-.623.638z"/></svg>