<svg xmlns="http://www.w3.org/2000/svg" width="24" height="24" viewBox="0 0 24 24" fill='currentColor'><path d="M10.75 21.412a9.6 9.6 0 0 1-3.273-1.066 9.5 9.5 0 0 1-2.615-2.075 9.6 9.6 0 0 1-1.734-2.86A9.3 9.3 0 0 1 2.5 12q0-2.218.922-4.11Q4.344 6 6.064 4.615H3.375v-1.5H8.75V8.49h-1.5V5.593a7.9 7.9 0 0 0-2.409 2.823A7.84 7.84 0 0 0 4 12q0 2.97 1.902 5.188t4.848 2.699zm-.175-5.158L6.696 12.36l1.054-1.054 2.825 2.825 5.675-5.675 1.054 1.07zm4.675 4.64V15.52h1.5v2.898q1.558-1.183 2.404-2.84A7.76 7.76 0 0 0 20 12q0-2.97-1.902-5.187t-4.848-2.7V2.59q3.54.48 5.895 3.128Q21.5 8.364 21.5 12q0 2.218-.922 4.114t-2.642 3.28h2.689v1.5z"/></svg>