<svg xmlns="http://www.w3.org/2000/svg" width="24" height="24" viewBox="0 0 24 24" fill='currentColor'><path d="M3.5 21.5V6.308h2.914V1.885h11.182v4.423H20.5V21.5zM7.914 6.308h8.182V3.385H7.913zM5 20h14V7.808H5zm6.99-1.385q1.96 0 3.34-1.38 1.382-1.382 1.382-3.326t-1.381-3.331-3.34-1.386q-1.951 0-3.327 1.386t-1.375 3.33 1.375 3.327 3.327 1.38m.005-1.173a3.4 3.4 0 0 1-2.494-1.03q-1.03-1.03-1.03-2.498 0-1.47 1.03-2.5a3.4 3.4 0 0 1 2.49-1.03 3.42 3.42 0 0 1 2.502 1.03q1.035 1.03 1.036 2.5 0 1.469-1.035 2.499a3.4 3.4 0 0 1-2.5 1.03m1.117-1.803.613-.614-1.292-1.302V11.52h-.866v2.566z"/></svg>