<svg xmlns="http://www.w3.org/2000/svg" width="24" height="24" viewBox="0 0 24 24" fill='currentColor'><path d="m2.558 17.819-1.222-.886 4.693-7.51 3 3.5 3.98-6.462 2.389 3.585a5.4 5.4 0 0 0-1.562.344l-.77-1.152-3.82 6.214-3.025-3.525zm19.017 4.825-3.279-3.26a3.5 3.5 0 0 1-1.04.516q-.57.175-1.181.175-1.672 0-2.836-1.164-1.164-1.162-1.164-2.836t1.164-2.837q1.162-1.163 2.836-1.163 1.672 0 2.837 1.163 1.163 1.163 1.163 2.837 0 .62-.18 1.195a3.7 3.7 0 0 1-.53 1.06l3.28 3.245zm-5.5-4.07q1.05.001 1.775-.724.725-.726.725-1.775 0-1.05-.725-1.775-.725-.726-1.775-.725-1.05 0-1.775.725t-.725 1.775.725 1.775 1.775.725m2.033-8.172a5.5 5.5 0 0 0-.738-.234q-.378-.091-.784-.116l4.856-7.697 1.221.887z"/></svg>