<svg xmlns="http://www.w3.org/2000/svg" width="24" height="24" viewBox="0 0 24 24" fill='currentColor'><path d="M12 22.5q-2.925 0-5.309-1.448a10.4 10.4 0 0 1-3.739-3.881v2.983h-1.5v-5.5h5.5v1.5h-2.84q1.084 2.184 3.205 3.515T12 21a8.8 8.8 0 0 0 3.445-.679 9 9 0 0 0 2.817-1.853 9.1 9.1 0 0 0 1.939-2.773 8.9 8.9 0 0 0 .79-3.445h1.5a10.2 10.2 0 0 1-.892 3.996 10.7 10.7 0 0 1-2.262 3.26A10.5 10.5 0 0 1 16.03 21.7q-1.89.8-4.03.8M1.51 11.75q.067-2.179.92-4.049a10.6 10.6 0 0 1 2.28-3.255 10.5 10.5 0 0 1 3.304-2.165Q9.888 1.5 12 1.5q2.895 0 5.309 1.453a10.07 10.07 0 0 1 3.739 3.915V3.846h1.5v5.5h-5.5v-1.5h2.84Q18.834 5.7 16.708 4.35T12 3a8.75 8.75 0 0 0-3.402.67 9.1 9.1 0 0 0-2.821 1.833 9.1 9.1 0 0 0-1.964 2.763q-.746 1.599-.804 3.484zm10.51 5.817a.98.98 0 0 0 .723-.295.98.98 0 0 0 .296-.724q0-.429-.296-.732a.97.97 0 0 0-.724-.303 1 1 0 0 0-.724.296.98.98 0 0 0-.295.724q0 .429.295.732a.97.97 0 0 0 .724.302m-.708-3.55h1.392q.02-.784.231-1.21.213-.426.834-1.048.798-.797 1.095-1.325t.297-1.24q0-1.294-.899-2.066t-2.223-.772q-1.125 0-1.948.578-.824.578-1.233 1.633l1.284.547q.214-.632.72-1.037a1.8 1.8 0 0 1 1.157-.406q.733 0 1.234.431.5.43.5 1.139 0 .462-.228.878-.229.415-.802.933-.815.735-1.113 1.379t-.298 1.586"/></svg>