<svg xmlns="http://www.w3.org/2000/svg" width="24" height="24" viewBox="0 0 24 24" fill='currentColor'><path d="M10.966 15.77q0-1.698.39-2.6.392-.902 1.635-2 .966-.862 1.466-1.563.499-.7.499-1.59 0-1.178-.803-1.959-.803-.78-2.21-.78-1.286 0-2 .688a4.8 4.8 0 0 0-1.087 1.536L7.03 6.7a5.7 5.7 0 0 1 1.82-2.395q1.236-.958 3.092-.958 2.424 0 3.73 1.366t1.307 3.243q0 1.173-.509 2.07-.508.897-1.543 1.869-1.302 1.194-1.612 1.883-.312.69-.311 1.992zm.976 5.73q-.613 0-1.056-.443A1.44 1.44 0 0 1 10.442 20q0-.613.444-1.056a1.44 1.44 0 0 1 1.056-.444q.614 0 1.057.444.443.442.443 1.056T13 21.057a1.44 1.44 0 0 1-1.057.443"/></svg>