<svg xmlns="http://www.w3.org/2000/svg" width="24" height="24" viewBox="0 0 24 24" fill='currentColor'><path d="M13.748 14.77q.369 0 .643-.272a.87.87 0 0 0 .274-.642q0-.369-.271-.643a.87.87 0 0 0-.642-.274q-.369 0-.643.271a.87.87 0 0 0-.274.641q0 .37.271.644a.87.87 0 0 0 .642.274m-.594-3.008h1.192q.019-.678.174-1.005.155-.328.734-.888.692-.663.942-1.121t.25-1.063q0-1.068-.754-1.761T13.75 5.23q-.93 0-1.634.512a2.9 2.9 0 0 0-1.024 1.376l1.081.454q.254-.606.651-.909.398-.302.926-.302.658 0 1.08.38.424.381.424 1.004 0 .38-.214.71-.215.333-.744.817-.73.639-.935 1.075-.207.437-.207 1.413M6.25 17.5v-15h15v15zm1.5-1.5h12V4h-12zm-5 5V6.308h1.5V19.5h13.192V21z"/></svg>