<svg xmlns="http://www.w3.org/2000/svg" width="24" height="24" viewBox="0 0 24 24" fill='currentColor'><path d="M5.308 21.5q-.758 0-1.283-.525a1.75 1.75 0 0 1-.525-1.283V6.308q0-.758.525-1.283T5.308 4.5h1.384V2.385h1.539V4.5h7.577V2.385h1.5V4.5h1.384q.758 0 1.283.525t.525 1.283v13.384q0 .758-.525 1.283t-1.283.525zM5 19.692q0 .116.096.212a.3.3 0 0 0 .212.096h13.384a.3.3 0 0 0 .212-.096.3.3 0 0 0 .096-.212V6.308a.3.3 0 0 0-.096-.212.3.3 0 0 0-.212-.096H5.308a.3.3 0 0 0-.212.096.3.3 0 0 0-.096.212zM9.308 20v-2.002L7.43 15.792a2.37 2.37 0 0 1-.623-1.638q0-.306.062-.594.063-.29.203-.56a2.6 2.6 0 0 1-.265-1.154q0-.548.188-.965.188-.418.435-.673l1.877-2.206V6H10.5v2.171q0 .126-.175.475l-2 2.35q-.175.2-.25.413T8 11.846q0 .5.325.863.326.362.825.362.225 0 .42-.075a.9.9 0 0 0 .355-.25q.425-.425.962-.65a2.85 2.85 0 0 1 2.226 0q.537.225.962.65a1.06 1.06 0 0 0 .775.325q.5 0 .825-.362a1.22 1.22 0 0 0 .237-1.275 2 2 0 0 0-.237-.413l-2-2.375a.53.53 0 0 1-.138-.225 1 1 0 0 1-.037-.25V6h1.192v2.012l1.892 2.236q.312.352.46.767.148.414.148.856 0 .306-.078.595-.078.288-.203.534a2.5 2.5 0 0 1 .281 1.154q0 .548-.188.965a2.4 2.4 0 0 1-.435.673l-1.877 2.206V20H13.5v-2.171q0-.15.175-.475l2-2.35q.195-.229.27-.497.074-.269.026-.532-.256.144-.526.216t-.57.072q-.442 0-.88-.175a2.2 2.2 0 0 1-.774-.528 1.4 1.4 0 0 0-.543-.373 1.86 1.86 0 0 0-1.336 0 1.5 1.5 0 0 0-.563.373q-.327.351-.762.527a2.32 2.32 0 0 1-1.454.104 2.2 2.2 0 0 1-.534-.216q-.048.264.027.532t.269.497l2 2.35q.075.124.125.237t.05.238V20zM5 19.692V20 6z"/></svg>