<svg xmlns="http://www.w3.org/2000/svg" width="24" height="24" viewBox="0 0 24 24" fill='currentColor'><path d="M9.942 20h4.097v-1.12l.903-.345q1.77-.621 3.008-1.866 1.238-1.244 1.739-2.669H4.31q.501 1.425 1.722 2.67 1.221 1.243 3.006 1.865l.903.346zm-1.5 1.5v-1.596q-2.53-.897-4.155-2.913Q2.664 14.974 2.5 12.5h2V4.375l17-1.875v1.202L10.462 4.935v1.902H21.5v1.192H10.462V12.5H21.5q-.144 2.474-1.788 4.49-1.642 2.017-4.173 2.914V21.5zM8.077 6.837h1.192V5.056l-1.192.135zm-2.385 0h1.193v-1.51l-1.193.129zM8.077 12.5h1.192V8.029H8.077zm-2.385 0h1.193V8.029H5.692z"/></svg>