<svg xmlns="http://www.w3.org/2000/svg" width="24" height="24" viewBox="0 0 24 24" fill='currentColor'><path d="M7.385 20.525a3.4 3.4 0 0 1-1.511-.41q-.717-.384-1.355-1.128-.952-1.113-1.485-2.695A10.1 10.1 0 0 1 2.5 13.03q0-1.98.744-3.717a9.5 9.5 0 0 1 2.032-3.026A9.6 9.6 0 0 1 8.297 4.25 9.2 9.2 0 0 1 12 3.5q1.97 0 3.703.757a9.6 9.6 0 0 1 3.016 2.055 9.8 9.8 0 0 1 2.032 3.047q.75 1.749.749 3.749 0 1.77-.572 3.354-.573 1.584-1.607 2.696-.642.68-1.336 1.024a3.2 3.2 0 0 1-2.23.245 4 4 0 0 1-.784-.294l-1.4-.7a3.3 3.3 0 0 0-.758-.268 3.8 3.8 0 0 0-.822-.09q-.433 0-.828.09a3 3 0 0 0-.744.268l-1.39.7q-.417.221-.818.319t-.827.073m.04-1.5q.225 0 .463-.05.237-.05.462-.175l1.4-.7q.525-.275 1.088-.4a5.2 5.2 0 0 1 1.137-.125q.575 0 1.15.125t1.1.4l1.425.7q.225.125.45.175t.45.05q.475 0 .905-.25.429-.25.855-.75.8-.95 1.245-2.275A8.5 8.5 0 0 0 20 13.015q0-3.35-2.325-5.682T12 5 6.325 7.35 4 13.05q0 1.425.467 2.775.468 1.35 1.283 2.275.425.5.825.712.4.213.85.213M12 14.75q.729 0 1.24-.51.51-.511.51-1.24 0-.21-.052-.415a2 2 0 0 0-.146-.395l1.548-2.03q.308.335.539.735.23.402.384.864h1.55q-.432-1.998-1.99-3.253Q14.028 7.25 12 7.25T8.404 8.514a5.5 5.5 0 0 0-1.987 3.246h1.54a4.15 4.15 0 0 1 1.541-2.185A4.13 4.13 0 0 1 12 8.75q.531 0 1.007.128t.912.364l-1.563 2.062a3 3 0 0 0-.178-.037A1 1 0 0 0 12 11.25q-.729 0-1.24.51-.51.511-.51 1.24t.51 1.24 1.24.51"/></svg>