<svg xmlns="http://www.w3.org/2000/svg" width="24" height="24" viewBox="0 0 24 24" fill='currentColor'><path d="M1.385 18.5v-13h13v13zm1.5-3.111a9.8 9.8 0 0 1 2.35-1.053 9.2 9.2 0 0 1 2.65-.375 9.2 9.2 0 0 1 2.65.374q1.25.374 2.35 1.053V7h-10zm5 .072a8 8 0 0 0-2.164.303 7.7 7.7 0 0 0-2.042.919V17h8.46v-.317a8.5 8.5 0 0 0-2.048-.904 7.8 7.8 0 0 0-2.206-.318m0-2.365a2.5 2.5 0 0 1-1.832-.764 2.5 2.5 0 0 1-.764-1.832q0-1.067.764-1.832t1.832-.764 1.831.764.765 1.832-.765 1.832-1.831.764m0-1.408q.494 0 .842-.346.346-.347.346-.842t-.346-.842a1.15 1.15 0 0 0-.842-.346q-.495 0-.842.346a1.15 1.15 0 0 0-.347.842q0 .495.347.842.346.346.842.346M17 18.5v-13h1.5v13zm4.116 0v-13h1.5v13z"/></svg>