<svg xmlns="http://www.w3.org/2000/svg" width="24" height="24" viewBox="0 0 24 24" fill='currentColor'><path d="M4.5 19.308v-2.223q0-.735.399-1.36a2.66 2.66 0 0 1 1.066-.963 14.5 14.5 0 0 1 2.992-1.09A13 13 0 0 1 12 13.307a11.7 11.7 0 0 1 2.346.236v1.516a9 9 0 0 0-1.173-.195A12 12 0 0 0 12 14.808q-1.368 0-2.71.328-1.344.327-2.636.964-.301.165-.478.422a1 1 0 0 0-.176.563v.723h8.346v1.5zm7.5-7.616q-1.444 0-2.472-1.028T8.5 8.192t1.028-2.471T12 4.692t2.472 1.029T15.5 8.192t-1.028 2.472T12 11.692m0-1.5q.825 0 1.412-.587Q14 9.017 14 8.192q0-.824-.588-1.412A1.93 1.93 0 0 0 12 6.192q-.825 0-1.412.588A1.93 1.93 0 0 0 10 8.192q0 .825.588 1.413.587.588 1.412.587m6.25 12.866v-4.404h-1.712V13.25h5.058l-1.913 3.808h1.884z"/></svg>