<svg xmlns="http://www.w3.org/2000/svg" width="24" height="24" viewBox="0 0 24 24" fill='currentColor'><path d="M3.25 21.75v-.354q0-.533.287-.95.285-.42.784-.64a6.5 6.5 0 0 1 1.29-.416q.668-.14 1.389-.14.72 0 1.39.14.668.14 1.289.416.498.22.784.64.287.417.287.95v.354zm10 0v-.354q0-.533.287-.95.285-.42.784-.64a6.5 6.5 0 0 1 1.29-.416q.667-.14 1.389-.14.72 0 1.39.14.668.14 1.289.416.498.22.785.64.286.417.286.95v.354zm-6.25-4q-.729 0-1.24-.51-.51-.511-.51-1.24t.51-1.24T7 14.25t1.24.51q.51.511.51 1.24t-.51 1.24-1.24.51m10 0q-.729 0-1.24-.51-.51-.511-.51-1.24t.51-1.24 1.24-.51 1.24.51q.51.511.51 1.24t-.51 1.24-1.24.51m-5-1.971L9.221 13l.829-.829 1.354 1.339v-2.356h1.192v2.356l1.354-1.339.829.829zM2.25 9.75v-.354q0-.533.287-.95.285-.42.784-.64a6.4 6.4 0 0 1 1.29-.415Q5.279 7.25 6 7.25a6.7 6.7 0 0 1 1.992.304 3 3 0 0 0-.54.83 2.5 2.5 0 0 0-.202 1.012v.354zm6 0v-.354q0-.533.287-.95.285-.42.784-.64a6.4 6.4 0 0 1 1.29-.415Q11.278 7.25 12 7.25q.72 0 1.39.14.668.14 1.289.416.498.22.784.64.287.417.287.95v.354zm8.5 0v-.354q0-.548-.197-1.011a2.9 2.9 0 0 0-.536-.831A6.5 6.5 0 0 1 18 7.25q.72 0 1.39.14.668.14 1.289.416.498.22.785.64.286.417.286.95v.354zM6 5.75q-.729 0-1.24-.51-.51-.511-.51-1.24t.51-1.24q.511-.51 1.24-.51t1.24.51q.51.511.51 1.24t-.51 1.24T6 5.75m6 0q-.729 0-1.24-.51-.51-.511-.51-1.24t.51-1.24q.511-.51 1.24-.51t1.24.51.51 1.24-.51 1.24-1.24.51m6 0q-.729 0-1.24-.51-.51-.511-.51-1.24t.51-1.24q.511-.51 1.24-.51t1.24.51.51 1.24-.51 1.24-1.24.51"/></svg>