<svg xmlns="http://www.w3.org/2000/svg" width="24" height="24" viewBox="0 0 24 24" fill='currentColor'><path d="m11.975 21.239-7.246-7.296h2.113L12 19.1l6.658-6.673q.66-.661 1.014-1.52.353-.86.343-1.753-.04-1.724-1.12-2.943-1.081-1.218-2.674-1.218-.794 0-1.536.314a3.6 3.6 0 0 0-1.285.918L12 7.75l-1.425-1.525a3.8 3.8 0 0 0-1.278-.933 3.7 3.7 0 0 0-1.543-.33 3.34 3.34 0 0 0-2.314.886 4.26 4.26 0 0 0-1.304 2.21h-1.53q.367-1.96 1.78-3.279Q5.8 3.462 7.754 3.462q1.113 0 2.118.446 1.005.447 1.792 1.267l.336.356.317-.336a5.5 5.5 0 0 1 1.79-1.282 5.1 5.1 0 0 1 2.114-.451q2.23 0 3.755 1.677T21.5 9.154q0 1.197-.444 2.307a6 6 0 0 1-1.304 1.986zm-.09-9.489H2.528v-1.5h13.346q.522 0 .886-.364T17.125 9q0-.52-.364-.885a1.2 1.2 0 0 0-.886-.365q-.36 0-.659.178t-.441.509l-1.463-.4q.303-.802.998-1.294a2.64 2.64 0 0 1 1.565-.493 2.65 2.65 0 0 1 1.947.803q.803.804.803 1.947t-.803 1.947a2.65 2.65 0 0 1-1.947.803h-1.617q.171.279.269.584t.098.666q0 1.144-.803 1.947a2.65 2.65 0 0 1-1.947.803q-.871 0-1.565-.492a2.74 2.74 0 0 1-.999-1.294l1.464-.4q.143.33.441.509.3.177.659.177.522 0 .886-.364t.364-.886-.36-.885a1.2 1.2 0 0 0-.88-.365"/></svg>