<svg xmlns="http://www.w3.org/2000/svg" width="24" height="24" viewBox="0 0 24 24" fill='currentColor'><path d="m8.812 21.865-1.785-3.007-3.388-.743.33-3.488L1.673 12 3.97 9.373l-.33-3.488 3.388-.743 1.785-3.007L12 3.489l3.188-1.354 1.785 3.007 3.389.743-.331 3.488L22.327 12l-2.296 2.627.33 3.488-3.388.743-1.784 3.007L12 20.512zm.638-1.915L12 18.87l2.58 1.08 1.42-2.4 2.75-.63-.25-2.82 1.85-2.1-1.85-2.13.25-2.82-2.75-.6-1.45-2.4L12 5.13 9.42 4.05 8 6.45l-2.75.6.25 2.82L3.65 12l1.85 2.1-.25 2.85 2.75.6zM12 16.73a.78.78 0 0 0 .573-.234.78.78 0 0 0 .235-.573.78.78 0 0 0-.235-.573.78.78 0 0 0-.573-.234.78.78 0 0 0-.573.234.78.78 0 0 0-.235.573.78.78 0 0 0 .235.573.78.78 0 0 0 .573.235m-.75-3.653h1.5v-6h-1.5z"/></svg>