<svg xmlns="http://www.w3.org/2000/svg" width="24" height="24" viewBox="0 0 24 24" fill='currentColor'><path d="M12 21.5a8.3 8.3 0 0 1-3.315-.67 8.6 8.6 0 0 1-2.697-1.819 8.6 8.6 0 0 1-1.819-2.695A8.3 8.3 0 0 1 3.5 13H5q0 2.925 2.037 4.962T12 20t4.962-2.038T19 13t-2.038-4.963T12 6h-.265l1.588 1.588-1.054 1.085L8.846 5.24l3.443-3.432 1.053 1.084L11.735 4.5H12q1.77 0 3.316.67a8.6 8.6 0 0 1 2.696 1.818 8.6 8.6 0 0 1 1.819 2.696q.669 1.546.669 3.315 0 1.77-.67 3.316a8.6 8.6 0 0 1-1.818 2.696 8.6 8.6 0 0 1-2.696 1.82 8.3 8.3 0 0 1-3.315.669m-2.789-5.654v-4.5H7.77v-1.192h2.635v5.692zm2.385 0v-5.692h3.885v5.692zm1.193-1.192h1.5v-3.308h-1.5z"/></svg>