<svg xmlns="http://www.w3.org/2000/svg" width="24" height="24" viewBox="0 0 24 24" fill='currentColor'><path d="M3.914 8.385q.843-2.649 3.076-4.267Q9.22 2.5 12 2.5a8.2 8.2 0 0 1 3.993 1.01A8.2 8.2 0 0 1 19 6.293V3h1.5v5.385h-5.384v-1.5h2.38a6.4 6.4 0 0 0-2.37-2.118A6.6 6.6 0 0 0 12 4a6.85 6.85 0 0 0-3.915 1.19A6.74 6.74 0 0 0 5.53 8.386zm6.72 13.115q-1.295 0-2.205-.91a3 3 0 0 1-.91-2.206q0-1.296.91-2.205a3 3 0 0 1 2.206-.91q.447 0 .856.128.41.128.759.37v-5.19h4.5v1.5h-3v6.307q0 1.297-.91 2.206a3 3 0 0 1-2.205.91"/></svg>