<svg xmlns="http://www.w3.org/2000/svg" width="24" height="24" viewBox="0 0 24 24" fill='currentColor'><path d="M19.454 16.623 18.35 15.55l.65-.65V9.1L14.9 5H9.1l-.65.65-1.054-1.085L8.461 3.5h7.082L20.5 8.463v7.044zM12.75 9.95V7.192h-1.5V8.45zm7.712 12.619-3.512-3.512-1.411 1.443H8.457L3.5 15.507V8.461L4.911 7.05l-3.48-3.512 1.054-1.054 19.03 19.03zM9.1 18.999h5.8l.996-.996-9.9-9.9L5 9.1v5.8zm2.9-2.288a.78.78 0 0 1-.575-.232.78.78 0 0 1-.233-.576q0-.343.232-.575a.78.78 0 0 1 .576-.232q.343 0 .575.232a.78.78 0 0 1 .233.575q0 .344-.232.576a.78.78 0 0 1-.576.232"/></svg>