<svg xmlns="http://www.w3.org/2000/svg" width="24" height="24" viewBox="0 0 24 24" fill='currentColor'><path d="M16.808 21.885 15.423 20.5h-2.307v-2.308l-1.385-1.384 1.385-1.385v-2.307h2.307l1.385-1.385 1.384 1.385H20.5v2.307l1.384 1.385-1.384 1.384V20.5h-2.308zm0-2.308q1.154 0 1.961-.808a2.67 2.67 0 0 0 .808-1.961q0-1.154-.808-1.962a2.67 2.67 0 0 0-1.961-.807zm3.39-9.77h-1.556a6.9 6.9 0 0 0-2.489-3.46Q14.353 5 12 5 9.075 5 7.038 7.037T5 12q0 1.954.962 3.545A6.9 6.9 0 0 0 8.5 18.03V15H10v5.5H4.5V19h2.83a8.5 8.5 0 0 1-2.781-2.957Q3.499 14.212 3.5 12q0-1.77.67-3.316A8.6 8.6 0 0 1 5.988 5.99a8.6 8.6 0 0 1 2.695-1.82A8.3 8.3 0 0 1 12 3.5q2.966 0 5.22 1.785 2.255 1.786 2.978 4.523"/></svg>