<svg xmlns="http://www.w3.org/2000/svg" width="24" height="24" viewBox="0 0 24 24" fill='currentColor'><path d="M11.99 16.76q0-1.068.439-1.98a5 5 0 0 1 1.175-1.572l2.044 3.551zm2.385 4.088a4.7 4.7 0 0 1-1.478-1.303 4.6 4.6 0 0 1-.816-1.834h4.113zm1.82-5.04-1.82-3.146a5.7 5.7 0 0 1 1.137-.484 4.3 4.3 0 0 1 2.003-.108q.368.07.723.195zm.555 5.701q-.396 0-.77-.07a5 5 0 0 1-.728-.195l2.044-3.532 1.829 3.136a5.7 5.7 0 0 1-1.137.484 4.3 4.3 0 0 1-1.238.177m.546-5.701 1.829-3.146q.878.495 1.473 1.307a4.7 4.7 0 0 1 .812 1.839zm2.59 4.494-2.044-3.543H21.5q0 1.068-.43 1.975a4.8 4.8 0 0 1-1.183 1.568m.312-10.494h-1.556a6.9 6.9 0 0 0-2.489-3.461Q14.353 5 12 5 9.075 5 7.038 7.037T5 12q0 1.954.962 3.545A6.9 6.9 0 0 0 8.5 18.03V15H10v5.5H4.5V19h2.83a8.5 8.5 0 0 1-2.781-2.957Q3.499 14.212 3.5 12q0-1.77.67-3.315a8.6 8.6 0 0 1 1.819-2.697A8.6 8.6 0 0 1 8.685 4.17 8.3 8.3 0 0 1 12 3.5q2.966 0 5.22 1.785 2.255 1.786 2.978 4.523"/></svg>