<svg xmlns="http://www.w3.org/2000/svg" width="24" height="24" viewBox="0 0 24 24" fill='currentColor'><path d="M2.5 9.058V4.5h19v7.308H20V6H4v3.058zm0 10.442v-4.558H4V18h5.808v1.5zm10.212 3q-.505 0-.858-.354a1.17 1.17 0 0 1-.354-.858v-3.415l1.287-3.38q.17-.44.56-.716.388-.277.863-.277h2.04v-2.25h1.5v2.25h2.021q.472 0 .86.276.386.276.563.707l1.306 3.39v3.415q0 .505-.354.858a1.17 1.17 0 0 1-.858.354h-2.115q-.504 0-.858-.354a1.17 1.17 0 0 1-.354-.858v-1.48h1.5V21H21v-2.863L19.79 15h-2.04v1.03l1.544 1.57-1.053 1.054-1.246-1.25-1.245 1.25-1.054-1.054 1.554-1.56V15h-2.06L13 18.137V21h1.539v-1.192h1.5v1.442q0 .52-.365.886a1.2 1.2 0 0 1-.885.364zM2.5 12.75v-1.5h2.946L7 14.333l3.59-7.246h.785l2.384 4.775q-.39.05-.738.177a2.4 2.4 0 0 0-.65.365l-1.38-2.712-3.616 7.231h-.77L4.53 12.75z"/></svg>