<svg xmlns="http://www.w3.org/2000/svg" width="24" height="24" viewBox="0 0 24 24" fill='currentColor'><path d="M12 17.442q1.835 0 3.139-1.303 1.303-1.305 1.303-3.139 0-1.835-1.303-3.139Q13.834 8.558 12 8.558q-1.008 0-1.813.408a5.3 5.3 0 0 0-1.398 1.007V8.346H7.596v3.75h3.75v-1.192h-1.78q.405-.498 1.043-.826.64-.328 1.391-.328 1.35 0 2.3.95t.95 2.3-.95 2.3-2.3.95q-1.1 0-1.925-.637A3.5 3.5 0 0 1 8.9 14H7.658q.378 1.539 1.575 2.49 1.196.952 2.767.952M4.5 21.5v-19h9.289L19.5 8.211V21.5zM6 20h12V8.85L13.15 4H6z"/></svg>