<svg xmlns="http://www.w3.org/2000/svg" width="24" height="24" viewBox="0 0 24 24" fill='currentColor'><path d="M5 21.75a2.65 2.65 0 0 1-1.947-.803A2.65 2.65 0 0 1 2.25 19q0-.32.216-.535A.73.73 0 0 1 3 18.25q.32 0 .535.215A.73.73 0 0 1 3.75 19q0 .522.364.886.365.364.886.364.48 0 1.064-.34.582-.34 1.169-.881.585-.54 1.132-1.179.545-.639.971-1.244a13.4 13.4 0 0 0 1.37-2.375q.544-1.225.544-2.231V3q0-.32.216-.534A.73.73 0 0 1 12 2.25q.32 0 .534.216A.73.73 0 0 1 12.75 3v9q0 1.005.544 2.23.545 1.226 1.37 2.376.426.605.972 1.244.544.639 1.131 1.179.586.54 1.17.88.582.342 1.063.341.522 0 .886-.364T20.25 19q0-.32.215-.535A.73.73 0 0 1 21 18.25q.32 0 .535.215a.73.73 0 0 1 .215.535q0 1.145-.803 1.947A2.65 2.65 0 0 1 19 21.75q-.735 0-1.53-.422a8.4 8.4 0 0 1-1.578-1.105 18 18 0 0 1-1.534-1.525 26 26 0 0 1-1.397-1.692 3.4 3.4 0 0 0-.515-.578.7.7 0 0 0-.446-.178.7.7 0 0 0-.446.173q-.218.174-.515.573a25 25 0 0 1-1.387 1.697 17 17 0 0 1-1.535 1.53 8.4 8.4 0 0 1-1.577 1.105q-.796.422-1.54.422m.712-3.014-2.366-1.902a1.9 1.9 0 0 1-.506-.614 1.65 1.65 0 0 1-.186-.77q0-.411.16-.783.16-.37.482-.626a.65.65 0 0 1 .44-.155.52.52 0 0 1 .398.21q.163.202.154.452a.53.53 0 0 1-.21.412.8.8 0 0 0-.155.198.56.56 0 0 0-.077.292q0 .13.047.25t.186.225l2.592 2.038a8 8 0 0 1-.51.446 6 6 0 0 1-.45.328m2.601-2.578-3.467-2.783a1.9 1.9 0 0 1-.506-.622 1.7 1.7 0 0 1-.186-.778q0-.412.16-.795t.482-.64a.6.6 0 0 1 .447-.141q.246.021.407.222a.62.62 0 0 1 .146.44.54.54 0 0 1-.217.399.55.55 0 0 0-.164.223.8.8 0 0 0-.069.317q0 .13.047.25t.186.225l3.412 2.708q-.162.247-.332.495-.168.247-.346.48m1.648-3.283L6.346 9.95a1.8 1.8 0 0 1-.506-.647 1.85 1.85 0 0 1-.186-.803q0-.436.186-.808.185-.37.506-.652a.57.57 0 0 1 .422-.136q.246.016.407.217.151.202.141.44a.52.52 0 0 1-.212.399 1 1 0 0 0-.164.213.66.66 0 0 0-.094.352q0 .07.258.49l2.954 2.41V12q0 .212-.028.438-.028.225-.069.437m.097-4.679L7.796 6.31a1.64 1.64 0 0 1-.482-.61 1.8 1.8 0 0 1-.16-.75q0-.742.527-1.27a1.73 1.73 0 0 1 1.269-.526q.322 0 .61.087.285.086.286.509 0 .423-.287.51a2.1 2.1 0 0 1-.609.086.55.55 0 0 0-.435.198.65.65 0 0 0-.169.431q0 .129.052.233.052.103.156.183l1.504 1.259zm3.98 4.679a7 7 0 0 1-.068-.437 4 4 0 0 1-.028-.438v-.575l2.954-2.41q.139-.113.258-.49a.7.7 0 0 0-.094-.357 1 1 0 0 0-.164-.218.52.52 0 0 1-.212-.394.66.66 0 0 1 .141-.435.55.55 0 0 1 .412-.217.63.63 0 0 1 .442.136q.321.282.494.665t.173.795-.186.795a1.8 1.8 0 0 1-.506.64zm-.096-4.698V6.631L15.446 5.4a.5.5 0 0 0 .156-.183.54.54 0 0 0 .052-.242.63.63 0 0 0-.173-.443.56.56 0 0 0-.431-.186q-.322 0-.61-.087-.285-.086-.286-.509 0-.423.287-.51.286-.086.609-.086.742 0 1.27.527.526.527.526 1.269 0 .396-.16.75a1.64 1.64 0 0 1-.482.61zm1.745 7.98a11 11 0 0 1-.346-.482 18 18 0 0 1-.332-.508l3.387-2.726q.114-.09.233-.491 0-.098-.198-.48a.64.64 0 0 1-.232-.422.57.57 0 0 1 .141-.452.55.55 0 0 1 .404-.217.62.62 0 0 1 .435.136q.321.256.494.64.173.383.173.795t-.186.795a1.8 1.8 0 0 1-.506.64zm2.611 2.58a3 3 0 0 1-.454-.323 11 11 0 0 1-.506-.45l2.583-2.039q.114-.088.233-.475a.7.7 0 0 0-.064-.287.6.6 0 0 0-.144-.203.57.57 0 0 1-.222-.412.62.62 0 0 1 .142-.452.52.52 0 0 1 .399-.21.65.65 0 0 1 .439.155q.32.255.482.626.16.372.16.783t-.173.775q-.173.363-.494.61z"/></svg>