<svg xmlns="http://www.w3.org/2000/svg" width="24" height="24" viewBox="0 0 24 24" fill='currentColor'><path d="M5.308 20.5q-.748 0-1.278-.53a1.74 1.74 0 0 1-.53-1.278V9q0-2.289 1.606-3.894Q6.71 3.5 9 3.5h6q2.289 0 3.894 1.606Q20.5 6.71 20.5 9v9.692q0 .749-.53 1.278-.53.53-1.278.53zm0-1.5h13.384a.3.3 0 0 0 .221-.087.3.3 0 0 0 .087-.22V9q0-1.65-1.175-2.825T15 5H9Q7.35 5 6.175 6.175T5 9v9.692a.3.3 0 0 0 .087.221.3.3 0 0 0 .22.087M9 11.75q-.729 0-1.24-.51-.51-.511-.51-1.24t.51-1.24T9 8.25t1.24.51q.51.511.51 1.24t-.51 1.24-1.24.51m6 0q-.729 0-1.24-.51-.51-.511-.51-1.24t.51-1.24T15 8.25t1.24.51q.51.511.51 1.24t-.51 1.24-1.24.51M7.25 19v-1.942q0-.748.53-1.278t1.278-.53h5.884q.749 0 1.278.53.53.53.53 1.278V19h-1.5v-1.942a.3.3 0 0 0-.086-.221.3.3 0 0 0-.222-.087H12.75V19h-1.5v-2.25H9.058a.3.3 0 0 0-.222.087.3.3 0 0 0-.086.22V19zm-1.942 0H19 5z"/></svg>