<svg xmlns="http://www.w3.org/2000/svg" width="24" height="24" viewBox="0 0 24 24" fill='currentColor'><path d="m5.42 10.622 2.2.93q.406-.815.869-1.576.46-.76 1.017-1.497l-1.467-.284a.26.26 0 0 0-.15.004.3.3 0 0 0-.13.082zm3.395 1.873 2.84 2.825a13 13 0 0 0 2.318-1.293q1.2-.825 2.279-1.903 1.683-1.683 2.603-3.667a9.5 9.5 0 0 0 .91-4.082 9.5 9.5 0 0 0-4.084.911q-1.987.92-3.67 2.603-1.078 1.079-1.903 2.284t-1.293 2.322m4.816-2a1.68 1.68 0 0 1-.508-1.235q0-.726.508-1.235a1.7 1.7 0 0 1 1.247-.507q.74 0 1.247.507.508.508.508 1.235t-.508 1.235a1.7 1.7 0 0 1-1.247.508q-.74 0-1.247-.508m-.112 8.236 2.34-2.34a.3.3 0 0 0 .082-.13.26.26 0 0 0 .005-.149l-.284-1.467q-.737.555-1.498 1.01-.76.454-1.575.861zm7.614-15.729q.321 2.89-.684 5.48-1.005 2.588-3.307 4.89l-.086.086-.087.087.452 2.263q.09.451-.04.879a1.8 1.8 0 0 1-.452.748l-3.921 3.912-1.88-4.416-3.918-3.919-4.416-1.889 3.897-3.911a1.82 1.82 0 0 1 1.642-.502l2.283.462q.048-.048.081-.087l.082-.087q2.301-2.301 4.883-3.309 2.58-1.007 5.47-.687M4.52 16.072a2.44 2.44 0 0 1 1.782-.734q1.05-.004 1.782.728.73.73.723 1.782a2.45 2.45 0 0 1-.739 1.781q-.567.567-1.861.974t-3.322.651q.245-2.027.656-3.32.412-1.296.98-1.862m1.07 1.063q-.27.27-.52.927t-.34 1.342a6 6 0 0 0 1.342-.337q.657-.247.927-.517.3-.3.316-.72a.93.93 0 0 0-.285-.72.94.94 0 0 0-.72-.287q-.42.012-.72.312"/></svg>