<svg xmlns="http://www.w3.org/2000/svg" width="24" height="24" viewBox="0 0 24 24" fill='currentColor'><path d="m6.26 19.089 2.225-.906a23 23 0 0 1-.511-1.73 15 15 0 0 1-.337-1.774l-1.243.839a.29.29 0 0 0-.135.25zM10 18h4q.45-1.106.725-2.543T15 12.491q0-2.37-.758-4.428A9.7 9.7 0 0 0 12 4.516a9.7 9.7 0 0 0-2.242 3.547Q9 10.12 9 12.49q0 1.529.275 2.966T10 18m2-5.25q-.729 0-1.24-.51-.51-.51-.51-1.24 0-.729.51-1.24.511-.51 1.24-.51t1.24.51q.51.512.51 1.24 0 .73-.51 1.24-.511.51-1.24.51m5.74 6.339v-3.312a.31.31 0 0 0-.135-.26l-1.242-.838a16 16 0 0 1-.361 1.875q-.246.98-.487 1.639zM12 2.58q2.273 1.82 3.387 4.359Q16.5 9.48 16.5 12.73q0 .059.005.12a.6.6 0 0 1-.005.13l1.917 1.285q.387.245.605.653.219.406.218.858v5.521L14.765 19.5h-5.54L4.76 21.298v-5.53q0-.453.213-.859.213-.407.6-.653L7.5 12.972v-.24q0-3.254 1.114-5.792Q9.726 4.4 12 2.58"/></svg>