<svg xmlns="http://www.w3.org/2000/svg" width="24" height="24" viewBox="0 0 24 24" fill='currentColor'><path d="M4.25 15.75V1.25h8.5V5.5q0 .755.456 1.371.456.615 1.202.82l5.342 1.476v6.583zm1.5-1.5h12.5v-3.917l-4.283-1.208a3.68 3.68 0 0 1-2.427-2.183H9.058v-.884h2.283a5 5 0 0 1-.063-.534l-.028-.582H9.058v-.884h2.192V2.75h-5.5zm-.749 8.5a2.65 2.65 0 0 1-1.948-.802 2.65 2.65 0 0 1-.803-1.947q0-1.145.802-1.948a2.65 2.65 0 0 1 1.947-.803q1.145 0 1.948.802.803.801.803 1.947t-.802 1.948a2.65 2.65 0 0 1-1.947.803M5 21.25q.522 0 .886-.364.363-.364.364-.886 0-.522-.364-.886A1.2 1.2 0 0 0 5 18.75q-.522 0-.886.364A1.2 1.2 0 0 0 3.75 20q0 .522.364.886.365.364.886.364m14.001 1.5a2.65 2.65 0 0 1-1.948-.802 2.65 2.65 0 0 1-.803-1.947q0-1.145.802-1.948a2.65 2.65 0 0 1 1.947-.803q1.145 0 1.948.802.803.801.803 1.947t-.802 1.948a2.65 2.65 0 0 1-1.947.803M19 21.25q.522 0 .886-.364T20.25 20t-.364-.886A1.2 1.2 0 0 0 19 18.75q-.522 0-.886.364a1.2 1.2 0 0 0-.364.886q0 .522.364.886t.886.364m-6.999 1.5a2.66 2.66 0 0 1-1.948-.802 2.65 2.65 0 0 1-.803-1.947q0-1.145.802-1.948a2.65 2.65 0 0 1 1.947-.803q1.145 0 1.948.802.803.801.803 1.947t-.802 1.948a2.65 2.65 0 0 1-1.947.803M12 21.25q.522 0 .886-.364T13.25 20t-.364-.886A1.2 1.2 0 0 0 12 18.75q-.522 0-.886.364a1.2 1.2 0 0 0-.364.886q0 .522.364.886t.886.364"/></svg>