<svg xmlns="http://www.w3.org/2000/svg" width="24" height="24" viewBox="0 0 24 24" fill='currentColor'><path d="M11.106 21.5a8.3 8.3 0 0 1-3.316-.669 8.6 8.6 0 0 1-2.696-1.82 8.6 8.6 0 0 1-1.819-2.695 8.25 8.25 0 0 1-.67-3.315q0-3.54 2.48-6.02t6.02-2.48h.728L10.052 2.72l1.054-1.123 3.653 3.653-3.653 3.654-1.054-1.123 1.78-1.78h-.726Q8.18 6 6.143 8.037T4.106 13t2.037 4.963T11.106 20q.875 0 1.725-.212a6.8 6.8 0 0 0 1.625-.638l1.084 1.085a8.3 8.3 0 0 1-2.128.944 8.4 8.4 0 0 1-2.306.321m6-3.211L11.817 13l5.289-5.288L22.394 13zm0-2.139 3.15-3.15-3.15-3.15-3.15 3.15z"/></svg>