<svg xmlns="http://www.w3.org/2000/svg" width="24" height="24" viewBox="0 0 24 24" fill='currentColor'><path d="M12.894 21.5a8.4 8.4 0 0 1-2.306-.32 8.3 8.3 0 0 1-2.128-.945l1.084-1.085a6.8 6.8 0 0 0 1.625.638 7 7 0 0 0 1.725.212q2.925 0 4.963-2.037 2.037-2.037 2.037-4.963 0-2.925-2.037-4.962T12.894 6h-.727l1.781 1.781-1.054 1.123L9.24 5.25l3.654-3.653 1.054 1.123-1.78 1.78h.726q3.542 0 6.021 2.48 2.48 2.478 2.48 6.02 0 1.77-.67 3.316a8.6 8.6 0 0 1-1.82 2.696 8.6 8.6 0 0 1-2.695 1.82 8.3 8.3 0 0 1-3.316.668m-6-3.211L1.606 13l5.288-5.288L12.183 13zm0-2.139 3.15-3.15-3.15-3.15L3.744 13z"/></svg>