<svg xmlns="http://www.w3.org/2000/svg" width="24" height="24" viewBox="0 0 24 24" fill='currentColor'><path d="M3.5 20.5v-7h11.75v-4h1.5v4h3.75v7zM5 19h14v-4H5zm9.077-10.673-1.085-1.085q.65-.6 1.393-.92A4 4 0 0 1 16 6q.873 0 1.615.321.743.321 1.393.921l-1.085 1.085a3 3 0 0 0-.864-.608A2.5 2.5 0 0 0 16 7.5a2.5 2.5 0 0 0-1.059.22 3 3 0 0 0-.864.607m-2.5-2.5-1.054-1.054a7.8 7.8 0 0 1 2.468-1.672A7.5 7.5 0 0 1 16 2.5q1.611 0 3.009.601 1.397.6 2.468 1.672l-1.054 1.054q-.825-.825-1.95-1.326T16 4t-2.472.501-1.951 1.326M6.116 17.885h1.769v-1.77h-1.77zm3.5 0h1.768v-1.77H9.616zm3.5 0h1.768v-1.77h-1.768z"/></svg>