<svg xmlns="http://www.w3.org/2000/svg" width="24" height="24" viewBox="0 0 24 24" fill='currentColor'><path d="M5.25 20.75V8.65a3.2 3.2 0 0 1-1.437-1.038 2.54 2.54 0 0 1-.563-1.609q0-1.147.802-1.95a2.65 2.65 0 0 1 1.947-.803q1.145 0 1.948.803.803.802.803 1.95 0 .895-.562 1.61A3.2 3.2 0 0 1 6.75 8.652V19.25h4.5v-16h7.5v12.1a3.2 3.2 0 0 1 1.438 1.037q.562.715.562 1.61 0 1.147-.802 1.95a2.65 2.65 0 0 1-1.947.803 2.65 2.65 0 0 1-1.948-.803 2.66 2.66 0 0 1-.803-1.95q0-.895.563-1.622a3 3 0 0 1 1.437-1.027V4.75h-4.5v16zM6 7.25q.522 0 .886-.364.363-.364.364-.886 0-.522-.364-.886A1.2 1.2 0 0 0 6 4.75q-.522 0-.886.364A1.2 1.2 0 0 0 4.75 6q0 .522.364.886.365.363.886.364m12 12q.522 0 .886-.364T19.25 18t-.364-.886A1.2 1.2 0 0 0 18 16.75q-.522 0-.886.364a1.2 1.2 0 0 0-.364.886q0 .522.364.886t.886.364"/></svg>