<svg xmlns="http://www.w3.org/2000/svg" width="24" height="24" viewBox="0 0 24 24" fill='currentColor'><path d="m18.039 23.615-2.75-2.75v-1.5l-7.254-7.253q-.225.05-.421.075t-.441.044v-1.623q1.221-.027 2.618-.71 1.395-.685 2.147-1.502L13.3 6.923q.277-.336.661-.505.385-.168.828-.168.805 0 1.364.559.559.558.559 1.364V14q0 .68-.272 1.216-.27.538-.715.915l-2.936-2.906v-3.54q-.703.656-1.474 1.125a9.5 9.5 0 0 1-1.576.774l6.665 6.666h1.5l2.75 2.75zM5.48 20.173l-1.154-1.154 4.567-4.567 2.298 2.298H8.904zM15 5.135q-.729 0-1.24-.511-.51-.51-.51-1.24 0-.727.51-1.239.511-.51 1.24-.51t1.24.51.51 1.24q0 .729-.51 1.239-.511.51-1.24.51"/></svg>