<svg xmlns="http://www.w3.org/2000/svg" width="24" height="24" viewBox="0 0 24 24" fill='currentColor'><path d="M11.846 21.5q-1.971 0-3.705-.748a9.6 9.6 0 0 1-3.016-2.03 9.6 9.6 0 0 1-2.03-3.016 9.25 9.25 0 0 1-.749-3.704q0-1.972.748-3.706A9.6 9.6 0 0 1 5.125 5.28a9.6 9.6 0 0 1 3.016-2.032 9.25 9.25 0 0 1 3.705-.748q2.046 0 3.879.823a9.5 9.5 0 0 1 3.19 2.329l-7.069 7.06V4q-3.35 0-5.675 2.325T3.846 12t2.325 5.675T11.846 20a7.7 7.7 0 0 0 3.464-.809 8.2 8.2 0 0 0 2.786-2.249v2.135q-1.305 1.142-2.908 1.782a8.9 8.9 0 0 1-3.342.641m8.25-3.5v-7.75h1.5V18zm.75 3.327a.78.78 0 0 1-.575-.232.78.78 0 0 1-.233-.576q0-.343.233-.575a.78.78 0 0 1 .575-.232.78.78 0 0 1 .576.232.78.78 0 0 1 .232.575q0 .343-.232.576a.78.78 0 0 1-.576.232"/></svg>