<svg xmlns="http://www.w3.org/2000/svg" width="24" height="24" viewBox="0 0 24 24" fill='currentColor'><path d="M16.227 13.542q.137-.358.205-.739.068-.38.068-.794 0-1.873-1.313-3.186Q13.873 7.509 12 7.509q-.414 0-.787.069a4 4 0 0 0-.73.204zm2.219 2.22-1.135-1.166q.32-.8.505-1.706.184-.905.184-1.79V6.375l-6-2.24-3.746 1.403-1.165-1.165L12 2.538l7.5 2.808V11.1q0 1.149-.254 2.313-.255 1.164-.8 2.348m1.354 6.145-3.27-3.269a9.8 9.8 0 0 1-2.088 1.753A9.4 9.4 0 0 1 12 21.48q-3.312-.905-5.406-3.858T4.5 11.1V6.607L2.13 4.238l1.055-1.054 17.669 17.67zM12 19.9a7.1 7.1 0 0 0 1.901-.944 8.5 8.5 0 0 0 1.576-1.372l-1.54-1.54a4.2 4.2 0 0 1-1.937.465q-1.873 0-3.187-1.313Q7.5 13.882 7.5 12.009a4.2 4.2 0 0 1 .465-1.936L6 8.107V11.1q0 3.024 1.7 5.5t4.3 3.3"/></svg>