<svg xmlns="http://www.w3.org/2000/svg" width="24" height="24" viewBox="0 0 24 24" fill='currentColor'><path d="M11.998 21.5q-3.21 0-5.355-2.207Q4.5 17.087 4.5 13.8H6q0 2.676 1.7 4.438T12 20t4.3-1.762T18 13.8h1.5q0 3.288-2.145 5.494T11.998 21.5m-6.613-9.327a.85.85 0 0 1-.626-.258.85.85 0 0 1-.259-.626q0-.368.259-.626a.85.85 0 0 1 .626-.259q.367 0 .626.259a.85.85 0 0 1 .258.626.85.85 0 0 1-.258.626.85.85 0 0 1-.626.258m4.307 0a.85.85 0 0 1-.626-.258.85.85 0 0 1-.258-.626q0-.368.258-.626a.85.85 0 0 1 .626-.259q.368 0 .626.259a.85.85 0 0 1 .259.626.85.85 0 0 1-.259.626.85.85 0 0 1-.626.258m4.616 0a.85.85 0 0 1-.626-.258.85.85 0 0 1-.259-.626q0-.368.259-.626a.85.85 0 0 1 .626-.259q.367 0 .626.259a.85.85 0 0 1 .258.626.85.85 0 0 1-.258.626.85.85 0 0 1-.626.258m4.307 0a.85.85 0 0 1-.625-.258.85.85 0 0 1-.26-.626q0-.368.26-.626a.85.85 0 0 1 .625-.259q.368 0 .626.259a.85.85 0 0 1 .259.626.85.85 0 0 1-.259.626.85.85 0 0 1-.626.258M7.54 9.52a.85.85 0 0 1-.626-.258.85.85 0 0 1-.259-.626q0-.368.258-.626a.85.85 0 0 1 .627-.259q.366 0 .626.259a.85.85 0 0 1 .258.626.85.85 0 0 1-.258.626.85.85 0 0 1-.626.258m8.923 0a.85.85 0 0 1-.626-.258.85.85 0 0 1-.259-.626q0-.368.258-.626a.85.85 0 0 1 .627-.259q.366 0 .625.259a.85.85 0 0 1 .259.626.85.85 0 0 1-.259.626.85.85 0 0 1-.625.258M12 9.366a.85.85 0 0 1-.626-.26.85.85 0 0 1-.258-.625q0-.368.258-.626A.85.85 0 0 1 12 7.596q.368 0 .626.259a.85.85 0 0 1 .258.626.85.85 0 0 1-.258.626.85.85 0 0 1-.626.259m-2.308-2.5a.85.85 0 0 1-.626-.26.85.85 0 0 1-.258-.625q0-.368.258-.626a.85.85 0 0 1 .626-.259q.368 0 .626.259a.85.85 0 0 1 .259.626.85.85 0 0 1-.259.626.85.85 0 0 1-.626.259m4.616 0a.85.85 0 0 1-.626-.26.85.85 0 0 1-.259-.625q0-.368.259-.626a.85.85 0 0 1 .626-.259q.367 0 .626.259a.85.85 0 0 1 .258.626.85.85 0 0 1-.258.626.85.85 0 0 1-.626.259M12 4.462a.85.85 0 0 1-.626-.259.85.85 0 0 1-.258-.626q0-.367.258-.626A.85.85 0 0 1 12 2.692q.368 0 .626.26a.85.85 0 0 1 .258.625.85.85 0 0 1-.258.626.85.85 0 0 1-.626.259"/></svg>