<svg xmlns="http://www.w3.org/2000/svg" width="24" height="24" viewBox="0 0 24 24" fill='currentColor'><path d="M3.5 20.5v-17h13.289L20.5 7.212v2.207L19 10.904v-3.07L16.166 5H5v14h5.923v1.5zm9.616 2v-2.642l6.267-6.242 2.632 2.626-6.257 6.258zm1.192-1.192h.95l3.246-3.262-.46-.475-.465-.469-3.271 3.256zm3.736-3.737-.465-.469.925.944zM6.384 9.884h8.212v-3.5H6.385zM12 17.27a1 1 0 0 0 .194-.019.7.7 0 0 0 .185-.067l2.035-2.01q.047-.107.067-.197a1 1 0 0 0 .019-.207 2.4 2.4 0 0 0-.73-1.77 2.4 2.4 0 0 0-1.77-.73 2.4 2.4 0 0 0-1.77.73 2.4 2.4 0 0 0-.73 1.77q0 1.038.73 1.768a2.4 2.4 0 0 0 1.77.731"/></svg>