<svg xmlns="http://www.w3.org/2000/svg" width="24" height="24" viewBox="0 0 24 24" fill='currentColor'><path d="M2.885 21.115q.038-2.342.68-4.045.64-1.703 1.666-2.873a7.9 7.9 0 0 1 2.335-1.844q1.309-.675 2.684-.949v-2.99Q6.893 8.017 4.951 6.46q-1.94-1.558-2.047-3.575h18.192q-.115 2.017-2.052 3.575-1.936 1.558-5.294 1.954v2.99q1.375.275 2.685.949a7.9 7.9 0 0 1 2.334 1.844q1.026 1.17 1.667 2.873.64 1.703.68 4.045H15.75v-1.5h3.788q-.478-3.645-2.712-5.26-2.234-1.613-4.826-1.613t-4.826 1.614q-2.234 1.613-2.712 5.26H8.25v1.5zM12 7.01q2.718 0 4.391-.824 1.674-.825 2.417-1.801H5.192q.734.976 2.412 1.8Q9.283 7.01 12 7.01m0 14.105q-.729 0-1.24-.51-.51-.51-.51-1.24 0-.368.139-.674.138-.306.384-.543.504-.504 1.838-1.128t2.937-1.203a49 49 0 0 1-1.21 2.918q-.617 1.353-1.12 1.857a1.7 1.7 0 0 1-.544.385 1.6 1.6 0 0 1-.674.138"/></svg>