<svg xmlns="http://www.w3.org/2000/svg" width="24" height="24" viewBox="0 0 24 24" fill='currentColor'><path d="M16.885 20.385q-1.444 0-2.472-1.028t-1.028-2.472 1.028-2.472 2.471-1.028 2.473 1.028q1.027 1.028 1.027 2.472t-1.027 2.472-2.472 1.028m0-1.5q.825 0 1.412-.588.587-.587.587-1.412t-.587-1.413a1.93 1.93 0 0 0-1.413-.587q-.825 0-1.412.587a1.93 1.93 0 0 0-.588 1.413q0 .825.588 1.412.588.588 1.412.588m-9.77-1.5q-1.443 0-2.472-1.028t-1.028-2.472 1.028-2.472 2.472-1.028 2.472 1.028 1.028 2.472-1.028 2.472-2.472 1.028m0-1.5q.825 0 1.413-.588t.587-1.412-.587-1.413a1.93 1.93 0 0 0-1.413-.587q-.824 0-1.412.587a1.93 1.93 0 0 0-.588 1.413q0 .824.588 1.412t1.412.588M11 9.692q-1.444 0-2.472-1.028T7.5 6.192t1.028-2.471Q9.557 2.692 11 2.692t2.472 1.029T14.5 6.192t-1.028 2.472Q12.443 9.692 11 9.692m0-1.5q.825 0 1.412-.587Q13 7.017 13 6.192q0-.824-.588-1.412A1.93 1.93 0 0 0 11 4.192q-.824 0-1.413.588A1.93 1.93 0 0 0 9 6.192q0 .825.587 1.413.588.588 1.413.587"/></svg>