<svg xmlns="http://www.w3.org/2000/svg" width="24" height="24" viewBox="0 0 24 24" fill='currentColor'><path d="M4.171 17.373a9.5 9.5 0 0 1-1.23-2.508A9.3 9.3 0 0 1 2.5 12a9.3 9.3 0 0 1 1.656-5.348l1.084 1.07A7.85 7.85 0 0 0 4 12q0 1.198.324 2.29t.916 2.014zM12 21.5a9.3 9.3 0 0 1-5.348-1.656l1.07-1.084A7.85 7.85 0 0 0 12 20q1.198 0 2.278-.324a8 8 0 0 0 2-.916l1.07 1.084A9.3 9.3 0 0 1 12 21.5m7.829-4.137-1.07-1.069q.593-.92.917-2.008A8 8 0 0 0 20 12q0-1.198-.324-2.278a8 8 0 0 0-.916-2l1.084-1.07A9.3 9.3 0 0 1 21.5 12a9.2 9.2 0 0 1-.44 2.86 9.6 9.6 0 0 1-1.231 2.503M7.706 5.24l-1.07-1.069a9.6 9.6 0 0 1 2.504-1.23A9.2 9.2 0 0 1 12 2.5a9.2 9.2 0 0 1 2.873.44 9.6 9.6 0 0 1 2.5 1.231l-1.07 1.07a7.8 7.8 0 0 0-2.013-.917A8 8 0 0 0 12 4q-1.198 0-2.286.324a7.8 7.8 0 0 0-2.008.916M12 16.75q-1.97 0-3.36-1.39T7.25 12t1.39-3.36T12 7.25t3.36 1.39T16.75 12t-1.39 3.36T12 16.75"/></svg>