<svg xmlns="http://www.w3.org/2000/svg" width="24" height="24" viewBox="0 0 24 24" fill='currentColor'><path d="M10.095 16.183q2.54 0 4.314-1.778 1.774-1.777 1.774-4.317t-1.776-4.319-4.312-1.779q-2.538 0-4.316 1.778Q4 7.545 4 10.085t1.778 4.318q1.777 1.78 4.317 1.78m-1.03-2.95 5.199-5.224-1.07-1.069-4.129 4.154L6.99 9.032l-1.07 1.054zm1.031 4.45q-3.167 0-5.381-2.215T2.5 10.086t2.215-5.382 5.381-2.214 5.377 2.214 2.21 5.382q0 1.38-.452 2.598a7.6 7.6 0 0 1-1.262 2.206l5.531 5.546-1.044 1.064-5.556-5.54a7.4 7.4 0 0 1-4.804 1.723"/></svg>