<svg xmlns="http://www.w3.org/2000/svg" width="24" height="24" viewBox="0 0 24 24" fill='currentColor'><path d="M16.583 20.5H6.346l-2.64-10.242a6 6 0 0 1-.153-.715 5 5 0 0 1-.053-.73q0-.651.148-1.273.149-.622.444-1.2.187-.382.542-.601.354-.22.768-.22.47 0 .813.344t.343.812a1.12 1.12 0 0 1-.324.792 2.14 2.14 0 0 0-.6 1.225q-.098.705.197 1.37l.461.992a22.5 22.5 0 0 1 1.14 3.105q.452 1.59.452 3.252v1.235q.349-.265.761-.437a2.3 2.3 0 0 1 .87-.17h5.331q.726 0 1.231.5.506.501.506 1.211zm-2.323-5.702v-2.306l-1.793 1.802-.828-.828 2.62-2.631V9.75h-1.103l-2.622 2.611-.828-.828 1.792-1.783H9.192V8.567h2.316L9.706 6.775l.829-.829 2.63 2.621h1.095V7.473l-2.621-2.63.828-.83 1.792 1.803V3.51h1.183v2.296l1.793-1.792.829.828-2.622 2.622v1.103h1.095l2.62-2.62.83.828-1.793 1.792H20.5V9.75h-2.296l1.782 1.783-.828.829-2.612-2.612h-1.104v1.094l2.622 2.622-.83.828-1.792-1.792v2.296z"/></svg>