<svg xmlns="http://www.w3.org/2000/svg" width="24" height="24" viewBox="0 0 24 24" fill='currentColor'><path d="M7.417 20.5v-.75q0-.71.506-1.21a1.68 1.68 0 0 1 1.23-.502h5.316q.458 0 .878.171t.769.437v-1.235q0-1.663.452-3.252a22.5 22.5 0 0 1 1.14-3.105l.461-.992q.294-.665.197-1.37a2.14 2.14 0 0 0-.6-1.225 1.12 1.12 0 0 1-.323-.792q0-.47.335-.812.336-.344.805-.344.413 0 .776.22.361.218.549.602.295.576.444 1.199.148.621.148 1.274 0 .37-.045.73-.046.358-.16.714L17.653 20.5zm1.14-5.702v-2.296l-1.791 1.792-.845-.828 2.637-2.622V9.75H7.454l-2.612 2.611-.844-.828L5.781 9.75H3.5V8.567h2.29L3.999 6.775l.844-.829 2.622 2.621h1.094V7.464L5.92 4.842l.845-.828 1.792 1.792V3.51H9.74v2.306l1.776-1.802.845.828L9.74 7.473v1.094h1.078l2.631-2.62.844.828-1.802 1.792h2.316V9.75h-2.306l1.792 1.783-.844.829-2.621-2.612H9.74v1.085l2.62 2.63-.844.83-1.776-1.803v2.306z"/></svg>