<svg xmlns="http://www.w3.org/2000/svg" width="24" height="24" viewBox="0 0 24 24" fill='currentColor'><path d="M8.404 22.5v-4.779H6.5V1.5h11v16.221h-1.904V22.5zM12 12.26q1.106 0 1.88-.772a2.55 2.55 0 0 0 .774-1.872q0-1.11-.774-1.887A2.56 2.56 0 0 0 12 6.952q-1.106 0-1.88.777a2.57 2.57 0 0 0-.774 1.887q0 1.101.774 1.872a2.56 2.56 0 0 0 1.88.771M9.904 21h4.202v-3.279H9.904zM8 16.221h8V3H8zm4-5.461q-.483 0-.813-.33-.331-.328-.331-.814 0-.483.329-.824t.815-.34q.483 0 .823.34t.34.824q0 .482-.34.813t-.823.33"/></svg>