<svg xmlns="http://www.w3.org/2000/svg" width="24" height="24" viewBox="0 0 24 24" fill='currentColor'><path d="M6.02 19.23q-2.591-.732-4.046-2.78T.519 12t1.455-4.45 4.045-2.78v1.58A5.74 5.74 0 0 0 3.132 8.5Q2.019 10.05 2.019 12t1.113 3.5a5.74 5.74 0 0 0 2.887 2.15zm8 .27q-3.124 0-5.312-2.189Q6.518 15.123 6.519 12t2.189-5.311q2.189-2.19 5.311-2.189 1.506 0 2.845.558t2.372 1.552l-1.053 1.053a6 6 0 0 0-1.874-1.224A5.9 5.9 0 0 0 14.019 6q-2.5 0-4.25 1.75T8.02 12t1.75 4.25T14.02 18q1.23 0 2.29-.439 1.058-.438 1.874-1.224l1.053 1.053a7.6 7.6 0 0 1-2.372 1.552 7.3 7.3 0 0 1-2.845.558m5.807-3.846L18.773 14.6l1.85-1.85h-7.546v-1.5h7.546l-1.85-1.85 1.054-1.054L23.481 12z"/></svg>