<svg xmlns="http://www.w3.org/2000/svg" width="24" height="24" viewBox="0 0 24 24" fill='currentColor'><path d="M5.28 18.719a9.8 9.8 0 0 1-2.036-3.03A9.2 9.2 0 0 1 2.5 12q0-1.984.744-3.705A9.6 9.6 0 0 1 5.281 5.28L6.35 6.35A8.1 8.1 0 0 0 4.625 8.9Q4 10.35 4 12a7.8 7.8 0 0 0 2.35 5.65zm2.826-2.825a5.8 5.8 0 0 1-1.174-1.754A5.3 5.3 0 0 1 6.5 12q0-1.16.432-2.156a5.6 5.6 0 0 1 1.174-1.739l1.069 1.07a4.1 4.1 0 0 0-.863 1.274Q8 11.176 8 12t.313 1.55q.312.726.862 1.276zM12 13.499q-.613 0-1.057-.443A1.44 1.44 0 0 1 10.5 12q0-.615.443-1.057A1.44 1.44 0 0 1 12 10.499q.613 0 1.057.444.443.443.443 1.056 0 .615-.443 1.057A1.44 1.44 0 0 1 12 13.5m3.894 2.395-1.069-1.07q.55-.55.863-1.274Q16 12.824 16 12t-.312-1.55a4.1 4.1 0 0 0-.863-1.275l1.07-1.07a5.6 5.6 0 0 1 1.173 1.739q.432.996.432 2.156 0 1.144-.432 2.14a5.8 5.8 0 0 1-1.174 1.754m2.825 2.825-1.069-1.07a8.1 8.1 0 0 0 1.725-2.55Q20 13.65 20 12q0-1.665-.625-3.115A7.9 7.9 0 0 0 17.65 6.35l1.07-1.07a9.6 9.6 0 0 1 2.036 3.014q.744 1.721.744 3.705a9.2 9.2 0 0 1-.744 3.69 9.8 9.8 0 0 1-2.037 3.03"/></svg>