<svg xmlns="http://www.w3.org/2000/svg" width="24" height="24" viewBox="0 0 24 24" fill='currentColor'><path d="M4.113 17.297a9.8 9.8 0 0 1-1.186-2.482A9.2 9.2 0 0 1 2.5 12q0-1.488.427-2.82a10 10 0 0 1 1.186-2.476l1.252.821A8 8 0 0 0 4.36 9.613 7.9 7.9 0 0 0 4 12a7.84 7.84 0 0 0 1.365 4.46zm13.158-2.887-1.155-1.156q.087-.307.14-.617.052-.311.052-.637 0-1.785-1.262-3.046-1.26-1.26-3.046-1.261-.326 0-.636.052a6 6 0 0 0-.618.14L9.59 6.729a5.8 5.8 0 0 1 1.158-.396q.607-.14 1.252-.14 2.414 0 4.11 1.697 1.698 1.697 1.698 4.106 0 .65-.14 1.258-.14.607-.397 1.156m2.704 2.704-1.085-1.085q.535-.885.822-1.894A7.8 7.8 0 0 0 20 12q0-1.25-.363-2.387a8 8 0 0 0-1.012-2.088l1.236-.82a9.8 9.8 0 0 1 1.205 2.474q.434 1.333.434 2.82a9 9 0 0 1-.399 2.698 10 10 0 0 1-1.126 2.417M12 16.308a3.5 3.5 0 0 0 1.742-.458L8.15 10.258A3.5 3.5 0 0 0 7.692 12q0 1.785 1.262 3.047 1.26 1.26 3.046 1.261m7.592 5.408-4.703-4.72a5.6 5.6 0 0 1-1.358.597q-.735.215-1.531.215-2.414 0-4.11-1.697Q6.191 14.413 6.191 12q0-.797.216-1.531.215-.735.596-1.358l-4.72-4.72L3.339 3.34l17.324 17.323z"/></svg>