<svg xmlns="http://www.w3.org/2000/svg" width="24" height="24" viewBox="0 0 24 24" fill='currentColor'><path d="M11.3 17.75h1.4q1.308 0 2.179-.802.87-.801.871-1.947 0-1.145-.871-1.948-.87-.803-2.179-.803h-1.4q-1.308 0-2.179.802-.87.801-.871 1.947 0 1.145.871 1.948.87.803 2.179.803m0-1.192q-.817 0-1.338-.455-.52-.454-.52-1.103t.52-1.103 1.338-.455h1.4q.817 0 1.338.455.52.454.52 1.103t-.52 1.103-1.338.455zM6.298 10h1.846a2.76 2.76 0 0 0 1.967-.779 2.7 2.7 0 0 0 .87-1.913H9.779a1.6 1.6 0 0 1-.524 1.067q-.466.433-1.11.433H6.297zm9.548 0h1.846V8.808h-1.846q-.645 0-1.11-.433a1.6 1.6 0 0 1-.525-1.067H13.01a2.7 2.7 0 0 0 .87 1.913 2.76 2.76 0 0 0 1.967.779m-3.844 11.5a9.3 9.3 0 0 1-3.706-.748 9.6 9.6 0 0 1-3.016-2.03 9.6 9.6 0 0 1-2.032-3.016 9.25 9.25 0 0 1-.748-3.704q0-1.972.748-3.706a9.6 9.6 0 0 1 2.03-3.016 9.6 9.6 0 0 1 3.016-2.032 9.25 9.25 0 0 1 3.704-.748q1.972 0 3.706.748a9.6 9.6 0 0 1 3.017 2.03 9.6 9.6 0 0 1 2.03 3.016 9.25 9.25 0 0 1 .749 3.704q0 1.972-.748 3.706a9.6 9.6 0 0 1-2.03 3.017 9.6 9.6 0 0 1-3.016 2.03 9.25 9.25 0 0 1-3.704.749M12 20q3.35 0 5.675-2.325T20 12t-2.325-5.675T12 4 6.325 6.325 4 12t2.325 5.675T12 20"/></svg>