<svg xmlns="http://www.w3.org/2000/svg" width="24" height="24" viewBox="0 0 24 24" fill='currentColor'><path d="M6.404 16h1.192v-.25q0-1.833 1.286-3.118 1.285-1.286 3.118-1.286t3.118 1.286q1.286 1.285 1.286 3.118V16h1.192v-.25q0-2.336-1.63-3.966t-3.964-1.63-3.966 1.63-1.632 3.966zm.83-6.933q.94-.169 1.961-.752 1.022-.582 1.659-1.32l-.92-.758q-.5.56-1.324 1.027t-1.537.611zm9.531 0 .162-1.192q-.721-.154-1.541-.615-.82-.463-1.32-1.023l-.92.757q.637.73 1.659 1.316 1.022.588 1.96.757M12.002 21.5a9.3 9.3 0 0 1-3.706-.748 9.6 9.6 0 0 1-3.016-2.03 9.6 9.6 0 0 1-2.032-3.016 9.25 9.25 0 0 1-.748-3.704q0-1.972.748-3.706a9.6 9.6 0 0 1 2.03-3.016 9.6 9.6 0 0 1 3.016-2.032 9.25 9.25 0 0 1 3.704-.748q1.972 0 3.706.748a9.6 9.6 0 0 1 3.017 2.03 9.6 9.6 0 0 1 2.03 3.016 9.25 9.25 0 0 1 .749 3.704q0 1.972-.748 3.706a9.6 9.6 0 0 1-2.03 3.017 9.6 9.6 0 0 1-3.016 2.03 9.25 9.25 0 0 1-3.704.749M12 20q3.35 0 5.675-2.325T20 12t-2.325-5.675T12 4 6.325 6.325 4 12t2.325 5.675T12 20"/></svg>