<svg xmlns="http://www.w3.org/2000/svg" width="24" height="24" viewBox="0 0 24 24" fill='currentColor'><path d="M9.775 17.75q.404 0 .774-.14.368-.14.724-.34.168-.108.35-.19A.9.9 0 0 1 12 17q.238 0 .727.27.356.2.724.34.369.14.774.14 1.173 0 1.897-.83t.724-2.222q0-1.7-1.198-2.622t-3.448-.922h-.4q-2.25 0-3.448.922t-1.198 2.626q0 1.388.724 2.218t1.897.83m-.025-1.192q-.673 0-1.05-.497-.38-.495-.379-1.369 0-1.2.85-1.772.85-.574 2.629-.574h.375q1.779 0 2.616.574.838.573.838 1.772 0 .873-.365 1.37-.366.495-1.039.496-.32 0-.927-.32a4.3 4.3 0 0 0-.625-.305 1.8 1.8 0 0 0-.674-.125 2 2 0 0 0-.685.12q-.33.12-.637.31a3 3 0 0 1-.45.227 1.3 1.3 0 0 1-.477.093m-3.292-6.06q1.386-.557 2.218-1.232.831-.674 1.583-1.818l-.99-.637Q8.648 7.77 7.955 8.3T5.998 9.377zm11.06 0 .459-1.111q-1.22-.521-1.915-1.067t-1.331-1.509l-.99.637q.741 1.125 1.589 1.799.847.675 2.187 1.251M12.001 21.5a9.3 9.3 0 0 1-3.706-.748 9.6 9.6 0 0 1-3.016-2.03 9.6 9.6 0 0 1-2.032-3.016 9.25 9.25 0 0 1-.748-3.704q0-1.972.748-3.706a9.6 9.6 0 0 1 2.03-3.016 9.6 9.6 0 0 1 3.016-2.032 9.25 9.25 0 0 1 3.704-.748q1.972 0 3.706.748a9.6 9.6 0 0 1 3.017 2.03 9.6 9.6 0 0 1 2.03 3.016 9.25 9.25 0 0 1 .749 3.704q0 1.972-.748 3.706a9.6 9.6 0 0 1-2.03 3.017 9.6 9.6 0 0 1-3.016 2.03 9.25 9.25 0 0 1-3.704.749M12 20q3.35 0 5.675-2.325T20 12t-2.325-5.675T12 4 6.325 6.325 4 12t2.325 5.675T12 20"/></svg>