<svg xmlns="http://www.w3.org/2000/svg" width="24" height="24" viewBox="0 0 24 24" fill='currentColor'><path d="M12.002 21.5a9.3 9.3 0 0 1-3.706-.748 9.6 9.6 0 0 1-3.016-2.03 9.6 9.6 0 0 1-2.032-3.016 9.25 9.25 0 0 1-.748-3.704q0-1.972.748-3.706a9.6 9.6 0 0 1 2.03-3.016 9.6 9.6 0 0 1 3.016-2.032 9.25 9.25 0 0 1 3.704-.748q1.972 0 3.706.748a9.6 9.6 0 0 1 3.017 2.03 9.6 9.6 0 0 1 2.03 3.016 9.25 9.25 0 0 1 .749 3.704q0 1.972-.748 3.706a9.6 9.6 0 0 1-2.03 3.017 9.6 9.6 0 0 1-3.016 2.03 9.25 9.25 0 0 1-3.704.749M12 20q3.325 0 5.663-2.337T20 12t-2.337-5.662T12 4 6.338 6.338 4 12t2.338 5.663T12 20m1.596-9.225.51-.3q-.018.552.36.942.375.39.938.39.545 0 .926-.38.381-.383.382-.927 0-.356-.18-.665a1.2 1.2 0 0 0-.49-.47l.737-.423-.442-.778-3.183 1.817zm-3.192 0 .442-.794-3.182-1.817-.443.778.737.424q-.31.16-.49.47-.18.308-.18.664 0 .545.382.926.381.382.926.382.562 0 .938-.39.378-.39.36-.943zM12.002 13q-1.652 0-2.91 1.051a5.74 5.74 0 0 0-1.79 2.641h9.396a5.74 5.74 0 0 0-1.787-2.641A4.4 4.4 0 0 0 12.002 13"/></svg>