<svg xmlns="http://www.w3.org/2000/svg" width="24" height="24" viewBox="0 0 24 24" fill='currentColor'><path d="M8.154 12.154V14q0 1.592 1.127 2.72A3.7 3.7 0 0 0 12 17.845a3.7 3.7 0 0 0 2.72-1.127A3.7 3.7 0 0 0 15.845 14v-1.846zm3.846 4.5a2.56 2.56 0 0 1-1.88-.773A2.56 2.56 0 0 1 9.345 14v-.654h5.308V14a2.56 2.56 0 0 1-.773 1.88 2.56 2.56 0 0 1-1.881.774m-3.5-9.5q-.864 0-1.548.615-.685.615-.985 1.69l1.152.283q.18-.63.553-1.008.375-.378.828-.388.455.01.828.388.375.378.553 1.008l1.152-.283q-.3-1.074-.985-1.69-.684-.615-1.548-.615m7 0q-.864 0-1.548.615-.685.615-.985 1.69l1.152.283q.18-.64.548-1.018.37-.378.833-.378.464 0 .833.378.37.378.548 1.018l1.152-.283q-.3-1.074-.985-1.69-.684-.615-1.548-.615M12.002 21.5a9.3 9.3 0 0 1-3.706-.748 9.6 9.6 0 0 1-3.016-2.03 9.6 9.6 0 0 1-2.032-3.016 9.25 9.25 0 0 1-.748-3.704q0-1.972.748-3.706a9.6 9.6 0 0 1 2.03-3.016 9.6 9.6 0 0 1 3.016-2.032 9.25 9.25 0 0 1 3.704-.748q1.972 0 3.706.748a9.6 9.6 0 0 1 3.017 2.03 9.6 9.6 0 0 1 2.03 3.016 9.25 9.25 0 0 1 .749 3.704q0 1.972-.748 3.706a9.6 9.6 0 0 1-2.03 3.017 9.6 9.6 0 0 1-3.016 2.03 9.25 9.25 0 0 1-3.704.749M12 20q3.35 0 5.675-2.325T20 12t-2.325-5.675T12 4 6.325 6.325 4 12t2.325 5.675T12 20"/></svg>