<svg xmlns="http://www.w3.org/2000/svg" width="24" height="24" viewBox="0 0 24 24" fill='currentColor'><path d="M3.452 22.5v-4.304L1.5 16.244V6.087h1.952V1.5h1.5v4.587h1.952v10.157l-1.952 1.952V22.5zm7.798 0v-4.304l-1.952-1.952V6.087h1.952V1.5h1.5v4.587h1.952v10.157l-1.952 1.952V22.5zm7.798 0v-4.304l-1.952-1.952V6.087h1.952V1.5h1.5v4.587H22.5v10.157l-1.952 1.952V22.5zM3 7.587v4.346h2.404V7.587zm7.798 0v4.346h2.404V7.587zm7.798 0v4.346H21V7.587zm-14.394 9.22 1.202-1.201v-2.173H3v2.173zm7.798 0 1.202-1.201v-2.173h-2.404v2.173zm7.798 0 1.202-1.2v-2.173h-2.404v2.173z"/></svg>