<svg xmlns="http://www.w3.org/2000/svg" width="24" height="24" viewBox="0 0 24 24" fill='currentColor'><path d="M11.98 13.5q-.612 0-1.056-.443A1.44 1.44 0 0 1 10.481 12q0-.613.443-1.057a1.44 1.44 0 0 1 1.057-.443q.614 0 1.056.443.444.444.444 1.057t-.444 1.057a1.44 1.44 0 0 1-1.056.443m0 7q-3.263 0-5.669-2.143Q3.907 16.212 3.541 13h1.53q.379 2.59 2.336 4.295T11.98 19q2.925 0 4.962-2.038T18.981 12t-2.038-4.962T11.981 5a6.7 6.7 0 0 0-3.071.728 7.6 7.6 0 0 0-2.468 2.003h2.616v1.5H3.98V4.154h1.5v2.369a8.5 8.5 0 0 1 2.915-2.23A8.4 8.4 0 0 1 11.98 3.5q1.77 0 3.316.67a8.6 8.6 0 0 1 2.695 1.819 8.6 8.6 0 0 1 1.82 2.695q.669 1.546.669 3.316t-.67 3.315a8.6 8.6 0 0 1-1.819 2.697 8.6 8.6 0 0 1-2.696 1.819 8.3 8.3 0 0 1-3.315.669"/></svg>