<svg xmlns="http://www.w3.org/2000/svg" width="24" height="24" viewBox="0 0 24 24" fill='currentColor'><path d="M9.077 15.452h6.5q.84 0 1.42-.58t.58-1.419-.58-1.42a1.93 1.93 0 0 0-1.42-.581h-.28a3.47 3.47 0 0 0-.964-2.123 2.75 2.75 0 0 0-2.068-.877q-1.01 0-1.849.534a2.88 2.88 0 0 0-1.181 1.466h-.327q-1.005 0-1.668.741a2.55 2.55 0 0 0-.663 1.759q0 1.048.726 1.774a2.4 2.4 0 0 0 1.774.726m0-1.5a.97.97 0 0 1-.713-.287.97.97 0 0 1-.287-.713q0-.424.287-.713a.97.97 0 0 1 .713-.287h1.279v-.25q0-.725.517-1.238.517-.512 1.3-.512t1.295.59q.513.588.513 1.372v1.038h1.596q.2 0 .35.15a.48.48 0 0 1 0 .7.48.48 0 0 1-.35.15zM2.5 19.5v-15h19v15zM4 18h16V6H4z"/></svg>