<svg xmlns="http://www.w3.org/2000/svg" width="24" height="24" viewBox="0 0 24 24" fill='currentColor'><path d="m18.275 8.675-1-2.175-2.175-1 2.175-1 1-2.175L19.3 4.5l2.15 1-2.15 1zm2 7.15-.725-1.575-1.6-.75 1.6-.75.725-1.575.75 1.575 1.575.75-1.575.75zM7.725 21.5l-.275-2.2a3 3 0 0 1-.612-.288 2 2 0 0 1-.488-.387l-2.05.9-2.05-3.6 1.775-1.3a4.5 4.5 0 0 1-.05-.625q0-.275.05-.625l-1.775-1.3 2.05-3.6 2.05.9q.176-.2.488-.388.312-.186.612-.287l.275-2.2h4.125l.275 2.2q.275.1.588.287.312.189.512.388l2.05-.9 2.05 3.6-1.775 1.3q.05.35.05.625 0 .276-.05.625l1.775 1.3-2.05 3.6-2.05-.9a2.6 2.6 0 0 1-.512.387 3.4 3.4 0 0 1-.588.288l-.275 2.2zm2.05-4.775q1.15 0 1.95-.787.8-.788.8-1.938 0-1.125-.8-1.925a2.65 2.65 0 0 0-1.95-.8q-1.125 0-1.925.787-.8.789-.8 1.938 0 1.125.8 1.925t1.925.8m0-1.5q-.5 0-.862-.362A1.18 1.18 0 0 1 8.55 14q0-.499.363-.863.362-.362.862-.362.525 0 .888.362.362.363.362.863t-.362.863a1.2 1.2 0 0 1-.888.362M9.025 20h1.5l.2-1.8a5 5 0 0 0 1.238-.512 5 5 0 0 0 1.012-.838l1.65.75.725-1.275-1.475-1.075A3.4 3.4 0 0 0 14.1 14a3.4 3.4 0 0 0-.225-1.25l1.45-1.1-.7-1.25-1.65.75a5 5 0 0 0-1.012-.838 5 5 0 0 0-1.238-.512l-.2-1.8h-1.5l-.2 1.8a5 5 0 0 0-1.237.512q-.513.313-1.013.838l-1.65-.75-.7 1.25 1.45 1.1A4 4 0 0 0 5.463 14q-.013.675.212 1.25l-1.45 1.075.7 1.275 1.65-.75q.5.526 1.013.838t1.237.512z"/></svg>