<svg xmlns="http://www.w3.org/2000/svg" width="24" height="24" viewBox="0 0 24 24" fill='currentColor'><path d="m9.692 21.5-.38-3.046a5.3 5.3 0 0 1-1.579-.896L4.912 18.75l-2.308-4 2.44-1.844a5 5 0 0 1-.049-.448 7 7 0 0 1 0-.882q.014-.22.05-.482L2.603 9.25l2.308-3.98 2.811 1.182a6.4 6.4 0 0 1 .772-.524 5 5 0 0 1 .807-.382l.39-3.046h4.616l.38 3.056q.45.163.815.381t.735.515l2.85-1.183 2.308 3.981-2.479 1.873q.054.243.059.453t.005.424q0 .204-.01.415-.01.21-.069.481l2.46 1.854-2.308 4-2.815-1.202q-.372.296-.758.524a4.6 4.6 0 0 1-.793.372l-.38 3.056zM11 20h1.966l.359-2.679q.765-.2 1.399-.568.634-.369 1.222-.947l2.485 1.044.985-1.7-2.17-1.635q.125-.387.17-.761a6.3 6.3 0 0 0 0-1.508 4 4 0 0 0-.17-.742l2.189-1.654-.985-1.7-2.513 1.06a5.3 5.3 0 0 0-1.203-.949 5.2 5.2 0 0 0-1.418-.582L13 4h-1.985l-.33 2.67a5.2 5.2 0 0 0-1.414.553q-.648.374-1.237.962L5.55 7.15l-.984 1.7 2.159 1.61a3.7 3.7 0 0 0-.175.74 6.3 6.3 0 0 0 0 1.575q.05.375.165.74l-2.15 1.635.985 1.7 2.475-1.05q.57.585 1.217.958t1.433.573zm1.011-5q1.249 0 2.125-.876A2.9 2.9 0 0 0 15.012 12q0-1.248-.876-2.124A2.9 2.9 0 0 0 12.012 9q-1.264 0-2.132.876A2.9 2.9 0 0 0 9.01 12q0 1.248.869 2.124T12.01 15"/></svg>