<svg xmlns="http://www.w3.org/2000/svg" width="24" height="24" viewBox="0 0 24 24" fill='currentColor'><path d="M16.654 17.654 15.6 16.6l4.57-4.6-4.57-4.6 1.054-1.053L22.308 12zm-9.308 0L1.692 12l5.654-5.653L8.4 7.4 3.83 12l4.57 4.6zM8 12.884a.85.85 0 0 1-.63-.254.86.86 0 0 1-.253-.63q0-.377.254-.63.255-.255.63-.254.378 0 .63.254.255.255.255.631 0 .377-.255.63a.86.86 0 0 1-.63.254m4 0a.85.85 0 0 1-.63-.254.86.86 0 0 1-.253-.63q0-.377.254-.63.255-.255.63-.254.378 0 .63.254.255.255.254.631 0 .377-.254.63a.86.86 0 0 1-.63.254m4 0a.85.85 0 0 1-.63-.254.86.86 0 0 1-.253-.63q0-.377.254-.63.255-.255.63-.254.378 0 .63.254.255.255.255.631 0 .377-.255.63a.86.86 0 0 1-.63.254"/></svg>