<svg xmlns="http://www.w3.org/2000/svg" width="24" height="24" viewBox="0 0 24 24" fill='currentColor'><path d="M13.192 21.5v-7.384h2.77l.922-.924h1.847l.923.924h2.769V21.5zm4.616-1.846q.758 0 1.302-.544.543-.544.544-1.302 0-.758-.544-1.302a1.78 1.78 0 0 0-1.302-.545q-.758 0-1.302.545a1.78 1.78 0 0 0-.545 1.302q0 .757.545 1.302.544.543 1.302.544M12.012 9q-1.248 0-2.125.876A2.9 2.9 0 0 0 9.012 12q0 .998.546 1.754A2.97 2.97 0 0 0 11 14.83v-1.692a1.45 1.45 0 0 1-.354-.523 1.6 1.6 0 0 1-.135-.616q0-.625.438-1.062a1.45 1.45 0 0 1 1.063-.438q.35 0 .63.137.279.138.48.363h1.701a2.93 2.93 0 0 0-1.065-1.444A2.88 2.88 0 0 0 12.013 9m-2.32 12.5-.38-3.046a5.3 5.3 0 0 1-1.579-.896L4.912 18.75l-2.308-4 2.44-1.844a5 5 0 0 1-.049-.448 7 7 0 0 1 0-.882q.014-.22.05-.482L2.603 9.25l2.308-3.98 2.811 1.182a6.4 6.4 0 0 1 .772-.524 5 5 0 0 1 .807-.382l.39-3.046h4.616l.38 3.056q.45.163.815.381t.735.515l2.85-1.183 2.308 3.981-2.202 1.673q.01.02.01.038 0 .02.01.039h-1.852a7 7 0 0 1-.046-.248 1.2 1.2 0 0 0-.07-.248l2.189-1.654-.985-1.7-2.513 1.06a5.3 5.3 0 0 0-1.203-.949 5.2 5.2 0 0 0-1.418-.582L13 4h-1.985l-.33 2.67a5.2 5.2 0 0 0-1.414.553q-.648.374-1.237.962L5.55 7.15l-.984 1.7 2.159 1.61a3.7 3.7 0 0 0-.175.74 6.3 6.3 0 0 0 0 1.575q.05.375.165.74l-2.15 1.635.985 1.7 2.475-1.05q.6.615 1.355 1.026a5.3 5.3 0 0 0 1.62.564v4.11z"/></svg>