<svg xmlns="http://www.w3.org/2000/svg" width="24" height="24" viewBox="0 0 24 24" fill='currentColor'><path d="m9.692 21.5-.38-3.046a5.3 5.3 0 0 1-1.579-.896L4.912 18.75l-2.308-4 2.44-1.844a5 5 0 0 1-.049-.448 7 7 0 0 1 0-.882q.014-.22.05-.482L2.603 9.25l2.308-3.98 2.811 1.182a6.4 6.4 0 0 1 .772-.524 5 5 0 0 1 .807-.382l.39-3.046h4.616l.38 3.056q.45.163.815.381t.735.515l2.85-1.183 2.308 3.981-1.85 1.4a8 8 0 0 0-.87-.323 6 6 0 0 0-.932-.2l1.69-1.277-.984-1.7-2.513 1.06a5.3 5.3 0 0 0-1.203-.949 5.2 5.2 0 0 0-1.418-.582L13 4h-1.985l-.33 2.67a5.2 5.2 0 0 0-1.414.553q-.648.374-1.237.962L5.55 7.15l-.984 1.7 2.159 1.61a3.7 3.7 0 0 0-.175.74 6.3 6.3 0 0 0 0 1.575q.05.375.165.74l-2.15 1.635.985 1.7 2.475-1.05q.455.453.96.791.507.338 1.101.553.045 1.262.525 2.377a6.9 6.9 0 0 0 1.287 1.979zm.794-6.908a5.7 5.7 0 0 1 .658-1.379A1.46 1.46 0 0 1 10.511 12q0-.625.438-1.062a1.45 1.45 0 0 1 1.063-.438q.37 0 .698.172.33.172.53.466.32-.207.659-.367t.705-.265a2.9 2.9 0 0 0-1.072-1.095A2.9 2.9 0 0 0 12.012 9q-1.264 0-2.132.876A2.9 2.9 0 0 0 9.01 12q0 .825.396 1.517.394.693 1.08 1.075m6.398 5.033 2.741-2.74-2.74-2.74-.623.622 1.684 1.675h-3.811v.885h3.786l-1.66 1.675zm0 1.875q-1.911 0-3.263-1.352-1.352-1.351-1.352-3.264 0-1.911 1.352-3.263t3.263-1.352 3.264 1.352 1.352 3.263-1.352 3.264-3.264 1.352"/></svg>