<svg xmlns="http://www.w3.org/2000/svg" width="24" height="24" viewBox="0 0 24 24" fill='currentColor'><path d="M8.385 17.969a9 9 0 0 0 .73.03 9 9 0 0 0 .77-.03v1.915h10v-10h-1.916A11 11 0 0 0 18 9.115a9 9 0 0 0-.03-.73h3.415v13h-13zm.732-2.354q-2.715 0-4.608-1.891T2.616 9.117t1.89-4.609q1.892-1.893 4.608-1.893t4.608 1.891 1.893 4.607-1.891 4.609-4.607 1.893m-.001-1.5q2.075 0 3.537-1.462 1.463-1.462 1.463-3.538 0-2.074-1.463-3.537-1.462-1.463-3.537-1.463T5.578 5.578 4.116 9.115t1.462 3.538 3.538 1.462"/></svg>