<svg xmlns="http://www.w3.org/2000/svg" width="24" height="24" viewBox="0 0 24 24" fill='currentColor'><path d="M12.985 21.45v-1.5a8.5 8.5 0 0 0 2.076-.575 8.3 8.3 0 0 0 1.823-1.056l1.075 1.085a9.7 9.7 0 0 1-2.332 1.367q-1.244.51-2.642.679m6.404-3.496L18.334 16.9a7.4 7.4 0 0 0 1.05-1.813q.4-.987.55-2.087h1.531a10 10 0 0 1-.695 2.657q-.525 1.251-1.381 2.297M19.935 11a8.7 8.7 0 0 0-.55-2.113 7 7 0 0 0-1.05-1.787l1.063-1.044a10 10 0 0 1 1.408 2.296q.506 1.176.66 2.648zm-8.95 10.45q-3.615-.44-6.032-3.121-2.418-2.681-2.418-6.33 0-3.663 2.413-6.348t6.037-3.101v1.5q-3 .425-4.975 2.675T4.035 12t1.975 5.262 4.975 2.688zm5.95-15.75a9 9 0 0 0-1.895-1.1 7.4 7.4 0 0 0-2.036-.55v-1.5a9.3 9.3 0 0 1 2.609.659 10 10 0 0 1 2.346 1.387zM12 16.51a28 28 0 0 1-2.46-2.385q-1.155-1.266-1.155-2.967 0-1.537 1.047-2.622T12 7.452t2.568 1.084 1.047 2.622q0 1.701-1.155 2.967-1.155 1.265-2.46 2.384m0-4.52a.94.94 0 0 0 .69-.279.94.94 0 0 0 .28-.69.95.95 0 0 0-.28-.683.93.93 0 0 0-.69-.286.93.93 0 0 0-.69.286.95.95 0 0 0-.28.683q0 .411.28.69a.94.94 0 0 0 .69.28"/></svg>