<svg xmlns="http://www.w3.org/2000/svg" width="24" height="24" viewBox="0 0 24 24" fill='currentColor'><path d="M18 6.25q.522 0 .886-.364T19.25 5t-.364-.886A1.2 1.2 0 0 0 18 3.75q-.522 0-.886.364A1.2 1.2 0 0 0 16.75 5q0 .522.364.886.364.363.886.364m0 14q.522 0 .886-.364T19.25 19t-.364-.886A1.2 1.2 0 0 0 18 17.75q-.522 0-.886.364a1.2 1.2 0 0 0-.364.886q0 .522.364.886t.886.364M6 22.308q-1.873 0-3.186-1.314Q1.5 19.681 1.5 17.808q0-1.874 1.314-3.187Q4.127 13.308 6 13.308t3.187 1.313 1.313 3.187-1.313 3.186T6 22.308M3.275 11.704q.115-1.03.88-1.742Q4.922 9.25 6 9.25q.566 0 1.071.222.506.222.902.617l7.396-4.331a2 2 0 0 1-.09-.372A3 3 0 0 1 15.25 5q0-1.144.803-1.947A2.65 2.65 0 0 1 18 2.25a2.65 2.65 0 0 1 1.947.803q.803.803.803 1.947t-.803 1.947A2.65 2.65 0 0 1 18 7.75q-.566 0-1.071-.222a3 3 0 0 1-.902-.616l-7.396 4.33q.034.11.052.221.016.113.042.24A6.5 6.5 0 0 0 6 11.117a6.5 6.5 0 0 0-2.725.588M18 21.75a2.65 2.65 0 0 1-1.947-.803A2.65 2.65 0 0 1 15.25 19q0-.184.03-.387.03-.201.09-.37l-2.8-1.635a6.6 6.6 0 0 0-.255-1.002 6 6 0 0 0-.413-.931l4.125 2.413q.396-.393.902-.616A2.6 2.6 0 0 1 18 16.25q1.145 0 1.947.803.803.802.803 1.947t-.803 1.947A2.65 2.65 0 0 1 18 21.75M6 18.43l1.75 1.766.639-.623-1.766-1.765 1.766-1.766-.623-.623L6 17.184 4.234 15.42l-.622.623 1.765 1.766-1.765 1.765.622.623z"/></svg>