<svg xmlns="http://www.w3.org/2000/svg" width="24" height="24" viewBox="0 0 24 24" fill='currentColor'><path d="M12 21.48q-3.244-.885-5.372-3.819T4.5 11.1V5.346L12 2.538l7.5 2.808V11.1q0 3.627-2.128 6.561T12 21.481m0-1.58q2.6-.825 4.3-3.3 1.7-2.476 1.7-5.5V6.375l-6-2.24-6 2.24V11.1q0 3.024 1.7 5.5t4.3 3.3m-2.884-4.073h5.768v-4.77h-.99v-1q0-.787-.549-1.335a1.82 1.82 0 0 0-1.336-.55q-.786 0-1.335.55a1.82 1.82 0 0 0-.549 1.335v1h-1.01zm1.893-4.77v-1q0-.424.288-.712a.97.97 0 0 1 .712-.288q.425 0 .713.288.287.287.287.712v1z"/></svg>