<svg xmlns="http://www.w3.org/2000/svg" width="24" height="24" viewBox="0 0 24 24" fill='currentColor'><path d="M12 15.653q2.32-2.097 2.972-2.939.653-.84.653-1.678a1.9 1.9 0 0 0-.59-1.402 1.93 1.93 0 0 0-1.408-.588q-.487 0-.923.192-.435.192-.704.53a1.84 1.84 0 0 0-.7-.53 2.2 2.2 0 0 0-.927-.192q-.812 0-1.406.587-.592.588-.592 1.403 0 .429.114.792.114.362.502.848.387.487 1.1 1.189.71.702 1.909 1.788m0 5.827q-3.244-.885-5.372-3.819T4.5 11.1V5.346L12 2.538l7.5 2.808V11.1q0 3.627-2.128 6.561T12 21.481m0-1.58q2.6-.825 4.3-3.3 1.7-2.476 1.7-5.5V6.375l-6-2.24-6 2.24V11.1q0 3.024 1.7 5.5t4.3 3.3"/></svg>