<svg xmlns="http://www.w3.org/2000/svg" width="24" height="24" viewBox="0 0 24 24" fill='currentColor'><path d="M12.525 15.75q.834 0 1.636-.328a3.9 3.9 0 0 0 1.41-.984q.156-.171.085-.363-.072-.194-.302-.252a4.9 4.9 0 0 1-1.738-.78 4.5 4.5 0 0 1-1.312-1.468 5 5 0 0 1-.626-1.835 3.8 3.8 0 0 1 .214-1.9q.09-.231-.067-.392a.39.39 0 0 0-.385-.112q-1.494.383-2.354 1.567-.861 1.185-.861 2.597 0 1.769 1.26 3.01t3.04 1.24M12 21.48q-3.244-.885-5.372-3.819T4.5 11.1V5.346L12 2.538l7.5 2.808V11.1q0 3.627-2.128 6.561T12 21.481m0-1.58q2.6-.825 4.3-3.3 1.7-2.476 1.7-5.5V6.375l-6-2.24-6 2.24V11.1q0 3.024 1.7 5.5t4.3 3.3"/></svg>