<svg xmlns="http://www.w3.org/2000/svg" width="24" height="24" viewBox="0 0 24 24" fill='currentColor'><path d="m15.373 12.558-1.5-1.5h1.677l2.894-5.308H8.565l-1.5-1.5h13.923l-4.552 8.308zm-8.22 9q-.728 0-1.238-.51t-.511-1.24.51-1.24q.51-.51 1.24-.51.729 0 1.24.51.51.511.51 1.24 0 .73-.51 1.24-.511.51-1.24.51m13.25.954-5.984-5.954H4.675l2.552-4.935L5.292 7.4 1.47 3.577l1.054-1.054 18.935 18.935zm-7.484-7.454-2.5-2.5H8.408l-1.308 2.5zm3.927 6.5q-.719 0-1.235-.51a1.68 1.68 0 0 1-.515-1.24q0-.729.515-1.24.516-.51 1.235-.51t1.235.51.515 1.24q0 .73-.515 1.24t-1.235.51"/></svg>