<svg xmlns="http://www.w3.org/2000/svg" width="24" height="24" viewBox="0 0 24 24" fill='currentColor'><path d="M3.616 21.5v-19h12v7.72a7 7 0 0 0-.765.19 8 8 0 0 0-.735.274V4h-9v6.5h8.576v.415a7 7 0 0 0-.828.513 6 6 0 0 0-.687.572H5.116v8h5.626q.218.446.474.823.257.375.557.677zm6-12.5q-.73 0-1.24-.51-.51-.511-.51-1.24t.51-1.24q.51-.51 1.24-.51.727 0 1.239.51.51.511.51 1.24t-.51 1.24q-.51.51-1.24.51m-.75 9.75h1.361v-.77a8 8 0 0 1-.123-.68 5.1 5.1 0 0 1 .261-2.42v-1.63h-1.5v2h-2v1.5h2zm8.136 3q-1.971 0-3.361-1.389-1.392-1.389-1.391-3.36t1.389-3.36q1.389-1.392 3.36-1.391t3.36 1.389q1.39 1.389 1.391 3.36 0 1.97-1.389 3.36T17 21.75m1.673-2.452.623-.623-1.856-1.852v-2.765h-.884v3.123z"/></svg>