<svg xmlns="http://www.w3.org/2000/svg" width="24" height="24" viewBox="0 0 24 24" fill='currentColor'><path d="M22.308 19.5h-7.116V18h7.116zM9 3V1.5h6V3zm3 18.5a8.3 8.3 0 0 1-3.316-.67 8.6 8.6 0 0 1-2.695-1.818 8.6 8.6 0 0 1-1.82-2.696 8.3 8.3 0 0 1-.669-3.315q0-1.77.67-3.316a8.6 8.6 0 0 1 1.819-2.697A8.6 8.6 0 0 1 8.684 5.17 8.3 8.3 0 0 1 12 4.5q1.558 0 2.947.525a8.8 8.8 0 0 1 2.515 1.46l1.377-1.377 1.053 1.054-1.361 1.392a8.44 8.44 0 0 1 1.969 5.55q-.282-.081-.607-.167-.324-.087-.893-.097a5 5 0 0 0-.017-.42q-.018-.208-.058-.42h-4.179l-4.471 7.787q.42.11.845.161.426.052.88.052.246 0 .482-.012a4 4 0 0 0 .482-.053q.064.375.184.745t.302.699a7 7 0 0 1-.725.093q-.358.028-.725.028m-.077-10.384h6.815a6.8 6.8 0 0 0-1.542-2.802A7.2 7.2 0 0 0 14.6 6.5zm-1.615 1 3.427-5.897a7.04 7.04 0 0 0-4.03.158A6.9 6.9 0 0 0 7.65 7.5zM5.1 14h5.266L6.977 8.104a7.8 7.8 0 0 0-1.615 2.687Q4.825 12.3 5.1 14m4.3 5.5 2.658-4.616H5.262a6.8 6.8 0 0 0 1.537 2.793A7.2 7.2 0 0 0 9.4 19.5"/></svg>