<svg xmlns="http://www.w3.org/2000/svg" width="24" height="24" viewBox="0 0 24 24" fill='currentColor'><path d="M13.07 7.817 7.063 3.36l.896-1.217L13.97 6.62zM9.234 6.688 8.152 7.763 6.131 6.275l.88-1.212zm8.955 1.337-7.81-5.798.881-1.197 5.78 4.274.428-3.268 1.833-.254 2.63 8.898-1.817 2.437-1.196-.893 1.366-1.842-1.652-5.623zM7.067 10.52l-1.06-.758.743-.996.511.377.631 1.377zM9 16.49H1.5v-1.5H9zm0 2.885H2.5v-1.5H9zm-4.5 2.884v-1.5h11.808V14.23l-4.685-3.513 1.608 2.888H3.5v-1.5h7.177L9.031 9.248l1.361-1.304 7.416 5.546v8.769z"/></svg>