<svg xmlns="http://www.w3.org/2000/svg" width="24" height="24" viewBox="0 0 24 24" fill='currentColor'><path d="M13.565 12.389q2.008-1.408 3.158-3.102t1.15-3.362q0-.926-.344-1.425-.345-.5-.92-.5-1.319 0-2.257 1.997t-.938 4.728q0 .485.036.898.037.413.115.766M3.491 20.5v-1.73h1.73v1.73zm3.817 0v-1.73h1.73v1.73zm3.817 0v-1.73h1.73v1.73zm3.817 0v-1.73h1.731v1.73zm3.817 0v-1.73h1.731v1.73zM3.544 16.644 2.5 15.6 4.1 14l-1.6-1.6 1.044-1.044 1.6 1.6 1.6-1.6L7.79 12.4 6.19 14l1.6 1.6-1.045 1.044-1.6-1.6zM15.133 16q-.75 0-1.351-.321-.6-.322-1.013-1-.606.35-1.258.634-.653.285-1.344.56l-.527-1.404q.681-.26 1.319-.556.637-.299 1.228-.632a8 8 0 0 1-.217-1.215q-.072-.664-.072-1.433 0-3.553 1.334-5.842Q14.565 2.5 16.61 2.5q1.223 0 1.985.934.763.933.763 2.553 0 2.1-1.406 4.168-1.406 2.066-3.86 3.703.214.328.488.493.273.165.599.164.726 0 1.609-.796.881-.795 1.59-2.117l1.345.629a6.2 6.2 0 0 0-.188 1.207q-.032.6.178 1.041a3.4 3.4 0 0 0 .607-.401q.318-.256.707-.736l1.18.927q-.65.804-1.35 1.268T19.546 16q-.486 0-.856-.409-.369-.408-.567-1.116-.652.72-1.444 1.123-.793.402-1.546.402"/></svg>