<svg xmlns="http://www.w3.org/2000/svg" width="24" height="24" viewBox="0 0 24 24" fill='currentColor'><path d="M6.5 21.5v-4.077a6 6 0 0 1-1.684-1.075 6.8 6.8 0 0 1-1.254-1.521A7.4 7.4 0 0 1 2.5 11q-.001-3.738 2.659-6.12Q7.82 2.5 12 2.5t6.84 2.38T21.5 11a7.4 7.4 0 0 1-1.061 3.827 6.8 6.8 0 0 1-1.256 1.521 6 6 0 0 1-1.683 1.077V21.5zM8 20h1.211v-1.77h1.77V20h2.038v-1.77h1.77V20H16v-3.55q.93-.254 1.668-.784t1.256-1.25.798-1.59Q20 11.956 20 11q0-3.124-2.212-5.062Q15.574 4 12 4T6.213 5.938 4 11q0 .956.278 1.826.279.87.798 1.59.518.72 1.264 1.25.744.53 1.66.784zm2.596-5h2.808L12 12.192zm-2.094-2.192q.746 0 1.276-.532.53-.531.53-1.278 0-.746-.532-1.276a1.75 1.75 0 0 0-1.278-.53q-.746 0-1.276.532-.53.531-.53 1.278 0 .746.532 1.276.531.53 1.278.53m7 0q.746 0 1.276-.532.53-.531.53-1.278 0-.746-.532-1.276a1.75 1.75 0 0 0-1.278-.53q-.746 0-1.276.532-.53.531-.53 1.278 0 .746.532 1.276.531.53 1.278.53"/></svg>