<svg xmlns="http://www.w3.org/2000/svg" width="24" height="24" viewBox="0 0 24 24" fill='currentColor'><path d="M4.327 17.5v-1.777a6.2 6.2 0 0 1-2.045-2.003 4.94 4.94 0 0 1-.782-2.701q0-2.373 1.78-3.95 1.779-1.58 4.228-1.579 2.45 0 4.23 1.578t1.781 3.951q0 1.47-.781 2.701a6.2 6.2 0 0 1-2.046 2.003V17.5zm1.5-1.5h3.365v-1.14l.822-.488q.9-.535 1.452-1.42.553-.884.553-1.938 0-1.73-1.35-2.878Q9.32 6.991 7.51 6.99T4.35 8.136 3 11.019q0 1.05.553 1.927a4.4 4.4 0 0 0 1.453 1.427l.821.488zm-.27-4.116q.368 0 .617-.248a.84.84 0 0 0 .249-.617.84.84 0 0 0-.249-.616.84.84 0 0 0-.616-.25.84.84 0 0 0-.617.25.84.84 0 0 0-.249.616q0 .367.249.616a.84.84 0 0 0 .616.25m1.087 1.731h1.731l-.865-1.73zm2.807-1.73q.369 0 .617-.25a.84.84 0 0 0 .25-.616.84.84 0 0 0-.25-.616.84.84 0 0 0-.616-.25.84.84 0 0 0-.617.25.84.84 0 0 0-.249.616q0 .367.25.616a.84.84 0 0 0 .615.25m5.453.836v-1.5H21.5v1.5zm0 3.692v-1.5H21.5v1.5zm0-7.385v-1.5H21.5v1.5z"/></svg>