<svg xmlns="http://www.w3.org/2000/svg" width="24" height="24" viewBox="0 0 24 24" fill='currentColor'><path d="M19.106 22.846q-.456 0-.745-.05a3.6 3.6 0 0 1-.553-.14L1.173 17.233l.363-1.127 3.96 1.275.546-1.713-3.934-1.275.378-1.127 1.764.583V9.653L9.58 7.39q.172-.08.335-.106.165-.024.36-.025.831 0 1.293.651.463.651.188 1.526l-1.137 3.452 3.708-.6 2.734 5.717 1.878.616-.364 1.127-3.315-1.075-.572 1.713 3.47 1.123q.22.06.431.102.213.042.517.042 1.015 0 1.772-.756.757-.757.757-1.772 0-.928-.427-1.582-.428-.655-1.304-1.015l.388-1.126a3.76 3.76 0 0 1 1.85 1.412q.685.988.685 2.31 0 1.523-1.1 2.622-1.1 1.1-2.621 1.1m-5.554-2.814.571-1.738-6.954-2.237-.546 1.714zm1.554-2.665-1.464-3.03-4.465 1.105zM7.26 14.825l-.139-1.573L8.31 9.567l-2.56 1.085v3.684zm4.72-8.48q-.756 0-1.301-.543a1.78 1.78 0 0 1-.544-1.302q0-.759.544-1.302a1.78 1.78 0 0 1 1.302-.545q.758 0 1.302.545.544.543.544 1.302 0 .758-.544 1.302a1.78 1.78 0 0 1-1.302.544"/></svg>