<svg xmlns="http://www.w3.org/2000/svg" width="24" height="24" viewBox="0 0 24 24" fill='currentColor'><path d="M12.075 21.5a9.3 9.3 0 0 1-3.74-.757 9.7 9.7 0 0 1-3.047-2.057 9.7 9.7 0 0 1-2.056-3.046 9.3 9.3 0 0 1-.757-3.74q0-3.285 2.003-5.851t5.18-3.367a10.5 10.5 0 0 0 .496 4.67 10.25 10.25 0 0 0 2.49 3.978 10.25 10.25 0 0 0 3.98 2.49q2.26.774 4.668.497-.784 3.177-3.358 5.18-2.575 2.003-5.859 2.003m0-1.5a7.9 7.9 0 0 0 4.075-1.1 7.9 7.9 0 0 0 2.95-3.028 12.4 12.4 0 0 1-4.075-1.09 11.9 11.9 0 0 1-3.45-2.415A12.1 12.1 0 0 1 9.15 8.92a11.8 11.8 0 0 1-1.075-4.07 7.8 7.8 0 0 0-3.012 2.962A8.05 8.05 0 0 0 3.975 11.9q0 3.375 2.363 5.737T12.075 20m5.694-10.8-1.06-2.333-2.334-1.06 2.334-1.061 1.06-2.334 1.06 2.334 2.334 1.06-2.333 1.06z"/></svg>