<svg xmlns="http://www.w3.org/2000/svg" width="24" height="24" viewBox="0 0 24 24" fill='currentColor'><path d="M14.808 2.433q2.82 0 4.784 1.964 1.965 1.965 1.966 4.786h-1.5a5.05 5.05 0 0 0-.382-1.964 5.3 5.3 0 0 0-1.045-1.62l-1 1.7a73 73 0 0 0-.538.88 5 5 0 0 1-.612.83.94.94 0 0 1-.712.308 1.02 1.02 0 0 1-.727-.292.95.95 0 0 1-.307-.718 1 1 0 0 1 .307-.73q.34-.35.832-.622.49-.272.893-.519l1.7-1.01a5.4 5.4 0 0 0-1.646-1.092 5 5 0 0 0-2.013-.401zM12.075 21.5a9.3 9.3 0 0 1-3.74-.757 9.7 9.7 0 0 1-3.047-2.057 9.7 9.7 0 0 1-2.056-3.045 9.3 9.3 0 0 1-.757-3.741q0-3.285 2.003-5.851t5.18-3.366a10.5 10.5 0 0 0 .496 4.669 10.25 10.25 0 0 0 2.49 3.979 10.25 10.25 0 0 0 3.979 2.49q2.262.772 4.67.496-.785 3.177-3.36 5.18Q15.36 21.5 12.075 21.5m0-1.5a7.9 7.9 0 0 0 4.075-1.1 7.9 7.9 0 0 0 2.95-3.028 12.4 12.4 0 0 1-4.075-1.089 11.9 11.9 0 0 1-3.45-2.416A12.1 12.1 0 0 1 9.15 8.92a11.8 11.8 0 0 1-1.075-4.07 7.8 7.8 0 0 0-3.013 2.962A8.05 8.05 0 0 0 3.975 11.9q0 3.375 2.362 5.737T12.075 20"/></svg>