<svg xmlns="http://www.w3.org/2000/svg" width="24" height="24" viewBox="0 0 24 24" fill='currentColor'><path d="M18.587 1.22v12.874h-.431l-1.07-1.069V2.72H6.855l-1.49-1.5zm-4.073 9.197-2.197-2.19q.187-.507.623-.84a1.6 1.6 0 0 1 1.002-.331q.71 0 1.216.506.506.507.506 1.218 0 .56-.317 1.006a1.7 1.7 0 0 1-.833.631m-6.408 2.054V6.825l2.671 2.671q-.127 1.397-.68 2.186-.553.79-1.426.79zM4 18.72h13.877l-1.192-1.192H4zm16.792 2.916-1.415-1.416H2.5v-4.192h12.685L6.913 7.74v6.595h-1.5V6.24L1.297 2.123 2.35 1.07l19.511 19.497z"/></svg>