<svg xmlns="http://www.w3.org/2000/svg" width="24" height="24" viewBox="0 0 24 24" fill='currentColor'><path d="M1.5 18.5v-13h21v13zM4.25 17V7H3v10zm1.5 0h12.5V7H5.75zm14 0H21V7h-1.25zm-6.5-4.308a.67.67 0 0 1-.496-.196.67.67 0 0 1-.196-.496q0-.3.196-.496a.67.67 0 0 1 .496-.196q.3 0 .496.196.196.195.196.496 0 .3-.196.496a.67.67 0 0 1-.496.196m-5 0a.67.67 0 0 1-.496-.196.67.67 0 0 1-.196-.496q0-.3.196-.496a.67.67 0 0 1 .496-.196q.3 0 .496.196.195.195.196.496 0 .3-.196.496a.67.67 0 0 1-.496.196m7.5 0a.67.67 0 0 1-.496-.196.67.67 0 0 1-.196-.496q0-.3.196-.496a.67.67 0 0 1 .496-.196q.3 0 .496.196.196.195.196.496 0 .3-.196.496a.67.67 0 0 1-.496.196m-5 0a.67.67 0 0 1-.496-.196.67.67 0 0 1-.196-.496q0-.3.196-.496a.67.67 0 0 1 .496-.196q.3 0 .496.196.196.195.196.496 0 .3-.196.496a.67.67 0 0 1-.496.196"/></svg>