<svg xmlns="http://www.w3.org/2000/svg" width="24" height="24" viewBox="0 0 24 24" fill='currentColor'><path d="M8.798 22.5q-.908 0-1.499-.61a2 2 0 0 1-.591-1.442q0-.517.241-.99a2.06 2.06 0 0 1 .693-.777q.51-.35.84-.914a4.2 4.2 0 0 0 .474-1.22 4 4 0 0 1-.319-.14 1.7 1.7 0 0 1-.299-.186l-2.161.775a6 6 0 0 1-.668.21 2.8 2.8 0 0 1-.686.086q-1.494 0-2.409-1.25Q1.5 14.79 1.5 12.797q0-.969.598-1.53.598-.56 1.429-.56.52 0 .996.241.475.24.78.693.35.51.922.832.57.322 1.229.466.06-.157.138-.31a2 2 0 0 1 .187-.292l-.775-2.161a6 6 0 0 1-.21-.662 2.7 2.7 0 0 1-.086-.667q0-1.58 1.305-2.464Q9.32 5.5 11.202 5.5q.985 0 1.537.606.553.606.553 1.436 0 .508-.241.995-.241.486-.693.782-.51.35-.84.914-.33.563-.474 1.22.168.07.323.144.156.075.294.182l2.162-.785q.33-.125.665-.205.334-.081.68-.081 1.609 0 2.47 1.38.862 1.378.862 3.117 0 .905-.613 1.496a2.02 2.02 0 0 1-1.452.591q-.508 0-.97-.233a2 2 0 0 1-.769-.686 2.8 2.8 0 0 0-.921-.84 4.3 4.3 0 0 0-1.229-.473q-.06.148-.138.3a2.3 2.3 0 0 1-.187.302l.775 2.176q.125.33.21.622.087.291.086.617.006 1.617-1.281 2.52-1.288.903-3.213.903m1.203-7.23q.539 0 .904-.366a1.23 1.23 0 0 0 .364-.905q0-.539-.365-.904a1.23 1.23 0 0 0-.905-.364q-.539 0-.904.365a1.23 1.23 0 0 0-.364.905q0 .539.365.904.365.364.905.364m-.94-3.843a.7.7 0 0 1 .245-.096q.138-.03.254-.03a4.9 4.9 0 0 1 .656-1.854 4.25 4.25 0 0 1 1.31-1.38.56.56 0 0 0 .195-.213.66.66 0 0 0 .071-.312.53.53 0 0 0-.153-.384Q11.487 7 11.202 7q-.993 0-1.984.407t-1.01 1.426q0 .195.054.36l.105.317zm-4.238 4.365q.286 0 .687-.16l1.932-.694a.6.6 0 0 1-.104-.225 1 1 0 0 1-.036-.273 4.9 4.9 0 0 1-1.847-.656 4.3 4.3 0 0 1-1.372-1.31.54.54 0 0 0-.231-.195.7.7 0 0 0-.31-.071.52.52 0 0 0-.399.153Q3 12.513 3 12.798q0 1.136.453 2.066.453.928 1.37.928M8.798 21q1.085 0 2.04-.439.954-.438.954-1.423 0-.244-.16-.663l-.694-1.917a.7.7 0 0 1-.253.108q-.149.032-.245.032a5.3 5.3 0 0 1-.656 1.852 4 4 0 0 1-1.311 1.367.6.6 0 0 0-.2.243.57.57 0 0 0-.065.315q.015.231.168.378t.422.147m7.63-5.208a.6.6 0 0 0 .405-.143q.167-.143.167-.447 0-.993-.402-1.98-.402-.99-1.43-1.014-.25 0-.678.15l-1.917.704q.057.105.091.239t.034.259a5 5 0 0 1 1.86.656q.857.513 1.375 1.31a.59.59 0 0 0 .496.265m1.812-5.773q0-1.775-1.242-3.017T13.981 5.76q1.775 0 3.017-1.243Q18.24 3.275 18.24 1.5q0 1.775 1.243 3.017Q20.725 5.76 22.5 5.76q-1.775 0-3.017 1.242-1.243 1.242-1.243 3.017"/></svg>