<svg xmlns="http://www.w3.org/2000/svg" width="24" height="24" viewBox="0 0 24 24" fill='currentColor'><path d="M2.577 18.577v-2.385h14.462v2.385zm15.462 0v-2.385h1.192v2.385zm2.192 0v-2.385h1.192v2.385zM18.038 15v-1.3q0-.936-.575-1.478a1.94 1.94 0 0 0-1.375-.541h-1.55a2.92 2.92 0 0 1-2.153-.896q-.89-.897-.889-2.185 0-1.255.889-2.13.888-.873 2.154-.873v1.192q-.75 0-1.3.513-.55.514-.55 1.297t.55 1.336 1.3.554h1.55q1.284 0 2.213.866a2.8 2.8 0 0 1 .929 2.13V15zm2.193 0v-2.25q0-1.65-1.15-2.773t-2.85-1.123V7.662q.75 0 1.29-.54t.54-1.291q0-.77-.54-1.32t-1.29-.55V2.77q1.265 0 2.144.898t.879 2.163q0 .725-.285 1.279a3.4 3.4 0 0 1-.735.966q1.353.535 2.27 1.77.92 1.235.919 2.904V15z"/></svg>