<svg xmlns="http://www.w3.org/2000/svg" width="24" height="24" viewBox="0 0 24 24" fill='currentColor'><path d="M9.654 15.63h4.692v-1.19h-2.992l2.992-3.362V9.94H9.654v1.192h3.042l-3.042 3.411zM12 21.5a8.3 8.3 0 0 1-3.315-.67 8.6 8.6 0 0 1-2.697-1.818 8.6 8.6 0 0 1-1.819-2.697A8.3 8.3 0 0 1 3.5 13q0-1.77.67-3.315a8.6 8.6 0 0 1 1.819-2.696 8.6 8.6 0 0 1 2.696-1.82A8.3 8.3 0 0 1 12 4.5q1.77 0 3.315.67a8.6 8.6 0 0 1 2.697 1.819 8.6 8.6 0 0 1 1.819 2.696Q20.5 11.23 20.5 13t-.67 3.315a8.6 8.6 0 0 1-1.818 2.697 8.6 8.6 0 0 1-2.697 1.819A8.3 8.3 0 0 1 12 21.5M5.754 2.89l1.054 1.053-3.866 3.866L1.89 6.754zm12.492 0 3.866 3.865-1.054 1.054-3.866-3.866zM12 20q2.915 0 4.958-2.042Q19 15.916 19 13q0-2.915-2.042-4.958Q14.915 6 12 6T7.042 8.042Q5 10.085 5 13t2.042 4.958T12 20"/></svg>