<svg xmlns="http://www.w3.org/2000/svg" width="24" height="24" viewBox="0 0 24 24" fill='currentColor'><path d="M6.001 15.039a1 1 0 0 1-.727-.312 1 1 0 0 1-.312-.728q0-.437.312-.737.31-.3.728-.3a1 1 0 0 1 .737.3q.3.302.3.737 0 .416-.301.727A.98.98 0 0 1 6 15.04m0-8a1 1 0 0 1-.727-.312A1 1 0 0 1 4.961 6q0-.437.312-.737.31-.3.728-.3a1 1 0 0 1 .737.3q.3.302.3.737 0 .416-.301.727A.98.98 0 0 1 6 7.04m3 12a1 1 0 0 1-.727-.312A1 1 0 0 1 7.961 18q0-.437.312-.737.311-.3.728-.3a1 1 0 0 1 .736.3q.3.302.3.737 0 .416-.3.727A.98.98 0 0 1 9 19.04m0-8a1 1 0 0 1-.727-.312A1 1 0 0 1 7.961 10q0-.438.312-.737.311-.3.728-.3a1 1 0 0 1 .736.3q.3.302.3.737 0 .416-.3.727A.98.98 0 0 1 9 11.04m3 4a1 1 0 0 1-.727-.312 1 1 0 0 1-.312-.728q0-.437.312-.737t.728-.3a1 1 0 0 1 .736.3q.3.302.3.737 0 .416-.3.727a.98.98 0 0 1-.737.313m0-8a1 1 0 0 1-.727-.312A1 1 0 0 1 10.961 6q0-.437.312-.737t.728-.3a1 1 0 0 1 .736.3q.3.302.3.737 0 .416-.3.727A.98.98 0 0 1 12 7.04m3 12a1 1 0 0 1-.727-.312 1 1 0 0 1-.312-.728q0-.437.312-.737t.728-.3a1 1 0 0 1 .736.3q.3.302.3.737 0 .416-.3.727a.98.98 0 0 1-.737.313m0-8a1 1 0 0 1-.727-.312 1 1 0 0 1-.312-.728q0-.438.312-.737.312-.3.728-.3a1 1 0 0 1 .736.3q.3.302.3.737 0 .416-.3.727a.98.98 0 0 1-.737.313m3 4a1 1 0 0 1-.727-.312 1 1 0 0 1-.312-.728q0-.437.311-.737.313-.3.729-.3a1 1 0 0 1 .736.3q.3.302.3.737 0 .416-.3.727a.98.98 0 0 1-.737.313m0-8a1 1 0 0 1-.727-.312A1 1 0 0 1 16.961 6q0-.437.311-.737.313-.3.729-.3a1 1 0 0 1 .736.3q.3.302.3.737 0 .416-.3.727A.98.98 0 0 1 18 7.04"/></svg>