<svg xmlns="http://www.w3.org/2000/svg" width="24" height="24" viewBox="0 0 24 24" fill='currentColor'><path d="M15.848 7.913a1.45 1.45 0 0 1-1.062-.439 1.44 1.44 0 0 1-.44-1.06q0-.62.439-1.06.44-.44 1.06-.44t1.06.438.441 1.06q0 .62-.439 1.06a1.44 1.44 0 0 1-1.06.441M20.509 8q-.728 0-1.239-.51-.51-.511-.51-1.24 0-.73.51-1.24t1.24-.51q.728 0 1.239.51.51.51.51 1.24 0 .729-.51 1.24-.51.51-1.24.51m-3.008-3.885q-.52 0-.886-.364a1.2 1.2 0 0 1-.365-.885q0-.52.364-.886.364-.365.885-.365.52 0 .886.364.365.365.365.885t-.364.886a1.2 1.2 0 0 1-.885.365M18.5 21.5h-16V11.206l9.442-6.126 1.26 1.298-2.113 3.468H19.5v1.5H8.402l2.204-3.62L4 12.011V20h14.5zm-6-6.77v-1.5h9v1.5zm0 3.385v-1.5h8v1.5z"/></svg>