<svg xmlns="http://www.w3.org/2000/svg" width="24" height="24" viewBox="0 0 24 24" fill='currentColor'><path d="M12 20q1.875 0 3.188-1.312Q16.5 17.375 16.5 15.5t-1.312-3.187T12 11t-3.187 1.313Q7.499 13.625 7.5 15.5q0 1.875 1.313 3.188Q10.125 20 12 20m-2.906-9.732a5 5 0 0 1 1.043-.471q.554-.177 1.128-.247l-2.4-4.78h-2.5zm5.812 0L17.66 4.77h-2.526l-2.153 4.288.292.585q.436.099.843.246.407.146.79.379m-8.092 8.6a4 4 0 0 1-.293-.967 4 4 0 0 1-.03-1.083 5.8 5.8 0 0 1-.215-1.675q.015-.852.278-1.674 0-.375.13-.711.129-.336.36-.606-.703.206-1.176.747-.474.542-.531 1.265a2.52 2.52 0 0 0-.532 1.658q.025.936.672 1.709 0 .558.39.947.389.39.947.39m10.372 0a3.36 3.36 0 0 0 2.01-1.151Q20 16.78 20 15.5t-.805-2.216a3.36 3.36 0 0 0-2.009-1.151 1.4 1.4 0 0 0-.23.02q.492.715.768 1.566.276.853.276 1.781 0 .93-.276 1.781a6 6 0 0 1-.768 1.567 1.4 1.4 0 0 0 .23.02M12 21.5a5.9 5.9 0 0 1-1.864-.292 6 6 0 0 1-1.62-.821q-.244.069-.504.091a6 6 0 0 1-.537.022q-2.064 0-3.52-1.456T2.5 15.526q0-2.001 1.364-3.427 1.363-1.424 3.334-1.532.106 0 .202.014t.192.034L3.923 3.27h5.885L12 7.654l2.192-4.384h5.885l-3.635 7.284a1.6 1.6 0 0 1 .366-.038q1.98.123 3.336 1.548T21.5 15.5q0 2.09-1.456 3.544Q18.588 20.5 16.5 20.5q-.263 0-.525-.022a2.7 2.7 0 0 1-.506-.091 6.3 6.3 0 0 1-1.612.816A5.7 5.7 0 0 1 12 21.5m-1.706-3.48.643-2.102-1.706-1.22h2.102L12 12.481l.667 2.217h2.102l-1.706 1.22.643 2.102L12 16.725z"/></svg>