<svg xmlns="http://www.w3.org/2000/svg" width="24" height="24" viewBox="0 0 24 24" fill='currentColor'><path d="m6.096 20.452-3.644-3.644 3.644-3.644 1.044 1.044-1.85 1.85h13.42l-1.85-1.85 1.044-1.044 3.644 3.644-3.644 3.644-1.044-1.044 1.85-1.85H5.29l1.85 1.85zM2.385 10.75v-.373q0-.513.286-.932.287-.418.785-.64a6.5 6.5 0 0 1 1.29-.414q.668-.14 1.389-.14.72 0 1.389.14a6.5 6.5 0 0 1 1.29.415q.498.22.784.64.287.418.287.931v.373zm11.73 0v-.373q0-.513.287-.932.287-.418.785-.64a6.5 6.5 0 0 1 1.289-.414q.669-.14 1.39-.14t1.389.14a6.5 6.5 0 0 1 1.29.415q.497.22.784.64.286.418.286.931v.373zm-7.98-3.808q-.73 0-1.24-.51t-.51-1.24q0-.728.51-1.239.51-.51 1.24-.51.729 0 1.239.51t.51 1.24-.51 1.239-1.24.51m11.73 0q-.729 0-1.239-.51t-.51-1.24.51-1.239 1.24-.51q.727 0 1.239.51.51.51.51 1.24 0 .728-.51 1.239-.51.51-1.24.51"/></svg>