<svg xmlns="http://www.w3.org/2000/svg" width="24" height="24" viewBox="0 0 24 24" fill='currentColor'><path d="m2.606 21.48 1.798-8.99h15.183l1.797 8.99zM3.346 4V2.5h2.856V4zM4.45 19.98h6.8v-2.23H4.898zM6.067 9.278 4.998 8.232l2.02-2.019 1.069 1.044zm-.865 6.973h6.048v-2.26h-5.6zM12 7.01q-1.883 0-3.201-1.319t-1.318-3.2h1.5q0 1.257.88 2.138.882.88 2.14.88a2.9 2.9 0 0 0 2.139-.88q.88-.88.88-2.139h1.5q0 1.882-1.319 3.201Q13.882 7.009 12 7.009m-.75 4.086V8.24h1.5v2.856zm1.5 8.885h6.79l-.448-2.231H12.75zm0-3.731h6.038l-.448-2.26h-5.59zm5.202-6.964-2.014-2.029 1.045-1.044 2.038 2.004zM17.798 4V2.5h2.856V4z"/></svg>