<svg xmlns="http://www.w3.org/2000/svg" width="24" height="24" viewBox="0 0 24 24" fill='currentColor'><path d="M12.173 21.48a12.7 12.7 0 0 1-3.361-.9 9.4 9.4 0 0 1-3-2.01Q4.48 17.256 3.63 15.244q-.85-2.01-.918-4.84l-.02-.904.885.02q1.16.027 2.553.425a9.5 9.5 0 0 1 2.482 1.086q.213-2.016 1.146-4.187.933-2.17 2.242-3.71 1.31 1.539 2.242 3.72.933 2.181 1.146 4.196 1.06-.66 2.434-1.08 1.374-.423 2.582-.45l.904-.02-.02.923q-.037 2.56-.76 4.47-.72 1.91-1.945 3.244a9.8 9.8 0 0 1-2.864 2.15 14 14 0 0 1-3.546 1.194m-.03-1.53q-.276-4.15-2.463-6.275T4.242 11.05q.276 4.275 2.538 6.375t5.362 2.525M12 14.254q.355-.588.889-1.224a9 9 0 0 1 1.061-1.08q-.03-1.483-.543-3.095A15 15 0 0 0 12 5.739a15 15 0 0 0-1.407 3.116q-.512 1.612-.543 3.095.528.444 1.064 1.08A9.3 9.3 0 0 1 12 14.254m1.642 5.304q1.05-.348 2.089-.962a7.6 7.6 0 0 0 1.896-1.615q.857-1.002 1.437-2.458.578-1.455.694-3.473-2.39.35-4.221 1.634-1.832 1.285-2.726 3.208.3.801.504 1.683.202.883.327 1.983"/></svg>