<svg xmlns="http://www.w3.org/2000/svg" width="24" height="24" viewBox="0 0 24 24" fill='currentColor'><path d="m18.664 13.481 1.053-1.054a7.5 7.5 0 0 1-1.586-2.325 6.8 6.8 0 0 1-.567-2.75q0-1.446.567-2.745a7.5 7.5 0 0 1 1.586-2.318l-1.053-1.085a9 9 0 0 0-1.914 2.82 8.3 8.3 0 0 0-.686 3.326q0 1.734.686 3.319a9 9 0 0 0 1.913 2.812m3.011-3.042 1.054-1.054a3.1 3.1 0 0 1-.64-.926 2.65 2.65 0 0 1-.237-1.109q0-.585.237-1.108t.64-.926l-1.054-1.07a4.6 4.6 0 0 0-.976 1.419 4.1 4.1 0 0 0-.347 1.67q0 .881.347 1.687.347.807.976 1.417M9.855 12.5q-1.443 0-2.471-1.028T6.356 9t1.028-2.47T9.856 5.5q1.443 0 2.472 1.029T13.356 9t-1.028 2.472Q11.299 12.5 9.856 12.5m-7.5 7.616v-2.223a2.52 2.52 0 0 1 1.466-2.323q1.245-.622 2.789-1.038a12.4 12.4 0 0 1 3.246-.416q1.704 0 3.246.416t2.788 1.038q.693.336 1.08.95.386.614.386 1.373v2.223zm1.5-1.5h12v-.723a.94.94 0 0 0-.185-.587 1.45 1.45 0 0 0-.468-.398q-.92-.47-2.332-.88a10.7 10.7 0 0 0-3.014-.412q-1.602 0-3.015.411-1.412.412-2.331.881a1.45 1.45 0 0 0-.469.398.94.94 0 0 0-.185.587zm6-7.616q.826 0 1.413-.587.588-.588.588-1.413t-.588-1.412A1.93 1.93 0 0 0 9.856 7q-.825 0-1.413.588A1.93 1.93 0 0 0 7.856 9q0 .825.587 1.413.588.587 1.413.587"/></svg>