<svg xmlns="http://www.w3.org/2000/svg" width="24" height="24" viewBox="0 0 24 24" fill='currentColor'><path d="M7.077 13.77a.85.85 0 0 0 .626-.26.85.85 0 0 0 .258-.626.85.85 0 0 0-.258-.625.85.85 0 0 0-.626-.259.85.85 0 0 0-.626.259.85.85 0 0 0-.259.625q0 .367.259.627a.85.85 0 0 0 .626.258m0-2.886a.85.85 0 0 0 .626-.258.85.85 0 0 0 .258-.626.85.85 0 0 0-.258-.626.85.85 0 0 0-.626-.258.85.85 0 0 0-.626.258.85.85 0 0 0-.259.626q0 .368.259.626a.85.85 0 0 0 .626.258m0-2.884a.85.85 0 0 0 .626-.259.85.85 0 0 0 .258-.625.85.85 0 0 0-.258-.626.85.85 0 0 0-.626-.26.85.85 0 0 0-.626.26.85.85 0 0 0-.259.625q0 .368.259.626a.85.85 0 0 0 .626.26m3.039 5.634h4.634v-1.5h-4.634zm0-2.884h7.634v-1.5h-7.634zm0-2.885h7.634v-1.5h-7.634zM2.5 21.038V2.5h19v15H6.039zM5.4 16H20V4H4v13.385z"/></svg>