<svg xmlns="http://www.w3.org/2000/svg" width="24" height="24" viewBox="0 0 24 24" fill='currentColor'><path d="M18.5 21.5h-13v-19h13zM17 20V4H7v16zM12.002 8.808q.746 0 1.276-.532.53-.531.53-1.278 0-.746-.532-1.276a1.75 1.75 0 0 0-1.278-.53q-.746 0-1.276.532-.53.531-.53 1.278 0 .746.532 1.276.531.53 1.278.53M12 18.73q1.545 0 2.637-1.094A3.6 3.6 0 0 0 15.731 15q0-1.545-1.094-2.637A3.6 3.6 0 0 0 12 11.269q-1.545 0-2.637 1.094A3.6 3.6 0 0 0 8.269 15q0 1.545 1.094 2.637A3.6 3.6 0 0 0 12 18.732m0-1.5a2.15 2.15 0 0 1-1.576-.656A2.15 2.15 0 0 1 9.769 15q0-.92.656-1.575A2.15 2.15 0 0 1 12 12.769q.92 0 1.575.656.654.655.655 1.576 0 .92-.656 1.575a2.15 2.15 0 0 1-1.576.655"/></svg>