<svg xmlns="http://www.w3.org/2000/svg" width="24" height="24" viewBox="0 0 24 24" fill='currentColor'><path d="M10.604 15.346q.532.533 1.372.506t1.232-.606l5.426-7.861-7.88 5.407q-.588.393-.636 1.207-.047.814.486 1.347M12 4.5q1.427 0 2.674.374 1.247.375 2.409 1.132l-1.41.911a8 8 0 0 0-1.77-.685A7.7 7.7 0 0 0 12 6Q8.675 6 6.338 8.338 4 10.675 4 14q0 1.05.287 2.075Q4.576 17.1 5.1 18h13.8a7.3 7.3 0 0 0 .838-1.975A8.5 8.5 0 0 0 20 13.9q0-.9-.222-1.822a7 7 0 0 0-.686-1.751l.912-1.41q.74 1.215 1.11 2.428.37 1.215.386 2.524.015 1.357-.306 2.567a10.2 10.2 0 0 1-.967 2.364 1.4 1.4 0 0 1-.558.512 1.64 1.64 0 0 1-.769.188H5.1a1.56 1.56 0 0 1-.755-.192 1.5 1.5 0 0 1-.572-.546 10.2 10.2 0 0 1-.923-2.181A9 9 0 0 1 2.5 14q0-1.959.744-3.684a9.52 9.52 0 0 1 5.055-5.067A9.3 9.3 0 0 1 12 4.5"/></svg>