<svg xmlns="http://www.w3.org/2000/svg" width="24" height="24" viewBox="0 0 24 24" fill='currentColor'><path d="M12 10.5q-1.444 0-2.472-1.028T8.5 7t1.028-2.472T12 3.5t2.472 1.028T15.5 7t-1.028 2.472T12 10.5M12 9q.825 0 1.412-.588Q14 7.826 14 7q0-.824-.588-1.412A1.93 1.93 0 0 0 12 5q-.825 0-1.412.588A1.93 1.93 0 0 0 10 7q0 .824.588 1.412Q11.175 9 12 9M7 20.5q-1.444 0-2.472-1.028T3.5 17t1.028-2.472T7 13.5t2.472 1.028T10.5 17t-1.028 2.472T7 20.5M7 19q.824 0 1.412-.587Q9 17.825 9 17t-.588-1.412A1.93 1.93 0 0 0 7 15q-.824 0-1.412.588A1.93 1.93 0 0 0 5 17q0 .824.588 1.413Q6.175 19 7 19m10 1.5q-1.443 0-2.472-1.028T13.5 17t1.028-2.472Q15.557 13.5 17 13.5t2.472 1.028Q20.5 15.557 20.5 17t-1.028 2.472Q18.443 20.5 17 20.5m0-1.5q.824 0 1.413-.587Q19 17.825 19 17t-.587-1.412A1.93 1.93 0 0 0 17 15q-.825 0-1.412.588A1.93 1.93 0 0 0 15 17q0 .824.588 1.413Q16.175 19 17 19"/></svg>