<svg xmlns="http://www.w3.org/2000/svg" width="24" height="24" viewBox="0 0 24 24" fill='currentColor'><path d="m2.192 18.5 1.835-13h15.946l1.835 13H18.61l-3-3H8.39l-3 3zM4.781 17l3-3h8.454l3 3h.865L18.65 7H5.35L3.916 17zM17 12.904a.87.87 0 0 0 .64-.264.87.87 0 0 0 .264-.64.87.87 0 0 0-.264-.64.87.87 0 0 0-.64-.264.87.87 0 0 0-.64.264.87.87 0 0 0-.264.64q0 .377.264.64.263.264.64.264m-2-3a.87.87 0 0 0 .64-.264.87.87 0 0 0 .264-.64.87.87 0 0 0-.264-.64.87.87 0 0 0-.64-.264.87.87 0 0 0-.64.264.87.87 0 0 0-.264.64q0 .377.264.64.263.264.64.264m-7.096 2.942h1.192v-1.75h1.75V9.904h-1.75v-1.75H7.904v1.75h-1.75v1.192h1.75z"/></svg>