<svg xmlns="http://www.w3.org/2000/svg" width="24" height="24" viewBox="0 0 24 24" fill='currentColor'><path d="M7.99 19h7.318V9H13.25q-.777 0-1.26.365-.484.363-1.148 1.087-.673.742-1.345 1.267a3.9 3.9 0 0 1-1.506.723zm-1.5 1.5v-8.083a4.05 4.05 0 0 1-2.145-1.294Q3.5 10.15 3.5 8.75q0-1.248.729-2.22a3.83 3.83 0 0 1 1.929-1.363 4.73 4.73 0 0 1 1.626-1.916q1.07-.735 2.466-.735a4.4 4.4 0 0 1 1.56.28q.744.282 1.407.839.23-.07.442-.107.21-.037.466-.037 1.526 0 2.58 1.112a3.7 3.7 0 0 1 1.055 2.638q0 .51-.1.944-.099.432-.306.815H20.5v9.414h-3.692V20.5zM5 8.75q0 .93.66 1.59t1.59.66q.848 0 1.435-.515.585-.515 1.186-1.166a9.5 9.5 0 0 1 1.418-1.27q.754-.549 1.97-.549h3q.059-1.046-.572-1.778-.631-.73-1.562-.731-.49 0-.838.114a3 3 0 0 0-.454.172l-.67-.563a4 4 0 0 0-.78-.472q-.475-.226-1.133-.226-.867 0-1.588.458-.72.459-1.108 1.26l-.312.655-.703.236a2.17 2.17 0 0 0-1.12.809A2.2 2.2 0 0 0 5 8.75m11.808 8.164H19V10.5h-2.192z"/></svg>