<svg xmlns="http://www.w3.org/2000/svg" width="24" height="24" viewBox="0 0 24 24" fill='currentColor'><path d="m9.396 18.912-4.308-4.308q-.113.969-.085 2.143T5.2 18.75q.633.195 1.944.24 1.312.045 2.252-.078m1.804-.304q1.485-.287 2.765-.92a8.2 8.2 0 0 0 2.185-1.538q.87-.87 1.503-2.133t.955-2.767L12.75 5.392q-1.425.303-2.685.953-1.261.651-2.136 1.526-.876.876-1.526 2.143-.65 1.27-1.01 2.786zm-1.3-3.454L8.846 14.1 14.1 8.846 15.154 9.9zm9.012-5.708q.129-1.032.1-2.217-.027-1.185-.212-1.979-.633-.21-1.944-.255-1.312-.045-2.252.093zM7.837 20.5q-1.32 0-2.437-.184-1.117-.183-1.344-.41-.217-.242-.387-1.337T3.5 16.198q0-2.888.867-5.344.865-2.456 2.449-4.038 1.582-1.583 4.066-2.45 2.484-.866 5.397-.866 1.305 0 2.343.174t1.274.401q.256.252.43 1.332t.174 2.407q0 2.896-.861 5.356-.862 2.46-2.435 4.034-1.559 1.557-4.032 2.427-2.474.87-5.336.869"/></svg>