<svg xmlns="http://www.w3.org/2000/svg" width="24" height="24" viewBox="0 0 24 24" fill='currentColor'><path d="M5.754 17.012a6.2 6.2 0 0 0 1.84-2.212A6.2 6.2 0 0 0 8.25 12q0-1.483-.657-2.8a6.2 6.2 0 0 0-1.84-2.211 8.2 8.2 0 0 0-1.302 2.356A7.9 7.9 0 0 0 4 12q0 1.377.451 2.655.45 1.277 1.303 2.357M12 20q1.432 0 2.764-.48a7.5 7.5 0 0 0 2.409-1.424 7.9 7.9 0 0 1-2.155-2.72A7.66 7.66 0 0 1 14.25 12a7.66 7.66 0 0 1 .768-3.376 7.9 7.9 0 0 1 2.155-2.72 7.5 7.5 0 0 0-2.41-1.423A8.1 8.1 0 0 0 12 4q-1.432 0-2.764.48-1.33.482-2.409 1.424a7.9 7.9 0 0 1 2.155 2.72A7.66 7.66 0 0 1 9.75 12a7.66 7.66 0 0 1-.768 3.376 7.9 7.9 0 0 1-2.155 2.72 7.5 7.5 0 0 0 2.41 1.423Q10.567 20 12 20m6.246-2.988a8.2 8.2 0 0 0 1.303-2.357q.45-1.278.451-2.655 0-1.377-.451-2.655a8.2 8.2 0 0 0-1.303-2.357 6.2 6.2 0 0 0-1.84 2.212 6.2 6.2 0 0 0-.656 2.8q0 1.483.657 2.8a6.2 6.2 0 0 0 1.84 2.212M12.002 21.5a9.3 9.3 0 0 1-3.706-.748 9.6 9.6 0 0 1-3.016-2.03 9.6 9.6 0 0 1-2.032-3.016 9.25 9.25 0 0 1-.748-3.704q0-1.972.748-3.706a9.6 9.6 0 0 1 2.03-3.016 9.6 9.6 0 0 1 3.016-2.032 9.25 9.25 0 0 1 3.704-.748q1.972 0 3.706.748a9.6 9.6 0 0 1 3.017 2.03 9.6 9.6 0 0 1 2.03 3.016 9.25 9.25 0 0 1 .749 3.704q0 1.972-.748 3.706a9.6 9.6 0 0 1-2.03 3.017 9.6 9.6 0 0 1-3.016 2.03 9.25 9.25 0 0 1-3.704.749"/></svg>