<svg xmlns="http://www.w3.org/2000/svg" width="24" height="24" viewBox="0 0 24 24" fill='currentColor'><path d="M7.65 21q-1.338 0-2.397-.201t-1.457-.614q-.382-.399-.59-1.468A13 13 0 0 1 3 16.29q0-2.799.974-5.364.975-2.565 2.672-4.279 1.698-1.698 4.279-2.672T16.35 3q1.338 0 2.397.201t1.457.615q.382.397.59 1.467Q21 6.353 21 7.71q0 2.799-.974 5.364t-2.672 4.279q-1.698 1.698-4.279 2.672T7.65 21m-3.1-4.342a22 22 0 0 1 2.02-3.965 21.5 21.5 0 0 1 2.715-3.408 20.2 20.2 0 0 1 3.373-2.706 22.6 22.6 0 0 1 3.969-2.029q-2.535-.06-4.967.813-2.433.87-3.93 2.368-1.532 1.502-2.394 3.926a13.6 13.6 0 0 0-.786 5m2.842 2.792q2.505.06 4.943-.812t3.934-2.369q1.533-1.502 2.395-3.935.861-2.434.786-5.011a23 23 0 0 1-2.016 3.979 20.4 20.4 0 0 1-2.719 3.413 20.4 20.4 0 0 1-3.377 2.716 22.3 22.3 0 0 1-3.946 2.019m-1.98-.842q2.202-.675 4.392-2 2.19-1.326 3.827-2.977a19.8 19.8 0 0 0 3.004-3.859q1.325-2.194 1.953-4.38-2.202.675-4.392 2-2.19 1.326-3.827 2.977a19.8 19.8 0 0 0-3.004 3.859q-1.325 2.194-1.953 4.38"/></svg>