<svg xmlns="http://www.w3.org/2000/svg" width="24" height="24" viewBox="0 0 24 24" fill='currentColor'><path d="M8.904 6.038h1.923V4.115H8.904zm3.846 0V4.115h1.923v1.923zM8.904 13.73v-1.923h1.923v1.923zm7.692-3.846V7.961h1.923v1.923zm0 3.846v-1.923h1.923v1.923zm-3.846 0v-1.923h1.923v1.923zm3.846-7.692V4.115h1.923v1.923zm-5.769 1.923V6.038h1.923v1.923zm-5.346 11.77V4.115h1.5v1.923h1.923v1.923H6.98v1.923h1.923v1.923H6.98v7.923zm9.192-7.924V9.885h1.923v1.923zm-3.846 0V9.885h1.923v1.923zM8.904 9.885V7.961h1.923v1.923zm3.846 0V7.961h1.923v1.923zm1.923-1.923V6.038h1.923v1.923z"/></svg>