<svg xmlns="http://www.w3.org/2000/svg" width="24" height="24" viewBox="0 0 24 24" fill='currentColor'><path d="M4.03 11.25h3.16a6.2 6.2 0 0 0-.595-2.03 6.3 6.3 0 0 0-1.21-1.7 8 8 0 0 0-.906 1.748 7.6 7.6 0 0 0-.447 1.982m12.781 0h3.158a7.5 7.5 0 0 0-.447-1.967 8.2 8.2 0 0 0-.907-1.744 6 6 0 0 0-1.224 1.696 6.2 6.2 0 0 0-.58 2.015M5.385 16.462a6.6 6.6 0 0 0 1.21-1.697 6 6 0 0 0 .594-2.015H4.03a7.9 7.9 0 0 0 1.354 3.712m13.23 0q.556-.812.907-1.745a7.5 7.5 0 0 0 .447-1.967H16.81q.122 1.065.58 2.015a6 6 0 0 0 1.224 1.697M8.72 11.25h2.531V4.03a8.2 8.2 0 0 0-2.708.753q-1.257.6-2.215 1.59a8.4 8.4 0 0 1 1.617 2.215q.624 1.237.775 2.662m4.031 0h2.53a7.83 7.83 0 0 1 2.393-4.877 7.6 7.6 0 0 0-2.215-1.59 8.2 8.2 0 0 0-2.708-.752zm-1.5 8.72v-7.22H8.72a7.7 7.7 0 0 1-.771 2.671 8 8 0 0 1-1.622 2.187 7.8 7.8 0 0 0 2.206 1.6q1.248.61 2.717.761m1.5 0a8.2 8.2 0 0 0 2.708-.753q1.257-.6 2.215-1.59a7.9 7.9 0 0 1-1.622-2.196 7.8 7.8 0 0 1-.77-2.681H12.75zM12 21.5a9.2 9.2 0 0 1-3.703-.749 9.6 9.6 0 0 1-3.016-2.032 9.6 9.6 0 0 1-2.032-3.016A9.2 9.2 0 0 1 2.5 12q0-1.97.749-3.703a9.6 9.6 0 0 1 2.032-3.016 9.6 9.6 0 0 1 3.016-2.032A9.2 9.2 0 0 1 12 2.5q1.97 0 3.703.749a9.6 9.6 0 0 1 3.016 2.032 9.6 9.6 0 0 1 2.032 3.016q.75 1.734.749 3.703 0 1.97-.749 3.703a9.6 9.6 0 0 1-2.032 3.016 9.6 9.6 0 0 1-3.016 2.032q-1.734.75-3.703.749"/></svg>