<svg xmlns="http://www.w3.org/2000/svg" width="24" height="24" viewBox="0 0 24 24" fill='currentColor'><path d="M12 11.884a.85.85 0 0 1-.626-.258.85.85 0 0 1-.258-.626q0-.368.258-.626a.85.85 0 0 1 .626-.259q.368 0 .626.259a.85.85 0 0 1 .258.626.85.85 0 0 1-.258.626.85.85 0 0 1-.626.258m0-4a.85.85 0 0 1-.626-.258.85.85 0 0 1-.258-.626q0-.368.258-.626A.85.85 0 0 1 12 6.115q.368 0 .626.259a.85.85 0 0 1 .258.626.85.85 0 0 1-.258.626.85.85 0 0 1-.626.258m0-4a.85.85 0 0 1-.626-.258.85.85 0 0 1-.258-.626q0-.368.258-.626A.85.85 0 0 1 12 2.115q.368 0 .626.259a.85.85 0 0 1 .258.626.85.85 0 0 1-.258.626.85.85 0 0 1-.626.258m3 10a.85.85 0 0 1-.626-.258.85.85 0 0 1-.258-.626q0-.368.258-.626a.85.85 0 0 1 .626-.259q.368 0 .626.259a.85.85 0 0 1 .258.626.85.85 0 0 1-.258.626.85.85 0 0 1-.626.258m2.825-2.85a.85.85 0 0 1-.626-.258.85.85 0 0 1-.259-.626q0-.368.259-.626a.85.85 0 0 1 .626-.259q.368 0 .626.259a.85.85 0 0 1 .258.626.85.85 0 0 1-.258.626.85.85 0 0 1-.626.258m2.825-2.8a.85.85 0 0 1-.626-.258.85.85 0 0 1-.259-.626q0-.368.259-.626a.85.85 0 0 1 .626-.259q.368 0 .626.259a.85.85 0 0 1 .259.626.85.85 0 0 1-.259.626.85.85 0 0 1-.626.258M9 13.884a.85.85 0 0 1-.626-.258.85.85 0 0 1-.258-.626q0-.368.258-.626A.85.85 0 0 1 9 12.115q.368 0 .626.259a.85.85 0 0 1 .259.626.85.85 0 0 1-.259.626.85.85 0 0 1-.626.258m-2.825-2.85a.85.85 0 0 1-.626-.258.85.85 0 0 1-.258-.626q0-.368.258-.626a.85.85 0 0 1 .626-.259q.368 0 .626.259a.85.85 0 0 1 .259.626.85.85 0 0 1-.259.626.85.85 0 0 1-.626.258m-2.825-2.8a.85.85 0 0 1-.626-.258.85.85 0 0 1-.258-.626q0-.368.258-.626a.85.85 0 0 1 .626-.259q.368 0 .626.259a.85.85 0 0 1 .259.626.85.85 0 0 1-.259.626.85.85 0 0 1-.626.258m7.9 13.516v-4h-4v-1.5h9.5v1.5h-4v4z"/></svg>