<svg xmlns="http://www.w3.org/2000/svg" width="24" height="24" viewBox="0 0 24 24" fill='currentColor'><path d="M4.725 19.75a3.26 3.26 0 0 1-2.404-.998q-.99-.998-1.021-2.431 0-.211.02-.417t.07-.421l2.1-8.4a3.7 3.7 0 0 1 1.337-2.049 3.64 3.64 0 0 1 2.298-.784h9.75q1.29 0 2.298.784a3.7 3.7 0 0 1 1.337 2.049l2.1 8.4q.05.215.082.433.033.219.033.43 0 1.432-1.01 2.419-1.01.985-2.44.985a3.4 3.4 0 0 1-1.815-.516 3.34 3.34 0 0 1-1.264-1.4l-.71-1.459a1 1 0 0 0-.461-.469 1.4 1.4 0 0 0-.65-.156h-4.75q-.34 0-.649.154a1 1 0 0 0-.463.471l-.71 1.46q-.42.893-1.26 1.403a3.43 3.43 0 0 1-1.818.512m.077-1.5q.54 0 .99-.288.45-.29.68-.771l.7-1.435a2.6 2.6 0 0 1 1.012-1.107q.668-.399 1.441-.399h4.75q.78 0 1.443.416.664.417 1.036 1.1l.7 1.425q.229.482.679.77.45.29.996.289.806 0 1.38-.54.575-.538.591-1.335 0-.014-.06-.533l-2.1-8.375a2.28 2.28 0 0 0-.791-1.234 2.12 2.12 0 0 0-1.374-.483h-9.75q-.787 0-1.392.483-.604.482-.774 1.234l-2.1 8.375a2.5 2.5 0 0 0-.059.508q0 .805.59 1.353.588.547 1.412.547m8.698-7.366a.85.85 0 0 0 .626-.258.85.85 0 0 0 .258-.626.85.85 0 0 0-.258-.626.85.85 0 0 0-.626-.258.85.85 0 0 0-.626.258.85.85 0 0 0-.258.626q0 .368.258.626a.85.85 0 0 0 .626.258m2-2a.85.85 0 0 0 .626-.258.85.85 0 0 0 .258-.626.85.85 0 0 0-.258-.626.85.85 0 0 0-.626-.258.85.85 0 0 0-.626.258.85.85 0 0 0-.258.626q0 .368.258.626a.85.85 0 0 0 .626.258m0 4a.85.85 0 0 0 .626-.258.85.85 0 0 0 .258-.626.85.85 0 0 0-.258-.626.85.85 0 0 0-.626-.258.85.85 0 0 0-.626.258.85.85 0 0 0-.258.626q0 .368.258.626a.85.85 0 0 0 .626.258m2-2a.85.85 0 0 0 .626-.258.85.85 0 0 0 .258-.626.85.85 0 0 0-.258-.626.85.85 0 0 0-.626-.258.85.85 0 0 0-.626.258.85.85 0 0 0-.258.626q0 .368.258.626a.85.85 0 0 0 .626.258m-9 1.462a.58.58 0 0 0 .596-.596v-1.154h1.154a.58.58 0 0 0 .596-.595.58.58 0 0 0-.596-.597H9.096V8.25a.58.58 0 0 0-.596-.596.58.58 0 0 0-.596.596v1.154H6.75a.58.58 0 0 0-.596.595.58.58 0 0 0 .596.597h1.154v1.154a.58.58 0 0 0 .595.596"/></svg>