<svg xmlns="http://www.w3.org/2000/svg" width="24" height="24" viewBox="0 0 24 24" fill='currentColor'><path d="M3.73 7V3.308l3.693 1.846zm13.847 0V3.308l3.692 1.846zm-6.462-.923V2.385l3.693 1.846zm-.365 15.567a27 27 0 0 1-3.33-.303q-1.518-.243-2.625-.61-1.107-.366-1.73-.838-.623-.471-.623-.99V10.29q0-.577.735-1.072t2.017-.868 3.031-.592A31 31 0 0 1 12 7.539q2.027 0 3.775.218t3.03.592q1.284.375 2.018.868.735.495.735 1.072v8.615q0 .517-.623.99-.623.47-1.73.838-1.107.366-2.624.61a27 27 0 0 1-3.331.302v-3.99h-2.5zM12 11.54q2.454 0 4.418-.341 1.965-.34 3.024-.85-.164-.327-2.145-.818T12 9.039q-3.315 0-5.297.49-1.981.492-2.145.819 1.059.51 2.913.85t4.529.34m-2.75 8.494v-3.88h5.5v3.88q2.182-.191 3.54-.607 1.356-.416 1.768-.784v-6.919q-1.51.656-3.556.986t-4.502.33-4.502-.33-3.556-.986v6.92q.412.366 1.711.783 1.299.416 3.597.607"/></svg>