<svg xmlns="http://www.w3.org/2000/svg" width="24" height="24" viewBox="0 0 24 24" fill='currentColor'><path d="M21.098 18.354 18.454 15.7l1.044-1.044 2.654 2.644zM17.7 6.537l-1.044-1.045L19.3 2.848l1.054 1.044zm-11.4.01L3.656 3.891 4.7 2.848l2.654 2.644zM2.892 18.353 1.848 17.3l2.644-2.644L5.546 15.7zm5.516-1L12 15.194l3.602 2.194-.94-4.09 3.16-2.727-4.16-.373L12 6.336l-1.652 3.837-4.16.364 3.16 2.761zM6.133 20.5l1.548-6.65L2.5 9.366l6.835-.587L12 2.5l2.675 6.279 6.834.587-5.18 4.484 1.548 6.65L12 16.967z"/></svg>