<svg xmlns="http://www.w3.org/2000/svg" width="24" height="24" viewBox="0 0 24 24" fill='currentColor'><path d="M12.003 15.75q1.469 0 3.173-.498t4.691-1.804q.08-.342.106-.677.027-.334.027-.696a.56.56 0 0 0-.212-.45.51.51 0 0 0-.488-.1q-.35.124-.775.262t-1.075.413q-1.725.724-2.95 1.013-1.225.287-2.5.287-1.3 0-2.55-.3T6.4 12.175a20 20 0 0 0-1-.4l-.7-.25a.45.45 0 0 0-.487.088.6.6 0 0 0-.213.462q0 .362.027.701t.106.682q2.496 1.17 4.449 1.732 1.953.56 3.421.56m-.007 3.75q2.46 0 4.347-1.126t2.855-2.995q-2.277.973-3.985 1.422-1.71.45-3.213.449-1.479 0-3.292-.462-1.814-.461-3.921-1.384.942 1.878 2.832 2.987t4.377 1.109M12 10a3.6 3.6 0 0 1-2.652-1.098A3.6 3.6 0 0 1 8.25 6.25q0-1.554 1.098-2.652A3.6 3.6 0 0 1 12 2.5q1.554 0 2.652 1.098A3.6 3.6 0 0 1 15.75 6.25q0 1.554-1.098 2.652A3.6 3.6 0 0 1 12 10m.002-1.5q.93 0 1.588-.662.66-.66.66-1.59t-.662-1.588a2.17 2.17 0 0 0-1.59-.66q-.93 0-1.588.662-.66.66-.66 1.59t.662 1.588q.66.66 1.59.66M11.999 21q-4.184 0-6.841-2.48Q2.5 16.037 2.5 12.074q0-1.05.83-1.676.832-.626 1.816-.303.392.123.82.284.429.16 1.017.406 1.666.68 2.758.947Q10.83 12 12 12q1.123 0 2.207-.255t2.676-.924l1.143-.445q.438-.17.843-.295.986-.292 1.808.338t.823 1.656q0 1.88-.741 3.5a9 9 0 0 1-2.024 2.829 9.5 9.5 0 0 1-3.017 1.902A9.9 9.9 0 0 1 12 21"/></svg>