<svg xmlns="http://www.w3.org/2000/svg" width="24" height="24" viewBox="0 0 24 24" fill='currentColor'><path d="M17.615 11Q15.7 11 14.35 9.65T13 6.385t1.35-3.265 3.265-1.35 3.266 1.35 1.35 3.265-1.35 3.265T17.615 11M4.331 19.67a2 2 0 0 1-.41-.583 1.64 1.64 0 0 1-.152-.702V5.462q0-.761.544-1.304a1.78 1.78 0 0 1 1.306-.542h6.197q-.331.622-.497 1.324t-.165 1.442q0 1.362.511 2.529a6.6 6.6 0 0 0 1.385 2.04zm7.746.561v-4.996q0-.965.594-1.734a2.63 2.63 0 0 1 1.533-.985q.817-.181 1.67-.271.854-.09 1.741-.091.74 0 1.421.053.681.052 1.348.178v6q0 .76-.542 1.304a1.78 1.78 0 0 1-1.303.542z"/></svg>