<svg xmlns="http://www.w3.org/2000/svg" width="24" height="24" viewBox="0 0 24 24" fill='currentColor'><path d="M12.15 19.692q-1.766 0-3.125-1-1.36-1-1.99-2.738l1.604-.69q.417 1.17 1.313 1.927.896.755 2.229.755 1.165 0 2.15-.586t.985-1.86q0-.565-.18-.979a2.8 2.8 0 0 0-.509-.771h2.05q.183.33.284.765t.1.985q0 2.005-1.46 3.099-1.46 1.093-3.451 1.093m-9.9-7.942v-1.5h19.5v1.5zm9.8-7.554q1.496 0 2.594.693 1.098.692 1.773 2.126l-1.594.716q-.302-.705-.972-1.247t-1.77-.542q-1.285 0-2.056.66t-.74 1.648H7.538q-.055-1.629 1.19-2.841t3.322-1.213"/></svg>