<svg xmlns="http://www.w3.org/2000/svg" width="24" height="24" viewBox="0 0 24 24" fill='currentColor'><path d="M9.001 21.51a2.65 2.65 0 0 1-1.948-.802 2.65 2.65 0 0 1-.803-1.947q0-1.146.802-1.949a2.65 2.65 0 0 1 1.947-.803q1.145 0 1.948.802.803.803.803 1.947t-.802 1.949a2.65 2.65 0 0 1-1.947.802m4.368-3.476a4.2 4.2 0 0 0-.871-2.011 4 4 0 0 0-1.732-1.28l2.948-2.945H6.15a1.57 1.57 0 0 1-1.177-.49 1.67 1.67 0 0 1-.473-1.205q0-.445.229-.82.228-.375.596-.622l11.573-7.063a.96.96 0 0 1 .767-.109q.405.109.622.468.216.358.113.754-.105.398-.442.614L8.528 9.25h9.322q.695 0 1.172.478.478.477.478 1.172 0 .405-.093.797a1.4 1.4 0 0 1-.38.68z"/></svg>