<svg xmlns="http://www.w3.org/2000/svg" width="24" height="24" viewBox="0 0 24 24" fill='currentColor'><path d="M7.789 11.923v-1.5h-1.5v1.5zm3.67 0a5 5 0 0 1 .499-.8q.28-.371.615-.7H9.789v1.5zm-.782 3.788a2 2 0 0 1-.038-.304 6 6 0 0 1-.008-.32q0-.237.008-.446a3 3 0 0 1 .048-.43H6.289v1.5zm1.67 3.789H2.5v-15h19v5.65a5.3 5.3 0 0 0-.699-.582A5 5 0 0 0 20 9.114V6H4v12h7.306q.207.43.461.801.255.37.58.699m5.586 0H16.51l-.224-1.327a3.5 3.5 0 0 1-.673-.277 3 3 0 0 1-.6-.429l-1.267.44-.711-1.209 1.034-.846a2.74 2.74 0 0 1 0-1.53l-1.025-.866.712-1.21 1.258.45a2.7 2.7 0 0 1 .595-.424q.32-.166.678-.272l.223-1.327h1.423L18.146 12q.358.105.686.287.327.182.587.44l1.258-.48.712 1.24-1.026.865a2.7 2.7 0 0 1 0 1.5l1.035.846-.712 1.21-1.267-.44q-.285.257-.6.428a3.5 3.5 0 0 1-.673.277zm-.721-2.51q.786 0 1.345-.558.559-.56.559-1.345 0-.787-.56-1.346a1.83 1.83 0 0 0-1.344-.558q-.787 0-1.346.558-.558.56-.558 1.345 0 .787.558 1.346.559.559 1.346.559"/></svg>