<svg xmlns="http://www.w3.org/2000/svg" width="24" height="24" viewBox="0 0 24 24" fill='currentColor'><path d="M16.942 14.308q-.934 0-1.592-.658a2.17 2.17 0 0 1-.658-1.592q0-.934.658-1.593.659-.657 1.592-.657.934 0 1.593.657.657.659.657 1.593 0 .935-.657 1.592-.658.658-1.593.658m-4.75 5v-1.15q0-.533.273-.978.272-.446.774-.641a9.3 9.3 0 0 1 1.805-.549 9.9 9.9 0 0 1 3.778 0q.934.183 1.824.549.501.195.774.64.272.447.272.979v1.15zm-2.384-7.616q-1.444 0-2.472-1.028T6.308 8.192t1.028-2.471 2.472-1.029q1.443 0 2.472 1.029t1.028 2.471-1.028 2.472q-1.029 1.029-2.472 1.028m-7.5 7.616v-2.223q0-.75.391-1.378a2.46 2.46 0 0 1 1.074-.945q1.413-.713 2.934-1.083a13 13 0 0 1 3.1-.371q.741 0 1.482.107.74.106 1.48.258l-.638.648-.639.648a5 5 0 0 0-.842-.13q-.421-.031-.842-.031-1.403 0-2.756.32-1.354.322-2.59.972a1.4 1.4 0 0 0-.472.403.96.96 0 0 0-.182.582v.723h6v1.5zm7.5-9.116q.825 0 1.412-.587.588-.588.588-1.413 0-.824-.588-1.412a1.93 1.93 0 0 0-1.412-.588q-.825 0-1.413.588a1.93 1.93 0 0 0-.587 1.412q0 .825.587 1.413.588.588 1.413.587"/></svg>