<svg xmlns="http://www.w3.org/2000/svg" width="24" height="24" viewBox="0 0 24 24" fill='currentColor'><path d="M12 14.654a2.56 2.56 0 0 0 1.88-.774 2.56 2.56 0 0 0 .774-1.88q0-1.106-.774-1.88A2.56 2.56 0 0 0 12 9.346q-1.106 0-1.88.774A2.56 2.56 0 0 0 9.346 12q0 1.106.774 1.88a2.56 2.56 0 0 0 1.88.774m4.93 1.93a6.5 6.5 0 0 0 1.343-2.12A6.8 6.8 0 0 0 18.731 12q0-1.285-.458-2.463a6.5 6.5 0 0 0-1.342-2.122L15.877 8.47q.668.735 1.01 1.643.345.907.344 1.888 0 .98-.344 1.889a5.1 5.1 0 0 1-1.01 1.642zm-9.86 0 1.053-1.053a5.1 5.1 0 0 1-1.01-1.642A5.3 5.3 0 0 1 6.768 12q0-.98.343-1.889A5.1 5.1 0 0 1 8.124 8.47L7.069 7.416a6.5 6.5 0 0 0-1.342 2.12A6.8 6.8 0 0 0 5.269 12q0 1.285.458 2.464a6.5 6.5 0 0 0 1.342 2.12M2.5 19.5v-15h19v15zM4 18h16V6H4z"/></svg>