<svg xmlns="http://www.w3.org/2000/svg" width="24" height="24" viewBox="0 0 24 24" fill='currentColor'><path d="M15.827 7.423 14.742 6.37l1.35-1.35H7.759v-1.5h8.335l-1.35-1.35 1.053-1.084 3.185 3.184zM5 19h14v-4.923H5zm2.46-1.154q.564 0 .937-.37.372-.37.372-.935t-.37-.938a1.26 1.26 0 0 0-.935-.372q-.566 0-.938.37a1.26 1.26 0 0 0-.372.935q0 .567.37.938.37.372.935.372m9.076 0q.566 0 .938-.37t.372-.935-.37-.938a1.26 1.26 0 0 0-.935-.372q-.566 0-.938.37a1.26 1.26 0 0 0-.372.935q0 .567.37.938.37.372.935.372M3.5 12.577h14.892L17.131 9H6.398l1.35 1.35-1.054 1.085L3.51 8.25l3.184-3.184L7.748 6.15 6.398 7.5h11.796l2.306 6.577V22.5h-2.115v-2H5.615v2H3.5z"/></svg>