<svg xmlns="http://www.w3.org/2000/svg" width="24" height="24" viewBox="0 0 24 24" fill='currentColor'><path d="M11.997 21.5q-1.95 0-3.683-.747a9.6 9.6 0 0 1-3.026-2.041 9.6 9.6 0 0 1-2.04-3.026 9.2 9.2 0 0 1-.748-3.683q0-1.975.749-3.7a9.7 9.7 0 0 1 2.04-3.015A9.6 9.6 0 0 1 8.313 3.25a9.2 9.2 0 0 1 3.684-.749 9.2 9.2 0 0 1 3.698.749q1.725.75 3.017 2.04a9.7 9.7 0 0 1 2.039 3.015q.75 1.725.749 3.699 0 1.95-.749 3.685a9.6 9.6 0 0 1-2.04 3.024 9.7 9.7 0 0 1-3.015 2.039q-1.725.75-3.699.749M12 16.25a9.8 9.8 0 0 1 5.408 1.623A7.92 7.92 0 0 0 20 12q0-3.35-2.325-5.675T12 4 6.325 6.325 4 12q0 1.693.665 3.22a7.6 7.6 0 0 0 1.927 2.653A9.8 9.8 0 0 1 12 16.25m.002 1.5a8.1 8.1 0 0 0-4.083 1.096q.915.567 1.952.86a7.8 7.8 0 0 0 2.13.294 7.8 7.8 0 0 0 2.129-.293 7.6 7.6 0 0 0 1.95-.86 8.2 8.2 0 0 0-1.963-.818A8 8 0 0 0 12 17.75m-5-6.846a.87.87 0 0 0 .64-.264.87.87 0 0 0 .264-.64.87.87 0 0 0-.263-.64A.87.87 0 0 0 7 9.096a.87.87 0 0 0-.64.264.87.87 0 0 0-.264.64q0 .377.263.64.264.264.641.264m3-3a.87.87 0 0 0 .64-.263.87.87 0 0 0 .264-.641.87.87 0 0 0-.264-.64.87.87 0 0 0-.64-.264.87.87 0 0 0-.64.263.87.87 0 0 0-.264.641q0 .377.264.64.263.264.64.264m7 3a.87.87 0 0 0 .64-.264.87.87 0 0 0 .264-.64.87.87 0 0 0-.264-.64.87.87 0 0 0-.64-.264.87.87 0 0 0-.64.264.87.87 0 0 0-.264.64q0 .377.264.64.263.264.64.264m-5 2.846q.729 0 1.24-.51.51-.511.51-1.24 0-.325-.114-.623a1.8 1.8 0 0 0-.324-.539l1.75-4.397-1.404-.614-1.754 4.423a1.74 1.74 0 0 0-1.173.548q-.48.5-.481 1.202 0 .729.51 1.24.511.51 1.24.51"/></svg>