<svg xmlns="http://www.w3.org/2000/svg" width="24" height="24" viewBox="0 0 24 24" fill='currentColor'><path d="M6.298 13.961a11.8 11.8 0 0 1-1.849-3.39 11.5 11.5 0 0 1-.641-3.802 13 13 0 0 1 .377-3.104L2.319 5.53l-.828-.838 3.278-3.279 3.279 3.279-.829.838-1.817-1.802a10 10 0 0 0-.308 1.503Q5 5.994 5 6.77q0 1.721.558 3.334a11 11 0 0 0 1.594 3.004zm1.533 3.271.757-1.613 3.218-.302L8.714 6.88l1.413-.527 3.762 10.337-3.125.252 4.617 2.133 6.28-2.289-2.415-6.55 1.404-.527 2.942 7.98-8.298 3.013zm6.533-3.36L12.74 9.404l1.413-.526 1.638 4.469zm2.747-1.005-1.278-3.51 1.403-.527 1.289 3.52z"/></svg>