<svg xmlns="http://www.w3.org/2000/svg" width="24" height="24" viewBox="0 0 24 24" fill='currentColor'><path d="M21.5 7.192h-4.692V6H19.9a13.7 13.7 0 0 0-3.69-2.245A11 11 0 0 0 12 2.932q-2.2 0-4.21.823A13.7 13.7 0 0 0 4.1 6h3.092v1.192H2.5V2.5h1.192v2.265a14.7 14.7 0 0 1 3.903-2.221A12.3 12.3 0 0 1 12 1.74q2.292 0 4.405.804a14.7 14.7 0 0 1 3.903 2.221V2.5H21.5zM10.69 21.5l-5.82-5.827 1.247-1.26 3.133.829V6.25h1.5v10.988l-3.03-.829 3.6 3.59H18v-7h1.5v8.5zm1.474-6.75V10h1.5v4.75zm2.922 0V11h1.5v3.75z"/></svg>