<svg xmlns="http://www.w3.org/2000/svg" width="24" height="24" viewBox="0 0 24 24" fill='currentColor'><path d="M13.999 11.23q1.145 0 1.948-.801a2.65 2.65 0 0 0 .803-1.947q0-1.146-.802-1.948a2.65 2.65 0 0 0-1.947-.803q-1.145 0-1.948.801a2.65 2.65 0 0 0-.803 1.948q0 1.145.802 1.948a2.65 2.65 0 0 0 1.947.803m-5.71 4.616a7.6 7.6 0 0 1 2.584-1.908A7.5 7.5 0 0 1 14 13.27a7.5 7.5 0 0 1 3.127.67 7.6 7.6 0 0 1 2.585 1.907H20V4H8v11.846zM6.5 17.5v-15h15v15zm-4 4v-15H4V20h13.5v1.5zM14 9.73q-.522.001-.886-.364a1.2 1.2 0 0 1-.364-.885q0-.522.364-.886T14 7.231t.886.364.364.886-.364.886A1.2 1.2 0 0 1 14 9.73M10.335 16h7.33a5.6 5.6 0 0 0-1.724-.923A6.2 6.2 0 0 0 14 14.769q-1 0-1.941.308a5.6 5.6 0 0 0-1.724.923"/></svg>