<svg xmlns="http://www.w3.org/2000/svg" width="24" height="24" viewBox="0 0 24 24" fill='currentColor'><path d="m15.706 11.592-1.054-1.07L20 5.176V4h-1.175l-5.348 5.348-1.07-1.054L18.213 2.5H21.5v3.288zM4.442 21.852 2.14 19.548l3.609-3.625-2.2-2.2 1.754-1.754 1.723 1.708 1.22-1.22 1.069 1.054-1.22 1.22 1.175 1.174 1.22-1.219 1.053 1.07-1.219 1.219 1.713 1.698-1.769 1.769-2.2-2.2zM20.7 14.3a3.06 3.06 0 0 0-.02-1.405 6 6 0 0 0-.509-1.342q-.55.467-.966 1.047a3.4 3.4 0 0 0-.57 1.288 2.9 2.9 0 0 0 .031 1.388q.186.687.497 1.333.57-.448.977-1.029a3.5 3.5 0 0 0 .56-1.28M5.175 8.35q.513.513 1.213.64.699.124 1.303-.18l-.63-.63a2.36 2.36 0 0 0-1.228-.66 2.15 2.15 0 0 0-1.344.143zM7 3.85 4.756 6.069A3.74 3.74 0 0 1 8.12 7.11l.629.63q.315-.605.22-1.312a2.05 2.05 0 0 0-.645-1.23zM20.43 21.5 8.78 9.9a3.67 3.67 0 0 1-2.405.592 3.58 3.58 0 0 1-2.27-1.073l-2.394-2.42L7 1.728 9.394 4.13q.97.97 1.078 2.29a3.67 3.67 0 0 1-.622 2.41l7.513 7.514a5.6 5.6 0 0 1-.288-1.36 5.2 5.2 0 0 1 .075-1.41q.14-.691.47-1.303.328-.611.782-1.136.453-.524 1.021-.962a9 9 0 0 1 1.194-.78 8.8 8.8 0 0 1 1.351 2.462q.473 1.329.192 2.714a5.14 5.14 0 0 1-.986 2.16 7.2 7.2 0 0 1-1.787 1.628l2.098 2.098z"/></svg>