<svg xmlns="http://www.w3.org/2000/svg" width="24" height="24" viewBox="0 0 24 24" fill='currentColor'><path d="M12 18.5q-3.45 0-6.285-1.903T1.539 11.5q1.34-3.194 4.175-5.097T11.999 4.5t6.286 1.903q2.836 1.904 4.177 5.097-.15.354-.313.685-.163.33-.363.638l-1.17-1.1q.047-.067.081-.13.034-.062.072-.14a9.84 9.84 0 0 0-3.612-3.981Q14.811 6 12 6a9.55 9.55 0 0 0-5.187 1.487A9.77 9.77 0 0 0 3.2 11.5a9.77 9.77 0 0 0 3.613 4.012A9.54 9.54 0 0 0 12 17q.246 0 .49-.008.243-.007.498-.058a5 5 0 0 0-.061.77q0 .386.08.771-.257.025-.503.025zm0-2.923q-1.699 0-2.888-1.19-1.19-1.19-1.189-2.89 0-1.699 1.19-2.886t2.89-1.188q1.698 0 2.887 1.19Q16.077 9.8 16.077 11.5q0 .223-.027.438a3 3 0 0 1-.09.43l-1.204 1.117a7 7 0 0 0-.725.844 5.4 5.4 0 0 0-.558.95 3.4 3.4 0 0 1-.716.226 4 4 0 0 1-.757.072m0-1.377q1.125 0 1.912-.787A2.6 2.6 0 0 0 14.7 11.5q0-1.125-.787-1.912A2.6 2.6 0 0 0 12 8.8q-1.125 0-1.912.787A2.6 2.6 0 0 0 9.3 11.5q0 1.125.787 1.912A2.6 2.6 0 0 0 12 14.2m6.638 6.935q-1.467 0-2.48-1.027-1.014-1.025-1.03-2.488 0-.72.303-1.374.302-.654.835-1.161l2.369-2.239 2.353 2.237q.524.5.823 1.15.299.652.314 1.37-.01 1.48-1.026 2.505a3.34 3.34 0 0 1-2.461 1.026m.001-1.5q.81 0 1.399-.596.587-.594.572-1.432 0-.419-.193-.798a2.5 2.5 0 0 0-.483-.665l-1.3-1.24-1.315 1.24q-.3.285-.5.672a1.53 1.53 0 0 0-.175.806q0 .837.58 1.425.58.587 1.415.587"/></svg>