<svg xmlns="http://www.w3.org/2000/svg" width="24" height="24" viewBox="0 0 24 24" fill='currentColor'><path d="M1.25 20.75V7q0-1.146.802-1.948a2.65 2.65 0 0 1 1.947-.802q1.145 0 1.948.802A2.65 2.65 0 0 1 6.75 7v.848L12 3.328l5.25 4.52V7q0-1.146.802-1.948a2.65 2.65 0 0 1 1.947-.802q1.145 0 1.948.802T22.75 7v13.75h-9.5v-6h-2.5v6zm17.5-12.5h2.5V7q0-.521-.364-.885A1.2 1.2 0 0 0 20 5.75q-.522 0-.886.365A1.2 1.2 0 0 0 18.75 7zm-16 0h2.5V7q0-.521-.364-.885A1.2 1.2 0 0 0 4 5.75q-.522 0-.885.365A1.2 1.2 0 0 0 2.75 7zm0 11h2.5v-9.5h-2.5zm4 0h2.5v-6h5.5v6h2.5V9.82L12 5.297 6.75 9.82zm12 0h2.5v-9.5h-2.5zm-6.752-7.942q-.546 0-.926-.382a1.27 1.27 0 0 1-.38-.928q0-.546.383-.926.381-.38.927-.38t.926.383q.38.382.38.927 0 .546-.383.926-.381.38-.927.38"/></svg>