<svg xmlns="http://www.w3.org/2000/svg" width="24" height="24" viewBox="0 0 24 24" fill='currentColor'><path d="M3.558 19.673v-1.5H6.48l-.727-.696Q4.52 16.337 4 14.924a8.2 8.2 0 0 1-.52-2.855q0-2.591 1.518-4.649Q6.516 5.364 8.98 4.596v1.581a6.14 6.14 0 0 0-2.905 2.318 6.2 6.2 0 0 0-1.095 3.574q0 1.173.444 2.28.444 1.105 1.383 2.043l.634.635V14.29h1.5v5.384zM12 16.885a.85.85 0 0 1-.626-.259.85.85 0 0 1-.258-.626q0-.367.258-.626a.85.85 0 0 1 .626-.258q.368 0 .626.258a.85.85 0 0 1 .258.626.85.85 0 0 1-.258.626.85.85 0 0 1-.626.259m-.75-3.77V7.25h1.5v5.866zm3.77 6.289v-1.58a6.14 6.14 0 0 0 2.904-2.32 6.2 6.2 0 0 0 1.095-3.573q0-1.173-.444-2.279t-1.383-2.044l-.634-.635v2.739h-1.5V4.327h5.384v1.5H17.52l.727.696q1.187 1.187 1.73 2.576t.543 2.832q0 2.592-1.518 4.649t-3.982 2.824"/></svg>