<svg xmlns="http://www.w3.org/2000/svg" width="24" height="24" viewBox="0 0 24 24" fill='currentColor'><path d="m19.608 22.062-3.514-3.514a9 9 0 0 1-.882.481 7.5 7.5 0 0 1-.962.375v-1.58q.199-.08.382-.17.183-.093.372-.196L6.552 9.006q-.38.692-.592 1.466a6 6 0 0 0-.21 1.598q0 1.172.444 2.278t1.383 2.044l.634.635V14.29h1.5v5.384H4.327v-1.5H7.25l-.727-.696q-1.187-1.186-1.73-2.576a7.7 7.7 0 0 1-.543-2.831q0-1.145.307-2.192a7.7 7.7 0 0 1 .895-1.972L1.938 4.392l1.07-1.069 17.669 17.67zm-1.02-6.008-1.115-1.115a6.4 6.4 0 0 0 .574-1.438q.203-.76.203-1.57 0-1.173-.444-2.279t-1.383-2.044l-.634-.635v2.739h-1.5V4.327h5.384v1.5H16.75l.727.696q1.187 1.187 1.73 2.576a7.7 7.7 0 0 1 .236 4.998 8.7 8.7 0 0 1-.855 1.957M9.053 6.517 7.946 5.412q.427-.265.87-.46.442-.196.934-.356v1.581l-.359.158q-.175.078-.339.182"/></svg>