<svg xmlns="http://www.w3.org/2000/svg" width="24" height="24" viewBox="0 0 24 24" fill='currentColor'><path d="M19 18.692v-3.028H5v3.028a.3.3 0 0 0 .087.221.3.3 0 0 0 .22.087h13.385a.3.3 0 0 0 .221-.087.3.3 0 0 0 .087-.22m0-4.528V9.836H5v4.328zm0-5.828V5.308a.3.3 0 0 0-.087-.221.3.3 0 0 0-.22-.087H5.307a.3.3 0 0 0-.221.087.3.3 0 0 0-.087.22v3.03zM5.308 20.5q-.758 0-1.283-.525a1.75 1.75 0 0 1-.525-1.283V5.308q0-.758.525-1.283T5.308 3.5h13.384q.758 0 1.283.525t.525 1.283v13.384q0 .758-.525 1.283t-1.283.525z"/></svg>