<svg xmlns="http://www.w3.org/2000/svg" width="24" height="24" viewBox="0 0 24 24" fill='currentColor'><path d="M3.5 20.5v-17h17v9.94q-.36-.198-.724-.364a7 7 0 0 0-.776-.295v-2.204h-3.661v1.808a17 17 0 0 0-.77.065q-.371.041-.73.136v-2.009h-3.677v3.592q-.37.278-.7.623-.331.347-.608.747H5V19h2.387q.202.416.427.785t.473.715zM5 14.039h3.662v-3.462H5zm0-4.962h14V5H5zM16.067 22.5a7.1 7.1 0 0 1-3.791-1.07 6.95 6.95 0 0 1-2.641-2.91 6.95 6.95 0 0 1 2.641-2.911 7.1 7.1 0 0 1 3.791-1.07q2.054 0 3.792 1.07a6.95 6.95 0 0 1 2.641 2.91 6.95 6.95 0 0 1-2.642 2.91 7.1 7.1 0 0 1-3.791 1.071m-.001-1.5q1.407 0 2.655-.66a5.8 5.8 0 0 0 2.067-1.82 5.84 5.84 0 0 0-2.065-1.822 5.6 5.6 0 0 0-2.654-.66q-1.407 0-2.655.66a5.8 5.8 0 0 0-2.068 1.821 5.84 5.84 0 0 0 2.066 1.822q1.247.66 2.654.659m.003-1.23q-.521 0-.886-.365a1.2 1.2 0 0 1-.366-.885q0-.52.364-.885.364-.366.885-.366.52 0 .886.365.365.363.365.884 0 .52-.364.886a1.2 1.2 0 0 1-.884.365"/></svg>