<svg xmlns="http://www.w3.org/2000/svg" width="24" height="24" viewBox="0 0 24 24" fill='currentColor'><path d="m6.366 19.51 1.807-4.5h3.077v-4.42q-3.622-.095-6.076-.99-2.453-.894-2.453-2.1 0-1.296 2.704-2.2T12 4.394q3.886 0 6.583.904 2.696.905 2.696 2.201 0 1.215-2.458 2.105-2.457.89-6.071.986v4.419h3.077l1.807 4.5h-1.518l-1.2-3H9.084l-1.2 3zM12 9.106q2.56 0 4.715-.463 2.154-.464 2.895-1.143-.741-.678-2.895-1.142T12 5.895t-4.714.463Q5.13 6.822 4.39 7.5q.74.68 2.895 1.143 2.154.463 4.714.463"/></svg>