<svg xmlns="http://www.w3.org/2000/svg" width="24" height="24" viewBox="0 0 24 24" fill='currentColor'><path d="M6.442 22.808v-9.25H4.385q-.945 0-1.598-.653a2.17 2.17 0 0 1-.652-1.597q0-.945.652-1.597a2.17 2.17 0 0 1 1.598-.653h2.057V7.942H4.385q-.945 0-1.598-.652a2.17 2.17 0 0 1-.652-1.597q0-.944.652-1.598a2.17 2.17 0 0 1 1.598-.653h2.057v-2.25h1.5v2.25H10q.944 0 1.598.653.651.652.652 1.597 0 .944-.652 1.598A2.17 2.17 0 0 1 10 7.942H7.942v1.116H10q.944 0 1.598.652.651.652.652 1.597 0 .945-.652 1.598a2.17 2.17 0 0 1-1.598.653H7.942v9.25zm-2.057-10.75H10q.306 0 .528-.222a.72.72 0 0 0 .222-.528.72.72 0 0 0-.222-.528.72.72 0 0 0-.528-.222H4.385a.72.72 0 0 0-.528.222.72.72 0 0 0-.222.528q0 .306.222.528a.72.72 0 0 0 .528.222m0-5.616H10q.306 0 .528-.222a.72.72 0 0 0 .222-.528.72.72 0 0 0-.222-.527.72.72 0 0 0-.528-.223H4.385a.72.72 0 0 0-.528.223.72.72 0 0 0-.222.527q0 .306.222.528a.72.72 0 0 0 .528.222m10.673 16.366v-1.5h2v-7.65a4.15 4.15 0 0 1-2.149-1.336A3.46 3.46 0 0 1 14.058 10V1.192h7.5V10a3.46 3.46 0 0 1-.852 2.322 4.14 4.14 0 0 1-2.148 1.336v7.65h2v1.5zm2.75-10.558q.94 0 1.595-.655.655-.654.655-1.595V7.75h-4.5V10q0 .94.654 1.595a2.17 2.17 0 0 0 1.596.655m-2.25-6h4.5V2.692h-4.5z"/></svg>