<svg xmlns="http://www.w3.org/2000/svg" width="24" height="24" viewBox="0 0 24 24" fill='currentColor'><path d="M12.002 21.5a9.3 9.3 0 0 1-3.706-.748 9.6 9.6 0 0 1-3.016-2.03 9.6 9.6 0 0 1-2.032-3.016 9.25 9.25 0 0 1-.748-3.704q0-1.972.748-3.706a9.6 9.6 0 0 1 2.03-3.016 9.6 9.6 0 0 1 3.017-2.032A9.25 9.25 0 0 1 12 2.5q1.58 0 2.99.475T17.577 4.3l-1.085 1.11a8.2 8.2 0 0 0-2.1-1.039A7.6 7.6 0 0 0 12 4Q8.675 4 6.338 6.338 4 8.675 4 12t2.338 5.663T12 20t5.663-2.337T20 12a8 8 0 0 0-.07-1.042 7 7 0 0 0-.207-1.002l1.212-1.221q.274.771.42 1.586T21.5 12q0 1.972-.748 3.705a9.6 9.6 0 0 1-2.03 3.016 9.6 9.6 0 0 1-3.016 2.03 9.25 9.25 0 0 1-3.704.749m-1.421-5.246L6.677 12.35l1.054-1.054 2.85 2.85 9.865-9.88L21.5 5.318z"/></svg>