<svg xmlns="http://www.w3.org/2000/svg" width="24" height="24" viewBox="0 0 24 24" fill='currentColor'><path d="M11.596 7.26v-2q0-.84.58-1.42t1.42-.58h2v2q0 .84-.58 1.42t-1.42.58zM6.4 12.76q-1.244 0-2.12-.876a2.9 2.9 0 0 1-.876-2.12V6.76h3.003q1.245 0 2.121.876.876.875.876 2.12v3.003zm9.6 8.49q-.934 0-1.784-.3a5.6 5.6 0 0 1-1.537-.825l-1.152 1.152a.73.73 0 0 1-.522.212.7.7 0 0 1-.532-.212.7.7 0 0 1-.213-.532.73.73 0 0 1 .213-.522l1.152-1.152a5.6 5.6 0 0 1-.825-1.537q-.3-.85-.3-1.784 0-2.289 1.604-3.902T16 10.235h5.506v5.515q0 2.289-1.61 3.894Q18.283 21.25 16 21.25m0-1.5q1.675 0 2.825-1.175t1.15-2.825v-4H16q-1.65 0-2.825 1.162T12 15.75q0 .633.18 1.203.181.57.514 1.049l2.779-2.779a.72.72 0 0 1 .527-.217q.31 0 .527.217t.217.527a.72.72 0 0 1-.217.527l-2.779 2.779A3.9 3.9 0 0 0 16 19.75"/></svg>