<svg xmlns="http://www.w3.org/2000/svg" width="24" height="24" viewBox="0 0 24 24" fill='currentColor'><path d="M3.933 20.75a2.67 2.67 0 0 1-1.962-.808 2.67 2.67 0 0 1-.807-1.961q0-1.154.807-1.962a2.67 2.67 0 0 1 1.962-.807q.24 0 .47.042.227.043.447.121l4.28-5.883a3.76 3.76 0 0 1-.9-2.463q0-1.563 1.104-2.666A3.63 3.63 0 0 1 12 3.26q1.563 0 2.666 1.103a3.63 3.63 0 0 1 1.103 2.666q0 .705-.25 1.336a4 4 0 0 1-.675 1.127l4.297 5.893q.219-.08.45-.126.231-.048.476-.048 1.154 0 1.962.808a2.67 2.67 0 0 1 .808 1.962q0 1.154-.808 1.961a2.67 2.67 0 0 1-1.962.808 2.67 2.67 0 0 1-1.961-.808 2.67 2.67 0 0 1-.808-1.961q0-.495.167-.937.166-.443.454-.792l-4.261-5.863a2 2 0 0 1-.435.2q-.223.072-.473.126v4.604a2.66 2.66 0 0 1 1.447.97q.572.735.572 1.682 0 1.154-.808 1.962A2.67 2.67 0 0 1 12 20.74q-1.155 0-1.961-.807a2.67 2.67 0 0 1-.808-1.962q0-.945.572-1.675a2.75 2.75 0 0 1 1.447-.977v-4.604a5 5 0 0 1-.473-.127 2 2 0 0 1-.435-.2l-4.271 5.864q.289.35.46.792t.171.937q0 1.154-.808 1.961a2.67 2.67 0 0 1-1.961.808m0-1.5q.531 0 .9-.37.369-.368.369-.9 0-.53-.37-.9a1.23 1.23 0 0 0-.9-.368q-.53 0-.9.369-.368.369-.368.9t.369.9.9.369M12 19.24q.531 0 .9-.369.37-.369.37-.9t-.37-.9a1.23 1.23 0 0 0-.9-.369q-.531 0-.9.37-.37.368-.37.9 0 .53.37.9.369.368.9.369m8.067.01q.531 0 .9-.37.37-.368.37-.9 0-.53-.37-.9a1.23 1.23 0 0 0-.9-.368q-.531 0-.9.369t-.369.9.37.9q.368.369.9.369M12 9.298q.936 0 1.603-.666.666-.668.666-1.603 0-.936-.666-1.603A2.2 2.2 0 0 0 12 4.76q-.936 0-1.603.666a2.2 2.2 0 0 0-.666 1.603q0 .936.666 1.603.667.666 1.603.666"/></svg>