<svg xmlns="http://www.w3.org/2000/svg" width="24" height="24" viewBox="0 0 24 24" fill='currentColor'><path d="M16.962 10.75v-3h-3v-1.5h3v-3h1.5v3h3v1.5h-3v3zM8.38 20.5q-1.869 0-3.183-1.314Q3.885 17.874 3.885 16q0-1.142.534-2.113a4.74 4.74 0 0 1 1.466-1.618V6q0-1.048.726-1.774A2.4 2.4 0 0 1 8.385 3.5q1.047 0 1.774.726.725.726.725 1.774v6.27a4.74 4.74 0 0 1 1.466 1.617q.534.97.534 2.113 0 1.873-1.317 3.186Q10.25 20.5 8.381 20.5M7.385 10h2V6a.97.97 0 0 0-.288-.713A.97.97 0 0 0 8.385 5a.97.97 0 0 0-.713.287.97.97 0 0 0-.287.713z"/></svg>