<svg xmlns="http://www.w3.org/2000/svg" width="24" height="24" viewBox="0 0 24 24" fill='currentColor'><path d="M16.962 10.75v-3h-3v-1.5h3v-3h1.5v3h3v1.5h-3v3zm-8.58 9.75q-1.866 0-3.182-1.314Q3.885 17.874 3.885 16q0-1.142.534-2.113a4.74 4.74 0 0 1 1.466-1.618V6q0-1.048.726-1.774A2.4 2.4 0 0 1 8.385 3.5q1.047 0 1.774.726.725.726.725 1.774v6.27q.931.647 1.461 1.617t.54 2.113q-.01 1.873-1.323 3.186-1.314 1.314-3.18 1.314m.003-1.5q1.25 0 2.125-.875A2.9 2.9 0 0 0 11.385 16q0-.724-.313-1.35a2.9 2.9 0 0 0-.887-1.05l-.8-.6V6a.97.97 0 0 0-.288-.713A.97.97 0 0 0 8.385 5a.97.97 0 0 0-.713.287.97.97 0 0 0-.287.713v7l-.8.6q-.576.425-.888 1.05A3 3 0 0 0 5.385 16q0 1.25.875 2.125A2.9 2.9 0 0 0 8.385 19"/></svg>