<svg xmlns="http://www.w3.org/2000/svg" width="24" height="24" viewBox="0 0 24 24" fill='currentColor'><path d="M13.287 21.654a.93.93 0 0 1-.806-.462 1 1 0 0 1-.115-.467q0-.252.14-.48l3.925-6.462a.9.9 0 0 1 .345-.342.91.91 0 0 1 .872 0 .9.9 0 0 1 .345.342l3.926 6.461a.94.94 0 0 1 .023.943.9.9 0 0 1-.323.339.9.9 0 0 1-.485.128zm3.925-.904a.48.48 0 0 0 .35-.15.48.48 0 0 0 0-.7.48.48 0 0 0-.7 0 .48.48 0 0 0 0 .7q.15.15.35.15M8.296 19.5a.9.9 0 0 1-.467-.125.8.8 0 0 1-.331-.352l-1.844-3.312h1.354l.961 1.885h2.156v-.884H8.498l-.957-1.885H5.16l-1.35-2.372a3 3 0 0 1-.08-.23.8.8 0 0 1-.033-.225q0-.08.115-.452l1.349-2.375H7.54l.957-1.884h1.627v-.885H7.969l-.961 1.885H5.654l1.844-3.312a.8.8 0 0 1 .33-.352.9.9 0 0 1 .468-.125h2.358q.384 0 .644.26t.26.644v3.807h-1.51l-.884.885h2.394v2.865H9.477l-.946-1.875H6.452l-.885.885h2.431l.942 1.875h2.618v4.11l-.739 1.206a.5.5 0 0 0-.072.156q-.026.09-.066.182zm8.416-.654h1v-3h-1zm-4.27-2.358v-6.392h2.394l-.884-.885h-1.51V5.404q0-.383.26-.644a.87.87 0 0 1 .644-.26h2.358q.25 0 .467.125.217.124.331.352l1.844 3.312h-1.354l-.961-1.885h-2.156v.885h1.621l.954 1.884h2.389l1.348 2.375q.069.112.092.226.023.112.023.226 0 .035-.116.452l-.319.554-.23-.354a2.66 2.66 0 0 0-1.064-.979 3.05 3.05 0 0 0-1.41-.342q-.741 0-1.366.352a2.8 2.8 0 0 0-1.02.988z"/></svg>