<svg xmlns="http://www.w3.org/2000/svg" width="24" height="24" viewBox="0 0 24 24" fill='currentColor'><path d="m9.5 8.989-2.27-2.27a2.5 2.5 0 0 1-.73-1.744q0-1.04.706-1.757Q7.912 2.5 8.95 2.5h6.1q1.014 0 1.707.728t.693 1.747q0 .5-.2.97a2.6 2.6 0 0 1-.556.824L14.5 8.963v5.962l2.244 2.256q.355.354.543.811.188.459.188.958 0 1.065-.719 1.794-.719.732-1.781.731a2.5 2.5 0 0 1-1.77-.73 1.7 1.7 0 0 0-.55-.369A1.7 1.7 0 0 0 12 20.25q-.346 0-.655.126a1.7 1.7 0 0 0-.55.368 2.5 2.5 0 0 1-.816.543 2.5 2.5 0 0 1-.961.188q-1.065 0-1.8-.73-.733-.732-.743-1.795 0-.504.194-.958a2.6 2.6 0 0 1 .552-.811L9.5 14.95zm1.5-.214v6.4a.95.95 0 0 1-.083.387.9.9 0 0 1-.217.313L8.3 18.25a.85.85 0 0 0-.225.322Q8 18.76 8 18.959q0 .426.3.733.3.308.725.308.2 0 .388-.075a1 1 0 0 0 .337-.225 3.3 3.3 0 0 1 1.025-.693A3.1 3.1 0 0 1 12 18.759q.65 0 1.233.246.582.245 1.017.695.15.135.338.217a1 1 0 0 0 1.12-.227q.307-.31.307-.732a1 1 0 0 0-.075-.386.8.8 0 0 0-.24-.322l-2.4-2.375q-.135-.14-.217-.319a.9.9 0 0 1-.083-.381v-6.4a1.03 1.03 0 0 1 .275-.7l2.375-2.4q.15-.15.233-.337a.95.95 0 0 0 .083-.388.92.92 0 0 0-.273-.675.9.9 0 0 0-.668-.275H8.95a.92.92 0 0 0-.684.283.95.95 0 0 0-.275.69q0 .204.08.383.078.178.204.319l2.425 2.4q.15.125.225.313.075.187.075.387"/></svg>