<svg xmlns="http://www.w3.org/2000/svg" width="24" height="24" viewBox="0 0 24 24" fill='currentColor'><path d="m19.585 16.775-1.126-1.125a7 7 0 0 0 .408-1.328Q19 13.66 19 13q0-2.9-2.05-4.95T12 6a7.3 7.3 0 0 0-2.665.525L8.21 5.4a8 8 0 0 1 1.834-.671A8.5 8.5 0 0 1 12 4.5a8.3 8.3 0 0 1 2.856.505q1.395.505 2.611 1.464l1.247-1.246 1.053 1.054-1.246 1.246a9.4 9.4 0 0 1 1.47 2.617q.51 1.399.509 2.86 0 .954-.229 1.91a8.6 8.6 0 0 1-.687 1.865M12.75 9.94V8.192h-1.5v.248zm7.127 12.045-2.458-2.458a8.5 8.5 0 0 1-2.54 1.457A8.3 8.3 0 0 1 12 21.5q-1.755 0-3.3-.67a8.6 8.6 0 0 1-2.704-1.826A8.6 8.6 0 0 1 4.17 16.3 8.2 8.2 0 0 1 3.5 13q0-1.52.506-2.911A8 8 0 0 1 5.473 7.58L2.016 4.123l1.053-1.054 17.862 17.862zM12 20a6.6 6.6 0 0 0 2.276-.407 7.3 7.3 0 0 0 2.043-1.15L6.527 8.65a6.7 6.7 0 0 0-1.136 2.02A7 7 0 0 0 5 13q0 2.9 2.05 4.95T12 20M9.192 2.75v-1.5h5.616v1.5z"/></svg>