<svg xmlns="http://www.w3.org/2000/svg" width="24" height="24" viewBox="0 0 24 24" fill='currentColor'><path d="M18.658 8.202a.92.92 0 0 1-.674-.272.9.9 0 0 1-.273-.672q0-.189.07-.354a1 1 0 0 1 .211-.306q.29-.291 1.303-.642l1.013-.35a30 30 0 0 1-.356 1.017q-.141.4-.318.777-.176.378-.317.519a1 1 0 0 1-.306.212.9.9 0 0 1-.353.07M4.633 20.259q-.747 0-1.276-.53a1.74 1.74 0 0 1-.53-1.277V5.49q0-.746.531-1.277t1.277-.53h5.425q.745 0 1.275.53.53.531.53 1.277v7.615h3.77v5.654h2.269v-6.038h-.942V11.44a4.67 4.67 0 0 1-2.063-1.693 4.36 4.36 0 0 1-.764-2.49q0-1.88 1.322-3.199 1.32-1.317 3.197-1.318 1.883 0 3.2 1.318 1.32 1.32 1.319 3.198 0 1.359-.764 2.49a4.66 4.66 0 0 1-2.063 1.694v1.281h-.942v7.538h-5.27v-5.654h-2.269v3.847q0 .745-.53 1.276-.532.531-1.278.531zm14.022-9.98a2.9 2.9 0 0 0 2.138-.881q.88-.881.88-2.14t-.881-2.138a2.9 2.9 0 0 0-2.14-.88 2.9 2.9 0 0 0-2.137.881q-.88.88-.88 2.14 0 1.257.88 2.138.882.88 2.14.88m-14.02 8.48h5.423a.3.3 0 0 0 .22-.086.3.3 0 0 0 .088-.221V16.22L8.48 18.105v-2.123l1.885-1.884v-2.589L8.48 13.394v-2.123l1.885-1.885V6.798L8.48 8.682V6.56l1.29-1.29a.2.2 0 0 0-.091-.067.4.4 0 0 0-.13-.02H5.142a.4.4 0 0 0-.13.02.2.2 0 0 0-.09.067l1.29 1.29v2.123L4.327 6.798v2.588l1.885 1.885v2.123l-1.885-1.885v2.589l1.885 1.884v2.124L4.327 16.22v2.23a.3.3 0 0 0 .087.222.3.3 0 0 0 .22.086"/></svg>