<svg xmlns="http://www.w3.org/2000/svg" width="24" height="24" viewBox="0 0 24 24" fill='currentColor'><path d="M3.5 16.442v-1.5h13.173v1.5zm0-3.692v-1.5h13.173v1.5zm0-3.692v-1.5h13.173v1.5zM19.692 16.5a.787.787 0 0 1-.808-.798.796.796 0 0 1 .808-.818q.344 0 .576.236.232.234.232.582a.787.787 0 0 1-.808.798m0-3.683a.786.786 0 0 1-.808-.817q0-.34.233-.569a.8.8 0 0 1 .575-.229.787.787 0 0 1 .808.798.79.79 0 0 1-.808.817m0-3.701a.787.787 0 0 1-.808-.799.796.796 0 0 1 .808-.817q.344 0 .576.235t.232.582a.787.787 0 0 1-.808.798"/></svg>