<svg xmlns="http://www.w3.org/2000/svg" width="24" height="24" viewBox="0 0 24 24" fill='currentColor'><path d="m12 21.711-8.75-4.856V7.144L12 2.288l8.75 4.856v9.711zM9.148 9.557a3.9 3.9 0 0 1 1.287-.963A3.7 3.7 0 0 1 12 8.25q.825 0 1.566.344.74.344 1.286.963l3.558-1.982L12 4.01 5.59 7.575zm2.102 10.016v-3.89a3.76 3.76 0 0 1-2.16-1.32A3.63 3.63 0 0 1 8.25 12q0-.305.04-.57.039-.267.133-.546L4.75 8.827v7.142zM12 14.25q.94 0 1.595-.655T14.25 12t-.655-1.596A2.17 2.17 0 0 0 12 9.75a2.17 2.17 0 0 0-1.595.654A2.17 2.17 0 0 0 9.75 12q0 .94.655 1.595A2.17 2.17 0 0 0 12 14.25m.75 5.323 6.5-3.604V8.827l-3.673 2.057q.094.28.133.545a4 4 0 0 1 .04.57q0 1.338-.84 2.364a3.76 3.76 0 0 1-2.16 1.32z"/></svg>