<svg xmlns="http://www.w3.org/2000/svg" width="24" height="24" viewBox="0 0 24 24" fill='currentColor'><path d="M6.289 17.904h5.615v-1.288H6.289zM6.25 9.75h5.692V8.558H6.25zm0-2.307h5.692V6.25H6.25zm9.25 3.153v-1.5h2V6.905h-2v-1.5h2.596l.904.904v.942h2.596v1.5H19v.943l-.904.903zm-3.904 4.52h-1.5v-4.212H14V5.097H6.192q-.825 0-1.412.587a1.93 1.93 0 0 0-.588 1.413v1.807q0 .825.588 1.413.587.587 1.412.587h1.904v4.212h-1.5v-2.712h-.404q-1.443 0-2.471-1.028T2.692 8.904V7.097q0-1.444 1.029-2.472t2.471-1.028H15.5v8.807h-3.904zm-6.807 4.288v-4.288h8.615v4.288z"/></svg>