<svg xmlns="http://www.w3.org/2000/svg" width="24" height="24" viewBox="0 0 24 24" fill='currentColor'><path d="M4.82 11.8q.614-2.011 2.402-4.28T12 2.654q2.99 2.597 4.778 4.866 1.786 2.269 2.403 4.28H17.6q-.575-1.55-1.975-3.337T12 4.65Q9.8 6.675 8.388 8.463 6.975 10.25 6.4 11.8zm14.588 3.025a6.3 6.3 0 0 1-.495 1.635A6 6 0 0 1 18 17.879l-2.212 2.202q-.644.558-1.414.901a5.9 5.9 0 0 1-1.615.457zm-4.23-1.025h2.149l-7.388 7.38q-.422-.105-.815-.24a4 4 0 0 1-.758-.35zm-5.243 0h2.148l-5.437 5.437a8 8 0 0 1-.52-.562 6 6 0 0 1-.449-.617zm-5.45 0h2.348l-2.067 2.067a7 7 0 0 1-.204-1.026q-.062-.514-.077-1.04"/></svg>