<svg xmlns="http://www.w3.org/2000/svg" width="24" height="24" viewBox="0 0 24 24" fill='currentColor'><path d="M20.792 22.916 1.281 3.404 2.35 2.335l19.511 19.512zM16.501 21.5q-2.09 0-3.545-1.454Q11.5 18.59 11.5 16.5v-3q0-.465.079-.878a5 5 0 0 1 .23-.828l2.956 2.956H13v1.75q0 1.45 1.025 2.475A3.37 3.37 0 0 0 16.5 20a3.4 3.4 0 0 0 2.475-1.04l1.07 1.069a5.2 5.2 0 0 1-1.59 1.075 4.8 4.8 0 0 1-1.954.396m4.655-3.19-1.206-1.206q.034-.15.042-.297T20 16.5v-1.75h-2.404l-1.846-1.846v-2.802a3.3 3.3 0 0 0-.976.363 3.4 3.4 0 0 0-.818.645l-1.07-1.07a5 5 0 0 1 1.61-1.128A4.9 4.9 0 0 1 16.5 8.5q2.091 0 3.546 1.455Q21.5 11.409 21.5 13.5v3q0 .48-.091.938-.092.459-.253.872m-3.906-5.06h2.735a3.46 3.46 0 0 0-.848-2.05 3.3 3.3 0 0 0-1.887-1.098zM2.5 19.5v-15h2.016l1.5 1.5H4v12h5.467q.096.4.216.77t.292.73zM8.846 6l-1.5-1.5H21.5V6z"/></svg>