<svg xmlns="http://www.w3.org/2000/svg" width="24" height="24" viewBox="0 0 24 24" fill='currentColor'><path d="M5 20h14v-1.246q-.25.075-.488.112a3 3 0 0 1-.512.038q-1.611 0-2.748-1.147-1.136-1.148-1.136-2.757 0-1.602 1.14-2.734 1.142-1.131 2.744-1.131a3.3 3.3 0 0 1 1 .15V10h-5.308V8.34q.379-.367.594-.845T14.5 6.5q0-1.05-.725-1.775T12 4t-1.775.725T9.5 6.5q0 .519.205.996.203.478.584.843V10H5v1.285q.251-.075.487-.113A3 3 0 0 1 6 11.135q1.603 0 2.743 1.131a3.72 3.72 0 0 1 1.141 2.739q0 1.606-1.136 2.753Q7.611 18.904 6 18.904a3.3 3.3 0 0 1-1-.15zm15.5-3.184V21.5h-17v-4.654h1.085q.275.264.644.41.368.148.771.148.984 0 1.684-.7.7-.701.7-1.685t-.7-1.684a2.3 2.3 0 0 0-1.684-.7 1.92 1.92 0 0 0-1.32.519H3.5V8.5h4.98v-.23a3.2 3.2 0 0 1-.36-.847A3.6 3.6 0 0 1 8 6.5q0-1.672 1.164-2.836Q10.326 2.5 12 2.5q1.672 0 2.836 1.164Q16 4.826 16 6.5q0 .471-.12.923a3.2 3.2 0 0 1-.36.846V8.5h4.98v4.685h-1.15a1.8 1.8 0 0 0-.607-.405 1.9 1.9 0 0 0-.743-.146q-.984 0-1.684.701a2.3 2.3 0 0 0-.7 1.684q0 .984.7 1.684.7.702 1.684.701.42 0 .796-.155.375-.155.65-.433z"/></svg>