<svg xmlns="http://www.w3.org/2000/svg" width="24" height="24" viewBox="0 0 24 24" fill='currentColor'><path d="M11.969 17.808q.566 0 .938-.37t.372-.936-.37-.937a1.26 1.26 0 0 0-.936-.373q-.566 0-.937.37a1.26 1.26 0 0 0-.372.936q0 .566.37.938t.935.372m0-4.5q.566 0 .938-.37t.372-.936-.37-.937a1.26 1.26 0 0 0-.936-.373q-.566 0-.937.37a1.26 1.26 0 0 0-.372.936q0 .566.37.938t.935.372m0-4.5q.566 0 .938-.37t.372-.936-.37-.937a1.26 1.26 0 0 0-.936-.373q-.566 0-.937.37a1.26 1.26 0 0 0-.372.936q0 .566.37.937.37.373.935.373M7.471 20.5v-2.323q-1.12-.293-1.791-1.136a3 3 0 0 1-.67-1.925h2.46v-1.747q-1.12-.292-1.791-1.135a3 3 0 0 1-.67-1.926H7.47V8.562q-1.12-.293-1.791-1.136A3 3 0 0 1 5.01 5.5h2.46v-2h9v2h2.52q0 1.083-.7 1.926t-1.82 1.136v1.746h2.52q0 1.083-.7 1.926t-1.82 1.135v1.747h2.52q0 1.082-.7 1.925t-1.82 1.136V20.5zm1.5-1.5h6V5h-6z"/></svg>