<svg xmlns="http://www.w3.org/2000/svg" width="24" height="24" viewBox="0 0 24 24" fill='currentColor'><path d="M15 16.75q-1.787 0-3.096-1.137a4.68 4.68 0 0 1-1.592-2.863H4.25v-1.5h6.062q.105-.69.424-1.349.318-.66.889-1.151H6.25v-1.5H15q1.971 0 3.36 1.389 1.39 1.389 1.39 3.36t-1.39 3.36Q16.972 16.752 15 16.75m0-1.5a3.13 3.13 0 0 0 2.298-.952A3.13 3.13 0 0 0 18.25 12a3.13 3.13 0 0 0-.952-2.298A3.13 3.13 0 0 0 15 8.75a3.13 3.13 0 0 0-2.298.952A3.13 3.13 0 0 0 11.75 12q0 1.347.952 2.298A3.13 3.13 0 0 0 15 15.25m-7.75 1.5v-1.5h2.5v1.5z"/></svg>