<svg xmlns="http://www.w3.org/2000/svg" width="24" height="24" viewBox="0 0 24 24" fill='currentColor'><path d="M7.058 16.75v-1.5h5.567a3.7 3.7 0 0 1-.875-1.122 4.6 4.6 0 0 1-.438-1.378H5.25v-1.5h6.062q.105-.7.419-1.344.313-.645.894-1.156H7.25v-1.5H16q1.971 0 3.36 1.389 1.39 1.389 1.39 3.36t-1.39 3.36Q17.972 16.752 16 16.75zM16 15.25a3.13 3.13 0 0 0 2.298-.952A3.13 3.13 0 0 0 19.25 12a3.13 3.13 0 0 0-.952-2.298A3.13 3.13 0 0 0 16 8.75a3.13 3.13 0 0 0-2.298.952A3.13 3.13 0 0 0 12.75 12q0 1.347.952 2.298A3.13 3.13 0 0 0 16 15.25m-12.75 1.5v-1.5h2.808v1.5z"/></svg>