<svg xmlns="http://www.w3.org/2000/svg" width="24" height="24" viewBox="0 0 24 24" fill='currentColor'><path d="M4.5 15.308V6q0-1.152.625-1.843T6.793 3.1t2.4-.483T12 2.5q1.554 0 2.92.118 1.367.12 2.387.483 1.02.364 1.607 1.056.585.69.586 1.843v9.308q0 1.34-.926 2.266t-2.266.926l1.5 1.5v.5h-1.423l-2-2h-4.77l-2 2H6.192V20l1.5-1.5q-1.34 0-2.266-.926T4.5 15.308M12 4q-2.794 0-4.077.351t-1.646.918h11.508q-.318-.597-1.608-.934Q14.887 4 12 4m-6 6.5h5.25V6.77H6zM16.308 12H6h12zm-3.558-1.5H18V6.77h-5.25zM8.5 15.808q.564 0 .935-.373.373-.372.373-.935t-.373-.935a1.27 1.27 0 0 0-.935-.373q-.563 0-.936.373-.372.372-.372.935t.372.935.936.373m7 0q.564 0 .936-.373.372-.372.372-.935t-.372-.935a1.27 1.27 0 0 0-.936-.373q-.563 0-.935.373-.373.372-.373.935t.373.935.935.373M7.692 17h8.616q.718 0 1.204-.488.488-.487.488-1.204V12H6v3.308q0 .718.487 1.204.488.488 1.205.488M12 5.27h5.785H6.277z"/></svg>