<svg xmlns="http://www.w3.org/2000/svg" width="24" height="24" viewBox="0 0 24 24" fill='currentColor'><path d="M9.23 16.577h5.54v-.885l-.924-.461q.762 0 1.304-.543.542-.542.542-1.304V9.232q0-.999-.853-1.422-.853-.424-2.837-.424-1.913 0-2.804.441t-.89 1.409v4.147q0 .76.542 1.305.542.543 1.304.544l-.923.461zm1.155-2.27a.673.673 0 0 1-.693-.692.67.67 0 0 1 .693-.692.67.67 0 0 1 .692.692.673.673 0 0 1-.692.693m3.23 0a.67.67 0 0 1-.692-.692.67.67 0 0 1 .692-.692.67.67 0 0 1 .693.692.673.673 0 0 1-.693.693M9.5 12.04V9.23h5v2.808zm-7 7.461v-5.096a2.42 2.42 0 0 0 1.427-.838Q4.5 12.892 4.5 12q0-.893-.573-1.566A2.42 2.42 0 0 0 2.5 9.596V4.5h19v5.096a2.42 2.42 0 0 0-1.427.838Q19.5 11.108 19.5 12q0 .893.573 1.566.573.675 1.427.838V19.5zM4 18h16v-2.55a4.1 4.1 0 0 1-1.462-1.462A3.85 3.85 0 0 1 18 12q0-1.076.538-1.988A4.1 4.1 0 0 1 20 8.55V6H4v2.55a4.1 4.1 0 0 1 1.463 1.462Q6 10.926 6 12q0 1.076-.537 1.988A4.1 4.1 0 0 1 4 15.45z"/></svg>