<svg xmlns="http://www.w3.org/2000/svg" width="24" height="24" viewBox="0 0 24 24" fill='currentColor'><path d="M12.002 15.25a3.6 3.6 0 0 0 2.651-1.099A3.62 3.62 0 0 0 15.75 11.5a3.6 3.6 0 0 0-1.099-2.652A3.62 3.62 0 0 0 12 7.75a3.6 3.6 0 0 0-2.652 1.099 3.62 3.62 0 0 0-1.097 2.653 3.6 3.6 0 0 0 1.099 2.651 3.62 3.62 0 0 0 2.653 1.097m-.752 7.5v-2h-2v-1.5h2v-2.561a5.18 5.18 0 0 1-3.215-1.76Q6.75 13.462 6.75 11.5a5.3 5.3 0 0 1 1.027-3.139L6.704 7.288l-1.4 1.4L4.26 7.644l1.4-1.415-2.41-2.41V6.75h-1.5v-5.5h5.5v1.5H4.32l2.409 2.41 1.415-1.4 1.044 1.044-1.4 1.415 1.083 1.083q.675-.519 1.48-.786a5.2 5.2 0 0 1 3.298 0q.805.267 1.48.786L19.68 2.75h-2.93v-1.5h5.5v5.5h-1.5V3.82l-4.552 4.536q.504.69.778 1.487a5 5 0 0 1 .274 1.657q0 1.961-1.285 3.429a5.18 5.18 0 0 1-3.215 1.76v2.561h2v1.5h-2v2z"/></svg>