<svg xmlns="http://www.w3.org/2000/svg" width="24" height="24" viewBox="0 0 24 24" fill='currentColor'><path d="M11.9 21.5 16.354 10h1.561l4.454 11.5h-1.59l-1.133-3.05h-5.023L13.49 21.5zm-7.89-2.942-1.054-1.054 4.973-4.983a13 13 0 0 1-1.645-2.077A14.5 14.5 0 0 1 5 8h1.59q.433.907 1.053 1.816.62.906 1.34 1.651 1.065-1.075 2.015-2.61Q11.947 7.32 12.341 6H1.692V4.5H8.25V2.885h1.5V4.5h6.558V6H13.86q-.488 1.685-1.551 3.522-1.065 1.838-2.272 3.03l2.467 2.527-.567 1.54-2.954-3.029zm11.094-1.435h4.061l-2.03-5.456z"/></svg>