<svg xmlns="http://www.w3.org/2000/svg" width="24" height="24" viewBox="0 0 24 24" fill='currentColor'><path d="M18.06 15.469a9.3 9.3 0 0 1-2.043-2.912 8.55 8.55 0 0 1-.757-3.56q0-1.882.757-3.555A9.4 9.4 0 0 1 18.06 2.53l1.146 1.177a7.6 7.6 0 0 0-1.682 2.386A7 7 0 0 0 16.914 9q0 1.548.61 2.922a7.5 7.5 0 0 0 1.682 2.4zm3.257-3.258a4.6 4.6 0 0 1-1.048-1.447A4.15 4.15 0 0 1 19.887 9q0-.957.382-1.774a4.6 4.6 0 0 1 1.048-1.438l1.177 1.177q-.42.406-.672.91A2.5 2.5 0 0 0 21.572 9q0 .601.25 1.115t.672.919zm-12.461.288q-1.444 0-2.472-1.028T5.356 9t1.028-2.472T8.856 5.5t2.472 1.028T12.356 9t-1.028 2.471Q10.299 12.5 8.856 12.5m-7.5 7.616v-2.223a2.52 2.52 0 0 1 1.465-2.323q1.245-.621 2.789-1.038a12.4 12.4 0 0 1 3.246-.416q1.704 0 3.246.416 1.543.417 2.788 1.038.693.336 1.08.95.386.615.386 1.373v2.223zm1.5-1.5h12v-.723a.94.94 0 0 0-.186-.587 1.45 1.45 0 0 0-.468-.398q-.92-.47-2.332-.88a10.7 10.7 0 0 0-3.014-.412q-1.602 0-3.015.411-1.412.412-2.331.881a1.45 1.45 0 0 0-.469.398.94.94 0 0 0-.185.587zm6-7.615q.825 0 1.412-.588.588-.588.588-1.412 0-.825-.588-1.413A1.93 1.93 0 0 0 8.856 7q-.825 0-1.413.587A1.93 1.93 0 0 0 6.856 9q0 .825.587 1.412.588.587 1.413.587"/></svg>