<svg xmlns="http://www.w3.org/2000/svg" width="24" height="24" viewBox="0 0 24 24" fill='currentColor'><path d="M12 21.5a9.2 9.2 0 0 1-3.703-.749 9.6 9.6 0 0 1-3.016-2.032 9.6 9.6 0 0 1-2.032-3.016A9.2 9.2 0 0 1 2.5 12q0-1.97.749-3.703a9.6 9.6 0 0 1 2.032-3.016 9.6 9.6 0 0 1 3.016-2.032A9.2 9.2 0 0 1 12 2.5q3.573 0 6.21 2.297t3.157 5.719h-1.53a7.9 7.9 0 0 0-1.64-3.58A7.7 7.7 0 0 0 15 4.58V5q0 .824-.588 1.412A1.93 1.93 0 0 1 13 7h-2v2q0 .424-.287.713A.97.97 0 0 1 10 10H8v2h1.923v3H9l-4.8-4.8q-.075.45-.138.9Q4 11.55 4 12q0 3.274 2.3 5.625T12 20zm9.061-.385-3.325-3.305a4.8 4.8 0 0 1-1.047.5q-.562.19-1.189.19-1.672 0-2.836-1.163T11.5 14.5q0-1.672 1.164-2.836Q13.826 10.5 15.5 10.5q1.672 0 2.837 1.164Q19.5 12.826 19.5 14.5q0 .636-.195 1.203-.195.566-.515 1.053l3.325 3.305zM15.5 17q1.05 0 1.775-.725T18 14.5t-.725-1.775T15.5 12t-1.775.725T13 14.5t.725 1.775T15.5 17"/></svg>