<svg xmlns="http://www.w3.org/2000/svg" width="24" height="24" viewBox="0 0 24 24" fill='currentColor'><path d="M4.5 17V5H2.25V3.5H6v12h15V17zm1.721 4.442q-.72 0-1.225-.506a1.67 1.67 0 0 1-.506-1.224q.001-.72.506-1.226a1.67 1.67 0 0 1 1.225-.505q.72 0 1.225.505.506.506.506 1.226 0 .718-.506 1.224a1.67 1.67 0 0 1-1.225.506m1.164-7.326V8.885h5.23v5.23zm1.5-1.5h2.23v-2.231h-2.23zm5.5 1.5V8.885h5.23v5.23zm1.5-1.5h2.23v-2.231h-2.23zm3.374 8.826q-.72 0-1.22-.506a1.68 1.68 0 0 1-.5-1.224q0-.72.5-1.226.5-.505 1.22-.505.718 0 1.23.505.51.506.511 1.226 0 .718-.512 1.224-.51.507-1.23.506"/></svg>