<svg xmlns="http://www.w3.org/2000/svg" width="24" height="24" viewBox="0 0 24 24" fill='currentColor'><path d="M2.25 20.73v-1.5a3.85 3.85 0 0 0 1.537-.362q.702-.333 1.538-.935a6.5 6.5 0 0 0 1.647.949 4.7 4.7 0 0 0 1.703.343 5 5 0 0 0 1.73-.33 5.4 5.4 0 0 0 1.62-.943 5.6 5.6 0 0 0 1.636.962q.845.31 1.714.311.844 0 1.627-.306t1.723-.986q.88.654 1.58.957.703.302 1.445.34v1.5a5.7 5.7 0 0 1-1.52-.265 7.5 7.5 0 0 1-1.505-.678 6.44 6.44 0 0 1-3.35.963 6.3 6.3 0 0 1-1.678-.236 6.5 6.5 0 0 1-1.681-.737 5.8 5.8 0 0 1-1.61.729 6.4 6.4 0 0 1-1.731.244q-.831 0-1.68-.24a7 7 0 0 1-1.67-.724q-.727.421-1.507.664a6.3 6.3 0 0 1-1.568.28m0-4V14.5q0-2.339.904-4.352A10.8 10.8 0 0 1 5.64 6.657Q7.222 5.179 9.37 4.34 11.52 3.5 14 3.5q.72 0 1.426.068a12 12 0 0 1 1.28.19 7 7 0 0 0-.707 1.596 5.5 5.5 0 0 0-.249 1.571q0 1.48 1.047 2.528a3.45 3.45 0 0 0 2.528 1.047h2.425V12h-2.425q-2.12 0-3.597-1.478-1.478-1.477-1.478-3.597 0-.436.084-.93a6.4 6.4 0 0 1 .222-.916q-2.11.43-3.458 2.004Q9.75 8.655 9.75 10.76q0 1.063.307 1.991.306.928.937 1.835a6 6 0 0 0 .492-.306l.523-.357a5.6 5.6 0 0 0 1.675.962q.932.34 1.691.34.75 0 1.66-.348a6.5 6.5 0 0 0 1.69-.954q.771.563 1.506.915.735.354 1.519.393v1.5a5.5 5.5 0 0 1-1.485-.271 8 8 0 0 1-1.54-.702 6.6 6.6 0 0 1-1.668.756 6.1 6.1 0 0 1-1.682.236 6 6 0 0 1-1.738-.27 6.3 6.3 0 0 1-1.612-.722 6.5 6.5 0 0 1-1.668.755 6.8 6.8 0 0 1-1.682.237 5.6 5.6 0 0 1-1.691-.225 7.3 7.3 0 0 1-1.659-.738q-.727.42-1.507.663a6.3 6.3 0 0 1-1.568.28m6.375-1.505q.24 0 .48-.024.241-.024.424-.078a8.5 8.5 0 0 1-.967-2.106 8 8 0 0 1-.312-2.257q0-2.15 1.088-3.831 1.089-1.68 3.037-2.635v.86q-1.83.265-3.377 1.049a9.8 9.8 0 0 0-2.684 1.972 9.2 9.2 0 0 0-2.548 6.017v.635q.422-.177.798-.38.377-.205.761-.495.906.656 1.66.964.756.309 1.64.309"/></svg>