<svg xmlns="http://www.w3.org/2000/svg" width="24" height="24" viewBox="0 0 24 24" fill='currentColor'><path d="M9 21h6v-5.702a4.27 4.27 0 0 1-3 1.202 4.27 4.27 0 0 1-3-1.202zm3-6q1.25 0 2.125-.875A2.9 2.9 0 0 0 15 12q0-1.25-.875-2.125A2.9 2.9 0 0 0 12 9q-1.25 0-2.125.875A2.9 2.9 0 0 0 9 12q0 1.25.875 2.125A2.9 2.9 0 0 0 12 15M9 8.702A4.27 4.27 0 0 1 12 7.5a4.27 4.27 0 0 1 3 1.202V3H9zM7.5 22.5v-21h9v21zm4.5-9.125q-.573 0-.974-.401a1.33 1.33 0 0 1-.401-.974q0-.573.401-.974.4-.4.974-.401.573 0 .974.401.4.4.401.974 0 .573-.401.974a1.33 1.33 0 0 1-.974.401m0-7.51q.367 0 .616-.248a.84.84 0 0 0 .25-.617.84.84 0 0 0-.25-.616.84.84 0 0 0-.616-.25.84.84 0 0 0-.616.25.84.84 0 0 0-.25.616q0 .367.25.616a.84.84 0 0 0 .616.25"/></svg>