<svg xmlns="http://www.w3.org/2000/svg" width="24" height="24" viewBox="0 0 24 24" fill='currentColor'><path d="M4 18.75a3.6 3.6 0 0 1-2.652-1.098A3.6 3.6 0 0 1 .25 15q0-1.416.937-2.467a3.62 3.62 0 0 1 2.351-1.221h.366l-1.142-.966H.25V9.154h4.02l2.71 1.615 4.06-1.519h3.63l-1.953-2.5H10.25v-1.5h3.185l1.984 2.546 3.158-1.392v2.365H16.2l2.192 2.839q.375-.189.782-.273T20 11.25q1.554 0 2.652 1.098A3.6 3.6 0 0 1 23.75 15q0 1.554-1.098 2.652A3.6 3.6 0 0 1 20 18.75a3.6 3.6 0 0 1-2.652-1.098A3.6 3.6 0 0 1 16.25 15q0-.694.257-1.327.256-.633.72-1.154l-.846-1.061-3.497 5.292h-2.788L7.75 14.711v.443a3.7 3.7 0 0 1-1.16 2.552A3.6 3.6 0 0 1 4 18.75m0-1.5q.94 0 1.595-.655.655-.654.655-1.595 0-.94-.655-1.595A2.17 2.17 0 0 0 4 12.75q-.94 0-1.595.655A2.17 2.17 0 0 0 1.75 15q0 .94.655 1.595.654.655 1.595.655m16 0q.94 0 1.595-.655.655-.654.655-1.595 0-.94-.655-1.595A2.17 2.17 0 0 0 20 12.75q-.94 0-1.595.655A2.17 2.17 0 0 0 17.75 15q0 .94.655 1.595.654.655 1.595.655m-7.915-2 2.976-4.5h-3.75L7.27 12.254l3.385 2.996z"/></svg>