<svg xmlns="http://www.w3.org/2000/svg" width="24" height="24" viewBox="0 0 24 24" fill='currentColor'><path d="m2.337 12.42.84-1.29 7.65 7.204q.33.305.735.461a2.24 2.24 0 0 0 1.46.064 2.4 2.4 0 0 0 .563-.246l8.155-5.15v1.735l-7.375 4.648a4 4 0 0 1-.95.434 3.7 3.7 0 0 1-1.065.153q-.701 0-1.359-.268a4 4 0 0 1-1.193-.765zm10.557 4.859a.85.85 0 0 0 .626-.259.85.85 0 0 0 .259-.626q0-.078-.177-.473l3.511-2.196q.097.219.304.343a.9.9 0 0 0 .458.124.85.85 0 0 0 .626-.258.85.85 0 0 0 .258-.626.84.84 0 0 0-.22-.572.87.87 0 0 0-.541-.298h-.02a.4.4 0 0 0 .048-.134 1 1 0 0 0 .012-.16.85.85 0 0 0-.258-.626.85.85 0 0 0-.626-.258.85.85 0 0 0-.626.258.85.85 0 0 0-.259.626q0 .1.214.55l-3.512 2.172a.87.87 0 0 0-.798-.51.85.85 0 0 0-.626.258.85.85 0 0 0-.258.627q0 .32.22.572a.88.88 0 0 0 .56.297.4.4 0 0 0-.047.134 1 1 0 0 0-.012.15q0 .368.258.626a.85.85 0 0 0 .626.259M6.771 5.883l.825-1.258q1.895.982 3.446 2.643t2.237 3.43q.967-1.104 2.045-1.705 1.078-.6 3.143-1.155 1.035-.285 1.805-.553a15 15 0 0 0 1.468-.593v1.614q-.636.255-1.33.486a29 29 0 0 1-1.543.462q-2.157.57-3.229 1.268-1.07.699-2 2.172a.8.8 0 0 1-.258.239.73.73 0 0 1-.38.096.7.7 0 0 1-.457-.168.74.74 0 0 1-.258-.415q-.45-1.881-1.984-3.705-1.535-1.826-3.53-2.858M3.177 11.13q1.723 1.617 3.815 3.592t3.835 3.611q.33.305.735.461a2.24 2.24 0 0 0 1.46.064 2.4 2.4 0 0 0 .563-.246q1.623-1.012 3.985-2.505a1226 1226 0 0 0 4.17-2.645l-8.155 5.15a2.4 2.4 0 0 1-.563.247 2.24 2.24 0 0 1-1.46-.065 2.3 2.3 0 0 1-.735-.46z"/></svg>