<svg xmlns="http://www.w3.org/2000/svg" width="24" height="24" viewBox="0 0 24 24" fill='currentColor'><path d="M12 21.75a.8.8 0 0 1-.423-.12.72.72 0 0 1-.287-.382L6.376 6.421l3.183.773L11.25 5.9V3.4q0-.894.653-1.522.652-.628 1.597-.628t1.597.628q.653.628.653 1.522V4h-1.5v-.6a.68.68 0 0 0-.222-.52.75.75 0 0 0-.528-.205.73.73 0 0 0-.528.215.7.7 0 0 0-.222.51v2.5l1.692 1.294 3.183-.773-4.915 14.802a.8.8 0 0 1-.287.395.73.73 0 0 1-.423.132m.75-5.382 2.575-7.874-1.217.312L12.75 7.8zm-1.5 0V7.8L9.892 8.83 8.64 8.486z"/></svg>