<svg xmlns="http://www.w3.org/2000/svg" width="24" height="24" viewBox="0 0 24 24" fill='currentColor'><path d="m19.804 21.942-2.962-2.961a8.8 8.8 0 0 1-2.26 1.118 8.2 8.2 0 0 1-2.573.401 8.3 8.3 0 0 1-3.315-.67 8.6 8.6 0 0 1-2.696-1.818 8.6 8.6 0 0 1-1.819-2.697A8.3 8.3 0 0 1 3.509 12q0-1.363.406-2.578a8.8 8.8 0 0 1 1.123-2.245l-2.98-2.98 1.069-1.07 17.746 17.746zM12.01 19q1.034 0 1.982-.294a7 7 0 0 0 1.756-.82L6.113 8.253a7 7 0 0 0-.814 1.76A6.7 6.7 0 0 0 5.009 12q0 2.925 2.038 4.962T12.009 19m2.923-9.77v-1.5h2.615a7.6 7.6 0 0 0-2.467-2.002A6.7 6.7 0 0 0 12.009 5q-.91 0-1.751.212a6.8 6.8 0 0 0-1.593.622L7.581 4.75a8.8 8.8 0 0 1 2.086-.921 8.2 8.2 0 0 1 2.342-.33q1.887.001 3.585.794a8.5 8.5 0 0 1 2.915 2.23v-2.37h1.5v5.078zm-2.174.699-1.5-1.5v-1.43h1.5zm6.5 6.5-1.093-1.094q.285-.55.476-1.126.192-.575.277-1.209h1.531a8.4 8.4 0 0 1-1.19 3.429"/></svg>