<svg xmlns="http://www.w3.org/2000/svg" width="24" height="24" viewBox="0 0 24 24" fill='currentColor'><path d="M9.404 22.24v-2.048H8.058l-.821-5h2.167v-1.56q-.288.187-.594.277-.305.09-.656.09-2.346 0-3.952-1.687T2.596 8.25v-.885q0-2.374 1.606-4.062t3.952-1.688q1.144 0 1.947.803t.803 1.947-.803 1.947a2.65 2.65 0 0 1-1.947.803h-1.75v-1.5h1.75q.521 0 .886-.364.364-.364.364-.886 0-.521-.364-.886a1.2 1.2 0 0 0-.886-.364q-1.708 0-2.883 1.257T4.096 7.365v.885q0 1.736 1.175 2.993T8.154 12.5q.521 0 .886-.365.364-.365.364-.885 0-.522-.364-.886A1.2 1.2 0 0 0 8.154 10h-1.75V8.5h1.75q1.144 0 1.947.803.803.802.803 1.947v3.942h2.192V11.25q0-1.144.803-1.947a2.65 2.65 0 0 1 1.947-.803h1.75V10h-1.75q-.521 0-.886.364a1.2 1.2 0 0 0-.364.886q0 .52.364.885.365.365.886.365 1.709 0 2.883-1.257 1.175-1.257 1.175-2.993v-.885q0-1.736-1.175-2.993t-2.883-1.257q-.521 0-.886.364a1.2 1.2 0 0 0-.364.886q0 .522.364.886.365.364.886.364h1.75v1.5h-1.75a2.65 2.65 0 0 1-1.947-.803 2.65 2.65 0 0 1-.803-1.947q0-1.144.803-1.947a2.65 2.65 0 0 1 1.947-.803q2.346 0 3.952 1.688t1.606 4.062v.885q0 2.375-1.606 4.062T15.846 14q-.351 0-.656-.09a2.3 2.3 0 0 1-.594-.277v1.559h2.168l-.822 5h-1.346v2.048h-1.5v-2.048h-2.192v2.048zm-.079-3.548h5.35l.325-2H9z"/></svg>