<svg xmlns="http://www.w3.org/2000/svg" width="24" height="24" viewBox="0 0 24 24" fill='currentColor'><path d="m19.746 22.134-6.384-6.384h-.612v2.511q.465.203.733.626.267.425.267.92 0 .73-.51 1.24-.511.51-1.24.51t-1.24-.51-.51-1.24q0-.495.275-.912.275-.416.725-.634V15.75h-3q-.748 0-1.278-.53a1.74 1.74 0 0 1-.53-1.278v-2.204a1.6 1.6 0 0 1-.732-.626 1.7 1.7 0 0 1-.268-.92q0-.483.25-.87.248-.387.685-.557L2 4.388 3.07 3.32l17.745 17.746zm-2.384-7.353-1.304-1.314v-1.525h-1v-3.5h3.5v3.5h-1v2q0 .23-.046.44-.045.209-.15.399M8.25 14.25h3v-.612l-2.63-2.63a1 1 0 0 1-.245.443 1.14 1.14 0 0 1-.433.287v2.204a.3.3 0 0 0 .087.221.3.3 0 0 0 .221.087m4.5-4.08-1.5-1.5V6.134H9.5L12 2.808l2.5 3.327h-1.75z"/></svg>