<svg xmlns="http://www.w3.org/2000/svg" width="24" height="24" viewBox="0 0 24 24" fill='currentColor'><path d="M14.183 6.865v-1.5h7.5v1.5zm0 3.885v-1.5h7.5v1.5zm0 3.884v-1.5h7.5v1.5zm-6.248-.827a2.53 2.53 0 0 1-1.853-.762 2.52 2.52 0 0 1-.765-1.85q0-1.09.763-1.854a2.52 2.52 0 0 1 1.85-.764q1.089 0 1.854.762t.764 1.85q0 1.09-.762 1.854a2.52 2.52 0 0 1-1.851.765m-5.618 5.616v-1.515q0-.426.207-.812a1.6 1.6 0 0 1 .57-.611 9.4 9.4 0 0 1 2.294-.965 9.7 9.7 0 0 1 2.545-.328q1.338 0 2.545.328t2.293.965a1.6 1.6 0 0 1 .57.611q.207.386.207.811v1.516zM3.91 17.77v.154h8.046v-.154a8.3 8.3 0 0 0-1.951-.803 7.94 7.94 0 0 0-4.144 0q-1.02.274-1.951.803m4.023-5.461q.463-.001.789-.326.326-.327.326-.79t-.326-.79a1.08 1.08 0 0 0-.79-.325q-.462 0-.789.326-.326.326-.326.789t.326.79q.326.325.79.325"/></svg>