<svg xmlns="http://www.w3.org/2000/svg" width="24" height="24" viewBox="0 0 24 24" fill='currentColor'><path d="M4.001 21.75a2.65 2.65 0 0 1-1.948-.802 2.65 2.65 0 0 1-.803-1.947q0-1.145.802-1.948a2.65 2.65 0 0 1 1.947-.803q1.145 0 1.948.802.803.801.803 1.947t-.802 1.948a2.65 2.65 0 0 1-1.947.803M4 20.25q.522 0 .886-.364.363-.364.364-.886 0-.522-.364-.886A1.2 1.2 0 0 0 4 17.75q-.522 0-.885.364A1.2 1.2 0 0 0 2.75 19q0 .522.365.886.363.364.885.364m3.875 1.5a3.7 3.7 0 0 0 .423-.716 5 5 0 0 0 .265-.784h2.302V13q0-.929-.66-1.589t-1.59-.661H3.75v3.52a5 5 0 0 0-.773.085q-.392.075-.727.218V9.25h3V5.6q0-1.82 1.265-3.085T9.599 1.25q1.325 0 2.412.72a4.25 4.25 0 0 1 1.599 1.926l6.902 16.354h2.238v1.5h-6.5v-1.5h2.635L12.246 4.504a2.8 2.8 0 0 0-1.054-1.278 2.8 2.8 0 0 0-1.588-.476q-1.2 0-2.027.827T6.75 5.6v3.65h1.865q1.554 0 2.652 1.098A3.6 3.6 0 0 1 12.365 13v8.75z"/></svg>