<svg xmlns="http://www.w3.org/2000/svg" width="24" height="24" viewBox="0 0 24 24" fill='currentColor'><path d="M17.74 19.5h-6.026a5.7 5.7 0 0 0 .705-1.5h3.822V6h-12v3.554a5 5 0 0 0-.786.281 6 6 0 0 0-.715.39V4.5h15v6.385l3.52-3.52v9.27l-3.52-3.52zM6 20.5q-1.873 0-3.186-1.314Q1.5 17.874 1.5 16t1.314-3.187T6 11.5q1.873 0 3.187 1.313Q10.5 14.128 10.5 16t-1.313 3.186T6 20.5m0-1.788a.46.46 0 0 0 .34-.14.46.46 0 0 0 .14-.341.46.46 0 0 0-.14-.34.46.46 0 0 0-.34-.141.46.46 0 0 0-.34.14.46.46 0 0 0-.14.34q0 .201.14.341t.34.14m-.442-1.924h.884v-3.5h-.884z"/></svg>