<svg xmlns="http://www.w3.org/2000/svg" width="24" height="24" viewBox="0 0 24 24" fill='currentColor'><path d="M7.702 19.5q-1.327 0-2.264-.937a3.08 3.08 0 0 1-.938-2.264q0-1.326.938-2.264a3.08 3.08 0 0 1 2.264-.939h10.596q1.327 0 2.264.938.938.936.938 2.263t-.938 2.264a3.08 3.08 0 0 1-2.264.939zm0-1.5h10.596a1.64 1.64 0 0 0 1.206-.497q.495-.496.496-1.207 0-.71-.497-1.205a1.64 1.64 0 0 0-1.205-.495H7.702a1.64 1.64 0 0 0-1.205.497A1.64 1.64 0 0 0 6 16.3q0 .71.497 1.205.495.495 1.205.495m-2-7.096q-1.327 0-2.264-.937A3.08 3.08 0 0 1 2.5 7.703q0-1.326.938-2.264A3.08 3.08 0 0 1 5.702 4.5h10.596q1.327 0 2.264.938.938.937.938 2.263t-.938 2.265a3.1 3.1 0 0 1-2.264.938zm-.01-1.5h10.606a1.64 1.64 0 0 0 1.206-.497Q17.999 8.41 18 7.7q0-.71-.497-1.205A1.64 1.64 0 0 0 16.298 6H5.692q-.705 0-1.199.497A1.65 1.65 0 0 0 4 7.704q0 .71.494 1.205.493.495 1.198.495"/></svg>