<svg xmlns="http://www.w3.org/2000/svg" width="24" height="24" viewBox="0 0 24 24" fill='currentColor'><path d="M15.773 12.973 14.65 11.85q.225-1.242-.709-2.234-.933-.99-2.291-.766l-1.123-1.123A3.45 3.45 0 0 1 12 7.423q1.702 0 2.89 1.187 1.187 1.188 1.187 2.89 0 .423-.076.788t-.228.685m3.18 3.111L17.85 15.05a11 11 0 0 0 1.688-1.588A9 9 0 0 0 20.8 11.5q-1.25-2.526-3.588-4.013T12 6q-.724 0-1.425.1a10 10 0 0 0-1.375.3L8.035 5.235a10 10 0 0 1 1.936-.556q.989-.18 2.029-.18 3.516 0 6.34 1.94 2.825 1.938 4.122 5.06-.557 1.34-1.436 2.503a11 11 0 0 1-2.072 2.082m.809 5.785-4.046-4.015q-.77.285-1.705.465-.936.18-2.011.18-3.525 0-6.34-1.938Q2.845 14.622 1.54 11.5q.554-1.325 1.43-2.472a11.4 11.4 0 0 1 1.93-1.99l-2.77-2.8 1.055-1.053 17.63 17.63zM5.954 8.092q-.792.63-1.541 1.517-.75.885-1.213 1.89 1.25 2.526 3.587 4.013T12 17a8 8 0 0 0 1.36-.116q.676-.114 1.148-.238l-1.266-1.296q-.256.104-.592.165a3.6 3.6 0 0 1-.65.062q-1.702 0-2.89-1.188-1.187-1.187-1.187-2.89 0-.303.062-.635.06-.33.165-.606z"/></svg>