<svg xmlns="http://www.w3.org/2000/svg" width="24" height="24" viewBox="0 0 24 24" fill='currentColor'><path d="m16.117 18.872-1.069-1.055q.573-.572.887-1.308.315-.735.315-1.565 0-.828-.315-1.564a4.1 4.1 0 0 0-.887-1.309l1.07-1.069a5.6 5.6 0 0 1 1.201 1.786q.43 1.014.431 2.156 0 1.143-.43 2.15a5.6 5.6 0 0 1-1.203 1.777m2.614 2.628-1.07-1.069a7.8 7.8 0 0 0 1.683-2.488 7.6 7.6 0 0 0 .598-2.999q0-1.611-.598-3.006a7.9 7.9 0 0 0-1.683-2.48l1.07-1.07a9.3 9.3 0 0 1 2.002 2.972q.71 1.68.71 3.585 0 1.89-.71 3.576a9.2 9.2 0 0 1-2.002 2.98M2.5 21.5V20h4.494v-1.075a4.07 4.07 0 0 1-1.817-1.499 3.87 3.87 0 0 1-.677-2.199v-1.88h4v-2.904h2.775L8.773 3.844l1.414-.573 2.979 7.922v.75H10v2.904H6v.4q0 .875.566 1.547.567.672 1.45.897l.524.075V21.5z"/></svg>