<svg xmlns="http://www.w3.org/2000/svg" width="24" height="24" viewBox="0 0 24 24" fill='currentColor'><path d="M15.789 14.673q1.125 0 1.913-.78t.788-1.894-.788-1.898a2.6 2.6 0 0 0-1.914-.784q-1.115 0-1.904.783a2.58 2.58 0 0 0-.788 1.9q0 .331.081.618.08.285.248.555h-2.85q.168-.27.248-.555.08-.287.08-.618 0-1.118-.787-1.9a2.6 2.6 0 0 0-1.905-.783q-1.115 0-1.903.782a2.58 2.58 0 0 0-.789 1.9q0 1.116.789 1.895a2.6 2.6 0 0 0 1.903.779zm-7.578-1.5a1.16 1.16 0 0 1-.847-.34 1.13 1.13 0 0 1-.345-.838q0-.496.343-.837.342-.34.85-.34.501 0 .851.34t.35.841-.35.838a1.2 1.2 0 0 1-.852.336m7.578 0a1.16 1.16 0 0 1-.848-.34 1.13 1.13 0 0 1-.345-.838q0-.496.343-.837t.85-.34q.501 0 .851.34t.35.841-.35.838a1.2 1.2 0 0 1-.851.336M2.5 19.5v-15h19v15zM4 18h16V6H4z"/></svg>