<svg xmlns="http://www.w3.org/2000/svg" width="24" height="24" viewBox="0 0 24 24" fill='currentColor'><path d="m14.01 22.212-7.308-2.085V21.5h-5v-9.577h7.162l7.703 2.846v1.808H21.5v3.307zM3.201 20h2v-6.577h-2zm10.758.63 5.979-1.84v-.713H12.94l-3.116-1.03.466-1.43 2.925.96h1.851v-.785L8.61 13.423H6.702v5.154zm1.886-7.938L11.89 8.864a7 7 0 0 1-1.207-1.542 3.64 3.64 0 0 1-.49-1.849q0-1.239.867-2.106a2.87 2.87 0 0 1 2.106-.867q.81 0 1.496.39t1.185.995a4.3 4.3 0 0 1 1.186-.994 2.97 2.97 0 0 1 1.495-.391q1.239 0 2.106.867t.867 2.106q0 1-.482 1.85a6.8 6.8 0 0 1-1.199 1.54zm0-2.088 2.86-2.771q.504-.495.899-1.075Q20 6.177 20 5.473q0-.618-.428-1.045A1.42 1.42 0 0 0 18.527 4a1.6 1.6 0 0 0-.87.248 2.8 2.8 0 0 0-.695.629l-1.116 1.358-1.115-1.358a2.8 2.8 0 0 0-.697-.629A1.6 1.6 0 0 0 13.166 4q-.617 0-1.045.428a1.42 1.42 0 0 0-.428 1.045q0 .705.396 1.285.395.58.899 1.075z"/></svg>