<svg xmlns="http://www.w3.org/2000/svg" width="24" height="24" viewBox="0 0 24 24" fill='currentColor'><path d="M12 21.5a9.2 9.2 0 0 1-3.703-.749 9.6 9.6 0 0 1-3.016-2.032 9.6 9.6 0 0 1-2.032-3.016A9.2 9.2 0 0 1 2.5 12q0-1.97.749-3.703a9.6 9.6 0 0 1 2.032-3.016 9.6 9.6 0 0 1 3.016-2.032A9.2 9.2 0 0 1 12 2.5q.507 0 .995.048t.97.173l-.392 1.44a6.5 6.5 0 0 0-1.496-.17 9.2 9.2 0 0 0-1.376 2.049q-.543 1.106-.872 2.287h3.902v1.5H9.515q-.093.539-.136 1.082a14 14 0 0 0 0 2.182q.043.544.136 1.082h4.97q.094-.539.136-1.062.042-.525.043-.957h1.5a12 12 0 0 1-.18 2.019h3.718a7.7 7.7 0 0 0 .298-2.02h1.5q0 1.874-.749 3.574a9.7 9.7 0 0 1-2.032 2.978 9.8 9.8 0 0 1-3.016 2.036A9.1 9.1 0 0 1 12 21.5m-7.702-7.327h3.717q-.093-.539-.136-1.082a14 14 0 0 1 0-2.182q.042-.544.136-1.082H4.298q-.154.539-.226 1.082a8.3 8.3 0 0 0 0 2.182q.072.544.226 1.082m5.735 5.55a9 9 0 0 1-1.039-1.875 15.5 15.5 0 0 1-.705-2.175H4.912a7.7 7.7 0 0 0 2.118 2.592 7.7 7.7 0 0 0 3.003 1.458M4.927 8.327h3.362q.303-1.125.73-2.158.425-1.032 1.014-1.892a7.35 7.35 0 0 0-2.998 1.444 7.8 7.8 0 0 0-2.108 2.606M12 19.948a13.1 13.1 0 0 0 2.171-4.275H9.83q.35 1.181.887 2.257.538 1.076 1.284 2.018m1.967-.225a7.3 7.3 0 0 0 3.01-1.445 7.9 7.9 0 0 0 2.111-2.605h-3.377q-.332 1.115-.744 2.153a9.6 9.6 0 0 1-1 1.897m1.764-9.57V5.386h1.01v-1q0-.787.549-1.336a1.82 1.82 0 0 1 1.335-.549q.787 0 1.335.549.55.549.55 1.336v1h.99v4.769zm1.894-4.768h2v-1a.97.97 0 0 0-.288-.713.97.97 0 0 0-.712-.287.97.97 0 0 0-.712.287.97.97 0 0 0-.288.713z"/></svg>