<svg xmlns="http://www.w3.org/2000/svg" width="24" height="24" viewBox="0 0 24 24" fill='currentColor'><path d="M19.804 21.942 12.362 14.5h-.5a5.55 5.55 0 0 1-1.97 2.17Q8.609 17.5 7 17.5q-2.292 0-3.896-1.604T1.5 12q0-1.698.935-3.054a5.15 5.15 0 0 1 2.438-1.935L2.058 4.196l1.069-1.069 17.746 17.746zM17 14.175 15.825 13H17zm3.433 3.433-1.5-1.5H19V13h2v-2h-7.175l-1.5-1.5H22.5v5h-2v3.108zM7 16q1.605 0 2.526-.899.921-.9 1.247-1.763h.443L6.062 8.185a3.78 3.78 0 0 0-2.187 1.337Q3 10.581 3 12q0 1.65 1.175 2.825T7 16m0-2.385q-.666 0-1.14-.474A1.56 1.56 0 0 1 5.384 12q0-.667.474-1.14A1.56 1.56 0 0 1 7 10.384q.666 0 1.14.474.475.474.475 1.141 0 .666-.474 1.14A1.56 1.56 0 0 1 7 13.616"/></svg>