<svg xmlns="http://www.w3.org/2000/svg" width="24" height="24" viewBox="0 0 24 24" fill='currentColor'><path d="m9.48 21.5-1.234-4.242a6.36 6.36 0 0 1-1.987-2.231A6.2 6.2 0 0 1 5.5 12q0-1.641.759-3.027.758-1.386 1.987-2.23L9.481 2.5h5.038l1.235 4.242q1.23.845 1.987 2.231.759 1.386.759 3.027a6.2 6.2 0 0 1-.759 3.027 6.36 6.36 0 0 1-1.987 2.23L14.519 21.5zM12 17q2.075 0 3.537-1.463Q17 14.075 17 12t-1.463-3.537Q14.075 7 12 7T8.463 8.463 7 12t1.463 3.537T12 17M10.08 5.789q.51-.145.978-.224a5.6 5.6 0 0 1 1.884 0q.467.08.977.223L13.384 4h-2.768zM10.617 20h2.768l.535-1.788q-.51.144-.977.211a6.6 6.6 0 0 1-1.884 0 8 8 0 0 1-.977-.211zm.334-5.18-2.494-2.47 1.069-1.054 1.425 1.41 3.525-3.525 1.07 1.044z"/></svg>