<svg xmlns="http://www.w3.org/2000/svg" width="24" height="24" viewBox="0 0 24 24" fill='currentColor'><path d="M18.462 16.5V15h1.73v1.5zm0-3.75v-1.5h2.73v1.5zm0-3.75V7.475h3.73V9zM7.519 21.096 6.4 17.258q-1.23-.844-1.987-2.23A6.2 6.2 0 0 1 3.654 12q0-1.64.759-3.027.758-1.386 1.987-2.23l1.12-3.839h5.269l1.119 3.839q1.228.843 1.987 2.23T16.654 12a6.2 6.2 0 0 1-.759 3.027q-.759 1.387-1.987 2.231l-1.12 3.838zM10.154 17q2.074 0 3.537-1.462T15.154 12q0-2.074-1.463-3.537T10.154 7Q8.078 7 6.616 8.463T5.154 12q0 2.076 1.462 3.538T10.154 17M8.234 5.79q.51-.144.976-.224a5.6 5.6 0 0 1 1.888 0q.465.08.975.224l-.42-1.385h-3zm.42 13.807h3l.419-1.384q-.51.144-.975.211a6.6 6.6 0 0 1-1.888 0 8 8 0 0 1-.975-.211zm0 0h-.42 3.839z"/></svg>