<svg xmlns="http://www.w3.org/2000/svg" width="24" height="24" viewBox="0 0 24 24" fill='currentColor'><path d="M3.25 17h4.677a6.3 6.3 0 0 1-1.037-1.002 5.7 5.7 0 0 1-.782-1.248H3.25zM12 17q2.075 0 3.537-1.463Q17 14.074 17 12q0-2.076-1.463-3.538T12 7Q9.925 7 8.463 8.462 7 9.924 7 12q0 2.074 1.463 3.537T12 17m5.892-7.75h2.858V7h-4.677q.57.434 1.037 1.002.469.567.782 1.248M1.75 19.384v-7.019h1.5v.885h2.392a4 4 0 0 1-.11-.613A6 6 0 0 1 5.5 12q0-2.716 1.892-4.608T12 5.5h8.75v-.885h1.5v7.02h-1.5v-.885h-2.392q.079.308.11.612.032.305.032.638 0 2.715-1.892 4.608T12 18.5H3.25v.884zM12 14.605q-.729 0-1.24-.51-.51-.51-.51-1.24 0-.487.209-.978.209-.49.777-1.368l.755-1.115.763 1.115q.585.896.79 1.376t.206.97q0 .73-.51 1.24-.511.51-1.24.51"/></svg>