<svg xmlns="http://www.w3.org/2000/svg" width="24" height="24" viewBox="0 0 24 24" fill='currentColor'><path d="M9.242 10.91q0 .57.23 1.088t.645.893a.2.2 0 0 1-.024-.078l-.005-.086a1.74 1.74 0 0 1 .547-1.104L12 10.289l1.36 1.35q.235.219.37.498.136.28.166.59 0 .047-.005.086a.2.2 0 0 1-.024.077q.4-.375.661-.876.26-.503.26-1.073 0-.524-.174-.995a2.7 2.7 0 0 0-.522-.865q-.255.135-.533.214a2.19 2.19 0 0 1-1.91-.37q-.6-.448-.83-1.158-.357.33-.65.7a5 5 0 0 0-.5.77 4 4 0 0 0-.317.819q-.11.42-.11.854M12 11.965l-.521.512a.7.7 0 0 0-.162.233.7.7 0 0 0-.052.278q0 .309.214.502a.75.75 0 0 0 .521.193.75.75 0 0 0 .521-.194.65.65 0 0 0 .214-.5.7.7 0 0 0-.052-.279.7.7 0 0 0-.162-.233zm-.096-6.446v1.602q0 .454.324.765.324.312.778.312.256 0 .466-.129t.386-.334l.184-.24a3.8 3.8 0 0 1 1.43 1.456q.509.92.509 1.99 0 1.653-1.164 2.794-1.163 1.14-2.817 1.14t-2.802-1.148-1.148-2.802q0-1.713 1.095-3.122t2.759-2.284M6.058 21.75q-.748 0-1.278-.53a1.74 1.74 0 0 1-.53-1.278V6q0-1.554 1.098-2.652A3.6 3.6 0 0 1 8 2.25h8q1.554 0 2.652 1.098A3.6 3.6 0 0 1 19.75 6v13.942q0 .749-.53 1.278-.53.53-1.278.53zm-.308-4v2.192a.3.3 0 0 0 .087.221.3.3 0 0 0 .22.087h11.885a.3.3 0 0 0 .221-.087.3.3 0 0 0 .087-.22V17.75q-1.039 0-1.512.5t-1.738.5q-1.273 0-1.685-.5T12 17.75t-1.315.5q-.411.5-1.685.5-1.263 0-1.7-.5t-1.55-.5m3.25-.5q.902 0 1.315-.5.411-.5 1.685-.5 1.283 0 1.728.5t1.272.5q.817 0 1.291-.5.475-.5 1.959-.5V6q0-.93-.66-1.59T16 3.75H8q-.93 0-1.59.66T5.75 6v10.25q1.475 0 1.916.5.443.5 1.334.5"/></svg>