<svg xmlns="http://www.w3.org/2000/svg" width="24" height="24" viewBox="0 0 24 24" fill='currentColor'><path d="M9.212 21.46q-2.915-.283-4.814-2.428Q2.5 16.887 2.5 13.8q0-2.326 1.862-5.1Q6.226 5.924 10 2.653q3.727 3.233 5.59 5.973t1.91 5.058v.123H16v-.123q-.048-1.815-1.556-4.087Q12.937 7.328 10 4.65 7.024 7.375 5.513 9.675 4 11.976 4 13.8q0 2.483 1.463 4.172 1.461 1.69 3.748 1.973zm2 .04v-5.692h4.692v3.73h-3.5V21.5zm6.038 0v-5.692h1.192v2h2.308v-2h1.192V21.5H20.75V19h-2.308v2.5zm-4.846-3.154h2.307V17.02h-2.307z"/></svg>