<svg xmlns="http://www.w3.org/2000/svg" width="24" height="24" viewBox="0 0 24 24" fill='currentColor'><path d="M12.246 18.847a.68.68 0 0 0 .431-.196.56.56 0 0 0 .17-.412.57.57 0 0 0-.185-.445.6.6 0 0 0-.472-.14q-1.024.075-2.232-.6-1.208-.676-1.508-2.352a.7.7 0 0 0-.214-.402.57.57 0 0 0-.392-.146.58.58 0 0 0-.455.205q-.181.204-.116.526.405 2.179 1.962 3.115 1.555.938 3.011.846m-.248 2.653q-3.21 0-5.355-2.206Q4.5 17.086 4.5 13.8q0-2.326 1.862-5.1Q8.226 5.924 12 2.653q3.776 3.271 5.637 6.045Q19.5 11.474 19.5 13.8q0 3.286-2.145 5.494Q15.21 21.5 11.998 21.5M12 20q2.6 0 4.3-1.762T18 13.8q0-1.824-1.512-4.125Q14.975 7.375 12 4.65 9.024 7.375 7.513 9.675 6 11.976 6 13.8q0 2.676 1.7 4.438T12 20"/></svg>