<svg xmlns="http://www.w3.org/2000/svg" width="24" height="24" viewBox="0 0 24 24" fill='currentColor'><path d="M4.5 13.8q0-2.326 1.862-5.1Q8.226 5.924 12 2.653q2.777 2.405 4.504 4.539t2.469 4.034h-1.627q-.67-1.453-2-3.094Q14.017 6.492 12 4.65 9.024 7.375 7.513 9.675 6 11.976 6 13.8q0 2.676 1.7 4.438T12 20l.077-.005.077-.004v1.51H12q-3.21 0-5.355-2.207Q4.5 17.086 4.5 13.8m10.377 8.473-.358-.805a3.8 3.8 0 0 1-.278-.863 4.7 4.7 0 0 1-.087-.905q0-.54.13-1.068t.374-1.028q.196-.425.346-.872.15-.446.15-.932a3.3 3.3 0 0 0-.088-.764 4 4 0 0 0-.247-.728l-.283-.606 1.087-.475.358.765q.19.416.278.876.087.46.087.932 0 .54-.13 1.056a5.2 5.2 0 0 1-.374 1.015q-.195.426-.346.885-.15.46-.15.944 0 .37.075.727.075.356.235.69l.317.681zm3 0-.358-.805a3.8 3.8 0 0 1-.278-.863 4.7 4.7 0 0 1-.087-.905q0-.54.13-1.068t.374-1.028q.195-.425.346-.872.15-.446.15-.932a3.3 3.3 0 0 0-.088-.764 4 4 0 0 0-.247-.728l-.282-.606 1.086-.475.358.765q.19.44.278.889.087.448.087.92a4.6 4.6 0 0 1-.48 2.042q-.209.44-.364.906a3 3 0 0 0-.156.951q0 .37.075.727.075.356.235.69l.317.681zm3 0-.358-.805a3.8 3.8 0 0 1-.278-.863 4.7 4.7 0 0 1-.087-.905q0-.54.13-1.068t.374-1.028q.195-.425.346-.872.15-.446.15-.932a3.3 3.3 0 0 0-.088-.764 4 4 0 0 0-.247-.728l-.282-.606 1.086-.475.358.765q.2.416.282.876.084.46.083.932a4.66 4.66 0 0 1-.48 2.058q-.209.444-.364.9a2.9 2.9 0 0 0-.156.942q0 .37.075.727.075.356.235.69l.317.681z"/></svg>