<svg xmlns="http://www.w3.org/2000/svg" width="24" height="24" viewBox="0 0 24 24" fill='currentColor'><path d="M11.08 8.75a9.8 9.8 0 0 0-2.723.383 9.1 9.1 0 0 0-2.484 1.138L6.961 20h10.087l1.139-10.25h-.73a10 10 0 0 1-1.705-.137q-.775-.138-2.116-.528a7 7 0 0 0-1.252-.26q-.65-.075-1.303-.075m-5.39-.096a11.5 11.5 0 0 1 2.628-1.05 11 11 0 0 1 2.788-.354q.74 0 1.473.095.732.096 1.448.296 1.289.359 1.965.484.678.125 1.456.125h.906L18.808 4H5.183zM5.614 21.5 3.5 2.5h17l-2.104 19zm5.468-1.5h5.967H6.962z"/></svg>