<svg xmlns="http://www.w3.org/2000/svg" width="24" height="24" viewBox="0 0 24 24" fill='currentColor'><path d="M10 2.654q3.727 3.233 5.59 5.973t1.91 5.058v.123H16v-.123q-.048-1.815-1.556-4.087Q12.937 7.328 10 4.65 7.024 7.375 5.513 9.675 4 11.976 4 13.8q0 .797.168 1.523.168.727.486 1.36v2.59A7.5 7.5 0 0 1 3.07 16.84q-.57-1.395-.571-3.039 0-2.326 1.862-5.1Q6.226 5.924 10 2.653M6.654 21.5v-5.692h4.192V21.5zm1.192-1.192h1.808V17H7.846zm4.308 1.192v-5.692h4.692v3.63h-.967l.89 2.062h-1.221l-.85-2h-1.352v2zm6 0v-5.692h4.692V19.5h-3.5v2zm-4.808-3.192h2.308V17h-2.308zm6 0h2.308V17h-2.308z"/></svg>