<svg xmlns="http://www.w3.org/2000/svg" width="24" height="24" viewBox="0 0 24 24" fill='currentColor'><path d="m10.971 11.615 7.237-7.246 1.054 1.054-7.222 7.236zm2.398 2.388 6.537-6.551 1.069 1.069-6.546 6.536zm-7.882 4.49q-2.141-2.14-2.136-5.138t2.155-5.148l2.933-2.932 1.234 1.244q.223.223.358.478t.221.541l4.204-4.22 1.069 1.07-4.877 4.877-1.846 1.84.485.485q1.053 1.055 1.022 2.529t-1.1 2.544l-.095.096-1.06-1.054.087-.096a2.17 2.17 0 0 0 .661-1.482 1.9 1.9 0 0 0-.585-1.483L6.654 11.11l1.929-1.894q.348-.348.348-.838 0-.489-.348-.837l-.144-.144-1.88 1.869q-1.71 1.71-1.723 4.086Q4.82 15.73 6.53 17.44t4.109 1.71 4.108-1.71l6.19-6.206 1.07 1.07-6.216 6.19q-2.15 2.15-5.152 2.15t-5.153-2.15M16.635 22.4l-.01-1.516q1.766 0 3.012-1.247 1.247-1.247 1.247-3.012l1.516.01q0 2.392-1.685 4.08-1.686 1.685-4.08 1.685M1.6 7.365q0-2.394 1.686-4.08T7.366 1.6l.009 1.515q-1.765 0-3.012 1.247T3.116 7.375z"/></svg>