<svg xmlns="http://www.w3.org/2000/svg" width="24" height="24" viewBox="0 0 24 24" fill='currentColor'><path d="M12 21.5a9.3 9.3 0 0 1-2.947-.479 9.8 9.8 0 0 1-2.688-1.387L7.45 18.55q1.05.725 2.2 1.087Q10.8 20 12 20q3.335 0 5.667-2.333Q20 15.335 20 12t-2.333-5.667Q15.335 4 12 4T6.333 6.333Q4 8.666 4 12H2.5q0-1.97.749-3.703a9.6 9.6 0 0 1 2.032-3.016 9.6 9.6 0 0 1 3.016-2.032A9.2 9.2 0 0 1 12 2.5q1.97 0 3.695.749 1.725.75 3.017 2.04 1.29 1.29 2.039 3.016T21.5 12q0 1.954-.749 3.688a9.6 9.6 0 0 1-2.04 3.024 9.7 9.7 0 0 1-3.016 2.039q-1.725.75-3.695.749m-7.804-4.133 3.835-3.844 3 2.5 5.132-5.133v2.966h1.5v-5.52h-5.519v1.5h2.947l-4.122 4.141-3-2.5-4.563 4.554q.207.42.367.697t.423.64"/></svg>