<svg xmlns="http://www.w3.org/2000/svg" width="24" height="24" viewBox="0 0 24 24" fill='currentColor'><path d="M5.677 19.894a9.7 9.7 0 0 1-2.161-3.077q-.795-1.77-.795-3.814 0-1.972.748-3.706A9.6 9.6 0 0 1 5.5 6.279a9.6 9.6 0 0 1 3.016-2.03 9.25 9.25 0 0 1 3.705-.749q2.58 0 4.69 1.228A9.65 9.65 0 0 1 20.3 8h-1.829a8.35 8.35 0 0 0-2.737-2.187Q14.122 5 12.22 5 8.87 5 6.545 7.325T4.221 13q0 1.725.675 3.225t1.85 2.6zm2.825-2.825a5.7 5.7 0 0 1-1.299-1.804A5.35 5.35 0 0 1 6.721 13q0-2.292 1.604-3.896T12.219 7.5t3.896 1.605 1.606 3.899q0 1.215-.482 2.269a5.5 5.5 0 0 1-1.299 1.796L14.871 16q.625-.575.988-1.35A3.85 3.85 0 0 0 16.22 13q0-1.65-1.175-2.825T12.221 9t-2.825 1.175T8.221 13q0 .9.363 1.662.361.763.987 1.338zm3.72-2.569q-.615 0-1.057-.443A1.44 1.44 0 0 1 10.72 13q0-.613.444-1.057a1.44 1.44 0 0 1 1.056-.443q.614 0 1.057.443.443.444.443 1.057t-.443 1.057a1.44 1.44 0 0 1-1.057.443m8.253 4.865a.8.8 0 0 1-.577-.233.78.78 0 0 1-.235-.578q0-.345.233-.574a.8.8 0 0 1 .578-.23q.345 0 .575.231a.78.78 0 0 1 .23.573.8.8 0 0 1-.232.577.77.77 0 0 1-.573.234m-.754-3.48V10h1.5v5.884z"/></svg>