<svg xmlns="http://www.w3.org/2000/svg" width="24" height="24" viewBox="0 0 24 24" fill='currentColor'><path d="M3.279 20.75q.285-2.088.777-4.58.492-2.49 1.213-4.474.621-1.658 1.304-2.552Q7.255 8.25 8 8.25q.5 0 1 .451.5.45.975 1.34.484.888.907 2.149.422 1.26.785 2.904.315-2.901.74-5.1.426-2.198.966-3.702.55-1.513 1.203-2.277T16 3.25q.989 0 1.776 1.217.788 1.218 1.393 3.49.747 2.834 1.096 6.352t.475 6.441h-1.538a15.7 15.7 0 0 0-1.487-4.114Q16.708 14.75 16 14.75t-1.713 1.871q-1.006 1.872-1.489 4.129h-1.577a49 49 0 0 0-.629-3.773 40 40 0 0 0-.834-3.338q-.455-1.51-.903-2.53-.45-1.02-.855-1.282-.405.261-.855 1.274t-.903 2.522a40 40 0 0 0-.834 3.339 49 49 0 0 0-.63 3.788zm9.817-4.865q.662-1.264 1.407-1.95T16 13.25t1.502.69 1.402 1.945a64 64 0 0 0-.546-4.271 40 40 0 0 0-.704-3.42q-.383-1.48-.8-2.362T16 4.78q-.428.17-.849 1.056-.422.886-.805 2.367t-.704 3.419a64 64 0 0 0-.546 4.262"/></svg>