<svg xmlns="http://www.w3.org/2000/svg" width="24" height="24" viewBox="0 0 24 24" fill='currentColor'><path d="M19.575 20.5q-2.913 0-5.803-1.298-2.889-1.297-5.283-3.69-2.385-2.395-3.687-5.286Q3.5 7.334 3.5 4.425V3.5h5.17l.886 4.553-2.773 2.693q.617 1.08 1.32 2.008t1.49 1.698q.762.782 1.697 1.478t2.08 1.339l2.755-2.804 4.375.89V20.5zM6.073 9.327l1.871-1.785L7.442 5H5.016q.075 1.134.34 2.208t.717 2.119m8.7 8.642q.962.444 2.051.699t2.176.3v-2.401l-2.37-.475zm1.727-6.754a.85.85 0 0 1-.626-.259.85.85 0 0 1-.258-.626q0-.367.258-.626a.85.85 0 0 1 .626-.258q.367 0 .626.258a.85.85 0 0 1 .258.626.85.85 0 0 1-.258.626.85.85 0 0 1-.626.26M14 8.67l-.82-.839a5.3 5.3 0 0 1 1.547-.992 4.6 4.6 0 0 1 1.773-.354 4.6 4.6 0 0 1 1.773.354 5.3 5.3 0 0 1 1.546.992L19 8.67a3.9 3.9 0 0 0-1.157-.732 3.5 3.5 0 0 0-1.343-.26q-.705 0-1.343.26-.637.261-1.157.732m-2.1-2.15-.838-.839a7.8 7.8 0 0 1 2.5-1.626 7.8 7.8 0 0 1 2.938-.57q1.533 0 2.938.57 1.404.569 2.5 1.626l-.838.839a6.5 6.5 0 0 0-2.122-1.37 6.6 6.6 0 0 0-2.478-.472q-1.29 0-2.47.48A7 7 0 0 0 11.9 6.52"/></svg>