<svg xmlns="http://www.w3.org/2000/svg" width="24" height="24" viewBox="0 0 24 24" fill='currentColor'><path d="M15.54 18.52q.416-.796.636-1.675t.22-1.825q0-1.923-.846-3.533a7.84 7.84 0 0 0-2.289-2.68l-2.232 2.232V3.31h7.73l-2.213 2.213a8.5 8.5 0 0 1 2.008 2.709 7.8 7.8 0 0 1 .746 3.404q0 2.19-1.029 3.981a8.4 8.4 0 0 1-2.73 2.904m-10.3 2.173 2.223-2.213a8.3 8.3 0 0 1-2.015-2.709 7.9 7.9 0 0 1-.738-3.405q0-2.189 1.029-3.98a8.4 8.4 0 0 1 2.736-2.904 7.7 7.7 0 0 0-.638 1.675 7.4 7.4 0 0 0-.223 1.825q0 1.924.849 3.532a7.9 7.9 0 0 0 2.276 2.681l2.222-2.233v7.731z"/></svg>