<svg xmlns="http://www.w3.org/2000/svg" width="24" height="24" viewBox="0 0 24 24" fill='currentColor'><path d="M12 20.289.712 8.984A16.3 16.3 0 0 1 5.864 5.67Q8.758 4.501 12 4.5t6.141 1.171a16.2 16.2 0 0 1 5.148 3.314l-1.055 1.06q-1.995-1.882-4.653-2.963A14.7 14.7 0 0 0 12 6q-2.585 0-4.904.817a15 15 0 0 0-4.18 2.249l10.138 10.153zm9.494-.78L18.9 16.932a3.2 3.2 0 0 1-.883.422q-.48.147-1.017.147-1.479 0-2.49-1.01Q13.5 15.479 13.5 14t1.01-2.49T17 10.5t2.49 1.01Q20.5 12.522 20.5 14q0 .517-.137.989a3.4 3.4 0 0 1-.394.872l2.579 2.595zM17 16q.84 0 1.42-.58T19 14t-.58-1.42A1.93 1.93 0 0 0 17 12q-.84 0-1.42.58T15 14t.58 1.42T17 16"/></svg>