<svg xmlns="http://www.w3.org/2000/svg" width="24" height="24" viewBox="0 0 24 24" fill='currentColor'><path d="M15.73 20.289v-4.77h1.01v-1q0-.787.55-1.335a1.82 1.82 0 0 1 1.335-.55q.787 0 1.335.55.55.548.55 1.335v1h.99v4.77zm1.895-4.77h2v-1a.97.97 0 0 0-.288-.712.97.97 0 0 0-.712-.288.97.97 0 0 0-.712.288.97.97 0 0 0-.288.712zM12 20.29.712 9A15.8 15.8 0 0 1 5.91 5.653 16.4 16.4 0 0 1 12 4.5q3.17 0 6.09 1.153A15.8 15.8 0 0 1 23.288 9l-2.863 2.848a43 43 0 0 1-.527-.535q-.263-.271-.527-.534L21.1 9.05q-1.975-1.5-4.3-2.275A15.1 15.1 0 0 0 12 6q-2.475 0-4.8.775A14.8 14.8 0 0 0 2.9 9.05l9.1 9.1 1.24-1.24.535.534.534.535z"/></svg>