<svg xmlns="http://www.w3.org/2000/svg" width="24" height="24" viewBox="0 0 24 24" fill='currentColor'><path d="M18.692 8.93V7.398q.927.19 1.912.41t2.042.51L20.561 19.5H3.502L1.369 8.32a41 41 0 0 1 1.972-.496 108 108 0 0 1 1.88-.406v1.53q-.57.126-1.107.232-.537.108-1.022.22L4.69 18h14.62l1.598-8.6q-.504-.122-1.066-.234a92 92 0 0 1-1.15-.237m-1.936 2.303L15.5 10.45l.239-.42q.13-.243.195-.496.066-.252.066-.527 0-.389-.125-.752a1.9 1.9 0 0 0-.384-.652 4 4 0 0 1-.722-1.154 3.46 3.46 0 0 1-.13-2.273q.134-.453.386-.87l.239-.385 1.27.782-.263.41q-.141.234-.207.491a2.08 2.08 0 0 0 .47 1.926q.468.497.717 1.131.249.635.249 1.317 0 .499-.129.956t-.361.885zm-4.046 0-1.256-.782.238-.42a2.1 2.1 0 0 0 .261-1.023q.001-.389-.124-.752a1.9 1.9 0 0 0-.385-.652 4 4 0 0 1-.721-1.154 3.47 3.47 0 0 1-.13-2.273 3.7 3.7 0 0 1 .386-.87l.238-.385 1.271.782-.263.41a1.9 1.9 0 0 0-.275 1.014q0 .389.14.751.138.364.399.652.467.497.716 1.131.249.635.249 1.317 0 .499-.129.956t-.361.885zm-4.031 0-1.271-.782.253-.42q.131-.244.197-.5a2.2 2.2 0 0 0 .065-.532q0-.39-.133-.747a2 2 0 0 0-.392-.648 3.7 3.7 0 0 1-.726-1.145 3.5 3.5 0 0 1-.258-1.331q0-.488.126-.947.125-.457.393-.875l.253-.384 1.272.782-.264.41a1.8 1.8 0 0 0-.215.479q-.075.26-.075.535 0 .389.14.751.138.364.398.652.467.497.717 1.131.249.635.249 1.317 0 .499-.13.956-.128.457-.36.885z"/></svg>