<svg xmlns="http://www.w3.org/2000/svg" width="24" height="24" viewBox="0 0 24 24" fill='currentColor'><path d="m9.8 13.489.827-2.716-2.175-1.677h2.706L12 6.392l.842 2.704h2.706l-2.19 1.677.826 2.716L12 11.8zM6.5 22.23v-7.158a7.2 7.2 0 0 1-1.475-2.294A7.4 7.4 0 0 1 4.5 10q0-3.138 2.18-5.32Q8.863 2.5 12 2.5t5.32 2.18Q19.5 6.863 19.5 10q0 1.477-.525 2.779a7.2 7.2 0 0 1-1.475 2.294v7.158L12 20.48zM12 16q2.5 0 4.25-1.75T18 10t-1.75-4.25T12 4 7.75 5.75 6 10t1.75 4.25T12 16m-4 4.035 4-1.073 4 1.073v-3.716a7.4 7.4 0 0 1-1.873.87A7.2 7.2 0 0 1 12 17.5q-1.11 0-2.127-.311A7.4 7.4 0 0 1 8 16.319z"/></svg>