<svg xmlns="http://www.w3.org/2000/svg" width="24" height="24" viewBox="0 0 24 24" fill='currentColor'><path d="m20.792 21.665-7.698-7.714-.486 2.44h-3.5l1.019-5.215-2.377.96v3.313h-1.5v-4.296l2.842-1.188-7.811-7.812L2.35 1.084l19.511 19.512zM2.5 20.199v-4.5H4v3h3v1.5zM20 5.7v-3h-3V1.2h4.5v4.5zm-17.5 0V2.72H4V5.7zM17 20.2v-1.5h2.98v1.5zM6.796 2.7l-1.5-1.5H7v1.5zM21.5 17.403l-1.5-1.5v-.204h1.5zm-8-9.358a1.78 1.78 0 0 1-1.307-.539 1.78 1.78 0 0 1-.54-1.307q0-.767.54-1.307t1.307-.539 1.307.54.54 1.306-.54 1.307-1.307.54"/></svg>