<svg xmlns="http://www.w3.org/2000/svg" width="24" height="24" viewBox="0 0 24 24" fill='currentColor'><g clip-path="url(#a)"><path d="M2.5 6V1.5H7V3H4v3zM7 20.5H2.5V16H4v3h3zM20 6V3h-3V1.5h4.5V6zm-6.5 2.346a1.78 1.78 0 0 1-1.307-.54 1.78 1.78 0 0 1-.54-1.306q0-.767.54-1.307t1.307-.54 1.307.54.54 1.307-.54 1.307-1.307.54m-4.392 8.346 1.019-5.215-2.377.96v3.313h-1.5v-4.296l3.97-1.681q.758-.316 1.118-.42.359-.103.663-.103.457 0 .849.241.392.242.639.644l1 1.6a7 7 0 0 0 .56.748q.304.353.703.644l-.775 1.313a7.3 7.3 0 0 1-1.602-1.623l-.767 3.875zm4.398 4.808 5.311-9.275L24.12 21.5zm5.302-.808q.176 0 .31-.133a.425.425 0 0 0 0-.62.425.425 0 0 0-.62 0 .424.424 0 0 0 0 .62.43.43 0 0 0 .31.133m-.443-2h.885v-3.884h-.885z"/></g><defs><clipPath id="a"><path d="M0 0h24v24H0z"/></clipPath></defs></svg>