<svg xmlns="http://www.w3.org/2000/svg" width="24" height="24" viewBox="0 0 24 24" fill='currentColor'><path d="M2.5 19.5V15H4v3h3v1.5zm6.608-3.808 1.019-5.215-2.377.96v3.313h-1.5v-4.296l3.97-1.681q.758-.316 1.118-.42.359-.103.663-.103.457 0 .851.242.395.243.635.64l.877 1.41.122.185q.062.093.139.17a6.5 6.5 0 0 0-1.88 2.066 6.7 6.7 0 0 0-.872 2.73zM13.5 7.346a1.78 1.78 0 0 1-1.307-.54 1.78 1.78 0 0 1-.54-1.306q0-.767.54-1.307t1.307-.54 1.307.54.54 1.307-.54 1.307-1.307.54M2.5 5V.5H7V2H4v3zM20 5V2h-3V.5h4.5V5zm-1.48 15.817q-1.875 0-3.187-1.313-1.314-1.314-1.314-3.187t1.314-3.186 3.186-1.314 3.187 1.314 1.313 3.186-1.313 3.187-3.187 1.313m-.443-3.692h.884v-3.5h-.884zm.442 1.923a.46.46 0 0 0 .34-.14.46.46 0 0 0 .141-.34.46.46 0 0 0-.14-.341.46.46 0 0 0-.34-.14.46.46 0 0 0-.341.14.46.46 0 0 0-.14.34q0 .2.14.34t.34.141"/></svg>