<svg xmlns="http://www.w3.org/2000/svg" width="24" height="24" viewBox="0 0 24 24" fill='currentColor'><path d="M11.92 9.5h2v-3h3v-2h-3v-3h-2v3h-3v2h3zm-4 9c-1.1 0-1.99.9-1.99 2s.89 2 1.99 2 2-.9 2-2-.9-2-2-2m10 0c-1.1 0-1.99.9-1.99 2s.89 2 1.99 2 2-.9 2-2-.9-2-2-2m-9.83-3.25.03-.12.9-1.63h7.45c.75 0 1.41-.41 1.75-1.03l3.86-7.01-1.74-.96h-.01l-1.1 2-2.76 5H9.45l-.13-.27L7.08 6.5l-.95-2-.94-2H1.92v2h2l3.6 7.59-1.35 2.45c-.16.28-.25.61-.25.96 0 1.1.9 2 2 2h12v-2H8.34c-.13 0-.25-.11-.25-.25"/></svg>