<svg xmlns="http://www.w3.org/2000/svg" width="24" height="24" viewBox="0 0 24 24" fill='currentColor'><path d="M17 9.5v-2h-2V3.34a9.9 9.9 0 0 0-4.01-.84C5.47 2.5 1 6.98 1 12.5s4.47 10 9.99 10c5.53 0 10.01-4.48 10.01-10 0-1.05-.17-2.05-.47-3zm-2.5-1c.83 0 1.5.67 1.5 1.5s-.67 1.5-1.5 1.5S13 10.83 13 10s.67-1.5 1.5-1.5m-7 0c.83 0 1.5.67 1.5 1.5s-.67 1.5-1.5 1.5S6 10.83 6 10s.67-1.5 1.5-1.5M11 18c-2.33 0-4.31-1.46-5.11-3.5h10.22c-.8 2.04-2.78 3.5-5.11 3.5M21 3.5h2v2h-2v2h-2v-2h-2v-2h2v-2h2z"/></svg>