<svg xmlns="http://www.w3.org/2000/svg" width="24" height="24" viewBox="0 0 24 24" fill='currentColor'><path d="M5.35 6.14c-.9-.64-1.12-1.88-.49-2.79.63-.9 1.88-1.12 2.79-.49.9.64 1.12 1.88.49 2.79-.64.9-1.88 1.12-2.79.49M16 19.5H8.93c-1.48 0-2.74-1.08-2.96-2.54L4 7.5H2l1.99 9.76a5.01 5.01 0 0 0 4.95 4.24H16zm.23-4h-4.88l-1.03-4.1c1.58.89 3.28 1.54 5.15 1.22v-2.13c-1.63.31-3.44-.27-4.69-1.25L9.14 7.97c-.23-.18-.49-.3-.76-.38a2.2 2.2 0 0 0-.99-.06h-.02a2.27 2.27 0 0 0-1.84 2.61l1.35 5.92a3.01 3.01 0 0 0 2.95 2.44h6.85l3.82 3L22 20z"/></svg>