<svg xmlns="http://www.w3.org/2000/svg" width="24" height="24" viewBox="0 0 24 24" fill='currentColor'><path d="M19.055 3.535c-1.67-1.39-3.74-2.3-6.03-2.51v2.01c1.73.19 3.31.88 4.61 1.92zm-8.03-.5v-2.01c-2.29.2-4.36 1.12-6.03 2.51l1.42 1.42a8.93 8.93 0 0 1 4.61-1.92m-6.02 3.33-1.42-1.42c-1.39 1.67-2.3 3.74-2.51 6.03h2.01c.19-1.73.88-3.31 1.92-4.61m15.96 4.61h2.01c-.21-2.29-1.12-4.36-2.51-6.03l-1.42 1.42a8.93 8.93 0 0 1 1.92 4.61m-13.94 1 3.44 1.56 1.56 3.44 1.56-3.44 3.44-1.56-3.44-1.56-1.56-3.44-1.56 3.44z"/><path d="M12.025 20.975a8.96 8.96 0 0 1-7.46-4h2.46v-2h-6v6h2v-2.7c1.99 2.84 5.27 4.7 9 4.7 4.87 0 9-3.17 10.44-7.56l-1.96-.45c-1.23 3.49-4.56 6.01-8.48 6.01"/></svg>