<svg xmlns="http://www.w3.org/2000/svg" width="24" height="24" viewBox="0 0 24 24" fill='currentColor'><path d="M15 11H4.81l1.04-3H15V6H5.5c-.66 0-1.21.42-1.42 1.01L2 13v8c0 .55.45 1 1 1h1c.55 0 1-.45 1-1v-1h12v1c0 .55.45 1 1 1h1c.55 0 1-.45 1-1v-8h-3c-1.1 0-2-.9-2-2m-8.5 6c-.83 0-1.5-.67-1.5-1.5S5.67 14 6.5 14s1.5.67 1.5 1.5S7.33 17 6.5 17m9 0c-.83 0-1.5-.67-1.5-1.5s.67-1.5 1.5-1.5 1.5.67 1.5 1.5-.67 1.5-1.5 1.5"/><path d="M22 4.85 19.15 2h-.5v3.79l-2.3-2.29-.7.7L18.44 7l-2.79 2.79.7.71 2.3-2.3V12h.5L22 9.14 19.85 7zm-2.35-.94.94.94-.94.94zm.94 5.23-.94.94V8.2z"/></svg>