<svg xmlns="http://www.w3.org/2000/svg" width="24" height="24" viewBox="0 0 24 24" fill='currentColor'><path d="M21.25 5c0-1.1-.9-2-2-2h-16v2h16v2.59c.73.29 1.4.69 2 1.17zm-14 3h-5c-.5 0-1 .5-1 1v9c0 .5.5 1 1 1h5c.5 0 1-.5 1-1V9c0-.5-.5-1-1-1m-1 9h-3v-7h3zM17 15.97c.3-.23.5-.57.5-.97a1.25 1.25 0 0 0-2.5 0c0 .4.2.75.5.97V21H17z"/><path d="M16.25 12.5a2.5 2.5 0 0 1 2.5 2.5c0 .69-.28 1.31-.73 1.76l1.06 1.06c.72-.72 1.17-1.72 1.17-2.82 0-2.21-1.79-4-4-4s-4 1.79-4 4c0 1.1.45 2.1 1.17 2.83l1.06-1.06a2.5 2.5 0 0 1 1.77-4.27"/><path d="M16.25 8.5a6.5 6.5 0 0 0-6.5 6.5c0 1.79.73 3.42 1.9 4.6l1.06-1.06c-.9-.91-1.46-2.16-1.46-3.54 0-2.76 2.24-5 5-5s5 2.24 5 5c0 1.37-.56 2.62-1.46 3.52l1.07 1.06A6.5 6.5 0 0 0 16.25 8.5"/></svg>