<svg xmlns="http://www.w3.org/2000/svg" width="24" height="24" viewBox="0 0 24 24" fill='currentColor'><path d="M15.25 7.5c.7 0 1.38.1 2.02.27L10.25 2.5l-8 6v12h6.76a7.998 7.998 0 0 1 6.24-13m0 6.75c-.69 0-1.25.56-1.25 1.25 0 .4.2.75.5.97v5.03H16v-5.03c.3-.23.5-.57.5-.97 0-.69-.56-1.25-1.25-1.25"/><path d="M15.25 11.5c-2.21 0-4 1.79-4 4 0 1.1.45 2.1 1.17 2.83l1.06-1.06a2.5 2.5 0 1 1 4.27-1.77c0 .69-.28 1.31-.73 1.76l1.06 1.06c.72-.72 1.17-1.72 1.17-2.82 0-2.21-1.79-4-4-4"/><path d="M15.25 9a6.5 6.5 0 0 0-6.5 6.5c0 1.79.73 3.42 1.9 4.6l1.06-1.06c-.9-.91-1.46-2.16-1.46-3.54 0-2.76 2.24-5 5-5s5 2.24 5 5c0 1.37-.56 2.62-1.46 3.52l1.07 1.06A6.5 6.5 0 0 0 15.25 9"/></svg>