<svg xmlns="http://www.w3.org/2000/svg" width="24" height="24" viewBox="0 0 24 24" fill='currentColor'><path d="M17 2.5c-2.76 0-5 2.24-5 5s2.24 5 5 5 5-2.24 5-5-2.24-5-5-5m.5 6h-1v-4h1zm0 1v1h-1v-1zm-.59 5c.06.16.09.33.09.5 0 .83-.67 1.5-1.5 1.5S14 15.83 14 15c0-.39.15-.74.39-1.01a7.03 7.03 0 0 1-3.71-3.49H4.81l1.04-3H10c0-.69.1-1.37.29-2H5.5c-.66 0-1.21.42-1.42 1.01L2 12.5v8c0 .55.45 1 1 1h1c.55 0 1-.45 1-1v-1h12v1c0 .55.45 1 1 1h1c.55 0 1-.45 1-1v-6.68c-1.05.51-2.16.69-3.09.68m-10.41 2c-.83 0-1.5-.67-1.5-1.5s.67-1.5 1.5-1.5S8 14.17 8 15s-.67 1.5-1.5 1.5"/></svg>