<svg xmlns="http://www.w3.org/2000/svg" width="24" height="24" viewBox="0 0 24 24" fill='currentColor'><path d="m7.3 14.25 1.2-1.2c-1-1-1.5-2.3-1.5-3.5 0-1.3.5-2.6 1.5-3.5l-1.2-1.2c-1.3 1.3-2 3-2 4.7s.7 3.4 2 4.7m11.8-11.8-1.2 1.2c1.6 1.6 2.4 3.8 2.4 5.9s-.8 4.3-2.4 5.9l1.2 1.2c2-2 2.9-4.5 2.9-7.1s-1-5.1-2.9-7.1"/><path d="m6.1 3.65-1.2-1.2C3 4.45 2 6.95 2 9.55s1 5.1 2.9 7.1l1.2-1.2c-1.6-1.6-2.4-3.8-2.4-5.9s.8-4.3 2.4-5.9m10.6 10.6c1.3-1.3 2-3 2-4.7-.1-1.7-.7-3.4-2-4.7l-1.2 1.2c1 1 1.5 2.3 1.5 3.5 0 1.3-.5 2.6-1.5 3.5zm-2.2-4.7a2.5 2.5 0 0 0-5 0c0 .76.34 1.42.87 1.88L7 21.55h2l.67-2h4.67l.66 2h2l-3.37-10.12c.53-.46.87-1.12.87-1.88m-4.17 8 1.67-5 1.67 5z"/></svg>