<svg xmlns="http://www.w3.org/2000/svg" width="24" height="24" viewBox="0 0 24 24" fill='currentColor'><mask id="a" width="24" height="24" x="0" y="0" maskUnits="userSpaceOnUse" style="mask-type:alpha"><path d="M0 0h24v24H0z"/></mask><g mask="url(#a)"><path d="M5 21a2.9 2.9 0 0 1-2.125-.875A2.9 2.9 0 0 1 2 18q0-1.25.875-2.125A2.9 2.9 0 0 1 5 15h14q1.25 0 2.125.875T22 18t-.875 2.125A2.9 2.9 0 0 1 19 21zm0-2h14q.424 0 .712-.288A.97.97 0 0 0 20 18a.97.97 0 0 0-.288-.712A.97.97 0 0 0 19 17H5a.97.97 0 0 0-.713.288A.97.97 0 0 0 4 18q0 .424.287.712Q4.576 19 5 19m5-6a.97.97 0 0 1-.713-.287A.97.97 0 0 1 9 12V4q0-.424.287-.712A.97.97 0 0 1 10 3h8q.424 0 .712.288Q19 3.575 19 4v8q0 .424-.288.713A.97.97 0 0 1 18 13zm1-2h6V5h-6zm-9-.05V9.025h4.925v1.925zM12 8h4V6.025h-4zM4 8h2.925V6.025H4z"/></g></svg>