<svg xmlns="http://www.w3.org/2000/svg" width="24" height="24" viewBox="0 0 24 24" fill='currentColor'><path d="M12.25 3v18a9 9 0 0 0 0-18m-6 12a1 1 0 1 0 0-2 1 1 0 0 0 0 2m0 4a1 1 0 1 0 0-2 1 1 0 0 0 0 2m0-8a1 1 0 1 0 0-2 1 1 0 0 0 0 2m-3-.5a.5.5 0 1 0 0-1 .5.5 0 0 0 0 1m3-3.5a1 1 0 1 0 0-2 1 1 0 0 0 0 2m-3 7.5a.5.5 0 1 0 0-1 .5.5 0 0 0 0 1m7 7a.5.5 0 1 0 0-1 .5.5 0 0 0 0 1m0-18a.5.5 0 1 0 0-1 .5.5 0 0 0 0 1m0 3.5a1 1 0 1 0 0-2 1 1 0 0 0 0 2m0 8.5a1.5 1.5 0 1 0 0-3 1.5 1.5 0 0 0 0 3m0-4a1.5 1.5 0 1 0 0-3 1.5 1.5 0 0 0 0 3m0 7.5a1 1 0 1 0 0-2 1 1 0 0 0 0 2"/></svg>