<svg xmlns="http://www.w3.org/2000/svg" width="24" height="24" viewBox="0 0 24 24" fill='currentColor'><path d="M20.001 21c-1.39 0-2.78-.47-4-1.32-2.44 1.71-5.56 1.71-8 0-1.22.85-2.61 1.32-4 1.32h-2v2h2c1.38 0 2.74-.35 4-.99a8.75 8.75 0 0 0 8 0c1.26.65 2.62.99 4 .99h2v-2zm-16.05-2h.05c1.6 0 3.02-.88 4-2 .98 1.12 2.4 2 4 2s3.02-.88 4-2c.98 1.12 2.4 2 4 2h.05l1.89-6.68c.08-.26.06-.54-.06-.78a1 1 0 0 0-.6-.5l-1.28-.42V6c0-1.1-.9-2-2-2h-3V1h-6v3h-3c-1.1 0-2 .9-2 2v4.62l-1.29.42a1.007 1.007 0 0 0-.66 1.28zm2.05-13h12v3.97l-6-1.97-6 1.97z"/></svg>