<svg xmlns="http://www.w3.org/2000/svg" width="24" height="24" viewBox="0 0 24 24" fill='currentColor'><path d="m1.39 3.915 7.9 7.9c.18.2.18.5-.01.7a.485.485 0 0 1-.7 0l-1.71-1.72c-.11.4-.26.78-.45 1.12l1.4 1.4c.2.2.2.51 0 .71a.485.485 0 0 1-.7 0l-1.27-1.27c-.24.29-.5.56-.77.8l1.28 1.28c.2.2.2.51 0 .71-.1.1-.23.15-.36.15a.47.47 0 0 1-.35-.15l-1.38-1.38c-.69.46-1.39.79-1.97 1.02-.78.31-1.3 1.04-1.3 1.88v2.63h9.5l3.33-3.33 5.94 5.94 1.41-1.41L2.81 2.505zm17.12 11.46-1.41-1.41 4.48-4.48 1.42 1.41zm2.37-6.6-4.48 4.48-7.1-7.09 4.5-4.47z"/></svg>