<svg xmlns="http://www.w3.org/2000/svg" width="24" height="24" viewBox="0 0 24 24" fill='currentColor'><path d="m16.15 4.36-.07-.07c-.57-.62-.82-1.41-.67-2.2l.09-.59h-1.89l-.06.43c-.2 1.36.27 2.71 1.3 3.72l.07.06c.57.62.82 1.41.67 2.2l-.11.59h1.91l.06-.43c.21-1.36-.27-2.71-1.3-3.71m4 0-.07-.07c-.57-.62-.82-1.41-.67-2.2l.09-.59h-1.89l-.06.43c-.2 1.36.27 2.71 1.3 3.72l.07.06c.57.62.82 1.41.67 2.2l-.11.59h1.91l.06-.43c.21-1.36-.27-2.71-1.3-3.71M9.62 4.5l-7.18 6.79c-.6.56-.94 1.35-.94 2.18v6.03c0 1.66 1.34 3 3 3h13.75a1.25 1.25 0 0 0 0-2.5H12.5v-1h7.75a1.25 1.25 0 0 0 0-2.5H12.5v-1h8.75a1.25 1.25 0 0 0 0-2.5H12.5v-1h6.75a1.25 1.25 0 0 0 0-2.5H9.36c.64-1.11 1.48-2.58 1.49-2.61a1.065 1.065 0 0 0-.12-1.23c-.01-.04-1.11-1.16-1.11-1.16"/></svg>