<svg xmlns="http://www.w3.org/2000/svg" width="24" height="24" viewBox="0 0 24 24" fill='currentColor'><path d="M13 3c-.96 0-1.88.14-2.75.39A4.99 4.99 0 0 0 6 1C3.24 1 1 3.24 1 6c0 1.8.96 3.37 2.39 4.25C3.14 11.12 3 12.04 3 13c0 5.52 4.48 10 10 10s10-4.48 10-10S18.52 3 13 3m0 18c-4.41 0-8-3.59-8-8 0-.05.01-.1.01-.15 2.6-.98 4.68-2.99 5.74-5.55a9.94 9.94 0 0 0 9.92 3.46c.21.71.33 1.46.33 2.24 0 4.41-3.59 8-8 8"/><path d="M10 15.25a1.25 1.25 0 1 0 0-2.5 1.25 1.25 0 0 0 0 2.5m6 0a1.25 1.25 0 1 0 0-2.5 1.25 1.25 0 0 0 0 2.5"/></svg>