<svg xmlns="http://www.w3.org/2000/svg" width="24" height="24" viewBox="0 0 24 24" fill='currentColor'><path d="M8.5 14.75a1.25 1.25 0 1 0 0-2.5 1.25 1.25 0 0 0 0 2.5"/><path d="m20.27 9.08-.92 2.01c.09.46.15.93.15 1.41 0 4.41-3.59 8-8 8s-8-3.59-8-8c0-.05.01-.1 0-.14 2.6-.98 4.69-2.99 5.74-5.55A10 10 0 0 0 17 10.5c.45 0 .89-.04 1.33-.1l-.6-1.32-.88-1.93L12.13 5l2.79-1.27.71-.32a9.9 9.9 0 0 0-4.13-.91c-5.52 0-10 4.48-10 10s4.48 10 10 10 10-4.48 10-10c0-1.47-.33-2.87-.9-4.13z"/><path d="M14.5 14.75a1.25 1.25 0 1 0 0-2.5 1.25 1.25 0 0 0 0 2.5m5.6-8.65L19 8.5l-1.1-2.4L15.5 5l2.4-1.1L19 1.5l1.1 2.4L22.5 5z"/></svg>