<svg xmlns="http://www.w3.org/2000/svg" width="24" height="24" viewBox="0 0 24 24" fill='currentColor'><mask id="a" width="24" height="24" x="0" y="0" maskUnits="userSpaceOnUse" style="mask-type:alpha"><path d="M0 0h24v24H0z"/></mask><g mask="url(#a)"><path d="M12 22a9.7 9.7 0 0 1-3.9-.788 10.1 10.1 0 0 1-3.175-2.137q-1.35-1.35-2.137-3.175A9.7 9.7 0 0 1 2 12q0-2.075.788-3.9a10.1 10.1 0 0 1 2.137-3.175q1.35-1.35 3.175-2.137A9.7 9.7 0 0 1 12 2q2.075 0 3.9.788a10.1 10.1 0 0 1 3.175 2.137q1.35 1.35 2.137 3.175A9.7 9.7 0 0 1 22 12a9.7 9.7 0 0 1-.788 3.9 10.1 10.1 0 0 1-2.137 3.175q-1.35 1.35-3.175 2.137A9.7 9.7 0 0 1 12 22m0-2q3.35 0 5.675-2.325T20 12q0-.175-.012-.363a5 5 0 0 1-.013-.312 1.98 1.98 0 0 1-.675 1.2Q18.75 13 18 13h-2q-.825 0-1.412-.588A1.93 1.93 0 0 1 14 11v-1h-4V8q0-.824.588-1.412A1.93 1.93 0 0 1 12 6h1q0-.574.313-1.013.312-.437.762-.712a10 10 0 0 0-1.012-.2A7 7 0 0 0 12 4Q8.65 4 6.325 6.325T4 12h5q1.65 0 2.825 1.175T13 16v1h-3v2.75q.5.125.988.188Q11.475 20 12 20"/></g></svg>