<svg xmlns="http://www.w3.org/2000/svg" width="24" height="24" viewBox="0 0 24 24" fill='currentColor'><g clip-path="url(#a)"><path d="M8.635 3.365v1.45l2 2v-3.45h4v4h-3.45l2 2h1.45v1.45l2 2v-3.45h4v4h-3.45l2 2h1.45v1.45l2 2V3.365c0-1.1-.9-2-2-2H5.185l2 2zm8 0h4v4h-4zM1.905.635l-1.27 1.28 2 2v15.45c0 1.1.9 2 2 2h15.46l2 2 1.27-1.27zm8.73 11.28 1.45 1.45h-1.45zm-6-6 1.45 1.45h-1.45zm4 13.45h-4v-4h4zm0-6h-4v-4h3.45l.55.55zm6 6h-4v-4h3.45l.55.54zm2 0v-1.46l1.46 1.46z"/></g><defs><clipPath id="a"><path d="M0 0h24v24H0z"/></clipPath></defs></svg>