<svg xmlns="http://www.w3.org/2000/svg" width="24" height="24" viewBox="0 0 24 24" fill='currentColor'><path d="M20.69 17.35a8.9 8.9 0 0 0 1.02-4.15c-1.5 0-2.91.37-4.15 1.02zM3.71 13.2a9 9 0 0 0 9 9 9 9 0 0 0-9-9m9-7.5a2.5 2.5 0 0 1 2.5 2.5c0 .99-.58 1.84-1.42 2.25l2.48 2.48c.11.02.23.03.35.03a2.5 2.5 0 0 0 2.5-2.5c0-1-.59-1.85-1.43-2.25.84-.4 1.43-1.25 1.43-2.25A2.5 2.5 0 0 0 15.2 3.9l.01-.2a2.5 2.5 0 0 0-5 0l.02.19a2.485 2.485 0 0 0-2.93.08l3.16 3.16c.41-.85 1.26-1.43 2.25-1.43"/><path d="M3.52 3.01 2.1 4.42l4.64 4.64c-.27.4-.43.87-.43 1.39a2.5 2.5 0 0 0 2.5 2.5c.52 0 .99-.16 1.4-.43l.02.02-.02.16a2.5 2.5 0 0 0 2.5 2.5c.05 0 .1-.01.16-.02l1.64 1.64a8.9 8.9 0 0 0-1.8 5.38c2.02 0 3.88-.67 5.38-1.8l2.4 2.4 1.41-1.41z"/></svg>