<svg xmlns="http://www.w3.org/2000/svg" width="24" height="24" viewBox="0 0 24 24" fill='currentColor'><path d="m21.275 16.87 1.14-1-1-1.73-1.45.49q-.48-.405-1.08-.63l-.3-1.5h-2l-.3 1.49q-.6.225-1.08.63l-1.45-.49-1 1.73 1.14 1c-.08.5-.08.76 0 1.26l-1.14 1 1 1.73 1.45-.49q.48.405 1.08.63l.3 1.51h2l.3-1.49q.6-.225 1.08-.63l1.45.49 1-1.73-1.14-1c.08-.51.08-.77 0-1.27m-3.69 2.63c-1.1 0-2-.9-2-2s.9-2 2-2 2 .9 2 2-.9 2-2 2m-8-14v5.41l2.36 2.36 1.04-1.79-1.4-1.39V5.5zm10 5a9 9 0 0 0-9-9c-2.83 0-5.35 1.32-7 3.36V2.5h-2v6h6v-2h-2.74a7.01 7.01 0 0 1 5.74-3c3.86 0 7 3.14 7 7zm-10.14 6.91c-2.99-.49-5.35-2.9-5.78-5.91h-2.02c.5 4.5 4.31 8 8.94 8h.07z"/></svg>