<svg xmlns="http://www.w3.org/2000/svg" width="24" height="24" viewBox="0 0 24 24" fill='currentColor'><path d="M20.895 20.78 3.215 3.1l-1.27 1.27 1.89 1.89a9.9 9.9 0 0 0-1.78 5.68c0 5.52 4.48 10 10 10 2.11 0 4.07-.66 5.68-1.77l1.89 1.89zm-8.84-.84c-4.41 0-8-3.59-8-8 0-1.55.45-3 1.22-4.23l1.46 1.46c-.43.83-.68 1.77-.68 2.77 0 3.31 2.69 6 6 6 1 0 1.94-.25 2.77-.68l1.46 1.46a7.95 7.95 0 0 1-4.23 1.22M6.375 3.71a10 10 0 0 1 5.68-1.77c5.52 0 10 4.48 10 10 0 2.11-.66 4.07-1.77 5.68l-1.45-1.45a7.95 7.95 0 0 0 1.22-4.23c0-4.41-3.59-8-8-8-1.55 0-3 .45-4.23 1.22zm11.68 8.23c0 1-.25 1.94-.68 2.77l-8.09-8.09c.83-.43 1.77-.68 2.77-.68 3.31 0 6 2.69 6 6"/></svg>