<svg xmlns="http://www.w3.org/2000/svg" width="24" height="24" viewBox="0 0 24 24" fill='currentColor'><mask id="a" width="24" height="24" x="0" y="0" maskUnits="userSpaceOnUse" style="mask-type:alpha"><path d="M0 0h24v24H0z"/></mask><g mask="url(#a)"><path d="M8 18q-.824 0-1.412-.587A1.93 1.93 0 0 1 6 16v-2h2v2h12V6H8v2H6V4q0-.824.588-1.412A1.93 1.93 0 0 1 8 2h12q.824 0 1.413.587Q22 3.176 22 4v12q0 .824-.587 1.413A1.93 1.93 0 0 1 20 18zm-4 4q-.824 0-1.412-.587A1.93 1.93 0 0 1 2 20V6h2v14h14v2zm9-7-1.4-1.4 1.575-1.6H6v-2h7.175L11.6 8.4 13 7l4 4z"/></g></svg>