<svg xmlns="http://www.w3.org/2000/svg" width="24" height="24" viewBox="0 0 24 24" fill='currentColor'><path d="M6.305 17.29c1.1 0 2 .9 2 2s-.9 2-2 2-2-.9-2-2 .9-2 2-2m12.65-15c-1.66 0-2.54 1.27-3.18 2.03l-3.5 4.11 5.03 5.03v-7.9c.58-.68.97-1.27 1.65-1.27.77 0 1.35.66 1.35 1.48v.52h2v-.52c0-1.92-1.48-3.48-3.35-3.48M3.115 2.1l-1.42 1.41 7.97 7.97-2.66 3.12c-.55.65-.09 1.65.76 1.65h6.66l1.17 1.17c-.75.29-1.29 1.01-1.29 1.87 0 1.1.9 2 2 2 .86 0 1.58-.54 1.87-1.3l1.91 1.91 1.41-1.41zm10.66 2.22c.27-.32.58-.72.98-1.09a9.35 9.35 0 0 0-7.81-.13l4.25 4.25z"/></svg>