<svg xmlns="http://www.w3.org/2000/svg" width="24" height="24" viewBox="0 0 24 24" fill='currentColor'><path d="M12 6V2L7 7l5 5V8c3.31 0 6 2.69 6 6s-2.69 6-6 6-6-2.69-6-6H4c0 4.42 3.58 8 8 8s8-3.58 8-8-3.58-8-8-8"/><path d="M10.9 17h-.85v-3.26l-1.01.31v-.69l1.77-.63h.09zm4.28-1.76c0 .32-.03.6-.1.82s-.17.42-.29.57-.28.26-.45.33-.37.1-.59.1-.41-.03-.59-.1-.33-.18-.46-.33q-.195-.225-.3-.57c-.07-.23-.11-.5-.11-.82v-.74c0-.32.03-.6.1-.82s.17-.42.29-.57.28-.26.45-.33.37-.1.59-.1.41.03.59.1.33.18.46.33q.195.225.3.57c.07.23.11.5.11.82zm-.85-.86c0-.19-.01-.35-.04-.48s-.07-.23-.12-.31a.4.4 0 0 0-.19-.17.66.66 0 0 0-.5 0c-.07.03-.14.09-.19.17s-.09.18-.12.31-.04.29-.04.48v.97c0 .19.01.35.04.48s.07.24.12.32.11.14.19.17.16.05.25.05.18-.02.25-.05.14-.09.19-.17.09-.19.11-.32.04-.29.04-.48v-.97z"/></svg>