<svg xmlns="http://www.w3.org/2000/svg" width="24" height="24" viewBox="0 0 24 24" fill='currentColor'><path d="M13.085 10.76V5.5h3v4h2v-6h-5v-1h-9v16h-2v2h9.26a6.96 6.96 0 0 1-1.26-4c0-2.38 1.19-4.47 3-5.74m-4-.26h2v2h-2zm11.69 5.37 1.14-1-1-1.73-1.45.49q-.48-.405-1.08-.63l-.3-1.5h-2l-.3 1.49q-.6.225-1.08.63l-1.45-.49-1 1.73 1.14 1c-.08.5-.08.76 0 1.26l-1.14 1 1 1.73 1.45-.49q.48.405 1.08.63l.3 1.51h2l.3-1.49q.6-.225 1.08-.63l1.45.49 1-1.73-1.14-1c.08-.51.08-.77 0-1.27m-3.69 2.63c-1.1 0-2-.9-2-2s.9-2 2-2 2 .9 2 2-.9 2-2 2"/></svg>