<svg xmlns="http://www.w3.org/2000/svg" width="24" height="24" viewBox="0 0 24 24" fill='currentColor'><g clip-path="url(#a)"><path d="m15.938 1.092-3.18 3.18c-.78.78-.78 2.05 0 2.83l1.24 1.24-.71.71-1.24-1.25c-.78-.78-2.05-.78-2.83 0l-1.42 1.42c-.78.78-.78 2.05 0 2.83l1.24 1.24-.71.71-1.23-1.25c-.78-.78-2.05-.78-2.83 0l-3.18 3.18c-.78.78-.78 2.05 0 2.83l3.54 3.54c.78.78 2.05.78 2.83 0l3.18-3.18c.78-.78.78-2.05 0-2.83l-1.24-1.24.71-.71 1.24 1.24c.78.78 2.05.78 2.83 0l1.41-1.41c.78-.78.78-2.05 0-2.83l-1.25-1.24.71-.71 1.24 1.24c.78.78 2.05.78 2.83 0l3.18-3.18c.78-.78.78-2.05 0-2.83l-3.54-3.54c-.78-.78-2.04-.78-2.82.01m-8.84 18.73-1.06 1.06-3.54-3.53 1.06-1.06zm2.12-2.12-1.06 1.06-3.54-3.54 1.06-1.06zm9.54-9.54-1.06 1.06-3.54-3.54 1.06-1.06zm2.12-2.12-1.06 1.06-3.54-3.54 1.07-1.06zm-6.38 15.46v2a9 9 0 0 0 9-9h-2c0 3.87-3.13 7-7 7m0-4v2c2.76 0 5-2.24 5-5h-2c0 1.66-1.34 3-3 3"/></g><defs><clipPath id="a"><path d="M0 0h24v24H0z"/></clipPath></defs></svg>