<svg xmlns="http://www.w3.org/2000/svg" width="24" height="24" viewBox="0 0 24 24" fill='currentColor'><path d="M8.445 10.255c-.09.33-.14.68-.14 1.04 0 1.1.45 2.1 1.17 2.83l-1.42 1.42a6.02 6.02 0 0 1-1.75-4.25c0-.93.21-1.8.58-2.59l-1.47-1.47a7.9 7.9 0 0 0-1.11 4.06c0 2.21.9 4.21 2.35 5.65l-1.42 1.42a9.97 9.97 0 0 1-2.93-7.07c0-2.04.61-3.93 1.66-5.51l-2.27-2.27 1.41-1.41 18.38 18.38-1.41 1.41zm9.28 3.63c.37-.79.58-1.66.58-2.59 0-1.66-.67-3.16-1.76-4.24l-1.42 1.42a3.95 3.95 0 0 1 1.04 3.86zm2.58-2.59c0 1.48-.4 2.87-1.11 4.06l1.45 1.45a9.9 9.9 0 0 0 1.66-5.51c0-2.76-1.12-5.26-2.93-7.07l-1.42 1.42a7.94 7.94 0 0 1 2.35 5.65"/></svg>