<svg xmlns="http://www.w3.org/2000/svg" width="24" height="24" viewBox="0 0 24 24" fill='currentColor'><path d="M20.5 9c-1.1 0-2-.9-2-2s2-4 2-4 2 2.9 2 4-.9 2-2 2M17 7c0-.73.41-1.71.92-2.66A9.97 9.97 0 0 0 11.49 2C5.97 2 1.5 6.48 1.5 12s4.47 10 9.99 10c5.53 0 10.01-4.48 10.01-10 0-.55-.06-1.09-.14-1.62a3.5 3.5 0 0 1-.86.12C18.57 10.5 17 8.93 17 7m-1.88.38 1.06 1.06-1.06 1.06 1.06 1.06-1.06 1.06L13 9.5zm-8.3 1.06 1.06-1.06L10 9.5l-2.12 2.12-1.06-1.06L7.88 9.5zM14.94 17a3.98 3.98 0 0 0-3.44-2c-1.47 0-2.75.81-3.44 2H6.38c.3-.76.76-1.43 1.34-1.99L4.74 13.3c-.45.26-1.01.28-1.49 0a1.501 1.501 0 0 1 1.5-2.6c.48.28.74.78.74 1.29l3.58 2.07c.73-.36 1.55-.56 2.43-.56 2.33 0 4.32 1.45 5.12 3.5z"/></svg>