<svg xmlns="http://www.w3.org/2000/svg" width="24" height="24" viewBox="0 0 24 24" fill='currentColor'><path d="M13.5 2.5c0-1.1.9-2 2-2s2 .9 2 2-.9 2-2 2-2-.9-2-2M7.75 22c-.41 0-.75.34-.75.75s.34.75.75.75.75-.34.75-.75-.34-.75-.75-.75m8.5 0c-.41 0-.75.34-.75.75s.34.75.75.75.75-.34.75-.75-.34-.75-.75-.75m3.49-3.5a.72.72 0 0 0-.59.3c-.55.73-1.42 1.2-2.4 1.2h-.25v-6l-4.32-2.67 1.8-2.89a6.51 6.51 0 0 0 5.52 3.06v-2c-1.85 0-3.44-1.12-4.13-2.72l-.52-1.21c-.19-.43-.74-1.07-1.65-1.07H7.5L5 8.5l1.7 1.06L8.6 6.5h2.35l-2.4 3.84c-.31.5-.39 1.11-.21 1.67l1.34 4.15-3.12 3.76c-.7-.16-1.3-.57-1.71-1.12a.749.749 0 1 0-1.2.9c.82 1.1 2.13 1.8 3.6 1.8h9.5c1.47 0 2.78-.7 3.6-1.8.1-.14.15-.3.15-.45 0-.39-.32-.75-.76-.75M14.5 20H9.1l2.9-3.5-1-3.3 3.5 2.2z"/></svg>