<svg xmlns="http://www.w3.org/2000/svg" width="24" height="24" viewBox="0 0 24 24" fill='currentColor'><path d="M13.025 9.79 9.975 7.5v9l3.05-2.29 2.95-2.21zm0 0L9.975 7.5v9l3.05-2.29 2.95-2.21zm0 0L9.975 7.5v9l3.05-2.29 2.95-2.21zm-2.05-5.72V2.05c-2.01.2-3.84 1-5.32 2.21l1.42 1.43a7.94 7.94 0 0 1 3.9-1.62M5.665 7.1l-1.43-1.42A9.95 9.95 0 0 0 2.025 11h2.02c.18-1.46.76-2.79 1.62-3.9M4.045 13h-2.02c.2 2.01 1 3.84 2.21 5.32l1.43-1.43A7.87 7.87 0 0 1 4.045 13m1.61 6.74a10 10 0 0 0 5.32 2.21v-2.02a7.94 7.94 0 0 1-3.9-1.62zM21.975 12c0 5.16-3.92 9.42-8.95 9.95v-2.02c3.92-.52 6.95-3.88 6.95-7.93s-3.03-7.41-6.95-7.93V2.05c5.03.53 8.95 4.79 8.95 9.95"/></svg>