<svg xmlns="http://www.w3.org/2000/svg" width="24" height="24" viewBox="0 0 24 24" fill='currentColor'><path d="M19 9.49h-1.56c.35-.59.56-1.27.56-2 0-2.21-1.79-4-4-4-.34 0-.66.05-.98.13A4.7 4.7 0 0 0 10 2.51c-1.89 0-3.51 1.11-4.27 2.71C4.15 5.75 3 7.23 3 8.99c0 1.86 1.28 3.41 3 3.86v8.64h11v-2h2c1.1 0 2-.9 2-2v-6c0-1.1-.9-2-2-2m-12 1.5c-1.1 0-2-.9-2-2 0-.85.55-1.6 1.37-1.88l.8-.27.36-.76C8 5.11 8.94 4.51 10 4.51c.79 0 1.39.35 1.74.65l.78.65s.64-.32 1.47-.32c1.1 0 2 .9 2 2h-3c-3.32 0-3.84 3.5-5.99 3.5m12 6.5h-2v-6h2z"/></svg>