<svg xmlns="http://www.w3.org/2000/svg" width="24" height="24" viewBox="0 0 24 24" fill='currentColor'><path d="M3.81 6.28A9.9 9.9 0 0 0 2 12c0 2.13.67 4.1 1.81 5.72C6.23 16.95 8 14.68 8 12S6.23 7.05 3.81 6.28m16.38 0C17.77 7.05 16 9.32 16 12s1.77 4.95 4.19 5.72A9.9 9.9 0 0 0 22 12a9.9 9.9 0 0 0-1.81-5.72"/><path d="M14 12c0-3.28 1.97-6.09 4.79-7.33A9.95 9.95 0 0 0 12 2C9.37 2 6.99 3.02 5.21 4.67A8 8 0 0 1 10 12c0 3.28-1.97 6.09-4.79 7.33A9.95 9.95 0 0 0 12 22c2.63 0 5.01-1.02 6.79-2.67A8 8 0 0 1 14 12"/></svg>