<svg xmlns="http://www.w3.org/2000/svg" width="24" height="24" viewBox="0 0 24 24" fill='currentColor'><path d="M21 22.75c-1.03 0-2.06-.25-3-.75-1.89 1-4.11 1-6 0-1.89 1-4.11 1-6 0-.95.5-1.97.75-3 .75H2v-2h1c1.04 0 2.08-.35 3-1 1.83 1.3 4.17 1.3 6 0 1.83 1.3 4.17 1.3 6 0 .91.65 1.96 1 3 1h1v2zm-4-21.5c-1.1 0-2 .9-2 2s.9 2 2 2 2-.9 2-2-.9-2-2-2m-2.57 6.98-2.25 1.52 3.82 3v3.84c.53.38 1.03.78 1.49 1.17-.68.58-1.55.99-2.49.99-1.2 0-2.27-.66-3-1.5-.73.84-1.8 1.5-3 1.5-.33 0-.65-.05-.96-.14C5.19 16.65 3 14.47 3 13.03c0-1.03 1.01-1.28 1.85-1.28.98 0 2.28.31 3.7.83l-.53-3.1c-.11-.67.18-1.38.78-1.79l2.15-1.45-2-.37L6.13 7.8 5 6.15l3.5-2.4 5.55 1.03c.45.09.93.37 1.22.89l.88 1.55a5.01 5.01 0 0 0 4.35 2.53v2a7.01 7.01 0 0 1-6.07-3.52m-4.13 2.62.44 2.65c.92.42 2.48 1.27 3.26 1.75v-1.5z"/></svg>