<svg xmlns="http://www.w3.org/2000/svg" width="24" height="24" viewBox="0 0 24 24" fill='currentColor'><path d="M3.522 12.129c-.2-.86-.3-1.76-.3-2.68 0-2.84.99-5.45 2.63-7.5l1.07 1.07a10.46 10.46 0 0 0-1.88 8.99l1.62-1.62 1.06 1.06-3.5 3.5-3.5-3.5 1.06-1.06zm10.05-.56-2.68-5.37a1.5 1.5 0 0 0-2.01-.67c-.75.38-1.05 1.28-.68 2.02l4.81 9.6-3.24.8c-.33.09-.59.33-.7.66l-.35 1.12 6.19 2.25c.5.17 1.28.02 1.75-.22l5.51-2.75c.89-.45 1.32-1.48 1-2.42l-1.43-4.27a2 2 0 0 0-1.9-1.37h-4.56c-.31 0-.62.07-.89.21z"/></svg>