<svg xmlns="http://www.w3.org/2000/svg" width="24" height="24" viewBox="0 0 24 24" fill='currentColor'><path d="M10.57 5.78V3.69c-.8.21-1.55.54-2.23.96L9.8 6.11c.25-.12.5-.24.77-.33m-7.14-.94L5.79 7.2a7.925 7.925 0 0 0 1.14 9.87l-2.36 2.36h6v-6l-2.24 2.24a6 6 0 0 1-1.76-4.24c0-1 .25-1.94.68-2.77l8.08 8.08c-.25.13-.5.25-.77.34v2.09c.8-.21 1.55-.54 2.23-.96l2.36 2.36 1.27-1.27L4.71 3.57zm17.14-1.41h-6v6l2.24-2.24a6 6 0 0 1 1.76 4.24c0 1-.25 1.94-.68 2.77l1.46 1.46a7.926 7.926 0 0 0-1.14-9.87z"/></svg>