<svg xmlns="http://www.w3.org/2000/svg" width="24" height="24" viewBox="0 0 24 24" fill='currentColor'><path d="M13.986 4.014h2v2h-2zm-1 3h2v2h-2zm-2-3h2v2h-2zm7 5h-2v-2h2zm1-3h-2v-2h2zm2 3h-2v-2h2zm1-3h-2v-2h2zm-7.38 8.38-2.52 2.52c-2.5-1.43-4.57-3.5-6-6l2.52-2.52c.24-.24.34-.58.28-.9l-.74-3.68c-.09-.46-.5-.8-.98-.8h-4.15c-.56 0-1.03.47-1 1.03.17 2.89 1.02 5.6 2.4 7.97 1.58 2.73 3.85 4.99 6.57 6.57 2.37 1.37 5.08 2.23 7.97 2.4.56.03 1.03-.44 1.03-1v-4.15c0-.48-.34-.89-.8-.98l-3.67-.73a.99.99 0 0 0-.91.27m-.62-4.38h2v2h-2zm-3 0h2v2h-2zm8 2h-2v-2h2zm3 0h-2v-2h2z"/></svg>