<svg xmlns="http://www.w3.org/2000/svg" width="24" height="24" viewBox="0 0 24 24" fill='currentColor'><path d="m9.385 5.13-1.45-1.45a8.86 8.86 0 0 1 4.78-1.39c2.74 0 5.19 1.23 6.84 3.16l2.16-2.16v6h-6l2.41-2.41c-1.29-1.57-3.23-2.59-5.41-2.59-1.2 0-2.34.31-3.33.84m4.33 1.16h-2v1.17l2 2zm6.78 15.61-3-3a8.97 8.97 0 0 1-4.78 1.39 9 9 0 0 1-9-9c0-1.76.51-3.4 1.39-4.78l-3-3 1.41-1.41 18.38 18.38zm-4.46-4.46-9.48-9.48a7.06 7.06 0 0 0-.84 3.33c0 3.86 3.14 7 7 7 1.2 0 2.34-.31 3.32-.85m5.62-5.15h-2.02c-.12.83-.39 1.61-.77 2.32l1.47 1.47c.7-1.12 1.17-2.41 1.32-3.79"/></svg>