<svg xmlns="http://www.w3.org/2000/svg" width="24" height="24" viewBox="0 0 24 24" fill='currentColor'><path d="M2.305 16.2h1c1.33 0 2.71-.18 4-.5v3c-1.29-.32-2.67-.5-4-.5h-1zm14.17 2.5h-8.17v-3h5.17L1.695 3.92l1.41-1.41 18.38 18.38-1.41 1.41zm2.66-3h3.17v3h-.17zm-7.83 1.5c0-.28-.22-.5-.5-.5s-.5.22-.5.5.22.5.5.5.5-.22.5-.5m11-4.74v2.24h-1.5v-2.23c0-2.24-1.76-4.07-4-4.07V6.9c1.02 0 1.85-.83 1.85-1.85s-.83-1.85-1.85-1.85V1.7c1.85 0 3.35 1.5 3.35 3.35 0 .93-.38 1.77-1 2.38 1.87.89 3.15 2.81 3.15 5.03m-10.85-4.44V8c0-1.85 1.5-3.35 3.35-3.35v1.5c-1.02 0-1.85.73-1.85 1.75s.83 2 1.85 2h1.53c1.87 0 3.47 1.35 3.47 3.16v1.64h-1.5v-1.3c0-1.31-.92-2.05-1.97-2.05h-1.55z"/></svg>