<svg width="16" height="16" viewBox="0 0 16 16" xmlns="http://www.w3.org/2000/svg" fill='currentColor'><g clip-path="url(#clip0_104_465)"><path fill-rule="evenodd" clip-rule="evenodd" d="M15 2C15 1.73478 14.8946 1.48043 14.7071 1.29289C14.5196 1.10536 14.2652 1 14 1H2C1.73478 1 1.48043 1.10536 1.29289 1.29289C1.10536 1.48043 1 1.73478 1 2V14C1 14.2652 1.10536 14.5196 1.29289 14.7071C1.48043 14.8946 1.73478 15 2 15H14C14.2652 15 14.5196 14.8946 14.7071 14.7071C14.8946 14.5196 15 14.2652 15 14V2ZM0 2C0 1.46957 0.210714 0.960859 0.585786 0.585786C0.960859 0.210714 1.46957 0 2 0L14 0C14.5304 0 15.0391 0.210714 15.4142 0.585786C15.7893 0.960859 16 1.46957 16 2V14C16 14.5304 15.7893 15.0391 15.4142 15.4142C15.0391 15.7893 14.5304 16 14 16H2C1.46957 16 0.960859 15.7893 0.585786 15.4142C0.210714 15.0391 0 14.5304 0 14V2ZM5.854 10.803C5.76025 10.8969 5.63304 10.9497 5.50035 10.9498C5.36767 10.9499 5.24039 10.8973 5.1465 10.8035C5.05261 10.7097 4.99982 10.5825 4.99972 10.4499C4.99963 10.3172 5.05225 10.1899 5.146 10.096L9.243 6H6.475C6.34239 6 6.21521 5.94732 6.12145 5.85355C6.02768 5.75979 5.975 5.63261 5.975 5.5C5.975 5.36739 6.02768 5.24021 6.12145 5.14645C6.21521 5.05268 6.34239 5 6.475 5H10.45C10.5826 5 10.7098 5.05268 10.8036 5.14645C10.8973 5.24021 10.95 5.36739 10.95 5.5V9.475C10.95 9.60761 10.8973 9.73479 10.8036 9.82855C10.7098 9.92232 10.5826 9.975 10.45 9.975C10.3174 9.975 10.1902 9.92232 10.0964 9.82855C10.0027 9.73479 9.95 9.60761 9.95 9.475V6.707L5.854 10.803Z"/></g><defs><clipPath id="clip0_104_465"><rect width="16" height="16"/></clipPath></defs></svg>