<svg width="16" height="16" viewBox="0 0 16 16" xmlns="http://www.w3.org/2000/svg" fill='currentColor'><path d="M13.106 7.222C13.106 4.255 10.857 2.19 7.624 2.19C4.274 2.19 1.978 4.508 1.978 7.892C1.978 11.385 4.213 13.6 7.74 13.6C8.602 13.6 9.429 13.477 10.044 13.265V12.403C9.614 12.602 8.69 12.731 7.754 12.731C4.828 12.731 2.941 10.851 2.941 7.933C2.941 5.089 4.862 3.052 7.535 3.052C10.27 3.052 12.143 4.74 12.143 7.208C12.143 8.89 11.589 9.977 10.727 9.977C10.235 9.977 9.955 9.697 9.955 9.217V5.206H8.923V6.04H8.813C8.547 5.445 7.932 5.076 7.213 5.076C5.813 5.076 4.835 6.238 4.835 7.899C4.835 9.636 5.792 10.805 7.214 10.805C8.014 10.805 8.629 10.415 8.923 9.718H9.033C9.114 10.388 9.736 10.866 10.536 10.866C12.108 10.866 13.106 9.451 13.106 7.223V7.222ZM5.929 7.926C5.929 6.729 6.469 6.019 7.385 6.019C8.315 6.019 8.909 6.757 8.909 7.926C8.909 9.095 8.308 9.84 7.371 9.84C6.476 9.84 5.929 9.115 5.929 7.926Z"/></svg>