<svg width="16" height="16" viewBox="0 0 16 16" xmlns="http://www.w3.org/2000/svg" fill='currentColor'><g clip-path="url(#clip0_104_672)"><path d="M2 2V15.5C1.99994 15.5868 2.02248 15.6722 2.06542 15.7476C2.10836 15.8231 2.17022 15.8861 2.24489 15.9304C2.31957 15.9747 2.40449 15.9988 2.4913 16.0003C2.57812 16.0018 2.66383 15.9807 2.74 15.939L8 13.069L13.26 15.939C13.3362 15.9807 13.4219 16.0018 13.5087 16.0003C13.5955 15.9988 13.6804 15.9747 13.7551 15.9304C13.8298 15.8861 13.8916 15.8231 13.9346 15.7476C13.9775 15.6722 14.0001 15.5868 14 15.5V2C14 1.46957 13.7893 0.960859 13.4142 0.585786C13.0391 0.210714 12.5304 0 12 0L4 0C3.46957 0 2.96086 0.210714 2.58579 0.585786C2.21071 0.960859 2 1.46957 2 2Z"/></g><defs><clipPath id="clip0_104_672"><rect width="16" height="16"/></clipPath></defs></svg>