<svg width="16" height="16" viewBox="0 0 16 16" xmlns="http://www.w3.org/2000/svg" fill='currentColor'><g clip-path="url(#clip0_104_949)"><path d="M4 0.5C4 0.367392 3.94732 0.240215 3.85355 0.146447C3.75979 0.0526784 3.63261 0 3.5 0C3.36739 0 3.24021 0.0526784 3.14645 0.146447C3.05268 0.240215 3 0.367392 3 0.5V1H2C1.46957 1 0.960859 1.21071 0.585786 1.58579C0.210714 1.96086 0 2.46957 0 3L0 4H16V3C16 2.46957 15.7893 1.96086 15.4142 1.58579C15.0391 1.21071 14.5304 1 14 1H13V0.5C13 0.367392 12.9473 0.240215 12.8536 0.146447C12.7598 0.0526784 12.6326 0 12.5 0C12.3674 0 12.2402 0.0526784 12.1464 0.146447C12.0527 0.240215 12 0.367392 12 0.5V1H4V0.5ZM16 14V5H0V14C0 14.5304 0.210714 15.0391 0.585786 15.4142C0.960859 15.7893 1.46957 16 2 16H14C14.5304 16 15.0391 15.7893 15.4142 15.4142C15.7893 15.0391 16 14.5304 16 14ZM10.854 8.854L7.854 11.854C7.80755 11.9006 7.75238 11.9375 7.69163 11.9627C7.63089 11.9879 7.56577 12.0009 7.5 12.0009C7.43423 12.0009 7.36911 11.9879 7.30837 11.9627C7.24762 11.9375 7.19245 11.9006 7.146 11.854L5.646 10.354C5.55211 10.2601 5.49937 10.1328 5.49937 10C5.49937 9.86722 5.55211 9.73989 5.646 9.646C5.73989 9.55211 5.86722 9.49937 6 9.49937C6.13278 9.49937 6.26011 9.55211 6.354 9.646L7.5 10.793L10.146 8.146C10.2399 8.05211 10.3672 7.99937 10.5 7.99937C10.6328 7.99937 10.7601 8.05211 10.854 8.146C10.9479 8.23989 11.0006 8.36722 11.0006 8.5C11.0006 8.63278 10.9479 8.76011 10.854 8.854Z"/></g><defs><clipPath id="clip0_104_949"><rect width="16" height="16"/></clipPath></defs></svg>