<svg width="16" height="16" viewBox="0 0 16 16" xmlns="http://www.w3.org/2000/svg" fill='currentColor'><path d="M3.204 11H12.796L8 5.51899L3.204 11ZM2.451 10.341L7.247 4.86099C7.34086 4.75358 7.45662 4.6675 7.58649 4.60851C7.71637 4.54953 7.85736 4.51901 8 4.51901C8.14264 4.51901 8.28363 4.54953 8.41351 4.60851C8.54339 4.6675 8.65914 4.75358 8.753 4.86099L13.549 10.341C14.115 10.988 13.655 12 12.796 12H3.204C3.01176 12.0002 2.82354 11.9449 2.66189 11.8409C2.50024 11.7368 2.37201 11.5884 2.29255 11.4133C2.21309 11.2382 2.18578 11.044 2.21388 10.8538C2.24199 10.6636 2.32431 10.4856 2.451 10.341Z"/></svg>