<svg width="16" height="16" viewBox="0 0 16 16" xmlns="http://www.w3.org/2000/svg" fill='currentColor'><path d="M8 2C6.68024 2.00414 5.40548 2.48014 4.406 3.342C3.64 4.002 3.085 4.862 2.942 5.725C1.266 6.095 0 7.555 0 9.318C0 11.366 1.708 13 3.781 13H12.687C14.502 13 16 11.57 16 9.773C16 8.137 14.758 6.804 13.166 6.579C12.923 3.999 10.69 2 8 2ZM10.354 6.854L7.354 9.854C7.30755 9.90056 7.25238 9.93751 7.19163 9.96271C7.13089 9.98792 7.06577 10.0009 7 10.0009C6.93423 10.0009 6.86911 9.98792 6.80837 9.96271C6.74762 9.93751 6.69245 9.90056 6.646 9.854L5.146 8.354C5.09951 8.30751 5.06264 8.25232 5.03748 8.19158C5.01232 8.13084 4.99937 8.06574 4.99937 8C4.99937 7.93426 5.01232 7.86916 5.03748 7.80842C5.06264 7.74768 5.09951 7.69249 5.146 7.646C5.19249 7.59951 5.24768 7.56264 5.30842 7.53748C5.36916 7.51232 5.43426 7.49937 5.5 7.49937C5.56574 7.49937 5.63084 7.51232 5.69158 7.53748C5.75232 7.56264 5.80751 7.59951 5.854 7.646L7 8.793L9.646 6.146C9.73989 6.05211 9.86722 5.99937 10 5.99937C10.1328 5.99937 10.2601 6.05211 10.354 6.146C10.4479 6.23989 10.5006 6.36722 10.5006 6.5C10.5006 6.63278 10.4479 6.76011 10.354 6.854Z"/></svg>