<svg width="16" height="16" viewBox="0 0 16 16" xmlns="http://www.w3.org/2000/svg" fill='currentColor'><path d="M10.478 1.64697C10.4973 1.5842 10.504 1.51824 10.4979 1.45286C10.4917 1.38748 10.4727 1.32396 10.4419 1.26592C10.4112 1.20788 10.3693 1.15647 10.3187 1.11461C10.2681 1.07275 10.2098 1.04128 10.147 1.02197C10.0842 1.00267 10.0183 0.995915 9.95288 1.0021C9.8875 1.00829 9.82398 1.02729 9.76594 1.05803C9.7079 1.08877 9.65649 1.13063 9.61463 1.18124C9.57278 1.23184 9.5413 1.2902 9.52199 1.35297L5.52199 14.353C5.48301 14.4797 5.49598 14.6168 5.55805 14.734C5.62013 14.8512 5.72622 14.939 5.85299 14.978C5.97977 15.017 6.11684 15.004 6.23405 14.9419C6.35126 14.8798 6.43901 14.7737 6.47799 14.647L10.478 1.64697ZM4.85399 4.14597C4.90056 4.19242 4.9375 4.24759 4.96271 4.30834C4.98791 4.36908 5.00089 4.4342 5.00089 4.49997C5.00089 4.56574 4.98791 4.63086 4.96271 4.6916C4.9375 4.75235 4.90056 4.80753 4.85399 4.85397L1.70699 7.99997L4.85399 11.146C4.94788 11.2399 5.00063 11.3672 5.00063 11.5C5.00063 11.6327 4.94788 11.7601 4.85399 11.854C4.76011 11.9479 4.63277 12.0006 4.49999 12.0006C4.36722 12.0006 4.23988 11.9479 4.14599 11.854L0.645994 8.35397C0.59943 8.30753 0.562487 8.25235 0.537281 8.1916C0.512075 8.13086 0.4991 8.06574 0.4991 7.99997C0.4991 7.9342 0.512075 7.86908 0.537281 7.80834C0.562487 7.74759 0.59943 7.69242 0.645994 7.64597L4.14599 4.14597C4.19244 4.09941 4.24761 4.06246 4.30836 4.03726C4.36911 4.01205 4.43423 3.99908 4.49999 3.99908C4.56576 3.99908 4.63088 4.01205 4.69163 4.03726C4.75237 4.06246 4.80755 4.09941 4.85399 4.14597ZM11.146 4.14597C11.0994 4.19242 11.0625 4.24759 11.0373 4.30834C11.0121 4.36908 10.9991 4.4342 10.9991 4.49997C10.9991 4.56574 11.0121 4.63086 11.0373 4.6916C11.0625 4.75235 11.0994 4.80753 11.146 4.85397L14.293 7.99997L11.146 11.146C11.0995 11.1925 11.0626 11.2476 11.0375 11.3084C11.0123 11.3691 10.9994 11.4342 10.9994 11.5C10.9994 11.5657 11.0123 11.6308 11.0375 11.6916C11.0626 11.7523 11.0995 11.8075 11.146 11.854C11.1925 11.9005 11.2477 11.9373 11.3084 11.9625C11.3691 11.9877 11.4342 12.0006 11.5 12.0006C11.5657 12.0006 11.6308 11.9877 11.6916 11.9625C11.7523 11.9373 11.8075 11.9005 11.854 11.854L15.354 8.35397C15.4006 8.30753 15.4375 8.25235 15.4627 8.1916C15.4879 8.13086 15.5009 8.06574 15.5009 7.99997C15.5009 7.9342 15.4879 7.86908 15.4627 7.80834C15.4375 7.74759 15.4006 7.69242 15.354 7.64597L11.854 4.14597C11.8075 4.09941 11.7524 4.06246 11.6916 4.03726C11.6309 4.01205 11.5658 3.99908 11.5 3.99908C11.4342 3.99908 11.3691 4.01205 11.3084 4.03726C11.2476 4.06246 11.1924 4.09941 11.146 4.14597Z"/></svg>