<svg width="16" height="16" viewBox="0 0 16 16" xmlns="http://www.w3.org/2000/svg" fill='currentColor'><g clip-path="url(#clip0_104_1655)"><path d="M8 15C6.14348 15 4.36301 14.2625 3.05025 12.9497C1.7375 11.637 1 9.85652 1 8C1 6.14348 1.7375 4.36301 3.05025 3.05025C4.36301 1.7375 6.14348 1 8 1C9.85652 1 11.637 1.7375 12.9497 3.05025C14.2625 4.36301 15 6.14348 15 8C15 9.85652 14.2625 11.637 12.9497 12.9497C11.637 14.2625 9.85652 15 8 15ZM8 16C10.1217 16 12.1566 15.1571 13.6569 13.6569C15.1571 12.1566 16 10.1217 16 8C16 5.87827 15.1571 3.84344 13.6569 2.34315C12.1566 0.842855 10.1217 0 8 0C5.87827 0 3.84344 0.842855 2.34315 2.34315C0.842855 3.84344 0 5.87827 0 8C0 10.1217 0.842855 12.1566 2.34315 13.6569C3.84344 15.1571 5.87827 16 8 16Z"/><path d="M4.285 12.433C4.39984 12.4993 4.53632 12.5173 4.6644 12.4829C4.79249 12.4486 4.9017 12.3648 4.968 12.25C5.27512 11.7177 5.71706 11.2756 6.24933 10.9684C6.78161 10.6612 7.38543 10.4996 8.00001 10.5C9.295 10.5 10.426 11.203 11.032 12.25C11.0988 12.3639 11.2079 12.4468 11.3355 12.4805C11.4632 12.5143 11.599 12.4962 11.7134 12.4301C11.8277 12.3641 11.9113 12.2556 11.9459 12.1281C11.9805 12.0007 11.9633 11.8648 11.898 11.75C11.5031 11.0656 10.935 10.4974 10.2507 10.1024C9.56637 9.70741 8.79011 9.49964 8.00001 9.5C7.20994 9.49984 6.43376 9.7077 5.7495 10.1027C5.06525 10.4976 4.49704 11.0658 4.10201 11.75C4.0357 11.8648 4.01774 12.0013 4.05206 12.1294C4.08637 12.2575 4.17017 12.3667 4.285 12.433ZM7.00001 6.5C7.00001 7.328 6.55201 8 6.00001 8C5.448 8 5.00001 7.328 5.00001 6.5C5.00001 5.672 5.448 5 6.00001 5C6.55201 5 7.00001 5.672 7.00001 6.5ZM11 6.5C11 7.328 10.552 8 10 8C9.44801 8 9.00001 7.328 9.00001 6.5C9.00001 5.672 9.44801 5 10 5C10.552 5 11 5.672 11 6.5Z"/></g><defs><clipPath id="clip0_104_1655"><rect width="16" height="16"/></clipPath></defs></svg>