<svg width="16" height="16" viewBox="0 0 16 16" xmlns="http://www.w3.org/2000/svg" fill='currentColor'><g clip-path="url(#clip0_104_1688)"><path d="M8 16C10.1217 16 12.1566 15.1571 13.6569 13.6569C15.1571 12.1566 16 10.1217 16 8C16 5.87827 15.1571 3.84344 13.6569 2.34315C12.1566 0.842855 10.1217 0 8 0C5.87827 0 3.84344 0.842855 2.34315 2.34315C0.842855 3.84344 0 5.87827 0 8C0 10.1217 0.842855 12.1566 2.34315 13.6569C3.84344 15.1571 5.87827 16 8 16ZM2.31 5.243C2.27306 5.09555 2.27023 4.94162 2.3017 4.79291C2.33318 4.6442 2.39815 4.50462 2.49167 4.38479C2.58518 4.26495 2.70479 4.16801 2.84139 4.10134C2.97799 4.03466 3.12799 4 3.28 4H6C6.26522 4 6.51957 4.10536 6.70711 4.29289C6.89464 4.48043 7 4.73478 7 5V5.116C7.32751 5.03757 7.66323 4.99863 8 5C8.35 5 8.69 5.04 9 5.116V5C9 4.73478 9.10536 4.48043 9.29289 4.29289C9.48043 4.10536 9.73478 4 10 4H12.72C12.872 4 13.022 4.03466 13.1586 4.10134C13.2952 4.16801 13.4148 4.26495 13.5083 4.38479C13.6019 4.50462 13.6668 4.6442 13.6983 4.79291C13.7298 4.94162 13.7269 5.09555 13.69 5.243L13.379 6.485C13.2708 6.91768 13.0212 7.30179 12.6697 7.57629C12.3182 7.8508 11.885 7.99993 11.439 8H11C10.4974 8.00012 10.0131 7.81097 9.64359 7.4702C9.2741 7.12943 9.04646 6.66202 9.006 6.161C8.68235 6.05018 8.34207 5.99572 8 6C7.607 6 7.26 6.064 6.994 6.161C6.95354 6.66202 6.7259 7.12943 6.35641 7.4702C5.98691 7.81097 5.50265 8.00012 5 8H4.562C4.11601 7.99993 3.68284 7.8508 3.33133 7.57629C2.97982 7.30179 2.73015 6.91768 2.622 6.485L2.31 5.243ZM4.969 9.75C5.27603 10.2822 5.71781 10.7241 6.2499 11.0313C6.78198 11.3385 7.3856 11.5002 8 11.5C8.61457 11.5004 9.2184 11.3388 9.75067 11.0316C10.2829 10.7244 10.7249 10.2823 11.032 9.75C11.0646 9.69268 11.1082 9.64237 11.1603 9.60197C11.2124 9.56157 11.272 9.53187 11.3357 9.5146C11.3993 9.49732 11.4657 9.4928 11.5311 9.5013C11.5965 9.5098 11.6596 9.53115 11.7167 9.56412C11.7738 9.59709 11.8238 9.64103 11.8638 9.69341C11.9039 9.74579 11.9332 9.80558 11.95 9.86933C11.9669 9.93308 11.971 9.99953 11.962 10.0649C11.9531 10.1302 11.9313 10.1931 11.898 10.25C11.5031 10.9344 10.9349 11.5026 10.2507 11.8976C9.56637 12.2926 8.79011 12.5004 8 12.5C7.20989 12.5004 6.43363 12.2926 5.74934 11.8976C5.06505 11.5026 4.49688 10.9344 4.102 10.25C4.03674 10.1352 4.01953 9.99929 4.05413 9.87187C4.08872 9.74445 4.17231 9.63588 4.28665 9.56986C4.401 9.50384 4.53681 9.48573 4.66446 9.51948C4.79211 9.55323 4.90122 9.6361 4.968 9.75H4.969Z"/></g><defs><clipPath id="clip0_104_1688"><rect width="16" height="16"/></clipPath></defs></svg>