<svg width="16" height="16" viewBox="0 0 16 16" xmlns="http://www.w3.org/2000/svg" fill='currentColor'><g clip-path="url(#clip0_104_1717)"><path d="M9.05001 0.435C8.47001 -0.145 7.53001 -0.145 6.95001 0.435L0.436007 6.95C-0.143993 7.53 -0.143993 8.469 0.436007 9.048L6.95201 15.564C7.53201 16.144 8.47101 16.144 9.05001 15.564L15.566 9.048C16.146 8.468 16.146 7.529 15.566 6.95L9.05001 0.435ZM8.00001 4C8.53501 4 8.95401 4.462 8.90001 4.995L8.55001 8.502C8.53825 8.63977 8.47521 8.76811 8.37336 8.86164C8.27152 8.95516 8.13828 9.00705 8.00001 9.00705C7.86173 9.00705 7.7285 8.95516 7.62665 8.86164C7.52481 8.76811 7.46177 8.63977 7.45001 8.502L7.10001 4.995C7.08744 4.86923 7.10135 4.74223 7.14085 4.62217C7.18035 4.5021 7.24456 4.39165 7.32935 4.29791C7.41414 4.20418 7.51762 4.12924 7.63313 4.07793C7.74864 4.02662 7.87361 4.00007 8.00001 4ZM8.00201 10C8.26722 10 8.52158 10.1054 8.70911 10.2929C8.89665 10.4804 9.00201 10.7348 9.00201 11C9.00201 11.2652 8.89665 11.5196 8.70911 11.7071C8.52158 11.8946 8.26722 12 8.00201 12C7.73679 12 7.48244 11.8946 7.2949 11.7071C7.10736 11.5196 7.00201 11.2652 7.00201 11C7.00201 10.7348 7.10736 10.4804 7.2949 10.2929C7.48244 10.1054 7.73679 10 8.00201 10Z"/></g><defs><clipPath id="clip0_104_1717"><rect width="16" height="16"/></clipPath></defs></svg>