<svg width="16" height="16" viewBox="0 0 16 16" xmlns="http://www.w3.org/2000/svg" fill='currentColor'><g clip-path="url(#clip0_104_1817)"><path d="M9.293 0H4C3.46957 0 2.96086 0.210714 2.58579 0.585786C2.21071 0.960859 2 1.46957 2 2V14C2 14.5304 2.21071 15.0391 2.58579 15.4142C2.96086 15.7893 3.46957 16 4 16H12C12.5304 16 13.0391 15.7893 13.4142 15.4142C13.7893 15.0391 14 14.5304 14 14V4.707C13.9999 4.4418 13.8945 4.18749 13.707 4L10 0.293C9.81251 0.105451 9.5582 5.66374e-05 9.293 0V0ZM9.5 3.5V1.5L12.5 4.5H10.5C10.2348 4.5 9.98043 4.39464 9.79289 4.20711C9.60536 4.01957 9.5 3.76522 9.5 3.5ZM10 13.5V7.5C10 7.36739 10.0527 7.24021 10.1464 7.14645C10.2402 7.05268 10.3674 7 10.5 7H11.5C11.6326 7 11.7598 7.05268 11.8536 7.14645C11.9473 7.24021 12 7.36739 12 7.5V13.5C12 13.6326 11.9473 13.7598 11.8536 13.8536C11.7598 13.9473 11.6326 14 11.5 14H10.5C10.3674 14 10.2402 13.9473 10.1464 13.8536C10.0527 13.7598 10 13.6326 10 13.5ZM7.5 14C7.36739 14 7.24021 13.9473 7.14645 13.8536C7.05268 13.7598 7 13.6326 7 13.5V9.5C7 9.36739 7.05268 9.24021 7.14645 9.14645C7.24021 9.05268 7.36739 9 7.5 9H8.5C8.63261 9 8.75979 9.05268 8.85355 9.14645C8.94732 9.24021 9 9.36739 9 9.5V13.5C9 13.6326 8.94732 13.7598 8.85355 13.8536C8.75979 13.9473 8.63261 14 8.5 14H7.5ZM4.5 14C4.36739 14 4.24021 13.9473 4.14645 13.8536C4.05268 13.7598 4 13.6326 4 13.5V11.5C4 11.3674 4.05268 11.2402 4.14645 11.1464C4.24021 11.0527 4.36739 11 4.5 11H5.5C5.63261 11 5.75979 11.0527 5.85355 11.1464C5.94732 11.2402 6 11.3674 6 11.5V13.5C6 13.6326 5.94732 13.7598 5.85355 13.8536C5.75979 13.9473 5.63261 14 5.5 14H4.5Z"/></g><defs><clipPath id="clip0_104_1817"><rect width="16" height="16"/></clipPath></defs></svg>