<svg width="16" height="16" viewBox="0 0 16 16" xmlns="http://www.w3.org/2000/svg" fill='currentColor'><g clip-path="url(#clip0_104_2028)"><path d="M12 0H4C3.46957 0 2.96086 0.210714 2.58579 0.585786C2.21071 0.960859 2 1.46957 2 2V14C2 14.5304 2.21071 15.0391 2.58579 15.4142C2.96086 15.7893 3.46957 16 4 16H12C12.5304 16 13.0391 15.7893 13.4142 15.4142C13.7893 15.0391 14 14.5304 14 14V2C14 1.46957 13.7893 0.960859 13.4142 0.585786C13.0391 0.210714 12.5304 0 12 0V0ZM11 7C11 7.79565 10.6839 8.55871 10.1213 9.12132C9.55871 9.68393 8.79565 10 8 10C7.20435 10 6.44129 9.68393 5.87868 9.12132C5.31607 8.55871 5 7.79565 5 7C5 6.20435 5.31607 5.44129 5.87868 4.87868C6.44129 4.31607 7.20435 4 8 4C8.79565 4 9.55871 4.31607 10.1213 4.87868C10.6839 5.44129 11 6.20435 11 7ZM8 11C10.623 11 12.146 11.826 13 12.755V14C13 14.2652 12.8946 14.5196 12.7071 14.7071C12.5196 14.8946 12.2652 15 12 15H4C3.73478 15 3.48043 14.8946 3.29289 14.7071C3.10536 14.5196 3 14.2652 3 14V12.755C3.854 11.825 5.377 11 8 11Z"/></g><defs><clipPath id="clip0_104_2028"><rect width="16" height="16"/></clipPath></defs></svg>