<svg width="16" height="16" viewBox="0 0 16 16" xmlns="http://www.w3.org/2000/svg" fill='currentColor'><path d="M8 5C8.13261 5 8.25979 5.05268 8.35355 5.14645C8.44732 5.24021 8.5 5.36739 8.5 5.5V7H10C10.1326 7 10.2598 7.05268 10.3536 7.14645C10.4473 7.24021 10.5 7.36739 10.5 7.5C10.5 7.63261 10.4473 7.75979 10.3536 7.85355C10.2598 7.94732 10.1326 8 10 8H8.5V9.5C8.5 9.63261 8.44732 9.75979 8.35355 9.85355C8.25979 9.94732 8.13261 10 8 10C7.86739 10 7.74021 9.94732 7.64645 9.85355C7.55268 9.75979 7.5 9.63261 7.5 9.5V8H6C5.86739 8 5.74021 7.94732 5.64645 7.85355C5.55268 7.75979 5.5 7.63261 5.5 7.5C5.5 7.36739 5.55268 7.24021 5.64645 7.14645C5.74021 7.05268 5.86739 7 6 7H7.5V5.5C7.5 5.36739 7.55268 5.24021 7.64645 5.14645C7.74021 5.05268 7.86739 5 8 5ZM5.5 11.5C5.5 11.3674 5.55268 11.2402 5.64645 11.1464C5.74021 11.0527 5.86739 11 6 11H10C10.1326 11 10.2598 11.0527 10.3536 11.1464C10.4473 11.2402 10.5 11.3674 10.5 11.5C10.5 11.6326 10.4473 11.7598 10.3536 11.8536C10.2598 11.9473 10.1326 12 10 12H6C5.86739 12 5.74021 11.9473 5.64645 11.8536C5.55268 11.7598 5.5 11.6326 5.5 11.5Z"/><path d="M14 14V4.5L9.5 0H4C3.46957 0 2.96086 0.210714 2.58579 0.585786C2.21071 0.960859 2 1.46957 2 2V14C2 14.5304 2.21071 15.0391 2.58579 15.4142C2.96086 15.7893 3.46957 16 4 16H12C12.5304 16 13.0391 15.7893 13.4142 15.4142C13.7893 15.0391 14 14.5304 14 14ZM9.5 3C9.5 3.39782 9.65804 3.77936 9.93934 4.06066C10.2206 4.34196 10.6022 4.5 11 4.5H13V14C13 14.2652 12.8946 14.5196 12.7071 14.7071C12.5196 14.8946 12.2652 15 12 15H4C3.73478 15 3.48043 14.8946 3.29289 14.7071C3.10536 14.5196 3 14.2652 3 14V2C3 1.73478 3.10536 1.48043 3.29289 1.29289C3.48043 1.10536 3.73478 1 4 1H9.5V3Z"/></svg>