<svg width="16" height="16" viewBox="0 0 16 16" xmlns="http://www.w3.org/2000/svg" fill='currentColor'><g clip-path="url(#clip0_104_1787)"><path d="M10.854 6.14598C10.9006 6.19242 10.9375 6.2476 10.9627 6.30834C10.9879 6.36909 11.0009 6.43421 11.0009 6.49998C11.0009 6.56575 10.9879 6.63087 10.9627 6.69161C10.9375 6.75236 10.9006 6.80753 10.854 6.85398L7.85399 9.85398C7.80755 9.90054 7.75237 9.93748 7.69162 9.96269C7.63088 9.9879 7.56576 10.0009 7.49999 10.0009C7.43422 10.0009 7.3691 9.9879 7.30836 9.96269C7.24761 9.93748 7.19244 9.90054 7.14599 9.85398L5.64599 8.35398C5.5995 8.30749 5.56263 8.2523 5.53747 8.19156C5.51231 8.13082 5.49936 8.06572 5.49936 7.99998C5.49936 7.93423 5.51231 7.86913 5.53747 7.80839C5.56263 7.74766 5.5995 7.69247 5.64599 7.64598C5.69248 7.59949 5.74767 7.56261 5.80841 7.53745C5.86915 7.5123 5.93425 7.49935 5.99999 7.49935C6.06573 7.49935 6.13084 7.5123 6.19157 7.53745C6.25231 7.56261 6.3075 7.59949 6.35399 7.64598L7.49999 8.79298L10.146 6.14598C10.1924 6.09941 10.2476 6.06247 10.3084 6.03727C10.3691 6.01206 10.4342 5.99908 10.5 5.99908C10.5658 5.99908 10.6309 6.01206 10.6916 6.03727C10.7524 6.06247 10.8075 6.09941 10.854 6.14598Z"/><path d="M4 0C3.46957 0 2.96086 0.210714 2.58579 0.585786C2.21071 0.960859 2 1.46957 2 2V14C2 14.5304 2.21071 15.0391 2.58579 15.4142C2.96086 15.7893 3.46957 16 4 16H12C12.5304 16 13.0391 15.7893 13.4142 15.4142C13.7893 15.0391 14 14.5304 14 14V2C14 1.46957 13.7893 0.960859 13.4142 0.585786C13.0391 0.210714 12.5304 0 12 0L4 0ZM4 1H12C12.2652 1 12.5196 1.10536 12.7071 1.29289C12.8946 1.48043 13 1.73478 13 2V14C13 14.2652 12.8946 14.5196 12.7071 14.7071C12.5196 14.8946 12.2652 15 12 15H4C3.73478 15 3.48043 14.8946 3.29289 14.7071C3.10536 14.5196 3 14.2652 3 14V2C3 1.73478 3.10536 1.48043 3.29289 1.29289C3.48043 1.10536 3.73478 1 4 1Z"/></g><defs><clipPath id="clip0_104_1787"><rect width="16" height="16"/></clipPath></defs></svg>