<svg width="16" height="16" viewBox="0 0 16 16" xmlns="http://www.w3.org/2000/svg" fill='currentColor'><g clip-path="url(#clip0_104_1955)"><path d="M9.293 0H4C3.46957 0 2.96086 0.210714 2.58579 0.585786C2.21071 0.960859 2 1.46957 2 2V14C2 14.5304 2.21071 15.0391 2.58579 15.4142C2.96086 15.7893 3.46957 16 4 16H12C12.5304 16 13.0391 15.7893 13.4142 15.4142C13.7893 15.0391 14 14.5304 14 14V4.707C13.9999 4.4418 13.8945 4.18749 13.707 4L10 0.293C9.81251 0.105451 9.5582 5.66374e-05 9.293 0V0ZM9.5 3.5V1.5L12.5 4.5H10.5C10.2348 4.5 9.98043 4.39464 9.79289 4.20711C9.60536 4.01957 9.5 3.76522 9.5 3.5ZM5.485 6.879L6.521 11.023L7.518 7.368C7.5471 7.2625 7.61001 7.16946 7.69708 7.10316C7.78414 7.03686 7.89056 7.00095 8 7.00095C8.10944 7.00095 8.21586 7.03686 8.30292 7.10316C8.38999 7.16946 8.4529 7.2625 8.482 7.368L9.479 11.023L10.515 6.879C10.5495 6.75305 10.632 6.64561 10.7447 6.57966C10.8575 6.51371 10.9915 6.49449 11.1182 6.5261C11.2449 6.55772 11.3543 6.63766 11.4228 6.74883C11.4914 6.86 11.5137 6.99358 11.485 7.121L9.985 13.121C9.95799 13.2281 9.89628 13.3232 9.80951 13.3915C9.72274 13.4599 9.61579 13.4975 9.50535 13.4987C9.39492 13.4998 9.28721 13.4644 9.19905 13.3979C9.11088 13.3313 9.04722 13.2375 9.018 13.131L8 9.402L6.982 13.132C6.95278 13.2385 6.88912 13.3323 6.80095 13.3989C6.71279 13.4654 6.60508 13.5008 6.49465 13.4997C6.38421 13.4985 6.27726 13.4609 6.19049 13.3925C6.10372 13.3242 6.04201 13.2291 6.015 13.122L4.515 7.122C4.49738 7.05774 4.49278 6.9906 4.50147 6.92453C4.51017 6.85847 4.53198 6.79481 4.56562 6.73729C4.59927 6.67978 4.64408 6.62957 4.69741 6.58961C4.75073 6.54966 4.81151 6.52077 4.87617 6.50464C4.94082 6.48851 5.00804 6.48546 5.07389 6.49569C5.13974 6.50591 5.20288 6.52919 5.2596 6.56416C5.31632 6.59913 5.36548 6.64508 5.40419 6.69932C5.4429 6.75356 5.47037 6.81499 5.485 6.88V6.879Z"/></g><defs><clipPath id="clip0_104_1955"><rect width="16" height="16"/></clipPath></defs></svg>