<svg width="16" height="16" viewBox="0 0 16 16" xmlns="http://www.w3.org/2000/svg" fill='currentColor'><path d="M9.828 3H13.81C14.0879 2.99997 14.3628 3.05787 14.6171 3.16999C14.8714 3.28212 15.0995 3.44601 15.287 3.65122C15.4744 3.85643 15.617 4.09845 15.7057 4.36184C15.7943 4.62524 15.8272 4.90422 15.802 5.181L15.165 12.181C15.1198 12.6779 14.8906 13.14 14.5222 13.4766C14.1538 13.8131 13.673 13.9998 13.174 14H2.825C2.32604 13.9998 1.84517 13.8131 1.4768 13.4766C1.10842 13.14 0.879156 12.6779 0.834 12.181L0.197 5.181C0.154386 4.71778 0.275394 4.25427 0.539 3.871L0.5 3C0.5 2.46957 0.710714 1.96086 1.08579 1.58579C1.46086 1.21071 1.96957 1 2.5 1H6.172C6.70239 1.00011 7.21101 1.2109 7.586 1.586L8.414 2.414C8.78899 2.7891 9.29761 2.99989 9.828 3ZM1.506 3.12C1.72 3.042 1.95 3 2.19 3H7.586L6.879 2.293C6.69151 2.10545 6.43719 2.00006 6.172 2H2.5C2.23804 1.99995 1.98653 2.1027 1.79953 2.28614C1.61253 2.46959 1.50498 2.71909 1.5 2.981L1.506 3.12Z"/></svg>