<svg width="16" height="16" viewBox="0 0 16 16" xmlns="http://www.w3.org/2000/svg" fill='currentColor'><g clip-path="url(#clip0_104_2162)"><path d="M1.5 1C1.36739 1 1.24021 1.05268 1.14645 1.14645C1.05268 1.24021 1 1.36739 1 1.5V5.5C1 5.63261 0.947322 5.75979 0.853553 5.85355C0.759785 5.94732 0.632608 6 0.5 6C0.367392 6 0.240215 5.94732 0.146447 5.85355C0.0526784 5.75979 0 5.63261 0 5.5V1.5C0 1.10218 0.158035 0.720644 0.43934 0.43934C0.720644 0.158035 1.10218 0 1.5 0L5.5 0C5.63261 0 5.75979 0.0526784 5.85355 0.146447C5.94732 0.240215 6 0.367392 6 0.5C6 0.632608 5.94732 0.759785 5.85355 0.853553C5.75979 0.947322 5.63261 1 5.5 1H1.5ZM10 0.5C10 0.367392 10.0527 0.240215 10.1464 0.146447C10.2402 0.0526784 10.3674 0 10.5 0L14.5 0C14.8978 0 15.2794 0.158035 15.5607 0.43934C15.842 0.720644 16 1.10218 16 1.5V5.5C16 5.63261 15.9473 5.75979 15.8536 5.85355C15.7598 5.94732 15.6326 6 15.5 6C15.3674 6 15.2402 5.94732 15.1464 5.85355C15.0527 5.75979 15 5.63261 15 5.5V1.5C15 1.36739 14.9473 1.24021 14.8536 1.14645C14.7598 1.05268 14.6326 1 14.5 1H10.5C10.3674 1 10.2402 0.947322 10.1464 0.853553C10.0527 0.759785 10 0.632608 10 0.5ZM0.5 10C0.632608 10 0.759785 10.0527 0.853553 10.1464C0.947322 10.2402 1 10.3674 1 10.5V14.5C1 14.6326 1.05268 14.7598 1.14645 14.8536C1.24021 14.9473 1.36739 15 1.5 15H5.5C5.63261 15 5.75979 15.0527 5.85355 15.1464C5.94732 15.2402 6 15.3674 6 15.5C6 15.6326 5.94732 15.7598 5.85355 15.8536C5.75979 15.9473 5.63261 16 5.5 16H1.5C1.10218 16 0.720644 15.842 0.43934 15.5607C0.158035 15.2794 0 14.8978 0 14.5L0 10.5C0 10.3674 0.0526784 10.2402 0.146447 10.1464C0.240215 10.0527 0.367392 10 0.5 10ZM15.5 10C15.6326 10 15.7598 10.0527 15.8536 10.1464C15.9473 10.2402 16 10.3674 16 10.5V14.5C16 14.8978 15.842 15.2794 15.5607 15.5607C15.2794 15.842 14.8978 16 14.5 16H10.5C10.3674 16 10.2402 15.9473 10.1464 15.8536C10.0527 15.7598 10 15.6326 10 15.5C10 15.3674 10.0527 15.2402 10.1464 15.1464C10.2402 15.0527 10.3674 15 10.5 15H14.5C14.6326 15 14.7598 14.9473 14.8536 14.8536C14.9473 14.7598 15 14.6326 15 14.5V10.5C15 10.3674 15.0527 10.2402 15.1464 10.1464C15.2402 10.0527 15.3674 10 15.5 10Z"/></g><defs><clipPath id="clip0_104_2162"><rect width="16" height="16"/></clipPath></defs></svg>