<svg width="16" height="16" viewBox="0 0 16 16" xmlns="http://www.w3.org/2000/svg" fill='currentColor'><g clip-path="url(#clip0_104_2204)"><path d="M0 8C0 5.87827 0.842855 3.84344 2.34315 2.34315C3.84344 0.842855 5.87827 0 8 0C10.1217 0 12.1566 0.842855 13.6569 2.34315C15.1571 3.84344 16 5.87827 16 8C16 10.1217 15.1571 12.1566 13.6569 13.6569C12.1566 15.1571 10.1217 16 8 16C5.87827 16 3.84344 15.1571 2.34315 13.6569C0.842855 12.1566 0 10.1217 0 8ZM7.5 1.077C6.83 1.281 6.165 1.897 5.613 2.932C5.43113 3.2761 5.27471 3.63305 5.145 4H7.5V1.077ZM4.09 4C4.25667 3.46882 4.47087 2.95373 4.73 2.461C4.90291 2.13406 5.10259 1.82199 5.327 1.528C4.088 2.04183 3.02201 2.89962 2.255 4H4.09ZM3.508 7.5C3.538 6.623 3.646 5.782 3.82 5H1.674C1.30112 5.78505 1.07861 6.63301 1.018 7.5H3.508ZM4.847 5C4.65032 5.8198 4.53707 6.6574 4.509 7.5H7.5V5H4.847ZM8.5 5V7.5H11.49C11.4623 6.65743 11.3494 5.81983 11.153 5H8.5ZM4.51 8.5C4.53774 9.34257 4.65065 10.1802 4.847 11H7.5V8.5H4.51ZM8.5 8.5V11H11.153C11.34 10.235 11.459 9.392 11.491 8.5H8.5ZM5.145 12C5.283 12.386 5.44 12.744 5.613 13.068C6.165 14.103 6.831 14.718 7.5 14.923V12H5.145ZM5.327 14.472C5.10257 14.178 4.90289 13.866 4.73 13.539C4.47088 13.0463 4.25668 12.5312 4.09 12H2.255C3.02196 13.1004 4.08797 13.9582 5.327 14.472ZM3.82 11C3.63916 10.1781 3.53472 9.34117 3.508 8.5H1.018C1.08 9.39 1.309 10.233 1.674 11H3.82ZM10.673 14.472C11.912 13.9582 12.978 13.1004 13.745 12H11.91C11.7433 12.5312 11.5291 13.0463 11.27 13.539C11.0971 13.866 10.8975 14.178 10.673 14.472ZM8.5 12V14.923C9.17 14.719 9.835 14.103 10.387 13.068C10.56 12.744 10.717 12.386 10.855 12H8.5ZM12.18 11H14.326C14.691 10.233 14.92 9.39 14.982 8.5H12.492C12.4653 9.34117 12.3608 10.1781 12.18 11ZM14.982 7.5C14.9214 6.63301 14.6989 5.78506 14.326 5H12.18C12.354 5.782 12.462 6.623 12.492 7.5H14.982ZM11.27 2.461C11.517 2.925 11.732 3.441 11.91 4H13.745C12.978 2.89958 11.912 2.04178 10.673 1.528C10.891 1.812 11.091 2.126 11.27 2.461ZM10.855 4C10.7253 3.63305 10.5689 3.27609 10.387 2.932C9.835 1.897 9.17 1.282 8.5 1.077V4H10.855Z"/></g><defs><clipPath id="clip0_104_2204"><rect width="16" height="16"/></clipPath></defs></svg>