<svg width="16" height="16" viewBox="0 0 16 16" xmlns="http://www.w3.org/2000/svg" fill='currentColor'><path d="M6.74998 1C6.9489 1 7.13966 1.07902 7.28031 1.21967C7.42097 1.36032 7.49998 1.55109 7.49998 1.75V8C7.49998 8.13261 7.55266 8.25979 7.64643 8.35355C7.7402 8.44732 7.86738 8.5 7.99998 8.5C8.13259 8.5 8.25977 8.44732 8.35354 8.35355C8.44731 8.25979 8.49998 8.13261 8.49998 8V5.467L8.58599 5.463C8.90299 5.451 9.22299 5.455 9.40199 5.49C9.53598 5.517 9.69599 5.586 9.84999 5.672C9.92699 5.714 9.99998 5.819 9.99998 5.986V8C9.99998 8.13261 10.0527 8.25979 10.1464 8.35355C10.2402 8.44732 10.3674 8.5 10.5 8.5C10.6326 8.5 10.7598 8.44732 10.8535 8.35355C10.9473 8.25979 11 8.13261 11 8V6.435C11.0353 6.43128 11.0706 6.42795 11.106 6.425C11.422 6.401 11.69 6.415 11.814 6.465C11.932 6.511 12.114 6.672 12.3 6.895C12.381 6.991 12.45 7.085 12.5 7.154V8.5C12.5 8.63261 12.5527 8.75979 12.6464 8.85355C12.7402 8.94732 12.8674 9 13 9C13.1326 9 13.2598 8.94732 13.3535 8.85355C13.4473 8.75979 13.5 8.63261 13.5 8.5V7.5H13.842C13.9817 7.5 14.1199 7.52929 14.2477 7.58599C14.3754 7.64269 14.4899 7.72553 14.5836 7.82917C14.6774 7.93282 14.7484 8.05497 14.792 8.18773C14.8356 8.3205 14.851 8.46094 14.837 8.6L14.566 11.315C14.531 11.6639 14.423 12.0016 14.249 12.306L12.854 14.748C12.8103 14.8245 12.7471 14.8881 12.6709 14.9324C12.5947 14.9766 12.5081 15 12.42 15H6.03498C5.95264 15 5.87159 14.9796 5.79902 14.9407C5.72644 14.9018 5.6646 14.8456 5.61898 14.777L4.18598 12.627C4.05293 12.4276 3.96961 12.1992 3.94298 11.961L3.59798 8.856C3.58404 8.73156 3.6173 8.60642 3.69118 8.50532C3.76506 8.40421 3.87419 8.33452 3.99698 8.31L4.99998 8.11V9C4.99998 9.13261 5.05266 9.25979 5.14643 9.35355C5.2402 9.44732 5.36738 9.5 5.49998 9.5C5.63259 9.5 5.75977 9.44732 5.85354 9.35355C5.94731 9.25979 5.99998 9.13261 5.99998 9V1.75C5.99998 1.55109 6.079 1.36032 6.21965 1.21967C6.36031 1.07902 6.55107 1 6.74998 1ZM8.49998 4.466V1.75C8.49998 1.28587 8.31561 0.840752 7.98742 0.512563C7.65923 0.184374 7.21411 0 6.74998 0C6.28586 0 5.84074 0.184374 5.51255 0.512563C5.18436 0.840752 4.99998 1.28587 4.99998 1.75V7.09L3.79998 7.33C3.43216 7.40374 3.10532 7.61264 2.88393 7.91548C2.66253 8.21833 2.56265 8.59314 2.60398 8.966L2.94898 12.072C2.99335 12.469 3.13223 12.8497 3.35398 13.182L4.78698 15.332C4.92395 15.5375 5.10952 15.7059 5.32723 15.8225C5.54494 15.939 5.78805 16 6.03498 16H12.42C12.6844 15.9999 12.9441 15.9299 13.1727 15.7972C13.4014 15.6644 13.5908 15.4736 13.722 15.244L15.117 12.803C15.3609 12.3763 15.5121 11.903 15.561 11.414L15.832 8.699C15.8598 8.42097 15.829 8.14019 15.7417 7.87478C15.6543 7.60936 15.5123 7.36519 15.3248 7.15801C15.1373 6.95083 14.9085 6.78524 14.6531 6.67191C14.3977 6.55857 14.1214 6.50001 13.842 6.5H13.261C13.1986 6.41535 13.1335 6.33264 13.066 6.252C12.875 6.023 12.556 5.684 12.186 5.536C11.822 5.39 11.34 5.404 11.028 5.428L10.896 5.44C10.7895 5.16747 10.5915 4.94049 10.336 4.798C10.1059 4.66532 9.85711 4.56822 9.59798 4.51C9.28798 4.448 8.85898 4.452 8.54799 4.464L8.49998 4.466Z"/></svg>