<svg width="16" height="16" viewBox="0 0 16 16" xmlns="http://www.w3.org/2000/svg" fill='currentColor'><path d="M6.5 14.5V10.995C6.5 10.75 6.75 10.5 7 10.5H9C9.25 10.5 9.5 10.75 9.5 11V14.5C9.5 14.6326 9.55268 14.7598 9.64645 14.8536C9.74022 14.9474 9.86739 15 10 15H14C14.1326 15 14.2598 14.9474 14.3536 14.8536C14.4473 14.7598 14.5 14.6326 14.5 14.5V7.50004C14.5001 7.43433 14.4873 7.36925 14.4622 7.30851C14.4372 7.24777 14.4004 7.19256 14.354 7.14604L13 5.79304V2.50004C13 2.36743 12.9473 2.24025 12.8536 2.14649C12.7598 2.05272 12.6326 2.00004 12.5 2.00004H11.5C11.3674 2.00004 11.2402 2.05272 11.1464 2.14649C11.0527 2.24025 11 2.36743 11 2.50004V3.79304L8.354 1.14604C8.30756 1.09948 8.25238 1.06253 8.19163 1.03733C8.13089 1.01212 8.06577 0.999146 8 0.999146C7.93423 0.999146 7.86911 1.01212 7.80837 1.03733C7.74762 1.06253 7.69245 1.09948 7.646 1.14604L1.646 7.14604C1.5996 7.19256 1.56282 7.24777 1.53777 7.30851C1.51272 7.36925 1.49988 7.43433 1.5 7.50004V14.5C1.5 14.6326 1.55268 14.7598 1.64645 14.8536C1.74022 14.9474 1.86739 15 2 15H6C6.13261 15 6.25979 14.9474 6.35355 14.8536C6.44732 14.7598 6.5 14.6326 6.5 14.5Z"/></svg>