<svg width="16" height="16" viewBox="0 0 16 16" xmlns="http://www.w3.org/2000/svg" fill='currentColor'><path d="M4.98 4C4.90506 4.00011 4.8311 4.01706 4.76359 4.0496C4.69609 4.08214 4.63676 4.12944 4.59 4.188L1.54 8H6C6.1326 8 6.25978 8.05268 6.35355 8.14645C6.44732 8.24021 6.5 8.36739 6.5 8.5C6.5 8.89782 6.65803 9.27936 6.93934 9.56066C7.22064 9.84196 7.60217 10 8 10C8.39782 10 8.77935 9.84196 9.06066 9.56066C9.34196 9.27936 9.5 8.89782 9.5 8.5C9.5 8.36739 9.55267 8.24021 9.64644 8.14645C9.74021 8.05268 9.86739 8 10 8H14.46L11.41 4.188C11.3632 4.12944 11.3039 4.08214 11.2364 4.0496C11.1689 4.01706 11.0949 4.00011 11.02 4H4.98ZM14.934 9H10.45C10.3352 9.56514 10.0286 10.0732 9.58213 10.4382C9.13562 10.8031 8.57667 11.0025 8 11.0025C7.42332 11.0025 6.86437 10.8031 6.41787 10.4382C5.97136 10.0732 5.66475 9.56514 5.55 9H1.066L1.386 11.562C1.40113 11.6831 1.46001 11.7944 1.55155 11.8751C1.64309 11.9558 1.76098 12.0002 1.883 12H14.117C14.2388 12 14.3565 11.9554 14.4478 11.8748C14.5391 11.7941 14.5979 11.6829 14.613 11.562L14.933 9H14.934ZM3.809 3.563C3.94959 3.38724 4.12794 3.24537 4.33082 3.14791C4.53371 3.05045 4.75592 2.9999 4.981 3H11.019C11.2441 2.9999 11.4663 3.05045 11.6692 3.14791C11.872 3.24537 12.0504 3.38724 12.191 3.563L15.891 8.188C15.9326 8.24018 15.9633 8.30016 15.9813 8.36439C15.9993 8.42862 16.0043 8.49581 15.996 8.562L15.606 11.686C15.5606 12.0489 15.3843 12.3827 15.1101 12.6247C14.8359 12.8667 14.4827 13.0001 14.117 13H1.883C1.51728 13.0001 1.16412 12.8667 0.889912 12.6247C0.615704 12.3827 0.439344 12.0489 0.393996 11.686L0.00399571 8.562C-0.00420054 8.49574 0.000956135 8.42851 0.0191615 8.36428C0.0373669 8.30004 0.0682523 8.24011 0.109996 8.188L3.81 3.563H3.809Z"/></svg>