<svg width="16" height="16" viewBox="0 0 16 16" xmlns="http://www.w3.org/2000/svg" fill='currentColor'><g clip-path="url(#clip0_104_2532)"><path fill-rule="evenodd" clip-rule="evenodd" d="M8 0C12.411 0 16 2.912 16 6.492C16 7.925 15.445 9.215 14.285 10.486C12.607 12.418 8.854 14.771 8 15.131C7.17 15.481 7.266 14.934 7.304 14.718L7.307 14.7L7.421 14.015C7.448 13.811 7.476 13.494 7.395 13.292C7.305 13.069 6.951 12.953 6.691 12.897C2.846 12.39 0 9.701 0 6.492C0 2.912 3.59 0 8 0ZM5.022 7.686H3.497V4.918C3.497 4.8768 3.4807 4.83727 3.45166 4.80804C3.42262 4.77882 3.3832 4.76226 3.342 4.762H2.78C2.75951 4.762 2.73923 4.76604 2.7203 4.77387C2.70137 4.78171 2.68418 4.79321 2.66969 4.80769C2.65521 4.82218 2.64371 4.83937 2.63587 4.8583C2.62804 4.87723 2.624 4.89751 2.624 4.918V8.404C2.624 8.445 2.641 8.484 2.668 8.511V8.512L2.67 8.514L2.672 8.516C2.701 8.54389 2.73976 8.55933 2.78 8.559H5.022C5.108 8.559 5.177 8.489 5.177 8.403V7.843C5.17713 7.82251 5.17323 7.8022 5.16551 7.78322C5.15779 7.76425 5.14641 7.74698 5.13202 7.7324C5.11762 7.71782 5.1005 7.70622 5.08162 7.69826C5.06275 7.6903 5.04249 7.68613 5.022 7.686ZM5.813 4.762H6.375C6.461 4.762 6.53 4.832 6.53 4.918V8.404C6.53 8.49 6.46 8.559 6.375 8.559H5.813C5.7718 8.559 5.73227 8.5427 5.70304 8.51366C5.67382 8.48462 5.65726 8.4452 5.657 8.404V4.918C5.657 4.832 5.727 4.762 5.813 4.762ZM9.676 4.762H10.236C10.323 4.762 10.393 4.832 10.393 4.918V8.404C10.393 8.49 10.323 8.559 10.237 8.559H9.676C9.66251 8.55908 9.64906 8.5574 9.636 8.554H9.634C9.63029 8.55279 9.62662 8.55146 9.623 8.55L9.618 8.548L9.611 8.545C9.60825 8.54385 9.60557 8.54251 9.603 8.541L9.6 8.54L9.59 8.534L9.589 8.533C9.5734 8.52255 9.55984 8.50933 9.549 8.494L7.949 6.334V8.404C7.94913 8.42444 7.94522 8.4447 7.93749 8.46362C7.92976 8.48254 7.91836 8.49975 7.90396 8.51425C7.88955 8.52875 7.87242 8.54025 7.85355 8.54811C7.83468 8.55596 7.81444 8.56 7.794 8.56H7.233C7.1918 8.56 7.15227 8.5437 7.12304 8.51466C7.09382 8.48562 7.07726 8.4462 7.077 8.405V4.918C7.077 4.832 7.147 4.762 7.233 4.762H7.8L7.805 4.763H7.811L7.814 4.764H7.82L7.83 4.767H7.832L7.834 4.768L7.844 4.771L7.849 4.773C7.85207 4.77417 7.85507 4.7755 7.858 4.777L7.861 4.778L7.863 4.779C7.86751 4.78137 7.87185 4.78404 7.876 4.787L7.879 4.789L7.884 4.792V4.793C7.886 4.793 7.887 4.795 7.888 4.796C7.89077 4.79785 7.89344 4.79986 7.896 4.802L7.899 4.805C7.90753 4.81286 7.91524 4.82157 7.922 4.831L9.52 6.99V4.918C9.52 4.832 9.59 4.762 9.676 4.762ZM13.491 5.479C13.491 5.565 13.421 5.635 13.336 5.635H11.81V6.225H13.335C13.421 6.225 13.49 6.295 13.49 6.38V6.941C13.49 7.027 13.42 7.097 13.335 7.097H11.81V7.687H13.335C13.421 7.687 13.49 7.757 13.49 7.842V8.403C13.49 8.489 13.42 8.559 13.335 8.559H11.093C11.0726 8.5591 11.0524 8.55518 11.0335 8.54746C11.0146 8.53974 10.9975 8.52837 10.983 8.514L10.981 8.511C10.9531 8.48235 10.9373 8.44401 10.937 8.404V4.918C10.937 4.876 10.954 4.838 10.98 4.811L10.983 4.808L10.984 4.807C11.013 4.77822 11.0522 4.76205 11.093 4.762H13.335C13.421 4.762 13.49 4.832 13.49 4.918V5.479H13.491Z"/></g><defs><clipPath id="clip0_104_2532"><rect width="16" height="16"/></clipPath></defs></svg>