<svg width="16" height="16" viewBox="0 0 16 16" xmlns="http://www.w3.org/2000/svg" fill='currentColor'><path d="M3.5 6.5C3.63261 6.5 3.75979 6.55268 3.85355 6.64645C3.94732 6.74021 4 6.86739 4 7V8C4 9.06087 4.42143 10.0783 5.17157 10.8284C5.92172 11.5786 6.93913 12 8 12C9.06087 12 10.0783 11.5786 10.8284 10.8284C11.5786 10.0783 12 9.06087 12 8V7C12 6.86739 12.0527 6.74021 12.1464 6.64645C12.2402 6.55268 12.3674 6.5 12.5 6.5C12.6326 6.5 12.7598 6.55268 12.8536 6.64645C12.9473 6.74021 13 6.86739 13 7V8C13 9.23953 12.5396 10.4349 11.7081 11.3541C10.8766 12.2734 9.73332 12.851 8.5 12.975V15H11.5C11.6326 15 11.7598 15.0527 11.8536 15.1464C11.9473 15.2402 12 15.3674 12 15.5C12 15.6326 11.9473 15.7598 11.8536 15.8536C11.7598 15.9473 11.6326 16 11.5 16H4.5C4.36739 16 4.24021 15.9473 4.14645 15.8536C4.05268 15.7598 4 15.6326 4 15.5C4 15.3674 4.05268 15.2402 4.14645 15.1464C4.24021 15.0527 4.36739 15 4.5 15H7.5V12.975C6.26668 12.851 5.12337 12.2734 4.29188 11.3541C3.46038 10.4349 2.99998 9.23953 3 8V7C3 6.86739 3.05268 6.74021 3.14645 6.64645C3.24021 6.55268 3.36739 6.5 3.5 6.5Z"/><path d="M10 8C10 8.53043 9.78929 9.03914 9.41421 9.41421C9.03914 9.78929 8.53043 10 8 10C7.46957 10 6.96086 9.78929 6.58579 9.41421C6.21071 9.03914 6 8.53043 6 8V3C6 2.46957 6.21071 1.96086 6.58579 1.58579C6.96086 1.21071 7.46957 1 8 1C8.53043 1 9.03914 1.21071 9.41421 1.58579C9.78929 1.96086 10 2.46957 10 3V8ZM8 0C7.20435 0 6.44129 0.31607 5.87868 0.87868C5.31607 1.44129 5 2.20435 5 3V8C5 8.79565 5.31607 9.55871 5.87868 10.1213C6.44129 10.6839 7.20435 11 8 11C8.79565 11 9.55871 10.6839 10.1213 10.1213C10.6839 9.55871 11 8.79565 11 8V3C11 2.20435 10.6839 1.44129 10.1213 0.87868C9.55871 0.31607 8.79565 0 8 0V0Z"/></svg>