<svg width="16" height="16" viewBox="0 0 16 16" xmlns="http://www.w3.org/2000/svg" fill='currentColor'><path d="M11.42 2L14.848 8L11.42 14H4.58002L1.15202 8L4.58002 2H11.42ZM4.58002 1C4.40376 1.00006 4.23064 1.0467 4.07821 1.13521C3.92578 1.22372 3.79945 1.35095 3.71202 1.504L0.284021 7.504C0.197731 7.65506 0.152344 7.82603 0.152344 8C0.152344 8.17397 0.197731 8.34494 0.284021 8.496L3.71202 14.496C3.79945 14.6491 3.92578 14.7763 4.07821 14.8648C4.23064 14.9533 4.40376 14.9999 4.58002 15H11.42C11.5963 14.9999 11.7694 14.9533 11.9218 14.8648C12.0743 14.7763 12.2006 14.6491 12.288 14.496L15.717 8.496C15.8033 8.34494 15.8487 8.17397 15.8487 8C15.8487 7.82603 15.8033 7.65506 15.717 7.504L12.288 1.504C12.2006 1.35095 12.0743 1.22372 11.9218 1.13521C11.7694 1.0467 11.5963 1.00006 11.42 1H4.58002Z"/><path d="M6.84798 5.93301C6.56137 6.09596 6.30982 6.314 6.10781 6.57457C5.90581 6.83514 5.75734 7.13309 5.67096 7.45127C5.58457 7.76946 5.56198 8.10158 5.60447 8.42853C5.64697 8.75548 5.75372 9.0708 5.91857 9.35632C6.08343 9.64185 6.30313 9.89195 6.56503 10.0922C6.82694 10.2925 7.12587 10.439 7.44462 10.5233C7.76336 10.6075 8.09563 10.6279 8.42229 10.5833C8.74896 10.5386 9.06355 10.4297 9.34798 10.263C9.9175 9.92913 10.3318 9.38354 10.5006 8.7453C10.6693 8.10706 10.5788 7.42799 10.2487 6.85627C9.91858 6.28455 9.37575 5.8666 8.73864 5.69363C8.10154 5.52066 7.42188 5.60671 6.84798 5.93301ZM5.06798 9.848C4.82879 9.44965 4.6713 9.00765 4.60472 8.54779C4.53814 8.08793 4.56379 7.61941 4.68018 7.16957C4.79657 6.71973 5.00136 6.29757 5.28262 5.9277C5.56388 5.55784 5.91597 5.24768 6.31835 5.01532C6.72073 4.78296 7.16535 4.63305 7.62628 4.57433C8.08721 4.51561 8.55522 4.54925 9.00301 4.6733C9.4508 4.79735 9.86941 5.00932 10.2344 5.29685C10.5994 5.58438 10.9035 5.94171 11.129 6.34801C11.5858 7.15146 11.7063 8.10298 11.4641 8.99493C11.2219 9.88688 10.6368 10.6468 9.83641 11.109C9.03601 11.5711 8.0853 11.6979 7.19177 11.4616C6.29823 11.2254 5.53441 10.6453 5.06698 9.848H5.06798Z"/></svg>