<svg width="16" height="16" viewBox="0 0 16 16" xmlns="http://www.w3.org/2000/svg" fill='currentColor'><g clip-path="url(#clip0_104_2737)"><path d="M8.04999 9.6C8.38599 9.6 8.55399 9.36 8.60399 8.973C8.64399 8.439 8.80199 8.158 9.45099 7.713C10.124 7.238 10.5 6.623 10.5 5.727C10.5 4.402 9.57999 3.5 8.23799 3.5C7.21799 3.5 6.44599 3.992 6.13799 4.79C6.04465 5.00795 5.99766 5.24292 5.99999 5.48C5.99999 5.873 6.20299 6.12 6.54499 6.12C6.81699 6.12 6.99999 5.973 7.10899 5.61C7.26699 5.018 7.63399 4.695 8.18299 4.695C8.79299 4.695 9.21299 5.141 9.21299 5.779C9.21299 6.342 9.00499 6.664 8.39099 7.104C7.77199 7.537 7.46499 8.018 7.46499 8.744V8.855C7.46499 9.283 7.67299 9.6 8.04999 9.6Z"/><path d="M10.273 2.51305L9.35199 1.56905L10.067 0.87105L10.689 1.50805L11.579 1.49705C11.9642 1.49249 12.3465 1.56501 12.7033 1.71034C13.0601 1.85567 13.3843 2.07088 13.6567 2.34331C13.9292 2.61574 14.1444 2.9399 14.2897 3.29671C14.435 3.65353 14.5075 4.0358 14.503 4.42105L14.493 5.31105L15.129 5.93305C15.4044 6.20222 15.6233 6.52373 15.7728 6.8787C15.9222 7.23366 15.9992 7.61491 15.9992 8.00005C15.9992 8.38519 15.9222 8.76644 15.7728 9.1214C15.6233 9.47637 15.4044 9.79788 15.129 10.067L14.492 10.689L14.503 11.5791C14.5075 11.9643 14.435 12.3466 14.2897 12.7034C14.1444 13.0602 13.9292 13.3844 13.6567 13.6568C13.3843 13.9292 13.0601 14.1444 12.7033 14.2898C12.3465 14.4351 11.9642 14.5076 11.579 14.503L10.689 14.493L10.067 15.129C9.79782 15.4045 9.47631 15.6234 9.12134 15.7728C8.76638 15.9223 8.38513 15.9992 7.99999 15.9992C7.61485 15.9992 7.2336 15.9223 6.87864 15.7728C6.52367 15.6234 6.20216 15.4045 5.93299 15.129L5.31099 14.492L4.42099 14.503C4.03574 14.5076 3.65347 14.4351 3.29665 14.2898C2.93983 14.1444 2.61568 13.9292 2.34325 13.6568C2.07082 13.3844 1.85561 13.0602 1.71028 12.7034C1.56495 12.3466 1.49243 11.9643 1.49699 11.5791L1.50699 10.689L0.870989 10.067C0.595529 9.79788 0.376649 9.47637 0.227212 9.1214C0.0777741 8.76644 0.000793457 8.38519 0.000793457 8.00005C0.000793457 7.61491 0.0777741 7.23366 0.227212 6.8787C0.376649 6.52373 0.595529 6.20222 0.870989 5.93305L1.50799 5.31105L1.49699 4.42105C1.49243 4.0358 1.56495 3.65353 1.71028 3.29671C1.85561 2.9399 2.07082 2.61574 2.34325 2.34331C2.61568 2.07088 2.93983 1.85567 3.29665 1.71034C3.65347 1.56501 4.03574 1.49249 4.42099 1.49705L5.31099 1.50705L5.93299 0.87105C6.20216 0.59559 6.52367 0.37671 6.87864 0.227273C7.2336 0.0778352 7.61485 0.000854492 7.99999 0.000854492C8.38513 0.000854492 8.76638 0.0778352 9.12134 0.227273C9.47631 0.37671 9.79782 0.59559 10.067 0.87105L9.35199 1.56905C9.17595 1.38884 8.96566 1.24564 8.73348 1.14787C8.5013 1.0501 8.25191 0.99973 7.99999 0.99973C7.74806 0.99973 7.49868 1.0501 7.2665 1.14787C7.03432 1.24564 6.82403 1.38884 6.64799 1.56905L5.72799 2.51305L4.40799 2.49705C4.15617 2.49423 3.90632 2.54177 3.67313 2.63688C3.43994 2.73198 3.22811 2.87273 3.05008 3.05085C2.87205 3.22897 2.73141 3.44088 2.63643 3.67412C2.54145 3.90736 2.49404 4.15723 2.49699 4.40905L2.51299 5.72705L1.56899 6.64805C1.38878 6.82409 1.24557 7.03438 1.1478 7.26656C1.05003 7.49874 0.999669 7.74812 0.999669 8.00005C0.999669 8.25198 1.05003 8.50136 1.1478 8.73354C1.24557 8.96572 1.38878 9.17601 1.56899 9.35205L2.51299 10.272L2.49699 11.592C2.49417 11.8439 2.54171 12.0937 2.63682 12.3269C2.73192 12.5601 2.87267 12.7719 3.05079 12.95C3.22891 13.128 3.44082 13.2686 3.67406 13.3636C3.9073 13.4586 4.15717 13.506 4.40899 13.503L5.72699 13.4871L6.64799 14.431C6.82403 14.6113 7.03432 14.7545 7.2665 14.8522C7.49868 14.95 7.74806 15.0004 7.99999 15.0004C8.25191 15.0004 8.5013 14.95 8.73348 14.8522C8.96566 14.7545 9.17595 14.6113 9.35199 14.431L10.272 13.4871L11.592 13.503C11.8438 13.5059 12.0937 13.4583 12.3268 13.3632C12.56 13.2681 12.7719 13.1274 12.9499 12.9493C13.1279 12.7711 13.2686 12.5592 13.3635 12.326C13.4585 12.0927 13.5059 11.8429 13.503 11.591L13.487 10.273L14.431 9.35205C14.6112 9.17601 14.7544 8.96572 14.8522 8.73354C14.9499 8.50136 15.0003 8.25198 15.0003 8.00005C15.0003 7.74812 14.9499 7.49874 14.8522 7.26656C14.7544 7.03438 14.6112 6.82409 14.431 6.64805L13.487 5.72805L13.503 4.40805C13.5058 4.15623 13.4583 3.90638 13.3632 3.67319C13.2681 3.44 13.1273 3.22817 12.9492 3.05014C12.7711 2.87211 12.5592 2.73147 12.3259 2.63649C12.0927 2.54151 11.8428 2.4941 11.591 2.49705L10.273 2.51305Z"/><path d="M7.00101 11C7.00101 10.7348 7.10636 10.4804 7.2939 10.2929C7.48144 10.1054 7.73579 10 8.00101 10C8.26622 10 8.52058 10.1054 8.70811 10.2929C8.89565 10.4804 9.00101 10.7348 9.00101 11C9.00101 11.2652 8.89565 11.5196 8.70811 11.7071C8.52058 11.8946 8.26622 12 8.00101 12C7.73579 12 7.48144 11.8946 7.2939 11.7071C7.10636 11.5196 7.00101 11.2652 7.00101 11Z"/></g><defs><clipPath id="clip0_104_2737"><rect width="16" height="16"/></clipPath></defs></svg>