<svg width="16" height="16" viewBox="0 0 16 16" xmlns="http://www.w3.org/2000/svg" fill='currentColor'><g clip-path="url(#clip0_104_2972)"><path d="M3 4.5C3 4.36739 3.05268 4.24021 3.14645 4.14645C3.24021 4.05268 3.36739 4 3.5 4H9.5C9.63261 4 9.75979 4.05268 9.85355 4.14645C9.94732 4.24021 10 4.36739 10 4.5C10 4.63261 9.94732 4.75979 9.85355 4.85355C9.75979 4.94732 9.63261 5 9.5 5H3.5C3.36739 5 3.24021 4.94732 3.14645 4.85355C3.05268 4.75979 3 4.63261 3 4.5ZM3 6.5C3 6.36739 3.05268 6.24021 3.14645 6.14645C3.24021 6.05268 3.36739 6 3.5 6H9.5C9.63261 6 9.75979 6.05268 9.85355 6.14645C9.94732 6.24021 10 6.36739 10 6.5C10 6.63261 9.94732 6.75979 9.85355 6.85355C9.75979 6.94732 9.63261 7 9.5 7H3.5C3.36739 7 3.24021 6.94732 3.14645 6.85355C3.05268 6.75979 3 6.63261 3 6.5ZM3 8.5C3 8.36739 3.05268 8.24021 3.14645 8.14645C3.24021 8.05268 3.36739 8 3.5 8H9.5C9.63261 8 9.75979 8.05268 9.85355 8.14645C9.94732 8.24021 10 8.36739 10 8.5C10 8.63261 9.94732 8.75979 9.85355 8.85355C9.75979 8.94732 9.63261 9 9.5 9H3.5C3.36739 9 3.24021 8.94732 3.14645 8.85355C3.05268 8.75979 3 8.63261 3 8.5ZM3 10.5C3 10.3674 3.05268 10.2402 3.14645 10.1464C3.24021 10.0527 3.36739 10 3.5 10H9.5C9.63261 10 9.75979 10.0527 9.85355 10.1464C9.94732 10.2402 10 10.3674 10 10.5C10 10.6326 9.94732 10.7598 9.85355 10.8536C9.75979 10.9473 9.63261 11 9.5 11H3.5C3.36739 11 3.24021 10.9473 3.14645 10.8536C3.05268 10.7598 3 10.6326 3 10.5ZM3 12.5C3 12.3674 3.05268 12.2402 3.14645 12.1464C3.24021 12.0527 3.36739 12 3.5 12H9.5C9.63261 12 9.75979 12.0527 9.85355 12.1464C9.94732 12.2402 10 12.3674 10 12.5C10 12.6326 9.94732 12.7598 9.85355 12.8536C9.75979 12.9473 9.63261 13 9.5 13H3.5C3.36739 13 3.24021 12.9473 3.14645 12.8536C3.05268 12.7598 3 12.6326 3 12.5ZM11.5 4C11.3674 4 11.2402 4.05268 11.1464 4.14645C11.0527 4.24021 11 4.36739 11 4.5C11 4.63261 11.0527 4.75979 11.1464 4.85355C11.2402 4.94732 11.3674 5 11.5 5H12.5C12.6326 5 12.7598 4.94732 12.8536 4.85355C12.9473 4.75979 13 4.63261 13 4.5C13 4.36739 12.9473 4.24021 12.8536 4.14645C12.7598 4.05268 12.6326 4 12.5 4H11.5ZM11.5 6C11.3674 6 11.2402 6.05268 11.1464 6.14645C11.0527 6.24021 11 6.36739 11 6.5C11 6.63261 11.0527 6.75979 11.1464 6.85355C11.2402 6.94732 11.3674 7 11.5 7H12.5C12.6326 7 12.7598 6.94732 12.8536 6.85355C12.9473 6.75979 13 6.63261 13 6.5C13 6.36739 12.9473 6.24021 12.8536 6.14645C12.7598 6.05268 12.6326 6 12.5 6H11.5ZM11.5 8C11.3674 8 11.2402 8.05268 11.1464 8.14645C11.0527 8.24021 11 8.36739 11 8.5C11 8.63261 11.0527 8.75979 11.1464 8.85355C11.2402 8.94732 11.3674 9 11.5 9H12.5C12.6326 9 12.7598 8.94732 12.8536 8.85355C12.9473 8.75979 13 8.63261 13 8.5C13 8.36739 12.9473 8.24021 12.8536 8.14645C12.7598 8.05268 12.6326 8 12.5 8H11.5ZM11.5 10C11.3674 10 11.2402 10.0527 11.1464 10.1464C11.0527 10.2402 11 10.3674 11 10.5C11 10.6326 11.0527 10.7598 11.1464 10.8536C11.2402 10.9473 11.3674 11 11.5 11H12.5C12.6326 11 12.7598 10.9473 12.8536 10.8536C12.9473 10.7598 13 10.6326 13 10.5C13 10.3674 12.9473 10.2402 12.8536 10.1464C12.7598 10.0527 12.6326 10 12.5 10H11.5ZM11.5 12C11.3674 12 11.2402 12.0527 11.1464 12.1464C11.0527 12.2402 11 12.3674 11 12.5C11 12.6326 11.0527 12.7598 11.1464 12.8536C11.2402 12.9473 11.3674 13 11.5 13H12.5C12.6326 13 12.7598 12.9473 12.8536 12.8536C12.9473 12.7598 13 12.6326 13 12.5C13 12.3674 12.9473 12.2402 12.8536 12.1464C12.7598 12.0527 12.6326 12 12.5 12H11.5Z"/><path d="M2.354 0.646039C2.29798 0.589972 2.22943 0.548027 2.154 0.523663C2.07858 0.499299 1.99845 0.493215 1.92021 0.505913C1.84197 0.51861 1.76787 0.549726 1.70403 0.596692C1.64018 0.643659 1.58842 0.705131 1.553 0.776039L1.053 1.77604C1.01815 1.84557 1.00001 1.92227 1 2.00004V15H0.5C0.367392 15 0.240215 15.0527 0.146447 15.1465C0.0526784 15.2403 0 15.3674 0 15.5C0 15.6326 0.0526784 15.7598 0.146447 15.8536C0.240215 15.9474 0.367392 16 0.5 16H15.5C15.6326 16 15.7598 15.9474 15.8536 15.8536C15.9473 15.7598 16 15.6326 16 15.5C16 15.3674 15.9473 15.2403 15.8536 15.1465C15.7598 15.0527 15.6326 15 15.5 15H15V2.00004C15 1.92227 14.9818 1.84557 14.947 1.77604L14.447 0.776039C14.4115 0.705312 14.3598 0.644008 14.296 0.597167C14.2323 0.550326 14.1583 0.519285 14.0802 0.506595C14.0021 0.493905 13.9221 0.499928 13.8468 0.524169C13.7715 0.548411 13.703 0.590178 13.647 0.646039L13 1.29304L12.354 0.646039C12.3076 0.599476 12.2524 0.562533 12.1916 0.537327C12.1309 0.51212 12.0658 0.499146 12 0.499146C11.9342 0.499146 11.8691 0.51212 11.8084 0.537327C11.7476 0.562533 11.6924 0.599476 11.646 0.646039L11 1.29304L10.354 0.646039C10.3076 0.599476 10.2524 0.562533 10.1916 0.537327C10.1309 0.51212 10.0658 0.499146 10 0.499146C9.93423 0.499146 9.86911 0.51212 9.80837 0.537327C9.74762 0.562533 9.69245 0.599476 9.646 0.646039L9 1.29304L8.354 0.646039C8.30755 0.599476 8.25238 0.562533 8.19163 0.537327C8.13089 0.51212 8.06577 0.499146 8 0.499146C7.93423 0.499146 7.86911 0.51212 7.80837 0.537327C7.74762 0.562533 7.69245 0.599476 7.646 0.646039L7 1.29304L6.354 0.646039C6.30755 0.599476 6.25238 0.562533 6.19163 0.537327C6.13089 0.51212 6.06577 0.499146 6 0.499146C5.93423 0.499146 5.86911 0.51212 5.80837 0.537327C5.74762 0.562533 5.69245 0.599476 5.646 0.646039L5 1.29304L4.354 0.646039C4.30755 0.599476 4.25238 0.562533 4.19163 0.537327C4.13089 0.51212 4.06577 0.499146 4 0.499146C3.93423 0.499146 3.86911 0.51212 3.80837 0.537327C3.74762 0.562533 3.69245 0.599476 3.646 0.646039L3 1.29304L2.354 0.646039ZM2.137 1.84404L2.647 2.35404C2.74076 2.44778 2.86792 2.50043 3.0005 2.50043C3.13308 2.50043 3.26024 2.44778 3.354 2.35404L4 1.70704L4.646 2.35404C4.69245 2.4006 4.74762 2.43755 4.80837 2.46275C4.86911 2.48796 4.93423 2.50093 5 2.50093C5.06577 2.50093 5.13089 2.48796 5.19163 2.46275C5.25238 2.43755 5.30755 2.4006 5.354 2.35404L6 1.70704L6.646 2.35404C6.69245 2.4006 6.74762 2.43755 6.80837 2.46275C6.86911 2.48796 6.93423 2.50093 7 2.50093C7.06577 2.50093 7.13089 2.48796 7.19163 2.46275C7.25238 2.43755 7.30755 2.4006 7.354 2.35404L8 1.70704L8.646 2.35404C8.69245 2.4006 8.74762 2.43755 8.80837 2.46275C8.86911 2.48796 8.93423 2.50093 9 2.50093C9.06577 2.50093 9.13089 2.48796 9.19163 2.46275C9.25238 2.43755 9.30755 2.4006 9.354 2.35404L10 1.70704L10.646 2.35404C10.6924 2.4006 10.7476 2.43755 10.8084 2.46275C10.8691 2.48796 10.9342 2.50093 11 2.50093C11.0658 2.50093 11.1309 2.48796 11.1916 2.46275C11.2524 2.43755 11.3076 2.4006 11.354 2.35404L12 1.70704L12.646 2.35404C12.6924 2.4006 12.7476 2.43755 12.8084 2.46275C12.8691 2.48796 12.9342 2.50093 13 2.50093C13.0658 2.50093 13.1309 2.48796 13.1916 2.46275C13.2524 2.43755 13.3076 2.4006 13.354 2.35404L13.863 1.84404L14 2.11804V15H2V2.11804L2.137 1.84404Z"/></g><defs><clipPath id="clip0_104_2972"><rect width="16" height="16"/></clipPath></defs></svg>