<svg width="16" height="16" viewBox="0 0 16 16" xmlns="http://www.w3.org/2000/svg" fill='currentColor'><path d="M6.598 5.01296C6.62009 5.00324 6.64427 4.99922 6.66832 5.00128C6.69237 5.00334 6.71551 5.01142 6.73562 5.02476C6.75574 5.0381 6.77217 5.05628 6.78342 5.07764C6.79467 5.09899 6.80037 5.12283 6.8 5.14696V6.29996C6.8 6.43257 6.85268 6.55974 6.94645 6.65351C7.04022 6.74728 7.1674 6.79996 7.3 6.79996C7.967 6.79996 9.313 6.80496 10.6 7.62196C11.584 8.24596 12.59 9.38196 13.195 11.498C12.175 10.515 11.01 9.98196 9.99 9.69896C9.36305 9.5258 8.71873 9.42316 8.069 9.39296C7.80305 9.38128 7.53667 9.38395 7.271 9.40096H7.258L7.253 9.40196H7.252L7.3 9.89996L7.25 9.40196C7.12659 9.41436 7.01219 9.4722 6.92902 9.56423C6.84586 9.65626 6.79988 9.77592 6.8 9.89996V11.053C6.8 11.161 6.69 11.229 6.598 11.187L2.614 8.25396C2.60048 8.24393 2.58646 8.23458 2.572 8.22596C2.55026 8.21289 2.53227 8.19442 2.51978 8.17234C2.50729 8.15026 2.50072 8.12533 2.50072 8.09996C2.50072 8.07459 2.50729 8.04965 2.51978 8.02758C2.53227 8.0055 2.55026 7.98703 2.572 7.97396C2.58647 7.96534 2.60049 7.956 2.614 7.94596L6.598 5.01296ZM7.8 10.386C7.868 10.386 7.943 10.389 8.023 10.392C8.457 10.412 9.057 10.478 9.723 10.663C11.049 11.031 12.619 11.865 13.663 13.743C13.7195 13.8443 13.8094 13.9229 13.9175 13.9652C14.0255 14.0076 14.1449 14.011 14.2552 13.9749C14.3655 13.9389 14.4598 13.8656 14.522 13.7676C14.5842 13.6697 14.6103 13.5531 14.596 13.438C14.132 9.72796 12.71 7.77596 11.136 6.77796C9.891 5.98796 8.609 5.83596 7.8 5.80696V5.14696C7.8001 4.94103 7.7446 4.73889 7.63937 4.56187C7.53415 4.38486 7.38309 4.23953 7.20214 4.14122C7.02119 4.04291 6.81705 3.99527 6.61128 4.00332C6.40551 4.01137 6.20572 4.07481 6.033 4.18696L2.039 7.12696C1.87388 7.23003 1.73771 7.37342 1.6433 7.54364C1.54889 7.71386 1.49936 7.90531 1.49936 8.09996C1.49936 8.29461 1.54889 8.48605 1.6433 8.65627C1.73771 8.82649 1.87388 8.96989 2.039 9.07296L6.033 12.013C6.20572 12.1251 6.40551 12.1886 6.61128 12.1966C6.81705 12.2047 7.02119 12.157 7.20214 12.0587C7.38309 11.9604 7.53415 11.8151 7.63937 11.638C7.7446 11.461 7.8001 11.2589 7.8 11.053V10.386Z"/></svg>