<svg width="16" height="16" viewBox="0 0 16 16" xmlns="http://www.w3.org/2000/svg" fill='currentColor'><path d="M2 1.5C2 1.10218 2.15804 0.720644 2.43934 0.43934C2.72064 0.158035 3.10218 0 3.5 0L10.586 0C10.9837 0.000350104 11.365 0.158615 11.646 0.44L13.561 2.354C13.842 2.6352 13.9999 3.01645 14 3.414V14.5C14 14.8978 13.842 15.2794 13.5607 15.5607C13.2794 15.842 12.8978 16 12.5 16H3.5C3.10218 16 2.72064 15.842 2.43934 15.5607C2.15804 15.2794 2 14.8978 2 14.5V1.5ZM3.5 1C3.36739 1 3.24021 1.05268 3.14645 1.14645C3.05268 1.24021 3 1.36739 3 1.5V14.5C3 14.6326 3.05268 14.7598 3.14645 14.8536C3.24021 14.9473 3.36739 15 3.5 15H12.5C12.6326 15 12.7598 14.9473 12.8536 14.8536C12.9473 14.7598 13 14.6326 13 14.5V3.414C13 3.28165 12.9475 3.15471 12.854 3.061L10.939 1.146C10.8453 1.05253 10.7184 1.00003 10.586 1H3.5Z"/><path d="M5.5 4C5.36739 4 5.24021 4.05268 5.14645 4.14645C5.05268 4.24021 5 4.36739 5 4.5V6H7.5V4H5.5ZM8.5 4V6H11V4.5C11 4.36739 10.9473 4.24021 10.8536 4.14645C10.7598 4.05268 10.6326 4 10.5 4H8.5ZM11 7H5V9H11V7ZM11 10H8.5V12H10.5C10.6326 12 10.7598 11.9473 10.8536 11.8536C10.9473 11.7598 11 11.6326 11 11.5V10ZM7.5 12V10H5V11.5C5 11.6326 5.05268 11.7598 5.14645 11.8536C5.24021 11.9473 5.36739 12 5.5 12H7.5ZM4 4.5C4 4.10218 4.15804 3.72064 4.43934 3.43934C4.72064 3.15804 5.10218 3 5.5 3H10.5C10.8978 3 11.2794 3.15804 11.5607 3.43934C11.842 3.72064 12 4.10218 12 4.5V11.5C12 11.8978 11.842 12.2794 11.5607 12.5607C11.2794 12.842 10.8978 13 10.5 13H5.5C5.10218 13 4.72064 12.842 4.43934 12.5607C4.15804 12.2794 4 11.8978 4 11.5V4.5Z"/></svg>