<svg width="16" height="16" viewBox="0 0 16 16" xmlns="http://www.w3.org/2000/svg" fill='currentColor'><g clip-path="url(#clip0_104_3362)"><path d="M7.64599 1.14604C7.69244 1.09948 7.74761 1.06253 7.80836 1.03733C7.8691 1.01212 7.93423 0.999146 7.99999 0.999146C8.06576 0.999146 8.13088 1.01212 8.19163 1.03733C8.25237 1.06253 8.30755 1.09948 8.35399 1.14604L9.85399 2.64604C9.90048 2.69253 9.93736 2.74772 9.96252 2.80846C9.98768 2.8692 10.0006 2.9343 10.0006 3.00004C10.0006 3.06578 9.98768 3.13088 9.96252 3.19162C9.93736 3.25236 9.90048 3.30755 9.85399 3.35404C9.80751 3.40053 9.75232 3.4374 9.69158 3.46256C9.63084 3.48772 9.56574 3.50067 9.49999 3.50067C9.43425 3.50067 9.36915 3.48772 9.30841 3.46256C9.24767 3.4374 9.19248 3.40053 9.14599 3.35404L8.49999 2.70704V4.50004C8.49999 4.63265 8.44732 4.75982 8.35355 4.85359C8.25978 4.94736 8.1326 5.00004 7.99999 5.00004C7.86738 5.00004 7.74021 4.94736 7.64644 4.85359C7.55267 4.75982 7.49999 4.63265 7.49999 4.50004V2.70704L6.85399 3.35404C6.80751 3.40053 6.75232 3.4374 6.69158 3.46256C6.63084 3.48772 6.56574 3.50067 6.49999 3.50067C6.43425 3.50067 6.36915 3.48772 6.30841 3.46256C6.24767 3.4374 6.19248 3.40053 6.14599 3.35404C6.0995 3.30755 6.06263 3.25236 6.03747 3.19162C6.01231 3.13088 5.99936 3.06578 5.99936 3.00004C5.99936 2.9343 6.01231 2.8692 6.03747 2.80846C6.06263 2.74772 6.0995 2.69253 6.14599 2.64604L7.64599 1.14604ZM2.34299 4.34304C2.43676 4.2493 2.56391 4.19665 2.69649 4.19665C2.82908 4.19665 2.95623 4.2493 3.04999 4.34304L4.46399 5.75704C4.55507 5.85134 4.60547 5.97764 4.60433 6.10874C4.60319 6.23984 4.55061 6.36524 4.4579 6.45795C4.3652 6.55065 4.23979 6.60324 4.10869 6.60438C3.9776 6.60552 3.85129 6.55512 3.75699 6.46404L2.34299 5.05004C2.24926 4.95628 2.1966 4.82912 2.1966 4.69654C2.1966 4.56396 2.24926 4.4368 2.34299 4.34304ZM13.657 4.34304C13.7507 4.4368 13.8034 4.56396 13.8034 4.69654C13.8034 4.82912 13.7507 4.95628 13.657 5.05004L12.243 6.46404C12.1969 6.51179 12.1417 6.54989 12.0807 6.57609C12.0197 6.60229 11.9541 6.61609 11.8877 6.61666C11.8213 6.61724 11.7555 6.60459 11.694 6.57945C11.6326 6.55431 11.5767 6.51718 11.5298 6.47024C11.4828 6.42329 11.4457 6.36746 11.4206 6.30602C11.3954 6.24457 11.3828 6.17873 11.3834 6.11234C11.3839 6.04595 11.3977 5.98034 11.4239 5.91934C11.4501 5.85834 11.4882 5.80316 11.536 5.75704L12.95 4.34304C13.0438 4.2493 13.1709 4.19665 13.3035 4.19665C13.4361 4.19665 13.5632 4.2493 13.657 4.34304ZM7.99999 7.00004C8.52668 6.99988 9.04413 7.13838 9.50032 7.40162C9.9565 7.66486 10.3353 8.04355 10.5988 8.49964C10.8622 8.95572 11.0009 9.47312 11.0009 9.99981C11.001 10.5265 10.8623 11.0439 10.599 11.5H5.39999C5.13661 11.0438 4.99798 10.5263 4.99807 9.99956C4.99815 9.47278 5.13694 8.95532 5.40047 8.49921C5.66401 8.04309 6.04299 7.66441 6.49932 7.40124C6.95564 7.13807 7.47322 6.9997 7.99999 7.00004ZM11.71 11.5C11.9552 10.8929 12.0476 10.2348 11.979 9.58363C11.9105 8.93243 11.6831 8.30802 11.3169 7.7652C10.9507 7.22239 10.4569 6.77777 9.87872 6.47039C9.30056 6.16301 8.65578 6.00227 8.00099 6.00227C7.3462 6.00227 6.70142 6.16301 6.12326 6.47039C5.5451 6.77777 5.05124 7.22239 4.68504 7.7652C4.31884 8.30802 4.09149 8.93243 4.02296 9.58363C3.95443 10.2348 4.04681 10.8929 4.29199 11.5H0.498993C0.366385 11.5 0.239208 11.5527 0.14544 11.6465C0.0516713 11.7403 -0.00100708 11.8674 -0.00100708 12C-0.00100708 12.1326 0.0516713 12.2598 0.14544 12.3536C0.239208 12.4474 0.366385 12.5 0.498993 12.5H15.499C15.6316 12.5 15.7588 12.4474 15.8525 12.3536C15.9463 12.2598 15.999 12.1326 15.999 12C15.999 11.8674 15.9463 11.7403 15.8525 11.6465C15.7588 11.5527 15.6316 11.5 15.499 11.5H11.709H11.71ZM-7.08003e-06 10C-7.08003e-06 9.86743 0.0526714 9.74025 0.14644 9.64649C0.240208 9.55272 0.367385 9.50004 0.499993 9.50004H2.49999C2.6326 9.50004 2.75978 9.55272 2.85355 9.64649C2.94731 9.74025 2.99999 9.86743 2.99999 10C2.99999 10.1326 2.94731 10.2598 2.85355 10.3536C2.75978 10.4474 2.6326 10.5 2.49999 10.5H0.499993C0.367385 10.5 0.240208 10.4474 0.14644 10.3536C0.0526714 10.2598 -7.08003e-06 10.1326 -7.08003e-06 10ZM13 10C13 9.86743 13.0527 9.74025 13.1464 9.64649C13.2402 9.55272 13.3674 9.50004 13.5 9.50004H15.5C15.6326 9.50004 15.7598 9.55272 15.8535 9.64649C15.9473 9.74025 16 9.86743 16 10C16 10.1326 15.9473 10.2598 15.8535 10.3536C15.7598 10.4474 15.6326 10.5 15.5 10.5H13.5C13.3674 10.5 13.2402 10.4474 13.1464 10.3536C13.0527 10.2598 13 10.1326 13 10Z"/></g><defs><clipPath id="clip0_104_3362"><rect width="16" height="16"/></clipPath></defs></svg>