<svg width="16" height="16" viewBox="0 0 16 16" xmlns="http://www.w3.org/2000/svg" fill='currentColor'><g clip-path="url(#clip0_104_3401)"><path fill-rule="evenodd" clip-rule="evenodd" d="M1.885 0.510903C2.05998 0.336191 2.27008 0.200661 2.5014 0.113293C2.73271 0.0259244 2.97996 -0.0112866 3.22674 0.00412564C3.47353 0.0195378 3.71422 0.0872213 3.93286 0.202691C4.15151 0.31816 4.34312 0.478779 4.495 0.673903L6.29 2.9799C6.619 3.4029 6.735 3.9539 6.605 4.4739L6.058 6.6639C6.02972 6.77733 6.03125 6.89615 6.06244 7.00881C6.09363 7.12148 6.15342 7.22416 6.236 7.3069L8.693 9.7639C8.77584 9.84666 8.8787 9.90655 8.99155 9.93774C9.10441 9.96893 9.22342 9.97037 9.337 9.9419L11.526 9.3949C11.7826 9.33074 12.0505 9.32576 12.3093 9.38033C12.5681 9.4349 12.8111 9.5476 13.02 9.7099L15.326 11.5039C16.155 12.1489 16.231 13.3739 15.489 14.1149L14.455 15.1489C13.715 15.8889 12.609 16.2139 11.578 15.8509C8.93919 14.9224 6.54327 13.4117 4.568 11.4309C2.58729 9.45592 1.07661 7.06036 0.148002 4.4219C-0.213998 3.3919 0.111002 2.2849 0.851002 1.5449L1.885 0.510903Z"/></g><defs><clipPath id="clip0_104_3401"><rect width="16" height="16"/></clipPath></defs></svg>