<svg width="16" height="16" viewBox="0 0 16 16" xmlns="http://www.w3.org/2000/svg" fill='currentColor'><g clip-path="url(#clip0_104_3469)"><path d="M5 12.5C4.99986 12.775 4.92414 13.0446 4.78111 13.2794C4.63809 13.5143 4.43327 13.7053 4.18903 13.8316C3.94479 13.9579 3.67053 14.0146 3.39623 13.9956C3.12192 13.9766 2.85812 13.8825 2.63365 13.7237C2.40919 13.5649 2.23269 13.3475 2.12345 13.0951C2.01422 12.8428 1.97644 12.5653 2.01425 12.2929C2.05206 12.0206 2.16401 11.7639 2.33786 11.5508C2.5117 11.3378 2.74076 11.1767 3 11.085V2.5C3 2.36739 3.05268 2.24021 3.14645 2.14645C3.24022 2.05268 3.36739 2 3.5 2C3.63261 2 3.75979 2.05268 3.85355 2.14645C3.94732 2.24021 4 2.36739 4 2.5V11.085C4.29258 11.1884 4.54587 11.3801 4.72497 11.6335C4.90407 11.8869 5.00016 12.1897 5 12.5Z"/><path d="M1 2.5C1 1.83696 1.26339 1.20107 1.73223 0.732233C2.20108 0.263392 2.83696 0 3.5 0C4.16304 0 4.79893 0.263392 5.26777 0.732233C5.73661 1.20107 6 1.83696 6 2.5V10.05C6.48234 10.5423 6.8086 11.166 6.93788 11.843C7.06715 12.5199 6.99369 13.22 6.7267 13.8554C6.45972 14.4907 6.01109 15.0332 5.43707 15.4146C4.86305 15.796 4.18919 15.9995 3.5 15.9995C2.81081 15.9995 2.13695 15.796 1.56294 15.4146C0.988919 15.0332 0.540288 14.4907 0.2733 13.8554C0.00631136 13.22 -0.0671497 12.5199 0.0621278 11.843C0.191405 11.166 0.517667 10.5423 1 10.05V2.5ZM3.5 1C3.10218 1 2.72065 1.15804 2.43934 1.43934C2.15804 1.72064 2 2.10218 2 2.5V10.487L1.833 10.637C1.45557 10.9745 1.18953 11.4187 1.07007 11.9107C0.950617 12.4028 0.983382 12.9195 1.16403 13.3925C1.34468 13.8655 1.6647 14.2725 2.08174 14.5597C2.49877 14.8468 2.99317 15.0005 3.4995 15.0005C4.00583 15.0005 4.50023 14.8468 4.91727 14.5597C5.33431 14.2725 5.65432 13.8655 5.83497 13.3925C6.01562 12.9195 6.04839 12.4028 5.92893 11.9107C5.80947 11.4187 5.54343 10.9745 5.166 10.637L5 10.486V2.5C5 2.10218 4.84197 1.72064 4.56066 1.43934C4.27936 1.15804 3.89783 1 3.5 1ZM8.5 2C8.63261 2 8.75979 2.05268 8.85356 2.14645C8.94732 2.24021 9 2.36739 9 2.5V3.5C9 3.63261 8.94732 3.75979 8.85356 3.85355C8.75979 3.94732 8.63261 4 8.5 4C8.36739 4 8.24022 3.94732 8.14645 3.85355C8.05268 3.75979 8 3.63261 8 3.5V2.5C8 2.36739 8.05268 2.24021 8.14645 2.14645C8.24022 2.05268 8.36739 2 8.5 2ZM12.743 3.757C12.8367 3.85076 12.8894 3.97792 12.8894 4.1105C12.8894 4.24308 12.8367 4.37024 12.743 4.464L12.036 5.172C11.9421 5.26589 11.8148 5.31863 11.682 5.31863C11.5492 5.31863 11.4219 5.26589 11.328 5.172C11.2341 5.07811 11.1814 4.95078 11.1814 4.818C11.1814 4.68522 11.2341 4.55789 11.328 4.464L12.036 3.757C12.1298 3.66326 12.2569 3.61061 12.3895 3.61061C12.5221 3.61061 12.6492 3.66326 12.743 3.757ZM8 5.5C8 5.36739 8.05268 5.24021 8.14645 5.14645C8.24022 5.05268 8.36739 5 8.5 5C9.29565 5 10.0587 5.31607 10.6213 5.87868C11.1839 6.44129 11.5 7.20435 11.5 8C11.5 8.79565 11.1839 9.55871 10.6213 10.1213C10.0587 10.6839 9.29565 11 8.5 11C8.36739 11 8.24022 10.9473 8.14645 10.8536C8.05268 10.7598 8 10.6326 8 10.5C8 10.3674 8.05268 10.2402 8.14645 10.1464C8.24022 10.0527 8.36739 10 8.5 10C9.03043 10 9.53914 9.78929 9.91422 9.41421C10.2893 9.03914 10.5 8.53043 10.5 8C10.5 7.46957 10.2893 6.96086 9.91422 6.58579C9.53914 6.21071 9.03043 6 8.5 6C8.36739 6 8.24022 5.94732 8.14645 5.85355C8.05268 5.75979 8 5.63261 8 5.5ZM12.5 8C12.5 7.86739 12.5527 7.74021 12.6464 7.64645C12.7402 7.55268 12.8674 7.5 13 7.5H14C14.1326 7.5 14.2598 7.55268 14.3536 7.64645C14.4473 7.74021 14.5 7.86739 14.5 8C14.5 8.13261 14.4473 8.25979 14.3536 8.35355C14.2598 8.44732 14.1326 8.5 14 8.5H13C12.8674 8.5 12.7402 8.44732 12.6464 8.35355C12.5527 8.25979 12.5 8.13261 12.5 8ZM11.328 10.828C11.3744 10.7814 11.4296 10.7445 11.4904 10.7193C11.5511 10.6941 11.6162 10.6811 11.682 10.6811C11.7478 10.6811 11.8129 10.6941 11.8736 10.7193C11.9344 10.7445 11.9896 10.7814 12.036 10.828L12.743 11.536C12.8341 11.6303 12.8845 11.7566 12.8833 11.8877C12.8822 12.0188 12.8296 12.1442 12.7369 12.2369C12.6442 12.3296 12.5188 12.3822 12.3877 12.3833C12.2566 12.3845 12.1303 12.3341 12.036 12.243L11.328 11.536C11.2814 11.4896 11.2445 11.4344 11.2193 11.3736C11.1941 11.3129 11.1811 11.2478 11.1811 11.182C11.1811 11.1162 11.1941 11.0511 11.2193 10.9904C11.2445 10.9296 11.2814 10.8744 11.328 10.828ZM8.5 12C8.63261 12 8.75979 12.0527 8.85356 12.1464C8.94732 12.2402 9 12.3674 9 12.5V13.5C9 13.6326 8.94732 13.7598 8.85356 13.8536C8.75979 13.9473 8.63261 14 8.5 14C8.36739 14 8.24022 13.9473 8.14645 13.8536C8.05268 13.7598 8 13.6326 8 13.5V12.5C8 12.3674 8.05268 12.2402 8.14645 12.1464C8.24022 12.0527 8.36739 12 8.5 12Z"/></g><defs><clipPath id="clip0_104_3469"><rect width="16" height="16"/></clipPath></defs></svg>