<svg width="16" height="16" viewBox="0 0 16 16" xmlns="http://www.w3.org/2000/svg" fill='currentColor'><path d="M9.5 12.5C9.49986 12.775 9.42414 13.0446 9.28111 13.2794C9.13809 13.5143 8.93327 13.7053 8.68903 13.8316C8.44479 13.9579 8.17053 14.0146 7.89623 13.9956C7.62192 13.9766 7.35812 13.8825 7.13365 13.7237C6.90919 13.5649 6.73269 13.3475 6.62345 13.0951C6.51422 12.8428 6.47644 12.5653 6.51425 12.2929C6.55206 12.0206 6.66401 11.7639 6.83786 11.5508C7.0117 11.3378 7.24076 11.1767 7.5 11.085V2.5C7.5 2.36739 7.55268 2.24021 7.64645 2.14645C7.74022 2.05268 7.86739 2 8 2C8.13261 2 8.25979 2.05268 8.35355 2.14645C8.44732 2.24021 8.5 2.36739 8.5 2.5V11.085C8.79258 11.1884 9.04587 11.3801 9.22497 11.6335C9.40407 11.8869 9.50016 12.1897 9.5 12.5Z"/><path d="M5.5 2.5C5.5 1.83696 5.76339 1.20107 6.23223 0.732233C6.70108 0.263392 7.33696 0 8 0C8.66304 0 9.29893 0.263392 9.76777 0.732233C10.2366 1.20107 10.5 1.83696 10.5 2.5V10.05C10.9823 10.5423 11.3086 11.166 11.4379 11.843C11.5672 12.5199 11.4937 13.22 11.2267 13.8554C10.9597 14.4907 10.5111 15.0332 9.93707 15.4146C9.36305 15.796 8.68919 15.9995 8 15.9995C7.31081 15.9995 6.63695 15.796 6.06294 15.4146C5.48892 15.0332 5.04029 14.4907 4.7733 13.8554C4.50631 13.22 4.43285 12.5199 4.56213 11.843C4.69141 11.166 5.01767 10.5423 5.5 10.05V2.5ZM8 1C7.60218 1 7.22065 1.15804 6.93934 1.43934C6.65804 1.72064 6.5 2.10218 6.5 2.5V10.487L6.333 10.637C5.95557 10.9745 5.68953 11.4187 5.57007 11.9107C5.45062 12.4028 5.48338 12.9195 5.66403 13.3925C5.84468 13.8655 6.1647 14.2725 6.58174 14.5597C6.99877 14.8468 7.49317 15.0005 7.9995 15.0005C8.50583 15.0005 9.00023 14.8468 9.41727 14.5597C9.83431 14.2725 10.1543 13.8655 10.335 13.3925C10.5156 12.9195 10.5484 12.4028 10.4289 11.9107C10.3095 11.4187 10.0434 10.9745 9.666 10.637L9.5 10.487V2.5C9.5 2.10218 9.34197 1.72064 9.06066 1.43934C8.77936 1.15804 8.39783 1 8 1Z"/></svg>