<svg width="16" height="16" viewBox="0 0 16 16" xmlns="http://www.w3.org/2000/svg" fill='currentColor'><g clip-path="url(#clip0_104_3466)"><path d="M5 12.5C4.99986 12.775 4.92414 13.0446 4.78111 13.2794C4.63809 13.5143 4.43327 13.7053 4.18903 13.8316C3.94479 13.9579 3.67053 14.0146 3.39623 13.9956C3.12192 13.9766 2.85812 13.8825 2.63365 13.7237C2.40919 13.5649 2.23269 13.3475 2.12345 13.0951C2.01422 12.8428 1.97644 12.5653 2.01425 12.2929C2.05206 12.0206 2.16401 11.7639 2.33786 11.5508C2.5117 11.3378 2.74076 11.1767 3 11.085V9.5C3 9.36739 3.05268 9.24021 3.14645 9.14645C3.24022 9.05268 3.36739 9 3.5 9C3.63261 9 3.75979 9.05268 3.85355 9.14645C3.94732 9.24021 4 9.36739 4 9.5V11.085C4.29258 11.1884 4.54587 11.3801 4.72497 11.6335C4.90407 11.8869 5.00016 12.1897 5 12.5Z"/><path d="M1 2.5C1 1.83696 1.26339 1.20107 1.73223 0.732233C2.20108 0.263392 2.83696 0 3.5 0C4.16304 0 4.79893 0.263392 5.26777 0.732233C5.73661 1.20107 6 1.83696 6 2.5V10.05C6.48234 10.5423 6.8086 11.166 6.93788 11.843C7.06715 12.5199 6.99369 13.22 6.7267 13.8554C6.45972 14.4907 6.01109 15.0332 5.43707 15.4146C4.86305 15.796 4.18919 15.9995 3.5 15.9995C2.81081 15.9995 2.13695 15.796 1.56294 15.4146C0.988919 15.0332 0.540288 14.4907 0.2733 13.8554C0.00631136 13.22 -0.0671497 12.5199 0.0621278 11.843C0.191405 11.166 0.517667 10.5423 1 10.05V2.5ZM3.5 1C3.10218 1 2.72065 1.15804 2.43934 1.43934C2.15804 1.72064 2 2.10218 2 2.5V10.487L1.833 10.637C1.45557 10.9745 1.18953 11.4187 1.07007 11.9107C0.950617 12.4028 0.983382 12.9195 1.16403 13.3925C1.34468 13.8655 1.6647 14.2725 2.08174 14.5597C2.49877 14.8468 2.99317 15.0005 3.4995 15.0005C4.00583 15.0005 4.50023 14.8468 4.91727 14.5597C5.33431 14.2725 5.65432 13.8655 5.83497 13.3925C6.01562 12.9195 6.04839 12.4028 5.92893 11.9107C5.80947 11.4187 5.54343 10.9745 5.166 10.637L5 10.486V2.5C5 2.10218 4.84197 1.72064 4.56066 1.43934C4.27936 1.15804 3.89783 1 3.5 1ZM8.5 2C8.63261 2 8.75979 2.05268 8.85356 2.14645C8.94732 2.24021 9 2.36739 9 2.5V3.793L9.646 3.146C9.73989 3.05211 9.86723 2.99937 10 2.99937C10.1328 2.99937 10.2601 3.05211 10.354 3.146C10.4479 3.23989 10.5006 3.36722 10.5006 3.5C10.5006 3.63278 10.4479 3.76011 10.354 3.854L9 5.207V7.134L10.669 6.171L11.164 4.321C11.1811 4.25757 11.2105 4.19813 11.2505 4.14606C11.2906 4.09399 11.3405 4.05032 11.3974 4.01754C11.4543 3.98476 11.5171 3.96352 11.5823 3.95502C11.6474 3.94652 11.7136 3.95093 11.777 3.968C11.8404 3.98507 11.8999 4.01447 11.9519 4.05451C12.004 4.09456 12.0477 4.14447 12.0805 4.20139C12.1132 4.25831 12.1345 4.32113 12.143 4.38627C12.1515 4.4514 12.1471 4.51757 12.13 4.581L11.893 5.463L13.013 4.817C13.1278 4.75174 13.2637 4.73453 13.3911 4.76913C13.5186 4.80372 13.6271 4.88731 13.6931 5.00165C13.7592 5.116 13.7773 5.25181 13.7435 5.37946C13.7098 5.50711 13.6269 5.61622 13.513 5.683L12.393 6.329L13.277 6.566C13.3404 6.58307 13.3999 6.61247 13.4519 6.65251C13.504 6.69256 13.5477 6.74247 13.5805 6.79939C13.6132 6.85631 13.6345 6.91913 13.643 6.98427C13.6515 7.0494 13.6471 7.11557 13.63 7.179C13.6129 7.24243 13.5835 7.30187 13.5435 7.35394C13.5034 7.40601 13.4535 7.44968 13.3966 7.48246C13.3397 7.51524 13.2769 7.53648 13.2117 7.54498C13.1466 7.55348 13.0804 7.54907 13.017 7.532L11.169 7.037L9.5 8L11.169 8.963L13.018 8.468C13.0818 8.44981 13.1486 8.4445 13.2145 8.45239C13.2804 8.46028 13.3441 8.4812 13.4018 8.51395C13.4595 8.5467 13.5102 8.59061 13.5507 8.64312C13.5913 8.69564 13.621 8.75571 13.6382 8.81982C13.6553 8.88394 13.6595 8.95083 13.6505 9.01658C13.6415 9.08233 13.6195 9.14564 13.5858 9.2028C13.5521 9.25997 13.5073 9.30986 13.4541 9.34955C13.401 9.38924 13.3404 9.41795 13.276 9.434L12.393 9.671L13.513 10.317C13.6269 10.3838 13.7098 10.4929 13.7435 10.6205C13.7773 10.7482 13.7592 10.884 13.6931 10.9983C13.6271 11.1127 13.5186 11.1963 13.3911 11.2309C13.2637 11.2655 13.1278 11.2483 13.013 11.183L11.893 10.537L12.13 11.42C12.1482 11.4838 12.1535 11.5506 12.1456 11.6165C12.1377 11.6824 12.1168 11.7461 12.0841 11.8038C12.0513 11.8615 12.0074 11.9122 11.9549 11.9527C11.9024 11.9933 11.8423 12.023 11.7782 12.0402C11.7141 12.0573 11.6472 12.0615 11.5814 12.0525C11.5157 12.0435 11.4524 12.0215 11.3952 11.9878C11.338 11.9541 11.2881 11.9093 11.2485 11.8561C11.2088 11.803 11.1801 11.7424 11.164 11.678L10.67 9.83L9 8.866V10.793L10.354 12.146C10.4005 12.1925 10.4374 12.2477 10.4625 12.3084C10.4877 12.3692 10.5006 12.4343 10.5006 12.5C10.5006 12.5657 10.4877 12.6308 10.4625 12.6916C10.4374 12.7523 10.4005 12.8075 10.354 12.854C10.3075 12.9005 10.2523 12.9374 10.1916 12.9625C10.1308 12.9877 10.0657 13.0006 10 13.0006C9.93426 13.0006 9.86916 12.9877 9.80842 12.9625C9.74768 12.9374 9.69249 12.9005 9.646 12.854L9 12.207V13.5C9 13.6326 8.94732 13.7598 8.85356 13.8536C8.75979 13.9473 8.63261 14 8.5 14C8.36739 14 8.24022 13.9473 8.14645 13.8536C8.05268 13.7598 8 13.6326 8 13.5V2.5C8 2.36739 8.05268 2.24021 8.14645 2.14645C8.24022 2.05268 8.36739 2 8.5 2Z"/></g><defs><clipPath id="clip0_104_3466"><rect width="16" height="16"/></clipPath></defs></svg>