<svg width="16" height="16" viewBox="0 0 16 16" xmlns="http://www.w3.org/2000/svg" fill='currentColor'><g clip-path="url(#clip0_104_3525)"><path d="M2.18391e-09 3.5C2.18391e-09 3.10218 0.158035 2.72064 0.43934 2.43934C0.720644 2.15804 1.10218 2 1.5 2H10.5C10.8978 2 11.2794 2.15804 11.5607 2.43934C11.842 2.72064 12 3.10218 12 3.5V5H13.02C13.2447 5.0002 13.4666 5.0509 13.6691 5.14835C13.8716 5.24579 14.0496 5.3875 14.19 5.563L15.671 7.413C15.8841 7.67919 16.0001 8.01003 16 8.351V10.5C16 10.8978 15.842 11.2794 15.5607 11.5607C15.2794 11.842 14.8978 12 14.5 12H14C14 12.5304 13.7893 13.0391 13.4142 13.4142C13.0391 13.7893 12.5304 14 12 14C11.4696 14 10.9609 13.7893 10.5858 13.4142C10.2107 13.0391 10 12.5304 10 12H5C5.00058 12.2666 4.94785 12.5306 4.84492 12.7765C4.742 13.0224 4.59094 13.2453 4.40065 13.432C4.21035 13.6187 3.98465 13.7654 3.73682 13.8636C3.48899 13.9619 3.22402 14.0095 2.95749 14.0039C2.69097 13.9982 2.42827 13.9393 2.18483 13.8306C1.94139 13.722 1.72214 13.5658 1.53995 13.3712C1.35776 13.1765 1.21632 12.9475 1.12393 12.6974C1.03155 12.4473 0.990095 12.1813 1.002 11.915C0.709048 11.8119 0.455323 11.6204 0.275844 11.3669C0.0963656 11.1135 -1.6752e-05 10.8106 2.18391e-09 10.5L2.18391e-09 3.5ZM1.294 10.956C1.4748 10.66 1.72951 10.4161 2.0331 10.2484C2.33669 10.0806 2.6787 9.99472 3.02553 9.99916C3.37235 10.0036 3.71206 10.0982 4.01125 10.2737C4.31045 10.4492 4.55883 10.6995 4.732 11H10.268C10.4439 10.6963 10.6963 10.4439 11 10.268V3.5C11 3.36739 10.9473 3.24021 10.8536 3.14645C10.7598 3.05268 10.6326 3 10.5 3H1.5C1.36739 3 1.24021 3.05268 1.14645 3.14645C1.05268 3.24021 1 3.36739 1 3.5V10.5C0.999921 10.5962 1.02762 10.6905 1.07977 10.7713C1.13192 10.8522 1.20631 10.9163 1.294 10.956ZM12 10C12.3511 10 12.6959 10.0924 13 10.268C13.304 10.4435 13.5565 10.696 13.732 11H14.5C14.6326 11 14.7598 10.9473 14.8536 10.8536C14.9473 10.7598 15 10.6326 15 10.5V8.35C14.9998 8.23653 14.961 8.12651 14.89 8.038L13.41 6.188C13.3632 6.12944 13.3039 6.08214 13.2364 6.0496C13.1689 6.01706 13.0949 6.00011 13.02 6H12V10ZM3 11C2.73478 11 2.48043 11.1054 2.29289 11.2929C2.10536 11.4804 2 11.7348 2 12C2 12.2652 2.10536 12.5196 2.29289 12.7071C2.48043 12.8946 2.73478 13 3 13C3.26522 13 3.51957 12.8946 3.70711 12.7071C3.89464 12.5196 4 12.2652 4 12C4 11.7348 3.89464 11.4804 3.70711 11.2929C3.51957 11.1054 3.26522 11 3 11ZM12 11C11.7348 11 11.4804 11.1054 11.2929 11.2929C11.1054 11.4804 11 11.7348 11 12C11 12.2652 11.1054 12.5196 11.2929 12.7071C11.4804 12.8946 11.7348 13 12 13C12.2652 13 12.5196 12.8946 12.7071 12.7071C12.8946 12.5196 13 12.2652 13 12C13 11.7348 12.8946 11.4804 12.7071 11.2929C12.5196 11.1054 12.2652 11 12 11Z"/></g><defs><clipPath id="clip0_104_3525"><rect width="16" height="16"/></clipPath></defs></svg>