<svg width="16" height="16" viewBox="0 0 16 16" xmlns="http://www.w3.org/2000/svg" fill='currentColor'><path d="M7.637 12.9999V3.66894H6.379V7.61994H1.758V3.66994H0.5V12.9999H1.758V8.72794H6.378V12.9999H7.637ZM11.262 8.72794H12.28C13.422 8.72794 14.215 9.39794 14.229 10.4019C14.242 11.4069 13.449 12.1389 12.219 12.1319C11.139 12.1249 10.366 11.5439 10.284 10.8119H9.108C9.177 12.1389 10.332 13.1979 12.191 13.1979C14.126 13.1979 15.534 12.0429 15.5 10.4089C15.473 8.89894 14.249 8.24894 13.463 8.15994V8.09194C14.167 7.96894 15.227 7.18194 15.186 5.86294C15.151 4.50994 14.01 3.46294 12.232 3.47794C10.359 3.48394 9.375 4.63994 9.334 5.83594H10.53C10.592 5.14594 11.241 4.53694 12.226 4.53694C13.224 4.53694 13.921 5.15894 13.921 6.06194C13.928 6.98394 13.203 7.65394 12.226 7.65394H11.262V8.72794Z"/></svg>