<svg width="16" height="16" viewBox="0 0 16 16" xmlns="http://www.w3.org/2000/svg" fill='currentColor'><path d="M2.244 13.081L3.187 10.278H6.66L7.604 13.081H8.86L5.54 3.75H4.322L1 13.081H2.244ZM4.944 5.158L6.34 9.314H3.51L4.91 5.158H4.944ZM14.09 12.185H14.125V13.081H15.253V8.125C15.253 6.615 14.139 5.78 12.607 5.78C10.871 5.78 10.017 6.696 9.941 7.954H11.049C11.117 7.236 11.644 6.764 12.566 6.764C13.537 6.764 14.084 7.284 14.084 8.228V8.959H12.19C10.543 8.966 9.668 9.759 9.668 11.017C9.668 12.336 10.625 13.197 12.013 13.197C13.073 13.197 13.729 12.767 14.091 12.186L14.09 12.185ZM12.327 12.22C11.575 12.22 10.871 11.823 10.871 10.976C10.871 10.326 11.295 9.861 12.279 9.861H14.084V10.695C14.084 11.591 13.332 12.22 12.327 12.22Z"/></svg>