<svg width="146" height="60" xmlns="http://www.w3.org/2000/svg">
  <g fill="#737F85">
    <path d="M.08842105 53.92736842c.10105263.35052628.1831579.63473688.36947369.96947368.2336842.3852632.5368421.7357895.88736842 1.02.63789473.5210526 1.65789473 1.0705263 3.54631579 1.0705263 2.25789473 0 3.53052631-.9378947 4.06421052-1.7052631.21789474-.3.6031579-1.0042106.6031579-2.00842109 0-1.00421053-.40105263-1.9768421-1.22210526-2.59578947-.51789474-.38210527-1.13684211-.58421053-1.77473685-.75157895-.43578947-.13578947-.86842105-.23368421-1.30421052-.35052632-.98842106-.23368421-1.40526316-.26842105-1.84105263-.60315789-.46736843-.35052632-.55263158-.80210526-.56842106-1.00105263 0-.13578948.03473684-.43578948.25263158-.73578948.10105263-.15157894.23368421-.26842105.38526316-.36947368.51789474-.31578947 1.32-.33473684 1.44-.33473684.77052632 0 1.52210526.21473684 1.93894737.91894737.03473684.05052631.13578947.21789473.20210526.40105263.3-.06631579.61894737-.13263158.9031579-.21789474.36947368-.10105263.72-.19894737 1.07052631-.31894737-.01578947-.08210526-.1168421-.40105263-.28421052-.68526316-.23368422-.40105263-.6031579-.7168421-.72-.82105263-1.18736843-1.02-2.62736843-1.03578947-3.14526316-1.03578947-2.12526316 0-3.24631579.98526316-3.71368421 1.72421053-.46736842.75157894-.50210527 1.57263157-.50210527 1.88842105 0 .40421052.05052632 1.2568421.78631579 2.07473684.55263158.6 1.08631579.78631579 1.38947369.88736842.18315789.05052632.36947368.10421053.56842105.16736842.36947368.11684211.75157895.21789474 1.13684211.31578948.63789473.15157894 1.63894736.31894736 2.17578947.66947368.50210526.31578947.58421053.87157895.58421053 1.07052632 0 .18315789-.03157895.52105258-.3.87157898-.15157895.1673684-.31578948.3157894-.50210527.4168421-.56842105.3189473-1.44.3189473-1.57263158.3189473-1.47157894 0-2.19157894-.4863158-2.54526315-1.0547368-.13263158-.20210527-.20210527-.36631579-.26842106-.58421053l-2.04.38842105ZM18.5557895 52.67052632c0-.66947369-.0157895-1.38631579-.1831579-2.02421053-.0663158-.21789474-.1989474-.68526316-.5526316-1.18736842-.9884211-1.44-2.46-1.59157895-3.0789474-1.59157895-1.7905263 0-3.18 1.08631579-3.7136842 2.76-.2336842.76736842-.2494737 1.52210526-.2494737 1.8031579 0 2.42526318.9726316 3.44842108 1.891579 3.98526318.8368421.4831579 1.6389474.5336842 2.008421.5336842 1.2726316 0 2.491579-.5526316 3.211579-1.5884211.2842105-.42.5178947-.988421.568421-1.1052631l-1.7905263-.28421055c-.0694737.19894735-.1357895.36947365-.2526316.55263155-.3694736.5368421-.988421.871579-1.6231579.871579-.2526315 0-.6694736-.031579-1.1210526-.4326316-.72-.6378947-.7705263-1.49052632-.8021052-1.79368422-.0189474-.16736842-.0347369-.33157894-.0347369-.48315789l5.7221053-.01578947ZM12.7831579 51.42c.0505263-.45473684.0852632-.58736842.1831579-.82105263.268421-.72.7863158-1.03894737 1.0547368-1.17157895.1010527-.05368421.3663158-.16736842.6852632-.16736842.1989474 0 .5842105.03473684 1.02.36947368.6347368.46736843.7515789 1.05157895.868421 1.79052632h-3.8115789ZM20.2642105 48.05684211v8.66526319l1.9578948.0663158v-4.61684215c.0505263-.9031579.1168421-1.72421053.8873684-2.30842106.4010526-.33473684.8021052-.38526315.988421-.38526315.451579 0 .7357895.19894737.8684211.31578947.5178947.45473684.5178947 1.07052632.5368421 1.74v5.25473689h1.8726316v-5.90526321c-.0157895-.10105263-.0157895-.58421052-.1168421-.97263157-.1010527-.41684211-.2526316-.70105264-.3189474-.83368421-.1673684-.28421053-.3852632-.55263158-.6347368-.73894737-.2336843-.16736842-.751579-.46736842-1.5568421-.48631579-1.3705264 0-2.0084211.85578947-2.2736843 1.28842105-.1515789.23052632-.3189473.55263158-.42.78631579v-1.87263158h-1.7905263v.0031579ZM33.3663158 53.49157895c.4010526.08526316.7863158.18315789.9694737.50210526.0852631.16736839.1010526.31894739.1010526.40421049 0 .4863158-.4010526.751579-.5368421.8210527-.1673684.1010526-.6189474.2494737-1.2031579.2494737-.1326316 0-1.0042105-.0189474-1.5063158-.451579-.1515789-.1357895-.2526316-.2526316-.4357895-.6378947l-1.8252631.3852631c.3347368.6694737.5178947.9694737.7515789 1.2221053.6852632.6694737 1.9578948.9378947 2.911579.9378947.3189473 0 1.8063158-.0347368 2.8105263-.7705263.9189474-.6852631 1.0389474-1.6421053 1.0389474-2.0715789 0-.85578951-.42-1.68947372-1.171579-2.12526319-.2336842-.13578948-.4357895-.21789474-.9726316-.38526316l-1.9736842-.36947369c-.4673684-.1168421-.9031579-.19894737-1.1210526-.61894737-.0852632-.15157894-.1010526-.2968421-.1010526-.35052631 0-.1831579.0663158-.35052632.1010526-.40105263.2494737-.43578948.8368421-.50210527.9852632-.52105263.2021052-.03473685.3852631-.03473685.4515789-.03473685 1.0547368 0 1.3894737.58736842 1.6231579.95368421l1.7242105-.36631579c-.3-.61894736-.4168421-.82105263-.6505263-1.07052631C34.7021053 48.10421053 33.5621053 47.82 32.6589474 47.82c-.8684211 0-1.8568421.21789474-2.5105263.77368421-.5526316.48631579-.9031579 1.30421053-.9031579 2.07157895 0 1.19052631.7357894 1.77157895 1.1052631 1.99263158.3347369.21789473.6505263.3 1.02.4168421l1.9957895.41684211ZM37.4273684 52.18736842c-.1357895 2.35894738 1.0705263 3.71684208 1.891579 4.21578948.8210526.5210526 1.7242105.5526316 2.0589473.5526316.6189474 0 2.0747369-.1168421 3.1294737-1.4873684.6694737-.8873685.9536842-1.97684215.9536842-3.06315794 0-2.3431579-1.3705263-4.53473684-3.8810526-4.53473684-.5021053 0-1.8568421.1168421-2.9115789 1.22210526-1.1084211 1.17157895-1.2252632 2.60842105-1.2410527 3.09473684Zm2.04.21789474c.0347369-.75473684.1831579-1.82526316.7673684-2.40947369.451579-.45473684 1.0705264-.50526315 1.2884211-.50526315.5842105 0 .9694737.28421052 1.1210526.43578947.72.68526316.7357895 1.74.751579 2.02421053.0157894.18315789.0157894.36631579.0157894.56842105 0 .31894737.0505264 1.74000003-.9189473 2.49473683-.1831579.1326316-.5178948.3663158-1.0863158.3663158-1.3894737 0-1.7905263-1.3705263-1.8568421-1.72105263-.1326316-.53368421-.0978948-1.08631579-.0821053-1.25368421ZM47.3178947 48.05684211v8.73157899l.7010527-.0505264c.4010526-.0157894.8210526 0 1.2221052.0157895v-3.59684209c.0157895-.36631579-.0663158-1.72105264.8368421-2.61157895.4863158-.4831579.9378948-.51789474 1.2221053-.53368421.1515789-.01578948.3-.01578948.4515789-.01578948l.0157895-2.12526315c-.2336842.01578947-.7705263 0-1.32.33157894-.7515789.45473685-1.0547368 1.20631579-1.3705263 2.00842106v-2.15684211h-1.7589474v.0031579ZM57.8210526 55.8189474v.9031579h2.1757895V45.07578947h-2.16v1.22210527zM62.4378947 48.05684211v8.66526319l1.9578948.0663158v-4.61684215c.0505263-.9031579.1168421-1.72421053.8873684-2.30842106.4010526-.33473684.8021053-.38526315.988421-.38526315.451579 0 .7357895.19894737.871579.31578947.5178947.45473684.5178947 1.07052632.5368421 1.74v5.25473689h1.8726316v-5.90526321c-.0157895-.10105263-.0157895-.58421052-.1168421-.97263157-.1010527-.41684211-.2526316-.70105264-.3189474-.83368421-.1673684-.28421053-.3852632-.55263158-.6347368-.73894737-.2368421-.16736842-.7547369-.46736842-1.5568421-.48631579-1.3705264 0-2.0084211.85578947-2.2736843 1.28842105-.1515789.23052632-.3189473.55263158-.42.78631579v-1.87263158h-1.7936842v.0031579ZM70.8884211 48.05684211V49.68h1.0547368v4.8189474c.0852632.6852631.1515789 1.2378947.6505263 1.7368421.4863158.5210526 1.14.6031579 1.8726316.6031579.4010526 0 .8052631-.0347369 1.2063158-.0505263l.0157895-1.6073685c-.5368422.0505263-1.2063158.1168421-1.5726316-.3189473-.151579-.1831579-.2178948-.3663158-.2494737-.8368421v-4.36736846h1.7242105v-1.6231579h-1.74v-2.44105263l-1.5726316.11684211L72.06 48.05684211h-1.1715789ZM84.2557895 52.67052632c0-.66947369-.0157895-1.38631579-.1831579-2.02421053-.0663158-.21789474-.2021053-.68526316-.5526316-1.18736842-.9852632-1.44-2.46-1.59157895-3.0789474-1.59157895-1.7905263 0-3.18 1.08631579-3.7168421 2.76-.2336842.76736842-.2494737 1.52210526-.2494737 1.8031579 0 2.42526318.9694737 3.44842108 1.891579 3.98526318.8368421.4831579 1.6389474.5336842 2.008421.5336842 1.2726316 0 2.491579-.5526316 3.211579-1.5884211.2842105-.42.5210526-.988421.568421-1.1052631l-1.7905263-.28421055c-.0663158.19894735-.1357894.36947365-.2494737.55263155-.3694736.5368421-.9852631.871579-1.6231579.871579-.2526315 0-.6694736-.031579-1.1210526-.4326316-.72-.6378947-.7736842-1.49052632-.8052631-1.79368422-.0189474-.16736842-.0347369-.33157894-.0347369-.48315789l5.7252632-.01578947ZM78.4831579 51.42c.0505263-.45473684.0852632-.58736842.1831579-.82105263.268421-.72.7863158-1.03894737 1.0547368-1.17157895.1010527-.05368421.3663158-.16736842.6852632-.16736842.1989474 0 .5842105.03473684 1.02.36947368.6347368.46736843.7515789 1.05157895.8715789 1.79052632h-3.8147368ZM85.9326316 45.00947368V56.7726316h2.0242105V45.00947368zM90.0536842 45.00947368V56.7726316h2.0242105V45.00947368zM94.1431579 48.05684211v8.69684209h1.9926316v-8.69684209h-1.9926316Zm.0505263-3.02842106V47.1h1.9231579v-2.07157895h-1.9231579ZM106.329474 46.36421053c-1.136842-.03473685-1.591579.05052631-2.024211.36631579-.470526.36947368-.603158.78947368-.770526 1.33894736-.618948-.13578947-1.004211-.21789473-1.657895-.21789473-.918947 0-1.9042104.13578947-2.6431578.66947368-.6189474.47052632-.9694737 1.17157895-.9694737 1.94210526 0 1.22210527.871579 1.79052632 1.1905263 2.02421053-.4705263.28105263-.9221052.56842105-1.1905263 1.03578947-.0663158.10105264-.1989473.35052632-.1989473.68526321 0 .6347368.3536842 1.02.7547368 1.4715789-.6694737.42-.8715789.6347368-1.0547368 1.0389474-.151579.3157894-.151579.568421-.151579.7168421 0 1.0547368.8052632 1.6073684 1.0863158 1.7557894.3347368.1831579.6031579.2684211.7547368.3.4168421.1010527 1.2726312.2526316 2.3589472.2526316 1.623158 0 2.510527-.2842105 3.161053-.6536842 1.155789-.6505263 1.338947-1.5568421 1.338947-2.1252631 0-.9031579-.568421-1.6547369-1.389473-2.0242106-.584211-.2494737-1.45579-.3189473-2.876843-.3505263-.903157 0-1.222105.0157895-1.673684-.1515789-.5052629-.1831579-.6189472-.55263161-.6189472-.78631582 0-.35368421.2494742-.56842105.3347372-.63473684.050526-.05052632.116842-.10105263.183158-.16736842C101.144211 53.06526316 101.46 53.1 101.962105 53.1c1.338948 0 2.261053-.53684211 2.662106-.85263158.770526-.63473684.855789-1.45578947.855789-1.82526316 0-.73578947-.303158-1.22210526-.486316-1.42105263-.183158-.19894737-.318947-.3-.536842-.46736842.085263-.16736842.167369-.30315789.303158-.42.366316-.30315789 1.070526-.28421053 1.572632-.26842105v-1.48105263h-.003158Zm-6.6410529 9.82421057c1.3547369.2494736 1.8221049.2178947 3.2115789.2336842.751579.0157894 1.086316.1326315 1.351579.3821052.217895.2178948.233684.42.233684.5368421 0 .4673685-.401052.8021053-.821052.9536842-.517895.1831579-1.304211.1831579-1.421053.1831579-1.471579 0-2.3273685-.3031579-2.7126317-.8557894-.0663158-.0852632-.2147368-.3347369-.2147368-.6694737.0031579-.3473684.1389473-.5147369.3726316-.7642105Zm.5999999-5.87368426c.066316-.42.366316-1.27263158 1.572632-1.27263158.634736 0 .988421.21789474 1.155789.36631579.42.35368421.451579.88736842.451579 1.08947369 0 .55263158-.281053 1.45578947-1.591579 1.45578947-.716842 0-1.335789-.33473684-1.537895-.98842105-.082105-.28421053-.066315-.51789474-.050526-.65052632ZM114.982105 52.67052632c0-.66947369-.018947-1.38631579-.183158-2.02421053-.066315-.21789474-.202105-.68526316-.552631-1.18736842-.985263-1.44-2.46-1.59157895-3.082105-1.59157895-1.787369 0-3.176843 1.08631579-3.713685 2.76-.233684.76736842-.249473 1.52210526-.249473 1.8031579 0 2.42526318.969473 3.44842108 1.891579 3.98526318.836842.4831579 1.638947.5336842 2.008421.5336842 1.272631 0 2.491579-.5526316 3.211579-1.5884211.28421-.42.521052-.988421.568421-1.1052631l-1.790527-.28421055c-.066315.19894735-.135789.36947365-.249473.55263155-.369474.5368421-.985264.871579-1.623158.871579-.252632 0-.669474-.031579-1.121053-.4326316-.72-.6378947-.770526-1.49052632-.805263-1.79368422-.01579-.16736842-.034737-.33157894-.034737-.48315789l5.725263-.01578947ZM109.209474 51.42c.050526-.45473684.085263-.58736842.183158-.82105263.265263-.72.786315-1.03894737 1.054736-1.17157895.101053-.05368421.366316-.16736842.685264-.16736842.198947 0 .58421.03473684 1.02.36947368.634736.46736843.751579 1.05157895.871579 1.79052632h-3.814737ZM116.690526 48.05684211v8.66526319l1.957895.0663158v-4.61684215c.050526-.9031579.12-1.72421053.887368-2.30842106.404211-.33473684.805264-.38526315.988422-.38526315.451578 0 .735789.19894737.871578.31578947.517895.45473684.517895 1.07052632.533685 1.74v5.25473689h1.875789v-5.90526321c-.015789-.10105263-.015789-.58421052-.12-.97263157-.097895-.41684211-.249474-.70105264-.315789-.83368421-.167369-.28421053-.385263-.55263158-.634737-.73894737-.233684-.16736842-.751579-.46736842-1.556842-.48631579-1.370527 0-2.008421.85578947-2.276842 1.28842105-.151579.23052632-.31579.55263158-.416842.78631579v-1.87263158h-1.793685v.0031579ZM132.84 50.93368421c-.034737-.16736842-.151579-.73894737-.401053-1.24105263-.805263-1.65789474-2.44421-1.80631579-3.063158-1.80631579-1.689473 0-2.595789 1.00421053-2.946315 1.50631579-.836842 1.15263158-.871579 2.54210526-.871579 3.01263158 0 1.58842105.536842 2.61157894.903158 3.12947364.233684.3347369.451579.5368421.568421.6378948.855789.6978947 1.910526.7673684 2.276842.7673684 1.02 0 1.689473-.3663158 2.008421-.5684211.12-.0821052.385263-.2842105.669474-.6157894.634736-.7863158.770526-1.5757895.836842-1.94210529l-1.556842-.15157895c-.233685.55263154-.451579 1.03578944-.953685 1.37052634-.334737.2178947-.653684.2336842-.84.2336842-.552631 0-.903158-.2336842-1.051579-.3694737-.634736-.5210526-.802105-1.52210526-.802105-2.32736842 0-1.17157894.198947-1.80631579.467369-2.24210526.451578-.68526316 1.035789-.78631579 1.370526-.78631579.318947 0 1.038947.10105263 1.44.88736842.116842.23368421.183158.48631579.233684.75473684l1.711579-.24947368ZM141.650526 52.67052632c0-.66947369-.015789-1.38631579-.183158-2.02421053-.069473-.21789474-.202105-.68526316-.552631-1.18736842-.985263-1.44-2.456842-1.59157895-3.078948-1.59157895-1.790526 0-3.176842 1.08631579-3.713684 2.76-.233684.76736842-.249473 1.52210526-.249473 1.8031579 0 2.42526318.969473 3.44842108 1.888421 3.98526318.836842.4831579 1.638947.5336842 2.008421.5336842 1.272631 0 2.494737-.5526316 3.211579-1.5884211.28421-.42.521052-.988421.568421-1.1052631l-1.790527-.28421055c-.066315.19894735-.132631.36947365-.249473.55263155-.366316.5368421-.985263.871579-1.623158.871579-.249474 0-.669474-.031579-1.121053-.4326316-.72-.6378947-.770526-1.49052632-.805263-1.79368422-.015789-.16736842-.031579-.33157894-.031579-.48315789l5.722105-.01578947ZM135.881053 51.42c.050526-.45473684.082105-.58736842.183158-.82105263.265263-.72.786315-1.03894737 1.051578-1.17157895.101053-.05368421.369474-.16736842.685264-.16736842.202105 0 .58421.03473684 1.02.36947368.634736.46736843.754736 1.05157895.871579 1.79052632h-3.811579ZM145.585263 56.7536842v-2.2421053h-2.141052v2.2421053z"/>
  </g>
  <g fill="#007CC1">
    <path d="M.30315821 25.6989475c0 5.5136842 4.84421053 7.8884211 9.2431579 7.8884211H19.8821056c5.5263158 0 9.8589473-5.131579 9.8589473-10.2378948 0-5.5421052-4.3863157-9.9189473-9.8842105-10.0673684H9.83368453c-2.69052632-.4389473-2.52947369-4.31999998 0-4.67999998H28.6547372c0-4.3168421-3.2463158-7.72105263-7.7936843-7.72105263H9.83368453C4.16210558.88105279.249474 5.77894753.249474 11.0115791c0 5.4410526 4.23473684 10.0073684 9.58421053 10.0073684H19.8852635c2.5452631.4989474 2.8642105 4.111579 0 4.6831579-2.6905263-.0031579-19.58210529-.0031579-19.58210529-.0031579ZM32.6431582.8778949h7.7242105v32.7094737h-7.7242105V.8778949zM75.4989477 25.3168423c-2.8389474 5.3778947-8.4663158 9.0378947-14.9242105 9.0378947-9.3221053 0-16.8789474-7.6294737-16.8789474-17.04 0-9.41052632 7.5568421-17.04 16.8789474-17.04 6.3947368 0 11.9557894 3.58736842 14.82 8.88l-6.9157895 3.7326316c-1.5473684-2.85157897-4.5378948-4.7526316-7.9042105-4.7526316-4.9105264 0-9.0189474 4.0389474-9.0189474 9.18s4.108421 9.18 9.0189474 9.18c3.4357894 0 6.4989473-1.9768421 8.0147368-4.9294737l6.9094737 3.751579ZM78.4105266.8778949v32.7094737h7.8126316V20.914737h2.7442105l8.22 12.6726316h9.6094733L95.889474 17.4410528 106.957895.8778949h-9.6063157L89.229474 13.9957896h-3.0063158V.8778949h-7.8126316z"/>
  </g>
</svg>