<svg xmlns="http://www.w3.org/2000/svg" width="295" height="94" viewBox="0 0 295 94" fill='currentColor'><g clip-path="url(#a)"><path d="M166.804 0c17.635 0 32.971 9.893 40.87 24.488l-19.073 10.294c-4.267-7.863-12.513-13.106-21.797-13.106-13.541 0-24.871 11.138-24.872 25.315 0 14.178 11.331 25.317 24.872 25.317 9.475 0 17.923-5.453 22.103-13.595l19.054 10.346c-7.829 14.83-23.348 24.924-41.157 24.924-25.707 0-46.547-21.04-46.547-46.992S141.097 0 166.804 0M57.284 1.672c12.541 0 21.494 9.388 21.494 21.293H26.875c-6.976.993-7.42 11.696 0 12.906h27.64c15.162.41 27.258 12.48 27.258 27.763 0 14.081-11.947 28.233-27.187 28.233H26.082c-12.131 0-25.49-6.549-25.49-21.754.156 0 46.595 0 54.003.008 7.898-1.576 7.018-11.538 0-12.914h-27.72c-14.752 0-26.43-12.593-26.43-27.598 0-14.43 10.79-27.937 26.43-27.937zm53.794 90.195h-21.3V1.663h21.3zM237.535 1.663V37.84h8.291l22.398-36.176h26.492L264.192 47.34l30.079 44.527h-26.5L245.103 56.92h-7.568v34.948H215.99V1.663z"/></g><defs><clipPath id="a"><path d="M0 0h295v94H0z"/></clipPath></defs></svg>