<svg width="73" height="24" xmlns="http://www.w3.org/2000/svg">
  <g fill="#007CC1">
    <path d="M.20696104 17.5442597c0 3.7641039 3.30706493 5.3852987 6.31015584 5.3852987h7.05607792c3.7727273 0 6.7305455-3.5032467 6.7305455-6.9892467 0-3.7835065-2.9944676-6.77150651-6.7477922-6.87283118H6.7132987c-1.83677922-.29966234-1.72683117-2.94919481 0-3.19496104h12.8488312c0-2.94703896-2.2162078-5.27103896-5.3206234-5.27103896H6.7132987c-3.8718961 0-6.54298701 3.34371429-6.54298701 6.91594805 0 3.71451953 2.89098701 6.83187013 6.54298701 6.83187013h6.8620519c1.7376104.3406234 1.9553507 2.8069091 0 3.1971169-1.8367792-.0021559-13.36838956-.0021559-13.36838956-.0021559ZM22.284961.59932468h5.2731948V22.9295584H22.284961V.59932468zM51.5419221 17.2834026c-1.9381039 3.6714026-5.7798182 6.170026-10.1885195 6.170026-6.364052 0-11.522987-5.2085195-11.522987-11.6329351 0-6.42441558 5.158935-11.63293506 11.522987-11.63293506 4.3655844 0 8.162026 2.44903896 10.1173766 6.06223377L46.7494805 8.798c-1.0563636-1.94672727-3.097948-3.24454545-5.3960779-3.24454545-3.3523377 0-6.1570909 2.75732467-6.1570909 6.26703895 0 3.5097143 2.8047532 6.267039 6.1570909 6.267039 2.3455584 0 4.4367273-1.3495585 5.4715325-3.3652728l4.716987 2.5611429ZM53.5296104.59932468V22.9295584h5.3335584v-8.6514026h1.8734286l5.6116623 8.6514026h6.5602338l-7.4462857-11.0228311L73.0184416.59932468h-6.558078L60.9155325 9.5547013h-2.0523637V.59932468h-5.3335584z"/>
  </g>
</svg>