<svg xmlns="http://www.w3.org/2000/svg" width="600" height="600" fill="none"><g clip-path="url(#a)"><path fill="#fff" d="M0 0h600v600H0z"/><g clip-path="url(#b)"><path fill="#007CC1" d="M0 0h600v600H0z"/><path fill="#fff" d="M500 500H376.52c-35.103 0-65.092-22.323-76.519-53.516C288.574 477.677 258.584 500 223.48 500H100.001V376.522c0-35.106 22.322-65.097 53.52-76.522C122.323 288.576 100 258.585 100 223.479V100.001h123.48c35.103 0 65.092 22.322 76.518 53.515C311.424 122.323 341.415 100 376.518 100h123.479v123.479c0 35.106-22.322 65.097-53.519 76.521C477.675 311.425 500 341.416 500 376.522V500ZM305.025 388.251v30.293c0 39.423 32.073 71.495 71.495 71.495h113.519V376.522c0-39.423-32.072-71.496-71.495-71.496h-30.293v83.225h-83.226ZM109.962 490.039H223.48c39.424 0 71.497-32.072 71.497-71.495v-30.293h-83.229v-83.225h-30.291c-39.423 0-71.495 32.073-71.495 71.496v113.517ZM305.025 378.29h73.265v-73.264h-73.265v73.264Zm-83.316 0h73.268v-73.264h-73.268v73.264Zm166.542-83.315h30.29c39.422 0 71.495-32.073 71.495-71.496V109.961H376.518c-39.423 0-71.496 32.072-71.496 71.495v30.294h83.229v83.225Zm-83.229 0h73.268V221.71h-73.268v73.265Zm-83.313 0h73.265V221.71h-73.265v73.265ZM109.961 109.962v113.517c0 39.423 32.072 71.496 71.496 71.496h30.291V211.75h83.226v-30.293c0-39.423-32.072-71.495-71.494-71.495H109.961Z"/></g></g><defs><clipPath id="a"><path fill="#fff" d="M0 0h600v600H0z"/></clipPath><clipPath id="b"><path fill="#fff" d="M0 0h600v600H0z"/></clipPath></defs></svg>