<svg xmlns="http://www.w3.org/2000/svg" width="24" height="24" viewBox="0 0 24 24" fill='currentColor'><path d="M12 21.5a9.25 9.25 0 0 1-3.705-.748 9.6 9.6 0 0 1-3.016-2.03 9.6 9.6 0 0 1-2.03-3.017A9.25 9.25 0 0 1 2.5 12H4q0 3 1.952 5.238 1.951 2.24 4.921 2.67L9.366 18.4l1.053-1.054 3.839 3.839a6.4 6.4 0 0 1-1.121.244q-.57.07-1.137.071m.654-6.654V9.154h3l.884.885v3.922l-.884.885zm-5.192 0v-1.192h2.692v-1.212H8.46v-.884h1.693v-1.212H7.462V9.154h3.884v5.692zm6.384-1.192h1.5v-3.308h-1.5zM20 12q0-3-1.952-5.238-1.951-2.24-4.921-2.67L14.634 5.6l-1.053 1.054-3.839-3.838a6.4 6.4 0 0 1 1.121-.245q.57-.07 1.137-.071 1.972 0 3.705.748a9.6 9.6 0 0 1 3.016 2.03 9.6 9.6 0 0 1 2.03 3.017A9.25 9.25 0 0 1 21.5 12z"/></svg>