<svg xmlns="http://www.w3.org/2000/svg" width="24" height="24" viewBox="0 0 24 24" fill='currentColor'><path d="M12 6.192q-.761 0-1.304-.542a1.78 1.78 0 0 1-.542-1.304q0-.76.542-1.304A1.78 1.78 0 0 1 12 2.5q.762 0 1.304.542.542.543.542 1.304t-.542 1.304A1.78 1.78 0 0 1 12 6.192M10.154 20.5a.73.73 0 0 1-.535-.216.73.73 0 0 1-.215-.534V9a49 49 0 0 1-2.647-.292 28 28 0 0 1-2.451-.452q-.413-.094-.554-.381a.88.88 0 0 1-.085-.567.86.86 0 0 1 .28-.479q.222-.2.582-.104 1.725.4 3.574.588Q9.953 7.5 12 7.5t3.897-.187a29 29 0 0 0 3.574-.588q.36-.096.583.11.224.206.279.486a.83.83 0 0 1-.092.56q-.147.278-.562.375-1.183.275-2.443.452T14.596 9v10.75q0 .318-.215.534a.73.73 0 0 1-.535.216.73.73 0 0 1-.534-.216.73.73 0 0 1-.216-.534v-4.827h-2.192v4.827q0 .318-.216.534a.73.73 0 0 1-.534.216m9.461-8a.85.85 0 0 1-.625-.259.85.85 0 0 1-.26-.626q0-.367.26-.626a.85.85 0 0 1 .625-.258q.368 0 .626.258.26.259.26.626a.85.85 0 0 1-.26.626.85.85 0 0 1-.626.259m0 4a.85.85 0 0 1-.625-.259.85.85 0 0 1-.26-.626q0-.367.26-.626a.85.85 0 0 1 .625-.258q.368 0 .626.258.26.259.26.626a.85.85 0 0 1-.26.626.85.85 0 0 1-.626.259m0 4a.85.85 0 0 1-.625-.259.85.85 0 0 1-.26-.626q0-.367.26-.625a.85.85 0 0 1 .625-.26q.368 0 .626.26.26.258.26.625a.85.85 0 0 1-.26.626.85.85 0 0 1-.626.259"/></svg>