<svg xmlns="http://www.w3.org/2000/svg" width="24" height="24" viewBox="0 0 24 24" fill='currentColor'><path d="M8.096 21.5q-1.911 0-3.254-1.357T3.5 16.875t1.352-3.264q1.352-1.35 3.254-1.351v1.51q-1.29 0-2.197.908A3 3 0 0 0 5 16.875q0 1.288.909 2.197a3 3 0 0 0 2.207.909q1.297 0 2.206-.909a3 3 0 0 0 .909-2.197h1.5q0 1.912-1.362 3.268Q10.01 21.5 8.096 21.5m8.673-1v-4.586H9.362l-.83-1.266 2.632-5.812h-2.4l-.648 1.695-1.435-.435L7.76 7.26h5.7q1 0 1.52.777.52.779.099 1.726l-1.929 4.218h5.12V20.5zM15.385 6.654q-.75 0-1.274-.525a1.73 1.73 0 0 1-.525-1.273q0-.748.525-1.273.526-.525 1.273-.525.75 0 1.269.525.52.525.52 1.273t-.52 1.273-1.268.525"/></svg>