<svg xmlns="http://www.w3.org/2000/svg" width="24" height="24" viewBox="0 0 24 24" fill='currentColor'><path d="M12 20q1.21 0 2.345-.364a8 8 0 0 0 2.118-1.05L13.378 15.5A3.8 3.8 0 0 0 12 15.25q-1.627 0-3.149.537-1.522.538-2.828 1.505a8.9 8.9 0 0 0 2.693 1.999Q10.206 20 12 20m8.792 2.915-3.219-3.219a9.6 9.6 0 0 1-2.63 1.34A9.4 9.4 0 0 1 12 21.5a9.2 9.2 0 0 1-3.703-.749 9.6 9.6 0 0 1-3.016-2.032 9.6 9.6 0 0 1-2.032-3.016A9.2 9.2 0 0 1 2.5 12q0-1.503.451-2.918.45-1.415 1.338-2.645L1.28 3.404l1.069-1.07L21.86 21.846zm-.808-5.751-5.526-5.528q.396-.446.594-.99T15.25 9.5q0-1.354-.948-2.302Q13.353 6.25 12 6.25q-.601 0-1.146.198a3.1 3.1 0 0 0-.99.594L6.837 4.016A9.55 9.55 0 0 1 12 2.5q1.97 0 3.703.749a9.6 9.6 0 0 1 3.016 2.032 9.6 9.6 0 0 1 2.032 3.016q.75 1.734.749 3.703 0 1.38-.387 2.692a9.6 9.6 0 0 1-1.128 2.471"/></svg>