<svg xmlns="http://www.w3.org/2000/svg" width="24" height="24" viewBox="0 0 24 24" fill='currentColor'><path d="M5.385 21.115a2.4 2.4 0 0 1-1.77-.73 2.4 2.4 0 0 1-.73-1.77q0-.84.495-1.487t1.255-.895V7.767a2.54 2.54 0 0 1-1.255-.895 2.38 2.38 0 0 1-.495-1.487q0-1.039.73-1.77a2.4 2.4 0 0 1 1.77-.73q.84 0 1.487.495t.895 1.255h8.466q.232-.76.88-1.255.646-.495 1.502-.495a2.4 2.4 0 0 1 1.77.73 2.4 2.4 0 0 1 .73 1.77q0 .855-.495 1.503-.495.646-1.255.88v8.465q.76.247 1.255.895.495.647.495 1.487a2.4 2.4 0 0 1-.73 1.77 2.4 2.4 0 0 1-1.77.73q-.84 0-1.487-.495a2.54 2.54 0 0 1-.895-1.255H7.767a2.54 2.54 0 0 1-.895 1.255q-.647.495-1.487.495m2.382-3.25h8.466a2.46 2.46 0 0 1 1.632-1.632V7.767a2.4 2.4 0 0 1-1.024-.608 2.4 2.4 0 0 1-.608-1.024H7.767a2.46 2.46 0 0 1-1.632 1.632v8.466a2.46 2.46 0 0 1 1.632 1.632"/></svg>