<svg xmlns="http://www.w3.org/2000/svg" width="24" height="24" viewBox="0 0 24 24" fill='currentColor'><path d="M5.538 11.096v-.924q0-1.665.75-3.031a6.5 6.5 0 0 1 2.02-2.25L6.577 3.16l.808-.833 1.961 1.962q.593-.281 1.275-.43a6.5 6.5 0 0 1 2.756 0 6 6 0 0 1 1.277.43l1.961-1.962.808.833-1.73 1.73a6.5 6.5 0 0 1 2.019 2.25q.75 1.367.75 3.032v.924zM14.77 9.25q.393 0 .658-.265a.9.9 0 0 0 .265-.658.9.9 0 0 0-.265-.658.9.9 0 0 0-.658-.265.9.9 0 0 0-.658.265.9.9 0 0 0-.265.658q0 .392.265.658a.9.9 0 0 0 .658.265m-5.538 0q.391 0 .657-.265a.9.9 0 0 0 .266-.658.9.9 0 0 0-.266-.658.9.9 0 0 0-.657-.265.9.9 0 0 0-.658.265.9.9 0 0 0-.265.658q0 .392.265.658a.9.9 0 0 0 .658.265M12 22.173q-2.7 0-4.58-1.88-1.882-1.882-1.882-4.581v-3.693h12.924v3.695q0 2.701-1.881 4.58T12 22.173"/></svg>