<svg xmlns="http://www.w3.org/2000/svg" width="24" height="24" viewBox="0 0 24 24" fill='currentColor'><path d="M7.25 8.865h9.5v-1.5h-9.5zM18 22.558q-1.873 0-3.187-1.314-1.313-1.313-1.313-3.186t1.313-3.187T18 13.558t3.186 1.313 1.314 3.187-1.314 3.186Q19.874 22.558 18 22.558M17.558 21h.884v-2.5h2.5v-.884h-2.5v-2.5h-.884v2.5h-2.5v.884h2.5zM3.5 20.5v-17h17v8.133a7 7 0 0 0-1.227-.386 6.1 6.1 0 0 0-2.021-.085q-.357.045-.713.144v-.056H7.25v1.5h6.34a6.5 6.5 0 0 0-1.848 2.385H7.25v1.5h4.017a6 6 0 0 0-.115.67 6 6 0 0 0-.036.695q0 .642.101 1.273t.381 1.227z"/></svg>