<svg xmlns="http://www.w3.org/2000/svg" width="24" height="24" viewBox="0 0 24 24" fill='currentColor'><path d="M5.696 21a1.53 1.53 0 0 1-.783-.234 1.53 1.53 0 0 1-.576-.554l-2.308-4.039a1.6 1.6 0 0 1-.186-.78q-.004-.46.186-.782L8.337 3.788q.19-.321.58-.554T9.691 3h4.616q.386 0 .776.234.39.232.58.555l4.261 7.309a6 6 0 0 0-.88-.118 4 4 0 0 0-.896.045L14.35 4.5h-4.7L3.3 15.4l2.35 4.1h7.896q.198.43.456.801.258.37.6.699zm1.698-4.25-.58-1.025 4.488-7.821h1.396l2.535 4.412q-.31.25-.581.542-.271.294-.488.605L12 9.7l-3.183 5.55h4.456q-.127.36-.19.73a5 5 0 0 0-.074.77zm10.856 4v-3h-3v-1.5h3v-3h1.5v3h3v1.5h-3v3z"/></svg>