<svg xmlns="http://www.w3.org/2000/svg" width="24" height="24" viewBox="0 0 24 24" fill='currentColor'><path d="M17.116 8.885h1.768v-1.77h-1.768zM18 22.5q-1.873 0-3.187-1.314Q13.5 19.874 13.5 18t1.313-3.187T18 13.5t3.186 1.313Q22.5 16.127 22.5 18t-1.314 3.186Q19.874 22.5 18 22.5m-.442-1.558h.884v-2.5h2.5v-.884h-2.5v-2.5h-.884v2.5h-2.5v.884h2.5zm4.942-8.096a6.1 6.1 0 0 0-2.078-1.294 6.9 6.9 0 0 0-3.19-.39q-.366.046-.732.153V10.25l-6.308-4.54V3.5H22.5zM1.5 20.5v-9.25L8 6.616l6.5 4.634v.877a6.5 6.5 0 0 0-2.467 2.477A6.7 6.7 0 0 0 11.116 18q0 .669.119 1.278t.382 1.222H9.923v-5.539H6.077V20.5z"/></svg>