<svg xmlns="http://www.w3.org/2000/svg" width="24" height="24" viewBox="0 0 24 24" fill='currentColor'><path d="M11.996 21.5a9.2 9.2 0 0 1-3.701-.749A9.6 9.6 0 0 1 5.28 18.72a9.6 9.6 0 0 1-2.032-3.015A9.2 9.2 0 0 1 2.5 12q0-1.97.748-3.704a9.6 9.6 0 0 1 2.03-3.018 9.6 9.6 0 0 1 3.017-2.03A9.25 9.25 0 0 1 12 2.5q1.58 0 2.99.475T17.577 4.3l-1.085 1.11a8.2 8.2 0 0 0-2.1-1.039A7.6 7.6 0 0 0 12 4Q8.675 4 6.338 6.338 4 8.675 4 12t2.338 5.663T12 20q.838 0 1.627-.17a8.7 8.7 0 0 0 1.517-.472l1.125 1.14a9.7 9.7 0 0 1-2.04.741q-1.072.261-2.233.261m7.254-1.75v-3h-3v-1.5h3v-3h1.5v3h3v1.5h-3v3zm-8.67-3.496L6.678 12.35l1.054-1.054 2.85 2.85 9.865-9.88L21.5 5.318z"/></svg>