<svg xmlns="http://www.w3.org/2000/svg" width="24" height="24" viewBox="0 0 24 24" fill='currentColor'><path d="M12 20.5q-2.289 0-3.894-1.606Q6.5 17.29 6.5 15q0-2.106 1.37-3.643 1.37-1.538 3.38-1.801V4h1.5v5.556a5.3 5.3 0 0 1 3.392 1.8Q17.5 12.895 17.5 15q0 2.289-1.606 3.894Q14.29 20.5 12 20.5m0-1.5q1.467 0 2.559-.927a3.92 3.92 0 0 0 1.355-2.323H8.086q.264 1.395 1.355 2.323T12 19m-3.914-4.75h7.828a3.92 3.92 0 0 0-1.355-2.323Q13.468 11 12 11q-1.467 0-2.559.927a3.92 3.92 0 0 0-1.355 2.323"/></svg>