<svg xmlns="http://www.w3.org/2000/svg" width="24" height="24" viewBox="0 0 24 24" fill='currentColor'><path d="M12 5.23a.85.85 0 0 1-.626-.258.85.85 0 0 1-.258-.626q0-.367.258-.626A.85.85 0 0 1 12 3.461q.368 0 .626.26a.85.85 0 0 1 .258.625.85.85 0 0 1-.258.626.85.85 0 0 1-.626.259m0-3.153a.85.85 0 0 1-.626-.259.85.85 0 0 1-.258-.626q0-.367.258-.626A.85.85 0 0 1 12 .308q.368 0 .626.258a.85.85 0 0 1 .258.626.85.85 0 0 1-.258.626.85.85 0 0 1-.626.259M8.727 21.212a6.07 6.07 0 0 1-2.211-2.281 6.3 6.3 0 0 1-.804-3.085 6.17 6.17 0 0 1 1.007-3.391 6.4 6.4 0 0 1 2.685-2.338V7.538q0-.318.215-.534a.73.73 0 0 1 .535-.216h3.692q.32 0 .535.216a.73.73 0 0 1 .215.534v2.58a6.47 6.47 0 0 1 2.677 2.337 6.14 6.14 0 0 1 1.015 3.391 6.3 6.3 0 0 1-.803 3.085 6.07 6.07 0 0 1-2.212 2.28zM6.692 3.076a.85.85 0 0 1-.626-.259.85.85 0 0 1-.258-.626q0-.367.258-.626a.85.85 0 0 1 .626-.258q.368 0 .626.258a.85.85 0 0 1 .26.626.85.85 0 0 1-.26.626.85.85 0 0 1-.626.259m10.616 0a.85.85 0 0 1-.626-.259.85.85 0 0 1-.259-.626q0-.367.259-.626a.85.85 0 0 1 .626-.258q.367 0 .626.258a.85.85 0 0 1 .258.626.85.85 0 0 1-.258.626.85.85 0 0 1-.626.259M8.846 5.231a.85.85 0 0 1-.626-.259.85.85 0 0 1-.258-.626q0-.367.258-.626a.85.85 0 0 1 .626-.259q.368 0 .626.26a.85.85 0 0 1 .259.625.85.85 0 0 1-.259.626.85.85 0 0 1-.626.259m6.308 0a.85.85 0 0 1-.626-.259.85.85 0 0 1-.259-.626q0-.367.259-.626a.85.85 0 0 1 .626-.259q.368 0 .626.26a.85.85 0 0 1 .258.625.85.85 0 0 1-.258.626.85.85 0 0 1-.626.259"/></svg>