<svg xmlns="http://www.w3.org/2000/svg" width="24" height="24" viewBox="0 0 24 24" fill='currentColor'><path d="M3.5 20.5V6.25q0-1.145.803-1.947A2.65 2.65 0 0 1 6.25 3.5H10a2.65 2.65 0 0 1 1.947.803q.803.802.803 1.947v2h-2.384q-.75 0-1.278.53-.53.53-.53 1.278v4.884q0 .749.53 1.278.53.53 1.278.53h2.384v3.75zm13.475-3.467q-.564 0-1.124-.146a8 8 0 0 1-1.093-.373l.47-1.43q.494.203.935.325.44.124.812.124.339 0 .667-.098.33-.097.692-.34a3.5 3.5 0 0 1 1.158-.535 4.5 4.5 0 0 1 1.083-.152q.538 0 1.107.141.568.141 1.085.353l-.471 1.438q-.573-.195-1.002-.314a3 3 0 0 0-.744-.118 2.58 2.58 0 0 0-1.57.548q-.395.28-.92.428a4 4 0 0 1-1.085.149M12.75 15.25h-2.384a.3.3 0 0 1-.222-.086.3.3 0 0 1-.086-.222v-4.884a.3.3 0 0 1 .086-.222.3.3 0 0 1 .222-.086h2.384zm4.2-1.925q-.564 0-1.111-.146a8 8 0 0 1-1.081-.373l.47-1.42q.462.197.906.318.445.12.841.121.339 0 .672-.105.334-.104.688-.334a3.5 3.5 0 0 1 1.132-.54q.572-.147 1.083-.146.548 0 1.124.134t1.093.36l-.48 1.439q-.556-.19-.962-.312a2.7 2.7 0 0 0-.775-.121q-.339 0-.73.117a3 3 0 0 0-.83.422q-.486.33-.995.458-.508.128-1.045.128m.025-3.708q-.564 0-1.132-.146a7 7 0 0 1-1.085-.373l.47-1.429q.574.228.99.338t.757.11q.339 0 .667-.097.33-.097.692-.341a3.8 3.8 0 0 1 1.141-.542 4.2 4.2 0 0 1 1.075-.145q.547 0 1.096.134.55.135 1.121.36l-.48 1.439a21 21 0 0 0-.985-.315 2.8 2.8 0 0 0-.752-.118q-.363 0-.735.11-.37.11-.834.438a2.9 2.9 0 0 1-.94.437q-.53.14-1.066.14"/></svg>