<svg xmlns="http://www.w3.org/2000/svg" width="24" height="24" viewBox="0 0 24 24" fill='currentColor'><path d="M3.5 20.5V7q0-1.444 1.028-2.472T7 3.5h7q1.444 0 2.472 1.028T17.5 7v1H16v9h1.5v3.5zm7-5q1.444 0 2.472-1.028T14 12t-1.028-2.472T10.5 8.5 8.028 9.528 7 12t1.028 2.472T10.5 15.5m0-1.5q-.825 0-1.412-.588A1.93 1.93 0 0 1 8.5 12q0-.825.588-1.412A1.93 1.93 0 0 1 10.5 10q.825 0 1.412.588.588.587.588 1.412t-.588 1.412A1.93 1.93 0 0 1 10.5 14m6.25-2.25v-1.5h.65q.304 0 .54-.141.237-.142.39-.444.337-.667.94-1.041.602-.375 1.33-.374h.65v1.5h-.65q-.304 0-.54.141a1.06 1.06 0 0 0-.39.444 2.54 2.54 0 0 1-.94 1.041q-.603.375-1.33.374zm0 4v-1.5h.65q.304 0 .54-.141.237-.142.39-.444.337-.648.94-1.031a2.43 2.43 0 0 1 1.33-.384h.65v1.5h-.65q-.304 0-.54.141a1.06 1.06 0 0 0-.39.444 2.54 2.54 0 0 1-.94 1.041q-.603.375-1.33.374z"/></svg>