<svg xmlns="http://www.w3.org/2000/svg" width="24" height="24" viewBox="0 0 24 24" fill='currentColor'><path d="M12 21.5a8.3 8.3 0 0 1-3.315-.67 8.6 8.6 0 0 1-2.696-1.818 8.6 8.6 0 0 1-1.82-2.697A8.3 8.3 0 0 1 3.5 13q0-1.77.67-3.315a8.6 8.6 0 0 1 1.819-2.697A8.6 8.6 0 0 1 8.685 5.17 8.3 8.3 0 0 1 12 4.5q1.77 0 3.315.67a8.6 8.6 0 0 1 2.697 1.818 8.6 8.6 0 0 1 1.819 2.697q.67 1.545.67 3.315t-.67 3.315a8.6 8.6 0 0 1-1.82 2.697 8.6 8.6 0 0 1-2.696 1.819A8.3 8.3 0 0 1 12 21.5m2.973-4.473 1.054-1.054-3.277-3.277V8h-1.5v5.304zM5.753 2.888l1.055 1.054-3.866 3.866L1.89 6.754zm12.493 0 3.866 3.866-1.054 1.054-3.866-3.866z"/></svg>