<svg xmlns="http://www.w3.org/2000/svg" width="24" height="24" viewBox="0 0 24 24" fill='currentColor'><path d="M19.46 16.827 8.1 5.375a9 9 0 0 1 1.78-.644 8.3 8.3 0 0 1 1.995-.231 8.3 8.3 0 0 1 3.3.662 8.5 8.5 0 0 1 2.704 1.827 8.7 8.7 0 0 1 1.827 2.719 8.4 8.4 0 0 1 .669 3.354 8.15 8.15 0 0 1-.916 3.765m1.473-9.02-3.866-3.865 1.054-1.053 3.866 3.865zm-.5 14.92-3.17-3.17a8.6 8.6 0 0 1-2.454 1.418 8.2 8.2 0 0 1-2.934.525q-1.755 0-3.3-.662a8.7 8.7 0 0 1-2.704-1.803 8.5 8.5 0 0 1-1.827-2.681 8.2 8.2 0 0 1-.669-3.292q0-1.551.516-2.937a8.1 8.1 0 0 1 1.457-2.483L4.181 6.475 2.817 7.839 1.764 6.784 3.127 5.42 1.364 3.658l1.053-1.054 19.07 19.069z"/></svg>