<svg xmlns="http://www.w3.org/2000/svg" width="24" height="24" viewBox="0 0 24 24" fill='currentColor'><path d="M11.25 16.75h1.5v-3h3v-1.5h-3v-3h-1.5v3h-3v1.5h3zM12 21.5a8.3 8.3 0 0 1-3.315-.67 8.6 8.6 0 0 1-2.696-1.818 8.6 8.6 0 0 1-1.82-2.696 8.3 8.3 0 0 1-.669-3.315q0-1.77.67-3.316a8.6 8.6 0 0 1 1.819-2.697A8.6 8.6 0 0 1 8.684 5.17 8.3 8.3 0 0 1 12 4.5q1.77 0 3.315.67a8.6 8.6 0 0 1 2.697 1.818 8.6 8.6 0 0 1 1.819 2.696q.67 1.545.67 3.316t-.67 3.315a8.6 8.6 0 0 1-1.82 2.697 8.6 8.6 0 0 1-2.695 1.819 8.3 8.3 0 0 1-3.315.669M5.755 2.888l1.054 1.054-3.866 3.866L1.89 6.754zm12.492 0 3.866 3.866-1.054 1.054-3.866-3.866z"/></svg>