<svg xmlns="http://www.w3.org/2000/svg" width="24" height="24" viewBox="0 0 24 24" fill='currentColor'><path d="M11.25 21.5v-4.356q0-1.38-.406-2.113-.405-.733-1.144-1.392l1.07-1.07q.319.294.637.684t.593.826q.321-.543.741-1.001.42-.459.872-.867a8.8 8.8 0 0 0 1.86-2.38q.756-1.39.767-4.448l-1.825 1.825-1.069-1.054L17 2.5l3.654 3.654L19.6 7.208l-1.86-1.844q-.01 3.468-.941 5.154t-2.163 2.809a10 10 0 0 0-1.357 1.485q-.53.73-.53 2.332V21.5zM6.479 8.146a9 9 0 0 1-.157-1.263 36 36 0 0 1-.062-1.52L4.4 7.209 3.346 6.154 7 2.5l3.654 3.654-1.07 1.054-1.825-1.81q-.008.68.046 1.31t.133 1.088zm2.006 4.313a9 9 0 0 1-.876-1.181 7.2 7.2 0 0 1-.707-1.5l1.444-.359q.212.579.522 1.078t.686.893z"/></svg>