<svg xmlns="http://www.w3.org/2000/svg" width="24" height="24" viewBox="0 0 24 24" fill='currentColor'><path d="M1.846 17.51a10.1 10.1 0 0 1 1.518-4.549 9.6 9.6 0 0 1 3.469-3.297l-1.706-2.95a.5.5 0 0 1-.07-.442.6.6 0 0 1 .3-.35.5.5 0 0 1 .422-.046q.22.07.36.278l1.707 2.958A10.6 10.6 0 0 1 12 8.28q2.168 0 4.154.832l1.707-2.958a.67.67 0 0 1 .36-.278.5.5 0 0 1 .421.045q.23.125.301.351a.5.5 0 0 1-.07.442l-1.706 2.95a9.6 9.6 0 0 1 3.47 3.297 10.1 10.1 0 0 1 1.517 4.549zm5.54-2.539q.485 0 .819-.335t.333-.82-.335-.819a1.12 1.12 0 0 0-.82-.333 1.1 1.1 0 0 0-.819.335 1.12 1.12 0 0 0-.333.82q0 .485.335.819.334.333.82.333m9.23 0q.486 0 .82-.335t.333-.82q0-.484-.335-.819a1.12 1.12 0 0 0-.82-.333 1.1 1.1 0 0 0-.819.335 1.12 1.12 0 0 0-.334.82q0 .485.335.819.336.333.82.333"/></svg>