<svg xmlns="http://www.w3.org/2000/svg" width="24" height="24" viewBox="0 0 24 24" fill='currentColor'><path d="M17.809 8.942a2.66 2.66 0 0 1-1.949-.801 2.65 2.65 0 0 1-.802-1.947q0-1.146.802-1.949a2.65 2.65 0 0 1 1.947-.803q1.145 0 1.948.802a2.65 2.65 0 0 1 .803 1.947q0 1.146-.802 1.949a2.65 2.65 0 0 1-1.947.802M11.999 21.5a9.25 9.25 0 0 1-3.703-.748 9.6 9.6 0 0 1-3.016-2.03 9.6 9.6 0 0 1-2.032-3.016 9.25 9.25 0 0 1-.748-3.704q0-1.97.744-3.7a9.6 9.6 0 0 1 2.032-3.016 9.6 9.6 0 0 1 3.009-2.032 9.2 9.2 0 0 1 3.69-.744q.794 0 1.107.106.312.105.437.407.09.196.061.424a1.4 1.4 0 0 1-.147.455A4 4 0 0 0 13 4.974q-.136.567-.136 1.218 0 2.052 1.446 3.497 1.446 1.446 3.497 1.446.6 0 1.18-.136.579-.135 1.11-.432.222-.105.442-.129a.76.76 0 0 1 .412.068q.312.124.425.442.114.317.113 1.077a9.2 9.2 0 0 1-.744 3.69 9.6 9.6 0 0 1-2.031 3.009 9.6 9.6 0 0 1-3.018 2.032 9.3 9.3 0 0 1-3.699.744"/></svg>