<svg xmlns="http://www.w3.org/2000/svg" width="24" height="24" viewBox="0 0 24 24" fill='currentColor'><path d="M6 19.615q-.666 0-1.14-.474A1.56 1.56 0 0 1 4.384 18q0-.666.474-1.14A1.56 1.56 0 0 1 6 16.384q.666 0 1.14.474.475.475.475 1.141t-.474 1.14A1.56 1.56 0 0 1 6 19.616m0-6q-.666 0-1.14-.474A1.56 1.56 0 0 1 4.384 12q0-.666.474-1.14A1.56 1.56 0 0 1 6 10.384q.666 0 1.14.474.475.475.475 1.141t-.474 1.14A1.56 1.56 0 0 1 6 13.616m0-6q-.666 0-1.14-.474A1.56 1.56 0 0 1 4.384 6q0-.666.474-1.14A1.56 1.56 0 0 1 6 4.384q.666 0 1.14.474.475.475.475 1.141t-.474 1.14A1.56 1.56 0 0 1 6 7.616m6 12q-.666 0-1.14-.474A1.56 1.56 0 0 1 10.384 18q0-.666.474-1.14A1.56 1.56 0 0 1 12 16.384q.666 0 1.14.474.475.475.475 1.141t-.474 1.14a1.56 1.56 0 0 1-1.141.475m0-6q-.666 0-1.14-.474a1.56 1.56 0 0 1-.476-1.14q0-.666.474-1.14A1.56 1.56 0 0 1 12 10.384q.666 0 1.14.474.475.475.475 1.141t-.474 1.14a1.56 1.56 0 0 1-1.141.475m0-6q-.666 0-1.14-.473a1.55 1.55 0 0 1-.475-1.139q0-.705.487-1.162a1.64 1.64 0 0 1 1.165-.456 2 2 0 0 0-.039.3 7.5 7.5 0 0 0 .107 1.627q.114.64.347 1.232a1 1 0 0 1-.219.056q-.108.015-.233.015m6.875 2.01q-1.872 0-3.187-1.313-1.313-1.314-1.313-3.187t1.313-3.186T18.876.624t3.186 1.314 1.314 3.186-1.314 3.187q-1.312 1.313-3.186 1.313M18 19.615q-.666 0-1.14-.474A1.56 1.56 0 0 1 16.384 18q0-.666.474-1.14A1.56 1.56 0 0 1 18 16.384q.666 0 1.14.474.475.475.475 1.141t-.474 1.14a1.56 1.56 0 0 1-1.141.475m-.003-6q-.669 0-1.14-.474a1.56 1.56 0 0 1-.472-1.14q0-.125.015-.233.015-.107.056-.219.592.232 1.232.347a7.5 7.5 0 0 0 1.627.107 2 2 0 0 0 .3-.039q0 .678-.455 1.165t-1.163.487m.878-5.76a.46.46 0 0 0 .34-.14.46.46 0 0 0 .14-.34.46.46 0 0 0-.14-.34.46.46 0 0 0-.34-.14.46.46 0 0 0-.34.14.46.46 0 0 0-.14.34q0 .2.14.34t.34.14m-.442-1.922h.884v-3.5h-.884z"/></svg>