<svg xmlns="http://www.w3.org/2000/svg" width="24" height="24" viewBox="0 0 24 24" fill='currentColor'><path d="M7.25 8.75h9.5v-1.5h-9.5zM3.5 20.5v-17h17v7.239a4.24 4.24 0 0 0-1.525-1.413 4.14 4.14 0 0 0-2.033-.518q-1.25 0-2.292.66a4.4 4.4 0 0 0-1.606 1.782H7.25v1.5h5.275q-.07.587.029 1.164.098.577.35 1.125-.125.047-.245.096-.12.048-.236.115H7.25v1.5h3.704q-.485.54-.72 1.217A4.3 4.3 0 0 0 10 19.37v1.13zm8.692 0v-1.15q0-.532.274-.978t.773-.641a9.3 9.3 0 0 1 1.804-.548 9.9 9.9 0 0 1 3.779 0q.934.183 1.824.548.498.195.772.641t.274.978v1.15zm4.75-5q-.934 0-1.592-.658a2.17 2.17 0 0 1-.658-1.592q0-.935.658-1.592.659-.658 1.592-.658.935 0 1.593.658.657.657.657 1.592t-.657 1.592-1.593.658"/></svg>