<svg xmlns="http://www.w3.org/2000/svg" width="24" height="24" viewBox="0 0 24 24" fill='currentColor'><path d="M17.5 19.308q-.945 0-1.597-.653a2.17 2.17 0 0 1-.653-1.597q0-.944.652-1.598a2.17 2.17 0 0 1 1.598-.652q.258 0 .522.066t.536.23V9.923h3.192v1.77h-2v5.365q0 .945-.652 1.597a2.17 2.17 0 0 1-1.598.653m-6.75-7.616q-1.444 0-2.472-1.028T7.25 8.192t1.028-2.471 2.472-1.029 2.472 1.029 1.028 2.471-1.028 2.472-2.472 1.028m-7.5 7.616v-2.224q0-.75.399-1.368.4-.618 1.066-.954a14.5 14.5 0 0 1 3.001-1.096 13 13 0 0 1 4.89-.225q.904.134 1.8.411-1.178.981-1.454 2.535a4.14 4.14 0 0 0 .534 2.92z"/></svg>