<svg xmlns="http://www.w3.org/2000/svg" width="24" height="24" viewBox="0 0 24 24" fill='currentColor'><path d="M3.5 20.5v-17h6.258q.12-.843.744-1.421A2.13 2.13 0 0 1 12 1.5q.873 0 1.498.579.626.58.744 1.421H20.5v17zM12 4.346a.73.73 0 0 0 .75-.75.73.73 0 0 0-.75-.75.73.73 0 0 0-.75.75.73.73 0 0 0 .75.75m0 8.693q1.353 0 2.302-.948.948-.95.948-2.302 0-1.354-.948-2.302-.949-.95-2.302-.949-1.353 0-2.302.949-.948.948-.948 2.302t.948 2.302 2.302.948M5 19h14v-.958a10.1 10.1 0 0 0-3.137-2.087q-1.788-.763-3.863-.763-2.074 0-3.863.763A10.1 10.1 0 0 0 5 18.042z"/></svg>