<svg xmlns="http://www.w3.org/2000/svg" width="24" height="24" viewBox="0 0 24 24" fill='currentColor'><path d="M10.296 12.116a.85.85 0 0 0 .626-.26.85.85 0 0 0 .259-.625.85.85 0 0 0-.259-.626.85.85 0 0 0-.626-.259.85.85 0 0 0-.626.259.85.85 0 0 0-.258.626q0 .367.258.626a.85.85 0 0 0 .626.259m-3.392 0a.85.85 0 0 0 .626-.26.85.85 0 0 0 .258-.625.85.85 0 0 0-.258-.626.85.85 0 0 0-.626-.259.85.85 0 0 0-.626.259.85.85 0 0 0-.259.626q0 .367.259.626.257.258.626.259m6.8 0a.85.85 0 0 0 .626-.26.85.85 0 0 0 .258-.625.85.85 0 0 0-.258-.626.85.85 0 0 0-.626-.259.85.85 0 0 0-.626.259.85.85 0 0 0-.259.626q0 .367.259.626.258.258.626.259m3.392 0a.85.85 0 0 0 .626-.26.85.85 0 0 0 .259-.625.85.85 0 0 0-.259-.626.85.85 0 0 0-.626-.259.85.85 0 0 0-.626.259.85.85 0 0 0-.258.626q0 .367.258.626.259.258.626.259M12 19.73q-2.456 0-4.103-.314-1.647-.313-1.647-.779v-.907H2.5v-13h19v13h-3.75v.907q0 .465-1.647.78-1.647.313-4.103.313"/></svg>