<svg xmlns="http://www.w3.org/2000/svg" width="24" height="24" viewBox="0 0 24 24" fill='currentColor'><path d="M12 7.5q-1.444 0-2.472 1.028T8.5 11t1.028 2.472T12 14.5t2.472-1.028T15.5 11t-1.028-2.472T12 7.5m0 5.5q-.825 0-1.412-.588A1.93 1.93 0 0 1 10 11q0-.825.588-1.412A1.93 1.93 0 0 1 12 9q.825 0 1.412.588Q14 10.175 14 11t-.588 1.412A1.93 1.93 0 0 1 12 13m4 3.884q.378 0 .63-.254.255-.255.255-.63 0-.378-.255-.63a.86.86 0 0 0-.63-.254q-.378 0-.63.254a.86.86 0 0 0-.254.63q0 .378.254.63.255.255.63.255m-11.5 4.23V7q0-1.873 1.314-3.186Q7.126 2.5 9 2.5h6q1.873 0 3.186 1.314Q19.5 5.126 19.5 7v14.115zm1.5-1.5h12V18H6z"/></svg>