<svg xmlns="http://www.w3.org/2000/svg" width="24" height="24" viewBox="0 0 24 24" fill='currentColor'><path d="M6.462 19.327a2.62 2.62 0 0 1-1.921-.791 2.62 2.62 0 0 1-.791-1.92q0-1.13.791-1.921a2.6 2.6 0 0 1 1.92-.791q1.13 0 1.921.79.79.792.791 1.921 0 1.13-.79 1.921a2.62 2.62 0 0 1-1.921.79m11.077 0a2.62 2.62 0 0 1-1.921-.791 2.62 2.62 0 0 1-.791-1.92q0-1.13.79-1.921a2.62 2.62 0 0 1 1.921-.791q1.13 0 1.921.79.79.792.791 1.921 0 1.13-.791 1.921a2.62 2.62 0 0 1-1.92.79M12 10.097a2.62 2.62 0 0 1-1.92-.792 2.6 2.6 0 0 1-.791-1.92q0-1.13.79-1.921A2.62 2.62 0 0 1 12 4.674q1.13 0 1.92.79.792.79.791 1.92 0 1.13-.79 1.921a2.62 2.62 0 0 1-1.921.791"/></svg>