<svg xmlns="http://www.w3.org/2000/svg" width="24" height="24" viewBox="0 0 24 24" fill='currentColor'><path d="M8.356 17.587q-2.436 0-4.146-1.696T2.5 11.765q0-2.433 1.71-4.132 1.71-1.7 4.146-1.7h8.99q1.731 0 2.942 1.202 1.212 1.2 1.212 2.932T20.288 13q-1.21 1.202-2.942 1.202h-8.51a2.38 2.38 0 0 1-1.733-.707 2.33 2.33 0 0 1-.718-1.724q0-1.018.713-1.735a2.36 2.36 0 0 1 1.738-.719h8.78v1.5h-8.78a.93.93 0 0 0-.677.27.9.9 0 0 0-.275.672q0 .402.275.673.276.27.677.27h8.52q1.107-.015 1.876-.77.768-.753.768-1.865 0-1.105-.773-1.87a2.58 2.58 0 0 0-1.88-.764H8.355Q6.542 7.418 5.27 8.686 4.001 9.956 4 11.768q0 1.786 1.271 3.037 1.272 1.25 3.085 1.282h9.26v1.5z"/></svg>