<svg xmlns="http://www.w3.org/2000/svg" width="24" height="24" viewBox="0 0 24 24" fill='currentColor'><path d="m6.2 21.635 1.254-2.82q-.39-.284-.747-.576a7 7 0 0 1-.688-.639q-.18.075-.363.112a2 2 0 0 1-.379.038q-.767 0-1.316-.549a1.8 1.8 0 0 1-.55-1.317q0-.45.199-.84.198-.389.544-.644a6 6 0 0 1-.285-1.162A9 9 0 0 1 3.785 12q0-.65.084-1.238.085-.587.285-1.162a1.8 1.8 0 0 1-.544-.644 1.8 1.8 0 0 1-.198-.84q0-.768.549-1.317a1.8 1.8 0 0 1 1.316-.549 1.9 1.9 0 0 1 .742.15 7.8 7.8 0 0 1 1.878-1.505A8.5 8.5 0 0 1 10.15 4q.106-.693.64-1.164a1.8 1.8 0 0 1 1.226-.47q.692 0 1.225.469t.64 1.146q1.22.29 2.272.887A7.9 7.9 0 0 1 18.03 6.35q.18-.075.346-.103a2 2 0 0 1 .346-.028q.767 0 1.317.55.549.548.549 1.316 0 .451-.191.824-.19.374-.521.63.2.59.285 1.2.084.611.084 1.261t-.084 1.262a6 6 0 0 1-.285 1.188q.321.255.507.62.185.363.185.814 0 .768-.549 1.317a1.8 1.8 0 0 1-1.316.549q-.18 0-.346-.033a2.4 2.4 0 0 1-.346-.098q-.33.348-.67.655a7 7 0 0 1-.765.591l1.204 2.77h-1.427l-.931-2.143a8 8 0 0 1-1.542.527q-.105.678-.64 1.146-.533.47-1.226.47-.692 0-1.226-.472A1.9 1.9 0 0 1 10.15 20a7.5 7.5 0 0 1-1.573-.527l-.95 2.162zm1.688-3.87 1.762-3.942a3 3 0 0 1-.468-.846A2.9 2.9 0 0 1 9.015 12q0-1.223.889-2.112Q10.792 9 12.015 9t2.112.888q.888.89.888 2.112 0 .514-.183.997-.184.483-.501.876l1.761 3.912q.283-.21.544-.42.26-.211.498-.484a1.3 1.3 0 0 1-.23-.466 2 2 0 0 1-.066-.53q0-.8.594-1.351.593-.552 1.364-.495.15-.5.235-.998.084-.497.085-1.041 0-.544-.085-1.057a8 8 0 0 0-.235-1.012q-.771.056-1.355-.496a1.8 1.8 0 0 1-.583-1.35q0-.255.086-.496.087-.24.21-.45a7 7 0 0 0-1.614-1.26 8.2 8.2 0 0 0-1.894-.779 1.79 1.79 0 0 1-1.63.996 1.79 1.79 0 0 1-1.632-.996 8 8 0 0 0-1.924.787A7 7 0 0 0 6.847 7.17q.123.21.21.451.086.241.086.495 0 .81-.578 1.344a1.8 1.8 0 0 1-1.349.502 7 7 0 0 0-.3 2.039 7 7 0 0 0 .3 2.039q.752-.057 1.34.49.587.546.587 1.355 0 .274-.066.506t-.23.44q.239.274.5.49.26.216.542.445m1.154.658q.315.154.65.268t.692.209a1.79 1.79 0 0 1 1.631-.996 1.79 1.79 0 0 1 1.631.996q.348-.095.663-.199t.63-.259l-1.662-3.73q-.29.135-.601.211a2.7 2.7 0 0 1-.66.077q-.366 0-.694-.085a2.4 2.4 0 0 1-.618-.253z"/></svg>