<svg xmlns="http://www.w3.org/2000/svg" width="24" height="24" viewBox="0 0 24 24" fill='currentColor'><path d="M1.308 16.692v-3h9.142L2.942 7.773v3.17h-1.5v-5.5h.693l11.557 6.376V4.692h4.27l4.73 5.674v6.326h-2.365q.163 1.173-.625 2.087-.789.913-2.01.913t-2.01-.913q-.788-.915-.624-2.087H8.827q.163 1.173-.625 2.087-.789.913-2.01.913t-2.01-.913q-.788-.915-.624-2.087zM6.192 18.5q.65 0 1.075-.434.426-.435.425-1.066 0-.63-.425-1.065-.424-.435-1.075-.435-.65 0-1.075.434-.425.435-.425 1.066 0 .63.425 1.066.426.434 1.075.434m11.5 0q.65 0 1.075-.434.425-.435.425-1.066 0-.63-.425-1.065-.424-.435-1.075-.435-.65 0-1.075.434-.425.435-.425 1.066 0 .63.425 1.066.426.434 1.075.434m-2.5-8.134h5.554l-3.504-4.174h-2.05z"/></svg>