<svg xmlns="http://www.w3.org/2000/svg" width="24" height="24" viewBox="0 0 24 24" fill='currentColor'><path d="M11.98 19.365a9.8 9.8 0 0 0-2.6-1.378A8.7 8.7 0 0 0 6.5 17.5q-1.33 0-2.58.38-1.25.382-2.42 1.016V5.838a7.8 7.8 0 0 1 2.391-1.027A11 11 0 0 1 6.5 4.5q1.46 0 2.85.414 1.39.413 2.65 1.163v11.484a9.9 9.9 0 0 1 2.633-1.172A10.6 10.6 0 0 1 17.5 16q.9 0 1.775.15t1.725.46V5.12q.4.135.783.303.382.168.717.415v13.058a13 13 0 0 0-2.42-1.015 9.1 9.1 0 0 0-5.49.091q-1.41.473-2.61 1.393M14 15V6l5-5v9.5z"/></svg>