<svg xmlns="http://www.w3.org/2000/svg" width="24" height="24" viewBox="0 0 24 24" fill='currentColor'><path d="M4.126 20.5a2.65 2.65 0 0 1-1.948-.802 2.65 2.65 0 0 1-.803-1.948q0-.936.567-1.668.568-.732 1.433-.965V8.883a2.64 2.64 0 0 1-1.433-.965 2.65 2.65 0 0 1-.567-1.668q0-1.146.802-1.948A2.65 2.65 0 0 1 4.124 3.5q1.146 0 1.948.802a2.65 2.65 0 0 1 .803 1.948q0 .936-.567 1.668-.568.732-1.433.965v2.367h6.375V8.883a2.64 2.64 0 0 1-1.433-.965A2.65 2.65 0 0 1 9.25 6.25q0-1.146.802-1.948a2.65 2.65 0 0 1 1.947-.802q1.145 0 1.948.802t.803 1.948q0 .936-.567 1.668-.568.732-1.433.965v2.367h6.385V8.883a2.64 2.64 0 0 1-1.433-.965 2.65 2.65 0 0 1-.567-1.668q0-1.146.801-1.948a2.65 2.65 0 0 1 1.948-.802q1.144 0 1.948.802.802.802.802 1.948 0 .936-.567 1.668t-1.433.965v3.867H12.75v2.367a2.64 2.64 0 0 1 1.433.965 2.65 2.65 0 0 1 .567 1.668q0 1.146-.802 1.948a2.65 2.65 0 0 1-1.947.802 2.65 2.65 0 0 1-1.948-.802 2.65 2.65 0 0 1-.803-1.948q0-.936.567-1.668.568-.732 1.433-.965V12.75H4.875v2.367a2.64 2.64 0 0 1 1.433.965 2.65 2.65 0 0 1 .567 1.668q0 1.146-.802 1.948a2.65 2.65 0 0 1-1.947.802"/></svg>