<svg xmlns="http://www.w3.org/2000/svg" width="24" height="24" viewBox="0 0 24 24" fill='currentColor'><path d="M12 22.5q-2.924 0-5.312-1.45a10.3 10.3 0 0 1-3.738-3.9v2h-1.5v-4.5h4.5v1.5H4.125q1.075 2.2 3.2 3.525T12 21a8.8 8.8 0 0 0 3.438-.675 9 9 0 0 0 2.825-1.85A9 9 0 0 0 20.2 15.7a9.2 9.2 0 0 0 .8-3.45h1.5a10.1 10.1 0 0 1-.9 3.988 11 11 0 0 1-2.263 3.262 10.4 10.4 0 0 1-3.299 2.2q-1.889.8-4.038.8M7.45 4.25 6.775 2.9q1.2-.7 2.475-1.05T12 1.5q2.9 0 5.312 1.462a10.15 10.15 0 0 1 3.738 3.913V4.85h1.5v4.5h-4.5v-1.5h1.825q-1.05-2.15-3.175-3.5T12 3q-1.275 0-2.4.337-1.125.338-2.15.913M4 11.4 2.95 9.05.6 8l2.35-1.05L4 4.6l1.05 2.35L7.4 8 5.05 9.05zM7.975 16l3.475-9h1.1l3.475 9h-1.25l-.925-2.45h-3.675L9.25 16zm2.575-3.5h2.9l-1.4-3.9h-.1z"/></svg>