<svg xmlns="http://www.w3.org/2000/svg" width="24" height="24" viewBox="0 0 24 24" fill='currentColor'><path d="M5.5 20.5V6h-1V4.5H9v-.885h6V4.5h4.5V6h-1v4.271a5.5 5.5 0 0 0-.741-.14 6 6 0 0 0-.759-.054q-.537 0-1.186.112a6 6 0 0 0-1.141.297V8h-1.5v3.23q-.705.468-1.35 1.219-.646.75-.996 1.509V8h-1.5v9h.75q0 .849.273 1.818.273.968.708 1.682zm11.498 1.423q-2.044 0-3.483-1.44-1.438-1.442-1.438-3.485t1.44-3.483q1.442-1.438 3.485-1.438t3.483 1.44q1.438 1.442 1.438 3.485t-1.44 3.483q-1.442 1.438-3.485 1.438m1.652-2.65.623-.623-1.83-1.827v-2.765h-.885v3.123z"/></svg>