<svg xmlns="http://www.w3.org/2000/svg" width="24" height="24" viewBox="0 0 24 24" fill='currentColor'><path d="M6.164 20.5a3.54 3.54 0 0 1-2.59-1.07A3.5 3.5 0 0 1 2.5 16.847q0-1.506 1.074-2.58a3.53 3.53 0 0 1 2.59-1.074q.55 0 1.04.152t.906.422l2.836-2.852L8.144 8.07a2.6 2.6 0 0 1-.6-.891 2.6 2.6 0 0 1-.188-.972q0-1.05.743-1.879.742-.83 1.959-.829h3.884q1.216 0 1.954.829.738.83.738 1.879 0 .501-.188.989a2.6 2.6 0 0 1-.6.9l-2.792 2.817 2.811 2.851a3.2 3.2 0 0 1 .919-.429 3.8 3.8 0 0 1 1.053-.144 3.53 3.53 0 0 1 2.589 1.074q1.074 1.074 1.074 2.58 0 1.515-1.074 2.585a3.54 3.54 0 0 1-2.59 1.069q-1.524 0-2.598-1.07a3.5 3.5 0 0 1-1.074-2.584q0-.55.164-1.065.165-.516.468-.972L12 11.984 9.204 14.82q.303.456.468.966.165.512.164 1.061 0 1.515-1.078 2.585A3.55 3.55 0 0 1 6.164 20.5M10.058 5q-.537 0-.865.362a1.2 1.2 0 0 0-.243 1.273q.084.213.264.392L12 9.844l2.787-2.802q.179-.178.263-.4.084-.22.085-.45 0-.467-.328-.83T13.942 5z"/></svg>