<svg xmlns="http://www.w3.org/2000/svg" width="24" height="24" viewBox="0 0 24 24" fill='currentColor'><path d="M12 20.5a8.2 8.2 0 0 1-3.298-.67 8.6 8.6 0 0 1-2.706-1.826 8.6 8.6 0 0 1-1.827-2.706A8.2 8.2 0 0 1 3.5 12q0-1.032.23-1.993a8.4 8.4 0 0 1 1.685-3.39q.6-.73 1.339-1.317l6.454 6.454-1.054 1.054-5.4-5.4A7.8 7.8 0 0 0 5.492 9.44Q5 10.58 5 12q0 2.9 2.05 4.95T12 19t4.95-2.05T19 12q0-2.646-1.736-4.632-1.737-1.985-4.514-2.307V7h-1.5V3.5H12q1.749 0 3.298.67a8.6 8.6 0 0 1 2.706 1.826 8.6 8.6 0 0 1 1.827 2.706A8.2 8.2 0 0 1 20.5 12a8.2 8.2 0 0 1-.67 3.298 8.6 8.6 0 0 1-1.826 2.706 8.6 8.6 0 0 1-2.706 1.827A8.2 8.2 0 0 1 12 20.5m-5-7.616a.85.85 0 0 1-.63-.254.86.86 0 0 1-.255-.63q0-.378.255-.63.255-.255.63-.254.378 0 .63.254.255.255.255.63 0 .378-.255.63a.86.86 0 0 1-.63.254m5 5a.85.85 0 0 1-.63-.254.86.86 0 0 1-.254-.63q0-.378.254-.63.255-.255.63-.255.378 0 .63.255.255.255.254.63 0 .378-.254.63a.86.86 0 0 1-.63.255m5-5a.85.85 0 0 1-.63-.254.86.86 0 0 1-.255-.63q0-.378.255-.63.255-.255.63-.254.378 0 .63.254.255.255.255.63 0 .378-.255.63a.86.86 0 0 1-.63.254"/></svg>