<svg xmlns="http://www.w3.org/2000/svg" width="24" height="24" viewBox="0 0 24 24" fill='currentColor'><path d="M3 14.5a.48.48 0 0 1-.35-.15.48.48 0 0 1 0-.7.48.48 0 0 1 .7 0 .48.48 0 0 1 0 .7.48.48 0 0 1-.35.15m0-4a.48.48 0 0 1-.35-.15.48.48 0 0 1 0-.7.48.48 0 0 1 .7 0 .48.48 0 0 1 0 .7.48.48 0 0 1-.35.15m3 8.423a.9.9 0 0 1-.658-.265.9.9 0 0 1-.265-.658q0-.392.265-.658A.9.9 0 0 1 6 17.077q.392 0 .658.265a.9.9 0 0 1 .265.658q0 .392-.265.658a.9.9 0 0 1-.658.265m0-4a.9.9 0 0 1-.658-.265.9.9 0 0 1-.265-.658q0-.391.265-.658A.9.9 0 0 1 6 13.077q.392 0 .658.265a.9.9 0 0 1 .265.658q0 .391-.265.658a.9.9 0 0 1-.658.265m0-4a.9.9 0 0 1-.658-.265.9.9 0 0 1-.265-.658q0-.392.265-.658A.9.9 0 0 1 6 9.077q.392 0 .658.265a.9.9 0 0 1 .265.658q0 .391-.265.658a.9.9 0 0 1-.658.265m0-4a.9.9 0 0 1-.658-.265A.9.9 0 0 1 5.077 6q0-.392.265-.658A.9.9 0 0 1 6 5.077q.392 0 .658.265A.9.9 0 0 1 6.923 6q0 .392-.265.658A.9.9 0 0 1 6 6.923m4 12a.9.9 0 0 1-.658-.265.9.9 0 0 1-.265-.658q0-.392.265-.658a.9.9 0 0 1 .658-.265q.391 0 .658.265a.9.9 0 0 1 .265.658q0 .392-.265.658a.9.9 0 0 1-.658.265m0-12a.9.9 0 0 1-.658-.265A.9.9 0 0 1 9.077 6q0-.392.265-.658A.9.9 0 0 1 10 5.077q.391 0 .658.265a.9.9 0 0 1 .265.658q0 .392-.265.658a.9.9 0 0 1-.658.265M10 21.5a.48.48 0 0 1-.35-.15.48.48 0 0 1 0-.7.48.48 0 0 1 .7 0 .48.48 0 0 1 0 .7.48.48 0 0 1-.35.15m0-18a.48.48 0 0 1-.35-.15.48.48 0 0 1 0-.7.48.48 0 0 1 .7 0 .48.48 0 0 1 0 .7.48.48 0 0 1-.35.15m4 15.423a.9.9 0 0 1-.658-.265.9.9 0 0 1-.265-.658q0-.392.265-.658a.9.9 0 0 1 .658-.265q.391 0 .658.265a.9.9 0 0 1 .265.658q0 .392-.265.658a.9.9 0 0 1-.658.265m0-12a.9.9 0 0 1-.658-.265.9.9 0 0 1-.265-.658q0-.392.265-.658A.9.9 0 0 1 14 5.077q.391 0 .658.265a.9.9 0 0 1 .265.658q0 .392-.265.658a.9.9 0 0 1-.658.265M14 21.5a.48.48 0 0 1-.35-.15.48.48 0 0 1 0-.7.48.48 0 0 1 .7 0 .48.48 0 0 1 0 .7.48.48 0 0 1-.35.15m0-18a.48.48 0 0 1-.35-.15.48.48 0 0 1 0-.7.48.48 0 0 1 .7 0 .48.48 0 0 1 0 .7.48.48 0 0 1-.35.15m4 15.423a.9.9 0 0 1-.658-.265.9.9 0 0 1-.265-.658q0-.392.265-.658a.9.9 0 0 1 .658-.265q.392 0 .658.265a.9.9 0 0 1 .265.658q0 .392-.265.658a.9.9 0 0 1-.658.265m0-4a.9.9 0 0 1-.658-.265.9.9 0 0 1-.265-.658q0-.391.265-.658a.9.9 0 0 1 .658-.265q.392 0 .658.265a.9.9 0 0 1 .265.658q0 .391-.265.658a.9.9 0 0 1-.658.265m0-4a.9.9 0 0 1-.658-.265.9.9 0 0 1-.265-.658q0-.392.265-.658A.9.9 0 0 1 18 9.077q.392 0 .658.265a.9.9 0 0 1 .265.658q0 .391-.265.658a.9.9 0 0 1-.658.265m0-4a.9.9 0 0 1-.658-.265.9.9 0 0 1-.265-.658q0-.392.265-.658A.9.9 0 0 1 18 5.077q.392 0 .658.265a.9.9 0 0 1 .265.658q0 .392-.265.658a.9.9 0 0 1-.658.265m3 7.577a.48.48 0 0 1-.35-.15.48.48 0 0 1 0-.7.48.48 0 0 1 .7 0 .48.48 0 0 1 0 .7.48.48 0 0 1-.35.15m0-4a.48.48 0 0 1-.35-.15.48.48 0 0 1 0-.7.48.48 0 0 1 .7 0 .48.48 0 0 1 0 .7.48.48 0 0 1-.35.15M8.346 15.654v-.358q0-1.175 1.15-1.658A6.4 6.4 0 0 1 12 13.154q1.356 0 2.505.483 1.149.484 1.149 1.66v.357zM12 11.846q-.729 0-1.24-.51-.51-.51-.51-1.24 0-.729.51-1.24.511-.51 1.24-.51t1.24.51.51 1.24-.51 1.24q-.511.51-1.24.51"/></svg>