<svg xmlns="http://www.w3.org/2000/svg" width="24" height="24" viewBox="0 0 24 24" fill='currentColor'><path d="M3.5 9.352V7.66l4.544-4.545h1.692zm0-4.487V3.404l.289-.289H5.25zM15.598 6.32a8 8 0 0 0-.451-.408q-.24-.2-.482-.351l2.445-2.445h1.692zm-10.56 8.868 2.522-2.522q.146.246.29.443.144.195.321.367l-.721.721q-.585.156-1.216.414-.63.257-1.195.577m12.03-5.83v-.03a4.3 4.3 0 0 0-.31-1.358L20.5 4.227v1.698zm-6.341-4.392 1.865-1.85h1.692L12.532 4.87a3.3 3.3 0 0 0-.646-.061 5 5 0 0 0-.58.053q-.303.045-.578.104M3.5 13.885v-1.693l3.465-3.465q-.069.294-.108.583-.04.29-.04.565a3.2 3.2 0 0 0 .062.63zm16.08 1.988a5 5 0 0 0-.414-.407 5 5 0 0 0-.485-.37l1.819-1.82v1.693zm-2.447-2.07a2 2 0 0 0-.134-.233q-.074-.11-.153-.218a6 6 0 0 0-.212-.266 2.4 2.4 0 0 0-.23-.24L20.5 8.734v1.718zM12 13.5q-1.448 0-2.474-1.026A3.37 3.37 0 0 1 8.5 10q0-1.448 1.026-2.474A3.37 3.37 0 0 1 12 6.5q1.448 0 2.474 1.026A3.37 3.37 0 0 1 15.5 10q0 1.448-1.026 2.474A3.37 3.37 0 0 1 12 13.5m-7.5 7v-1.592q0-.773.401-1.388.4-.614 1.064-.95 1.246-.622 2.773-1.038A12.4 12.4 0 0 1 12 15.116q1.737 0 3.262.416 1.527.416 2.773 1.037.654.327 1.06.951.405.624.405 1.388V20.5z"/></svg>