<svg xmlns="http://www.w3.org/2000/svg" width="24" height="24" viewBox="0 0 24 24" fill='currentColor'><path d="M2.5 20.5V19h8.75V7.883a2.63 2.63 0 0 1-1.187-.671Q9.553 6.717 9.367 6h-3.31L9 13.106q-.03 1.125-.977 1.913-.948.789-2.273.789t-2.273-.789-.977-1.913L5.442 6H3.5V4.5h5.867q.233-.855.955-1.428A2.62 2.62 0 0 1 12 2.5q.956 0 1.678.572t.955 1.428H20.5V6h-1.942l2.942 7.106q-.03 1.125-.977 1.913-.948.789-2.273.789t-2.273-.789T15 13.106L17.942 6h-3.31a2.55 2.55 0 0 1-.694 1.212 2.63 2.63 0 0 1-1.188.67V19h8.75v1.5zm13.808-7.442h3.884L18.25 8.37zm-12.5 0h3.884L5.75 8.37zM12 6.5q.522 0 .886-.364t.364-.886-.364-.886A1.2 1.2 0 0 0 12 4q-.522 0-.886.364a1.2 1.2 0 0 0-.364.886q0 .522.364.886.364.363.886.364"/></svg>