<svg xmlns="http://www.w3.org/2000/svg" width="24" height="24" viewBox="0 0 24 24" fill='currentColor'><path d="M8.116 11.885v-1.77h1.768v1.77zm6 0v-1.77h1.768v1.77zM3.5 21.5v-7.289h1V10q0-1.554.587-2.92a7.6 7.6 0 0 1 1.606-2.387 7.5 7.5 0 0 1 2.39-1.606A7.3 7.3 0 0 1 12 2.5q1.554 0 2.92.587 1.367.586 2.387 1.606a7.6 7.6 0 0 1 1.607 2.387q.585 1.366.586 2.92v4.211h1V21.5zM5 20h2.25v-4.289H5zm3.75 0h2.5v-4.289h-2.5zM6 14.211h5.25V4.057q-2.14.234-3.695 1.897Q6 7.615 6 10zm6.75 0H18V10q0-2.385-1.555-4.047T12.75 4.056zm0 5.789h2.5v-4.289h-2.5zm4 0H19v-4.289h-2.25z"/></svg>