<svg xmlns="http://www.w3.org/2000/svg" width="24" height="24" viewBox="0 0 24 24" fill='currentColor'><path d="M7.058 9.529q-.73 0-1.24-.511-.51-.51-.51-1.23 0-.725.51-1.242t1.24-.517q.729 0 1.239.516.51.515.51 1.239 0 .723-.51 1.234-.51.51-1.24.511M4.308 21.5v-1.02H2.5v-7.057h2.808v-.76q0-.862.597-1.47a1.97 1.97 0 0 1 1.46-.607q.482 0 .896.205.416.205.747.555l1.207 1.367q.2.204.388.38.187.178.412.33H18V5.119a1.1 1.1 0 0 0-.312-.787 1 1 0 0 0-1.15-.245 1.2 1.2 0 0 0-.342.24l-1.25 1.264q.125.43.05.848a2.2 2.2 0 0 1-.3.776l-2.404-2.453q.351-.229.75-.292a1.54 1.54 0 0 1 .8.089l1.25-1.267q.367-.372.838-.582t.999-.21q1.082 0 1.827.763.744.762.744 1.856v8.304h2v7.058h-1.808V21.5z"/></svg>