<svg xmlns="http://www.w3.org/2000/svg" width="24" height="24" viewBox="0 0 24 24" fill='currentColor'><path d="M19.087 10.144q-.639 0-1.089-.453-.45-.452-.45-1.091t.45-1.084a1.5 1.5 0 0 1 1.088-.445q.639 0 1.084.445t.445 1.084q0 .64-.445 1.091a1.46 1.46 0 0 1-1.084.453m-14.173 0q-.639 0-1.084-.453A1.5 1.5 0 0 1 3.385 8.6q0-.639.445-1.084a1.48 1.48 0 0 1 1.084-.445q.638 0 1.088.445t.45 1.084q0 .64-.45 1.091-.45.453-1.088.453m3.78-1.183q.212-.816.06-1.465-.151-.648-.696-1.292-.753-.892-.997-1.818-.246-.924-.019-2.098h1.199q-.156 1.037 0 1.765.157.727.692 1.378.75.902.976 1.73t-.001 1.8zm2.904 0q.211-.825.06-1.475-.153-.648-.697-1.292-.742-.893-.987-1.812-.246-.92-.018-2.094h1.198q-.172 1.068-.007 1.78.165.713.7 1.363.75.902.976 1.73t-.002 1.8zm2.913 0q.212-.825.06-1.475-.152-.648-.696-1.292-.742-.893-.988-1.812-.245-.92-.018-2.094h1.198q-.17 1.068-.007 1.78.165.713.7 1.363.75.902.976 1.73t-.002 1.8zM2.5 17.308V13.5h.885v-.625q0-.708.494-1.21.495-.501 1.202-.501.39 0 .738.182.348.183.614.458l1.48 1.696h8.174l1.48-1.696a2.4 2.4 0 0 1 .614-.458q.348-.183.738-.182.708 0 1.202.502.494.501.494 1.209v.625h.885v3.808zm0 4.192v-2.692h19V21.5z"/></svg>