<svg xmlns="http://www.w3.org/2000/svg" width="24" height="24" viewBox="0 0 24 24" fill='currentColor'><path d="M6.039 11.708v1.729q-.501.35-.75.727-.25.376-.25.72 0 .121.023.238a.8.8 0 0 0 .094.238l.508.246 2.72.269.16.434 1.12-.434h3.692l.696.912 2.637-.4 1.023-1.454h1.25v-.049q0-.344-.25-.72-.25-.378-.75-.727v-1.73q1.209.639 1.854 1.467t.646 1.72a.2.2 0 0 1-.005.043.2.2 0 0 0-.005.044l.856 1.278-.904 2.693h-2.985l.11.519-2.25.904h-6.5l-.24-.64-2.645.63-3.211-2.298v-2.23l.915-.458a1.5 1.5 0 0 1-.047-.242 2 2 0 0 1-.012-.243q0-.892.645-1.72.645-.827 1.855-1.466m1.317 1.33q.096-.327.14-.601.042-.276.043-.598 0-.799-.375-1.368t-.85-1.185a7.5 7.5 0 0 1-.889-1.469Q5.09 7.07 5.09 6.013q0-.326.028-.689.027-.363.108-.786h1.516a7 7 0 0 0-.125.787 7 7 0 0 0-.027.613q0 .954.387 1.59t.838 1.247q.546.725.885 1.421.34.696.34 1.693 0 .291-.036.575-.036.282-.116.575zm3.711 0q.097-.327.14-.601.043-.276.043-.598 0-.799-.375-1.368t-.85-1.185a7.5 7.5 0 0 1-.888-1.469Q8.8 7.07 8.8 6.013q0-.326.028-.689t.109-.786h1.515q-.096.46-.137.787-.04.327-.04.613 0 .954.388 1.59.387.637.837 1.247.547.725.886 1.421.34.696.34 1.693 0 .291-.024.575a3 3 0 0 1-.104.575zm3.712 0q.095-.327.14-.601.043-.276.043-.598 0-.799-.375-1.368-.376-.57-.85-1.185a7.4 7.4 0 0 1-.889-1.469q-.336-.747-.336-1.804 0-.326.028-.689a7 7 0 0 1 .108-.786h1.516q-.097.46-.137.787t-.04.613q0 .954.387 1.59.388.637.838 1.247.546.725.885 1.421.34.696.34 1.693 0 .291-.023.575a3 3 0 0 1-.104.575z"/></svg>