<svg xmlns="http://www.w3.org/2000/svg" width="24" height="24" viewBox="0 0 24 24" fill='currentColor'><path d="M16.439 19.335q0-.321.017-.63t.176-.589q.228-.396.585-.673.358-.277.612-.645.069-.092.169-.532a.81.81 0 0 0-.303-.65 1.05 1.05 0 0 0-.695-.255q-.396 0-.687.256-.292.255-.417.652l-1.013-.436q.23-.693.805-1.11.576-.415 1.312-.415.852 0 1.485.553.632.553.632 1.383 0 .246-.065.47a1.3 1.3 0 0 1-.205.41q-.256.375-.598.658-.34.283-.555.68-.142.255-.142.872zM17 21.691a.77.77 0 0 1-.552-.22.73.73 0 0 1-.23-.547.74.74 0 0 1 .23-.546.76.76 0 0 1 .551-.227q.323 0 .545.228a.76.76 0 0 1 .223.547.74.74 0 0 1-.22.542.74.74 0 0 1-.547.223M8.346 21.5a.87.87 0 0 1-.644-.26.87.87 0 0 1-.26-.644V5.144q0-.383.26-.644a.88.88 0 0 1 .644-.26h1.808V2.5h3.692v1.74h1.81q.384 0 .643.26a.88.88 0 0 1 .259.644v6.952q-2.317.15-3.918 1.83t-1.601 4.045q0 .996.313 1.896t.894 1.633z"/></svg>