<svg xmlns="http://www.w3.org/2000/svg" width="24" height="24" viewBox="0 0 24 24" fill='currentColor'><path d="M19.506 20.539 13.31 14.36l1.053-1.053 6.197 6.196zm-13.515-.97q-2.202-2.41-2.476-5.567-.275-3.156 1.368-5.829-.07.908.199 1.98.268 1.072.799 2.204.53 1.131 1.28 2.268.749 1.137 1.61 2.163zM9.8 15.76a13 13 0 0 1-1.903-2.52q-.78-1.35-1.181-2.608-.402-1.258-.383-2.283t.525-1.53q.505-.522 1.53-.54 1.026-.015 2.286.39 1.26.406 2.606 1.2a13.6 13.6 0 0 1 2.507 1.905zm7.015-7.015a21 21 0 0 0-2.129-1.585 21 21 0 0 0-2.24-1.277q-1.116-.543-2.182-.834-1.068-.29-1.966-.23 2.673-1.56 5.792-1.269 3.12.29 5.5 2.42z"/></svg>