<svg xmlns="http://www.w3.org/2000/svg" width="24" height="24" viewBox="0 0 24 24" fill='currentColor'><path d="M12 17.846a9.6 9.6 0 0 0 3.67-.716 9.9 9.9 0 0 0 3.118-2.03l-.838-.838q-.255.256-.542.477a7 7 0 0 1-.616.422l-.965-1.68v-2.442h1.096v-.885h-5.62l-1.75-3H6.5l.77.577-1.5 1.75.757.808L8.192 9.21v4.25l-.984 1.7a9 9 0 0 1-.63-.436 5 5 0 0 1-.528-.463l-.838.838a9.9 9.9 0 0 0 3.118 2.03 9.6 9.6 0 0 0 3.67.716m0-1.192a9.2 9.2 0 0 1-1.89-.197 7.3 7.3 0 0 1-1.871-.68l.984-1.72q.708.27 1.4.397a7.6 7.6 0 0 0 2.762 0q.684-.127 1.392-.396l.985 1.719a9 9 0 0 1-1.872.66 8.4 8.4 0 0 1-1.89.217M2.5 21.5v-19h19v19z"/></svg>