<svg xmlns="http://www.w3.org/2000/svg" width="24" height="24" viewBox="0 0 24 24" fill='currentColor'><path d="M.115 18.75v-1.5h4.312a5.4 5.4 0 0 1 1.417-3.033q1.19-1.294 2.86-1.66L7.167 5.75H3.365v-1.5h5.008l2.166 9.635H10q-1.708 0-2.921 1.213-1.215 1.214-1.214 2.921v.731zM10 20.77a2.65 2.65 0 0 1-1.947-.804 2.65 2.65 0 0 1-.803-1.947q0-1.145.803-1.947A2.65 2.65 0 0 1 10 15.27q1.145 0 1.947.803.803.802.803 1.947a2.65 2.65 0 0 1-.803 1.947A2.65 2.65 0 0 1 10 20.77m9.116-3.04q-1.772 0-3.076-1.102t-1.613-2.878h-2.523l-.335-1.5h2.858q.106-.633.424-1.349a3 3 0 0 1 .899-1.17h-4.727l-.335-1.5h5.843l-1.417-3.866H12.58v-1.5h3.602l1.96 5.335h.973q1.988 0 3.369 1.38 1.38 1.381 1.38 3.37t-1.404 3.386q-1.405 1.395-3.345 1.395m-.847-4.707 1.42-.527-1.02-2.708-1.369.527z"/></svg>