<svg xmlns="http://www.w3.org/2000/svg" width="24" height="24" viewBox="0 0 24 24" fill='currentColor'><path d="M17.827 20q.892 0 1.528-.636.636-.635.636-1.537t-.636-1.538a2.08 2.08 0 0 0-1.528-.635 2.1 2.1 0 0 0-1.543.636q-.64.635-.64 1.537t.64 1.537a2.1 2.1 0 0 0 1.543.636m0 1.5a3.54 3.54 0 0 1-2.599-1.074 3.54 3.54 0 0 1-1.074-2.599q0-1.515 1.074-2.594a3.53 3.53 0 0 1 2.599-1.08q1.515 0 2.594 1.08 1.08 1.079 1.079 2.594 0 1.525-1.079 2.599-1.08 1.074-2.594 1.074M14.913 8.346q-.609 0-1.045-.436a1.43 1.43 0 0 1-.435-1.045q0-.609.435-1.045t1.046-.435 1.045.435.435 1.045-.435 1.045q-.436.436-1.045.436m-3.672 10.462v-3.685l-2.345-1.944a1.66 1.66 0 0 1-.591-1.244 1.59 1.59 0 0 1 .536-1.277l1.923-1.877q.498-.49 1.207-.49.71-.003 1.208.505l1.277 1.17q.832.74 1.684 1.002a5.7 5.7 0 0 0 1.697.263v1.5a6.7 6.7 0 0 1-4.9-2.13l-.164-.165-2.08 2.035 2.047 2.038v4.299zM6.173 20q.902 0 1.537-.636.636-.635.636-1.537t-.636-1.538a2.1 2.1 0 0 0-1.537-.635q-.902 0-1.537.636A2.1 2.1 0 0 0 4 17.827q0 .902.636 1.537Q5.27 20 6.173 20M4.467 8.01l3.21-3.21-.823-.838-2.362 2.361-1-.99-.838.853zM6.173 21.5q-1.515 0-2.594-1.074A3.53 3.53 0 0 1 2.5 17.827q0-1.515 1.079-2.594 1.08-1.08 2.594-1.08 1.525 0 2.599 1.08 1.074 1.079 1.074 2.594a3.54 3.54 0 0 1-1.074 2.599A3.54 3.54 0 0 1 6.173 21.5m-1-10.788q-1.61-.397-2.641-1.82A5.3 5.3 0 0 1 1.5 5.694V2.925L5.173 1.5l3.673 1.425v2.77q0 1.775-1.032 3.197-1.031 1.423-2.641 1.82"/></svg>