<svg xmlns="http://www.w3.org/2000/svg" width="24" height="24" viewBox="0 0 24 24" fill='currentColor'><path d="M4.25 20.5a2.65 2.65 0 0 1-1.948-.802A2.65 2.65 0 0 1 1.5 17.75V6.25q0-1.146.802-1.948A2.65 2.65 0 0 1 4.25 3.5h7.5q1.146 0 1.948.802T14.5 6.25v6.3h1.327q.729 0 1.24.51.51.511.51 1.24v3.123q0 .325.232.557t.556.232a.76.76 0 0 0 .557-.232.76.76 0 0 0 .232-.557V10.75q-.787 0-1.336-.549a1.82 1.82 0 0 1-.549-1.336V6.25h.885V4.442h1.192V6.25h1.116V4.442h1.192V6.25h.884v2.615q0 .787-.549 1.336a1.82 1.82 0 0 1-1.335.549v6.611q0 .954-.668 1.622a2.2 2.2 0 0 1-1.62.667 2.2 2.2 0 0 1-1.622-.667 2.2 2.2 0 0 1-.667-1.622v-3.103a.3.3 0 0 0-.087-.221.3.3 0 0 0-.22-.087H14.5v4.608q0-1.45-1.001-2.447-1-.995-2.441-.995h-4.77q-.88 0-1.488.607a2.02 2.02 0 0 0-.608 1.489q0 .88.608 1.488t1.489.608h4.769q.318 0 .534-.216a.73.73 0 0 0 .216-.535.73.73 0 0 0-.216-.534.73.73 0 0 0-.534-.215h-4.77a.57.57 0 0 1-.422-.174.57.57 0 0 1-.174-.422q0-.249.174-.422a.57.57 0 0 1 .423-.175h4.769q.8 0 1.372.571.57.57.57 1.372 0 .8-.57 1.372-.57.57-1.372.57z"/></svg>