<svg xmlns="http://www.w3.org/2000/svg" width="24" height="24" viewBox="0 0 24 24" fill='currentColor'><path d="M17 21.5q-1.873 0-3.187-1.314Q12.5 18.874 12.5 17t1.313-3.187T17 12.5t3.186 1.313Q21.5 15.128 21.5 17t-1.314 3.186Q18.874 21.5 17 21.5m.2-4.087 2.102-2.092-.623-.623-2.092 2.102zM2.5 11.25V4.5h19v7.571a6.5 6.5 0 0 0-2.08-1.312 6.6 6.6 0 0 0-2.42-.451q-.979 0-1.86.261a6.8 6.8 0 0 0-1.657.744l-1.814-3.648a.62.62 0 0 0-.279-.274.9.9 0 0 0-.786 0 .62.62 0 0 0-.283.274L7 14.334l-1.346-2.668a.75.75 0 0 0-.271-.303A.7.7 0 0 0 5 11.25zm0 8.25v-6.75h2.029l1.792 3.594q.097.208.271.307A.8.8 0 0 0 7 16.75a.76.76 0 0 0 .383-.099.65.65 0 0 0 .27-.307l3.338-6.652 1.286 2.573a6.9 6.9 0 0 0-1.44 2.125 6.45 6.45 0 0 0-.53 2.61q0 .64.12 1.273t.383 1.227z"/></svg>