<svg xmlns="http://www.w3.org/2000/svg" width="24" height="24" viewBox="0 0 24 24" fill='currentColor'><path d="M8.4 18.862q.463.257.9.466.436.208.892.349v1.59a14 14 0 0 1-.898-.286 9 9 0 0 1-.925-.39q-1.048.459-2.128.684-1.082.225-2.21.225H3.5V20h.53q1.124 0 2.163-.282a12.3 12.3 0 0 0 2.207-.857m4.908 2.638v-1.6a1.8 1.8 0 0 1-.68-.67 1.8 1.8 0 0 1-.243-.922v-5.385q0-1.2 1.094-1.754 1.094-.553 3.454-.553 2.45 0 3.508.53 1.059.53 1.059 1.777v5.385q0 .484-.242.91a1.8 1.8 0 0 1-.681.68V21.5h-1.73v-1.346h-3.809V21.5zm1.63-2.98a.77.77 0 0 0 .793-.788.77.77 0 0 0-.225-.564.76.76 0 0 0-.563-.226.77.77 0 0 0-.79.793q0 .317.234.55t.551.234m4 0a.77.77 0 0 0 .793-.788.77.77 0 0 0-.225-.564.76.76 0 0 0-.563-.226.77.77 0 0 0-.79.793q0 .317.235.55.233.234.55.234m-5.361-3.481h6.73V13.23h-6.73zM9.817 4.5v-2h4.327v2h4.577v4.004q-.344-.04-.707-.06a14 14 0 0 0-.793-.021V6H6.741v3.671l5.24-1.498 1.957.54q-1.93.424-2.83 1.453-.9 1.028-.916 3.065v4.054a6 6 0 0 1-1.19-.863q-.511-.48-.771-.788a9.2 9.2 0 0 1-1.506 1.276 6 6 0 0 1-1.64.752L3 10.721l2.24-.641V4.5z"/></svg>