<svg xmlns="http://www.w3.org/2000/svg" width="24" height="24" viewBox="0 0 24 24" fill='currentColor'><path d="M7.558 21.5q-1.283 0-2.17-.887-.888-.888-.888-2.17V5.75q0-1.344.94-2.297T7.75 2.5H19.5v14.385q-.669 0-1.113.456a1.52 1.52 0 0 0-.445 1.101q0 .67.445 1.114Q18.83 20 19.5 20v1.5zm1.33-8.615h1.024l.605-1.68h2.94l.606 1.68h1.014l-2.554-6.77h-1.086zm1.94-2.57 1.141-3.13h.046l1.131 3.13zM7.559 20h9.344a3 3 0 0 1-.338-.722 2.8 2.8 0 0 1-.122-.836q0-.429.114-.823.112-.395.346-.735H7.558q-.67 0-1.114.457A1.52 1.52 0 0 0 6 18.442q0 .67.444 1.114Q6.89 20 7.558 20"/></svg>