<svg xmlns="http://www.w3.org/2000/svg" width="24" height="24" viewBox="0 0 24 24" fill='currentColor'><path d="M14.406 20.5a2.53 2.53 0 0 1-1.853-.762 2.52 2.52 0 0 1-.764-1.851q0-1.09.762-1.853a2.52 2.52 0 0 1 1.85-.765q1.089 0 1.854.763.765.761.764 1.85 0 1.09-.762 1.853a2.52 2.52 0 0 1-1.851.765m2.094-7q-2.099 0-3.549-1.451-1.45-1.45-1.451-3.549 0-2.098 1.451-3.549 1.45-1.45 3.549-1.451 2.099 0 3.549 1.451 1.45 1.45 1.451 3.549 0 2.099-1.451 3.549-1.45 1.45-3.549 1.451m-9.384 4.115q-1.492 0-2.554-1.062T3.5 14t1.062-2.553 2.553-1.062 2.554 1.062T10.73 14t-1.062 2.553-2.554 1.062"/></svg>