<svg xmlns="http://www.w3.org/2000/svg" width="24" height="24" viewBox="0 0 24 24" fill='currentColor'><path d="M12 20.5a5.4 5.4 0 0 1-2.753-.733 5.43 5.43 0 0 1-2.005-2.017H4.5v-1.5h2.177a5.6 5.6 0 0 1-.164-1.245q-.013-.63-.013-1.255h-2v-1.5h2q0-.634.003-1.264t.174-1.236H4.5v-1.5h2.742q.36-.614.85-1.118t1.124-.851L7.519 4.554l1.035-1.035 2.13 2.131a4.43 4.43 0 0 1 2.6 0l2.181-2.13L16.5 4.553 14.773 6.28q.633.346 1.129.843.496.498.856 1.126H19.5v1.5h-2.177q.171.606.174 1.236t.003 1.264h2v1.5h-2q0 .625-.012 1.255-.014.63-.165 1.245H19.5v1.5h-2.742a5.43 5.43 0 0 1-2.005 2.017A5.4 5.4 0 0 1 12 20.5m-1.846-4.75h3.692v-1.5h-3.692zm0-4h3.692v-1.5h-3.692z"/></svg>