<svg xmlns="http://www.w3.org/2000/svg" width="24" height="24" viewBox="0 0 24 24" fill='currentColor'><path d="M16.804 11.5q-1.869 0-3.183-1.313-1.313-1.314-1.313-3.19 0-1.855 1.306-3.176 1.305-1.32 3.197-1.321 1.87 0 3.183 1.314Q21.308 5.126 21.308 7t-1.318 3.187Q18.673 11.5 16.804 11.5m-.439-3.692h.885v-3.5h-.885zm.443 1.923a.45.45 0 0 0 .335-.14.5.5 0 0 0 .145-.332.48.48 0 0 0-.14-.343.45.45 0 0 0-.34-.147.46.46 0 0 0-.34.14.46.46 0 0 0-.141.341q0 .2.14.34t.34.14M6.502 16.808q.546 0 .926-.383.38-.381.38-.927t-.382-.926a1.27 1.27 0 0 0-.928-.38q-.546 0-.926.383-.38.381-.38.927t.382.926.928.38m7 0q.546 0 .926-.383.38-.381.38-.927t-.383-.926a1.27 1.27 0 0 0-.927-.38q-.546 0-.926.383-.38.381-.38.927t.383.926q.381.38.927.38M3.77 21.5v-2.723q-.548-.381-.909-1.076a3 3 0 0 1-.36-1.393V7q0-1.917 1.957-2.708Q6.413 3.5 11.13 3.5a7 7 0 0 0-.745 1.646 6.3 6.3 0 0 0-.258 2.248q.012.183.043.375H4V11.5h8.044a6.5 6.5 0 0 0 2.092 1.593q1.227.6 2.672.6.19 0 .355-.008t.337-.039v2.662q0 .698-.36 1.393-.361.695-.91 1.076V21.5h-2.114v-2H5.885v2z"/></svg>