<svg xmlns="http://www.w3.org/2000/svg" width="24" height="24" viewBox="0 0 24 24" fill='currentColor'><path d="M7.375 20.385V19.5H3.5V18h1V6h-1V4.5h3.162l.646-1.615h9.375l.656 1.615H20.5V6h-1v12h1v1.5h-3.875v.884zm4.627-3.702q.546 0 .926-.375t.38-.921-.383-.928a1.26 1.26 0 0 0-.927-.382q-.546 0-.926.382t-.38.928.383.92q.381.375.927.376M6 11.23h3.202V7.596q0-.665-.465-1.13A1.54 1.54 0 0 0 7.607 6q-.665 0-1.136.466A1.53 1.53 0 0 0 6 7.596zm4.394 0h3.202V7.596q0-.665-.465-1.13A1.54 1.54 0 0 0 12.001 6q-.664 0-1.135.466a1.53 1.53 0 0 0-.472 1.13zm4.404 0H18V7.596q0-.665-.471-1.13A1.56 1.56 0 0 0 16.393 6q-.665 0-1.13.466a1.54 1.54 0 0 0-.465 1.13z"/></svg>