<svg xmlns="http://www.w3.org/2000/svg" width="24" height="24" viewBox="0 0 24 24" fill='currentColor'><path d="M14.45 21.75a.73.73 0 0 1-.534-.216A.73.73 0 0 1 13.7 21q0-.32.216-.535a.73.73 0 0 1 .534-.215h3.614l-2.945-2.077a.7.7 0 0 1-.312-.476.77.77 0 0 1 .12-.554.65.65 0 0 1 .467-.311.8.8 0 0 1 .562.12l2.979 2.061-1.254-3.4a.67.67 0 0 1 .025-.562.76.76 0 0 1 .43-.395.72.72 0 0 1 .582.02.76.76 0 0 1 .401.435l1.22 3.381.952-3.475a.84.84 0 0 1 .346-.458.61.61 0 0 1 .55-.068q.3.096.472.347.172.25.076.545l-1.712 6.367zM3.5 19.5v-15h3.192V2.385h1.539V4.5h5.577V2.385h1.5V4.5H18.5v7.716a6 6 0 0 0-1.5 0v-1.908H5V18h7.144q0 .375.046.75.047.375.17.75z"/></svg>