<svg xmlns="http://www.w3.org/2000/svg" width="24" height="24" viewBox="0 0 24 24" fill='currentColor'><path d="m11.19 8.654 3.366-5.798q2.15.561 3.85 2.123a9.2 9.2 0 0 1 2.471 3.675zm-2.534 2.413-3.32-5.826a9.7 9.7 0 0 1 3.018-2.014 9.2 9.2 0 0 1 4.459-.685q.458.043.76.093zm-5.85 3.298q-.15-.619-.228-1.2a9.2 9.2 0 0 1 .478-4.36 9.8 9.8 0 0 1 1.596-2.809l4.82 8.37zm6.702 6.798a9.3 9.3 0 0 1-3.935-2.151q-1.726-1.572-2.46-3.695h9.739zM12 21.5q-.375 0-.787-.05a19 19 0 0 1-.722-.1l4.892-8.36 3.29 5.76a9.6 9.6 0 0 1-3.017 2.018A9.2 9.2 0 0 1 12 21.5m7.348-3.496-4.82-8.388h6.666q.14.59.223 1.19.083.602.083 1.194 0 1.683-.574 3.206a10.5 10.5 0 0 1-1.578 2.798"/></svg>