<svg xmlns="http://www.w3.org/2000/svg" width="24" height="24" viewBox="0 0 24 24" fill='currentColor'><path d="M5.5 19.75v-1.5h4.896l-1.35-1.35 1.054-1.054L13.254 19 10.1 22.154 9.046 21.1l1.35-1.35zm8.5 0v-1.5h4.5v1.5zM5.5 17V2.5h13V17h-5.821L10.1 14.421 7.521 17zM7 13.42a12.3 12.3 0 0 1 2.467-.849q1.306-.302 2.533-.302t2.533.302 2.467.848V4H7zm5.001-2.44a2.65 2.65 0 0 1-1.948-.801 2.65 2.65 0 0 1-.803-1.947q0-1.146.802-1.948a2.65 2.65 0 0 1 1.947-.803q1.145 0 1.948.801a2.65 2.65 0 0 1 .803 1.948q0 1.145-.802 1.948a2.65 2.65 0 0 1-1.947.803"/></svg>