<svg xmlns="http://www.w3.org/2000/svg" width="24" height="24" viewBox="0 0 24 24" fill='currentColor'><path d="M11.998 12.25q-.93 0-1.588-.662a2.17 2.17 0 0 1-.66-1.59q0-.93.662-1.588.66-.66 1.59-.66t1.588.662q.66.66.66 1.59t-.662 1.588q-.66.66-1.59.66M6.5 8.865q.367 0 .616-.248A.84.84 0 0 0 7.366 8a.84.84 0 0 0-.25-.616.84.84 0 0 0-.616-.25.84.84 0 0 0-.616.25.84.84 0 0 0-.25.616q0 .367.25.616a.84.84 0 0 0 .616.25M4.25 20.5V19h3.186l.641-2.571q-2.379-.32-3.978-2.137T2.5 10q0-2.716 1.892-4.608T9 3.5h6q2.716 0 4.608 1.892T21.5 10q0 2.475-1.599 4.292-1.599 1.818-3.978 2.137l.64 2.571h3.187v1.5zM12 13.75q1.554 0 2.652-1.098A3.6 3.6 0 0 0 15.75 10q0-1.554-1.098-2.652A3.6 3.6 0 0 0 12 6.25q-1.554 0-2.652 1.098A3.6 3.6 0 0 0 8.25 10q0 1.554 1.098 2.652A3.6 3.6 0 0 0 12 13.75"/></svg>