<svg xmlns="http://www.w3.org/2000/svg" width="24" height="24" viewBox="0 0 24 24" fill='currentColor'><path d="M7.712 6.346q-.72 0-1.225-.505a1.67 1.67 0 0 1-.506-1.225q0-.72.506-1.225a1.67 1.67 0 0 1 1.225-.506q.718 0 1.225.506.505.505.505 1.225 0 .718-.505 1.225a1.67 1.67 0 0 1-1.225.505M18.208 21.5l-2.948-4.654H7.51L6.1 9.842q-.186-.989.446-1.742a2.02 2.02 0 0 1 1.621-.754q.706 0 1.266.469.56.467.78 1.227l1.537 5.333h3.908L19.5 20.74zm-1.294-10.471-3.587-3.577 1.054-1.054 1.782 1.758V3.5h1.5v4.656l1.793-1.773L20.5 7.452zM14.79 21.5H4.362l-2.64-10.242a4.4 4.4 0 0 1-.161-.736 5.4 5.4 0 0 1 .103-1.963q.147-.626.444-1.218a1.44 1.44 0 0 1 1.31-.822q.468 0 .812.344.343.343.343.812 0 .217-.08.42a1.2 1.2 0 0 1-.243.372q-.494.495-.604 1.2t.2 1.395l.462.992q.806 1.774 1.199 3.336t.393 3.021v1.235q.394-.311.807-.46.413-.147.824-.148h5.523q.725 0 1.23.502.506.5.506 1.21z"/></svg>