<svg xmlns="http://www.w3.org/2000/svg" width="24" height="24" viewBox="0 0 24 24" fill='currentColor'><path d="m9.067 8.058-.828-.83 1.328-1.353H6.221V4.683h3.346L8.24 3.329l.828-.829 2.789 2.779zM5.28 13.769 2.5 10.991l.829-.839 1.354 1.339V8.144h1.192v3.347l1.354-1.339.829.839zm11.01-7.423q-.72 0-1.226-.506a1.67 1.67 0 0 1-.505-1.224q0-.72.505-1.225a1.67 1.67 0 0 1 1.225-.506q.72 0 1.226.506.505.505.505 1.225 0 .718-.505 1.225a1.67 1.67 0 0 1-1.226.505M5.791 21.5 4.5 20.74l3.842-6.365h3.908l1.537-5.333a2.45 2.45 0 0 1 .78-1.227 1.92 1.92 0 0 1 1.266-.469q.99 0 1.62.754.634.753.447 1.742l-1.41 7.004H8.74zm3.418 0v-.75q0-.71.505-1.21a1.68 1.68 0 0 1 1.231-.502h5.523q.413 0 .824.148.412.149.807.46v-1.235q0-1.46.393-3.02.393-1.563 1.2-3.337l.46-.992q.31-.69.2-1.395a2.1 2.1 0 0 0-.603-1.2 1.12 1.12 0 0 1-.323-.792q0-.47.343-.812.344-.345.813-.344.423 0 .773.22.35.219.536.601.297.593.445 1.22a5.4 5.4 0 0 1 .102 1.962q-.045.359-.16.736L19.639 21.5z"/></svg>