<svg xmlns="http://www.w3.org/2000/svg" width="24" height="24" viewBox="0 0 24 24" fill='currentColor'><path d="M11.25 21.385v-3h-7v-1.5h15.5v1.5h-7v3zm-2.442-9.616a.85.85 0 0 0 .626-.258.85.85 0 0 0 .258-.626.85.85 0 0 0-.258-.626.85.85 0 0 0-.626-.259.85.85 0 0 0-.626.259.85.85 0 0 0-.259.626q0 .367.259.626a.85.85 0 0 0 .626.258m6.384 0a.85.85 0 0 0 .626-.258.85.85 0 0 0 .259-.626.85.85 0 0 0-.259-.626.85.85 0 0 0-.626-.259.85.85 0 0 0-.626.259.85.85 0 0 0-.258.626q0 .367.258.626a.85.85 0 0 0 .626.258M5.5 9.062l1.787-5.177h9.423l1.79 5.177v6.823H17v-2H7v2H5.5zm1.977-1.177h9.046l-.873-2.5h-7.3z"/></svg>