<svg xmlns="http://www.w3.org/2000/svg" width="24" height="24" viewBox="0 0 24 24" fill='currentColor'><path d="M2.5 20.5v-8.423L4.795 5.5h4.263V7H5.869l-1.261 3.577h7.206l2.932 2.933q-.24.171-.378.437a1.3 1.3 0 0 0-.137.592q0 .544.381.926.381.381.927.381.32 0 .584-.137.263-.138.435-.378l.936.936 2.006-1.99V20.5h-2.115v-2H4.615v2zm3.964-4.654q.546 0 .925-.382.38-.382.38-.928t-.382-.925a1.27 1.27 0 0 0-.928-.38q-.546 0-.925.382-.38.382-.38.928t.382.925.928.38M17.6 13.28l-6.35-6.375V1.25h5.644l6.36 6.375zM15 5.865q.367 0 .616-.248a.84.84 0 0 0 .25-.617.84.84 0 0 0-.25-.616.84.84 0 0 0-.616-.25.84.84 0 0 0-.616.25.84.84 0 0 0-.25.616q0 .367.25.616a.84.84 0 0 0 .616.25"/></svg>