<svg xmlns="http://www.w3.org/2000/svg" width="24" height="24" viewBox="0 0 24 24" fill='currentColor'><path d="m12.01 20.462-2.19-1.947a93 93 0 0 1-3.46-3.235q-1.398-1.39-2.264-2.544t-1.24-2.166a6 6 0 0 1-.372-2.085q0-2.128 1.435-3.556T7.484 3.5q1.31 0 2.48.612 1.17.613 2.045 1.757.885-1.144 2.046-1.756a5.2 5.2 0 0 1 2.47-.613q2.129 0 3.565 1.428t1.435 3.557a6 6 0 0 1-.373 2.084q-.373 1.012-1.24 2.165-.866 1.155-2.264 2.545a93 93 0 0 1-3.458 3.236zm-4.964-6.635h9.927q.516-.54.918-.999.401-.459.715-.886H5.404q.323.427.725.886t.917.999m4.963 4.608q1.016-.896 1.87-1.661.856-.765 1.563-1.447H8.577q.707.682 1.563 1.447.855.765 1.87 1.66"/></svg>