<svg xmlns="http://www.w3.org/2000/svg" width="24" height="24" viewBox="0 0 24 24" fill='currentColor'><path d="m10.777 13.312-1.11-1.66a.96.96 0 0 0-.32-.291.86.86 0 0 0-.428-.111H3.177a5.5 5.5 0 0 1-.534-1.394A6.4 6.4 0 0 1 2.5 8.5q0-2.13 1.436-3.564Q5.372 3.5 7.5 3.5q1.31 0 2.475.612Q11.14 4.726 12 5.87q.86-1.144 2.025-1.756A5.25 5.25 0 0 1 16.5 3.5q2.13 0 3.564 1.436Q21.5 6.372 21.5 8.5q0 .697-.143 1.356a5.5 5.5 0 0 1-.534 1.394h-5.411l-1.783-2.656a.7.7 0 0 0-.291-.25.9.9 0 0 0-.388-.084.64.64 0 0 0-.413.139.74.74 0 0 0-.247.363zM12 20.677l-1.104-.992q-2.596-2.34-4.242-3.987-1.647-1.646-2.577-2.948h4.492l1.792 2.665a.64.64 0 0 0 .297.256 1 1 0 0 0 .392.079.62.62 0 0 0 .409-.14.8.8 0 0 0 .25-.362l1.514-4.556 1.106 1.656q.124.18.321.291.196.111.427.111h4.846q-.93 1.301-2.577 2.948-1.645 1.646-4.242 3.986z"/></svg>