<svg xmlns="http://www.w3.org/2000/svg" width="24" height="24" viewBox="0 0 24 24" fill='currentColor'><path d="M7.789 17.423q.504 0 .858-.353A1.17 1.17 0 0 0 9 16.212q0-.505-.353-.859A1.17 1.17 0 0 0 7.788 15q-.504 0-.858.353a1.17 1.17 0 0 0-.353.859q0 .504.353.858.354.353.859.353m0-8.423q.504 0 .858-.353Q9 8.293 9 7.788q0-.504-.353-.858a1.17 1.17 0 0 0-.859-.353q-.504 0-.858.353a1.17 1.17 0 0 0-.353.859q0 .504.353.858.354.353.86.353M12 13.211q.505 0 .858-.353t.353-.858a1.17 1.17 0 0 0-.353-.858 1.17 1.17 0 0 0-.858-.353q-.505 0-.858.353a1.17 1.17 0 0 0-.353.858q0 .505.353.858.353.354.858.353m4.212 4.212q.504 0 .858-.353a1.17 1.17 0 0 0 .353-.858q0-.505-.353-.859a1.17 1.17 0 0 0-.858-.353q-.505 0-.859.353a1.17 1.17 0 0 0-.353.859q0 .504.353.858.354.353.859.353m0-8.423q.504 0 .858-.353.353-.354.353-.859 0-.504-.353-.858a1.17 1.17 0 0 0-.858-.353q-.505 0-.859.353a1.17 1.17 0 0 0-.353.86q0 .504.353.858.354.353.859.353M3.5 20.5v-17h17v17z"/></svg>