<svg xmlns="http://www.w3.org/2000/svg" width="24" height="24" viewBox="0 0 24 24" fill='currentColor'><path d="M18.808 8.154h.884V4.269h-.884zm-2.5 0h.884V4.269h-.884zM2.5 17.038q1.02 0 1.74.721.721.721.721 1.74H2.5zm0-3.692q2.57 0 4.362 1.791T8.654 19.5h-1.5q0-1.921-1.362-3.278-1.361-1.357-3.292-1.376zm0-3.885q2.083 0 3.906.787a10.2 10.2 0 0 1 3.192 2.154 10.2 10.2 0 0 1 2.154 3.192 9.8 9.8 0 0 1 .787 3.906h-1.5a8.3 8.3 0 0 0-.675-3.33 8.7 8.7 0 0 0-1.828-2.706 8.7 8.7 0 0 0-2.707-1.829 8.3 8.3 0 0 0-3.329-.674zm15.5 1.25q-1.873 0-3.187-1.313Q13.5 8.084 13.5 6.21t1.313-3.186T18 1.71t3.186 1.314Q22.5 4.339 22.5 6.21q0 1.874-1.314 3.187Q19.874 10.71 18 10.71m-3.27 8.79q0-2.552-.962-4.775a12.4 12.4 0 0 0-2.622-3.885 12.3 12.3 0 0 0-3.885-2.616Q5.037 7.269 2.5 7.269V4.5h9.04q-.111.36-.162.73a7 7 0 0 0-.06.77q-.097 2.834 1.867 4.87T18 12.903q.933 0 1.822-.263a6.6 6.6 0 0 0 1.678-.762v7.62z"/></svg>