<svg xmlns="http://www.w3.org/2000/svg" width="24" height="24" viewBox="0 0 24 24" fill='currentColor'><path d="M2.5 20v-7.23h7.23V20zM6.308 9.5l4.808-7.885L15.923 9.5zm15.286 12.892-2.63-2.63q-.496.36-1.09.549-.593.189-1.258.189-1.721 0-2.919-1.197T12.5 16.384t1.197-2.918 2.919-1.197 2.918 1.197 1.197 2.919q0 .65-.19 1.238-.189.588-.524 1.085l2.631 2.63zM16.616 19q1.098 0 1.856-.759.759-.757.759-1.857 0-1.098-.759-1.856-.759-.759-1.857-.759t-1.856.759T14 16.384q0 1.1.759 1.857.758.759 1.857.759"/></svg>