<svg xmlns="http://www.w3.org/2000/svg" width="24" height="24" viewBox="0 0 24 24" fill='currentColor'><path d="M14.45 19.75a.73.73 0 0 1-.534-.216A.73.73 0 0 1 13.7 19q0-.32.216-.535a.73.73 0 0 1 .534-.215h3.614l-2.945-2.077a.7.7 0 0 1-.312-.476.77.77 0 0 1 .12-.554.65.65 0 0 1 .467-.311.8.8 0 0 1 .562.12l2.979 2.062-1.254-3.4a.67.67 0 0 1 .025-.563.76.76 0 0 1 .43-.395.72.72 0 0 1 .583.025.76.76 0 0 1 .4.43l1.22 3.381.952-3.475a.84.84 0 0 1 .346-.458.6.6 0 0 1 .546-.068q.294.096.463.347.17.25.073.545l-1.711 6.367zm-7.392-11h7.884v-1.5H7.058zm0 4h4.884v-1.5H7.058zM3.25 19.394V3.25h15.5v6.796a4 4 0 0 0-.442-.038 13 13 0 0 0-.443-.008q-2.457 0-4.161 1.71Q12 13.422 12 15.866q0 .222.008.443.008.22.038.442H5.894z"/></svg>