<svg xmlns="http://www.w3.org/2000/svg" width="24" height="24" viewBox="0 0 24 24" fill='currentColor'><path d="M10.529 6.5h3q0-.625-.438-1.062A1.45 1.45 0 0 0 12.03 5q-.625 0-1.063.438A1.45 1.45 0 0 0 10.53 6.5m6.346 4.816V6.5h2.654v4.992a7 7 0 0 0-1.315-.222 6 6 0 0 0-1.34.046M4.529 16.692V6.5h2.654v10.192zm3.846 0V6.5h.961q0-1.125.786-1.908a2.6 2.6 0 0 1 1.909-.784q1.122 0 1.906.785.784.786.784 1.907h.962v5.12a6.2 6.2 0 0 0-2.826 1.94 6.86 6.86 0 0 0-1.469 3.132zm8.992 2.139h.823v-.212q0-.274.15-.478t.354-.402q.306-.276.526-.61t.22-.756q0-.667-.488-1.126a1.66 1.66 0 0 0-1.173-.458q-.575 0-1.028.337a1.9 1.9 0 0 0-.653.893l.742.312a1.07 1.07 0 0 1 .35-.538.9.9 0 0 1 .589-.212q.34 0 .59.227a.72.72 0 0 1 .248.557.73.73 0 0 1-.16.476 5 5 0 0 1-.36.398l-.302.304a2.2 2.2 0 0 0-.278.346 1 1 0 0 0-.117.302 1.7 1.7 0 0 0-.033.328zm.412 1.842a.57.57 0 0 0 .421-.17.57.57 0 0 0 .171-.422.57.57 0 0 0-.17-.422.57.57 0 0 0-.422-.17.57.57 0 0 0-.422.17.57.57 0 0 0-.17.422q0 .25.17.421.171.171.422.171m0 1.577q-1.873 0-3.187-1.313-1.313-1.314-1.313-3.187t1.313-3.186 3.187-1.314 3.186 1.314 1.314 3.186q0 1.872-1.314 3.187-1.312 1.313-3.186 1.313M2.72 20.192v-1.5h8.648q.072.385.178.757t.25.743z"/></svg>