<svg xmlns="http://www.w3.org/2000/svg" width="24" height="24" viewBox="0 0 24 24" fill='currentColor'><path d="M9.308 13.721h1.5V9.308h-1.5zm-3.894 2.664v-3.972a4.4 4.4 0 0 1-1.753-1.57A4.06 4.06 0 0 1 3 8.6q0-1.712 1.186-2.906Q5.374 4.5 7.086 4.5q.3 0 .607.05.308.05.608.125l.086.02.049-.078A4.6 4.6 0 0 1 9.95 3.075 3.8 3.8 0 0 1 12 2.5q1.123 0 2.051.575a4.66 4.66 0 0 1 1.524 1.542l.048.077.077-.019q.291-.075.585-.125.295-.05.611-.05 1.721 0 2.912 1.194Q21 6.888 21 8.61q0 1.217-.656 2.237a4.34 4.34 0 0 1-1.758 1.567v3.97zm7.788-2.664h1.5V9.308h-1.5zM5.414 21.5v-3.616h13.173V21.5z"/></svg>