<svg xmlns="http://www.w3.org/2000/svg" width="24" height="24" viewBox="0 0 24 24" fill='currentColor'><path d="M19.885 14.25v-4.5h2.788v4.5zM6 16.75q-1.748 0-3.124-1.01T1.5 13.404v-2.808q0-1.35 1.376-2.348T6 7.25q.72 0 1.37.158t1.578.553q.33.15.61.248.282.096.523.166.24.07.466.097.227.028.453.028h7.692v7H11q-.226 0-.453.028-.226.027-.466.097t-.522.166a7 7 0 0 0-.611.247q-.927.397-1.577.554T6 16.75m-3.308-4.308h.846a.42.42 0 0 0 .31-.133.42.42 0 0 0 .133-.309.42.42 0 0 0-.133-.31.42.42 0 0 0-.31-.132h-.846a.42.42 0 0 0-.31.133.42.42 0 0 0-.132.309q0 .177.133.31a.42.42 0 0 0 .31.132"/></svg>