<svg xmlns="http://www.w3.org/2000/svg" width="24" height="24" viewBox="0 0 24 24" fill='currentColor'><path d="M17 1.577q2.26 0 3.841 1.582t1.582 3.84-1.582 3.842Q19.26 12.423 17 12.423t-3.841-1.582Q11.577 9.26 11.577 7t1.582-3.841T17 1.577m.052 12.861q.55 0 1.07-.097a6 6 0 0 0 1.026-.285q-.39 3.092-2.708 5.143T11 21.249a8 8 0 0 1-3.214-.65 8.4 8.4 0 0 1-2.62-1.766A8.4 8.4 0 0 1 3.4 16.214 8 8 0 0 1 2.75 13q0-3.123 2.051-5.436t5.143-2.722a6 6 0 0 0-.278 1.07q-.09.55-.089 1.097.03 3.1 2.204 5.265 2.173 2.164 5.271 2.164"/></svg>