<svg xmlns="http://www.w3.org/2000/svg" width="24" height="24" viewBox="0 0 24 24" fill='currentColor'><path d="M12 18.192q.557 0 .957-.39.399-.389.427-.956h-2.768q.028.567.427.957t.957.39m-4.615-2.615h9.23v-1.616h-1v-2.657a4.67 4.67 0 0 0-.73-2.552q-.73-1.152-2.039-1.464V5.77h-1.692v1.52a3.22 3.22 0 0 0-2.04 1.453 4.6 4.6 0 0 0-.73 2.542v2.677h-1zm4.617 5.923a9.3 9.3 0 0 1-3.706-.748 9.6 9.6 0 0 1-3.016-2.03 9.6 9.6 0 0 1-2.032-3.016 9.25 9.25 0 0 1-.748-3.704q0-1.972.748-3.706a9.6 9.6 0 0 1 2.03-3.016 9.6 9.6 0 0 1 3.016-2.032 9.25 9.25 0 0 1 3.704-.748q1.972 0 3.706.748a9.6 9.6 0 0 1 3.017 2.03 9.6 9.6 0 0 1 2.03 3.016 9.25 9.25 0 0 1 .749 3.704q0 1.972-.748 3.706a9.6 9.6 0 0 1-2.03 3.017 9.6 9.6 0 0 1-3.016 2.03 9.25 9.25 0 0 1-3.704.749"/></svg>