<svg xmlns="http://www.w3.org/2000/svg" width="24" height="24" viewBox="0 0 24 24" fill='currentColor'><path d="M1.692 21.5v-9.577h3.5V21.5zM14 21.904l-7.308-2.1v-7.88H8.87l7.689 2.855v1.798h-3.5l-2.174-.8-.33.839 2.485.846h8.46v1.788zm.933-9.542-5.74-2.131H5.576a4.33 4.33 0 0 1 1.321-2.445 4.76 4.76 0 0 1 2.535-1.244V4h-1.5V2.5h5.25q.715 0 1.369.212.654.213 1.212.601l-1.08 1.08a4 4 0 0 0-.723-.287A2.8 2.8 0 0 0 13.183 4h-2.25v2.542A4.7 4.7 0 0 1 13.79 8.14q1.142 1.314 1.142 3.09zm3.817-2.554q-.729 0-1.24-.511-.51-.51-.51-1.24 0-.525.382-1.309.381-.783 1.368-2.248.987 1.466 1.368 2.243.382.778.382 1.315 0 .729-.51 1.239-.511.51-1.24.51"/></svg>