<svg xmlns="http://www.w3.org/2000/svg" width="24" height="24" viewBox="0 0 24 24" fill='currentColor'><path d="m7.442 22.5-1.865-14h12.856l-1.866 14zM12 15.75q1.145 0 1.948-.802A2.65 2.65 0 0 0 14.75 13v-1.75h-1.5V13q0 .522-.364.886a1.2 1.2 0 0 1-.886.364q-.522 0-.886-.364A1.2 1.2 0 0 1 10.75 13v-1.75h-1.5V13q0 1.146.802 1.948a2.65 2.65 0 0 0 1.947.802M15 6.99q-.52.001-.885-.364a1.2 1.2 0 0 1-.366-.885q0-.52.364-.885.365-.366.885-.366t.885.365.366.884-.364.886A1.2 1.2 0 0 1 15 6.99m-5-1q-.935 0-1.592-.657a2.17 2.17 0 0 1-.658-1.598q0-.938.658-1.592.657-.653 1.597-.653t1.592.653.653 1.597q0 .934-.652 1.593A2.16 2.16 0 0 1 10 5.99"/></svg>