<svg xmlns="http://www.w3.org/2000/svg" width="24" height="24" viewBox="0 0 24 24" fill='currentColor'><path d="M11.25 5.212V1.519h1.5v3.693zm6.073 2.519-1.029-1.029 2.579-2.663 1.063 1.078zm1.465 5.019v-1.5h3.693v1.5zm-7.538 9.73v-3.682h1.5v3.683zM6.696 7.69 4.04 5.128l1.088-1.054 2.614 2.604zm12.162 12.272-2.564-2.664 1.014-1.004 2.619 2.548zM1.519 12.75v-1.5h3.693v1.5zm3.598 7.212-1.044-1.089 2.579-2.579.542.512.552.527zm6.885-2.462q-2.29 0-3.896-1.604T6.5 12.003t1.604-3.896T11.998 6.5t3.896 1.604 1.606 3.894-1.604 3.896Q14.293 17.5 12.003 17.5"/></svg>