<svg xmlns="http://www.w3.org/2000/svg" width="24" height="24" viewBox="0 0 24 24" fill='currentColor'><path d="M6.5 19.5q-2.072 0-3.536-1.438Q1.5 16.623 1.5 14.546q0-1.863 1.199-3.278 1.199-1.414 2.974-1.676.48-2.242 2.255-3.667T12 4.5q2.4 0 4.185 1.516 1.785 1.515 2.192 3.801-1.973.137-3.324 1.555t-1.351 3.417V19.5zm10.298 0a.88.88 0 0 1-.644-.26.87.87 0 0 1-.26-.644V15.74a.83.83 0 0 1 .278-.64.96.96 0 0 1 .674-.254v-1q0-.765.546-1.31a1.8 1.8 0 0 1 1.311-.545q.766 0 1.306.545t.539 1.31v1q.396 0 .674.254a.83.83 0 0 1 .278.64v2.856q0 .383-.26.644a.87.87 0 0 1-.644.26zm.933-4.654h1.932v-1a.96.96 0 0 0-.268-.698.93.93 0 0 0-.693-.273.95.95 0 0 0-.698.273.95.95 0 0 0-.273.698z"/></svg>