<svg xmlns="http://www.w3.org/2000/svg" width="24" height="24" viewBox="0 0 24 24" fill='currentColor'><path d="M12.256 15.092q1.567 0 2.682-1.01 1.113-1.008 1.114-2.455 0-1.261-.802-2.143t-1.967-.882q-1.022 0-1.742.659-.722.659-.722 1.614 0 .417.168.81.17.392.48.729l1.098-1.06a.6.6 0 0 1-.184-.202.5.5 0 0 1-.062-.252q0-.313.259-.543.258-.23.705-.23.539 0 .911.432.373.431.373 1.093 0 .804-.652 1.38t-1.634.576q-1.185 0-2.022-.95t-.836-2.354q0-.726.28-1.392.28-.667.799-1.187l-1.079-1.07a5.04 5.04 0 0 0-1.525 3.624q0 1.998 1.266 3.406 1.265 1.407 3.092 1.407M6.5 21.5v-4.03a9.4 9.4 0 0 1-2.213-2.98 8.15 8.15 0 0 1-.787-3.5q0-3.537 2.48-6.014Q8.463 2.5 12 2.5q2.914 0 5.21 1.742 2.298 1.74 2.984 4.518l1.437 5.74H18.5v5h-4v2z"/></svg>