<svg xmlns="http://www.w3.org/2000/svg" width="24" height="24" viewBox="0 0 24 24" fill='currentColor'><path d="m5.035 20.846-.14-1.227a4 4 0 0 1-.292-.143 3 3 0 0 1-.309-.199l-1.152.48-.965-1.668.977-.737v-.679l-.977-.761.965-1.67 1.152.481q.144-.095.296-.188.15-.094.304-.164l.14-1.217h1.931l.14 1.227q.07.025.14.06l.133.069q.065.034.149.094t.179.12l1.152-.482.965 1.67-.977.736a2.6 2.6 0 0 1-.019.535q.048.085.077.142.03.058.077.142l5.465-3.165-.971 1.687.184.138-4.075 2.358-.726 1.273-1.152-.48-.296.187q-.15.095-.304.164l-.14 1.217zm.965-5.5q-.692 0-1.173.481-.48.48-.48 1.173t.48 1.173 1.173.48 1.173-.48.48-1.173q0-.692-.48-1.173-.48-.48-1.173-.48m4.035-5.5-.14-1.217a4 4 0 0 0-.26-.138.7.7 0 0 1-.202-.137l-.087.077v5.48l-.23-.4-.962.408V8.665L7.202 7.09l.952-.737v-.679l-.977-.761.965-1.67 1.152.481q.145-.095.295-.188.152-.095.305-.164l.14-1.217h1.931l.14 1.227q.14.06.268.129.129.069.333.213l1.152-.48.965 1.669-.977.736v.68l.977.76-.965 1.67-1.152-.48q-.145.094-.295.187-.152.095-.305.164l-.14 1.217zm.965-5.5q-.692 0-1.173.481-.48.48-.48 1.173t.48 1.173 1.173.48q.691 0 1.173-.48.48-.48.48-1.173 0-.692-.48-1.173-.48-.48-1.173-.48m6.035 16.5-.14-1.227a7 7 0 0 1-.297-.148 3 3 0 0 1-.304-.194l-1.152.48-.965-1.668.977-.737v-.679l-.977-.736.965-1.695 1.152.481q.124-.089.201-.134t.36-.193l.04-.182-5.391-3.79h.979l.08-.699 4.914 3.429h1.488l.14 1.227q.07.025.14.06l.133.069q.065.034.149.094t.179.12l1.152-.482.965 1.67-.977.736v.68l.977.76-.965 1.67-1.152-.48-.3.197a1.7 1.7 0 0 1-.3.154l-.14 1.217zm.965-5.5q-.692 0-1.173.481-.48.48-.48 1.173t.48 1.173 1.173.48q.692 0 1.173-.48.48-.48.48-1.173 0-.692-.48-1.173-.48-.48-1.173-.48"/></svg>