<svg xmlns="http://www.w3.org/2000/svg" width="24" height="24" viewBox="0 0 24 24" fill='currentColor'><path d="M9.886 18.51q-2.355 0-4.358-1.198a8.27 8.27 0 0 1-3.11-3.289l-.597-1.102a1.74 1.74 0 0 1 .221-1.917l4.785-5.827q.206-.246.477-.407.27-.16.582-.21a2.1 2.1 0 0 1 .608-.013q.297.038.592.194L12 6.302l2.45-1.35q.349-.202.741-.146.393.055.686.348.293.277.365.653.073.375-.098.734l-2.975 6.946a1.67 1.67 0 0 1-.785.84 1.7 1.7 0 0 1-1.157.146L3.492 12.83l.202.385a6.76 6.76 0 0 0 2.559 2.77A6.86 6.86 0 0 0 9.886 17h4.312q1.365 0 2.626-.515a6.8 6.8 0 0 0 2.226-1.466l.356-.355H18.19q-.838 0-1.368-.633a1.77 1.77 0 0 1-.414-1.446l.627-4.171q.064-.39.312-.64.247-.253.58-.358.333-.106.668-.013.336.093.603.386l2.754 3.225q.327.383.4.883.074.501-.148.959l-.366.771a8.35 8.35 0 0 1-3.105 3.562 8.2 8.2 0 0 1-4.535 1.32z"/></svg>