<svg xmlns="http://www.w3.org/2000/svg" width="24" height="24" viewBox="0 0 24 24" fill='currentColor'><path d="m20.792 22.915-3.229-3.229A9.26 9.26 0 0 1 12 21.5a9.25 9.25 0 0 1-3.704-.748 9.6 9.6 0 0 1-3.016-2.03 9.6 9.6 0 0 1-2.03-3.017A9.25 9.25 0 0 1 2.5 12a9.26 9.26 0 0 1 1.814-5.564L1.28 3.404l1.069-1.07L21.86 21.846zM12 20a7.4 7.4 0 0 0 2.383-.377 8.3 8.3 0 0 0 2.08-1.037L12 14.124zm8-2.846-1.11-1.11A7.73 7.73 0 0 0 20 12q0-3.325-2.337-5.663T12 4v5.154L6.846 4a9.7 9.7 0 0 1 2.425-1.108A9.4 9.4 0 0 1 12 2.5q1.972 0 3.705.748a9.6 9.6 0 0 1 3.016 2.03 9.6 9.6 0 0 1 2.03 3.017A9.25 9.25 0 0 1 21.5 12q0 1.429-.392 2.73A9.7 9.7 0 0 1 20 17.153"/></svg>