<svg xmlns="http://www.w3.org/2000/svg" width="24" height="24" viewBox="0 0 24 24" fill='currentColor'><path d="m18 20.644-1.054-1.069 1.825-1.825H12.25v-1.5h6.521l-1.825-1.84L18 13.356 21.644 17zM20.5 10H19V5h-2.5v2.615h-9V5H5v14h5.25v1.5H3.5v-17h6.214q.207-.73.848-1.211.642-.48 1.438-.481.827 0 1.46.48.635.482.842 1.212H20.5zm-8.498-4.884a.87.87 0 0 0 .643-.26.88.88 0 0 0 .259-.646.87.87 0 0 0-.26-.644.88.88 0 0 0-.646-.258.87.87 0 0 0-.643.26.88.88 0 0 0-.259.645.87.87 0 0 0 .26.644.88.88 0 0 0 .646.259"/></svg>