<svg xmlns="http://www.w3.org/2000/svg" width="24" height="24" viewBox="0 0 24 24" fill='currentColor'><path d="M5.192 21.23q-.374 0-.669-.3-.294-.3-.294-.672v-2.424q0-2.08 1.292-3.671 1.293-1.593 3.323-2.032a4.54 4.54 0 0 0-1.946 3.751v4.374q0 .253.075.506t.231.469zm3.392 0a.93.93 0 0 1-.68-.289.94.94 0 0 1-.288-.683v-4.375q0-1.624 1.136-2.754T11.514 12h4.367q1.617 0 2.746 1.129t1.129 2.754v1.465q0 1.624-1.129 2.754t-2.754 1.129zM12 10.055q-1.521 0-2.582-1.06t-1.06-2.582 1.06-2.582T12 2.77t2.582 1.06 1.06 2.582-1.06 2.582T12 10.054"/></svg>