<svg xmlns="http://www.w3.org/2000/svg" width="24" height="24" viewBox="0 0 24 24" fill='currentColor'><path d="M14.096 11.096h6.808V6.288h-6.808zM17.5 9.904l-2.48-1.731V7.23l2.48 1.73 2.48-1.73v.942zM.5 20.308V3.692h23v16.616zm8.499-6.193q1.145 0 1.948-.801a2.65 2.65 0 0 0 .803-1.948q0-1.145-.802-1.948a2.65 2.65 0 0 0-1.947-.803q-1.145 0-1.948.802a2.65 2.65 0 0 0-.803 1.947q0 1.146.802 1.948a2.65 2.65 0 0 0 1.947.803m-6.341 4.693h12.684a7.7 7.7 0 0 0-2.727-2.558A7.26 7.26 0 0 0 9 15.308a7.26 7.26 0 0 0-3.615.942 7.7 7.7 0 0 0-2.727 2.558"/></svg>