<svg xmlns="http://www.w3.org/2000/svg" width="24" height="24" viewBox="0 0 24 24" fill='currentColor'><path d="M14.792 17.023a9 9 0 0 0 .302-.838q.13-.428.237-.87l-1.277-1.276q-.115.61-.27 1.211-.153.602-.38 1.165zm-3.25-1.35q.338-.827.495-1.693.16-.867.19-1.769l-1.617-1.617q.07.339.094.688t.023.718q0 .827-.136 1.61a7 7 0 0 1-.437 1.505zm-3.219-1.35q.187-.533.295-1.118.11-.585.109-1.205 0-.62-.109-1.205a7.6 7.6 0 0 0-.295-1.118l-1.388.577q.121.411.206.853a4.7 4.7 0 0 1 0 1.786 9 9 0 0 1-.206.853zm12.47 8.592-3.23-3.229A9.26 9.26 0 0 1 12 21.5a9.2 9.2 0 0 1-3.702-.749 9.6 9.6 0 0 1-3.016-2.032 9.6 9.6 0 0 1-2.032-3.016A9.2 9.2 0 0 1 2.5 12a9.27 9.27 0 0 1 1.998-5.804h1.714l13.49 13.49h-2.139L1.282 3.404l1.069-1.07 19.511 19.512zM20 17.154l-4.298-4.298q.015-.222.02-.433t.005-.423q0-1.329-.234-2.59t-.7-2.433l-1.389.608q.35.872.548 1.82.198.947.244 1.945l-2.09-2.09a5 5 0 0 0-.097-.498 4 4 0 0 0-.157-.487l-.506.225-4.5-4.5A9.6 9.6 0 0 1 9.27 2.891 9.4 9.4 0 0 1 12 2.5q1.97 0 3.703.749a9.6 9.6 0 0 1 3.016 2.032 9.6 9.6 0 0 1 2.032 3.016q.75 1.734.749 3.703 0 1.429-.392 2.73A9.6 9.6 0 0 1 20 17.154"/></svg>