<svg xmlns="http://www.w3.org/2000/svg" width="24" height="24" viewBox="0 0 24 24" fill='currentColor'><path d="M5 20q-1.048 0-1.774-.726A2.4 2.4 0 0 1 2.5 17.5q0-1.048.726-1.774A2.4 2.4 0 0 1 5 15h14q1.048 0 1.774.726T21.5 17.5t-.726 1.774A2.4 2.4 0 0 1 19 20zm0-1.5h14q.424 0 .712-.288A.97.97 0 0 0 20 17.5a.97.97 0 0 0-.288-.712A.97.97 0 0 0 19 16.5H5a.97.97 0 0 0-.713.288A.97.97 0 0 0 4 17.5q0 .424.287.712.288.288.713.288M9.98 13V4h9v9zM2.5 11.22V9.764h5.435v1.454zm9.98-2.97h4V6.766h-4zm-7.98 0h3.435V6.766H4.5z"/></svg>