<svg xmlns="http://www.w3.org/2000/svg" width="24" height="24" viewBox="0 0 24 24" fill='currentColor'><path d="M8.5 14.904q.587 0 .995-.413a1.36 1.36 0 0 0 .409-.991q0-.587-.409-.995a1.36 1.36 0 0 0-.995-.409 1.36 1.36 0 0 0-.99.409 1.35 1.35 0 0 0-.414.995q0 .577.414.99.413.414.99.414m12.292 8.011-3.229-3.229A9.26 9.26 0 0 1 12 21.5a9.2 9.2 0 0 1-3.702-.749 9.6 9.6 0 0 1-3.016-2.032 9.6 9.6 0 0 1-2.032-3.016A9.2 9.2 0 0 1 2.5 12a9.26 9.26 0 0 1 1.814-5.564L1.28 3.404l1.069-1.07L21.86 21.846zM20 17.145 6.856 4q1.419-.954 3.211-1.333 1.793-.378 3.777.004-.147 1.077.198 1.997.347.921 1.034 1.557a4 4 0 0 0 1.645.91q.958.274 2.064.063-.555 1.58.428 2.72.983 1.137 2.256 1.246a9.9 9.9 0 0 1-.266 3.17A9.4 9.4 0 0 1 20 17.145"/></svg>