<svg xmlns="http://www.w3.org/2000/svg" width="24" height="24" viewBox="0 0 24 24" fill='currentColor'><path d="m19.54 19.317.624-.623-1.885-1.884v-2.771h-.885v3.132zm-1.688 2.327q-1.956 0-3.318-1.349-1.36-1.349-1.361-3.305 0-1.955 1.361-3.31 1.362-1.353 3.318-1.353 1.94 0 3.29 1.361 1.348 1.362 1.348 3.303t-1.349 3.297-3.289 1.356M2.5 19.5v-15h19v6.806a6 6 0 0 0-.715-.426 5.6 5.6 0 0 0-.785-.324V8.404H4v3.192h9.692a6.45 6.45 0 0 0-2.023 2.281 6.4 6.4 0 0 0-.76 3.085q0 .675.132 1.317t.38 1.221z"/></svg>