<svg xmlns="http://www.w3.org/2000/svg" width="24" height="24" viewBox="0 0 24 24" fill='currentColor'><path d="m16.967 21.404-.203-1.192a4 4 0 0 1-.726-.292 3 3 0 0 1-.644-.462l-1.142.392-.77-1.258.92-.788a3.4 3.4 0 0 1 0-1.684l-.92-.79.77-1.257 1.142.393a2.6 2.6 0 0 1 .639-.463q.345-.175.73-.292l.204-1.192h1.5l.204 1.192q.387.117.731.292.345.175.638.463l1.143-.393.769 1.258-.92.788a3.4 3.4 0 0 1 0 1.685l.92.788-.77 1.258-1.142-.392a3 3 0 0 1-.643.462 4 4 0 0 1-.726.291l-.204 1.193zm.75-2.366q.864 0 1.47-.606.607-.607.607-1.47 0-.864-.607-1.47a2 2 0 0 0-1.47-.608q-.863 0-1.47.607a2 2 0 0 0-.607 1.47q0 .864.607 1.47.607.607 1.47.607M2.5 19.5v-15h19v6.806a6 6 0 0 0-.715-.426 5.6 5.6 0 0 0-.785-.324V8.404H4v3.192h9.692a6.45 6.45 0 0 0-2.023 2.281 6.4 6.4 0 0 0-.76 3.085q0 .675.132 1.317t.38 1.221z"/></svg>