<svg xmlns="http://www.w3.org/2000/svg" width="24" height="24" viewBox="0 0 24 24" fill='currentColor'><g clip-path="url(#a)"><path d="M12.02 23.5a11.3 11.3 0 0 1-4.246-.799 11.6 11.6 0 0 1-3.551-2.215 11.7 11.7 0 0 1-2.536-3.336A11.2 11.2 0 0 1 .5 13H2q.2 1.848 1.001 3.444a10 10 0 0 0 2.066 2.797q1.266 1.2 2.903 1.918a9.8 9.8 0 0 0 3.496.81l-1.743-1.742 1.054-1.054 3.98 3.98a8 8 0 0 1-1.36.273q-.685.075-1.378.074m2.98-5v-2H7.5V9h-2V7.5h2v-2H9V15h10v1.5h-2.5v2zm0-5V9h-4.5V7.5h6v6zm7-2.5a9.7 9.7 0 0 0-.993-3.444 10.1 10.1 0 0 0-2.074-2.796q-1.266-1.2-2.903-1.919a9.8 9.8 0 0 0-3.496-.81l1.743 1.742-1.054 1.054-3.98-3.98a8 8 0 0 1 1.36-.273q.687-.075 1.38-.074 2.244 0 4.245.799a11.6 11.6 0 0 1 3.551 2.215 11.7 11.7 0 0 1 2.537 3.336A11.2 11.2 0 0 1 23.5 11z"/></g><defs><clipPath id="a"><path d="M0 0h24v24H0z"/></clipPath></defs></svg>