<svg xmlns="http://www.w3.org/2000/svg" width="24" height="24" viewBox="0 0 24 24" fill='currentColor'><path d="M16.154 9.923q-.577 0-.981-.404a1.34 1.34 0 0 1-.404-.98q0-.578.404-.981.405-.404.98-.404.578 0 .981.404.405.404.404.98 0 .578-.404.981-.404.404-.98.404m-8.308 0q-.576 0-.98-.404a1.34 1.34 0 0 1-.405-.98q0-.578.404-.981.405-.404.981-.404.578 0 .98.404.405.404.405.98 0 .578-.404.981-.404.404-.98.404M12 12.461q-.578 0-.98-.403a1.34 1.34 0 0 1-.405-.981q0-.578.404-.98.404-.405.98-.405.578 0 .982.404.403.404.403.981 0 .576-.403.98-.404.404-.981.404m0-5.076q-.578 0-.98-.404A1.34 1.34 0 0 1 10.614 6q0-.578.404-.98.404-.405.98-.405.578 0 .982.404.403.404.403.981 0 .578-.403.98-.404.405-.981.405m0 12a7 7 0 0 1-1.846-.256v-3.296q0-.818.542-1.402.543-.585 1.304-.585t1.304.585.542 1.402v3.296a7 7 0 0 1-1.846.256m-3.23-.743a8.5 8.5 0 0 1-1.706-.92 3.3 3.3 0 0 1-1.031-1.203 3.4 3.4 0 0 1-.38-1.569q0-.594-.127-1.107a3 3 0 0 0-.45-.985q-.23-.306-.864-.919a89 89 0 0 1-1.164-1.144.87.87 0 0 1-.254-.643.87.87 0 0 1 .902-.896q.393 0 .646.253l3.53 3.345q.46.415.679.985.218.569.218 1.161zm6.46 0v-3.638q0-.599.231-1.174.231-.576.668-.972l3.535-3.348a.94.94 0 0 1 .658-.254q.382 0 .637.255.255.256.256.645 0 .39-.253.64-.53.528-1.168 1.132-.639.604-.871.93a2.9 2.9 0 0 0-.45.978 4.7 4.7 0 0 0-.127 1.117q0 .83-.379 1.575a3.26 3.26 0 0 1-1.048 1.214 8.5 8.5 0 0 1-1.688.9"/></svg>