<svg xmlns="http://www.w3.org/2000/svg" width="24" height="24" viewBox="0 0 24 24" fill='currentColor'><path d="M9.51 21.5q-1.664 0-2.837-1.159Q5.5 19.183 5.5 17.538q0-.797.382-1.478.381-.68 1.33-1.58.303-.264.537-.557.234-.292.536-.635A15.7 15.7 0 0 1 6.452 9.46q-.635-1.993-.635-3.912 0-1.276.4-1.932.4-.654 1.149-.655 1.125 0 2.14 1.207a11.7 11.7 0 0 1 1.619 2.472q.321.713.537 1.47T12 9.638q.12-.77.342-1.528t.548-1.47q.58-1.264 1.598-2.472 1.02-1.207 2.146-1.207.75 0 1.149.655.4.655.4 1.932 0 1.92-.635 3.912a15.7 15.7 0 0 1-1.833 3.828q.303.343.536.635t.537.558q.95.9 1.33 1.58.382.68.382 1.477 0 1.645-1.173 2.803-1.173 1.16-2.837 1.159-1.028 0-1.76-.28l-.73-.278-.73.279q-.732.279-1.76.279m.038-1.5q.546 0 1.121-.142a4.4 4.4 0 0 0 1.075-.418 1.3 1.3 0 0 1-.466-.4q-.21-.277-.21-.482 0-.201.268-.336.268-.136.664-.136.386 0 .65.14t.264.332q0 .205-.211.481a1.3 1.3 0 0 1-.466.401q.5.276 1.075.418t1.12.142q1.07 0 1.81-.716.739-.714.739-1.746 0-.488-.265-.923-.264-.435-.803-.888a7 7 0 0 1-.527-.487q-.195-.206-.57-.677-.793-1-1.297-1.281Q13.015 13 11.991 13q-1.026 0-1.537.282t-1.289 1.281q-.375.471-.57.677-.197.207-.528.487-.538.454-.803.888Q7 17.05 7 17.538q0 1.032.74 1.746.738.716 1.808.716m.952-3.25q-.2 0-.35-.225A.9.9 0 0 1 10 16q0-.3.15-.525t.35-.225.35.225T11 16t-.15.525-.35.225m3 0q-.2 0-.35-.225A.9.9 0 0 1 13 16q0-.3.15-.525t.35-.225.35.225T14 16t-.15.525-.35.225m-4.136-4.562a2.8 2.8 0 0 1 .648-.36q.355-.14.78-.226a11.2 11.2 0 0 0-.343-2.292 12 12 0 0 0-.758-2.143q-.485-1.057-1.08-1.77-.594-.71-1.169-.91a3 3 0 0 0-.087.42 4 4 0 0 0-.038.612q0 1.653.533 3.383.533 1.732 1.514 3.286m5.272 0a13.7 13.7 0 0 0 1.514-3.286q.533-1.73.533-3.383 0-.36-.038-.611a3 3 0 0 0-.087-.422q-.575.201-1.17.912-.594.711-1.078 1.77-.45.993-.744 2.142-.293 1.15-.358 2.292.394.07.749.22.354.147.68.366"/></svg>