<svg xmlns="http://www.w3.org/2000/svg" width="24" height="24" viewBox="0 0 24 24" fill='currentColor'><path d="M12 20.5q-1.121 0-2.52-.203a15 15 0 0 1-2.659-.63Q5.56 19.24 4.626 18.58 3.692 17.918 3.5 17v-2.72q.192.916 1.126 1.579.933.66 2.195 1.088t2.66.63q1.397.203 2.519.203 1.07 0 2.41-.184a14.5 14.5 0 0 0 2.588-.597l1.913 1.913q-1.415.824-3.389 1.206-1.974.383-3.522.383m8.371-2.954-1.404-1.404a4.3 4.3 0 0 0 1.018-.835 2.23 2.23 0 0 0 .524-1.028v2.461q0 .228-.03.419t-.108.387M12 15.759q-1.121 0-2.52-.202a15 15 0 0 1-2.659-.63Q5.56 14.5 4.626 13.838q-.934-.66-1.126-1.578V9.529q.192.917 1.126 1.579.933.66 2.195 1.088t2.66.63q1.397.203 2.519.203.213 0 .46-.008t.523-.038l2.415 2.415q-.91.18-1.784.271-.876.09-1.614.09m5.594-.99-2.113-2.113q1.809-.377 3.284-1.146t1.745-1.98v2.73q-.163.849-.97 1.466t-1.945 1.044m-6.61-3.785q-3.188-.174-5.336-1.227T3.5 7.26q0-.612.413-1.161.414-.549 1.166-1.02zm2.775-.05L7.048 4.223q1.048-.337 2.305-.525a18 18 0 0 1 2.656-.188q3.549 0 6.025 1.098T20.51 7.26q0 1.353-1.919 2.376t-4.832 1.298m5.814 10.762L2.304 4.426l1.054-1.068 17.284 17.284z"/></svg>