<svg xmlns="http://www.w3.org/2000/svg" width="24" height="24" viewBox="0 0 24 24" fill='currentColor'><path d="M11 9.75q.729 0 1.24-.51.51-.511.51-1.24t-.51-1.24T11 6.25t-1.24.51q-.51.511-.51 1.24t.51 1.24 1.24.51m.01 4q.98 0 1.862-.393a4.7 4.7 0 0 0 1.559-1.124 7.2 7.2 0 0 0-1.689-.736 6.3 6.3 0 0 0-1.733-.247q-.966 0-1.848.252a5.4 5.4 0 0 0-1.582.73 4.6 4.6 0 0 0 1.549 1.125 4.6 4.6 0 0 0 1.881.393m9.879 7.202-4.98-4.979a8.6 8.6 0 0 1-2.267 1.312q-1.203.465-2.642.465-3.244 0-5.497-2.253T3.25 10t2.253-5.497T11 2.25t5.497 2.253T18.75 10q0 1.438-.47 2.647a8.7 8.7 0 0 1-1.317 2.272l4.98 4.97z"/></svg>