<svg xmlns="http://www.w3.org/2000/svg" width="24" height="24" viewBox="0 0 24 24" fill='currentColor'><path d="M3.5 19.5v-17h17v8.662a4 4 0 0 0-.436-.039 13 13 0 0 0-.449-.007h-5.75q-.963 0-1.82.296a5.8 5.8 0 0 0-1.582.838H7.25v3.5h.96q-.08.308-.106.613a7 7 0 0 0-.027.637q0 .66.157 1.291t.45 1.209zm3.75-9.75h3.5v-3.5h-3.5zM14 20.5q-1.444 0-2.472-1.028T10.5 17t1.028-2.472T14 13.5h1.904V15H14q-.825 0-1.412.588A1.93 1.93 0 0 0 12 17q0 .824.588 1.413Q13.175 19 14 19h1.904v1.5zm-.75-10.75h3.5v-3.5h-3.5zm.75 8v-1.5h6v1.5zm4.096 2.75V19H20q.824 0 1.413-.587Q22 17.825 22 17t-.587-1.412A1.93 1.93 0 0 0 20 15h-1.904v-1.5H20q1.443 0 2.472 1.018t1.028 2.485q0 1.445-1.028 2.471A3.37 3.37 0 0 1 20 20.5z"/></svg>