<svg xmlns="http://www.w3.org/2000/svg" width="24" height="24" viewBox="0 0 24 24" fill='currentColor'><path d="M19.385 20.27a.85.85 0 0 0 .625-.26.85.85 0 0 0 .26-.626.85.85 0 0 0-.26-.625.85.85 0 0 0-.626-.259.85.85 0 0 0-.625.259.85.85 0 0 0-.259.625q0 .368.259.627a.85.85 0 0 0 .625.258M12 21.5a9.3 9.3 0 0 1-4.65-1.21q-2.148-1.211-3.394-3.267l4.16-4.16 3.274 2.8 4.86-4.834v1.921h1.5v-4.5h-4.5v1.5h1.93l-3.86 3.861-3.31-2.775-4.794 4.795a8 8 0 0 1-.533-1.787A10.3 10.3 0 0 1 2.5 12q0-1.972.748-3.705a9.6 9.6 0 0 1 2.03-3.016 9.6 9.6 0 0 1 3.016-2.03 9.25 9.25 0 0 1 3.704-.749q1.972 0 3.706.748a9.6 9.6 0 0 1 3.017 2.03 9.6 9.6 0 0 1 2.03 3.017A9.25 9.25 0 0 1 21.5 12v9.5z"/></svg>