<svg xmlns="http://www.w3.org/2000/svg" width="24" height="24" viewBox="0 0 24 24" fill='currentColor'><path d="M3.5 19.75v-1.5H15v1.5zm12.502-7q-1.971 0-3.361-1.389-1.392-1.389-1.391-3.36t1.389-3.36q1.389-1.392 3.36-1.391t3.36 1.389 1.391 3.36q0 1.97-1.389 3.36-1.389 1.392-3.36 1.391m-12.502-1v-1.5h5.839q.135.415.308.786.173.37.41.714zm0 4v-1.5h9.333a6.7 6.7 0 0 0 1.033.448q.543.185 1.134.265v.787zm12.058-6.866h.884V5.096h-.884zM16 10.942a.48.48 0 0 0 .35-.15.48.48 0 0 0 0-.7.48.48 0 0 0-.7 0 .48.48 0 0 0 0 .7q.15.15.35.15"/></svg>