<svg xmlns="http://www.w3.org/2000/svg" width="24" height="24" viewBox="0 0 24 24" fill='currentColor'><path d="M12 21.5a9.2 9.2 0 0 1-3.703-.749 9.5 9.5 0 0 1-3.016-2.04 9.7 9.7 0 0 1-2.032-3.023A9.2 9.2 0 0 1 2.5 12q0-3.675 2.422-6.365T11 2.55v2.115q-2.787.38-4.585 2.467-1.8 2.087-1.8 4.868 0 3.063 2.161 5.224T12 19.384q1.765 0 3.309-.767 1.543-.767 2.537-2.044l1.831 1.077a9.46 9.46 0 0 1-3.321 2.82Q14.355 21.5 12 21.5m8.708-5.7-1.831-1.058q.244-.59.376-1.29T19.385 12q0-2.81-1.819-4.892T13 4.665V2.55q3.588.346 6.044 3.051T21.5 12q0 1.042-.19 2.005a7.2 7.2 0 0 1-.602 1.795"/></svg>