<svg xmlns="http://www.w3.org/2000/svg" width="24" height="24" viewBox="0 0 24 24" fill='currentColor'><path d="M11.246 17.764q-.017.713.121 1.408.139.695.414 1.328a18 18 0 0 1-2.51-.226 14.4 14.4 0 0 1-2.586-.637q-1.218-.427-2.105-1.081Q3.692 17.902 3.5 17v-2.721q.183.83.986 1.46.804.628 1.916 1.06t2.401.67q1.29.24 2.443.294m2.265-4.847a6.2 6.2 0 0 0-1.19 1.262 5.8 5.8 0 0 0-.78 1.565 17.4 17.4 0 0 1-2.506-.261 14.5 14.5 0 0 1-2.5-.658q-1.17-.428-2.006-1.065-.836-.639-1.029-1.5v-2.73q.192.917 1.126 1.579.933.66 2.195 1.088 1.262.427 2.66.63t2.519.203q.38 0 .755-.032t.756-.08M12 11q-3.548 0-6.029-1.098T3.491 7.25t2.48-2.652T12 3.5q3.547 0 6.024 1.098Q20.499 5.696 20.5 7.25t-2.476 2.652T12 11m5.462 9.702h.884v-4.1l1.8 1.8.623-.623-2.865-2.865-2.865 2.865.623.623 1.8-1.8zm.442 1.606q-1.873 0-3.187-1.314-1.313-1.313-1.313-3.186 0-1.874 1.313-3.187 1.314-1.313 3.187-1.313t3.186 1.313 1.314 3.187-1.314 3.186q-1.312 1.314-3.186 1.314"/></svg>