<svg xmlns="http://www.w3.org/2000/svg" width="24" height="24" viewBox="0 0 24 24" fill='currentColor'><path d="m17.712 21.394-1.054-1.044 1.825-1.85H11.99V17h6.492l-1.825-1.85 1.053-1.044 3.645 3.644zm-14.587-8.48v-2.347h2.346v2.347zm6.663 0q-1.296 0-2.21-.916a3 3 0 0 1-.915-2.21v-4q0-1.295.916-2.21a3 3 0 0 1 2.21-.914q1.296 0 2.21.915.915.915.915 2.21v4q0 1.295-.916 2.21-.915.915-2.21.915m8.442 0q-1.296 0-2.21-.916a3 3 0 0 1-.914-2.21v-4q0-1.295.915-2.21a3 3 0 0 1 2.21-.914q1.296 0 2.21.915.915.915.915 2.21v4q0 1.295-.916 2.21-.915.915-2.21.915m-8.441-1.5q.676 0 1.15-.474.475-.474.475-1.151v-4q0-.678-.474-1.151a1.57 1.57 0 0 0-1.151-.474q-.677 0-1.152.474-.474.475-.473 1.15v4q0 .678.473 1.152.474.474 1.152.474m8.442 0q.677 0 1.15-.474.475-.474.475-1.151v-4q0-.678-.474-1.151a1.57 1.57 0 0 0-1.151-.474q-.677 0-1.151.474-.474.475-.474 1.15v4q0 .678.474 1.152t1.15.474"/></svg>