<svg xmlns="http://www.w3.org/2000/svg" width="24" height="24" viewBox="0 0 24 24" fill='currentColor'><path d="M3.875 12.885v-2.876H1.692L4.856 5.25v2.875h2.183zM7.127 19.5a2.65 2.65 0 0 1-1.947-.803 2.65 2.65 0 0 1-.803-1.947q0-.567.264-1.055.263-.487.657-.887L10.956 6H7.079l.319-1.5h10.506l-.867 3.75h2.502l2.855 3.808-.932 4.692h-1.578q0 1.145-.802 1.947a2.65 2.65 0 0 1-1.947.803 2.65 2.65 0 0 1-1.948-.803 2.65 2.65 0 0 1-.802-1.947H9.877a2.65 2.65 0 0 1-.803 1.947 2.65 2.65 0 0 1-1.947.803M7.25 18q.522 0 .886-.364t.364-.886-.364-.886a1.2 1.2 0 0 0-.886-.364q-.521 0-.885.364A1.2 1.2 0 0 0 6 16.75q0 .522.365.886.364.364.885.364m9.885 0q.52 0 .885-.364t.365-.886-.365-.886a1.2 1.2 0 0 0-.885-.364q-.522 0-.886.364a1.2 1.2 0 0 0-.364.886q0 .522.364.886t.886.364m-1.23-4.875h4.74l.138-.708-1.995-2.667h-2.096z"/></svg>