<svg xmlns="http://www.w3.org/2000/svg" width="24" height="24" viewBox="0 0 24 24" fill='currentColor'><path d="M16.904 2.625q1.448.01 2.474 1.03a3.36 3.36 0 0 1 1.026 2.47q0 .256-.033.699-.033.444-.108 1.034L18.88 17.933a1.82 1.82 0 0 1-.69 1.242 2.12 2.12 0 0 1-1.36.475q-.488 0-.885-.235a2.2 2.2 0 0 1-.673-.619l-2.82-3.967a.5.5 0 0 0-.2-.181.6.6 0 0 0-.276-.062q-.138 0-.477.293L8.754 18.72q-.301.414-.723.671a1.7 1.7 0 0 1-.91.258q-.766 0-1.348-.487a1.9 1.9 0 0 1-.677-1.255l-1.36-10.05q-.075-.59-.107-1.034a10 10 0 0 1-.033-.699q0-1.448 1.026-2.474a3.37 3.37 0 0 1 2.474-1.026q.814 0 1.341.237.528.239 1.028.513.501.275 1.077.513.577.237 1.458.237.89 0 1.472-.237.582-.239 1.082-.513.5-.275 1.03-.513.531-.237 1.32-.237"/></svg>