<svg xmlns="http://www.w3.org/2000/svg" width="24" height="24" viewBox="0 0 24 24" fill='currentColor'><path d="m16.779 20.692-4.029-2.346V13.68l4.029-2.346 4.029 2.346v4.652zM2.5 19.308v-2.224a2.52 2.52 0 0 1 1.466-2.323q1.245-.621 2.692-1.037 1.446-.417 3.342-.416h.292q.131 0 .262.03-.58 1.455-.49 3.06.092 1.608.917 2.91zm7.5-7.616q-1.448 0-2.474-1.026A3.37 3.37 0 0 1 6.5 8.192q0-1.448 1.026-2.474A3.37 3.37 0 0 1 10 4.692q1.448 0 2.474 1.026A3.37 3.37 0 0 1 13.5 8.192q0 1.449-1.026 2.474A3.37 3.37 0 0 1 10 11.692m4.496 2.312 2.283 1.327 2.282-1.327-2.282-1.312zm2.879 4.95 2.24-1.29v-2.741l-2.24 1.335zm-3.433-1.29 2.24 1.315v-2.696l-2.24-1.325z"/></svg>