<svg xmlns="http://www.w3.org/2000/svg" width="24" height="24" viewBox="0 0 24 24" fill='currentColor'><path d="m12 11.139-6.175-3.57-.816.464v.779l6.996 4.05L19 8.812V8.03l-.825-.462zm-8.5 5.698V7.162L12 2.277l8.5 4.887v5.52a6 6 0 0 0-1.209-.374A6.5 6.5 0 0 0 18 12.183q-2.772 0-4.732 1.96t-1.96 4.732q0 .58.096 1.138t.298 1.081l.221.585zM18 21.664a.46.46 0 0 0 .34-.14.46.46 0 0 0 .14-.341.46.46 0 0 0-.14-.34.46.46 0 0 0-.34-.14.46.46 0 0 0-.34.14.46.46 0 0 0-.14.34q0 .2.14.34t.34.14m-.442-1.962h.884v-3.615h-.884zM18 23.375q-1.873 0-3.187-1.313-1.313-1.314-1.313-3.187t1.313-3.186T18 14.375t3.186 1.314 1.314 3.186q0 1.872-1.314 3.187-1.312 1.313-3.186 1.313"/></svg>