<svg xmlns="http://www.w3.org/2000/svg" width="24" height="24" viewBox="0 0 24 24" fill='currentColor'><path d="m19.804 21.927-5.273-5.273H7.346V9.469L2.073 4.196l1.054-1.069 17.746 17.746zM8.846 15.154h4.185l-4.185-4.185zm7.808-1.325-1.5-1.5V8.846H11.67l-1.5-1.5h6.483zM7.346 20.5v-1.616h1.615V20.5zm0-15.385V3.5h1.615v1.615zM11.192 20.5v-1.616h1.616V20.5zm0-15.385V3.5h1.616v1.615zm3.847 0V3.5h1.615v1.615zm0 15.385v-1.616h1.615V20.5zm3.845-15.385V3.5H20.5v1.615zM3.5 20.5v-1.616h1.615V20.5zm0-3.846v-1.615h1.615v1.615zm0-3.846v-1.616h1.615v1.616zm0-3.847V7.346h1.615v1.615zm15.385 7.693v-1.615H20.5v1.615zm0-3.846v-1.616H20.5v1.616zm0-3.847V7.346H20.5v1.615z"/></svg>