<svg xmlns="http://www.w3.org/2000/svg" width="24" height="24" viewBox="0 0 24 24" fill='currentColor'><path d="M7.058 15.74h6.5q.945 0 1.597-.664.653-.663.653-1.61 0-.944-.674-1.598a2.25 2.25 0 0 0-1.626-.652h-.135v-.058a3.08 3.08 0 0 0-1.074-2.087 3.3 3.3 0 0 0-2.241-.83 3.14 3.14 0 0 0-1.743.511 3.2 3.2 0 0 0-1.186 1.37l-.067.134-.145.01a2.65 2.65 0 0 0-1.856.835 2.63 2.63 0 0 0-.753 1.887q0 1.146.802 1.95a2.65 2.65 0 0 0 1.948.802m.308 6.76V21h1.461v-2.404H1.5V5.385h17.115v13.211H11.29V21h1.461v1.5zM21 13.721V3H5.404V1.5H22.5v12.221z"/></svg>