<svg xmlns="http://www.w3.org/2000/svg" width="24" height="24" viewBox="0 0 24 24" fill='currentColor'><path d="M2.5 7V2.5H7V4H4v3zm0 14.5V17H4v3h3v1.5zm14.5 0V20h3v-3h1.5v4.5zM20 7V4h-3V2.5h4.5V7zm-6.5 2.346a1.78 1.78 0 0 1-1.307-.54 1.78 1.78 0 0 1-.54-1.306q0-.767.54-1.307t1.307-.54 1.307.54.54 1.307-.54 1.307-1.307.54m-4.392 8.346 1.019-5.215-2.377.96v3.313h-1.5v-4.296l3.97-1.681q.76-.316 1.118-.42.36-.103.662-.103.457 0 .85.241.392.242.639.644l1 1.6q.639 1.03 1.752 1.734t2.509.762v1.5a6.8 6.8 0 0 1-2.948-.784q-1.423-.735-2.427-2.13l-.767 3.875z"/></svg>