<svg xmlns="http://www.w3.org/2000/svg" width="24" height="24" viewBox="0 0 24 24" fill='currentColor'><path d="M17.212 18q1.478 0 2.518-1.04 1.04-1.039 1.04-2.518t-1.04-2.518-2.518-1.04-2.519 1.04-1.04 2.518q0 1.48 1.04 2.518Q15.733 18 17.212 18m-14.5 3.5v-19h11v5.58a6.2 6.2 0 0 0-1.5 1.137V6.75h-8v10.5h6.338a6.2 6.2 0 0 0 1.14 1.915 7.4 7.4 0 0 0 1.718 1.45v.885zm12.25 0v-2.523a4.93 4.93 0 0 1-2.056-1.859 5 5 0 0 1-.752-2.676q0-1.46.752-2.676a4.93 4.93 0 0 1 2.055-1.858V7.385h4.5v2.523a4.9 4.9 0 0 1 2.056 1.858q.752 1.217.752 2.676a5 5 0 0 1-.752 2.676 4.93 4.93 0 0 1-2.055 1.859V21.5z"/></svg>