<svg xmlns="http://www.w3.org/2000/svg" width="24" height="24" viewBox="0 0 24 24" fill='currentColor'><path d="M15.5 10.75q-.52 0-.884-.366a1.2 1.2 0 0 1-.366-.884q0-.287.175-.625.175-.339.392-.644.217-.306.422-.542l.261-.304.261.304q.205.236.422.542t.392.644.175.625q0 .52-.366.884a1.2 1.2 0 0 1-.884.366m4-3q-.52 0-.884-.365a1.2 1.2 0 0 1-.366-.885q0-.287.175-.625t.392-.644.421-.542l.262-.304.262.304q.204.236.42.542.218.305.393.644t.175.625q0 .519-.366.885a1.2 1.2 0 0 1-.884.365m0 6q-.52 0-.884-.366a1.2 1.2 0 0 1-.366-.884q0-.287.175-.625.175-.339.392-.644.217-.306.421-.543l.262-.303.262.303q.204.237.42.543.218.305.393.644t.175.625q0 .52-.366.884a1.2 1.2 0 0 1-.884.366M9.077 20.5q-1.873 0-3.186-1.314Q4.577 17.874 4.577 16q0-1.123.525-2.098a4.65 4.65 0 0 1 1.475-1.633V6q0-1.048.726-1.774A2.4 2.4 0 0 1 9.077 3.5q1.048 0 1.774.726T11.577 6v6.27a4.65 4.65 0 0 1 1.475 1.632q.525.976.525 2.098 0 1.873-1.313 3.186Q10.95 20.5 9.077 20.5m-3-4.5h6q0-.735-.356-1.393a3.4 3.4 0 0 0-1.017-1.142L10.077 13V6a.97.97 0 0 0-.287-.713A.97.97 0 0 0 9.077 5a.97.97 0 0 0-.712.287.97.97 0 0 0-.288.713v7l-.627.465q-.662.483-1.017 1.142A2.9 2.9 0 0 0 6.077 16"/></svg>