<svg xmlns="http://www.w3.org/2000/svg" width="24" height="24" viewBox="0 0 24 24" fill='currentColor'><path d="M19.575 20.5q-2.913 0-5.803-1.297t-5.279-3.691q-2.39-2.395-3.691-5.286Q3.5 7.334 3.5 4.425V3.5h5.17l.886 4.554-2.773 2.692q.617 1.08 1.32 2.009.704.927 1.49 1.697.762.783 1.697 1.479t2.08 1.338l2.755-2.803 4.375.89V20.5zM12.212 8.02v-.885h1.904v-.943H12.21V3.5H15v.885h-1.904v.923H15v2.711zm3.692 0V3.5h.884v4.52zm1.788 0V3.5H20.5v2.692h-1.923V8.02zm.885-2.712h1.038v-.923h-1.038z"/></svg>