<svg xmlns="http://www.w3.org/2000/svg" width="24" height="24" viewBox="0 0 24 24" fill='currentColor'><path d="M4.192 14.158h.952l.566-1.592h2.734l.581 1.592h.946L7.604 7.86H6.55zm1.824-2.421 1.036-2.868h.05l1.037 2.867zm6.734 5.448q1.158-.602 2.333-.884a10.4 10.4 0 0 1 4.223-.122q.906.16 1.694.46V6.69a6.6 6.6 0 0 0-1.655-.539 10 10 0 0 0-1.845-.17q-1.242 0-2.47.343a8.2 8.2 0 0 0-2.28 1.03zm-.75 2.2a9.8 9.8 0 0 0-2.61-1.38 8.7 8.7 0 0 0-2.89-.486q-1.277 0-2.597.423A8.1 8.1 0 0 0 1.5 19.175V5.81q.975-.634 2.314-.982A10.7 10.7 0 0 1 6.5 4.481q1.46 0 2.852.399 1.392.4 2.648 1.178 1.256-.78 2.648-1.178a10.3 10.3 0 0 1 2.852-.4q1.349 0 2.682.348 1.334.347 2.318.982v13.365a7.9 7.9 0 0 0-2.395-1.233 8.6 8.6 0 0 0-2.605-.423q-1.49 0-2.89.487A9.8 9.8 0 0 0 12 19.384m1.942-9.639V8.431a8 8 0 0 1 1.707-.569 9 9 0 0 1 1.851-.189q.602 0 1.17.086.566.085 1.138.226v1.253a6.5 6.5 0 0 0-1.117-.284 7.6 7.6 0 0 0-1.191-.089 7.5 7.5 0 0 0-3.558.881m0 5.481v-1.335a7.5 7.5 0 0 1 1.702-.568 9 9 0 0 1 1.856-.19q.602.001 1.17.086.566.085 1.138.226V14.7a6.5 6.5 0 0 0-1.117-.285 7.6 7.6 0 0 0-1.191-.088q-.96 0-1.859.23t-1.699.67m0-2.73v-1.335a8 8 0 0 1 1.707-.569 9 9 0 0 1 1.851-.19q.602.001 1.17.086.566.086 1.138.226v1.254a6.5 6.5 0 0 0-1.117-.284 7.6 7.6 0 0 0-1.191-.089q-.96 0-1.859.238-.899.237-1.699.662"/></svg>