<svg xmlns="http://www.w3.org/2000/svg" width="24" height="24" viewBox="0 0 24 24" fill='currentColor'><path d="M12 8.942q-1.296 0-2.206-.91a3 3 0 0 1-.91-2.205q0-1.297.91-2.206A3 3 0 0 1 12 2.711q1.296 0 2.206.91t.91 2.206-.91 2.206a3 3 0 0 1-2.206.91m0 12.192-5.73-5.73a2.9 2.9 0 0 1-.664-1.005 3.3 3.3 0 0 1-.221-1.226q0-1.311.902-2.214.901-.9 2.213-.901.639 0 1.184.24.544.243.997.694L12 12.312l1.32-1.32q.441-.442.992-.688a2.9 2.9 0 0 1 1.188-.246q1.311 0 2.214.901.9.903.901 2.214 0 .662-.22 1.226-.223.563-.664 1.005z"/></svg>