<svg xmlns="http://www.w3.org/2000/svg" width="24" height="24" viewBox="0 0 24 24" fill='currentColor'><path d="m4.26 20.73-1.77-1.768h19l-1.769 1.769zm-.76-2.865a3.5 3.5 0 0 1 .414-.768q.255-.357.586-.678V8.77h-1V7.577h1v-.846h-1V5.539h1v-.847h-1V3.5h8.404v2.039H20.5V6.73h-8.596v2.038H8.192v6.466q.466.06.921.217.456.158.833.444a4.76 4.76 0 0 1 1.768-2.554 4.8 4.8 0 0 1 2.948-.976q2.016 0 3.427 1.397 1.41 1.398 1.411 3.402v.7zM8.192 5.54h2.212v-.847H8.192zm0 2.038h2.212v-.846H8.192zm-2.5-2.038H7v-.847H5.692zm0 2.038H7v-.846H5.692zm0 8.014q.318-.165.637-.25.319-.087.671-.14V8.769H5.692z"/></svg>