<svg xmlns="http://www.w3.org/2000/svg" width="24" height="24" viewBox="0 0 24 24" fill='currentColor'><path d="m4.5 21.5 1.77-1.77h11.46l1.77 1.77zm2.654-2.654.885-.884h-.375q-1.326 0-2.245-.934a3.1 3.1 0 0 1-.919-2.259V8.096q0-3.032 2.168-4.814T12 1.5t5.332 1.782T19.5 8.096v6.673q0 1.325-.92 2.259-.918.933-2.243.934h-.376l.885.884zM12 15.173q.587 0 .995-.409.41-.408.409-.995 0-.586-.409-.995a1.36 1.36 0 0 0-.995-.408q-.587 0-.995.408a1.36 1.36 0 0 0-.409.995q0 .587.409.995.408.41.995.409M6 9.577h12v-1.48q0-.595-.117-1.111A5 5 0 0 0 17.546 6H6.454a5 5 0 0 0-.337.986A5 5 0 0 0 6 8.095z"/></svg>