<svg xmlns="http://www.w3.org/2000/svg" width="24" height="24" viewBox="0 0 24 24" fill='currentColor'><path d="M7.885 20.5H5.768v-2.723Q5.3 17.421 4.9 16.77a2.74 2.74 0 0 1-.4-1.462V6q0-1.815 1.805-2.658Q8.109 2.5 12 2.5q4.03 0 5.765.81Q19.5 4.119 19.5 6v9.308q0 .81-.4 1.462t-.87 1.007V20.5h-2.114v-2H7.885zM6 10.5h12V6.77H6zm2.502 5.308q.546 0 .926-.383.38-.381.38-.927t-.383-.926a1.27 1.27 0 0 0-.927-.38q-.546 0-.926.383-.38.381-.38.927t.382.926.928.38m7 0q.546 0 .926-.383.38-.381.38-.927t-.383-.926a1.27 1.27 0 0 0-.927-.38q-.546 0-.926.383-.38.381-.38.927t.383.926q.381.38.927.38"/></svg>