<svg xmlns="http://www.w3.org/2000/svg" width="24" height="24" viewBox="0 0 24 24" fill='currentColor'><path d="M13.25 22.75v-5.836l-2.504-2.395-1.038 4.593-6.42-1.304.304-1.49 4.8.99 1.735-8.83-2.377.959v3.313h-1.5V8.454l3.97-1.68q.758-.318 1.118-.42.36-.104.662-.104.457 0 .85.241.392.242.639.644l1 1.6q.639 1.03 1.752 1.734t2.509.762v1.5a6.8 6.8 0 0 1-2.948-.784q-1.423-.735-2.427-2.13l-.744 3.76 2.119 2.039v7.134zm.25-17.404a1.78 1.78 0 0 1-1.307-.54 1.78 1.78 0 0 1-.54-1.306q0-.767.54-1.307t1.307-.54 1.307.54.54 1.307-.54 1.307-1.307.54"/></svg>