<svg xmlns="http://www.w3.org/2000/svg" width="24" height="24" viewBox="0 0 24 24" fill='currentColor'><path d="M6.192 20.23v-.73l1.5-1q-1.34 0-2.266-.926T4.5 15.308V6q0-1.835 1.78-2.667Q8.063 2.5 12 2.5q4.032 0 5.765.81Q19.5 4.119 19.5 6v9.308q0 1.34-.926 2.266t-2.266.926l1.5 1v.73zM6 10.5h5.25V6.77H6zm6.75 0H18V6.77h-5.25zm-4.248 5.308q.546 0 .926-.383.38-.381.38-.927t-.383-.926a1.27 1.27 0 0 0-.927-.38q-.546 0-.926.383-.38.381-.38.927t.382.926.928.38m7 0q.546 0 .926-.383.38-.381.38-.927t-.383-.926a1.27 1.27 0 0 0-.927-.38q-.546 0-.926.383-.38.381-.38.927t.383.926q.381.38.927.38"/></svg>