<svg xmlns="http://www.w3.org/2000/svg" width="24" height="24" viewBox="0 0 24 24" fill='currentColor'><path d="m4.335 18.48-1.906-6.797 2.071-.717V4.692h5v-3h5v3h5v6.274l2.11.736-1.945 6.779a4.65 4.65 0 0 1-1.953-.717Q16.836 17.19 16 16.25a9 9 0 0 1-1.79 1.59q-.98.66-2.21.66t-2.21-.66A9 9 0 0 1 8 16.25q-.826.94-1.708 1.514a4.7 4.7 0 0 1-1.957.717M2.25 22.5V21H4a6.83 6.83 0 0 0 4-1.3q.9.65 1.925.95a7.35 7.35 0 0 0 4.15 0A6.3 6.3 0 0 0 16 19.7a6.83 6.83 0 0 0 4 1.3h1.75v1.5H20q-1.05 0-2.05-.25A8.7 8.7 0 0 1 16 21.5a8.7 8.7 0 0 1-1.963.75A8.47 8.47 0 0 1 8 21.5a8.7 8.7 0 0 1-1.95.75q-1 .25-2.05.25zM6 10.47l6-1.95 6 1.95V6.191H6z"/></svg>