<svg xmlns="http://www.w3.org/2000/svg" width="24" height="24" viewBox="0 0 24 24" fill='currentColor'><path d="m12.439 21.5 1.732-1.596q2.617-2.433 3.55-3.774t.933-2.755q0-.506-.122-.965a3.7 3.7 0 0 0-.386-.91H21.5v10zm-9.939 0v-10h3.339a4.4 4.4 0 0 0-.361.908q-.132.478-.132.967 0 1.442.867 2.735.866 1.294 3.62 3.823l1.729 1.567zM19 10q-1.064 0-1.782-.718t-.718-1.78q0-1.04.718-1.771T18.998 5q1.04 0 1.771.73A2.4 2.4 0 0 1 21.5 7.5q0 1.064-.73 1.782A2.43 2.43 0 0 1 19 10m-7-1q-1.263 0-2.132-.867Q9 7.266 9 6.003q0-1.242.867-2.122T11.997 3q1.242 0 2.122.878Q15 4.758 15 6q0 1.263-.879 2.132a2.9 2.9 0 0 1-2.12.868m-5.154 4.375q0 1.063.962 2.315.96 1.25 3.811 3.845l.375.326.375-.355q2.7-2.478 3.742-3.775 1.043-1.297 1.043-2.356 0-1.077-.713-1.803a2.35 2.35 0 0 0-1.741-.726q-.614 0-1.137.29-.525.29-.929.708l-.65.665-.643-.65a4.5 4.5 0 0 0-.882-.708q-.494-.305-1.159-.305-1.083 0-1.768.726-.686.726-.686 1.803M5 10q-1.062 0-1.78-.718-.72-.718-.719-1.78 0-1.04.718-1.771T4.998 5q1.04 0 1.771.73.73.729.731 1.77 0 1.064-.73 1.782A2.43 2.43 0 0 1 5 10"/></svg>