<svg xmlns="http://www.w3.org/2000/svg" width="24" height="24" viewBox="0 0 24 24" fill='currentColor'><path d="m19.804 21.942-2.256-2.256a9.7 9.7 0 0 1-2.598 1.341A9.2 9.2 0 0 1 12 21.5a9.25 9.25 0 0 1-3.705-.748 9.6 9.6 0 0 1-3.016-2.03 9.6 9.6 0 0 1-2.03-3.017A9.25 9.25 0 0 1 2.5 12q0-1.548.473-2.95t1.34-2.598L2.059 4.196l1.07-1.069 17.745 17.746zM7.25 12.75h3.362l-1.5-1.5H7.25zm12.735 4.404L15.58 12.75h1.17v-1.5h-2.67L6.846 4.016A9.7 9.7 0 0 1 9.29 2.89 9.4 9.4 0 0 1 12 2.5q1.972 0 3.705.748a9.6 9.6 0 0 1 3.016 2.03 9.6 9.6 0 0 1 2.03 3.017 9.25 9.25 0 0 1 .75 3.705q0 1.413-.391 2.711a9.7 9.7 0 0 1-1.125 2.443"/></svg>