<svg xmlns="http://www.w3.org/2000/svg" width="24" height="24" viewBox="0 0 24 24" fill='currentColor'><path d="M16.5 19.154q1.107 0 1.88-.768.774-.769.774-1.886a2.56 2.56 0 0 0-.773-1.88 2.56 2.56 0 0 0-1.881-.774q-1.117 0-1.886.773a2.57 2.57 0 0 0-.768 1.881q0 1.117.768 1.886.769.768 1.886.768m5.1 3.5-2.748-2.733a4 4 0 0 1-1.104.544 4.1 4.1 0 0 1-1.248.189q-1.731 0-2.942-1.212-1.212-1.21-1.212-2.942 0-1.731 1.212-2.942 1.21-1.212 2.942-1.212 1.731 0 2.942 1.212 1.212 1.21 1.212 2.942 0 .665-.202 1.268a4.3 4.3 0 0 1-.556 1.109l2.748 2.723zM3.5 21.5v-19h9.75l5.25 5.25v2.76a6 6 0 0 0-.985-.265 5.6 5.6 0 0 0-1.015-.091q-2.95 0-4.664 1.98t-1.713 4.432q0 1.376.608 2.677t1.928 2.257zm9-13H17L12.5 4z"/></svg>