<svg xmlns="http://www.w3.org/2000/svg" width="24" height="24" viewBox="0 0 24 24" fill='currentColor'><path d="m21.877 16.527-1.054-1.054a4.75 4.75 0 0 0 1.057-1.591q.37-.909.37-1.882t-.37-1.879a4.9 4.9 0 0 0-1.047-1.594l1.044-1.054a6.3 6.3 0 0 1 1.392 2.073q.48 1.162.481 2.454 0 1.292-.48 2.454a6.3 6.3 0 0 1-1.393 2.073m-2.675-2-1.079-1.054a2.2 2.2 0 0 0 .465-.675q.162-.37.162-.798 0-.427-.162-.799a2.2 2.2 0 0 0-.465-.674l1.079-1.054q.512.515.78 1.159.268.643.268 1.37 0 .725-.268 1.368a3.6 3.6 0 0 1-.78 1.157m-7.2 7.223q-1.971 0-3.362-1.39Q7.25 18.972 7.25 17V7q0-1.971 1.389-3.36 1.389-1.39 3.36-1.39t3.36 1.39Q16.752 5.029 16.75 7v10q0 1.971-1.389 3.36-1.389 1.39-3.36 1.39M12 17.942q.8 0 1.372-.57.57-.57.57-1.372 0-.8-.57-1.372a1.87 1.87 0 0 0-1.372-.57q-.8 0-1.372.57-.57.57-.57 1.372 0 .8.57 1.372.57.57 1.372.57m0-.884q-.444 0-.751-.307a1.02 1.02 0 0 1-.307-.751q0-.444.307-.751.306-.307.751-.307t.751.307q.307.306.307.751 0 .444-.307.751a1.02 1.02 0 0 1-.751.307m0-7.116q.8 0 1.372-.57.57-.57.57-1.372 0-.8-.57-1.372A1.87 1.87 0 0 0 12 6.058q-.8 0-1.372.57-.57.57-.57 1.372 0 .8.57 1.372.57.57 1.372.57"/></svg>