<svg xmlns="http://www.w3.org/2000/svg" width="24" height="24" viewBox="0 0 24 24" fill='currentColor'><path d="M5.5 21.5v-19h13v19zm6.5-2.75q.8 0 1.372-.57.57-.57.57-1.372t-.57-1.372a1.87 1.87 0 0 0-1.372-.57q-.8 0-1.372.57-.57.57-.57 1.372 0 .8.57 1.372.57.57 1.372.57m0-.885q-.444 0-.751-.306a1.02 1.02 0 0 1-.307-.751q0-.445.307-.751.306-.307.751-.307t.751.307q.307.307.307.75 0 .445-.307.752a1.02 1.02 0 0 1-.751.306m0-4.519q.415 0 .67-.254.252-.254.253-.669h-1.846q0 .411.254.667.253.255.669.256m-3.692-1.423h7.384v-.884h-.923V8.913q0-1.04-.527-1.855-.526-.816-1.5-1.095V4.939h-1.484v1.02q-.974.349-1.5 1.133-.527.784-.527 1.824v2.123h-.923z"/></svg>