<svg xmlns="http://www.w3.org/2000/svg" width="24" height="24" viewBox="0 0 24 24" fill='currentColor'><path d="M9.366 12.885a.85.85 0 0 0 .625-.259.85.85 0 0 0 .259-.626.85.85 0 0 0-.259-.626.85.85 0 0 0-.625-.258.85.85 0 0 0-.626.258.85.85 0 0 0-.26.626q0 .368.26.626a.85.85 0 0 0 .626.258m5.268 0a.85.85 0 0 0 .627-.259.85.85 0 0 0 .258-.626.85.85 0 0 0-.258-.626.85.85 0 0 0-.626-.258.85.85 0 0 0-.626.258.85.85 0 0 0-.259.626q0 .368.259.626a.85.85 0 0 0 .625.258M3.75 20.5V19h1V3.5h6.808V19h.884V3.5h6.808V19h1v1.5z"/></svg>