<svg xmlns="http://www.w3.org/2000/svg" width="24" height="24" viewBox="0 0 24 24" fill='currentColor'><path d="M18.529 22.75q-.621 0-1.215-.095a6.6 6.6 0 0 1-1.158-.295L2.269 17.292l.395-1.126L9.602 18.7l1.773-4.479-3.806-3.802a1.59 1.59 0 0 1-.484-1.44q.123-.849.877-1.29l3.763-2.202q.367-.221.752-.254.384-.033.752.123.368.13.641.417.274.287.415.68l.325 1.074q.372 1.229 1.125 2.083.751.853 1.94 1.288l.535-1.62 1.127.364-.99 2.989q-1.87-.367-3.127-1.436T13.298 8.34l-3.14 1.835 3.025 3.537-2.168 5.5 3.476 1.26 2.148-6.464q.272.115.546.191.273.076.58.142l-2.163 6.55.9.323q.498.169.99.256a6 6 0 0 0 1.037.088q.63 0 1.204-.11a5.5 5.5 0 0 0 1.113-.342l.885.904a6.7 6.7 0 0 1-1.54.558 7.5 7.5 0 0 1-1.662.182M16.337 6.346q-.759 0-1.303-.544a1.78 1.78 0 0 1-.543-1.302q0-.758.543-1.302a1.78 1.78 0 0 1 1.303-.544q.758 0 1.302.544.543.545.544 1.302 0 .758-.544 1.302a1.78 1.78 0 0 1-1.302.544"/></svg>