<svg xmlns="http://www.w3.org/2000/svg" width="24" height="24" viewBox="0 0 24 24" fill='currentColor'><path d="M9 19.615q-.666 0-1.14-.474A1.56 1.56 0 0 1 7.384 18q0-.666.474-1.14A1.56 1.56 0 0 1 9 16.384q.666 0 1.14.474.475.475.475 1.141t-.474 1.14A1.56 1.56 0 0 1 9 19.616m6 0q-.666 0-1.14-.474A1.56 1.56 0 0 1 13.384 18q0-.666.474-1.14A1.56 1.56 0 0 1 15 16.384q.666 0 1.14.474.475.475.475 1.141t-.474 1.14a1.56 1.56 0 0 1-1.141.475m-6-6q-.666 0-1.14-.474A1.56 1.56 0 0 1 7.384 12q0-.666.474-1.14A1.56 1.56 0 0 1 9 10.384q.666 0 1.14.474.475.475.475 1.141t-.474 1.14A1.56 1.56 0 0 1 9 13.616m6 0q-.666 0-1.14-.474A1.56 1.56 0 0 1 13.384 12q0-.666.474-1.14A1.56 1.56 0 0 1 15 10.384q.666 0 1.14.474.475.475.475 1.141t-.474 1.14a1.56 1.56 0 0 1-1.141.475m-6-6q-.666 0-1.14-.474A1.56 1.56 0 0 1 7.384 6q0-.666.474-1.14A1.56 1.56 0 0 1 9 4.384q.666 0 1.14.474.475.475.475 1.141t-.474 1.14A1.56 1.56 0 0 1 9 7.616m6 0q-.666 0-1.14-.474A1.56 1.56 0 0 1 13.384 6q0-.666.474-1.14A1.56 1.56 0 0 1 15 4.384q.666 0 1.14.474.475.475.475 1.141t-.474 1.14A1.56 1.56 0 0 1 15 7.616"/></svg>