<svg xmlns="http://www.w3.org/2000/svg" width="24" height="24" viewBox="0 0 24 24" fill='currentColor'><path d="M13.316 21.5v-3.113l-1.907-.287q-1.191-.18-1.91-.824t-.718-1.54q0-.988.785-1.618.786-.63 1.94-.583.24 0 .428.031.189.032.357.047.182 0 .293-.1a.34.34 0 0 0 .11-.265 2.6 2.6 0 0 0-.327-.511 5 5 0 0 0-.488-.526 7 7 0 0 1-.73-.882 1.57 1.57 0 0 1-.287-.904q0-.748.446-1.226.445-.478 1.167-.478.213 0 .509.037.295.037.616.067.183 0 .27-.14.086-.138.086-.437a6 6 0 0 0-.015-.938 10 10 0 0 1-.045-.92q0-1.392.73-2.141t2.045-.749q1.188 0 1.982.68.793.68.778 1.686 0 .622-.253 1.182a8 8 0 0 0-.407 1.085q0 .153.096.264.097.11.24.11.165-.014.335-.056.171-.04.373-.041a2.34 2.34 0 0 1 1.707.713q.718.714.718 1.752 0 .912-.642 1.625a3.4 3.4 0 0 1-1.61.998 1.1 1.1 0 0 0-.375.197.36.36 0 0 0-.134.245q.098.175.344.336.246.16.617.293.706.293 1.098.8t.393 1.152q0 .922-.819 1.456-.818.534-2.012.823l-1.385.337V21.5zm-9.453-1-1.373-.623L7.288 9.339l1.373.613zM3.72 10.45a4.7 4.7 0 0 1-.91-1.484 4.8 4.8 0 0 1-.309-1.71q0-1.985 1.368-3.37T7.221 2.5q.894 0 1.72.317t1.493.927L9.381 4.788a3.1 3.1 0 0 0-.997-.587A3.3 3.3 0 0 0 7.24 4q-1.346 0-2.293.947A3.12 3.12 0 0 0 4 7.241q0 .59.201 1.143.201.552.587.997z"/></svg>