<svg xmlns="http://www.w3.org/2000/svg" width="24" height="24" viewBox="0 0 24 24" fill='currentColor'><path d="M10.417 16.102q-.396.405-.982.51-.587.103-1.287-.002a4 4 0 0 0-.495-.083.48.48 0 0 0-.401.15.53.53 0 0 0-.162.449l.054.537q.137.7.04 1.271a1.84 1.84 0 0 1-.492.987q-.412.437-1 .536a3.9 3.9 0 0 1-1.26-.007q-.475-.09-.765.021-.288.112-.713.567L1.9 20.042q.705-.73 1.157-.935t1.06-.177q.585.029.92.106.337.076.555-.127a.5.5 0 0 0 .168-.451q-.03-.268-.09-.546a5.2 5.2 0 0 1 .016-1.314q.09-.584.472-.974.38-.405.97-.51.589-.104 1.274.003.276.059.513.095a.45.45 0 0 0 .408-.138.54.54 0 0 0 .168-.466q-.031-.269-.091-.545a4.4 4.4 0 0 1-.014-1.315q.09-.584.472-.974.38-.405.97-.505a4 4 0 0 1 1.274.007q.276.06.512.09a.47.47 0 0 0 .409-.142.54.54 0 0 0 .168-.466q-.031-.268-.091-.546a4 4 0 0 1-.002-1.299q.104-.584.485-.989t.954-.513a3.3 3.3 0 0 1 1.182 0q.354.06.605.098a.47.47 0 0 0 .424-.135.54.54 0 0 0 .168-.466q-.031-.269-.091-.545a3.6 3.6 0 0 1-.04-1.272q.096-.571.492-.986.411-.437.993-.536a3.9 3.9 0 0 1 1.251.007q.477.09.773-.021.297-.113.721-.567l1.039.998q-.704.729-1.157.934t-1.06.177a5.6 5.6 0 0 1-.92-.106q-.337-.076-.556.127a.49.49 0 0 0-.159.451q.038.269.098.546.105.715.002 1.298-.104.585-.485.99a1.74 1.74 0 0 1-.954.52q-.574.115-1.167.009-.369-.075-.607-.114a.45.45 0 0 0-.412.135.58.58 0 0 0-.18.466q.018.268.078.546.105.73.02 1.314-.087.584-.468.974-.405.405-.988.512a3.4 3.4 0 0 1-1.189.001 6 6 0 0 0-.561-.08.5.5 0 0 0-.412.142.57.57 0 0 0-.175.449q.013.261.073.537.106.732.007 1.315-.099.584-.465.974M6 10.5q-1.863 0-3.182-1.318Q1.5 7.862 1.5 6q0-1.889 1.318-3.194Q4.138 1.5 6 1.5q1.889 0 3.194 1.306Q10.5 4.11 10.5 6q0 1.863-1.306 3.182Q7.89 10.5 6 10.5m8.5 12v-8h8v8z"/></svg>