<svg xmlns="http://www.w3.org/2000/svg" width="24" height="24" viewBox="0 0 24 24" fill='currentColor'><path d="M17.005 20.846a2.75 2.75 0 0 1-2.02-.831 2.75 2.75 0 0 1-.831-2.02q0-1.187.831-2.014a2.76 2.76 0 0 1 2.02-.827q1.187 0 2.014.827.828.827.827 2.015 0 1.186-.827 2.019a2.74 2.74 0 0 1-2.014.831m-.601-6.807v-1.885h1.192v1.885zm0 9.807v-1.884h1.192v1.884zm3.836-8.248-.853-.838 1.338-1.339.838.854zm-6.955 6.956-.839-.829 1.339-1.348.838.838zm7.677-3.958v-1.192h1.884v1.192zm-9.808 0v-1.192h1.885v1.192zm9.571 3.958-1.323-1.339.838-.838 1.34 1.323zm-6.956-6.94-1.323-1.339.838-.838 1.339 1.323zM3.5 21.5v-17h3.192V2.385h1.539V4.5h7.577V2.385h1.5V4.5H20.5v5.808H5V20h4.308v1.5z"/></svg>