<svg xmlns="http://www.w3.org/2000/svg" width="24" height="24" viewBox="0 0 24 24" fill='currentColor'><path d="M16.221 3.461q2.23 0 3.755 1.677T21.5 9.154q0 .537-.093 1.065a4.8 4.8 0 0 1-.305 1.03H15.39l-1.732-2.664H12.29l-1.514 4.713L9.39 11.25H2.898a4.8 4.8 0 0 1-.305-1.026A6 6 0 0 1 2.5 9.179q0-2.364 1.511-4.04Q5.524 3.46 7.755 3.46q1.113 0 2.118.447 1.005.446 1.792 1.267L12 5.53l.317-.337a5.5 5.5 0 0 1 1.79-1.282 5.1 5.1 0 0 1 2.114-.45m-4.246 17.777-7.727-7.777a6 6 0 0 1-.318-.343 5 5 0 0 1-.284-.368h4.939l1.782 2.671h1.352l1.504-4.738 1.371 2.067h5.745q-.135.18-.284.353-.15.174-.303.343z"/></svg>