<svg xmlns="http://www.w3.org/2000/svg" width="24" height="24" viewBox="0 0 24 24" fill='currentColor'><path d="M2.5 11.25V4.5h19v7.86a3.4 3.4 0 0 0-1.25-.225q-.575 0-1.145.15T18 12.71a4 4 0 0 0-1.25-.477v-.983h-3.279L11.68 7.665a.62.62 0 0 0-.284-.274.9.9 0 0 0-.785 0 .62.62 0 0 0-.28.274L7 14.308l-1.33-2.642a.67.67 0 0 0-.28-.312.8.8 0 0 0-.39-.104zm0 8.25v-6.75h2.029l1.792 3.584a.66.66 0 0 0 .284.312.8.8 0 0 0 .785 0 .7.7 0 0 0 .28-.302L11 9.692l1.33 2.643a.8.8 0 0 0 .241.28q.144.104.337.135h.817q-1.128.495-1.86 1.591a4.3 4.3 0 0 0-.73 2.438q0 .858.226 1.455.225.597.752 1.266zm13.25-5.173q.57 0 1.063.252.492.252.908.74l.279.25.27-.24q.425-.498.918-.75a2.3 2.3 0 0 1 1.062-.252q1.005 0 1.715.718.708.72.708 1.734 0 .794-.621 1.564-.62.771-2.764 2.607L18 22.067l-1.288-1.117q-2.143-1.836-2.764-2.607-.621-.77-.621-1.564 0-1.015.709-1.734a2.32 2.32 0 0 1 1.714-.718"/></svg>