<svg xmlns="http://www.w3.org/2000/svg" width="24" height="24" viewBox="0 0 24 24" fill='currentColor'><path d="M11.25 21.5a7.3 7.3 0 0 1-1.778-.221 9 9 0 0 1-1.76-.648 14.5 14.5 0 0 1 1.769-5.078 16.2 16.2 0 0 1 3.427-4.168 14.9 14.9 0 0 0-4.267 3.44 11.7 11.7 0 0 0-2.491 4.798 3 3 0 0 1-.202-.172l-.202-.197a7.9 7.9 0 0 1-1.667-2.471A7.2 7.2 0 0 1 3.5 13.95q0-1.604.632-3.063a8.3 8.3 0 0 1 1.764-2.59q1.9-1.901 4.895-2.475 2.992-.574 8.598-.16.41 5.61-.17 8.583-.58 2.974-2.465 4.859a8.1 8.1 0 0 1-2.565 1.777q-1.425.62-2.939.619"/></svg>