<svg xmlns="http://www.w3.org/2000/svg" width="24" height="24" viewBox="0 0 24 24" fill='currentColor'><path d="M5.054 17.75a2.65 2.65 0 0 1-1.945-.802 2.65 2.65 0 0 1-.801-1.947q0-1.145.8-1.948a2.64 2.64 0 0 1 1.946-.803 2.72 2.72 0 0 1 1.63.534q.74.533 1 1.466h5.685a5.4 5.4 0 0 1 1.418-3.033q1.19-1.294 2.86-1.66L16.14 2.75h-3.833v-1.5h5.038l2.135 9.635h-.539q-1.705 0-2.92 1.214-1.215 1.215-1.214 2.92v.731H7.685q-.262.932-1 1.466a2.72 2.72 0 0 1-1.631.534m13.89.02a2.65 2.65 0 0 1-1.949-.802 2.65 2.65 0 0 1-.803-1.948q0-1.145.802-1.948a2.65 2.65 0 0 1 1.947-.803q1.146 0 1.949.802.802.802.802 1.947t-.801 1.948a2.65 2.65 0 0 1-1.947.803m-5.963 5.057-5.558-2.789h3.693v-1.865l5.557 2.789h-3.692z"/></svg>