<svg xmlns="http://www.w3.org/2000/svg" width="24" height="24" viewBox="0 0 24 24" fill='currentColor'><path d="m13.02 22.827-5.56-2.789h3.693v-1.865l5.557 2.788h-3.69zm-5.923-6.02a2.65 2.65 0 0 1-1.948-.802 2.65 2.65 0 0 1-.803-1.947h-2v-6.5h7.5v5h3.865l3.635-4.504v-2.9h-3v-1.5h4.5V8.56l-4.365 5.497H9.846q0 1.143-.802 1.947a2.65 2.65 0 0 1-1.947.803m0-1.5q.52.001.885-.364.364-.365.364-.885h-2.5q0 .52.364.885.365.365.886.365m-1.75-9.153v-1.5h4.5v1.5zm13.558 10.654a2.65 2.65 0 0 1-1.948-.802 2.65 2.65 0 0 1-.803-1.947q0-1.146.801-1.949a2.65 2.65 0 0 1 1.948-.802q1.145 0 1.948.801.803.802.803 1.947t-.802 1.949a2.65 2.65 0 0 1-1.947.803m-.001-1.5q.52 0 .885-.365t.365-.885q0-.522-.365-.886a1.2 1.2 0 0 0-.885-.364q-.522 0-.886.364a1.2 1.2 0 0 0-.364.886q0 .52.364.885t.886.365"/></svg>