<svg xmlns="http://www.w3.org/2000/svg" width="24" height="24" viewBox="0 0 24 24" fill='currentColor'><path d="M3.5 14q0-2.211.976-3.983.975-1.77 2.212-3.055 1.234-1.285 2.37-2.066 1.134-.78 1.442-1.002V6.3q0 1.156.78 1.828.778.672 1.745.672.452 0 .864-.165.413-.165.777-.518l.44-.444a7.5 7.5 0 0 1 2.467 2.682A7.4 7.4 0 0 1 18.5 14q0 2.249-1.19 4.041-1.19 1.794-3.085 2.67.483-.532.754-1.211.27-.68.271-1.45 0-.837-.318-1.593a4.2 4.2 0 0 0-.911-1.353L11 12.148l-2.996 2.956a4.4 4.4 0 0 0-.932 1.353 4 4 0 0 0-.322 1.593q0 .77.271 1.45.27.679.754 1.212-1.894-.878-3.085-2.67Q3.5 16.247 3.5 14m7.5.246 1.952 1.912q.387.387.593.866.205.48.205 1.026 0 1.12-.802 1.91a2.67 2.67 0 0 1-1.947.79 2.68 2.68 0 0 1-1.948-.79 2.58 2.58 0 0 1-.803-1.91q0-.528.201-1.012t.597-.88zm10-3.496a.72.72 0 0 1-.535-.216.73.73 0 0 1-.215-.534q0-.32.216-.534A.73.73 0 0 1 21 9.25q.32 0 .535.216a.73.73 0 0 1 .215.534q0 .32-.216.534a.73.73 0 0 1-.534.216m-.75-2.885V3.25h1.5v4.615z"/></svg>