<svg xmlns="http://www.w3.org/2000/svg" width="24" height="24" viewBox="0 0 24 24" fill='currentColor'><path d="M17 21.5v-3h-3V17h3v-3h1.5v3h3v1.5h-3v3zm-5-.02q-3.244-.884-5.372-3.818T4.5 11.1V5.346L12 2.54l7.5 2.807V11.1q0 .232-.012.483a6 6 0 0 1-.044.482 6 6 0 0 0-.842-.189 6 6 0 0 0-.883-.068 5.95 5.95 0 0 0-4.6 2.21l-.425-2.426q.471-.202.759-.633.287-.432.287-.959 0-.72-.51-1.23T12 8.26t-1.23.51-.51 1.23q0 .527.287.959.288.431.759.633l-.565 3.158h1.876a5.9 5.9 0 0 0-.81 3q0 .927.284 1.791.285.865.811 1.636-.232.096-.451.167a12 12 0 0 1-.451.137"/></svg>