<svg xmlns="http://www.w3.org/2000/svg" width="24" height="24" viewBox="0 0 24 24" fill='currentColor'><path d="M14.25 17.442h5.5v-.884h-5.5zM17 21.5q-1.873 0-3.187-1.313Q12.5 18.873 12.5 17t1.313-3.186T17 12.5t3.186 1.314T21.5 17q0 1.872-1.314 3.187Q18.874 21.5 17 21.5m-5-.02q-3.244-.884-5.372-3.818T4.5 11.1V5.346L12 2.54l7.5 2.807v5.666a5.3 5.3 0 0 0-1.212-.38A7 7 0 0 0 17 10.5q-2.698 0-4.599 1.901-1.9 1.9-1.901 4.6 0 1.29.467 2.405a7 7 0 0 0 1.262 1.992q-.063.02-.114.042a1 1 0 0 1-.115.04m0-13.22q-.72 0-1.225.51T10.269 10t.506 1.225q.505.506 1.225.506.12 0 .228-.034a.6.6 0 0 0 .199-.11q.246-.231.508-.423.261-.193.569-.347.123-.185.18-.386a1.6 1.6 0 0 0 .056-.43q0-.72-.51-1.23-.51-.511-1.23-.511"/></svg>