<svg xmlns="http://www.w3.org/2000/svg" width="24" height="24" viewBox="0 0 24 24" fill='currentColor'><path d="m21.5 18.708-13-13v-.9q0-.759.525-1.283Q9.55 3 10.308 3h3.384q.758 0 1.283.525t.525 1.283V6.5h4.192q.758 0 1.283.525.525.524.525 1.283zM10 6.5h4V4.808a.3.3 0 0 0-.096-.212.3.3 0 0 0-.212-.096h-3.384a.3.3 0 0 0-.212.096.3.3 0 0 0-.096.212zm10.654 16.26-2.262-2.26H4.308q-.758 0-1.283-.525a1.75 1.75 0 0 1-.525-1.283V8.308q0-.758.525-1.283T4.308 6.5H6.5v2.108L1.623 3.73l1.054-1.054 19.03 19.03z"/></svg>