<svg xmlns="http://www.w3.org/2000/svg" width="24" height="24" viewBox="0 0 24 24" fill='currentColor'><path d="M7 5.904q-.761 0-1.304-.543a1.78 1.78 0 0 1-.542-1.303q0-.762.542-1.304A1.78 1.78 0 0 1 7 2.21q.761 0 1.304.543.542.542.542 1.304 0 .761-.542 1.303A1.78 1.78 0 0 1 7 5.904m9.827 5.25q-.578 0-.99-.41a1.35 1.35 0 0 1-.414-.994q0-.596.414-1 .412-.405.99-.404.595 0 1 .404t.404.995q0 .591-.404 1a1.35 1.35 0 0 1-1 .409M5.116 21.75v-6.785H3.539V7.211h5.89l3.525 7.406L15 12.192h4.5v4.846h-1v4.712h-3.346v-7.408l-1.352 1.504h-1.94L9.5 10.63v11.12z"/></svg>