<svg xmlns="http://www.w3.org/2000/svg" width="24" height="24" viewBox="0 0 24 24" fill='currentColor'><path d="M15.135 20.654q-2.778 0-5.02-1.584t-3.192-4.32H3.385v-1.5h3.184a4 4 0 0 1-.074-.615 15 15 0 0 1 0-1.255q.015-.316.074-.63H3.385v-1.5h3.538a8.65 8.65 0 0 1 3.135-4.267q2.232-1.637 5.077-1.637 1.57 0 2.93.504a9 9 0 0 1 2.55 1.47l-1.269 1.268a7.3 7.3 0 0 0-2.006-1.065 6.7 6.7 0 0 0-2.205-.37q-2.154 0-3.817 1.165Q9.656 7.483 8.904 9.25h5.98v1.5H8.427a4 4 0 0 0-.109.63q-.03.315-.03.62 0 .303.04.64.04.335.099.61h6.458v1.5h-5.99q.828 1.96 2.534 3.028a6.85 6.85 0 0 0 3.706 1.068q1.132 0 2.245-.374a6.2 6.2 0 0 0 1.966-1.07l1.27 1.279a8.7 8.7 0 0 1-2.565 1.478q-1.365.495-2.916.495"/></svg>