<svg xmlns="http://www.w3.org/2000/svg" width="24" height="24" viewBox="0 0 24 24" fill='currentColor'><path d="m19.804 21.942-2.256-2.256a9.7 9.7 0 0 1-2.598 1.341A9.2 9.2 0 0 1 12 21.5a9.2 9.2 0 0 1-3.703-.749 9.6 9.6 0 0 1-3.016-2.032 9.6 9.6 0 0 1-2.032-3.016A9.2 9.2 0 0 1 2.5 12q0-1.548.473-2.95t1.34-2.598L2.058 4.196l1.069-1.069 17.746 17.746zM6.827 17.173l5.454-2.754-2.731-2.73zm13.158-.02-5.316-5.314 2.504-5.012-5.011 2.504-5.316-5.315A9.8 9.8 0 0 1 9.29 2.892 9.3 9.3 0 0 1 12 2.5q1.97 0 3.703.749a9.6 9.6 0 0 1 3.016 2.032 9.6 9.6 0 0 1 2.032 3.016q.75 1.734.749 3.703 0 1.413-.392 2.71a9.8 9.8 0 0 1-1.123 2.444"/></svg>