<svg xmlns="http://www.w3.org/2000/svg" width="24" height="24" viewBox="0 0 24 24" fill='currentColor'><path d="M3.5 20.5v-5.377a2.95 2.95 0 0 0 1.763-.854A2.4 2.4 0 0 0 6 12.5q0-1.04-.737-1.768A2.95 2.95 0 0 0 3.5 9.877V4.404L19.596 20.5h-5.473a2.95 2.95 0 0 0-.854-1.764A2.4 2.4 0 0 0 11.5 18q-1.04 0-1.77.736a2.95 2.95 0 0 0-.853 1.764zm16-3.83L7.33 4.5H9q.135-.954.835-1.573a2.43 2.43 0 0 1 1.665-.62 2.43 2.43 0 0 1 1.665.62q.7.62.835 1.573h5.5V10q.954.135 1.573.835a2.43 2.43 0 0 1 .62 1.665q0 .963-.62 1.664A2.5 2.5 0 0 1 19.5 15zm.304 5.272L2.058 4.196l1.069-1.07 17.746 17.747z"/></svg>