<svg xmlns="http://www.w3.org/2000/svg" width="24" height="24" viewBox="0 0 24 24" fill='currentColor'><g clip-path="url(#a)"><path d="M12 22.5q-.555 0-1.136-.08a17 17 0 0 1-1.28-.234q-2.026 1.577-4.539 1.197t-3.778-2.53Q.22 19.11.61 17.115a5.87 5.87 0 0 1 1.915-3.349 4 4 0 0 1-.01-.268v-.268Q1.025 11.939.64 9.952q-.385-1.986.594-3.692a5.28 5.28 0 0 1 2.535-2.243 5.46 5.46 0 0 1 3.373-.323A5.2 5.2 0 0 1 9.078 1.37 5.17 5.17 0 0 1 12 .5q1.611 0 2.922.87a5.2 5.2 0 0 1 1.938 2.324 5.47 5.47 0 0 1 3.377.322 5.22 5.22 0 0 1 2.53 2.244q.979 1.696.595 3.682-.385 1.987-1.877 3.287v.268q0 .148-.01.268a5.87 5.87 0 0 1 1.915 3.345q.39 1.99-.657 3.744-1.266 2.148-3.778 2.529t-4.54-1.197q-.7.154-1.28.234-.579.08-1.135.08m0-1.5q3.35 0 5.675-2.325T20 13q0-.783-.137-1.508a7.3 7.3 0 0 0-.41-1.398q-.695.49-1.537.76-.84.27-1.791.271-2.445 0-4.16-1.716T10.25 5.25v-.058q-2.696.592-4.473 2.767T4 13q0 3.35 2.325 5.675T12 21m-3-5.75q-.525 0-.887-.363A1.2 1.2 0 0 1 7.75 14q0-.525.363-.887.362-.363.887-.363t.888.363.362.887-.362.887A1.2 1.2 0 0 1 9 15.25m6 0q-.525 0-.887-.363A1.2 1.2 0 0 1 13.75 14q0-.525.363-.887.362-.363.887-.363t.887.363.363.887-.363.887a1.2 1.2 0 0 1-.887.363"/></g><defs><clipPath id="a"><path d="M0 0h24v24H0z"/></clipPath></defs></svg>