<svg xmlns="http://www.w3.org/2000/svg" width="24" height="24" viewBox="0 0 24 24" fill='currentColor'><path d="M9 14.25q-.525 0-.887-.363A1.2 1.2 0 0 1 7.75 13q0-.525.363-.887.362-.363.887-.363t.887.363.363.887-.363.887A1.2 1.2 0 0 1 9 14.25m6 0q-.525 0-.887-.363A1.2 1.2 0 0 1 13.75 13q0-.525.363-.887.362-.363.887-.363t.887.363.363.887-.363.887a1.2 1.2 0 0 1-.887.363M12 20q3.35 0 5.675-2.325T20 12q0-.6-.075-1.162a4.8 4.8 0 0 0-.275-1.088q-.525.125-1.05.188-.525.062-1.1.062a9.8 9.8 0 0 1-4.3-.975A10 10 0 0 1 9.75 6.3a9.9 9.9 0 0 1-2.287 3.388A9.8 9.8 0 0 1 4 11.85V12q0 3.35 2.325 5.675T12 20m.002 1.5a9.3 9.3 0 0 1-3.706-.748 9.6 9.6 0 0 1-3.016-2.03 9.6 9.6 0 0 1-2.032-3.016 9.25 9.25 0 0 1-.748-3.704q0-1.972.748-3.706a9.6 9.6 0 0 1 2.03-3.016 9.6 9.6 0 0 1 3.016-2.032 9.25 9.25 0 0 1 3.704-.748q1.972 0 3.706.748a9.6 9.6 0 0 1 3.017 2.03 9.6 9.6 0 0 1 2.03 3.016 9.25 9.25 0 0 1 .749 3.704q0 1.972-.748 3.706a9.6 9.6 0 0 1-2.03 3.017 9.6 9.6 0 0 1-3.016 2.03 9.25 9.25 0 0 1-3.704.749"/></svg>