<svg xmlns="http://www.w3.org/2000/svg" width="24" height="24" viewBox="0 0 24 24" fill='currentColor'><path d="M12 6a.48.48 0 0 1-.35-.15.48.48 0 0 1 0-.7.48.48 0 0 1 .7 0 .48.48 0 0 1 0 .7A.48.48 0 0 1 12 6m2 0a.48.48 0 0 1-.35-.15.48.48 0 0 1 0-.7.48.48 0 0 1 .7 0 .48.48 0 0 1 0 .7A.48.48 0 0 1 14 6m-4 0a.48.48 0 0 1-.35-.15.48.48 0 0 1 0-.7.48.48 0 0 1 .7 0 .48.48 0 0 1 0 .7A.48.48 0 0 1 10 6m7 1a.48.48 0 0 1-.35-.15.48.48 0 0 1 0-.7.48.48 0 0 1 .7 0 .48.48 0 0 1 0 .7A.48.48 0 0 1 17 7M9 7a.48.48 0 0 1-.35-.15.48.48 0 0 1 0-.7.48.48 0 0 1 .7 0 .48.48 0 0 1 0 .7A.48.48 0 0 1 9 7M7 7a.48.48 0 0 1-.35-.15.48.48 0 0 1 0-.7.48.48 0 0 1 .7 0 .48.48 0 0 1 0 .7A.48.48 0 0 1 7 7m4 0a.48.48 0 0 1-.35-.15.48.48 0 0 1 0-.7.48.48 0 0 1 .7 0 .48.48 0 0 1 0 .7A.48.48 0 0 1 11 7m2 0a.48.48 0 0 1-.35-.15.48.48 0 0 1 0-.7.48.48 0 0 1 .7 0 .48.48 0 0 1 0 .7A.48.48 0 0 1 13 7m2 0a.48.48 0 0 1-.35-.15.48.48 0 0 1 0-.7.48.48 0 0 1 .7 0 .48.48 0 0 1 0 .7A.48.48 0 0 1 15 7m-3 1a.48.48 0 0 1-.35-.15.48.48 0 0 1 0-.7.48.48 0 0 1 .7 0 .48.48 0 0 1 0 .7A.48.48 0 0 1 12 8m2 0a.48.48 0 0 1-.35-.15.48.48 0 0 1 0-.7.48.48 0 0 1 .7 0 .48.48 0 0 1 0 .7A.48.48 0 0 1 14 8m2 0a.48.48 0 0 1-.35-.15.48.48 0 0 1 0-.7.48.48 0 0 1 .7 0 .48.48 0 0 1 0 .7A.48.48 0 0 1 16 8m-6 0a.48.48 0 0 1-.35-.15.48.48 0 0 1 0-.7.48.48 0 0 1 .7 0 .48.48 0 0 1 0 .7A.48.48 0 0 1 10 8M8 8a.48.48 0 0 1-.35-.15.48.48 0 0 1 0-.7.48.48 0 0 1 .7 0 .48.48 0 0 1 0 .7A.48.48 0 0 1 8 8m1 1a.48.48 0 0 1-.35-.15.48.48 0 0 1 0-.7.48.48 0 0 1 .7 0 .48.48 0 0 1 0 .7A.48.48 0 0 1 9 9M7 9a.48.48 0 0 1-.35-.15.48.48 0 0 1 0-.7.48.48 0 0 1 .7 0 .48.48 0 0 1 0 .7A.48.48 0 0 1 7 9m4 0a.48.48 0 0 1-.35-.15.48.48 0 0 1 0-.7.48.48 0 0 1 .7 0 .48.48 0 0 1 0 .7A.48.48 0 0 1 11 9m2 0a.48.48 0 0 1-.35-.15.48.48 0 0 1 0-.7.48.48 0 0 1 .7 0 .48.48 0 0 1 0 .7A.48.48 0 0 1 13 9m2 0a.48.48 0 0 1-.35-.15.48.48 0 0 1 0-.7.48.48 0 0 1 .7 0 .48.48 0 0 1 0 .7A.48.48 0 0 1 15 9m2 0a.48.48 0 0 1-.35-.15.48.48 0 0 1 0-.7.48.48 0 0 1 .7 0 .48.48 0 0 1 0 .7A.48.48 0 0 1 17 9M5 9a.48.48 0 0 1-.35-.15.48.48 0 0 1 0-.7.48.48 0 0 1 .7 0 .48.48 0 0 1 0 .7A.48.48 0 0 1 5 9m1-1a.48.48 0 0 1-.35-.15.48.48 0 0 1 0-.7.48.48 0 0 1 .7 0 .48.48 0 0 1 0 .7A.48.48 0 0 1 6 8m2-2a.48.48 0 0 1-.35-.15.48.48 0 0 1 0-.7.48.48 0 0 1 .7 0 .48.48 0 0 1 0 .7A.48.48 0 0 1 8 6m1-1a.48.48 0 0 1-.35-.15.48.48 0 0 1 0-.7.48.48 0 0 1 .7 0 .48.48 0 0 1 0 .7A.48.48 0 0 1 9 5m2 0a.48.48 0 0 1-.35-.15.48.48 0 0 1 0-.7.48.48 0 0 1 .7 0 .48.48 0 0 1 0 .7A.48.48 0 0 1 11 5m2 0a.48.48 0 0 1-.35-.15.48.48 0 0 1 0-.7.48.48 0 0 1 .7 0 .48.48 0 0 1 0 .7A.48.48 0 0 1 13 5m2 0a.48.48 0 0 1-.35-.15.48.48 0 0 1 0-.7.48.48 0 0 1 .7 0 .48.48 0 0 1 0 .7A.48.48 0 0 1 15 5m1 1a.48.48 0 0 1-.35-.15.48.48 0 0 1 0-.7.48.48 0 0 1 .7 0 .48.48 0 0 1 0 .7A.48.48 0 0 1 16 6m2 2a.48.48 0 0 1-.35-.15.48.48 0 0 1 0-.7.48.48 0 0 1 .7 0 .48.48 0 0 1 0 .7A.48.48 0 0 1 18 8m1 1a.48.48 0 0 1-.35-.15.48.48 0 0 1 0-.7.48.48 0 0 1 .7 0 .48.48 0 0 1 0 .7A.48.48 0 0 1 19 9M9 14.25q-.525 0-.887-.363A1.2 1.2 0 0 1 7.75 13q0-.525.363-.887.362-.363.887-.363t.887.363.363.887-.363.887A1.2 1.2 0 0 1 9 14.25m6 0q-.525 0-.887-.363A1.2 1.2 0 0 1 13.75 13q0-.525.363-.887.362-.363.887-.363t.887.363.363.887-.363.887a1.2 1.2 0 0 1-.887.363m-3 7.25a9.2 9.2 0 0 1-3.686-.747 9.6 9.6 0 0 1-3.026-2.041 9.6 9.6 0 0 1-2.04-3.026 9.2 9.2 0 0 1-.748-3.682q0-1.973.749-3.707a9.6 9.6 0 0 1 2.04-3.021 9.6 9.6 0 0 1 3.024-2.032 9.2 9.2 0 0 1 3.684-.744q1.972 0 3.706.744a9.6 9.6 0 0 1 3.021 2.032 9.6 9.6 0 0 1 2.032 3.02A9.3 9.3 0 0 1 21.5 12q0 1.95-.744 3.685a9.6 9.6 0 0 1-2.032 3.027 9.6 9.6 0 0 1-3.02 2.039q-1.733.75-3.704.749m0-1.5q3.35 0 5.675-2.337T20 12q0-3.35-2.325-5.675T12 4Q8.675 4 6.338 6.325 4 8.65 4 12q0 3.325 2.338 5.663T12 20"/></svg>