<svg xmlns="http://www.w3.org/2000/svg" width="24" height="24" viewBox="0 0 24 24" fill='currentColor'><path d="M12 21.5a9.2 9.2 0 0 1-3.687-.749 9.6 9.6 0 0 1-3.025-2.04 9.6 9.6 0 0 1-2.039-3.023A9.2 9.2 0 0 1 2.5 12q0-1.97.749-3.703a9.6 9.6 0 0 1 2.04-3.021 9.6 9.6 0 0 1 3.024-2.032A9.25 9.25 0 0 1 12 2.5q1.97 0 3.703.744a9.6 9.6 0 0 1 3.021 2.032 9.6 9.6 0 0 1 2.032 3.021A9.3 9.3 0 0 1 21.5 12a9.25 9.25 0 0 1-.744 3.688 9.6 9.6 0 0 1-2.032 3.024 9.6 9.6 0 0 1-3.021 2.039q-1.734.75-3.703.749m0-1.5q3.35 0 5.683-2.345T20 11.969v-.16q0-.076-.01-.159h-2.394L15.4 7.75H8.625l-2.196 3.9h-2.42Q4 11.732 4 11.817v.168q0 3.34 2.338 5.678T12 20m-3-5.75q-.525 0-.887-.363A1.2 1.2 0 0 1 7.75 13q0-.525.363-.887.362-.363.887-.363t.887.363.363.887-.363.887A1.2 1.2 0 0 1 9 14.25m6 0q-.525 0-.887-.363A1.2 1.2 0 0 1 13.75 13q0-.525.363-.887.362-.363.887-.363t.887.363.363.887-.363.887a1.2 1.2 0 0 1-.887.363"/></svg>