<svg xmlns="http://www.w3.org/2000/svg" width="24" height="24" viewBox="0 0 24 24" fill='currentColor'><path d="M9.002 19.5q-3.14 0-5.321-2.18Q1.5 15.143 1.5 12.003T3.68 6.68Q5.857 4.5 8.998 4.5t5.32 2.18Q16.5 8.857 16.5 11.998t-2.18 5.32Q12.143 19.5 9.003 19.5M9 18q2.5 0 4.25-1.75T15 12a5 5 0 0 0-.04-.636 6 6 0 0 0-.118-.626 2.6 2.6 0 0 1-.548.058 7.6 7.6 0 0 1-3.455-.513 7.8 7.8 0 0 1-2.876-1.981 7.75 7.75 0 0 1-2.12 2.29A7.9 7.9 0 0 1 3 11.883v.03q-.04 2.515 1.715 4.3Q6.47 18 9 18m-2.418-4.183a.87.87 0 0 1-.64-.26.88.88 0 0 1-.26-.645q0-.385.26-.644a.88.88 0 0 1 .644-.259q.377 0 .641.261a.87.87 0 0 1 .263.645.87.87 0 0 1-.263.644.9.9 0 0 1-.645.258m4.83 0a.87.87 0 0 1-.644-.26.88.88 0 0 1-.259-.645.87.87 0 0 1 .261-.644.88.88 0 0 1 .645-.259.87.87 0 0 1 .644.261.88.88 0 0 1 .258.645.87.87 0 0 1-.26.644.88.88 0 0 1-.645.258M16.99 21.5v-4.51h1.192v2.862a13.3 13.3 0 0 0 2.287-3.646q.838-1.997.838-4.196 0-2.2-.838-4.201a13.3 13.3 0 0 0-2.287-3.651v2.851H16.99V2.5h4.51v1.202h-2.13a14.3 14.3 0 0 1 2.297 3.883Q22.5 9.7 22.5 12.01q0 2.312-.833 4.425a14.1 14.1 0 0 1-2.298 3.874H21.5V21.5z"/></svg>