<svg xmlns="http://www.w3.org/2000/svg" width="24" height="24" viewBox="0 0 24 24" fill='currentColor'><path d="M12 21.5q-1.95 0-3.688-.75a9.6 9.6 0 0 1-3.025-2.038 9.6 9.6 0 0 1-2.037-3.024A9.2 9.2 0 0 1 2.5 12q0-2.025.775-3.762A9.9 9.9 0 0 1 5.35 5.212 9.5 9.5 0 0 1 8.375 3.2 8.95 8.95 0 0 1 12 2.5q.825 0 1.613.125a6 6 0 0 1 1.562.475l-3 1.375 5.025 2.35 1.4 3.1q-2.25.275-4.637-.55Q11.575 8.55 9.75 6.3 8.8 8.575 7.263 9.887T4 11.85q0 3.475 2.338 5.813T12 20q3.4 0 5.713-2.4Q20.025 15.2 20 12q0-.325-.025-.575l-.05-.525.975-2.125q.325.825.463 1.612.137.788.137 1.613 0 1.925-.737 3.65a9.8 9.8 0 0 1-2.013 3.025 9.6 9.6 0 0 1-3 2.063q-1.725.762-3.75.762m-3-7.25q-.525 0-.887-.363A1.2 1.2 0 0 1 7.75 13q0-.525.363-.887.362-.363.887-.363t.887.363.363.887-.363.887A1.2 1.2 0 0 1 9 14.25m6 0q-.525 0-.887-.363A1.2 1.2 0 0 1 13.75 13q0-.525.363-.887.362-.363.887-.363t.887.363.363.887-.363.887a1.2 1.2 0 0 1-.887.363m4.5-6.475-1.025-2.25-2.25-1.025 2.25-1.025 1.025-2.25 1.025 2.25 2.25 1.025-2.25 1.025z"/></svg>