<svg xmlns="http://www.w3.org/2000/svg" width="24" height="24" viewBox="0 0 24 24" fill='currentColor'><path d="M12 21.913q-1.45 0-2.451-1-1-1.002-1.001-2.452 0-1.242.765-2.172a3.4 3.4 0 0 1 1.937-1.193V12.75H5.5V8.952H3.048V2.548h6.404v6.404H7v2.298h10V8.865a3.4 3.4 0 0 1-1.937-1.193q-.765-.93-.765-2.172 0-1.45 1.001-2.45 1.002-1.002 2.451-1.002t2.451 1.001q1 1 1.001 2.45 0 1.243-.766 2.173A3.4 3.4 0 0 1 18.5 8.865v3.885h-5.75v2.346q1.17.264 1.937 1.193.765.93.765 2.172 0 1.45-1.001 2.451-1.002 1.002-2.451 1.001"/></svg>