<svg xmlns="http://www.w3.org/2000/svg" width="24" height="24" viewBox="0 0 24 24" fill='currentColor'><path d="M12.002 19.5q-3.14 0-5.321-2.18Q4.5 15.143 4.5 12.003T6.68 6.68Q8.857 4.5 11.998 4.5t5.32 2.18Q19.5 8.857 19.5 11.998t-2.18 5.32Q15.143 19.5 12.003 19.5M12 18q2.5 0 4.25-1.75T18 12a5.7 5.7 0 0 0-.25-1.67 7.2 7.2 0 0 1-1.546.17 7.5 7.5 0 0 1-3.084-.653 7.7 7.7 0 0 1-2.564-1.86 7.6 7.6 0 0 1-1.843 2.499A7.4 7.4 0 0 1 6 12.044q.046 2.469 1.789 4.213Q9.53 18 12 18m-2.402-4.125a.94.94 0 0 1-.693-.28.94.94 0 0 1-.28-.693q0-.414.28-.701a.93.93 0 0 1 .693-.287q.414 0 .701.287a.95.95 0 0 1 .287.701.93.93 0 0 1-.287.693.97.97 0 0 1-.701.28m4.808 0a.94.94 0 0 1-.694-.28.94.94 0 0 1-.28-.693q0-.414.28-.701a.93.93 0 0 1 .694-.287q.414 0 .7.287a.95.95 0 0 1 .288.701.93.93 0 0 1-.287.693.97.97 0 0 1-.701.28M1.5 6V1.5H6V3H3v3zm0 16.5V18H3v3h3v1.5zm16.5 0V21h3v-3h1.5v4.5zM21 6V3h-3V1.5h4.5V6z"/></svg>