<svg xmlns="http://www.w3.org/2000/svg" width="24" height="24" viewBox="0 0 24 24" fill='currentColor'><path d="M10.45 11.448h.652V7.475h-.462l-1.154.833.322.508.642-.462zm1.5 0h2.589l-.025-.577h-1.731v-.025l1.022-1.015q.372-.37.52-.667t.148-.641q0-.47-.37-.805a1.3 1.3 0 0 0-.9-.333 1.33 1.33 0 0 0-.807.253q-.346.254-.462.645l.578.23a.7.7 0 0 1 .249-.386.66.66 0 0 1 .413-.14q.276 0 .462.151.185.152.185.385 0 .256-.11.477a1.7 1.7 0 0 1-.327.437l-1.434 1.41zm-1.62 5.167q.597 0 .993-.338t.396-.866q0-.32-.18-.584a1.02 1.02 0 0 0-.487-.382v-.047a.9.9 0 0 0 .391-.357 1 1 0 0 0 .146-.518q0-.46-.359-.76-.359-.302-.914-.302-.394 0-.751.236-.36.236-.474.597l.576.231a.8.8 0 0 1 .242-.366q.153-.12.386-.12.28 0 .448.14a.48.48 0 0 1 .168.386.52.52 0 0 1-.194.412.7.7 0 0 1-.47.165h-.299v.58h.345q.322 0 .54.186a.584.584 0 0 1 .013.9.74.74 0 0 1-.507.18.74.74 0 0 1-.476-.18.82.82 0 0 1-.286-.462L9 15.602q.138.46.505.737t.825.276m3.285 0q.563 0 .973-.399.412-.398.412-.932 0-.533-.359-.915a1.12 1.12 0 0 0-.844-.383q-.117 0-.415.091h-.022l.898-1.27-.502-.346-.994 1.475q-.323.46-.427.738-.105.276-.104.578 0 .58.396.972.396.39.988.391m0-.601a.71.71 0 0 1-.742-.733q0-.187.095-.362a.77.77 0 0 1 .274-.286q.068-.045.373-.094.306 0 .524.218a.74.74 0 0 1 .219.541q0 .3-.209.508a.72.72 0 0 1-.534.208M12.002 21.5a9.3 9.3 0 0 1-3.706-.748 9.6 9.6 0 0 1-3.016-2.03 9.6 9.6 0 0 1-2.032-3.016 9.25 9.25 0 0 1-.748-3.704q0-1.972.748-3.706a9.6 9.6 0 0 1 2.03-3.016 9.6 9.6 0 0 1 3.016-2.032 9.25 9.25 0 0 1 3.704-.748q1.972 0 3.706.748a9.6 9.6 0 0 1 3.017 2.03 9.6 9.6 0 0 1 2.03 3.016 9.25 9.25 0 0 1 .749 3.704q0 1.972-.748 3.706a9.6 9.6 0 0 1-2.03 3.017 9.6 9.6 0 0 1-3.016 2.03 9.25 9.25 0 0 1-3.704.749"/></svg>