<svg xmlns="http://www.w3.org/2000/svg" width="24" height="24" viewBox="0 0 24 24" fill='currentColor'><path d="M13.404 12.789a.85.85 0 0 0 .63-.26.86.86 0 0 0 .255-.625q0-.14-.112-.479a.85.85 0 0 0 .438-.307.83.83 0 0 0 .174-.522.86.86 0 0 0-.254-.63.86.86 0 0 0-.631-.255.86.86 0 0 0-.522.166.8.8 0 0 0-.307.446l-3.66-1.76q.054-.075.162-.467a.86.86 0 0 0-.254-.63.86.86 0 0 0-.63-.255.86.86 0 0 0-.627.254.85.85 0 0 0-.258.631q0 .17.136.454a.9.9 0 0 0-.45.307.83.83 0 0 0-.186.547q0 .367.258.626a.85.85 0 0 0 .626.259.88.88 0 0 0 .845-.589l3.64 1.74q-.019.02-.158.464 0 .367.26.626.257.259.625.259m-10.198-1.76 5.556-7.59 6.511 2.963a5.4 5.4 0 0 1 2.351 2.017q.876 1.35.876 3.006V22l-8.111-.01a12.2 12.2 0 0 1-.672-2.48 18 18 0 0 1-.222-2.319q-.026-1.08.04-1.93.067-.85.113-1.315a.4.4 0 0 1-.014-.106q0-.047-.082-.057l-1.046-.226q-.69-.15-1.559-.465-.87-.315-1.84-.811t-1.901-1.252"/></svg>