<svg xmlns="http://www.w3.org/2000/svg" width="24" height="24" viewBox="0 0 24 24" fill='currentColor'><path d="M5.25 19.75v-4h-1.5v-1.5h1.5v-2.5h-1.5v-1.5h1.5V7.106L8 4.356l2 2 2.025-2 2 2 2-2 2.75 2.75v3.144h1.475v1.5h-1.475v2.5h1.475v1.5h-1.475v4zm1.5-9.5h2.5V7.72L8 6.47 6.75 7.72zm4 0h2.5V7.72L12 6.47l-1.25 1.25zm4.025 0h2.475V7.72L16 6.47l-1.225 1.234zm-8.025 4h2.5v-2.5h-2.5zm4 0h2.5v-2.5h-2.5zm4.025 0h2.475v-2.5h-2.475zm-8.025 4h2.5v-2.5h-2.5zm4 0h2.5v-2.5h-2.5zm4.025 0h2.475v-2.5h-2.475z"/></svg>