<svg xmlns="http://www.w3.org/2000/svg" width="24" height="24" viewBox="0 0 24 24" fill='currentColor'><path d="M12.04 20.98q-1.31 0-2.313-.885-1.004-.886-1.125-2.122-1.162.492-2.425.099a3.36 3.36 0 0 1-1.94-1.51q-.684-1.114-.42-2.452.261-1.337 1.343-2.11-1.05-.757-1.32-2.057t.366-2.412q.636-1.114 1.917-1.564 1.281-.451 2.448.04.12-1.255 1.125-2.131A3.4 3.4 0 0 1 12.01 3q1.31 0 2.314.876t1.125 2.132a3.35 3.35 0 0 1 2.438-.065 3.43 3.43 0 0 1 1.908 1.588q.637 1.145.382 2.42Q19.92 11.227 18.84 12q1.08.773 1.351 2.095t-.366 2.466q-.676 1.179-1.908 1.542a3.6 3.6 0 0 1-2.438-.13q-.121 1.237-1.125 2.122-1.004.886-2.314.886M12 15.51q1.447 0 2.479-1.031 1.03-1.031 1.03-2.479t-1.03-2.479q-1.03-1.03-2.48-1.03-1.446 0-2.478 1.03-1.03 1.031-1.03 2.479t1.03 2.479q1.031 1.03 2.479 1.03"/></svg>