<svg xmlns="http://www.w3.org/2000/svg" width="24" height="24" viewBox="0 0 24 24" fill='currentColor'><path d="M12.006 4.523q2.805 0 5.126 1.208 2.32 1.208 4.041 3.57l-.732.522q-1.547-2.18-3.674-3.298t-4.761-1.117q-2.58 0-4.69 1.12T3.62 9.864l-.694-.518q1.747-2.366 4.05-3.595 2.303-1.227 5.03-1.228m0 2.35q3.405 0 5.791 2.266t2.386 5.511q0 1.206-.873 2.042t-2.12.835q-1.27 0-2.156-.835-.886-.837-.886-2.042 0-.828-.614-1.418-.615-.59-1.509-.59-.904 0-1.523.59-.62.59-.62 1.418 0 2.375 1.435 4.047 1.435 1.67 4.181 2.486l-.23.86q-2.984-.785-4.627-2.713t-1.643-4.68q0-1.206.886-2.049.885-.843 2.141-.843 1.246 0 2.127.843t.88 2.05q0 .827.627 1.418.627.59 1.531.589.879 0 1.494-.59.614-.589.614-1.418 0-2.879-2.12-4.893-2.118-2.015-5.157-2.015-3.019 0-5.138 2.015-2.12 2.015-2.12 4.878 0 .846.188 1.822t.613 2.205l-.795.33q-.45-1.168-.67-2.25a10.5 10.5 0 0 1-.22-2.092q0-3.246 2.365-5.511t5.762-2.266m.019-4.8q1.615 0 3.151.4t3.272 1.29l-.361.82q-1.62-.865-3.062-1.245a11.7 11.7 0 0 0-3-.38q-1.582 0-2.997.395T6.04 4.604l-.354-.779Q7.27 2.93 8.81 2.501a12 12 0 0 1 3.215-.428m0 7.235q2.462 0 4.034 1.626 1.575 1.626 1.574 4.159h-.885q0-2.171-1.32-3.536-1.318-1.364-3.403-1.364-1.954 0-3.323 1.306-1.37 1.307-1.37 3.151 0 1.915.671 3.363.67 1.446 2.41 3.272l-.623.623q-1.827-1.92-2.584-3.559-.758-1.637-.758-3.699 0-2.231 1.623-3.786t3.954-1.556m1.154 9.079a4.9 4.9 0 0 1-1.216-1.804q-.415-1.054-.415-2.375h.885q0 1.134.35 2.04a4 4 0 0 0 1.019 1.525q.65.584 1.472.902t1.717.317q.395 0 .771-.073.376-.072.742-.184l.165.83a4.2 4.2 0 0 1-.827.237q-.42.075-.851.075-1.082 0-2.064-.383a5.3 5.3 0 0 1-1.748-1.107"/></svg>