<svg xmlns="http://www.w3.org/2000/svg" width="24" height="24" viewBox="0 0 24 24" fill='currentColor'><path d="M10.6 17.45q.325.275.688.387.362.114.712.113.724 0 1.313-.462.587-.463.687-1.338.125-1.174-.725-1.737A3.54 3.54 0 0 1 12 12.95q-.125.35-.125.65t.075.65q.075.425.175.8t.025.8q-.125.45-.55.925a2.4 2.4 0 0 1-1 .675M2.5 21.5v-19h19v19zM4 20h2.346v-1.5h2.615A5.3 5.3 0 0 1 7.9 17.028q-.4-.824-.4-1.578 0-1.092.26-2.037a6 6 0 0 1 .85-1.804q.59-.86 1.563-1.662.973-.803 2.385-1.6-.054 1.08.507 2.164.56 1.084 1.854 2.032.729.541 1.155 1.263.426.72.426 1.694 0 .846-.309 1.608a4.5 4.5 0 0 1-.902 1.392h2.365V20H20V4H4z"/></svg>