<svg xmlns="http://www.w3.org/2000/svg" width="24" height="24" viewBox="0 0 24 24" fill='currentColor'><path d="M5.5 20.75V4.5h5.615a6 6 0 0 0-.115.606 5 5 0 0 0-.039.59q0 2.88 2.004 4.787 2.005 1.905 4.689 1.906.46 0 .923-.061a6 6 0 0 0 .923-.201V15.5h-6.096l-.4-2H7v7.25zM17.654 1.196q1.873 0 3.186 1.314 1.314 1.312 1.314 3.186T20.84 8.883q-1.312 1.313-3.186 1.313t-3.187-1.313-1.313-3.187 1.313-3.186q1.314-1.314 3.187-1.314m-.715 6.635 3.407-3.392-.838-.839-2.57 2.539L15.8 5l-.839.854z"/></svg>