<svg xmlns="http://www.w3.org/2000/svg" width="24" height="24" viewBox="0 0 24 24" fill='currentColor'><path d="M1.615 12.75v-1.5h5.5v1.5zM8 9.054 6.054 7.108l1.054-1.054L9.054 8zm3.25-1.938v-5.5h1.5v5.5zM16 9.054 14.946 8l1.946-1.946 1.054 1.054zm.884 3.696v-1.5h5.5v1.5zM12 14.5q-1.048 0-1.774-.726A2.4 2.4 0 0 1 9.5 12q0-1.047.726-1.774A2.4 2.4 0 0 1 12 9.5q1.048 0 1.774.726.726.727.726 1.774t-.726 1.774A2.4 2.4 0 0 1 12 14.5m4.892 3.446L14.946 16 16 14.947l1.946 1.945zm-9.784 0-1.054-1.054L8 14.947 9.054 16zm4.142 4.439v-5.5h1.5v5.5z"/></svg>