<svg xmlns="http://www.w3.org/2000/svg" width="24" height="24" viewBox="0 0 24 24" fill='currentColor'><path d="M5.404 20.75v-9.942a1.98 1.98 0 0 1-1.388-.583 1.86 1.86 0 0 1-.574-1.379v-5.03q0-.243.162-.404a.55.55 0 0 1 .404-.162q.242 0 .404.162a.55.55 0 0 1 .161.404V7.25h1.016V3.816a.55.55 0 0 1 .565-.566.55.55 0 0 1 .565.566V7.25h1.016V3.816A.55.55 0 0 1 8.3 3.25q.242 0 .404.162a.55.55 0 0 1 .161.404v5.03a1.86 1.86 0 0 1-.573 1.379q-.573.564-1.388.583v9.942zm6.807 0V10.746a3.1 3.1 0 0 1-1.51-1.49 4.9 4.9 0 0 1-.49-2.156q0-1.479.711-2.664t2.04-1.186T15 4.436q.71 1.185.71 2.664 0 1.146-.489 2.156a3.1 3.1 0 0 1-1.51 1.49V20.75zm4.962 0V3.27q1.439.105 2.412 1.184.972 1.08.973 2.546v5.75h-1.885v8z"/></svg>