<svg xmlns="http://www.w3.org/2000/svg" width="24" height="24" viewBox="0 0 24 24" fill='currentColor'><path d="M12 21.75q-3.402 0-6.051-2.096T2.527 14.25h1.53q.759 2.678 2.956 4.34Q9.212 20.25 12 20.25q2.333 0 4.288-1.23a8.95 8.95 0 0 0 3.093-3.27H16.25v-1.5h5.5v5.5h-1.5v-2.577a10.46 10.46 0 0 1-3.559 3.34A9.3 9.3 0 0 1 12 21.75m0-7.25q-1.048 0-1.774-.726A2.4 2.4 0 0 1 9.5 12q0-1.048.726-1.774A2.4 2.4 0 0 1 12 9.5q1.048 0 1.774.726T14.5 12t-.726 1.774A2.4 2.4 0 0 1 12 14.5M2.25 9.75v-5.5h1.5v2.577a10.46 10.46 0 0 1 3.559-3.34A9.3 9.3 0 0 1 12 2.25q3.402 0 6.051 2.096t3.422 5.404h-1.53q-.759-2.678-2.957-4.34Q14.79 3.75 12 3.75q-2.333 0-4.288 1.23a8.95 8.95 0 0 0-3.093 3.27H7.75v1.5z"/></svg>