<svg xmlns="http://www.w3.org/2000/svg" width="24" height="24" viewBox="0 0 24 24" fill='currentColor'><path d="M2.5 20.5v-15h4.862l1.85-2h5.577l1.85 2H21.5v15zm9.5-2.654q1.976 0 3.338-1.414 1.362-1.415 1.458-3.428l.904.835.838-.839-2.288-2.289L13.961 13l.839.838.804-.803q-.131 1.497-1.135 2.558T12 16.653q-.315 0-.618-.062a4 4 0 0 1-.593-.168l-.889.889q.502.241 1.027.388.525.146 1.073.146M7.75 15.29 10.039 13l-.839-.838-.804.803q.131-1.497 1.135-2.558 1.003-1.06 2.469-1.06.315 0 .618.062t.593.168l.889-.889a6 6 0 0 0-1.027-.388A4 4 0 0 0 12 8.154q-1.976 0-3.338 1.414-1.362 1.415-1.458 3.428l-.904-.835-.838.839z"/></svg>