<svg xmlns="http://www.w3.org/2000/svg" width="24" height="24" viewBox="0 0 24 24" fill='currentColor'><path d="M7.73 15.712q-.065-.09.454-.726.518-.636 1.185-1.352a58 58 0 0 1 1.773-1.895.91.91 0 0 1 .773-.417 1 1 0 0 1 .802.376q.282.372.201.84a.9.9 0 0 1-.506.685q-1.274.759-2.268 1.335-.874.483-1.611.864-.737.38-.802.29m3.116 6.461a.6.6 0 0 1-.236-.046.37.37 0 0 1-.177-.162q-.089-.139-.184-.382a1.6 1.6 0 0 1-.095-.568q0-.21.025-.383.024-.174.065-.355a1.76 1.76 0 0 1-1.048-.622 1.77 1.77 0 0 1-.427-1.174q0-.129.066-.487-1.704-.6-2.751-1.915-1.048-1.316-1.353-3.392a1 1 0 0 1-.262.19.7.7 0 0 1-.32.065q-.34 0-.86-.519-.52-.518-.52-2.249 0-1.59.931-2.873.93-1.282 1.841-1.282.304 0 .381.269.078.267.078.514A7.4 7.4 0 0 1 8.205 4.75a7.1 7.1 0 0 1 2.923-.99 1.67 1.67 0 0 1 .668-1.05 1.9 1.9 0 0 1 1.127-.383v.923a1 1 0 0 1 .23-.23q.117-.093.29-.162.173-.07.403-.07a1.08 1.08 0 0 1 .693.231q.14.1.23.231a.84.84 0 0 0-.577.206.93.93 0 0 0-.296.511q1.245.324 2.306 1.06A7.3 7.3 0 0 1 18 6.803q0-.247.078-.514.078-.27.381-.269.91 0 1.841 1.281t.93 2.873q0 1.731-.518 2.25-.52.52-.866.52a.83.83 0 0 1-.577-.231q-.322 2.307-1.58 3.68-1.256 1.372-3.331 1.833a.89.89 0 0 0 .874.717h.53q.161 0 .277.092a.5.5 0 0 1 .162.23q.115.369.406.69.288.324.535.538.18.156.173.374a.39.39 0 0 1-.191.334q-.254.184-.644.323-.391.139-1.019.189a.6.6 0 0 1-.235-.047.36.36 0 0 1-.178-.161 2.2 2.2 0 0 1-.184-.382 1.6 1.6 0 0 1-.095-.569q0-.209.025-.383t.066-.355a1.79 1.79 0 0 1-1.425-1.425 11 11 0 0 1-1.432.09q-.6 0-1.167-.057a10 10 0 0 1-1.094-.173l-.05.23q0 .393.264.659a.9.9 0 0 0 .657.265h.533q.162 0 .277.092a.5.5 0 0 1 .163.23q.115.368.405.69t.536.538q.18.155.173.374a.39.39 0 0 1-.192.334 2.5 2.5 0 0 1-.644.323q-.39.138-1.018.188m7.385-9.025q.115-.46.173-.97.058-.506.058-1.084 0-2.676-1.893-4.568-1.893-1.89-4.57-1.891-2.677 0-4.57 1.892-1.89 1.893-1.89 4.57 0 .561.057 1.065.058.503.173.961.125-.461.314-.906.188-.444.444-.84a4 4 0 0 1-.218-.685 3.5 3.5 0 0 1-.078-.746q0-1.455 1.003-2.46Q8.238 6.48 9.691 6.48q.669 0 1.257.243.59.242 1.05.659a3.6 3.6 0 0 1 1.05-.66 3.3 3.3 0 0 1 1.259-.242q1.455 0 2.458 1.006 1.005 1.005 1.004 2.46a3.3 3.3 0 0 1-.321 1.43q.256.396.457.84.2.445.326.931m-6.236 4.41q2.008 0 3.382-.623a4.73 4.73 0 0 0 2.138-1.87 1 1 0 0 1 .012-.138 1 1 0 0 0 .011-.138q0-.692-.16-1.34a5 5 0 0 0-.482-1.224 3.8 3.8 0 0 1-1.145.858q-.658.32-1.443.32-.187 0-.375-.02a2.3 2.3 0 0 1-.368-.07q.116-.159.174-.33a2 2 0 0 0 .082-.361.2.2 0 0 0 .025-.095v-.096q.125.026.231.037.106.013.23.013 1.063 0 1.8-.739a2.45 2.45 0 0 0 .739-1.8q0-1.063-.738-1.8a2.45 2.45 0 0 0-1.8-.738q-.471 0-.905.173t-.776.494L12 8.623l-.626-.551a2.5 2.5 0 0 0-.779-.495 2.4 2.4 0 0 0-.903-.173 2.45 2.45 0 0 0-1.8.738 2.45 2.45 0 0 0-.738 1.8q0 .939.585 1.624.584.684 1.467.865l-.692.767a3.6 3.6 0 0 1-1.41-.973 5 5 0 0 0-.482 1.224 5.5 5.5 0 0 0-.16 1.34v.23a4.95 4.95 0 0 0 2.166 1.896q1.384.643 3.367.643m2.313-6q-.577 0-.981-.473a1.7 1.7 0 0 1-.404-1.141q0-.669.404-1.143t.98-.474.982.473.403 1.141-.403 1.143q-.405.474-.981.474m.342-2.077a.33.33 0 0 0 .255-.104.35.35 0 0 0-.502-.486.34.34 0 0 0-.095.24.33.33 0 0 0 .102.255.34.34 0 0 0 .24.095m-4.958 2.077q-.576 0-.98-.473a1.7 1.7 0 0 1-.404-1.141q0-.669.404-1.143t.98-.474.981.473q.405.472.404 1.141 0 .669-.404 1.143t-.98.474m.342-2.077a.33.33 0 0 0 .255-.104.35.35 0 0 0-.501-.486.34.34 0 0 0-.096.24.33.33 0 0 0 .103.255.34.34 0 0 0 .24.095"/></svg>