<svg xmlns="http://www.w3.org/2000/svg" width="24" height="24" viewBox="0 0 24 24" fill='currentColor'><path d="M4.5 13.721v-3.207a43 43 0 0 0-2 .45V9.407a32 32 0 0 1 4.713-.826A48 48 0 0 1 12 8.346q2.415 0 4.788.236 2.371.235 4.712.826v1.556a22 22 0 0 0-1-.226l-1-.2v3.183H18v-3.446a43 43 0 0 0-6-.429q-1.5 0-3 .094t-3 .31v3.471zM8.898 6.25l.463-2.75h5.283l.458 2.75-1.55-.08Q12.77 6.127 12 6.128t-1.552.028q-.781.028-1.551.093M6.558 20.5l1.363-8.304q.827-.09 1.664-.143a64 64 0 0 1 1.665-.084v2.714h1.5v-2.714a49 49 0 0 1 3.339.242l1.353 8.289H12.75v-3.433h-1.5V20.5z"/></svg>