<svg xmlns="http://www.w3.org/2000/svg" width="24" height="24" viewBox="0 0 24 24" fill='currentColor'><path d="M18 18.808a.78.78 0 0 1-.576-.232.78.78 0 0 1-.232-.576q0-.343.232-.576a.78.78 0 0 1 .576-.232q.343 0 .576.232a.78.78 0 0 1 .232.576q0 .343-.232.576a.78.78 0 0 1-.576.232m-11 3a.78.78 0 0 1-.575-.232.78.78 0 0 1-.233-.576q0-.343.232-.576A.78.78 0 0 1 7 20.193q.343 0 .575.232a.78.78 0 0 1 .233.576q0 .343-.232.576a.78.78 0 0 1-.576.232M6 18.75a.73.73 0 0 1-.534-.216A.73.73 0 0 1 5.25 18q0-.32.216-.535A.73.73 0 0 1 6 17.25h9q.319 0 .534.216a.73.73 0 0 1 .216.534q0 .32-.216.535a.73.73 0 0 1-.534.215zm4 3a.73.73 0 0 1-.534-.216A.73.73 0 0 1 9.25 21q0-.32.216-.535A.73.73 0 0 1 10 20.25h7q.318 0 .534.216a.73.73 0 0 1 .216.534q0 .32-.216.535a.73.73 0 0 1-.534.215zm-2.5-6q-2.178 0-3.714-1.536Q2.25 12.68 2.25 10.5q0-2.008 1.341-3.49Q4.933 5.527 6.93 5.28a5.77 5.77 0 0 1 2.11-2.222 5.6 5.6 0 0 1 2.957-.808q2.205 0 3.81 1.433 1.605 1.432 1.908 3.573 1.782.13 2.909 1.353a4.13 4.13 0 0 1 1.127 2.894q0 1.767-1.24 3.006-1.24 1.24-3.01 1.241z"/></svg>