<svg xmlns="http://www.w3.org/2000/svg" width="24" height="24" viewBox="0 0 24 24" fill='currentColor'><path d="M17.654 13.346q1.873 0 3.186 1.314 1.314 1.313 1.314 3.186t-1.314 3.187q-1.312 1.313-3.186 1.313t-3.187-1.313-1.313-3.187q0-1.873 1.313-3.186 1.314-1.314 3.187-1.314M10.97 18a8 8 0 0 0 .056.765q.045.375.158.735H2.5v-15h7.298l2 2H21.5v5.88a6.5 6.5 0 0 0-1.828-.916 6.7 6.7 0 0 0-2.018-.31q-2.834 0-4.791 2.011-1.96 2.013-1.892 4.835m5.968 1.98 3.407-3.392-.838-.838-2.57 2.538L15.8 17.15l-.839.854z"/></svg>