<svg xmlns="http://www.w3.org/2000/svg" width="24" height="24" viewBox="0 0 24 24" fill='currentColor'><path d="M2.5 19.5v-15h7.298l2 2H21.5v5.577a6.3 6.3 0 0 0-2.084-1.309 6.7 6.7 0 0 0-2.412-.441q-2.78 0-4.734 1.953-1.953 1.953-1.953 4.734 0 .655.123 1.27.121.615.385 1.216zm14.5 2q-1.873 0-3.187-1.314Q12.5 18.874 12.5 17t1.313-3.187T17 12.5t3.186 1.313Q21.5 15.128 21.5 17t-1.314 3.186Q18.874 21.5 17 21.5m-.442-1.73h.884v-3.54h-.884zM17 15.23a.48.48 0 0 0 .35-.15.48.48 0 0 0 0-.7.48.48 0 0 0-.7 0 .48.48 0 0 0 0 .7q.15.15.35.15"/></svg>