<svg xmlns="http://www.w3.org/2000/svg" width="24" height="24" viewBox="0 0 24 24" fill='currentColor'><path d="M15.548 15.75v-2.78l-1.582-2.908a1.7 1.7 0 0 0-.897.629q-.348.465-.348 1.06v6.884l1.675 2.865h7.094L20.5 9.644l-6.692-7.778-.2.2a3.5 3.5 0 0 0-.964 1.728 2.55 2.55 0 0 0 .281 1.87l3.815 6.983v3.103zm-8.298 0v-3.104l3.816-6.982a2.48 2.48 0 0 0 .26-1.87 3.7 3.7 0 0 0-.959-1.728l-.184-.2L3.49 9.644 2.5 21.5h7.094l1.675-2.865V11.75q0-.594-.355-1.055a1.75 1.75 0 0 0-.889-.623L8.442 12.97v2.78z"/></svg>