<svg xmlns="http://www.w3.org/2000/svg" width="24" height="24" viewBox="0 0 24 24" fill='currentColor'><path d="M2.5 19.5v-15h7.298l2 2H21.5v13zm9.5-2.962q1.534 0 2.614-1.078 1.078-1.079 1.078-2.614t-1.078-2.613T12 9.153q-1.535 0-2.613 1.08-1.08 1.078-1.08 2.613t1.08 2.614q1.079 1.078 2.613 1.078m-1.285-5.815q.294-.173.608-.275t.677-.102q1.05 0 1.775.725t.725 1.775q0 .363-.102.677t-.275.608zM12 15.346q-1.05 0-1.775-.725T9.5 12.846q0-.363.102-.677.102-.313.275-.607l3.408 3.407a3 3 0 0 1-.608.275 2.2 2.2 0 0 1-.677.102"/></svg>