<svg xmlns="http://www.w3.org/2000/svg" width="24" height="24" viewBox="0 0 24 24" fill='currentColor'><path d="M7.875 17.5q-1.636 0-2.526-1.242-.89-1.243-.849-2.94v-.087l-.527-.81q-.39-.608-.931-2.069Q2.5 8.89 2.5 7q0-2.363 1.136-3.932T6.5 1.5q1.828 0 2.914 1.686T10.5 7q0 1.383-.405 2.641-.405 1.26-.743 2.057l.325.537q.248.417.536 1.098.287.68.287 1.342 0 1.213-.743 2.02-.744.805-1.882.805m-2.442-5.611 2.452-.541q.343-.8.73-1.974A7.6 7.6 0 0 0 9 7q0-1.557-.702-2.779T6.5 3 4.702 4.221 4 7q0 1.508.452 2.816.452 1.309.98 2.073M7.875 16q.484 0 .805-.36.32-.36.32-.965 0-.425-.214-.923a7 7 0 0 0-.511-.963L6 13.308q0 1.154.462 1.923.46.77 1.413.769m8.25 6.5q-1.138 0-1.882-.806-.743-.806-.743-2.019 0-.661.287-1.342t.536-1.098l.325-.537a28 28 0 0 1-.738-2.052A8.5 8.5 0 0 1 13.5 12q0-2.129 1.086-3.815T17.5 6.5q1.728 0 2.864 1.568T21.5 12q0 1.89-.537 3.335-.536 1.444-.936 2.07l-.527.826v.096q.026 1.669-.861 2.921T16.125 22.5m2.404-5.554q.634-.994 1.053-2.185Q20 13.572 20 12q0-1.558-.702-2.779T17.5 8t-1.798 1.221T15 12q0 1.2.39 2.361t.726 1.987zM16.125 21q.933 0 1.404-.76T18 18.376l-2.265-.596a23 23 0 0 0-.482.91 2.2 2.2 0 0 0-.253.986q0 .51.322.917.323.408.803.408"/></svg>