<svg xmlns="http://www.w3.org/2000/svg" width="24" height="24" viewBox="0 0 24 24" fill='currentColor'><path d="M4.067 19.798q-.758 0-1.302-.544a1.78 1.78 0 0 1-.544-1.302v-1q0-.758.544-1.302a1.78 1.78 0 0 1 1.302-.544q.758 0 1.302.544t.544 1.302v1q0 .757-.544 1.302a1.78 1.78 0 0 1-1.302.544m16.983.106h-1.502a.43.43 0 0 1-.362-.169.46.46 0 0 1-.08-.398l.255-.97a.5.5 0 0 1 .19-.274.36.36 0 0 1 .312-.062l1.302.19q.321.051.53.279a.8.8 0 0 1 .209.55.82.82 0 0 1-.251.603.82.82 0 0 1-.603.25m-3.71-.36-2.763-.921a.48.48 0 0 1-.271-.246.38.38 0 0 1 0-.361l.711-1.63a.5.5 0 0 1 .28-.253.4.4 0 0 1 .368.033l2.323 1.351q.14.065.194.201t.012.291l-.271 1.214a.45.45 0 0 1-.221.289.42.42 0 0 1-.362.032m-4.65-1.75-1.911-.49a.884.884 0 0 1-.683-.879V15.5q0-.518.171-.984.17-.466.58-.756a.49.49 0 0 1 .566-.025l2.425 1.332q.156.09.214.259a.44.44 0 0 1-.008.324l-.836 1.898a.42.42 0 0 1-.518.246m-5.182-.89a.4.4 0 0 1-.292-.113.47.47 0 0 1-.145-.287q-.175-1.155-1.041-1.877A3.07 3.07 0 0 0 4 13.904h-.5a.4.4 0 0 1-.288-.117.4.4 0 0 1-.116-.287.4.4 0 0 1 .116-.287.4.4 0 0 1 .288-.117h.9q.49 0 .935-.125t.87-.38a.6.6 0 0 1 .29-.075q.155 0 .29.075.5.28 1.036.393.537.112 1.102.112.271 0 .386.27a.55.55 0 0 1-.046.53q-.216.36-.287.77a5 5 0 0 0-.072.834v.952q0 .18-.136.316a.43.43 0 0 1-.316.136zm-3.068-5.02q-.935 0-1.562-.625a2.08 2.08 0 0 1-.628-1.534q0-.427.156-.829t.467-.713L4.25 6.816V5.289q0-.387.259-.646a.88.88 0 0 1 .645-.258h2.692q.387 0 .645.258a.88.88 0 0 1 .259.646v1.527l1.377 1.367q.312.311.467.706.156.393.156.82 0 .91-.628 1.543t-1.563.632a1.9 1.9 0 0 1-.827-.18 3 3 0 0 1-.703-.462 11 11 0 0 0-.247-.176.5.5 0 0 0-.282-.082q-.185 0-.539.258a3 3 0 0 1-.715.45 2.1 2.1 0 0 1-.806.192"/></svg>