<svg xmlns="http://www.w3.org/2000/svg" width="24" height="24" viewBox="0 0 24 24" fill='currentColor'><path d="M14 20.75a.73.73 0 0 1-.534-.216.73.73 0 0 1-.216-.534q0-.32.216-.535A.73.73 0 0 1 14 19.25h3.613l-2.944-2.077a.7.7 0 0 1-.312-.476.77.77 0 0 1 .12-.554.65.65 0 0 1 .467-.311.8.8 0 0 1 .562.12l2.979 2.052-1.254-3.39a.7.7 0 0 1 .025-.57.77.77 0 0 1 .43-.388.72.72 0 0 1 .583.025.76.76 0 0 1 .4.43l1.21 3.391.961-3.485a.84.84 0 0 1 .348-.458.6.6 0 0 1 .545-.068q.294.096.47.347.178.25.082.545l-1.55 5.8a.8.8 0 0 1-.277.415.73.73 0 0 1-.458.152zm-10.75-3v-1.5h1.5v1.5zm3.5 0v-1.5h4.546q-.045.395-.034.752.013.357.06.748zm-3.5-4v-1.5h1.5v1.5zm3.5 0v-1.5h6.977q-.431.304-.787.679a6 6 0 0 0-.65.821zm-3.5-4v-1.5h1.5v1.5zm3.5 0v-1.5h12v1.5zm-3.5-4v-1.5h1.5v1.5zm3.5 0v-1.5h12v1.5z"/></svg>