<svg xmlns="http://www.w3.org/2000/svg" width="24" height="24" viewBox="0 0 24 24" fill='currentColor'><path d="M3.5 16.75v-9.5H5v4h4.5v-4H11v9.5H9.5v-4H5v4zm11.308 0a1.74 1.74 0 0 1-1.277-.531A1.74 1.74 0 0 1 13 14.942V9.058q0-.746.531-1.277a1.74 1.74 0 0 1 1.277-.531H20.5v1.5h-5.692a.3.3 0 0 0-.222.086.3.3 0 0 0-.086.222v2.192h4.192q.746 0 1.277.531t.531 1.277v1.884q0 .746-.531 1.277a1.74 1.74 0 0 1-1.277.531zm-.308-4v2.192a.3.3 0 0 0 .086.222.3.3 0 0 0 .222.086h3.884a.3.3 0 0 0 .221-.086.3.3 0 0 0 .087-.222v-1.884a.3.3 0 0 0-.087-.222.3.3 0 0 0-.22-.086z"/></svg>