<svg xmlns="http://www.w3.org/2000/svg" width="24" height="24" viewBox="0 0 24 24" fill='currentColor'><path d="m6.142 17.654 2.349-4.087a.6.6 0 0 1-.202.067q-.116.02-.231.02-1.525 0-2.59-1.074A3.53 3.53 0 0 1 4.404 10q0-1.525 1.064-2.59t2.59-1.064q1.506 0 2.58 1.064T11.712 10q0 .527-.128.98-.128.455-.374.866l-3.345 5.808zm8.885 0 2.348-4.087a.6.6 0 0 1-.202.067q-.116.02-.23.02-1.525 0-2.59-1.074A3.53 3.53 0 0 1 13.29 10q0-1.535 1.064-2.594 1.065-1.06 2.59-1.06 1.504 0 2.58 1.064 1.073 1.065 1.073 2.59 0 .527-.128.98a3.6 3.6 0 0 1-.374.866l-3.344 5.808z"/></svg>