<svg xmlns="http://www.w3.org/2000/svg" width="24" height="24" viewBox="0 0 24 24" fill='currentColor'><path d="M9.212 15.846v-4.5H7.768v-1.192h2.635v5.692zm2.384 0v-5.692h3.885v5.692zm1.193-1.192h1.5v-3.308h-1.5zM12 21.5a8.3 8.3 0 0 1-3.315-.67 8.6 8.6 0 0 1-2.697-1.819 8.6 8.6 0 0 1-1.819-2.696A8.3 8.3 0 0 1 3.5 13q0-1.77.67-3.315a8.6 8.6 0 0 1 1.819-2.697A8.6 8.6 0 0 1 8.685 5.17 8.3 8.3 0 0 1 12 4.5h.265l-1.607-1.607 1.053-1.084 3.443 3.432-3.423 3.433-1.054-1.085L12.265 6H12Q9.075 6 7.038 8.037T5 13t2.037 4.962T12 20t4.962-2.038T19 13h1.5q0 1.77-.67 3.315a8.6 8.6 0 0 1-1.818 2.696 8.6 8.6 0 0 1-2.697 1.82A8.3 8.3 0 0 1 12 21.5"/></svg>