<svg xmlns="http://www.w3.org/2000/svg" width="24" height="24" viewBox="0 0 24 24" fill='currentColor'><path d="M11.154 13.654q1.046 0 1.773-.727a2.4 2.4 0 0 0 .727-1.773q0-1.047-.727-1.773a2.4 2.4 0 0 0-1.773-.727q-1.047 0-1.773.727a2.4 2.4 0 0 0-.727 1.773q0 1.046.727 1.773a2.4 2.4 0 0 0 1.773.727m4.93 3.5-2.692-2.702q-.5.354-1.067.528a4 4 0 0 1-1.171.174q-1.671 0-2.835-1.165-1.165-1.163-1.165-2.834 0-1.67 1.164-2.836 1.165-1.165 2.835-1.165t2.835 1.165q1.166 1.164 1.166 2.835 0 .604-.182 1.171t-.535 1.067l2.717 2.708zM3.5 20.5V15H5v4h4v1.5zm11.5 0V19h4v-4h1.5v5.5zM3.5 9V3.5H9V5H5v4zM19 9V5h-4V3.5h5.5V9z"/></svg>