<svg xmlns="http://www.w3.org/2000/svg" width="24" height="24" viewBox="0 0 24 24" fill='currentColor'><path d="M20.777 22.916 19.361 21.5H16V20h1.861l-2.442-2.442H6.25v-1.65q0-.468.234-.872.233-.405.635-.651a9.2 9.2 0 0 1 3.835-1.235h.057L4 6.14V8H2.5V4.64L1.266 3.404l1.069-1.069 19.511 19.512zM14.75 9.192q0 .564-.214 1.06-.214.495-.582.871L10.069 7.24q.378-.368.872-.582.495-.215 1.059-.215 1.135 0 1.942.808.808.808.808 1.942M21.5 16v2.67l-1.5-1.5V16zm-19 5.5V16H4v4h4v1.5zM20 8V4h-4V2.5h5.5V8zM8 2.5V4H6.83l-1.5-1.5z"/></svg>