<svg xmlns="http://www.w3.org/2000/svg" width="24" height="24" viewBox="0 0 24 24" fill='currentColor'><path d="M12 16.846q-1.71 0-3.01-1.05a4.77 4.77 0 0 1-1.688-2.642h1.242q.364 1.11 1.297 1.805t2.159.695a3.52 3.52 0 0 0 2.584-1.07A3.52 3.52 0 0 0 15.654 12a3.52 3.52 0 0 0-1.07-2.584A3.52 3.52 0 0 0 12 8.346q-.821 0-1.552.354a4.1 4.1 0 0 0-1.273.954h1.671v1.192H7.154V7.154h1.192V8.79A5.4 5.4 0 0 1 9.99 7.605q.947-.45 2.011-.45 2.01 0 3.429 1.417Q16.846 9.99 16.846 12t-1.417 3.429Q14.01 16.846 12 16.846M3.5 20.5V15H5v4h4v1.5zm11.5 0V19h4v-4h1.5v5.5zM3.5 9V3.5H9V5H5v4zM19 9V5h-4V3.5h5.5V9z"/></svg>