<svg xmlns="http://www.w3.org/2000/svg" width="24" height="24" viewBox="0 0 24 24" fill='currentColor'><path d="M4.225 19.515q-1.145 0-1.94-.803a2.67 2.67 0 0 1-.795-1.947v-7.5h6.914v-4.99h4.529l2.75 2.75v4.086h1.138v-1.99l2.198-2.183 4.129 7.827h-6.327v-2.154h-1.138v1.99q.519.388.793.95.274.565.274 1.214 0 1.145-.803 1.947a2.65 2.65 0 0 1-1.947.803 2.68 2.68 0 0 1-1.653-.55 2.72 2.72 0 0 1-.995-1.44H6.873a2.72 2.72 0 0 1-.995 1.44 2.68 2.68 0 0 1-1.653.55m0-1.5q.52 0 .893-.364.372-.364.372-.886 0-.52-.364-.885a1.2 1.2 0 0 0-.886-.365q-.52 0-.885.365a1.2 1.2 0 0 0-.365.885q0 .522.357.886t.878.364m9.775 0q.522 0 .886-.364t.364-.886q0-.52-.364-.885a1.2 1.2 0 0 0-.886-.365q-.522 0-.886.365a1.2 1.2 0 0 0-.364.885q0 .522.364.886t.886.364m6.675-4.75-2.03-3.838-.308.327v3.511zM9.904 11.111h4.279V7.648l-1.889-1.873h-2.39z"/></svg>