<svg xmlns="http://www.w3.org/2000/svg" width="24" height="24" viewBox="0 0 24 24" fill='currentColor'><path d="M12.002 21.5a9.3 9.3 0 0 1-3.706-.748 9.6 9.6 0 0 1-3.016-2.03 9.6 9.6 0 0 1-2.032-3.016 9.25 9.25 0 0 1-.748-3.704q0-1.972.748-3.706a9.6 9.6 0 0 1 2.03-3.016 9.6 9.6 0 0 1 3.016-2.032 9.25 9.25 0 0 1 3.704-.748q1.972 0 3.706.748a9.6 9.6 0 0 1 3.017 2.03 9.6 9.6 0 0 1 2.03 3.016 9.25 9.25 0 0 1 .749 3.704q0 1.972-.748 3.706a9.6 9.6 0 0 1-2.03 3.017 9.6 9.6 0 0 1-3.016 2.03 9.25 9.25 0 0 1-3.704.749M12 20q3.35 0 5.675-2.325T20 12q0-.175-.008-.358-.007-.182-.017-.326a1.84 1.84 0 0 1-.603 1.151 1.76 1.76 0 0 1-1.218.456h-2.27q-.761 0-1.303-.542a1.78 1.78 0 0 1-.542-1.303v-.922h-3.693V8.31q0-.76.543-1.305a1.77 1.77 0 0 1 1.303-.545h.924v-.384q-.001-.652.394-1.08a2.1 2.1 0 0 1 .95-.597 8 8 0 0 0-1.197-.296A7.5 7.5 0 0 0 12 4Q8.65 4 6.325 6.325T4 12v.144q0 .067.01.145h4.74q1.534 0 2.614 1.078a3.56 3.56 0 0 1 1.078 2.61v.927H9.673v2.74q.557.174 1.136.265.579.09 1.191.091"/></svg>