<svg xmlns="http://www.w3.org/2000/svg" width="24" height="24" viewBox="0 0 24 24" fill='currentColor'><path d="M12 21.5q-1.972 0-3.705-.748a9.6 9.6 0 0 1-3.016-2.03 9.6 9.6 0 0 1-2.03-3.016 9.25 9.25 0 0 1-.749-3.704q0-1.972.748-3.706a9.6 9.6 0 0 1 2.03-3.016 9.6 9.6 0 0 1 3.017-2.032A9.25 9.25 0 0 1 12 2.5q3.502 0 6.107 2.205 2.604 2.205 3.216 5.518a4 4 0 0 0-.784-.262 4.6 4.6 0 0 0-.828-.105 8 8 0 0 0-1.717-3.178A7.74 7.74 0 0 0 15 4.581V7h-4v3H8v2h6.836v.467a5.7 5.7 0 0 0-.607 1.375q-.21.723-.21 1.494 0 1.47.76 2.752.759 1.284 1.542 2.381A9.4 9.4 0 0 1 12 21.5m-1-1.55V18H9v-3l-4.8-4.8q-.075.45-.138.9Q4 11.55 4 12q0 3.025 1.987 5.3T11 19.95m8.5 1.55a.35.35 0 0 1-.224-.075.4.4 0 0 1-.136-.189 6.6 6.6 0 0 0-.76-1.61 20 20 0 0 0-1.051-1.46 6 6 0 0 1-.802-1.325 3.7 3.7 0 0 1-.316-1.509q0-1.359.964-2.322a3.17 3.17 0 0 1 2.326-.962q1.362 0 2.325.963.962.963.962 2.326 0 .788-.32 1.495-.322.707-.797 1.333-.555.726-1.048 1.466a6.3 6.3 0 0 0-.764 1.605.4.4 0 0 1-.135.189.35.35 0 0 1-.224.075m0-2.334q.279-.474.598-.889t.623-.838q.35-.465.613-.99.262-.526.262-1.113 0-.873-.611-1.484a2.02 2.02 0 0 0-1.485-.612q-.873 0-1.485.612a2.02 2.02 0 0 0-.611 1.484q0 .587.262 1.112.263.525.613.99.33.424.636.844.307.42.585.884m.029-2.772a1.02 1.02 0 0 1-.751-.306 1.02 1.02 0 0 1-.307-.752q0-.444.307-.75a1.02 1.02 0 0 1 .75-.307q.445 0 .752.306.306.307.306.751 0 .445-.306.751a1.02 1.02 0 0 1-.751.307"/></svg>