<svg xmlns="http://www.w3.org/2000/svg" width="24" height="24" viewBox="0 0 24 24" fill='currentColor'><path d="M12.042 21.5q-1.115 0-1.895-.782a2.6 2.6 0 0 1-.78-1.9q0-.894.531-1.598t1.352-.953V9.223l-3.858 4.679a2.54 2.54 0 0 1 .473 1.502q0 1.117-.788 1.9a2.6 2.6 0 0 1-1.903.783q-1.114 0-1.894-.782a2.6 2.6 0 0 1-.78-1.9q0-1.117.78-1.9a2.57 2.57 0 0 1 1.893-.784q.288 0 .551.052.262.053.513.171l4.482-5.44a2.75 2.75 0 0 1-1.01-.952 2.5 2.5 0 0 1-.392-1.37q0-1.117.78-1.9a2.58 2.58 0 0 1 1.895-.782q1.114 0 1.902.783.789.782.789 1.9 0 .756-.392 1.369-.39.613-1.02.952l4.493 5.43a2.5 2.5 0 0 1 1.044-.213q1.115 0 1.904.782.788.781.788 1.9a2.58 2.58 0 0 1-.788 1.9 2.6 2.6 0 0 1-1.903.784q-1.115 0-1.895-.783a2.6 2.6 0 0 1-.78-1.9q0-.422.123-.806.122-.385.35-.706L12.75 9.223v7.013a2.66 2.66 0 0 1 1.422.941q.56.708.56 1.64 0 1.118-.788 1.9a2.6 2.6 0 0 1-1.903.783m.003-1.51q.497 0 .842-.34.346-.34.346-.842 0-.503-.343-.843a1.16 1.16 0 0 0-.85-.34q-.492 0-.832.345-.34.346-.34.838t.34.837q.34.346.837.346m-6.867-3.403q.497 0 .842-.34t.346-.843a1.14 1.14 0 0 0-.343-.842 1.16 1.16 0 0 0-.85-.34q-.492 0-.833.344-.34.345-.34.838 0 .492.34.837.34.346.838.346m13.635 0q.496 0 .842-.34.345-.34.345-.843a1.14 1.14 0 0 0-.343-.842 1.16 1.16 0 0 0-.85-.34q-.492 0-.832.344-.34.345-.34.838 0 .492.34.837.34.346.837.346M11.995 6.366q.497 0 .843-.34.345-.34.345-.843a1.14 1.14 0 0 0-.343-.843 1.16 1.16 0 0 0-.85-.34q-.492 0-.832.345-.34.346-.34.838t.34.837.837.346"/></svg>