<svg xmlns="http://www.w3.org/2000/svg" width="24" height="24" viewBox="0 0 24 24" fill='currentColor'><path d="M20.792 22.915 18.377 20.5h-2.552v-2.552l-1.5-1.5V20.5h-4.65v-4.665h4.036l-1.5-1.5H9.676v-2.552l-1.5-1.5v4.052H3.5v-4.67h4.058l-1.5-1.5H3.5V5.609L1.296 3.404 2.35 2.35l19.511 19.512zM3.5 20.5v-4.665h4.675V20.5zm17-2.861-1.804-1.804H20.5zm-3.304-3.304-1.371-1.371V9.666H20.5v4.669zm-2.871-2.871-1.798-1.798h1.798zm-3.298-3.298L9.675 6.814V3.5h4.65v4.666zm4.798 0V3.5H20.5v4.666zm-7.65-2.852L6.362 3.5h1.813z"/></svg>