<svg xmlns="http://www.w3.org/2000/svg" width="24" height="24" viewBox="0 0 24 24" fill='currentColor'><path d="M16.002 21.5q-2.29 0-3.896-1.604T10.5 16.002t1.604-3.896 3.894-1.606 3.896 1.604 1.606 3.894-1.604 3.896-3.894 1.606M16 20q1.65 0 2.825-1.175T20 16t-1.175-2.825T16 12t-2.825 1.175T12 16t1.175 2.825T16 20m-13.5-.5v-9.473l2.304-5.22H3.481V2.5h8.038v2.308h-1.323l2.073 4.723a7 7 0 0 0-.655.4q-.314.217-.603.49L8.586 4.808h-2.17L4 10.37V18h4.77q.095.4.255.783t.373.717zM16 9.308a2.18 2.18 0 0 1-1.424-.71A2.14 2.14 0 0 1 14 7.095q0-.877.576-1.5A2.18 2.18 0 0 1 16 4.884zq.087-.849.71-1.424a2.13 2.13 0 0 1 1.502-.576q.877 0 1.5.576.624.575.711 1.424z"/></svg>