<svg xmlns="http://www.w3.org/2000/svg" width="24" height="24" viewBox="0 0 24 24" fill='currentColor'><path d="M12.596 11.642q.639-.694.944-1.594.306-.9.306-1.856 0-.955-.306-1.855a4.4 4.4 0 0 0-.944-1.595q1.318.152 2.188 1.138t.87 2.312-.87 2.313a3.33 3.33 0 0 1-2.188 1.137m5.25 7.666v-2.346q0-.818-.333-1.556a3.6 3.6 0 0 0-.944-1.267q1.15.383 2.117 1.032.968.65.968 1.79v2.347zm5.308-8.558h-5.5v-1.5h5.5zm-14.808.942q-1.443 0-2.472-1.028T4.846 8.192t1.028-2.471 2.472-1.029 2.472 1.029 1.028 2.471-1.028 2.472-2.472 1.028m-7.5 7.616v-2.223q0-.735.4-1.36a2.66 2.66 0 0 1 1.065-.963 14.5 14.5 0 0 1 2.992-1.09 12.94 12.94 0 0 1 6.086 0q1.509.363 2.992 1.09.667.336 1.066.962.4.627.4 1.36v2.224z"/></svg>