<svg xmlns="http://www.w3.org/2000/svg" width="24" height="24" viewBox="0 0 24 24" fill='currentColor'><path d="M12 22.5q-4.448 0-7.474-1.629T1.5 16.875q0-1.609 1.504-2.927 1.504-1.317 4.208-2.038v1.54q-1.931.575-3.071 1.5Q3 15.872 3 16.874q0 1.658 2.69 2.892T12 21t6.31-1.233T21 16.875q0-1.002-1.14-1.926t-3.072-1.499v-1.54q2.696.711 4.203 2.034 1.509 1.322 1.509 2.931 0 2.367-3.026 3.996T12 22.501m-2.596-4.038V7.548H4.5v-1.5h15v1.5h-4.904v10.914h-1.5V13.49h-2.192v4.97zM12 4.952q-.71 0-1.215-.506a1.66 1.66 0 0 1-.506-1.215q0-.718.505-1.229.506-.51 1.216-.511.71 0 1.215.511.506.51.506 1.229 0 .71-.505 1.215A1.66 1.66 0 0 1 12 4.952"/></svg>