<svg xmlns="http://www.w3.org/2000/svg" width="24" height="24" viewBox="0 0 24 24" fill='currentColor'><path d="M5.373 14.866a.38.38 0 0 1-.326.012.4.4 0 0 1-.23-.23l-.663-1.769a1.5 1.5 0 0 1-.088-.534.37.37 0 0 1 .24-.356q.47-.193.874.136.403.33.61.84l.4 1.076a.4.4 0 0 1 .013.295.42.42 0 0 1-.199.214zm5.654 6.625q-.397 0-.765-.161a1.6 1.6 0 0 1-.616-.457L6.02 16.67a.77.77 0 0 1-.192-.547q.015-.299.264-.506a.74.74 0 0 1 1.053.07l2.298 2.662v-.692q0-.162.04-.31.041-.15.122-.311l-1.121-3.233a.76.76 0 0 1 .035-.578.7.7 0 0 1 .426-.38.75.75 0 0 1 .578.041q.284.137.38.43l1.004 2.868h.94V13.03q0-.319.216-.534a.73.73 0 0 1 .534-.216q.32 0 .535.216a.73.73 0 0 1 .215.534v3.154h.879l.544-2.321a.78.78 0 0 1 .332-.484.7.7 0 0 1 .57-.084.78.78 0 0 1 .484.332q.165.252.083.57l-.448 1.987h.356q.105.015.22.035a1 1 0 0 1 .209.061l.384-1.013a.76.76 0 0 1 .396-.431q.284-.137.578-.025.279.111.402.4a.75.75 0 0 1 .013.582l-.79 2.104v2.075q0 .633-.444 1.076a1.47 1.47 0 0 1-1.076.444zM8.092 6.87a.34.34 0 0 1-.29-.088.45.45 0 0 1-.154-.275l-.206-1.821a.7.7 0 0 1 .155-.555.77.77 0 0 1 .515-.276.7.7 0 0 1 .554.16q.236.2.276.519l.19 1.821a.34.34 0 0 1-.088.29.45.45 0 0 1-.275.154zm.522 4.793a.4.4 0 0 1-.322-.06.4.4 0 0 1-.169-.279l-.28-2.427a.7.7 0 0 1 .154-.555.77.77 0 0 1 .515-.276.7.7 0 0 1 .554.16q.236.2.276.52l.266 2.28a.4.4 0 0 1-.061.293.42.42 0 0 1-.256.161zm3.636-.596a.4.4 0 0 1-.287-.117.4.4 0 0 1-.117-.287V8.317q0-.318.216-.534a.73.73 0 0 1 .534-.216q.32 0 .535.216a.73.73 0 0 1 .215.534v2.347a.4.4 0 0 1-.116.287.4.4 0 0 1-.288.117zm0-4.712a.4.4 0 0 1-.287-.116.4.4 0 0 1-.117-.288V3.606q0-.32.216-.535a.73.73 0 0 1 .534-.215q.32 0 .535.215a.73.73 0 0 1 .215.535v2.346a.4.4 0 0 1-.116.288.4.4 0 0 1-.288.116zm3.933 5.833-.702-.183a.42.42 0 0 1-.257-.162.4.4 0 0 1-.06-.292l.265-2.315a.77.77 0 0 1 .276-.515.7.7 0 0 1 .554-.155.78.78 0 0 1 .51.276.67.67 0 0 1 .16.546l-.256 2.461a.4.4 0 0 1-.17.278.4.4 0 0 1-.32.06m.546-4.718-.702-.07a.45.45 0 0 1-.275-.155.34.34 0 0 1-.088-.29l.19-1.83a.77.77 0 0 1 .276-.515.7.7 0 0 1 .555-.155.78.78 0 0 1 .51.276.67.67 0 0 1 .159.545l-.181 1.831a.45.45 0 0 1-.154.275.34.34 0 0 1-.29.088m1.788 6.308-.657-.204a.38.38 0 0 1-.235-.191.42.42 0 0 1-.033-.303l.327-1.246a.8.8 0 0 1 .36-.464.64.64 0 0 1 .558-.063.8.8 0 0 1 .45.347q.157.25.076.545l-.336 1.297a.38.38 0 0 1-.194.246.4.4 0 0 1-.316.036m1.05-3.486-.667-.164a.36.36 0 0 1-.242-.194.43.43 0 0 1-.04-.316l.315-1.15q.126-.446.314-.831.188-.386.578-.29.471.113.567.614t-.055 1.044l-.276 1.004a.37.37 0 0 1-.186.242.4.4 0 0 1-.308.04"/></svg>