<svg xmlns="http://www.w3.org/2000/svg" width="24" height="24" viewBox="0 0 24 24" fill='currentColor'><path d="m9 6.179-1.5-1.5v-.9H9zm3.836 3.836-1.5-1.5V1.78h1.5zM16.75 22.25h-6.002q-.668 0-1.244-.354a5.2 5.2 0 0 1-1.044-.84L2.08 14.4l1.774-1.466L7.5 14.836V9.623l-6.22-6.22 1.07-1.068 19.511 19.511-1.069 1.07-1.61-1.61a4 4 0 0 1-1.104.688 3.4 3.4 0 0 1-1.328.256m4.952-16.917q0-1.19-.822-2.01-.822-.823-2.01-.823V1.308q1.672 0 2.848 1.176t1.176 2.849zM6.029 22.384q-1.835 0-3.124-1.289t-1.29-3.124h1.193q0 1.335.943 2.278a3.1 3.1 0 0 0 2.278.943zM20.5 17.68l-5.836-5.821h.509v-9.08h1.5v9.08H19V4.5h1.5z"/></svg>