<svg xmlns="http://www.w3.org/2000/svg" width="24" height="24" viewBox="0 0 24 24" fill='currentColor'><path d="M9.692 13.885h3.693q.391 0 .657-.266a.9.9 0 0 0 .266-.658v-.692l1.846 1.154V8.808L14.308 9.96v-.69a.9.9 0 0 0-.266-.658.9.9 0 0 0-.658-.265H9.689a.9.9 0 0 0-.656.266.9.9 0 0 0-.264.658v3.695q0 .393.266.656a.9.9 0 0 0 .657.263M12 22.191v-3.23a8.2 8.2 0 0 1-3.195-.635 8.7 8.7 0 0 1-2.644-1.706 8.2 8.2 0 0 1-1.801-2.49 7 7 0 0 1-.668-3.014q0-1.732.655-3.244a8.5 8.5 0 0 1 1.775-2.643 8.2 8.2 0 0 1 2.632-1.776A8.2 8.2 0 0 1 12 2.808q1.732 0 3.243.646a8.3 8.3 0 0 1 2.643 1.776 8.3 8.3 0 0 1 1.774 2.64 8.2 8.2 0 0 1 .647 3.242q0 3.183-2.216 6.138-2.215 2.955-6.092 4.941"/></svg>