<svg xmlns="http://www.w3.org/2000/svg" width="24" height="24" viewBox="0 0 24 24" fill='currentColor'><path d="M14.654 17.346h1.192v-1.5h1.5v-1.192h-1.5v-1.5h-1.192v1.5h-1.5v1.192h1.5zm-7.5-5.5h1.192v-2.5h2.308v2.5h1.192V6.154h-1.192v2H8.346v-2H7.154zm6 0h3.596l.596-.596v-4.5l-.596-.596h-3.596zm-4.808 3.808v-1.308h2.308v1.308zm2.171 3.192h1.252l-.9-2.08h.381l.596-.597V13.75l-.596-.596H7.154v5.692h1.192v-2h1.312zm3.83-8.192V7.346h1.807v3.308zM12.001 21.5a9.3 9.3 0 0 1-3.706-.748 9.6 9.6 0 0 1-3.016-2.03 9.6 9.6 0 0 1-2.032-3.016 9.25 9.25 0 0 1-.748-3.704q0-1.972.748-3.706a9.6 9.6 0 0 1 2.03-3.016 9.6 9.6 0 0 1 3.016-2.032 9.25 9.25 0 0 1 3.704-.748q1.972 0 3.706.748a9.6 9.6 0 0 1 3.017 2.03 9.6 9.6 0 0 1 2.03 3.016 9.25 9.25 0 0 1 .749 3.704q0 1.972-.748 3.706a9.6 9.6 0 0 1-2.03 3.017 9.6 9.6 0 0 1-3.016 2.03 9.25 9.25 0 0 1-3.704.749"/></svg>