<svg xmlns="http://www.w3.org/2000/svg" width="24" height="24" viewBox="0 0 24 24" fill='currentColor'><path d="M14.346 10.654h1.808V7.346h-1.808zm-6 5h2.308v-1.308H8.346zm-1.192 3.192h1.192v-2h1.312l.86 2h1.251l-.9-2.08h.381l.596-.597V13.75l-.596-.596H7.154zm0-7h1.192V9.4L7.154 8.208zM12 21.5a9.2 9.2 0 0 1-3.703-.749 9.6 9.6 0 0 1-3.016-2.032 9.6 9.6 0 0 1-2.032-3.016A9.2 9.2 0 0 1 2.5 12q0-2.042.751-3.754a9 9 0 0 1 2.051-2.944l13.396 13.396a8.6 8.6 0 0 1-2.987 2.07A9.5 9.5 0 0 1 12 21.5m8.846 1.454-19.8-19.8L2.1 2.1l19.8 19.8zm-.861-5.82-5.289-5.288h2.054l.596-.596v-4.5l-.596-.596h-3.596v4.15l-1.308-1.308V6.154h-1.192v1.65L6.85 4a9.4 9.4 0 0 1 2.402-1.12Q10.507 2.5 12 2.5q1.97 0 3.703.75a9.6 9.6 0 0 1 3.016 2.03 9.6 9.6 0 0 1 2.032 3.017q.75 1.734.749 3.703a9.6 9.6 0 0 1-.372 2.692 8.8 8.8 0 0 1-1.143 2.443"/></svg>