<svg xmlns="http://www.w3.org/2000/svg" width="24" height="24" viewBox="0 0 24 24" fill='currentColor'><path d="m20.6 17.727-5.039-5.029v-.275H19.1V11q0-2.931-2.05-4.965Q15 4 12.1 4q-1.1 0-2.116.327a6.7 6.7 0 0 0-1.842.912L7.058 4.185a8 8 0 0 1 2.28-1.227A8.3 8.3 0 0 1 12.1 2.5a8.3 8.3 0 0 1 3.3.662 8.53 8.53 0 0 1 4.53 4.523Q20.6 9.23 20.6 11zm.246 5.327-.861-.862H12.1v-1.5h6.385L17.292 19.5h-1.73v-1.73L5.796 8.003a7.7 7.7 0 0 0-.504 1.432A6.5 6.5 0 0 0 5.1 11v1.423h3.539V19.5H3.6V11q0-1.154.276-2.175t.805-1.952L1.046 3.24l1.07-1.054 19.784 19.8z"/></svg>