<svg xmlns="http://www.w3.org/2000/svg" width="24" height="24" viewBox="0 0 24 24" fill='currentColor'><path d="M6.85 22.108 1.883 17.14 17.13 1.892l4.967 4.967zm5.773-4.527 4.948-4.948 4.527 4.526-4.948 4.949zm-.621-2.87a.87.87 0 0 0 .643-.26.88.88 0 0 0 .259-.645.87.87 0 0 0-.26-.644.88.88 0 0 0-.646-.258.87.87 0 0 0-.643.26.88.88 0 0 0-.259.645.87.87 0 0 0 .26.644.88.88 0 0 0 .646.258m-1.808-1.807a.87.87 0 0 0 .643-.26.88.88 0 0 0 .26-.646.87.87 0 0 0-.261-.643.88.88 0 0 0-.645-.259.87.87 0 0 0-.644.26.88.88 0 0 0-.259.646.87.87 0 0 0 .26.643.88.88 0 0 0 .646.259m3.615 0a.87.87 0 0 0 .644-.26.88.88 0 0 0 .258-.646.87.87 0 0 0-.26-.643.88.88 0 0 0-.645-.259.87.87 0 0 0-.644.26.88.88 0 0 0-.258.646.87.87 0 0 0 .26.643.88.88 0 0 0 .645.259m-7.405-1.562L1.902 6.84 6.85 1.892l4.517 4.518zm5.598-.246a.87.87 0 0 0 .643-.26.88.88 0 0 0 .259-.645.87.87 0 0 0-.26-.644.88.88 0 0 0-.646-.259.87.87 0 0 0-.643.26.88.88 0 0 0-.259.646.87.87 0 0 0 .26.643.88.88 0 0 0 .646.26"/></svg>