<svg xmlns="http://www.w3.org/2000/svg" width="24" height="24" viewBox="0 0 24 24" fill='currentColor'><path d="m11 20.327-2.165-1.946a112 112 0 0 1-3.444-3.246q-1.402-1.39-2.269-2.54-.866-1.149-1.244-2.16A5.9 5.9 0 0 1 1.5 8.35q0-2.129 1.436-3.557T6.5 3.366q1.31 0 2.475.604Q10.14 4.576 11 5.72q.86-1.144 2.025-1.75a5.3 5.3 0 0 1 2.475-.604q1.97 0 3.313 1.23 1.34 1.23 1.595 2.945a4.2 4.2 0 0 0-.974-.226 9 9 0 0 0-1.019-.055q-2.154.01-3.847 1.616t-1.693 4.105q0 1.095.443 2.207a5.16 5.16 0 0 0 1.288 1.897q-.504.453-1.204 1.078-.7.624-1.298 1.172zm6.95-4.508-2.494-2.469 1.069-1.053 1.425 1.409 3.525-3.534 1.07 1.053z"/></svg>