<svg xmlns="http://www.w3.org/2000/svg" width="24" height="24" viewBox="0 0 24 24" fill='currentColor'><path d="m20.792 22.915-7.43-7.43q-.712.6-1.12.988a6 6 0 0 0-.656.706 3.2 3.2 0 0 0-.402.673 13 13 0 0 0-.355.925q-.5 1.44-1.495 2.207t-2.343.766a3.62 3.62 0 0 1-2.566-1.012A3.58 3.58 0 0 1 3.26 18.25h1.519q.086.845.727 1.422a2.15 2.15 0 0 0 1.485.578q.861 0 1.451-.524.59-.525 1.06-1.722.256-.647.457-1.073.2-.428.49-.795a6 6 0 0 1 .726-.753q.437-.387 1.133-.952L5.09 7.213q-.146.362-.23.745a5 5 0 0 0-.101.792h-1.5a6.6 6.6 0 0 1 .654-2.714L1.28 3.404l1.069-1.07L21.86 21.846zm-2.344-7.313-1.07-1.07a9.4 9.4 0 0 0 1.388-2.628A9 9 0 0 0 19.241 9a9.2 9.2 0 0 0-.654-3.446 9.2 9.2 0 0 0-1.9-2.954l1.084-1.035a10.8 10.8 0 0 1 2.202 3.439q.768 1.92.767 3.996 0 1.786-.585 3.468a11 11 0 0 1-1.707 3.134m-2.715-2.716-1.104-1.103q.313-.633.462-1.331.15-.699.15-1.452 0-2.22-1.515-3.736Q12.211 3.75 9.991 3.75a5.33 5.33 0 0 0-2.677.717l-1.11-1.11a6.7 6.7 0 0 1 1.798-.826 7 7 0 0 1 1.989-.281q2.878 0 4.814 1.935T16.74 9q0 1.077-.248 2.05a7 7 0 0 1-.76 1.836m-3.481-3.48L9.569 6.723a.7.7 0 0 1 .203-.03h.219q.972 0 1.64.667T12.298 9q0 .111-.008.21a1 1 0 0 1-.038.196m-2.261 1.902a2.22 2.22 0 0 1-1.641-.675A2.24 2.24 0 0 1 7.683 9q0-.286.06-.553t.207-.512l3.121 3.12q-.246.132-.52.192-.275.06-.56.06"/></svg>