<svg xmlns="http://www.w3.org/2000/svg" width="24" height="24" viewBox="0 0 24 24" fill='currentColor'><path d="M6.952 21.75q-1.563 0-2.68-1.103T3.153 17.98q0-1.072.313-1.981.315-.91.872-1.7l-1.52-1.21 4-3.469a2.8 2.8 0 0 1-.005-1.247q.138-.6.459-1.116l4.485 4.484a3.1 3.1 0 0 1-1.018.432q-.554.126-1.16.047l-2.432 4.304-1.604-1.273a5.5 5.5 0 0 0-.645 1.234q-.245.662-.245 1.495 0 .94.686 1.604.687.665 1.612.665.89 0 1.486-.524.594-.525 1.064-1.722.256-.647.457-1.073.2-.428.49-.795a6 6 0 0 1 .726-.753q.437-.387 1.133-.952L5.09 7.213q-.147.362-.23.745t-.101.792h-1.5a6.6 6.6 0 0 1 .654-2.714L1.727 3.85l1.054-1.07 18.65 18.65-1.07 1.054-7-7q-.71.602-1.12.989-.408.387-.654.706a3.2 3.2 0 0 0-.402.673q-.156.354-.356.925-.501 1.44-1.5 2.207-1.001.766-2.377.766m11.496-6.148-1.07-1.07a9.4 9.4 0 0 0 1.388-2.628A9 9 0 0 0 19.241 9a9.2 9.2 0 0 0-.654-3.446 9.2 9.2 0 0 0-1.9-2.954l1.084-1.035A10.8 10.8 0 0 1 20.741 9q0 1.786-.586 3.468a11 11 0 0 1-1.707 3.134m-2.715-2.716-1.104-1.103q.313-.633.462-1.331.15-.699.15-1.452 0-2.22-1.515-3.736Q12.211 3.75 9.991 3.75a5.33 5.33 0 0 0-2.677.717l-1.11-1.11a6.7 6.7 0 0 1 1.798-.826 7 7 0 0 1 1.989-.281q2.879 0 4.814 1.935T16.74 9q0 1.077-.248 2.05a7 7 0 0 1-.76 1.836m-2.71-2.71-4.2-4.2q.277-.105.571-.166A3 3 0 0 1 10 5.75q1.354 0 2.302.948.948.949.948 2.302 0 .312-.06.606t-.167.57"/></svg>