<svg xmlns="http://www.w3.org/2000/svg" width="24" height="24" viewBox="0 0 24 24" fill='currentColor'><path d="M11.404 16.835v-3.41l-2.408 2.408q.529.407 1.14.656t1.268.345m1.192-.016a4.87 4.87 0 0 0 2.398-.986l-2.398-2.399zm3.237-1.825a4.4 4.4 0 0 0 .639-1.14q.231-.61.337-1.258h-3.375zm-2.399-3.59h3.385a5.6 5.6 0 0 0-.337-1.248 4.7 4.7 0 0 0-.65-1.135zm-.838-.829 2.408-2.408a5 5 0 0 0-1.14-.661 5.3 5.3 0 0 0-1.268-.35zM12 12.837a.8.8 0 0 0 .597-.24.8.8 0 0 0 .24-.597.8.8 0 0 0-.24-.597.8.8 0 0 0-.597-.24.8.8 0 0 0-.597.24.8.8 0 0 0-.24.597q0 .358.24.597.24.24.597.24m-.596-2.271V7.18a4.87 4.87 0 0 0-2.398.986zm-4.233.838h3.395L8.158 9.012q-.408.529-.657 1.131a4.8 4.8 0 0 0-.33 1.26m.987 3.6 2.408-2.408h-3.4q.095.658.34 1.268.244.61.652 1.14M3.5 20.5v-17h17v17z"/></svg>