<svg xmlns="http://www.w3.org/2000/svg" width="24" height="24" viewBox="0 0 24 24" fill='currentColor'><path d="M11.689 15.84q0 .95.453 1.864.454.914 1.498 2.117l-1.078.954q-1.249-1.323-1.819-2.486a5.4 5.4 0 0 1-.57-2.408q0-.912.268-1.904.27-.993.89-2.49.58-1.427.788-2.17.208-.741.208-1.376a3.54 3.54 0 0 0-.479-1.77q-.48-.846-1.613-1.904l1.029-1.075q1.372 1.272 1.968 2.385t.595 2.339a7 7 0 0 1-.236 1.726q-.235.91-.856 2.402-.607 1.472-.826 2.276a5.8 5.8 0 0 0-.22 1.52m4.688.02q0 .95.446 1.863.446.915 1.49 2.117l-1.078.939q-1.248-1.323-1.811-2.479a5.4 5.4 0 0 1-.562-2.4q0-.91.268-1.904.268-.992.89-2.49.58-1.427.788-2.17a5 5 0 0 0 .207-1.376q0-.926-.486-1.77-.487-.846-1.621-1.903l1.029-1.075q1.373 1.27 1.976 2.384.602 1.114.602 2.339a7 7 0 0 1-.235 1.727q-.236.91-.857 2.402-.606 1.47-.826 2.276a5.8 5.8 0 0 0-.22 1.52m-9.361 0q0 .95.453 1.863.454.915 1.498 2.117l-1.079.954Q6.64 19.471 6.07 18.308A5.4 5.4 0 0 1 5.5 15.9q0-.91.268-1.904.27-.992.89-2.49.58-1.427.788-2.17a5 5 0 0 0 .208-1.376 3.54 3.54 0 0 0-.479-1.77q-.48-.846-1.614-1.903l1.014-1.075q1.373 1.27 1.976 2.384t.603 2.339q0 .817-.236 1.727-.235.91-.856 2.402-.607 1.47-.826 2.276a5.8 5.8 0 0 0-.22 1.52"/></svg>