<svg xmlns="http://www.w3.org/2000/svg" width="24" height="24" viewBox="0 0 24 24" fill='currentColor'><path d="M11.989 17.615a.98.98 0 0 0 .723-.295 1 1 0 0 0 .296-.724.98.98 0 0 0-.296-.724 1 1 0 0 0-.724-.295.98.98 0 0 0-.723.296 1 1 0 0 0-.296.724q0 .428.296.723a1 1 0 0 0 .724.295m-.708-3.58h1.407q.02-.74.217-1.18.197-.441.957-1.17.66-.66 1.01-1.219.351-.558.351-1.319 0-1.29-.928-2.017-.927-.726-2.195-.726-1.252 0-2.072.668t-1.17 1.574l1.284.515a2.9 2.9 0 0 1 .625-.97q.443-.472 1.314-.472.886 0 1.31.486t.425 1.068q0 .51-.291.933-.29.423-.74.817-.985.888-1.245 1.418-.26.528-.26 1.593M12 21.5a9.3 9.3 0 0 1-3.704-.748 9.6 9.6 0 0 1-3.018-2.03 9.6 9.6 0 0 1-2.03-3.016 9.25 9.25 0 0 1-.749-3.704q0-1.972.748-3.706a9.6 9.6 0 0 1 2.03-3.016 9.6 9.6 0 0 1 3.016-2.032 9.25 9.25 0 0 1 3.704-.748q1.972 0 3.706.748a9.6 9.6 0 0 1 3.017 2.03 9.6 9.6 0 0 1 2.03 3.016 9.25 9.25 0 0 1 .749 3.704q0 1.972-.748 3.706a9.6 9.6 0 0 1-2.03 3.017 9.6 9.6 0 0 1-3.016 2.03 9.25 9.25 0 0 1-3.704.749"/></svg>