<svg xmlns="http://www.w3.org/2000/svg" width="24" height="24" viewBox="0 0 24 24" fill='currentColor'><path d="M16.112 11.558 14.45 8.606l1.662-2.952h3.273l1.661 2.952-1.662 2.952zm-5.748 3.394L8.702 12l1.662-2.952h3.272L15.299 12l-1.662 2.952zm0-6.798L8.702 5.202l1.662-2.952h3.272l1.662 2.952-1.662 2.952zm-5.749 3.404L2.954 8.606l1.661-2.952h3.273l1.616 2.952-1.616 2.952zm0 6.788-1.661-2.952 1.661-2.952h3.273l1.616 2.952-1.616 2.952zm5.81 3.404-1.723-2.952 1.662-2.952h3.272l1.662 2.952-1.662 2.952zm5.686-3.404-1.661-2.952 1.662-2.952h3.273l1.661 2.952-1.662 2.952z"/></svg>