<svg xmlns="http://www.w3.org/2000/svg" width="24" height="24" viewBox="0 0 24 24" fill='currentColor'><path d="M1.5 18.5v-14H3V14h8.25V6.5H22.5v12H21v-3H3v3zm5.499-5.942q-1.066 0-1.811-.747A2.47 2.47 0 0 1 4.442 10q0-1.066.747-1.812A2.47 2.47 0 0 1 7 7.443q1.066 0 1.811.747A2.47 2.47 0 0 1 9.559 10q0 1.066-.747 1.812A2.47 2.47 0 0 1 7 12.558m.001-1.5q.444 0 .751-.307.307-.306.307-.751 0-.444-.307-.751A1.02 1.02 0 0 0 7 8.942q-.444 0-.751.307a1.02 1.02 0 0 0-.307.751q0 .444.307.751t.751.307m0 0q-.444 0-.751-.307A1.02 1.02 0 0 1 5.942 10q0-.444.307-.751T7 8.942t.751.307.307.751-.307.751a1.02 1.02 0 0 1-.751.307"/></svg>