<svg xmlns="http://www.w3.org/2000/svg" width="24" height="24" viewBox="0 0 24 24" fill='currentColor'><path d="M2.25 18.5v-1.51q.882-.075 1.338-.533Q4.042 16 5.325 16q1.354 0 1.888.5.532.5 1.437.5.978 0 1.49-.5.51-.5 1.86-.5t1.86.5q.512.5 1.49.5.904 0 1.438-.5t1.887-.5q1.31 0 1.738.447.426.448 1.337.544v1.51q-1.175-.001-1.705-.5-.53-.5-1.395-.5-.939 0-1.467.5-.53.499-1.858.5-1.37-.001-1.848-.5-.48-.5-1.477-.5t-1.477.5q-.48.499-1.848.5-1.329-.001-1.858-.5-.528-.5-1.467-.5-.875 0-1.395.5-.52.499-1.705.5m.74-6 1.045-1.044L5.614 13H7.5V9.26l-1.325.975-.886-1.196L12 4.106l6.702 4.923-.887 1.221-1.315-.965V13h1.887l1.578-1.544L21.01 12.5l-2 2H4.971zm9.76.5v-2h-1.5v2z"/></svg>