<svg xmlns="http://www.w3.org/2000/svg" width="24" height="24" viewBox="0 0 24 24" fill='currentColor'><path d="m2.337 12.42 5.26-7.795q1.893.982 3.445 2.643t2.237 3.43q.967-1.104 2.045-1.713 1.078-.607 3.143-1.146 1.035-.287 1.805-.554a15 15 0 0 0 1.468-.593v8.506l-7.375 4.648a4 4 0 0 1-.95.434 3.7 3.7 0 0 1-1.065.153q-.701 0-1.359-.268a4 4 0 0 1-1.193-.765zm7.567 3.33a.85.85 0 0 0 .626-.259.85.85 0 0 0 .259-.626v-.095a.2.2 0 0 0-.025-.095q.028.019.057.024t.058.005a.88.88 0 0 0 .633-.259.84.84 0 0 0 .267-.626.85.85 0 0 0-.259-.626.85.85 0 0 0-.999-.166 1 1 0 0 0-.288.227l-2.585-2.91a.8.8 0 0 0 .253-.288.8.8 0 0 0 .1-.392.85.85 0 0 0-.26-.626.85.85 0 0 0-.625-.26.85.85 0 0 0-.626.26.85.85 0 0 0-.234.806.2.2 0 0 0-.058-.024.88.88 0 0 0-.691.254.84.84 0 0 0-.266.626q0 .368.258.626a.85.85 0 0 0 .626.258.84.84 0 0 0 .687-.344l2.594 2.92a.7.7 0 0 0-.283.291.9.9 0 0 0-.104.414q0 .368.26.626.257.26.625.259"/></svg>