<svg xmlns="http://www.w3.org/2000/svg" width="24" height="24" viewBox="0 0 24 24" fill='currentColor'><path d="M12 21q-3.117 0-5.308-2.153Q4.5 16.694 4.5 13.605q0-1.475.584-2.82a7.8 7.8 0 0 1 1.612-2.389l4.039-3.963q.27-.248.598-.382.327-.135.665-.135.339 0 .667.135.33.135.6.382l4.039 3.963a7.8 7.8 0 0 1 1.612 2.389q.585 1.346.584 2.822 0 3.09-2.192 5.242Q15.119 21 12 21m0-1.5q2.5 0 4.25-1.71T18 13.61q0-1.178-.45-2.243a5.5 5.5 0 0 0-1.3-1.867l-4.039-3.988A.3.3 0 0 0 12 5.425a.3.3 0 0 0-.211.087L7.75 9.5q-.85.802-1.3 1.867T6 13.609q0 2.471 1.75 4.181T12 19.5"/></svg>