<svg xmlns="http://www.w3.org/2000/svg" width="24" height="24" viewBox="0 0 24 24" fill='currentColor'><path d="M3.5 21.5v-5.635h1.185l1.623 4.339h.06l1.663-4.339h1.154V21.5h-.839v-3.148l.05-1.158-.05-.01L6.694 21.5h-.698l-1.642-4.315-.06.01.05 1.157V21.5zm6.51 0 2.115-5.635h.989l2.115 5.635h-.954l-.521-1.448h-2.32L10.93 21.5zm5.567 0 1.86-2.933-1.745-2.702h1.035l1.258 2.054h.06l1.241-2.054h1.035l-1.735 2.702 1.876 2.933h-1.035l-1.383-2.22h-.06l-1.398 2.22zm-3.856-2.227h1.746l-.84-2.442h-.06zM12 2.5q2.375 0 4.958.39 2.582.39 5.673 1.237l-1.666 8.938-1.46-.278 1.403-7.58q-2.687-.629-4.832-.917A30.5 30.5 0 0 0 12 4q-1.93 0-4.076.29-2.144.288-4.832.918l1.402 7.579-1.46.278L1.37 4.127q3.09-.846 5.673-1.236T12 2.5m4.756 11.733L15.5 13.45l.239-.42A2.1 2.1 0 0 0 16 12.008q0-.387-.125-.751a1.9 1.9 0 0 0-.384-.652 4 4 0 0 1-.722-1.155 3.46 3.46 0 0 1-.13-2.273q.134-.453.386-.87l.239-.385 1.27.783-.263.41q-.141.234-.207.49a2.08 2.08 0 0 0 .47 1.927q.468.495.717 1.13.249.636.249 1.318 0 .498-.129.956t-.361.884zm-4.046 0-1.256-.783.238-.42q.13-.243.197-.495.065-.252.065-.527 0-.39-.125-.752a1.9 1.9 0 0 0-.385-.652 4 4 0 0 1-.721-1.155 3.47 3.47 0 0 1-.13-2.273q.134-.453.386-.87l.238-.385 1.271.783-.263.41a1.9 1.9 0 0 0-.275 1.013q0 .389.14.752.138.364.399.652.467.495.716 1.13.249.636.249 1.318 0 .498-.129.956t-.361.884zm-4.031 0-1.271-.783.254-.42q.13-.244.196-.5a2.2 2.2 0 0 0 .065-.532q0-.388-.132-.747a2 2 0 0 0-.393-.647 3.7 3.7 0 0 1-.726-1.145 3.5 3.5 0 0 1-.258-1.332q0-.489.126-.946.126-.458.393-.875l.254-.385 1.27.783-.263.41a1.8 1.8 0 0 0-.215.478q-.075.26-.075.535 0 .389.14.752.138.364.398.652.467.495.717 1.13.249.636.249 1.318 0 .498-.13.956-.128.458-.36.884z"/></svg>