<svg xmlns="http://www.w3.org/2000/svg" width="24" height="24" viewBox="0 0 24 24" fill='currentColor'><path d="M13.025 21.5q-1.423 0-3.596-.389t-3.456-1.365q-.72-.556-1.513-1.737a20 20 0 0 1-1.45-2.57q-.658-1.388-1.084-2.774Q1.5 11.277 1.5 10.3q0-1.962 1.392-3.208A24.4 24.4 0 0 1 5.83 4.84a18.3 18.3 0 0 1 3.2-1.638 9.7 9.7 0 0 1 3.62-.702q1.835 0 3.379.73a22 22 0 0 1 3.041 1.76q.355.24.927.72.57.481 1.125 1.198.555.716.958 1.661.404.945.419 2.13.03 1.755-.753 3.665a13.4 13.4 0 0 1-2.099 3.497 11.7 11.7 0 0 1-3.04 2.613Q14.886 21.5 13.026 21.5m-2.675-3.75q1.235 0 2.042-.873.808-.873.808-1.977 0-.502-.201-.991a2.5 2.5 0 0 0-.663-.901 5 5 0 0 1-.947-1.158 5.1 5.1 0 0 1-.554-1.392q-.232-1.014-1.006-1.61A2.76 2.76 0 0 0 8.1 8.25q-1.12 0-1.984.866-.866.864-.866 1.984 0 .927.388 2.084a8.8 8.8 0 0 0 1.08 2.168 7.1 7.1 0 0 0 1.623 1.705q.932.693 2.009.693m0-1.5q-.704 0-1.347-.586a6.5 6.5 0 0 1-1.144-1.4 8.5 8.5 0 0 1-.805-1.695q-.304-.88-.304-1.469 0-.511.42-.93.418-.42.93-.42.367 0 .757.256.39.255.534.786.256 1.012.703 1.816.448.804 1.22 1.51a1.1 1.1 0 0 1 .386.832q0 .486-.367.893-.368.407-.983.407m5.9-3.5a.73.73 0 0 0 .535-.216A.73.73 0 0 0 17 12v-.654l.616.308a.74.74 0 0 0 .575.068.73.73 0 0 0 .448-.347.73.73 0 0 0 .096-.575.65.65 0 0 0-.35-.454L17.691 10l.692-.346a.62.62 0 0 0 .333-.451.9.9 0 0 0-.088-.578.66.66 0 0 0-.444-.33.82.82 0 0 0-.57.076L17 8.68V8a.73.73 0 0 0-.215-.535.73.73 0 0 0-.535-.215.73.73 0 0 0-.534.215A.73.73 0 0 0 15.5 8v.698l-.6-.327a.7.7 0 0 0-.567-.068.8.8 0 0 0-.472.347.83.83 0 0 0-.083.573.57.57 0 0 0 .353.446l.638.283-.61.41a.8.8 0 0 0-.351.458.67.67 0 0 0 .063.555.69.69 0 0 0 .459.355q.306.075.57-.076l.6-.327V12q0 .32.216.534a.73.73 0 0 0 .534.216"/></svg>