<svg xmlns="http://www.w3.org/2000/svg" width="24" height="24" viewBox="0 0 24 24" fill='currentColor'><path d="M16.404 19.875h.884v-3.634h-.884zm2.308 0h.884v-3.634h-.884zM6.385 8.865h11.23v-1.5H6.385zM18 22.558q-1.873 0-3.187-1.314-1.313-1.313-1.313-3.186t1.313-3.187T18 13.558t3.186 1.313 1.314 3.187-1.314 3.186Q19.874 22.558 18 22.558M3.5 21.384V3.5h17v8.117a6 6 0 0 0-1.645-.407 6.8 6.8 0 0 0-1.692.04H6.385v1.5h7.206a6.5 6.5 0 0 0-1.849 2.385H6.385v1.5h4.892a5 5 0 0 0-.115.65 6.6 6.6 0 0 0 .179 2.371q.214.819.646 1.569l-.093.092-1.317-1.163-1.423 1.23-1.423-1.23-1.423 1.23-1.423-1.23z"/></svg>