<svg xmlns="http://www.w3.org/2000/svg" width="24" height="24" viewBox="0 0 24 24" fill='currentColor'><path d="M20.501 16.365q-.52 0-.886-.364a1.2 1.2 0 0 1-.365-.885v-2.5q0-.522.364-.886t.885-.364.886.364.365.886v2.5q0 .52-.364.885a1.2 1.2 0 0 1-.885.364m-.443 3.577v-1.54q-1.256-.2-2.056-1.105-.8-.904-.829-2.181h.885q0 1.02.708 1.731.708.71 1.734.71t1.734-.707.708-1.734h.885q-.03 1.276-.824 2.181-.795.905-2.06 1.104v1.541zm-11.23-8.269q-1.382-.02-2.374-1.03-.993-1.013-.992-2.45 0-1.44.992-2.45.992-1.013 2.373-1.031.211 0 .417.03.204.032.414.108-.564.65-.86 1.492a5.5 5.5 0 0 0-.298 1.85q0 1.008.292 1.84.293.833.866 1.503-.201.077-.408.107-.208.03-.423.031m-7.366 7.635V17.1q0-.687.353-1.296a2.65 2.65 0 0 1 1.016-.985q.7-.384 1.538-.675a11 11 0 0 1 1.808-.452q-.799.566-1.237 1.449a4.3 4.3 0 0 0-.44 1.96v2.207zM14 11.692q-1.444 0-2.472-1.028T10.5 8.192t1.028-2.471T14 4.692t2.472 1.029T17.5 8.192t-1.028 2.472T14 11.692m-7.5 7.616V17.1q0-.735.391-1.368a2.57 2.57 0 0 1 1.074-.97q1.237-.621 2.787-1.038A12.5 12.5 0 0 1 14 13.308q.473 0 .977.056.504.055.952.148a4.32 4.32 0 0 0-.256 3.219q.496 1.656 1.902 2.577z"/></svg>