<svg xmlns="http://www.w3.org/2000/svg" width="24" height="24" viewBox="0 0 24 24" fill='currentColor'><path d="m7 8.49 1.817-1.807L7 4.875 5.192 6.683zm9.499-1.355q.52 0 .886-.364.365-.365.365-.885T17.386 5a1.2 1.2 0 0 0-.885-.365q-.52 0-.886.364a1.2 1.2 0 0 0-.365.885q0 .52.364.885.364.366.885.366M5.5 22.115v-1.753q0-.732.406-1.361.405-.63 1.08-.937A11.9 11.9 0 0 1 12 16.962a11.9 11.9 0 0 1 5.014 1.102q.675.307 1.08.935.406.627.406 1.36v1.756zM12 15.77q-1.248 0-2.124-.876A2.9 2.9 0 0 1 9 12.77q0-1.248.876-2.124A2.9 2.9 0 0 1 12 9.77q1.248 0 2.124.876T15 12.77t-.876 2.124A2.9 2.9 0 0 1 12 15.77m-4.544-1.885H2.5v-12h19v12h-4.956a4.5 4.5 0 0 0 .133-1.5 4.58 4.58 0 0 0-1.487-3.06Q13.854 8.077 12 8.077T8.81 9.324a4.58 4.58 0 0 0-1.487 3.06 4.4 4.4 0 0 0 .133 1.5"/></svg>