<svg xmlns="http://www.w3.org/2000/svg" width="24" height="24" viewBox="0 0 24 24" fill='currentColor'><path d="m18.9 16.065-6.9-6.9V4.792L9.775 6.975 8.721 5.921 12 2.692l5.304 5.22q1.123 1.113 1.66 2.438.536 1.324.536 2.77 0 .806-.166 1.581a6.7 6.7 0 0 1-.434 1.364m.9 5.843-3.08-3.081a6.6 6.6 0 0 1-2.279 1.277A8 8 0 0 1 12 20.5q-3.123 0-5.312-2.129T4.5 13.12q0-1.255.42-2.45.418-1.194 1.353-2.288L2.438 4.546l1.054-1.054 17.362 17.362zM12 19v-4.877L7.327 9.45q-.736.897-1.032 1.805A6 6 0 0 0 6 13.119q0 2.5 1.75 4.19T12 19"/></svg>