<svg xmlns="http://www.w3.org/2000/svg" width="24" height="24" viewBox="0 0 24 24" fill='currentColor'><path d="M7 14.423q1.01 0 1.716-.707A2.34 2.34 0 0 0 9.423 12q0-1.01-.707-1.716A2.34 2.34 0 0 0 7 9.577q-1.01 0-1.716.707A2.34 2.34 0 0 0 4.577 12q0 1.01.707 1.716A2.34 2.34 0 0 0 7 14.423m0 2.942q-2.25 0-3.808-1.557Q1.635 14.25 1.635 12t1.557-3.808T7 6.635q1.86 0 3.24 1.054 1.377 1.053 1.852 2.561h8.712l1.735 1.735-2.991 3.317-2.163-1.677-1.914 1.721-1.779-1.596h-1.6q-.49 1.569-1.891 2.592T7 17.365"/></svg>