<svg xmlns="http://www.w3.org/2000/svg" width="24" height="24" viewBox="0 0 24 24" fill='currentColor'><path d="m19.789 21.912-7.531-7.531h-.443q-.598 1.283-1.881 2.133-1.284.85-2.934.851-2.25 0-3.808-1.557Q1.635 14.25 1.635 12q0-1.708.952-3.02.951-1.313 2.417-1.853L2.089 4.211l1.069-1.053 17.684 17.7zm1.015-11.662 1.735 1.735-3.308 3.317-1.837-1.677-.536.408-1.293-1.292-.73-.732-1.76-1.759zM7 14.423a2.3 2.3 0 0 0 1.563-.576q.66-.576.799-1.4 0-.117-.39-.568a18 18 0 0 0-.894-.957 18 18 0 0 0-.957-.894q-.452-.39-.567-.39a2.2 2.2 0 0 0-1.432.822A2.4 2.4 0 0 0 4.577 12q0 1.01.707 1.716A2.34 2.34 0 0 0 7 14.423"/></svg>