<svg xmlns="http://www.w3.org/2000/svg" width="24" height="24" viewBox="0 0 24 24" fill='currentColor'><path d="M15.74 21.5v-4.76h.875l3.895 3.895v.865zm5.76-2.725L19.625 16.9v-1.169a.97.97 0 0 0-.288-.713.97.97 0 0 0-.716-.287q-.226 0-.441.1a.8.8 0 0 0-.34.285l-.623-.639a1.9 1.9 0 0 1 1.408-.63q.787 0 1.335.549.55.548.55 1.335v1h.99zm-19-.275v-13h2.875l8.616 8.616H8.116v1.769h5.619q-.05.26-.08.511-.03.252-.03.527V18.5zm17.917 4.166L1.364 3.596l1.053-1.054 19.07 19.07zM5.116 11.116v1.769h1.769v-1.77zm3 0v1.769h1.769v-1.77zm-3-3v1.769h1.769v-1.77zm9 1.769h1.768v-1.77h-1.768zm3 0h1.768v-1.77h-1.768zM8.225 5.5H21.5v7.337a4.6 4.6 0 0 0-1.247-.64 5 5 0 0 0-1.369-.254v-.827h-1.768v1.098q-.333.096-.641.229a4 4 0 0 0-.59.317v-1.644h-1.77v.275L12.61 9.885h.274v-1.77h-1.768v.276z"/></svg>