<svg xmlns="http://www.w3.org/2000/svg" width="24" height="24" viewBox="0 0 24 24" fill='currentColor'><path d="M5.116 11.116v1.768h1.769v-1.768zm3 0v1.768h1.768v-1.768zm3 0v1.768h1.768v-1.768zm-6-3v1.768h1.769V8.116zm3 0v1.768h1.768V8.116zm3 0v1.768h1.768V8.116zm3 0v1.768h1.768V8.116zm3 0v1.768h1.768V8.116zm.73 13.278-1.044-1.044 1.815-1.85h-4.52V17h4.52l-1.815-1.85 1.044-1.044 3.644 3.644zM2.5 18.5v-13h19v7.708a5.5 5.5 0 0 0-1.24-.77 5.8 5.8 0 0 0-1.376-.425v-.897h-1.768v.86q-.333.039-.633.104-.3.064-.599.174v-1.138h-1.768v1.768h.507a4.4 4.4 0 0 0-.701.564q-.318.315-.613.668H8.117v1.768h4.205q-.159.445-.228.912-.068.468-.068.954 0 .206.008.384.008.18.038.366z"/></svg>