<svg xmlns="http://www.w3.org/2000/svg" width="24" height="24" viewBox="0 0 24 24" fill='currentColor'><path d="M2.5 21.5v-13h19v13zm5.616-2.616h7.768v-1.768H8.116zm-3-3h1.769v-1.768h-1.77zm3 0h1.768v-1.768H8.116zm3 0h1.768v-1.768h-1.768zm3 0h1.768v-1.768h-1.768zm3 0h1.768v-1.768h-1.768zm-12-3h1.769v-1.768h-1.77zm3 0h1.768v-1.768H8.116zm3 0h1.768v-1.768h-1.768zm3 0h1.768v-1.768h-1.768zm3 0h1.768v-1.768h-1.768zM6.25 6.384v-4.5h1.5v1.824A5.6 5.6 0 0 1 9.614 2.37a5.6 5.6 0 0 1 2.328-.486q2.046 0 3.63 1.263a5.52 5.52 0 0 1 2.01 3.237h-1.55a4.2 4.2 0 0 0-1.541-2.168 4.18 4.18 0 0 0-2.549-.832 4.11 4.11 0 0 0-3.202 1.5h2.01v1.5z"/></svg>