<svg xmlns="http://www.w3.org/2000/svg" width="24" height="24" viewBox="0 0 24 24" fill='currentColor'><path d="M15.74 21.5v-4.77h1v-1q0-.786.55-1.335a1.82 1.82 0 0 1 1.335-.549q.787 0 1.335.55.55.548.55 1.335v1h.99V21.5zm1.885-4.77h2v-1a.97.97 0 0 0-.288-.712.97.97 0 0 0-.712-.287.97.97 0 0 0-.712.287.97.97 0 0 0-.288.713zm-12.51-3.846h1.77v-1.768h-1.77zm3 0h1.77v-1.768h-1.77zm3 0h1.77v-1.768h-1.77zm3 0h1.77v-1.768h-1.77zm-9-3h1.77V8.116h-1.77zm3 0h1.77V8.116h-1.77zm3 0h1.77V8.116h-1.77zm3 0h1.77V8.116h-1.77zm3 0h1.77V8.116h-1.77zM2.5 18.5v-13h19v7.336a4.6 4.6 0 0 0-1.247-.639 5 5 0 0 0-1.369-.255v-.826h-1.768v1.098q-.822.236-1.485.727-.664.492-1.131 1.175H8.116v1.768h5.619q-.05.26-.08.512t-.03.527V18.5z"/></svg>