<svg xmlns="http://www.w3.org/2000/svg" width="24" height="24" viewBox="0 0 24 24" fill='currentColor'><path d="M2.25 22.75v-1.5H3q.78 0 1.543-.245A5.5 5.5 0 0 0 6 20.279q.679.441 1.438.69.758.25 1.514.266a4.9 4.9 0 0 0 1.543-.225A5.7 5.7 0 0 0 12 20.279q.679.465 1.449.71.77.246 1.551.246.771 0 1.521-.233T18 20.28q.729.49 1.486.73.759.241 1.514.241h.75v1.5H21a6 6 0 0 1-1.51-.192q-.756-.192-1.49-.587a6.6 6.6 0 0 1-1.482.587 6.1 6.1 0 0 1-3.029 0q-.755-.192-1.489-.587a6.3 6.3 0 0 1-1.51.597 6 6 0 0 1-1.557.182 6.4 6.4 0 0 1-1.49-.212Q6.693 22.34 6 21.97a6.6 6.6 0 0 1-1.482.587A6 6 0 0 1 3 22.75zm6.76-3.692q-.65 0-1.273-.212a3.7 3.7 0 0 1-1.14-.625l.83-.637q.51-.391.89-.657L6.25 12.942V8q0-.729.51-1.24.511-.51 1.24-.51h3a5.23 5.23 0 0 0 3.54-1.354l1.054 1.064a6.8 6.8 0 0 1-2.136 1.332A6.7 6.7 0 0 1 11 7.75H9.35v4h2.935l1.748 1.923q1.672-.695 2.955-1.058 1.281-.365 2.162-.365.76 0 1.18.275t.42.798q0 .945-1.436 2.468-1.437 1.521-3.845 3.107-.195.066-.41.098a3 3 0 0 1-.425.033q-.703 0-1.402-.35A3.8 3.8 0 0 1 12 17.684q-.591.668-1.368 1.02a3.9 3.9 0 0 1-1.623.355m.7-3.092q.495-.308 1.41-.825a26 26 0 0 1 1.484-.789l-.998-1.102-2.962.244zM8 4.846q-.758 0-1.302-.544A1.78 1.78 0 0 1 6.154 3q0-.758.544-1.302A1.78 1.78 0 0 1 8 1.154q.758 0 1.302.544.544.545.544 1.302 0 .758-.544 1.302A1.78 1.78 0 0 1 8 4.846m8.492-.355-.838-.839 2.498-2.498h1.677z"/></svg>