<svg xmlns="http://www.w3.org/2000/svg" width="24" height="24" viewBox="0 0 24 24" fill='currentColor'><path d="M17.271 16.054q.749 0 1.488-.373a4.8 4.8 0 0 0 1.366-1.05v-2.997q-.633.095-1.163.219-.531.124-1.043.278-1.211.388-1.807.976-.597.588-.597 1.354 0 .738.48 1.165.478.428 1.276.428m-.354 1.296q-1.328 0-2.115-.774-.786-.774-.786-2.078 0-1.223.815-2.038.815-.816 2.554-1.335.518-.15 1.2-.284.682-.135 1.54-.274v-.125q-.03-1.29-.535-1.914-.506-.624-1.632-.624-.669 0-1.326.237-.657.238-1.532.79l-.617-1.083a6.8 6.8 0 0 1 1.779-.916 6 6 0 0 1 1.988-.34q1.68 0 2.527 1.048.848 1.047.848 3.002v6.483h-1.261l-.131-1.211q-.73.672-1.58 1.054a4.2 4.2 0 0 1-1.736.382m-14.263.15a10 10 0 0 0-.388-.474 1.8 1.8 0 0 0-.333-.297q1.795-.795 2.92-2.15 1.125-1.351 1.636-3.525H2.196v-.983H6.68q.12-.76.179-1.6.06-.84.06-1.771h1.038q0 .93-.052 1.764a15 15 0 0 1-.187 1.607h5.012v.983H8.15q.668 2.054 1.903 3.491t2.86 2.107q-.2.191-.36.367a4 4 0 0 0-.356.481q-1.623-.738-2.862-2.2t-1.98-3.54q-.59 2.094-1.759 3.506Q4.428 16.68 2.654 17.5"/></svg>