<svg xmlns="http://www.w3.org/2000/svg" width="24" height="24" viewBox="0 0 24 24" fill='currentColor'><path d="m2.412 17.454-.539-.931q.516-.274.966-.633.45-.357.89-.732v-2.99H2.044v-.947h2.662v3.852q.519.645 1.288.974.77.33 1.598.33 1.371 0 2.725-.015 1.354-.016 2.725-.1-.105.246-.186.507a10 10 0 0 0-.146.523 44 44 0 0 1-2.559.025q-1.267-.024-2.559-.025-.95 0-1.85-.339a4 4 0 0 1-1.55-1.04 17 17 0 0 1-.865.808q-.441.383-.915.733m6.007-1.412-.077-2.63q-.57.735-1.24 1.27a15 15 0 0 1-1.44 1.016l-.315-.375a4 4 0 0 0-.345-.36 6.6 6.6 0 0 0 1.579-.925q.703-.561 1.288-1.305H5.692V9.662h2.675v-.856H5.192v-.9h3.175V6.725h.947v1.18h3.4v.9h-3.4v.857h2.825v3.046H9.777q.634.735 1.428 1.275t1.668.906a4 4 0 0 0-.39.354 1.6 1.6 0 0 0-.295.42 9.7 9.7 0 0 1-1.54-.964 9.3 9.3 0 0 1-1.334-1.243l.076 2.586zm-.077-5.511H6.654v1.323h1.688zm2.85 0H9.29v1.323h1.903zm-6.93-1.127a6.4 6.4 0 0 0-2.11-1.944l.725-.62q.612.407 1.12.902.51.496 1.03 1.018zm15.863 5.227v-2.997q-.633.095-1.163.219-.531.124-1.043.278-1.21.388-1.808.976-.596.588-.596 1.354 0 .738.48 1.165.478.428 1.276.428.749 0 1.488-.373a4.8 4.8 0 0 0 1.366-1.05m.238 2.494-.13-1.211q-.729.672-1.581 1.054a4.2 4.2 0 0 1-1.735.382q-1.328 0-2.115-.774t-.787-2.078q0-1.223.816-2.038.815-.816 2.553-1.335.518-.15 1.2-.284.684-.135 1.541-.274v-.125q-.03-1.29-.535-1.914t-1.632-.624q-.669 0-1.326.237-.657.238-1.532.79l-.617-1.083a6.8 6.8 0 0 1 1.779-.916 6 6 0 0 1 1.988-.34q1.68 0 2.527 1.048.848 1.047.848 3.002v6.483z"/></svg>