<svg xmlns="http://www.w3.org/2000/svg" width="24" height="24" viewBox="0 0 24 24" fill='currentColor'><path d="M4.112 17.54v-5.29q-.296.304-.609.585-.315.282-.714.617a28 28 0 0 0-.338-.439 3 3 0 0 0-.353-.382 14 14 0 0 0 1.868-1.668A14 14 0 0 0 5.535 8.94l.911.348q-.32.543-.649.998-.327.457-.678.856v6.398zm5.752 0q-.29 0-.58-.012a6 6 0 0 1-.584-.053 5 5 0 0 0-.161-.555 3 3 0 0 0-.177-.387h1.911q.155 0 .23-.077.078-.078.078-.231v-4.852H6.523v-.917h6.912v.942h-1.847v4.938q0 .338-.07.572a.7.7 0 0 1-.287.382 1.2 1.2 0 0 1-.559.202 6 6 0 0 1-.808.048m-7.066-7.6a6 6 0 0 1-.31-.405q-.138-.199-.294-.41.93-.652 1.63-1.315.7-.664 1.21-1.375l.953.382a11.6 11.6 0 0 1-1.39 1.616A16.5 16.5 0 0 1 2.798 9.94m4.24-1.827v-.917h6.066l-.05.917zm10.233 7.94q.749 0 1.488-.372a4.8 4.8 0 0 0 1.366-1.05v-2.997q-.633.095-1.163.219-.531.123-1.043.278-1.21.388-1.808.976-.596.587-.596 1.354 0 .737.48 1.165.478.428 1.276.428m-.354 1.297q-1.328 0-2.115-.774t-.787-2.078q0-1.224.816-2.038.815-.816 2.553-1.335.518-.15 1.2-.285.684-.134 1.541-.273v-.125q-.03-1.29-.535-1.914t-1.632-.624q-.669 0-1.326.237-.657.238-1.532.79l-.617-1.083a6.8 6.8 0 0 1 1.779-.916 6 6 0 0 1 1.988-.34q1.68 0 2.527 1.047.848 1.048.848 3.003v6.483h-1.262l-.13-1.212q-.729.673-1.581 1.055a4.2 4.2 0 0 1-1.735.382"/></svg>