<svg xmlns="http://www.w3.org/2000/svg" width="24" height="24" viewBox="0 0 24 24" fill='currentColor'><path d="M13.654 12.164h2.355V9h-2.355zM4.884 19.5 4.51 18h1.932v-4.221a18 18 0 0 1-.844.342q-.42.158-.823.293l-.285-1.441q.485-.12.978-.294.494-.176.974-.375V9h-1.5V7.5h1.5v-3h1.5v3H9.25V9H7.942v2.563q.365-.205.716-.42.35-.216.684-.432v1.51q-.32.231-.669.45a9 9 0 0 1-.73.408V19.5zm5.137 0-.83-1.236a6.3 6.3 0 0 0 1.889-1.991 7 7 0 0 0 .966-2.61h-1.892v-1.5h2V9h-1.5V7.5h8.356V9h-1.5v3.164h2v1.5h-2V19.5h-1.5v-5.836h-2.45a8.8 8.8 0 0 1-1.18 3.316q-.935 1.57-2.36 2.52m6.844-11.51-1.273-.548q.381-.608.797-1.292.415-.684.705-1.333l1.36.493q-.327.667-.76 1.362t-.829 1.319m-4.301-.248q-.387-.567-.855-1.207a22 22 0 0 0-.911-1.166l1.329-.628q.411.526.852 1.146.44.619.827 1.17z"/></svg>