<svg xmlns="http://www.w3.org/2000/svg" width="24" height="24" viewBox="0 0 24 24" fill='currentColor'><path d="M10.116 21.5v-5.87l1.553-4.495h8.277l1.554 4.499V21.5H20V20h-8.385v1.5zm1.523-6.616h8.338l-.885-2.557h-6.569zm1.707 3.5q.4 0 .672-.27a.9.9 0 0 0 .27-.672q0-.4-.27-.671a.9.9 0 0 0-.672-.271q-.4 0-.671.271a.9.9 0 0 0-.271.671q0 .4.27.672.271.27.672.27m4.923 0q.4 0 .672-.27a.9.9 0 0 0 .27-.672q0-.4-.27-.671a.9.9 0 0 0-.672-.271q-.4 0-.671.271a.9.9 0 0 0-.271.671q0 .4.27.672.271.27.672.27M1.5 19.5v-2.25h2V4.5h16v4.442h-9.39l-2.187 6.233V19.5z"/></svg>