<svg xmlns="http://www.w3.org/2000/svg" width="24" height="24" viewBox="0 0 24 24" fill='currentColor'><path d="m4.025 11.12-1.5-.143q.141-1.092.489-2.127t.934-1.961l1.277.78a7.2 7.2 0 0 0-.787 1.65q-.288.876-.413 1.8m1.246 7.553a8.7 8.7 0 0 1-1.338-1.68 10.4 10.4 0 0 1-.927-1.946l1.419-.478q.3.876.775 1.638a8 8 0 0 0 1.125 1.412zM7.675 5.22l-.78-1.277a9.3 9.3 0 0 1 1.966-.935 11 11 0 0 1 2.122-.488l.142 1.5q-.926.124-1.8.412a7.2 7.2 0 0 0-1.65.788m4.3 16.25a10 10 0 0 1-1.641-.138 8 8 0 0 1-1.586-.443l.477-1.42q.675.225 1.35.363t1.4.137zm5.65-15.15a7.9 7.9 0 0 0-3.05-1.9L15.071 3q1.017.366 1.932.927.915.562 1.676 1.339zm.38 14.35-1.722-3.532 1.807 1.6-1.23.27-1.346-3.692 5.019 1.327-.193 1.423-2.927-1.327 1.724 3.069zm1.97-8.7a7.6 7.6 0 0 0-.128-1.405 8.4 8.4 0 0 0-.372-1.345l1.42-.477q.304.76.442 1.58t.138 1.646z"/></svg>