<svg xmlns="http://www.w3.org/2000/svg" width="24" height="24" viewBox="0 0 24 24" fill='currentColor'><path d="M6.5 13.639v-3.51l-2.183 1.198-2.51-4.344 5.908-3.396h.958q.41 1.23 1.147 2.071.738.843 2.18.842 1.442 0 2.18-.842.737-.842 1.147-2.071h.958l5.882 3.421-2.484 4.32-2.183-1.199v5.916l-1.123.98a1 1 0 0 1-.371.21 1.4 1.4 0 0 1-.412.067.9.9 0 0 1-.354-.08 1.7 1.7 0 0 1-.357-.212l-2.746-2.352a5.3 5.3 0 0 0-1.781-1.015 6.2 6.2 0 0 0-1.997-.335q-.474 0-.937.079a5 5 0 0 0-.922.252m-1.821 5.14-.973-1.14 1.982-1.687q.547-.471 1.246-.714a4.35 4.35 0 0 1 2.87 0q.686.243 1.233.714l2.9 2.475q.338.29.794.436t.919.147q.48 0 .914-.14.436-.138.774-.443l1.983-1.711.983 1.165-1.992 1.687q-.547.472-1.233.706a4.5 4.5 0 0 1-2.87 0 3.7 3.7 0 0 1-1.245-.706l-2.9-2.475a2.3 2.3 0 0 0-.78-.436 2.93 2.93 0 0 0-1.833 0q-.45.147-.79.436z"/></svg>