<svg xmlns="http://www.w3.org/2000/svg" width="24" height="24" viewBox="0 0 24 24" fill='currentColor'><path d="m19.923 22.061-3.688-3.719q-.237.48-.39 1.01a4.1 4.1 0 0 0-.153 1.148h-1.5q0-.9.232-1.717a6 6 0 0 1 .695-1.556l-1.796-1.796a9 9 0 0 0-1.182 2.31q-.45 1.29-.449 2.759h-1.5q0-1.755.534-3.308a10.1 10.1 0 0 1 1.512-2.846L9.655 11.76q-1.35.978-2.89 1.512a9.9 9.9 0 0 1-3.264.535v-1.5q1.392 0 2.691-.425a8.6 8.6 0 0 0 2.378-1.206L6.773 8.88q-.72.463-1.552.695a6.4 6.4 0 0 1-1.721.232v-1.5q.596 0 1.135-.153t.992-.39L1.938 4.046l1.054-1.054 18.016 18.016zm-1.079-6.057-1.165-1.135q.606-.339 1.336-.508.729-.169 1.485-.169v1.5q-.452 0-.86.07a3.4 3.4 0 0 0-.796.242m-3-2.97L14.75 11.94a10.4 10.4 0 0 1 2.73-1.305 10.2 10.2 0 0 1 3.02-.443v1.5a8.8 8.8 0 0 0-2.48.358q-1.155.348-2.176.984M12.06 9.22l-1.094-1.094a8.2 8.2 0 0 0 1.003-2.191 8.7 8.7 0 0 0 .339-2.434h1.5a10.05 10.05 0 0 1-1.748 5.72M9.14 6.3 8.006 5.166a6 6 0 0 0 .221-.805q.08-.408.08-.86h1.5q0 .775-.164 1.473-.165.698-.503 1.327"/></svg>