<svg xmlns="http://www.w3.org/2000/svg" width="24" height="24" viewBox="0 0 24 24" fill='currentColor'><path d="m4.504 18.94 3.2-8.96h-1.36l2.41-3.6a.5.5 0 0 0 .102-.41.7.7 0 0 0-.196-.378l-.254-.253L3.975 9.18q-.435.369-.661.876a2.6 2.6 0 0 0-.227 1.076v5.665H1.885v-5.665q0-.827.343-1.576t.964-1.295l5.28-4.57 1.08 1.09 1.025-2.838L19.69 5.33l-1.24 3.475q.754.086 1.224.608a1.74 1.74 0 0 1 .439 1.526q-.033.158-.111.312h.287q.757 0 1.292.535.534.534.534 1.292 0 .591-.326 1.032a2.03 2.03 0 0 1-.837.662 1.74 1.74 0 0 1 .173.768q0 .757-.53 1.292a1.75 1.75 0 0 1-1.287.534h-.296q.078.145.115.313t.037.322q0 .758-.535 1.292a1.76 1.76 0 0 1-1.293.535h-2.832l-.846 2.523zm8.842-.351L17.11 8.062l-6.277-2.347-3.764 10.527zm1.577.046h2.414a.6.6 0 0 0 .446-.189.6.6 0 0 0 .188-.446.6.6 0 0 0-.188-.446.6.6 0 0 0-.447-.189h-1.942zm.88-2.462h3.505a.6.6 0 0 0 .441-.188.62.62 0 0 0 .184-.446.62.62 0 0 0-.184-.447.6.6 0 0 0-.441-.188h-3.023zm.891-2.461h3.595a.6.6 0 0 0 .445-.189.6.6 0 0 0 .189-.446.6.6 0 0 0-.188-.446.6.6 0 0 0-.447-.189H17.14zm.89-2.462h.733a.6.6 0 0 0 .447-.188.6.6 0 0 0 .188-.446.6.6 0 0 0-.189-.447.6.6 0 0 0-.446-.188h-.286z"/></svg>