<svg xmlns="http://www.w3.org/2000/svg" width="24" height="24" viewBox="0 0 24 24" fill='currentColor'><path d="M12 21.577q-.757 0-1.307-.525a1.88 1.88 0 0 1-.597-1.283h3.808a1.88 1.88 0 0 1-.597 1.283q-.55.525-1.307.525m5.027-7.246L7.139 4.454a7.6 7.6 0 0 1 2.227-1.442A6.75 6.75 0 0 1 12 2.5q2.923 0 4.962 2.039Q19 6.576 19 9.5q0 1.64-.582 2.821a7.7 7.7 0 0 1-1.391 2.01m3.654 6.484-1.07 1.07-6.384-6.385H8.404a7.3 7.3 0 0 1-2.487-2.553A6.73 6.73 0 0 1 5 9.5q0-.51.077-1.028t.212-.91L2.035 4.276l1.054-1.054zm-4.839-3.93v1.5H8.25v-1.5z"/></svg>