<svg xmlns="http://www.w3.org/2000/svg" width="24" height="24" viewBox="0 0 24 24" fill='currentColor'><path d="M12 21.884q-3.396 0-5.14-.854-1.745-.853-1.745-2.53 0-.84.364-1.426.364-.585 1.042-.934a1.14 1.14 0 0 0-.31.454 1.8 1.8 0 0 0-.111.652q0 .815.567 1.331.567.517 1.439.806.87.29 1.91.395t1.984.106 1.984-.106a9 9 0 0 0 1.91-.395q.871-.289 1.439-.806.567-.516.567-1.331a1.8 1.8 0 0 0-.111-.652 1.14 1.14 0 0 0-.31-.454q.678.348 1.042.934.363.585.363 1.426.001 1.677-1.744 2.53-1.743.854-5.14.854M12 19q-2.252 0-3.626-.533T7 17.057q0-.846 1.397-1.394T12 15.115q2.252 0 3.626.533T17 17.058q0 .876-1.374 1.409T12 19m-.923-5V9.384H9.231l3.692-6.461v4.615h1.846z"/></svg>