<svg xmlns="http://www.w3.org/2000/svg" width="24" height="24" viewBox="0 0 24 24" fill='currentColor'><path d="M12.002 21.5a9.3 9.3 0 0 1-3.706-.748 9.6 9.6 0 0 1-3.016-2.03 9.6 9.6 0 0 1-2.032-3.016 9.25 9.25 0 0 1-.748-3.704q0-1.972.748-3.706a9.6 9.6 0 0 1 2.03-3.016 9.6 9.6 0 0 1 3.016-2.032 9.25 9.25 0 0 1 3.704-.748q1.972 0 3.706.748a9.6 9.6 0 0 1 3.017 2.03 9.6 9.6 0 0 1 2.03 3.016 9.25 9.25 0 0 1 .749 3.704q0 1.972-.748 3.706a9.6 9.6 0 0 1-2.03 3.017 9.6 9.6 0 0 1-3.016 2.03 9.25 9.25 0 0 1-3.704.749M12 18.73q.519 0 .894-.34.375-.342.423-.852h-2.634q.048.51.423.852.375.34.894.34m-2.846-2.384h5.692v-1.192H9.154zm-.081-2.385h5.854a4.8 4.8 0 0 0 1.398-1.652 4.7 4.7 0 0 0 .521-2.193q0-2.011-1.417-3.43Q14.01 5.27 12 5.27T8.571 6.688q-1.417 1.418-1.417 3.429 0 1.192.521 2.193a4.8 4.8 0 0 0 1.398 1.652m.444-1.192a4.1 4.1 0 0 1-.858-1.217 3.4 3.4 0 0 1-.313-1.439q0-1.513 1.07-2.582A3.52 3.52 0 0 1 12 6.46q1.514 0 2.584 1.07a3.52 3.52 0 0 1 1.07 2.582q0 .756-.313 1.439-.314.682-.858 1.217z"/></svg>