<svg xmlns="http://www.w3.org/2000/svg" width="24" height="24" viewBox="0 0 24 24" fill='currentColor'><path d="M17.077 16.654q-1.732 0-3.012-1.094-1.278-1.095-1.58-2.81H6.742q-.232.675-.814 1.117a2.17 2.17 0 0 1-1.351.441 2.23 2.23 0 0 1-1.636-.672A2.23 2.23 0 0 1 2.27 12q0-.963.672-1.635a2.23 2.23 0 0 1 1.636-.672q.77 0 1.351.441.583.441.814 1.116h5.743q.302-1.715 1.58-2.81 1.28-1.093 3.012-1.093 1.931 0 3.292 1.37 1.362 1.372 1.362 3.303 0 1.911-1.362 3.273-1.361 1.36-3.292 1.361m0-1.5a3.04 3.04 0 0 0 2.23-.923 3.04 3.04 0 0 0 .924-2.23 3.04 3.04 0 0 0-.923-2.231 3.04 3.04 0 0 0-2.231-.923 3.04 3.04 0 0 0-2.23.923 3.04 3.04 0 0 0-.924 2.23q0 1.308.923 2.231a3.04 3.04 0 0 0 2.231.923"/></svg>