<svg xmlns="http://www.w3.org/2000/svg" width="24" height="24" viewBox="0 0 24 24" fill='currentColor'><path d="M18.827 8.846q-1.348 0-2.336-.83a3.63 3.63 0 0 1-1.25-2.093H8.735a3.55 3.55 0 0 1-.98 1.837 3.5 3.5 0 0 1-1.832.984v6.497a3.63 3.63 0 0 1 2.092 1.25q.831.988.831 2.336a3.54 3.54 0 0 1-1.074 2.599A3.54 3.54 0 0 1 5.173 22.5a3.54 3.54 0 0 1-2.599-1.074A3.54 3.54 0 0 1 1.5 18.827q0-1.348.83-2.336a3.63 3.63 0 0 1 2.093-1.25V8.744a3.63 3.63 0 0 1-2.092-1.25Q1.5 6.504 1.5 5.172a3.54 3.54 0 0 1 1.074-2.599A3.53 3.53 0 0 1 5.164 1.5q1.332 0 2.32.83a3.63 3.63 0 0 1 1.25 2.093h6.507a3.63 3.63 0 0 1 1.25-2.092q.988-.831 2.336-.831 1.515 0 2.594 1.079 1.08 1.08 1.079 2.594 0 1.525-1.079 2.599-1.08 1.074-2.594 1.074m0 13.654a3.54 3.54 0 0 1-2.599-1.074 3.53 3.53 0 0 1-1.074-2.59q0-1.524 1.074-2.603a3.53 3.53 0 0 1 2.599-1.08q1.525 0 2.599 1.08a3.56 3.56 0 0 1 1.074 2.604 3.53 3.53 0 0 1-1.074 2.589 3.54 3.54 0 0 1-2.599 1.074"/></svg>