<svg xmlns="http://www.w3.org/2000/svg" width="24" height="24" viewBox="0 0 24 24" fill='currentColor'><path d="m18.885 16.104-1.135-1.166a3 3 0 0 0 1.63-1.081Q20 13.05 20 12q0-1.26-.884-2.15a2.9 2.9 0 0 0-2.135-.889h-3.808v-1.5h3.808q1.872 0 3.196 1.328Q21.5 10.117 21.5 12q0 1.33-.713 2.429a4.64 4.64 0 0 1-1.902 1.676M15.58 12.75l-1.5-1.5h1.65v1.5zm4.565 9.504-18.4-18.4L2.8 2.8l18.4 18.4zm-9.319-5.716H7.038q-1.883 0-3.21-1.328Q2.5 13.883 2.5 12q0-1.668 1.074-2.926a4.35 4.35 0 0 1 2.695-1.52H6.5L7.908 8.96h-.87q-1.26 0-2.149.89A2.93 2.93 0 0 0 4 12q0 1.26.89 2.149.889.89 2.148.89h3.789zM8.269 12.75v-1.5h1.942l1.476 1.5z"/></svg>