<svg xmlns="http://www.w3.org/2000/svg" width="24" height="24" viewBox="0 0 24 24" fill='currentColor'><path d="M17.212 22.75v-3h-3v-1.5h3v-3h1.5v3h3v1.5h-3v3zm-9.154-5.98q.376 0 .63-.255.255-.255.254-.631 0-.375-.254-.63A.86.86 0 0 0 8.057 15q-.375 0-.63.255a.86.86 0 0 0-.254.63q0 .377.255.63.255.255.63.254m0-3.886q.376 0 .63-.254.255-.255.254-.63 0-.378-.254-.63a.86.86 0 0 0-.631-.254q-.375 0-.63.254a.86.86 0 0 0-.254.63q0 .378.255.63.255.255.63.254m0-3.884q.376 0 .63-.255.255-.255.254-.63 0-.377-.254-.63a.86.86 0 0 0-.631-.254q-.375 0-.63.254a.86.86 0 0 0-.254.631q0 .375.255.63t.63.254m3.038 3.75h5.692v-1.5h-5.692zm0-3.885h5.692v-1.5h-5.692zM3.5 20.5v-17h17v10.383a5 5 0 0 0-1.224-.456 5.8 5.8 0 0 0-1.314-.152 5.64 5.64 0 0 0-4.23 1.86h-2.636v1.5h1.677q-.271.543-.416 1.133A5.2 5.2 0 0 0 12.21 19q0 .375.051.75t.169.75z"/></svg>