<svg xmlns="http://www.w3.org/2000/svg" width="24" height="24" viewBox="0 0 24 24" fill='currentColor'><path d="M12 22.289 9.211 19.5H3.5v-17h17v17h-5.711zm-.052-5.683a.98.98 0 0 0 .724-.296 1 1 0 0 0 .295-.723 1 1 0 0 0-.295-.724.98.98 0 0 0-.724-.296 1 1 0 0 0-.724.296 1 1 0 0 0-.295.723q0 .43.295.725a1 1 0 0 0 .724.295m-.707-3.581h1.407q.01-.377.052-.648t.167-.527.317-.493.514-.559q.798-.798 1.141-1.357.345-.558.344-1.27 0-1.248-.852-2.012-.852-.765-2.194-.765-1.222 0-2.088.622a3.4 3.4 0 0 0-1.232 1.62l1.285.516q.213-.635.71-1.04.495-.402 1.244-.402.81 0 1.264.439.455.44.455 1.068 0 .464-.275.91t-.848.963q-.396.351-.659.678-.262.329-.437.674-.176.346-.245.72-.07.374-.07.863"/></svg>