<svg xmlns="http://www.w3.org/2000/svg" width="24" height="24" viewBox="0 0 24 24" fill='currentColor'><path d="M12 16.616q-1.108 0-1.861-.754-.755-.754-.755-1.862 0-1.107.755-1.857.754-.749 1.852-.758h.03q.57.813 1.215 1.572.647.758 1.345 1.472a2.5 2.5 0 0 1-.864 1.567q-.72.62-1.717.62M2.5 21.5v-15h4.862l1.85-2h1.038a6.2 6.2 0 0 0-.173 1.5q0 1.065.293 2.048.293.98.796 1.924a3.98 3.98 0 0 0-2.353 1.403Q7.885 12.497 7.885 14q0 1.721 1.197 2.919 1.197 1.196 2.918 1.197a4 4 0 0 0 2.313-.703 4.06 4.06 0 0 0 1.483-1.824q.567.542 1.127 1.034t1.077.944q.906-.778 1.785-1.57a43 43 0 0 0 1.715-1.633V21.5zM18 14.645q3.092-2.72 4.412-4.698 1.319-1.98 1.319-3.797 0-2.7-1.731-4.29Q20.27.27 18 .27t-4 1.59-1.73 4.29q0 1.818 1.319 3.797 1.319 1.978 4.411 4.698m-1.667-5.933.633-2.054-1.678-1.34h2.054L18 3.288l.658 2.03h2.053l-1.667 1.34.633 2.054L18 7.447z"/></svg>