<svg xmlns="http://www.w3.org/2000/svg" width="24" height="24" viewBox="0 0 24 24" fill='currentColor'><path d="M5.844 19.558q-1.17 0-1.988-.82a2.7 2.7 0 0 1-.818-1.988H1.346V4.5H16.77v3.808h2.654l3.23 4.327v4.115h-1.807q0 1.17-.82 1.989a2.7 2.7 0 0 1-1.99.819q-1.17 0-1.988-.82a2.7 2.7 0 0 1-.817-1.988H8.654q0 1.173-.82 1.99a2.7 2.7 0 0 1-1.99.818m.002-1.5q.55 0 .929-.38.378-.378.379-.928 0-.55-.38-.929a1.26 1.26 0 0 0-.928-.379q-.55 0-.929.379a1.26 1.26 0 0 0-.379.929q0 .55.38.929.379.378.928.379m12.192 0q.55 0 .93-.38.378-.378.378-.928t-.379-.929a1.26 1.26 0 0 0-.929-.379q-.55 0-.929.379a1.26 1.26 0 0 0-.378.929q0 .55.378.929.38.378.93.379M16.77 13.25h4.48l-2.595-3.442H16.77z"/></svg>