<svg xmlns="http://www.w3.org/2000/svg" width="24" height="24" viewBox="0 0 24 24" fill='currentColor'><path d="M10.25 20.5v-1.614q0-.446.234-.831.232-.387.616-.622a9.5 9.5 0 0 1 2.355-1.001A9.7 9.7 0 0 1 16 16.096q1.311 0 2.545.335a9.5 9.5 0 0 1 2.355 1.002q.382.235.616.622.234.385.234.831V20.5zm-7.75 0V9.25L10 3.605l4.683 3.531a4.62 4.62 0 0 0-2.606 1.69 4.7 4.7 0 0 0-1.02 2.972q0 .795.227 1.505.227.712.656 1.312-.518.2-1.004.422a9 9 0 0 0-.957.507 3.84 3.84 0 0 0-1.406 1.428 3.8 3.8 0 0 0-.515 1.916V20.5zm13.501-5.952a2.65 2.65 0 0 1-1.948-.802 2.65 2.65 0 0 1-.803-1.947q0-1.146.802-1.948a2.65 2.65 0 0 1 1.947-.803q1.145 0 1.948.801a2.65 2.65 0 0 1 .803 1.948q0 1.145-.802 1.948a2.65 2.65 0 0 1-1.947.803"/></svg>