<svg xmlns="http://www.w3.org/2000/svg" width="24" height="24" viewBox="0 0 24 24" fill='currentColor'><path d="M4.5 21.5v-19h15v19zm7.5-2.885q1.915 0 3.265-1.35T16.615 14t-1.35-3.265T12 9.385t-3.265 1.35T7.385 14t1.35 3.265T12 18.615m0-1.315q-.65 0-1.258-.242a3.2 3.2 0 0 1-1.073-.708l4.681-4.68q.465.465.708 1.074.242.61.242 1.256 0 1.375-.963 2.337-.962.963-2.337.963M8 7q.424 0 .713-.287A.97.97 0 0 0 9 6a.97.97 0 0 0-.287-.713A.97.97 0 0 0 8 5a.97.97 0 0 0-.713.287A.97.97 0 0 0 7 6q0 .424.287.713Q7.576 7 8 7m3 0q.424 0 .713-.287A.97.97 0 0 0 12 6a.97.97 0 0 0-.287-.713A.97.97 0 0 0 11 5a.97.97 0 0 0-.713.287A.97.97 0 0 0 10 6q0 .424.287.713Q10.576 7 11 7"/></svg>