<svg xmlns="http://www.w3.org/2000/svg" width="24" height="24" viewBox="0 0 24 24" fill='currentColor'><path d="m20.792 22.915-5.069-5.069A40 40 0 0 1 12 21.51q-3.776-3.271-5.661-6.089-1.887-2.817-1.887-5.173a8 8 0 0 1 .6-3.073L1.281 3.404l1.06-1.079 19.52 19.521zm-2.9-7.869-4.252-4.252a1.2 1.2 0 0 0 .132-.353q.036-.181.036-.383 0-.748-.53-1.278A1.74 1.74 0 0 0 12 8.25q-.203 0-.384.036a1.2 1.2 0 0 0-.352.131L7.112 4.266a7.3 7.3 0 0 1 2.252-1.307A7.6 7.6 0 0 1 12 2.5q3.07 0 5.309 2.143 2.24 2.145 2.239 5.605 0 1.104-.411 2.294-.412 1.191-1.245 2.504"/></svg>