<svg xmlns="http://www.w3.org/2000/svg" width="24" height="24" viewBox="0 0 24 24" fill='currentColor'><path d="m19.196 16.561-1.085-1.084q.426-.75.657-1.644T19 12.05q0-2.901-2.05-4.95T12 5.05q-.9 0-1.779.231a6.8 6.8 0 0 0-1.629.657L7.508 4.854a9.4 9.4 0 0 1 1.783-.837 9.5 9.5 0 0 1 1.959-.437V1.85h1.5v1.73q3.124.322 5.262 2.458 2.136 2.136 2.457 5.262H22.2v1.5h-1.73a9.7 9.7 0 0 1-.437 1.968 9.3 9.3 0 0 1-.837 1.793M11.25 22.25v-1.731q-3.125-.321-5.261-2.458T3.53 12.8H1.8v-1.5h1.73q.126-1.165.514-2.2.39-1.033.99-1.908L2.17 4.327l1.054-1.054 17.554 17.554-1.104 1.053-2.815-2.865a8.84 8.84 0 0 1-4.108 1.504v1.73zm.75-3.2a6.7 6.7 0 0 0 2.02-.314 7 7 0 0 0 1.753-.806L6.119 8.277q-.492.75-.805 1.739A6.7 6.7 0 0 0 5 12.05q0 2.9 2.05 4.95T12 19.05"/></svg>