<svg xmlns="http://www.w3.org/2000/svg" width="24" height="24" viewBox="0 0 24 24" fill='currentColor'><path d="M20.765 10.973v9.777h-17.5v-9.796a3.03 3.03 0 0 1-.906-1.288q-.303-.791-.013-1.708L3.794 3.25h16.423l1.468 4.708q.29.917-.013 1.703a3.3 3.3 0 0 1-.907 1.312m-6.55-.723q.82 0 1.232-.501t.338-1.076l-.608-3.923h-2.412V8.7q0 .63.427 1.09t1.024.46m-4.5 0q.69 0 1.12-.46t.43-1.09V4.75H8.855l-.608 3.961q-.08.533.335 1.036t1.135.503m-4.45 0q.557 0 .956-.387a1.7 1.7 0 0 0 .495-.974l.588-4.139h-2.44L3.815 8.292q-.198.644.187 1.301t1.264.657m13.5 0q.812 0 1.243-.637.43-.638.207-1.32L19.127 4.75h-2.4l.588 4.139q.095.585.494.974.4.387.956.387m-10.73 7.692h2.884v-.884h-2v-1.116h2v-2.884H8.035v.884h2v1.116h-2zm7.076 0h.885v-4.884h-.885v2h-1.115v-2h-.885v2.884h2z"/></svg>