<svg xmlns="http://www.w3.org/2000/svg" width="24" height="24" viewBox="0 0 24 24" fill='currentColor'><path d="M13 20.5q-1.695 0-3.208-.63a8.8 8.8 0 0 1-2.688-1.743l1.079-1.07a7.5 7.5 0 0 0 2.185 1.425Q11.584 19 13 19q2.91 0 4.955-2.045T20 12q0-2.9-2.05-4.95T13 5 8.05 7.05 6 12v.78l1.989-1.988 1.069 1.044-3.808 3.808-3.808-3.808 1.07-1.044L4.5 12.806V12q0-1.77.67-3.315a8.6 8.6 0 0 1 1.819-2.697A8.6 8.6 0 0 1 9.685 4.17 8.3 8.3 0 0 1 13 3.5q1.77 0 3.315.67a8.6 8.6 0 0 1 2.697 1.819 8.6 8.6 0 0 1 1.819 2.696Q21.5 10.23 21.5 12q0 3.538-2.48 6.02Q16.537 20.5 13 20.5m-2.942-4.616V11h1V9.942q0-.806.568-1.374A1.87 1.87 0 0 1 13 8q.806 0 1.374.568.568.57.568 1.374V11h1v4.884zM11.942 11h2.116V9.942q0-.444-.307-.75A1.02 1.02 0 0 0 13 8.883q-.444 0-.751.307a1.02 1.02 0 0 0-.307.751z"/></svg>