<svg xmlns="http://www.w3.org/2000/svg" width="24" height="24" viewBox="0 0 24 24" fill='currentColor'><path d="M17.808 22.308q-1.874 0-3.187-1.314-1.313-1.313-1.313-3.186 0-1.874 1.313-3.187 1.314-1.313 3.187-1.313t3.186 1.313 1.314 3.187-1.314 3.186-3.186 1.314m1.65-2.227.623-.623-1.831-1.827v-2.766h-.885v3.123zM9 8.5h6v-2q0-1.25-.875-2.125A2.9 2.9 0 0 0 12 3.5q-1.25 0-2.125.875A2.9 2.9 0 0 0 9 6.5zm3.461 13H4.5v-13h3v-2q0-1.873 1.313-3.186Q10.128 2 12 2t3.187 1.314Q16.5 4.626 16.5 6.5v2h3v3.05a3.3 3.3 0 0 0-.846-.194 9 9 0 0 0-.856-.039q-2.703 0-4.597 1.893-1.893 1.894-1.893 4.6a6.44 6.44 0 0 0 1.153 3.69"/></svg>