<svg xmlns="http://www.w3.org/2000/svg" width="24" height="24" viewBox="0 0 24 24" fill='currentColor'><path d="M6.538 13.75h3.5v-1.5h-3.5zm12.27-2a2.66 2.66 0 0 1-1.948-.802 2.65 2.65 0 0 1-.802-1.947q0-1.145.802-1.948a2.65 2.65 0 0 1 1.948-.803q.38 0 .674.093.293.093.576.293V1.25h3.5v1.5h-2V9q0 1.146-.802 1.948a2.65 2.65 0 0 1-1.947.802m-12.27-1h6.5v-1.5h-6.5zm0-3h6.5v-1.5h-6.5zm-3.75 13.038V2.5h14v2.146a4.7 4.7 0 0 0-2.033 1.766A4.7 4.7 0 0 0 14 9q0 1.413.755 2.589a4.7 4.7 0 0 0 2.033 1.765V17.5H6.077z"/></svg>