<svg xmlns="http://www.w3.org/2000/svg" width="24" height="24" viewBox="0 0 24 24" fill='currentColor'><path d="m19.292 16.837-2.706-2.706a8.2 8.2 0 0 1 1.749-.691 7.3 7.3 0 0 1 1.896-.248q0 .98-.248 1.897a8.2 8.2 0 0 1-.69 1.748m1.581 4.411-1.07 1.07-2.778-2.78a8.7 8.7 0 0 1-2.355 1.378 7.3 7.3 0 0 1-2.67.507q0-1.377.507-2.67a8.7 8.7 0 0 1 1.378-2.355l-2.1-2.1a2.7 2.7 0 0 1-1.452-.576 2.8 2.8 0 0 1-.916-1.258q-.125.029-.249.04a3 3 0 0 1-.258.013q-1.152 0-1.95-.792-.796-.792-.797-1.944 0-.246.043-.472t.132-.457l-4.28-4.28 1.069-1.07zM12 1.702q.864 0 1.572.504t1.001 1.321q.135-.019.259-.032.124-.012.258-.012 1.137 0 1.93.8a2.65 2.65 0 0 1 .791 1.936q0 .487-.167.94a2.9 2.9 0 0 1-.488.841 3.4 3.4 0 0 1 .48.845q.175.45.175.936 0 1.106-.746 1.898a2.6 2.6 0 0 1-1.852.838 2 2 0 0 1-.26-.019l-2.301-2.302q.715-.218 1.18-.816.466-.6.466-1.38 0-.973-.662-1.635-.663-.663-1.636-.663-.78 0-1.38.465t-.816 1.181L6.865 4.41a2.6 2.6 0 0 1 1.053-.718q.615-.224 1.268-.194.06 0 .12.005a.5.5 0 0 1 .121.024 2.7 2.7 0 0 1 1.001-1.321A2.65 2.65 0 0 1 12 1.702m0 19.721a7.5 7.5 0 0 0-.674-3.117 8.84 8.84 0 0 0-4.44-4.44 7.5 7.5 0 0 0-3.117-.674q0 1.63.674 3.118a8.84 8.84 0 0 0 4.44 4.44q1.488.672 3.117.673"/></svg>