<svg xmlns="http://www.w3.org/2000/svg" width="24" height="24" viewBox="0 0 24 24" fill='currentColor'><path d="M12 14.23a2.08 2.08 0 0 1-1.53-.623 2.08 2.08 0 0 1-.624-1.53v-.181q-.261.196-.55.294a2 2 0 0 1-.657.098 2.08 2.08 0 0 1-1.53-.624 2.08 2.08 0 0 1-.624-1.53q0-.654.347-1.167t.91-.775a2.2 2.2 0 0 1-.91-.775 2.04 2.04 0 0 1-.347-1.167q0-.906.624-1.53a2.08 2.08 0 0 1 1.53-.624q.366 0 .656.098t.551.294v-.18q0-.925.624-1.54.624-.614 1.53-.614t1.53.614.624 1.54v.18q.225-.175.487-.265.263-.09.553-.112l-1.056 2.781a2.56 2.56 0 0 0-.893-.871A2.4 2.4 0 0 0 12 5.692q-1.05 0-1.775.725T9.5 8.192t.725 1.775 1.775.725q.335 0 .62-.08.284-.08.559-.214.113.41.463.693.35.284.83.284h2.632q-.277.42-.729.667-.452.246-1.014.246-.366 0-.656-.098a2 2 0 0 1-.551-.294v.18a2.08 2.08 0 0 1-.624 1.53 2.08 2.08 0 0 1-1.53.624m2.616-4.355 3-7.895h1.119l3.05 7.895H20.56l-.78-2.108h-3.19l-.762 2.108zm2.357-3.139h2.404l-1.162-3.22h-.05zM12 21.423q0-1.629.674-3.117a8.84 8.84 0 0 1 4.44-4.44 7.5 7.5 0 0 1 3.117-.674 7.5 7.5 0 0 1-.674 3.117 8.84 8.84 0 0 1-4.44 4.44 7.5 7.5 0 0 1-3.117.674m0 0a7.5 7.5 0 0 0-.674-3.117 8.84 8.84 0 0 0-4.44-4.44 7.5 7.5 0 0 0-3.117-.674q0 1.629.674 3.117a8.84 8.84 0 0 0 4.44 4.44q1.488.675 3.117.674"/></svg>