<svg xmlns="http://www.w3.org/2000/svg" width="24" height="24" viewBox="0 0 24 24" fill='currentColor'><path d="M19.75 4.25v5.5h-1.5V6.829l-4.552 4.517q.485.71.768 1.504.284.793.284 1.65 0 2.196-1.527 3.723T9.501 19.75t-3.723-1.527-1.528-3.722 1.527-3.723T9.5 9.25q.845 0 1.64.276a5.8 5.8 0 0 1 1.489.776L17.18 5.75h-2.93v-1.5zm-10.251 6.5a3.6 3.6 0 0 0-2.652 1.099 3.62 3.62 0 0 0-1.097 2.653 3.6 3.6 0 0 0 1.099 2.651 3.62 3.62 0 0 0 2.653 1.097 3.6 3.6 0 0 0 2.651-1.099A3.62 3.62 0 0 0 13.25 14.5a3.6 3.6 0 0 0-1.099-2.652A3.62 3.62 0 0 0 9.5 10.75"/></svg>