<svg xmlns="http://www.w3.org/2000/svg" width="24" height="24" viewBox="0 0 24 24" fill='currentColor'><path d="M3.98 9.23V4.155h1.5v2.369a8.5 8.5 0 0 1 2.916-2.23 8.4 8.4 0 0 1 3.585-.793q3.538 0 6.019 2.48 2.48 2.482 2.48 6.02v.135h-1.5V12q0-2.925-2.037-4.962T11.981 5a6.7 6.7 0 0 0-3.071.728 7.6 7.6 0 0 0-2.468 2.003h2.616v1.5zM3.54 13h1.531q.33 2.345 1.97 3.971a6.8 6.8 0 0 0 3.93 1.948l.912 1.581q-3.2-.049-5.589-2.182Q3.906 16.185 3.541 13m10.099 1.683-2.38-2.38V7h1.5v4.696l1.67 1.67zm4.817 9.067-.242-1.356a3.5 3.5 0 0 1-.731-.291 3 3 0 0 1-.648-.472l-1.306.411-.712-1.2 1.044-.875a3 3 0 0 1-.117-.823q0-.42.117-.842l-1.063-.894.731-1.22 1.315.441a3.2 3.2 0 0 1 .639-.458q.334-.18.73-.296l.243-1.356h1.423l.242 1.356q.405.116.758.321.352.205.63.492l1.335-.48.712 1.269-1.073.894q.107.42.107.808 0 .386-.107.76l1.092.903-.712 1.2-1.353-.43a3 3 0 0 1-.639.481q-.345.195-.75.301l-.242 1.356zm.711-2.538a2 2 0 0 0 1.466-.612 2 2 0 0 0 .611-1.465 2 2 0 0 0-.611-1.466 2 2 0 0 0-1.466-.611q-.853 0-1.465.611a2 2 0 0 0-.612 1.466 2 2 0 0 0 .612 1.465q.612.612 1.465.611"/></svg>