<svg xmlns="http://www.w3.org/2000/svg" width="24" height="24" viewBox="0 0 24 24" fill='currentColor'><path d="m16.106 20.048-.223-1.327a3.5 3.5 0 0 1-.673-.277 3 3 0 0 1-.6-.429l-1.268.44-.711-1.209 1.034-.846a3 3 0 0 1-.107-.765q0-.378.107-.766l-1.024-.865.711-1.21 1.258.45q.274-.257.595-.424a4 4 0 0 1 .678-.272l.223-1.327h1.423l.213 1.327q.358.106.678.28t.595.447l1.258-.48.712 1.24-1.026.865q.108.359.108.75 0 .393-.108.75l1.035.846-.711 1.21-1.268-.44q-.285.257-.6.428-.315.172-.673.277l-.213 1.327zM2.5 19.308v-2.223a2.52 2.52 0 0 1 1.466-2.323q1.245-.621 2.692-1.038 1.446-.416 3.342-.416h.292q.131 0 .262.03-.58 1.455-.49 3.061.092 1.606.917 2.909zm14.308-1.77q.786 0 1.345-.558.559-.56.559-1.345 0-.787-.56-1.345a1.83 1.83 0 0 0-1.344-.56q-.787 0-1.345.56-.56.558-.56 1.345t.56 1.345 1.345.559M10 11.693q-1.448 0-2.474-1.026A3.37 3.37 0 0 1 6.5 8.192q0-1.448 1.026-2.474A3.37 3.37 0 0 1 10 4.692q1.448 0 2.474 1.026A3.37 3.37 0 0 1 13.5 8.192q0 1.448-1.026 2.474A3.37 3.37 0 0 1 10 11.692"/></svg>