<svg xmlns="http://www.w3.org/2000/svg" width="24" height="24" viewBox="0 0 24 24" fill='currentColor'><path d="m6.1 11.442-.204-1.192a4 4 0 0 1-.726-.296 3.2 3.2 0 0 1-.643-.458l-1.152.412-.77-1.277.949-.808a3.16 3.16 0 0 1 0-1.646l-.948-.808.769-1.277 1.152.412q.303-.277.643-.458t.726-.296L6.1 2.558h1.5l.204 1.192q.386.116.726.296t.643.458l1.152-.412.77 1.277-.949.808a3.17 3.17 0 0 1 0 1.646l.948.808-.769 1.277-1.152-.412a3.2 3.2 0 0 1-.643.458q-.34.18-.726.296L7.6 11.442zm.75-2.365q.864 0 1.47-.607.607-.606.607-1.47T8.32 5.53a2 2 0 0 0-1.47-.607q-.864 0-1.47.607A2 2 0 0 0 4.773 7q0 .864.607 1.47.606.607 1.47.607m8.354 12.932-.316-1.58a3.3 3.3 0 0 1-1.022-.387 3.7 3.7 0 0 1-.852-.684l-1.49.515-1.006-1.708 1.215-1.034a3.94 3.94 0 0 1 0-2.262l-1.216-1.034 1.006-1.708 1.49.515q.38-.41.853-.684a3.3 3.3 0 0 1 1.023-.387l.315-1.58h1.992l.316 1.58q.549.112 1.023.387.473.274.852.684l1.49-.515 1.006 1.708-1.216 1.034a3.94 3.94 0 0 1 0 2.262l1.215 1.034-1.005 1.708-1.49-.515a3.7 3.7 0 0 1-.852.684 3.3 3.3 0 0 1-1.023.387l-.316 1.58zM16.2 19q1.25.001 2.125-.874A2.9 2.9 0 0 0 19.2 16q0-1.25-.875-2.125A2.9 2.9 0 0 0 16.2 13q-1.25 0-2.125.875A2.9 2.9 0 0 0 13.2 16q0 1.25.875 2.125A2.9 2.9 0 0 0 16.2 19"/></svg>