<svg xmlns="http://www.w3.org/2000/svg" width="24" height="24" viewBox="0 0 24 24" fill='currentColor'><path d="m1.73 22.27 1.758-6.008q-.474-1.016-.731-2.081A9.3 9.3 0 0 1 2.5 12q0-1.972.748-3.705a9.6 9.6 0 0 1 2.03-3.016 9.6 9.6 0 0 1 3.016-2.03 9.25 9.25 0 0 1 3.704-.749q1.971 0 3.706.748a9.6 9.6 0 0 1 3.017 2.03 9.6 9.6 0 0 1 2.03 3.016 9.25 9.25 0 0 1 .749 3.704q0 1.972-.748 3.706a9.6 9.6 0 0 1-2.03 3.017 9.6 9.6 0 0 1-3.017 2.03A9.25 9.25 0 0 1 12 21.5q-1.115 0-2.18-.257a11 11 0 0 1-2.082-.731zm9.52-6.52h1.5v-3h3v-1.5h-3v-3h-1.5v3h-3v1.5h3z"/></svg>