<svg xmlns="http://www.w3.org/2000/svg" width="24" height="24" viewBox="0 0 24 24" fill='currentColor'><path d="M19.001 6.23a2.65 2.65 0 0 1-1.948-.801 2.65 2.65 0 0 1-.803-1.947q0-1.146.802-1.949A2.65 2.65 0 0 1 18.999.73q1.145 0 1.948.802a2.65 2.65 0 0 1 .803 1.947q0 1.146-.802 1.949a2.65 2.65 0 0 1-1.947.802M2.5 21.038V2.5h11.85q-.08.375-.085.745T14.31 4q.078.652.293 1.214t.55 1.036H6.25v1.5h10.971q.36.23.824.355.465.125.955.125.655 0 1.301-.187.645-.188 1.199-.563V17.5H6.039zM6.25 10.75h11.5v-1.5H6.25zm0 3h7.5v-1.5h-7.5z"/></svg>