<svg xmlns="http://www.w3.org/2000/svg" width="24" height="24" viewBox="0 0 24 24" fill='currentColor'><path d="M12 17.548a5.9 5.9 0 0 1-1.708-.248 5.8 5.8 0 0 1-1.536-.72 8 8 0 0 1-2.096-.44 5.3 5.3 0 0 1-1.956-1.234q-.883-.858-1.452-2.252-.57-1.395-.57-3.48v-.472q0-.945.653-1.597a2.17 2.17 0 0 1 1.598-.653q.879 0 1.519.641.64.642.715 1.553.71-.2 1.221-.466t1.02-.513q.594-.319 1.195-.531.6-.213 1.397-.213.812 0 1.405.213.593.212 1.187.531.492.247 1.012.513.52.267 1.229.466.075-.936.715-1.565.64-.63 1.52-.629.944 0 1.596.653.654.653.653 1.597v.471q0 2.087-.569 3.48-.57 1.395-1.452 2.253a5.3 5.3 0 0 1-1.956 1.234 8 8 0 0 1-2.096.44 5.8 5.8 0 0 1-1.536.72q-.825.248-1.708.248m-4.856-2.506a6.3 6.3 0 0 1-.838-1.623 5.7 5.7 0 0 1-.316-1.89V8.702q0-.444-.306-.75a1.02 1.02 0 0 0-.751-.308q-.444 0-.751.307a1.02 1.02 0 0 0-.307.751v.471q0 2.827 1.021 4.105t2.248 1.764m2.058-3.782q.473-.14.844-.33.372-.187.712-.388.32-.19.604-.323.282-.132.638-.132.366 0 .639.128.272.128.603.327.321.19.68.384.36.193.876.334v-.935a4 4 0 0 1-.607-.26l-.507-.276a8 8 0 0 0-.759-.41q-.378-.177-.925-.177-.546 0-.93.178a10 10 0 0 0-.78.409l-.506.276q-.252.135-.582.26zm7.644 3.792q1.237-.486 2.258-1.77 1.02-1.281 1.021-4.109v-.47q0-.445-.307-.752a1.02 1.02 0 0 0-.75-.307q-.445 0-.752.307a1.02 1.02 0 0 0-.306.751v2.827q0 .988-.308 1.9a5.5 5.5 0 0 1-.856 1.623"/></svg>