<svg xmlns="http://www.w3.org/2000/svg" width="24" height="24" viewBox="0 0 24 24" fill='currentColor'><path d="M3.67 17.43 7.61 6.816h1.533l3.971 10.616H11.61l-1.003-2.877h-4.44l-1.01 2.877zm2.955-4.13h3.515L8.415 8.413h-.08zm9.76 4.371q-1.218 0-1.944-.663-.726-.664-.726-1.712 0-1.08.848-1.76.848-.678 2.18-.678.555 0 1.105.104a4.3 4.3 0 0 1 .96.29v-.444q0-.85-.503-1.33Q17.802 11 16.904 11q-.546 0-1.007.208-.46.21-.859.62l-.905-.72a3.8 3.8 0 0 1 1.261-.912 3.8 3.8 0 0 1 1.525-.292q1.581 0 2.354.774T20.046 13v4.43h-1.238v-.972h-.1a2.4 2.4 0 0 1-.965.908q-.596.306-1.359.305m.184-1.08q1.01 0 1.632-.668.622-.667.622-1.621a3 3 0 0 0-.862-.313 4.7 4.7 0 0 0-1.005-.112q-.897 0-1.414.379-.517.378-.517 1.04 0 .558.433.926.435.368 1.111.368"/></svg>