<svg xmlns="http://www.w3.org/2000/svg" width="24" height="24" viewBox="0 0 24 24" fill='currentColor'><path d="M1.5 18.525v-4.25H3v2.75h18v-2.75h1.5v4.25zm8.204-3.535v-.927h-.085a2.3 2.3 0 0 1-.88.855 2.6 2.6 0 0 1-1.254.297q-1.148 0-1.815-.609-.666-.608-.666-1.65 0-1.05.779-1.708.778-.658 2.015-.658.546 0 1.038.097.493.097.852.297v-.446q0-.819-.467-1.267t-1.325-.448q-.525 0-.982.2a2.7 2.7 0 0 0-.841.598l-.844-.675a3.3 3.3 0 0 1 1.162-.88q.657-.293 1.511-.293 1.473 0 2.226.728.753.727.753 2.137v4.352zm-1.689-3.427q-.847 0-1.32.365-.474.366-.474 1.018 0 .566.39.908t1.018.342a1.92 1.92 0 0 0 1.468-.64q.591-.64.591-1.583a2.8 2.8 0 0 0-.8-.305 4 4 0 0 0-.873-.105M12.689 15V4.975h1.223v3.084l-.075 1h.066q.19-.297.73-.724.54-.426 1.5-.426 1.456 0 2.314 1.064.858 1.063.858 2.62 0 1.54-.845 2.585-.846 1.047-2.336 1.047-.91 0-1.462-.393-.55-.392-.759-.757h-.066V15zm3.287-5.95q-.981 0-1.56.756-.578.758-.578 1.772 0 1.032.578 1.775.579.745 1.56.745.98 0 1.534-.73.552-.73.552-1.79 0-1.059-.552-1.794-.553-.735-1.534-.734"/></svg>