<svg xmlns="http://www.w3.org/2000/svg" width="24" height="24" viewBox="0 0 24 24" fill='currentColor'><path d="M12 10.25a7.4 7.4 0 0 1-2.82-.536 8 8 0 0 1-2.357-1.476l1.358-.815q.6.472 1.367.796a7.5 7.5 0 0 0 1.702.479V3.244l.75-.456.75.456v5.454a7.5 7.5 0 0 0 1.683-.48 6.4 6.4 0 0 0 1.386-.795l1.358.815a8 8 0 0 1-2.357 1.476 7.4 7.4 0 0 1-2.82.536m-1.408 9.25-1.398-.745q.04-.186.048-.377.008-.192.008-.378 0-.604-.134-1.258a8 8 0 0 0-.391-1.308l-4.71 2.827-.765-.415v-.877l4.685-2.812a7.8 7.8 0 0 0-1.261-1.164 6.7 6.7 0 0 0-1.424-.807v-1.59q2.388.723 3.944 2.75Q10.75 15.372 10.75 18q0 .393-.036.765a5.4 5.4 0 0 1-.122.735m2.816 0a5.4 5.4 0 0 1-.122-.735A8 8 0 0 1 13.25 18q0-2.628 1.556-4.654 1.556-2.027 3.944-2.75v1.58q-.73.285-1.415.798-.683.512-1.27 1.183l4.685 2.812v.877l-.765.415-4.71-2.827a8 8 0 0 0-.391 1.308 6.3 6.3 0 0 0-.126 1.636q.007.19.048.377z"/></svg>