<svg xmlns="http://www.w3.org/2000/svg" width="24" height="24" viewBox="0 0 24 24" fill='currentColor'><path d="M10.116 21.5v-5.77q0-2.37 1.66-4.031 1.662-1.66 4.034-1.66 2.373 0 4.031 1.66 1.659 1.66 1.659 4.032V21.5h-3.384v-4.692h2.192V15.73q0-1.875-1.313-3.188-1.312-1.312-3.187-1.312t-3.188 1.312-1.312 3.188v1.077H13.5V21.5zm-1.557-13q.585 0 .994-.41.408-.41.408-.995t-.41-.994a1.36 1.36 0 0 0-.995-.409q-.585 0-.993.41a1.36 1.36 0 0 0-.41.995q0 .586.41.994.411.41.996.409m-.636 11H2.5v-17h12.115v5.435a7.8 7.8 0 0 0-2.584.862 7.7 7.7 0 0 0-2.075 1.643 3 3 0 0 0-.661-.241 3.2 3.2 0 0 0-.737-.083q-1.386 0-2.367.98a3.22 3.22 0 0 0-.98 2.365q.001 1.244.776 2.15a3.34 3.34 0 0 0 1.936 1.133zm.635-7.885q.125 0 .235.02t.236.061a8 8 0 0 0-.722 1.595 7.2 7.2 0 0 0-.338 1.778v.135a1.8 1.8 0 0 1-.905-.66 1.77 1.77 0 0 1-.353-1.083q0-.768.539-1.307a1.78 1.78 0 0 1 1.308-.539"/></svg>