<svg xmlns="http://www.w3.org/2000/svg" width="24" height="24" viewBox="0 0 24 24" fill='currentColor'><path d="M12 18.511q-1.9 0-3.763-.16a62 62 0 0 1-3.737-.438v-2.288a3.67 3.67 0 0 1-2.033-1.33A3.64 3.64 0 0 1 1.683 12q0-1.275.784-2.281A3.66 3.66 0 0 1 4.5 8.39V5.352q1.875.276 3.737.437a44 44 0 0 0 7.525-.005 71 71 0 0 0 3.738-.432V8.39q1.248.32 2.033 1.321T22.317 12t-.784 2.288A3.68 3.68 0 0 1 19.5 15.61v2.304q-1.875.267-3.738.433T12 18.51m0-3.271q1.152 0 2.279-.165 1.127-.166 2.269-.456v-1.546q-1.142.305-2.27.486a14.4 14.4 0 0 1-4.55 0q-1.119-.18-2.26-.486v1.555a22 22 0 0 0 2.26.451q1.12.16 2.272.16m-7.5-1.217V9.992q-.6.274-.959.816-.358.541-.358 1.192 0 .665.358 1.206.36.541.959.817m15 0q.6-.276.959-.817.358-.54.358-1.206 0-.66-.366-1.197a2.34 2.34 0 0 0-.951-.811zM12 11.25q1.152 0 2.279-.166a22 22 0 0 0 2.269-.456V9.082q-1.142.306-2.27.487a14.4 14.4 0 0 1-4.55 0q-1.119-.18-2.26-.487v1.556q1.141.29 2.26.451 1.12.16 2.272.16"/></svg>