<svg xmlns="http://www.w3.org/2000/svg" width="24" height="24" viewBox="0 0 24 24" fill='currentColor'><path d="M5.048 22.75a2.65 2.65 0 0 1-1.947-.803A2.65 2.65 0 0 1 2.298 20q0-1.145.803-1.947a2.65 2.65 0 0 1 1.947-.803q.695 0 1.295.337.6.336.978.91a7.56 7.56 0 0 0 2.64-2.406 7.8 7.8 0 0 0 1.275-3.341h-3.56a2.63 2.63 0 0 1-.974 1.445 2.67 2.67 0 0 1-1.653.555 2.65 2.65 0 0 1-1.947-.803A2.65 2.65 0 0 1 2.298 12q0-1.145.803-1.947a2.65 2.65 0 0 1 1.947-.803q.921 0 1.653.555.732.554.974 1.445h3.561a7.7 7.7 0 0 0-1.275-3.332q-1.02-1.5-2.64-2.414a2.8 2.8 0 0 1-.978.91q-.6.336-1.295.336a2.65 2.65 0 0 1-1.947-.803A2.65 2.65 0 0 1 2.298 4q0-1.144.803-1.947a2.65 2.65 0 0 1 1.947-.803q1.173 0 1.97.83.797.832.78 2.024a9.1 9.1 0 0 1 3.379 2.933 9.1 9.1 0 0 1 1.59 4.213h6.077l-1.85-1.85 1.054-1.054L21.702 12l-3.654 3.654-1.054-1.054 1.85-1.85h-6.077a9.25 9.25 0 0 1-1.575 4.22 8.75 8.75 0 0 1-3.394 2.926q.017 1.193-.78 2.023t-1.97.831"/></svg>