<svg xmlns="http://www.w3.org/2000/svg" width="24" height="24" viewBox="0 0 24 24" fill='currentColor'><path d="m7.625 19.154 3.836-2.395-3.836-2.394zm5.529-11.596h3.692V6.365h-3.692zM1.5 22.452V11.067h15v11.385zm16.692-8.904V9.523a2.8 2.8 0 0 0 1.194-1.02q.46-.687.46-1.542 0-1.185-.83-2.016A2.75 2.75 0 0 0 17 4.115h-1.096v1.193H17q.69 0 1.172.483t.482 1.173-.482 1.17T17 8.615h-1.096v.76h-1.808v-.76H13q-.69 0-1.171-.483a1.6 1.6 0 0 1-.483-1.173q0-.69.482-1.17.483-.481 1.172-.481h1.096V4.115H13q-1.186 0-2.016.83a2.75 2.75 0 0 0-.83 2.016q0 .773.375 1.395.375.623.975 1.019H7.5V1.548h15v12z"/></svg>