<svg xmlns="http://www.w3.org/2000/svg" width="24" height="24" viewBox="0 0 24 24" fill='currentColor'><path d="M12.75 17.185q1.158-.603 2.333-.884a10.4 10.4 0 0 1 4.223-.122q.906.16 1.694.46V6.69a6.6 6.6 0 0 0-1.655-.54 10 10 0 0 0-1.845-.17q-1.242 0-2.47.344a8.2 8.2 0 0 0-2.28 1.03zm-.75 2.2a9.8 9.8 0 0 0-2.61-1.38 8.7 8.7 0 0 0-2.89-.486q-1.277 0-2.597.423A8.1 8.1 0 0 0 1.5 19.175V5.809q.975-.635 2.314-.981A10.7 10.7 0 0 1 6.5 4.48q1.46 0 2.852.4 1.392.399 2.648 1.177 1.256-.778 2.648-1.178A10.3 10.3 0 0 1 17.5 4.48q1.349 0 2.682.348 1.334.346 2.318.981v13.366a7.9 7.9 0 0 0-2.395-1.233 8.6 8.6 0 0 0-2.605-.423q-1.49 0-2.89.487A9.8 9.8 0 0 0 12 19.384m1.942-9.639V8.43a8 8 0 0 1 1.707-.568 9 9 0 0 1 1.851-.19q.602.001 1.17.086.566.086 1.138.226v1.254a6.5 6.5 0 0 0-1.117-.285 7.6 7.6 0 0 0-1.191-.088 7.5 7.5 0 0 0-3.558.881m0 5.48v-1.334a7.5 7.5 0 0 1 1.702-.568 9 9 0 0 1 1.856-.19q.602 0 1.17.086.566.085 1.138.226V14.7a6.5 6.5 0 0 0-1.117-.285 7.6 7.6 0 0 0-1.191-.088q-.96 0-1.859.23t-1.699.67m0-2.73v-1.335a8 8 0 0 1 1.707-.568 9 9 0 0 1 1.851-.19q.602.001 1.17.086.566.086 1.138.226v1.254a6.5 6.5 0 0 0-1.117-.285 7.6 7.6 0 0 0-1.191-.088q-.96 0-1.859.238-.899.237-1.699.662"/></svg>