<svg xmlns="http://www.w3.org/2000/svg" width="24" height="24" viewBox="0 0 24 24" fill='currentColor'><path d="M7.365 20.75v-3.296q-2.474-.283-4.112-2.123T1.615 11h1.5q0 2.075 1.463 3.537Q6.041 16 8.115 16q.165 0 .322-.005.159-.004.313-.04.248.366.532.693t.593.616q-.25.065-.492.107a19 19 0 0 1-.518.083v3.296zm.193-7.329a2.52 2.52 0 0 1-1.394-.858q-.549-.66-.549-1.563V5q0-1.048.726-1.774A2.4 2.4 0 0 1 8.115 2.5q1.049 0 1.774.726T10.615 5v3.808H7.192V11q0 .64.092 1.243.09.603.274 1.178m8.327.079q-1.049 0-1.774-.726A2.4 2.4 0 0 1 13.385 11V5q0-1.048.726-1.774a2.4 2.4 0 0 1 1.773-.726q1.049 0 1.774.726T18.385 5v6q0 1.048-.726 1.774a2.4 2.4 0 0 1-1.774.726m-.75 7.25v-3.296q-2.475-.283-4.113-2.123Q9.385 13.49 9.385 11h1.5q0 2.075 1.462 3.537Q13.809 16 15.884 16t3.538-1.463T20.884 11h1.5q0 2.49-1.637 4.33-1.637 1.841-4.113 2.124v3.296z"/></svg>