<svg xmlns="http://www.w3.org/2000/svg" width="24" height="24" viewBox="0 0 24 24" fill='currentColor'><path d="M5.65 4.842 4.596 3.79A10.1 10.1 0 0 1 7.92 1.504Q9.816.692 12 .692t4.082.812a10.1 10.1 0 0 1 3.323 2.285L18.35 4.842a8.8 8.8 0 0 0-2.838-1.94A8.7 8.7 0 0 0 12 2.192q-1.874 0-3.513.71a8.8 8.8 0 0 0-2.837 1.94m2.8 2.8L7.396 6.59a6.5 6.5 0 0 1 2.068-1.4A6.4 6.4 0 0 1 12 4.693q1.37 0 2.535.498a6.5 6.5 0 0 1 2.069 1.399L15.55 7.642q-.675-.675-1.588-1.062A5 5 0 0 0 12 6.192a4.97 4.97 0 0 0-3.55 1.45M12 23.692q-1.31 0-2.251-.94-.941-.942-.941-2.252v-8.03q0-1.31.94-2.252.943-.94 2.252-.94 1.31 0 2.25.94.942.942.942 2.251V20.5q0 1.31-.941 2.251-.942.942-2.251.941m0-9.192q.825 0 1.412-.587Q14 13.325 14 12.5t-.588-1.412A1.93 1.93 0 0 0 12 10.5q-.824 0-1.413.588A1.93 1.93 0 0 0 10 12.5q0 .825.587 1.413.588.587 1.413.587"/></svg>