<svg xmlns="http://www.w3.org/2000/svg" width="24" height="24" viewBox="0 0 24 24" fill='currentColor'><path d="M11.998 8.73a.68.68 0 0 0 .51-.212.7.7 0 0 0 .204-.497.693.693 0 0 0-.716-.713.7.7 0 0 0-.497.203.68.68 0 0 0-.21.512q0 .287.213.497.212.21.496.21m-7.304 5.904a6 6 0 0 1-.505-1.255 5.2 5.2 0 0 1-.18-1.388 5.34 5.34 0 0 1 .676-2.625l1.206.942a3.7 3.7 0 0 0-.381 1.687q0 .465.095.889.095.423.295.818zm-2.423 1.881a9 9 0 0 1-.969-2.126A8 8 0 0 1 .952 12q0-1.255.35-2.389a9 9 0 0 1 .97-2.126l1.2.942a7.3 7.3 0 0 0-.748 1.687A6.5 6.5 0 0 0 2.452 12q0 .983.271 1.892.27.91.748 1.697zM7.337 19.5v-15h9.317v15zm11.953-4.866-1.206-.932q.201-.395.303-.818.104-.425.104-.89t-.104-.878a4 4 0 0 0-.293-.808l1.206-.942q.327.591.508 1.247.183.654.182 1.382 0 .727-.186 1.383a6 6 0 0 1-.514 1.256m2.44 1.866-1.2-.927a7.3 7.3 0 0 0 .747-1.687A6.5 6.5 0 0 0 21.548 12a6.6 6.6 0 0 0-.271-1.892 7.3 7.3 0 0 0-.748-1.697l1.2-.926q.62.978.969 2.111.35 1.132.35 2.389 0 1.255-.35 2.388a9 9 0 0 1-.97 2.127"/></svg>