<svg xmlns="http://www.w3.org/2000/svg" width="24" height="24" viewBox="0 0 24 24" fill='currentColor'><path d="M4.5 21.5v-19h12.039v3.067H13.73v7.939l-3.42-1.7-3.328 3.396 5.11 6.298zm11.364 0q-.441 0-.839-.173a1.7 1.7 0 0 1-.673-.523l-4.438-5.458.855-.875 5.154 2.558v-9.27h.961l3 3V18.5q0 1.25-.875 2.125a2.9 2.9 0 0 1-2.125.875zM10.519 7.154a.85.85 0 0 0 .626-.259.85.85 0 0 0 .259-.626.85.85 0 0 0-.259-.626.85.85 0 0 0-.626-.258.85.85 0 0 0-.626.258.85.85 0 0 0-.258.626q0 .368.258.626a.85.85 0 0 0 .626.259"/></svg>