<svg xmlns="http://www.w3.org/2000/svg" width="24" height="24" viewBox="0 0 24 24" fill='currentColor'><path d="M3.5 21.5v-19h12.039v4.81l-4.806 4.806H7.096V20h3.637l1.5 1.5zM9.52 7.154q.375 0 .63-.255t.254-.63q0-.377-.255-.63a.86.86 0 0 0-.63-.254q-.377 0-.63.254a.86.86 0 0 0-.254.631q0 .375.254.63.255.255.631.254m5.269 13.798-3.145-3.144H9.29v-3.5h2.355l3.145-3.144zm2.192 1.482v-1.518a4.86 4.86 0 0 0 2.85-1.727 4.8 4.8 0 0 0 1.111-3.131q0-1.771-1.11-3.132a4.75 4.75 0 0 0-2.851-1.701v-1.52q2.37.35 3.915 2.155t1.546 4.198q0 2.394-1.546 4.203-1.546 1.808-3.915 2.174m0-3.807v-5.154q.779.3 1.274 1 .495.701.495 1.582t-.495 1.577a2.75 2.75 0 0 1-1.274.995"/></svg>