<svg xmlns="http://www.w3.org/2000/svg" width="24" height="24" viewBox="0 0 24 24" fill='currentColor'><path d="M4.5 14q0-2.212.976-3.982.975-1.772 2.212-3.056 1.235-1.285 2.37-2.065 1.134-.782 1.442-1.002V6.3q0 1.156.779 1.828.78.672 1.746.672.454 0 .865-.165.412-.165.775-.517l.44-.444a7.5 7.5 0 0 1 2.468 2.681A7.4 7.4 0 0 1 19.5 14q0 2.249-1.19 4.041-1.19 1.794-3.085 2.67.483-.531.754-1.21.27-.68.271-1.45 0-.837-.317-1.595a4.2 4.2 0 0 0-.912-1.352L12 12.15l-2.996 2.955a4.3 4.3 0 0 0-.932 1.355 4 4 0 0 0-.322 1.591q0 .772.271 1.45.27.68.754 1.212-1.894-.878-3.085-2.67Q4.5 16.247 4.5 14m7.5.246 1.952 1.912q.387.387.592.863.206.477.206 1.03 0 1.118-.803 1.909a2.67 2.67 0 0 1-1.947.79 2.67 2.67 0 0 1-1.947-.79 2.58 2.58 0 0 1-.803-1.91q0-.526.201-1.011t.597-.881z"/></svg>