<svg xmlns="http://www.w3.org/2000/svg" width="24" height="24" viewBox="0 0 24 24" fill='currentColor'><path d="M6.185 16.252a5.3 5.3 0 0 1-2.05-1.966q-.76-1.267-.76-2.815 0-1.667.736-2.993a11 11 0 0 1 1.658-2.29q.924-.963 1.774-1.546.852-.585 1.082-.757v1.802q0 .787.556 1.336.555.548 1.344.548.36 0 .679-.14t.557-.387l.316-.323a5.35 5.35 0 0 1 2.217 2.785l-2.777 2.777-.069-.07-.07-.069L9 9.796l-2.367 2.368a3.6 3.6 0 0 0-.736 1.065 3.1 3.1 0 0 0-.272 1.277q0 .5.146.932t.414.814m1.661-.288a1.86 1.86 0 0 1-.527-.636 1.8 1.8 0 0 1-.194-.822q0-.396.153-.707t.409-.566L9 11.919l1.32 1.279q.045.03.076.077.03.045.062.077zm-1.311 6.219L5.48 21.129 20.129 6.481l1.054 1.054-4.196 4.196h4.196v1.5h-5.706l-1.096 1.096 1.721 1.721h5.08v1.5h-3.58l2.763 2.764-1.053 1.053-2.764-2.763v3.58h-1.5v-5.08l-1.721-1.721-1.106 1.105v5.697h-1.5v-4.196z"/></svg>