<svg xmlns="http://www.w3.org/2000/svg" width="24" height="24" viewBox="0 0 24 24" fill='currentColor'><path d="M4.438 15.965q0 .876.481 1.786.48.91 1.539 2.014l-1.085 1.03q-1.266-1.313-1.85-2.474t-.585-2.34q0-.967.283-2.027t.889-2.439q.593-1.33.824-2.138.23-.809.23-1.533 0-.825-.514-1.662-.513-.838-1.656-1.876l1.014-1.1q1.356 1.211 2.005 2.34.65 1.13.65 2.298a7.2 7.2 0 0 1-.265 1.878q-.266.986-.875 2.347-.575 1.313-.83 2.204a6.2 6.2 0 0 0-.255 1.692m3.914-.015q0 .875.48 1.788.481.914 1.54 2.018l-1.086 1.029q-1.265-1.312-1.85-2.469-.584-1.156-.584-2.335 0-.967.283-2.027.282-1.06.888-2.439.594-1.33.824-2.143t.23-1.537q0-.825-.514-1.658-.513-.833-1.655-1.871l1.013-1.11q1.356 1.212 2.006 2.34.65 1.13.65 2.299 0 .893-.265 1.875-.266.982-.876 2.344-.575 1.311-.83 2.204a6.2 6.2 0 0 0-.254 1.692m3.84 5.8V2.25h1.5v4.496l3.5-3.465 1.054 1.069-4.554 4.554v2.346h2.346l4.554-4.554 1.045 1.045-3.441 3.509h4.496v1.5h-4.496l3.465 3.485-1.069 1.069-4.553-4.554h-2.347v2.346l4.554 4.554-1.044 1.044-3.51-3.44v4.496z"/></svg>