<svg xmlns="http://www.w3.org/2000/svg" width="24" height="24" viewBox="0 0 24 24" fill='currentColor'><path d="M21.404 13.016q0 1.246-.714 1.932a2.36 2.36 0 0 1-1.698.687q-.255 0-.579-.104a2.2 2.2 0 0 1-.53-.24L8.446 5.892Q8.54 4.36 9.95 3.478t3.392-.882q1.092 0 1.692.647.6.648.6 1.511 0 .593-.258 1.14-.258.549-.772.9-.55.35-.912.953-.36.603-.515 1.344.227.094.415.193.189.099.342.237l2.32-.86a6 6 0 0 1 .75-.218q.354-.077.74-.077 1.765 0 2.713 1.4.947 1.401.947 3.25m-.929 9.9-4.906-4.931a.3.3 0 0 1 .02.096v.096q-.201 1.36-1.47 2.294-1.271.933-3.423.933-1.092 0-1.711-.657a2.17 2.17 0 0 1-.62-1.535q0-.593.259-1.133.258-.54.772-.883.56-.36.916-.962.358-.603.511-1.324a6 6 0 0 1-.406-.194 2 2 0 0 1-.351-.237l-2.32.835q-.396.14-.762.23a3 3 0 0 1-.753.09q-1.546 0-2.59-1.235-1.045-1.235-1.045-3.414 0-1.284.7-1.952a2.35 2.35 0 0 1 1.679-.667q.334 0 .73.12.394.122.653.287L.964 3.404l1.069-1.069 19.511 19.512z"/></svg>