<svg xmlns="http://www.w3.org/2000/svg" width="24" height="24" viewBox="0 0 24 24" fill='currentColor'><path d="m19.804 22.443-3.517-3.518a3 3 0 0 1-.4.255 2.2 2.2 0 0 1-.447.178q.194-.144.318-.356.125-.211.144-.461l-1.233-1.233q.01.047.015.087l.005.086a2.65 2.65 0 0 1-.91 1.61 2.62 2.62 0 0 1-1.779.66 2.67 2.67 0 0 1-1.947-.791 2.58 2.58 0 0 1-.803-1.91q0-.526.201-1.011t.597-.881l1.256-1.215-1.07-1.07-1.23 1.231a4.3 4.3 0 0 0-.932 1.355 4 4 0 0 0-.322 1.591q0 .772.271 1.45.271.68.754 1.212-1.894-.878-3.084-2.67Q4.5 15.247 4.5 13q0-1.308.347-2.45.348-1.142.92-2.144l-3.71-3.71 1.07-1.069 17.745 17.746zm-1.39-5.668L7.629 5.991q1.26-1.312 2.412-2.093a91 91 0 0 0 1.46-1.003V5.3q0 1.156.778 1.828.78.672 1.746.672.454 0 .866-.165.41-.166.775-.517l.44-.444a7.5 7.5 0 0 1 2.467 2.681A7.4 7.4 0 0 1 19.5 13q0 1.06-.286 2.01a7.2 7.2 0 0 1-.8 1.765"/></svg>