<svg xmlns="http://www.w3.org/2000/svg" width="24" height="24" viewBox="0 0 24 24" fill='currentColor'><path d="M11.998 15.74q-.746 0-1.276-.531a1.75 1.75 0 0 1-.53-1.278q0-.747.532-1.276.531-.53 1.278-.53.746 0 1.276.531.53.532.53 1.278t-.532 1.277-1.278.53M7.875 7.375h8.25L18.058 3.5H5.942zm.64 13.125h6.97q2.09 0 3.552-1.457 1.463-1.456 1.463-3.562 0-.879-.301-1.711a5 5 0 0 0-.863-1.51l-2.82-3.385H7.484L4.663 12.26a5 5 0 0 0-.862 1.51 5 5 0 0 0-.301 1.71q0 2.106 1.457 3.562Q6.413 20.5 8.515 20.5"/></svg>