<svg xmlns="http://www.w3.org/2000/svg" width="24" height="24" viewBox="0 0 24 24" fill='currentColor'><path d="M11.001 20.5q-1.77 0-3.317-.66a8.5 8.5 0 0 1-2.704-1.82 8.5 8.5 0 0 1-1.819-2.703A8.35 8.35 0 0 1 2.5 12q0-1.77.661-3.317A8.5 8.5 0 0 1 4.98 5.98a8.5 8.5 0 0 1 2.703-1.82A8.35 8.35 0 0 1 11 3.501a8 8 0 0 1 2 .25V5.3a7 7 0 0 0-.988-.226A7 7 0 0 0 11 5Q8.069 5 6.035 7.035 4 9.069 4 12t2.035 4.966T11 19q2.93 0 4.966-2.034Q18 14.93 18 11.998q0-.273-.025-.527a5 5 0 0 0-.085-.529h1.531q.05.255.064.52.015.263.015.538a8.35 8.35 0 0 1-.661 3.317 8.5 8.5 0 0 1-1.818 2.704 8.5 8.5 0 0 1-2.703 1.818 8.35 8.35 0 0 1-3.317.661m2.972-4.473-3.723-3.723V7h1.5v4.696l3.277 3.277zM18 8.942v-3h-3v-1.5h3v-3h1.5v3h3v1.5h-3v3z"/></svg>