<svg xmlns="http://www.w3.org/2000/svg" width="24" height="24" viewBox="0 0 24 24" fill='currentColor'><path d="M6.25 8.396V7.1q0-.933.446-1.73a3.8 3.8 0 0 1 1.198-1.309L12 1.298l4.106 2.763q.751.512 1.198 1.31.446.795.446 1.729v1.296zm-5 12.354V8.58Q.8 8.336.525 7.93A1.6 1.6 0 0 1 .25 7q0-.508.494-1.213T2 4.356q.761.727 1.256 1.431.494.705.494 1.213 0 .526-.275.93-.275.405-.725.65v4.67h2.5V9.28h13.5v3.97h2.5V8.58q-.45-.245-.725-.65A1.6 1.6 0 0 1 20.25 7q0-.508.494-1.213.495-.705 1.256-1.431.761.727 1.256 1.431.494.705.494 1.213 0 .526-.275.93-.275.405-.725.65v12.17h-8.885v-5.615h-3.73v5.615z"/></svg>