<svg xmlns="http://www.w3.org/2000/svg" width="24" height="24" viewBox="0 0 24 24" fill='currentColor'><path d="M5.135 5.071V18.93a9 9 0 0 1-.935-1.097q-.423-.585-.758-1.22V7.388q.335-.636.758-1.22.422-.586.935-1.098m3.884-2.36v18.58q-.64-.213-1.241-.502a8 8 0 0 1-1.144-.67V3.882a8 8 0 0 1 1.144-.67q.6-.29 1.241-.503m6.385 18.407V2.883q2.784 1.03 4.565 3.49 1.78 2.46 1.78 5.627t-1.78 5.627-4.565 3.49M12 21.75q-.375 0-.745-.037a10 10 0 0 1-.736-.1V2.387q.366-.064.736-.1T12 2.25q.48 0 .957.05.476.05.947.14v19.12q-.471.09-.947.14a9 9 0 0 1-.957.05"/></svg>