<svg xmlns="http://www.w3.org/2000/svg" width="24" height="24" viewBox="0 0 24 24" fill='currentColor'><path d="M7.058 16.75v-1.5h6.567a3.6 3.6 0 0 1-.909-1.165 4.5 4.5 0 0 1-.404-1.335h-3.37v-1.5h3.37q.115-.71.424-1.354a3.5 3.5 0 0 1 .889-1.146H3.25v-1.5H17q1.971 0 3.36 1.389 1.39 1.389 1.39 3.36t-1.39 3.36Q18.972 16.752 17 16.75zM17 15.25a3.13 3.13 0 0 0 2.298-.952A3.13 3.13 0 0 0 20.25 12a3.13 3.13 0 0 0-.952-2.298A3.13 3.13 0 0 0 17 8.75a3.13 3.13 0 0 0-2.298.952A3.13 3.13 0 0 0 13.75 12q0 1.347.952 2.298A3.13 3.13 0 0 0 17 15.25m-14.75-2.5v-1.5h5.692v1.5zm1 4v-1.5h2.808v1.5z"/></svg>