<svg xmlns="http://www.w3.org/2000/svg" width="24" height="24" viewBox="0 0 24 24" fill='currentColor'><path d="M2.5 19.5V14H4v4h4v1.5zM2.5 6V.5H8V2H4v4zm8.404 10.63a6.6 6.6 0 0 1-3.656-1.878 6.6 6.6 0 0 1-1.879-3.656h1.5a5.1 5.1 0 0 0 1.415 2.62 5.1 5.1 0 0 0 2.62 1.415zM5.369 8.905A6.63 6.63 0 0 1 7.248 5.24a6.5 6.5 0 0 1 3.656-1.872v1.5a5.1 5.1 0 0 0-2.62 1.416 5.1 5.1 0 0 0-1.414 2.62zM12 11.75q-.729 0-1.24-.51-.51-.511-.51-1.24 0-.744.51-1.247.511-.503 1.24-.503.744 0 1.247.503.503.502.503 1.247 0 .729-.503 1.24-.502.51-1.247.51m5.13-2.846a5.1 5.1 0 0 0-1.414-2.62 5.1 5.1 0 0 0-2.62-1.415v-1.5a6.63 6.63 0 0 1 3.663 1.879 6.5 6.5 0 0 1 1.872 3.656zM20 6V2h-4V.5h5.5V6zm-1.48 15.02q-1.875 0-3.187-1.314-1.314-1.314-1.314-3.187t1.314-3.186 3.186-1.314 3.187 1.314 1.313 3.186-1.313 3.187-3.187 1.313m0-1.77a.46.46 0 0 0 .34-.14.46.46 0 0 0 .14-.34.46.46 0 0 0-.14-.341.46.46 0 0 0-.34-.14.46.46 0 0 0-.341.14.46.46 0 0 0-.14.34q0 .2.14.34t.34.141m-.443-1.923h.884v-3.5h-.884z"/></svg>