<svg xmlns="http://www.w3.org/2000/svg" width="24" height="24" viewBox="0 0 24 24" fill='currentColor'><path d="M14.74 21.5v-4.77h1.866l3.884 3.885v.885zm5.677 1.165L1.364 3.596l1.053-1.054 19.07 19.07zm-.908-5.788-.884-.885v-.262a.97.97 0 0 0-.288-.712.97.97 0 0 0-.712-.288q-.05 0-.11.005a.5.5 0 0 0-.111.02l-.673-.673q.206-.105.427-.17.22-.066.467-.066.787 0 1.335.549.55.549.55 1.335zM12.75 9.038V2.584q2.474.279 4.113 2.121Q18.5 6.548 18.5 9.038zm2.335 3.383-1.868-1.883H18.5v1.273a4.6 4.6 0 0 0-.875-.08q-.7 0-1.333.175a5 5 0 0 0-1.208.515M12 21.5q-2.714 0-4.607-1.893T5.5 15v-4.462h4.914l3.201 3.202q-.474.626-.732 1.383a5 5 0 0 0-.258 1.608v4.722q-.153.031-.305.039-.15.008-.32.008m-.75-12.945L7.283 4.557A6.7 6.7 0 0 1 9.062 3.24a6.3 6.3 0 0 1 2.188-.655zm-5.75.483a6.4 6.4 0 0 1 .63-2.783l2.784 2.783z"/></svg>