<svg xmlns="http://www.w3.org/2000/svg" width="24" height="24" viewBox="0 0 24 24" fill='currentColor'><path d="M6.614 22.24 1.08 16.702l1.302-1.352 2.79.739V7.25h1.5v7.654h1.385v-4.135h1.5v4.135h1.384V11.96h1.5v2.943h1.385v-.75h1.5v4.336q0 1.554-1.098 2.652a3.6 3.6 0 0 1-2.652 1.098zm9.453-11.778a7.1 7.1 0 0 1-3.79-1.07A6.95 6.95 0 0 1 9.634 6.48a6.95 6.95 0 0 1 2.641-2.91 7.1 7.1 0 0 1 3.793-1.07q2.054 0 3.79 1.07A6.95 6.95 0 0 1 22.5 6.48a6.95 6.95 0 0 1-2.641 2.911 7.1 7.1 0 0 1-3.792 1.07m0-1.847q.897 0 1.516-.618a2.06 2.06 0 0 0 .62-1.516q0-.897-.62-1.516a2.06 2.06 0 0 0-1.515-.619q-.897 0-1.516.62a2.06 2.06 0 0 0-.62 1.515q0 .896.62 1.515a2.06 2.06 0 0 0 1.515.62m.002-.884q-.521 0-.886-.364a1.2 1.2 0 0 1-.366-.885q0-.52.365-.886.363-.365.884-.365.52 0 .886.364.366.365.365.885 0 .52-.364.885a1.2 1.2 0 0 1-.884.366"/></svg>