<svg xmlns="http://www.w3.org/2000/svg" width="24" height="24" viewBox="0 0 24 24" fill='currentColor'><path d="M8.25 5.25v-.942q0-.746.531-1.277a1.74 1.74 0 0 1 1.277-.531h3.884q.746 0 1.277.531t.531 1.277v.942h2.942q.746 0 1.277.531t.531 1.277V8.5h-17V7.058q0-.746.531-1.277a1.74 1.74 0 0 1 1.277-.531zM5.308 20.5a1.74 1.74 0 0 1-1.277-.531 1.74 1.74 0 0 1-.531-1.277V10h3.75v1.75q0 .746.531 1.277t1.277.53h5.884a1.74 1.74 0 0 0 1.277-.53 1.74 1.74 0 0 0 .531-1.277V10h3.75v8.692q0 .746-.531 1.277a1.74 1.74 0 0 1-1.277.531zM8 17.692a.85.85 0 0 0 .626-.258.85.85 0 0 0 .258-.626.85.85 0 0 0-.258-.626.85.85 0 0 0-.626-.259.85.85 0 0 0-.626.259.85.85 0 0 0-.258.626q0 .367.258.626a.85.85 0 0 0 .626.258m4 0a.85.85 0 0 0 .626-.258.85.85 0 0 0 .258-.626.85.85 0 0 0-.258-.626.85.85 0 0 0-.626-.259.85.85 0 0 0-.626.259.85.85 0 0 0-.258.626q0 .367.258.626a.85.85 0 0 0 .626.258m4 0a.85.85 0 0 0 .626-.258.85.85 0 0 0 .258-.626.85.85 0 0 0-.258-.626.85.85 0 0 0-.626-.259.85.85 0 0 0-.626.259.85.85 0 0 0-.258.626q0 .367.258.626a.85.85 0 0 0 .626.258m-6.942-5.634a.3.3 0 0 1-.222-.087.3.3 0 0 1-.086-.221V10h6.5v1.75a.3.3 0 0 1-.086.221.3.3 0 0 1-.222.087zM9.75 5.25h4.5v-.942a.3.3 0 0 0-.086-.221.3.3 0 0 0-.222-.087h-3.884a.3.3 0 0 0-.222.087.3.3 0 0 0-.086.22z"/></svg>