<svg xmlns="http://www.w3.org/2000/svg" width="24" height="24" viewBox="0 0 24 24" fill='currentColor'><path d="m3.429 18.173-1.054-1.085 7.096-7.115 3.981 3.98 3.265-3.653a10.7 10.7 0 0 0-3.187-2.558Q11.723 6.8 9.59 6.8q-1.755 0-3.32.634a10.6 10.6 0 0 0-2.86 1.72L2.355 8.069a11.7 11.7 0 0 1 3.326-2.032A10.4 10.4 0 0 1 9.59 5.3q2.393 0 4.458 1.016t3.673 2.85l2.87-3.25L21.644 7l-3 3.38a13.5 13.5 0 0 1 1.347 2.784 14 14 0 0 1 .711 3.136h-1.5a13 13 0 0 0-.575-2.392q-.405-1.191-1.048-2.331l-4.065 4.546L9.47 12.11z"/></svg>