<svg xmlns="http://www.w3.org/2000/svg" width="24" height="24" viewBox="0 0 24 24" fill='currentColor'><path d="m8.51 14.365 1.596-.48 1.596.48v-.634l-1-.712v-2.73l3.25 1.038v-.788l-3.25-1.962V6.3a.66.66 0 0 0-.177-.444.54.54 0 0 0-.42-.202.53.53 0 0 0-.426.202.68.68 0 0 0-.17.444v2.277l-3.25 1.962v.788l3.25-1.038v2.73l-1 .712zm7.148 6.873-1.046-.974a36 36 0 0 0 3.706-4.814q1.663-2.58 1.663-5.202 0-1.898-.605-3.622t-1.645-2.909l1.098-.975q1.227 1.355 1.94 3.29t.712 4.216q0 2.91-1.776 5.738a34.5 34.5 0 0 1-4.047 5.252m-5.61.271q-3.775-3.27-5.661-6.088Q2.5 12.604 2.5 10.248q0-3.462 2.24-5.605Q6.978 2.5 10.048 2.5t5.309 2.143 2.239 5.605q0 2.356-1.886 5.173-1.887 2.817-5.662 6.089"/></svg>