<svg xmlns="http://www.w3.org/2000/svg" width="24" height="24" viewBox="0 0 24 24" fill='currentColor'><path d="M9.404 20.596V16.23q-.288.186-.593.277-.304.09-.657.09-2.346 0-3.952-1.687t-1.606-4.062V9.154q0-2.374 1.606-4.062t3.952-1.688q1.146 0 1.948.802a2.65 2.65 0 0 1 .802 1.947q0 1.146-.802 1.948a2.65 2.65 0 0 1-1.948.803v2.193q1.144 0 1.947.802a2.65 2.65 0 0 1 .803 1.948v6.75zm3.692 0v-6.75q0-1.146.802-1.947a2.65 2.65 0 0 1 1.948-.802V8.904a2.65 2.65 0 0 1-1.947-.802 2.65 2.65 0 0 1-.803-1.947q0-1.145.802-1.948a2.65 2.65 0 0 1 1.948-.803q2.346 0 3.952 1.688t1.606 4.062v1.693q0 2.374-1.606 4.062-1.605 1.687-3.952 1.687-.352 0-.657-.09-.304-.09-.593-.277v4.367z"/></svg>