<svg xmlns="http://www.w3.org/2000/svg" width="24" height="24" viewBox="0 0 24 24" fill='currentColor'><path d="M13.892 19.615a.9.9 0 0 1-.634.338.9.9 0 0 1-.685-.223l-3.537-2.96a5.4 5.4 0 0 1-1.655-2.352 5.54 5.54 0 0 1-.256-2.85L5.831 10.48a.87.87 0 0 1-.323-.604.93.93 0 0 1 .198-.665l.144-.173H4.23v2.375q0 .614-.443 1.057a1.44 1.44 0 0 1-1.056.443v-9.25q.613 0 1.056.443.444.444.444 1.057v2.375h2.855l1.58-1.913a.95.95 0 0 1 .644-.33.9.9 0 0 1 .675.214l1.269 1.064a5.4 5.4 0 0 1 2.869-.271q1.46.256 2.614 1.219l3.536 2.96q.296.255.329.634a.85.85 0 0 1-.213.66z"/></svg>