<svg xmlns="http://www.w3.org/2000/svg" width="24" height="24" viewBox="0 0 24 24" fill='currentColor'><path d="M12 21.5q-1.972 0-3.705-.748a9.6 9.6 0 0 1-3.016-2.03 9.6 9.6 0 0 1-2.03-3.016 9.25 9.25 0 0 1-.749-3.704q0-1.972.748-3.706a9.6 9.6 0 0 1 2.03-3.016 9.6 9.6 0 0 1 3.017-2.032A9.25 9.25 0 0 1 12 2.5q1.95 0 3.669.74a9.7 9.7 0 0 1 3.003 2.013 9.5 9.5 0 0 1 2.038 2.993 9.4 9.4 0 0 1 .78 3.668 5.8 5.8 0 0 0-1.425-.706 4.9 4.9 0 0 0-1.565-.256q-.49 0-.955.085a5 5 0 0 0-.903.253q-.171-.994-.771-1.613-.6-.62-1.525-.62-1.096 0-1.717.844-.621.843-.621 2.099 0 .979.379 1.701.378.722 1.067 1.034a9 9 0 0 0-.158.722 4.4 4.4 0 0 0-.065.764q0 1.38.662 2.574a5.2 5.2 0 0 0 1.851 1.932 10 10 0 0 1-1.837.576A9.3 9.3 0 0 1 12 21.5m1.792-7.61q-.408-.22-.623-.71T12.954 12q0-.764.337-1.403.338-.64 1.058-.64.672 0 1 .548.329.547.387 1.228-.628.378-1.126.934-.496.555-.818 1.223m4.708 6.1a3.63 3.63 0 0 1-2.665-1.103 3.63 3.63 0 0 1-1.104-2.666q0-1.561 1.104-2.665a3.63 3.63 0 0 1 2.665-1.104q1.562 0 2.666 1.104a3.63 3.63 0 0 1 1.103 2.665q0 1.562-1.103 2.666A3.63 3.63 0 0 1 18.5 19.99M8.417 14.943l2.681-4.736V9.202h-3.75v.9h2.667l.04.075-2.447 4.314z"/></svg>