<svg xmlns="http://www.w3.org/2000/svg" width="24" height="24" viewBox="0 0 24 24" fill='currentColor'><path d="m5.35 19.375-.3-.925h-.525q-.8 0-1.325-.563a1.72 1.72 0 0 1-.475-1.337l.65-10.25q.05-.724.575-1.2a1.8 1.8 0 0 1 1.25-.475h13.6q.725 0 1.25.475t.575 1.2l.65 10.25q.05.775-.475 1.337-.525.563-1.325.563h-.525l-.3.925zm-.725-9.05h14.75l-.25-3.925a.34.34 0 0 0-.112-.2.32.32 0 0 0-.213-.075H5.2a.3.3 0 0 0-.212.075.34.34 0 0 0-.113.2zm-.1 6.625h14.95q.125 0 .225-.088.1-.087.075-.237l-.3-4.8H4.525l-.3 4.8q-.026.15.075.237a.33.33 0 0 0 .225.088"/></svg>