<svg xmlns="http://www.w3.org/2000/svg" width="24" height="24" viewBox="0 0 24 24" fill='currentColor'><path d="M9.5 21.75q-1.353 0-2.302-.948-.948-.949-.948-2.302V4.058q0-.746.531-1.277a1.74 1.74 0 0 1 1.277-.531h2.884q.746 0 1.277.531t.531 1.277V18.5q0 1.354-.948 2.302-.949.948-2.302.948m0-1.5q.72 0 1.236-.515.514-.513.514-1.235 0-.721-.514-1.235A1.68 1.68 0 0 0 9.5 16.75q-.721 0-1.235.515A1.68 1.68 0 0 0 7.75 18.5q0 .721.515 1.235.513.515 1.235.515m7.558-2.5a1.74 1.74 0 0 1-1.277-.531 1.74 1.74 0 0 1-.531-1.277V8.058q0-.746.531-1.277a1.74 1.74 0 0 1 1.277-.531h.884q.746 0 1.277.531t.531 1.277v7.884q0 .746-.531 1.277a1.74 1.74 0 0 1-1.277.531z"/></svg>