<svg xmlns="http://www.w3.org/2000/svg" width="24" height="24" viewBox="0 0 24 24" fill='currentColor'><path d="M12 10.933q-.706 0-1.209-.503a1.65 1.65 0 0 1-.502-1.208q0-.706.502-1.21A1.65 1.65 0 0 1 12 7.51q.706 0 1.209.503.502.503.502 1.209 0 .705-.502 1.208a1.65 1.65 0 0 1-1.209.503M7.366 21.26q0-.614.443-1.057a1.44 1.44 0 0 1 1.056-.443h2.385q0-1.555-.752-2.895a6.36 6.36 0 0 0-2.06-2.207 6.4 6.4 0 0 1-2.161-2.347A6.4 6.4 0 0 1 5.5 9.224q0-2.715 1.891-4.61 1.892-1.892 4.607-1.892t4.609 1.892 1.893 4.61a6.4 6.4 0 0 1-.788 3.117 6.35 6.35 0 0 1-2.19 2.342 5.8 5.8 0 0 0-2.044 2.176 6 6 0 0 0-.728 2.9h2.385q.614 0 1.052.444t.438 1.057zM12 14.222q2.075 0 3.537-1.463Q17 11.297 17 9.222t-1.463-3.538T12 4.222 8.463 5.684Q7 7.146 7 9.222t1.463 3.537T12 14.222"/></svg>