<svg xmlns="http://www.w3.org/2000/svg" width="24" height="24" viewBox="0 0 24 24" fill='currentColor'><path d="M11.999 16.75q.52 0 .885-.364.366-.364.366-.885 0-.52-.364-.885A1.2 1.2 0 0 0 12 14.25q-.52 0-.885.364a1.2 1.2 0 0 0-.366.885q0 .52.364.885.365.366.885.366M9 21.5q-1.764 0-2.842-.976-1.077-.975-1.67-2.414a12 12 0 0 1-.79-3.095 25 25 0 0 1-.198-2.99q0-2.397.367-4.166.366-1.77 1.337-2.98.968-1.202 2.595-1.79 1.629-.59 4.2-.589 2.573 0 4.2.589 1.63.588 2.597 1.79.97 1.21 1.337 2.98t.367 4.166q0 1.356-.198 2.99a12 12 0 0 1-.79 3.095q-.593 1.438-1.67 2.414-1.077.975-2.842.976z"/></svg>