<svg xmlns="http://www.w3.org/2000/svg" width="24" height="24" viewBox="0 0 24 24" fill='currentColor'><path d="M4.952 21.5q-.623 0-1.061-.443A1.45 1.45 0 0 1 3.452 20h4.65q-2.283-1.089-3.788-3.274-1.506-2.186-1.506-5.043 0-1.908.726-3.575a9.4 9.4 0 0 1 1.97-2.917 9.2 9.2 0 0 1 2.916-1.97A8.9 8.9 0 0 1 12 2.5a8.9 8.9 0 0 1 3.58.721 9.2 9.2 0 0 1 2.916 1.97 9.4 9.4 0 0 1 1.97 2.917 8.9 8.9 0 0 1 .726 3.575q0 2.858-1.5 5.043Q18.19 18.911 15.897 20h4.65q0 .613-.438 1.057a1.44 1.44 0 0 1-1.062.443zm2.406-6.683h3.684v-.869h-2.44l-.015-.03q.441-.443.842-.821t.658-.636q.44-.44.663-.885t.223-.901q0-.636-.498-1.127-.498-.49-1.35-.49-.831 0-1.262.453t-.546.785l.86.343q.063-.147.272-.414t.651-.267q.527 0 .712.293.184.294.184.474 0 .228-.09.46-.089.232-.473.648a36 36 0 0 1-.842.848q-.6.588-1.233 1.213zm6.992.125q1.095 0 1.72-.843.622-.843.622-2.099t-.635-2.099-1.707-.843q-1.095 0-1.72.843-.622.843-.622 2.099t.623 2.099 1.72.843m0-.9q-.678 0-1.037-.573-.36-.572-.36-1.469 0-.764.338-1.403.337-.64 1.06-.64.72 0 1.058.64.337.64.337 1.403 0 .896-.358 1.47-.36.572-1.038.572"/></svg>