<svg xmlns="http://www.w3.org/2000/svg" width="24" height="24" viewBox="0 0 24 24" fill='currentColor'><path d="M7.5 13.885a.85.85 0 0 0 .626-.259.85.85 0 0 0 .258-.626.85.85 0 0 0-.258-.626.85.85 0 0 0-.626-.258.85.85 0 0 0-.626.258.85.85 0 0 0-.259.626q0 .368.259.626a.85.85 0 0 0 .626.258m3 0a.85.85 0 0 0 .626-.259.85.85 0 0 0 .258-.626.85.85 0 0 0-.258-.626.85.85 0 0 0-.626-.258.85.85 0 0 0-.626.258.85.85 0 0 0-.259.626q0 .368.259.626a.85.85 0 0 0 .626.258m3 0a.85.85 0 0 0 .626-.259.85.85 0 0 0 .258-.626.85.85 0 0 0-.258-.626.85.85 0 0 0-.626-.258.85.85 0 0 0-.626.258.85.85 0 0 0-.258.626q0 .368.258.626a.85.85 0 0 0 .626.258m3 0a.85.85 0 0 0 .626-.259.85.85 0 0 0 .258-.626.85.85 0 0 0-.258-.626.85.85 0 0 0-.626-.258.85.85 0 0 0-.626.258.85.85 0 0 0-.258.626q0 .368.258.626a.85.85 0 0 0 .626.258m-4.5 8a8.6 8.6 0 0 1-3.468-.704 9 9 0 0 1-2.813-1.9 9 9 0 0 1-1.9-2.813A8.6 8.6 0 0 1 3.115 13q0-3.48 2.336-6.032t5.799-2.831V1q0-.319.216-.534A.73.73 0 0 1 12 .25q.32 0 .534.216A.73.73 0 0 1 12.75 1v3.137q3.464.28 5.799 2.831Q20.884 9.521 20.884 13q0 1.851-.703 3.468a9 9 0 0 1-1.9 2.813 9 9 0 0 1-2.813 1.9 8.6 8.6 0 0 1-3.468.703"/></svg>