<svg xmlns="http://www.w3.org/2000/svg" width="24" height="24" viewBox="0 0 24 24" fill='currentColor'><path d="M12 21.75q-1.97 0-3.36-1.39T7.25 17V7q0-1.971 1.389-3.36 1.389-1.39 3.36-1.39t3.36 1.39Q16.752 5.029 16.75 7v5H12v2.058q-.806 0-1.374.57T10.058 16q0 .777.57 1.335.57.56 1.372.607zm2.25 0v-.575q0-1.204 1.178-1.702A6.5 6.5 0 0 1 18 18.975q1.395 0 2.572.498t1.178 1.702v.575zM18 17.5q-.729 0-1.24-.51-.51-.511-.51-1.24t.51-1.24T18 14t1.24.51.51 1.24-.51 1.24-1.24.51m-6-.442q-.444 0-.751-.307a1.02 1.02 0 0 1-.307-.751q0-.444.307-.751.306-.307.751-.307t.751.307q.307.306.307.751 0 .444-.307.751a1.02 1.02 0 0 1-.751.307m0-7.116q.8 0 1.372-.57.57-.57.57-1.372 0-.8-.57-1.372A1.87 1.87 0 0 0 12 6.058q-.8 0-1.372.57-.57.57-.57 1.372 0 .8.57 1.372.57.57 1.372.57"/></svg>