<svg xmlns="http://www.w3.org/2000/svg" width="24" height="24" viewBox="0 0 24 24" fill='currentColor'><path d="M12.001 7q-.52 0-.885-.364a1.2 1.2 0 0 1-.366-.885q0-.52.364-.886Q11.48 4.5 12 4.5t.885.364.366.885-.364.886A1.2 1.2 0 0 1 12 7m0 15.308q-1.89 0-3.224-1.334-1.332-1.332-1.333-3.224V6.058q0-1.891 1.334-3.225Q10.109 1.5 12 1.5t3.224 1.333q1.332 1.334 1.333 3.225V17.75q0 1.892-1.334 3.224Q13.891 22.31 12 22.309M12.002 8.5q1.154 0 1.952-.798.797-.797.797-1.952t-.798-1.953T12 3t-1.952.798-.797 1.952.798 1.953q.797.797 1.953.797m-1.443 7.27a.85.85 0 0 0 .626-.26.85.85 0 0 0 .258-.626.85.85 0 0 0-.258-.625.85.85 0 0 0-.626-.259.85.85 0 0 0-.626.259.85.85 0 0 0-.259.625q0 .367.259.627a.85.85 0 0 0 .626.258m0-2.866a.85.85 0 0 0 .626-.259.85.85 0 0 0 .258-.626.85.85 0 0 0-.258-.626.85.85 0 0 0-.626-.258.85.85 0 0 0-.626.258.85.85 0 0 0-.259.626q0 .368.259.626a.85.85 0 0 0 .626.259m2.884 0a.85.85 0 0 0 .626-.259.85.85 0 0 0 .259-.626.85.85 0 0 0-.259-.626.85.85 0 0 0-.626-.258.85.85 0 0 0-.626.258.85.85 0 0 0-.258.626q0 .368.258.626a.85.85 0 0 0 .626.259m0 2.865a.85.85 0 0 0 .626-.258.85.85 0 0 0 .259-.626.85.85 0 0 0-.259-.626.85.85 0 0 0-.626-.259.85.85 0 0 0-.626.259.85.85 0 0 0-.258.625q0 .367.258.627a.85.85 0 0 0 .626.258m-2.884 2.865a.85.85 0 0 0 .626-.258.85.85 0 0 0 .258-.626.85.85 0 0 0-.258-.626.85.85 0 0 0-.626-.259.85.85 0 0 0-.626.259.85.85 0 0 0-.259.626q0 .367.259.626a.85.85 0 0 0 .626.258m2.884 0a.85.85 0 0 0 .626-.258.85.85 0 0 0 .259-.626.85.85 0 0 0-.259-.626.85.85 0 0 0-.626-.259.85.85 0 0 0-.626.259.85.85 0 0 0-.258.626q0 .367.258.626a.85.85 0 0 0 .626.258"/></svg>