<svg xmlns="http://www.w3.org/2000/svg" width="24" height="24" viewBox="0 0 24 24" fill='currentColor'><path d="m8.417 14.942 2.681-4.736V9.202h-3.75v.9h2.667l.04.075-2.447 4.314zm5.932 0q1.097 0 1.72-.843.624-.843.623-2.099 0-1.256-.634-2.099-.633-.843-1.707-.843-1.097 0-1.72.843T12.008 12t.622 2.099 1.719.843m.001-.9q-.678 0-1.037-.573-.36-.572-.36-1.469 0-.764.338-1.403.338-.64 1.059-.64t1.059.64.337 1.403q0 .896-.359 1.47-.359.572-1.037.572M12.002 21.5a9.3 9.3 0 0 1-3.706-.748 9.6 9.6 0 0 1-3.016-2.03 9.6 9.6 0 0 1-2.032-3.016 9.25 9.25 0 0 1-.748-3.704q0-1.972.748-3.706a9.6 9.6 0 0 1 2.03-3.016 9.6 9.6 0 0 1 3.016-2.032 9.25 9.25 0 0 1 3.704-.748q1.972 0 3.706.748a9.6 9.6 0 0 1 3.017 2.03 9.6 9.6 0 0 1 2.03 3.016 9.25 9.25 0 0 1 .749 3.704q0 1.972-.748 3.706a9.6 9.6 0 0 1-2.03 3.017 9.6 9.6 0 0 1-3.016 2.03 9.25 9.25 0 0 1-3.704.749"/></svg>