<svg xmlns="http://www.w3.org/2000/svg" width="24" height="24" viewBox="0 0 24 24" fill='currentColor'><path d="M12.192 19.01h1.5v2.692h-1.5zm4.01-1.747 1.888 1.889-1.044 1.044-1.888-1.888zM.75.298H2.5q.73 0 1.24.51t.51 1.24v2.19a5.3 5.3 0 0 1 1.942-1.96 5.3 5.3 0 0 1 2.737-.73h6.513v6.16l-1.527-1.512a7.1 7.1 0 0 0-2.257-1.522 6.7 6.7 0 0 0-2.67-.55q-1.347 0-2.589.517A7.1 7.1 0 0 0 4.25 6.004v2.261q.636-1.153 1.93-1.935a5.33 5.33 0 0 1 2.809-.782q1.103 0 2.122.441 1.02.442 1.803 1.224l4.565 4.566-7.84 7.825-4.566-4.556a6 6 0 0 1-.446-.503 5 5 0 0 1-.377-.562v2.065q0 .729-.51 1.24-.51.51-1.24.51H.75zm16.154 14h2.692v1.5h-2.692z"/></svg>