<svg xmlns="http://www.w3.org/2000/svg" width="24" height="24" viewBox="0 0 24 24" fill='currentColor'><path d="M4.483 19.48a.7.7 0 0 1-.208-.525q0-.316.208-.52l1.711-1.712a7.6 7.6 0 0 1-1.247-2.19 7.4 7.4 0 0 1-.447-2.571q0-3.14 2.18-5.32T12 4.462h7.5v7.5q0 3.14-2.18 5.32T12 19.462a7.3 7.3 0 0 1-2.56-.447 7.6 7.6 0 0 1-2.177-1.247l-1.736 1.711a.7.7 0 0 1-.52.208.7.7 0 0 1-.524-.208m4.06-4.062q.207.24.522.23a.77.77 0 0 0 .537-.228l3.925-3.916a.73.73 0 0 0 .003-1.066.72.72 0 0 0-.527-.21.7.7 0 0 0-.52.207l-3.94 3.94a.7.7 0 0 0-.208.514q0 .308.207.53"/></svg>