<svg xmlns="http://www.w3.org/2000/svg" width="24" height="24" viewBox="0 0 24 24" fill='currentColor'><path d="M5.48 21.5a2.87 2.87 0 0 1-2.104-.876 2.87 2.87 0 0 1-.876-2.105q0-1.228.876-2.104a2.87 2.87 0 0 1 2.105-.876q.44 0 .855.131.415.132.762.37l4.152-4.151v-3.53a2.93 2.93 0 0 1-1.598-1.041 2.86 2.86 0 0 1-.633-1.837q0-1.23.876-2.105A2.87 2.87 0 0 1 12 2.5q1.229 0 2.105.876a2.87 2.87 0 0 1 .876 2.105q0 1.043-.628 1.837A2.9 2.9 0 0 1 12.75 8.36v3.529l4.167 4.152q.347-.24.753-.37.405-.133.85-.132 1.228 0 2.104.876a2.87 2.87 0 0 1 .876 2.104q0 1.23-.876 2.105a2.87 2.87 0 0 1-2.105.876 2.87 2.87 0 0 1-2.104-.876 2.87 2.87 0 0 1-.876-2.105q0-.373.088-.726.089-.352.26-.66L12 13.246l-3.886 3.887q.17.307.259.66.088.352.088.726 0 1.23-.876 2.105a2.87 2.87 0 0 1-2.104.876M18.519 20q.616 0 1.05-.431.432-.432.432-1.049 0-.615-.431-1.049a1.43 1.43 0 0 0-1.049-.433q-.615 0-1.049.432a1.43 1.43 0 0 0-.433 1.048q0 .616.432 1.05.432.432 1.048.432m-6.52-13.038q.618 0 1.05-.432t.433-1.048-.432-1.05A1.43 1.43 0 0 0 12.001 4a1.43 1.43 0 0 0-1.049.431 1.43 1.43 0 0 0-.433 1.049q0 .615.432 1.049.431.433 1.048.433M5.48 20q.615 0 1.049-.431.433-.432.433-1.049 0-.615-.432-1.049a1.43 1.43 0 0 0-1.048-.433q-.616 0-1.05.432A1.43 1.43 0 0 0 4 18.518q0 .616.431 1.05Q4.864 20 5.48 20"/></svg>