<svg xmlns="http://www.w3.org/2000/svg" width="24" height="24" viewBox="0 0 24 24" fill='currentColor'><path d="M12 20.289.712 9A15.9 15.9 0 0 1 5.88 5.655 16.4 16.4 0 0 1 11.996 4.5q3.246 0 6.14 1.155A15.7 15.7 0 0 1 23.289 9l-2.045 2.044a4.5 4.5 0 0 0-.822-.298 6 6 0 0 0-.868-.15L21.1 9.05a15.1 15.1 0 0 0-4.263-2.263A14.9 14.9 0 0 0 12 6q-2.525 0-4.837.787A15.1 15.1 0 0 0 2.9 9.05l5.925 5.925q.887-.558 2.051-.77 1.164-.21 2.19.005-.246.51-.367 1.099a5.6 5.6 0 0 0-.122 1.139q0 .707.154 1.372.153.667.467 1.27zm3.73 0v-4.77h1.01v-1q0-.787.55-1.335a1.82 1.82 0 0 1 1.335-.55q.787 0 1.335.55.55.548.55 1.335v1h.99v4.77zm1.895-4.77h2v-1a.97.97 0 0 0-.288-.712.97.97 0 0 0-.712-.288.97.97 0 0 0-.712.288.97.97 0 0 0-.288.712z"/></svg>