<svg xmlns="http://www.w3.org/2000/svg" width="24" height="24" viewBox="0 0 24 24" fill='currentColor'><path d="M2.1 11.1.54 9.54A15.8 15.8 0 0 1 5.787 6Q8.753 4.77 12 4.77a18 18 0 0 1 2.189.131l-1.097 2.17A9 9 0 0 0 12 7Q9.2 7 6.638 8.063A13.9 13.9 0 0 0 2.1 11.1m4.25 4.25-1.56-1.592a9.8 9.8 0 0 1 2.996-2.057 10.9 10.9 0 0 1 3.538-.9l-1.177 2.438a7.3 7.3 0 0 0-2.047.782 8 8 0 0 0-1.749 1.33m5.066 4.231a1.6 1.6 0 0 1-.994-.87 1.41 1.41 0 0 1 .005-1.276l5.538-11.661a.44.44 0 0 1 .566-.212q.171.065.257.214.085.15.035.32l-3.25 12.458a1.42 1.42 0 0 1-.82.983 1.67 1.67 0 0 1-1.337.044m6.234-4.23a10 10 0 0 0-.448-.405q-.224-.19-.483-.369l.608-2.307q.506.321.98.689t.905.799zm4.235-4.235a20 20 0 0 0-1.705-1.438 12.3 12.3 0 0 0-1.884-1.164l.546-2.221q1.293.62 2.455 1.432a16 16 0 0 1 2.165 1.814z"/></svg>