<svg xmlns="http://www.w3.org/2000/svg" width="24" height="24" viewBox="0 0 24 24" fill='currentColor'><path d="M9.013 17.998a4.2 4.2 0 0 1 1.06-.774q.587-.303 1.256-.399-.077.428-.104.854-.027.427.011.87.039.503.136.982.097.48.288.917l-.106.106zM6.35 15.35l-1.562-1.592A10.12 10.12 0 0 1 12 10.77q1.033 0 2.034.21 1.002.208 1.924.603a5.4 5.4 0 0 0-1.47.576q-.688.395-1.246.949A7.3 7.3 0 0 0 12 13a7.85 7.85 0 0 0-3.063.613A8 8 0 0 0 6.35 15.35M2.1 11.1.538 9.54A15.8 15.8 0 0 1 5.785 6Q8.754 4.77 12 4.77T18.215 6q2.967 1.23 5.247 3.54L21.9 11.1a13.9 13.9 0 0 0-4.537-3.037A13.9 13.9 0 0 0 12 7Q9.2 7 6.637 8.063A13.9 13.9 0 0 0 2.1 11.1m16.506 2.4.203 1.193q.435.124.75.291.315.165.62.463l1.142-.393.77 1.258-.92.788a3.34 3.34 0 0 1 0 1.685l.92.788-.77 1.258-1.142-.392a3 3 0 0 1-.62.457q-.315.171-.75.296l-.203 1.193h-1.5l-.204-1.193a3.7 3.7 0 0 1-.75-.296 3 3 0 0 1-.62-.457l-1.142.392-.769-1.258.92-.788a3.34 3.34 0 0 1 0-1.685l-.92-.788.77-1.258 1.142.393q.304-.297.619-.463t.75-.291l.204-1.193zm-.75 2.366q-.855 0-1.466.611a2 2 0 0 0-.611 1.465q0 .854.611 1.466a2 2 0 0 0 1.466.611 2 2 0 0 0 1.465-.611q.612-.611.612-1.466 0-.853-.612-1.465a2 2 0 0 0-1.465-.611"/></svg>