<svg xmlns="http://www.w3.org/2000/svg" width="24" height="24" viewBox="0 0 24 24" fill='currentColor'><path d="M12 20.289.712 9A15.8 15.8 0 0 1 5.91 5.653 16.4 16.4 0 0 1 11.996 4.5q3.19 0 6.101 1.145A15.6 15.6 0 0 1 23.288 9l-2.044 2.044a4.5 4.5 0 0 0-.83-.298q-.423-.105-.86-.15L21.1 9.05q-1.975-1.5-4.3-2.275A15.1 15.1 0 0 0 12 6q-2.475 0-4.8.775A14.8 14.8 0 0 0 2.9 9.05l4.406 4.406a9 9 0 0 1 2.252-1.039 8.4 8.4 0 0 1 2.442-.36q.566 0 1.122.107.556.105 1.086.236a5.9 5.9 0 0 0-1.204 1.864 5.7 5.7 0 0 0-.427 2.184q0 .698.154 1.363.153.666.467 1.28zm3.73 0v-4.77h1.01v-1q0-.787.55-1.335a1.82 1.82 0 0 1 1.335-.55q.787 0 1.335.55.55.548.55 1.335v1h.99v4.77zm1.895-4.77h2v-1a.97.97 0 0 0-.288-.712.97.97 0 0 0-.712-.288.97.97 0 0 0-.712.288.97.97 0 0 0-.288.712z"/></svg>