<svg xmlns="http://www.w3.org/2000/svg" width="24" height="24" viewBox="0 0 24 24" fill='currentColor'><path d="M8.296 19.5a.93.93 0 0 1-.46-.118.8.8 0 0 1-.328-.35l-1.854-3.32h1.354l.961 1.884h2.156v-.884H8.502l-.962-1.885H5.163l-1.348-2.375a2 2 0 0 1-.083-.226.8.8 0 0 1-.033-.226q0-.08.115-.452l1.349-2.375H7.54l.961-1.884h1.623v-.885H7.969l-.961 1.885H5.654l1.854-3.322a.8.8 0 0 1 .329-.349.93.93 0 0 1 .46-.118h2.357q.387 0 .645.259a.88.88 0 0 1 .259.645v3.807h-1.51l-.884.885h2.394v2.865H9.473l-.942-1.875H6.452l-.885.885h2.431l.942 1.875h2.618v4.75a.88.88 0 0 1-.259.645.88.88 0 0 1-.645.259zm5.05 0a.88.88 0 0 1-.645-.259.88.88 0 0 1-.259-.645v-4.75h2.617l.943-1.875h2.43l-.884-.885h-2.079l-.952 1.875h-2.075v-2.865h2.394l-.884-.885h-1.51V5.404q0-.387.259-.645a.88.88 0 0 1 .645-.259h2.358q.246 0 .46.118a.8.8 0 0 1 .328.35l1.854 3.32h-1.354l-.961-1.884h-2.156v.885h1.623l.952 1.884h2.389l1.348 2.375q.05.115.082.226a.8.8 0 0 1 .033.226q0 .08-.116.452l-1.348 2.375H16.45l-.952 1.885h-1.623v.884h2.156l.961-1.885h1.354l-1.854 3.322a.8.8 0 0 1-.329.349.93.93 0 0 1-.46.118z"/></svg>