<svg xmlns="http://www.w3.org/2000/svg" width="24" height="24" viewBox="0 0 24 24" fill='currentColor'><path d="M14.25 20.596q-.45 0-.801-.12a3 3 0 0 1-.7-.36V3.855q.35-.24.7-.356t.8-.115a2.9 2.9 0 0 1 2.085.831q.87.832.916 2.03v.087a.3.3 0 0 1-.01.077 3.7 3.7 0 0 1 2.358 1.224q.96 1.053.96 2.5 0 .56-.157 1.075a3.4 3.4 0 0 1-.46.955q.256.42.388.9.132.479.132.975 0 1.433-.92 2.475a3.7 3.7 0 0 1-2.307 1.24 3.03 3.03 0 0 1-.936 2.012q-.85.83-2.048.83m-4.5 0a2.87 2.87 0 0 1-2.06-.83 3 3 0 0 1-.95-2.012 3.68 3.68 0 0 1-2.288-1.258 3.62 3.62 0 0 1-.914-2.457q0-.496.128-.976.128-.479.384-.9a3.3 3.3 0 0 1-.456-.954 3.8 3.8 0 0 1-.152-1.074q0-1.44.947-2.489a3.66 3.66 0 0 1 2.346-1.221.3.3 0 0 1-.01-.077v-.086a2.87 2.87 0 0 1 .924-2.043 2.94 2.94 0 0 1 2.1-.834q.442 0 .797.123t.704.363v16.254q-.348.24-.7.356a2.6 2.6 0 0 1-.8.115"/></svg>