<svg xmlns="http://www.w3.org/2000/svg" width="24" height="24" viewBox="0 0 24 24" fill='currentColor'><path d="m20.792 22.916-3.229-3.23A9.26 9.26 0 0 1 12 21.5q-1.972.002-3.705-.747a9.6 9.6 0 0 1-3.016-2.03 9.6 9.6 0 0 1-2.03-3.017A9.25 9.25 0 0 1 2.5 12a9.26 9.26 0 0 1 1.814-5.563L1.28 3.404l1.07-1.069 19.51 19.512zM12 17.808q.634 0 1.222-.12t1.134-.366a5.5 5.5 0 0 1-2.115-1.633 5.2 5.2 0 0 1-1.076-2.4L6.98 9.102a5.6 5.6 0 0 0-.584 1.37A5.7 5.7 0 0 0 6.192 12q0 2.42 1.694 4.114T12 17.808m8-.654-8.223-8.223a6 6 0 0 1 1.12-1.318 5.7 5.7 0 0 1 1.459-.934 5.4 5.4 0 0 0-1.135-.366 6 6 0 0 0-1.223-.12 5.6 5.6 0 0 0-2.423.536L6.846 4a9.7 9.7 0 0 1 2.425-1.107A9.4 9.4 0 0 1 12 2.5q1.97 0 3.704.748a9.6 9.6 0 0 1 3.016 2.031 9.6 9.6 0 0 1 2.03 3.016A9.25 9.25 0 0 1 21.5 12q0 1.43-.392 2.73A9.7 9.7 0 0 1 20 17.154"/></svg>