<svg xmlns="http://www.w3.org/2000/svg" width="24" height="24" viewBox="0 0 24 24" fill='currentColor'><path d="M6 14.385q1.085 0 1.989.587a3.5 3.5 0 0 1 1.33 1.597l.346.816h.885q.877 0 1.471.622.594.621.594 1.493 0 .886-.614 1.5-.615.615-1.501.615H6q-1.496 0-2.556-1.06A3.48 3.48 0 0 1 2.384 18q0-1.521 1.06-2.568A3.5 3.5 0 0 1 6 14.385m4.683-10.702a10.5 10.5 0 0 0 .496 4.669 10.25 10.25 0 0 0 2.49 3.979 10.25 10.25 0 0 0 3.979 2.49q2.261.772 4.67.496-.775 3.146-3.294 5.132-2.518 1.985-5.738 2.05.637-.582.983-1.36.346-.777.346-1.64 0-1.602-1.038-2.759a3.85 3.85 0 0 0-2.592-1.3 5.57 5.57 0 0 0-2.058-2.23A5.46 5.46 0 0 0 6 12.385q-.656 0-1.288.151a5.2 5.2 0 0 0-1.212.456v-.154q.03-3.27 2.026-5.812 1.996-2.544 5.157-3.343"/></svg>