<svg xmlns="http://www.w3.org/2000/svg" width="24" height="24" viewBox="0 0 24 24" fill='currentColor'><path d="M12 5.994 9.53 3.55l1.045-1.07L12 3.905l3.55-3.55L16.594 1.4zM3.5 23.5v-8.423L5.806 8.5h12.388l2.306 6.577V23.5h-2.115v-2H5.615v2zm2.108-9.923h12.784L17.131 10H6.869zm1.856 5.269q.546 0 .925-.382.38-.382.38-.928t-.382-.926a1.27 1.27 0 0 0-.928-.38q-.546 0-.925.383-.38.381-.38.928 0 .545.382.925t.928.38m9.077 0q.546 0 .925-.382.38-.382.38-.928t-.382-.926a1.27 1.27 0 0 0-.928-.38q-.546 0-.926.383-.38.381-.38.928 0 .545.383.925.382.38.928.38"/></svg>