<svg xmlns="http://www.w3.org/2000/svg" width="24" height="24" viewBox="0 0 24 24" fill='currentColor'><path d="M20.792 22.916 18.377 20.5H2.5v-15h3.016v2.14L1.28 3.404l1.07-1.069 19.511 19.512zm.708-4.262-5.41-5.425a4 4 0 0 0-.25-1.7 4.02 4.02 0 0 0-2.368-2.368 4 4 0 0 0-1.7-.251L7.836 4.99 9.212 3.5h5.577l1.85 2H21.5zM12 17.116q.623 0 1.199-.178a3.7 3.7 0 0 0 1.076-.54l-5.673-5.673q-.36.5-.54 1.076a4 4 0 0 0-.177 1.2q0 1.71 1.202 2.913 1.2 1.201 2.913 1.202m0-1.5q-1.097 0-1.857-.759-.758-.759-.758-1.857a2.6 2.6 0 0 1 .763-1.852l3.704 3.704a2.6 2.6 0 0 1-1.852.764"/></svg>