<svg xmlns="http://www.w3.org/2000/svg" width="24" height="24" viewBox="0 0 24 24" fill='currentColor'><path d="m20.792 22.916-4.608-4.608h2.139V20.5h-2.207v-2H7.885v2H5.769v-2.723Q5.3 17.421 4.9 16.77a2.74 2.74 0 0 1-.4-1.462V6.623L1.28 3.404l1.07-1.069 19.511 19.512zm-1.51-6.48L13.347 10.5H18V6.77H9.615L6.231 3.384q.918-.442 2.343-.664Q9.999 2.5 12 2.5q4.032 0 5.765.809Q19.5 4.12 19.5 6v9.308q0 .29-.06.571-.061.28-.157.558m-10.78-.628q.546 0 .926-.382t.38-.928-.382-.925a1.27 1.27 0 0 0-.928-.38q-.546 0-.926.382-.38.381-.38.928 0 .545.383.925.381.38.927.38M6 10.5h2.377L6 8.123z"/></svg>