<svg xmlns="http://www.w3.org/2000/svg" width="24" height="24" viewBox="0 0 24 24" fill='currentColor'><path d="m4.221 22.75 1.894-8.597h1.208L5.429 22.75zm3.106 0 2.8-14.273-2.377.96v3.313h-1.5V8.453l4.81-2.025q.705-.29 1.369-.1.663.19 1.06.806l.99 1.59q.65 1.05 1.757 1.745 1.109.694 2.514.761v1.5a6.6 6.6 0 0 1-3.006-.817 7.15 7.15 0 0 1-2.37-2.096l-.743 3.76 2.119 2.028v7.145h-1.5v-5.837l-2.504-2.394-1.858 8.23zM13.5 5.346q-.758 0-1.302-.544a1.78 1.78 0 0 1-.544-1.302q0-.759.544-1.302a1.78 1.78 0 0 1 1.302-.545q.758 0 1.302.545.544.543.544 1.302 0 .757-.544 1.302a1.78 1.78 0 0 1-1.302.544m4.154 17.404v-8.597h1.192v8.597z"/></svg>