<svg xmlns="http://www.w3.org/2000/svg" width="24" height="24" viewBox="0 0 24 24" fill='currentColor'><path d="m19.804 21.927-5.177-5.177h-2.56q-.729 0-1.249-.52a1.7 1.7 0 0 1-.52-1.25v-2.559L2.073 4.196l1.054-1.069 17.746 17.746zm-9.756-.158q-1.97 0-3.37-1.4T5.279 17q0-1.786 1.133-3.096t2.887-1.602v1.546q-1.134.277-1.827 1.15A3.13 3.13 0 0 0 6.78 17q0 1.366.952 2.317t2.317.952q1.12 0 2.005-.682.886-.684 1.147-1.837h1.546a4.65 4.65 0 0 1-1.592 2.877q-1.32 1.143-3.106 1.142m2-15.634a1.78 1.78 0 0 1-1.307-.54 1.78 1.78 0 0 1-.539-1.306q0-.768.54-1.307.538-.54 1.306-.54t1.307.54q.54.54.54 1.307t-.54 1.306-1.307.54m6.673 6.596a6.9 6.9 0 0 1-2.603-.662 9 9 0 0 1-2.195-1.461l-.202-.212v.414l-2.973-2.973a1.6 1.6 0 0 1 .518-.414q.305-.157.782-.157.366 0 .768.199.401.198.786.593l1.082 1.204a6.5 6.5 0 0 0 1.818 1.382q1.064.554 2.22.587z"/></svg>