<svg xmlns="http://www.w3.org/2000/svg" width="24" height="24" viewBox="0 0 24 24" fill='currentColor'><path d="M12 15.683a.82.82 0 0 0 .603-.255q.255-.255.255-.603a.82.82 0 0 0-.255-.603.82.82 0 0 0-.603-.255.82.82 0 0 0-.603.255.82.82 0 0 0-.255.603q0 .348.255.603.254.255.603.255m-.596-2.927h1.192q.01-.428.052-.673.043-.246.136-.431.12-.21.317-.436.197-.228.603-.633.505-.506.749-.998.243-.49.243-1.026 0-1.088-.741-1.742-.742-.654-1.917-.654a2.84 2.84 0 0 0-1.67.513q-.732.512-1.026 1.376l1.08.444q.214-.565.634-.868t.982-.303q.619 0 1.043.354t.423.912q0 .444-.193.775-.192.332-.696.77-.386.332-.627.614-.24.282-.365.558-.124.26-.172.588a6 6 0 0 0-.047.86M12 21.509q-3.775-3.27-5.662-6.088-1.886-2.817-1.886-5.173 0-3.462 2.24-5.605Q8.93 2.5 12 2.5t5.309 2.143q2.238 2.144 2.239 5.605 0 2.356-1.887 5.173Q15.775 18.238 12 21.51"/></svg>