<svg xmlns="http://www.w3.org/2000/svg" width="24" height="24" viewBox="0 0 24 24" fill='currentColor'><path d="M12 21.692q-.749 0-1.278-.53a1.74 1.74 0 0 1-.53-1.277h3.616q0 .747-.53 1.277t-1.278.53m-7.5-2.808v-1.5h1.808v-7.46q0-2.017 1.245-3.567a5.52 5.52 0 0 1 3.197-1.983V2.5h2.5v1.873q.658.147 1.227.43.57.285 1.056.668l-2.899 2.883v5.25l5.281 5.28zm13.88-2.643-1.069-1.054a5.6 5.6 0 0 0 1.25-1.909 6.1 6.1 0 0 0 .439-2.3q0-1.2-.439-2.298a5.6 5.6 0 0 0-1.25-1.909l1.07-1.054a7.1 7.1 0 0 1 1.577 2.388q.542 1.353.542 2.874t-.542 2.874a7.1 7.1 0 0 1-1.577 2.388m-2.5-2.485-1.053-1.07a2.2 2.2 0 0 0 .5-.763 2.5 2.5 0 0 0 .173-.944 2.6 2.6 0 0 0-.173-.952 2.2 2.2 0 0 0-.5-.771l1.054-1.054q.544.554.831 1.264.288.71.288 1.513t-.288 1.512a3.9 3.9 0 0 1-.831 1.265"/></svg>