<svg xmlns="http://www.w3.org/2000/svg" width="24" height="24" viewBox="0 0 24 24" fill='currentColor'><path d="m19.804 21.942-2.256-2.256a9.4 9.4 0 0 1-2.63 1.35A9.3 9.3 0 0 1 12 21.5a9.2 9.2 0 0 1-3.703-.749 9.6 9.6 0 0 1-3.016-2.032 9.6 9.6 0 0 1-2.032-3.016A9.2 9.2 0 0 1 2.5 12q0-1.503.463-2.918a9.4 9.4 0 0 1 1.35-2.63L2.058 4.196l1.069-1.069 17.746 17.746zM8.25 16.75h6.361l-1.5-1.5H8.25zm11.735.404-6.268-6.267 2.537-2.537-1.07-1.038-2.52 2.52-5.818-5.816a9.6 9.6 0 0 1 2.466-1.13A9.4 9.4 0 0 1 12 2.5q1.97 0 3.703.749a9.6 9.6 0 0 1 3.016 2.032 9.6 9.6 0 0 1 2.032 3.016q.75 1.734.749 3.703 0 1.38-.387 2.688a9.6 9.6 0 0 1-1.128 2.466"/></svg>