<svg xmlns="http://www.w3.org/2000/svg" width="24" height="24" viewBox="0 0 24 24" fill='currentColor'><path d="m21.123 22.24-2.492-2.482a3.37 3.37 0 0 1-1.881.54 3.43 3.43 0 0 1-2.517-1.04 3.43 3.43 0 0 1-1.04-2.518 3.43 3.43 0 0 1 1.04-2.517 3.43 3.43 0 0 1 2.517-1.04q1.478 0 2.517 1.04a3.43 3.43 0 0 1 1.04 2.517q0 .556-.164 1.054t-.459.92l2.483 2.482zm-4.373-3.442a1.98 1.98 0 0 0 1.451-.607 1.98 1.98 0 0 0 .607-1.45 1.98 1.98 0 0 0-.607-1.451 1.98 1.98 0 0 0-1.451-.607 1.98 1.98 0 0 0-1.451.607 1.98 1.98 0 0 0-.607 1.45q0 .845.607 1.451a1.98 1.98 0 0 0 1.451.607M3.49 21.75V16q0-1.145.803-1.947a2.65 2.65 0 0 1 1.947-.803h2q1.356 0 2.303-.947.948-.948.948-2.303 0-.522-.365-.886a1.2 1.2 0 0 0-.885-.364q-.73 0-1.24-.51-.51-.511-.51-1.24V2.25H13.5v1.529l.471.471q2.762 0 4.645 1.98Q20.5 8.21 20.5 11v1.38a5.9 5.9 0 0 0-1.74-1.028 5.6 5.6 0 0 0-2.01-.361q-2.394 0-4.072 1.677T11 16.74q0 .497.092 1.025.093.53.277.985H9.75q-.522 0-.886.364A1.2 1.2 0 0 0 8.5 20v1.75z"/></svg>