<svg xmlns="http://www.w3.org/2000/svg" width="24" height="24" viewBox="0 0 24 24" fill='currentColor'><path d="M5.29 18.719a9.8 9.8 0 0 1-2.055-3.05q-.725-1.7-.725-3.67 0-1.968.725-3.669A9.8 9.8 0 0 1 5.29 5.28l.853.854a8.4 8.4 0 0 0-1.808 2.671A8.1 8.1 0 0 0 3.702 12q0 1.699.634 3.195a8.4 8.4 0 0 0 1.808 2.67zm2.04-2.039a7 7 0 0 1-1.43-2.124A6.4 6.4 0 0 1 5.394 12q0-1.383.507-2.557a7 7 0 0 1 1.428-2.124l.838.838q-.74.75-1.16 1.721A5.3 5.3 0 0 0 6.587 12q0 1.15.42 2.122.42.97 1.16 1.72zm3.806-.334a2.54 2.54 0 0 0-.421-1.23 20 20 0 0 0-.81-1.14 11 11 0 0 1-.786-1.189 2.7 2.7 0 0 1-.349-1.345q0-1.334.948-2.283A3.1 3.1 0 0 1 12 8.211q1.334 0 2.283.948t.948 2.283q0 .73-.35 1.34-.348.61-.785 1.189-.435.579-.81 1.146-.373.567-.42 1.229zm.019 2.5v-1.308h1.692v1.308zm5.536-2.166-.838-.838a5.6 5.6 0 0 0 1.16-1.721q.42-.972.42-2.122t-.42-2.12a5.6 5.6 0 0 0-1.16-1.722l.838-.838a7 7 0 0 1 1.428 2.124q.507 1.174.507 2.557 0 1.382-.507 2.556a7 7 0 0 1-1.428 2.124m2.039 2.039-.854-.854a8.4 8.4 0 0 0 1.809-2.671 8.1 8.1 0 0 0 .633-3.195 8.1 8.1 0 0 0-.633-3.194 8.4 8.4 0 0 0-1.809-2.67l.854-.855a9.9 9.9 0 0 1 2.05 3.05q.73 1.7.73 3.67 0 1.968-.73 3.669a9.9 9.9 0 0 1-2.05 3.05"/></svg>