<svg xmlns="http://www.w3.org/2000/svg" width="24" height="24" viewBox="0 0 24 24" fill='currentColor'><path d="M7.356 13.038q.096-.327.14-.602.042-.275.042-.598 0-.798-.375-1.367-.375-.57-.85-1.185a7.5 7.5 0 0 1-.888-1.47q-.336-.748-.337-1.803 0-.327.028-.69t.109-.785H6.74a7 7 0 0 0-.124.787 7 7 0 0 0-.028.613q0 .954.388 1.59.387.637.837 1.247.547.725.886 1.42.34.697.34 1.693 0 .293-.036.575-.036.283-.117.575zm3.711 0q.095-.327.14-.602.043-.275.043-.598 0-.798-.375-1.367-.375-.57-.85-1.185a7.4 7.4 0 0 1-.889-1.47Q8.8 7.069 8.8 6.014q0-.327.028-.69t.108-.785h1.516q-.096.46-.137.787-.04.327-.04.613 0 .954.387 1.59.388.637.838 1.247.547.725.886 1.42.339.697.339 1.693 0 .293-.023.575-.023.283-.104.575zm3.712 0q.095-.327.14-.602.042-.275.042-.598 0-.798-.375-1.367-.375-.57-.85-1.185a7.4 7.4 0 0 1-.888-1.47q-.337-.748-.337-1.803 0-.327.029-.69.027-.362.108-.785h1.516q-.097.46-.137.787t-.04.613q0 .954.387 1.59t.837 1.247q.547.725.886 1.42.34.697.34 1.693 0 .293-.024.575-.023.283-.104.575zM12 19.461q-3.513 0-5.988-1.333-2.474-1.332-2.474-3.234 0-.892.646-1.72.645-.828 1.854-1.467v1.73q-.5.349-.75.726t-.25.721q0 1.193 2.127 2.135T12 17.96t4.834-.942q2.128-.942 2.128-2.135 0-.345-.25-.72-.25-.378-.75-.728v-1.729q1.209.639 1.854 1.467.646.828.646 1.72 0 1.902-2.467 3.234T12 19.461"/></svg>