<svg xmlns="http://www.w3.org/2000/svg" width="24" height="24" viewBox="0 0 24 24" fill='currentColor'><path d="M5.692 21.307V13H7.5V8.746L4.196 5.442 7.85 1.798l1.044 1.044-2.59 2.6L9 8.138V13h1.808v8.307zm7.5 0V13H15V9.913a3.54 3.54 0 0 1-2.006-1.219q-.802-.956-.802-2.252 0-1.477 1.04-2.517a3.43 3.43 0 0 1 2.518-1.04q1.478 0 2.517 1.04a3.43 3.43 0 0 1 1.04 2.517q0 1.296-.801 2.252a3.54 3.54 0 0 1-2.006 1.22V13h1.808v8.307zM15.754 8.5q.849 0 1.452-.606a2 2 0 0 0 .602-1.456q0-.849-.604-1.452a1.98 1.98 0 0 0-1.45-.602 2 2 0 0 0-1.455.604 1.97 1.97 0 0 0-.607 1.45q0 .848.606 1.455.605.606 1.456.607"/></svg>