<svg xmlns="http://www.w3.org/2000/svg" width="24" height="24" viewBox="0 0 24 24" fill='currentColor'><path d="M6.164 21.02q-1.326 0-2.254-.93a3.07 3.07 0 0 1-.93-2.253q0-1.326.93-2.254.928-.93 2.254-.93 1.324 0 2.253.93.93.928.93 2.254 0 .53-.168 1.019a3 3 0 0 1-.492.9v-.483a7.6 7.6 0 0 0 1.617.545A8 8 0 0 0 12 20q3.35 0 5.675-2.325T20 12h1.5q0 1.97-.749 3.703a9.6 9.6 0 0 1-2.032 3.016 9.6 9.6 0 0 1-3.016 2.032q-1.734.75-3.703.749-1.096 0-2.142-.238a9 9 0 0 1-2.027-.722 3 3 0 0 1-.804.362q-.423.117-.864.117M12 15.182q-1.325 0-2.254-.93A3.07 3.07 0 0 1 8.817 12q0-1.325.93-2.254.928-.93 2.253-.929 1.325 0 2.254.93.93.928.929 2.253 0 1.325-.93 2.254-.928.93-2.253.929M2.5 12q0-1.97.749-3.703a9.6 9.6 0 0 1 2.032-3.016 9.6 9.6 0 0 1 3.016-2.032A9.2 9.2 0 0 1 12 2.5q1.096 0 2.142.237 1.047.239 2.027.723.381-.235.804-.352a3.2 3.2 0 0 1 .864-.118q1.325 0 2.249.924t.924 2.25q0 1.324-.925 2.253-.924.93-2.248.93-1.326 0-2.254-.93a3.07 3.07 0 0 1-.93-2.253q0-.531.168-1.02.168-.487.492-.9v.483a7.6 7.6 0 0 0-1.617-.545A8 8 0 0 0 12 4Q8.65 4 6.325 6.325T4 12z"/></svg>