<svg xmlns="http://www.w3.org/2000/svg" width="24" height="24" viewBox="0 0 24 24" fill='currentColor'><path d="M12 21.7q-1.083 0-2.513-.283-1.43-.282-2.262-.629a1.03 1.03 0 0 1-.452-.368.95.95 0 0 1-.177-.557v-.817H5.75a.88.88 0 0 1-.644-.26.88.88 0 0 1-.26-.644v-1.38a.88.88 0 0 1 .26-.65.88.88 0 0 1 .644-.258h.846v-2.308H5.75a.88.88 0 0 1-.644-.26.88.88 0 0 1-.26-.644v-1.38a.88.88 0 0 1 .26-.65.88.88 0 0 1 .644-.258h.846V8.142H5.75a.88.88 0 0 1-.644-.26.88.88 0 0 1-.26-.644v-1.38q0-.39.26-.65a.88.88 0 0 1 .644-.258h.846V3.652q0-.45.35-.674.348-.224.762-.063.371.115 1.567.45T12 3.7t2.725-.34 1.567-.454a.78.78 0 0 1 .763.073.75.75 0 0 1 .349.663V4.95h.846q.384 0 .644.26t.26.644v1.38a.88.88 0 0 1-.26.65.88.88 0 0 1-.644.258h-.846v2.212h.846q.384 0 .644.26.26.259.26.644v1.38a.88.88 0 0 1-.26.65.88.88 0 0 1-.644.258h-.846v2.308h.846q.384 0 .644.26.26.259.26.644v1.38a.88.88 0 0 1-.26.65.88.88 0 0 1-.644.258h-.846v.817a.95.95 0 0 1-.177.557 1.03 1.03 0 0 1-.452.368q-.833.346-2.263.63-1.43.282-2.512.282m0-12.6q.95 0 1.97-.175 1.018-.175 1.934-.5V4.6q-.94.276-1.94.437-.999.163-1.969.163-.945 0-1.944-.163A17 17 0 0 1 8.096 4.6v3.825q.9.325 1.927.5T12 9.1m0 5.7q.934 0 1.954-.18t1.95-.52V10q-1.033.28-2.001.44-.969.16-1.903.16a13 13 0 0 1-1.957-.155q-.99-.155-1.947-.445v4.1q.93.34 1.95.52 1.019.18 1.954.18m0 5.4q.95 0 1.97-.175 1.018-.175 1.934-.5V15.7q-.94.275-1.94.437-.999.163-1.969.163-.945 0-1.944-.163a17 17 0 0 1-1.955-.437v3.825a11 11 0 0 0 1.927.5Q11.05 20.2 12 20.2"/></svg>