<svg xmlns="http://www.w3.org/2000/svg" width="24" height="24" viewBox="0 0 24 24" fill='currentColor'><path d="M4.5 20.5v-9.26l-1.867 1.433-.902-1.196L12 3.625l10.27 7.852-.903 1.18L19.5 11.24v9.26zM8 14.884a.85.85 0 0 1-.626-.258.85.85 0 0 1-.259-.626q0-.367.259-.626A.85.85 0 0 1 8 13.116q.367 0 .626.258a.85.85 0 0 1 .258.626.85.85 0 0 1-.258.626.85.85 0 0 1-.626.258m4 0a.85.85 0 0 1-.626-.258.85.85 0 0 1-.258-.626q0-.367.258-.626a.85.85 0 0 1 .626-.258q.368 0 .626.258a.85.85 0 0 1 .258.626.85.85 0 0 1-.258.626.85.85 0 0 1-.626.258m4 0a.85.85 0 0 1-.626-.258.85.85 0 0 1-.258-.626q0-.367.258-.626a.85.85 0 0 1 .626-.258q.367 0 .626.258a.85.85 0 0 1 .258.626.85.85 0 0 1-.258.626.85.85 0 0 1-.626.258"/></svg>