<svg xmlns="http://www.w3.org/2000/svg" width="24" height="24" viewBox="0 0 24 24" fill='currentColor'><path d="M18 19.644 16.956 18.6l1.815-1.85H14.25v-1.5h4.521l-1.815-1.85L18 12.356 21.644 16zm-7.6-8.952 6.85-4.407q0-.03-.015-.27-.014-.243-.038-.517l-.048-.507q-.024-.232-.053-.241h-.154L10.4 8.935 4.042 4.75h-.138q-.03.01-.053.241a30 30 0 0 0-.087 1.047q-.014.248-.014.277zM3.98 16.75q-.716 0-1.223-.507a1.67 1.67 0 0 1-.507-1.224V4.981q0-.717.507-1.224A1.67 1.67 0 0 1 3.98 3.25h13.038q.717 0 1.224.507t.507 1.224v5.33a6.5 6.5 0 0 0-.885-.061q-2.296 0-3.955 1.647-1.66 1.646-1.66 3.968a6 6 0 0 0 .062.885z"/></svg>