<svg xmlns="http://www.w3.org/2000/svg" width="24" height="24" viewBox="0 0 24 24" fill='currentColor'><path d="M3.5 8.923V3.5h17v5.423zm0 11.577V9.808h17V20.5zM8 7.192q.424 0 .713-.287A.97.97 0 0 0 9 6.192a.97.97 0 0 0-.287-.712A.97.97 0 0 0 8 5.192a.97.97 0 0 0-.713.288.97.97 0 0 0-.287.712q0 .425.287.713.288.287.713.287m2.192 6.423h3.616V12h-3.616zM12 7.192q.424 0 .713-.287A.97.97 0 0 0 13 6.192a.97.97 0 0 0-.287-.712.97.97 0 0 0-.713-.288.97.97 0 0 0-.713.288.97.97 0 0 0-.287.712q0 .425.287.713.288.287.713.287m4 0q.424 0 .712-.287A.97.97 0 0 0 17 6.192a.97.97 0 0 0-.288-.712.97.97 0 0 0-.712-.288.97.97 0 0 0-.713.288.97.97 0 0 0-.287.712q0 .425.287.713.288.287.713.287"/></svg>