<svg xmlns="http://www.w3.org/2000/svg" width="24" height="24" viewBox="0 0 24 24" fill='currentColor'><path d="M6.587 21.394a3.03 3.03 0 0 1-2.225-.92 3.03 3.03 0 0 1-.92-2.224v-7.781q-.626-.602-1.313-1.255T1.442 7.65q0-.579.411-.99.41-.41.99-.41.409 0 .751.213.343.213.598.537.255-.324.599-.537.342-.213.751-.213.579 0 .99.41.41.411.41.99 0 .911-.686 1.564-.687.653-1.314 1.255v7.78q0 .684.481 1.164.48.48 1.164.48t1.163-.48.48-1.163v-11q0-1.96 1.377-3.336 1.376-1.376 3.335-1.376t3.336 1.376 1.376 3.336v.32a4.37 4.37 0 0 1 2.68 1.507q1.07 1.242 1.07 2.923v5q0 1.872-1.314 3.186-1.312 1.314-3.186 1.314t-3.187-1.314T12.404 17v-5q0-1.68 1.07-2.923a4.37 4.37 0 0 1 2.68-1.506V7.25q0-1.337-.938-2.274a3.1 3.1 0 0 0-2.274-.938q-1.336 0-2.274.938a3.1 3.1 0 0 0-.937 2.274v11a3.03 3.03 0 0 1-.92 2.225 3.03 3.03 0 0 1-2.224.919m10.317-6.144q-.73 0-1.24.51t-.51 1.24q0 .728.51 1.24.51.51 1.24.51.729 0 1.24-.51.51-.512.51-1.24 0-.73-.51-1.24-.511-.51-1.24-.51"/></svg>