<svg xmlns="http://www.w3.org/2000/svg" width="24" height="24" viewBox="0 0 24 24" fill='currentColor'><path d="M12 21.5q-1.972 0-3.705-.748a9.6 9.6 0 0 1-3.016-2.03 9.6 9.6 0 0 1-2.03-3.016 9.25 9.25 0 0 1-.749-3.704q0-1.972.748-3.706a9.6 9.6 0 0 1 2.03-3.016 9.6 9.6 0 0 1 3.016-2.032 9.25 9.25 0 0 1 3.704-.748q1.972 0 3.706.748a9.6 9.6 0 0 1 3.017 2.03 9.6 9.6 0 0 1 2.03 3.017A9.25 9.25 0 0 1 21.5 12q0 .675-.085 1.325a8 8 0 0 1-.269 1.275 3 3 0 0 0-.615-.487 2.4 2.4 0 0 0-.748-.284 7 7 0 0 0 .165-.897A8 8 0 0 0 20 12q0-3.35-2.325-5.675T12 4 6.325 6.325 4 12t2.325 5.675T12 20q1.314 0 2.5-.395a8.2 8.2 0 0 0 2.18-1.107q.234.309.546.558.312.247.678.394a9.6 9.6 0 0 1-2.713 1.509A9.3 9.3 0 0 1 12 21.5m7.106-3.75a.97.97 0 0 1-.71-.29.97.97 0 0 1-.29-.71q0-.42.29-.71a.96.96 0 0 1 .71-.29q.42 0 .71.29t.29.71-.29.71a.96.96 0 0 1-.71.29m-3.633-1.223-4.223-4.223V7h1.5v4.696l3.777 3.777z"/></svg>