<svg xmlns="http://www.w3.org/2000/svg" width="24" height="24" viewBox="0 0 24 24" fill='currentColor'><path d="M12 16.846q-.758 0-1.302-.544A1.78 1.78 0 0 1 10.154 15q0-.758.544-1.302A1.78 1.78 0 0 1 12 13.154q.758 0 1.302.544T13.846 15t-.544 1.302a1.78 1.78 0 0 1-1.302.544M9.25 23.75v-3.475q-2.087-.657-3.014-2.29-.928-1.63-.976-3.735h1.5q.058 2.535 1.39 3.767Q9.483 19.25 12 19.25t3.85-1.233q1.332-1.232 1.39-3.767h1.5q-.048 2.104-.975 3.735-.93 1.633-3.015 2.29v3.475zM5.144 12.942 3.067 7.973q-.24.114-.545.286-.304.174-.522.174a.73.73 0 0 1-.53-.216.72.72 0 0 1-.22-.534V4.25q0-1.641 3.11-2.82Q7.47.25 12 .25t7.64 1.18 3.11 2.82v3.433a.72.72 0 0 1-.22.534.73.73 0 0 1-.53.216q-.218 0-.522-.174a8 8 0 0 0-.545-.286l-2.077 4.97H17.21l-1.509-6.44a23 23 0 0 0-1.844-.194 29 29 0 0 0-3.716 0q-.923.06-1.844.195l-1.51 6.438zm.731-1.307 1.14-4.93q-.806.17-1.469.35t-1.373.462zm12.25-.016 1.702-4.102a16 16 0 0 0-1.378-.458q-.658-.184-1.465-.353z"/></svg>