<svg xmlns="http://www.w3.org/2000/svg" width="24" height="24" viewBox="0 0 24 24" fill='currentColor'><path d="M2.5 20.5v-15h4.862l1.85-2h5.577l1.85 2H21.5v15zm9.5-3.385q1.722 0 2.918-1.197 1.197-1.196 1.197-2.918 0-.125-.007-.25a1.2 1.2 0 0 0-.043-.25h-1.5a.7.7 0 0 1 .05.25V13q0 1.097-.758 1.857-.759.759-1.857.759H8.923q.475.66 1.29 1.08.814.42 1.787.42M7.935 13.5h1.5a.7.7 0 0 1-.05-.25V13q0-1.097.758-1.857.759-.759 1.857-.759h3.077A3.9 3.9 0 0 0 13.773 9.3 3.75 3.75 0 0 0 12 8.885q-1.722 0-2.918 1.197Q7.885 11.278 7.885 13q0 .125.007.25.008.125.043.25"/></svg>