<svg xmlns="http://www.w3.org/2000/svg" width="24" height="24" viewBox="0 0 24 24" fill='currentColor'><path d="M6.289 19.52a3.58 3.58 0 0 1-2.623-1.089 3.58 3.58 0 0 1-1.089-2.623q0-1.497 1.06-2.556a3.48 3.48 0 0 1 2.555-1.06q1.076 0 1.982.583a3.4 3.4 0 0 1 1.328 1.583l.317.748h.812q.924 0 1.55.639.627.637.627 1.563t-.643 1.568a2.13 2.13 0 0 1-1.569.643zm8.465-2.762a4 4 0 0 0-1.171-2.436 4.02 4.02 0 0 0-2.444-1.175 5.35 5.35 0 0 0-1.819-2.004 5.8 5.8 0 0 0-2.58-.912 5.33 5.33 0 0 1 2.019-2.71A5.5 5.5 0 0 1 12 6.5q2.289 0 3.894 1.605Q17.5 9.712 17.5 12q0 1.48-.733 2.748a5.43 5.43 0 0 1-2.013 2.01M11.25 5.212V1.52h1.5v3.692zm6.073 2.519-1.054-1.063 2.598-2.63 1.07 1.08zm1.465 5.02v-1.5h3.693v1.5zm.08 7.201-2.599-2.629 1.064-1.063 2.629 2.598zM6.686 7.741 4.054 5.108l1.088-1.05 2.599 2.629z"/></svg>