<svg xmlns="http://www.w3.org/2000/svg" width="24" height="24" viewBox="0 0 24 24" fill='currentColor'><path d="M3.5 19.5v-2.223q0-.735.399-1.36a2.66 2.66 0 0 1 1.066-.963 14.5 14.5 0 0 1 2.992-1.09A13 13 0 0 1 11 13.5a12 12 0 0 1 2.106.188 5 5 0 0 0 .52 2.42A5.15 5.15 0 0 0 15.225 18v1.5zm15.346 2.692-1.334-1.328v-4.119a3.04 3.04 0 0 1-1.596-1.099 3 3 0 0 1-.618-1.867q0-1.287.91-2.196a3 3 0 0 1 2.196-.91q1.286 0 2.191.91.905.911.905 2.197 0 .999-.56 1.768-.561.769-1.43 1.106l1.105 1.105-1.326 1.33 1.326 1.33zM11 11.884q-1.444 0-2.472-1.027Q7.5 9.828 7.5 8.385t1.028-2.472T11 4.885t2.472 1.028T14.5 8.385t-1.028 2.472T11 11.884m7.404 2.337a.85.85 0 0 0 .626-.263.87.87 0 0 0 .258-.631.85.85 0 0 0-.258-.626.85.85 0 0 0-.626-.259.87.87 0 0 0-.631.259.85.85 0 0 0-.264.626.86.86 0 0 0 .264.63.86.86 0 0 0 .63.264"/></svg>