<svg xmlns="http://www.w3.org/2000/svg" width="24" height="24" viewBox="0 0 24 24" fill='currentColor'><path d="M6.999 13.25q.52 0 .886-.364.365-.365.365-.885t-.364-.885A1.2 1.2 0 0 0 7 10.75q-.52 0-.886.364A1.2 1.2 0 0 0 5.75 12q0 .52.364.885.364.366.885.366m5 0q.52 0 .885-.364.366-.365.366-.885t-.364-.885A1.2 1.2 0 0 0 12 10.75q-.52 0-.885.364a1.2 1.2 0 0 0-.366.885q0 .52.364.885.365.366.885.366m5 0q.52 0 .886-.364.365-.365.365-.885t-.364-.885A1.2 1.2 0 0 0 17 10.75q-.52 0-.886.364a1.2 1.2 0 0 0-.365.885q0 .52.364.885.364.366.885.366m-4.997 8.25a9.3 9.3 0 0 1-3.706-.748 9.6 9.6 0 0 1-3.016-2.03 9.6 9.6 0 0 1-2.032-3.016 9.25 9.25 0 0 1-.748-3.704q0-1.972.748-3.706a9.6 9.6 0 0 1 2.03-3.016 9.6 9.6 0 0 1 3.016-2.032 9.25 9.25 0 0 1 3.704-.748q1.972 0 3.706.748a9.6 9.6 0 0 1 3.017 2.03 9.6 9.6 0 0 1 2.03 3.016 9.25 9.25 0 0 1 .749 3.704q0 1.972-.748 3.706a9.6 9.6 0 0 1-2.03 3.017 9.6 9.6 0 0 1-3.016 2.03 9.25 9.25 0 0 1-3.704.749"/></svg>