<svg xmlns="http://www.w3.org/2000/svg" width="24" height="24" viewBox="0 0 24 24" fill='currentColor'><path d="M7.664 10.817q-1.311 0-2.237-.927A3.05 3.05 0 0 1 4.5 7.653q0-1.31.926-2.237a3.05 3.05 0 0 1 2.238-.926q1.31 0 2.236.926.927.927.927 2.237T9.9 9.89a3.05 3.05 0 0 1-2.237.927m-.001-1.5q.693 0 1.178-.485.486-.485.486-1.178t-.485-1.178a1.6 1.6 0 0 0-1.178-.486q-.693 0-1.178.485A1.6 1.6 0 0 0 6 7.653q0 .693.485 1.178.485.486 1.178.486M16.346 19.5q-1.311 0-2.237-.927a3.05 3.05 0 0 1-.926-2.237q0-1.31.926-2.237a3.05 3.05 0 0 1 2.237-.926q1.311 0 2.237.926.927.927.927 2.237t-.927 2.237a3.05 3.05 0 0 1-2.237.927m0-1.5q.692 0 1.178-.485t.485-1.178q0-.693-.485-1.178a1.6 1.6 0 0 0-1.177-.486q-.693 0-1.179.485a1.6 1.6 0 0 0-.485 1.178q0 .692.485 1.178t1.178.486M5.64 19.404l-1.045-1.045L18.37 4.586l1.044 1.044z"/></svg>