<svg xmlns="http://www.w3.org/2000/svg" width="24" height="24" viewBox="0 0 24 24" fill='currentColor'><path d="M18.712 20.02a2 2 0 0 0 1.465-.612 2 2 0 0 0 .611-1.466q0-.853-.611-1.465a2 2 0 0 0-1.465-.612q-.855 0-1.466.612a2 2 0 0 0-.611 1.465q0 .855.611 1.466a2 2 0 0 0 1.466.611m-.75 2.364-.204-1.192a3.7 3.7 0 0 1-.75-.296 3 3 0 0 1-.62-.457l-1.142.392-.769-1.258.92-.788a3.34 3.34 0 0 1 0-1.685l-.92-.789.77-1.257 1.142.392q.303-.296.619-.462.315-.166.75-.292l.204-1.192h1.5l.203 1.192q.435.125.75.292t.62.462l1.142-.392.769 1.257-.92.789a3.34 3.34 0 0 1 0 1.685l.92.788-.77 1.258-1.141-.392a3 3 0 0 1-.62.457q-.315.171-.75.296l-.203 1.192zM2.5 21.5l19-19v9.41a5.7 5.7 0 0 0-1.361-.459 7 7 0 0 0-1.437-.153q-2.781 0-4.725 1.937-1.944 1.935-1.944 4.717 0 .942.257 1.85.256.907.766 1.698z"/></svg>