<svg xmlns="http://www.w3.org/2000/svg" width="24" height="24" viewBox="0 0 24 24" fill='currentColor'><path d="M14.116 20.5v-2.642l6.267-6.242 2.632 2.626-6.257 6.258zM4.5 19.308v-2.223q0-.735.399-1.36a2.66 2.66 0 0 1 1.066-.963 14.5 14.5 0 0 1 2.992-1.09 13 13 0 0 1 4.632-.266q.79.097 1.584.3l-3.25 3.24v2.362zm15.883-4.1.925-.966-.925-.934-.95.95zM12 11.692q-1.448 0-2.474-1.026A3.37 3.37 0 0 1 8.5 8.192q0-1.448 1.026-2.474A3.37 3.37 0 0 1 12 4.692q1.448 0 2.474 1.026A3.37 3.37 0 0 1 15.5 8.192q0 1.448-1.026 2.474A3.37 3.37 0 0 1 12 11.692"/></svg>