<svg xmlns="http://www.w3.org/2000/svg" width="24" height="24" viewBox="0 0 24 24" fill='currentColor'><path d="m5.635 12.189-3.42-3.42 3.42-3.41 3.41 3.41zm3.77 9.311v-4.798a47 47 0 0 1-2.973-.343 28 28 0 0 1-2.932-.6l.366-1.5q2.013.528 4.033.735 2.02.208 4.1.208t4.101-.208a27 27 0 0 0 4.035-.734l.365 1.5q-1.456.38-2.932.599t-2.972.343V21.5zM12 7.192a2.56 2.56 0 0 1-1.88-.774 2.56 2.56 0 0 1-.774-1.88q0-1.105.774-1.88A2.56 2.56 0 0 1 12 1.886a2.56 2.56 0 0 1 1.88.774 2.56 2.56 0 0 1 .774 1.88 2.56 2.56 0 0 1-.774 1.88 2.56 2.56 0 0 1-1.88.773m0 6.702q-.761 0-1.304-.542a1.78 1.78 0 0 1-.542-1.304q0-.762.542-1.304A1.78 1.78 0 0 1 12 10.202q.762 0 1.304.542t.542 1.304-.542 1.304a1.78 1.78 0 0 1-1.304.542m5.021-1.971-1.507-2.654 1.507-2.653h2.987l1.507 2.653-1.507 2.654z"/></svg>