<svg xmlns="http://www.w3.org/2000/svg" width="24" height="24" viewBox="0 0 24 24" fill='currentColor'><path d="M12 12.692q-1.448 0-2.474-1.026A3.37 3.37 0 0 1 8.5 9.192V6.067q0-.548.38-.932.38-.385.928-.385a1.3 1.3 0 0 1 1.096.588q.18-.276.47-.432A1.3 1.3 0 0 1 12 4.75a1.3 1.3 0 0 1 1.096.588q.18-.276.47-.432a1.3 1.3 0 0 1 .626-.156q.549 0 .928.385.38.384.38.932v3.125a3.37 3.37 0 0 1-1.026 2.474A3.37 3.37 0 0 1 12 12.692m-7.5 7.616v-2.224q0-.735.399-1.36a2.66 2.66 0 0 1 1.066-.963 14.5 14.5 0 0 1 2.992-1.09 12.95 12.95 0 0 1 6.086 0q1.509.364 2.992 1.09.667.338 1.066.963t.399 1.36v2.224z"/></svg>