<svg xmlns="http://www.w3.org/2000/svg" width="24" height="24" viewBox="0 0 24 24" fill='currentColor'><path d="M12 9.827q-1.444 0-2.472-1.028T8.5 6.327t1.028-2.472T12 2.827t2.472 1.028Q15.5 4.884 15.5 6.327T14.472 8.8 12 9.827m-2 9.654a.87.87 0 0 1-.643-.26.88.88 0 0 1-.26-.644q0-.383.26-.643a.88.88 0 0 1 .644-.26h2.245l-.873 1.807zm-5.5 1.5v-5.938q0-.745.396-1.366.396-.62 1.07-.973A14.2 14.2 0 0 1 8.9 11.625a13 13 0 0 1 3.1-.375q.789 0 1.58.094.791.095 1.545.298l-2.175 4.531H10a2.32 2.32 0 0 0-1.704.7 2.32 2.32 0 0 0-.7 1.704q0 1.006.7 1.705A2.32 2.32 0 0 0 10 20.98zm12.094 0v-8.883q.375.125.733.278.357.153.707.328.675.353 1.07.974.396.623.396 1.364v4.131q0 .746-.531 1.277a1.74 1.74 0 0 1-1.277.53z"/></svg>