<svg xmlns="http://www.w3.org/2000/svg" width="24" height="24" viewBox="0 0 24 24" fill='currentColor'><path d="M17.4 12.654 16.346 11.6l2.085-2.1-2.085-2.075 1.054-1.07 2.1 2.1 2.075-2.1 1.07 1.07L20.553 9.5l2.09 2.1-1.069 1.054-2.075-2.075zM9 11.692q-1.448 0-2.474-1.026A3.37 3.37 0 0 1 5.5 8.192q0-1.448 1.026-2.474A3.37 3.37 0 0 1 9 4.692q1.448 0 2.474 1.026A3.37 3.37 0 0 1 12.5 8.192q0 1.448-1.026 2.474A3.37 3.37 0 0 1 9 11.692m-7.5 7.616v-2.223q0-.735.399-1.36a2.66 2.66 0 0 1 1.067-.963 14.5 14.5 0 0 1 2.99-1.09 12.95 12.95 0 0 1 6.087 0q1.509.363 2.992 1.09.667.336 1.066.962.399.627.399 1.36v2.224z"/></svg>