<svg xmlns="http://www.w3.org/2000/svg" width="24" height="24" viewBox="0 0 24 24" fill='currentColor'><path d="M12 2.923q1.092 0 1.835.788.742.79.742 1.88v.474a6.56 6.56 0 0 1 2.82 2.308Q18.5 9.942 18.5 12v3.861L9.423 6.765V5.5q0-1.077.75-1.827T12 2.923m0 1.5a1.04 1.04 0 0 0-.765.311 1.04 1.04 0 0 0-.312.766v.119q.285-.06.538-.09.255-.03.539-.03t.539.03q.253.03.538.09v-.12a1.04 1.04 0 0 0-.312-.765A1.04 1.04 0 0 0 12 4.423m8.146 18.023-3.769-3.754H18.5V21.5h-13V12q0-.9.227-1.728a5.5 5.5 0 0 1 .68-1.534L2.132 4.43l1.054-1.053L21.2 21.392zM9.92 12.25H8.25v1.5h3.17z"/></svg>