<svg xmlns="http://www.w3.org/2000/svg" width="24" height="24" viewBox="0 0 24 24" fill='currentColor'><path d="M17.846 21.5q-1.67-.41-2.662-1.84a5.45 5.45 0 0 1-.992-3.177v-2.34l3.654-1.835 3.654 1.836v2.34q0 1.745-.991 3.175-.992 1.43-2.663 1.841M4.5 19.308v-2.223q0-.735.399-1.36a2.66 2.66 0 0 1 1.066-.963 14.5 14.5 0 0 1 2.992-1.09A13 13 0 0 1 12 13.307v3.175q0 .733.134 1.446.135.713.43 1.379zm7.5-7.616q-1.444 0-2.472-1.028T8.5 8.192t1.028-2.471T12 4.692t2.472 1.029T15.5 8.192t-1.028 2.472T12 11.692"/></svg>