<svg xmlns="http://www.w3.org/2000/svg" width="24" height="24" viewBox="0 0 24 24" fill='currentColor'><path d="M12 14.75q1.266 0 2.299-.601 1.034-.6 1.665-1.591a6.2 6.2 0 0 0-1.836-.973A6.7 6.7 0 0 0 12 11.25a6.7 6.7 0 0 0-2.128.335 6.2 6.2 0 0 0-1.835.973q.63.99 1.664 1.591 1.034.6 2.299.601m0-5q.729 0 1.24-.51.51-.511.51-1.24t-.51-1.24T12 6.25t-1.24.51q-.51.511-.51 1.24t.51 1.24 1.24.51m0 11.76q-3.776-3.271-5.661-6.089-1.887-2.817-1.887-5.173 0-3.462 2.24-5.605Q8.93 2.5 12 2.5t5.309 2.143 2.239 5.605q0 2.356-1.886 5.173Q15.775 18.238 12 21.51"/></svg>