<svg xmlns="http://www.w3.org/2000/svg" width="24" height="24" viewBox="0 0 24 24" fill='currentColor'><path d="m19.483 22.062-3.108-3.108v.354h-15v-2.223q0-.735.399-1.36a2.66 2.66 0 0 1 1.067-.963 14.5 14.5 0 0 1 2.99-1.09 13 13 0 0 1 3.044-.364q.527 0 1.046.056.52.056 1.04.177l-1.857-1.858a.6.6 0 0 1-.11.01h-.119q-1.444 0-2.472-1.028T5.375 8.192v-.119q0-.06.01-.11l-3.571-3.57 1.069-1.07 17.669 17.67zm-1.358-8.312v-3h-3v-1.5h3v-3h1.5v3h3v1.5h-3v3zm-6.073-4.108L7.425 5.016q.327-.162.698-.243t.752-.08q1.444 0 2.472 1.028t1.028 2.471q0 .383-.08.753-.082.371-.243.697"/></svg>