<svg xmlns="http://www.w3.org/2000/svg" width="24" height="24" viewBox="0 0 24 24" fill='currentColor'><path d="M9.804 11.692q-.689 0-1.144-.511a1.43 1.43 0 0 1-.36-1.2l.316-2.421a3.17 3.17 0 0 1 1.136-2.055A3.4 3.4 0 0 1 12 4.692q1.282 0 2.248.813a3.17 3.17 0 0 1 1.136 2.055l.316 2.42q.096.69-.36 1.2a1.47 1.47 0 0 1-1.144.512zM4.5 19.308v-2.223q0-.735.399-1.36a2.66 2.66 0 0 1 1.066-.963 14.5 14.5 0 0 1 2.992-1.09 12.95 12.95 0 0 1 6.086 0q1.509.363 2.992 1.09.667.336 1.066.962.399.627.399 1.36v2.224z"/></svg>