<svg xmlns="http://www.w3.org/2000/svg" width="24" height="24" viewBox="0 0 24 24" fill='currentColor'><path d="M20 10.865a.84.84 0 0 1-.616-.248.84.84 0 0 1-.25-.617q0-.367.25-.616a.84.84 0 0 1 .616-.25q.367 0 .616.25a.84.84 0 0 1 .25.616q0 .367-.25.616a.84.84 0 0 1-.616.25m-.75-3.115v-4.5h1.5v4.5zM9 11.692q-1.444 0-2.472-1.028T5.5 8.192t1.028-2.471T9 4.692t2.472 1.029T12.5 8.192t-1.028 2.472T9 11.692m-7.5 7.616v-2.224q0-.735.399-1.36a2.66 2.66 0 0 1 1.067-.963 14.5 14.5 0 0 1 2.99-1.09 12.95 12.95 0 0 1 6.087 0q1.509.364 2.992 1.09.667.338 1.066.963t.399 1.36v2.224z"/></svg>