<svg xmlns="http://www.w3.org/2000/svg" width="24" height="24" viewBox="0 0 24 24" fill='currentColor'><path d="m19.804 21.942-2.635-2.634H4.5v-2.224q0-.735.399-1.36a2.66 2.66 0 0 1 1.066-.963 14 14 0 0 1 2.461-.944 14 14 0 0 1 2.497-.448h.159q.081 0 .159.01L2.058 4.196l1.069-1.069 17.746 17.746zm-1.558-7.075q.446.216.708.654.26.439.277.946l-2.062-2.061q.277.107.546.215.27.108.531.246M13.94 11.11 9.083 6.253A3.46 3.46 0 0 1 12 4.692q1.448 0 2.474 1.026A3.37 3.37 0 0 1 15.5 8.192a3.46 3.46 0 0 1-1.56 2.918"/></svg>