<svg xmlns="http://www.w3.org/2000/svg" width="24" height="24" viewBox="0 0 24 24" fill='currentColor'><path d="M9.404 20.5v-4.789a45 45 0 0 1-2.986-.332 25 25 0 0 1-2.918-.61l.365-1.5a26 26 0 0 0 4.021.735 40.4 40.4 0 0 0 8.202 0 26.6 26.6 0 0 0 4.046-.735l.366 1.5q-1.47.396-2.94.612-1.467.215-2.964.335V20.5zm2.597-7.596a1.8 1.8 0 0 1-1.315-.53 1.78 1.78 0 0 1-.532-1.314q0-.76.53-1.304a1.76 1.76 0 0 1 1.313-.545q.76 0 1.305.543.544.54.544 1.302 0 .785-.542 1.316a1.8 1.8 0 0 1-1.303.532M4.75 10a1.2 1.2 0 0 1-.892-.358 1.2 1.2 0 0 1-.358-.894q0-.518.358-.882a1.2 1.2 0 0 1 .895-.366q.516 0 .882.364Q6 8.23 6 8.75q0 .535-.364.892A1.22 1.22 0 0 1 4.75 10m14.5 0a1.2 1.2 0 0 1-.892-.358A1.2 1.2 0 0 1 18 8.748q0-.518.358-.882a1.2 1.2 0 0 1 .895-.366q.516 0 .881.364.366.366.366.886 0 .535-.364.892a1.22 1.22 0 0 1-.886.358M7.346 6.298q-.535 0-.892-.357a1.22 1.22 0 0 1-.358-.896q0-.516.358-.881a1.2 1.2 0 0 1 .895-.366q.516 0 .882.365.365.365.365.885a1.2 1.2 0 0 1-.364.893 1.22 1.22 0 0 1-.886.357m9.308 0q-.535 0-.893-.357a1.2 1.2 0 0 1-.357-.896q0-.516.357-.881a1.2 1.2 0 0 1 .896-.366q.516 0 .881.365.366.365.366.885a1.2 1.2 0 0 1-.365.893 1.22 1.22 0 0 1-.885.357M12 5q-.535 0-.892-.358a1.2 1.2 0 0 1-.358-.895q0-.516.358-.881.357-.366.895-.366.516 0 .881.365.366.365.366.885 0 .534-.364.892A1.22 1.22 0 0 1 12 5"/></svg>