<svg xmlns="http://www.w3.org/2000/svg" width="24" height="24" viewBox="0 0 24 24" fill='currentColor'><path d="M10 13.692q-1.048 0-1.774-.735a2.42 2.42 0 0 1-.726-1.765q0-.616.242-1.023.242-.405.458-.873-.062-.269-.13-.544a2.3 2.3 0 0 1-.07-.56q0-.795.43-1.418.432-.622 1.218-.953.442-.479 1.002-.804T12 4.692q.81 0 1.36.335t.992.794q.786.33 1.217.953.43.623.431 1.418 0 .285-.07.56-.068.275-.13.544.215.468.458.873.242.406.242 1.023 0 1.029-.726 1.765a2.4 2.4 0 0 1-1.774.735zm-5.5 7.616v-2.223q0-.735.399-1.36a2.66 2.66 0 0 1 1.066-.963 14.5 14.5 0 0 1 2.992-1.09 12.95 12.95 0 0 1 6.086 0q1.509.363 2.992 1.09.667.336 1.066.962.399.627.399 1.36v2.224z"/></svg>