<svg xmlns="http://www.w3.org/2000/svg" width="24" height="24" viewBox="0 0 24 24" fill='currentColor'><path d="M9.5 21.5q-1.273 0-2.136-.863Q6.5 19.773 6.5 18.5q0-.34.01-.557.009-.216-.114-.34a.46.46 0 0 0-.34-.122H5.5q-1.273 0-2.136-.854T2.5 14.5t.864-2.136Q4.226 11.5 5.5 11.5q.489 0 .906.126t.756.378q.135.106.312.106.178 0 .303-.125l4.17-4.17a.5.5 0 0 0 .144-.317.47.47 0 0 0-.087-.336 2.8 2.8 0 0 1-.373-.761A3 3 0 0 1 11.5 5.5q0-1.273.864-2.136.862-.864 2.136-.864 1.272 0 2.137.864.863.862.863 2.136 0 .34-.01.557a.43.43 0 0 0 .114.34q.123.123.34.113.215-.01.556-.01 1.272 0 2.137.864.863.862.863 2.136 0 1.273-.863 2.137-.864.863-2.137.863a2.8 2.8 0 0 1-1.662-.504.5.5 0 0 0-.326-.081.47.47 0 0 0-.308.139l-4.15 4.15a.48.48 0 0 0-.145.293q-.019.168.068.322.232.348.378.77.145.422.145.911 0 1.272-.864 2.137-.862.863-2.136.863"/></svg>