<svg xmlns="http://www.w3.org/2000/svg" width="24" height="24" viewBox="0 0 24 24" fill='currentColor'><path d="M14.73 10.154v-4.77h1v-1q0-.786.55-1.335a1.82 1.82 0 0 1 1.335-.549q.787 0 1.336.549t.549 1.336v1h1v4.769zm1.885-4.77h2v-1a.97.97 0 0 0-.287-.712.97.97 0 0 0-.713-.287.97.97 0 0 0-.712.287.97.97 0 0 0-.288.713zm2.96 15.116q-2.913 0-5.803-1.297t-5.279-3.691q-2.39-2.395-3.691-5.286Q3.5 7.334 3.5 4.425V3.5h5.17l.886 4.554-2.773 2.692q.617 1.08 1.32 2.009.704.927 1.49 1.697.762.783 1.697 1.479t2.08 1.338l2.755-2.803 4.375.89V20.5z"/></svg>