<svg xmlns="http://www.w3.org/2000/svg" width="24" height="24" viewBox="0 0 24 24" fill='currentColor'><path d="M19.039 11.7q-.087-2.877-2.096-4.885-2.008-2.01-4.885-2.095v-1.5a8.4 8.4 0 0 1 3.277.717 8.8 8.8 0 0 1 2.667 1.82q1.14 1.14 1.819 2.666a8.4 8.4 0 0 1 .717 3.278zm-4 0a3.14 3.14 0 0 0-.933-2.053 3.08 3.08 0 0 0-2.048-.927v-1.5q1.824.076 3.11 1.366a4.58 4.58 0 0 1 1.37 3.114zm4.536 8.8q-2.913 0-5.803-1.297-2.889-1.296-5.283-3.691-2.385-2.394-3.687-5.286Q3.5 7.336 3.5 4.427V3.5h5.17l.886 4.554-2.773 2.693q.617 1.08 1.32 2.008.704.929 1.49 1.697.762.783 1.697 1.48.935.695 2.08 1.338l2.755-2.804 4.375.89V20.5z"/></svg>