<svg xmlns="http://www.w3.org/2000/svg" width="24" height="24" viewBox="0 0 24 24" fill='currentColor'><path d="M4.096 21.792 2.327 7.869l2.789-.323v11.338h13.173l.136 1.122zm3.02-4.908V2.5h7.75q-.2.452-.293.913a4.8 4.8 0 0 0-.002 1.862q.09.46.283.879a1.4 1.4 0 0 0-.546-.115q-1.083 0-1.84.764a2.5 2.5 0 0 0-.757 1.831q0 1.083.757 1.84a2.5 2.5 0 0 0 1.84.756 2.5 2.5 0 0 0 1.716-.649q.726-.649.849-1.639a.6.6 0 0 0-.02-.154l-.038-.154a4.9 4.9 0 0 0 2.746.833 5 5 0 0 0 .98-.095q.488-.096.959-.295v7.807zm1.788-1.5h10.808v-.492a7.9 7.9 0 0 0-2.493-1.654 7.5 7.5 0 0 0-2.911-.584 7.45 7.45 0 0 0-2.92.584 8 8 0 0 0-2.484 1.654zm8.569-8.72 1.621-4.559h.975l1.637 4.558h-.921l-.346-.985h-1.724l-.326.985zm1.473-1.659h1.271l-.64-2.011z"/></svg>