<svg xmlns="http://www.w3.org/2000/svg" width="24" height="24" viewBox="0 0 24 24" fill='currentColor'><path d="M9.077 13.846h9.346L15.319 9.77l-2.377 3.039-1.569-1.942zM8.057 17.5q-.756 0-1.282-.525a1.75 1.75 0 0 1-.525-1.283V4.308q0-.758.525-1.283T8.058 2.5h11.384q.758 0 1.283.525t.525 1.283v11.384q0 .758-.525 1.283t-1.283.525zm0-1.5h11.385a.3.3 0 0 0 .212-.096.3.3 0 0 0 .096-.212V4.308a.3.3 0 0 0-.096-.212.3.3 0 0 0-.212-.096H8.058a.3.3 0 0 0-.212.096.3.3 0 0 0-.096.212v11.384q0 .116.096.212a.3.3 0 0 0 .212.096m-3.5 5q-.756 0-1.282-.525a1.75 1.75 0 0 1-.525-1.283V6.308h1.5v12.884q0 .116.096.212a.3.3 0 0 0 .212.096h12.884V21zm3.5-17h11.385q.116 0 .212.096a.3.3 0 0 1 .096.212v11.384a.3.3 0 0 1-.096.212.3.3 0 0 1-.212.096H8.058a.3.3 0 0 1-.212-.096.3.3 0 0 1-.096-.212V4.308q0-.116.096-.212A.3.3 0 0 1 8.058 4"/></svg>