<svg xmlns="http://www.w3.org/2000/svg" width="24" height="24" viewBox="0 0 24 24" fill='currentColor'><path d="M15.712 16.192H9.279q-.49 0-.8.3-.309.3-.373.687a1.23 1.23 0 0 0 .113.755q.18.372.652.543l5.571 2.207q.23.09.454.063a.9.9 0 0 0 .404-.153 1 1 0 0 0 .296-.323.9.9 0 0 0 .115-.448zM10 3q1.444 0 2.472 1.028T13.5 6.5t-1.028 2.472T10 10 7.528 8.972 6.5 6.5t1.028-2.472Q8.557 3 10 3m9.033 8.192q.6 0 1.033.405.434.405.434 1.007 0 .488-.276.876a1.5 1.5 0 0 1-.741.55l-2.271.662H9.279q-1.126 0-1.905.778-.777.778-.778 1.905 0 .48.216.891.217.413.542.705l.558.221H3.5v-3.5q0-1.872 1.314-3.186Q6.126 11.192 8 11.192z"/></svg>