<svg xmlns="http://www.w3.org/2000/svg" width="24" height="24" viewBox="0 0 24 24" fill='currentColor'><path d="M2.5 19.5v-15h19v15zm4.077-4.558h.977V9.058h-.785l-1.692 1.211.523.765.977-.688zm3.08 0h3.785v-.884h-2.427l-.03-.07q.486-.45.838-.816l.638-.66q.432-.441.637-.876.206-.436.206-.936 0-.706-.521-1.174-.522-.468-1.333-.468-.601 0-1.108.346a1.87 1.87 0 0 0-.715.908l.884.361a1.2 1.2 0 0 1 .387-.512.9.9 0 0 1 .552-.188q.404 0 .656.214.252.216.252.563 0 .294-.11.532-.11.237-.46.607a28 28 0 0 1-.891.91l-1.24 1.22zm7.343 0q.852 0 1.378-.485.526-.486.526-1.257 0-.498-.264-.843-.265-.346-.744-.507v-.05q.389-.152.598-.455.21-.303.21-.757 0-.675-.492-1.102-.49-.428-1.262-.428-.663 0-1.134.362-.47.363-.639.791l.865.362a.96.96 0 0 1 .908-.63.84.84 0 0 1 .58.201.65.65 0 0 1 .228.506.72.72 0 0 1-.27.588q-.269.22-.688.22h-.392v.884h.442q.528 0 .818.215.29.214.29.593a.8.8 0 0 1-.29.615.97.97 0 0 1-.668.262q-.425 0-.674-.187-.248-.188-.434-.644l-.865.343q.194.667.713 1.035.517.368 1.26.368"/></svg>