<svg xmlns="http://www.w3.org/2000/svg" width="24" height="24" viewBox="0 0 24 24" fill='currentColor'><path d="M12 21.48q-3.244-.885-5.372-3.819T4.5 11.1V5.346L12 2.538l7.5 2.808V11.1q0 1.536-.417 2.97a13 13 0 0 1-1.164 2.757l-2.95-2.95q.256-.427.394-.901.137-.475.137-.976 0-1.449-1.026-2.474A3.37 3.37 0 0 0 12 8.5q-1.448 0-2.474 1.026A3.37 3.37 0 0 0 8.5 12q0 1.448 1.026 2.474A3.37 3.37 0 0 0 12 15.5q.505 0 .99-.143.483-.142.894-.427l3.149 3.133a13.6 13.6 0 0 1-2.272 2.105A8.2 8.2 0 0 1 12 21.48M12 14q-.825 0-1.412-.588A1.93 1.93 0 0 1 10 12q0-.825.588-1.413A1.93 1.93 0 0 1 12 10q.825 0 1.412.587Q14 11.175 14 12t-.588 1.412A1.93 1.93 0 0 1 12 14"/></svg>