<svg xmlns="http://www.w3.org/2000/svg" width="24" height="24" viewBox="0 0 24 24" fill='currentColor'><path d="M11.25 13V3.423h1.5V13zm.75 7.5q-1.755 0-3.3-.67a8.6 8.6 0 0 1-2.704-1.826A8.6 8.6 0 0 1 4.17 15.3 8.2 8.2 0 0 1 3.5 12q0-1.895.796-3.578a8.7 8.7 0 0 1 2.22-2.907L7.6 6.6a6.36 6.36 0 0 0-1.925 2.375A7 7 0 0 0 5 12q0 2.9 2.05 4.95T12 19q2.925 0 4.962-2.05T19 12q0-1.6-.663-3.025A6.16 6.16 0 0 0 16.4 6.6l1.085-1.085a8.6 8.6 0 0 1 2.224 2.907A8.3 8.3 0 0 1 20.5 12q0 1.753-.67 3.3a8.54 8.54 0 0 1-4.515 4.53A8.3 8.3 0 0 1 12 20.5"/></svg>