<svg xmlns="http://www.w3.org/2000/svg" width="24" height="24" viewBox="0 0 24 24" fill='currentColor'><path d="M12.002 21.5a9.3 9.3 0 0 1-3.706-.748 9.6 9.6 0 0 1-3.016-2.03 9.6 9.6 0 0 1-2.032-3.016 9.25 9.25 0 0 1-.748-3.704q0-1.972.748-3.706a9.6 9.6 0 0 1 2.03-3.016 9.6 9.6 0 0 1 3.016-2.032 9.25 9.25 0 0 1 3.704-.748q1.972 0 3.706.748a9.6 9.6 0 0 1 3.017 2.03 9.6 9.6 0 0 1 2.03 3.016 9.25 9.25 0 0 1 .749 3.704q0 1.972-.748 3.706a9.6 9.6 0 0 1-2.03 3.017 9.6 9.6 0 0 1-3.016 2.03 9.25 9.25 0 0 1-3.704.749m-.004-4q2.29 0 3.896-1.606Q17.5 14.29 17.5 12.002q0-1.165-.432-2.16a5.6 5.6 0 0 0-1.174-1.736l-1.069 1.069q.55.55.863 1.275T16 12q0 1.65-1.175 2.825T12 16t-2.825-1.175T8 12q0-.825.313-1.55.312-.724.862-1.275l-1.07-1.07a5.6 5.6 0 0 0-1.173 1.737 5.4 5.4 0 0 0-.432 2.16q0 2.287 1.604 3.892Q9.708 17.5 11.998 17.5M11.25 12h1.5V6.5h-1.5z"/></svg>