<svg xmlns="http://www.w3.org/2000/svg" width="24" height="24" viewBox="0 0 24 24" fill='currentColor'><path d="m18.221 21.989 1.333-1.333-4.152-4.152-1.333 1.332q-.867.867-.862 2.077.004 1.208.862 2.075.867.858 2.076.863t2.076-.863m2.377-2.378 1.333-1.332q.867-.867.867-2.076t-.867-2.076a2.83 2.83 0 0 0-2.076-.858q-1.218 0-2.076.858l-1.333 1.333zM7.25 8.865h9.5v-1.5h-9.5zM12 4.346a.73.73 0 0 0 .75-.75.73.73 0 0 0-.75-.75.73.73 0 0 0-.75.75.73.73 0 0 0 .75.75M10.904 20.5H3.5v-17h6.258a2.2 2.2 0 0 1 .727-1.416Q11.117 1.499 12 1.5a2.17 2.17 0 0 1 1.525.584q.632.583.717 1.416H20.5v7.461a4.9 4.9 0 0 0-1.967.107 5.5 5.5 0 0 0-1.783.826v-.644h-9.5v1.5h8.533l-2.385 2.385H7.25v1.5h4.74a5.5 5.5 0 0 0-.927 1.816 4.95 4.95 0 0 0-.16 2.049"/></svg>