<svg xmlns="http://www.w3.org/2000/svg" width="24" height="24" viewBox="0 0 24 24" fill='currentColor'><path d="M3.5 20.5v-17h17v17zM5 19h14V7H5zm7-2.5q-1.839 0-3.297-.973A5.9 5.9 0 0 1 6.548 13a5.9 5.9 0 0 1 2.155-2.527Q10.161 9.5 12 9.5t3.297.973A5.9 5.9 0 0 1 17.452 13a5.9 5.9 0 0 1-2.155 2.527Q13.839 16.5 12 16.5m-.002-2.192q-.546 0-.926-.383a1.27 1.27 0 0 1-.38-.927q0-.546.383-.926.381-.38.927-.38t.926.383q.38.381.38.927t-.383.926q-.381.38-.927.38m.002.884q.915 0 1.554-.638.638-.639.638-1.554t-.638-1.554A2.12 2.12 0 0 0 12 10.808q-.915 0-1.554.638A2.1 2.1 0 0 0 9.808 13q0 .915.638 1.554.639.638 1.554.638"/></svg>