<svg xmlns="http://www.w3.org/2000/svg" width="24" height="24" viewBox="0 0 24 24" fill='currentColor'><path d="M15.894 20.51v-4.654h.952v-1q0-.765.546-1.31.544-.546 1.311-.546t1.306.545.539 1.31v1h.952v4.654zm1.837-4.654h1.932v-1a.95.95 0 0 0-.268-.698.93.93 0 0 0-.693-.274.95.95 0 0 0-.698.274.95.95 0 0 0-.273.698zM6.497 20.5v-4H2.788V8.308h18.424v3.278a5.5 5.5 0 0 0-1.028-.36 4.6 4.6 0 0 0-1.09-.13q-1.824 0-3.326.99a6 6 0 0 0-2.23 2.645H8V19h5.283q.127.415.314.785t.432.715zM6.5 7.423V3.808h11v3.615z"/></svg>