<svg xmlns="http://www.w3.org/2000/svg" width="24" height="24" viewBox="0 0 24 24" fill='currentColor'><path d="M19.973 22.157 1.535 3.719l1.054-1.054 18.438 18.438zm1.316-5.523-3.52-3.52v1.897l-5.653-5.654V9q0-.759-.545-1.302a1.78 1.78 0 0 0-1.302-.545 1 1 0 0 0-.161.013q-.074.012-.152.032L7.258 4.5h10.511v6.384l3.52-3.519zM2.768 19.5V4.519h1.673L17.75 17.827v1.672h-6.934v-2.8a4.8 4.8 0 0 0 1.7-.528q.795-.423 1.386-1.139l-.813-.813q-.501.65-1.248 1.008a3.6 3.6 0 0 1-1.572.357q-1.46 0-2.494-.99-1.033-.989-1.08-2.44H5.547q.057 1.758 1.237 3.044 1.179 1.284 2.938 1.502v2.8zm5.654-8.893V12q0 .758.544 1.302.545.544 1.302.544.29 0 .547-.09.26-.09.484-.272z"/></svg>