<svg xmlns="http://www.w3.org/2000/svg" width="24" height="24" viewBox="0 0 24 24" fill='currentColor'><path d="M12 18.5q-2.506 0-4.348-1.65t-2.106-4.1H2.192v-1.5h3.354q.264-2.45 2.106-4.1T12 5.5q2.505 0 4.348 1.65t2.106 4.1h3.354v1.5h-3.354q-.264 2.45-2.106 4.1T12 18.5m-2.942-3.116h5.884V10.5h-1v-.842q0-.846-.556-1.444A1.82 1.82 0 0 0 12 7.615q-.806 0-1.374.569a1.87 1.87 0 0 0-.568 1.374v.942h-1zM12 13.673a.7.7 0 0 1-.518-.213.7.7 0 0 1-.213-.518q0-.305.213-.518a.7.7 0 0 1 .518-.213q.306 0 .518.213a.7.7 0 0 1 .213.518q0 .306-.213.518a.7.7 0 0 1-.518.213M10.942 10.5v-.942q0-.444.307-.751.306-.307.751-.307t.751.307q.307.307.307.75v.943z"/></svg>