<svg xmlns="http://www.w3.org/2000/svg" width="24" height="24" viewBox="0 0 24 24" fill='currentColor'><path d="M6.5 21.5v-4.03a9.4 9.4 0 0 1-2.213-2.98 8.15 8.15 0 0 1-.787-3.5q0-3.537 2.48-6.014Q8.463 2.5 12 2.5q2.914 0 5.21 1.742 2.298 1.74 2.984 4.518l1.437 5.74H18.5v5h-4v2zm5.404-5.596q.367 0 .616-.25a.84.84 0 0 0 .25-.615.84.84 0 0 0-.25-.617.84.84 0 0 0-.616-.249.84.84 0 0 0-.617.25.84.84 0 0 0-.248.616q0 .367.248.616.25.249.617.249m-.587-2.97h1.208q0-.537.177-.935.177-.397.677-.937.44-.49.846-.994.406-.502.406-1.26 0-.993-.755-1.679-.755-.687-1.897-.687-.914 0-1.663.508-.75.507-1.085 1.337l1.086.469q.214-.531.67-.854.457-.324.992-.323.607 0 1.018.343.41.344.41.886 0 .544-.326.952-.328.407-.742.832a4.2 4.2 0 0 0-.761 1.04q-.26.526-.26 1.303"/></svg>