<svg xmlns="http://www.w3.org/2000/svg" width="24" height="24" viewBox="0 0 24 24" fill='currentColor'><path d="M11.221 14.789h1.558l.111-1.087q.297-.075.555-.218a1.6 1.6 0 0 0 .441-.355l.978.452.778-1.325-.865-.645q.107-.305.107-.611t-.107-.611l.865-.645-.778-1.325-.978.452a1.6 1.6 0 0 0-.44-.355 2.3 2.3 0 0 0-.556-.218l-.111-1.086H11.22l-.111 1.086q-.297.075-.555.218-.26.144-.441.355l-.978-.452-.778 1.325.865.645a1.8 1.8 0 0 0-.107.611q0 .306.107.611l-.865.645.778 1.325.978-.452q.182.211.44.355.26.143.556.218zM12 12.683q-.702 0-1.192-.49a1.62 1.62 0 0 1-.49-1.193q0-.702.49-1.192T12 9.318t1.192.49.49 1.192-.49 1.192-1.192.49M6.5 21.5v-4.03a9.4 9.4 0 0 1-2.213-2.98 8.15 8.15 0 0 1-.787-3.5q0-3.537 2.48-6.014Q8.463 2.5 12 2.5q2.914 0 5.21 1.742 2.298 1.74 2.984 4.518l1.437 5.74H18.5v5h-4v2z"/></svg>