<svg xmlns="http://www.w3.org/2000/svg" width="24" height="24" viewBox="0 0 24 24" fill='currentColor'><path d="M11.25 20.75v-7.937a7.5 7.5 0 0 1-2.883-.57 7.4 7.4 0 0 1-2.436-1.626 7.2 7.2 0 0 1-1.614-2.442 7.7 7.7 0 0 1-.557-2.887v-1.5h1.5a7.4 7.4 0 0 1 2.858.575 7.5 7.5 0 0 1 2.436 1.63 7.1 7.1 0 0 1 1.287 1.754q.504.967.72 2.057.173-.3.386-.569t.474-.53a7.5 7.5 0 0 1 2.442-1.63A7.5 7.5 0 0 1 18.75 6.5h1.5V8a7.5 7.5 0 0 1-.575 2.888 7.5 7.5 0 0 1-1.632 2.442 7.3 7.3 0 0 1-2.423 1.613 7.5 7.5 0 0 1-2.87.557v5.25z"/></svg>