<svg xmlns="http://www.w3.org/2000/svg" width="24" height="24" viewBox="0 0 24 24" fill='currentColor'><path d="M3.794 12.25a8.4 8.4 0 0 1-.956-1.815 5.6 5.6 0 0 1-.338-1.95q0-2.13 1.436-3.557T7.5 3.5q1.284 0 2.463.617A6.1 6.1 0 0 1 12 5.87q.86-1.144 2.025-1.756A5.25 5.25 0 0 1 16.5 3.5q2.11 0 3.545 1.429T21.5 8.467A5.58 5.58 0 0 0 18 7.25q-2.202 0-3.809 1.438-1.605 1.437-1.87 3.562h-1.713l-2.4-3.598-2.431 3.598zM12 20.462l-2.165-1.947a93 93 0 0 1-2.932-2.732 41 41 0 0 1-1.949-2.033h1.629l1.61-2.402 1.609 2.402h2.52q.165 1.298.853 2.35a5.6 5.6 0 0 0 1.736 1.711 58 58 0 0 1-.807.75zm5.25-6.635V9.25h1.5v4.577zm.75 2.942a.84.84 0 0 1-.616-.249.84.84 0 0 1-.25-.616q0-.367.25-.617A.84.84 0 0 1 18 15.04q.367 0 .616.248a.84.84 0 0 1 .25.617q0 .367-.25.616a.84.84 0 0 1-.616.25"/></svg>