<svg xmlns="http://www.w3.org/2000/svg" width="24" height="24" viewBox="0 0 24 24" fill='currentColor'><path d="M5.385 13.904V12h1.903v1.903zM3.48 12v-1.904h1.904V12zM12 5.384V3.48h1.904v1.904zM4.673 8H8V4.673H4.673zM3.481 9.192V3.48h5.711v5.712zm1.192 10.135h3.404V16H4.673zm-1.192 1.192v-5.711h5.788v5.711zM16 7.999h3.327V4.674H16zm-1.192 1.193V3.48h5.711v5.712zm-5.616 4.711V12H7.288v-1.904h3.808v3.807zm.904-4.711V5.384H12v1.904h1.904v1.904zM5.644 7.028V5.644H7.03v1.384zm.067 11.26v-1.384h1.385v1.384zm11.26-11.26V5.644h1.385v1.384zM16.02 20.52v-3h-3v-1.5h3v-3h1.5v3h3v1.5h-3v3z"/></svg>