<svg xmlns="http://www.w3.org/2000/svg" width="24" height="24" viewBox="0 0 24 24" fill='currentColor'><path d="M8.5 21.307v-4.823h-.086q-2.458-.123-4.186-1.829T2.5 10.5q0-2.514 1.743-4.252Q5.986 4.508 8.5 4.509h1.358L8.023 2.66l1.054-1.054 3.654 3.654-3.654 3.654L8.023 7.86l1.835-1.85H8.5q-1.875 0-3.187 1.308Q4 8.625 4 10.5q0 1.903 1.394 3.202Q6.79 15 8.721 15H10v2.684L12.675 15H15.5q1.875 0 3.192-1.313T20.01 10.5t-1.317-3.188T15.5 6h-.404V4.5h.404q2.513 0 4.262 1.743 1.747 1.743 1.747 4.257 0 2.512-1.747 4.257Q18.014 16.5 15.5 16.5h-2.192z"/></svg>