<svg xmlns="http://www.w3.org/2000/svg" width="24" height="24" viewBox="0 0 24 24" fill='currentColor'><path d="M19.785 17.779 6.23 4.225a9.3 9.3 0 0 1 2.096-1.69 9.6 9.6 0 0 1 2.548-1.045 10.9 10.9 0 0 0 .472 4.693 10 10 0 0 0 2.467 4.003 10.25 10.25 0 0 0 3.978 2.49q2.261.774 4.67.497a9.4 9.4 0 0 1-1.013 2.529 9 9 0 0 1-1.665 2.077m-.381 4.588-2.681-2.68a9.7 9.7 0 0 1-1.665.463 9.7 9.7 0 0 1-1.766.158 9.3 9.3 0 0 1-3.74-.757 9.7 9.7 0 0 1-3.046-2.057 9.7 9.7 0 0 1-2.057-3.046 9.3 9.3 0 0 1-.757-3.74q0-.903.163-1.756.162-.855.468-1.666L1.658 4.621l1.069-1.07 17.746 17.747z"/></svg>