<svg xmlns="http://www.w3.org/2000/svg" width="24" height="24" viewBox="0 0 24 24" fill='currentColor'><path d="M13.883 21.756a.67.67 0 0 1-.57.048.8.8 0 0 1-.444-.383l-1.596-3.192a.67.67 0 0 1-.048-.57.8.8 0 0 1 .383-.444.67.67 0 0 1 .575-.043.8.8 0 0 1 .448.387l1.596 3.183a.66.66 0 0 1 .043.57.82.82 0 0 1-.387.444m6.01 0a.67.67 0 0 1-.57.048.8.8 0 0 1-.444-.383l-1.596-3.192a.67.67 0 0 1-.048-.57.8.8 0 0 1 .382-.444.67.67 0 0 1 .575-.043.8.8 0 0 1 .448.387l1.596 3.183a.66.66 0 0 1 .044.57.82.82 0 0 1-.388.444m-12.01 0a.68.68 0 0 1-.575.048.8.8 0 0 1-.448-.383L5.263 18.23a.66.66 0 0 1-.043-.57.8.8 0 0 1 .388-.444.66.66 0 0 1 .57-.043.82.82 0 0 1 .443.387l1.596 3.183a.67.67 0 0 1 .048.57.8.8 0 0 1-.382.444M7.5 15.75q-2.178 0-3.714-1.536Q2.25 12.68 2.25 10.5q0-2.008 1.341-3.49Q4.933 5.527 6.93 5.28a5.76 5.76 0 0 1 2.11-2.222A5.6 5.6 0 0 1 12 2.25q2.202 0 3.807 1.433 1.605 1.432 1.906 3.573 1.784.13 2.91 1.353A4.12 4.12 0 0 1 21.75 11.5q0 1.77-1.24 3.01t-3.01 1.24z"/></svg>