<svg xmlns="http://www.w3.org/2000/svg" width="24" height="24" viewBox="0 0 24 24" fill='currentColor'><path d="M9.904 17.615 8.292 21.5l-1.388-.567 1.46-3.525q-2.593-.585-4.228-2.644Q2.5 12.707 2.5 10.055v-3.89q0-1.511 1.076-2.588T6.164 2.5q.468 0 .893.14.426.139.849.31l5.42 2.233L9.828 6.51v1.72l7.59 4.962H9.952a2.25 2.25 0 0 1-1.648-.678 2.25 2.25 0 0 1-.679-1.649h-1.5q0 1.58 1.124 2.703 1.124 1.124 2.703 1.124h9.798l.971.664.788 4.144h-1.625l-.875-1.885h-5.307V21.5h-1.5v-3.885zM6.164 5.298a.84.84 0 0 0-.617.249.84.84 0 0 0-.249.616q0 .367.249.617a.84.84 0 0 0 .616.249q.367 0 .617-.249a.84.84 0 0 0 .249-.616.84.84 0 0 0-.249-.617.84.84 0 0 0-.616-.249"/></svg>