<svg xmlns="http://www.w3.org/2000/svg" width="24" height="24" viewBox="0 0 24 24" fill='currentColor'><path d="m10.75 22.51-1.044-1.07 2.075-2.075H7.767a2.54 2.54 0 0 1-.895 1.255q-.647.495-1.487.495a2.4 2.4 0 0 1-1.77-.73 2.4 2.4 0 0 1-.73-1.77q0-.84.495-1.487t1.255-.895V7.767a2.54 2.54 0 0 1-1.255-.895 2.38 2.38 0 0 1-.495-1.488q0-1.038.73-1.769a2.4 2.4 0 0 1 1.77-.73q.84 0 1.487.494.648.495.895 1.255h4.014L9.696 2.56l1.054-1.07 3.894 3.894-3.894 3.894L9.696 8.21l2.085-2.075H7.767a2.46 2.46 0 0 1-1.632 1.633v8.466a2.46 2.46 0 0 1 1.632 1.632h4.004L9.706 15.79l1.044-1.069 3.894 3.894zm7.865-1.395a2.4 2.4 0 0 1-1.769-.73 2.4 2.4 0 0 1-.73-1.77q0-.855.494-1.503.495-.646 1.255-.88V7.768a2.45 2.45 0 0 1-1.255-.88 2.4 2.4 0 0 1-.494-1.503q0-1.038.73-1.769a2.4 2.4 0 0 1 1.77-.73 2.4 2.4 0 0 1 1.768.73 2.4 2.4 0 0 1 .731 1.77q0 .855-.495 1.502-.495.648-1.255.88v8.466q.76.247 1.255.895.495.647.495 1.487a2.4 2.4 0 0 1-.73 1.77 2.4 2.4 0 0 1-1.77.73"/></svg>