<svg xmlns="http://www.w3.org/2000/svg" width="24" height="24" viewBox="0 0 24 24" fill='currentColor'><path d="M10.596 21.115v-3.34l8.237-8.216 3.3 3.297-8.244 8.259zm8.11-6.93L20 12.864l-1.148-1.192-1.329 1.329zM10.75 9.277 9.696 8.21l2.085-2.075H7.767a2.46 2.46 0 0 1-1.632 1.633v8.466q.759.247 1.255.895.495.647.495 1.487a2.4 2.4 0 0 1-.731 1.77 2.4 2.4 0 0 1-1.77.73 2.4 2.4 0 0 1-1.768-.73 2.4 2.4 0 0 1-.731-1.77q0-.84.495-1.48t1.255-.887V7.767a2.54 2.54 0 0 1-1.255-.895 2.38 2.38 0 0 1-.495-1.488q0-1.038.73-1.769a2.4 2.4 0 0 1 1.77-.73q.84 0 1.487.494.648.495.895 1.255h4.014L9.696 2.56l1.054-1.07 3.894 3.894zm7.865-6.394a2.4 2.4 0 0 1 1.77.731 2.4 2.4 0 0 1 .73 1.77 2.4 2.4 0 0 1-.73 1.768 2.4 2.4 0 0 1-1.77.731 2.4 2.4 0 0 1-1.769-.73 2.4 2.4 0 0 1-.73-1.77q0-1.038.73-1.769a2.4 2.4 0 0 1 1.77-.73"/></svg>