<svg xmlns="http://www.w3.org/2000/svg" width="24" height="24" viewBox="0 0 24 24" fill='currentColor'><path d="M6 21.5q-1.048 0-1.774-.726a2.4 2.4 0 0 1-.726-1.77V16.5h3V2.692l1.385 1.193 1.404-1.193 1.403 1.193 1.404-1.193L13.5 3.885l1.404-1.193 1.404 1.193 1.404-1.193 1.403 1.193L20.5 2.692V19q0 1.048-.726 1.774A2.4 2.4 0 0 1 18 21.5zM18 20q.424 0 .712-.287A.97.97 0 0 0 19 19V5H8v11.5h9V19q0 .425.288.713.287.287.712.287M9.192 8.75v-1.5h5.673v1.5zm0 3v-1.5h5.673v1.5zm7.75-2.865a.85.85 0 0 1-.626-.259.85.85 0 0 1-.258-.626q0-.367.258-.626a.85.85 0 0 1 .626-.258q.368 0 .626.258a.85.85 0 0 1 .259.626.85.85 0 0 1-.259.626.85.85 0 0 1-.626.259m0 3a.85.85 0 0 1-.626-.259.85.85 0 0 1-.258-.626q0-.367.258-.626a.85.85 0 0 1 .626-.258q.368 0 .626.258a.85.85 0 0 1 .259.626.85.85 0 0 1-.259.626.85.85 0 0 1-.626.259"/></svg>