<svg xmlns="http://www.w3.org/2000/svg" width="24" height="24" viewBox="0 0 24 24" fill='currentColor'><path d="m19.844 15.469-1.146-1.146a7.5 7.5 0 0 0 1.682-2.402A7.1 7.1 0 0 0 20.99 9q0-1.546-.61-2.907a7.6 7.6 0 0 0-1.682-2.386l1.146-1.177a9.4 9.4 0 0 1 2.043 2.914A8.5 8.5 0 0 1 22.644 9q0 1.88-.757 3.555a9.4 9.4 0 0 1-2.043 2.914m-3.258-3.258-1.176-1.177q.42-.405.672-.919.25-.513.25-1.115 0-.622-.25-1.125a3.3 3.3 0 0 0-.672-.91l1.177-1.177q.665.62 1.047 1.438.383.817.383 1.774 0 .936-.383 1.764a4.6 4.6 0 0 1-1.047 1.447m-7.73.288q-1.449 0-2.474-1.026A3.37 3.37 0 0 1 5.356 9q0-1.449 1.026-2.474A3.37 3.37 0 0 1 8.856 5.5q1.448 0 2.474 1.026A3.37 3.37 0 0 1 12.356 9q0 1.448-1.026 2.473A3.37 3.37 0 0 1 8.856 12.5m-7.5 7.616v-2.223a2.52 2.52 0 0 1 1.465-2.323q1.245-.621 2.789-1.038a12.4 12.4 0 0 1 3.246-.416q1.704 0 3.246.416 1.542.417 2.788 1.038.692.336 1.08.95.386.615.386 1.373v2.223z"/></svg>