<svg xmlns="http://www.w3.org/2000/svg" width="24" height="24" viewBox="0 0 24 24" fill='currentColor'><path d="m8.811 21.865-1.784-3.007-3.389-.743.331-3.488L1.673 12 3.97 9.373l-.33-3.488 3.388-.743 1.784-3.007L12 3.489l3.188-1.354 1.785 3.007 3.389.743-.331 3.488L22.327 12l-2.296 2.627.33 3.488-3.388.743-1.784 3.007L12 20.512zM12 16.731a.78.78 0 0 0 .573-.235.78.78 0 0 0 .235-.573.78.78 0 0 0-.235-.573.78.78 0 0 0-.573-.234.78.78 0 0 0-.573.234.78.78 0 0 0-.235.573.78.78 0 0 0 .235.573.78.78 0 0 0 .573.235m-.75-3.654h1.5v-6h-1.5z"/></svg>