<svg xmlns="http://www.w3.org/2000/svg" width="24" height="24" viewBox="0 0 24 24" fill='currentColor'><path d="M8.25 22.558a1.74 1.74 0 0 1-1.277-.531 1.74 1.74 0 0 1-.53-1.277V3.25q0-.746.53-1.277a1.74 1.74 0 0 1 1.277-.53h7.5q.746 0 1.277.53.53.531.53 1.277v17.5q0 .746-.53 1.277a1.74 1.74 0 0 1-1.277.53zM11.999 9.75q1.145 0 1.948-.802a2.65 2.65 0 0 0 .803-1.947q0-1.145-.802-1.948a2.65 2.65 0 0 0-1.947-.803q-1.145 0-1.948.802a2.65 2.65 0 0 0-.803 1.947q0 1.146.802 1.948a2.65 2.65 0 0 0 1.947.803m0-1.5q-.52 0-.885-.364A1.2 1.2 0 0 1 10.75 7q0-.521.364-.885.364-.365.886-.365.521 0 .885.365.365.364.365.885 0 .522-.365.886A1.2 1.2 0 0 1 12 8.25m-1.901 5.558a.87.87 0 0 0 .643-.26.88.88 0 0 0 .259-.646.87.87 0 0 0-.26-.643.88.88 0 0 0-.646-.259.87.87 0 0 0-.643.26.88.88 0 0 0-.259.646.87.87 0 0 0 .26.643.88.88 0 0 0 .646.259m3.807 0a.87.87 0 0 0 .644-.26.88.88 0 0 0 .259-.646.87.87 0 0 0-.26-.643.88.88 0 0 0-.646-.259.87.87 0 0 0-.643.26.88.88 0 0 0-.26.646.87.87 0 0 0 .261.643.88.88 0 0 0 .645.259m-3.807 3a.87.87 0 0 0 .643-.26.88.88 0 0 0 .259-.646.87.87 0 0 0-.26-.643.88.88 0 0 0-.646-.259.87.87 0 0 0-.643.26.88.88 0 0 0-.259.646.87.87 0 0 0 .26.643.88.88 0 0 0 .646.259m3.807 0a.87.87 0 0 0 .644-.26.88.88 0 0 0 .259-.646.87.87 0 0 0-.26-.643.88.88 0 0 0-.646-.259.87.87 0 0 0-.643.26.88.88 0 0 0-.26.646.87.87 0 0 0 .261.643.88.88 0 0 0 .645.259m-3.807 3a.87.87 0 0 0 .643-.26.88.88 0 0 0 .259-.646.87.87 0 0 0-.26-.643.88.88 0 0 0-.646-.259.87.87 0 0 0-.643.26.88.88 0 0 0-.259.646.87.87 0 0 0 .26.643.88.88 0 0 0 .646.259m3.807 0a.87.87 0 0 0 .644-.26.88.88 0 0 0 .259-.646.87.87 0 0 0-.26-.643.88.88 0 0 0-.646-.259.87.87 0 0 0-.643.26.88.88 0 0 0-.26.646.87.87 0 0 0 .261.643.88.88 0 0 0 .645.259"/></svg>