<svg xmlns="http://www.w3.org/2000/svg" width="24" height="24" viewBox="0 0 24 24" fill='currentColor'><path d="M14.846 21.51q-1.207 0-2.027-.825-.819-.822-.819-2.03 0-.64.277-1.198.276-.558.762-.964v-2.684q0-.75.53-1.278.528-.53 1.277-.53t1.278.53q.53.53.53 1.278v2.684q.47.406.754.964a2.6 2.6 0 0 1 .284 1.198q0 1.207-.827 2.032-.826.823-2.019.823m-1.654-2.856H16.5q0-.566-.308-.926a4.7 4.7 0 0 0-.73-.682v-3.238a.6.6 0 0 0-.18-.437.6.6 0 0 0-.436-.179.6.6 0 0 0-.437.18.6.6 0 0 0-.178.436v3.238a4 4 0 0 0-.739.682q-.3.36-.3.926m4.74-2.616v-1.182H20.5v1.182zm0-2.374V12.48H21.5v1.183zm2.266-3.856h-1.556a6.9 6.9 0 0 0-2.489-3.461Q14.353 5 12 5 9.075 5 7.038 7.037T5 12q0 1.954.962 3.545A6.9 6.9 0 0 0 8.5 18.03V15H10v5.5H4.5V19h2.83a8.5 8.5 0 0 1-2.781-2.957Q3.499 14.212 3.5 12q0-1.77.67-3.315a8.6 8.6 0 0 1 1.819-2.697A8.6 8.6 0 0 1 8.685 4.17 8.3 8.3 0 0 1 12 3.5q2.966 0 5.22 1.785 2.255 1.786 2.978 4.523"/></svg>