<svg xmlns="http://www.w3.org/2000/svg" width="24" height="24" viewBox="0 0 24 24" fill='currentColor'><path d="M16.267 18.358 14.125 20.5l-1.77-1.77 2.143-2.151a3.2 3.2 0 0 1-.248-1.223q0-1.354.948-2.302t2.302-.948q.402 0 .779.093t.713.264L16.8 14.657l1.4 1.4 2.192-2.168q.172.338.265.701.093.365.093.767 0 1.353-.948 2.302-.949.948-2.302.948a3.1 3.1 0 0 1-1.233-.248m3.931-8.55h-1.556a6.9 6.9 0 0 0-2.489-3.461Q14.353 5 12 5 9.075 5 7.038 7.037T5 12q0 1.954.962 3.545A6.9 6.9 0 0 0 8.5 18.03V15H10v5.5H4.5V19h2.83a8.5 8.5 0 0 1-2.781-2.957Q3.499 14.212 3.5 12q0-1.77.67-3.315a8.6 8.6 0 0 1 1.819-2.697A8.6 8.6 0 0 1 8.685 4.17 8.3 8.3 0 0 1 12 3.5q2.966 0 5.22 1.785 2.255 1.786 2.978 4.523"/></svg>