<svg xmlns="http://www.w3.org/2000/svg" width="24" height="24" viewBox="0 0 24 24" fill='currentColor'><path d="M12.885 15.27v-1.193h3.73v1.192zm1.596 5.23v-1.346h-1.597v-1.192h1.597v-1.347h1.192V20.5zm2.288-1.346v-1.192H20.5v1.192zm.943-2.539v-3.884h1.192v1.346H20.5v1.192h-1.596v1.346zm2.486-6.807h-1.556a6.9 6.9 0 0 0-2.489-3.461Q14.353 5 12 5 9.075 5 7.038 7.037T5 12q0 1.954.962 3.545A6.9 6.9 0 0 0 8.5 18.03V15H10v5.5H4.5V19h2.83a8.5 8.5 0 0 1-2.781-2.957Q3.499 14.212 3.5 12q0-1.77.67-3.316A8.6 8.6 0 0 1 5.988 5.99a8.6 8.6 0 0 1 2.695-1.82A8.3 8.3 0 0 1 12 3.5q2.966 0 5.22 1.785 2.255 1.786 2.978 4.523"/></svg>