<svg xmlns="http://www.w3.org/2000/svg" width="24" height="24" viewBox="0 0 24 24" fill='currentColor'><path d="M12 15.654V12h3.654v1.192h-2.462v2.462zm0 5.846v-3.654h1.192v2.462h2.462V21.5zm8.308-5.846v-2.462h-2.462V12H21.5v3.654zM17.846 21.5v-1.192h2.462v-2.462H21.5V21.5zm2.352-11.692h-1.556a6.9 6.9 0 0 0-2.489-3.461Q14.353 5 12 5 9.075 5 7.038 7.037T5 12q0 1.954.962 3.545A6.9 6.9 0 0 0 8.5 18.03V15H10v5.5H4.5V19h2.83a8.5 8.5 0 0 1-2.781-2.957Q3.499 14.212 3.5 12q0-1.77.67-3.316A8.6 8.6 0 0 1 5.988 5.99a8.6 8.6 0 0 1 2.695-1.82A8.3 8.3 0 0 1 12 3.5q2.966 0 5.22 1.785 2.255 1.786 2.978 4.523"/></svg>