<svg xmlns="http://www.w3.org/2000/svg" width="24" height="24" viewBox="0 0 24 24" fill='currentColor'><path d="M12.712 22.5q-.505 0-.858-.354a1.17 1.17 0 0 1-.354-.858v-3.415l1.287-3.38q.17-.44.56-.716.388-.277.863-.277h1.156v2.214l-1.283 1.272.613.614 1.554-1.56v-4.79h1.5v4.78l1.544 1.57.614-.614-1.274-1.298V13.5h1.137q.472 0 .86.276.386.276.563.707l1.306 3.39v3.415q0 .505-.354.858a1.17 1.17 0 0 1-.858.354h-2.115q-.504 0-.858-.354a1.17 1.17 0 0 1-.354-.858v-2.923L17 17.404l-.962.961v2.885q0 .52-.364.886a1.2 1.2 0 0 1-.885.364zM7 14.333l-1.346-2.668A.74.74 0 0 0 5 11.25H2.5V4.5h19v7.308h-2.058v-2.25h-4.884v2.294h-.799l-2.09-4.187a.6.6 0 0 0-.279-.274.9.9 0 0 0-.786 0 .6.6 0 0 0-.283.274zM2.5 19.5v-6.75h2.029l1.792 3.594q.097.208.271.307a.8.8 0 0 0 .405.099.8.8 0 0 0 .386-.094.62.62 0 0 0 .27-.312l3.338-6.652 1.365 2.718q-.38.27-.681.641a3.2 3.2 0 0 0-.487.83l-1.38 3.678V19.5z"/></svg>