<svg xmlns="http://www.w3.org/2000/svg" width="24" height="24" viewBox="0 0 24 24" fill='currentColor'><path d="M9 11.75q.729 0 1.24-.51.51-.511.51-1.24t-.51-1.24T9 8.25t-1.24.51q-.51.511-.51 1.24t.51 1.24 1.24.51m6 0q.729 0 1.24-.51.51-.511.51-1.24t-.51-1.24T15 8.25t-1.24.51-.51 1.24.51 1.24 1.24.51M8.75 20.5v-3.442a.3.3 0 0 1 .086-.221.3.3 0 0 1 .222-.087h2.192v3.75zm4 0v-3.75h2.192a.3.3 0 0 1 .222.087.3.3 0 0 1 .086.22V20.5zm-7.442 0a1.74 1.74 0 0 1-1.277-.531 1.74 1.74 0 0 1-.531-1.277V9q0-2.292 1.604-3.896T9 3.5h6q2.291 0 3.896 1.604T20.5 9v9.692q0 .746-.531 1.277a1.74 1.74 0 0 1-1.277.531H16.75v-3.442a1.74 1.74 0 0 0-.531-1.277 1.74 1.74 0 0 0-1.277-.531H9.058a1.74 1.74 0 0 0-1.277.531 1.74 1.74 0 0 0-.531 1.277V20.5z"/></svg>