<svg xmlns="http://www.w3.org/2000/svg" width="24" height="24" viewBox="0 0 24 24" fill='currentColor'><path d="M3.075 10.931 6.987 7.02q.32-.322.748-.457.426-.136.878-.045l1.358.284Q8.736 8.287 7.995 9.491t-1.457 2.92zM7.7 12.88a16.3 16.3 0 0 1 3.796-5.919q2.037-2.037 4.55-3.047 2.511-1.01 5.01-.73.28 2.498-.723 5.01-1.002 2.514-3.039 4.55-1.268 1.269-2.774 2.229a16.6 16.6 0 0 1-3.16 1.573zm6.535-2.884q.507.507 1.239.507t1.24-.507.507-1.235-.508-1.235a1.7 1.7 0 0 0-1.239-.507q-.732 0-1.24.507-.507.508-.507 1.235t.508 1.235m-.931 11.169L11.809 17.7q1.716-.716 2.928-1.461 1.21-.747 2.696-1.98l.269 1.357a1.8 1.8 0 0 1-.493 1.642zm-8.706-5.066a2.43 2.43 0 0 1 1.774-.733 2.4 2.4 0 0 1 1.774.728q.73.73.731 1.774 0 1.042-.73 1.774-.57.567-1.862.974-1.294.406-3.322.65.245-2.026.656-3.313.412-1.285.979-1.854"/></svg>