<svg xmlns="http://www.w3.org/2000/svg" width="24" height="24" viewBox="0 0 24 24" fill='currentColor'><path d="M4.76 21.298v-5.531q0-.452.213-.859t.6-.653l1.148-.753q.175 1.926.502 3.305t1.04 3.093zm4.638-1.895a16 16 0 0 1-1.117-3.322 16.6 16.6 0 0 1-.377-3.55q0-2.886 1.069-5.374Q10.043 4.67 12 3.1q1.957 1.569 3.027 4.057 1.07 2.49 1.069 5.373 0 1.806-.377 3.528a16.6 16.6 0 0 1-1.117 3.345zM12 12.75q.729 0 1.24-.51.51-.512.51-1.24 0-.73-.51-1.24-.511-.51-1.24-.51t-1.24.51-.51 1.24.51 1.24q.511.51 1.24.51m7.23 8.548-3.503-1.389q.713-1.713 1.04-3.097t.502-3.31l1.148.763q.387.246.6.653.214.406.214.859z"/></svg>