<svg xmlns="http://www.w3.org/2000/svg" width="24" height="24" viewBox="0 0 24 24" fill='currentColor'><path d="M4.25 15.75V1.25h7.654v2.808H9.058v.884h2.846v.56q0 .141.012.281t.047.275H9.059v.884h3.217q.33.576.859.975.528.4 1.178.6l5.342 1.477v5.756zm.751 7a2.65 2.65 0 0 1-1.948-.802 2.65 2.65 0 0 1-.803-1.947q0-1.145.802-1.948a2.65 2.65 0 0 1 1.947-.803q1.145 0 1.948.802.803.801.803 1.947t-.802 1.948a2.65 2.65 0 0 1-1.947.803m14 0a2.65 2.65 0 0 1-1.948-.802 2.65 2.65 0 0 1-.803-1.947q0-1.145.802-1.948a2.65 2.65 0 0 1 1.947-.803q1.145 0 1.948.802.803.801.803 1.947t-.802 1.948a2.65 2.65 0 0 1-1.947.803m-7 0a2.66 2.66 0 0 1-1.948-.802 2.65 2.65 0 0 1-.803-1.947q0-1.145.802-1.948a2.65 2.65 0 0 1 1.947-.803q1.145 0 1.948.802.803.801.803 1.947t-.802 1.948a2.65 2.65 0 0 1-1.947.803"/></svg>