<svg xmlns="http://www.w3.org/2000/svg" width="24" height="24" viewBox="0 0 24 24" fill='currentColor'><path d="M3.75 20.5V19h2V3.5h9v1h3.5v5.904h-1.5V6h-2v5.242a6.66 6.66 0 0 0-2.422 2.347q-.895 1.472-.895 3.257 0 1.002.296 1.91t.838 1.744zm7.5-7.616a.85.85 0 0 0 .626-.258.85.85 0 0 0 .259-.626.85.85 0 0 0-.259-.626.85.85 0 0 0-.626-.258.85.85 0 0 0-.626.258.85.85 0 0 0-.258.626q0 .368.258.626a.85.85 0 0 0 .626.258m5.885 8.404-.204-1.182a3.2 3.2 0 0 1-.75-.314 3.6 3.6 0 0 1-.604-.456l-1.123.433-.789-1.292.914-.788a3.4 3.4 0 0 1-.118-.835q0-.373.118-.835l-.914-.788.789-1.293 1.123.433q.289-.268.604-.463.315-.196.75-.322l.204-1.182h1.5l.203 1.182q.435.125.75.314.316.189.604.456l1.123-.433.789 1.292-.914.789q.118.461.118.834 0 .374-.118.835l.914.789-.789 1.292-1.123-.418q-.288.268-.604.456-.315.189-.75.314l-.204 1.182zm.75-2.365a2 2 0 0 0 1.465-.611q.612-.612.611-1.466 0-.855-.611-1.465a2 2 0 0 0-1.466-.612q-.853 0-1.465.612a2 2 0 0 0-.611 1.465q0 .855.611 1.465.612.612 1.465.612"/></svg>