<svg xmlns="http://www.w3.org/2000/svg" width="24" height="24" viewBox="0 0 24 24" fill='currentColor'><g clip-path="url(#a)"><path d="M11.142 12.883q1.227 1.227 2.735 2.125a14.5 14.5 0 0 0 3.22 1.417 6.7 6.7 0 0 1-2.276 1.714 6.6 6.6 0 0 1-2.796.611q-2.82 0-4.785-1.965T5.275 12q0-1.47.611-2.796A6.7 6.7 0 0 1 7.6 6.927a14.5 14.5 0 0 0 1.417 3.221 14 14 0 0 0 2.125 2.735m7.164 1.608q-.375-.096-.743-.213a11 11 0 0 1-.727-.259q.21-.479.312-.984A5.2 5.2 0 0 0 17.25 12q0-2.18-1.535-3.715T12 6.75a5.5 5.5 0 0 0-1.035.097 4.6 4.6 0 0 0-.984.307 9 9 0 0 1-.247-.71q-.103-.35-.2-.725a6.6 6.6 0 0 1 1.216-.352 7 7 0 0 1 1.275-.117q2.82 0 4.784 1.966Q18.774 9.18 18.775 12q0 .65-.117 1.275a6.6 6.6 0 0 1-.352 1.216M11.25 3.135V.442h1.5v2.693zm0 20.423v-2.693h1.5v2.693zm7.556-17.294-1.07-1.07 1.885-1.869 1.07 1.054zM4.379 20.675l-1.07-1.054 1.885-1.884 1.07 1.069zm16.486-7.925v-1.5h2.693v1.5zm-20.423 0v-1.5h2.693v1.5zm19.18 7.94-1.886-1.884 1.07-1.07 1.869 1.885zM5.193 6.264l-1.87-1.885 1.055-1.07 1.884 1.885z"/></g><defs><clipPath id="a"><path d="M0 0h24v24H0z"/></clipPath></defs></svg>