<svg xmlns="http://www.w3.org/2000/svg" width="24" height="24" viewBox="0 0 24 24" fill='currentColor'><path d="m18.038 23.615-2.75-2.75v-1.5l-7.253-7.253q-.225.05-.422.075a9 9 0 0 1-.44.044v-1.623q1.222-.027 2.617-.71 1.396-.685 2.148-1.502L13.3 6.923q.277-.336.661-.505.386-.168.827-.168.806 0 1.365.559.558.558.558 1.364V14q0 .68-.27 1.216-.272.538-.716.915l-2.937-2.906v-3.54q-.702.656-1.474 1.125a9.5 9.5 0 0 1-1.576.774l6.666 6.666h1.5l2.75 2.75zM5.481 20.173l-1.154-1.154 4.567-4.567 2.298 2.298H8.904zM15 5.135q-.73 0-1.24-.511-.51-.51-.51-1.24 0-.727.51-1.239.51-.51 1.24-.51.729 0 1.24.51.51.51.51 1.24 0 .729-.51 1.239-.511.51-1.24.51"/></svg>