<svg xmlns="http://www.w3.org/2000/svg" width="24" height="24" viewBox="0 0 24 24" fill='currentColor'><path d="M5.116 20.5q-.667 0-1.141-.474a1.56 1.56 0 0 1-.475-1.142q0-.666.474-1.14a1.56 1.56 0 0 1 1.141-.475q.667 0 1.141.475.475.474.475 1.14 0 .667-.475 1.142a1.56 1.56 0 0 1-1.14.474m12.153 0q0-2.877-1.081-5.373a14 14 0 0 0-2.951-4.364 14 14 0 0 0-4.364-2.95Q6.377 6.73 3.5 6.73V4.5q3.339 0 6.236 1.253a16.2 16.2 0 0 1 5.077 3.434 16.2 16.2 0 0 1 3.434 5.076Q19.5 17.158 19.5 20.5zm-5.769 0a7.7 7.7 0 0 0-.625-3.113A8.2 8.2 0 0 0 9.15 14.85a8.2 8.2 0 0 0-2.538-1.725A7.7 7.7 0 0 0 3.5 12.5v-2.23q2.137 0 3.988.8a10.4 10.4 0 0 1 3.248 2.194q1.393 1.395 2.194 3.246t.8 3.99z"/></svg>