<svg xmlns="http://www.w3.org/2000/svg" width="24" height="24" viewBox="0 0 24 24" fill='currentColor'><path d="m19.8 21.907 1.054-1.054L3.184 3.184 2.132 4.238 4.5 6.608V11.1q0 3.569 2.094 6.523T12 21.48a9.76 9.76 0 0 0 4.53-2.842zM12 16.51q-1.873 0-3.187-1.313Q7.5 13.882 7.5 12.009a4.2 4.2 0 0 1 .465-1.936l5.972 5.97a4.2 4.2 0 0 1-1.937.465m6.446-.748q.546-1.184.8-2.348.255-1.164.254-2.313V5.346L12 2.538 7.088 4.373l3.395 3.41A4.1 4.1 0 0 1 12 7.508q1.873 0 3.187 1.314 1.313 1.313 1.313 3.186 0 .413-.068.794a4 4 0 0 1-.205.739z"/></svg>