<svg xmlns="http://www.w3.org/2000/svg" width="24" height="24" viewBox="0 0 24 24" fill='currentColor'><g clip-path="url(#a)"><path d="M14.25 22.94v-1.5q2.924 0 4.958-2.032 2.032-2.033 2.032-4.958h1.5q0 1.77-.669 3.316a8.6 8.6 0 0 1-1.814 2.69 8.6 8.6 0 0 1-2.692 1.815 8.3 8.3 0 0 1-3.315.67m0-3.692v-1.5q1.375 0 2.336-.962.962-.961.962-2.336h1.5q0 1.989-1.405 3.393-1.404 1.405-3.393 1.405m-1.889-3.006L9.763 13.66l-1.055 1.056 2.607 2.583-5.477 5.477-6.044-6.029 5.492-5.477 2.583 2.608 1.056-1.056-2.583-2.592 3.702-3.702 2.583 2.598 1.056-1.056L11.1 5.461 16.56 0l6.03 6.029-5.462 5.461-2.608-2.582-1.056 1.056 2.593 2.582zm-10.428.53 3.905 3.905 1.243-1.242-3.906-3.906zm6.002 1.8 1.242-1.243-3.906-3.906-1.242 1.242zm5.278-13.11 3.906 3.905 1.242-1.242-3.905-3.906zm6.012 1.81 1.242-1.243-3.906-3.906-1.242 1.242z"/></g><defs><clipPath id="a"><path d="M0 0h24v24H0z"/></clipPath></defs></svg>