<svg xmlns="http://www.w3.org/2000/svg" width="24" height="24" viewBox="0 0 24 24" fill='currentColor'><path d="M18.192 21.5q-1.872 0-3.186-1.314-1.314-1.312-1.314-3.186t1.314-3.187 3.186-1.313q1.874 0 3.187 1.313 1.313 1.314 1.313 3.187t-1.313 3.186-3.187 1.314m1.666-2.212.623-.622-1.846-1.847v-2.761h-.885v3.123zM6.385 9.885h8.211v-3.5H6.385zM3.5 20.5v-17h13.289L20.5 7.212v3.56a5.2 5.2 0 0 0-1.158-.355 6.7 6.7 0 0 0-1.203-.11q-1.53 0-2.826.628a6.6 6.6 0 0 0-2.2 1.705A1.84 1.84 0 0 0 12 12.27a2.4 2.4 0 0 0-1.77.73 2.4 2.4 0 0 0-.73 1.77q0 .884.546 1.553t1.37.854h.062a.2.2 0 0 0 .063-.01q.028.908.27 1.727t.714 1.606z"/></svg>