<svg xmlns="http://www.w3.org/2000/svg" width="24" height="24" viewBox="0 0 24 24" fill='currentColor'><path d="M16.885 20.385q-1.444 0-2.472-1.028t-1.028-2.472 1.028-2.472 2.471-1.028 2.473 1.028q1.027 1.028 1.027 2.472t-1.027 2.472-2.472 1.028m-9.77-3q-1.443 0-2.472-1.028t-1.028-2.472 1.028-2.472q1.029-1.028 2.472-1.028t2.472 1.028 1.028 2.472-1.028 2.472-2.472 1.028M11 9.692q-1.444 0-2.472-1.028T7.5 6.192t1.028-2.471Q9.557 2.692 11 2.692t2.472 1.029T14.5 6.192t-1.028 2.472Q12.443 9.692 11 9.692"/></svg>