<svg xmlns="http://www.w3.org/2000/svg" width="24" height="24" viewBox="0 0 24 24" fill='currentColor'><path d="M20.25 21.75V7q0-.93-.66-1.59T18 4.75h-1.25v1.3q0 .3-.2.5t-.5.2h-4.965q-.38 0-.573-.36a.75.75 0 0 1-.027-.711l1.717-3.716q.165-.356.455-.534.29-.18.72-.179h2.242q.485 0 .808.354t.323.838v.808H18q1.554 0 2.652 1.098A3.6 3.6 0 0 1 21.75 7v14.75zM5 21.75q-1.17 0-1.96-.79T2.25 19v-2.365q0-.664.418-1.082.42-.418 1.082-.418t1.082.418q.418.419.418 1.082v2.115h9.5v-2.115q0-.664.418-1.082.42-.418 1.082-.418t1.082.418q.418.419.418 1.082V19q0 1.17-.79 1.96t-1.96.79zm1.135-3.885V16.5q0-.742-.501-1.39t-1.384-.83v-2.222q0-.748.53-1.278t1.278-.53h7.884q.749 0 1.278.53.53.53.53 1.278v2.223q-.883.19-1.384.833-.5.644-.5 1.386v1.365z"/></svg>