<svg xmlns="http://www.w3.org/2000/svg" width="24" height="24" viewBox="0 0 24 24" fill='currentColor'><path d="M18.796 17.99q.513 0 .864-.345.35-.345.35-.857 0-.51-.348-.861a1.17 1.17 0 0 0-.861-.35q-.514 0-.864.348-.35.347-.35.861 0 .515.347.86.348.345.862.345m.002 1.51a2.6 2.6 0 0 1-1.92-.791 2.6 2.6 0 0 1-.791-1.92q0-1.13.79-1.921a2.6 2.6 0 0 1 1.918-.791q1.128 0 1.916.79.789.792.789 1.921a2.62 2.62 0 0 1-.788 1.921 2.6 2.6 0 0 1-1.914.791m-13.58-1.51q.515 0 .86-.345t.345-.857-.346-.861a1.16 1.16 0 0 0-.856-.35q-.51 0-.862.348-.35.347-.35.861 0 .515.348.86.349.345.862.345m.003 1.51a2.63 2.63 0 0 1-1.927-.791 2.6 2.6 0 0 1-.794-1.92q0-1.13.794-1.921a2.63 2.63 0 0 1 1.927-.791q.912 0 1.624.555a2.7 2.7 0 0 1 .96 1.426h5.516a5.2 5.2 0 0 1 1.379-2.94 5.33 5.33 0 0 1 2.802-1.599l-1.42-6.317a.23.23 0 0 0-.096-.149.3.3 0 0 0-.173-.053H12.28V3.5h3.518q.631 0 1.128.392.496.39.636 1.014l1.776 7.94h-.539a3.94 3.94 0 0 0-2.849 1.16q-1.19 1.161-1.19 2.811v.74H7.806a2.67 2.67 0 0 1-.975 1.402q-.717.54-1.61.541"/></svg>