<svg xmlns="http://www.w3.org/2000/svg" width="24" height="24" viewBox="0 0 24 24" fill='currentColor'><path d="m3.952 22.654-1.206-.902 2.735-3.646.794-4.518a1.72 1.72 0 0 1 1.317-1.473l9.581-2.904 1.98-4.115 2.8-2.788.816.798-2.442 2.736-1.596 4.504-4.846 3.423-5.927 1.879-1.18 3.227zM3 14.942q-.758 0-1.302-.544a1.78 1.78 0 0 1-.544-1.302q0-.758.544-1.302A1.78 1.78 0 0 1 3 11.25q.758 0 1.302.544.544.545.544 1.302 0 .758-.544 1.302A1.78 1.78 0 0 1 3 14.942m5.862-4.852a1.27 1.27 0 0 1-1.022-.123 1.34 1.34 0 0 1-.646-.82 1.28 1.28 0 0 1 .128-1.03q.284-.498.817-.638l4.405-1.22.689 2.612z"/></svg>