<svg xmlns="http://www.w3.org/2000/svg" width="24" height="24" viewBox="0 0 24 24" fill='currentColor'><path d="M7 21.308q-1.873 0-3.186-1.314Q2.5 18.681 2.5 16.808q0-1.874 1.314-3.187Q5.126 12.308 7 12.308t3.187 1.313 1.313 3.187-1.313 3.186T7 21.308m13.523-.731-6.342-6.343q-.135.116-.322.222a2.3 2.3 0 0 1-.351.163 12 12 0 0 0-.896-1.04 4.64 4.64 0 0 0 1.803-1.634q.7-1.072.7-2.445 0-1.923-1.346-3.27-1.346-1.345-3.269-1.345T7.23 6.23Q5.885 7.577 5.885 9.5q0 .227.032.451t.076.441q-.335.03-.737.148-.404.116-.722.258A5.7 5.7 0 0 1 4.385 9.5q0-2.562 1.777-4.338T10.5 3.385t4.339 1.777q1.776 1.776 1.776 4.338 0 1.075-.356 2.033a6.3 6.3 0 0 1-.947 1.71l6.265 6.28zm-15.288-1.38L7 17.43l1.75 1.765.639-.623-1.766-1.765 1.766-1.766-.623-.623L7 16.184 5.234 14.42l-.622.623 1.765 1.766-1.765 1.765z"/></svg>