<svg xmlns="http://www.w3.org/2000/svg" width="24" height="24" viewBox="0 0 24 24" fill='currentColor'><path d="M14.412 13.942q-.652 0-1-.417-.346-.417-.347-.892 0-.366.152-.668.15-.3.476-.523.238-.156.424-.405.187-.249.297-.747a3 3 0 0 0-.159-.091.7.7 0 0 1-.144-.105q-.85.337-1.198.463a2.2 2.2 0 0 1-.763.126q-.834 0-1.463-.73-.63-.728-.63-2.098 0-.653.418-1.005.417-.352.892-.352.366 0 .668.156.3.156.523.48.155.24.409.422.254.185.752.29.05-.08.092-.155a.7.7 0 0 1 .104-.137 50 50 0 0 1-.462-1.199 2.2 2.2 0 0 1-.126-.763q0-.834.729-1.463t2.099-.629q.652 0 1 .417.347.418.347.892 0 .366-.151.668T16.875 6a1.7 1.7 0 0 0-.425.405q-.186.249-.296.747.081.05.158.092.078.041.144.104.85-.336 1.198-.462a2.2 2.2 0 0 1 .763-.127q.835 0 1.459.73.624.728.624 2.099 0 .653-.411 1.004-.411.352-.887.352-.367 0-.676-.151a1.37 1.37 0 0 1-.528-.476 1.7 1.7 0 0 0-.403-.425q-.249-.186-.747-.296a3 3 0 0 0-.092.158.7.7 0 0 1-.104.144q.336.85.462 1.192.127.343.127.76 0 .834-.73 1.463-.728.63-2.099.63m.866-4.346a.85.85 0 0 0 .622-.252.84.84 0 0 0 .254-.623.83.83 0 0 0-.252-.617.85.85 0 0 0-.623-.248.84.84 0 0 0-.617.248.84.84 0 0 0-.248.617q0 .367.248.621.249.255.616.254M16.584 20.5H6.346L3.701 10.258a6 6 0 0 1-.148-.716 5 5 0 0 1-.053-.73q0-.65.148-1.273.149-.622.444-1.199.187-.382.542-.601a1.43 1.43 0 0 1 .765-.22q.473 0 .816.343.342.345.343.808a1.13 1.13 0 0 1-.324.797 2.14 2.14 0 0 0-.6 1.225q-.098.705.197 1.37l.461.992a22.5 22.5 0 0 1 1.14 3.107q.452 1.59.452 3.25v1.235q.349-.265.762-.437a2.3 2.3 0 0 1 .87-.17h5.33q.729 0 1.233.502t.504 1.209z"/></svg>