<svg xmlns="http://www.w3.org/2000/svg" width="24" height="24" viewBox="0 0 24 24" fill='currentColor'><path d="M4.114 17.296a9.8 9.8 0 0 1-1.188-2.482A9.2 9.2 0 0 1 2.5 12q0-1.489.426-2.821a9.8 9.8 0 0 1 1.188-2.475l1.252.821A7.9 7.9 0 0 0 4 12a7.84 7.84 0 0 0 1.365 4.46zm7.886.512q-2.414 0-4.11-1.697Q6.192 14.413 6.192 12q0-2.415 1.697-4.111Q9.588 6.192 12 6.192q2.414 0 4.11 1.698 1.698 1.697 1.698 4.11 0 2.415-1.698 4.11-1.696 1.698-4.11 1.698m7.861-.512-1.236-.836a7.3 7.3 0 0 0 1.025-2.08Q20 13.25 20 12t-.35-2.387a7.3 7.3 0 0 0-1.025-2.088l1.236-.821a9.8 9.8 0 0 1 1.205 2.475Q21.5 10.512 21.5 12q0 1.473-.434 2.814a9.8 9.8 0 0 1-1.204 2.482"/></svg>