<svg xmlns="http://www.w3.org/2000/svg" width="24" height="24" viewBox="0 0 24 24" fill='currentColor'><path d="M4.114 17.297a9.8 9.8 0 0 1-1.188-2.483A9.2 9.2 0 0 1 2.5 12q0-1.488.426-2.82a9.8 9.8 0 0 1 1.188-2.476l1.252.821A7.9 7.9 0 0 0 4 12a7.84 7.84 0 0 0 1.365 4.46zM17.27 14.41 9.59 6.73q.546-.256 1.154-.397A5.6 5.6 0 0 1 12 6.193q2.414 0 4.11 1.697 1.698 1.696 1.698 4.11 0 .647-.14 1.255t-.397 1.155m2.704 2.704-1.085-1.085q.535-.885.822-1.894A7.8 7.8 0 0 0 20 12q0-1.25-.363-2.387a8 8 0 0 0-1.012-2.088l1.236-.82a9.8 9.8 0 0 1 1.205 2.474Q21.5 10.512 21.5 12q0 1.415-.399 2.697a10 10 0 0 1-1.126 2.417m-.383 4.602-4.703-4.72a5.6 5.6 0 0 1-1.358.597q-.735.215-1.531.215-2.414 0-4.11-1.697Q6.192 14.413 6.192 12q0-.797.216-1.531.215-.735.596-1.358l-4.72-4.72L3.34 3.34l17.323 17.323z"/></svg>