<svg xmlns="http://www.w3.org/2000/svg" width="24" height="24" viewBox="0 0 24 24" fill='currentColor'><path d="M19.804 21.942 8.356 10.494q-.165.346-.26.716Q8 11.58 8 12q0 .825.313 1.55.312.724.862 1.275l-1.07 1.07a5.8 5.8 0 0 1-1.173-1.755A5.3 5.3 0 0 1 6.5 12q0-.738.189-1.408.188-.668.52-1.244L5.4 7.536a8.1 8.1 0 0 0-1.03 2.081A7.6 7.6 0 0 0 4 12a7.8 7.8 0 0 0 2.35 5.65l-1.07 1.07a9.8 9.8 0 0 1-2.036-3.03A9.2 9.2 0 0 1 2.5 12q0-1.58.48-2.973.482-1.395 1.334-2.575L2.058 4.196l1.07-1.069 17.745 17.746zm.171-4.798-1.084-1.084A7.84 7.84 0 0 0 20 12q-.001-1.665-.626-3.116A7.9 7.9 0 0 0 17.65 6.35l1.07-1.07a9.6 9.6 0 0 1 2.036 3.014Q21.5 10.016 21.5 12q0 1.428-.399 2.725a9.7 9.7 0 0 1-1.126 2.42M17.04 14.21l-1.174-1.176q.06-.25.097-.504Q16 12.275 16 12q0-.825-.312-1.55a4.1 4.1 0 0 0-.863-1.275l1.07-1.07a5.6 5.6 0 0 1 1.173 1.74q.432.995.432 2.155 0 .594-.121 1.148a6 6 0 0 1-.339 1.062"/></svg>