<svg xmlns="http://www.w3.org/2000/svg" width="24" height="24" viewBox="0 0 24 24" fill='currentColor'><path d="M12.002 21.5a9.3 9.3 0 0 1-3.706-.748 9.6 9.6 0 0 1-3.016-2.03 9.6 9.6 0 0 1-2.032-3.016 9.25 9.25 0 0 1-.748-3.704q0-1.972.748-3.706a9.6 9.6 0 0 1 2.03-3.016 9.6 9.6 0 0 1 3.016-2.032 9.25 9.25 0 0 1 3.704-.748q1.972 0 3.706.748a9.6 9.6 0 0 1 3.017 2.03 9.6 9.6 0 0 1 2.03 3.016 9.25 9.25 0 0 1 .749 3.704q0 1.972-.748 3.706a9.6 9.6 0 0 1-2.03 3.017 9.6 9.6 0 0 1-3.016 2.03 9.25 9.25 0 0 1-3.704.749m-4.427-9.111L10.861 10 7.576 7.612l-.708.96L8.831 10l-1.964 1.429zm2.925 4.45 1.5-1.5 1.5 1.5 1.5-1.5.975.975.839-.839L15 13.662l-1.5 1.5-1.5-1.5-1.5 1.5-1.5-1.5-1.814 1.813.839.839.975-.976zm5.925-4.45.708-.96L15.169 10l1.964-1.429-.708-.96L13.139 10z"/></svg>