<svg xmlns="http://www.w3.org/2000/svg" width="24" height="24" viewBox="0 0 24 24" fill='currentColor'><path d="M9.154 15.346h5.692v-1.192H9.154zm2.848 6.154a9.3 9.3 0 0 1-3.706-.748 9.6 9.6 0 0 1-3.016-2.03 9.6 9.6 0 0 1-2.032-3.016 9.25 9.25 0 0 1-.748-3.704q0-1.972.748-3.706a9.6 9.6 0 0 1 2.03-3.016 9.6 9.6 0 0 1 3.016-2.032 9.25 9.25 0 0 1 3.704-.748q1.972 0 3.706.748a9.6 9.6 0 0 1 3.017 2.03 9.6 9.6 0 0 1 2.03 3.016 9.25 9.25 0 0 1 .749 3.704q0 1.972-.748 3.706a9.6 9.6 0 0 1-2.03 3.017 9.6 9.6 0 0 1-3.016 2.03 9.25 9.25 0 0 1-3.704.749M8.548 8.654q-.733 0-1.353.397a3.7 3.7 0 0 0-1.05 1.01l1 .662q.268-.356.622-.609.352-.252.781-.253.428 0 .782.248.353.249.622.589l1-.662a3.8 3.8 0 0 0-1.054-.99 2.5 2.5 0 0 0-1.35-.392m6.904 0q-.734 0-1.353.397a3.7 3.7 0 0 0-1.051 1.01l1 .662a3 3 0 0 1 .622-.593q.354-.253.782-.253.425 0 .787.245.363.246.617.601l1-.662a3.7 3.7 0 0 0-1.055-1.01 2.46 2.46 0 0 0-1.349-.397"/></svg>