<svg xmlns="http://www.w3.org/2000/svg" width="24" height="24" viewBox="0 0 24 24" fill='currentColor'><path d="M12 17.192a5 5 0 0 0 2.861-.876A5.2 5.2 0 0 0 16.774 14H7.227a5.2 5.2 0 0 0 1.912 2.316 5 5 0 0 0 2.861.876M7.8 10.79l1.1-1.07 1.07 1.07.838-.839L8.9 8.012 6.961 9.95zm6.23 0 1.07-1.07 1.1 1.07.838-.839L15.1 8.012 13.192 9.95zM12.003 21.5a9.3 9.3 0 0 1-3.706-.748 9.6 9.6 0 0 1-3.016-2.03 9.6 9.6 0 0 1-2.032-3.016 9.25 9.25 0 0 1-.748-3.704q0-1.972.748-3.706a9.6 9.6 0 0 1 2.03-3.016 9.6 9.6 0 0 1 3.016-2.032 9.25 9.25 0 0 1 3.704-.748q1.972 0 3.706.748a9.6 9.6 0 0 1 3.017 2.03 9.6 9.6 0 0 1 2.03 3.016 9.25 9.25 0 0 1 .749 3.704q0 1.972-.748 3.706a9.6 9.6 0 0 1-2.03 3.017 9.6 9.6 0 0 1-3.016 2.03 9.25 9.25 0 0 1-3.704.749"/></svg>