<svg xmlns="http://www.w3.org/2000/svg" width="24" height="24" viewBox="0 0 24 24" fill='currentColor'><path d="M15.406 10.808q.546 0 .926-.383.38-.381.38-.927t-.383-.926a1.27 1.27 0 0 0-.928-.38q-.545 0-.925.383-.38.381-.38.927t.382.926.928.38m-6.808 0q.546 0 .926-.383.38-.381.38-.927t-.382-.926a1.27 1.27 0 0 0-.928-.38q-.546 0-.926.383-.38.381-.38.927t.382.926.928.38m.479 4.538h5.846v-1.192H9.077zm2.925 6.154a9.3 9.3 0 0 1-3.706-.748 9.6 9.6 0 0 1-3.016-2.03 9.6 9.6 0 0 1-2.032-3.016 9.25 9.25 0 0 1-.748-3.704q0-1.972.748-3.706a9.6 9.6 0 0 1 2.03-3.016 9.6 9.6 0 0 1 3.016-2.032 9.25 9.25 0 0 1 3.704-.748q1.972 0 3.706.748a9.6 9.6 0 0 1 3.017 2.03 9.6 9.6 0 0 1 2.03 3.016 9.25 9.25 0 0 1 .749 3.704q0 1.972-.748 3.706a9.6 9.6 0 0 1-2.03 3.017 9.6 9.6 0 0 1-3.016 2.03 9.25 9.25 0 0 1-3.704.749"/></svg>