<svg xmlns="http://www.w3.org/2000/svg" width="24" height="24" viewBox="0 0 24 24" fill='currentColor'><path d="M1.442 14.558V2.442h21.116v12.116zm1.777 3.586-.056-1.192 17.668-.93.055 1.192zm-.065 2.485v-1.192h17.692v1.192zm7.317-9.36q1.725 0 3.332-.587a7.4 7.4 0 0 0 2.814-1.832q.15.926.98 1.417a3.7 3.7 0 0 0 1.836.512V6.22a3.7 3.7 0 0 0-1.84.534q-.835.505-.976 1.445a8.7 8.7 0 0 0-2.834-1.836 8.9 8.9 0 0 0-3.312-.633q-1.85 0-3.564.635A5.93 5.93 0 0 0 4.106 8.5q1.077 1.5 2.796 2.135t3.57.634"/></svg>