<svg xmlns="http://www.w3.org/2000/svg" width="24" height="24" viewBox="0 0 24 24" fill='currentColor'><path d="M1.5 12q0-2.184.824-4.098.825-1.914 2.252-3.334a10.7 10.7 0 0 1 3.337-2.244A10.2 10.2 0 0 1 12 1.5q2.18 0 4.092.82a10.6 10.6 0 0 1 3.342 2.239 10.5 10.5 0 0 1 2.247 3.333Q22.5 9.806 22.5 12H21q0-1.874-.712-3.512a9.2 9.2 0 0 0-1.938-2.863A9 9 0 0 0 15.487 3.7 8.8 8.8 0 0 0 12 3a8.8 8.8 0 0 0-3.488.7A9 9 0 0 0 5.65 5.625a9.2 9.2 0 0 0-1.938 2.863A8.7 8.7 0 0 0 3 12zm4 0q0-2.748 1.901-4.624Q9.301 5.5 12 5.5q2.698 0 4.599 1.876Q18.499 9.251 18.5 12H17q0-2.075-1.463-3.537Q14.075 7 12 7T8.463 8.463 7 12zM9 22.054 7.946 21l3.304-3.304v-3.56a2.3 2.3 0 0 1-1.092-.828 2.16 2.16 0 0 1-.417-1.299q0-.952.652-1.606.653-.653 1.607-.653t1.607.653q.652.652.652 1.606 0 .722-.417 1.299-.417.576-1.092.829v3.56L16.054 21 15 22.054l-3-3z"/></svg>