<svg xmlns="http://www.w3.org/2000/svg" width="24" height="24" viewBox="0 0 24 24" fill='currentColor'><path d="m12.04 15.73 3.231-3.23q.396-.396.512-.96.115-.565-.116-1.092a2 2 0 0 0-.692-.853 1.76 1.76 0 0 0-1.038-.326q-.577 0-1.039.354a9 9 0 0 0-.857.75 12 12 0 0 0-.861-.75 1.6 1.6 0 0 0-1.026-.354q-.577 0-1.046.314a1.9 1.9 0 0 0-.7.84 1.8 1.8 0 0 0-.113 1.101q.119.564.515.976zM9.692 21.5l-.38-3.046a5.3 5.3 0 0 1-1.579-.896L4.912 18.75l-2.308-4 2.44-1.844a5 5 0 0 1-.049-.448 7 7 0 0 1 0-.882q.014-.22.05-.482L2.603 9.25l2.308-3.98 2.811 1.182a6.4 6.4 0 0 1 .772-.524 5 5 0 0 1 .807-.382l.39-3.046h4.616l.38 3.056q.45.163.815.381t.735.515l2.85-1.183 2.308 3.981-2.479 1.873q.054.243.059.453t.005.424q0 .204-.01.415-.01.21-.069.481l2.46 1.854-2.308 4-2.815-1.202q-.372.296-.758.524a4.6 4.6 0 0 1-.793.372l-.38 3.056z"/></svg>