<svg xmlns="http://www.w3.org/2000/svg" width="24" height="24" viewBox="0 0 24 24" fill='currentColor'><path d="M11.997 21.5q-1.95 0-3.683-.747a9.6 9.6 0 0 1-3.026-2.041 9.6 9.6 0 0 1-2.04-3.026 9.2 9.2 0 0 1-.748-3.683q0-1.975.749-3.7a9.7 9.7 0 0 1 2.04-3.015A9.6 9.6 0 0 1 8.313 3.25a9.2 9.2 0 0 1 3.684-.749 9.2 9.2 0 0 1 3.698.749q1.725.75 3.017 2.04a9.7 9.7 0 0 1 2.039 3.015q.75 1.725.749 3.699 0 1.95-.749 3.685a9.6 9.6 0 0 1-2.04 3.024 9.7 9.7 0 0 1-3.015 2.039q-1.725.75-3.699.749M7.5 12.77q.529 0 .899-.371.37-.37.37-.899 0-.528-.37-.899a1.22 1.22 0 0 0-.899-.37q-.529 0-.899.37t-.37.899.37.899.899.37m9 0q.528 0 .899-.371.37-.37.37-.899 0-.528-.37-.899a1.22 1.22 0 0 0-.899-.37q-.528 0-.899.37-.37.37-.37.899 0 .528.37.899.37.37.899.37M9 17.27q.528 0 .899-.371.37-.37.37-.899 0-.528-.37-.899a1.22 1.22 0 0 0-.899-.37q-.528 0-.899.37-.37.37-.37.899 0 .528.37.899.37.37.899.37m6 0q.528 0 .899-.371.37-.37.37-.899 0-.528-.37-.899a1.22 1.22 0 0 0-.899-.37q-.528 0-.899.37-.37.37-.37.899 0 .528.37.899.37.37.899.37m-4.5-8.5h3q.544 0 .907-.363a1.23 1.23 0 0 0 .362-.907q0-.544-.362-.907a1.23 1.23 0 0 0-.907-.362h-3q-.544 0-.907.362a1.23 1.23 0 0 0-.362.907q0 .544.362.907.363.362.907.362"/></svg>