<svg xmlns="http://www.w3.org/2000/svg" width="24" height="24" viewBox="0 0 24 24" fill='currentColor'><path d="M8.25 22.75V9.25h7.5v13.5zM12 14.039a1 1 0 0 0 .734-.305 1 1 0 0 0 .305-.734 1 1 0 0 0-.305-.734 1 1 0 0 0-.734-.305 1 1 0 0 0-.734.305 1 1 0 0 0-.304.734 1 1 0 0 0 .304.734 1 1 0 0 0 .734.305M8.47 7.104 7.415 6.05a6.5 6.5 0 0 1 2.12-1.342A6.8 6.8 0 0 1 12 4.25q1.285 0 2.464.458a6.5 6.5 0 0 1 2.12 1.342l-1.053 1.054a5.1 5.1 0 0 0-1.642-1.01A5.3 5.3 0 0 0 12 5.75q-.98 0-1.888.343a5.1 5.1 0 0 0-1.643 1.01m-2.82-2.8L4.566 3.2a10.9 10.9 0 0 1 3.433-2.184A10.7 10.7 0 0 1 12 .25q2.075 0 3.991.77a10.2 10.2 0 0 1 3.394 2.23L18.35 4.304A8.75 8.75 0 0 0 15.43 2.4 9.2 9.2 0 0 0 12 1.75a9.2 9.2 0 0 0-3.43.651 8.75 8.75 0 0 0-2.92 1.903"/></svg>