<svg xmlns="http://www.w3.org/2000/svg" width="24" height="24" viewBox="0 0 24 24" fill='currentColor'><path d="M8 23.885a.85.85 0 0 1-.626-.259.85.85 0 0 1-.258-.626q0-.367.258-.626A.85.85 0 0 1 8 22.116q.368 0 .626.258a.85.85 0 0 1 .258.626.85.85 0 0 1-.258.626.85.85 0 0 1-.626.258m4 0a.85.85 0 0 1-.626-.259.85.85 0 0 1-.258-.626q0-.367.258-.626a.85.85 0 0 1 .626-.258q.368 0 .626.258a.85.85 0 0 1 .258.626.85.85 0 0 1-.258.626.85.85 0 0 1-.626.258m4 0a.85.85 0 0 1-.626-.259.85.85 0 0 1-.258-.626q0-.367.258-.626a.85.85 0 0 1 .626-.258q.367 0 .626.258a.85.85 0 0 1 .258.626.85.85 0 0 1-.258.626.85.85 0 0 1-.626.258M12 13.5q-1.048 0-1.774-.726A2.4 2.4 0 0 1 9.5 11V5q0-1.048.726-1.774A2.4 2.4 0 0 1 12 2.5q1.048 0 1.774.726T14.5 5v6q0 1.048-.726 1.774A2.4 2.4 0 0 1 12 13.5m-.75 7.25v-3.292q-2.475-.293-4.112-2.13Q5.5 13.49 5.5 11H7q0 2.075 1.463 3.537Q9.926 16 12 16q2.075 0 3.537-1.463Q17 13.075 17 11h1.5q0 2.49-1.637 4.328t-4.113 2.13v3.292z"/></svg>