<svg xmlns="http://www.w3.org/2000/svg" width="24" height="24" viewBox="0 0 24 24" fill='currentColor'><path d="M16.885 21.5v-9.23q.37 0 .717.057.346.058.667.173v8.77a4 4 0 0 1-.667.172q-.346.058-.718.058m-2.308-.642v-7.946q.321-.191.66-.334.338-.143.724-.218v9.05q-.386-.075-.725-.219a5.5 5.5 0 0 1-.659-.333m4.615 0v-7.946q1.039.601 1.673 1.64t.635 2.332q0 1.294-.635 2.333a4.7 4.7 0 0 1-1.673 1.64m-5.538-.693a4.7 4.7 0 0 1-1.014-1.467 4.4 4.4 0 0 1-.37-1.814q0-.972.37-1.82a4.6 4.6 0 0 1 1.014-1.476zM9.692 21.5l-.38-3.046a4.2 4.2 0 0 1-.834-.377 6 6 0 0 1-.745-.52L4.912 18.75l-2.308-4 2.44-1.844a5 5 0 0 1-.049-.444 7 7 0 0 1 .05-1.368L2.603 9.25l2.308-3.98 2.811 1.182q.362-.286.75-.52.388-.231.829-.386l.39-3.046h4.616l.38 3.056q.432.154.815.381.383.228.735.515l2.85-1.183 2.308 3.981-1.85 1.4a7 7 0 0 0-1.3-.426 6.3 6.3 0 0 0-1.361-.147q-.597 0-1.155.126a9 9 0 0 0-1.11.328 3 3 0 0 0-1.1-1.116A2.9 2.9 0 0 0 12.011 9q-1.248 0-2.125.876A2.9 2.9 0 0 0 9.012 12q0 .806.396 1.495.394.69 1.08 1.097a5.7 5.7 0 0 0-.314 1.254 10 10 0 0 0-.087 1.298q.045 1.227.505 2.355a6.2 6.2 0 0 0 1.307 2.001z"/></svg>