<svg xmlns="http://www.w3.org/2000/svg" width="24" height="24" viewBox="0 0 24 24" fill='currentColor'><path d="M11.289 16.615h1.422l.243-1.365q.435-.125.75-.296t.619-.458l1.316.45.72-1.219-1.044-.885q.108-.446.108-.842t-.108-.842l1.045-.885-.721-1.219-1.316.45a3 3 0 0 0-.62-.458 3.7 3.7 0 0 0-.75-.296l-.242-1.365H11.29l-.243 1.365q-.435.125-.75.296a3 3 0 0 0-.619.458l-1.315-.45-.721 1.219 1.044.885a3.6 3.6 0 0 0-.108.842q0 .396.108.842l-1.045.885.721 1.219 1.316-.45q.304.287.62.458.315.171.75.296zM12 14q-.825 0-1.412-.588A1.93 1.93 0 0 1 10 12q0-.825.588-1.412A1.93 1.93 0 0 1 12 10q.825 0 1.412.588Q14 11.175 14 12t-.588 1.412A1.93 1.93 0 0 1 12 14m-8.5 6.5v-17h17v17z"/></svg>