<svg xmlns="http://www.w3.org/2000/svg" width="24" height="24" viewBox="0 0 24 24" fill='currentColor'><path d="M14.346 21.46a.89.89 0 0 1-.795-.153.86.86 0 0 1-.359-.73v-4.712q0-.46.364-.725a.93.93 0 0 1 .815-.148q.849.231 1.706.321a16.5 16.5 0 0 0 3.474-.004q.87-.096 1.718-.326a.86.86 0 0 1 .796.148.88.88 0 0 1 .358.734v4.712q0 .461-.358.734a.86.86 0 0 1-.796.148 11 11 0 0 0-1.718-.325 16 16 0 0 0-3.486 0 11 11 0 0 0-1.719.325m-4.654.04-.38-3.046a5.3 5.3 0 0 1-1.579-.896L4.912 18.75l-2.308-4 2.44-1.844a5 5 0 0 1-.049-.448 7 7 0 0 1 0-.882q.014-.22.05-.482L2.603 9.25l2.308-3.98 2.811 1.182a6.4 6.4 0 0 1 .772-.524 5 5 0 0 1 .807-.382l.39-3.046h4.616l.38 3.056q.45.163.815.381t.735.515l2.85-1.183 2.308 3.981-2.479 1.873q.054.243.059.453t.005.424v.375q0 .183-.031.375h-4.04a2.5 2.5 0 0 0 .101-.75q0-1.248-.875-2.124A2.9 2.9 0 0 0 12.012 9q-1.264 0-2.132.876A2.9 2.9 0 0 0 9.01 12q0 .989.554 1.749A3 3 0 0 0 11 14.831V21.5z"/></svg>