<svg xmlns="http://www.w3.org/2000/svg" width="24" height="24" viewBox="0 0 24 24" fill='currentColor'><path d="M13.192 22.423v-9.23h9.231v9.23zm1.385-1.384h6.461v-.743a4.3 4.3 0 0 0-1.41-1.141 3.95 3.95 0 0 0-1.82-.424q-.989 0-1.822.424a4.3 4.3 0 0 0-1.409 1.141zm3.23-3.231q.577 0 .982-.404.403-.404.403-.981 0-.576-.404-.98a1.34 1.34 0 0 0-.98-.404q-.578 0-.981.403-.404.404-.404.981 0 .578.404.98.404.405.98.405M9.693 21.5l-.38-3.046a5.3 5.3 0 0 1-1.579-.896L4.912 18.75l-2.308-4 2.44-1.844a5 5 0 0 1-.049-.448 7 7 0 0 1 0-.882q.014-.22.05-.482L2.603 9.25l2.308-3.98 2.811 1.182a6.4 6.4 0 0 1 .772-.524 5 5 0 0 1 .807-.382l.39-3.046h4.616l.38 3.056q.45.163.815.381t.735.515l2.85-1.183 2.308 3.981-2.202 1.673q0 .02.005.038l.005.039h-4.381a3.13 3.13 0 0 0-1.072-1.432A2.8 2.8 0 0 0 12.011 9q-1.248 0-2.123.876A2.9 2.9 0 0 0 9.012 12q0 .998.545 1.754A2.97 2.97 0 0 0 11 14.83v6.67z"/></svg>