<svg xmlns="http://www.w3.org/2000/svg" width="24" height="24" viewBox="0 0 24 24" fill='currentColor'><path d="M20 9.75a.73.73 0 0 1-.535-.216A.73.73 0 0 1 19.25 9q0-.32.215-.534A.73.73 0 0 1 20 8.25q.32 0 .535.216A.73.73 0 0 1 20.75 9a.73.73 0 0 1-.215.534.73.73 0 0 1-.535.216m-9.75 12v-3.956l-2.85 2.85L6.356 19.6l3.894-3.894V13.75H8.294L4.4 17.644 3.356 16.6l2.85-2.85H2.25v-1.5h3.956L3.356 9.4 4.4 8.356l3.894 3.894h1.956v-1.956L6.356 6.4 7.4 5.356l2.85 2.85V4.25h1.5v3.956l2.85-2.85L15.644 6.4l-3.894 3.894v1.956h8v1.5h-3.956l2.85 2.85-1.044 1.044-3.894-3.894H11.75v1.956l3.894 3.894-1.044 1.044-2.85-2.85v3.956zm9-14.885V2.25h1.5v4.615z"/></svg>