<svg xmlns="http://www.w3.org/2000/svg" width="24" height="24" viewBox="0 0 24 24" fill='currentColor'><path d="M14.5 14.75q.729 0 1.24-.51.51-.511.51-1.24t-.51-1.24-1.24-.51q-.345 0-.65.133a2.1 2.1 0 0 0-.55.348l-3.06-1.543a.5.5 0 0 0 .01-.089v-.203q0-.044-.01-.094l3.05-1.533q.247.216.555.348.309.133.655.133.729 0 1.24-.51.51-.511.51-1.24t-.51-1.24q-.511-.51-1.24-.51t-1.24.51T12.75 7v.099q0 .04.01.099L9.71 8.731a2.1 2.1 0 0 0-.555-.348A1.6 1.6 0 0 0 8.5 8.25q-.729 0-1.24.51-.51.511-.51 1.24t.51 1.24 1.24.51q.346 0 .655-.137.308-.138.555-.354l3.05 1.543a1 1 0 0 0-.01.099V13q0 .729.51 1.24.511.51 1.24.51m-12 6.288V2.5h19v15H6.039z"/></svg>