<svg xmlns="http://www.w3.org/2000/svg" width="24" height="24" viewBox="0 0 24 24" fill='currentColor'><g clip-path="url(#a)"><path d="M10.025 23.5a9.3 9.3 0 0 1-3.708-.75 9.6 9.6 0 0 1-3.028-2.039 9.6 9.6 0 0 1-2.04-3.024A9.2 9.2 0 0 1 .5 14q0-1.97.749-3.708a9.6 9.6 0 0 1 2.04-3.029q1.29-1.29 3.028-2.04a9.3 9.3 0 0 1 4.433-.718v1.5q-.192-.015-.363-.023a8 8 0 0 0-.362-.007q-3.35 0-5.687 2.337T2 14q0 3.325 2.338 5.662Q6.675 22 10.025 22q3.325 0 5.663-2.338T18.025 14h1.5q0 1.953-.749 3.687a9.6 9.6 0 0 1-2.04 3.024 9.7 9.7 0 0 1-3.016 2.04q-1.725.749-3.695.749m3.467-4.964L9.25 14.294V9.057h1.5v4.648l3.787 3.787zm8.281-6.93q-.661-3.378-3.01-5.86a11.8 11.8 0 0 0-5.628-3.358V.848a13.23 13.23 0 0 1 6.69 3.841q2.77 2.917 3.473 6.916zm-4.133 0a7.7 7.7 0 0 0-1.694-3.003 8 8 0 0 0-2.811-1.996V5.002a9.34 9.34 0 0 1 3.853 2.525 9.25 9.25 0 0 1 2.212 4.078z"/></g><defs><clipPath id="a"><path d="M0 0h24v24H0z"/></clipPath></defs></svg>