<svg xmlns="http://www.w3.org/2000/svg" width="24" height="24" viewBox="0 0 24 24" fill='currentColor'><path d="M18.001 21.75a2.65 2.65 0 0 1-1.948-.802A2.65 2.65 0 0 1 15.25 19q0-.187.03-.388.03-.2.09-.37l-7.397-4.33a3 3 0 0 1-.902.616A2.6 2.6 0 0 1 6 14.75a2.65 2.65 0 0 1-1.948-.802 2.65 2.65 0 0 1-.802-1.947q0-1.145.802-1.948A2.65 2.65 0 0 1 6 9.25q.566 0 1.071.222.506.222.902.617l7.396-4.331a2 2 0 0 1-.09-.37A3 3 0 0 1 15.25 5q0-1.146.802-1.948a2.65 2.65 0 0 1 1.947-.802q1.145 0 1.948.802.803.801.803 1.947t-.802 1.948A2.65 2.65 0 0 1 18 7.75q-.566 0-1.071-.222a3 3 0 0 1-.902-.616l-7.396 4.33q.06.17.09.37a2.6 2.6 0 0 1 0 .774 2 2 0 0 1-.09.372l7.396 4.33q.396-.393.902-.616A2.6 2.6 0 0 1 18 16.25q1.146 0 1.948.802a2.65 2.65 0 0 1 .802 1.947q0 1.145-.802 1.948a2.65 2.65 0 0 1-1.947.803"/></svg>