<svg xmlns="http://www.w3.org/2000/svg" width="24" height="24" viewBox="0 0 24 24" fill='currentColor'><path d="M12 21.48q-3.244-.885-5.372-3.819T4.5 11.1V5.346L12 2.538l7.5 2.808V11.1q0 3.627-2.128 6.561T12 21.481m-.02-4.711a.83.83 0 0 0 .604-.255.83.83 0 0 0 .255-.603.82.82 0 0 0-.255-.603.82.82 0 0 0-.603-.255.82.82 0 0 0-.603.255.82.82 0 0 0-.255.603q0 .348.255.603.254.255.603.255m-.58-2.989h1.192q.01-.264.03-.53a1.2 1.2 0 0 1 .143-.497q.16-.311.386-.544t.472-.463q.425-.435.747-.945t.322-1.155q0-1.049-.8-1.722a2.82 2.82 0 0 0-1.873-.674q-.923 0-1.662.512-.74.513-1.034 1.376l1.08.444q.189-.51.63-.84.442-.33.986-.33.589 0 1.035.353.446.354.446.912 0 .453-.277.84a5 5 0 0 1-.612.706q-.29.266-.561.548t-.446.638a1.8 1.8 0 0 0-.18.666q-.024.344-.024.705"/></svg>