<svg xmlns="http://www.w3.org/2000/svg" width="24" height="24" viewBox="0 0 24 24" fill='currentColor'><path d="M15.74 21.5v-4.77h1v-1q0-.787.55-1.335a1.82 1.82 0 0 1 1.335-.55q.787 0 1.335.55.55.549.55 1.335v1h.99v4.77zm1.885-4.77h2v-1a.97.97 0 0 0-.288-.712.97.97 0 0 0-.712-.288.97.97 0 0 0-.712.288.97.97 0 0 0-.288.712zM12 21.48q-3.244-.885-5.372-3.819T4.5 11.1V5.346L12 2.538l7.5 2.808V11.1a8 8 0 0 1-.03.711 4.4 4.4 0 0 0-.845-.08q-2.084.009-3.542 1.459t-1.458 3.54v4.135A6.8 6.8 0 0 1 12 21.48"/></svg>