<svg xmlns="http://www.w3.org/2000/svg" width="24" height="24" viewBox="0 0 24 24" fill='currentColor'><path d="M12 12.75q1.353 0 2.302-.948.948-.95.948-2.302 0-1.354-.948-2.302Q13.353 6.25 12 6.25t-2.302.948T8.75 9.5t.948 2.302q.949.948 2.302.948m0 8.73q-3.438-.944-5.47-3.855Q4.5 14.714 4.5 11.1V5.346L12 2.538l7.5 2.808V11.1q0 3.614-2.03 6.525-2.032 2.91-5.47 3.855m0-1.58a7.4 7.4 0 0 0 2.521-1.397 10.5 10.5 0 0 0 1.935-2.157 10.2 10.2 0 0 0-2.16-.814A9.4 9.4 0 0 0 12 15.25q-1.17 0-2.295.282-1.125.283-2.16.814.82 1.217 1.934 2.157A7.4 7.4 0 0 0 12 19.9"/></svg>