<svg xmlns="http://www.w3.org/2000/svg" width="24" height="24" viewBox="0 0 24 24" fill='currentColor'><path d="M15.373 12.558 7.065 4.25h13.923l-4.552 8.308zm-8.22 9q-.718 0-1.234-.51a1.68 1.68 0 0 1-.515-1.24q0-.729.515-1.24.515-.51 1.235-.51.719 0 1.234.51.516.511.516 1.24 0 .73-.516 1.24-.515.51-1.234.51m13.25.954-5.984-5.954H4.675l2.552-4.935L5.292 7.4 1.47 3.577l1.054-1.054 18.935 18.935zm-3.557-.954q-.719 0-1.235-.51a1.68 1.68 0 0 1-.515-1.24q0-.729.515-1.24.516-.51 1.235-.51t1.235.51.515 1.24q0 .73-.515 1.24t-1.235.51"/></svg>