<svg xmlns="http://www.w3.org/2000/svg" width="24" height="24" viewBox="0 0 24 24" fill='currentColor'><path d="M9.615 9q-.729 0-1.239-.51-.51-.511-.51-1.24t.51-1.24q.51-.51 1.24-.51.727 0 1.239.51.51.511.51 1.24t-.51 1.24q-.51.51-1.24.51m7.387 12.75q-1.971 0-3.361-1.389-1.392-1.389-1.391-3.36t1.389-3.36q1.389-1.392 3.36-1.391t3.36 1.389q1.39 1.389 1.391 3.36 0 1.97-1.389 3.36t-3.36 1.391m1.673-2.452.623-.623-1.856-1.852v-2.765h-.884v3.123zM3.615 21.5v-19h12v7.72a5 5 0 0 0-.785.189 8 8 0 0 0-.714.275V4h-9v6.5h8.611v.408q-1.218.661-2.063 1.675a6.7 6.7 0 0 0-1.25 2.298h-.049V13.25h-1.5v2h-2v1.5h2v2h1.377v-.52q.154.924.542 1.761.387.838.989 1.509z"/></svg>