<svg xmlns="http://www.w3.org/2000/svg" width="24" height="24" viewBox="0 0 24 24" fill='currentColor'><path d="M8.038 17.462a.85.85 0 0 1-.63-.255.86.86 0 0 1-.254-.63q0-.378.255-.63.255-.255.63-.255.377 0 .63.255.255.255.254.63 0 .377-.255.63a.86.86 0 0 1-.63.255m3.961 0a.85.85 0 0 1-.63-.255.86.86 0 0 1-.253-.63q0-.378.254-.63.255-.255.63-.255.378 0 .63.255.255.255.254.63 0 .377-.254.63a.86.86 0 0 1-.63.255m3.962 0a.85.85 0 0 1-.63-.255.86.86 0 0 1-.254-.63q0-.378.255-.63.255-.255.63-.255.377 0 .63.255.255.255.254.63 0 .377-.255.63a.86.86 0 0 1-.63.255M5.5 13.5V12q0-2.506 1.647-4.335T11.25 5.56V3.5h1.5v2.061q2.456.274 4.103 2.104T18.5 12v1.5zm2.538 6.923a.85.85 0 0 1-.63-.254.86.86 0 0 1-.254-.631q0-.377.255-.63.255-.255.63-.254.377 0 .63.254.255.255.254.631 0 .375-.255.63a.86.86 0 0 1-.63.254m3.961 0a.85.85 0 0 1-.63-.254.86.86 0 0 1-.253-.631q0-.377.254-.63.255-.255.63-.254.378 0 .63.254.255.255.254.631 0 .375-.254.63a.86.86 0 0 1-.63.254m3.962 0a.85.85 0 0 1-.63-.254.86.86 0 0 1-.254-.631q0-.377.255-.63.255-.255.63-.254.377 0 .63.254.255.255.254.631 0 .375-.255.63a.86.86 0 0 1-.63.254"/></svg>