<svg xmlns="http://www.w3.org/2000/svg" width="24" height="24" viewBox="0 0 24 24" fill='currentColor'><path d="M12 20.289.712 9A15.8 15.8 0 0 1 5.91 5.653 16.4 16.4 0 0 1 12 4.5q3.17 0 6.09 1.153A15.8 15.8 0 0 1 23.288 9l-.769.77a5.2 5.2 0 0 0-1.569-1.153A4.46 4.46 0 0 0 19 8.192q-1.998 0-3.403 1.41-1.404 1.41-1.405 3.398 0 1.09.444 2.008a4.6 4.6 0 0 0 1.133 1.511zm6.98-.75a.8.8 0 0 1-.593-.246.8.8 0 0 1-.245-.593q0-.348.245-.593a.8.8 0 0 1 .594-.245q.348 0 .593.245a.8.8 0 0 1 .245.593q0 .348-.245.593a.8.8 0 0 1-.593.245m-.595-2.739q0-.92.24-1.432.24-.51 1.037-1.326.505-.505.68-.811.174-.306.174-.687 0-.488-.36-.883-.36-.396-1.05-.396-.583 0-1.028.343a2.2 2.2 0 0 0-.674.869l-1.081-.454a3 3 0 0 1 1.052-1.352q.733-.536 1.73-.536 1.149 0 1.876.677.726.676.727 1.763 0 .575-.25 1.016-.25.44-.97 1.159-.57.57-.726.948-.154.377-.154 1.102z"/></svg>