<svg xmlns="http://www.w3.org/2000/svg" width="24" height="24" viewBox="0 0 24 24" fill='currentColor'><path d="M17.702 22.48q-1.941 0-3.297-1.356t-1.357-3.297 1.357-3.297q1.356-1.357 3.297-1.357 1.94 0 3.297 1.357t1.357 3.297-1.357 3.297-3.297 1.357m.01-1.71a.56.56 0 0 0 .411-.166.56.56 0 0 0 .165-.412.56.56 0 0 0-.165-.411.56.56 0 0 0-.412-.166.56.56 0 0 0-.411.166.56.56 0 0 0-.166.411q0 .247.166.412.165.165.412.165m-.412-1.843h.838v-.212q0-.285.143-.482.143-.198.342-.399.35-.3.55-.594t.2-.778q0-.702-.463-1.14-.462-.437-1.194-.437-.56 0-1.023.337-.462.338-.662.893l.742.312q.095-.3.341-.525a.86.86 0 0 1 .598-.225q.393 0 .615.196.223.196.223.589a.73.73 0 0 1-.16.48 6 6 0 0 1-.36.392q-.15.15-.302.31-.153.16-.278.343a1.2 1.2 0 0 0-.113.293 1.4 1.4 0 0 0-.037.334zM2.5 20.5v-5.375h2.914v-5.058q0-2.744 1.917-4.655T12 3.5t4.67 1.912q1.916 1.911 1.916 4.655v.97a6 6 0 0 0-.434-.044 8 8 0 0 0-.45-.012q-2.852 0-4.854 1.999-2.002 1.998-2.002 4.847 0 .687.134 1.364.134.676.416 1.309zm5.836-7.529h1.5v-2.904q0-.889.636-1.52A2.1 2.1 0 0 1 12 7.912v-1.5q-1.515 0-2.59 1.07a3.5 3.5 0 0 0-1.074 2.584z"/></svg>