<svg xmlns="http://www.w3.org/2000/svg" width="24" height="24" viewBox="0 0 24 24" fill='currentColor'><path d="M17.702 22.48q-1.941 0-3.297-1.356t-1.357-3.297 1.357-3.297q1.356-1.357 3.297-1.357 1.94 0 3.297 1.357t1.357 3.297-1.357 3.297-3.297 1.357m-.716-2.586 3.312-3.296-.838-.838-2.474 2.442-1.042-1.043-.838.855zM2.5 20.5v-5.375h2.914v-5.058q0-2.742 1.917-4.655Q9.248 3.5 12 3.5t4.67 1.912q1.916 1.914 1.916 4.655v.97a6 6 0 0 0-.434-.044 8 8 0 0 0-.45-.012q-2.852 0-4.854 1.999-2.002 1.998-2.002 4.847 0 .689.134 1.364t.416 1.309zm5.836-7.529h1.5v-2.904q0-.892.636-1.523T12 7.914v-1.5q-1.515 0-2.59 1.069a3.5 3.5 0 0 0-1.074 2.584z"/></svg>