<svg xmlns="http://www.w3.org/2000/svg" width="24" height="24" viewBox="0 0 24 24" fill='currentColor'><path d="M7.25 23.942a.66.66 0 0 1-.484-.208.66.66 0 0 1-.208-.484q0-.278.208-.485a.66.66 0 0 1 .484-.208q.277 0 .485.208.207.207.207.485 0 .276-.207.484a.66.66 0 0 1-.485.208m8.5 0a.66.66 0 0 1-.485-.208.66.66 0 0 1-.207-.484q0-.278.207-.485a.66.66 0 0 1 .485-.208q.277 0 .485.208.207.207.207.485 0 .276-.207.484a.66.66 0 0 1-.485.208m-9-2.096a4.25 4.25 0 0 1-1.99-.473 4.5 4.5 0 0 1-1.516-1.26.7.7 0 0 1-.093-.182.61.61 0 0 1 .131-.596.55.55 0 0 1 .44-.182q.159 0 .268.061.108.06.204.172.348.483.869.794.52.312 1.14.418l3.241-3.92-1.686-4.967 3.067-4.961h-2.87l-1.88 3.04L4.798 9l2.337-3.75H12.7q.615 0 .99.34.375.342.516.648l.525 1.19a4.64 4.64 0 0 0 1.617 1.987 4.5 4.5 0 0 0 2.498.825v1.5a5.8 5.8 0 0 1-3.031-.88q-1.37-.853-2.253-2.333l-2.166 3.423 4.354 2.636v6.067h.53q.765 0 1.423-.344.659-.345 1.103-.913a.7.7 0 0 1 .208-.182.54.54 0 0 1 .267-.06q.258 0 .427.181a.59.59 0 0 1 .141.596.7.7 0 0 1-.093.182 4.6 4.6 0 0 1-1.502 1.26 4.16 4.16 0 0 1-1.973.473zm1.37-1.193h6.13v-5.042l-4.067-2.277.99 3.589zM15 4.846q-.761 0-1.304-.543A1.78 1.78 0 0 1 13.154 3q0-.762.542-1.304A1.78 1.78 0 0 1 15 1.153q.762 0 1.304.543.543.542.542 1.304 0 .761-.542 1.303A1.78 1.78 0 0 1 15 4.846"/></svg>