<svg xmlns="http://www.w3.org/2000/svg" width="24" height="24" viewBox="0 0 24 24" fill='currentColor'><path d="M2.5 19.5v-7H16v-1.687l6.262-2.09.47 1.42-5.232 1.755V19.5zm2.454-9.192q.235-.862.006-1.552-.226-.69-.831-1.506-.748-.99-.996-1.825-.248-.834-.122-1.925h1.48q-.142.893.024 1.521.165.629.77 1.444.825 1.083 1.073 1.918.247.834.075 1.925zm3.962 0q.234-.862.014-1.552T8.106 7.25q-.748-.99-1.004-1.825-.256-.834-.129-1.925h1.479q-.143.893.024 1.521.166.629.77 1.444.825 1.083 1.073 1.918.248.834.075 1.925zm4 0q.234-.862.009-1.552t-.829-1.506q-.748-.99-.999-1.825-.25-.834-.124-1.925h1.479q-.143.893.024 1.521.166.629.77 1.444.825 1.083 1.073 1.918.248.834.075 1.925z"/></svg>