<svg xmlns="http://www.w3.org/2000/svg" width="24" height="24" viewBox="0 0 24 24" fill='currentColor'><path d="M10.596 15.462h2.808L12 12.654zm-2.094-2.654q.746 0 1.276-.532.53-.531.53-1.278 0-.746-.532-1.276a1.75 1.75 0 0 0-1.278-.53q-.746 0-1.276.532-.53.531-.53 1.278 0 .746.532 1.276.531.53 1.278.53m7 0q.746 0 1.276-.532.53-.531.53-1.278 0-.746-.532-1.276a1.75 1.75 0 0 0-1.278-.53q-.746 0-1.276.532-.53.531-.53 1.278 0 .746.532 1.276.531.53 1.278.53M6.5 21.5v-4.077a6 6 0 0 1-1.684-1.075 6.8 6.8 0 0 1-1.254-1.521A7.4 7.4 0 0 1 2.5 11q-.001-3.738 2.659-6.12Q7.82 2.5 12 2.5t6.84 2.38T21.5 11a7.4 7.4 0 0 1-1.061 3.827 6.8 6.8 0 0 1-1.256 1.521 6 6 0 0 1-1.683 1.077V21.5h-2.711v-1.962h-1.77V21.5h-2.038v-1.962H9.21V21.5z"/></svg>