<svg xmlns="http://www.w3.org/2000/svg" width="24" height="24" viewBox="0 0 24 24" fill='currentColor'><path d="M12.075 21.5a9.3 9.3 0 0 1-3.74-.757 9.7 9.7 0 0 1-3.047-2.057 9.7 9.7 0 0 1-2.056-3.046 9.3 9.3 0 0 1-.757-3.74q0-3.285 2.003-5.851t5.18-3.367a10.5 10.5 0 0 0 .496 4.67 10.25 10.25 0 0 0 2.49 3.978 10.25 10.25 0 0 0 3.979 2.49q2.262.774 4.67.497-.785 3.177-3.36 5.18Q15.36 21.5 12.076 21.5m5.693-12.3-1.057-2.336-2.337-1.058 2.337-1.057 1.057-2.337 1.058 2.337 2.336 1.057-2.336 1.058z"/></svg>