<svg xmlns="http://www.w3.org/2000/svg" width="24" height="24" viewBox="0 0 24 24" fill='currentColor'><path d="M14.808 2.433q2.82 0 4.784 1.965 1.965 1.965 1.966 4.785h-1.5a5.05 5.05 0 0 0-.382-1.964 5.3 5.3 0 0 0-1.045-1.62l-1 1.7q-.25.401-.538.88a5 5 0 0 1-.612.83.94.94 0 0 1-.712.308 1.02 1.02 0 0 1-.727-.292.95.95 0 0 1-.307-.717q0-.423.307-.731.34-.35.833-.62t.892-.52l1.7-1.01a5.4 5.4 0 0 0-1.648-1.093 5.05 5.05 0 0 0-2.011-.401zM12.075 21.5a9.3 9.3 0 0 1-3.74-.757 9.7 9.7 0 0 1-3.047-2.057 9.7 9.7 0 0 1-2.056-3.046 9.3 9.3 0 0 1-.757-3.74q0-3.285 2.003-5.851t5.18-3.366a10.5 10.5 0 0 0 .496 4.669 10.25 10.25 0 0 0 2.49 3.979 10.25 10.25 0 0 0 3.979 2.49q2.262.772 4.67.496-.785 3.177-3.36 5.18Q15.36 21.5 12.075 21.5"/></svg>