<svg xmlns="http://www.w3.org/2000/svg" width="24" height="24" viewBox="0 0 24 24" fill='currentColor'><path d="M8.798 22.5q-.908 0-1.499-.61a2 2 0 0 1-.591-1.442q0-.517.241-.99a2.06 2.06 0 0 1 .693-.777q.51-.35.84-.914a4.2 4.2 0 0 0 .474-1.22 4 4 0 0 1-.319-.14 1.7 1.7 0 0 1-.299-.186l-2.161.775a6 6 0 0 1-.67.21 2.8 2.8 0 0 1-.684.086q-1.494 0-2.409-1.25Q1.5 14.79 1.5 12.797q0-.969.598-1.53.598-.56 1.429-.56.517 0 .994.241.477.24.783.693.35.51.921.832.57.322 1.229.466.06-.157.138-.31a2 2 0 0 1 .187-.292l-.775-2.161a6 6 0 0 1-.21-.662 2.7 2.7 0 0 1-.086-.667q0-1.58 1.305-2.464Q9.32 5.5 11.202 5.5q.985 0 1.537.606.553.606.553 1.436 0 .508-.241.995-.241.486-.693.782-.51.35-.84.914-.33.563-.474 1.22.168.07.323.144.156.075.294.182l2.162-.785a6 6 0 0 1 .665-.205q.333-.081.68-.081 1.609 0 2.47 1.381.862 1.383.862 3.113 0 .908-.613 1.499a2.02 2.02 0 0 1-1.452.591q-.508 0-.97-.233a2 2 0 0 1-.769-.686 2.8 2.8 0 0 0-.921-.84 4.3 4.3 0 0 0-1.229-.473q-.06.148-.138.3a2.3 2.3 0 0 1-.187.302l.775 2.176q.125.33.21.624.087.293.086.615.006 1.617-1.281 2.52-1.288.903-3.213.903M10 15.27q.54 0 .905-.365.364-.365.364-.905t-.364-.905a1.23 1.23 0 0 0-.905-.364q-.54 0-.905.364a1.23 1.23 0 0 0-.364.905q0 .54.364.905.365.364.905.364m8.24-5.25Q18.24 8.24 17 7t-3.02-1.24q1.78 0 3.02-1.24 1.24-1.242 1.24-3.02 0 1.779 1.24 3.02 1.241 1.24 3.02 1.24-1.779 0-3.02 1.24-1.24 1.24-1.24 3.02"/></svg>