<svg xmlns="http://www.w3.org/2000/svg" width="24" height="24" viewBox="0 0 24 24" fill='currentColor'><path d="M8.548 22.855q-.431 0-.996-.407a5.2 5.2 0 0 1-1.023-.985L4.24 18.528l.935-.748 1.208 1.543 3.057-2.18 1.697-8.682-2.378.96v3.329h-1.5V8.438l3.962-1.648q.771-.33 1.127-.43t.661-.1q.458 0 .843.236t.646.638l.99 1.575a5.6 5.6 0 0 0 1.758 1.744q1.108.71 2.514.777v1.5a6.64 6.64 0 0 1-3.011-.83 7.2 7.2 0 0 1-2.364-2.099l-.745 3.76 2.12 2.039v6.053q.557-.015.91-.096.351-.08.738-.284.12-.06.216-.1a.56.56 0 0 1 .62.145.584.584 0 0 1 .077.727.8.8 0 0 1-.283.249q-.51.29-1.043.42a5 5 0 0 1-1.187.132h-3.644v-1.193h2.096v-4.755l-2.504-2.395-.9 3.504-3.531 2.512.229.311q.254.348.546.544.292.194.652.32a1 1 0 0 1 .292.22.5.5 0 0 1 .106.33.6.6 0 0 1-.177.43.57.57 0 0 1-.425.181m5.961-17.51q-.757 0-1.301-.543a1.78 1.78 0 0 1-.544-1.302q-.001-.759.544-1.302a1.78 1.78 0 0 1 1.301-.545q.759 0 1.303.545.543.543.544 1.302 0 .757-.545 1.302a1.78 1.78 0 0 1-1.302.544"/></svg>