<svg xmlns="http://www.w3.org/2000/svg" width="24" height="24" viewBox="0 0 24 24" fill='currentColor'><path d="M18.5 21.5h-16V11.206l9.442-6.126 1.26 1.298-2.113 3.468H19.5v1.5h-7v1.884h9v1.5h-9v1.885h8v1.5h-8V20h6zM15.848 7.913a1.45 1.45 0 0 1-1.062-.439 1.44 1.44 0 0 1-.44-1.06q0-.62.439-1.06.44-.44 1.06-.44t1.06.438.441 1.06q0 .62-.439 1.06a1.44 1.44 0 0 1-1.06.441M17.5 4.115q-.52 0-.886-.364a1.2 1.2 0 0 1-.365-.885q0-.52.364-.886.364-.365.885-.365.52 0 .886.364.365.365.365.885t-.364.886a1.2 1.2 0 0 1-.885.365M20.51 8q-.728 0-1.239-.51-.51-.511-.51-1.24 0-.73.51-1.24t1.24-.51q.728 0 1.239.51.51.51.51 1.24 0 .729-.51 1.24-.51.51-1.24.51"/></svg>