<svg xmlns="http://www.w3.org/2000/svg" width="24" height="24" viewBox="0 0 24 24" fill='currentColor'><path d="M5.35 21.5v-7.083l4.704 4.694a16.7 16.7 0 0 0 1.869-2.46 5.34 5.34 0 0 0 .817-2.876q0-1.247-.478-2.395a6.2 6.2 0 0 0-1.356-2.026L8.148 6.615l.366-.365h3.442l3.894-3.895 1.877 1.868a6.8 6.8 0 0 1 1.478 2.185q.517 1.224.526 2.592a6.7 6.7 0 0 1-.526 2.591 6.8 6.8 0 0 1-1.478 2.186L15.6 15.894V21.5zm4.666-4.54-5.018-5.008a1.6 1.6 0 0 1-.372-.573 1.87 1.87 0 0 1 0-1.345 1.7 1.7 0 0 1 .372-.561L6.925 7.53l2.927 2.893a4.7 4.7 0 0 1 1.389 3.352q0 .884-.308 1.7a4.6 4.6 0 0 1-.918 1.484"/></svg>