<svg xmlns="http://www.w3.org/2000/svg" width="24" height="24" viewBox="0 0 24 24" fill='currentColor'><path d="m7.93 21.032-4.972-4.948L6.98 12.08V7.386l9.648 9.633h-4.685zm11.266-4.744-1.104-1.094q1.04-2.021.697-4.241a6.73 6.73 0 0 0-1.945-3.823 6.73 6.73 0 0 0-3.822-1.944 6.8 6.8 0 0 0-4.241.696L7.687 4.78q2.502-1.45 5.34-1.108t4.887 2.39 2.39 4.887-1.108 5.34m-2.777-2.777-1.277-1.277a3.9 3.9 0 0 0-.192-1.337 2.8 2.8 0 0 0-.694-1.128 3 3 0 0 0-1.143-.722 3.5 3.5 0 0 0-1.354-.186l-1.286-1.296a5.7 5.7 0 0 1 2.596-.074A4.33 4.33 0 0 1 15.31 8.7q.945.944 1.202 2.232.256 1.29-.092 2.58"/></svg>