<svg xmlns="http://www.w3.org/2000/svg" width="24" height="24" viewBox="0 0 24 24" fill='currentColor'><path d="M7.25 8.865h9.5v-1.5h-9.5zM18 22.846q-1.71 0-3.01-1.05a4.78 4.78 0 0 1-1.688-2.642h1.242q.364 1.11 1.297 1.805t2.159.695a3.52 3.52 0 0 0 2.584-1.07A3.52 3.52 0 0 0 21.654 18a3.52 3.52 0 0 0-1.07-2.584A3.52 3.52 0 0 0 18 14.346q-.821 0-1.552.354a4.1 4.1 0 0 0-1.273.954h1.671v1.192h-3.692v-3.692h1.192v1.636a5.4 5.4 0 0 1 1.643-1.186q.947-.45 2.011-.45 2.01 0 3.429 1.417Q22.846 15.99 22.846 18t-1.417 3.429Q20.01 22.846 18 22.846M3.5 20.5v-17h17v7.085a8.5 8.5 0 0 0-1.233-.319 7.6 7.6 0 0 0-3.37.174q-1.003.287-1.888.81H7.25v1.5h4.952a8.4 8.4 0 0 0-.861 1.114 7 7 0 0 0-.65 1.27H7.25v1.5h3.03a4 4 0 0 0-.102.67 10 10 0 0 0-.024.696q0 .645.111 1.267.112.623.32 1.233z"/></svg>