<svg xmlns="http://www.w3.org/2000/svg" width="24" height="24" viewBox="0 0 24 24" fill='currentColor'><path d="M12.002 21.5a9.3 9.3 0 0 1-3.706-.748 9.6 9.6 0 0 1-3.016-2.03 9.6 9.6 0 0 1-2.032-3.016 9.25 9.25 0 0 1-.748-3.704q0-1.972.748-3.706a9.6 9.6 0 0 1 2.03-3.016 9.6 9.6 0 0 1 3.016-2.032 9.25 9.25 0 0 1 3.704-.748q1.972 0 3.706.748a9.6 9.6 0 0 1 3.017 2.03 9.6 9.6 0 0 1 2.03 3.016 9.25 9.25 0 0 1 .749 3.704q0 1.972-.748 3.706a9.6 9.6 0 0 1-2.03 3.017 9.6 9.6 0 0 1-3.016 2.03 9.25 9.25 0 0 1-3.704.749M12 20l-.7-.7q-.15-.15-.225-.325A.9.9 0 0 1 11 18.6V13q-.825 0-1.412-.588A1.93 1.93 0 0 1 9 11v-1L5.875 6.875A8.3 8.3 0 0 0 4.5 9.225 7.7 7.7 0 0 0 4 12q0 3.35 2.325 5.675T12 20m1-.05q2.975-.375 4.988-2.625Q20 15.075 20 12q0-3.325-2.337-5.662Q15.325 4 12 4q-1.1 0-2.113.287A8.4 8.4 0 0 0 8 5.076V7h3.55q.45 0 .862.2.413.2.688.55l1.4 1.75H16q.424 0 .712.287.288.288.288.713v1.05q0 .225-.062.425a1.7 1.7 0 0 1-.188.4L13 18z"/></svg>