<svg xmlns="http://www.w3.org/2000/svg" width="24" height="24" viewBox="0 0 24 24" fill='currentColor'><path d="M12.173 21.48q-2.167-.27-3.892-1.113a9.5 9.5 0 0 1-2.945-2.21 9.8 9.8 0 0 1-1.886-3.19q-.665-1.82-.723-4.04 2.414.169 4.189.894t2.943 2.031 1.741 3.207q.573 1.9.573 4.422M12 14.259a9.2 9.2 0 0 0-1.433-1.73 11 11 0 0 0-1.955-1.497q.111-1.002.408-2.079a16.6 16.6 0 0 1 1.752-4.098q.57-.952 1.228-1.72.658.768 1.228 1.715t1.012 1.992q.442 1.044.745 2.12.3 1.078.404 2.089-1.117.637-2.01 1.491-.89.855-1.379 1.717m1.673 6.89q-.03-1.432-.238-2.776a14.4 14.4 0 0 0-.648-2.591q1.078-2.083 3.218-3.44t5.268-1.414q-.07 3.825-2.04 6.462t-5.56 3.759"/></svg>