<svg xmlns="http://www.w3.org/2000/svg" width="24" height="24" viewBox="0 0 24 24" fill='currentColor'><path d="m18.664 13.481 1.053-1.054a7.5 7.5 0 0 1-1.586-2.326 6.8 6.8 0 0 1-.567-2.75q0-1.445.567-2.744a7.5 7.5 0 0 1 1.586-2.318l-1.053-1.085a9 9 0 0 0-1.914 2.82 8.3 8.3 0 0 0-.686 3.326q0 1.734.686 3.319a9 9 0 0 0 1.913 2.812m3.011-3.042 1.054-1.054q-.406-.406-.642-.927a2.7 2.7 0 0 1-.235-1.108q0-.586.235-1.107.235-.522.642-.927l-1.054-1.07q-.63.63-.976 1.419a4.1 4.1 0 0 0-.347 1.67q0 .88.347 1.686.347.804.976 1.418M9.855 12.5q-1.448 0-2.473-1.026A3.37 3.37 0 0 1 6.356 9q0-1.448 1.026-2.474A3.37 3.37 0 0 1 9.856 5.5q1.448 0 2.474 1.026A3.37 3.37 0 0 1 13.356 9q0 1.448-1.026 2.474A3.37 3.37 0 0 1 9.856 12.5m-7.5 7.616v-2.223a2.52 2.52 0 0 1 1.466-2.323q1.245-.622 2.789-1.038a12.4 12.4 0 0 1 3.246-.416q1.704 0 3.246.416t2.788 1.038q.693.336 1.08.95.386.614.386 1.373v2.223z"/></svg>