<svg xmlns="http://www.w3.org/2000/svg" width="24" height="24" viewBox="0 0 24 24" fill='currentColor'><path d="M8.942 21.5q-3.1 0-5.27-2.137Q1.5 17.225 1.5 14.135H3q0 2.451 1.733 4.158T8.943 20zm0-3.385q-1.682 0-2.87-1.153-1.187-1.155-1.187-2.827h1.5q0 1.05.749 1.765.75.716 1.808.716zm-.692-3.269V3.5h7.5v11.346zm6.808 3.27v-1.5q1.06 0 1.808-.716.75-.715.75-1.765h1.5q0 1.672-1.188 2.827-1.188 1.153-2.87 1.153m0 3.384V20q2.475 0 4.209-1.707T21 14.135h1.5q0 3.09-2.171 5.228-2.172 2.137-5.271 2.137"/></svg>