<svg xmlns="http://www.w3.org/2000/svg" width="24" height="24" viewBox="0 0 24 24" fill='currentColor'><path d="M8.45 8.5 7.365 7.415A6.9 6.9 0 0 1 9.51 6 6.4 6.4 0 0 1 12 5.5q1.294 0 2.49.499a6.9 6.9 0 0 1 2.144 1.417L15.55 8.5a5.2 5.2 0 0 0-1.625-1.112A4.8 4.8 0 0 0 12 7q-1.025 0-1.925.388-.9.387-1.625 1.112m-2.8-2.9L4.596 4.546a10.4 10.4 0 0 1 3.4-2.26A10.4 10.4 0 0 1 12 1.5q2.094 0 4.005.787a10.4 10.4 0 0 1 3.399 2.26L18.35 5.6a9 9 0 0 0-2.925-1.925A9 9 0 0 0 12 3a9 9 0 0 0-3.425.675A9 9 0 0 0 5.65 5.6m2.735 16.015v-11.23h7.23v11.23z"/></svg>