<svg xmlns="http://www.w3.org/2000/svg" width="24" height="24" viewBox="0 0 24 24" fill='currentColor'><path d="M16.752 9.942q-.72 0-1.236-.503A1.67 1.67 0 0 1 15 8.192V4q0-.743.514-1.247a1.7 1.7 0 0 1 1.236-.503q.744 0 1.247.503.503.504.503 1.247v4.192q0 .744-.503 1.247t-1.245.503M3.5 21.5v-19h9.25V4H5v16h11v-2.135h1.5V21.5zm3.75-3.635V16.25h6.5v1.615zm0-3v-1.5h4.5v1.5zm10.25.885H16v-2.562a5.24 5.24 0 0 1-3.193-1.665Q11.5 10.121 11.5 8.193H13q0 1.497 1.111 2.527a3.75 3.75 0 0 0 2.638 1.03q1.553 0 2.652-1.03T20.5 8.192H22q0 1.94-1.294 3.336-1.295 1.397-3.206 1.66z"/></svg>