<svg xmlns="http://www.w3.org/2000/svg" width="24" height="24" viewBox="0 0 24 24" fill='currentColor'><path d="M10.604 15.346q.538.54 1.378.501.84-.038 1.226-.6l5.426-7.862-7.88 5.407q-.573.393-.636 1.2-.062.806.486 1.354M5.1 19.5q-.415 0-.762-.19a1.5 1.5 0 0 1-.565-.548 10 10 0 0 1-.947-2.299A9.4 9.4 0 0 1 2.5 14q0-1.97.749-3.703a9.6 9.6 0 0 1 2.032-3.016 9.6 9.6 0 0 1 3.016-2.032A9.2 9.2 0 0 1 12 4.5q1.954 0 3.667.737a9.7 9.7 0 0 1 3.001 2.006 9.6 9.6 0 0 1 2.044 2.971 9.1 9.1 0 0 1 .773 3.655q.015 1.308-.303 2.548a9.6 9.6 0 0 1-.97 2.383q-.208.36-.56.53a1.74 1.74 0 0 1-.768.17z"/></svg>