<svg xmlns="http://www.w3.org/2000/svg" width="24" height="24" viewBox="0 0 24 24" fill='currentColor'><path d="M12 19q-3.448 0-6.29-1.898Q2.87 15.203 1.539 12 2.87 8.796 5.711 6.898 8.55 5 12 5t6.29 1.898T22.461 12q-1.331 3.204-4.173 5.102Q15.45 19 12 19m-8.298-7.875a11.7 11.7 0 0 1 3.823-2.466A12 12 0 0 1 12 7.808q2.321 0 4.446.899 2.125.9 3.862 2.437a9.5 9.5 0 0 0-3.52-3.4A9.6 9.6 0 0 0 12 6.5a9.6 9.6 0 0 0-4.778 1.24 9.5 9.5 0 0 0-3.52 3.385M12 17.5q2.497 0 4.636-1.154a9.66 9.66 0 0 0 3.495-3.183 11.8 11.8 0 0 0-2.093-1.874 10.4 10.4 0 0 0-2.457-1.272q.279.409.445.91.165.504.166 1.073 0 1.75-1.22 2.971Q13.75 16.192 12 16.192t-2.971-1.22Q7.808 13.75 7.808 12q0-.58.17-1.091.172-.513.47-.92a9.9 9.9 0 0 0-2.506 1.24 9.6 9.6 0 0 0-2.073 1.934 9.66 9.66 0 0 0 3.495 3.183A9.6 9.6 0 0 0 12 17.5m0-2.808q1.127 0 1.91-.782a2.6 2.6 0 0 0 .782-1.91q0-1.127-.782-1.91A2.6 2.6 0 0 0 12 9.308q-1.127 0-1.91.782A2.6 2.6 0 0 0 9.308 12q0 1.127.782 1.91a2.6 2.6 0 0 0 1.91.782"/></svg>