<svg xmlns="http://www.w3.org/2000/svg" width="24" height="24" viewBox="0 0 24 24" fill='currentColor'><path d="M3.492 19.654 2.423 18.6l4.302-4.302a3.83 3.83 0 0 0 1.02-1.844q.263-1.09.263-3.338 0-1.391.621-2.734a8.6 8.6 0 0 1 1.763-2.485q2.121-2.122 4.66-2.422t4.179 1.372q1.656 1.66 1.355 4.196t-2.405 4.642q-1.143 1.142-2.48 1.754a6.5 6.5 0 0 1-2.74.611q-2.232 0-3.309.26a3.86 3.86 0 0 0-1.858 1.042zm6.885-8.004q1.175 1.15 3.175.846 2-.306 3.575-1.88 1.6-1.6 1.913-3.588t-.863-3.112q-1.18-1.191-3.133-.886-1.952.304-3.567 1.905Q9.902 6.5 9.564 8.488t.813 3.162m7.7 10.85q-1.445 0-2.472-1.028-1.028-1.028-1.028-2.472t1.028-2.471q1.029-1.029 2.472-1.029t2.472 1.029T21.577 19t-1.028 2.472Q19.52 22.5 18.077 22.5"/></svg>