<svg xmlns="http://www.w3.org/2000/svg" width="24" height="24" viewBox="0 0 24 24" fill='currentColor'><path d="m10.35 19.81.3-1.41q.075-.325.313-.537.237-.213.587-.263l3.1-.25a.84.84 0 0 1 .6.125q.275.175.4.475l.39.95a8.2 8.2 0 0 0 1.75-1.383 8 8 0 0 0 1.3-1.807l-.29-.16a1.2 1.2 0 0 1-.4-.488.96.96 0 0 1-.05-.612l.7-3.05q.075-.3.313-.5a.9.9 0 0 1 .537-.221q-.125-.645-.317-1.237a7 7 0 0 0-.492-1.152.9.9 0 0 1-.483.118.8.8 0 0 1-.458-.158l-2.65-1.6a1 1 0 0 1-.4-.475q-.125-.3-.05-.625l.21-.85A7.9 7.9 0 0 0 12 4q-.35 0-.72.037-.37.038-.72.104l.74 1.709q.125.3.063.625A.86.86 0 0 1 11.05 7L8.7 9.05a.96.96 0 0 1-.587.25.98.98 0 0 1-.613-.15l-2.29-1.4A8.2 8.2 0 0 0 4 12q0 .4.1 1.3l2.2-.2a.96.96 0 0 1 1.05.6l1.2 2.85q.124.3.063.625a.86.86 0 0 1-.313.525l-.95.8q.675.5 1.438.825t1.562.485m1.8-4.31a.84.84 0 0 1-.6-.125 1 1 0 0 1-.4-.475L9.8 11.8a.94.94 0 0 1-.038-.625.98.98 0 0 1 .338-.525l2.55-2.15a.85.85 0 0 1 .55-.25.95.95 0 0 1 .6.15l2.8 1.65q.275.175.425.475t.075.625l-.8 3.25q-.075.325-.3.537t-.55.263zm-.148 6a9.3 9.3 0 0 1-3.706-.748 9.6 9.6 0 0 1-3.016-2.03 9.6 9.6 0 0 1-2.032-3.016 9.25 9.25 0 0 1-.748-3.704q0-1.972.748-3.706a9.6 9.6 0 0 1 2.03-3.016 9.6 9.6 0 0 1 3.016-2.032 9.25 9.25 0 0 1 3.704-.748q1.972 0 3.706.748a9.6 9.6 0 0 1 3.017 2.03 9.6 9.6 0 0 1 2.03 3.016 9.25 9.25 0 0 1 .749 3.704q0 1.972-.748 3.706a9.6 9.6 0 0 1-2.03 3.017 9.6 9.6 0 0 1-3.016 2.03 9.25 9.25 0 0 1-3.704.749"/></svg>