<svg xmlns="http://www.w3.org/2000/svg" width="24" height="24" viewBox="0 0 24 24" fill='currentColor'><path d="M21.206 9.652 12.75 4.715V2.53q3.075.233 5.376 2.2 2.3 1.968 3.08 4.922M6.817 14.15V4.057a9.5 9.5 0 0 1 2.074-1.022 10.2 10.2 0 0 1 2.374-.505v9.039zM3.43 16.096a8.8 8.8 0 0 1-.704-1.973A9.6 9.6 0 0 1 2.49 12q0-1.906.715-3.63a9.2 9.2 0 0 1 2.112-3.086v9.712zm4.294 4.367a9 9 0 0 1-1.996-1.298 8.5 8.5 0 0 1-1.548-1.777l7.836-4.527 4.458 2.58zm4.292 1.037q-.632 0-1.266-.073a6 6 0 0 1-1.222-.27l8.446-4.854 1.879 1.054a9.7 9.7 0 0 1-3.409 3.037 9.2 9.2 0 0 1-4.428 1.106m8.562-5.43-7.828-4.5V6.423l8.74 5.11q.03 1.188-.18 2.336t-.733 2.202"/></svg>