<svg xmlns="http://www.w3.org/2000/svg" width="24" height="24" viewBox="0 0 24 24" fill='currentColor'><path d="M2.566 19.075v-.546q0-1.185.056-1.99.057-.806.151-1.44h7.398q1.562 0 2.654-1.1 1.092-1.098 1.092-2.71 0-1.141-.65-2.092a3.8 3.8 0 0 0-1.725-1.393l-3.36-1.316q1.322-.779 2.795-1.171a12 12 0 0 1 3.092-.392q3.037 0 5.201 2.052Q21.435 9.029 21.435 12t-2.057 5.023-5.028 2.052zm.436-5.46q.49-1.842 1.451-3.405a11.7 11.7 0 0 1 2.31-2.733l4.222 1.7q.67.275 1.058.854.39.578.39 1.257 0 .99-.662 1.658-.66.67-1.65.67z"/></svg>