<svg xmlns="http://www.w3.org/2000/svg" width="24" height="24" viewBox="0 0 24 24" fill='currentColor'><path d="M3.73 7V3.308l3.693 1.846zm13.847 0V3.308l3.692 1.846zm-6.462-.923V2.385l3.693 1.846zM9.25 21.557a25 25 0 0 1-2.598-.35 14 14 0 0 1-2.165-.574q-.935-.339-1.49-.775-.555-.437-.555-.954v-8.615q0-.577.735-1.072t2.017-.868 3.031-.592A31 31 0 0 1 12 7.539q2.027 0 3.775.218t3.03.592q1.284.375 2.018.868.735.495.735 1.072v8.615q0 .517-.555.954t-1.49.775a14 14 0 0 1-2.165.574q-1.23.236-2.598.35v-4.653h-5.5zM12 11.54q2.454 0 4.418-.341 1.965-.34 3.024-.85-.164-.327-2.145-.818T12 9.039q-3.315 0-5.297.49-1.981.492-2.145.819 1.059.51 2.913.85t4.529.34"/></svg>