<svg xmlns="http://www.w3.org/2000/svg" width="24" height="24" viewBox="0 0 24 24" fill='currentColor'><path d="M4.725 19.75a3.26 3.26 0 0 1-2.404-.998q-.99-.998-1.021-2.431 0-.211.02-.417t.07-.421l2.1-8.4a3.7 3.7 0 0 1 1.337-2.049 3.64 3.64 0 0 1 2.298-.784h9.75q1.29 0 2.298.784a3.7 3.7 0 0 1 1.337 2.049l2.1 8.4q.05.215.082.433.033.219.033.43 0 1.432-1.01 2.419-1.01.985-2.44.985a3.4 3.4 0 0 1-1.815-.516 3.34 3.34 0 0 1-1.264-1.4l-.71-1.459a1 1 0 0 0-.46-.469 1.4 1.4 0 0 0-.651-.156h-4.75q-.34 0-.649.154a1 1 0 0 0-.462.471l-.71 1.46q-.42.893-1.26 1.403a3.43 3.43 0 0 1-1.819.512m8.775-8.865a.85.85 0 0 0 .626-.259.85.85 0 0 0 .259-.626.85.85 0 0 0-.259-.626.85.85 0 0 0-.626-.258.85.85 0 0 0-.626.258.85.85 0 0 0-.258.626q0 .368.258.626a.85.85 0 0 0 .626.258m2-2a.85.85 0 0 0 .626-.259.85.85 0 0 0 .259-.626.85.85 0 0 0-.259-.626.85.85 0 0 0-.626-.258.85.85 0 0 0-.626.258.85.85 0 0 0-.258.626q0 .368.258.626a.85.85 0 0 0 .626.258m0 4a.85.85 0 0 0 .626-.259.85.85 0 0 0 .259-.626.85.85 0 0 0-.259-.626.85.85 0 0 0-.626-.258.85.85 0 0 0-.626.258.85.85 0 0 0-.258.626q0 .368.258.626a.85.85 0 0 0 .626.258m2-2a.85.85 0 0 0 .626-.259.85.85 0 0 0 .259-.626.85.85 0 0 0-.259-.626.85.85 0 0 0-.626-.258.85.85 0 0 0-.626.258.85.85 0 0 0-.258.626q0 .368.258.626a.85.85 0 0 0 .626.258m-9 1.461a.58.58 0 0 0 .596-.596v-1.154h1.154a.58.58 0 0 0 .596-.595.58.58 0 0 0-.596-.597H9.096V8.25a.58.58 0 0 0-.595-.596.58.58 0 0 0-.597.596v1.154H6.75a.58.58 0 0 0-.596.595.58.58 0 0 0 .596.597h1.154v1.154a.58.58 0 0 0 .596.596"/></svg>