<svg xmlns="http://www.w3.org/2000/svg" width="24" height="24" viewBox="0 0 24 24" fill='currentColor'><path d="M21.756 9.04 20.5 8.258l.238-.42q.131-.244.197-.496Q21 7.09 21 6.815q0-.389-.125-.752a1.9 1.9 0 0 0-.384-.652 4 4 0 0 1-.722-1.154 3.46 3.46 0 0 1-.13-2.273q.134-.454.386-.87l.239-.385 1.27.782-.263.41q-.141.234-.207.491a2.08 2.08 0 0 0 .47 1.926q.468.496.717 1.131.249.634.249 1.317 0 .498-.129.956t-.361.885zm-4.047 0-1.255-.782.238-.42q.13-.244.197-.496.065-.252.065-.527 0-.389-.125-.752a1.9 1.9 0 0 0-.385-.652 4 4 0 0 1-.721-1.154 3.47 3.47 0 0 1-.13-2.273q.134-.454.386-.87l.238-.385 1.271.782-.263.41a1.9 1.9 0 0 0-.275 1.013q0 .39.14.752.138.364.398.652.467.496.717 1.131.249.634.249 1.317 0 .498-.129.956t-.361.885zM12.75 19.954q2.88-.263 4.91-2.295 2.03-2.03 2.294-4.91h-4.06l-3.144 3.924zm.929-10.914-1.271-.782.254-.42a2.15 2.15 0 0 0 .261-1.033q0-.387-.133-.746a2 2 0 0 0-.392-.648 3.7 3.7 0 0 1-.726-1.145 3.5 3.5 0 0 1-.258-1.332q0-.487.126-.946t.393-.875l.254-.384 1.27.782-.263.41a1.9 1.9 0 0 0-.29 1.013q0 .39.14.752.138.364.398.652.467.496.717 1.131.249.634.249 1.317 0 .498-.13.956-.128.457-.36.885zm-9.633 3.71q.263 2.878 2.294 4.91 2.03 2.03 4.91 2.293v-3.28L8.106 12.75zm0-1.496H21.47a10 10 0 0 1 .03.746q0 1.97-.749 3.703a9.6 9.6 0 0 1-2.032 3.016 9.6 9.6 0 0 1-3.016 2.032q-1.734.75-3.703.749a9.2 9.2 0 0 1-3.703-.75 9.6 9.6 0 0 1-3.016-2.031 9.6 9.6 0 0 1-2.032-3.017A9.2 9.2 0 0 1 2.5 12q0-3.164 1.83-5.622Q6.163 3.919 9 2.978V4.59a8 8 0 0 0-3.384 2.594q-1.353 1.764-1.57 4.07"/></svg>