<svg xmlns="http://www.w3.org/2000/svg" width="24" height="24" viewBox="0 0 24 24" fill='currentColor'><path d="M13.482 21.5q-2.497 0-4.254-1.751T7.471 15.5v-.546q-2.025-.264-3.387-1.806T2.72 9.5V3.75h3v-1h1.5v3.5h-1.5v-1h-1.5V9.5q0 1.65 1.175 2.825T8.221 13.5t2.825-1.175T12.221 9.5V5.25h-1.5v1h-1.5v-3.5h1.5v1h3V9.5q0 2.106-1.362 3.648T8.97 14.954v.546q0 1.875 1.315 3.188Q11.602 20 13.481 20q1.875 0 3.187-1.312 1.313-1.313 1.313-3.188v-1.617a2.47 2.47 0 0 1-1.298-.907q-.51-.674-.51-1.534 0-1.065.746-1.811a2.47 2.47 0 0 1 1.813-.746q1.065 0 1.811.746.745.745.745 1.811 0 .86-.51 1.534a2.47 2.47 0 0 1-1.297.907V15.5q0 2.498-1.751 4.249-1.752 1.75-4.248 1.751"/></svg>