<svg xmlns="http://www.w3.org/2000/svg" width="24" height="24" viewBox="0 0 24 24" fill='currentColor'><path d="M17.721 20.644 16.667 19.6l1.825-1.85h-4.52v-1.5h4.52l-1.825-1.85 1.054-1.044L21.365 17zm-4.337.856q-2.498 0-4.253-1.751T7.375 15.5v-.546q-2.026-.264-3.387-1.806Q2.625 11.606 2.625 9.5V3.75h3v-1h1.5v3.5h-1.5v-1h-1.5V9.5q0 1.65 1.175 2.825T8.125 13.5t2.825-1.175T12.125 9.5V5.25h-1.5v1h-1.5v-3.5h1.5v1h3V9.5q0 2.106-1.363 3.648t-3.387 1.806v.546q0 1.875 1.315 3.188Q11.506 20 13.384 20z"/></svg>