<svg xmlns="http://www.w3.org/2000/svg" width="24" height="24" viewBox="0 0 24 24" fill='currentColor'><path d="M18.035 21.558q.615-1.627.831-3.334.217-1.707.034-3.424a6.9 6.9 0 0 1-2.686 3.426A7.4 7.4 0 0 1 12 19.5q-1.975 0-3.55-.954a8.8 8.8 0 0 1-2.674-2.531q-1.099-1.578-1.682-3.625a15.3 15.3 0 0 1-.583-4.22q0-1.46.203-2.897a16 16 0 0 1 .67-2.83h1.581a16.8 16.8 0 0 0-.814 3.338A14 14 0 0 0 5.1 9.2a6.9 6.9 0 0 1 2.686-3.427A7.4 7.4 0 0 1 12 4.5q1.975 0 3.55.954a8.8 8.8 0 0 1 2.674 2.532q1.099 1.578 1.682 3.619a15.3 15.3 0 0 1 .582 4.226q0 1.46-.203 2.896a16 16 0 0 1-.67 2.83zM12 15.5q1.448 0 2.474-1.026A3.37 3.37 0 0 0 15.5 12q0-1.448-1.026-2.474A3.37 3.37 0 0 0 12 8.5q-1.448 0-2.474 1.026A3.37 3.37 0 0 0 8.5 12q0 1.448 1.026 2.474A3.37 3.37 0 0 0 12 15.5m0-1.5q-.825 0-1.412-.587A1.93 1.93 0 0 1 10 12q0-.825.588-1.412A1.93 1.93 0 0 1 12 10q.825 0 1.412.588Q14 11.175 14 12t-.588 1.413A1.93 1.93 0 0 1 12 14"/></svg>