<svg xmlns="http://www.w3.org/2000/svg" width="24" height="24" viewBox="0 0 24 24" fill='currentColor'><path d="M12 15.75q1.642 0 3.626-.627t5.816-2.24q.03-.205.043-.4.015-.192.015-.408 0-1.024-.823-1.656-.823-.63-1.808-.338-.405.124-.843.295l-1.143.445q-1.593.669-2.676.924A9.6 9.6 0 0 1 12 12a9.5 9.5 0 0 1-2.261-.267q-1.09-.267-2.756-.947a21 21 0 0 0-1.836-.69q-.985-.323-1.816.303T2.5 12.075q0 .2.014.398t.034.379q3.073 1.433 5.414 2.165 2.34.733 4.038.733M12 21q3.258 0 5.745-1.777t3.364-4.573q-3.072 1.352-5.192 1.976T12 17.25q-1.814 0-4.121-.674-2.308-.675-5.038-1.951.81 2.912 3.256 4.643Q8.542 21 12 21m0-11a3.6 3.6 0 0 1-2.652-1.098A3.6 3.6 0 0 1 8.25 6.25q0-1.554 1.098-2.652A3.6 3.6 0 0 1 12 2.5q1.554 0 2.652 1.098A3.6 3.6 0 0 1 15.75 6.25q0 1.554-1.098 2.652A3.6 3.6 0 0 1 12 10"/></svg>