<svg xmlns="http://www.w3.org/2000/svg" width="24" height="24" viewBox="0 0 24 24" fill='currentColor'><path d="M11.925 21.5a9.2 9.2 0 0 1-3.703-.749 9.6 9.6 0 0 1-3.016-2.032 9.6 9.6 0 0 1-2.032-3.016A9.2 9.2 0 0 1 2.425 12q0-1.97.749-3.703a9.6 9.6 0 0 1 2.032-3.016 9.6 9.6 0 0 1 3.016-2.032 9.2 9.2 0 0 1 3.703-.749q1.97 0 3.703.749a9.6 9.6 0 0 1 3.016 2.032 9.6 9.6 0 0 1 2.032 3.016q.75 1.734.749 3.703 0 1.97-.749 3.703a9.6 9.6 0 0 1-2.032 3.016 9.6 9.6 0 0 1-3.016 2.032q-1.734.75-3.703.749M19 15.75H9.194l-1.5 1.5H17.97q.315-.346.57-.713.253-.368.461-.787m.894-3H12.22l-1.5 1.5h8.879q.108-.365.182-.733.074-.367.114-.767m-.296-3h-4.37l-1.509 1.5h6.175a8 8 0 0 0-.296-1.5m-1.511-2.842L16.744 8.25H19a5 5 0 0 0-.413-.703 8 8 0 0 0-.5-.64M5.764 17.092 17.058 5.848a7.9 7.9 0 0 0-2.347-1.362A7.9 7.9 0 0 0 11.925 4Q8.575 4 6.25 6.325T3.925 12q0 1.467.486 2.758.484 1.29 1.353 2.334M11.925 20q1.192 0 2.266-.322a7.8 7.8 0 0 0 2.009-.928H7.65A7.75 7.75 0 0 0 11.925 20"/></svg>