<svg xmlns="http://www.w3.org/2000/svg" width="24" height="24" viewBox="0 0 24 24" fill='currentColor'><path d="M15.365 21.173q-.705 0-1.209-.503a1.65 1.65 0 0 1-.502-1.209q0-.705.502-1.208a1.65 1.65 0 0 1 1.21-.503q.705 0 1.208.503t.503 1.209q0 .705-.503 1.208a1.65 1.65 0 0 1-1.209.503m-8.884 0a1.65 1.65 0 0 1-1.206-.503 1.64 1.64 0 0 1-.506-1.209q0-.705.506-1.208t1.206-.503q.72 0 1.215.503t.496 1.209q0 .705-.496 1.208t-1.215.503m-.667-4.423L15.969 4.839a3.2 3.2 0 0 1 1.026-.818q.555-.27 1.222-.271 1.14 0 1.928.787.788.789.788 1.932V7h-1.5v-.535q0-.517-.35-.866a1.18 1.18 0 0 0-.866-.349q-.327 0-.581.124a1.5 1.5 0 0 0-.467.363l-1.092 1.26v9.753zm4.103-7.121L5.533 5.244a8.4 8.4 0 0 1 2.256-1.119 8.1 8.1 0 0 1 2.47-.375q1.011 0 1.977.227a9.2 9.2 0 0 1 1.92.69z"/></svg>