<svg xmlns="http://www.w3.org/2000/svg" width="24" height="24" viewBox="0 0 24 24" fill='currentColor'><path d="M11.925 21.5a9.2 9.2 0 0 1-3.703-.749 9.6 9.6 0 0 1-3.016-2.032 9.6 9.6 0 0 1-2.032-3.016A9.2 9.2 0 0 1 2.425 12q0-1.97.749-3.703a9.6 9.6 0 0 1 2.032-3.016 9.6 9.6 0 0 1 3.016-2.032 9.2 9.2 0 0 1 3.703-.749q1.97 0 3.703.749a9.6 9.6 0 0 1 3.016 2.032 9.6 9.6 0 0 1 2.032 3.016q.75 1.734.749 3.703 0 1.97-.749 3.703a9.6 9.6 0 0 1-2.032 3.016 9.6 9.6 0 0 1-3.016 2.032q-1.734.75-3.703.749m1.823-1.729a7.64 7.64 0 0 0 3.844-2.104 7.64 7.64 0 0 0 2.104-3.844zm-9.579-9.669 5.858-5.858A7.6 7.6 0 0 0 6.245 6.32a7.6 7.6 0 0 0-2.076 3.782m.093 4.217 9.982-9.967a6 6 0 0 0-.893-.216 10 10 0 0 0-.937-.105l-8.458 8.458q.03.478.102.937.07.46.204.893m1.502 2.773L17.017 5.814a6 6 0 0 0-.61-.46 8 8 0 0 0-.672-.394L4.885 15.81q.182.35.4.673.217.322.479.61m2.352 1.949L18.95 8.18a6.6 6.6 0 0 0-.863-1.273L6.833 18.186q.286.247.61.46.323.211.673.395m3.32.928 8.458-8.458a10 10 0 0 0-.104-.937 6 6 0 0 0-.217-.893l-9.967 9.967q.434.143.893.216.458.075.938.105"/></svg>