<svg xmlns="http://www.w3.org/2000/svg" width="24" height="24" viewBox="0 0 24 24" fill='currentColor'><path d="M5.912 18.731q-2.231-.125-3.35-.992t-1.12-2.454q0-1.52 1.275-2.464 1.275-.945 3.545-1.146 1.09-.094 1.635-.394t.545-.83q0-.737-.737-1.125-.738-.388-2.418-.556l.136-1.49q2.306.218 3.413.993 1.106.776 1.106 2.177 0 1.19-.914 1.888-.915.697-2.655.837-1.715.145-2.573.67t-.858 1.44q0 .932.715 1.388.714.454 2.316.558zm7.27-.683L9.76 14.625l9.598-9.598 3.438 3.423zm-.9.777-4.16.877.845-4.192z"/></svg>