<svg xmlns="http://www.w3.org/2000/svg" width="24" height="24" viewBox="0 0 24 24" fill='currentColor'><path d="M1.615 13.5V12h3.5v1.5zM6.6 8.403 4.106 5.925 5.175 4.87l2.47 2.479zm-.602 10.193a1 1 0 0 1-.737-.302q-.3-.3-.3-.738 0-.437.302-.737.301-.3.739-.3.435 0 .736.302.3.3.3.738 0 .437-.301.737t-.739.3M7.5 13.5v-.75q0-1.873 1.313-3.187Q10.127 8.25 12 8.25t3.187 1.313T16.5 12.75v.75zm1.498 9.096a1 1 0 0 1-.737-.302q-.3-.3-.3-.738 0-.437.302-.737.301-.3.739-.3.435 0 .736.302.3.3.3.738 0 .437-.301.737t-.739.3m3-4a1 1 0 0 1-.736-.302q-.3-.3-.3-.738 0-.437.301-.737t.739-.3a1 1 0 0 1 .736.302q.3.3.3.738 0 .437-.301.737t-.739.3m-.748-12.73v-3.5h1.5v3.5zm3.748 16.73a1 1 0 0 1-.736-.302q-.3-.3-.3-.738 0-.437.301-.737t.739-.3a1 1 0 0 1 .736.302q.3.3.3.738 0 .437-.301.737t-.739.3M17.4 8.403 16.33 7.35l2.495-2.479 1.044 1.054zm.598 10.193a1 1 0 0 1-.736-.302q-.3-.3-.3-.738 0-.437.301-.737t.739-.3a1 1 0 0 1 .736.302q.3.3.3.738 0 .437-.301.737t-.739.3m.886-5.096V12h3.5v1.5z"/></svg>