<svg xmlns="http://www.w3.org/2000/svg" width="24" height="24" viewBox="0 0 24 24" fill='currentColor'><path d="M2.308 19.308v-2.223q0-.75.391-1.378a2.46 2.46 0 0 1 1.074-.945q1.413-.713 2.934-1.083a13 13 0 0 1 3.1-.371q.558 0 1.116.065t1.116.158v.97q-1.068.655-1.65 1.54-.58.886-.581 2.182v1.085zm9.884 0v-1.15q0-.533.273-.978.272-.446.774-.641a9.3 9.3 0 0 1 1.805-.549 9.9 9.9 0 0 1 3.778 0q.934.183 1.824.549.501.195.774.64.272.447.272.979v1.15zm4.75-5q-.934 0-1.592-.658a2.17 2.17 0 0 1-.658-1.592q0-.934.658-1.593.659-.657 1.592-.657.934 0 1.593.657.657.659.657 1.593 0 .935-.657 1.592-.658.658-1.593.658m-7.134-2.616q-1.444 0-2.472-1.028T6.308 8.192t1.028-2.471 2.472-1.029q1.443 0 2.472 1.029t1.028 2.471-1.028 2.472q-1.029 1.029-2.472 1.028"/></svg>