<svg xmlns="http://www.w3.org/2000/svg" width="24" height="24" viewBox="0 0 24 24" fill='currentColor'><path d="M9.346 17.654 10.4 16.6l-1.82-1.85H13v-1.5H8.58l1.82-1.85-1.054-1.054L5.692 14zm5.308-4L18.308 10l-3.654-3.654L13.6 7.4l1.82 1.85H11v1.5h4.42L13.6 12.6zM12.002 21.5a9.3 9.3 0 0 1-3.706-.748 9.6 9.6 0 0 1-3.016-2.03 9.6 9.6 0 0 1-2.032-3.016 9.25 9.25 0 0 1-.748-3.704q0-1.972.748-3.706a9.6 9.6 0 0 1 2.03-3.016 9.6 9.6 0 0 1 3.016-2.032 9.25 9.25 0 0 1 3.704-.748q1.972 0 3.706.748a9.6 9.6 0 0 1 3.017 2.03 9.6 9.6 0 0 1 2.03 3.016 9.25 9.25 0 0 1 .749 3.704q0 1.972-.748 3.706a9.6 9.6 0 0 1-2.03 3.017 9.6 9.6 0 0 1-3.016 2.03 9.25 9.25 0 0 1-3.704.749"/></svg>