<svg xmlns="http://www.w3.org/2000/svg" width="24" height="24" viewBox="0 0 24 24" fill='currentColor'><path d="m15.706 11.592-3.298-3.298L18.212 2.5H21.5v3.288zM4.442 21.852 2.14 19.548l3.61-3.625-2.2-2.2 1.753-1.754 1.723 1.708 1.22-1.22 3.297 3.298-1.219 1.22 1.713 1.698-1.769 1.769-2.2-2.2zm17.043-1.397L20.43 21.5 8.78 9.9a3.67 3.67 0 0 1-2.406.592 3.58 3.58 0 0 1-2.27-1.073l-.797-.808.415-.43a2.25 2.25 0 0 1 1.67-.692q.98.003 1.669.691L8.78 9.9q.167-.098.314-.225.147-.13.3-.272.126-.126.243-.278t.212-.295L8.121 7.111q-1.15-1.134-2.736-1.13T2.679 7.136l-.415.416L1.712 7 7 1.727 9.394 4.13q.97.97 1.078 2.29a3.67 3.67 0 0 1-.622 2.41l7.513 7.514a5.6 5.6 0 0 1-.288-1.36 5.2 5.2 0 0 1 .075-1.41q.14-.691.47-1.303.328-.611.782-1.136.453-.524 1.021-.962a9 9 0 0 1 1.194-.78 8.8 8.8 0 0 1 1.351 2.462q.473 1.329.192 2.714a5.14 5.14 0 0 1-.986 2.16 7.2 7.2 0 0 1-1.787 1.628z"/></svg>