<svg xmlns="http://www.w3.org/2000/svg" width="24" height="24" viewBox="0 0 24 24" fill='currentColor'><path d="M18.48 8.25V7.135q0-.854.574-1.427.573-.573 1.427-.573t1.427.573q.573.572.573 1.427V8.25zm-16.96 0V7.135q0-.854.572-1.427.573-.573 1.427-.573t1.427.573q.573.572.573 1.427V8.25zm0 12.23V9.136h4V20.48zm4.884 0V8.405L12 3.683l5.596 4.72v12.078h-3.75v-6.327h-3.692v6.327zm12.077 0V9.136h4V20.48zm-6.479-9.172q.546 0 .926-.383.38-.382.38-.927 0-.546-.383-.926a1.27 1.27 0 0 0-.927-.38q-.546 0-.926.382t-.38.928.383.926.927.38"/></svg>