<svg xmlns="http://www.w3.org/2000/svg" width="24" height="24" viewBox="0 0 24 24" fill='currentColor'><path d="M4.327 19.673v-1.5H7.25l-.727-.696q-1.187-1.187-1.73-2.576a7.7 7.7 0 0 1-.543-2.832q0-2.591 1.518-4.649Q7.286 5.364 9.75 4.596v1.581a6.14 6.14 0 0 0-2.905 2.318A6.2 6.2 0 0 0 5.75 12.07q0 1.173.444 2.28.444 1.105 1.383 2.043l.634.635V14.29h1.5v5.384zm9.923-.27v-1.58a6.14 6.14 0 0 0 2.905-2.318 6.2 6.2 0 0 0 1.095-3.574q0-1.173-.444-2.279t-1.383-2.044l-.634-.635v2.739h-1.5V4.327h5.384v1.5H16.75l.727.696q1.187 1.187 1.73 2.576t.543 2.832q0 2.592-1.518 4.649t-3.982 2.824"/></svg>