<svg xmlns="http://www.w3.org/2000/svg" width="24" height="24" viewBox="0 0 24 24" fill='currentColor'><path d="M4.327 19.673v-1.5h2.908q-1.535-1.33-2.26-2.861a7.55 7.55 0 0 1-.725-3.273q0-2.628 1.551-4.673 1.55-2.047 3.949-2.77v1.581Q7.98 6.86 6.865 8.46a6.1 6.1 0 0 0-1.115 3.579q0 1.436.59 2.645.591 1.21 1.871 2.343V14.29h1.5v5.384zM18.25 12.02q0-1.419-.58-2.623-.58-1.203-1.882-2.413v2.729h-1.5V4.327h5.385v1.5h-2.908q1.687 1.47 2.338 3.035a8.1 8.1 0 0 1 .647 3.157zm-3.134 9.846v-4.769h1.009v-1q0-.787.549-1.335a1.82 1.82 0 0 1 1.335-.55q.787 0 1.336.55.55.549.55 1.335v1h.99v4.77zm1.893-4.769h2v-1a.97.97 0 0 0-.287-.712.97.97 0 0 0-.713-.288.97.97 0 0 0-.712.288.97.97 0 0 0-.288.712z"/></svg>