<svg xmlns="http://www.w3.org/2000/svg" width="24" height="24" viewBox="0 0 24 24" fill='currentColor'><path d="M18.15 10.865a6.2 6.2 0 0 0-.757-1.996q-.543-.913-1.604-1.886v2.729h-1.5V4.327h5.384v1.5h-2.908q1.335 1.18 2.008 2.417t.892 2.621zm-5.054 7.75v-5.557H21.5v5.557zm-8.769 1.058v-1.5h2.908q-1.535-1.33-2.26-2.861a7.55 7.55 0 0 1-.725-3.273q0-2.628 1.551-4.673 1.55-2.047 3.949-2.77v1.581Q7.98 6.86 6.865 8.46a6.1 6.1 0 0 0-1.115 3.579q0 1.436.59 2.645.591 1.21 1.871 2.343V14.29h1.5v5.384zm7.77 1.827V20H22.5v1.5z"/></svg>