<svg xmlns="http://www.w3.org/2000/svg" width="24" height="24" viewBox="0 0 24 24" fill='currentColor'><path d="M8.289 6.365 12 1.413l3.712 4.952zm-2.039 4V8.657A3.85 3.85 0 0 1 4.201 7.46q-.816-.91-.922-2.185h1.5q.096.81.727 1.392.63.583 1.47.583h10.05q.837 0 1.468-.583.63-.583.727-1.392h1.5q-.076 1.265-.898 2.176-.82.91-2.073 1.206v1.708zm-2 11.385v-9.093a3.77 3.77 0 0 1-2.059-1.187 3.55 3.55 0 0 1-.912-2.195h1.5q.096.81.727 1.392.63.582 1.47.583h14.05q.837 0 1.468-.583.63-.583.727-1.392h1.5a3.45 3.45 0 0 1-.893 2.185 3.83 3.83 0 0 1-2.078 1.197v9.093h-6.5v-5h-2.5v5z"/></svg>