<svg xmlns="http://www.w3.org/2000/svg" width="24" height="24" viewBox="0 0 24 24" fill='currentColor'><path d="M16 21.25q-.934 0-1.784-.3a5.6 5.6 0 0 1-1.537-.825l-1.152 1.152a.7.7 0 0 1-.52.207.74.74 0 0 1-.534-.207.74.74 0 0 1-.207-.534.7.7 0 0 1 .207-.52l1.152-1.152a5.6 5.6 0 0 1-.825-1.537q-.3-.85-.3-1.784 0-2.289 1.606-3.902 1.605-1.613 3.896-1.598h5.473v5.498q.03 2.29-1.58 3.896T16 21.25m-2.642-2.858q.217.218.527.218a.72.72 0 0 0 .527-.218l2.115-2.115a.72.72 0 0 0 .217-.527.72.72 0 0 0-.217-.527.72.72 0 0 0-.527-.217.72.72 0 0 0-.527.217l-2.115 2.115a.72.72 0 0 0-.217.527q0 .31.217.527M6.4 12.76q-1.245 0-2.12-.876a2.9 2.9 0 0 1-.876-2.12V6.76h3.004q1.244 0 2.12.876.876.875.876 2.12v3.003zm5.196-5.5v-2q0-.84.58-1.42t1.42-.58h2v2q0 .84-.58 1.42t-1.42.58z"/></svg>