<svg xmlns="http://www.w3.org/2000/svg" width="24" height="24" viewBox="0 0 24 24" fill='currentColor'><path d="M3.933 20.75a2.67 2.67 0 0 1-1.962-.808 2.67 2.67 0 0 1-.807-1.961q0-1.154.807-1.962a2.67 2.67 0 0 1 1.962-.807q.24 0 .47.042.227.043.447.121l4.28-5.883a3.76 3.76 0 0 1-.9-2.463q0-1.563 1.104-2.666A3.63 3.63 0 0 1 12 3.26q1.563 0 2.666 1.103a3.63 3.63 0 0 1 1.103 2.666q0 .705-.25 1.336a4 4 0 0 1-.675 1.127l4.297 5.893q.219-.08.45-.126.231-.048.476-.048 1.155 0 1.962.808a2.67 2.67 0 0 1 .808 1.962q0 1.154-.808 1.961a2.67 2.67 0 0 1-1.962.808 2.67 2.67 0 0 1-1.961-.808 2.67 2.67 0 0 1-.808-1.961q0-.495.167-.937.165-.443.454-.792l-4.261-5.863a2 2 0 0 1-.435.2q-.223.072-.473.126v4.604a2.66 2.66 0 0 1 1.447.97q.572.735.572 1.682 0 1.154-.807 1.962A2.67 2.67 0 0 1 12 20.74q-1.154 0-1.961-.807a2.67 2.67 0 0 1-.808-1.962q0-.945.572-1.675a2.75 2.75 0 0 1 1.447-.977v-4.604a5 5 0 0 1-.473-.127 2 2 0 0 1-.435-.2l-4.27 5.864q.287.35.459.792.171.442.171.937 0 1.154-.808 1.961a2.67 2.67 0 0 1-1.961.808"/></svg>