<svg xmlns="http://www.w3.org/2000/svg" width="24" height="24" viewBox="0 0 24 24" fill='currentColor'><path d="m13.596 13 3.442-9h1.12l3.492 9h-1.261l-.916-2.454h-3.72L14.839 13zm2.531-3.504h2.942l-1.43-3.884h-.07zM8.077 20.5q-1.873 0-3.186-1.314Q3.577 17.874 3.577 16q0-1.123.525-2.098a4.65 4.65 0 0 1 1.475-1.633V6q0-1.048.726-1.774A2.4 2.4 0 0 1 8.077 3.5q1.048 0 1.774.726T10.577 6v6.27a4.65 4.65 0 0 1 1.475 1.632q.525.976.525 2.098 0 1.873-1.313 3.186Q9.95 20.5 8.077 20.5m-3-4.5h6q0-.735-.356-1.393a3.4 3.4 0 0 0-1.017-1.142L9.077 13V6a.97.97 0 0 0-.287-.713A.97.97 0 0 0 8.077 5a.97.97 0 0 0-.712.287.97.97 0 0 0-.288.713v7l-.627.465q-.662.483-1.017 1.142A2.9 2.9 0 0 0 5.077 16"/></svg>