<svg xmlns="http://www.w3.org/2000/svg" width="24" height="24" viewBox="0 0 24 24" fill='currentColor'><path d="M13.962 7.75v-1.5h7.5v1.5zM8.38 20.5q-1.869 0-3.183-1.314Q3.885 17.874 3.885 16q0-1.142.534-2.113a4.74 4.74 0 0 1 1.466-1.618V6q0-1.048.726-1.774A2.4 2.4 0 0 1 8.385 3.5q1.047 0 1.774.726.725.726.725 1.774v6.27a4.74 4.74 0 0 1 1.466 1.617q.534.97.534 2.113 0 1.873-1.317 3.186Q10.25 20.5 8.381 20.5M5.385 16h6q0-.724-.313-1.35a2.9 2.9 0 0 0-.887-1.05l-.8-.6V6a.97.97 0 0 0-.288-.713A.97.97 0 0 0 8.385 5a.97.97 0 0 0-.713.287.97.97 0 0 0-.287.713v7l-.8.6q-.576.425-.888 1.05A3 3 0 0 0 5.385 16"/></svg>