<svg xmlns="http://www.w3.org/2000/svg" width="24" height="24" viewBox="0 0 24 24" fill='currentColor'><path d="m12.098 23.75 2.206-2.502-2-1 2.611-2.998h1.987l-2.206 2.502 2 1-2.612 2.998zm-6 0 2.206-2.502-2-1 2.611-2.998h1.987l-2.206 2.502 2 1-2.611 2.998zm1.402-8q-2.178 0-3.714-1.536Q2.25 12.68 2.25 10.5q0-2.008 1.341-3.49Q4.933 5.527 6.93 5.28a5.76 5.76 0 0 1 2.11-2.222A5.6 5.6 0 0 1 12 2.25q2.202 0 3.807 1.433 1.605 1.432 1.906 3.573 1.784.13 2.91 1.353A4.12 4.12 0 0 1 21.75 11.5q0 1.77-1.24 3.01t-3.01 1.24z"/></svg>