<svg xmlns="http://www.w3.org/2000/svg" width="24" height="24" viewBox="0 0 24 24" fill='currentColor'><path d="m9.5 8.989-2.27-2.27a2.5 2.5 0 0 1-.544-.807 2.4 2.4 0 0 1-.186-.937q0-1.038.713-1.757A2.36 2.36 0 0 1 8.95 2.5h6.1q1.014 0 1.72.718.705.719.705 1.732 0 .52-.207.986a2.8 2.8 0 0 1-.564.833L14.5 8.963v5.964l2.254 2.244q.348.358.547.817t.199.962q0 1.064-.73 1.794-.732.73-1.795.731-.504 0-.958-.192a2.6 2.6 0 0 1-.811-.539A1.62 1.62 0 0 0 12 20.225q-.345 0-.65.138-.304.14-.546.381-.358.348-.816.54a2.5 2.5 0 0 1-.963.191q-1.064 0-1.79-.73-.725-.732-.735-1.795 0-.504.186-.962.187-.459.545-.807L9.5 14.952z"/></svg>