<svg xmlns="http://www.w3.org/2000/svg" width="24" height="24" viewBox="0 0 24 24" fill='currentColor'><path d="M9.346 16.942h5.308V12.25h-3.808v-1.692h3.808v-1.5H9.346v4.692h3.808v1.692H9.346zM9.192 2.75v-1.5h5.616v1.5zM12 21.5a8.2 8.2 0 0 1-3.298-.67 8.6 8.6 0 0 1-2.706-1.826 8.6 8.6 0 0 1-1.827-2.706A8.2 8.2 0 0 1 3.5 13q0-1.749.67-3.298a8.6 8.6 0 0 1 1.826-2.706A8.6 8.6 0 0 1 8.702 5.17 8.2 8.2 0 0 1 12 4.5q1.502 0 2.893.51 1.392.51 2.584 1.46l1.246-1.247 1.054 1.054-1.246 1.246a9.2 9.2 0 0 1 1.46 2.584q.51 1.391.509 2.893a8.2 8.2 0 0 1-.67 3.298 8.6 8.6 0 0 1-1.826 2.706 8.6 8.6 0 0 1-2.706 1.827A8.2 8.2 0 0 1 12 21.5"/></svg>