<svg xmlns="http://www.w3.org/2000/svg" width="24" height="24" viewBox="0 0 24 24" fill='currentColor'><path d="m19.877 21.985-2.458-2.458a8.5 8.5 0 0 1-2.54 1.457A8.3 8.3 0 0 1 12 21.5q-1.755 0-3.3-.67a8.6 8.6 0 0 1-2.704-1.826A8.6 8.6 0 0 1 4.17 16.3 8.2 8.2 0 0 1 3.5 13q0-1.52.506-2.911A8 8 0 0 1 5.473 7.58L2.016 4.123l1.053-1.054 17.862 17.862zM9.192 2.75v-1.5h5.616v1.5zm10.392 14.025L12.75 9.94V8.192h-1.5v.248L8.21 5.4a8 8 0 0 1 1.834-.671A8.5 8.5 0 0 1 12 4.5a8.3 8.3 0 0 1 2.856.505q1.395.505 2.611 1.464l1.247-1.246 1.053 1.054-1.246 1.246a9.4 9.4 0 0 1 1.47 2.617q.51 1.399.509 2.86 0 .954-.229 1.91a8.6 8.6 0 0 1-.687 1.865"/></svg>