<svg xmlns="http://www.w3.org/2000/svg" width="24" height="24" viewBox="0 0 24 24" fill='currentColor'><path d="M6.212 8.682V6.56l-1.29-1.29h-.595v1.529zm2.269 0 1.885-1.884V5.269H9.77l-1.29 1.29zm-2.27 4.712v-2.123L4.328 9.386v2.123zm2.27 0 1.885-1.885V9.386L8.48 11.271zm-2.27 4.711v-2.123l-1.884-1.884v2.123zm2.27 0 1.885-1.884v-2.123L8.48 15.982zm10.177-9.903a.92.92 0 0 1-.674-.272.9.9 0 0 1-.273-.672q0-.189.07-.354a1 1 0 0 1 .211-.306q.29-.291 1.303-.642l1.013-.35a30 30 0 0 1-.356 1.017q-.141.4-.318.777-.176.378-.317.519a1 1 0 0 1-.306.212.9.9 0 0 1-.353.07M4.633 20.259q-.747 0-1.276-.53a1.74 1.74 0 0 1-.53-1.277V5.49q0-.746.531-1.277t1.277-.53h5.425q.745 0 1.275.53.53.531.53 1.277v7.615h3.77v5.654h2.269v-6.038h-.942V11.44a4.67 4.67 0 0 1-2.063-1.693 4.36 4.36 0 0 1-.764-2.49q0-1.88 1.322-3.199 1.32-1.317 3.197-1.318 1.883 0 3.2 1.318 1.32 1.32 1.319 3.198 0 1.359-.764 2.49a4.66 4.66 0 0 1-2.063 1.694v1.281h-.942v7.538h-5.27v-5.654h-2.269v3.847q0 .745-.53 1.276-.532.531-1.278.531zm14.022-9.98a2.9 2.9 0 0 0 2.138-.881q.88-.881.88-2.14t-.881-2.138a2.9 2.9 0 0 0-2.14-.88 2.9 2.9 0 0 0-2.137.881q-.88.88-.88 2.14 0 1.257.88 2.138.882.88 2.14.88"/></svg>