<svg xmlns="http://www.w3.org/2000/svg" width="24" height="24" viewBox="0 0 24 24" fill='currentColor'><path d="M9.148 9.557 4.041 6.713 12 2.288l7.96 4.425-5.108 2.844a3.9 3.9 0 0 0-1.287-.963A3.7 3.7 0 0 0 12 8.25a3.7 3.7 0 0 0-1.565.344q-.741.344-1.287.963m2.102 11.739-8-4.44V7.98l5.173 2.904a3 3 0 0 0-.133.545q-.04.267-.04.57 0 1.338.84 2.364a3.76 3.76 0 0 0 2.16 1.32zM12 14.25a2.17 2.17 0 0 1-1.595-.655A2.17 2.17 0 0 1 9.75 12q0-.941.655-1.596A2.17 2.17 0 0 1 12 9.75q.94 0 1.595.654.655.656.655 1.596t-.655 1.595A2.17 2.17 0 0 1 12 14.25m.75 7.046v-5.614a3.76 3.76 0 0 0 2.16-1.319q.84-1.027.84-2.363a4 4 0 0 0-.04-.57 3 3 0 0 0-.133-.546L20.75 7.98v8.875z"/></svg>