<svg xmlns="http://www.w3.org/2000/svg" width="24" height="24" viewBox="0 0 24 24" fill='currentColor'><path d="M7.539 21.952q-.423-.837-.66-2.248a17.5 17.5 0 0 1-.235-2.883q0-2.244.502-3.794T8.5 10.5V6.135L11.25 1.5h.308v4.679a.86.86 0 0 0-.375.345.97.97 0 0 0-.125.486q0 .396.273.664a.92.92 0 0 0 .669.268q.396 0 .67-.268a.9.9 0 0 0 .272-.665.97.97 0 0 0-.125-.485.86.86 0 0 0-.375-.345V1.5h.308l2.75 4.635V10.5q.877.977 1.366 2.527t.49 3.794q0 1.462-.231 2.878t-.654 2.253a2.47 2.47 0 0 1-1.41-1.087 3.2 3.2 0 0 1-.48-1.775q0-.616.137-1.33.138-.716.138-1.412 0-1.45-.745-2.901-.744-1.451-2.111-2.755-1.351 1.323-2.104 2.755-.752 1.432-.752 2.843 0 .735.15 1.465t.166 1.355a3.24 3.24 0 0 1-.503 1.763 2.48 2.48 0 0 1-1.418 1.079"/></svg>