<svg xmlns="http://www.w3.org/2000/svg" width="24" height="24" viewBox="0 0 24 24" fill='currentColor'><path d="M4.82 11.8q.614-2.011 2.402-4.28T12 2.654q2.99 2.597 4.778 4.866t2.403 4.28zm14.588 3.025a6.3 6.3 0 0 1-.495 1.635A6 6 0 0 1 18 17.879l-2.212 2.202q-.644.558-1.414.901a5.9 5.9 0 0 1-1.615.457zm-4.23-1.025h2.149l-7.389 7.38q-.42-.105-.814-.24a4 4 0 0 1-.759-.35zm-5.244 0h2.149l-5.437 5.437a8 8 0 0 1-.52-.562 6 6 0 0 1-.449-.617zm-5.25 0h2.149l-2.068 2.067a4.6 4.6 0 0 1-.165-1.033 4 4 0 0 1 .085-1.034"/></svg>