<svg xmlns="http://www.w3.org/2000/svg" width="24" height="24" viewBox="0 0 24 24" fill='currentColor'><path d="m14.023 3.785.75-1.318A4.34 4.34 0 0 1 16.44 4.11q.608 1.05.608 2.272 0 .61-.156 1.18-.155.57-.452 1.073l-1.292-.75q.2-.35.3-.713.1-.362.1-.787 0-.801-.412-1.5a3 3 0 0 0-1.113-1.1M19.5 21.5H9.208l-6.042-7.835 1.205-1.28 3.475 1.911V5.635h1.516v5.634H19.5zM4.704 8.635a4.45 4.45 0 0 1-.608-2.25q0-1.874 1.314-3.187 1.313-1.313 3.186-1.313t3.187 1.313 1.313 3.186q0 .608-.156 1.179-.156.57-.451 1.072l-1.293-.75q.201-.35.3-.713.1-.362.1-.787 0-1.25-.875-2.125a2.9 2.9 0 0 0-2.125-.875q-1.25 0-2.125.875a2.9 2.9 0 0 0-.875 2.125q0 .425.1.787t.3.713z"/></svg>