<svg xmlns="http://www.w3.org/2000/svg" width="24" height="24" viewBox="0 0 24 24" fill='currentColor'><path d="M2.5 19.5v-15h2.016l5.63 5.631a6.7 6.7 0 0 0-.625 1.607 7.3 7.3 0 0 0-.213 1.762v3a7.1 7.1 0 0 0 .667 3zm4.846-15H21.5v3.852a7.1 7.1 0 0 0-2.285-1.523 7.1 7.1 0 0 0-2.715-.521 6.9 6.9 0 0 0-2.84.593q-1.32.593-2.308 1.605zm9.904 8.75V8.546a4.9 4.9 0 0 1 2.996 1.577q1.207 1.32 1.254 3.127zm-1.5-4.704v4.358l-2.884-2.884a4.9 4.9 0 0 1 1.3-.972 5 5 0 0 1 1.584-.502m5.406 9.764-3.56-3.56H21.5v1.75q0 .48-.091.938-.092.459-.253.872M16.5 21.5q-2.088 0-3.544-1.456T11.5 16.5v-1.75h1.127L1.281 3.404 2.35 2.335l19.511 19.512-1.069 1.069-1.99-1.99a4.86 4.86 0 0 1-2.302.575"/></svg>