<svg xmlns="http://www.w3.org/2000/svg" width="24" height="24" viewBox="0 0 24 24" fill='currentColor'><path d="M20.5 16.816V21.5h-17v-4.654h1.085q.275.264.644.41.368.148.771.148.984 0 1.684-.7.7-.701.7-1.685t-.7-1.684a2.3 2.3 0 0 0-1.684-.7 1.92 1.92 0 0 0-1.32.519H3.5V8.5h4.98v-.23a3.2 3.2 0 0 1-.36-.847A3.6 3.6 0 0 1 8 6.5q0-1.672 1.164-2.836Q10.326 2.5 12 2.5q1.672 0 2.836 1.164Q16 4.826 16 6.5q0 .471-.12.923a3.2 3.2 0 0 1-.36.846V8.5h4.98v4.685h-1.15a1.8 1.8 0 0 0-.607-.405 1.9 1.9 0 0 0-.743-.146q-.984 0-1.684.701a2.3 2.3 0 0 0-.7 1.684q0 .984.7 1.684.7.702 1.684.701.42 0 .796-.155.375-.155.65-.433z"/></svg>