<svg xmlns="http://www.w3.org/2000/svg" width="24" height="24" viewBox="0 0 24 24" fill='currentColor'><path d="M7 19.75q-1.095 0-1.876-.741-.78-.742-.843-1.848H2.385v-6.634h2.704L3.135 8.573l-1 1L1.08 8.519l3.054-3.053 1.054 1.053-1 1 1.727 1.727 1.48-4.361h9.175l1.871 5.561h3.173v6.716H19.72q-.063 1.105-.843 1.847A2.63 2.63 0 0 1 17 19.75a2.6 2.6 0 0 1-1.693-.603 2.65 2.65 0 0 1-.934-1.532H9.627a2.65 2.65 0 0 1-.934 1.532A2.6 2.6 0 0 1 7 19.75m.13-9.365h4.1v-4H8.457zm5.6 0h4.1l-1.324-4H12.73zM7 18.25q.522 0 .886-.364T8.25 17t-.364-.886A1.2 1.2 0 0 0 7 15.75q-.521 0-.885.364A1.2 1.2 0 0 0 5.75 17q0 .522.365.886.364.364.885.364m10 0q.522 0 .886-.364T18.25 17t-.364-.886A1.2 1.2 0 0 0 17 15.75q-.521 0-.885.364a1.2 1.2 0 0 0-.365.886q0 .522.365.886.364.364.885.364"/></svg>