<svg xmlns="http://www.w3.org/2000/svg" width="24" height="24" viewBox="0 0 24 24" fill='currentColor'><path d="M12.002 21.5a9.3 9.3 0 0 1-3.706-.748 9.6 9.6 0 0 1-3.016-2.03 9.6 9.6 0 0 1-2.032-3.016 9.25 9.25 0 0 1-.748-3.704q0-1.972.748-3.706a9.6 9.6 0 0 1 2.03-3.016 9.6 9.6 0 0 1 3.017-2.032A9.25 9.25 0 0 1 12 2.5h.75v8.208q.354.217.552.542t.198.75q0 .612-.443 1.056A1.44 1.44 0 0 1 12 13.5q-.613 0-1.057-.443a1.44 1.44 0 0 1-.443-1.055q0-.426.198-.759t.552-.535V8.086a3.92 3.92 0 0 0-2.323 1.355Q8 10.532 8 12q0 1.65 1.175 2.825T12 16t2.825-1.175T16 12q0-.9-.363-1.662A4.3 4.3 0 0 0 14.65 9l1.07-1.07a5.7 5.7 0 0 1 1.298 1.805A5.35 5.35 0 0 1 17.5 12q0 2.292-1.604 3.896T12.003 17.5t-3.896-1.604T6.5 12q0-2.106 1.362-3.643 1.363-1.538 3.388-1.801V4.03q-3.062.279-5.156 2.553T4 12q0 3.35 2.325 5.675T12 20t5.675-2.325T20 12q0-1.725-.675-3.225a8 8 0 0 0-1.85-2.6l1.07-1.07a9.7 9.7 0 0 1 2.16 3.079q.795 1.77.795 3.813 0 1.972-.748 3.707a9.6 9.6 0 0 1-2.03 3.017 9.6 9.6 0 0 1-3.016 2.03 9.25 9.25 0 0 1-3.704.749"/></svg>