<svg xmlns="http://www.w3.org/2000/svg" width="24" height="24" viewBox="0 0 24 24" fill='currentColor'><path d="M3.615 21.5H1.5V13l2.368-5.663h10.42l2.366 5.665V21.5h-2.115v-1.952H3.615zm.012-9.99h10.885l-1.114-2.673H4.756zm1.904 5.327q.546 0 .926-.375t.38-.924-.382-.933a1.26 1.26 0 0 0-.928-.384q-.546 0-.926.384t-.38.933.382.924.928.375m7.096 0q.546 0 .926-.375t.38-.924-.383-.933a1.26 1.26 0 0 0-.927-.384q-.546 0-.926.384t-.38.933.383.924q.381.375.927.375M18 18.577v-8.196l-1.844-4.429h-9.99l.622-1.5h10.358l2.354 5.625v8.5zm2.884-2.923V7.458l-1.834-4.39H9.098l.623-1.5h10.327l2.337 5.596v8.49z"/></svg>