<svg xmlns="http://www.w3.org/2000/svg" width="24" height="24" viewBox="0 0 24 24" fill='currentColor'><path d="M4.5 15.308V6q0-1.152.625-1.843T6.793 3.1t2.4-.483T12 2.5q1.554 0 2.92.118 1.367.12 2.387.482t1.607 1.055q.585.693.586 1.845v9.308q0 1.34-.926 2.266t-2.266.926l1.5 1.5v.5h-1.423l-2-2h-4.77l-2 2H6.192V20l1.5-1.5q-1.34 0-2.266-.926T4.5 15.308M6 10.5h5.25V6.77H6zm6.75 0H18V6.77h-5.25zm-4.252 5.308q.566 0 .938-.37t.372-.936-.37-.937a1.26 1.26 0 0 0-.936-.373q-.566 0-.938.37a1.26 1.26 0 0 0-.372.936q0 .566.37.938t.936.372m7 0q.566 0 .938-.37t.372-.936-.37-.937a1.26 1.26 0 0 0-.936-.373q-.566 0-.937.37a1.26 1.26 0 0 0-.373.936q0 .566.37.938t.936.372"/></svg>