<svg xmlns="http://www.w3.org/2000/svg" width="24" height="24" viewBox="0 0 24 24" fill='currentColor'><path d="M4.5 17.308V8q0-2.127 1.99-2.78 1.99-.655 4.74-.72l.75-1.5H7.04V1.808h9.923V3H13.52l-.75 1.5q2.89.066 4.81.71 1.92.645 1.921 2.79v9.308q0 1.34-.926 2.266t-2.266.926l1.5 1.5v.5h-1.423l-2-2h-4.77l-2 2H6.192V22l1.5-1.5q-1.34 0-2.266-.926-.926-.927-.926-2.266m7.502.5q.546 0 .926-.383.38-.382.38-.927 0-.546-.383-.926a1.27 1.27 0 0 0-.927-.38q-.546 0-.926.382t-.38.928.383.926q.381.38.927.38M6 12.5h12V8.77H6z"/></svg>