<svg xmlns="http://www.w3.org/2000/svg" width="24" height="24" viewBox="0 0 24 24" fill='currentColor'><path d="M18.06 15.469a9.4 9.4 0 0 1-2.043-2.914A8.5 8.5 0 0 1 15.26 9q0-1.881.757-3.556A9.4 9.4 0 0 1 18.06 2.53l1.146 1.177a7.6 7.6 0 0 0-1.682 2.386A7 7 0 0 0 16.914 9q0 1.545.61 2.922a7.5 7.5 0 0 0 1.682 2.4zm3.257-3.258a4.6 4.6 0 0 1-1.048-1.447A4.15 4.15 0 0 1 19.887 9q0-.957.382-1.774a4.6 4.6 0 0 1 1.048-1.438l1.177 1.177q-.42.406-.672.91A2.5 2.5 0 0 0 21.572 9q0 .601.25 1.115t.672.919zm-12.461.288q-1.449 0-2.474-1.026A3.37 3.37 0 0 1 5.356 9q0-1.449 1.026-2.474A3.37 3.37 0 0 1 8.856 5.5q1.448 0 2.474 1.026A3.37 3.37 0 0 1 12.356 9q0 1.448-1.026 2.473A3.37 3.37 0 0 1 8.856 12.5m-7.5 7.616v-2.223a2.52 2.52 0 0 1 1.465-2.323q1.245-.621 2.789-1.038a12.4 12.4 0 0 1 3.246-.416q1.704 0 3.246.416 1.542.417 2.788 1.038.692.336 1.08.95.386.615.386 1.373v2.223z"/></svg>