<svg xmlns="http://www.w3.org/2000/svg" width="24" height="24" viewBox="0 0 24 24" fill='currentColor'><path d="M18.673 16.135q-1.761-.02-3.074-1.12-1.312-1.102-1.614-2.88H10.98l-.902-1.5h3.906q.105-.675.448-1.363.342-.687.913-1.156H8.594l-.902-1.5h8.397L14.67 2.75h-3.555v-1.5h4.609l1.96 5.366h.988q1.998 0 3.374 1.385t1.376 3.384q0 1.968-1.39 3.36-1.39 1.39-3.36 1.39m0-1.5q1.356 0 2.303-.947.947-.948.947-2.303 0-1.376-.937-2.322t-2.313-.947q-.13 0-.234.019-.105.018-.197.038l1.004 2.723-1.419.512-.97-2.692q-.673.434-1.053 1.169-.381.735-.381 1.5 0 1.356.947 2.303.948.947 2.303.947M7.385 22.769a2.65 2.65 0 0 1-1.947-.803 2.65 2.65 0 0 1-.803-1.947 1 1 0 0 1 .01-.134q.009-.059.028-.135H.635V14.5h2v-3.25h-2v-1.5H7.24l2.807 4.75h3.836v5.25h-3.788q.02.077.029.134t.01.135q0 1.145-.803 1.947a2.65 2.65 0 0 1-1.947.803M4.135 14.5H8.31l-1.906-3.25h-2.27zm3.25 6.77q.52 0 .885-.365.365-.364.365-.886 0-.52-.365-.885a1.2 1.2 0 0 0-.885-.365q-.522 0-.886.365a1.2 1.2 0 0 0-.364.885q0 .522.364.886t.886.364"/></svg>