<svg xmlns="http://www.w3.org/2000/svg" width="24" height="24" viewBox="0 0 24 24" fill='currentColor'><path d="M2.25 20.73v-1.5a4 4 0 0 0 1.57-.376 9.7 9.7 0 0 0 1.505-.921q.759.606 1.638.949a4.7 4.7 0 0 0 1.712.343q.816 0 1.715-.326a5.3 5.3 0 0 0 1.635-.947 5.5 5.5 0 0 0 1.65.967 5 5 0 0 0 1.7.306q.844 0 1.627-.306t1.723-.986q.879.664 1.585.961.708.298 1.44.337v1.5a5.7 5.7 0 0 1-1.52-.267 7.5 7.5 0 0 1-1.505-.677 6.2 6.2 0 0 1-1.696.74 6.6 6.6 0 0 1-1.654.223 6.5 6.5 0 0 1-1.654-.227 6.2 6.2 0 0 1-1.706-.746 5.6 5.6 0 0 1-1.629.738 6.5 6.5 0 0 1-1.711.235 6.3 6.3 0 0 1-1.671-.235 6.8 6.8 0 0 1-1.679-.729q-.736.431-1.512.669a6.4 6.4 0 0 1-1.563.276m0-4V14.5q0-2.377.918-4.39a10.8 10.8 0 0 1 2.51-3.482q1.59-1.469 3.736-2.298Q11.558 3.5 14 3.5q.71 0 1.416.068.706.069 1.29.19a7 7 0 0 0-.707 1.606 5.5 5.5 0 0 0-.249 1.561q0 1.48 1.047 2.528a3.45 3.45 0 0 0 2.528 1.047h2.425V12h-2.425q-2.12 0-3.597-1.478-1.478-1.477-1.478-3.597 0-.436.084-.93a6.4 6.4 0 0 1 .222-.916q-2.13.43-3.467 2.013-1.34 1.583-1.339 3.668 0 1.13.33 2.053.332.924.914 1.773a6 6 0 0 0 .492-.306l.523-.357a5.7 5.7 0 0 0 1.685.962q.93.34 1.681.34.75 0 1.666-.348a6.4 6.4 0 0 0 1.684-.954q.733.533 1.467.896.735.364 1.558.412v1.5a5.4 5.4 0 0 1-1.52-.281 8 8 0 0 1-1.505-.692 6.6 6.6 0 0 1-1.668.756 6.1 6.1 0 0 1-1.682.236 6 6 0 0 1-1.766-.279 6.5 6.5 0 0 1-1.584-.713 7 7 0 0 1-1.625.735 6.4 6.4 0 0 1-1.725.257 5.5 5.5 0 0 1-1.74-.24 7.6 7.6 0 0 1-1.61-.724q-.736.431-1.512.669a6.4 6.4 0 0 1-1.563.276"/></svg>