<svg xmlns="http://www.w3.org/2000/svg" width="24" height="24" viewBox="0 0 24 24" fill='currentColor'><path d="M11.615 12.27a.85.85 0 0 1-.626-.26.85.85 0 0 1-.258-.625q0-.368.258-.626a.85.85 0 0 1 .626-.259q.368 0 .626.259a.85.85 0 0 1 .259.626.85.85 0 0 1-.259.626.85.85 0 0 1-.626.258m0-6a.85.85 0 0 1-.626-.26.85.85 0 0 1-.258-.625q0-.368.258-.626a.85.85 0 0 1 .626-.259q.368 0 .626.259a.85.85 0 0 1 .259.626.85.85 0 0 1-.259.626.85.85 0 0 1-.626.258m2 3a.85.85 0 0 1-.626-.26.85.85 0 0 1-.258-.625q0-.368.258-.626a.85.85 0 0 1 .626-.259q.368 0 .626.259a.85.85 0 0 1 .259.626.85.85 0 0 1-.259.626.85.85 0 0 1-.626.258m1 3a.85.85 0 0 1-.626-.26.85.85 0 0 1-.258-.625q0-.368.258-.626a.85.85 0 0 1 .626-.259q.368 0 .626.259a.85.85 0 0 1 .259.626.85.85 0 0 1-.259.626.85.85 0 0 1-.626.258m0-6a.85.85 0 0 1-.626-.26.85.85 0 0 1-.258-.625q0-.368.258-.626a.85.85 0 0 1 .626-.259q.368 0 .626.259a.85.85 0 0 1 .259.626.85.85 0 0 1-.259.626.85.85 0 0 1-.626.258m2 3a.85.85 0 0 1-.625-.26.85.85 0 0 1-.26-.625q0-.368.26-.626a.85.85 0 0 1 .625-.259q.368 0 .626.259a.85.85 0 0 1 .259.626.85.85 0 0 1-.259.626.85.85 0 0 1-.626.258m1 3a.85.85 0 0 1-.625-.26.85.85 0 0 1-.26-.625q0-.368.26-.626a.85.85 0 0 1 .625-.259q.368 0 .626.259a.85.85 0 0 1 .259.626.85.85 0 0 1-.259.626.85.85 0 0 1-.626.258m0-6a.85.85 0 0 1-.625-.26.85.85 0 0 1-.26-.625q0-.368.26-.626a.85.85 0 0 1 .625-.259q.368 0 .626.259a.85.85 0 0 1 .259.626.85.85 0 0 1-.259.626.85.85 0 0 1-.626.258m2 3a.85.85 0 0 1-.625-.26.85.85 0 0 1-.26-.625q0-.368.26-.626a.85.85 0 0 1 .625-.259q.368 0 .626.259a.85.85 0 0 1 .259.626.85.85 0 0 1-.259.626.85.85 0 0 1-.626.258m1 3a.85.85 0 0 1-.625-.26.85.85 0 0 1-.26-.625q0-.368.26-.626a.85.85 0 0 1 .625-.259q.368 0 .626.259a.85.85 0 0 1 .259.626.85.85 0 0 1-.259.626.85.85 0 0 1-.626.258m0-6A.85.85 0 0 1 19.99 6a.85.85 0 0 1-.26-.625q0-.368.26-.626a.85.85 0 0 1 .625-.259q.368 0 .626.259a.85.85 0 0 1 .259.626.85.85 0 0 1-.259.626.85.85 0 0 1-.626.258m-1.04 14.23q-2.913 0-5.803-1.297-2.889-1.297-5.283-3.691-2.385-2.395-3.687-5.286Q3.5 7.334 3.5 4.425V3.5h5.17l.886 4.554-2.773 2.692q.617 1.08 1.32 2.009.704.927 1.49 1.697.762.783 1.697 1.479t2.08 1.338l2.755-2.803 4.375.89V20.5z"/></svg>