<svg xmlns="http://www.w3.org/2000/svg" width="24" height="24" viewBox="0 0 24 24" fill='currentColor'><path d="M11.25 16.442h1.5l.204-1.192q.386-.116.726-.291.339-.177.643-.463l1.152.402.77-1.267-.93-.808a3.5 3.5 0 0 0 0-1.646l.93-.808-.77-1.267-1.152.402a3 3 0 0 0-.643-.463 4 4 0 0 0-.726-.291l-.204-1.192h-1.5l-.204 1.192q-.386.116-.726.291-.339.177-.643.463l-1.152-.402-.77 1.267.93.808a3.5 3.5 0 0 0 0 1.646l-.93.808.77 1.267 1.152-.402q.304.286.643.463.34.175.726.291zm.75-2.365a2 2 0 0 1-1.47-.607A2 2 0 0 1 9.923 12q0-.864.607-1.47A2 2 0 0 1 12 9.923q.864 0 1.47.607.607.606.607 1.47t-.607 1.47a2 2 0 0 1-1.47.607M2.5 19.5v-15h19v15z"/></svg>