<svg xmlns="http://www.w3.org/2000/svg" width="24" height="24" viewBox="0 0 24 24" fill='currentColor'><path d="M10.5 12.385a.85.85 0 0 0 .626-.259.85.85 0 0 0 .258-.626.85.85 0 0 0-.258-.626.85.85 0 0 0-.626-.258.85.85 0 0 0-.626.258.85.85 0 0 0-.258.626q0 .368.258.626a.85.85 0 0 0 .626.258m3 0a.85.85 0 0 0 .626-.259.85.85 0 0 0 .258-.626.85.85 0 0 0-.258-.626.85.85 0 0 0-.626-.258.85.85 0 0 0-.626.258.85.85 0 0 0-.258.626q0 .368.258.626a.85.85 0 0 0 .626.258m-6 0a.85.85 0 0 0 .626-.259.85.85 0 0 0 .258-.626.85.85 0 0 0-.258-.626.85.85 0 0 0-.626-.258.85.85 0 0 0-.626.258.85.85 0 0 0-.258.626q0 .368.258.626a.85.85 0 0 0 .626.258m9 0a.85.85 0 0 0 .626-.259.85.85 0 0 0 .258-.626.85.85 0 0 0-.258-.626.85.85 0 0 0-.626-.258.85.85 0 0 0-.626.258.85.85 0 0 0-.258.626q0 .368.258.626a.85.85 0 0 0 .626.258M4.308 20.23V18.5H2.5v-14h19v14h-1.808v1.73h-.75l-.582-1.73H5.675l-.617 1.73z"/></svg>