<svg xmlns="http://www.w3.org/2000/svg" width="24" height="24" viewBox="0 0 24 24" fill='currentColor'><path d="m2.337 12.42 5.26-7.795q1.893.982 3.445 2.643t2.237 3.43q.967-1.104 2.045-1.713 1.078-.607 3.143-1.146 1.035-.287 1.805-.554a15 15 0 0 0 1.468-.593v8.506l-7.375 4.648a4 4 0 0 1-.95.434 3.7 3.7 0 0 1-1.065.153q-.701 0-1.359-.268a4 4 0 0 1-1.193-.765zm10.557 4.859a.85.85 0 0 0 .626-.259.85.85 0 0 0 .259-.626q0-.078-.177-.473l3.511-2.196q.097.219.304.343a.9.9 0 0 0 .458.124.85.85 0 0 0 .626-.258.85.85 0 0 0 .258-.626.84.84 0 0 0-.22-.572.87.87 0 0 0-.541-.298h-.02a.4.4 0 0 0 .048-.134 1 1 0 0 0 .012-.16.85.85 0 0 0-.258-.626.85.85 0 0 0-.626-.258.85.85 0 0 0-.626.258.85.85 0 0 0-.259.626q0 .1.214.55l-3.512 2.172a.87.87 0 0 0-.798-.51.85.85 0 0 0-.626.258.85.85 0 0 0-.258.627q0 .32.22.572a.88.88 0 0 0 .56.297.4.4 0 0 0-.047.134 1 1 0 0 0-.012.15q0 .368.258.626a.85.85 0 0 0 .626.259"/></svg>