<svg xmlns="http://www.w3.org/2000/svg" width="24" height="24" viewBox="0 0 24 24" fill='currentColor'><path d="M17.648 21.45q-.473 0-.913-.179a2.2 2.2 0 0 1-.743-.48 2 2 0 0 0-.27-.228.5.5 0 0 0-.272-.113h-2.302a1.9 1.9 0 0 1-1.42-.593 1.97 1.97 0 0 1-.58-1.432q0-.46.207-.871.207-.412.61-.735l.99-.81a.7.7 0 0 0 .14-.172.43.43 0 0 0 .053-.212v-5.54q0-.077-.02-.15a.4.4 0 0 0-.066-.139l-1.55-2.21a1.9 1.9 0 0 1-.276-.55 2 2 0 0 1-.088-.586q0-.838.58-1.42a1.93 1.93 0 0 1 1.42-.58h5q.839 0 1.412.568.573.57.573 1.407a2 2 0 0 1-.348 1.13l-1.55 2.241a.3.3 0 0 0-.068.135.6.6 0 0 0-.019.154v5.59a.47.47 0 0 0 .154.356l.965.975q.423.413.652.914t.229 1.03q0 1.048-.726 1.774a2.4 2.4 0 0 1-1.774.726m-8.723-1.252a2.1 2.1 0 0 1-.929.212 2.1 2.1 0 0 1-1.544-.623q-.63-.624-.63-1.512V9.262q0-.105-.02-.202a.6.6 0 0 0-.067-.183L4.023 5.29a2 2 0 0 1-.149-.42 1.8 1.8 0 0 1-.053-.434q0-.84.581-1.412.58-.573 1.42-.573h4v1.885q0 .048.033.082.034.033.082.033h.384a1.93 1.93 0 0 1 1.42.58q.58.582.58 1.42 0 .338-.096.629t-.298.558l-.933 1.234a.9.9 0 0 0-.13.25.9.9 0 0 0-.043.28v4.75a1 1 0 0 0 .039.259q.019.067.043.125a1 1 0 0 0 .063.115l1.007 1.529q.162.258.255.543t.093.578q0 .581-.303 1.056t-.803.717z"/></svg>