<svg xmlns="http://www.w3.org/2000/svg" width="24" height="24" viewBox="0 0 24 24" fill='currentColor'><path d="M2.5 18.5v-13h19v13zm2.75-4.558h2.808a.85.85 0 0 0 .626-.258.85.85 0 0 0 .258-.626v-1.673a.85.85 0 0 0-.258-.626.85.85 0 0 0-.626-.259H6.442V9.442h2.5V8.25H5.25v3.442h2.5v1.058h-2.5zm6.096 1.712h7.308v-.358q0-1-.99-1.571-.99-.57-2.664-.571-1.675 0-2.665.571-.989.571-.989 1.571zM15 11.846q.729 0 1.24-.51.51-.51.51-1.24 0-.729-.51-1.24-.511-.51-1.24-.51t-1.24.51-.51 1.24.51 1.24q.511.51 1.24.51"/></svg>