<svg xmlns="http://www.w3.org/2000/svg" width="24" height="24" viewBox="0 0 24 24" fill='currentColor'><path d="M17.704 14.854 16.65 13.8a6.1 6.1 0 0 0 1-1.75Q18 11.1 18 10q0-2.5-1.75-4.25T12 4q-1.1 0-2.05.35a6.1 6.1 0 0 0-1.75 1L7.146 4.296a7.8 7.8 0 0 1 2.216-1.314A7.2 7.2 0 0 1 12 2.5q3.104 0 5.302 2.184Q19.5 6.867 19.5 10q0 1.461-.506 2.695a8 8 0 0 1-1.29 2.159m-3.57-3.57-3.418-3.419q.273-.167.611-.266.339-.099.673-.099 1.058 0 1.779.736.72.735.721 1.764 0 .334-.099.673-.099.34-.267.611M6.5 22.231v-7.143a7.7 7.7 0 0 1-1.49-2.343A7.3 7.3 0 0 1 4.5 10q0-.811.146-1.489.146-.676.431-1.326l-3.33-3.331L2.8 2.8l18.4 18.4-1.054 1.054-2.646-2.616v2.593L12 20.48zM12 16q.477 0 .89-.092.414-.093.698-.181L6.273 8.412a4 4 0 0 0-.195.736A5 5 0 0 0 6 10q0 2.5 1.75 4.25T12 16"/></svg>