<svg xmlns="http://www.w3.org/2000/svg" width="24" height="24" viewBox="0 0 24 24" fill='currentColor'><path d="m20.792 22.916-3.229-3.23A9.26 9.26 0 0 1 12 21.5a9.2 9.2 0 0 1-3.702-.749 9.6 9.6 0 0 1-3.016-2.032 9.6 9.6 0 0 1-2.032-3.016A9.2 9.2 0 0 1 2.5 12a9.26 9.26 0 0 1 1.814-5.563L1.28 3.404l1.07-1.069 19.511 19.512zM20 17.154l-5.152-5.167 2.456-2.456-1.054-1.054-2.456 2.471L6.846 4A9.6 9.6 0 0 1 9.27 2.892 9.4 9.4 0 0 1 12 2.5q1.97 0 3.703.75a9.6 9.6 0 0 1 3.016 2.031 9.6 9.6 0 0 1 2.032 3.016q.75 1.734.749 3.703 0 1.43-.392 2.73A9.6 9.6 0 0 1 20 17.154m-9.42-.9 1.784-1.783-1.054-1.053-.73.729-2.85-2.85-1.053 1.053z"/></svg>