<svg xmlns="http://www.w3.org/2000/svg" width="24" height="24" viewBox="0 0 24 24" fill='currentColor'><path d="M12.01 20.5a8.3 8.3 0 0 1-3.316-.67 8.6 8.6 0 0 1-2.696-1.818 8.6 8.6 0 0 1-1.819-2.697A8.3 8.3 0 0 1 3.509 12q0-1.77.67-3.315a8.6 8.6 0 0 1 1.819-2.697A8.6 8.6 0 0 1 8.694 4.17a8.3 8.3 0 0 1 3.316-.67q1.887 0 3.585.793a8.5 8.5 0 0 1 2.915 2.23v-2.37h1.5v5.078h-5.076v-1.5h2.615a7.6 7.6 0 0 0-2.467-2.003A6.7 6.7 0 0 0 12.009 5Q9.084 5 7.047 7.037T5.01 12t2.037 4.962T12.009 19q2.626 0 4.578-1.705Q18.542 15.591 18.92 13h1.531q-.366 3.224-2.779 5.361Q15.258 20.5 12.01 20.5m2.973-4.473-3.723-3.723V7h1.5v4.696l3.277 3.277z"/></svg>