<svg xmlns="http://www.w3.org/2000/svg" width="24" height="24" viewBox="0 0 24 24" fill='currentColor'><path d="M14.183 6.865v-1.5h7.5v1.5zm0 3.885v-1.5h7.5v1.5zm0 3.884v-1.5h7.5v1.5zm-6.248-.827a2.53 2.53 0 0 1-1.853-.762 2.52 2.52 0 0 1-.765-1.85q0-1.09.763-1.854a2.52 2.52 0 0 1 1.85-.764q1.089 0 1.854.762t.764 1.85q0 1.09-.762 1.854a2.52 2.52 0 0 1-1.851.765m-5.618 5.616v-1.515q0-.426.207-.812a1.6 1.6 0 0 1 .57-.611 9.4 9.4 0 0 1 2.294-.965 9.7 9.7 0 0 1 2.545-.328q1.338 0 2.545.328t2.293.965a1.6 1.6 0 0 1 .57.611q.207.386.207.811v1.516z"/></svg>