<svg xmlns="http://www.w3.org/2000/svg" width="24" height="24" viewBox="0 0 24 24" fill='currentColor'><path d="M4.001 21.75a2.65 2.65 0 0 1-1.948-.802 2.65 2.65 0 0 1-.803-1.947q0-1.145.802-1.948a2.65 2.65 0 0 1 1.947-.803q1.145 0 1.948.802.803.801.803 1.947t-.802 1.948a2.65 2.65 0 0 1-1.947.803M4 20.25q.522 0 .886-.364.363-.364.364-.886 0-.522-.364-.886A1.2 1.2 0 0 0 4 17.75q-.522 0-.885.364A1.2 1.2 0 0 0 2.75 19q0 .522.365.886.363.364.885.364m3.875 1.5q.433-.602.654-1.31.22-.71.221-1.44 0-1.971-1.39-3.36Q5.972 14.25 4 14.25q-.443 0-.883.085a6 6 0 0 0-.867.238V9.25h3V5.6q0-1.82 1.265-3.085T9.599 1.25q1.325 0 2.412.72a4.25 4.25 0 0 1 1.599 1.926l6.902 16.354h2.238v1.5h-6.5v-1.5h2.635L12.246 4.504a2.85 2.85 0 0 0-1.058-1.273q-.72-.48-1.588-.481-1.178 0-2.014.836A2.75 2.75 0 0 0 6.75 5.6v3.65h1.865q1.554 0 2.652 1.098A3.6 3.6 0 0 1 12.365 13v8.75z"/></svg>