<svg xmlns="http://www.w3.org/2000/svg" width="24" height="24" viewBox="0 0 24 24" fill='currentColor'><path d="M11.714 19.5a6.54 6.54 0 0 0 1.005-3.486q0-2.785-1.955-4.741T6.023 9.317q-.883 0-1.712.231a6.3 6.3 0 0 0-1.57.677V4.5h15v6.385l3.518-3.52v9.27l-3.519-3.52V19.5zM6 20.5q-1.873 0-3.186-1.314Q1.5 17.874 1.5 16t1.314-3.187T6 11.5q1.873 0 3.187 1.313Q10.5 14.128 10.5 16t-1.313 3.186T6 20.5m-.442-3.712h.884v-3.5h-.884zM6 18.713a.46.46 0 0 0 .34-.14.46.46 0 0 0 .14-.341.46.46 0 0 0-.14-.34.46.46 0 0 0-.34-.141.46.46 0 0 0-.34.14.46.46 0 0 0-.14.34q0 .201.14.341t.34.14"/></svg>