<svg xmlns="http://www.w3.org/2000/svg" width="24" height="24" viewBox="0 0 24 24" fill='currentColor'><path d="M15.894 20.51v-4.654h.952v-1q0-.765.546-1.31.544-.546 1.311-.546t1.306.545.539 1.31v1h.952v4.654zm1.837-4.654h1.932v-1a.95.95 0 0 0-.268-.698.93.93 0 0 0-.693-.274.95.95 0 0 0-.698.274.95.95 0 0 0-.273.698zM12 14.2q-1.125 0-1.912-.787A2.6 2.6 0 0 1 9.3 11.5q0-1.125.787-1.912A2.6 2.6 0 0 1 12 8.8q1.125 0 1.912.787.788.788.788 1.913t-.787 1.912A2.6 2.6 0 0 1 12 14.2m.003 4.3q-3.45 0-6.288-1.903Q2.88 14.693 1.538 11.5 2.88 8.306 5.714 6.403T12 4.5q3.313 0 6.063 1.76 2.748 1.761 4.18 4.74h-3.541q-.748 0-1.417.209a4.4 4.4 0 0 0-1.227.6 3 3 0 0 0 .019-.309q0-1.699-1.19-2.888-1.19-1.19-2.89-1.189T9.11 8.613t-1.187 2.89q0 1.699 1.19 2.887T12 15.577a3.97 3.97 0 0 0 1.967-.514q-.045.183-.058.363-.015.18-.015.372v2.536q-.473.072-.945.119-.473.047-.946.047"/></svg>