<svg xmlns="http://www.w3.org/2000/svg" width="24" height="24" viewBox="0 0 24 24" fill='currentColor'><path d="m12.264 9.792-4.12-4.17q.158-.045.34-.084.183-.038.372-.038 1.448 0 2.474 1.026A3.37 3.37 0 0 1 12.356 9a3.5 3.5 0 0 1-.092.792M1.356 20.115v-2.223q0-.758.386-1.367a2.65 2.65 0 0 1 1.08-.956q1.246-.63 2.788-1.043a12.5 12.5 0 0 1 3.246-.411q.852 0 1.636.13.785.129 1.437.282L9.74 12.369a2.8 2.8 0 0 1-.884.13q-1.449 0-2.474-1.026A3.37 3.37 0 0 1 5.356 9q0-.247.032-.468a2.5 2.5 0 0 1 .098-.417L1.602 4.2l1.054-1.054L20.617 21.26l-1.023 1.085-3.238-3.27v1.039zm18.488-4.646-1.146-1.146a7.5 7.5 0 0 0 1.682-2.402A7.1 7.1 0 0 0 20.99 9q0-1.546-.61-2.907a7.6 7.6 0 0 0-1.682-2.386l1.146-1.177a9.4 9.4 0 0 1 2.043 2.914A8.5 8.5 0 0 1 22.644 9q0 1.88-.757 3.555a9.4 9.4 0 0 1-2.043 2.914m-3.258-3.258-1.176-1.177q.42-.405.672-.919.25-.513.25-1.115 0-.622-.25-1.125a3.3 3.3 0 0 0-.672-.91l1.177-1.177q.665.62 1.047 1.438.383.817.383 1.774 0 .936-.383 1.764a4.6 4.6 0 0 1-1.047 1.447"/></svg>