<svg xmlns="http://www.w3.org/2000/svg" width="24" height="24" viewBox="0 0 24 24" fill='currentColor'><path d="M1.692 21.5h3.5v-9.577h-3.5zM14 21.904l7.5-2.654v-1.788h-8.461l-2.485-.846.33-.839 2.174.8h3.5v-1.798l-7.689-2.856H6.692v7.88zm1.846-9.212L11.89 8.864a7 7 0 0 1-1.207-1.543 3.64 3.64 0 0 1-.49-1.848q0-1.24.867-2.106a2.87 2.87 0 0 1 2.106-.867q.81 0 1.496.39t1.185.995a4.3 4.3 0 0 1 1.186-.994q.685-.39 1.495-.391 1.24 0 2.107.866.866.867.866 2.107 0 .998-.482 1.848a6.8 6.8 0 0 1-1.199 1.543z"/></svg>