<svg xmlns="http://www.w3.org/2000/svg" width="24" height="24" viewBox="0 0 24 24" fill='currentColor'><path d="M8 17.23q-2.463-.665-3.982-2.674Q2.5 12.547 2.5 10q0-1.173.348-2.232A7.6 7.6 0 0 1 3.827 5.8L1.433 3.405l1.053-1.053 18.781 18.78-1.053 1.054-.687-.686h-9.335v-9.335L8 9.988zM10 2.5q2.549 0 4.557 1.518T17.23 8h-6.262L6.402 3.427A7.2 7.2 0 0 1 8.14 2.73 7.5 7.5 0 0 1 10 2.5m3.162 7.692H21.5v8.338zm3.769 8.711-.998-1.013-.433.529-1.28-1.42a.07.07 0 0 0-.059-.028.07.07 0 0 0-.057.029l-1.412 1.903z"/></svg>