<svg xmlns="http://www.w3.org/2000/svg" width="24" height="24" viewBox="0 0 24 24" fill='currentColor'><path d="M19.25 16.75v-1.5h1.5v1.5zm0-4v-1.5h2.5v1.5zm0-4V7.225h3.5V8.75zM7.24 21.096l-1.119-3.838q-1.23-.844-1.987-2.23A6.2 6.2 0 0 1 3.375 12q0-1.64.759-3.027.758-1.386 1.987-2.23l1.12-3.839h5.268l1.12 3.839q1.23.843 1.987 2.23.759 1.388.759 3.027a6.2 6.2 0 0 1-.759 3.027q-.758 1.387-1.987 2.231l-1.12 3.838zM9.876 17q2.075 0 3.537-1.462 1.463-1.462 1.463-3.538 0-2.074-1.463-3.537T9.875 7 6.338 8.463 4.875 12q0 2.076 1.463 3.538Q7.8 17 9.875 17"/></svg>