<svg xmlns="http://www.w3.org/2000/svg" width="24" height="24" viewBox="0 0 24 24" fill='currentColor'><path d="M3.34 17q-.642-1.11-.991-2.372A9.8 9.8 0 0 1 2 12q0-1.365.354-2.628Q2.708 8.11 3.34 7l1.293.75A8.4 8.4 0 0 0 3.5 12a8.45 8.45 0 0 0 1.133 4.25zm17.32 0-1.293-.75A8.4 8.4 0 0 0 20.5 12a8.45 8.45 0 0 0-1.133-4.25L20.66 7q.642 1.11.991 2.372.35 1.263.349 2.628 0 1.365-.349 2.628A10 10 0 0 1 20.66 17M9.48 21.5l-1.234-4.242a6.36 6.36 0 0 1-1.987-2.231A6.2 6.2 0 0 1 5.5 12q0-1.641.759-3.027.758-1.386 1.987-2.23L9.481 2.5h5.038l1.235 4.242q1.23.845 1.987 2.231.759 1.386.759 3.027a6.2 6.2 0 0 1-.759 3.027 6.36 6.36 0 0 1-1.987 2.23L14.519 21.5zM12 17q2.075 0 3.537-1.463Q17 14.075 17 12t-1.463-3.537Q14.075 7 12 7T8.463 8.463 7 12t1.463 3.537T12 17"/></svg>