<svg xmlns="http://www.w3.org/2000/svg" width="24" height="24" viewBox="0 0 24 24" fill='currentColor'><path d="M18.567 11.99V3.52h1.5v8.47zM7.241 21.097l-1.12-3.838q-1.23-.844-1.987-2.23A6.2 6.2 0 0 1 3.375 12q0-1.64.759-3.027.758-1.386 1.987-2.23l1.12-3.839h5.268l1.12 3.839q1.23.843 1.987 2.23.759 1.388.759 3.027a6.2 6.2 0 0 1-.759 3.027q-.758 1.387-1.987 2.231l-1.12 3.838zM9.875 17q2.075 0 3.537-1.462 1.463-1.462 1.463-3.538 0-2.074-1.463-3.537T9.875 7 6.338 8.463 4.875 12q0 2.076 1.463 3.538Q7.8 17 9.875 17"/></svg>