<svg xmlns="http://www.w3.org/2000/svg" width="24" height="24" viewBox="0 0 24 24" fill='currentColor'><path d="m10.95 14.82-2.494-2.47 1.069-1.054 1.425 1.41 3.525-3.525 1.07 1.044zM9.48 21.5l-1.234-4.242a6.36 6.36 0 0 1-1.987-2.231A6.2 6.2 0 0 1 5.5 12q0-1.641.759-3.027.758-1.386 1.987-2.23L9.481 2.5h5.038l1.235 4.242q1.23.845 1.987 2.231.759 1.386.759 3.027a6.2 6.2 0 0 1-.759 3.027 6.36 6.36 0 0 1-1.987 2.23L14.519 21.5zM12 17q2.075 0 3.537-1.463Q17 14.075 17 12t-1.463-3.537Q14.075 7 12 7T8.463 8.463 7 12t1.463 3.537T12 17"/></svg>