<svg xmlns="http://www.w3.org/2000/svg" width="24" height="24" viewBox="0 0 24 24" fill='currentColor'><path d="m11.99 9.394-.754 1.115q-.597.926-.792 1.387-.195.462-.194.963 0 .72.51 1.233.511.513 1.24.513t1.24-.51.51-1.24q0-.487-.199-.963-.199-.477-.797-1.383zm.01 8.644q-2.513 0-4.275-1.763-1.763-1.764-1.763-4.276t1.764-4.275 4.276-1.763 4.275 1.764Q18.038 9.487 18.038 12q0 2.512-1.763 4.275-1.764 1.762-4.276 1.762m8.751-6.404v-.884h-1.652a7.1 7.1 0 0 0-1.346-3.126 7.1 7.1 0 0 0-2.58-2.124h5.578v-.885h1.5v7.02zm-19 7.75v-7.019h1.5v.885h1.652a7.1 7.1 0 0 0 1.346 3.126 7.1 7.1 0 0 0 2.58 2.124H3.25v.884z"/></svg>