<svg xmlns="http://www.w3.org/2000/svg" width="24" height="24" viewBox="0 0 24 24" fill='currentColor'><path d="M7.5 14.981a.85.85 0 0 0 .626-.259.85.85 0 0 0 .258-.625.85.85 0 0 0-.258-.626.85.85 0 0 0-.626-.26.85.85 0 0 0-.626.26.85.85 0 0 0-.258.626q0 .367.258.625a.85.85 0 0 0 .626.259m1.5-3a.85.85 0 0 0 .626-.259.85.85 0 0 0 .258-.625.85.85 0 0 0-.258-.626.85.85 0 0 0-.626-.26.85.85 0 0 0-.626.26.85.85 0 0 0-.258.626q0 .367.258.625a.85.85 0 0 0 .626.259m0 6a.85.85 0 0 0 .626-.259.85.85 0 0 0 .258-.626.85.85 0 0 0-.258-.625.85.85 0 0 0-.626-.26.85.85 0 0 0-.626.26.85.85 0 0 0-.258.625q0 .368.258.626a.85.85 0 0 0 .626.259m1.5-3a.85.85 0 0 0 .626-.259.85.85 0 0 0 .258-.625.85.85 0 0 0-.258-.626.85.85 0 0 0-.626-.26.85.85 0 0 0-.626.26.85.85 0 0 0-.258.626q0 .367.258.625a.85.85 0 0 0 .626.259m0-6a.85.85 0 0 0 .626-.259.85.85 0 0 0 .258-.625.85.85 0 0 0-.258-.626.85.85 0 0 0-.626-.26.85.85 0 0 0-.626.26.85.85 0 0 0-.258.626q0 .366.258.625a.85.85 0 0 0 .626.26m1.5 3a.85.85 0 0 0 .626-.259.85.85 0 0 0 .258-.625.85.85 0 0 0-.258-.626.85.85 0 0 0-.626-.26.85.85 0 0 0-.626.26.85.85 0 0 0-.258.626q0 .367.258.625a.85.85 0 0 0 .626.259m0 6a.85.85 0 0 0 .626-.259.85.85 0 0 0 .258-.626.85.85 0 0 0-.258-.625.85.85 0 0 0-.626-.26.85.85 0 0 0-.626.26.85.85 0 0 0-.258.625q0 .368.258.626a.85.85 0 0 0 .626.259m1.5-3a.85.85 0 0 0 .626-.259.85.85 0 0 0 .258-.625.85.85 0 0 0-.258-.626.85.85 0 0 0-.626-.26.85.85 0 0 0-.626.26.85.85 0 0 0-.258.626q0 .367.258.625a.85.85 0 0 0 .626.259m0-6a.85.85 0 0 0 .626-.259.85.85 0 0 0 .258-.625.85.85 0 0 0-.258-.626.85.85 0 0 0-.626-.26.85.85 0 0 0-.626.26.85.85 0 0 0-.258.626q0 .366.258.625a.85.85 0 0 0 .626.26m1.5 3a.85.85 0 0 0 .626-.259.85.85 0 0 0 .258-.625.85.85 0 0 0-.258-.626.85.85 0 0 0-.626-.26.85.85 0 0 0-.626.26.85.85 0 0 0-.258.626q0 .367.258.625a.85.85 0 0 0 .626.259m0 6a.85.85 0 0 0 .626-.259.85.85 0 0 0 .258-.626.85.85 0 0 0-.258-.625.85.85 0 0 0-.626-.26.85.85 0 0 0-.626.26.85.85 0 0 0-.258.625q0 .368.258.626a.85.85 0 0 0 .626.259m1.5-3a.85.85 0 0 0 .626-.259.85.85 0 0 0 .258-.625.85.85 0 0 0-.258-.626.85.85 0 0 0-.626-.26.85.85 0 0 0-.626.26.85.85 0 0 0-.258.626q0 .367.258.625a.85.85 0 0 0 .626.259m-4.502 6.52q-3.21 0-5.355-2.207Q4.5 17.086 4.5 13.8q0-2.326 1.862-5.1Q8.226 5.924 12 2.653q3.776 3.271 5.637 6.045Q19.5 11.474 19.5 13.8q0 3.286-2.145 5.494Q15.21 21.5 11.998 21.5"/></svg>