<svg xmlns="http://www.w3.org/2000/svg" width="24" height="24" viewBox="0 0 24 24" fill='currentColor'><path d="M8.025 10.862q0 1.105.56 2.002a4.16 4.16 0 0 0 1.444 1.413 2.8 2.8 0 0 1-.378-.69 2.2 2.2 0 0 1-.137-.785 2.38 2.38 0 0 1 .738-1.739L12 9.332l1.759 1.732q.356.337.542.782.185.446.185.957a2.3 2.3 0 0 1-.132.784 2.7 2.7 0 0 1-.373.691 4.1 4.1 0 0 0 1.44-1.413q.554-.897.554-2.003 0-1.087-.553-2.026a4.05 4.05 0 0 0-1.478-1.475l-.286.338q-.135.135-.303.222a.8.8 0 0 1-.364.088.92.92 0 0 1-.67-.273.9.9 0 0 1-.279-.666V5.406q-.057.038-.695.429-.638.39-1.371 1.095a8.5 8.5 0 0 0-1.342 1.7 4.2 4.2 0 0 0-.609 2.231m3.975.146-.925.9a1.2 1.2 0 0 0-.284.422 1.3 1.3 0 0 0-.085.475q0 .531.38.894.381.363.914.363t.914-.363.38-.894q0-.278-.085-.488a1.3 1.3 0 0 0-.284-.41zM6.058 21.75a1.74 1.74 0 0 1-1.277-.531 1.74 1.74 0 0 1-.531-1.277V6q0-1.554 1.098-2.652A3.6 3.6 0 0 1 8 2.25h8q1.554 0 2.652 1.098A3.6 3.6 0 0 1 19.75 6v13.942q0 .746-.531 1.277a1.74 1.74 0 0 1-1.277.531zM9 17.25q.902 0 1.315-.5.411-.5 1.69-.5t1.723.5q.446.5 1.267.5.822 0 1.296-.5t1.959-.5V6q0-.929-.661-1.589-.66-.66-1.589-.661H8q-.929 0-1.589.661-.66.66-.661 1.589v10.25q1.475 0 1.919.5t1.331.5"/></svg>