<svg xmlns="http://www.w3.org/2000/svg" width="24" height="24" viewBox="0 0 24 24" fill='currentColor'><path d="M9 8.5h6v-2q0-1.25-.875-2.125A2.9 2.9 0 0 0 12 3.5q-1.25 0-2.125.875A2.9 2.9 0 0 0 9 6.5zm9.76 13q-.944 0-1.598-.652a2.17 2.17 0 0 1-.652-1.598q0-.443.155-.821.156-.38.427-.693l1.668-1.861 1.667 1.861q.27.314.427.693.155.378.155.821 0 .945-.652 1.598a2.17 2.17 0 0 1-1.597.652M12 16.75q.729 0 1.24-.51.51-.511.51-1.24t-.51-1.24-1.24-.51-1.24.51q-.51.511-.51 1.24t.51 1.24 1.24.51M4.5 21.5v-13h3v-2q0-1.873 1.313-3.186Q10.128 2 12 2t3.187 1.314Q16.5 4.626 16.5 6.5v2h3v5.571q-.237-.03-.456-.05a5 5 0 0 0-.46-.021q-1.905.048-3.24 1.416t-1.335 3.309q0 .758.222 1.46.22.704.678 1.315z"/></svg>