<svg xmlns="http://www.w3.org/2000/svg" width="24" height="24" viewBox="0 0 24 24" fill='currentColor'><path d="M1.6 7.365q0-2.394 1.685-4.08T7.365 1.6l.01 1.515q-1.765 0-3.013 1.247Q3.116 5.61 3.115 7.375zm3.902 11.129q-2.14-2.14-2.136-5.139.006-2.997 2.155-5.148l1.971-1.986.377.377q.639.639.658 1.541a2.02 2.02 0 0 1-.61 1.532l-1.223 1.204 1.244 1.26q.66.659.66 1.593 0 .935-.66 1.595l-.192.192.854.844.192-.182a3.33 3.33 0 0 0 1.014-2.44q0-1.427-1.029-2.457l-.396-.405.452-.452q.477-.497.684-1.097.208-.601.196-1.24l4.758-4.767 1.07 1.07-5.026 5.024 1.33 1.329 6.378-6.373 1.054 1.054-6.373 6.379 1.329 1.328 5.688-5.678 1.07 1.069-5.689 5.679 1.338 1.338 4.314-4.304 1.069 1.07-6.215 6.19q-2.15 2.15-5.153 2.15t-5.153-2.15M16.635 22.4l-.01-1.516q1.766 0 3.012-1.247 1.247-1.247 1.247-3.012l1.516.01q0 2.392-1.685 4.08-1.686 1.685-4.08 1.685"/></svg>