<svg xmlns="http://www.w3.org/2000/svg" width="24" height="24" viewBox="0 0 24 24" fill='currentColor'><path d="M5.094 15h1.027l.689-1.896h2.8L10.298 15h1.046L8.706 8h-.973zm2.027-2.742L8.16 9.3h.1l1.038 2.958zM8.21 18.5q-2.715 0-4.607-1.893T1.71 12q0-2.714 1.893-4.607T8.21 5.5a6.2 6.2 0 0 1 3.496 1.04 6.27 6.27 0 0 1 2.33 2.776L13.707 8h1.046l1.238 5.292h.05L17.49 8h.966l1.45 5.292h.08L21.226 8h1.065l-1.811 7h-.996l-1.5-5.442h-.05L16.463 15h-.977l-.834-3.438q.25 2.807-1.67 4.873Q11.062 18.5 8.21 18.5"/></svg>