<svg xmlns="http://www.w3.org/2000/svg" width="24" height="24" viewBox="0 0 24 24" fill='currentColor'><path d="M6.5 18.789a1 1 0 0 1-.734-.305 1 1 0 0 1-.304-.734 1 1 0 0 1 .304-.734 1 1 0 0 1 .734-.304 1 1 0 0 1 .734.304 1 1 0 0 1 .305.734 1 1 0 0 1-.305.734 1 1 0 0 1-.734.304m3 3a1 1 0 0 1-.734-.305 1 1 0 0 1-.305-.734 1 1 0 0 1 .305-.734 1 1 0 0 1 .734-.304 1 1 0 0 1 .734.304 1 1 0 0 1 .305.734 1 1 0 0 1-.305.734 1 1 0 0 1-.734.304m3-3a1 1 0 0 1-.734-.305 1 1 0 0 1-.305-.734 1 1 0 0 1 .305-.734 1 1 0 0 1 .734-.304 1 1 0 0 1 .734.304 1 1 0 0 1 .305.734 1 1 0 0 1-.305.734 1 1 0 0 1-.734.304m6 0a1 1 0 0 1-.734-.305 1 1 0 0 1-.304-.734 1 1 0 0 1 .304-.734 1 1 0 0 1 .734-.304 1 1 0 0 1 .734.304 1 1 0 0 1 .304.734 1 1 0 0 1-.304.734 1 1 0 0 1-.734.304m-3 3a1 1 0 0 1-.734-.305 1 1 0 0 1-.305-.734 1 1 0 0 1 .305-.734 1 1 0 0 1 .734-.304 1 1 0 0 1 .734.304 1 1 0 0 1 .304.734 1 1 0 0 1-.304.734 1 1 0 0 1-.734.304m-8-7.039q-2.178 0-3.714-1.536Q2.25 11.68 2.25 9.5q0-2.008 1.341-3.49Q4.933 4.527 6.93 4.28a5.76 5.76 0 0 1 2.11-2.222A5.6 5.6 0 0 1 12 1.25q2.202 0 3.807 1.433 1.605 1.432 1.906 3.573 1.784.13 2.91 1.353A4.12 4.12 0 0 1 21.75 10.5q0 1.77-1.24 3.01t-3.01 1.24z"/></svg>