<svg xmlns="http://www.w3.org/2000/svg" width="24" height="24" viewBox="0 0 24 24" fill='currentColor'><path d="M12 21.5q-2.453 0-4.491-1.124a9.6 9.6 0 0 1-3.328-2.993l3.85-3.86 3 2.5 5.132-5.133v2.966h1.5v-5.52h-5.519v1.5h2.947l-4.122 4.141-3-2.5-4.578 4.57a10 10 0 0 1-.658-1.944A9.4 9.4 0 0 1 2.5 12q0-1.972.748-3.705a9.6 9.6 0 0 1 2.03-3.016 9.6 9.6 0 0 1 3.016-2.03 9.25 9.25 0 0 1 3.704-.749q1.972 0 3.706.748a9.6 9.6 0 0 1 3.017 2.03 9.6 9.6 0 0 1 2.03 3.016 9.25 9.25 0 0 1 .749 3.704q0 1.972-.748 3.706a9.6 9.6 0 0 1-2.03 3.017 9.6 9.6 0 0 1-3.017 2.03A9.25 9.25 0 0 1 12 21.5"/></svg>