<svg xmlns="http://www.w3.org/2000/svg" width="24" height="24" viewBox="0 0 24 24" fill='currentColor'><path d="M12 21.692q-.749 0-1.278-.53a1.74 1.74 0 0 1-.53-1.277h3.616q0 .747-.53 1.277t-1.278.53m-7.5-2.808v-1.5h1.808v-7.46q0-2.017 1.245-3.567a5.52 5.52 0 0 1 3.197-1.983V2.5h2.5v1.873a5.3 5.3 0 0 1 2.171.994q-1.845.57-3.45 1.543a13.6 13.6 0 0 0-2.929 2.396l8.074 8.079H19.5v1.5zm12.85-4.105-1.194-1.17q.236-.207.541-.331t.653-.124.64.124.53.332zm-2.475-2.466-.844-.854q.645-.606 1.483-.956a4.7 4.7 0 0 1 1.811-.35q.973 0 1.828.35t1.5.957l-.853.853a3.4 3.4 0 0 0-1.11-.719 3.6 3.6 0 0 0-1.34-.248 3.6 3.6 0 0 0-2.475.967m-2.125-2.125-.854-.838a7.9 7.9 0 0 1 2.467-1.614 7.7 7.7 0 0 1 2.987-.582q1.592 0 2.975.582a7.9 7.9 0 0 1 2.454 1.614l-.854.838a6.7 6.7 0 0 0-2.077-1.344 6.5 6.5 0 0 0-2.523-.498q-1.33 0-2.506.498a6.9 6.9 0 0 0-2.069 1.345"/></svg>