<svg xmlns="http://www.w3.org/2000/svg" width="24" height="24" viewBox="0 0 24 24" fill='currentColor'><path d="M19.804 21.942 8.356 10.494q-.165.346-.26.716Q8 11.58 8 12q0 .9.362 1.662.363.763.988 1.338l-1.07 1.07a5.7 5.7 0 0 1-1.298-1.805A5.35 5.35 0 0 1 6.5 12q0-.728.188-1.403.189-.675.522-1.249L5.398 7.536a8.1 8.1 0 0 0-1.029 2.077A7.6 7.6 0 0 0 4 12q0 1.725.675 3.225t1.85 2.6l-1.07 1.07a9.7 9.7 0 0 1-2.16-3.08Q2.5 14.045 2.5 12a9.2 9.2 0 0 1 1.813-5.548L2.058 4.196l1.069-1.069 17.746 17.746zm.171-4.798L18.89 16.06q.535-.876.822-1.905A8 8 0 0 0 20 12q0-3.35-2.325-5.675T12 4a7.8 7.8 0 0 0-2.142.287 8.2 8.2 0 0 0-1.927.822L6.846 4.016A9.4 9.4 0 0 1 12 2.5q1.97 0 3.703.749a9.6 9.6 0 0 1 3.016 2.032 9.6 9.6 0 0 1 2.032 3.016q.75 1.734.749 3.703 0 1.428-.392 2.725a9.2 9.2 0 0 1-1.133 2.42M17.04 14.21l-1.174-1.176q.06-.249.097-.504T16 12q0-1.65-1.175-2.825T12 8q-.275 0-.53.037-.255.038-.505.097L9.79 6.96A5.6 5.6 0 0 1 12 6.5q2.289 0 3.894 1.606Q17.5 9.71 17.5 12q0 .594-.121 1.148a6 6 0 0 1-.339 1.062"/></svg>