<svg xmlns="http://www.w3.org/2000/svg" width="24" height="24" viewBox="0 0 24 24" fill='currentColor'><path d="M19.575 20.5q-2.913 0-5.803-1.297-2.889-1.297-5.283-3.691-2.385-2.395-3.687-5.286Q3.5 7.334 3.5 4.425V3.5h5.17l.886 4.554-2.773 2.692q.617 1.08 1.32 2.009.704.927 1.49 1.697.762.783 1.697 1.479t2.08 1.338l2.755-2.803 4.375.89V20.5zM16.5 11.23a.85.85 0 0 1-.626-.258.85.85 0 0 1-.258-.626q0-.367.258-.626a.85.85 0 0 1 .626-.259q.367 0 .626.26a.85.85 0 0 1 .258.625.85.85 0 0 1-.258.626.85.85 0 0 1-.626.259M14 8.686l-.82-.839a5.3 5.3 0 0 1 1.547-.992A4.6 4.6 0 0 1 16.5 6.5q.922 0 1.773.354a5.3 5.3 0 0 1 1.546.992L19 8.685a3.9 3.9 0 0 0-1.157-.732 3.5 3.5 0 0 0-1.343-.26q-.705 0-1.343.26-.637.261-1.157.732m-2.1-2.15-.838-.839a7.8 7.8 0 0 1 2.5-1.627A7.8 7.8 0 0 1 16.5 3.5q1.533 0 2.938.57 1.404.569 2.5 1.626l-.838.839a6.5 6.5 0 0 0-2.122-1.37 6.6 6.6 0 0 0-2.478-.473q-1.29 0-2.47.481a7 7 0 0 0-2.13 1.362"/></svg>