<svg xmlns="http://www.w3.org/2000/svg" width="24" height="24" viewBox="0 0 24 24" fill='currentColor'><path d="m19.827 21.985-8.842-8.893a8.2 8.2 0 0 0-2.549.748q-1.2.58-2.086 1.51l-1.562-1.592a9.8 9.8 0 0 1 2-1.535 9.4 9.4 0 0 1 2.354-.973L6.181 8.288q-1.083.487-2.139 1.206A13.4 13.4 0 0 0 2.1 11.1L.558 9.508a16 16 0 0 1 3.962-2.88L2.322 4.43l1.054-1.054L20.931 20.93zM17.9 15.05l-.576-.576-.576-.576-2.84-2.84a9.1 9.1 0 0 1 2.816.885 9.5 9.5 0 0 1 2.488 1.796zm4-3.95a14.1 14.1 0 0 0-4.462-3.013Q14.9 7 12 7q-.525 0-1.027.037-.502.038-.973.113L8.085 5.235a13.5 13.5 0 0 1 1.848-.35A17 17 0 0 1 12 4.77q3.387 0 6.317 1.263t5.145 3.476zM12 21l-2.987-3.002q.595-.594 1.368-.912A4.2 4.2 0 0 1 12 16.77q.846 0 1.62.318.772.317 1.367.911z"/></svg>