<svg xmlns="http://www.w3.org/2000/svg" width="24" height="24" viewBox="0 0 24 24" fill='currentColor'><path d="M4.5 19.5v-9.375l-1.867 1.433-.902-1.197L12 2.51l10.27 7.852-.903 1.18-1.877-1.417v1.025a4 4 0 0 0-.7-.14 7 7 0 0 0-.732-.039q-2.935 0-4.996 2.047T10.98 18q0 .375.046.75.045.375.148.75zm12.365 3.365h-3.692v-1.192h1.637a5.4 5.4 0 0 1-1.187-1.642 4.6 4.6 0 0 1-.45-2.012q0-1.704 1.046-3.006a4.75 4.75 0 0 1 2.646-1.692v1.233a3.6 3.6 0 0 0-1.8 1.305 3.52 3.52 0 0 0-.7 2.16q0 .822.354 1.552t.954 1.273v-1.671h1.192zm2.193-.148v-1.242a3.6 3.6 0 0 0 1.812-1.325q.688-.946.688-2.13 0-.822-.354-1.553a4.1 4.1 0 0 0-.954-1.273v1.671h-1.192v-3.692h3.692v1.192h-1.637q.737.694 1.187 1.643.45.948.45 2.011 0 1.704-1.046 3.007a4.75 4.75 0 0 1-2.646 1.691"/></svg>