<svg xmlns="http://www.w3.org/2000/svg" width="24" height="24" viewBox="0 0 24 24" fill='currentColor'><path d="M10.48 22.5V21h1.77v-5.87q.177.072.36.102.182.03.39.031.887 0 1.517-.578a2.15 2.15 0 0 0 .708-1.445v-.138l3.823.936 3.252 5.84-2.2 2.162-6.139-6.094a.4.4 0 0 1-.1.043q-.053.014-.111.034V21h1.77v1.5zm-6.98-2V19H8v1.5zm-1.836-5.875V11.5H11.4q-.312.282-.488.66a2 2 0 0 0-.176.84 2.03 2.03 0 0 0 .581 1.442l-3.19 2.02zM13 14.403q-.587 0-.995-.408a1.36 1.36 0 0 1-.409-.995q0-.587.409-.996.408-.408.995-.408t.995.408q.41.41.409.996 0 .585-.409.995a1.36 1.36 0 0 1-.995.408m1.81-2.613A2.03 2.03 0 0 0 13 10.736q-.209 0-.39.03a1.7 1.7 0 0 0-.36.103v-4.43l4.892-4.582 2.66 1.664zM1.5 9V7.5H6V9zm3-4V3.5H10V5z"/></svg>