<svg xmlns="http://www.w3.org/2000/svg" width="24" height="24" viewBox="0 0 24 24" fill='currentColor'><path d="M8.25 17.75h7.5v-1.5h-7.5zM5.5 21.5V12q0-2.028 1.098-3.612a6.5 6.5 0 0 1 2.825-2.322v-.565q0-1.074.752-1.826a2.5 2.5 0 0 1 1.827-.751q1.075 0 1.825.751.75.752.75 1.826v.565a6.5 6.5 0 0 1 2.825 2.322Q18.5 9.972 18.5 12.001v9.5zm5.423-15.88q.285-.06.538-.09.255-.03.539-.03t.539.03q.253.03.538.09V5.5q0-.457-.31-.767a1.04 1.04 0 0 0-.767-.31q-.457 0-.767.31t-.31.768zm-.631 8.65 1.707-1.292 1.707 1.292-.643-2.102 1.706-1.22h-2.1L12 8.732l-.67 2.218h-2.1l1.708 1.222z"/></svg>