<svg xmlns="http://www.w3.org/2000/svg" width="24" height="24" viewBox="0 0 24 24" fill='currentColor'><path d="m20.473 20.027-5.73-5.731a5.5 5.5 0 0 1-1.757.985 6.1 6.1 0 0 1-1.986.334 6 6 0 0 1-3.48-1.084l1.084-1.085q.529.32 1.123.495t1.273.175q1.933 0 3.274-1.342 1.342-1.34 1.342-3.274 0-1.932-1.342-3.274Q12.934 4.885 11 4.885q-1.84 0-3.151 1.249-1.311 1.248-1.434 3.089L7.8 7.819l1.054 1.054-3.22 3.22-3.218-3.22 1.053-1.054 1.447 1.435q.091-2.469 1.846-4.17 1.754-1.7 4.238-1.7 2.562 0 4.339 1.778 1.776 1.776 1.776 4.338 0 1.04-.344 2.03-.344.992-.975 1.712l5.731 5.731z"/></svg>