<svg xmlns="http://www.w3.org/2000/svg" width="24" height="24" viewBox="0 0 24 24" fill='currentColor'><path d="M15.17 17.45q-.628.024-1.187.037-.56.012-.998.012h-.945q-1.638 0-3.067-.05a74 74 0 0 1-2.415-.118q-1.187-.078-1.721-.217a2.3 2.3 0 0 1-1.046-.6 2.26 2.26 0 0 1-.6-1.044 9 9 0 0 1-.215-1.292 33 33 0 0 1-.118-1.46 28 28 0 0 1 0-3.361q.04-.702.118-1.46t.216-1.292q.163-.604.601-1.045a2.26 2.26 0 0 1 1.044-.601q.535-.137 1.72-.215a74 74 0 0 1 2.416-.118q1.429-.05 3.066-.05 1.635 0 3.065.05 1.23.04 2.415.118 1.187.078 1.721.217.604.162 1.046.6.441.44.6 1.044.137.534.215 1.292t.118 1.46q.05.826.05 1.677v.39a4.5 4.5 0 0 0-1.844-.387q-1.913 0-3.265 1.351t-1.352 3.267q0 .484.09.933.09.447.271.861m-4.978-3.643 4.797-2.77-4.797-2.769zm8.308 4.615v-1.846h-1.846V14.73H18.5v-1.846h1.846v1.846h1.846v1.846h-1.846v1.846z"/></svg>