<svg xmlns="http://www.w3.org/2000/svg" width="24" height="24" viewBox="0 0 24 24" fill='currentColor'><path d="M7.058 21.942v-3.884h2.884v.884h-2v.616h2v2.384zm4.5 0v-3.884h2.384v.884h-1.5v.616h1v.884h-1v1.5zm4 0v-3h-1v-.884h2.884v.884h-1v3zm-7.616-.884h1.116v-.616H7.942zM5.25 16.683l-2.779-2.78 2.779-2.778.838.838-1.19 1.19h14.188l-1.175-1.19.839-.838 2.779 2.779-2.78 2.779-.838-.839 1.19-1.19H4.914l1.175 1.19zM2.5 9.75v-.354q0-.533.286-.95.287-.42.785-.64a7 7 0 0 1 1.29-.41A6.5 6.5 0 0 1 6.25 7.25q.72 0 1.39.145a7 7 0 0 1 1.289.41q.498.222.784.64.287.42.287.951v.354zm11.5 0v-.354q0-.533.286-.95.287-.42.785-.64a7 7 0 0 1 1.29-.41 6.5 6.5 0 0 1 1.389-.146q.72 0 1.39.145a7 7 0 0 1 1.289.41q.498.222.784.64.287.42.287.951v.354zM6.25 5.942q-.73 0-1.24-.51t-.51-1.24q0-.729.51-1.239t1.24-.51 1.24.51.51 1.24q0 .728-.51 1.239-.511.51-1.24.51m11.5 0q-.73 0-1.24-.51T16 4.192q0-.729.51-1.239t1.24-.51 1.24.51.51 1.24q0 .728-.51 1.239-.511.51-1.24.51"/></svg>