<svg xmlns="http://www.w3.org/2000/svg" width="24" height="24" viewBox="0 0 24 24" fill='currentColor'><path d="M11.404 21.5v-2.002q-1.713-.217-2.881-1.536t-1.167-3.106h1.183q0 1.45 1.01 2.47T12 18.346t2.451-1.022a3.38 3.38 0 0 0 1.01-2.468h1.193q0 1.789-1.172 3.106-1.173 1.32-2.886 1.536V21.5zM12 16.587q-.72-.001-1.22-.506a1.68 1.68 0 0 1-.501-1.225v-2.942q0-.72.5-1.226.503-.505 1.221-.505.72 0 1.22.505.501.507.501 1.226v2.942q0 .72-.5 1.225-.503.506-1.221.506M1.5 13.46v-1.228q0-.818.329-1.418.33-.601.969-.942a8.7 8.7 0 0 1 2.035-.752 10 10 0 0 1 2.292-.255q.663 0 1.289.084.625.085 1.219.239a5.75 5.75 0 0 0-2.3 1.695 6.06 6.06 0 0 0-1.258 2.577zm16.425 0a5.96 5.96 0 0 0-1.259-2.564 6 6 0 0 0-2.299-1.709q.594-.153 1.22-.238a10 10 0 0 1 1.288-.084q1.209 0 2.292.255t2.035.752q.64.34.969.942.33.6.329 1.418v1.228zm-10.8-5.538q-1.125 0-1.913-.79a2.62 2.62 0 0 1-.789-1.921q0-1.13.788-1.921a2.6 2.6 0 0 1 1.914-.79q1.125 0 1.914.791.788.79.788 1.92a2.62 2.62 0 0 1-.788 1.921 2.6 2.6 0 0 1-1.913.791m9.75 0q-1.125 0-1.914-.79a2.62 2.62 0 0 1-.788-1.921q0-1.13.788-1.921a2.6 2.6 0 0 1 1.914-.791q1.125 0 1.913.791.789.79.789 1.92a2.62 2.62 0 0 1-.788 1.921 2.6 2.6 0 0 1-1.914.791"/></svg>