<svg xmlns="http://www.w3.org/2000/svg" width="24" height="24" viewBox="0 0 24 24" fill='currentColor'><path d="M17 21.5q-1.873 0-3.187-1.314Q12.5 18.874 12.5 17t1.313-3.187T17 12.5t3.186 1.313Q21.5 15.128 21.5 17t-1.314 3.186Q18.874 21.5 17 21.5m-5-.02q-3.244-.884-5.372-3.818T4.5 11.1V5.346L12 2.54l7.5 2.807v5.666a5.3 5.3 0 0 0-1.212-.38A7 7 0 0 0 17 10.5q-2.698 0-4.599 1.901-1.9 1.9-1.901 4.599 0 1.29.467 2.406a7 7 0 0 0 1.262 1.992q-.063.02-.114.041a1 1 0 0 1-.115.042m4.558-1.73h.884v-2.308h2.308v-.884h-2.308V14.25h-.884v2.308H14.25v.884h2.308z"/></svg>