<svg xmlns="http://www.w3.org/2000/svg" width="24" height="24" viewBox="0 0 24 24" fill='currentColor'><path d="M8.383 15.602q.648.648 1.534.656.887.007 1.535-.64l1.563-1.564-3.069-3.07-1.563 1.564a2.08 2.08 0 0 0-.639 1.527q0 .888.639 1.527m7.234-7.204a2.22 2.22 0 0 0-1.534-.643q-.887-.02-1.535.628L11 9.93 14.07 13l1.547-1.548q.648-.648.636-1.527a2.18 2.18 0 0 0-.636-1.527M3.5 20.5v-17h6.258a2.2 2.2 0 0 1 .727-1.416Q11.117 1.499 12 1.5a2.17 2.17 0 0 1 1.525.584q.632.583.717 1.416H20.5v17zM12 4.346a.73.73 0 0 0 .75-.75.73.73 0 0 0-.75-.75.73.73 0 0 0-.75.75.73.73 0 0 0 .75.75"/></svg>