<svg xmlns="http://www.w3.org/2000/svg" width="24" height="24" viewBox="0 0 24 24" fill='currentColor'><path d="M11.556 17.48q-2.14-.182-3.598-1.744Q6.5 14.176 6.5 12q0-2.292 1.604-3.896T12 6.5q2.175 0 3.736 1.453 1.562 1.452 1.745 3.593l-1.59-.471a3.95 3.95 0 0 0-1.397-2.212Q13.422 8 12 8q-1.65 0-2.825 1.175T8 12q0 1.425.867 2.5a3.96 3.96 0 0 0 2.208 1.4zm1.2 3.98q-.189.04-.378.04H12q-1.972 0-3.705-.748a9.6 9.6 0 0 1-3.016-2.03 9.6 9.6 0 0 1-2.03-3.016 9.25 9.25 0 0 1-.749-3.704q0-1.972.748-3.706a9.6 9.6 0 0 1 2.03-3.016 9.6 9.6 0 0 1 3.016-2.032 9.25 9.25 0 0 1 3.704-.748q1.972 0 3.706.748a9.6 9.6 0 0 1 3.017 2.03 9.6 9.6 0 0 1 2.03 3.017A9.25 9.25 0 0 1 21.5 12v.373q0 .187-.04.373L20 12.3V12q0-3.35-2.325-5.675T12 4 6.325 6.325 4 12t2.325 5.675T12 20h.3zm7.384.184L15.606 17.1l-1.087 3.284L12 12l8.385 2.52-3.285 1.086 4.544 4.534z"/></svg>