<svg xmlns="http://www.w3.org/2000/svg" width="24" height="24" viewBox="0 0 24 24" fill='currentColor'><path d="M9.154 11.5v-1.192h5.692V11.5zm1 2.692V13h3.692v1.192zm-.788 6.904-1.12-3.838q-1.23-.845-1.987-2.23A6.2 6.2 0 0 1 5.5 12q0-1.641.759-3.027a6.36 6.36 0 0 1 1.987-2.23l1.12-3.839h5.268l1.12 3.838q1.23.845 1.987 2.231Q18.5 10.36 18.5 12a6.2 6.2 0 0 1-.759 3.027q-.758 1.387-1.987 2.23l-1.12 3.84zM12 17q2.075 0 3.537-1.462Q17 14.075 17 12t-1.463-3.537T12 7 8.463 8.463 7 12t1.463 3.538T12 17"/></svg>