<svg xmlns="http://www.w3.org/2000/svg" width="24" height="24" viewBox="0 0 24 24" fill='currentColor'><path d="m18.758 17.333-.621-.937q-.457.225-.937.342t-.996.118q-1.835 0-3.103-1.269t-1.268-3.102q0-1.82 1.268-3.095t3.078-1.276 3.065 1.28q1.256 1.281 1.256 3.09 0 .963-.39 1.819a4.45 4.45 0 0 1-1.106 1.493l.621.937zM3.5 16.665l3.162-8.361h1.301l3.196 8.361h-1.26l-.761-2.111H5.523l-.777 2.111zm12.679-.878q.36 0 .691-.08.332-.08.651-.234L16.53 14l.883-.585.961 1.443a3.36 3.36 0 0 0 .961-2.373q0-1.355-.907-2.33-.908-.972-2.248-.972t-2.26.968-.921 2.334.92 2.333a3 3 0 0 0 2.26.969M5.896 13.513h2.862l-1.39-3.782h-.1z"/></svg>