<svg xmlns="http://www.w3.org/2000/svg" width="24" height="24" viewBox="0 0 24 24" fill='currentColor'><path d="M12 16.75q.343 0 .575-.232a.78.78 0 0 0 .233-.576.78.78 0 0 0-.232-.575.78.78 0 0 0-.576-.232.78.78 0 0 0-.575.232.78.78 0 0 0-.233.575q0 .344.232.576a.78.78 0 0 0 .576.232m-.75-3.48h1.5V7.23h-1.5zM3.5 20.5v-17h6.258a2.2 2.2 0 0 1 .727-1.416q.632-.585 1.52-.584.887 0 1.52.584.632.583.717 1.416H20.5v17zM12 4.346a.73.73 0 0 0 .75-.75.73.73 0 0 0-.75-.75.73.73 0 0 0-.75.75.73.73 0 0 0 .75.75"/></svg>