<svg xmlns="http://www.w3.org/2000/svg" width="24" height="24" viewBox="0 0 24 24" fill='currentColor'><path d="M2.5 21.5v-15H7V8H4v12h16V8h-3V6.5h4.5v15zm4.002-5.654q-.56 0-.954-.392a1.3 1.3 0 0 1-.394-.952q0-.56.392-.954.391-.394.952-.394t.954.392q.394.391.394.952t-.392.954a1.3 1.3 0 0 1-.952.394m-1.348 2.99v-.461q0-.735.504-1.228a1.65 1.65 0 0 1 1.192-.493q.322 0 .675.147t.56.395l.99 1.156q.13.146.26.267.129.12.28.218zm4-2.99v-.521q0-.732.791-1.202.792-.47 2.055-.47t2.055.47q.79.47.791 1.202v.521zm9.692 2.99h-4.452q.143-.096.272-.215.13-.12.25-.26l1-1.165q.18-.23.557-.386t.674-.156q.686 0 1.193.505.506.505.506 1.216zm-6.844-5.99q-.56 0-.954-.392a1.3 1.3 0 0 1-.394-.952q0-.56.392-.954.391-.394.952-.394t.954.392.394.952-.392.954a1.3 1.3 0 0 1-.952.394m5.5 3q-.56 0-.954-.392a1.3 1.3 0 0 1-.394-.952q0-.56.392-.954.391-.394.952-.394t.954.392.394.952-.392.954a1.3 1.3 0 0 1-.952.394M8.506 8a6 6 0 0 0 .129-.568 3 3 0 0 0 .032-.453q0-.404-.183-.812-.184-.408-.63-.934a4.9 4.9 0 0 1-.829-1.365 3.9 3.9 0 0 1-.283-1.44 5.4 5.4 0 0 1 .122-1.12h1.192q-.066.397-.093.646a4 4 0 0 0-.029.475q0 .48.21.985.21.507.62 1.036.564.731.83 1.342T9.86 6.98q0 .258-.028.516T9.738 8zm2.986 0a10 10 0 0 0 .137-.568q.04-.204.04-.453 0-.404-.194-.812-.195-.408-.634-.934a4.7 4.7 0 0 1-.822-1.365 4 4 0 0 1-.275-1.44q0-.264.02-.542.021-.276.086-.578h1.192q-.065.397-.085.646t-.02.475q0 .48.202.985.201.507.611 1.036.566.731.83 1.342.267.611.266 1.187 0 .258-.028.516T12.725 8zm3.01 0q.096-.364.129-.568a3 3 0 0 0 .033-.453q0-.404-.184-.812t-.63-.934a4.9 4.9 0 0 1-.829-1.365 3.9 3.9 0 0 1-.283-1.44q0-.264.028-.542a5 5 0 0 1 .094-.578h1.192q-.066.397-.086.646a6 6 0 0 0-.02.475q0 .48.202.985.202.507.611 1.036.566.731.831 1.342.266.611.266 1.187 0 .258-.028.516-.029.258-.093.505z"/></svg>