<svg xmlns="http://www.w3.org/2000/svg" width="24" height="24" viewBox="0 0 24 24" fill='currentColor'><path d="M5.442 20.75v-1.5h5v-2.5h-.25q-1.971 0-3.36-1.39-1.39-1.389-1.39-3.36 0-1.365.701-2.513a4.4 4.4 0 0 1 1.938-1.726q-.062.415.037.801t.303.746q-.7.42-1.09 1.135-.389.717-.389 1.557 0 1.354.948 2.302t2.302.948h7.75v1.5h-5.384v2.5h6v1.5zm8.827-8.9-.319-.95-.95.37-.51-1.384q.404-.36.617-.844A2.6 2.6 0 0 0 13.319 8q0-1.04-.705-1.79a2.54 2.54 0 0 0-1.75-.818l-.48-1.327.95-.35-.35-.919 1.535-.565.32.95.911-.331 2.615 7.134-.911.35.35.95zm-3.577-2.108a1.68 1.68 0 0 1-1.234-.508A1.68 1.68 0 0 1 8.95 8q0-.726.508-1.234a1.68 1.68 0 0 1 1.234-.508q.726 0 1.235.508.508.508.508 1.234t-.508 1.234a1.68 1.68 0 0 1-1.235.508"/></svg>