<svg xmlns="http://www.w3.org/2000/svg" width="24" height="24" viewBox="0 0 24 24" fill='currentColor'><path d="m20.214 22.187-18.4-18.4 1.053-1.054 18.4 18.4zM10 21.5a.48.48 0 0 1-.35-.15.48.48 0 0 1 0-.7.48.48 0 0 1 .7 0 .48.48 0 0 1 0 .7.48.48 0 0 1-.35.15m4 0a.48.48 0 0 1-.35-.15.48.48 0 0 1 0-.7.48.48 0 0 1 .7 0 .48.48 0 0 1 0 .7.48.48 0 0 1-.35.15m-8-2.577a.9.9 0 0 1-.658-.265.9.9 0 0 1-.265-.658q0-.392.265-.658A.9.9 0 0 1 6 17.077q.391 0 .658.265a.9.9 0 0 1 .265.658q0 .392-.265.658a.9.9 0 0 1-.658.265m4 0a.9.9 0 0 1-.658-.265.9.9 0 0 1-.265-.658q0-.392.265-.658a.9.9 0 0 1 .658-.265q.391 0 .658.265a.9.9 0 0 1 .265.658q0 .392-.265.658a.9.9 0 0 1-.658.265m4 0a.9.9 0 0 1-.658-.265.9.9 0 0 1-.265-.658q0-.392.265-.658a.9.9 0 0 1 .658-.265q.391 0 .658.265a.9.9 0 0 1 .265.658q0 .392-.265.658a.9.9 0 0 1-.658.265m-4-3.577q-.573 0-.96-.386a1.3 1.3 0 0 1-.386-.96q0-.573.386-.96.387-.386.96-.386t.96.386q.386.387.386.96t-.386.96a1.3 1.3 0 0 1-.96.386m-4-.423a.9.9 0 0 1-.658-.265.9.9 0 0 1-.265-.658q0-.391.265-.658A.9.9 0 0 1 6 13.077q.391 0 .658.265a.9.9 0 0 1 .265.658q0 .391-.265.658a.9.9 0 0 1-.658.265m11.877-.015-.785-.785q-.06-.442.218-.744a.9.9 0 0 1 .693-.302q.39 0 .656.264a.9.9 0 0 1 .264.656q0 .415-.302.694t-.744.217M3 14.5a.48.48 0 0 1-.35-.15.48.48 0 0 1 0-.7.48.48 0 0 1 .7 0 .48.48 0 0 1 0 .7.48.48 0 0 1-.35.15m18 0a.48.48 0 0 1-.35-.15.48.48 0 0 1 0-.7.48.48 0 0 1 .7 0 .48.48 0 0 1 0 .7.48.48 0 0 1-.35.15m-6.71-3.194L12.695 9.71q.115-.462.462-.76a1.26 1.26 0 0 1 .849-.296q.568 0 .954.386.387.387.387.955 0 .503-.306.857a1.37 1.37 0 0 1-.75.454M6 10.923a.9.9 0 0 1-.658-.265.9.9 0 0 1-.265-.658q0-.391.265-.658A.9.9 0 0 1 6 9.077q.391 0 .658.265a.9.9 0 0 1 .265.658q0 .391-.265.658a.9.9 0 0 1-.658.265m12 0a.9.9 0 0 1-.658-.265.9.9 0 0 1-.265-.658q0-.391.265-.658A.9.9 0 0 1 18 9.077q.392 0 .658.265a.9.9 0 0 1 .265.658q0 .391-.265.658a.9.9 0 0 1-.658.265M3 10.5a.48.48 0 0 1-.35-.15.48.48 0 0 1 0-.7.48.48 0 0 1 .7 0 .48.48 0 0 1 0 .7.48.48 0 0 1-.35.15m18 0a.48.48 0 0 1-.35-.15.48.48 0 0 1 0-.7.48.48 0 0 1 .7 0 .48.48 0 0 1 0 .7.48.48 0 0 1-.35.15m-7-3.577a.9.9 0 0 1-.658-.265.9.9 0 0 1-.265-.658q0-.391.265-.658A.9.9 0 0 1 14 5.077q.391 0 .658.265a.9.9 0 0 1 .265.658q0 .391-.265.658a.9.9 0 0 1-.658.265m-4.108-.015-.8-.8q-.046-.442.227-.737A.9.9 0 0 1 10 5.077q.391 0 .658.264a.9.9 0 0 1 .265.656.9.9 0 0 1-.294.686q-.294.27-.737.225M18 6.923a.9.9 0 0 1-.658-.265.9.9 0 0 1-.265-.658q0-.391.265-.658A.9.9 0 0 1 18 5.077q.392 0 .658.265a.9.9 0 0 1 .265.658q0 .391-.265.658a.9.9 0 0 1-.658.265M10 3.5a.48.48 0 0 1-.35-.15.48.48 0 0 1 0-.7.48.48 0 0 1 .7 0 .48.48 0 0 1 0 .7.48.48 0 0 1-.35.15m4 0a.48.48 0 0 1-.35-.15.48.48 0 0 1 0-.7.48.48 0 0 1 .7 0 .48.48 0 0 1 0 .7.48.48 0 0 1-.35.15"/></svg>