<svg xmlns="http://www.w3.org/2000/svg" width="24" height="24" viewBox="0 0 24 24" fill='currentColor'><path d="m8.227 17.75 1.967-9.273-2.377.95v2.313h-1.5V8.444l4.743-2q.35-.15.699-.187.348-.038.67.059.32.096.595.297t.465.522l.845 1.35q.836 1.335 1.886 2.017t2.338.729v1.5q-1.712-.078-2.965-.854-1.253-.777-2.218-2.06l-.716 2.144 2.091 2.174v3.615h-1.5v-2.886l-2.229-2.195L9.79 17.75zm5.264-12.24a1.78 1.78 0 0 1-1.307-.54 1.78 1.78 0 0 1-.54-1.306q0-.768.54-1.307.54-.54 1.307-.54t1.306.54q.54.54.54 1.307t-.54 1.306-1.306.54M12 21.5a9.2 9.2 0 0 1-3.703-.749 9.6 9.6 0 0 1-3.016-2.032 9.6 9.6 0 0 1-2.032-3.016A9.2 9.2 0 0 1 2.5 12q0-2.82 1.46-5.08 1.462-2.26 3.811-3.428l.67 1.333Q6.466 5.8 5.233 7.713T4 12q0 3.35 2.325 5.675T12 20t5.675-2.325T20 12h1.5q0 1.97-.749 3.703a9.6 9.6 0 0 1-2.032 3.016 9.6 9.6 0 0 1-3.016 2.032q-1.734.75-3.703.749"/></svg>