<svg xmlns="http://www.w3.org/2000/svg" width="24" height="24" viewBox="0 0 24 24" fill='currentColor'><path d="M8.794 22.184q-2.913 0-4.961-2.058-2.048-2.06-2.048-4.972 0-2.933 2.057-4.951T8.84 8.185a7 7 0 0 1 .517.019l1.31-2.302 1.886 1.079.125-.2q.546-.989 1.656-1.285a2.65 2.65 0 0 1 2.098.28l.654.376-.75 1.292-.654-.375a1.22 1.22 0 0 0-.96-.121 1.18 1.18 0 0 0-.762.583l-.115.2 2.025 1.146-1.313 2.327q.575.918.906 1.931.33 1.013.33 2.107 0 2.904-2.043 4.923t-4.957 2.02M19.5 8.742v-1.5H22v1.5zm-4.942-5.057v-2.5h1.5v2.5zm4.557 1.63-1.044-1.044 1.77-1.779 1.043 1.054z"/></svg>