<svg xmlns="http://www.w3.org/2000/svg" width="24" height="24" viewBox="0 0 24 24" fill='currentColor'><path d="M5.198 21.23q-1.245 0-1.846-.506-.602-.506-.602-1.52 0-1.34 1.13-1.71 1.131-.37 2.676-.37h.488v-1.293q0-.786-.025-1.282a2.9 2.9 0 0 0-.141-.82q-.117-.322-.269-.448a.6.6 0 0 0-.397-.127q-.216 0-.385.069a.8.8 0 0 0-.283.183.6.6 0 0 0-.115.242.5.5 0 0 0 .025.264q.137.254.32.496.181.242.182.566 0 .579-.404.982-.404.404-.98.404-.577 0-.981-.403a1.33 1.33 0 0 1-.405-.978q0-.621.277-1.016a1.94 1.94 0 0 1 .75-.627q.473-.232 1.097-.322.622-.09 1.338-.091 1.962 0 2.724.7t.763 2.479v3.395q0 .44.107.65.108.21.358.21.273 0 .443-.42.17-.422.218-1.295h.258q-.069 1.434-.544 2.011t-1.585.578q-.996 0-1.56-.309a1.41 1.41 0 0 1-.72-.936q-.23.669-.68.957t-1.232.288m8.604 0a.88.88 0 0 1-.75-.383.79.79 0 0 1-.095-.822l2.345-6.204a1.4 1.4 0 0 1 .507-.647q.35-.25.787-.251.437 0 .788.251.35.25.506.647l2.345 6.204a.79.79 0 0 1-.095.822.88.88 0 0 1-.748.384.87.87 0 0 1-.513-.162 1 1 0 0 1-.346-.438l-.461-1.337h-2.95l-.461 1.337a.92.92 0 0 1-.86.6m-7.47-.666q.301 0 .506-.474.207-.474.206-1.144V17.4q-.6 0-.877.358-.276.36-.276 1.168v.255q0 .833.092 1.109.093.275.348.276m9.391-2.885h1.771l-.898-2.629zm-.855-6.577q-1.106 0-1.766-.775t-.66-2.088q0-2.394 1.52-3.932t3.904-1.538q.973 0 1.57.22.597.219.597.565a.9.9 0 0 1-.046.274.7.7 0 0 1-.16.26.74.74 0 0 1-.294.227.52.52 0 0 1-.349.02 7 7 0 0 0-.738-.162 5 5 0 0 0-.762-.069q-1.639 0-2.633 1.108-.993 1.107-.993 2.93 0 .503.18 1.059.182.557.833.557.246 0 .49-.11.243-.112.433-.327.394-.414.73-1.382t.614-2.35q.046-.305.241-.433.195-.129.54-.129.413 0 .632.223.218.223.125.547-.278.996-.401 1.73-.123.736-.123 1.333 0 .465.125.673a.41.41 0 0 0 .377.21q.255 0 .498-.191.245-.19.68-.692.051-.075.346-.156.181 0 .277.139.095.138.095.393 0 .647-.738 1.244-.739.597-1.547.597-.6 0-1.029-.326-.428-.325-.584-.918-.345.6-.854.934a2 2 0 0 1-1.13.335m-11.195-.025V5.996q0-1.341.944-2.283a3.12 3.12 0 0 1 2.287-.944q1.344 0 2.287.944a3.1 3.1 0 0 1 .944 2.283v5.081H8.289V9.229h-2.77v1.848zM5.52 7.385h2.77V6q0-.578-.404-.98a1.34 1.34 0 0 0-.981-.404q-.577 0-.981.403-.404.404-.404.981z"/></svg>