<svg xmlns="http://www.w3.org/2000/svg" width="24" height="24" viewBox="0 0 24 24" fill='currentColor'><path d="M21.5 7.621a8 8 0 0 0-.715-.472A6 6 0 0 0 20 6.763V4H4.5V2.5h17zM2.5 17.5V7.308h6.27V17.5zm13.904 2.384v-4.97a1.25 1.25 0 0 1-.363-.405 1 1 0 0 1-.137-.509q0-.46.328-.778.329-.318.766-.318.46 0 .779.318.32.318.32.778 0 .266-.118.511a.93.93 0 0 1-.383.403v4.97zm-3.802-1.323a6.9 6.9 0 0 1-1.43-2.105A6.1 6.1 0 0 1 10.653 14q0-2.661 1.854-4.503t4.49-1.843q2.66 0 4.504 1.843Q23.347 11.34 23.346 14q0 1.274-.49 2.462a5.8 5.8 0 0 1-1.443 2.075l-.834-.845a4.8 4.8 0 0 0 1.179-1.694q.396-.958.396-1.998 0-2.165-1.495-3.66-1.496-1.494-3.661-1.494-2.14 0-3.646 1.495-1.506 1.494-1.506 3.659 0 1.042.416 2.008a5.3 5.3 0 0 0 1.184 1.71zm1.765-1.774a4.4 4.4 0 0 1-.886-1.281A3.6 3.6 0 0 1 13.154 14q0-1.61 1.129-2.728a3.72 3.72 0 0 1 2.715-1.118q1.61 0 2.729 1.118 1.12 1.117 1.12 2.728a3.8 3.8 0 0 1-1.199 2.78l-.854-.838q.408-.378.634-.881A2.6 2.6 0 0 0 19.654 14q0-1.114-.77-1.884T17 11.346q-1.107 0-1.88.77-.774.77-.774 1.884 0 .555.239 1.055.237.498.636.878z"/></svg>