<svg xmlns="http://www.w3.org/2000/svg" width="24" height="24" viewBox="0 0 24 24" fill='currentColor'><path d="m11.8 15.844 1.044-1.044-3.094-3.097V7.25h-1.5v5.044zm6.2 4.118V18.3a6.85 6.85 0 0 0 2.925-2.575A6.83 6.83 0 0 0 22 12q0-2.025-1.075-3.725A6.85 6.85 0 0 0 18 5.7V4.038q2.494.95 3.997 3.124A8.3 8.3 0 0 1 23.5 12a8.3 8.3 0 0 1-1.503 4.837Q20.494 19.013 18 19.963M9 20.5a8.3 8.3 0 0 1-3.315-.67 8.6 8.6 0 0 1-2.696-1.818 8.6 8.6 0 0 1-1.82-2.696A8.3 8.3 0 0 1 .5 12.001q0-1.77.67-3.316a8.6 8.6 0 0 1 1.819-2.697A8.6 8.6 0 0 1 5.684 4.17a8.3 8.3 0 0 1 3.315-.67q1.77 0 3.316.67a8.6 8.6 0 0 1 2.697 1.819 8.6 8.6 0 0 1 1.819 2.695Q17.5 10.23 17.5 12t-.67 3.315a8.6 8.6 0 0 1-1.818 2.697 8.6 8.6 0 0 1-2.696 1.819 8.3 8.3 0 0 1-3.315.669"/></svg>