<svg xmlns="http://www.w3.org/2000/svg" width="24" height="24" viewBox="0 0 24 24" fill='currentColor'><path d="M3.25 18.942v-4.5h2V7q0-1.554 1.098-2.652A3.6 3.6 0 0 1 9 3.25q1.554 0 2.652 1.098A3.6 3.6 0 0 1 12.75 7v10q0 .94.655 1.595.654.655 1.595.655.94 0 1.595-.655.655-.654.655-1.595V9.558h-2v-4.5h1V3.25h3.5v1.808h1v4.5h-2V17q0 1.554-1.098 2.652A3.6 3.6 0 0 1 15 20.75a3.6 3.6 0 0 1-2.652-1.098A3.6 3.6 0 0 1 11.25 17V7a2.17 2.17 0 0 0-.655-1.595A2.17 2.17 0 0 0 9 4.75a2.17 2.17 0 0 0-1.595.655A2.17 2.17 0 0 0 6.75 7v7.442h2v4.5h-1v1.808h-3.5v-1.808z"/></svg>