<svg xmlns="http://www.w3.org/2000/svg" width="24" height="24" viewBox="0 0 24 24" fill='currentColor'><path d="M12.05 19.75q-3.245 0-5.522-2.258T4.25 12v-.78L2.4 13.07l-1.054-1.055L5 8.362l3.654 3.654L7.6 13.07l-1.85-1.85V12q0 2.605 1.834 4.428Q9.42 18.25 12.05 18.25a5.8 5.8 0 0 0 1.241-.136q.62-.136 1.21-.406l1.126 1.125a7.8 7.8 0 0 1-1.743.685q-.9.232-1.834.232M19 15.639l-3.654-3.654L16.4 10.93l1.85 1.85V12q0-2.605-1.835-4.428T11.95 5.75q-.621 0-1.241.136t-1.211.406L8.373 5.167a7.8 7.8 0 0 1 1.743-.685q.899-.232 1.834-.232 3.244 0 5.522 2.258T19.75 12v.78l1.85-1.85 1.054 1.055z"/></svg>