<svg xmlns="http://www.w3.org/2000/svg" width="24" height="24" viewBox="0 0 24 24" fill='currentColor'><path d="m15.138 19.196 1.75-1.75 1.75 1.75.654-.654-1.734-1.734 1.75-1.75-.654-.654-1.75 1.75-1.75-1.75-.654.654 1.75 1.75-1.75 1.75zm-11.542.073v-5.596L10.52 12l-6.923-1.673V4.692l13.29 5.625h-.184q-2.52.087-4.333 1.808-1.81 1.72-1.908 4.223zm13.308 2.039q-1.873 0-3.187-1.314-1.313-1.313-1.313-3.186 0-1.874 1.313-3.187 1.314-1.313 3.187-1.313t3.186 1.313 1.314 3.187-1.314 3.186q-1.312 1.314-3.186 1.314"/></svg>