<svg xmlns="http://www.w3.org/2000/svg" width="24" height="24" viewBox="0 0 24 24" fill='currentColor'><path d="m9.192 10.085-.99-.652.21-.325q.093-.144.144-.306a1.1 1.1 0 0 0-.04-.768 1.3 1.3 0 0 0-.289-.409 2.2 2.2 0 0 1-.468-.711 2.3 2.3 0 0 1-.178-.893q0-.345.108-.664.106-.318.298-.6l.215-.324 1 .652-.225.325a1 1 0 0 0-.136.305 1.3 1.3 0 0 0-.043.331q0 .229.097.446.098.216.282.4.265.266.418.617t.203.747-.057.784a2.4 2.4 0 0 1-.339.72zM6.2 10.039l-1.052-.56.21-.356a.9.9 0 0 0 .129-.313q.034-.17.034-.339 0-.228-.09-.46a1.5 1.5 0 0 0-.258-.432 2.2 2.2 0 0 1-.399-.712 2.5 2.5 0 0 1-.14-.83 2.4 2.4 0 0 1 .33-1.202l.184-.356 1.062.56-.21.355a.9.9 0 0 0-.129.314 1.7 1.7 0 0 0-.034.338q0 .23.09.46.088.233.258.433.26.305.394.706.135.402.135.826 0 .315-.073.623a2 2 0 0 1-.231.573zM2.337 8.192 1.5 2.452q.49-.163 2.07-.558Q5.15 1.5 7.183 1.5q1.09 0 2.115.145 1.024.146 1.821.326.937.216 1.746.481l-.836 5.74H10.82l.716-4.886q-1.125-.285-2.198-.45a14.4 14.4 0 0 0-2.185-.164q-1.11 0-2.18.165t-2.145.449l.715 4.886zM5.792 21.5 4.5 20.74l3.842-6.365h3.908l1.537-5.333a2.45 2.45 0 0 1 .78-1.227 1.92 1.92 0 0 1 1.266-.469q.99 0 1.62.754.634.753.447 1.742l-1.41 7.004H8.74zm3.418 0v-.75q0-.71.506-1.21a1.68 1.68 0 0 1 1.23-.502h5.523q.413 0 .824.148.412.149.807.46v-1.235q0-1.46.393-3.02.394-1.563 1.2-3.337l.46-.992q.31-.69.2-1.395a2.1 2.1 0 0 0-.603-1.2 1.2 1.2 0 0 1-.242-.373 1.1 1.1 0 0 1-.081-.419q0-.47.343-.812.344-.345.813-.344.423 0 .773.22.35.219.536.601.297.593.445 1.22a5.4 5.4 0 0 1 .103 1.962q-.045.359-.161.736L19.639 21.5zm7.078-15.154q-.718 0-1.225-.506a1.67 1.67 0 0 1-.505-1.224q0-.72.505-1.225a1.67 1.67 0 0 1 1.225-.506q.72 0 1.226.506.505.505.505 1.225 0 .718-.505 1.225a1.67 1.67 0 0 1-1.226.505M4.308 16.788l-.829-.838 1.329-1.344H1.462v-1.192h3.346L3.479 12.06l.829-.839 2.788 2.788z"/></svg>