<svg xmlns="http://www.w3.org/2000/svg" width="24" height="24" viewBox="0 0 24 24" fill='currentColor'><path d="m18.744 10.085-.99-.652.215-.325q.095-.144.15-.306t.054-.33a1.05 1.05 0 0 0-.094-.438 1.4 1.4 0 0 0-.295-.409 2.1 2.1 0 0 1-.463-.711 2.32 2.32 0 0 1-.07-1.557q.102-.318.293-.6l.225-.324 1 .652-.225.325a1.3 1.3 0 0 0-.149.305 1.02 1.02 0 0 0 .047.777q.102.216.287.4.265.266.426.617t.21.747-.057.784a2.3 2.3 0 0 1-.339.72zm-2.977-.046-1.052-.56.2-.356a1 1 0 0 0 .134-.313q.04-.17.04-.339 0-.228-.095-.46a1.6 1.6 0 0 0-.263-.432 2.1 2.1 0 0 1-.395-.712 2.6 2.6 0 0 1-.134-.83q0-.316.08-.626.08-.311.24-.576l.193-.356 1.062.56-.21.355a1 1 0 0 0-.133.314q-.04.169-.04.338 0 .23.094.46.095.233.264.433.26.305.394.706a2.6 2.6 0 0 1 .055 1.45 2.2 2.2 0 0 1-.24.572zm-3.796-1.847-.836-5.74q.81-.266 1.746-.48.795-.181 1.82-.327a15 15 0 0 1 2.116-.145q2.033 0 3.613.394 1.58.395 2.07.558l-.837 5.74h-1.207l.715-4.886a21 21 0 0 0-2.145-.45q-1.07-.164-2.18-.164t-2.185.165-2.198.449l.716 4.886zM18.208 21.5l-2.949-4.654H7.51L6.1 9.842q-.185-.989.447-1.742a2.02 2.02 0 0 1 1.621-.754q.705 0 1.266.468.56.47.78 1.228l1.537 5.333h3.908L19.5 20.74zm-3.418 0H4.361l-2.64-10.242a4.4 4.4 0 0 1-.16-.736 5.4 5.4 0 0 1 .103-1.963q.147-.626.444-1.219a1.44 1.44 0 0 1 1.31-.82q.468 0 .812.343.342.343.343.812 0 .217-.08.42a1.2 1.2 0 0 1-.243.372q-.494.495-.604 1.2t.2 1.395l.462.992q.805 1.774 1.199 3.336.393 1.562.393 3.021v1.235q.394-.311.807-.46.413-.147.824-.148h5.523q.724 0 1.23.502.506.5.506 1.21zM7.711 6.346q-.719 0-1.225-.506a1.67 1.67 0 0 1-.505-1.224q0-.72.505-1.225a1.67 1.67 0 0 1 1.225-.506q.72 0 1.225.506.506.505.506 1.225 0 .718-.506 1.225a1.67 1.67 0 0 1-1.225.505"/></svg>