<svg xmlns="http://www.w3.org/2000/svg" width="24" height="24" viewBox="0 0 24 24" fill='currentColor'><path d="m14.933 8.058-2.789-2.78L14.933 2.5l.829.829-1.33 1.354h3.347v1.192h-3.346l1.329 1.354zm3.788 5.711-2.779-2.778.83-.839 1.353 1.339V8.144h1.192v3.347l1.354-1.339.829.839zM7.711 6.346q-.719 0-1.224-.506a1.67 1.67 0 0 1-.506-1.224q0-.72.506-1.225a1.67 1.67 0 0 1 1.225-.506q.718 0 1.225.506.505.505.505 1.225 0 .718-.505 1.225a1.67 1.67 0 0 1-1.225.505M18.209 21.5l-2.948-4.654H7.51L6.1 9.842q-.186-.989.446-1.742a2.02 2.02 0 0 1 1.621-.754q.706 0 1.266.468.56.47.78 1.228l1.537 5.333h3.908L19.5 20.74zm-3.418 0H4.362l-2.64-10.242a4.4 4.4 0 0 1-.161-.736 5.4 5.4 0 0 1 .103-1.963q.147-.626.444-1.219a1.44 1.44 0 0 1 1.31-.82q.468 0 .812.343.343.343.343.812 0 .217-.08.42a1.2 1.2 0 0 1-.243.372q-.494.495-.604 1.2t.2 1.395l.462.992q.806 1.774 1.199 3.336t.393 3.021v1.235q.394-.311.807-.46.413-.147.824-.148h5.523q.725 0 1.23.502.506.5.506 1.21z"/></svg>