<svg xmlns="http://www.w3.org/2000/svg" width="24" height="24" viewBox="0 0 24 24" fill='currentColor'><path d="M2.5 19.5v-2.462q1.02 0 1.74.721.721.721.721 1.741zm4.654 0q0-1.92-1.362-3.278-1.361-1.357-3.292-1.376v-1.5q2.57 0 4.362 1.791T8.654 19.5zm3.885 0a8.3 8.3 0 0 0-.675-3.329 8.7 8.7 0 0 0-1.828-2.706 8.7 8.7 0 0 0-2.707-1.83 8.3 8.3 0 0 0-3.329-.674v-1.5q2.083 0 3.906.787a10.2 10.2 0 0 1 3.192 2.154q1.368 1.368 2.154 3.192a9.8 9.8 0 0 1 .787 3.906zm3.692 0q0-2.552-.955-4.777a12.3 12.3 0 0 0-2.616-3.884 12.3 12.3 0 0 0-3.893-2.615Q5.037 7.27 2.5 7.269V4.5h19v15z"/></svg>