<svg xmlns="http://www.w3.org/2000/svg" width="24" height="24" viewBox="0 0 24 24" fill='currentColor'><path d="M17.558 10.942V9.665l-.808.808-.623-.623 1.43-1.43v-.978h-.976l-1.43 1.431-.624-.623.808-.808h-1.277v-.884h1.277l-.808-.808.623-.638 1.43 1.42h.978v-.951l-1.43-1.43.622-.624.808.808V3.058h.884v1.277l.808-.808.623.623-1.43 1.43v.978h.976l1.431-1.43.623.622-.808.808h1.277v.884h-1.277l.808.808-.623.623-1.43-1.43h-.978v.976l1.431 1.431-.623.623-.808-.808v1.277zM5.5 19.5v-4.7l-1.023 1.023-1.044-1.044L10 8.212l6.664 6.663-1.045 1.07-1.119-1.12V19.5h-3.75v-4.25h-1.5v4.25z"/></svg>