<svg xmlns="http://www.w3.org/2000/svg" width="24" height="24" viewBox="0 0 24 24" fill='currentColor'><path d="M6.938 18.404q-1.13 0-1.899-.769-.768-.768-.787-1.918.01-1.15.778-1.926t1.913-.776 1.918.773q.774.774.774 1.914t-.774 1.92-1.923.782m-2.43-7.41V5.596H5.56v5.398zm2.43 6.462a1.62 1.62 0 0 0 1.213-.501q.485-.501.485-1.253t-.477-1.25-1.225-.498q-.723 0-1.208.498-.486.498-.486 1.25t.486 1.253a1.62 1.62 0 0 0 1.212.5m-.188-6.462V5.596h1.188l2.164 3.627-.03-.777v-2.85h1.038v5.398h-1.083L7.733 7.161l.046.777v3.056zm5.986 7.41q-.92 0-1.49-.618-.573-.617-.573-1.598v-3.173h1.004v3.23q0 .511.306.853a.97.97 0 0 0 .749.342q.441 0 .736-.342.296-.34.296-.854v-3.229h1.013v3.173q0 .981-.572 1.598t-1.469.618m4.53 0v-4.435H15.8v-.954h3.938v.954h-1.46v4.435z"/></svg>