<svg xmlns="http://www.w3.org/2000/svg" width="24" height="24" viewBox="0 0 24 24" fill='currentColor'><path d="M8.81 21.115q-.566 0-.938-.37a1.26 1.26 0 0 1-.372-.935q0-.566.37-.938t.935-.372.938.37.373.935-.37.938a1.26 1.26 0 0 1-.936.372m9.73 0q-.566 0-.937-.37a1.26 1.26 0 0 1-.372-.935q0-.566.37-.938t.935-.372.938.37.372.935-.37.938a1.26 1.26 0 0 1-.935.372M13.136 7.927 9.619 3.688a8.3 8.3 0 0 1 1.806-.564 10.5 10.5 0 0 1 1.99-.182q1.16 0 2.202.305t1.875.884zM7.5 17.5V5.896l-.596-.715q-.447-.55-.766-.75a1.23 1.23 0 0 0-.661-.2q-.617 0-1.028.44a1.5 1.5 0 0 0-.41 1.06h-1.5q0-1.222.858-2.111a2.8 2.8 0 0 1 2.1-.89q.72 0 1.307.365.586.364 1.246 1.143L19.058 17.5z"/></svg>