<svg xmlns="http://www.w3.org/2000/svg" width="24" height="24" viewBox="0 0 24 24" fill='currentColor'><path d="M9.556 19.367q-3.012-.506-5.034-2.855Q2.5 14.165 2.5 11q0-3.542 2.479-6.02Q7.457 2.5 10.998 2.5t6.021 2.48T19.5 11q0 1.258-.375 2.4a8.3 8.3 0 0 1-1.027 2.1H12.95q-1.41 0-2.401.988a3.42 3.42 0 0 0-1.04 2.387q0 .123.008.246t.039.246M13 14.054 14.054 13l-2.304-2.304V6.25h-1.5v5.054zM13 21h6q.824 0 1.413-.587Q21 19.825 21 19q0-.824-.587-1.413A1.93 1.93 0 0 0 19 17h-6q-.825 0-1.412.587A1.93 1.93 0 0 0 11 19q0 .824.588 1.413Q12.175 21 13 21m0-1.135a.84.84 0 0 1-.616-.248.84.84 0 0 1-.25-.617q0-.367.25-.616a.84.84 0 0 1 .616-.25q.367 0 .616.25a.84.84 0 0 1 .25.616q0 .367-.25.616a.84.84 0 0 1-.616.25m3 0a.84.84 0 0 1-.616-.248.84.84 0 0 1-.25-.617q0-.367.25-.616a.84.84 0 0 1 .616-.25q.367 0 .616.25a.84.84 0 0 1 .25.616q0 .367-.25.616a.84.84 0 0 1-.616.25m3 0a.84.84 0 0 1-.616-.248.84.84 0 0 1-.25-.617q0-.367.25-.616a.84.84 0 0 1 .616-.25q.367 0 .616.25a.84.84 0 0 1 .25.616q0 .367-.25.616a.84.84 0 0 1-.616.25"/></svg>