<svg xmlns="http://www.w3.org/2000/svg" width="24" height="24" viewBox="0 0 24 24" fill='currentColor'><path d="M17 15.817a2.56 2.56 0 0 1-1.88-.774 2.56 2.56 0 0 1-.774-1.88q0-1.105.774-1.88A2.56 2.56 0 0 1 17 10.51a2.56 2.56 0 0 1 1.88.774q.774.774.774 1.88a2.56 2.56 0 0 1-.774 1.88 2.56 2.56 0 0 1-1.88.773m-5.654 6.452v-3.688q.954-.552 1.963-.918 1.008-.367 2.093-.547L17 19.125l1.588-2.01q1.094.14 2.103.532a16 16 0 0 1 1.963.918v3.704zM8.961 20.5H3.5v-17h17v6.154a5 5 0 0 0-1.572-1.137q-.864-.392-1.928-.392a1.5 1.5 0 0 0-.25.02v-.78h-9.5v1.5h7.211a4.84 4.84 0 0 0-2.113 2.385H7.25v1.5h4.76q-.049.573.03 1.136.08.562.28 1.105l-.169.072a2 2 0 0 0-.159.072H7.25v1.5h1.711z"/></svg>