<svg xmlns="http://www.w3.org/2000/svg" width="24" height="24" viewBox="0 0 24 24" fill='currentColor'><path d="M.5 20.308V3.692h23v16.616zm8.499-6.193q1.145 0 1.948-.801a2.65 2.65 0 0 0 .803-1.948q0-1.145-.802-1.948a2.65 2.65 0 0 0-1.947-.803q-1.145 0-1.948.802a2.65 2.65 0 0 0-.803 1.947q0 1.146.802 1.948a2.65 2.65 0 0 0 1.947.803m-6.341 4.693h12.684a7.7 7.7 0 0 0-2.727-2.558A7.26 7.26 0 0 0 9 15.308a7.26 7.26 0 0 0-3.615.942 7.7 7.7 0 0 0-2.727 2.558m14.746-6.962h1.192v-1.815l1.571.907.596-1.03L19.194 9l1.57-.908-.596-1.03-1.57.907V6.154h-1.193v1.815l-1.571-.908-.597 1.031L16.809 9l-1.572.908.597 1.03 1.57-.907z"/></svg>