<svg xmlns="http://www.w3.org/2000/svg" width="24" height="24" viewBox="0 0 24 24" fill='currentColor'><path d="M20.777 22.915 1.266 3.404l1.069-1.07 19.511 19.512zM11 18.75a3.6 3.6 0 0 1-2.652-1.098A3.6 3.6 0 0 1 7.25 15q0-1.554 1.098-2.652A3.6 3.6 0 0 1 11 11.25h.25l1.5 1.5H11q-.93 0-1.59.66T8.75 15t.66 1.59 1.59.66h6.25l3.117 3.117a3.5 3.5 0 0 1-.65.277q-.34.105-.717.106-.936 0-1.668-.562a2.62 2.62 0 0 1-.965-1.438zm10.623.042-3.415-3.415a4 4 0 0 1 .38-.091q.195-.036.412-.036a2.65 2.65 0 0 1 1.947.803A2.65 2.65 0 0 1 21.75 18q0 .217-.035.412a4 4 0 0 1-.092.38m-6.615-6.615-1.11-1.11A2.24 2.24 0 0 0 15.25 9q0-.93-.66-1.59T13 6.75H9.58l-1.5-1.5H13q1.554 0 2.652 1.098A3.6 3.6 0 0 1 16.75 9q0 1.002-.48 1.838a3.8 3.8 0 0 1-1.262 1.339M5 8.75a2.65 2.65 0 0 1-1.947-.803A2.65 2.65 0 0 1 2.25 6q0-.752.38-1.379a2.8 2.8 0 0 1 1.003-.988l3.744 3.744a2.75 2.75 0 0 1-.998.997Q5.742 8.75 5 8.75"/></svg>