<svg xmlns="http://www.w3.org/2000/svg" width="24" height="24" viewBox="0 0 24 24" fill='currentColor'><path d="M12 21.75a9.5 9.5 0 0 1-3.802-.768 9.9 9.9 0 0 1-3.096-2.084 9.9 9.9 0 0 1-2.084-3.095A9.5 9.5 0 0 1 2.25 12q0-1.904.735-3.665A10.2 10.2 0 0 1 5.01 5.214 9.8 9.8 0 0 1 8.072 3.04q1.773-.815 3.832-.815.454 0 .928.04.476.04.964.137-.149 1.125.213 2.082.36.957 1.072 1.61a4.2 4.2 0 0 0 1.71.936q1 .284 2.138.072-.477 1.475.404 2.739.88 1.263 2.386 1.38.015.17.023.316t.008.315a9.6 9.6 0 0 1-.77 3.832 10.2 10.2 0 0 1-2.09 3.15 9.8 9.8 0 0 1-3.095 2.133A9.3 9.3 0 0 1 12 21.75M10.505 9.904q.582 0 .99-.413.41-.414.409-.996 0-.581-.41-.99a1.36 1.36 0 0 0-.994-.409q-.578 0-.99.41a1.35 1.35 0 0 0-.414.994q0 .578.413.99.414.414.996.414m-2 5q.582 0 .99-.413.41-.414.409-.996 0-.581-.41-.99a1.36 1.36 0 0 0-.994-.409q-.578 0-.99.41a1.35 1.35 0 0 0-.414.994q0 .578.414.99.413.414.995.414m6.5 1a.86.86 0 0 0 .64-.263.9.9 0 0 0 .259-.646.87.87 0 0 0-.26-.64.88.88 0 0 0-.644-.259.88.88 0 0 0-.64.26.87.87 0 0 0-.264.644q0 .377.264.64.263.264.645.264"/></svg>