<svg xmlns="http://www.w3.org/2000/svg" width="24" height="24" viewBox="0 0 24 24" fill='currentColor'><path d="m17.717 20.192-3.23-3.23a1.8 1.8 0 0 1-.43-.65 2 2 0 0 1-.122-.685q0-.74.529-1.318.53-.578 1.357-.578.651 0 1.022.3.373.302.874.804.471-.471.852-.788.38-.316 1.049-.316.853 0 1.367.585.515.584.515 1.324 0 .347-.136.694-.135.346-.416.628zM2.5 19.5v-15h19v6.806a6 6 0 0 0-.715-.426 5.6 5.6 0 0 0-.785-.324V8.404H4v3.192h9.692a6.45 6.45 0 0 0-2.023 2.281 6.4 6.4 0 0 0-.76 3.085q0 .674.132 1.317t.38 1.221z"/></svg>