<svg xmlns="http://www.w3.org/2000/svg" width="24" height="24" viewBox="0 0 24 24" fill='currentColor'><path d="M11.848 20.5a19 19 0 0 1-2.505-.218 14.5 14.5 0 0 1-2.616-.63q-1.239-.428-2.137-1.088Q3.693 17.9 3.5 17v-2.721q.173.765.876 1.366.703.6 1.696 1.02t2.175.678 2.307.365q.138.782.468 1.488.33.705.826 1.304m-1.39-4.827q-1.126-.106-2.29-.364-1.166-.26-2.141-.681a6.5 6.5 0 0 1-1.665-1.012q-.689-.591-.862-1.356V9.529q.192.825.98 1.448.787.623 1.887 1.057 1.1.435 2.39.669t2.474.295h.207q.1 0 .206-.01a5.5 5.5 0 0 0-.771 1.24 5.3 5.3 0 0 0-.415 1.445M12 11q-3.532 0-6.021-1.098Q3.489 8.804 3.49 7.25q0-1.554 2.489-2.652T12 3.5q3.547 0 6.024 1.098Q20.499 5.696 20.5 7.25t-2.476 2.652T12 11m9.446 11.5-2.68-2.671a5 5 0 0 1-1.064.488 3.7 3.7 0 0 1-1.164.183q-1.644 0-2.802-1.159-1.16-1.158-1.159-2.803 0-1.644 1.159-2.802 1.158-1.16 2.802-1.159t2.803 1.159 1.159 2.802q0 .603-.173 1.169-.174.566-.508 1.058l2.681 2.681zM16.538 19q1.032 0 1.747-.715A2.38 2.38 0 0 0 19 16.538q0-1.03-.715-1.746a2.38 2.38 0 0 0-1.747-.715q-1.03 0-1.746.715a2.38 2.38 0 0 0-.715 1.746q0 1.032.715 1.747.716.715 1.746.715"/></svg>