<svg xmlns="http://www.w3.org/2000/svg" width="24" height="24" viewBox="0 0 24 24" fill='currentColor'><path d="M18 18.058q.625 0 1.063-.438.437-.437.437-1.062t-.437-1.063A1.45 1.45 0 0 0 18 15.058q-.625 0-1.062.437a1.45 1.45 0 0 0-.438 1.063q0 .624.438 1.062.437.438 1.062.438m0 3q.75 0 1.4-.35a3 3 0 0 0 1.075-.975 4.5 4.5 0 0 0-1.2-.513 5.04 5.04 0 0 0-2.55 0q-.626.163-1.2.513.425.624 1.075.975.65.35 1.4.35m0 1.5q-1.873 0-3.187-1.314-1.313-1.313-1.313-3.186t1.313-3.187T18 13.558t3.186 1.313 1.314 3.187-1.314 3.186Q19.874 22.558 18 22.558M7.25 8.865h9.5v-1.5h-9.5zM11.598 20.5H3.5v-17h17v8.133a7 7 0 0 0-1.227-.386 6.1 6.1 0 0 0-2.021-.085q-.357.045-.713.144v-.056H7.25v1.5h6.356q-.604.473-1.072 1.074t-.792 1.31H7.25v1.5h4.017a6 6 0 0 0-.115.67 6 6 0 0 0-.036.696q0 .642.101 1.273t.381 1.227"/></svg>