<svg xmlns="http://www.w3.org/2000/svg" width="24" height="24" viewBox="0 0 24 24" fill='currentColor'><path d="M18.442 18.727V15.96h-.884v3.123l2.092 2.093.623-.623zM12 11.138 5.825 7.57l-.816.464v.778l6.996 4.05L19 8.811v-.78l-.825-.462zm-8.5 5.698V7.161L12 2.277l8.5 4.886v5.521a6 6 0 0 0-1.209-.374A6.5 6.5 0 0 0 18 12.183q-2.772 0-4.732 1.96t-1.96 4.732q0 .58.096 1.138t.298 1.081l.221.585zM18 23.375q-1.873 0-3.187-1.314Q13.5 20.75 13.5 18.875t1.313-3.187T18 14.375q1.873 0 3.186 1.313 1.314 1.314 1.314 3.187t-1.314 3.186Q19.874 23.375 18 23.375"/></svg>