<svg xmlns="http://www.w3.org/2000/svg" width="24" height="24" viewBox="0 0 24 24" fill='currentColor'><path d="m18 21.673 2.77-2.77-.624-.622-1.704 1.703v-3.907h-.884v3.907l-1.704-1.703-.623.623zm-6-10.535L5.825 7.57l-.816.462v.78L12 12.861l7-4.05v-.78l-.825-.462zm-8.5 5.698V7.163L12 2.277l8.5 4.886v5.521a6 6 0 0 0-1.207-.374A6.5 6.5 0 0 0 18 12.183q-2.775 0-4.734 1.958-1.958 1.959-1.958 4.734 0 .579.096 1.137.096.559.298 1.082l.221.585zM18 23.375q-1.873 0-3.187-1.314Q13.5 20.75 13.5 18.875t1.313-3.187T18 14.375q1.873 0 3.186 1.313 1.314 1.314 1.314 3.187t-1.314 3.186Q19.874 23.375 18 23.375"/></svg>