<svg xmlns="http://www.w3.org/2000/svg" width="24" height="24" viewBox="0 0 24 24" fill='currentColor'><path d="m8.954 11.354 2.217-2.233L9.444 7.38 8.315 8.508 7.262 7.454l1.113-1.129-1.538-1.538-2.233 2.232zm8.017 8.033 2.233-2.233-1.539-1.539-1.128 1.114-1.054-1.054 1.113-1.129-1.732-1.717-2.218 2.217zM15.88 6.589l1.563 1.563 1.573-1.573L17.437 5zM7.202 20.5H3.5v-3.702l4.385-4.384L2.5 7.019l4.337-4.336 5.419 5.41 5.215-5.231 3.642 3.711-5.17 5.196 5.374 5.395-4.336 4.336-5.395-5.385z"/></svg>