<svg xmlns="http://www.w3.org/2000/svg" width="24" height="24" viewBox="0 0 24 24" fill='currentColor'><path d="M12 22.423q-.729 0-1.24-.51-.51-.511-.51-1.24 0-.73.51-1.24.511-.51 1.24-.51t1.24.51.51 1.24-.51 1.24q-.511.51-1.24.51m-5.885-17.5q-.729 0-1.239-.51-.51-.511-.51-1.24 0-.73.51-1.24t1.24-.51q.727 0 1.239.51.51.51.51 1.24 0 .729-.51 1.24-.51.51-1.24.51m0 5.885q-.729 0-1.239-.511-.51-.51-.51-1.24 0-.728.51-1.239.51-.51 1.24-.51.727 0 1.239.51.51.51.51 1.24 0 .728-.51 1.239-.51.51-1.24.51m0 5.884q-.729 0-1.239-.51t-.51-1.24.51-1.24 1.24-.51q.727 0 1.239.51.51.511.51 1.24 0 .73-.51 1.24t-1.24.51m11.77-11.77q-.73 0-1.24-.51t-.51-1.24q0-.728.51-1.238t1.24-.511 1.239.51.51 1.24-.51 1.24-1.24.51M12 16.693q-.729 0-1.24-.51-.51-.51-.51-1.24 0-.729.51-1.24.511-.51 1.24-.51t1.24.51.51 1.24-.51 1.24q-.511.51-1.24.51m5.884 0q-.728 0-1.239-.51-.51-.51-.51-1.24 0-.729.51-1.24.51-.51 1.24-.51.728 0 1.239.51.51.511.51 1.24 0 .73-.51 1.24t-1.24.51m0-5.884q-.728 0-1.239-.511-.51-.51-.51-1.24 0-.728.51-1.239.51-.51 1.24-.51.728 0 1.239.51.51.51.51 1.24 0 .728-.51 1.239-.51.51-1.24.51m-5.884 0q-.729 0-1.24-.511-.51-.51-.51-1.24 0-.728.51-1.239.511-.51 1.24-.51t1.24.51.51 1.24-.51 1.239-1.24.51m0-5.885q-.729 0-1.24-.51-.51-.511-.51-1.24 0-.73.51-1.24.511-.51 1.24-.51t1.24.51.51 1.24-.51 1.24q-.511.51-1.24.51"/></svg>