<svg xmlns="http://www.w3.org/2000/svg" width="24" height="24" viewBox="0 0 24 24" fill='currentColor'><path d="M.25 22.75V1.25h10.5v21.5h-1.5v-2h-7.5v2zm15.308 0v-6.196l2.15-2.07-.698-3.32q-.966 1.317-2.233 1.918-1.268.6-2.623.649v-1.5q1.257-.058 2.238-.604t1.668-1.664l.836-1.36a1.65 1.65 0 0 1 1.023-.777q.658-.172 1.298.103L23.75 9.83v4.419h-1.5v-3.421l-2.146-.898 2.569 12.819h-1.53l-1.69-7.323-2.395 2.271v5.052zm-11.5-9.846L7.385 11 4.058 9.096zM17 6.846a1.78 1.78 0 0 1-1.307-.54A1.78 1.78 0 0 1 15.153 5q0-.767.54-1.307T17 3.153t1.307.54.54 1.307-.54 1.307-1.307.54"/></svg>