<svg xmlns="http://www.w3.org/2000/svg" width="24" height="24" viewBox="0 0 24 24" fill='currentColor'><path d="M10.875 21.417a9.4 9.4 0 0 1-3.306-1.009 9.4 9.4 0 0 1-2.658-2.056 9.4 9.4 0 0 1-1.77-2.889A9.4 9.4 0 0 1 2.5 12q0-1.98.744-3.713a9.5 9.5 0 0 1 2.027-3.016 9.5 9.5 0 0 1 3.016-2.027A9.3 9.3 0 0 1 12 2.5a9.3 9.3 0 0 1 3.713.744 9.5 9.5 0 0 1 3.016 2.027 9.5 9.5 0 0 1 2.027 3.016A9.3 9.3 0 0 1 21.5 12v.379a5.5 5.5 0 0 0-.742-.398q-.423-.19-.773-.327-.143-3.197-2.444-5.426T12 4q-1.497 0-2.782.508a8.6 8.6 0 0 0-2.31 1.346l6.202 6.202q-.36.16-.687.357-.327.195-.646.418L5.854 6.908a8 8 0 0 0-1.346 2.31A7.7 7.7 0 0 0 4 12q0 2.543 1.41 4.538 1.41 1.997 3.63 2.883.345.518.851 1.064.507.548.984.932M17 20q1.475 0 2.738-.675A5.4 5.4 0 0 0 21.75 17.5a5.4 5.4 0 0 0-2.012-1.825A5.7 5.7 0 0 0 17 15q-1.475 0-2.738.675A5.4 5.4 0 0 0 12.25 17.5q.75 1.15 2.012 1.825T17 20m0 1.5q-2.169 0-3.903-1.118t-2.54-2.882q.807-1.763 2.54-2.882Q14.831 13.5 17 13.5t3.903 1.118 2.54 2.882q-.807 1.763-2.54 2.882Q19.169 21.5 17 21.5m0-2.596q-.578 0-.99-.413a1.35 1.35 0 0 1-.414-.991q0-.587.413-.995a1.36 1.36 0 0 1 .991-.409q.587 0 .995.409.41.408.409.995 0 .578-.409.99a1.35 1.35 0 0 1-.995.414"/></svg>