<svg xmlns="http://www.w3.org/2000/svg" width="24" height="24" viewBox="0 0 24 24" fill='currentColor'><path d="M12 21.75q-2.535 0-4.142-.765T6.25 19q0-.73.614-1.299.615-.568 1.698-.934l.43 1.43q-.473.172-.794.389-.321.216-.417.414.247.535 1.476.892 1.227.358 2.743.358 1.506 0 2.746-.358 1.24-.357 1.489-.892-.096-.198-.418-.41a4.2 4.2 0 0 0-.794-.394l.44-1.429q1.083.366 1.685.934T17.75 19q0 1.219-1.608 1.985-1.608.765-4.142.765m0-3.308a.7.7 0 0 1-.452-.162 1 1 0 0 1-.306-.419q-.613-1.678-1.46-2.816a408 408 0 0 0-1.632-2.18 14 14 0 0 1-1.306-2.16Q6.3 9.589 6.3 7.95q0-2.394 1.653-4.047Q9.605 2.25 12 2.25t4.047 1.653T17.7 7.95q0 1.637-.532 2.756a12.5 12.5 0 0 1-1.318 2.16q-.762 1.04-1.62 2.18-.859 1.136-1.472 2.816a1 1 0 0 1-.306.418.7.7 0 0 1-.452.162m0-8.665q.759 0 1.293-.534t.534-1.293-.534-1.293A1.76 1.76 0 0 0 12 6.123q-.759 0-1.293.534a1.76 1.76 0 0 0-.534 1.293q0 .759.534 1.293T12 9.777"/></svg>