<svg xmlns="http://www.w3.org/2000/svg" width="24" height="24" viewBox="0 0 24 24" fill='currentColor'><path d="M1.546 13.367A9 9 0 0 1 .77 11.5 7 7 0 0 1 .5 9.6q0-2.57 1.765-4.334Q4.03 3.499 6.6 3.5q1.545 0 2.957.725A7.3 7.3 0 0 1 12 6.279a7.3 7.3 0 0 1 2.443-2.054A6.4 6.4 0 0 1 17.4 3.5q2.57 0 4.335 1.766Q23.5 7.03 23.5 9.6q0 .93-.27 1.87a9.6 9.6 0 0 1-.776 1.888 3 3 0 0 0-.51-.61 2.5 2.5 0 0 0-.66-.436q.35-.71.533-1.38T22 9.6q0-1.941-1.33-3.27Q19.341 5 17.4 5q-1.785 0-2.959 1.021Q13.268 7.041 12 8.6q-1.268-1.573-2.441-2.586Q8.384 5 6.6 5 4.659 5 3.33 6.33 2 7.659 2 9.6q0 .681.183 1.356t.523 1.365a2.7 2.7 0 0 0-.654.441 3 3 0 0 0-.506.605M.5 21.52V20.3q0-1.014 1.045-1.647t2.715-.634q.306 0 .586.018.28.016.537.067a3.7 3.7 0 0 0-.43.94 3.8 3.8 0 0 0-.145 1.062v1.413zm6 0v-1.375q0-1.432 1.523-2.298 1.524-.865 3.977-.865 2.478 0 3.99.865 1.51.866 1.51 2.298v1.375zm12.692 0v-1.413q0-.564-.133-1.062a3.6 3.6 0 0 0-.401-.94q.255-.05.528-.067a9 9 0 0 1 .564-.018q1.685 0 2.717.634 1.033.633 1.033 1.647v1.22zM4.26 17.048a1.65 1.65 0 0 1-1.211-.5 1.65 1.65 0 0 1-.501-1.211q0-.716.501-1.209a1.66 1.66 0 0 1 1.21-.493q.716 0 1.214.493.498.494.498 1.208 0 .71-.498 1.211t-1.213.501m15.49 0q-.7 0-1.206-.5a1.64 1.64 0 0 1-.506-1.211q.001-.716.506-1.209a1.67 1.67 0 0 1 1.206-.493q.725 0 1.218.493.494.494.494 1.208 0 .71-.494 1.211-.493.501-1.218.501M12 16.231q-1.077 0-1.836-.76a2.5 2.5 0 0 1-.76-1.836q0-1.102.76-1.85A2.52 2.52 0 0 1 12 11.04q1.102 0 1.849.747t.747 1.849q0 1.077-.747 1.836t-1.849.76"/></svg>