<svg xmlns="http://www.w3.org/2000/svg" width="24" height="24" viewBox="0 0 24 24" fill='currentColor'><path d="M8.962 22.06a3.37 3.37 0 0 1-2.039-.649 3.75 3.75 0 0 1-1.302-1.717 2.33 2.33 0 0 1-.926.793 2.7 2.7 0 0 1-1.195.278q-1.16 0-1.955-.803a2.67 2.67 0 0 1-.795-1.947q0-.998.671-1.807.672-.81 1.698-.877a3.7 3.7 0 0 1-.667-1.087 3.4 3.4 0 0 1-.24-1.27q0-.912.46-1.715A3.7 3.7 0 0 1 3.96 9.944q.095.335.26.717.164.384.363.672-.408.313-.627.749-.22.435-.22.918 0 1.477 1.15 1.864 1.15.388 2.272.607l.35.598q-.275.8-.461 1.358a3.3 3.3 0 0 0-.185 1.017q0 .846.61 1.476t1.48.63q1.008 0 1.662-.826a7.1 7.1 0 0 0 1.072-1.952q.42-1.125.647-2.296t.371-1.853l1.469.4q-.215 1.058-.521 2.44a13.5 13.5 0 0 1-.864 2.628 6.6 6.6 0 0 1-1.469 2.107q-.909.861-2.358.861m1.129-6.831a98 98 0 0 1-1.973-1.807 16 16 0 0 1-1.53-1.638 7 7 0 0 1-.99-1.599 4.1 4.1 0 0 1-.348-1.66q0-1.52 1.04-2.56t2.56-1.04q.187 0 .334.022.147.023.295.05a2.7 2.7 0 0 1-.17-.485 2.2 2.2 0 0 1-.059-.52q0-1.143.803-1.947A2.65 2.65 0 0 1 12 1.242a2.65 2.65 0 0 1 1.947.803q.803.804.803 1.947 0 .275-.06.513-.06.237-.169.478a3 3 0 0 1 .629-.058q1.317 0 2.266.804a3.54 3.54 0 0 1 1.207 2.017 5 5 0 0 0-.772-.056q-.428 0-.787.04a2.05 2.05 0 0 0-.73-.94 1.97 1.97 0 0 0-1.184-.365q-.904 0-1.425.498-.522.498-1.39 1.502h-.695q-.894-1.044-1.415-1.522-.522-.478-1.375-.478-.906 0-1.503.597-.597.598-.597 1.503 0 .574.31 1.192.311.618.884 1.305t1.387 1.463a70 70 0 0 0 1.829 1.675zm4.903 6.84q-.453 0-.895-.111a3.2 3.2 0 0 1-.855-.36q.208-.263.415-.623.208-.359.375-.664.247.136.498.193.25.056.497.056.886 0 1.5-.63.615-.63.615-1.501 0-.475-.185-1.02l-.461-1.346.36-.598a16.5 16.5 0 0 0 2.283-.611q1.138-.393 1.138-1.87 0-1.106-.795-1.623a3.17 3.17 0 0 0-1.767-.517q-1.03 0-2.402.371a59 59 0 0 0-3.188.977l-.4-1.47a96 96 0 0 1 3.282-.991q1.448-.405 2.666-.406 1.62 0 2.861.958 1.243.958 1.243 2.701 0 .664-.236 1.255a3.9 3.9 0 0 1-.662 1.092q1.026.076 1.698.877.67.8.671 1.807a2.67 2.67 0 0 1-.795 1.943q-.795.807-1.955.807-.621 0-1.195-.278a2.33 2.33 0 0 1-.926-.793 3.75 3.75 0 0 1-1.312 1.722q-.898.654-2.073.653"/></svg>