<svg xmlns="http://www.w3.org/2000/svg" width="24" height="24" viewBox="0 0 24 24" fill='currentColor'><path d="M4.5 20.5v-3.375L18.764 2.892l3.344 3.344L7.875 20.5zM18.612 7.64 20 6.252 18.748 5 17.36 6.388zm.273 9.61q0-.88-.528-1.54t-1.482-1.116l-1.12 1.12q.768.288 1.199.68.43.39.43.856 0 .71-1.066 1.23-1.065.52-2.933.52v1.5q2.32 0 3.91-.858t1.59-2.392m-13.79-3.814 1.115-1.125q-.603-.239-.906-.511Q5 11.526 5 11.25q0-.387.52-.762t1.984-.994q1.948-.837 2.722-1.55Q11 7.227 11 6.25q0-1.271-.925-2.01Q9.15 3.5 7.5 3.5q-1.004 0-2.059.487A5.3 5.3 0 0 0 3.673 5.28l1.01.998a4.3 4.3 0 0 1 1.367-.942Q6.821 5 7.5 5q.966 0 1.483.332.517.33.517.918 0 .436-.475.791t-2.12 1.08q-1.953.893-2.679 1.554-.726.66-.726 1.575 0 .667.397 1.216.398.55 1.197.97"/></svg>