<svg xmlns="http://www.w3.org/2000/svg" width="24" height="24" viewBox="0 0 24 24" fill='currentColor'><path d="M3.5 20.5v-4.058l8.848-8.848-1.617-1.608L11.8 4.933l2.127 2.102 3.867-3.877 3.039 3.057-3.877 3.877 1.611 1.652-1.053 1.054-4.097-4.135L5 17.046V19h1.396q.202.416.427.785t.473.715zm11.567 2a7.1 7.1 0 0 1-3.791-1.07 6.95 6.95 0 0 1-2.641-2.91 6.95 6.95 0 0 1 2.641-2.911 7.1 7.1 0 0 1 3.792-1.07q2.053 0 3.79 1.07a6.95 6.95 0 0 1 2.642 2.91 6.95 6.95 0 0 1-2.642 2.91 7.1 7.1 0 0 1-3.791 1.071m0-1.846q.897 0 1.516-.62a2.06 2.06 0 0 0 .619-1.514q0-.898-.619-1.516a2.06 2.06 0 0 0-1.515-.62q-.897 0-1.516.62a2.06 2.06 0 0 0-.62 1.515q0 .897.62 1.516.619.618 1.515.619m.002-.885q-.522 0-.886-.364a1.2 1.2 0 0 1-.366-.885q0-.52.364-.885.365-.366.885-.366t.886.365.365.884-.364.886a1.2 1.2 0 0 1-.884.365"/></svg>