<svg xmlns="http://www.w3.org/2000/svg" width="24" height="24" viewBox="0 0 24 24" fill='currentColor'><path d="M16.327 17.75V7.173h1.961V6.29h1.5v.884h1.962V17.75zm-10.854 0q-1.36 0-2.291-.931-.932-.931-.932-2.292V6.289h3.692V9.98h-2.5v4.548q0 .858.586 1.443.585.586 1.443.586t1.444-.586.585-1.443V9.513q0-1.362.93-2.293.93-.93 2.29-.931 1.36 0 2.29.927.932.926.932 2.294v8.24H10.25v-3.692h2.5V9.51q0-.858-.585-1.444a1.96 1.96 0 0 0-1.444-.585q-.858 0-1.443.585T8.692 9.51v5.016q0 1.361-.93 2.293-.93.93-2.29.931"/></svg>