<svg xmlns="http://www.w3.org/2000/svg" width="24" height="24" viewBox="0 0 24 24" fill='currentColor'><path d="M9.25 21.315v-2.307q-2.535-.858-4.142-3.05Q3.5 13.765 3.5 10.95q0-1.77.67-3.315a8.6 8.6 0 0 1 1.819-2.696 8.6 8.6 0 0 1 2.696-1.82 8.2 8.2 0 0 1 3.29-.669q1.755 0 3.308.67a8.7 8.7 0 0 1 2.711 1.819 8.6 8.6 0 0 1 1.832 2.696q.675 1.546.674 3.315 0 2.806-1.616 4.983-1.614 2.177-4.134 3.05v2.332h-1.5v-1.963a4 4 0 0 1-.63.084q-.312.015-.645.014-.317 0-.617-.022t-.608-.076v1.963zm-1-12.565h7.5v-1.5h-7.5zm3 7.894 2.596-2.596-1.25-1.25 1.298-1.298-1.144-1.144-2.596 2.596 1.25 1.25-1.298 1.298z"/></svg>