<svg xmlns="http://www.w3.org/2000/svg" width="24" height="24" viewBox="0 0 24 24" fill='currentColor'><path d="M5 16.75q-2.019 0-3.384-1.366Q.25 14.02.25 12q0-2 1.39-3.384Q3.03 7.23 5 7.23q1.82 0 3.117 1.155a4.73 4.73 0 0 1 1.571 2.864h1.208l-1.973-5.5H7.25v-1.5h4.5v1.5h-1.216l.524 1.48h5.358l-1.633-4.48H12.25v-1.5h3.602l2.175 5.95H19q1.97 0 3.36 1.39t1.39 3.36q0 1.984-1.383 3.383Q20.984 16.73 19 16.73q-1.761 0-3.071-1.13a4.76 4.76 0 0 1-1.617-2.851H9.689a4.6 4.6 0 0 1-1.6 2.863A4.6 4.6 0 0 1 5 16.75m.25-4h2.877v-1.5H5.25zm7.673 10.077-5.557-2.789h3.692v-1.865l5.557 2.789h-3.692zm-.396-11.577h1.785q.105-.633.424-1.349.318-.717.899-1.17h-4.05zm5.627.773 1.419-.527-1.02-2.707-1.368.526z"/></svg>