<svg xmlns="http://www.w3.org/2000/svg" width="24" height="24" viewBox="0 0 24 24" fill='currentColor'><path d="M17 21.27v-3h-3v-1.5h3v-3h1.5v3h3v1.5h-3v3zm-5 .23q-1.972 0-3.705-.748a9.6 9.6 0 0 1-3.016-2.03 9.6 9.6 0 0 1-2.03-3.016 9.25 9.25 0 0 1-.749-3.704q0-1.972.748-3.706a9.6 9.6 0 0 1 2.03-3.016 9.6 9.6 0 0 1 3.016-2.032 9.25 9.25 0 0 1 3.704-.748q1.972 0 3.706.748a9.6 9.6 0 0 1 3.017 2.03 9.6 9.6 0 0 1 2.03 3.017 9.25 9.25 0 0 1 .678 4.794 5.1 5.1 0 0 0-1.341-.825 5.5 5.5 0 0 0-1.58-.399l1.32-1.415a9 9 0 0 0-.282-1.086 6 6 0 0 0-.44-1.018l-8.566 8.55q.352.45.746.837a7 7 0 0 0 .868.719q.108.839.459 1.58.35.743.895 1.349A9.5 9.5 0 0 1 12 21.5m-2.265-5.896 8.54-8.55a11 11 0 0 0-.67-.751 6 6 0 0 0-.759-.653l-7.844 7.86q.11.555.287 1.074.178.518.446 1.02m-.833-4.133 6.627-6.627-.521-.259a3 3 0 0 0-.54-.204 7.9 7.9 0 0 0-3.888 2.668q-1.536 1.93-1.678 4.422"/></svg>