<svg xmlns="http://www.w3.org/2000/svg" width="24" height="24" viewBox="0 0 24 24" fill='currentColor'><path d="M14 18.27v-1.5h7.5v1.5zm-2 3.23a9.2 9.2 0 0 1-3.703-.749 9.6 9.6 0 0 1-3.016-2.032 9.6 9.6 0 0 1-2.032-3.016A9.2 9.2 0 0 1 2.5 12q0-1.97.749-3.703a9.6 9.6 0 0 1 2.032-3.016 9.6 9.6 0 0 1 3.016-2.032A9.2 9.2 0 0 1 12 2.5q1.97 0 3.703.749a9.6 9.6 0 0 1 3.016 2.032 9.6 9.6 0 0 1 2.032 3.016 9.24 9.24 0 0 1 .678 4.791 5.1 5.1 0 0 0-1.341-.824 5.5 5.5 0 0 0-1.58-.399l1.32-1.415a9 9 0 0 0-.282-1.086 6 6 0 0 0-.44-1.018l-8.566 8.55q.352.45.746.837a7 7 0 0 0 .868.719q.108.839.459 1.58.35.743.895 1.349A9.5 9.5 0 0 1 12 21.5m-2.265-5.896 8.54-8.55a11 11 0 0 0-.67-.751 6 6 0 0 0-.759-.653l-7.844 7.86q.11.555.287 1.074.178.518.446 1.02m-.833-4.133 6.627-6.627-.521-.259a3 3 0 0 0-.54-.204 7.9 7.9 0 0 0-3.888 2.668q-1.536 1.93-1.678 4.422"/></svg>