<svg xmlns="http://www.w3.org/2000/svg" width="24" height="24" viewBox="0 0 24 24" fill='currentColor'><path d="M6.116 22.5H1.5v-4.616H3V21h3.116zm11.769 0V21H21v-3.116h1.5V22.5zM12 18.115q-2.837 0-5.12-1.645T3.49 12q1.106-2.825 3.39-4.47T12 5.885t5.12 1.645T20.51 12q-1.106 2.825-3.39 4.47T12 18.115m0-2.932q1.325 0 2.254-.93.93-.928.929-2.253 0-1.325-.93-2.254A3.07 3.07 0 0 0 12 8.817q-1.325 0-2.254.93-.93.928-.929 2.253 0 1.325.93 2.254.928.93 2.253.929m0-1.5q-.702 0-1.192-.491a1.63 1.63 0 0 1-.49-1.193q0-.7.49-1.191.491-.49 1.193-.49.7 0 1.191.49.49.491.49 1.193 0 .7-.49 1.191-.491.49-1.193.49M1.5 6.116V1.5h4.616V3H3v3.116zm19.5 0V3h-3.116V1.5H22.5v4.616z"/></svg>