<svg xmlns="http://www.w3.org/2000/svg" width="24" height="24" viewBox="0 0 24 24" fill='currentColor'><path d="m20.58 21.754-2.526-2.527a10 10 0 0 1-2.782 1.662q-1.536.61-3.338.61a9.2 9.2 0 0 1-3.687-.748 9.6 9.6 0 0 1-3.024-2.04 9.6 9.6 0 0 1-2.04-3.024A9.2 9.2 0 0 1 2.436 12q0-1.783.62-3.35a9.9 9.9 0 0 1 1.653-2.785L2.18 3.354 3.235 2.3l18.4 18.4zm-.295-5.235-1.1-1.12a9.6 9.6 0 0 0 .55-1.65q.2-.85.2-1.75 0-.6-.075-1.162a4.8 4.8 0 0 0-.276-1.087q-.525.125-1.05.187-.525.063-1.1.063a9.6 9.6 0 0 1-2.643-.353 10 10 0 0 1-2.387-1.028L7.419 3.635a10 10 0 0 1 2.143-.849 9.3 9.3 0 0 1 2.373-.286q1.968 0 3.695.749a9.7 9.7 0 0 1 3.016 2.032 9.5 9.5 0 0 1 2.04 3.016q.749 1.734.749 3.703 0 1.181-.274 2.316a8.6 8.6 0 0 1-.876 2.203m-11.35-2.27q-.525 0-.888-.362A1.2 1.2 0 0 1 7.685 13q0-.525.362-.888.363-.362.888-.362.524 0 .887.362.363.363.363.888t-.363.887a1.2 1.2 0 0 1-.887.363m3 5.75q1.468 0 2.764-.492a7.6 7.6 0 0 0 2.27-1.334L7.927 9.1A8.8 8.8 0 0 1 6.1 10.745a9.2 9.2 0 0 1-2.165 1.105V12q0 3.325 2.337 5.662Q8.609 20 11.935 20"/></svg>