<svg xmlns="http://www.w3.org/2000/svg" width="24" height="24" viewBox="0 0 24 24" fill='currentColor'><path d="M8.582 11.817a.88.88 0 0 1-.646-.26.87.87 0 0 1-.263-.645q0-.385.263-.644a.9.9 0 0 1 .65-.259.86.86 0 0 1 .638.261.88.88 0 0 1 .257.645.87.87 0 0 1-.259.644.87.87 0 0 1-.64.258m4.83 0a.87.87 0 0 1-.644-.26.88.88 0 0 1-.259-.645.87.87 0 0 1 .261-.644.88.88 0 0 1 .645-.259.87.87 0 0 1 .644.261.88.88 0 0 1 .258.645.87.87 0 0 1-.26.644.88.88 0 0 1-.645.258m-5.535 4.45a7.5 7.5 0 0 1-2.461-2.653Q4.5 11.973 4.5 10q0-3.14 2.18-5.32Q8.857 2.5 11.998 2.5t5.32 2.18Q19.5 6.86 19.5 10q0 1.973-.916 3.614a7.5 7.5 0 0 1-2.461 2.653l-1.094-1.084A6 6 0 0 0 17.216 13q.825-1.392.784-3.086v-.03a7.9 7.9 0 0 1-2.842-1.293 7.75 7.75 0 0 1-2.121-2.289 7.8 7.8 0 0 1-2.876 1.98 7.6 7.6 0 0 1-3.455.514 2.7 2.7 0 0 1-.548-.057 6 6 0 0 0-.119.625Q6 9.667 6 10q0 1.676.816 3.034a6.1 6.1 0 0 0 2.155 2.149zm4.075 6.435-3.654-3.654 3.654-3.644 1.044 1.054-1.825 1.84h4.531v1.5h-4.531l1.825 1.85z"/></svg>