<svg xmlns="http://www.w3.org/2000/svg" width="24" height="24" viewBox="0 0 24 24" fill='currentColor'><path d="M11.798 15.952h.629v-.79a2.1 2.1 0 0 0 1.188-.564q.487-.465.487-1.2 0-.637-.5-1.065a4.4 4.4 0 0 0-1.15-.704V9.692q.27.066.456.245.186.18.27.42l.805-.336a1.7 1.7 0 0 0-.601-.787 2.3 2.3 0 0 0-.93-.396v-.79h-.654v.775a2.1 2.1 0 0 0-1.187.498q-.488.425-.488 1.129 0 .656.513 1.102.512.446 1.162.72v2.041a1.5 1.5 0 0 1-.728-.4 1.57 1.57 0 0 1-.399-.696l-.788.337q.2.666.7 1.095t1.215.528zm.654-1.654v-1.775q.313.143.555.343.24.199.241.563 0 .415-.224.597t-.572.272m-.654-2.946a3 3 0 0 1-.562-.343.67.67 0 0 1-.259-.559q0-.375.254-.549.254-.173.567-.224zM8 18.5q-2.716 0-4.608-1.892Q1.5 14.718 1.5 12.003t1.892-4.609T8 5.5h8q2.716 0 4.608 1.891t1.892 4.607-1.892 4.609T16 18.5z"/></svg>