<svg xmlns="http://www.w3.org/2000/svg" width="24" height="24" viewBox="0 0 24 24" fill='currentColor'><path d="M4.538 21.5V20H6.5v-3.452H3.788v-5.096H6.5V8H4.538V6.5h2.197A5.43 5.43 0 0 1 8.67 3.63Q10.117 2.5 12 2.5t3.329 1.13a5.43 5.43 0 0 1 1.936 2.87h2.197V8H17.5v3.452h2.712v5.096H17.5V20h1.962v1.5zM12 17.27q1.354 0 2.313-.958A3.15 3.15 0 0 0 15.269 14q0-1.353-.957-2.312a3.15 3.15 0 0 0-2.311-.957q-1.354 0-2.313.957a3.15 3.15 0 0 0-.957 2.311q0 1.355.957 2.312a3.15 3.15 0 0 0 2.311.958m-.001-1.5a1.7 1.7 0 0 1-1.253-.518 1.7 1.7 0 0 1-.514-1.254q0-.738.517-1.253a1.7 1.7 0 0 1 1.254-.514 1.7 1.7 0 0 1 1.253.517q.514.516.514 1.254a1.7 1.7 0 0 1-.517 1.253 1.7 1.7 0 0 1-1.254.514"/></svg>