<svg xmlns="http://www.w3.org/2000/svg" width="24" height="24" viewBox="0 0 24 24" fill='currentColor'><path d="M12.002 21.5a9.3 9.3 0 0 1-3.706-.748 9.6 9.6 0 0 1-3.016-2.03 9.6 9.6 0 0 1-2.032-3.016 9.25 9.25 0 0 1-.748-3.704q0-1.972.748-3.706a9.6 9.6 0 0 1 2.03-3.016 9.6 9.6 0 0 1 3.016-2.032 9.25 9.25 0 0 1 3.704-.748q1.972 0 3.706.748a9.6 9.6 0 0 1 3.017 2.03 9.6 9.6 0 0 1 2.03 3.016 9.25 9.25 0 0 1 .749 3.704q0 1.972-.748 3.706a9.6 9.6 0 0 1-2.03 3.017 9.6 9.6 0 0 1-3.016 2.03 9.25 9.25 0 0 1-3.704.749M7.35 11.004l1.4-1.425 1.4 1.425.854-.854-1.425-1.4 1.425-1.4-.854-.854-1.4 1.425-1.4-1.425-.854.854 1.425 1.4-1.425 1.4zM12 20q3.325 0 5.663-2.337T20 12q0-1.65-.625-3.1a8.1 8.1 0 0 0-1.725-2.55l-11.3 11.3a8.1 8.1 0 0 0 2.55 1.725Q10.35 20 12 20m2.05-2.621L11.861 15.2l.839-.854 1.34 1.34 2.5-2.475.839.839z"/></svg>