<svg xmlns="http://www.w3.org/2000/svg" width="24" height="24" viewBox="0 0 24 24" fill='currentColor'><path d="M16.04 19.5a.87.87 0 0 1-.647-.26.88.88 0 0 1-.258-.644v-1.029h-2.981a.88.88 0 0 1-.644-.26.88.88 0 0 1-.26-.643V12.75H8.856v1.02q0 .383-.26.644a.88.88 0 0 1-.644.26H3.404a.87.87 0 0 1-.645-.26.88.88 0 0 1-.259-.644v-3.548q0-.385.26-.645a.87.87 0 0 1 .644-.26h4.548q.387 0 .645.26a.88.88 0 0 1 .259.645v1.028h2.394V7.327q0-.383.26-.644a.87.87 0 0 1 .644-.26h2.98V5.394q0-.383.26-.644a.88.88 0 0 1 .644-.26h4.557q.388 0 .646.26a.88.88 0 0 1 .259.644v3.558q0 .383-.26.644a.88.88 0 0 1-.644.26h-4.557a.88.88 0 0 1-.646-.26.88.88 0 0 1-.258-.644V7.923H12.75v8.144h2.385v-1.019q0-.383.26-.644a.88.88 0 0 1 .643-.26h4.557q.388 0 .646.26a.88.88 0 0 1 .259.644v3.548q0 .384-.26.644a.87.87 0 0 1-.644.26z"/></svg>