<svg xmlns="http://www.w3.org/2000/svg" width="24" height="24" viewBox="0 0 24 24" fill='currentColor'><path d="M2.5 19.5v-15h7.298l2 2H21.5v7.802a10 10 0 0 0-2.563-1.43 8 8 0 0 0-2.87-.526q-3.247 0-5.716 2.148-2.469 2.147-3.57 5.006zm13.567 3a7.1 7.1 0 0 1-3.791-1.07 6.95 6.95 0 0 1-2.641-2.91 6.95 6.95 0 0 1 2.641-2.911 7.1 7.1 0 0 1 3.791-1.07q2.054 0 3.792 1.07a6.95 6.95 0 0 1 2.641 2.91 6.95 6.95 0 0 1-2.642 2.91 7.1 7.1 0 0 1-3.791 1.071m0-1.846q.897 0 1.516-.62a2.06 2.06 0 0 0 .619-1.514q0-.897-.619-1.516a2.06 2.06 0 0 0-1.515-.62q-.897 0-1.516.62a2.06 2.06 0 0 0-.62 1.515q0 .897.62 1.516.619.618 1.515.619m.002-.885q-.521 0-.886-.364a1.2 1.2 0 0 1-.366-.885q0-.52.364-.885.364-.366.885-.366.52 0 .886.365.365.363.365.884 0 .52-.364.886a1.2 1.2 0 0 1-.884.365"/></svg>