<svg xmlns="http://www.w3.org/2000/svg" width="24" height="24" viewBox="0 0 24 24" fill='currentColor'><path d="M3.546 12.933a9 9 0 0 1-.05-.933q0-1.77.666-3.315a8.5 8.5 0 0 1 1.825-2.697 8.7 8.7 0 0 1 2.7-1.819A8.2 8.2 0 0 1 12 3.5q1.779 0 3.33.67a8.6 8.6 0 0 1 2.7 1.819 8.7 8.7 0 0 1 1.825 2.696q.675 1.545.674 3.315a9 9 0 0 1-.05.933h-1.515a4 4 0 0 0 .052-.467 9 9 0 0 0-.01-1.062 5 5 0 0 0-.081-.587h-3.306q.034.289.04.587t.005.596v.466q0 .236-.025.467h-1.475v-.758q0-.358-.013-.696a10 10 0 0 0-.047-.662H9.912a10 10 0 0 0-.048.662q-.012.338-.012.696v.758H8.377a4 4 0 0 1-.025-.467V12q0-.298.005-.596.004-.298.04-.587H5.1q-.06.289-.082.587a8 8 0 0 0-.01 1.062q.014.236.053.467zm2-3.616h3.017q.23-1.344.63-2.322a7 7 0 0 1 .953-1.678 6.34 6.34 0 0 0-2.771 1.416 6.6 6.6 0 0 0-1.829 2.584m4.573 0h3.762a12.3 12.3 0 0 0-.673-2.249A7 7 0 0 0 12 5.096a7.3 7.3 0 0 0-1.21 1.977q-.445 1.083-.67 2.244m5.333 0h3.027a6.4 6.4 0 0 0-1.856-2.59 6.56 6.56 0 0 0-2.808-1.41q.57.74.99 1.718.418.976.647 2.282M11.25 20.5v-.75q0-1.307-.918-2.216t-2.226-.909H2.5v-1.5h5.606q1.209 0 2.233.568A4.6 4.6 0 0 1 12 17.26a4.6 4.6 0 0 1 1.662-1.567 4.5 4.5 0 0 1 2.222-.568H21.5v1.5h-5.616q-1.306 0-2.22.909-.914.908-.914 2.216v.75z"/></svg>