<svg xmlns="http://www.w3.org/2000/svg" width="24" height="24" viewBox="0 0 24 24" fill='currentColor'><path d="M10.525 12.5q-.56 0-.922-.424a1.16 1.16 0 0 1-.264-.99l.252-1.55q.161-.891.844-1.464a2.37 2.37 0 0 1 1.567-.572q.906 0 1.588.572.683.573.845 1.465l.252 1.55q.096.565-.265.989-.36.424-.922.424zm-7.097.83a1.47 1.47 0 0 1-.848-.189q-.358-.214-.466-.666a1 1 0 0 1-.02-.387q.03-.192.11-.366 0 .021-.025-.087-.04-.05-.212-.514a.85.85 0 0 1 .066-.494q.106-.233.277-.402.01 0 .04-.04a1.07 1.07 0 0 1 .336-.684q.293-.278.716-.278.046 0 .408.081l.065-.015a.65.65 0 0 1 .275-.166q.17-.055.36-.055.237 0 .42.072a.6.6 0 0 1 .29.232q.022 0 .033.011.01.011.032.011.292.025.52.184a.93.93 0 0 1 .335.436q.04.155.033.289a.9.9 0 0 1-.058.264q0 .015.025.09.156.157.237.33.08.175.08.37 0 .072-.12.449-.015.03 0 .09.01.03.04.342 0 .45-.376.771-.376.322-.913.322zm16.336.055q-.705 0-1.21-.504a1.65 1.65 0 0 1-.506-1.212q0-.258.075-.48.075-.224.202-.437l-.6-.53q-.216-.17-.076-.427.14-.256.397-.256h1.716q.707 0 1.208.501.501.503.501 1.206v.427q0 .7-.502 1.206a1.64 1.64 0 0 1-1.205.506M.5 17.788V16.57q0-1.013 1.046-1.647 1.046-.633 2.714-.633.306 0 .586.017t.537.067a3.64 3.64 0 0 0-.575 2.005v1.41zm6 0v-1.375q0-1.432 1.525-2.297t3.978-.866q2.476 0 3.986.866 1.511.864 1.511 2.297v1.375zm13.25-3.5q1.687 0 2.719.634 1.03.634 1.031 1.647v1.22h-4.308v-1.411q0-.564-.133-1.063a3.6 3.6 0 0 0-.401-.942q.255-.05.53-.067a9 9 0 0 1 .562-.017"/></svg>