<svg xmlns="http://www.w3.org/2000/svg" width="24" height="24" viewBox="0 0 24 24" fill='currentColor'><path d="M.5 17.788V16.57q0-.998 1.042-1.64 1.043-.64 2.718-.64.276 0 .557.017.28.017.566.067a3.73 3.73 0 0 0-.575 2.002v1.413zm6 0v-1.375q0-.702.394-1.283.394-.582 1.137-1.015t1.754-.649a10.6 10.6 0 0 1 2.211-.216q1.223 0 2.235.216t1.754.65 1.128 1.014q.387.58.387 1.283v1.375zm12.692 0v-1.41q0-.564-.133-1.064a3.6 3.6 0 0 0-.401-.941 5 5 0 0 1 .562-.067q.27-.018.53-.018 1.675 0 2.712.634 1.038.633 1.038 1.647v1.22zm-14.935-4.47q-.707 0-1.208-.504a1.65 1.65 0 0 1-.501-1.208q0-.716.503-1.209a1.66 1.66 0 0 1 1.209-.493q.715 0 1.213.493.498.494.498 1.212 0 .696-.493 1.202a1.64 1.64 0 0 1-1.221.506m15.493 0q-.7 0-1.206-.507a1.64 1.64 0 0 1-.506-1.202q.001-.72.506-1.212.506-.493 1.208-.493.723 0 1.216.493.494.493.494 1.209 0 .705-.492 1.208a1.64 1.64 0 0 1-1.22.503m-7.746-.818a2.5 2.5 0 0 1-1.84-.757 2.5 2.5 0 0 1-.76-1.84q0-1.102.757-1.849A2.52 2.52 0 0 1 12 7.308q1.103 0 1.85.745.746.746.746 1.847 0 1.08-.745 1.84t-1.848.76"/></svg>