<svg xmlns="http://www.w3.org/2000/svg" width="24" height="24" viewBox="0 0 24 24" fill='currentColor'><path d="M12.025 21.3a338 338 0 0 1-4.89-4.998q-1.867-1.96-2.895-3.32t-1.384-2.36A6.3 6.3 0 0 1 2.5 8.5q0-2.194 1.528-3.722T7.75 3.25a5.62 5.62 0 0 1 3.762 1.436L9.914 10.25h3.028l-.802 8.221 2.956-9.721h-3.019l1.63-4.877q.577-.311 1.217-.467a5.5 5.5 0 0 1 1.307-.156q2.194 0 3.722 1.528Q21.48 6.307 21.48 8.5a6.2 6.2 0 0 1-.378 2.162q-.378 1.029-1.423 2.411t-2.89 3.325a379 379 0 0 1-4.765 4.902"/></svg>