<svg xmlns="http://www.w3.org/2000/svg" width="24" height="24" viewBox="0 0 24 24" fill='currentColor'><path d="M17.865 16.75v-3h-3v-1.5h3v-3h1.5v3h3v1.5h-3v3zM11 20.327l-2.165-1.946a112 112 0 0 1-3.444-3.246q-1.402-1.39-2.269-2.54-.866-1.149-1.244-2.16A5.9 5.9 0 0 1 1.5 8.35q0-2.129 1.436-3.557T6.5 3.366q1.31 0 2.475.604Q10.14 4.576 11 5.72q.86-1.144 2.025-1.75a5.3 5.3 0 0 1 2.475-.604q1.97 0 3.313 1.23 1.34 1.23 1.595 2.945a5 5 0 0 0-.852-.239 5 5 0 0 0-.895-.083q-2.409 0-4.102 1.681-1.695 1.68-1.694 4.1a5.62 5.62 0 0 0 1.74 4.085q-.503.453-1.203 1.078-.7.624-1.298 1.172z"/></svg>