<svg xmlns="http://www.w3.org/2000/svg" width="24" height="24" viewBox="0 0 24 24" fill='currentColor'><path d="M13 22.5q-1.614 0-2.557-1.376T9.5 18t.943-3.124T13 13.5t2.557 1.376T16.5 18t-.943 3.124T13 22.5m-8.473-.508-1.42-.456q.738-2.32 1.06-4.715a36 36 0 0 0 0-9.642 28 28 0 0 0-1.06-4.716l1.42-.455a29.3 29.3 0 0 1 1.12 4.93q.344 2.499.344 5.062t-.344 5.061a29.3 29.3 0 0 1-1.12 4.931m14.936 0a29.3 29.3 0 0 1-1.12-4.93A37 37 0 0 1 18 12q0-2.564.343-5.061a29.3 29.3 0 0 1 1.12-4.931l1.42.455a28 28 0 0 0-1.06 4.716 36 36 0 0 0 0 9.642 28 28 0 0 0 1.06 4.715zm-7.132-2.308q.177.162.414.157a.62.62 0 0 0 .424-.181q.33-.322.504-.755.173-.434.173-.905t-.17-.9a2.3 2.3 0 0 0-.492-.76.54.54 0 0 0-.401-.181.6.6 0 0 0-.427.157.55.55 0 0 0-.194.414.62.62 0 0 0 .153.44q.077.075.208.308.13.231.13.522t-.13.522a1.6 1.6 0 0 1-.207.309.57.57 0 0 0-.18.44q.008.252.195.413M11 10.5q-1.614 0-2.557-1.376T7.5 6t.943-3.124T11 1.5t2.557 1.376T14.5 6t-.943 3.124T11 10.5m.644-2.815a.55.55 0 0 0 .194-.415.62.62 0 0 0-.153-.44 1.4 1.4 0 0 1-.247-.385 1.13 1.13 0 0 1 0-.89q.093-.216.246-.386a.6.6 0 0 0 .172-.427.6.6 0 0 0-.187-.426.6.6 0 0 0-.419-.162.57.57 0 0 0-.42.177 2.25 2.25 0 0 0-.503.764q-.173.434-.173.905t.165.9.496.76a.6.6 0 0 0 .415.181.58.58 0 0 0 .414-.157"/></svg>