<svg xmlns="http://www.w3.org/2000/svg" width="24" height="24" viewBox="0 0 24 24" fill='currentColor'><path d="m15.3 16.344-4.05-4.05V7.25h1.5v4.456l3.594 3.594zm-11.902-.298a8.7 8.7 0 0 1-.587-1.606 10 10 0 0 1-.28-1.69h1.515q.066.66.237 1.3t.448 1.246zm-.867-4.796a9.6 9.6 0 0 1 .285-1.698q.219-.84.607-1.623l1.308.75q-.287.605-.453 1.25-.166.646-.232 1.321zm4.106 8.592a10 10 0 0 1-1.356-1.135q-.624-.626-1.133-1.359l1.308-.76a8 8 0 0 0 1.93 1.931zM5.48 7.387l-1.333-.75q.51-.734 1.133-1.351.623-.62 1.356-1.128l.75 1.323A8.5 8.5 0 0 0 5.48 7.387m5.769 14.082a9.6 9.6 0 0 1-1.698-.285 8.4 8.4 0 0 1-1.623-.607l.75-1.308q.605.286 1.25.453.646.166 1.321.232zM8.679 4.731l-.75-1.308a8.4 8.4 0 0 1 1.623-.607 9.6 9.6 0 0 1 1.698-.285v1.515q-.675.066-1.32.232t-1.251.453m4.071 16.738v-1.515q.675-.066 1.32-.232t1.251-.453l.75 1.308a8.4 8.4 0 0 1-1.623.607 9.6 9.6 0 0 1-1.698.285m2.571-16.738a7 7 0 0 0-1.25-.453 8.6 8.6 0 0 0-1.321-.232V2.531a9.6 9.6 0 0 1 1.698.285 8.4 8.4 0 0 1 1.623.607zm2.042 15.111-.75-1.323a8.5 8.5 0 0 0 1.906-1.905l1.323.75q-.51.732-1.127 1.358-.619.625-1.352 1.12M18.52 7.377a8 8 0 0 0-.877-1.024 9 9 0 0 0-1.029-.872l.75-1.323q.734.495 1.352 1.108.617.613 1.112 1.346zm1.435 3.873a8 8 0 0 0-.237-1.32 7.6 7.6 0 0 0-.457-1.26l1.317-.766q.373.798.6 1.638t.292 1.708zm.623 4.821-1.308-.75q.286-.605.453-1.25.166-.645.232-1.321h1.515a9.6 9.6 0 0 1-.285 1.698 8.4 8.4 0 0 1-.607 1.623"/></svg>