<svg xmlns="http://www.w3.org/2000/svg" width="24" height="24" viewBox="0 0 24 24" fill='currentColor'><path d="M5.362 10.154h1.307v-3.5a.65.65 0 0 0-.18-.468A.63.63 0 0 0 6.017 6a.64.64 0 0 0-.654.654zM6.01 19.5q-1.678 0-2.856-1.17t-1.178-2.868q0-1.108.516-1.984a4.1 4.1 0 0 1 1.369-1.409V6.654q0-.904.629-1.53.628-.624 1.525-.624.915 0 1.534.625.62.624.62 1.529v5.415a4.1 4.1 0 0 1 1.363 1.416q.52.882.52 1.986 0 1.674-1.182 2.851T6.011 19.5m7.391-4.596a6.3 6.3 0 0 1-1.883-1.976q-.75-1.218-.75-2.793 0-2.348 1.643-3.991t3.99-1.644 3.992 1.644 1.645 3.99q0 1.576-.75 2.794a6.3 6.3 0 0 1-1.883 1.976zm3.002 4.596q-.562 0-.983-.421a1.35 1.35 0 0 1-.42-.983h2.807q0 .562-.421.983-.422.42-.983.421m-2.712-2.096v-1.5h5.423v1.5z"/></svg>