<svg xmlns="http://www.w3.org/2000/svg" width="24" height="24" viewBox="0 0 24 24" fill='currentColor'><path d="M9.05 21.5q-1.064 0-1.802-.735a2.48 2.48 0 0 1-.544-2.757q.194-.454.552-.812l2.269-2.229v-4.063a1.2 1.2 0 0 0-.353-.796 5.3 5.3 0 0 0-.724-.608Q7.4 8.707 6.95 7.909a3.5 3.5 0 0 1-.45-1.745q0-1.545 1.12-2.604t2.736-1.06a3.4 3.4 0 0 1 1.788.49q.257.116.447.221.188.106.384.106.462 0 .952-.388.314-.189.623-.309.31-.12.656-.12.989 0 1.641.684.653.683.653 1.672 0 .498-.204.99a2.8 2.8 0 0 1-.602.898l-2.169 2.229v5.97l2.244 2.253a2.5 2.5 0 0 1 .74 1.779q0 1.063-.723 1.79-.723.725-1.786.725-.504 0-.958-.186a2.5 2.5 0 0 1-.811-.544 1.7 1.7 0 0 0-.551-.369 1.7 1.7 0 0 0-.655-.126q-.346 0-.655.126a1.7 1.7 0 0 0-.55.369 2.5 2.5 0 0 1-.812.548 2.4 2.4 0 0 1-.958.192"/></svg>