<svg xmlns="http://www.w3.org/2000/svg" width="24" height="24" viewBox="0 0 24 24" fill='currentColor'><path d="M3.5 20.5v-17H10V5H5v14h14v-5.677l1.5 1.5V20.5zm3.25-3.75 2.48-3.289 2 2.558 2.809-3.653 3.288 4.384zm14.665-3.812L18.296 9.82q-.515.36-1.053.52a4 4 0 0 1-1.174.161q-1.658 0-2.813-1.164T12.1 6.5q0-1.672 1.164-2.836Q14.426 2.5 16.1 2.5q1.672 0 2.836 1.164Q20.1 4.826 20.1 6.5q0 .636-.19 1.218a5 5 0 0 1-.51 1.097l3.07 3.07zM16.1 9q1.05 0 1.775-.725T18.6 6.5t-.725-1.775T16.1 4t-1.775.725T13.6 6.5t.725 1.775T16.1 9"/></svg>