<svg xmlns="http://www.w3.org/2000/svg" width="24" height="24" viewBox="0 0 24 24" fill='currentColor'><path d="M3 19.75q-.725 0-1.238-.512A1.7 1.7 0 0 1 1.25 18q0-.725.512-1.238A1.7 1.7 0 0 1 3 16.25q.175 0 .312.012a.6.6 0 0 1 .263.088l4.775-4.775a.6.6 0 0 1-.088-.263A4 4 0 0 1 8.25 11q0-.725.512-1.238A1.7 1.7 0 0 1 10 9.25q.725 0 1.238.512.512.513.512 1.238 0 .1-.1.55l2.8 2.8a.6.6 0 0 1 .25-.088 3 3 0 0 1 .3-.012 3 3 0 0 1 .3.012.6.6 0 0 1 .25.088l3.8-3.8a.6.6 0 0 1-.087-.25 3 3 0 0 1-.013-.3q0-.725.513-1.238A1.7 1.7 0 0 1 21 8.25q.725 0 1.238.512.512.513.512 1.238t-.512 1.238A1.7 1.7 0 0 1 21 11.75a3 3 0 0 1-.3-.012.6.6 0 0 1-.25-.088l-3.8 3.8q.075.125.088.25a3 3 0 0 1 .012.3q0 .725-.512 1.238A1.7 1.7 0 0 1 15 17.75q-.725 0-1.238-.512A1.7 1.7 0 0 1 13.25 16q0-.175.012-.312a.6.6 0 0 1 .088-.263l-2.775-2.775a.6.6 0 0 1-.263.088 4 4 0 0 1-.312.012q-.1 0-.55-.1l-4.8 4.8q.075.125.088.25a3 3 0 0 1 .012.3q0 .725-.513 1.238A1.7 1.7 0 0 1 3 19.75M4 9.575 3.5 8.5 2.425 8 3.5 7.5 4 6.425 4.5 7.5l1.075.5-1.075.5zM15 8.4l-.75-1.65L12.6 6l1.65-.75L15 3.6l.75 1.65L17.4 6l-1.65.75z"/></svg>