<svg xmlns="http://www.w3.org/2000/svg" width="24" height="24" viewBox="0 0 24 24" fill='currentColor'><path d="M2.385 10.712 7.019 2.49l4.635 8.22zM7.029 20.76q-1.563 0-2.662-1.098T3.27 17a3.63 3.63 0 0 1 1.098-2.656Q5.465 13.24 7.03 13.24q1.553 0 2.657 1.103 1.103 1.102 1.103 2.656 0 1.564-1.103 2.662a3.63 3.63 0 0 1-2.657 1.098m6.23 0v-7.52h7.52v7.52zm3.76-10.048a276 276 0 0 1-2.041-1.698 16 16 0 0 1-1.432-1.34q-.565-.61-.844-1.18a2.7 2.7 0 0 1-.279-1.203q0-1.01.687-1.689.686-.679 1.726-.679.638 0 1.191.303.554.303.992.872a3.3 3.3 0 0 1 1.002-.867 2.45 2.45 0 0 1 1.19-.308q1.031 0 1.718.693.686.694.686 1.703 0 .626-.278 1.19-.28.564-.845 1.17-.566.606-1.431 1.335a278 278 0 0 1-2.042 1.698"/></svg>