<svg xmlns="http://www.w3.org/2000/svg" width="24" height="24" viewBox="0 0 24 24" fill='currentColor'><path d="M16 18.5a6 6 0 0 1-1.565-.205q-.749-.204-1.412-.58a9.8 9.8 0 0 0 1.957-2.685 6.8 6.8 0 0 0 .712-3.03 6.8 6.8 0 0 0-.712-3.03 9.8 9.8 0 0 0-1.957-2.685q.663-.375 1.412-.58Q15.186 5.5 16 5.5q2.714 0 4.607 1.893T22.5 12t-1.893 4.607T16 18.5m-4-1.404a6.4 6.4 0 0 1-1.827-2.205A6.3 6.3 0 0 1 9.5 12q0-1.57.673-2.891A6.4 6.4 0 0 1 12 6.904a6.4 6.4 0 0 1 1.827 2.205A6.3 6.3 0 0 1 14.5 12a6.3 6.3 0 0 1-.673 2.891A6.4 6.4 0 0 1 12 17.096M8 18.5q-2.714 0-4.607-1.893T1.5 12t1.893-4.607T8 5.5q.816 0 1.565.205t1.412.58A9.8 9.8 0 0 0 9.02 8.97 6.8 6.8 0 0 0 8.308 12q0 1.734.692 3.215a7.6 7.6 0 0 0 1.906 2.54A5.94 5.94 0 0 1 8 18.5"/></svg>