<svg xmlns="http://www.w3.org/2000/svg" width="24" height="24" viewBox="0 0 24 24" fill='currentColor'><path d="M6.596 22.808v-4.25h-.904q-.945 0-1.597-.653a2.17 2.17 0 0 1-.653-1.597q0-.945.653-1.597a2.17 2.17 0 0 1 1.597-.653h.904V12.75H3.442v-4.5h3.154V6.942h-.904q-.945 0-1.597-.652a2.17 2.17 0 0 1-.653-1.597q0-.944.653-1.598a2.17 2.17 0 0 1 1.597-.653h.904v-1.25H7.79v1.25h.903q.945 0 1.598.653.652.652.652 1.597 0 .944-.652 1.598a2.17 2.17 0 0 1-1.598.652H7.79V8.25h3.153v4.5H7.79v1.308h.903q.945 0 1.598.652.652.652.652 1.597t-.652 1.598a2.17 2.17 0 0 1-1.598.653H7.79v4.25zm9.616 0v-4.25h-.904q-.945 0-1.598-.653a2.17 2.17 0 0 1-.652-1.597q0-.945.652-1.597a2.17 2.17 0 0 1 1.598-.653h.904V12.75h-3.154v-4.5h3.154V6.942h-.904q-.945 0-1.598-.652a2.17 2.17 0 0 1-.652-1.597q0-.944.652-1.598a2.17 2.17 0 0 1 1.598-.653h.904v-1.25h1.192v1.25h.904q.945 0 1.597.653.653.652.653 1.597 0 .944-.653 1.598a2.17 2.17 0 0 1-1.597.652h-.904V8.25h3.154v4.5h-3.154v1.308h.904q.945 0 1.597.652.653.652.653 1.597t-.653 1.598a2.17 2.17 0 0 1-1.597.653h-.904v4.25z"/></svg>