<svg xmlns="http://www.w3.org/2000/svg" width="24" height="24" viewBox="0 0 24 24" fill='currentColor'><path d="m1.65 19.5 3.163-6.21q.23-.45.647-.716.419-.267.938-.267.542 0 .995.283t.657.802l.598 1.439q.117.274.457.252.338-.023.436-.297l2.12-6.925q.331-1.095 1.247-1.747a3.45 3.45 0 0 1 2.053-.653q1.116 0 2.016.64.9.641 1.246 1.695L22.375 19.5zm4.417-9.548q-1.134 0-1.937-.808-.803-.809-.803-1.923 0-1.144.803-1.938a2.66 2.66 0 0 1 1.937-.793q1.133 0 1.928.793.794.795.794 1.937 0 1.12-.794 1.926a2.6 2.6 0 0 1-1.928.806"/></svg>