<svg xmlns="http://www.w3.org/2000/svg" width="24" height="24" viewBox="0 0 24 24" fill='currentColor'><path d="M2.844 17.606a2.3 2.3 0 0 0-.347-.36 5 5 0 0 0-.403-.3 5.96 5.96 0 0 0 1.421-2.253 7.9 7.9 0 0 0 .456-2.653v-1.852h7.433v3.57H4.838a9 9 0 0 1-.636 2.142 4.3 4.3 0 0 1-1.358 1.706m2.12-4.672h5.448v-1.923H4.963zm-2.476-1.978a2.7 2.7 0 0 0-.55-.79q1.488-.65 2.783-1.581a14.3 14.3 0 0 0 2.377-2.152h1.013a12.7 12.7 0 0 0 2.53 2.019q1.384.838 2.855 1.563a5 5 0 0 0-.345.427 2.5 2.5 0 0 0-.264.467 45 45 0 0 1-2.769-1.581A13.2 13.2 0 0 1 7.65 7.356q-1.065 1.2-2.373 2.095a15 15 0 0 1-2.789 1.505m2.425 6.505V14.27h6.808v3.192h-.946v-2.323H5.859v2.323zm.508-7.815v-.823h4.629v.823zm-.925 2.715v-.792h6.483v.792zm.767 4.725v-.853h5.858v.853zm12.008-1.032q.749 0 1.488-.373a4.8 4.8 0 0 0 1.366-1.05v-2.997q-.633.095-1.163.219-.531.123-1.043.278-1.21.388-1.808.976-.596.587-.596 1.354 0 .737.48 1.165.477.428 1.276.428m-.354 1.296q-1.328 0-2.115-.774t-.787-2.078q0-1.224.816-2.038.815-.816 2.553-1.335.518-.15 1.2-.285.684-.134 1.541-.273v-.125q-.03-1.29-.535-1.914t-1.632-.624q-.669 0-1.326.237-.657.238-1.532.79l-.617-1.083a6.8 6.8 0 0 1 1.779-.916 6 6 0 0 1 1.988-.34q1.68 0 2.527 1.047.848 1.048.848 3.003v6.483h-1.262l-.13-1.212q-.729.673-1.581 1.055a4.2 4.2 0 0 1-1.735.382"/></svg>