<svg xmlns="http://www.w3.org/2000/svg" width="24" height="24" viewBox="0 0 24 24" fill='currentColor'><path d="M17.271 16.054q.749 0 1.488-.374a4.8 4.8 0 0 0 1.366-1.05v-2.996q-.633.095-1.163.218-.531.125-1.043.278-1.211.39-1.807.976-.597.588-.597 1.355 0 .737.48 1.165.478.428 1.276.428m-.354 1.296q-1.328 0-2.115-.774-.786-.776-.786-2.078 0-1.223.815-2.039.815-.814 2.554-1.335.518-.15 1.2-.284t1.54-.273v-.125q-.03-1.29-.535-1.915-.506-.624-1.632-.624-.669 0-1.326.238-.657.237-1.532.79l-.617-1.083a6.8 6.8 0 0 1 1.779-.917 6 6 0 0 1 1.988-.34q1.68 0 2.527 1.048.848 1.047.848 3.003v6.483h-1.261l-.131-1.212q-.73.673-1.58 1.055a4.2 4.2 0 0 1-1.736.381m-14.263.15a10 10 0 0 0-.388-.474 1.8 1.8 0 0 0-.333-.298q1.795-.796 2.92-2.149t1.636-3.526H2.196v-.982H6.68q.12-.76.179-1.6.06-.84.06-1.771h1.038q0 .93-.052 1.763a15 15 0 0 1-.187 1.608h5.012v.982H8.15q.668 2.054 1.903 3.492 1.234 1.437 2.86 2.106-.2.19-.36.368a4 4 0 0 0-.356.48q-1.623-.738-2.862-2.2-1.239-1.461-1.98-3.54-.59 2.094-1.759 3.507-1.167 1.412-2.941 2.234"/></svg>