<svg xmlns="http://www.w3.org/2000/svg" width="24" height="24" viewBox="0 0 24 24" fill='currentColor'><path d="M13.913 21.5a7.2 7.2 0 0 1-2.54-.455 8.3 8.3 0 0 1-2.263-1.283l-2.033 2.042-1.054-1.054 2.042-2.033a8 8 0 0 1-1.288-2.262q-.45-1.218-.45-2.543 0-3.266 2.264-5.425 2.265-2.16 5.322-2.16H21.5v7.587q0 1.463-.559 2.84a7.8 7.8 0 0 1-1.666 2.521 7.8 7.8 0 0 1-2.52 1.666 7.5 7.5 0 0 1-2.842.559M5.76 10.02q0-1.776 1.242-3.018t3.017-1.242q-1.775 0-3.017-1.243Q5.76 3.275 5.76 1.5q0 1.775-1.243 3.017Q3.275 5.76 1.5 5.76q1.775 0 3.017 1.242t1.243 3.017m4.41 8.707 5.951-5.967-1.054-1.054-5.952 5.952z"/></svg>