<svg xmlns="http://www.w3.org/2000/svg" width="24" height="24" viewBox="0 0 24 24" fill='currentColor'><path d="M12 21.808a13 13 0 0 0-3.923-2.384A13.8 13.8 0 0 0 3.5 18.5V8.327A12.5 12.5 0 0 1 8.105 9.33 13.5 13.5 0 0 1 12 11.838a13.5 13.5 0 0 1 3.895-2.507A12.5 12.5 0 0 1 20.5 8.327V18.5q-2.412.077-4.585.924A13 13 0 0 0 12 21.808m0-13.02q-1.497 0-2.556-1.06a3.48 3.48 0 0 1-1.06-2.555q0-1.496 1.06-2.556A3.48 3.48 0 0 1 12 1.557q1.497 0 2.556 1.06a3.48 3.48 0 0 1 1.06 2.556q0 1.496-1.06 2.556A3.48 3.48 0 0 1 12 8.789"/></svg>