<svg xmlns="http://www.w3.org/2000/svg" width="24" height="24" viewBox="0 0 24 24" fill='currentColor'><path d="M12 10.298q.973 0 1.636-.662.662-.663.662-1.636t-.662-1.635T12 5.702t-1.636.663Q9.702 7.026 9.702 8q0 .973.662 1.636.663.662 1.636.662m0 4a2.68 2.68 0 0 1-1.585-.499 2.67 2.67 0 0 1-.998-1.335q-.124.029-.249.04a3 3 0 0 1-.258.013 2.65 2.65 0 0 1-1.942-.8 2.63 2.63 0 0 1-.804-1.936q0-.486.18-.936.18-.448.5-.845a3.4 3.4 0 0 1-.48-.845 2.6 2.6 0 0 1-.175-.936q0-1.136.792-1.936a2.6 2.6 0 0 1 1.929-.8q.135 0 .258.012.125.014.259.032.293-.827.993-1.326A2.66 2.66 0 0 1 12 1.702q.88 0 1.58.5.7.498.993 1.325a6 6 0 0 1 .259-.032q.124-.012.258-.012 1.137 0 1.93.8a2.65 2.65 0 0 1 .791 1.936q0 .487-.167.94a2.9 2.9 0 0 1-.488.841 3.4 3.4 0 0 1 .48.845q.175.45.175.936a2.65 2.65 0 0 1-.792 1.936q-.791.8-1.929.8a2.6 2.6 0 0 1-.527-.053 2.63 2.63 0 0 1-.983 1.335 2.66 2.66 0 0 1-1.58.5m0 7.125q0-1.629.674-3.117a8.84 8.84 0 0 1 4.44-4.44 7.5 7.5 0 0 1 3.117-.674 7.5 7.5 0 0 1-.674 3.118 8.84 8.84 0 0 1-4.44 4.44 7.5 7.5 0 0 1-3.117.673m0 0a7.5 7.5 0 0 0-.674-3.117 8.84 8.84 0 0 0-4.44-4.44 7.5 7.5 0 0 0-3.117-.674q0 1.63.674 3.118a8.84 8.84 0 0 0 4.44 4.44q1.488.672 3.117.673"/></svg>