<svg xmlns="http://www.w3.org/2000/svg" width="24" height="24" viewBox="0 0 24 24" fill='currentColor'><path d="M8 18.5q-2.716 0-4.608-1.892Q1.5 14.718 1.5 12.003t1.892-4.609T8 5.5h8q2.716 0 4.608 1.891t1.892 4.607-1.892 4.609T16 18.5zm1-7.25q0 1.429.948 2.514A18 18 0 0 0 12 15.769a18 18 0 0 0 2.052-2.005A3.7 3.7 0 0 0 15 11.25q0-1.246-.876-2.123A2.9 2.9 0 0 0 12 8.25q-1.245 0-2.123.877A2.9 2.9 0 0 0 9 11.25m3 .75a.97.97 0 0 1-.713-.287A.97.97 0 0 1 11 11q0-.424.287-.713A.97.97 0 0 1 12 10q.424 0 .713.287.287.288.287.713 0 .424-.287.713A.97.97 0 0 1 12 12"/></svg>