<svg xmlns="http://www.w3.org/2000/svg" width="24" height="24" viewBox="0 0 24 24" fill='currentColor'><path d="M12 21.096 2.673 7.116A17.6 17.6 0 0 1 7.037 4.49Q9.402 3.5 12 3.5t4.962.977a16.9 16.9 0 0 1 4.365 2.638zM9.172 9.711q.52.001.886-.364.365-.364.365-.884t-.364-.886a1.2 1.2 0 0 0-.885-.365q-.52-.001-.886.364a1.2 1.2 0 0 0-.365.885q0 .52.364.885.365.366.885.365m2.827 5.039q.52 0 .885-.364.366-.365.366-.885t-.364-.885A1.2 1.2 0 0 0 12 12.25q-.52 0-.885.364a1.2 1.2 0 0 0-.366.885q0 .52.364.885.364.366.885.366"/></svg>