<svg xmlns="http://www.w3.org/2000/svg" width="24" height="24" viewBox="0 0 24 24" fill='currentColor'><path d="m13 17.212 3.27-3.328q.245-.246.384-.577.138-.331.138-.719 0-.744-.527-1.281a1.72 1.72 0 0 0-1.273-.538 1.9 1.9 0 0 0-.95.266q-.47.265-1.042.915-.635-.681-1.078-.93-.444-.25-.914-.25-.747 0-1.273.537a1.77 1.77 0 0 0-.527 1.281q0 .387.138.719.139.33.385.577zm-.088 5.036L2.5 11.846V2.5h9.346l10.396 10.427zM6.525 7.778q.523.001.888-.364.366-.365.366-.885 0-.525-.365-.892a1.2 1.2 0 0 0-.885-.368q-.525 0-.892.367-.368.366-.368.889t.367.888q.366.366.889.366"/></svg>