<svg xmlns="http://www.w3.org/2000/svg" width="24" height="24" viewBox="0 0 24 24" fill='currentColor'><path d="M19 8.135a2.65 2.65 0 0 1-1.947-.803 2.65 2.65 0 0 1-.803-1.947q0-1.145.803-1.947A2.65 2.65 0 0 1 19 2.635q1.145 0 1.947.803.803.803.803 1.947 0 1.143-.803 1.947A2.65 2.65 0 0 1 19 8.135M2.5 19.5v-15h11.83a4.3 4.3 0 0 0-.018 1.5q.107.78.445 1.464.338.682.854 1.217L12 11 4.154 6 4 7.442l8 5.116 4.794-3.06q.483.305 1.038.47.555.167 1.168.167.655 0 1.301-.188.645-.187 1.199-.562V19.5z"/></svg>