<svg xmlns="http://www.w3.org/2000/svg" width="24" height="24" viewBox="0 0 24 24" fill='currentColor'><path d="M2.5 3.5V12q0 2.448 1.126 4.46a9.2 9.2 0 0 0 2.999 3.242A6.7 6.7 0 0 1 5.257 17.6 6.7 6.7 0 0 1 4.75 15q0-1.581.695-3.434.696-1.855 2.201-4.206zm9.5.32q-2.979 3.585-4.364 6.469Q6.25 13.17 6.25 15q0 2.394 1.678 4.072T12 20.75t4.072-1.678T17.75 15q0-1.829-1.393-4.732T12 3.82m9.5-.32-5.146 3.86q1.496 2.342 2.196 4.2.7 1.86.7 3.44 0 1.39-.507 2.6a6.7 6.7 0 0 1-1.368 2.102 9.2 9.2 0 0 0 2.999-3.242Q21.5 14.448 21.5 12z"/></svg>