<svg xmlns="http://www.w3.org/2000/svg" width="24" height="24" viewBox="0 0 24 24" fill='currentColor'><path d="M10.658 21.404q-1.122 0-1.707-.67a2.25 2.25 0 0 1-.586-1.522q0-.573.25-1.118.248-.546.781-.897.56-.369.916-.973.357-.602.51-1.314a6 6 0 0 1-.39-.184 2 2 0 0 1-.367-.247l-2.319.835q-.396.14-.762.23a3 3 0 0 1-.753.09q-1.43 0-2.533-1.268t-1.102-3.708q0-1.12.666-1.707.667-.585 1.501-.585.583 0 1.136.249.553.25.905.782.369.56.972.916.603.357 1.314.51.085-.198.184-.39.099-.195.247-.367l-.835-2.32a7 7 0 0 1-.23-.757 3 3 0 0 1-.09-.733q0-1.56 1.35-2.61t3.626-1.05q1.122 0 1.707.667t.585 1.5q0 .565-.249 1.122a2.1 2.1 0 0 1-.781.91 2.9 2.9 0 0 0-.917.977 4.4 4.4 0 0 0-.51 1.319q.207.094.4.193.195.099.357.238l2.32-.86a6 6 0 0 1 .75-.218q.354-.078.74-.078 1.842 0 2.751 1.54t.909 3.437q0 1.12-.704 1.706t-1.564.586q-.547 0-1.068-.25a2.16 2.16 0 0 1-.872-.78 2.94 2.94 0 0 0-.972-.917 4.4 4.4 0 0 0-1.315-.51q-.084.197-.183.386-.1.19-.247.37l.834 2.32q.14.372.231.71.09.339.09.69.006 1.461-1.258 2.606t-3.718 1.144M12 13.654q.692 0 1.173-.48.48-.481.48-1.174 0-.691-.48-1.173-.48-.48-1.173-.48t-1.173.48-.48 1.173.48 1.173 1.173.481"/></svg>