<svg xmlns="http://www.w3.org/2000/svg" width="24" height="24" viewBox="0 0 24 24" fill='currentColor'><path d="M7.097 18.5a2.65 2.65 0 0 1-1.948-.802 2.65 2.65 0 0 1-.803-1.948h-2v-6.5h7.5v5h3.865l3.635-4.503v-2.9h-3v-1.5h4.5v4.907l-4.365 5.496H9.846q0 1.144-.802 1.947a2.65 2.65 0 0 1-1.947.803m0-1.5q.52 0 .885-.364.364-.364.364-.886h-2.5q0 .522.364.886.365.364.886.364m-1.75-9.153v-1.5h4.5v1.5zM18.904 18.5a2.65 2.65 0 0 1-1.948-.801 2.65 2.65 0 0 1-.803-1.948q0-1.144.801-1.948A2.65 2.65 0 0 1 18.903 13q1.145 0 1.948.802.803.803.803 1.947 0 1.146-.802 1.948a2.65 2.65 0 0 1-1.947.803m-.001-1.5q.52 0 .885-.364t.365-.886q0-.52-.365-.885a1.2 1.2 0 0 0-.885-.365q-.522 0-.886.365a1.2 1.2 0 0 0-.364.885q0 .522.364.886t.886.364"/></svg>