<svg xmlns="http://www.w3.org/2000/svg" width="24" height="24" viewBox="0 0 24 24" fill='currentColor'><path d="M2.5 21.5V16H4v4h4v1.5zM2.5 8V2.5H8V4H4v4zm8.404 10.63a6.6 6.6 0 0 1-3.656-1.878 6.6 6.6 0 0 1-1.879-3.656h1.5a5.1 5.1 0 0 0 1.415 2.62 5.1 5.1 0 0 0 2.62 1.415zm-5.535-7.726A6.63 6.63 0 0 1 7.248 7.24a6.5 6.5 0 0 1 3.656-1.872v1.5a5.1 5.1 0 0 0-2.62 1.415 5.1 5.1 0 0 0-1.415 2.62zM12 13.75q-.729 0-1.24-.51-.51-.511-.51-1.24 0-.744.51-1.247.511-.503 1.24-.503.744 0 1.247.503.503.502.503 1.247 0 .729-.503 1.24-.502.51-1.247.51m1.096 4.88v-1.5a5.1 5.1 0 0 0 2.62-1.414 5.1 5.1 0 0 0 1.415-2.62h1.5a6.5 6.5 0 0 1-1.872 3.656 6.63 6.63 0 0 1-3.663 1.879m4.035-7.726a5.1 5.1 0 0 0-1.415-2.62 5.1 5.1 0 0 0-2.62-1.415v-1.5a6.63 6.63 0 0 1 3.663 1.879 6.5 6.5 0 0 1 1.872 3.656zM16 21.5V20h4v-4h1.5v5.5zM20 8V4h-4V2.5h5.5V8z"/></svg>