<svg xmlns="http://www.w3.org/2000/svg" width="24" height="24" viewBox="0 0 24 24" fill='currentColor'><path d="M9.404 14.808h1.5V9.192h-1.5zm3.692 0h1.5V9.192h-1.5zM12.002 21.5a9.3 9.3 0 0 1-3.706-.747 9.6 9.6 0 0 1-3.016-2.026 9.6 9.6 0 0 1-2.032-3.009A9.2 9.2 0 0 1 2.5 12.02q0-.99.196-1.944.196-.955.573-1.864l1.165 1.166q-.21.65-.322 1.303A8 8 0 0 0 4 12q0 3.35 2.325 5.675T12 20t5.675-2.325T20 12t-2.325-5.675T12 4q-.674 0-1.322.112a9 9 0 0 0-1.282.322l-1.15-1.15q.894-.381 1.803-.583a8.7 8.7 0 0 1 1.893-.201q1.98 0 3.723.744A9.6 9.6 0 0 1 18.7 5.276a9.7 9.7 0 0 1 2.046 3.02A9.2 9.2 0 0 1 21.5 12q0 1.97-.748 3.704a9.6 9.6 0 0 1-2.03 3.018 9.6 9.6 0 0 1-3.016 2.03 9.25 9.25 0 0 1-3.704.749M5.712 6.904q-.49 0-.842-.351a1.15 1.15 0 0 1-.35-.841q0-.49.35-.842.351-.35.841-.35t.842.35q.35.351.35.841t-.35.842q-.35.35-.841.35M6 12q0-2.5 1.75-4.25T12 6t4.25 1.75T18 12t-1.75 4.25T12 18t-4.25-1.75T6 12"/></svg>