<svg xmlns="http://www.w3.org/2000/svg" width="24" height="24" viewBox="0 0 24 24" fill='currentColor'><path d="m19.804 21.942-2.256-2.256a9.7 9.7 0 0 1-2.598 1.341A9.2 9.2 0 0 1 12 21.5a9.25 9.25 0 0 1-3.705-.748 9.6 9.6 0 0 1-3.016-2.03 9.6 9.6 0 0 1-2.03-3.017A9.25 9.25 0 0 1 2.5 12q0-1.548.473-2.95t1.34-2.598L2.058 4.196l1.069-1.069 17.746 17.746zm.18-4.788L6.847 4.016A9.7 9.7 0 0 1 9.29 2.89 9.4 9.4 0 0 1 12 2.5q1.972 0 3.705.748a9.6 9.6 0 0 1 3.016 2.03 9.6 9.6 0 0 1 2.03 3.017A9.25 9.25 0 0 1 21.5 12a9.4 9.4 0 0 1-.39 2.711 9.7 9.7 0 0 1-1.125 2.443"/></svg>