<svg xmlns="http://www.w3.org/2000/svg" width="24" height="24" viewBox="0 0 24 24" fill='currentColor'><path d="M5.192 18.5q-1.872 0-3.186-1.314Q.692 15.875.692 14t1.314-3.187T5.192 9.5h11.716l-2.5-2.5h-3.216V5.5h3.823l4.031 4.03q1.806.075 3.034 1.369 1.227 1.296 1.228 3.101 0 1.873-1.314 3.186-1.313 1.314-3.186 1.314-1.874 0-3.187-1.314-1.313-1.312-1.313-3.186 0-.614.207-1.18.206-.569.573-1.05h-.846l-2.98 2.98h-1.65a4.3 4.3 0 0 1-1.504 2.688Q6.858 18.5 5.192 18.5M18.808 17q1.25 0 2.125-.875A2.9 2.9 0 0 0 21.808 14q0-1.25-.875-2.125A2.9 2.9 0 0 0 18.808 11q-1.25 0-2.125.875A2.9 2.9 0 0 0 15.808 14q0 1.25.875 2.125a2.9 2.9 0 0 0 2.125.875M5.192 17q1.028 0 1.824-.632.795-.63 1.053-1.618H5.192v-1.5H8.07a2.97 2.97 0 0 0-1.053-1.618A2.85 2.85 0 0 0 5.192 11q-1.25 0-2.125.875A2.9 2.9 0 0 0 2.192 14q0 1.25.875 2.125A2.9 2.9 0 0 0 5.192 17"/></svg>