<svg xmlns="http://www.w3.org/2000/svg" width="24" height="24" viewBox="0 0 24 24" fill='currentColor'><path d="M10.048 21.51q-3.775-3.271-5.661-6.089Q2.5 12.604 2.5 10.248q0-3.462 2.24-5.605Q6.978 2.5 10.048 2.5t5.309 2.143 2.239 5.605v.42q0 .22-.05.436a5.8 5.8 0 0 0-2.199 1.033 5.9 5.9 0 0 0-1.532 1.746 6.1 6.1 0 0 0-.753 2.195 5.7 5.7 0 0 0 .175 2.386q-.687.735-1.484 1.498-.797.76-1.705 1.547m0-6.76q1.266 0 2.299-.601 1.034-.6 1.665-1.591a6.2 6.2 0 0 0-1.836-.973 6.7 6.7 0 0 0-2.128-.335 6.7 6.7 0 0 0-2.128.335 6.1 6.1 0 0 0-1.835.973q.63.99 1.664 1.591 1.034.6 2.299.601m0-5q.73 0 1.24-.51.51-.511.51-1.24t-.51-1.24-1.24-.51q-.729 0-1.24.51-.51.511-.51 1.24t.51 1.24 1.24.51m8.99 10.75-1.053-1.044 1.825-1.85h-4.521v-1.5h4.52l-1.824-1.85 1.053-1.045 3.645 3.645z"/></svg>