<svg xmlns="http://www.w3.org/2000/svg" width="24" height="24" viewBox="0 0 24 24" fill='currentColor'><path d="M18 12.644 16.956 11.6l2.582-2.583a16.3 16.3 0 0 0-4.418.355q-2.17.478-4.476 2.738.993-2.656 3.47-3.917t5.374-1.26L16.957 4.4 18 3.356 22.644 8zm-6 9.029q-3.9-3.348-5.825-6.199T4.25 10.2q0-3.294 2.248-5.622T12 2.25q.903 0 1.793.188a6.4 6.4 0 0 1 1.69.61l-1.166 1.175a4.5 4.5 0 0 0-1.126-.364A6.6 6.6 0 0 0 12 3.75q-2.631 0-4.44 1.89T5.75 10.2q0 1.822 1.533 4.185Q8.815 16.746 12 19.662a41 41 0 0 0 2.702-2.707 23.4 23.4 0 0 0 2.1-2.684l1.085 1.085a28.5 28.5 0 0 1-2.634 3.231A41 41 0 0 1 12 21.673"/></svg>