<svg xmlns="http://www.w3.org/2000/svg" width="24" height="24" viewBox="0 0 24 24" fill='currentColor'><path d="M2.308 20.75V3.25h19.384v17.5zm1.5-1.5h2.5v-2.5h-2.5zm13.884 0h2.5v-2.5h-2.5zm-6.442-2.788h1.5v-5.558h-1.5zM3.808 15.25h2.5v-2.5h-2.5zm13.884 0h2.5v-2.5h-2.5zm-13.884-4h2.5v-2.5h-2.5zm13.884 0h2.5v-2.5h-2.5zM12 9q.343 0 .575-.232a.78.78 0 0 0 .233-.576.78.78 0 0 0-.232-.575.78.78 0 0 0-.576-.232.78.78 0 0 0-.575.232.78.78 0 0 0-.233.575q0 .344.232.576A.78.78 0 0 0 12 9M3.808 7.25h2.5v-2.5h-2.5zm13.884 0h2.5v-2.5h-2.5z"/></svg>