<svg xmlns="http://www.w3.org/2000/svg" width="24" height="24" viewBox="0 0 24 24" fill='currentColor'><path d="M11.999 18.75q1.97 0 3.36-1.39 1.392-1.389 1.391-3.36v-4q0-1.971-1.389-3.36-1.389-1.39-3.36-1.39t-3.36 1.39T7.25 10v4q0 1.971 1.389 3.36 1.389 1.39 3.36 1.39m0-1.5q-1.354 0-2.302-.948Q8.75 15.353 8.75 14v-4q0-1.354.948-2.302t2.303-.948 2.302.948T15.25 10v4q0 1.354-.948 2.302t-2.303.948M12 9.884a.85.85 0 0 0 .626-.258.85.85 0 0 0 .258-.626.85.85 0 0 0-.258-.626.85.85 0 0 0-.626-.258.85.85 0 0 0-.626.258.85.85 0 0 0-.258.626q0 .368.258.626a.85.85 0 0 0 .626.258M5.308 22.5a1.74 1.74 0 0 1-1.277-.531 1.74 1.74 0 0 1-.531-1.277V3.308q0-.746.531-1.277A1.74 1.74 0 0 1 5.308 1.5h13.384q.746 0 1.277.531t.531 1.277v17.384q0 .746-.531 1.277a1.74 1.74 0 0 1-1.277.531z"/></svg>