<svg xmlns="http://www.w3.org/2000/svg" width="24" height="24" viewBox="0 0 24 24" fill='currentColor'><path d="M8.865 21.26q-.613 0-1.056-.443a1.44 1.44 0 0 1-.444-1.057h3.885v-4.085q-2.475-.298-4.112-2.13Q5.5 11.712 5.5 9.222q0-2.716 1.891-4.608t4.607-1.892 4.609 1.892Q18.5 6.504 18.5 9.222q0 2.49-1.637 4.323t-4.113 2.13v4.085h3.884q0 .613-.443 1.057a1.44 1.44 0 0 1-1.056.443zM12 14.222q2.075 0 3.537-1.463Q17 11.297 17 9.222t-1.463-3.538T12 4.222 8.463 5.684Q7 7.146 7 9.222t1.463 3.537T12 14.222m0-3.289q-.706 0-1.209-.503a1.65 1.65 0 0 1-.502-1.208q0-.706.502-1.21A1.65 1.65 0 0 1 12 7.51q.706 0 1.209.503.502.503.502 1.209 0 .705-.502 1.208a1.65 1.65 0 0 1-1.209.503"/></svg>