<svg xmlns="http://www.w3.org/2000/svg" width="24" height="24" viewBox="0 0 24 24" fill='currentColor'><path d="M12 21.5a9.2 9.2 0 0 1-3.703-.749 9.6 9.6 0 0 1-3.016-2.032 9.6 9.6 0 0 1-2.032-3.016A9.2 9.2 0 0 1 2.5 12q0-1.97.749-3.703a9.6 9.6 0 0 1 2.032-3.016 9.6 9.6 0 0 1 3.016-2.032A9.2 9.2 0 0 1 12 2.5q1.946 0 3.666.74a9.7 9.7 0 0 1 3.006 2.013 9.5 9.5 0 0 1 2.038 2.993 9.4 9.4 0 0 1 .78 3.668 5.8 5.8 0 0 0-1.424-.706 4.9 4.9 0 0 0-1.566-.256q-.495 0-.959.085-.465.084-.899.253-.174-.996-.773-1.614-.597-.618-1.519-.618-1.095 0-1.72.843-.622.843-.622 2.099 0 .979.379 1.701.378.722 1.067 1.034a8 8 0 0 0-.16.723 4.5 4.5 0 0 0-.063.763q0 1.38.662 2.574a5.2 5.2 0 0 0 1.851 1.932 10 10 0 0 1-1.837.576A9.3 9.3 0 0 1 12 21.5m1.792-7.61q-.408-.22-.623-.71T12.954 12q0-.764.337-1.403.338-.64 1.059-.64.67 0 .999.548.329.547.387 1.228-.628.378-1.126.934-.496.555-.818 1.223m4.708 6.1q-1.566 0-2.667-1.101-1.102-1.102-1.102-2.668 0-1.565 1.102-2.667 1.101-1.102 2.667-1.102t2.667 1.102 1.102 2.667-1.102 2.668q-1.101 1.102-2.667 1.102M7.358 14.818h3.684v-.869h-2.44l-.016-.03q.443-.443.843-.821t.657-.636q.44-.44.664-.885.223-.445.223-.901 0-.636-.498-1.127-.498-.49-1.35-.49-.831 0-1.263.453t-.545.785l.86.343q.063-.147.272-.414t.651-.267q.526 0 .712.293.184.294.184.474 0 .228-.09.46-.089.232-.473.648a36 36 0 0 1-.842.848q-.6.588-1.233 1.213z"/></svg>