<svg xmlns="http://www.w3.org/2000/svg" width="24" height="24" viewBox="0 0 24 24" fill='currentColor'><path d="M7.358 14.817h3.684v-.869h-2.44l-.016-.03q.443-.443.843-.821t.657-.636q.44-.44.664-.885.223-.446.223-.896 0-.642-.498-1.132t-1.35-.49q-.831 0-1.263.453t-.545.785l.86.343q.063-.147.272-.414t.651-.267q.526 0 .712.293.184.294.184.474 0 .228-.09.46-.089.232-.473.648a36 36 0 0 1-.842.848q-.6.588-1.233 1.213zm6.99.125q1.098 0 1.721-.843.624-.843.623-2.099 0-1.256-.634-2.099-.633-.843-1.707-.843-1.097 0-1.72.843T12.008 12t.622 2.099 1.719.843m.002-.9q-.678 0-1.037-.573-.36-.572-.36-1.469 0-.764.338-1.403.338-.64 1.059-.64t1.059.64.337 1.403q0 .896-.359 1.47-.359.572-1.037.572M12.002 21.5a9.3 9.3 0 0 1-3.706-.748 9.6 9.6 0 0 1-3.016-2.03 9.6 9.6 0 0 1-2.032-3.016 9.25 9.25 0 0 1-.748-3.704q0-1.972.748-3.706a9.6 9.6 0 0 1 2.03-3.016 9.6 9.6 0 0 1 3.016-2.032 9.25 9.25 0 0 1 3.704-.748q1.972 0 3.706.748a9.6 9.6 0 0 1 3.017 2.03 9.6 9.6 0 0 1 2.03 3.016 9.25 9.25 0 0 1 .749 3.704q0 1.972-.748 3.706a9.6 9.6 0 0 1-2.03 3.017 9.6 9.6 0 0 1-3.016 2.03 9.25 9.25 0 0 1-3.704.749"/></svg>