<svg xmlns="http://www.w3.org/2000/svg" width="24" height="24" viewBox="0 0 24 24" fill='currentColor'><path d="M20.164 11.693q-.491 0-.842-.351a1.15 1.15 0 0 1-.35-.842V4.904q0-.49.35-.841.352-.351.841-.351.49 0 .842.35.35.352.35.842V10.5q0 .49-.35.842a1.15 1.15 0 0 1-.841.35m-10.164 0q-1.444 0-2.472-1.028T6.5 8.193 7.528 5.72Q8.557 4.692 10 4.693t2.472 1.028T13.5 8.193t-1.028 2.472T10 11.693m-7.5 7.615v-2.223q0-.743.396-1.364t1.07-.96q1.423-.69 2.94-1.072a12.7 12.7 0 0 1 3.096-.38q1.577 0 3.093.38t2.94 1.073q.672.336 1.069.959t.396 1.364v2.223z"/></svg>