<svg xmlns="http://www.w3.org/2000/svg" width="24" height="24" viewBox="0 0 24 24" fill='currentColor'><path d="M8.875 20.5q-2.25 0-3.813-1.562Q3.5 17.375 3.5 15.125v-6.25q0-2.25 1.562-3.813Q6.625 3.5 8.875 3.5h6.25q2.25 0 3.813 1.562Q20.5 6.625 20.5 8.875v6.25q0 2.25-1.562 3.813-1.563 1.562-3.813 1.562zM9.05 19a.9.9 0 0 1 .262-.663.87.87 0 0 1 .638-.262.9.9 0 0 1 .663.262.9.9 0 0 1 .262.663h2.25a.9.9 0 0 1 .262-.663.9.9 0 0 1 .663-.262.87.87 0 0 1 .638.262.9.9 0 0 1 .262.663q1.25 0 2.088-.488A3.8 3.8 0 0 0 18.4 17.15H17a.897.897 0 0 1-.925.925.896.896 0 0 1-.925-.925h-2.225a.897.897 0 0 1-.925.925.896.896 0 0 1-.925-.925H8.85a.897.897 0 0 1-.925.925A.896.896 0 0 1 7 17.15H5.6q.525.874 1.363 1.362Q7.8 19 9.05 19"/></svg>