<svg xmlns="http://www.w3.org/2000/svg" width="24" height="24" viewBox="0 0 24 24" fill='currentColor'><path d="M6.625 13.9h.6v-3.8H6.8l-1.125.8.325.475.625-.45zm1.425.025h2.5v-.575H8.9v-.05l.975-1q.3-.3.45-.6t.15-.6q0-.5-.338-.8-.337-.3-.862-.3-.45 0-.775.225-.326.225-.45.625l.525.25a.8.8 0 0 1 .275-.375.7.7 0 0 1 .425-.125q.275 0 .438.138a.48.48 0 0 1 .162.387q0 .3-.425.775l-1.4 1.45zm3.525-.025a.44.44 0 0 0 .325-.125.44.44 0 0 0 .125-.325.44.44 0 0 0-.125-.325.44.44 0 0 0-.325-.125.44.44 0 0 0-.325.125.44.44 0 0 0-.125.325.44.44 0 0 0 .125.325.44.44 0 0 0 .325.125m0-2.025a.44.44 0 0 0 .325-.125.44.44 0 0 0 .125-.325.44.44 0 0 0-.125-.325.44.44 0 0 0-.325-.125.44.44 0 0 0-.325.125.44.44 0 0 0-.125.325.44.44 0 0 0 .125.325.44.44 0 0 0 .325.125m2.3 2.125q.575 0 .925-.325.35-.326.35-.825a.96.96 0 0 0-.175-.588 1.1 1.1 0 0 0-.475-.362v-.025a.96.96 0 0 0 .387-.338.9.9 0 0 0 .138-.487q0-.425-.35-.738a1.23 1.23 0 0 0-.85-.312q-.425 0-.737.213a1.25 1.25 0 0 0-.463.587l.55.225a.8.8 0 0 1 .262-.338.66.66 0 0 1 .388-.112q.275 0 .425.138.15.137.15.337a.52.52 0 0 1-.187.412.68.68 0 0 1-.463.163h-.3v.575h.325q.35 0 .537.138.188.137.188.412a.6.6 0 0 1-.2.463.7.7 0 0 1-.5.187.62.62 0 0 1-.437-.15q-.163-.15-.263-.475l-.575.225q.15.476.5.738t.85.262M17 14q.55 0 .938-.375t.387-.925q0-.5-.325-.862a1.06 1.06 0 0 0-.825-.363 3 3 0 0 0-.4.1l-.025-.025.875-1.2-.5-.35-.975 1.4q-.3.425-.4.7t-.1.525q0 .575.388.975.387.4.962.4m-.025-.575q-.3 0-.513-.213a.7.7 0 0 1-.212-.512q0-.3.212-.512a.7.7 0 0 1 .513-.213q.3 0 .512.213a.7.7 0 0 1 .213.512q0 .3-.212.513a.7.7 0 0 1-.513.212M12.002 21.5a9.3 9.3 0 0 1-3.706-.748 9.6 9.6 0 0 1-3.016-2.03 9.6 9.6 0 0 1-2.032-3.016 9.25 9.25 0 0 1-.748-3.704q0-1.972.748-3.706a9.6 9.6 0 0 1 2.03-3.016 9.6 9.6 0 0 1 3.016-2.032 9.25 9.25 0 0 1 3.704-.748q1.972 0 3.706.748a9.6 9.6 0 0 1 3.017 2.03 9.6 9.6 0 0 1 2.03 3.016 9.25 9.25 0 0 1 .749 3.704q0 1.972-.748 3.706a9.6 9.6 0 0 1-2.03 3.017 9.6 9.6 0 0 1-3.016 2.03 9.25 9.25 0 0 1-3.704.749"/></svg>