<svg xmlns="http://www.w3.org/2000/svg" width="24" height="24" viewBox="0 0 24 24" fill='currentColor'><path d="m20.792 22.916-2.961-2.962v1.316H2.73V9.554h3.727l.46-.514L1.28 3.404l1.07-1.069 19.511 19.512zM9.972 12.095a.3.3 0 0 0-.073-.01h-.072q-1.338.184-2.217 1.163-.88.98-.88 2.348a3.43 3.43 0 0 0 1.041 2.518 3.43 3.43 0 0 0 2.518 1.04q1.368 0 2.363-.887a3.46 3.46 0 0 0 1.163-2.209q-.015-.008-.007-.057a.2.2 0 0 0-.002-.087zm.317 5.559a1.98 1.98 0 0 1-1.451-.607 1.98 1.98 0 0 1-.607-1.45q0-.855.607-1.457a2 2 0 0 1 1.45-.601q.855 0 1.456.601.603.603.602 1.456 0 .845-.602 1.451a1.98 1.98 0 0 1-1.455.607M17.846 15 11 8.154h1.854l1.275 1.4h3.717zm.923-4.673V6.75h-.807V2.54h3.297L19.9 5.58h1.437z"/></svg>