<svg xmlns="http://www.w3.org/2000/svg" width="24" height="24" viewBox="0 0 24 24" fill='currentColor'><path d="M6.48 21.173q-.705 0-1.208-.503a1.65 1.65 0 0 1-.503-1.209q0-.706.503-1.209a1.65 1.65 0 0 1 1.209-.502q.705 0 1.209.502.502.503.502 1.209T7.69 20.67a1.65 1.65 0 0 1-1.21.502m9.866-7.652-4.198-4.198 3.821-4.485q.428-.502 1.004-.795a2.7 2.7 0 0 1 1.244-.293q1.14 0 1.928.787t.788 1.932v.53h-1.5v-.534q0-.518-.35-.866a1.18 1.18 0 0 0-.866-.35q-.304 0-.58.134a1.6 1.6 0 0 0-.487.372l-.804.924zm-1.606 1.22 1.995 2.01H5.814l4.061-4.768L1.727 3.85l1.054-1.07 18.65 18.65-1.07 1.054-7.744-7.744zm.625 6.432q-.705 0-1.208-.502a1.65 1.65 0 0 1-.503-1.209q0-.706.503-1.209a1.65 1.65 0 0 1 1.208-.502q.706 0 1.21.502.502.503.502 1.209t-.503 1.209a1.65 1.65 0 0 1-1.209.502M11.083 8.258 7.169 4.344A8.5 8.5 0 0 1 8.688 3.9q.78-.151 1.581-.151 1.013 0 1.994.227a9 9 0 0 1 1.902.67z"/></svg>