<svg xmlns="http://www.w3.org/2000/svg" width="24" height="24" viewBox="0 0 24 24" fill='currentColor'><path d="m19.804 21.942-2.058-2.058v.616h-.977v-1.593l-2.994-2.994H11q-1.052 0-1.638-.904-.585-.903-.145-1.88l.562-1.212-7.721-7.72 1.069-1.07 17.746 17.746zm-1.535-6.504-2.14-2.14h.4a1.92 1.92 0 0 1 1.167.573q.496.496.573 1.167zm-3.973-3.973L10.091 7.26h3.369q1 0 1.52.777.52.778.099 1.726zM8.096 21.5q-1.911 0-3.254-1.357T3.5 16.875t1.352-3.264q1.352-1.35 3.254-1.351v1.51q-1.29 0-2.197.908A3 3 0 0 0 5 16.875q0 1.288.909 2.197a3 3 0 0 0 2.206.909q1.298 0 2.207-.91a3 3 0 0 0 .909-2.196h1.5q0 1.912-1.362 3.268Q10.01 21.5 8.096 21.5m7.288-14.846q-.747 0-1.273-.525a1.73 1.73 0 0 1-.525-1.273q0-.748.525-1.273.526-.525 1.273-.525.75 0 1.269.525.52.525.52 1.273t-.52 1.273-1.268.525"/></svg>