<svg xmlns="http://www.w3.org/2000/svg" width="24" height="24" viewBox="0 0 24 24" fill='currentColor'><path d="M14.827 18.77h1.423v-1.424h-1.423zm2.461 0h1.424v-1.424h-1.424zm2.462 0h1.423v-1.424H19.75zM18 22.557q-1.873 0-3.187-1.314Q13.5 19.93 13.5 18.057t1.313-3.187T18 13.558t3.186 1.313 1.314 3.187-1.314 3.186Q19.874 22.558 18 22.558M7.25 8.865h9.5v-1.5h-9.5zM11.598 20.5H3.5v-17h17v8.133a7 7 0 0 0-1.227-.386 6.1 6.1 0 0 0-2.021-.085q-.357.045-.713.144v-.056H7.25v1.5h6.356q-.604.473-1.072 1.074t-.792 1.31H7.25v1.5h4.017a6 6 0 0 0-.115.67 6 6 0 0 0-.036.696q0 .642.101 1.273t.381 1.227"/></svg>