<svg xmlns="http://www.w3.org/2000/svg" width="24" height="24" viewBox="0 0 24 24" fill='currentColor'><path d="M12 14.164q2.385 0 4.192-1.417Q18 11.331 18 9.087q0-.918-.324-1.717a4.5 4.5 0 0 0-.912-1.418A4.17 4.17 0 0 0 13.923 7.2q-1.173 1.17-1.173 2.858h-1.5q0-1.689-1.178-2.847-1.178-1.16-2.85-1.234a4.7 4.7 0 0 0-.898 1.406A4.4 4.4 0 0 0 6 9.086q0 2.245 1.808 3.661Q9.615 14.163 12 14.164M8.625 9.952a.84.84 0 0 1-.616-.249.84.84 0 0 1-.25-.616q0-.367.25-.617a.84.84 0 0 1 .616-.249q.367 0 .616.249.25.249.25.616t-.25.617a.84.84 0 0 1-.616.249m6.75 0a.84.84 0 0 1-.616-.249.84.84 0 0 1-.25-.616q0-.367.25-.617a.84.84 0 0 1 .616-.249q.367 0 .616.249a.84.84 0 0 1 .25.616q0 .367-.25.617a.84.84 0 0 1-.616.249M12 21.5q-3.14 0-5.32-2.205T4.5 13.942V9.086q0-2.87 2.246-4.728T12 2.5q2.94 0 5.22 1.835 2.28 1.836 2.28 4.751V20H18q-1.404 0-2.394-.99a3.26 3.26 0 0 1-.99-2.395V15.26q-.375.123-.75.204t-.75.129v1.024q0 2.026 1.428 3.454 1.43 1.43 3.456 1.429z"/></svg>