<svg xmlns="http://www.w3.org/2000/svg" width="24" height="24" viewBox="0 0 24 24" fill='currentColor'><path d="M11.292 18.808h1.366v-1.212a4.4 4.4 0 0 0 2.107-.874q.943-.717.943-2.172 0-1.05-.62-1.858-.619-.807-2.419-1.457-1.577-.54-2.094-.933-.517-.394-.517-1.102t.53-1.15 1.462-.442q.78 0 1.26.368.478.369.736.924l1.235-.496a3.26 3.26 0 0 0-1.022-1.367 2.8 2.8 0 0 0-1.551-.633V5.192h-1.366v1.212q-1.278.246-1.964 1.037-.686.792-.686 1.759 0 1.127.683 1.814.683.685 2.225 1.24 1.595.585 2.178 1.049.583.465.583 1.247 0 .94-.678 1.366a2.8 2.8 0 0 1-1.533.426q-.844 0-1.51-.507-.667-.509-1.025-1.485l-1.265.516q.388 1.113 1.116 1.768.729.657 1.826.912zM12 21.5a9.2 9.2 0 0 1-3.703-.749 9.6 9.6 0 0 1-3.016-2.032 9.6 9.6 0 0 1-2.032-3.016A9.2 9.2 0 0 1 2.5 12q0-1.97.749-3.703a9.6 9.6 0 0 1 2.032-3.016 9.6 9.6 0 0 1 3.016-2.032A9.2 9.2 0 0 1 12 2.5q1.97 0 3.703.749a9.6 9.6 0 0 1 3.016 2.032 9.6 9.6 0 0 1 2.032 3.016q.75 1.734.749 3.703 0 1.97-.749 3.703a9.6 9.6 0 0 1-2.032 3.016 9.6 9.6 0 0 1-3.016 2.032q-1.734.75-3.703.749"/></svg>