<svg xmlns="http://www.w3.org/2000/svg" width="24" height="24" viewBox="0 0 24 24" fill='currentColor'><path d="M2.25 18.75v-1.5h19.5v1.5zm.842-6.011-1.03-.596.907-1.596H1.154V9.354h1.815l-.907-1.546 1.03-.596L4 8.758l.908-1.546 1.03.596-.907 1.546h1.815v1.193H5.031l.908 1.596-1.031.596L4 11.143zm8 0-1.03-.596.907-1.596H9.154V9.354h1.815l-.907-1.546 1.03-.596L12 8.758l.908-1.546 1.03.596-.907 1.546h1.815v1.193h-1.815l.908 1.596-1.031.596L12 11.143zm8 0-1.03-.596.907-1.596h-1.815V9.354h1.815l-.907-1.546 1.03-.596L20 8.758l.908-1.546 1.03.596-.907 1.546h1.815v1.193h-1.815l.908 1.596-1.031.596L20 11.143z"/></svg>