<svg xmlns="http://www.w3.org/2000/svg" width="24" height="24" viewBox="0 0 24 24" fill='currentColor'><path d="M17.192 21.5q-1.872 0-3.186-1.314-1.314-1.312-1.314-3.186t1.314-3.187 3.186-1.313q1.874 0 3.187 1.313 1.313 1.314 1.313 3.187t-1.313 3.186-3.187 1.314m1.666-2.212.623-.623-1.846-1.848v-2.76h-.885v3.124zM3.5 20.5v-17h6.214q.207-.73.848-1.212.642-.48 1.438-.48.827 0 1.46.48.635.48.842 1.212H20.5v7.942a5 5 0 0 0-.72-.391 7 7 0 0 0-.78-.29V5h-2.5v2.615h-9V5H5v14h6.021q.127.415.294.785.168.37.416.715zm8.502-15.385a.87.87 0 0 0 .643-.26.88.88 0 0 0 .259-.645.87.87 0 0 0-.26-.644.88.88 0 0 0-.646-.258.87.87 0 0 0-.643.26.88.88 0 0 0-.259.645.87.87 0 0 0 .26.644.88.88 0 0 0 .646.258"/></svg>