<svg xmlns="http://www.w3.org/2000/svg" width="24" height="24" viewBox="0 0 24 24" fill='currentColor'><path d="M2.5 22.115v-1.5h19v1.5zm2-2.615v-5.346a15 15 0 0 1-1.29-3.084 11 11 0 0 1-.445-3.049q0-1.352.345-2.726t.917-2.924q.142-.39.467-.63t.74-.241q.554 0 .941.395.387.396.315.928l-.265 2.17q-.15 1.257.265 2.428t1.223 2.075A6.3 6.3 0 0 0 9.63 10.95a5.3 5.3 0 0 0 2.37.55q1.53 0 2.921.264 1.392.265 2.402.763 1.038.517 1.608 1.323t.569 2v3.65H9.77v-.666q0-.917.632-1.568a2.1 2.1 0 0 1 1.56-.65h3.692v-1.5H11.96q-1.539 0-2.616 1.089-1.076 1.09-1.076 2.63v.665zm7.5-9.23q-1.448 0-2.474-1.027A3.37 3.37 0 0 1 8.5 6.77q0-1.448 1.026-2.474A3.37 3.37 0 0 1 12 3.27q1.448 0 2.474 1.026A3.37 3.37 0 0 1 15.5 6.77q0 1.449-1.026 2.474A3.37 3.37 0 0 1 12 10.27"/></svg>