<svg xmlns="http://www.w3.org/2000/svg" width="24" height="24" viewBox="0 0 24 24" fill='currentColor'><path d="M10.923 5.619q.285-.06.538-.09.255-.03.539-.03t.539.03q.253.03.538.09v-.12q0-.457-.31-.767a1.04 1.04 0 0 0-.767-.31q-.457 0-.767.31t-.31.768zm6.73 16.727q-1.872 0-3.186-1.314-1.313-1.312-1.313-3.186t1.313-3.187 3.187-1.313 3.186 1.313q1.314 1.314 1.314 3.187t-1.314 3.186q-1.312 1.314-3.186 1.314m-.41-3.42h.822v-.211q0-.284.15-.483.15-.198.35-.398.35-.3.55-.594t.2-.779q0-.702-.463-1.14-.462-.437-1.194-.437-.56 0-1.023.338-.462.337-.662.893l.742.312q.094-.3.342-.525a.86.86 0 0 1 .597-.225q.393 0 .616.196t.222.589a.73.73 0 0 1-.16.48 6 6 0 0 1-.359.392q-.15.15-.303.31-.153.159-.278.343-.075.139-.112.292a1.4 1.4 0 0 0-.038.334zm.41 1.843a.57.57 0 0 0 .422-.171.57.57 0 0 0 .171-.421.57.57 0 0 0-.17-.422.57.57 0 0 0-.422-.17.57.57 0 0 0-.422.17.57.57 0 0 0-.17.422q0 .25.17.42a.57.57 0 0 0 .422.172m-12.153.73V12q0-2.028 1.098-3.612a6.5 6.5 0 0 1 2.825-2.322V5.5q0-1.074.74-1.826.74-.75 1.835-.751 1.095 0 1.837.751a2.5 2.5 0 0 1 .742 1.826v.565a6.4 6.4 0 0 1 2.606 2.022 6.34 6.34 0 0 1 1.267 3.097q-.345-.03-.75-.03t-.75.046a8 8 0 0 0-1.452.303q-.652.205-1.492.747H8.25v1.5h4.125a7.8 7.8 0 0 0-1.018 1.828q-.396 1.001-.396 2.224 0 .513.09 1.061T11.329 20q.12.384.317.784t.402.716z"/></svg>