<svg xmlns="http://www.w3.org/2000/svg" width="24" height="24" viewBox="0 0 24 24" fill='currentColor'><path d="M11 11.692q-1.444 0-2.472-1.028T7.5 8.192t1.028-2.471T11 4.692t2.472 1.029T14.5 8.192t-1.028 2.472T11 11.692m10.658 11.02-2.931-2.931q-.506.32-1.067.5-.562.18-1.158.18-1.655 0-2.81-1.155-1.153-1.157-1.153-2.808t1.156-2.806q1.155-1.153 2.807-1.153t2.806 1.155 1.154 2.806q0 .598-.181 1.16a4.7 4.7 0 0 1-.5 1.067l2.93 2.93zm-5.158-3.75q1.04 0 1.751-.71.71-.711.71-1.752t-.71-1.75q-.71-.712-1.751-.711-1.04 0-1.751.71t-.71 1.751.71 1.751 1.751.71m-5.052-5.635a5.97 5.97 0 0 0-.906 2.98 5.55 5.55 0 0 0 .733 3H3.5V17.1q0-.744.392-1.368a2.66 2.66 0 0 1 1.073-.97q1.179-.593 2.842-1.052 1.662-.46 3.641-.383"/></svg>