<svg xmlns="http://www.w3.org/2000/svg" width="24" height="24" viewBox="0 0 24 24" fill='currentColor'><path d="M12 21.5a9.2 9.2 0 0 1-3.703-.749 9.6 9.6 0 0 1-3.016-2.032 9.6 9.6 0 0 1-2.032-3.016A9.2 9.2 0 0 1 2.5 12q0-1.97.749-3.703a9.6 9.6 0 0 1 2.032-3.016 9.6 9.6 0 0 1 3.016-2.032A9.2 9.2 0 0 1 12 2.5q1.97 0 3.703.749a9.6 9.6 0 0 1 3.016 2.032 9.6 9.6 0 0 1 2.032 3.016q.75 1.734.749 3.703 0 1.97-.749 3.703a9.6 9.6 0 0 1-2.032 3.016 9.6 9.6 0 0 1-3.016 2.032q-1.734.75-3.703.749m-.75-1.546V18.53a6 6 0 0 1-1.789-.46 7 7 0 0 1-1.555-.923l-1.008 1.014a8 8 0 0 0 2.005 1.226 7.4 7.4 0 0 0 2.347.566m1.5 0a7.3 7.3 0 0 0 2.342-.567 8 8 0 0 0 2-1.226l-.998-1.013a7 7 0 0 1-1.556.922 6 6 0 0 1-1.788.46zM12 17.087q2.114 0 3.6-1.487t1.487-3.6T15.6 8.4 12 6.913 8.4 8.4 6.913 12 8.4 15.6q1.487 1.487 3.6 1.487m6.162.015a8 8 0 0 0 1.226-2.005 7.4 7.4 0 0 0 .566-2.347H18.53a6 6 0 0 1-.46 1.789 7 7 0 0 1-.923 1.555zm-12.323 0 1.013-1.023a7 7 0 0 1-.922-1.548 6 6 0 0 1-.46-1.781H4.045a7.4 7.4 0 0 0 .566 2.347 8 8 0 0 0 1.226 2.005M12 15.712 9.211 12 12 8.289 14.779 12zM4.046 11.25H5.47a6 6 0 0 1 .46-1.78q.366-.84.923-1.549L5.838 6.908a8 8 0 0 0-1.226 2 7.3 7.3 0 0 0-.566 2.342m14.485 0h1.423a7.2 7.2 0 0 0-.574-2.342 8.2 8.2 0 0 0-1.234-2l-.998.998q.558.71.922 1.555.365.847.46 1.789M7.92 6.852q.71-.558 1.548-.922a6 6 0 0 1 1.781-.46V4.045a7.4 7.4 0 0 0-2.347.566 8 8 0 0 0-2.005 1.226zm8.173 0 .998-.998a8.2 8.2 0 0 0-2-1.234 7.2 7.2 0 0 0-2.342-.574V5.47a6 6 0 0 1 1.789.46q.845.366 1.555.923"/></svg>