<svg xmlns="http://www.w3.org/2000/svg" width="24" height="24" viewBox="0 0 24 24" fill='currentColor'><path d="M2.5 7.02V2.5h4.52V4H4v3.02zm0 14.48v-4.52H4V20h3.02v1.5zm14.48 0V20H20v-3.02h1.5v4.52zM20 7.02V4h-3.02V2.5h4.52v4.52zm-2.779 10.2h1.356v1.356h-1.356zm0-2.712h1.356v1.356h-1.356zm-1.356 1.356h1.356v1.356h-1.356zm-1.356 1.356h1.356v1.356H14.51zm-1.355-1.356h1.355v1.356h-1.355zm2.711-2.711h1.356v1.355h-1.356zm-1.356 1.355h1.356v1.356H14.51zm-1.355-1.355h1.355v1.355h-1.355zm5.423-7.731v5.423h-5.423V5.423zm-7.73 7.73v5.424H5.422v-5.423zm0-7.73v5.423H5.422V5.423zM9.653 17.385v-3.039H6.616v3.038zm0-7.731V6.616H6.616v3.038zm7.73 0V6.616h-3.038v3.038z"/></svg>