<svg xmlns="http://www.w3.org/2000/svg" width="24" height="24" viewBox="0 0 24 24" fill='currentColor'><path d="M16.212 19.5h.884V16h-.884zm.442-4.414a.39.39 0 0 0 .311-.126.44.44 0 0 0-.003-.627.43.43 0 0 0-.62 0 .42.42 0 0 0-.13.307q0 .175.132.311a.42.42 0 0 0 .31.135m0 6.26q-1.873 0-3.187-1.313-1.313-1.314-1.313-3.187t1.313-3.186 3.187-1.314 3.186 1.314q1.314 1.312 1.314 3.186t-1.314 3.187q-1.312 1.313-3.186 1.313M12.5 8.5H17L12.5 4zm-9 13v-19h9.75l5.25 5.25v2.665a6 6 0 0 0-.918-.2 7 7 0 0 0-.928-.061q-1.435 0-2.688.562a6.7 6.7 0 0 0-2.164 1.534H7.25v1.5h3.483q-.303.57-.49 1.201-.19.63-.235 1.299H7.25v1.5h2.775q.157 1.048.625 2.014a6.6 6.6 0 0 0 1.215 1.736z"/></svg>