<svg xmlns="http://www.w3.org/2000/svg" width="24" height="24" viewBox="0 0 24 24" fill='currentColor'><path d="M6.536 15.09q-.3.05-.602.038a6 6 0 0 1-.626-.063 3.9 3.9 0 0 1-2.469-1.296 3.77 3.77 0 0 1-.993-2.604q0-1.612.923-2.536.924-.924 2.167-.527a2.1 2.1 0 0 1 .72-.73q.42-.243.923-.243 1.308 0 2.396 1.257t1.088 2.757-1.072 2.7q-1.07 1.201-2.455 1.247 1.172-.137 1.797-.794.627-.655.502-1.576a3 3 0 0 0-.078-.379 6 6 0 0 0-.144-.441 2.8 2.8 0 0 0 .31-.731q.102-.389.102-.783 0-1.114-.8-2.033t-1.79-.918q-.414 0-.702.172-.288.173-.54.61-.537-.28-.372-.19t.115.065a4.4 4.4 0 0 0-.464.993q-.168.523-.293 1.34-.306.321-.467.755-.16.434-.16.939 0 .735.369 1.367.369.633 1.014.977.322.322.73.487.406.165.871.14m1.756-1.705q0 .6-.541 1.005t-1.391.404q-.39 0-.746-.083a3 3 0 0 1-.678-.248q-.396-.42-.614-1.18t-.218-1.75q0-.275.017-.576t.062-.532q.111-.115.222-.201a1 1 0 0 1 .235-.136 2 2 0 0 0-.025.29v.287q0 1.266.457 1.968.457.701 1.27.701.441 0 .87-.193.428-.193.89-.59.119.255.155.452.035.196.035.382m-.19-.833a5 5 0 0 0-.893-1.372 4.4 4.4 0 0 0-1.253-1 1.7 1.7 0 0 0-.68-.207 1.3 1.3 0 0 0-.636.115q.05-.552.194-1.03.143-.48.358-.84.783.19 1.89 1.397 1.107 1.206 1.522 2.31a4 4 0 0 1-.231.336q-.115.15-.271.29m3.988 4.294v-4.229h-.898v-1.17h2.348v5.399zm.693-5.91a.82.82 0 0 1-.61-.255.86.86 0 0 1-.248-.618.83.83 0 0 1 .248-.61.83.83 0 0 1 .61-.247q.36 0 .61.248a.83.83 0 0 1 .247.61.86.86 0 0 1-.248.617.82.82 0 0 1-.61.255m2.488 5.91v-4.244h-.888v-1.18h.888v-.39q0-.854.416-1.295t1.25-.44q.33 0 .581.037.252.037.482.106v1.175q-.408-.13-.652-.1-.316 0-.475.163t-.158.49v.254H18v1.18h-1.254v4.244zm5.82 0q-.834 0-1.25-.428-.416-.429-.416-1.306v-2.495h-.823v-1.179h.827V9.296h1.47v2.145h1.255v1.176l-1.295.01v2.348q0 .322.151.495.152.172.476.172.135 0 .462-.065v1.198q-.255.046-.395.058a6 6 0 0 1-.462.013"/></svg>