<svg xmlns="http://www.w3.org/2000/svg" width="24" height="24" viewBox="0 0 24 24" fill='currentColor'><path d="m20.462 22.569-3.512-3.512-1.411 1.443H8.462L3.5 15.507V8.461L4.912 7.05 1.43 3.538l1.054-1.054 19.03 19.03zm-1.008-5.946L12.75 9.95V7.192h-1.5V8.45L7.396 4.565 8.462 3.5h7.077L20.5 8.46v7.046zM12 16.71a.78.78 0 0 0 .578-.234.79.79 0 0 0 .215-.715.2.2 0 0 0-.043-.085l-.523-.524a.2.2 0 0 0-.086-.043.6.6 0 0 0-.141-.014.78.78 0 0 0-.578.234.8.8 0 0 0-.23.573q0 .339.23.574a.78.78 0 0 0 .578.234"/></svg>