<svg xmlns="http://www.w3.org/2000/svg" width="24" height="24" viewBox="0 0 24 24" fill='currentColor'><path d="M11 21.5a8.4 8.4 0 0 1-2.232-.593 9.3 9.3 0 0 1-2.022-1.172L7.8 18.65q.725.526 1.538.85a7.3 7.3 0 0 0 1.662.45zm2 0v-1.53q2.6-.395 4.3-2.357T19 13.05q0-2.925-2.038-4.962T12 6.05h-.489l1.85 1.85-1.053 1.054L8.654 5.3l3.654-3.654 1.053 1.085-1.819 1.82H12q1.77 0 3.315.668a8.6 8.6 0 0 1 2.697 1.82 8.6 8.6 0 0 1 1.819 2.696q.669 1.546.669 3.315 0 3.232-2.136 5.631-2.135 2.398-5.364 2.82m-7.684-3.196a9.5 9.5 0 0 1-1.187-2.032 7.8 7.8 0 0 1-.579-2.222h1.53a7.3 7.3 0 0 0 1.32 3.2zM3.55 12.05q.15-1.197.596-2.282a7.8 7.8 0 0 1 1.17-1.972L6.4 8.85a7.3 7.3 0 0 0-1.32 3.2z"/></svg>