<svg xmlns="http://www.w3.org/2000/svg" width="24" height="24" viewBox="0 0 24 24" fill='currentColor'><path d="M11.25 18.75V5.25h1.5v13.5zm-10-3v-.373q0-.513.287-.932.285-.418.784-.64a6.4 6.4 0 0 1 1.29-.415q.668-.14 1.389-.14.72 0 1.39.14a6.4 6.4 0 0 1 1.289.416q.498.22.784.64.287.418.287.931v.373zm14 0v-.373q0-.513.287-.932.285-.418.784-.64a6.4 6.4 0 0 1 1.29-.415q.668-.14 1.389-.14.72 0 1.39.14a6.4 6.4 0 0 1 1.289.416q.498.22.785.64.286.418.286.931v.373zM5 11.75q-.729 0-1.24-.51-.51-.511-.51-1.24t.51-1.24T5 8.25t1.24.51.51 1.24-.51 1.24-1.24.51m14 0q-.729 0-1.24-.51-.51-.511-.51-1.24t.51-1.24T19 8.25t1.24.51.51 1.24-.51 1.24-1.24.51"/></svg>