<svg xmlns="http://www.w3.org/2000/svg" width="24" height="24" viewBox="0 0 24 24" fill='currentColor'><path d="M2.5 21.5v-19h19v19zM4 15.75V20h2.25v-2.212h-.942V15.75zm0-1.5h1.308v-1.058h.846V10.75q0-.561.393-.953.392-.393.953-.393h2q.561 0 .954.393t.392.953v2.442h.846v1.058H20V4H4zm4.502-5.846q-.56 0-.954-.392a1.3 1.3 0 0 1-.394-.952q0-.56.392-.954.391-.394.952-.394t.954.392q.394.39.394.952 0 .559-.392.954a1.3 1.3 0 0 1-.952.394M8.02 20h.962v-2.212H8.02zm2.731 0H20v-4.25h-8.308v2.038h-.942zm1.673-10.154q.03-.199.043-.353t.013-.318q0-.303-.127-.577-.128-.274-.486-.72a3.6 3.6 0 0 1-.534-.902q-.178-.451-.178-.926 0-.18.015-.364t.066-.532h1.182a4 4 0 0 0-.056.432q-.015.205-.015.464 0 .301.127.59.128.287.411.606.43.525.621.992.192.466.191.937 0 .217-.015.364-.016.146-.056.307zm2.5 0q.03-.199.043-.353t.013-.318q0-.303-.127-.577-.128-.274-.486-.72a3.6 3.6 0 0 1-.534-.902q-.178-.451-.178-.926 0-.18.015-.364t.066-.532h1.182a4 4 0 0 0-.056.432q-.015.205-.015.464 0 .301.127.59.128.287.411.606.43.525.621.992.192.466.191.937 0 .217-.015.364-.016.146-.056.307zm2.55 0q.03-.21.043-.36t.013-.311q0-.303-.127-.577t-.486-.72a3.6 3.6 0 0 1-.534-.902q-.178-.451-.178-.926 0-.18.015-.364t.066-.532h1.182a4 4 0 0 0-.055.432q-.015.205-.016.464 0 .301.127.59.127.287.412.606.43.525.62.992.191.466.191.937 0 .217-.015.364-.016.146-.056.307z"/></svg>