<svg xmlns="http://www.w3.org/2000/svg" width="24" height="24" viewBox="0 0 24 24" fill='currentColor'><path d="M13.116 22.5v-2.642l6.267-6.242 2.632 2.626-6.257 6.258zM6.385 9.885h8.211v-3.5H6.385zm12.998 7.323.925-.966-.925-.934-.95.95zM10.73 20.5H3.5v-17h13.289L20.5 7.212v1.947l-6.067 6.033q.048-.108.067-.192a1 1 0 0 0 .02-.211q0-1.049-.727-1.774a2.4 2.4 0 0 0-1.774-.726q-1.048 0-1.774.726a2.4 2.4 0 0 0-.726 1.774q0 1.048.726 1.774a2.4 2.4 0 0 0 1.774.726q.102 0 .2-.02a.7.7 0 0 0 .189-.067l-1.677 1.667z"/></svg>