<svg xmlns="http://www.w3.org/2000/svg" width="24" height="24" viewBox="0 0 24 24" fill='currentColor'><path d="M7.346 16.654V7.346h9.308v9.308zm1.5-1.5h6.308V8.846H8.846zm-1.5 5.346v-1.616h1.615V20.5zM3.5 5.116V3.5h1.616v1.616zm3.846 0V3.5h1.615v1.616zM11.192 20.5v-1.616h1.616V20.5zm0-15.384V3.5h1.616v1.616zm3.847 0V3.5h1.615v1.616zm0 15.384v-1.616h1.615V20.5zm3.845-15.384V3.5H20.5v1.616zM3.5 20.5v-1.616h1.616V20.5zm0-3.846v-1.615h1.616v1.615zm0-3.846v-1.616h1.616v1.616zm0-3.847V7.346h1.616v1.615zM18.885 20.5v-1.616H20.5V20.5zm0-3.846v-1.615H20.5v1.615zm0-3.846v-1.616H20.5v1.616zm0-3.847V7.346H20.5v1.615z"/></svg>