<svg xmlns="http://www.w3.org/2000/svg" width="24" height="24" viewBox="0 0 24 24" fill='currentColor'><path d="m18.275 8.675-1-2.175-2.175-1 2.175-1 1-2.175L19.3 4.5l2.15 1-2.15 1zm2 7.15-.725-1.575-1.6-.75 1.6-.75.725-1.575.75 1.575 1.575.75-1.575.75zM7.725 21.5l-.275-2.2a3 3 0 0 1-.612-.288 2 2 0 0 1-.488-.387l-2.05.9-2.05-3.6 1.775-1.3a4.5 4.5 0 0 1-.05-.625q0-.275.05-.625l-1.775-1.3 2.05-3.6 2.05.9q.176-.2.488-.388.312-.186.612-.287l.275-2.2h4.125l.275 2.2q.275.1.588.287.312.189.512.388l2.05-.9 2.05 3.6-1.775 1.3q.05.35.05.625 0 .276-.05.625l1.775 1.3-2.05 3.6-2.05-.9a2.6 2.6 0 0 1-.512.387 3.4 3.4 0 0 1-.588.288l-.275 2.2zm2.05-4.775q1.15 0 1.95-.8t.8-1.925-.8-1.925a2.65 2.65 0 0 0-1.95-.8q-1.125 0-1.925.8A2.62 2.62 0 0 0 7.05 14q0 1.125.8 1.925t1.925.8"/></svg>