<svg xmlns="http://www.w3.org/2000/svg" width="24" height="24" viewBox="0 0 24 24" fill='currentColor'><path d="M11.692 10.885a.85.85 0 0 1-.626-.259.85.85 0 0 1-.258-.626q0-.367.258-.626a.85.85 0 0 1 .626-.258q.368 0 .626.258a.85.85 0 0 1 .259.626.85.85 0 0 1-.259.626.85.85 0 0 1-.626.258m4 0a.85.85 0 0 1-.626-.259.85.85 0 0 1-.258-.626q0-.367.258-.626a.85.85 0 0 1 .626-.258q.368 0 .626.258a.85.85 0 0 1 .259.626.85.85 0 0 1-.259.626.85.85 0 0 1-.626.258m4 0a.85.85 0 0 1-.626-.259.85.85 0 0 1-.258-.626q0-.367.258-.626a.85.85 0 0 1 .626-.258q.368 0 .626.258a.85.85 0 0 1 .259.626.85.85 0 0 1-.259.626.85.85 0 0 1-.626.258m-.117 9.615q-2.913 0-5.803-1.297-2.889-1.297-5.283-3.691-2.385-2.395-3.687-5.286Q3.5 7.334 3.5 4.425V3.5h5.17l.886 4.554-2.773 2.692q.617 1.08 1.32 2.009.704.927 1.49 1.697.762.783 1.697 1.479t2.08 1.338l2.755-2.803 4.375.89V20.5z"/></svg>