<svg xmlns="http://www.w3.org/2000/svg" width="24" height="24" viewBox="0 0 24 24" fill='currentColor'><path d="M12 3.904a1.78 1.78 0 0 1-1.307-.54 1.78 1.78 0 0 1-.54-1.306q0-.767.54-1.307T12 .211t1.307.54.54 1.307-.54 1.307-1.307.54M9.404 18.943V6.712a42 42 0 0 1-3.04-.36A31 31 0 0 1 3.5 5.77l.365-1.5a28 28 0 0 0 3.982.719 38.6 38.6 0 0 0 8.306 0 28 28 0 0 0 3.982-.72l.365 1.5a31 31 0 0 1-2.863.582 42 42 0 0 1-3.041.36v12.232h-1.5v-6.02h-2.192v6.02zM8 23.885a.85.85 0 0 1-.626-.259.85.85 0 0 1-.258-.626q0-.366.258-.626A.85.85 0 0 1 8 22.116q.368 0 .626.258a.85.85 0 0 1 .258.626.85.85 0 0 1-.258.626.85.85 0 0 1-.626.259m4 0a.85.85 0 0 1-.626-.259.85.85 0 0 1-.258-.626q0-.366.258-.626a.85.85 0 0 1 .626-.258q.368 0 .626.258a.85.85 0 0 1 .258.626.85.85 0 0 1-.258.626.85.85 0 0 1-.626.259m4 0a.85.85 0 0 1-.626-.259.85.85 0 0 1-.258-.626q0-.366.258-.626a.85.85 0 0 1 .626-.258q.367 0 .626.258a.85.85 0 0 1 .258.626.85.85 0 0 1-.258.626.85.85 0 0 1-.626.259"/></svg>