<svg xmlns="http://www.w3.org/2000/svg" width="24" height="24" viewBox="0 0 24 24" fill='currentColor'><path d="M11.25 12V2.827h1.5V12zm.75 6.5q-3.138 0-5.32-2.18Q4.5 14.138 4.5 11q0-1.879.874-3.508a7.6 7.6 0 0 1 2.422-2.696l1.085 1.085a6.1 6.1 0 0 0-2.106 2.186A5.8 5.8 0 0 0 6 11q0 2.5 1.75 4.25T12 17t4.25-1.75T18 11q0-1.575-.765-2.942a5.8 5.8 0 0 0-2.116-2.177l1.085-1.085a7.95 7.95 0 0 1 2.412 2.71A7.2 7.2 0 0 1 19.5 11q0 3.138-2.18 5.32Q15.137 18.5 12 18.5m-4 5.385a.85.85 0 0 1-.626-.259.85.85 0 0 1-.258-.626q0-.367.258-.626A.85.85 0 0 1 8 22.116q.368 0 .626.258a.85.85 0 0 1 .258.626.85.85 0 0 1-.258.626.85.85 0 0 1-.626.259m4 0a.85.85 0 0 1-.626-.259.85.85 0 0 1-.258-.626q0-.367.258-.626a.85.85 0 0 1 .626-.258q.368 0 .626.258a.85.85 0 0 1 .258.626.85.85 0 0 1-.258.626.85.85 0 0 1-.626.259m4 0a.85.85 0 0 1-.626-.259.85.85 0 0 1-.258-.626q0-.367.258-.626a.85.85 0 0 1 .626-.258q.367 0 .626.258a.85.85 0 0 1 .258.626.85.85 0 0 1-.258.626.85.85 0 0 1-.626.259"/></svg>