<svg xmlns="http://www.w3.org/2000/svg" width="24" height="24" viewBox="0 0 24 24" fill='currentColor'><path d="M6.003 10.5q-1.866 0-3.185-1.316Q1.5 7.869 1.5 6.001q0-1.89 1.316-3.195Q4.131 1.5 5.999 1.5q1.89 0 3.195 1.304T10.5 5.997q0 1.866-1.304 3.185T6.003 10.5m8.497 12v-8h8v8zm2.975-14.906-9.88 9.856q.124.262.207.555t.083.61a2.43 2.43 0 0 1-.718 1.771q-.719.73-1.78.73a2.42 2.42 0 0 1-1.771-.73 2.4 2.4 0 0 1-.731-1.771q0-1.063.729-1.781a2.43 2.43 0 0 1 1.77-.718q.318 0 .61.082.295.082.556.208l9.856-9.881a3.6 3.6 0 0 1-.208-.543 2.1 2.1 0 0 1-.082-.597q0-1.063.729-1.781a2.43 2.43 0 0 1 1.771-.72q1.063 0 1.781.719.718.717.718 1.78 0 1.04-.718 1.77-.72.732-1.782.732-.315 0-.597-.083a3.6 3.6 0 0 1-.543-.208"/></svg>