<svg xmlns="http://www.w3.org/2000/svg" width="24" height="24" viewBox="0 0 24 24" fill='currentColor'><path d="M18 22.308V19.5h-2.808V18H18v-2.808h1.5V18h2.808v1.5H19.5v2.808zM9 3V1.5h6V3zm3 18.5a8.3 8.3 0 0 1-3.315-.67 8.53 8.53 0 0 1-4.523-4.53A8.3 8.3 0 0 1 3.5 13q0-1.755.67-3.3a8.6 8.6 0 0 1 1.826-2.704A8.6 8.6 0 0 1 8.7 5.17 8.2 8.2 0 0 1 12 4.5q1.575 0 2.933.525A9.1 9.1 0 0 1 17.446 6.5l1.392-1.392 1.054 1.054-1.361 1.392a9.6 9.6 0 0 1 1.456 2.56q.524 1.382.513 2.99a5.3 5.3 0 0 0-1.5-.248q-.057-2.861-2.093-4.859T12 6Q9.075 6 7.038 8.037T5 13t2.037 4.962T12 20q.246 0 .482-.012a4 4 0 0 0 .482-.053q.064.375.184.737.12.363.302.707a7 7 0 0 1-.725.093q-.358.028-.725.028m.865-2.44a5.9 5.9 0 0 1 .307-2.254 5.7 5.7 0 0 1 1.092-1.895 6 6 0 0 1 1.704-1.364 5.7 5.7 0 0 1 2.148-.655 9 9 0 0 0-.03-.446 5 5 0 0 0-.061-.446h-3.263l-4.035 6.977q.507.12 1.12.126.611.007 1.018-.043m-.942-7.944h5.89a6.1 6.1 0 0 0-1.395-2.363 5.9 5.9 0 0 0-2.26-1.484zm-1.6 1 2.96-5.093a5.9 5.9 0 0 0-2.745.032 6.2 6.2 0 0 0-2.43 1.224zM5.975 14h4.406L7.46 8.908a6 6 0 0 0-1.317 2.344A6 6 0 0 0 5.975 14m3.867 4.721 2.216-3.837H6.187a5.8 5.8 0 0 0 1.387 2.336 5.9 5.9 0 0 0 2.268 1.501"/></svg>