<svg xmlns="http://www.w3.org/2000/svg" width="24" height="24" viewBox="0 0 24 24" fill='currentColor'><path d="M4.5 14.5q-1.048 0-1.774-.726A2.4 2.4 0 0 1 2 12q0-1.048.726-1.774A2.4 2.4 0 0 1 4.5 9.5v-4h5q0-1.048.726-1.774A2.4 2.4 0 0 1 12 3q1.048 0 1.774.726T14.5 5.5h5v4q1.048 0 1.774.726T22 12t-.726 1.774a2.4 2.4 0 0 1-1.774.726v6h-15zm4.499-1.75q.52 0 .885-.364.366-.365.366-.885t-.364-.885A1.2 1.2 0 0 0 9 10.25q-.52 0-.885.364a1.2 1.2 0 0 0-.366.885q0 .52.364.885.365.366.885.366m6 0q.52 0 .885-.364.366-.365.366-.885t-.364-.885A1.2 1.2 0 0 0 15 10.25q-.52 0-.885.364a1.2 1.2 0 0 0-.366.885q0 .52.364.885.365.366.885.366m-6.749 4h7.5v-1.5h-7.5z"/></svg>