<svg xmlns="http://www.w3.org/2000/svg" width="24" height="24" viewBox="0 0 24 24" fill='currentColor'><path d="M7.475 20.5q-2.064 0-3.52-1.456T2.5 15.526q0-1.986 1.356-3.419t3.342-1.54q.096 0 .192.014.097.014.193.034L3.923 3.27h5.885L12 7.654l2.192-4.384h5.885l-3.635 7.284a1.6 1.6 0 0 1 .366-.038q1.98.123 3.336 1.556Q21.5 13.504 21.5 15.5q0 2.09-1.456 3.544Q18.588 20.5 16.5 20.5q-.255 0-.52-.022a2.7 2.7 0 0 1-.51-.091 4.42 4.42 0 0 0 1.904-2.044A6.6 6.6 0 0 0 18 15.5q0-2.512-1.743-4.257Q14.514 9.5 12 9.5t-4.257 1.743Q6 12.988 6 15.5q0 1.537.57 2.922a3.5 3.5 0 0 0 1.945 1.965 3 3 0 0 1-.515.091q-.262.022-.525.022M12 20q-1.875 0-3.187-1.312Q7.499 17.375 7.5 15.5q0-1.875 1.313-3.187Q10.125 11 12 11t3.188 1.313T16.5 15.5t-1.312 3.188T12 20m-1.706-1.98L12 16.725l1.706 1.294-.643-2.101 1.706-1.22h-2.102L12 12.481l-.667 2.217H9.23l1.706 1.22z"/></svg>