<svg xmlns="http://www.w3.org/2000/svg" width="24" height="24" viewBox="0 0 24 24" fill='currentColor'><path d="M3.346 4V2.5h2.856V4zm-.74 17.48h8.644v-3.73H3.348zM6.067 9.278 4.998 8.232l2.02-2.019 1.068 1.044zM3.652 16.25h7.598v-3.76H4.404zM12 7.01q-1.883 0-3.201-1.319t-1.318-3.2h9.038q0 1.881-1.318 3.2Q13.882 7.009 12 7.009m-.75 4.086V8.24h1.5v2.856zm1.5 10.385h8.635l-.743-3.731H12.75zm0-5.231h7.589l-.752-3.76H12.75zm5.202-6.964-2.014-2.029 1.045-1.044 2.038 2.004zM17.798 4V2.5h2.856V4z"/></svg>