<svg xmlns="http://www.w3.org/2000/svg" width="24" height="24" viewBox="0 0 24 24" fill='currentColor'><path d="M12 12.5q-1.443 0-2.472-1.028T8.5 9t1.028-2.472Q10.557 5.5 12 5.5q1.445 0 2.472 1.028Q15.5 7.556 15.5 9t-1.028 2.472T12 12.5m-7.5 7.615v-2.223a2.52 2.52 0 0 1 1.466-2.323q1.245-.621 2.788-1.038A12.4 12.4 0 0 1 12 14.115q1.704 0 3.246.416 1.542.417 2.789 1.038.691.336 1.079.951.386.615.386 1.372v2.223zM.975 5.317v-1.5a2.6 2.6 0 0 0 1.097-.225q.5-.225.89-.615t.603-.895q.212-.504.212-1.092h1.506q0 .895-.337 1.681a4.3 4.3 0 0 1-.925 1.375q-.589.588-1.371.93a4.15 4.15 0 0 1-1.675.341m0 3.698v-1.5q1.371 0 2.545-.513a6.5 6.5 0 0 0 2.051-1.406 6.8 6.8 0 0 0 1.39-2.072q.514-1.178.514-2.534H9q0 1.65-.625 3.113A8.07 8.07 0 0 1 4.1 8.39a7.8 7.8 0 0 1-3.125.625m22.025 0a7.8 7.8 0 0 1-3.109-.625 8.06 8.06 0 0 1-4.282-4.287A7.85 7.85 0 0 1 14.985.99h1.5q0 1.356.514 2.533a6.68 6.68 0 0 0 3.478 3.478A6.2 6.2 0 0 0 23 7.515zm0-3.698a4.2 4.2 0 0 1-1.68-.341 4.34 4.34 0 0 1-2.3-2.305 4.2 4.2 0 0 1-.337-1.68h1.5q0 .587.22 1.091t.61.895.895.615q.504.225 1.092.225z"/></svg>