<svg xmlns="http://www.w3.org/2000/svg" width="24" height="24" viewBox="0 0 24 24" fill='currentColor'><path d="M20.385 22.493 15.36 17.5H6.04L2.5 21.039V4.309h1.808l6.576 6.576H8.778L.854 2.962l1.054-1.054 19.53 19.531zm-.185-5.085-6.629-6.658h4.179v-1.5h-5.679L10.6 7.75h7.15v-1.5H9.971v.872L5.35 2.5H21.5v14.908zM7.077 13.885a.85.85 0 0 0 .626-.258.85.85 0 0 0 .259-.626.85.85 0 0 0-.259-.626.85.85 0 0 0-.626-.259.85.85 0 0 0-.626.258.85.85 0 0 0-.259.627q0 .366.259.626a.85.85 0 0 0 .626.258m0-3a.85.85 0 0 0 .626-.258.85.85 0 0 0 .259-.626.85.85 0 0 0-.259-.627.85.85 0 0 0-.626-.258.85.85 0 0 0-.626.258.85.85 0 0 0-.259.627q0 .366.259.626a.85.85 0 0 0 .626.258"/></svg>