<svg xmlns="http://www.w3.org/2000/svg" width="24" height="24" viewBox="0 0 24 24" fill='currentColor'><path d="M2.54 11.234a9.5 9.5 0 0 1 .516-2.504q.42-1.18 1.158-2.2A8.1 8.1 0 0 1 5.71 8.695q.592 1.235.729 2.54zm15.021 0q.137-1.304.703-2.512a7.3 7.3 0 0 1 1.523-2.147q.738 1.003 1.157 2.187t.515 2.472zm-13.347 6.19a8.3 8.3 0 0 1-1.148-2.17 10 10 0 0 1-.525-2.49h3.898a7.4 7.4 0 0 1-.73 2.513 8.4 8.4 0 0 1-1.495 2.147m15.573 0a7.3 7.3 0 0 1-1.523-2.147 7.8 7.8 0 0 1-.703-2.512h3.898a9.5 9.5 0 0 1-.515 2.472 8.4 8.4 0 0 1-1.157 2.187m-11.823-6.19a8.9 8.9 0 0 0-.88-3.171 9.9 9.9 0 0 0-1.928-2.654 9.4 9.4 0 0 1 2.737-1.973 9.6 9.6 0 0 1 3.342-.896v8.694zm4.801 0V2.54q1.785.152 3.342.896a9.4 9.4 0 0 1 2.737 1.973 8.7 8.7 0 0 0-1.941 2.632 9.2 9.2 0 0 0-.866 3.193zm-1.53 10.225a9.2 9.2 0 0 1-3.359-.913 9.7 9.7 0 0 1-2.72-1.99 9 9 0 0 0 1.941-2.615 9 9 0 0 0 .867-3.176h3.27zm1.53 0v-8.694h3.271a9.2 9.2 0 0 0 .867 3.198 8.7 8.7 0 0 0 1.941 2.627 9.4 9.4 0 0 1-2.737 1.973 9.6 9.6 0 0 1-3.342.896"/></svg>