<svg xmlns="http://www.w3.org/2000/svg" width="24" height="24" viewBox="0 0 24 24" fill='currentColor'><path d="M10.51 18.443q-2.26 0-3.851-1.592-1.592-1.59-1.592-3.85 0-.311.04-.621t.099-.557a.9.9 0 0 1-.262.066 3 3 0 0 1-.257.015q-.93 0-1.563-.636a2.12 2.12 0 0 1-.634-1.556q0-.921.606-1.557t1.531-.635q.757 0 1.348.433.59.434.788 1.101a5.5 5.5 0 0 1 1.71-1.094 5.3 5.3 0 0 1 2.036-.402h11v3h-5.557V13q0 2.268-1.588 3.855-1.587 1.587-3.855 1.587m-5.827-7.731q.424 0 .712-.288a.97.97 0 0 0 .288-.712.97.97 0 0 0-.288-.713.97.97 0 0 0-.712-.287.97.97 0 0 0-.713.287.97.97 0 0 0-.287.713q0 .424.287.712.288.288.713.288m5.828 4.096q.746 0 1.277-.531.53-.532.53-1.278t-.532-1.277a1.75 1.75 0 0 0-1.278-.53q-.747 0-1.276.532-.53.531-.53 1.278 0 .746.531 1.276.532.53 1.278.53"/></svg>