<svg xmlns="http://www.w3.org/2000/svg" width="24" height="24" viewBox="0 0 24 24" fill='currentColor'><path d="m16.51 19.5-.224-1.327a3.5 3.5 0 0 1-.673-.277 3 3 0 0 1-.6-.429l-1.267.44-.711-1.209 1.034-.846a2.74 2.74 0 0 1 0-1.53l-1.025-.866.712-1.21 1.258.45a2.7 2.7 0 0 1 .595-.424q.32-.166.678-.272l.223-1.327h1.423L18.146 12q.358.105.686.287.327.182.587.44l1.258-.48.712 1.24-1.026.865a2.7 2.7 0 0 1 0 1.5l1.035.846-.712 1.21-1.267-.44q-.285.257-.6.428a3.5 3.5 0 0 1-.673.277l-.213 1.327zm.701-2.51q.787 0 1.346-.558.559-.56.559-1.345 0-.787-.56-1.346a1.83 1.83 0 0 0-1.344-.558q-.787 0-1.346.558-.558.56-.558 1.345 0 .787.558 1.346.559.559 1.346.559M6.29 11.924h1.5v-1.5h-1.5zM2.5 19.5v-15h19v5.65a6.6 6.6 0 0 0-1.99-1.224 6.2 6.2 0 0 0-2.289-.43q-1.367 0-2.556.51-1.19.511-2.092 1.417H9.789v1.5h1.67a6 6 0 0 0-.495 1.095q-.193.573-.277 1.193H6.289v1.5h4.388q.108 1.065.529 2.036.42.973 1.14 1.753z"/></svg>