<svg xmlns="http://www.w3.org/2000/svg" width="24" height="24" viewBox="0 0 24 24" fill='currentColor'><path d="m19.804 21.942-2.256-2.256a9.5 9.5 0 0 1-2.602 1.346A9.2 9.2 0 0 1 12 21.5a9.2 9.2 0 0 1-3.703-.749 9.6 9.6 0 0 1-3.016-2.032 9.6 9.6 0 0 1-2.032-3.016A9.2 9.2 0 0 1 2.5 12q0-1.562.473-2.966a9.4 9.4 0 0 1 1.34-2.582L2.058 4.196l1.069-1.069 17.746 17.746zm-7.85-1.957q1.26 0 2.39-.37a7.8 7.8 0 0 0 2.089-1.044l-1.948-1.948q-1.133.339-2.185 1.144-1.052.806-1.75 2.081.352.066.694.101t.71.035m-3.245-.693q.731-1.493 1.652-2.319a16 16 0 0 1 1.648-1.32 10 10 0 0 0-1.255-.29 8.3 8.3 0 0 0-3.464.157q-1.028.27-1.996.78a8.4 8.4 0 0 0 1.491 1.745q.87.777 1.924 1.247m11.276-2.138-2.802-2.802q.774-.23 1.267-.871.492-.64.492-1.481 0-1.02-.71-1.732a2.36 2.36 0 0 0-1.732-.71q-.84 0-1.48.492-.642.492-.872 1.267L12.731 9.9a3.1 3.1 0 0 0-.934-2.19A3.08 3.08 0 0 0 9.6 6.77L6.846 4.015A9.33 9.33 0 0 1 12 2.5q1.97 0 3.703.749a9.6 9.6 0 0 1 3.016 2.032 9.6 9.6 0 0 1 2.032 3.016q.75 1.734.749 3.703 0 1.429-.392 2.73a9.3 9.3 0 0 1-1.123 2.424M9.5 13.25q.362 0 .68-.085.32-.087.609-.238L6.573 8.711q-.151.289-.238.608-.085.32-.085.681 0 1.353.948 2.302.949.948 2.302.948"/></svg>