<svg xmlns="http://www.w3.org/2000/svg" width="24" height="24" viewBox="0 0 24 24" fill='currentColor'><path d="M12.002 21.5a9.3 9.3 0 0 1-3.706-.748 9.6 9.6 0 0 1-3.016-2.03 9.6 9.6 0 0 1-2.032-3.016 9.25 9.25 0 0 1-.748-3.704q0-1.972.748-3.706a9.6 9.6 0 0 1 2.03-3.016 9.6 9.6 0 0 1 3.016-2.032 9.25 9.25 0 0 1 3.704-.748q1.972 0 3.706.748a9.6 9.6 0 0 1 3.017 2.03 9.6 9.6 0 0 1 2.03 3.016 9.25 9.25 0 0 1 .749 3.704q0 1.972-.748 3.706a9.6 9.6 0 0 1-2.03 3.017 9.6 9.6 0 0 1-3.016 2.03 9.25 9.25 0 0 1-3.704.749M9.5 13.25q1.353 0 2.302-.948.948-.949.948-2.302t-.948-2.302T9.5 6.75t-2.302.948Q6.25 8.647 6.25 10t.948 2.302 2.302.948m7 1.192q1.026 0 1.734-.708T18.942 12t-.708-1.734a2.36 2.36 0 0 0-1.734-.708q-1.026 0-1.734.708A2.36 2.36 0 0 0 14.058 12q0 1.026.708 1.734t1.734.708M12 20q2.047 0 3.75-.933a8.1 8.1 0 0 0 2.796-2.496q-.495-.14-1.008-.23a6 6 0 0 0-1.038-.091q-1.43 0-3.176.823-1.745.823-2.774 2.79.367.08.725.109T12 20m-3.29-.708q.73-1.492 1.65-2.319a16 16 0 0 1 1.65-1.32 10 10 0 0 0-1.256-.29 8.3 8.3 0 0 0-3.464.157q-1.028.27-1.996.78a8.4 8.4 0 0 0 1.492 1.745q.87.776 1.924 1.247"/></svg>