<svg xmlns="http://www.w3.org/2000/svg" width="24" height="24" viewBox="0 0 24 24" fill='currentColor'><path d="M12 21.5a9.2 9.2 0 0 1-3.687-.749 9.6 9.6 0 0 1-3.025-2.04 9.6 9.6 0 0 1-2.039-3.023A9.2 9.2 0 0 1 2.5 12q0-1.97.749-3.695a9.7 9.7 0 0 1 2.04-3.016 9.6 9.6 0 0 1 3.024-2.04A9.2 9.2 0 0 1 12 2.5q1.97 0 3.695.749 1.725.75 3.017 2.04 1.29 1.29 2.039 3.016T21.5 12q0 1.954-.749 3.688a9.6 9.6 0 0 1-2.04 3.024 9.7 9.7 0 0 1-3.016 2.039q-1.725.75-3.695.749M7 10.904a.87.87 0 0 0 .64-.264.87.87 0 0 0 .264-.64.87.87 0 0 0-.263-.64A.87.87 0 0 0 7 9.096a.87.87 0 0 0-.64.264.87.87 0 0 0-.264.64q0 .377.263.64.264.264.641.264m3-3a.87.87 0 0 0 .64-.263.87.87 0 0 0 .264-.641.87.87 0 0 0-.264-.64.87.87 0 0 0-.64-.264.87.87 0 0 0-.64.263.87.87 0 0 0-.264.641q0 .377.264.64.263.264.64.264m7 3a.87.87 0 0 0 .64-.264.87.87 0 0 0 .264-.64.87.87 0 0 0-.264-.64.87.87 0 0 0-.64-.264.87.87 0 0 0-.64.264.87.87 0 0 0-.264.64q0 .377.264.64.263.264.64.264m-5 2.846q.729 0 1.24-.51.51-.511.51-1.24 0-.325-.114-.623a1.8 1.8 0 0 0-.324-.539l1.75-4.397-1.404-.614-1.754 4.423a1.74 1.74 0 0 0-1.173.548q-.48.5-.481 1.202 0 .729.51 1.24.511.51 1.24.51m5.408 4.123A9.8 9.8 0 0 0 12 16.25a9.8 9.8 0 0 0-5.408 1.623l1.327.973a8.2 8.2 0 0 1 1.965-.817A8 8 0 0 1 12 17.75a8 8 0 0 1 2.116.279 8.2 8.2 0 0 1 1.965.817z"/></svg>