<svg xmlns="http://www.w3.org/2000/svg" width="24" height="24" viewBox="0 0 24 24" fill='currentColor'><path d="M7.252 21.5q-2.29 0-3.896-1.604T1.75 16V9.5h11V16q0 2.291-1.604 3.896T7.252 21.5M5.25 14.404a.87.87 0 0 0 .64-.264.87.87 0 0 0 .264-.64.87.87 0 0 0-.263-.64.87.87 0 0 0-.641-.264.87.87 0 0 0-.64.264.87.87 0 0 0-.264.64q0 .377.264.64a.87.87 0 0 0 .64.264m2 3.4q.936 0 1.646-.47.71-.468.739-1.238h-4.77q.03.77.739 1.238.71.47 1.646.47m2-3.4a.87.87 0 0 0 .64-.264.87.87 0 0 0 .264-.64.87.87 0 0 0-.264-.64.87.87 0 0 0-.64-.264.87.87 0 0 0-.64.264.87.87 0 0 0-.264.64q0 .377.264.64a.87.87 0 0 0 .64.264m7.5.096q-.66 0-1.321-.162a4.4 4.4 0 0 1-1.179-.465V8h-3V2.5h11V9q0 2.292-1.604 3.896T16.75 14.5m-2-7.096a.87.87 0 0 0 .64-.263.87.87 0 0 0 .264-.641.87.87 0 0 0-.264-.64.87.87 0 0 0-.64-.264.87.87 0 0 0-.64.263.87.87 0 0 0-.264.641q0 .377.264.64.263.264.64.264m-.385 3.4h4.77q-.049-.77-.758-1.239a2.9 2.9 0 0 0-1.627-.469q-.764 0-1.56.407-.795.407-.825 1.3m4.385-3.4a.87.87 0 0 0 .64-.263.87.87 0 0 0 .264-.641.87.87 0 0 0-.264-.64.87.87 0 0 0-.64-.264.87.87 0 0 0-.64.263.87.87 0 0 0-.264.641q0 .377.264.64.263.264.64.264"/></svg>