<svg xmlns="http://www.w3.org/2000/svg" width="24" height="24" viewBox="0 0 24 24" fill='currentColor'><path d="M21.462 7.75h-7.5v-1.5h7.5zM8.385 20.5q-1.874 0-3.187-1.314Q3.885 17.874 3.885 16q0-1.142.534-2.113a4.74 4.74 0 0 1 1.466-1.618V6q0-1.048.726-1.774A2.4 2.4 0 0 1 8.385 3.5q1.047 0 1.774.726.725.726.725 1.774v6.27q.931.647 1.461 1.617t.54 2.113q-.01 1.873-1.323 3.186Q10.248 20.5 8.385 20.5m-1-10.5h2V6a.97.97 0 0 0-.288-.713A.97.97 0 0 0 8.385 5a.97.97 0 0 0-.713.287.97.97 0 0 0-.287.713z"/></svg>