<svg xmlns="http://www.w3.org/2000/svg" width="24" height="24" viewBox="0 0 24 24" fill='currentColor'><path d="M13.802 20.5q-1.254 0-2.078-.829-.825-.828-.824-2.052 0-1.804 1.509-3.24t3.741-1.744q-.094-1.093-.503-1.623-.408-.53-1.155-.53-.798 0-1.692.64-.895.639-2.152 2.151-1.699 2.056-2.603 2.736-.903.681-1.885.681-1.15 0-1.905-.839-.755-.84-.755-2.113 0-1.234.544-2.56.545-1.325 1.79-3.08.562-.775.811-1.278.25-.503.25-.835 0-.243-.106-.364-.106-.12-.318-.121-.308 0-.692.284-.385.283-.875.876L3.5 5.25q.742-.86 1.486-1.305Q5.728 3.5 6.47 3.5q1.026 0 1.724.694.7.695.7 1.76 0 .676-.361 1.509-.36.831-1.236 2.066-.92 1.32-1.36 2.322-.438 1.001-.438 1.795 0 .483.18.763.18.282.48.281.279 0 .524-.151.245-.152.716-.62.325-.32.741-.8l1.009-1.161q1.584-1.894 2.802-2.685 1.218-.79 2.521-.79 1.589 0 2.567 1.086.98 1.087 1.11 2.989h2.36v2h-2.36q-.18 2.713-1.361 4.328-1.181 1.614-2.987 1.614m.03-2q.907 0 1.524-1.033.616-1.032.779-2.802a4.4 4.4 0 0 0-2.275 1.078q-.96.86-.96 1.795 0 .447.248.704.248.258.685.258M19.5 7.26a2.65 2.65 0 0 1-1.947-.803 2.65 2.65 0 0 1-.803-1.947q0-1.144.803-1.947A2.65 2.65 0 0 1 19.5 1.76q1.145 0 1.947.803.803.803.803 1.947t-.803 1.947a2.65 2.65 0 0 1-1.947.803"/></svg>