<svg xmlns="http://www.w3.org/2000/svg" width="24" height="24" viewBox="0 0 24 24" fill='currentColor'><path d="M3 17.75q-.729 0-1.24-.51-.51-.511-.51-1.24t.51-1.24T3 14.25q.17 0 .306.014t.271.094l4.78-4.781a.7.7 0 0 1-.092-.271A3 3 0 0 1 8.25 9q0-.729.51-1.24.511-.51 1.24-.51t1.24.51.51 1.24q0 .088-.088.558l2.78 2.78a.9.9 0 0 1 .262-.073q.126-.015.296-.015t.301.014q.131.015.257.094l3.8-3.8a.6.6 0 0 1-.093-.257A3 3 0 0 1 19.25 8q0-.729.51-1.24.511-.51 1.24-.51t1.24.51.51 1.24-.51 1.24q-.511.51-1.24.51-.17 0-.301-.014a.6.6 0 0 1-.257-.094l-3.8 3.8a.6.6 0 0 1 .093.257q.015.132.015.301 0 .729-.51 1.24-.511.51-1.24.51t-1.24-.51-.51-1.24q0-.17.014-.306t.094-.271l-2.781-2.78a.7.7 0 0 1-.271.092q-.136.015-.306.015-.088 0-.558-.088l-4.78 4.78q.06.135.074.262.014.126.014.296 0 .729-.51 1.24-.511.51-1.24.51"/></svg>