<svg xmlns="http://www.w3.org/2000/svg" width="24" height="24" viewBox="0 0 24 24" fill='currentColor'><path d="M8.615 19.5q-2.893 0-4.918-2.029t-2.024-4.923q0-2.894 2.024-4.923t4.918-2.029a6.7 6.7 0 0 1 2.35.408q1.106.408 1.999 1.133l1.001-1.002 1.044 1.044-.992 1.002a7 7 0 0 1 1.138 2.007q.412 1.114.412 2.36 0 2.894-2.028 4.923-2.03 2.03-4.924 2.029m10.077 0V7.358L17.4 8.65l-1.054-1.054L19.442 4.5l3.096 3.096L21.47 8.65l-1.277-1.277V19.5zM6.404 4.385v-1.5h4.442v1.5zm1.461 8.817h1.5V8.798h-1.5z"/></svg>