<svg xmlns="http://www.w3.org/2000/svg" width="24" height="24" viewBox="0 0 24 24" fill='currentColor'><path d="m3.279 22.75 2.8-14.273-2.377.96v3.313h-1.5V8.453l4.81-2.025q.685-.29 1.36-.11.672.18 1.068.816l.99 1.59a5.4 5.4 0 0 0 1.774 1.753 5.04 5.04 0 0 0 2.498.753v1.5a6.8 6.8 0 0 1-2.948-.783q-1.424-.735-2.427-2.13l-.744 3.76 2.119 2.038v7.135h-1.5v-5.837L6.698 14.52 4.84 22.75zM9.452 5.346a1.78 1.78 0 0 1-1.307-.54 1.78 1.78 0 0 1-.54-1.306q0-.768.54-1.307.54-.54 1.307-.54.768 0 1.307.54.54.54.539 1.307 0 .767-.54 1.306-.538.54-1.306.54m10 17.442-.839-.838.854-.854h-5.361v-1.193h5.361l-.854-.853.839-.839L21.74 20.5zm-3-4.25-2.289-2.288 2.289-2.289.838.839-.854.853h5.362v1.193h-5.361l.853.854z"/></svg>