<svg xmlns="http://www.w3.org/2000/svg" width="24" height="24" viewBox="0 0 24 24" fill='currentColor'><path d="M3.5 20.5v-17h6.356v17zm7.548-15.115V3.5h1.885v1.885zm1.885 1.894V5.385h1.894v1.894zm1.894-1.894V3.5h1.885v1.885zm3.779 0V3.5h1.884v1.885zM16.71 7.279V5.385h1.895v1.894zm-5.663 1.885V7.279h1.885v1.885zm3.779 0V7.279h1.885v1.885zm3.779 0V7.279h1.884v1.885zm-5.673 1.894V9.164h1.894v1.894zm3.779 0V9.164h1.894v1.894zm-5.664 1.884v-1.884h1.885v1.884zm3.779 0v-1.884h1.885v1.884zm3.779 0v-1.884h1.884v1.884zm-5.673 1.894v-1.894h1.894v1.894zm3.779 0v-1.894h1.894v1.894zm-5.664 1.885v-1.885h1.885v1.885zm3.779 0v-1.885h1.885v1.885zm3.779 0v-1.885h1.884v1.885zm-5.673 1.894v-1.894h1.894v1.894zm3.779 0v-1.894h1.894v1.894zM11.048 20.5v-1.885h1.885V20.5zm3.779 0v-1.885h1.885V20.5zm3.779 0v-1.885h1.884V20.5z"/></svg>