<svg xmlns="http://www.w3.org/2000/svg" width="24" height="24" viewBox="0 0 24 24" fill='currentColor'><path d="m7.75 22-1.5-1.125V16.75h-3v-9.5h-1v-1.5h4v-2h-1.5v-1.5h4.5v1.5h-1.5v2h4v1.5h-1v9.5h-3zm-3-6.75h4.5v-1.904H6.654v-1.192H9.25v-1.808H6.654V9.154H9.25V7.25h-4.5zm8.5 6.5V13.5q0-.72.279-1.193t.554-.803q.265-.322.466-.538a.68.68 0 0 0 .201-.466v-.75h-1v-1.5h6.5v1.5h-1v.75q0 .247.216.489.217.24.497.561.275.33.531.801.256.47.256 1.149v8.25zm1.5-7.596h4.5V13.5q0-.433-.225-.736a10 10 0 0 0-.52-.639 6 6 0 0 1-.511-.675q-.244-.373-.244-.95v-.75h-1.5v.75q0 .56-.238.931a6 6 0 0 1-.503.679q-.294.334-.526.646a1.2 1.2 0 0 0-.233.744zm0 6.096h4.5v-1.904h-4.5z"/></svg>