<svg xmlns="http://www.w3.org/2000/svg" width="24" height="24" viewBox="0 0 24 24" fill='currentColor'><path d="M20.777 22.916 19.361 21.5H17V20h1.033v.172L3.736 5.875H4V7H2.5V4.64L1.266 3.404l1.069-1.069 19.511 19.512zm.723-4.247-1.5-1.5V17h1.5zM6.83 4l-1.5-1.5H7V4zM2.5 21.5V17H4v3h3v1.5zM20 7V4h-3V2.5h4.5V7zm-1.25 8.92-4.398-4.398 2.898-1.657V9l-.78-.446-3.212 1.873-4.385-4.385L12 4.24l6.75 3.89zM12 19.82l-6.75-3.891v-7.8l1.833-1.046L9.96 9.96 7.53 8.554 6.75 9v.865l4.5 2.585v5.216l.75.43.75-.43V12.75l4.206 4.206z"/></svg>