<svg xmlns="http://www.w3.org/2000/svg" width="24" height="24" viewBox="0 0 24 24" fill='currentColor'><path d="m19.762 21.87-4.046-4.016q-.77.285-1.705.465-.936.18-2.011.18-3.525 0-6.34-1.938-2.815-1.939-4.122-5.061.555-1.325 1.431-2.472a11.4 11.4 0 0 1 1.93-1.99l-2.768-2.8 1.054-1.053 17.63 17.63zM12 15.576q.313 0 .642-.054.33-.054.585-.158l-5.092-5.092q-.105.275-.158.599a4 4 0 0 0-.054.628q0 1.701 1.187 2.89 1.188 1.187 2.89 1.187m6.954.507-3.137-3.111q.117-.32.189-.685.07-.365.071-.788 0-1.702-1.188-2.89Q13.703 7.423 12 7.423a3.7 3.7 0 0 0-.779.076q-.355.075-.684.228L8.035 5.235a10 10 0 0 1 1.936-.556q.989-.18 2.029-.18 3.516 0 6.34 1.94 2.825 1.938 4.122 5.06-.557 1.34-1.436 2.503a11 11 0 0 1-2.072 2.082m-4.27-4.234-3.009-3q.661-.125 1.249.098t1.013.663q.435.44.636 1.033.203.593.111 1.206"/></svg>