<svg xmlns="http://www.w3.org/2000/svg" width="24" height="24" viewBox="0 0 24 24" fill='currentColor'><path d="M12 21.5a9.3 9.3 0 0 1-3.697-.744 9.6 9.6 0 0 1-3.024-2.034 9.6 9.6 0 0 1-2.035-3.025A9.3 9.3 0 0 1 2.5 12q0-1.979.744-3.704A9.6 9.6 0 0 1 5.28 5.279a9.6 9.6 0 0 1 3.024-2.034A9.3 9.3 0 0 1 12 2.5q.8 0 1.537.123.738.122 1.463.347V7h-4v3H8v2h7v4h1l1.9 1.4a8.4 8.4 0 0 0 1.538-2.453A7.7 7.7 0 0 0 20 12q0-.275-.015-.5a5 5 0 0 0-.066-.5h1.531q.05.276.05.5v.5a9.3 9.3 0 0 1-.744 3.697 9.6 9.6 0 0 1-2.035 3.025 9.6 9.6 0 0 1-3.016 2.034A9.3 9.3 0 0 1 12 21.5m-1-1.55V18l-2-2v-1l-4.8-4.8q-.075.45-.138.9Q4 11.55 4 12q0 3.081 2.013 5.328T11 19.95M17 9V4.231h1v-1q0-.787.549-1.335a1.82 1.82 0 0 1 1.335-.55q.787 0 1.336.55.55.548.55 1.335v1h1v4.77zm1.884-4.769h2v-1a.97.97 0 0 0-.287-.712.97.97 0 0 0-.713-.288.97.97 0 0 0-.712.288.97.97 0 0 0-.288.712z"/></svg>