<svg xmlns="http://www.w3.org/2000/svg" width="24" height="24" viewBox="0 0 24 24" fill='currentColor'><path d="M8.467 7.561 5.823 4.917l1.07-1.07 2.644 2.645zm3.783-2.269v-3.75h1.5v3.75zm6.833 12.885-2.644-2.644 1.069-1.07 2.644 2.645zM17.7 7.369l-1.07-1.07 2.645-2.644 1.07 1.07zm1.008 4.38v-1.5h3.75v1.5zM5.777 21.753l-3.538-3.539 9.444-9.444a2.4 2.4 0 0 1 1.769-.73 2.4 2.4 0 0 1 1.769.73 2.4 2.4 0 0 1 .731 1.77 2.4 2.4 0 0 1-.731 1.768zm6.275-8.389 2.1-2.125q.3-.3.3-.7t-.3-.7a.95.95 0 0 0-.7-.29.95.95 0 0 0-.7.29l-2.125 2.125z"/></svg>