<svg xmlns="http://www.w3.org/2000/svg" width="24" height="24" viewBox="0 0 24 24" fill='currentColor'><path d="m19.608 22.062-4.043-4.043-.057.039-.873 3.038h-5.27l-1.119-3.823a6.4 6.4 0 0 1-1.987-2.226Q5.5 13.667 5.5 12a6.33 6.33 0 0 1 .856-3.19L1.938 4.393l1.07-1.07 17.669 17.67zM12 17q.539 0 1.07-.116.532-.116.986-.35l-6.59-6.59a4.2 4.2 0 0 0-.355 1.005A5 5 0 0 0 7 12q0 2.076 1.462 3.538Q9.925 17 12 17m5.685-1.835-1.125-1.124q.212-.474.327-.964Q17 12.587 17 12q0-2.074-1.463-3.537T12 7q-.586 0-1.096.119-.51.118-.945.322L8.444 5.925l.048-.028.873-2.993h5.27l1.119 3.823a6.2 6.2 0 0 1 2.002 2.255Q18.5 10.383 18.5 12q0 .881-.21 1.668a6.5 6.5 0 0 1-.605 1.498"/></svg>