<svg xmlns="http://www.w3.org/2000/svg" width="24" height="24" viewBox="0 0 24 24" fill='currentColor'><path d="m14.877 22.273-.358-.805a3.8 3.8 0 0 1-.278-.864 4.7 4.7 0 0 1-.087-.904q0-.54.13-1.068t.37-1.028q.2-.425.35-.872t.15-.932q0-.394-.088-.763a4 4 0 0 0-.247-.729l-.283-.606 1.087-.475.358.765q.19.416.278.876.087.46.087.932 0 .54-.13 1.056t-.37 1.015q-.2.426-.35.885-.15.46-.15.944 0 .37.075.726.075.357.235.692l.317.68zm3 0-.358-.805a3.8 3.8 0 0 1-.278-.864 4.7 4.7 0 0 1-.087-.904q0-.54.13-1.068t.37-1.028q.2-.425.35-.872t.15-.932q0-.394-.088-.763a4 4 0 0 0-.247-.729l-.282-.606 1.086-.475.358.765q.19.44.278.889.087.448.087.92a4.6 4.6 0 0 1-.48 2.042q-.21.444-.365.908t-.155.95q0 .368.075.725t.235.692l.317.68zm3 0-.358-.805a3.8 3.8 0 0 1-.278-.864 4.7 4.7 0 0 1-.087-.904q0-.54.13-1.068t.37-1.028q.2-.425.35-.872t.15-.932q0-.394-.088-.763a4 4 0 0 0-.247-.729l-.282-.606 1.086-.475.358.765q.2.416.282.876.084.46.083.932 0 .53-.12 1.054t-.36 1.004a9 9 0 0 0-.365.901 2.9 2.9 0 0 0-.155.941q0 .37.075.726.075.357.235.692l.317.68zM4.5 13.8q0-2.326 1.862-5.1Q8.226 5.924 12 2.653q2.777 2.405 4.504 4.539t2.469 4.034h-5.011q-.75 0-1.278.53a1.74 1.74 0 0 0-.53 1.278V21.5H12q-3.213 0-5.357-2.206Q4.5 17.09 4.5 13.8"/></svg>