<svg xmlns="http://www.w3.org/2000/svg" width="24" height="24" viewBox="0 0 24 24" fill='currentColor'><path d="M11.25 3.942V1.25h1.5v2.692zm0 18.808v-2.692h1.5v2.692zm8.808-10v-1.5h2.692v1.5zm-18.808 0v-1.5h2.692v1.5zm17.258-6.204-1.054-1.054 1.596-1.626 1.084 1.084zM4.95 20.134 3.865 19.05l1.627-1.596 1.054 1.054zm14.1 0-1.596-1.626 1.054-1.054 1.627 1.596zM5.492 6.547 3.866 4.95 4.95 3.865l1.596 1.627zm6.51 10.954q-2.29 0-3.896-1.604T6.5 12.003t1.604-3.896Q9.708 6.5 11.998 6.5t3.896 1.604 1.606 3.894-1.604 3.896Q14.293 17.5 12.003 17.5"/></svg>