<svg xmlns="http://www.w3.org/2000/svg" width="24" height="24" viewBox="0 0 24 24" fill='currentColor'><path d="M12.779 22.462q-.519 0-.885-.354a1.16 1.16 0 0 1-.365-.872q0-.241.088-.469.089-.227.275-.398l.887-.821.886.821q.188.171.276.398.087.227.088.47 0 .518-.365.872a1.23 1.23 0 0 1-.885.352m-3.45-1.453-.848-.848 2.748-2.748.848.849zm6.45-1.5-1.298-1.297 1.298-1.299 1.298 1.299zm-9 0L5.48 18.213l1.298-1.299 1.298 1.299zM7.5 15.75q-2.178 0-3.714-1.536Q2.25 12.68 2.25 10.5q0-2.008 1.341-3.49Q4.933 5.527 6.93 5.28a5.76 5.76 0 0 1 2.11-2.222A5.6 5.6 0 0 1 12 2.25q2.202 0 3.807 1.433 1.605 1.432 1.906 3.573 1.784.13 2.91 1.353A4.12 4.12 0 0 1 21.75 11.5q0 1.77-1.24 3.01t-3.01 1.24z"/></svg>