<svg xmlns="http://www.w3.org/2000/svg" width="24" height="24" viewBox="0 0 24 24" fill='currentColor'><path d="M15.73 20.289v-4.77h1.01v-1q0-.787.55-1.335a1.82 1.82 0 0 1 1.335-.55q.787 0 1.335.55.55.548.55 1.335v1h.99v4.77zm1.895-4.77h2v-1a.97.97 0 0 0-.288-.712.97.97 0 0 0-.712-.288.97.97 0 0 0-.712.288.97.97 0 0 0-.288.712zM12 20.29.712 9A15.8 15.8 0 0 1 5.91 5.653 16.4 16.4 0 0 1 12 4.5q3.17 0 6.09 1.153A15.8 15.8 0 0 1 23.288 9l-2.148 2.148a5.4 5.4 0 0 0-1.1-.34 6 6 0 0 0-1.16-.114q-2.472 0-4.21 1.739-1.74 1.739-1.74 4.211 0 .586.114 1.159.114.575.34 1.1z"/></svg>