<svg xmlns="http://www.w3.org/2000/svg" width="24" height="24" viewBox="0 0 24 24" fill='currentColor'><path d="M10 6.5h4v-2h-4zm8 16q-1.873 0-3.187-1.314Q13.5 19.874 13.5 18t1.313-3.187T18 13.5t3.186 1.313Q22.5 16.127 22.5 18t-1.314 3.186Q19.874 22.5 18 22.5m-15.5-2v-14h6V3h7v3.5h6v6.044a6.1 6.1 0 0 0-1.674-.782A6.5 6.5 0 0 0 18 11.5q-2.698 0-4.599 1.901-1.9 1.9-1.901 4.599 0 .642.124 1.274t.387 1.226zm15.5.212a.46.46 0 0 0 .34-.14.46.46 0 0 0 .14-.341.46.46 0 0 0-.14-.34.46.46 0 0 0-.34-.141.46.46 0 0 0-.34.14.46.46 0 0 0-.14.34q0 .201.14.341t.34.14m-.442-1.924h.884v-3.5h-.884z"/></svg>